# vtk DataFile Version 2.0
File written by itkPolyDataMeshIO
ASCII
DATASET POLYDATA
POINTS 793 float
36.788185 -22.062828 255.26295
36.78817 -22.062843 255.26294
24.4636 -10.555031 259.1115
30.336113 -9.676201 261.05634
14.700432 -7.899178 265.40552
21.621056 -7.226036 267.80908
5.949654 -6.44651 273.45187
12.815346 -5.844429 275.81284
-0.81649 -4.207909 284.06946
5.476006 -3.725151 286.02252
-5.045769 -3.138329 295.64685
0.540489 -2.830528 296.89462
-6.346626 -3.205498 306.7324
-1.441994 -3.04821 307.03574
-5.300194 -3.126198 316.68985
-1.101082 -2.890465 315.902
-3.301247 -2.045036 323.87708
0.33416 -1.854286 322.15436
-1.098991 0.06205 328.00394
2.119896 -0.140022 325.63013
2.119911 -0.140007 325.63013
1.269249 2.614113 330.60983
4.027962 1.9813 327.7704
1.269264 2.614113 330.6099
4.027977 1.981316 327.7704
3.715706 5.652687 332.24606
6.071663 4.635323 329.12857
5.604973 8.996712 332.9671
7.703667 7.55761 329.58975
6.645958 12.218422 332.7714
8.535271 10.106331 329.19794
6.645943 12.218422 332.7714
8.535271 10.106316 329.19794
7.552406 14.944633 331.67285
9.078377 11.939339 328.55432
8.45208 18.105675 329.36093
9.730385 14.403282 326.97955
9.221413 22.11457 326.16455
10.439659 18.390038 324.03937
9.002998 26.780006 321.78128
10.0942 23.895897 318.9887
9.002983 26.779976 321.78128
10.094185 23.895851 318.9887
7.592598 32.141426 315.29126
8.661064 29.434074 312.90268
5.532707 36.8332 306.65366
6.773552 33.794823 305.36295
4.250954 41.531197 295.02222
5.587883 38.303444 294.5596
4.63282 43.5241 281.3211
5.960396 40.263695 281.30487
4.63282 43.524117 281.32117
5.960396 40.26371 281.30487
6.016258 43.02903 266.43143
7.335915 39.764183 266.56015
7.429558 42.258034 249.89157
8.742821 39.002068 250.07773
8.284492 39.372826 232.16985
9.597099 36.099266 232.53728
8.284492 39.372826 232.1698
9.597115 36.099266 232.53725
8.617714 34.64936 214.44714
9.900887 31.481575 214.88599
8.080742 31.21093 196.11845
9.270515 28.436775 196.36049
6.385902 28.379173 176.78925
7.521461 25.90461 177.00479
6.385918 28.379204 176.7892
7.521477 25.904625 177.00475
6.106941 25.197792 159.39577
7.247414 22.765404 159.95422
7.07618 20.936974 144.90237
8.193855 18.60772 145.82123
7.076164 20.936958 144.90234
8.193855 18.607704 145.82118
7.711235 15.958107 133.00574
8.81855 13.630318 133.94109
8.055367 11.172676 122.59269
9.163429 8.919151 123.69495
7.619926 6.355949 112.808334
8.69706 3.941338 113.51982
7.619957 6.355965 112.80832
8.697075 3.941338 113.519806
7.384758 2.379555 100.356674
8.44236 -0.104103 100.85913
7.67643 -1.716988 86.82175
8.725212 -4.179176 87.41143
7.844185 -4.917213 74.1445
8.886253 -7.352333 74.853745
7.844185 -4.917198 74.14447
8.886269 -7.352348 74.85371
8.041267 -7.062935 61.37373
9.084023 -9.498177 62.084892
8.296989 -9.211006 50.943485
9.342598 -11.689934 51.46303
8.156044 -11.131248 43.123165
9.200203 -13.646355 43.452713
8.156029 -11.131248 43.12314
9.200203 -13.64637 43.452694
7.570137 -12.353264 35.272324
8.601891 -14.889824 35.41376
6.957985 -12.84977 26.97479
7.970238 -15.391518 26.912802
6.957985 -12.84977 26.97477
7.970253 -15.391518 26.912779
6.486 -12.794975 18.337063
7.504433 -15.349495 18.275602
5.929115 -12.887077 10.818533
6.941307 -15.431618 10.741544
6.520973 -12.9627 3.701765
7.290535 -14.892525 3.664161
6.521004 -12.962685 3.701749
7.290565 -14.892509 3.664145
10.5438 -12.681831 -1.939224
10.543785 -12.681847 -1.939224
36.788155 -22.062828 255.26294
34.718727 -10.975212 262.79074
26.253136 -8.842583 269.75415
17.378838 -7.490486 277.7191
9.695137 -5.34919 287.6299
4.33532 -4.453514 298.0055
2.0476 -4.660484 307.52353
2.471779 -4.41642 315.65195
3.993431 -3.398003 321.28946
5.566383 -1.879692 324.38678
5.566383 -1.879692 324.38675
7.238274 0.056206 326.25818
7.238304 0.056206 326.2582
9.130821 2.611015 327.45822
10.803474 5.438469 327.78058
11.774849 7.693398 327.29962
11.774834 7.693398 327.29962
12.219765 9.061348 326.9756
12.751335 11.197044 325.89526
13.479927 15.435814 322.81216
12.895088 21.904472 316.76382
12.895073 21.904442 316.7638
11.210075 27.706581 310.7819
9.378197 31.757668 304.16104
8.279305 36.068336 294.17603
8.645424 37.994896 281.39227
8.645439 37.994896 281.39233
10.014824 37.49061 266.75708
11.415291 36.734673 250.29526
12.282753 33.819252 232.90045
12.282768 33.819252 232.90042
12.522835 29.268654 215.18651
11.625923 26.509544 196.37433
9.678642 24.227745 177.09335
9.678627 24.227745 177.0933
9.416405 21.131157 160.37381
10.345848 17.04702 146.51175
10.345848 17.047005 146.51172
10.963783 12.034279 134.5625
11.309441 7.364998 124.417145
10.816582 2.241051 113.88823
10.816597 2.241081 113.88821
10.550957 -1.822319 101.24309
10.829979 -5.872871 87.90028
10.986748 -9.053856 75.33212
10.986748 -9.053856 75.33209
11.184761 -11.19326 62.590706
11.445732 -13.409203 51.848473
11.300865 -15.406822 43.624138
11.30085 -15.406837 43.62411
10.69239 -16.671196 35.40424
10.043312 -17.176628 26.775576
10.043312 -17.176613 26.775553
9.590782 -17.143623 18.152287
9.014046 -17.219215 10.561164
8.865105 -16.248116 3.554887
8.865135 -16.248116 3.554872
37.80407 -13.93618 264.31012
29.380806 -11.978844 271.40073
20.446815 -10.600182 279.33267
12.552681 -8.330589 289.012
6.935219 -7.308846 299.03366
4.491951 -7.431282 308.18445
5.118935 -7.253273 315.9968
6.872581 -6.315727 321.47864
8.457771 -4.75959 324.5578
8.457802 -4.759575 324.5578
10.17527 -2.722557 326.42157
10.175301 -2.722557 326.42157
12.216026 0.037971 327.6238
14.2658 3.10714 327.96475
15.742363 5.512337 327.52594
15.742363 5.512306 327.52594
16.329033 6.991096 327.31073
16.900429 9.245064 326.35712
17.707085 13.954948 322.75067
16.836418 21.280754 315.58905
16.836403 21.280708 315.589
14.686211 27.35102 309.39514
12.756157 31.176125 303.31683
11.715721 35.325584 293.9578
12.079567 37.22474 281.5633
12.079582 37.22474 281.56332
13.446236 36.7165 266.97772
14.841148 35.962883 250.4951
15.734673 33.041817 233.17772
15.734688 33.041832 233.17767
15.884514 28.506966 215.28168
14.601097 25.866478 196.1576
12.375206 23.726921 177.03473
12.375237 23.726936 177.03467
12.127907 20.664055 160.55986
13.050026 16.607155 146.81815
13.050026 16.60714 146.81812
13.666512 11.530174 134.7296
14.012764 6.861015 124.5961
13.503899 1.638786 113.83003
13.503914 1.638786 113.83002
13.238503 -2.387321 101.42194
13.519524 -6.415733 88.178185
13.675255 -9.637733 75.471725
13.675255 -9.637733 75.471695
13.873024 -11.765678 62.77714
14.135399 -13.980858 52.012897
13.987724 -16.015434 43.598576
13.987709 -16.01545 43.598553
13.373589 -17.29551 35.245567
12.712944 -17.8023 26.593805
12.712959 -17.8023 26.593782
12.277794 -17.772469 17.994825
11.683067 -17.846504 10.317789
10.892082 -16.723701 3.398392
10.892113 -16.723686 3.398377
10.54377 -12.681847 -1.939224
36.788185 -22.062828 255.26297
36.78817 -22.062828 255.26295
39.17292 -18.07116 265.40085
29.380821 -11.978844 271.40076
30.674782 -16.311134 272.57996
20.44683 -10.600166 279.3327
21.69497 -14.89315 280.4941
12.552696 -8.330559 289.01202
13.739296 -12.40641 290.03076
6.935249 -7.30883 299.03366
8.054115 -11.127632 299.87476
4.491966 -7.431267 308.18445
5.584236 -11.041252 308.94852
5.11895 -7.253258 315.99683
6.346169 -10.889778 316.89008
6.872597 -6.315712 321.47864
8.314812 -9.945351 322.68518
8.457787 -4.759575 324.55783
10.126595 -8.120384 326.1099
8.457817 -4.75956 324.5578
10.175301 -2.722542 326.42157
12.161232 -5.716637 328.2287
10.175301 -2.722542 326.4216
12.161247 -5.716621 328.2287
12.216042 0.037971 327.6238
14.611763 -2.487846 329.5909
14.265816 3.10714 327.9648
17.256355 1.121758 330.09778
15.742363 5.512337 327.52597
19.410133 4.121971 329.81165
15.742363 5.512306 327.52597
19.410118 4.121956 329.81165
16.329048 6.991096 327.31073
20.28405 6.282768 329.4593
16.90046 9.245064 326.35715
21.036598 9.070045 328.23425
17.7071 13.954948 322.75067
21.976997 14.337898 323.8673
16.836418 21.28077 315.58905
20.907555 22.18618 315.76044
16.836403 21.280739 315.58905
20.907524 22.186134 315.76038
14.686211 27.351036 309.39517
18.267677 28.465477 309.076
12.756172 31.176125 303.31683
16.140984 32.19364 303.02545
11.715736 35.3256 293.95782
15.119102 36.25129 293.9552
12.079597 37.22474 281.56332
15.484932 38.136803 281.7794
12.079613 37.224754 281.56332
15.484932 38.136818 281.7794
13.446266 36.716515 266.97772
16.853157 37.6258 267.17184
14.841164 35.9629 250.4951
18.244225 36.870644 250.6317
15.734673 33.041847 233.17773
19.17231 33.9506 233.30559
15.734703 33.041847 233.1777
19.172325 33.950615 233.30554
15.884529 28.50698 215.2817
19.221077 29.381386 215.14848
14.601112 25.866493 196.15761
17.511375 26.67463 195.75745
12.375221 23.726936 177.03473
14.99865 24.530983 176.84059
12.375252 23.726952 177.03468
14.99868 24.530983 176.84056
12.127907 20.66407 160.55988
14.765358 21.48542 160.46687
13.050041 16.60717 146.81815
15.691795 17.402596 146.6655
13.050041 16.60717 146.81812
15.69178 17.402596 146.66547
13.666512 11.53019 134.7296
16.312523 12.246803 134.39862
14.012764 6.861015 124.59611
16.659004 7.53553 124.18426
13.503914 1.638786 113.83003
16.148415 2.285881 113.35355
13.503944 1.638802 113.83002
16.14843 2.285881 113.35354
13.238518 -2.387306 101.42194
15.894402 -1.655617 101.35219
13.519539 -6.415718 88.17819
16.182869 -5.669365 88.17873
13.675255 -9.637718 75.471725
16.34121 -8.956535 75.23641
13.675255 -9.637718 75.4717
16.34121 -8.95652 75.23638
13.873024 -11.765663 62.777145
16.538292 -11.070564 62.597553
14.135414 -13.980858 52.0129
16.800774 -13.25988 51.9159
13.98774 -16.015434 43.59858
16.65052 -15.318611 43.37956
13.987724 -16.01545 43.598557
16.650505 -15.318626 43.379536
16.036613 -16.605522 34.972427
12.712944 -17.8023 26.59381
15.373009 -17.111015 26.40874
12.712975 -17.802284 26.593784
15.373009 -17.111 26.408718
12.277809 -17.772469 17.994827
14.955421 -17.077675 17.838999
11.683067 -17.846504 10.31779
14.342445 -17.155586 10.066599
10.892082 -16.723701 3.398393
12.911201 -16.19944 3.230057
12.911217 -16.19944 3.230042
10.543785 -12.681831 -1.939224
36.788216 -22.062813 255.26297
38.384026 -22.467628 265.77612
29.65438 -20.996574 272.98187
20.648369 -19.56501 280.9016
12.808037 -16.820305 290.42535
7.282082 -15.190559 300.32257
4.950768 -14.778847 309.64523
5.816231 -14.539696 318.1351
7.983055 -13.455223 324.63428
10.185707 -11.189491 328.68695
10.185707 -11.189491 328.68698
12.736717 -8.239372 331.26202
12.736748 -8.239357 331.26205
15.758507 -4.386436 332.90073
19.045738 -0.047493 333.67535
21.874275 3.859657 333.60663
21.874275 3.859642 333.60663
23.192513 7.06292 332.89566
24.220482 10.667351 331.0688
25.325249 16.45536 325.88635
24.139381 24.39721 317.2353
24.139366 24.397179 317.2353
21.116188 30.801353 309.90555
18.75106 34.582664 303.35797
17.699379 38.636223 294.16925
18.072166 40.525856 281.99078
18.072166 40.52587 281.9908
19.44535 40.013756 267.2944
20.835732 39.253197 250.6732
21.797462 36.342308 233.25372
21.797478 36.342323 233.25368
21.762245 31.691063 214.81732
19.689247 28.7407 195.26706
16.933891 26.459358 176.55563
16.933907 26.459358 176.5556
16.711296 23.409767 160.11513
17.65255 19.253746 146.08705
17.65255 19.25373 146.087
18.282204 14.023109 133.6443
18.628578 9.237083 123.27487
18.130943 4.037727 112.56812
18.130974 4.037727 112.56811
17.896904 0.20858 101.04886
18.196556 -3.801491 87.900345
18.360558 -7.162834 74.67922
18.360573 -7.162819 74.67919
18.556725 -9.263664 62.09193
18.817924 -11.408012 51.578712
18.665916 -13.47245 43.017284
18.665901 -13.472435 43.017258
18.058067 -14.755669 34.64814
17.400887 -15.257423 26.263676
17.400887 -15.257408 26.263655
16.996895 -15.21476 17.721268
16.369728 -15.300972 9.866343
14.449867 -14.792656 3.089232
14.449883 -14.792641 3.089217
10.543816 -12.681816 -1.939224
36.78817 -22.062828 255.26294
35.52964 -26.153679 265.3245
26.502098 -25.004662 272.50452
17.513771 -23.596474 280.46072
9.943855 -20.614037 290.10815
4.760765 -18.613686 300.27832
2.697807 -17.822014 310.11972
3.632393 -17.382622 319.4464
5.957375 -16.043968 326.8724
8.630302 -13.266533 331.68835
11.78318 -9.723381 334.81274
11.783195 -9.723351 334.81277
15.422798 -5.252586 336.77585
19.330269 -0.238228 337.84293
22.796593 4.573387 338.0195
22.796577 4.573372 338.0195
24.62342 8.964027 336.9158
25.981804 13.503304 334.3212
27.232811 19.701958 328.4177
25.995964 27.33268 319.66476
25.995949 27.33265 319.66476
22.634804 33.76806 311.67273
19.989922 37.794746 304.23813
18.872475 41.953148 294.55353
19.253822 43.858696 282.1495
19.253822 43.85871 282.14954
20.634987 43.34945 267.31747
22.027641 42.57955 250.60976
23.014992 39.686516 233.03264
23.014992 39.686516 233.0326
22.930641 34.916283 214.36281
20.636269 31.586983 194.7995
17.737175 29.078468 176.2443
17.737175 29.078499 176.24425
17.519493 26.00364 159.58356
18.482826 21.743614 145.21263
18.482826 21.743584 145.2126
19.124107 16.459099 132.6366
19.470024 11.582542 122.07284
18.99723 6.500099 111.651184
18.997261 6.500114 111.65116
18.787224 2.785637 100.57996
19.09922 -1.232643 87.405174
19.270638 -4.660332 73.92561
19.270653 -4.660332 73.925575
19.465828 -6.751747 61.374027
19.724663 -8.842094 51.0771
19.572105 -10.892357 42.593613
19.572105 -10.892372 42.59359
18.974861 -12.162148 34.346302
18.332008 -12.658607 26.191797
18.332008 -12.658592 26.191774
17.934563 -12.602882 17.668621
17.300453 -12.700066 9.762855
15.155586 -12.819939 3.008097
15.155602 -12.819923 3.008082
36.7882 -22.062828 255.26295
31.31501 -28.312492 264.17007
21.949455 -27.418663 271.2608
13.020897 -26.06083 279.2766
5.812767 -22.917366 289.1566
1.06794 -20.616005 299.7559
-0.666862 -19.479866 310.26657
0.287804 -18.773445 320.5263
2.700264 -17.123116 328.8901
5.815758 -13.875069 334.43048
5.815758 -13.875069 334.4305
9.512688 -9.816475 338.06964
9.512703 -9.816475 338.0697
13.659401 -4.854866 340.3305
17.955742 0.697853 341.66177
21.76603 6.299507 342.03314
21.76603 6.299492 342.03314
24.01757 11.71331 340.46567
25.660133 17.05877 337.09625
27.009651 23.416359 330.7755
25.859337 30.364342 322.46774
25.859322 30.364296 322.4677
22.416466 36.7156 313.97562
19.567436 41.09153 305.46323
18.362022 45.42788 295.01855
18.75216 47.36045 282.21857
18.75216 47.360466 282.21857
20.142067 46.856117 267.23553
21.539925 46.076042 250.45604
22.537178 43.20304 232.69414
22.537209 43.203026 232.6941
22.455284 38.31173 213.88974
20.145027 34.56208 194.46068
17.231453 31.765938 175.98
17.231453 31.765923 175.97995
17.012077 28.652077 158.99873
17.999382 24.281837 144.25043
17.999382 24.281822 144.2504
18.652184 18.976768 131.61444
18.997429 14.015343 120.863045
18.555367 9.08828 110.81915
18.555382 9.088295 110.81914
18.367775 5.463921 100.05718
18.690468 1.427635 86.8116
18.869286 -2.043098 73.15441
18.8693 -2.043098 73.15437
19.063637 -4.13102 60.614433
19.319618 -6.17115 50.530426
19.167915 -8.19088 42.20858
19.167885 -8.190895 42.208553
18.583214 -9.440773 34.137505
17.95922 -9.931664 26.209232
17.959236 -9.931648 26.209211
17.559807 -9.862206 17.692741
16.927498 -9.97039 9.779401
14.87133 -10.749626 3.005055
14.871361 -10.749626 3.005041
26.67701 -28.41085 262.56146
16.98664 -27.649956 269.50952
8.149544 -26.350807 277.59406
1.322487 -23.164162 287.7677
-2.978706 -20.713753 298.86212
-4.392235 -19.361015 310.04712
-3.463341 -18.38929 321.12863
-1.050316 -16.443901 330.23022
2.377449 -12.873131 336.29294
2.377464 -12.873116 336.29297
6.433647 -8.48954 340.297
6.433678 -8.489525 340.297
10.85656 -3.269417 342.76266
15.21151 2.576469 344.2707
18.964745 8.701149 344.7367
18.964745 8.701134 344.7367
21.418434 14.760963 342.7191
23.227821 20.594872 338.73322
24.608955 26.805992 332.40594
23.702293 32.83027 325.01126
23.702263 32.83024 325.01123
20.501686 38.989418 316.2937
17.58361 43.716316 306.751
16.286797 48.254692 295.4561
16.68441 50.221123 282.18216
16.684425 50.221138 282.1822
18.081749 49.721733 267.06754
19.486275 48.933846 250.2476
20.476662 46.0763 232.3167
20.476662 46.076286 232.31667
20.444435 41.09603 213.50702
18.322655 36.993446 194.32721
15.536842 33.907616 175.82292
15.536858 33.907616 175.82288
15.308922 30.750404 158.49419
16.31672 26.288948 143.42024
16.316734 26.288933 143.4202
16.978401 21.001198 130.81119
17.322823 15.979836 119.92164
16.910347 11.211082 110.26166
16.910378 11.211082 110.26165
16.738487 7.631752 99.59999
17.067726 3.571815 86.2554
17.252266 0.091087 72.54164
17.252281 0.091087 72.54161
17.446114 -2.000069 59.9866
17.699379 -4.00515 50.06359
17.549675 -5.985054 41.949932
17.54966 -5.985069 41.94991
16.976616 -7.213173 34.06909
16.371666 -7.699425 26.311705
16.371666 -7.699425 26.311684
15.962242 -7.618721 17.787846
15.340172 -7.735435 9.911795
13.665138 -9.054634 3.080565
13.665138 -9.054634 3.080549
10.5438 -12.681847 -1.939224
22.531868 -26.400887 260.8134
12.632332 -25.627724 267.6047
3.907768 -24.372108 275.75253
-2.584084 -21.2696 286.22284
-6.510948 -18.866035 297.7789
-7.659019 -17.484184 309.5017
-6.771019 -16.311363 321.11224
-4.433586 -14.154793 330.5832
-0.897896 -10.488289 336.8468
-0.897881 -10.488304 336.84683
3.252174 -6.053703 340.98663
3.25219 -6.053703 340.98666
7.668739 -0.883644 343.52115
11.802498 4.878349 345.07062
15.213722 11.057854 345.53836
15.213707 11.057838 345.53833
17.61419 17.292427 343.30655
19.459251 23.220512 339.0123
20.795662 29.053474 333.047
20.191063 34.145103 326.74893
20.191048 34.145073 326.7489
17.387001 40.049217 318.09656
14.502693 45.065773 307.80518
13.132805 49.79107 295.7663
13.534431 51.78846 282.04926
13.534447 51.788475 282.0493
14.936592 51.29377 266.8526
16.3471 50.501564 250.03264
17.317924 47.652992 231.9868
17.317924 47.652992 231.98676
17.363106 42.631355 213.30287
15.574837 38.32302 194.4311
13.038536 35.033302 175.80699
13.038551 35.033333 175.80695
12.796577 31.83686 158.1814
13.816978 27.323296 142.90543
13.816978 27.32328 142.9054
14.482933 22.086739 130.40352
14.826683 17.043541 119.455666
14.436119 12.400841 110.10045
14.436134 12.400856 110.10044
14.269798 8.81179 99.30939
14.599998 4.727806 85.85973
14.787285 1.272118 72.22213
14.7873 1.272118 72.22209
14.981163 -0.828255 59.628887
15.23246 -2.821205 49.779602
15.085442 -4.760841 41.874153
15.085426 -4.760826 41.87413
14.520515 -5.970055 34.155235
13.93055 -6.453667 26.475853
13.93055 -6.453651 26.475834
13.505394 -6.366661 17.932318
12.899605 -6.487572 10.129827
11.811424 -8.108391 3.217325
11.811455 -8.108391 3.217309
36.7882 -22.062813 255.26297
19.722511 -22.88926 259.30887
9.755791 -21.918922 265.9521
1.136116 -20.666588 274.14023
-5.128746 -17.73957 284.84692
-8.813301 -15.552116 296.73642
-9.784187 -14.319344 308.75003
-8.897194 -13.033394 320.47992
-6.664726 -10.782951 329.86472
-3.25135 -7.270271 335.9611
0.702705 -3.073555 339.979
0.702721 -3.07354 339.97906
4.82058 1.753822 342.43875
8.449425 7.114861 343.91245
11.267067 12.910683 344.3096
11.267052 12.910652 344.30957
13.469536 18.749733 342.10043
15.206718 24.361366 337.87268
16.438118 29.666191 332.55386
16.073357 34.030174 327.30444
16.073341 34.030144 327.30438
13.754799 39.669014 318.98706
11.021339 44.83996 308.3892
9.611702 49.693367 295.87952
10.013527 51.712334 281.8499
10.013527 51.71235 281.84995
11.416283 51.22097 266.6391
12.831566 50.428276 249.85957
13.771294 47.582848 231.77841
13.771309 47.582832 231.77838
13.914452 42.568413 213.3232
12.543648 38.23043 194.74992
10.299232 34.87609 175.9373
10.299217 34.876076 175.93726
10.04232 31.652946 158.13382
11.064308 27.138786 142.82678
11.064339 27.138771 142.82675
11.728844 21.975914 130.48848
12.072182 16.954384 119.57626
11.690712 12.37635 110.37623
11.690742 12.376366 110.37621
11.518394 8.724464 99.253456
11.843727 4.621559 85.716675
12.030159 1.220619 72.27184
12.030159 1.220619 72.27181
12.22448 -0.892845 59.62579
12.475029 -2.899559 49.745193
12.330833 -4.807701 42.0003
12.330833 -4.807732 42.000282
11.7687 -6.005318 34.3777
11.18618 -6.488945 26.664745
11.186211 -6.488945 26.664726
10.74305 -6.402092 18.093622
10.155861 -6.521828 10.384464
9.728004 -8.134575 3.384592
9.72805 -8.13459 3.384576
10.543816 -12.681831 -1.939224
18.889168 -18.742043 258.39832
8.843636 -17.484917 264.8859
0.264473 -16.204521 273.07404
-5.933922 -13.490242 283.90753
-9.549049 -11.611366 295.9415
-10.438927 -10.644249 307.95514
-9.434029 -9.333427 319.3771
-7.245766 -7.111153 328.2402
-4.144402 -3.960915 333.84134
-4.144417 -3.960899 333.84134
-0.6287 -0.233147 337.50592
-0.628685 -0.233131 337.50592
2.968269 4.038353 339.76077
5.912361 8.772148 341.04935
7.9571 13.845421 341.3039
7.9571 13.845406 341.3039
9.764214 18.83947 339.345
11.268318 23.787651 335.5504
12.369209 28.51812 331.0396
12.218117 32.499565 326.56366
12.218086 32.499535 326.56363
10.415764 37.930626 318.769
7.932167 43.094154 308.37112
6.528801 47.987587 295.7703
6.926003 50.01394 281.62982
6.926003 50.01394 281.62988
8.325294 49.52349 266.4759
9.74334 48.735435 249.76772
10.646202 45.881935 231.73955
10.646217 45.88195 231.7395
10.889915 40.93598 213.56104
9.932945 36.76882 195.20512
7.949196 33.467323 176.18436
7.949226 33.46734 176.18431
7.68029 30.238487 158.36292
8.69236 25.77526 143.20341
8.69236 25.77526 143.20338
9.349998 20.691505 131.04764
9.693291 15.730232 120.256966
9.306053 11.140419 111.02643
9.306084 11.140419 111.02641
9.117546 7.387032 99.44565
9.433296 3.274635 85.85979
9.61544 -0.054497 72.68018
9.615456 -0.054482 72.68015
9.810585 -2.181923 59.978832
10.061775 -4.225136 49.96888
9.919853 -6.117851 42.299824
9.919853 -6.117867 42.299805
9.354485 -7.313866 34.685566
8.77018 -7.800072 26.834898
8.77021 -7.800056 26.834875
8.310951 -7.719795 18.234632
7.740471 -7.833275 10.617133
7.894417 -9.129448 3.543903
7.894432 -9.129433 3.543887
20.280388 -14.559273 258.254
10.083504 -12.83297 264.5579
1.448799 -11.489571 272.69635
-4.875908 -8.998482 283.52493
-8.619194 -7.482353 295.49402
-9.537392 -6.91172 307.2302
-8.28672 -5.880806 318.0245
-6.042046 -3.966743 326.0797
-3.3675 -1.315987 330.9702
-3.3675 -1.315971 330.9702
-0.424095 1.818245 334.12656
-0.42408 1.81826 334.1266
2.569389 5.443855 336.08624
4.881874 9.449593 337.10632
6.272057 13.597343 337.15082
6.272041 13.597328 337.15082
7.596642 17.477211 335.59442
8.798973 21.543953 332.49152
9.736397 25.804604 328.7483
9.654457 29.886024 324.58386
9.654427 29.885994 324.5838
8.187004 35.215096 317.441
5.94828 40.205666 307.74582
4.591652 45.042732 295.46112
4.981468 47.059837 281.43893
4.981468 47.059853 281.439
6.373802 46.567955 266.40082
7.791328 45.788033 249.7791
8.662804 42.91903 231.88083
8.662804 42.919044 231.88078
8.97773 38.08172 213.96602
8.325844 34.243095 195.69763
6.535591 31.120033 176.49217
6.535606 31.120018 176.49213
6.258995 27.906868 158.81877
7.251961 23.535118 143.95317
7.251961 23.535103 143.95312
7.898964 18.517738 131.95694
8.242531 13.641792 121.3466
7.835777 8.965782 111.90496
7.835808 8.965782 111.904945
7.624596 5.095177 99.84419
7.928169 0.985069 86.25899
8.103569 -2.271584 73.35663
8.103584 -2.271568 73.35659
8.299736 -4.410667 60.610233
8.552803 -6.504951 50.401737
8.412025 -8.402061 42.705433
8.412025 -8.402046 42.705414
7.838066 -9.60685 35.008728
7.243095 -10.097725 26.946886
7.243095 -10.097725 26.946863
6.773415 -10.029015 18.322594
6.213905 -10.132484 10.773929
6.736107 -10.873436 3.658486
6.736137 -10.873436 3.65847
POLYGONS 1139 4556
3 0 1 2
3 2 1 3
3 2 3 4
3 4 3 5
3 4 5 6
3 6 5 7
3 6 7 8
3 8 7 9
3 8 9 10
3 10 9 11
3 10 11 12
3 12 11 13
3 12 13 14
3 14 13 15
3 14 15 16
3 16 15 17
3 16 17 18
3 18 17 19
3 18 20 21
3 21 20 22
3 23 24 25
3 25 24 26
3 25 26 27
3 27 26 28
3 27 28 29
3 29 28 30
3 31 32 33
3 33 32 34
3 33 34 35
3 35 34 36
3 35 36 37
3 37 36 38
3 37 38 39
3 39 38 40
3 41 42 43
3 43 42 44
3 43 44 45
3 45 44 46
3 45 46 47
3 47 46 48
3 47 48 49
3 49 48 50
3 51 52 53
3 53 52 54
3 53 54 55
3 55 54 56
3 55 56 57
3 57 56 58
3 59 60 61
3 61 60 62
3 61 62 63
3 63 62 64
3 63 64 65
3 65 64 66
3 67 68 69
3 69 68 70
3 69 70 71
3 71 70 72
3 73 74 75
3 75 74 76
3 75 76 77
3 77 76 78
3 77 78 79
3 79 78 80
3 81 82 83
3 83 82 84
3 83 84 85
3 85 84 86
3 85 86 87
3 87 86 88
3 89 90 91
3 91 90 92
3 91 92 93
3 93 92 94
3 93 94 95
3 95 94 96
3 97 98 99
3 99 98 100
3 99 100 101
3 101 100 102
3 103 104 105
3 105 104 106
3 105 106 107
3 107 106 108
3 107 108 109
3 109 108 110
3 111 112 113
3 113 112 114
3 1 115 3
3 3 115 116
3 3 116 5
3 5 116 117
3 5 117 7
3 7 117 118
3 7 118 9
3 9 118 119
3 9 119 11
3 11 119 120
3 11 120 13
3 13 120 121
3 13 121 15
3 15 121 122
3 15 122 17
3 17 122 123
3 17 123 19
3 19 123 124
3 20 125 22
3 22 125 126
3 24 127 26
3 26 127 128
3 26 128 28
3 28 128 129
3 28 129 30
3 30 129 130
3 32 131 34
3 34 131 132
3 34 132 36
3 36 132 133
3 36 133 38
3 38 133 134
3 38 134 40
3 40 134 135
3 42 136 44
3 44 136 137
3 44 137 46
3 46 137 138
3 46 138 48
3 48 138 139
3 48 139 50
3 50 139 140
3 52 141 54
3 54 141 142
3 54 142 56
3 56 142 143
3 56 143 58
3 58 143 144
3 60 145 62
3 62 145 146
3 62 146 64
3 64 146 147
3 64 147 66
3 66 147 148
3 68 149 70
3 70 149 150
3 70 150 72
3 72 150 151
3 74 152 76
3 76 152 153
3 76 153 78
3 78 153 154
3 78 154 80
3 80 154 155
3 82 156 84
3 84 156 157
3 84 157 86
3 86 157 158
3 86 158 88
3 88 158 159
3 90 160 92
3 92 160 161
3 92 161 94
3 94 161 162
3 94 162 96
3 96 162 163
3 98 164 100
3 100 164 165
3 100 165 102
3 102 165 166
3 104 167 106
3 106 167 168
3 106 168 108
3 108 168 169
3 108 169 110
3 110 169 170
3 112 171 114
3 115 1 116
3 116 1 172
3 116 172 117
3 117 172 173
3 117 173 118
3 118 173 174
3 118 174 119
3 119 174 175
3 119 175 120
3 120 175 176
3 120 176 121
3 121 176 177
3 121 177 122
3 122 177 178
3 122 178 123
3 123 178 179
3 123 179 124
3 124 179 180
3 125 181 126
3 126 181 182
3 127 183 128
3 128 183 184
3 128 184 129
3 129 184 185
3 129 185 130
3 130 185 186
3 131 187 132
3 132 187 188
3 132 188 133
3 133 188 189
3 133 189 134
3 134 189 190
3 134 190 135
3 135 190 191
3 136 192 137
3 137 192 193
3 137 193 138
3 138 193 194
3 138 194 139
3 139 194 195
3 139 195 140
3 140 195 196
3 141 197 142
3 142 197 198
3 142 198 143
3 143 198 199
3 143 199 144
3 144 199 200
3 145 201 146
3 146 201 202
3 146 202 147
3 147 202 203
3 147 203 148
3 148 203 204
3 149 205 150
3 150 205 206
3 150 206 151
3 151 206 207
3 152 208 153
3 153 208 209
3 153 209 154
3 154 209 210
3 154 210 155
3 155 210 211
3 156 212 157
3 157 212 213
3 157 213 158
3 158 213 214
3 158 214 159
3 159 214 215
3 160 216 161
3 161 216 217
3 161 217 162
3 162 217 218
3 162 218 163
3 163 218 219
3 164 220 165
3 165 220 221
3 165 221 166
3 166 221 222
3 167 223 168
3 168 223 224
3 168 224 169
3 169 224 225
3 169 225 170
3 170 225 226
3 171 227 114
3 114 227 228
3 229 230 172
3 172 230 231
3 172 231 232
3 232 231 233
3 232 233 234
3 234 233 235
3 234 235 236
3 236 235 237
3 236 237 238
3 238 237 239
3 238 239 240
3 240 239 241
3 240 241 242
3 242 241 243
3 242 243 244
3 244 243 245
3 244 245 246
3 246 245 247
3 248 247 249
3 249 247 250
3 251 252 253
3 253 252 254
3 253 254 255
3 255 254 256
3 255 256 257
3 257 256 258
3 259 260 261
3 261 260 262
3 261 262 263
3 263 262 264
3 263 264 265
3 265 264 266
3 265 266 267
3 267 266 268
3 269 270 271
3 271 270 272
3 271 272 273
3 273 272 274
3 273 274 275
3 275 274 276
3 275 276 277
3 277 276 278
3 279 280 281
3 281 280 282
3 281 282 283
3 283 282 284
3 283 284 285
3 285 284 286
3 287 288 289
3 289 288 290
3 289 290 291
3 291 290 292
3 291 292 293
3 293 292 294
3 295 296 297
3 297 296 298
3 297 298 299
3 299 298 300
3 301 302 303
3 303 302 304
3 303 304 305
3 305 304 306
3 305 306 307
3 307 306 308
3 309 310 311
3 311 310 312
3 311 312 313
3 313 312 314
3 313 314 315
3 315 314 316
3 317 318 319
3 319 318 320
3 319 320 321
3 321 320 322
3 321 322 323
3 323 322 324
3 325 326 221
3 221 326 327
3 221 327 328
3 328 327 329
3 330 331 332
3 332 331 333
3 332 333 334
3 334 333 335
3 334 335 336
3 336 335 337
3 227 338 339
3 339 338 113
3 230 340 231
3 231 340 341
3 231 341 233
3 233 341 342
3 233 342 235
3 235 342 343
3 235 343 237
3 237 343 344
3 237 344 239
3 239 344 345
3 239 345 241
3 241 345 346
3 241 346 243
3 243 346 347
3 243 347 245
3 245 347 348
3 245 348 247
3 247 348 349
3 247 350 250
3 250 350 351
3 252 352 254
3 254 352 353
3 254 353 256
3 256 353 354
3 256 354 258
3 258 354 355
3 260 356 262
3 262 356 357
3 262 357 264
3 264 357 358
3 264 358 266
3 266 358 359
3 266 359 268
3 268 359 360
3 270 361 272
3 272 361 362
3 272 362 274
3 274 362 363
3 274 363 276
3 276 363 364
3 276 364 278
3 278 364 365
3 280 366 282
3 282 366 367
3 282 367 284
3 284 367 368
3 284 368 286
3 286 368 369
3 288 370 290
3 290 370 371
3 290 371 292
3 292 371 372
3 292 372 294
3 294 372 373
3 296 374 298
3 298 374 375
3 298 375 300
3 300 375 376
3 302 377 304
3 304 377 378
3 304 378 306
3 306 378 379
3 306 379 308
3 308 379 380
3 310 381 312
3 312 381 382
3 312 382 314
3 314 382 383
3 314 383 316
3 316 383 384
3 318 385 320
3 320 385 386
3 320 386 322
3 322 386 387
3 322 387 324
3 324 387 388
3 326 389 327
3 327 389 390
3 327 390 329
3 329 390 391
3 331 392 333
3 333 392 393
3 333 393 335
3 335 393 394
3 335 394 337
3 337 394 395
3 338 396 113
3 113 396 397
3 340 398 341
3 341 398 399
3 341 399 342
3 342 399 400
3 342 400 343
3 343 400 401
3 343 401 344
3 344 401 402
3 344 402 345
3 345 402 403
3 345 403 346
3 346 403 404
3 346 404 347
3 347 404 405
3 347 405 348
3 348 405 406
3 348 406 349
3 349 406 407
3 350 407 351
3 351 407 408
3 352 409 353
3 353 409 410
3 353 410 354
3 354 410 411
3 354 411 355
3 355 411 412
3 356 413 357
3 357 413 414
3 357 414 358
3 358 414 415
3 358 415 359
3 359 415 416
3 359 416 360
3 360 416 417
3 361 418 362
3 362 418 419
3 362 419 363
3 363 419 420
3 363 420 364
3 364 420 421
3 364 421 365
3 365 421 422
3 366 423 367
3 367 423 424
3 367 424 368
3 368 424 425
3 368 425 369
3 369 425 426
3 370 427 371
3 371 427 428
3 371 428 372
3 372 428 429
3 372 429 373
3 373 429 430
3 374 431 375
3 375 431 432
3 375 432 376
3 376 432 433
3 377 434 378
3 378 434 435
3 378 435 379
3 379 435 436
3 379 436 380
3 380 436 437
3 381 438 382
3 382 438 439
3 382 439 383
3 383 439 440
3 383 440 384
3 384 440 441
3 385 442 386
3 386 442 443
3 386 443 387
3 387 443 444
3 387 444 388
3 388 444 445
3 389 446 390
3 390 446 447
3 390 447 391
3 391 447 448
3 392 449 393
3 393 449 450
3 393 450 394
3 394 450 451
3 394 451 395
3 395 451 452
3 396 453 397
3 397 453 339
3 398 454 399
3 399 454 455
3 399 455 400
3 400 455 456
3 400 456 401
3 401 456 457
3 401 457 402
3 402 457 458
3 402 458 403
3 403 458 459
3 403 459 404
3 404 459 460
3 404 460 405
3 405 460 461
3 405 461 406
3 406 461 462
3 406 462 407
3 407 462 463
3 407 464 408
3 408 464 465
3 409 466 410
3 410 466 467
3 410 467 411
3 411 467 468
3 411 468 412
3 412 468 469
3 413 470 414
3 414 470 471
3 414 471 415
3 415 471 472
3 415 472 416
3 416 472 473
3 416 473 417
3 417 473 474
3 418 475 419
3 419 475 476
3 419 476 420
3 420 476 477
3 420 477 421
3 421 477 478
3 421 478 422
3 422 478 479
3 423 480 424
3 424 480 481
3 424 481 425
3 425 481 482
3 425 482 426
3 426 482 483
3 427 484 428
3 428 484 485
3 428 485 429
3 429 485 486
3 429 486 430
3 430 486 487
3 431 488 432
3 432 488 489
3 432 489 433
3 433 489 490
3 434 491 435
3 435 491 492
3 435 492 436
3 436 492 493
3 436 493 437
3 437 493 494
3 438 495 439
3 439 495 496
3 439 496 440
3 440 496 497
3 440 497 441
3 441 497 498
3 442 499 443
3 443 499 500
3 443 500 444
3 444 500 501
3 444 501 445
3 445 501 502
3 446 503 447
3 447 503 504
3 447 504 448
3 448 504 505
3 449 506 450
3 450 506 507
3 450 507 451
3 451 507 508
3 451 508 452
3 452 508 509
3 453 510 339
3 339 510 113
3 454 0 455
3 455 0 511
3 455 511 456
3 456 511 512
3 456 512 457
3 457 512 513
3 457 513 458
3 458 513 514
3 458 514 459
3 459 514 515
3 459 515 460
3 460 515 516
3 460 516 461
3 461 516 517
3 461 517 462
3 462 517 518
3 462 518 463
3 463 518 519
3 464 520 465
3 465 520 521
3 466 522 467
3 467 522 523
3 467 523 468
3 468 523 524
3 468 524 469
3 469 524 525
3 470 526 471
3 471 526 527
3 471 527 472
3 472 527 528
3 472 528 473
3 473 528 529
3 473 529 474
3 474 529 530
3 475 531 476
3 476 531 532
3 476 532 477
3 477 532 533
3 477 533 478
3 478 533 534
3 478 534 479
3 479 534 535
3 480 536 481
3 481 536 537
3 481 537 482
3 482 537 538
3 482 538 483
3 483 538 539
3 484 540 485
3 485 540 541
3 485 541 486
3 486 541 542
3 486 542 487
3 487 542 543
3 488 544 489
3 489 544 545
3 489 545 490
3 490 545 546
3 491 547 492
3 492 547 548
3 492 548 493
3 493 548 549
3 493 549 494
3 494 549 550
3 495 551 496
3 496 551 552
3 496 552 497
3 497 552 553
3 497 553 498
3 498 553 554
3 499 555 500
3 500 555 556
3 500 556 501
3 501 556 557
3 501 557 502
3 502 557 558
3 503 559 504
3 504 559 560
3 504 560 505
3 505 560 561
3 506 562 507
3 507 562 563
3 507 563 508
3 508 563 564
3 508 564 509
3 509 564 565
3 510 566 113
3 113 566 567
3 511 0 568
3 511 568 512
3 512 568 569
3 512 569 513
3 513 569 570
3 513 570 514
3 514 570 571
3 514 571 515
3 515 571 572
3 515 572 516
3 516 572 573
3 516 573 517
3 517 573 574
3 517 574 518
3 518 574 575
3 518 575 519
3 519 575 576
3 520 577 521
3 521 577 578
3 522 579 523
3 523 579 580
3 523 580 524
3 524 580 581
3 524 581 525
3 525 581 582
3 526 583 527
3 527 583 584
3 527 584 528
3 528 584 585
3 528 585 529
3 529 585 586
3 529 586 530
3 530 586 587
3 531 588 532
3 532 588 589
3 532 589 533
3 533 589 590
3 533 590 534
3 534 590 591
3 534 591 535
3 535 591 592
3 536 593 537
3 537 593 594
3 537 594 538
3 538 594 595
3 538 595 539
3 539 595 596
3 540 597 541
3 541 597 598
3 541 598 542
3 542 598 599
3 542 599 543
3 543 599 600
3 544 601 545
3 545 601 602
3 545 602 546
3 546 602 603
3 547 604 548
3 548 604 605
3 548 605 549
3 549 605 606
3 549 606 550
3 550 606 607
3 551 608 552
3 552 608 609
3 552 609 553
3 553 609 610
3 553 610 554
3 554 610 611
3 555 612 556
3 556 612 613
3 556 613 557
3 557 613 614
3 557 614 558
3 558 614 615
3 559 616 560
3 560 616 617
3 560 617 561
3 561 617 618
3 562 619 563
3 563 619 620
3 563 620 564
3 564 620 621
3 564 621 565
3 565 621 622
3 566 623 567
3 567 623 113
3 568 624 625
3 568 625 569
3 569 625 626
3 569 626 570
3 570 626 627
3 570 627 571
3 571 627 628
3 571 628 572
3 572 628 629
3 572 629 573
3 573 629 630
3 573 630 574
3 574 630 631
3 574 631 575
3 575 631 632
3 575 632 576
3 576 632 633
3 577 633 578
3 578 633 634
3 579 635 580
3 580 635 636
3 580 636 581
3 581 636 637
3 581 637 582
3 582 637 638
3 583 639 584
3 584 639 640
3 584 640 585
3 585 640 641
3 585 641 586
3 586 641 642
3 586 642 587
3 587 642 643
3 588 644 589
3 589 644 645
3 589 645 590
3 590 645 646
3 590 646 591
3 591 646 647
3 591 647 592
3 592 647 648
3 593 649 594
3 594 649 650
3 594 650 595
3 595 650 651
3 595 651 596
3 596 651 652
3 597 653 598
3 598 653 654
3 598 654 599
3 599 654 655
3 599 655 600
3 600 655 656
3 601 657 602
3 602 657 658
3 602 658 603
3 603 658 659
3 604 660 605
3 605 660 661
3 605 661 606
3 606 661 662
3 606 662 607
3 607 662 663
3 608 664 609
3 609 664 665
3 609 665 610
3 610 665 666
3 610 666 611
3 611 666 667
3 612 668 613
3 613 668 669
3 613 669 614
3 614 669 670
3 614 670 615
3 615 670 671
3 616 672 617
3 617 672 673
3 617 673 618
3 618 673 674
3 619 675 620
3 620 675 676
3 620 676 621
3 621 676 677
3 621 677 622
3 622 677 678
3 623 679 113
3 113 679 680
3 625 0 681
3 625 681 626
3 626 681 682
3 626 682 627
3 627 682 683
3 627 683 628
3 628 683 684
3 628 684 629
3 629 684 685
3 629 685 630
3 630 685 686
3 630 686 631
3 631 686 687
3 631 687 632
3 632 687 688
3 632 688 633
3 633 688 689
3 633 690 634
3 634 690 691
3 635 692 636
3 636 692 693
3 636 693 637
3 637 693 694
3 637 694 638
3 638 694 695
3 639 696 640
3 640 696 697
3 640 697 641
3 641 697 698
3 641 698 642
3 642 698 699
3 642 699 643
3 643 699 700
3 644 701 645
3 645 701 702
3 645 702 646
3 646 702 703
3 646 703 647
3 647 703 704
3 647 704 648
3 648 704 705
3 649 706 650
3 650 706 707
3 650 707 651
3 651 707 708
3 651 708 652
3 652 708 709
3 653 710 654
3 654 710 711
3 654 711 655
3 655 711 712
3 655 712 656
3 656 712 713
3 657 714 658
3 658 714 715
3 658 715 659
3 659 715 716
3 660 717 661
3 661 717 718
3 661 718 662
3 662 718 719
3 662 719 663
3 663 719 720
3 664 721 665
3 665 721 722
3 665 722 666
3 666 722 723
3 666 723 667
3 667 723 724
3 668 725 669
3 669 725 726
3 669 726 670
3 670 726 727
3 670 727 671
3 671 727 728
3 672 729 673
3 673 729 730
3 673 730 674
3 674 730 731
3 675 732 676
3 676 732 733
3 676 733 677
3 677 733 734
3 677 734 678
3 678 734 735
3 679 736 680
3 680 736 113
3 0 624 681
3 681 624 737
3 681 737 682
3 682 737 738
3 682 738 683
3 683 738 739
3 683 739 684
3 684 739 740
3 684 740 685
3 685 740 741
3 685 741 686
3 686 741 742
3 686 742 687
3 687 742 743
3 687 743 688
3 688 743 744
3 688 744 689
3 689 744 745
3 690 746 691
3 691 746 747
3 692 748 693
3 693 748 749
3 693 749 694
3 694 749 750
3 694 750 695
3 695 750 751
3 696 752 697
3 697 752 753
3 697 753 698
3 698 753 754
3 698 754 699
3 699 754 755
3 699 755 700
3 700 755 756
3 701 757 702
3 702 757 758
3 702 758 703
3 703 758 759
3 703 759 704
3 704 759 760
3 704 760 705
3 705 760 761
3 706 762 707
3 707 762 763
3 707 763 708
3 708 763 764
3 708 764 709
3 709 764 765
3 710 766 711
3 711 766 767
3 711 767 712
3 712 767 768
3 712 768 713
3 713 768 769
3 714 770 715
3 715 770 771
3 715 771 716
3 716 771 772
3 717 773 718
3 718 773 774
3 718 774 719
3 719 774 775
3 719 775 720
3 720 775 776
3 721 777 722
3 722 777 778
3 722 778 723
3 723 778 779
3 723 779 724
3 724 779 780
3 725 781 726
3 726 781 782
3 726 782 727
3 727 782 783
3 727 783 728
3 728 783 784
3 729 785 730
3 730 785 786
3 730 786 731
3 731 786 787
3 732 788 733
3 733 788 789
3 733 789 734
3 734 789 790
3 734 790 735
3 735 790 791
3 736 792 113
3 113 792 397
3 624 0 737
3 737 0 2
3 737 2 738
3 738 2 4
3 738 4 739
3 739 4 6
3 739 6 740
3 740 6 8
3 740 8 741
3 741 8 10
3 741 10 742
3 742 10 12
3 742 12 743
3 743 12 14
3 743 14 744
3 744 14 16
3 744 16 745
3 745 16 18
3 746 18 747
3 747 18 21
3 748 23 749
3 749 23 25
3 749 25 750
3 750 25 27
3 750 27 751
3 751 27 29
3 752 31 753
3 753 31 33
3 753 33 754
3 754 33 35
3 754 35 755
3 755 35 37
3 755 37 756
3 756 37 39
3 757 41 758
3 758 41 43
3 758 43 759
3 759 43 45
3 759 45 760
3 760 45 47
3 760 47 761
3 761 47 49
3 762 51 763
3 763 51 53
3 763 53 764
3 764 53 55
3 764 55 765
3 765 55 57
3 766 59 767
3 767 59 61
3 767 61 768
3 768 61 63
3 768 63 769
3 769 63 65
3 770 67 771
3 771 67 69
3 771 69 772
3 772 69 71
3 773 73 774
3 774 73 75
3 774 75 775
3 775 75 77
3 775 77 776
3 776 77 79
3 777 81 778
3 778 81 83
3 778 83 779
3 779 83 85
3 779 85 780
3 780 85 87
3 781 89 782
3 782 89 91
3 782 91 783
3 783 91 93
3 783 93 784
3 784 93 95
3 785 97 786
3 786 97 99
3 786 99 787
3 787 99 101
3 788 103 789
3 789 103 105
3 789 105 790
3 790 105 107
3 790 107 791
3 791 107 109
3 792 111 397
