solid 
facet normal -0.446148 0.892296 0.0689913
outer loop
vertex -20.03740692 -72.94333649 35.64299011
vertex -20.03739166 -72.94332886 35.64299011
vertex -18.84268951 -71.26402283 21.64956856

endloop
endfacet
facet normal 0.06286243349 -0.9915331006 -0.1136238053
outer loop
vertex -18.84268951 -71.26402283 21.64956856
vertex -20.03739166 -72.94332886 35.64299011
vertex -25.71869659 -72.00177002 24.28333282

endloop
endfacet
facet normal 0.2852733433 -0.8057157397 0.519077301
outer loop
vertex -18.84268951 -71.26402283 21.64956856
vertex -25.71869659 -72.00177002 24.28333282
vertex -19.13105011 -73.42359161 18.45594597

endloop
endfacet
facet normal 0.3342742026 -0.7562785149 0.5624087453
outer loop
vertex -19.13105011 -73.42359161 18.45594597
vertex -25.71869659 -72.00177002 24.28333282
vertex -26.21657562 -74.9238205 20.64993286

endloop
endfacet
facet normal 0.3419599235 -0.7028208375 0.6237838268
outer loop
vertex -19.13105011 -73.42359161 18.45594597
vertex -26.21657562 -74.9238205 20.64993286
vertex -19.45262909 -75.75728607 16.00284958

endloop
endfacet
facet normal 0.3808137774 -0.6385029554 0.6688010693
outer loop
vertex -19.45262909 -75.75728607 16.00284958
vertex -26.21657562 -74.9238205 20.64993286
vertex -26.25875092 -77.75989532 17.96635246

endloop
endfacet
facet normal 0.3782372773 -0.7394555211 0.5569039583
outer loop
vertex -19.45264435 -75.75728607 16.00284958
vertex -26.25875092 -77.75989532 17.96635246
vertex -19.55725861 -78.67150879 12.20440483

endloop
endfacet
facet normal 0.4112140238 -0.6961855292 0.5884120464
outer loop
vertex -19.55725861 -78.67150879 12.20440483
vertex -26.25875092 -77.75989532 17.96635246
vertex -26.84978485 -80.70589447 14.89381123

endloop
endfacet
facet normal 0.4187017977 -0.6016380787 0.6802355647
outer loop
vertex -19.55725861 -78.67150879 12.20440483
vertex -26.84978485 -80.70589447 14.89381123
vertex -19.4907608 -83.42577362 7.958538055

endloop
endfacet
facet normal 0.4333758652 -0.5819844604 0.6880984306
outer loop
vertex -19.4907608 -83.42577362 7.958538055
vertex -26.84978485 -80.70589447 14.89381123
vertex -27.74344635 -84.74588013 12.03968811

endloop
endfacet
facet normal 0.455183059 -0.1166039631 0.8827298284
outer loop
vertex -19.4907608 -83.42577362 7.958538055
vertex -27.74344635 -84.74588013 12.03968811
vertex -19.50167084 -90.54393005 7.023892879

endloop
endfacet
facet normal 0.5134143829 -0.0124796452 0.858050108
outer loop
vertex -19.50167084 -90.54393005 7.023892879
vertex -27.74344635 -84.74588013 12.03968811
vertex -27.40325165 -90.34933472 11.75463486

endloop
endfacet
facet normal 0.03725503013 0.9990823865 0.02112921514
outer loop
vertex -19.50167084 -90.54393005 7.023892879
vertex -27.40325165 -90.34933472 11.75463486
vertex -20.22600555 -90.79264069 20.06117249

endloop
endfacet
facet normal 0.04682358727 0.9989031553 0
outer loop
vertex -20.22600555 -90.79264069 20.06117249
vertex -27.40325165 -90.34933472 11.75463486
vertex -20.22600555 -90.79264069 20.06117439

endloop
endfacet
facet normal -0.1634991914 -0.9865435362 -0
outer loop
vertex -20.03739166 -72.94332886 35.64299011
vertex -20.03739166 -72.94332886 35.64299393
vertex -25.71869659 -72.00177002 24.28333282

endloop
endfacet
facet normal 0.2621752322 -0.9420706034 -0.2092062682
outer loop
vertex -25.71869659 -72.00177002 24.28333282
vertex -20.03739166 -72.94332886 35.64299393
vertex -28.17191315 -73.2592392 26.87145805

endloop
endfacet
facet normal 0.7074538469 -0.5949383974 0.3815197051
outer loop
vertex -25.71869659 -72.00177002 24.28333282
vertex -28.17191315 -73.2592392 26.87145805
vertex -26.21657562 -74.9238205 20.64993286

endloop
endfacet
facet normal 0.7491649389 -0.5421819091 0.3805137873
outer loop
vertex -26.21657562 -74.9238205 20.64993286
vertex -28.17191315 -73.2592392 26.87145805
vertex -29.00167084 -76.99615479 23.18049431

endloop
endfacet
facet normal 0.7602386475 -0.4524352252 0.4661969543
outer loop
vertex -26.21657562 -74.9238205 20.64993286
vertex -29.00167084 -76.99615479 23.18049431
vertex -26.25875092 -77.75989532 17.96635246

endloop
endfacet
facet normal 0.7558941245 -0.4607388973 0.4651277959
outer loop
vertex -26.25875092 -77.75989532 17.96635246
vertex -29.00167084 -76.99615479 23.18049431
vertex -29.08249664 -80.0410614 20.29567146

endloop
endfacet
facet normal 0.7500059605 -0.5435479283 0.3768908381
outer loop
vertex -26.25875092 -77.75989532 17.96635246
vertex -29.08249664 -80.04106903 20.29567146
vertex -26.84978485 -80.70589447 14.89381123

endloop
endfacet
facet normal 0.7553046346 -0.5353302956 0.3780695498
outer loop
vertex -26.84978485 -80.70589447 14.89381123
vertex -29.08249664 -80.04106903 20.29567146
vertex -29.6037674 -82.74416351 17.50959587

endloop
endfacet
facet normal 0.7647583485 -0.4759707749 0.4342769086
outer loop
vertex -26.84978485 -80.70589447 14.89381123
vertex -29.6037674 -82.74416351 17.50959587
vertex -27.74344635 -84.74588013 12.03968811

endloop
endfacet
facet normal 0.7651597857 -0.4753935039 0.434202224
outer loop
vertex -27.74344635 -84.74588013 12.03968811
vertex -29.6037674 -82.74416351 17.50959587
vertex -30.38584137 -86.01904297 15.30222607

endloop
endfacet
facet normal 0.7741744518 0.01481027808 0.6327989697
outer loop
vertex -27.74344635 -84.74588013 12.03968811
vertex -30.38584137 -86.01904297 15.30222607
vertex -27.40325165 -90.34933472 11.75463486

endloop
endfacet
facet normal 0.8120753765 0.0865476653 0.577098906
outer loop
vertex -27.40325165 -90.34933472 11.75463486
vertex -30.38584137 -86.01904297 15.30222607
vertex -29.80567169 -90.2514801 15.12056923

endloop
endfacet
facet normal 0.05217749253 0.9986039996 0.008209974505
outer loop
vertex -27.40325165 -90.34933472 11.75463486
vertex -29.80567169 -90.2514801 15.12056923
vertex -20.22600555 -90.79264069 20.06117439

endloop
endfacet
facet normal 0 -0.9938037395 -0.1111491024
outer loop
vertex -20.22600555 -90.79264069 20.06117439
vertex -29.80567169 -90.2514801 15.12056923
vertex -20.2259903 -90.79264069 20.06117439

endloop
endfacet
facet normal -0.03880650923 0.9992467165 0
outer loop
vertex -20.03739166 -72.94332886 35.64299393
vertex -20.03739166 -72.94332886 35.64299011
vertex -28.17191315 -73.2592392 26.87145805

endloop
endfacet
facet normal 0.3899920583 -0.8593783975 -0.3307189941
outer loop
vertex -28.17191315 -73.2592392 26.87145805
vertex -20.03739166 -72.94332886 35.64299011
vertex -29.14496613 -74.5868454 29.17381477

endloop
endfacet
facet normal 0.9124031663 -0.3717420399 0.171254769
outer loop
vertex -28.17191315 -73.2592392 26.87145805
vertex -29.14496613 -74.5868454 29.17381477
vertex -29.00167084 -76.99615479 23.18049431

endloop
endfacet
facet normal 0.9165422916 -0.3630130887 0.1678446978
outer loop
vertex -29.00167084 -76.99615479 23.18049431
vertex -29.14496613 -74.5868454 29.17381477
vertex -30.32112885 -79.19026947 25.64018822

endloop
endfacet
facet normal 0.9279859066 -0.2689581215 0.2578831315
outer loop
vertex -29.00167084 -76.99615479 23.18049431
vertex -30.32112885 -79.19026947 25.64018822
vertex -29.08249664 -80.0410614 20.29567146

endloop
endfacet
facet normal 0.9261218309 -0.2748354971 0.2583867311
outer loop
vertex -29.08249664 -80.0410614 20.29567146
vertex -30.32112885 -79.19026947 25.64018822
vertex -30.46109772 -82.46821594 22.65525246

endloop
endfacet
facet normal 0.919015944 -0.3546507359 0.1721411794
outer loop
vertex -29.08249664 -80.04106903 20.29567146
vertex -30.46111298 -82.46821594 22.65525246
vertex -29.6037674 -82.74416351 17.50959587

endloop
endfacet
facet normal 0.9288319349 -0.327975601 0.1723461151
outer loop
vertex -29.6037674 -82.74416351 17.50959587
vertex -30.46111298 -82.46821594 22.65525246
vertex -30.802742 -84.84211731 19.97886086

endloop
endfacet
facet normal 0.9277287722 -0.333940506 0.1667425185
outer loop
vertex -29.6037674 -82.74416351 17.50959587
vertex -30.802742 -84.84211731 19.97886086
vertex -30.38584137 -86.01904297 15.30222607

endloop
endfacet
facet normal 0.9341722727 -0.3173443377 0.1631403267
outer loop
vertex -30.38584137 -86.01904297 15.30222607
vertex -30.802742 -84.84211731 19.97886086
vertex -31.29003143 -87.26061249 18.06465912

endloop
endfacet
facet normal 0.928412497 0.1120595112 0.354249686
outer loop
vertex -30.38584137 -86.01904297 15.30222607
vertex -31.29003143 -87.26061249 18.06465912
vertex -29.80567169 -90.2514801 15.12056923

endloop
endfacet
facet normal 0.9427538514 0.2415363789 0.2299462408
outer loop
vertex -29.80567169 -90.2514801 15.12056923
vertex -31.29003143 -87.26061249 18.06465912
vertex -30.46134186 -90.25108337 17.80832672

endloop
endfacet
facet normal 0.05017813668 0.9986671209 0.01209339313
outer loop
vertex -29.80567169 -90.2514801 15.12056923
vertex -30.46134186 -90.25108337 17.80832672
vertex -20.2259903 -90.79264069 20.06117439

endloop
endfacet
facet normal -0.06197471172 0.8814181089 0.4682533741
outer loop
vertex -20.2259903 -90.79264069 20.06117439
vertex -30.46134186 -90.25108337 17.80832672
vertex -20.22600555 -90.79264069 20.06117249

endloop
endfacet
facet normal -0.5790886283 0 0.8152645826
outer loop
vertex -20.03740692 -72.94334412 35.64299011
vertex -20.03740692 -72.94332886 35.64299011
vertex -29.14498138 -74.5868454 29.17381096

endloop
endfacet
facet normal 0.4554934204 -0.7707833052 -0.4454421997
outer loop
vertex -29.14498138 -74.5868454 29.17381096
vertex -20.03740692 -72.94332886 35.64299011
vertex -29.21099091 -76.04394531 31.62764549

endloop
endfacet
facet normal 0.9790139794 -0.1857050806 -0.08393663168
outer loop
vertex -29.14498138 -74.5868454 29.17381096
vertex -29.21099091 -76.04394531 31.62764549
vertex -30.3211441 -79.19026947 25.64018631

endloop
endfacet
facet normal 0.982594192 -0.1566295922 -0.09987919778
outer loop
vertex -30.3211441 -79.19026947 25.64018631
vertex -29.21099091 -76.04394531 31.62764549
vertex -30.42717743 -81.44988251 28.14055252

endloop
endfacet
facet normal 0.9990044832 -0.0445606336 0.002094882773
outer loop
vertex -30.3211441 -79.19026947 25.64018631
vertex -30.42717743 -81.44988251 28.14055252
vertex -30.46109772 -82.46821594 22.65525055

endloop
endfacet
facet normal 0.9991883039 -0.04026128352 0.001295580994
outer loop
vertex -30.46109772 -82.46821594 22.65525055
vertex -30.42717743 -81.44988251 28.14055252
vertex -30.5661087 -84.99645996 25.07533073

endloop
endfacet
facet normal 0.99491328 -0.0880927816 -0.04885945097
outer loop
vertex -30.46111298 -82.46821594 22.65525055
vertex -30.56612396 -84.99646759 25.07533264
vertex -30.802742 -84.84212494 19.97885895

endloop
endfacet
facet normal 0.9982501268 -0.03533219546 -0.04741655663
outer loop
vertex -30.802742 -84.84212494 19.97885895
vertex -30.56612396 -84.99646759 25.07533264
vertex -30.76197052 -87.08016205 22.50487328

endloop
endfacet
facet normal 0.9875389338 -0.1095417365 -0.112992987
outer loop
vertex -30.802742 -84.84212494 19.97885895
vertex -30.76197052 -87.08016205 22.50487328
vertex -31.29003143 -87.26062012 18.06465912

endloop
endfacet
facet normal 0.9927748442 -0.02670620382 -0.1169822514
outer loop
vertex -31.29003143 -87.26062012 18.06465912
vertex -30.76197052 -87.08016205 22.50487328
vertex -31.00818634 -88.65853119 20.77568245

endloop
endfacet
facet normal 0.9638497233 0.2640125751 0.03593100235
outer loop
vertex -31.29003143 -87.26062012 18.06465912
vertex -31.00818634 -88.65853119 20.77568245
vertex -30.46134186 -90.251091 17.80832672

endloop
endfacet
facet normal 0.8717768788 0.4801923037 -0.09705898911
outer loop
vertex -30.46134186 -90.251091 17.80832672
vertex -31.00818634 -88.65853119 20.77568245
vertex -30.07160187 -90.45182037 20.3158493

endloop
endfacet
facet normal 0.03641548753 0.9965844154 0.07411745191
outer loop
vertex -30.46134186 -90.251091 17.80832672
vertex -30.07160187 -90.45182037 20.3158493
vertex -20.22600555 -90.79264069 20.06117249

endloop
endfacet
facet normal -0.01551580522 0.2739342153 -0.9616232514
outer loop
vertex -20.22600555 -90.79264069 20.06117249
vertex -30.07160187 -90.45182037 20.3158493
vertex -20.2259903 -90.79263306 20.06117439

endloop
endfacet
facet normal -nan(ind) -nan(ind) -nan(ind)
outer loop
vertex -20.03740692 -72.94332886 35.64299011
vertex -20.03740692 -72.94332886 35.64299011
vertex -29.21099091 -76.04394531 31.62764549

endloop
endfacet
facet normal 0.4775892794 -0.6556683183 -0.5848140717
outer loop
vertex -29.21099091 -76.04394531 31.62764549
vertex -20.03740692 -72.94332886 35.64299011
vertex -28.2670517 -77.4728775 34.0005722

endloop
endfacet
facet normal 0.9333022833 0.02125822008 -0.3584620059
outer loop
vertex -29.21099091 -76.04394531 31.62764549
vertex -28.2670517 -77.4728775 34.0005722
vertex -30.42717743 -81.44988251 28.14055252

endloop
endfacet
facet normal 0.9105631709 0.09737437963 -0.4017374218
outer loop
vertex -30.42717743 -81.44988251 28.14055252
vertex -28.2670517 -77.4728775 34.0005722
vertex -29.1894455 -83.50898743 30.44685745

endloop
endfacet
facet normal 0.927849412 0.2224047035 -0.2993854582
outer loop
vertex -30.42717743 -81.44988251 28.14055252
vertex -29.1894455 -83.50898743 30.44685745
vertex -30.5661087 -84.99645996 25.07533073

endloop
endfacet
facet normal 0.9311417341 0.2113457918 -0.2971668243
outer loop
vertex -30.5661087 -84.99645996 25.07533073
vertex -29.1894455 -83.50898743 30.44685745
vertex -29.35054779 -87.26411438 27.27140427

endloop
endfacet
facet normal 0.9329404831 0.2415996492 -0.2669301033
outer loop
vertex -30.56612396 -84.99646759 25.07533264
vertex -29.35054779 -87.26411438 27.27140427
vertex -30.76197052 -87.08016205 22.50487328

endloop
endfacet
facet normal 0.9309324026 0.2502146065 -0.2660030425
outer loop
vertex -30.76197052 -87.08016205 22.50487328
vertex -29.35054779 -87.26411438 27.27140427
vertex -29.53075409 -89.15568542 24.86143684

endloop
endfacet
facet normal 0.929405272 0.1969553679 -0.3121127784
outer loop
vertex -30.76197052 -87.08016205 22.50487328
vertex -29.53075409 -89.15568542 24.86143684
vertex -31.00818634 -88.65853119 20.77568245

endloop
endfacet
facet normal 0.8986077905 0.3342023492 -0.2842760384
outer loop
vertex -31.00818634 -88.65853119 20.77568245
vertex -29.53075409 -89.15568542 24.86143684
vertex -29.64984894 -90.08067322 23.39753342

endloop
endfacet
facet normal 0.853343904 0.4907802045 -0.1758947074
outer loop
vertex -31.00818634 -88.65853119 20.77568245
vertex -29.64984894 -90.08067322 23.39753342
vertex -30.07160187 -90.45182037 20.3158493

endloop
endfacet
facet normal 0.5389547944 0.8243684769 -0.1730442792
outer loop
vertex -30.07160187 -90.45182037 20.3158493
vertex -29.64984894 -90.08067322 23.39753342
vertex -28.7710495 -90.78987885 22.75600052

endloop
endfacet
facet normal 0.0373920314 0.9923624396 0.1175526455
outer loop
vertex -30.07160187 -90.45182037 20.3158493
vertex -28.7710495 -90.78987885 22.75600052
vertex -20.2259903 -90.79263306 20.06117439

endloop
endfacet
facet normal 0 -0.9999994636 0.001069567865
outer loop
vertex -20.2259903 -90.79263306 20.06117439
vertex -28.7710495 -90.78987885 22.75600052
vertex -20.22600555 -90.79263306 20.06117439

endloop
endfacet
facet normal -0.06748571247 0.4461940527 -0.8923881054
outer loop
vertex -20.03740692 -72.94332886 35.64299011
vertex -20.03740692 -72.94333649 35.6429863
vertex -28.2670517 -77.4728775 34.0005722

endloop
endfacet
facet normal 0.4322468638 -0.5175907612 -0.7384188771
outer loop
vertex -28.2670517 -77.4728775 34.0005722
vertex -20.03740692 -72.94333649 35.6429863
vertex -26.36412811 -78.65756226 35.94488144

endloop
endfacet
facet normal 0.7626302242 0.2376463413 -0.6015972495
outer loop
vertex -28.2670517 -77.4728775 34.0005722
vertex -26.36412811 -78.65756226 35.94488144
vertex -29.1894455 -83.50898743 30.44685745

endloop
endfacet
facet normal 0.7270958424 0.284599185 -0.6247677803
outer loop
vertex -29.1894455 -83.50898743 30.44685745
vertex -26.36412811 -78.65756226 35.94488144
vertex -26.88918304 -85.19143677 32.35746765

endloop
endfacet
facet normal 0.741453588 0.4144429564 -0.5277154446
outer loop
vertex -29.1894455 -83.50898743 30.44685745
vertex -26.88918304 -85.19143677 32.35746765
vertex -29.35054779 -87.26411438 27.27140427

endloop
endfacet
facet normal 0.7428594232 0.4122110605 -0.5274863243
outer loop
vertex -29.35054779 -87.26411438 27.27140427
vertex -26.88918304 -85.19143677 32.35746765
vertex -27.02471161 -89.0981369 29.11366081

endloop
endfacet
facet normal 0.7447217107 0.4967998862 -0.4456225336
outer loop
vertex -29.35054779 -87.26411438 27.27140427
vertex -27.02472687 -89.09812927 29.11366081
vertex -29.53075409 -89.15568542 24.86143684

endloop
endfacet
facet normal 0.7513873577 0.4832044542 -0.4493668377
outer loop
vertex -29.53075409 -89.15568542 24.86143684
vertex -27.02472687 -89.09812927 29.11366081
vertex -27.22692108 -90.84476471 26.89741325

endloop
endfacet
facet normal 0.7447285652 0.5351557732 -0.3987324834
outer loop
vertex -29.53075409 -89.15568542 24.86143684
vertex -27.22692108 -90.84476471 26.89741325
vertex -29.64984894 -90.08067322 23.39753342

endloop
endfacet
facet normal 0.6537165642 0.6943098307 -0.3009794354
outer loop
vertex -29.64984894 -90.08067322 23.39753342
vertex -27.22692108 -90.84476471 26.89741325
vertex -27.33946991 -91.24330902 25.73358536

endloop
endfacet
facet normal 0.5563452244 0.8185842633 -0.1428277194
outer loop
vertex -29.64984894 -90.08067322 23.39753342
vertex -27.33946991 -91.24330902 25.73358536
vertex -28.7710495 -90.78987885 22.75600052

endloop
endfacet
facet normal -0.1175494343 0.9717828035 0.2045002878
outer loop
vertex -28.7710495 -90.78987885 22.75600052
vertex -27.33946991 -91.24330902 25.73358536
vertex -26.66925812 -90.99843597 24.95519829

endloop
endfacet
facet normal 0.02316130698 0.997105062 0.07242328674
outer loop
vertex -28.7710495 -90.78987885 22.75600052
vertex -26.66925812 -90.99843597 24.95519829
vertex -20.22600555 -90.79263306 20.06117439

endloop
endfacet
facet normal 0.6043346524 -0.09208909422 0.7913906574
outer loop
vertex -20.22600555 -90.79263306 20.06117439
vertex -26.66925812 -90.99843597 24.95519829
vertex -20.22600555 -90.79264832 20.06117249

endloop
endfacet
facet normal 0.6702712178 -0.7421161532 0
outer loop
vertex -20.03740692 -72.94333649 35.6429863
vertex -20.03740692 -72.94333649 35.64299393
vertex -26.36412811 -78.65756226 35.94488144

endloop
endfacet
facet normal 0.3132506609 -0.3925132751 -0.8647585511
outer loop
vertex -26.36412811 -78.65756226 35.94488144
vertex -20.03740692 -72.94333649 35.64299393
vertex -23.56969452 -79.53635406 37.35602188

endloop
endfacet
facet normal 0.5095052123 0.382304281 -0.7708747387
outer loop
vertex -26.36412811 -78.65756226 35.94488144
vertex -23.56969452 -79.53635406 37.35602188
vertex -26.88918304 -85.19143677 32.35746765

endloop
endfacet
facet normal 0.4922674298 0.3961386383 -0.7750786543
outer loop
vertex -26.88918304 -85.19143677 32.35746765
vertex -23.56969452 -79.53635406 37.35602188
vertex -23.83824921 -86.33646393 33.70995712

endloop
endfacet
facet normal 0.5021412373 0.542060256 -0.6738136411
outer loop
vertex -26.88918304 -85.19143677 32.35746765
vertex -23.83824921 -86.33646393 33.70995712
vertex -27.02471161 -89.0981369 29.11366081

endloop
endfacet
facet normal 0.4623696208 0.5811210275 -0.6697109342
outer loop
vertex -27.02471161 -89.0981369 29.11366081
vertex -23.83824921 -86.33646393 33.70995712
vertex -23.96949005 -90.18629456 30.27877617

endloop
endfacet
facet normal 0.4602076709 0.6763990521 -0.5750593543
outer loop
vertex -27.02472687 -89.09812927 29.11366081
vertex -23.96949005 -90.18629456 30.27877426
vertex -27.22692108 -90.84476471 26.89741325

endloop
endfacet
facet normal 0.4197275937 0.7253630757 -0.5455979705
outer loop
vertex -27.22692108 -90.84476471 26.89741325
vertex -23.96949005 -90.18629456 30.27877426
vertex -24.12958527 -91.7505188 28.07600403

endloop
endfacet
facet normal 0.3790324032 0.8636243939 -0.3323964179
outer loop
vertex -27.22692108 -90.84476471 26.89741325
vertex -24.12958527 -91.7505188 28.07600403
vertex -27.33946991 -91.24330902 25.73358536

endloop
endfacet
facet normal 0.1974145174 0.9785651565 -0.05863172933
outer loop
vertex -27.33946991 -91.24330902 25.73358536
vertex -24.12958527 -91.7505188 28.07600403
vertex -24.15261078 -91.80393982 27.10687828

endloop
endfacet
facet normal 0.02785710245 0.9464244246 0.321721673
outer loop
vertex -27.33946991 -91.24330902 25.73358536
vertex -24.15261078 -91.80393982 27.10687828
vertex -26.66925812 -90.99843597 24.95519829

endloop
endfacet
facet normal -0.3086054623 0.714145124 0.6282987595
outer loop
vertex -26.66925812 -90.99843597 24.95519829
vertex -24.15261078 -91.80393982 27.10687828
vertex -23.6501236 -90.9207077 26.34977722

endloop
endfacet
facet normal -0.0280758366 0.9995929599 0.005068260711
outer loop
vertex -26.66925812 -90.99843597 24.95519829
vertex -23.6501236 -90.9207077 26.34977722
vertex -20.22600555 -90.79264832 20.06117249

endloop
endfacet
facet normal -0.8781561255 0 -0.478374064
outer loop
vertex -20.22600555 -90.79264832 20.06117249
vertex -23.6501236 -90.9207077 26.34977722
vertex -20.22600555 -90.79263306 20.06117249

endloop
endfacet
facet normal -0.3721592128 0.4150897563 0.8301795125
outer loop
vertex -20.03740692 -72.94333649 35.64299393
vertex -20.03740692 -72.94332886 35.64299011
vertex -23.56969452 -79.53635406 37.35602188

endloop
endfacet
facet normal 0.08239588141 -0.2917423844 -0.9529413581
outer loop
vertex -23.56969452 -79.53635406 37.35602188
vertex -20.03740692 -72.94332886 35.64299011
vertex -20.070961 -79.75106812 37.72427368

endloop
endfacet
facet normal 0.120847933 0.4653641284 -0.8768306971
outer loop
vertex -23.56969452 -79.53635406 37.35602188
vertex -20.070961 -79.75106812 37.72427368
vertex -23.83824921 -86.33646393 33.70995712

endloop
endfacet
facet normal -0.03010358289 0.5327605009 -0.8457304835
outer loop
vertex -23.83824921 -86.33646393 33.70995712
vertex -20.070961 -79.75106812 37.72427368
vertex -20.15904999 -86.17707062 33.67940521

endloop
endfacet
facet normal -0.03502640873 0.665606916 -0.7454800606
outer loop
vertex -23.83824921 -86.33646393 33.70995712
vertex -20.15904999 -86.17707062 33.67940521
vertex -23.96949005 -90.18629456 30.27877617

endloop
endfacet
facet normal -0.2547342181 0.7548091412 -0.6044615507
outer loop
vertex -23.96949005 -90.18629456 30.27877617
vertex -20.15904999 -86.17707062 33.67940521
vertex -20.27237701 -89.47722626 29.60616112

endloop
endfacet
facet normal -0.252630502 0.7974639535 -0.5479316711
outer loop
vertex -23.96949005 -90.18629456 30.27877426
vertex -20.27237701 -89.47722626 29.60615921
vertex -24.12958527 -91.7505188 28.07600403

endloop
endfacet
facet normal -0.3388225734 0.8485069275 -0.4064915478
outer loop
vertex -24.12958527 -91.7505188 28.07600403
vertex -20.27237701 -89.47722626 29.60615921
vertex -20.39337921 -90.80490875 26.93562508

endloop
endfacet
facet normal -0.2585558593 0.9648501873 -0.04704229161
outer loop
vertex -24.12958527 -91.7505188 28.07600403
vertex -20.39337921 -90.80490875 26.93562508
vertex -24.15261078 -91.80393982 27.10687828

endloop
endfacet
facet normal -0.2602798343 0.9480233788 -0.1830466539
outer loop
vertex -24.15261078 -91.80393982 27.10687828
vertex -20.39337921 -90.80490875 26.93562508
vertex -20.29341888 -90.95661926 26.00775909

endloop
endfacet
facet normal 0.08611485362 0.6197026968 0.7800979018
outer loop
vertex -24.15261078 -91.80393982 27.10687828
vertex -20.29341888 -90.95661926 26.00775909
vertex -23.6501236 -90.9207077 26.34977722

endloop
endfacet
facet normal 0.101478368 0.01119076088 0.9947748184
outer loop
vertex -23.6501236 -90.9207077 26.34977722
vertex -20.29341888 -90.95661926 26.00775909
vertex -19.73285675 -90.16766357 25.94169998

endloop
endfacet
facet normal -0.1968208402 0.9765469432 -0.08727959543
outer loop
vertex -23.6501236 -90.9207077 26.34977722
vertex -19.73285675 -90.16766357 25.94169998
vertex -20.22600555 -90.79263306 20.06117249

endloop
endfacet
facet normal 0.7808687687 -0.6246950626 0
outer loop
vertex -20.22600555 -90.79263306 20.06117249
vertex -19.73285675 -90.16766357 25.94169998
vertex -20.22600555 -90.79263306 20.06117439

endloop
endfacet
facet normal -0.9998701215 0 -0.01611972414
outer loop
vertex -20.03740692 -72.94332886 35.64299011
vertex -20.03740692 -72.94333649 35.64299011
vertex -20.070961 -79.75106812 37.72427368

endloop
endfacet
facet normal -0.1703110486 -0.2873263061 -0.9425697327
outer loop
vertex -20.070961 -79.75106812 37.72427368
vertex -20.03740692 -72.94333649 35.64299011
vertex -16.49852753 -79.27958679 36.93505478

endloop
endfacet
facet normal -0.2491385341 0.5183528066 -0.8180711269
outer loop
vertex -20.070961 -79.75106812 37.72427368
vertex -16.49852753 -79.27958679 36.93505478
vertex -20.15904999 -86.17707062 33.67940521

endloop
endfacet
facet normal -0.3883407116 0.5537606478 -0.7365735769
outer loop
vertex -20.15904999 -86.17707062 33.67940521
vertex -16.49852753 -79.27958679 36.93505478
vertex -16.47119904 -85.07329559 32.56489944

endloop
endfacet
facet normal -0.3890778124 0.7210288644 -0.5733548403
outer loop
vertex -20.15904999 -86.17707062 33.67940521
vertex -16.47119904 -85.07329559 32.56489944
vertex -20.27237701 -89.47722626 29.60616112

endloop
endfacet
facet normal -0.5105006099 0.7375819087 -0.4419978559
outer loop
vertex -20.27237701 -89.47722626 29.60616112
vertex -16.47119904 -85.07329559 32.56489944
vertex -16.62522125 -87.90478516 28.01775742

endloop
endfacet
facet normal -0.4985809326 0.7850019336 -0.3676807284
outer loop
vertex -20.27237701 -89.47722626 29.60615921
vertex -16.62523651 -87.90478516 28.01775551
vertex -20.39337921 -90.80490875 26.93562508

endloop
endfacet
facet normal -0.5112397671 0.7902855873 -0.3377611935
outer loop
vertex -20.39337921 -90.80490875 26.93562508
vertex -16.62523651 -87.90478516 28.01775551
vertex -16.65306854 -89.22827148 24.9632206

endloop
endfacet
facet normal -0.4652445614 0.8642354012 -0.1914280802
outer loop
vertex -20.39337921 -90.80490875 26.93562508
vertex -16.65306854 -89.22827148 24.9632206
vertex -20.29341888 -90.95661926 26.00775909

endloop
endfacet
facet normal -0.4814254642 0.6791746616 -0.5540317893
outer loop
vertex -20.29341888 -90.95661926 26.00775909
vertex -16.65306854 -89.22827148 24.9632206
vertex -16.31291962 -89.76433563 24.01049995

endloop
endfacet
facet normal 0.4966280758 -0.2841916382 0.8201192617
outer loop
vertex -20.29341888 -90.95661926 26.00775909
vertex -16.31291962 -89.76433563 24.01049995
vertex -19.73285675 -90.16766357 25.94169998

endloop
endfacet
facet normal 0.2939526439 -0.8957585692 0.3334792554
outer loop
vertex -19.73285675 -90.16766357 25.94169998
vertex -16.31291962 -89.76433563 24.01049995
vertex -15.69475555 -89.38162994 24.49359131

endloop
endfacet
facet normal -0.2196182162 0.9718870521 -0.08487256616
outer loop
vertex -19.73285675 -90.16766357 25.94169998
vertex -15.69475555 -89.38162994 24.49359131
vertex -20.22600555 -90.79263306 20.06117439

endloop
endfacet
facet normal 0.7021448016 0 -0.7120341659
outer loop
vertex -20.22600555 -90.79263306 20.06117439
vertex -15.69475555 -89.38162994 24.49359131
vertex -20.22600555 -90.79264069 20.06117439

endloop
endfacet
facet normal -nan(ind) -nan(ind) -nan(ind)
outer loop
vertex -20.03740692 -72.94333649 35.64299011
vertex -20.03740692 -72.94333649 35.64299011
vertex -16.49852753 -79.27958679 36.93505478

endloop
endfacet
facet normal -0.3271075785 -0.360794425 -0.8734002709
outer loop
vertex -16.49852753 -79.27958679 36.93505478
vertex -20.03740692 -72.94333649 35.64299011
vertex -13.6419754 -78.45309448 35.52379608

endloop
endfacet
facet normal -0.4944118261 0.5219538212 -0.6950691342
outer loop
vertex -16.49852753 -79.27958679 36.93505478
vertex -13.6419754 -78.45309448 35.52379608
vertex -16.47119904 -85.07329559 32.56489944

endloop
endfacet
facet normal -0.4610726535 0.5188037157 -0.7198991179
outer loop
vertex -16.47119904 -85.07329559 32.56489944
vertex -13.6419754 -78.45309448 35.52379608
vertex -13.54941559 -83.99204254 31.47280693

endloop
endfacet
facet normal -0.4542387128 0.7630692124 -0.4597744644
outer loop
vertex -16.47119904 -85.07329559 32.56489944
vertex -13.54941559 -83.99204254 31.47280693
vertex -16.62522125 -87.90478516 28.01775742

endloop
endfacet
facet normal -0.3286286891 0.757014811 -0.5647404194
outer loop
vertex -16.62522125 -87.90478516 28.01775742
vertex -13.54941559 -83.99204254 31.47280693
vertex -13.72345734 -87.15472412 27.33461952

endloop
endfacet
facet normal -0.313769877 0.8722729683 -0.3750844002
outer loop
vertex -16.62523651 -87.90478516 28.01775551
vertex -13.72345734 -87.15472412 27.33462143
vertex -16.65306854 -89.22827148 24.9632206

endloop
endfacet
facet normal -0.1563286781 0.8311468959 -0.5336256027
outer loop
vertex -16.65306854 -89.22827148 24.9632206
vertex -13.72345734 -87.15472412 27.33462143
vertex -13.50881195 -88.91637421 24.52788734

endloop
endfacet
facet normal -0.1557672918 0.836071372 -0.5260429382
outer loop
vertex -16.65306854 -89.22827148 24.9632206
vertex -13.50881195 -88.91637421 24.52788734
vertex -16.31291962 -89.76433563 24.01049995

endloop
endfacet
facet normal -0.1153885722 0.766826272 -0.6313975453
outer loop
vertex -16.31291962 -89.76433563 24.01049995
vertex -13.50881195 -88.91637421 24.52788734
vertex -12.8944931 -89.72919464 23.42845726

endloop
endfacet
facet normal 0.09990728647 -0.8381794691 0.5361656547
outer loop
vertex -16.31291962 -89.76433563 24.01049995
vertex -12.8944931 -89.72919464 23.42845726
vertex -15.69475555 -89.38162994 24.49359131

endloop
endfacet
facet normal 0.369668752 0.1929263771 0.9089138508
outer loop
vertex -15.69475555 -89.38162994 24.49359131
vertex -12.8944931 -89.72919464 23.42845726
vertex -12.65900421 -89.45832062 23.27518463

endloop
endfacet
facet normal -0.07043456286 0.9690776467 -0.236490041
outer loop
vertex -15.69475555 -89.38162994 24.49359131
vertex -12.65900421 -89.45832062 23.27518463
vertex -20.22600555 -90.79264069 20.06117439

endloop
endfacet
facet normal -0.4118234813 0.2311991453 0.8814467788
outer loop
vertex -20.22600555 -90.79264069 20.06117439
vertex -12.65900421 -89.45832062 23.27518463
vertex -20.22600555 -90.79263306 20.06117249

endloop
endfacet
facet normal -0.6526987553 -0.7576176524 0
outer loop
vertex -20.03740692 -72.94333649 35.64299011
vertex -20.03740692 -72.94333649 35.6429863
vertex -13.6419754 -78.45309448 35.52379608

endloop
endfacet
facet normal -0.411889106 -0.461096406 -0.7859627008
outer loop
vertex -13.6419754 -78.45309448 35.52379608
vertex -20.03740692 -72.94333649 35.6429863
vertex -11.74668121 -77.3272934 33.87008667

endloop
endfacet
facet normal -0.7258799076 0.3980974853 -0.5609071255
outer loop
vertex -13.6419754 -78.45309448 35.52379608
vertex -11.74668121 -77.3272934 33.87008667
vertex -13.54941559 -83.99204254 31.47280693

endloop
endfacet
facet normal -0.6725516915 0.4047655165 -0.6195474267
outer loop
vertex -13.54941559 -83.99204254 31.47280693
vertex -11.74668121 -77.3272934 33.87008667
vertex -11.373909 -82.4574585 30.11375999

endloop
endfacet
facet normal -0.6838245988 0.5933141112 -0.4246906638
outer loop
vertex -13.54941559 -83.99204254 31.47280693
vertex -11.373909 -82.4574585 30.11375999
vertex -13.72345734 -87.15472412 27.33461952

endloop
endfacet
facet normal -0.4848417044 0.6121159196 -0.6246939898
outer loop
vertex -13.72345734 -87.15472412 27.33461952
vertex -11.373909 -82.4574585 30.11375999
vertex -11.16065216 -86.07378387 26.40473366

endloop
endfacet
facet normal -0.4837673903 0.7241470814 -0.491508007
outer loop
vertex -13.72345734 -87.15472412 27.33462143
vertex -11.16065216 -86.0737915 26.40473366
vertex -13.50881195 -88.91637421 24.52788734

endloop
endfacet
facet normal -0.3561576307 0.7016618848 -0.617108047
outer loop
vertex -13.50881195 -88.91637421 24.52788734
vertex -11.16065216 -86.0737915 26.40473366
vertex -10.80390167 -88.34081268 23.62119865

endloop
endfacet
facet normal -0.3630999923 0.6406670809 -0.676538229
outer loop
vertex -13.50881195 -88.91637421 24.52788734
vertex -10.80390167 -88.34081268 23.62119865
vertex -12.8944931 -89.72919464 23.42845726

endloop
endfacet
facet normal -0.4157962799 0.7057304382 -0.5736356378
outer loop
vertex -12.8944931 -89.72919464 23.42845726
vertex -10.80390167 -88.34081268 23.62119865
vertex -10.52210236 -89.48244476 22.01241493

endloop
endfacet
facet normal 0.5086159706 0.04436765239 0.8598496318
outer loop
vertex -12.8944931 -89.72919464 23.42845726
vertex -10.52210236 -89.48244476 22.01241493
vertex -12.65900421 -89.45832062 23.27518463

endloop
endfacet
facet normal -0.1035231948 0.9755591154 -0.1938226968
outer loop
vertex -12.65900421 -89.45832062 23.27518463
vertex -10.52210236 -89.48244476 22.01241493
vertex -11.02570343 -89.69109344 21.23121262

endloop
endfacet
facet normal -0.09344337136 0.9780856371 -0.1860558242
outer loop
vertex -12.65900421 -89.45832062 23.27518463
vertex -11.02570343 -89.69109344 21.23121262
vertex -20.22600555 -90.79263306 20.06117249

endloop
endfacet
facet normal 0.1273785383 0 -0.9918542504
outer loop
vertex -20.22600555 -90.79263306 20.06117249
vertex -11.02570343 -89.69109344 21.23121262
vertex -20.22600555 -90.79264069 20.06117249

endloop
endfacet
facet normal 0.4674503505 0.8840193748 0
outer loop
vertex -20.03740692 -72.94333649 35.6429863
vertex -20.03740692 -72.94333649 35.64299393
vertex -11.74668121 -77.3272934 33.87008667

endloop
endfacet
facet normal -0.4655523598 -0.6284067631 -0.6231901646
outer loop
vertex -11.74668121 -77.3272934 33.87008667
vertex -20.03740692 -72.94333649 35.64299393
vertex -10.59606171 -76.07145691 31.74417114

endloop
endfacet
facet normal -0.9063525796 0.2047591209 -0.3695927262
outer loop
vertex -11.74668121 -77.3272934 33.87008667
vertex -10.59606171 -76.07145691 31.74417114
vertex -11.373909 -82.4574585 30.11375999

endloop
endfacet
facet normal -0.9086939096 0.203714475 -0.3643841147
outer loop
vertex -11.373909 -82.4574585 30.11375999
vertex -10.59606171 -76.07145691 31.74417114
vertex -10.0628891 -80.61447906 27.87471008

endloop
endfacet
facet normal -0.9111859202 0.26757586 -0.3132784367
outer loop
vertex -11.373909 -82.4574585 30.11375999
vertex -10.0628891 -80.61447906 27.87471008
vertex -11.16065216 -86.07378387 26.40473366

endloop
endfacet
facet normal -0.8887370229 0.2770493329 -0.365226388
outer loop
vertex -11.16065216 -86.07378387 26.40473366
vertex -10.0628891 -80.61447906 27.87471008
vertex -9.844734192 -84.37762451 24.48925018

endloop
endfacet
facet normal -0.8891789913 0.2923016846 -0.3520232737
outer loop
vertex -11.16065216 -86.0737915 26.40473366
vertex -9.844734192 -84.37762451 24.48925209
vertex -10.80390167 -88.34081268 23.62119865

endloop
endfacet
facet normal -0.891120851 0.2917839289 -0.3475136757
outer loop
vertex -10.80390167 -88.34081268 23.62119865
vertex -9.844734192 -84.37762451 24.48925209
vertex -9.693061829 -87.09255219 21.8207798

endloop
endfacet
facet normal -0.8915441632 0.2807730436 -0.3554089069
outer loop
vertex -10.80390167 -88.34081268 23.62119865
vertex -9.693061829 -87.09255219 21.8207798
vertex -10.52210236 -89.48244476 22.01241493

endloop
endfacet
facet normal -0.9232823253 0.3011625111 -0.2384343594
outer loop
vertex -10.52210236 -89.48244476 22.01241493
vertex -9.693061829 -87.09255219 21.8207798
vertex -9.778297424 -88.86074829 19.91745567

endloop
endfacet
facet normal -0.4895385504 0.8679491282 0.08376283199
outer loop
vertex -10.52210236 -89.48244476 22.01241493
vertex -9.778297424 -88.86074829 19.91745567
vertex -11.02570343 -89.69109344 21.23121262

endloop
endfacet
facet normal -0.678514421 0.707690239 -0.1969586462
outer loop
vertex -11.02570343 -89.69109344 21.23121262
vertex -9.778297424 -88.86074829 19.91745567
vertex -10.60054779 -89.95081329 18.83337212

endloop
endfacet
facet normal -0.1022577435 0.98687011 -0.1250229925
outer loop
vertex -11.02570343 -89.69109344 21.23121262
vertex -10.60054779 -89.95081329 18.83337212
vertex -20.22600555 -90.79264069 20.06117249

endloop
endfacet
facet normal 0.1272049248 0 0.9918764234
outer loop
vertex -20.22600555 -90.79264069 20.06117249
vertex -10.60054779 -89.95081329 18.83337212
vertex -20.22600555 -90.79263306 20.06117249

endloop
endfacet
facet normal -0.3145084679 -0.9492546916 0
outer loop
vertex -20.03740692 -72.94333649 35.64299393
vertex -20.03740692 -72.94333649 35.64299011
vertex -10.59606171 -76.07145691 31.74417114

endloop
endfacet
facet normal -0.4466522932 -0.7603495717 -0.4715616107
outer loop
vertex -10.59606171 -76.07145691 31.74417114
vertex -20.03740692 -72.94333649 35.64299011
vertex -10.16941071 -74.82591248 29.3317318

endloop
endfacet
facet normal -0.9864150882 0.02279618382 -0.1626823545
outer loop
vertex -10.59606171 -76.07145691 31.74417114
vertex -10.16941071 -74.82591248 29.3317318
vertex -10.0628891 -80.61447906 27.87471008

endloop
endfacet
facet normal -0.9849443436 0.02493308298 -0.1710644811
outer loop
vertex -10.0628891 -80.61447906 27.87471008
vertex -10.16941071 -74.82591248 29.3317318
vertex -9.590065002 -78.81058502 25.41523552

endloop
endfacet
facet normal -0.9878243208 0.06842846423 -0.1397166252
outer loop
vertex -10.0628891 -80.61447906 27.87471008
vertex -9.590065002 -78.81058502 25.41523552
vertex -9.844734192 -84.37762451 24.48925018

endloop
endfacet
facet normal -0.997748971 0.0525682047 -0.04163495079
outer loop
vertex -9.844734192 -84.37762451 24.48925018
vertex -9.590065002 -78.81058502 25.41523552
vertex -9.656837463 -82.46694946 22.39886665

endloop
endfacet
facet normal -0.997110188 0.01705712825 -0.07402847707
outer loop
vertex -9.844734192 -84.37762451 24.48925209
vertex -9.656852722 -82.46695709 22.39886665
vertex -9.693061829 -87.09255219 21.8207798

endloop
endfacet
facet normal -0.9989022017 0.001970121404 0.04680329934
outer loop
vertex -9.693061829 -87.09255219 21.8207798
vertex -9.656852722 -82.46695709 22.39886665
vertex -9.781929016 -85.50493622 19.8572979

endloop
endfacet
facet normal -0.9989873171 -0.0002745339589 0.04499218613
outer loop
vertex -9.693061829 -87.09255219 21.8207798
vertex -9.781929016 -85.50493622 19.8572979
vertex -9.778297424 -88.86074829 19.91745567

endloop
endfacet
facet normal -0.9979723096 6.10196148e-05 0.06364927441
outer loop
vertex -9.778297424 -88.86074829 19.91745567
vertex -9.781929016 -85.50493622 19.8572979
vertex -9.921653748 -88.0646286 17.66897392

endloop
endfacet
facet normal -0.870070219 0.4445860684 0.2128875554
outer loop
vertex -9.778297424 -88.86074829 19.91745567
vertex -9.921653748 -88.0646286 17.66897392
vertex -10.60054779 -89.95081329 18.83337212

endloop
endfacet
facet normal -0.9496201277 0.3088164032 -0.05342387408
outer loop
vertex -10.60054779 -89.95081329 18.83337212
vertex -9.921653748 -88.0646286 17.66897392
vertex -10.57064056 -90.29296112 16.32398224

endloop
endfacet
facet normal -0.1034708098 0.9853482842 -0.1355824918
outer loop
vertex -10.60054779 -89.95081329 18.83337212
vertex -10.57064056 -90.29296112 16.32398224
vertex -20.22600555 -90.79263306 20.06117249

endloop
endfacet
facet normal 0.04993761703 -0.9987523556 0
outer loop
vertex -20.22600555 -90.79263306 20.06117249
vertex -10.57064056 -90.29296112 16.32398224
vertex -20.22600555 -90.79263306 20.06117439

endloop
endfacet
facet normal -nan(ind) -nan(ind) -nan(ind)
outer loop
vertex -20.03740692 -72.94333649 35.64299011
vertex -20.03740692 -72.94333649 35.64299011
vertex -10.16941071 -74.82591248 29.3317318

endloop
endfacet
facet normal -0.3767775893 -0.8651248813 -0.3310554326
outer loop
vertex -10.16941071 -74.82591248 29.3317318
vertex -20.03740692 -72.94333649 35.64299011
vertex -11.04915619 -73.37258911 26.53510666

endloop
endfacet
facet normal -0.9467865825 -0.2848829925 0.1497891545
outer loop
vertex -10.16941071 -74.82591248 29.3317318
vertex -11.04915619 -73.37258911 26.53510666
vertex -9.590065002 -78.81058502 25.41523552

endloop
endfacet
facet normal -0.9647773504 -0.2624807656 0.01756573096
outer loop
vertex -9.590065002 -78.81058502 25.41523552
vertex -11.04915619 -73.37258911 26.53510666
vertex -10.20381927 -76.72916412 22.80770111

endloop
endfacet
facet normal -0.9834387898 -0.1043116972 0.1482140422
outer loop
vertex -9.590065002 -78.81058502 25.41523552
vertex -10.20381927 -76.72916412 22.80770111
vertex -9.656837463 -82.46694946 22.39886665

endloop
endfacet
facet normal -0.9911545515 -0.1006499231 0.08649984747
outer loop
vertex -9.656837463 -82.46694946 22.39886665
vertex -10.20381927 -76.72916412 22.80770111
vertex -10.1272049 -79.95153046 19.93608665

endloop
endfacet
facet normal -0.9902053475 -0.06333004683 0.124429673
outer loop
vertex -9.656852722 -82.46695709 22.39886665
vertex -10.1272049 -79.95152283 19.93608856
vertex -9.781929016 -85.50493622 19.8572979

endloop
endfacet
facet normal -0.9897812009 -0.0633507669 0.127748847
outer loop
vertex -9.781929016 -85.50493622 19.8572979
vertex -10.1272049 -79.95152283 19.93608856
vertex -10.27037811 -83.19660187 17.21756363

endloop
endfacet
facet normal -0.98953861 -0.05866431072 0.1318020523
outer loop
vertex -9.781929016 -85.50493622 19.8572979
vertex -10.27037811 -83.19660187 17.21756363
vertex -9.921653748 -88.0646286 17.66897392

endloop
endfacet
facet normal -0.9862427711 -0.05623591319 0.1554438472
outer loop
vertex -9.921653748 -88.0646286 17.66897392
vertex -10.27037811 -83.19660187 17.21756363
vertex -10.46785736 -86.83617401 14.64790821

endloop
endfacet
facet normal -0.962648809 0.1407647878 0.2312844098
outer loop
vertex -9.921653748 -88.0646286 17.66897392
vertex -10.46785736 -86.83617401 14.64790821
vertex -10.57064056 -90.29296112 16.32398224

endloop
endfacet
facet normal -0.9851211905 0.09780927002 0.1413135231
outer loop
vertex -10.57064056 -90.29296112 16.32398224
vertex -10.46785736 -86.83617401 14.64790821
vertex -11.05599213 -90.66415405 13.19743061

endloop
endfacet
facet normal -0.09128451347 0.990440309 -0.1034172475
outer loop
vertex -10.57064056 -90.29296112 16.32398224
vertex -11.05599213 -90.66415405 13.19743061
vertex -20.22600555 -90.79263306 20.06117439

endloop
endfacet
facet normal -0.5874026418 0.2129958719 -0.7807629704
outer loop
vertex -20.22600555 -90.79263306 20.06117439
vertex -11.05599213 -90.66415405 13.19743061
vertex -20.22600555 -90.79264832 20.06117058

endloop
endfacet
facet normal -nan(ind) -nan(ind) -nan(ind)
outer loop
vertex -20.03740692 -72.94333649 35.64299011
vertex -20.03740692 -72.94333649 35.64299011
vertex -11.04915619 -73.37258911 26.53510666

endloop
endfacet
facet normal -0.180690363 -0.9745897651 -0.1323847622
outer loop
vertex -11.04915619 -73.37258911 26.53510666
vertex -20.03740692 -72.94333649 35.64299011
vertex -18.84268951 -71.26402283 21.64956856

endloop
endfacet
facet normal -0.5076318979 -0.6943238378 0.5101216435
outer loop
vertex -11.04915619 -73.37258911 26.53510666
vertex -18.84268951 -71.26402283 21.64956856
vertex -10.20381927 -76.72916412 22.80770111

endloop
endfacet
facet normal -0.5067865252 -0.6922007799 0.5138341784
outer loop
vertex -10.20381927 -76.72916412 22.80770111
vertex -18.84268951 -71.26402283 21.64956856
vertex -19.13105011 -73.42359161 18.45594597

endloop
endfacet
facet normal -0.5205887556 -0.574909389 0.631242156
outer loop
vertex -10.20381927 -76.72916412 22.80770111
vertex -19.13105011 -73.42359161 18.45594597
vertex -10.1272049 -79.95153046 19.93608665

endloop
endfacet
facet normal -0.5240216851 -0.5817177296 0.6220978498
outer loop
vertex -10.1272049 -79.95153046 19.93608665
vertex -19.13105011 -73.42359161 18.45594597
vertex -19.45262909 -75.75728607 16.00284958

endloop
endfacet
facet normal -0.5210609436 -0.5344830751 0.6654497385
outer loop
vertex -10.1272049 -79.95152283 19.93608856
vertex -19.45264435 -75.75728607 16.00284958
vertex -10.27037811 -83.19660187 17.21756363

endloop
endfacet
facet normal -0.5827779174 -0.6369081736 0.5046957731
outer loop
vertex -10.27037811 -83.19660187 17.21756363
vertex -19.45264435 -75.75728607 16.00284958
vertex -19.55725861 -78.67150879 12.20440483

endloop
endfacet
facet normal -0.5837057233 -0.4469397068 0.6778882146
outer loop
vertex -10.27037811 -83.19660187 17.21756363
vertex -19.55725861 -78.67150879 12.20440483
vertex -10.46785736 -86.83617401 14.64790821

endloop
endfacet
facet normal -0.6260861754 -0.5242490172 0.5772167444
outer loop
vertex -10.46785736 -86.83617401 14.64790821
vertex -19.55725861 -78.67150879 12.20440483
vertex -19.4907608 -83.42577362 7.958538055

endloop
endfacet
facet normal -0.6298877597 -0.1887028962 0.7534139752
outer loop
vertex -10.46785736 -86.83617401 14.64790821
vertex -19.4907608 -83.42577362 7.958538055
vertex -11.05599213 -90.66415405 13.19743061

endloop
endfacet
facet normal -0.5878639817 -0.104430154 0.8021908998
outer loop
vertex -11.05599213 -90.66415405 13.19743061
vertex -19.4907608 -83.42577362 7.958538055
vertex -19.50167084 -90.54393005 7.023892879

endloop
endfacet
facet normal 0.000278549327 0.999817729 0.01908946596
outer loop
vertex -11.05599213 -90.66415405 13.19743061
vertex -19.50167084 -90.54393005 7.023892879
vertex -20.22600555 -90.79264832 20.06117058

endloop
endfacet
facet normal 0.9984343648 -0.009508898482 0.05512189865
outer loop
vertex -20.22600555 -90.79264832 20.06117058
vertex -19.50167084 -90.54393005 7.023892879
vertex -20.22600555 -90.79264069 20.06117249

endloop
endfacet
endsolid
