solid 
facet normal -0.995484 -0 -0.0949253
outer loop
vertex -20.64870453 -88.99893951 19.51148987
vertex -20.64870453 -88.99893188 19.51148987
vertex -19.3864975 -89.25850677 6.274682999

endloop
endfacet
facet normal 0.03408418968 -0.9991579056 0.02284369804
outer loop
vertex -19.3864975 -89.25850677 6.274682999
vertex -20.64870453 -88.99893188 19.51148987
vertex -27.93062592 -89.43834686 11.15703964

endloop
endfacet
facet normal 0.4830092192 0.1993905753 0.8526110053
outer loop
vertex -19.3864975 -89.25850677 6.274682999
vertex -27.93062592 -89.43834686 11.15703964
vertex -18.78731537 -98.08742523 7.999962807

endloop
endfacet
facet normal 0.4917179644 0.2114919275 0.8446801305
outer loop
vertex -18.78731537 -98.08742523 7.999962807
vertex -27.93062592 -89.43834686 11.15703964
vertex -27.51326752 -96.60762787 12.70913315

endloop
endfacet
facet normal 0.4595202208 0.5861465335 0.6672881842
outer loop
vertex -18.78731537 -98.08742523 7.999962807
vertex -27.51326752 -96.60762787 12.70913315
vertex -17.72623444 -103.8102036 12.29615498

endloop
endfacet
facet normal 0.4366851151 0.5526785851 0.7098256946
outer loop
vertex -17.72623444 -103.8102036 12.29615498
vertex -27.51326752 -96.60762787 12.70913315
vertex -26.39820099 -101.7771683 16.04820824

endloop
endfacet
facet normal 0.3743682802 0.8285787702 0.4162999094
outer loop
vertex -17.72623444 -103.8102036 12.29615498
vertex -26.39820099 -101.7771683 16.04820824
vertex -16.43868256 -106.9283218 17.34440994

endloop
endfacet
facet normal 0.3773840666 0.8319863677 0.4066693187
outer loop
vertex -16.43868256 -106.9283218 17.34440994
vertex -26.39820099 -101.7771683 16.04820824
vertex -24.6135788 -104.9448395 20.87269592

endloop
endfacet
facet normal 0.3105666637 0.9299606681 0.1967781186
outer loop
vertex -16.43868256 -106.9283218 17.34440994
vertex -24.6135788 -104.9448395 20.87269592
vertex -14.67189789 -108.578743 22.35575104

endloop
endfacet
facet normal 0.3201102614 0.9358642101 0.1472674757
outer loop
vertex -14.67189789 -108.578743 22.35575104
vertex -24.6135788 -104.9448395 20.87269592
vertex -21.78659821 -106.762001 26.2755909

endloop
endfacet
facet normal 0.2685918808 0.9623606205 0.04147868231
outer loop
vertex -14.67189789 -108.578743 22.35575104
vertex -21.78659821 -106.762001 26.2755909
vertex -11.80112457 -109.5531693 26.37427521

endloop
endfacet
facet normal 0.2693585455 0.9625414014 -0.03098524176
outer loop
vertex -11.80112457 -109.5531693 26.37427521
vertex -21.78659821 -106.762001 26.2755909
vertex -17.24571991 -107.8765793 31.12618065

endloop
endfacet
facet normal 0.1778878272 0.9740619063 -0.1398544759
outer loop
vertex -11.80112457 -109.5531693 26.37427521
vertex -17.24571991 -107.8765793 31.12618065
vertex -6.948462963 -110.1609344 28.31363678

endloop
endfacet
facet normal 0.1757052541 0.9733636975 -0.147278145
outer loop
vertex -6.948462963 -110.1609344 28.31363678
vertex -17.24571991 -107.8765793 31.12618065
vertex -9.940803528 -108.7305756 34.19699097

endloop
endfacet
facet normal -0.06917072833 0.9607226849 -0.2687515616
outer loop
vertex -6.948462963 -110.1609344 28.31363678
vertex -9.940803528 -108.7305756 34.19699097
vertex 0.6423869729 -109.7064056 27.98475075

endloop
endfacet
facet normal -0.009064013138 0.9853637218 -0.1702242047
outer loop
vertex 0.6423869729 -109.7064056 27.98475075
vertex -9.940803528 -108.7305756 34.19699097
vertex 1.160011053 -108.6870804 33.85767746

endloop
endfacet
facet normal -0.9203100204 0.3909651041 0.01325642411
outer loop
vertex 0.6423869729 -109.7064056 27.98475075
vertex 1.160011053 -108.6870804 33.85767746
vertex 7.155799866 -94.42223358 29.401474

endloop
endfacet
facet normal -0.7911490798 0.1483404487 -0.5933617949
outer loop
vertex 7.155799866 -94.42223358 29.401474
vertex 1.160011053 -108.6870804 33.85767746
vertex 7.155799866 -94.42222595 29.40147591

endloop
endfacet
facet normal 0.4098165333 0.8196330667 -0.4003148973
outer loop
vertex -20.64870453 -88.99893188 19.51148987
vertex -20.64868927 -88.99893951 19.51148987
vertex -27.93062592 -89.43834686 11.15703964

endloop
endfacet
facet normal 0.06336073577 -0.9979869127 -0.002736998955
outer loop
vertex -27.93062592 -89.43834686 11.15703964
vertex -20.64868927 -88.99893951 19.51148987
vertex -30.46250153 -89.60877991 14.68954754

endloop
endfacet
facet normal 0.7967607379 0.1718094349 0.579356432
outer loop
vertex -27.93062592 -89.43834686 11.15703964
vertex -30.46250153 -89.60877991 14.68954754
vertex -27.51326752 -96.60762787 12.70913315

endloop
endfacet
facet normal 0.7852896452 0.1618106067 0.5976098776
outer loop
vertex -27.51326752 -96.60762787 12.70913315
vertex -30.46250153 -89.60877991 14.68954754
vertex -30.33551788 -95.01793671 15.98728371

endloop
endfacet
facet normal 0.7721861601 0.4538143873 0.4447258115
outer loop
vertex -27.51326752 -96.60762787 12.70913315
vertex -30.33551788 -95.01793671 15.98728371
vertex -26.39820099 -101.7771683 16.04820824

endloop
endfacet
facet normal 0.771525681 0.4534432888 0.4462481141
outer loop
vertex -26.39820099 -101.7771683 16.04820824
vertex -30.33551788 -95.01793671 15.98728371
vertex -29.45610809 -99.18331146 18.69939423

endloop
endfacet
facet normal 0.7204533219 0.6712595224 0.174234584
outer loop
vertex -26.39820099 -101.7771683 16.04820824
vertex -29.45610809 -99.18331146 18.69939423
vertex -24.6135788 -104.9448395 20.87269592

endloop
endfacet
facet normal 0.7301532626 0.6679627895 0.1438815594
outer loop
vertex -24.6135788 -104.9448395 20.87269592
vertex -29.45610809 -99.18331146 18.69939423
vertex -27.74738312 -102.0381317 23.28151512

endloop
endfacet
facet normal 0.6436975002 0.7609963417 -0.08085791767
outer loop
vertex -24.6135788 -104.9448395 20.87269592
vertex -27.74738312 -102.0381317 23.28151512
vertex -21.78659821 -106.762001 26.2755909

endloop
endfacet
facet normal 0.6452681422 0.7589643598 -0.08719079942
outer loop
vertex -21.78659821 -106.762001 26.2755909
vertex -27.74738312 -102.0381317 23.28151512
vertex -24.84903717 -103.8665695 28.8152523

endloop
endfacet
facet normal 0.5144968629 0.8044936061 -0.2967879772
outer loop
vertex -21.78659821 -106.762001 26.2755909
vertex -24.84903717 -103.8665695 28.8152523
vertex -17.24571991 -107.8765793 31.12618065

endloop
endfacet
facet normal 0.5141673684 0.8061579466 -0.2928158939
outer loop
vertex -17.24571991 -107.8765793 31.12618065
vertex -24.84903717 -103.8665695 28.8152523
vertex -19.95215607 -105.0317917 34.20588684

endloop
endfacet
facet normal 0.3016780913 0.8177191615 -0.4902302027
outer loop
vertex -17.24571991 -107.8765793 31.12618065
vertex -19.95215607 -105.0317917 34.20588684
vertex -9.940803528 -108.7305756 34.19699097

endloop
endfacet
facet normal 0.3066840768 0.83120507 -0.4637272656
outer loop
vertex -9.940803528 -108.7305756 34.19699097
vertex -19.95215607 -105.0317917 34.20588684
vertex -11.64394379 -105.8784485 38.18290329

endloop
endfacet
facet normal -0.02113429829 0.8087689281 -0.5877466202
outer loop
vertex -9.940803528 -108.7305756 34.19699097
vertex -11.64394379 -105.8784485 38.18290329
vertex 1.160011053 -108.6870804 33.85767746

endloop
endfacet
facet normal -0.007097748574 0.8289399743 -0.5592925549
outer loop
vertex 1.160011053 -108.6870804 33.85767746
vertex -11.64394379 -105.8784485 38.18290329
vertex 1.402778983 -105.9971542 37.84139633

endloop
endfacet
facet normal -0.9262773395 0.3360753655 -0.1704807729
outer loop
vertex 1.160011053 -108.6870804 33.85767746
vertex 1.402778983 -105.9971542 37.84139633
vertex 7.155799866 -94.42222595 29.40147591

endloop
endfacet
facet normal 0.1086072922 0.5430364609 0.8326559067
outer loop
vertex 7.155799866 -94.42222595 29.40147591
vertex 1.402778983 -105.9971542 37.84139633
vertex 7.155815125 -94.42222595 29.401474

endloop
endfacet
facet normal 0 -0.9920971394 0.1254724562
outer loop
vertex -20.64868927 -88.99893951 19.51148987
vertex -20.64870453 -88.99893951 19.51148987
vertex -30.46250153 -89.60877991 14.68954754

endloop
endfacet
facet normal 0.0810180977 -0.9959520698 -0.03893105313
outer loop
vertex -30.46250153 -89.60877991 14.68954754
vertex -20.64870453 -88.99893951 19.51148987
vertex -31.13808441 -89.77519989 17.54104614

endloop
endfacet
facet normal 0.968983829 0.078930825 0.234180212
outer loop
vertex -30.46250153 -89.60877991 14.68954754
vertex -31.13808441 -89.77519989 17.54104614
vertex -30.33551788 -95.01793671 15.98728371

endloop
endfacet
facet normal 0.9797466397 0.09827560186 0.1744660139
outer loop
vertex -30.33551788 -95.01793671 15.98728371
vertex -31.13808441 -89.77519989 17.54104614
vertex -30.99207306 -93.54924011 18.84698486

endloop
endfacet
facet normal 0.9616830349 0.2598873675 0.0873175934
outer loop
vertex -30.33551788 -95.01793671 15.98728371
vertex -30.99207306 -93.54924011 18.84698486
vertex -29.45610809 -99.18331146 18.69939423

endloop
endfacet
facet normal 0.9648102522 0.2627873421 0.009161516093
outer loop
vertex -29.45610809 -99.18331146 18.69939423
vertex -30.99207306 -93.54924011 18.84698486
vertex -30.2009201 -96.53857422 21.27526093

endloop
endfacet
facet normal 0.9220815301 0.3700358868 -0.1133095175
outer loop
vertex -29.45610809 -99.18331146 18.69939423
vertex -30.2009201 -96.53857422 21.27526093
vertex -27.74738312 -102.0381317 23.28151512

endloop
endfacet
facet normal 0.9220178127 0.3710902631 -0.1103411913
outer loop
vertex -27.74738312 -102.0381317 23.28151512
vertex -30.2009201 -96.53857422 21.27526093
vertex -28.78801727 -98.83542633 25.35698318

endloop
endfacet
facet normal 0.8400616646 0.459661603 -0.2881103158
outer loop
vertex -27.74738312 -102.0381317 23.28151512
vertex -28.78801727 -98.83542633 25.35698318
vertex -24.84903717 -103.8665695 28.8152523

endloop
endfacet
facet normal 0.8401638269 0.4562555552 -0.2931818664
outer loop
vertex -24.84903717 -103.8665695 28.8152523
vertex -28.78801727 -98.83542633 25.35698318
vertex -26.11179352 -100.4010162 30.58976746

endloop
endfacet
facet normal 0.6874920726 0.5134561062 -0.5135343671
outer loop
vertex -24.84903717 -103.8665695 28.8152523
vertex -26.11179352 -100.4010162 30.58976746
vertex -19.95215607 -105.0317917 34.20588684

endloop
endfacet
facet normal 0.6865280271 0.5037449002 -0.5243284702
outer loop
vertex -19.95215607 -105.0317917 34.20588684
vertex -26.11179352 -100.4010162 30.58976746
vertex -21.1734848 -101.3513718 36.14268112

endloop
endfacet
facet normal 0.4099300504 0.5275846124 -0.7440509796
outer loop
vertex -19.95215607 -105.0317917 34.20588684
vertex -21.1734848 -101.3513718 36.14268112
vertex -11.64394379 -105.8784485 38.18290329

endloop
endfacet
facet normal 0.4123308063 0.5359451771 -0.736713171
outer loop
vertex -11.64394379 -105.8784485 38.18290329
vertex -21.1734848 -101.3513718 36.14268112
vertex -12.48236847 -101.9406052 40.57835388

endloop
endfacet
facet normal -0.01770039462 0.5168750286 -0.8558778763
outer loop
vertex -11.64394379 -105.8784485 38.18290329
vertex -12.48236847 -101.9406052 40.57835388
vertex 1.402778983 -105.9971542 37.84139633

endloop
endfacet
facet normal -0.0326433219 0.4798169136 -0.8767611384
outer loop
vertex 1.402778983 -105.9971542 37.84139633
vertex -12.48236847 -101.9406052 40.57835388
vertex 1.549919009 -101.7913513 40.1375885

endloop
endfacet
facet normal -0.9184359908 0.2138250321 -0.3327976167
outer loop
vertex 1.402778983 -105.9971542 37.84139633
vertex 1.549919009 -101.7913513 40.1375885
vertex 7.155815125 -94.42222595 29.401474

endloop
endfacet
facet normal 0.423861444 -0.8284564614 -0.3660621345
outer loop
vertex 7.155815125 -94.42222595 29.401474
vertex 1.549919009 -101.7913513 40.1375885
vertex 7.155799866 -94.42223358 29.401474

endloop
endfacet
facet normal -0.1922854483 0.5693122149 0.7993183732
outer loop
vertex -20.64871979 -88.99893951 19.51148987
vertex -20.64868927 -88.99893188 19.51149178
vertex -31.13808441 -89.77520752 17.54104424

endloop
endfacet
facet normal 0.100664027 -0.9838071465 -0.1482908428
outer loop
vertex -31.13808441 -89.77520752 17.54104424
vertex -20.64868927 -88.99893188 19.51149178
vertex -30.69002533 -90.13700104 20.24544907

endloop
endfacet
facet normal 0.9859495163 -0.01927171089 -0.1659278125
outer loop
vertex -31.13808441 -89.77520752 17.54104424
vertex -30.69002533 -90.13700104 20.24544907
vertex -30.99207306 -93.54924011 18.84698486

endloop
endfacet
facet normal 0.9795470238 -0.004261215683 -0.2011704594
outer loop
vertex -30.99207306 -93.54924011 18.84698486
vertex -30.69002533 -90.13700104 20.24544907
vertex -30.41858673 -92.40369415 21.6151619

endloop
endfacet
facet normal 0.9706543088 0.07000872493 -0.2300630212
outer loop
vertex -30.99207306 -93.54924011 18.84698486
vertex -30.41858673 -92.40369415 21.6151619
vertex -30.2009201 -96.53857422 21.27526093

endloop
endfacet
facet normal 0.9516724348 0.07458756119 -0.2979200184
outer loop
vertex -30.2009201 -96.53857422 21.27526093
vertex -30.41858673 -92.40369415 21.6151619
vertex -29.56641388 -94.21492004 23.88387299

endloop
endfacet
facet normal 0.95396626 0.06754866242 -0.2922079861
outer loop
vertex -30.2009201 -96.53857422 21.27526093
vertex -29.56641388 -94.21492004 23.88387299
vertex -28.78801727 -98.83543396 25.35698318

endloop
endfacet
facet normal 0.9456038475 0.05719869584 -0.3202526867
outer loop
vertex -28.78801727 -98.83543396 25.35698318
vertex -29.56641388 -94.21492004 23.88387299
vertex -28.32891083 -95.73078156 27.26708412

endloop
endfacet
facet normal 0.8979994655 0.1264833808 -0.4214250147
outer loop
vertex -28.78801727 -98.83543396 25.35698318
vertex -28.32891083 -95.73078156 27.26708412
vertex -26.11179352 -100.4010239 30.58976746

endloop
endfacet
facet normal 0.8860478401 0.09830958396 -0.4530502558
outer loop
vertex -26.11179352 -100.4010239 30.58976746
vertex -28.32891083 -95.73078156 27.26708412
vertex -25.85642242 -96.80345917 31.8698597

endloop
endfacet
facet normal 0.7504698634 0.1736319512 -0.6376888156
outer loop
vertex -26.11179352 -100.4010239 30.58976746
vertex -25.85642242 -96.80345917 31.8698597
vertex -21.17350006 -101.3513794 36.14267731

endloop
endfacet
facet normal 0.7382757068 0.1403660625 -0.6597320437
outer loop
vertex -21.17350006 -101.3513794 36.14267731
vertex -25.85642242 -96.80345917 31.8698597
vertex -21.05260468 -97.32035065 37.1356163

endloop
endfacet
facet normal 0.456127882 0.1999240965 -0.8671665192
outer loop
vertex -21.17350006 -101.3513794 36.14267731
vertex -21.05260468 -97.32035065 37.1356163
vertex -12.48236847 -101.9406052 40.57835007

endloop
endfacet
facet normal 0.4349358976 0.1445009112 -0.8887915015
outer loop
vertex -12.48236847 -101.9406052 40.57835007
vertex -21.05260468 -97.32035065 37.1356163
vertex -12.4927597 -97.31732178 41.32492447

endloop
endfacet
facet normal -0.0326868929 0.1592595428 -0.9866954684
outer loop
vertex -12.48236847 -101.9406052 40.57835007
vertex -12.4927597 -97.31732178 41.32492447
vertex 1.549903989 -101.7913513 40.13758469

endloop
endfacet
facet normal -0.06273116171 0.06736348569 -0.9957544804
outer loop
vertex 1.549903989 -101.7913513 40.13758469
vertex -12.4927597 -97.31732178 41.32492447
vertex 1.525459051 -96.83047485 40.47473145

endloop
endfacet
facet normal -0.8933665156 0.02608329058 -0.4485710263
outer loop
vertex 1.549903989 -101.7913513 40.13758469
vertex 1.525459051 -96.83047485 40.47473145
vertex 7.155799866 -94.42223358 29.401474

endloop
endfacet
facet normal 0 0.9763174057 0.2163430601
outer loop
vertex 7.155799866 -94.42223358 29.401474
vertex 1.525459051 -96.83047485 40.47473145
vertex 7.155815125 -94.42223358 29.401474

endloop
endfacet
facet normal -0 0.5419803858 0.8403910995
outer loop
vertex -20.64868927 -88.99893188 19.51149178
vertex -20.64870453 -88.99893188 19.51149178
vertex -30.69002533 -90.13700104 20.24544907

endloop
endfacet
facet normal 0.09098329395 -0.9639683366 -0.2499740869
outer loop
vertex -30.69002533 -90.13700104 20.24544907
vertex -20.64870453 -88.99893188 19.51149178
vertex -29.29663849 -90.68103027 22.85052681

endloop
endfacet
facet normal 0.8467621207 -0.1971642673 -0.4940851927
outer loop
vertex -30.69002533 -90.13700104 20.24544907
vertex -29.29663849 -90.68103027 22.85052681
vertex -30.41858673 -92.40369415 21.6151619

endloop
endfacet
facet normal 0.8628510237 -0.2448574007 -0.442190975
outer loop
vertex -30.41858673 -92.40369415 21.6151619
vertex -29.29663849 -90.68103027 22.85052681
vertex -29.00643158 -91.67620087 23.96787262

endloop
endfacet
facet normal 0.8670935035 -0.17583929 -0.4660788178
outer loop
vertex -30.41858673 -92.40369415 21.6151619
vertex -29.00643158 -91.67620087 23.96787262
vertex -29.56641388 -94.21492004 23.88387299

endloop
endfacet
facet normal 0.8530241251 -0.1718529463 -0.4927642047
outer loop
vertex -29.56641388 -94.21492004 23.88387299
vertex -29.00643158 -91.67620087 23.96787262
vertex -28.13156891 -92.56307983 25.79164886

endloop
endfacet
facet normal 0.8658158779 -0.2545757294 -0.4307598174
outer loop
vertex -29.56641388 -94.21492004 23.88387299
vertex -28.13156891 -92.56307983 25.79164886
vertex -28.32891083 -95.73078156 27.26708412

endloop
endfacet
facet normal 0.8381932378 -0.2723082602 -0.4725254476
outer loop
vertex -28.32891083 -95.73078156 27.26708412
vertex -28.13156891 -92.56307983 25.79164886
vertex -26.76830292 -93.31095123 28.64087486

endloop
endfacet
facet normal 0.8279561996 -0.2485821843 -0.5026881695
outer loop
vertex -28.32891083 -95.73078156 27.26708412
vertex -26.76830292 -93.31095123 28.64087486
vertex -25.85642242 -96.80345917 31.8698597

endloop
endfacet
facet normal 0.786398232 -0.2959648967 -0.5422015786
outer loop
vertex -25.85642242 -96.80345917 31.8698597
vertex -26.76830292 -93.31095123 28.64087486
vertex -24.25957489 -93.89667511 32.59920502

endloop
endfacet
facet normal 0.7094138265 -0.2218683511 -0.66895926
outer loop
vertex -25.85642242 -96.80345917 31.8698597
vertex -24.25957489 -93.89667511 32.59920502
vertex -21.05260468 -97.32035065 37.1356163

endloop
endfacet
facet normal 0.6701200008 -0.2820290923 -0.6865848303
outer loop
vertex -21.05260468 -97.32035065 37.1356163
vertex -24.25957489 -93.89667511 32.59920502
vertex -19.68618011 -93.93087006 37.07697296

endloop
endfacet
facet normal 0.4316973984 -0.1892919838 -0.8819330931
outer loop
vertex -21.05260468 -97.32035065 37.1356163
vertex -19.68618011 -93.93087006 37.07697296
vertex -12.4927597 -97.31732178 41.32492447

endloop
endfacet
facet normal 0.3995300531 -0.255640626 -0.8803542256
outer loop
vertex -12.4927597 -97.31732178 41.32492447
vertex -19.68618011 -93.93087006 37.07697296
vertex -11.67967987 -93.03781891 40.45122528

endloop
endfacet
facet normal -0.05285459012 -0.1901032776 -0.980340302
outer loop
vertex -12.4927597 -97.31732178 41.32492447
vertex -11.67967987 -93.03781891 40.45122528
vertex 1.525459051 -96.83047485 40.47473145

endloop
endfacet
facet normal -0.06073755771 -0.217511639 -0.9741660953
outer loop
vertex 1.525459051 -96.83047485 40.47473145
vertex -11.67967987 -93.03781891 40.45122528
vertex 1.61530304 -92.42705536 39.48593521

endloop
endfacet
facet normal -0.8802736402 -0.0867844671 -0.4664618373
outer loop
vertex 1.525459051 -96.83047485 40.47473145
vertex 1.61530304 -92.42705536 39.48593521
vertex 7.155815125 -94.42223358 29.401474

endloop
endfacet
facet normal -0.446102798 -0.892205596 -0.07043728232
outer loop
vertex 7.155815125 -94.42223358 29.401474
vertex 1.61530304 -92.42705536 39.48593521
vertex 7.155799866 -94.42222595 29.40147591

endloop
endfacet
facet normal -0.3968337178 0.4104931355 -0.8209862709
outer loop
vertex -20.64870453 -88.99893188 19.51149178
vertex -20.64870453 -88.99893951 19.51148796
vertex -29.29663849 -90.68103027 22.85052681

endloop
endfacet
facet normal 0.08971626312 -0.9633171558 -0.2529250383
outer loop
vertex -29.29663849 -90.68103027 22.85052681
vertex -20.64870453 -88.99893951 19.51148796
vertex -27.06092072 -91.085289 25.18327141

endloop
endfacet
facet normal 0.557351172 -0.5428373218 -0.6282413602
outer loop
vertex -29.29663849 -90.68103027 22.85052681
vertex -27.06092072 -91.085289 25.18327141
vertex -29.00643158 -91.67620087 23.96787262

endloop
endfacet
facet normal 0.2416211963 -0.9667908549 0.08327431232
outer loop
vertex -29.00643158 -91.67620087 23.96787262
vertex -27.06092072 -91.085289 25.18327141
vertex -26.76692963 -90.95005035 25.90033531

endloop
endfacet
facet normal 0.6502259374 -0.5122950673 -0.5610348582
outer loop
vertex -29.00643158 -91.67620087 23.96787262
vertex -26.76692963 -90.95005035 25.90033531
vertex -28.13156891 -92.56307983 25.79164886

endloop
endfacet
facet normal 0.6348536015 -0.4972465634 -0.5913600922
outer loop
vertex -28.13156891 -92.56307983 25.79164886
vertex -26.76692963 -90.95005035 25.90033531
vertex -25.88378143 -91.18300629 27.04431915

endloop
endfacet
facet normal 0.6368220448 -0.6142936945 -0.4659408033
outer loop
vertex -28.13156891 -92.56307983 25.79164886
vertex -25.88378143 -91.18300629 27.04431915
vertex -26.76830292 -93.31095123 28.64087486

endloop
endfacet
facet normal 0.5601462722 -0.633402288 -0.5338891149
outer loop
vertex -26.76830292 -93.31095123 28.64087486
vertex -25.88378143 -91.18300629 27.04431915
vertex -24.33798981 -91.61571503 29.17949677

endloop
endfacet
facet normal 0.5737396479 -0.6752403378 -0.4635442197
outer loop
vertex -26.76830292 -93.31095123 28.64087486
vertex -24.33798981 -91.61571503 29.17949677
vertex -24.25957489 -93.89667511 32.59920502

endloop
endfacet
facet normal 0.5046910048 -0.7128102183 -0.4870201349
outer loop
vertex -24.25957489 -93.89667511 32.59920502
vertex -24.33798981 -91.61571503 29.17949677
vertex -21.75630951 -91.9427948 32.33356857

endloop
endfacet
facet normal 0.4947011471 -0.703222096 -0.5106362104
outer loop
vertex -24.25957489 -93.89667511 32.59920502
vertex -21.75630951 -91.9427948 32.33356857
vertex -19.68618011 -93.93087006 37.07697296

endloop
endfacet
facet normal 0.489789933 -0.7070429921 -0.5100941658
outer loop
vertex -19.68618011 -93.93087006 37.07697296
vertex -21.75630951 -91.9427948 32.33356857
vertex -17.48627472 -91.48112488 35.79371262

endloop
endfacet
facet normal 0.3524149358 -0.6626433134 -0.6608384848
outer loop
vertex -19.68618011 -93.93087006 37.07697296
vertex -17.48627472 -91.48112488 35.79371262
vertex -11.67967987 -93.03781891 40.45122528

endloop
endfacet
facet normal 0.3606703877 -0.6515192389 -0.6674125791
outer loop
vertex -11.67967987 -93.03781891 40.45122528
vertex -17.48627472 -91.48112488 35.79371262
vertex -10.31661224 -89.80646515 38.03342438

endloop
endfacet
facet normal -0.0314476043 -0.5902590156 -0.8066011071
outer loop
vertex -11.67967987 -93.03781891 40.45122528
vertex -10.31661224 -89.80646515 38.03342438
vertex 1.61530304 -92.42705536 39.48593521

endloop
endfacet
facet normal -0.04051761702 -0.6191532612 -0.7842241526
outer loop
vertex 1.61530304 -92.42705536 39.48593521
vertex -10.31661224 -89.80646515 38.03342438
vertex 1.547325015 -89.11849976 36.87730789

endloop
endfacet
facet normal -0.8523042798 -0.3345299959 -0.4020785689
outer loop
vertex 1.61530304 -92.42705536 39.48593521
vertex 1.547325015 -89.11849976 36.87730789
vertex 7.155799866 -94.42222595 29.40147591

endloop
endfacet
facet normal 0.7316528559 -0.1219421476 0.6706817746
outer loop
vertex 7.155799866 -94.42222595 29.40147591
vertex 1.547325015 -89.11849976 36.87730789
vertex 7.155799866 -94.42223358 29.401474

endloop
endfacet
facet normal 0.3094051778 -0.9509302378 0
outer loop
vertex -20.64870453 -88.99893951 19.51148796
vertex -20.64870453 -88.99893951 19.51148987
vertex -27.06092072 -91.085289 25.18327141

endloop
endfacet
facet normal 0.0955208689 -0.9643608928 -0.2467467189
outer loop
vertex -27.06092072 -91.085289 25.18327141
vertex -20.64870453 -88.99893951 19.51148987
vertex -23.90148163 -91.13612366 26.60503387

endloop
endfacet
facet normal -0.1195379198 -0.9655553102 0.2311139554
outer loop
vertex -27.06092072 -91.085289 25.18327141
vertex -23.90148163 -91.13612366 26.60503387
vertex -26.76692963 -90.95005035 25.90033531

endloop
endfacet
facet normal -0.246192947 -0.2960455418 0.9229008555
outer loop
vertex -26.76692963 -90.95005035 25.90033531
vertex -23.90148163 -91.13612366 26.60503387
vertex -23.5368576 -90.15497589 27.01703072

endloop
endfacet
facet normal 0.3555559516 -0.8234473467 -0.4421701729
outer loop
vertex -26.76692963 -90.95005035 25.90033531
vertex -23.5368576 -90.15497589 27.01703072
vertex -25.88378143 -91.18300629 27.04431915

endloop
endfacet
facet normal 0.3976295888 -0.910725534 -0.1116671637
outer loop
vertex -25.88378143 -91.18300629 27.04431915
vertex -23.5368576 -90.15497589 27.01703072
vertex -22.77523041 -89.87624359 27.45580673

endloop
endfacet
facet normal 0.3961192966 -0.800884366 -0.4490809143
outer loop
vertex -25.88378143 -91.18300629 27.04431915
vertex -22.77523041 -89.87624359 27.45580673
vertex -24.33798981 -91.61571503 29.17949677

endloop
endfacet
facet normal 0.3569217622 -0.7994624972 -0.4831838906
outer loop
vertex -24.33798981 -91.61571503 29.17949677
vertex -22.77523041 -89.87624359 27.45580673
vertex -21.24880219 -90.03765106 28.85042

endloop
endfacet
facet normal 0.3828601241 -0.8328393698 -0.3997459114
outer loop
vertex -24.33798981 -91.61571503 29.17949677
vertex -21.24880219 -90.03765106 28.85042
vertex -21.75630951 -91.9427948 32.33356857

endloop
endfacet
facet normal 0.3663902581 -0.8377709985 -0.4048430324
outer loop
vertex -21.75630951 -91.9427948 32.33356857
vertex -21.24880219 -90.03765106 28.85042
vertex -18.76036835 -90.10157013 31.23476982

endloop
endfacet
facet normal 0.3869045079 -0.8470435739 -0.3644475341
outer loop
vertex -21.75630951 -91.9427948 32.33356857
vertex -18.76036835 -90.10157013 31.23476982
vertex -17.48627472 -91.48112488 35.79371262

endloop
endfacet
facet normal 0.4080530703 -0.8359450102 -0.3669994771
outer loop
vertex -17.48627472 -91.48112488 35.79371262
vertex -18.76036835 -90.10157013 31.23476982
vertex -14.92887115 -89.36418152 33.81525803

endloop
endfacet
facet normal 0.3344215453 -0.8267637491 -0.4523536563
outer loop
vertex -17.48627472 -91.48112488 35.79371262
vertex -14.92887115 -89.36418152 33.81525803
vertex -10.31661224 -89.80646515 38.03342438

endloop
endfacet
facet normal 0.319365412 -0.8406731486 -0.4373492301
outer loop
vertex -10.31661224 -89.80646515 38.03342438
vertex -14.92887115 -89.36418152 33.81525803
vertex -8.810508728 -87.71759033 35.11798859

endloop
endfacet
facet normal -0.01009683684 -0.8103676438 -0.5858347416
outer loop
vertex -10.31661224 -89.80646515 38.03342438
vertex -8.810508728 -87.71759033 35.11798859
vertex 1.547325015 -89.11849976 36.87730789

endloop
endfacet
facet normal -0.07428497076 -0.9458961487 -0.3158513606
outer loop
vertex 1.547325015 -89.11849976 36.87730789
vertex -8.810508728 -87.71759033 35.11798859
vertex 1.282325983 -88.02633667 33.66887665

endloop
endfacet
facet normal -0.7751251459 -0.6148764491 -0.1452853084
outer loop
vertex 1.547325015 -89.11849976 36.87730789
vertex 1.282325983 -88.02633667 33.66887665
vertex 7.155799866 -94.42223358 29.401474

endloop
endfacet
facet normal -nan(ind) -nan(ind) -nan(ind)
outer loop
vertex 7.155799866 -94.42223358 29.401474
vertex 1.282325983 -88.02633667 33.66887665
vertex 7.155799866 -94.42223358 29.401474

endloop
endfacet
facet normal -nan(ind) -nan(ind) -nan(ind)
outer loop
vertex -20.64870453 -88.99893951 19.51148987
vertex -20.64870453 -88.99893951 19.51148987
vertex -23.90148163 -91.13612366 26.60503387

endloop
endfacet
facet normal 0.1283580512 -0.964289546 -0.2316675633
outer loop
vertex -23.90148163 -91.13612366 26.60503387
vertex -20.64870453 -88.99893951 19.51148987
vertex -19.97504425 -90.43248749 25.851717

endloop
endfacet
facet normal 0.2454899251 -0.4514574409 0.8578583598
outer loop
vertex -23.90148163 -91.13612366 26.60503387
vertex -19.97504425 -90.43248749 25.851717
vertex -23.5368576 -90.15497589 27.01703072

endloop
endfacet
facet normal 0.1860360801 -0.6618028283 0.7262282968
outer loop
vertex -23.5368576 -90.15497589 27.01703072
vertex -19.97504425 -90.43248749 25.851717
vertex -19.47667694 -89.66923523 26.41959381

endloop
endfacet
facet normal 0.1586523503 -0.9346120358 0.3183233142
outer loop
vertex -23.5368576 -90.15497589 27.01703072
vertex -19.47667694 -89.66923523 26.41959381
vertex -22.77523041 -89.87624359 27.45580673

endloop
endfacet
facet normal -0.2711295784 0.6153619885 -0.740147531
outer loop
vertex -22.77523041 -89.87624359 27.45580673
vertex -19.47667694 -89.66923523 26.41959381
vertex -19.27603912 -89.7929306 26.24325562

endloop
endfacet
facet normal -0.01175223477 -0.9946884513 -0.1022586077
outer loop
vertex -22.77523041 -89.87624359 27.45580673
vertex -19.27603912 -89.7929306 26.24325562
vertex -21.24880219 -90.03765106 28.85042

endloop
endfacet
facet normal -0.002524056472 -0.9954410195 -0.09534654766
outer loop
vertex -21.24880219 -90.03765106 28.85042
vertex -19.27603912 -89.7929306 26.24325562
vertex -18.0895462 -89.90660095 27.398592

endloop
endfacet
facet normal 0.01968329586 -0.9986860752 -0.04731506854
outer loop
vertex -21.24880219 -90.03765106 28.85042
vertex -18.0895462 -89.90660095 27.398592
vertex -18.76036835 -90.10157013 31.23476982

endloop
endfacet
facet normal 0.2765005231 -0.9610136151 -0.0004914670135
outer loop
vertex -18.76036835 -90.10157013 31.23476982
vertex -18.0895462 -89.90660095 27.398592
vertex -15.92922211 -89.28616333 29.59967995

endloop
endfacet
facet normal 0.236302793 -0.9688572288 -0.07400508225
outer loop
vertex -18.76036835 -90.10157013 31.23476982
vertex -15.92922211 -89.28616333 29.59967995
vertex -14.92887115 -89.36418152 33.81525803

endloop
endfacet
facet normal 0.468018204 -0.8745100498 -0.1272447407
outer loop
vertex -14.92887115 -89.36418152 33.81525803
vertex -15.92922211 -89.28616333 29.59967995
vertex -12.679039 -87.85192108 31.69709969

endloop
endfacet
facet normal 0.3084548116 -0.8980760574 -0.3135522902
outer loop
vertex -14.92887115 -89.36418152 33.81525803
vertex -12.679039 -87.85192108 31.69709969
vertex -8.810508728 -87.71759033 35.11798859

endloop
endfacet
facet normal 0.271030575 -0.9238638282 -0.2702182829
outer loop
vertex -8.810508728 -87.71759033 35.11798859
vertex -12.679039 -87.85192108 31.69709969
vertex -7.510993958 -86.5313797 32.36581039

endloop
endfacet
facet normal -0.08914899081 -0.8986867666 -0.4294351935
outer loop
vertex -8.810508728 -87.71759033 35.11798859
vertex -7.510993958 -86.5313797 32.36581039
vertex 1.282325983 -88.02633667 33.66887665

endloop
endfacet
facet normal -0.168871507 -0.9855983853 0.008835942484
outer loop
vertex 1.282325983 -88.02633667 33.66887665
vertex -7.510993958 -86.5313797 32.36581039
vertex 1.040245056 -88.00975037 30.89235878

endloop
endfacet
facet normal -0.7156373262 -0.6960399747 0.05823748559
outer loop
vertex 1.282325983 -88.02633667 33.66887665
vertex 1.040245056 -88.00975037 30.89235878
vertex 7.155799866 -94.42223358 29.401474

endloop
endfacet
facet normal -nan(ind) -nan(ind) -nan(ind)
outer loop
vertex 7.155799866 -94.42223358 29.401474
vertex 1.040245056 -88.00975037 30.89235878
vertex 7.155799866 -94.42223358 29.401474

endloop
endfacet
facet normal 0.9946700335 0.02500777319 -0.1000310928
outer loop
vertex -20.64870453 -88.99893951 19.51148987
vertex -20.64870453 -88.99893188 19.51149178
vertex -19.97504425 -90.43248749 25.851717

endloop
endfacet
facet normal 0.09201906621 -0.9690924287 -0.2288936824
outer loop
vertex -19.97504425 -90.43248749 25.851717
vertex -20.64870453 -88.99893188 19.51149178
vertex -15.87107086 -89.63439178 24.12259674

endloop
endfacet
facet normal 0.388635546 -0.6997486353 0.5994283557
outer loop
vertex -19.97504425 -90.43248749 25.851717
vertex -15.87107086 -89.63439178 24.12259674
vertex -19.47667694 -89.66923523 26.41959381

endloop
endfacet
facet normal 0.1943395436 -0.9368251562 0.2908447683
outer loop
vertex -19.47667694 -89.66923523 26.41959381
vertex -15.87107086 -89.63439178 24.12259674
vertex -15.18524933 -89.24817657 24.90835571

endloop
endfacet
facet normal -0.3233318627 0.5614520311 -0.7617270947
outer loop
vertex -19.47667694 -89.66923523 26.41959381
vertex -15.18524933 -89.24817657 24.90835571
vertex -19.27603912 -89.7929306 26.24325562

endloop
endfacet
facet normal -0.3153548539 0.6307820678 -0.7089889646
outer loop
vertex -19.27603912 -89.7929306 26.24325562
vertex -15.18524933 -89.24817657 24.90835571
vertex -15.4635849 -89.76927948 24.56853676

endloop
endfacet
facet normal -0.02543374151 -0.9970817566 -0.07198049128
outer loop
vertex -19.27603912 -89.7929306 26.24325562
vertex -15.4635849 -89.76927948 24.56853676
vertex -18.0895462 -89.90660095 27.398592

endloop
endfacet
facet normal -0.04101770371 -0.9954193234 -0.08635991812
outer loop
vertex -18.0895462 -89.90660095 27.398592
vertex -15.4635849 -89.76927948 24.56853676
vertex -14.81473541 -89.89674377 25.72956276

endloop
endfacet
facet normal 0.09567823261 -0.9786416292 0.1819509715
outer loop
vertex -18.0895462 -89.90660095 27.398592
vertex -14.81473541 -89.89674377 25.72956276
vertex -15.92922211 -89.28616333 29.59967995

endloop
endfacet
facet normal 0.3301150799 -0.9131489396 0.2391296625
outer loop
vertex -15.92922211 -89.28616333 29.59967995
vertex -14.81473541 -89.89674377 25.72956276
vertex -13.33545685 -88.80770874 27.84606743

endloop
endfacet
facet normal 0.2961509228 -0.9375977516 0.182222724
outer loop
vertex -15.92922211 -89.28616333 29.59967995
vertex -13.33545685 -88.80770874 27.84606743
vertex -12.679039 -87.85192108 31.69709969

endloop
endfacet
facet normal 0.5367075801 -0.8357641101 0.1159451604
outer loop
vertex -12.679039 -87.85192108 31.69709969
vertex -13.33545685 -88.80770874 27.84606743
vertex -10.88311005 -86.99237823 29.57960129

endloop
endfacet
facet normal 0.2639303803 -0.9508209229 -0.1621116102
outer loop
vertex -12.679039 -87.85192108 31.69709969
vertex -10.88311005 -86.99237823 29.57960129
vertex -7.510993958 -86.5313797 32.36581039

endloop
endfacet
facet normal 0.2107154876 -0.9730141759 -0.09403423965
outer loop
vertex -7.510993958 -86.5313797 32.36581039
vertex -10.88311005 -86.99237823 29.57960129
vertex -6.512825012 -86.07255554 29.85488701

endloop
endfacet
facet normal -0.2072186768 -0.9444862604 -0.2549629509
outer loop
vertex -7.510993958 -86.5313797 32.36581039
vertex -6.512825012 -86.07255554 29.85488701
vertex 1.040245056 -88.00975037 30.89235878

endloop
endfacet
facet normal -0.2266098559 -0.9627048969 -0.1478081793
outer loop
vertex 1.040245056 -88.00975037 30.89235878
vertex -6.512825012 -86.07255554 29.85488701
vertex 0.7986369729 -87.62268066 28.74171257

endloop
endfacet
facet normal -0.7278344631 -0.6845002174 -0.04142876342
outer loop
vertex 1.040245056 -88.00975037 30.89235878
vertex 0.7986369729 -87.62268066 28.74171257
vertex 7.155799866 -94.42223358 29.401474

endloop
endfacet
facet normal 0 -0.09334070981 -0.9956341982
outer loop
vertex 7.155799866 -94.42223358 29.401474
vertex 0.7986369729 -87.62268066 28.74171257
vertex 7.155815125 -94.42223358 29.401474

endloop
endfacet
facet normal -0.131846115 -0.9912701845 0
outer loop
vertex -20.64870453 -88.99893188 19.51149178
vertex -20.64870453 -88.99893188 19.51148987
vertex -15.87107086 -89.63439178 24.12259674

endloop
endfacet
facet normal -0.03104835935 -0.9940069318 -0.1048151627
outer loop
vertex -15.87107086 -89.63439178 24.12259674
vertex -20.64870453 -88.99893188 19.51148987
vertex -12.49684906 -89.63965607 23.17300797

endloop
endfacet
facet normal 0.1015661508 -0.9250446558 0.3660283387
outer loop
vertex -15.87107086 -89.63439178 24.12259674
vertex -12.49684906 -89.63965607 23.17300797
vertex -15.18524933 -89.24817657 24.90835571

endloop
endfacet
facet normal 0.3409795463 -0.6535878778 0.6756891608
outer loop
vertex -15.18524933 -89.24817657 24.90835571
vertex -12.49684906 -89.63965607 23.17300797
vertex -11.69954681 -88.73677826 23.64400291

endloop
endfacet
facet normal -0.3440666497 0.6348856688 -0.6917646527
outer loop
vertex -15.18524933 -89.24817657 24.90835571
vertex -11.69954681 -88.73677826 23.64400291
vertex -15.4635849 -89.76927948 24.56853676

endloop
endfacet
facet normal 0.2944257259 -0.2465786338 0.9233160615
outer loop
vertex -15.4635849 -89.76927948 24.56853676
vertex -11.69954681 -88.73677826 23.64400291
vertex -11.74477386 -88.48823547 23.72480011

endloop
endfacet
facet normal 0.2641891539 -0.9315296412 -0.2499132007
outer loop
vertex -15.4635849 -89.76927948 24.56853676
vertex -11.74477386 -88.48823547 23.72480011
vertex -14.81473541 -89.89674377 25.72956276

endloop
endfacet
facet normal 0.4357370734 -0.8993786573 0.03537262976
outer loop
vertex -14.81473541 -89.89674377 25.72956276
vertex -11.74477386 -88.48823547 23.72480011
vertex -11.46977997 -88.32112885 24.5861187

endloop
endfacet
facet normal 0.4588540792 -0.8787353039 0.1314433366
outer loop
vertex -14.81473541 -89.89674377 25.72956276
vertex -11.46977997 -88.32112885 24.5861187
vertex -13.33545685 -88.80770874 27.84606743

endloop
endfacet
facet normal 0.5058683157 -0.8470553756 0.1630782187
outer loop
vertex -13.33545685 -88.80770874 27.84606743
vertex -11.46977997 -88.32112885 24.5861187
vertex -10.77687836 -87.64056396 25.97170639

endloop
endfacet
facet normal 0.5077485442 -0.8452041149 0.1667976081
outer loop
vertex -13.33545685 -88.80770874 27.84606743
vertex -10.77687836 -87.64056396 25.97170639
vertex -10.88311005 -86.99237823 29.57960129

endloop
endfacet
facet normal 0.3872384429 -0.9053995013 0.1740638316
outer loop
vertex -10.88311005 -86.99237823 29.57960129
vertex -10.77687836 -87.64056396 25.97170639
vertex -9.179359436 -86.73708344 27.11720657

endloop
endfacet
facet normal 0.2034276277 -0.9782998562 0.03932555392
outer loop
vertex -10.88311005 -86.99237823 29.57960129
vertex -9.179359436 -86.73708344 27.11720657
vertex -6.512825012 -86.07255554 29.85488701

endloop
endfacet
facet normal 0.04490127042 -0.9799472094 0.19413203
outer loop
vertex -6.512825012 -86.07255554 29.85488701
vertex -9.179359436 -86.73708344 27.11720657
vertex -5.663428783 -86.54178619 27.28982735

endloop
endfacet
facet normal -0.1891119033 -0.9751088619 0.1157555878
outer loop
vertex -6.512825012 -86.07255554 29.85488701
vertex -5.663428783 -86.54178619 27.28982735
vertex 0.7986369729 -87.62268066 28.74171257

endloop
endfacet
facet normal -0.1395035237 -0.9839131236 -0.1115965247
outer loop
vertex 0.7986369729 -87.62268066 28.74171257
vertex -5.663428783 -86.54178619 27.28982735
vertex 0.3924790025 -87.33381653 26.70261002

endloop
endfacet
facet normal -0.7319658399 -0.6795386076 0.04953132197
outer loop
vertex 0.7986369729 -87.62268066 28.74171257
vertex 0.3924790025 -87.33381653 26.70261002
vertex 7.155815125 -94.42223358 29.401474

endloop
endfacet
facet normal 0 0.3546542227 0.9349975586
outer loop
vertex 7.155815125 -94.42223358 29.401474
vertex 0.3924790025 -87.33381653 26.70261002
vertex 7.155799866 -94.42223358 29.401474

endloop
endfacet
facet normal -0.4140068889 -0.2207738161 0.8830952644
outer loop
vertex -20.64870453 -88.99893188 19.51148987
vertex -20.64870453 -88.99893951 19.51148796
vertex -12.49684906 -89.63965607 23.17300797

endloop
endfacet
facet normal -0.06883301586 -0.9974011779 -0.0212847665
outer loop
vertex -12.49684906 -89.63965607 23.17300797
vertex -20.64870453 -88.99893951 19.51148796
vertex -10.6235733 -89.72741699 21.22746849

endloop
endfacet
facet normal 0.4958496392 -0.7034797668 0.5091652274
outer loop
vertex -12.49684906 -89.63965607 23.17300797
vertex -10.6235733 -89.72741699 21.22746849
vertex -11.69954681 -88.73677826 23.64400291

endloop
endfacet
facet normal 0.433142662 -0.7497758865 0.5002233982
outer loop
vertex -11.69954681 -88.73677826 23.64400291
vertex -10.6235733 -89.72741699 21.22746849
vertex -9.983909607 -89.28484344 21.3369503

endloop
endfacet
facet normal 0.7954725623 -0.05153236911 0.6037943959
outer loop
vertex -11.69954681 -88.73677826 23.64400291
vertex -9.983909607 -89.28484344 21.3369503
vertex -11.74477386 -88.48823547 23.72480011

endloop
endfacet
facet normal 0.1358285397 -0.9054125547 0.4022172391
outer loop
vertex -11.74477386 -88.48823547 23.72480011
vertex -9.983909607 -89.28484344 21.3369503
vertex -9.756523132 -89.08532715 21.70928383

endloop
endfacet
facet normal -0.07626082003 -0.9740022421 0.2133165449
outer loop
vertex -11.74477386 -88.48823547 23.72480011
vertex -9.756523132 -89.08532715 21.70928383
vertex -11.46977997 -88.32112885 24.5861187

endloop
endfacet
facet normal -0.04574625194 -0.9718945622 0.2309291363
outer loop
vertex -11.46977997 -88.32112885 24.5861187
vertex -9.756523132 -89.08532715 21.70928383
vertex -9.339729309 -88.92051697 22.48547363

endloop
endfacet
facet normal 0.1242307276 -0.9137962461 0.3867080808
outer loop
vertex -11.46977997 -88.32112885 24.5861187
vertex -9.339729309 -88.92051697 22.48547363
vertex -10.77687836 -87.64056396 25.97170639

endloop
endfacet
facet normal 0.06137973443 -0.9285093546 0.3662004769
outer loop
vertex -10.77687836 -87.64056396 25.97170639
vertex -9.339729309 -88.92051697 22.48547363
vertex -8.699028015 -88.52424622 23.3828373

endloop
endfacet
facet normal 0.1788395196 -0.878328383 0.4433460832
outer loop
vertex -10.77687836 -87.64056396 25.97170639
vertex -8.699028015 -88.52424622 23.3828373
vertex -9.179359436 -86.73708344 27.11720657

endloop
endfacet
facet normal -0.005716969259 -0.9022965431 0.4310780764
outer loop
vertex -9.179359436 -86.73708344 27.11720657
vertex -8.699028015 -88.52424622 23.3828373
vertex -7.444939137 -88.18991089 24.09927177

endloop
endfacet
facet normal 0.02775687352 -0.89435637 0.446493268
outer loop
vertex -9.179359436 -86.73708344 27.11720657
vertex -7.444939137 -88.18991089 24.09927177
vertex -5.663428783 -86.54178619 27.28982735

endloop
endfacet
facet normal -0.1481058449 -0.8425158858 0.5179108381
outer loop
vertex -5.663428783 -86.54178619 27.28982735
vertex -7.444939137 -88.18991089 24.09927177
vertex -4.791222095 -88.46216583 24.4152565

endloop
endfacet
facet normal -0.05699554086 -0.8380663395 0.5425830483
outer loop
vertex -5.663428783 -86.54178619 27.28982735
vertex -4.791222095 -88.46216583 24.4152565
vertex 0.3924790025 -87.33381653 26.70261002

endloop
endfacet
facet normal -0.0742958039 -0.8172255158 0.571508944
outer loop
vertex 0.3924790025 -87.33381653 26.70261002
vertex -4.791222095 -88.46216583 24.4152565
vertex -0.01003300026 -88.91000366 24.39642525

endloop
endfacet
facet normal -0.7204807401 -0.5074967742 0.4726039469
outer loop
vertex 0.3924790025 -87.33381653 26.70261002
vertex -0.01003300026 -88.91000366 24.39642525
vertex 7.155799866 -94.42223358 29.401474

endloop
endfacet
facet normal 0 0.6896551847 0.7241379023
outer loop
vertex 7.155799866 -94.42223358 29.401474
vertex -0.01003300026 -88.91000366 24.39642525
vertex 7.155785084 -94.42223358 29.401474

endloop
endfacet
facet normal 0.07247404009 0.9973702431 0
outer loop
vertex -20.64870453 -88.99893951 19.51148796
vertex -20.64870453 -88.99893951 19.51148987
vertex -10.6235733 -89.72741699 21.22746849

endloop
endfacet
facet normal -0.07830826938 -0.9963311553 0.03452596813
outer loop
vertex -10.6235733 -89.72741699 21.22746849
vertex -20.64870453 -88.99893951 19.51148987
vertex -10.14325714 -89.84793091 18.83914757

endloop
endfacet
facet normal 0.5448049903 -0.824821353 0.1511861831
outer loop
vertex -10.6235733 -89.72741699 21.22746849
vertex -10.14325714 -89.84793091 18.83914757
vertex -9.983909607 -89.28484344 21.3369503

endloop
endfacet
facet normal -0.5704671741 -0.7926574945 0.2150842547
outer loop
vertex -9.983909607 -89.28484344 21.3369503
vertex -10.14325714 -89.84793091 18.83914757
vertex -9.317436218 -90.51838684 18.55861473

endloop
endfacet
facet normal 0.09728670865 -0.9007671475 0.4232657552
outer loop
vertex -9.983909607 -89.28484344 21.3369503
vertex -9.317436218 -90.51838684 18.55861473
vertex -9.756523132 -89.08532715 21.70928383

endloop
endfacet
facet normal -0.7007037401 -0.6811727881 0.2121744305
outer loop
vertex -9.756523132 -89.08532715 21.70928383
vertex -9.317436218 -90.51838684 18.55861473
vertex -8.634681702 -91.05473328 19.09149742

endloop
endfacet
facet normal -0.4455528259 -0.7966707945 0.4084093571
outer loop
vertex -9.756523132 -89.08532715 21.70928383
vertex -8.634681702 -91.05473328 19.09149742
vertex -9.339729309 -88.92051697 22.48547363

endloop
endfacet
facet normal -0.6459277868 -0.6995202303 0.305693835
outer loop
vertex -9.339729309 -88.92051697 22.48547363
vertex -8.634681702 -91.05473328 19.09149742
vertex -7.777901173 -91.38235474 20.15216827

endloop
endfacet
facet normal -0.3331928849 -0.7513071299 0.5696666837
outer loop
vertex -9.339729309 -88.92051697 22.48547363
vertex -7.777901173 -91.38235474 20.15216827
vertex -8.699028015 -88.52424622 23.3828373

endloop
endfacet
facet normal -0.5837218761 -0.6835163236 0.4382627904
outer loop
vertex -8.699028015 -88.52424622 23.3828373
vertex -7.777901173 -91.38235474 20.15216827
vertex -6.870566845 -91.49053192 21.19193268

endloop
endfacet
facet normal -0.2284465581 -0.6655901074 0.7104941607
outer loop
vertex -8.699028015 -88.52424622 23.3828373
vertex -6.870566845 -91.49053192 21.19193268
vertex -7.444939137 -88.18991089 24.09927177

endloop
endfacet
facet normal -0.4288542867 -0.6379920244 0.6395702958
outer loop
vertex -7.444939137 -88.18991089 24.09927177
vertex -6.870566845 -91.49053192 21.19193268
vertex -5.773537159 -91.59135437 21.8269558

endloop
endfacet
facet normal -0.1550126076 -0.60031569 0.7845968008
outer loop
vertex -7.444939137 -88.18991089 24.09927177
vertex -5.773537159 -91.59135437 21.8269558
vertex -4.791222095 -88.46216583 24.4152565

endloop
endfacet
facet normal -0.1880503297 -0.5902728438 0.7849936485
outer loop
vertex -4.791222095 -88.46216583 24.4152565
vertex -5.773537159 -91.59135437 21.8269558
vertex -3.958244085 -91.92717743 22.00930023

endloop
endfacet
facet normal -0.05091581121 -0.5778372884 0.8145622015
outer loop
vertex -4.791222095 -88.46216583 24.4152565
vertex -3.958244085 -91.92717743 22.00930023
vertex -0.01003300026 -88.91000366 24.39642525

endloop
endfacet
facet normal -0.1226064786 -0.5121439695 0.8501036167
outer loop
vertex -0.01003300026 -88.91000366 24.39642525
vertex -3.958244085 -91.92717743 22.00930023
vertex -0.3835679889 -92.1554718 22.38732338

endloop
endfacet
facet normal -0.695211947 -0.3188012838 0.644240737
outer loop
vertex -0.01003300026 -88.91000366 24.39642525
vertex -0.3835679889 -92.1554718 22.38732338
vertex 7.155785084 -94.42223358 29.401474

endloop
endfacet
facet normal 0 -0.9486833215 -0.3162277639
outer loop
vertex 7.155785084 -94.42223358 29.401474
vertex -0.3835679889 -92.1554718 22.38732338
vertex 7.155799866 -94.42223358 29.401474

endloop
endfacet
facet normal -0.04244986549 0.242317006 -0.969268024
outer loop
vertex -20.64870453 -88.99893951 19.51148987
vertex -20.64870453 -88.99893188 19.51149178
vertex -10.14325714 -89.84793091 18.83914757

endloop
endfacet
facet normal -0.07554178685 -0.9943027496 0.07520230114
outer loop
vertex -10.14325714 -89.84793091 18.83914757
vertex -20.64870453 -88.99893188 19.51149178
vertex -10.16823578 -90.03507996 16.33962631

endloop
endfacet
facet normal -0.6155723333 -0.7853987813 0.06495755166
outer loop
vertex -10.14325714 -89.84793091 18.83914757
vertex -10.16823578 -90.03507996 16.33962631
vertex -9.317436218 -90.51838684 18.55861473

endloop
endfacet
facet normal -0.8048872948 -0.5635713339 0.1858593971
outer loop
vertex -9.317436218 -90.51838684 18.55861473
vertex -10.16823578 -90.03507996 16.33962631
vertex -8.882743835 -92.0894165 15.67735672

endloop
endfacet
facet normal -0.7114072442 -0.6565571427 0.2506639063
outer loop
vertex -9.317436218 -90.51838684 18.55861473
vertex -8.882743835 -92.0894165 15.67735672
vertex -8.634681702 -91.05473328 19.09149742

endloop
endfacet
facet normal -0.843552947 -0.4938754141 0.2109632194
outer loop
vertex -8.634681702 -91.05473328 19.09149742
vertex -8.882743835 -92.0894165 15.67735672
vertex -7.826026917 -93.57631683 16.42181396

endloop
endfacet
facet normal -0.6949736476 -0.6158336997 0.3711609542
outer loop
vertex -8.634681702 -91.05473328 19.09149742
vertex -7.826026917 -93.57631683 16.42181396
vertex -7.777901173 -91.38235474 20.15216827

endloop
endfacet
facet normal -0.8652833104 -0.4271337092 0.2623765767
outer loop
vertex -7.777901173 -91.38235474 20.15216827
vertex -7.826026917 -93.57631683 16.42181396
vertex -6.825539112 -94.63066864 18.00486755

endloop
endfacet
facet normal -0.6617532969 -0.5387037396 0.5214220285
outer loop
vertex -7.777901173 -91.38235474 20.15216827
vertex -6.825539112 -94.63066864 18.00486755
vertex -6.870566845 -91.49053192 21.19193268

endloop
endfacet
facet normal -0.8599711061 -0.3695553243 0.3519638479
outer loop
vertex -6.870566845 -91.49053192 21.19193268
vertex -6.825539112 -94.63066864 18.00486755
vertex -5.887671947 -95.3529129 19.53806305

endloop
endfacet
facet normal -0.4787924886 -0.4457189739 0.7563678026
outer loop
vertex -6.870566845 -91.49053192 21.19193268
vertex -5.887671947 -95.3529129 19.53806305
vertex -5.773537159 -91.59135437 21.8269558

endloop
endfacet
facet normal -0.7047654986 -0.3530547321 0.6153518558
outer loop
vertex -5.773537159 -91.59135437 21.8269558
vertex -5.887671947 -95.3529129 19.53806305
vertex -4.908042908 -95.82138062 20.39125633

endloop
endfacet
facet normal -0.1569345891 -0.3460592926 0.9249943495
outer loop
vertex -5.773537159 -91.59135437 21.8269558
vertex -4.908042908 -95.82138062 20.39125633
vertex -3.958244085 -91.92717743 22.00930023

endloop
endfacet
facet normal -0.1652219445 -0.3437898755 0.9243972301
outer loop
vertex -3.958244085 -91.92717743 22.00930023
vertex -4.908042908 -95.82138062 20.39125633
vertex -3.545128107 -96.11109161 20.52711105

endloop
endfacet
facet normal -0.1203970686 -0.3420366347 0.9319417477
outer loop
vertex -3.958244085 -91.92717743 22.00930023
vertex -3.545128107 -96.11109161 20.52711105
vertex -0.3835679889 -92.1554718 22.38732338

endloop
endfacet
facet normal -0.2089794874 -0.2743852735 0.938637495
outer loop
vertex -0.3835679889 -92.1554718 22.38732338
vertex -3.545128107 -96.11109161 20.52711105
vertex -0.6553270221 -96.19199371 21.14685059

endloop
endfacet
facet normal -0.6980267763 -0.1669951528 0.6963269114
outer loop
vertex -0.3835679889 -92.1554718 22.38732338
vertex -0.6553270221 -96.19199371 21.14685059
vertex 7.155799866 -94.42223358 29.401474

endloop
endfacet
facet normal 0.7098394632 0.09013833851 -0.6985721588
outer loop
vertex 7.155799866 -94.42223358 29.401474
vertex -0.6553270221 -96.19199371 21.14685059
vertex 7.155799866 -94.42222595 29.40147591

endloop
endfacet
facet normal 0.2390470803 -0.3521593213 0.9048979878
outer loop
vertex -20.64870453 -88.99893188 19.51149178
vertex -20.64871979 -88.99894714 19.51148987
vertex -10.16823578 -90.03507996 16.33962631

endloop
endfacet
facet normal -0.08317940682 -0.9952655435 0.05027540401
outer loop
vertex -10.16823578 -90.03507996 16.33962631
vertex -20.64871979 -88.99894714 19.51148987
vertex -10.67536163 -90.15413666 13.14372158

endloop
endfacet
facet normal -0.8155913949 -0.5587846637 0.1502343118
outer loop
vertex -10.16823578 -90.03507996 16.33962631
vertex -10.67536163 -90.15413666 13.14372158
vertex -8.882743835 -92.0894165 15.67735672

endloop
endfacet
facet normal -0.8671736121 -0.3765161335 0.3259533346
outer loop
vertex -8.882743835 -92.0894165 15.67735672
vertex -10.67536163 -90.15413666 13.14372158
vertex -9.246864319 -93.97871399 12.52627182

endloop
endfacet
facet normal -0.837513268 -0.420517385 0.3489078283
outer loop
vertex -8.882743835 -92.0894165 15.67735672
vertex -9.246864319 -93.97871399 12.52627182
vertex -7.826026917 -93.57631683 16.42181396

endloop
endfacet
facet normal -0.9131221771 -0.2023132294 0.3539451957
outer loop
vertex -7.826026917 -93.57631683 16.42181396
vertex -9.246864319 -93.97871399 12.52627182
vertex -8.128303528 -96.5931015 13.91761017

endloop
endfacet
facet normal -0.8848625422 -0.2418449074 0.3981574476
outer loop
vertex -7.826026917 -93.57631683 16.42181396
vertex -8.128303528 -96.5931015 13.91761017
vertex -6.825539112 -94.63066864 18.00486755

endloop
endfacet
facet normal -0.9514353275 -0.009269000962 0.3077089787
outer loop
vertex -6.825539112 -94.63066864 18.00486755
vertex -8.128303528 -96.5931015 13.91761017
vertex -7.361031055 -98.61185455 16.22920418

endloop
endfacet
facet normal -0.8689823747 -0.09933139384 0.4847708642
outer loop
vertex -6.825539112 -94.63066864 18.00486755
vertex -7.361031055 -98.61185455 16.22920418
vertex -5.887671947 -95.3529129 19.53806305

endloop
endfacet
facet normal -0.9312531948 0.05535794795 0.3601429164
outer loop
vertex -5.887671947 -95.3529129 19.53806305
vertex -7.361031055 -98.61185455 16.22920418
vertex -6.606850147 -100.0286484 18.39713287

endloop
endfacet
facet normal -0.6751208901 -0.07522930205 0.7338613272
outer loop
vertex -5.887671947 -95.3529129 19.53806305
vertex -6.606850147 -100.0286484 18.39713287
vertex -4.908042908 -95.82138062 20.39125633

endloop
endfacet
facet normal -0.7913256884 0.03008846752 0.6106540561
outer loop
vertex -4.908042908 -95.82138062 20.39125633
vertex -6.606850147 -100.0286484 18.39713287
vertex -5.546150208 -100.8210907 19.81070328

endloop
endfacet
facet normal -0.1196039021 -0.09943921864 0.9878293276
outer loop
vertex -4.908042908 -95.82138062 20.39125633
vertex -5.546150208 -100.8210907 19.81070328
vertex -3.545128107 -96.11109161 20.52711105

endloop
endfacet
facet normal -0.3664703965 0.01418805961 0.9303215742
outer loop
vertex -3.545128107 -96.11109161 20.52711105
vertex -5.546150208 -100.8210907 19.81070328
vertex -3.904227972 -101.1660995 20.46274757

endloop
endfacet
facet normal -0.2096237093 0.002441654447 0.97777915
outer loop
vertex -3.545128107 -96.11109161 20.52711105
vertex -3.904227972 -101.1660995 20.46274757
vertex -0.6553270221 -96.19199371 21.14685059

endloop
endfacet
facet normal -0.2069011778 0.0005832741153 0.9783616662
outer loop
vertex -0.6553270221 -96.19199371 21.14685059
vertex -3.904227972 -101.1660995 20.46274757
vertex -0.6830059886 -101.019455 21.14387512

endloop
endfacet
facet normal -0.7267453671 0.003743525594 0.6868967414
outer loop
vertex -0.6553270221 -96.19199371 21.14685059
vertex -0.6830059886 -101.019455 21.14387512
vertex 7.155799866 -94.42222595 29.40147591

endloop
endfacet
facet normal -0.6190476418 -0.190476194 0.7619047761
outer loop
vertex 7.155799866 -94.42222595 29.40147591
vertex -0.6830059886 -101.019455 21.14387512
vertex 7.155799866 -94.42224121 29.40147209

endloop
endfacet
facet normal -0.3386188447 0.6772376895 -0.6532123685
outer loop
vertex -20.64871979 -88.99894714 19.51148987
vertex -20.64870453 -88.99893951 19.51148987
vertex -10.67536163 -90.15413666 13.14372158

endloop
endfacet
facet normal -0.1093415469 -0.9939628839 0.009064765647
outer loop
vertex -10.67536163 -90.15413666 13.14372158
vertex -20.64870453 -88.99893951 19.51148987
vertex -19.3864975 -89.25850677 6.274682999

endloop
endfacet
facet normal -0.6033352613 -0.3416813016 0.7205833793
outer loop
vertex -10.67536163 -90.15413666 13.14372158
vertex -19.3864975 -89.25850677 6.274682999
vertex -9.246864319 -93.97871399 12.52627182

endloop
endfacet
facet normal -0.4724373519 0.138041541 0.8704869747
outer loop
vertex -9.246864319 -93.97871399 12.52627182
vertex -19.3864975 -89.25850677 6.274682999
vertex -18.78731537 -98.08742523 7.999962807

endloop
endfacet
facet normal -0.4968025684 0.2324350476 0.8361585736
outer loop
vertex -9.246864319 -93.97871399 12.52627182
vertex -18.78731537 -98.08742523 7.999962807
vertex -8.128303528 -96.5931015 13.91761017

endloop
endfacet
facet normal -0.478060782 0.4689087272 0.7426859736
outer loop
vertex -8.128303528 -96.5931015 13.91761017
vertex -18.78731537 -98.08742523 7.999962807
vertex -17.72623444 -103.8102036 12.29615498

endloop
endfacet
facet normal -0.5227261186 0.5485553741 0.6525675654
outer loop
vertex -8.128303528 -96.5931015 13.91761017
vertex -17.72623444 -103.8102036 12.29615498
vertex -7.361031055 -98.61185455 16.22920418

endloop
endfacet
facet normal -0.532022059 0.6529975533 0.5390238762
outer loop
vertex -7.361031055 -98.61185455 16.22920418
vertex -17.72623444 -103.8102036 12.29615498
vertex -16.43868256 -106.9283218 17.34440994

endloop
endfacet
facet normal -0.5057744384 0.6309544444 0.5882930756
outer loop
vertex -7.361031055 -98.61185455 16.22920418
vertex -16.43868256 -106.9283218 17.34440994
vertex -6.606850147 -100.0286484 18.39713287

endloop
endfacet
facet normal -0.5490791202 0.7168641686 0.4296718836
outer loop
vertex -6.606850147 -100.0286484 18.39713287
vertex -16.43868256 -106.9283218 17.34440994
vertex -14.67189789 -108.578743 22.35575104

endloop
endfacet
facet normal -0.3773486316 0.6577604413 0.6518889666
outer loop
vertex -6.606850147 -100.0286484 18.39713287
vertex -14.67189789 -108.578743 22.35575104
vertex -5.546150208 -100.8210907 19.81070328

endloop
endfacet
facet normal -0.4699209332 0.7202225924 0.5103466511
outer loop
vertex -5.546150208 -100.8210907 19.81070328
vertex -14.67189789 -108.578743 22.35575104
vertex -11.80112457 -109.5531693 26.37427521

endloop
endfacet
facet normal -0.1526674479 0.6613569856 0.734370172
outer loop
vertex -5.546150208 -100.8210907 19.81070328
vertex -11.80112457 -109.5531693 26.37427521
vertex -3.904227972 -101.1660995 20.46274757

endloop
endfacet
facet normal -0.1963196844 0.681650281 0.7048486471
outer loop
vertex -3.904227972 -101.1660995 20.46274757
vertex -11.80112457 -109.5531693 26.37427521
vertex -6.948462963 -110.1609344 28.31363678

endloop
endfacet
facet normal -0.1810706705 0.6807754636 0.709759295
outer loop
vertex -3.904227972 -101.1660995 20.46274757
vertex -6.948462963 -110.1609344 28.31363678
vertex -0.6830059886 -101.019455 21.14387512

endloop
endfacet
facet normal -0.002980260178 0.6183996797 0.7858581543
outer loop
vertex -0.6830059886 -101.019455 21.14387512
vertex -6.948462963 -110.1609344 28.31363678
vertex 0.6423869729 -109.7064056 27.98475075

endloop
endfacet
facet normal -0.7991831303 0.2918683887 0.5254704356
outer loop
vertex -0.6830059886 -101.019455 21.14387512
vertex 0.6423869729 -109.7064056 27.98475075
vertex 7.155799866 -94.42224121 29.40147209

endloop
endfacet
facet normal -0.3713907003 0.2599734962 -0.8913376331
outer loop
vertex 7.155799866 -94.42224121 29.40147209
vertex 0.6423869729 -109.7064056 27.98475075
vertex 7.155799866 -94.42223358 29.401474

endloop
endfacet
endsolid
