solid 
facet normal 0.417687 0.357335 -0.835374
outer loop
vertex 48.1556015 -56.32854462 94.04017639
vertex 48.15561676 -56.32854462 94.04018402
vertex 58.15784454 -72.94489288 91.93358612

endloop
endfacet
facet normal 0.7797379494 0.4092964828 0.4737986624
outer loop
vertex 58.15784454 -72.94489288 91.93358612
vertex 48.15561676 -56.32854462 94.04018402
vertex 53.24703217 -71.3243866 98.61549377

endloop
endfacet
facet normal 0.04562013969 0.9779797196 -0.203652963
outer loop
vertex 58.15784454 -72.94489288 91.93358612
vertex 53.24703217 -71.3243866 98.61549377
vertex 67.16243744 -71.53744507 100.7095261

endloop
endfacet
facet normal 0.06151337177 0.9479833841 -0.3123197556
outer loop
vertex 67.16243744 -71.53744507 100.7095261
vertex 53.24703217 -71.3243866 98.61549377
vertex 59.21971893 -69.32215881 105.8692093

endloop
endfacet
facet normal 0.0680314824 0.9504492283 -0.3033446372
outer loop
vertex 67.16243744 -71.53744507 100.7095261
vertex 59.21971893 -69.32215881 105.8692093
vertex 72.62865448 -69.03977966 109.7612076

endloop
endfacet
facet normal 0.0756508708 0.9413182735 -0.328932941
outer loop
vertex 72.62865448 -69.03977966 109.7612076
vertex 59.21971893 -69.32215881 105.8692093
vertex 63.23911285 -66.96409607 113.5417709

endloop
endfacet
facet normal 0.03888292611 0.9134995341 -0.4049775004
outer loop
vertex 72.62865448 -69.03977966 109.7612076
vertex 63.23911285 -66.96409607 113.5417709
vertex 76.30458832 -64.86386871 119.5336609

endloop
endfacet
facet normal -0.02482250705 0.9590806365 -0.2820428312
outer loop
vertex 76.30458832 -64.86386871 119.5336609
vertex 63.23911285 -66.96409607 113.5417709
vertex 66.41222382 -64.30302429 122.3114243

endloop
endfacet
facet normal -0.09710329771 0.8501764536 -0.5174659491
outer loop
vertex 76.30458832 -64.86386871 119.5336609
vertex 66.41222382 -64.30302429 122.3114243
vertex 78.7811203 -58.0812912 130.2124481

endloop
endfacet
facet normal -0.165397048 0.8840221763 -0.4372054935
outer loop
vertex 78.7811203 -58.0812912 130.2124481
vertex 66.41222382 -64.30302429 122.3114243
vertex 68.49355316 -59.05550385 132.1344452

endloop
endfacet
facet normal -0.1892153472 0.7517208457 -0.6317541599
outer loop
vertex 78.7811203 -58.0812912 130.2124481
vertex 68.49355316 -59.05550385 132.1344452
vertex 79.35088348 -48.98468781 140.865799

endloop
endfacet
facet normal -0.2009706497 0.7563735247 -0.6225030422
outer loop
vertex 79.35088348 -48.98468781 140.865799
vertex 68.49355316 -59.05550385 132.1344452
vertex 69.11458588 -51.04602814 141.6658783

endloop
endfacet
facet normal -0.1879548132 0.6462996006 -0.7395741343
outer loop
vertex 79.35088348 -48.98468781 140.865799
vertex 69.11458588 -51.04602814 141.6658783
vertex 77.56017303 -38.61347198 150.3840942

endloop
endfacet
facet normal -0.1419720054 0.6311687827 -0.7625417709
outer loop
vertex 77.56017303 -38.61347198 150.3840942
vertex 69.11458588 -51.04602814 141.6658783
vertex 68.05968475 -41.35538483 149.8833923

endloop
endfacet
facet normal -0.1090969741 0.5314146876 -0.8400571942
outer loop
vertex 77.56017303 -38.61347198 150.3840942
vertex 68.05968475 -41.35538483 149.8833923
vertex 73.66265106 -27.87673187 157.682251

endloop
endfacet
facet normal -0.05713874102 0.5176868439 -0.8536600471
outer loop
vertex 73.66265106 -27.87673187 157.682251
vertex 68.05968475 -41.35538483 149.8833923
vertex 65.1333847 -31.05628204 156.3249664

endloop
endfacet
facet normal 0.0335271135 0.3149623871 -0.9485117793
outer loop
vertex 73.66265106 -27.87673187 157.682251
vertex 65.1333847 -31.05628204 156.3249664
vertex 67.95861053 -16.42176056 161.2843628

endloop
endfacet
facet normal 0.009986564517 0.3192088008 -0.9476317763
outer loop
vertex 67.95861053 -16.42176056 161.2843628
vertex 65.1333847 -31.05628204 156.3249664
vertex 59.82431793 -20.09978485 159.9597015

endloop
endfacet
facet normal 0.148054406 0.02860064805 -0.9885655046
outer loop
vertex 67.95861053 -16.42177582 161.2843628
vertex 59.82430267 -20.09981537 159.9597015
vertex 60.55466461 -3.424431086 160.5515289

endloop
endfacet
facet normal 0.09626945108 0.0310925059 -0.9948695302
outer loop
vertex 60.55466461 -3.424431086 160.5515289
vertex 59.82430267 -20.09981537 159.9597015
vertex 51.93109894 -8.39339447 159.5617676

endloop
endfacet
facet normal 0.5045385361 -0.8596686125 -0.08006703109
outer loop
vertex 60.55466461 -3.424416065 160.5515137
vertex 51.93109894 -8.39339447 159.5617676
vertex 54.88089752 -5.425133228 146.2799683

endloop
endfacet
facet normal -nan(ind) -nan(ind) -nan(ind)
outer loop
vertex 54.88089752 -5.425133228 146.2799683
vertex 51.93109894 -8.39339447 159.5617676
vertex 54.88089752 -5.425133228 146.2799683

endloop
endfacet
facet normal -0.4439723194 0.1201782674 0.8879446387
outer loop
vertex 48.15561676 -56.32854462 94.04018402
vertex 48.1556015 -56.32854462 94.04017639
vertex 53.24703217 -71.3243866 98.61549377

endloop
endfacet
facet normal 0.8782360554 0.3848123252 0.2839382291
outer loop
vertex 53.24703217 -71.3243866 98.61549377
vertex 48.1556015 -56.32854462 94.04017639
vertex 50.72031403 -68.19163513 102.185051

endloop
endfacet
facet normal 0.3193235397 0.812769115 -0.4872769713
outer loop
vertex 53.24703217 -71.3243866 98.61549377
vertex 50.72031403 -68.19163513 102.185051
vertex 59.21971893 -69.32215881 105.8692093

endloop
endfacet
facet normal 0.3445672989 0.7498278618 -0.5648288131
outer loop
vertex 59.21971893 -69.32215881 105.8692093
vertex 50.72031403 -68.19163513 102.185051
vertex 55.70702362 -66.17175293 107.9085922

endloop
endfacet
facet normal 0.4277486503 0.7764779925 -0.462723434
outer loop
vertex 59.21971893 -69.32215881 105.8692093
vertex 55.70702362 -66.17175293 107.9085922
vertex 63.23911285 -66.96409607 113.5417709

endloop
endfacet
facet normal 0.4257367551 0.7794216871 -0.4596193433
outer loop
vertex 63.23911285 -66.96409607 113.5417709
vertex 55.70702362 -66.17175293 107.9085922
vertex 59.19968414 -64.11876678 114.6252289

endloop
endfacet
facet normal 0.4515729845 0.795181632 -0.4046826661
outer loop
vertex 63.23911285 -66.96409607 113.5417709
vertex 59.19968414 -64.11876678 114.6252289
vertex 66.41222382 -64.30302429 122.3114243

endloop
endfacet
facet normal 0.4845558703 0.7580589652 -0.4365229011
outer loop
vertex 66.41222382 -64.30302429 122.3114243
vertex 59.19968414 -64.11876678 114.6252289
vertex 61.81253815 -61.24053192 122.5238876

endloop
endfacet
facet normal 0.4667583108 0.735150516 -0.491620183
outer loop
vertex 66.41222382 -64.30302429 122.3114243
vertex 61.81253815 -61.24053192 122.5238876
vertex 68.49355316 -59.05550385 132.1344452

endloop
endfacet
facet normal 0.4152180552 0.7811560035 -0.4662503302
outer loop
vertex 68.49355316 -59.05550385 132.1344452
vertex 61.81253815 -61.24053192 122.5238876
vertex 63.37641144 -56.64334869 131.6187134

endloop
endfacet
facet normal 0.387925148 0.6930266619 -0.6076415181
outer loop
vertex 68.49355316 -59.05550385 132.1344452
vertex 63.37641144 -56.64334869 131.6187134
vertex 69.11458588 -51.04602814 141.6658783

endloop
endfacet
facet normal 0.4124640226 0.6750872731 -0.6116621494
outer loop
vertex 69.11458588 -51.04602814 141.6658783
vertex 63.37641144 -56.64334869 131.6187134
vertex 64.51284027 -49.48967743 140.2805023

endloop
endfacet
facet normal 0.4106703699 0.6152938008 -0.6728769541
outer loop
vertex 69.11458588 -51.04602814 141.6658783
vertex 64.51284027 -49.48967743 140.2805023
vertex 68.05968475 -41.35538483 149.8833923

endloop
endfacet
facet normal 0.6022081375 0.485542804 -0.6337140203
outer loop
vertex 68.05968475 -41.35538483 149.8833923
vertex 64.51284027 -49.48967743 140.2805023
vertex 64.80620575 -40.2455368 147.6420135

endloop
endfacet
facet normal 0.5944254994 0.5410081148 -0.5949525237
outer loop
vertex 68.05968475 -41.35538483 149.8833923
vertex 64.80620575 -40.2455368 147.6420135
vertex 65.1333847 -31.05628204 156.3249664

endloop
endfacet
facet normal 0.7207980156 0.4623211622 -0.5164391994
outer loop
vertex 65.1333847 -31.05628204 156.3249664
vertex 64.80620575 -40.2455368 147.6420135
vertex 62.74744415 -30.2853775 153.6850128

endloop
endfacet
facet normal 0.7081083059 0.5063728094 -0.4921068549
outer loop
vertex 65.1333847 -31.05628204 156.3249664
vertex 62.74744415 -30.2853775 153.6850128
vertex 59.82431793 -20.09978485 159.9597015

endloop
endfacet
facet normal 0.6982465386 0.5099080205 -0.5024395585
outer loop
vertex 59.82431793 -20.09978485 159.9597015
vertex 62.74744415 -30.2853775 153.6850128
vertex 57.63488007 -19.97490692 157.0437469

endloop
endfacet
facet normal 0.7170633078 0.4658655524 -0.5184491277
outer loop
vertex 59.82430267 -20.09981537 159.9597015
vertex 57.63486481 -19.97492218 157.0437317
vertex 51.93109894 -8.39339447 159.5617676

endloop
endfacet
facet normal 0.5764253139 0.4343668222 -0.6921411753
outer loop
vertex 51.93109894 -8.39339447 159.5617676
vertex 57.63486481 -19.97492218 157.0437317
vertex 49.68756866 -10.04793453 156.6549835

endloop
endfacet
facet normal 0.6231066585 -0.7812977433 -0.03621924296
outer loop
vertex 51.93109894 -8.39339447 159.5617676
vertex 49.68756866 -10.04792023 156.6549835
vertex 54.88089752 -5.425133228 146.2799683

endloop
endfacet
facet normal -0.2817598879 0.9194269776 0.2743451595
outer loop
vertex 54.88089752 -5.425133228 146.2799683
vertex 49.68756866 -10.04792023 156.6549835
vertex 54.88091278 -5.425133228 146.2799835

endloop
endfacet
facet normal -nan(ind) -nan(ind) -nan(ind)
outer loop
vertex 48.1556015 -56.32854462 94.04017639
vertex 48.1556015 -56.32854462 94.04017639
vertex 50.72031403 -68.19163513 102.185051

endloop
endfacet
facet normal 0.9463370442 0.295083344 0.1318028271
outer loop
vertex 50.72031403 -68.19163513 102.185051
vertex 48.1556015 -56.32854462 94.04017639
vertex 49.26226044 -64.4526062 104.2827682

endloop
endfacet
facet normal 0.5141410232 0.5633460879 -0.6467612386
outer loop
vertex 50.72031403 -68.19163513 102.185051
vertex 49.26226044 -64.4526062 104.2827682
vertex 55.70702362 -66.17175293 107.9085922

endloop
endfacet
facet normal 0.5247520208 0.4692645371 -0.7102296352
outer loop
vertex 55.70702362 -66.17175293 107.9085922
vertex 49.26226044 -64.4526062 104.2827682
vertex 53.68080902 -62.67819977 108.7197952

endloop
endfacet
facet normal 0.6848294735 0.5165420771 -0.5139968991
outer loop
vertex 55.70702362 -66.17175293 107.9085922
vertex 53.68080902 -62.67819977 108.7197952
vertex 59.19968414 -64.11876678 114.6252289

endloop
endfacet
facet normal 0.6595589519 0.5832748413 -0.4741017818
outer loop
vertex 59.19968414 -64.11876678 114.6252289
vertex 53.68080902 -62.67819977 108.7197952
vertex 56.74716949 -61.08167267 114.9498062

endloop
endfacet
facet normal 0.6754023433 0.5923461914 -0.4392694235
outer loop
vertex 59.19968414 -64.11876678 114.6252289
vertex 56.74716949 -61.08167267 114.9498062
vertex 61.81253815 -61.24053192 122.5238876

endloop
endfacet
facet normal 0.731792748 0.484567672 -0.4792425632
outer loop
vertex 61.81253815 -61.24053192 122.5238876
vertex 56.74716949 -61.08167267 114.9498062
vertex 59.31855011 -57.95241547 122.0402756

endloop
endfacet
facet normal 0.7596383691 0.5184212923 -0.3926689327
outer loop
vertex 61.81253815 -61.24053192 122.5238876
vertex 59.31855011 -57.95241547 122.0402756
vertex 63.37641144 -56.64334869 131.6187134

endloop
endfacet
facet normal 0.7364766598 0.5542964935 -0.3877595961
outer loop
vertex 63.37641144 -56.64334869 131.6187134
vertex 59.31855011 -57.95241547 122.0402756
vertex 60.54546356 -53.71797943 130.4236298

endloop
endfacet
facet normal 0.7158960104 0.4893231094 -0.4980520308
outer loop
vertex 63.37641144 -56.64334869 131.6187134
vertex 60.54546356 -53.71797943 130.4236298
vertex 64.51284027 -49.48967743 140.2805023

endloop
endfacet
facet normal 0.7177191973 0.4869400859 -0.4977635443
outer loop
vertex 64.51284027 -49.48967743 140.2805023
vertex 60.54546356 -53.71797943 130.4236298
vertex 62.02198029 -47.47652435 138.6583405

endloop
endfacet
facet normal 0.7095487714 0.4250486791 -0.5620268583
outer loop
vertex 64.51284027 -49.48967743 140.2805023
vertex 62.02198029 -47.47652435 138.6583405
vertex 64.80620575 -40.2455368 147.6420135

endloop
endfacet
facet normal 0.8223074079 0.2909513712 -0.4890376925
outer loop
vertex 64.80620575 -40.2455368 147.6420135
vertex 62.02198029 -47.47652435 138.6583405
vertex 63.24037933 -39.02733612 145.7338715

endloop
endfacet
facet normal 0.8153267503 0.4140706062 -0.4047072828
outer loop
vertex 64.80620575 -40.2455368 147.6420135
vertex 63.24037933 -39.02733612 145.7338715
vertex 62.74744415 -30.2853775 153.6850128

endloop
endfacet
facet normal 0.8756113648 0.3510892093 -0.3317243457
outer loop
vertex 62.74744415 -30.2853775 153.6850128
vertex 63.24037933 -39.02733612 145.7338715
vertex 61.54676056 -29.41106415 151.4410706

endloop
endfacet
facet normal 0.8316934109 0.494596839 -0.2523095012
outer loop
vertex 62.74744415 -30.2853775 153.6850128
vertex 61.54676056 -29.41106415 151.4410706
vertex 57.63488007 -19.97490692 157.0437469

endloop
endfacet
facet normal 0.8580578566 0.4736139178 -0.1985614449
outer loop
vertex 57.63488007 -19.97490692 157.0437469
vertex 61.54676056 -29.41106415 151.4410706
vertex 56.8330307 -19.56577301 154.5545349

endloop
endfacet
facet normal 0.7748150826 0.6144787073 -0.1485850513
outer loop
vertex 57.63486481 -19.97492218 157.0437317
vertex 56.8330307 -19.56577301 154.5545197
vertex 49.68756866 -10.04793453 156.6549835

endloop
endfacet
facet normal 0.7444528937 0.6158248186 -0.2579723597
outer loop
vertex 49.68756866 -10.04793453 156.6549835
vertex 56.8330307 -19.56577301 154.5545197
vertex 49.41542816 -10.79685211 154.0818481

endloop
endfacet
facet normal 0.7680014968 -0.6321493387 0.1027666479
outer loop
vertex 49.68756866 -10.04792023 156.6549835
vertex 49.41542816 -10.79685211 154.0818481
vertex 54.88091278 -5.425133228 146.2799835

endloop
endfacet
facet normal 0.3446677625 -0.8698757887 -0.3528741598
outer loop
vertex 54.88091278 -5.425133228 146.2799835
vertex 49.41542816 -10.79685211 154.0818481
vertex 54.88089752 -5.425133228 146.2799683

endloop
endfacet
facet normal -0 -0.7834743261 -0.6214240789
outer loop
vertex 48.15558624 -56.32854462 94.04017639
vertex 48.15561676 -56.32854462 94.04017639
vertex 49.26224518 -64.4526062 104.2827682

endloop
endfacet
facet normal 0.9827417731 0.1811423004 0.03749842942
outer loop
vertex 49.26224518 -64.4526062 104.2827682
vertex 48.15561676 -56.32854462 94.04017639
vertex 48.50382233 -60.52117157 105.1677322

endloop
endfacet
facet normal 0.6201248169 0.2842239141 -0.7312058806
outer loop
vertex 49.26224518 -64.4526062 104.2827682
vertex 48.50382233 -60.52117157 105.1677322
vertex 53.68079376 -62.67819977 108.7197952

endloop
endfacet
facet normal 0.617790401 0.2615585625 -0.7415673733
outer loop
vertex 53.68079376 -62.67819977 108.7197952
vertex 48.50382233 -60.52117157 105.1677322
vertex 52.42990875 -59.25325775 108.8857117

endloop
endfacet
facet normal 0.8145881891 0.3209172189 -0.4831751287
outer loop
vertex 53.68079376 -62.67819977 108.7197952
vertex 52.42990875 -59.25325775 108.8857117
vertex 56.74716949 -61.08167267 114.9498062

endloop
endfacet
facet normal 0.792051971 0.428640306 -0.4346506894
outer loop
vertex 56.74716949 -61.08167267 114.9498062
vertex 52.42990875 -59.25325775 108.8857117
vertex 55.00894928 -57.91309357 114.9070587

endloop
endfacet
facet normal 0.7776687741 0.420306474 -0.4675186574
outer loop
vertex 56.74716949 -61.08167267 114.9498062
vertex 55.00894928 -57.91309357 114.9070587
vertex 59.31855011 -57.95243073 122.0402679

endloop
endfacet
facet normal 0.8161563873 0.3039773107 -0.491412878
outer loop
vertex 59.31855011 -57.95243073 122.0402679
vertex 55.00894928 -57.91309357 114.9070587
vertex 57.69669342 -54.74571991 121.3302307

endloop
endfacet
facet normal 0.8730816841 0.3717132211 -0.3155278265
outer loop
vertex 59.31855011 -57.95243073 122.0402679
vertex 57.69669342 -54.74571991 121.3302307
vertex 60.5454483 -53.71797943 130.4236298

endloop
endfacet
facet normal 0.9141092896 0.2550596595 -0.3151966035
outer loop
vertex 60.5454483 -53.71797943 130.4236298
vertex 57.69669342 -54.74571991 121.3302307
vertex 59.1652298 -50.72589874 128.842041

endloop
endfacet
facet normal 0.9086840749 0.2377794236 -0.3431532979
outer loop
vertex 60.5454483 -53.71797943 130.4236298
vertex 59.1652298 -50.72589874 128.842041
vertex 62.02194977 -47.47652435 138.6583252

endloop
endfacet
facet normal 0.905990541 0.2454132736 -0.3448963761
outer loop
vertex 62.02194977 -47.47652435 138.6583252
vertex 59.1652298 -50.72589874 128.842041
vertex 60.66240692 -45.26177216 136.6629333

endloop
endfacet
facet normal 0.8983925581 0.198522836 -0.3917647898
outer loop
vertex 62.02194977 -47.47652435 138.6583252
vertex 60.66240692 -45.26177216 136.6629333
vertex 63.24033356 -39.02733612 145.7338562

endloop
endfacet
facet normal 0.8756294847 0.244208768 -0.4166954756
outer loop
vertex 63.24033356 -39.02733612 145.7338562
vertex 60.66240692 -45.26177216 136.6629333
vertex 61.88947296 -37.674263 143.6881866

endloop
endfacet
facet normal 0.8707459569 0.3551824689 -0.3400689065
outer loop
vertex 63.24033356 -39.02733612 145.7338562
vertex 61.88947296 -37.674263 143.6881866
vertex 61.5467453 -29.41106415 151.4410706

endloop
endfacet
facet normal 0.9229847789 0.2829821706 -0.2608068585
outer loop
vertex 61.5467453 -29.41106415 151.4410706
vertex 61.88947296 -37.674263 143.6881866
vertex 60.58968353 -28.43199921 149.1163788

endloop
endfacet
facet normal 0.869349122 0.4671874046 -0.1611456871
outer loop
vertex 61.5467453 -29.41106415 151.4410706
vertex 60.58968353 -28.43199921 149.1163788
vertex 56.83301544 -19.56577301 154.5545197

endloop
endfacet
facet normal 0.8857809305 0.4485006928 -0.119328171
outer loop
vertex 56.83301544 -19.56577301 154.5545197
vertex 60.58968353 -28.43199921 149.1163788
vertex 56.39304352 -19.35739899 152.0717621

endloop
endfacet
facet normal 0.7631076574 0.6411211491 -0.08142718673
outer loop
vertex 56.83301544 -19.56577301 154.5545044
vertex 56.39304352 -19.35741425 152.0717621
vertex 49.4154129 -10.79685211 154.0818329

endloop
endfacet
facet normal 0.7747324705 0.6322799325 -0.003419930581
outer loop
vertex 49.4154129 -10.79685211 154.0818329
vertex 56.39304352 -19.35741425 152.0717621
vertex 49.95574188 -11.47119904 151.8110809

endloop
endfacet
facet normal 0.8566362858 -0.4021012187 0.3232475221
outer loop
vertex 49.4154129 -10.79686737 154.0818329
vertex 49.95574188 -11.47119904 151.8110809
vertex 54.88088226 -5.425133228 146.279953

endloop
endfacet
facet normal -0.287347883 0.7662610412 0.574695766
outer loop
vertex 54.88088226 -5.425133228 146.279953
vertex 49.95574188 -11.47119904 151.8110809
vertex 54.88091278 -5.425133228 146.2799683

endloop
endfacet
facet normal 0.9965689182 0.08276692778 0
outer loop
vertex 48.15561676 -56.32854462 94.04017639
vertex 48.15561676 -56.32854462 94.04018402
vertex 48.50382233 -60.52117157 105.1677322

endloop
endfacet
facet normal 0.9991622567 0.0370917581 -0.01729059964
outer loop
vertex 48.50382233 -60.52117157 105.1677322
vertex 48.15561676 -56.32854462 94.04018402
vertex 48.35031891 -56.55780792 104.7995148

endloop
endfacet
facet normal 0.6938212514 -0.03993046656 -0.7190393806
outer loop
vertex 48.50382233 -60.52117157 105.1677322
vertex 48.35031891 -56.55780792 104.7995148
vertex 52.42990875 -59.25325775 108.8857117

endloop
endfacet
facet normal 0.7015360594 -0.01819160953 -0.7124017477
outer loop
vertex 52.42990875 -59.25325775 108.8857117
vertex 48.35031891 -56.55780792 104.7995148
vertex 51.99648285 -55.75237274 108.3694992

endloop
endfacet
facet normal 0.9135298729 0.05364380404 -0.4032191336
outer loop
vertex 52.42990875 -59.25325775 108.8857117
vertex 51.99648285 -55.75237274 108.3694992
vertex 55.00894928 -57.91309357 114.9070587

endloop
endfacet
facet normal 0.9159377217 0.1462794393 -0.3737116754
outer loop
vertex 55.00894928 -57.91309357 114.9070587
vertex 51.99648285 -55.75237274 108.3694992
vertex 54.2065506 -54.35153961 114.3345184

endloop
endfacet
facet normal 0.8901034594 0.1303291023 -0.4367267489
outer loop
vertex 55.00894928 -57.91309357 114.9070587
vertex 54.2065506 -54.35153961 114.3345184
vertex 57.69669342 -54.74571991 121.3302307

endloop
endfacet
facet normal 0.89324224 0.08938851953 -0.4405995607
outer loop
vertex 57.69669342 -54.74571991 121.3302307
vertex 54.2065506 -54.35153961 114.3345184
vertex 56.92272186 -51.60186005 120.3989563

endloop
endfacet
facet normal 0.9507884383 0.1545162052 -0.2685630918
outer loop
vertex 57.69669342 -54.74571991 121.3302307
vertex 56.92272186 -51.60186005 120.3989563
vertex 59.1652298 -50.72589874 128.842041

endloop
endfacet
facet normal 0.9593256712 -0.1498388052 -0.2392540574
outer loop
vertex 59.1652298 -50.72589874 128.842041
vertex 56.92272186 -51.60186005 120.3989563
vertex 59.16390228 -47.7379837 126.9654617

endloop
endfacet
facet normal 0.9878783226 -0.08224543184 -0.1316511482
outer loop
vertex 59.1652298 -50.72589874 128.842041
vertex 59.16390228 -47.7379837 126.9654617
vertex 60.66240692 -45.26177216 136.6629333

endloop
endfacet
facet normal 0.9783213735 -0.1780856699 -0.1057019159
outer loop
vertex 60.66240692 -45.26177216 136.6629333
vertex 59.16390228 -47.7379837 126.9654617
vertex 60.91551971 -42.34824371 134.0969238

endloop
endfacet
facet normal 0.9916386604 -0.1223311648 -0.04108282179
outer loop
vertex 60.66240692 -45.26177216 136.6629333
vertex 60.91551971 -42.34824371 134.0969238
vertex 61.88947296 -37.674263 143.6881866

endloop
endfacet
facet normal 0.9941433072 -0.09250729531 -0.05587082356
outer loop
vertex 61.88947296 -37.674263 143.6881866
vertex 60.91551971 -42.34824371 134.0969238
vertex 61.99196625 -34.96772003 141.0305939

endloop
endfacet
facet normal 0.9909300208 0.07315655798 0.1127204448
outer loop
vertex 61.88947296 -37.674263 143.6881866
vertex 61.99196625 -34.96772003 141.0305939
vertex 60.58968353 -28.43199921 149.1163788

endloop
endfacet
facet normal 0.9758598208 -0.05280164257 0.2119185627
outer loop
vertex 60.58968353 -28.43199921 149.1163788
vertex 61.99196625 -34.96772003 141.0305939
vertex 61.27524567 -26.17816925 146.5210114

endloop
endfacet
facet normal 0.8589330316 0.2520471215 0.4457647502
outer loop
vertex 60.58968353 -28.43199921 149.1163788
vertex 61.27524567 -26.17816925 146.5210114
vertex 56.39304352 -19.35739899 152.0717621

endloop
endfacet
facet normal 0.8678659201 0.297285229 0.3980330527
outer loop
vertex 56.39304352 -19.35739899 152.0717621
vertex 61.27524567 -26.17816925 146.5210114
vertex 57.22757721 -18.50029755 149.6119995

endloop
endfacet
facet normal 0.6902493834 0.5778276324 0.4355122745
outer loop
vertex 56.39304352 -19.35741425 152.0717621
vertex 57.22754669 -18.50032806 149.6119843
vertex 49.95574188 -11.47119904 151.8110809

endloop
endfacet
facet normal 0.7093792558 0.6448767185 0.2844557464
outer loop
vertex 49.95574188 -11.47119904 151.8110809
vertex 57.22754669 -18.50032806 149.6119843
vertex 51.29161835 -12.01699066 149.7169952

endloop
endfacet
facet normal 0.8148300648 -0.1519941539 0.5594192147
outer loop
vertex 49.95574188 -11.47119904 151.8110809
vertex 51.29161835 -12.01700592 149.7169952
vertex 54.88091278 -5.425133228 146.2799683

endloop
endfacet
facet normal -nan(ind) -nan(ind) -nan(ind)
outer loop
vertex 54.88091278 -5.425133228 146.2799683
vertex 51.29161835 -12.01700592 149.7169952
vertex 54.88091278 -5.425133228 146.2799683

endloop
endfacet
facet normal -0.01074833609 0.9997111559 0.02149667218
outer loop
vertex 48.15561676 -56.32854462 94.04018402
vertex 48.1556015 -56.32854462 94.04017639
vertex 48.35031891 -56.55780792 104.7995148

endloop
endfacet
facet normal 0.9918403029 -0.1258061379 -0.02063057199
outer loop
vertex 48.35031891 -56.55780792 104.7995148
vertex 48.1556015 -56.32854462 94.04017639
vertex 48.79618073 -52.76613617 103.1130905

endloop
endfacet
facet normal 0.6921345592 -0.3597032428 -0.6257501841
outer loop
vertex 48.35031891 -56.55780792 104.7995148
vertex 48.79618073 -52.76613617 103.1130905
vertex 51.99648285 -55.75237274 108.3694992

endloop
endfacet
facet normal 0.7660982609 -0.2332116514 -0.5989205241
outer loop
vertex 51.99648285 -55.75237274 108.3694992
vertex 48.79618073 -52.76613617 103.1130905
vertex 52.2435379 -52.40514374 107.3821487

endloop
endfacet
facet normal 0.9372378588 -0.1604894698 -0.3095614612
outer loop
vertex 51.99648285 -55.75237274 108.3694992
vertex 52.2435379 -52.40514374 107.3821487
vertex 54.2065506 -54.35153961 114.3345184

endloop
endfacet
facet normal 0.9368807673 -0.1619651467 -0.3098737895
outer loop
vertex 54.2065506 -54.35153961 114.3345184
vertex 52.2435379 -52.40514374 107.3821487
vertex 54.48514557 -50.80765533 113.3245087

endloop
endfacet
facet normal 0.9258317947 -0.1691097617 -0.337990135
outer loop
vertex 54.2065506 -54.35153961 114.3345184
vertex 54.48514557 -50.80765533 113.3245087
vertex 56.92272186 -51.60186005 120.3989563

endloop
endfacet
facet normal 0.8956715465 -0.2858240604 -0.3407008946
outer loop
vertex 56.92272186 -51.60186005 120.3989563
vertex 54.48514557 -50.80765533 113.3245087
vertex 57.43932343 -48.43361664 119.0991211

endloop
endfacet
facet normal 0.9540395141 -0.2329230607 -0.1885613054
outer loop
vertex 56.92272186 -51.60186005 120.3989563
vertex 57.43932343 -48.43361664 119.0991211
vertex 59.16390228 -47.7379837 126.9654617

endloop
endfacet
facet normal 0.9367946982 -0.3007535338 -0.1787822843
outer loop
vertex 59.16390228 -47.7379837 126.9654617
vertex 57.43932343 -48.43361664 119.0991211
vertex 59.78148651 -44.73758698 125.1541519

endloop
endfacet
facet normal 0.9699351788 -0.2358558774 -0.05998118594
outer loop
vertex 59.16390228 -47.7379837 126.9654617
vertex 59.78148651 -44.73758698 125.1541519
vertex 60.91551971 -42.34824371 134.0969238

endloop
endfacet
facet normal 0.9499616623 -0.3100937903 -0.03761334345
outer loop
vertex 60.91551971 -42.34824371 134.0969238
vertex 59.78148651 -44.73758698 125.1541519
vertex 61.90605927 -39.05210114 131.939743

endloop
endfacet
facet normal 0.9687351584 -0.2295995653 0.09400121123
outer loop
vertex 60.91551971 -42.34824371 134.0969238
vertex 61.90605927 -39.05210114 131.939743
vertex 61.99196625 -34.96772003 141.0305939

endloop
endfacet
facet normal 0.9517243505 -0.283254981 0.1182685271
outer loop
vertex 61.99196625 -34.96772003 141.0305939
vertex 61.90605927 -39.05210114 131.939743
vertex 63.26886749 -31.62503815 138.7609558

endloop
endfacet
facet normal 0.9340522885 -0.1312982291 0.3321253657
outer loop
vertex 61.99196625 -34.96772003 141.0305939
vertex 63.26886749 -31.62503815 138.7609558
vertex 61.27524567 -26.17816925 146.5210114

endloop
endfacet
facet normal 0.9635894895 -0.02639403753 0.2660802901
outer loop
vertex 61.27524567 -26.17816925 146.5210114
vertex 63.26886749 -31.62503815 138.7609558
vertex 62.00995636 -23.89270782 144.0870209

endloop
endfacet
facet normal 0.838868022 0.2469483018 0.4850947857
outer loop
vertex 61.27524567 -26.17816925 146.5210114
vertex 62.00995636 -23.89270782 144.0870209
vertex 57.22757721 -18.50029755 149.6119995

endloop
endfacet
facet normal 0.842363596 0.4608596861 0.2793419361
outer loop
vertex 57.22757721 -18.50029755 149.6119995
vertex 62.00995636 -23.89270782 144.0870209
vertex 57.67467499 -17.72985077 146.9926758

endloop
endfacet
facet normal 0.7041015029 0.6396576166 0.3083491921
outer loop
vertex 57.22754669 -18.50032806 149.6119843
vertex 57.67469025 -17.72986603 146.9926605
vertex 51.29161835 -12.01699066 149.7169952

endloop
endfacet
facet normal 0.7039512992 0.6497895122 0.2867508233
outer loop
vertex 51.29161835 -12.01699066 149.7169952
vertex 57.67469025 -17.72986603 146.9926605
vertex 52.65529633 -12.31945038 147.054657

endloop
endfacet
facet normal 0.8567597866 -0.2244028747 0.4643338919
outer loop
vertex 51.29161835 -12.01700592 149.7169952
vertex 52.65529633 -12.31945038 147.054657
vertex 54.88091278 -5.425133228 146.2799683

endloop
endfacet
facet normal 0.06382206082 -0.1316329986 -0.9892418981
outer loop
vertex 54.88091278 -5.425133228 146.2799683
vertex 52.65529633 -12.31945038 147.054657
vertex 54.88088226 -5.42514801 146.2799683

endloop
endfacet
facet normal 0.1852289587 0.9101929069 -0.3704579175
outer loop
vertex 48.1556015 -56.32854462 94.04017639
vertex 48.15558624 -56.32854462 94.04016876
vertex 48.79618073 -52.76613617 103.1130905

endloop
endfacet
facet normal 0.9479491115 -0.313434422 0.05613742396
outer loop
vertex 48.79618073 -52.76613617 103.1130905
vertex 48.15558624 -56.32854462 94.04016876
vertex 49.86660004 -49.96518707 100.6764069

endloop
endfacet
facet normal 0.6271842122 -0.6336705685 -0.452881515
outer loop
vertex 48.79618073 -52.76613617 103.1130905
vertex 49.86660004 -49.96518707 100.6764069
vertex 52.2435379 -52.40514374 107.3821487

endloop
endfacet
facet normal 0.7145658135 -0.5367947817 -0.4486058056
outer loop
vertex 52.2435379 -52.40514374 107.3821487
vertex 49.86660004 -49.96518707 100.6764069
vertex 53.5154953 -49.40087128 105.8133316

endloop
endfacet
facet normal 0.8608897924 -0.4683242142 -0.1988494098
outer loop
vertex 52.2435379 -52.40514374 107.3821487
vertex 53.5154953 -49.40087128 105.8133316
vertex 54.48514557 -50.80765533 113.3245087

endloop
endfacet
facet normal 0.8348202109 -0.5115018487 -0.2035707831
outer loop
vertex 54.48514557 -50.80765533 113.3245087
vertex 53.5154953 -49.40087128 105.8133316
vertex 56.13188934 -47.52637482 111.8329086

endloop
endfacet
facet normal 0.8307329416 -0.5140360594 -0.2136578858
outer loop
vertex 54.48514557 -50.80765533 113.3245087
vertex 56.13188934 -47.52637482 111.8329086
vertex 57.43932343 -48.43361664 119.0991211

endloop
endfacet
facet normal 0.7585226297 -0.6157274246 -0.2133617699
outer loop
vertex 57.43932343 -48.43361664 119.0991211
vertex 56.13188934 -47.52637482 111.8329086
vertex 59.28888702 -45.62810516 117.5782547

endloop
endfacet
facet normal 0.8372900486 -0.5466707945 0.009816870093
outer loop
vertex 57.43932343 -48.43361664 119.0991211
vertex 59.28888702 -45.62810516 117.5782547
vertex 59.78148651 -44.73758698 125.1541519

endloop
endfacet
facet normal 0.8921602964 -0.4516921341 -0.004915278871
outer loop
vertex 59.78148651 -44.73758698 125.1541519
vertex 59.28888702 -45.62810516 117.5782547
vertex 61.27436066 -41.76819611 123.2483673

endloop
endfacet
facet normal 0.9074574709 -0.4152688384 0.06381844729
outer loop
vertex 59.78148651 -44.73758698 125.1541519
vertex 61.27436066 -41.76819611 123.2483673
vertex 61.90605927 -39.05210114 131.939743

endloop
endfacet
facet normal 0.961715281 -0.2736058533 0.01560458262
outer loop
vertex 61.90605927 -39.05210114 131.939743
vertex 61.27436066 -41.76819611 123.2483673
vertex 62.93202972 -35.58390045 129.5192108

endloop
endfacet
facet normal 0.9685501456 -0.2395411283 0.06731045246
outer loop
vertex 61.90605927 -39.05210114 131.939743
vertex 62.93202972 -35.58390045 129.5192108
vertex 63.26886749 -31.62503815 138.7609558

endloop
endfacet
facet normal 0.9884636998 -0.1488936245 0.02775421925
outer loop
vertex 63.26886749 -31.62503815 138.7609558
vertex 62.93202972 -35.58390045 129.5192108
vertex 63.8797226 -28.09185028 135.9599762

endloop
endfacet
facet normal 0.9752563834 0.006571336649 0.2209791392
outer loop
vertex 63.26886749 -31.62503815 138.7609558
vertex 63.8797226 -28.09185028 135.9599762
vertex 62.00995636 -23.89270782 144.0870209

endloop
endfacet
facet normal 0.9797348976 0.09569570422 0.1759600639
outer loop
vertex 62.00995636 -23.89270782 144.0870209
vertex 63.8797226 -28.09185028 135.9599762
vertex 62.26740265 -21.01670074 141.0894623

endloop
endfacet
facet normal 0.8212237954 0.3748647869 0.4301950037
outer loop
vertex 62.00995636 -23.89270782 144.0870209
vertex 62.26740265 -21.01670074 141.0894623
vertex 57.67467499 -17.72985077 146.9926758

endloop
endfacet
facet normal 0.8257349133 0.3218424022 0.463226974
outer loop
vertex 57.67467499 -17.72985077 146.9926758
vertex 62.26740265 -21.01670074 141.0894623
vertex 58.67696381 -15.91594696 143.945755

endloop
endfacet
facet normal 0.6191901565 0.5682299137 0.5419579148
outer loop
vertex 57.67469025 -17.72986603 146.9926605
vertex 58.67694855 -15.91596222 143.9457397
vertex 52.65529633 -12.31945038 147.054657

endloop
endfacet
facet normal 0.6139395237 0.499755919 0.6110011339
outer loop
vertex 52.65529633 -12.31945038 147.054657
vertex 58.67694855 -15.91596222 143.9457397
vertex 54.93524933 -11.58072662 144.1595154

endloop
endfacet
facet normal 0.7942479849 -0.1916058064 0.5765911341
outer loop
vertex 52.65529633 -12.31945038 147.054657
vertex 54.93524933 -11.58072662 144.1595306
vertex 54.88088226 -5.42514801 146.2799683

endloop
endfacet
facet normal 0.2999669611 -0.3083467185 0.9027414918
outer loop
vertex 54.88088226 -5.42514801 146.2799683
vertex 54.93524933 -11.58072662 144.1595306
vertex 54.88089752 -5.425133228 146.2799683

endloop
endfacet
facet normal -0.9815416336 0.08552890271 0.1710578054
outer loop
vertex 48.15558624 -56.32854462 94.04016876
vertex 48.15558624 -56.32855988 94.04017639
vertex 49.86660004 -49.96518707 100.6764069

endloop
endfacet
facet normal 0.8581345677 -0.4627307057 0.2224527895
outer loop
vertex 49.86660004 -49.96518707 100.6764069
vertex 48.15558624 -56.32855988 94.04017639
vertex 51.32227325 -48.55965424 97.98468781

endloop
endfacet
facet normal 0.4401599467 -0.8713189363 -0.2169388384
outer loop
vertex 49.86660004 -49.96518707 100.6764069
vertex 51.32227325 -48.55965424 97.98468781
vertex 53.5154953 -49.40087128 105.8133316

endloop
endfacet
facet normal 0.5957401991 -0.7636205554 -0.2489525974
outer loop
vertex 53.5154953 -49.40087128 105.8133316
vertex 51.32227325 -48.55965424 97.98468781
vertex 55.61135101 -47.12726593 103.8547821

endloop
endfacet
facet normal 0.6970428824 -0.7124261856 -0.08111843467
outer loop
vertex 53.5154953 -49.40087128 105.8133316
vertex 55.61135101 -47.12726593 103.8547821
vertex 56.13188934 -47.52637482 111.8329086

endloop
endfacet
facet normal 0.7049871087 -0.7045514584 -0.08124282956
outer loop
vertex 56.13188934 -47.52637482 111.8329086
vertex 55.61135101 -47.12726593 103.8547821
vertex 58.686409 -44.76493073 110.052124

endloop
endfacet
facet normal 0.6815521717 -0.7188303471 -0.1370021701
outer loop
vertex 56.13188934 -47.52637482 111.8329086
vertex 58.686409 -44.76493073 110.052124
vertex 59.28888702 -45.62810516 117.5782547

endloop
endfacet
facet normal 0.6495962739 -0.7476953864 -0.1377545744
outer loop
vertex 59.28888702 -45.62810516 117.5782547
vertex 58.686409 -44.76493073 110.052124
vertex 61.81179047 -43.14929962 116.0209732

endloop
endfacet
facet normal 0.7434400916 -0.6445553899 0.1784522086
outer loop
vertex 59.28888702 -45.62810516 117.5782547
vertex 61.81179047 -43.14929962 116.0209732
vertex 61.27436066 -41.76819611 123.2483673

endloop
endfacet
facet normal 0.7859278321 -0.5939316154 0.1719377935
outer loop
vertex 61.27436066 -41.76819611 123.2483673
vertex 61.81179047 -43.14929962 116.0209732
vertex 63.73929596 -39.02725983 121.4492722

endloop
endfacet
facet normal 0.7988647223 -0.5202594399 0.301902771
outer loop
vertex 61.27436066 -41.76819611 123.2483673
vertex 63.73929596 -39.02725983 121.4492722
vertex 62.93202972 -35.58390045 129.5192108

endloop
endfacet
facet normal 0.8757958412 -0.4061018527 0.2608886361
outer loop
vertex 62.93202972 -35.58390045 129.5192108
vertex 63.73929596 -39.02725983 121.4492722
vertex 65.02370453 -32.4474411 127.3797607

endloop
endfacet
facet normal 0.8750851154 -0.3743687868 0.306714803
outer loop
vertex 62.93202972 -35.58390045 129.5192108
vertex 65.02370453 -32.4474411 127.3797607
vertex 63.8797226 -28.09185028 135.9599762

endloop
endfacet
facet normal 0.9388334155 -0.2399736941 0.2469909489
outer loop
vertex 63.8797226 -28.09185028 135.9599762
vertex 65.02370453 -32.4474411 127.3797607
vertex 65.32045746 -24.87281036 133.6112061

endloop
endfacet
facet normal 0.9026092887 -0.09816914052 0.4191173315
outer loop
vertex 63.8797226 -28.09185028 135.9599762
vertex 65.32045746 -24.87281036 133.6112061
vertex 62.26740265 -21.01670074 141.0894623

endloop
endfacet
facet normal 0.9185448289 -0.03617816791 0.3936579525
outer loop
vertex 62.26740265 -21.01670074 141.0894623
vertex 65.32045746 -24.87281036 133.6112061
vertex 63.5150528 -17.94936371 138.460144

endloop
endfacet
facet normal 0.7704960108 0.2042155713 0.6038475633
outer loop
vertex 62.26740265 -21.01670074 141.0894623
vertex 63.5150528 -17.94936371 138.460144
vertex 58.67696381 -15.91594696 143.945755

endloop
endfacet
facet normal 0.7625424862 0.08372103423 0.6414980292
outer loop
vertex 58.67696381 -15.91594696 143.945755
vertex 63.5150528 -17.94936371 138.460144
vertex 60.88137054 -13.52050018 141.0127716

endloop
endfacet
facet normal 0.5277197957 0.4190354049 0.7388647795
outer loop
vertex 58.67694855 -15.91596222 143.9457397
vertex 60.88134003 -13.52051544 141.0127563
vertex 54.93524933 -11.58072662 144.1595154

endloop
endfacet
facet normal 0.5271346569 0.3969689608 0.7513618469
outer loop
vertex 54.93524933 -11.58072662 144.1595154
vertex 60.88134003 -13.52051544 141.0127563
vertex 58.09664154 -10.28536224 141.2571869

endloop
endfacet
facet normal 0.7073469162 -0.2246291041 0.6702254415
outer loop
vertex 54.93524933 -11.58072662 144.1595306
vertex 58.09664154 -10.28536224 141.2571869
vertex 54.88089752 -5.425133228 146.2799683

endloop
endfacet
facet normal 0 -0.7160001397 0.6981001496
outer loop
vertex 54.88089752 -5.425133228 146.2799683
vertex 58.09664154 -10.28536224 141.2571869
vertex 54.88091278 -5.425133228 146.2799683

endloop
endfacet
facet normal 0.5454406738 -0.5454406738 0.6363873482
outer loop
vertex 48.15558624 -56.32855988 94.04017639
vertex 48.1556015 -56.32854462 94.04017639
vertex 51.32227325 -48.55965424 97.98468781

endloop
endfacet
facet normal 0.7660241127 -0.510546267 0.3905758262
outer loop
vertex 51.32227325 -48.55965424 97.98468781
vertex 48.1556015 -56.32854462 94.04017639
vertex 53.00702667 -48.12659454 95.24651337

endloop
endfacet
facet normal 0.2862069905 -0.9578517675 0.02460806817
outer loop
vertex 51.32227325 -48.55965424 97.98468781
vertex 53.00702667 -48.12659454 95.24651337
vertex 55.61135101 -47.12726593 103.8547821

endloop
endfacet
facet normal 0.4376712739 -0.898696363 -0.02808287181
outer loop
vertex 55.61135101 -47.12726593 103.8547821
vertex 53.00702667 -48.12659454 95.24651337
vertex 58.30437469 -45.74843597 101.7007828

endloop
endfacet
facet normal 0.5032632351 -0.8605761528 0.07832483202
outer loop
vertex 55.61135101 -47.12726593 103.8547821
vertex 58.30437469 -45.74843597 101.7007828
vertex 58.686409 -44.76493073 110.052124

endloop
endfacet
facet normal 0.5105087161 -0.8563730121 0.07749838382
outer loop
vertex 58.686409 -44.76493073 110.052124
vertex 58.30437469 -45.74843597 101.7007828
vertex 61.88652802 -43.02532196 108.1948624

endloop
endfacet
facet normal 0.4733482003 -0.8808248639 -0.009433257394
outer loop
vertex 58.686409 -44.76493073 110.052124
vertex 61.88652802 -43.02532196 108.1948624
vertex 61.81179047 -43.14929962 116.0209732

endloop
endfacet
facet normal 0.5193988681 -0.8544888496 -0.008576281369
outer loop
vertex 61.81179047 -43.14929962 116.0209732
vertex 61.88652802 -43.02532196 108.1948624
vertex 64.78575897 -41.32723236 114.591423

endloop
endfacet
facet normal 0.6040248871 -0.7232604623 0.3347359896
outer loop
vertex 61.81179047 -43.14929962 116.0209732
vertex 64.78575897 -41.32723236 114.591423
vertex 63.73929596 -39.02725983 121.4492722

endloop
endfacet
facet normal 0.6084089279 -0.719804287 0.3342458308
outer loop
vertex 63.73929596 -39.02725983 121.4492722
vertex 64.78575897 -41.32723236 114.591423
vertex 66.86577606 -36.97212982 120.1840744

endloop
endfacet
facet normal 0.6051443219 -0.5949336886 0.5290126204
outer loop
vertex 63.73929596 -39.02725983 121.4492722
vertex 66.86577606 -36.97212982 120.1840744
vertex 65.02370453 -32.4474411 127.3797607

endloop
endfacet
facet normal 0.6051678658 -0.594914794 0.5290067792
outer loop
vertex 65.02370453 -32.4474411 127.3797607
vertex 66.86577606 -36.97212982 120.1840744
vertex 68.15563202 -30.28517914 126.2285843

endloop
endfacet
facet normal 0.5890311599 -0.5270406008 0.6125932336
outer loop
vertex 65.02370453 -32.4474411 127.3797607
vertex 68.15563202 -30.28517914 126.2285843
vertex 65.32045746 -24.87281036 133.6112061

endloop
endfacet
facet normal 0.6261509061 -0.4943959713 0.6029159427
outer loop
vertex 65.32045746 -24.87281036 133.6112061
vertex 68.15563202 -30.28517914 126.2285843
vertex 68.04824066 -22.88639069 132.4071808

endloop
endfacet
facet normal 0.5829569101 -0.3586080074 0.729082644
outer loop
vertex 65.32045746 -24.87281036 133.6112061
vertex 68.04824066 -22.88639069 132.4071808
vertex 63.5150528 -17.94936371 138.460144

endloop
endfacet
facet normal 0.6627358794 -0.2548092604 0.7041685581
outer loop
vertex 63.5150528 -17.94936371 138.460144
vertex 68.04824066 -22.88639069 132.4071808
vertex 66.05467987 -16.23760223 136.6893616

endloop
endfacet
facet normal 0.610075295 -0.09087367356 0.787115097
outer loop
vertex 63.5150528 -17.94936371 138.460144
vertex 66.05467987 -16.23760223 136.6893616
vertex 60.88137054 -13.52050018 141.0127716

endloop
endfacet
facet normal 0.6203149557 -0.06295546144 0.7818222046
outer loop
vertex 60.88137054 -13.52050018 141.0127716
vertex 66.05467987 -16.23760223 136.6893616
vertex 63.86310577 -12.12366486 138.7594757

endloop
endfacet
facet normal 0.4625193179 0.336132735 0.8204210401
outer loop
vertex 60.88134003 -13.52051544 141.0127563
vertex 63.86310577 -12.12366486 138.7594604
vertex 58.09664154 -10.28536224 141.2571869

endloop
endfacet
facet normal 0.4614777565 0.3271490633 0.8246282935
outer loop
vertex 58.09664154 -10.28536224 141.2571869
vertex 63.86310577 -12.12366486 138.7594604
vertex 61.54303741 -9.290550232 138.9338531

endloop
endfacet
facet normal 0.5908101201 -0.3568831384 0.7235868573
outer loop
vertex 58.09664154 -10.28536224 141.2571869
vertex 61.54303741 -9.290550232 138.9338531
vertex 54.88091278 -5.425133228 146.2799683

endloop
endfacet
facet normal 0 0.8819316626 -0.4713772833
outer loop
vertex 54.88091278 -5.425133228 146.2799683
vertex 61.54303741 -9.290550232 138.9338531
vertex 54.88089752 -5.425133228 146.2799683

endloop
endfacet
facet normal -0.8607049584 0.5091040134 0
outer loop
vertex 48.1556015 -56.32854462 94.04017639
vertex 48.1556015 -56.32854462 94.04018402
vertex 53.00702667 -48.12659454 95.24651337

endloop
endfacet
facet normal 0.7088754177 -0.4934263229 0.5040100813
outer loop
vertex 53.00702667 -48.12659454 95.24651337
vertex 48.1556015 -56.32854462 94.04018402
vertex 54.92964935 -48.14344025 92.52590942

endloop
endfacet
facet normal 0.2275425196 -0.9593859911 0.1667423695
outer loop
vertex 53.00702667 -48.12659454 95.24651337
vertex 54.92964935 -48.14344025 92.52590942
vertex 58.30437469 -45.74843597 101.7007828

endloop
endfacet
facet normal 0.2350722849 -0.9581041336 0.1636381298
outer loop
vertex 58.30437469 -45.74843597 101.7007828
vertex 54.92964935 -48.14344025 92.52590942
vertex 61.57279205 -45.33712006 99.41384125

endloop
endfacet
facet normal 0.2814392447 -0.9303864837 0.2348893136
outer loop
vertex 58.30437469 -45.74843597 101.7007828
vertex 61.57279205 -45.33712006 99.41384125
vertex 61.88652802 -43.02532196 108.1948624

endloop
endfacet
facet normal 0.1732432097 -0.9539310932 0.2449536771
outer loop
vertex 61.88652802 -43.02532196 108.1948624
vertex 61.57279205 -45.33712006 99.41384125
vertex 65.82857513 -42.77635956 106.3763962

endloop
endfacet
facet normal 0.1489740014 -0.9703984261 0.1900886446
outer loop
vertex 61.88652802 -43.02532196 108.1948624
vertex 65.82857513 -42.77635956 106.3763962
vertex 64.78575897 -41.32723236 114.591423

endloop
endfacet
facet normal 0.1981736571 -0.9606519938 0.1946147829
outer loop
vertex 64.78575897 -41.32723236 114.591423
vertex 65.82857513 -42.77635956 106.3763962
vertex 68.48836517 -40.80580902 113.3949432

endloop
endfacet
facet normal 0.2820343971 -0.8049893975 0.5219661593
outer loop
vertex 64.78575897 -41.32723236 114.591423
vertex 68.48836517 -40.80580902 113.3949432
vertex 66.86577606 -36.97212982 120.1840744

endloop
endfacet
facet normal 0.297622025 -0.7990972996 0.5223644376
outer loop
vertex 66.86577606 -36.97212982 120.1840744
vertex 68.48836517 -40.80580902 113.3949432
vertex 70.40132904 -36.06739044 119.5537033

endloop
endfacet
facet normal 0.2931806147 -0.6716103554 0.6804297566
outer loop
vertex 66.86577606 -36.97212982 120.1840744
vertex 70.40132904 -36.06739044 119.5537033
vertex 68.15563202 -30.28517914 126.2285843

endloop
endfacet
facet normal 0.3007483184 -0.6684504747 0.6802385449
outer loop
vertex 68.15563202 -30.28517914 126.2285843
vertex 70.40132904 -36.06739044 119.5537033
vertex 71.30901337 -29.27381134 125.8282471

endloop
endfacet
facet normal 0.2895122766 -0.6110468507 0.7367526293
outer loop
vertex 68.15563202 -30.28517914 126.2285843
vertex 71.30901337 -29.27381134 125.8282471
vertex 68.04824066 -22.88639069 132.4071808

endloop
endfacet
facet normal 0.310856849 -0.6002959609 0.7368939519
outer loop
vertex 68.04824066 -22.88639069 132.4071808
vertex 71.30901337 -29.27381134 125.8282471
vertex 70.69087982 -22.26506805 131.7985382

endloop
endfacet
facet normal 0.2997116745 -0.4514382482 0.8404620886
outer loop
vertex 68.04824066 -22.88639069 132.4071808
vertex 70.69087982 -22.26506805 131.7985382
vertex 66.05467987 -16.23760223 136.6893616

endloop
endfacet
facet normal 0.3114977181 -0.442676723 0.8408367038
outer loop
vertex 66.05467987 -16.23760223 136.6893616
vertex 70.69087982 -22.26506805 131.7985382
vertex 68.73235321 -16.23641205 135.6980133

endloop
endfacet
facet normal 0.3338449001 -0.2757337093 0.9013981223
outer loop
vertex 66.05467987 -16.23760223 136.6893616
vertex 68.73235321 -16.23641205 135.6980133
vertex 63.86310577 -12.12366486 138.7594757

endloop
endfacet
facet normal 0.2906538248 -0.3256188631 0.8997181654
outer loop
vertex 63.86310577 -12.12366486 138.7594757
vertex 68.73235321 -16.23641205 135.6980133
vertex 66.93395233 -11.89936066 137.8486176

endloop
endfacet
facet normal 0.269669354 0.1624096036 0.9491583109
outer loop
vertex 63.86310577 -12.12366486 138.7594604
vertex 66.93392181 -11.89936066 137.8486176
vertex 61.54303741 -9.290550232 138.9338531

endloop
endfacet
facet normal 0.1982397139 0.001913500717 0.9801516533
outer loop
vertex 61.54303741 -9.290550232 138.9338531
vertex 66.93392181 -11.89936066 137.8486176
vertex 64.89287567 -8.312477112 138.254425

endloop
endfacet
facet normal 0.3310405016 -0.6775681973 0.6567445993
outer loop
vertex 61.54303741 -9.290550232 138.9338531
vertex 64.89284515 -8.312477112 138.254425
vertex 54.88089752 -5.425133228 146.2799683

endloop
endfacet
facet normal -nan(ind) -nan(ind) -nan(ind)
outer loop
vertex 54.88089752 -5.425133228 146.2799683
vertex 64.89284515 -8.312477112 138.254425
vertex 54.88089752 -5.425133228 146.2799683

endloop
endfacet
facet normal 0.7703865767 -0.6375771165 0
outer loop
vertex 48.1556015 -56.32854462 94.04018402
vertex 48.1556015 -56.32854462 94.04017639
vertex 54.92964935 -48.14344025 92.52590942

endloop
endfacet
facet normal 0.6531513929 -0.4245529175 0.6270152926
outer loop
vertex 54.92964935 -48.14344025 92.52590942
vertex 48.1556015 -56.32854462 94.04017639
vertex 57.01634979 -48.88777924 89.84823608

endloop
endfacet
facet normal 0.07019797713 -0.9456323385 0.31757164
outer loop
vertex 54.92964935 -48.14344025 92.52590942
vertex 57.01634979 -48.88777924 89.84823608
vertex 61.57279205 -45.33712006 99.41384125

endloop
endfacet
facet normal -0.0307824593 -0.9321816564 0.3606795371
outer loop
vertex 61.57279205 -45.33712006 99.41384125
vertex 57.01634979 -48.88777924 89.84823608
vertex 65.14345551 -46.32154083 97.17433167

endloop
endfacet
facet normal -0.03032925539 -0.9319552779 0.3613025844
outer loop
vertex 61.57279205 -45.33712006 99.41384125
vertex 65.14345551 -46.32154083 97.17433167
vertex 65.82857513 -42.77635956 106.3763962

endloop
endfacet
facet normal -0.1300897896 -0.921926856 0.3648664951
outer loop
vertex 65.82857513 -42.77635956 106.3763962
vertex 65.14345551 -46.32154083 97.17433167
vertex 70.08168793 -44.00861359 104.7792053

endloop
endfacet
facet normal -0.1509090662 -0.9353860617 0.3198114932
outer loop
vertex 65.82857513 -42.77635956 106.3763962
vertex 70.08168793 -44.00861359 104.7792053
vertex 68.48836517 -40.80580902 113.3949432

endloop
endfacet
facet normal -0.09429007024 -0.9387236238 0.3315228522
outer loop
vertex 68.48836517 -40.80580902 113.3949432
vertex 70.08168793 -44.00861359 104.7792053
vertex 72.6811142 -41.55970001 112.4527435

endloop
endfacet
facet normal -0.005116180517 -0.7917883396 0.6107741594
outer loop
vertex 68.48836517 -40.80580902 113.3949432
vertex 72.6811142 -41.55970001 112.4527435
vertex 70.40132904 -36.06739044 119.5537033

endloop
endfacet
facet normal -0.02116319165 -0.7941040397 0.6074132323
outer loop
vertex 70.40132904 -36.06739044 119.5537033
vertex 72.6811142 -41.55970001 112.4527435
vertex 74.44176483 -36.40569305 119.2521973

endloop
endfacet
facet normal -0.001969184726 -0.6783438325 0.7347418666
outer loop
vertex 70.40132904 -36.06739044 119.5537033
vertex 74.44176483 -36.40569305 119.2521973
vertex 71.30901337 -29.27381134 125.8282471

endloop
endfacet
facet normal 0.04851634055 -0.6654778719 0.7448391318
outer loop
vertex 71.30901337 -29.27381134 125.8282471
vertex 74.44176483 -36.40569305 119.2521973
vertex 75.02645111 -29.03908539 125.7958221

endloop
endfacet
facet normal 0.04739614576 -0.6453045011 0.7624537349
outer loop
vertex 71.30901337 -29.27381134 125.8282471
vertex 75.02645111 -29.03908539 125.7958221
vertex 70.69087982 -22.26506805 131.7985382

endloop
endfacet
facet normal 0.07591035962 -0.6336448789 0.7698907852
outer loop
vertex 70.69087982 -22.26506805 131.7985382
vertex 75.02645111 -29.03908539 125.7958221
vertex 73.90053558 -21.62227631 132.0111084

endloop
endfacet
facet normal 0.05028639361 -0.5308558345 0.8459689021
outer loop
vertex 70.69087982 -22.26506805 131.7985382
vertex 73.90053558 -21.62227631 132.0111084
vertex 68.73235321 -16.23641205 135.6980133

endloop
endfacet
facet normal -0.173120603 -0.6640475988 0.7273719907
outer loop
vertex 68.73235321 -16.23641205 135.6980133
vertex 73.90053558 -21.62227631 132.0111084
vertex 71.59337616 -15.84563446 136.7357178

endloop
endfacet
facet normal -0.2316719294 -0.5075744987 0.829877317
outer loop
vertex 68.73235321 -16.23641205 135.6980133
vertex 71.59337616 -15.84563446 136.7357178
vertex 66.93395233 -11.89936066 137.8486176

endloop
endfacet
facet normal -0.2559939027 -0.5302066207 0.8082995415
outer loop
vertex 66.93395233 -11.89936066 137.8486176
vertex 71.59337616 -15.84563446 136.7357178
vertex 69.85509491 -10.92469025 139.4131012

endloop
endfacet
facet normal -0.3671735525 -0.3082216382 0.8776007295
outer loop
vertex 66.93392181 -11.89936066 137.8486176
vertex 69.85509491 -10.92469025 139.4131012
vertex 64.89287567 -8.312477112 138.254425

endloop
endfacet
facet normal -0.3335009813 -0.2277441323 0.9148276448
outer loop
vertex 64.89287567 -8.312477112 138.254425
vertex 69.85509491 -10.92469025 139.4131012
vertex 67.69033051 -6.227867126 139.7931976

endloop
endfacet
facet normal 0.2496608496 -0.7692176104 0.5881953239
outer loop
vertex 64.89284515 -8.312477112 138.254425
vertex 67.69033051 -6.227851868 139.7932129
vertex 54.88089752 -5.425133228 146.2799683

endloop
endfacet
facet normal 0 0.9922779202 -0.12403474
outer loop
vertex 54.88089752 -5.425133228 146.2799683
vertex 67.69033051 -6.227851868 139.7932129
vertex 54.88088226 -5.425133228 146.2799683

endloop
endfacet
facet normal -0.3105168939 0.719650209 0.6210337877
outer loop
vertex 48.1556015 -56.32854462 94.04017639
vertex 48.15561676 -56.32854462 94.04018402
vertex 57.01634979 -48.88777924 89.84823608

endloop
endfacet
facet normal 0.6196980476 -0.3392362893 0.7077381015
outer loop
vertex 57.01634979 -48.88777924 89.84823608
vertex 48.15561676 -56.32854462 94.04018402
vertex 59.25492096 -50.63259125 87.05180359

endloop
endfacet
facet normal -0.126655519 -0.8839330673 0.4501340985
outer loop
vertex 57.01634979 -48.88777924 89.84823608
vertex 59.25492096 -50.63259125 87.05180359
vertex 65.14345551 -46.32154083 97.17433167

endloop
endfacet
facet normal -0.2617802322 -0.8236482739 0.5030651689
outer loop
vertex 65.14345551 -46.32154083 97.17433167
vertex 59.25492096 -50.63259125 87.05180359
vertex 68.63445282 -48.6740036 95.13935089

endloop
endfacet
facet normal -0.3023724854 -0.8394004703 0.4516389966
outer loop
vertex 65.14345551 -46.32154083 97.17433167
vertex 68.63445282 -48.6740036 95.13935089
vertex 70.08168793 -44.00861359 104.7792053

endloop
endfacet
facet normal -0.3964498043 -0.8016180396 0.4474774003
outer loop
vertex 70.08168793 -44.00861359 104.7792053
vertex 68.63445282 -48.6740036 95.13935089
vertex 74.00466156 -46.58821869 103.6336823

endloop
endfacet
facet normal -0.4183673859 -0.8146206737 0.4016987383
outer loop
vertex 70.08168793 -44.00861359 104.7792053
vertex 74.00466156 -46.58821869 103.6336823
vertex 72.6811142 -41.55970001 112.4527435

endloop
endfacet
facet normal -0.3338109851 -0.8395617008 0.4286099076
outer loop
vertex 72.6811142 -41.55970001 112.4527435
vertex 74.00466156 -46.58821869 103.6336823
vertex 76.81649017 -43.4734726 111.9247665

endloop
endfacet
facet normal -0.2606502175 -0.735694766 0.6251516938
outer loop
vertex 72.6811142 -41.55970001 112.4527435
vertex 76.81649017 -43.4734726 111.9247665
vertex 74.44176483 -36.40569305 119.2521973

endloop
endfacet
facet normal -0.3133625686 -0.7322106957 0.6047077179
outer loop
vertex 74.44176483 -36.40569305 119.2521973
vertex 76.81649017 -43.4734726 111.9247665
vertex 78.58214569 -37.95641327 119.5200729

endloop
endfacet
facet normal -0.281124413 -0.6247594357 0.7284536362
outer loop
vertex 74.44176483 -36.40569305 119.2521973
vertex 78.58214569 -37.95641327 119.5200729
vertex 75.02645111 -29.03908539 125.7958221

endloop
endfacet
facet normal -0.3443793356 -0.6282791495 0.6976161003
outer loop
vertex 75.02645111 -29.03908539 125.7958221
vertex 78.58214569 -37.95641327 119.5200729
vertex 78.95543671 -30.110466 126.7704773

endloop
endfacet
facet normal -0.3445854783 -0.6331354976 0.6931090355
outer loop
vertex 75.02645111 -29.03908539 125.7958221
vertex 78.95543671 -30.110466 126.7704773
vertex 73.90053558 -21.62227631 132.0111084

endloop
endfacet
facet normal -0.3418494165 -0.6326275468 0.6949254274
outer loop
vertex 73.90053558 -21.62227631 132.0111084
vertex 78.95543671 -30.110466 126.7704773
vertex 77.57534027 -21.76343536 133.6903229

endloop
endfacet
facet normal -0.3286004364 -0.6731108427 0.6625281572
outer loop
vertex 73.90053558 -21.62227631 132.0111084
vertex 77.57534027 -21.76343536 133.6903229
vertex 71.59337616 -15.84563446 136.7357178

endloop
endfacet
facet normal -0.3495893776 -0.6832687259 0.6410391331
outer loop
vertex 71.59337616 -15.84563446 136.7357178
vertex 77.57534027 -21.76343536 133.6903229
vertex 74.98451996 -15.05931854 139.4231873

endloop
endfacet
facet normal -0.4399890006 -0.544108212 0.7143921256
outer loop
vertex 71.59337616 -15.84563446 136.7357178
vertex 74.98451996 -15.05931854 139.4231873
vertex 69.85509491 -10.92469025 139.4131012

endloop
endfacet
facet normal -0.495664686 -0.6134223342 0.6148411632
outer loop
vertex 69.85509491 -10.92469025 139.4131012
vertex 74.98451996 -15.05931854 139.4231873
vertex 72.22216034 -9.621559143 142.6214752

endloop
endfacet
facet normal -0.6735142469 -0.3625515401 0.6441543698
outer loop
vertex 69.85509491 -10.92469025 139.4131012
vertex 72.22212982 -9.621574402 142.62146
vertex 67.69033051 -6.227867126 139.7931976

endloop
endfacet
facet normal -0.6889261007 -0.439799726 0.576157093
outer loop
vertex 67.69033051 -6.227867126 139.7931976
vertex 72.22212982 -9.621574402 142.62146
vertex 68.92760468 -4.1354599 142.8698425

endloop
endfacet
facet normal 0.1979537457 -0.8457176089 0.4955561757
outer loop
vertex 67.69033051 -6.227851868 139.7932129
vertex 68.92757416 -4.135475159 142.8698425
vertex 54.88088226 -5.425133228 146.2799683

endloop
endfacet
facet normal 0 -0.9377487302 -0.3473143578
outer loop
vertex 54.88088226 -5.425133228 146.2799683
vertex 68.92757416 -4.135475159 142.8698425
vertex 54.88091278 -5.425133228 146.2799683

endloop
endfacet
facet normal -nan(ind) -nan(ind) -nan(ind)
outer loop
vertex 48.15561676 -56.32854462 94.04018402
vertex 48.15561676 -56.32854462 94.04018402
vertex 59.25492096 -50.63259125 87.05180359

endloop
endfacet
facet normal 0.59317559 -0.198686108 0.7801707983
outer loop
vertex 59.25492096 -50.63259125 87.05180359
vertex 48.15561676 -56.32854462 94.04018402
vertex 61.0959549 -53.99533844 84.79564667

endloop
endfacet
facet normal -0.4121789336 -0.6523773074 0.6360127926
outer loop
vertex 59.25492096 -50.63259125 87.05180359
vertex 61.0959549 -53.99533844 84.79564667
vertex 68.63445282 -48.6740036 95.13935089

endloop
endfacet
facet normal -0.4995035529 -0.5664591193 0.655454278
outer loop
vertex 68.63445282 -48.6740036 95.13935089
vertex 61.0959549 -53.99533844 84.79564667
vertex 71.21205902 -52.35666656 93.92102814

endloop
endfacet
facet normal -0.6035760641 -0.5972146392 0.5282335281
outer loop
vertex 68.63445282 -48.6740036 95.13935089
vertex 71.21205902 -52.35666656 93.92102814
vertex 74.00466156 -46.58821869 103.6336823

endloop
endfacet
facet normal -0.6646273732 -0.5427926183 0.5134652853
outer loop
vertex 74.00466156 -46.58821869 103.6336823
vertex 71.21205902 -52.35666656 93.92102814
vertex 76.626091 -50.19080353 103.2184982

endloop
endfacet
facet normal -0.6980599165 -0.5594496131 0.4469099641
outer loop
vertex 74.00466156 -46.58821869 103.6336823
vertex 76.626091 -50.19080353 103.2184982
vertex 76.81649017 -43.4734726 111.9247665

endloop
endfacet
facet normal -0.6872458458 -0.567790091 0.4531086385
outer loop
vertex 76.81649017 -43.4734726 111.9247665
vertex 76.626091 -50.19080353 103.2184982
vertex 79.39421844 -46.4479599 112.1071701

endloop
endfacet
facet normal -0.6527696252 -0.5326660872 0.5386638045
outer loop
vertex 76.81649017 -43.4734726 111.9247665
vertex 79.39421844 -46.4479599 112.1071701
vertex 78.58214569 -37.95641327 119.5200729

endloop
endfacet
facet normal -0.6995342374 -0.5067443252 0.5038471818
outer loop
vertex 78.58214569 -37.95641327 119.5200729
vertex 79.39421844 -46.4479599 112.1071701
vertex 81.28252411 -40.58731842 120.6232071

endloop
endfacet
facet normal -0.6873084903 -0.4750649035 0.5494728088
outer loop
vertex 78.58214569 -37.95641327 119.5200729
vertex 81.28252411 -40.58731842 120.6232071
vertex 78.95543671 -30.110466 126.7704773

endloop
endfacet
facet normal -0.7227585316 -0.4620746374 0.5139135718
outer loop
vertex 78.95543671 -30.110466 126.7704773
vertex 81.28252411 -40.58731842 120.6232071
vertex 81.85030365 -32.39920807 128.7838898

endloop
endfacet
facet normal -0.72503227 -0.5066365004 0.466527164
outer loop
vertex 78.95543671 -30.110466 126.7704773
vertex 81.85030365 -32.39920807 128.7838898
vertex 77.57534027 -21.76343536 133.6903229

endloop
endfacet
facet normal -0.6997297406 -0.5113836527 0.4988637269
outer loop
vertex 77.57534027 -21.76343536 133.6903229
vertex 81.85030365 -32.39920807 128.7838898
vertex 80.59374237 -23.22762299 136.4231415

endloop
endfacet
facet normal -0.6723809838 -0.6137182713 0.4138282239
outer loop
vertex 77.57534027 -21.76343536 133.6903229
vertex 80.59374237 -23.22762299 136.4231415
vertex 74.98451996 -15.05931854 139.4231873

endloop
endfacet
facet normal -0.6384139061 -0.6105412245 0.4686864614
outer loop
vertex 74.98451996 -15.05931854 139.4231873
vertex 80.59374237 -23.22762299 136.4231415
vertex 77.73549652 -15.33506012 142.8111877

endloop
endfacet
facet normal -0.6420974731 -0.6039228439 0.4722161293
outer loop
vertex 74.98451996 -15.05931854 139.4231873
vertex 77.73549652 -15.33506012 142.8111877
vertex 72.22216034 -9.621559143 142.6214752

endloop
endfacet
facet normal -0.6866912842 -0.651956439 0.3215710521
outer loop
vertex 72.22216034 -9.621559143 142.6214752
vertex 77.73549652 -15.33506012 142.8111877
vertex 73.54659271 -9.215065002 146.2738342

endloop
endfacet
facet normal -0.7978855968 -0.4947394133 0.3444001973
outer loop
vertex 72.22212982 -9.621574402 142.62146
vertex 73.54659271 -9.215080261 146.2738342
vertex 68.92760468 -4.1354599 142.8698425

endloop
endfacet
facet normal -0.7832759023 -0.597722888 0.1708983332
outer loop
vertex 68.92760468 -4.1354599 142.8698425
vertex 73.54659271 -9.215080261 146.2738342
vertex 68.71663666 -2.86097002 146.3604889

endloop
endfacet
facet normal 0.168948397 -0.9225082994 0.3470372558
outer loop
vertex 68.92757416 -4.135475159 142.8698425
vertex 68.71660614 -2.86097002 146.3604889
vertex 54.88091278 -5.425133228 146.2799683

endloop
endfacet
facet normal 0.1778584421 -0.9653817415 0.1907997578
outer loop
vertex 54.88091278 -5.425133228 146.2799683
vertex 68.71660614 -2.86097002 146.3604889
vertex 54.88089752 -5.425133228 146.2799835

endloop
endfacet
facet normal 0.04589582607 -0.9819321632 -0.1835833043
outer loop
vertex 48.15561676 -56.32854462 94.04018402
vertex 48.15558624 -56.32854462 94.04017639
vertex 61.0959549 -53.99533844 84.79564667

endloop
endfacet
facet normal 0.5807628632 0.004425075371 0.8140608072
outer loop
vertex 61.0959549 -53.99533844 84.79564667
vertex 48.15558624 -56.32854462 94.04017639
vertex 62.04468536 -59.39144135 84.14813995

endloop
endfacet
facet normal -0.637909472 -0.2013510317 0.7433231473
outer loop
vertex 61.0959549 -53.99533844 84.79564667
vertex 62.04468536 -59.39144135 84.14813995
vertex 71.21205902 -52.35666656 93.92102814

endloop
endfacet
facet normal -0.6696074009 -0.1405548751 0.7292943597
outer loop
vertex 71.21205902 -52.35666656 93.92102814
vertex 62.04468536 -59.39144135 84.14813995
vertex 72.45766449 -57.71961212 94.03110504

endloop
endfacet
facet normal -0.8306674361 -0.1821328402 0.5261361599
outer loop
vertex 71.21205902 -52.35666656 93.92102814
vertex 72.45766449 -57.71961212 94.03110504
vertex 76.626091 -50.19080353 103.2184982

endloop
endfacet
facet normal -0.8591623306 -0.1286777258 0.4952596426
outer loop
vertex 76.626091 -50.19080353 103.2184982
vertex 72.45766449 -57.71961212 94.03110504
vertex 77.73757172 -55.1785202 103.8507614

endloop
endfacet
facet normal -0.9212335348 -0.1603635103 0.3544182479
outer loop
vertex 76.626091 -50.19080353 103.2184982
vertex 77.73757172 -55.1785202 103.8507614
vertex 79.39421844 -46.4479599 112.1071701

endloop
endfacet
facet normal -0.949565351 -0.1006618589 0.2969727516
outer loop
vertex 79.39421844 -46.4479599 112.1071701
vertex 77.73757172 -55.1785202 103.8507614
vertex 80.25597382 -50.9187088 113.3472137

endloop
endfacet
facet normal -0.9531580806 -0.1050513536 0.2836439312
outer loop
vertex 79.39421844 -46.4479599 112.1071701
vertex 80.25597382 -50.9187088 113.3472137
vertex 81.28252411 -40.58731842 120.6232071

endloop
endfacet
facet normal -0.9448695779 -0.1205320433 0.3044559956
outer loop
vertex 81.28252411 -40.58731842 120.6232071
vertex 80.25597382 -50.9187088 113.3472137
vertex 82.47005463 -44.66309357 122.6950989

endloop
endfacet
facet normal -0.9595080614 -0.1626629382 0.2299674153
outer loop
vertex 81.28252411 -40.58731842 120.6232071
vertex 82.47005463 -44.66309357 122.6950989
vertex 81.85030365 -32.39920807 128.7838898

endloop
endfacet
facet normal -0.9381679893 -0.1908152103 0.2888431251
outer loop
vertex 81.85030365 -32.39920807 128.7838898
vertex 82.47005463 -44.66309357 122.6950989
vertex 83.50795746 -36.09754181 131.7247925

endloop
endfacet
facet normal -0.9431102276 -0.2793653309 0.1802725345
outer loop
vertex 81.85030365 -32.39920807 128.7838898
vertex 83.50795746 -36.09754181 131.7247925
vertex 80.59374237 -23.22762299 136.4231415

endloop
endfacet
facet normal -0.9348330498 -0.2876726985 0.2081623375
outer loop
vertex 80.59374237 -23.22762299 136.4231415
vertex 83.50795746 -36.09754181 131.7247925
vertex 82.35009003 -26.31342316 140.0462341

endloop
endfacet
facet normal -0.9089535475 -0.4059591889 0.09487184137
outer loop
vertex 80.59374237 -23.22762299 136.4231415
vertex 82.35009003 -26.31342316 140.0462341
vertex 77.73549652 -15.33506012 142.8111877

endloop
endfacet
facet normal -0.9109792113 -0.4039273858 0.08342376351
outer loop
vertex 77.73549652 -15.33506012 142.8111877
vertex 82.35009003 -26.31342316 140.0462341
vertex 79.03301239 -17.43479156 146.8132935

endloop
endfacet
facet normal -0.8308556676 -0.5560385585 -0.02235901915
outer loop
vertex 77.73549652 -15.33506012 142.8111877
vertex 79.03301239 -17.43479156 146.8132935
vertex 73.54659271 -9.215065002 146.2738342

endloop
endfacet
facet normal -0.8248178363 -0.5569368601 -0.09745188057
outer loop
vertex 73.54659271 -9.215065002 146.2738342
vertex 79.03301239 -17.43479156 146.8132935
vertex 73.67223358 -10.11336517 150.3442078

endloop
endfacet
facet normal -0.792155683 -0.6006677151 -0.1081093177
outer loop
vertex 73.54659271 -9.215080261 146.2738342
vertex 73.67223358 -10.11336517 150.3441925
vertex 68.71663666 -2.86097002 146.3604889

endloop
endfacet
facet normal -0.7708775401 -0.6159387827 -0.1623798609
outer loop
vertex 68.71663666 -2.86097002 146.3604889
vertex 73.67223358 -10.11336517 150.3441925
vertex 67.46703339 -2.31844306 150.2349091

endloop
endfacet
facet normal 0.1777367592 -0.9650743604 0.1924607754
outer loop
vertex 68.71660614 -2.86097002 146.3604889
vertex 67.46703339 -2.31844306 150.2349091
vertex 54.88089752 -5.425133228 146.2799835

endloop
endfacet
facet normal -0.3174747229 0.8889291883 0.330173701
outer loop
vertex 54.88089752 -5.425133228 146.2799835
vertex 67.46703339 -2.31844306 150.2349091
vertex 54.88088226 -5.425133228 146.2799683

endloop
endfacet
facet normal 0 0.9552565217 -0.2957785428
outer loop
vertex 48.15558624 -56.32854462 94.04017639
vertex 48.1556015 -56.32854462 94.04017639
vertex 62.04468536 -59.39144135 84.14813995

endloop
endfacet
facet normal 0.5974956155 0.2636561394 0.7572875619
outer loop
vertex 62.04468536 -59.39144135 84.14813995
vertex 48.1556015 -56.32854462 94.04017639
vertex 58.15784454 -72.94489288 91.93358612

endloop
endfacet
facet normal -0.632427752 0.5141692758 0.5793659687
outer loop
vertex 62.04468536 -59.39144135 84.14813995
vertex 58.15784454 -72.94489288 91.93358612
vertex 72.45766449 -57.71961212 94.03110504

endloop
endfacet
facet normal -0.6366630793 0.5194451213 0.5699446201
outer loop
vertex 72.45766449 -57.71961212 94.03110504
vertex 58.15784454 -72.94489288 91.93358612
vertex 67.16243744 -71.53744507 100.7095261

endloop
endfacet
facet normal -0.8223704696 0.4700674713 0.3205361962
outer loop
vertex 72.45766449 -57.71961212 94.03110504
vertex 67.16243744 -71.53744507 100.7095261
vertex 77.73757172 -55.1785202 103.8507614

endloop
endfacet
facet normal -0.8122634888 0.4550023079 0.3649669886
outer loop
vertex 77.73757172 -55.1785202 103.8507614
vertex 67.16243744 -71.53744507 100.7095261
vertex 72.62865448 -69.03977966 109.7612076

endloop
endfacet
facet normal -0.9243021607 0.373713702 0.07748310268
outer loop
vertex 77.73757172 -55.1785202 103.8507614
vertex 72.62865448 -69.03977966 109.7612076
vertex 80.25597382 -50.9187088 113.3472137

endloop
endfacet
facet normal -0.9169983268 0.3470619321 0.1966266781
outer loop
vertex 80.25597382 -50.9187088 113.3472137
vertex 72.62865448 -69.03977966 109.7612076
vertex 76.30458832 -64.86386871 119.5336609

endloop
endfacet
facet normal -0.9573729634 0.2867421806 0.03486910462
outer loop
vertex 80.25597382 -50.9187088 113.3472137
vertex 76.30458832 -64.86386871 119.5336609
vertex 82.47005463 -44.66309357 122.6950989

endloop
endfacet
facet normal -0.9574112296 0.2858788967 0.04046002403
outer loop
vertex 82.47005463 -44.66309357 122.6950989
vertex 76.30458832 -64.86386871 119.5336609
vertex 78.7811203 -58.0812912 130.2124481

endloop
endfacet
facet normal -0.9721293449 0.2153913826 -0.09258013964
outer loop
vertex 82.47005463 -44.66309357 122.6950989
vertex 78.7811203 -58.0812912 130.2124481
vertex 83.50795746 -36.09754181 131.7247925

endloop
endfacet
facet normal -0.9669534564 0.2171048969 -0.1336652189
outer loop
vertex 83.50795746 -36.09754181 131.7247925
vertex 78.7811203 -58.0812912 130.2124481
vertex 79.35088348 -48.98468781 140.865799

endloop
endfacet
facet normal -0.9557219744 0.1166673824 -0.2701559663
outer loop
vertex 83.50795746 -36.09754181 131.7247925
vertex 79.35088348 -48.98468781 140.865799
vertex 82.35009003 -26.31342316 140.0462341

endloop
endfacet
facet normal -0.9462739229 0.1142478511 -0.3025113344
outer loop
vertex 82.35009003 -26.31342316 140.0462341
vertex 79.35088348 -48.98468781 140.865799
vertex 77.56017303 -38.61347198 150.3840942

endloop
endfacet
facet normal -0.9028488398 -0.009686819278 -0.4298490584
outer loop
vertex 82.35009003 -26.31342316 140.0462341
vertex 77.56017303 -38.61347198 150.3840942
vertex 79.03301239 -17.43479156 146.8132935

endloop
endfacet
facet normal -0.8907834888 -0.01463025436 -0.4541923404
outer loop
vertex 79.03301239 -17.43479156 146.8132935
vertex 77.56017303 -38.61347198 150.3840942
vertex 73.66265106 -27.87673187 157.682251

endloop
endfacet
facet normal -0.7487638593 -0.2527290881 -0.6127647758
outer loop
vertex 79.03301239 -17.43479156 146.8132935
vertex 73.66265106 -27.87673187 157.682251
vertex 73.67223358 -10.11336517 150.3442078

endloop
endfacet
facet normal -0.803414166 -0.2269640267 -0.5504660606
outer loop
vertex 73.67223358 -10.11336517 150.3442078
vertex 73.66265106 -27.87673187 157.682251
vertex 67.95861053 -16.42176056 161.2843628

endloop
endfacet
facet normal -0.6160796881 -0.4989791811 -0.6094797254
outer loop
vertex 73.67223358 -10.11336517 150.3441925
vertex 67.95861053 -16.42177582 161.2843628
vertex 67.46703339 -2.31844306 150.2349091

endloop
endfacet
facet normal -0.7227262259 -0.4416744113 -0.5315924287
outer loop
vertex 67.46703339 -2.31844306 150.2349091
vertex 67.95861053 -16.42177582 161.2843628
vertex 60.55466461 -3.424431086 160.5515289

endloop
endfacet
facet normal 0.2255023122 -0.9731193185 0.0467703715
outer loop
vertex 67.46703339 -2.31844306 150.2349091
vertex 60.55466461 -3.424416065 160.5515137
vertex 54.88088226 -5.425133228 146.2799683

endloop
endfacet
facet normal 0 0.9899494648 -0.1414213628
outer loop
vertex 54.88088226 -5.425133228 146.2799683
vertex 60.55466461 -3.424416065 160.5515137
vertex 54.88089752 -5.425133228 146.2799683

endloop
endfacet
endsolid
