solid 
facet normal -nan(ind) -nan(ind) -nan(ind)
outer loop
vertex 25.70149994 -23.29843903 115.4061661
vertex 25.70149994 -23.29843903 115.4061661
vertex 16.53466034 -28.58740997 121.950058

endloop
endfacet
facet normal 0.5633264184 0.04443969578 0.8250384331
outer loop
vertex 16.53466034 -28.58740997 121.950058
vertex 25.70149994 -23.29843903 115.4061661
vertex 16.1450119 -24.9562149 122.0205154

endloop
endfacet
facet normal 0.9815919399 0.1083819196 -0.1572603434
outer loop
vertex 16.53466034 -28.58740997 121.950058
vertex 16.1450119 -24.9562149 122.0205154
vertex 17.56678009 -28.8632431 128.2022705

endloop
endfacet
facet normal 0.97891289 0.1644182801 -0.1212277859
outer loop
vertex 17.56678009 -28.8632431 128.2022705
vertex 16.1450119 -24.9562149 122.0205154
vertex 16.94608307 -24.98325348 128.4524841

endloop
endfacet
facet normal 0.8180110455 0.1663687378 -0.5506172776
outer loop
vertex 17.56678009 -28.8632431 128.2022705
vertex 16.94608307 -24.98325348 128.4524841
vertex 21.75429535 -27.43950653 134.8535309

endloop
endfacet
facet normal 0.8182927966 0.2361427099 -0.5240548253
outer loop
vertex 21.75429535 -27.43950653 134.8535309
vertex 16.94608307 -24.98325348 128.4524841
vertex 21.01361847 -23.69580841 135.3839264

endloop
endfacet
facet normal 0.5020921826 0.217907995 -0.836910665
outer loop
vertex 21.75429535 -27.43950653 134.8535309
vertex 21.01361847 -23.69580841 135.3839264
vertex 29.30892181 -25.49449921 139.8922424

endloop
endfacet
facet normal 0.5050308108 0.3216726482 -0.8009185195
outer loop
vertex 29.30892181 -25.49449921 139.8922424
vertex 21.01361847 -23.69580841 135.3839264
vertex 28.46221161 -21.83144379 140.8295288

endloop
endfacet
facet normal 0.1628214717 0.2797375321 -0.9461691976
outer loop
vertex 29.30892181 -25.49449921 139.8922424
vertex 28.46221161 -21.83144379 140.8295288
vertex 37.33158112 -23.46990204 141.8713989

endloop
endfacet
facet normal 0.1780620068 0.3891906738 -0.9037834406
outer loop
vertex 37.33158112 -23.46990204 141.8713989
vertex 28.46221161 -21.83144379 140.8295288
vertex 36.92505646 -20.05979156 143.2597809

endloop
endfacet
facet normal -0.3421360552 0.3190518022 -0.8838263154
outer loop
vertex 37.33158112 -23.46990204 141.8713989
vertex 36.92505646 -20.05979156 143.2597809
vertex 42.96999359 -21.74037933 140.3130646

endloop
endfacet
facet normal -0.2384358197 0.5480850339 -0.801717639
outer loop
vertex 42.96999359 -21.74037933 140.3130646
vertex 36.92505646 -20.05979156 143.2597809
vertex 43.65964508 -19.04178619 141.9528198

endloop
endfacet
facet normal -0.6586768031 0.5064551234 -0.5564603806
outer loop
vertex 42.96999359 -21.74037933 140.3130646
vertex 43.65964508 -19.04178619 141.9528198
vertex 47.02674103 -21.11423492 136.0810089

endloop
endfacet
facet normal -0.4757396281 0.7075515985 -0.5225347877
outer loop
vertex 47.02674103 -21.11423492 136.0810089
vertex 43.65964508 -19.04178619 141.9528198
vertex 48.06143951 -19.51544952 137.3038483

endloop
endfacet
facet normal -0.6410961151 0.6828434467 -0.3503149748
outer loop
vertex 47.02674103 -21.11423492 136.0810089
vertex 48.06143951 -19.51544952 137.3038483
vertex 49.63819122 -22.22864532 129.1296692

endloop
endfacet
facet normal -nan(ind) -nan(ind) -nan(ind)
outer loop
vertex 49.63819122 -22.22864532 129.1296692
vertex 48.06143951 -19.51544952 137.3038483
vertex 49.63819122 -22.22864532 129.1296692

endloop
endfacet
facet normal -0.5716106892 0.3669499457 -0.7338998914
outer loop
vertex 25.70149994 -23.29843903 115.4061661
vertex 25.70149994 -23.29845428 115.4061584
vertex 16.1450119 -24.9562149 122.0205154

endloop
endfacet
facet normal 0.570336163 -0.01071623713 0.8213415146
outer loop
vertex 16.1450119 -24.9562149 122.0205154
vertex 25.70149994 -23.29845428 115.4061584
vertex 16.6845932 -21.48311615 121.6911469

endloop
endfacet
facet normal 0.9788618088 -0.1637029052 -0.122600764
outer loop
vertex 16.1450119 -24.9562149 122.0205154
vertex 16.6845932 -21.48311615 121.6911469
vertex 16.94608307 -24.98325348 128.4524841

endloop
endfacet
facet normal 0.9874575138 -0.1213478222 -0.1010072604
outer loop
vertex 16.94608307 -24.98325348 128.4524841
vertex 16.6845932 -21.48311615 121.6911469
vertex 17.42584991 -20.66596222 127.9560394

endloop
endfacet
facet normal 0.8645538092 -0.1511851102 -0.47925964
outer loop
vertex 16.94608307 -24.98325348 128.4524841
vertex 17.42584991 -20.66596222 127.9560394
vertex 21.01361847 -23.69580841 135.3839264

endloop
endfacet
facet normal 0.8731401563 -0.1226797253 -0.4717796445
outer loop
vertex 21.01361847 -23.69580841 135.3839264
vertex 17.42584991 -20.66596222 127.9560394
vertex 21.28141022 -19.22557831 134.7171173

endloop
endfacet
facet normal 0.607884407 -0.152648434 -0.7792143822
outer loop
vertex 21.01361847 -23.69580841 135.3839264
vertex 21.28141022 -19.22557831 134.7171173
vertex 28.46221161 -21.83144379 140.8295288

endloop
endfacet
facet normal 0.634741962 -0.05825689062 -0.770524919
outer loop
vertex 28.46221161 -21.83144379 140.8295288
vertex 21.28141022 -19.22557831 134.7171173
vertex 28.20374298 -17.03160858 140.2537079

endloop
endfacet
facet normal 0.2936252058 -0.09825973958 -0.9508571029
outer loop
vertex 28.46221161 -21.83144379 140.8295288
vertex 28.20374298 -17.03160858 140.2537079
vertex 36.92505646 -20.05979156 143.2597809

endloop
endfacet
facet normal 0.3132682443 -0.03967978805 -0.9488353133
outer loop
vertex 36.92505646 -20.05979156 143.2597809
vertex 28.20374298 -17.03160858 140.2537079
vertex 36.78824615 -15.33440399 143.0169983

endloop
endfacet
facet normal -0.1820946187 -0.05571023747 -0.9817016125
outer loop
vertex 36.92505646 -20.05979156 143.2597809
vertex 36.78824615 -15.33440399 143.0169983
vertex 43.65964508 -19.04178619 141.9528198

endloop
endfacet
facet normal -0.1189383119 0.06396878511 -0.9908388257
outer loop
vertex 43.65964508 -19.04178619 141.9528198
vertex 36.78824615 -15.33440399 143.0169983
vertex 44.69403839 -15.44185638 142.0610657

endloop
endfacet
facet normal -0.6969023943 0.2207631767 -0.6823420525
outer loop
vertex 43.65964508 -19.04178619 141.9528198
vertex 44.69403839 -15.44185638 142.0610657
vertex 48.06143951 -19.51544952 137.3038483

endloop
endfacet
facet normal -0.5372145176 0.4140527546 -0.7348202467
outer loop
vertex 48.06143951 -19.51544952 137.3038483
vertex 44.69403839 -15.44185638 142.0610657
vertex 49.39025116 -17.53682709 137.4472809

endloop
endfacet
facet normal -0.7726694942 0.5427770019 -0.3292034864
outer loop
vertex 48.06143951 -19.51544952 137.3038483
vertex 49.39025116 -17.53682709 137.4472809
vertex 49.63819122 -22.22864532 129.1296692

endloop
endfacet
facet normal 0 -0.8710503578 0.4911938012
outer loop
vertex 49.63819122 -22.22864532 129.1296692
vertex 49.39025116 -17.53682709 137.4472809
vertex 49.63817596 -22.22864532 129.1296692

endloop
endfacet
facet normal 0.571821928 0 0.8203778267
outer loop
vertex 25.70149994 -23.29845428 115.4061584
vertex 25.70149994 -23.29843903 115.4061584
vertex 16.6845932 -21.48311615 121.6911469

endloop
endfacet
facet normal 0.5584731102 -0.08341051638 0.8253184557
outer loop
vertex 16.6845932 -21.48311615 121.6911469
vertex 25.70149994 -23.29843903 115.4061584
vertex 17.9527359 -18.75371552 121.1088715

endloop
endfacet
facet normal 0.9015584588 -0.4296852648 -0.05062612891
outer loop
vertex 16.6845932 -21.48311615 121.6911469
vertex 17.9527359 -18.75371552 121.1088715
vertex 17.42584991 -20.66596222 127.9560394

endloop
endfacet
facet normal 0.9292262793 -0.3681812882 -0.031320557
outer loop
vertex 17.42584991 -20.66596222 127.9560394
vertex 17.9527359 -18.75371552 121.1088715
vertex 18.79001617 -17.13822174 126.9589691

endloop
endfacet
facet normal 0.8223304152 -0.4249453247 -0.3784101009
outer loop
vertex 17.42584991 -20.66596222 127.9560394
vertex 18.79001617 -17.13822174 126.9589691
vertex 21.28141022 -19.22557831 134.7171173

endloop
endfacet
facet normal 0.8335314393 -0.4043499231 -0.376465857
outer loop
vertex 21.28141022 -19.22557831 134.7171173
vertex 18.79001617 -17.13822174 126.9589691
vertex 22.38677216 -15.50455475 133.1678619

endloop
endfacet
facet normal 0.6404877901 -0.4495112598 -0.6226676106
outer loop
vertex 21.28141022 -19.22557831 134.7171173
vertex 22.38677216 -15.50455475 133.1678619
vertex 28.20374298 -17.03160858 140.2537079

endloop
endfacet
facet normal 0.6867944598 -0.3471104801 -0.6386138797
outer loop
vertex 28.20374298 -17.03160858 140.2537079
vertex 22.38677216 -15.50455475 133.1678619
vertex 28.54141998 -12.79080963 138.3118286

endloop
endfacet
facet normal 0.3520149887 -0.4127111435 -0.8400922418
outer loop
vertex 28.20374298 -17.03160858 140.2537079
vertex 28.54141998 -12.79080963 138.3118286
vertex 36.78824615 -15.33440399 143.0169983

endloop
endfacet
facet normal 0.3588939309 -0.3980724812 -0.8442353606
outer loop
vertex 36.78824615 -15.33440399 143.0169983
vertex 28.54141998 -12.79080963 138.3118286
vertex 37.032341 -10.83203888 140.997818

endloop
endfacet
facet normal -0.1153265759 -0.4012616575 -0.9086742401
outer loop
vertex 36.78824615 -15.33440399 143.0169983
vertex 37.032341 -10.83203888 140.997818
vertex 44.69403839 -15.44185638 142.0610657

endloop
endfacet
facet normal -0.1069408357 -0.3888046741 -0.9150927067
outer loop
vertex 44.69403839 -15.44185638 142.0610657
vertex 37.032341 -10.83203888 140.997818
vertex 46.06627655 -11.71833038 140.3186493

endloop
endfacet
facet normal -0.7136641741 -0.06343694776 -0.6976095438
outer loop
vertex 44.69403839 -15.44185638 142.0610657
vertex 46.06627655 -11.71833038 140.3186493
vertex 49.39025116 -17.53682709 137.4472809

endloop
endfacet
facet normal -0.6196250319 0.03301854059 -0.7842031717
outer loop
vertex 49.39025116 -17.53682709 137.4472809
vertex 46.06627655 -11.71833038 140.3186493
vertex 50.94327545 -15.36858368 136.3114777

endloop
endfacet
facet normal -0.8437542319 0.4563322663 -0.282558918
outer loop
vertex 49.39025116 -17.53682709 137.4472809
vertex 50.94327545 -15.36858368 136.3114777
vertex 49.63817596 -22.22864532 129.1296692

endloop
endfacet
facet normal 0 0.7226418257 -0.6912226677
outer loop
vertex 49.63817596 -22.22864532 129.1296692
vertex 50.94327545 -15.36858368 136.3114777
vertex 49.63819122 -22.22864532 129.1296692

endloop
endfacet
facet normal 0.3681501448 -0.4158041477 0.8316082954
outer loop
vertex 25.70149994 -23.29843903 115.4061584
vertex 25.70149994 -23.29842377 115.4061661
vertex 17.9527359 -18.75371552 121.1088715

endloop
endfacet
facet normal 0.5338645577 -0.1368010044 0.8344304562
outer loop
vertex 17.9527359 -18.75371552 121.1088715
vertex 25.70149994 -23.29842377 115.4061661
vertex 19.63140106 -16.32370758 120.4332581

endloop
endfacet
facet normal 0.8269472718 -0.5610877872 0.0365886502
outer loop
vertex 17.9527359 -18.75371552 121.1088715
vertex 19.63140106 -16.32370758 120.4332581
vertex 18.79001617 -17.13822174 126.9589691

endloop
endfacet
facet normal 0.8369845152 -0.5457777381 0.03979373723
outer loop
vertex 18.79001617 -17.13822174 126.9589691
vertex 19.63140106 -16.32370758 120.4332581
vertex 20.76122284 -14.2075882 125.6925659

endloop
endfacet
facet normal 0.7418047786 -0.6147503853 -0.2679694593
outer loop
vertex 18.79001617 -17.13822174 126.9589691
vertex 20.76122284 -14.2075882 125.6925659
vertex 22.38677216 -15.50455475 133.1678619

endloop
endfacet
facet normal 0.7136753798 -0.6473821402 -0.2675141692
outer loop
vertex 22.38677216 -15.50455475 133.1678619
vertex 20.76122284 -14.2075882 125.6925659
vertex 24.13816071 -12.73162079 131.1297455

endloop
endfacet
facet normal 0.623480916 -0.678858161 -0.3878441751
outer loop
vertex 22.38677216 -15.50455475 133.1678619
vertex 24.13816071 -12.73162079 131.1297455
vertex 28.54141998 -12.79080963 138.3118286

endloop
endfacet
facet normal 0.6858631372 -0.5904737711 -0.4253616333
outer loop
vertex 28.54141998 -12.79080963 138.3118286
vertex 24.13816071 -12.73162079 131.1297455
vertex 29.45404816 -9.810585022 135.6463165

endloop
endfacet
facet normal 0.3590105772 -0.6808878183 -0.6383596659
outer loop
vertex 28.54141998 -12.79080963 138.3118286
vertex 29.45404816 -9.810585022 135.6463165
vertex 37.032341 -10.83203888 140.997818

endloop
endfacet
facet normal 0.3618786037 -0.67635113 -0.6415551901
outer loop
vertex 37.032341 -10.83203888 140.997818
vertex 29.45404816 -9.810585022 135.6463165
vertex 37.5147171 -7.744438171 138.0148468

endloop
endfacet
facet normal -0.1210746989 -0.6798563004 -0.7232816219
outer loop
vertex 37.032341 -10.83203888 140.997818
vertex 37.5147171 -7.744438171 138.0148468
vertex 46.06627655 -11.71833038 140.3186493

endloop
endfacet
facet normal -0.1535812616 -0.7217559814 -0.6748934388
outer loop
vertex 46.06627655 -11.71833038 140.3186493
vertex 37.5147171 -7.744438171 138.0148468
vertex 47.11721039 -9.291679382 137.4843445

endloop
endfacet
facet normal -0.7374047637 -0.3531481624 -0.5757782459
outer loop
vertex 46.06627655 -11.71833038 140.3186493
vertex 47.11721039 -9.291679382 137.4843445
vertex 50.94327545 -15.36858368 136.3114777

endloop
endfacet
facet normal -0.7034910917 -0.3204936385 -0.6343375444
outer loop
vertex 50.94327545 -15.36858368 136.3114777
vertex 47.11721039 -9.291679382 137.4843445
vertex 52.04261017 -14.03011322 134.4160461

endloop
endfacet
facet normal -0.8853149414 0.4059067965 -0.226841867
outer loop
vertex 50.94327545 -15.36858368 136.3114777
vertex 52.04261017 -14.03011322 134.4160461
vertex 49.63819122 -22.22864532 129.1296692

endloop
endfacet
facet normal 0.6914881468 0.2409731448 -0.6810110807
outer loop
vertex 49.63819122 -22.22864532 129.1296692
vertex 52.04261017 -14.03011322 134.4160461
vertex 49.63820648 -22.22864532 129.1296844

endloop
endfacet
facet normal -0.6378359199 0 -0.770172298
outer loop
vertex 25.70149994 -23.29842377 115.4061661
vertex 25.70149994 -23.29843903 115.4061661
vertex 19.63140106 -16.32370758 120.4332581

endloop
endfacet
facet normal 0.5033757687 -0.1722030789 0.8467342257
outer loop
vertex 19.63140106 -16.32370758 120.4332581
vertex 25.70149994 -23.29843903 115.4061661
vertex 21.67156219 -14.2935257 119.6332855

endloop
endfacet
facet normal 0.7233433127 -0.6802750826 0.1183224767
outer loop
vertex 19.63140106 -16.32370758 120.4332581
vertex 21.67156219 -14.2935257 119.6332855
vertex 20.76122284 -14.2075882 125.6925659

endloop
endfacet
facet normal 0.6045947075 -0.7899706364 0.1020375937
outer loop
vertex 20.76122284 -14.2075882 125.6925659
vertex 21.67156219 -14.2935257 119.6332855
vertex 23.38167572 -12.40988922 124.0835266

endloop
endfacet
facet normal 0.5229097605 -0.8470978737 -0.09481845051
outer loop
vertex 20.76122284 -14.2075882 125.6925659
vertex 23.38167572 -12.40988922 124.0835266
vertex 24.13816071 -12.73162079 131.1297455

endloop
endfacet
facet normal 0.2285285294 -0.9710977674 -0.06887540221
outer loop
vertex 24.13816071 -12.73162079 131.1297455
vertex 23.38167572 -12.40988922 124.0835266
vertex 26.69232941 -11.95011139 128.5857086

endloop
endfacet
facet normal 0.3978385627 -0.9095726013 0.1200089678
outer loop
vertex 24.13816071 -12.73162079 131.1297455
vertex 26.69232941 -11.95011139 128.5857086
vertex 29.45404816 -9.810585022 135.6463165

endloop
endfacet
facet normal 0.5709420443 -0.8205991983 0.02533947863
outer loop
vertex 29.45404816 -9.810585022 135.6463165
vertex 26.69232941 -11.95011139 128.5857086
vertex 31.02085114 -8.816108704 132.5488892

endloop
endfacet
facet normal 0.2883462012 -0.9445024133 -0.1573898345
outer loop
vertex 29.45404816 -9.810585022 135.6463165
vertex 31.02085114 -8.816108704 132.5488892
vertex 37.5147171 -7.744438171 138.0148468

endloop
endfacet
facet normal 0.4085296988 -0.8557129502 -0.3175828755
outer loop
vertex 37.5147171 -7.744438171 138.0148468
vertex 31.02085114 -8.816108704 132.5488892
vertex 38.16643524 -6.206459045 134.7091827

endloop
endfacet
facet normal -0.166425854 -0.8810721636 -0.4427351058
outer loop
vertex 37.5147171 -7.744438171 138.0148468
vertex 38.16643524 -6.206459045 134.7091827
vertex 47.11721039 -9.291679382 137.4843445

endloop
endfacet
facet normal -0.2034080029 -0.9115540981 -0.3573434651
outer loop
vertex 47.11721039 -9.291679382 137.4843445
vertex 38.16643524 -6.206459045 134.7091827
vertex 47.73433685 -8.181189537 134.300293

endloop
endfacet
facet normal -0.7533802986 -0.5617010593 -0.3419210911
outer loop
vertex 47.11721039 -9.291679382 137.4843445
vertex 47.73433685 -8.181189537 134.300293
vertex 52.04261017 -14.03011322 134.4160461

endloop
endfacet
facet normal -0.7614753842 -0.5671095252 -0.3139138222
outer loop
vertex 52.04261017 -14.03011322 134.4160461
vertex 47.73433685 -8.181189537 134.300293
vertex 52.59371185 -13.58394623 132.2731781

endloop
endfacet
facet normal -0.9152664542 0.3704633415 -0.1582535058
outer loop
vertex 52.04261017 -14.03011322 134.4160461
vertex 52.59371185 -13.58394623 132.2731781
vertex 49.63820648 -22.22864532 129.1296844

endloop
endfacet
facet normal -0.3490524888 -0.2141913027 0.9122962356
outer loop
vertex 49.63820648 -22.22864532 129.1296844
vertex 52.59371185 -13.58394623 132.2731781
vertex 49.63817596 -22.22866058 129.1296692

endloop
endfacet
facet normal 0 -0.4249337912 0.9052245021
outer loop
vertex 25.70149994 -23.29843903 115.4061661
vertex 25.7015152 -23.29843903 115.4061661
vertex 21.67154694 -14.2935257 119.6332855

endloop
endfacet
facet normal 0.4599293768 -0.2002565712 0.8650793433
outer loop
vertex 21.67154694 -14.2935257 119.6332855
vertex 25.7015152 -23.29843903 115.4061661
vertex 24.05341339 -12.88768768 118.6923752

endloop
endfacet
facet normal 0.5439506769 -0.8271713853 0.1410855204
outer loop
vertex 21.67154694 -14.2935257 119.6332855
vertex 24.05341339 -12.88768768 118.6923752
vertex 23.38167572 -12.40988922 124.0835266

endloop
endfacet
facet normal 0.3621160388 -0.9234461784 0.12696141
outer loop
vertex 23.38167572 -12.40988922 124.0835266
vertex 24.05341339 -12.88768768 118.6923752
vertex 26.22714996 -11.52048492 122.4367676

endloop
endfacet
facet normal 0.2513420284 -0.9640370011 -0.08637053519
outer loop
vertex 23.38167572 -12.40988922 124.0835266
vertex 26.22714996 -11.52048492 122.4367676
vertex 26.69229889 -11.95011139 128.5857086

endloop
endfacet
facet normal -0.1500449181 -0.9869992733 -0.05761118606
outer loop
vertex 26.69229889 -11.95011139 128.5857086
vertex 26.22714996 -11.52048492 122.4367676
vertex 29.15093231 -12.19005585 126.2930908

endloop
endfacet
facet normal 0.2782040834 -0.8776900768 0.3902084529
outer loop
vertex 26.69229889 -11.95011139 128.5857086
vertex 29.15093231 -12.19005585 126.2930908
vertex 31.02083588 -8.816108704 132.5488892

endloop
endfacet
facet normal 0.5430317521 -0.7961149216 0.2670534253
outer loop
vertex 31.02083588 -8.816108704 132.5488892
vertex 29.15093231 -12.19005585 126.2930908
vertex 32.47397614 -8.777870178 129.7080383

endloop
endfacet
facet normal 0.3015532792 -0.9428822994 0.1415578723
outer loop
vertex 31.02083588 -8.816108704 132.5488892
vertex 32.47397614 -8.777870178 129.7080383
vertex 38.1664505 -6.206459045 134.709198

endloop
endfacet
facet normal 0.4905149639 -0.8639281392 -0.1141193956
outer loop
vertex 38.1664505 -6.206459045 134.709198
vertex 32.47397614 -8.777870178 129.7080383
vertex 38.80182648 -5.421210766 131.495575

endloop
endfacet
facet normal -0.2056704462 -0.9405013919 -0.2704751194
outer loop
vertex 38.1664505 -6.206459045 134.709198
vertex 38.80182648 -5.421210766 131.495575
vertex 47.73433685 -8.181189537 134.3003082

endloop
endfacet
facet normal -0.2229861021 -0.9488453865 -0.2235389799
outer loop
vertex 47.73433685 -8.181189537 134.3003082
vertex 38.80182648 -5.421210766 131.495575
vertex 48.26236725 -7.559073925 131.1329193

endloop
endfacet
facet normal -0.7647644877 -0.5960871577 -0.2445717901
outer loop
vertex 47.73433685 -8.181189537 134.3003082
vertex 48.26236725 -7.559073925 131.1329193
vertex 52.59372711 -13.58394623 132.2731934

endloop
endfacet
facet normal -0.7757326961 -0.5966083407 -0.2056626976
outer loop
vertex 52.59372711 -13.58394623 132.2731934
vertex 48.26236725 -7.559073925 131.1329193
vertex 53.01470184 -13.39191437 130.1282654

endloop
endfacet
facet normal -0.9182730913 0.3675198257 -0.1473216116
outer loop
vertex 52.59372711 -13.58394623 132.2731934
vertex 53.01470184 -13.39191437 130.1282654
vertex 49.63819122 -22.22864532 129.1296692

endloop
endfacet
facet normal -nan(ind) -nan(ind) -nan(ind)
outer loop
vertex 49.63819122 -22.22864532 129.1296692
vertex 53.01470184 -13.39191437 130.1282654
vertex 49.63819122 -22.22864532 129.1296692

endloop
endfacet
facet normal -0.2063149363 0.2646878362 -0.9420055151
outer loop
vertex 25.7015152 -23.29843903 115.4061661
vertex 25.70149994 -23.29842377 115.4061737
vertex 24.05341339 -12.88768768 118.6923752

endloop
endfacet
facet normal 0.4380148053 -0.2068119347 0.8748552203
outer loop
vertex 24.05341339 -12.88768768 118.6923752
vertex 25.70149994 -23.29842377 115.4061737
vertex 26.59673309 -11.71883392 117.6953201

endloop
endfacet
facet normal 0.4395902455 -0.8953306079 0.07171925902
outer loop
vertex 24.05341339 -12.88768768 118.6923752
vertex 26.59673309 -11.71883392 117.6953201
vertex 26.22714996 -11.52048492 122.4367676

endloop
endfacet
facet normal 0.589972198 -0.8034903407 0.07959917188
outer loop
vertex 26.22714996 -11.52048492 122.4367676
vertex 26.59673309 -11.71883392 117.6953201
vertex 28.66573334 -9.858970642 121.1341705

endloop
endfacet
facet normal 0.3519536257 -0.8401172161 -0.4127127528
outer loop
vertex 26.22714996 -11.52048492 122.4367676
vertex 28.66573334 -9.858970642 121.1341705
vertex 29.15093231 -12.19005585 126.2930908

endloop
endfacet
facet normal 0.6061752439 -0.7018344998 -0.3741386831
outer loop
vertex 29.15093231 -12.19005585 126.2930908
vertex 28.66573334 -9.858970642 121.1341705
vertex 30.55799103 -10.22026825 124.8777313

endloop
endfacet
facet normal 0.7670157552 -0.6310939193 -0.1157901734
outer loop
vertex 29.15093231 -12.19005585 126.2930908
vertex 30.55799103 -10.22026825 124.8777313
vertex 32.47397614 -8.777870178 129.7080383

endloop
endfacet
facet normal 0.7923432589 -0.5945518613 -0.1367485225
outer loop
vertex 32.47397614 -8.777870178 129.7080383
vertex 30.55799103 -10.22026825 124.8777313
vertex 33.16077423 -7.379004955 127.6055069

endloop
endfacet
facet normal 0.5142906904 -0.7819378376 -0.3522476554
outer loop
vertex 32.47397614 -8.777870178 129.7080383
vertex 33.16077423 -7.379004955 127.6055069
vertex 38.80182648 -5.421210766 131.495575

endloop
endfacet
facet normal 0.3857950866 -0.9173922539 -0.09774248302
outer loop
vertex 38.80182648 -5.421210766 131.495575
vertex 33.16077423 -7.379004955 127.6055069
vertex 39.22537994 -4.936545849 128.6183929

endloop
endfacet
facet normal -0.2233023494 -0.9552907944 -0.193792522
outer loop
vertex 38.80182648 -5.421210766 131.495575
vertex 39.22537994 -4.936545849 128.6183929
vertex 48.26236725 -7.559073925 131.1329193

endloop
endfacet
facet normal -0.2716024518 -0.9620242715 -0.02722889557
outer loop
vertex 48.26236725 -7.559073925 131.1329193
vertex 39.22537994 -4.936545849 128.6183929
vertex 48.59095001 -7.569159985 128.211731

endloop
endfacet
facet normal -0.7795804143 -0.6204320788 -0.08554702252
outer loop
vertex 48.26236725 -7.559073925 131.1329193
vertex 48.59095001 -7.569159985 128.211731
vertex 53.01470184 -13.39191437 130.1282654

endloop
endfacet
facet normal -0.78827703 -0.6136764884 -0.04494863376
outer loop
vertex 53.01470184 -13.39191437 130.1282654
vertex 48.59095001 -7.569159985 128.211731
vertex 53.23171234 -13.52635956 128.1580505

endloop
endfacet
facet normal -0.9217701554 0.3665074706 -0.126538977
outer loop
vertex 53.01470184 -13.39191437 130.1282654
vertex 53.23171234 -13.52635956 128.1580505
vertex 49.63819122 -22.22864532 129.1296692

endloop
endfacet
facet normal 0 -0.1116169989 -0.9937513471
outer loop
vertex 49.63819122 -22.22864532 129.1296692
vertex 53.23171234 -13.52635956 128.1580505
vertex 49.63820648 -22.22864532 129.1296692

endloop
endfacet
facet normal 0.9614720345 -0.1229403168 0.2458806336
outer loop
vertex 25.70149994 -23.29842377 115.4061737
vertex 25.70149994 -23.29845428 115.4061584
vertex 26.59673309 -11.71883392 117.6953201

endloop
endfacet
facet normal 0.4106647074 -0.2072794437 0.8879131079
outer loop
vertex 26.59673309 -11.71883392 117.6953201
vertex 25.70149994 -23.29845428 115.4061584
vertex 29.19080353 -11.16764069 116.6242218

endloop
endfacet
facet normal 0.3145863414 -0.9011961222 0.2981294096
outer loop
vertex 26.59673309 -11.71883392 117.6953201
vertex 29.19080353 -11.16764069 116.6242218
vertex 28.66573334 -9.858970642 121.1341705

endloop
endfacet
facet normal 0.5777848959 -0.7633922696 0.2887851596
outer loop
vertex 28.66573334 -9.858970642 121.1341705
vertex 29.19080353 -11.16764069 116.6242218
vertex 31.27129364 -8.501853943 119.5085983

endloop
endfacet
facet normal 0.3200291395 -0.9138384461 -0.2499613017
outer loop
vertex 28.66573334 -9.858970642 121.1341705
vertex 31.27129364 -8.501853943 119.5085983
vertex 30.55799103 -10.22026825 124.8777313

endloop
endfacet
facet normal 0.6892040372 -0.7116503716 -0.1362043321
outer loop
vertex 30.55799103 -10.22026825 124.8777313
vertex 31.27129364 -8.501853943 119.5085983
vertex 32.51161957 -7.929526806 122.7944031

endloop
endfacet
facet normal 0.7491351962 -0.6619324684 -0.02533646487
outer loop
vertex 30.55799103 -10.22026825 124.8777313
vertex 32.51161957 -7.929526806 122.7944031
vertex 33.16077423 -7.379004955 127.6055069

endloop
endfacet
facet normal 0.6231083274 -0.7821167111 0.005420516711
outer loop
vertex 33.16077423 -7.379004955 127.6055069
vertex 32.51161957 -7.929526806 122.7944031
vertex 34.38871002 -6.418114185 125.0949936

endloop
endfacet
facet normal 0.3912945688 -0.9069885015 -0.1557579041
outer loop
vertex 33.16077423 -7.379004955 127.6055069
vertex 34.38871002 -6.418114185 125.0949936
vertex 39.22537994 -4.936545849 128.6183929

endloop
endfacet
facet normal 0.04767990857 -0.9424765706 0.3308542371
outer loop
vertex 39.22537994 -4.936545849 128.6183929
vertex 34.38871002 -6.418114185 125.0949936
vertex 39.76898956 -5.886269093 125.8346558

endloop
endfacet
facet normal -0.2498367131 -0.9302887917 0.2685969174
outer loop
vertex 39.22537994 -4.936545849 128.6183929
vertex 39.76898956 -5.886269093 125.8346558
vertex 48.59095001 -7.569159985 128.211731

endloop
endfacet
facet normal -0.2759029567 -0.8704290986 0.4077143073
outer loop
vertex 48.59095001 -7.569159985 128.211731
vertex 39.76898956 -5.886269093 125.8346558
vertex 48.54842377 -8.797554016 125.5604553

endloop
endfacet
facet normal -0.7547439933 -0.5905333161 0.2857130468
outer loop
vertex 48.59095001 -7.569159985 128.211731
vertex 48.54842377 -8.797554016 125.5604553
vertex 53.23171234 -13.52635956 128.1580505

endloop
endfacet
facet normal -0.7551168799 -0.5683733225 0.3267264962
outer loop
vertex 53.23171234 -13.52635956 128.1580505
vertex 48.54842377 -8.797554016 125.5604553
vertex 52.99741364 -14.22667694 126.3982773

endloop
endfacet
facet normal -0.9250274301 0.3788947761 -0.02762506716
outer loop
vertex 53.23171234 -13.52635956 128.1580505
vertex 52.99741364 -14.22667694 126.3982773
vertex 49.63820648 -22.22864532 129.1296692

endloop
endfacet
facet normal -0.455085814 0.455085814 0.7653716207
outer loop
vertex 49.63820648 -22.22864532 129.1296692
vertex 52.99741364 -14.22667694 126.3982773
vertex 49.63819122 -22.22866058 129.1296692

endloop
endfacet
facet normal -nan(ind) -nan(ind) -nan(ind)
outer loop
vertex 25.7015152 -23.29842377 115.4061737
vertex 25.7015152 -23.29842377 115.4061737
vertex 29.19083405 -11.16761017 116.6242218

endloop
endfacet
facet normal 0.4057527184 -0.206119433 0.8904377818
outer loop
vertex 29.19083405 -11.16761017 116.6242218
vertex 25.7015152 -23.29842377 115.4061737
vertex 31.86794281 -11.25499725 115.3840942

endloop
endfacet
facet normal 0.2349027246 -0.7924193144 0.5629318953
outer loop
vertex 29.19083405 -11.16761017 116.6242218
vertex 31.86794281 -11.25499725 115.3840942
vertex 31.2713089 -8.501823425 119.508606

endloop
endfacet
facet normal 0.2513809502 -0.7878317833 0.5622532964
outer loop
vertex 31.2713089 -8.501823425 119.508606
vertex 31.86794281 -11.25499725 115.3840942
vertex 34.11832428 -8.992424011 117.5482864

endloop
endfacet
facet normal -0.04081907868 -0.981628418 0.1863854229
outer loop
vertex 31.2713089 -8.501823425 119.508606
vertex 34.11832428 -8.992424011 117.5482864
vertex 32.51163483 -7.929512024 122.7944107

endloop
endfacet
facet normal 0.00306410878 -0.9798981547 0.1994746029
outer loop
vertex 32.51163483 -7.929512024 122.7944107
vertex 34.11832428 -8.992424011 117.5482864
vertex 34.96347809 -8.427879333 120.3085709

endloop
endfacet
facet normal 0.2250256389 -0.8884328008 0.4000633657
outer loop
vertex 32.51163483 -7.929512024 122.7944107
vertex 34.96347809 -8.427879333 120.3085709
vertex 34.38872528 -6.418114185 125.0950012

endloop
endfacet
facet normal 0.09048361331 -0.9143119454 0.3947739005
outer loop
vertex 34.38872528 -6.418114185 125.0950012
vertex 34.96347809 -8.427879333 120.3085709
vertex 36.0467453 -7.404349804 122.4308167

endloop
endfacet
facet normal 0.04102054611 -0.9284363985 0.3692198396
outer loop
vertex 34.38872528 -6.418114185 125.0950012
vertex 36.0467453 -7.404349804 122.4308167
vertex 39.76898956 -5.88625288 125.8346634

endloop
endfacet
facet normal -0.1092428714 -0.8578949571 0.5020779371
outer loop
vertex 39.76898956 -5.88625288 125.8346634
vertex 36.0467453 -7.404349804 122.4308167
vertex 40.41718292 -7.485496998 123.2430878

endloop
endfacet
facet normal -0.267102927 -0.8485177755 0.4568080306
outer loop
vertex 39.76898956 -5.88625288 125.8346634
vertex 40.41718292 -7.485496998 123.2430878
vertex 48.54845428 -8.797538757 125.560463

endloop
endfacet
facet normal -0.2876505554 -0.7650399208 0.5761692524
outer loop
vertex 48.54845428 -8.797538757 125.560463
vertex 40.41718292 -7.485496998 123.2430878
vertex 48.30283356 -10.45250702 123.2403641

endloop
endfacet
facet normal -0.7235280871 -0.5234629512 0.4499928951
outer loop
vertex 48.54845428 -8.797538757 125.560463
vertex 48.30283356 -10.45250702 123.2403641
vertex 52.99742889 -14.22666168 126.3982849

endloop
endfacet
facet normal -0.7158672214 -0.4304440022 0.5497745872
outer loop
vertex 52.99742889 -14.22666168 126.3982849
vertex 48.30283356 -10.45250702 123.2403641
vertex 52.47942352 -15.31919098 124.8683929

endloop
endfacet
facet normal -0.9181427956 0.3952130377 0.02864326909
outer loop
vertex 52.99742889 -14.22666168 126.3982849
vertex 52.47942352 -15.31919098 124.8683929
vertex 49.63820648 -22.22863007 129.1296844

endloop
endfacet
facet normal 0 -0.525822103 -0.8505945802
outer loop
vertex 49.63820648 -22.22863007 129.1296844
vertex 52.47942352 -15.31919098 124.8683929
vertex 49.63822174 -22.22863007 129.1296844

endloop
endfacet
facet normal 0.6592024565 -0.3362891972 0.6725783944
outer loop
vertex 25.7015152 -23.29842377 115.4061737
vertex 25.7015152 -23.29843903 115.4061661
vertex 31.86794281 -11.25499725 115.3840942

endloop
endfacet
facet normal 0.3010696769 -0.1524271369 0.9413411021
outer loop
vertex 31.86794281 -11.25499725 115.3840942
vertex 25.7015152 -23.29843903 115.4061661
vertex 34.12189484 -13.12418365 114.3605423

endloop
endfacet
facet normal -0.1455571949 -0.6044231057 0.7832533121
outer loop
vertex 31.86794281 -11.25499725 115.3840942
vertex 34.12189484 -13.12418365 114.3605423
vertex 34.11832428 -8.992424011 117.5482864

endloop
endfacet
facet normal -0.08457970619 -0.6087068915 0.7888739705
outer loop
vertex 34.11832428 -8.992424011 117.5482864
vertex 34.12189484 -13.12418365 114.3605423
vertex 36.56832123 -11.48607635 115.8868256

endloop
endfacet
facet normal -0.5562644601 -0.7641337514 0.3266028166
outer loop
vertex 34.11832428 -8.992424011 117.5482864
vertex 36.56832123 -11.48607635 115.8868256
vertex 34.96347809 -8.427879333 120.3085709

endloop
endfacet
facet normal -0.7359833717 -0.6516370177 0.1835692376
outer loop
vertex 34.96347809 -8.427879333 120.3085709
vertex 36.56832123 -11.48607635 115.8868256
vertex 37.08414459 -11.37612247 118.3452301

endloop
endfacet
facet normal -0.4458861053 -0.695741713 0.5631420612
outer loop
vertex 34.96347809 -8.427879333 120.3085709
vertex 37.08414459 -11.37612247 118.3452301
vertex 36.0467453 -7.404349804 122.4308167

endloop
endfacet
facet normal -0.5769218802 -0.6540173888 0.4893080294
outer loop
vertex 36.0467453 -7.404349804 122.4308167
vertex 37.08414459 -11.37612247 118.3452301
vertex 37.60028839 -10.3121109 120.3759689

endloop
endfacet
facet normal -0.1539984941 -0.623785615 0.766274035
outer loop
vertex 36.0467453 -7.404349804 122.4308167
vertex 37.60028839 -10.3121109 120.3759689
vertex 40.41718292 -7.485496998 123.2430878

endloop
endfacet
facet normal -0.1501081586 -0.6263350844 0.7649652958
outer loop
vertex 40.41718292 -7.485496998 123.2430878
vertex 37.60028839 -10.3121109 120.3759689
vertex 41.03446198 -10.10286713 121.2211761

endloop
endfacet
facet normal -0.2361486405 -0.6283108592 0.7412551641
outer loop
vertex 40.41718292 -7.485496998 123.2430878
vertex 41.03446198 -10.10286713 121.2211761
vertex 48.30283356 -10.45250702 123.2403641

endloop
endfacet
facet normal -0.2464287132 -0.5616897345 0.7897958159
outer loop
vertex 48.30283356 -10.45250702 123.2403641
vertex 41.03446198 -10.10286713 121.2211761
vertex 47.75153351 -12.76526642 121.4235535

endloop
endfacet
facet normal -0.6681383848 -0.3545790017 0.6541137099
outer loop
vertex 48.30283356 -10.45250702 123.2403641
vertex 47.75153351 -12.76526642 121.4235535
vertex 52.47942352 -15.31919098 124.8683929

endloop
endfacet
facet normal -0.6402406693 -0.1769481599 0.7475166917
outer loop
vertex 52.47942352 -15.31919098 124.8683929
vertex 47.75153351 -12.76526642 121.4235535
vertex 51.55788422 -16.87099457 123.7117691

endloop
endfacet
facet normal -0.8901916146 0.4396705925 0.1193682775
outer loop
vertex 52.47942352 -15.31919098 124.8683929
vertex 51.55788422 -16.87099457 123.7117691
vertex 49.63822174 -22.22863007 129.1296844

endloop
endfacet
facet normal -0.5095899105 0.693279326 0.5095899105
outer loop
vertex 49.63822174 -22.22863007 129.1296844
vertex 51.55788422 -16.87099457 123.7117691
vertex 49.63820648 -22.22863007 129.1296692

endloop
endfacet
facet normal -0.7703829408 0.6375814676 0
outer loop
vertex 25.7015152 -23.29843903 115.4061661
vertex 25.7015152 -23.29843903 115.4061737
vertex 34.12189484 -13.12418365 114.3605423

endloop
endfacet
facet normal 0.2627928257 -0.1190897748 0.9574745893
outer loop
vertex 34.12189484 -13.12418365 114.3605423
vertex 25.7015152 -23.29843903 115.4061737
vertex 35.9487381 -15.94986725 113.5076828

endloop
endfacet
facet normal -0.2553512454 -0.4269172847 0.8674891591
outer loop
vertex 34.12189484 -13.12418365 114.3605423
vertex 35.9487381 -15.94986725 113.5076828
vertex 36.56832123 -11.48607635 115.8868256

endloop
endfacet
facet normal -0.02623354644 -0.4673503041 0.8836829066
outer loop
vertex 36.56832123 -11.48607635 115.8868256
vertex 35.9487381 -15.94986725 113.5076828
vertex 38.7082901 -14.48238373 114.3657074

endloop
endfacet
facet normal -0.7524027824 -0.6318591237 0.1861297786
outer loop
vertex 36.56832123 -11.48607635 115.8868256
vertex 38.7082901 -14.48238373 114.3657074
vertex 37.08414459 -11.37612247 118.3452301

endloop
endfacet
facet normal -0.7705515027 -0.6154124141 0.1658852249
outer loop
vertex 37.08414459 -11.37612247 118.3452301
vertex 38.7082901 -14.48238373 114.3657074
vertex 39.12833405 -14.47725677 116.3358688

endloop
endfacet
facet normal -0.5439519286 -0.678478241 0.4937444925
outer loop
vertex 37.08414459 -11.37612247 118.3452301
vertex 39.12833405 -14.47725677 116.3358688
vertex 37.60028839 -10.3121109 120.3759689

endloop
endfacet
facet normal -0.7605401874 -0.5737841129 0.3038921058
outer loop
vertex 37.60028839 -10.3121109 120.3759689
vertex 39.12833405 -14.47725677 116.3358688
vertex 39.22367096 -13.56169891 118.3031464

endloop
endfacet
facet normal -0.1597261876 -0.5863587856 0.7941479087
outer loop
vertex 37.60028839 -10.3121109 120.3759689
vertex 39.22367096 -13.56169891 118.3031464
vertex 41.03446198 -10.10286713 121.2211761

endloop
endfacet
facet normal -0.2974853516 -0.5198426247 0.8007909656
outer loop
vertex 41.03446198 -10.10286713 121.2211761
vertex 39.22367096 -13.56169891 118.3031464
vertex 41.64598846 -13.3602829 119.3337631

endloop
endfacet
facet normal -0.2308424413 -0.5198841095 0.8224550486
outer loop
vertex 41.03446198 -10.10286713 121.2211761
vertex 41.64598846 -13.3602829 119.3337631
vertex 47.75153351 -12.76526642 121.4235535

endloop
endfacet
facet normal -0.2575446963 -0.4176285267 0.8713536859
outer loop
vertex 47.75153351 -12.76526642 121.4235535
vertex 41.64598846 -13.3602829 119.3337631
vertex 46.94800568 -15.64723969 119.8047638

endloop
endfacet
facet normal -0.6640308499 -0.2168003917 0.7155840993
outer loop
vertex 47.75153351 -12.76526642 121.4235535
vertex 46.94800568 -15.64723969 119.8047638
vertex 51.55788422 -16.87099457 123.7117691

endloop
endfacet
facet normal -0.645010829 0.00977638457 0.7641108632
outer loop
vertex 51.55788422 -16.87099457 123.7117691
vertex 46.94800568 -15.64723969 119.8047638
vertex 50.3557663 -18.74988556 122.7210617

endloop
endfacet
facet normal -0.8675401807 0.4713591933 0.1587281078
outer loop
vertex 51.55788422 -16.87099457 123.7117691
vertex 50.3557663 -18.74988556 122.7210617
vertex 49.63820648 -22.22863007 129.1296692

endloop
endfacet
facet normal -0.9939418435 0 -0.1099070311
outer loop
vertex 49.63820648 -22.22863007 129.1296692
vertex 50.3557663 -18.74988556 122.7210617
vertex 49.63820648 -22.22864532 129.1296692

endloop
endfacet
facet normal 0 0.2501356006 0.9682108164
outer loop
vertex 25.70149994 -23.29843903 115.4061737
vertex 25.7015152 -23.29843903 115.4061737
vertex 35.9487381 -15.94986725 113.5076828

endloop
endfacet
facet normal 0.2531083226 -0.104472883 0.9617804289
outer loop
vertex 35.9487381 -15.94986725 113.5076828
vertex 25.7015152 -23.29843903 115.4061737
vertex 36.92003632 -19.08664703 112.9113388

endloop
endfacet
facet normal -0.1723352522 -0.2352149934 0.9565430284
outer loop
vertex 35.9487381 -15.94986725 113.5076828
vertex 36.92003632 -19.08664703 112.9113388
vertex 38.70830536 -14.48238373 114.365715

endloop
endfacet
facet normal -0.1766714007 -0.2334198356 0.9561915994
outer loop
vertex 38.70830536 -14.48238373 114.365715
vertex 36.92003632 -19.08664703 112.9113388
vertex 39.52097321 -18.03092194 113.6496201

endloop
endfacet
facet normal -0.9449798465 -0.2572052479 0.2021351457
outer loop
vertex 38.70830536 -14.48238373 114.365715
vertex 39.52097321 -18.03092194 113.6496201
vertex 39.12833405 -14.47725677 116.3358688

endloop
endfacet
facet normal -0.9872947335 -0.1495913416 0.05358658731
outer loop
vertex 39.12833405 -14.47725677 116.3358688
vertex 39.52097321 -18.03092194 113.6496201
vertex 39.61450958 -17.92491913 115.6688766

endloop
endfacet
facet normal -0.9791531563 -0.1618266106 0.1227648854
outer loop
vertex 39.12833405 -14.47725677 116.3358688
vertex 39.61450958 -17.92491913 115.6688766
vertex 39.22367096 -13.56168365 118.303154

endloop
endfacet
facet normal -0.9641299248 -0.1950508803 0.1800242215
outer loop
vertex 39.22367096 -13.56168365 118.303154
vertex 39.61450958 -17.92491913 115.6688766
vertex 39.78430939 -17.27233124 117.2853088

endloop
endfacet
facet normal -0.3528714776 -0.2967256606 0.8873756528
outer loop
vertex 39.22367096 -13.56168365 118.303154
vertex 39.78430939 -17.27233124 117.2853088
vertex 41.64600372 -13.36026764 119.3337631

endloop
endfacet
facet normal -0.2580509782 -0.3489397168 0.9009165764
outer loop
vertex 41.64600372 -13.36026764 119.3337631
vertex 39.78430939 -17.27233124 117.2853088
vertex 41.8572464 -17.24236298 117.8906708

endloop
endfacet
facet normal -0.2316050082 -0.3500086665 0.9076635242
outer loop
vertex 41.64600372 -13.36026764 119.3337631
vertex 41.8572464 -17.24236298 117.8906708
vertex 46.94800568 -15.64723969 119.8047638

endloop
endfacet
facet normal -0.243281886 -0.3216368854 0.9150757194
outer loop
vertex 46.94800568 -15.64723969 119.8047638
vertex 41.8572464 -17.24236298 117.8906708
vertex 45.95844269 -18.93431854 118.3863144

endloop
endfacet
facet normal -0.6966431737 -0.097016491 0.7108277082
outer loop
vertex 46.94800568 -15.64723969 119.8047638
vertex 45.95844269 -18.93431854 118.3863144
vertex 50.3557663 -18.74988556 122.7210617

endloop
endfacet
facet normal -0.698494494 0.1345463842 0.702853322
outer loop
vertex 50.3557663 -18.74988556 122.7210617
vertex 45.95844269 -18.93431854 118.3863144
vertex 49.06368256 -20.75023651 121.8199158

endloop
endfacet
facet normal -0.8607080579 0.4816004634 0.1650530696
outer loop
vertex 50.3557663 -18.74988556 122.7210617
vertex 49.06368256 -20.75023651 121.8199158
vertex 49.63820648 -22.22864532 129.1296844

endloop
endfacet
facet normal -0.2121474445 0.9546635151 0.2088326365
outer loop
vertex 49.63820648 -22.22864532 129.1296844
vertex 49.06368256 -20.75023651 121.8199158
vertex 49.63819122 -22.22864532 129.1296692

endloop
endfacet
facet normal -nan(ind) -nan(ind) -nan(ind)
outer loop
vertex 25.7015152 -23.29843903 115.4061737
vertex 25.7015152 -23.29843903 115.4061737
vertex 36.92003632 -19.08664703 112.9113388

endloop
endfacet
facet normal 0.2374626994 -0.0581343919 0.9696555734
outer loop
vertex 36.92003632 -19.08664703 112.9113388
vertex 25.7015152 -23.29843903 115.4061737
vertex 37.11248016 -22.23961639 112.6751785

endloop
endfacet
facet normal -0.2391773909 -0.08703260869 0.9670674801
outer loop
vertex 36.92003632 -19.08664703 112.9113388
vertex 37.11248016 -22.23961639 112.6751785
vertex 39.52097321 -18.03092194 113.6496201

endloop
endfacet
facet normal -0.3070679009 -0.04438051209 0.9506521821
outer loop
vertex 39.52097321 -18.03092194 113.6496201
vertex 37.11248016 -22.23961639 112.6751785
vertex 39.64922333 -21.89458466 113.5106735

endloop
endfacet
facet normal -0.9982352853 -0.03486408293 0.04807066545
outer loop
vertex 39.52097321 -18.03092194 113.6496201
vertex 39.64922333 -21.89458466 113.5106735
vertex 39.61450958 -17.92491913 115.6688766

endloop
endfacet
facet normal -0.9993250966 -0.02390267327 0.02789139748
outer loop
vertex 39.61450958 -17.92491913 115.6688766
vertex 39.64922333 -21.89458466 113.5106735
vertex 39.70653534 -21.72245026 115.7116318

endloop
endfacet
facet normal -0.9932718873 -0.02279169112 0.1135407686
outer loop
vertex 39.61450958 -17.92491913 115.6688766
vertex 39.70653534 -21.72245026 115.7116318
vertex 39.78430939 -17.27233124 117.2853088

endloop
endfacet
facet normal -0.9520043731 -0.08712396771 0.293423146
outer loop
vertex 39.78430939 -17.27233124 117.2853088
vertex 39.70653534 -21.72245026 115.7116318
vertex 40.08870697 -21.36617279 117.0573654

endloop
endfacet
facet normal -0.2785668075 -0.07402935624 0.9575594068
outer loop
vertex 39.78430939 -17.27233124 117.2853088
vertex 40.08870697 -21.36617279 117.0573654
vertex 41.8572464 -17.24236298 117.8906708

endloop
endfacet
facet normal -0.1009573862 -0.1552789062 0.9826983809
outer loop
vertex 41.8572464 -17.24236298 117.8906708
vertex 40.08870697 -21.36617279 117.0573654
vertex 41.86016083 -21.47919464 117.2214966

endloop
endfacet
facet normal -0.1807563603 -0.1535597891 0.9714661837
outer loop
vertex 41.8572464 -17.24236298 117.8906708
vertex 41.86016083 -21.47919464 117.2214966
vertex 45.95844269 -18.93431854 118.3863144

endloop
endfacet
facet normal -0.171463415 -0.1681874096 0.9707282782
outer loop
vertex 45.95844269 -18.93431854 118.3863144
vertex 41.86016083 -21.47919464 117.2214966
vertex 44.8610611 -22.38353729 117.5948715

endloop
endfacet
facet normal -0.7208016515 0.07111988217 0.6894830465
outer loop
vertex 45.95844269 -18.93431854 118.3863144
vertex 44.8610611 -22.38353729 117.5948715
vertex 49.06368256 -20.75023651 121.8199158

endloop
endfacet
facet normal -0.7298579812 0.3315438926 0.5978175998
outer loop
vertex 49.06368256 -20.75023651 121.8199158
vertex 44.8610611 -22.38353729 117.5948715
vertex 47.74951935 -22.73715973 121.317421

endloop
endfacet
facet normal -0.8411688209 0.5133755803 0.1699424982
outer loop
vertex 49.06368256 -20.75023651 121.8199158
vertex 47.74951935 -22.73715973 121.317421
vertex 49.63819122 -22.22864532 129.1296692

endloop
endfacet
facet normal 0.9376724362 0.2489751279 -0.2424495667
outer loop
vertex 49.63819122 -22.22864532 129.1296692
vertex 47.74951935 -22.73715973 121.317421
vertex 49.63819122 -22.22863007 129.1296844

endloop
endfacet
facet normal -0.1446918398 -0.554459691 -0.8195356727
outer loop
vertex 25.7015152 -23.29843903 115.4061737
vertex 25.70149994 -23.29842377 115.4061661
vertex 37.11248016 -22.23961639 112.6751785

endloop
endfacet
facet normal 0.2281870991 0.04887245595 0.9723899961
outer loop
vertex 37.11248016 -22.23961639 112.6751785
vertex 25.70149994 -23.29842377 115.4061661
vertex 36.89574432 -25.03188324 112.8663788

endloop
endfacet
facet normal -0.3225381076 0.08956002444 0.9423100352
outer loop
vertex 37.11248016 -22.23961639 112.6751785
vertex 36.89574432 -25.03188324 112.8663788
vertex 39.64922333 -21.89458466 113.5106735

endloop
endfacet
facet normal -0.178822875 -0.0448997952 0.982856214
outer loop
vertex 39.64922333 -21.89458466 113.5106735
vertex 36.89574432 -25.03188324 112.8663788
vertex 40.02277374 -25.16980743 113.4290161

endloop
endfacet
facet normal -0.9928596616 -0.1141061336 0.03477774933
outer loop
vertex 39.64922333 -21.89458466 113.5106735
vertex 40.02277374 -25.16980743 113.4290161
vertex 39.70653534 -21.72245026 115.7116318

endloop
endfacet
facet normal -0.8747743368 -0.3207253218 0.3631874323
outer loop
vertex 39.70653534 -21.72245026 115.7116318
vertex 40.02277374 -25.16980743 113.4290161
vertex 40.69260406 -25.0218277 115.1730499

endloop
endfacet
facet normal -0.8858867884 -0.3196417987 0.3362046778
outer loop
vertex 39.70653534 -21.72245026 115.7116318
vertex 40.69260406 -25.0218277 115.1730499
vertex 40.08870697 -21.36617279 117.0573654

endloop
endfacet
facet normal -0.9596263766 -0.2367838919 0.1518241465
outer loop
vertex 40.08870697 -21.36617279 117.0573654
vertex 40.69260406 -25.0218277 115.1730499
vertex 40.95334625 -25.05899811 116.7631378

endloop
endfacet
facet normal -0.09822052717 -0.1018710658 0.9899368882
outer loop
vertex 40.08870697 -21.36617279 117.0573654
vertex 40.95334625 -25.05899811 116.7631378
vertex 41.86016083 -21.47919464 117.2214966

endloop
endfacet
facet normal -0.5916548371 0.04682384431 0.8048304915
outer loop
vertex 41.86016083 -21.47919464 117.2214966
vertex 40.95334625 -25.05899811 116.7631378
vertex 41.79306793 -25.4177475 117.4013138

endloop
endfacet
facet normal -0.1093139201 0.04719302803 0.9928863049
outer loop
vertex 41.86016083 -21.47919464 117.2214966
vertex 41.79306793 -25.4177475 117.4013138
vertex 44.8610611 -22.38353729 117.5948715

endloop
endfacet
facet normal -0.201966539 0.1424019784 0.9689846039
outer loop
vertex 44.8610611 -22.38353729 117.5948715
vertex 41.79306793 -25.4177475 117.4013138
vertex 43.62746429 -25.69924164 117.8250275

endloop
endfacet
facet normal -0.7350654006 0.3151478469 0.6003006697
outer loop
vertex 44.8610611 -22.38353729 117.5948715
vertex 43.62746429 -25.69924164 117.8250275
vertex 47.74951935 -22.73715973 121.317421

endloop
endfacet
facet normal -0.733782649 0.5485358834 0.4008382261
outer loop
vertex 47.74951935 -22.73715973 121.317421
vertex 43.62746429 -25.69924164 117.8250275
vertex 46.39879608 -24.67224884 121.4928741

endloop
endfacet
facet normal -0.8031326532 0.5748115778 0.1567465663
outer loop
vertex 47.74951935 -22.73715973 121.317421
vertex 46.39879608 -24.67224884 121.4928741
vertex 49.63819122 -22.22863007 129.1296844

endloop
endfacet
facet normal -0.7444707751 -0.4721034169 0.4721034169
outer loop
vertex 49.63819122 -22.22863007 129.1296844
vertex 46.39879608 -24.67224884 121.4928741
vertex 49.63819122 -22.22864532 129.1296692

endloop
endfacet
facet normal 0.1036196277 0.9727871418 -0.2072392553
outer loop
vertex 25.70149994 -23.29842377 115.4061661
vertex 25.7015152 -23.29842377 115.4061737
vertex 36.89574432 -25.03188324 112.8663788

endloop
endfacet
facet normal 0.2460913062 0.1994997859 0.9484929442
outer loop
vertex 36.89574432 -25.03188324 112.8663788
vertex 25.7015152 -23.29842377 115.4061737
vertex 35.69924164 -27.53907013 113.7041626

endloop
endfacet
facet normal -0.1479715854 0.3762423098 0.9146289825
outer loop
vertex 36.89574432 -25.03188324 112.8663788
vertex 35.69924164 -27.53907013 113.7041626
vertex 40.02277374 -25.16980743 113.4290161

endloop
endfacet
facet normal -0.1489305943 0.3778951168 0.9137915969
outer loop
vertex 40.02277374 -25.16980743 113.4290161
vertex 35.69924164 -27.53907013 113.7041626
vertex 38.89272308 -28.11258698 114.4618149

endloop
endfacet
facet normal -0.8542597294 0.4303748608 0.2915781736
outer loop
vertex 40.02277374 -25.16980743 113.4290161
vertex 38.89272308 -28.11258698 114.4618149
vertex 40.69260406 -25.0218277 115.1730499

endloop
endfacet
facet normal -0.8314025402 0.3939917088 0.3918422163
outer loop
vertex 40.69260406 -25.0218277 115.1730499
vertex 38.89272308 -28.11258698 114.4618149
vertex 39.70340729 -28.19193268 116.2616882

endloop
endfacet
facet normal -0.9254108071 0.3436346054 0.1597815305
outer loop
vertex 40.69260406 -25.0218277 115.1730499
vertex 39.70340729 -28.19193268 116.2616882
vertex 40.95334625 -25.05899811 116.7631378

endloop
endfacet
facet normal -0.8942123055 0.3041985333 0.3284013867
outer loop
vertex 40.95334625 -25.05899811 116.7631378
vertex 39.70340729 -28.19193268 116.2616882
vertex 40.27507782 -28.47389984 118.0794907

endloop
endfacet
facet normal -0.441383034 0.3977266252 0.8043597341
outer loop
vertex 40.95334625 -25.05899811 116.7631378
vertex 40.27507782 -28.47389984 118.0794907
vertex 41.79306793 -25.4177475 117.4013138

endloop
endfacet
facet normal -0.5249872804 0.4244633913 0.7377120852
outer loop
vertex 41.79306793 -25.4177475 117.4013138
vertex 40.27507782 -28.47389984 118.0794907
vertex 41.06635284 -28.89057159 118.8823395

endloop
endfacet
facet normal -0.1441891342 0.4135566354 0.8989885449
outer loop
vertex 41.79306793 -25.4177475 117.4013138
vertex 41.06635284 -28.89057159 118.8823395
vertex 43.62746429 -25.69924164 117.8250275

endloop
endfacet
facet normal -0.2116754502 0.4562297463 0.8643193841
outer loop
vertex 43.62746429 -25.69924164 117.8250275
vertex 41.06635284 -28.89057159 118.8823395
vertex 42.28984833 -28.73159027 119.0980606

endloop
endfacet
facet normal -0.7494646311 0.5085535645 0.4238820374
outer loop
vertex 43.62746429 -25.69924164 117.8250275
vertex 42.28984833 -28.73159027 119.0980606
vertex 46.39879608 -24.67224884 121.4928741

endloop
endfacet
facet normal -0.7490984201 0.6189439297 0.2361357957
outer loop
vertex 46.39879608 -24.67224884 121.4928741
vertex 42.28984833 -28.73159027 119.0980606
vertex 45.08339691 -26.55113983 122.2448349

endloop
endfacet
facet normal -0.7842000127 0.604704082 0.139152199
outer loop
vertex 46.39879608 -24.67224884 121.4928741
vertex 45.08339691 -26.55113983 122.2448349
vertex 49.63819122 -22.22864532 129.1296692

endloop
endfacet
facet normal -0.318536967 -0.6932863593 0.6464427114
outer loop
vertex 49.63819122 -22.22864532 129.1296692
vertex 45.08339691 -26.55113983 122.2448349
vertex 49.63822174 -22.22864532 129.1296844

endloop
endfacet
facet normal -0.3904851973 -0.9206092358 0
outer loop
vertex 25.7015152 -23.29842377 115.4061813
vertex 25.7015152 -23.29842377 115.4061737
vertex 35.69924164 -27.53905487 113.7041779

endloop
endfacet
facet normal 0.2738198638 0.2757491767 0.9214038253
outer loop
vertex 35.69924164 -27.53905487 113.7041779
vertex 25.7015152 -23.29842377 115.4061737
vertex 33.49497223 -29.49248505 114.94384

endloop
endfacet
facet normal -0.08171661943 0.5981321335 0.7972203493
outer loop
vertex 35.69924164 -27.53905487 113.7041779
vertex 33.49497223 -29.49248505 114.94384
vertex 38.89273834 -28.11258698 114.4618225

endloop
endfacet
facet normal -0.1214529723 0.7154327631 0.6880444884
outer loop
vertex 38.89273834 -28.11258698 114.4618225
vertex 33.49497223 -29.49248505 114.94384
vertex 36.59624481 -30.28209686 116.3123169

endloop
endfacet
facet normal -0.5334576368 0.7996926904 0.2755259871
outer loop
vertex 38.89273834 -28.11258698 114.4618225
vertex 36.59624481 -30.28209686 116.3123169
vertex 39.70340729 -28.19193268 116.2616882

endloop
endfacet
facet normal -0.5270390511 0.7910034657 0.3107144535
outer loop
vertex 39.70340729 -28.19193268 116.2616882
vertex 36.59624481 -30.28209686 116.3123169
vertex 37.79187775 -30.35314178 118.5212326

endloop
endfacet
facet normal -0.5433143377 0.7867766023 0.2929029465
outer loop
vertex 39.70340729 -28.19193268 116.2616882
vertex 37.79187775 -30.35314178 118.5212326
vertex 40.27507782 -28.47389984 118.0794983

endloop
endfacet
facet normal -0.4875530899 0.7495064735 0.4478079975
outer loop
vertex 40.27507782 -28.47389984 118.0794983
vertex 37.79187775 -30.35314178 118.5212326
vertex 39.11351776 -30.73157501 120.5935669

endloop
endfacet
facet normal -0.2024662942 0.7732784152 0.6008725762
outer loop
vertex 40.27507782 -28.47389984 118.0794983
vertex 39.11351776 -30.73157501 120.5935669
vertex 41.06635284 -28.89057159 118.8823471

endloop
endfacet
facet normal -0.09350353479 0.7292387486 0.6778405905
outer loop
vertex 41.06635284 -28.89057159 118.8823471
vertex 39.11351776 -30.73157501 120.5935669
vertex 40.35283661 -31.27344513 121.3474808

endloop
endfacet
facet normal -0.2093861252 0.7326501608 0.6475965977
outer loop
vertex 41.06635284 -28.89057159 118.8823471
vertex 40.35283661 -31.27344513 121.3474808
vertex 42.28984833 -28.73159027 119.0980759

endloop
endfacet
facet normal 0.02578465827 0.651401341 0.7582951188
outer loop
vertex 42.28984833 -28.73159027 119.0980759
vertex 40.35283661 -31.27344513 121.3474808
vertex 41.32616425 -31.00786591 121.0862427

endloop
endfacet
facet normal -0.76813972 0.5736350417 0.2844366431
outer loop
vertex 42.28984833 -28.73159027 119.0980759
vertex 41.32616425 -31.00786591 121.0862427
vertex 45.08341217 -26.55112457 122.2448425

endloop
endfacet
facet normal -0.7747362256 0.6153237224 0.1454663575
outer loop
vertex 45.08341217 -26.55112457 122.2448425
vertex 41.32616425 -31.00786591 121.0862427
vertex 44.03749847 -28.14594269 123.4205246

endloop
endfacet
facet normal -0.7808081508 0.6103739142 0.1333501339
outer loop
vertex 45.08341217 -26.55112457 122.2448425
vertex 44.03749847 -28.14594269 123.4205246
vertex 49.63822174 -22.22863007 129.1296844

endloop
endfacet
facet normal 0 0.6839411259 -0.729537189
outer loop
vertex 49.63822174 -22.22863007 129.1296844
vertex 44.03749847 -28.14594269 123.4205246
vertex 49.63820648 -22.22863007 129.1296844

endloop
endfacet
facet normal -0.1259649694 -0.2305111289 0.9648821354
outer loop
vertex 25.7015152 -23.29842377 115.4061737
vertex 25.70148468 -23.29843903 115.4061661
vertex 33.49497223 -29.49248505 114.94384

endloop
endfacet
facet normal 0.2855684459 0.2911575139 0.9130597115
outer loop
vertex 33.49497223 -29.49248505 114.94384
vertex 25.70148468 -23.29843903 115.4061661
vertex 31.13990021 -30.85535431 116.1150055

endloop
endfacet
facet normal -0.1020386219 0.7438895702 0.6604668498
outer loop
vertex 33.49497223 -29.49248505 114.94384
vertex 31.13990021 -30.85535431 116.1150055
vertex 36.59624481 -30.28209686 116.3123169

endloop
endfacet
facet normal -0.1073104143 0.8363728523 0.5375545621
outer loop
vertex 36.59624481 -30.28209686 116.3123169
vertex 31.13990021 -30.85535431 116.1150055
vertex 34.1255722 -31.87056732 118.2905807

endloop
endfacet
facet normal -0.3842331171 0.8923836946 0.2366776913
outer loop
vertex 36.59624481 -30.28209686 116.3123169
vertex 34.1255722 -31.87056732 118.2905807
vertex 37.79187775 -30.35314178 118.5212326

endloop
endfacet
facet normal -0.3857781887 0.9043242931 0.182682246
outer loop
vertex 37.79187775 -30.35314178 118.5212326
vertex 34.1255722 -31.87056732 118.2905807
vertex 35.84920502 -31.70833588 121.1273651

endloop
endfacet
facet normal -0.2251363695 0.9229784608 0.3121286929
outer loop
vertex 37.79187775 -30.35314178 118.5212326
vertex 35.84920502 -31.70833588 121.1273651
vertex 39.11351776 -30.73157501 120.5935669

endloop
endfacet
facet normal -0.23609519 0.9345383048 0.2662653029
outer loop
vertex 39.11351776 -30.73157501 120.5935669
vertex 35.84920502 -31.70833588 121.1273651
vertex 37.90174103 -31.90325165 123.6314468

endloop
endfacet
facet normal 0.1470267326 0.9017663598 0.4064486027
outer loop
vertex 39.11351776 -30.73157501 120.5935669
vertex 37.90174103 -31.90325165 123.6314468
vertex 40.35283661 -31.27344513 121.3474808

endloop
endfacet
facet normal 0.0919643715 0.9302511215 0.3552117944
outer loop
vertex 40.35283661 -31.27344513 121.3474808
vertex 37.90174103 -31.90325165 123.6314468
vertex 39.54828644 -32.4101181 124.5325699

endloop
endfacet
facet normal -0.1785730869 0.9400988817 0.2903887331
outer loop
vertex 40.35283661 -31.27344513 121.3474808
vertex 39.54828644 -32.4101181 124.5325699
vertex 41.32616425 -31.00786591 121.0862427

endloop
endfacet
facet normal -0.08874091506 0.9377523065 0.3357762396
outer loop
vertex 41.32616425 -31.00786591 121.0862427
vertex 39.54828644 -32.4101181 124.5325699
vertex 40.41771698 -32.12198639 123.9576569

endloop
endfacet
facet normal -0.7372230887 0.6750405431 0.02867862023
outer loop
vertex 41.32616425 -31.00786591 121.0862427
vertex 40.41771698 -32.12198639 123.9576569
vertex 44.03749847 -28.14594269 123.4205246

endloop
endfacet
facet normal -0.7406004667 0.6716775894 -0.0189757701
outer loop
vertex 44.03749847 -28.14594269 123.4205246
vertex 40.41771698 -32.12198639 123.9576569
vertex 43.22742462 -28.98816681 125.2248306

endloop
endfacet
facet normal -0.7245402336 0.6892232299 -0.003575148061
outer loop
vertex 44.03749847 -28.14594269 123.4205246
vertex 43.22742462 -28.98816681 125.2248306
vertex 49.63820648 -22.22863007 129.1296844

endloop
endfacet
facet normal 0.3737984896 0.1787731946 -0.9101180434
outer loop
vertex 49.63820648 -22.22863007 129.1296844
vertex 43.22742462 -28.98816681 125.2248306
vertex 49.63817596 -22.22864532 129.1296692

endloop
endfacet
facet normal 0.4350669086 0.2314819545 -0.8701338172
outer loop
vertex 25.70148468 -23.29843903 115.4061661
vertex 25.7015152 -23.29843903 115.4061813
vertex 31.13990021 -30.85535431 116.1150055

endloop
endfacet
facet normal 0.2854177058 0.2910535336 0.9131399393
outer loop
vertex 31.13990021 -30.85535431 116.1150055
vertex 25.7015152 -23.29843903 115.4061813
vertex 28.60642242 -31.92179108 117.2468033

endloop
endfacet
facet normal -0.1098992378 0.8343526721 0.5401646495
outer loop
vertex 31.13990021 -30.85535431 116.1150055
vertex 28.60642242 -31.92179108 117.2468033
vertex 34.1255722 -31.87056732 118.2905807

endloop
endfacet
facet normal -0.092980735 0.889177978 0.448014617
outer loop
vertex 34.1255722 -31.87056732 118.2905807
vertex 28.60642242 -31.92179108 117.2468033
vertex 31.22202301 -33.19556427 120.3177109

endloop
endfacet
facet normal -0.3255982995 0.9344172478 0.1443959177
outer loop
vertex 34.1255722 -31.87056732 118.2905807
vertex 31.22202301 -33.19556427 120.3177109
vertex 35.84920502 -31.70833588 121.1273651

endloop
endfacet
facet normal -0.3203240633 0.941975832 0.1003693491
outer loop
vertex 35.84920502 -31.70833588 121.1273651
vertex 31.22202301 -33.19556427 120.3177109
vertex 33.41437531 -32.82779694 123.8629684

endloop
endfacet
facet normal -0.185340479 0.9562496543 0.2263529003
outer loop
vertex 35.84920502 -31.70833588 121.1273651
vertex 33.41437531 -32.82779694 123.8629684
vertex 37.90174103 -31.90325165 123.6314468

endloop
endfacet
facet normal -0.1909153312 0.9677627087 0.1642762423
outer loop
vertex 37.90174103 -31.90325165 123.6314468
vertex 33.41437531 -32.82779694 123.8629684
vertex 36.38703156 -32.73456573 126.7684402

endloop
endfacet
facet normal 0.1214843392 0.9433829188 0.3086589277
outer loop
vertex 37.90174103 -31.90325165 123.6314468
vertex 36.38703156 -32.73456573 126.7684402
vertex 39.54828644 -32.4101181 124.5325699

endloop
endfacet
facet normal -0.005251485389 0.9906497598 0.136328429
outer loop
vertex 39.54828644 -32.4101181 124.5325699
vertex 36.38703156 -32.73456573 126.7684402
vertex 38.81310272 -32.86855316 127.8355331

endloop
endfacet
facet normal -0.2697785199 0.9601349831 0.07321387529
outer loop
vertex 39.54828644 -32.4101181 124.5325699
vertex 38.81310272 -32.86855316 127.8355331
vertex 40.41771698 -32.12198639 123.9576569

endloop
endfacet
facet normal -0.5838851333 0.8072477579 -0.08619305491
outer loop
vertex 40.41771698 -32.12198639 123.9576569
vertex 38.81310272 -32.86855316 127.8355331
vertex 39.97185516 -32.1077652 127.1111832

endloop
endfacet
facet normal -0.7190366983 0.6870310307 -0.1047593653
outer loop
vertex 40.41771698 -32.12198639 123.9576569
vertex 39.97185516 -32.1077652 127.1111832
vertex 43.22742462 -28.98816681 125.2248306

endloop
endfacet
facet normal -0.7288631797 0.6668689847 -0.155061841
outer loop
vertex 43.22742462 -28.98816681 125.2248306
vertex 39.97185516 -32.1077652 127.1111832
vertex 43.00960541 -28.73810577 127.3241119

endloop
endfacet
facet normal -0.6701384187 0.7256632447 -0.1559720188
outer loop
vertex 43.22742462 -28.98816681 125.2248306
vertex 43.00960541 -28.73810577 127.3241119
vertex 49.63817596 -22.22864532 129.1296692

endloop
endfacet
facet normal -0.5477955937 0.350589186 0.7596098781
outer loop
vertex 49.63817596 -22.22864532 129.1296692
vertex 43.00960541 -28.73810577 127.3241119
vertex 49.63820648 -22.22863007 129.1296844

endloop
endfacet
facet normal -0.704429388 -0.08693995327 0.704429388
outer loop
vertex 25.7015152 -23.29843903 115.4061813
vertex 25.70149994 -23.29843903 115.4061661
vertex 28.60642242 -31.92179108 117.2468033

endloop
endfacet
facet normal 0.3088062406 0.296897918 0.903598547
outer loop
vertex 28.60642242 -31.92179108 117.2468033
vertex 25.70149994 -23.29843903 115.4061661
vertex 25.63568878 -32.70851898 118.5205536

endloop
endfacet
facet normal -0.05758619308 0.9038510323 0.4239540398
outer loop
vertex 28.60642242 -31.92179108 117.2468033
vertex 25.63568878 -32.70851898 118.5205536
vertex 31.22202301 -33.19556427 120.3177109

endloop
endfacet
facet normal -0.05012757704 0.9136397243 0.4034223258
outer loop
vertex 31.22202301 -33.19556427 120.3177109
vertex 25.63568878 -32.70851898 118.5205536
vertex 27.88143158 -34.30498505 122.4151535

endloop
endfacet
facet normal -0.2744182944 0.9590437412 0.0702111423
outer loop
vertex 31.22202301 -33.19556427 120.3177109
vertex 27.88143158 -34.30498505 122.4151535
vertex 33.41437531 -32.82779694 123.8629684

endloop
endfacet
facet normal -0.2703627944 0.9613327384 0.05237748474
outer loop
vertex 33.41437531 -32.82779694 123.8629684
vertex 27.88143158 -34.30498505 122.4151535
vertex 30.67832184 -33.74495697 126.5734634

endloop
endfacet
facet normal -0.1772769988 0.9726370573 0.1501661241
outer loop
vertex 33.41437531 -32.82779694 123.8629684
vertex 30.67832184 -33.74495697 126.5734634
vertex 36.38703156 -32.73456573 126.7684402

endloop
endfacet
facet normal -0.1758089215 0.9829587936 0.05369503051
outer loop
vertex 36.38703156 -32.73456573 126.7684402
vertex 30.67832184 -33.74495697 126.5734634
vertex 34.72534943 -33.1984787 129.820282

endloop
endfacet
facet normal -0.009285182692 0.989338994 0.1453345716
outer loop
vertex 36.38703156 -32.73456573 126.7684402
vertex 34.72534943 -33.1984787 129.820282
vertex 38.81310272 -32.86855316 127.8355331

endloop
endfacet
facet normal -0.1314848363 0.9855288863 -0.1069789827
outer loop
vertex 38.81310272 -32.86855316 127.8355331
vertex 34.72534943 -33.1984787 129.820282
vertex 38.21237946 -32.60512543 131.0006561

endloop
endfacet
facet normal -0.6162585616 0.7665191889 -0.1807586253
outer loop
vertex 38.81310272 -32.86855316 127.8355331
vertex 38.21237946 -32.60512543 131.0006561
vertex 39.97185516 -32.1077652 127.1111832

endloop
endfacet
facet normal -0.6988019347 0.6775058508 -0.2294811159
outer loop
vertex 39.97185516 -32.1077652 127.1111832
vertex 38.21237946 -32.60512543 131.0006561
vertex 40.06803131 -31.00678253 130.0687866

endloop
endfacet
facet normal -0.7170754671 0.6605075002 -0.2225591838
outer loop
vertex 39.97185516 -32.1077652 127.1111832
vertex 40.06803131 -31.00678253 130.0687866
vertex 43.00960541 -28.73810577 127.3241119

endloop
endfacet
facet normal -0.7269020677 0.639413774 -0.2505262494
outer loop
vertex 43.00960541 -28.73810577 127.3241119
vertex 40.06803131 -31.00678253 130.0687866
vertex 43.41506195 -27.51869965 129.2599487

endloop
endfacet
facet normal -0.6168944836 0.7177522779 -0.3229133785
outer loop
vertex 43.00960541 -28.73810577 127.3241119
vertex 43.41506195 -27.51869965 129.2599487
vertex 49.63820648 -22.22863007 129.1296844

endloop
endfacet
facet normal 0.6443722844 -0.7554068565 0.1189324483
outer loop
vertex 49.63820648 -22.22863007 129.1296844
vertex 43.41506195 -27.51869965 129.2599487
vertex 49.63819122 -22.22864532 129.1296692

endloop
endfacet
facet normal -0 -0.3142017126 -0.9493561983
outer loop
vertex 25.70149994 -23.29843903 115.4061661
vertex 25.7015152 -23.29843903 115.4061661
vertex 25.63568878 -32.70851898 118.5205536

endloop
endfacet
facet normal 0.3491969109 0.2922200263 0.8903195858
outer loop
vertex 25.63568878 -32.70851898 118.5205536
vertex 25.7015152 -23.29843903 115.4061661
vertex 22.59331512 -32.93878937 119.7893982

endloop
endfacet
facet normal 0.07194446772 0.9367563128 0.3425078392
outer loop
vertex 25.63568878 -32.70851898 118.5205536
vertex 22.59331512 -32.93878937 119.7893982
vertex 27.88143158 -34.30498505 122.4151535

endloop
endfacet
facet normal 0.086162664 0.9442449808 0.317769587
outer loop
vertex 27.88143158 -34.30498505 122.4151535
vertex 22.59331512 -32.93878937 119.7893982
vertex 24.52231598 -34.68100739 124.4433136

endloop
endfacet
facet normal -0.1360417008 0.9898207784 -0.04180393741
outer loop
vertex 27.88143158 -34.30498505 122.4151535
vertex 24.52231598 -34.68100739 124.4433136
vertex 30.67832184 -33.74495697 126.5734634

endloop
endfacet
facet normal -0.1290538162 0.9897009134 -0.06194577366
outer loop
vertex 30.67832184 -33.74495697 126.5734634
vertex 24.52231598 -34.68100739 124.4433136
vertex 27.94709015 -33.93575287 129.21521

endloop
endfacet
facet normal -0.104830265 0.9938162565 -0.0366044566
outer loop
vertex 30.67832184 -33.74495697 126.5734634
vertex 27.94709015 -33.93575287 129.21521
vertex 34.72534943 -33.1984787 129.820282

endloop
endfacet
facet normal -0.09635263681 0.9875940681 -0.1239927039
outer loop
vertex 34.72534943 -33.1984787 129.820282
vertex 27.94709015 -33.93575287 129.21521
vertex 33.10103607 -32.97641754 132.8512115

endloop
endfacet
facet normal -0.1209691837 0.9831761718 -0.1368613392
outer loop
vertex 34.72534943 -33.1984787 129.820282
vertex 33.10103607 -32.97641754 132.8512115
vertex 38.21237946 -32.60512543 131.0006561

endloop
endfacet
facet normal -0.1792203188 0.9345119596 -0.3075183034
outer loop
vertex 38.21237946 -32.60512543 131.0006561
vertex 33.10103607 -32.97641754 132.8512115
vertex 37.77552032 -31.6646347 134.1132965

endloop
endfacet
facet normal -0.7042555809 0.6461721659 -0.2940845191
outer loop
vertex 38.21237946 -32.60512543 131.0006561
vertex 37.77552032 -31.6646347 134.1132965
vertex 40.06803131 -31.00678253 130.0687866

endloop
endfacet
facet normal -0.7043510675 0.6460329294 -0.2941613197
outer loop
vertex 40.06803131 -31.00678253 130.0687866
vertex 37.77552032 -31.6646347 134.1132965
vertex 40.52599335 -29.25319672 132.8234253

endloop
endfacet
facet normal -0.7242363095 0.6298874617 -0.2805772722
outer loop
vertex 40.06803131 -31.00678253 130.0687866
vertex 40.52599335 -29.25319672 132.8234253
vertex 43.41506195 -27.51869965 129.2599487

endloop
endfacet
facet normal -0.7248259187 0.6287471652 -0.2816102803
outer loop
vertex 43.41506195 -27.51869965 129.2599487
vertex 40.52599335 -29.25319672 132.8234253
vertex 44.16973114 -25.88333893 130.9687805

endloop
endfacet
facet normal -0.5984477997 0.6941524744 -0.400015682
outer loop
vertex 43.41506195 -27.51869965 129.2599487
vertex 44.16973114 -25.88333893 130.9687805
vertex 49.63819122 -22.22864532 129.1296692

endloop
endfacet
facet normal -nan(ind) -nan(ind) -nan(ind)
outer loop
vertex 49.63819122 -22.22864532 129.1296692
vertex 44.16973114 -25.88333893 130.9687805
vertex 49.63819122 -22.22864532 129.1296692

endloop
endfacet
facet normal 0.5760774612 0.1770865023 0.7979819179
outer loop
vertex 25.7015152 -23.29843903 115.4061661
vertex 25.70149994 -23.29842377 115.4061737
vertex 22.59331512 -32.93878937 119.7893982

endloop
endfacet
facet normal 0.3955951929 0.2713911235 0.8774117231
outer loop
vertex 22.59331512 -32.93878937 119.7893982
vertex 25.70149994 -23.29842377 115.4061737
vertex 19.79456329 -32.41062164 120.8878937

endloop
endfacet
facet normal 0.269408524 0.9332315922 0.2376930863
outer loop
vertex 22.59331512 -32.93878937 119.7893982
vertex 19.79456329 -32.41062164 120.8878937
vertex 24.52231598 -34.68100739 124.4433136

endloop
endfacet
facet normal 0.3472503722 0.928550005 0.1311948597
outer loop
vertex 24.52231598 -34.68100739 124.4433136
vertex 19.79456329 -32.41062164 120.8878937
vertex 21.43683624 -33.77600861 126.2047958

endloop
endfacet
facet normal 0.1387944967 0.9584298134 -0.2492958605
outer loop
vertex 24.52231598 -34.68100739 124.4433136
vertex 21.43683624 -33.77600861 126.2047958
vertex 27.94709015 -33.93575287 129.21521

endloop
endfacet
facet normal 0.1550007313 0.9459099174 -0.285007447
outer loop
vertex 27.94709015 -33.93575287 129.21521
vertex 21.43683624 -33.77600861 126.2047958
vertex 25.32106781 -32.76902008 131.659317

endloop
endfacet
facet normal 0.0797021389 0.9301623106 -0.3583931625
outer loop
vertex 27.94709015 -33.93575287 129.21521
vertex 25.32106781 -32.76902008 131.659317
vertex 33.10103607 -32.97641754 132.8512115

endloop
endfacet
facet normal 0.08902011067 0.9011526704 -0.4242631495
outer loop
vertex 33.10103607 -32.97641754 132.8512115
vertex 25.32106781 -32.76902008 131.659317
vertex 31.56243134 -31.47180939 135.7242279

endloop
endfacet
facet normal -0.104247354 0.8570088744 -0.5046466589
outer loop
vertex 33.10103607 -32.97641754 132.8512115
vertex 31.56243134 -31.47180939 135.7242279
vertex 37.77552032 -31.6646347 134.1132965

endloop
endfacet
facet normal -0.1153956503 0.8307819963 -0.5445044637
outer loop
vertex 37.77552032 -31.6646347 134.1132965
vertex 31.56243134 -31.47180939 135.7242279
vertex 37.52616119 -29.75319672 137.0825348

endloop
endfacet
facet normal -0.7010464072 0.5713724494 -0.4266937077
outer loop
vertex 37.77552032 -31.6646347 134.1132965
vertex 37.52616119 -29.75319672 137.0825348
vertex 40.52599335 -29.25319672 132.8234253

endloop
endfacet
facet normal -0.639903307 0.6725512743 -0.3717506826
outer loop
vertex 40.52599335 -29.25319672 132.8234253
vertex 37.52616119 -29.75319672 137.0825348
vertex 41.21709442 -27.12366486 135.4864502

endloop
endfacet
facet normal -0.7256507874 0.6168088913 -0.3049224913
outer loop
vertex 40.52599335 -29.25319672 132.8234253
vertex 41.21709442 -27.12366486 135.4864502
vertex 44.16973114 -25.88333893 130.9687805

endloop
endfacet
facet normal -0.6914973259 0.6709288955 -0.2677420974
outer loop
vertex 44.16973114 -25.88333893 130.9687805
vertex 41.21709442 -27.12366486 135.4864502
vertex 45.04973602 -24.30628204 132.6479034

endloop
endfacet
facet normal -0.5990619063 0.7159686685 -0.3584882617
outer loop
vertex 44.16973114 -25.88333893 130.9687805
vertex 45.04973602 -24.30628204 132.6479034
vertex 49.63819122 -22.22864532 129.1296692

endloop
endfacet
facet normal 0 0.8615384698 0.507692337
outer loop
vertex 49.63819122 -22.22864532 129.1296692
vertex 45.04973602 -24.30628204 132.6479034
vertex 49.63820648 -22.22864532 129.1296692

endloop
endfacet
facet normal -nan(ind) -nan(ind) -nan(ind)
outer loop
vertex 25.7015152 -23.29842377 115.4061737
vertex 25.7015152 -23.29842377 115.4061737
vertex 19.79456329 -32.4106369 120.8878937

endloop
endfacet
facet normal 0.4515055716 0.2265013456 0.8630409837
outer loop
vertex 19.79456329 -32.4106369 120.8878937
vertex 25.7015152 -23.29842377 115.4061737
vertex 17.57959747 -30.98488617 121.6724854

endloop
endfacet
facet normal 0.5515973568 0.832973659 0.04353408515
outer loop
vertex 19.79456329 -32.4106369 120.8878937
vertex 17.57959747 -30.98488617 121.6724854
vertex 21.43682098 -33.77602386 126.2047958

endloop
endfacet
facet normal 0.6310278773 0.7733765244 -0.06076708063
outer loop
vertex 21.43682098 -33.77602386 126.2047958
vertex 17.57959747 -30.98488617 121.6724854
vertex 19.00463104 -31.69129181 127.4802094

endloop
endfacet
facet normal 0.432089746 0.7805036902 -0.4517882168
outer loop
vertex 21.43682098 -33.77602386 126.2047958
vertex 19.00463104 -31.69129181 127.4802094
vertex 25.32103729 -32.76903534 131.659317

endloop
endfacet
facet normal 0.4418571591 0.7635383606 -0.4709260762
outer loop
vertex 25.32103729 -32.76903534 131.659317
vertex 19.00463104 -31.69129181 127.4802094
vertex 23.1732254 -30.34409332 133.5757751

endloop
endfacet
facet normal 0.2600132823 0.7299047112 -0.6321646571
outer loop
vertex 25.32103729 -32.76903534 131.659317
vertex 23.1732254 -30.34409332 133.5757751
vertex 31.56241608 -31.47180939 135.7242279

endloop
endfacet
facet normal 0.2661452889 0.6819017529 -0.6813051701
outer loop
vertex 31.56241608 -31.47180939 135.7242279
vertex 23.1732254 -30.34409332 133.5757751
vertex 30.28754425 -28.59699249 138.1035461

endloop
endfacet
facet normal -0.007355662528 0.6356378794 -0.7719522715
outer loop
vertex 31.56241608 -31.47180939 135.7242279
vertex 30.28754425 -28.59699249 138.1035461
vertex 37.52616119 -29.75319672 137.0825348

endloop
endfacet
facet normal -0.004054180346 0.6475383639 -0.762022078
outer loop
vertex 37.52616119 -29.75319672 137.0825348
vertex 30.28754425 -28.59699249 138.1035461
vertex 37.4285965 -26.66846466 139.7043457

endloop
endfacet
facet normal -0.6178472638 0.4977840185 -0.6086672544
outer loop
vertex 37.52616119 -29.75319672 137.0825348
vertex 37.4285965 -26.66846466 139.7043457
vertex 41.21707916 -27.12366486 135.4864502

endloop
endfacet
facet normal -0.5046271682 0.6837921739 -0.5270479918
outer loop
vertex 41.21707916 -27.12366486 135.4864502
vertex 37.4285965 -26.66846466 139.7043457
vertex 42.06148529 -24.52152252 138.0539856

endloop
endfacet
facet normal -0.7123931646 0.5962936282 -0.3700403571
outer loop
vertex 41.21707916 -27.12366486 135.4864502
vertex 42.06148529 -24.52152252 138.0539856
vertex 45.04973602 -24.30628204 132.6479187

endloop
endfacet
facet normal -0.6093035936 0.7308002114 -0.3077013493
outer loop
vertex 45.04973602 -24.30628204 132.6479187
vertex 42.06148529 -24.52152252 138.0539856
vertex 45.99758148 -22.78029633 134.3952789

endloop
endfacet
facet normal -0.5868034363 0.7402516007 -0.3281604052
outer loop
vertex 45.04973602 -24.30628204 132.6479187
vertex 45.99758148 -22.78029633 134.3952789
vertex 49.63820648 -22.22863007 129.1296844

endloop
endfacet
facet normal 0.8225435019 0 0.5687021613
outer loop
vertex 49.63820648 -22.22863007 129.1296844
vertex 45.99758148 -22.78029633 134.3952789
vertex 49.63820648 -22.22864532 129.1296844

endloop
endfacet
facet normal -0.6992164254 0.7142753601 -0.03011783212
outer loop
vertex 25.7015152 -23.29842377 115.4061737
vertex 25.70149994 -23.29843903 115.4061661
vertex 17.57959747 -30.98488617 121.6724854

endloop
endfacet
facet normal 0.5246834159 0.1313013434 0.8411107659
outer loop
vertex 17.57959747 -30.98488617 121.6724854
vertex 25.70149994 -23.29843903 115.4061661
vertex 16.53466034 -28.58740997 121.950058

endloop
endfacet
facet normal 0.8960163593 0.4102051258 -0.1699602455
outer loop
vertex 17.57959747 -30.98488617 121.6724854
vertex 16.53466034 -28.58740997 121.950058
vertex 19.00463104 -31.69129181 127.4802094

endloop
endfacet
facet normal 0.8716060519 0.4745380282 -0.1229498237
outer loop
vertex 19.00463104 -31.69129181 127.4802094
vertex 16.53466034 -28.58740997 121.950058
vertex 17.56678009 -28.8632431 128.2022705

endloop
endfacet
facet normal 0.6687350869 0.4840843678 -0.5643188953
outer loop
vertex 19.00463104 -31.69129181 127.4802094
vertex 17.56678009 -28.8632431 128.2022705
vertex 23.1732254 -30.34409332 133.5757751

endloop
endfacet
facet normal 0.6494377851 0.5488052368 -0.5263490677
outer loop
vertex 23.1732254 -30.34409332 133.5757751
vertex 17.56678009 -28.8632431 128.2022705
vertex 21.75429535 -27.43950653 134.8535309

endloop
endfacet
facet normal 0.3648690581 0.5184503198 -0.7733561993
outer loop
vertex 23.1732254 -30.34409332 133.5757751
vertex 21.75429535 -27.43950653 134.8535309
vertex 30.28754425 -28.59699249 138.1035461

endloop
endfacet
facet normal 0.3615326285 0.5486533642 -0.753839314
outer loop
vertex 30.28754425 -28.59699249 138.1035461
vertex 21.75429535 -27.43950653 134.8535309
vertex 29.30892181 -25.49449921 139.8922424

endloop
endfacet
facet normal 0.05410792306 0.5114934444 -0.8575819731
outer loop
vertex 30.28754425 -28.59699249 138.1035461
vertex 29.30892181 -25.49449921 139.8922424
vertex 37.4285965 -26.66846466 139.7043457

endloop
endfacet
facet normal 0.06202562153 0.5611074567 -0.8254158497
outer loop
vertex 37.4285965 -26.66846466 139.7043457
vertex 29.30892181 -25.49449921 139.8922424
vertex 37.33158112 -23.46990204 141.8713989

endloop
endfacet
facet normal -0.4834235013 0.4809063375 -0.7314580679
outer loop
vertex 37.4285965 -26.66846466 139.7043457
vertex 37.33158112 -23.46990204 141.8713989
vertex 42.06148529 -24.52152252 138.0539856

endloop
endfacet
facet normal -0.3812194169 0.6547130942 -0.6527040005
outer loop
vertex 42.06148529 -24.52152252 138.0539856
vertex 37.33158112 -23.46990204 141.8713989
vertex 42.96999359 -21.74037933 140.3130646

endloop
endfacet
facet normal -0.6757017374 0.5850409269 -0.4485022724
outer loop
vertex 42.06148529 -24.52152252 138.0539856
vertex 42.96999359 -21.74037933 140.3130646
vertex 45.99758148 -22.78029633 134.3952789

endloop
endfacet
facet normal -0.536380887 0.7406849265 -0.4045754969
outer loop
vertex 45.99758148 -22.78029633 134.3952789
vertex 42.96999359 -21.74037933 140.3130646
vertex 47.02674103 -21.11423492 136.0810089

endloop
endfacet
facet normal -0.6041650772 0.7195785046 -0.3423322141
outer loop
vertex 45.99758148 -22.78029633 134.3952789
vertex 47.02674103 -21.11423492 136.0810089
vertex 49.63820648 -22.22864532 129.1296844

endloop
endfacet
facet normal -0.1168164834 -0.9864503145 0.1151940301
outer loop
vertex 49.63820648 -22.22864532 129.1296844
vertex 47.02674103 -21.11423492 136.0810089
vertex 49.63819122 -22.22864532 129.1296692

endloop
endfacet
endsolid
