solid 
facet normal 0 -0.936122 0.351676
outer loop
vertex 58.14440155 -59.36333466 -35.48603821
vertex 58.14441681 -59.36333466 -35.48603821
vertex 60.33074188 -56.28659821 -27.29611397

endloop
endfacet
facet normal -0.3518105149 0.9033216238 -0.2454369962
outer loop
vertex 60.33074188 -56.28659821 -27.29611397
vertex 58.14441681 -59.36333466 -35.48603821
vertex 53.48770905 -57.4336319 -21.70889473

endloop
endfacet
facet normal -0.5941002965 0.5085575581 -0.6232286692
outer loop
vertex 60.33074188 -56.28659821 -27.29611397
vertex 53.48770905 -57.4336319 -21.70889473
vertex 60.08068085 -52.80467987 -24.21647835

endloop
endfacet
facet normal -0.575078547 0.4483987689 -0.6842682958
outer loop
vertex 60.08068085 -52.80467987 -24.21647835
vertex 53.48770905 -57.4336319 -21.70889473
vertex 52.5787735 -55.7075882 -19.8139286

endloop
endfacet
facet normal -0.570420146 0.3406281769 -0.7473910451
outer loop
vertex 60.08068085 -52.80467987 -24.21647835
vertex 52.5787735 -55.7075882 -19.8139286
vertex 59.0797348 -48.60813141 -21.53993797

endloop
endfacet
facet normal -0.6189857721 0.4028964043 -0.6741892099
outer loop
vertex 59.0797348 -48.60813141 -21.53993797
vertex 52.5787735 -55.7075882 -19.8139286
vertex 51.5030899 -53.45494843 -17.48014259

endloop
endfacet
facet normal -0.5844048262 0.2736803591 -0.7639175653
outer loop
vertex 59.0797348 -48.60813141 -21.53993797
vertex 51.5030899 -53.45494843 -17.48014259
vertex 57.54644012 -43.94445038 -18.69614601

endloop
endfacet
facet normal -0.6515016556 0.3264285922 -0.6848284602
outer loop
vertex 57.54644012 -43.94445038 -18.69614601
vertex 51.5030899 -53.45494843 -17.48014259
vertex 50.28923798 -50.72893524 -15.02598763

endloop
endfacet
facet normal -0.7087303996 0.4768601358 -0.5199092627
outer loop
vertex 57.54644012 -43.94445038 -18.69614601
vertex 50.28923798 -50.72893524 -15.02598763
vertex 56.31204987 -41.2960434 -14.58433247

endloop
endfacet
facet normal -0.4978089035 0.3548978269 -0.7913492918
outer loop
vertex 56.31204987 -41.2960434 -14.58433247
vertex 50.28923798 -50.72893524 -15.02598763
vertex 48.77648163 -48.06781769 -12.88093185

endloop
endfacet
facet normal -0.6733806729 0.6715825796 -0.3090877533
outer loop
vertex 56.31206512 -41.2960434 -14.58433533
vertex 48.77649689 -48.06781769 -12.88093376
vertex 54.87767792 -40.3925705 -9.496314049

endloop
endfacet
facet normal -0.3781908154 0.6083365679 -0.6977809072
outer loop
vertex 54.87767792 -40.3925705 -9.496314049
vertex 48.77649689 -48.06781769 -12.88093376
vertex 47.23926544 -46.18378448 -10.40523815

endloop
endfacet
facet normal -0.5409664512 0.7674986124 -0.3439494371
outer loop
vertex 54.87767792 -40.3925705 -9.496314049
vertex 47.23926544 -46.18378448 -10.40523815
vertex 52.67292023 -39.82444 -4.760910988

endloop
endfacet
facet normal -0.4698352516 0.7755969763 -0.4215498567
outer loop
vertex 52.67292023 -39.82444 -4.760910988
vertex 47.23926544 -46.18378448 -10.40523815
vertex 45.95066071 -45.5286026 -7.763584137

endloop
endfacet
facet normal -0.3880716264 0.7438040972 -0.5442021489
outer loop
vertex 52.67292023 -39.82444 -4.760910988
vertex 45.95066071 -45.5286026 -7.763584137
vertex 49.73691559 -38.99396515 -1.532165051

endloop
endfacet
facet normal -0.6466577053 0.6882591844 -0.3288357556
outer loop
vertex 49.73691559 -38.99396515 -1.532165051
vertex 45.95066071 -45.5286026 -7.763584137
vertex 44.73122406 -45.62897491 -5.575634956

endloop
endfacet
facet normal -0.2649126947 0.6396154761 -0.7216047645
outer loop
vertex 49.73690033 -38.99396515 -1.532163024
vertex 44.73122406 -45.62897491 -5.575634003
vertex 46.34915924 -38.51490021 0.1361639947

endloop
endfacet
facet normal -0.3700547814 0.6313422918 -0.6815176606
outer loop
vertex 46.34915924 -38.51490021 0.1361639947
vertex 44.73122406 -45.62897491 -5.575634003
vertex 42.76395416 -45.1001358 -4.017529011

endloop
endfacet
facet normal -0.0265306402 0.5436022282 -0.8389235735
outer loop
vertex 46.34915924 -38.51490021 0.1361639947
vertex 42.76395416 -45.1001358 -4.017529011
vertex 41.08209991 -37.58403778 0.9059090018

endloop
endfacet
facet normal 0.06060777232 0.5564032793 -0.8286989927
outer loop
vertex 41.08209991 -37.58403778 0.9059090018
vertex 42.76395416 -45.1001358 -4.017529011
vertex 39.06302643 -43.34607697 -3.110493898

endloop
endfacet
facet normal -0.1064517647 0.5934201479 -0.7978223562
outer loop
vertex 41.08209991 -37.58403778 0.9059090018
vertex 39.06302643 -43.34607697 -3.110493898
vertex 31.67040253 -37.76882172 2.024250031

endloop
endfacet
facet normal 0.6008542776 0.7993522286 -0.0031748896
outer loop
vertex 31.67040253 -37.76882172 2.024250031
vertex 39.06302643 -43.34607697 -3.110493898
vertex 33.6140213 -39.25395966 -4.06003809

endloop
endfacet
facet normal 0.9487798214 0.1811000109 0.2588815987
outer loop
vertex 31.67037201 -37.76885223 2.024250031
vertex 33.61399078 -39.25397491 -4.060039043
vertex 33.06339264 -28.60384369 -9.492416382

endloop
endfacet
facet normal -0.9953674674 0 0.09614344686
outer loop
vertex 33.06339264 -28.60384369 -9.492416382
vertex 33.61399078 -39.25397491 -4.060039043
vertex 33.06339264 -28.60382843 -9.492416382

endloop
endfacet
facet normal -nan(ind) -nan(ind) -nan(ind)
outer loop
vertex 58.14441681 -59.36333466 -35.48603821
vertex 58.14441681 -59.36333466 -35.48603821
vertex 53.48770905 -57.4336319 -21.70889473

endloop
endfacet
facet normal 0.07488525659 0.990717113 -0.1134539172
outer loop
vertex 53.48770905 -57.4336319 -21.70889473
vertex 58.14441681 -59.36333466 -35.48603821
vertex 50.94693756 -57.69966888 -25.70905304

endloop
endfacet
facet normal 0.5533413291 0.7305958867 -0.4000540376
outer loop
vertex 53.48770905 -57.4336319 -21.70889473
vertex 50.94693756 -57.69966888 -25.70905304
vertex 52.5787735 -55.7075882 -19.8139286

endloop
endfacet
facet normal 0.5655388832 0.7211018205 -0.4002222121
outer loop
vertex 52.5787735 -55.7075882 -19.8139286
vertex 50.94693756 -57.69966888 -25.70905304
vertex 49.69542694 -55.41265106 -23.35687256

endloop
endfacet
facet normal 0.5787010193 0.7035893798 -0.4123918116
outer loop
vertex 52.5787735 -55.7075882 -19.8139286
vertex 49.69542694 -55.41265106 -23.35687256
vertex 51.5030899 -53.45494843 -17.48014259

endloop
endfacet
facet normal 0.3924068213 0.8296621442 -0.3970866203
outer loop
vertex 51.5030899 -53.45494843 -17.48014259
vertex 49.69542694 -55.41265106 -23.35687256
vertex 48.49999237 -53.32634735 -20.17915154

endloop
endfacet
facet normal 0.4987324178 0.6919769049 -0.521952033
outer loop
vertex 51.5030899 -53.45494843 -17.48014259
vertex 48.49999237 -53.32634735 -20.17915154
vertex 50.28923798 -50.72893524 -15.02598763

endloop
endfacet
facet normal 0.1315084398 0.8661214709 -0.4822232127
outer loop
vertex 50.28923798 -50.72893524 -15.02598763
vertex 48.49999237 -53.32634735 -20.17915154
vertex 47.1901474 -51.36100006 -17.00640106

endloop
endfacet
facet normal 0.2817429006 0.6941262484 -0.6624271274
outer loop
vertex 50.28923798 -50.72893524 -15.02598763
vertex 47.1901474 -51.36100006 -17.00640106
vertex 48.77648163 -48.06781769 -12.88093185

endloop
endfacet
facet normal 0.01065807883 0.7794864774 -0.6263284087
outer loop
vertex 48.77648163 -48.06781769 -12.88093185
vertex 47.1901474 -51.36100006 -17.00640106
vertex 45.73293304 -49.42977142 -14.62771988

endloop
endfacet
facet normal -0.006271607243 0.7938780189 -0.6080446839
outer loop
vertex 48.77649689 -48.06781769 -12.88093376
vertex 45.7329483 -49.42975616 -14.62772179
vertex 47.23926544 -46.18378448 -10.40523815

endloop
endfacet
facet normal -0.07394550741 0.8032155633 -0.5910810232
outer loop
vertex 47.23926544 -46.18378448 -10.40523815
vertex 45.7329483 -49.42975616 -14.62772179
vertex 44.52793121 -47.98154449 -12.50900745

endloop
endfacet
facet normal -0.3007677495 0.88099581 -0.3652193844
outer loop
vertex 47.23926544 -46.18378448 -10.40523815
vertex 44.52793121 -47.98154449 -12.50900745
vertex 45.95066071 -45.5286026 -7.763584137

endloop
endfacet
facet normal -0.2002381086 0.8935458064 -0.4018464088
outer loop
vertex 45.95066071 -45.5286026 -7.763584137
vertex 44.52793121 -47.98154449 -12.50900745
vertex 43.64394379 -47.31336212 -10.58275032

endloop
endfacet
facet normal -0.4335398376 0.8783547282 -0.2013355345
outer loop
vertex 45.95066071 -45.5286026 -7.763584137
vertex 43.64394379 -47.31336212 -10.58275032
vertex 44.73122406 -45.62897491 -5.575634956

endloop
endfacet
facet normal 0.01273442153 0.9468923211 -0.3212985992
outer loop
vertex 44.73122406 -45.62897491 -5.575634956
vertex 43.64394379 -47.31336212 -10.58275032
vertex 42.69959259 -46.81887054 -9.162873268

endloop
endfacet
facet normal 0.004000174347 0.948461175 -0.3168682456
outer loop
vertex 44.73122406 -45.62897491 -5.575634003
vertex 42.69957733 -46.81885529 -9.162873268
vertex 42.76395416 -45.1001358 -4.017529011

endloop
endfacet
facet normal 0.6077684164 0.7508884072 -0.258426398
outer loop
vertex 42.76395416 -45.1001358 -4.017529011
vertex 42.69957733 -46.81885529 -9.162873268
vertex 41.10219574 -45.19693756 -8.206929207

endloop
endfacet
facet normal 0.3865351975 0.9056643248 -0.1742487997
outer loop
vertex 42.76395416 -45.1001358 -4.017529011
vertex 41.10219574 -45.19693756 -8.206929207
vertex 39.06302643 -43.34607697 -3.110493898

endloop
endfacet
facet normal 0.7189601064 0.6941401362 0.03557874635
outer loop
vertex 39.06302643 -43.34607697 -3.110493898
vertex 41.10219574 -45.19693756 -8.206929207
vertex 38.45307159 -42.50046539 -7.282639027

endloop
endfacet
facet normal 0.5901700258 0.8036365509 0.07660024613
outer loop
vertex 39.06302643 -43.34607697 -3.110493898
vertex 38.45307159 -42.50046539 -7.282639027
vertex 33.6140213 -39.25395966 -4.06003809

endloop
endfacet
facet normal 0.6835725904 0.4433963299 0.5797656775
outer loop
vertex 33.6140213 -39.25395966 -4.06003809
vertex 38.45307159 -42.50046539 -7.282639027
vertex 34.89122772 -36.3703537 -7.771267891

endloop
endfacet
facet normal 0.8039985299 0.3026478291 0.5118501782
outer loop
vertex 33.61399078 -39.25397491 -4.060039043
vertex 34.8911972 -36.3703537 -7.771268845
vertex 33.06339264 -28.60382843 -9.492416382

endloop
endfacet
facet normal 0.9615239501 0.2747211158 0
outer loop
vertex 33.06339264 -28.60382843 -9.492416382
vertex 34.8911972 -36.3703537 -7.771268845
vertex 33.06339264 -28.60382843 -9.492417336

endloop
endfacet
facet normal -nan(ind) -nan(ind) -nan(ind)
outer loop
vertex 58.14441681 -59.36333466 -35.48603821
vertex 58.14441681 -59.36333466 -35.48603821
vertex 50.94693756 -57.69966888 -25.70905304

endloop
endfacet
facet normal 0.2059524506 0.9784488678 -0.01487914659
outer loop
vertex 50.94693756 -57.69966888 -25.70905304
vertex 58.14441681 -59.36333466 -35.48603821
vertex 49.95836639 -57.54166412 -29.00218964

endloop
endfacet
facet normal 0.7595092058 0.6195432544 -0.1982724369
outer loop
vertex 50.94693756 -57.69966888 -25.70905304
vertex 49.95836639 -57.54166412 -29.00218964
vertex 49.69542694 -55.41265106 -23.35687256

endloop
endfacet
facet normal 0.8462711573 0.5103000998 -0.1530326009
outer loop
vertex 49.69542694 -55.41265106 -23.35687256
vertex 49.95836639 -57.54166412 -29.00218964
vertex 48.56151581 -54.54958344 -26.74943542

endloop
endfacet
facet normal 0.7840624452 0.6114766002 -0.1065010279
outer loop
vertex 49.69542694 -55.41265106 -23.35687256
vertex 48.56151581 -54.54958344 -26.74943542
vertex 48.49999237 -53.32634735 -20.17915154

endloop
endfacet
facet normal 0.851369679 0.5170816779 -0.08829660714
outer loop
vertex 48.49999237 -53.32634735 -20.17915154
vertex 48.56151581 -54.54958344 -26.74943542
vertex 47.40772247 -52.03894806 -23.17173576

endloop
endfacet
facet normal 0.8028866649 0.5949766636 -0.0370904617
outer loop
vertex 48.49999237 -53.32634735 -20.17915154
vertex 47.40772247 -52.03894806 -23.17173576
vertex 47.1901474 -51.36100006 -17.00640106

endloop
endfacet
facet normal 0.7752985954 0.6302009225 -0.04193735123
outer loop
vertex 47.1901474 -51.36100006 -17.00640106
vertex 47.40772247 -52.03894806 -23.17173576
vertex 46.0838089 -50.15157318 -19.28505516

endloop
endfacet
facet normal 0.7734573483 0.632599473 -0.03977035731
outer loop
vertex 47.1901474 -51.36100006 -17.00640106
vertex 46.0838089 -50.15157318 -19.28505516
vertex 45.73293304 -49.42977142 -14.62771988

endloop
endfacet
facet normal 0.6495531797 0.7572312355 -0.06842073798
outer loop
vertex 45.73293304 -49.42977142 -14.62771988
vertex 46.0838089 -50.15157318 -19.28505516
vertex 44.39550018 -48.46979523 -16.70033455

endloop
endfacet
facet normal 0.6828097701 0.7228983045 -0.1057775021
outer loop
vertex 45.7329483 -49.42975616 -14.62772179
vertex 44.39551544 -48.46976471 -16.70033646
vertex 44.52793121 -47.98154449 -12.50900745

endloop
endfacet
facet normal 0.6169109941 0.7792708278 -0.1102620512
outer loop
vertex 44.52793121 -47.98154449 -12.50900745
vertex 44.39551544 -48.46976471 -16.70033646
vertex 43.11597443 -47.19808197 -14.87176228

endloop
endfacet
facet normal 0.5398367643 0.840626359 -0.04385852069
outer loop
vertex 44.52793121 -47.98154449 -12.50900745
vertex 43.11597443 -47.19808197 -14.87176228
vertex 43.64394379 -47.31336212 -10.58275032

endloop
endfacet
facet normal 0.7163507342 0.6942683458 -0.06952087581
outer loop
vertex 43.64394379 -47.31336212 -10.58275032
vertex 43.11597443 -47.19808197 -14.87176228
vertex 42.34392548 -46.24674225 -13.32651138

endloop
endfacet
facet normal 0.5420008898 0.8375576735 0.06879045814
outer loop
vertex 43.64394379 -47.31336212 -10.58275032
vertex 42.34392548 -46.24674225 -13.32651138
vertex 42.69959259 -46.81887054 -9.162873268

endloop
endfacet
facet normal 0.828512907 0.559935987 0.006167787593
outer loop
vertex 42.69959259 -46.81887054 -9.162873268
vertex 42.34392548 -46.24674225 -13.32651138
vertex 41.57253265 -45.11867523 -12.1164217

endloop
endfacet
facet normal 0.7381904125 0.6668123603 0.1021576598
outer loop
vertex 42.69957733 -46.81885529 -9.162873268
vertex 41.57253265 -45.11867523 -12.11642075
vertex 41.10219574 -45.19693756 -8.206929207

endloop
endfacet
facet normal 0.8416775465 0.5282726884 0.1118344665
outer loop
vertex 41.10219574 -45.19693756 -8.206929207
vertex 41.57253265 -45.11867523 -12.11642075
vertex 40.33914948 -43.32579803 -11.30287075

endloop
endfacet
facet normal 0.7324650288 0.6473693252 0.2107318938
outer loop
vertex 41.10219574 -45.19693756 -8.206929207
vertex 40.33914948 -43.32579803 -11.30287075
vertex 38.45307159 -42.50046539 -7.282639027

endloop
endfacet
facet normal 0.8032851219 0.5320807099 0.2676250637
outer loop
vertex 38.45307159 -42.50046539 -7.282639027
vertex 40.33914948 -43.32579803 -11.30287075
vertex 38.37522125 -40.81737518 -10.39521694

endloop
endfacet
facet normal 0.828312695 0.5012362599 0.2503203154
outer loop
vertex 38.45307159 -42.50046539 -7.282639027
vertex 38.37522125 -40.81737518 -10.39521694
vertex 34.89122772 -36.3703537 -7.771267891

endloop
endfacet
facet normal 0.8177074194 0.3917870224 0.421731472
outer loop
vertex 34.89122772 -36.3703537 -7.771267891
vertex 38.37522125 -40.81737518 -10.39521694
vertex 35.2909317 -35.09096527 -9.734812737

endloop
endfacet
facet normal 0.8833805323 0.2895620465 0.3685004711
outer loop
vertex 34.8911972 -36.3703537 -7.771268845
vertex 35.29091644 -35.09096527 -9.734811783
vertex 33.06339264 -28.60382843 -9.492417336

endloop
endfacet
facet normal -0.2836666405 -0.06151806563 -0.9569476843
outer loop
vertex 33.06339264 -28.60382843 -9.492417336
vertex 35.29091644 -35.09096527 -9.734811783
vertex 33.06339264 -28.60384369 -9.492416382

endloop
endfacet
facet normal 0 -0.9627249241 0.2704824209
outer loop
vertex 58.14440155 -59.36333466 -35.48603821
vertex 58.14441681 -59.36333466 -35.48603821
vertex 49.95836639 -57.54166412 -29.00218773

endloop
endfacet
facet normal 0.2825315595 0.9551815391 0.08834119141
outer loop
vertex 49.95836639 -57.54166412 -29.00218773
vertex 58.14441681 -59.36333466 -35.48603821
vertex 49.70539093 -57.18492889 -32.05029297

endloop
endfacet
facet normal 0.8989940882 0.4373337924 -0.02342801914
outer loop
vertex 49.95836639 -57.54166412 -29.00218773
vertex 49.70539093 -57.18492889 -32.05029297
vertex 48.56151581 -54.54958344 -26.74943352

endloop
endfacet
facet normal 0.9649033546 0.2485958338 0.08462647349
outer loop
vertex 48.56151581 -54.54958344 -26.74943352
vertex 49.70539093 -57.18492889 -32.05029297
vertex 48.5378952 -53.4436264 -29.72893524

endloop
endfacet
facet normal 0.9508045912 0.2928121686 0.1011508405
outer loop
vertex 48.56151581 -54.54958344 -26.74943352
vertex 48.5378952 -53.4436264 -29.72893524
vertex 47.40772247 -52.03894806 -23.17173386

endloop
endfacet
facet normal 0.9815641046 0.1282683313 0.1417008936
outer loop
vertex 47.40772247 -52.03894806 -23.17173386
vertex 48.5378952 -53.4436264 -29.72893524
vertex 47.54410553 -50.17435455 -25.80430031

endloop
endfacet
facet normal 0.9498749971 0.2297965586 0.2119695842
outer loop
vertex 47.40772247 -52.03894806 -23.17173386
vertex 47.54410553 -50.17435455 -25.80430031
vertex 46.08379364 -50.15158844 -19.28505325

endloop
endfacet
facet normal 0.9632056952 0.1610137075 0.2151958793
outer loop
vertex 46.08379364 -50.15158844 -19.28505325
vertex 47.54410553 -50.17435455 -25.80430031
vertex 46.13666534 -47.51961517 -21.49099731

endloop
endfacet
facet normal 0.876271069 0.2990366518 0.3777912557
outer loop
vertex 46.08379364 -50.15158844 -19.28505325
vertex 46.13666534 -47.51961517 -21.49099731
vertex 44.39550018 -48.46979523 -16.70033264

endloop
endfacet
facet normal 0.8727268577 0.3085053563 0.3783811629
outer loop
vertex 44.39550018 -48.46979523 -16.70033264
vertex 46.13666534 -47.51961517 -21.49099731
vertex 44.11437225 -45.38808441 -18.56452751

endloop
endfacet
facet normal 0.866535902 0.313824594 0.38811028
outer loop
vertex 44.39551544 -48.46977997 -16.70033455
vertex 44.11438751 -45.38805389 -18.56453133
vertex 43.11597443 -47.19811249 -14.87176228

endloop
endfacet
facet normal 0.8692669868 0.3085223734 0.3862497211
outer loop
vertex 43.11597443 -47.19811249 -14.87176228
vertex 44.11438751 -45.38805389 -18.56453133
vertex 42.67069244 -43.79123688 -16.59093094

endloop
endfacet
facet normal 0.9176300764 0.2680210173 0.2934617102
outer loop
vertex 43.11597443 -47.19811249 -14.87176228
vertex 42.67069244 -43.79123688 -16.59093094
vertex 42.34392548 -46.24675751 -13.32651043

endloop
endfacet
facet normal 0.9429033399 0.2139140218 0.2552918494
outer loop
vertex 42.34392548 -46.24675751 -13.32651043
vertex 42.67069244 -43.79123688 -16.59093094
vertex 41.97109222 -42.5646286 -15.03480339

endloop
endfacet
facet normal 0.9051565528 0.2508592904 0.3431635201
outer loop
vertex 42.34392548 -46.24675751 -13.32651043
vertex 41.97109222 -42.5646286 -15.03480339
vertex 41.5725174 -45.11869049 -12.11641979

endloop
endfacet
facet normal 0.9248420596 0.2145417631 0.3140682876
outer loop
vertex 41.5725174 -45.11869049 -12.11641979
vertex 41.97109222 -42.5646286 -15.03480339
vertex 41.31723785 -41.49321747 -13.84127426

endloop
endfacet
facet normal 0.7928722501 0.306432426 0.5267377496
outer loop
vertex 41.57253265 -45.11869049 -12.11641884
vertex 41.31723785 -41.49321747 -13.84127426
vertex 40.33913422 -43.32579803 -11.3028698

endloop
endfacet
facet normal 0.7458329797 0.3695831001 0.5542035699
outer loop
vertex 40.33913422 -43.32579803 -11.3028698
vertex 41.31723785 -41.49321747 -13.84127426
vertex 40.21543121 -40.3917923 -13.09300137

endloop
endfacet
facet normal 0.7375994325 0.3740825951 0.5621470809
outer loop
vertex 40.33913422 -43.32579803 -11.3028698
vertex 40.21543121 -40.3917923 -13.09300137
vertex 38.37520599 -40.81737518 -10.39521599

endloop
endfacet
facet normal 0.7312580943 0.3891514838 0.5601986647
outer loop
vertex 38.37520599 -40.81737518 -10.39521599
vertex 40.21543121 -40.3917923 -13.09300137
vertex 38.67121124 -38.544487 -12.36050797

endloop
endfacet
facet normal 0.7721359134 0.3551041186 0.5269793272
outer loop
vertex 38.37520599 -40.81737518 -10.39521599
vertex 38.67121124 -38.544487 -12.36050797
vertex 35.29091644 -35.09096527 -9.734812737

endloop
endfacet
facet normal 0.7543231249 0.2908492088 0.5885604024
outer loop
vertex 35.29091644 -35.09096527 -9.734812737
vertex 38.67121124 -38.544487 -12.36050797
vertex 35.70619965 -33.6931839 -10.95779896

endloop
endfacet
facet normal 0.792201221 0.2512405813 0.5561434031
outer loop
vertex 35.29090118 -35.09096527 -9.734811783
vertex 35.70616913 -33.6931839 -10.95779705
vertex 33.06339264 -28.60384369 -9.492416382

endloop
endfacet
facet normal -nan(ind) -nan(ind) -nan(ind)
outer loop
vertex 33.06339264 -28.60384369 -9.492416382
vertex 35.70616913 -33.6931839 -10.95779705
vertex 33.06339264 -28.60384369 -9.492416382

endloop
endfacet
facet normal 0 0.8445485234 -0.5354789495
outer loop
vertex 58.14441681 -59.36333466 -35.48603821
vertex 58.14440155 -59.36333466 -35.48603821
vertex 49.70539093 -57.18492889 -32.05029297

endloop
endfacet
facet normal 0.2936123312 0.9483790398 0.1198700815
outer loop
vertex 49.70539093 -57.18492889 -32.05029297
vertex 58.14440155 -59.36333466 -35.48603821
vertex 49.65354156 -56.80237579 -34.94994736

endloop
endfacet
facet normal 0.9579648376 0.2861436605 0.02062151767
outer loop
vertex 49.70539093 -57.18492889 -32.05029297
vertex 49.65354156 -56.80237579 -34.94994736
vertex 48.5378952 -53.4436264 -29.72893524

endloop
endfacet
facet normal 0.9727633595 -0.0334393084 0.2293758541
outer loop
vertex 48.5378952 -53.4436264 -29.72893524
vertex 49.65354156 -56.80237579 -34.94994736
vertex 49.16762543 -52.35529327 -32.24090576

endloop
endfacet
facet normal 0.9697844982 0.001935045468 0.243955344
outer loop
vertex 48.5378952 -53.4436264 -29.72893524
vertex 49.16762543 -52.35529327 -32.24090576
vertex 47.54410553 -50.17435455 -25.80430031

endloop
endfacet
facet normal 0.9319552779 -0.1995862573 0.302695781
outer loop
vertex 47.54410553 -50.17435455 -25.80430031
vertex 49.16762543 -52.35529327 -32.24090576
vertex 48.59471893 -48.37042999 -27.84954262

endloop
endfacet
facet normal 0.9212291837 -0.1152756959 0.3715486228
outer loop
vertex 47.54410553 -50.17435455 -25.80430031
vertex 48.59471893 -48.37042999 -27.84954262
vertex 46.13666534 -47.51961517 -21.49099731

endloop
endfacet
facet normal 0.9311535954 -0.02725368552 0.3636072576
outer loop
vertex 46.13666534 -47.51961517 -21.49099731
vertex 48.59471893 -48.37042999 -27.84954262
vertex 46.93354034 -44.81342316 -23.32885742

endloop
endfacet
facet normal 0.8510352373 0.09955151379 0.5155856013
outer loop
vertex 46.13666534 -47.51961517 -21.49099731
vertex 46.93354034 -44.81342316 -23.32885742
vertex 44.11437225 -45.38808441 -18.56452751

endloop
endfacet
facet normal 0.8581577539 0.03593527898 0.512126863
outer loop
vertex 44.11437225 -45.38808441 -18.56452751
vertex 46.93354034 -44.81342316 -23.32885742
vertex 44.75678253 -41.86844635 -19.88796616

endloop
endfacet
facet normal 0.8277637959 0.05872943625 0.5579946041
outer loop
vertex 44.11438751 -45.38805389 -18.56453133
vertex 44.75679779 -41.86843109 -19.88796616
vertex 42.67069244 -43.79123688 -16.59093094

endloop
endfacet
facet normal 0.8615537286 -0.07336594909 0.5023371577
outer loop
vertex 42.67069244 -43.79123688 -16.59093094
vertex 44.75679779 -41.86843109 -19.88796616
vertex 43.35839081 -39.62732697 -17.16226006

endloop
endfacet
facet normal 0.8830446601 -0.0824514851 0.4619891047
outer loop
vertex 42.67069244 -43.79123688 -16.59093094
vertex 43.35839081 -39.62732697 -17.16226006
vertex 41.97109222 -42.5646286 -15.03480339

endloop
endfacet
facet normal 0.8997014761 -0.121209234 0.4193394482
outer loop
vertex 41.97109222 -42.5646286 -15.03480339
vertex 43.35839081 -39.62732697 -17.16226006
vertex 42.6281662 -38.121315 -15.16023827

endloop
endfacet
facet normal 0.828384757 -0.1069786698 0.5498492718
outer loop
vertex 41.97109222 -42.5646286 -15.03480339
vertex 42.6281662 -38.121315 -15.16023827
vertex 41.31723785 -41.49321747 -13.84127426

endloop
endfacet
facet normal 0.7699331641 -0.05050691962 0.6361226439
outer loop
vertex 41.31723785 -41.49321747 -13.84127426
vertex 42.6281662 -38.121315 -15.16023827
vertex 41.78502655 -37.25182343 -14.07070541

endloop
endfacet
facet normal 0.5510052443 -0.01563812979 0.8343552351
outer loop
vertex 41.31723785 -41.49321747 -13.84127426
vertex 41.78502655 -37.25180817 -14.07070446
vertex 40.21543121 -40.3917923 -13.09300137

endloop
endfacet
facet normal 0.4493095875 0.05308281258 0.8917976618
outer loop
vertex 40.21543121 -40.3917923 -13.09300137
vertex 41.78502655 -37.25180817 -14.07070446
vertex 40.66536713 -36.6684494 -13.54131603

endloop
endfacet
facet normal 0.4747825265 0.04843590409 0.8787693381
outer loop
vertex 40.21543121 -40.3917923 -13.09300137
vertex 40.66536713 -36.6684494 -13.54131603
vertex 38.67121124 -38.544487 -12.36050797

endloop
endfacet
facet normal 0.4426053464 0.09102011472 0.8920850754
outer loop
vertex 38.67121124 -38.544487 -12.36050797
vertex 40.66536713 -36.6684494 -13.54131603
vertex 39.31203461 -35.59165192 -12.97973061

endloop
endfacet
facet normal 0.5147829652 0.06750765443 0.8546585441
outer loop
vertex 38.67121124 -38.544487 -12.36050797
vertex 39.31203461 -35.59165192 -12.97973061
vertex 35.70619965 -33.6931839 -10.95779896

endloop
endfacet
facet normal 0.510301888 0.05520167947 0.8582218289
outer loop
vertex 35.70619965 -33.6931839 -10.95779896
vertex 39.31203461 -35.59165192 -12.97973061
vertex 36.16181183 -32.16364288 -11.32708931

endloop
endfacet
facet normal 0.5432540774 0.04064462706 0.8385839462
outer loop
vertex 35.70616913 -33.6931839 -10.95779705
vertex 36.16178131 -32.16365814 -11.32708645
vertex 33.06339264 -28.60384369 -9.492416382

endloop
endfacet
facet normal 0.508148849 0 0.8612692356
outer loop
vertex 33.06339264 -28.60384369 -9.492416382
vertex 36.16178131 -32.16365814 -11.32708645
vertex 33.06339264 -28.60382843 -9.492416382

endloop
endfacet
facet normal -0.2078766823 -0.5151541829 -0.8315067291
outer loop
vertex 58.14440155 -59.36333466 -35.48603821
vertex 58.14438629 -59.36333466 -35.48603439
vertex 49.65354156 -56.80237579 -34.94994736

endloop
endfacet
facet normal 0.2940767109 0.9448875189 0.1438972652
outer loop
vertex 49.65354156 -56.80237579 -34.94994736
vertex 58.14438629 -59.36333466 -35.48603439
vertex 49.89859772 -56.44074249 -37.82538986

endloop
endfacet
facet normal 0.9944036007 0.05297102034 0.09140881896
outer loop
vertex 49.65354156 -56.80237579 -34.94994736
vertex 49.89859772 -56.44074249 -37.82538986
vertex 49.16762543 -52.35529327 -32.24090576

endloop
endfacet
facet normal 0.9276672006 -0.2329436392 0.2918404639
outer loop
vertex 49.16762543 -52.35529327 -32.24090576
vertex 49.89859772 -56.44074249 -37.82538986
vertex 50.09702301 -51.32407379 -34.37205505

endloop
endfacet
facet normal 0.9296680093 -0.204226926 0.3066084683
outer loop
vertex 49.16762543 -52.35529327 -32.24090576
vertex 50.09702301 -51.32407379 -34.37205505
vertex 48.59471893 -48.37042999 -27.84954262

endloop
endfacet
facet normal 0.8052893281 -0.4479911029 0.3883466423
outer loop
vertex 48.59471893 -48.37042999 -27.84954262
vertex 50.09702301 -51.32407379 -34.37205505
vertex 50.32712555 -46.61507416 -29.4169693

endloop
endfacet
facet normal 0.7902730107 -0.3057903945 0.5309998393
outer loop
vertex 48.59471893 -48.37042999 -27.84954262
vertex 50.32712555 -46.61507416 -29.4169693
vertex 46.93354034 -44.81342316 -23.32885742

endloop
endfacet
facet normal 0.8216803074 -0.2236996889 0.5242135525
outer loop
vertex 46.93354034 -44.81342316 -23.32885742
vertex 50.32712555 -46.61507416 -29.4169693
vertex 48.62166595 -42.1361618 -24.83243752

endloop
endfacet
facet normal 0.775826931 -0.1442272663 0.6142401099
outer loop
vertex 46.93354034 -44.81342316 -23.32885742
vertex 48.62166595 -42.1361618 -24.83243752
vertex 44.75678253 -41.86844635 -19.88796616

endloop
endfacet
facet normal 0.7803753614 -0.1083491072 0.6158528328
outer loop
vertex 44.75678253 -41.86844635 -19.88796616
vertex 48.62166595 -42.1361618 -24.83243752
vertex 46.26860809 -38.40787506 -21.19483948

endloop
endfacet
facet normal 0.8227143884 -0.1526286453 0.5475815535
outer loop
vertex 44.75679779 -41.86843109 -19.88796616
vertex 46.26862335 -38.40787506 -21.19484138
vertex 43.35839081 -39.62732697 -17.16226006

endloop
endfacet
facet normal 0.822473824 -0.1384431422 0.5516975522
outer loop
vertex 43.35839081 -39.62732697 -17.16226006
vertex 46.26862335 -38.40787506 -21.19484138
vertex 44.66747284 -35.67040253 -18.12089539

endloop
endfacet
facet normal 0.8732221723 -0.179089874 0.4532217681
outer loop
vertex 43.35839081 -39.62732697 -17.16226006
vertex 44.66747284 -35.67040253 -18.12089539
vertex 42.6281662 -38.121315 -15.16023827

endloop
endfacet
facet normal 0.8663005233 -0.142458424 0.4787786007
outer loop
vertex 42.6281662 -38.121315 -15.16023827
vertex 44.66747284 -35.67040253 -18.12089539
vertex 43.6745224 -33.95723724 -15.81450939

endloop
endfacet
facet normal 0.7531521916 -0.08679432422 0.6520954967
outer loop
vertex 42.6281662 -38.121315 -15.16023827
vertex 43.6745224 -33.95723724 -15.81450939
vertex 41.78502655 -37.25182343 -14.07070541

endloop
endfacet
facet normal 0.7347207069 -0.06391398609 0.6753520966
outer loop
vertex 41.78502655 -37.25182343 -14.07070541
vertex 43.6745224 -33.95723724 -15.81450939
vertex 42.5891037 -33.07459259 -14.55014229

endloop
endfacet
facet normal 0.4356199503 0.01943634078 0.8999208212
outer loop
vertex 41.78502655 -37.25180817 -14.07070446
vertex 42.58908844 -33.07459259 -14.55014133
vertex 40.66536713 -36.6684494 -13.54131603

endloop
endfacet
facet normal 0.4801169932 -0.01077729091 0.8771383166
outer loop
vertex 40.66536713 -36.6684494 -13.54131603
vertex 42.58908844 -33.07459259 -14.55014133
vertex 41.3887558 -32.59900665 -13.88727474

endloop
endfacet
facet normal 0.3894124925 0.009076877497 0.9210187197
outer loop
vertex 40.66536713 -36.6684494 -13.54131603
vertex 41.3887558 -32.59900665 -13.88727474
vertex 39.31203461 -35.59165192 -12.97973061

endloop
endfacet
facet normal 0.4120336771 -0.009623426944 0.9111177325
outer loop
vertex 39.31203461 -35.59165192 -12.97973061
vertex 41.3887558 -32.59900665 -13.88727474
vertex 40.00353241 -32.05263519 -13.25506592

endloop
endfacet
facet normal 0.4488833845 -0.01820164733 0.8934050202
outer loop
vertex 39.31203461 -35.59165192 -12.97973061
vertex 40.00353241 -32.05263519 -13.25506592
vertex 36.16181183 -32.16364288 -11.32708931

endloop
endfacet
facet normal 0.4490213692 -0.02931921929 0.8930398822
outer loop
vertex 36.16181183 -32.16364288 -11.32708931
vertex 40.00353241 -32.05263519 -13.25506592
vertex 36.53560638 -30.36472321 -11.45597363

endloop
endfacet
facet normal 0.4778674543 -0.03641424328 0.8776769042
outer loop
vertex 36.16178131 -32.16365814 -11.32708645
vertex 36.53557587 -30.36473846 -11.45596981
vertex 33.06339264 -28.60382843 -9.492416382

endloop
endfacet
facet normal -0.4872970283 0 -0.8732362986
outer loop
vertex 33.06339264 -28.60382843 -9.492416382
vertex 36.53557587 -30.36473846 -11.45596981
vertex 33.06339264 -28.60384369 -9.492416382

endloop
endfacet
facet normal 0.1370012909 0.8251793385 0.5480051637
outer loop
vertex 58.14438629 -59.36333466 -35.48603439
vertex 58.14440155 -59.36333466 -35.48603821
vertex 49.89859772 -56.44074249 -37.82538986

endloop
endfacet
facet normal 0.1595912725 0.8508955836 0.5005071759
outer loop
vertex 49.89859772 -56.44074249 -37.82538986
vertex 58.14440155 -59.36333466 -35.48603821
vertex 52.71343231 -56.08431244 -39.32888031

endloop
endfacet
facet normal 0.4545517564 -0.5103364587 0.7300270796
outer loop
vertex 49.89859772 -56.44074249 -37.82538986
vertex 52.71343231 -56.08431244 -39.32888031
vertex 50.09702301 -51.32407379 -34.37205505

endloop
endfacet
facet normal 0.3143334985 -0.5963525176 0.7386190295
outer loop
vertex 50.09702301 -51.32407379 -34.37205505
vertex 52.71343231 -56.08431244 -39.32888031
vertex 53.10895538 -50.41704559 -34.92151642

endloop
endfacet
facet normal 0.3259789944 -0.6927954555 0.6432512403
outer loop
vertex 50.09702301 -51.32407379 -34.37205505
vertex 53.10895538 -50.41704559 -34.92151642
vertex 50.32712555 -46.61507416 -29.4169693

endloop
endfacet
facet normal 0.6260059476 -0.456903547 0.6319459677
outer loop
vertex 50.32712555 -46.61507416 -29.4169693
vertex 53.10895538 -50.41704559 -34.92151642
vertex 52.72109222 -44.7763443 -30.45901299

endloop
endfacet
facet normal 0.6186444759 -0.4344774783 0.6546054482
outer loop
vertex 50.32712555 -46.61507416 -29.4169693
vertex 52.72109222 -44.7763443 -30.45901299
vertex 48.62166595 -42.1361618 -24.83243752

endloop
endfacet
facet normal 0.7592064142 -0.1636568904 0.6299381852
outer loop
vertex 48.62166595 -42.1361618 -24.83243752
vertex 52.72109222 -44.7763443 -30.45901299
vertex 50.67996979 -38.97084808 -26.49077797

endloop
endfacet
facet normal 0.7513870001 -0.1522189826 0.642064631
outer loop
vertex 48.62166595 -42.1361618 -24.83243752
vertex 50.67996979 -38.97084808 -26.49077797
vertex 46.26860809 -38.40787506 -21.19483948

endloop
endfacet
facet normal 0.7423874736 -0.1994618326 0.6395903826
outer loop
vertex 46.26860809 -38.40787506 -21.19483948
vertex 50.67996979 -38.97084808 -26.49077797
vertex 48.51447296 -34.61997223 -22.62037659

endloop
endfacet
facet normal 0.7657239437 -0.2276131213 0.6015473008
outer loop
vertex 46.26862335 -38.40787506 -21.19484138
vertex 48.51448822 -34.61994171 -22.6203804
vertex 44.66747284 -35.67040253 -18.12089539

endloop
endfacet
facet normal 0.7668987513 -0.2079598159 0.6071401238
outer loop
vertex 44.66747284 -35.67040253 -18.12089539
vertex 48.51448822 -34.61994171 -22.6203804
vertex 46.69922638 -31.67073822 -19.31729126

endloop
endfacet
facet normal 0.8076173067 -0.2505751252 0.5338224173
outer loop
vertex 44.66747284 -35.67040253 -18.12089539
vertex 46.69922638 -31.67073822 -19.31729126
vertex 43.6745224 -33.95723724 -15.81450939

endloop
endfacet
facet normal 0.7896422744 -0.1240400299 0.6008986235
outer loop
vertex 43.6745224 -33.95723724 -15.81450939
vertex 46.69922638 -31.67073822 -19.31729126
vertex 45.17783356 -29.77436066 -16.92656708

endloop
endfacet
facet normal 0.7278220057 -0.08052035421 0.6810225248
outer loop
vertex 43.6745224 -33.95723724 -15.81450939
vertex 45.17783356 -29.77436066 -16.92656708
vertex 42.5891037 -33.07459259 -14.55014229

endloop
endfacet
facet normal 0.710185051 -0.05148675665 0.7021299005
outer loop
vertex 42.5891037 -33.07459259 -14.55014229
vertex 45.17783356 -29.77436066 -16.92656708
vertex 43.75684357 -28.64072418 -15.40614605

endloop
endfacet
facet normal 0.4944096506 0.0374443233 0.8684221506
outer loop
vertex 42.58908844 -33.07459259 -14.55014133
vertex 43.75684357 -28.64072418 -15.4061451
vertex 41.3887558 -32.59900665 -13.88727474

endloop
endfacet
facet normal 0.5471361279 -0.006149091292 0.8370211124
outer loop
vertex 41.3887558 -32.59900665 -13.88727474
vertex 43.75684357 -28.64072418 -15.4061451
vertex 42.29358673 -27.99871063 -14.44494057

endloop
endfacet
facet normal 0.423660934 0.02643064037 0.9054351449
outer loop
vertex 41.3887558 -32.59900665 -13.88727474
vertex 42.29358673 -27.99871063 -14.44494057
vertex 40.00353241 -32.05263519 -13.25506592

endloop
endfacet
facet normal 0.4938544929 -0.02385192923 0.8692173958
outer loop
vertex 40.00353241 -32.05263519 -13.25506592
vertex 42.29358673 -27.99871063 -14.44494057
vertex 40.66924286 -27.9516983 -13.5207634

endloop
endfacet
facet normal 0.4542805552 -0.01603506692 0.8907142878
outer loop
vertex 40.00353241 -32.05263519 -13.25506592
vertex 40.66924286 -27.9516983 -13.5207634
vertex 36.53560638 -30.36472321 -11.45597363

endloop
endfacet
facet normal 0.4684033394 -0.04748123884 0.8822379708
outer loop
vertex 36.53560638 -30.36472321 -11.45597363
vertex 40.66924286 -27.9516983 -13.5207634
vertex 36.83644867 -28.32421112 -11.50588036

endloop
endfacet
facet normal 0.4730347097 -0.04822550714 0.8797230124
outer loop
vertex 36.53557587 -30.36473846 -11.45596981
vertex 36.83641815 -28.32422638 -11.50587654
vertex 33.06339264 -28.60384369 -9.492416382

endloop
endfacet
facet normal -nan(ind) -nan(ind) -nan(ind)
outer loop
vertex 33.06339264 -28.60384369 -9.492416382
vertex 36.83641815 -28.32422638 -11.50587654
vertex 33.06339264 -28.60384369 -9.492416382

endloop
endfacet
facet normal -nan(ind) -nan(ind) -nan(ind)
outer loop
vertex 58.14440155 -59.36333466 -35.48603821
vertex 58.14440155 -59.36333466 -35.48603821
vertex 52.71343231 -56.08431244 -39.32888031

endloop
endfacet
facet normal 0.1583959907 0.8503819108 0.5017581582
outer loop
vertex 52.71343231 -56.08431244 -39.32888031
vertex 58.14440155 -59.36333466 -35.48603821
vertex 56.65744781 -55.57001495 -41.44556808

endloop
endfacet
facet normal 0.4452835321 -0.5688349009 0.6914835572
outer loop
vertex 52.71343231 -56.08431244 -39.32888031
vertex 56.65744781 -55.57001495 -41.44556808
vertex 53.10895538 -50.41704559 -34.92151642

endloop
endfacet
facet normal 0.5909163356 -0.4450098574 0.6728923321
outer loop
vertex 53.10895538 -50.41704559 -34.92151642
vertex 56.65744781 -55.57001495 -41.44556808
vertex 56.69142914 -48.72515106 -36.9486351

endloop
endfacet
facet normal 0.5924639702 -0.4743766189 0.6511169672
outer loop
vertex 53.10895538 -50.41704559 -34.92151642
vertex 56.69142914 -48.72515106 -36.9486351
vertex 52.72109222 -44.7763443 -30.45901299

endloop
endfacet
facet normal 0.7123519182 -0.3147058785 0.6273076534
outer loop
vertex 52.72109222 -44.7763443 -30.45901299
vertex 56.69142914 -48.72515106 -36.9486351
vertex 55.58783722 -42.31845856 -32.4813385

endloop
endfacet
facet normal 0.6853196025 -0.2310994118 0.6906012893
outer loop
vertex 52.72109222 -44.7763443 -30.45901299
vertex 55.58783722 -42.31845856 -32.4813385
vertex 50.67996979 -38.97084808 -26.49077797

endloop
endfacet
facet normal 0.6842181087 -0.2333278507 0.6909440756
outer loop
vertex 50.67996979 -38.97084808 -26.49077797
vertex 55.58783722 -42.31845856 -32.4813385
vertex 53.42594147 -35.95618439 -28.19198418

endloop
endfacet
facet normal 0.6948359609 -0.2530181706 0.6731900573
outer loop
vertex 50.67996979 -38.97084808 -26.49077797
vertex 53.42594147 -35.95618439 -28.19198418
vertex 48.51447296 -34.61997223 -22.62037659

endloop
endfacet
facet normal 0.6621064544 -0.3435156345 0.6660420299
outer loop
vertex 48.51447296 -34.61997223 -22.62037659
vertex 53.42594147 -35.95618439 -28.19198418
vertex 51.38710785 -31.356987 -23.79313087

endloop
endfacet
facet normal 0.6608697176 -0.34164235 0.6682303548
outer loop
vertex 48.51448822 -34.61994171 -22.6203804
vertex 51.38712311 -31.35697174 -23.79313278
vertex 46.69922638 -31.67073822 -19.31729126

endloop
endfacet
facet normal 0.676419735 -0.2562436163 0.6905037761
outer loop
vertex 46.69922638 -31.67073822 -19.31729126
vertex 51.38712311 -31.35697174 -23.79313278
vertex 49.163414 -28.19921112 -20.44294548

endloop
endfacet
facet normal 0.6949513555 -0.2783121765 0.6630120873
outer loop
vertex 46.69922638 -31.67073822 -19.31729126
vertex 49.163414 -28.19921112 -20.44294548
vertex 45.17783356 -29.77436066 -16.92656708

endloop
endfacet
facet normal 0.6877374053 -0.1587651968 0.7083861232
outer loop
vertex 45.17783356 -29.77436066 -16.92656708
vertex 49.163414 -28.19921112 -20.44294548
vertex 47.0562973 -26.08876801 -17.92425156

endloop
endfacet
facet normal 0.6678380966 -0.1426335275 0.7305120826
outer loop
vertex 45.17783356 -29.77436066 -16.92656708
vertex 47.0562973 -26.08876801 -17.92425156
vertex 43.75684357 -28.64072418 -15.40614605

endloop
endfacet
facet normal 0.7036566734 -0.2555755973 0.6629844904
outer loop
vertex 43.75684357 -28.64072418 -15.40614605
vertex 47.0562973 -26.08876801 -17.92425156
vertex 45.36841583 -24.799263 -15.63572884

endloop
endfacet
facet normal 0.4936089516 -0.1559447795 0.8555883765
outer loop
vertex 43.75684357 -28.64072418 -15.4061451
vertex 45.36841583 -24.79924774 -15.63572788
vertex 42.29358673 -27.99871063 -14.44494057

endloop
endfacet
facet normal 0.5797111392 -0.2711490393 0.7683835626
outer loop
vertex 42.29358673 -27.99871063 -14.44494057
vertex 45.36841583 -24.79924774 -15.63572788
vertex 43.53249359 -24.06424713 -13.99123764

endloop
endfacet
facet normal 0.4738306105 -0.2466851324 0.8453585505
outer loop
vertex 42.29358673 -27.99871063 -14.44494057
vertex 43.53249359 -24.06424713 -13.99123764
vertex 40.66924286 -27.9516983 -13.5207634

endloop
endfacet
facet normal 0.5088407993 -0.2760990858 0.8153835535
outer loop
vertex 40.66924286 -27.9516983 -13.5207634
vertex 43.53249359 -24.06424713 -13.99123764
vertex 41.38097382 -24.41655731 -12.76787663

endloop
endfacet
facet normal 0.468282491 -0.2732337713 0.8402706981
outer loop
vertex 40.66924286 -27.9516983 -13.5207634
vertex 41.38097382 -24.41655731 -12.76787663
vertex 36.83644867 -28.32421112 -11.50588036

endloop
endfacet
facet normal 0.4671332836 -0.2715106606 0.8414680362
outer loop
vertex 36.83644867 -28.32421112 -11.50588036
vertex 41.38097382 -24.41655731 -12.76787663
vertex 37.05017853 -26.53569794 -11.04744339

endloop
endfacet
facet normal 0.4687044919 -0.2714767158 0.8406048417
outer loop
vertex 36.83641815 -28.32422638 -11.50587654
vertex 37.05014801 -26.5357132 -11.04744053
vertex 33.06339264 -28.60384369 -9.492416382

endloop
endfacet
facet normal -nan(ind) -nan(ind) -nan(ind)
outer loop
vertex 33.06339264 -28.60384369 -9.492416382
vertex 37.05014801 -26.5357132 -11.04744053
vertex 33.06339264 -28.60384369 -9.492416382

endloop
endfacet
facet normal -nan(ind) -nan(ind) -nan(ind)
outer loop
vertex 58.14440155 -59.36333466 -35.48603821
vertex 58.14440155 -59.36333466 -35.48603821
vertex 56.65744781 -55.57001495 -41.44556808

endloop
endfacet
facet normal 0.1003559381 0.8504989147 0.5163141489
outer loop
vertex 56.65744781 -55.57001495 -41.44556808
vertex 58.14440155 -59.36333466 -35.48603821
vertex 60.72444916 -54.81157684 -43.48540878

endloop
endfacet
facet normal 0.4622761607 -0.4884929955 0.7400509119
outer loop
vertex 56.65744781 -55.57001495 -41.44556808
vertex 60.72444916 -54.81157684 -43.48540878
vertex 56.69142914 -48.72515106 -36.9486351

endloop
endfacet
facet normal 0.6967840195 -0.2573551536 0.6695225239
outer loop
vertex 56.69142914 -48.72515106 -36.9486351
vertex 60.72444916 -54.81157684 -43.48540878
vertex 60.09447479 -46.7664566 -39.73735046

endloop
endfacet
facet normal 0.7039246559 -0.3206638396 0.6337704062
outer loop
vertex 56.69142914 -48.72515106 -36.9486351
vertex 60.09447479 -46.7664566 -39.73735046
vertex 55.58783722 -42.31845856 -32.4813385

endloop
endfacet
facet normal 0.6715952754 -0.3683028817 0.6428940892
outer loop
vertex 55.58783722 -42.31845856 -32.4813385
vertex 60.09447479 -46.7664566 -39.73735046
vertex 58.96083832 -39.96196747 -34.65493011

endloop
endfacet
facet normal 0.6458705068 -0.2635880113 0.7165003419
outer loop
vertex 55.58783722 -42.31845856 -32.4813385
vertex 58.96083832 -39.96196747 -34.65493011
vertex 53.42594147 -35.95618439 -28.19198418

endloop
endfacet
facet normal 0.5113779306 -0.4622423947 0.7244477868
outer loop
vertex 53.42594147 -35.95618439 -28.19198418
vertex 58.96083832 -39.96196747 -34.65493011
vertex 56.99660492 -33.83731842 -29.36050034

endloop
endfacet
facet normal 0.5120062232 -0.4642577767 0.7227131724
outer loop
vertex 53.42594147 -35.95618439 -28.19198418
vertex 56.99660492 -33.83731842 -29.36050034
vertex 51.38710785 -31.356987 -23.79313087

endloop
endfacet
facet normal 0.459314853 -0.541582942 0.7040722966
outer loop
vertex 51.38710785 -31.356987 -23.79313087
vertex 56.99660492 -33.83731842 -29.36050034
vertex 54.76952362 -29.26432037 -24.3900032

endloop
endfacet
facet normal 0.4370021522 -0.4914779067 0.7533116937
outer loop
vertex 51.38712311 -31.35697174 -23.79313278
vertex 54.76953888 -29.26432037 -24.39000511
vertex 49.163414 -28.19921112 -20.44294548

endloop
endfacet
facet normal 0.4493738711 -0.4639123678 0.7634450793
outer loop
vertex 49.163414 -28.19921112 -20.44294548
vertex 54.76953888 -29.26432037 -24.39000511
vertex 52.16147614 -25.86693573 -20.79042244

endloop
endfacet
facet normal 0.449037075 -0.4634038508 0.7639518976
outer loop
vertex 49.163414 -28.19921112 -20.44294548
vertex 52.16147614 -25.86693573 -20.79042244
vertex 47.0562973 -26.08876801 -17.92425156

endloop
endfacet
facet normal 0.4399671853 -0.5016438961 0.7448371053
outer loop
vertex 47.0562973 -26.08876801 -17.92425156
vertex 52.16147614 -25.86693573 -20.79042244
vertex 49.68953705 -23.53342438 -17.75866699

endloop
endfacet
facet normal 0.4924093783 -0.5510740876 0.6736840606
outer loop
vertex 47.0562973 -26.08876801 -17.92425156
vertex 49.68953705 -23.53342438 -17.75866699
vertex 45.36841583 -24.799263 -15.63572884

endloop
endfacet
facet normal 0.4750935435 -0.6749249697 0.5645904541
outer loop
vertex 45.36841583 -24.799263 -15.63572884
vertex 49.68953705 -23.53342438 -17.75866699
vertex 47.6155777 -22.23920441 -14.4663229

endloop
endfacet
facet normal 0.36191383 -0.631090045 0.6861076355
outer loop
vertex 45.36841583 -24.79924774 -15.63572788
vertex 47.6155777 -22.23920441 -14.46632099
vertex 43.53249359 -24.06424713 -13.99123764

endloop
endfacet
facet normal 0.3939452469 -0.7391366363 0.5463370681
outer loop
vertex 43.53249359 -24.06424713 -13.99123764
vertex 47.6155777 -22.23920441 -14.46632099
vertex 45.16411591 -21.6515274 -11.90358925

endloop
endfacet
facet normal 0.4202035367 -0.7393686175 0.5260827541
outer loop
vertex 43.53249359 -24.06424713 -13.99123764
vertex 45.16411591 -21.6515274 -11.90358925
vertex 41.38097382 -24.41655731 -12.76787663

endloop
endfacet
facet normal 0.4022818208 -0.7251102328 0.5589137673
outer loop
vertex 41.38097382 -24.41655731 -12.76787663
vertex 45.16411591 -21.6515274 -11.90358925
vertex 42.16849518 -22.21218109 -10.47483921

endloop
endfacet
facet normal 0.5321996212 -0.6942139864 0.4845932126
outer loop
vertex 41.38097382 -24.41655731 -12.76787663
vertex 42.16849518 -22.21218109 -10.47483921
vertex 37.05017853 -26.53569794 -11.04744339

endloop
endfacet
facet normal 0.480825305 -0.647515893 0.5912107825
outer loop
vertex 37.05017853 -26.53569794 -11.04744339
vertex 42.16849518 -22.21218109 -10.47483921
vertex 37.19309235 -25.3121109 -9.823555946

endloop
endfacet
facet normal 0.5429598689 -0.6247252226 0.5611711144
outer loop
vertex 37.05014801 -26.5357132 -11.04744053
vertex 37.19306183 -25.31212616 -9.823554993
vertex 33.06339264 -28.60384369 -9.492416382

endloop
endfacet
facet normal -nan(ind) -nan(ind) -nan(ind)
outer loop
vertex 33.06339264 -28.60384369 -9.492416382
vertex 37.19306183 -25.31212616 -9.823554993
vertex 33.06339264 -28.60384369 -9.492416382

endloop
endfacet
facet normal -nan(ind) -nan(ind) -nan(ind)
outer loop
vertex 58.14440155 -59.36333466 -35.48603821
vertex 58.14440155 -59.36333466 -35.48603821
vertex 60.72444916 -54.81157684 -43.48540878

endloop
endfacet
facet normal -0.2458204478 0.8744243979 0.4182754159
outer loop
vertex 60.72444916 -54.81157684 -43.48540878
vertex 58.14440155 -59.36333466 -35.48603821
vertex 65.45879364 -54.01352692 -42.37139511

endloop
endfacet
facet normal -0.1382615864 -0.4271190166 0.8935620189
outer loop
vertex 60.72444916 -54.81157684 -43.48540878
vertex 65.45879364 -54.01352692 -42.37139511
vertex 60.09447479 -46.7664566 -39.73735046

endloop
endfacet
facet normal -0.04224471003 -0.3687677085 0.928561151
outer loop
vertex 60.09447479 -46.7664566 -39.73735046
vertex 65.45879364 -54.01352692 -42.37139511
vertex 64.31261444 -46.03730011 -39.25587082

endloop
endfacet
facet normal 0.01167026907 -0.5971308351 0.8020589352
outer loop
vertex 60.09447479 -46.7664566 -39.73735046
vertex 64.31261444 -46.03730011 -39.25587082
vertex 58.96083832 -39.96196747 -34.65493011

endloop
endfacet
facet normal 0.118329972 -0.5311368108 0.8389825225
outer loop
vertex 58.96083832 -39.96196747 -34.65493011
vertex 64.31261444 -46.03730011 -39.25587082
vertex 62.87041473 -39.02802277 -34.61508179

endloop
endfacet
facet normal 0.1405615956 -0.6212939024 0.7708672881
outer loop
vertex 58.96083832 -39.96196747 -34.65493011
vertex 62.87041473 -39.02802277 -34.61508179
vertex 56.99660492 -33.83731842 -29.36050034

endloop
endfacet
facet normal 0.1745055765 -0.5959818959 0.7838070989
outer loop
vertex 56.99660492 -33.83731842 -29.36050034
vertex 62.87041473 -39.02802277 -34.61508179
vertex 60.84671783 -32.78873444 -29.42037392

endloop
endfacet
facet normal 0.1953104138 -0.6765862703 0.7099893093
outer loop
vertex 56.99660492 -33.83731842 -29.36050034
vertex 60.84671783 -32.78873444 -29.42037392
vertex 54.76952362 -29.26432037 -24.3900032

endloop
endfacet
facet normal 0.1557020098 -0.7107051611 0.6860430241
outer loop
vertex 54.76952362 -29.26432037 -24.3900032
vertex 60.84671783 -32.78873444 -29.42037392
vertex 58.50377655 -28.23409271 -24.17025375

endloop
endfacet
facet normal 0.1409558654 -0.6669681072 0.7316317558
outer loop
vertex 54.76953888 -29.26432037 -24.39000511
vertex 58.50379181 -28.23407745 -24.17025757
vertex 52.16147614 -25.86693573 -20.79042244

endloop
endfacet
facet normal 0.03518468887 -0.7863582969 0.6167678833
outer loop
vertex 52.16147614 -25.86693573 -20.79042244
vertex 58.50379181 -28.23407745 -24.17025757
vertex 55.99066925 -24.8146286 -19.66720963

endloop
endfacet
facet normal 0.03085837886 -0.7797520161 0.6253275871
outer loop
vertex 52.16147614 -25.86693573 -20.79042244
vertex 55.99066925 -24.8146286 -19.66720963
vertex 49.68953705 -23.53342438 -17.75866699

endloop
endfacet
facet normal -0.01372328773 -0.8505715132 0.5256803632
outer loop
vertex 49.68953705 -23.53342438 -17.75866699
vertex 55.99066925 -24.8146286 -19.66720963
vertex 53.38722992 -22.3367691 -15.72590065

endloop
endfacet
facet normal 0.07281416655 -0.9117360711 0.4042714536
outer loop
vertex 49.68953705 -23.53342438 -17.75866699
vertex 53.38722992 -22.3367691 -15.72590065
vertex 47.6155777 -22.23920441 -14.4663229

endloop
endfacet
facet normal 0.07117342949 -0.9150505066 0.3970099688
outer loop
vertex 47.6155777 -22.23920441 -14.4663229
vertex 53.38722992 -22.3367691 -15.72590065
vertex 50.55440521 -20.91359711 -11.93784428

endloop
endfacet
facet normal 0.1297644824 -0.9321942925 0.3378979564
outer loop
vertex 47.6155777 -22.23920441 -14.46632099
vertex 50.55440521 -20.91359711 -11.93784142
vertex 45.16411591 -21.6515274 -11.90358925

endloop
endfacet
facet normal 0.1315015852 -0.9469566345 0.2932244539
outer loop
vertex 45.16411591 -21.6515274 -11.90358925
vertex 50.55440521 -20.91359711 -11.93784142
vertex 47.13803864 -20.40535736 -8.764372826

endloop
endfacet
facet normal 0.2724553943 -0.9407015443 0.2021103948
outer loop
vertex 45.16411591 -21.6515274 -11.90358925
vertex 47.13803864 -20.40535736 -8.764372826
vertex 42.16849518 -22.21218109 -10.47483921

endloop
endfacet
facet normal 0.2370434999 -0.9270318151 0.2905552387
outer loop
vertex 42.16849518 -22.21218109 -10.47483921
vertex 47.13803864 -20.40535736 -8.764372826
vertex 43.06829071 -20.95331573 -7.192442894

endloop
endfacet
facet normal 0.5370455384 -0.826309979 0.1696875989
outer loop
vertex 42.16849518 -22.21218109 -10.47483921
vertex 43.06829071 -20.95331573 -7.192442894
vertex 37.19309235 -25.3121109 -9.823555946

endloop
endfacet
facet normal 0.4308339357 -0.8148357868 0.3878463507
outer loop
vertex 37.19309235 -25.3121109 -9.823555946
vertex 43.06829071 -20.95331573 -7.192442894
vertex 37.32312775 -24.36545563 -7.979153156

endloop
endfacet
facet normal 0.6044954062 -0.725220263 0.3296071887
outer loop
vertex 37.19306183 -25.31212616 -9.823554993
vertex 37.32309723 -24.36547089 -7.97915411
vertex 33.06339264 -28.60384369 -9.492416382

endloop
endfacet
facet normal 0 0.3328201175 -0.9429903626
outer loop
vertex 33.06339264 -28.60384369 -9.492416382
vertex 37.32309723 -24.36547089 -7.97915411
vertex 33.0634079 -28.60384369 -9.492416382

endloop
endfacet
facet normal -0.1787564009 -0.6758583188 -0.7150256038
outer loop
vertex 58.14440155 -59.36333466 -35.48603821
vertex 58.14438629 -59.36333466 -35.48603439
vertex 65.45879364 -54.01352692 -42.37139511

endloop
endfacet
facet normal -0.3462926149 0.8826186061 0.3179084957
outer loop
vertex 65.45879364 -54.01352692 -42.37139511
vertex 58.14438629 -59.36333466 -35.48603439
vertex 69.31978607 -53.58692169 -39.35007477

endloop
endfacet
facet normal -0.5462973714 -0.3716894388 0.7506038547
outer loop
vertex 65.45879364 -54.01352692 -42.37139511
vertex 69.31978607 -53.58692169 -39.35007477
vertex 64.31261444 -46.03730011 -39.25587082

endloop
endfacet
facet normal -0.5002861619 -0.3417342901 0.7955698967
outer loop
vertex 64.31261444 -46.03730011 -39.25587082
vertex 69.31978607 -53.58692169 -39.35007477
vertex 68.2733078 -46.23325348 -36.84939957

endloop
endfacet
facet normal -0.4517405629 -0.5552759767 0.6982828975
outer loop
vertex 64.31261444 -46.03730011 -39.25587082
vertex 68.2733078 -46.23325348 -36.84939957
vertex 62.87041473 -39.02802277 -34.61508179

endloop
endfacet
facet normal -0.3615293205 -0.5126001835 0.7788053155
outer loop
vertex 62.87041473 -39.02802277 -34.61508179
vertex 68.2733078 -46.23325348 -36.84939957
vertex 66.67476654 -39.27896881 -33.01423264

endloop
endfacet
facet normal -0.3264862299 -0.6650764942 0.6716248393
outer loop
vertex 62.87041473 -39.02802277 -34.61508179
vertex 66.67476654 -39.27896881 -33.01423264
vertex 60.84671783 -32.78873444 -29.42037392

endloop
endfacet
facet normal -0.2997710407 -0.6538620591 0.6946954727
outer loop
vertex 60.84671783 -32.78873444 -29.42037392
vertex 66.67476654 -39.27896881 -33.01423264
vertex 64.54750824 -33.03383636 -28.05412483

endloop
endfacet
facet normal -0.2600939572 -0.7838100195 0.5639087558
outer loop
vertex 60.84671783 -32.78873444 -29.42037392
vertex 64.54750824 -33.03383636 -28.05412483
vertex 58.50377655 -28.23409271 -24.17025375

endloop
endfacet
facet normal -0.2769916654 -0.790636003 0.5460497141
outer loop
vertex 58.50377655 -28.23409271 -24.17025375
vertex 64.54750824 -33.03383636 -28.05412483
vertex 62.34546661 -28.56534576 -22.70112801

endloop
endfacet
facet normal -0.2586603761 -0.8333628178 0.4884682894
outer loop
vertex 58.50379181 -28.23407745 -24.17025757
vertex 62.34546661 -28.56534576 -22.70112991
vertex 55.99066925 -24.8146286 -19.66720963

endloop
endfacet
facet normal -0.3161827922 -0.859888196 0.4007751048
outer loop
vertex 55.99066925 -24.8146286 -19.66720963
vertex 62.34546661 -28.56534576 -22.70112991
vertex 59.97211456 -25.26976776 -17.50266457

endloop
endfacet
facet normal -0.2968230247 -0.8844772577 0.3599945605
outer loop
vertex 55.99066925 -24.8146286 -19.66720963
vertex 59.97211456 -25.26976776 -17.50266457
vertex 53.38722992 -22.3367691 -15.72590065

endloop
endfacet
facet normal -0.326168716 -0.9025563002 0.2810802162
outer loop
vertex 53.38722992 -22.3367691 -15.72590065
vertex 59.97211456 -25.26976776 -17.50266457
vertex 57.16155243 -22.77759552 -12.76163864

endloop
endfacet
facet normal -0.2473570257 -0.9533218741 0.173181653
outer loop
vertex 53.38722992 -22.3367691 -15.72590065
vertex 57.16155243 -22.77759552 -12.76163864
vertex 50.55440521 -20.91359711 -11.93784428

endloop
endfacet
facet normal -0.2458906025 -0.9520466328 0.1820577085
outer loop
vertex 50.55440521 -20.91359711 -11.93784428
vertex 57.16155243 -22.77759552 -12.76163864
vertex 53.68897247 -21.077034 -8.55891037

endloop
endfacet
facet normal -0.1033647358 -0.9934925437 0.04783427343
outer loop
vertex 50.55440521 -20.91359711 -11.93784142
vertex 53.68895721 -21.077034 -8.558908463
vertex 47.13803864 -20.40535736 -8.764372826

endloop
endfacet
facet normal -0.1054436862 -0.9835631847 0.1465780735
outer loop
vertex 47.13803864 -20.40535736 -8.764372826
vertex 53.68895721 -21.077034 -8.558908463
vertex 49.41127777 -20.09575653 -5.05160284

endloop
endfacet
facet normal 0.1337266266 -0.9910179377 0.0007615320501
outer loop
vertex 47.13803864 -20.40535736 -8.764372826
vertex 49.41127777 -20.09575653 -5.05160284
vertex 43.06829071 -20.95331573 -7.192442894

endloop
endfacet
facet normal 0.07207431644 -0.9811208248 0.1794635803
outer loop
vertex 43.06829071 -20.95331573 -7.192442894
vertex 49.41127777 -20.09575653 -5.05160284
vertex 44.16077423 -20.17693329 -3.386739969

endloop
endfacet
facet normal 0.5073690414 -0.861205101 0.0300423447
outer loop
vertex 43.06829071 -20.95331573 -7.192442894
vertex 44.16077423 -20.17693329 -3.386739969
vertex 37.32312775 -24.36545563 -7.979153156

endloop
endfacet
facet normal 0.2683823407 -0.8764448166 0.3997692168
outer loop
vertex 37.32312775 -24.36545563 -7.979153156
vertex 44.16077423 -20.17693329 -3.386739969
vertex 37.39098358 -23.24034882 -5.558049202

endloop
endfacet
facet normal 0.6085594893 -0.7259847522 0.3203145862
outer loop
vertex 37.32309723 -24.36547089 -7.97915411
vertex 37.39093781 -23.24037933 -5.558052063
vertex 33.0634079 -28.60384369 -9.492416382

endloop
endfacet
facet normal 0 -0.5970107913 0.8022332191
outer loop
vertex 33.0634079 -28.60384369 -9.492416382
vertex 37.39093781 -23.24037933 -5.558052063
vertex 33.06339264 -28.60384369 -9.492416382

endloop
endfacet
facet normal 0.4320889711 -0.2578673959 0.8641779423
outer loop
vertex 58.14438629 -59.36333466 -35.48603439
vertex 58.14440155 -59.36333466 -35.48604202
vertex 69.31978607 -53.58692169 -39.35007477

endloop
endfacet
facet normal -0.3875693083 0.8956792951 0.2180563807
outer loop
vertex 69.31978607 -53.58692169 -39.35007477
vertex 58.14440155 -59.36333466 -35.48604202
vertex 71.16143036 -53.64618683 -35.83333588

endloop
endfacet
facet normal -0.8543175459 -0.2721538544 0.4428022206
outer loop
vertex 69.31978607 -53.58692169 -39.35007477
vertex 71.16143036 -53.64618683 -35.83333588
vertex 68.2733078 -46.23325348 -36.84939957

endloop
endfacet
facet normal -0.8162198663 -0.2463767529 0.5225740671
outer loop
vertex 68.2733078 -46.23325348 -36.84939957
vertex 71.16143036 -53.64618683 -35.83333588
vertex 70.69979095 -47.17745209 -33.50458145

endloop
endfacet
facet normal -0.7847517133 -0.4277516007 0.4485458732
outer loop
vertex 68.2733078 -46.23325348 -36.84939957
vertex 70.69979095 -47.17745209 -33.50458145
vertex 66.67476654 -39.27896881 -33.01423264

endloop
endfacet
facet normal -0.7252385616 -0.4041802883 0.5573753715
outer loop
vertex 66.67476654 -39.27896881 -33.01423264
vertex 70.69979095 -47.17745209 -33.50458145
vertex 69.64192963 -40.69649506 -30.1813755

endloop
endfacet
facet normal -0.6904205084 -0.5793008208 0.4332784712
outer loop
vertex 66.67476654 -39.27896881 -33.01423264
vertex 69.64192963 -40.69649506 -30.1813755
vertex 64.54750824 -33.03383636 -28.05412483

endloop
endfacet
facet normal -0.6904935837 -0.5793126822 0.4331459999
outer loop
vertex 64.54750824 -33.03383636 -28.05412483
vertex 69.64192963 -40.69649506 -30.1813755
vertex 67.74523163 -34.85909271 -25.39771461

endloop
endfacet
facet normal -0.6521168947 -0.6920801401 0.3094649315
outer loop
vertex 64.54750824 -33.03383636 -28.05412483
vertex 67.74523163 -34.85909271 -25.39771461
vertex 62.34546661 -28.56534576 -22.70112801

endloop
endfacet
facet normal -0.6462706327 -0.6921522617 0.3213402629
outer loop
vertex 62.34546661 -28.56534576 -22.70112801
vertex 67.74523163 -34.85909271 -25.39771461
vertex 65.71071625 -30.50751495 -20.11637497

endloop
endfacet
facet normal -0.6049496531 -0.7679020166 0.2106241882
outer loop
vertex 62.34546661 -28.56534576 -22.70112991
vertex 65.71071625 -30.50751495 -20.11637878
vertex 59.97211456 -25.26976776 -17.50266457

endloop
endfacet
facet normal -0.611115098 -0.7670497298 0.1953795403
outer loop
vertex 59.97211456 -25.26976776 -17.50266457
vertex 65.71071625 -30.50751495 -20.11637878
vertex 63.32697296 -27.23644257 -14.73027992

endloop
endfacet
facet normal -0.5624116063 -0.8210096359 0.09816538543
outer loop
vertex 59.97211456 -25.26976776 -17.50266457
vertex 63.32697296 -27.23644257 -14.73027992
vertex 57.16155243 -22.77759552 -12.76163864

endloop
endfacet
facet normal -0.5724248886 -0.8177939057 0.05952218547
outer loop
vertex 57.16155243 -22.77759552 -12.76163864
vertex 63.32697296 -27.23644257 -14.73027992
vertex 60.31742096 -24.75209808 -9.539958954

endloop
endfacet
facet normal -0.4902038872 -0.8699941039 -0.05301169306
outer loop
vertex 57.16155243 -22.77759552 -12.76163864
vertex 60.31742096 -24.75209808 -9.539958954
vertex 53.68897247 -21.077034 -8.55891037

endloop
endfacet
facet normal -0.4906358123 -0.8694291711 -0.05804632604
outer loop
vertex 53.68897247 -21.077034 -8.55891037
vertex 60.31742096 -24.75209808 -9.539958954
vertex 56.44190216 -22.87395477 -4.913383007

endloop
endfacet
facet normal -0.3583691716 -0.9158989787 -0.1808332801
outer loop
vertex 53.68895721 -21.077034 -8.558908463
vertex 56.4418869 -22.87395477 -4.9133811
vertex 49.41127777 -20.09575653 -5.05160284

endloop
endfacet
facet normal -0.3634350002 -0.9251673222 -0.1094546169
outer loop
vertex 49.41127777 -20.09575653 -5.05160284
vertex 56.4418869 -22.87395477 -4.9133811
vertex 51.38109589 -21.31784821 -1.262467027

endloop
endfacet
facet normal -0.07150869817 -0.9595502615 -0.2723046541
outer loop
vertex 49.41127777 -20.09575653 -5.05160284
vertex 51.38109589 -21.31784821 -1.262467027
vertex 44.16077423 -20.17693329 -3.386739969

endloop
endfacet
facet normal -0.1393433362 -0.9885832071 -0.05733050033
outer loop
vertex 44.16077423 -20.17693329 -3.386739969
vertex 51.38109589 -21.31784821 -1.262467027
vertex 45.02088165 -20.53385162 0.6772969961

endloop
endfacet
facet normal 0.4514662027 -0.8754681945 -0.172434479
outer loop
vertex 44.16077423 -20.17693329 -3.386739969
vertex 45.02088165 -20.53385162 0.6772969961
vertex 37.39098358 -23.24034882 -5.558049202

endloop
endfacet
facet normal 0.1149155796 -0.9548807144 0.2738560736
outer loop
vertex 37.39098358 -23.24034882 -5.558049202
vertex 45.02088165 -20.53385162 0.6772969961
vertex 37.07135773 -22.34375763 -2.297696114

endloop
endfacet
facet normal 0.6492344141 -0.714700222 0.2601888776
outer loop
vertex 37.39093781 -23.24037933 -5.558052063
vertex 37.07132721 -22.34377289 -2.297700882
vertex 33.06339264 -28.60384369 -9.492416382

endloop
endfacet
facet normal 0 0.7574099302 -0.6529396176
outer loop
vertex 33.06339264 -28.60384369 -9.492416382
vertex 37.07132721 -22.34377289 -2.297700882
vertex 33.0634079 -28.60384369 -9.492416382

endloop
endfacet
facet normal -0.131260708 0.2404371798 -0.9617487192
outer loop
vertex 58.14440155 -59.36333466 -35.48604202
vertex 58.14440155 -59.3633194 -35.48603821
vertex 71.16143036 -53.64618683 -35.83333588

endloop
endfacet
facet normal -0.3959162831 0.9092478156 0.1285255551
outer loop
vertex 71.16143036 -53.64618683 -35.83333588
vertex 58.14440155 -59.3633194 -35.48603821
vertex 71.56700897 -53.93618011 -32.53242874

endloop
endfacet
facet normal -0.9875703454 -0.1106609628 0.1116197631
outer loop
vertex 71.16143036 -53.64618683 -35.83333588
vertex 71.56700897 -53.93618011 -32.53242874
vertex 70.69979095 -47.17745209 -33.50458145

endloop
endfacet
facet normal -0.9675511122 -0.09019781649 0.2360279411
outer loop
vertex 70.69979095 -47.17745209 -33.50458145
vertex 71.56700897 -53.93618011 -32.53242874
vertex 71.62654877 -48.39763641 -30.17180824

endloop
endfacet
facet normal -0.9534282684 -0.2454850972 0.1752474755
outer loop
vertex 70.69979095 -47.17745209 -33.50458145
vertex 71.62654877 -48.39763641 -30.17180824
vertex 69.64192963 -40.69649506 -30.1813755

endloop
endfacet
facet normal -0.9293085337 -0.239137426 0.2814229131
outer loop
vertex 69.64192963 -40.69649506 -30.1813755
vertex 71.62654877 -48.39763641 -30.17180824
vertex 71.02748871 -42.48809052 -27.12841034

endloop
endfacet
facet normal -0.8933576941 -0.4203677773 0.1587541401
outer loop
vertex 69.64192963 -40.69649506 -30.1813755
vertex 71.02748871 -42.48809052 -27.12841034
vertex 67.74523163 -34.85909271 -25.39771461

endloop
endfacet
facet normal -0.8931154609 -0.4204953611 0.1597760469
outer loop
vertex 67.74523163 -34.85909271 -25.39771461
vertex 71.02748871 -42.48809052 -27.12841034
vertex 69.32970428 -37.15111542 -22.5729351

endloop
endfacet
facet normal -0.8628716469 -0.4992213249 0.07893356681
outer loop
vertex 67.74523163 -34.85909271 -25.39771461
vertex 69.32970428 -37.15111542 -22.5729351
vertex 65.71071625 -30.50751495 -20.11637497

endloop
endfacet
facet normal -0.8577760458 -0.5042139888 0.09994268417
outer loop
vertex 65.71071625 -30.50751495 -20.11637497
vertex 69.32970428 -37.15111542 -22.5729351
vertex 67.69783783 -33.32308197 -17.26617241

endloop
endfacet
facet normal -0.8136241436 -0.5813487768 -0.007024976891
outer loop
vertex 65.71071625 -30.50751495 -20.11637878
vertex 67.69786835 -33.32306671 -17.26617432
vertex 63.32697296 -27.23644257 -14.73027992

endloop
endfacet
facet normal -0.8139099479 -0.5809284449 -0.008526502177
outer loop
vertex 63.32697296 -27.23644257 -14.73027992
vertex 67.69786835 -33.32306671 -17.26617432
vertex 65.52037811 -30.35187531 -11.84408283

endloop
endfacet
facet normal -0.7521241307 -0.6467587352 -0.1265403628
outer loop
vertex 63.32697296 -27.23644257 -14.73027992
vertex 65.52037811 -30.35187531 -11.84408283
vertex 60.31742096 -24.75209808 -9.539958954

endloop
endfacet
facet normal -0.7541434765 -0.6398286223 -0.147942543
outer loop
vertex 60.31742096 -24.75209808 -9.539958954
vertex 65.52037811 -30.35187531 -11.84408283
vertex 62.41107941 -27.90352631 -6.583031178

endloop
endfacet
facet normal -0.6633940935 -0.6967466474 -0.2728597224
outer loop
vertex 60.31742096 -24.75209808 -9.539958954
vertex 62.41107941 -27.90352631 -6.583031178
vertex 56.44190216 -22.87395477 -4.913383007

endloop
endfacet
facet normal -0.6628748178 -0.6910255551 -0.2882371545
outer loop
vertex 56.44190216 -22.87395477 -4.913383007
vertex 62.41107941 -27.90352631 -6.583031178
vertex 58.23183441 -25.91666412 -1.735136032

endloop
endfacet
facet normal -0.5268764496 -0.7423293591 -0.4139423668
outer loop
vertex 56.4418869 -22.87395477 -4.9133811
vertex 58.23183441 -25.91666412 -1.735133052
vertex 51.38109589 -21.31784821 -1.262467027

endloop
endfacet
facet normal -0.5265238881 -0.7416294217 -0.4156421423
outer loop
vertex 51.38109589 -21.31784821 -1.262467027
vertex 58.23183441 -25.91666412 -1.735133052
vertex 52.58527374 -24.10201263 2.179893017

endloop
endfacet
facet normal -0.2650612295 -0.792948842 -0.5486117005
outer loop
vertex 51.38109589 -21.31784821 -1.262467027
vertex 52.58527374 -24.10201263 2.179893017
vertex 45.02088165 -20.53385162 0.6772969961

endloop
endfacet
facet normal -0.3124126792 -0.8450419903 -0.4339381754
outer loop
vertex 45.02088165 -20.53385162 0.6772969961
vertex 52.58527374 -24.10201263 2.179893017
vertex 45.34122467 -22.55820465 4.388848782

endloop
endfacet
facet normal 0.3595517874 -0.8058040142 -0.4705341458
outer loop
vertex 45.02088165 -20.53385162 0.6772969961
vertex 45.34122467 -22.55820465 4.388848782
vertex 37.07135773 -22.34375763 -2.297696114

endloop
endfacet
facet normal -0.01252556406 -0.9997841716 -0.01657298207
outer loop
vertex 37.07135773 -22.34375763 -2.297696114
vertex 45.34122467 -22.55820465 4.388848782
vertex 35.97594452 -22.39704132 1.744596958

endloop
endfacet
facet normal 0.716894865 -0.6720748544 0.1854109913
outer loop
vertex 37.07132721 -22.34377289 -2.297700882
vertex 35.975914 -22.39705658 1.744591951
vertex 33.0634079 -28.60384369 -9.492416382

endloop
endfacet
facet normal -0.9701424837 0 0.2425356209
outer loop
vertex 33.0634079 -28.60384369 -9.492416382
vertex 35.975914 -22.39705658 1.744591951
vertex 33.0634079 -28.60382843 -9.492417336

endloop
endfacet
facet normal -0.3897438943 0.5704805255 0.7229465842
outer loop
vertex 58.14440155 -59.3633194 -35.48603821
vertex 58.14438629 -59.36333466 -35.48603439
vertex 71.56700897 -53.93618011 -32.53242874

endloop
endfacet
facet normal -0.382660985 0.9228762388 0.04324296117
outer loop
vertex 71.56700897 -53.93618011 -32.53242874
vertex 58.14438629 -59.36333466 -35.48603439
vertex 71.04711151 -54.31255341 -29.10062027

endloop
endfacet
facet normal -0.9873447418 0.07104513049 -0.1417848617
outer loop
vertex 71.56700897 -53.93618011 -32.53242874
vertex 71.04711151 -54.31255341 -29.10062027
vertex 71.62654877 -48.39763641 -30.17180824

endloop
endfacet
facet normal -0.9869396687 0.07044674456 -0.1448699832
outer loop
vertex 71.62654877 -48.39763641 -30.17180824
vertex 71.04711151 -54.31255341 -29.10062027
vertex 71.06764984 -49.63394928 -26.96544838

endloop
endfacet
facet normal -0.9844729304 -0.009530153126 -0.1752776206
outer loop
vertex 71.62654877 -48.39763641 -30.17180824
vertex 71.06764984 -49.63394928 -26.96544838
vertex 71.02748871 -42.48809052 -27.12841034

endloop
endfacet
facet normal -0.9449256659 -0.01276875101 -0.3270358443
outer loop
vertex 71.02748871 -42.48809052 -27.12841034
vertex 71.06764984 -49.63394928 -26.96544838
vertex 70.09694672 -44.14670563 -24.37497711

endloop
endfacet
facet normal -0.9437702298 -0.01847921871 -0.3300852776
outer loop
vertex 71.02748871 -42.48809052 -27.12841034
vertex 70.09694672 -44.14670563 -24.37497711
vertex 69.32970428 -37.15111542 -22.5729351

endloop
endfacet
facet normal -0.9101791382 0.006861750036 -0.4141579568
outer loop
vertex 69.32970428 -37.15111542 -22.5729351
vertex 70.09694672 -44.14670563 -24.37497711
vertex 68.27468109 -39.18935394 -20.28812027

endloop
endfacet
facet normal -0.9321526289 0.08911578357 -0.3509271145
outer loop
vertex 69.32970428 -37.15111542 -22.5729351
vertex 68.27468109 -39.18935394 -20.28812027
vertex 67.69783783 -33.32308197 -17.26617241

endloop
endfacet
facet normal -0.9840542078 -0.005175753497 -0.177793473
outer loop
vertex 67.69783783 -33.32308197 -17.26617241
vertex 68.27468109 -39.18935394 -20.28812027
vertex 67.29381561 -36.31700897 -14.94282722

endloop
endfacet
facet normal -0.9420977235 -0.1167928129 -0.3143426776
outer loop
vertex 67.69786835 -33.32306671 -17.26617432
vertex 67.29381561 -36.31699371 -14.94283009
vertex 65.52037811 -30.35187531 -11.84408283

endloop
endfacet
facet normal -0.9620832205 -0.1792162508 -0.2056147903
outer loop
vertex 65.52037811 -30.35187531 -11.84408283
vertex 67.29381561 -36.31699371 -14.94283009
vertex 65.69277191 -34.13756561 -9.351071358

endloop
endfacet
facet normal -0.8767371178 -0.2917402685 -0.3823866248
outer loop
vertex 65.52037811 -30.35187531 -11.84408283
vertex 65.69277191 -34.13756561 -9.351071358
vertex 62.41107941 -27.90352631 -6.583031178

endloop
endfacet
facet normal -0.8680511117 -0.2727592289 -0.4148368537
outer loop
vertex 62.41107941 -27.90352631 -6.583031178
vertex 65.69277191 -34.13756561 -9.351071358
vertex 62.60164642 -32.05643463 -4.251217842

endloop
endfacet
facet normal -0.7772002816 -0.3348159194 -0.5327832103
outer loop
vertex 62.41107941 -27.90352631 -6.583031178
vertex 62.60164642 -32.05643463 -4.251217842
vertex 58.23183441 -25.91666412 -1.735136032

endloop
endfacet
facet normal -0.7455814481 -0.2834925652 -0.6031089425
outer loop
vertex 58.23183441 -25.91666412 -1.735136032
vertex 62.60164642 -32.05643463 -4.251217842
vertex 58.18601227 -30.28366852 0.3742299974

endloop
endfacet
facet normal -0.6071847677 -0.3404152393 -0.717944324
outer loop
vertex 58.23183441 -25.91666412 -1.735133052
vertex 58.18602753 -30.28366852 0.3742339909
vertex 52.58527374 -24.10201263 2.179893017

endloop
endfacet
facet normal -0.628195107 -0.3690918684 -0.6849394441
outer loop
vertex 52.58527374 -24.10201263 2.179893017
vertex 58.18602753 -30.28366852 0.3742339909
vertex 52.54210663 -28.69391632 4.693913937

endloop
endfacet
facet normal -0.3467521966 -0.4479225576 -0.8240924478
outer loop
vertex 52.58527374 -24.10201263 2.179893017
vertex 52.54210663 -28.69391632 4.693913937
vertex 45.34122467 -22.55820465 4.388848782

endloop
endfacet
facet normal -0.314250201 -0.4113444388 -0.8555948734
outer loop
vertex 45.34122467 -22.55820465 4.388848782
vertex 52.54210663 -28.69391632 4.693913937
vertex 44.86675262 -27.08756256 6.740696907

endloop
endfacet
facet normal 0.2327791303 -0.467261821 -0.8529245257
outer loop
vertex 45.34122467 -22.55820465 4.388848782
vertex 44.86675262 -27.08756256 6.740696907
vertex 35.97594452 -22.39704132 1.744596958

endloop
endfacet
facet normal -0.04575414211 -0.7676302791 -0.6392575502
outer loop
vertex 35.97594452 -22.39704132 1.744596958
vertex 44.86675262 -27.08756256 6.740696907
vertex 34.11620331 -25.1501236 5.183649063

endloop
endfacet
facet normal 0.8593324423 -0.5081253052 0.05793413147
outer loop
vertex 35.975914 -22.39705658 1.744591951
vertex 34.11615753 -25.15013885 5.183644772
vertex 33.0634079 -28.60382843 -9.492417336

endloop
endfacet
facet normal 0.8929098845 -0.4483628869 0.04102043435
outer loop
vertex 33.0634079 -28.60382843 -9.492417336
vertex 34.11615753 -25.15013885 5.183644772
vertex 33.06339264 -28.60385895 -9.492416382

endloop
endfacet
facet normal 0.1155193448 -0.8792837262 0.4620773792
outer loop
vertex 58.14438629 -59.36333466 -35.48603439
vertex 58.14440155 -59.36333466 -35.48603821
vertex 71.04711151 -54.31255341 -29.10062027

endloop
endfacet
facet normal -0.220481813 0.931003809 -0.2908946574
outer loop
vertex 71.04711151 -54.31255341 -29.10062027
vertex 58.14440155 -59.36333466 -35.48603821
vertex 60.33074188 -56.28659821 -27.29611397

endloop
endfacet
facet normal -0.2239236236 0.4054483473 -0.886267364
outer loop
vertex 71.04711151 -54.31255341 -29.10062027
vertex 60.33074188 -56.28659821 -27.29611397
vertex 71.06764984 -49.63394928 -26.96544838

endloop
endfacet
facet normal -0.3531790972 0.605456531 -0.7132228017
outer loop
vertex 71.06764984 -49.63394928 -26.96544838
vertex 60.33074188 -56.28659821 -27.29611397
vertex 60.08068085 -52.80467987 -24.21647835

endloop
endfacet
facet normal -0.3223623037 0.3568849266 -0.8767642975
outer loop
vertex 71.06764984 -49.63394928 -26.96544838
vertex 60.08068085 -52.80467987 -24.21647835
vertex 70.09694672 -44.14670563 -24.37497711

endloop
endfacet
facet normal -0.3842433691 0.429564327 -0.8172095418
outer loop
vertex 70.09694672 -44.14670563 -24.37497711
vertex 60.08068085 -52.80467987 -24.21647835
vertex 59.0797348 -48.60813141 -21.53993797

endloop
endfacet
facet normal -0.3983882368 0.491818428 -0.774210155
outer loop
vertex 70.09694672 -44.14670563 -24.37497711
vertex 59.0797348 -48.60813141 -21.53993797
vertex 68.27468109 -39.18935394 -20.28812027

endloop
endfacet
facet normal -0.3118216097 0.4178258479 -0.8533398509
outer loop
vertex 68.27468109 -39.18935394 -20.28812027
vertex 59.0797348 -48.60813141 -21.53993797
vertex 57.54644012 -43.94445038 -18.69614601

endloop
endfacet
facet normal -0.4131143391 0.7684274912 -0.4887288213
outer loop
vertex 68.27468109 -39.18935394 -20.28812027
vertex 57.54644012 -43.94445038 -18.69614601
vertex 67.29381561 -36.31700897 -14.94282722

endloop
endfacet
facet normal -0.3522143066 0.7351387739 -0.5792374611
outer loop
vertex 67.29381561 -36.31700897 -14.94282722
vertex 57.54644012 -43.94445038 -18.69614601
vertex 56.31204987 -41.2960434 -14.58433247

endloop
endfacet
facet normal -0.38462767 0.8174620867 -0.4287391305
outer loop
vertex 67.29381561 -36.31699371 -14.94283009
vertex 56.31206512 -41.2960434 -14.58433533
vertex 65.69277191 -34.13756561 -9.351071358

endloop
endfacet
facet normal -0.4774402082 0.8320647478 -0.2823459208
outer loop
vertex 65.69277191 -34.13756561 -9.351071358
vertex 56.31206512 -41.2960434 -14.58433533
vertex 54.87767792 -40.3925705 -9.496314049

endloop
endfacet
facet normal -0.4134331942 0.7275513411 -0.5474869609
outer loop
vertex 65.69277191 -34.13756561 -9.351071358
vertex 54.87767792 -40.3925705 -9.496314049
vertex 62.60164642 -32.05643463 -4.251217842

endloop
endfacet
facet normal -0.5653070211 0.745690763 -0.352665782
outer loop
vertex 62.60164642 -32.05643463 -4.251217842
vertex 54.87767792 -40.3925705 -9.496314049
vertex 52.67292023 -39.82444 -4.760910988

endloop
endfacet
facet normal -0.4433586001 0.6097875237 -0.6569569111
outer loop
vertex 62.60164642 -32.05643463 -4.251217842
vertex 52.67292023 -39.82444 -4.760910988
vertex 58.18601227 -30.28366852 0.3742299974

endloop
endfacet
facet normal -0.4973681271 0.6161258817 -0.610748589
outer loop
vertex 58.18601227 -30.28366852 0.3742299974
vertex 52.67292023 -39.82444 -4.760910988
vertex 49.73691559 -38.99396515 -1.532165051

endloop
endfacet
facet normal -0.4035837352 0.5512990355 -0.7301983237
outer loop
vertex 58.18602753 -30.28366852 0.3742339909
vertex 49.73690033 -38.99396515 -1.532163024
vertex 52.54210663 -28.69391632 4.693913937

endloop
endfacet
facet normal -0.3042207062 0.5521015525 -0.7762947679
outer loop
vertex 52.54210663 -28.69391632 4.693913937
vertex 49.73690033 -38.99396515 -1.532163024
vertex 46.34915924 -38.51490021 0.1361639947

endloop
endfacet
facet normal -0.1296589077 0.4835094213 -0.8656831384
outer loop
vertex 52.54210663 -28.69391632 4.693913937
vertex 46.34915924 -38.51490021 0.1361639947
vertex 44.86675262 -27.08756256 6.740696907

endloop
endfacet
facet normal -0.03905667737 0.4962106645 -0.8673232198
outer loop
vertex 44.86675262 -27.08756256 6.740696907
vertex 46.34915924 -38.51490021 0.1361639947
vertex 41.08209991 -37.58403778 0.9059090018

endloop
endfacet
facet normal 0.203621313 0.4185709357 -0.8850631714
outer loop
vertex 44.86675262 -27.08756256 6.740696907
vertex 41.08209991 -37.58403778 0.9059090018
vertex 34.11620331 -25.1501236 5.183649063

endloop
endfacet
facet normal -0.1189334467 0.2627846599 -0.9574962258
outer loop
vertex 34.11620331 -25.1501236 5.183649063
vertex 41.08209991 -37.58403778 0.9059090018
vertex 31.67040253 -37.76882172 2.024250031

endloop
endfacet
facet normal 0.9826180935 -0.1836243421 -0.02727425657
outer loop
vertex 34.11615753 -25.15013885 5.183644772
vertex 31.67037201 -37.76885223 2.024250031
vertex 33.06339264 -28.60385895 -9.492416382

endloop
endfacet
facet normal -0.9929278493 0 -0.1187196299
outer loop
vertex 33.06339264 -28.60385895 -9.492416382
vertex 31.67037201 -37.76885223 2.024250031
vertex 33.06339264 -28.60384369 -9.492416382

endloop
endfacet
endsolid
