solid 
facet normal -0 -0.871181 -0.490961
outer loop
vertex 36.99160004 -30.32913971 151.9476624
vertex 36.9916153 -30.32913971 151.9476624
vertex 31.79761505 -38.79244232 166.9652863

endloop
endfacet
facet normal -0.8021067977 -0.3570884764 -0.4786569774
outer loop
vertex 31.79761505 -38.79244232 166.9652863
vertex 36.9916153 -30.32913971 151.9476624
vertex 37.9500351 -44.94913483 161.2484283

endloop
endfacet
facet normal -0.01010634098 0.6749699116 -0.737776041
outer loop
vertex 31.79761505 -38.79244232 166.9652863
vertex 37.9500351 -44.94913483 161.2484283
vertex 23.92328644 -44.00302887 162.3061371

endloop
endfacet
facet normal -0.01196918264 0.6611724496 -0.750138402
outer loop
vertex 23.92328644 -44.00302887 162.3061371
vertex 37.9500351 -44.94913483 161.2484283
vertex 32.35158539 -48.99643707 157.770462

endloop
endfacet
facet normal 0.1714723855 0.8051386476 -0.5677579045
outer loop
vertex 23.92328644 -44.00302887 162.3061371
vertex 32.35158539 -48.99643707 157.770462
vertex 19.2352066 -47.32250214 156.1829071

endloop
endfacet
facet normal 0.1725993901 0.7706748247 -0.6134083867
outer loop
vertex 19.2352066 -47.32250214 156.1829071
vertex 32.35158539 -48.99643707 157.770462
vertex 28.34770966 -51.91147614 152.9814606

endloop
endfacet
facet normal 0.2503561676 0.8368169665 -0.4868871868
outer loop
vertex 19.23519135 -47.3225174 156.1828918
vertex 28.34770966 -51.91147614 152.9814453
vertex 15.53061676 -50.1576767 149.4051971

endloop
endfacet
facet normal 0.251524657 0.832873106 -0.4930089712
outer loop
vertex 15.53061676 -50.1576767 149.4051971
vertex 28.34770966 -51.91147614 152.9814453
vertex 24.86220551 -54.35689545 147.071991

endloop
endfacet
facet normal 0.2605584264 0.841742456 -0.4728413522
outer loop
vertex 15.53061676 -50.1576767 149.4051971
vertex 24.86220551 -54.35689545 147.071991
vertex 12.49224091 -52.97483063 142.7158661

endloop
endfacet
facet normal 0.2599655688 0.8431118131 -0.4707233608
outer loop
vertex 12.49224091 -52.97483063 142.7158661
vertex 24.86220551 -54.35689545 147.071991
vertex 22.12665558 -56.87322235 141.054245

endloop
endfacet
facet normal 0.2446259111 0.8230475187 -0.5125923157
outer loop
vertex 12.49224091 -52.97483063 142.7158661
vertex 22.12665558 -56.87322235 141.054245
vertex 9.999687195 -56.56774139 135.7573547

endloop
endfacet
facet normal 0.2355852723 0.8387056589 -0.490991205
outer loop
vertex 9.999687195 -56.56774139 135.7573547
vertex 22.12665558 -56.87322235 141.054245
vertex 20.06529999 -59.96976471 134.7756958

endloop
endfacet
facet normal 0.2285497934 0.8252416253 -0.516470015
outer loop
vertex 9.999687195 -56.56774139 135.7573547
vertex 20.06529999 -59.96976471 134.7756958
vertex 8.539009094 -61.47420502 127.2711792

endloop
endfacet
facet normal 0.2119047195 0.8429745436 -0.4944596291
outer loop
vertex 8.539009094 -61.47420502 127.2711792
vertex 20.06529999 -59.96976471 134.7756958
vertex 18.83982086 -63.91464996 127.5251083

endloop
endfacet
facet normal 0.2193595022 0.8826302886 -0.4157466888
outer loop
vertex 8.539009094 -61.47420502 127.2711792
vertex 18.83982086 -63.91464996 127.5251083
vertex 9.433921814 -66.61421967 116.8311081

endloop
endfacet
facet normal 0.2202412635 0.882107079 -0.4163901806
outer loop
vertex 9.433921814 -66.61421967 116.8311081
vertex 18.83982086 -63.91464996 127.5251083
vertex 19.33444977 -67.9389267 119.2614517

endloop
endfacet
facet normal 0.1809921712 0.9598975182 -0.2140994221
outer loop
vertex 9.433921814 -66.61421967 116.8311081
vertex 19.33444977 -67.9389267 119.2614517
vertex 14.07576847 -69.96083832 105.7508698

endloop
endfacet
facet normal 0.1715540141 0.9623590708 -0.2107942551
outer loop
vertex 14.07576847 -69.96083832 105.7508698
vertex 19.33444977 -67.9389267 119.2614517
vertex 22.56191254 -70.39229584 110.6875076

endloop
endfacet
facet normal 0.06590089202 0.9974845648 -0.0261070244
outer loop
vertex 14.07576847 -69.96083069 105.7508774
vertex 22.5619278 -70.39228058 110.6875153
vertex 22.52246857 -70.76418304 96.37844086

endloop
endfacet
facet normal -0.0139447907 0.999566257 -0.02594094351
outer loop
vertex 22.52246857 -70.76418304 96.37844086
vertex 22.5619278 -70.39228058 110.6875153
vertex 28.51114655 -70.51206207 102.8739929

endloop
endfacet
facet normal 0.02273534052 0.9979576468 -0.0596963428
outer loop
vertex 22.52246857 -70.76418304 96.37844086
vertex 28.51114655 -70.51206207 102.8739929
vertex 32.64870453 -71.37832642 89.96823883

endloop
endfacet
facet normal -0.0213354826 0.9970474243 -0.07376426458
outer loop
vertex 32.64870453 -71.37832642 89.96823883
vertex 28.51114655 -70.51206207 102.8739929
vertex 35.58623505 -70.77980042 97.20867157

endloop
endfacet
facet normal 0.1050195172 0.9866876006 -0.1241716221
outer loop
vertex 32.64870453 -71.37832642 89.96823883
vertex 35.58623505 -70.77980042 97.20867157
vertex 43.52561188 -72.866539 87.34192657

endloop
endfacet
facet normal 0.1036549658 0.986692965 -0.1252707541
outer loop
vertex 43.52561188 -72.866539 87.34192657
vertex 35.58623505 -70.77980042 97.20867157
vertex 43.19289398 -71.86842346 94.9282608

endloop
endfacet
facet normal 0.07991726696 0.9887319207 -0.1265800744
outer loop
vertex 43.52561188 -72.866539 87.34192657
vertex 43.19289398 -71.86842346 94.9282608
vertex 55.63439178 -73.43541718 90.5433197

endloop
endfacet
facet normal 0.06432844698 0.98352319 -0.1689492166
outer loop
vertex 55.63439178 -73.43541718 90.5433197
vertex 43.19289398 -71.86842346 94.9282608
vertex 51.52689362 -71.96328735 97.54924011

endloop
endfacet
facet normal -0.8116339445 0.2493883967 -0.52825737
outer loop
vertex 55.63439178 -73.43541718 90.5433197
vertex 51.52687836 -71.96328735 97.54924011
vertex 55.62657928 -54.64785004 99.42486572

endloop
endfacet
facet normal -0.4471896291 0.0103516113 0.8943792582
outer loop
vertex 55.62657928 -54.64785004 99.42486572
vertex 51.52687836 -71.96328735 97.54924011
vertex 55.62659454 -54.64783478 99.42487335

endloop
endfacet
facet normal 0.9978581071 0.06541500241 0
outer loop
vertex 36.9916153 -30.32913971 151.9476624
vertex 36.9916153 -30.32913971 151.9476776
vertex 37.9500351 -44.94913483 161.2484283

endloop
endfacet
facet normal -0.8335200548 -0.3344171941 -0.4397834241
outer loop
vertex 37.9500351 -44.94913483 161.2484283
vertex 36.9916153 -30.32913971 151.9476776
vertex 40.78606415 -45.84938812 156.5578766

endloop
endfacet
facet normal -0.3706777692 0.8446431756 -0.3862329721
outer loop
vertex 37.9500351 -44.94913483 161.2484283
vertex 40.78606415 -45.84938812 156.5578766
vertex 32.35158539 -48.99643707 157.770462

endloop
endfacet
facet normal -0.3697123826 0.8298258781 -0.41797328
outer loop
vertex 32.35158539 -48.99643707 157.770462
vertex 40.78606415 -45.84938812 156.5578766
vertex 36.57901764 -49.12645721 153.7730103

endloop
endfacet
facet normal -0.2756894827 0.9060580134 -0.3210206032
outer loop
vertex 32.35158539 -48.99643707 157.770462
vertex 36.57901764 -49.12645721 153.7730103
vertex 28.34770966 -51.91147614 152.9814606

endloop
endfacet
facet normal -0.2676444948 0.8935155272 -0.3605502248
outer loop
vertex 28.34770966 -51.91147614 152.9814606
vertex 36.57901764 -49.12645721 153.7730103
vertex 33.2551651 -51.72774506 149.793869

endloop
endfacet
facet normal -0.2083511651 0.9410384893 -0.2665262818
outer loop
vertex 28.34770966 -51.91147614 152.9814453
vertex 33.25514984 -51.72774506 149.793869
vertex 24.86220551 -54.35689545 147.071991

endloop
endfacet
facet normal -0.2034255564 0.9384371638 -0.279201746
outer loop
vertex 24.86220551 -54.35689545 147.071991
vertex 33.25514984 -51.72774506 149.793869
vertex 30.32984161 -53.96865082 144.3932343

endloop
endfacet
facet normal -0.2103489339 0.9323017597 -0.2942224145
outer loop
vertex 24.86220551 -54.35689545 147.071991
vertex 30.32984161 -53.96865082 144.3932343
vertex 22.12665558 -56.87322235 141.054245

endloop
endfacet
facet normal -0.2073775977 0.9309997559 -0.3003897369
outer loop
vertex 22.12665558 -56.87322235 141.054245
vertex 30.32984161 -53.96865082 144.3932343
vertex 27.72426605 -56.33254242 138.8656006

endloop
endfacet
facet normal -0.2309921533 0.9005510211 -0.3683075905
outer loop
vertex 22.12665558 -56.87322235 141.054245
vertex 27.72426605 -56.33254242 138.8656006
vertex 20.06529999 -59.96976471 134.7756958

endloop
endfacet
facet normal -0.2304402888 0.9003444314 -0.3691573739
outer loop
vertex 20.06529999 -59.96976471 134.7756958
vertex 27.72426605 -56.33254242 138.8656006
vertex 25.61019135 -59.2359848 133.1040192

endloop
endfacet
facet normal -0.2448931187 0.8684333563 -0.4311041832
outer loop
vertex 20.06529999 -59.96976471 134.7756958
vertex 25.61019135 -59.2359848 133.1040192
vertex 18.83982086 -63.91464996 127.5251083

endloop
endfacet
facet normal -0.2464684248 0.8687877059 -0.4294896126
outer loop
vertex 18.83982086 -63.91464996 127.5251083
vertex 25.61019135 -59.2359848 133.1040192
vertex 24.34632111 -62.76215363 126.6964417

endloop
endfacet
facet normal -0.2467592806 0.8653612137 -0.436187923
outer loop
vertex 18.83982086 -63.91464996 127.5251083
vertex 24.34632111 -62.76215363 126.6964417
vertex 19.33444977 -67.9389267 119.2614517

endloop
endfacet
facet normal -0.2365428805 0.8648849726 -0.4427431226
outer loop
vertex 19.33444977 -67.9389267 119.2614517
vertex 24.34632111 -62.76215363 126.6964417
vertex 24.51755524 -66.27967834 119.7335815

endloop
endfacet
facet normal -0.2557940185 0.8996922374 -0.3537278175
outer loop
vertex 19.33444977 -67.9389267 119.2614517
vertex 24.51755524 -66.27967834 119.7335815
vertex 22.56191254 -70.39229584 110.6875076

endloop
endfacet
facet normal -0.2142830789 0.9058160782 -0.3654860854
outer loop
vertex 22.56191254 -70.39229584 110.6875076
vertex 24.51755524 -66.27967834 119.7335815
vertex 26.87340546 -68.58112335 112.6484833

endloop
endfacet
facet normal -0.2853736281 0.9300272465 -0.2315409184
outer loop
vertex 22.5619278 -70.39228058 110.6875153
vertex 26.8733902 -68.58112335 112.6484985
vertex 28.51114655 -70.51206207 102.8739929

endloop
endfacet
facet normal -0.2134559602 0.9510117173 -0.2236362994
outer loop
vertex 28.51114655 -70.51206207 102.8739929
vertex 26.8733902 -68.58112335 112.6484985
vertex 31.59502411 -69.05114746 106.1430283

endloop
endfacet
facet normal -0.1731227338 0.9496651888 -0.2610832453
outer loop
vertex 28.51114655 -70.51206207 102.8739929
vertex 31.59502411 -69.05114746 106.1430283
vertex 35.58623505 -70.77980042 97.20867157

endloop
endfacet
facet normal -0.1626565307 0.952629745 -0.2569813132
outer loop
vertex 35.58623505 -70.77980042 97.20867157
vertex 31.59502411 -69.05114746 106.1430283
vertex 37.13652802 -69.29737091 101.7227783

endloop
endfacet
facet normal 0.03828372061 0.9454122782 -0.3236199617
outer loop
vertex 35.58623505 -70.77980042 97.20867157
vertex 37.13651276 -69.29737091 101.7227859
vertex 43.19289398 -71.86842346 94.9282608

endloop
endfacet
facet normal -0.0390567407 0.9225459099 -0.383905679
outer loop
vertex 43.19289398 -71.86842346 94.9282608
vertex 37.13651276 -69.29737091 101.7227859
vertex 42.90724945 -69.78822327 99.95615387

endloop
endfacet
facet normal 0.1277554631 0.919007957 -0.3729649484
outer loop
vertex 43.19289398 -71.86842346 94.9282608
vertex 42.90724945 -69.78822327 99.95615387
vertex 51.52689362 -71.96328735 97.54924011

endloop
endfacet
facet normal 0.03084478527 0.7940359116 -0.607087791
outer loop
vertex 51.52689362 -71.96328735 97.54924011
vertex 42.90724945 -69.78822327 99.95615387
vertex 49.34790802 -68.89086914 101.457077

endloop
endfacet
facet normal -0.7524001598 0.2444018722 -0.6116876602
outer loop
vertex 51.52687836 -71.96328735 97.54924011
vertex 49.34789276 -68.89086151 101.457077
vertex 55.62659454 -54.64783478 99.42487335

endloop
endfacet
facet normal 0.7845381498 -0.2686774433 0.5588490963
outer loop
vertex 55.62659454 -54.64783478 99.42487335
vertex 49.34789276 -68.89086151 101.457077
vertex 55.62659454 -54.64785004 99.42486572

endloop
endfacet
facet normal -0.9713901877 -0.2374891341 0
outer loop
vertex 36.9916153 -30.32913971 151.9476776
vertex 36.9916153 -30.32913971 151.9476624
vertex 40.78606415 -45.84938812 156.5578766

endloop
endfacet
facet normal -0.8784323931 -0.3201457858 -0.3547721207
outer loop
vertex 40.78606415 -45.84938812 156.5578766
vertex 36.9916153 -30.32913971 151.9476624
vertex 42.0699234 -45.1517868 152.7494659

endloop
endfacet
facet normal -0.5919336677 0.8042931557 -0.05222217739
outer loop
vertex 40.78606415 -45.84938812 156.5578766
vertex 42.0699234 -45.1517868 152.7494659
vertex 36.57901764 -49.12645721 153.7730103

endloop
endfacet
facet normal -0.5944074392 0.799925983 -0.08245170116
outer loop
vertex 36.57901764 -49.12645721 153.7730103
vertex 42.0699234 -45.1517868 152.7494659
vertex 39.09183502 -47.6256485 150.2181854

endloop
endfacet
facet normal -0.5712044835 0.8187487125 -0.05810340121
outer loop
vertex 36.57901764 -49.12645721 153.7730103
vertex 39.09183502 -47.6256485 150.2181854
vertex 33.2551651 -51.72774506 149.793869

endloop
endfacet
facet normal -0.5704953671 0.818606019 -0.06647788733
outer loop
vertex 33.2551651 -51.72774506 149.793869
vertex 39.09183502 -47.6256485 150.2181854
vertex 36.49234772 -49.73473358 146.5550995

endloop
endfacet
facet normal -0.5552287102 0.8305397034 -0.04387378693
outer loop
vertex 33.25514984 -51.72774506 149.793869
vertex 36.49230194 -49.73474884 146.5550995
vertex 30.32984161 -53.96865082 144.3932343

endloop
endfacet
facet normal -0.5504553318 0.8325958252 -0.0615070723
outer loop
vertex 30.32984161 -53.96865082 144.3932343
vertex 36.49230194 -49.73474884 146.5550995
vertex 34.03444672 -51.72357941 141.6296082

endloop
endfacet
facet normal -0.5626731515 0.822155714 -0.08636603504
outer loop
vertex 30.32984161 -53.96865082 144.3932343
vertex 34.03444672 -51.72357941 141.6296082
vertex 27.72426605 -56.33254242 138.8656006

endloop
endfacet
facet normal -0.5539599657 0.8250901699 -0.1111510694
outer loop
vertex 27.72426605 -56.33254242 138.8656006
vertex 34.03444672 -51.72357941 141.6296082
vertex 31.61225128 -54.04076385 136.5006714

endloop
endfacet
facet normal -0.5805671215 0.7925918698 -0.186386764
outer loop
vertex 27.72426605 -56.33254242 138.8656006
vertex 31.61225128 -54.04076385 136.5006714
vertex 25.61019135 -59.2359848 133.1040192

endloop
endfacet
facet normal -0.5805222392 0.792602241 -0.1864822358
outer loop
vertex 25.61019135 -59.2359848 133.1040192
vertex 31.61225128 -54.04076385 136.5006714
vertex 29.48069 -56.861763 131.1462097

endloop
endfacet
facet normal -0.6027342677 0.7433130145 -0.2901672721
outer loop
vertex 25.61019135 -59.2359848 133.1040192
vertex 29.48069 -56.861763 131.1462097
vertex 24.34632111 -62.76215363 126.6964417

endloop
endfacet
facet normal -0.6068907976 0.7423011065 -0.2840294242
outer loop
vertex 24.34632111 -62.76215363 126.6964417
vertex 29.48069 -56.861763 131.1462097
vertex 28.07912445 -60.19698334 125.4244766

endloop
endfacet
facet normal -0.6085056067 0.7021743059 -0.369691819
outer loop
vertex 24.34632111 -62.76215363 126.6964417
vertex 28.07912445 -60.19698334 125.4244766
vertex 24.51755524 -66.27967834 119.7335815

endloop
endfacet
facet normal -0.5912313461 0.7078313828 -0.386549145
outer loop
vertex 24.51755524 -66.27967834 119.7335815
vertex 28.07912445 -60.19698334 125.4244766
vertex 28.02178192 -63.46048737 119.5362015

endloop
endfacet
facet normal -0.583160758 0.6954705715 -0.4198144376
outer loop
vertex 24.51755524 -66.27967834 119.7335815
vertex 28.02178192 -63.46048737 119.5362015
vertex 26.87340546 -68.58112335 112.6484833

endloop
endfacet
facet normal -0.5238645673 0.723088026 -0.4502328336
outer loop
vertex 26.87340546 -68.58112335 112.6484833
vertex 28.02178192 -63.46048737 119.5362015
vertex 29.94792938 -65.67877197 113.7324142

endloop
endfacet
facet normal -0.5307914019 0.7257384658 -0.4376804531
outer loop
vertex 26.8733902 -68.58112335 112.6484985
vertex 29.94794464 -65.67875671 113.7324219
vertex 31.59502411 -69.05114746 106.1430283

endloop
endfacet
facet normal -0.4651344419 0.7671056986 -0.4418130815
outer loop
vertex 31.59502411 -69.05114746 106.1430283
vertex 29.94794464 -65.67875671 113.7324219
vertex 33.86096954 -66.37451935 108.4048157

endloop
endfacet
facet normal -0.3816982508 0.7634245753 -0.5210464001
outer loop
vertex 31.59502411 -69.05114746 106.1430283
vertex 33.86096954 -66.37451935 108.4048157
vertex 37.13652802 -69.29737091 101.7227783

endloop
endfacet
facet normal -0.3899469674 0.7580729723 -0.5227490664
outer loop
vertex 37.13652802 -69.29737091 101.7227783
vertex 33.86096954 -66.37451935 108.4048157
vertex 38.28701019 -66.48214722 104.947113

endloop
endfacet
facet normal -0.1263606697 0.7691408992 -0.6264625192
outer loop
vertex 37.13651276 -69.29737091 101.7227859
vertex 38.28701019 -66.48215485 104.947113
vertex 42.90724945 -69.78822327 99.95615387

endloop
endfacet
facet normal -0.1973418444 0.723259747 -0.6617791653
outer loop
vertex 42.90724945 -69.78822327 99.95615387
vertex 38.28701019 -66.48215485 104.947113
vertex 42.70705414 -66.55994415 103.5440445

endloop
endfacet
facet normal 0.0516595915 0.7438178062 -0.666383028
outer loop
vertex 42.90724945 -69.78822327 99.95615387
vertex 42.70705414 -66.55994415 103.5440445
vertex 49.34790802 -68.89086914 101.457077

endloop
endfacet
facet normal -0.09138026834 0.5070262551 -0.8570728898
outer loop
vertex 49.34790802 -68.89086914 101.457077
vertex 42.70705414 -66.55994415 103.5440445
vertex 48.1216507 -65.1086731 103.8252869

endloop
endfacet
facet normal -0.6934599876 0.2072388977 -0.6900473237
outer loop
vertex 49.34789276 -68.89086151 101.457077
vertex 48.12163544 -65.1086731 103.8252869
vertex 55.62659454 -54.64785004 99.42486572

endloop
endfacet
facet normal -nan(ind) -nan(ind) -nan(ind)
outer loop
vertex 55.62659454 -54.64785004 99.42486572
vertex 48.12163544 -65.1086731 103.8252869
vertex 55.62659454 -54.64785004 99.42486572

endloop
endfacet
facet normal 0.6088916659 0.1666573435 -0.7755489945
outer loop
vertex 36.99160004 -30.32913971 151.9476471
vertex 36.9916153 -30.32912445 151.9476624
vertex 42.06993866 -45.15181732 152.7494659

endloop
endfacet
facet normal -0.9218109846 -0.3270712793 -0.208059907
outer loop
vertex 42.06993866 -45.15181732 152.7494659
vertex 36.9916153 -30.32912445 151.9476624
vertex 42.26094818 -43.45368195 149.2337189

endloop
endfacet
facet normal -0.7382401228 0.6222335696 0.2604357004
outer loop
vertex 42.06993866 -45.15181732 152.7494659
vertex 42.26094818 -43.45368195 149.2337189
vertex 39.09183502 -47.62567902 150.2181854

endloop
endfacet
facet normal -0.7538066506 0.6223537922 0.2108348012
outer loop
vertex 39.09183502 -47.62567902 150.2181854
vertex 42.26094818 -43.45368195 149.2337189
vertex 40.29514313 -45.03710175 146.8793182

endloop
endfacet
facet normal -0.7688649297 0.608946979 0.1950137615
outer loop
vertex 39.09183502 -47.62567902 150.2181854
vertex 40.29514313 -45.03710175 146.8793182
vertex 36.49234772 -49.73473358 146.5550995

endloop
endfacet
facet normal -0.7712741494 0.6123763323 0.1735841334
outer loop
vertex 36.49234772 -49.73473358 146.5550995
vertex 40.29514313 -45.03710175 146.8793182
vertex 38.23748016 -46.64679718 143.41539

endloop
endfacet
facet normal -0.7868857384 0.5983190536 0.15107961
outer loop
vertex 36.4923172 -49.7347641 146.5550995
vertex 38.2374649 -46.64681244 143.4153748
vertex 34.0344162 -51.72357941 141.6296082

endloop
endfacet
facet normal -0.7858940363 0.6039410233 0.1327627748
outer loop
vertex 34.0344162 -51.72357941 141.6296082
vertex 38.2374649 -46.64681244 143.4153748
vertex 36.09679413 -48.44901276 138.9418488

endloop
endfacet
facet normal -0.7981795073 0.592421174 0.1093009859
outer loop
vertex 34.0344162 -51.72357941 141.6296082
vertex 36.09679413 -48.44901276 138.9418488
vertex 31.61222076 -54.04076385 136.5006714

endloop
endfacet
facet normal -0.790591538 0.6098235846 0.05549953878
outer loop
vertex 31.61222076 -54.04076385 136.5006714
vertex 36.09679413 -48.44901276 138.9418488
vertex 34.08861542 -50.60916901 134.0709076

endloop
endfacet
facet normal -0.8073075414 0.5900371671 0.01051810663
outer loop
vertex 31.61222076 -54.04076385 136.5006714
vertex 34.08861542 -50.60916901 134.0709076
vertex 29.48067474 -56.861763 131.1462097

endloop
endfacet
facet normal -0.8014346361 0.5978813171 -0.01550455485
outer loop
vertex 29.48067474 -56.861763 131.1462097
vertex 34.08861542 -50.60916901 134.0709076
vertex 32.16562653 -53.31882477 128.9819031

endloop
endfacet
facet normal -0.825104177 0.5521476269 -0.1197334528
outer loop
vertex 29.48067474 -56.861763 131.1462097
vertex 32.16562653 -53.31882477 128.9819031
vertex 28.07909393 -60.19698334 125.424469

endloop
endfacet
facet normal -0.8304902315 0.5472308397 -0.1040398926
outer loop
vertex 28.07909393 -60.19698334 125.424469
vertex 32.16562653 -53.31882477 128.9819031
vertex 30.72399139 -56.49480438 123.7845688

endloop
endfacet
facet normal -0.8364893198 0.4827043712 -0.2593880892
outer loop
vertex 28.07909393 -60.19698334 125.424469
vertex 30.72399139 -56.49480438 123.7845688
vertex 28.0217514 -63.46050262 119.5361938

endloop
endfacet
facet normal -0.8391394019 0.48072505 -0.2544572651
outer loop
vertex 28.0217514 -63.46050262 119.5361938
vertex 30.72399139 -56.49480438 123.7845688
vertex 30.48021698 -59.56122589 118.7953415

endloop
endfacet
facet normal -0.7993344069 0.4228628576 -0.4269092679
outer loop
vertex 28.0217514 -63.46050262 119.5361938
vertex 30.48021698 -59.56122589 118.7953415
vertex 29.94792938 -65.6787796 113.7324142

endloop
endfacet
facet normal -0.7557908893 0.4552713335 -0.4706465006
outer loop
vertex 29.94792938 -65.6787796 113.7324142
vertex 30.48021698 -59.56122589 118.7953415
vertex 32.11013031 -61.66120148 114.1465607

endloop
endfacet
facet normal -0.6979758143 0.4343348145 -0.569370687
outer loop
vertex 29.94792938 -65.67877197 113.7324219
vertex 32.11014557 -61.66118622 114.1465683
vertex 33.86095428 -66.37452698 108.404808

endloop
endfacet
facet normal -0.6512924433 0.4770007432 -0.5901596546
outer loop
vertex 33.86095428 -66.37452698 108.404808
vertex 32.11014557 -61.66118622 114.1465683
vertex 35.52391815 -62.32543182 109.8422928

endloop
endfacet
facet normal -0.5364987254 0.4693306088 -0.7013542652
outer loop
vertex 33.86095428 -66.37452698 108.404808
vertex 35.52391815 -62.32543182 109.8422928
vertex 38.28699493 -66.48214722 104.9471054

endloop
endfacet
facet normal -0.584023416 0.4257169366 -0.6911452413
outer loop
vertex 38.28699493 -66.48214722 104.9471054
vertex 35.52391815 -62.32543182 109.8422928
vertex 39.1601181 -62.25014496 106.8160477

endloop
endfacet
facet normal -0.265499115 0.4347905815 -0.8605041504
outer loop
vertex 38.28701019 -66.48215485 104.9471054
vertex 39.16010284 -62.25014496 106.8160477
vertex 42.70705414 -66.55994415 103.5440445

endloop
endfacet
facet normal -0.3525393903 0.364280045 -0.8619837761
outer loop
vertex 42.70705414 -66.55994415 103.5440445
vertex 39.16010284 -62.25014496 106.8160477
vertex 42.66707611 -62.18251801 105.4103241

endloop
endfacet
facet normal -0.05711570755 0.3911041915 -0.9185724258
outer loop
vertex 42.70705414 -66.55994415 103.5440445
vertex 42.66707611 -62.18251801 105.4103241
vertex 48.12162018 -65.1086731 103.8252869

endloop
endfacet
facet normal -0.1604627818 0.2218650281 -0.9617835879
outer loop
vertex 48.12162018 -65.1086731 103.8252869
vertex 42.66707611 -62.18251801 105.4103241
vertex 47.52922821 -61.03530121 104.8637695

endloop
endfacet
facet normal -0.6127169132 0.1103976071 -0.7825537324
outer loop
vertex 48.12162018 -65.1086731 103.8252869
vertex 47.52921295 -61.03530121 104.8637695
vertex 55.62657928 -54.64785004 99.42486572

endloop
endfacet
facet normal -0.2717192769 0.7942563891 0.5434385538
outer loop
vertex 55.62657928 -54.64785004 99.42486572
vertex 47.52921295 -61.03530121 104.8637695
vertex 55.62659454 -54.64785004 99.42487335

endloop
endfacet
facet normal -nan(ind) -nan(ind) -nan(ind)
outer loop
vertex 36.9916153 -30.32912445 151.9476624
vertex 36.9916153 -30.32912445 151.9476624
vertex 42.26094818 -43.45368195 149.2337189

endloop
endfacet
facet normal -0.930639565 -0.3593969643 -0.06887515634
outer loop
vertex 42.26094818 -43.45368195 149.2337189
vertex 36.9916153 -30.32912445 151.9476624
vertex 41.4592514 -40.81465912 146.2955627

endloop
endfacet
facet normal -0.8216543198 0.2940330207 0.4882917404
outer loop
vertex 42.26094818 -43.45368195 149.2337189
vertex 41.4592514 -40.81465912 146.2955627
vertex 40.29514313 -45.03710175 146.8793182

endloop
endfacet
facet normal -0.8585851789 0.294704318 0.4195007384
outer loop
vertex 40.29514313 -45.03710175 146.8793182
vertex 41.4592514 -40.81465912 146.2955627
vertex 40.15140533 -41.81371307 144.3206635

endloop
endfacet
facet normal -0.877410233 0.2736525834 0.3940373957
outer loop
vertex 40.29514313 -45.03710175 146.8793182
vertex 40.15140533 -41.81371307 144.3206635
vertex 38.23748016 -46.64679718 143.41539

endloop
endfacet
facet normal -0.8786984682 0.2748613656 0.3903076649
outer loop
vertex 38.23748016 -46.64679718 143.41539
vertex 40.15140533 -41.81371307 144.3206635
vertex 38.27692413 -43.16857147 141.0547638

endloop
endfacet
facet normal -0.9097722173 0.2401222587 0.3386085927
outer loop
vertex 38.2374649 -46.64681244 143.4153748
vertex 38.27689362 -43.16858673 141.0547485
vertex 36.09679413 -48.44901276 138.9418488

endloop
endfacet
facet normal -0.9136714935 0.2485319525 0.3216149211
outer loop
vertex 36.09679413 -48.44901276 138.9418488
vertex 38.27689362 -43.16858673 141.0547485
vertex 36.33300018 -44.68187714 136.7017822

endloop
endfacet
facet normal -0.9317315817 0.2269821912 0.2834701836
outer loop
vertex 36.09679413 -48.44901276 138.9418488
vertex 36.33300018 -44.68187714 136.7017822
vertex 34.08861542 -50.60916901 134.0709076

endloop
endfacet
facet normal -0.9445387721 0.2860595584 0.1612960994
outer loop
vertex 34.08861542 -50.60916901 134.0709076
vertex 36.33300018 -44.68187714 136.7017822
vertex 34.97115326 -46.44663239 131.8567047

endloop
endfacet
facet normal -0.9340350032 0.300629884 0.192873776
outer loop
vertex 34.08861542 -50.60916901 134.0709076
vertex 34.97115326 -46.44663239 131.8567047
vertex 32.16562653 -53.31882477 128.9819031

endloop
endfacet
facet normal -0.9357993603 0.3282794952 0.1284993738
outer loop
vertex 32.16562653 -53.31882477 128.9819031
vertex 34.97115326 -46.44663239 131.8567047
vertex 33.36685944 -49.06394196 126.8598862

endloop
endfacet
facet normal -0.9489866495 0.3059534729 0.07626804709
outer loop
vertex 32.16562653 -53.31882477 128.9819031
vertex 33.36685944 -49.06394196 126.8598862
vertex 30.72399139 -56.49480438 123.7845688

endloop
endfacet
facet normal -0.9495638609 0.3001264036 0.09084390104
outer loop
vertex 30.72399139 -56.49480438 123.7845688
vertex 33.36685944 -49.06394196 126.8598862
vertex 31.95131683 -52.05478668 121.9446793

endloop
endfacet
facet normal -0.9689058661 0.2290977985 -0.09346458316
outer loop
vertex 30.72399139 -56.49480438 123.7845688
vertex 31.95131683 -52.05478668 121.9446793
vertex 30.48021698 -59.56122589 118.7953415

endloop
endfacet
facet normal -0.9765607715 0.2104106545 -0.04534809291
outer loop
vertex 30.48021698 -59.56122589 118.7953415
vertex 31.95131683 -52.05478668 121.9446793
vertex 31.56291962 -54.81597137 117.4971008

endloop
endfacet
facet normal -0.9217905402 0.1084919199 -0.3721984625
outer loop
vertex 30.48021698 -59.56122589 118.7953415
vertex 31.56291962 -54.81597137 117.4971008
vertex 32.11013031 -61.66120148 114.1465607

endloop
endfacet
facet normal -0.9219622612 0.1082976386 -0.3718295395
outer loop
vertex 32.11013031 -61.66120148 114.1465607
vertex 31.56291962 -54.81597137 117.4971008
vertex 32.92919159 -56.74945831 113.5462494

endloop
endfacet
facet normal -0.7783549428 0.05334110558 -0.6255543828
outer loop
vertex 32.11014557 -61.66118622 114.1465683
vertex 32.92920685 -56.74944305 113.5462646
vertex 35.52391815 -62.32543182 109.8422928

endloop
endfacet
facet normal -0.7547017932 0.08126123995 -0.6510160565
outer loop
vertex 35.52391815 -62.32543182 109.8422928
vertex 32.92920685 -56.74944305 113.5462646
vertex 36.11045074 -57.38712311 109.7787552

endloop
endfacet
facet normal -0.6391057968 0.06604871899 -0.7662776113
outer loop
vertex 35.52391815 -62.32543182 109.8422928
vertex 36.11045074 -57.38712311 109.7787552
vertex 39.1601181 -62.25014496 106.8160477

endloop
endfacet
facet normal -0.6457929611 0.05878961831 -0.7612459064
outer loop
vertex 39.1601181 -62.25014496 106.8160477
vertex 36.11045074 -57.38712311 109.7787552
vertex 39.53993988 -57.3970108 106.8686295

endloop
endfacet
facet normal -0.372425288 0.03919603676 -0.9272341132
outer loop
vertex 39.16010284 -62.25014496 106.8160477
vertex 39.53993988 -57.3970108 106.8686371
vertex 42.66707611 -62.18251801 105.4103241

endloop
endfacet
facet normal -0.4270617962 -0.003521262202 -0.9042156339
outer loop
vertex 42.66707611 -62.18251801 105.4103241
vertex 39.53993988 -57.3970108 106.8686371
vertex 42.79140472 -57.33878326 105.3327408

endloop
endfacet
facet normal -0.1086363569 -0.01313259359 -0.993994832
outer loop
vertex 42.66707611 -62.18251801 105.4103241
vertex 42.79140472 -57.33878326 105.3327408
vertex 47.52922821 -61.03530121 104.8637695

endloop
endfacet
facet normal -0.1614157408 -0.0821158886 -0.983464241
outer loop
vertex 47.52922821 -61.03530121 104.8637695
vertex 42.79140472 -57.33878326 105.3327408
vertex 47.45165253 -56.9441452 104.5349045

endloop
endfacet
facet normal -0.5124782324 -0.07845331728 -0.8551088572
outer loop
vertex 47.52921295 -61.03530121 104.8637695
vertex 47.45163727 -56.9441452 104.5349121
vertex 55.62659454 -54.64785004 99.42487335

endloop
endfacet
facet normal 0.2707455754 -0.9626509547 0
outer loop
vertex 55.62659454 -54.64785004 99.42487335
vertex 47.45163727 -56.9441452 104.5349121
vertex 55.62659454 -54.64785004 99.42486572

endloop
endfacet
facet normal 0.3333486021 -0.3333486021 0.8819056153
outer loop
vertex 36.9916153 -30.32912445 151.9476624
vertex 36.99160004 -30.32913971 151.9476624
vertex 41.4592514 -40.81465912 146.2955627

endloop
endfacet
facet normal -0.9255208969 -0.3773877323 -0.03145701811
outer loop
vertex 41.4592514 -40.81465912 146.2955627
vertex 36.99160004 -30.32913971 151.9476624
vertex 40.2044754 -37.6444931 145.181015

endloop
endfacet
facet normal -0.801846087 -0.1109540537 0.5871389508
outer loop
vertex 41.4592514 -40.81465912 146.2955627
vertex 40.2044754 -37.6444931 145.181015
vertex 40.15140533 -41.81371307 144.3206635

endloop
endfacet
facet normal -0.8529209495 -0.09506887197 0.5133106112
outer loop
vertex 40.15140533 -41.81371307 144.3206635
vertex 40.2044754 -37.6444931 145.181015
vertex 39.33803558 -38.51639557 143.5798492

endloop
endfacet
facet normal -0.8468802571 -0.09119847417 0.5239052773
outer loop
vertex 40.15140533 -41.81371307 144.3206635
vertex 39.33803558 -38.51639557 143.5798492
vertex 38.27692413 -43.16857147 141.0547638

endloop
endfacet
facet normal -0.8666774035 -0.07038524747 0.4938786924
outer loop
vertex 38.27692413 -43.16857147 141.0547638
vertex 39.33803558 -38.51639557 143.5798492
vertex 37.49156952 -39.74799347 140.1640778

endloop
endfacet
facet normal -0.8966581225 -0.09317075461 0.4328087866
outer loop
vertex 38.27689362 -43.16858673 141.0547485
vertex 37.491539 -39.74800873 140.1640625
vertex 36.33300018 -44.68187714 136.7017822

endloop
endfacet
facet normal -0.9275590181 -0.04270169511 0.3712286353
outer loop
vertex 36.33300018 -44.68187714 136.7017822
vertex 37.491539 -39.74800873 140.1640625
vertex 35.61237335 -40.83623505 135.3435669

endloop
endfacet
facet normal -0.952642262 -0.07437505573 0.2948573828
outer loop
vertex 36.33300018 -44.68187714 136.7017822
vertex 35.61237335 -40.83623505 135.3435669
vertex 34.97115326 -46.44663239 131.8567047

endloop
endfacet
facet normal -0.9694453478 -0.03965411335 0.2420810014
outer loop
vertex 34.97115326 -46.44663239 131.8567047
vertex 35.61237335 -40.83623505 135.3435669
vertex 34.40247345 -42.21337128 130.2727814

endloop
endfacet
facet normal -0.9503331184 -0.01128866989 0.3110298514
outer loop
vertex 34.97115326 -46.44663239 131.8567047
vertex 34.40247345 -42.21337128 130.2727814
vertex 33.36685944 -49.06394196 126.8598862

endloop
endfacet
facet normal -0.9641042948 0.01363847964 0.2651732862
outer loop
vertex 33.36685944 -49.06394196 126.8598862
vertex 34.40247345 -42.21337128 130.2727814
vertex 32.93421173 -44.66811371 125.0607986

endloop
endfacet
facet normal -0.9632250667 0.01499532536 0.2682770789
outer loop
vertex 33.36685944 -49.06394196 126.8598862
vertex 32.93421173 -44.66811371 125.0607986
vertex 31.95131683 -52.05478668 121.9446793

endloop
endfacet
facet normal -0.9652690291 0.01850523055 0.2606016695
outer loop
vertex 31.95131683 -52.05478668 121.9446793
vertex 32.93421173 -44.66811371 125.0607986
vertex 31.53131866 -47.57654572 120.0710068

endloop
endfacet
facet normal -0.9923804998 -0.04509834573 0.1146607473
outer loop
vertex 31.95131683 -52.05478668 121.9446793
vertex 31.53131866 -47.57654572 120.0710068
vertex 31.56291962 -54.81597137 117.4971008

endloop
endfacet
facet normal -0.9783788919 -0.073062554 0.193485409
outer loop
vertex 31.56291962 -54.81597137 117.4971008
vertex 31.53131866 -47.57654572 120.0710068
vertex 30.84751129 -50.1740036 115.632431

endloop
endfacet
facet normal -0.948716104 -0.2323309481 -0.2143829763
outer loop
vertex 31.56291962 -54.81597137 117.4971008
vertex 30.84751129 -50.1740036 115.632431
vertex 32.92919159 -56.74945831 113.5462494

endloop
endfacet
facet normal -0.9550923705 -0.2539058924 -0.1527433693
outer loop
vertex 32.92919159 -56.74945831 113.5462494
vertex 30.84751129 -50.1740036 115.632431
vertex 31.94002533 -51.94441986 111.7439957

endloop
endfacet
facet normal -0.7410638928 -0.3641459048 -0.5641117692
outer loop
vertex 32.92920685 -56.74944305 113.5462646
vertex 31.94001007 -51.9444046 111.7440033
vertex 36.11045074 -57.38712311 109.7787552

endloop
endfacet
facet normal -0.6956791282 -0.2968615294 -0.6541436911
outer loop
vertex 36.11045074 -57.38712311 109.7787552
vertex 31.94001007 -51.9444046 111.7440033
vertex 35.54088593 -52.62529755 108.2234879

endloop
endfacet
facet normal -0.6156065464 -0.3102365136 -0.7244183421
outer loop
vertex 36.11045074 -57.38712311 109.7787552
vertex 35.54088593 -52.62529755 108.2234879
vertex 39.53993988 -57.3970108 106.8686295

endloop
endfacet
facet normal -0.5849438906 -0.2734136879 -0.7636003494
outer loop
vertex 39.53993988 -57.3970108 106.8686295
vertex 35.54088593 -52.62529755 108.2234879
vertex 39.44298553 -52.69432831 105.2590637

endloop
endfacet
facet normal -0.4024665356 -0.3038578331 -0.8635340333
outer loop
vertex 39.53993988 -57.3970108 106.8686371
vertex 39.44298553 -52.69434357 105.2590637
vertex 42.79140472 -57.33878326 105.3327408

endloop
endfacet
facet normal -0.440788269 -0.3310228884 -0.8343437314
outer loop
vertex 42.79140472 -57.33878326 105.3327408
vertex 39.44298553 -52.69434357 105.2590637
vertex 43.08837128 -52.59603119 103.2941818

endloop
endfacet
facet normal -0.1239249706 -0.3852893412 -0.9144368768
outer loop
vertex 42.79140472 -57.33878326 105.3327408
vertex 43.08837128 -52.59603119 103.2941818
vertex 47.45165253 -56.9441452 104.5349045

endloop
endfacet
facet normal -0.1352809519 -0.3950340748 -0.9086512327
outer loop
vertex 47.45165253 -56.9441452 104.5349045
vertex 43.08837128 -52.59603119 103.2941818
vertex 47.89588165 -53.02870941 102.7665405

endloop
endfacet
facet normal -0.4319401085 -0.3300713599 -0.8393334746
outer loop
vertex 47.45163727 -56.9441452 104.5349121
vertex 47.89586639 -53.02870941 102.7665405
vertex 55.62659454 -54.64785004 99.42486572

endloop
endfacet
facet normal 0 -0.9010016918 0.4338156283
outer loop
vertex 55.62659454 -54.64785004 99.42486572
vertex 47.89586639 -53.02870941 102.7665405
vertex 55.62657928 -54.64785004 99.42486572

endloop
endfacet
facet normal -0.9033438563 -0 -0.4289171696
outer loop
vertex 36.99160004 -30.32913971 151.9476624
vertex 36.99160004 -30.32912445 151.9476624
vertex 40.2044754 -37.6444931 145.181015

endloop
endfacet
facet normal -0.878027916 -0.4698649645 0.09107030928
outer loop
vertex 40.2044754 -37.6444931 145.181015
vertex 36.99160004 -30.32912445 151.9476624
vertex 38.36162567 -34.09763336 145.7132568

endloop
endfacet
facet normal -0.6691501737 -0.4377810657 0.6004879475
outer loop
vertex 40.2044754 -37.6444931 145.181015
vertex 38.36162567 -34.09763336 145.7132568
vertex 39.33803558 -38.51639557 143.5798492

endloop
endfacet
facet normal -0.7241606712 -0.4229898751 0.5446751118
outer loop
vertex 39.33803558 -38.51639557 143.5798492
vertex 38.36162567 -34.09763336 145.7132568
vertex 37.69641876 -34.96324921 144.1566162

endloop
endfacet
facet normal -0.7244912982 -0.4230620861 0.5441789627
outer loop
vertex 39.33803558 -38.51639557 143.5798492
vertex 37.69641876 -34.96324921 144.1566162
vertex 37.49156952 -39.74799347 140.1640778

endloop
endfacet
facet normal -0.6794958115 -0.4526869059 0.5773733258
outer loop
vertex 37.49156952 -39.74799347 140.1640778
vertex 37.69641876 -34.96324921 144.1566162
vertex 35.82491302 -36.56079865 140.7015381

endloop
endfacet
facet normal -0.7777360678 -0.4759341478 0.4106256068
outer loop
vertex 37.491539 -39.74800873 140.1640625
vertex 35.82489777 -36.56079865 140.7015228
vertex 35.61237335 -40.83623505 135.3435669

endloop
endfacet
facet normal -0.6683455706 -0.5682779551 0.4799733162
outer loop
vertex 35.61237335 -40.83623505 135.3435669
vertex 35.82489777 -36.56079865 140.7015228
vertex 33.58501434 -38.126091 135.7292938

endloop
endfacet
facet normal -0.7307078838 -0.5944060683 0.3357786536
outer loop
vertex 35.61237335 -40.83623505 135.3435669
vertex 33.58501434 -38.126091 135.7292938
vertex 34.40247345 -42.21337128 130.2727814

endloop
endfacet
facet normal -0.6556331515 -0.6481809616 0.3873067796
outer loop
vertex 34.40247345 -42.21337128 130.2727814
vertex 33.58501434 -38.126091 135.7292938
vertex 31.71346283 -39.53668976 130.2004089

endloop
endfacet
facet normal -0.6293517351 -0.6195670962 0.4690980017
outer loop
vertex 34.40247345 -42.21337128 130.2727814
vertex 31.71346283 -39.53668976 130.2004089
vertex 32.93421173 -44.66811371 125.0607986

endloop
endfacet
facet normal -0.7814320326 -0.5244876742 0.3380482495
outer loop
vertex 32.93421173 -44.66811371 125.0607986
vertex 31.71346283 -39.53668976 130.2004089
vertex 30.4167099 -41.46697235 124.2079697

endloop
endfacet
facet normal -0.7476207018 -0.4604563117 0.4785846472
outer loop
vertex 32.93421173 -44.66811371 125.0607986
vertex 30.4167099 -41.46697235 124.2079697
vertex 31.53131866 -47.57654572 120.0710068

endloop
endfacet
facet normal -0.8707619905 -0.37456128 0.3185551167
outer loop
vertex 31.53131866 -47.57654572 120.0710068
vertex 30.4167099 -41.46697235 124.2079697
vertex 29.37429047 -43.88155365 118.5194473

endloop
endfacet
facet normal -0.8664728403 -0.3610477448 0.3447743356
outer loop
vertex 31.53131866 -47.57654572 120.0710068
vertex 29.37429047 -43.88155365 118.5194473
vertex 30.84751129 -50.1740036 115.632431

endloop
endfacet
facet normal -0.8811109662 -0.3514627218 0.3164134026
outer loop
vertex 30.84751129 -50.1740036 115.632431
vertex 29.37429047 -43.88155365 118.5194473
vertex 28.6319046 -46.46085358 113.5871277

endloop
endfacet
facet normal -0.8571794033 -0.5149786472 -0.006366027985
outer loop
vertex 30.84751129 -50.1740036 115.632431
vertex 28.6319046 -46.46085358 113.5871277
vertex 31.94002533 -51.94441986 111.7439957

endloop
endfacet
facet normal -0.8453685641 -0.5306399465 0.06142714247
outer loop
vertex 31.94002533 -51.94441986 111.7439957
vertex 28.6319046 -46.46085358 113.5871277
vertex 29.60733795 -48.51474762 109.2685547

endloop
endfacet
facet normal -0.5624713302 -0.7000745535 -0.4399110377
outer loop
vertex 31.94001007 -51.9444046 111.7440033
vertex 29.60735321 -48.51473236 109.2685623
vertex 35.54088593 -52.62529755 108.2234879

endloop
endfacet
facet normal -0.5583514571 -0.6881798506 -0.4633055329
outer loop
vertex 35.54088593 -52.62529755 108.2234879
vertex 29.60735321 -48.51473236 109.2685623
vertex 33.75606537 -49.28800201 105.4173431

endloop
endfacet
facet normal -0.4373623729 -0.7041951418 -0.5593060851
outer loop
vertex 35.54088593 -52.62529755 108.2234879
vertex 33.75606537 -49.28800201 105.4173431
vertex 39.44298553 -52.69432831 105.2590637

endloop
endfacet
facet normal -0.4003161788 -0.6377581954 -0.6580361128
outer loop
vertex 39.44298553 -52.69432831 105.2590637
vertex 33.75606537 -49.28800201 105.4173431
vertex 38.64009857 -49.35800934 102.5139923

endloop
endfacet
facet normal -0.349442929 -0.6440207362 -0.6805342436
outer loop
vertex 39.44298553 -52.69434357 105.2590637
vertex 38.64009857 -49.35799408 102.5139923
vertex 43.08837128 -52.59603119 103.2941818

endloop
endfacet
facet normal -0.3235638738 -0.617285192 -0.7171230316
outer loop
vertex 43.08837128 -52.59603119 103.2941818
vertex 38.64009857 -49.35799408 102.5139923
vertex 43.37366486 -49.29930878 100.3277054

endloop
endfacet
facet normal -0.1404348016 -0.6555213332 -0.7420039177
outer loop
vertex 43.08837128 -52.59603119 103.2941818
vertex 43.37366486 -49.29930878 100.3277054
vertex 47.89588165 -53.02870941 102.7665405

endloop
endfacet
facet normal -0.1217456833 -0.6424185634 -0.7566217184
outer loop
vertex 47.89588165 -53.02870941 102.7665405
vertex 43.37366486 -49.29930878 100.3277054
vertex 48.8367691 -50.208992 100.2210312

endloop
endfacet
facet normal -0.4281444252 -0.5226678848 -0.737231791
outer loop
vertex 47.89586639 -53.02870941 102.7665405
vertex 48.83678436 -50.208992 100.2210388
vertex 55.62657928 -54.64785004 99.42486572

endloop
endfacet
facet normal -nan(ind) -nan(ind) -nan(ind)
outer loop
vertex 55.62657928 -54.64785004 99.42486572
vertex 48.83678436 -50.208992 100.2210388
vertex 55.62657928 -54.64785004 99.42486572

endloop
endfacet
facet normal 0.9766951799 -0 0.2146311253
outer loop
vertex 36.99160004 -30.32912445 151.9476624
vertex 36.99160004 -30.32913971 151.9476624
vertex 38.36162567 -34.09763336 145.7132568

endloop
endfacet
facet normal -0.8410811424 -0.5245015025 0.1322143376
outer loop
vertex 38.36162567 -34.09763336 145.7132568
vertex 36.99160004 -30.32913971 151.9476624
vertex 36.10555267 -30.18527985 146.8817749

endloop
endfacet
facet normal -0.6302106977 -0.5322488546 0.5652837157
outer loop
vertex 38.36162567 -34.09763336 145.7132568
vertex 36.10555267 -30.18527985 146.8817749
vertex 37.69641876 -34.96324921 144.1566162

endloop
endfacet
facet normal -0.6653764844 -0.5245113969 0.5311890841
outer loop
vertex 37.69641876 -34.96324921 144.1566162
vertex 36.10555267 -30.18527985 146.8817749
vertex 35.26718903 -31.03678131 144.9908295

endloop
endfacet
facet normal -0.631868124 -0.514149487 0.5799939036
outer loop
vertex 37.69641876 -34.96324921 144.1566162
vertex 35.26718903 -31.03678131 144.9908295
vertex 35.82491302 -36.56079865 140.7015381

endloop
endfacet
facet normal -0.4464994073 -0.576461792 0.6843464971
outer loop
vertex 35.82491302 -36.56079865 140.7015381
vertex 35.26718903 -31.03678131 144.9908295
vertex 33.02220917 -33.29845428 141.6209717

endloop
endfacet
facet normal -0.5979584455 -0.6470392346 0.4730600417
outer loop
vertex 35.82489777 -36.56079865 140.7015228
vertex 33.02219391 -33.29846954 141.6209717
vertex 33.58501434 -38.126091 135.7292938

endloop
endfacet
facet normal -0.2402189672 -0.7619719505 0.6014096737
outer loop
vertex 33.58501434 -38.126091 135.7292938
vertex 33.02219391 -33.29846954 141.6209717
vertex 30.19910431 -36.12705231 136.9096069

endloop
endfacet
facet normal -0.3836562932 -0.8553567529 0.3480986655
outer loop
vertex 33.58501434 -38.126091 135.7292938
vertex 30.19910431 -36.12705231 136.9096069
vertex 31.71346283 -39.53668976 130.2004089

endloop
endfacet
facet normal -0.2239686698 -0.8883242607 0.4008966386
outer loop
vertex 31.71346283 -39.53668976 130.2004089
vertex 30.19910431 -36.12705231 136.9096069
vertex 27.88193512 -38.19495392 131.0329285

endloop
endfacet
facet normal -0.2426767349 -0.9068312645 0.3446229994
outer loop
vertex 31.71346283 -39.53668976 130.2004089
vertex 27.88193512 -38.19495392 131.0329285
vertex 30.4167099 -41.46697235 124.2079697

endloop
endfacet
facet normal -0.3434880674 -0.8902165294 0.2992164493
outer loop
vertex 30.4167099 -41.46697235 124.2079697
vertex 27.88193512 -38.19495392 131.0329285
vertex 26.41805267 -39.88459015 124.3255157

endloop
endfacet
facet normal -0.3233663738 -0.8482916951 0.4193272591
outer loop
vertex 30.4167099 -41.46697235 124.2079697
vertex 26.41805267 -39.88459015 124.3255157
vertex 29.37429047 -43.88155365 118.5194473

endloop
endfacet
facet normal -0.5303474069 -0.7999705672 0.2806753516
outer loop
vertex 29.37429047 -43.88155365 118.5194473
vertex 26.41805267 -39.88459015 124.3255157
vertex 25.61090851 -41.67354584 117.7015686

endloop
endfacet
facet normal -0.5220480561 -0.721020937 0.4556254745
outer loop
vertex 29.37429047 -43.88155365 118.5194473
vertex 25.61090851 -41.67354584 117.7015686
vertex 28.6319046 -46.46085358 113.5871277

endloop
endfacet
facet normal -0.6598289609 -0.6839085817 0.3112792075
outer loop
vertex 28.6319046 -46.46085358 113.5871277
vertex 25.61090851 -41.67354584 117.7015686
vertex 25.37258148 -44.07178497 111.9272308

endloop
endfacet
facet normal -0.6443719864 -0.7367620468 0.2048568577
outer loop
vertex 28.6319046 -46.46085358 113.5871277
vertex 25.37258148 -44.07178497 111.9272308
vertex 29.60733795 -48.51474762 109.2685547

endloop
endfacet
facet normal -0.6664136052 -0.7289358377 0.1566700339
outer loop
vertex 29.60733795 -48.51474762 109.2685547
vertex 25.37258148 -44.07178497 111.9272308
vertex 26.84732819 -46.49474335 106.9269791

endloop
endfacet
facet normal -0.4108473957 -0.8715506196 -0.2675890326
outer loop
vertex 29.60735321 -48.51473236 109.2685623
vertex 26.84734344 -46.49474335 106.9269867
vertex 33.75606537 -49.28800201 105.4173431

endloop
endfacet
facet normal -0.4069404602 -0.8856679201 -0.2235883623
outer loop
vertex 33.75606537 -49.28800201 105.4173431
vertex 26.84734344 -46.49474335 106.9269867
vertex 31.51074982 -47.46285248 102.2742157

endloop
endfacet
facet normal -0.2280997932 -0.9038735032 -0.3619160652
outer loop
vertex 33.75606537 -49.28800201 105.4173431
vertex 31.51074982 -47.46285248 102.2742157
vertex 38.64009857 -49.35800934 102.5139923

endloop
endfacet
facet normal -0.2303142995 -0.9100245833 -0.3446892202
outer loop
vertex 38.64009857 -49.35800934 102.5139923
vertex 31.51074982 -47.46285248 102.2742157
vertex 37.4961319 -47.68904877 98.8720932

endloop
endfacet
facet normal -0.1593072563 -0.9154760838 -0.3694924712
outer loop
vertex 38.64009857 -49.35799408 102.5139923
vertex 37.4961319 -47.68903351 98.87210083
vertex 43.37366486 -49.29930878 100.3277054

endloop
endfacet
facet normal -0.1634251773 -0.9195520878 -0.3573739231
outer loop
vertex 43.37366486 -49.29930878 100.3277054
vertex 37.4961319 -47.68903351 98.87210083
vertex 43.60652924 -47.89429474 96.60600281

endloop
endfacet
facet normal -0.1601907164 -0.9201169014 -0.3573847711
outer loop
vertex 43.37366486 -49.29930878 100.3277054
vertex 43.60652924 -47.89429474 96.60600281
vertex 48.8367691 -50.208992 100.2210312

endloop
endfacet
facet normal -0.08661606163 -0.8911798596 -0.4453045726
outer loop
vertex 48.8367691 -50.208992 100.2210312
vertex 43.60652924 -47.89429474 96.60600281
vertex 50.06501007 -48.89165497 97.34576416

endloop
endfacet
facet normal -0.5070717335 -0.680830121 -0.5285342932
outer loop
vertex 48.83678436 -50.208992 100.2210388
vertex 50.06501007 -48.89165497 97.34576416
vertex 55.62657928 -54.64785004 99.42486572

endloop
endfacet
facet normal -nan(ind) -nan(ind) -nan(ind)
outer loop
vertex 55.62657928 -54.64785004 99.42486572
vertex 50.06501007 -48.89165497 97.34576416
vertex 55.62657928 -54.64785004 99.42486572

endloop
endfacet
facet normal -nan(ind) -nan(ind) -nan(ind)
outer loop
vertex 36.99160004 -30.32913971 151.9476624
vertex 36.99160004 -30.32913971 151.9476624
vertex 36.10555267 -30.18527985 146.8817749

endloop
endfacet
facet normal -0.8344296813 -0.535381794 0.1307420135
outer loop
vertex 36.10555267 -30.18527985 146.8817749
vertex 36.99160004 -30.32913971 151.9476624
vertex 33.54541779 -25.95641327 147.859314

endloop
endfacet
facet normal -0.6647566557 -0.5252418518 0.5312433243
outer loop
vertex 36.10555267 -30.18527985 146.8817749
vertex 33.54541779 -25.95641327 147.859314
vertex 35.26718903 -31.03678131 144.9908295

endloop
endfacet
facet normal -0.6264715791 -0.5332797766 0.5684593916
outer loop
vertex 35.26718903 -31.03678131 144.9908295
vertex 33.54541779 -25.95641327 147.859314
vertex 32.09146881 -26.79598236 145.4693756

endloop
endfacet
facet normal -0.5428093076 -0.4839394987 0.6864114404
outer loop
vertex 35.26718903 -31.03678131 144.9908295
vertex 32.09146881 -26.79598236 145.4693756
vertex 33.02220917 -33.29845428 141.6209717

endloop
endfacet
facet normal -0.3920961618 -0.5094550252 0.7659740448
outer loop
vertex 33.02220917 -33.29845428 141.6209717
vertex 32.09146881 -26.79598236 145.4693756
vertex 29.38680267 -29.6317215 142.1988068

endloop
endfacet
facet normal -0.4891782105 -0.5866995454 0.6453590989
outer loop
vertex 33.02219391 -33.29846954 141.6209717
vertex 29.38677216 -29.63173676 142.1987915
vertex 30.19910431 -36.12705231 136.9096069

endloop
endfacet
facet normal -0.2261158824 -0.6319305301 0.7413065434
outer loop
vertex 30.19910431 -36.12705231 136.9096069
vertex 29.38677216 -29.63173676 142.1987915
vertex 26.3057785 -33.6516037 137.8322601

endloop
endfacet
facet normal -0.404635787 -0.8009111285 0.4413743317
outer loop
vertex 30.19910431 -36.12705231 136.9096069
vertex 26.3057785 -33.6516037 137.8322601
vertex 27.88193512 -38.19495392 131.0329285

endloop
endfacet
facet normal -0.1838139892 -0.8364446759 0.5163068175
outer loop
vertex 27.88193512 -38.19495392 131.0329285
vertex 26.3057785 -33.6516037 137.8322601
vertex 23.97966766 -36.78650665 131.925415

endloop
endfacet
facet normal -0.2656518221 -0.9195390344 0.2896153033
outer loop
vertex 27.88193512 -38.19495392 131.0329285
vertex 23.97966766 -36.78650665 131.925415
vertex 26.41805267 -39.88459015 124.3255157

endloop
endfacet
facet normal -0.1147891581 -0.9322252274 0.3431903124
outer loop
vertex 26.41805267 -39.88459015 124.3255157
vertex 23.97966766 -36.78650665 131.925415
vertex 21.96173859 -39.10489655 124.9529037

endloop
endfacet
facet normal -0.128354609 -0.9533777237 0.2731227875
outer loop
vertex 26.41805267 -39.88459015 124.3255157
vertex 21.96173859 -39.10489655 124.9529037
vertex 25.61090851 -41.67354584 117.7015686

endloop
endfacet
facet normal -0.2180489302 -0.9492823482 0.2265342474
outer loop
vertex 25.61090851 -41.67354584 117.7015686
vertex 21.96173859 -39.10489655 124.9529037
vertex 21.01021576 -40.66001129 117.5203781

endloop
endfacet
facet normal -0.2131364942 -0.8991481066 0.382237494
outer loop
vertex 25.61090851 -41.67354584 117.7015686
vertex 21.01021576 -40.66001129 117.5203781
vertex 25.37258148 -44.07178497 111.9272308

endloop
endfacet
facet normal -0.3800875545 -0.8912959695 0.2472345382
outer loop
vertex 25.37258148 -44.07178497 111.9272308
vertex 21.01021576 -40.66001129 117.5203781
vertex 21.46285248 -42.73732758 110.7273865

endloop
endfacet
facet normal -0.3902478218 -0.8684664369 0.3057328761
outer loop
vertex 25.37258148 -44.07178497 111.9272308
vertex 21.46285248 -42.73732758 110.7273865
vertex 26.84732819 -46.49474335 106.9269791

endloop
endfacet
facet normal -0.4522815049 -0.8655765057 0.2149854451
outer loop
vertex 26.84732819 -46.49474335 106.9269791
vertex 21.46285248 -42.73732758 110.7273865
vertex 23.86168671 -45.4376297 104.9020157

endloop
endfacet
facet normal -0.2817759514 -0.9558367133 -0.08353766054
outer loop
vertex 26.84734344 -46.49474335 106.9269867
vertex 23.86170197 -45.43761444 104.9020233
vertex 31.51074982 -47.46285248 102.2742157

endloop
endfacet
facet normal -0.264029026 -0.9641788602 -0.0254504215
outer loop
vertex 31.51074982 -47.46285248 102.2742157
vertex 23.86170197 -45.43761444 104.9020233
vertex 29.20827484 -46.75405121 99.30801392

endloop
endfacet
facet normal -0.118373096 -0.9826295376 -0.1429228336
outer loop
vertex 31.51074982 -47.46285248 102.2742157
vertex 29.20827484 -46.75405121 99.30801392
vertex 37.4961319 -47.68904877 98.8720932

endloop
endfacet
facet normal -0.1141265705 -0.9926307201 -0.04073534533
outer loop
vertex 37.4961319 -47.68904877 98.8720932
vertex 29.20827484 -46.75405121 99.30801392
vertex 36.29782867 -47.38368988 94.78840637

endloop
endfacet
facet normal -0.05512494594 -0.9967728257 -0.05835426971
outer loop
vertex 37.4961319 -47.68903351 98.87210083
vertex 36.29781342 -47.38368988 94.78840637
vertex 43.60652924 -47.89429474 96.60600281

endloop
endfacet
facet normal -0.07224500179 -0.997333467 0.01032952219
outer loop
vertex 43.60652924 -47.89429474 96.60600281
vertex 36.29781342 -47.38368988 94.78840637
vertex 43.79270172 -47.95098114 92.43492889

endloop
endfacet
facet normal -0.1533506811 -0.9881498814 0.006584630813
outer loop
vertex 43.60652924 -47.89429474 96.60600281
vertex 43.79270172 -47.95098114 92.43492889
vertex 50.06501007 -48.89165497 97.34576416

endloop
endfacet
facet normal -0.05065894872 -0.9908506274 -0.1250945479
outer loop
vertex 50.06501007 -48.89165497 97.34576416
vertex 43.79270172 -47.95098114 92.43492889
vertex 51.45549774 -48.58483124 94.35237122

endloop
endfacet
facet normal -0.6053227782 -0.7128072977 -0.3542459607
outer loop
vertex 50.06501007 -48.89165497 97.34576416
vertex 51.45549774 -48.58483124 94.35236359
vertex 55.62657928 -54.64785004 99.42486572

endloop
endfacet
facet normal 0.8269264698 0.56231004 0
outer loop
vertex 55.62657928 -54.64785004 99.42486572
vertex 51.45549774 -48.58483124 94.35236359
vertex 55.62657928 -54.64785004 99.42487335

endloop
endfacet
facet normal -nan(ind) -nan(ind) -nan(ind)
outer loop
vertex 36.99160004 -30.32913971 151.9476624
vertex 36.99160004 -30.32913971 151.9476624
vertex 33.54541779 -25.95641327 147.859314

endloop
endfacet
facet normal -0.8026099205 -0.5951628089 0.03998085111
outer loop
vertex 33.54541779 -25.95641327 147.859314
vertex 36.99160004 -30.32913971 151.9476624
vertex 30.87154388 -22.28229523 148.8753204

endloop
endfacet
facet normal -0.5871527791 -0.5826874375 0.5618958473
outer loop
vertex 33.54541779 -25.95641327 147.859314
vertex 30.87154388 -22.28229523 148.8753204
vertex 32.09146881 -26.79598236 145.4693756

endloop
endfacet
facet normal -0.4641251266 -0.6100418568 0.6422124505
outer loop
vertex 32.09146881 -26.79598236 145.4693756
vertex 30.87154388 -22.28229523 148.8753204
vertex 28.4983139 -23.33640289 146.1588898

endloop
endfacet
facet normal -0.3656874895 -0.5320158601 0.7636961341
outer loop
vertex 32.09146881 -26.79598236 145.4693756
vertex 28.4983139 -23.33640289 146.1588898
vertex 29.38680267 -29.6317215 142.1988068

endloop
endfacet
facet normal -0.3067438006 -0.5374366045 0.785538137
outer loop
vertex 29.38680267 -29.6317215 142.1988068
vertex 28.4983139 -23.33640289 146.1588898
vertex 25.67220306 -26.44637299 142.927597

endloop
endfacet
facet normal -0.3350385725 -0.5634779334 0.7551435828
outer loop
vertex 29.38677216 -29.63173676 142.1987915
vertex 25.67220306 -26.4464035 142.9275818
vertex 26.3057785 -33.6516037 137.8322601

endloop
endfacet
facet normal -0.2828409076 -0.5702652931 0.7712318301
outer loop
vertex 26.3057785 -33.6516037 137.8322601
vertex 25.67220306 -26.4464035 142.9275818
vertex 22.72428131 -30.82146454 138.6114502

endloop
endfacet
facet normal -0.4408338368 -0.7093062401 0.5500456691
outer loop
vertex 26.3057785 -33.6516037 137.8322601
vertex 22.72428131 -30.82146454 138.6114502
vertex 23.97966766 -36.78650665 131.925415

endloop
endfacet
facet normal -0.3081994653 -0.7378861904 0.6004473567
outer loop
vertex 23.97966766 -36.78650665 131.925415
vertex 22.72428131 -30.82146454 138.6114502
vertex 20.12407684 -34.59152985 132.6437988

endloop
endfacet
facet normal -0.3991709352 -0.8292121291 0.3912414908
outer loop
vertex 23.97966766 -36.78650665 131.925415
vertex 20.12407684 -34.59152985 132.6437988
vertex 21.96173859 -39.10489655 124.9529037

endloop
endfacet
facet normal -0.1645063609 -0.8673630953 0.4697009325
outer loop
vertex 21.96173859 -39.10489655 124.9529037
vertex 20.12407684 -34.59152985 132.6437988
vertex 17.67923737 -37.9656601 125.5567627

endloop
endfacet
facet normal -0.220405221 -0.948695302 0.2267130464
outer loop
vertex 21.96173859 -39.10489655 124.9529037
vertex 17.67923737 -37.9656601 125.5567627
vertex 21.01021576 -40.66001129 117.5203781

endloop
endfacet
facet normal -0.1412559301 -0.9547936916 0.2615640461
outer loop
vertex 21.01021576 -40.66001129 117.5203781
vertex 17.67923737 -37.9656601 125.5567627
vertex 16.4973526 -39.98743439 117.5383606

endloop
endfacet
facet normal -0.1403738111 -0.9493938684 0.2809738815
outer loop
vertex 21.01021576 -40.66001129 117.5203781
vertex 16.4973526 -39.98743439 117.5383606
vertex 21.46285248 -42.73732758 110.7273865

endloop
endfacet
facet normal -0.1909097731 -0.9506358504 0.2446323186
outer loop
vertex 21.46285248 -42.73732758 110.7273865
vertex 16.4973526 -39.98743439 117.5383606
vertex 17.2161026 -42.13814545 109.7416534

endloop
endfacet
facet normal -0.2082151622 -0.9172861576 0.3394592404
outer loop
vertex 21.46285248 -42.73732758 110.7273865
vertex 17.2161026 -42.13814545 109.7416534
vertex 23.86168671 -45.4376297 104.9020157

endloop
endfacet
facet normal -0.2375892252 -0.9229120612 0.3029595912
outer loop
vertex 23.86168671 -45.4376297 104.9020157
vertex 17.2161026 -42.13814545 109.7416534
vertex 20.35556793 -45.19454193 102.8929443

endloop
endfacet
facet normal -0.1300306767 -0.9856463075 0.1076727808
outer loop
vertex 23.86170197 -45.43761444 104.9020233
vertex 20.35556793 -45.19454193 102.8929596
vertex 29.20827484 -46.75405121 99.30801392

endloop
endfacet
facet normal -0.1059412733 -0.9805938005 0.1649614722
outer loop
vertex 29.20827484 -46.75405121 99.30801392
vertex 20.35556793 -45.19454193 102.8929596
vertex 26.62751007 -46.96744537 96.38210297

endloop
endfacet
facet normal -0.02695076354 -0.9949837327 0.09633830935
outer loop
vertex 29.20827484 -46.75405121 99.30801392
vertex 26.62751007 -46.96744537 96.38210297
vertex 36.29782867 -47.38368988 94.78840637

endloop
endfacet
facet normal -0.01177208684 -0.9826278687 0.1852131933
outer loop
vertex 36.29782867 -47.38368988 94.78840637
vertex 26.62751007 -46.96744537 96.38210297
vertex 34.95290375 -48.08716583 90.97071075

endloop
endfacet
facet normal -0.01576875895 -0.982316196 0.186564073
outer loop
vertex 36.29781342 -47.38368988 94.78840637
vertex 34.95290375 -48.08716583 90.97071838
vertex 43.79270172 -47.95098114 92.43492889

endloop
endfacet
facet normal -0.02185876109 -0.9746603966 0.2226188481
outer loop
vertex 43.79270172 -47.95098114 92.43492889
vertex 34.95290375 -48.08716583 90.97071838
vertex 43.89043427 -48.82099152 88.63548279

endloop
endfacet
facet normal -0.1344825476 -0.9666633606 0.21789065
outer loop
vertex 43.79270172 -47.95098114 92.43492889
vertex 43.89043427 -48.82099152 88.63548279
vertex 51.45549774 -48.58483124 94.35237122

endloop
endfacet
facet normal 0.001038864139 -0.9992030859 0.03990159929
outer loop
vertex 51.45549774 -48.58483124 94.35237122
vertex 43.89043427 -48.82099152 88.63548279
vertex 53.01744843 -48.7004776 91.41572571

endloop
endfacet
facet normal -0.6399492025 -0.7018991113 -0.3127342165
outer loop
vertex 51.45549774 -48.58483124 94.35236359
vertex 53.01743317 -48.7004776 91.41572571
vertex 55.62657928 -54.64785004 99.42487335

endloop
endfacet
facet normal -0.9230769277 -0.3846153915 0
outer loop
vertex 55.62657928 -54.64785004 99.42487335
vertex 53.01743317 -48.7004776 91.41572571
vertex 55.62657928 -54.64785004 99.42486572

endloop
endfacet
facet normal 0 -0.3566924632 -0.9342218041
outer loop
vertex 36.99160004 -30.32913971 151.9476624
vertex 36.99158478 -30.32913971 151.9476624
vertex 30.87154388 -22.28229523 148.8753204

endloop
endfacet
facet normal -0.7212719917 -0.6449796557 -0.2525230348
outer loop
vertex 30.87154388 -22.28229523 148.8753204
vertex 36.99158478 -30.32913971 151.9476624
vertex 28.8728714 -20.86440277 150.9625549

endloop
endfacet
facet normal -0.139338553 -0.8760351539 0.4616785944
outer loop
vertex 30.87154388 -22.28229523 148.8753204
vertex 28.8728714 -20.86440277 150.9625549
vertex 28.4983139 -23.33640289 146.1588898

endloop
endfacet
facet normal 0.1427017748 -0.8845546842 0.4440711737
outer loop
vertex 28.4983139 -23.33640289 146.1588898
vertex 28.8728714 -20.86440277 150.9625549
vertex 25.57814789 -22.7481308 148.2690735

endloop
endfacet
facet normal 0.2409511805 -0.7959564924 0.5553338528
outer loop
vertex 28.4983139 -23.33640289 146.1588898
vertex 25.57814789 -22.7481308 148.2690735
vertex 25.67220306 -26.44637299 142.927597

endloop
endfacet
facet normal 0.116153717 -0.8156473637 0.5667695403
outer loop
vertex 25.67220306 -26.44637299 142.927597
vertex 25.57814789 -22.7481308 148.2690735
vertex 22.44062042 -25.70310211 144.6595306

endloop
endfacet
facet normal 0.1715338975 -0.7480432391 0.6410986185
outer loop
vertex 25.67220306 -26.4464035 142.9275818
vertex 22.44060516 -25.70310211 144.6595306
vertex 22.72428131 -30.82146454 138.6114502

endloop
endfacet
facet normal -0.1375776231 -0.7592533231 0.6360871196
outer loop
vertex 22.72428131 -30.82146454 138.6114502
vertex 22.44060516 -25.70310211 144.6595306
vertex 19.28075409 -29.34337616 139.6309509

endloop
endfacet
facet normal -0.1711025387 -0.7975869179 0.5784279704
outer loop
vertex 22.72428131 -30.82146454 138.6114502
vertex 19.28075409 -29.34337616 139.6309509
vertex 20.12407684 -34.59152985 132.6437988

endloop
endfacet
facet normal -0.3739156127 -0.7626831532 0.5277324319
outer loop
vertex 20.12407684 -34.59152985 132.6437988
vertex 19.28075409 -29.34337616 139.6309509
vertex 16.35327911 -32.44167328 133.0790558

endloop
endfacet
facet normal -0.3840691745 -0.7751939297 0.5015627146
outer loop
vertex 20.12407684 -34.59152985 132.6437988
vertex 16.35327911 -32.44167328 133.0790558
vertex 17.67923737 -37.9656601 125.5567627

endloop
endfacet
facet normal -0.2915700674 -0.794788897 0.5322570801
outer loop
vertex 17.67923737 -37.9656601 125.5567627
vertex 16.35327911 -32.44167328 133.0790558
vertex 13.73407745 -36.29805756 125.8857422

endloop
endfacet
facet normal -0.3543453515 -0.8930228949 0.2773976624
outer loop
vertex 17.67923737 -37.9656601 125.5567627
vertex 13.73407745 -36.29805756 125.8857422
vertex 16.4973526 -39.98743439 117.5383606

endloop
endfacet
facet normal -0.0609703511 -0.9202511907 0.3865494132
outer loop
vertex 16.4973526 -39.98743439 117.5383606
vertex 13.73407745 -36.29805756 125.8857422
vertex 12.26596832 -39.63437653 117.7114639

endloop
endfacet
facet normal -0.06976654381 -0.9632771015 0.2592871487
outer loop
vertex 16.4973526 -39.98743439 117.5383606
vertex 12.26596832 -39.63437653 117.7114639
vertex 17.2161026 -42.13814545 109.7416534

endloop
endfacet
facet normal 0.07194648683 -0.9379093051 0.3393371701
outer loop
vertex 17.2161026 -42.13814545 109.7416534
vertex 12.26596832 -39.63437653 117.7114639
vertex 12.93839264 -42.69068146 109.1214371

endloop
endfacet
facet normal 0.05453861132 -0.9022890329 0.4276682138
outer loop
vertex 17.2161026 -42.13814545 109.7416534
vertex 12.93839264 -42.69068146 109.1214371
vertex 20.35556793 -45.19454193 102.8929443

endloop
endfacet
facet normal -0.008548575453 -0.9312828779 0.3641966283
outer loop
vertex 20.35556793 -45.19454193 102.8929443
vertex 12.93839264 -42.69068146 109.1214371
vertex 16.66829681 -45.89507294 101.0150757

endloop
endfacet
facet normal 0.03289943933 -0.9558606744 0.2919726372
outer loop
vertex 20.35556793 -45.19454193 102.8929596
vertex 16.66829681 -45.89505768 101.0150909
vertex 26.62751007 -46.96744537 96.38210297

endloop
endfacet
facet normal 0.04255342856 -0.9493828416 0.3112257421
outer loop
vertex 26.62751007 -46.96744537 96.38210297
vertex 16.66829681 -45.89505768 101.0150909
vertex 23.89743805 -48.00795746 93.58133698

endloop
endfacet
facet normal 0.06247119606 -0.9539172053 0.2934952378
outer loop
vertex 26.62751007 -46.96744537 96.38210297
vertex 23.89743805 -48.00795746 93.58133698
vertex 34.95290375 -48.08716583 90.97071075

endloop
endfacet
facet normal 0.0767801404 -0.9323028326 0.3534348905
outer loop
vertex 34.95290375 -48.08716583 90.97071075
vertex 23.89743805 -48.00795746 93.58133698
vertex 33.51810455 -49.43965912 87.7147522

endloop
endfacet
facet normal 0.02196171135 -0.9266640544 0.3752484024
outer loop
vertex 34.95290375 -48.08716583 90.97071838
vertex 33.51808929 -49.43965912 87.7147522
vertex 43.89043427 -48.82099152 88.63548279

endloop
endfacet
facet normal 0.02285790071 -0.9298296571 0.3672794998
outer loop
vertex 43.89043427 -48.82099152 88.63548279
vertex 33.51808929 -49.43965912 87.7147522
vertex 43.9204483 -50.08272552 85.43932343

endloop
endfacet
facet normal -0.09883413464 -0.9259086251 0.3645887971
outer loop
vertex 43.89043427 -48.82099152 88.63548279
vertex 43.9204483 -50.08272552 85.43932343
vertex 53.01744843 -48.7004776 91.41572571

endloop
endfacet
facet normal -0.01772812195 -0.9678668976 0.2508372962
outer loop
vertex 53.01744843 -48.7004776 91.41572571
vertex 43.9204483 -50.08272552 85.43932343
vertex 54.72173309 -49.46485138 88.58680725

endloop
endfacet
facet normal -0.7132130861 -0.6536738276 -0.2530564368
outer loop
vertex 53.01743317 -48.7004776 91.41572571
vertex 54.72173309 -49.46485138 88.58679962
vertex 55.62657928 -54.64785004 99.42486572

endloop
endfacet
facet normal -nan(ind) -nan(ind) -nan(ind)
outer loop
vertex 55.62657928 -54.64785004 99.42486572
vertex 54.72173309 -49.46485138 88.58679962
vertex 55.62657928 -54.64785004 99.42486572

endloop
endfacet
facet normal -0.05584966391 0.05584966391 0.9968758821
outer loop
vertex 36.99158478 -30.32913971 151.9476624
vertex 36.99160004 -30.32912445 151.9476624
vertex 28.8728714 -20.86440277 150.9625549

endloop
endfacet
facet normal -0.680926621 -0.6239928603 -0.3833690584
outer loop
vertex 28.8728714 -20.86440277 150.9625549
vertex 36.99160004 -30.32912445 151.9476624
vertex 27.60869598 -21.07891083 153.5570831

endloop
endfacet
facet normal 0.4124755561 -0.9021582603 0.1263895333
outer loop
vertex 28.8728714 -20.86440277 150.9625549
vertex 27.60869598 -21.07891083 153.5570831
vertex 25.57814789 -22.7481308 148.2690735

endloop
endfacet
facet normal 0.494320035 -0.865277648 0.0833202228
outer loop
vertex 25.57814789 -22.7481308 148.2690735
vertex 27.60869598 -21.07891083 153.5570831
vertex 23.50055695 -23.69559479 150.7555695

endloop
endfacet
facet normal 0.5674361587 -0.8063308001 0.1668737382
outer loop
vertex 25.57814789 -22.7481308 148.2690735
vertex 23.50055695 -23.69559479 150.7555695
vertex 22.44062042 -25.70310211 144.6595306

endloop
endfacet
facet normal 0.3357641697 -0.9104744792 0.2414511144
outer loop
vertex 22.44062042 -25.70310211 144.6595306
vertex 23.50055695 -23.69559479 150.7555695
vertex 19.94303131 -26.17635345 146.3481445

endloop
endfacet
facet normal 0.4016716778 -0.8429760337 0.3578428328
outer loop
vertex 22.44060516 -25.70310211 144.6595306
vertex 19.94301605 -26.17636871 146.3481445
vertex 19.28075409 -29.34337616 139.6309509

endloop
endfacet
facet normal 0.02820306085 -0.905218482 0.4240097702
outer loop
vertex 19.28075409 -29.34337616 139.6309509
vertex 19.94301605 -26.17636871 146.3481445
vertex 16.30168915 -29.0226059 140.513916

endloop
endfacet
facet normal 0.02605050988 -0.9081584215 0.4178153574
outer loop
vertex 19.28075409 -29.34337616 139.6309509
vertex 16.30168915 -29.0226059 140.513916
vertex 16.35327911 -32.44167328 133.0790558

endloop
endfacet
facet normal -0.165452823 -0.8964489698 0.4111016989
outer loop
vertex 16.35327911 -32.44167328 133.0790558
vertex 16.30168915 -29.0226059 140.513916
vertex 12.89289093 -31.55670929 133.6161346

endloop
endfacet
facet normal -0.1389449984 -0.8508341908 0.5067301393
outer loop
vertex 16.35327911 -32.44167328 133.0790558
vertex 12.89289093 -31.55670929 133.6161346
vertex 13.73407745 -36.29805756 125.8857422

endloop
endfacet
facet normal -0.09302585572 -0.8532190323 0.5131894946
outer loop
vertex 13.73407745 -36.29805756 125.8857422
vertex 12.89289093 -31.55670929 133.6161346
vertex 10.08991241 -35.5484848 126.4713898

endloop
endfacet
facet normal -0.1240103468 -0.9107150435 0.393979311
outer loop
vertex 13.73407745 -36.29805756 125.8857422
vertex 10.08991241 -35.5484848 126.4713898
vertex 12.26596832 -39.63437653 117.7114639

endloop
endfacet
facet normal 0.2092888653 -0.8652492166 0.4555676877
outer loop
vertex 12.26596832 -39.63437653 117.7114639
vertex 10.08991241 -35.5484848 126.4713898
vertex 8.496025085 -40.23410797 118.3043289

endloop
endfacet
facet normal 0.1998812258 -0.9180846214 0.3422982991
outer loop
vertex 12.26596832 -39.63437653 117.7114639
vertex 8.496025085 -40.23410797 118.3043289
vertex 12.93839264 -42.69068146 109.1214371

endloop
endfacet
facet normal 0.3957736492 -0.8211746216 0.4111393392
outer loop
vertex 12.93839264 -42.69068146 109.1214371
vertex 8.496025085 -40.23410797 118.3043289
vertex 9.114616394 -44.5918045 109.0051651

endloop
endfacet
facet normal 0.3773560226 -0.7886716127 0.485386014
outer loop
vertex 12.93839264 -42.69068146 109.1214371
vertex 9.114616394 -44.5918045 109.0051651
vertex 16.66829681 -45.89507294 101.0150757

endloop
endfacet
facet normal 0.3153872192 -0.8430433869 0.4356705546
outer loop
vertex 16.66829681 -45.89507294 101.0150757
vertex 9.114616394 -44.5918045 109.0051651
vertex 13.19347382 -47.93218231 99.58863831

endloop
endfacet
facet normal 0.2753550708 -0.8204851151 0.5009828806
outer loop
vertex 16.66829681 -45.89505768 101.0150909
vertex 13.19348907 -47.93218231 99.58864594
vertex 23.89743805 -48.00795746 93.58133698

endloop
endfacet
facet normal 0.2340512723 -0.8729229569 0.4280483723
outer loop
vertex 23.89743805 -48.00795746 93.58133698
vertex 13.19348907 -47.93218231 99.58864594
vertex 21.3708725 -49.80735016 91.29331207

endloop
endfacet
facet normal 0.1693692058 -0.8568964601 0.4868701398
outer loop
vertex 23.89743805 -48.00795746 93.58133698
vertex 21.3708725 -49.80735016 91.29331207
vertex 33.51810455 -49.43965912 87.7147522

endloop
endfacet
facet normal 0.1633470654 -0.8700708151 0.4650745988
outer loop
vertex 33.51810455 -49.43965912 87.7147522
vertex 21.3708725 -49.80735016 91.29331207
vertex 32.31095123 -51.09294891 85.04573059

endloop
endfacet
facet normal 0.05766872689 -0.8601711988 0.5067343712
outer loop
vertex 33.51808929 -49.43965912 87.7147522
vertex 32.31095123 -51.09293365 85.04573059
vertex 43.9204483 -50.08272552 85.43932343

endloop
endfacet
facet normal 0.05891972035 -0.8687223196 0.4917824566
outer loop
vertex 43.9204483 -50.08272552 85.43932343
vertex 32.31095123 -51.09293365 85.04573059
vertex 44.10744476 -51.71863556 82.5271225

endloop
endfacet
facet normal -0.09101823717 -0.8707225323 0.4832783639
outer loop
vertex 43.9204483 -50.08272552 85.43932343
vertex 44.10744476 -51.71863556 82.5271225
vertex 54.72173309 -49.46485138 88.58680725

endloop
endfacet
facet normal -0.07223894447 -0.8868470192 0.4563812613
outer loop
vertex 54.72173309 -49.46485138 88.58680725
vertex 44.10744476 -51.71863556 82.5271225
vertex 56.63227081 -51.12807465 85.65721893

endloop
endfacet
facet normal -0.8010037541 -0.5633580089 -0.2025359869
outer loop
vertex 54.72173309 -49.46485138 88.58679962
vertex 56.63225555 -51.12807465 85.65721893
vertex 55.62657928 -54.64785004 99.42486572

endloop
endfacet
facet normal 0.9701425433 -0.2425356358 0
outer loop
vertex 55.62657928 -54.64785004 99.42486572
vertex 56.63225555 -51.12807465 85.65721893
vertex 55.62657928 -54.64785004 99.42487335

endloop
endfacet
facet normal -0.7059082389 -0.7059082389 -0.05819936469
outer loop
vertex 36.99160004 -30.32912445 151.9476624
vertex 36.9916153 -30.32913971 151.9476624
vertex 27.60869598 -21.07891083 153.5570831

endloop
endfacet
facet normal -0.6691891551 -0.6033082008 -0.4338260591
outer loop
vertex 27.60869598 -21.07891083 153.5570831
vertex 36.9916153 -30.32913971 151.9476624
vertex 26.8094101 -22.18422699 156.3271332

endloop
endfacet
facet normal 0.598769784 -0.7882744074 -0.1417678893
outer loop
vertex 27.60869598 -21.07891083 153.5570831
vertex 26.8094101 -22.18422699 156.3271332
vertex 23.50055695 -23.69559479 150.7555695

endloop
endfacet
facet normal 0.6135279536 -0.7744551301 -0.1542812139
outer loop
vertex 23.50055695 -23.69559479 150.7555695
vertex 26.8094101 -22.18422699 156.3271332
vertex 21.90657806 -25.44715118 153.2092133

endloop
endfacet
facet normal 0.6552342772 -0.7476574183 -0.1080574617
outer loop
vertex 23.50055695 -23.69559479 150.7555695
vertex 21.90657806 -25.44715118 153.2092133
vertex 19.94303131 -26.17635345 146.3481445

endloop
endfacet
facet normal 0.5541400313 -0.8294382691 -0.07043384761
outer loop
vertex 19.94303131 -26.17635345 146.3481445
vertex 21.90657806 -25.44715118 153.2092133
vertex 17.86690521 -27.71068573 148.0826721

endloop
endfacet
facet normal 0.6018004417 -0.7985244989 0.01395870093
outer loop
vertex 19.94301605 -26.17636871 146.3481445
vertex 17.86688995 -27.71070099 148.0826569
vertex 16.30168915 -29.0226059 140.513916

endloop
endfacet
facet normal 0.4508935511 -0.8904836178 0.06110540777
outer loop
vertex 16.30168915 -29.0226059 140.513916
vertex 17.86688995 -27.71070099 148.0826569
vertex 13.75753021 -30.22499847 141.7647705

endloop
endfacet
facet normal 0.4631118476 -0.8812074661 0.09487340599
outer loop
vertex 16.30168915 -29.0226059 140.513916
vertex 13.75753021 -30.22499847 141.7647705
vertex 12.89289093 -31.55670929 133.6161346

endloop
endfacet
facet normal 0.4860399365 -0.8692397475 0.09048467875
outer loop
vertex 12.89289093 -31.55670929 133.6161346
vertex 13.75753021 -30.22499847 141.7647705
vertex 10.038414 -33.00850677 135.0023346

endloop
endfacet
facet normal 0.5313329697 -0.8110564351 0.2446889877
outer loop
vertex 12.89289093 -31.55670929 133.6161346
vertex 10.038414 -33.00850677 135.0023346
vertex 10.08991241 -35.5484848 126.4713898

endloop
endfacet
facet normal 0.6429963112 -0.7329551578 0.222109437
outer loop
vertex 10.08991241 -35.5484848 126.4713898
vertex 10.038414 -33.00850677 135.0023346
vertex 7.084862232 -37.63144684 128.2971497

endloop
endfacet
facet normal 0.6551048756 -0.7034304142 0.2757230401
outer loop
vertex 10.08991241 -35.5484848 126.4713898
vertex 7.084862232 -37.63144684 128.2971497
vertex 8.496025085 -40.23410797 118.3043289

endloop
endfacet
facet normal 0.7257578373 -0.6337872744 0.2675616443
outer loop
vertex 8.496025085 -40.23410797 118.3043289
vertex 7.084862232 -37.63144684 128.2971497
vertex 5.370705128 -43.11682892 119.95327

endloop
endfacet
facet normal 0.7281851768 -0.6007323861 0.3299499154
outer loop
vertex 8.496025085 -40.23410797 118.3043289
vertex 5.370705128 -43.11682892 119.95327
vertex 9.114616394 -44.5918045 109.0051651

endloop
endfacet
facet normal 0.7265393138 -0.6028720737 0.3296753168
outer loop
vertex 9.114616394 -44.5918045 109.0051651
vertex 5.370705128 -43.11682892 119.95327
vertex 5.997673035 -48.01178741 109.620224

endloop
endfacet
facet normal 0.6868773103 -0.5381724834 0.4884363413
outer loop
vertex 9.114616394 -44.5918045 109.0051651
vertex 5.997673035 -48.01178741 109.620224
vertex 13.19347382 -47.93218231 99.58863831

endloop
endfacet
facet normal 0.6571023464 -0.5919908285 0.4666512609
outer loop
vertex 13.19347382 -47.93218231 99.58863831
vertex 5.997673035 -48.01178741 109.620224
vertex 10.49706268 -51.36513519 99.03049469

endloop
endfacet
facet normal 0.5405371189 -0.53070575 0.6528177857
outer loop
vertex 13.19348907 -47.93218231 99.58864594
vertex 10.49706268 -51.36511993 99.03050995
vertex 21.3708725 -49.80735016 91.29331207

endloop
endfacet
facet normal 0.5489973426 -0.4979506731 0.6713024974
outer loop
vertex 21.3708725 -49.80735016 91.29331207
vertex 10.49706268 -51.36511993 99.03050995
vertex 19.67935944 -52.91535187 90.37123108

endloop
endfacet
facet normal 0.4009431005 -0.4542371333 0.7955584526
outer loop
vertex 21.3708725 -49.80735016 91.29331207
vertex 19.67935944 -52.91535187 90.37123108
vertex 32.31095123 -51.09294891 85.04573059

endloop
endfacet
facet normal 0.4066615403 -0.2556319833 0.8770853877
outer loop
vertex 32.31095123 -51.09294891 85.04573059
vertex 19.67935944 -52.91535187 90.37123108
vertex 31.98111725 -53.68831635 84.4422226

endloop
endfacet
facet normal 0.1899680644 -0.2452054173 0.9506768584
outer loop
vertex 32.31095123 -51.09293365 85.04573059
vertex 31.98110199 -53.68831635 84.4422226
vertex 44.10744476 -51.71863556 82.5271225

endloop
endfacet
facet normal 0.2058008462 -0.3976176083 0.8941734433
outer loop
vertex 44.10744476 -51.71863556 82.5271225
vertex 31.98110199 -53.68831635 84.4422226
vertex 44.80448151 -54.44853973 81.152771

endloop
endfacet
facet normal -0.1913459301 -0.4799049497 0.8561997414
outer loop
vertex 44.10744476 -51.71863556 82.5271225
vertex 44.80448151 -54.44853973 81.152771
vertex 56.63227081 -51.12807465 85.65721893

endloop
endfacet
facet normal -0.1297369152 -0.6042990685 0.786123991
outer loop
vertex 56.63227081 -51.12807465 85.65721893
vertex 44.80448151 -54.44853973 81.152771
vertex 58.31099701 -54.38750458 83.42871857

endloop
endfacet
facet normal -0.9178180099 -0.3633590639 -0.1599379331
outer loop
vertex 56.63225555 -51.12807465 85.65721893
vertex 58.31098175 -54.38750458 83.42871857
vertex 55.62657928 -54.64785004 99.42487335

endloop
endfacet
facet normal -0.0105910087 -0.9997912049 -0.01747516356
outer loop
vertex 55.62657928 -54.64785004 99.42487335
vertex 58.31098175 -54.38750458 83.42871857
vertex 55.62659454 -54.64785004 99.42486572

endloop
endfacet
facet normal 0.3099671006 0.7208342552 -0.6199342012
outer loop
vertex 36.9916153 -30.32913971 151.9476624
vertex 36.99158478 -30.32913971 151.9476471
vertex 26.8094101 -22.18422699 156.3271332

endloop
endfacet
facet normal -0.666118741 -0.5817955732 -0.4666902125
outer loop
vertex 26.8094101 -22.18422699 156.3271332
vertex 36.99158478 -30.32913971 151.9476471
vertex 26.55306244 -24.49950409 159.5793457

endloop
endfacet
facet normal 0.6697043777 -0.6289055943 -0.3949353099
outer loop
vertex 26.8094101 -22.18422699 156.3271332
vertex 26.55306244 -24.49950409 159.5793457
vertex 21.90657806 -25.44715118 153.2092133

endloop
endfacet
facet normal 0.6612184048 -0.6428667903 -0.3866685629
outer loop
vertex 21.90657806 -25.44715118 153.2092133
vertex 26.55306244 -24.49950409 159.5793457
vertex 20.56981659 -28.55371857 156.0882111

endloop
endfacet
facet normal 0.7335605621 -0.6041408777 -0.3112919629
outer loop
vertex 21.90657806 -25.44715118 153.2092133
vertex 20.56981659 -28.55371857 156.0882111
vertex 17.86690521 -27.71068573 148.0826721

endloop
endfacet
facet normal 0.731584549 -0.6067343354 -0.3108978868
outer loop
vertex 17.86690521 -27.71068573 148.0826721
vertex 20.56981659 -28.55371857 156.0882111
vertex 15.97859955 -31.29755402 150.6392059

endloop
endfacet
facet normal 0.7640826106 -0.5893167257 -0.2624568939
outer loop
vertex 17.86688995 -27.71070099 148.0826569
vertex 15.97858429 -31.29756927 150.6391907
vertex 13.75753021 -30.22499847 141.7647705

endloop
endfacet
facet normal 0.7612661123 -0.5930619836 -0.2622046471
outer loop
vertex 13.75753021 -30.22499847 141.7647705
vertex 15.97858429 -31.29756927 150.6391907
vertex 11.619133 -34.0246048 144.1503601

endloop
endfacet
facet normal 0.794377625 -0.573227644 -0.2009333372
outer loop
vertex 13.75753021 -30.22499847 141.7647705
vertex 11.619133 -34.0246048 144.1503601
vertex 10.038414 -33.00850677 135.0023346

endloop
endfacet
facet normal 0.8399164081 -0.5040742159 -0.201121062
outer loop
vertex 10.038414 -33.00850677 135.0023346
vertex 11.619133 -34.0246048 144.1503601
vertex 8.038276672 -37.35889435 137.552887

endloop
endfacet
facet normal 0.8876402378 -0.4538724422 -0.07806886733
outer loop
vertex 10.038414 -33.00850677 135.0023346
vertex 8.038276672 -37.35889435 137.552887
vertex 7.084862232 -37.63144684 128.2971497

endloop
endfacet
facet normal 0.9119216204 -0.4020687044 -0.08209551126
outer loop
vertex 7.084862232 -37.63144684 128.2971497
vertex 8.038276672 -37.35889435 137.552887
vertex 5.132804871 -42.65877533 131.2352905

endloop
endfacet
facet normal 0.9381633401 -0.3445416689 0.03377124295
outer loop
vertex 7.084862232 -37.63144684 128.2971497
vertex 5.132804871 -42.65877533 131.2352905
vertex 5.370705128 -43.11682892 119.95327

endloop
endfacet
facet normal 0.9309127927 -0.3636185825 0.03439288214
outer loop
vertex 5.370705128 -43.11682892 119.95327
vertex 5.132804871 -42.65877533 131.2352905
vertex 3.269126892 -48.2564621 122.4979782

endloop
endfacet
facet normal 0.9379729033 -0.2878434062 0.1932692826
outer loop
vertex 5.370705128 -43.11682892 119.95327
vertex 3.269126892 -48.2564621 122.4979782
vertex 5.997673035 -48.01178741 109.620224

endloop
endfacet
facet normal 0.9238437414 -0.3326122165 0.1894250065
outer loop
vertex 5.997673035 -48.01178741 109.620224
vertex 3.269126892 -48.2564621 122.4979782
vertex 3.927146912 -52.95366669 111.0409088

endloop
endfacet
facet normal 0.8654280305 -0.2354518175 0.4422633946
outer loop
vertex 5.997673035 -48.01178741 109.620224
vertex 3.927146912 -52.95366669 111.0409088
vertex 10.49706268 -51.36513519 99.03049469

endloop
endfacet
facet normal 0.8620733023 -0.2552493215 0.4378098547
outer loop
vertex 10.49706268 -51.36513519 99.03049469
vertex 3.927146912 -52.95366669 111.0409088
vertex 8.833732605 -56.39438629 99.37356567

endloop
endfacet
facet normal 0.6610170007 -0.1687428057 0.7311515212
outer loop
vertex 10.49706268 -51.36511993 99.03050995
vertex 8.833732605 -56.39438629 99.37358093
vertex 19.67935944 -52.91535187 90.37123108

endloop
endfacet
facet normal 0.6590008736 -0.1442921907 0.7381717563
outer loop
vertex 19.67935944 -52.91535187 90.37123108
vertex 8.833732605 -56.39438629 99.37358093
vertex 18.62233734 -58.05998993 90.30924988

endloop
endfacet
facet normal 0.4270219505 -0.0985654667 0.8988531828
outer loop
vertex 19.67935944 -52.91535187 90.37123108
vertex 18.62233734 -58.05998993 90.30924988
vertex 31.98111725 -53.68831635 84.4422226

endloop
endfacet
facet normal 0.3497548401 0.1681165993 0.9216335416
outer loop
vertex 31.98111725 -53.68831635 84.4422226
vertex 18.62233734 -58.05998993 90.30924988
vertex 32.01329803 -58.24436188 85.26108551

endloop
endfacet
facet normal 0.2543368042 0.1728218049 0.951548934
outer loop
vertex 31.98110199 -53.68831635 84.4422226
vertex 32.01329803 -58.24436188 85.26109314
vertex 44.80448151 -54.44853973 81.152771

endloop
endfacet
facet normal 0.2687259614 0.1277515739 0.9547073245
outer loop
vertex 44.80448151 -54.44853973 81.152771
vertex 32.01329803 -58.24436188 85.26109314
vertex 45.48874664 -59.10500336 81.58325958

endloop
endfacet
facet normal -0.1660888344 0.06655111164 0.9838625193
outer loop
vertex 44.80448151 -54.44853973 81.152771
vertex 45.48874664 -59.10500336 81.58325958
vertex 58.31099701 -54.38750458 83.42871857

endloop
endfacet
facet normal -0.09984142333 -0.1152490228 0.988306284
outer loop
vertex 58.31099701 -54.38750458 83.42871857
vertex 45.48874664 -59.10500336 81.58325958
vertex 59.22742462 -59.72917938 82.89839172

endloop
endfacet
facet normal -0.9745414257 -0.1507135183 -0.1659952104
outer loop
vertex 58.31098175 -54.38750458 83.42871857
vertex 59.22740936 -59.72919464 82.89839172
vertex 55.62659454 -54.64785004 99.42486572

endloop
endfacet
facet normal 0.1293584108 0.957252264 -0.2587168217
outer loop
vertex 55.62659454 -54.64785004 99.42486572
vertex 59.22740936 -59.72919464 82.89839172
vertex 55.62657928 -54.64785004 99.42485809

endloop
endfacet
facet normal -0.2935057878 -0.9097849131 0.2935057878
outer loop
vertex 36.99158478 -30.32913971 151.9476471
vertex 36.99160004 -30.32913971 151.9476624
vertex 26.55306244 -24.49950409 159.5793457

endloop
endfacet
facet normal -0.6741021276 -0.5189614892 -0.525609374
outer loop
vertex 26.55306244 -24.49950409 159.5793457
vertex 36.99160004 -30.32913971 151.9476624
vertex 31.79761505 -38.79244232 166.9652863

endloop
endfacet
facet normal 0.5878601074 -0.1905653328 -0.7861967087
outer loop
vertex 26.55306244 -24.49950409 159.5793457
vertex 31.79761505 -38.79244232 166.9652863
vertex 20.56981659 -28.55371857 156.0882111

endloop
endfacet
facet normal 0.5893988013 -0.1882472485 -0.7856029868
outer loop
vertex 20.56981659 -28.55371857 156.0882111
vertex 31.79761505 -38.79244232 166.9652863
vertex 23.92328644 -44.00302887 162.3061371

endloop
endfacet
facet normal 0.7816473842 -0.07932542264 -0.6186555624
outer loop
vertex 20.56981659 -28.55371857 156.0882111
vertex 23.92328644 -44.00302887 162.3061371
vertex 15.97859955 -31.29755402 150.6392059

endloop
endfacet
facet normal 0.804107964 -0.04173753411 -0.593016386
outer loop
vertex 15.97859955 -31.29755402 150.6392059
vertex 23.92328644 -44.00302887 162.3061371
vertex 19.2352066 -47.32250214 156.1829071

endloop
endfacet
facet normal 0.8339886069 -0.0212586578 -0.5513720512
outer loop
vertex 15.97858429 -31.29756927 150.6391907
vertex 19.23519135 -47.3225174 156.1828918
vertex 11.619133 -34.0246048 144.1503601

endloop
endfacet
facet normal 0.8676140308 0.04918889701 -0.4947994351
outer loop
vertex 11.619133 -34.0246048 144.1503601
vertex 19.23519135 -47.3225174 156.1828918
vertex 15.53061676 -50.1576767 149.4051971

endloop
endfacet
facet normal 0.8672686815 0.0488987416 -0.4954331517
outer loop
vertex 11.619133 -34.0246048 144.1503601
vertex 15.53061676 -50.1576767 149.4051971
vertex 8.038276672 -37.35889435 137.552887

endloop
endfacet
facet normal 0.8879846931 0.1052625179 -0.4476638436
outer loop
vertex 8.038276672 -37.35889435 137.552887
vertex 15.53061676 -50.1576767 149.4051971
vertex 12.49224091 -52.97483063 142.7158661

endloop
endfacet
facet normal 0.8735477924 0.09106764197 -0.4781432748
outer loop
vertex 8.038276672 -37.35889435 137.552887
vertex 12.49224091 -52.97483063 142.7158661
vertex 5.132804871 -42.65877533 131.2352905

endloop
endfacet
facet normal 0.8934050798 0.1785874069 -0.412230283
outer loop
vertex 5.132804871 -42.65877533 131.2352905
vertex 12.49224091 -52.97483063 142.7158661
vertex 9.999687195 -56.56774139 135.7573547

endloop
endfacet
facet normal 0.9186289907 0.2133026868 -0.3326000273
outer loop
vertex 5.132804871 -42.65877533 131.2352905
vertex 9.999687195 -56.56774139 135.7573547
vertex 3.269126892 -48.2564621 122.4979782

endloop
endfacet
facet normal 0.9172907472 0.2553834915 -0.3055436015
outer loop
vertex 3.269126892 -48.2564621 122.4979782
vertex 9.999687195 -56.56774139 135.7573547
vertex 8.539009094 -61.47420502 127.2711792

endloop
endfacet
facet normal 0.9357622266 0.3418780863 -0.08642008156
outer loop
vertex 3.269126892 -48.2564621 122.4979782
vertex 8.539009094 -61.47420502 127.2711792
vertex 3.927146912 -52.95366669 111.0409088

endloop
endfacet
facet normal 0.9362207651 0.3403875828 -0.08733286709
outer loop
vertex 3.927146912 -52.95366669 111.0409088
vertex 8.539009094 -61.47420502 127.2711792
vertex 9.433921814 -66.61421967 116.8311081

endloop
endfacet
facet normal 0.8642060161 0.4465966821 0.2317311466
outer loop
vertex 3.927146912 -52.95366669 111.0409088
vertex 9.433921814 -66.61421967 116.8311081
vertex 8.833732605 -56.39438629 99.37356567

endloop
endfacet
facet normal 0.8667973876 0.4427629411 0.2293977588
outer loop
vertex 8.833732605 -56.39438629 99.37356567
vertex 9.433921814 -66.61421967 116.8311081
vertex 14.07576847 -69.96083832 105.7508698

endloop
endfacet
facet normal 0.6274926066 0.5163959861 0.5827420354
outer loop
vertex 8.833732605 -56.39438629 99.37358093
vertex 14.07576847 -69.96083069 105.7508774
vertex 18.62233734 -58.05998993 90.30924988

endloop
endfacet
facet normal 0.6729094386 0.4767747223 0.5655782819
outer loop
vertex 18.62233734 -58.05998993 90.30924988
vertex 14.07576847 -69.96083069 105.7508774
vertex 22.52246857 -70.76418304 96.37844086

endloop
endfacet
facet normal 0.314132154 0.4860403836 0.815527916
outer loop
vertex 18.62233734 -58.05998993 90.30924988
vertex 22.52246857 -70.76418304 96.37844086
vertex 32.01329803 -58.24436188 85.26108551

endloop
endfacet
facet normal 0.5218628645 0.3100583553 0.7946841717
outer loop
vertex 32.01329803 -58.24436188 85.26108551
vertex 22.52246857 -70.76418304 96.37844086
vertex 32.64870453 -71.37832642 89.96823883

endloop
endfacet
facet normal 0.2678844631 0.3365092576 0.9027732015
outer loop
vertex 32.01329803 -58.24436188 85.26109314
vertex 32.64870453 -71.37832642 89.96823883
vertex 45.48874664 -59.10500336 81.58325958

endloop
endfacet
facet normal 0.264428854 0.3399418294 0.9025059342
outer loop
vertex 45.48874664 -59.10500336 81.58325958
vertex 32.64870453 -71.37832642 89.96823883
vertex 43.52561188 -72.866539 87.34192657

endloop
endfacet
facet normal -0.06986606866 0.3935472071 0.9166457057
outer loop
vertex 45.48874664 -59.10500336 81.58325958
vertex 43.52561188 -72.866539 87.34192657
vertex 59.22742462 -59.72917938 82.89839172

endloop
endfacet
facet normal -0.1961330175 0.5163730979 0.8336010575
outer loop
vertex 59.22742462 -59.72917938 82.89839172
vertex 43.52561188 -72.866539 87.34192657
vertex 55.63439178 -73.43541718 90.5433197

endloop
endfacet
facet normal -0.9625513554 0.1155365035 -0.2452469021
outer loop
vertex 59.22740936 -59.72919464 82.89839172
vertex 55.63439178 -73.43541718 90.5433197
vertex 55.62657928 -54.64785004 99.42485809

endloop
endfacet
facet normal -0.9999998808 -0.0004340277228 0
outer loop
vertex 55.62657928 -54.64785004 99.42485809
vertex 55.63439178 -73.43541718 90.5433197
vertex 55.62657928 -54.64785004 99.42486572

endloop
endfacet
endsolid
