solid 
facet normal 0.70703 -0.70703 -0.0147553
outer loop
vertex 42.69489288 -21.03054047 128.1789551
vertex 42.69490814 -21.03052521 128.1789551
vertex 53.8992691 -9.853385925 129.4833374

endloop
endfacet
facet normal 0.6424798369 -0.6842953563 0.3449051082
outer loop
vertex 53.8992691 -9.853385925 129.4833374
vertex 42.69490814 -21.03052521 128.1789551
vertex 52.36952972 -14.85715485 122.405365

endloop
endfacet
facet normal -0.6163012981 -0.574098587 0.53905797
outer loop
vertex 53.8992691 -9.853385925 129.4833374
vertex 52.36952972 -14.85715485 122.405365
vertex 61.71253204 -16.14748383 131.7129517

endloop
endfacet
facet normal -0.6588678956 -0.4562187493 0.5981283784
outer loop
vertex 61.71253204 -16.14748383 131.7129517
vertex 52.36952972 -14.85715485 122.405365
vertex 60.62474823 -22.9411087 125.3329086

endloop
endfacet
facet normal -0.9087491035 -0.1990022659 0.3668422699
outer loop
vertex 61.71253204 -16.14748383 131.7129517
vertex 60.62474823 -22.9411087 125.3329086
vertex 64.21977997 -21.46405792 135.039856

endloop
endfacet
facet normal -0.9191020131 -0.1519939154 0.3635235131
outer loop
vertex 64.21977997 -21.46405792 135.039856
vertex 60.62474823 -22.9411087 125.3329086
vertex 63.7370224 -29.73004913 130.3631744

endloop
endfacet
facet normal -0.9569837451 0.1831884831 -0.2249978483
outer loop
vertex 64.21977997 -21.46405792 135.039856
vertex 63.7370224 -29.73004913 130.3631744
vertex 62.68572235 -25.28694916 138.4521484

endloop
endfacet
facet normal -0.9907181859 0.01207759231 -0.1353946775
outer loop
vertex 62.68572235 -25.28694916 138.4521484
vertex 63.7370224 -29.73004913 130.3631744
vertex 62.79837799 -34.48891449 136.8069763

endloop
endfacet
facet normal -0.9446057081 0.04652163759 -0.3248934448
outer loop
vertex 62.68572235 -25.28694916 138.4521484
vertex 62.79837799 -34.48891449 136.8069763
vertex 61.20235443 -26.21437836 142.6321411

endloop
endfacet
facet normal -0.9713937044 -0.02083151601 -0.2365591526
outer loop
vertex 61.20235443 -26.21437836 142.6321411
vertex 62.79837799 -34.48891449 136.8069763
vertex 61.20641327 -36.43270111 143.5153046

endloop
endfacet
facet normal -0.994713366 -0.009237435646 -0.1022741273
outer loop
vertex 61.20235443 -26.21437836 142.6321564
vertex 61.20644379 -36.43268585 143.5153046
vertex 60.64826202 -25.47855377 147.9547729

endloop
endfacet
facet normal -0.9384092093 0.08763718605 -0.3342274725
outer loop
vertex 60.64826202 -25.47855377 147.9547729
vertex 61.20644379 -36.43268585 143.5153046
vertex 59.22522736 -36.28656769 149.116272

endloop
endfacet
facet normal -0.9683281779 0.1030545533 -0.2274212837
outer loop
vertex 60.64826202 -25.47855377 147.9547729
vertex 59.22522736 -36.28656769 149.116272
vertex 59.38480377 -24.73853302 153.6697388

endloop
endfacet
facet normal -0.8478547931 0.204597041 -0.4891649485
outer loop
vertex 59.38480377 -24.73853302 153.6697388
vertex 59.22522736 -36.28656769 149.116272
vertex 56.84741974 -35.62960052 153.5124359

endloop
endfacet
facet normal -0.8378099203 0.2025145888 -0.5070131421
outer loop
vertex 59.38480377 -24.73853302 153.6697388
vertex 56.84741974 -35.62960052 153.5124359
vertex 56.0772934 -25.10546112 158.9886475

endloop
endfacet
facet normal -0.7881471515 0.2377370596 -0.5677192807
outer loop
vertex 56.0772934 -25.10546112 158.9886475
vertex 56.84741974 -35.62960052 153.5124359
vertex 54.15351105 -35.87308502 157.1503448

endloop
endfacet
facet normal -0.733376205 0.2396403551 -0.6361852884
outer loop
vertex 56.0772934 -25.10546112 158.9886627
vertex 54.15351105 -35.87308502 157.1503601
vertex 51.19001007 -27.11319733 163.8663025

endloop
endfacet
facet normal -0.6905523539 0.278232336 -0.6676257849
outer loop
vertex 51.19001007 -27.11319733 163.8663025
vertex 54.15351105 -35.87308502 157.1503601
vertex 50.73574066 -37.50547028 160.0052032

endloop
endfacet
facet normal -0.555118382 0.310898751 -0.7714826465
outer loop
vertex 51.19001007 -27.11319733 163.8663025
vertex 50.73574066 -37.50547028 160.0052032
vertex 44.02080536 -31.2175827 167.3708649

endloop
endfacet
facet normal -0.5282016397 0.3448591232 -0.7759350538
outer loop
vertex 44.02080536 -31.2175827 167.3708649
vertex 50.73574066 -37.50547028 160.0052032
vertex 46.01963043 -40.24201202 161.9993591

endloop
endfacet
facet normal -0.2831066549 0.443469882 -0.850402832
outer loop
vertex 44.02080536 -31.2175827 167.3708649
vertex 46.01963043 -40.24201202 161.9993591
vertex 34.22368622 -37.22942352 167.497345

endloop
endfacet
facet normal -0.2494965494 0.5171993971 -0.8186918497
outer loop
vertex 34.22368622 -37.22942352 167.497345
vertex 46.01963043 -40.24201202 161.9993591
vertex 39.55770111 -43.83579254 161.6983032

endloop
endfacet
facet normal 0.8284890056 0.5405805111 0.1462145448
outer loop
vertex 34.22367096 -37.22945404 167.4973297
vertex 39.55768585 -43.8358078 161.6982727
vertex 34.07830048 -32.47794342 150.7538757

endloop
endfacet
facet normal 0 0.6908577681 0.7229906917
outer loop
vertex 34.07830048 -32.47794342 150.7538757
vertex 39.55768585 -43.8358078 161.6982727
vertex 34.07831573 -32.47794342 150.7538757

endloop
endfacet
facet normal -nan(ind) -nan(ind) -nan(ind)
outer loop
vertex 42.69490814 -21.03052521 128.1789551
vertex 42.69490814 -21.03052521 128.1789551
vertex 52.36952972 -14.85715485 122.405365

endloop
endfacet
facet normal 0.655452013 -0.6072861552 0.4489836395
outer loop
vertex 52.36952972 -14.85715485 122.405365
vertex 42.69490814 -21.03052521 128.1789551
vertex 49.66123199 -19.78716278 119.6908646

endloop
endfacet
facet normal -0.492716521 -0.1961310208 0.8477989435
outer loop
vertex 52.36952972 -14.85715485 122.405365
vertex 49.66123199 -19.78716278 119.6908646
vertex 60.62474823 -22.9411087 125.3329086

endloop
endfacet
facet normal -0.4819038808 -0.1232893541 0.8675069809
outer loop
vertex 60.62474823 -22.9411087 125.3329086
vertex 49.66123199 -19.78716278 119.6908646
vertex 56.95714569 -27.84854889 122.5980988

endloop
endfacet
facet normal -0.7225445509 0.1660104096 0.6710960865
outer loop
vertex 60.62474823 -22.9411087 125.3329086
vertex 56.95714569 -27.84854889 122.5980988
vertex 63.7370224 -29.73004913 130.3631744

endloop
endfacet
facet normal -0.7313252091 0.1288235337 0.6697521806
outer loop
vertex 63.7370224 -29.73004913 130.3631744
vertex 56.95714569 -27.84854889 122.5980988
vertex 60.35578156 -35.06191254 127.69664

endloop
endfacet
facet normal -0.8696957231 0.4490337074 0.2049342692
outer loop
vertex 63.7370224 -29.73004913 130.3631744
vertex 60.35578156 -35.06191254 127.69664
vertex 62.79837799 -34.48891449 136.8069763

endloop
endfacet
facet normal -0.8950480819 0.390494585 0.2154134065
outer loop
vertex 62.79837799 -34.48891449 136.8069763
vertex 60.35578156 -35.06191254 127.69664
vertex 60.02066803 -39.88459015 135.0466309

endloop
endfacet
facet normal -0.8773115277 0.4746925235 -0.07065070421
outer loop
vertex 62.79837799 -34.48891449 136.8069763
vertex 60.02066803 -39.88459015 135.0466309
vertex 61.20641327 -36.43270111 143.5153046

endloop
endfacet
facet normal -0.8052982092 0.5798441172 -0.123594217
outer loop
vertex 61.20641327 -36.43270111 143.5153046
vertex 60.02066803 -39.88459015 135.0466309
vertex 57.86577606 -41.33879852 142.26474

endloop
endfacet
facet normal -0.7575724125 0.5880613923 -0.2833156288
outer loop
vertex 61.20644379 -36.43268585 143.5153046
vertex 57.86579132 -41.33878326 142.2647552
vertex 59.22522736 -36.28656769 149.116272

endloop
endfacet
facet normal -0.6947452426 0.6378067732 -0.3324629664
outer loop
vertex 59.22522736 -36.28656769 149.116272
vertex 57.86579132 -41.33878326 142.2647552
vertex 55.60626984 -40.8607254 147.9035797

endloop
endfacet
facet normal -0.6430909038 0.6258092523 -0.4413580894
outer loop
vertex 59.22522736 -36.28656769 149.116272
vertex 55.60626984 -40.8607254 147.9035797
vertex 56.84741974 -35.62960052 153.5124359

endloop
endfacet
facet normal -0.6632250547 0.6148671508 -0.4266975224
outer loop
vertex 56.84741974 -35.62960052 153.5124359
vertex 55.60626984 -40.8607254 147.9035797
vertex 53.65085602 -40.17127228 151.9364166

endloop
endfacet
facet normal -0.6535910368 0.6137140989 -0.4429150224
outer loop
vertex 56.84741974 -35.62960052 153.5124359
vertex 53.65085602 -40.17127228 151.9364166
vertex 54.15351105 -35.87308502 157.1503448

endloop
endfacet
facet normal -0.6534959674 0.6137734056 -0.4429731071
outer loop
vertex 54.15351105 -35.87308502 157.1503448
vertex 53.65085602 -40.17127228 151.9364166
vertex 51.64296722 -40.21819305 154.8335419

endloop
endfacet
facet normal -0.6579717994 0.6132177114 -0.4370779395
outer loop
vertex 54.15351105 -35.87308502 157.1503601
vertex 51.64296722 -40.21819305 154.8335419
vertex 50.73574066 -37.50547028 160.0052032

endloop
endfacet
facet normal -0.596817553 0.6627318859 -0.4523220956
outer loop
vertex 50.73574066 -37.50547028 160.0052032
vertex 51.64296722 -40.21819305 154.8335419
vertex 49.26441193 -41.06581879 156.730011

endloop
endfacet
facet normal -0.5831212401 0.6672585607 -0.463395685
outer loop
vertex 50.73574066 -37.50547028 160.0052032
vertex 49.26441193 -41.06581879 156.730011
vertex 46.01963043 -40.24201202 161.9993591

endloop
endfacet
facet normal -0.5310543776 0.7240158319 -0.4402071238
outer loop
vertex 46.01963043 -40.24201202 161.9993591
vertex 49.26441193 -41.06581879 156.730011
vertex 46.1628952 -42.70653534 157.7730865

endloop
endfacet
facet normal -0.4123871028 0.7808226347 -0.4693109691
outer loop
vertex 46.01963043 -40.24201202 161.9993591
vertex 46.1628952 -42.70653534 157.7730865
vertex 39.55770111 -43.83579254 161.6983032

endloop
endfacet
facet normal -0.3790404201 0.8357001543 -0.3974086046
outer loop
vertex 39.55770111 -43.83579254 161.6983032
vertex 46.1628952 -42.70653534 157.7730865
vertex 41.88819122 -45.01204681 157.0020142

endloop
endfacet
facet normal 0.7691646814 0.5952119827 0.2326120734
outer loop
vertex 39.55768585 -43.8358078 161.6982727
vertex 41.88817596 -45.01206207 157.0019989
vertex 34.07831573 -32.47794342 150.7538757

endloop
endfacet
facet normal -0.624695003 0 0.7808687687
outer loop
vertex 34.07831573 -32.47794342 150.7538757
vertex 41.88817596 -45.01206207 157.0019989
vertex 34.07831573 -32.47792816 150.7538757

endloop
endfacet
facet normal 0.6382786632 -0.6382786632 0.43034935
outer loop
vertex 42.69490814 -21.03052521 128.1789551
vertex 42.69489288 -21.03054047 128.1789551
vertex 49.66123199 -19.78716278 119.6908646

endloop
endfacet
facet normal 0.6845418215 -0.5471770763 0.4816634357
outer loop
vertex 49.66123199 -19.78716278 119.6908646
vertex 42.69489288 -21.03054047 128.1789551
vertex 47.3965683 -23.39688873 118.8087082

endloop
endfacet
facet normal -0.367225945 0.003082253737 0.9301266074
outer loop
vertex 49.66123199 -19.78716278 119.6908646
vertex 47.3965683 -23.39688873 118.8087082
vertex 56.95714569 -27.84854889 122.5980988

endloop
endfacet
facet normal -0.3227998912 0.1072170958 0.940374732
outer loop
vertex 56.95714569 -27.84854889 122.5980988
vertex 47.3965683 -23.39688873 118.8087082
vertex 52.98674774 -30.91442108 121.5847473

endloop
endfacet
facet normal -0.4748416245 0.3477145731 0.8084676862
outer loop
vertex 56.95714569 -27.84854889 122.5980988
vertex 52.98674774 -30.91442108 121.5847473
vertex 60.35578156 -35.06191254 127.69664

endloop
endfacet
facet normal -0.4666910768 0.3607636392 0.8074955344
outer loop
vertex 60.35578156 -35.06191254 127.69664
vertex 52.98674774 -30.91442108 121.5847473
vertex 55.49861908 -37.89212799 126.1539001

endloop
endfacet
facet normal -0.5523397326 0.708306849 0.4395704865
outer loop
vertex 60.35578156 -35.06191254 127.69664
vertex 55.49861908 -37.89212799 126.1539001
vertex 60.02066803 -39.88459015 135.0466309

endloop
endfacet
facet normal -0.518892467 0.7391267419 0.4294675291
outer loop
vertex 60.02066803 -39.88459015 135.0466309
vertex 55.49861908 -37.89212799 126.1539001
vertex 55.14255524 -42.29567719 133.3023376

endloop
endfacet
facet normal -0.4550873935 0.8893923759 0.04332127422
outer loop
vertex 60.02066803 -39.88459015 135.0466309
vertex 55.14255524 -42.29567719 133.3023376
vertex 57.86577606 -41.33879852 142.26474

endloop
endfacet
facet normal -0.454518944 0.8896929026 0.04311649129
outer loop
vertex 57.86577606 -41.33879852 142.26474
vertex 55.14255524 -42.29567719 133.3023376
vertex 53.45418549 -43.50475311 140.4529724

endloop
endfacet
facet normal -0.3558135629 0.9083923697 -0.2195905298
outer loop
vertex 57.86579132 -41.33878326 142.2647552
vertex 53.45420074 -43.50475311 140.4529877
vertex 55.60626984 -40.8607254 147.9035797

endloop
endfacet
facet normal -0.3710646927 0.9037236571 -0.2135284841
outer loop
vertex 55.60626984 -40.8607254 147.9035797
vertex 53.45420074 -43.50475311 140.4529877
vertex 51.71378326 -42.93039703 145.9083099

endloop
endfacet
facet normal -0.3188355565 0.8964229822 -0.3078470528
outer loop
vertex 55.60626984 -40.8607254 147.9035797
vertex 51.71378326 -42.93039703 145.9083099
vertex 53.65085602 -40.17127228 151.9364166

endloop
endfacet
facet normal -0.3083388805 0.8985836506 -0.3122090399
outer loop
vertex 53.65085602 -40.17127228 151.9364166
vertex 51.71378326 -42.93039703 145.9083099
vertex 50.25551605 -42.1513443 149.5907288

endloop
endfacet
facet normal -0.3623445034 0.9015328884 -0.2365264744
outer loop
vertex 53.65085602 -40.17127228 151.9364166
vertex 50.25551605 -42.1513443 149.5907288
vertex 51.64296722 -40.21819305 154.8335419

endloop
endfacet
facet normal -0.3223582506 0.9126748443 -0.2512167096
outer loop
vertex 51.64296722 -40.21819305 154.8335419
vertex 50.25551605 -42.1513443 149.5907288
vertex 48.87351227 -41.96695709 152.0339813

endloop
endfacet
facet normal -0.4270106852 0.8939604163 -0.1360025853
outer loop
vertex 51.64296722 -40.21819305 154.8335419
vertex 48.87352753 -41.96695709 152.0339966
vertex 49.26441193 -41.06581879 156.730011

endloop
endfacet
facet normal -0.3525333703 0.92402637 -0.1479713768
outer loop
vertex 49.26441193 -41.06581879 156.730011
vertex 48.87352753 -41.96695709 152.0339966
vertex 47.37374115 -42.3169632 153.4214935

endloop
endfacet
facet normal -0.4814426005 0.8747087717 -0.05565562472
outer loop
vertex 49.26441193 -41.06581879 156.730011
vertex 47.37374115 -42.3169632 153.4214935
vertex 46.1628952 -42.70653534 157.7730865

endloop
endfacet
facet normal -0.438321203 0.8978559375 -0.04158473015
outer loop
vertex 46.1628952 -42.70653534 157.7730865
vertex 47.37374115 -42.3169632 153.4214935
vertex 45.49747467 -43.20687103 153.9841614

endloop
endfacet
facet normal -0.469663769 0.8821899891 -0.03401153907
outer loop
vertex 46.1628952 -42.70653534 157.7730865
vertex 45.49747467 -43.20687103 153.9841614
vertex 41.88819122 -45.01204681 157.0020142

endloop
endfacet
facet normal -0.4469660521 0.8945508003 0.0005282857455
outer loop
vertex 41.88819122 -45.01204681 157.0020142
vertex 45.49747467 -43.20687103 153.9841614
vertex 42.77610016 -44.56615448 153.200592

endloop
endfacet
facet normal 0.7618268728 0.5983742476 0.2481290847
outer loop
vertex 41.88817596 -45.01206207 157.0019989
vertex 42.7760849 -44.56616974 153.2005768
vertex 34.07831573 -32.47792816 150.7538757

endloop
endfacet
facet normal 0.1116758659 -0.1116758659 -0.9874497652
outer loop
vertex 34.07831573 -32.47792816 150.7538757
vertex 42.7760849 -44.56616974 153.2005768
vertex 34.07830048 -32.47794342 150.7538757

endloop
endfacet
facet normal -0.7798168063 0.3899084032 -0.4897521734
outer loop
vertex 42.69489288 -21.03055573 128.1789551
vertex 42.69490814 -21.03052521 128.1789551
vertex 47.3965683 -23.39688873 118.8087082

endloop
endfacet
facet normal 0.738581717 -0.465087533 0.4880475998
outer loop
vertex 47.3965683 -23.39688873 118.8087082
vertex 42.69490814 -21.03052521 128.1789551
vertex 45.28964996 -26.38690948 119.1478348

endloop
endfacet
facet normal -0.1693823487 0.2281008214 0.9587906599
outer loop
vertex 47.3965683 -23.39688873 118.8087082
vertex 45.28964996 -26.38690948 119.1478348
vertex 52.98674774 -30.91442108 121.5847397

endloop
endfacet
facet normal -0.07777345181 0.3667626381 0.9270579815
outer loop
vertex 52.98674774 -30.91442108 121.5847397
vertex 45.28964996 -26.38690948 119.1478348
vertex 49.0681076 -32.55290985 121.904213

endloop
endfacet
facet normal -0.1421801597 0.5059258342 0.8507783413
outer loop
vertex 52.98674774 -30.91442108 121.5847397
vertex 49.0681076 -32.55290985 121.904213
vertex 55.49863434 -37.89212799 126.1539001

endloop
endfacet
facet normal -0.1237006411 0.5224890113 0.8436251879
outer loop
vertex 55.49863434 -37.89212799 126.1539001
vertex 49.0681076 -32.55290985 121.904213
vertex 50.49802399 -38.67893219 125.907959

endloop
endfacet
facet normal -0.1580205411 0.8442165852 0.5121795535
outer loop
vertex 55.49863434 -37.89212799 126.1539001
vertex 50.49802399 -38.67893219 125.907959
vertex 55.1425705 -42.29567719 133.3023376

endloop
endfacet
facet normal -0.1652555317 0.8410133719 0.5151572824
outer loop
vertex 55.1425705 -42.29567719 133.3023376
vertex 50.49802399 -38.67893219 125.907959
vertex 50.0749588 -42.55986786 132.108017

endloop
endfacet
facet normal -0.08587106317 0.985497117 0.1463610977
outer loop
vertex 55.1425705 -42.29567719 133.3023376
vertex 50.0749588 -42.55986786 132.108017
vertex 53.45418549 -43.50476837 140.4529572

endloop
endfacet
facet normal -0.09572709352 0.9840126634 0.1501841396
outer loop
vertex 53.45418549 -43.50476837 140.4529572
vertex 50.0749588 -42.55986786 132.108017
vertex 49.03078461 -43.6263504 138.4300995

endloop
endfacet
facet normal 0.01793504879 0.9949233532 -0.09902445227
outer loop
vertex 53.45420074 -43.50475311 140.4529877
vertex 49.03079987 -43.6263504 138.4301147
vertex 51.71376801 -42.93041229 145.9083099

endloop
endfacet
facet normal 0.006419409532 0.9954620004 -0.09494309872
outer loop
vertex 51.71376801 -42.93041229 145.9083099
vertex 49.03079987 -43.6263504 138.4301147
vertex 47.75534821 -43.14829254 143.3562317

endloop
endfacet
facet normal 0.06359001249 0.9811663628 -0.1823975146
outer loop
vertex 51.71376801 -42.93041229 145.9083099
vertex 47.75534821 -43.14829254 143.3562317
vertex 50.25550079 -42.1513443 149.5907288

endloop
endfacet
facet normal 0.07215278596 0.9799652696 -0.1856392771
outer loop
vertex 50.25550079 -42.1513443 149.5907288
vertex 47.75534821 -43.14829254 143.3562317
vertex 46.5615921 -42.43875885 146.6377869

endloop
endfacet
facet normal -0.01199436374 0.9965607524 -0.0819927901
outer loop
vertex 50.25550079 -42.1513443 149.5907288
vertex 46.5615921 -42.43875885 146.6377869
vertex 48.87351227 -41.96695709 152.0339813

endloop
endfacet
facet normal 0.07324209809 0.9903130531 -0.1179648638
outer loop
vertex 48.87351227 -41.96695709 152.0339813
vertex 46.5615921 -42.43875885 146.6377869
vertex 45.65593719 -42.12827301 148.6820068

endloop
endfacet
facet normal -0.145008117 0.9851642847 0.0917820856
outer loop
vertex 48.87352753 -41.96695709 152.0339966
vertex 45.65593719 -42.12827301 148.6819916
vertex 47.37374115 -42.31697845 153.4214935

endloop
endfacet
facet normal -0.005864215083 0.9991043806 0.04190524668
outer loop
vertex 47.37374115 -42.31697845 153.4214935
vertex 45.65593719 -42.12827301 148.6819916
vertex 44.91082001 -42.1800766 149.8128204

endloop
endfacet
facet normal -0.3453933597 0.8988298774 0.2698299587
outer loop
vertex 47.37374115 -42.31697845 153.4214935
vertex 44.91082001 -42.1800766 149.8128204
vertex 45.49745941 -43.20688629 153.9841461

endloop
endfacet
facet normal -0.2751819491 0.9238293171 0.2661095262
outer loop
vertex 45.49745941 -43.20688629 153.9841461
vertex 44.91082001 -42.1800766 149.8128204
vertex 44.10478973 -42.53005219 150.1942902

endloop
endfacet
facet normal -0.4958812594 0.8048887849 0.3259688616
outer loop
vertex 45.49745941 -43.20688629 153.9841461
vertex 44.10478973 -42.53005219 150.1942902
vertex 42.77606964 -44.56616974 153.200592

endloop
endfacet
facet normal -0.4550842047 0.8176450729 0.3526398242
outer loop
vertex 42.77606964 -44.56616974 153.200592
vertex 44.10478973 -42.53005219 150.1942902
vertex 42.64136505 -43.11785126 149.6686249

endloop
endfacet
facet normal 0.7712826133 0.5986920595 0.2160806209
outer loop
vertex 42.77606964 -44.566185 153.2005768
vertex 42.64134979 -43.11786652 149.6686096
vertex 34.07828522 -32.47794342 150.7538757

endloop
endfacet
facet normal 0 -0.09835796058 0.9951511025
outer loop
vertex 34.07828522 -32.47794342 150.7538757
vertex 42.64134979 -43.11786652 149.6686096
vertex 34.07831573 -32.47794342 150.7538757

endloop
endfacet
facet normal 0.6002862453 -0.6002862453 0.5285004973
outer loop
vertex 42.69490814 -21.03052521 128.1789551
vertex 42.69489288 -21.03054047 128.1789551
vertex 45.28964996 -26.38690948 119.1478348

endloop
endfacet
facet normal 0.7968028784 -0.3908915818 0.4607700706
outer loop
vertex 45.28964996 -26.38690948 119.1478348
vertex 42.69489288 -21.03054047 128.1789551
vertex 43.31330109 -28.87586212 120.4540176

endloop
endfacet
facet normal 0.04975290596 0.4328539968 0.9000900388
outer loop
vertex 45.28964996 -26.38690948 119.1478348
vertex 43.31330109 -28.87586212 120.4540176
vertex 49.0681076 -32.55290985 121.904213

endloop
endfacet
facet normal 0.1750560105 0.5860049129 0.7911723256
outer loop
vertex 49.0681076 -32.55290985 121.904213
vertex 43.31330109 -28.87586212 120.4540176
vertex 45.65631866 -33.37877655 123.270813

endloop
endfacet
facet normal 0.1840935647 0.5674826503 0.802541554
outer loop
vertex 49.0681076 -32.55290985 121.904213
vertex 45.65631866 -33.37877655 123.270813
vertex 50.49802399 -38.67893219 125.907959

endloop
endfacet
facet normal 0.2421700209 0.6004277468 0.7621287704
outer loop
vertex 50.49802399 -38.67893219 125.907959
vertex 45.65631866 -33.37877655 123.270813
vertex 46.37136078 -38.20522308 126.8460236

endloop
endfacet
facet normal 0.2144593298 0.8212654591 0.5287061334
outer loop
vertex 50.49802399 -38.67893219 125.907959
vertex 46.37136078 -38.20522308 126.8460236
vertex 50.0749588 -42.55986786 132.108017

endloop
endfacet
facet normal 0.2039293796 0.8198862076 0.5349761844
outer loop
vertex 50.0749588 -42.55986786 132.108017
vertex 46.37136078 -38.20522308 126.8460236
vertex 46.02993011 -41.30417633 131.7255249

endloop
endfacet
facet normal 0.2726429701 0.9403142333 0.2036537081
outer loop
vertex 50.0749588 -42.55986786 132.108017
vertex 46.02993011 -41.30417633 131.7255249
vertex 49.03078461 -43.6263504 138.4300995

endloop
endfacet
facet normal 0.2973099649 0.9354931712 0.1909433454
outer loop
vertex 49.03078461 -43.6263504 138.4300995
vertex 46.02993011 -41.30417633 131.7255249
vertex 45.3914566 -42.12245941 136.7286987

endloop
endfacet
facet normal 0.3786152899 0.9255177379 0.008212250657
outer loop
vertex 49.03079987 -43.6263504 138.4301147
vertex 45.39147186 -42.12245941 136.7286987
vertex 47.75534821 -43.14829254 143.3562317

endloop
endfacet
facet normal 0.3395828009 0.9402592778 0.02441594005
outer loop
vertex 47.75534821 -43.14829254 143.3562317
vertex 45.39147186 -42.12245941 136.7286987
vertex 44.23062897 -41.81491852 141.0305634

endloop
endfacet
facet normal 0.386664927 0.9203730226 -0.05834185332
outer loop
vertex 47.75534821 -43.14829254 143.3562317
vertex 44.23062897 -41.81491852 141.0305634
vertex 46.5615921 -42.43875885 146.6377869

endloop
endfacet
facet normal 0.3255395889 0.9450463653 -0.03018655255
outer loop
vertex 46.5615921 -42.43875885 146.6377869
vertex 44.23062897 -41.81491852 141.0305634
vertex 42.98464203 -41.28733063 144.1106415

endloop
endfacet
facet normal 0.3107045293 0.9504829049 -0.006711809896
outer loop
vertex 46.5615921 -42.43875885 146.6377869
vertex 42.98464203 -41.28733063 144.1106415
vertex 45.65593719 -42.12827301 148.6820068

endloop
endfacet
facet normal 0.3742019236 0.9260883331 -0.04830435663
outer loop
vertex 45.65593719 -42.12827301 148.6820068
vertex 42.98464203 -41.28733063 144.1106415
vertex 42.25232697 -40.89855194 145.8912201

endloop
endfacet
facet normal 0.2024216205 0.9630784988 0.1774969995
outer loop
vertex 45.65593719 -42.12827301 148.6819916
vertex 42.25232697 -40.89855194 145.8912201
vertex 44.91082001 -42.1800766 149.8128204

endloop
endfacet
facet normal 0.4390311837 0.8984628916 -0.004018513486
outer loop
vertex 44.91082001 -42.1800766 149.8128204
vertex 42.25232697 -40.89855194 145.8912201
vertex 41.96297455 -40.75325775 146.763855

endloop
endfacet
facet normal -0.1236857399 0.8474985361 0.5161860585
outer loop
vertex 44.91082001 -42.1800766 149.8128204
vertex 41.96297455 -40.75325775 146.763855
vertex 44.10478973 -42.53005219 150.1942902

endloop
endfacet
facet normal 0.8231829405 0.5098254681 -0.2498955876
outer loop
vertex 44.10478973 -42.53005219 150.1942902
vertex 41.96297455 -40.75325775 146.763855
vertex 41.99695587 -40.71144867 146.9610901

endloop
endfacet
facet normal -0.4727887511 0.5997530818 0.6455749869
outer loop
vertex 44.10478973 -42.53005219 150.1942902
vertex 41.99695587 -40.71144867 146.9610901
vertex 42.64136505 -43.11785126 149.6686249

endloop
endfacet
facet normal -0.4008520544 0.6353201866 0.6600649953
outer loop
vertex 42.64136505 -43.11785126 149.6686249
vertex 41.99695587 -40.71144867 146.9610901
vertex 41.5989151 -40.66146088 146.6712494

endloop
endfacet
facet normal 0.7705750465 0.5975471139 0.2217016071
outer loop
vertex 42.64134979 -43.11786652 149.6686096
vertex 41.59889984 -40.66147614 146.6712341
vertex 34.07831573 -32.47794342 150.7538757

endloop
endfacet
facet normal -nan(ind) -nan(ind) -nan(ind)
outer loop
vertex 34.07831573 -32.47794342 150.7538757
vertex 41.59889984 -40.66147614 146.6712341
vertex 34.07831573 -32.47794342 150.7538757

endloop
endfacet
facet normal -nan(ind) -nan(ind) -nan(ind)
outer loop
vertex 42.69489288 -21.03054047 128.1789551
vertex 42.69489288 -21.03054047 128.1789551
vertex 43.31330109 -28.87586212 120.4540176

endloop
endfacet
facet normal 0.8625610471 -0.3188335598 0.3928532302
outer loop
vertex 43.31330109 -28.87586212 120.4540176
vertex 42.69489288 -21.03054047 128.1789551
vertex 41.58568573 -30.94805145 122.5654678

endloop
endfacet
facet normal 0.2236392647 0.5978850722 0.7697523832
outer loop
vertex 43.31330109 -28.87586212 120.4540176
vertex 41.58568573 -30.94805145 122.5654678
vertex 45.65631866 -33.37877655 123.270813

endloop
endfacet
facet normal 0.3021740317 0.6952747703 0.6521378756
outer loop
vertex 45.65631866 -33.37877655 123.270813
vertex 41.58568573 -30.94805145 122.5654678
vertex 43.00658417 -34.08138275 125.247673

endloop
endfacet
facet normal 0.3786664605 0.5864788294 0.7159987092
outer loop
vertex 45.65631866 -33.37877655 123.270813
vertex 43.00658417 -34.08138275 125.247673
vertex 46.37136078 -38.20522308 126.8460236

endloop
endfacet
facet normal 0.5119544268 0.6398599744 0.5731334686
outer loop
vertex 46.37136078 -38.20522308 126.8460236
vertex 43.00658417 -34.08138275 125.247673
vertex 43.59033966 -37.42501068 128.459137

endloop
endfacet
facet normal 0.4877324998 0.7210872173 0.492087692
outer loop
vertex 46.37136078 -38.20522308 126.8460236
vertex 43.59033966 -37.42501068 128.459137
vertex 46.02993011 -41.30417633 131.7255249

endloop
endfacet
facet normal 0.526319921 0.7165064216 0.457827419
outer loop
vertex 46.02993011 -41.30417633 131.7255249
vertex 43.59033966 -37.42501068 128.459137
vertex 43.27747345 -39.56606293 132.1695862

endloop
endfacet
facet normal 0.5460181832 0.8128989935 0.2026313394
outer loop
vertex 46.02993011 -41.30417633 131.7255249
vertex 43.27747345 -39.56606293 132.1695862
vertex 45.3914566 -42.12245941 136.7286987

endloop
endfacet
facet normal 0.5274108648 0.8216506839 0.2161664069
outer loop
vertex 45.3914566 -42.12245941 136.7286987
vertex 43.27747345 -39.56606293 132.1695862
vertex 42.5051651 -40.10198212 136.0909271

endloop
endfacet
facet normal 0.5574365258 0.8251695633 0.09143078327
outer loop
vertex 45.39147186 -42.12245941 136.7286987
vertex 42.50518036 -40.10198212 136.0909271
vertex 44.23062897 -41.81491852 141.0305634

endloop
endfacet
facet normal 0.5423539281 0.8341979384 0.09983006865
outer loop
vertex 44.23062897 -41.81491852 141.0305634
vertex 42.50518036 -40.10198212 136.0909271
vertex 41.36232758 -39.80764008 139.84021

endloop
endfacet
facet normal 0.5491413474 0.8319259286 0.079643704
outer loop
vertex 44.23062897 -41.81491852 141.0305634
vertex 41.36232758 -39.80764008 139.84021
vertex 42.98464203 -41.28733063 144.1106415

endloop
endfacet
facet normal 0.5556340814 0.8279640675 0.07580436021
outer loop
vertex 42.98464203 -41.28733063 144.1106415
vertex 41.36232758 -39.80764008 139.84021
vertex 40.1240921 -39.24982452 142.8236084

endloop
endfacet
facet normal 0.5637791157 0.8242939115 0.05189105868
outer loop
vertex 42.98464203 -41.28733063 144.1106415
vertex 40.1240921 -39.24982452 142.8236084
vertex 42.25232697 -40.89855194 145.8912201

endloop
endfacet
facet normal 0.5744732022 0.8175047636 0.0408228375
outer loop
vertex 42.25232697 -40.89855194 145.8912201
vertex 40.1240921 -39.24982452 142.8236084
vertex 39.21193695 -38.69890594 144.6272583

endloop
endfacet
facet normal 0.570822835 0.8193705678 0.05285058916
outer loop
vertex 42.25232697 -40.89855194 145.8912201
vertex 39.21193695 -38.69890594 144.6272583
vertex 41.96297455 -40.75325775 146.763855

endloop
endfacet
facet normal 0.6552222967 0.7445549369 -0.1277561337
outer loop
vertex 41.96297455 -40.75325775 146.763855
vertex 39.21193695 -38.69890594 144.6272583
vertex 38.96312714 -38.35007477 145.3841553

endloop
endfacet
facet normal 0.6739473939 0.6905720234 -0.2624978721
outer loop
vertex 41.96297455 -40.75325775 146.763855
vertex 38.96312714 -38.35007477 145.3841553
vertex 41.99695587 -40.71144867 146.9610901

endloop
endfacet
facet normal 0.3273228407 -0.1966626644 -0.924220562
outer loop
vertex 41.99695587 -40.71144867 146.9610901
vertex 38.96312714 -38.35007477 145.3841553
vertex 39.54772186 -38.0056839 145.5179138

endloop
endfacet
facet normal -0.5941098332 -0.1130024418 0.7964068651
outer loop
vertex 41.99695587 -40.71144867 146.9610901
vertex 39.54772186 -38.0056839 145.5179138
vertex 41.5989151 -40.66146088 146.6712494

endloop
endfacet
facet normal 0.1430034339 -0.2992451787 -0.9433994293
outer loop
vertex 41.5989151 -40.66146088 146.6712494
vertex 39.54772186 -38.0056839 145.5179138
vertex 40.15348053 -37.57415009 145.4728546

endloop
endfacet
facet normal 0.7667164803 0.5102136731 0.3896509707
outer loop
vertex 41.59889984 -40.66147614 146.6712341
vertex 40.15346527 -37.57416534 145.4728546
vertex 34.07831573 -32.47794342 150.7538757

endloop
endfacet
facet normal 0 0.7155742049 -0.6985367537
outer loop
vertex 34.07831573 -32.47794342 150.7538757
vertex 40.15346527 -37.57416534 145.4728546
vertex 34.07830048 -32.47794342 150.7538757

endloop
endfacet
facet normal -nan(ind) -nan(ind) -nan(ind)
outer loop
vertex 42.69489288 -21.03054047 128.1789551
vertex 42.69489288 -21.03054047 128.1789551
vertex 41.58568573 -30.94805145 122.5654678

endloop
endfacet
facet normal 0.9135377407 -0.2728968561 0.3016226292
outer loop
vertex 41.58568573 -30.94805145 122.5654678
vertex 42.69489288 -21.03054047 128.1789551
vertex 40.26303864 -32.00003815 125.6196289

endloop
endfacet
facet normal 0.5712454915 0.667683363 0.4773652554
outer loop
vertex 41.58568573 -30.94805145 122.5654678
vertex 40.26303864 -32.00003815 125.6196289
vertex 43.00658417 -34.08138275 125.247673

endloop
endfacet
facet normal 0.6048628688 0.7489509583 0.2705796361
outer loop
vertex 43.00658417 -34.08138275 125.247673
vertex 40.26303864 -32.00003815 125.6196289
vertex 41.210289 -33.52437592 127.721405

endloop
endfacet
facet normal 0.7386268973 0.529576242 0.4171083272
outer loop
vertex 43.00658417 -34.08138275 125.247673
vertex 41.210289 -33.52437592 127.721405
vertex 43.59033966 -37.42501068 128.459137

endloop
endfacet
facet normal 0.8178892732 0.5377550125 0.2046379596
outer loop
vertex 43.59033966 -37.42501068 128.459137
vertex 41.210289 -33.52437592 127.721405
vertex 41.8473587 -35.47115326 130.2910004

endloop
endfacet
facet normal 0.8363938332 0.4412716627 0.3251533508
outer loop
vertex 43.59033966 -37.42501068 128.459137
vertex 41.8473587 -35.47115326 130.2910004
vertex 43.27747345 -39.56606293 132.1695862

endloop
endfacet
facet normal 0.8108897209 0.4530990422 0.3703499734
outer loop
vertex 43.27747345 -39.56606293 132.1695862
vertex 41.8473587 -35.47115326 130.2910004
vertex 41.53151703 -37.23664093 133.1425018

endloop
endfacet
facet normal 0.8223650455 0.5191040039 0.2329094112
outer loop
vertex 43.27747345 -39.56606293 132.1695862
vertex 41.53151703 -37.23664093 133.1425018
vertex 42.5051651 -40.10198212 136.0909271

endloop
endfacet
facet normal 0.7974913716 0.5425494313 0.2639080882
outer loop
vertex 42.5051651 -40.10198212 136.0909271
vertex 41.53151703 -37.23664093 133.1425018
vertex 40.76833344 -37.63132477 136.2601318

endloop
endfacet
facet normal 0.8075784445 0.5538371205 0.2026856244
outer loop
vertex 42.50518036 -40.10198212 136.0909271
vertex 40.76833344 -37.63132477 136.2601471
vertex 41.36232758 -39.80764008 139.84021

endloop
endfacet
facet normal 0.7919261456 0.5711983442 0.2158364654
outer loop
vertex 41.36232758 -39.80764008 139.84021
vertex 40.76833344 -37.63132477 136.2601471
vertex 39.54692841 -37.17186737 139.5256805

endloop
endfacet
facet normal 0.7905851603 0.5709358454 0.2213763297
outer loop
vertex 41.36232758 -39.80764008 139.84021
vertex 39.54692841 -37.17186737 139.5256805
vertex 40.1240921 -39.24982452 142.8236084

endloop
endfacet
facet normal 0.7907841802 0.5707250834 0.2212086916
outer loop
vertex 40.1240921 -39.24982452 142.8236084
vertex 39.54692841 -37.17186737 139.5256805
vertex 38.17681122 -36.44384003 142.5452881

endloop
endfacet
facet normal 0.7898432612 0.5704678297 0.2251979709
outer loop
vertex 40.1240921 -39.24982452 142.8236084
vertex 38.17681122 -36.44384003 142.5452881
vertex 39.21193695 -38.69890594 144.6272583

endloop
endfacet
facet normal 0.8031337261 0.5589933991 0.2061616778
outer loop
vertex 39.21193695 -38.69890594 144.6272583
vertex 38.17681122 -36.44384003 142.5452881
vertex 37.13045502 -35.74428558 144.7247314

endloop
endfacet
facet normal 0.8175551891 0.5758404732 0.003361969953
outer loop
vertex 39.21193695 -38.69890594 144.6272583
vertex 37.13045502 -35.74427032 144.7247314
vertex 38.96312714 -38.35007477 145.3841553

endloop
endfacet
facet normal 0.8122586012 0.5818077326 0.04166289046
outer loop
vertex 38.96312714 -38.35007477 145.3841553
vertex 37.13045502 -35.74427032 144.7247314
vertex 36.70204926 -35.21285248 145.6558533

endloop
endfacet
facet normal 0.1219798028 0.1725628376 -0.9774165154
outer loop
vertex 38.96312714 -38.35007477 145.3841553
vertex 36.70204926 -35.21285248 145.6558533
vertex 39.54772186 -38.0056839 145.5179138

endloop
endfacet
facet normal 0.1693212539 0.2199742943 -0.9606984854
outer loop
vertex 39.54772186 -38.0056839 145.5179138
vertex 36.70204926 -35.21285248 145.6558533
vertex 37.29228973 -34.65198517 145.8883057

endloop
endfacet
facet normal -0.1028494686 0.04059716687 -0.9938681126
outer loop
vertex 39.54772186 -38.0056839 145.5179138
vertex 37.29228973 -34.65198517 145.8883057
vertex 40.15348053 -37.57415009 145.4728546

endloop
endfacet
facet normal 0.005197572988 0.1457415074 -0.9893090129
outer loop
vertex 40.15348053 -37.57415009 145.4728546
vertex 37.29228973 -34.65198517 145.8883057
vertex 38.25101471 -34.0759964 145.9781952

endloop
endfacet
facet normal 0.7622820735 0.3345245719 0.5540932417
outer loop
vertex 40.15346527 -37.57416534 145.4728546
vertex 38.25099945 -34.07601166 145.9781799
vertex 34.07830048 -32.47794342 150.7538757

endloop
endfacet
facet normal -nan(ind) -nan(ind) -nan(ind)
outer loop
vertex 34.07830048 -32.47794342 150.7538757
vertex 38.25099945 -34.07601166 145.9781799
vertex 34.07830048 -32.47794342 150.7538757

endloop
endfacet
facet normal -nan(ind) -nan(ind) -nan(ind)
outer loop
vertex 42.69489288 -21.03054047 128.1789551
vertex 42.69489288 -21.03054047 128.1789551
vertex 40.26303864 -32.00003815 125.6196289

endloop
endfacet
facet normal 0.9539264441 -0.2501375079 0.1656970829
outer loop
vertex 40.26303864 -32.00003815 125.6196289
vertex 42.69489288 -21.03054047 128.1789551
vertex 39.697258 -31.66362762 129.3847046

endloop
endfacet
facet normal 0.8028680086 0.5922973156 0.06772564352
outer loop
vertex 40.26303864 -32.00003815 125.6196289
vertex 39.697258 -31.66362762 129.3847046
vertex 41.210289 -33.52437592 127.721405

endloop
endfacet
facet normal 0.6662957668 0.718885839 -0.1981239766
outer loop
vertex 41.210289 -33.52437592 127.721405
vertex 39.697258 -31.66362762 129.3847046
vertex 40.33116913 -31.91187286 130.6158142

endloop
endfacet
facet normal 0.9202014804 0.3861136436 0.06438552588
outer loop
vertex 41.210289 -33.52437592 127.721405
vertex 40.33116913 -31.91187286 130.6158142
vertex 41.8473587 -35.47115326 130.2910004

endloop
endfacet
facet normal 0.9069185853 0.3987441361 -0.1360213906
outer loop
vertex 41.8473587 -35.47115326 130.2910004
vertex 40.33116913 -31.91187286 130.6158142
vertex 40.91466522 -32.73026276 132.1071625

endloop
endfacet
facet normal 0.9588065147 0.1814568639 0.2185483575
outer loop
vertex 41.8473587 -35.47115326 130.2910004
vertex 40.91466522 -32.73026276 132.1071625
vertex 41.53151703 -37.23664093 133.1425018

endloop
endfacet
facet normal 0.9182661772 0.2037065327 0.3395452201
outer loop
vertex 41.53151703 -37.23664093 133.1425018
vertex 40.91466522 -32.73026276 132.1071625
vertex 40.4877243 -34.01604462 134.0331726

endloop
endfacet
facet normal 0.9375602603 0.2322585583 0.2589143813
outer loop
vertex 41.53151703 -37.23664093 133.1425018
vertex 40.4877243 -34.01604462 134.0331726
vertex 40.76833344 -37.63132477 136.2601318

endloop
endfacet
facet normal 0.9226235747 0.25165838 0.2922904789
outer loop
vertex 40.76833344 -37.63132477 136.2601318
vertex 40.4877243 -34.01604462 134.0331726
vertex 39.79512787 -34.17014313 136.3520508

endloop
endfacet
facet normal 0.9179204106 0.2499105334 0.3081668913
outer loop
vertex 40.76833344 -37.63132477 136.2601471
vertex 39.79514313 -34.17012787 136.3520508
vertex 39.54692841 -37.17186737 139.5256805

endloop
endfacet
facet normal 0.9150323868 0.2548866272 0.3126475811
outer loop
vertex 39.54692841 -37.17186737 139.5256805
vertex 39.79514313 -34.17012787 136.3520508
vertex 38.61594391 -33.50922394 139.2644348

endloop
endfacet
facet normal 0.9023246765 0.2541878223 0.3481362462
outer loop
vertex 39.54692841 -37.17186737 139.5256805
vertex 38.61594391 -33.50922394 139.2644348
vertex 38.17681122 -36.44384003 142.5452881

endloop
endfacet
facet normal 0.9115384221 0.238281101 0.3351414204
outer loop
vertex 38.17681122 -36.44384003 142.5452881
vertex 38.61594391 -33.50922394 139.2644348
vertex 37.17472076 -32.59661102 142.5355072

endloop
endfacet
facet normal 0.9033883214 0.2362160832 0.3578987122
outer loop
vertex 38.17681122 -36.44384003 142.5452881
vertex 37.17472076 -32.59661102 142.5355072
vertex 37.13045502 -35.74428558 144.7247314

endloop
endfacet
facet normal 0.9140584469 0.2228387296 0.3388804495
outer loop
vertex 37.13045502 -35.74428558 144.7247314
vertex 37.17472076 -32.59661102 142.5355072
vertex 35.94353485 -31.7349472 145.2897644

endloop
endfacet
facet normal 0.9270989895 0.2330923676 0.2935223877
outer loop
vertex 37.13045502 -35.74427032 144.7247314
vertex 35.94353485 -31.7349472 145.2897644
vertex 36.70204926 -35.21285248 145.6558533

endloop
endfacet
facet normal 0.8792689443 0.2353549749 0.4141185284
outer loop
vertex 36.70204926 -35.21285248 145.6558533
vertex 35.94353485 -31.7349472 145.2897644
vertex 35.15116119 -31.05489349 146.5856628

endloop
endfacet
facet normal 0.1280733943 0.2616906464 -0.9566165209
outer loop
vertex 36.70204926 -35.21285248 145.6558533
vertex 35.15116119 -31.05489349 146.5856628
vertex 37.29228973 -34.65198517 145.8883057

endloop
endfacet
facet normal 0.5278849006 0.4534416199 -0.718142271
outer loop
vertex 37.29228973 -34.65198517 145.8883057
vertex 35.15116119 -31.05489349 146.5856628
vertex 35.35605621 -30.51628876 147.076355

endloop
endfacet
facet normal -0.0594592914 0.2497977465 -0.966470778
outer loop
vertex 37.29228973 -34.65198517 145.8883057
vertex 35.35605621 -30.51628876 147.076355
vertex 38.25101471 -34.0759964 145.9781952

endloop
endfacet
facet normal 0.001404668088 0.2958309948 -0.955239296
outer loop
vertex 38.25101471 -34.0759964 145.9781952
vertex 35.35605621 -30.51628876 147.076355
vertex 36.06856537 -30.17053986 147.1844788

endloop
endfacet
facet normal 0.7691274881 0.2478555888 0.589075923
outer loop
vertex 38.25099945 -34.07601166 145.9781799
vertex 36.06855011 -30.17055511 147.1844635
vertex 34.07830048 -32.47794342 150.7538757

endloop
endfacet
facet normal -nan(ind) -nan(ind) -nan(ind)
outer loop
vertex 34.07830048 -32.47794342 150.7538757
vertex 36.06855011 -30.17055511 147.1844635
vertex 34.07830048 -32.47794342 150.7538757

endloop
endfacet
facet normal 0.9414610267 -0.2383812368 0.2383812368
outer loop
vertex 42.69489288 -21.03054047 128.1789551
vertex 42.69489288 -21.03052521 128.1789703
vertex 39.697258 -31.66362762 129.3847046

endloop
endfacet
facet normal 0.9628466964 -0.2664781511 0.04376861826
outer loop
vertex 39.697258 -31.66362762 129.3847046
vertex 42.69489288 -21.03052521 128.1789703
vertex 40.01204681 -29.86199188 133.428772

endloop
endfacet
facet normal 0.7906745076 0.5340086222 -0.2994471788
outer loop
vertex 39.697258 -31.66362762 129.3847046
vertex 40.01204681 -29.86199188 133.428772
vertex 40.33116913 -31.91187286 130.6158142

endloop
endfacet
facet normal 0.4166842401 0.756524384 -0.5040287971
outer loop
vertex 40.33116913 -31.91187286 130.6158142
vertex 40.01204681 -29.86199188 133.428772
vertex 40.11820221 -29.58071136 133.9387207

endloop
endfacet
facet normal 0.9247897267 0.3367972374 -0.1770074368
outer loop
vertex 40.33116913 -31.91187286 130.6158142
vertex 40.11820221 -29.58071136 133.9387207
vertex 40.91466522 -32.73026276 132.1071625

endloop
endfacet
facet normal 0.423995167 0.5330179334 -0.7322021127
outer loop
vertex 40.91466522 -32.73026276 132.1071625
vertex 40.11820221 -29.58071136 133.9387207
vertex 40.68683624 -29.67328644 134.2006073

endloop
endfacet
facet normal 0.9817575216 -0.05206333846 0.1828704476
outer loop
vertex 40.91466522 -32.73026276 132.1071625
vertex 40.68683624 -29.67328644 134.2006073
vertex 40.4877243 -34.01604462 134.0331726

endloop
endfacet
facet normal 0.9961012602 -0.04269404709 -0.07719860971
outer loop
vertex 40.4877243 -34.01604462 134.0331726
vertex 40.68683624 -29.67328644 134.2006073
vertex 40.72356415 -30.1445694 134.9351501

endloop
endfacet
facet normal 0.9531612992 -0.1224941611 0.2765475214
outer loop
vertex 40.4877243 -34.01604462 134.0331726
vertex 40.72356415 -30.1445694 134.9351501
vertex 39.79512787 -34.17014313 136.3520508

endloop
endfacet
facet normal 0.9546554089 -0.1250870377 0.2701598406
outer loop
vertex 39.79512787 -34.17014313 136.3520508
vertex 40.72356415 -30.1445694 134.9351501
vertex 40.29453278 -30.00279999 136.5168457

endloop
endfacet
facet normal 0.9095103741 -0.1246724278 0.3965446949
outer loop
vertex 39.79514313 -34.17012787 136.3520508
vertex 40.29453278 -30.00276947 136.516861
vertex 38.61594391 -33.50922394 139.2644348

endloop
endfacet
facet normal 0.9106538892 -0.1281620115 0.3927898705
outer loop
vertex 38.61594391 -33.50922394 139.2644348
vertex 40.29453278 -30.00276947 136.516861
vertex 39.19742584 -29.26995087 139.29953

endloop
endfacet
facet normal 0.8943216801 -0.1262236536 0.4292508066
outer loop
vertex 38.61594391 -33.50922394 139.2644348
vertex 39.19742584 -29.26995087 139.29953
vertex 37.17472076 -32.59661102 142.5355072

endloop
endfacet
facet normal 0.8863099813 -0.09880581498 0.4524291456
outer loop
vertex 37.17472076 -32.59661102 142.5355072
vertex 39.19742584 -29.26995087 139.29953
vertex 37.51398468 -28.26026154 142.8179016

endloop
endfacet
facet normal 0.896707058 -0.09826146811 0.4315797389
outer loop
vertex 37.17472076 -32.59661102 142.5355072
vertex 37.51398468 -28.26026154 142.8179016
vertex 35.94353485 -31.7349472 145.2897644

endloop
endfacet
facet normal 0.8582033515 -0.02308632433 0.5127904415
outer loop
vertex 35.94353485 -31.7349472 145.2897644
vertex 37.51398468 -28.26026154 142.8179016
vertex 35.67508698 -27.27960968 145.939621

endloop
endfacet
facet normal 0.8465988636 -0.02652473934 0.5315701365
outer loop
vertex 35.94353485 -31.7349472 145.2897644
vertex 35.67508698 -27.27960968 145.939621
vertex 35.15116119 -31.05489349 146.5856628

endloop
endfacet
facet normal 0.778229475 -0.0005385707482 0.627979815
outer loop
vertex 35.15116119 -31.05489349 146.5856628
vertex 35.67508698 -27.27960968 145.939621
vertex 34.26717377 -26.55321503 147.6850128

endloop
endfacet
facet normal 0.7227618694 0.2945977151 -0.6251620054
outer loop
vertex 35.15116119 -31.05489349 146.5856628
vertex 34.26717377 -26.55321503 147.6850128
vertex 35.35605621 -30.51628876 147.076355

endloop
endfacet
facet normal 0.8679959178 0.1666462719 0.4677735269
outer loop
vertex 35.35605621 -30.51628876 147.076355
vertex 34.26717377 -26.55321503 147.6850128
vertex 33.77600861 -26.09236908 148.4322357

endloop
endfacet
facet normal 0.002464784076 0.2938379943 -0.9558520317
outer loop
vertex 35.35605621 -30.51628876 147.076355
vertex 33.77600861 -26.09236908 148.4322357
vertex 36.06856537 -30.17053986 147.1844788

endloop
endfacet
facet normal -0.8797998428 -0.4662138522 -0.09271945804
outer loop
vertex 36.06856537 -30.17053986 147.1844788
vertex 33.77600861 -26.09236908 148.4322357
vertex 33.71837616 -25.94944 148.2604218

endloop
endfacet
facet normal 0.756531775 0.2693170905 0.5959261656
outer loop
vertex 36.06855011 -30.17055511 147.1844635
vertex 33.7183609 -25.94947052 148.2604065
vertex 34.07830048 -32.47794342 150.7538757

endloop
endfacet
facet normal -nan(ind) -nan(ind) -nan(ind)
outer loop
vertex 34.07830048 -32.47794342 150.7538757
vertex 33.7183609 -25.94947052 148.2604065
vertex 34.07830048 -32.47794342 150.7538757

endloop
endfacet
facet normal -0.9655640125 0.1839649379 -0.1839649379
outer loop
vertex 42.69489288 -21.03052521 128.1789703
vertex 42.69489288 -21.03054047 128.1789551
vertex 40.01204681 -29.86199188 133.428772

endloop
endfacet
facet normal 0.9525045156 -0.3035825491 -0.02393444441
outer loop
vertex 40.01204681 -29.86199188 133.428772
vertex 42.69489288 -21.03054047 128.1789551
vertex 41.10413361 -26.71651459 136.9929047

endloop
endfacet
facet normal 0.9577859044 -0.2843149602 -0.0425565131
outer loop
vertex 40.01204681 -29.86199188 133.428772
vertex 41.10413361 -26.71651459 136.9929047
vertex 40.11820221 -29.58071136 133.9387207

endloop
endfacet
facet normal 0.09342563152 -0.7411108613 0.6648505926
outer loop
vertex 40.11820221 -29.58071136 133.9387207
vertex 41.10413361 -26.71651459 136.9929047
vertex 40.61678314 -26.36293793 137.4555206

endloop
endfacet
facet normal 0.4036237299 0.6457927823 -0.6481045485
outer loop
vertex 40.11820221 -29.58071136 133.9387207
vertex 40.61678314 -26.36293793 137.4555206
vertex 40.68683624 -29.67328644 134.2006073

endloop
endfacet
facet normal -0.7185815573 0.4797917604 -0.5034287572
outer loop
vertex 40.68683624 -29.67328644 134.2006073
vertex 40.61678314 -26.36293793 137.4555206
vertex 41.24626923 -26.08245087 136.8243256

endloop
endfacet
facet normal 0.9915988445 -0.08051371574 -0.101238586
outer loop
vertex 40.68683624 -29.67328644 134.2006073
vertex 41.24626923 -26.08245087 136.8243256
vertex 40.72356415 -30.1445694 134.9351501

endloop
endfacet
facet normal -0.3468798995 0.431843847 -0.832577467
outer loop
vertex 40.72356415 -30.1445694 134.9351501
vertex 41.24626923 -26.08245087 136.8243256
vertex 42.38263702 -26.06491852 136.3599701

endloop
endfacet
facet normal 0.8547280431 -0.4424130023 0.2714970708
outer loop
vertex 40.72356415 -30.1445694 134.9351501
vertex 42.38263702 -26.06491852 136.3599701
vertex 40.29453278 -30.00279999 136.5168457

endloop
endfacet
facet normal 0.8583859801 -0.4638941884 -0.2190334648
outer loop
vertex 40.29453278 -30.00279999 136.5168457
vertex 42.38263702 -26.06491852 136.3599701
vertex 42.66478729 -26.02742767 137.3863068

endloop
endfacet
facet normal 0.7319309115 -0.5300501585 0.4281634092
outer loop
vertex 40.29453278 -30.00276947 136.516861
vertex 42.66480255 -26.02741241 137.3863068
vertex 39.19742584 -29.26995087 139.29953

endloop
endfacet
facet normal 0.7290250659 -0.5105991364 0.4558628201
outer loop
vertex 39.19742584 -29.26995087 139.29953
vertex 42.66480255 -26.02741241 137.3863068
vertex 41.45154572 -25.34056854 140.0958862

endloop
endfacet
facet normal 0.711886704 -0.5068923235 0.4860837162
outer loop
vertex 39.19742584 -29.26995087 139.29953
vertex 41.45154572 -25.34056854 140.0958862
vertex 37.51398468 -28.26026154 142.8179016

endloop
endfacet
facet normal 0.7020248771 -0.3932087123 0.5937575102
outer loop
vertex 37.51398468 -28.26026154 142.8179016
vertex 41.45154572 -25.34056854 140.0958862
vertex 39.06952667 -24.23867035 143.6419678

endloop
endfacet
facet normal 0.7310772538 -0.3965502083 0.5552241802
outer loop
vertex 37.51398468 -28.26026154 142.8179016
vertex 39.06952667 -24.23867035 143.6419678
vertex 35.67508698 -27.27960968 145.939621

endloop
endfacet
facet normal 0.700098753 -0.2876995206 0.6535217762
outer loop
vertex 35.67508698 -27.27960968 145.939621
vertex 39.06952667 -24.23867035 143.6419678
vertex 36.39780426 -23.33887482 146.9002228

endloop
endfacet
facet normal 0.6828691363 -0.2888073325 0.6710290313
outer loop
vertex 35.67508698 -27.27960968 145.939621
vertex 36.39780426 -23.33887482 146.9002228
vertex 34.26717377 -26.55321503 147.6850128

endloop
endfacet
facet normal 0.6626759768 -0.2685704231 0.6990926266
outer loop
vertex 34.26717377 -26.55321503 147.6850128
vertex 36.39780426 -23.33887482 146.9002228
vertex 34.24030304 -22.79137421 149.1556702

endloop
endfacet
facet normal 0.7354949713 -0.2421290874 0.6327880621
outer loop
vertex 34.26717377 -26.55321503 147.6850128
vertex 34.24030304 -22.79137421 149.1556702
vertex 33.77600861 -26.09236908 148.4322357

endloop
endfacet
facet normal 0.4376622736 -0.2507904172 0.863455832
outer loop
vertex 33.77600861 -26.09236908 148.4322357
vertex 34.24030304 -22.79137421 149.1556702
vertex 32.73413849 -22.34752655 150.0480194

endloop
endfacet
facet normal -0.9522849321 -0.2963826656 0.07287435234
outer loop
vertex 33.77600861 -26.09236908 148.4322357
vertex 32.73413849 -22.34752655 150.0480194
vertex 33.71837616 -25.94944 148.2604218

endloop
endfacet
facet normal -0.4068034589 -0.4928795397 0.7691428661
outer loop
vertex 33.71837616 -25.94944 148.2604218
vertex 32.73413849 -22.34752655 150.0480194
vertex 31.37653351 -22.26590729 149.3822784

endloop
endfacet
facet normal 0.7335606217 0.2774093747 0.6204295158
outer loop
vertex 33.7183609 -25.94947052 148.2604065
vertex 31.37651825 -22.26592255 149.3822632
vertex 34.07830048 -32.47794342 150.7538757

endloop
endfacet
facet normal -nan(ind) -nan(ind) -nan(ind)
outer loop
vertex 34.07830048 -32.47794342 150.7538757
vertex 31.37651825 -22.26592255 149.3822632
vertex 34.07830048 -32.47794342 150.7538757

endloop
endfacet
facet normal -0 0.8403159976 0.5420969129
outer loop
vertex 42.69489288 -21.03054047 128.1789551
vertex 42.69487762 -21.03054047 128.1789551
vertex 41.10413361 -26.71651459 136.9929047

endloop
endfacet
facet normal 0.9187415242 -0.3859955668 -0.08319517225
outer loop
vertex 41.10413361 -26.71651459 136.9929047
vertex 42.69487762 -21.03054047 128.1789551
vertex 42.94991302 -22.79430389 139.1785889

endloop
endfacet
facet normal 0.3092952669 -0.5698181391 0.7613433599
outer loop
vertex 41.10413361 -26.71651459 136.9929047
vertex 42.94991302 -22.79430389 139.1785889
vertex 40.61678314 -26.36293793 137.4555206

endloop
endfacet
facet normal 0.7746990323 -0.601161778 0.1960762739
outer loop
vertex 40.61678314 -26.36293793 137.4555206
vertex 42.94991302 -22.79430389 139.1785889
vertex 42.67923737 -22.77971649 140.2927551

endloop
endfacet
facet normal -0.6564215422 0.6629248857 -0.360057354
outer loop
vertex 40.61678314 -26.36293793 137.4555206
vertex 42.67923737 -22.77971649 140.2927551
vertex 41.24626923 -26.08245087 136.8243256

endloop
endfacet
facet normal -0.8918426037 0.4485289156 -0.05864033476
outer loop
vertex 41.24626923 -26.08245087 136.8243256
vertex 42.67923737 -22.77971649 140.2927551
vertex 43.02256012 -22.22776031 139.2930756

endloop
endfacet
facet normal -0.307877928 0.6096727252 -0.7304178476
outer loop
vertex 41.24626923 -26.08245087 136.8243256
vertex 43.02256012 -22.22776031 139.2930756
vertex 42.38263702 -26.06491852 136.3599701

endloop
endfacet
facet normal -0.769120574 0.4641193151 -0.4393708706
outer loop
vertex 42.38263702 -26.06491852 136.3599701
vertex 43.02256012 -22.22776031 139.2930756
vertex 43.97003937 -21.916008 137.9638214

endloop
endfacet
facet normal 0.9330669045 -0.2615317702 -0.2469560206
outer loop
vertex 42.38263702 -26.06491852 136.3599701
vertex 43.97003937 -21.916008 137.9638214
vertex 42.66478729 -26.02742767 137.3863068

endloop
endfacet
facet normal 0.4587857127 -0.02087450586 -0.8883016706
outer loop
vertex 42.66478729 -26.02742767 137.3863068
vertex 43.97003937 -21.916008 137.9638214
vertex 44.58287811 -22.33664703 138.2902222

endloop
endfacet
facet normal 0.7388130426 -0.4957597256 0.4564839303
outer loop
vertex 42.66480255 -26.02741241 137.3863068
vertex 44.58289337 -22.33663177 138.2902374
vertex 41.45154572 -25.34056854 140.0958862

endloop
endfacet
facet normal 0.7265270948 -0.4401869178 0.5276305079
outer loop
vertex 41.45154572 -25.34056854 140.0958862
vertex 44.58289337 -22.33663177 138.2902374
vertex 43.29262543 -21.65654755 140.6342621

endloop
endfacet
facet normal 0.6831216216 -0.4278774858 0.591832459
outer loop
vertex 41.45154572 -25.34056854 140.0958862
vertex 43.29262543 -21.65654755 140.6342621
vertex 39.06952667 -24.23867035 143.6419678

endloop
endfacet
facet normal 0.6783959866 -0.3705739379 0.6343924403
outer loop
vertex 39.06952667 -24.23867035 143.6419678
vertex 43.29262543 -21.65654755 140.6342621
vertex 40.55518341 -20.32767487 144.3378296

endloop
endfacet
facet normal 0.6663937569 -0.3684695363 0.6481894255
outer loop
vertex 39.06952667 -24.23867035 143.6419678
vertex 40.55518341 -20.32767487 144.3378296
vertex 36.39780426 -23.33887482 146.9002228

endloop
endfacet
facet normal 0.6793525219 -0.4351210296 0.5908889174
outer loop
vertex 36.39780426 -23.33887482 146.9002228
vertex 40.55518341 -20.32767487 144.3378296
vertex 37.64862823 -19.65514374 148.1747742

endloop
endfacet
facet normal 0.5952398777 -0.4357173443 0.6751592159
outer loop
vertex 36.39780426 -23.33887482 146.9002228
vertex 37.64862823 -19.65514374 148.1747742
vertex 34.24030304 -22.79137421 149.1556702

endloop
endfacet
facet normal 0.6030796766 -0.4492457509 0.6591457129
outer loop
vertex 34.24030304 -22.79137421 149.1556702
vertex 37.64862823 -19.65514374 148.1747742
vertex 34.89763641 -19.4046402 150.8625031

endloop
endfacet
facet normal 0.3407064378 -0.4750236273 0.811339438
outer loop
vertex 34.24030304 -22.79137421 149.1556702
vertex 34.89763641 -19.4046402 150.8625031
vertex 32.73413849 -22.34752655 150.0480194

endloop
endfacet
facet normal 0.3702387214 -0.4905160964 0.7888708711
outer loop
vertex 32.73413849 -22.34752655 150.0480194
vertex 34.89763641 -19.4046402 150.8625031
vertex 32.38385773 -19.49552155 151.9857788

endloop
endfacet
facet normal -0.3943576813 -0.54909271 0.7368712425
outer loop
vertex 32.73413849 -22.34752655 150.0480194
vertex 32.38385773 -19.49552155 151.9857788
vertex 31.37653351 -22.26590729 149.3822784

endloop
endfacet
facet normal 0.1456344873 -0.7051202655 0.6939711571
outer loop
vertex 31.37653351 -22.26590729 149.3822784
vertex 32.38385773 -19.49552155 151.9857788
vertex 29.70172882 -20.59038544 151.4361877

endloop
endfacet
facet normal 0.8434430361 0.2843667567 0.4557843804
outer loop
vertex 31.37651825 -22.26592255 149.3822632
vertex 29.70171356 -20.5904007 151.4361725
vertex 34.07830048 -32.47794342 150.7538757

endloop
endfacet
facet normal -nan(ind) -nan(ind) -nan(ind)
outer loop
vertex 34.07830048 -32.47794342 150.7538757
vertex 29.70171356 -20.5904007 151.4361725
vertex 34.07830048 -32.47794342 150.7538757

endloop
endfacet
facet normal -0 -0.9873870015 -0.1583250016
outer loop
vertex 42.69487762 -21.03054047 128.1789551
vertex 42.69489288 -21.03054047 128.1789551
vertex 42.94991302 -22.79430389 139.1785889

endloop
endfacet
facet normal 0.8662219048 -0.4898290932 -0.0986257121
outer loop
vertex 42.94991302 -22.79430389 139.1785889
vertex 42.69489288 -21.03054047 128.1789551
vertex 45.12540436 -19.30850983 140.9734039

endloop
endfacet
facet normal 0.7825772762 -0.5902787447 0.1978477389
outer loop
vertex 42.94991302 -22.79430389 139.1785889
vertex 45.12540436 -19.30850983 140.9734039
vertex 42.67923737 -22.77971649 140.2927551

endloop
endfacet
facet normal 0.6638252735 -0.3368690014 -0.6677239537
outer loop
vertex 42.67923737 -22.77971649 140.2927551
vertex 45.12540436 -19.30850983 140.9734039
vertex 45.7591629 -19.61518097 141.7581787

endloop
endfacet
facet normal -0.7378130555 0.6653167009 0.1139542162
outer loop
vertex 42.67923737 -22.77971649 140.2927551
vertex 45.7591629 -19.61518097 141.7581787
vertex 43.02256012 -22.22776031 139.2930756

endloop
endfacet
facet normal -0.6937478185 0.720185101 0.006884717848
outer loop
vertex 43.02256012 -22.22776031 139.2930756
vertex 45.7591629 -19.61518097 141.7581787
vertex 46.20545197 -19.17578888 140.7658997

endloop
endfacet
facet normal -0.6053287983 0.7541596889 -0.2545979619
outer loop
vertex 43.02256012 -22.22776031 139.2930756
vertex 46.20545197 -19.17578888 140.7658997
vertex 43.97003937 -21.916008 137.9638214

endloop
endfacet
facet normal -0.7434900999 0.6661959887 -0.05835522711
outer loop
vertex 43.97003937 -21.916008 137.9638214
vertex 46.20545197 -19.17578888 140.7658997
vertex 46.7984848 -18.653862 139.1686401

endloop
endfacet
facet normal 0.4414565265 -0.05192415044 -0.8957790136
outer loop
vertex 43.97003937 -21.916008 137.9638214
vertex 46.7984848 -18.653862 139.1686401
vertex 44.58287811 -22.33664703 138.2902222

endloop
endfacet
facet normal -0.2196118832 0.3493840396 -0.9108794332
outer loop
vertex 44.58287811 -22.33664703 138.2902222
vertex 46.7984848 -18.653862 139.1686401
vertex 47.0346756 -18.83602142 139.0418243

endloop
endfacet
facet normal 0.6444217563 -0.5625492334 0.517937243
outer loop
vertex 44.58289337 -22.33663177 138.2902374
vertex 47.03469086 -18.83600616 139.0418396
vertex 43.29262543 -21.65654755 140.6342621

endloop
endfacet
facet normal 0.6457519531 -0.5697328448 0.5083392859
outer loop
vertex 43.29262543 -21.65654755 140.6342621
vertex 47.03469086 -18.83600616 139.0418396
vertex 45.60523224 -18.39817047 141.3484192

endloop
endfacet
facet normal 0.5717900395 -0.5409991741 0.6167462468
outer loop
vertex 43.29262543 -21.65654755 140.6342621
vertex 45.60523224 -18.39817047 141.3484192
vertex 40.55518341 -20.32767487 144.3378296

endloop
endfacet
facet normal 0.5517043471 -0.665894866 0.5022015572
outer loop
vertex 40.55518341 -20.32767487 144.3378296
vertex 45.60523224 -18.39817047 141.3484192
vertex 42.85454559 -17.53476715 145.5150757

endloop
endfacet
facet normal 0.5368021727 -0.6622746587 0.5227194428
outer loop
vertex 40.55518341 -20.32767487 144.3378296
vertex 42.85454559 -17.53476715 145.5150757
vertex 37.64862823 -19.65514374 148.1747742

endloop
endfacet
facet normal 0.5285691619 -0.7054456472 0.4721877277
outer loop
vertex 37.64862823 -19.65514374 148.1747742
vertex 42.85454559 -17.53476715 145.5150757
vertex 39.73792267 -16.96303558 149.8580017

endloop
endfacet
facet normal 0.4654850066 -0.699935317 0.5416772962
outer loop
vertex 37.64862823 -19.65514374 148.1747742
vertex 39.73792267 -16.96303558 149.8580017
vertex 34.89763641 -19.4046402 150.8625031

endloop
endfacet
facet normal 0.4475007057 -0.6233087182 0.6412717104
outer loop
vertex 34.89763641 -19.4046402 150.8625031
vertex 39.73792267 -16.96303558 149.8580017
vertex 36.32904816 -16.51648712 152.6708679

endloop
endfacet
facet normal 0.3403025568 -0.6143744588 0.7118555307
outer loop
vertex 34.89763641 -19.4046402 150.8625031
vertex 36.32904816 -16.51648712 152.6708679
vertex 32.38385773 -19.49552155 151.9857788

endloop
endfacet
facet normal 0.4048999846 -0.6774427891 0.6141068339
outer loop
vertex 32.38385773 -19.49552155 151.9857788
vertex 36.32904816 -16.51648712 152.6708679
vertex 32.74492645 -17.43935394 154.0159454

endloop
endfacet
facet normal 0.1474310309 -0.707904458 0.6907498837
outer loop
vertex 32.38385773 -19.49552155 151.9857788
vertex 32.74492645 -17.43935394 154.0159454
vertex 29.70172882 -20.59038544 151.4361877

endloop
endfacet
facet normal 0.5764424801 -0.7731798887 0.2643992007
outer loop
vertex 29.70172882 -20.59038544 151.4361877
vertex 32.74492645 -17.43935394 154.0159454
vertex 28.74051666 -20.44097137 153.96875

endloop
endfacet
facet normal 0.8945330381 0.3109026551 0.3211699128
outer loop
vertex 29.70171356 -20.5904007 151.4361725
vertex 28.7405014 -20.44098663 153.9687347
vertex 34.07830048 -32.47794342 150.7538757

endloop
endfacet
facet normal -nan(ind) -nan(ind) -nan(ind)
outer loop
vertex 34.07830048 -32.47794342 150.7538757
vertex 28.7405014 -20.44098663 153.9687347
vertex 34.07830048 -32.47794342 150.7538757

endloop
endfacet
facet normal 0.7065653801 -0.7065653801 -0.03912540525
outer loop
vertex 42.69489288 -21.03054047 128.1789551
vertex 42.69490814 -21.03052521 128.1789551
vertex 45.12540436 -19.30850983 140.9734039

endloop
endfacet
facet normal 0.8104474545 -0.5808899999 -0.0757741183
outer loop
vertex 45.12540436 -19.30850983 140.9734039
vertex 42.69490814 -21.03052521 128.1789551
vertex 47.5341568 -16.00150299 141.3846283

endloop
endfacet
facet normal 0.6397214532 -0.383102119 -0.6663252115
outer loop
vertex 45.12540436 -19.30850983 140.9734039
vertex 47.5341568 -16.00150299 141.3846283
vertex 45.7591629 -19.61518097 141.7581787

endloop
endfacet
facet normal 0.06314440072 -0.1332569271 -0.9890679121
outer loop
vertex 45.7591629 -19.61518097 141.7581787
vertex 47.5341568 -16.00150299 141.3846283
vertex 49.43608856 -16.97440338 141.6371307

endloop
endfacet
facet normal -0.5783675313 0.8098120093 0.09846623987
outer loop
vertex 45.7591629 -19.61518097 141.7581787
vertex 49.43608856 -16.97440338 141.6371307
vertex 46.20545197 -19.17578888 140.7658997

endloop
endfacet
facet normal -0.308967948 0.7057433128 -0.6375461221
outer loop
vertex 46.20545197 -19.17578888 140.7658997
vertex 49.43608856 -16.97440338 141.6371307
vertex 50.3662796 -17.16698456 140.9731598

endloop
endfacet
facet normal -0.4363432229 0.890488863 0.1289735585
outer loop
vertex 46.20545197 -19.17578888 140.7658997
vertex 50.3662796 -17.16698456 140.9731598
vertex 46.7984848 -18.653862 139.1686401

endloop
endfacet
facet normal -0.4116781354 0.9090122581 0.06494431198
outer loop
vertex 46.7984848 -18.653862 139.1686401
vertex 50.3662796 -17.16698456 140.9731598
vertex 50.8546524 -16.85813141 139.7459717

endloop
endfacet
facet normal -0.0915787071 0.4862453341 -0.8690102696
outer loop
vertex 46.7984848 -18.653862 139.1686401
vertex 50.8546524 -16.85813141 139.7459717
vertex 47.0346756 -18.83602142 139.0418243

endloop
endfacet
facet normal 0.03244545311 -0.3902418315 0.9201405644
outer loop
vertex 47.0346756 -18.83602142 139.0418243
vertex 50.8546524 -16.85813141 139.7459717
vertex 50.5577774 -16.69083405 139.8273926

endloop
endfacet
facet normal 0.4069666862 -0.8175597787 0.4073992968
outer loop
vertex 47.03469086 -18.83600616 139.0418396
vertex 50.55779266 -16.69081879 139.8273926
vertex 45.60523224 -18.39817047 141.3484192

endloop
endfacet
facet normal 0.3985594809 -0.8506258726 0.3429080844
outer loop
vertex 45.60523224 -18.39817047 141.3484192
vertex 50.55779266 -16.69081879 139.8273926
vertex 48.9230423 -16.36306 142.5404968

endloop
endfacet
facet normal 0.3636952639 -0.8349063993 0.4131064713
outer loop
vertex 45.60523224 -18.39817047 141.3484192
vertex 48.9230423 -16.36306 142.5404968
vertex 42.85454559 -17.53476715 145.5150757

endloop
endfacet
facet normal 0.3334100842 -0.8821181655 0.3327239752
outer loop
vertex 42.85454559 -17.53476715 145.5150757
vertex 48.9230423 -16.36306 142.5404968
vertex 46.22275543 -15.65703583 147.1181641

endloop
endfacet
facet normal 0.3243583441 -0.8793823123 0.3485376835
outer loop
vertex 42.85454559 -17.53476715 145.5150757
vertex 46.22275543 -15.65703583 147.1181641
vertex 39.73792267 -16.96303558 149.8580017

endloop
endfacet
facet normal 0.3434247375 -0.8449152708 0.4100946188
outer loop
vertex 39.73792267 -16.96303558 149.8580017
vertex 46.22275543 -15.65703583 147.1181641
vertex 42.86208344 -14.81716156 151.6628723

endloop
endfacet
facet normal 0.2894735336 -0.8269216418 0.4820846319
outer loop
vertex 39.73792267 -16.96303558 149.8580017
vertex 42.86208344 -14.81716156 151.6628876
vertex 36.32904816 -16.51648712 152.6708679

endloop
endfacet
facet normal 0.2887719572 -0.8569217324 0.4269611835
outer loop
vertex 36.32904816 -16.51648712 152.6708679
vertex 42.86208344 -14.81716156 151.6628876
vertex 38.6696701 -14.66684723 154.8000793

endloop
endfacet
facet normal 0.3565120995 -0.8630540967 0.3578222692
outer loop
vertex 36.32904816 -16.51648712 152.6708679
vertex 38.6696701 -14.66684723 154.8000793
vertex 32.74492645 -17.43935394 154.0159454

endloop
endfacet
facet normal 0.4112535119 -0.9063238502 0.09719914198
outer loop
vertex 32.74492645 -17.43935394 154.0159454
vertex 38.6696701 -14.66684723 154.8000793
vertex 33.7677536 -16.70839691 156.5040588

endloop
endfacet
facet normal 0.5998309255 -0.8000434041 -0.0115453219
outer loop
vertex 32.74492645 -17.43935394 154.0159454
vertex 33.7677536 -16.70839691 156.5040588
vertex 28.74051666 -20.44097137 153.96875

endloop
endfacet
facet normal 0.6284109354 -0.7696318626 -0.1129890978
outer loop
vertex 28.74051666 -20.44097137 153.96875
vertex 33.7677536 -16.70839691 156.5040588
vertex 28.26837921 -21.23256683 156.7348633

endloop
endfacet
facet normal 0.9079494476 0.3355900049 0.2510122955
outer loop
vertex 28.7405014 -20.44098663 153.9687347
vertex 28.26836395 -21.23258209 156.734848
vertex 34.07830048 -32.47794342 150.7538757

endloop
endfacet
facet normal 0 0.478852123 -0.877895534
outer loop
vertex 34.07830048 -32.47794342 150.7538757
vertex 28.26836395 -21.23258209 156.734848
vertex 34.07831573 -32.47794342 150.7538757

endloop
endfacet
facet normal -0.707070291 0.707070291 -0.01016103104
outer loop
vertex 42.69490814 -21.03052521 128.1789551
vertex 42.69487762 -21.03055573 128.1789551
vertex 47.5341568 -16.00150299 141.3846283

endloop
endfacet
facet normal 0.7783977985 -0.6260213256 -0.04684278741
outer loop
vertex 47.5341568 -16.00150299 141.3846283
vertex 42.69487762 -21.03055573 128.1789551
vertex 50.25907135 -12.46715546 139.4310913

endloop
endfacet
facet normal -0.09689260274 -0.4232147038 -0.9008335471
outer loop
vertex 47.5341568 -16.00150299 141.3846283
vertex 50.25907135 -12.46715546 139.4310913
vertex 49.43608856 -16.97440338 141.6371307

endloop
endfacet
facet normal -0.1693155915 -0.4081515074 -0.8970755339
outer loop
vertex 49.43608856 -16.97440338 141.6371307
vertex 50.25907135 -12.46715546 139.4310913
vertex 53.81131744 -14.774086 139.8102417

endloop
endfacet
facet normal -0.5010822415 0.3332683444 -0.7986543775
outer loop
vertex 49.43608856 -16.97440338 141.6371307
vertex 53.81131744 -14.774086 139.8102417
vertex 50.3662796 -17.16698456 140.9731598

endloop
endfacet
facet normal -0.122018829 -0.2861978412 -0.9503694773
outer loop
vertex 50.3662796 -17.16698456 140.9731598
vertex 53.81131744 -14.774086 139.8102417
vertex 55.53842926 -15.90291595 139.9284363

endloop
endfacet
facet normal -0.2032441348 0.9656103253 0.1621371955
outer loop
vertex 50.3662796 -17.16698456 140.9731598
vertex 55.53842926 -15.90291595 139.9284363
vertex 50.8546524 -16.85813141 139.7459717

endloop
endfacet
facet normal -0.02492954582 0.3041463196 -0.9522990584
outer loop
vertex 50.8546524 -16.85813141 139.7459717
vertex 55.53842926 -15.90291595 139.9284363
vertex 56.09314728 -16.23540497 139.807724

endloop
endfacet
facet normal 0.03506238014 -0.3863499463 0.9216855764
outer loop
vertex 50.8546524 -16.85813141 139.7459717
vertex 56.09314728 -16.23540497 139.807724
vertex 50.5577774 -16.69083405 139.8273926

endloop
endfacet
facet normal 0.08205233514 -0.9944081306 0.06648332626
outer loop
vertex 50.5577774 -16.69083405 139.8273926
vertex 56.09314728 -16.23540497 139.807724
vertex 55.44533539 -16.22609711 140.74646

endloop
endfacet
facet normal 0.0640560165 -0.9854168296 0.157640323
outer loop
vertex 50.55779266 -16.69081879 139.8273926
vertex 55.44535065 -16.22608185 140.74646
vertex 48.9230423 -16.36306 142.5404968

endloop
endfacet
facet normal 0.02872175537 -0.9991915226 0.0281291455
outer loop
vertex 48.9230423 -16.36306 142.5404968
vertex 55.44535065 -16.22608185 140.74646
vertex 53.34374237 -16.19116974 144.1324768

endloop
endfacet
facet normal -0.01359455567 -0.9893999696 0.1445782483
outer loop
vertex 48.9230423 -16.36306 142.5404968
vertex 53.34374237 -16.19116974 144.1324768
vertex 46.22275543 -15.65703583 147.1181641

endloop
endfacet
facet normal 0.007525767665 -0.9810788631 0.1934624314
outer loop
vertex 46.22275543 -15.65703583 147.1181641
vertex 53.34374237 -16.19116974 144.1324768
vertex 50.48616791 -15.26311493 148.9499512

endloop
endfacet
facet normal 0.009684018791 -0.9819990396 0.1886370778
outer loop
vertex 46.22275543 -15.65703583 147.1181641
vertex 50.48616791 -15.26311493 148.9499512
vertex 42.86208344 -14.81716156 151.6628723

endloop
endfacet
facet normal 0.06397888809 -0.9402706623 0.3343618512
outer loop
vertex 42.86208344 -14.81716156 151.6628723
vertex 50.48616791 -15.26311493 148.9499512
vertex 47.09113312 -13.86934662 153.519043

endloop
endfacet
facet normal 0.1240794435 -0.9693043828 0.2122575641
outer loop
vertex 42.86208344 -14.81716156 151.6628876
vertex 47.09113312 -13.86934662 153.519043
vertex 38.6696701 -14.66684723 154.8000793

endloop
endfacet
facet normal 0.06962553412 -0.9853464961 -0.1557064354
outer loop
vertex 38.6696701 -14.66684723 154.8000793
vertex 47.09113312 -13.86934662 153.519043
vertex 42.03066254 -14.84304047 157.4179688

endloop
endfacet
facet normal 0.2433749586 -0.8954574466 -0.3727258146
outer loop
vertex 38.6696701 -14.66684723 154.8000793
vertex 42.03066254 -14.84304047 157.4179688
vertex 33.7677536 -16.70839691 156.5040588

endloop
endfacet
facet normal 0.2430001795 -0.8323587179 -0.4981262982
outer loop
vertex 33.7677536 -16.70839691 156.5040588
vertex 42.03066254 -14.84304047 157.4179688
vertex 35.65026093 -18.1259079 159.7910309

endloop
endfacet
facet normal 0.5078074336 -0.6463240385 -0.5695584416
outer loop
vertex 33.7677536 -16.70839691 156.5040588
vertex 35.65026093 -18.1259079 159.7910309
vertex 28.26837921 -21.23256683 156.7348633

endloop
endfacet
facet normal 0.5015205145 -0.7203779817 -0.4790957272
outer loop
vertex 28.26837921 -21.23256683 156.7348633
vertex 35.65026093 -18.1259079 159.7910309
vertex 28.40685272 -23.31778717 160.0151978

endloop
endfacet
facet normal 0.9098160863 0.3665569723 0.1946041137
outer loop
vertex 28.26836395 -21.23258209 156.734848
vertex 28.40683746 -23.31780243 160.0151825
vertex 34.07831573 -32.47794342 150.7538757

endloop
endfacet
facet normal 0 -0.7071067691 0.7071067691
outer loop
vertex 34.07831573 -32.47794342 150.7538757
vertex 28.40683746 -23.31780243 160.0151825
vertex 34.07830048 -32.47794342 150.7538757

endloop
endfacet
facet normal 0.7057168484 -0.7057168484 0.06266871095
outer loop
vertex 42.69487762 -21.03055573 128.1789551
vertex 42.69489288 -21.03054047 128.1789551
vertex 50.25907135 -12.46715546 139.4310913

endloop
endfacet
facet normal 0.7004511952 -0.7102898359 0.069688797
outer loop
vertex 50.25907135 -12.46715546 139.4310913
vertex 42.69489288 -21.03054047 128.1789551
vertex 53.8992691 -9.853385925 129.4833374

endloop
endfacet
facet normal -0.4743312597 -0.7931610942 -0.3819756508
outer loop
vertex 50.25907135 -12.46715546 139.4310913
vertex 53.8992691 -9.853385925 129.4833374
vertex 53.81131744 -14.774086 139.8102417

endloop
endfacet
facet normal -0.5155515671 -0.7718195319 -0.3721576035
outer loop
vertex 53.81131744 -14.774086 139.8102417
vertex 53.8992691 -9.853385925 129.4833374
vertex 61.71253204 -16.14748383 131.7129517

endloop
endfacet
facet normal -0.4958562851 -0.7952005267 -0.3489736319
outer loop
vertex 53.81131744 -14.774086 139.8102417
vertex 61.71253204 -16.14748383 131.7129517
vertex 55.53842926 -15.90291595 139.9284363

endloop
endfacet
facet normal -0.6483230591 -0.5994644165 -0.4693823159
outer loop
vertex 55.53842926 -15.90291595 139.9284363
vertex 61.71253204 -16.14748383 131.7129517
vertex 64.21977997 -21.46405792 135.039856

endloop
endfacet
facet normal -0.4948095679 -0.8628879189 0.1028980464
outer loop
vertex 55.53842926 -15.90291595 139.9284363
vertex 64.21977997 -21.46405792 135.039856
vertex 56.09314728 -16.23540497 139.807724

endloop
endfacet
facet normal -0.6331091523 -0.358363688 -0.6861109734
outer loop
vertex 56.09314728 -16.23540497 139.807724
vertex 64.21977997 -21.46405792 135.039856
vertex 62.68572235 -25.28694916 138.4521484

endloop
endfacet
facet normal -0.7333402634 -0.4590104818 -0.5015192032
outer loop
vertex 56.09314728 -16.23540497 139.807724
vertex 62.68572235 -25.28694916 138.4521484
vertex 55.44533539 -16.22609711 140.74646

endloop
endfacet
facet normal -0.765886724 -0.5142937303 -0.3859008849
outer loop
vertex 55.44533539 -16.22609711 140.74646
vertex 62.68572235 -25.28694916 138.4521484
vertex 61.20235443 -26.21437836 142.6321411

endloop
endfacet
facet normal -0.7341096997 -0.5081541538 -0.4504024386
outer loop
vertex 55.44535065 -16.22608185 140.74646
vertex 61.20235443 -26.21437836 142.6321564
vertex 53.34374237 -16.19116974 144.1324768

endloop
endfacet
facet normal -0.7867022753 -0.6173229218 0.003444848116
outer loop
vertex 53.34374237 -16.19116974 144.1324768
vertex 61.20235443 -26.21437836 142.6321564
vertex 60.64826202 -25.47855377 147.9547729

endloop
endfacet
facet normal -0.6934898496 -0.6622225642 -0.2837835848
outer loop
vertex 53.34374237 -16.19116974 144.1324768
vertex 60.64826202 -25.47855377 147.9547729
vertex 50.48616791 -15.26311493 148.9499512

endloop
endfacet
facet normal -0.7106176615 -0.7004378438 -0.06640411168
outer loop
vertex 50.48616791 -15.26311493 148.9499512
vertex 60.64826202 -25.47855377 147.9547729
vertex 59.38480377 -24.73853302 153.6697388

endloop
endfacet
facet normal -0.6390276551 -0.7262883186 -0.2532764971
outer loop
vertex 50.48616791 -15.26311493 148.9499512
vertex 59.38480377 -24.73853302 153.6697388
vertex 47.09113312 -13.86934662 153.519043

endloop
endfacet
facet normal -0.5984584093 -0.682703197 -0.4192421138
outer loop
vertex 47.09113312 -13.86934662 153.519043
vertex 59.38480377 -24.73853302 153.6697388
vertex 56.0772934 -25.10546112 158.9886475

endloop
endfacet
facet normal -0.3903582096 -0.6361607313 -0.6655223966
outer loop
vertex 47.09113312 -13.86934662 153.519043
vertex 56.0772934 -25.10546112 158.9886627
vertex 42.03066254 -14.84304047 157.4179688

endloop
endfacet
facet normal -0.3943674862 -0.6406259537 -0.6588418484
outer loop
vertex 42.03066254 -14.84304047 157.4179688
vertex 56.0772934 -25.10546112 158.9886627
vertex 51.19001007 -27.11319733 163.8663025

endloop
endfacet
facet normal -0.06332112849 -0.5008980632 -0.8631868362
outer loop
vertex 42.03066254 -14.84304047 157.4179688
vertex 51.19001007 -27.11319733 163.8663025
vertex 35.65026093 -18.1259079 159.7910309

endloop
endfacet
facet normal -0.09602591395 -0.5440143943 -0.8335630894
outer loop
vertex 35.65026093 -18.1259079 159.7910309
vertex 51.19001007 -27.11319733 163.8663025
vertex 44.02080536 -31.2175827 167.3708649

endloop
endfacet
facet normal 0.2366974205 -0.3690322042 -0.8987711072
outer loop
vertex 35.65026093 -18.1259079 159.7910309
vertex 44.02080536 -31.2175827 167.3708649
vertex 28.40685272 -23.31778717 160.0151978

endloop
endfacet
facet normal 0.2256743163 -0.3865802586 -0.8942185044
outer loop
vertex 28.40685272 -23.31778717 160.0151978
vertex 44.02080536 -31.2175827 167.3708649
vertex 34.22368622 -37.22942352 167.497345

endloop
endfacet
facet normal 0.8926727772 0.4355606735 0.1158544049
outer loop
vertex 28.40683746 -23.31780243 160.0151825
vertex 34.22367096 -37.22945404 167.4973297
vertex 34.07830048 -32.47794342 150.7538757

endloop
endfacet
facet normal -nan(ind) -nan(ind) -nan(ind)
outer loop
vertex 34.07830048 -32.47794342 150.7538757
vertex 34.22367096 -37.22945404 167.4973297
vertex 34.07830048 -32.47794342 150.7538757

endloop
endfacet
endsolid
