solid 
facet normal -nan(ind) -nan(ind) -nan(ind)
outer loop
vertex -19.32190704 -60.76053619 -21.44612122
vertex -19.32190704 -60.76053619 -21.44612122
vertex -11.47064972 -63.13115692 -24.54962921

endloop
endfacet
facet normal -0.3297610879 -0.9365545511 -0.1188408732
outer loop
vertex -11.47064972 -63.13115692 -24.54962921
vertex -19.32190704 -60.76053619 -21.44612122
vertex -11.19194794 -62.75986481 -28.24903297

endloop
endfacet
facet normal -0.8730612397 -0.4742477834 -0.1133718267
outer loop
vertex -11.47064972 -63.13115692 -24.54962921
vertex -11.19194794 -62.75986481 -28.24903297
vertex -8.718528748 -68.20955658 -24.49979782

endloop
endfacet
facet normal -0.8418313265 -0.5078412294 -0.1828042567
outer loop
vertex -8.718528748 -68.20955658 -24.49979782
vertex -11.19194794 -62.75986481 -28.24903297
vertex -8.450141907 -67.00304413 -29.08750916

endloop
endfacet
facet normal -0.9588403106 -0.2557521462 -0.1233530715
outer loop
vertex -8.718528748 -68.20955658 -24.49979782
vertex -8.450141907 -67.00304413 -29.08750916
vertex -7.341712952 -73.79964447 -23.61185455

endloop
endfacet
facet normal -0.9568234682 -0.2602842152 -0.1293866932
outer loop
vertex -7.341712952 -73.79964447 -23.61185455
vertex -8.450141907 -67.00304413 -29.08750916
vertex -7.313332081 -71.93484497 -27.57310677

endloop
endfacet
facet normal -0.9716481566 -0.2111549675 -0.1063648239
outer loop
vertex -7.341712952 -73.79964447 -23.61185455
vertex -7.313332081 -71.93484497 -27.57310677
vertex -6.476996899 -78.35551453 -22.46678734

endloop
endfacet
facet normal -0.9897071719 -0.1421382427 -0.01662563719
outer loop
vertex -6.476996899 -78.35551453 -22.46678734
vertex -7.313332081 -71.93484497 -27.57310677
vertex -6.678307056 -76.66763306 -24.91327477

endloop
endfacet
facet normal -0.3519536853 0.7566590309 0.5509951115
outer loop
vertex -6.476996899 -78.35551453 -22.46678734
vertex -6.678307056 -76.66763306 -24.91327477
vertex -8.122001648 -80.98154449 -19.91133118

endloop
endfacet
facet normal 0.314748168 -0.7622807622 -0.5655631423
outer loop
vertex -8.122001648 -80.98154449 -19.91133118
vertex -6.678307056 -76.66763306 -24.91327477
vertex -8.121986389 -80.98153687 -19.91133308

endloop
endfacet
facet normal 0 0.9594237804 -0.2819679976
outer loop
vertex -19.32190704 -60.76053619 -21.44612122
vertex -19.32189178 -60.76053619 -21.44612122
vertex -11.19194794 -62.75986481 -28.24903297

endloop
endfacet
facet normal 0.1160143912 -0.9068536758 0.4051630795
outer loop
vertex -11.19194794 -62.75986481 -28.24903297
vertex -19.32189178 -60.76053619 -21.44612122
vertex -12.89450836 -63.41139984 -29.21981621

endloop
endfacet
facet normal -0.3396162391 -0.3886964321 0.8564903736
outer loop
vertex -11.19194794 -62.75986481 -28.24903297
vertex -12.89450836 -63.41139984 -29.21981621
vertex -8.450141907 -67.00304413 -29.08750916

endloop
endfacet
facet normal -0.4583433867 -0.5411919355 0.7050054073
outer loop
vertex -8.450141907 -67.00304413 -29.08750916
vertex -12.89450836 -63.41139984 -29.21981621
vertex -10.33234406 -67.41547394 -30.62777901

endloop
endfacet
facet normal -0.6421717405 0.08588060737 0.7617348433
outer loop
vertex -8.450141907 -67.00304413 -29.08750916
vertex -10.33234406 -67.41547394 -30.62777901
vertex -7.313332081 -71.93484497 -27.57310677

endloop
endfacet
facet normal -0.7626905441 -0.07531167567 0.6423637271
outer loop
vertex -7.313332081 -71.93484497 -27.57310677
vertex -10.33234406 -67.41547394 -30.62777901
vertex -8.829582214 -71.88647461 -29.36770821

endloop
endfacet
facet normal -0.7353472114 0.2543536127 0.628147006
outer loop
vertex -7.313332081 -71.93484497 -27.57310677
vertex -8.829582214 -71.88647461 -29.36770821
vertex -6.678307056 -76.66763306 -24.91327477

endloop
endfacet
facet normal -0.8121552467 0.1578668505 0.5616777539
outer loop
vertex -6.678307056 -76.66763306 -24.91327477
vertex -8.829582214 -71.88647461 -29.36770821
vertex -7.648979187 -76.39756012 -26.39272118

endloop
endfacet
facet normal -0.5158182383 0.7167395949 0.4692717195
outer loop
vertex -6.678307056 -76.66763306 -24.91327477
vertex -7.648979187 -76.39756012 -26.39272118
vertex -8.121986389 -80.98153687 -19.91133308

endloop
endfacet
facet normal 0.9922778606 -0.1240347326 0
outer loop
vertex -8.121986389 -80.98153687 -19.91133308
vertex -7.648979187 -76.39756012 -26.39272118
vertex -8.121986389 -80.98153687 -19.91133118

endloop
endfacet
facet normal 0 -0.9464826584 0.3227546811
outer loop
vertex -19.32189178 -60.76053619 -21.44612122
vertex -19.32190704 -60.76053619 -21.44612122
vertex -12.89450836 -63.41139984 -29.21981621

endloop
endfacet
facet normal 0.5532119274 -0.5338941216 0.6394635439
outer loop
vertex -12.89450836 -63.41139984 -29.21981621
vertex -19.32190704 -60.76053619 -21.44612122
vertex -15.34235382 -64.55944824 -28.06065559

endloop
endfacet
facet normal 0.4405497611 -0.03354686126 0.8971011639
outer loop
vertex -12.89450836 -63.41139984 -29.21981621
vertex -15.34235382 -64.55944824 -28.06065559
vertex -10.33234406 -67.41547394 -30.62777901

endloop
endfacet
facet normal 0.4102050662 -0.09564274549 0.9069643617
outer loop
vertex -10.33234406 -67.41547394 -30.62777901
vertex -15.34235382 -64.55944824 -28.06065559
vertex -13.11511993 -68.45853424 -29.47916985

endloop
endfacet
facet normal 0.2475603819 0.3390067816 0.907627821
outer loop
vertex -10.33234406 -67.41547394 -30.62777901
vertex -13.11511993 -68.45853424 -29.47916985
vertex -8.829582214 -71.88647461 -29.36770821

endloop
endfacet
facet normal 0.1922232956 0.2709820867 0.9431961775
outer loop
vertex -8.829582214 -71.88647461 -29.36770821
vertex -13.11511993 -68.45853424 -29.47916985
vertex -11.05493927 -72.5605011 -28.72053146

endloop
endfacet
facet normal 0.06955870986 0.5618312955 0.8243222237
outer loop
vertex -8.829582214 -71.88647461 -29.36770821
vertex -11.05493927 -72.5605011 -28.72053146
vertex -7.648979187 -76.39756012 -26.39272118

endloop
endfacet
facet normal -0.04750709608 0.4869317114 0.8721471429
outer loop
vertex -7.648979187 -76.39756012 -26.39272118
vertex -11.05493927 -72.5605011 -28.72053146
vertex -8.981955528 -76.80756378 -26.23641968

endloop
endfacet
facet normal -0.1832838953 0.8088665009 0.5586966276
outer loop
vertex -7.648979187 -76.39756012 -26.39272118
vertex -8.981955528 -76.80756378 -26.23641968
vertex -8.121986389 -80.98153687 -19.91133118

endloop
endfacet
facet normal -0.3702047169 0.7515155673 0.5460519791
outer loop
vertex -8.121986389 -80.98153687 -19.91133118
vertex -8.981955528 -76.80756378 -26.23641968
vertex -8.122001648 -80.98154449 -19.91133118

endloop
endfacet
facet normal -nan(ind) -nan(ind) -nan(ind)
outer loop
vertex -19.32190704 -60.76053619 -21.44612122
vertex -19.32190704 -60.76053619 -21.44612122
vertex -15.34235382 -64.55944824 -28.06065369

endloop
endfacet
facet normal 0.6727221608 -0.3900346458 0.6287429929
outer loop
vertex -15.34235382 -64.55944824 -28.06065369
vertex -19.32190704 -60.76053619 -21.44612122
vertex -17.7226944 -65.42933655 -26.05344009

endloop
endfacet
facet normal 0.62649858 0.07564465702 0.7757431865
outer loop
vertex -15.34235382 -64.55944824 -28.06065369
vertex -17.7226944 -65.42933655 -26.05344009
vertex -13.11513519 -68.45853424 -29.47916985

endloop
endfacet
facet normal 0.6432676911 0.1240082979 0.7555319667
outer loop
vertex -13.11513519 -68.45853424 -29.47916985
vertex -17.7226944 -65.42933655 -26.05344009
vertex -16.0510788 -69.58015442 -26.79538155

endloop
endfacet
facet normal 0.5285283923 0.4035750329 0.7468500733
outer loop
vertex -13.11513519 -68.45853424 -29.47916985
vertex -16.0510788 -69.58015442 -26.79538155
vertex -11.05495453 -72.56050873 -28.72052956

endloop
endfacet
facet normal 0.5222218633 0.3833521008 0.7617908716
outer loop
vertex -11.05495453 -72.56050873 -28.72052956
vertex -16.0510788 -69.58015442 -26.79538155
vertex -13.83469391 -73.95049286 -26.11549187

endloop
endfacet
facet normal 0.369155407 0.5968571901 0.7123804092
outer loop
vertex -11.05495453 -72.56050873 -28.72052956
vertex -13.83469391 -73.95049286 -26.11549187
vertex -8.981955528 -76.80757141 -26.23641968

endloop
endfacet
facet normal 0.3331696391 0.5329673886 0.7777813077
outer loop
vertex -8.981955528 -76.80757141 -26.23641968
vertex -13.83469391 -73.95049286 -26.11549187
vertex -11.04991913 -78.21419525 -24.38671303

endloop
endfacet
facet normal -0.06644476205 0.8286238313 0.5558485389
outer loop
vertex -8.981955528 -76.80757141 -26.23641968
vertex -11.04991913 -78.21419525 -24.38671303
vertex -8.122016907 -80.98154449 -19.91132927

endloop
endfacet
facet normal 0.2869755328 -0.7220674753 -0.6294947267
outer loop
vertex -8.122016907 -80.98154449 -19.91132927
vertex -11.04991913 -78.21419525 -24.38671303
vertex -8.122001648 -80.98153687 -19.91133118

endloop
endfacet
facet normal -nan(ind) -nan(ind) -nan(ind)
outer loop
vertex -19.32190704 -60.76053619 -21.44612122
vertex -19.32190704 -60.76053619 -21.44612122
vertex -17.7226944 -65.42933655 -26.05344009

endloop
endfacet
facet normal 0.7288977504 -0.337909013 0.5954205394
outer loop
vertex -17.7226944 -65.42933655 -26.05344009
vertex -19.32190704 -60.76053619 -21.44612122
vertex -19.87656403 -65.79050446 -23.62169838

endloop
endfacet
facet normal 0.7245064378 0.1724893153 0.6673364043
outer loop
vertex -17.7226944 -65.42933655 -26.05344009
vertex -19.87656403 -65.79050446 -23.62169838
vertex -16.0510788 -69.58015442 -26.79538155

endloop
endfacet
facet normal 0.7148634791 0.1495701224 0.683080554
outer loop
vertex -16.0510788 -69.58015442 -26.79538155
vertex -19.87656403 -65.79050446 -23.62169838
vertex -18.81987762 -70.71011353 -23.6503334

endloop
endfacet
facet normal 0.6049892902 0.4127435684 0.6809043288
outer loop
vertex -16.0510788 -69.58015442 -26.79538155
vertex -18.81987762 -70.71011353 -23.6503334
vertex -13.83469391 -73.95049286 -26.11549187

endloop
endfacet
facet normal 0.5692685843 0.29075104 0.7690235376
outer loop
vertex -13.83469391 -73.95049286 -26.11549187
vertex -18.81987762 -70.71011353 -23.6503334
vertex -16.73630524 -75.88945007 -23.23450089

endloop
endfacet
facet normal 0.3755555749 0.5482662916 0.7472363114
outer loop
vertex -13.83469391 -73.95049286 -26.11549187
vertex -16.73630524 -75.88945007 -23.23450089
vertex -11.04991913 -78.21419525 -24.38671303

endloop
endfacet
facet normal 0.3376391232 0.4046623707 0.8498518467
outer loop
vertex -11.04991913 -78.21419525 -24.38671303
vertex -16.73630524 -75.88945007 -23.23450089
vertex -13.46941376 -80.19335938 -22.4830761

endloop
endfacet
facet normal -0.1715295762 0.7837865949 0.5968719125
outer loop
vertex -11.04991913 -78.21419525 -24.38671303
vertex -13.46941376 -80.19335938 -22.4830761
vertex -8.122001648 -80.98153687 -19.91133118

endloop
endfacet
facet normal -0.434602648 0 0.9006223679
outer loop
vertex -8.122001648 -80.98153687 -19.91133118
vertex -13.46941376 -80.19335938 -22.4830761
vertex -8.122001648 -80.98154449 -19.91133118

endloop
endfacet
facet normal 0.9939751625 -0.1096061096 0
outer loop
vertex -19.32190704 -60.76053619 -21.44612122
vertex -19.32190704 -60.76053619 -21.44611931
vertex -19.87656403 -65.79050446 -23.62169838

endloop
endfacet
facet normal 0.8744755387 -0.270563364 0.4026014209
outer loop
vertex -19.87656403 -65.79050446 -23.62169838
vertex -19.32190704 -60.76053619 -21.44611931
vertex -21.21411896 -66.02171326 -20.87182617

endloop
endfacet
facet normal 0.8773550987 0.185872823 0.442379117
outer loop
vertex -19.87656403 -65.79050446 -23.62169838
vertex -21.21411896 -66.02171326 -20.87182617
vertex -18.81987762 -70.71011353 -23.6503334

endloop
endfacet
facet normal 0.8630466461 0.1560181975 0.480425626
outer loop
vertex -18.81987762 -70.71011353 -23.6503334
vertex -21.21411896 -66.02171326 -20.87182617
vertex -20.51644135 -71.68846893 -20.28487015

endloop
endfacet
facet normal 0.7881389856 0.3572947979 0.50117594
outer loop
vertex -18.81987762 -70.71011353 -23.6503334
vertex -20.51644135 -71.68846893 -20.28487015
vertex -16.73630524 -75.88945007 -23.23450089

endloop
endfacet
facet normal 0.7749146223 0.3108866811 0.5503243208
outer loop
vertex -16.73630524 -75.88945007 -23.23450089
vertex -20.51644135 -71.68846893 -20.28487015
vertex -18.33159637 -77.53939819 -20.05608177

endloop
endfacet
facet normal 0.5936437845 0.5527216196 0.5848809481
outer loop
vertex -16.73630524 -75.88945007 -23.23450089
vertex -18.33159637 -77.53939819 -20.05608177
vertex -13.46941376 -80.19335938 -22.4830761

endloop
endfacet
facet normal 0.5908619761 0.5132906437 0.6224264503
outer loop
vertex -13.46941376 -80.19335938 -22.4830761
vertex -18.33159637 -77.53939819 -20.05608177
vertex -14.60439301 -81.76777649 -20.10729408

endloop
endfacet
facet normal -0.1188118383 0.8528670669 0.5084303021
outer loop
vertex -13.46941376 -80.19335938 -22.4830761
vertex -14.60439301 -81.76777649 -20.10729408
vertex -8.122001648 -80.98154449 -19.91133118

endloop
endfacet
facet normal -nan(ind) -nan(ind) -nan(ind)
outer loop
vertex -8.122001648 -80.98154449 -19.91133118
vertex -14.60439301 -81.76777649 -20.10729408
vertex -8.122001648 -80.98154449 -19.91133118

endloop
endfacet
facet normal -0.9409906268 0.3384325802 0
outer loop
vertex -19.32190704 -60.76053619 -21.44611931
vertex -19.32190704 -60.76053619 -21.44612122
vertex -21.21411896 -66.02171326 -20.87182617

endloop
endfacet
facet normal 0.9376698136 -0.3233308792 0.1274065375
outer loop
vertex -21.21411896 -66.02171326 -20.87182617
vertex -19.32190704 -60.76053619 -21.44612122
vertex -21.54982758 -65.93051147 -18.16967201

endloop
endfacet
facet normal 0.9840484262 0.1333506405 0.1177548468
outer loop
vertex -21.21411896 -66.02171326 -20.87182617
vertex -21.54982758 -65.93051147 -18.16967201
vertex -20.51644135 -71.68846893 -20.28487015

endloop
endfacet
facet normal 0.9806762338 0.1189426482 0.1553285271
outer loop
vertex -20.51644135 -71.68846893 -20.28487015
vertex -21.54982758 -65.93051147 -18.16967201
vertex -20.9766922 -72.18882751 -16.9958992

endloop
endfacet
facet normal 0.9188417196 0.3502237201 0.1818608642
outer loop
vertex -20.51644135 -71.68846893 -20.28487015
vertex -20.9766922 -72.18882751 -16.9958992
vertex -18.33159637 -77.53939819 -20.05608177

endloop
endfacet
facet normal 0.9189371467 0.3388480544 0.2018331587
outer loop
vertex -18.33159637 -77.53939819 -20.05608177
vertex -20.9766922 -72.18882751 -16.9958992
vertex -18.64226532 -78.62438965 -16.8200798

endloop
endfacet
facet normal 0.7215439677 0.6326139569 0.2813786864
outer loop
vertex -18.33159637 -77.53939819 -20.05608177
vertex -18.64226532 -78.62438965 -16.8200798
vertex -14.60439301 -81.76777649 -20.10729408

endloop
endfacet
facet normal 0.7198902369 0.6373736858 0.2747959197
outer loop
vertex -14.60439301 -81.76777649 -20.10729408
vertex -18.64226532 -78.62438965 -16.8200798
vertex -14.64095306 -82.84580994 -17.51107788

endloop
endfacet
facet normal -0.122702755 0.917178452 0.3791143894
outer loop
vertex -14.60439301 -81.76777649 -20.10729408
vertex -14.64095306 -82.84580994 -17.51107788
vertex -8.122001648 -80.98154449 -19.91133118

endloop
endfacet
facet normal -nan(ind) -nan(ind) -nan(ind)
outer loop
vertex -8.122001648 -80.98154449 -19.91133118
vertex -14.64095306 -82.84580994 -17.51107788
vertex -8.122001648 -80.98154449 -19.91133118

endloop
endfacet
facet normal -0.9183574319 0.3957518637 0
outer loop
vertex -19.32190704 -60.76053619 -21.44612122
vertex -19.32190704 -60.76053619 -21.44612312
vertex -21.54982758 -65.93051147 -18.16967201

endloop
endfacet
facet normal 0.9301703572 -0.3619673848 0.06134175137
outer loop
vertex -21.54982758 -65.93051147 -18.16967201
vertex -19.32190704 -60.76053619 -21.44612312
vertex -21.496315 -65.38629913 -15.7698164

endloop
endfacet
facet normal 0.9956612587 0.08346844465 -0.04112953693
outer loop
vertex -21.54982758 -65.93051147 -18.16967201
vertex -21.496315 -65.38629913 -15.7698164
vertex -20.9766922 -72.18882751 -16.9958992

endloop
endfacet
facet normal 0.9929256439 0.08983967453 -0.07763760537
outer loop
vertex -20.9766922 -72.18882751 -16.9958992
vertex -21.496315 -65.38629913 -15.7698164
vertex -20.77851105 -71.98844147 -14.22943401

endloop
endfacet
facet normal 0.9369152188 0.337354064 -0.09155364335
outer loop
vertex -20.9766922 -72.18882751 -16.9958992
vertex -20.77851105 -71.98844147 -14.22943401
vertex -18.64226532 -78.62438965 -16.8200798

endloop
endfacet
facet normal 0.9228854775 0.3551752269 -0.1487714052
outer loop
vertex -18.64226532 -78.62438965 -16.8200798
vertex -20.77851105 -71.98844147 -14.22943401
vertex -18.09996796 -78.93584442 -14.19956684

endloop
endfacet
facet normal 0.7187142968 0.6921207309 -0.06647267938
outer loop
vertex -18.64226532 -78.62438965 -16.8200798
vertex -18.09996796 -78.93584442 -14.19956684
vertex -14.64095306 -82.84580994 -17.51107788

endloop
endfacet
facet normal 0.7072300911 0.7013174891 -0.08932715654
outer loop
vertex -14.64095306 -82.84580994 -17.51107788
vertex -18.09996796 -78.93584442 -14.19956684
vertex -13.89923859 -83.32528687 -15.40312576

endloop
endfacet
facet normal -0.1694401354 0.946426332 0.2748951316
outer loop
vertex -14.64095306 -82.84580994 -17.51107788
vertex -13.89923859 -83.32528687 -15.40312576
vertex -8.122001648 -80.98154449 -19.91133118

endloop
endfacet
facet normal 0.3713906705 -0.9284766912 0
outer loop
vertex -8.122001648 -80.98154449 -19.91133118
vertex -13.89923859 -83.32528687 -15.40312576
vertex -8.122001648 -80.98154449 -19.91133308

endloop
endfacet
facet normal 0.9050011635 -0.4254091084 0
outer loop
vertex -19.32190704 -60.76053619 -21.44612312
vertex -19.32190704 -60.76053619 -21.44612122
vertex -21.496315 -65.38629913 -15.7698164

endloop
endfacet
facet normal 0.8885955215 -0.4575409591 -0.03246955201
outer loop
vertex -21.496315 -65.38629913 -15.7698164
vertex -19.32190704 -60.76053619 -21.44612122
vertex -20.99907684 -64.54644012 -13.99665737

endloop
endfacet
facet normal 0.9574503899 0.03732803836 -0.2861734927
outer loop
vertex -21.496315 -65.38629913 -15.7698164
vertex -20.99907684 -64.54644012 -13.99665737
vertex -20.77851105 -71.98844147 -14.22943401

endloop
endfacet
facet normal 0.8807492852 0.04086146504 -0.471816659
outer loop
vertex -20.77851105 -71.98844147 -14.22943401
vertex -20.99907684 -64.54644012 -13.99665737
vertex -19.7858963 -71.28824615 -12.31586075

endloop
endfacet
facet normal 0.7954472303 0.3044287562 -0.5240103602
outer loop
vertex -20.77851105 -71.98844147 -14.22943401
vertex -19.7858963 -71.28824615 -12.31586075
vertex -18.09996796 -78.93584442 -14.19956684

endloop
endfacet
facet normal 0.67797333 0.3132583499 -0.6649973392
outer loop
vertex -18.09996796 -78.93584442 -14.19956684
vertex -19.7858963 -71.28824615 -12.31586075
vertex -16.70711517 -78.62301636 -12.63217258

endloop
endfacet
facet normal 0.5052141547 0.6417120099 -0.5770305991
outer loop
vertex -18.09996796 -78.93584442 -14.19956684
vertex -16.70711517 -78.62301636 -12.63217258
vertex -13.89923859 -83.32528687 -15.40312576

endloop
endfacet
facet normal 0.4727763236 0.6395325065 -0.6062019467
outer loop
vertex -13.89923859 -83.32528687 -15.40312576
vertex -16.70711517 -78.62301636 -12.63217258
vertex -12.60149384 -83.26017761 -14.32232666

endloop
endfacet
facet normal -0.2225134671 0.9520831108 0.209822759
outer loop
vertex -13.89923859 -83.32528687 -15.40312576
vertex -12.60149384 -83.26017761 -14.32232666
vertex -8.122001648 -80.98154449 -19.91133308

endloop
endfacet
facet normal -0.4472135901 0.8944271803 0
outer loop
vertex -8.122001648 -80.98154449 -19.91133308
vertex -12.60149384 -83.26017761 -14.32232666
vertex -8.122001648 -80.98154449 -19.91133118

endloop
endfacet
facet normal -nan(ind) -nan(ind) -nan(ind)
outer loop
vertex -19.32190704 -60.76053619 -21.44612122
vertex -19.32190704 -60.76053619 -21.44612122
vertex -20.99907684 -64.54644012 -13.99665737

endloop
endfacet
facet normal 0.5301972628 -0.7980982065 -0.286234349
outer loop
vertex -20.99907684 -64.54644012 -13.99665737
vertex -19.32190704 -60.76053619 -21.44612122
vertex -19.34528351 -63.75514984 -13.13963509

endloop
endfacet
facet normal 0.5023639798 -0.1229758412 -0.8558664322
outer loop
vertex -20.99907684 -64.54644012 -13.99665737
vertex -19.34528351 -63.75514984 -13.13963509
vertex -19.7858963 -71.28824615 -12.31586075

endloop
endfacet
facet normal 0.3406454623 -0.1218707711 -0.9322596788
outer loop
vertex -19.7858963 -71.28824615 -12.31586075
vertex -19.34528351 -63.75514984 -13.13963509
vertex -17.34499359 -70.47667694 -11.53005409

endloop
endfacet
facet normal 0.2576749027 0.1493275315 -0.9546228647
outer loop
vertex -19.7858963 -71.28824615 -12.31586075
vertex -17.34499359 -70.47667694 -11.53005409
vertex -16.70711517 -78.62301636 -12.63217258

endloop
endfacet
facet normal 0.09123767167 0.1405218095 -0.9858647585
outer loop
vertex -16.70711517 -78.62301636 -12.63217258
vertex -17.34499359 -70.47667694 -11.53005409
vertex -14.18855953 -77.90615845 -12.29691219

endloop
endfacet
facet normal 0.02188776061 0.3594108522 -0.9329227209
outer loop
vertex -16.70711517 -78.62301636 -12.63217258
vertex -14.18855953 -77.90615845 -12.29691219
vertex -12.60149384 -83.26017761 -14.32232666

endloop
endfacet
facet normal -0.128467828 0.3173543811 -0.9395649433
outer loop
vertex -12.60149384 -83.26017761 -14.32232666
vertex -14.18855953 -77.90615845 -12.29691219
vertex -10.7924118 -82.65831757 -14.36639595

endloop
endfacet
facet normal -0.3097988963 0.9411128759 0.1353925169
outer loop
vertex -12.60149384 -83.26017761 -14.32232666
vertex -10.7924118 -82.65831757 -14.36639595
vertex -8.122001648 -80.98154449 -19.91133118

endloop
endfacet
facet normal -nan(ind) -nan(ind) -nan(ind)
outer loop
vertex -8.122001648 -80.98154449 -19.91133118
vertex -10.7924118 -82.65831757 -14.36639595
vertex -8.122001648 -80.98154449 -19.91133118

endloop
endfacet
facet normal 0.9999696016 -0.007805933245 0
outer loop
vertex -19.32190704 -60.76053619 -21.44612122
vertex -19.32190704 -60.76053619 -21.44611931
vertex -19.34528351 -63.75514984 -13.13963509

endloop
endfacet
facet normal 0.15553087 -0.9294247031 -0.3346340358
outer loop
vertex -19.34528351 -63.75514984 -13.13963509
vertex -19.32190704 -60.76053619 -21.44611931
vertex -16.83524323 -63.28296661 -13.28448009

endloop
endfacet
facet normal -0.0116473902 -0.2361434996 -0.9716484547
outer loop
vertex -19.34528351 -63.75514984 -13.13963509
vertex -16.83524323 -63.28296661 -13.28448009
vertex -17.34499359 -70.47667694 -11.53005409

endloop
endfacet
facet normal -0.08893176913 -0.2300474048 -0.9691075087
outer loop
vertex -17.34499359 -70.47667694 -11.53005409
vertex -16.83524323 -63.28296661 -13.28448009
vertex -13.97135162 -69.6577301 -12.03404427

endloop
endfacet
facet normal -0.1560977101 0.03556833416 -0.9871010184
outer loop
vertex -17.34499359 -70.47667694 -11.53005409
vertex -13.97135162 -69.6577301 -12.03404427
vertex -14.18855953 -77.90615845 -12.29691219

endloop
endfacet
facet normal -0.2271487862 0.03699496761 -0.9731571674
outer loop
vertex -14.18855953 -77.90615845 -12.29691219
vertex -13.97135162 -69.6577301 -12.03404427
vertex -10.81719208 -76.62684631 -13.03520393

endloop
endfacet
facet normal -0.2831582427 0.2055908144 -0.9367783666
outer loop
vertex -14.18855953 -77.90615845 -12.29691219
vertex -10.81719208 -76.62684631 -13.03520393
vertex -10.7924118 -82.65831757 -14.36639595

endloop
endfacet
facet normal -0.3372197747 0.201575622 -0.9195923209
outer loop
vertex -10.7924118 -82.65831757 -14.36639595
vertex -10.81719208 -76.62684631 -13.03520393
vertex -8.28691864 -81.26538849 -14.97984314

endloop
endfacet
facet normal -0.4791601002 0.8770509958 0.03445694596
outer loop
vertex -10.7924118 -82.65831757 -14.36639595
vertex -8.28691864 -81.26538849 -14.97984314
vertex -8.122001648 -80.98154449 -19.91133118

endloop
endfacet
facet normal -nan(ind) -nan(ind) -nan(ind)
outer loop
vertex -8.122001648 -80.98154449 -19.91133118
vertex -8.28691864 -81.26538849 -14.97984314
vertex -8.122001648 -80.98154449 -19.91133118

endloop
endfacet
facet normal -0.7121375799 -0.7020398974 0
outer loop
vertex -19.32190704 -60.76053619 -21.44611931
vertex -19.32190704 -60.76053619 -21.44612122
vertex -16.83524323 -63.28296661 -13.28448009

endloop
endfacet
facet normal -0.08348537236 -0.9589685202 -0.2709420025
outer loop
vertex -16.83524323 -63.28296661 -13.28448009
vertex -19.32190704 -60.76053619 -21.44612122
vertex -14.85489655 -62.97502899 -14.98459435

endloop
endfacet
facet normal -0.5622460842 -0.3950944841 -0.7264844775
outer loop
vertex -16.83524323 -63.28296661 -13.28448009
vertex -14.85489655 -62.97502899 -14.98459435
vertex -13.97135162 -69.6577301 -12.03404427

endloop
endfacet
facet normal -0.1393583864 -0.4153237045 -0.8989356756
outer loop
vertex -13.97135162 -69.6577301 -12.03404427
vertex -14.85489655 -62.97502899 -14.98459435
vertex -11.07630157 -68.97541046 -12.7980957

endloop
endfacet
facet normal -0.2597730458 0.02112071589 -0.9654387236
outer loop
vertex -13.97135162 -69.6577301 -12.03404427
vertex -11.07630157 -68.97541046 -12.7980957
vertex -10.81719208 -76.62684631 -13.03520393

endloop
endfacet
facet normal 0.07927764952 0.03355835006 -0.9962875247
outer loop
vertex -10.81719208 -76.62684631 -13.03520393
vertex -11.07630157 -68.97541046 -12.7980957
vertex -7.784781933 -75.55309296 -12.75773811

endloop
endfacet
facet normal -0.04437475279 0.365567863 -0.9297263026
outer loop
vertex -10.81719208 -76.62684631 -13.03520393
vertex -7.784781933 -75.55309296 -12.75773811
vertex -8.28691864 -81.26538849 -14.97984314

endloop
endfacet
facet normal -0.01785873808 0.3638446629 -0.9312884212
outer loop
vertex -8.28691864 -81.26538849 -14.97984314
vertex -7.784781933 -75.55309296 -12.75773811
vertex -6.031853199 -80.17458344 -14.59692097

endloop
endfacet
facet normal -0.4402219653 0.8971298337 0.03691478819
outer loop
vertex -8.28691864 -81.26538849 -14.97984314
vertex -6.031853199 -80.17458344 -14.59692097
vertex -8.122001648 -80.98154449 -19.91133118

endloop
endfacet
facet normal -nan(ind) -nan(ind) -nan(ind)
outer loop
vertex -8.122001648 -80.98154449 -19.91133118
vertex -6.031853199 -80.17458344 -14.59692097
vertex -8.122001648 -80.98154449 -19.91133118

endloop
endfacet
facet normal 0.8225705624 0 -0.5686630011
outer loop
vertex -19.32190704 -60.76053619 -21.44612122
vertex -19.32190704 -60.76052094 -21.44612122
vertex -14.85489655 -62.97502899 -14.98459435

endloop
endfacet
facet normal -0.114715375 -0.96137923 -0.2501803637
outer loop
vertex -14.85489655 -62.97502899 -14.98459435
vertex -19.32190704 -60.76052094 -21.44612122
vertex -13.56061554 -62.65399933 -16.81169701

endloop
endfacet
facet normal -0.6125027537 -0.581012845 -0.5359705091
outer loop
vertex -14.85489655 -62.97502899 -14.98459435
vertex -13.56061554 -62.65399933 -16.81169701
vertex -11.07630157 -68.97541046 -12.7980957

endloop
endfacet
facet normal -0.1878690869 -0.5780235529 -0.7940994501
outer loop
vertex -11.07630157 -68.97541046 -12.7980957
vertex -13.56061554 -62.65399933 -16.81169701
vertex -8.979667664 -68.23400879 -13.83378506

endloop
endfacet
facet normal -0.3781721592 -0.1947927922 -0.9050090909
outer loop
vertex -11.07630157 -68.97541046 -12.7980957
vertex -8.979667664 -68.23400879 -13.83378506
vertex -7.784781933 -75.55309296 -12.75773811

endloop
endfacet
facet normal -0.05261366442 -0.1536567956 -0.9867224693
outer loop
vertex -7.784781933 -75.55309296 -12.75773811
vertex -8.979667664 -68.23400879 -13.83378506
vertex -5.756766796 -74.63000488 -13.00962257

endloop
endfacet
facet normal -0.2420437336 0.2781197727 -0.9295505285
outer loop
vertex -7.784781933 -75.55309296 -12.75773811
vertex -5.756766796 -74.63000488 -13.00962257
vertex -6.031853199 -80.17458344 -14.59692097

endloop
endfacet
facet normal -0.3615002036 0.2731434107 -0.8914653063
outer loop
vertex -6.031853199 -80.17458344 -14.59692097
vertex -5.756766796 -74.63000488 -13.00962257
vertex -4.874808788 -79.49017334 -14.85641479

endloop
endfacet
facet normal -0.4973530173 0.8651667237 0.06423777342
outer loop
vertex -6.031853199 -80.17458344 -14.59692097
vertex -4.874808788 -79.49017334 -14.85641479
vertex -8.122001648 -80.98154449 -19.91133118

endloop
endfacet
facet normal -0.8478630185 0.1559288353 0.5067687035
outer loop
vertex -8.122001648 -80.98154449 -19.91133118
vertex -4.874808788 -79.49017334 -14.85641479
vertex -8.122001648 -80.98153687 -19.91133308

endloop
endfacet
facet normal -0.6037842631 0.09887401015 0.7909920812
outer loop
vertex -19.32190704 -60.76052094 -21.44612122
vertex -19.32190704 -60.76053619 -21.44611931
vertex -13.56061554 -62.65399933 -16.81169701

endloop
endfacet
facet normal -0.1895379424 -0.9687227011 -0.1601617932
outer loop
vertex -13.56061554 -62.65399933 -16.81169701
vertex -19.32190704 -60.76053619 -21.44611931
vertex -12.70243073 -62.54154205 -18.50747299

endloop
endfacet
facet normal -0.618160665 -0.6991797686 -0.3592006862
outer loop
vertex -13.56061554 -62.65399933 -16.81169701
vertex -12.70243073 -62.54154205 -18.50747299
vertex -8.979667664 -68.23400879 -13.83378506

endloop
endfacet
facet normal -0.7144188881 -0.6594029665 -0.2340799272
outer loop
vertex -8.979667664 -68.23400879 -13.83378506
vertex -12.70243073 -62.54154205 -18.50747299
vertex -8.40486908 -67.88993835 -16.55733299

endloop
endfacet
facet normal -0.8545297384 -0.4613407552 -0.2386285365
outer loop
vertex -8.979667664 -68.23400879 -13.83378506
vertex -8.40486908 -67.88993835 -16.55733299
vertex -5.756766796 -74.63000488 -13.00962257

endloop
endfacet
facet normal -0.9178789854 -0.3922778666 -0.06013500318
outer loop
vertex -5.756766796 -74.63000488 -13.00962257
vertex -8.40486908 -67.88993835 -16.55733299
vertex -5.771965027 -74.1248703 -16.0727787

endloop
endfacet
facet normal -0.985175252 -0.1699823141 -0.02314312942
outer loop
vertex -5.756766796 -74.63000488 -13.00962257
vertex -5.771965027 -74.1248703 -16.0727787
vertex -4.874808788 -79.49017334 -14.85641479

endloop
endfacet
facet normal -0.9842514396 -0.1401590705 0.1077238619
outer loop
vertex -4.874808788 -79.49017334 -14.85641479
vertex -5.771965027 -74.1248703 -16.0727787
vertex -5.196631908 -79.05558777 -17.23141098

endloop
endfacet
facet normal -0.6691997647 0.7096056342 0.2205259502
outer loop
vertex -4.874808788 -79.49017334 -14.85641479
vertex -5.196631908 -79.05558777 -17.23141098
vertex -8.122001648 -80.98153687 -19.91133308

endloop
endfacet
facet normal 0.7079685926 -0.09037896991 -0.7004370689
outer loop
vertex -8.122001648 -80.98153687 -19.91133308
vertex -5.196631908 -79.05558777 -17.23141098
vertex -8.122001648 -80.98155212 -19.91133118

endloop
endfacet
facet normal -0.2598155737 -0.9656582475 0
outer loop
vertex -19.32190704 -60.76053619 -21.44611931
vertex -19.32190704 -60.76053619 -21.44612122
vertex -12.70243073 -62.54154205 -18.50747299

endloop
endfacet
facet normal -0.2751812935 -0.9606550932 0.03764440864
outer loop
vertex -12.70243073 -62.54154205 -18.50747299
vertex -19.32190704 -60.76053619 -21.44612122
vertex -11.47064972 -63.13115692 -24.54962921

endloop
endfacet
facet normal -0.7595700622 -0.6438836455 -0.092016913
outer loop
vertex -12.70243073 -62.54154205 -18.50747299
vertex -11.47064972 -63.13115692 -24.54962921
vertex -8.40486908 -67.88993835 -16.55733299

endloop
endfacet
facet normal -0.878143549 -0.475361526 0.05380853638
outer loop
vertex -8.40486908 -67.88993835 -16.55733299
vertex -11.47064972 -63.13115692 -24.54962921
vertex -8.718528748 -68.20955658 -24.49979782

endloop
endfacet
facet normal -0.9214274287 -0.3850706518 0.05188442394
outer loop
vertex -8.40486908 -67.88993835 -16.55733299
vertex -8.718528748 -68.20955658 -24.49979782
vertex -5.771965027 -74.1248703 -16.0727787

endloop
endfacet
facet normal -0.9597318769 -0.2060483694 0.1909418106
outer loop
vertex -5.771965027 -74.1248703 -16.0727787
vertex -8.718528748 -68.20955658 -24.49979782
vertex -7.341712952 -73.79964447 -23.61185455

endloop
endfacet
facet normal -0.9679415822 -0.1586924493 0.1946940869
outer loop
vertex -5.771965027 -74.1248703 -16.0727787
vertex -7.341712952 -73.79964447 -23.61185455
vertex -5.196631908 -79.05558777 -17.23141098

endloop
endfacet
facet normal -0.9671546221 -0.1284365207 0.2193530947
outer loop
vertex -5.196631908 -79.05558777 -17.23141098
vertex -7.341712952 -73.79964447 -23.61185455
vertex -6.476996899 -78.35551453 -22.46678734

endloop
endfacet
facet normal -0.6851996183 0.6808937192 0.2586215436
outer loop
vertex -5.196631908 -79.05558777 -17.23141098
vertex -6.476996899 -78.35551453 -22.46678734
vertex -8.122001648 -80.98155212 -19.91133118

endloop
endfacet
facet normal 0.8445085883 0 0.5355420709
outer loop
vertex -8.122001648 -80.98155212 -19.91133118
vertex -6.476996899 -78.35551453 -22.46678734
vertex -8.122001648 -80.98154449 -19.91133118

endloop
endfacet
endsolid
