solid 
facet normal -nan(ind) -nan(ind) -nan(ind)
outer loop
vertex 75.50661469 -73.56233978 64.34187317
vertex 75.50661469 -73.56233978 64.34187317
vertex 71.73500824 -63.39627838 66.07611847

endloop
endfacet
facet normal 0.9151406884 0.3677077293 -0.1652527153
outer loop
vertex 71.73500824 -63.39627838 66.07611847
vertex 75.50661469 -73.56233978 64.34187317
vertex 71.2642746 -64.8771286 60.17420197

endloop
endfacet
facet normal 0.9545366168 -0.2980906367 -0.001339384587
outer loop
vertex 71.73500824 -63.39627838 66.07611847
vertex 71.2642746 -64.8771286 60.17420197
vertex 72.73226166 -60.20357513 66.22541046

endloop
endfacet
facet normal 0.9338898063 -0.3544338942 0.04718520865
outer loop
vertex 72.73226166 -60.20357513 66.22541046
vertex 71.2642746 -64.8771286 60.17420197
vertex 72.49501801 -61.77637482 59.10678101

endloop
endfacet
facet normal 0.3954881132 -0.8995307088 0.1855630577
outer loop
vertex 72.73226166 -60.20357513 66.22541046
vertex 72.49501801 -61.77637482 59.10678101
vertex 75.7191391 -58.95986176 65.88851166

endloop
endfacet
facet normal 0.4549113214 -0.8780840039 0.1484054923
outer loop
vertex 75.7191391 -58.95986176 65.88851166
vertex 72.49501801 -61.77637482 59.10678101
vertex 75.77864838 -60.03629303 59.33707809

endloop
endfacet
facet normal -0.001797251171 -0.9867703319 0.1621146649
outer loop
vertex 75.7191391 -58.95986176 65.88851166
vertex 75.77864838 -60.03629303 59.33707809
vertex 80.13726044 -59.07605743 65.23022461

endloop
endfacet
facet normal 0.07844682038 -0.9915268421 0.103540644
outer loop
vertex 80.13726044 -59.07605743 65.23022461
vertex 75.77864838 -60.03629303 59.33707809
vertex 80.26012421 -59.5641861 60.46271515

endloop
endfacet
facet normal -0.5658956766 -0.8215398192 0.06953086704
outer loop
vertex 80.13726044 -59.07605743 65.23022461
vertex 80.26012421 -59.5641861 60.46271515
vertex 87.6490097 -64.39833832 63.48136902

endloop
endfacet
facet normal 0.3713906705 0 -0.9284766912
outer loop
vertex 87.6490097 -64.39833832 63.48136902
vertex 80.26012421 -59.5641861 60.46271515
vertex 87.6490097 -64.39833069 63.48136902

endloop
endfacet
facet normal -0.2291283309 0.3278775513 0.9165133238
outer loop
vertex 75.50661469 -73.56233978 64.34187317
vertex 75.5066452 -73.56233978 64.3418808
vertex 71.2642746 -64.8771286 60.17420197

endloop
endfacet
facet normal 0.9140409231 0.3845452368 -0.129051134
outer loop
vertex 71.2642746 -64.8771286 60.17420197
vertex 75.5066452 -73.56233978 64.3418808
vertex 71.84798431 -67.40376282 56.77965164

endloop
endfacet
facet normal 0.9088279009 -0.2443279326 0.3381358087
outer loop
vertex 71.2642746 -64.8771286 60.17420197
vertex 71.84798431 -67.40376282 56.77965164
vertex 72.49501801 -61.77637482 59.10678101

endloop
endfacet
facet normal 0.9099062681 -0.2434970737 0.3358268142
outer loop
vertex 72.49501801 -61.77637482 59.10678101
vertex 71.84798431 -67.40376282 56.77965164
vertex 73.37725067 -64.39728546 54.81607819

endloop
endfacet
facet normal 0.3646348417 -0.7594010234 0.5388429165
outer loop
vertex 72.49501801 -61.77637482 59.10678101
vertex 73.37725067 -64.39728546 54.81607819
vertex 75.77864838 -60.03629303 59.33707809

endloop
endfacet
facet normal 0.4546240568 -0.7493891716 0.4813863039
outer loop
vertex 75.77864838 -60.03629303 59.33707809
vertex 73.37725067 -64.39728546 54.81607819
vertex 76.89733124 -62.06391144 55.12413025

endloop
endfacet
facet normal -0.0131458547 -0.9023534656 0.4307963252
outer loop
vertex 75.77864838 -60.03629303 59.33707809
vertex 76.89733124 -62.06391144 55.12413025
vertex 80.26012421 -59.5641861 60.46271515

endloop
endfacet
facet normal 0.05228231847 -0.9166427255 0.3962735832
outer loop
vertex 80.26012421 -59.5641861 60.46271515
vertex 76.89733124 -62.06391144 55.12413025
vertex 81.3167038 -60.90419769 57.22365952

endloop
endfacet
facet normal -0.5818181038 -0.8009065986 0.1415495723
outer loop
vertex 80.26012421 -59.5641861 60.46271515
vertex 81.3167038 -60.90419769 57.22365952
vertex 87.6490097 -64.39833069 63.48136902

endloop
endfacet
facet normal -0.5444555283 0.3629703522 0.7561882734
outer loop
vertex 87.6490097 -64.39833069 63.48136902
vertex 81.3167038 -60.90419769 57.22365952
vertex 87.6490097 -64.39833832 63.48137283

endloop
endfacet
facet normal -0.0414096415 -0.7844485641 -0.618809998
outer loop
vertex 75.5066452 -73.56233978 64.3418808
vertex 75.50661469 -73.56233215 64.34187317
vertex 71.84798431 -67.40376282 56.77965164

endloop
endfacet
facet normal 0.8993300796 0.4287427366 -0.08593695611
outer loop
vertex 71.84798431 -67.40376282 56.77965164
vertex 75.50661469 -73.56233215 64.34187317
vertex 73.28948212 -70.70532227 55.39331818

endloop
endfacet
facet normal 0.7494238615 0.04998678342 0.6602008343
outer loop
vertex 71.84798431 -67.40376282 56.77965164
vertex 73.28948212 -70.70532227 55.39331818
vertex 73.37725067 -64.39728546 54.81607819

endloop
endfacet
facet normal 0.7272283435 0.05250858888 0.6843842268
outer loop
vertex 73.37725067 -64.39728546 54.81607819
vertex 73.28948212 -70.70532227 55.39331818
vertex 75.28957367 -67.96154785 53.05750275

endloop
endfacet
facet normal 0.1619745791 -0.3653692603 0.916662097
outer loop
vertex 73.37725067 -64.39728546 54.81607819
vertex 75.28957367 -67.96154785 53.05750275
vertex 76.89733124 -62.06391144 55.12413025

endloop
endfacet
facet normal 0.2042312175 -0.3728501499 0.9051365852
outer loop
vertex 76.89733124 -62.06391144 55.12413025
vertex 75.28957367 -67.96154785 53.05750275
vertex 78.99773407 -64.97821045 53.4497261

endloop
endfacet
facet normal -0.2111041248 -0.5968815684 0.7740589976
outer loop
vertex 76.89733124 -62.06391144 55.12413025
vertex 78.99773407 -64.97821045 53.4497261
vertex 81.3167038 -60.90419769 57.22365952

endloop
endfacet
facet normal -0.1653828621 -0.6179063916 0.7686612606
outer loop
vertex 81.3167038 -60.90419769 57.22365952
vertex 78.99773407 -64.97821045 53.4497261
vertex 83.13430023 -62.90583038 56.00566864

endloop
endfacet
facet normal -0.6407604814 -0.7287795544 0.2414672822
outer loop
vertex 81.3167038 -60.90419769 57.22365952
vertex 83.13430023 -62.90583038 56.00566864
vertex 87.6490097 -64.39833832 63.48137283

endloop
endfacet
facet normal 0 -0.9809717536 -0.1941506565
outer loop
vertex 87.6490097 -64.39833832 63.48137283
vertex 83.13430023 -62.90583038 56.00566864
vertex 87.64904022 -64.39833832 63.48137283

endloop
endfacet
facet normal -0.9473124743 -0.2864947915 0.1432473958
outer loop
vertex 75.50661469 -73.56233978 64.34186554
vertex 75.50661469 -73.56233215 64.3418808
vertex 73.28942108 -70.7053299 55.39331436

endloop
endfacet
facet normal 0.8736675978 0.4825023413 -0.06242117658
outer loop
vertex 73.28942108 -70.7053299 55.39331436
vertex 75.50661469 -73.56233215 64.3418808
vertex 75.22530365 -74.18502808 55.59125137

endloop
endfacet
facet normal 0.4976436198 0.3226560652 0.8051359057
outer loop
vertex 73.28942108 -70.7053299 55.39331436
vertex 75.22530365 -74.18502808 55.59125137
vertex 75.28954315 -67.96154785 53.05750275

endloop
endfacet
facet normal 0.4371773899 0.3352567255 0.8345530629
outer loop
vertex 75.28954315 -67.96154785 53.05750275
vertex 75.22530365 -74.18502808 55.59125137
vertex 77.90465546 -72.00046539 53.31010056

endloop
endfacet
facet normal -0.1020913497 -0.003888240783 0.9947674274
outer loop
vertex 75.28954315 -67.96154785 53.05750275
vertex 77.90465546 -72.00046539 53.31010056
vertex 78.99770355 -64.97821808 53.4497261

endloop
endfacet
facet normal -0.106919229 -0.003126725089 0.9942628145
outer loop
vertex 78.99770355 -64.97821808 53.4497261
vertex 77.90465546 -72.00046539 53.31010056
vertex 81.81209564 -68.50888062 53.74127197

endloop
endfacet
facet normal -0.4119663537 -0.2561824918 0.8744451404
outer loop
vertex 78.99770355 -64.97821808 53.4497261
vertex 81.81209564 -68.50888062 53.74127197
vertex 83.13426971 -62.90584564 56.00566864

endloop
endfacet
facet normal -0.3852643967 -0.2661769688 0.8835843205
outer loop
vertex 83.13426971 -62.90584564 56.00566864
vertex 81.81209564 -68.50888062 53.74127197
vertex 85.46868134 -65.36903381 56.28150177

endloop
endfacet
facet normal -0.7088217735 -0.6380934715 0.3006796837
outer loop
vertex 83.13426971 -62.90584564 56.00566864
vertex 85.46868134 -65.36903381 56.28150177
vertex 87.6490097 -64.39834595 63.48136902

endloop
endfacet
facet normal 0.9578263164 0 -0.287347883
outer loop
vertex 87.6490097 -64.39834595 63.48136902
vertex 85.46868134 -65.36903381 56.28150177
vertex 87.6490097 -64.39833832 63.48136902

endloop
endfacet
facet normal 0.9988042712 0.03456901759 -0.03456901759
outer loop
vertex 75.50661469 -73.56233215 64.3418808
vertex 75.50661469 -73.56233978 64.34187317
vertex 75.22530365 -74.18502808 55.59125137

endloop
endfacet
facet normal 0.8402351737 0.5382739305 -0.06531470269
outer loop
vertex 75.22530365 -74.18502808 55.59125137
vertex 75.50661469 -73.56233978 64.34187317
vertex 77.1913681 -77.10138702 56.84910965

endloop
endfacet
facet normal 0.2611461282 0.5253395438 0.8098278642
outer loop
vertex 75.22530365 -74.18502808 55.59125137
vertex 77.1913681 -77.10138702 56.84910965
vertex 77.90465546 -72.00046539 53.31010056

endloop
endfacet
facet normal 0.3251619041 0.5079456568 0.7976597548
outer loop
vertex 77.90465546 -72.00046539 53.31010056
vertex 77.1913681 -77.10138702 56.84910965
vertex 80.59410858 -75.66347504 54.54634476

endloop
endfacet
facet normal -0.2386978418 0.1486208588 0.9596537352
outer loop
vertex 77.90465546 -72.00046539 53.31010056
vertex 80.59410858 -75.66347504 54.54634476
vertex 81.81209564 -68.50888062 53.74127197

endloop
endfacet
facet normal -0.09237740189 0.1268572956 0.9876100421
outer loop
vertex 81.81209564 -68.50888062 53.74127197
vertex 80.59410858 -75.66347504 54.54634476
vertex 84.71276093 -71.95852661 54.45569229

endloop
endfacet
facet normal -0.4435982704 -0.1916907877 0.8754857183
outer loop
vertex 81.81209564 -68.50888062 53.74127197
vertex 84.71276093 -71.95852661 54.45569229
vertex 85.46868134 -65.36903381 56.28150177

endloop
endfacet
facet normal -0.3124043941 -0.2202037722 0.9240745306
outer loop
vertex 85.46868134 -65.36903381 56.28150177
vertex 84.71276093 -71.95852661 54.45569229
vertex 87.8571701 -67.8586731 56.49571228

endloop
endfacet
facet normal -0.7012184858 -0.6469535828 0.2995724082
outer loop
vertex 85.46868134 -65.36903381 56.28150177
vertex 87.8571701 -67.8586731 56.49571228
vertex 87.6490097 -64.39833832 63.48136902

endloop
endfacet
facet normal -nan(ind) -nan(ind) -nan(ind)
outer loop
vertex 87.6490097 -64.39833832 63.48136902
vertex 87.8571701 -67.8586731 56.49571228
vertex 87.6490097 -64.39833832 63.48136902

endloop
endfacet
facet normal 0.9756409526 -0 0.2193735838
outer loop
vertex 75.50661469 -73.56233978 64.34187317
vertex 75.50661469 -73.56234741 64.34187317
vertex 77.1913681 -77.10138702 56.84910965

endloop
endfacet
facet normal 0.8152282238 0.5725487471 -0.08712595701
outer loop
vertex 77.1913681 -77.10138702 56.84910965
vertex 75.50661469 -73.56234741 64.34187317
vertex 79.10463715 -79.43864441 59.39206314

endloop
endfacet
facet normal 0.1016666517 0.769377768 0.630651772
outer loop
vertex 77.1913681 -77.10138702 56.84910965
vertex 79.10463715 -79.43864441 59.39206314
vertex 80.59410858 -75.66347504 54.54634476

endloop
endfacet
facet normal 0.1238595173 0.7639659643 0.6332573295
outer loop
vertex 80.59410858 -75.66347504 54.54634476
vertex 79.10463715 -79.43864441 59.39206314
vertex 83.0672226 -78.57426453 57.57422256

endloop
endfacet
facet normal -0.4058427811 0.4703340232 0.7836309671
outer loop
vertex 80.59410858 -75.66347504 54.54634476
vertex 83.0672226 -78.57426453 57.57422256
vertex 84.71276093 -71.95852661 54.45569229

endloop
endfacet
facet normal -0.3436645567 0.468993634 0.8135967255
outer loop
vertex 84.71276093 -71.95852661 54.45569229
vertex 83.0672226 -78.57426453 57.57422256
vertex 87.30449677 -74.76676941 57.16924286

endloop
endfacet
facet normal -0.6496140957 0.1250861585 0.7499032617
outer loop
vertex 84.71276093 -71.95852661 54.45569229
vertex 87.30449677 -74.76676941 57.16924286
vertex 87.8571701 -67.8586731 56.49571228

endloop
endfacet
facet normal -0.5876819491 0.1249557361 0.7993847728
outer loop
vertex 87.8571701 -67.8586731 56.49571228
vertex 87.30449677 -74.76676941 57.16924286
vertex 90.00771332 -69.9908371 58.41001129

endloop
endfacet
facet normal -0.7858332992 -0.5631701946 0.2555490434
outer loop
vertex 87.8571701 -67.8586731 56.49571228
vertex 90.00771332 -69.9908371 58.41001129
vertex 87.6490097 -64.39833832 63.48136902

endloop
endfacet
facet normal 0.9230769277 0.3846153915 0
outer loop
vertex 87.6490097 -64.39833832 63.48136902
vertex 90.00771332 -69.9908371 58.41001129
vertex 87.6490097 -64.39833832 63.4813652

endloop
endfacet
facet normal -0.8088790178 -0 -0.5879750848
outer loop
vertex 75.50661469 -73.56234741 64.34187317
vertex 75.50661469 -73.56233978 64.34187317
vertex 79.10463715 -79.43864441 59.39206314

endloop
endfacet
facet normal 0.7976868153 0.5907168984 -0.1214465946
outer loop
vertex 79.10463715 -79.43864441 59.39206314
vertex 75.50661469 -73.56233978 64.34187317
vertex 80.58760834 -80.79624176 62.52916718

endloop
endfacet
facet normal -0.01474577934 0.9150899053 0.402980268
outer loop
vertex 79.10463715 -79.43864441 59.39206314
vertex 80.58760834 -80.79624176 62.52916718
vertex 83.0672226 -78.57426453 57.57422256

endloop
endfacet
facet normal -0.01251587737 0.9147067666 0.4039244056
outer loop
vertex 83.0672226 -78.57426453 57.57422256
vertex 80.58760834 -80.79624176 62.52916718
vertex 84.95821381 -80.35755157 61.67115784

endloop
endfacet
facet normal -0.5369603038 0.6542208195 0.5326055884
outer loop
vertex 83.0672226 -78.57426453 57.57422256
vertex 84.95821381 -80.35755157 61.67115784
vertex 87.30449677 -74.76676941 57.16924286

endloop
endfacet
facet normal -0.5264669657 0.656222105 0.5405598879
outer loop
vertex 87.30449677 -74.76676941 57.16924286
vertex 84.95821381 -80.35755157 61.67115784
vertex 89.2771225 -76.62289429 61.34371567

endloop
endfacet
facet normal -0.7957167625 0.3161730468 0.5165940523
outer loop
vertex 87.30449677 -74.76676941 57.16924286
vertex 89.2771225 -76.62289429 61.34371567
vertex 90.00771332 -69.9908371 58.41001129

endloop
endfacet
facet normal -0.7789668441 0.3234466612 0.5372084975
outer loop
vertex 90.00771332 -69.9908371 58.41001129
vertex 89.2771225 -76.62289429 61.34371567
vertex 91.65395355 -71.49410248 61.70220184

endloop
endfacet
facet normal -0.8361392617 -0.5175124407 0.1818021983
outer loop
vertex 90.00771332 -69.9908371 58.41001129
vertex 91.65395355 -71.49410248 61.70220184
vertex 87.6490097 -64.39833832 63.4813652

endloop
endfacet
facet normal -0.1521010548 -0.3223093748 0.934335053
outer loop
vertex 87.6490097 -64.39833832 63.4813652
vertex 91.65395355 -71.49410248 61.70220184
vertex 87.64904022 -64.39833069 63.48137283

endloop
endfacet
facet normal -nan(ind) -nan(ind) -nan(ind)
outer loop
vertex 75.50661469 -73.56233978 64.34187317
vertex 75.50661469 -73.56233978 64.34187317
vertex 80.58760834 -80.79624176 62.52916718

endloop
endfacet
facet normal 0.7871967554 0.5942419767 -0.16491732
outer loop
vertex 80.58760834 -80.79624176 62.52916718
vertex 75.50661469 -73.56233978 64.34187317
vertex 81.53395844 -81.08257294 66.01463318

endloop
endfacet
facet normal -0.07930396497 0.9915165305 0.1029851958
outer loop
vertex 80.58760834 -80.79624176 62.52916718
vertex 81.53395844 -81.08257294 66.01463318
vertex 84.95821381 -80.35755157 61.67115784

endloop
endfacet
facet normal -0.06711246818 0.9913744926 0.1125728562
outer loop
vertex 84.95821381 -80.35755157 61.67115784
vertex 81.53395844 -81.08257294 66.01463318
vertex 86.02632904 -80.80717468 66.26754761

endloop
endfacet
facet normal -0.6286441684 0.7461976409 0.2190789133
outer loop
vertex 84.95821381 -80.35755157 61.67115784
vertex 86.02632904 -80.80717468 66.26754761
vertex 89.2771225 -76.62289429 61.34371567

endloop
endfacet
facet normal -0.639780581 0.7402485013 0.2066708058
outer loop
vertex 89.2771225 -76.62289429 61.34371567
vertex 86.02632904 -80.80717468 66.26754761
vertex 90.20439911 -77.16231537 66.14632416

endloop
endfacet
facet normal -0.8914177418 0.397954464 0.2168104798
outer loop
vertex 89.2771225 -76.62289429 61.34371567
vertex 90.20439911 -77.16231537 66.14632416
vertex 91.65395355 -71.49410248 61.70220184

endloop
endfacet
facet normal -0.9002554417 0.3868353963 0.1997460574
outer loop
vertex 91.65395355 -71.49410248 61.70220184
vertex 90.20439911 -77.16231537 66.14632416
vertex 92.31859589 -71.96004486 65.60010529

endloop
endfacet
facet normal -0.8582782149 -0.505949676 0.08586786687
outer loop
vertex 91.65395355 -71.49410248 61.70220184
vertex 92.31859589 -71.96004486 65.60010529
vertex 87.64904022 -64.39833069 63.48137283

endloop
endfacet
facet normal 0.8574929833 0.51449579 0
outer loop
vertex 87.64904022 -64.39833069 63.48137283
vertex 92.31859589 -71.96004486 65.60010529
vertex 87.64904022 -64.39833069 63.48136902

endloop
endfacet
facet normal 0.2424800992 -0.02140001953 -0.9699203968
outer loop
vertex 75.50661469 -73.56233978 64.34187317
vertex 75.5066452 -73.56233978 64.3418808
vertex 81.53395844 -81.08257294 66.01463318

endloop
endfacet
facet normal 0.7857679129 0.5852840543 -0.2000280619
outer loop
vertex 81.53395844 -81.08257294 66.01463318
vertex 75.5066452 -73.56233978 64.3418808
vertex 81.9408493 -80.43094635 69.51968384

endloop
endfacet
facet normal -0.05029861256 0.9829426408 -0.1769005805
outer loop
vertex 81.53395844 -81.08257294 66.01463318
vertex 81.9408493 -80.43094635 69.51968384
vertex 86.02632904 -80.80717468 66.26754761

endloop
endfacet
facet normal -0.04508934543 0.9843227267 -0.1705161482
outer loop
vertex 86.02632904 -80.80717468 66.26754761
vertex 81.9408493 -80.43094635 69.51968384
vertex 86.23470306 -80.00666809 70.83345795

endloop
endfacet
facet normal -0.6556729674 0.7482244372 -0.101257652
outer loop
vertex 86.02632904 -80.80717468 66.26754761
vertex 86.23470306 -80.00666809 70.83345795
vertex 90.20439911 -77.16231537 66.14632416

endloop
endfacet
facet normal -0.6795349717 0.720490098 -0.1382976323
outer loop
vertex 90.20439911 -77.16231537 66.14632416
vertex 86.23470306 -80.00666809 70.83345795
vertex 90.04097748 -76.41462708 70.84454346

endloop
endfacet
facet normal -0.9258915186 0.3667711914 -0.09057500958
outer loop
vertex 90.20439911 -77.16231537 66.14632416
vertex 90.04097748 -76.41462708 70.84454346
vertex 92.31859589 -71.96004486 65.60010529

endloop
endfacet
facet normal -0.9366366267 0.3249968588 -0.1307243407
outer loop
vertex 92.31859589 -71.96004486 65.60010529
vertex 90.04097748 -76.41462708 70.84454346
vertex 91.98192596 -71.41403961 69.36977386

endloop
endfacet
facet normal -0.8508576751 -0.5253962874 0.0001090078367
outer loop
vertex 92.31859589 -71.96004486 65.60010529
vertex 91.98192596 -71.41403961 69.36977386
vertex 87.64904022 -64.39833069 63.48136902

endloop
endfacet
facet normal 0.04817791283 -0.620290637 -0.7828910947
outer loop
vertex 87.64904022 -64.39833069 63.48136902
vertex 91.98192596 -71.41403961 69.36977386
vertex 87.6490097 -64.39833832 63.48137283

endloop
endfacet
facet normal -0.216571331 0.4501627386 0.8662853241
outer loop
vertex 75.5066452 -73.56233978 64.3418808
vertex 75.50661469 -73.56233978 64.34187317
vertex 81.9408493 -80.43094635 69.51968384

endloop
endfacet
facet normal 0.7955515981 0.5437270403 -0.2673173249
outer loop
vertex 81.9408493 -80.43094635 69.51968384
vertex 75.50661469 -73.56233978 64.34187317
vertex 81.26714325 -78.40484619 71.63581085

endloop
endfacet
facet normal 0.1302988976 0.7365413308 -0.663723588
outer loop
vertex 81.9408493 -80.43094635 69.51968384
vertex 81.26714325 -78.40484619 71.63581085
vertex 86.23470306 -80.00666809 70.83345795

endloop
endfacet
facet normal 0.1875239462 0.8381250501 -0.512231648
outer loop
vertex 86.23470306 -80.00666809 70.83345795
vertex 81.26714325 -78.40484619 71.63581085
vertex 85.319664 -77.81320953 74.08745575

endloop
endfacet
facet normal -0.5657300353 0.6012125015 -0.5643519163
outer loop
vertex 86.23470306 -80.00666809 70.83345795
vertex 85.319664 -77.81320953 74.08745575
vertex 90.04097748 -76.41462708 70.84454346

endloop
endfacet
facet normal -0.540024817 0.6831690073 -0.4915823638
outer loop
vertex 90.04097748 -76.41462708 70.84454346
vertex 85.319664 -77.81320953 74.08745575
vertex 88.95775604 -74.62432098 74.52256012

endloop
endfacet
facet normal -0.8950945735 0.235826239 -0.3784068823
outer loop
vertex 90.04097748 -76.41462708 70.84454346
vertex 88.95775604 -74.62432098 74.52256012
vertex 91.98192596 -71.41403961 69.36977386

endloop
endfacet
facet normal -0.8947712779 0.2128779888 -0.3925142288
outer loop
vertex 91.98192596 -71.41403961 69.36977386
vertex 88.95775604 -74.62432098 74.52256012
vertex 90.97182465 -70.19425964 72.33393097

endloop
endfacet
facet normal -0.828956008 -0.5567615032 -0.05337199941
outer loop
vertex 91.98192596 -71.41403961 69.36977386
vertex 90.97182465 -70.19425964 72.33393097
vertex 87.6490097 -64.39833832 63.48137283

endloop
endfacet
facet normal -nan(ind) -nan(ind) -nan(ind)
outer loop
vertex 87.6490097 -64.39833832 63.48137283
vertex 90.97182465 -70.19425964 72.33393097
vertex 87.6490097 -64.39833832 63.48137283

endloop
endfacet
facet normal -0.7847698927 0 0.6197872162
outer loop
vertex 75.50661469 -73.56233978 64.34187317
vertex 75.50661469 -73.56234741 64.34187317
vertex 81.26714325 -78.40484619 71.63581085

endloop
endfacet
facet normal 0.8260071874 0.4251202941 -0.3701146841
outer loop
vertex 81.26714325 -78.40484619 71.63581085
vertex 75.50661469 -73.56234741 64.34187317
vertex 78.92269135 -74.51889038 70.86703491

endloop
endfacet
facet normal 0.4989829957 0.1315856874 -0.8565636277
outer loop
vertex 81.26714325 -78.40484619 71.63581085
vertex 78.92269135 -74.51889038 70.86703491
vertex 85.319664 -77.81320953 74.08745575

endloop
endfacet
facet normal 0.5724864006 0.4280340672 -0.6993182898
outer loop
vertex 85.319664 -77.81320953 74.08745575
vertex 78.92269135 -74.51889038 70.86703491
vertex 82.86608124 -73.94928741 74.44387054

endloop
endfacet
facet normal 0.02473892644 0.1073890552 -0.9939092398
outer loop
vertex 85.319664 -77.81320953 74.08745575
vertex 82.86608124 -73.94928741 74.44387054
vertex 88.95775604 -74.62432098 74.52256012

endloop
endfacet
facet normal 0.0630967021 0.4665570855 -0.8822376132
outer loop
vertex 88.95775604 -74.62432098 74.52256012
vertex 82.86608124 -73.94928741 74.44387054
vertex 86.79628754 -71.74273682 75.89185333

endloop
endfacet
facet normal -0.6237306595 -0.09945204109 -0.7752866149
outer loop
vertex 88.95775604 -74.62432098 74.52256012
vertex 86.79628754 -71.74273682 75.89185333
vertex 90.97182465 -70.19425964 72.33393097

endloop
endfacet
facet normal -0.6310546994 -0.07286074758 -0.7723090649
outer loop
vertex 90.97182465 -70.19425964 72.33393097
vertex 86.79628754 -71.74273682 75.89185333
vertex 89.21166229 -68.27296448 73.59090424

endloop
endfacet
facet normal -0.7700994015 -0.6263397932 -0.1210179478
outer loop
vertex 90.97182465 -70.19425964 72.33393097
vertex 89.21166229 -68.27296448 73.59090424
vertex 87.6490097 -64.39833832 63.48137283

endloop
endfacet
facet normal 0.936329186 0.3511234522 0
outer loop
vertex 87.6490097 -64.39833832 63.48137283
vertex 89.21166229 -68.27296448 73.59090424
vertex 87.6490097 -64.39833832 63.48136902

endloop
endfacet
facet normal 0.8859356046 0 -0.4638082683
outer loop
vertex 75.50661469 -73.56234741 64.34187317
vertex 75.50661469 -73.56233978 64.34187317
vertex 78.92269135 -74.51889038 70.86703491

endloop
endfacet
facet normal 0.8372630477 0.3924022913 -0.3808031082
outer loop
vertex 78.92269135 -74.51889038 70.86703491
vertex 75.50661469 -73.56233978 64.34187317
vertex 77.23357391 -71.93943787 69.81123352

endloop
endfacet
facet normal 0.6565287709 0.1254754663 -0.7437915206
outer loop
vertex 78.92269135 -74.51889038 70.86703491
vertex 77.23357391 -71.93943787 69.81123352
vertex 82.86608124 -73.94928741 74.44387054

endloop
endfacet
facet normal 0.6560096741 0.1214127541 -0.7449229956
outer loop
vertex 82.86608124 -73.94928741 74.44387054
vertex 77.23357391 -71.93943787 69.81123352
vertex 80.37657928 -70.55446625 72.80482483

endloop
endfacet
facet normal 0.4087970853 -0.1359273344 -0.902445972
outer loop
vertex 82.86608124 -73.94928741 74.44387054
vertex 80.37657928 -70.55446625 72.80482483
vertex 86.79628754 -71.74273682 75.89185333

endloop
endfacet
facet normal 0.3679364324 -0.2993077338 -0.8803622127
outer loop
vertex 86.79628754 -71.74273682 75.89185333
vertex 80.37657928 -70.55446625 72.80482483
vertex 83.95671844 -68.42250824 73.57627106

endloop
endfacet
facet normal 0.01827947237 -0.5613790751 -0.8273568153
outer loop
vertex 86.79628754 -71.74273682 75.89185333
vertex 83.95671844 -68.42250824 73.57627106
vertex 89.21166229 -68.27296448 73.59090424

endloop
endfacet
facet normal 0.02172658965 -0.6929510832 -0.7206571698
outer loop
vertex 89.21166229 -68.27296448 73.59090424
vertex 83.95671844 -68.42250824 73.57627106
vertex 86.82238007 -65.84269714 71.18203735

endloop
endfacet
facet normal -0.5852450132 -0.783262372 -0.2097340971
outer loop
vertex 89.21166229 -68.27296448 73.59090424
vertex 86.82238007 -65.84269714 71.18203735
vertex 87.6490097 -64.39833832 63.48136902

endloop
endfacet
facet normal -0.2599201798 0.9536777139 0.1514608413
outer loop
vertex 87.6490097 -64.39833832 63.48136902
vertex 86.82238007 -65.84269714 71.18203735
vertex 87.64904022 -64.39833069 63.48137283

endloop
endfacet
facet normal 0 -0.9586857557 0.2844670713
outer loop
vertex 75.50661469 -73.56233978 64.34187317
vertex 75.5066452 -73.56233978 64.34187317
vertex 77.23357391 -71.93943787 69.81123352

endloop
endfacet
facet normal 0.8281747699 0.4092567563 -0.3829300702
outer loop
vertex 77.23357391 -71.93943787 69.81123352
vertex 75.5066452 -73.56233978 64.34187317
vertex 76.47222137 -70.78796387 69.3952713

endloop
endfacet
facet normal 0.6444488168 0.1556694359 -0.7486338615
outer loop
vertex 77.23357391 -71.93943787 69.81123352
vertex 76.47222137 -70.78796387 69.3952713
vertex 80.37657928 -70.55446625 72.80482483

endloop
endfacet
facet normal 0.6558513045 0.04049075022 -0.7538033724
outer loop
vertex 80.37657928 -70.55446625 72.80482483
vertex 76.47222137 -70.78796387 69.3952713
vertex 78.71266937 -68.39862823 71.47293091

endloop
endfacet
facet normal 0.3567128778 -0.2760714889 -0.8924911618
outer loop
vertex 80.37657928 -70.55446625 72.80482483
vertex 78.71266937 -68.39862823 71.47293091
vertex 83.95671844 -68.42250824 73.57627106

endloop
endfacet
facet normal 0.3296562135 -0.4552858174 -0.8270680904
outer loop
vertex 83.95671844 -68.42250824 73.57627106
vertex 78.71266937 -68.39862823 71.47293091
vertex 81.75701141 -65.91375732 71.31848145

endloop
endfacet
facet normal -0.01044329349 -0.6739577651 -0.7386959791
outer loop
vertex 83.95671844 -68.42250824 73.57627106
vertex 81.75701141 -65.91375732 71.31848145
vertex 86.82238007 -65.84269714 71.18203735

endloop
endfacet
facet normal -0.006101041101 -0.7760377526 -0.630656898
outer loop
vertex 86.82238007 -65.84269714 71.18203735
vertex 81.75701141 -65.91375732 71.31848145
vertex 84.98943329 -63.98537445 68.91429138

endloop
endfacet
facet normal -0.5550050735 -0.8047662973 -0.2105244249
outer loop
vertex 86.82238007 -65.84269714 71.18203735
vertex 84.98943329 -63.98537445 68.91429138
vertex 87.64904022 -64.39833069 63.48137283

endloop
endfacet
facet normal -0.8985201716 0 -0.4389322698
outer loop
vertex 87.64904022 -64.39833069 63.48137283
vertex 84.98943329 -63.98537445 68.91429138
vertex 87.64904022 -64.39832306 63.48137283

endloop
endfacet
facet normal 0 0.8765814304 -0.4812536538
outer loop
vertex 75.5066452 -73.56233978 64.34187317
vertex 75.50661469 -73.56233978 64.34187317
vertex 76.47222137 -70.78796387 69.3952713

endloop
endfacet
facet normal 0.8471960425 0.380499512 -0.3707815707
outer loop
vertex 76.47222137 -70.78796387 69.3952713
vertex 75.50661469 -73.56233978 64.34187317
vertex 75.88774872 -69.93009186 68.94017029

endloop
endfacet
facet normal 0.6534675956 0.04433598369 -0.7556549907
outer loop
vertex 76.47222137 -70.78796387 69.3952713
vertex 75.88774872 -69.93009186 68.94017029
vertex 78.71266937 -68.39862823 71.47293091

endloop
endfacet
facet normal 0.6267381907 0.1178145781 -0.7702720165
outer loop
vertex 78.71266937 -68.39862823 71.47293091
vertex 75.88774872 -69.93009186 68.94017029
vertex 77.60585785 -67.02610016 70.78229523

endloop
endfacet
facet normal 0.2020164728 -0.3053409755 -0.9305676818
outer loop
vertex 78.71266937 -68.39862823 71.47293091
vertex 77.60585785 -67.02610016 70.78229523
vertex 81.75701141 -65.91375732 71.31848145

endloop
endfacet
facet normal 0.1188624054 0.03474019095 -0.9923027158
outer loop
vertex 81.75701141 -65.91375732 71.31848145
vertex 77.60585785 -67.02610016 70.78229523
vertex 80.14476776 -64.17651367 71.18618011

endloop
endfacet
facet normal -0.3738724589 -0.4103161991 -0.8317812085
outer loop
vertex 81.75701141 -65.91375732 71.31848145
vertex 80.14476776 -64.17651367 71.18618011
vertex 84.98943329 -63.98537445 68.91429138

endloop
endfacet
facet normal -0.4225652814 -0.04746868089 -0.9050886035
outer loop
vertex 84.98943329 -63.98537445 68.91429138
vertex 80.14476776 -64.17651367 71.18618011
vertex 83.39415741 -62.39812469 69.57584381

endloop
endfacet
facet normal -0.7319880724 -0.6055215597 -0.3123093545
outer loop
vertex 84.98943329 -63.98537445 68.91429138
vertex 83.39415741 -62.39812469 69.57584381
vertex 87.64904022 -64.39832306 63.48137283

endloop
endfacet
facet normal 0.335696131 -0.7996357083 0.4978863895
outer loop
vertex 87.64904022 -64.39832306 63.48137283
vertex 83.39415741 -62.39812469 69.57584381
vertex 87.6490097 -64.39833832 63.48136902

endloop
endfacet
facet normal -nan(ind) -nan(ind) -nan(ind)
outer loop
vertex 75.50661469 -73.56233978 64.34187317
vertex 75.50661469 -73.56233978 64.34187317
vertex 75.88774872 -69.93009186 68.94017029

endloop
endfacet
facet normal 0.8491317034 0.3779658973 -0.3689406514
outer loop
vertex 75.88774872 -69.93009186 68.94017029
vertex 75.50661469 -73.56233978 64.34187317
vertex 71.73500824 -63.39627838 66.07611847

endloop
endfacet
facet normal 0.6555654407 0.08790293336 -0.7500046492
outer loop
vertex 75.88774872 -69.93009186 68.94017029
vertex 71.73500824 -63.39627838 66.07611847
vertex 77.60585785 -67.02610016 70.78229523

endloop
endfacet
facet normal 0.5657869577 -0.1387189925 -0.8127989769
outer loop
vertex 77.60585785 -67.02610016 70.78229523
vertex 71.73500824 -63.39627838 66.07611847
vertex 72.73226166 -60.20357513 66.22541046

endloop
endfacet
facet normal 0.4342401028 -0.2648668289 -0.8609768152
outer loop
vertex 77.60585785 -67.02610016 70.78229523
vertex 72.73226166 -60.20357513 66.22541046
vertex 80.14476776 -64.17651367 71.18618011

endloop
endfacet
facet normal 0.1743639708 -0.6248882413 -0.7609940767
outer loop
vertex 80.14476776 -64.17651367 71.18618011
vertex 72.73226166 -60.20357513 66.22541046
vertex 75.7191391 -58.95986176 65.88851166

endloop
endfacet
facet normal 0.02934908867 -0.6998608708 -0.7136759758
outer loop
vertex 80.14476776 -64.17651367 71.18618011
vertex 75.7191391 -58.95986176 65.88851166
vertex 83.39415741 -62.39812469 69.57584381

endloop
endfacet
facet normal -0.1042083353 -0.8262692094 -0.5535520315
outer loop
vertex 83.39415741 -62.39812469 69.57584381
vertex 75.7191391 -58.95986176 65.88851166
vertex 80.13726044 -59.07605743 65.23022461

endloop
endfacet
facet normal -0.5950095057 -0.7882978916 -0.1566851288
outer loop
vertex 83.39415741 -62.39812469 69.57584381
vertex 80.13726044 -59.07605743 65.23022461
vertex 87.6490097 -64.39833832 63.48136902

endloop
endfacet
facet normal -nan(ind) -nan(ind) -nan(ind)
outer loop
vertex 87.6490097 -64.39833832 63.48136902
vertex 80.13726044 -59.07605743 65.23022461
vertex 87.6490097 -64.39833832 63.48136902

endloop
endfacet
endsolid
