solid 
facet normal 0.580496 -0.580496 0.571006
outer loop
vertex 61.44989777 -12.08144379 148.3748474
vertex 61.44991302 -12.08142853 148.3748474
vertex 60.43083954 -1.858893991 159.8032837

endloop
endfacet
facet normal -0.3672102094 0.6767554283 -0.6380898952
outer loop
vertex 60.43083954 -1.858893991 159.8032837
vertex 61.44991302 -12.08142853 148.3748474
vertex 51.89525604 -7.356606007 158.8845215

endloop
endfacet
facet normal 0.3375862241 -0.3802244365 -0.8610835075
outer loop
vertex 60.43083954 -1.858893991 159.8032837
vertex 51.89525604 -7.356606007 158.8845215
vertex 53.9630661 8.478569031 152.7029419

endloop
endfacet
facet normal 0.4096334279 -0.3776573241 -0.830406785
outer loop
vertex 53.9630661 8.478569031 152.7029419
vertex 51.89525604 -7.356606007 158.8845215
vertex 45.89922333 1.563544989 151.8699646

endloop
endfacet
facet normal 0.5466349721 -0.5627555251 -0.6200777292
outer loop
vertex 53.9630661 8.478569031 152.7029419
vertex 45.89922333 1.563544989 151.8699646
vertex 47.83086395 14.02523041 142.2631378

endloop
endfacet
facet normal 0.6226115823 -0.5360199213 -0.570120573
outer loop
vertex 47.83086395 14.02523041 142.2631378
vertex 45.89922333 1.563544989 151.8699646
vertex 41.29676056 6.493202209 142.2089539

endloop
endfacet
facet normal 0.6869722009 -0.5929360986 -0.4201143384
outer loop
vertex 47.83086395 14.02521515 142.2631226
vertex 41.29673004 6.493186951 142.2089539
vertex 41.32411957 14.95334625 130.3133392

endloop
endfacet
facet normal 0.7062475085 -0.5777026415 -0.4092359245
outer loop
vertex 41.32411957 14.95334625 130.3133392
vertex 41.29673004 6.493186951 142.2089539
vertex 36.0099411 7.427054882 131.766861

endloop
endfacet
facet normal 0.7947179079 -0.5892560482 -0.1456049234
outer loop
vertex 41.32411957 14.95334625 130.3133392
vertex 36.0099411 7.427054882 131.766861
vertex 35.94974518 10.46683502 119.136467

endloop
endfacet
facet normal 0.7993423939 -0.5833170414 -0.144197613
outer loop
vertex 35.94974518 10.46683502 119.136467
vertex 36.0099411 7.427054882 131.766861
vertex 31.48987579 3.651451111 121.9837189

endloop
endfacet
facet normal 0.8540029526 -0.5024516582 0.1349865794
outer loop
vertex 35.94974518 10.46683502 119.136467
vertex 31.48987579 3.651451111 121.9837189
vertex 33.2286911 2.977103949 108.4728928

endloop
endfacet
facet normal 0.9330562353 -0.3327489793 0.1366904378
outer loop
vertex 33.2286911 2.977103949 108.4728928
vertex 31.48987579 3.651451111 121.9837189
vertex 30.51395416 -3.322273016 111.6690979

endloop
endfacet
facet normal 0.933151722 -0.331050843 0.1401183903
outer loop
vertex 33.2286911 2.977103949 108.4728928
vertex 30.51395416 -3.322273016 111.6690979
vertex 32.44048309 -3.467643976 98.49546051

endloop
endfacet
facet normal 0.9006146789 -0.4127058387 0.1362611949
outer loop
vertex 32.44048309 -3.467643976 98.49546051
vertex 30.51395416 -3.322273016 111.6690979
vertex 29.16301727 -9.774711609 101.0550308

endloop
endfacet
facet normal 0.9009284973 -0.3975075483 0.174113363
outer loop
vertex 32.44048309 -3.467643976 98.49546051
vertex 29.16301727 -9.774711609 101.0550308
vertex 32.58345795 -6.997306824 89.69729614

endloop
endfacet
facet normal 0.7958412766 -0.5982624292 0.09337347001
outer loop
vertex 32.58345795 -6.997306824 89.69729614
vertex 29.16301727 -9.774711609 101.0550308
vertex 27.32233429 -13.81647491 90.84716797

endloop
endfacet
facet normal 0.7863494754 -0.5642778277 0.2514857054
outer loop
vertex 32.58345795 -6.997306824 89.69729614
vertex 27.32233429 -13.81647491 90.84716797
vertex 33.6810379 -8.542549133 82.79818726

endloop
endfacet
facet normal 0.7546727061 -0.6299356222 0.1834401339
outer loop
vertex 33.6810379 -8.542549133 82.79818726
vertex 27.32233429 -13.81647491 90.84716797
vertex 27.90201569 -15.79164886 81.67958832

endloop
endfacet
facet normal 0.6218115091 -0.5773642063 0.5291512012
outer loop
vertex 33.68105316 -8.542533875 82.79819489
vertex 27.90203094 -15.79163361 81.67959595
vertex 36.42223358 -9.67881012 78.33719635

endloop
endfacet
facet normal 0.632311821 -0.6559128761 0.4122622013
outer loop
vertex 36.42223358 -9.67881012 78.33719635
vertex 27.90203094 -15.79163361 81.67959595
vertex 31.69625092 -16.63941193 74.51134491

endloop
endfacet
facet normal 0.4236798286 -0.6399937868 0.6410174966
outer loop
vertex 36.42223358 -9.67881012 78.33719635
vertex 31.69625092 -16.63941193 74.51134491
vertex 40.47585297 -9.815834045 75.52115631

endloop
endfacet
facet normal 0.3760200143 -0.5895957351 0.7148327231
outer loop
vertex 40.47585297 -9.815834045 75.52115631
vertex 31.69625092 -16.63941193 74.51134491
vertex 38.44384003 -16.83390045 70.80152893

endloop
endfacet
facet normal 0.4235683382 -0.5867615342 0.6901454926
outer loop
vertex 40.47583771 -9.815834045 75.52116394
vertex 38.44382477 -16.83390045 70.80152893
vertex 44.93724823 -8.729438782 73.7066803

endloop
endfacet
facet normal 0.2003037483 -0.4688586593 0.8602615595
outer loop
vertex 44.93724823 -8.729438782 73.7066803
vertex 38.44382477 -16.83390045 70.80152893
vertex 46.28099823 -15.72882843 69.57900238

endloop
endfacet
facet normal 0.2875236273 -0.4449642301 0.8481373787
outer loop
vertex 44.93724823 -8.729438782 73.7066803
vertex 46.28099823 -15.72882843 69.57900238
vertex 49.15259552 -6.810554981 73.28437042

endloop
endfacet
facet normal -0.06462013721 -0.3650648296 0.9287366867
outer loop
vertex 49.15259552 -6.810554981 73.28437042
vertex 46.28099823 -15.72882843 69.57900238
vertex 53.778862 -13.08908844 71.13831329

endloop
endfacet
facet normal -0.8000420928 -0.4564005435 -0.3893985152
outer loop
vertex 49.15259552 -6.810538769 73.28437042
vertex 53.778862 -13.08908844 71.13830566
vertex 53.40348053 -20.74115753 80.87827301

endloop
endfacet
facet normal 0 -0.7866249681 -0.6174311638
outer loop
vertex 53.40348053 -20.74115753 80.87827301
vertex 53.778862 -13.08908844 71.13830566
vertex 53.40349579 -20.74115753 80.87827301

endloop
endfacet
facet normal -0.5099080801 0.5099080801 -0.6928113699
outer loop
vertex 61.44991302 -12.08142853 148.3748474
vertex 61.44989777 -12.08144379 148.3748474
vertex 51.89525604 -7.356606007 158.8845215

endloop
endfacet
facet normal -0.1378959864 0.8504304886 -0.5076934695
outer loop
vertex 51.89525604 -7.356606007 158.8845215
vertex 61.44989777 -12.08144379 148.3748474
vertex 49.56491852 -9.40750885 156.0820312

endloop
endfacet
facet normal 0.7656649351 0.008894831873 -0.6431780457
outer loop
vertex 51.89525604 -7.356606007 158.8845215
vertex 49.56491852 -9.40750885 156.0820312
vertex 45.89922333 1.563544989 151.8699646

endloop
endfacet
facet normal 0.7337307334 -0.01562818326 -0.6792606115
outer loop
vertex 45.89922333 1.563544989 151.8699646
vertex 49.56491852 -9.40750885 156.0820312
vertex 43.81572723 -2.485008001 149.7125397

endloop
endfacet
facet normal 0.8513796926 -0.1745460331 -0.4946578741
outer loop
vertex 45.89922333 1.563544989 151.8699646
vertex 43.81572723 -2.485008001 149.7125397
vertex 41.29676056 6.493202209 142.2089539

endloop
endfacet
facet normal 0.9008149505 -0.1003304124 -0.4224526584
outer loop
vertex 41.29676056 6.493202209 142.2089539
vertex 43.81572723 -2.485008001 149.7125397
vertex 40.0803299 1.598366022 140.7776031

endloop
endfacet
facet normal 0.8856627941 -0.08670494705 -0.4561617374
outer loop
vertex 41.29673004 6.493186951 142.2089539
vertex 40.08031464 1.598351002 140.7776031
vertex 36.0099411 7.427054882 131.766861

endloop
endfacet
facet normal 0.9224957228 0.05315505713 -0.3823299706
outer loop
vertex 36.0099411 7.427054882 131.766861
vertex 40.08031464 1.598351002 140.7776031
vertex 36.09050751 2.777427912 131.3148193

endloop
endfacet
facet normal 0.8975427747 0.05804651603 -0.4370898604
outer loop
vertex 36.0099411 7.427054882 131.766861
vertex 36.09050751 2.777427912 131.3148193
vertex 31.48987579 3.651451111 121.9837189

endloop
endfacet
facet normal 0.8945403099 0.1240585595 -0.4294263721
outer loop
vertex 31.48987579 3.651451111 121.9837189
vertex 36.09050751 2.777427912 131.3148193
vertex 32.28227997 -0.1288529932 122.5422745

endloop
endfacet
facet normal 0.963229537 0.171325624 -0.2069697231
outer loop
vertex 31.48987579 3.651451111 121.9837189
vertex 32.28227997 -0.1288529932 122.5422745
vertex 30.51395416 -3.322273016 111.6690979

endloop
endfacet
facet normal 0.8971955776 0.3624302745 -0.2523573637
outer loop
vertex 30.51395416 -3.322273016 111.6690979
vertex 32.28227997 -0.1288529932 122.5422745
vertex 32.0903244 -6.530312061 112.6661835

endloop
endfacet
facet normal 0.8863828778 0.3368428051 -0.3175884187
outer loop
vertex 30.51395416 -3.322273016 111.6690979
vertex 32.0903244 -6.530312061 112.6661835
vertex 29.16301727 -9.774711609 101.0550308

endloop
endfacet
facet normal 0.9048021436 0.2922029197 -0.309758842
outer loop
vertex 29.16301727 -9.774711609 101.0550308
vertex 32.0903244 -6.530312061 112.6661835
vertex 30.73227692 -13.31121063 102.3027573

endloop
endfacet
facet normal 0.9095360041 0.303349942 -0.2841178477
outer loop
vertex 29.16301727 -9.774711609 101.0550308
vertex 30.73227692 -13.31121063 102.3027573
vertex 27.32233429 -13.81647491 90.84716797

endloop
endfacet
facet normal 0.9565387368 0.05159237608 -0.2870048583
outer loop
vertex 27.32233429 -13.81647491 90.84716797
vertex 30.73227692 -13.31121063 102.3027573
vertex 27.94432831 -18.33191681 92.1084671

endloop
endfacet
facet normal 0.9889412522 0.1449675858 0.03129884228
outer loop
vertex 27.32233429 -13.81647491 90.84716797
vertex 27.94432831 -18.33191681 92.1084671
vertex 27.90201569 -15.79164886 81.67958832

endloop
endfacet
facet normal 0.9984039068 -0.05380732194 -0.01715717465
outer loop
vertex 27.90201569 -15.79164886 81.67958832
vertex 27.94432831 -18.33191681 92.1084671
vertex 27.61994171 -21.2951889 82.5251236

endloop
endfacet
facet normal 0.8847981095 0.02612854727 0.465241462
outer loop
vertex 27.90203094 -15.79163361 81.67959595
vertex 27.61995697 -21.29517365 82.52513123
vertex 31.69625092 -16.63941193 74.51134491

endloop
endfacet
facet normal 0.8956723809 -0.0194574222 0.444288671
outer loop
vertex 31.69625092 -16.63941193 74.51134491
vertex 27.61995697 -21.29517365 82.52513123
vertex 31.4280777 -22.69583893 74.78673553

endloop
endfacet
facet normal 0.4821100533 0.01848118939 0.8759157658
outer loop
vertex 31.69625092 -16.63941193 74.51134491
vertex 31.4280777 -22.69583893 74.78673553
vertex 38.44384003 -16.83390045 70.80152893

endloop
endfacet
facet normal 0.5118197799 -0.02884252742 0.8586086035
outer loop
vertex 38.44384003 -16.83390045 70.80152893
vertex 31.4280777 -22.69583893 74.78673553
vertex 38.79264069 -22.75518036 70.3946991

endloop
endfacet
facet normal 0.1618650556 -0.05814615265 0.9850983024
outer loop
vertex 38.44382477 -16.83390045 70.80152893
vertex 38.79264069 -22.7551651 70.39470673
vertex 46.28099823 -15.72882843 69.57900238

endloop
endfacet
facet normal 0.1521469355 -0.04754342139 0.9872137308
outer loop
vertex 46.28099823 -15.72882843 69.57900238
vertex 38.79264069 -22.7551651 70.39470673
vertex 47.49166107 -21.36336517 69.12106323

endloop
endfacet
facet normal -0.1633834839 -0.1147426963 0.9798673391
outer loop
vertex 46.28099823 -15.72882843 69.57900238
vertex 47.49166107 -21.36336517 69.12106323
vertex 53.778862 -13.08908844 71.13831329

endloop
endfacet
facet normal -0.2480270714 -0.04743344709 0.9675911665
outer loop
vertex 53.778862 -13.08908844 71.13831329
vertex 47.49166107 -21.36336517 69.12106323
vertex 56.03031158 -18.20326996 71.46472931

endloop
endfacet
facet normal -0.8509463072 -0.396602124 -0.344379276
outer loop
vertex 53.778862 -13.08908844 71.13830566
vertex 56.03032684 -18.2032547 71.46472931
vertex 53.40349579 -20.74115753 80.87827301

endloop
endfacet
facet normal 0.6726728082 -0.7399400473 0
outer loop
vertex 53.40349579 -20.74115753 80.87827301
vertex 56.03032684 -18.2032547 71.46472931
vertex 53.40349579 -20.74115753 80.87828064

endloop
endfacet
facet normal -0.1340065449 -0.9818780422 0.1340065449
outer loop
vertex 61.44989777 -12.08144379 148.3748474
vertex 61.44991302 -12.08144379 148.3748627
vertex 49.56491852 -9.40750885 156.0820312

endloop
endfacet
facet normal 0.042677138 0.9624451399 -0.2681008279
outer loop
vertex 49.56491852 -9.40750885 156.0820312
vertex 61.44991302 -12.08144379 148.3748627
vertex 49.72875214 -10.08342743 153.6816559

endloop
endfacet
facet normal 0.8109284639 0.5753419995 -0.1066612303
outer loop
vertex 49.56491852 -9.40750885 156.0820312
vertex 49.72875214 -10.08342743 153.6816559
vertex 43.81572723 -2.485008001 149.7125397

endloop
endfacet
facet normal 0.8090786338 0.4093349874 -0.4217067957
outer loop
vertex 43.81572723 -2.485008001 149.7125397
vertex 49.72875214 -10.08342743 153.6816559
vertex 43.97911835 -4.939353943 147.6436768

endloop
endfacet
facet normal 0.9245827794 0.2796485722 -0.258734256
outer loop
vertex 43.81572723 -2.485008001 149.7125397
vertex 43.97911835 -4.939353943 147.6436768
vertex 40.0803299 1.598366022 140.7776031

endloop
endfacet
facet normal 0.9246912003 0.2757073343 -0.2625485957
outer loop
vertex 40.0803299 1.598366022 140.7776031
vertex 43.97911835 -4.939353943 147.6436768
vertex 40.4648056 -1.264793038 139.125061

endloop
endfacet
facet normal 0.8884755373 0.3130161762 -0.3356069326
outer loop
vertex 40.08031464 1.598351002 140.7776031
vertex 40.4648056 -1.264809012 139.125061
vertex 36.09050751 2.777427912 131.3148193

endloop
endfacet
facet normal 0.827611208 0.5280926824 -0.190204367
outer loop
vertex 36.09050751 2.777427912 131.3148193
vertex 40.4648056 -1.264809012 139.125061
vertex 37.29566193 0.5127180219 130.2707977

endloop
endfacet
facet normal 0.664313674 0.5741401911 -0.478592068
outer loop
vertex 36.09050751 2.777427912 131.3148193
vertex 37.29566193 0.5127180219 130.2707977
vertex 32.28227997 -0.1288529932 122.5422745

endloop
endfacet
facet normal 0.6514880061 0.594014287 -0.4719220698
outer loop
vertex 32.28227997 -0.1288529932 122.5422745
vertex 37.29566193 0.5127180219 130.2707977
vertex 34.05718231 -2.340720892 122.2084198

endloop
endfacet
facet normal 0.6812598705 0.6081724167 -0.4074448645
outer loop
vertex 32.28227997 -0.1288529932 122.5422745
vertex 34.05718231 -2.340720892 122.2084198
vertex 32.0903244 -6.530312061 112.6661835

endloop
endfacet
facet normal 0.6761949062 0.6130647063 -0.4085488617
outer loop
vertex 32.0903244 -6.530312061 112.6661835
vertex 34.05718231 -2.340720892 122.2084198
vertex 34.15900421 -8.733879089 112.783432

endloop
endfacet
facet normal 0.6551834345 0.5899695158 -0.4718800485
outer loop
vertex 32.0903244 -6.530312061 112.6661835
vertex 34.15900421 -8.733879089 112.783432
vertex 30.73227692 -13.31121063 102.3027573

endloop
endfacet
facet normal 0.8188919425 0.3772853315 -0.4325178862
outer loop
vertex 30.73227692 -13.31121063 102.3027573
vertex 34.15900421 -8.733879089 112.783432
vertex 32.48946381 -16.24239349 103.0727921

endloop
endfacet
facet normal 0.8242670298 0.3850889802 -0.4150786996
outer loop
vertex 30.73227692 -13.31121063 102.3027573
vertex 32.48946381 -16.24239349 103.0727921
vertex 27.94432831 -18.33191681 92.1084671

endloop
endfacet
facet normal 0.8941794634 0.1877303272 -0.4064485431
outer loop
vertex 27.94432831 -18.33191681 92.1084671
vertex 32.48946381 -16.24239349 103.0727921
vertex 29.3879776 -22.29288483 93.45497894

endloop
endfacet
facet normal 0.9450823069 0.3018493652 -0.1253251433
outer loop
vertex 27.94432831 -18.33191681 92.1084671
vertex 29.3879776 -22.29288483 93.45497894
vertex 27.61994171 -21.2951889 82.5251236

endloop
endfacet
facet normal 0.9489161372 0.2887803614 -0.127138257
outer loop
vertex 27.61994171 -21.2951889 82.5251236
vertex 29.3879776 -22.29288483 93.45497894
vertex 29.20153046 -25.80405426 84.08817291

endloop
endfacet
facet normal 0.8441500068 0.4141274989 0.3404543996
outer loop
vertex 27.61995697 -21.29517365 82.52513123
vertex 29.20154572 -25.804039 84.08818054
vertex 31.4280777 -22.69583893 74.78673553

endloop
endfacet
facet normal 0.8568518162 0.3911834955 0.3358278871
outer loop
vertex 31.4280777 -22.69583893 74.78673553
vertex 29.20154572 -25.804039 84.08818054
vertex 32.92203522 -27.53133392 76.6075058

endloop
endfacet
facet normal 0.4640015066 0.4341119528 0.7721719742
outer loop
vertex 31.4280777 -22.69583893 74.78673553
vertex 32.92203522 -27.53133392 76.6075058
vertex 38.79264069 -22.75518036 70.3946991

endloop
endfacet
facet normal 0.5139982104 0.3730113208 0.7724431157
outer loop
vertex 38.79264069 -22.75518036 70.3946991
vertex 32.92203522 -27.53133392 76.6075058
vertex 39.88213348 -27.69985199 72.05750275

endloop
endfacet
facet normal 0.08397699147 0.3341892958 0.93875736
outer loop
vertex 38.79264069 -22.7551651 70.39470673
vertex 39.88213348 -27.69985199 72.05751038
vertex 47.49166107 -21.36336517 69.12106323

endloop
endfacet
facet normal 0.1004374027 0.3165075183 0.9432578683
outer loop
vertex 47.49166107 -21.36336517 69.12106323
vertex 39.88213348 -27.69985199 72.05751038
vertex 48.49681854 -26.29524994 70.66891479

endloop
endfacet
facet normal -0.3330510259 0.2198901772 0.916910708
outer loop
vertex 47.49166107 -21.36336517 69.12106323
vertex 48.49681854 -26.29524994 70.66891479
vertex 56.03031158 -18.20326996 71.46472931

endloop
endfacet
facet normal -0.3147488236 0.2018124163 0.9274722934
outer loop
vertex 56.03031158 -18.20326996 71.46472931
vertex 48.49681854 -26.29524994 70.66891479
vertex 57.35463715 -22.97997284 72.95353699

endloop
endfacet
facet normal -0.8746063709 -0.3477699161 -0.337816149
outer loop
vertex 56.03032684 -18.2032547 71.46472931
vertex 57.35463715 -22.97995758 72.95353699
vertex 53.40349579 -20.74115753 80.87828064

endloop
endfacet
facet normal 0.8977409601 0.1994979829 0.3927616775
outer loop
vertex 53.40349579 -20.74115753 80.87828064
vertex 57.35463715 -22.97995758 72.95353699
vertex 53.40349579 -20.74114227 80.87827301

endloop
endfacet
facet normal -nan(ind) -nan(ind) -nan(ind)
outer loop
vertex 61.44989777 -12.08144379 148.3748474
vertex 61.44989777 -12.08144379 148.3748474
vertex 49.72873688 -10.08344269 153.6816406

endloop
endfacet
facet normal 0.003441665089 0.938344717 -0.3456839621
outer loop
vertex 49.72873688 -10.08344269 153.6816406
vertex 61.44989777 -12.08144379 148.3748474
vertex 50.55187225 -10.92508698 151.4052277

endloop
endfacet
facet normal 0.68075037 0.7321049571 -0.02452204376
outer loop
vertex 49.72873688 -10.08344269 153.6816406
vertex 50.55187225 -10.92508698 151.4052277
vertex 43.97910309 -4.939369202 147.6436615

endloop
endfacet
facet normal 0.6909195781 0.7203543782 -0.06098984182
outer loop
vertex 43.97910309 -4.939369202 147.6436615
vertex 50.55187225 -10.92508698 151.4052277
vertex 45.46910858 -6.526343822 145.7792511

endloop
endfacet
facet normal 0.7268874645 0.6867469549 -0.003638487076
outer loop
vertex 43.97910309 -4.939369202 147.6436615
vertex 45.46910858 -6.526343822 145.7792511
vertex 40.4648056 -1.264793038 139.125061

endloop
endfacet
facet normal 0.7547764778 0.654037118 -0.05047652125
outer loop
vertex 40.4648056 -1.264793038 139.125061
vertex 45.46910858 -6.526343822 145.7792511
vertex 41.89304352 -3.029823065 137.6115875

endloop
endfacet
facet normal 0.7189807892 0.684609592 -0.1199017391
outer loop
vertex 40.46479034 -1.264809012 139.125061
vertex 41.89304352 -3.029839039 137.6115723
vertex 37.29564667 0.5127180219 130.2707977

endloop
endfacet
facet normal 0.7536928058 0.6361737251 -0.1650156975
outer loop
vertex 37.29564667 0.5127180219 130.2707977
vertex 41.89304352 -3.029839039 137.6115723
vertex 38.66588593 -1.36631 129.285141

endloop
endfacet
facet normal 0.5784522295 0.6676551104 -0.4686466753
outer loop
vertex 37.29564667 0.5127180219 130.2707977
vertex 38.66588593 -1.36631 129.285141
vertex 34.05718231 -2.340720892 122.2084122

endloop
endfacet
facet normal 0.6579790115 0.5582640767 -0.5053759813
outer loop
vertex 34.05718231 -2.340720892 122.2084122
vertex 38.66588593 -1.36631 129.285141
vertex 35.8436203 -4.709449768 121.9176636

endloop
endfacet
facet normal 0.7119640112 0.5846829414 -0.3889126182
outer loop
vertex 34.05718231 -2.340720892 122.2084122
vertex 35.8436203 -4.709449768 121.9176636
vertex 34.15898895 -8.733894348 112.7834244

endloop
endfacet
facet normal 0.76695472 0.5229696631 -0.3718643785
outer loop
vertex 34.15898895 -8.733894348 112.7834244
vertex 35.8436203 -4.709449768 121.9176636
vertex 35.94272614 -11.21805573 112.9687195

endloop
endfacet
facet normal 0.7222123146 0.4815451205 -0.4965114892
outer loop
vertex 34.15898895 -8.733894348 112.7834244
vertex 35.94272614 -11.21805573 112.9687195
vertex 32.48946381 -16.24240875 103.0727921

endloop
endfacet
facet normal 0.8590408564 0.268275857 -0.4359779656
outer loop
vertex 32.48946381 -16.24240875 103.0727921
vertex 35.94272614 -11.21805573 112.9687195
vertex 33.82953644 -19.25049591 103.862236

endloop
endfacet
facet normal 0.8563762903 0.2652405202 -0.4430204332
outer loop
vertex 32.48946381 -16.24240875 103.0727921
vertex 33.82953644 -19.25049591 103.862236
vertex 29.38796234 -22.29290009 93.45497894

endloop
endfacet
facet normal 0.8748871088 0.212137416 -0.4353965521
outer loop
vertex 29.38796234 -22.29290009 93.45497894
vertex 33.82953644 -19.25049591 103.862236
vertex 30.95928192 -25.91493988 94.84763336

endloop
endfacet
facet normal 0.9268028736 0.3452182412 -0.1478538513
outer loop
vertex 29.38796234 -22.29290009 93.45497894
vertex 30.95928192 -25.91493988 94.84763336
vertex 29.2015152 -25.80406952 84.08816528

endloop
endfacet
facet normal 0.8496918082 0.5100846291 -0.133557409
outer loop
vertex 29.2015152 -25.80406952 84.08816528
vertex 30.95928192 -25.91493988 94.84763336
vertex 31.68549347 -29.48140717 85.84667969

endloop
endfacet
facet normal 0.7514306307 0.6180481315 0.2310162783
outer loop
vertex 29.20153046 -25.80405426 84.08818054
vertex 31.68550873 -29.48140717 85.84668732
vertex 32.92203522 -27.53133392 76.60749817

endloop
endfacet
facet normal 0.750641048 0.6189734936 0.2311059088
outer loop
vertex 32.92203522 -27.53133392 76.60749817
vertex 31.68550873 -29.48140717 85.84668732
vertex 35.30437469 -31.21649933 78.73958588

endloop
endfacet
facet normal 0.4294892251 0.6439566612 0.6331341863
outer loop
vertex 32.92203522 -27.53133392 76.60749817
vertex 35.30437469 -31.21649933 78.73958588
vertex 39.88211823 -27.69985199 72.05749512

endloop
endfacet
facet normal 0.4857447743 0.5911547542 0.6438850164
outer loop
vertex 39.88211823 -27.69985199 72.05749512
vertex 35.30437469 -31.21649933 78.73958588
vertex 41.45001984 -31.63021088 74.48316193

endloop
endfacet
facet normal 0.04784288257 0.5383441448 0.841365993
outer loop
vertex 39.88211823 -27.69985199 72.05749512
vertex 41.45000458 -31.63021088 74.48316193
vertex 48.49680328 -26.29524994 70.66890717

endloop
endfacet
facet normal 0.0684768483 0.5187990069 0.8521493673
outer loop
vertex 48.49680328 -26.29524994 70.66890717
vertex 41.45000458 -31.63021088 74.48316193
vertex 49.39019012 -30.45453644 73.12934113

endloop
endfacet
facet normal -0.3693191707 0.413102001 0.8324363232
outer loop
vertex 48.49680328 -26.29524994 70.66890717
vertex 49.39019012 -30.45453644 73.12934113
vertex 57.35460663 -22.97997284 72.95353699

endloop
endfacet
facet normal -0.3422330916 0.3848232329 0.8571975231
outer loop
vertex 57.35460663 -22.97997284 72.95353699
vertex 49.39019012 -30.45453644 73.12934113
vertex 57.84400177 -27.18503571 75.03671265

endloop
endfacet
facet normal -0.8878777027 -0.28302598 -0.3627252877
outer loop
vertex 57.35462189 -22.97995758 72.95352936
vertex 57.84401703 -27.18503571 75.03671265
vertex 53.40346527 -20.74115753 80.87827301

endloop
endfacet
facet normal 0.1117300987 -0.6201020479 0.7765241861
outer loop
vertex 53.40346527 -20.74115753 80.87827301
vertex 57.84401703 -27.18503571 75.03671265
vertex 53.40349579 -20.74114227 80.87828064

endloop
endfacet
facet normal 0 -0.9342899919 0.3565138578
outer loop
vertex 61.44989777 -12.08144379 148.3748474
vertex 61.44991302 -12.08144379 148.3748474
vertex 50.55187225 -10.92508698 151.4052277

endloop
endfacet
facet normal -0.005642833654 0.9273478389 -0.3741579354
outer loop
vertex 50.55187225 -10.92508698 151.4052277
vertex 61.44991302 -12.08144379 148.3748474
vertex 51.82756805 -11.86540985 149.0554047

endloop
endfacet
facet normal 0.6324506402 0.7738683224 0.03367427737
outer loop
vertex 50.55187225 -10.92508698 151.4052277
vertex 51.82756805 -11.86540985 149.0554047
vertex 45.46910858 -6.526343822 145.7792511

endloop
endfacet
facet normal 0.5003625751 0.7996274829 0.3320137858
outer loop
vertex 45.46910858 -6.526343822 145.7792511
vertex 51.82756805 -11.86540985 149.0554047
vertex 48.01300812 -7.383155823 144.0090179

endloop
endfacet
facet normal 0.4295065403 0.8828716278 0.1898995489
outer loop
vertex 45.46910858 -6.526343822 145.7792511
vertex 48.01300812 -7.383155823 144.0090179
vertex 41.89304352 -3.029823065 137.6115875

endloop
endfacet
facet normal 0.4015287161 0.8888488412 0.2207313627
outer loop
vertex 41.89304352 -3.029823065 137.6115875
vertex 48.01300812 -7.383155823 144.0090179
vertex 44.66379547 -4.006324768 136.5035706

endloop
endfacet
facet normal 0.3501023054 0.9353126287 0.05117248371
outer loop
vertex 41.89304352 -3.029839039 137.6115723
vertex 44.66379547 -4.006354809 136.5035706
vertex 38.66588593 -1.36631 129.285141

endloop
endfacet
facet normal 0.5847269297 0.7866583467 -0.1981491446
outer loop
vertex 38.66588593 -1.36631 129.285141
vertex 44.66379547 -4.006354809 136.5035706
vertex 40.98314667 -3.226706982 128.7374115

endloop
endfacet
facet normal 0.463442564 0.7265897393 -0.5072359443
outer loop
vertex 38.66588593 -1.36631 129.285141
vertex 40.98314667 -3.226706982 128.7374115
vertex 35.8436203 -4.709449768 121.9176636

endloop
endfacet
facet normal 0.5253006816 0.658411324 -0.5390303731
outer loop
vertex 35.8436203 -4.709449768 121.9176636
vertex 40.98314667 -3.226706982 128.7374115
vertex 38.40615082 -6.887306213 121.7547302

endloop
endfacet
facet normal 0.546833694 0.6799662113 -0.4884864092
outer loop
vertex 35.8436203 -4.709449768 121.9176636
vertex 38.40615082 -6.887306213 121.7547302
vertex 35.94272614 -11.21805573 112.9687195

endloop
endfacet
facet normal 0.7473797202 0.4884901345 -0.4503343105
outer loop
vertex 35.94272614 -11.21805573 112.9687195
vertex 38.40615082 -6.887306213 121.7547302
vertex 37.95494843 -13.97875214 113.3136215

endloop
endfacet
facet normal 0.7038480639 0.4437198639 -0.5547166467
outer loop
vertex 35.94272614 -11.21805573 112.9687195
vertex 37.95494843 -13.97875214 113.3136215
vertex 33.82953644 -19.25049591 103.862236

endloop
endfacet
facet normal 0.7395544052 0.3964644074 -0.5439441204
outer loop
vertex 33.82953644 -19.25049591 103.862236
vertex 37.95494843 -13.97875214 113.3136215
vertex 36.03012848 -22.17824554 104.7202454

endloop
endfacet
facet normal 0.7435173392 0.4023099244 -0.5341617465
outer loop
vertex 33.82953644 -19.25049591 103.862236
vertex 36.03012848 -22.17824554 104.7202454
vertex 30.95928192 -25.91493988 94.84763336

endloop
endfacet
facet normal 0.6764675975 0.5030833483 -0.5378648639
outer loop
vertex 30.95928192 -25.91493988 94.84763336
vertex 36.03012848 -22.17824554 104.7202454
vertex 33.98073578 -28.5971756 96.13890076

endloop
endfacet
facet normal 0.6980857253 0.6831700802 -0.214371264
outer loop
vertex 30.95928192 -25.91493988 94.84763336
vertex 33.98073578 -28.5971756 96.13890076
vertex 31.68549347 -29.48140717 85.84667969

endloop
endfacet
facet normal 0.6587279439 0.7227710485 -0.2089964151
outer loop
vertex 31.68549347 -29.48140717 85.84667969
vertex 33.98073578 -28.5971756 96.13890076
vertex 34.93230438 -31.96096039 87.50515747

endloop
endfacet
facet normal 0.5736910701 0.8137221932 0.09345977753
outer loop
vertex 31.68550873 -29.48140717 85.84668732
vertex 34.93231964 -31.96096039 87.5051651
vertex 35.30437469 -31.21649933 78.73958588

endloop
endfacet
facet normal 0.5671664476 0.8182707429 0.09356915951
outer loop
vertex 35.30437469 -31.21649933 78.73958588
vertex 34.93231964 -31.96096039 87.5051651
vertex 38.17646027 -33.43912506 80.76759338

endloop
endfacet
facet normal 0.3489595652 0.8364713788 0.4225433767
outer loop
vertex 35.30437469 -31.21649933 78.73958588
vertex 38.17646027 -33.43912506 80.76759338
vertex 41.45001984 -31.63021088 74.48316193

endloop
endfacet
facet normal 0.3491440117 0.8363618255 0.4226078987
outer loop
vertex 41.45001984 -31.63021088 74.48316193
vertex 38.17646027 -33.43912506 80.76759338
vertex 43.37705231 -33.77587128 77.13748169

endloop
endfacet
facet normal -0.007061949 0.7751530409 0.631733954
outer loop
vertex 41.45000458 -31.63021088 74.48316193
vertex 43.37703705 -33.77587128 77.13748169
vertex 49.39019012 -30.45453644 73.12934113

endloop
endfacet
facet normal -0.001962738344 0.771435976 0.6363038421
outer loop
vertex 49.39019012 -30.45453644 73.12934113
vertex 43.37703705 -33.77587128 77.13748169
vertex 50.00684357 -32.87108612 76.06099701

endloop
endfacet
facet normal -0.3994707763 0.6643858552 0.6316759586
outer loop
vertex 49.39019012 -30.45453644 73.12934113
vertex 50.00684357 -32.87108612 76.06099701
vertex 57.84400177 -27.18503571 75.03671265

endloop
endfacet
facet normal -0.3790374696 0.6424158216 0.6660574079
outer loop
vertex 57.84400177 -27.18503571 75.03671265
vertex 50.00684357 -32.87108612 76.06099701
vertex 57.17865753 -30.14008331 77.50823975

endloop
endfacet
facet normal -0.870131135 -0.185837999 -0.4564383626
outer loop
vertex 57.84401703 -27.18503571 75.03671265
vertex 57.17867279 -30.14009857 77.50823975
vertex 53.40349579 -20.74114227 80.87828064

endloop
endfacet
facet normal -0.6689647436 0 -0.7432941794
outer loop
vertex 53.40349579 -20.74114227 80.87828064
vertex 57.17867279 -30.14009857 77.50823975
vertex 53.40349579 -20.74115753 80.87828064

endloop
endfacet
facet normal 0.0209590476 0.9995605946 -0.0209590476
outer loop
vertex 61.44991302 -12.08144379 148.3748474
vertex 61.44989777 -12.08144379 148.3748322
vertex 51.82756805 -11.86540985 149.0554047

endloop
endfacet
facet normal 0.006532235071 0.9760452509 -0.2174692303
outer loop
vertex 51.82756805 -11.86540985 149.0554047
vertex 61.44989777 -12.08144379 148.3748322
vertex 53.29747772 -12.48856354 146.3027191

endloop
endfacet
facet normal 0.6437190771 0.7449612617 0.175095737
outer loop
vertex 51.82756805 -11.86540985 149.0554047
vertex 53.29747772 -12.48856354 146.3027191
vertex 48.01300812 -7.383155823 144.0090179

endloop
endfacet
facet normal 0.5727160573 0.7457356453 0.3404036462
outer loop
vertex 48.01300812 -7.383155823 144.0090179
vertex 53.29747772 -12.48856354 146.3027191
vertex 50.77584076 -8.409202576 141.6084595

endloop
endfacet
facet normal 0.4738839269 0.8626826406 0.1766710728
outer loop
vertex 48.01300812 -7.383155823 144.0090179
vertex 50.77584076 -8.409202576 141.6084595
vertex 44.66379547 -4.006324768 136.5035706

endloop
endfacet
facet normal 0.3606522977 0.8750270605 0.3228893876
outer loop
vertex 44.66379547 -4.006324768 136.5035706
vertex 50.77584076 -8.409202576 141.6084595
vertex 48.20026398 -4.958672047 135.1343536

endloop
endfacet
facet normal 0.2519168258 0.9674927592 -0.02226503752
outer loop
vertex 44.66379547 -4.006354809 136.5035706
vertex 48.20023346 -4.958686829 135.1343384
vertex 40.98314667 -3.226706982 128.7374115

endloop
endfacet
facet normal 0.1850650907 0.9810813069 0.05683701485
outer loop
vertex 40.98314667 -3.226706982 128.7374115
vertex 48.20023346 -4.958686829 135.1343384
vertex 44.85715485 -3.933098078 128.3166199

endloop
endfacet
facet normal 0.1042307988 0.864515245 -0.4916801751
outer loop
vertex 40.98314667 -3.226706982 128.7374115
vertex 44.85715485 -3.933098078 128.3166199
vertex 38.40615082 -6.887306213 121.7547302

endloop
endfacet
facet normal 0.1842768341 0.8156702518 -0.5483832359
outer loop
vertex 38.40615082 -6.887306213 121.7547302
vertex 44.85715485 -3.933098078 128.3166199
vertex 41.75295258 -7.943611145 121.3082199

endloop
endfacet
facet normal 0.1521219462 0.7527332306 -0.6405088305
outer loop
vertex 38.40615082 -6.887306213 121.7547302
vertex 41.75295258 -7.943611145 121.3082199
vertex 37.95494843 -13.97875214 113.3136215

endloop
endfacet
facet normal 0.5027675629 0.5580696464 -0.6601385474
outer loop
vertex 37.95494843 -13.97875214 113.3136215
vertex 41.75295258 -7.943611145 121.3082199
vertex 40.27645111 -16.30770111 113.1128464

endloop
endfacet
facet normal 0.5086340308 0.5631526113 -0.6512684822
outer loop
vertex 37.95494843 -13.97875214 113.3136215
vertex 40.27645111 -16.30770111 113.1128464
vertex 36.03012848 -22.17824554 104.7202454

endloop
endfacet
facet normal 0.5505027175 0.5272023082 -0.6473055482
outer loop
vertex 36.03012848 -22.17824554 104.7202454
vertex 40.27645111 -16.30770111 113.1128464
vertex 38.92298126 -24.66559601 105.1546402

endloop
endfacet
facet normal 0.5826872587 0.5778864026 -0.5714217424
outer loop
vertex 36.03012848 -22.17824554 104.7202454
vertex 38.92298126 -24.66559601 105.1546402
vertex 33.98073578 -28.5971756 96.13890076

endloop
endfacet
facet normal 0.4496856928 0.7017729282 -0.5525373816
outer loop
vertex 33.98073578 -28.5971756 96.13890076
vertex 38.92298126 -24.66559601 105.1546402
vertex 37.96865082 -30.25495148 97.27896118

endloop
endfacet
facet normal 0.4362127483 0.8536773324 -0.2845232189
outer loop
vertex 33.98073578 -28.5971756 96.13890076
vertex 37.96865082 -30.25495148 97.27896118
vertex 34.93230438 -31.96096039 87.50515747

endloop
endfacet
facet normal 0.3799818456 0.8839918375 -0.2723458111
outer loop
vertex 34.93230438 -31.96096039 87.50515747
vertex 37.96865082 -30.25495148 97.27896118
vertex 38.8131485 -33.06916046 89.32273865

endloop
endfacet
facet normal 0.3014440238 0.9513620138 -0.06357527524
outer loop
vertex 34.93231964 -31.96096039 87.5051651
vertex 38.8131485 -33.06916046 89.32274628
vertex 38.17646027 -33.43912506 80.76759338

endloop
endfacet
facet normal 0.2646658123 0.9623889327 -0.06131502613
outer loop
vertex 38.17646027 -33.43912506 80.76759338
vertex 38.8131485 -33.06916046 89.32274628
vertex 41.49530792 -34.18958282 83.31433105

endloop
endfacet
facet normal 0.1393928081 0.9842871428 0.1083906293
outer loop
vertex 38.17646027 -33.43912506 80.76759338
vertex 41.49530792 -34.18958282 83.31433105
vertex 43.37705231 -33.77587128 77.13748169

endloop
endfacet
facet normal 0.08098288625 0.9925389886 0.09114904702
outer loop
vertex 43.37705231 -33.77587128 77.13748169
vertex 41.49530792 -34.18958282 83.31433105
vertex 45.50574493 -34.23937225 80.29335785

endloop
endfacet
facet normal -0.09874813259 0.9728131294 0.2094835639
outer loop
vertex 43.37703705 -33.77587128 77.13748169
vertex 45.50574493 -34.23937225 80.29336548
vertex 50.00684357 -32.87108612 76.06099701

endloop
endfacet
facet normal -0.1341754943 0.9757811427 0.172766313
outer loop
vertex 50.00684357 -32.87108612 76.06099701
vertex 45.50574493 -34.23937225 80.29336548
vertex 50.23969269 -33.45027924 79.5131073

endloop
endfacet
facet normal -0.3813436925 0.9071495533 0.1779231578
outer loop
vertex 50.00684357 -32.87108612 76.06099701
vertex 50.23969269 -33.45027924 79.5131073
vertex 57.17865753 -30.14008331 77.50823975

endloop
endfacet
facet normal -0.3779403865 0.9064333439 0.1885196716
outer loop
vertex 57.17865753 -30.14008331 77.50823975
vertex 50.23969269 -33.45027924 79.5131073
vertex 55.60323334 -31.42891693 80.54678345

endloop
endfacet
facet normal -0.8474046588 -0.1586969793 -0.5066760182
outer loop
vertex 57.17867279 -30.14009857 77.50823975
vertex 55.6032486 -31.42891693 80.54677582
vertex 53.40349579 -20.74115753 80.87828064

endloop
endfacet
facet normal 0.3986239135 0.1103441566 -0.9104521871
outer loop
vertex 53.40349579 -20.74115753 80.87828064
vertex 55.6032486 -31.42891693 80.54677582
vertex 53.40346527 -20.74117279 80.87826538

endloop
endfacet
facet normal 0.04987635836 -0.9987553358 0
outer loop
vertex 61.44989777 -12.08144379 148.3748322
vertex 61.44989777 -12.08144379 148.3748474
vertex 53.29747772 -12.48856354 146.3027191

endloop
endfacet
facet normal -0.07880128175 0.9901785254 0.1154850647
outer loop
vertex 53.29747772 -12.48856354 146.3027191
vertex 61.44989777 -12.08144379 148.3748474
vertex 55.86896515 -11.94756317 143.4187927

endloop
endfacet
facet normal 0.3766735494 0.7898297906 0.484030962
outer loop
vertex 53.29747772 -12.48856354 146.3027191
vertex 55.86896515 -11.94756317 143.4187927
vertex 50.77584076 -8.409202576 141.6084595

endloop
endfacet
facet normal 0.3943348825 0.7994613051 0.4531685114
outer loop
vertex 50.77584076 -8.409202576 141.6084595
vertex 55.86896515 -11.94756317 143.4187927
vertex 54.02565765 -8.532372475 138.9978485

endloop
endfacet
facet normal 0.3123172224 0.8843095303 0.3470656872
outer loop
vertex 50.77584076 -8.409202576 141.6084595
vertex 54.02565765 -8.532372475 138.9978485
vertex 48.20026398 -4.958672047 135.1343536

endloop
endfacet
facet normal 0.3131972253 0.8844627142 0.345880419
outer loop
vertex 48.20026398 -4.958672047 135.1343536
vertex 54.02565765 -8.532372475 138.9978485
vertex 51.87827301 -5.510932922 133.216095

endloop
endfacet
facet normal 0.1787821651 0.9820535779 0.06006412953
outer loop
vertex 48.20023346 -4.958686829 135.1343384
vertex 51.87827301 -5.510948181 133.216095
vertex 44.85715485 -3.933098078 128.3166199

endloop
endfacet
facet normal 0.230492413 0.9729260206 -0.01697799563
outer loop
vertex 44.85715485 -3.933098078 128.3166199
vertex 51.87827301 -5.510948181 133.216095
vertex 48.76892853 -4.876930237 127.3362579

endloop
endfacet
facet normal 0.07494667172 0.850825727 -0.5200755596
outer loop
vertex 44.85715485 -3.933098078 128.3166199
vertex 48.76892853 -4.876930237 127.3362579
vertex 41.75295258 -7.943611145 121.3082199

endloop
endfacet
facet normal 0.1740805507 0.7809146643 -0.5998901725
outer loop
vertex 41.75295258 -7.943611145 121.3082199
vertex 48.76892853 -4.876930237 127.3362579
vertex 45.37044525 -9.101509094 120.8506622

endloop
endfacet
facet normal 0.1274654567 0.6825863123 -0.7196030617
outer loop
vertex 41.75295258 -7.943611145 121.3082199
vertex 45.37044525 -9.101509094 120.8506622
vertex 40.27645111 -16.30770111 113.1128464

endloop
endfacet
facet normal 0.1720225215 0.6618540883 -0.7296283245
outer loop
vertex 40.27645111 -16.30770111 113.1128464
vertex 45.37044525 -9.101509094 120.8506622
vertex 42.994133 -17.48976898 112.6813202

endloop
endfacet
facet normal 0.1734633297 0.6642466187 -0.7271086574
outer loop
vertex 40.27645111 -16.30770111 113.1128464
vertex 42.994133 -17.48976898 112.6813202
vertex 38.92298126 -24.66559601 105.1546402

endloop
endfacet
facet normal 0.1104079336 0.6888436079 -0.7164527178
outer loop
vertex 38.92298126 -24.66559601 105.1546402
vertex 42.994133 -17.48976898 112.6813202
vertex 42.18286896 -25.28739166 105.059166

endloop
endfacet
facet normal 0.1355099678 0.8001531363 -0.5842875838
outer loop
vertex 38.92298126 -24.66559601 105.1546402
vertex 42.18286896 -25.28739166 105.059166
vertex 37.96865082 -30.25495148 97.27896118

endloop
endfacet
facet normal 0.0756226033 0.8213531375 -0.5653850436
outer loop
vertex 37.96865082 -30.25495148 97.27896118
vertex 42.18286896 -25.28739166 105.059166
vertex 42.25759125 -30.14644623 98.01025391

endloop
endfacet
facet normal 0.03244060278 0.9433434606 -0.3302282393
outer loop
vertex 37.96865082 -30.25495148 97.27896118
vertex 42.25759125 -30.14644623 98.01025391
vertex 38.8131485 -33.06916046 89.32273865

endloop
endfacet
facet normal 0.04079258069 0.9420115948 -0.3330916166
outer loop
vertex 38.8131485 -33.06916046 89.32273865
vertex 42.25759125 -30.14644623 98.01025391
vertex 42.8660202 -32.63915253 91.03517914

endloop
endfacet
facet normal -0.02254069783 0.9809429049 -0.1929840147
outer loop
vertex 38.8131485 -33.06916046 89.32274628
vertex 42.8660202 -32.63913727 91.03518677
vertex 41.49530792 -34.18958282 83.31433105

endloop
endfacet
facet normal 0.002603729023 0.9803345203 -0.1973258257
outer loop
vertex 41.49530792 -34.18958282 83.31433105
vertex 42.8660202 -32.63913727 91.03518677
vertex 44.68749237 -33.67061615 85.93473053

endloop
endfacet
facet normal -0.07070808858 0.9913903475 -0.1102065891
outer loop
vertex 41.49530792 -34.18958282 83.31433105
vertex 44.68749237 -33.67061615 85.93473053
vertex 45.50574493 -34.23937225 80.29335785

endloop
endfacet
facet normal -0.1308362484 0.9843305945 -0.1182161123
outer loop
vertex 45.50574493 -34.23937225 80.29335785
vertex 44.68749237 -33.67061615 85.93473053
vertex 47.29473114 -33.62606049 83.42015076

endloop
endfacet
facet normal -0.178202033 0.97984761 -0.09023702145
outer loop
vertex 45.50574493 -34.23937225 80.29336548
vertex 47.29473114 -33.62606049 83.42014313
vertex 50.23969269 -33.45027924 79.5131073

endloop
endfacet
facet normal -0.2597176135 0.9535088539 -0.1528650969
outer loop
vertex 50.23969269 -33.45027924 79.5131073
vertex 47.29473114 -33.62606049 83.42014313
vertex 50.14894867 -32.94004059 82.84993744

endloop
endfacet
facet normal -0.3228578568 0.9342217445 -0.1516329646
outer loop
vertex 50.23969269 -33.45027924 79.5131073
vertex 50.14894867 -32.94004059 82.84993744
vertex 55.60323334 -31.42891693 80.54678345

endloop
endfacet
facet normal -0.3398624361 0.9184740186 -0.2022351921
outer loop
vertex 55.60323334 -31.42891693 80.54678345
vertex 50.14894867 -32.94004059 82.84993744
vertex 53.568367 -31.48357391 83.71820831

endloop
endfacet
facet normal -0.8303617835 -0.1543005556 -0.5354350209
outer loop
vertex 55.6032486 -31.42891693 80.54677582
vertex 53.56839752 -31.48357391 83.71820831
vertex 53.40346527 -20.74117279 80.87826538

endloop
endfacet
facet normal -0.6940963268 0.1740170568 0.6985330582
outer loop
vertex 53.40346527 -20.74117279 80.87826538
vertex 53.56839752 -31.48357391 83.71820831
vertex 53.40348053 -20.74114227 80.87827301

endloop
endfacet
facet normal -nan(ind) -nan(ind) -nan(ind)
outer loop
vertex 61.44989777 -12.08144379 148.3748474
vertex 61.44989777 -12.08144379 148.3748474
vertex 55.86896515 -11.94756317 143.4187927

endloop
endfacet
facet normal -0.1601414233 0.9652721882 0.2064080834
outer loop
vertex 55.86896515 -11.94756317 143.4187927
vertex 61.44989777 -12.08144379 148.3748474
vertex 59.2816391 -10.78157806 140.6137543

endloop
endfacet
facet normal 0.1776380241 0.8132350445 0.5541601777
outer loop
vertex 55.86896515 -11.94756317 143.4187927
vertex 59.2816391 -10.78157806 140.6137543
vertex 54.02565765 -8.532372475 138.9978485

endloop
endfacet
facet normal 0.2025808692 0.8377280235 0.5071219802
outer loop
vertex 54.02565765 -8.532372475 138.9978485
vertex 59.2816391 -10.78157806 140.6137543
vertex 57.62097931 -7.950782776 136.6008759

endloop
endfacet
facet normal 0.1343149245 0.8978500366 0.4193146527
outer loop
vertex 54.02565765 -8.532372475 138.9978485
vertex 57.62097931 -7.950782776 136.6008759
vertex 51.87827301 -5.510932922 133.216095

endloop
endfacet
facet normal 0.2036393285 0.924867332 0.3211719394
outer loop
vertex 51.87827301 -5.510932922 133.216095
vertex 57.62097931 -7.950782776 136.6008759
vertex 55.50835419 -5.656333923 131.3331451

endloop
endfacet
facet normal 0.07494030893 0.9948908091 0.06764870882
outer loop
vertex 51.87827301 -5.510948181 133.216095
vertex 55.50833893 -5.656349182 131.3331299
vertex 48.76892853 -4.876930237 127.3362579

endloop
endfacet
facet normal 0.180490911 0.9769684672 -0.1138226762
outer loop
vertex 48.76892853 -4.876930237 127.3362579
vertex 55.50833893 -5.656349182 131.3331299
vertex 52.3970871 -5.702170849 126.0062561

endloop
endfacet
facet normal -0.007979220711 0.8397957683 -0.5428438783
outer loop
vertex 48.76892853 -4.876930237 127.3362579
vertex 52.3970871 -5.702170849 126.0062561
vertex 45.37044525 -9.101509094 120.8506622

endloop
endfacet
facet normal -0.02199340239 0.8481708765 -0.5292658806
outer loop
vertex 45.37044525 -9.101509094 120.8506622
vertex 52.3970871 -5.702170849 126.0062561
vertex 48.96089935 -9.391747475 120.2363434

endloop
endfacet
facet normal -0.06374075264 0.7054867148 -0.7058510184
outer loop
vertex 45.37044525 -9.101509094 120.8506622
vertex 48.96089935 -9.391747475 120.2363434
vertex 42.994133 -17.48976898 112.6813202

endloop
endfacet
facet normal -0.243189469 0.7514252067 -0.6133670807
outer loop
vertex 42.994133 -17.48976898 112.6813202
vertex 48.96089935 -9.391747475 120.2363434
vertex 46.23406219 -16.81815338 112.2195282

endloop
endfacet
facet normal -0.2404157072 0.691188693 -0.6815118194
outer loop
vertex 42.994133 -17.48976898 112.6813202
vertex 46.23406219 -16.81815338 112.2195282
vertex 42.18286896 -25.28739166 105.059166

endloop
endfacet
facet normal -0.3491442204 0.696765244 -0.6265912056
outer loop
vertex 42.18286896 -25.28739166 105.059166
vertex 46.23406219 -16.81815338 112.2195282
vertex 45.62465668 -23.90110016 104.6829071

endloop
endfacet
facet normal -0.3659230173 0.7644168735 -0.5308175087
outer loop
vertex 42.18286896 -25.28739166 105.059166
vertex 45.62465668 -23.90110016 104.6829071
vertex 42.25759125 -30.14644623 98.01025391

endloop
endfacet
facet normal -0.3088724613 0.7671695352 -0.5621820092
outer loop
vertex 42.25759125 -30.14644623 98.01025391
vertex 45.62465668 -23.90110016 104.6829071
vertex 46.14470673 -28.40189362 98.25527191

endloop
endfacet
facet normal -0.3668853939 0.8654050231 -0.3412758112
outer loop
vertex 42.25759125 -30.14644623 98.01025391
vertex 46.14470673 -28.40189362 98.25527191
vertex 42.8660202 -32.63915253 91.03517914

endloop
endfacet
facet normal -0.3115259707 0.8745006323 -0.3717527688
outer loop
vertex 42.8660202 -32.63915253 91.03517914
vertex 46.14470673 -28.40189362 98.25527191
vertex 46.50060272 -30.76668549 92.39416504

endloop
endfacet
facet normal -0.3445831537 0.8885937333 -0.3027600348
outer loop
vertex 42.8660202 -32.63913727 91.03518677
vertex 46.50060272 -30.76667023 92.39417267
vertex 44.68749237 -33.67061615 85.93473053

endloop
endfacet
facet normal -0.3371226192 0.8904507756 -0.305689007
outer loop
vertex 44.68749237 -33.67061615 85.93473053
vertex 46.50060272 -30.76667023 92.39417267
vertex 47.28081512 -31.87543488 88.30397797

endloop
endfacet
facet normal -0.3238981068 0.8903105855 -0.3200579882
outer loop
vertex 44.68749237 -33.67061615 85.93473053
vertex 47.28081512 -31.87543488 88.30397797
vertex 47.29473114 -33.62606049 83.42015076

endloop
endfacet
facet normal -0.3912048936 0.8659736514 -0.3115261197
outer loop
vertex 47.29473114 -33.62606049 83.42015076
vertex 47.28081512 -31.87543488 88.30397797
vertex 48.45729828 -32.09035492 86.22915649

endloop
endfacet
facet normal -0.2859575748 0.8856541514 -0.3658482432
outer loop
vertex 47.29473114 -33.62606049 83.42014313
vertex 48.45729828 -32.09033966 86.22915649
vertex 50.14894867 -32.94004059 82.84993744

endloop
endfacet
facet normal -0.4095384777 0.8149980903 -0.4099469483
outer loop
vertex 50.14894867 -32.94004059 82.84993744
vertex 48.45729828 -32.09033966 86.22915649
vertex 49.73125458 -31.71382904 85.7049942

endloop
endfacet
facet normal -0.266113162 0.8709811568 -0.4130078852
outer loop
vertex 50.14894867 -32.94004059 82.84993744
vertex 49.73125458 -31.71382904 85.7049942
vertex 53.568367 -31.48357391 83.71820831

endloop
endfacet
facet normal -0.3184113503 0.7903901935 -0.5233522654
outer loop
vertex 53.568367 -31.48357391 83.71820831
vertex 49.73125458 -31.71382904 85.7049942
vertex 51.41292572 -30.55646515 86.42975616

endloop
endfacet
facet normal -0.7987858057 -0.1651962698 -0.5784907341
outer loop
vertex 53.56839752 -31.48357391 83.71820831
vertex 51.41292572 -30.55646515 86.42975616
vertex 53.40348053 -20.74114227 80.87827301

endloop
endfacet
facet normal 0.9444968104 0 0.3285206258
outer loop
vertex 53.40348053 -20.74114227 80.87827301
vertex 51.41292572 -30.55646515 86.42975616
vertex 53.40348053 -20.74115753 80.87827301

endloop
endfacet
facet normal 0 0.9862627983 0.1651840955
outer loop
vertex 61.44989777 -12.08144379 148.3748474
vertex 61.44991302 -12.08144379 148.3748474
vertex 59.2816391 -10.78157806 140.6137543

endloop
endfacet
facet normal -0.117950812 0.9734849334 0.1959967911
outer loop
vertex 59.2816391 -10.78157806 140.6137543
vertex 61.44991302 -12.08144379 148.3748474
vertex 62.80013275 -9.906700134 138.3858032

endloop
endfacet
facet normal 0.1309969723 0.8348271847 0.5346993208
outer loop
vertex 59.2816391 -10.78157806 140.6137543
vertex 62.80013275 -9.906700134 138.3858032
vertex 57.62097931 -7.950782776 136.6008759

endloop
endfacet
facet normal 0.1124948189 0.8157021999 0.5674282908
outer loop
vertex 57.62097931 -7.950782776 136.6008759
vertex 62.80013275 -9.906700134 138.3858032
vertex 61.14876556 -7.210121155 134.8367462

endloop
endfacet
facet normal 0.006009359844 0.917670548 0.3972968161
outer loop
vertex 57.62097931 -7.950782776 136.6008759
vertex 61.14876556 -7.210121155 134.8367462
vertex 55.50835419 -5.656333923 131.3331451

endloop
endfacet
facet normal 0.01933515631 0.9251320362 0.3791528344
outer loop
vertex 55.50835419 -5.656333923 131.3331451
vertex 61.14876556 -7.210121155 134.8367462
vertex 58.62422943 -5.247306824 130.1762238

endloop
endfacet
facet normal -0.1096676067 0.9924167395 0.05551648885
outer loop
vertex 55.50833893 -5.656349182 131.3331299
vertex 58.62422943 -5.247306824 130.1762085
vertex 52.3970871 -5.702170849 126.0062561

endloop
endfacet
facet normal -0.1013350785 0.9939267039 0.04290850833
outer loop
vertex 52.3970871 -5.702170849 126.0062561
vertex 58.62422943 -5.247306824 130.1762085
vertex 55.19612885 -5.37949419 125.142189

endloop
endfacet
facet normal -0.23145248 0.8763048053 -0.4225158095
outer loop
vertex 52.3970871 -5.702170849 126.0062561
vertex 55.19612885 -5.37949419 125.142189
vertex 48.96089935 -9.391747475 120.2363434

endloop
endfacet
facet normal -0.3795940876 0.8916352391 -0.246768862
outer loop
vertex 48.96089935 -9.391747475 120.2363434
vertex 55.19612885 -5.37949419 125.142189
vertex 51.90892792 -8.301948547 119.6392212

endloop
endfacet
facet normal -0.3851163983 0.7386449575 -0.553252995
outer loop
vertex 48.96089935 -9.391747475 120.2363434
vertex 51.90892792 -8.301948547 119.6392212
vertex 46.23406219 -16.81815338 112.2195282

endloop
endfacet
facet normal -0.5260826349 0.7302700877 -0.4358241856
outer loop
vertex 46.23406219 -16.81815338 112.2195282
vertex 51.90892792 -8.301948547 119.6392212
vertex 49.38713837 -14.71726227 111.9337234

endloop
endfacet
facet normal -0.4887293279 0.6551175117 -0.5761637688
outer loop
vertex 46.23406219 -16.81815338 112.2195282
vertex 49.38713837 -14.71726227 111.9337234
vertex 45.62465668 -23.90110016 104.6829071

endloop
endfacet
facet normal -0.6677618623 0.6101817489 -0.4263476729
outer loop
vertex 45.62465668 -23.90110016 104.6829071
vertex 49.38713837 -14.71726227 111.9337234
vertex 48.35062408 -21.14582062 104.3567047

endloop
endfacet
facet normal -0.6552531719 0.5928572416 -0.4681491554
outer loop
vertex 45.62465668 -23.90110016 104.6829071
vertex 48.35062408 -21.14582062 104.3567047
vertex 46.14470673 -28.40189362 98.25527191

endloop
endfacet
facet normal -0.7087596059 0.5676580667 -0.4188366234
outer loop
vertex 46.14470673 -28.40189362 98.25527191
vertex 48.35062408 -21.14582062 104.3567047
vertex 48.61206818 -25.38550568 98.16815186

endloop
endfacet
facet normal -0.7453214526 0.6013473868 -0.2878839076
outer loop
vertex 46.14470673 -28.40189362 98.25527191
vertex 48.61206818 -25.38550568 98.16815186
vertex 46.50060272 -30.76668549 92.39416504

endloop
endfacet
facet normal -0.6463105679 0.6615912914 -0.380236268
outer loop
vertex 46.50060272 -30.76668549 92.39416504
vertex 48.61206818 -25.38550568 98.16815186
vertex 49.1841507 -27.64560699 93.26329041

endloop
endfacet
facet normal -0.6764647961 0.66799891 -0.3101171851
outer loop
vertex 46.50060272 -30.76667023 92.39417267
vertex 49.18416595 -27.64560699 93.26329803
vertex 47.28081512 -31.87543488 88.30397797

endloop
endfacet
facet normal -0.7436394095 0.6220245361 -0.2451243997
outer loop
vertex 47.28081512 -31.87543488 88.30397797
vertex 49.18416595 -27.64560699 93.26329803
vertex 49.30571747 -28.77877045 90.01904297

endloop
endfacet
facet normal -0.6314601898 0.6484166384 -0.4252220988
outer loop
vertex 47.28081512 -31.87543488 88.30397797
vertex 49.30571747 -28.77877045 90.01904297
vertex 48.45729828 -32.09035492 86.22915649

endloop
endfacet
facet normal -0.8975676894 0.4113866985 -0.1585346311
outer loop
vertex 48.45729828 -32.09035492 86.22915649
vertex 49.30571747 -28.77877045 90.01904297
vertex 49.33013153 -29.34171295 88.42002106

endloop
endfacet
facet normal -0.4464387298 0.6401298642 -0.6252409816
outer loop
vertex 48.45729828 -32.09033966 86.22915649
vertex 49.33011627 -29.34171295 88.42002106
vertex 49.73125458 -31.71382904 85.7049942

endloop
endfacet
facet normal -0.8782688975 -0.4167839885 0.2343817502
outer loop
vertex 49.73125458 -31.71382904 85.7049942
vertex 49.33011627 -29.34171295 88.42002106
vertex 49.24594879 -29.41663361 87.97140503

endloop
endfacet
facet normal -0.1557836682 0.6768738031 -0.7194256783
outer loop
vertex 49.73125458 -31.71382904 85.7049942
vertex 49.24594879 -29.41663361 87.97140503
vertex 51.41292572 -30.55646515 86.42975616

endloop
endfacet
facet normal -0.3364676535 0.4666290283 -0.8179529309
outer loop
vertex 51.41292572 -30.55646515 86.42975616
vertex 49.24594879 -29.41663361 87.97140503
vertex 49.40651703 -28.56093597 88.39351654

endloop
endfacet
facet normal -0.7750697732 -0.1846076399 -0.6043069363
outer loop
vertex 51.41292572 -30.55646515 86.42975616
vertex 49.40651703 -28.56092072 88.39351654
vertex 53.40348053 -20.74115753 80.87827301

endloop
endfacet
facet normal -0.8944271803 0.4472135901 0
outer loop
vertex 53.40348053 -20.74115753 80.87827301
vertex 49.40651703 -28.56092072 88.39351654
vertex 53.40348053 -20.74115753 80.87828064

endloop
endfacet
facet normal 0 -0.9771110415 -0.2127296776
outer loop
vertex 61.44991302 -12.08144379 148.3748474
vertex 61.44989777 -12.08144379 148.3748474
vertex 62.80013275 -9.906700134 138.3858032

endloop
endfacet
facet normal -0.2510465682 0.9523176551 0.1733974814
outer loop
vertex 62.80013275 -9.906700134 138.3858032
vertex 61.44989777 -12.08144379 148.3748474
vertex 66.09426117 -8.92049408 137.7387238

endloop
endfacet
facet normal -0.1055781245 0.7675112486 0.6322814822
outer loop
vertex 62.80013275 -9.906700134 138.3858032
vertex 66.09426117 -8.92049408 137.7387238
vertex 61.14876556 -7.210121155 134.8367462

endloop
endfacet
facet normal -0.1885853112 0.67114079 0.7169418335
outer loop
vertex 61.14876556 -7.210121155 134.8367462
vertex 66.09426117 -8.92049408 137.7387238
vertex 64.15111542 -5.827064991 134.3317871

endloop
endfacet
facet normal -0.2911815643 0.8150073886 0.5009752512
outer loop
vertex 61.14876556 -7.210121155 134.8367462
vertex 64.15111542 -5.827064991 134.3317871
vertex 58.62422943 -5.247306824 130.1762238

endloop
endfacet
facet normal -0.4196331203 0.6366937757 0.6469382048
outer loop
vertex 58.62422943 -5.247306824 130.1762238
vertex 64.15111542 -5.827064991 134.3317871
vertex 60.67690277 -3.662467957 129.947937

endloop
endfacet
facet normal -0.5470021367 0.7592676282 0.3525637686
outer loop
vertex 58.62422943 -5.247306824 130.1762085
vertex 60.67688751 -3.662497997 129.9479218
vertex 55.19612885 -5.37949419 125.142189

endloop
endfacet
facet normal -0.6365454793 0.5662046671 0.5236622691
outer loop
vertex 55.19612885 -5.37949419 125.142189
vertex 60.67688751 -3.662497997 129.9479218
vertex 56.62116241 -3.607979059 124.9589767

endloop
endfacet
facet normal -0.7669167519 0.6297123432 0.1236975193
outer loop
vertex 55.19612885 -5.37949419 125.142189
vertex 56.62116241 -3.607979059 124.9589767
vertex 51.90892792 -8.301948547 119.6392212

endloop
endfacet
facet normal -0.6723852754 0.7381042242 -0.05567964166
outer loop
vertex 51.90892792 -8.301948547 119.6392212
vertex 56.62116241 -3.607979059 124.9589767
vertex 53.85936737 -6.557030201 119.2168961

endloop
endfacet
facet normal -0.667457819 0.6649502516 -0.335173279
outer loop
vertex 51.90892792 -8.301948547 119.6392212
vertex 53.85936737 -6.557030201 119.2168961
vertex 49.38713837 -14.71726227 111.9337234

endloop
endfacet
facet normal -0.7587779164 0.6128219962 -0.2206924856
outer loop
vertex 49.38713837 -14.71726227 111.9337234
vertex 53.85936737 -6.557030201 119.2168961
vertex 51.47740936 -12.21216583 111.7032089

endloop
endfacet
facet normal -0.7258730531 0.5702881217 -0.3845513165
outer loop
vertex 49.38713837 -14.71726227 111.9337234
vertex 51.47740936 -12.21216583 111.7032089
vertex 48.35062408 -21.14582062 104.3567047

endloop
endfacet
facet normal -0.9535105228 0.2982565463 0.04313639924
outer loop
vertex 48.35062408 -21.14582062 104.3567047
vertex 51.47740936 -12.21216583 111.7032089
vertex 49.39276886 -17.76232147 103.9984283

endloop
endfacet
facet normal -0.9382959604 0.2655419707 -0.2215584815
outer loop
vertex 48.35062408 -21.14582062 104.3567047
vertex 49.39276886 -17.76232147 103.9984283
vertex 48.61206818 -25.38550568 98.16815186

endloop
endfacet
facet normal -0.9896358252 0.1361852884 -0.04554780945
outer loop
vertex 48.61206818 -25.38550568 98.16815186
vertex 49.39276886 -17.76232147 103.9984283
vertex 49.16190338 -21.51076508 97.80690765

endloop
endfacet
facet normal -0.977651 0.1228236407 -0.1706247777
outer loop
vertex 48.61206818 -25.38550568 98.16815186
vertex 49.16190338 -21.51076508 97.80690765
vertex 49.1841507 -27.64560699 93.26329041

endloop
endfacet
facet normal -0.8482496738 0.3132086992 -0.4270511568
outer loop
vertex 49.1841507 -27.64560699 93.26329041
vertex 49.16190338 -21.51076508 97.80690765
vertex 50.56615448 -23.55434418 93.5188446

endloop
endfacet
facet normal -0.9340640306 0.3247920275 -0.1484406739
outer loop
vertex 49.18416595 -27.64560699 93.26329803
vertex 50.56616974 -23.55432892 93.51885223
vertex 49.30571747 -28.77877045 90.01904297

endloop
endfacet
facet normal -0.9153457284 0.3519236743 -0.1956835091
outer loop
vertex 49.30571747 -28.77877045 90.01904297
vertex 50.56616974 -23.55432892 93.51885223
vertex 50.75807953 -24.60147858 90.7379303

endloop
endfacet
facet normal -0.9282640219 0.3461501598 -0.1360365599
outer loop
vertex 49.30571747 -28.77877045 90.01904297
vertex 50.75807953 -24.60147858 90.7379303
vertex 49.33013153 -29.34171295 88.42002106

endloop
endfacet
facet normal -0.840915978 -0.0112478761 0.5410487652
outer loop
vertex 49.33013153 -29.34171295 88.42002106
vertex 50.75807953 -24.60147858 90.7379303
vertex 50.1089859 -25.23671722 89.71588135

endloop
endfacet
facet normal -0.977728188 0.134705767 0.160940811
outer loop
vertex 49.33011627 -29.34171295 88.42002106
vertex 50.1089859 -25.23673248 89.71588898
vertex 49.24594879 -29.41663361 87.97140503

endloop
endfacet
facet normal -0.04506650567 -0.376822859 0.9251883626
outer loop
vertex 49.24594879 -29.41663361 87.97140503
vertex 50.1089859 -25.23673248 89.71588898
vertex 48.73618317 -25.59889984 89.50151062

endloop
endfacet
facet normal 0.2549914718 0.3888675869 -0.8853029609
outer loop
vertex 49.24594879 -29.41663361 87.97140503
vertex 48.73618317 -25.59889984 89.50151062
vertex 49.40651703 -28.56093597 88.39351654

endloop
endfacet
facet normal -0.3258932233 -0.3950424492 0.858915031
outer loop
vertex 49.40651703 -28.56093597 88.39351654
vertex 48.73618317 -25.59889984 89.50151062
vertex 47.64209747 -25.24472809 89.24928284

endloop
endfacet
facet normal -0.7394061089 -0.230130434 -0.6327072978
outer loop
vertex 49.40651703 -28.56092072 88.39351654
vertex 47.64211273 -25.24472809 89.24929047
vertex 53.40348053 -20.74115753 80.87828064

endloop
endfacet
facet normal 0.6000000238 -0.8000000119 0
outer loop
vertex 53.40348053 -20.74115753 80.87828064
vertex 47.64211273 -25.24472809 89.24929047
vertex 53.40348053 -20.74115753 80.87827301

endloop
endfacet
facet normal 0.562648654 -0.8266960979 0
outer loop
vertex 61.44989777 -12.08144379 148.3748474
vertex 61.44989777 -12.08144379 148.3748322
vertex 66.09426117 -8.92049408 137.7387238

endloop
endfacet
facet normal -0.6480420828 0.7594479322 -0.05727339536
outer loop
vertex 66.09426117 -8.92049408 137.7387238
vertex 61.44989777 -12.08144379 148.3748322
vertex 68.82085419 -6.466773987 139.4240723

endloop
endfacet
facet normal -0.6831917763 0.302731216 0.6645320654
outer loop
vertex 66.09426117 -8.92049408 137.7387238
vertex 68.82085419 -6.466773987 139.4240723
vertex 64.15111542 -5.827064991 134.3317871

endloop
endfacet
facet normal -0.7068873048 0.2118747681 0.6748477221
outer loop
vertex 64.15111542 -5.827064991 134.3317871
vertex 68.82085419 -6.466773987 139.4240723
vertex 66.11553192 -2.957451105 135.4885254

endloop
endfacet
facet normal -0.7103664279 0.2163031399 0.6697704196
outer loop
vertex 64.15111542 -5.827064991 134.3317871
vertex 66.11553192 -2.957451105 135.4885254
vertex 60.67690277 -3.662467957 129.947937

endloop
endfacet
facet normal -0.7097916603 0.2221627831 0.6684605479
outer loop
vertex 60.67690277 -3.662467957 129.947937
vertex 66.11553192 -2.957451105 135.4885254
vertex 62.06826019 -0.5790789723 130.4005585

endloop
endfacet
facet normal -0.7502509952 0.2486175001 0.6126277447
outer loop
vertex 60.67688751 -3.662497997 129.9479218
vertex 62.06824493 -0.5790939927 130.400528
vertex 56.62116241 -3.607979059 124.9589767

endloop
endfacet
facet normal -0.7514485717 0.3701699376 0.5461677909
outer loop
vertex 56.62116241 -3.607979059 124.9589767
vertex 62.06824493 -0.5790939927 130.400528
vertex 57.91954803 -0.4625470042 124.6135254

endloop
endfacet
facet normal -0.8911940455 0.392791748 0.2269094139
outer loop
vertex 56.62116241 -3.607979059 124.9589767
vertex 57.91954803 -0.4625470042 124.6135254
vertex 53.85936737 -6.557030201 119.2168961

endloop
endfacet
facet normal -0.8722179532 0.4739072919 0.1210277304
outer loop
vertex 53.85936737 -6.557030201 119.2168961
vertex 57.91954803 -0.4625470042 124.6135254
vertex 55.23410797 -3.784996033 118.2698898

endloop
endfacet
facet normal -0.9005634189 0.4328534007 -0.04029186442
outer loop
vertex 53.85936737 -6.557030201 119.2168961
vertex 55.23410797 -3.784996033 118.2698898
vertex 51.47740936 -12.21216583 111.7032089

endloop
endfacet
facet normal -0.9433121681 0.2688425779 0.1946427822
outer loop
vertex 51.47740936 -12.21216583 111.7032089
vertex 55.23410797 -3.784996033 118.2698898
vertex 52.11521149 -9.263893127 110.7220535

endloop
endfacet
facet normal -0.9669004083 0.2389489114 0.08948162198
outer loop
vertex 51.47740936 -12.21216583 111.7032089
vertex 52.11521149 -9.263893127 110.7220535
vertex 49.39276886 -17.76232147 103.9984283

endloop
endfacet
facet normal -0.9411276579 0.03551394492 0.3361808062
outer loop
vertex 49.39276886 -17.76232147 103.9984283
vertex 52.11521149 -9.263893127 110.7220535
vertex 49.15949249 -14.4417038 102.9945908

endloop
endfacet
facet normal -0.9964996576 -0.04967990518 0.06723383814
outer loop
vertex 49.39276886 -17.76232147 103.9984283
vertex 49.15949249 -14.4417038 102.9945908
vertex 49.16190338 -21.51076508 97.80690765

endloop
endfacet
facet normal -0.9860144854 -0.09882079065 0.1342011541
outer loop
vertex 49.16190338 -21.51076508 97.80690765
vertex 49.15949249 -14.4417038 102.9945908
vertex 48.64929962 -17.70165253 96.84555054

endloop
endfacet
facet normal -0.9565739632 -0.1854806691 -0.2248627245
outer loop
vertex 49.16190338 -21.51076508 97.80690765
vertex 48.64929962 -17.70165253 96.84555054
vertex 50.56615448 -23.55434418 93.5188446

endloop
endfacet
facet normal -0.9330403209 -0.1110811606 -0.3421940804
outer loop
vertex 50.56615448 -23.55434418 93.5188446
vertex 48.64929962 -17.70165253 96.84555054
vertex 50.27257538 -19.18914032 92.90232086

endloop
endfacet
facet normal -0.9964852929 -0.07286236435 -0.04133071378
outer loop
vertex 50.56616974 -23.55432892 93.51885223
vertex 50.27256012 -19.18912506 92.90232849
vertex 50.75807953 -24.60147858 90.7379303

endloop
endfacet
facet normal -0.9912952185 -0.03858699277 -0.1258764118
outer loop
vertex 50.75807953 -24.60147858 90.7379303
vertex 50.27256012 -19.18912506 92.90232849
vertex 50.60857391 -20.04969025 90.51997375

endloop
endfacet
facet normal -0.8435846567 -0.001994738588 0.5369924307
outer loop
vertex 50.75807953 -24.60147858 90.7379303
vertex 50.60857391 -20.04969025 90.51997375
vertex 50.1089859 -25.23671722 89.71588135

endloop
endfacet
facet normal -0.4219767451 -0.09905800223 0.9011787176
outer loop
vertex 50.1089859 -25.23671722 89.71588135
vertex 50.60857391 -20.04969025 90.51997375
vertex 49.80258942 -20.37189484 90.10715485

endloop
endfacet
facet normal -0.1310771555 -0.08767464757 0.9874876738
outer loop
vertex 50.1089859 -25.23673248 89.71588898
vertex 49.80258942 -20.37187958 90.10714722
vertex 48.73618317 -25.59889984 89.50151062

endloop
endfacet
facet normal -0.04319344833 -0.1062891632 0.9933966398
outer loop
vertex 48.73618317 -25.59889984 89.50151062
vertex 49.80258942 -20.37187958 90.10714722
vertex 47.50200653 -20.62378693 89.98016357

endloop
endfacet
facet normal -0.270213604 -0.1584002078 0.9496810436
outer loop
vertex 48.73618317 -25.59889984 89.50151062
vertex 47.50200653 -20.62378693 89.98016357
vertex 47.64209747 -25.24472809 89.24928284

endloop
endfacet
facet normal -0.7099527717 -0.1309692115 0.6919639111
outer loop
vertex 47.64209747 -25.24472809 89.24928284
vertex 47.50200653 -20.62378693 89.98016357
vertex 45.98459625 -20.67221832 88.41413879

endloop
endfacet
facet normal -0.6662859917 -0.3607251048 -0.652641058
outer loop
vertex 47.64211273 -25.24472809 89.24929047
vertex 45.98461151 -20.67221832 88.41414642
vertex 53.40348053 -20.74115753 80.87827301

endloop
endfacet
facet normal -0.009374587797 -0.9999560714 0
outer loop
vertex 53.40348053 -20.74115753 80.87827301
vertex 45.98461151 -20.67221832 88.41414642
vertex 53.40348053 -20.74115753 80.87826538

endloop
endfacet
facet normal -0.6059546471 0.7954992056 0
outer loop
vertex 61.44989777 -12.08144379 148.3748322
vertex 61.44989777 -12.08144379 148.3748474
vertex 68.82085419 -6.466773987 139.4240723

endloop
endfacet
facet normal -0.74330163 0.6335740089 -0.2146780938
outer loop
vertex 68.82085419 -6.466773987 139.4240723
vertex 61.44989777 -12.08144379 148.3748474
vertex 69.94326019 -4.124396801 142.4508514

endloop
endfacet
facet normal -0.8755881786 -0.1664253324 0.453484118
outer loop
vertex 68.82085419 -6.466773987 139.4240723
vertex 69.94326019 -4.124396801 142.4508514
vertex 66.11553192 -2.957451105 135.4885254

endloop
endfacet
facet normal -0.8749524355 0.01715799607 0.4839047492
outer loop
vertex 66.11553192 -2.957451105 135.4885254
vertex 69.94326019 -4.124396801 142.4508514
vertex 67.30904388 0.4778209925 137.5247192

endloop
endfacet
facet normal -0.7975766659 -0.07748308033 0.5982205272
outer loop
vertex 66.11553192 -2.957451105 135.4885254
vertex 67.30904388 0.4778209925 137.5247192
vertex 62.06826019 -0.5790789723 130.4005585

endloop
endfacet
facet normal -0.8024634123 0.207157135 0.5595877171
outer loop
vertex 62.06826019 -0.5790789723 130.4005585
vertex 67.30904388 0.4778209925 137.5247192
vertex 63.57289886 3.318031073 131.1155548

endloop
endfacet
facet normal -0.7941470742 0.2014106661 0.5733795762
outer loop
vertex 62.06824493 -0.5790939927 130.400528
vertex 63.57288361 3.318031073 131.1155548
vertex 57.91954803 -0.4625470042 124.6135254

endloop
endfacet
facet normal -0.7969003916 0.2332251072 0.5572752357
outer loop
vertex 57.91954803 -0.4625470042 124.6135254
vertex 63.57288361 3.318031073 131.1155548
vertex 58.82712555 3.391335011 124.2984695

endloop
endfacet
facet normal -0.9325684905 0.2415484339 0.2682727575
outer loop
vertex 57.91954803 -0.4625470042 124.6135254
vertex 58.82712555 3.391335011 124.2984695
vertex 55.23410797 -3.784996033 118.2698898

endloop
endfacet
facet normal -0.812964201 -0.07776715606 0.5770974755
outer loop
vertex 55.23410797 -3.784996033 118.2698898
vertex 58.82712555 3.391335011 124.2984695
vertex 54.35868073 -0.3113330007 117.5047607

endloop
endfacet
facet normal -0.8826985955 -0.122524865 0.4536858499
outer loop
vertex 55.23410797 -3.784996033 118.2698898
vertex 54.35868073 -0.3113330007 117.5047607
vertex 52.11521149 -9.263893127 110.7220535

endloop
endfacet
facet normal -0.8468563557 -0.1696533263 0.5040358901
outer loop
vertex 52.11521149 -9.263893127 110.7220535
vertex 54.35868073 -0.3113330007 117.5047607
vertex 50.67899323 -5.733253002 109.4973679

endloop
endfacet
facet normal -0.8664627671 -0.1927142292 0.4605467916
outer loop
vertex 52.11521149 -9.263893127 110.7220535
vertex 50.67899323 -5.733253002 109.4973679
vertex 49.15949249 -14.4417038 102.9945908

endloop
endfacet
facet normal -0.9260562062 -0.1083530262 0.3614963591
outer loop
vertex 49.15949249 -14.4417038 102.9945908
vertex 50.67899323 -5.733253002 109.4973679
vertex 48.14031219 -10.83870697 101.4636688

endloop
endfacet
facet normal -0.9635971785 -0.1947348118 0.1831905395
outer loop
vertex 49.15949249 -14.4417038 102.9945908
vertex 48.14031219 -10.83870697 101.4636688
vertex 48.64929962 -17.70165253 96.84555054

endloop
endfacet
facet normal -0.9323936701 -0.2468266785 0.2640429139
outer loop
vertex 48.64929962 -17.70165253 96.84555054
vertex 48.14031219 -10.83870697 101.4636688
vertex 47.23818207 -14.21291447 95.12384796

endloop
endfacet
facet normal -0.8736616969 -0.4475498199 -0.1908255219
outer loop
vertex 48.64929962 -17.70165253 96.84555054
vertex 47.23818207 -14.21291447 95.12384796
vertex 50.27257538 -19.18914032 92.90232086

endloop
endfacet
facet normal -0.8054799438 -0.567451179 0.1708834022
outer loop
vertex 50.27257538 -19.18914032 92.90232086
vertex 47.23818207 -14.21291447 95.12384796
vertex 47.46852875 -15.79288483 90.96302032

endloop
endfacet
facet normal -0.7952308655 -0.5973852277 0.1036287025
outer loop
vertex 50.27256012 -19.18912506 92.90232849
vertex 47.46854401 -15.79286957 90.96302795
vertex 50.60857391 -20.04969025 90.51997375

endloop
endfacet
facet normal -0.7832949758 -0.5961399078 0.1762561351
outer loop
vertex 50.60857391 -20.04969025 90.51997375
vertex 47.46854401 -15.79286957 90.96302795
vertex 47.43842316 -16.45214081 88.5993576

endloop
endfacet
facet normal -0.4721378386 0.05369715393 0.8798877597
outer loop
vertex 50.60857391 -20.04969025 90.51997375
vertex 47.43842316 -16.45214081 88.5993576
vertex 49.80258942 -20.37189484 90.10715485

endloop
endfacet
facet normal 0.6700842381 0.1225413308 -0.7321002483
outer loop
vertex 49.80258942 -20.37189484 90.10715485
vertex 47.43842316 -16.45214081 88.5993576
vertex 47.46092987 -15.83220673 88.72372437

endloop
endfacet
facet normal -0.08083707839 0.2521630824 0.9643024802
outer loop
vertex 49.80258942 -20.37187958 90.10714722
vertex 47.46092987 -15.83220673 88.72373199
vertex 47.50200653 -20.62378693 89.98016357

endloop
endfacet
facet normal 0.1851086169 0.2507426739 0.9501909614
outer loop
vertex 47.50200653 -20.62378693 89.98016357
vertex 47.46092987 -15.83220673 88.72373199
vertex 45.91197968 -15.49678802 88.93697357

endloop
endfacet
facet normal -0.714609921 -0.08022795618 0.694907248
outer loop
vertex 47.50200653 -20.62378693 89.98016357
vertex 45.91197968 -15.49678802 88.93697357
vertex 45.98459625 -20.67221832 88.41413879

endloop
endfacet
facet normal -0.8248247504 -0.06827213615 0.5612513423
outer loop
vertex 45.98459625 -20.67221832 88.41413879
vertex 45.91197968 -15.49678802 88.93697357
vertex 44.69358063 -16.21768951 87.05870056

endloop
endfacet
facet normal -0.6587975025 -0.3872047663 -0.6450259089
outer loop
vertex 45.98461151 -20.67221832 88.41414642
vertex 44.69358063 -16.21767426 87.05870819
vertex 53.40348053 -20.74115753 80.87826538

endloop
endfacet
facet normal -0.3766009212 0.4236760437 -0.8238145113
outer loop
vertex 53.40348053 -20.74115753 80.87826538
vertex 44.69358063 -16.21767426 87.05870819
vertex 53.40348053 -20.74114227 80.87827301

endloop
endfacet
facet normal -0.6933321357 0.720120132 -0.02678795345
outer loop
vertex 61.44989777 -12.08144379 148.3748474
vertex 61.44991302 -12.08142853 148.3748627
vertex 69.94326019 -4.124396801 142.4508514

endloop
endfacet
facet normal -0.7578747272 0.5609199405 -0.3331585824
outer loop
vertex 69.94326019 -4.124396801 142.4508514
vertex 61.44991302 -12.08142853 148.3748627
vertex 69.59346771 -2.642357111 145.7417908

endloop
endfacet
facet normal -0.9035833478 -0.4183394909 0.09235328436
outer loop
vertex 69.94326019 -4.124396801 142.4508514
vertex 69.59346771 -2.642357111 145.7417908
vertex 67.30904388 0.4778209925 137.5247192

endloop
endfacet
facet normal -0.9610170722 -0.1995204091 0.1914101839
outer loop
vertex 67.30904388 0.4778209925 137.5247192
vertex 69.59346771 -2.642357111 145.7417908
vertex 67.17253876 3.55269599 140.0445251

endloop
endfacet
facet normal -0.871234417 -0.333691597 0.3600007296
outer loop
vertex 67.30904388 0.4778209925 137.5247192
vertex 67.17253876 3.55269599 140.0445251
vertex 63.57289886 3.318031073 131.1155548

endloop
endfacet
facet normal -0.9236417413 -0.08146208525 0.3744994402
outer loop
vertex 63.57289886 3.318031073 131.1155548
vertex 67.17253876 3.55269599 140.0445251
vertex 63.76892853 7.182137012 132.4395599

endloop
endfacet
facet normal -0.8119490147 -0.1519303322 0.5636098385
outer loop
vertex 63.57288361 3.318031073 131.1155548
vertex 63.76888275 7.1821208 132.4395447
vertex 58.82712555 3.391335011 124.2984695

endloop
endfacet
facet normal -0.8383462429 -0.06855430454 0.5408104062
outer loop
vertex 58.82712555 3.391335011 124.2984695
vertex 63.76888275 7.1821208 132.4395447
vertex 58.55078888 7.368293762 124.3742294

endloop
endfacet
facet normal -0.816241622 -0.06764558703 0.573736608
outer loop
vertex 58.82712555 3.391335011 124.2984695
vertex 58.55078888 7.368293762 124.3742294
vertex 54.35868073 -0.3113330007 117.5047607

endloop
endfacet
facet normal -0.7650428414 -0.143867299 0.6277035475
outer loop
vertex 54.35868073 -0.3113330007 117.5047607
vertex 58.55078888 7.368293762 124.3742294
vertex 52.98001862 3.623008966 116.7261887

endloop
endfacet
facet normal -0.8362610936 -0.1913521439 0.51385957
outer loop
vertex 54.35868073 -0.3113330007 117.5047607
vertex 52.98001862 3.623008966 116.7261887
vertex 50.67899323 -5.733253002 109.4973679

endloop
endfacet
facet normal -0.8311421275 -0.197271198 0.5198910832
outer loop
vertex 50.67899323 -5.733253002 109.4973679
vertex 52.98001862 3.623008966 116.7261887
vertex 49.02681732 -2.117912054 108.22789

endloop
endfacet
facet normal -0.8684694171 -0.2456907332 0.430577457
outer loop
vertex 50.67899323 -5.733253002 109.4973679
vertex 49.02681732 -2.117912054 108.22789
vertex 48.14031219 -10.83870697 101.4636688

endloop
endfacet
facet normal -0.8803812265 -0.2315460593 0.4139024913
outer loop
vertex 48.14031219 -10.83870697 101.4636688
vertex 49.02681732 -2.117912054 108.22789
vertex 46.7572403 -7.926932812 100.1507492

endloop
endfacet
facet normal -0.9086027145 -0.3010392785 0.2895108461
outer loop
vertex 48.14031219 -10.83870697 101.4636688
vertex 46.7572403 -7.926932812 100.1507492
vertex 47.23818207 -14.21291447 95.12384796

endloop
endfacet
facet normal -0.7962724566 -0.4138040543 0.4412667155
outer loop
vertex 47.23818207 -14.21291447 95.12384796
vertex 46.7572403 -7.926932812 100.1507492
vertex 45.34246063 -12.00382233 93.77459717

endloop
endfacet
facet normal -0.797467351 -0.5773947835 0.1751028448
outer loop
vertex 47.23818207 -14.21291447 95.12384796
vertex 45.34246063 -12.00382233 93.77459717
vertex 47.46852875 -15.79288483 90.96302032

endloop
endfacet
facet normal -0.7010087371 -0.6346726418 0.3252345324
outer loop
vertex 47.46852875 -15.79288483 90.96302032
vertex 45.34246063 -12.00382233 93.77459717
vertex 44.52249908 -13.38990021 89.30242157

endloop
endfacet
facet normal -0.6852194071 -0.6992521882 0.2037662566
outer loop
vertex 47.46854401 -15.79286957 90.96302795
vertex 44.5225296 -13.38988495 89.3024292
vertex 47.43842316 -16.45214081 88.5993576

endloop
endfacet
facet normal -0.7299262881 -0.6398277879 -0.2404747456
outer loop
vertex 47.43842316 -16.45214081 88.5993576
vertex 44.5225296 -13.38988495 89.3024292
vertex 44.74260712 -12.65018463 86.66630554

endloop
endfacet
facet normal 0.6842995286 0.1194670275 -0.7193481922
outer loop
vertex 47.43842316 -16.45214081 88.5993576
vertex 44.74260712 -12.65018463 86.66630554
vertex 47.46092987 -15.83220673 88.72372437

endloop
endfacet
facet normal 0.2763206363 -0.3441423774 -0.8973366022
outer loop
vertex 47.46092987 -15.83220673 88.72372437
vertex 44.74260712 -12.65018463 86.66630554
vertex 45.29271698 -11.35683441 86.33968353

endloop
endfacet
facet normal 0.22865659 0.541677773 0.8088889122
outer loop
vertex 47.46092987 -15.83220673 88.72373199
vertex 45.29270172 -11.35683441 86.33968353
vertex 45.91197968 -15.49678802 88.93697357

endloop
endfacet
facet normal 0.3090437353 0.5381711125 0.7841324806
outer loop
vertex 45.91197968 -15.49678802 88.93697357
vertex 45.29270172 -11.35683441 86.33968353
vertex 44.46977997 -11.00986481 86.42588043

endloop
endfacet
facet normal -0.8436259627 0.02889584377 0.5361531973
outer loop
vertex 45.91197968 -15.49678802 88.93697357
vertex 44.46977997 -11.00986481 86.42588043
vertex 44.69358063 -16.21768951 87.05870056

endloop
endfacet
facet normal -0.7466940284 0.04852302 0.6633954644
outer loop
vertex 44.69358063 -16.21768951 87.05870056
vertex 44.46977997 -11.00986481 86.42588043
vertex 43.35894012 -11.97388458 85.24607086

endloop
endfacet
facet normal -0.6601926088 -0.4609225988 -0.5930396914
outer loop
vertex 44.69358063 -16.21767426 87.05870819
vertex 43.35897064 -11.97386932 85.24607086
vertex 53.40348053 -20.74114227 80.87827301

endloop
endfacet
facet normal 0 0.4472135901 -0.8944271803
outer loop
vertex 53.40348053 -20.74114227 80.87827301
vertex 43.35897064 -11.97386932 85.24607086
vertex 53.40351105 -20.74114227 80.87827301

endloop
endfacet
facet normal 0.5750021935 -0.6387105584 -0.5112937689
outer loop
vertex 61.44991302 -12.08142853 148.3748627
vertex 61.44988251 -12.08144379 148.3748474
vertex 69.59346771 -2.642357111 145.7417908

endloop
endfacet
facet normal -0.7426400781 0.5245910883 -0.4162811637
outer loop
vertex 69.59346771 -2.642357111 145.7417908
vertex 61.44988251 -12.08144379 148.3748474
vertex 68.17836761 -1.701668024 149.4517517

endloop
endfacet
facet normal -0.8409491777 -0.505699873 -0.1925413609
outer loop
vertex 69.59346771 -2.642357111 145.7417908
vertex 68.17836761 -1.701668024 149.4517517
vertex 67.17253876 3.55269599 140.0445251

endloop
endfacet
facet normal -0.8848488927 -0.4405675828 -0.1514682174
outer loop
vertex 67.17253876 3.55269599 140.0445251
vertex 68.17836761 -1.701668024 149.4517517
vertex 65.26869965 6.236061096 143.3614349

endloop
endfacet
facet normal -0.7819552422 -0.62102741 0.05358190089
outer loop
vertex 67.17253876 3.55269599 140.0445251
vertex 65.26869965 6.236061096 143.3614349
vertex 63.76892853 7.182137012 132.4395599

endloop
endfacet
facet normal -0.8364306688 -0.5438697934 0.06774591655
outer loop
vertex 63.76892853 7.182137012 132.4395599
vertex 65.26869965 6.236061096 143.3614349
vertex 61.56351471 10.8680191 134.8007965

endloop
endfacet
facet normal -0.6474693418 -0.6462053061 0.4039829075
outer loop
vertex 63.76888275 7.1821208 132.4395447
vertex 61.56348419 10.86798859 134.8007812
vertex 58.55078888 7.368293762 124.3742294

endloop
endfacet
facet normal -0.7486400008 -0.532437861 0.395029366
outer loop
vertex 58.55078888 7.368293762 124.3742294
vertex 61.56348419 10.86798859 134.8007812
vertex 56.14543915 11.3549881 125.1891708

endloop
endfacet
facet normal -0.5780038238 -0.4831631184 0.657620728
outer loop
vertex 58.55078888 7.368293762 124.3742294
vertex 56.14543915 11.3549881 125.1891708
vertex 52.98001862 3.623008966 116.7261887

endloop
endfacet
facet normal -0.7695803642 -0.301213026 0.5630424023
outer loop
vertex 52.98001862 3.623008966 116.7261887
vertex 56.14543915 11.3549881 125.1891708
vertex 50.86412811 7.795691967 116.0664139

endloop
endfacet
facet normal -0.7701433897 -0.3016581535 0.5620334148
outer loop
vertex 52.98001862 3.623008966 116.7261887
vertex 50.86412811 7.795691967 116.0664139
vertex 49.02681732 -2.117912054 108.22789

endloop
endfacet
facet normal -0.8213319778 -0.252309233 0.511618793
outer loop
vertex 49.02681732 -2.117912054 108.22789
vertex 50.86412811 7.795691967 116.0664139
vertex 46.96430206 1.803490043 106.8506851

endloop
endfacet
facet normal -0.8471614718 -0.288983345 0.445876658
outer loop
vertex 49.02681732 -2.117912054 108.22789
vertex 46.96430206 1.803490043 106.8506851
vertex 46.7572403 -7.926932812 100.1507492

endloop
endfacet
facet normal -0.7325487137 -0.3754025698 0.5678425431
outer loop
vertex 46.7572403 -7.926932812 100.1507492
vertex 46.96430206 1.803490043 106.8506851
vertex 44.44216156 -5.163016796 98.99140167

endloop
endfacet
facet normal -0.7666521072 -0.4500868618 0.4578934312
outer loop
vertex 46.7572403 -7.926932812 100.1507492
vertex 44.44216156 -5.163016796 98.99140167
vertex 45.34246063 -12.00382233 93.77459717

endloop
endfacet
facet normal -0.6122514606 -0.5288236737 0.5877870917
outer loop
vertex 45.34246063 -12.00382233 93.77459717
vertex 44.44216156 -5.163016796 98.99140167
vertex 42.92488861 -10.23537445 92.84745026

endloop
endfacet
facet normal -0.6365472078 -0.6959289908 0.3324010968
outer loop
vertex 45.34246063 -12.00382233 93.77459717
vertex 42.92488861 -10.23537445 92.84745026
vertex 44.52249908 -13.38990021 89.30242157

endloop
endfacet
facet normal -0.7882598639 -0.5911620259 0.1708036363
outer loop
vertex 44.52249908 -13.38990021 89.30242157
vertex 42.92488861 -10.23537445 92.84745026
vertex 42.49834442 -11.0606308 88.02268219

endloop
endfacet
facet normal -0.6565717459 -0.7101770043 -0.2540908158
outer loop
vertex 44.5225296 -13.38988495 89.3024292
vertex 42.49835968 -11.0606308 88.02268982
vertex 44.74260712 -12.65018463 86.66630554

endloop
endfacet
facet normal -0.6794217825 -0.5051313639 -0.5321921706
outer loop
vertex 44.74260712 -12.65018463 86.66630554
vertex 42.49835968 -11.0606308 88.02268982
vertex 43.30434418 -8.770729065 84.82026672

endloop
endfacet
facet normal 0.2542823553 -0.3370794058 -0.9064865708
outer loop
vertex 44.74260712 -12.65018463 86.66630554
vertex 43.30434418 -8.770729065 84.82026672
vertex 45.29271698 -11.35683441 86.33968353

endloop
endfacet
facet normal -0.4006332159 -0.673199892 -0.6215263009
outer loop
vertex 45.29271698 -11.35683441 86.33968353
vertex 43.30434418 -8.770729065 84.82026672
vertex 43.87023163 -7.554465771 83.13811493

endloop
endfacet
facet normal 0.3529003561 0.6763774157 0.6465098262
outer loop
vertex 45.29270172 -11.35683441 86.33968353
vertex 43.87023163 -7.554465771 83.13811493
vertex 44.46977997 -11.00986481 86.42588043

endloop
endfacet
facet normal -0.863615334 0.260720998 0.4315010309
outer loop
vertex 44.46977997 -11.00986481 86.42588043
vertex 43.87023163 -7.554465771 83.13811493
vertex 43.47354889 -7.650428772 82.40216827

endloop
endfacet
facet normal -0.80728513 0.3391128182 0.4830043316
outer loop
vertex 44.46977997 -11.00986481 86.42588043
vertex 43.47354889 -7.650428772 82.40216827
vertex 43.35894012 -11.97388458 85.24607086

endloop
endfacet
facet normal -0.6236763597 0.4410481751 0.6453714371
outer loop
vertex 43.35894012 -11.97388458 85.24607086
vertex 43.47354889 -7.650428772 82.40216827
vertex 42.70484161 -8.113883972 81.97602844

endloop
endfacet
facet normal -0.6833498478 -0.5358710885 -0.4958578646
outer loop
vertex 43.35897064 -11.97386932 85.24607086
vertex 42.70487213 -8.113883972 81.97602844
vertex 53.40351105 -20.74114227 80.87827301

endloop
endfacet
facet normal 0.02337756939 -0.06753520668 0.9974430203
outer loop
vertex 53.40351105 -20.74114227 80.87827301
vertex 42.70487213 -8.113883972 81.97602844
vertex 53.40346527 -20.74115753 80.87827301

endloop
endfacet
facet normal 0 -0.1031963229 0.9946610332
outer loop
vertex 61.44988251 -12.08144379 148.3748474
vertex 61.44989777 -12.08144379 148.3748474
vertex 68.17836761 -1.701668024 149.4517517

endloop
endfacet
facet normal -0.6952067614 0.5038425922 -0.5126696229
outer loop
vertex 68.17836761 -1.701668024 149.4517517
vertex 61.44989777 -12.08144379 148.3748474
vertex 60.43083954 -1.858893991 159.8032837

endloop
endfacet
facet normal -0.6339606643 -0.6034712195 -0.4836491346
outer loop
vertex 68.17836761 -1.701668024 149.4517517
vertex 60.43083954 -1.858893991 159.8032837
vertex 65.26869965 6.236061096 143.3614349

endloop
endfacet
facet normal -0.542932868 -0.6790524125 -0.4940765798
outer loop
vertex 65.26869965 6.236061096 143.3614349
vertex 60.43083954 -1.858893991 159.8032837
vertex 53.9630661 8.478569031 152.7029419

endloop
endfacet
facet normal -0.4109300375 -0.8643690348 -0.2898322642
outer loop
vertex 65.26869965 6.236061096 143.3614349
vertex 53.9630661 8.478569031 152.7029419
vertex 61.56351471 10.8680191 134.8007965

endloop
endfacet
facet normal -0.3523643017 -0.8963006139 -0.2692298591
outer loop
vertex 61.56351471 10.8680191 134.8007965
vertex 53.9630661 8.478569031 152.7029419
vertex 47.83086395 14.02523041 142.2631378

endloop
endfacet
facet normal -0.1930156946 -0.9794094563 0.05917798355
outer loop
vertex 61.56348419 10.86798859 134.8007812
vertex 47.83086395 14.02521515 142.2631226
vertex 56.14543915 11.3549881 125.1891708

endloop
endfacet
facet normal -0.2210703641 -0.9742326736 0.04470647871
outer loop
vertex 56.14543915 11.3549881 125.1891708
vertex 47.83086395 14.02521515 142.2631226
vertex 41.32411957 14.95334625 130.3133392

endloop
endfacet
facet normal -0.08194413036 -0.9114958048 0.4030641019
outer loop
vertex 56.14543915 11.3549881 125.1891708
vertex 41.32411957 14.95334625 130.3133392
vertex 50.86412811 7.795691967 116.0664139

endloop
endfacet
facet normal -0.07998321205 -0.9111624956 0.404209733
outer loop
vertex 50.86412811 7.795691967 116.0664139
vertex 41.32411957 14.95334625 130.3133392
vertex 35.94974518 10.46683502 119.136467

endloop
endfacet
facet normal -0.03459788486 -0.8311052918 0.5550377369
outer loop
vertex 50.86412811 7.795691967 116.0664139
vertex 35.94974518 10.46683502 119.136467
vertex 46.96430206 1.803490043 106.8506851

endloop
endfacet
facet normal -0.001979146618 -0.8180821538 0.5750979781
outer loop
vertex 46.96430206 1.803490043 106.8506851
vertex 35.94974518 10.46683502 119.136467
vertex 33.2286911 2.977103949 108.4728928

endloop
endfacet
facet normal 0.01391420327 -0.7504714727 0.66075629
outer loop
vertex 46.96430206 1.803490043 106.8506851
vertex 33.2286911 2.977103949 108.4728928
vertex 44.44216156 -5.163016796 98.99140167

endloop
endfacet
facet normal -0.1393111944 -0.8267580867 0.5450353622
outer loop
vertex 44.44216156 -5.163016796 98.99140167
vertex 33.2286911 2.977103949 108.4728928
vertex 32.44048309 -3.467643976 98.49546051

endloop
endfacet
facet normal -0.1325397044 -0.7480308414 0.6502946615
outer loop
vertex 44.44216156 -5.163016796 98.99140167
vertex 32.44048309 -3.467643976 98.49546051
vertex 42.92488861 -10.23537445 92.84745026

endloop
endfacet
facet normal -0.3737915754 -0.8629059196 0.3401077688
outer loop
vertex 42.92488861 -10.23537445 92.84745026
vertex 32.44048309 -3.467643976 98.49546051
vertex 32.58345795 -6.997306824 89.69729614

endloop
endfacet
facet normal -0.3451393247 -0.9195702672 0.1878014654
outer loop
vertex 42.92488861 -10.23537445 92.84745026
vertex 32.58345795 -6.997306824 89.69729614
vertex 42.49834442 -11.0606308 88.02268219

endloop
endfacet
facet normal -0.3529876471 -0.9234170914 0.1506673843
outer loop
vertex 42.49834442 -11.0606308 88.02268219
vertex 32.58345795 -6.997306824 89.69729614
vertex 33.6810379 -8.542549133 82.79818726

endloop
endfacet
facet normal 0.09867437184 -0.8210516572 -0.562261045
outer loop
vertex 42.49835968 -11.0606308 88.02268982
vertex 33.68105316 -8.542533875 82.79819489
vertex 43.30434418 -8.770729065 84.82026672

endloop
endfacet
facet normal -0.06675639749 -0.975940764 0.20756495
outer loop
vertex 43.30434418 -8.770729065 84.82026672
vertex 33.68105316 -8.542533875 82.79819489
vertex 36.42223358 -9.67881012 78.33719635

endloop
endfacet
facet normal 0.481122613 -0.7792627215 -0.4015852511
outer loop
vertex 43.30434418 -8.770729065 84.82026672
vertex 36.42223358 -9.67881012 78.33719635
vertex 43.87023163 -7.554465771 83.13811493

endloop
endfacet
facet normal 0.127055943 -0.9648981094 0.2298442274
outer loop
vertex 43.87023163 -7.554465771 83.13811493
vertex 36.42223358 -9.67881012 78.33719635
vertex 40.47585297 -9.815834045 75.52115631

endloop
endfacet
facet normal 0.7694036961 0.4315023422 -0.4709817171
outer loop
vertex 43.87023163 -7.554465771 83.13811493
vertex 40.47583771 -9.815834045 75.52116394
vertex 43.47354889 -7.650428772 82.40216827

endloop
endfacet
facet normal 0.2967437208 -0.9403069019 0.1666317135
outer loop
vertex 43.47354889 -7.650428772 82.40216827
vertex 40.47583771 -9.815834045 75.52116394
vertex 44.93724823 -8.729438782 73.7066803

endloop
endfacet
facet normal -0.4315933287 0.8834604025 -0.1822767854
outer loop
vertex 43.47354889 -7.650428772 82.40216827
vertex 44.93724823 -8.729438782 73.7066803
vertex 42.70484161 -8.113883972 81.97602844

endloop
endfacet
facet normal 0.4224219322 -0.8883137107 0.1801621318
outer loop
vertex 42.70484161 -8.113883972 81.97602844
vertex 44.93724823 -8.729438782 73.7066803
vertex 49.15259552 -6.810554981 73.28437042

endloop
endfacet
facet normal -0.6547418237 -0.5059167743 -0.561570406
outer loop
vertex 42.70487213 -8.113883972 81.97602844
vertex 49.15259552 -6.810538769 73.28437042
vertex 53.40346527 -20.74115753 80.87827301

endloop
endfacet
facet normal 0 -0.4843158722 -0.8748931885
outer loop
vertex 53.40346527 -20.74115753 80.87827301
vertex 49.15259552 -6.810538769 73.28437042
vertex 53.40348053 -20.74115753 80.87827301

endloop
endfacet
endsolid
