# vtk DataFile Version 2.0
File written by itkPolyDataMeshIO
ASCII
DATASET POLYDATA
POINTS 664 float
112.72509 40.20745 -146.83104
112.72509 40.207436 -146.83104
113.43551 38.021812 -146.3898
113.47463 38.003227 -146.63474
115.283226 35.337868 -145.9053
115.31432 35.318306 -146.1683
117.06164 31.583946 -145.19055
117.08669 31.551094 -145.48138
117.06161 31.583931 -145.19054
117.08669 31.551079 -145.48135
119.03396 24.635689 -144.5939
119.04446 24.601479 -144.92546
121.1708 14.508064 -145.39159
121.142815 14.524879 -145.77069
123.35598 4.505089 -147.834
123.327415 4.592995 -148.2582
123.048515 -4.631813 -149.71364
123.06844 -4.546257 -150.25124
119.45559 -12.141411 -150.99278
119.53863 -12.063591 -151.69098
114.01049 -17.674751 -152.79839
114.14678 -17.54319 -153.61836
114.01049 -17.674736 -152.79839
114.14681 -17.54316 -153.61836
108.34936 -22.60685 -154.27788
108.49975 -22.490044 -155.14978
102.92431 -28.108955 -153.14497
102.93224 -28.205238 -154.04446
102.92431 -28.10894 -153.14497
102.93221 -28.205223 -154.04445
97.712425 -31.981316 -151.11514
97.58837 -32.272697 -152.0174
90.458824 -33.11219 -149.90552
90.26977 -33.38537 -150.73967
84.35476 -35.012657 -149.5275
113.52325 38.013756 -146.76654
115.36071 35.329338 -146.3106
117.13525 31.553383 -145.63985
117.13525 31.553368 -145.63982
119.09362 24.59864 -145.1078
121.17849 14.546486 -145.98141
123.37292 4.651131 -148.48685
123.19009 -4.515953 -150.52019
119.74282 -12.101784 -152.03094
114.38213 -17.625618 -154.0252
114.382164 -17.625603 -154.02522
108.72588 -22.598854 -155.58157
103.04067 -28.356941 -154.47151
103.04067 -28.356941 -154.47153
97.588615 -32.47808 -152.42664
90.20348 -33.606773 -151.12042
90.203514 -33.606773 -151.12044
112.72509 40.20745 -146.83105
113.58398 38.03794 -146.87462
115.421165 35.354607 -146.4278
117.20138 31.570213 -145.77127
117.20138 31.570198 -145.77124
119.166374 24.607933 -145.26039
121.244896 14.573189 -146.1588
123.44842 4.706001 -148.67108
123.33611 -4.496208 -150.71413
119.96441 -12.165504 -152.2611
114.62649 -17.755623 -154.30313
114.62652 -17.755608 -154.30315
108.95736 -22.759392 -155.88074
103.17501 -28.530312 -154.78008
103.17501 -28.530296 -154.78008
97.62856 -32.681572 -152.72658
90.17205 -33.835518 -151.3937
113.65838 38.07479 -146.97002
115.496666 35.39306 -146.53189
117.28591 31.599922 -145.8888
117.28588 31.599907 -145.88878
119.26281 24.627632 -145.39804
121.339836 14.605461 -146.3195
123.54919 4.761116 -148.83018
123.49395 -4.479698 -150.86719
120.184746 -12.237129 -152.43404
114.864006 -17.900307 -154.51369
114.864006 -17.900307 -154.5137
109.182945 -22.936974 -156.11092
103.325005 -28.716652 -155.02933
103.325035 -28.716652 -155.02933
97.69717 -32.896065 -152.97252
90.16268 -34.081123 -151.61098
112.72512 40.20745 -146.83104
113.74401 38.12304 -147.04973
115.58483 35.443336 -146.61967
117.38613 31.641548 -145.98878
117.38607 31.641533 -145.98877
119.37948 24.657112 -145.51633
121.45913 14.642189 -146.45872
123.67184 4.815315 -148.9619
123.66091 -4.466423 -150.982
120.40154 -12.314659 -152.55638
115.09304 -18.055763 -154.66481
115.09307 -18.055748 -154.66483
109.40078 -23.126884 -156.28006
103.48608 -28.911552 -155.22577
97.788536 -33.116783 -153.17041
90.171745 -34.336433 -151.77869
90.171745 -34.33642 -151.7787
84.35479 -35.012657 -149.52751
113.83782 38.180992 -147.11101
115.68258 35.5037 -146.68831
117.49862 31.693626 -146.06805
117.49859 31.693626 -146.06804
119.51153 24.695168 -145.6115
121.59643 14.682091 -146.57281
123.81292 4.868675 -149.067
123.83544 -4.45536 -151.06339
120.61297 -12.396095 -152.63481
115.31216 -18.218376 -154.7642
115.31216 -18.21836 -154.76422
109.60955 -23.324745 -156.39592
103.6549 -29.11129 -155.37488
103.65493 -29.11129 -155.37488
97.89861 -33.340324 -153.32445
90.19659 -34.59739 -151.90186
112.72512 40.207466 -146.83105
113.93566 38.245872 -147.15222
115.78567 35.57128 -146.73613
117.61901 31.753883 -146.12447
117.61898 31.753868 -146.12447
119.653465 24.740181 -145.68045
121.74496 14.723763 -146.6586
123.9692 4.921349 -149.14671
124.01626 -4.44532 -151.11635
120.81725 -12.479439 -152.67586
115.51989 -18.384438 -154.8194
115.51992 -18.384438 -154.81941
109.808556 -23.526756 -156.46553
103.83187 -29.314598 -155.47989
103.83187 -29.314613 -155.4799
98.0281 -33.56745 -153.43503
90.23705 -34.86483 -151.98216
112.72509 40.207466 -146.83105
114.03225 38.31382 -147.1731
115.88836 35.641945 -146.76274
117.74154 31.818977 -146.15694
117.74154 31.818947 -146.15692
119.79977 24.790215 -145.7214
121.8998 14.766014 -146.71425
124.13891 4.973091 -149.20055
124.202934 -4.435997 -151.14256
121.0136 -12.563728 -152.68295
115.71557 -18.552238 -154.83452
115.7156 -18.552238 -154.83453
109.99804 -23.731377 -156.49245
104.0201 -29.522957 -155.54086
104.0201 -29.522972 -155.54086
98.18142 -33.80242 -153.49922
90.29519 -35.143684 -152.01772
84.35479 -35.01264 -149.52751
84.35476 -35.01264 -149.5275
114.12301 38.381203 -147.17444
115.985374 35.711815 -146.76828
117.8605 31.885384 -146.1656
117.8605 31.885368 -146.16559
119.94552 24.843163 -145.73514
122.05938 14.808174 -146.74059
124.32256 5.023079 -149.22636
124.39657 -4.428215 -151.13913
121.20318 -12.649895 -152.65424
115.90032 -18.723259 -154.80762
115.90032 -18.723244 -154.80762
110.17925 -23.940453 -156.47455
104.222435 -29.738441 -155.55507
98.36193 -34.0478 -153.51358
90.37313 -35.437584 -152.00415
84.35476 -35.012657 -149.52751
114.205864 38.44622 -147.15773
116.07406 35.77883 -146.75345
117.97118 31.950554 -146.15178
117.97115 31.950554 -146.15176
120.08587 24.89669 -145.72412
122.22372 14.849709 -146.73969
124.52169 5.070534 -149.22168
124.59908 -4.42321 -151.10103
121.388176 -12.739769 -152.58466
116.07598 -18.900932 -154.7332
116.07601 -18.900932 -154.7332
110.35317 -24.15731 -156.40636
104.43731 -29.960167 -155.51836
104.43734 -29.960182 -155.51836
98.5671 -34.298958 -153.47523
90.471 -35.741936 -151.93648
112.72509 40.207466 -146.83104
114.28191 38.50939 -147.12428
116.15533 35.84353 -146.71971
118.07183 32.013695 -146.11717
118.0718 32.01368 -146.11716
120.217094 24.948921 -145.69038
122.39242 14.890053 -146.71257
124.73748 5.114586 -149.18349
124.81115 -4.422005 -151.0239
121.56887 -12.834084 -152.47076
116.2427 -19.086388 -154.60751
116.2427 -19.086388 -154.60753
110.51827 -24.38198 -156.28401
104.65728 -30.181694 -155.42755
104.65731 -30.181694 -155.42754
98.78762 -34.54299 -153.3826
90.58578 -36.042305 -151.81128
112.72506 40.20745 -146.83104
114.352715 38.5718 -147.07457
116.23092 35.906975 -146.66855
118.162834 32.07508 -146.06345
118.1628 32.075066 -146.06343
120.338005 24.99923 -145.63463
122.56457 14.928276 -146.65678
124.96795 5.15287 -149.10553
125.02862 -4.425529 -150.90427
121.7394 -12.929985 -152.3138
116.39437 -19.27378 -154.43248
110.66811 -24.606789 -156.1091
104.87203 -30.392265 -155.28223
104.87203 -30.392265 -155.28224
99.012566 -34.76522 -153.23508
90.71316 -36.32064 -151.62804
84.35473 -35.012672 -149.5275
114.41863 38.633965 -147.00784
116.30175 35.969826 -146.60025
118.24584 32.1354 -145.99126
118.24578 32.1354 -145.99126
120.450096 25.048042 -145.55656
122.73571 14.961922 -146.56648
125.19552 5.175667 -148.9727
125.232994 -4.43998 -150.73372
121.88839 -13.022865 -152.11798
116.52126 -19.452538 -154.21425
116.52129 -19.452522 -154.21425
110.79336 -24.819115 -155.88727
105.07104 -30.580513 -155.08563
105.07101 -30.580513 -155.08563
99.23235 -34.95411 -153.03526
90.848595 -36.56112 -151.3906
84.35476 -35.01264 -149.52751
112.72512 40.207466 -146.83104
114.47787 38.694878 -146.92209
116.36651 36.031227 -146.5133
118.320946 32.194527 -145.89986
118.320946 32.194496 -145.89984
120.55447 25.095726 -145.45522
122.895256 14.987099 -146.43643
125.374016 5.166496 -148.77513
125.38305 -4.476875 -150.5087
122.00158 -13.108711 -151.88898
116.61358 -19.611855 -153.9603
116.61361 -19.61184 -153.9603
110.885 -25.006493 -155.62599
105.245415 -30.737465 -154.84404
105.245445 -30.73745 -154.84402
99.43926 -35.102516 -152.78937
90.98754 -36.752434 -151.10646
90.98757 -36.752434 -151.10646
114.527306 38.7526 -146.81496
116.422844 36.089836 -146.40549
118.386894 32.251564 -145.78758
118.38686 32.251564 -145.78757
120.650444 25.14199 -145.3289
123.04308 15.006737 -146.27202
125.507744 5.140266 -148.55087
125.47979 -4.523003 -150.26428
122.07366 -13.18203 -151.63795
116.665764 -19.744286 -153.67896
116.665794 -19.74427 -153.67897
110.93792 -25.160362 -155.3338
105.38851 -30.856712 -154.56514
105.38848 -30.856712 -154.56514
99.626366 -35.205208 -152.50514
91.12536 -36.885857 -150.7854
91.12539 -36.885857 -150.7854
114.56289 38.804466 -146.6849
116.468315 36.144264 -146.27446
118.44106 32.305428 -145.65234
120.73437 25.18583 -145.17528
123.17715 15.02227 -146.07481
125.60894 5.108849 -148.32182
125.53365 -4.567711 -150.02284
122.103935 -13.239067 -151.37506
116.67596 -19.845146 -153.37949
116.67596 -19.84513 -153.37949
110.95019 -25.275352 -155.02016
105.49563 -30.934227 -154.25777
105.4956 -30.934227 -154.25775
99.78774 -35.258614 -152.19147
91.25735 -36.955254 -150.439
114.57964 38.84664 -146.53282
116.49978 36.192482 -146.11807
118.47942 32.3543 -145.4919
118.47942 32.3543 -145.49188
120.78304 25.222343 -144.99211
123.24343 15.023232 -145.84254
125.653496 5.068047 -148.0875
125.54516 -4.609947 -149.78812
122.09145 -13.277962 -151.10814
116.643394 -19.911018 -153.07141
116.643394 -19.911003 -153.07141
110.921074 -25.347542 -154.69514
105.56338 -30.967552 -153.93178
105.56338 -30.967552 -153.93176
99.91836 -35.26139 -151.85854
91.37878 -36.957726 -150.08028
91.37878 -36.957726 -150.08026
112.72509 40.207436 -146.83102
114.56658 38.869347 -146.36632
116.50103 36.22187 -145.9401
118.48974 32.38955 -145.30777
118.48971 32.389534 -145.30775
120.789024 25.249352 -144.78822
123.23354 15.009636 -145.60066
125.6408 5.018929 -147.86127
125.51699 -4.648552 -149.56454
122.03707 -13.297417 -150.84511
116.56893 -19.93972 -152.76433
116.56896 -19.939705 -152.76433
110.85146 -25.374504 -154.36891
105.58956 -30.955574 -153.59758
105.58953 -30.955574 -153.59758
100.01406 -35.21337 -151.51717
91.48513 -36.893135 -149.72299
91.48513 -36.89312 -149.72299
112.72506 40.207405 -146.83102
114.56658 38.86936 -146.36632
114.51336 38.861122 -146.20482
116.50103 36.221886 -145.9401
116.45272 36.214394 -145.76361
118.45751 32.398903 -145.1144
120.76388 25.267723 -144.57628
123.23354 15.009651 -145.60066
123.192345 14.991829 -145.37883
125.597435 4.967735 -147.65862
125.4544 -4.682381 -149.35663
122.03707 -13.297401 -150.84511
121.94308 -13.29705 -150.59383
116.56893 -19.939705 -152.76433
116.455345 -19.930656 -152.46793
116.56896 -19.93969 -152.76433
116.455376 -19.930641 -152.46793
110.743706 -25.355827 -154.05171
105.573204 -30.898735 -153.26567
105.573204 -30.89872 -153.26567
100.01406 -35.21337 -151.51718
100.0714 -35.115852 -151.1782
91.48513 -36.89312 -149.723
91.572105 -36.764183 -149.38046
91.572136 -36.764183 -149.38046
84.35473 -35.012657 -149.52748
114.51339 38.861137 -146.20482
114.429405 38.82522 -146.06804
116.45275 36.21441 -145.76361
116.365715 36.17414 -145.61568
118.45751 32.398933 -145.11441
118.37963 32.379646 -144.93716
118.45751 32.398903 -145.11441
118.3796 32.37963 -144.93715
120.76388 25.267738 -144.5763
120.69369 25.268852 -144.37256
123.192375 14.991829 -145.37885
123.12081 14.968117 -145.18126
125.597466 4.967751 -147.65865
125.529076 4.915749 -147.47993
125.45443 -4.682365 -149.35666
125.36111 -4.710808 -149.168
121.94311 -13.29702 -150.59384
121.81277 -13.276817 -150.36214
116.455376 -19.930641 -152.46794
116.30633 -19.883965 -152.19197
116.455376 -19.930626 -152.46794
116.30633 -19.88395 -152.19197
110.743706 -25.355797 -154.05171
110.60143 -25.291832 -153.7539
105.51513 -30.79876 -152.94664
105.573204 -30.898705 -153.26569
105.5151 -30.79876 -152.94664
100.0714 -35.115852 -151.17824
100.08892 -34.97213 -150.85237
91.572136 -36.764183 -149.3805
91.63671 -36.576866 -149.06491
91.57217 -36.764183 -149.3805
91.63671 -36.576866 -149.06493
114.336235 38.776863 -145.95969
116.27029 36.123405 -145.49828
118.26757 32.339714 -144.79362
118.26751 32.3397 -144.79362
120.56823 25.243675 -144.20433
123.017235 14.935204 -145.01468
125.43731 4.862968 -147.32448
125.238884 -4.734093 -149.00177
121.64977 -13.237404 -150.1571
116.12615 -19.800896 -151.94518
116.12615 -19.800896 -151.94519
110.428764 -25.18438 -153.48497
105.41714 -30.658897 -152.65068
100.066216 -34.787224 -150.5501
91.67654 -36.3397 -148.78722
91.67654 -36.339684 -148.78722
114.24099 38.72161 -145.87936
116.17315 36.067207 -145.4088
118.14587 32.289513 -144.6855
118.145836 32.289497 -144.6855
120.42483 25.20565 -144.07654
122.89532 14.897346 -144.87895
125.32168 4.808784 -147.19136
125.088554 -4.75341 -148.86044
121.45895 -13.180489 -149.9846
115.92074 -19.68444 -151.73503
115.92077 -19.684425 -151.73503
110.23147 -25.0373 -153.2532
105.28274 -30.48423 -152.38737
105.28274 -30.484215 -152.38737
100.00439 -34.567955 -150.2814
91.69036 -36.06391 -148.55649
114.24099 38.721596 -145.87935
114.14712 38.662437 -145.8239
116.17312 36.067207 -145.4088
116.07647 36.007347 -145.34393
118.145836 32.289513 -144.6855
118.02505 32.234566 -144.60736
118.145805 32.289497 -144.6855
120.4248 25.20565 -144.07652
120.280754 25.162819 -143.98225
122.76235 14.857262 -144.7704
125.18185 4.7528 -147.0801
125.088554 -4.753426 -148.86044
124.91155 -4.769859 -148.74663
121.45898 -13.180489 -149.9846
121.24633 -13.108162 -149.84993
115.92074 -19.684425 -151.73503
115.69692 -19.538414 -151.56827
115.92074 -19.68441 -151.73503
115.69695 -19.538399 -151.56827
110.01647 -24.855873 -153.06604
105.28274 -30.484245 -152.38737
105.1188 -30.282677 -152.16547
105.28277 -30.48423 -152.38737
105.1188 -30.282677 -152.16548
99.90853 -34.3256 -150.05496
91.69036 -36.063927 -148.55649
91.679375 -35.765266 -148.37885
114.14712 38.662453 -145.8239
114.05639 38.601555 -145.78954
116.0765 36.007362 -145.34393
115.98168 35.945366 -145.30035
118.02508 32.23455 -144.60736
117.907646 32.176796 -144.5549
117.907616 32.17678 -144.55489
120.280754 25.162804 -143.98225
120.139305 25.117165 -143.91704
122.76238 14.857262 -144.7704
122.62069 14.815987 -144.68729
125.18185 4.752815 -147.0801
125.01977 4.695915 -146.99216
124.71255 -4.783577 -148.66344
121.2463 -13.108162 -149.84995
121.01946 -13.023338 -149.75703
115.69692 -19.538414 -151.56825
115.46285 -19.368477 -151.44995
115.69692 -19.538399 -151.56825
115.46288 -19.368462 -151.44995
110.01644 -24.855873 -153.06604
109.79217 -24.647514 -152.92938
105.11877 -30.282661 -152.16547
104.934654 -30.064857 -151.9927
104.934685 -30.064873 -151.9927
99.90853 -34.325584 -150.05496
99.78686 -34.074776 -149.87845
91.646935 -35.461845 -148.25706
91.646935 -35.46183 -148.25706
113.96972 38.540154 -145.77295
115.8897 35.882393 -145.27516
117.79458 32.11741 -144.52473
117.79455 32.117393 -144.52473
120.00033 25.069527 -143.87798
122.46975 14.773933 -144.63005
124.83965 4.640312 -146.93137
124.50048 -4.793983 -148.61374
120.78927 -12.930763 -149.70671
115.22973 -19.184166 -151.38107
115.22973 -19.18415 -151.38107
109.56924 -24.423882 -152.84515
104.7405 -29.84269 -151.87407
104.7405 -29.84269 -151.87405
99.64724 -33.82888 -149.75763
91.5971 -35.16822 -148.19061
91.5971 -35.16822 -148.19063
113.886925 38.478477 -145.77249
115.80062 35.81861 -145.26758
117.685936 32.056923 -144.51483
117.685936 32.056892 -144.51482
119.863396 25.02047 -143.86266
122.30843 14.731651 -144.59985
124.646324 4.58857 -146.90207
124.28588 -4.800514 -148.59988
120.56811 -12.836037 -149.6981
115.00973 -18.996605 -151.3608
115.00976 -18.99659 -151.36081
109.358696 -24.197609 -152.81282
104.54357 -29.624336 -151.80972
99.49355 -33.593117 -149.69258
91.53274 -34.88906 -148.17554
84.35476 -35.012672 -149.5275
112.72506 40.207436 -146.83102
113.886925 38.478508 -145.77249
113.80688 38.415672 -145.78867
115.80065 35.818626 -145.26756
115.713554 35.753212 -145.2789
117.68597 32.056923 -144.51483
117.58144 31.99514 -144.52484
117.68597 32.056908 -144.51482
117.58141 31.995125 -144.52483
119.86343 25.02047 -143.86266
119.72857 24.970543 -143.86954
122.137535 14.689857 -144.59776
124.646324 4.588585 -146.90208
124.44515 4.542809 -146.90709
124.28588 -4.800499 -148.5999
124.07772 -4.802711 -148.6228
120.56808 -12.836037 -149.6981
120.365776 -12.743629 -149.7297
115.0097 -18.996605 -151.36081
114.812645 -18.81466 -151.38766
115.00973 -18.99659 -151.36082
114.812675 -18.814644 -151.38766
109.168755 -23.978157 -152.83066
104.34728 -29.412941 -151.79608
104.34725 -29.412941 -151.79608
99.49352 -33.593117 -149.69258
99.326195 -33.365303 -149.67844
91.454704 -34.620796 -148.20694
91.53274 -34.889046 -148.17554
91.454704 -34.62078 -148.20695
84.35476 -35.012657 -149.52748
113.80685 38.415657 -145.78865
113.72848 38.350548 -145.82309
115.713524 35.753197 -145.27888
115.62731 35.684975 -145.3113
117.58141 31.99511 -144.52483
117.48019 31.931236 -144.5561
117.58138 31.995094 -144.5248
117.480156 31.931236 -144.55609
119.72854 24.970543 -143.86952
119.596825 24.919807 -143.8992
122.137505 14.689827 -144.59775
121.961784 14.649605 -144.62482
124.44512 4.542793 -146.90707
124.24267 4.504784 -146.9469
124.07772 -4.802727 -148.62277
123.880516 -4.799812 -148.68143
120.365746 -12.743645 -149.72969
120.18429 -12.654564 -149.79935
114.812614 -18.814674 -151.38765
114.639946 -18.64051 -151.45905
114.812645 -18.81466 -151.38765
114.639946 -18.640495 -151.45905
109.168724 -23.978172 -152.83066
109.00039 -23.767616 -152.89551
104.34725 -29.412956 -151.79607
104.151115 -29.207344 -151.82834
104.34722 -29.412956 -151.79607
104.151115 -29.20736 -151.82832
99.326164 -33.36532 -149.67842
99.14425 -33.14126 -149.70964
91.45467 -34.62081 -148.20694
91.36266 -34.358498 -148.28192
91.45467 -34.620796 -148.20695
91.36269 -34.358498 -148.28194
113.65261 38.283546 -145.87694
115.54278 35.614388 -145.36563
117.38241 31.865196 -144.6103
117.38238 31.865181 -144.61029
119.47024 24.868156 -143.95393
121.78866 14.612251 -144.68237
124.046135 4.476189 -147.02107
123.69573 -4.790459 -148.77405
120.020164 -12.567177 -149.90443
114.48727 -18.471367 -151.57169
108.8496 -23.562767 -153.0042
103.952995 -29.005577 -151.90477
98.94695 -32.9199 -149.78574
91.25594 -34.10125 -148.402
113.58288 38.21734 -145.94969
115.46377 35.544426 -145.4407
117.29046 31.798653 -144.68768
117.29046 31.798637 -144.68768
119.35131 24.815895 -144.03552
121.62545 14.579048 -144.77098
123.86266 4.458412 -147.12822
123.5248 -4.773689 -148.89867
119.87008 -12.480019 -150.04305
114.35064 -18.304436 -151.72318
114.35067 -18.30442 -151.72318
108.71291 -23.360802 -153.15508
103.75155 -28.807976 -152.02809
103.75155 -28.807976 -152.02808
98.734276 -32.704384 -149.91235
91.13354 -33.853065 -148.57289
91.13357 -33.853065 -148.5729
113.58282 38.217323 -145.94969
113.52364 38.155724 -146.03943
115.46371 35.544426 -145.44069
115.395226 35.479256 -145.53429
117.29046 31.798653 -144.68767
117.20861 31.734734 -144.78683
117.29043 31.798637 -144.68767
117.20858 31.734718 -144.78682
119.35128 24.81588 -144.0355
119.24386 24.764488 -144.14319
121.62542 14.579033 -144.77097
121.47814 14.55117 -144.88895
123.86266 4.458412 -147.1282
123.69817 4.452263 -147.26553
123.5248 -4.773689 -148.89865
123.37084 -4.749199 -149.05385
119.87008 -12.480019 -150.04303
119.73449 -12.392937 -150.21584
114.35061 -18.304466 -151.72318
114.230156 -18.13958 -151.9147
114.35061 -18.304451 -151.72318
114.23019 -18.139565 -151.9147
108.71288 -23.360832 -153.15506
108.59051 -23.16204 -153.35016
103.75152 -28.807991 -152.02806
103.547295 -28.61692 -152.20412
103.547325 -28.61692 -152.20412
98.734276 -32.7044 -149.91234
98.50634 -32.49932 -150.09785
91.13354 -33.853065 -148.57288
90.994286 -33.621056 -148.80212
91.13357 -33.85308 -148.57289
84.35479 -35.01264 -149.5275
112.72509 40.20745 -146.83102
113.52361 38.155724 -146.03943
113.47521 38.096825 -146.15662
115.395195 35.47924 -145.53427
115.33718 35.417046 -145.65762
117.20858 31.734703 -144.78683
117.13595 31.670906 -144.91995
117.20855 31.734688 -144.78682
117.13592 31.67086 -144.91994
119.24383 24.764458 -144.14317
119.14489 24.711342 -144.29036
121.47814 14.55117 -144.88893
121.34008 14.528008 -145.05153
123.69817 4.452263 -147.26552
123.54467 4.459908 -147.4508
123.22616 -4.712929 -149.26382
119.73446 -12.392937 -150.21582
119.60729 -12.297874 -150.45497
114.230125 -18.13958 -151.91469
114.12212 -17.961952 -152.18349
114.230156 -18.13958 -151.91469
114.122154 -17.961922 -152.1835
108.59051 -23.162056 -153.35014
108.47756 -22.948906 -153.62904
103.547264 -28.616936 -152.2041
103.3189 -28.417076 -152.47499
103.547295 -28.616936 -152.2041
103.31893 -28.41706 -152.475
98.50634 -32.499336 -150.09784
98.23348 -32.289925 -150.38844
90.994286 -33.62107 -148.80212
90.81686 -33.395058 -149.1379
POLYGONS 906 3624
3 0 1 2
3 2 1 3
3 2 3 4
3 4 3 5
3 4 5 6
3 6 5 7
3 8 9 10
3 10 9 11
3 10 11 12
3 12 11 13
3 12 13 14
3 14 13 15
3 14 15 16
3 16 15 17
3 16 17 18
3 18 17 19
3 18 19 20
3 20 19 21
3 22 23 24
3 24 23 25
3 24 25 26
3 26 25 27
3 28 29 30
3 30 29 31
3 30 31 32
3 32 31 33
3 32 33 34
3 1 0 3
3 3 0 35
3 3 35 5
3 5 35 36
3 5 36 7
3 7 36 37
3 9 38 11
3 11 38 39
3 11 39 13
3 13 39 40
3 13 40 15
3 15 40 41
3 15 41 17
3 17 41 42
3 17 42 19
3 19 42 43
3 19 43 21
3 21 43 44
3 23 45 25
3 25 45 46
3 25 46 27
3 27 46 47
3 29 48 31
3 31 48 49
3 31 49 33
3 33 49 50
3 33 51 34
3 0 52 35
3 35 52 53
3 35 53 36
3 36 53 54
3 36 54 37
3 37 54 55
3 38 56 39
3 39 56 57
3 39 57 40
3 40 57 58
3 40 58 41
3 41 58 59
3 41 59 42
3 42 59 60
3 42 60 43
3 43 60 61
3 43 61 44
3 44 61 62
3 45 63 46
3 46 63 64
3 46 64 47
3 47 64 65
3 48 66 49
3 49 66 67
3 49 67 50
3 50 67 68
3 51 68 34
3 52 0 53
3 53 0 69
3 53 69 54
3 54 69 70
3 54 70 55
3 55 70 71
3 56 72 57
3 57 72 73
3 57 73 58
3 58 73 74
3 58 74 59
3 59 74 75
3 59 75 60
3 60 75 76
3 60 76 61
3 61 76 77
3 61 77 62
3 62 77 78
3 63 79 64
3 64 79 80
3 64 80 65
3 65 80 81
3 66 82 67
3 67 82 83
3 67 83 68
3 68 83 84
3 68 84 34
3 0 85 69
3 69 85 86
3 69 86 70
3 70 86 87
3 70 87 71
3 71 87 88
3 72 89 73
3 73 89 90
3 73 90 74
3 74 90 91
3 74 91 75
3 75 91 92
3 75 92 76
3 76 92 93
3 76 93 77
3 77 93 94
3 77 94 78
3 78 94 95
3 79 96 80
3 80 96 97
3 80 97 81
3 81 97 98
3 82 98 83
3 83 98 99
3 83 99 84
3 84 99 100
3 84 101 34
3 34 101 102
3 85 1 86
3 86 1 103
3 86 103 87
3 87 103 104
3 87 104 88
3 88 104 105
3 89 106 90
3 90 106 107
3 90 107 91
3 91 107 108
3 91 108 92
3 92 108 109
3 92 109 93
3 93 109 110
3 93 110 94
3 94 110 111
3 94 111 95
3 95 111 112
3 96 113 97
3 97 113 114
3 97 114 98
3 98 114 115
3 98 116 99
3 99 116 117
3 99 117 100
3 100 117 118
3 101 118 102
3 102 118 34
3 1 119 103
3 103 119 120
3 103 120 104
3 104 120 121
3 104 121 105
3 105 121 122
3 106 123 107
3 107 123 124
3 107 124 108
3 108 124 125
3 108 125 109
3 109 125 126
3 109 126 110
3 110 126 127
3 110 127 111
3 111 127 128
3 111 128 112
3 112 128 129
3 113 130 114
3 114 130 131
3 114 131 115
3 115 131 132
3 116 133 117
3 117 133 134
3 117 134 118
3 118 134 135
3 118 135 34
3 119 136 120
3 120 136 137
3 120 137 121
3 121 137 138
3 121 138 122
3 122 138 139
3 123 140 124
3 124 140 141
3 124 141 125
3 125 141 142
3 125 142 126
3 126 142 143
3 126 143 127
3 127 143 144
3 127 144 128
3 128 144 145
3 128 145 129
3 129 145 146
3 130 147 131
3 131 147 148
3 131 148 132
3 132 148 149
3 133 150 134
3 134 150 151
3 134 151 135
3 135 151 152
3 135 152 153
3 153 152 154
3 136 119 137
3 137 119 155
3 137 155 138
3 138 155 156
3 138 156 139
3 139 156 157
3 140 158 141
3 141 158 159
3 141 159 142
3 142 159 160
3 142 160 143
3 143 160 161
3 143 161 144
3 144 161 162
3 144 162 145
3 145 162 163
3 145 163 146
3 146 163 164
3 147 165 148
3 148 165 166
3 148 166 149
3 149 166 167
3 150 167 151
3 151 167 168
3 151 168 152
3 152 168 169
3 152 169 154
3 154 169 170
3 119 0 155
3 155 0 171
3 155 171 156
3 156 171 172
3 156 172 157
3 157 172 173
3 158 174 159
3 159 174 175
3 159 175 160
3 160 175 176
3 160 176 161
3 161 176 177
3 161 177 162
3 162 177 178
3 162 178 163
3 163 178 179
3 163 179 164
3 164 179 180
3 165 181 166
3 166 181 182
3 166 182 167
3 167 182 183
3 167 184 168
3 168 184 185
3 168 185 169
3 169 185 186
3 169 186 170
3 170 186 34
3 171 187 188
3 171 188 172
3 172 188 189
3 172 189 173
3 173 189 190
3 174 191 175
3 175 191 192
3 175 192 176
3 176 192 193
3 176 193 177
3 177 193 194
3 177 194 178
3 178 194 195
3 178 195 179
3 179 195 196
3 179 196 180
3 180 196 197
3 181 198 182
3 182 198 199
3 182 199 183
3 183 199 200
3 184 201 185
3 185 201 202
3 185 202 186
3 186 202 203
3 186 203 34
3 187 204 188
3 188 204 205
3 188 205 189
3 189 205 206
3 189 206 190
3 190 206 207
3 191 208 192
3 192 208 209
3 192 209 193
3 193 209 210
3 193 210 194
3 194 210 211
3 194 211 195
3 195 211 212
3 195 212 196
3 196 212 213
3 196 213 197
3 197 213 214
3 198 214 199
3 199 214 215
3 199 215 200
3 200 215 216
3 201 217 202
3 202 217 218
3 202 218 203
3 203 218 219
3 203 219 154
3 154 219 220
3 204 0 205
3 205 0 221
3 205 221 206
3 206 221 222
3 206 222 207
3 207 222 223
3 208 224 209
3 209 224 225
3 209 225 210
3 210 225 226
3 210 226 211
3 211 226 227
3 211 227 212
3 212 227 228
3 212 228 213
3 213 228 229
3 213 229 214
3 214 229 230
3 214 231 215
3 215 231 232
3 215 232 216
3 216 232 233
3 217 234 218
3 218 234 235
3 218 235 219
3 219 235 236
3 219 236 220
3 220 236 237
3 0 238 221
3 221 238 239
3 221 239 222
3 222 239 240
3 222 240 223
3 223 240 241
3 224 242 225
3 225 242 243
3 225 243 226
3 226 243 244
3 226 244 227
3 227 244 245
3 227 245 228
3 228 245 246
3 228 246 229
3 229 246 247
3 229 247 230
3 230 247 248
3 231 249 232
3 232 249 250
3 232 250 233
3 233 250 251
3 234 252 235
3 235 252 253
3 235 253 236
3 236 253 254
3 236 255 237
3 237 255 153
3 238 0 239
3 239 0 256
3 239 256 240
3 240 256 257
3 240 257 241
3 241 257 258
3 242 259 243
3 243 259 260
3 243 260 244
3 244 260 261
3 244 261 245
3 245 261 262
3 245 262 246
3 246 262 263
3 246 263 247
3 247 263 264
3 247 264 248
3 248 264 265
3 249 266 250
3 250 266 267
3 250 267 251
3 251 267 268
3 252 269 253
3 253 269 270
3 253 270 254
3 254 270 271
3 255 272 153
3 0 187 256
3 256 187 273
3 256 273 257
3 257 273 274
3 257 274 258
3 258 274 275
3 259 275 260
3 260 275 276
3 260 276 261
3 261 276 277
3 261 277 262
3 262 277 278
3 262 278 263
3 263 278 279
3 263 279 264
3 264 279 280
3 264 280 265
3 265 280 281
3 266 282 267
3 267 282 283
3 267 283 268
3 268 283 284
3 269 285 270
3 270 285 286
3 270 286 271
3 271 286 287
3 272 287 34
3 34 287 153
3 187 1 273
3 273 1 288
3 273 288 274
3 274 288 289
3 274 289 275
3 275 289 290
3 275 291 276
3 276 291 292
3 276 292 277
3 277 292 293
3 277 293 278
3 278 293 294
3 278 294 279
3 279 294 295
3 279 295 280
3 280 295 296
3 280 296 281
3 281 296 297
3 282 298 283
3 283 298 299
3 283 299 284
3 284 299 300
3 285 301 286
3 286 301 302
3 286 302 287
3 287 302 303
3 287 304 153
3 153 304 34
3 1 305 288
3 288 305 306
3 288 306 289
3 289 306 307
3 289 307 290
3 290 307 308
3 291 309 292
3 292 309 310
3 292 310 293
3 293 310 311
3 293 311 294
3 294 311 312
3 294 312 295
3 295 312 313
3 295 313 296
3 296 313 314
3 296 314 297
3 297 314 315
3 298 316 299
3 299 316 317
3 299 317 300
3 300 317 318
3 301 319 302
3 302 319 320
3 302 320 303
3 303 320 321
3 304 322 34
3 0 323 324
3 324 323 325
3 324 325 326
3 326 325 327
3 326 327 308
3 308 327 328
3 309 328 310
3 310 328 329
3 310 329 330
3 330 329 331
3 330 331 312
3 312 331 332
3 312 332 313
3 313 332 333
3 313 333 334
3 334 333 335
3 334 335 336
3 336 335 337
3 338 339 317
3 317 339 340
3 317 340 318
3 318 340 341
3 319 342 343
3 343 342 344
3 343 344 345
3 345 344 346
3 345 347 34
3 34 347 348
3 305 187 349
3 349 187 350
3 349 350 351
3 351 350 352
3 351 352 353
3 353 352 354
3 355 356 357
3 357 356 358
3 357 358 359
3 359 358 360
3 359 360 361
3 361 360 362
3 361 362 363
3 363 362 364
3 363 364 365
3 365 364 366
3 365 366 367
3 367 366 368
3 369 370 371
3 371 370 372
3 371 372 342
3 342 372 373
3 374 375 376
3 376 375 377
3 376 377 378
3 378 377 379
3 380 381 34
3 34 381 220
3 350 187 382
3 350 382 352
3 352 382 383
3 352 383 354
3 354 383 384
3 356 385 358
3 358 385 386
3 358 386 360
3 360 386 387
3 360 387 362
3 362 387 388
3 362 388 364
3 364 388 389
3 364 389 366
3 366 389 390
3 366 390 368
3 368 390 391
3 370 392 372
3 372 392 393
3 372 393 373
3 373 393 394
3 375 394 377
3 377 394 395
3 377 395 379
3 379 395 396
3 381 397 220
3 220 397 34
3 382 187 398
3 382 398 383
3 383 398 399
3 383 399 384
3 384 399 400
3 385 401 386
3 386 401 402
3 386 402 387
3 387 402 403
3 387 403 388
3 388 403 404
3 388 404 389
3 389 404 405
3 389 405 390
3 390 405 406
3 390 406 391
3 391 406 407
3 392 408 393
3 393 408 409
3 393 409 394
3 394 409 410
3 394 411 395
3 395 411 412
3 395 412 396
3 396 412 413
3 397 413 34
3 0 187 414
3 414 187 415
3 414 415 416
3 416 415 417
3 416 417 418
3 418 417 419
3 420 419 421
3 421 419 422
3 421 422 403
3 403 422 423
3 403 423 404
3 404 423 424
3 404 424 425
3 425 424 426
3 425 426 427
3 427 426 428
3 427 428 429
3 429 428 430
3 431 432 409
3 409 432 433
3 409 433 434
3 434 433 435
3 436 437 412
3 412 437 438
3 412 438 439
3 439 438 440
3 439 440 34
3 187 85 441
3 441 85 442
3 441 442 443
3 443 442 444
3 443 444 445
3 445 444 446
3 445 447 448
3 448 447 449
3 448 449 450
3 450 449 451
3 450 451 452
3 452 451 453
3 452 453 426
3 426 453 454
3 426 454 455
3 455 454 456
3 455 456 457
3 457 456 458
3 459 460 461
3 461 460 462
3 461 462 463
3 463 462 464
3 437 465 466
3 466 465 467
3 466 467 440
3 440 467 468
3 440 469 34
3 34 469 154
3 85 136 442
3 442 136 470
3 442 470 444
3 444 470 471
3 444 471 446
3 446 471 472
3 447 473 449
3 449 473 474
3 449 474 451
3 451 474 475
3 451 475 453
3 453 475 476
3 453 476 454
3 454 476 477
3 454 477 456
3 456 477 478
3 456 478 458
3 458 478 479
3 460 480 462
3 462 480 481
3 462 481 464
3 464 481 482
3 465 483 467
3 467 483 484
3 467 484 468
3 468 484 485
3 469 486 154
3 154 486 34
3 136 0 470
3 470 0 487
3 470 487 471
3 471 487 488
3 471 488 472
3 472 488 489
3 473 490 474
3 474 490 491
3 474 491 475
3 475 491 492
3 475 492 476
3 476 492 493
3 476 493 477
3 477 493 494
3 477 494 478
3 478 494 495
3 478 495 479
3 479 495 496
3 480 497 481
3 481 497 498
3 481 498 482
3 482 498 499
3 483 499 484
3 484 499 500
3 484 500 485
3 485 500 501
3 486 501 34
3 34 501 502
3 503 0 504
3 504 0 505
3 504 505 506
3 506 505 507
3 506 507 508
3 508 507 509
3 510 511 512
3 512 511 513
3 512 513 492
3 492 513 514
3 492 514 515
3 515 514 516
3 515 516 517
3 517 516 518
3 517 518 519
3 519 518 520
3 519 520 521
3 521 520 522
3 523 524 498
3 498 524 525
3 498 525 499
3 499 525 526
3 499 527 528
3 528 527 529
3 528 529 501
3 501 529 530
3 531 532 533
3 533 532 102
3 503 0 534
3 534 0 535
3 534 535 536
3 536 535 537
3 536 537 538
3 538 537 539
3 540 541 542
3 542 541 543
3 542 543 544
3 544 543 545
3 544 545 546
3 546 545 547
3 546 547 548
3 548 547 549
3 548 549 550
3 550 549 551
3 550 551 552
3 552 551 553
3 554 555 556
3 556 555 557
3 556 557 558
3 558 557 559
3 560 561 562
3 562 561 563
3 562 563 564
3 564 563 565
3 566 567 502
3 502 567 34
3 535 0 568
3 535 568 537
3 537 568 569
3 537 569 539
3 539 569 570
3 541 571 543
3 543 571 572
3 543 572 545
3 545 572 573
3 545 573 547
3 547 573 574
3 547 574 549
3 549 574 575
3 549 575 551
3 551 575 576
3 551 576 553
3 553 576 577
3 555 577 557
3 557 577 578
3 557 578 559
3 559 578 579
3 561 579 563
3 563 579 580
3 563 580 565
3 565 580 581
3 567 581 34
3 0 305 568
3 568 305 582
3 568 582 569
3 569 582 583
3 569 583 570
3 570 583 584
3 571 585 572
3 572 585 586
3 572 586 573
3 573 586 587
3 573 587 574
3 574 587 588
3 574 588 575
3 575 588 589
3 575 589 576
3 576 589 590
3 576 590 577
3 577 590 591
3 577 592 578
3 578 592 593
3 578 593 579
3 579 593 594
3 579 595 580
3 580 595 596
3 580 596 581
3 581 596 597
3 581 598 34
3 323 119 599
3 599 119 600
3 599 600 601
3 601 600 602
3 601 602 603
3 603 602 604
3 605 606 607
3 607 606 608
3 607 608 609
3 609 608 610
3 609 610 611
3 611 610 612
3 611 612 613
3 613 612 614
3 613 614 615
3 615 614 616
3 615 616 617
3 617 616 618
3 619 620 621
3 621 620 622
3 621 622 623
3 623 622 624
3 623 625 626
3 626 625 627
3 626 627 628
3 628 627 629
3 630 629 348
3 348 629 631
3 632 204 633
3 633 204 634
3 633 634 635
3 635 634 636
3 635 636 637
3 637 636 638
3 639 640 641
3 641 640 642
3 641 642 643
3 643 642 644
3 643 644 645
3 645 644 646
3 645 646 614
3 614 646 647
3 614 647 648
3 648 647 649
3 648 649 650
3 650 649 651
3 652 653 654
3 654 653 655
3 654 655 656
3 656 655 657
3 658 659 660
3 660 659 661
3 660 661 662
3 662 661 663
3 662 663 34
3 204 0 634
3 634 0 2
3 634 2 636
3 636 2 4
3 636 4 638
3 638 4 6
3 640 8 642
3 642 8 10
3 642 10 644
3 644 10 12
3 644 12 646
3 646 12 14
3 646 14 647
3 647 14 16
3 647 16 649
3 649 16 18
3 649 18 651
3 651 18 20
3 653 22 655
3 655 22 24
3 655 24 657
3 657 24 26
3 659 28 661
3 661 28 30
3 661 30 663
3 663 30 32
3 663 32 34
