# vtk DataFile Version 2.0
File written by itkPolyDataMeshIO
ASCII
DATASET POLYDATA
POINTS 1392 float
44.984474 -20.071602 535.14935
41.9226 -20.473534 537.75977
44.74169 -19.65966 534.98975
47.656075 -18.9804 533.11273
47.355034 -18.60981 533.0378
48.064247 -18.348 529.8937
47.747078 -18.006569 530.01984
46.18029 -17.842583 525.73676
45.900276 -17.522423 525.958
43.335045 -17.620674 521.44727
43.07621 -17.305717 521.6759
40.26786 -17.81298 517.4842
40.013695 -17.478539 517.7268
36.991478 -18.308372 513.81445
36.73327 -17.951195 514.06635
36.99151 -18.308357 513.8145
36.733284 -17.95118 514.0664
33.638252 -18.877724 509.78586
33.36001 -18.520958 510.01407
30.655754 -19.374077 504.71902
30.342384 -19.024239 504.88147
30.65577 -19.374077 504.7191
30.3424 -19.024239 504.88147
28.61039 -19.793724 499.0194
28.253426 -19.434715 499.09018
27.557762 -20.199928 493.37354
27.167686 -19.816124 493.35876
27.106606 -20.497246 487.88358
26.734001 -20.121452 487.83444
26.976402 -20.771187 482.52356
26.646538 -20.423424 482.4753
26.976387 -20.771187 482.52353
26.646523 -20.423439 482.47525
26.947746 -21.105751 477.14124
26.656822 -20.793907 477.0931
26.972267 -21.451149 471.72464
26.705467 -21.175392 471.67752
27.089195 -21.597649 466.35074
26.832695 -21.353294 466.31006
27.330177 -21.346367 460.87964
27.065239 -21.125694 460.85965
27.680153 -20.65194 455.0351
27.3778 -20.445076 455.05685
27.680138 -20.651955 455.0351
27.3778 -20.445076 455.05682
28.010231 -19.8106 449.27673
27.644188 -19.606773 449.33124
27.97483 -19.354027 444.41318
27.509438 -19.110313 444.46683
27.77288 -19.396461 439.8073
27.20388 -19.088478 439.8487
27.425453 -19.59417 434.5006
26.806725 -19.25132 434.54333
27.425453 -19.59417 434.50064
26.80674 -19.25129 434.54333
26.791618 -19.605522 429.0073
26.176216 -19.253822 429.05875
26.109917 -19.313698 423.80905
25.510735 -18.959068 423.8777
26.109901 -19.313683 423.80905
25.510735 -18.959068 423.87766
24.993568 -18.858559 418.5461
24.403511 -18.507439 418.65115
23.771553 -18.304893 413.34854
23.189247 -17.96238 413.4906
22.766426 -17.678185 408.26276
22.191658 -17.341743 408.4467
22.76641 -17.678185 408.26273
22.191628 -17.341759 408.4466
21.617928 -16.997368 403.2116
21.04206 -16.663353 403.4391
20.551292 -16.187447 398.26657
19.96598 -15.843925 398.53183
20.551308 -16.187416 398.2666
19.965996 -15.84391 398.53186
19.528755 -15.360909 393.44733
18.942207 -15.017372 393.73575
18.406136 -14.590004 388.58923
17.821495 -14.250694 388.88617
17.136574 -13.715569 383.50705
16.546638 -13.390572 383.80655
17.136574 -13.715553 383.50705
16.546654 -13.390572 383.80655
15.707756 -13.087227 378.26376
15.104942 -12.769356 378.54916
14.208977 -12.727409 373.13956
13.590446 -12.386757 373.40848
14.208961 -12.727425 373.13956
13.590446 -12.386757 373.40845
12.669121 -11.859093 367.7523
12.038094 -11.481712 368.0241
10.954033 -10.042976 361.19577
10.325539 -9.648705 361.471
9.002983 -7.428688 353.00073
8.403648 -7.059273 353.25876
9.002968 -7.428688 353.0007
8.403633 -7.059273 353.25873
7.212761 -4.864876 344.75296
6.65731 -4.61692 345.0484
6.045753 -3.442116 339.14648
5.564003 -3.329704 339.4895
6.045738 -3.442116 339.14645
5.563988 -3.329704 339.48947
5.883492 -0.558846 334.5861
41.922585 -20.473534 537.75977
44.53582 -19.194359 534.94946
47.133644 -18.169487 533.0339
47.512123 -17.577766 530.14124
45.681465 -17.105385 526.1359
42.873833 -16.897224 521.8502
39.831017 -17.08834 517.9014
36.560555 -17.573112 514.241
36.56057 -17.573097 514.241
33.178596 -18.148537 510.1719
30.142159 -18.657677 504.99744
30.142159 -18.657677 504.99747
28.030617 -19.061943 499.1389
26.931557 -19.424614 493.3362
26.512169 -19.73388 487.7828
26.453743 -20.055214 482.4228
26.453712 -20.055214 482.42276
26.487831 -20.451103 477.03885
26.54853 -20.857384 471.62143
26.67942 -21.055382 466.25998
26.904915 -20.840797 460.83746
27.19181 -20.161964 455.09656
27.191795 -20.16198 455.0965
27.409065 -19.309532 449.42343
27.19558 -18.758995 444.54736
26.780037 -18.650398 439.89334
26.306313 -18.755714 434.58823
26.306328 -18.7557 434.5883
25.675987 -18.74746 429.11996
25.026482 -18.451134 423.95404
25.026482 -18.451134 423.95398
23.927147 -18.008018 418.75916
22.719185 -17.471779 413.62964
21.728065 -16.848793 408.62372
21.72805 -16.848808 408.6237
20.576607 -16.172356 403.65726
19.491646 -15.345894 398.78177
19.491661 -15.345879 398.78177
18.467796 -14.519981 394.00058
17.347923 -13.757362 389.15497
16.069328 -12.907433 384.07687
16.069313 -12.907433 384.07687
14.620338 -12.300987 378.80927
13.097878 -11.912376 373.6579
11.584831 -11.015404 368.2561
9.938728 -9.216515 361.6741
8.00869 -6.620323 353.4566
8.008675 -6.620323 353.45657
6.222435 -4.198036 345.28662
5.174492 -3.009453 339.74646
5.174507 -3.009453 339.74643
5.883476 -0.558861 334.5861
44.384132 -18.71128 535.03345
47.007545 -17.690987 533.1026
47.3664 -17.085426 530.24927
45.53428 -16.61721 526.2567
42.742058 -16.422722 521.95575
39.71142 -16.639778 517.99335
36.441826 -17.141396 514.3237
36.44184 -17.141365 514.3238
33.05509 -17.722878 510.2461
30.009499 -18.237144 505.05737
30.009499 -18.237144 505.05743
27.883842 -18.633278 499.16165
26.776466 -18.97361 493.30786
26.370354 -19.283607 487.7328
26.336052 -19.620277 482.37048
26.336052 -19.620293 482.37045
26.387398 -20.03675 476.98315
26.45385 -20.463097 471.563
26.584602 -20.676735 466.20544
26.803658 -20.469933 460.81467
27.070961 -19.784264 455.1487
27.070946 -19.784264 455.1487
27.250572 -18.903877 449.54633
26.978401 -18.286674 444.65036
26.486275 -18.088295 439.93774
25.961159 -18.139015 434.63147
25.961159 -18.138985 434.6315
25.33242 -18.121147 429.18628
24.69703 -17.824638 424.03265
23.6027 -17.391273 418.86224
22.398033 -16.860146 413.7569
21.413124 -16.233025 408.78174
21.413094 -16.23304 408.78168
20.259743 -15.558815 403.84958
19.166512 -14.726723 398.99738
19.166527 -14.726723 398.99738
18.143852 -13.900963 394.22083
17.026573 -13.142403 389.37387
15.745384 -12.298073 384.29666
14.293633 -11.713081 379.02374
12.772224 -11.339012 373.86954
12.772224 -11.338997 373.86954
11.289543 -10.468529 368.4569
9.686684 -8.711632 361.85
7.747627 -6.094612 353.62387
7.747612 -6.094597 353.62387
5.928658 -3.625862 345.452
4.908409 -2.493462 339.88937
4.908394 -2.493477 339.88934
41.922615 -20.473534 537.75977
44.29682 -18.253654 535.23035
46.980247 -17.214851 533.2361
47.31942 -16.57473 530.3347
45.47338 -16.105843 526.3108
42.692482 -15.927116 521.9848
39.663933 -16.164223 517.99677
36.386406 -16.676003 514.30975
36.38642 -16.676003 514.3098
32.999382 -17.261635 510.23227
29.955528 -17.779655 505.05734
29.955544 -17.779655 505.0574
27.825264 -18.164207 499.1569
26.714699 -18.476295 493.27625
26.320198 -18.78312 487.6889
26.30407 -19.130363 482.32312
26.304039 -19.130394 482.3231
26.365501 -19.561485 476.9312
26.431572 -20.002129 471.5085
26.559212 -20.226463 466.15402
26.773232 -20.022087 460.79413
27.02781 -19.320961 455.2086
27.027794 -19.320976 455.2086
27.183006 -18.401207 449.6889
26.87539 -17.709435 444.7671
26.343422 -17.4309 439.97855
25.793953 -17.442772 434.66953
25.793968 -17.442741 434.66956
25.168266 -17.418175 429.25244
24.543953 -17.121391 424.10678
24.543938 -17.121391 424.10675
23.451271 -16.695885 418.95163
22.24717 -16.168343 413.86368
21.268333 -15.538231 408.91058
21.268303 -15.538246 408.91055
20.113228 -14.866417 404.00305
19.013176 -14.029976 399.16394
19.013191 -14.029961 399.16397
17.993431 -13.204079 394.3814
16.879585 -12.449165 389.52795
15.596703 -11.605751 384.4509
15.596687 -11.605751 384.4509
14.148552 -11.049263 379.17792
12.638252 -10.713676 374.02908
12.638252 -10.713661 374.02908
11.173531 -9.879112 368.61606
9.586708 -8.157326 361.99594
7.639793 -5.518318 353.76025
7.639793 -5.518333 353.76022
5.799828 -2.995216 345.57373
4.787514 -1.918724 339.9862
4.787514 -1.918739 339.98618
5.883492 -0.55883 334.58612
44.27746 -17.848076 535.52966
47.05413 -16.768639 533.4271
47.380287 -16.078545 530.3917
45.50643 -15.603264 526.29376
42.728737 -15.439842 521.93463
39.694588 -15.695305 517.91034
36.40383 -16.215553 514.1987
36.403847 -16.215538 514.1988
33.022087 -16.803993 510.13025
29.99192 -17.324074 504.9965
29.991936 -17.324074 504.9965
27.869041 -17.694801 499.1243
26.762703 -17.975563 493.24313
26.376839 -18.275337 487.65363
26.370293 -18.626945 482.2834
26.370262 -18.62696 482.28333
26.43322 -19.064766 476.8857
26.493172 -19.512016 471.46008
26.6157 -19.740807 466.1085
26.827217 -19.533272 460.77634
27.077202 -18.809639 455.27353
27.077187 -18.809654 455.27353
27.222847 -17.843208 449.84116
26.905663 -17.075554 444.88757
26.367516 -16.731117 440.0127
25.814766 -16.72097 434.69907
25.814766 -16.720955 434.69907
25.192741 -16.692848 429.31128
24.575554 -16.394646 424.16806
24.575554 -16.39466 424.16803
23.481041 -15.973854 419.0197
22.275276 -15.449791 413.9422
21.302269 -14.818657 409.0011
21.302254 -14.818672 409.00107
20.146858 -14.150154 404.10678
19.044533 -13.312202 399.26926
19.044548 -13.312202 399.26926
18.02665 -12.484901 394.47165
16.914284 -11.7313 389.60727
15.632286 -10.887215 384.52893
15.632286 -10.887199 384.52893
14.19532 -10.365761 379.26108
12.702843 -10.080986 374.12527
12.702827 -10.080986 374.12524
11.248726 -9.286598 368.72067
9.665367 -7.613945 362.10425
7.726204 -5.054146 353.90347
7.726189 -5.054146 353.90344
5.882133 -2.555733 345.73062
4.826927 -1.372749 340.04855
4.826927 -1.372749 340.04852
5.883492 -0.558846 334.58606
44.32653 -17.521553 535.90967
47.227425 -16.384941 533.6615
47.380302 -16.078545 530.3917
47.544518 -15.630867 530.41675
45.506447 -15.603249 526.29376
45.626427 -15.141029 526.20807
42.84336 -14.991646 521.80994
39.694588 -15.69529 517.91034
39.79847 -15.265083 517.7412
36.49183 -15.793617 513.9995
36.403862 -16.215538 514.1988
36.491844 -15.793602 513.9996
33.022118 -16.804008 510.1303
33.121117 -16.383904 509.94833
29.99192 -17.32409 504.9965
30.11602 -16.904274 504.8796
29.991951 -17.32409 504.99652
30.11602 -16.904274 504.87964
27.869041 -17.694786 499.12433
28.013023 -17.260399 499.06628
26.762703 -17.975563 493.24316
26.919167 -17.509789 493.21072
26.376854 -18.275337 487.65366
26.538017 -17.799171 487.6293
26.370277 -18.626945 482.2834
26.531227 -18.148598 482.25385
26.370277 -18.62696 482.28336
26.531212 -18.148613 482.2538
26.433235 -19.06475 476.8857
26.5868 -18.584862 476.84955
26.493172 -19.512016 471.46005
26.635643 -19.030403 471.41992
26.6157 -19.740822 466.1085
26.752037 -19.256721 466.06982
26.827202 -19.533272 460.77637
26.963936 -19.040657 460.76166
27.21772 -18.289879 455.33914
27.077202 -18.809654 455.27353
27.21772 -18.289894 455.33914
27.222862 -17.843208 449.84116
27.369087 -17.273994 449.99207
26.905678 -17.075554 444.88757
27.069084 -16.434975 445.00272
26.5588 -16.04229 440.0374
25.81475 -16.720955 434.69907
26.023918 -16.027122 434.717
26.023918 -16.027107 434.717
25.192726 -16.692848 429.31125
25.406303 -15.998848 429.35678
24.791756 -15.698601 424.21112
24.575554 -16.39466 424.16806
24.79174 -15.698616 424.21115
23.692055 -15.279701 419.06207
22.482582 -14.758324 413.98663
21.302284 -14.818657 409.0011
21.51545 -14.128563 409.04614
21.515419 -14.128578 409.04608
20.146873 -14.150169 404.10675
20.36242 -13.464592 404.15222
19.044533 -13.312218 399.26926
19.261559 -12.627571 399.30472
19.044563 -13.312202 399.26926
19.261574 -12.627556 399.30475
18.02665 -12.484901 394.47168
18.242073 -11.796684 394.48495
16.914284 -11.7313 389.6073
17.129036 -11.041466 389.6056
15.632271 -10.887215 384.52893
15.852608 -10.201439 384.5242
15.852592 -10.201424 384.52417
14.195305 -10.365761 379.26108
14.432945 -9.715904 379.26608
12.702843 -10.080986 374.1253
12.960777 -9.473854 374.14996
12.960777 -9.473854 374.14993
11.248741 -9.286598 368.7207
11.509148 -8.707039 368.757
9.665352 -7.613945 362.10428
9.913521 -7.062859 362.1411
7.726204 -5.054131 353.90347
7.972984 -4.549736 353.9583
7.726189 -5.054146 353.90347
7.972984 -4.549721 353.95828
5.882118 -2.555717 345.73065
6.124565 -2.072609 345.79114
5.016701 -0.842155 340.0477
5.016701 -0.84214 340.04767
5.883476 -0.558846 334.5861
41.922615 -20.473518 537.7598
44.4414 -17.308159 536.3352
47.48809 -16.105629 533.91644
47.7974 -15.276695 530.4062
45.81948 -14.762444 526.0609
43.019676 -14.62191 521.6218
39.960823 -14.908211 517.5044
36.641106 -15.442741 513.7298
36.64112 -15.442726 513.72986
33.288002 -16.033928 509.70218
30.317924 -16.552864 504.7166
30.31794 -16.552864 504.71664
28.246147 -16.894508 498.98758
27.172218 -17.11448 493.18204
26.791176 -17.390953 487.61838
26.773949 -17.732445 482.23746
26.773933 -17.732445 482.23743
26.813545 -18.15989 476.8262
26.847038 -18.595406 471.39175
26.956535 -18.811562 466.04135
27.171486 -18.581612 460.75266
27.437294 -17.801155 455.40015
27.437279 -17.80117 455.40015
27.609459 -16.737144 450.1294
27.352074 -15.835777 445.10413
26.901268 -15.413353 440.05096
26.403831 -15.408287 434.72174
26.403816 -15.408272 434.7217
25.791649 -15.383263 429.38556
25.176155 -15.082298 424.234
25.176155 -15.082298 424.23398
24.068855 -14.664268 419.07663
22.853813 -14.142784 413.99423
21.892342 -13.516319 409.04276
21.892342 -13.516335 409.0427
20.742973 -12.856956 404.13675
19.642738 -12.020638 399.26978
19.642738 -12.020622 399.2698
18.620186 -11.184944 394.4217
17.505867 -10.424736 389.52383
16.23951 -9.596092 384.43802
16.23951 -9.596092 384.43805
14.841896 -9.142815 379.1936
13.390739 -8.926765 374.10196
13.390739 -8.926765 374.102
11.932976 -8.165169 368.71817
10.303825 -6.485863 362.0792
8.319908 -3.801735 353.8151
8.319878 -3.801735 353.81503
6.441978 -1.205894 345.58658
5.328865 -0.286736 339.95132
5.32888 -0.286736 339.9513
5.883507 -0.55883 334.5861
41.922585 -20.473534 537.7597
44.61686 -17.216148 536.7862
47.823586 -15.944771 534.1791
48.12539 -15.031654 530.3604
46.073463 -14.482338 525.85974
43.242058 -14.342262 521.38007
40.165855 -14.640068 517.2121
36.839195 -15.185081 513.40265
36.83921 -15.185066 513.4027
33.51023 -15.77784 509.40372
30.582985 -16.293907 504.5153
30.58297 -16.293907 504.51535
28.551308 -16.62249 498.89194
27.502907 -16.817696 493.15814
27.117088 -17.08033 487.62094
27.079567 -17.409966 482.23447
27.079567 -17.409996 482.23444
27.095345 -17.823265 476.8162
27.110207 -18.241158 471.37646
27.212334 -18.43882 466.02417
27.43267 -18.189354 460.74988
27.718132 -17.378944 455.45425
27.718102 -17.37896 455.45425
27.925102 -16.272102 450.24515
27.732384 -15.322548 445.18475
27.366463 -14.891777 440.05237
26.921227 -14.911613 434.71274
26.921227 -14.911598 434.71274
26.31472 -14.893105 429.3946
25.695564 -14.594078 424.23373
25.69558 -14.594093 424.2337
24.581001 -14.179161 419.0619
23.360085 -13.654579 413.96423
22.400795 -13.030067 408.99176
22.40078 -13.030083 408.99173
21.252815 -12.373512 404.06308
20.152931 -11.537071 399.16885
20.152946 -11.537056 399.16888
19.12687 -10.69503 394.28848
18.011147 -9.926811 389.37015
16.757973 -9.110985 384.2786
15.386284 -8.687325 379.05093
13.95649 -8.484367 373.98663
12.488319 -7.719551 368.61542
10.823494 -6.024986 361.96738
8.815681 -3.290627 353.67368
8.815666 -3.290611 353.67368
6.925682 -0.677803 345.4256
5.760017 0.121696 339.8257
5.883476 -0.558861 334.58606
41.92263 -20.473518 537.7598
44.616875 -17.216118 536.78625
44.840065 -17.257072 537.2229
47.823616 -15.94474 534.17914
48.205788 -15.918282 534.4266
48.12542 -15.031624 530.3605
48.50138 -14.920876 530.28326
46.07348 -14.482338 525.85974
46.36863 -14.330574 525.6213
43.24209 -14.342247 521.3801
43.49653 -14.183556 521.1051
40.165886 -14.640038 517.21216
40.400948 -14.487068 516.8894
36.83921 -15.185066 513.40265
37.071617 -15.041847 513.0466
36.83924 -15.185051 513.4027
37.071632 -15.041832 513.0466
33.51026 -15.777824 509.40372
33.770546 -15.635674 509.07864
30.583 -16.293892 504.51535
30.890099 -16.147194 504.29303
30.583 -16.293877 504.51535
30.890083 -16.147179 504.29306
28.551338 -16.62246 498.892
28.904213 -16.464882 498.78772
27.502922 -16.81768 493.15814
27.885124 -16.642097 493.14124
27.117119 -17.080315 487.62097
27.489967 -16.891853 487.63702
27.079597 -17.40995 482.23453
27.423607 -17.20794 482.2456
27.079582 -17.409966 482.2345
27.423607 -17.20794 482.24557
27.095375 -17.82325 476.81628
27.409157 -17.603935 476.82092
27.110222 -18.241142 471.37653
27.403297 -17.997734 471.3759
27.212364 -18.438805 466.0242
27.498253 -18.168755 466.02023
27.43267 -18.189339 460.74994
27.72602 -17.894386 460.75397
27.718147 -17.378944 455.45428
28.037971 -17.055 455.49652
27.718117 -17.378944 455.45428
28.037956 -17.055 455.4965
27.925117 -16.272087 450.24518
28.29232 -15.91349 450.32986
27.732399 -15.322548 445.1848
28.182838 -14.933662 445.23843
27.366478 -14.891762 440.0524
27.922722 -14.517677 440.0414
26.921242 -14.911598 434.71277
27.542183 -14.576439 434.69067
26.921257 -14.911568 434.71277
27.542198 -14.576424 434.69067
26.314766 -14.893089 429.39462
26.941261 -14.567009 429.38293
25.695595 -14.594063 424.2338
26.315407 -14.271309 424.20978
25.695595 -14.594078 424.23376
26.315376 -14.271294 424.20972
24.581001 -14.179161 419.06192
25.195442 -13.862343 419.0175
23.3601 -13.654579 413.9643
23.9719 -13.338036 413.89676
22.40081 -13.030067 408.9918
23.00695 -12.709343 408.89563
22.40081 -13.030083 408.99176
23.00695 -12.709358 408.8956
21.252846 -12.373497 404.0631
21.857338 -12.052437 403.9355
20.152977 -11.537056 399.16888
20.75785 -11.214699 399.00787
20.152977 -11.537041 399.16888
20.757866 -11.214699 399.0079
19.1269 -10.695015 394.2885
19.728462 -10.364876 394.09363
18.011162 -9.926796 389.3702
18.612968 -9.590462 389.1541
16.757988 -9.11097 384.27866
17.374947 -8.785652 384.05582
16.757988 -9.110954 384.27866
17.374931 -8.785652 384.0558
15.386299 -8.687309 379.051
16.030159 -8.384224 378.84644
13.956505 -8.484352 373.9867
14.620674 -8.183449 373.8105
13.956505 -8.484352 373.98666
14.620674 -8.183449 373.81046
12.488335 -7.719536 368.61545
13.137505 -7.408516 368.45547
10.823494 -6.024971 361.9674
11.434029 -5.711937 361.8114
8.815697 -3.290581 353.67374
9.41053 -2.976982 353.50922
8.815681 -3.290581 353.6737
9.410515 -2.976967 353.50922
6.925713 -0.677788 345.42563
7.515007 -0.365685 345.2424
5.760033 0.121727 339.82578
6.27549 0.407463 339.6449
5.760033 0.121712 339.82574
6.27549 0.407448 339.6449
5.883492 -0.55883 334.5861
5.883507 -0.55883 334.58615
45.090813 -17.423073 537.60706
48.599495 -16.023338 534.6379
48.89103 -14.950279 530.1822
46.68078 -14.318581 525.3674
43.76655 -14.159554 520.8216
40.651833 -14.463066 516.56525
37.3227 -15.025368 512.69354
37.322716 -15.025352 512.6936
34.050117 -15.618935 508.7564
31.216072 -16.124107 504.06998
31.216087 -16.124092 504.06998
29.277855 -16.433952 498.6845
28.290047 -16.60154 493.13272
27.882072 -16.8404 487.66467
27.780724 -17.141853 482.26923
27.780693 -17.141869 482.26917
27.731712 -17.518349 476.8394
27.704185 -17.883339 471.38947
27.792168 -18.021568 466.02942
28.028679 -17.718605 460.7641
28.37223 -16.85273 455.52365
28.37223 -16.852745 455.52365
28.683739 -15.686073 450.37784
28.670692 -14.695518 445.26184
28.530205 -14.315834 440.01895
28.222496 -14.424202 434.6575
28.222511 -14.424202 434.6575
27.626472 -14.426018 429.3527
26.990532 -14.134331 424.16476
26.990517 -14.134331 424.16476
25.86393 -13.730797 418.94736
24.636192 -13.20591 413.79745
23.664467 -12.572044 408.76126
23.664452 -12.572044 408.76123
22.512947 -11.913429 403.7631
21.414253 -11.073448 398.79865
21.414253 -11.073433 398.79868
20.382301 -10.21624 393.8514
19.26899 -9.439049 388.8914
18.046822 -8.642448 383.7857
18.046837 -8.642433 383.78568
16.7275 -8.253334 378.59488
15.336754 -8.046974 373.5861
15.336754 -8.046959 373.58612
13.834999 -7.256783 368.2489
12.08886 -5.558296 361.61624
10.051674 -2.830772 353.30963
8.152901 -0.167168 344.9791
6.833687 0.668724 339.33362
6.833687 0.668724 339.3336
5.883507 -0.55883 334.58612
45.35778 -17.708107 537.92065
48.987404 -16.256859 534.8032
49.27996 -15.122734 530.06177
47.00173 -14.452904 525.109
44.04624 -14.277473 520.5422
40.909874 -14.573738 516.2543
37.579628 -15.13903 512.3595
37.579643 -15.13903 512.35956
34.33271 -15.730202 508.45154
31.540855 -16.227379 503.85678
31.540855 -16.227364 503.85678
29.648048 -16.532799 498.58734
28.690697 -16.6997 493.133
28.267479 -16.930046 487.70288
28.127617 -17.215904 482.30457
28.127602 -17.215904 482.3045
28.04203 -17.571175 476.87106
27.992683 -17.904503 471.417
28.073616 -18.006462 466.0515
28.319038 -17.673393 460.77997
28.69712 -16.785164 455.53436
28.697105 -16.78518 455.53436
29.071724 -15.604347 450.3862
29.16082 -14.623543 445.25354
29.14338 -14.300591 439.98712
28.90966 -14.46682 434.6167
28.909676 -14.466805 434.6167
28.316689 -14.481209 429.30777
27.667824 -14.194466 424.10406
27.667793 -14.19445 424.10406
26.53283 -13.794258 418.85776
25.297844 -13.264473 413.67453
24.318718 -12.621925 408.59952
24.318703 -12.621941 408.5995
23.166359 -11.961937 403.5597
22.070274 -11.123146 398.55768
22.070274 -11.123131 398.55768
21.037804 -10.262688 393.58066
19.928291 -9.486168 388.60245
18.721748 -8.69767 383.4893
17.423775 -8.309746 378.31555
16.048164 -8.088753 373.33084
16.048164 -8.088737 373.33084
14.526939 -7.278908 368.01077
12.738045 -5.57267 361.39407
10.688942 -2.858223 353.08804
10.688942 -2.858208 353.08804
8.789864 -0.173744 344.7177
7.394661 0.716164 339.04977
7.394646 0.716148 339.04977
41.9226 -20.473518 537.7598
45.61663 -18.085411 538.137
48.987404 -16.256859 534.8033
49.335518 -16.596489 534.9087
49.63784 -15.423424 529.9326
47.308434 -14.723198 524.8687
44.046257 -14.277489 520.5422
44.315742 -14.528877 520.291
40.909874 -14.573753 516.2543
41.15815 -14.812172 515.98334
37.82653 -15.37603 512.0732
37.579643 -15.139 512.3595
37.826546 -15.375999 512.0732
34.33271 -15.730186 508.45154
34.600426 -15.962624 508.19077
31.843132 -16.450584 503.6723
31.540855 -16.227348 503.85678
31.843132 -16.450584 503.67236
29.648064 -16.532799 498.58734
29.989876 -16.755135 498.50504
28.690697 -16.6997 493.13303
29.059578 -16.92997 493.14218
28.267464 -16.930046 487.70285
28.619545 -17.154411 487.74817
28.127617 -17.215889 482.30457
28.440254 -17.42437 482.34848
28.127586 -17.215904 482.3045
28.440239 -17.42437 482.34848
28.042046 -17.571175 476.87106
28.31823 -17.757713 476.91296
27.992714 -17.904503 471.417
28.247902 -18.058617 471.45572
28.073631 -18.006462 466.0515
28.321693 -18.123512 466.0843
28.319054 -17.673393 460.77997
28.575615 -17.761177 460.7999
28.697136 -16.785164 455.53436
28.989082 -16.856392 455.52774
28.69712 -16.78518 455.53436
28.989082 -16.856407 455.5277
29.071724 -15.604362 450.38623
29.42884 -15.673409 450.35416
29.16082 -14.623543 445.2535
29.617943 -14.721687 445.2138
29.14338 -14.300575 439.9871
29.717613 -14.473106 439.94803
29.55442 -14.704185 434.57172
28.909676 -14.466805 434.61673
29.55442 -14.70417 434.57172
28.316689 -14.481224 429.3078
28.963219 -14.732689 429.25275
27.667809 -14.194466 424.1041
28.299507 -14.451485 424.033
27.667793 -14.19445 424.1041
28.299507 -14.451469 424.033
26.532814 -13.794258 418.8578
27.156044 -14.053169 418.7553
25.297844 -13.264473 413.67456
25.913109 -13.516151 413.53638
24.318703 -12.621925 408.59952
24.923485 -12.859016 408.4213
24.923454 -12.859016 408.42126
23.768974 -12.193443 403.33957
22.070274 -11.123161 398.55768
22.67852 -11.362236 398.3017
22.678535 -11.362221 398.3017
21.648201 -10.504219 393.2999
20.543266 -9.73188 388.30707
19.349846 -8.951866 383.18698
18.721748 -8.697655 383.4893
19.349846 -8.951866 383.18695
17.423775 -8.309731 378.31558
18.067665 -8.553978 378.02768
16.04818 -8.088753 373.33087
16.703148 -8.309776 373.06213
16.04818 -8.088737 373.33087
16.703133 -8.309776 373.06213
14.526955 -7.278923 368.01077
15.162605 -7.475609 367.75748
12.73806 -5.57267 361.39407
13.333382 -5.753639 361.16016
10.688972 -2.858208 353.088
11.274818 -3.05648 352.8594
10.688957 -2.858192 353.088
11.274818 -3.05648 352.85938
8.789879 -0.173729 344.7177
9.379036 -0.39846 344.4858
7.394646 0.716164 339.04977
7.932899 0.552788 338.7929
7.932899 0.552788 338.79288
5.883507 -0.558846 334.58612
41.922615 -20.473534 537.7598
45.846794 -18.527397 538.23706
49.615837 -17.01786 534.94464
49.93923 -15.832588 529.80457
47.580513 -15.112953 524.6657
44.557426 -14.8993 520.0881
41.381004 -15.164452 515.7741
38.047737 -15.721565 511.85828
38.047752 -15.721565 511.85834
34.835655 -16.30146 507.9956
32.10279 -16.779701 503.5318
32.102806 -16.779686 503.53183
30.279991 -17.086632 498.4445
29.371101 -17.276756 493.1598
28.913612 -17.497993 487.79736
28.696327 -17.752968 482.3976
28.696312 -17.752983 482.39758
28.540092 -18.06533 476.96194
28.450584 -18.335167 471.50287
28.517662 -18.364601 466.1253
28.779259 -17.97567 460.82224
29.226784 -17.061104 455.50372
29.226768 -17.06112 455.50372
29.728813 -15.887047 450.28397
30.004356 -14.975334 445.1459
30.191154 -14.792061 439.9046
30.088463 -15.086647 434.52618
30.088478 -15.086632 434.5262
29.517387 -15.154427 429.19272
28.842247 -14.884346 423.9575
27.6921 -14.487587 418.6474
26.443459 -13.945305 413.3929
25.440422 -13.270882 408.23926
25.440392 -13.270897 408.2392
24.279427 -12.59066 403.11816
23.196648 -11.770439 398.04895
23.196663 -11.770439 398.04898
22.169884 -10.918861 393.0289
21.069725 -10.155449 388.02588
19.885597 -9.380638 382.90015
19.885597 -9.380623 382.90015
18.613167 -8.962624 377.752
17.25541 -8.69091 372.7994
17.25541 -8.690895 372.79938
15.695946 -7.829185 367.5073
13.831017 -6.08564 360.9313
11.766426 -3.408058 352.6398
11.766426 -3.408058 352.63974
9.877357 -0.782646 344.26874
8.396858 0.251213 338.545
8.396858 0.251213 338.54498
46.035545 -19.009117 538.21655
49.81028 -17.494667 534.9105
50.16828 -16.325676 529.68463
47.805122 -15.599739 524.51044
44.75968 -15.367424 519.9436
41.565804 -15.608101 515.63715
38.22779 -16.150932 511.72568
38.227806 -16.150902 511.72574
35.021202 -16.72187 507.87616
32.301216 -17.190987 503.44235
32.301216 -17.190971 503.44238
30.497978 -17.503532 498.40854
29.603172 -17.714973 493.18472
29.128807 -17.935844 487.84766
28.87748 -18.178001 482.44925
28.877464 -18.178001 482.44922
28.69146 -18.472069 477.0153
28.585945 -18.71444 471.55563
28.647346 -18.712303 466.1721
28.915382 -18.301155 460.84576
29.392616 -17.383888 455.4637
29.392601 -17.383904 455.4637
29.948463 -16.228706 450.18018
30.289238 -15.363503 445.0547
30.52192 -15.22451 439.8601
30.458092 -15.565346 434.4837
30.458107 -15.565346 434.4837
29.925316 -15.695686 429.1327
29.251686 -15.454842 423.8838
29.25167 -15.454826 423.88382
28.099297 -15.062126 418.5423
26.84806 -14.517189 413.25528
25.83265 -13.829903 408.06747
25.832634 -13.829918 408.0674
24.661491 -13.129219 402.91208
23.58471 -12.3162 397.81915
23.584724 -12.316185 397.81918
22.560936 -11.472572 392.7889
21.464272 -10.720848 387.78064
20.285774 -9.944786 382.65125
20.285774 -9.944771 382.65125
19.017708 -9.500038 377.51053
17.661446 -9.201057 372.5635
17.661446 -9.201057 372.56348
16.085121 -8.310539 367.2794
14.193382 -6.542244 360.7246
12.126442 -3.885017 352.44565
12.126442 -3.885002 352.44562
10.245964 -1.293785 344.0819
8.730705 -0.207115 338.3763
8.73069 -0.207115 338.3763
5.883492 -0.558846 334.58612
46.162666 -19.48545 538.0747
49.892677 -17.97979 534.80853
50.29821 -16.85572 529.58496
47.957817 -16.138145 524.41907
44.900093 -15.889259 519.8731
41.69285 -16.102913 515.58734
38.34812 -16.626717 511.69046
38.348137 -16.626701 511.6905
35.138145 -17.187645 507.8462
32.419456 -17.649742 503.4139
30.624962 -17.971886 498.40134
29.736977 -18.209892 493.21497
29.247932 -18.433601 487.89444
28.96923 -18.6661 482.49875
28.9692 -18.66613 482.49872
28.760368 -18.945976 477.06827
28.643547 -19.166817 471.60944
28.701042 -19.139702 466.2207
28.973763 -18.712532 460.868
29.473534 -17.800102 455.41074
30.07032 -16.673836 450.05023
30.457405 -15.86869 444.9461
30.718697 -15.785255 439.81793
30.670357 -16.153435 434.44763
30.670372 -16.153435 434.44763
30.156395 -16.320473 429.07663
29.493843 -16.121529 423.81693
29.493858 -16.121529 423.81693
28.344276 -15.736229 418.44757
27.091957 -15.18766 413.13342
26.069069 -14.495277 407.9184
26.069054 -14.495293 407.91837
24.889961 -13.778465 402.73596
23.814827 -12.966301 397.6287
23.814857 -12.966286 397.62866
22.791481 -12.129631 392.59772
21.694633 -11.387016 387.59
20.517723 -10.601784 382.45905
20.517708 -10.601768 382.45908
19.249565 -10.128044 377.32126
17.889427 -9.804405 372.37216
16.300346 -8.884972 367.09116
14.394066 -7.090797 360.5556
12.329033 -4.45565 352.29138
12.329018 -4.45565 352.29135
10.457756 -1.900185 343.93912
8.924294 -0.754478 338.25528
41.92263 -20.473503 537.7598
46.16268 -19.48545 538.0747
46.218727 -19.917793 537.82666
49.892708 -17.97979 534.80853
49.862556 -18.435692 534.64856
50.29824 -16.855705 529.585
50.31687 -17.375801 529.5133
47.957817 -16.13813 524.4191
48.021645 -16.67826 524.39764
44.90011 -15.889259 519.87317
44.96331 -16.41674 519.8805
41.692863 -16.102913 515.5874
41.746788 -16.604744 515.6267
38.348137 -16.626717 511.6905
38.393898 -17.108604 511.75302
38.348152 -16.626701 511.6905
38.393913 -17.108574 511.75302
35.13816 -17.187645 507.84622
35.173058 -17.660484 507.90573
32.41947 -17.649742 503.41394
32.44532 -18.119148 503.44675
32.41947 -17.649742 503.41397
32.44535 -18.119164 503.44675
30.624977 -17.97187 498.40137
30.649132 -18.454872 498.42245
29.736992 -18.209877 493.215
29.760735 -18.723381 493.2478
29.247932 -18.433601 487.89447
29.26052 -18.953056 487.93402
28.96923 -18.6661 482.49878
28.963554 -19.17965 482.5421
28.9692 -18.666115 482.49875
28.96354 -19.17965 482.54208
28.74102 -19.450188 477.11655
28.643547 -19.166817 471.60947
28.619133 -19.657204 471.66013
28.675377 -19.614357 466.26797
28.973763 -18.712532 460.86804
28.95092 -19.179176 460.887
29.473534 -17.800087 455.41077
29.463722 -18.278954 455.349
29.463707 -18.278969 455.349
30.07032 -16.673836 450.05026
30.084785 -17.190224 449.90433
30.457405 -15.86869 444.94614
30.498878 -16.458702 444.82828
30.718712 -15.78524 439.81796
30.779488 -16.449043 439.78107
30.739738 -16.84861 434.42023
30.670387 -16.153435 434.44766
30.739754 -16.84861 434.42026
30.156425 -16.320473 429.07663
30.22564 -17.028664 429.02777
29.493874 -16.121513 423.81693
29.560112 -16.844994 423.76056
29.493874 -16.121529 423.81696
29.560127 -16.845009 423.76053
28.344276 -15.736198 418.4476
28.412376 -16.460167 418.36963
27.091972 -15.187645 413.13342
27.159233 -15.905495 413.03616
26.131157 -15.208321 407.8028
26.131142 -15.208321 407.80276
24.889961 -13.77845 402.736
24.9524 -14.486595 402.60187
23.814857 -12.966286 397.6287
23.879448 -13.678871 397.4875
23.814873 -12.96627 397.6287
23.879463 -13.678856 397.48752
22.791496 -12.129616 392.59775
22.851692 -12.844948 392.46646
21.694633 -11.387001 387.59003
21.750008 -12.106789 387.4667
20.517723 -10.601784 382.4591
20.569862 -11.302864 382.33655
20.517723 -10.601768 382.4591
19.24958 -10.128029 377.3213
19.295403 -10.796333 377.19693
17.889442 -9.804405 372.37222
17.925835 -10.45298 372.2392
17.889427 -9.804405 372.3722
17.925835 -10.452965 372.23917
16.300362 -8.884972 367.0912
16.32862 -9.509392 366.95685
14.394066 -7.090782 360.55563
14.420433 -7.692375 360.437
12.329048 -4.455635 352.2914
12.362984 -5.08149 352.18823
12.329033 -4.455635 352.29135
12.362984 -5.08149 352.1882
10.457771 -1.900185 343.93915
10.502815 -2.561653 343.85007
8.924309 -0.754478 338.2553
8.969215 -1.34565 338.18353
8.9692 -1.345665 338.18353
5.883522 -0.558815 334.58612
41.9226 -20.473549 537.75977
46.201057 -20.287544 537.48145
49.72126 -18.843239 534.43646
50.20777 -17.854332 529.474
47.977287 -17.187233 524.44885
44.93519 -16.920464 519.96716
41.716316 -17.08149 515.75555
38.357964 -17.562614 511.91187
38.35798 -17.562614 511.9119
35.122093 -18.107689 508.05246
32.376137 -18.566826 503.53992
32.376137 -18.56681 503.53995
30.56762 -18.918602 498.47092
29.671364 -19.218529 493.28198
29.164345 -19.45649 487.96484
28.860039 -19.680763 482.5777
28.860023 -19.680763 482.57764
28.635033 -19.946922 477.15826
28.515526 -20.149162 471.70633
28.573875 -20.102074 466.31375
28.850487 -19.668465 460.9029
29.36541 -18.787361 455.2804
29.36538 -18.787361 455.2804
29.991188 -17.742043 449.75058
30.410652 -17.092812 444.70975
30.700478 -17.170143 439.75253
30.664055 -17.60572 434.40305
30.66407 -17.60572 434.403
30.134315 -17.780373 428.98853
29.450996 -17.581703 423.71814
29.451012 -17.581703 423.71814
28.297935 -17.178352 418.31467
27.043999 -16.615822 412.97183
26.013084 -15.917046 407.73065
26.01307 -15.917046 407.73062
24.839836 -15.197441 402.52054
23.778206 -14.404152 397.40314
23.778206 -14.404137 397.40317
22.74363 -13.56884 392.40253
21.629341 -12.825615 387.42047
20.439445 -11.995338 382.2946
19.15255 -11.454674 377.1483
17.76931 -11.102638 372.17548
16.16961 -10.146156 366.8871
14.271507 -8.306175 360.3779
12.22538 -5.715157 352.1442
12.225365 -5.715141 352.14417
10.376549 -3.225517 343.82208
8.861748 -1.935188 338.16714
8.861732 -1.935188 338.1671
41.922615 -20.473518 537.75977
46.113274 -20.556725 537.0756
49.484962 -19.159828 534.19464
49.974297 -18.235893 529.47186
47.807076 -17.597466 524.56903
44.795708 -17.33358 520.1254
41.593086 -17.482155 515.9604
38.24154 -17.951393 512.1495
38.241554 -17.951363 512.14954
34.990196 -18.495033 508.27014
32.21763 -18.958061 503.68298
32.21766 -18.958061 503.68304
30.386192 -19.326546 498.54166
29.474815 -19.656563 493.314
28.965996 -19.904152 487.98367
28.666588 -20.12925 482.60175
28.666557 -20.12928 482.6017
28.45147 -20.395699 477.1895
28.342583 -20.602913 471.74374
28.406654 -20.564827 466.35187
28.682442 -20.143806 460.91324
29.188164 -19.288582 455.20987
29.188148 -19.288582 455.20984
29.798119 -18.290169 449.60037
30.198586 -17.725288 444.59933
30.483162 -17.896385 439.73413
30.4374 -18.3619 434.39624
30.437416 -18.361916 434.39624
29.870644 -18.49836 428.96002
29.160042 -18.2593 423.69147
29.160057 -18.259315 423.6914
28.004234 -17.83657 418.2868
26.751823 -17.26928 412.9457
25.720863 -16.574684 407.70798
25.720848 -16.5747 407.70792
24.554893 -15.861748 402.4999
23.505486 -15.081352 397.38855
23.5055 -15.081337 397.38855
22.472954 -14.249687 392.41272
21.34513 -13.496376 387.4555
20.13694 -12.634529 382.338
20.13694 -12.634514 382.33798
18.830437 -12.063576 377.18018
17.431236 -11.721291 372.18643
15.836372 -10.764534 366.88705
13.958794 -8.891975 360.38254
11.924583 -6.309944 352.16293
11.924568 -6.309929 352.1629
10.083794 -3.840904 343.85825
8.606468 -2.479134 338.2081
8.606468 -2.479149 338.2081
5.883522 -0.55883 334.58612
41.9226 -20.473534 537.7598
45.960457 -20.708763 536.63257
49.169502 -19.368034 533.9366
49.645195 -18.508095 529.5054
47.5371 -17.895866 524.7498
44.56254 -17.63874 520.3454
41.390327 -17.785225 516.22894
38.055946 -18.250114 512.4521
38.05596 -18.2501 512.45215
34.788338 -18.796272 508.54642
31.98127 -19.265083 503.86777
31.981285 -19.265083 503.86777
30.117287 -19.648903 498.63004
29.184883 -20.005043 493.34143
28.679787 -20.262642 487.98907
28.397621 -20.491325 482.61264
28.39759 -20.49134 482.6126
28.204826 -20.762566 477.20822
28.114388 -20.984627 471.76947
28.187065 -20.968925 466.37897
28.459816 -20.57145 460.9174
28.946144 -19.747551 455.14365
28.946129 -19.747566 455.14365
29.521202 -18.795708 449.46622
29.874306 -18.302742 444.50586
30.120964 -18.54026 439.72653
30.04078 -19.003578 434.39896
30.040794 -19.003563 434.399
29.433311 -19.088737 428.9424
28.708656 -18.821114 423.68094
28.708656 -18.821098 423.68094
27.556587 -18.386253 418.28723
26.308022 -17.81791 412.95895
25.27938 -17.133217 407.7355
25.279366 -17.133232 407.73547
24.121056 -16.430367 402.541
23.077599 -15.653481 397.44766
23.077599 -15.653465 397.4477
22.05143 -14.826302 392.50024
20.917763 -14.064369 387.56943
19.690208 -13.175652 382.46167
19.690224 -13.175667 382.46167
18.357155 -12.579689 377.28857
16.93966 -12.255135 372.26953
16.93966 -12.255135 372.26956
15.356575 -11.307671 366.95505
13.50782 -9.402214 360.4492
11.485313 -6.820137 352.2417
11.485313 -6.820137 352.24167
9.648994 -4.360664 343.95453
8.224922 -2.936028 338.3021
8.224922 -2.936028 338.30206
5.883507 -0.558846 334.5861
45.752907 -20.733635 536.18243
48.79795 -19.456978 533.679
49.256844 -18.66291 529.5707
47.208916 -18.077751 524.97687
44.270973 -17.828728 520.6103
41.13337 -17.977531 516.54205
37.820473 -18.441261 512.799
37.820488 -18.441261 512.7991
34.53463 -18.991539 508.86255
31.686958 -19.46682 504.0817
31.686958 -19.466835 504.0817
29.783638 -19.863457 498.7304
28.82685 -20.240242 493.36264
28.33062 -20.507607 487.98077
28.076485 -20.742332 482.6098
28.07647 -20.742348 482.60974
27.916344 -21.02259 477.21295
27.850288 -21.268105 471.78125
27.933083 -21.285973 466.3933
28.200432 -20.920692 460.91586
28.659523 -20.131111 455.08914
28.659508 -20.131126 455.08914
29.183998 -19.22091 449.36087
29.460716 -18.774742 444.43747
29.623177 -19.024345 439.73065
29.483452 -19.451668 434.4113
29.483467 -19.451653 434.4113
28.85392 -19.504662 428.93738
28.132835 -19.227852 423.68768
28.13285 -19.227852 423.68762
26.98832 -18.784737 418.31625
25.745018 -18.217964 413.011
24.720604 -17.547218 407.8118
24.720589 -17.547234 407.81177
23.568718 -16.855003 402.64188
22.524467 -16.073112 397.5775
22.524467 -16.073112 397.57755
21.502129 -15.246513 392.66238
20.369057 -14.478539 387.7555
19.127693 -13.575569 382.65656
19.127693 -13.575554 382.65656
17.76603 -12.961388 377.4661
16.327538 -12.649422 372.41925
16.327522 -12.649437 372.41925
14.764076 -11.717171 367.0854
12.95594 -9.792763 360.57068
10.943626 -7.205498 352.37308
10.943626 -7.205482 352.37305
9.104561 -4.743095 344.10385
7.744682 -3.269875 338.4437
7.744682 -3.269875 338.44366
45.509285 -20.628304 535.7676
48.40412 -19.418465 533.4456
48.84588 -18.686623 529.66156
46.857307 -18.128868 525.2288
43.953773 -17.888924 520.89545
40.851967 -18.047447 516.87054
37.56301 -18.516869 513.158
37.563026 -18.516853 513.158
34.258247 -19.072487 509.18936
31.368004 -19.554298 504.3049
31.36802 -19.554283 504.30493
29.42318 -19.961266 498.8333
28.441612 -20.353584 493.37552
27.957909 -20.630043 487.95926
27.738441 -20.872871 482.59308
27.73841 -20.872887 482.59305
27.616524 -21.165443 477.20288
27.577492 -21.439522 471.77756
27.6706 -21.496773 466.39337
27.930641 -21.16761 460.9087
28.357964 -20.411552 455.05173
28.822258 -19.534279 449.29248
29.00222 -19.108376 444.39853
29.040382 -19.323631 439.7464
28.819633 -19.696419 434.43317
28.819649 -19.696419 434.43317
28.184334 -19.736107 428.94644
27.473396 -19.452965 423.712
27.473381 -19.452965 423.71204
26.338097 -19.003487 418.3722
25.101295 -18.440315 413.09836
24.082329 -17.78495 407.93204
24.082298 -17.784966 407.93198
22.933632 -17.099236 402.79633
21.884193 -16.308846 397.76886
21.884209 -16.30883 397.76886
20.863426 -15.481895 392.88748
19.73275 -14.710182 388.0009
18.480186 -13.807594 382.90924
18.480202 -13.807594 382.90924
17.09269 -13.182701 377.70062
15.634132 -12.870644 372.6254
15.634132 -12.870644 372.62543
14.102974 -11.957298 367.26645
12.355446 -10.036858 360.73212
10.347969 -7.441338 352.54333
10.347969 -7.441322 352.54333
8.489479 -4.961418 344.29556
7.18763 -3.486153 338.65814
41.9226 -20.473518 537.75977
45.509285 -20.628319 535.7675
45.24819 -20.40342 535.4171
48.016685 -19.256859 533.25336
48.845863 -18.686623 529.66156
48.44181 -18.580055 529.77094
46.857307 -18.128853 525.22876
46.508446 -18.049171 525.48645
43.953773 -17.888924 520.8954
43.636513 -17.818596 521.1793
40.85195 -18.047447 516.87054
40.566628 -17.996788 517.1902
37.562996 -18.516853 513.15796
37.298378 -18.481895 513.5025
37.56301 -18.516853 513.158
37.29841 -18.481865 513.5025
34.258232 -19.072487 509.1894
33.973854 -19.044548 509.50266
31.368004 -19.554314 504.3049
31.041084 -19.533028 504.52112
31.36802 -19.554298 504.30493
31.0411 -19.533012 504.52115
29.053352 -19.948433 498.9313
28.441612 -20.353569 493.37552
28.04528 -20.352272 493.3792
27.576149 -20.637901 487.92627
27.73841 -20.872871 482.59308
27.3955 -20.891548 482.5639
27.738396 -20.872887 482.59305
27.395485 -20.891563 482.56387
27.616508 -21.165443 477.20288
27.314964 -21.19976 477.17865
27.577492 -21.439522 471.7776
27.304298 -21.50515 471.75854
27.407707 -21.603813 466.37903
27.930641 -21.167625 460.9087
27.659142 -21.311531 460.89642
28.051918 -20.586159 455.03348
28.051888 -20.586174 455.03345
28.822258 -19.534294 449.29248
28.451881 -19.731285 449.26376
29.00222 -19.10839 444.39853
28.526512 -19.30233 444.3901
29.040382 -19.323647 439.74637
28.426338 -19.448814 439.77255
28.819633 -19.696434 434.43314
28.11625 -19.745049 434.46344
28.819649 -19.696434 434.43314
28.116264 -19.745049 434.46347
28.184334 -19.736107 428.9464
27.478355 -19.771202 428.96976
27.473412 -19.452965 423.712
26.780998 -19.482979 423.75305
27.473396 -19.452965 423.71198
26.780983 -19.482964 423.75302
26.338097 -19.003502 418.37216
25.655418 -19.029457 418.4507
25.10128 -18.44033 413.09833
24.426018 -18.470955 413.21375
24.082329 -17.784966 407.932
23.413292 -17.830376 408.08633
24.082314 -17.784966 407.93198
23.413261 -17.83039 408.0863
22.933647 -17.09925 402.79633
22.264854 -17.146538 402.99152
21.884193 -16.30886 397.76886
21.207802 -16.347313 398.00507
21.884209 -16.308846 397.76886
21.207802 -16.347298 398.00504
20.86341 -15.481911 392.88745
20.186989 -15.521049 393.15643
19.73272 -14.710182 388.00085
19.059975 -14.74868 388.2862
18.480171 -13.807594 382.9092
17.796654 -13.85804 383.20007
18.480186 -13.807594 382.9092
17.796669 -13.858025 383.20007
17.09269 -13.182701 377.7006
16.386742 -13.228416 377.97348
14.910057 -12.898842 372.87152
15.634132 -12.870659 372.62543
14.910042 -12.898842 372.87152
13.410606 -12.010429 367.48593
12.355446 -10.036842 360.73215
11.726372 -10.130882 360.92615
9.725166 -7.523827 352.7433
10.347969 -7.441307 352.54333
9.725151 -7.523811 352.74326
8.489464 -4.961418 344.2956
7.848076 -5.004539 344.51544
6.59774 -3.568336 338.9252
7.18763 -3.486137 338.65814
6.59774 -3.568336 338.92517
POLYGONS 1834 7336
3 0 1 2
3 0 2 3
3 3 2 4
3 3 4 5
3 5 4 6
3 5 6 7
3 7 6 8
3 7 8 9
3 9 8 10
3 9 10 11
3 11 10 12
3 11 12 13
3 13 12 14
3 15 16 17
3 17 16 18
3 17 18 19
3 19 18 20
3 21 22 23
3 23 22 24
3 23 24 25
3 25 24 26
3 25 26 27
3 27 26 28
3 27 28 29
3 29 28 30
3 31 32 33
3 33 32 34
3 33 34 35
3 35 34 36
3 35 36 37
3 37 36 38
3 37 38 39
3 39 38 40
3 39 40 41
3 41 40 42
3 43 44 45
3 45 44 46
3 45 46 47
3 47 46 48
3 47 48 49
3 49 48 50
3 49 50 51
3 51 50 52
3 53 54 55
3 55 54 56
3 55 56 57
3 57 56 58
3 59 60 61
3 61 60 62
3 61 62 63
3 63 62 64
3 63 64 65
3 65 64 66
3 67 68 69
3 69 68 70
3 69 70 71
3 71 70 72
3 73 74 75
3 75 74 76
3 75 76 77
3 77 76 78
3 77 78 79
3 79 78 80
3 81 82 83
3 83 82 84
3 83 84 85
3 85 84 86
3 87 88 89
3 89 88 90
3 89 90 91
3 91 90 92
3 91 92 93
3 93 92 94
3 95 96 97
3 97 96 98
3 97 98 99
3 99 98 100
3 101 102 103
3 1 104 2
3 2 104 105
3 2 105 4
3 4 105 106
3 4 106 6
3 6 106 107
3 6 107 8
3 8 107 108
3 8 108 10
3 10 108 109
3 10 109 12
3 12 109 110
3 12 110 14
3 14 110 111
3 16 112 18
3 18 112 113
3 18 113 20
3 20 113 114
3 22 115 24
3 24 115 116
3 24 116 26
3 26 116 117
3 26 117 28
3 28 117 118
3 28 118 30
3 30 118 119
3 32 120 34
3 34 120 121
3 34 121 36
3 36 121 122
3 36 122 38
3 38 122 123
3 38 123 40
3 40 123 124
3 40 124 42
3 42 124 125
3 44 126 46
3 46 126 127
3 46 127 48
3 48 127 128
3 48 128 50
3 50 128 129
3 50 129 52
3 52 129 130
3 54 131 56
3 56 131 132
3 56 132 58
3 58 132 133
3 60 134 62
3 62 134 135
3 62 135 64
3 64 135 136
3 64 136 66
3 66 136 137
3 68 138 70
3 70 138 139
3 70 139 72
3 72 139 140
3 74 141 76
3 76 141 142
3 76 142 78
3 78 142 143
3 78 143 80
3 80 143 144
3 82 145 84
3 84 145 146
3 84 146 86
3 86 146 147
3 88 147 90
3 90 147 148
3 90 148 92
3 92 148 149
3 92 149 94
3 94 149 150
3 96 151 98
3 98 151 152
3 98 152 100
3 100 152 153
3 102 154 103
3 103 154 155
3 104 1 105
3 105 1 156
3 105 156 106
3 106 156 157
3 106 157 107
3 107 157 158
3 107 158 108
3 108 158 159
3 108 159 109
3 109 159 160
3 109 160 110
3 110 160 161
3 110 161 111
3 111 161 162
3 112 163 113
3 113 163 164
3 113 164 114
3 114 164 165
3 115 166 116
3 116 166 167
3 116 167 117
3 117 167 168
3 117 168 118
3 118 168 169
3 118 169 119
3 119 169 170
3 120 171 121
3 121 171 172
3 121 172 122
3 122 172 173
3 122 173 123
3 123 173 174
3 123 174 124
3 124 174 175
3 124 175 125
3 125 175 176
3 126 177 127
3 127 177 178
3 127 178 128
3 128 178 179
3 128 179 129
3 129 179 180
3 129 180 130
3 130 180 181
3 131 182 132
3 132 182 183
3 132 183 133
3 133 183 184
3 134 184 135
3 135 184 185
3 135 185 136
3 136 185 186
3 136 186 137
3 137 186 187
3 138 188 139
3 139 188 189
3 139 189 140
3 140 189 190
3 141 191 142
3 142 191 192
3 142 192 143
3 143 192 193
3 143 193 144
3 144 193 194
3 145 194 146
3 146 194 195
3 146 195 147
3 147 195 196
3 147 197 148
3 148 197 198
3 148 198 149
3 149 198 199
3 149 199 150
3 150 199 200
3 151 201 152
3 152 201 202
3 152 202 153
3 153 202 203
3 154 204 155
3 155 204 103
3 1 205 156
3 156 205 206
3 156 206 157
3 157 206 207
3 157 207 158
3 158 207 208
3 158 208 159
3 159 208 209
3 159 209 160
3 160 209 210
3 160 210 161
3 161 210 211
3 161 211 162
3 162 211 212
3 163 213 164
3 164 213 214
3 164 214 165
3 165 214 215
3 166 216 167
3 167 216 217
3 167 217 168
3 168 217 218
3 168 218 169
3 169 218 219
3 169 219 170
3 170 219 220
3 171 221 172
3 172 221 222
3 172 222 173
3 173 222 223
3 173 223 174
3 174 223 224
3 174 224 175
3 175 224 225
3 175 225 176
3 176 225 226
3 177 227 178
3 178 227 228
3 178 228 179
3 179 228 229
3 179 229 180
3 180 229 230
3 180 230 181
3 181 230 231
3 182 232 183
3 183 232 233
3 183 233 184
3 184 233 234
3 184 235 185
3 185 235 236
3 185 236 186
3 186 236 237
3 186 237 187
3 187 237 238
3 188 239 189
3 189 239 240
3 189 240 190
3 190 240 241
3 191 242 192
3 192 242 243
3 192 243 193
3 193 243 244
3 193 244 194
3 194 244 245
3 194 246 195
3 195 246 247
3 195 247 196
3 196 247 248
3 197 249 198
3 198 249 250
3 198 250 199
3 199 250 251
3 199 251 200
3 200 251 252
3 201 253 202
3 202 253 254
3 202 254 203
3 203 254 255
3 204 256 103
3 103 256 257
3 205 1 206
3 206 1 258
3 206 258 207
3 207 258 259
3 207 259 208
3 208 259 260
3 208 260 209
3 209 260 261
3 209 261 210
3 210 261 262
3 210 262 211
3 211 262 263
3 211 263 212
3 212 263 264
3 213 265 214
3 214 265 266
3 214 266 215
3 215 266 267
3 216 268 217
3 217 268 269
3 217 269 218
3 218 269 270
3 218 270 219
3 219 270 271
3 219 271 220
3 220 271 272
3 221 273 222
3 222 273 274
3 222 274 223
3 223 274 275
3 223 275 224
3 224 275 276
3 224 276 225
3 225 276 277
3 225 277 226
3 226 277 278
3 227 279 228
3 228 279 280
3 228 280 229
3 229 280 281
3 229 281 230
3 230 281 282
3 230 282 231
3 231 282 283
3 232 284 233
3 233 284 285
3 233 285 234
3 234 285 286
3 235 287 236
3 236 287 288
3 236 288 237
3 237 288 289
3 237 289 238
3 238 289 290
3 239 291 240
3 240 291 292
3 240 292 241
3 241 292 293
3 242 294 243
3 243 294 295
3 243 295 244
3 244 295 296
3 244 296 245
3 245 296 297
3 246 298 247
3 247 298 299
3 247 299 248
3 248 299 300
3 249 301 250
3 250 301 302
3 250 302 251
3 251 302 303
3 251 303 252
3 252 303 304
3 253 305 254
3 254 305 306
3 254 306 255
3 255 306 307
3 256 308 257
3 257 308 309
3 258 1 310
3 258 310 259
3 259 310 311
3 259 311 312
3 312 311 313
3 312 313 314
3 314 313 315
3 314 315 262
3 262 315 316
3 262 316 317
3 317 316 318
3 317 318 264
3 264 318 319
3 320 321 322
3 322 321 323
3 322 323 324
3 324 323 325
3 326 327 328
3 328 327 329
3 328 329 330
3 330 329 331
3 330 331 332
3 332 331 333
3 332 333 334
3 334 333 335
3 336 337 338
3 338 337 339
3 338 339 340
3 340 339 341
3 340 341 342
3 342 341 343
3 342 343 344
3 344 343 345
3 344 345 278
3 278 345 346
3 347 348 349
3 349 348 350
3 349 350 351
3 351 350 352
3 351 352 282
3 282 352 353
3 282 353 354
3 354 353 355
3 284 356 357
3 357 356 358
3 357 358 286
3 286 358 359
3 360 361 288
3 288 361 362
3 288 362 289
3 289 362 363
3 289 363 364
3 364 363 365
3 291 366 367
3 367 366 368
3 367 368 369
3 369 368 370
3 371 372 373
3 373 372 374
3 373 374 375
3 375 374 376
3 375 376 377
3 377 376 378
3 298 379 380
3 380 379 381
3 380 381 382
3 382 381 383
3 300 384 385
3 385 384 386
3 385 386 387
3 387 386 388
3 387 388 389
3 389 388 390
3 391 392 393
3 393 392 394
3 393 394 307
3 307 394 395
3 307 396 397
3 397 396 103
3 1 398 310
3 310 398 399
3 310 399 311
3 311 399 400
3 311 400 313
3 313 400 401
3 313 401 315
3 315 401 402
3 315 402 316
3 316 402 403
3 316 403 318
3 318 403 404
3 318 404 319
3 319 404 405
3 321 406 323
3 323 406 407
3 323 407 325
3 325 407 408
3 327 409 329
3 329 409 410
3 329 410 331
3 331 410 411
3 331 411 333
3 333 411 412
3 333 412 335
3 335 412 413
3 337 414 339
3 339 414 415
3 339 415 341
3 341 415 416
3 341 416 343
3 343 416 417
3 343 417 345
3 345 417 418
3 345 418 346
3 346 418 419
3 348 420 350
3 350 420 421
3 350 421 352
3 352 421 422
3 352 422 353
3 353 422 423
3 353 423 355
3 355 423 424
3 356 425 358
3 358 425 426
3 358 426 359
3 359 426 427
3 361 428 362
3 362 428 429
3 362 429 363
3 363 429 430
3 363 430 365
3 365 430 431
3 366 432 368
3 368 432 433
3 368 433 370
3 370 433 434
3 372 435 374
3 374 435 436
3 374 436 376
3 376 436 437
3 376 437 378
3 378 437 438
3 379 439 381
3 381 439 440
3 381 440 383
3 383 440 441
3 384 442 386
3 386 442 443
3 386 443 388
3 388 443 444
3 388 444 390
3 390 444 445
3 392 446 394
3 394 446 447
3 394 447 395
3 395 447 448
3 396 449 103
3 103 449 450
3 398 451 399
3 399 451 452
3 399 452 400
3 400 452 453
3 400 453 401
3 401 453 454
3 401 454 402
3 402 454 455
3 402 455 403
3 403 455 456
3 403 456 404
3 404 456 457
3 404 457 405
3 405 457 458
3 406 459 407
3 407 459 460
3 407 460 408
3 408 460 461
3 409 462 410
3 410 462 463
3 410 463 411
3 411 463 464
3 411 464 412
3 412 464 465
3 412 465 413
3 413 465 466
3 414 467 415
3 415 467 468
3 415 468 416
3 416 468 469
3 416 469 417
3 417 469 470
3 417 470 418
3 418 470 471
3 418 471 419
3 419 471 472
3 420 473 421
3 421 473 474
3 421 474 422
3 422 474 475
3 422 475 423
3 423 475 476
3 423 476 424
3 424 476 477
3 425 478 426
3 426 478 479
3 426 479 427
3 427 479 480
3 428 481 429
3 429 481 482
3 429 482 430
3 430 482 483
3 430 483 431
3 431 483 484
3 432 485 433
3 433 485 486
3 433 486 434
3 434 486 487
3 435 488 436
3 436 488 489
3 436 489 437
3 437 489 490
3 437 490 438
3 438 490 491
3 439 491 440
3 440 491 492
3 440 492 441
3 441 492 493
3 442 493 443
3 443 493 494
3 443 494 444
3 444 494 495
3 444 495 445
3 445 495 496
3 446 497 447
3 447 497 498
3 447 498 448
3 448 498 499
3 449 499 450
3 450 499 500
3 398 501 502
3 502 501 503
3 502 503 504
3 504 503 505
3 504 505 506
3 506 505 507
3 506 507 508
3 508 507 509
3 508 509 510
3 510 509 511
3 510 511 512
3 512 511 513
3 512 513 514
3 514 513 515
3 516 517 518
3 518 517 519
3 518 519 520
3 520 519 521
3 522 523 524
3 524 523 525
3 524 525 526
3 526 525 527
3 526 527 528
3 528 527 529
3 528 529 530
3 530 529 531
3 532 533 534
3 534 533 535
3 534 535 536
3 536 535 537
3 536 537 538
3 538 537 539
3 538 539 540
3 540 539 541
3 540 541 542
3 542 541 543
3 544 545 546
3 546 545 547
3 546 547 548
3 548 547 549
3 548 549 550
3 550 549 551
3 550 551 552
3 552 551 553
3 554 555 556
3 556 555 557
3 556 557 558
3 558 557 559
3 560 561 562
3 562 561 563
3 562 563 564
3 564 563 565
3 564 565 566
3 566 565 567
3 568 569 570
3 570 569 571
3 570 571 572
3 572 571 573
3 574 575 576
3 576 575 577
3 576 577 578
3 578 577 579
3 578 579 580
3 580 579 581
3 582 583 584
3 584 583 585
3 584 585 586
3 586 585 587
3 588 589 590
3 590 589 591
3 590 591 592
3 592 591 593
3 592 593 594
3 594 593 595
3 596 597 598
3 598 597 599
3 598 599 600
3 600 599 601
3 602 603 604
3 604 603 605
3 501 398 503
3 503 398 606
3 503 606 505
3 505 606 607
3 505 607 507
3 507 607 608
3 507 608 509
3 509 608 609
3 509 609 511
3 511 609 610
3 511 610 513
3 513 610 611
3 513 611 515
3 515 611 612
3 517 613 519
3 519 613 614
3 519 614 521
3 521 614 615
3 523 616 525
3 525 616 617
3 525 617 527
3 527 617 618
3 527 618 529
3 529 618 619
3 529 619 531
3 531 619 620
3 533 621 535
3 535 621 622
3 535 622 537
3 537 622 623
3 537 623 539
3 539 623 624
3 539 624 541
3 541 624 625
3 541 625 543
3 543 625 626
3 545 627 547
3 547 627 628
3 547 628 549
3 549 628 629
3 549 629 551
3 551 629 630
3 551 630 553
3 553 630 631
3 555 632 557
3 557 632 633
3 557 633 559
3 559 633 634
3 561 635 563
3 563 635 636
3 563 636 565
3 565 636 637
3 565 637 567
3 567 637 638
3 569 639 571
3 571 639 640
3 571 640 573
3 573 640 641
3 575 642 577
3 577 642 643
3 577 643 579
3 579 643 644
3 579 644 581
3 581 644 645
3 583 646 585
3 585 646 647
3 585 647 587
3 587 647 648
3 589 649 591
3 591 649 650
3 591 650 593
3 593 650 651
3 593 651 595
3 595 651 652
3 597 652 599
3 599 652 653
3 599 653 601
3 601 653 654
3 603 655 605
3 605 655 656
3 606 398 657
3 606 657 607
3 607 657 658
3 607 658 608
3 608 658 659
3 608 659 609
3 609 659 660
3 609 660 610
3 610 660 661
3 610 661 611
3 611 661 662
3 611 662 612
3 612 662 663
3 613 664 614
3 614 664 665
3 614 665 615
3 615 665 666
3 616 667 617
3 617 667 668
3 617 668 618
3 618 668 669
3 618 669 619
3 619 669 670
3 619 670 620
3 620 670 671
3 621 672 622
3 622 672 673
3 622 673 623
3 623 673 674
3 623 674 624
3 624 674 675
3 624 675 625
3 625 675 676
3 625 676 626
3 626 676 677
3 627 678 628
3 628 678 679
3 628 679 629
3 629 679 680
3 629 680 630
3 630 680 681
3 630 681 631
3 631 681 682
3 632 683 633
3 633 683 684
3 633 684 634
3 634 684 685
3 635 686 636
3 636 686 687
3 636 687 637
3 637 687 688
3 637 688 638
3 638 688 689
3 639 690 640
3 640 690 691
3 640 691 641
3 641 691 692
3 642 693 643
3 643 693 694
3 643 694 644
3 644 694 695
3 644 695 645
3 645 695 696
3 646 696 647
3 647 696 697
3 647 697 648
3 648 697 698
3 649 699 650
3 650 699 700
3 650 700 651
3 651 700 701
3 651 701 652
3 652 701 702
3 652 703 653
3 653 703 704
3 653 704 654
3 654 704 705
3 655 706 656
3 656 706 450
3 707 1 657
3 657 1 708
3 657 708 709
3 709 708 710
3 709 710 659
3 659 710 711
3 659 711 660
3 660 711 712
3 660 712 713
3 713 712 714
3 713 714 715
3 715 714 716
3 715 716 663
3 663 716 717
3 718 719 720
3 720 719 721
3 720 721 667
3 667 721 722
3 723 724 725
3 725 724 726
3 725 726 727
3 727 726 728
3 727 728 729
3 729 728 730
3 729 730 731
3 731 730 732
3 733 734 735
3 735 734 736
3 735 736 737
3 737 736 738
3 737 738 739
3 739 738 740
3 739 740 741
3 741 740 742
3 741 742 743
3 743 742 744
3 745 746 747
3 747 746 748
3 747 748 749
3 749 748 750
3 749 750 751
3 751 750 752
3 751 752 682
3 682 752 753
3 754 755 756
3 756 755 757
3 756 757 758
3 758 757 759
3 760 761 762
3 762 761 763
3 762 763 764
3 764 763 765
3 764 765 766
3 766 765 767
3 690 768 691
3 691 768 769
3 691 769 770
3 770 769 771
3 693 772 694
3 694 772 773
3 694 773 695
3 695 773 774
3 695 774 696
3 696 774 775
3 776 777 778
3 778 777 779
3 778 779 780
3 780 779 781
3 782 783 784
3 784 783 785
3 784 785 786
3 786 785 787
3 786 787 788
3 788 787 789
3 790 791 792
3 792 791 793
3 792 793 794
3 794 793 795
3 794 796 604
3 604 796 797
3 1 798 708
3 708 798 799
3 708 799 710
3 710 799 800
3 710 800 711
3 711 800 801
3 711 801 712
3 712 801 802
3 712 802 714
3 714 802 803
3 714 803 716
3 716 803 804
3 716 804 717
3 717 804 805
3 719 806 721
3 721 806 807
3 721 807 722
3 722 807 808
3 724 809 726
3 726 809 810
3 726 810 728
3 728 810 811
3 728 811 730
3 730 811 812
3 730 812 732
3 732 812 813
3 734 814 736
3 736 814 815
3 736 815 738
3 738 815 816
3 738 816 740
3 740 816 817
3 740 817 742
3 742 817 818
3 742 818 744
3 744 818 819
3 746 820 748
3 748 820 821
3 748 821 750
3 750 821 822
3 750 822 752
3 752 822 823
3 752 823 753
3 753 823 824
3 755 825 757
3 757 825 826
3 757 826 759
3 759 826 827
3 761 827 763
3 763 827 828
3 763 828 765
3 765 828 829
3 765 829 767
3 767 829 830
3 768 831 769
3 769 831 832
3 769 832 771
3 771 832 833
3 772 834 773
3 773 834 835
3 773 835 774
3 774 835 836
3 774 836 775
3 775 836 837
3 777 838 779
3 779 838 839
3 779 839 781
3 781 839 840
3 783 841 785
3 785 841 842
3 785 842 787
3 787 842 843
3 787 843 789
3 789 843 844
3 791 845 793
3 793 845 846
3 793 846 795
3 795 846 847
3 796 848 797
3 798 205 799
3 799 205 849
3 799 849 800
3 800 849 850
3 800 850 801
3 801 850 851
3 801 851 802
3 802 851 852
3 802 852 803
3 803 852 853
3 803 853 804
3 804 853 854
3 804 854 805
3 805 854 855
3 806 856 807
3 807 856 857
3 807 857 808
3 808 857 858
3 809 859 810
3 810 859 860
3 810 860 811
3 811 860 861
3 811 861 812
3 812 861 862
3 812 862 813
3 813 862 863
3 814 864 815
3 815 864 865
3 815 865 816
3 816 865 866
3 816 866 817
3 817 866 867
3 817 867 818
3 818 867 868
3 818 868 819
3 819 868 869
3 820 870 821
3 821 870 871
3 821 871 822
3 822 871 872
3 822 872 823
3 823 872 873
3 823 873 824
3 824 873 874
3 825 875 826
3 826 875 876
3 826 876 827
3 827 876 877
3 827 878 828
3 828 878 879
3 828 879 829
3 829 879 880
3 829 880 830
3 830 880 881
3 831 882 832
3 832 882 883
3 832 883 833
3 833 883 884
3 834 885 835
3 835 885 886
3 835 886 836
3 836 886 887
3 836 887 837
3 837 887 888
3 838 889 839
3 839 889 890
3 839 890 840
3 840 890 891
3 841 892 842
3 842 892 893
3 842 893 843
3 843 893 894
3 843 894 844
3 844 894 895
3 845 896 846
3 846 896 897
3 846 897 847
3 847 897 898
3 848 899 797
3 797 899 900
3 205 398 849
3 849 398 901
3 849 901 850
3 850 901 902
3 850 902 851
3 851 902 903
3 851 903 852
3 852 903 904
3 852 904 853
3 853 904 905
3 853 905 854
3 854 905 906
3 854 906 855
3 855 906 907
3 856 908 857
3 857 908 909
3 857 909 858
3 858 909 910
3 859 910 860
3 860 910 911
3 860 911 861
3 861 911 912
3 861 912 862
3 862 912 913
3 862 913 863
3 863 913 914
3 864 915 865
3 865 915 916
3 865 916 866
3 866 916 917
3 866 917 867
3 867 917 918
3 867 918 868
3 868 918 919
3 868 919 869
3 869 919 920
3 870 920 871
3 871 920 921
3 871 921 872
3 872 921 922
3 872 922 873
3 873 922 923
3 873 923 874
3 874 923 924
3 875 925 876
3 876 925 926
3 876 926 877
3 877 926 927
3 878 928 879
3 879 928 929
3 879 929 880
3 880 929 930
3 880 930 881
3 881 930 931
3 882 932 883
3 883 932 933
3 883 933 884
3 884 933 934
3 885 935 886
3 886 935 936
3 886 936 887
3 887 936 937
3 887 937 888
3 888 937 938
3 889 939 890
3 890 939 940
3 890 940 891
3 891 940 941
3 892 941 893
3 893 941 942
3 893 942 894
3 894 942 943
3 894 943 895
3 895 943 944
3 896 945 897
3 897 945 946
3 897 946 898
3 898 946 947
3 899 947 900
3 900 947 656
3 948 398 949
3 949 398 950
3 949 950 951
3 951 950 952
3 951 952 953
3 953 952 954
3 953 954 955
3 955 954 956
3 955 956 957
3 957 956 958
3 957 958 959
3 959 958 960
3 959 960 961
3 961 960 962
3 963 964 965
3 965 964 966
3 965 966 967
3 967 966 968
3 969 970 971
3 971 970 972
3 971 972 973
3 973 972 974
3 973 974 975
3 975 974 976
3 975 976 977
3 977 976 978
3 979 980 916
3 916 980 981
3 916 981 982
3 982 981 983
3 982 983 918
3 918 983 984
3 918 984 985
3 985 984 986
3 985 986 987
3 987 986 988
3 987 989 990
3 990 989 991
3 990 991 992
3 992 991 993
3 992 993 994
3 994 993 995
3 994 995 925
3 925 995 996
3 997 998 999
3 999 998 1000
3 999 1000 1001
3 1001 1000 1002
3 1003 1004 1005
3 1005 1004 1006
3 1005 1006 1007
3 1007 1006 1008
3 1007 1008 931
3 931 1008 1009
3 932 1010 1011
3 1011 1010 1012
3 1011 1012 1013
3 1013 1012 1014
3 1015 1016 1017
3 1017 1016 1018
3 1017 1018 1019
3 1019 1018 1020
3 1019 1020 1021
3 1021 1020 1022
3 1023 1022 1024
3 1024 1022 1025
3 1024 1025 1026
3 1026 1025 1027
3 1028 1029 1030
3 1030 1029 1031
3 1030 1031 1032
3 1032 1031 1033
3 1032 1033 1034
3 1034 1033 1035
3 1036 1037 1038
3 1038 1037 1039
3 1038 1039 1040
3 1040 1039 1041
3 1040 1042 1043
3 1043 1042 450
3 398 1044 950
3 950 1044 1045
3 950 1045 952
3 952 1045 1046
3 952 1046 954
3 954 1046 1047
3 954 1047 956
3 956 1047 1048
3 956 1048 958
3 958 1048 1049
3 958 1049 960
3 960 1049 1050
3 960 1050 962
3 962 1050 1051
3 964 1052 966
3 966 1052 1053
3 966 1053 968
3 968 1053 1054
3 970 1055 972
3 972 1055 1056
3 972 1056 974
3 974 1056 1057
3 974 1057 976
3 976 1057 1058
3 976 1058 978
3 978 1058 1059
3 980 1060 981
3 981 1060 1061
3 981 1061 983
3 983 1061 1062
3 983 1062 984
3 984 1062 1063
3 984 1063 986
3 986 1063 1064
3 986 1064 988
3 988 1064 1065
3 989 1066 991
3 991 1066 1067
3 991 1067 993
3 993 1067 1068
3 993 1068 995
3 995 1068 1069
3 995 1069 996
3 996 1069 1070
3 998 1071 1000
3 1000 1071 1072
3 1000 1072 1002
3 1002 1072 1073
3 1004 1074 1006
3 1006 1074 1075
3 1006 1075 1008
3 1008 1075 1076
3 1008 1076 1009
3 1009 1076 1077
3 1010 1078 1012
3 1012 1078 1079
3 1012 1079 1014
3 1014 1079 1080
3 1016 1081 1018
3 1018 1081 1082
3 1018 1082 1020
3 1020 1082 1083
3 1020 1083 1022
3 1022 1083 1084
3 1022 1084 1025
3 1025 1084 1085
3 1025 1085 1027
3 1027 1085 1086
3 1029 1086 1031
3 1031 1086 1087
3 1031 1087 1033
3 1033 1087 1088
3 1033 1088 1035
3 1035 1088 1089
3 1037 1090 1039
3 1039 1090 1091
3 1039 1091 1041
3 1041 1091 1092
3 1042 1093 450
3 1044 1094 1045
3 1045 1094 1095
3 1045 1095 1046
3 1046 1095 1096
3 1046 1096 1047
3 1047 1096 1097
3 1047 1097 1048
3 1048 1097 1098
3 1048 1098 1049
3 1049 1098 1099
3 1049 1099 1050
3 1050 1099 1100
3 1050 1100 1051
3 1051 1100 1101
3 1052 1102 1053
3 1053 1102 1103
3 1053 1103 1054
3 1054 1103 1104
3 1055 1105 1056
3 1056 1105 1106
3 1056 1106 1057
3 1057 1106 1107
3 1057 1107 1058
3 1058 1107 1108
3 1058 1108 1059
3 1059 1108 1109
3 1060 1110 1061
3 1061 1110 1111
3 1061 1111 1062
3 1062 1111 1112
3 1062 1112 1063
3 1063 1112 1113
3 1063 1113 1064
3 1064 1113 1114
3 1064 1114 1065
3 1065 1114 1115
3 1066 1116 1067
3 1067 1116 1117
3 1067 1117 1068
3 1068 1117 1118
3 1068 1118 1069
3 1069 1118 1119
3 1069 1119 1070
3 1070 1119 1120
3 1071 1121 1072
3 1072 1121 1122
3 1072 1122 1073
3 1073 1122 1123
3 1074 1124 1075
3 1075 1124 1125
3 1075 1125 1076
3 1076 1125 1126
3 1076 1126 1077
3 1077 1126 1127
3 1078 1128 1079
3 1079 1128 1129
3 1079 1129 1080
3 1080 1129 1130
3 1081 1131 1082
3 1082 1131 1132
3 1082 1132 1083
3 1083 1132 1133
3 1083 1133 1084
3 1084 1133 1134
3 1084 1135 1085
3 1085 1135 1136
3 1085 1136 1086
3 1086 1136 1137
3 1086 1137 1087
3 1087 1137 1138
3 1087 1138 1088
3 1088 1138 1139
3 1088 1139 1089
3 1089 1139 1140
3 1090 1141 1091
3 1091 1141 1142
3 1091 1142 1092
3 1092 1142 1143
3 1093 1144 103
3 103 1144 1145
3 1094 1146 1095
3 1095 1146 1147
3 1095 1147 1096
3 1096 1147 1148
3 1096 1148 1097
3 1097 1148 1149
3 1097 1149 1098
3 1098 1149 1150
3 1098 1150 1099
3 1099 1150 1151
3 1099 1151 1100
3 1100 1151 1152
3 1100 1152 1101
3 1101 1152 1153
3 1102 1154 1103
3 1103 1154 1155
3 1103 1155 1104
3 1104 1155 1156
3 1105 1157 1106
3 1106 1157 1158
3 1106 1158 1107
3 1107 1158 1159
3 1107 1159 1108
3 1108 1159 1160
3 1108 1160 1109
3 1109 1160 1161
3 1110 1162 1111
3 1111 1162 1163
3 1111 1163 1112
3 1112 1163 1164
3 1112 1164 1113
3 1113 1164 1165
3 1113 1165 1114
3 1114 1165 1166
3 1114 1166 1115
3 1115 1166 1167
3 1116 1168 1117
3 1117 1168 1169
3 1117 1169 1118
3 1118 1169 1170
3 1118 1170 1119
3 1119 1170 1171
3 1119 1171 1120
3 1120 1171 1172
3 1121 1173 1122
3 1122 1173 1174
3 1122 1174 1123
3 1123 1174 1175
3 1124 1176 1125
3 1125 1176 1177
3 1125 1177 1126
3 1126 1177 1178
3 1126 1178 1127
3 1127 1178 1179
3 1128 1180 1129
3 1129 1180 1181
3 1129 1181 1130
3 1130 1181 1182
3 1131 1183 1132
3 1132 1183 1184
3 1132 1184 1133
3 1133 1184 1185
3 1133 1185 1134
3 1134 1185 1186
3 1135 1187 1136
3 1136 1187 1188
3 1136 1188 1137
3 1137 1188 1189
3 1137 1190 1138
3 1138 1190 1191
3 1138 1191 1139
3 1139 1191 1192
3 1139 1192 1140
3 1140 1192 1193
3 1141 1194 1142
3 1142 1194 1195
3 1142 1195 1143
3 1143 1195 1196
3 1144 1197 1145
3 1145 1197 1198
3 1146 104 1147
3 1147 104 1199
3 1147 1199 1148
3 1148 1199 1200
3 1148 1200 1149
3 1149 1200 1201
3 1149 1201 1150
3 1150 1201 1202
3 1150 1202 1151
3 1151 1202 1203
3 1151 1203 1152
3 1152 1203 1204
3 1152 1204 1153
3 1153 1204 1205
3 1154 1206 1155
3 1155 1206 1207
3 1155 1207 1156
3 1156 1207 1208
3 1157 1209 1158
3 1158 1209 1210
3 1158 1210 1159
3 1159 1210 1211
3 1159 1211 1160
3 1160 1211 1212
3 1160 1212 1161
3 1161 1212 1213
3 1162 1214 1163
3 1163 1214 1215
3 1163 1215 1164
3 1164 1215 1216
3 1164 1216 1165
3 1165 1216 1217
3 1165 1217 1166
3 1166 1217 1218
3 1166 1218 1167
3 1167 1218 1219
3 1168 1220 1169
3 1169 1220 1221
3 1169 1221 1170
3 1170 1221 1222
3 1170 1222 1171
3 1171 1222 1223
3 1171 1223 1172
3 1172 1223 1224
3 1173 1225 1174
3 1174 1225 1226
3 1174 1226 1175
3 1175 1226 1227
3 1176 1228 1177
3 1177 1228 1229
3 1177 1229 1178
3 1178 1229 1230
3 1178 1230 1179
3 1179 1230 1231
3 1180 1232 1181
3 1181 1232 1233
3 1181 1233 1182
3 1182 1233 1234
3 1183 1235 1184
3 1184 1235 1236
3 1184 1236 1185
3 1185 1236 1237
3 1185 1237 1186
3 1186 1237 1238
3 1187 1239 1188
3 1188 1239 1240
3 1188 1240 1189
3 1189 1240 1241
3 1190 1242 1191
3 1191 1242 1243
3 1191 1243 1192
3 1192 1243 1244
3 1192 1244 1193
3 1193 1244 1245
3 1194 1246 1195
3 1195 1246 1247
3 1195 1247 1196
3 1196 1247 1248
3 1197 1249 1198
3 1198 1249 103
3 104 398 1199
3 1199 398 1250
3 1199 1250 1200
3 1200 1250 1251
3 1200 1251 1201
3 1201 1251 1252
3 1201 1252 1202
3 1202 1252 1253
3 1202 1253 1203
3 1203 1253 1254
3 1203 1254 1204
3 1204 1254 1255
3 1204 1255 1205
3 1205 1255 1256
3 1206 1257 1207
3 1207 1257 1258
3 1207 1258 1208
3 1208 1258 1259
3 1209 1260 1210
3 1210 1260 1261
3 1210 1261 1211
3 1211 1261 1262
3 1211 1262 1212
3 1212 1262 1263
3 1212 1263 1213
3 1213 1263 1264
3 1214 1265 1215
3 1215 1265 1266
3 1215 1266 1216
3 1216 1266 1267
3 1216 1267 1217
3 1217 1267 1268
3 1217 1268 1218
3 1218 1268 1269
3 1218 1269 1219
3 1219 1269 1270
3 1220 1270 1221
3 1221 1270 1271
3 1221 1271 1222
3 1222 1271 1272
3 1222 1272 1223
3 1223 1272 1273
3 1223 1273 1224
3 1224 1273 1274
3 1225 1275 1226
3 1226 1275 1276
3 1226 1276 1227
3 1227 1276 1277
3 1228 1278 1229
3 1229 1278 1279
3 1229 1279 1230
3 1230 1279 1280
3 1230 1280 1231
3 1231 1280 1281
3 1232 1282 1233
3 1233 1282 1283
3 1233 1283 1234
3 1234 1283 1284
3 1235 1285 1236
3 1236 1285 1286
3 1236 1286 1237
3 1237 1286 1287
3 1237 1287 1238
3 1238 1287 1288
3 1239 1289 1240
3 1240 1289 1290
3 1240 1290 1241
3 1241 1290 1291
3 1242 1292 1243
3 1243 1292 1293
3 1243 1293 1244
3 1244 1293 1294
3 1244 1294 1245
3 1245 1294 1295
3 1246 1296 1247
3 1247 1296 1297
3 1247 1297 1248
3 1248 1297 1298
3 1249 1298 103
3 103 1298 604
3 1 1299 1300
3 1300 1299 1301
3 1300 1301 1251
3 1251 1301 1302
3 1251 1302 1303
3 1303 1302 1304
3 1303 1304 1305
3 1305 1304 1306
3 1305 1306 1307
3 1307 1306 1308
3 1307 1308 1309
3 1309 1308 1310
3 1309 1310 1311
3 1311 1310 1312
3 1313 1314 1315
3 1315 1314 1316
3 1315 1316 1317
3 1317 1316 1318
3 1319 1320 1261
3 1261 1320 1321
3 1261 1321 1322
3 1322 1321 1323
3 1322 1323 1263
3 1263 1323 1324
3 1263 1324 1325
3 1325 1324 1326
3 1327 1328 1329
3 1329 1328 1330
3 1329 1330 1331
3 1331 1330 1332
3 1331 1332 1268
3 1268 1332 1333
3 1268 1333 1334
3 1334 1333 1335
3 1334 1335 1270
3 1270 1335 1336
3 1270 1337 1338
3 1338 1337 1339
3 1338 1339 1340
3 1340 1339 1341
3 1340 1341 1342
3 1342 1341 1343
3 1342 1343 1344
3 1344 1343 1345
3 1346 1347 1348
3 1348 1347 1349
3 1348 1349 1350
3 1350 1349 1351
3 1352 1353 1354
3 1354 1353 1355
3 1354 1355 1356
3 1356 1355 1357
3 1356 1357 1358
3 1358 1357 1359
3 1360 1361 1362
3 1362 1361 1363
3 1362 1363 1364
3 1364 1363 1365
3 1366 1367 1368
3 1368 1367 1369
3 1368 1369 1370
3 1370 1369 1371
3 1370 1371 1372
3 1372 1371 1373
3 1374 1375 1376
3 1376 1375 1377
3 1376 1377 1291
3 1291 1377 1378
3 1379 1380 1293
3 1293 1380 1381
3 1293 1381 1382
3 1382 1381 1383
3 1382 1383 1295
3 1295 1383 1384
3 1385 1386 1387
3 1387 1386 1388
3 1387 1388 1298
3 1298 1388 1389
3 1390 1391 656
3 656 1391 450
3 1299 1 1301
3 1301 1 0
3 1301 0 1302
3 1302 0 3
3 1302 3 1304
3 1304 3 5
3 1304 5 1306
3 1306 5 7
3 1306 7 1308
3 1308 7 9
3 1308 9 1310
3 1310 9 11
3 1310 11 1312
3 1312 11 13
3 1314 15 1316
3 1316 15 17
3 1316 17 1318
3 1318 17 19
3 1320 21 1321
3 1321 21 23
3 1321 23 1323
3 1323 23 25
3 1323 25 1324
3 1324 25 27
3 1324 27 1326
3 1326 27 29
3 1328 31 1330
3 1330 31 33
3 1330 33 1332
3 1332 33 35
3 1332 35 1333
3 1333 35 37
3 1333 37 1335
3 1335 37 39
3 1335 39 1336
3 1336 39 41
3 1337 43 1339
3 1339 43 45
3 1339 45 1341
3 1341 45 47
3 1341 47 1343
3 1343 47 49
3 1343 49 1345
3 1345 49 51
3 1347 53 1349
3 1349 53 55
3 1349 55 1351
3 1351 55 57
3 1353 59 1355
3 1355 59 61
3 1355 61 1357
3 1357 61 63
3 1357 63 1359
3 1359 63 65
3 1361 67 1363
3 1363 67 69
3 1363 69 1365
3 1365 69 71
3 1367 73 1369
3 1369 73 75
3 1369 75 1371
3 1371 75 77
3 1371 77 1373
3 1373 77 79
3 1375 81 1377
3 1377 81 83
3 1377 83 1378
3 1378 83 85
3 1380 87 1381
3 1381 87 89
3 1381 89 1383
3 1383 89 91
3 1383 91 1384
3 1384 91 93
3 1386 95 1388
3 1388 95 97
3 1388 97 1389
3 1389 97 99
3 1391 101 450
3 450 101 103
