# vtk DataFile Version 2.0
File written by itkPolyDataMeshIO
ASCII
DATASET POLYDATA
POINTS 1659 float
43.627693 26.651573 -93.87865
43.627693 26.651573 -93.87864
44.852028 24.414345 -92.414505
44.738197 24.206566 -92.698235
43.852776 22.806084 -91.08687
43.732414 22.593666 -91.37874
42.831734 21.149544 -89.801186
42.72338 20.944221 -90.0778
42.83172 21.149544 -89.801186
42.72338 20.944221 -90.07779
41.85456 19.38015 -88.14737
41.75428 19.17939 -88.41304
40.992043 17.56916 -86.19719
40.891563 17.367592 -86.46148
40.236732 15.700829 -84.19271
40.135628 15.497704 -84.4555
39.747414 13.80114 -82.16436
39.645515 13.595619 -82.42495
39.546608 11.894844 -80.09402
39.443718 11.686012 -80.35164
39.120872 9.827812 -78.12706
39.016792 9.61422 -78.38027
38.57528 7.757912 -76.141075
38.469566 7.537178 -76.38738
37.758034 5.707237 -74.11507
37.64965 5.475639 -74.34992
37.038475 3.484642 -71.475464
36.926186 3.237373 -71.6917
36.47663 1.299141 -68.3455
36.36019 1.036308 -68.540886
35.988182 -0.649239 -65.08834
35.869347 -0.920692 -65.26914
35.677574 -2.402931 -62.020847
35.558006 -2.678566 -62.19744
35.67759 -2.402931 -62.020855
35.558037 -2.678566 -62.197445
35.50956 -4.23745 -59.11625
35.391808 -4.514412 -59.293335
35.443718 -6.529625 -55.677937
35.333138 -6.806023 -55.858967
35.443718 -6.529594 -55.677944
35.333138 -6.806007 -55.858974
35.52462 -8.658165 -51.785496
35.416725 -8.954445 -51.97673
34.56907 -9.375359 -47.28749
34.44303 -9.686577 -47.431633
34.569115 -9.375328 -47.287506
34.44306 -9.686562 -47.43165
32.882698 -9.558632 -42.055733
32.739143 -9.882561 -42.15955
30.623161 -9.877663 -35.685844
30.474297 -10.2136 -35.787003
30.623161 -9.877678 -35.685852
30.474266 -10.213615 -35.78701
27.007439 -10.898598 -27.156656
26.859352 -11.209984 -27.247082
22.863075 -12.699226 -16.622229
22.702415 -13.006355 -16.704548
22.86309 -12.699211 -16.622246
22.702446 -13.00634 -16.704565
18.857475 -14.188896 -5.984298
18.703117 -14.522896 -6.102625
14.269173 -14.750572 1.880269
14.172752 -15.037209 1.731659
14.269173 -14.750587 1.880261
14.172737 -15.037239 1.731651
10.065895 -14.344841 4.174179
44.597923 24.0458 -92.949425
43.592033 22.436485 -91.62493
42.58114 20.776665 -90.33389
41.610344 19.003838 -88.67515
40.746544 17.189613 -86.72197
39.989403 15.316872 -84.7133
39.497902 13.410942 -82.67923
39.294746 11.49662 -80.60162
38.866493 9.419518 -78.62532
38.317574 7.335579 -76.62572
37.495094 5.263542 -74.57723
36.76792 3.010399 -71.90141
36.197914 0.794472 -68.73062
35.70475 -1.171288 -65.44405
35.39228 -2.933968 -62.36714
35.392265 -2.933968 -62.367153
35.227272 -4.771935 -59.462914
35.17463 -7.064125 -56.032543
35.174644 -7.064125 -56.03255
35.256157 -9.231926 -52.163036
34.26638 -9.974586 -47.580124
34.26641 -9.974556 -47.58014
32.546883 -10.17997 -42.27645
30.274986 -10.523674 -35.90711
30.274971 -10.523705 -35.907116
26.664284 -11.497398 -27.357574
22.487892 -13.286644 -16.808464
22.487892 -13.286644 -16.808483
18.488136 -14.82476 -6.24956
14.03965 -15.293419 1.551362
14.039665 -15.293434 1.551353
43.627678 26.651543 -93.87864
44.419167 23.909721 -93.198395
43.413445 22.301537 -91.87041
42.39907 20.635277 -90.58504
42.399055 20.635277 -90.58504
41.42527 18.856682 -88.92897
40.559853 17.039085 -86.97309
39.800987 15.162254 -84.96058
39.307625 13.251045 -82.92167
39.102715 11.330757 -80.838615
38.67301 9.247902 -78.85693
38.122475 7.157356 -76.85096
37.29763 5.075523 -74.79217
36.567055 2.808632 -72.10006
35.993202 0.578804 -68.91063
35.49778 -1.395714 -65.60933
35.183754 -3.163643 -62.526215
35.183784 -3.163628 -62.526222
35.019188 -5.004234 -59.621006
34.97065 -7.297478 -56.194336
34.97065 -7.297478 -56.194344
35.044212 -9.482552 -52.33916
34.042336 -10.231865 -47.728848
34.042366 -10.231834 -47.728863
32.311073 -10.443199 -42.403114
30.032204 -10.796684 -36.041904
30.032188 -10.796684 -36.04191
26.4318 -11.750542 -27.482967
22.227608 -13.530861 -16.929974
22.227608 -13.530861 -16.92999
18.21833 -15.085365 -6.419744
13.878563 -15.518105 1.349401
13.878563 -15.518135 1.349393
10.06588 -14.344856 4.174179
44.203102 23.802269 -93.44041
43.1968 22.193275 -92.11072
42.17971 20.523628 -90.82627
42.17971 20.523613 -90.82626
41.20321 18.740974 -89.169235
40.335747 16.919136 -87.209564
39.574623 15.03698 -85.1921
39.078896 13.119164 -83.14715
38.87191 11.191917 -81.057686
38.44068 9.102974 -79.070366
37.888664 7.006294 -77.05842
37.061638 4.915535 -74.99023
36.32798 2.636269 -72.28352
35.750557 0.393806 -69.07712
35.253075 -1.589226 -65.761536
34.937096 -3.362724 -62.671352
34.937126 -3.362709 -62.671356
34.77201 -5.205925 -59.764076
34.725105 -7.499443 -56.339863
34.72512 -7.499428 -56.339867
34.784523 -9.697197 -52.498848
33.77587 -10.450279 -47.872833
33.775917 -10.450249 -47.872852
32.038124 -10.665215 -42.535797
29.753227 -11.025246 -36.187588
29.753227 -11.025261 -36.187595
26.167274 -11.961205 -27.6205
21.928596 -13.730736 -17.06588
21.928596 -13.730721 -17.065895
17.90287 -15.296913 -6.60842
13.691963 -15.703712 1.128913
13.691978 -15.703728 1.128905
10.065895 -14.344856 4.174179
43.955345 23.729027 -93.66615
42.948143 22.118523 -92.33492
41.928154 20.446083 -91.05
41.928154 20.446083 -91.04999
40.948677 18.6594 -89.39061
40.078697 16.832405 -87.426216
39.31495 14.94384 -85.40282
38.816444 13.018318 -83.35076
38.607033 11.083107 -81.254
38.174232 8.987907 -79.26088
37.620872 6.885658 -77.24354
36.791924 4.787041 -75.167076
36.055626 2.497093 -72.447754
35.474937 0.243614 -69.22641
34.97564 -1.747581 -65.89732
34.65737 -3.526726 -62.799324
34.657356 -3.526711 -62.79933
34.490868 -5.372292 -59.88877
34.443367 -7.664375 -56.465023
34.443367 -7.66436 -56.465027
34.483116 -9.868324 -52.63654
33.47329 -10.623878 -48.0077
33.473335 -10.623848 -48.007717
31.734505 -10.841743 -42.671185
29.44471 -11.20623 -36.34093
29.444695 -11.206245 -36.34094
25.875572 -12.124748 -27.767658
21.598457 -13.882011 -17.212719
21.598488 -13.881996 -17.212734
17.5523 -15.456581 -6.810464
13.482735 -15.843773 0.893253
13.48275 -15.843803 0.893245
43.955345 23.729042 -93.66616
43.681526 23.692284 -93.86987
42.948143 22.118538 -92.33494
42.67318 22.079979 -92.53695
41.92817 20.446098 -91.05
41.650017 20.404701 -91.25091
41.92817 20.446083 -91.049995
41.650017 20.404686 -91.25091
40.667168 18.61361 -89.5884
40.078697 16.832405 -87.42622
39.794273 16.780693 -87.618546
39.31495 14.94384 -85.402824
39.02749 14.884804 -85.58833
38.816444 13.018318 -83.35077
38.525856 12.950508 -83.52822
38.607048 11.083107 -81.254005
38.31385 11.006599 -81.42345
37.879433 8.905083 -79.424484
37.620872 6.885674 -77.24354
37.324883 6.797981 -77.40245
36.494347 4.692711 -75.31903
35.755882 2.393974 -72.58932
35.474953 0.243614 -69.22641
35.17234 0.13131 -69.35538
34.975655 -1.747566 -65.89732
34.67144 -1.86747 -66.01386
34.65737 -3.526695 -62.799324
34.35061 -3.652214 -62.90738
34.65737 -3.526695 -62.799335
34.35061 -3.652214 -62.907383
34.490883 -5.372276 -59.88877
34.18209 -5.49955 -59.992203
34.13244 -7.787697 -56.56636
34.443367 -7.66436 -56.46503
34.13244 -7.787697 -56.566364
34.483116 -9.868324 -52.636543
34.14869 -9.989998 -52.747467
33.473305 -10.623878 -48.007706
33.142433 -10.74807 -48.12957
33.47335 -10.623848 -48.00772
33.14248 -10.748024 -48.129585
31.734505 -10.841759 -42.67119
31.40725 -10.96946 -42.806114
29.11367 -11.33651 -36.498596
29.444695 -11.206245 -36.340942
29.113655 -11.336525 -36.498604
25.875572 -12.124733 -27.767658
25.563927 -12.238594 -27.92091
21.598473 -13.881996 -17.212719
21.246391 -13.982979 -17.366465
21.598488 -13.881996 -17.212736
21.246391 -13.982964 -17.36648
17.55233 -15.456566 -6.810465
17.176628 -15.563072 -7.020398
13.48275 -15.843773 0.893253
13.256905 -15.937263 0.64858
13.48275 -15.843788 0.893245
13.256905 -15.937294 0.648571
43.627678 26.651558 -93.87864
43.387535 23.69297 -94.0471
42.377922 22.078636 -92.71225
41.351295 20.40049 -91.42459
41.35128 20.40049 -91.42459
40.364693 18.604668 -89.758385
39.48855 16.76516 -87.7824
38.718407 14.861153 -85.74466
38.21337 12.917259 -83.67573
37.998543 10.964012 -81.5624
37.56257 8.856316 -79.55771
37.007042 6.745125 -77.53173
36.17524 4.634651 -75.44279
35.435143 2.329155 -72.705185
34.849205 0.059303 -69.46126
34.346962 -1.946342 -66.10863
34.023415 -3.736443 -62.993164
34.02343 -3.736443 -62.99317
33.852608 -5.584831 -60.07201
33.800407 -7.866432 -56.64132
33.800407 -7.866432 -56.641327
33.791786 -10.058891 -52.828384
32.79223 -10.820274 -48.23545
32.79226 -10.820244 -48.235466
31.063637 -11.046379 -42.937782
28.766945 -11.414375 -36.657417
28.76693 -11.41436 -36.65743
25.239265 -12.302376 -28.077051
20.88044 -14.033272 -17.523815
20.88044 -14.033257 -17.523832
16.783684 -15.615349 -7.234274
13.019066 -15.985191 0.399303
13.019066 -15.985207 0.399294
10.06588 -14.344841 4.174179
43.07966 23.731148 -94.19408
42.068703 22.11457 -92.85709
41.038292 20.433525 -91.567375
41.038307 20.433525 -91.567375
40.04769 18.632774 -89.89694
39.168068 16.786171 -87.91432
38.394295 14.873421 -85.86849
37.885612 12.919304 -83.7902
37.667885 10.956306 -81.66794
37.23037 8.842613 -79.65774
36.67408 6.728233 -77.6287
35.841377 4.614006 -75.53578
35.100197 2.304039 -72.7929
34.512444 0.029182 -69.5418
34.009117 -1.982475 -66.1796
33.682854 -3.777657 -63.054905
33.682854 -3.777657 -63.054913
33.50994 -5.626442 -60.126595
33.45597 -7.899269 -56.68846
33.455986 -7.899269 -56.68847
33.42353 -10.074471 -52.877956
32.431892 -10.839897 -48.323467
32.43194 -10.839867 -48.323486
30.711067 -11.071632 -43.063694
28.411491 -11.438835 -36.814278
28.41146 -11.438866 -36.814285
24.908455 -12.315865 -28.23261
20.50875 -14.032951 -17.681038
20.508766 -14.032936 -17.681055
16.383461 -15.613487 -7.445652
12.777885 -15.988625 0.154735
12.777885 -15.988655 0.154727
10.06591 -14.344826 4.174179
43.62771 26.651604 -93.878654
42.764442 23.805916 -94.30761
41.75202 22.186974 -92.96838
40.717766 20.503075 -91.67619
40.717766 20.50306 -91.676186
39.72297 18.697243 -90.00109
38.83967 16.843178 -88.01148
38.06208 14.921303 -85.957184
37.5496 12.956566 -83.86915
37.328926 10.983589 -81.73781
36.88996 8.864265 -79.722374
36.333153 6.747688 -77.69123
35.4999 4.63131 -75.59602
34.758232 2.319145 -72.85061
34.169273 0.041603 -69.5953
33.66514 -1.975136 -66.225296
33.336235 -3.775063 -63.09132
33.336235 -3.775063 -63.091328
33.161674 -5.623741 -60.154972
33.107735 -7.886452 -56.70734
33.107735 -7.886452 -56.707348
33.054375 -10.038628 -52.89643
32.070168 -10.807961 -48.392666
32.070198 -10.80793 -48.39268
30.356697 -11.045372 -43.181614
28.054085 -11.409935 -36.96609
28.05407 -11.40995 -36.9661
24.577477 -12.279274 -28.38481
20.13842 -13.983177 -17.83543
20.138435 -13.983177 -17.835445
15.982841 -15.558693 -7.651822
12.535149 -15.947487 -0.083924
12.535149 -15.947502 -0.083932
10.06591 -14.344826 4.17418
43.627724 26.651588 -93.87866
42.448524 23.915672 -94.385315
41.434624 22.294289 -93.04373
40.396416 20.607658 -91.74871
40.396416 20.607643 -91.74871
39.397377 18.79673 -90.06865
38.510307 16.934975 -88.07183
37.728783 15.003746 -86.00884
37.212456 13.028191 -83.91088
36.988823 11.045311 -81.77048
36.54856 8.920799 -79.750244
35.991432 6.803062 -77.717995
35.158043 4.686104 -75.62219
34.41648 2.374138 -72.87705
33.826942 0.09623 -69.62062
33.322273 -1.924477 -66.24473
32.9909 -3.728722 -63.101635
32.990913 -3.728722 -63.101643
32.815407 -5.577095 -60.156693
32.763557 -7.829475 -56.69829
32.763557 -7.82946 -56.69829
32.69332 -9.954796 -52.885105
31.714958 -10.726555 -48.44265
31.715004 -10.726524 -48.44267
30.00747 -10.968559 -43.289536
27.701515 -11.328392 -37.10989
27.701515 -11.328392 -37.1099
24.252235 -12.193459 -28.531122
19.775963 -13.885704 -17.984726
19.775978 -13.885689 -17.984741
15.587349 -15.452751 -7.851429
12.290413 -15.861565 -0.317935
12.290413 -15.86158 -0.317944
43.627724 26.651604 -93.878654
42.448524 23.915657 -94.385315
42.138756 24.058052 -94.425545
41.434624 22.294289 -93.043724
41.123344 22.434242 -93.08156
40.396416 20.607643 -91.7487
40.0812 20.744987 -91.783455
40.3964 20.607643 -91.7487
40.0812 20.744987 -91.78345
39.39736 18.7967 -90.06865
39.07789 18.928993 -90.09825
38.510292 16.93496 -88.07183
38.186974 17.059547 -88.09415
37.401527 15.11895 -86.02243
36.881416 13.132683 -83.914604
36.988808 11.045311 -81.77048
36.654884 11.140114 -81.76533
36.54856 8.920799 -79.75025
36.213417 9.010963 -79.740845
35.991447 6.803047 -77.71799
35.656303 6.893089 -77.70847
35.15806 4.686104 -75.62219
34.823143 4.777214 -75.613785
34.41648 2.374123 -72.87705
34.082283 2.467766 -72.87172
33.826927 0.096214 -69.62062
33.492775 0.19175 -69.61726
33.322258 -1.924477 -66.24473
32.987846 -1.831688 -66.23752
32.990883 -3.728706 -63.101635
32.654243 -3.639763 -63.085705
32.9909 -3.728706 -63.101643
32.654243 -3.639763 -63.08571
32.815407 -5.577095 -60.15669
32.478462 -5.487892 -60.13194
32.763557 -7.829475 -56.698288
32.430717 -7.730675 -56.662292
32.763557 -7.82946 -56.698296
32.430717 -7.730659 -56.6623
32.693306 -9.954796 -52.885105
32.347725 -9.827293 -52.846096
31.714928 -10.726555 -48.442654
31.373177 -10.598671 -48.473618
31.714973 -10.726524 -48.442673
31.373207 -10.598656 -48.473633
30.007454 -10.968559 -43.289536
29.66999 -10.842857 -43.385742
27.7015 -11.328392 -37.109886
27.360405 -11.195732 -37.242977
27.7015 -11.328407 -37.109894
27.36039 -11.195747 -37.24298
24.25222 -12.193474 -28.531118
23.939003 -12.06028 -28.66834
19.775963 -13.885719 -17.984724
19.42849 -13.742729 -18.125553
19.775978 -13.885704 -17.984741
19.428505 -13.742714 -18.12557
15.20652 -15.297722 -8.038123
12.290398 -15.861565 -0.317936
12.05291 -15.73217 -0.537303
12.290398 -15.86158 -0.317944
12.05291 -15.732185 -0.537311
10.065926 -14.344826 4.174179
43.627678 26.651573 -93.87864
41.841667 24.23011 -94.42733
40.824806 22.60389 -93.080986
39.778847 20.912285 -91.77954
39.778847 20.912285 -91.77955
38.771294 19.091423 -90.08903
37.87661 17.214363 -88.07772
37.08735 15.264565 -85.99747
36.5635 13.267891 -83.88006
36.33419 11.266106 -81.72231
35.8917 9.133034 -79.69421
35.3348 7.016014 -77.66269
34.50228 4.902794 -75.57082
33.762657 2.598228 -72.834595
33.173897 0.326378 -69.585175
32.66906 -1.69857 -66.20369
32.333412 -3.509941 -63.043793
32.333412 -3.509926 -63.0438
32.157814 -5.358147 -60.081337
32.115532 -7.593117 -56.60083
32.115532 -7.593117 -56.600838
32.023216 -9.661034 -52.781933
31.050713 -10.42823 -48.486004
31.050758 -10.4282 -48.486015
29.350471 -10.671089 -43.468697
27.037163 -11.014595 -37.362827
27.037148 -11.01461 -37.36284
23.643349 -11.882439 -28.794085
19.102043 -13.55703 -18.255692
19.102058 -13.557014 -18.255709
14.847115 -15.095711 -8.208898
11.826546 -15.560539 -0.738448
11.82653 -15.560555 -0.738457
41.563652 24.428215 -94.39078
40.545387 22.79963 -93.0421
39.49575 21.105919 -91.7372
39.49575 21.105904 -91.7372
38.484184 19.28051 -90.04136
37.5859 17.39611 -88.02307
36.792946 15.437462 -85.93467
36.26554 13.43087 -83.80816
36.033623 11.420464 -81.64253
35.59034 9.284233 -79.6115
35.033897 7.169136 -77.58182
34.202415 5.060188 -75.49437
33.464622 2.762627 -72.766624
32.877144 0.497124 -69.52523
32.37272 -1.527977 -66.144104
32.035255 -3.342155 -62.97688
32.035286 -3.342155 -62.976883
31.86013 -5.190819 -60.006195
31.823769 -7.42028 -56.515755
31.823769 -7.420265 -56.515762
31.72425 -9.460838 -52.69519
30.752647 -10.219444 -48.480316
30.752693 -10.219429 -48.48033
29.054543 -10.456825 -43.537094
26.737724 -10.788628 -37.467327
26.737694 -10.788628 -37.46733
23.370476 -11.663658 -28.906153
18.802452 -13.332207 -18.372793
18.802467 -13.332191 -18.37281
14.51638 -14.850121 -8.360108
11.616249 -15.34922 -0.916651
11.616249 -15.349236 -0.91666
43.62771 26.651573 -93.878654
43.627693 26.651588 -93.878654
41.563652 24.42817 -94.39077
41.3106 24.648018 -94.3166
40.545372 22.799614 -93.0421
40.290916 23.01725 -92.96572
39.495735 21.105919 -91.7372
39.237892 21.321754 -91.657265
39.495735 21.105904 -91.7372
38.48417 19.28051 -90.04136
38.22262 19.492195 -89.95621
37.585884 17.396095 -88.02306
37.3209 17.600883 -87.93132
36.79293 15.437447 -85.93466
36.524513 15.633949 -85.83527
36.26551 13.43087 -83.80816
35.993813 13.618141 -83.70032
36.033607 11.420464 -81.642525
35.75956 11.599968 -81.52754
35.59034 9.284233 -79.61149
35.31565 9.461372 -79.49435
35.033882 7.169136 -77.58181
34.759926 7.349174 -77.467476
34.2024 5.060173 -75.49436
33.929848 5.245949 -75.38598
33.464592 2.762611 -72.76662
33.194374 2.957497 -72.66912
32.877113 0.497108 -69.52522
32.608772 0.700371 -69.43854
32.372704 -1.527992 -66.1441
32.105064 -1.323586 -66.059944
32.035255 -3.342155 -62.976875
31.76609 -3.139931 -62.886414
31.766106 -3.139931 -62.886417
31.860115 -5.190834 -60.00619
31.591347 -4.989586 -59.908184
31.823753 -7.42028 -56.515755
31.56031 -7.216087 -56.4091
31.823753 -7.42028 -56.515762
31.56031 -7.216087 -56.409107
31.724236 -9.460838 -52.69519
31.454185 -9.231438 -52.588223
30.752632 -10.219444 -48.480316
30.483055 -9.976814 -48.457138
30.752678 -10.219429 -48.480328
30.483086 -9.976784 -48.45715
28.787209 -10.204399 -43.5898
26.737709 -10.788628 -37.467323
26.467247 -10.522453 -37.554695
26.737679 -10.788643 -37.46733
26.467232 -10.522453 -37.554707
23.37046 -11.663673 -28.906153
23.124763 -11.408211 -29.002726
18.802437 -13.332207 -18.372791
18.534737 -13.072441 -18.47485
18.802452 -13.332207 -18.372808
18.534752 -13.072441 -18.474867
14.51638 -14.850136 -8.360107
14.220589 -14.565544 -8.488762
11.616249 -15.349236 -0.916651
11.426445 -15.102058 -1.068017
11.616249 -15.349266 -0.916659
11.426445 -15.102074 -1.068025
43.62771 26.651588 -93.87865
41.0879 24.884895 -94.20646
40.066948 23.252037 -92.853516
39.01081 21.555153 -91.54156
39.01081 21.555153 -91.541565
37.992104 19.721916 -89.83559
37.087257 17.824272 -87.80462
36.287712 15.849785 -85.70156
35.754066 13.825706 -83.559006
35.51777 11.800682 -81.379974
35.07348 9.660606 -79.34543
34.518684 7.552238 -77.32223
33.69027 5.456017 -75.248085
32.957573 3.178551 -72.544304
32.374413 0.931664 -69.3271
31.871758 -1.089851 -65.953094
31.53144 -2.907707 -62.77437
31.531456 -2.907707 -62.774372
31.35682 -4.75869 -59.789425
31.329643 -6.984673 -56.283104
31.329643 -6.984657 -56.283108
31.216179 -8.976982 -52.46314
30.245857 -9.704735 -48.41694
30.245888 -9.70472 -48.416954
28.553032 -9.918602 -43.626007
26.23037 -10.221184 -37.623573
26.230354 -10.221199 -37.62358
22.910484 -11.120644 -29.082127
18.303764 -12.782249 -18.559954
18.303764 -12.782234 -18.55997
13.965401 -14.247505 -8.592288
11.261055 -14.824089 -1.189238
11.261055 -14.824104 -1.189247
41.0879 24.88488 -94.20646
43.62771 26.651588 -93.878654
40.900276 25.133797 -94.062546
39.878212 23.499123 -92.70774
38.81945 21.801231 -91.392334
37.797768 19.964867 -89.68177
37.087273 17.824272 -87.80462
36.89013 18.061577 -87.645386
36.287727 15.849785 -85.70156
36.087822 16.080452 -85.53614
35.75405 13.825706 -83.559006
35.551598 14.049232 -83.386986
35.517754 11.800682 -81.379974
35.313576 12.018532 -81.202774
35.073463 9.660591 -79.34543
34.869133 9.877892 -79.167725
34.315453 7.774101 -77.149
33.69027 5.456001 -75.248085
33.489037 5.686073 -75.08348
32.957573 3.178551 -72.54431
32.75953 3.421242 -72.39471
32.179237 1.186241 -69.19317
31.871773 -1.089851 -65.95309
31.677956 -0.831581 -65.82572
31.531456 -2.907707 -62.774364
31.33651 -2.650215 -62.642975
31.531471 -2.907707 -62.774372
31.33651 -2.650215 -62.642982
31.161507 -4.502785 -59.652157
31.329643 -6.984673 -56.2831
31.135826 -6.730232 -56.140022
31.329643 -6.984657 -56.283104
31.135826 -6.730232 -56.14003
31.013115 -8.701469 -52.32186
30.044518 -9.40789 -48.36016
30.245888 -9.70472 -48.41695
30.044563 -9.40786 -48.360176
28.553032 -9.918602 -43.626003
28.355888 -9.604607 -43.644985
26.23037 -10.221184 -37.62357
26.030525 -9.890633 -37.673203
26.23037 -10.221199 -37.62358
26.03051 -9.890648 -37.67321
22.729774 -10.806664 -29.143797
18.112144 -12.467323 -18.62722
18.11216 -12.467323 -18.627237
13.965401 -14.247505 -8.592289
13.755043 -13.902596 -8.669075
11.123299 -14.521355 -1.278065
11.123299 -14.521385 -1.278074
10.06591 -14.344841 4.17418
43.627724 26.651573 -93.878654
40.751778 25.389442 -93.888016
39.728767 23.753197 -92.53159
38.66781 22.05468 -91.21289
38.667793 22.054665 -91.21289
37.643517 20.215767 -89.498146
36.733498 18.307716 -87.45715
35.92887 16.320992 -85.342735
35.39054 14.283821 -83.18811
35.151146 12.248726 -80.99985
34.706795 10.108421 -78.96516
34.15441 8.010017 -76.951645
33.330223 5.931236 -74.89578
32.60427 3.680351 -72.223595
32.027275 1.458611 -69.039665
31.527596 -0.55439 -65.680626
31.185265 -2.373039 -62.495106
31.18528 -2.373024 -62.495113
31.009285 -4.227196 -59.49933
30.982292 -6.457542 -55.982452
30.982292 -6.457527 -55.98246
30.847832 -8.408836 -52.166267
29.883064 -9.090721 -48.287117
29.883095 -9.090691 -48.287132
28.200981 -9.267311 -43.645565
25.874138 -9.535576 -37.701305
25.874123 -9.535591 -37.701313
22.589455 -10.47036 -29.184994
17.966087 -12.132301 -18.674309
17.966103 -12.132301 -18.674326
13.59478 -13.53698 -8.717016
11.01667 -14.199791 -1.331928
11.01667 -14.199806 -1.331936
40.64556 25.646324 -93.68658
39.621758 24.008842 -92.328835
38.55909 22.310097 -91.00704
38.55909 22.310081 -91.00704
37.53283 20.469368 -89.288605
36.620888 18.557472 -87.24384
35.81443 16.566292 -85.12534
35.274467 14.524544 -82.96652
35.034187 12.48632 -80.775406
34.590096 10.347298 -78.7419
34.039116 8.254921 -76.73424
33.217384 6.186226 -74.68893
32.49523 3.95034 -72.034546
31.921806 1.742973 -68.86976
31.42405 -0.264198 -65.52086
31.081047 -2.082054 -62.333893
31.081047 -2.082039 -62.333893
30.90319 -3.93763 -59.334045
30.871315 -6.171562 -55.813305
30.871315 -6.171547 -55.813316
30.721611 -8.103325 -51.998547
29.76336 -8.758446 -48.19869
29.763405 -8.75843 -48.1987
28.090752 -8.912758 -43.627712
25.762749 -9.161964 -37.708042
25.762749 -9.161995 -37.708046
22.490013 -10.116753 -29.205732
17.867943 -11.782356 -18.700293
17.867943 -11.782356 -18.70031
13.489418 -13.157387 -8.733982
10.945107 -13.865852 -1.347792
10.945107 -13.865883 -1.347801
40.64559 25.64634 -93.686584
40.583855 25.89901 -93.4625
39.621773 24.008842 -92.32885
39.559456 24.260597 -92.103745
38.559105 22.310097 -91.00705
38.495567 22.56205 -90.77916
38.55909 22.310081 -91.00706
38.495583 22.56205 -90.77917
37.532845 20.469368 -89.28861
37.467903 20.720207 -89.05765
36.62092 18.557472 -87.24384
36.55459 18.80552 -87.010086
35.814445 16.566292 -85.12535
35.746788 16.811134 -84.888664
35.274483 14.524544 -82.96652
35.20574 14.766273 -82.72698
35.034187 12.486351 -80.775406
34.964928 12.726387 -80.53432
34.590096 10.347313 -78.7419
34.521324 10.58947 -78.5028
34.03913 8.254921 -76.73424
33.97193 8.503609 -76.50145
33.2174 6.186226 -74.68893
33.15278 6.445595 -74.46736
32.49523 3.950356 -72.03455
32.43461 4.225441 -71.83164
31.921806 1.742989 -68.86977
31.865013 2.033257 -68.687164
31.424065 -0.264183 -65.52086
31.369408 0.03286 -65.349815
31.025917 -1.783394 -62.162716
31.081047 -2.082024 -62.333893
31.025948 -1.783379 -62.16272
30.903221 -3.93763 -59.334045
30.845589 -3.639961 -59.159676
30.87133 -6.171547 -55.813305
30.80558 -5.877388 -55.635513
30.871346 -6.171547 -55.813316
30.80558 -5.877373 -55.63552
30.721642 -8.103325 -51.99855
30.637947 -7.789314 -51.820686
29.763374 -8.75843 -48.198692
29.689491 -8.416969 -48.09549
29.76342 -8.758415 -48.198704
29.689537 -8.416924 -48.095505
28.090767 -8.912743 -43.627712
28.030586 -8.548393 -43.59036
25.706108 -8.778816 -37.689972
25.706093 -8.778831 -37.689976
22.44294 -9.75518 -29.201565
17.867958 -11.782356 -18.700293
17.825829 -11.426079 -18.702135
17.867958 -11.782341 -18.70031
17.825829 -11.426079 -18.702152
13.489433 -13.157387 -8.733983
13.443855 -12.772346 -8.718264
10.945091 -13.865852 -1.347792
10.911598 -13.527489 -1.32392
10.945091 -13.865868 -1.347801
10.911583 -13.527519 -1.323928
10.065895 -14.344826 4.17418
40.568016 26.142159 -93.22063
39.54322 24.503105 -91.86113
38.478737 22.805199 -90.53411
38.47872 22.805199 -90.5341
37.450294 20.962975 -88.81022
36.53611 19.046562 -86.76088
35.727516 17.0503 -84.63772
35.185875 15.003822 -82.47458
34.945 12.963692 -80.28173
34.50213 10.829796 -78.253006
33.954445 8.750816 -76.25831
33.137993 6.703835 -74.23581
32.42388 4.499825 -71.6192
31.858208 2.323341 -68.495735
31.364922 0.330452 -65.171234
31.02105 -1.48336 -61.98526
31.021065 -1.48336 -61.985264
30.83709 -3.340218 -58.979744
30.78579 -5.58033 -55.45224
30.78579 -5.58033 -55.452248
30.597694 -7.471199 -51.635155
29.661247 -8.071983 -47.979397
29.661278 -8.071953 -47.979412
28.017448 -8.180473 -43.535847
25.690498 -8.389381 -37.654053
25.690483 -8.389397 -37.65406
22.425957 -9.38546 -29.182344
17.824562 -11.065514 -18.68609
17.824577 -11.065514 -18.686108
13.455681 -12.389366 -8.671443
10.916954 -13.193153 -1.260696
10.916954 -13.193169 -1.260705
10.06591 -14.344841 4.174179
40.59838 26.370506 -92.9661
39.573402 24.731209 -91.606224
38.50889 23.034355 -90.27716
38.508873 23.034355 -90.27716
37.480232 21.192543 -88.55158
36.565727 19.275505 -86.50149
35.756905 17.278664 -84.37788
35.21525 15.232185 -82.21469
34.974693 13.193275 -80.02294
34.5328 11.063148 -77.997734
33.986824 8.991234 -76.00991
33.173073 6.955421 -73.99915
32.463066 4.767616 -71.401764
31.901451 2.607079 -68.299576
31.410515 0.622307 -64.988846
31.066795 -1.188332 -61.805267
31.066795 -1.188332 -61.805275
30.880272 -3.044823 -58.797997
30.820274 -5.286903 -55.26678
30.82029 -5.286888 -55.26679
30.62156 -7.157173 -51.44375
29.703209 -7.736076 -47.84798
29.70324 -7.736061 -47.847992
28.07862 -7.825874 -43.4565
25.756645 -8.01664 -37.58441
25.756645 -8.01664 -37.58442
22.49192 -9.033745 -29.126818
17.901802 -10.720818 -18.637703
17.901802 -10.720818 -18.63772
13.533363 -12.019997 -8.591319
10.96151 -12.871468 -1.159889
10.96151 -12.871483 -1.159897
10.065926 -14.344826 4.17418
43.627693 26.651573 -93.878654
43.62771 26.651573 -93.87865
40.598366 26.370506 -92.96609
40.674248 26.579231 -92.70428
39.573387 24.731194 -91.60622
39.649345 24.94001 -91.3444
38.508873 23.034325 -90.27715
38.585335 23.244545 -90.013756
38.508858 23.034325 -90.27715
38.58532 23.24456 -90.013756
37.480217 21.192497 -88.551575
37.557106 21.403831 -88.287254
36.565712 19.275475 -86.50148
36.64283 19.487312 -86.23745
35.756905 17.278648 -84.37787
35.834373 17.491356 -84.11463
35.215233 15.23217 -82.21469
35.29325 15.446465 -81.952866
34.974678 13.193275 -80.02294
35.053474 13.41024 -79.76356
34.53277 11.063148 -77.99773
34.61268 11.284554 -77.74251
33.98681 8.991219 -76.00991
34.068413 9.219719 -75.76158
33.173073 6.955421 -73.999146
33.25733 7.194954 -73.76245
32.463036 4.767616 -71.40176
32.551308 5.023079 -71.18393
31.901436 2.607063 -68.29957
31.99392 2.878304 -68.10283
31.410515 0.622307 -64.98884
31.505318 0.902077 -64.80651
31.162407 -0.904671 -61.626545
31.066795 -1.188332 -61.80527
31.162407 -0.904655 -61.62655
30.880272 -3.044823 -58.797993
30.975029 -2.76017 -58.618298
30.820274 -5.286903 -55.266773
30.910927 -5.003624 -55.08306
30.820274 -5.286888 -55.26678
30.910927 -5.003609 -55.08307
30.62156 -7.157173 -51.443745
30.71505 -6.854958 -51.250362
29.703209 -7.736076 -47.847977
29.81974 -7.418968 -47.703613
29.70324 -7.736061 -47.84799
29.81977 -7.418938 -47.703625
28.078606 -7.82589 -43.456497
28.21685 -7.496025 -43.353138
25.75663 -8.016655 -37.584408
25.907997 -7.673622 -37.480904
25.75663 -8.016655 -37.58442
25.907982 -7.673637 -37.48091
22.49192 -9.03376 -29.126816
22.644936 -8.713249 -29.034182
18.059563 -10.403282 -18.556684
18.059578 -10.403267 -18.556702
13.533348 -12.019997 -8.59132
13.675621 -11.673256 -8.47986
10.961494 -12.871483 -1.159889
11.043098 -12.569786 -1.025182
10.961494 -12.871498 -1.159898
11.043098 -12.569801 -1.02519
43.627678 26.651573 -93.87865
40.794075 26.763832 -92.44076
39.7694 25.125069 -91.081215
38.70649 23.431374 -89.74945
37.679344 21.592445 -88.02278
36.765892 19.677559 -85.97436
35.958305 17.683784 -83.85361
35.418297 15.642006 -81.694695
35.179726 13.60984 -79.50908
34.740242 11.48922 -77.49275
34.19764 9.431404 -75.518616
33.389137 7.417381 -73.53075
32.686943 5.260796 -70.97036
32.133705 3.131264 -67.9097
31.647423 1.16378 -64.628136
31.30561 -0.638435 -61.4529
31.305626 -0.638435 -61.452908
31.117775 -2.492302 -58.44452
31.05088 -4.736488 -54.905426
31.05088 -4.736488 -54.90543
30.863396 -6.570442 -51.0609
29.989403 -7.124947 -47.554066
29.989418 -7.124916 -47.554077
28.405052 -7.193382 -43.23647
26.104668 -7.359276 -37.361294
26.104637 -7.359291 -37.361305
22.83442 -8.418877 -28.926292
18.26101 -10.111168 -18.458073
18.261024 -10.111168 -18.45809
13.871758 -11.355232 -8.34269
11.158592 -12.294579 -0.860638
11.158592 -12.294609 -0.860646
40.95527 26.920387 -92.18124
39.93107 25.282448 -90.82233
38.86979 23.590858 -89.489944
38.869774 23.590843 -89.48995
37.84429 21.754402 -87.76389
36.932167 19.842201 -85.71788
36.12606 17.851952 -83.600426
35.587654 15.814766 -81.44571
35.3507 13.787941 -79.26497
34.91259 11.672844 -77.25377
34.371635 9.621819 -75.286194
33.56559 7.617989 -73.309006
32.86695 5.475746 -70.76563
32.31768 3.360603 -67.72435
31.833672 1.401909 -64.45759
31.493355 -0.395317 -61.288116
31.493355 -0.395302 -61.28812
31.305458 -2.247063 -58.28046
31.23658 -4.491692 -54.73801
31.23658 -4.491676 -54.73802
31.06089 -6.310493 -50.880543
30.203331 -6.85955 -47.404266
30.203362 -6.85952 -47.404278
28.633217 -6.92263 -43.11099
26.340004 -7.079247 -37.22882
26.340004 -7.079262 -37.228832
23.05825 -8.157509 -28.804588
18.504723 -9.852455 -18.342896
18.504723 -9.852455 -18.342913
14.119011 -11.074226 -8.182258
11.305641 -12.052254 -0.669855
11.305641 -12.052284 -0.669864
41.154366 27.045647 -91.931175
40.130836 25.40879 -90.57328
39.071724 23.719536 -89.240776
39.071724 23.719551 -89.240776
38.04844 21.886269 -87.516106
37.138145 19.977837 -85.47347
36.334007 17.992317 -83.36042
35.79772 15.961037 -81.21117
35.562675 13.940666 -79.03638
35.126076 11.83152 -77.03064
34.586662 9.786873 -75.069244
33.782906 7.792458 -73.10199
33.087532 5.663338 -70.57413
32.542015 3.561455 -67.550705
32.060143 1.611366 -64.298454
31.721672 -0.180489 -61.13567
31.721672 -0.180473 -61.13568
31.534462 -2.029976 -58.129757
31.46505 -4.275352 -54.58497
31.46505 -4.275352 -54.584972
31.305412 -6.082603 -50.714325
30.45829 -6.628792 -47.257977
30.45832 -6.628761 -47.257988
28.897118 -6.688622 -42.97927
26.610512 -6.838371 -37.085396
26.610497 -6.838371 -37.085403
23.31585 -7.935768 -28.669762
18.78991 -9.635674 -18.212023
18.789925 -9.635658 -18.21204
14.412971 -10.837547 -8.001889
11.480598 -11.847542 -0.457511
11.480583 -11.847572 -0.45752
41.15435 27.045647 -91.931175
41.38714 27.136894 -91.69591
40.130836 25.408775 -90.57328
40.364525 25.501442 -90.33931
39.30799 23.814796 -89.00719
38.04844 21.886269 -87.5161
38.28739 21.985252 -87.28461
37.138145 19.977837 -85.473465
37.37937 20.081535 -85.24626
36.334007 17.992302 -83.36041
36.577675 18.10186 -83.138664
35.79772 15.961006 -81.21117
36.043938 16.077705 -80.996025
35.562675 13.940651 -79.03638
35.811134 14.064857 -78.8281
35.126076 11.831505 -77.03064
35.376076 11.961891 -76.82808
34.586647 9.786858 -75.069244
34.83808 9.923119 -74.87241
33.78289 7.792442 -73.10198
34.036385 7.937141 -72.91405
33.087517 5.663322 -70.57412
33.34388 5.819603 -70.399826
32.542 3.56144 -67.5507
32.80181 3.729561 -67.392395
32.060127 1.611366 -64.29845
32.32186 1.787804 -64.15407
31.721657 -0.180504 -61.135666
31.985603 0.001472 -60.9988
31.721657 -0.180489 -61.135674
31.985619 0.001503 -60.998806
31.534416 -2.029976 -58.129753
31.799782 -1.845818 -57.995785
31.46502 -4.275368 -54.58497
31.731468 -4.093071 -54.45022
31.46502 -4.275368 -54.584972
31.731468 -4.093056 -54.450226
31.305397 -6.082619 -50.714325
31.59208 -5.893745 -50.567307
30.45829 -6.628807 -47.257973
30.749046 -6.43821 -47.11906
30.45832 -6.628777 -47.257984
30.749092 -6.438164 -47.119072
28.897118 -6.688637 -42.979267
29.191063 -6.495399 -42.844276
26.610512 -6.838371 -37.085392
26.9096 -6.640312 -36.93425
26.909584 -6.640327 -36.93426
23.31585 -7.935768 -28.66976
23.599342 -7.756111 -28.52558
19.107338 -9.463417 -18.069616
18.789925 -9.635674 -18.212038
19.107353 -9.463417 -18.069633
14.745415 -10.649437 -7.806441
11.480583 -11.847557 -0.457512
11.678658 -11.683342 -0.228905
11.678658 -11.683357 -0.228913
41.64872 27.1921 -91.48047
40.627113 25.558388 -90.12545
39.573616 23.874489 -88.794266
39.57363 23.874474 -88.794266
38.55619 22.04911 -87.07447
37.65087 20.150932 -85.041214
36.852043 18.178123 -82.940025
36.32125 16.16227 -80.80499
36.090935 14.157784 -78.64473
35.65748 12.061104 -76.65053
35.12075 10.02758 -74.69995
34.320824 8.048851 -72.74923
33.630745 5.941093 -70.246544
33.09176 3.861168 -67.25292
32.613503 1.927315 -64.02759
32.27973 0.146629 -60.88052
32.279716 0.146629 -60.880527
32.095802 -1.698784 -57.88156
32.02961 -3.949272 -54.33706
32.02961 -3.949272 -54.337067
31.913338 -5.748878 -50.44357
31.06887 -6.29113 -46.99079
31.068901 -6.2911 -46.990807
29.508995 -6.345055 -42.708633
27.231407 -6.486198 -36.77806
27.231392 -6.486214 -36.77807
23.902336 -7.617699 -28.374895
19.4486 -9.335197 -17.91921
19.448616 -9.335197 -17.919228
15.107582 -10.511925 -7.60058
11.895226 -11.561653 0.011106
11.895226 -11.561668 0.011097
41.933342 27.210197 -91.289406
40.91297 25.578453 -89.936226
39.8628 23.897377 -88.60643
39.862785 23.897392 -88.60643
38.8489 22.07653 -86.890076
37.946663 20.184624 -84.86261
37.15104 18.219566 -82.76861
36.623558 16.212944 -80.64202
36.395958 14.217491 -78.49007
35.96409 12.127068 -76.501686
35.428413 10.098061 -74.555435
34.62995 8.125267 -72.61096
33.94178 6.025291 -70.117455
33.405388 3.95359 -67.13513
32.928658 2.027 -63.921593
32.59748 0.251808 -60.78328
32.59748 0.251823 -60.783283
32.41575 -1.592125 -57.789604
32.35212 -3.847511 -54.248352
32.352135 -3.847527 -54.24836
32.26043 -5.652077 -50.346634
31.410347 -6.190804 -46.876083
31.410378 -6.190773 -46.8761
29.844887 -6.239922 -42.57481
27.570198 -6.378319 -36.619457
27.570198 -6.378334 -36.619465
24.219948 -7.523781 -28.22011
19.807198 -9.254738 -17.763674
19.807213 -9.254723 -17.76369
15.491371 -10.427925 -7.388697
12.125877 -11.484398 0.257886
12.125862 -11.484413 0.257877
42.235176 27.190727 -91.12693
41.216057 25.561134 -89.77572
40.169502 23.882942 -88.44779
40.169487 23.882957 -88.447784
39.159508 22.066948 -86.73544
38.26066 20.181877 -84.71438
37.46856 18.225273 -82.628174
36.944603 16.2286 -80.51068
36.719826 14.242714 -78.36752
36.289513 12.158363 -76.384834
35.754753 10.132957 -74.44207
34.95739 8.164696 -72.502335
34.27056 6.070335 -70.01542
33.73629 4.004738 -67.041695
33.26075 2.084648 -63.83854
32.932304 0.314751 -60.709286
32.93232 0.314766 -60.709297
32.75277 -1.528206 -57.721973
32.691322 -3.790169 -54.186172
32.691322 -3.790169 -54.18618
32.624 -5.605766 -50.278934
31.766106 -6.139442 -46.777275
31.76612 -6.139412 -46.77729
30.193031 -6.18232 -42.44509
27.920998 -6.319389 -36.46096
27.920982 -6.319389 -36.46097
24.547508 -7.476875 -28.06368
20.176445 -9.224312 -17.605993
20.176445 -9.224312 -17.60601
15.888741 -10.399422 -7.175192
12.366219 -11.452522 0.506826
12.366219 -11.452538 0.506817
42.547585 27.134132 -90.99634
41.529854 25.506783 -89.647316
40.487083 23.83152 -88.32163
39.481194 22.020592 -86.613716
38.585976 20.142815 -84.599495
37.7976 18.195107 -82.52161
37.277367 16.2089 -80.41369
37.055565 14.232948 -78.27954
36.626717 12.154427 -76.30225
36.092598 10.131676 -74.36207
35.29595 8.166374 -72.42549
34.609917 6.075371 -69.942505
34.077156 4.013649 -66.97448
33.602562 2.099144 -63.780033
33.276802 0.334251 -60.659996
33.276817 0.334251 -60.66
33.09919 -1.508171 -57.679977
33.03875 -3.778038 -54.151623
33.03875 -3.778023 -54.151627
32.99415 -5.61013 -50.24139
32.12812 -6.137962 -46.695896
32.12815 -6.137932 -46.695908
30.547127 -6.173927 -42.321632
28.2779 -6.31144 -36.3054
28.2779 -6.31147 -36.305412
24.87931 -7.478386 -27.908468
20.548683 -9.24424 -17.449352
20.548698 -9.244225 -17.44937
16.291084 -10.426399 -6.964524
12.611534 -11.466164 0.75334
12.611534 -11.466179 0.753332
42.547585 27.134132 -90.99633
42.86396 27.041634 -90.900475
41.847725 25.416649 -89.553764
40.4871 23.83152 -88.32163
40.808907 23.744194 -88.23076
40.80889 23.744194 -88.23074
39.48121 22.020576 -86.613716
39.807274 21.938362 -86.527664
38.58599 20.1428 -84.599495
38.91578 20.068169 -84.52059
37.797585 18.195107 -82.5216
38.131233 18.129768 -82.45131
37.614845 16.154274 -80.3532
37.396034 14.188255 -78.228165
36.968575 12.115196 -76.25591
36.434837 10.094139 -74.31737
35.638527 8.130165 -72.38225
34.609917 6.075356 -69.942505
34.952675 6.040169 -69.90036
34.077156 4.013634 -66.97448
34.420815 3.980034 -66.93501
33.602562 2.099129 -63.780033
33.946907 2.070015 -63.747448
33.62374 0.309731 -60.63654
33.276802 0.334251 -60.66
33.62374 0.309731 -60.636547
33.099174 -1.508171 -57.679977
33.447533 -1.532417 -57.664497
33.03875 -3.778038 -54.151615
33.386482 -3.810631 -54.145035
33.386482 -3.810631 -54.145046
32.99415 -5.61013 -50.241386
33.36167 -5.663551 -50.233788
32.128105 -6.137962 -46.695892
32.4887 -6.185982 -46.632954
32.12815 -6.137932 -46.695904
32.48873 -6.185951 -46.63297
30.547142 -6.173927 -42.321632
30.90078 -6.215401 -42.206566
28.2779 -6.31144 -36.305405
28.634666 -6.355476 -36.15563
28.2779 -6.31147 -36.305416
28.634666 -6.355492 -36.15564
24.879295 -7.478386 -27.908468
25.20951 -7.528923 -27.757336
20.916725 -9.313377 -17.29671
20.91674 -9.313362 -17.296728
16.291069 -10.426399 -6.964525
16.690178 -10.507286 -6.760737
12.611534 -11.466164 0.753339
12.857368 -11.525963 0.992865
12.611534 -11.466179 0.753331
12.857353 -11.525978 0.992856
43.177605 26.915215 -90.84132
42.162865 25.292671 -89.49701
41.128 23.622917 -88.17695
41.128 23.622902 -88.17694
40.130653 21.822227 -86.47895
39.243004 19.95977 -84.47916
38.462364 18.030754 -82.41855
37.94982 16.066032 -80.33033
37.733955 14.109825 -78.2143
37.307777 12.041664 -76.24657
36.774223 10.021248 -74.30869
35.977867 8.05703 -72.37333
35.291603 5.965706 -69.88975
34.759987 3.904869 -66.92398
34.28643 1.998161 -63.741333
33.96569 0.241982 -60.639275
33.965675 0.241997 -60.639282
33.790337 -1.599968 -57.675617
33.726906 -3.886391 -54.165936
33.726906 -3.886391 -54.165943
33.718376 -5.762962 -50.254883
32.840492 -6.281944 -46.588852
32.840538 -6.281914 -46.588863
31.247276 -6.306496 -42.10185
28.984734 -6.451286 -36.01451
28.984734 -6.451302 -36.014523
25.532066 -7.627937 -27.61319
21.273705 -9.429543 -17.15084
21.27372 -9.429543 -17.150858
17.078484 -10.638924 -6.567587
13.099098 -11.630699 1.220913
13.099083 -11.630714 1.220905
43.481865 26.757545 -90.82025
42.46859 25.137459 -89.478325
41.437614 23.470146 -88.161476
41.4376 23.470146 -88.16147
40.444527 21.67443 -86.46874
39.560677 19.819695 -84.47621
38.783943 17.900002 -82.42426
38.275154 15.945839 -80.345825
38.062126 13.999107 -78.23848
37.637047 11.935265 -76.274666
37.1034 9.914497 -74.3364
36.306618 7.948387 -72.3991
35.619377 5.853355 -69.91103
35.087425 3.789482 -66.94175
34.6139 1.884895 -63.76193
34.29531 0.132362 -60.66823
34.295326 0.132393 -60.668232
34.120323 -1.709251 -57.713013
34.053 -4.0028 -54.213253
34.053 -4.0028 -54.21326
34.057472 -5.904305 -50.30279
33.176872 -6.423164 -46.56365
33.176918 -6.423134 -46.56366
31.58007 -6.445869 -42.009388
29.321419 -6.597847 -35.88497
29.321388 -6.597862 -35.884975
25.840858 -7.774193 -27.478949
21.613045 -9.590492 -17.014332
21.61306 -9.590477 -17.014349
17.449043 -10.818123 -6.388381
13.332359 -11.778038 1.433425
13.332359 -11.778069 1.433417
10.065895 -14.344841 4.17418
43.77018 26.571983 -90.83768
42.758354 24.954277 -89.49809
41.731133 23.289177 -88.18465
41.731148 23.289177 -88.18464
40.742165 21.49813 -86.49722
39.862022 19.650917 -84.51178
39.089058 17.740273 -82.46822
38.58393 15.796333 -80.399185
38.373573 13.858543 -78.30002
37.94941 11.798271 -76.33948
37.41543 9.776115 -74.39985
36.61779 7.806541 -72.458954
35.92904 5.705528 -69.963715
35.396065 3.636391 -66.98786
34.922295 1.732597 -63.808743
34.60563 -0.016823 -60.72273
34.605644 -0.016808 -60.72274
34.430565 -1.857811 -57.775764
34.35839 -4.156868 -54.28557
34.35839 -4.156853 -54.28558
34.37298 -6.083504 -50.37555
33.4916 -6.60659 -46.55734
33.49163 -6.60656 -46.55735
31.89257 -6.631355 -41.93095
29.637901 -6.793129 -35.76966
29.637901 -6.793144 -35.769672
26.129723 -7.965553 -27.35732
21.928673 -9.793175 -16.889585
21.928673 -9.793175 -16.889603
17.795326 -11.041405 -6.22635
13.552483 -11.966133 1.625841
13.552483 -11.966148 1.625832
43.627693 26.651588 -93.87865
44.036415 26.362495 -90.89322
43.02601 24.747078 -89.55589
42.00231 23.083916 -88.24597
42.002296 23.0839 -88.24597
41.01722 21.297218 -86.56381
40.140602 19.457146 -84.58518
39.37124 17.555107 -82.54957
38.869514 15.620735 -80.48933
38.661644 13.691185 -78.39769
38.238182 11.633659 -76.43971
37.703636 9.609108 -74.49774
36.904793 7.63456 -72.55161
36.213966 5.525429 -70.04669
35.67939 3.448921 -67.0614
35.205025 1.544609 -63.88084
34.890053 -0.202339 -60.801636
34.890083 -0.202309 -60.801643
34.71473 -2.042412 -57.86244
34.637398 -4.345024 -54.381073
34.637398 -4.345009 -54.381077
34.66012 -6.296257 -50.471016
33.779 -6.828606 -46.569824
33.77903 -6.828575 -46.569836
32.178337 -6.859886 -41.86824
29.927483 -7.033897 -35.671135
29.927467 -7.033897 -35.671143
26.392632 -8.198936 -27.250938
22.215157 -10.033821 -16.778702
22.215172 -10.033806 -16.778719
18.1119 -11.304741 -6.084249
13.754875 -12.192955 1.793503
13.754875 -12.19297 1.793495
10.065895 -14.344826 4.174179
44.0364 26.362495 -90.89322
44.27491 26.133507 -90.98562
43.025993 24.747078 -89.55589
43.265846 24.52024 -89.65045
42.002327 23.083916 -88.24597
42.245415 22.858696 -88.344055
42.00231 23.0839 -88.24597
42.245415 22.85868 -88.34406
41.26391 21.075905 -86.667
40.39057 19.242455 -84.69472
39.371254 17.555107 -82.54956
39.62452 17.348366 -82.66644
38.86953 15.620735 -80.48932
39.125954 15.422798 -80.61426
38.661644 13.691185 -78.39768
38.92025 13.500557 -78.52932
38.238182 11.633659 -76.439705
38.497322 11.444969 -76.57309
37.961952 9.417046 -74.62786
36.904793 7.634544 -72.55161
37.161583 7.436073 -72.67502
36.468147 5.316872 -70.15814
35.679375 3.448921 -67.0614
35.93142 3.231056 -67.16072
35.205025 1.544594 -63.88084
35.45623 1.324944 -63.976574
34.890068 -0.202339 -60.801636
35.142677 -0.420143 -60.903156
35.142677 -0.420143 -60.903168
34.714714 -2.042412 -57.862434
34.96702 -2.259041 -57.971104
34.637398 -4.345024 -54.381065
34.88497 -4.563255 -54.4976
34.637398 -4.345024 -54.381077
34.884987 -4.56324 -54.497612
34.660103 -6.296272 -50.471012
34.91468 -6.538139 -50.586987
33.778984 -6.828606 -46.56982
34.03376 -7.084999 -46.600945
33.779015 -6.82856 -46.569836
34.033775 -7.084969 -46.600956
32.178337 -6.859871 -41.868244
32.4311 -7.127449 -41.822876
29.927467 -7.033897 -35.671135
30.18354 -7.315987 -35.591747
30.183525 -7.315987 -35.591755
26.623833 -8.470192 -27.162325
22.467445 -10.307991 -16.683647
22.215157 -10.033821 -16.778719
22.46746 -10.307976 -16.683664
18.1119 -11.304756 -6.084249
18.392784 -11.603294 -5.965286
13.932976 -12.455406 1.929712
13.932976 -12.455437 1.929703
43.627693 26.651558 -93.87864
44.480583 25.889961 -91.11298
43.472725 24.278664 -89.77977
42.455193 22.61837 -88.47688
42.455193 22.618355 -88.47688
41.47692 20.838982 -86.80461
40.60656 19.011467 -84.83808
39.843468 17.124504 -82.81641
39.34762 15.206703 -80.77135
39.143852 13.290718 -78.69212
38.7212 11.236168 -76.73682
38.184776 9.204002 -74.787476
37.38256 7.215385 -72.82662
36.686134 5.084358 -70.29569
36.14675 2.987465 -67.28373
35.670357 1.0783 -64.09396
35.35798 -0.665688 -61.025208
35.35801 -0.665657 -61.02521
35.182213 -2.503197 -58.099537
35.09675 -4.807137 -54.632835
35.09675 -4.807121 -54.63284
35.133217 -6.804619 -50.721306
34.25112 -7.370979 -46.650387
34.251152 -7.370964 -46.650402
32.645058 -7.428993 -41.7961
30.40017 -7.633904 -35.533394
30.400139 -7.633919 -35.533405
26.8171 -8.775246 -27.094429
22.679482 -10.612404 -16.6074
22.679512 -10.612404 -16.607418
18.630974 -11.936104 -5.8749
14.077904 -12.757576 2.023424
14.077904 -12.757607 2.023416
44.6491 25.637032 -91.27262
43.642296 24.027428 -89.94112
42.627205 22.367958 -88.641655
42.62719 22.367943 -88.641655
41.651695 20.591377 -86.97381
40.783897 18.769081 -85.01231
40.02337 16.888283 -82.99632
39.529884 14.977043 -80.95732
39.327614 13.066093 -78.88274
38.905006 11.01165 -76.92752
38.36738 8.97448 -74.97331
37.563057 6.977135 -73.00326
36.86326 4.832802 -70.45649
36.320778 2.723274 -67.42785
35.842888 0.809853 -64.230576
35.531487 -0.933708 -61.16524
35.5315 -0.933708 -61.16525
35.355995 -2.769783 -58.245094
35.268898 -5.071983 -54.784145
35.268898 -5.071983 -54.78415
35.312523 -7.091209 -50.871773
34.426765 -7.681175 -46.717686
34.426796 -7.681145 -46.717697
32.814964 -7.75843 -41.78898
30.571724 -7.981224 -35.497776
30.571724 -7.981224 -35.497784
26.967964 -9.107033 -27.048811
22.844566 -10.941185 -16.552773
22.844597 -10.941154 -16.552792
18.816277 -12.29586 -5.817775
14.18409 -13.086433 2.071578
14.184105 -13.086449 2.071569
44.77688 25.380241 -91.46088
43.770958 23.772118 -90.130775
42.75779 22.112923 -88.83468
42.757774 22.112923 -88.83468
41.784523 20.338463 -87.1709
40.91886 18.520485 -85.2136
40.16044 16.644722 -83.202255
39.66886 14.738762 -81.1681
39.46772 12.831581 -79.09698
39.0449 10.776299 -77.14101
38.505913 8.733437 -75.181274
37.69921 6.726418 -73.201065
36.995735 4.567574 -70.63704
36.449806 2.44413 -67.58995
35.970177 0.525368 -64.38336
35.659523 -1.218575 -61.320187
35.65954 -1.218575 -61.320198
35.484764 -3.053291 -58.404724
35.398186 -5.352882 -54.94873
35.398186 -5.352882 -54.948734
35.44967 -7.393242 -51.036198
34.5568 -8.009697 -46.802216
34.55683 -8.009666 -46.80223
32.935936 -8.108788 -41.80238
30.692818 -8.350639 -35.486458
30.692818 -8.35067 -35.48647
27.076942 -9.456505 -27.02385
22.959068 -11.285789 -16.520031
22.959084 -11.285789 -16.52005
18.93911 -12.670296 -5.793469
14.258522 -13.419594 2.088542
14.258522 -13.419609 2.088534
44.861412 25.125862 -91.67284
43.85636 23.519295 -90.34338
42.844322 21.8592 -89.05133
41.872536 20.085594 -87.39171
41.008522 18.270912 -85.437744
40.2517 16.398994 -83.42993
39.761497 14.49691 -81.39931
39.56109 12.592125 -79.33036
39.13787 10.535118 -77.37278
38.59739 8.485954 -75.406975
37.788185 6.468529 -73.41586
37.080788 4.294289 -70.83355
36.53106 2.156029 -67.766655
36.04943 0.230919 -64.549164
35.73928 -1.514259 -61.486855
35.739265 -1.514229 -61.48686
35.565758 -3.347954 -58.575245
35.482033 -5.644569 -55.12365
35.482033 -5.644569 -55.123653
35.541954 -7.705925 -51.212307
34.637993 -8.350014 -46.903
34.63804 -8.349983 -46.90301
33.004433 -8.47213 -41.83652
30.759407 -8.733727 -35.500263
30.759392 -8.733742 -35.50027
27.141823 -9.817909 -27.01953
23.020378 -11.640953 -16.50952
23.020393 -11.640953 -16.509537
18.998543 -13.054192 -5.799294
14.309807 -13.757484 2.084999
14.309807 -13.757515 2.084991
44.902138 24.882484 -91.8999
43.898323 23.278862 -90.56869
42.885704 21.614098 -89.28458
42.88569 21.614082 -89.284584
41.91398 19.83828 -87.63135
41.051064 18.025703 -85.679855
40.295296 16.15635 -83.67439
39.805946 14.25663 -81.645966
39.605827 12.352776 -79.57788
39.181953 10.293221 -77.61789
38.639854 8.237373 -75.6456
37.828026 6.209053 -73.64304
37.116646 4.018822 -71.04176
36.562935 1.865059 -67.95415
36.07914 -0.067223 -64.72444
35.769157 -1.81443 -61.661655
35.769173 -1.81443 -61.661663
35.597313 -3.647575 -58.75306
35.518364 -5.941521 -55.30562
35.51838 -5.941521 -55.305626
35.586754 -8.024223 -51.397606
34.668083 -8.695274 -47.018574
34.66813 -8.695229 -47.01859
33.0187 -8.839806 -41.890736
30.770287 -9.120491 -35.53847
30.770271 -9.120506 -35.538475
27.15429 -10.183311 -27.039257
23.025047 -11.99926 -16.522966
23.025047 -11.999245 -16.522984
19.002449 -13.438896 -5.833184
14.333138 -14.096107 2.054306
14.333138 -14.096123 2.054298
44.90217 24.8825 -91.8999
44.900764 24.653831 -92.13725
43.89834 23.278877 -90.568695
43.899635 23.053764 -90.80187
42.88572 21.614113 -89.28459
42.88247 21.381874 -89.52946
42.885704 21.614098 -89.28459
42.882454 21.38189 -89.529465
41.913994 19.838295 -87.63136
41.90792 19.601723 -87.88479
41.051064 18.025719 -85.679855
41.04548 17.790138 -85.93484
40.295296 16.15638 -83.6744
40.2902 15.921989 -83.93049
39.805946 14.256645 -81.645966
39.80111 14.023064 -81.90282
39.60087 12.118721 -79.83429
39.18197 10.293221 -77.61789
39.17614 10.055779 -77.87114
38.63987 8.237373 -75.6456
38.63233 7.992943 -75.892075
37.82804 6.209068 -73.64304
37.817802 5.953514 -73.87781
37.11666 4.018822 -71.04176
37.102364 3.747047 -71.25726
36.56295 1.865059 -67.954155
36.544624 1.577431 -68.14848
36.079155 -0.067207 -64.72445
36.05851 -0.362694 -64.90547
35.769157 -1.814415 -61.661655
35.748375 -2.112755 -61.840897
35.769157 -1.814415 -61.661663
35.748405 -2.112755 -61.840904
35.597298 -3.647575 -58.753056
35.57847 -3.946068 -58.934586
35.518364 -5.941505 -55.305622
35.50579 -6.238411 -55.491554
35.518364 -5.941505 -55.30563
35.50579 -6.238411 -55.491558
35.58674 -8.024208 -51.397606
35.581566 -8.34362 -51.589783
34.668114 -8.695259 -47.018574
34.645287 -9.039436 -47.147545
34.668144 -8.695229 -47.01859
34.645317 -9.039421 -47.147556
33.018715 -8.83979 -41.890736
32.977943 -9.204491 -41.96428
30.770302 -9.120491 -35.53847
30.724998 -9.50341 -35.600456
30.770287 -9.120506 -35.538475
30.724998 -9.503426 -35.600468
27.154305 -10.183311 -27.039255
27.1101 -10.544991 -27.08466
23.025063 -11.99926 -16.522966
22.973198 -12.353828 -16.560244
23.025093 -11.999229 -16.522984
22.973228 -12.353828 -16.560263
19.002464 -13.438896 -5.833184
18.956963 -13.819283 -5.89358
14.333138 -14.096092 2.054307
14.322899 -14.430336 1.989373
14.322884 -14.430351 1.989365
POLYGONS 2211 8844
3 0 1 2
3 2 1 3
3 2 3 4
3 4 3 5
3 4 5 6
3 6 5 7
3 8 9 10
3 10 9 11
3 10 11 12
3 12 11 13
3 12 13 14
3 14 13 15
3 14 15 16
3 16 15 17
3 16 17 18
3 18 17 19
3 18 19 20
3 20 19 21
3 20 21 22
3 22 21 23
3 22 23 24
3 24 23 25
3 24 25 26
3 26 25 27
3 26 27 28
3 28 27 29
3 28 29 30
3 30 29 31
3 30 31 32
3 32 31 33
3 34 35 36
3 36 35 37
3 36 37 38
3 38 37 39
3 40 41 42
3 42 41 43
3 42 43 44
3 44 43 45
3 46 47 48
3 48 47 49
3 48 49 50
3 50 49 51
3 52 53 54
3 54 53 55
3 54 55 56
3 56 55 57
3 58 59 60
3 60 59 61
3 60 61 62
3 62 61 63
3 64 65 66
3 1 0 3
3 3 0 67
3 3 67 5
3 5 67 68
3 5 68 7
3 7 68 69
3 9 69 11
3 11 69 70
3 11 70 13
3 13 70 71
3 13 71 15
3 15 71 72
3 15 72 17
3 17 72 73
3 17 73 19
3 19 73 74
3 19 74 21
3 21 74 75
3 21 75 23
3 23 75 76
3 23 76 25
3 25 76 77
3 25 77 27
3 27 77 78
3 27 78 29
3 29 78 79
3 29 79 31
3 31 79 80
3 31 80 33
3 33 80 81
3 35 82 37
3 37 82 83
3 37 83 39
3 39 83 84
3 41 85 43
3 43 85 86
3 43 86 45
3 45 86 87
3 47 88 49
3 49 88 89
3 49 89 51
3 51 89 90
3 53 91 55
3 55 91 92
3 55 92 57
3 57 92 93
3 59 94 61
3 61 94 95
3 61 95 63
3 63 95 96
3 65 97 66
3 0 98 67
3 67 98 99
3 67 99 68
3 68 99 100
3 68 100 69
3 69 100 101
3 69 102 70
3 70 102 103
3 70 103 71
3 71 103 104
3 71 104 72
3 72 104 105
3 72 105 73
3 73 105 106
3 73 106 74
3 74 106 107
3 74 107 75
3 75 107 108
3 75 108 76
3 76 108 109
3 76 109 77
3 77 109 110
3 77 110 78
3 78 110 111
3 78 111 79
3 79 111 112
3 79 112 80
3 80 112 113
3 80 113 81
3 81 113 114
3 82 115 83
3 83 115 116
3 83 116 84
3 84 116 117
3 85 118 86
3 86 118 119
3 86 119 87
3 87 119 120
3 88 121 89
3 89 121 122
3 89 122 90
3 90 122 123
3 91 124 92
3 92 124 125
3 92 125 93
3 93 125 126
3 94 127 95
3 95 127 128
3 95 128 96
3 96 128 129
3 97 130 66
3 66 130 131
3 98 0 99
3 99 0 132
3 99 132 100
3 100 132 133
3 100 133 101
3 101 133 134
3 102 135 103
3 103 135 136
3 103 136 104
3 104 136 137
3 104 137 105
3 105 137 138
3 105 138 106
3 106 138 139
3 106 139 107
3 107 139 140
3 107 140 108
3 108 140 141
3 108 141 109
3 109 141 142
3 109 142 110
3 110 142 143
3 110 143 111
3 111 143 144
3 111 144 112
3 112 144 145
3 112 145 113
3 113 145 146
3 113 146 114
3 114 146 147
3 115 148 116
3 116 148 149
3 116 149 117
3 117 149 150
3 118 151 119
3 119 151 152
3 119 152 120
3 120 152 153
3 121 154 122
3 122 154 155
3 122 155 123
3 123 155 156
3 124 157 125
3 125 157 158
3 125 158 126
3 126 158 159
3 127 160 128
3 128 160 161
3 128 161 129
3 129 161 162
3 130 163 131
3 131 163 164
3 132 0 165
3 132 165 133
3 133 165 166
3 133 166 134
3 134 166 167
3 135 168 136
3 136 168 169
3 136 169 137
3 137 169 170
3 137 170 138
3 138 170 171
3 138 171 139
3 139 171 172
3 139 172 140
3 140 172 173
3 140 173 141
3 141 173 174
3 141 174 142
3 142 174 175
3 142 175 143
3 143 175 176
3 143 176 144
3 144 176 177
3 144 177 145
3 145 177 178
3 145 178 146
3 146 178 179
3 146 179 147
3 147 179 180
3 148 181 149
3 149 181 182
3 149 182 150
3 150 182 183
3 151 184 152
3 152 184 185
3 152 185 153
3 153 185 186
3 154 187 155
3 155 187 188
3 155 188 156
3 156 188 189
3 157 190 158
3 158 190 191
3 158 191 159
3 159 191 192
3 160 193 161
3 161 193 194
3 161 194 162
3 162 194 195
3 163 196 164
3 164 196 66
3 197 0 198
3 197 198 199
3 199 198 200
3 199 200 201
3 201 200 202
3 203 204 169
3 169 204 205
3 169 205 206
3 206 205 207
3 206 207 208
3 208 207 209
3 208 209 210
3 210 209 211
3 210 211 212
3 212 211 213
3 212 213 174
3 174 213 214
3 174 214 215
3 215 214 216
3 215 216 176
3 176 216 217
3 176 217 177
3 177 217 218
3 177 218 219
3 219 218 220
3 219 220 221
3 221 220 222
3 221 222 223
3 223 222 224
3 225 226 227
3 227 226 228
3 227 228 183
3 183 228 229
3 230 231 232
3 232 231 233
3 232 233 234
3 234 233 235
3 236 237 238
3 238 237 239
3 238 239 189
3 189 239 240
3 241 242 243
3 243 242 244
3 243 244 245
3 245 244 246
3 247 248 249
3 249 248 250
3 249 250 251
3 251 250 252
3 253 254 66
3 0 255 198
3 198 255 256
3 198 256 200
3 200 256 257
3 200 257 202
3 202 257 258
3 204 259 205
3 205 259 260
3 205 260 207
3 207 260 261
3 207 261 209
3 209 261 262
3 209 262 211
3 211 262 263
3 211 263 213
3 213 263 264
3 213 264 214
3 214 264 265
3 214 265 216
3 216 265 266
3 216 266 217
3 217 266 267
3 217 267 218
3 218 267 268
3 218 268 220
3 220 268 269
3 220 269 222
3 222 269 270
3 222 270 224
3 224 270 271
3 226 272 228
3 228 272 273
3 228 273 229
3 229 273 274
3 231 275 233
3 233 275 276
3 233 276 235
3 235 276 277
3 237 278 239
3 239 278 279
3 239 279 240
3 240 279 280
3 242 281 244
3 244 281 282
3 244 282 246
3 246 282 283
3 248 284 250
3 250 284 285
3 250 285 252
3 252 285 286
3 254 287 66
3 66 287 288
3 256 0 289
3 256 289 257
3 257 289 290
3 257 290 258
3 258 290 291
3 259 292 260
3 260 292 293
3 260 293 261
3 261 293 294
3 261 294 262
3 262 294 295
3 262 295 263
3 263 295 296
3 263 296 264
3 264 296 297
3 264 297 265
3 265 297 298
3 265 298 266
3 266 298 299
3 266 299 267
3 267 299 300
3 267 300 268
3 268 300 301
3 268 301 269
3 269 301 302
3 269 302 270
3 270 302 303
3 270 303 271
3 271 303 304
3 272 305 273
3 273 305 306
3 273 306 274
3 274 306 307
3 275 308 276
3 276 308 309
3 276 309 277
3 277 309 310
3 278 311 279
3 279 311 312
3 279 312 280
3 280 312 313
3 281 314 282
3 282 314 315
3 282 315 283
3 283 315 316
3 284 317 285
3 285 317 318
3 285 318 286
3 286 318 319
3 287 320 288
3 288 320 321
3 0 322 289
3 289 322 323
3 289 323 290
3 290 323 324
3 290 324 291
3 291 324 325
3 292 326 293
3 293 326 327
3 293 327 294
3 294 327 328
3 294 328 295
3 295 328 329
3 295 329 296
3 296 329 330
3 296 330 297
3 297 330 331
3 297 331 298
3 298 331 332
3 298 332 299
3 299 332 333
3 299 333 300
3 300 333 334
3 300 334 301
3 301 334 335
3 301 335 302
3 302 335 336
3 302 336 303
3 303 336 337
3 303 337 304
3 304 337 338
3 305 339 306
3 306 339 340
3 306 340 307
3 307 340 341
3 308 342 309
3 309 342 343
3 309 343 310
3 310 343 344
3 311 345 312
3 312 345 346
3 312 346 313
3 313 346 347
3 314 348 315
3 315 348 349
3 315 349 316
3 316 349 350
3 317 351 318
3 318 351 352
3 318 352 319
3 319 352 353
3 320 354 321
3 321 354 355
3 322 356 323
3 323 356 357
3 323 357 324
3 324 357 358
3 324 358 325
3 325 358 359
3 326 360 327
3 327 360 361
3 327 361 328
3 328 361 362
3 328 362 329
3 329 362 363
3 329 363 330
3 330 363 364
3 330 364 331
3 331 364 365
3 331 365 332
3 332 365 366
3 332 366 333
3 333 366 367
3 333 367 334
3 334 367 368
3 334 368 335
3 335 368 369
3 335 369 336
3 336 369 370
3 336 370 337
3 337 370 371
3 337 371 338
3 338 371 372
3 339 373 340
3 340 373 374
3 340 374 341
3 341 374 375
3 342 376 343
3 343 376 377
3 343 377 344
3 344 377 378
3 345 379 346
3 346 379 380
3 346 380 347
3 347 380 381
3 348 382 349
3 349 382 383
3 349 383 350
3 350 383 384
3 351 385 352
3 352 385 386
3 352 386 353
3 353 386 387
3 354 388 355
3 322 389 390
3 390 389 391
3 390 391 392
3 392 391 393
3 392 393 394
3 394 393 395
3 396 397 398
3 398 397 399
3 398 399 400
3 400 399 401
3 400 401 363
3 363 401 402
3 363 402 364
3 364 402 403
3 364 403 404
3 404 403 405
3 404 405 406
3 406 405 407
3 406 407 408
3 408 407 409
3 408 409 410
3 410 409 411
3 410 411 412
3 412 411 413
3 412 413 414
3 414 413 415
3 414 415 416
3 416 415 417
3 416 417 418
3 418 417 419
3 420 421 422
3 422 421 423
3 422 423 424
3 424 423 425
3 426 427 428
3 428 427 429
3 428 429 430
3 430 429 431
3 432 433 434
3 434 433 435
3 434 435 436
3 436 435 437
3 438 439 440
3 440 439 441
3 440 441 442
3 442 441 443
3 444 445 386
3 386 445 446
3 386 446 447
3 447 446 448
3 449 450 355
3 355 450 451
3 389 452 391
3 391 452 453
3 391 453 393
3 393 453 454
3 393 454 395
3 395 454 455
3 397 456 399
3 399 456 457
3 399 457 401
3 401 457 458
3 401 458 402
3 402 458 459
3 402 459 403
3 403 459 460
3 403 460 405
3 405 460 461
3 405 461 407
3 407 461 462
3 407 462 409
3 409 462 463
3 409 463 411
3 411 463 464
3 411 464 413
3 413 464 465
3 413 465 415
3 415 465 466
3 415 466 417
3 417 466 467
3 417 467 419
3 419 467 468
3 421 469 423
3 423 469 470
3 423 470 425
3 425 470 471
3 427 472 429
3 429 472 473
3 429 473 431
3 431 473 474
3 433 475 435
3 435 475 476
3 435 476 437
3 437 476 477
3 439 478 441
3 441 478 479
3 441 479 443
3 443 479 480
3 445 481 446
3 446 481 482
3 446 482 448
3 448 482 483
3 450 484 451
3 451 484 66
3 452 356 453
3 453 356 485
3 453 485 454
3 454 485 486
3 454 486 455
3 455 486 487
3 456 488 457
3 457 488 489
3 457 489 458
3 458 489 490
3 458 490 459
3 459 490 491
3 459 491 460
3 460 491 492
3 460 492 461
3 461 492 493
3 461 493 462
3 462 493 494
3 462 494 463
3 463 494 495
3 463 495 464
3 464 495 496
3 464 496 465
3 465 496 497
3 465 497 466
3 466 497 498
3 466 498 467
3 467 498 499
3 467 499 468
3 468 499 500
3 469 501 470
3 470 501 502
3 470 502 471
3 471 502 503
3 472 504 473
3 473 504 505
3 473 505 474
3 474 505 506
3 475 507 476
3 476 507 508
3 476 508 477
3 477 508 509
3 478 510 479
3 479 510 511
3 479 511 480
3 480 511 512
3 481 513 482
3 482 513 514
3 482 514 483
3 483 514 515
3 484 516 66
3 66 516 355
3 517 518 519
3 519 518 520
3 519 520 521
3 521 520 522
3 521 522 523
3 523 522 524
3 525 524 526
3 526 524 527
3 526 527 528
3 528 527 529
3 528 529 530
3 530 529 531
3 530 531 532
3 532 531 533
3 532 533 534
3 534 533 535
3 534 535 536
3 536 535 537
3 536 537 538
3 538 537 539
3 538 539 540
3 540 539 541
3 540 541 542
3 542 541 543
3 542 543 544
3 544 543 545
3 544 545 546
3 546 545 547
3 546 547 548
3 548 547 549
3 501 550 551
3 551 550 552
3 551 552 553
3 553 552 554
3 555 556 557
3 557 556 558
3 557 558 559
3 559 558 560
3 561 562 508
3 508 562 563
3 508 563 564
3 564 563 565
3 566 567 568
3 568 567 569
3 568 569 570
3 570 569 571
3 572 573 574
3 574 573 575
3 574 575 576
3 576 575 577
3 578 579 321
3 518 580 520
3 520 580 581
3 520 581 522
3 522 581 582
3 522 582 524
3 524 582 583
3 524 584 527
3 527 584 585
3 527 585 529
3 529 585 586
3 529 586 531
3 531 586 587
3 531 587 533
3 533 587 588
3 533 588 535
3 535 588 589
3 535 589 537
3 537 589 590
3 537 590 539
3 539 590 591
3 539 591 541
3 541 591 592
3 541 592 543
3 543 592 593
3 543 593 545
3 545 593 594
3 545 594 547
3 547 594 595
3 547 595 549
3 549 595 596
3 550 597 552
3 552 597 598
3 552 598 554
3 554 598 599
3 556 600 558
3 558 600 601
3 558 601 560
3 560 601 602
3 562 603 563
3 563 603 604
3 563 604 565
3 565 604 605
3 567 606 569
3 569 606 607
3 569 607 571
3 571 607 608
3 573 609 575
3 575 609 610
3 575 610 577
3 577 610 611
3 579 612 321
3 321 612 355
3 613 614 615
3 613 615 582
3 582 615 616
3 582 616 584
3 584 616 617
3 584 617 585
3 585 617 618
3 585 618 619
3 619 618 620
3 619 620 621
3 621 620 622
3 621 622 623
3 623 622 624
3 623 624 625
3 625 624 626
3 625 626 627
3 627 626 628
3 627 628 591
3 591 628 629
3 591 629 630
3 630 629 631
3 630 631 632
3 632 631 633
3 632 633 594
3 594 633 634
3 594 634 635
3 635 634 636
3 635 636 637
3 637 636 638
3 639 640 598
3 598 640 641
3 598 641 642
3 642 641 643
3 644 645 601
3 601 645 646
3 601 646 602
3 602 646 647
3 648 649 650
3 650 649 651
3 650 651 652
3 652 651 653
3 654 655 607
3 607 655 656
3 607 656 608
3 608 656 657
3 609 658 659
3 659 658 660
3 659 660 611
3 611 660 661
3 612 662 663
3 663 662 355
3 614 664 615
3 615 664 665
3 615 665 616
3 616 665 666
3 616 666 617
3 617 666 667
3 617 668 618
3 618 668 669
3 618 669 620
3 620 669 670
3 620 670 622
3 622 670 671
3 622 671 624
3 624 671 672
3 624 672 626
3 626 672 673
3 626 673 628
3 628 673 674
3 628 674 629
3 629 674 675
3 629 675 631
3 631 675 676
3 631 676 633
3 633 676 677
3 633 677 634
3 634 677 678
3 634 678 636
3 636 678 679
3 636 679 638
3 638 679 680
3 640 681 641
3 641 681 682
3 641 682 643
3 643 682 683
3 645 684 646
3 646 684 685
3 646 685 647
3 647 685 686
3 649 687 651
3 651 687 688
3 651 688 653
3 653 688 689
3 655 690 656
3 656 690 691
3 656 691 657
3 657 691 692
3 658 693 660
3 660 693 694
3 660 694 661
3 661 694 695
3 662 696 355
3 355 696 663
3 664 0 665
3 665 0 697
3 665 697 666
3 666 697 698
3 666 698 667
3 667 698 699
3 668 700 669
3 669 700 701
3 669 701 670
3 670 701 702
3 670 702 671
3 671 702 703
3 671 703 672
3 672 703 704
3 672 704 673
3 673 704 705
3 673 705 674
3 674 705 706
3 674 706 675
3 675 706 707
3 675 707 676
3 676 707 708
3 676 708 677
3 677 708 709
3 677 709 678
3 678 709 710
3 678 710 679
3 679 710 711
3 679 711 680
3 680 711 712
3 681 713 682
3 682 713 714
3 682 714 683
3 683 714 715
3 684 716 685
3 685 716 717
3 685 717 686
3 686 717 718
3 687 719 688
3 688 719 720
3 688 720 689
3 689 720 721
3 690 722 691
3 691 722 723
3 691 723 692
3 692 723 724
3 693 725 694
3 694 725 726
3 694 726 695
3 695 726 727
3 696 728 663
3 663 728 66
3 517 255 729
3 729 255 730
3 729 730 731
3 731 730 732
3 731 732 733
3 733 732 734
3 735 736 737
3 737 736 738
3 737 738 739
3 739 738 740
3 739 740 741
3 741 740 742
3 741 742 743
3 743 742 744
3 743 744 745
3 745 744 746
3 745 746 747
3 747 746 748
3 747 748 749
3 749 748 750
3 749 750 751
3 751 750 752
3 751 752 753
3 753 752 754
3 753 754 755
3 755 754 756
3 755 756 757
3 757 756 758
3 757 758 713
3 713 758 759
3 760 761 762
3 762 761 763
3 762 763 764
3 764 763 765
3 766 767 768
3 768 767 769
3 768 769 770
3 770 769 771
3 772 773 774
3 774 773 775
3 774 775 721
3 721 775 776
3 722 777 723
3 723 777 778
3 723 778 779
3 779 778 780
3 781 782 783
3 783 782 784
3 783 784 785
3 785 784 786
3 787 788 789
3 789 788 164
3 730 0 790
3 730 790 732
3 732 790 791
3 732 791 734
3 734 791 792
3 736 793 738
3 738 793 794
3 738 794 740
3 740 794 795
3 740 795 742
3 742 795 796
3 742 796 744
3 744 796 797
3 744 797 746
3 746 797 798
3 746 798 748
3 748 798 799
3 748 799 750
3 750 799 800
3 750 800 752
3 752 800 801
3 752 801 754
3 754 801 802
3 754 802 756
3 756 802 803
3 756 803 758
3 758 803 804
3 758 804 759
3 759 804 805
3 761 806 763
3 763 806 807
3 763 807 765
3 765 807 808
3 767 809 769
3 769 809 810
3 769 810 771
3 771 810 811
3 773 812 775
3 775 812 813
3 775 813 776
3 776 813 814
3 777 815 778
3 778 815 816
3 778 816 780
3 780 816 817
3 782 818 784
3 784 818 819
3 784 819 786
3 786 819 820
3 788 821 164
3 164 821 822
3 0 389 790
3 790 389 823
3 790 823 791
3 791 823 824
3 791 824 792
3 792 824 825
3 793 826 794
3 794 826 827
3 794 827 795
3 795 827 828
3 795 828 796
3 796 828 829
3 796 829 797
3 797 829 830
3 797 830 798
3 798 830 831
3 798 831 799
3 799 831 832
3 799 832 800
3 800 832 833
3 800 833 801
3 801 833 834
3 801 834 802
3 802 834 835
3 802 835 803
3 803 835 836
3 803 836 804
3 804 836 837
3 804 837 805
3 805 837 838
3 806 839 807
3 807 839 840
3 807 840 808
3 808 840 841
3 809 842 810
3 810 842 843
3 810 843 811
3 811 843 844
3 812 845 813
3 813 845 846
3 813 846 814
3 814 846 847
3 815 848 816
3 816 848 849
3 816 849 817
3 817 849 850
3 818 851 819
3 819 851 852
3 819 852 820
3 820 852 853
3 821 854 822
3 822 854 855
3 856 857 858
3 858 857 859
3 858 859 860
3 860 859 861
3 860 861 862
3 862 861 863
3 864 865 866
3 866 865 867
3 866 867 868
3 868 867 869
3 868 869 870
3 870 869 871
3 870 871 872
3 872 871 873
3 872 873 874
3 874 873 875
3 874 875 876
3 876 875 877
3 876 877 878
3 878 877 879
3 878 879 880
3 880 879 881
3 880 881 882
3 882 881 883
3 882 883 884
3 884 883 885
3 884 885 886
3 886 885 887
3 886 887 838
3 838 887 888
3 889 890 891
3 891 890 892
3 891 892 893
3 893 892 894
3 895 896 897
3 897 896 898
3 897 898 899
3 899 898 900
3 901 902 903
3 903 902 904
3 903 904 905
3 905 904 906
3 907 908 909
3 909 908 910
3 909 910 850
3 850 910 911
3 851 912 913
3 913 912 914
3 913 914 915
3 915 914 916
3 917 918 822
3 822 918 66
3 857 919 859
3 859 919 920
3 859 920 861
3 861 920 921
3 861 921 863
3 863 921 922
3 865 922 867
3 867 922 923
3 867 923 869
3 869 923 924
3 869 924 871
3 871 924 925
3 871 925 873
3 873 925 926
3 873 926 875
3 875 926 927
3 875 927 877
3 877 927 928
3 877 928 879
3 879 928 929
3 879 929 881
3 881 929 930
3 881 930 883
3 883 930 931
3 883 931 885
3 885 931 932
3 885 932 887
3 887 932 933
3 887 933 888
3 888 933 934
3 890 935 892
3 892 935 936
3 892 936 894
3 894 936 937
3 896 938 898
3 898 938 939
3 898 939 900
3 900 939 940
3 902 941 904
3 904 941 942
3 904 942 906
3 906 942 943
3 908 944 910
3 910 944 945
3 910 945 911
3 911 945 946
3 912 947 914
3 914 947 948
3 914 948 916
3 916 948 949
3 918 950 66
3 66 950 131
3 919 452 920
3 920 452 951
3 920 951 921
3 921 951 952
3 921 952 922
3 922 952 953
3 922 954 923
3 923 954 955
3 923 955 924
3 924 955 956
3 924 956 925
3 925 956 957
3 925 957 926
3 926 957 958
3 926 958 927
3 927 958 959
3 927 959 928
3 928 959 960
3 928 960 929
3 929 960 961
3 929 961 930
3 930 961 962
3 930 962 931
3 931 962 963
3 931 963 932
3 932 963 964
3 932 964 933
3 933 964 965
3 933 965 934
3 934 965 966
3 935 967 936
3 936 967 968
3 936 968 937
3 937 968 969
3 938 970 939
3 939 970 971
3 939 971 940
3 940 971 972
3 941 973 942
3 942 973 974
3 942 974 943
3 943 974 975
3 944 976 945
3 945 976 977
3 945 977 946
3 946 977 978
3 947 979 948
3 948 979 980
3 948 980 949
3 949 980 981
3 950 982 131
3 131 982 288
3 452 919 951
3 951 919 983
3 951 983 952
3 952 983 984
3 952 984 953
3 953 984 985
3 954 986 955
3 955 986 987
3 955 987 956
3 956 987 988
3 956 988 957
3 957 988 989
3 957 989 958
3 958 989 990
3 958 990 959
3 959 990 991
3 959 991 960
3 960 991 992
3 960 992 961
3 961 992 993
3 961 993 962
3 962 993 994
3 962 994 963
3 963 994 995
3 963 995 964
3 964 995 996
3 964 996 965
3 965 996 997
3 965 997 966
3 966 997 998
3 967 999 968
3 968 999 1000
3 968 1000 969
3 969 1000 1001
3 970 1002 971
3 971 1002 1003
3 971 1003 972
3 972 1003 1004
3 973 1005 974
3 974 1005 1006
3 974 1006 975
3 975 1006 1007
3 976 1008 977
3 977 1008 1009
3 977 1009 978
3 978 1009 1010
3 979 1011 980
3 980 1011 1012
3 980 1012 981
3 981 1012 1013
3 982 1014 288
3 255 0 1015
3 1015 0 1016
3 1015 1016 1017
3 1017 1016 1018
3 1017 1018 985
3 985 1018 1019
3 985 1019 1020
3 1020 1019 1021
3 1020 1021 1022
3 1022 1021 1023
3 1022 1023 1024
3 1024 1023 1025
3 1024 1025 1026
3 1026 1025 1027
3 1026 1027 1028
3 1028 1027 1029
3 1028 1029 1030
3 1030 1029 1031
3 1030 1031 1032
3 1032 1031 1033
3 1032 1033 1034
3 1034 1033 1035
3 1034 1035 1036
3 1036 1035 1037
3 1036 1037 1038
3 1038 1037 1039
3 1038 1039 1040
3 1040 1039 1041
3 1040 1041 1042
3 1042 1041 1043
3 1044 1045 1046
3 1046 1045 1047
3 1046 1047 1048
3 1048 1047 1049
3 1050 1051 1052
3 1052 1051 1053
3 1052 1053 1054
3 1054 1053 1055
3 1056 1057 1058
3 1058 1057 1059
3 1058 1059 1060
3 1060 1059 1061
3 1008 1062 1063
3 1063 1062 1064
3 1063 1064 1010
3 1010 1064 1065
3 1066 1067 1012
3 1012 1067 1068
3 1012 1068 1069
3 1069 1068 1070
3 1014 1071 288
3 288 1071 66
3 1016 614 1072
3 1016 1072 1018
3 1018 1072 1073
3 1018 1073 1019
3 1019 1073 1074
3 1019 1075 1021
3 1021 1075 1076
3 1021 1076 1023
3 1023 1076 1077
3 1023 1077 1025
3 1025 1077 1078
3 1025 1078 1027
3 1027 1078 1079
3 1027 1079 1029
3 1029 1079 1080
3 1029 1080 1031
3 1031 1080 1081
3 1031 1081 1033
3 1033 1081 1082
3 1033 1082 1035
3 1035 1082 1083
3 1035 1083 1037
3 1037 1083 1084
3 1037 1084 1039
3 1039 1084 1085
3 1039 1085 1041
3 1041 1085 1086
3 1041 1086 1043
3 1043 1086 1087
3 1045 1088 1047
3 1047 1088 1089
3 1047 1089 1049
3 1049 1089 1090
3 1051 1091 1053
3 1053 1091 1092
3 1053 1092 1055
3 1055 1092 1093
3 1057 1094 1059
3 1059 1094 1095
3 1059 1095 1061
3 1061 1095 1096
3 1062 1097 1064
3 1064 1097 1098
3 1064 1098 1065
3 1065 1098 1099
3 1067 1100 1068
3 1068 1100 1101
3 1068 1101 1070
3 1070 1101 1102
3 1071 1103 66
3 66 1103 355
3 614 98 1072
3 1072 98 1104
3 1072 1104 1073
3 1073 1104 1105
3 1073 1105 1074
3 1074 1105 1106
3 1075 1107 1076
3 1076 1107 1108
3 1076 1108 1077
3 1077 1108 1109
3 1077 1109 1078
3 1078 1109 1110
3 1078 1110 1079
3 1079 1110 1111
3 1079 1111 1080
3 1080 1111 1112
3 1080 1112 1081
3 1081 1112 1113
3 1081 1113 1082
3 1082 1113 1114
3 1082 1114 1083
3 1083 1114 1115
3 1083 1115 1084
3 1084 1115 1116
3 1084 1116 1085
3 1085 1116 1117
3 1085 1117 1086
3 1086 1117 1118
3 1086 1118 1087
3 1087 1118 1119
3 1088 1120 1089
3 1089 1120 1121
3 1089 1121 1090
3 1090 1121 1122
3 1091 1123 1092
3 1092 1123 1124
3 1092 1124 1093
3 1093 1124 1125
3 1094 1126 1095
3 1095 1126 1127
3 1095 1127 1096
3 1096 1127 1128
3 1097 1129 1098
3 1098 1129 1130
3 1098 1130 1099
3 1099 1130 1131
3 1100 1132 1101
3 1101 1132 1133
3 1101 1133 1102
3 1102 1133 1134
3 1103 1135 355
3 355 1135 131
3 98 322 1104
3 1104 322 1136
3 1104 1136 1105
3 1105 1136 1137
3 1105 1137 1106
3 1106 1137 1138
3 1107 1139 1108
3 1108 1139 1140
3 1108 1140 1109
3 1109 1140 1141
3 1109 1141 1110
3 1110 1141 1142
3 1110 1142 1111
3 1111 1142 1143
3 1111 1143 1112
3 1112 1143 1144
3 1112 1144 1113
3 1113 1144 1145
3 1113 1145 1114
3 1114 1145 1146
3 1114 1146 1115
3 1115 1146 1147
3 1115 1147 1116
3 1116 1147 1148
3 1116 1148 1117
3 1117 1148 1149
3 1117 1149 1118
3 1118 1149 1150
3 1118 1150 1119
3 1119 1150 1151
3 1120 1152 1121
3 1121 1152 1153
3 1121 1153 1122
3 1122 1153 1154
3 1123 1155 1124
3 1124 1155 1156
3 1124 1156 1125
3 1125 1156 1157
3 1126 1158 1127
3 1127 1158 1159
3 1127 1159 1128
3 1128 1159 1160
3 1129 1161 1130
3 1130 1161 1162
3 1130 1162 1131
3 1131 1162 1163
3 1132 1164 1133
3 1133 1164 1165
3 1133 1165 1134
3 1134 1165 1166
3 1135 1167 131
3 131 1167 789
3 322 0 1136
3 1136 0 1168
3 1136 1168 1137
3 1137 1168 1169
3 1137 1169 1138
3 1138 1169 1170
3 1139 1170 1140
3 1140 1170 1171
3 1140 1171 1141
3 1141 1171 1172
3 1141 1172 1142
3 1142 1172 1173
3 1142 1173 1143
3 1143 1173 1174
3 1143 1174 1144
3 1144 1174 1175
3 1144 1175 1145
3 1145 1175 1176
3 1145 1176 1146
3 1146 1176 1177
3 1146 1177 1147
3 1147 1177 1178
3 1147 1178 1148
3 1148 1178 1179
3 1148 1179 1149
3 1149 1179 1180
3 1149 1180 1150
3 1150 1180 1181
3 1150 1181 1151
3 1151 1181 1182
3 1152 1183 1153
3 1153 1183 1184
3 1153 1184 1154
3 1154 1184 1185
3 1155 1186 1156
3 1156 1186 1187
3 1156 1187 1157
3 1157 1187 1188
3 1158 1189 1159
3 1159 1189 1190
3 1159 1190 1160
3 1160 1190 1191
3 1161 1192 1162
3 1162 1192 1193
3 1162 1193 1163
3 1163 1193 1194
3 1164 1195 1165
3 1165 1195 1196
3 1165 1196 1166
3 1166 1196 1197
3 1167 1198 789
3 1199 0 1200
3 1199 1200 1169
3 1169 1200 1201
3 1169 1201 1202
3 1202 1201 1203
3 1170 1204 1205
3 1205 1204 1206
3 1205 1206 1207
3 1207 1206 1208
3 1207 1208 1209
3 1209 1208 1210
3 1209 1210 1174
3 1174 1210 1211
3 1174 1211 1175
3 1175 1211 1212
3 1175 1212 1176
3 1176 1212 1213
3 1176 1213 1177
3 1177 1213 1214
3 1177 1214 1178
3 1178 1214 1215
3 1178 1215 1216
3 1216 1215 1217
3 1216 1217 1218
3 1218 1217 1219
3 1218 1219 1220
3 1220 1219 1221
3 1220 1221 1182
3 1182 1221 1222
3 1223 1224 1225
3 1225 1224 1226
3 1225 1226 1227
3 1227 1226 1228
3 1186 1229 1230
3 1230 1229 1231
3 1230 1231 1232
3 1232 1231 1233
3 1234 1235 1236
3 1236 1235 1237
3 1236 1237 1238
3 1238 1237 1239
3 1240 1241 1242
3 1242 1241 1243
3 1242 1243 1194
3 1194 1243 1244
3 1195 1245 1246
3 1246 1245 1247
3 1246 1247 1248
3 1248 1247 1249
3 1250 1251 66
3 1200 0 1252
3 1200 1252 1201
3 1201 1252 1253
3 1201 1253 1203
3 1203 1253 1254
3 1204 1255 1206
3 1206 1255 1256
3 1206 1256 1208
3 1208 1256 1257
3 1208 1257 1210
3 1210 1257 1258
3 1210 1258 1211
3 1211 1258 1259
3 1211 1259 1212
3 1212 1259 1260
3 1212 1260 1213
3 1213 1260 1261
3 1213 1261 1214
3 1214 1261 1262
3 1214 1262 1215
3 1215 1262 1263
3 1215 1263 1217
3 1217 1263 1264
3 1217 1264 1219
3 1219 1264 1265
3 1219 1265 1221
3 1221 1265 1266
3 1221 1266 1222
3 1222 1266 1267
3 1224 1268 1226
3 1226 1268 1269
3 1226 1269 1228
3 1228 1269 1270
3 1229 1271 1231
3 1231 1271 1272
3 1231 1272 1233
3 1233 1272 1273
3 1235 1274 1237
3 1237 1274 1275
3 1237 1275 1239
3 1239 1275 1276
3 1241 1277 1243
3 1243 1277 1278
3 1243 1278 1244
3 1244 1278 1279
3 1245 1280 1247
3 1247 1280 1281
3 1247 1281 1249
3 1249 1281 1282
3 1251 1283 66
3 1252 614 1284
3 1252 1284 1253
3 1253 1284 1285
3 1253 1285 1254
3 1254 1285 1286
3 1255 1287 1256
3 1256 1287 1288
3 1256 1288 1257
3 1257 1288 1289
3 1257 1289 1258
3 1258 1289 1290
3 1258 1290 1259
3 1259 1290 1291
3 1259 1291 1260
3 1260 1291 1292
3 1260 1292 1261
3 1261 1292 1293
3 1261 1293 1262
3 1262 1293 1294
3 1262 1294 1263
3 1263 1294 1295
3 1263 1295 1264
3 1264 1295 1296
3 1264 1296 1265
3 1265 1296 1297
3 1265 1297 1266
3 1266 1297 1298
3 1266 1298 1267
3 1267 1298 1299
3 1268 1300 1269
3 1269 1300 1301
3 1269 1301 1270
3 1270 1301 1302
3 1271 1303 1272
3 1272 1303 1304
3 1272 1304 1273
3 1273 1304 1305
3 1274 1306 1275
3 1275 1306 1307
3 1275 1307 1276
3 1276 1307 1308
3 1277 1309 1278
3 1278 1309 1310
3 1278 1310 1279
3 1279 1310 1311
3 1280 1312 1281
3 1281 1312 1313
3 1281 1313 1282
3 1282 1313 1314
3 1283 1315 66
3 66 1315 1316
3 614 0 1284
3 1284 0 1317
3 1284 1317 1285
3 1285 1317 1318
3 1285 1318 1286
3 1286 1318 1319
3 1287 1320 1288
3 1288 1320 1321
3 1288 1321 1289
3 1289 1321 1322
3 1289 1322 1290
3 1290 1322 1323
3 1290 1323 1291
3 1291 1323 1324
3 1291 1324 1292
3 1292 1324 1325
3 1292 1325 1293
3 1293 1325 1326
3 1293 1326 1294
3 1294 1326 1327
3 1294 1327 1295
3 1295 1327 1328
3 1295 1328 1296
3 1296 1328 1329
3 1296 1329 1297
3 1297 1329 1330
3 1297 1330 1298
3 1298 1330 1331
3 1298 1331 1299
3 1299 1331 1332
3 1300 1333 1301
3 1301 1333 1334
3 1301 1334 1302
3 1302 1334 1335
3 1303 1336 1304
3 1304 1336 1337
3 1304 1337 1305
3 1305 1337 1338
3 1306 1339 1307
3 1307 1339 1340
3 1307 1340 1308
3 1308 1340 1341
3 1309 1342 1310
3 1310 1342 1343
3 1310 1343 1311
3 1311 1343 1344
3 1312 1345 1313
3 1313 1345 1346
3 1313 1346 1314
3 1314 1346 1347
3 1315 1348 1316
3 1316 1348 288
3 0 1349 1317
3 1317 1349 1350
3 1317 1350 1318
3 1318 1350 1351
3 1318 1351 1319
3 1319 1351 1352
3 1320 1353 1321
3 1321 1353 1354
3 1321 1354 1322
3 1322 1354 1355
3 1322 1355 1323
3 1323 1355 1356
3 1323 1356 1324
3 1324 1356 1357
3 1324 1357 1325
3 1325 1357 1358
3 1325 1358 1326
3 1326 1358 1359
3 1326 1359 1327
3 1327 1359 1360
3 1327 1360 1328
3 1328 1360 1361
3 1328 1361 1329
3 1329 1361 1362
3 1329 1362 1330
3 1330 1362 1363
3 1330 1363 1331
3 1331 1363 1364
3 1331 1364 1332
3 1332 1364 1365
3 1333 1366 1334
3 1334 1366 1367
3 1334 1367 1335
3 1335 1367 1368
3 1336 1369 1337
3 1337 1369 1370
3 1337 1370 1338
3 1338 1370 1371
3 1339 1372 1340
3 1340 1372 1373
3 1340 1373 1341
3 1341 1373 1374
3 1342 1375 1343
3 1343 1375 1376
3 1343 1376 1344
3 1344 1376 1377
3 1345 1378 1346
3 1346 1378 1379
3 1346 1379 1347
3 1347 1379 1380
3 1348 1381 288
3 288 1381 1382
3 614 0 1383
3 1383 0 1384
3 1383 1384 1385
3 1385 1384 1386
3 1385 1386 1387
3 1387 1386 1388
3 1389 1390 1354
3 1354 1390 1391
3 1354 1391 1355
3 1355 1391 1392
3 1355 1392 1393
3 1393 1392 1394
3 1393 1394 1395
3 1395 1394 1396
3 1395 1396 1397
3 1397 1396 1398
3 1397 1398 1399
3 1399 1398 1400
3 1399 1400 1360
3 1360 1400 1401
3 1360 1401 1402
3 1402 1401 1403
3 1402 1403 1362
3 1362 1403 1404
3 1362 1404 1405
3 1405 1404 1406
3 1405 1406 1407
3 1407 1406 1408
3 1407 1408 1409
3 1409 1408 1410
3 1366 1411 1412
3 1412 1411 1413
3 1412 1413 1414
3 1414 1413 1415
3 1416 1417 1418
3 1418 1417 1419
3 1418 1419 1420
3 1420 1419 1421
3 1422 1423 1424
3 1424 1423 1425
3 1424 1425 1426
3 1426 1425 1427
3 1375 1428 1376
3 1376 1428 1429
3 1376 1429 1377
3 1377 1429 1430
3 1431 1432 1433
3 1433 1432 1434
3 1433 1434 1380
3 1380 1434 1435
3 1381 1436 66
3 66 1436 1382
3 0 1437 1384
3 1384 1437 1438
3 1384 1438 1386
3 1386 1438 1439
3 1386 1439 1388
3 1388 1439 1440
3 1390 1441 1391
3 1391 1441 1442
3 1391 1442 1392
3 1392 1442 1443
3 1392 1443 1394
3 1394 1443 1444
3 1394 1444 1396
3 1396 1444 1445
3 1396 1445 1398
3 1398 1445 1446
3 1398 1446 1400
3 1400 1446 1447
3 1400 1447 1401
3 1401 1447 1448
3 1401 1448 1403
3 1403 1448 1449
3 1403 1449 1404
3 1404 1449 1450
3 1404 1450 1406
3 1406 1450 1451
3 1406 1451 1408
3 1408 1451 1452
3 1408 1452 1410
3 1410 1452 1453
3 1411 1454 1413
3 1413 1454 1455
3 1413 1455 1415
3 1415 1455 1456
3 1417 1457 1419
3 1419 1457 1458
3 1419 1458 1421
3 1421 1458 1459
3 1423 1460 1425
3 1425 1460 1461
3 1425 1461 1427
3 1427 1461 1462
3 1428 1463 1429
3 1429 1463 1464
3 1429 1464 1430
3 1430 1464 1465
3 1432 1466 1434
3 1434 1466 1467
3 1434 1467 1435
3 1435 1467 1468
3 1436 1469 1382
3 1382 1469 131
3 1437 1349 1438
3 1438 1349 1470
3 1438 1470 1439
3 1439 1470 1471
3 1439 1471 1440
3 1440 1471 1472
3 1441 1473 1442
3 1442 1473 1474
3 1442 1474 1443
3 1443 1474 1475
3 1443 1475 1444
3 1444 1475 1476
3 1444 1476 1445
3 1445 1476 1477
3 1445 1477 1446
3 1446 1477 1478
3 1446 1478 1447
3 1447 1478 1479
3 1447 1479 1448
3 1448 1479 1480
3 1448 1480 1449
3 1449 1480 1481
3 1449 1481 1450
3 1450 1481 1482
3 1450 1482 1451
3 1451 1482 1483
3 1451 1483 1452
3 1452 1483 1484
3 1452 1484 1453
3 1453 1484 1485
3 1454 1486 1455
3 1455 1486 1487
3 1455 1487 1456
3 1456 1487 1488
3 1457 1489 1458
3 1458 1489 1490
3 1458 1490 1459
3 1459 1490 1491
3 1460 1492 1461
3 1461 1492 1493
3 1461 1493 1462
3 1462 1493 1494
3 1463 1495 1464
3 1464 1495 1496
3 1464 1496 1465
3 1465 1496 1497
3 1466 1498 1467
3 1467 1498 1499
3 1467 1499 1468
3 1468 1499 1500
3 1469 1501 131
3 1349 0 1470
3 1470 0 1502
3 1470 1502 1471
3 1471 1502 1503
3 1471 1503 1472
3 1472 1503 1504
3 1473 1505 1474
3 1474 1505 1506
3 1474 1506 1475
3 1475 1506 1507
3 1475 1507 1476
3 1476 1507 1508
3 1476 1508 1477
3 1477 1508 1509
3 1477 1509 1478
3 1478 1509 1510
3 1478 1510 1479
3 1479 1510 1511
3 1479 1511 1480
3 1480 1511 1512
3 1480 1512 1481
3 1481 1512 1513
3 1481 1513 1482
3 1482 1513 1514
3 1482 1514 1483
3 1483 1514 1515
3 1483 1515 1484
3 1484 1515 1516
3 1484 1516 1485
3 1485 1516 1517
3 1486 1518 1487
3 1487 1518 1519
3 1487 1519 1488
3 1488 1519 1520
3 1489 1521 1490
3 1490 1521 1522
3 1490 1522 1491
3 1491 1522 1523
3 1492 1524 1493
3 1493 1524 1525
3 1493 1525 1494
3 1494 1525 1526
3 1495 1527 1496
3 1496 1527 1528
3 1496 1528 1497
3 1497 1528 1529
3 1498 1530 1499
3 1499 1530 1531
3 1499 1531 1500
3 1500 1531 1532
3 1501 1533 66
3 1502 0 1534
3 1502 1534 1503
3 1503 1534 1535
3 1503 1535 1504
3 1504 1535 1536
3 1505 1536 1506
3 1506 1536 1537
3 1506 1537 1507
3 1507 1537 1538
3 1507 1538 1508
3 1508 1538 1539
3 1508 1539 1509
3 1509 1539 1540
3 1509 1540 1510
3 1510 1540 1541
3 1510 1541 1511
3 1511 1541 1542
3 1511 1542 1512
3 1512 1542 1543
3 1512 1543 1513
3 1513 1543 1544
3 1513 1544 1514
3 1514 1544 1545
3 1514 1545 1515
3 1515 1545 1546
3 1515 1546 1516
3 1516 1546 1547
3 1516 1547 1517
3 1517 1547 1548
3 1518 1549 1519
3 1519 1549 1550
3 1519 1550 1520
3 1520 1550 1551
3 1521 1552 1522
3 1522 1552 1553
3 1522 1553 1523
3 1523 1553 1554
3 1524 1555 1525
3 1525 1555 1556
3 1525 1556 1526
3 1526 1556 1557
3 1527 1558 1528
3 1528 1558 1559
3 1528 1559 1529
3 1529 1559 1560
3 1530 1561 1531
3 1531 1561 1562
3 1531 1562 1532
3 1532 1562 1563
3 1533 1564 66
3 0 919 1534
3 1534 919 1565
3 1534 1565 1535
3 1535 1565 1566
3 1535 1566 1536
3 1536 1566 1567
3 1536 1568 1537
3 1537 1568 1569
3 1537 1569 1538
3 1538 1569 1570
3 1538 1570 1539
3 1539 1570 1571
3 1539 1571 1540
3 1540 1571 1572
3 1540 1572 1541
3 1541 1572 1573
3 1541 1573 1542
3 1542 1573 1574
3 1542 1574 1543
3 1543 1574 1575
3 1543 1575 1544
3 1544 1575 1576
3 1544 1576 1545
3 1545 1576 1577
3 1545 1577 1546
3 1546 1577 1578
3 1546 1578 1547
3 1547 1578 1579
3 1547 1579 1548
3 1548 1579 1580
3 1549 1581 1550
3 1550 1581 1582
3 1550 1582 1551
3 1551 1582 1583
3 1552 1584 1553
3 1553 1584 1585
3 1553 1585 1554
3 1554 1585 1586
3 1555 1587 1556
3 1556 1587 1588
3 1556 1588 1557
3 1557 1588 1589
3 1558 1590 1559
3 1559 1590 1591
3 1559 1591 1560
3 1560 1591 1592
3 1561 1593 1562
3 1562 1593 1594
3 1562 1594 1563
3 1563 1594 1595
3 1564 1596 66
3 1597 0 1598
3 1597 1598 1599
3 1599 1598 1600
3 1599 1600 1601
3 1601 1600 1602
3 1603 1604 1605
3 1605 1604 1606
3 1605 1606 1607
3 1607 1606 1608
3 1607 1608 1609
3 1609 1608 1610
3 1609 1610 1611
3 1611 1610 1612
3 1611 1612 1573
3 1573 1612 1613
3 1573 1613 1614
3 1614 1613 1615
3 1614 1615 1616
3 1616 1615 1617
3 1616 1617 1618
3 1618 1617 1619
3 1618 1619 1620
3 1620 1619 1621
3 1620 1621 1622
3 1622 1621 1623
3 1622 1623 1624
3 1624 1623 1625
3 1624 1625 1626
3 1626 1625 1627
3 1628 1629 1630
3 1630 1629 1631
3 1630 1631 1632
3 1632 1631 1633
3 1634 1635 1636
3 1636 1635 1637
3 1636 1637 1638
3 1638 1637 1639
3 1640 1641 1642
3 1642 1641 1643
3 1642 1643 1644
3 1644 1643 1645
3 1646 1647 1648
3 1648 1647 1649
3 1648 1649 1650
3 1650 1649 1651
3 1652 1653 1654
3 1654 1653 1655
3 1654 1655 1656
3 1656 1655 1657
3 1596 1658 66
3 66 1658 789
3 1598 0 2
3 1598 2 1600
3 1600 2 4
3 1600 4 1602
3 1602 4 6
3 1604 8 1606
3 1606 8 10
3 1606 10 1608
3 1608 10 12
3 1608 12 1610
3 1610 12 14
3 1610 14 1612
3 1612 14 16
3 1612 16 1613
3 1613 16 18
3 1613 18 1615
3 1615 18 20
3 1615 20 1617
3 1617 20 22
3 1617 22 1619
3 1619 22 24
3 1619 24 1621
3 1621 24 26
3 1621 26 1623
3 1623 26 28
3 1623 28 1625
3 1625 28 30
3 1625 30 1627
3 1627 30 32
3 1629 34 1631
3 1631 34 36
3 1631 36 1633
3 1633 36 38
3 1635 40 1637
3 1637 40 42
3 1637 42 1639
3 1639 42 44
3 1641 46 1643
3 1643 46 48
3 1643 48 1645
3 1645 48 50
3 1647 52 1649
3 1649 52 54
3 1649 54 1651
3 1651 54 56
3 1653 58 1655
3 1655 58 60
3 1655 60 1657
3 1657 60 62
3 1658 64 789
3 789 64 66
