# vtk DataFile Version 2.0
File written by itkPolyDataMeshIO
ASCII
DATASET POLYDATA
POINTS 994 float
-22.28208 -10.4878 378.9481
-16.8251 -15.00105 376.6413
-22.78281 -11.19117 378.8393
-26.76283 -6.923485 384.7818
-27.29542 -7.673058 384.6532
-29.8877 -4.534492 389.7446
-30.38879 -5.223732 389.6025
-32.87421 -2.323555 391.7874
-33.36614 -3.061104 391.599
-37.74389 0.334343 391.9435
-38.12138 -0.464943 391.7095
-44.24021 2.440605 391.1904
-44.41637 1.568871 390.9545
-49.99026 2.851036 389.6431
-49.92922 1.968849 389.4696
-55.37414 2.327522 386.6298
-55.18833 1.524208 386.5262
-61.57758 1.310905 382.8111
-61.41981 0.596748 382.7014
-67.63982 0.356392 378.8686
-67.53757 -0.309456 378.7484
-67.53759 -0.309456 378.7485
-72.65871 -0.096886 374.2031
-72.53415 -0.778603 374.0762
-78.17807 -0.658501 369.5366
-77.99689 -1.365227 369.4015
-85.07549 -1.755089 365.942
-84.89085 -2.460152 365.8004
-92.26341 -2.797478 362.8436
-92.12898 -3.477226 362.6864
-99.74831 -4.095955 359.7734
-99.6477 -4.681969 359.6332
-106.66 -7.048759 357.0738
-106.4909 -7.570396 357.0042
-113.115 -10.11874 354.7182
-112.8399 -10.61488 354.6958
-113.115 -10.11872 354.7182
-112.8398 -10.61485 354.6958
-118.0765 -13.46639 351.7019
-117.775 -13.97095 351.7628
-121.5681 -16.9905 348.7118
-121.3089 -17.48029 348.8232
-124.6796 -19.14413 346.613
-124.4542 -19.62957 346.7053
-127.2524 -19.60523 345.6626
-127.077 -20.03721 345.7354
-127.077 -20.03721 345.7353
-128.4847 -20.03274 346.8122
-16.82511 -15.00106 376.6413
-23.10165 -11.96984 378.9467
-27.62891 -8.5485 384.7094
-30.72921 -6.006187 389.6684
-33.79066 -3.826958 391.7125
-38.51003 -1.296211 391.7884
-44.60749 0.635811 390.9909
-49.9327 1.062279 389.5348
-55.10912 0.703789 386.6096
-61.36031 -0.138908 382.7492
-61.36033 -0.138908 382.7492
-67.5143 -1.010994 378.7546
-67.51431 -1.011009 378.7545
-72.51899 -1.489281 374.0763
-77.96124 -2.093071 369.4211
-84.84982 -3.196449 365.8238
-84.84981 -3.196434 365.8239
-92.12798 -4.178535 362.6826
-99.64867 -5.276375 359.6205
-106.3862 -8.120903 357.0407
-112.6135 -11.12615 354.764
-112.6135 -11.12614 354.764
-117.523 -14.46096 351.9042
-121.0986 -17.93729 349.0066
-124.2716 -20.08483 346.8776
-126.9319 -20.45991 345.8924
-126.9319 -20.45992 345.8923
-23.21868 -12.77288 379.2649
-27.73519 -9.462547 384.9437
-30.8939 -6.819878 389.9297
-34.11396 -4.553093 392.0974
-38.85821 -2.031395 392.1544
-44.79795 -0.234093 391.3065
-50.00719 0.194389 389.844
-55.13671 -0.06208 386.858
-61.40022 -0.841393 382.9434
-67.57273 -1.686394 378.8877
-67.57273 -1.686378 378.8877
-72.61256 -2.176384 374.2014
-78.07063 -2.805565 369.5918
-84.95478 -3.915291 366.0107
-84.95477 -3.915291 366.0107
-92.25987 -4.859978 362.8315
-99.75175 -5.853539 359.7361
-106.3618 -8.673454 357.1929
-112.4479 -11.64407 354.9377
-112.4478 -11.64405 354.9377
-117.3192 -14.94129 352.1328
-120.925 -18.38377 349.2687
-124.1218 -20.53025 347.1369
-126.8222 -20.85621 346.1248
-126.8222 -20.85622 346.1248
-128.4847 -20.03275 346.8122
-23.14165 -13.50301 379.7351
-27.619 -10.32456 385.3235
-30.87533 -7.58474 390.3489
-34.31489 -5.176567 392.7071
-39.13969 -2.606544 392.795
-44.97207 -0.926598 391.9033
-50.15797 -0.535942 390.3868
-55.28591 -0.756538 387.284
-61.54736 -1.475471 383.2883
-67.71679 -2.294029 379.1488
-67.7168 -2.294044 379.1488
-72.8159 -2.796684 374.4527
-78.31708 -3.43615 369.9002
-85.19186 -4.543877 366.3393
-85.19186 -4.543892 366.3393
-92.51318 -5.463417 363.1205
-99.94882 -6.370369 359.9698
-106.4268 -9.168297 357.4483
-112.3586 -12.12582 355.2048
-112.3586 -12.1258 355.2048
-117.1726 -15.39417 352.4436
-120.7945 -18.79577 349.5945
-124.0132 -20.93501 347.4591
-126.7528 -21.21325 346.4274
-126.7528 -21.21328 346.4274
-128.4847 -20.03272 346.8122
-16.8251 -15.00106 376.6413
-22.88863 -14.11214 380.3176
-27.31153 -11.0716 385.8031
-30.68601 -8.239937 390.883
-34.37905 -5.652748 393.4661
-39.32473 -2.983772 393.6175
-45.09373 -1.37867 392.7112
-50.36086 -1.04493 391.094
-55.54572 -1.309822 387.8506
-61.79873 -1.991127 383.7704
-61.79873 -1.991142 383.7704
-67.95857 -2.804649 379.5501
-67.95858 -2.804649 379.5501
-73.12794 -3.310402 374.8296
-78.67826 -3.932961 370.3193
-85.53841 -5.037453 366.7819
-85.5384 -5.037468 366.7819
-92.8655 -5.938332 363.5245
-100.231 -6.783867 360.3107
-106.5892 -9.564873 357.7994
-112.3748 -12.54238 355.5872
-112.3747 -12.54237 355.5872
-117.1104 -15.79717 352.8595
-120.7219 -19.15815 350.0018
-123.9584 -21.28609 347.8625
-126.7336 -21.50904 346.7946
-126.7336 -21.50906 346.7946
-22.88862 -14.11213 380.3176
-22.50924 -14.57655 380.9591
-27.31153 -11.07159 385.8031
-26.85514 -11.66596 386.3397
-30.68601 -8.239922 390.883
-30.3559 -8.756981 391.4862
-34.37907 -5.652748 393.4661
-34.31615 -5.967308 394.3016
-39.32475 -2.983757 393.6175
-39.4013 -3.15519 394.5097
-45.09373 -1.378654 392.7112
-45.14506 -1.584618 393.6136
-50.36088 -1.04493 391.094
-50.58337 -1.30352 391.9158
-55.54572 -1.309807 387.8506
-55.88557 -1.641502 388.5011
-61.79873 -1.991142 383.7705
-62.13195 -2.324348 384.3432
-62.13195 -2.324364 384.3431
-68.28464 -3.149498 380.0654
-68.28465 -3.149498 380.0654
-73.52789 -3.659218 375.3059
-79.12227 -4.27079 370.8143
-85.9614 -5.375496 367.3007
-85.96139 -5.375496 367.3007
-92.8655 -5.938301 363.5245
-93.28382 -6.256371 364.0059
-100.577 -7.061409 360.732
-106.8433 -9.829506 358.2269
-112.5251 -12.82352 356.0655
-112.5251 -12.82351 356.0655
-117.1774 -16.07084 353.366
-120.7219 -19.15816 350.0018
-120.7407 -19.42385 350.4945
-123.98 -21.5503 348.3559
-126.7823 -21.70385 347.2194
-126.7823 -21.70388 347.2194
-22.0443 -14.85125 381.5952
-26.27624 -12.08242 386.9074
-29.90778 -9.115776 392.1189
-34.14993 -6.121239 395.1649
-39.39414 -3.165245 395.4382
-45.14805 -1.58799 394.5555
-50.80802 -1.327263 392.8127
-56.28197 -1.752022 389.2086
-62.51626 -2.445549 384.9543
-62.51626 -2.445564 384.9542
-68.65379 -3.260445 380.6278
-68.65379 -3.260445 380.6277
-73.97709 -3.790077 375.8328
-79.61787 -4.422066 371.3514
-86.43108 -5.527107 367.8595
-86.43107 -5.527107 367.8595
-93.73634 -6.396904 364.5278
-100.9497 -7.174553 361.188
-107.1632 -9.913811 358.6825
-112.8068 -12.86544 356.5363
-112.8068 -12.86543 356.5363
-117.3979 -16.09791 353.8602
-120.8885 -19.48243 350.986
-124.1087 -21.62536 348.8557
-126.915 -21.7438 347.6678
-126.915 -21.74383 347.6677
-21.47157 -14.95849 382.2433
-25.57488 -12.29385 387.4909
-29.35508 -9.292198 392.767
-33.88927 -6.120781 395.9971
-39.31434 -3.024315 396.336
-45.11466 -1.413612 395.5093
-51.0266 -1.149254 393.6602
-56.70351 -1.637581 389.8971
-62.92478 -2.353828 385.5635
-62.92478 -2.353844 385.5635
-69.04037 -3.142982 381.1965
-74.43653 -3.698235 376.3645
-80.13078 -4.375725 371.8952
-86.93024 -5.483864 368.438
-86.93023 -5.483864 368.438
-94.20029 -6.356438 365.0647
-101.3231 -7.126732 361.6471
-107.5186 -9.815834 359.1216
-113.1692 -12.69639 356.9509
-117.73 -15.88224 354.2596
-121.1492 -19.30149 351.3841
-124.3362 -21.47886 349.2843
-127.1253 -21.59217 348.0605
-127.1253 -21.59219 348.0604
-16.8251 -15.00103 376.6413
-16.82508 -15.00103 376.6414
-20.83842 -14.86715 382.8346
-25.57487 -12.29385 387.4909
-24.80161 -12.2682 388.0395
-29.35506 -9.292183 392.767
-28.72051 -9.267311 393.393
-33.88927 -6.12075 395.9971
-33.53585 -5.960121 396.8133
-39.31432 -3.0243 396.3361
-39.16526 -2.748238 397.1872
-45.11463 -1.413597 395.5094
-45.06115 -1.09922 396.3746
-51.0266 -1.149239 393.6602
-51.25341 -0.807411 394.467
-56.7035 -1.637566 389.8971
-57.12852 -1.331581 390.5267
-62.92477 -2.353798 385.5635
-63.33054 -2.064079 386.1259
-62.92477 -2.353813 385.5635
-63.33053 -2.064079 386.1259
-69.04036 -3.142967 381.1965
-69.39416 -2.832832 381.7029
-69.39417 -2.832848 381.7029
-74.43652 -3.698219 376.3646
-74.85754 -3.416359 376.842
-80.13078 -4.37571 371.8952
-80.6191 -4.137459 372.403
-86.93023 -5.483833 368.4381
-87.40445 -5.248024 368.9739
-86.93022 -5.483818 368.4381
-94.20029 -6.356407 365.0648
-94.64594 -6.132835 365.5827
-101.323 -7.126732 361.6472
-101.6826 -6.919106 362.0924
-107.5186 -9.815804 359.1217
-107.8541 -9.576103 359.4865
-113.1692 -12.69639 356.951
-113.5391 -12.39239 357.2622
-113.1692 -12.69637 356.9509
-113.5391 -12.39237 357.2622
-117.73 -15.88223 354.2597
-118.099 -15.51301 354.5222
-121.1492 -19.30148 351.3842
-121.4676 -18.93731 351.6393
-124.3362 -21.47883 349.2843
-124.6256 -21.14135 349.5866
-127.1253 -21.59216 348.0605
-127.3687 -21.29665 348.3336
-127.3687 -21.29667 348.3336
-20.18156 -14.57644 383.3336
-24.02905 -12.00436 388.5049
-28.08163 -9.046806 393.9146
-33.11228 -5.628349 397.5363
-38.92785 -2.305504 397.9739
-44.98148 -0.60778 397.1461
-51.47248 -0.253761 395.1841
-57.52372 -0.834328 391.05
-63.68664 -1.614159 386.5791
-69.69559 -2.36245 382.1195
-75.22368 -2.959175 377.2484
-81.04873 -3.717659 372.8367
-87.82012 -4.832069 369.4283
-87.82011 -4.832085 369.4283
-95.03225 -5.738853 366.0335
-101.9943 -6.56739 362.483
-108.1714 -9.210365 359.7859
-113.8881 -12.02018 357.4848
-113.8881 -12.02016 357.4848
-118.4502 -15.09405 354.667
-121.7831 -18.50053 351.7564
-124.9149 -20.71664 349.7461
-127.6108 -20.92345 348.4914
-127.6108 -20.92347 348.4914
-16.82508 -15.00105 376.6413
-19.55201 -14.107 383.7065
-23.31104 -11.52323 388.8535
-27.46203 -8.617577 394.3148
-32.63349 -5.118462 398.0862
-38.61538 -1.677086 398.5807
-44.85883 0.110664 397.7487
-51.64606 0.48098 395.7019
-57.85616 -0.171272 391.4228
-63.98092 -1.023781 386.9138
-69.92783 -1.793419 382.4258
-69.92783 -1.793404 382.4258
-75.50437 -2.391029 377.5516
-81.39207 -3.149605 373.1672
-88.15467 -4.265465 369.7746
-88.15466 -4.26548 369.7746
-95.33237 -5.204369 366.3853
-102.2343 -6.097328 362.789
-108.4423 -8.769814 360.0032
-114.2222 -11.59602 357.6371
-118.7939 -14.64208 354.7375
-122.0839 -18.04139 351.7797
-125.1873 -20.25861 349.796
-127.838 -20.51398 348.5542
-127.838 -20.514 348.5541
-19.55199 -14.107 383.7065
-18.9892 -13.4556 383.9087
-23.31104 -11.52323 388.8536
-22.69184 -10.84039 389.058
-26.90755 -7.991402 394.5536
-32.14129 -4.450432 398.3936
-38.25782 -0.922478 398.9194
-44.70779 0.973839 398.0954
-51.76029 1.317757 395.9832
-58.10133 0.584053 391.6217
-64.19552 -0.329262 387.1101
-64.19553 -0.329262 387.1101
-70.08337 -1.143669 382.613
-75.50436 -2.391029 377.5516
-75.68739 -1.739326 377.7398
-81.39206 -3.14962 373.1672
-81.62692 -2.482567 373.3712
-88.38577 -3.602806 369.9877
-88.15466 -4.265495 369.7746
-88.38577 -3.602821 369.9877
-95.526 -4.56414 366.6133
-102.2343 -6.097313 362.789
-102.3851 -5.544456 362.9891
-108.6587 -8.261436 360.1308
-114.5379 -11.12092 357.7221
-114.5379 -11.12093 357.7221
-119.1311 -14.16418 354.7486
-122.3744 -17.56562 351.7344
-125.4426 -19.77911 349.7618
-127.838 -20.51397 348.5542
-128.043 -20.08887 348.5373
-128.043 -20.08889 348.5372
-18.55872 -12.70132 383.9137
-22.23368 -10.02088 389.0983
-26.48832 -7.232033 394.5855
-31.6914 -3.67942 398.399
-37.88058 -0.107857 398.944
-44.5499 1.881294 398.1466
-51.8112 2.208855 396.0102
-58.24522 1.385246 391.6313
-64.30795 0.403709 387.1439
-64.30795 0.403709 387.1438
-70.15366 -0.453285 382.6732
-70.15366 -0.4533 382.6732
-75.76506 -1.03553 377.8075
-81.73504 -1.751488 373.4299
-88.49603 -2.871468 370.0467
-88.49603 -2.871452 370.0467
-95.59478 -3.862679 366.6958
-102.4343 -4.949638 363.0679
-108.8096 -7.711327 360.1648
-114.812 -10.62164 357.7338
-119.4444 -13.68072 354.6984
-122.6445 -17.0975 351.6322
-125.6673 -19.30929 349.6581
-128.2202 -19.65955 348.4476
-128.2202 -19.65958 348.4475
-18.31705 -11.9246 383.7097
-21.98811 -9.13781 388.9622
-26.23769 -6.42321 394.4183
-31.32786 -2.9067 398.117
-37.52522 0.689369 398.6617
-44.3914 2.774666 397.9051
-51.79115 3.092522 395.772
-58.27743 2.197151 391.4462
-64.31306 1.123665 387.0168
-70.13049 0.222542 382.5992
-70.13049 0.222527 382.5992
-75.7263 -0.335365 377.7439
-81.70853 -1.009727 373.3392
-88.47768 -2.118904 369.9467
-88.47767 -2.118919 369.9467
-95.53103 -3.157021 366.6234
-102.3783 -4.3554 363.019
-108.8706 -7.168083 360.0907
-115.0264 -10.11277 357.6562
-115.0264 -10.11275 357.6562
-119.7247 -13.19311 354.5789
-122.8865 -16.64916 351.4735
-125.8572 -18.8616 349.4874
-128.3644 -19.23885 348.2837
-128.3644 -19.23887 348.2836
-16.82508 -15.00103 376.6413
-18.26125 -11.13895 383.3089
-21.96598 -8.236961 388.6586
-26.16117 -5.629799 394.0792
-31.07888 -2.221977 397.6131
-37.2355 1.364723 398.1372
-44.24064 3.561028 397.409
-51.70066 3.870888 395.3132
-58.18974 2.939568 391.0852
-64.2114 1.799446 386.7377
-70.01672 0.871529 382.3951
-75.57388 0.328728 377.5527
-81.54665 -0.334618 373.1051
-88.32687 -1.441383 369.6939
-88.32687 -1.441368 369.6939
-95.34136 -2.50779 366.4038
-102.2213 -3.806709 362.8457
-108.8374 -6.640678 359.9018
-115.1629 -9.590553 357.4623
-119.9504 -12.70347 354.3594
-123.0961 -16.20284 351.2337
-126.0144 -18.41564 349.2312
-128.4625 -18.84612 348.0406
-128.4625 -18.84614 348.0406
-16.82507 -15.00101 376.6414
-18.26124 -11.13895 383.309
-18.40943 -10.48158 382.7784
-21.96597 -8.236961 388.6586
-22.17068 -7.43293 388.2314
-26.26543 -4.905495 393.5943
-31.07887 -2.221977 397.6131
-30.94762 -1.632393 396.9102
-37.23548 1.364754 398.1373
-37.00867 1.897072 397.4022
-44.24062 3.561028 397.409
-44.10816 4.170128 396.7076
-51.70066 3.870903 395.3133
-51.54317 4.500633 394.6643
-58.18974 2.939568 391.0853
-57.9884 3.55619 390.5776
-64.2114 1.799461 386.7378
-64.00397 2.371895 386.3186
-64.2114 1.799461 386.7377
-70.01672 0.871544 382.3952
-69.80907 1.433647 382.0592
-75.57388 0.328743 377.5527
-75.30738 0.902275 377.2345
-81.54665 -0.334618 373.1052
-81.24857 0.244331 372.7312
-88.04585 -0.865013 369.2966
-88.32686 -1.441368 369.6939
-88.04583 -0.865013 369.2966
-95.34135 -2.50779 366.4038
-95.04248 -1.969475 366.0573
-101.9755 -3.345192 362.5607
-108.698 -6.184502 359.5959
-115.1728 -9.124275 357.1344
-115.1629 -9.590538 357.4623
-115.1728 -9.12426 357.1345
-119.9504 -12.70345 354.3595
-120.066 -12.26313 354.0098
-123.2287 -15.80331 350.8923
-126.0144 -18.41563 349.2312
-126.1029 -18.02126 348.8857
-128.4625 -18.84611 348.0406
-128.4952 -18.50805 347.713
-128.4952 -18.50808 347.7129
-128.4847 -20.03271 346.8123
-18.74299 -9.950417 382.1382
-22.57319 -6.756599 387.7065
-26.52094 -4.317818 393.0342
-30.93822 -1.219612 396.1432
-36.86942 2.231544 396.5704
-44.00253 4.569221 395.8548
-51.33695 4.920662 393.8988
-57.68621 4.006721 389.9571
-63.70591 2.798241 385.7875
-63.70591 2.798241 385.7874
-69.51299 1.867882 381.6019
-74.94566 1.336983 376.8084
-80.85214 0.658714 372.2683
-87.66698 -0.451317 368.8059
-87.66698 -0.451347 368.8059
-94.66084 -1.572563 365.6153
-101.6538 -2.999092 362.1768
-108.4626 -5.856804 359.1953
-115.0409 -8.801262 356.7029
-115.0409 -8.801247 356.7029
-120.0218 -11.96423 353.5458
-123.235 -15.51711 350.4447
-126.0979 -17.7271 348.4457
-128.4502 -18.27235 347.3072
-128.4502 -18.27236 347.3072
-19.19503 -9.604774 381.4899
-23.12788 -6.256203 387.1422
-26.92269 -3.869942 392.3954
-31.04856 -0.962105 395.2805
-36.8138 2.369743 395.6536
-43.93385 4.739647 394.9214
-51.09376 5.124474 393.0455
-57.31139 4.253609 389.2767
-63.34361 3.034676 385.193
-69.14897 2.111061 381.0533
-69.14898 2.111046 381.0532
-74.51022 1.585625 376.2992
-80.38415 0.890846 371.7478
-87.21569 -0.221626 368.2535
-94.21728 -1.340645 365.102
-101.2911 -2.803566 361.7355
-108.1608 -5.692955 358.744
-114.7831 -8.668968 356.2118
-114.7831 -8.668953 356.2118
-119.8142 -11.87078 353.0266
-123.0963 -15.41261 349.9435
-125.9854 -17.59502 347.9474
-128.3275 -18.18359 346.8618
-128.3276 -18.18362 346.8618
-19.7327 -9.432915 380.859
-23.78954 -5.953621 386.5708
-27.4233 -3.600151 391.7511
-31.25422 -0.875999 394.4261
-36.84458 2.312111 394.7425
-43.91091 4.672676 393.9833
-50.83369 5.09388 392.1714
-56.88984 4.275383 388.5831
-62.9439 3.06118 384.5796
-62.94392 3.06118 384.5796
-68.76375 2.121529 380.4801
-68.76376 2.121544 380.4801
-74.03996 1.608315 375.7554
-79.87049 0.928459 371.1982
-86.7331 -0.182945 367.6878
-86.73309 -0.18293 367.6877
-93.7515 -1.291283 364.5636
-100.9129 -2.770042 361.2672
-107.8234 -5.703804 358.2857
-114.4632 -8.72332 355.7519
-119.5078 -11.97157 352.5598
-122.8418 -15.50228 349.4731
-125.7753 -17.65461 347.4596
-128.1404 -18.25445 346.4361
-128.1404 -18.25446 346.4361
-16.82511 -15.00105 376.6413
-20.34911 -9.421867 380.248
-24.53274 -5.858559 386.0105
-28.00268 -3.528984 391.1306
-31.55254 -0.974632 393.6128
-36.96215 2.062996 393.8745
-43.93382 4.383415 393.091
-50.5686 4.824318 391.3388
-56.44608 4.068626 387.9199
-62.53255 2.875053 383.9857
-62.53257 2.875053 383.9857
-68.39832 1.914009 379.9421
-68.39832 1.913994 379.9421
-73.59583 1.42141 375.2478
-79.36183 0.778084 370.6715
-86.24744 -0.329765 367.1415
-86.24744 -0.329781 367.1415
-93.29212 -1.426491 364.033
-100.544 -2.896294 360.8035
-107.4898 -5.866539 357.8704
-114.1162 -8.934258 355.3633
-114.1162 -8.934242 355.3634
-119.1494 -12.22523 352.1881
-122.5251 -15.74905 349.1007
-125.5049 -17.8865 347.0562
-127.9158 -18.46774 346.0816
-127.9158 -18.46774 346.0815
-21.00803 -9.588768 379.6987
-25.31422 -5.98571 385.4981
-28.63831 -3.654869 390.5519
-31.9388 -1.252098 392.8465
-37.15771 1.636238 393.0699
-43.99506 3.904503 392.297
-50.32172 4.342079 390.6063
-56.02328 3.653984 387.346
-62.15028 2.500008 383.4692
-62.15029 2.499992 383.4692
-68.07747 1.521309 379.4764
-73.21017 1.054817 374.8111
-78.89748 0.456795 370.2069
-85.78535 -0.652214 366.6433
-85.78535 -0.652199 366.6433
-92.86709 -1.739113 363.5421
-100.2119 -3.175926 360.3797
-107.1782 -6.15992 357.5221
-113.7609 -9.259468 355.0528
-113.7609 -9.259453 355.0528
-118.7744 -12.58138 351.9168
-122.1938 -16.10163 348.8528
-125.2175 -18.24139 346.7803
-127.6818 -18.7896 345.8289
-127.6818 -18.78962 345.8289
-21.00803 -9.588799 379.6986
-21.66259 -9.942009 379.2539
-25.31423 -5.985725 385.4981
-26.07371 -6.344551 385.0773
-28.63833 -3.654869 390.5519
-29.27801 -3.992668 390.0798
-31.93882 -1.252098 392.8464
-32.38548 -1.708458 392.2237
-37.42109 1.048866 392.412
-43.99508 3.904503 392.2969
-44.09481 3.250084 391.6551
-50.32172 4.342064 390.6063
-50.12566 3.671944 390.0335
-55.66166 3.06208 386.9111
-62.15028 2.500008 383.4693
-61.8303 1.969398 383.0765
-62.15028 2.499992 383.4693
-61.8303 1.969383 383.0765
-67.82059 0.980675 379.1125
-67.82059 0.98069 379.1125
-73.21017 1.054802 374.8111
-72.88845 0.529869 374.4522
-78.89748 0.456779 370.2069
-78.49201 -0.029808 369.8184
-85.78535 -0.652229 366.6433
-85.385 -1.138008 366.2339
-85.78534 -0.652214 366.6433
-85.385 -1.137993 366.2339
-92.51584 -2.208427 363.1361
-100.2119 -3.175941 360.3797
-99.93984 -3.586342 360.0271
-107.1782 -6.159935 357.522
-106.8922 -6.56823 357.2472
-113.7609 -9.259468 355.0527
-113.4261 -9.660286 354.8388
-113.7609 -9.259453 355.0527
-113.4261 -9.660271 354.8388
-118.4191 -12.99549 351.759
-121.8735 -16.51954 348.7253
-125.2175 -18.24137 346.7803
-124.9391 -18.67056 346.6354
-127.4566 -19.1806 345.6903
-127.6818 -18.78962 345.8288
-127.4566 -19.18061 345.6902
-14.6777 -13.38404 362.2437
-9.168678 -15.4351 357.6706
-14.95114 -14.2023 362.1298
-17.88756 -12.24866 369.6748
-18.18212 -13.11898 369.5412
-19.80851 -11.64161 375.6784
-20.09727 -12.44331 375.5361
-22.49396 -10.8429 378.8613
-22.77493 -11.68147 378.663
-9.168694 -15.43512 357.6706
-14.96896 -15.04998 362.1546
-18.20058 -14.05645 369.5017
-20.14671 -13.29767 375.527
-22.88947 -12.5548 378.7247
-14.73028 -15.87217 362.3186
-17.94599 -14.96935 369.5608
-19.96599 -14.1404 375.6479
-22.83752 -13.38452 379.0228
-9.168663 -15.4351 357.6706
-14.29023 -16.57478 362.5885
-17.4604 -15.77148 369.7077
-19.58445 -14.89036 375.8784
-22.63402 -14.09969 379.5206
-9.168678 -15.43511 357.6706
-13.69231 -17.11513 362.9419
-16.8054 -16.41031 369.9211
-19.04551 -15.49073 376.1938
-22.30377 -14.64577 380.1529
-13.69231 -17.11511 362.9418
-13.00537 -17.48283 363.3468
-16.8054 -16.4103 369.9211
-16.04416 -16.861 370.1797
-19.0455 -15.49072 376.1938
-18.39935 -15.92061 376.5651
-22.30379 -14.64578 380.1529
-21.88332 -15.00508 380.8565
-12.30033 -17.64346 363.7632
-15.21632 -17.10655 370.4717
-17.68525 -16.16505 376.9653
-21.40935 -15.18169 381.5919
-9.168686 -15.4351 357.6706
-11.54489 -17.6118 364.1967
-14.33501 -17.12011 370.7882
-16.92704 -16.2048 377.3898
-20.90701 -15.17829 382.3047
-9.168671 -15.43509 357.6706
-9.168648 -15.43509 357.6707
-11.54488 -17.61181 364.1967
-10.81319 -17.36815 364.6017
-14.335 -17.12011 370.7882
-13.47158 -16.88414 371.1018
-16.92703 -16.20478 377.3898
-16.1629 -16.02619 377.8133
-20.90701 -15.17826 382.3047
-20.37463 -14.99164 383.0109
-10.14983 -16.92083 364.955
-12.70712 -16.41785 371.3868
-15.48731 -15.6529 378.178
-19.86073 -14.6113 383.646
-9.168648 -15.4351 357.6706
-9.605316 -16.30331 365.2342
-12.09453 -15.75599 371.6219
-14.93084 -15.07919 378.4773
-19.40658 -14.02753 384.1405
-9.168663 -15.43509 357.6706
-9.605286 -16.30331 365.2342
-9.2304 -15.52165 365.4085
-12.09452 -15.75599 371.6219
-11.6777 -14.92558 371.7897
-14.54402 -14.32779 378.683
-19.06611 -13.26618 384.4362
-9.068779 -14.66955 365.4543
-11.49944 -14.00682 371.8748
-14.38537 -13.47772 378.7581
-18.89198 -12.39177 384.4806
-9.150826 -13.8404 365.3589
-11.58801 -13.08449 371.8642
-14.45713 -12.61946 378.7016
-18.88855 -11.51552 384.2783
-9.168655 -15.43509 357.6706
-9.465874 -13.04707 365.1301
-11.9365 -12.20596 371.7599
-14.73602 -11.81818 378.5269
-19.0332 -10.73773 383.8797
-9.16864 -15.43507 357.6707
-9.465858 -13.04707 365.1302
-9.9674 -12.43067 364.8075
-11.93649 -12.20595 371.7599
-12.49946 -11.4837 371.5801
-14.73601 -11.81818 378.5269
-15.2035 -11.12896 378.2493
-19.03318 -10.73772 383.8797
-19.31915 -10.06858 383.3058
-10.63281 -11.98495 364.4053
-13.23315 -10.93912 371.3351
-15.78996 -10.61184 377.9132
-19.68207 -9.599823 382.6676
-11.35154 -11.75247 363.9887
-14.06336 -10.60732 371.0572
-16.49117 -10.2676 377.5133
-20.13677 -9.307316 381.9393
-12.08932 -11.71354 363.5754
-14.9325 -10.49631 370.7603
-17.22942 -10.12313 377.0978
-20.62292 -9.208557 381.2088
-12.84309 -11.85394 363.1687
-15.80894 -10.60816 370.4527
-17.97105 -10.19363 376.6846
-21.12351 -9.318527 380.5034
-13.56173 -12.18138 362.7942
-16.6376 -10.94532 370.1542
-18.69057 -10.47164 376.2849
-21.6342 -9.630684 379.8288
-13.56174 -12.18141 362.7942
-14.18677 -12.69185 362.4783
-16.63761 -10.94534 370.1542
-17.3474 -11.50021 369.8879
-18.69058 -10.47164 376.2849
-19.31573 -10.95964 375.9424
-21.63423 -9.630684 379.8287
-22.0991 -10.14568 379.2682
-8.547191 -13.0607 354.0963
-2.688396 -15.668 350.3087
-8.952256 -13.7563 353.7657
-13.07148 -12.35388 360.8672
-13.50299 -13.09085 360.5029
-16.15279 -12.24669 366.3985
-16.56241 -12.91818 366.0413
-2.688411 -15.668 350.3087
-9.152549 -14.56572 353.6099
-13.70788 -13.97569 360.2666
-16.78632 -13.7207 365.8456
-9.135797 -15.43669 353.6409
-13.67086 -14.92067 360.181
-16.81904 -14.59006 365.8202
-2.688394 -15.66801 350.3088
-8.927056 -16.26036 353.8362
-13.41135 -15.83128 360.246
-16.66673 -15.43814 365.9568
-8.553512 -16.98157 354.1749
-12.97193 -16.63861 360.4404
-16.35305 -16.19598 366.2355
-8.5535 -16.98155 354.1749
-8.07108 -17.56818 354.6156
-12.97194 -16.6386 360.4404
-12.40259 -17.29982 360.7373
-15.91464 -16.82649 366.6234
-7.530673 -17.96324 355.1137
-11.73464 -17.78691 361.1212
-15.37947 -17.30133 367.0902
-2.688397 -15.66798 350.3087
-6.906039 -18.18988 355.6777
-10.97291 -18.06955 361.5871
-14.76509 -17.59546 367.6312
-2.688396 -15.668 350.3088
-2.688378 -15.668 350.3088
-6.906037 -18.18988 355.6777
-6.25298 -18.20352 356.254
-10.9729 -18.06956 361.5871
-10.17522 -18.1089 362.0986
-14.76508 -17.59543 367.6312
-14.0991 -17.68228 368.2178
-5.610255 -17.99738 356.8102
-9.41673 -17.89899 362.6122
-13.46292 -17.55171 368.772
-2.688378 -15.66801 350.3088
-5.027732 -17.58727 357.3084
-8.750056 -17.45647 363.0899
-12.88282 -17.18961 369.2826
-2.68838 -15.668 350.3087
-5.027715 -17.58728 357.3084
-4.54783 -16.96146 357.7085
-8.750054 -17.45648 363.09
-8.218617 -16.7935 363.5017
-12.40519 -16.60066 369.7087
-4.226239 -16.19485 357.9598
-7.87629 -15.97359 363.8078
-12.0936 -15.8399 369.9872
-4.108468 -15.36711 358.0253
-7.764741 -15.06863 363.9729
-11.96892 -14.99307 370.098
-2.68838 -15.668 350.3088
-4.188914 -14.49442 357.9118
-7.88778 -14.12592 363.9904
-12.02578 -14.13036 370.0448
-2.688366 -15.66798 350.3088
-4.188897 -14.49443 357.9118
-4.462003 -13.72943 357.6365
-7.887765 -14.12592 363.9904
-8.22996 -13.26712 363.8626
-12.26163 -13.31142 369.8342
-4.908267 -13.0741 357.2187
-8.756587 -12.52522 363.6035
-12.63314 -12.618 369.5095
-5.446555 -12.60693 356.7327
-9.411975 -11.95737 363.2505
-13.13521 -12.05107 369.066
-6.044291 -12.32047 356.2061
-10.14624 -11.58777 362.8262
-13.71075 -11.66328 368.5591
-2.688409 -15.66801 350.3088
-6.69628 -12.20239 355.6455
-10.93167 -11.42757 362.3438
-14.33508 -11.48042 368.0092
-7.361541 -12.27689 355.0836
-11.72101 -11.49597 361.8322
-14.98498 -11.50345 367.4331
-7.361537 -12.2769 355.0836
-7.989682 -12.55884 354.5573
-11.72103 -11.49599 361.8322
-12.45044 -11.80711 361.3285
-14.985 -11.50346 367.4331
-15.60243 -11.75974 366.886
-1.764935 -9.07489 337.2629
3.651919 -8.631958 332.1706
-1.929908 -9.841064 336.8847
-4.589999 -10.96413 344.6968
-4.76998 -11.77551 344.2829
-6.165246 -12.67667 350.5864
-6.349561 -13.42038 350.1873
-8.713412 -13.39511 353.8987
-8.888736 -14.15347 353.4343
3.651906 -8.631958 332.1706
-1.828822 -10.64149 336.6227
-4.661496 -12.6384 343.9302
-6.281104 -14.22063 349.8918
-8.877181 -15.00475 353.2002
-1.468394 -11.42497 336.4958
-4.279935 -13.46925 343.6737
-5.978017 -15.01788 349.7185
-8.69115 -15.86807 353.2003
3.651937 -8.631958 332.1707
-0.9183197 -12.10133 336.5055
-3.67945 -14.19069 343.5332
-5.481891 -15.73425 349.6761
-8.357629 -16.66763 353.4243
3.651917 -8.631958 332.1706
-0.2289944 -12.63007 336.6456
-2.929609 -14.75615 343.5074
-4.84513 -16.31532 349.7612
-7.91311 -17.33478 353.8298
-0.2289991 -12.63004 336.6456
0.5279646 -13.00145 336.891
-2.929611 -14.75613 343.5074
-2.097696 -15.1451 343.5857
-4.845122 -16.31532 349.7613
-4.122165 -16.73972 349.9547
-7.913123 -17.33478 353.8298
-7.400409 -17.83775 354.3637
1.27499 -13.18097 337.2164
-1.226037 -15.34384 343.7634
-3.355716 -16.99057 350.2365
-6.857881 -18.17291 354.9882
3.65191 -8.631943 332.1706
2.046445 -13.1794 337.622
-0.3318958 -15.32646 344.0414
-2.572281 -17.05209 350.6095
-6.313699 -18.32864 355.6516
3.651927 -8.631958 332.1707
3.651952 -8.631958 332.1707
2.046454 -13.1794 337.622
2.763246 -12.97458 338.0726
-0.3318796 -15.32648 344.0414
0.5099449 -15.07848 344.401
-2.572276 -17.05206 350.6095
-1.813193 -16.90903 351.055
-6.313701 -18.32863 355.6516
-5.765578 -18.3069 356.3699
3.380906 -12.57339 338.5443
1.220267 -14.62164 344.8131
-1.172457 -16.57872 351.5124
-5.267272 -18.08412 357.087
3.852626 -12.00739 339.0057
1.750134 -13.98932 345.2467
-0.6815176 -16.05829 351.9776
-4.865594 -17.63452 357.7413
3.651933 -8.631943 332.1706
3.852658 -12.00739 339.0057
4.127002 -11.27974 339.4266
1.750145 -13.98933 345.2467
2.058753 -13.20773 345.6772
-0.3890753 -15.36742 352.4178
-4.614232 -16.97118 358.2703
4.172194 -10.47659 339.7541
2.113848 -12.35295 346.0638
-0.3445539 -14.57629 352.7721
-4.559852 -16.14487 358.6037
3.970214 -9.685364 339.945
1.898317 -11.50398 346.3662
-0.5377522 -13.76924 353.0094
-4.691115 -15.26138 358.7084
3.651942 -8.631943 332.1707
3.533917 -8.919006 340.0026
1.425642 -10.70453 346.5702
-0.9357576 -13.00783 353.1198
-4.968398 -14.42732 358.5977
3.651956 -8.631943 332.1707
3.533935 -8.919022 340.0026
2.93142 -8.314896 339.9153
1.425656 -10.70451 346.5702
0.7575045 -10.0584 346.654
-0.9357395 -13.00784 353.1198
-1.511612 -12.34555 353.0988
-4.968381 -14.42732 358.5978
-5.382178 -13.65808 358.288
2.18516 -7.868484 339.6985
-0.05922222 -9.582291 346.6197
-2.18524 -11.84245 352.967
-5.848714 -13.06602 357.8516
1.414673 -7.624054 339.3973
-0.9441872 -9.308228 346.4844
-2.952717 -11.49677 352.7188
-6.387717 -12.6223 357.2725
0.6522913 -7.563889 339.0342
-1.838422 -9.239487 346.2576
-3.730264 -11.33763 352.3892
-6.931205 -12.36311 356.6265
3.651921 -8.631973 332.1707
-0.100687 -7.675323 338.6172
-2.709832 -9.375854 345.9456
-4.481334 -11.38 351.9894
-7.458434 -12.30885 355.9342
-0.790946 -7.966293 338.1669
-3.502327 -9.717789 345.5655
-5.181012 -11.6167 351.532
-7.965665 -12.45457 355.2029
-0.7909527 -7.966309 338.1668
-1.359491 -8.432785 337.7084
-3.502332 -9.717804 345.5655
-4.145137 -10.25499 345.1402
-5.181018 -11.6167 351.532
-5.754567 -12.05351 351.0562
-7.965697 -12.45457 355.2029
-8.391923 -12.81993 354.5097
POLYGONS 1486 5944
3 0 1 2
3 0 2 3
3 3 2 4
3 3 4 5
3 5 4 6
3 5 6 7
3 7 6 8
3 7 8 9
3 9 8 10
3 9 10 11
3 11 10 12
3 11 12 13
3 13 12 14
3 13 14 15
3 15 14 16
3 15 16 17
3 17 16 18
3 17 18 19
3 19 18 20
3 19 21 22
3 22 21 23
3 22 23 24
3 24 23 25
3 24 25 26
3 26 25 27
3 26 27 28
3 28 27 29
3 28 29 30
3 30 29 31
3 30 31 32
3 32 31 33
3 32 33 34
3 34 33 35
3 36 37 38
3 38 37 39
3 38 39 40
3 40 39 41
3 40 41 42
3 42 41 43
3 42 43 44
3 44 43 45
3 44 46 47
3 1 48 2
3 2 48 49
3 2 49 4
3 4 49 50
3 4 50 6
3 6 50 51
3 6 51 8
3 8 51 52
3 8 52 10
3 10 52 53
3 10 53 12
3 12 53 54
3 12 54 14
3 14 54 55
3 14 55 16
3 16 55 56
3 16 56 18
3 18 56 57
3 18 58 20
3 20 58 59
3 21 60 23
3 23 60 61
3 23 61 25
3 25 61 62
3 25 62 27
3 27 62 63
3 27 64 29
3 29 64 65
3 29 65 31
3 31 65 66
3 31 66 33
3 33 66 67
3 33 67 35
3 35 67 68
3 37 69 39
3 39 69 70
3 39 70 41
3 41 70 71
3 41 71 43
3 43 71 72
3 43 72 45
3 45 72 73
3 46 74 47
3 48 1 49
3 49 1 75
3 49 75 50
3 50 75 76
3 50 76 51
3 51 76 77
3 51 77 52
3 52 77 78
3 52 78 53
3 53 78 79
3 53 79 54
3 54 79 80
3 54 80 55
3 55 80 81
3 55 81 56
3 56 81 82
3 56 82 57
3 57 82 83
3 58 83 59
3 59 83 84
3 60 85 61
3 61 85 86
3 61 86 62
3 62 86 87
3 62 87 63
3 63 87 88
3 64 89 65
3 65 89 90
3 65 90 66
3 66 90 91
3 66 91 67
3 67 91 92
3 67 92 68
3 68 92 93
3 69 94 70
3 70 94 95
3 70 95 71
3 71 95 96
3 71 96 72
3 72 96 97
3 72 97 73
3 73 97 98
3 74 99 47
3 47 99 100
3 75 1 101
3 75 101 76
3 76 101 102
3 76 102 77
3 77 102 103
3 77 103 78
3 78 103 104
3 78 104 79
3 79 104 105
3 79 105 80
3 80 105 106
3 80 106 81
3 81 106 107
3 81 107 82
3 82 107 108
3 82 108 83
3 83 108 109
3 83 109 84
3 84 109 110
3 85 111 86
3 86 111 112
3 86 112 87
3 87 112 113
3 87 113 88
3 88 113 114
3 89 115 90
3 90 115 116
3 90 116 91
3 91 116 117
3 91 117 92
3 92 117 118
3 92 118 93
3 93 118 119
3 94 120 95
3 95 120 121
3 95 121 96
3 96 121 122
3 96 122 97
3 97 122 123
3 97 123 98
3 98 123 124
3 99 125 100
3 100 125 126
3 1 127 101
3 101 127 128
3 101 128 102
3 102 128 129
3 102 129 103
3 103 129 130
3 103 130 104
3 104 130 131
3 104 131 105
3 105 131 132
3 105 132 106
3 106 132 133
3 106 133 107
3 107 133 134
3 107 134 108
3 108 134 135
3 108 135 109
3 109 135 136
3 109 137 110
3 110 137 138
3 111 139 112
3 112 139 140
3 112 140 113
3 113 140 141
3 113 141 114
3 114 141 142
3 115 143 116
3 116 143 144
3 116 144 117
3 117 144 145
3 117 145 118
3 118 145 146
3 118 146 119
3 119 146 147
3 120 148 121
3 121 148 149
3 121 149 122
3 122 149 150
3 122 150 123
3 123 150 151
3 123 151 124
3 124 151 152
3 125 153 126
3 154 1 155
3 154 155 156
3 156 155 157
3 156 157 158
3 158 157 159
3 158 159 160
3 160 159 161
3 160 161 162
3 162 161 163
3 162 163 164
3 164 163 165
3 164 165 166
3 166 165 167
3 166 167 168
3 168 167 169
3 168 169 170
3 170 169 171
3 137 172 138
3 138 172 173
3 139 174 140
3 140 174 175
3 140 175 141
3 141 175 176
3 141 176 142
3 142 176 177
3 143 178 179
3 179 178 180
3 179 180 145
3 145 180 181
3 145 181 146
3 146 181 182
3 146 182 147
3 147 182 183
3 148 184 149
3 149 184 185
3 149 185 186
3 186 185 187
3 186 187 151
3 151 187 188
3 151 188 152
3 152 188 189
3 153 190 47
3 155 1 191
3 155 191 157
3 157 191 192
3 157 192 159
3 159 192 193
3 159 193 161
3 161 193 194
3 161 194 163
3 163 194 195
3 163 195 165
3 165 195 196
3 165 196 167
3 167 196 197
3 167 197 169
3 169 197 198
3 169 198 171
3 171 198 199
3 172 200 173
3 173 200 201
3 174 202 175
3 175 202 203
3 175 203 176
3 176 203 204
3 176 204 177
3 177 204 205
3 178 206 180
3 180 206 207
3 180 207 181
3 181 207 208
3 181 208 182
3 182 208 209
3 182 209 183
3 183 209 210
3 184 211 185
3 185 211 212
3 185 212 187
3 187 212 213
3 187 213 188
3 188 213 214
3 188 214 189
3 189 214 215
3 190 216 100
3 191 1 217
3 191 217 192
3 192 217 218
3 192 218 193
3 193 218 219
3 193 219 194
3 194 219 220
3 194 220 195
3 195 220 221
3 195 221 196
3 196 221 222
3 196 222 197
3 197 222 223
3 197 223 198
3 198 223 224
3 198 224 199
3 199 224 225
3 200 226 201
3 201 226 227
3 202 227 203
3 203 227 228
3 203 228 204
3 204 228 229
3 204 229 205
3 205 229 230
3 206 231 207
3 207 231 232
3 207 232 208
3 208 232 233
3 208 233 209
3 209 233 234
3 209 234 210
3 210 234 235
3 211 235 212
3 212 235 236
3 212 236 213
3 213 236 237
3 213 237 214
3 214 237 238
3 214 238 215
3 215 238 239
3 216 240 47
3 47 240 100
3 241 242 217
3 217 242 243
3 217 243 244
3 244 243 245
3 244 245 246
3 246 245 247
3 246 247 248
3 248 247 249
3 248 249 250
3 250 249 251
3 250 251 252
3 252 251 253
3 252 253 254
3 254 253 255
3 254 255 256
3 256 255 257
3 256 257 258
3 258 257 259
3 260 261 262
3 262 261 263
3 227 264 265
3 265 264 266
3 265 266 267
3 267 266 268
3 267 268 269
3 269 268 270
3 271 270 272
3 272 270 273
3 272 273 274
3 274 273 275
3 274 275 276
3 276 275 277
3 276 277 278
3 278 277 279
3 280 281 282
3 282 281 283
3 282 283 284
3 284 283 285
3 284 285 286
3 286 285 287
3 286 287 288
3 288 287 289
3 239 290 47
3 47 290 126
3 242 1 243
3 243 1 291
3 243 291 245
3 245 291 292
3 245 292 247
3 247 292 293
3 247 293 249
3 249 293 294
3 249 294 251
3 251 294 295
3 251 295 253
3 253 295 296
3 253 296 255
3 255 296 297
3 255 297 257
3 257 297 298
3 257 298 259
3 259 298 299
3 261 299 263
3 263 299 300
3 264 300 266
3 266 300 301
3 266 301 268
3 268 301 302
3 268 302 270
3 270 302 303
3 270 304 273
3 273 304 305
3 273 305 275
3 275 305 306
3 275 306 277
3 277 306 307
3 277 307 279
3 279 307 308
3 281 309 283
3 283 309 310
3 283 310 285
3 285 310 311
3 285 311 287
3 287 311 312
3 287 312 289
3 289 312 313
3 290 314 126
3 126 314 47
3 291 315 316
3 291 316 292
3 292 316 317
3 292 317 293
3 293 317 318
3 293 318 294
3 294 318 319
3 294 319 295
3 295 319 320
3 295 320 296
3 296 320 321
3 296 321 297
3 297 321 322
3 297 322 298
3 298 322 323
3 298 323 299
3 299 323 324
3 299 324 300
3 300 324 325
3 300 326 301
3 301 326 327
3 301 327 302
3 302 327 328
3 302 328 303
3 303 328 329
3 304 330 305
3 305 330 331
3 305 331 306
3 306 331 332
3 306 332 307
3 307 332 333
3 307 333 308
3 308 333 334
3 309 334 310
3 310 334 335
3 310 335 311
3 311 335 336
3 311 336 312
3 312 336 337
3 312 337 313
3 313 337 338
3 314 339 47
3 340 1 341
3 340 341 342
3 342 341 343
3 342 343 318
3 318 343 344
3 318 344 319
3 319 344 345
3 319 345 320
3 320 345 346
3 320 346 321
3 321 346 347
3 321 347 322
3 322 347 348
3 322 348 323
3 323 348 349
3 323 349 324
3 324 349 350
3 324 351 325
3 325 351 352
3 326 352 353
3 353 352 354
3 353 354 355
3 355 354 356
3 355 356 330
3 330 356 357
3 358 359 331
3 331 359 360
3 331 360 361
3 361 360 362
3 361 362 333
3 333 362 363
3 333 363 334
3 334 363 364
3 334 365 335
3 335 365 366
3 335 366 336
3 336 366 367
3 336 367 337
3 337 367 368
3 337 368 369
3 369 368 370
3 339 371 126
3 1 315 341
3 341 315 372
3 341 372 343
3 343 372 373
3 343 373 344
3 344 373 374
3 344 374 345
3 345 374 375
3 345 375 346
3 346 375 376
3 346 376 347
3 347 376 377
3 347 377 348
3 348 377 378
3 348 378 349
3 349 378 379
3 349 379 350
3 350 379 380
3 351 381 352
3 352 381 382
3 352 383 354
3 354 383 384
3 354 384 356
3 356 384 385
3 356 385 357
3 357 385 386
3 359 387 360
3 360 387 388
3 360 388 362
3 362 388 389
3 362 389 363
3 363 389 390
3 363 390 364
3 364 390 391
3 365 391 366
3 366 391 392
3 366 392 367
3 367 392 393
3 367 393 368
3 368 393 394
3 368 394 370
3 370 394 395
3 371 396 47
3 315 1 372
3 372 1 397
3 372 397 373
3 373 397 398
3 373 398 374
3 374 398 399
3 374 399 375
3 375 399 400
3 375 400 376
3 376 400 401
3 376 401 377
3 377 401 402
3 377 402 378
3 378 402 403
3 378 403 379
3 379 403 404
3 379 404 380
3 380 404 405
3 381 405 382
3 382 405 406
3 383 407 384
3 384 407 408
3 384 408 385
3 385 408 409
3 385 409 386
3 386 409 410
3 387 411 388
3 388 411 412
3 388 412 389
3 389 412 413
3 389 413 390
3 390 413 414
3 390 414 391
3 391 414 415
3 391 416 392
3 392 416 417
3 392 417 393
3 393 417 418
3 393 418 394
3 394 418 419
3 394 419 395
3 395 419 420
3 396 421 47
3 1 422 397
3 397 422 423
3 397 423 398
3 398 423 424
3 398 424 399
3 399 424 425
3 399 425 400
3 400 425 426
3 400 426 401
3 401 426 427
3 401 427 402
3 402 427 428
3 402 428 403
3 403 428 429
3 403 429 404
3 404 429 430
3 404 430 405
3 405 430 431
3 405 431 406
3 406 431 432
3 407 432 408
3 408 432 433
3 408 433 409
3 409 433 434
3 409 434 410
3 410 434 435
3 411 436 412
3 412 436 437
3 412 437 413
3 413 437 438
3 413 438 414
3 414 438 439
3 414 439 415
3 415 439 440
3 416 440 417
3 417 440 441
3 417 441 418
3 418 441 442
3 418 442 419
3 419 442 443
3 419 443 420
3 420 443 444
3 421 445 47
3 446 1 447
3 447 1 448
3 447 448 449
3 449 448 450
3 449 450 425
3 425 450 451
3 425 451 452
3 452 451 453
3 452 453 454
3 454 453 455
3 454 455 456
3 456 455 457
3 456 457 458
3 458 457 459
3 458 459 460
3 460 459 461
3 460 461 462
3 462 461 463
3 464 463 465
3 465 463 466
3 465 466 467
3 467 466 468
3 467 468 469
3 469 468 470
3 469 470 435
3 435 470 471
3 472 473 474
3 474 473 475
3 474 475 438
3 438 475 476
3 438 476 439
3 439 476 477
3 439 477 440
3 440 477 478
3 479 480 481
3 481 480 482
3 481 482 442
3 442 482 483
3 442 483 484
3 484 483 485
3 484 485 486
3 486 485 487
3 444 488 489
3 489 488 47
3 448 1 490
3 448 490 450
3 450 490 491
3 450 491 451
3 451 491 492
3 451 492 453
3 453 492 493
3 453 493 455
3 455 493 494
3 455 494 457
3 457 494 495
3 457 495 459
3 459 495 496
3 459 496 461
3 461 496 497
3 461 497 463
3 463 497 498
3 463 499 466
3 466 499 500
3 466 500 468
3 468 500 501
3 468 501 470
3 470 501 502
3 470 502 471
3 471 502 503
3 473 504 475
3 475 504 505
3 475 505 476
3 476 505 506
3 476 506 477
3 477 506 507
3 477 507 478
3 478 507 508
3 480 509 482
3 482 509 510
3 482 510 483
3 483 510 511
3 483 511 485
3 485 511 512
3 485 512 487
3 487 512 513
3 488 514 47
3 1 422 490
3 490 422 515
3 490 515 491
3 491 515 516
3 491 516 492
3 492 516 517
3 492 517 493
3 493 517 518
3 493 518 494
3 494 518 519
3 494 519 495
3 495 519 520
3 495 520 496
3 496 520 521
3 496 521 497
3 497 521 522
3 497 522 498
3 498 522 523
3 499 523 500
3 500 523 524
3 500 525 501
3 501 525 526
3 501 526 502
3 502 526 527
3 502 527 503
3 503 527 528
3 504 528 505
3 505 528 529
3 505 529 506
3 506 529 530
3 506 530 507
3 507 530 531
3 507 531 508
3 508 531 532
3 509 533 510
3 510 533 534
3 510 534 511
3 511 534 535
3 511 535 512
3 512 535 536
3 512 536 513
3 513 536 537
3 514 538 47
3 422 315 515
3 515 315 539
3 515 539 516
3 516 539 540
3 516 540 517
3 517 540 541
3 517 541 518
3 518 541 542
3 518 542 519
3 519 542 543
3 519 543 520
3 520 543 544
3 520 544 521
3 521 544 545
3 521 545 522
3 522 545 546
3 522 546 523
3 523 546 547
3 523 548 524
3 524 548 549
3 525 550 526
3 526 550 551
3 526 551 527
3 527 551 552
3 527 552 528
3 528 552 553
3 528 554 529
3 529 554 555
3 529 555 530
3 530 555 556
3 530 556 531
3 531 556 557
3 531 557 532
3 532 557 558
3 533 558 534
3 534 558 559
3 534 559 535
3 535 559 560
3 535 560 536
3 536 560 561
3 536 561 537
3 537 561 562
3 538 563 126
3 315 564 539
3 539 564 565
3 539 565 540
3 540 565 566
3 540 566 541
3 541 566 567
3 541 567 542
3 542 567 568
3 542 568 543
3 543 568 569
3 543 569 544
3 544 569 570
3 544 570 545
3 545 570 571
3 545 571 546
3 546 571 572
3 546 572 547
3 547 572 573
3 548 574 549
3 549 574 575
3 550 576 551
3 551 576 577
3 551 577 552
3 552 577 578
3 552 578 553
3 553 578 579
3 554 580 555
3 555 580 581
3 555 581 556
3 556 581 582
3 556 582 557
3 557 582 583
3 557 583 558
3 558 583 584
3 558 585 559
3 559 585 586
3 559 586 560
3 560 586 587
3 560 587 561
3 561 587 588
3 561 588 562
3 562 588 589
3 563 590 47
3 564 315 565
3 565 315 591
3 565 591 566
3 566 591 592
3 566 592 567
3 567 592 593
3 567 593 568
3 568 593 594
3 568 594 569
3 569 594 595
3 569 595 570
3 570 595 596
3 570 596 571
3 571 596 597
3 571 597 572
3 572 597 598
3 572 598 573
3 573 598 599
3 574 600 575
3 575 600 601
3 576 601 577
3 577 601 602
3 577 602 578
3 578 602 603
3 578 603 579
3 579 603 604
3 580 605 581
3 581 605 606
3 581 606 582
3 582 606 607
3 582 607 583
3 583 607 608
3 583 608 584
3 584 608 609
3 585 610 586
3 586 610 611
3 586 611 587
3 587 611 612
3 587 612 588
3 588 612 613
3 588 613 589
3 589 613 614
3 590 615 47
3 315 241 616
3 616 241 617
3 616 617 618
3 618 617 619
3 618 619 620
3 620 619 621
3 620 621 622
3 622 621 623
3 622 623 595
3 595 623 624
3 595 624 625
3 625 624 626
3 625 626 627
3 627 626 628
3 627 628 598
3 598 628 629
3 598 629 630
3 630 629 631
3 632 633 601
3 601 633 634
3 601 635 636
3 636 635 637
3 636 637 638
3 638 637 639
3 638 639 640
3 640 639 641
3 642 643 606
3 606 643 644
3 606 644 645
3 645 644 646
3 645 646 647
3 647 646 648
3 647 648 649
3 649 648 650
3 651 652 611
3 611 652 653
3 611 653 612
3 612 653 654
3 612 654 655
3 655 654 656
3 655 656 614
3 614 656 657
3 658 659 126
3 241 1 617
3 617 1 0
3 617 0 619
3 619 0 3
3 619 3 621
3 621 3 5
3 621 5 623
3 623 5 7
3 623 7 624
3 624 7 9
3 624 9 626
3 626 9 11
3 626 11 628
3 628 11 13
3 628 13 629
3 629 13 15
3 629 15 631
3 631 15 17
3 633 17 634
3 634 17 19
3 635 19 637
3 637 19 22
3 637 22 639
3 639 22 24
3 639 24 641
3 641 24 26
3 643 26 644
3 644 26 28
3 644 28 646
3 646 28 30
3 646 30 648
3 648 30 32
3 648 32 650
3 650 32 34
3 652 36 653
3 653 36 38
3 653 38 654
3 654 38 40
3 654 40 656
3 656 40 42
3 656 42 657
3 657 42 44
3 659 44 126
3 660 661 662
3 660 662 663
3 663 662 664
3 663 664 665
3 665 664 666
3 665 666 667
3 667 666 668
3 661 669 662
3 662 669 670
3 662 670 664
3 664 670 671
3 664 671 666
3 666 671 672
3 666 672 668
3 668 672 673
3 669 661 670
3 670 661 674
3 670 674 671
3 671 674 675
3 671 675 672
3 672 675 676
3 672 676 673
3 673 676 677
3 674 678 679
3 674 679 675
3 675 679 680
3 675 680 676
3 676 680 681
3 676 681 677
3 677 681 682
3 678 683 679
3 679 683 684
3 679 684 680
3 680 684 685
3 680 685 681
3 681 685 686
3 681 686 682
3 682 686 687
3 661 678 688
3 688 678 689
3 688 689 690
3 690 689 691
3 690 691 692
3 692 691 693
3 692 693 694
3 694 693 695
3 678 661 689
3 689 661 696
3 689 696 691
3 691 696 697
3 691 697 693
3 693 697 698
3 693 698 695
3 695 698 699
3 661 700 696
3 696 700 701
3 696 701 697
3 697 701 702
3 697 702 698
3 698 702 703
3 698 703 699
3 699 703 704
3 705 706 707
3 707 706 708
3 707 708 709
3 709 708 710
3 709 710 711
3 711 710 712
3 711 712 713
3 713 712 714
3 706 661 708
3 708 661 715
3 708 715 710
3 710 715 716
3 710 716 712
3 712 716 717
3 712 717 714
3 714 717 718
3 661 719 715
3 715 719 720
3 715 720 716
3 716 720 721
3 716 721 717
3 717 721 722
3 717 722 718
3 718 722 723
3 724 678 725
3 725 678 726
3 725 726 727
3 727 726 728
3 727 728 722
3 722 728 729
3 722 729 723
3 723 729 730
3 678 719 726
3 726 719 731
3 726 731 728
3 728 731 732
3 728 732 729
3 729 732 733
3 729 733 730
3 730 733 734
3 719 678 731
3 731 678 735
3 731 735 732
3 732 735 736
3 732 736 733
3 733 736 737
3 733 737 734
3 734 737 738
3 678 739 735
3 735 739 740
3 735 740 736
3 736 740 741
3 736 741 737
3 737 741 742
3 737 742 738
3 738 742 743
3 744 661 745
3 745 661 746
3 745 746 747
3 747 746 748
3 747 748 749
3 749 748 750
3 749 750 751
3 751 750 752
3 661 700 746
3 746 700 753
3 746 753 748
3 748 753 754
3 748 754 750
3 750 754 755
3 750 755 752
3 752 755 756
3 700 739 753
3 753 739 757
3 753 757 754
3 754 757 758
3 754 758 755
3 755 758 759
3 755 759 756
3 756 759 760
3 739 724 757
3 757 724 761
3 757 761 758
3 758 761 762
3 758 762 759
3 759 762 763
3 759 763 760
3 760 763 764
3 724 683 761
3 761 683 765
3 761 765 762
3 762 765 766
3 762 766 763
3 763 766 767
3 763 767 764
3 764 767 768
3 683 724 765
3 765 724 769
3 765 769 766
3 766 769 770
3 766 770 767
3 767 770 771
3 767 771 768
3 768 771 772
3 724 705 773
3 773 705 774
3 773 774 775
3 775 774 776
3 775 776 777
3 777 776 778
3 777 778 779
3 779 778 780
3 705 661 774
3 774 661 660
3 774 660 776
3 776 660 663
3 776 663 778
3 778 663 665
3 778 665 780
3 780 665 667
3 781 782 783
3 781 783 784
3 784 783 785
3 784 785 786
3 786 785 787
3 782 788 783
3 783 788 789
3 783 789 785
3 785 789 790
3 785 790 787
3 787 790 791
3 788 782 789
3 789 782 792
3 789 792 790
3 790 792 793
3 790 793 791
3 791 793 794
3 782 795 792
3 792 795 796
3 792 796 793
3 793 796 797
3 793 797 794
3 794 797 798
3 795 782 796
3 796 782 799
3 796 799 797
3 797 799 800
3 797 800 798
3 798 800 801
3 802 795 803
3 802 803 804
3 804 803 805
3 804 805 801
3 801 805 806
3 803 782 807
3 803 807 805
3 805 807 808
3 805 808 806
3 806 808 809
3 782 810 807
3 807 810 811
3 807 811 808
3 808 811 812
3 808 812 809
3 809 812 813
3 814 815 816
3 816 815 817
3 816 817 818
3 818 817 819
3 818 819 820
3 820 819 821
3 815 782 817
3 817 782 822
3 817 822 819
3 819 822 823
3 819 823 821
3 821 823 824
3 782 825 822
3 822 825 826
3 822 826 823
3 823 826 827
3 823 827 824
3 824 827 828
3 829 795 830
3 830 795 831
3 830 831 832
3 832 831 833
3 832 833 828
3 828 833 834
3 795 825 831
3 831 825 835
3 831 835 833
3 833 835 836
3 833 836 834
3 834 836 837
3 825 795 835
3 835 795 838
3 835 838 836
3 836 838 839
3 836 839 837
3 837 839 840
3 795 841 838
3 838 841 842
3 838 842 839
3 839 842 843
3 839 843 840
3 840 843 844
3 845 782 846
3 846 782 847
3 846 847 848
3 848 847 849
3 848 849 844
3 844 849 850
3 782 810 847
3 847 810 851
3 847 851 849
3 849 851 852
3 849 852 850
3 850 852 853
3 810 841 851
3 851 841 854
3 851 854 852
3 852 854 855
3 852 855 853
3 853 855 856
3 841 829 854
3 854 829 857
3 854 857 855
3 855 857 858
3 855 858 856
3 856 858 859
3 829 860 857
3 857 860 861
3 857 861 858
3 858 861 862
3 858 862 859
3 859 862 863
3 860 829 861
3 861 829 864
3 861 864 862
3 862 864 865
3 862 865 863
3 863 865 866
3 829 814 867
3 867 814 868
3 867 868 869
3 869 868 870
3 869 870 871
3 871 870 872
3 814 782 868
3 868 782 781
3 868 781 870
3 870 781 784
3 870 784 872
3 872 784 786
3 873 874 875
3 873 875 876
3 876 875 877
3 876 877 878
3 878 877 879
3 878 879 880
3 880 879 881
3 874 882 875
3 875 882 883
3 875 883 877
3 877 883 884
3 877 884 879
3 879 884 885
3 879 885 881
3 881 885 886
3 882 874 883
3 883 874 887
3 883 887 884
3 884 887 888
3 884 888 885
3 885 888 889
3 885 889 886
3 886 889 890
3 874 891 887
3 887 891 892
3 887 892 888
3 888 892 893
3 888 893 889
3 889 893 894
3 889 894 890
3 890 894 895
3 891 896 892
3 892 896 897
3 892 897 893
3 893 897 898
3 893 898 894
3 894 898 899
3 894 899 895
3 895 899 900
3 874 891 901
3 901 891 902
3 901 902 903
3 903 902 904
3 903 904 905
3 905 904 906
3 905 906 907
3 907 906 908
3 902 874 909
3 902 909 904
3 904 909 910
3 904 910 906
3 906 910 911
3 906 911 908
3 908 911 912
3 874 913 909
3 909 913 914
3 909 914 910
3 910 914 915
3 910 915 911
3 911 915 916
3 911 916 912
3 912 916 917
3 918 919 920
3 920 919 921
3 920 921 922
3 922 921 923
3 922 923 924
3 924 923 925
3 924 925 926
3 926 925 927
3 919 874 921
3 921 874 928
3 921 928 923
3 923 928 929
3 923 929 925
3 925 929 930
3 925 930 927
3 927 930 931
3 874 919 928
3 928 919 932
3 928 932 929
3 929 932 933
3 929 933 930
3 930 933 934
3 930 934 931
3 931 934 935
3 936 891 937
3 937 891 938
3 937 938 939
3 939 938 940
3 939 940 934
3 934 940 941
3 934 941 935
3 935 941 942
3 891 919 938
3 938 919 943
3 938 943 940
3 940 943 944
3 940 944 941
3 941 944 945
3 941 945 942
3 942 945 946
3 919 891 943
3 943 891 947
3 943 947 944
3 944 947 948
3 944 948 945
3 945 948 949
3 945 949 946
3 946 949 950
3 891 951 947
3 947 951 952
3 947 952 948
3 948 952 953
3 948 953 949
3 949 953 954
3 949 954 950
3 950 954 955
3 956 874 957
3 957 874 958
3 957 958 959
3 959 958 960
3 959 960 961
3 961 960 962
3 961 962 963
3 963 962 964
3 874 913 958
3 958 913 965
3 958 965 960
3 960 965 966
3 960 966 962
3 962 966 967
3 962 967 964
3 964 967 968
3 913 951 965
3 965 951 969
3 965 969 966
3 966 969 970
3 966 970 967
3 967 970 971
3 967 971 968
3 968 971 972
3 951 936 969
3 969 936 973
3 969 973 970
3 970 973 974
3 970 974 971
3 971 974 975
3 971 975 972
3 972 975 976
3 936 977 973
3 973 977 978
3 973 978 974
3 974 978 979
3 974 979 975
3 975 979 980
3 975 980 976
3 976 980 981
3 977 936 978
3 978 936 982
3 978 982 979
3 979 982 983
3 979 983 980
3 980 983 984
3 980 984 981
3 981 984 985
3 936 918 986
3 986 918 987
3 986 987 988
3 988 987 989
3 988 989 990
3 990 989 991
3 990 991 992
3 992 991 993
3 918 874 987
3 987 874 873
3 987 873 989
3 989 873 876
3 989 876 991
3 991 876 878
3 991 878 993
3 993 878 880
