# vtk DataFile Version 2.0
File written by itkPolyDataMeshIO
ASCII
DATASET POLYDATA
POINTS 885 float
-279.51123 11.871956 -64.55518
-280.893 10.382362 -71.41374
-279.3978 11.858299 -64.57655
-277.61884 14.333839 -55.471706
-277.4955 14.319862 -55.49371
-276.083 16.45063 -47.685177
-275.9455 16.435127 -47.70832
-274.69534 18.457344 -40.08677
-274.5423 18.440086 -40.110493
-273.39276 20.439064 -32.607735
-273.22345 20.419975 -32.63246
-272.01108 22.441582 -25.243763
-271.82397 22.42051 -25.273293
-272.01108 22.441582 -25.243767
-271.82397 22.42051 -25.273296
-270.61716 24.405998 -18.026262
-270.41138 24.38282 -18.059938
-269.49094 26.566032 -10.925737
-269.2643 26.54084 -10.955092
-268.30197 28.727547 -3.943023
-268.05463 28.70008 -3.976655
-267.19537 30.58001 2.90099
-266.92648 30.54992 2.864908
-265.86237 32.41848 9.654311
-265.57373 32.385963 9.607188
-264.37738 34.113564 16.236235
-264.0687 34.078484 16.176863
-264.02335 34.831932 22.526428
-263.68326 34.79299 22.506594
-264.02335 34.831917 22.526436
-263.68326 34.79299 22.506601
-263.60553 35.813835 28.946472
-263.23914 35.771736 28.928791
-261.4475 36.952507 35.011627
-261.07913 36.9076 34.899612
-261.44748 36.952507 35.01163
-261.07913 36.907585 34.899616
-259.50647 37.641 40.764366
-259.1077 37.5924 40.63584
-257.84686 38.26284 46.651043
-257.4156 38.21134 46.53974
-253.97585 39.464317 53.53482
-253.55756 39.409737 53.368126
-253.97585 39.464333 53.534832
-253.55756 39.40975 53.368137
-249.9813 41.60717 58.192276
-280.893 10.382378 -71.41374
-279.3344 11.866203 -64.59251
-277.42688 14.32888 -55.51051
-275.86893 16.445152 -47.72635
-274.45694 18.451256 -40.12931
-273.12903 20.43232 -32.652477
-271.71976 22.434105 -25.29678
-271.71976 22.43412 -25.296783
-270.29684 24.397774 -18.08646
-269.138 26.557106 -10.980825
-267.91684 28.717812 -4.005859
-266.7765 30.569359 2.834631
-265.41312 32.40699 9.570137
-263.8975 34.101173 16.133022
-263.49234 34.81814 22.489494
-263.49234 34.81814 22.489502
-263.03308 35.798943 28.910898
-260.87442 36.936638 34.827194
-260.87442 36.936623 34.827198
-258.8857 37.623802 40.55673
-257.1745 38.244545 46.47087
-253.32475 39.441093 53.264782
-253.32475 39.441093 53.26479
-249.9813 41.60717 58.192272
-249.98131 41.60717 58.192276
-279.28073 11.884193 -64.60895
-277.36887 14.348763 -55.52803
-275.8042 16.467278 -47.745365
-274.38477 18.475838 -40.149345
-273.04916 20.459465 -32.673943
-271.63165 22.464134 -25.321789
-271.63165 22.464134 -25.321795
-270.2 24.43084 -18.11457
-269.0312 26.593025 -11.00945
-267.80045 28.75695 -4.038222
-266.64963 30.612312 2.801563
-265.27753 32.453438 9.530911
-263.75333 34.151237 16.088112
-263.3299 34.87365 22.470613
-263.3299 34.873665 22.47062
-262.85748 35.85897 28.889929
-260.70178 37.00068 34.758682
-260.70178 37.00068 34.758686
-258.69827 37.693153 40.484356
-256.97012 38.31791 46.407627
-253.12805 39.51284 53.16972
-253.12805 39.512856 53.169727
-249.9813 41.60717 58.19228
-279.23157 11.911598 -64.626785
-277.31595 14.378685 -55.547222
-275.74515 16.500542 -47.766357
-274.31885 18.512856 -40.17157
-272.97614 20.500359 -32.69791
-271.5512 22.50927 -25.349575
-271.5512 22.509285 -25.349577
-270.11163 24.480522 -18.145681
-268.93353 26.64701 -11.04218
-267.69415 28.81585 -4.075155
-266.5336 30.676949 2.764205
-265.15378 32.52334 9.487514
-263.62213 34.226555 16.03954
-263.18048 34.95719 22.44912
-263.18048 34.957176 22.449127
-262.69577 35.94935 28.865145
-260.54453 37.097115 34.689114
-260.54453 37.097115 34.689117
-258.52725 37.797585 40.413002
-256.7829 38.428352 46.345043
-252.94855 39.622 53.07552
-252.94855 39.622017 53.07553
-249.98131 41.60717 58.19228
-279.1885 11.947456 -64.6455
-277.26974 14.417625 -55.56747
-275.69354 16.543846 -47.788624
-274.26114 18.561012 -40.19526
-272.91217 20.55352 -32.7236
-271.48087 22.568031 -25.379238
-271.48087 22.568031 -25.379244
-270.03436 24.545143 -18.178827
-268.84808 26.717262 -11.077964
-267.60126 28.892448 -4.115445
-266.43207 30.76101 2.723754
-265.04575 32.61425 9.441322
-263.508 34.324547 15.988882
-263.0487 35.06588 22.425734
-263.0487 35.065865 22.42574
-262.5529 36.066933 28.837366
-260.4074 37.22265 34.620667
-260.4074 37.222633 34.62067
-258.37787 37.93348 40.3449
-256.61856 38.57209 46.285095
-252.79196 39.764977 52.98516
-252.79195 39.76499 52.98517
-249.9813 41.607185 58.192276
-279.153 11.990486 -64.66441
-277.23175 14.46418 -55.588078
-275.6511 16.59562 -47.811398
-274.21356 18.61863 -40.219616
-272.85944 20.61715 -32.75014
-271.42294 22.638374 -25.409777
-271.42294 22.638374 -25.40978
-269.9708 24.62252 -18.212877
-268.77765 26.801384 -11.115579
-267.52475 28.984138 -4.157728
-266.34827 30.86161 2.681566
-264.95694 32.72306 9.393886
-263.41467 34.441795 15.937844
-262.93896 35.1959 22.40124
-262.93896 35.195885 22.401245
-262.43356 36.207634 28.807528
-260.29498 37.372856 34.555622
-260.29498 37.37284 34.55563
-258.25504 38.096107 40.282284
-256.48254 38.744133 46.229755
-252.66364 39.936592 52.901775
-252.66364 39.936592 52.901787
-249.9813 41.607155 58.192272
-280.893 10.382378 -71.41375
-279.12616 12.038658 -64.68272
-277.20294 14.516182 -55.608215
-275.61893 16.653435 -47.833794
-274.1775 18.68296 -40.243668
-272.81934 20.688179 -32.776466
-271.37897 22.71685 -25.439959
-271.37897 22.716866 -25.439962
-269.92255 24.70887 -18.246439
-268.72412 26.895256 -11.153414
-267.4668 29.08648 -4.200181
-266.28455 30.973915 2.639461
-264.88977 32.844505 9.347175
-263.3446 34.5727 15.888427
-262.85425 35.34101 22.376627
-262.85425 35.340996 22.376633
-262.34113 36.364647 28.77691
-260.2102 37.54046 34.496353
-260.2102 37.54046 34.496365
-258.16205 38.27758 40.227325
-256.3785 38.936134 46.180958
-252.56744 40.128563 52.828506
-252.56744 40.12858 52.828514
-280.893 10.382362 -71.41375
-279.10855 12.089043 -64.69957
-277.18396 14.570412 -55.626938
-275.59766 16.713722 -47.854733
-274.15347 18.750023 -40.266243
-272.7926 20.762245 -32.801273
-271.34982 22.798683 -25.468285
-271.34982 22.798683 -25.468292
-269.89062 24.798943 -18.277868
-268.68857 26.993141 -11.189546
-267.4284 29.193169 -4.240658
-266.24213 31.091011 2.599543
-264.84546 32.971184 9.30348
-263.29904 34.709206 15.842983
-262.79633 35.492363 22.353172
-262.79633 35.492363 22.353178
-262.27753 36.52842 28.747166
-260.1546 37.71525 34.445293
-260.1546 37.71525 34.445297
-258.10065 38.466835 40.182037
-256.30862 39.136375 46.140537
-252.50531 40.329445 52.768074
-252.5053 40.329445 52.768085
-279.10022 12.138969 -64.714294
-277.17508 14.623878 -55.643375
-275.58765 16.773186 -47.873196
-274.14197 18.816185 -40.286243
-272.77975 20.835304 -32.823353
-271.336 22.879356 -25.49339
-271.336 22.879356 -25.493395
-269.87558 24.887688 -18.305645
-268.67157 27.089653 -11.222233
-267.4103 29.298393 -4.277248
-266.22174 31.206474 2.563681
-264.82474 33.096077 9.264848
-263.27863 34.843834 15.803639
-262.76642 35.641594 22.332045
-262.76642 35.641594 22.33205
-262.24414 36.689888 28.719786
-260.1291 37.887596 34.404537
-260.1291 37.887596 34.40454
-258.07187 38.65342 40.148117
-256.27417 39.333794 46.10999
-252.4773 40.52854 52.722286
-252.4773 40.52854 52.722298
-249.98131 41.607185 58.19228
-249.98131 41.60717 58.192272
-279.10065 12.187126 -64.72663
-277.17612 14.675041 -55.65711
-275.58875 16.83004 -47.888752
-274.14294 18.879463 -40.303165
-272.78064 20.905144 -32.842106
-271.33734 22.95655 -25.514648
-271.33734 22.95655 -25.514652
-269.8772 24.972618 -18.329123
-268.67294 27.181969 -11.250648
-267.4122 29.399086 -4.308975
-266.22314 31.316963 2.532835
-264.8274 33.21557 9.23224
-263.28308 34.972633 15.771291
-262.7644 35.78443 22.313753
-262.7644 35.78443 22.313759
-262.24088 36.844383 28.695473
-260.13333 38.052498 34.374897
-260.13333 38.052483 34.3749
-258.07535 38.831947 40.126144
-256.27475 39.522728 46.08982
-252.4817 40.720543 52.691257
-252.4817 40.720543 52.69127
-279.10934 12.233864 -64.73677
-277.18643 14.724403 -55.66837
-275.60016 16.884926 -47.901646
-274.15533 18.940498 -40.317337
-272.79428 20.972557 -32.85798
-271.35272 23.030998 -25.532516
-271.35272 23.031013 -25.53252
-269.8942 25.054558 -18.348732
-268.69128 27.271034 -11.275243
-267.43262 29.496162 -4.336368
-266.2447 31.4235 2.506483
-264.8516 33.330788 9.205059
-263.31055 35.09681 15.745264
-262.78806 35.92211 22.298021
-262.78806 35.922096 22.298029
-262.26538 36.99337 28.673878
-260.1651 38.211525 34.355366
-260.1651 38.211525 34.35537
-258.10867 39.004112 40.115086
-256.30774 39.70498 46.07915
-252.51602 40.906975 52.67372
-252.51602 40.906975 52.673733
-280.893 10.382347 -71.41374
-279.1257 12.280052 -64.74506
-277.2051 14.772881 -55.67764
-275.6209 16.938774 -47.912415
-274.17822 19.00042 -40.329292
-272.81943 21.03872 -32.87148
-271.38083 23.104134 -25.547585
-271.38083 23.104118 -25.547588
-269.92517 25.135002 -18.365213
-268.72507 27.358498 -11.296799
-267.4699 29.59153 -4.360301
-266.28467 31.528114 2.483698
-264.89548 33.443916 9.182261
-263.35898 35.21871 15.724457
-262.83508 36.057304 22.284267
-262.83505 36.05729 22.284275
-262.31506 37.13964 28.654354
-260.22192 38.367653 34.344578
-260.22192 38.367653 34.34458
-258.1692 39.17318 40.113613
-256.37027 39.883965 46.076813
-252.57889 41.09115 52.668564
-252.57889 41.09115 52.66857
-249.9813 41.607155 58.192276
-279.1501 12.325981 -64.75157
-277.23206 14.820885 -55.6851
-275.65088 16.99215 -47.921238
-274.21127 19.059761 -40.339207
-272.85583 21.104225 -32.88281
-271.4214 23.176537 -25.560076
-271.4214 23.176537 -25.560081
-269.96988 25.214653 -18.378778
-268.774 27.445091 -11.315608
-267.52362 29.685905 -4.381106
-266.3425 31.631706 2.464167
-264.95856 33.55596 9.16348
-263.42786 35.339485 15.70849
-262.90482 36.19123 22.272348
-262.90482 36.19123 22.272354
-262.38928 37.284523 28.636702
-260.3032 38.52227 34.34207
-260.3032 38.52227 34.34208
-258.25616 39.34057 40.121315
-256.46155 40.06121 46.082485
-252.67117 41.27427 52.676052
-252.67117 41.274254 52.67606
-279.1835 12.370949 -64.75586
-277.26794 14.86776 -55.690376
-275.69086 17.044243 -47.92771
-274.2555 19.117714 -40.346664
-272.90466 21.16822 -32.89153
-271.4756 23.24723 -25.569538
-271.4756 23.24723 -25.569542
-270.02957 25.292473 -18.388933
-268.8394 27.52967 -11.331119
-267.59537 29.778114 -4.398162
-266.41995 31.732887 2.448531
-265.04263 33.66543 9.149486
-263.51917 35.457466 15.698213
-262.9996 36.32203 22.262629
-262.99957 36.32203 22.262636
-262.49048 37.426064 28.621315
-260.41125 38.673347 34.34899
-260.41125 38.673347 34.348995
-258.37222 39.504128 40.139366
-256.58444 40.234367 46.097183
-252.79663 41.45356 52.69821
-252.79662 41.453575 52.698223
-279.22717 12.413628 -64.75727
-277.31406 14.912498 -55.69291
-275.7422 17.09394 -47.931232
-274.31244 19.173058 -40.351048
-272.96753 21.229332 -32.896976
-271.54532 23.314705 -25.575148
-271.54532 23.314705 -25.575153
-270.10632 25.366737 -18.394756
-268.9236 27.610405 -11.342328
-267.68768 29.866127 -4.410369
-266.5198 31.829475 2.437886
-265.15063 33.769905 9.141537
-263.63596 35.570045 15.694978
-263.1229 36.44686 22.255756
-263.1229 36.44686 22.255764
-262.6225 37.56112 28.60898
-260.5498 38.817482 34.367165
-260.5498 38.817497 34.36717
-258.5213 39.66021 40.169533
-256.74338 40.39959 46.122494
-252.95996 41.623756 52.73798
-252.95996 41.62377 52.73799
-279.2823 12.45211 -64.7551
-277.3717 14.954033 -55.69216
-275.80643 17.14013 -47.93123
-274.38373 19.224434 -40.351715
-273.04626 21.286064 -32.898445
-271.63254 23.377373 -25.576122
-271.63254 23.377373 -25.576126
-270.2023 25.435707 -18.395317
-269.0291 27.685402 -11.348254
-267.8031 29.947884 -4.416603
-266.64484 31.919182 2.433376
-265.2856 33.866875 9.140912
-263.7814 35.67457 15.700193
-263.27835 36.562737 22.252378
-263.27835 36.562737 22.252384
-262.78925 37.686485 28.600492
-260.72263 38.9513 34.398514
-260.72263 38.951286 34.39852
-258.70767 39.80509 40.213726
-256.94293 40.55291 46.160088
-253.16505 41.77726 52.798374
-253.16505 41.77726 52.79838
-279.34894 12.483757 -64.748634
-277.4421 14.990837 -55.687477
-275.88483 17.181099 -47.926964
-274.47083 19.270027 -40.347885
-273.14255 21.336418 -32.895084
-271.7391 23.432991 -25.571486
-271.7391 23.433006 -25.571491
-270.31955 25.49688 -18.389595
-269.15802 27.751884 -11.347743
-267.94406 30.020393 -4.415532
-266.7977 31.998741 2.436326
-265.45032 33.952934 9.149107
-263.9585 35.767326 15.715467
-263.4695 36.66558 22.253242
-263.4695 36.66558 22.25325
-262.9946 37.797768 28.596724
-260.93335 39.07009 34.445076
-260.93335 39.07009 34.44508
-258.93518 39.933678 40.273945
-257.18735 40.68876 46.211727
-253.41208 41.903282 52.88122
-253.41206 41.903297 52.881233
-279.4249 12.501091 -64.73644
-277.52466 15.012962 -55.676273
-275.97684 17.205772 -47.91549
-274.57315 19.297447 -40.336357
-273.25568 21.366692 -32.883316
-271.86417 23.466469 -25.55717
-271.86417 23.466469 -25.557177
-270.4571 25.533714 -18.37312
-269.30942 27.791924 -11.335355
-268.10944 30.064049 -4.401114
-266.97736 32.046684 2.452602
-265.6434 34.004753 9.172317
-264.1654 35.823174 15.746911
-263.69574 36.727547 22.261873
-263.69574 36.72753 22.261879
-263.23804 37.8648 28.60238
-261.18002 39.141624 34.512287
-261.18002 39.14161 34.512295
-259.20193 40.011147 40.35411
-257.47504 40.770424 46.28092
-253.69252 41.97213 52.987698
-253.69252 41.972145 52.98771
-280.893 10.382347 -71.413734
-279.42493 12.501091 -64.73645
-279.50217 12.494957 -64.71791
-277.60944 15.006157 -55.65669
-275.97684 17.205757 -47.915493
-276.07144 17.198189 -47.894547
-274.67856 19.288963 -40.314564
-273.25568 21.366722 -32.883316
-273.3723 21.357338 -32.860207
-271.86417 23.466484 -25.55717
-271.99292 23.456139 -25.529964
-271.86417 23.466484 -25.557177
-271.99292 23.456139 -25.52997
-270.4571 25.533745 -18.37312
-270.59857 25.522377 -18.342352
-269.30945 27.791924 -11.335355
-269.46542 27.77961 -11.305983
-268.10947 30.064049 -4.401114
-268.2796 30.050621 -4.367736
-267.16254 32.03193 2.487387
-265.6434 34.00477 9.172317
-265.84183 33.988823 9.215305
-264.1654 35.82319 15.746911
-264.37708 35.80596 15.798287
-263.69574 36.727562 22.261873
-263.93115 36.708458 22.281452
-263.69574 36.727547 22.26188
-263.93115 36.708443 22.281456
-263.23804 37.864815 28.602383
-263.492 37.84417 28.622406
-261.18002 39.141624 34.51229
-261.43295 39.119637 34.59916
-261.18002 39.141624 34.5123
-261.43295 39.119637 34.599163
-259.20193 40.01116 40.35411
-259.4761 39.987328 40.449898
-257.47504 40.77044 46.28092
-257.7725 40.745216 46.36418
-253.69252 41.97216 52.987698
-253.97647 41.947746 53.111248
-253.69252 41.97216 52.98771
-253.97647 41.947746 53.11126
-249.9813 41.607155 58.19227
-279.50217 12.494987 -64.71791
-279.57068 12.467918 -64.6959
-277.60944 15.006172 -55.656696
-277.68295 14.973946 -55.63257
-276.07147 17.198204 -47.89455
-276.1535 17.162315 -47.868263
-274.67856 19.288979 -40.31457
-274.7701 19.249062 -40.286827
-273.3723 21.357338 -32.86021
-273.4737 21.313255 -32.830387
-271.99292 23.456139 -25.529966
-272.10464 23.407448 -25.495272
-271.99292 23.456139 -25.529972
-272.10464 23.407463 -25.495275
-270.5986 25.522392 -18.342352
-270.72134 25.468819 -18.303396
-269.46542 27.779625 -11.305984
-269.60095 27.721397 -11.265711
-268.27963 30.050636 -4.367737
-268.42725 29.987144 -4.322268
-267.16254 32.03196 2.487387
-267.32355 31.962273 2.533613
-265.84183 33.988853 9.215306
-266.01373 33.913475 9.269589
-264.37708 35.805977 15.798288
-264.55963 35.724785 15.859773
-263.93115 36.70849 22.281452
-264.13782 36.618446 22.307924
-263.93115 36.708473 22.28146
-264.13782 36.618416 22.307932
-263.49203 37.844185 28.62241
-263.71555 37.746758 28.652374
-261.43295 39.11965 34.59916
-261.65167 39.015663 34.69024
-261.65167 39.015663 34.690243
-259.4761 39.987343 40.449898
-259.71375 39.87475 40.544823
-257.7725 40.745247 46.364185
-258.0321 40.62635 46.447254
-253.97647 41.94776 53.11125
-254.22725 41.84005 53.235146
-253.97647 41.947777 53.111263
-254.22725 41.840065 53.235153
-279.62714 12.431953 -64.674255
-277.74283 14.934532 -55.609352
-276.2203 17.118492 -47.842815
-274.8448 19.20034 -40.259827
-273.55637 21.259468 -32.8012
-272.1957 23.348 -25.461494
-272.1957 23.348 -25.4615
-270.82138 25.403374 -18.265587
-269.7115 27.65023 -11.225541
-268.54752 29.909569 -4.276995
-267.45486 31.877129 2.579282
-266.15363 33.82142 9.322305
-264.7078 35.625603 15.918309
-264.30737 36.50843 22.334253
-264.30737 36.50843 22.33426
-263.8992 37.627724 28.683088
-261.82947 38.888573 34.772278
-261.82947 38.888588 34.77228
-259.90723 39.737175 40.628048
-258.2443 40.480858 46.52037
-254.43323 41.696785 53.346424
-254.43323 41.696785 53.346436
-279.6713 12.391045 -64.654
-277.79007 14.891319 -55.58774
-276.27304 17.070457 -47.81904
-274.90375 19.146889 -40.234463
-273.6218 21.200462 -32.773647
-272.26764 23.28283 -25.429712
-272.26764 23.28283 -25.429718
-270.9004 25.331657 -18.23013
-269.79883 27.572273 -11.187089
-268.64252 29.824577 -4.233687
-267.55878 31.783867 2.622729
-266.26413 33.720543 9.371733
-264.8244 35.516853 15.972281
-264.44244 36.38787 22.359417
-264.4424 36.387856 22.359423
-264.04572 37.49729 28.713137
-261.96957 38.749336 34.8443
-261.96957 38.749336 34.844307
-260.05997 39.586433 40.699245
-258.41254 40.321297 46.583115
-254.59355 41.533653 53.441864
-254.59354 41.533653 53.441875
-279.67126 12.391045 -64.654
-279.70425 12.347298 -64.63545
-277.79007 14.891304 -55.58774
-277.8261 14.845406 -55.567707
-276.27304 17.070442 -47.81904
-276.31335 17.019447 -47.796867
-274.94888 19.090141 -40.210747
-273.62177 21.200447 -32.773647
-273.67184 21.13778 -32.747803
-272.26764 23.282814 -25.429712
-272.32263 23.21357 -25.400017
-272.26764 23.282814 -25.429718
-272.32263 23.21357 -25.400023
-270.96072 25.255455 -18.19705
-269.79883 27.572258 -11.187088
-269.8657 27.489418 -11.150479
-268.7151 29.734245 -4.192553
-267.6383 31.684746 2.663743
-266.34845 33.61335 9.417816
-264.8244 35.516838 15.972281
-264.91293 35.40133 16.021809
-264.44244 36.38787 22.359415
-264.54675 36.25979 22.383274
-264.4424 36.387856 22.35942
-264.54675 36.259773 22.38328
-264.04572 37.497276 28.713137
-264.15918 37.35871 28.742258
-261.96957 38.749336 34.844303
-262.0763 38.601433 34.907036
-262.0763 38.601418 34.90704
-260.05997 39.58642 40.69924
-260.17654 39.426292 40.75942
-258.5417 40.15177 46.63632
-254.59355 41.533638 53.441864
-254.71252 41.359215 53.52177
-254.59354 41.533638 53.44187
-254.71251 41.35923 53.52178
-279.7276 12.302238 -64.618706
-277.8261 14.845406 -55.567703
-277.8524 14.797905 -55.54928
-276.34274 16.966637 -47.776398
-274.98187 19.031395 -40.188766
-273.67184 21.137794 -32.747803
-273.70847 21.07293 -32.72375
-272.3628 23.141914 -25.372452
-272.3628 23.141914 -25.372456
-270.96072 25.25547 -18.197048
-271.00476 25.176598 -18.16637
-269.8657 27.489433 -11.150478
-269.91455 27.403694 -11.115871
-268.768 29.640755 -4.153746
-267.69647 31.58216 2.702211
-266.34845 33.613335 9.417816
-266.4098 33.502403 9.460479
-264.91293 35.401314 16.021809
-264.9769 35.281746 16.066925
-264.62415 36.12719 22.405743
-264.62415 36.127174 22.40575
-264.24362 37.215233 28.770216
-262.1537 38.44831 34.961163
-262.0763 38.601433 34.90704
-262.1537 38.44831 34.961174
-260.17654 39.426308 40.759422
-260.26147 39.260506 40.809624
-258.63657 39.976265 46.68087
-254.71251 41.35923 53.52177
-254.79588 41.17948 53.587482
-254.71251 41.35923 53.521782
-254.79587 41.17948 53.587494
-279.7426 12.256798 -64.60368
-277.87003 14.749672 -55.532475
-276.36255 16.913033 -47.757603
-275.00424 18.971764 -40.168507
-273.73334 21.007088 -32.701508
-272.38992 23.069176 -25.347029
-272.38992 23.069176 -25.347034
-271.0345 25.096565 -18.13815
-269.9477 27.316689 -11.083454
-268.80377 29.545906 -4.117426
-267.73596 31.47805 2.738016
-266.45105 33.38981 9.499677
-265.01947 35.160408 16.107742
-264.6779 35.992638 22.426754
-264.6779 35.992638 22.426762
-264.30255 37.06968 28.796808
-262.20557 38.29293 35.007343
-262.20557 38.29293 35.00735
-260.3187 39.092262 40.850773
-258.70145 39.79821 46.71754
-254.84879 40.9983 53.64054
-254.84879 40.9983 53.640553
-279.75012 12.211098 -64.59027
-277.87946 14.70089 -55.51721
-276.37317 16.858788 -47.740444
-275.01633 18.9114 -40.149956
-273.7469 20.940437 -32.681072
-272.40454 22.995552 -25.323763
-272.40454 22.995552 -25.323767
-271.05045 25.015541 -18.112368
-269.96564 27.228615 -11.053235
-268.82297 29.449883 -4.083605
-267.7575 31.372719 2.771188
-266.47302 33.27587 9.535506
-265.04138 35.03762 16.144375
-264.7088 35.8565 22.446304
-264.7088 35.8565 22.44631
-264.33694 36.92237 28.822067
-262.23273 38.13569 35.04581
-262.23273 38.13569 35.045822
-260.34918 38.922035 40.883133
-258.7374 39.618095 46.74661
-254.87372 40.816154 53.681984
-254.8737 40.816154 53.68199
-279.74982 12.164513 -64.57831
-277.87997 14.650795 -55.50345
-276.37384 16.803108 -47.72488
-275.0174 18.84945 -40.133034
-273.74817 20.872017 -32.662315
-272.40454 22.995567 -25.323763
-272.40564 22.919945 -25.302504
-272.40454 22.995567 -25.323767
-272.40564 22.91996 -25.302507
-271.05045 25.015541 -18.11237
-271.05154 24.932365 -18.088907
-269.96564 27.228615 -11.053236
-269.9672 27.138191 -11.024985
-268.82428 29.351326 -4.052039
-267.7575 31.372719 2.771189
-267.75958 31.264565 2.801941
-266.47302 33.275887 9.535507
-266.47415 33.158867 9.568148
-265.04095 34.911522 16.176916
-264.7088 35.8565 22.446302
-264.7152 35.716682 22.464529
-264.7152 35.716682 22.464535
-264.33694 36.92237 28.822065
-264.34488 36.77108 28.846191
-262.23273 38.13569 35.045815
-262.2333 37.97422 35.07639
-262.2333 37.97422 35.076397
-260.34918 38.92202 40.883133
-260.3509 38.74723 40.906387
-258.73743 39.61808 46.74661
-258.74228 39.43313 46.7678
-254.8737 40.81614 53.681984
-254.87003 40.630302 53.71205
-254.87003 40.630302 53.71206
-279.74982 12.164482 -64.5783
-279.74106 12.116142 -64.56772
-277.87997 14.65078 -55.503437
-277.8706 14.598473 -55.491142
-276.37384 16.803078 -47.724873
-276.3635 16.744896 -47.710823
-275.0174 18.849419 -40.13303
-275.00616 18.78469 -40.117638
-273.74817 20.872002 -32.662315
-273.7359 20.80053 -32.64512
-272.40564 22.919945 -25.302502
-272.39175 22.840965 -25.283113
-272.40564 22.919945 -25.302505
-272.39175 22.840965 -25.283117
-271.0515 24.93235 -18.088905
-271.03613 24.845467 -18.067595
-269.9672 27.138176 -11.024984
-269.95065 27.04374 -10.998425
-268.82428 29.351326 -4.052038
-268.80582 29.248344 -4.022443
-267.75958 31.26455 2.801941
-267.74014 31.151527 2.830487
-266.45218 33.036644 9.597733
-265.04095 34.911507 16.176916
-265.01578 34.779778 16.205416
-264.7152 35.716667 22.464527
-264.69446 35.57061 22.481556
-264.7152 35.716652 22.464533
-264.69446 35.57061 22.481562
-264.34488 36.771065 28.846188
-264.32364 36.613045 28.869408
-262.2333 37.974205 35.076385
-262.20435 37.80558 35.098656
-262.2333 37.974205 35.076393
-262.20435 37.805565 35.098663
-260.3509 38.747215 40.90638
-260.32065 38.56463 40.919853
-258.74228 39.433113 46.76779
-258.7127 39.239937 46.780552
-254.87003 40.630272 53.712044
-254.83517 40.437492 53.730255
-254.87001 40.630287 53.712055
-254.83517 40.437508 53.730267
-279.72333 12.066383 -64.55879
-277.85098 14.544334 -55.48051
-276.34167 16.68473 -47.69851
-274.98218 18.717766 -40.10401
-273.7095 20.7266 -32.629753
-272.36224 22.759285 -25.265924
-272.36224 22.759285 -25.265928
-271.0036 24.755592 -18.048777
-269.91522 26.946053 -10.973943
-268.7667 29.141838 -3.995249
-267.69824 31.03466 2.856404
-266.4061 32.910225 9.623789
-264.9648 34.64353 16.229374
-264.64542 35.419533 22.49715
-264.6454 35.419533 22.497158
-264.27188 36.449593 28.891453
-262.14465 37.63114 35.111954
-262.14465 37.63114 35.11196
-260.2571 38.37577 40.92288
-258.64725 39.04014 46.784294
-254.7671 40.239143 53.735497
-254.7671 40.23913 53.735504
-279.69653 12.017204 -64.551994
-277.8214 14.490807 -55.472115
-276.30878 16.625175 -47.688572
-274.94586 18.651512 -40.092842
-273.66946 20.653465 -32.61699
-272.31766 22.67846 -25.25184
-272.3177 22.67846 -25.251844
-270.9545 24.666649 -18.033482
-269.8615 26.849373 -10.952791
-268.70764 29.03646 -3.97183
-267.6347 30.919014 2.878394
-266.3368 32.78512 9.644974
-264.8891 34.50869 16.247475
-264.56885 35.270027 22.510542
-264.56885 35.270027 22.51055
-264.19043 36.287834 28.911268
-262.05533 37.458458 35.115223
-262.05533 37.458443 35.11523
-260.16156 38.188805 40.91481
-258.547 38.842384 46.778404
-254.66583 40.043053 53.726364
-254.66583 40.043068 53.726376
-279.6965 12.017174 -64.55199
-279.66122 11.971397 -64.54791
-277.8214 14.490791 -55.47211
-277.7827 14.441063 -55.466663
-276.30878 16.62516 -47.68857
-276.2657 16.569847 -47.681835
-274.94586 18.651497 -40.092834
-274.89813 18.589958 -40.085037
-273.66946 20.653435 -32.61699
-273.61682 20.585472 -32.607853
-272.31766 22.678444 -25.25184
-272.2592 22.603355 -25.24198
-272.31766 22.678444 -25.251844
-272.2592 22.603355 -25.241985
-270.9545 24.666634 -18.03348
-270.8901 24.584023 -18.022911
-269.8615 26.849358 -10.95279
-269.79092 26.759544 -10.936522
-268.70764 29.036446 -3.971829
-268.63025 28.938515 -3.953923
-267.6347 30.918999 2.878393
-267.55112 30.811531 2.89479
-266.3368 32.785088 9.644973
-266.2461 32.66886 9.659561
-264.88907 34.50866 16.247473
-264.79062 34.3834 16.258057
-264.56885 35.270027 22.51054
-264.46655 35.13111 22.520725
-264.56885 35.270027 22.510548
-264.46655 35.13111 22.520731
-264.19043 36.28782 28.911266
-264.08115 36.13752 28.927477
-262.0553 37.458443 35.115223
-261.93875 37.298027 35.10728
-262.0553 37.458427 35.11523
-261.93872 37.29801 35.107285
-260.16153 38.18879 40.91481
-260.03635 38.015083 40.89501
-258.547 38.842354 46.7784
-258.41443 38.658623 46.762245
-254.66583 40.043037 53.726364
-254.53343 39.860558 53.701813
-254.66583 40.043037 53.72637
-254.53342 39.860558 53.70182
-280.893 10.382362 -71.413734
-279.66122 11.971382 -64.547905
-279.61267 11.927666 -64.54728
-277.7827 14.441032 -55.46666
-277.72958 14.3937 -55.46489
-276.2657 16.569832 -47.681828
-276.20648 16.517204 -47.67906
-274.89813 18.589928 -40.085033
-274.8325 18.531395 -40.081398
-273.61682 20.585457 -32.607853
-273.5443 20.520805 -32.603138
-272.2592 22.60334 -25.241978
-272.17883 22.531914 -25.237242
-272.2592 22.60334 -25.241983
-272.17883 22.531914 -25.237247
-270.89008 24.584007 -18.022911
-270.80164 24.505379 -18.018133
-269.79092 26.759544 -10.936521
-269.6938 26.67408 -10.925957
-268.52386 28.84533 -3.942499
-267.55112 30.811516 2.89479
-267.436 30.709267 2.904485
-266.24606 32.668846 9.65956
-266.12164 32.55831 9.666
-264.79062 34.383385 16.258055
-264.6562 34.26426 16.259079
-264.46655 35.131096 22.520725
-264.32407 34.99897 22.527153
-264.46655 35.131096 22.520731
-264.32407 34.998955 22.527159
-264.08115 36.137505 28.927475
-263.92853 35.994545 28.93968
-261.93872 37.297997 35.107277
-261.7792 37.145424 35.08381
-261.93872 37.297997 35.107285
-261.7792 37.145424 35.083813
-260.03632 38.015053 40.895008
-259.86453 37.84989 40.858337
-258.4144 38.658592 46.762245
-258.23114 38.48385 46.73138
-254.53342 39.860527 53.70181
-254.35225 39.686195 53.65531
-254.53342 39.860527 53.701817
-254.35225 39.686195 53.65532
POLYGONS 1228 4912
3 0 1 2
3 0 2 3
3 3 2 4
3 3 4 5
3 5 4 6
3 5 6 7
3 7 6 8
3 7 8 9
3 9 8 10
3 9 10 11
3 11 10 12
3 13 14 15
3 15 14 16
3 15 16 17
3 17 16 18
3 17 18 19
3 19 18 20
3 19 20 21
3 21 20 22
3 21 22 23
3 23 22 24
3 23 24 25
3 25 24 26
3 25 26 27
3 27 26 28
3 29 30 31
3 31 30 32
3 31 32 33
3 33 32 34
3 35 36 37
3 37 36 38
3 37 38 39
3 39 38 40
3 39 40 41
3 41 40 42
3 43 44 45
3 1 46 2
3 2 46 47
3 2 47 4
3 4 47 48
3 4 48 6
3 6 48 49
3 6 49 8
3 8 49 50
3 8 50 10
3 10 50 51
3 10 51 12
3 12 51 52
3 14 53 16
3 16 53 54
3 16 54 18
3 18 54 55
3 18 55 20
3 20 55 56
3 20 56 22
3 22 56 57
3 22 57 24
3 24 57 58
3 24 58 26
3 26 58 59
3 26 59 28
3 28 59 60
3 30 61 32
3 32 61 62
3 32 62 34
3 34 62 63
3 36 64 38
3 38 64 65
3 38 65 40
3 40 65 66
3 40 66 42
3 42 66 67
3 44 68 69
3 69 68 70
3 46 1 47
3 47 1 71
3 47 71 48
3 48 71 72
3 48 72 49
3 49 72 73
3 49 73 50
3 50 73 74
3 50 74 51
3 51 74 75
3 51 75 52
3 52 75 76
3 53 77 54
3 54 77 78
3 54 78 55
3 55 78 79
3 55 79 56
3 56 79 80
3 56 80 57
3 57 80 81
3 57 81 58
3 58 81 82
3 58 82 59
3 59 82 83
3 59 83 60
3 60 83 84
3 61 85 62
3 62 85 86
3 62 86 63
3 63 86 87
3 64 88 65
3 65 88 89
3 65 89 66
3 66 89 90
3 66 90 67
3 67 90 91
3 68 92 70
3 70 92 93
3 71 1 94
3 71 94 72
3 72 94 95
3 72 95 73
3 73 95 96
3 73 96 74
3 74 96 97
3 74 97 75
3 75 97 98
3 75 98 76
3 76 98 99
3 77 100 78
3 78 100 101
3 78 101 79
3 79 101 102
3 79 102 80
3 80 102 103
3 80 103 81
3 81 103 104
3 81 104 82
3 82 104 105
3 82 105 83
3 83 105 106
3 83 106 84
3 84 106 107
3 85 108 86
3 86 108 109
3 86 109 87
3 87 109 110
3 88 111 89
3 89 111 112
3 89 112 90
3 90 112 113
3 90 113 91
3 91 113 114
3 92 115 93
3 93 115 116
3 94 46 117
3 94 117 95
3 95 117 118
3 95 118 96
3 96 118 119
3 96 119 97
3 97 119 120
3 97 120 98
3 98 120 121
3 98 121 99
3 99 121 122
3 100 123 101
3 101 123 124
3 101 124 102
3 102 124 125
3 102 125 103
3 103 125 126
3 103 126 104
3 104 126 127
3 104 127 105
3 105 127 128
3 105 128 106
3 106 128 129
3 106 129 107
3 107 129 130
3 108 131 109
3 109 131 132
3 109 132 110
3 110 132 133
3 111 134 112
3 112 134 135
3 112 135 113
3 113 135 136
3 113 136 114
3 114 136 137
3 115 138 116
3 116 138 139
3 117 1 140
3 117 140 118
3 118 140 141
3 118 141 119
3 119 141 142
3 119 142 120
3 120 142 143
3 120 143 121
3 121 143 144
3 121 144 122
3 122 144 145
3 123 146 124
3 124 146 147
3 124 147 125
3 125 147 148
3 125 148 126
3 126 148 149
3 126 149 127
3 127 149 150
3 127 150 128
3 128 150 151
3 128 151 129
3 129 151 152
3 129 152 130
3 130 152 153
3 131 154 132
3 132 154 155
3 132 155 133
3 133 155 156
3 134 157 135
3 135 157 158
3 135 158 136
3 136 158 159
3 136 159 137
3 137 159 160
3 138 161 139
3 139 161 162
3 140 163 164
3 140 164 141
3 141 164 165
3 141 165 142
3 142 165 166
3 142 166 143
3 143 166 167
3 143 167 144
3 144 167 168
3 144 168 145
3 145 168 169
3 146 170 147
3 147 170 171
3 147 171 148
3 148 171 172
3 148 172 149
3 149 172 173
3 149 173 150
3 150 173 174
3 150 174 151
3 151 174 175
3 151 175 152
3 152 175 176
3 152 176 153
3 153 176 177
3 154 178 155
3 155 178 179
3 155 179 156
3 156 179 180
3 157 181 158
3 158 181 182
3 158 182 159
3 159 182 183
3 159 183 160
3 160 183 184
3 161 185 162
3 162 185 70
3 163 186 164
3 164 186 187
3 164 187 165
3 165 187 188
3 165 188 166
3 166 188 189
3 166 189 167
3 167 189 190
3 167 190 168
3 168 190 191
3 168 191 169
3 169 191 192
3 170 193 171
3 171 193 194
3 171 194 172
3 172 194 195
3 172 195 173
3 173 195 196
3 173 196 174
3 174 196 197
3 174 197 175
3 175 197 198
3 175 198 176
3 176 198 199
3 176 199 177
3 177 199 200
3 178 201 179
3 179 201 202
3 179 202 180
3 180 202 203
3 181 204 182
3 182 204 205
3 182 205 183
3 183 205 206
3 183 206 184
3 184 206 207
3 185 208 70
3 186 1 187
3 187 1 209
3 187 209 188
3 188 209 210
3 188 210 189
3 189 210 211
3 189 211 190
3 190 211 212
3 190 212 191
3 191 212 213
3 191 213 192
3 192 213 214
3 193 215 194
3 194 215 216
3 194 216 195
3 195 216 217
3 195 217 196
3 196 217 218
3 196 218 197
3 197 218 219
3 197 219 198
3 198 219 220
3 198 220 199
3 199 220 221
3 199 221 200
3 200 221 222
3 201 223 202
3 202 223 224
3 202 224 203
3 203 224 225
3 204 226 205
3 205 226 227
3 205 227 206
3 206 227 228
3 206 228 207
3 207 228 229
3 208 230 231
3 231 230 232
3 209 1 233
3 209 233 210
3 210 233 234
3 210 234 211
3 211 234 235
3 211 235 212
3 212 235 236
3 212 236 213
3 213 236 237
3 213 237 214
3 214 237 238
3 215 239 216
3 216 239 240
3 216 240 217
3 217 240 241
3 217 241 218
3 218 241 242
3 218 242 219
3 219 242 243
3 219 243 220
3 220 243 244
3 220 244 221
3 221 244 245
3 221 245 222
3 222 245 246
3 223 247 224
3 224 247 248
3 224 248 225
3 225 248 249
3 226 250 227
3 227 250 251
3 227 251 228
3 228 251 252
3 228 252 229
3 229 252 253
3 230 254 232
3 232 254 45
3 233 1 255
3 233 255 234
3 234 255 256
3 234 256 235
3 235 256 257
3 235 257 236
3 236 257 258
3 236 258 237
3 237 258 259
3 237 259 238
3 238 259 260
3 239 261 240
3 240 261 262
3 240 262 241
3 241 262 263
3 241 263 242
3 242 263 264
3 242 264 243
3 243 264 265
3 243 265 244
3 244 265 266
3 244 266 245
3 245 266 267
3 245 267 246
3 246 267 268
3 247 269 248
3 248 269 270
3 248 270 249
3 249 270 271
3 250 272 251
3 251 272 273
3 251 273 252
3 252 273 274
3 252 274 253
3 253 274 275
3 254 276 45
3 255 277 278
3 255 278 256
3 256 278 279
3 256 279 257
3 257 279 280
3 257 280 258
3 258 280 281
3 258 281 259
3 259 281 282
3 259 282 260
3 260 282 283
3 261 284 262
3 262 284 285
3 262 285 263
3 263 285 286
3 263 286 264
3 264 286 287
3 264 287 265
3 265 287 288
3 265 288 266
3 266 288 289
3 266 289 267
3 267 289 290
3 267 290 268
3 268 290 291
3 269 292 270
3 270 292 293
3 270 293 271
3 271 293 294
3 272 295 273
3 273 295 296
3 273 296 274
3 274 296 297
3 274 297 275
3 275 297 298
3 276 299 45
3 45 299 300
3 277 46 278
3 278 46 301
3 278 301 279
3 279 301 302
3 279 302 280
3 280 302 303
3 280 303 281
3 281 303 304
3 281 304 282
3 282 304 305
3 282 305 283
3 283 305 306
3 284 307 285
3 285 307 308
3 285 308 286
3 286 308 309
3 286 309 287
3 287 309 310
3 287 310 288
3 288 310 311
3 288 311 289
3 289 311 312
3 289 312 290
3 290 312 313
3 290 313 291
3 291 313 314
3 292 315 293
3 293 315 316
3 293 316 294
3 294 316 317
3 295 318 296
3 296 318 319
3 296 319 297
3 297 319 320
3 297 320 298
3 298 320 321
3 299 322 300
3 300 322 70
3 46 186 301
3 301 186 323
3 301 323 302
3 302 323 324
3 302 324 303
3 303 324 325
3 303 325 304
3 304 325 326
3 304 326 305
3 305 326 327
3 305 327 306
3 306 327 328
3 307 329 308
3 308 329 330
3 308 330 309
3 309 330 331
3 309 331 310
3 310 331 332
3 310 332 311
3 311 332 333
3 311 333 312
3 312 333 334
3 312 334 313
3 313 334 335
3 313 335 314
3 314 335 336
3 315 337 316
3 316 337 338
3 316 338 317
3 317 338 339
3 318 340 319
3 319 340 341
3 319 341 320
3 320 341 342
3 320 342 321
3 321 342 343
3 322 344 70
3 186 1 323
3 323 1 345
3 323 345 324
3 324 345 346
3 324 346 325
3 325 346 347
3 325 347 326
3 326 347 348
3 326 348 327
3 327 348 349
3 327 349 328
3 328 349 350
3 329 351 330
3 330 351 352
3 330 352 331
3 331 352 353
3 331 353 332
3 332 353 354
3 332 354 333
3 333 354 355
3 333 355 334
3 334 355 356
3 334 356 335
3 335 356 357
3 335 357 336
3 336 357 358
3 337 359 338
3 338 359 360
3 338 360 339
3 339 360 361
3 340 362 341
3 341 362 363
3 341 363 342
3 342 363 364
3 342 364 343
3 343 364 365
3 344 366 231
3 231 366 70
3 1 163 345
3 345 163 367
3 345 367 346
3 346 367 368
3 346 368 347
3 347 368 369
3 347 369 348
3 348 369 370
3 348 370 349
3 349 370 371
3 349 371 350
3 350 371 372
3 351 373 352
3 352 373 374
3 352 374 353
3 353 374 375
3 353 375 354
3 354 375 376
3 354 376 355
3 355 376 377
3 355 377 356
3 356 377 378
3 356 378 357
3 357 378 379
3 357 379 358
3 358 379 380
3 359 381 360
3 360 381 382
3 360 382 361
3 361 382 383
3 362 384 363
3 363 384 385
3 363 385 364
3 364 385 386
3 364 386 365
3 365 386 387
3 366 388 70
3 70 388 231
3 163 1 367
3 367 1 389
3 367 389 368
3 368 389 390
3 368 390 369
3 369 390 391
3 369 391 370
3 370 391 392
3 370 392 371
3 371 392 393
3 371 393 372
3 372 393 394
3 373 395 374
3 374 395 396
3 374 396 375
3 375 396 397
3 375 397 376
3 376 397 398
3 376 398 377
3 377 398 399
3 377 399 378
3 378 399 400
3 378 400 379
3 379 400 401
3 379 401 380
3 380 401 402
3 381 403 382
3 382 403 404
3 382 404 383
3 383 404 405
3 384 406 385
3 385 406 407
3 385 407 386
3 386 407 408
3 386 408 387
3 387 408 409
3 388 410 231
3 231 410 45
3 389 1 411
3 389 411 390
3 390 411 412
3 390 412 391
3 391 412 413
3 391 413 392
3 392 413 414
3 392 414 393
3 393 414 415
3 393 415 394
3 394 415 416
3 395 417 396
3 396 417 418
3 396 418 397
3 397 418 419
3 397 419 398
3 398 419 420
3 398 420 399
3 399 420 421
3 399 421 400
3 400 421 422
3 400 422 401
3 401 422 423
3 401 423 402
3 402 423 424
3 403 425 404
3 404 425 426
3 404 426 405
3 405 426 427
3 406 428 407
3 407 428 429
3 407 429 408
3 408 429 430
3 408 430 409
3 409 430 431
3 410 432 45
3 46 433 434
3 434 433 435
3 434 435 412
3 412 435 436
3 412 436 437
3 437 436 438
3 437 438 414
3 414 438 439
3 414 439 440
3 440 439 441
3 440 441 442
3 442 441 443
3 444 445 446
3 446 445 447
3 446 447 448
3 448 447 449
3 448 449 450
3 450 449 451
3 450 451 421
3 421 451 452
3 421 452 453
3 453 452 454
3 453 454 455
3 455 454 456
3 455 456 457
3 457 456 458
3 459 460 461
3 461 460 462
3 461 462 463
3 463 462 464
3 465 466 467
3 467 466 468
3 467 468 469
3 469 468 470
3 469 470 471
3 471 470 472
3 473 474 116
3 116 474 475
3 433 46 476
3 476 46 477
3 476 477 478
3 478 477 479
3 478 479 480
3 480 479 481
3 480 481 482
3 482 481 483
3 482 483 484
3 484 483 485
3 484 485 486
3 486 485 487
3 488 489 490
3 490 489 491
3 490 491 492
3 492 491 493
3 492 493 494
3 494 493 495
3 494 495 496
3 496 495 497
3 496 497 498
3 498 497 499
3 498 499 500
3 500 499 501
3 500 501 502
3 502 501 503
3 504 505 506
3 506 505 507
3 506 507 508
3 508 507 509
3 466 510 511
3 511 510 512
3 511 512 513
3 513 512 514
3 513 514 515
3 515 514 516
3 517 518 69
3 69 518 162
3 477 1 519
3 477 519 479
3 479 519 520
3 479 520 481
3 481 520 521
3 481 521 483
3 483 521 522
3 483 522 485
3 485 522 523
3 485 523 487
3 487 523 524
3 489 525 491
3 491 525 526
3 491 526 493
3 493 526 527
3 493 527 495
3 495 527 528
3 495 528 497
3 497 528 529
3 497 529 499
3 499 529 530
3 499 530 501
3 501 530 531
3 501 531 503
3 503 531 532
3 505 533 507
3 507 533 534
3 507 534 509
3 509 534 535
3 510 536 512
3 512 536 537
3 512 537 514
3 514 537 538
3 514 538 516
3 516 538 539
3 518 540 162
3 162 540 45
3 519 46 541
3 519 541 520
3 520 541 542
3 520 542 521
3 521 542 543
3 521 543 522
3 522 543 544
3 522 544 523
3 523 544 545
3 523 545 524
3 524 545 546
3 525 547 526
3 526 547 548
3 526 548 527
3 527 548 549
3 527 549 528
3 528 549 550
3 528 550 529
3 529 550 551
3 529 551 530
3 530 551 552
3 530 552 531
3 531 552 553
3 531 553 532
3 532 553 554
3 533 555 534
3 534 555 556
3 534 556 535
3 535 556 557
3 536 558 537
3 537 558 559
3 537 559 538
3 538 559 560
3 538 560 539
3 539 560 561
3 540 562 45
3 563 1 564
3 563 564 565
3 565 564 566
3 565 566 567
3 567 566 568
3 567 568 544
3 544 568 569
3 544 569 570
3 570 569 571
3 570 571 572
3 572 571 573
3 574 575 548
3 548 575 576
3 548 576 577
3 577 576 578
3 577 578 550
3 550 578 579
3 550 579 551
3 551 579 580
3 551 580 552
3 552 580 581
3 552 581 582
3 582 581 583
3 582 583 584
3 584 583 585
3 586 587 588
3 588 587 589
3 588 589 590
3 590 589 591
3 558 592 593
3 593 592 594
3 593 594 560
3 560 594 595
3 560 595 596
3 596 595 597
3 598 599 45
3 564 1 600
3 564 600 601
3 601 600 602
3 601 602 568
3 568 602 603
3 568 603 569
3 569 603 604
3 569 604 605
3 605 604 606
3 605 606 573
3 573 606 607
3 575 608 609
3 609 608 610
3 609 610 611
3 611 610 612
3 611 612 579
3 579 612 613
3 579 613 580
3 580 613 614
3 580 614 615
3 615 614 616
3 615 616 617
3 617 616 618
3 617 618 585
3 585 618 619
3 587 620 589
3 589 620 621
3 589 621 591
3 591 621 622
3 623 624 625
3 625 624 626
3 625 626 595
3 595 626 627
3 595 627 628
3 628 627 629
3 630 631 93
3 93 631 70
3 600 1 632
3 600 632 602
3 602 632 633
3 602 633 603
3 603 633 634
3 603 634 604
3 604 634 635
3 604 635 606
3 606 635 636
3 606 636 607
3 607 636 637
3 608 638 610
3 610 638 639
3 610 639 612
3 612 639 640
3 612 640 613
3 613 640 641
3 613 641 614
3 614 641 642
3 614 642 616
3 616 642 643
3 616 643 618
3 618 643 644
3 618 644 619
3 619 644 645
3 620 646 621
3 621 646 647
3 621 647 622
3 622 647 648
3 624 649 626
3 626 649 650
3 626 650 627
3 627 650 651
3 627 651 629
3 629 651 652
3 631 653 70
3 70 653 116
3 632 277 654
3 632 654 633
3 633 654 655
3 633 655 634
3 634 655 656
3 634 656 635
3 635 656 657
3 635 657 636
3 636 657 658
3 636 658 637
3 637 658 659
3 638 660 639
3 639 660 661
3 639 661 640
3 640 661 662
3 640 662 641
3 641 662 663
3 641 663 642
3 642 663 664
3 642 664 643
3 643 664 665
3 643 665 644
3 644 665 666
3 644 666 645
3 645 666 667
3 646 668 647
3 647 668 669
3 647 669 648
3 648 669 670
3 649 671 650
3 650 671 672
3 650 672 651
3 651 672 673
3 651 673 652
3 652 673 674
3 653 675 116
3 116 675 69
3 654 46 676
3 654 676 655
3 655 676 677
3 655 677 656
3 656 677 678
3 656 678 657
3 657 678 679
3 657 679 658
3 658 679 680
3 658 680 681
3 681 680 682
3 683 684 685
3 685 684 686
3 685 686 687
3 687 686 688
3 687 688 663
3 663 688 689
3 663 689 690
3 690 689 691
3 690 691 692
3 692 691 693
3 692 693 666
3 666 693 694
3 666 694 695
3 695 694 696
3 668 697 698
3 698 697 699
3 698 699 700
3 700 699 701
3 671 702 703
3 703 702 704
3 703 704 705
3 705 704 706
3 705 706 707
3 707 706 708
3 675 709 162
3 162 709 116
3 710 277 711
3 710 711 712
3 712 711 713
3 712 713 714
3 714 713 715
3 714 715 716
3 716 715 717
3 716 717 718
3 718 717 719
3 718 719 720
3 720 719 721
3 722 723 724
3 724 723 725
3 724 725 726
3 726 725 727
3 726 727 728
3 728 727 729
3 728 729 730
3 730 729 731
3 730 731 693
3 693 731 732
3 693 732 733
3 733 732 734
3 733 734 735
3 735 734 736
3 737 738 739
3 739 738 740
3 739 740 741
3 741 740 742
3 743 744 745
3 745 744 746
3 745 746 747
3 747 746 748
3 747 748 749
3 749 748 750
3 751 752 300
3 300 752 45
3 277 1 711
3 711 1 753
3 711 753 713
3 713 753 754
3 713 754 715
3 715 754 755
3 715 755 717
3 717 755 756
3 717 756 719
3 719 756 757
3 719 757 721
3 721 757 758
3 723 759 725
3 725 759 760
3 725 760 727
3 727 760 761
3 727 761 729
3 729 761 762
3 729 762 731
3 731 762 763
3 731 763 732
3 732 763 764
3 732 764 734
3 734 764 765
3 734 765 736
3 736 765 766
3 738 767 740
3 740 767 768
3 740 768 742
3 742 768 769
3 744 770 746
3 746 770 771
3 746 771 748
3 748 771 772
3 748 772 750
3 750 772 773
3 752 774 45
3 1 433 753
3 753 433 775
3 753 775 754
3 754 775 776
3 754 776 755
3 755 776 777
3 755 777 756
3 756 777 778
3 756 778 757
3 757 778 779
3 757 779 758
3 758 779 780
3 759 781 760
3 760 781 782
3 760 782 761
3 761 782 783
3 761 783 762
3 762 783 784
3 762 784 763
3 763 784 785
3 763 785 764
3 764 785 786
3 764 786 765
3 765 786 787
3 765 787 766
3 766 787 788
3 767 789 768
3 768 789 790
3 768 790 769
3 769 790 791
3 770 792 771
3 771 792 793
3 771 793 772
3 772 793 794
3 772 794 773
3 773 794 795
3 774 796 45
3 45 796 69
3 433 163 797
3 797 163 798
3 797 798 799
3 799 798 800
3 799 800 801
3 801 800 802
3 801 802 803
3 803 802 804
3 803 804 805
3 805 804 806
3 805 806 807
3 807 806 808
3 809 810 811
3 811 810 812
3 811 812 813
3 813 812 814
3 813 814 815
3 815 814 816
3 815 816 817
3 817 816 818
3 817 818 819
3 819 818 820
3 819 820 821
3 821 820 822
3 821 822 823
3 823 822 824
3 825 826 827
3 827 826 828
3 827 828 829
3 829 828 830
3 831 832 833
3 833 832 834
3 833 834 835
3 835 834 836
3 835 836 837
3 837 836 838
3 839 840 475
3 475 840 116
3 841 277 842
3 842 277 843
3 842 843 844
3 844 843 845
3 844 845 846
3 846 845 847
3 846 847 848
3 848 847 849
3 848 849 850
3 850 849 851
3 850 851 852
3 852 851 853
3 854 855 856
3 856 855 857
3 856 857 858
3 858 857 859
3 858 859 816
3 816 859 860
3 816 860 861
3 861 860 862
3 861 862 863
3 863 862 864
3 863 864 865
3 865 864 866
3 865 866 867
3 867 866 868
3 869 870 871
3 871 870 872
3 871 872 873
3 873 872 874
3 875 876 877
3 877 876 878
3 877 878 879
3 879 878 880
3 879 880 881
3 881 880 882
3 883 884 69
3 69 884 45
3 277 1 843
3 843 1 0
3 843 0 845
3 845 0 3
3 845 3 847
3 847 3 5
3 847 5 849
3 849 5 7
3 849 7 851
3 851 7 9
3 851 9 853
3 853 9 11
3 855 13 857
3 857 13 15
3 857 15 859
3 859 15 17
3 859 17 860
3 860 17 19
3 860 19 862
3 862 19 21
3 862 21 864
3 864 21 23
3 864 23 866
3 866 23 25
3 866 25 868
3 868 25 27
3 870 29 872
3 872 29 31
3 872 31 874
3 874 31 33
3 876 35 878
3 878 35 37
3 878 37 880
3 880 37 39
3 880 39 882
3 882 39 41
3 884 43 45
