# vtk DataFile Version 2.0
File written by itkPolyDataMeshIO
ASCII
DATASET POLYDATA
POINTS 801 float
12.104836 1.631142 341.43396
11.233101 5.993065 336.0004
13.109276 1.934563 341.12454
13.817558 -0.371773 349.9466
15.132088 -0.003014 349.53482
15.677437 -1.395103 358.90768
17.017693 -1.10981 358.47638
17.485054 -2.26252 367.40433
18.796608 -2.091301 366.9451
19.330193 -2.740807 375.39877
20.505379 -2.681465 374.90323
19.330193 -2.740807 375.3987
20.505363 -2.681496 374.90317
21.30967 -2.755592 383.03256
22.190178 -2.799599 382.51736
24.379906 -2.488518 390.02078
24.920631 -2.607475 389.43405
29.909645 -2.138725 394.66196
30.21862 -2.265511 393.88336
29.90966 -2.138725 394.66193
30.218636 -2.265511 393.8834
36.566383 -1.653709 394.93735
36.55381 -1.785347 394.13992
43.56452 -1.516411 393.27524
43.453148 -1.64608 392.5101
50.361885 -1.675362 391.36453
50.23855 -1.800728 390.63782
50.3619 -1.675362 391.36453
50.238564 -1.800728 390.63785
57.002235 -2.121803 389.3739
56.847633 -2.258278 388.68048
63.299828 -2.709251 386.56226
63.073616 -2.844841 385.87912
69.18966 -3.262672 382.90366
68.90475 -3.381966 382.22495
69.18963 -3.262672 382.9037
68.90478 -3.381966 382.22495
75.1231 -3.770851 379.26077
74.86718 -3.897636 378.59497
81.25533 -4.157936 375.74524
80.987175 -4.294075 375.0924
87.75768 -4.654778 372.40497
87.42669 -4.775734 371.7867
87.75768 -4.654778 372.40503
94.26653 -5.291542 369.2704
93.92742 -5.393776 368.66644
99.92971 -6.337746 366.75385
99.600975 -6.417259 366.127
104.576836 -7.641045 364.8015
104.24471 -7.711937 364.15067
104.576866 -7.641045 364.8015
104.24468 -7.711922 364.15067
108.48443 -8.696602 363.28586
108.13308 -8.783302 362.62234
111.881096 -9.523232 362.02866
111.50283 -9.652657 361.3761
114.34643 -9.668633 360.79114
114.0368 -9.809105 360.30362
114.34643 -9.668648 360.7911
114.0368 -9.809105 360.3036
115.05721 -7.749245 359.69748
11.233086 5.993065 336.0004
13.930016 2.374947 340.8709
16.08564 0.55619 349.2393
17.94056 -0.61454 358.1999
19.699593 -1.687248 366.65887
21.343071 -2.385124 374.57132
21.343056 -2.385124 374.57132
22.901619 -2.627861 382.09503
25.469643 -2.534767 388.83707
30.542412 -2.20179 393.06485
36.54763 -1.736259 393.30713
43.34368 -1.588753 391.74805
50.12449 -1.732399 389.91156
56.70298 -2.190056 387.9669
62.870857 -2.782722 385.1916
68.65072 -3.322792 381.5446
68.65072 -3.322777 381.5446
74.61498 -3.837273 377.8982
80.741234 -4.237923 374.43073
87.126884 -4.704277 371.14975
87.126915 -4.704277 371.14975
93.64147 -5.320137 368.064
99.36782 -6.336555 365.56302
104.03686 -7.624306 363.60812
104.03683 -7.624306 363.60812
107.905846 -8.700874 362.08118
111.208336 -9.594688 360.8044
113.74569 -9.790382 359.81467
113.74566 -9.790382 359.81467
115.05718 -7.749245 359.69745
14.712013 2.940788 340.6377
16.994194 1.264427 348.97903
18.805092 0.043892 357.97064
20.541252 -1.106773 366.42755
22.126213 -1.905891 374.29373
22.126198 -1.905922 374.2937
23.57441 -2.270607 381.7185
25.990608 -2.273582 388.28772
30.840172 -1.948921 392.3068
30.840187 -1.948906 392.3068
36.54827 -1.485863 392.4979
43.257607 -1.336281 391.00998
50.038033 -1.47274 389.2225
50.038033 -1.472755 389.2225
56.591026 -1.923637 387.293
62.707115 -2.520195 384.53073
68.43691 -3.072701 380.8881
68.43694 -3.072685 380.88812
74.39535 -3.587883 377.24292
80.52984 -3.977974 373.79773
86.88729 -4.447258 370.5565
86.88729 -4.447258 370.55652
93.41912 -5.06414 367.46933
99.19802 -6.098244 364.99295
103.89535 -7.406563 363.07574
103.89535 -7.406548 363.0758
107.73882 -8.487785 361.5598
110.963005 -9.377327 360.25894
113.48907 -9.617317 359.35193
113.48907 -9.617332 359.3519
115.05721 -7.749245 359.69745
11.233116 5.993065 336.00043
15.393166 3.68026 340.42517
17.819191 2.162071 348.75378
19.601128 0.890175 357.78815
21.31791 -0.3321 366.25333
22.84742 -1.231026 374.0795
22.847404 -1.231041 374.07947
24.187752 -1.721657 381.41324
26.453423 -1.822182 387.81995
31.098412 -1.50666 391.63837
31.098427 -1.50666 391.63837
36.557304 -1.049553 391.7935
43.200615 -0.88781 390.3515
49.98835 -1.028954 388.61615
56.529106 -1.484428 386.70978
62.598366 -2.083656 383.94818
68.26949 -2.64698 380.30325
68.26949 -2.646965 380.30328
74.21801 -3.157524 376.661
80.370415 -3.538841 373.24075
86.7156 -4.014259 370.0238
86.7156 -4.014244 370.02386
93.27511 -4.641075 366.92032
99.1072 -5.713051 364.45435
103.82781 -7.057442 362.56693
103.82778 -7.057442 362.56693
107.63665 -8.141594 361.0645
110.77389 -9.006233 359.75284
113.275505 -9.303246 358.93335
113.275505 -9.303261 358.93335
11.233101 5.99305 336.0004
15.877663 4.571709 340.24832
18.439949 3.234291 348.582
20.223442 1.902336 357.67255
21.934044 0.611412 366.15918
23.423256 -0.389992 373.95663
24.678505 -1.02607 381.2108
26.82154 -1.224144 387.4642
31.302574 -0.869698 391.09177
31.30259 -0.869698 391.09177
36.573967 -0.443352 391.24643
43.178123 -0.288429 389.85156
49.980812 -0.440742 388.15308
49.980812 -0.440727 388.1531
56.52343 -0.902306 386.2589
62.555336 -1.501259 383.49667
68.16213 -2.073463 379.8457
68.16216 -2.073448 379.8457
74.096855 -2.580482 376.19778
80.2781 -2.958504 372.8095
86.62447 -3.436058 369.59137
86.62447 -3.436058 369.59143
93.226036 -4.087715 366.47546
99.11239 -5.21183 364.01047
103.848595 -6.596138 362.13336
103.848625 -6.596138 362.1334
107.615166 -7.67878 360.64227
110.659966 -8.502251 359.33078
113.12057 -8.86956 358.5908
113.12054 -8.869576 358.59076
15.877663 4.571724 340.24832
16.127953 5.556175 340.11047
18.439949 3.234306 348.58203
18.79026 4.424248 348.47324
20.223457 1.902336 357.67258
20.598549 3.032539 357.63403
22.319649 1.677025 366.15613
23.423256 -0.389992 373.95667
23.79316 0.573738 373.93887
23.42324 -0.389992 373.95663
23.793129 0.573738 373.93884
24.67849 -1.026085 381.2108
25.000725 -0.213448 381.12823
27.059044 -0.504097 387.2617
31.302559 -0.869698 391.0918
31.419258 -0.082344 390.75024
31.302574 -0.869698 391.0918
36.573967 -0.443336 391.24643
36.59394 0.310677 390.90128
43.178123 -0.288414 389.85156
43.192207 0.417534 389.55118
49.980812 -0.440742 388.1531
50.015114 0.245522 387.87247
49.980827 -0.440727 388.1531
50.01513 0.245522 387.87247
56.523445 -0.902306 386.25894
56.572746 -0.227898 385.97607
62.57659 -0.827156 383.20682
68.12264 -1.393059 379.54965
68.12264 -1.393044 379.5497
74.096825 -2.580482 376.19778
74.047966 -1.901711 375.9065
80.27807 -2.958504 372.80948
80.260704 -2.273994 372.53592
86.62447 -3.436073 369.59137
86.62795 -2.762108 369.31073
86.62447 -3.436058 369.5914
86.62795 -2.762093 369.31076
93.226036 -4.08773 366.4755
93.27633 -3.443474 366.16965
99.11239 -5.211845 364.0105
99.21252 -4.625496 363.69037
103.96038 -6.05381 361.8152
103.848625 -6.596153 362.1334
103.96038 -6.05381 361.81522
107.68185 -7.13044 360.33527
110.659966 -8.502251 359.3308
110.63607 -7.899223 359.03415
113.12054 -8.86956 358.5908
113.04107 -8.346611 358.35812
113.04104 -8.346611 358.35812
115.05721 -7.74926 359.69748
16.130257 6.563454 340.02286
18.83628 5.655495 348.43744
20.685799 4.212105 357.67697
22.435234 2.798943 366.24564
23.923576 1.601234 374.02783
23.923561 1.601219 374.02783
25.134743 0.682625 381.16763
27.157112 0.308723 387.22464
31.433434 0.762245 390.65503
36.6148 1.13279 390.80057
43.24398 1.201378 389.4609
50.088448 0.988106 387.78387
56.669838 0.474556 385.87692
62.657402 -0.124306 383.09653
68.15142 -0.663277 379.43384
68.15142 -0.663277 379.43387
74.06939 -1.169899 375.79263
80.31533 -1.544426 372.4327
86.718315 -2.040916 369.18958
86.718315 -2.040901 369.18958
93.414635 -2.75985 366.01767
99.39681 -4.002357 363.51694
104.15533 -5.469704 361.6366
104.15533 -5.469688 361.6366
107.83361 -6.53405 360.16727
110.704124 -7.238884 358.88373
113.04064 -7.771278 358.24783
113.04061 -7.771278 358.24783
15.866646 7.538963 340.01282
18.5626 6.84977 348.48865
20.470604 5.361137 357.80304
22.266167 3.896477 366.4235
23.798286 2.605217 374.21866
23.798271 2.605217 374.21866
25.055061 1.538704 381.33026
27.089806 1.075813 387.3587
31.348442 1.600746 390.8034
36.638374 1.933556 390.94864
43.333748 1.984047 389.6055
50.19677 1.724312 387.9048
50.196785 1.724327 387.9048
56.81098 1.179955 385.96436
62.79824 0.602684 383.16992
68.250084 0.079277 379.51154
68.250084 0.079292 379.51157
74.16274 -0.440544 375.87375
80.43719 -0.831886 372.50995
86.89294 -1.321587 369.24557
86.89294 -1.321587 369.2456
93.63003 -2.092598 366.03668
99.649376 -3.395744 363.50525
104.420006 -4.887291 361.61365
104.42004 -4.887276 361.61365
108.06173 -5.931633 360.1544
110.86327 -6.565269 358.89606
113.12414 -7.179314 358.27435
115.05724 -7.749229 359.6975
11.233101 5.99308 336.0004
11.233116 5.99308 336.00043
15.866646 7.538979 340.01285
15.343849 8.406761 340.08374
18.562614 6.849785 348.48868
17.979515 7.912971 348.62952
20.470634 5.361168 357.80307
19.963722 6.391655 358.00763
22.266182 3.896507 366.42352
21.822578 4.889091 366.67905
23.798302 2.605247 374.2187
23.427849 3.517494 374.49744
23.798302 2.605232 374.2187
23.427834 3.517494 374.4974
25.055077 1.538734 381.3303
24.78051 2.315834 381.59808
27.08982 1.075844 387.35873
26.883018 1.764839 387.6421
31.348442 1.600761 390.80347
31.175026 2.353188 391.17957
31.348457 1.600761 390.80344
31.175041 2.353188 391.17957
36.638405 1.933571 390.94867
36.665794 2.671654 391.33246
43.333763 1.984077 389.60553
43.449333 2.672096 389.9582
50.196785 1.724327 387.90482
50.330116 2.395302 388.2205
50.1968 1.724327 387.90485
50.33013 2.395317 388.22052
56.811012 1.179955 385.96442
56.98063 1.848579 386.23853
62.79827 0.602699 383.16995
62.97886 1.27404 383.42624
68.250114 0.079292 379.51154
68.40896 0.757896 379.77994
68.250114 0.079308 379.51157
68.40896 0.757927 379.77997
74.16274 -0.440544 375.87378
74.321434 0.233116 376.14624
80.43719 -0.831871 372.50998
80.619774 -0.166252 372.76776
86.89297 -1.321571 369.2456
87.133446 -0.673531 369.4778
86.89297 -1.321556 369.24564
87.13348 -0.673515 369.47787
93.63006 -2.092583 366.03668
93.91384 -1.477867 366.2289
99.64941 -3.395729 363.50528
99.960594 -2.828346 363.6592
104.42004 -4.88726 361.61368
104.73592 -4.34687 361.74954
104.42007 -4.88726 361.61368
108.06173 -5.931618 360.15445
108.34884 -5.370506 360.2993
110.86327 -6.565254 358.89612
111.103325 -5.932304 359.0739
113.12417 -7.179298 358.2744
113.28802 -6.620644 358.44073
113.12414 -7.179298 358.27438
113.28799 -6.620644 358.4407
14.604271 9.065834 340.2407
17.129707 8.740517 348.8567
19.201164 7.213799 358.28027
21.135735 5.698006 366.99704
22.836098 4.274284 374.84845
22.836098 4.274269 374.84842
24.31649 2.97863 381.96735
26.533272 2.357796 388.07166
30.932838 2.963005 391.73764
30.932838 2.96299 391.73764
36.69433 3.26931 391.9002
43.580894 3.232109 390.48843
50.471275 2.939049 388.69278
50.471275 2.939049 388.69275
57.15287 2.410225 386.66898
63.17791 1.847572 383.84705
68.614525 1.324959 380.21063
68.614525 1.324974 380.21066
74.53173 0.800957 376.58652
80.84466 0.390862 373.18082
87.418205 -0.142952 369.86017
87.418236 -0.142937 369.8602
94.237785 -0.971321 366.57437
100.30212 -2.353584 363.96475
105.07903 -3.889977 362.03204
105.07903 -3.889961 362.03204
108.67306 -4.893135 360.5882
111.40145 -5.393913 359.39737
113.51238 -6.146675 358.72498
113.51238 -6.146675 358.72495
115.05724 -7.749229 359.69748
13.694633 9.447411 340.46835
16.075752 9.248512 349.15338
18.240623 7.753746 358.6006
20.257912 6.254723 367.35364
22.07119 4.811028 375.2423
22.07119 4.811012 375.24228
23.713707 3.45594 382.3935
26.09185 2.784798 388.58524
30.646797 3.398247 392.4197
30.646797 3.398232 392.4197
36.71833 3.695473 392.60315
43.71325 3.630455 391.16
50.613625 3.334755 389.30283
50.61364 3.334755 389.3028
57.32168 2.828041 387.2318
63.39527 2.268227 384.40607
68.868004 1.728615 380.77444
74.77099 1.203896 377.14157
81.0931 0.790703 373.71927
87.727776 0.230492 370.36612
87.727776 0.230492 370.36615
94.57827 -0.615593 367.04895
100.64852 -2.011833 364.40076
105.42358 -3.552422 362.44016
109.009636 -4.536064 360.99878
111.73528 -4.990913 359.84186
113.78115 -5.793053 359.10645
113.78115 -5.793053 359.1064
115.05721 -7.749229 359.6975
13.694633 9.447426 340.46835
12.710854 9.554024 340.71667
14.912773 9.415154 349.4738
17.16172 7.972679 358.93414
19.258537 6.514824 367.71774
21.191292 5.08448 375.6496
21.191277 5.084465 375.64957
23.713722 3.455956 382.3935
23.012413 3.710136 382.85406
25.580162 3.015999 389.16602
30.330116 3.637535 393.19748
36.733925 3.933418 393.39957
43.71325 3.63047 391.16
43.832527 3.838875 391.89484
50.61364 3.334755 389.30283
50.748955 3.553551 390.0079
50.613655 3.334755 389.30283
50.74897 3.553551 390.00787
57.321693 2.828041 387.2318
57.48742 3.072578 387.9047
63.395287 2.268211 384.40607
63.621437 2.500771 385.0478
68.868004 1.7286 380.77444
69.14962 1.943535 381.42136
68.868034 1.728615 380.77448
69.14965 1.943535 381.42136
74.77099 1.203896 377.1416
75.03176 1.428688 377.79407
81.35738 1.006248 374.34863
88.04635 0.423988 370.96118
87.727806 0.230492 370.36615
88.04638 0.424004 370.9612
94.91259 -0.43 367.61536
100.64852 -2.011818 364.40076
100.97466 -1.824776 364.932
105.74471 -3.357964 362.94412
109.33367 -4.323906 361.5007
111.73528 -4.990929 359.84186
112.07714 -4.747673 360.36908
114.06936 -5.577858 359.54764
114.06933 -5.577858 359.54764
115.05721 -7.749245 359.6975
11.233101 5.99308 336.00043
11.7369 9.393501 340.96
13.741127 9.244423 349.7813
16.05584 7.859062 359.24738
18.219795 6.458656 368.0564
20.266853 5.074638 376.03674
20.266853 5.074608 376.0367
22.269325 3.732857 383.3131
25.041222 3.054787 389.76797
30.008598 3.673485 394.00836
30.008598 3.6735 394.00833
36.742622 3.969612 394.23453
43.934288 3.849495 392.66104
50.86251 3.570869 390.7408
57.634544 3.113075 388.62357
63.83616 2.533775 385.734
69.42556 1.970375 382.09915
69.42553 1.970406 382.09915
75.29037 1.471382 378.49173
81.62252 1.027824 375.01096
88.35244 0.428307 371.5934
88.35244 0.428307 371.59344
95.21612 -0.420967 368.22406
101.25631 -1.801964 365.51395
106.01867 -3.320808 363.50607
106.01864 -3.320808 363.50604
109.62249 -4.272133 362.05936
112.40771 -4.679695 360.9493
114.36495 -5.513588 360.03058
114.36495 -5.513603 360.03058
10.841347 8.964577 341.1983
12.656715 8.744087 350.0624
15.015785 7.420937 359.51758
17.227394 6.088905 368.34274
19.372093 4.77906 376.37164
19.372093 4.779045 376.37158
21.545998 3.515739 383.72525
24.5234 2.891335 390.3282
29.70913 3.506996 394.78342
36.744835 3.806541 395.0448
44.00408 3.672462 393.43408
50.93815 3.39077 391.4573
50.938164 3.39077 391.4573
57.74343 2.94265 389.32068
64.019035 2.364326 386.42694
69.674614 1.804939 382.77512
69.674644 1.804939 382.77512
75.518364 1.313622 379.16745
81.86678 0.84948 375.66214
88.620384 0.247078 372.2094
88.620384 0.247093 372.20944
95.46844 -0.592934 368.8367
101.47469 -1.9506 366.11206
106.22332 -3.445442 364.08173
106.22329 -3.445442 364.08176
109.85314 -4.384865 362.6298
112.70434 -4.791649 361.54132
114.64983 -5.604744 360.52405
114.64983 -5.604759 360.52402
10.113808 8.302849 341.4144
11.752937 7.950554 350.30197
14.125923 6.692039 359.72946
16.35868 5.434486 368.55954
18.57035 4.219398 376.6359
18.570335 4.219398 376.6359
20.873344 3.070168 384.08075
24.02494 2.525078 390.84875
29.43412 3.132759 395.5108
29.43412 3.132774 395.5108
36.73536 3.450523 395.78568
44.021996 3.327721 394.12918
50.967384 3.036049 392.12192
50.967415 3.036049 392.12192
57.81022 2.585426 389.96054
64.15212 2.009361 387.05283
69.882256 1.452522 383.40662
69.882256 1.452538 383.40668
75.7131 0.965248 379.8032
82.07171 0.486046 376.2716
88.83459 -0.102989 372.777
88.83459 -0.102974 372.777
95.6538 -0.935432 369.41833
101.61346 -2.26255 366.68625
106.34313 -3.722313 364.62747
106.3431 -3.722313 364.62747
110.00677 -4.652794 363.16495
112.93621 -5.074577 362.0855
114.88796 -5.843727 360.9664
114.88796 -5.843742 360.96637
115.05724 -7.749245 359.69748
11.233116 5.993095 336.00046
10.113823 8.302864 341.41443
9.585411 7.45327 341.60028
11.752968 7.950569 350.302
11.083336 6.923012 350.4903
14.125938 6.692055 359.7295
13.445534 5.730568 359.87393
16.358696 5.434502 368.55954
15.674522 4.549767 368.6953
18.570366 4.219414 376.6359
17.921837 3.442924 376.8109
18.57035 4.219414 376.6359
17.921822 3.442924 376.81088
20.873344 3.070183 384.08075
20.316673 2.437386 384.34375
24.02494 2.525108 390.84875
23.606972 1.987785 391.27292
29.434135 3.13279 395.5108
29.202736 2.563164 396.13492
29.202751 2.563164 396.13492
36.735374 3.450539 395.78568
36.713387 2.913155 396.42285
44.02201 3.327721 394.12918
44.005302 2.826118 394.7252
50.967415 3.036049 392.12195
50.957573 2.541115 392.66193
50.96743 3.036049 392.12192
50.95759 2.541115 392.66196
57.810234 2.585426 389.96057
57.83442 2.074364 390.4805
64.15215 2.009361 387.05286
64.22976 1.499702 387.5727
69.882256 1.452538 383.40665
70.02764 0.955391 383.92514
69.882256 1.452553 383.40668
75.7131 0.965279 379.80322
75.85461 0.460793 380.32864
82.07171 0.486061 376.27164
82.21038 -0.006493 376.75757
88.83459 -0.102989 372.77704
88.98409 -0.607094 373.26974
88.83459 -0.102974 372.77704
88.98409 -0.607079 373.26978
95.65383 -0.935402 369.41837
95.75768 -1.409004 369.90845
101.65862 -2.693779 367.16943
106.34313 -3.722298 364.6275
106.3713 -4.129936 365.1068
106.3431 -3.722298 364.6275
106.37127 -4.129936 365.1068
110.0068 -4.652779 363.16498
110.07702 -5.060524 363.63828
112.93621 -5.074562 362.0855
113.09893 -5.513206 362.56418
114.88799 -5.843712 360.9664
115.08129 -6.2201 361.3576
115.08129 -6.220116 361.35757
11.233086 5.993065 336.00037
9.278862 6.470009 341.74677
10.678429 5.737648 350.61908
13.009865 4.610832 359.9461
15.2136 3.504585 368.745
17.465614 2.509163 376.88724
17.4656 2.509148 376.8872
19.906975 1.658043 384.49777
23.2956 1.316811 391.56165
29.04934 1.863411 396.57657
29.04934 1.863396 396.5766
36.690163 2.230858 396.8861
43.966988 2.168465 395.1636
50.918724 1.908257 393.05493
50.91874 1.908241 393.0549
57.813255 1.43885 390.85168
64.247765 0.86071 387.95068
70.10494 0.331032 384.30527
70.10494 0.331032 384.3053
75.93203 -0.167442 380.7023
82.28039 -0.632027 377.1162
89.046715 -1.224648 373.62714
89.046715 -1.224632 373.6272
95.77187 -1.996376 370.28406
101.61266 -3.235374 367.5529
106.30575 -4.640083 365.4846
106.30575 -4.640083 365.48462
110.056175 -5.574287 364.0066
113.17336 -6.070824 362.92773
115.20394 -6.7006 361.64746
115.20391 -6.7006 361.64743
11.233116 5.99308 336.0004
9.207954 5.452171 341.84106
10.552818 4.48658 350.6808
12.834648 3.41346 359.9439
14.995628 2.37397 368.7079
17.22628 1.484596 376.86057
17.226265 1.484596 376.86057
19.673271 0.780251 384.52988
23.118507 0.534721 391.69363
28.98835 1.044197 396.80942
28.98835 1.044212 396.80942
36.67095 1.434563 397.12717
43.91459 1.426109 395.37918
50.853706 1.192497 393.25784
50.853706 1.192482 393.25787
57.748894 0.747566 391.04962
64.20617 0.159966 388.157
70.1094 -0.396202 384.5215
70.10943 -0.396202 384.52158
75.9446 -0.872154 380.90656
82.27462 -1.333092 377.31473
89.0201 -1.907707 373.82913
89.0201 -1.907692 373.82913
95.69039 -2.670738 370.52017
101.47375 -3.859947 367.80667
106.15136 -5.215675 365.7338
106.15136 -5.215675 365.73383
109.94698 -6.154808 364.2447
113.15594 -6.705574 363.15286
115.24999 -7.24894 361.82007
115.24996 -7.24894 361.82007
9.375999 4.43647 341.87863
10.70594 3.239159 350.67273
12.918922 2.214378 359.86945
15.023415 1.234962 368.5883
17.212929 0.446968 376.73364
17.212929 0.446953 376.73364
19.634514 -0.110939 384.4363
23.097145 -0.272804 391.65115
29.023567 0.173302 396.80057
36.655083 0.611641 397.12207
43.850273 0.652077 395.34854
50.76571 0.445763 393.24063
50.765724 0.445763 393.2406
57.64228 0.027657 391.0595
64.10497 -0.557671 388.17862
70.041435 -1.130653 384.5472
70.041466 -1.130623 384.54724
75.89025 -1.606941 380.92505
82.18841 -2.061333 377.33017
88.9006 -2.619194 373.86118
88.9006 -2.619179 373.8612
95.522545 -3.349983 370.58786
101.25713 -4.486397 367.90097
105.92184 -5.806602 365.83597
105.92187 -5.806602 365.836
109.758354 -6.760612 364.33755
113.04592 -7.380104 363.22375
115.21227 -7.840096 361.86185
115.05721 -7.749229 359.69748
9.76606 3.489449 341.8581
11.116203 2.077278 350.5975
13.241707 1.093285 359.73053
15.279564 0.166237 368.3977
17.413399 -0.526985 376.5192
17.413368 -0.526985 376.51917
19.785316 -0.94149 384.22684
23.229637 -1.015541 391.4368
29.147179 -0.631706 396.54306
36.634514 -0.168602 396.85773
43.777855 -0.088173 395.07697
50.663994 -0.267052 393.0065
50.66401 -0.267052 393.00647
57.501137 -0.675133 390.8778
63.950386 -1.252769 388.01447
69.9042 -1.824898 384.37643
69.9042 -1.824898 384.37646
75.76949 -2.319374 380.74722
82.02499 -2.762932 377.155
88.69164 -3.303505 373.71082
88.69164 -3.303505 373.71085
95.276726 -3.988731 370.47876
100.97817 -5.073753 367.8318
105.635155 -6.370064 365.78812
105.635124 -6.370064 365.78812
109.50555 -7.345161 364.28323
112.85067 -8.037575 363.13614
115.09026 -8.420097 361.7653
115.09023 -8.420097 361.7653
10.342873 2.695595 341.78064
11.732872 1.08831 350.46448
13.754082 0.129295 359.54318
15.719521 -0.756767 368.1578
17.788185 -1.367928 376.243
17.78817 -1.367943 376.24298
20.094582 -1.656944 383.92798
23.495872 -1.646492 391.0754
29.348335 -1.30352 396.062
29.34835 -1.30352 396.062
36.60714 -0.838661 396.36197
43.703316 -0.712852 394.60907
50.5608 -0.873726 392.5959
50.560814 -0.873726 392.5959
57.339806 -1.292137 390.51898
63.755287 -1.874321 387.67242
69.70791 -2.448967 384.02798
69.70794 -2.448952 384.028
75.59313 -2.947166 380.3917
81.80413 -3.367088 376.81512
88.41967 -3.890404 373.40308
88.41967 -3.890388 373.4031
94.97085 -4.553978 370.21094
100.65743 -5.595695 367.61612
105.318474 -6.865517 365.6082
109.21447 -7.861 364.10052
112.590294 -8.621117 362.9078
114.89477 -8.93644 361.54108
114.89477 -8.936455 361.54108
10.342888 2.695595 341.7806
11.091499 2.061958 341.6507
12.547707 0.276985 350.2748
13.754066 0.129295 359.54318
14.457451 -0.679344 359.30554
15.719521 -0.756783 368.1578
16.346352 -1.53756 367.86734
17.7882 -1.367958 376.24304
18.33651 -2.07653 375.90814
17.788185 -1.367958 376.243
18.33648 -2.076561 375.90814
20.094566 -1.656944 383.928
20.554543 -2.245079 383.55148
23.495857 -1.646492 391.0754
23.880302 -2.142921 390.59402
29.612541 -1.818764 395.4069
29.612541 -1.818764 395.40686
36.607124 -0.838661 396.36197
36.582695 -1.333519 395.70023
43.63482 -1.188927 393.9992
50.5608 -0.873711 392.59586
50.463295 -1.34594 392.04358
50.560814 -0.873726 392.59586
50.46331 -1.345955 392.0436
57.339806 -1.292137 390.51895
57.170235 -1.784111 390.00745
63.755302 -1.874321 387.67242
63.533546 -2.374214 387.17566
69.70794 -2.448967 384.02795
69.46645 -2.939827 383.5266
69.46645 -2.939812 383.52664
75.59316 -2.947151 380.39166
75.373924 -3.441261 379.88647
81.80413 -3.367073 376.8151
81.543816 -3.834801 376.34256
88.41967 -3.890404 373.4031
88.105675 -4.343742 372.96637
88.105675 -4.343727 372.9664
94.97088 -4.553978 370.21094
94.62994 -4.995094 369.8042
100.65743 -5.595695 367.6161
100.31527 -6.014931 367.26907
104.98513 -7.276588 365.3089
105.318504 -6.865517 365.6082
104.9851 -7.276588 365.3089
109.2145 -7.861 364.10052
108.89605 -8.296227 363.80154
112.590324 -8.621117 362.9078
112.27914 -9.110786 362.5581
114.64239 -9.362236 361.2118
114.64236 -9.362236 361.2118
POLYGONS 1092 4368
3 0 1 2
3 0 2 3
3 3 2 4
3 3 4 5
3 5 4 6
3 5 6 7
3 7 6 8
3 7 8 9
3 9 8 10
3 11 12 13
3 13 12 14
3 13 14 15
3 15 14 16
3 15 16 17
3 17 16 18
3 19 20 21
3 21 20 22
3 21 22 23
3 23 22 24
3 23 24 25
3 25 24 26
3 27 28 29
3 29 28 30
3 29 30 31
3 31 30 32
3 31 32 33
3 33 32 34
3 35 36 37
3 37 36 38
3 37 38 39
3 39 38 40
3 39 40 41
3 41 40 42
3 43 42 44
3 44 42 45
3 44 45 46
3 46 45 47
3 46 47 48
3 48 47 49
3 50 51 52
3 52 51 53
3 52 53 54
3 54 53 55
3 54 55 56
3 56 55 57
3 58 59 60
3 1 61 2
3 2 61 62
3 2 62 4
3 4 62 63
3 4 63 6
3 6 63 64
3 6 64 8
3 8 64 65
3 8 65 10
3 10 65 66
3 12 67 14
3 14 67 68
3 14 68 16
3 16 68 69
3 16 69 18
3 18 69 70
3 20 70 22
3 22 70 71
3 22 71 24
3 24 71 72
3 24 72 26
3 26 72 73
3 28 73 30
3 30 73 74
3 30 74 32
3 32 74 75
3 32 75 34
3 34 75 76
3 36 77 38
3 38 77 78
3 38 78 40
3 40 78 79
3 40 79 42
3 42 79 80
3 42 81 45
3 45 81 82
3 45 82 47
3 47 82 83
3 47 83 49
3 49 83 84
3 51 85 53
3 53 85 86
3 53 86 55
3 55 86 87
3 55 87 57
3 57 87 88
3 59 89 60
3 60 89 90
3 61 1 62
3 62 1 91
3 62 91 63
3 63 91 92
3 63 92 64
3 64 92 93
3 64 93 65
3 65 93 94
3 65 94 66
3 66 94 95
3 67 96 68
3 68 96 97
3 68 97 69
3 69 97 98
3 69 98 70
3 70 98 99
3 70 100 71
3 71 100 101
3 71 101 72
3 72 101 102
3 72 102 73
3 73 102 103
3 73 104 74
3 74 104 105
3 74 105 75
3 75 105 106
3 75 106 76
3 76 106 107
3 77 108 78
3 78 108 109
3 78 109 79
3 79 109 110
3 79 110 80
3 80 110 111
3 81 112 82
3 82 112 113
3 82 113 83
3 83 113 114
3 83 114 84
3 84 114 115
3 85 116 86
3 86 116 117
3 86 117 87
3 87 117 118
3 87 118 88
3 88 118 119
3 89 120 90
3 90 120 121
3 91 122 123
3 91 123 92
3 92 123 124
3 92 124 93
3 93 124 125
3 93 125 94
3 94 125 126
3 94 126 95
3 95 126 127
3 96 128 97
3 97 128 129
3 97 129 98
3 98 129 130
3 98 130 99
3 99 130 131
3 100 132 101
3 101 132 133
3 101 133 102
3 102 133 134
3 102 134 103
3 103 134 135
3 104 135 105
3 105 135 136
3 105 136 106
3 106 136 137
3 106 137 107
3 107 137 138
3 108 139 109
3 109 139 140
3 109 140 110
3 110 140 141
3 110 141 111
3 111 141 142
3 112 143 113
3 113 143 144
3 113 144 114
3 114 144 145
3 114 145 115
3 115 145 146
3 116 147 117
3 117 147 148
3 117 148 118
3 118 148 149
3 118 149 119
3 119 149 150
3 120 151 121
3 121 151 60
3 122 152 123
3 123 152 153
3 123 153 124
3 124 153 154
3 124 154 125
3 125 154 155
3 125 155 126
3 126 155 156
3 126 156 127
3 127 156 157
3 128 157 129
3 129 157 158
3 129 158 130
3 130 158 159
3 130 159 131
3 131 159 160
3 132 161 133
3 133 161 162
3 133 162 134
3 134 162 163
3 134 163 135
3 135 163 164
3 135 165 136
3 136 165 166
3 136 166 137
3 137 166 167
3 137 167 138
3 138 167 168
3 139 169 140
3 140 169 170
3 140 170 141
3 141 170 171
3 141 171 142
3 142 171 172
3 143 173 144
3 144 173 174
3 144 174 145
3 145 174 175
3 145 175 146
3 146 175 176
3 147 177 148
3 148 177 178
3 148 178 149
3 149 178 179
3 149 179 150
3 150 179 180
3 151 181 60
3 60 181 121
3 182 1 183
3 182 183 184
3 184 183 185
3 184 185 186
3 186 185 187
3 186 187 156
3 156 187 188
3 156 188 189
3 189 188 190
3 191 192 193
3 193 192 194
3 193 194 159
3 159 194 195
3 159 195 196
3 196 195 197
3 198 197 199
3 199 197 200
3 199 200 201
3 201 200 202
3 201 202 203
3 203 202 204
3 205 206 207
3 207 206 208
3 207 208 167
3 167 208 209
3 167 209 168
3 168 209 210
3 169 211 212
3 212 211 213
3 212 213 214
3 214 213 215
3 214 215 216
3 216 215 217
3 218 219 220
3 220 219 221
3 220 221 222
3 222 221 223
3 222 223 176
3 176 223 224
3 225 226 178
3 178 226 227
3 178 227 228
3 228 227 229
3 228 229 230
3 230 229 231
3 230 232 233
3 233 232 60
3 183 122 234
3 183 234 185
3 185 234 235
3 185 235 187
3 187 235 236
3 187 236 188
3 188 236 237
3 188 237 190
3 190 237 238
3 192 239 194
3 194 239 240
3 194 240 195
3 195 240 241
3 195 241 197
3 197 241 242
3 197 242 200
3 200 242 243
3 200 243 202
3 202 243 244
3 202 244 204
3 204 244 245
3 206 245 208
3 208 245 246
3 208 246 209
3 209 246 247
3 209 247 210
3 210 247 248
3 211 249 213
3 213 249 250
3 213 250 215
3 215 250 251
3 215 251 217
3 217 251 252
3 219 253 221
3 221 253 254
3 221 254 223
3 223 254 255
3 223 255 224
3 224 255 256
3 226 257 227
3 227 257 258
3 227 258 229
3 229 258 259
3 229 259 231
3 231 259 260
3 232 261 60
3 122 61 234
3 234 61 262
3 234 262 235
3 235 262 263
3 235 263 236
3 236 263 264
3 236 264 237
3 237 264 265
3 237 265 238
3 238 265 266
3 239 267 240
3 240 267 268
3 240 268 241
3 241 268 269
3 241 269 242
3 242 269 270
3 242 270 243
3 243 270 271
3 243 271 244
3 244 271 272
3 244 272 245
3 245 272 273
3 245 274 246
3 246 274 275
3 246 275 247
3 247 275 276
3 247 276 248
3 248 276 277
3 249 278 250
3 250 278 279
3 250 279 251
3 251 279 280
3 251 280 252
3 252 280 281
3 253 282 254
3 254 282 283
3 254 283 255
3 255 283 284
3 255 284 256
3 256 284 285
3 257 286 258
3 258 286 287
3 258 287 259
3 259 287 288
3 259 288 260
3 260 288 289
3 261 289 290
3 290 289 233
3 291 292 293
3 293 292 294
3 293 294 295
3 295 294 296
3 295 296 297
3 297 296 298
3 297 298 299
3 299 298 300
3 299 300 301
3 301 300 302
3 303 304 305
3 305 304 306
3 305 306 307
3 307 306 308
3 307 308 309
3 309 308 310
3 311 312 313
3 313 312 314
3 313 314 315
3 315 314 316
3 315 316 317
3 317 316 318
3 319 320 321
3 321 320 322
3 321 322 323
3 323 322 324
3 323 324 325
3 325 324 326
3 327 328 329
3 329 328 330
3 329 330 331
3 331 330 332
3 331 332 333
3 333 332 334
3 335 336 337
3 337 336 338
3 337 338 339
3 339 338 340
3 339 340 341
3 341 340 342
3 343 342 344
3 344 342 345
3 344 345 346
3 346 345 347
3 346 347 348
3 348 347 349
3 350 351 290
3 294 292 352
3 294 352 296
3 296 352 353
3 296 353 298
3 298 353 354
3 298 354 300
3 300 354 355
3 300 355 302
3 302 355 356
3 304 357 306
3 306 357 358
3 306 358 308
3 308 358 359
3 308 359 310
3 310 359 360
3 312 361 314
3 314 361 362
3 314 362 316
3 316 362 363
3 316 363 318
3 318 363 364
3 320 365 322
3 322 365 366
3 322 366 324
3 324 366 367
3 324 367 326
3 326 367 368
3 328 369 330
3 330 369 370
3 330 370 332
3 332 370 371
3 332 371 334
3 334 371 372
3 336 373 338
3 338 373 374
3 338 374 340
3 340 374 375
3 340 375 342
3 342 375 376
3 342 377 345
3 345 377 378
3 345 378 347
3 347 378 379
3 347 379 349
3 349 379 380
3 351 381 290
3 290 381 382
3 352 292 383
3 352 383 353
3 353 383 384
3 353 384 354
3 354 384 385
3 354 385 355
3 355 385 386
3 355 386 356
3 356 386 387
3 357 388 358
3 358 388 389
3 358 389 359
3 359 389 390
3 359 390 360
3 360 390 391
3 361 392 362
3 362 392 393
3 362 393 363
3 363 393 394
3 363 394 364
3 364 394 395
3 365 396 366
3 366 396 397
3 366 397 367
3 367 397 398
3 367 398 368
3 368 398 399
3 369 399 370
3 370 399 400
3 370 400 371
3 371 400 401
3 371 401 372
3 372 401 402
3 373 403 374
3 374 403 404
3 374 404 375
3 375 404 405
3 375 405 376
3 376 405 406
3 377 406 378
3 378 406 407
3 378 407 379
3 379 407 408
3 379 408 380
3 380 408 409
3 381 410 382
3 382 410 411
3 122 1 412
3 412 1 413
3 412 413 384
3 384 413 414
3 384 414 385
3 385 414 415
3 385 415 386
3 386 415 416
3 386 416 387
3 387 416 417
3 387 418 419
3 419 418 420
3 419 420 390
3 390 420 421
3 390 421 391
3 391 421 422
3 391 422 393
3 393 422 423
3 393 423 424
3 424 423 425
3 424 425 426
3 426 425 427
3 428 429 430
3 430 429 431
3 430 431 432
3 432 431 433
3 432 433 434
3 434 433 435
3 436 437 438
3 438 437 439
3 438 439 401
3 401 439 440
3 401 440 402
3 402 440 441
3 442 443 404
3 404 443 444
3 404 444 445
3 445 444 446
3 445 446 406
3 406 446 447
3 406 447 407
3 407 447 448
3 407 448 449
3 449 448 450
3 449 450 410
3 410 450 451
3 410 452 453
3 453 452 382
3 1 454 413
3 413 454 455
3 413 455 414
3 414 455 456
3 414 456 415
3 415 456 457
3 415 457 416
3 416 457 458
3 416 458 417
3 417 458 459
3 418 460 420
3 420 460 461
3 420 461 421
3 421 461 462
3 421 462 422
3 422 462 463
3 422 464 423
3 423 464 465
3 423 465 425
3 425 465 466
3 425 466 427
3 427 466 467
3 429 467 431
3 431 467 468
3 431 468 433
3 433 468 469
3 433 469 435
3 435 469 470
3 437 471 439
3 439 471 472
3 439 472 440
3 440 472 473
3 440 473 441
3 441 473 474
3 443 475 444
3 444 475 476
3 444 476 446
3 446 476 477
3 446 477 447
3 447 477 478
3 447 479 448
3 448 479 480
3 448 480 450
3 450 480 481
3 450 481 451
3 451 481 482
3 452 483 382
3 382 483 453
3 454 152 455
3 455 152 484
3 455 484 456
3 456 484 485
3 456 485 457
3 457 485 486
3 457 486 458
3 458 486 487
3 458 487 459
3 459 487 488
3 460 489 461
3 461 489 490
3 461 490 462
3 462 490 491
3 462 491 463
3 463 491 492
3 464 492 465
3 465 492 493
3 465 493 466
3 466 493 494
3 466 494 467
3 467 494 495
3 467 496 468
3 468 496 497
3 468 497 469
3 469 497 498
3 469 498 470
3 470 498 499
3 471 500 472
3 472 500 501
3 472 501 473
3 473 501 502
3 473 502 474
3 474 502 503
3 475 504 476
3 476 504 505
3 476 505 477
3 477 505 506
3 477 506 478
3 478 506 507
3 479 508 480
3 480 508 509
3 480 509 481
3 481 509 510
3 481 510 482
3 482 510 511
3 483 512 453
3 453 512 60
3 152 454 484
3 484 454 513
3 484 513 485
3 485 513 514
3 485 514 486
3 486 514 515
3 486 515 487
3 487 515 516
3 487 516 488
3 488 516 517
3 489 518 490
3 490 518 519
3 490 519 491
3 491 519 520
3 491 520 492
3 492 520 521
3 492 522 493
3 493 522 523
3 493 523 494
3 494 523 524
3 494 524 495
3 495 524 525
3 496 526 497
3 497 526 527
3 497 527 498
3 498 527 528
3 498 528 499
3 499 528 529
3 500 530 501
3 501 530 531
3 501 531 502
3 502 531 532
3 502 532 503
3 503 532 533
3 504 534 505
3 505 534 535
3 505 535 506
3 506 535 536
3 506 536 507
3 507 536 537
3 508 538 509
3 509 538 539
3 509 539 510
3 510 539 540
3 510 540 511
3 511 540 541
3 512 542 60
3 60 542 543
3 544 292 545
3 545 292 546
3 545 546 547
3 547 546 548
3 547 548 549
3 549 548 550
3 549 550 551
3 551 550 552
3 551 552 553
3 553 552 554
3 555 556 557
3 557 556 558
3 557 558 559
3 559 558 560
3 559 560 561
3 561 560 562
3 561 563 564
3 564 563 565
3 564 565 566
3 566 565 567
3 566 567 568
3 568 567 569
3 570 571 572
3 572 571 573
3 572 573 574
3 574 573 575
3 574 575 576
3 576 575 577
3 578 577 579
3 579 577 580
3 579 580 581
3 581 580 582
3 581 582 583
3 583 582 584
3 585 586 587
3 587 586 588
3 587 588 536
3 536 588 589
3 536 589 590
3 590 589 591
3 592 593 594
3 594 593 595
3 594 595 596
3 596 595 597
3 596 597 598
3 598 597 599
3 598 600 290
3 292 601 546
3 546 601 602
3 546 602 548
3 548 602 603
3 548 603 550
3 550 603 604
3 550 604 552
3 552 604 605
3 552 605 554
3 554 605 606
3 556 607 558
3 558 607 608
3 558 608 560
3 560 608 609
3 560 609 562
3 562 609 610
3 563 611 565
3 565 611 612
3 565 612 567
3 567 612 613
3 567 613 569
3 569 613 614
3 571 615 573
3 573 615 616
3 573 616 575
3 575 616 617
3 575 617 577
3 577 617 618
3 577 619 580
3 580 619 620
3 580 620 582
3 582 620 621
3 582 621 584
3 584 621 622
3 586 623 588
3 588 623 624
3 588 624 589
3 589 624 625
3 589 625 591
3 591 625 626
3 593 627 595
3 595 627 628
3 595 628 597
3 597 628 629
3 597 629 599
3 599 629 630
3 600 631 290
3 601 632 602
3 602 632 633
3 602 633 603
3 603 633 634
3 603 634 604
3 604 634 635
3 604 635 605
3 605 635 636
3 605 636 606
3 606 636 637
3 607 638 608
3 608 638 639
3 608 639 609
3 609 639 640
3 609 640 610
3 610 640 641
3 611 642 612
3 612 642 643
3 612 643 613
3 613 643 644
3 613 644 614
3 614 644 645
3 615 646 616
3 616 646 647
3 616 647 617
3 617 647 648
3 617 648 618
3 618 648 649
3 619 650 620
3 620 650 651
3 620 651 621
3 621 651 652
3 621 652 622
3 622 652 653
3 623 654 624
3 624 654 655
3 624 655 625
3 625 655 656
3 625 656 626
3 626 656 657
3 627 658 628
3 628 658 659
3 628 659 629
3 629 659 660
3 629 660 630
3 630 660 661
3 631 662 60
3 60 662 290
3 632 122 633
3 633 122 663
3 633 663 634
3 634 663 664
3 634 664 635
3 635 664 665
3 635 665 636
3 636 665 666
3 636 666 637
3 637 666 667
3 638 668 639
3 639 668 669
3 639 669 640
3 640 669 670
3 640 670 641
3 641 670 671
3 642 671 643
3 643 671 672
3 643 672 644
3 644 672 673
3 644 673 645
3 645 673 674
3 646 675 647
3 647 675 676
3 647 676 648
3 648 676 677
3 648 677 649
3 649 677 678
3 650 679 651
3 651 679 680
3 651 680 652
3 652 680 681
3 652 681 653
3 653 681 682
3 654 683 655
3 655 683 684
3 655 684 656
3 656 684 685
3 656 685 657
3 657 685 686
3 658 687 659
3 659 687 688
3 659 688 660
3 660 688 689
3 660 689 661
3 661 689 690
3 662 690 290
3 290 690 691
3 122 1 663
3 663 1 692
3 663 692 664
3 664 692 693
3 664 693 665
3 665 693 694
3 665 694 666
3 666 694 695
3 666 695 667
3 667 695 696
3 668 697 669
3 669 697 698
3 669 698 670
3 670 698 699
3 670 699 671
3 671 699 700
3 671 700 672
3 672 700 701
3 672 701 673
3 673 701 702
3 673 702 674
3 674 702 703
3 675 704 676
3 676 704 705
3 676 705 677
3 677 705 706
3 677 706 678
3 678 706 707
3 679 708 680
3 680 708 709
3 680 709 681
3 681 709 710
3 681 710 682
3 682 710 711
3 683 712 684
3 684 712 713
3 684 713 685
3 685 713 714
3 685 714 686
3 686 714 715
3 687 716 688
3 688 716 717
3 688 717 689
3 689 717 718
3 689 718 690
3 690 718 719
3 690 720 691
3 691 720 60
3 1 632 692
3 692 632 721
3 692 721 693
3 693 721 722
3 693 722 694
3 694 722 723
3 694 723 695
3 695 723 724
3 695 724 696
3 696 724 725
3 697 726 698
3 698 726 727
3 698 727 699
3 699 727 728
3 699 728 700
3 700 728 729
3 700 730 701
3 701 730 731
3 701 731 702
3 702 731 732
3 702 732 703
3 703 732 733
3 704 734 705
3 705 734 735
3 705 735 706
3 706 735 736
3 706 736 707
3 707 736 737
3 708 738 709
3 709 738 739
3 709 739 710
3 710 739 740
3 710 740 711
3 711 740 741
3 712 742 713
3 713 742 743
3 713 743 714
3 714 743 744
3 714 744 715
3 715 744 745
3 716 745 717
3 717 745 746
3 717 746 718
3 718 746 747
3 718 747 719
3 719 747 748
3 720 749 60
3 60 749 290
3 292 632 750
3 750 632 751
3 750 751 722
3 722 751 752
3 722 752 753
3 753 752 754
3 753 754 755
3 755 754 756
3 755 756 757
3 757 756 758
3 759 760 761
3 761 760 762
3 761 762 763
3 763 762 764
3 763 764 729
3 729 764 765
3 730 766 767
3 767 766 768
3 767 768 732
3 732 768 769
3 732 769 770
3 770 769 771
3 772 773 774
3 774 773 775
3 774 775 776
3 776 775 777
3 776 777 778
3 778 777 779
3 738 780 781
3 781 780 782
3 781 782 783
3 783 782 784
3 783 784 785
3 785 784 786
3 742 787 788
3 788 787 789
3 788 789 790
3 790 789 791
3 790 791 745
3 745 791 792
3 793 794 795
3 795 794 796
3 795 796 797
3 797 796 798
3 797 798 748
3 748 798 799
3 749 800 453
3 453 800 60
3 632 1 751
3 751 1 0
3 751 0 752
3 752 0 3
3 752 3 754
3 754 3 5
3 754 5 756
3 756 5 7
3 756 7 758
3 758 7 9
3 760 11 762
3 762 11 13
3 762 13 764
3 764 13 15
3 764 15 765
3 765 15 17
3 766 19 768
3 768 19 21
3 768 21 769
3 769 21 23
3 769 23 771
3 771 23 25
3 773 27 775
3 775 27 29
3 775 29 777
3 777 29 31
3 777 31 779
3 779 31 33
3 780 35 782
3 782 35 37
3 782 37 784
3 784 37 39
3 784 39 786
3 786 39 41
3 787 43 789
3 789 43 44
3 789 44 791
3 791 44 46
3 791 46 792
3 792 46 48
3 794 50 796
3 796 50 52
3 796 52 798
3 798 52 54
3 798 54 799
3 799 54 56
3 800 58 60
