# vtk DataFile Version 2.0
File written by itkPolyDataMeshIO
ASCII
DATASET POLYDATA
POINTS 1384 float
15.766701 10.77227 120.96814
13.935402 12.873558 119.47377
15.752693 10.56974 120.75128
15.449867 8.148415 122.69231
15.431404 7.930611 122.478775
14.644691 5.652626 124.535484
14.620964 5.424828 124.33715
13.468269 3.795418 125.9824
13.436607 3.58532 125.78533
13.010078 2.008308 126.67412
12.994759 1.790672 126.48987
14.231255 0.668785 127.160904
14.267952 0.398994 127.01671
16.146812 0.50071 128.40051
16.240944 0.20472 128.29872
17.860817 1.254646 130.21352
18.001137 0.97187 130.1432
19.47506 2.553093 131.9175
19.65673 2.286659 131.8753
20.968483 4.285957 133.43102
21.186928 4.036064 133.41418
22.353233 6.251015 134.78635
22.603981 6.020439 134.79234
23.645103 8.350121 136.03714
23.923927 8.144463 136.06366
24.817467 10.586327 137.163
25.119911 10.409843 137.20761
25.817253 12.986855 138.11032
26.138176 12.840202 138.17044
26.600273 15.551857 138.83514
26.933327 15.431252 138.90756
27.142097 18.257286 139.31313
27.479164 18.153664 139.39415
27.47805 21.055855 139.57007
27.80935 20.955849 139.65572
27.701683 23.892586 139.68932
28.015114 23.782463 139.77396
27.949074 26.600441 139.8146
28.227943 26.483849 139.88358
28.314873 29.174797 140.00835
28.555489 29.001915 140.07571
29.566856 31.238197 140.27904
29.76603 31.005135 140.34476
31.997017 31.992958 140.65642
32.15876 31.745628 140.70895
34.906837 31.819878 141.05182
35.04415 31.574928 141.0953
34.906807 31.819878 141.05179
35.044136 31.574898 141.09529
37.80137 31.968727 141.27104
37.920296 31.7248 141.30852
40.61767 32.6724 141.26967
40.72352 32.420586 141.30696
40.617638 32.672386 141.26964
40.723503 32.42057 141.30695
43.397957 33.637627 141.16756
43.493904 33.37841 141.20772
46.219215 34.798393 141.06357
46.311516 34.51655 141.11176
46.311516 34.516533 141.11176
49.158714 35.911476 140.97998
49.251442 35.61518 141.03613
52.237007 36.433693 140.8898
52.32598 36.149376 140.94507
52.237007 36.43371 140.8898
52.32598 36.14939 140.94507
55.3518 36.385704 140.59395
55.43908 36.12426 140.64494
58.44114 36.288033 140.13226
58.53962 36.048668 140.1848
58.441124 36.288048 140.13228
58.53962 36.048683 140.1848
61.329704 36.752144 140.07144
61.45051 36.540154 140.13182
63.617332 37.771675 140.59981
63.760826 37.587654 140.66904
63.617302 37.771675 140.5998
63.76081 37.587654 140.66904
65.204 38.885796 141.35188
65.364555 38.72254 141.42708
66.444756 39.988594 142.15886
66.61834 39.839867 142.23619
66.444756 39.988594 142.15887
66.61837 39.839867 142.23619
67.69286 41.368965 143.17366
67.87786 41.230858 143.24765
68.93038 43.278572 144.49965
69.12618 43.13604 144.5604
68.93038 43.278572 144.49963
69.12612 43.13601 144.56038
69.971 45.625084 146.11575
70.17455 45.444954 146.14825
71.019646 47.85476 148.06752
71.20977 47.610786 148.04724
71.019646 47.854744 148.06752
71.20971 47.610756 148.04724
72.7073 48.938377 150.25435
72.829765 48.660103 150.15862
75.20513 48.075172 152.08038
75.20129 47.847572 151.91795
75.20513 48.075203 152.0804
75.20129 47.847603 151.91795
76.019005 45.57467 154.04987
13.935402 12.873543 119.47376
15.63459 10.287849 120.44645
15.308571 7.632942 122.17725
14.497856 5.119347 124.05402
13.305733 3.289116 125.506935
12.89193 1.454185 126.249535
14.24929 -0.025368 126.860405
16.314354 -0.254234 128.21895
18.141975 0.542061 130.11363
19.842918 1.900307 131.88795
21.39904 3.69944 133.4631
22.83387 5.733498 134.87242
24.171638 7.904503 136.17043
25.385902 10.213387 137.337
26.420479 12.683296 138.31866
27.2277 15.307213 139.07066
27.779396 18.051369 139.56802
28.107857 20.859749 139.8361
28.30291 23.676735 139.95503
28.49224 26.373024 140.04819
28.80297 28.819908 140.24304
29.997505 30.729744 140.5208
32.36666 31.433403 140.87729
35.227882 31.268791 141.24953
35.22785 31.268776 141.24953
38.082466 31.430153 141.44997
40.87249 32.113792 141.4496
40.872475 32.11376 141.4496
43.63456 33.05152 141.35748
46.44993 34.16021 141.27211
46.449913 34.16021 141.27211
49.391808 35.24224 141.20557
52.464256 35.78878 141.11397
52.46424 35.78878 141.11397
55.57522 35.790657 140.80707
58.683846 35.747368 140.34254
58.683846 35.747383 140.34256
61.613518 36.275383 140.2909
63.94364 37.353905 140.83249
63.94364 37.35389 140.83247
65.562004 38.508247 141.59415
66.82586 39.636635 142.40424
66.82589 39.63665 142.40424
68.09246 41.03103 143.41226
69.34371 42.916756 144.7142
69.34368 42.91674 144.71419
70.385 45.164192 146.2786
71.3803 47.23861 148.12491
71.38027 47.238594 148.1249
72.896385 48.239647 150.14055
75.10888 47.496895 151.78336
75.10891 47.496925 151.78337
76.018974 45.574654 154.04985
13.935387 12.873558 119.47376
15.394722 10.0158 120.1485
15.066261 7.350243 121.87888
14.263191 4.834084 123.767876
13.062996 2.993279 125.22977
12.678169 1.08596 126.03956
14.13195 -0.493736 126.77243
16.305946 -0.754906 128.2281
18.213799 0.074623 130.17665
19.96772 1.484489 131.9907
21.552315 3.344017 133.5962
23.005104 5.437767 135.03067
24.360298 7.662804 136.35126
25.592628 10.019661 137.53835
26.643593 12.532204 138.53784
27.463554 15.191566 139.30458
28.022667 17.96035 139.81316
28.352333 20.778648 140.0892
28.541634 23.590904 140.21182
28.714851 26.288109 140.2946
29.01751 28.676476 140.50053
30.207344 30.497871 140.80031
32.56275 31.161568 141.16003
35.403618 31.011192 141.51794
35.403603 31.011162 141.51794
38.239937 31.193626 141.7046
41.023384 31.86013 141.71124
43.78306 32.773735 141.62994
46.599007 33.85949 141.5543
46.59899 33.85949 141.5543
49.543907 34.932762 141.49347
52.618782 35.486595 141.40154
52.618797 35.486595 141.40154
55.73014 35.502907 141.08672
58.839973 35.486 140.6085
58.839973 35.486015 140.6085
61.775093 36.042778 140.54526
64.11193 37.140007 141.08134
64.1119 37.13999 141.08134
65.73458 38.30262 141.84091
66.999626 39.432823 142.64896
66.999626 39.43284 142.64896
68.26348 40.821144 143.65324
69.50439 42.681435 144.94836
69.50436 42.68142 144.94835
70.51949 44.873756 146.49796
71.4529 46.87333 148.30469
71.4529 46.873314 148.30467
72.85424 47.83181 150.23337
74.92123 47.13752 151.7477
74.92123 47.13755 151.74771
76.019005 45.57467 154.04985
13.935402 12.873573 119.47378
15.046043 9.815651 119.92429
14.715965 7.146431 121.64703
13.926353 4.63372 123.53594
12.720589 2.763084 125.01711
12.368126 0.77137 125.92164
13.921394 -0.889534 126.79203
16.202599 -1.172005 128.34315
18.187569 -0.319588 130.33806
19.996147 1.128838 132.18274
21.615501 3.035423 133.8098
23.093132 5.177605 135.26208
24.470467 7.448479 136.60013
25.723259 9.847908 137.8044
26.791893 12.399803 138.8197
27.62571 15.093498 139.6
28.193733 17.888191 140.11925
28.52694 20.720894 140.40326
28.713875 23.536201 140.53069
28.875923 26.241753 140.60812
29.17112 28.599281 140.82463
30.357445 30.36158 141.14706
32.704247 30.999336 141.51434
35.53109 30.870476 141.86107
35.53106 30.87046 141.86107
38.357033 31.076668 142.03964
41.1417 31.72927 142.05766
41.141685 31.729256 142.05766
43.905205 32.623497 141.9878
46.72352 33.703773 141.91693
46.723503 33.703773 141.91693
49.67063 34.782402 141.85477
52.75347 35.334496 141.76295
55.870995 35.34202 141.44336
58.97686 35.33265 140.94727
58.97686 35.332664 140.94727
61.902 35.897484 140.86324
64.2282 36.992058 141.38531
64.22817 36.992058 141.38531
65.84127 38.14686 142.13698
67.0964 39.267128 142.93901
67.0964 39.267143 142.93903
68.34734 40.639687 143.9375
69.56783 42.474403 145.22537
70.54812 44.633553 146.76146
71.41988 46.597023 148.53835
71.41985 46.596992 148.53833
72.72564 47.532555 150.40523
74.68487 46.853416 151.82362
74.68487 46.853447 151.82364
76.019005 45.57467 154.04988
14.640846 9.696312 119.78511
14.30735 7.029716 121.493866
13.531639 4.525841 123.37222
12.319588 2.614159 124.883644
12.001869 0.539955 125.89833
13.654976 -1.17646 126.90114
16.033745 -1.470634 128.53416
18.082191 -0.609383 130.5664
19.937752 0.860847 132.43434
21.590431 2.798042 134.07735
23.09388 4.974327 135.54301
24.493645 7.279472 136.89485
25.766335 9.712563 138.11334
26.851952 12.297188 139.14214
27.699394 15.021049 139.93423
28.27726 17.840584 140.46289
28.616463 20.690392 140.75403
28.805565 23.515114 140.88628
28.96392 26.23368 140.96217
29.25666 28.58361 141.18591
30.444191 30.314674 141.52681
32.7884 30.942268 141.90192
35.608315 30.837135 142.24228
35.6083 30.837135 142.24228
38.43183 31.064812 142.42023
41.222115 31.713814 142.44916
41.2221 31.713799 142.44916
43.992912 32.59742 142.38791
46.813194 33.692177 142.31438
46.81318 33.692192 142.31438
49.760292 34.789238 142.24303
52.855858 35.327553 142.15302
52.855843 35.327553 142.15302
55.98629 35.30584 141.83643
59.086647 35.285316 141.32791
59.086647 35.285316 141.32793
61.990074 35.83732 141.22356
64.29043 36.909187 141.72823
64.2904 36.909187 141.72821
65.88134 38.041374 142.46739
67.11697 39.14071 143.25917
67.117 39.14071 143.25917
68.347496 40.487923 144.2474
69.54333 42.294945 145.52208
69.54327 42.29493 145.52206
70.492485 44.435234 147.03722
71.3207 46.39042 148.78384
71.3207 46.39039 148.78383
72.56243 47.32186 150.60925
74.447044 46.6435 151.97507
74.447044 46.643547 151.97508
13.935387 12.873543 119.47376
14.640862 9.696297 119.78511
14.222282 9.662071 119.736725
13.882057 7.006218 121.428
13.117897 4.518791 123.28833
12.319603 2.614159 124.883644
11.900017 2.561501 124.83738
12.001884 0.539955 125.89834
11.619453 0.406273 125.96308
13.654991 -1.176445 126.901146
13.366982 -1.350182 127.07787
16.033745 -1.470619 128.53416
15.826225 -1.651802 128.77324
18.082191 -0.609367 130.5664
17.918266 -0.7929 130.83441
19.937752 0.860863 132.43434
19.80677 0.685799 132.71982
21.590431 2.798058 134.07735
21.485283 2.640053 134.37465
23.09388 4.974342 135.54301
23.010078 4.837837 135.85023
24.493645 7.279503 136.89485
24.42846 7.165901 137.21257
25.766335 9.712563 138.11333
25.717476 9.622688 138.44218
26.851967 12.297188 139.14215
26.817238 12.231743 139.4817
27.699379 15.021049 139.93423
27.676674 14.979622 140.2833
28.277245 17.840584 140.46288
28.26461 17.820946 140.81984
28.616463 20.690407 140.75401
28.612328 20.68885 141.11731
28.805565 23.51513 140.88628
28.808784 23.528084 141.25471
28.96392 26.23368 140.96216
28.972328 26.264442 141.33253
29.256645 28.583626 141.1859
29.271309 28.62539 141.56258
30.444176 30.314674 141.5268
30.468605 30.34835 141.91934
32.818306 30.977074 142.30301
35.60833 30.83715 142.24228
35.63877 30.893715 142.64162
35.638756 30.8937 142.64163
38.43183 31.064812 142.42024
38.466316 31.139702 142.8229
41.222115 31.713829 142.44916
41.264793 31.794807 142.8585
41.2221 31.713799 142.44914
41.26478 31.794792 142.85847
43.992912 32.59742 142.3879
44.04447 32.67997 142.80006
46.813194 33.692192 142.31439
46.865456 33.806953 142.71535
46.81318 33.692177 142.31439
46.86547 33.806953 142.71533
49.760292 34.789253 142.24303
49.810722 34.93061 142.62823
52.855858 35.327568 142.15302
52.922417 35.443336 142.54305
52.855843 35.327568 142.15302
52.922386 35.44332 142.54305
56.070488 35.381218 142.23988
59.163826 35.338432 141.73161
59.086647 35.28533 141.32793
59.163826 35.338432 141.73163
61.990074 35.837334 141.22357
62.0346 35.862343 141.61423
64.29043 36.909203 141.72823
64.29449 36.894936 142.10075
64.29043 36.909203 141.72821
64.29446 36.89492 142.10075
65.88134 38.041374 142.46738
65.851036 37.99082 142.82294
67.117 39.14071 143.25916
67.05813 39.058052 143.59941
67.05813 39.058067 143.59941
68.26119 40.369164 144.57167
69.54333 42.29496 145.52208
69.42986 42.14164 145.82568
69.5433 42.294945 145.52206
69.42983 42.14161 145.82565
70.492485 44.43525 147.0372
70.356316 44.26626 147.31262
71.3207 46.390404 148.78384
71.16625 46.22654 149.0296
71.3207 46.39039 148.78384
71.16622 46.22654 149.0296
72.56243 47.321877 150.60927
72.3818 47.16822 150.83144
74.447044 46.643517 151.97507
74.2268 46.492424 152.18109
74.2268 46.49247 152.1811
76.019005 45.574684 154.04987
13.806496 9.70858 119.774796
13.455849 7.073616 121.44726
12.701363 4.612755 123.284195
11.488335 2.608528 124.87585
11.255394 0.371574 126.10365
13.086449 -1.415901 127.2998
15.601524 -1.721458 129.03442
17.714394 -0.871559 131.117
19.619133 0.605934 133.01486
21.31324 2.565681 134.67737
22.8525 4.77314 136.15892
24.283455 7.11277 137.52783
25.583488 9.582787 138.7647
26.693077 12.20681 139.81148
27.56179 14.971169 140.61996
28.159096 17.829796 141.16266
28.517006 20.715462 141.46584
28.725319 23.573402 141.60904
28.901924 26.33323 141.69215
29.215996 28.720741 141.92982
30.431557 30.4562 142.30104
32.795372 31.09246 142.6946
35.624107 31.02462 143.03496
35.624077 31.02462 143.03493
38.46087 31.285149 143.21909
41.269753 31.951637 143.25555
41.269722 31.951622 143.25555
44.058662 32.853706 143.19218
46.87992 34.02398 143.08913
46.879906 34.02398 143.08911
49.823204 35.17536 142.98317
52.95185 35.657646 142.90544
52.951836 35.657646 142.90544
56.117836 35.555473 142.62476
59.20072 35.488503 142.13065
59.200737 35.488518 142.13066
62.028114 35.976585 142.00935
64.23403 36.958214 142.47797
64.234 36.9582 142.47798
65.74532 38.00643 143.1792
66.915855 39.031517 143.93588
66.915886 39.031532 143.93588
68.08517 40.296394 144.8871
69.22445 42.026222 146.1152
69.22439 42.02619 146.11517
70.13702 44.1325 147.57248
70.95492 46.10218 149.26802
70.95489 46.10218 149.26799
72.18444 47.06298 151.06728
74.030174 46.395943 152.4307
74.03014 46.395973 152.43071
13.935402 12.873543 119.47377
13.431984 9.823235 119.886955
13.070625 7.218391 121.542656
12.325386 4.792488 123.354645
11.127007 2.740074 124.988304
10.940544 0.420601 126.299484
12.828728 -1.38903 127.54385
15.370247 -1.691841 129.29735
17.48484 -0.852425 131.39575
19.391472 0.617928 133.30174
21.090858 2.573555 134.96701
22.636635 4.779686 136.44928
24.073265 7.119926 137.81972
25.378258 9.59272 139.05922
26.492744 12.222054 140.1093
27.367226 14.99482 140.9216
27.972267 17.865532 141.46852
28.34095 20.767754 141.77669
28.56414 23.647896 141.9262
28.759544 26.437202 142.01735
29.09565 28.86454 142.26508
30.336311 30.630745 142.64987
32.722466 31.27671 143.05493
35.567345 31.21415 143.39995
35.56733 31.214134 143.39995
38.41787 31.484398 143.58415
41.239403 32.16465 143.61563
41.239372 32.164635 143.6156
44.037743 33.098534 143.53955
46.86051 34.316322 143.41443
46.86051 34.316307 143.41443
49.803658 35.491096 143.2903
52.947395 35.945107 143.22084
52.94738 35.94509 143.22084
56.126595 35.81156 142.966
59.193047 35.725243 142.49388
59.193047 35.725243 142.4939
61.967842 36.176537 142.37361
64.11025 37.101265 142.82356
64.11022 37.10125 142.82356
65.56939 38.09429 143.50092
66.69848 39.07009 144.23514
66.69848 39.070107 144.23514
67.82983 40.281654 145.16286
68.938255 41.96235 146.36494
68.938255 41.96235 146.36493
69.843834 44.045128 147.79988
70.69042 46.022316 149.49252
70.69042 46.0223 149.4925
71.96908 47.00541 151.3149
73.857506 46.351906 152.7152
73.857506 46.351936 152.71521
76.018974 45.574654 154.04987
13.935417 12.873558 119.47378
13.935432 12.873573 119.473785
13.431999 9.82325 119.88696
13.12484 9.994179 120.06127
13.070641 7.218422 121.54267
12.75663 7.424568 121.7043
12.325401 4.792503 123.354645
12.022804 5.036674 123.49236
11.127022 2.740105 124.98831
10.843819 2.937828 125.16171
10.940575 0.420616 126.2995
10.69091 0.541618 126.53352
12.828743 -1.38903 127.54386
12.602699 -1.279839 127.797775
15.370262 -1.691841 129.29735
15.141685 -1.572853 129.55199
17.484856 -0.852409 131.39577
17.241707 -0.743004 131.65726
19.391487 0.617943 133.30176
19.1381 0.716179 133.56453
21.090874 2.573586 134.96704
20.833595 2.659416 135.22672
22.636635 4.779716 136.4493
22.378212 4.854042 136.70433
24.073296 7.119942 137.81973
23.813744 7.184517 138.07115
25.378258 9.592735 139.05923
25.117607 9.649986 139.30847
26.49276 12.222069 140.10933
26.231956 12.275169 140.35767
27.367256 14.994835 140.92162
27.108437 15.048332 141.17036
27.972298 17.865547 141.46852
27.718987 17.925697 141.7192
28.340996 20.767769 141.77669
28.097984 20.842644 142.03104
28.56417 23.647911 141.92621
28.337502 23.747429 142.18666
28.759575 26.437218 142.01736
28.55523 26.57145 142.28723
29.09568 28.864555 142.26508
28.917732 29.050636 142.54572
30.336327 30.63076 142.64987
30.188026 30.8637 142.94203
32.722466 31.276726 143.05495
32.603477 31.519508 143.36
35.56736 31.21418 143.39996
35.471947 31.450478 143.71306
35.567345 31.214165 143.39996
35.47193 31.450462 143.71303
38.417915 31.484444 143.58418
38.34057 31.725258 143.89522
41.239418 32.164696 143.61563
41.176765 32.420784 143.91678
41.239403 32.16468 143.61562
41.176735 32.42077 143.91676
44.037773 33.098564 143.53957
43.985207 33.396248 143.82278
46.860542 34.316353 143.41444
46.812157 34.660973 143.67543
46.860542 34.316338 143.41444
46.81214 34.660988 143.67543
49.803673 35.491127 143.29031
49.75814 35.852867 143.53622
52.94741 35.94512 143.22086
52.91366 36.282814 143.47354
52.947395 35.94512 143.22086
52.913643 36.2828 143.47354
56.126625 35.811577 142.96602
56.098656 36.128395 143.24048
59.193077 35.725273 142.4939
59.14234 36.02877 142.78827
59.193077 35.725273 142.49391
61.967873 36.176567 142.37363
61.859764 36.445274 142.66692
64.11028 37.10128 142.82358
63.93615 37.312263 143.09615
64.11025 37.101265 142.82358
63.936134 37.31225 143.09615
65.56939 38.094322 143.50095
65.34249 38.247993 143.74878
66.69848 39.070107 144.23515
66.429985 39.172432 144.46078
66.69848 39.07012 144.23515
66.429985 39.172432 144.4608
67.82986 40.281685 145.16287
67.52306 40.329277 145.36688
68.938286 41.962364 146.36494
68.60058 41.9598 146.54976
68.938255 41.962364 146.36494
68.60055 41.95977 146.54976
69.843864 44.045143 147.7999
69.50158 44.017082 147.97917
70.69045 46.02233 149.49252
70.38622 46.00022 149.69633
70.69045 46.02233 149.49251
70.38619 46.000206 149.69633
71.96911 47.005424 151.3149
71.73818 47.006203 151.57072
73.85754 46.35192 152.71521
73.71075 46.366005 153.0242
73.85754 46.351967 152.71524
73.71075 46.366035 153.02422
76.019005 45.574684 154.04988
12.887138 10.220863 120.29733
12.517845 7.688179 121.930786
11.798973 5.336876 123.694725
10.641655 3.194206 125.39159
10.507973 0.730095 126.79987
12.413551 -1.093056 128.05478
14.92524 -1.370354 129.78938
16.99656 -0.549202 131.88962
18.87223 0.894936 133.78958
20.555702 2.817879 135.4421
22.092415 4.991432 136.90955
23.520714 7.30233 138.26761
24.817787 9.750816 139.49797
25.927193 12.362724 140.54196
26.801842 15.128258 141.35149
27.415306 18.006462 141.89938
27.80346 20.935524 142.21283
28.059563 23.865944 142.37308
28.301643 26.727547 142.48288
28.692268 29.269768 142.74919
29.99456 31.143425 143.15303
32.44422 31.809868 143.58435
35.342293 31.724556 143.94905
35.342278 31.72454 143.94904
38.232857 31.998924 144.12994
41.08503 32.712425 144.13881
41.085014 32.712395 144.13881
43.904686 33.73107 144.02585
46.7387 35.039482 143.8591
46.738686 35.039482 143.8591
49.690758 36.242653 143.70894
52.85476 36.651115 143.65019
52.854774 36.65113 143.65019
56.039177 36.482063 143.42996
59.05674 36.370705 142.98787
59.05674 36.37072 142.98788
61.718147 36.753212 142.85881
63.73266 37.56533 143.2661
63.732643 37.56533 143.2661
65.090385 38.447304 143.8965
66.13949 39.324425 144.59065
66.13949 39.32444 144.59065
67.19622 40.43229 145.48238
68.24206 42.02038 146.65993
68.24206 42.020348 146.65993
69.1336 44.06025 148.10785
70.0516 46.05686 149.88231
70.05157 46.05683 149.8823
71.48861 47.088768 151.83762
73.58752 46.45217 153.3537
73.58755 46.4522 153.3537
76.019035 45.574684 154.04988
12.743645 10.472725 120.56298
12.378166 7.971504 122.1889
11.674232 5.648399 123.92971
10.536369 3.470482 125.6456
10.40258 0.967598 127.07297
12.270042 -0.831474 128.30103
14.731285 -1.085152 130
16.762383 -0.275734 132.0807
18.608742 1.146828 133.96288
20.273277 3.041298 135.59882
21.796043 5.184975 137.05109
23.21148 7.4674 138.39578
24.496696 9.89016 139.61475
25.596642 12.480171 140.64952
26.465767 15.230278 141.45221
27.079536 18.103111 141.996
27.475258 21.04049 142.30824
27.747551 23.995277 142.47061
28.015099 26.89318 142.58824
28.433693 29.507378 142.85599
29.768364 31.452248 143.26122
32.25448 32.132545 143.70496
35.18525 32.026466 144.08437
35.185234 32.026466 144.08437
38.10018 32.29783 144.26743
40.968147 33.034355 144.26329
40.968117 33.03434 144.26328
43.800453 34.087746 144.13503
46.643654 35.433723 143.95367
46.643654 35.43371 143.95367
49.603813 36.644157 143.79654
52.773766 37.032814 143.73898
55.954033 36.8496 143.52292
58.946632 36.72204 143.08112
58.946632 36.72204 143.08113
61.559715 37.068657 142.93903
63.522728 37.83097 143.32596
63.522713 37.83097 143.32596
64.8406 38.66732 143.93925
65.85784 39.506325 144.62198
66.883385 40.577507 145.50845
67.89892 42.14045 146.6949
67.89889 42.140404 146.6949
68.77459 44.184227 148.18188
69.714745 46.215965 150.03755
69.714745 46.21595 150.03754
71.23849 47.282433 152.09206
73.496635 46.626015 153.6748
73.496635 46.626045 153.67482
13.935417 12.873573 119.47378
12.706947 10.742592 120.850655
12.378151 7.971519 122.188896
12.347404 8.265236 122.47016
11.674232 5.648415 123.92971
11.65435 5.960075 124.18875
10.536369 3.470497 125.6456
10.532738 3.758507 125.915695
10.40258 0.967613 127.07297
10.382622 1.25074 127.34257
12.270027 -0.831459 128.30103
12.184319 -0.498421 128.52208
14.574776 -0.723793 130.16766
16.762383 -0.275749 132.0807
16.555733 0.068184 132.21518
18.608742 1.146812 133.96288
18.36541 1.461388 134.07008
20.004921 3.319374 135.68349
21.796043 5.184959 137.05109
21.5084 5.425224 137.1164
23.211494 7.467384 138.39578
22.90609 7.671333 138.44383
24.496696 9.890144 139.61475
24.17498 10.06057 139.64752
25.261497 12.62101 140.66937
26.465782 15.230278 141.45221
26.12188 15.348289 141.46187
27.079536 18.103111 141.99599
26.733406 18.209328 141.99849
27.475243 21.04049 142.30824
27.134941 21.150017 142.30661
27.747551 23.995262 142.47061
27.422508 24.125237 142.46837
28.015099 26.89318 142.58827
27.716133 27.053001 142.59254
28.433693 29.507378 142.856
28.161354 29.742836 142.85435
29.526985 31.765327 143.2541
32.04847 32.465065 143.70776
35.011147 32.34089 144.10272
35.011116 32.34086 144.10272
38.100197 32.29783 144.26743
37.949974 32.6121 144.29132
40.968132 33.03437 144.26329
40.831825 33.377937 144.27579
40.9681 33.034355 144.26328
40.831795 33.377922 144.27577
43.67785 34.44877 144.13939
46.5308 35.82232 143.949
46.5308 35.822334 143.949
49.49874 37.03765 143.78772
52.77378 37.032814 143.73898
52.672264 37.40992 143.72945
52.67225 37.409904 143.72945
55.954033 36.849586 143.52292
55.847923 37.210045 143.51321
58.946632 36.722023 143.08112
58.821037 37.058723 143.06796
58.946632 36.722023 143.08113
58.821037 37.05874 143.06798
61.397743 37.366997 142.91357
63.522728 37.83097 143.32597
63.322655 38.08628 143.28516
63.522713 37.83097 143.32597
63.32264 38.086266 143.28514
64.84063 38.667305 143.93927
64.61135 38.887794 143.8873
65.85784 39.50631 144.62198
65.60525 39.700737 144.56427
65.60525 39.700752 144.56427
66.60778 40.751137 145.4519
67.60009 42.311424 146.6542
67.60009 42.31141 146.6542
68.46218 44.388344 148.1857
69.42126 46.48658 150.12466
69.714745 46.21595 150.03755
69.42126 46.48655 150.12466
71.23849 47.282448 152.09207
71.032005 47.600517 152.28174
73.496635 46.62603 153.6748
73.46267 46.893303 153.94348
73.46267 46.893333 153.9435
76.019035 45.574684 154.04987
12.775734 11.017097 121.14586
12.420952 8.556465 122.760315
11.731514 6.26078 124.45894
10.624886 4.048729 126.19006
10.452309 1.568871 127.59352
12.171806 -0.108406 128.69748
14.475792 -0.303902 130.27174
16.396889 0.463966 132.27629
18.162636 1.820351 134.09778
19.771828 3.635292 135.68488
21.251762 5.69738 137.09554
22.627876 7.901375 138.40291
23.876945 10.251137 139.58849
24.946983 12.775826 140.59464
25.795982 15.474098 141.37434
26.403038 18.317223 141.90144
26.808403 21.255363 142.20319
27.109596 24.244835 142.36229
27.428566 27.192314 142.49248
27.898079 29.953773 142.74327
29.291145 32.054512 143.13196
31.843773 32.778786 143.59238
34.833687 32.644142 144.00072
34.83367 32.644127 144.00072
37.79238 32.92318 144.19511
40.68467 33.72381 144.1705
40.684654 33.72381 144.1705
43.54348 34.79476 144.03246
46.405067 36.180138 143.83835
46.405052 36.180122 143.83835
49.378105 37.39872 143.67421
52.55239 37.760323 143.61424
52.552376 37.760338 143.61424
55.72506 37.542152 143.39879
58.686913 37.361885 142.95413
58.686913 37.361916 142.95413
61.241035 37.632774 142.79492
63.14173 38.31814 143.15913
63.141716 38.318123 143.15912
64.4121 39.096535 143.75598
65.39208 39.89509 144.43102
65.39211 39.89512 144.43103
66.382744 40.93847 145.32191
67.36651 42.51229 146.53821
67.36651 42.512276 146.53818
68.23083 44.6408 148.10294
69.22155 46.82476 150.10454
69.22155 46.82476 150.10452
70.92379 47.993706 152.3542
73.51461 47.22106 154.11769
73.51461 47.221077 154.11769
13.935417 12.873558 119.47377
12.95359 11.265831 121.416115
12.600456 8.814857 123.02933
11.905678 6.521507 124.71486
10.814003 4.314842 126.44242
10.618858 1.894569 127.79737
12.24659 0.305687 128.80211
14.452202 0.139824 130.29352
16.305168 0.879738 132.25085
18.020988 2.195366 134.037
19.596046 3.964348 135.59683
21.049782 5.98011 136.9845
22.402122 8.13932 138.2708
23.629402 10.446663 139.43701
24.681084 12.932213 140.4261
25.516884 15.597374 141.19168
26.117455 18.417717 141.70801
26.52433 21.34748 142.0023
26.836098 24.343895 142.15779
27.177177 27.300407 142.29396
27.666573 30.12249 142.53235
29.081017 32.294975 142.90714
31.657982 33.04534 143.37094
34.667946 32.90789 143.78795
34.667915 32.90789 143.78793
37.640144 33.200996 143.98541
40.538353 34.038033 143.95325
40.538353 34.038002 143.95322
43.406136 35.10131 143.8158
46.273994 36.478508 143.62202
46.273994 36.478523 143.62202
49.247963 37.698174 143.45544
52.419594 38.056175 143.39368
52.419594 38.05619 143.39368
55.591072 37.821846 143.18318
58.54975 37.61431 142.74776
58.54975 37.614326 142.74777
61.094902 37.855537 142.59512
62.985252 38.51934 142.96133
62.985252 38.51931 142.96133
64.248314 39.286293 143.55838
65.22439 40.080147 144.23431
65.22442 40.080177 144.23433
66.21545 41.1249 145.129
67.20867 42.71537 146.3552
67.20864 42.71534 146.35518
68.09643 44.891136 147.93819
69.13683 47.15188 149.9761
69.13683 47.151863 149.97609
70.93478 48.370018 152.30145
73.65798 47.547447 154.17969
73.65801 47.547478 154.1797
13.935417 12.873573 119.473785
13.236534 11.477425 121.64919
12.882698 9.030785 123.2682
12.175636 6.734352 124.951225
11.1007 4.548515 126.66346
10.883568 2.203499 127.938156
12.411232 0.697258 128.8209
14.510445 0.555672 130.22401
16.292152 1.272591 132.13548
17.956306 2.551521 133.88882
19.496422 4.277061 135.42346
20.923622 6.247978 136.78972
22.252068 8.363594 138.05598
23.457436 10.629311 139.20335
24.490517 13.075722 140.17563
25.312218 15.706657 140.92717
25.904655 18.501518 141.43282
26.31002 21.41816 141.71974
26.627678 24.414345 141.87161
26.984245 27.370796 142.01328
27.486107 30.238014 142.24046
28.91314 32.46926 142.60081
31.505455 33.243324 143.06409
34.52749 33.107002 143.48395
34.527443 33.107002 143.48392
37.506935 33.412025 143.68102
40.4067 34.27836 143.64207
40.40667 34.278343 143.64206
43.27793 35.333168 143.50409
46.148643 36.68696 143.31287
46.14863 36.68696 143.31287
49.119286 37.905144 143.14456
52.284813 38.266747 143.0816
55.455055 38.023506 142.87967
58.416084 37.798576 142.46077
58.4161 37.798576 142.46077
60.964287 38.02529 142.3244
62.857735 38.683662 142.70074
62.857735 38.683647 142.70073
64.12444 39.451653 143.30304
65.10598 40.249626 143.98314
65.10598 40.24964 143.98315
66.10781 41.301598 144.88399
67.123375 42.905724 146.12108
67.123405 42.90571 146.12108
68.04647 45.112144 147.71817
69.1426 47.423164 149.77977
69.1426 47.42315 149.77977
71.031944 48.67472 152.16493
73.86297 47.830574 154.14442
73.86297 47.830605 154.14444
13.935432 12.873589 119.473785
13.935402 12.873558 119.47378
13.236549 11.47744 121.6492
13.597557 11.630379 121.82167
12.882713 9.0308 123.26822
13.243507 9.182884 123.45418
12.175636 6.734367 124.95123
12.522041 6.878456 125.14582
11.100716 4.548531 126.66347
11.465721 4.725594 126.8286
10.883583 2.203499 127.93817
11.225746 2.459877 127.99795
12.411247 0.697258 128.82092
12.649132 1.019096 128.75235
14.51046 0.555672 130.22403
14.642342 0.89547 130.07239
16.292168 1.272591 132.1355
16.357918 1.600456 131.94193
17.956322 2.551521 133.88882
17.974663 2.85302 133.66681
19.496437 4.277077 135.42346
19.48278 4.542824 135.1804
20.923622 6.247993 136.78972
20.88575 6.474937 136.52898
22.252068 8.363625 138.05598
22.192558 8.552361 137.77829
23.45745 10.629341 139.20335
23.378075 10.781273 138.90929
24.490532 13.075737 140.17563
24.393929 13.192451 139.86668
25.312233 15.706673 140.92719
25.201958 15.791481 140.60562
25.904655 18.501534 141.43283
25.784966 18.560951 141.10156
26.310036 21.41819 141.71976
26.185509 21.461464 141.38173
26.627693 24.41436 141.87161
26.503136 24.450981 141.53003
26.98426 27.370811 142.01329
26.866203 27.399086 141.67595
27.486122 30.238045 142.24046
27.370583 30.293648 141.89345
28.91314 32.469276 142.60083
28.79905 32.566795 142.23909
31.396355 33.359352 142.6971
34.52749 33.107018 143.48396
34.422844 33.22355 143.11456
34.52746 33.107002 143.48393
34.422813 33.223534 143.11456
37.506966 33.412056 143.68102
37.404274 33.5317 143.30875
40.4067 34.27839 143.64207
40.302284 34.410744 143.2646
40.406685 34.278374 143.64206
40.302254 34.410744 143.26459
43.27796 35.333183 143.50409
43.17257 35.45112 143.12624
46.14866 36.68696 143.31288
46.041954 36.778877 142.93825
46.148643 36.686974 143.31288
46.04194 36.778893 142.93825
49.1193 37.90516 143.14456
49.006203 37.993965 142.77023
52.28483 38.266747 143.08162
52.162758 38.365883 142.70708
52.28483 38.26676 143.08162
55.45507 38.023506 142.87968
55.32972 38.12536 142.51299
58.416115 37.79859 142.46078
58.29574 37.898888 142.1104
58.295723 37.898888 142.1104
60.964302 38.025307 142.3244
60.85743 38.131096 141.99338
62.85775 38.683693 142.70076
62.76745 38.803047 142.38486
62.767433 38.803047 142.38486
64.12447 39.451668 143.30304
64.04882 39.586037 142.99701
65.10601 40.24964 143.98315
65.04455 40.398094 143.68535
65.04455 40.39811 143.68535
66.10784 41.301598 144.88399
66.06524 41.464973 144.59677
67.123436 42.90574 146.12108
67.10961 43.08349 145.85014
67.123405 42.90574 146.12108
67.10955 43.083458 145.85011
68.0465 45.112175 147.71817
68.06786 45.308037 147.46622
69.1426 47.423195 149.77977
69.21014 47.64437 149.55093
69.21014 47.64434 149.55092
71.031944 48.67475 152.16495
71.174065 48.910576 151.98228
73.863 47.83059 154.14442
74.09136 48.061684 154.03175
73.86297 47.83062 154.14444
74.09133 48.061714 154.03178
76.019035 45.5747 154.04988
14.002785 11.704185 121.91125
13.653313 9.249626 123.56172
12.919487 6.931801 125.269356
11.872215 4.818092 126.91006
11.600151 2.632698 127.96517
12.927315 1.244591 128.60654
14.830605 1.134727 129.8598
16.492744 1.836876 131.69304
18.07154 3.073418 133.39462
19.553719 4.737816 134.89252
20.936897 6.640724 136.22867
22.226158 8.688927 137.46559
23.39553 10.889259 138.584
24.397087 13.272316 139.5296
25.19297 15.844795 140.25821
25.766045 18.591316 140.74593
26.158653 21.474419 141.01982
26.470146 24.451698 141.16402
26.830513 27.382439 141.31213
27.326805 30.285667 141.51974
28.744987 32.58277 141.84862
31.337044 33.38671 142.29654
34.36129 33.24784 142.7083
34.36129 33.247826 142.7083
37.34028 33.54876 142.8991
40.23394 34.423088 142.85246
40.23391 34.423058 142.85245
43.10015 35.43946 142.7164
45.965202 36.7425 142.53386
45.965187 36.7425 142.53386
48.92225 37.95263 142.37009
52.06771 38.34095 142.30672
55.22764 38.11611 142.1135
58.19944 37.90394 141.71779
58.199455 37.90394 141.7178
60.784874 38.160576 141.61551
62.72573 38.86474 142.02405
62.7257 38.86474 142.02405
64.03384 39.67704 142.65068
65.05309 40.514168 143.35226
65.05309 40.5142 143.35226
66.10003 41.60627 144.27986
67.17574 43.24569 145.55632
67.17571 43.245674 145.5563
68.16198 45.483818 147.19861
69.330284 47.827034 149.30887
69.33022 47.82702 149.30884
71.33959 49.08909 151.77277
74.31484 48.238 153.85649
74.31481 48.23803 153.8565
14.430626 11.698769 121.91731
14.090965 9.228615 123.58775
13.346687 6.889122 125.31674
12.292244 4.81826 126.90651
11.972618 2.713844 127.84876
13.215401 1.366432 128.40181
15.0532 1.264809 129.60909
16.680855 1.970512 131.41336
18.2351 3.200523 133.09785
19.699165 4.850655 134.58623
21.067848 6.735695 135.91583
22.344276 8.765587 137.14566
23.501945 10.947365 138.25607
24.492882 13.311195 139.1936
25.278923 15.864204 139.91467
25.842384 18.59185 140.39569
26.224968 21.45745 140.66356
26.52549 24.417366 140.80243
26.875725 27.320518 140.95
27.355309 30.212822 141.14568
28.75335 32.515358 141.45435
31.331245 33.322823 141.88844
34.347374 33.17736 142.2937
34.347343 33.17736 142.29369
37.320244 33.460976 142.48317
40.207054 34.31655 142.43811
40.20704 34.316536 142.43811
43.06623 35.30578 142.30765
45.925667 36.583107 142.1349
48.87664 37.784523 141.9803
52.00939 38.19419 141.91486
52.009377 38.19419 141.91486
55.158806 37.9952 141.71133
58.138466 37.80668 141.30803
58.13848 37.80671 141.30804
60.759193 38.100105 141.21173
62.746193 38.8518 141.63718
62.746193 38.85177 141.63718
64.09377 39.707115 142.28232
65.14608 40.581154 143.00183
65.14608 40.581184 143.00185
66.2261 41.711266 143.95033
67.33395 43.38407 145.25398
67.33395 43.384056 145.25397
68.338005 45.639763 146.92543
69.50829 47.979836 149.05927
69.50826 47.97982 149.05923
71.52715 49.223076 151.53973
74.52477 48.364296 153.62617
74.52477 48.364326 153.62619
14.837364 11.617714 121.84255
14.509682 9.122749 123.53119
13.75576 6.75309 125.28376
12.682243 4.727089 126.82338
12.31118 2.704231 127.66668
13.492317 1.38723 128.15773
15.29409 1.287422 129.33833
16.907478 2.000191 131.12273
18.450691 3.23159 132.79744
19.904228 4.878792 134.283
21.263222 6.758308 135.61223
22.531303 8.781609 136.84047
23.681694 10.95562 137.94772
24.66578 13.309868 138.88118
25.444618 15.851006 139.59764
25.999596 18.56437 140.07362
26.371407 21.41285 140.33568
26.658104 24.35067 140.46786
26.993614 27.216362 140.6119
27.451958 30.076576 140.79375
28.824074 32.36225 141.07997
31.380959 33.1652 141.49808
34.383324 33.01377 141.89758
34.383293 33.013756 141.89757
37.346474 33.271843 142.08972
40.2239 34.097466 142.05144
40.223885 34.097466 142.0514
43.072548 35.064217 141.929
45.925438 36.31637 141.77003
48.87194 37.50466 141.6287
51.99134 37.938362 141.55843
55.129066 37.77044 141.33382
58.122215 37.605827 140.91078
58.122215 37.605843 140.9108
60.791313 37.939354 140.81401
62.83869 38.748405 141.25737
64.236595 39.657997 141.92517
65.32958 40.579613 142.66666
65.32961 40.579613 142.66666
66.4475 41.760765 143.63892
67.58605 43.48217 144.96928
67.58602 43.482124 144.96927
68.597435 45.764153 146.66537
69.74709 48.09719 148.81177
69.74709 48.09716 148.81175
71.73791 49.312477 151.28682
74.715965 48.439323 153.34886
74.715965 48.439354 153.34888
13.935402 12.873543 119.47378
15.204887 11.454018 121.67887
14.887642 8.924446 123.38173
14.122185 6.516869 125.15932
13.019035 4.540779 126.65822
12.600624 2.603508 127.42621
13.751259 1.306648 127.88202
15.549278 1.199959 129.0542
17.16726 1.921761 130.82993
18.710457 3.163155 132.50403
20.15789 4.821251 133.9947
21.50924 6.710136 135.33041
22.771477 8.740242 136.56287
23.917778 10.917946 137.67178
24.89814 13.272255 138.60506
25.672401 15.809044 139.31981
26.220573 18.512566 139.79262
26.582146 21.344246 140.04958
26.8545 24.255394 140.17444
27.17376 27.07531 140.31174
27.612495 29.877647 140.48033
28.959389 32.117546 140.74506
31.490929 32.907753 141.14607
34.473778 32.754036 141.54108
34.473747 32.754036 141.54108
37.423103 32.979942 141.7402
40.28779 33.766518 141.71353
40.287773 33.766518 141.71352
43.121162 34.720894 141.59995
45.965828 35.950417 141.45697
45.965843 35.950417 141.45697
48.90914 37.12127 141.33176
52.01539 37.580437 141.25467
52.015373 37.580437 141.25465
55.142982 37.445473 141.00337
58.1585 37.29972 140.55748
58.1585 37.29972 140.5575
60.889122 37.67135 140.46129
63.008247 38.54328 140.92638
63.008232 38.543266 140.92638
64.46398 39.51522 141.62073
65.60259 40.492805 142.38643
65.60262 40.492836 142.38643
66.760796 41.7362 143.38159
67.92791 43.520226 144.73122
67.92791 43.520195 144.73122
68.940025 45.837288 146.43648
70.05367 48.161354 148.57074
70.05367 48.161324 148.57072
71.9811 49.3442 151.00801
74.88888 48.45336 153.02126
74.88888 48.453392 153.02127
76.019005 45.574654 154.04987
15.508125 11.212914 121.43082
15.196022 8.64312 123.14402
14.415398 6.195213 124.94801
13.277672 4.272041 126.418495
12.824699 2.415138 127.13875
13.978889 1.121162 127.58845
15.804619 0.996925 128.77293
17.445686 1.73037 130.55394
18.999413 2.992287 132.23708
20.444832 4.677711 133.73938
21.79052 6.593178 135.08629
23.049477 8.644661 136.3271
24.194984 10.837746 137.44148
25.174995 13.20182 138.37796
25.94764 15.741814 139.09387
26.491188 18.44027 139.56581
26.843895 21.256218 139.81964
27.102486 24.137825 139.93869
27.405113 26.908699 140.06837
27.829414 29.627922 140.23212
29.155006 31.798775 140.48376
31.658607 32.57084 140.86967
34.617546 32.41262 141.2627
34.61753 32.41262 141.26266
37.548943 32.6027 141.4713
40.396965 33.348778 141.45757
40.39695 33.348747 141.45757
43.210365 34.30332 141.35083
46.045433 35.509758 141.22418
46.045403 35.509743 141.22418
48.986534 36.65934 141.11623
52.080467 37.144432 141.0325
55.201042 37.04328 140.7574
58.24604 36.913475 140.29652
58.246056 36.913475 140.29654
61.04432 37.321007 140.20883
63.237663 38.255806 140.69946
63.237648 38.255806 140.69945
64.7517 39.29075 141.42044
65.93566 40.325203 142.20772
65.93569 40.32522 142.20772
67.1332 41.632454 143.21855
68.32821 43.480476 144.57138
68.32818 43.480446 144.57135
69.343834 45.8285 146.25931
70.42147 48.133736 148.34439
70.42144 48.13375 148.34436
72.260216 49.281105 150.70422
75.03991 48.38131 152.64973
75.03991 48.38134 152.64975
76.019005 45.5747 154.04987
15.50811 11.212914 121.43082
15.696251 10.96122 121.16781
15.196007 8.64312 123.14402
15.383003 8.357445 122.88791
14.587364 5.878242 124.71511
13.423958 3.997139 126.168755
12.824699 2.415138 127.138756
12.959969 2.192665 126.866165
13.978889 1.121162 127.588455
14.143898 0.881996 127.33155
16.01513 0.734917 128.54309
17.445702 1.73037 130.55394
17.69172 1.48037 130.33902
18.999413 2.992271 132.23706
19.26931 2.765755 132.03355
20.444847 4.677696 133.73936
20.72747 4.482948 133.54405
21.790535 6.593147 135.08629
22.081032 6.430275 134.89766
23.049477 8.64463 136.3271
23.34748 8.509163 136.14456
24.500282 10.72419 137.26448
25.17498 13.20182 138.37796
25.485985 13.10482 138.20555
25.947624 15.741814 139.09387
26.261177 15.654472 138.92471
26.802513 18.353127 139.3983
26.843895 21.256233 139.81963
27.146965 21.156837 139.6522
27.39019 24.011482 139.76976
27.405128 26.908714 140.06839
27.6708 26.741447 139.89636
27.82943 29.627937 140.23213
28.07534 29.375557 140.0719
29.373192 31.481697 140.32823
31.658607 32.57084 140.86966
31.843742 32.240227 140.70728
34.77761 32.072212 141.10187
37.689674 32.233055 141.31851
40.39698 33.348778 141.45755
40.520058 32.949974 141.31389
40.520027 32.94996 141.31389
43.21035 34.30332 141.35083
43.313698 33.911873 141.21042
46.045418 35.509758 141.22418
46.140236 35.09368 141.09744
46.045387 35.509743 141.22418
46.14025 35.093697 141.09744
49.080147 36.222267 141.0043
52.080467 37.144432 141.03249
52.16433 36.729637 140.91618
55.201042 37.04328 140.75739
55.281 36.659096 140.62662
58.24604 36.91346 140.29652
58.353325 36.545464 140.16261
61.044304 37.321007 140.20883
61.20829 36.9849 140.08961
63.237648 38.255806 140.69946
63.461357 37.97135 140.60342
63.237633 38.255806 140.69945
63.461357 37.971336 140.60342
65.02157 39.05619 141.34464
65.93566 40.32522 142.20772
66.24157 40.134727 142.14568
66.2416 40.134727 142.14569
67.1332 41.63247 143.21854
67.47085 41.49047 143.16158
68.32818 43.480476 144.57138
68.691124 43.383278 144.50227
68.32818 43.48046 144.57135
68.69106 43.383263 144.50226
69.3438 45.8285 146.25931
69.71847 45.741814 146.15268
70.42147 48.13375 148.34438
70.774864 48.013466 148.16531
70.7748 48.013435 148.1653
72.26025 49.28112 150.7042
72.5259 49.125908 150.42918
75.03991 48.38131 152.64972
75.15063 48.236046 152.30676
75.03991 48.38134 152.64973
75.1506 48.236076 152.30678
POLYGONS 1925 7700
3 0 1 2
3 0 2 3
3 3 2 4
3 3 4 5
3 5 4 6
3 5 6 7
3 7 6 8
3 7 8 9
3 9 8 10
3 9 10 11
3 11 10 12
3 11 12 13
3 13 12 14
3 13 14 15
3 15 14 16
3 15 16 17
3 17 16 18
3 17 18 19
3 19 18 20
3 19 20 21
3 21 20 22
3 21 22 23
3 23 22 24
3 23 24 25
3 25 24 26
3 25 26 27
3 27 26 28
3 27 28 29
3 29 28 30
3 29 30 31
3 31 30 32
3 31 32 33
3 33 32 34
3 33 34 35
3 35 34 36
3 35 36 37
3 37 36 38
3 37 38 39
3 39 38 40
3 39 40 41
3 41 40 42
3 41 42 43
3 43 42 44
3 43 44 45
3 45 44 46
3 47 48 49
3 49 48 50
3 49 50 51
3 51 50 52
3 53 54 55
3 55 54 56
3 55 56 57
3 57 56 58
3 57 59 60
3 60 59 61
3 60 61 62
3 62 61 63
3 64 65 66
3 66 65 67
3 66 67 68
3 68 67 69
3 70 71 72
3 72 71 73
3 72 73 74
3 74 73 75
3 76 77 78
3 78 77 79
3 78 79 80
3 80 79 81
3 82 83 84
3 84 83 85
3 84 85 86
3 86 85 87
3 88 89 90
3 90 89 91
3 90 91 92
3 92 91 93
3 94 95 96
3 96 95 97
3 96 97 98
3 98 97 99
3 100 101 102
3 1 103 2
3 2 103 104
3 2 104 4
3 4 104 105
3 4 105 6
3 6 105 106
3 6 106 8
3 8 106 107
3 8 107 10
3 10 107 108
3 10 108 12
3 12 108 109
3 12 109 14
3 14 109 110
3 14 110 16
3 16 110 111
3 16 111 18
3 18 111 112
3 18 112 20
3 20 112 113
3 20 113 22
3 22 113 114
3 22 114 24
3 24 114 115
3 24 115 26
3 26 115 116
3 26 116 28
3 28 116 117
3 28 117 30
3 30 117 118
3 30 118 32
3 32 118 119
3 32 119 34
3 34 119 120
3 34 120 36
3 36 120 121
3 36 121 38
3 38 121 122
3 38 122 40
3 40 122 123
3 40 123 42
3 42 123 124
3 42 124 44
3 44 124 125
3 44 125 46
3 46 125 126
3 48 127 50
3 50 127 128
3 50 128 52
3 52 128 129
3 54 130 56
3 56 130 131
3 56 131 58
3 58 131 132
3 59 133 61
3 61 133 134
3 61 134 63
3 63 134 135
3 65 136 67
3 67 136 137
3 67 137 69
3 69 137 138
3 71 139 73
3 73 139 140
3 73 140 75
3 75 140 141
3 77 142 79
3 79 142 143
3 79 143 81
3 81 143 144
3 83 145 85
3 85 145 146
3 85 146 87
3 87 146 147
3 89 148 91
3 91 148 149
3 91 149 93
3 93 149 150
3 95 151 97
3 97 151 152
3 97 152 99
3 99 152 153
3 101 154 102
3 102 154 155
3 103 156 104
3 104 156 157
3 104 157 105
3 105 157 158
3 105 158 106
3 106 158 159
3 106 159 107
3 107 159 160
3 107 160 108
3 108 160 161
3 108 161 109
3 109 161 162
3 109 162 110
3 110 162 163
3 110 163 111
3 111 163 164
3 111 164 112
3 112 164 165
3 112 165 113
3 113 165 166
3 113 166 114
3 114 166 167
3 114 167 115
3 115 167 168
3 115 168 116
3 116 168 169
3 116 169 117
3 117 169 170
3 117 170 118
3 118 170 171
3 118 171 119
3 119 171 172
3 119 172 120
3 120 172 173
3 120 173 121
3 121 173 174
3 121 174 122
3 122 174 175
3 122 175 123
3 123 175 176
3 123 176 124
3 124 176 177
3 124 177 125
3 125 177 178
3 125 178 126
3 126 178 179
3 127 180 128
3 128 180 181
3 128 181 129
3 129 181 182
3 130 182 131
3 131 182 183
3 131 183 132
3 132 183 184
3 133 185 134
3 134 185 186
3 134 186 135
3 135 186 187
3 136 188 137
3 137 188 189
3 137 189 138
3 138 189 190
3 139 191 140
3 140 191 192
3 140 192 141
3 141 192 193
3 142 194 143
3 143 194 195
3 143 195 144
3 144 195 196
3 145 197 146
3 146 197 198
3 146 198 147
3 147 198 199
3 148 200 149
3 149 200 201
3 149 201 150
3 150 201 202
3 151 203 152
3 152 203 204
3 152 204 153
3 153 204 205
3 154 206 155
3 155 206 207
3 156 208 157
3 157 208 209
3 157 209 158
3 158 209 210
3 158 210 159
3 159 210 211
3 159 211 160
3 160 211 212
3 160 212 161
3 161 212 213
3 161 213 162
3 162 213 214
3 162 214 163
3 163 214 215
3 163 215 164
3 164 215 216
3 164 216 165
3 165 216 217
3 165 217 166
3 166 217 218
3 166 218 167
3 167 218 219
3 167 219 168
3 168 219 220
3 168 220 169
3 169 220 221
3 169 221 170
3 170 221 222
3 170 222 171
3 171 222 223
3 171 223 172
3 172 223 224
3 172 224 173
3 173 224 225
3 173 225 174
3 174 225 226
3 174 226 175
3 175 226 227
3 175 227 176
3 176 227 228
3 176 228 177
3 177 228 229
3 177 229 178
3 178 229 230
3 178 230 179
3 179 230 231
3 180 232 181
3 181 232 233
3 181 233 182
3 182 233 234
3 182 235 183
3 183 235 236
3 183 236 184
3 184 236 237
3 185 238 186
3 186 238 239
3 186 239 187
3 187 239 240
3 188 240 189
3 189 240 241
3 189 241 190
3 190 241 242
3 191 243 192
3 192 243 244
3 192 244 193
3 193 244 245
3 194 246 195
3 195 246 247
3 195 247 196
3 196 247 248
3 197 249 198
3 198 249 250
3 198 250 199
3 199 250 251
3 200 251 201
3 201 251 252
3 201 252 202
3 202 252 253
3 203 254 204
3 204 254 255
3 204 255 205
3 205 255 256
3 206 257 207
3 207 257 258
3 208 1 209
3 209 1 259
3 209 259 210
3 210 259 260
3 210 260 211
3 211 260 261
3 211 261 212
3 212 261 262
3 212 262 213
3 213 262 263
3 213 263 214
3 214 263 264
3 214 264 215
3 215 264 265
3 215 265 216
3 216 265 266
3 216 266 217
3 217 266 267
3 217 267 218
3 218 267 268
3 218 268 219
3 219 268 269
3 219 269 220
3 220 269 270
3 220 270 221
3 221 270 271
3 221 271 222
3 222 271 272
3 222 272 223
3 223 272 273
3 223 273 224
3 224 273 274
3 224 274 225
3 225 274 275
3 225 275 226
3 226 275 276
3 226 276 227
3 227 276 277
3 227 277 228
3 228 277 278
3 228 278 229
3 229 278 279
3 229 279 230
3 230 279 280
3 230 280 231
3 231 280 281
3 232 282 233
3 233 282 283
3 233 283 234
3 234 283 284
3 235 285 236
3 236 285 286
3 236 286 237
3 237 286 287
3 238 288 239
3 239 288 289
3 239 289 240
3 240 289 290
3 240 291 241
3 241 291 292
3 241 292 242
3 242 292 293
3 243 294 244
3 244 294 295
3 244 295 245
3 245 295 296
3 246 297 247
3 247 297 298
3 247 298 248
3 248 298 299
3 249 300 250
3 250 300 301
3 250 301 251
3 251 301 302
3 251 303 252
3 252 303 304
3 252 304 253
3 253 304 305
3 254 306 255
3 255 306 307
3 255 307 256
3 256 307 308
3 257 309 258
3 258 309 207
3 310 1 311
3 311 1 312
3 311 312 260
3 260 312 313
3 260 313 261
3 261 313 314
3 261 314 315
3 315 314 316
3 315 316 317
3 317 316 318
3 317 318 319
3 319 318 320
3 319 320 321
3 321 320 322
3 321 322 323
3 323 322 324
3 323 324 325
3 325 324 326
3 325 326 327
3 327 326 328
3 327 328 329
3 329 328 330
3 329 330 331
3 331 330 332
3 331 332 333
3 333 332 334
3 333 334 335
3 335 334 336
3 335 336 337
3 337 336 338
3 337 338 339
3 339 338 340
3 339 340 341
3 341 340 342
3 341 342 343
3 343 342 344
3 343 344 345
3 345 344 346
3 345 346 347
3 347 346 348
3 347 348 349
3 349 348 350
3 349 350 280
3 280 350 351
3 280 351 352
3 352 351 353
3 282 354 355
3 355 354 356
3 355 356 357
3 357 356 358
3 359 360 361
3 361 360 362
3 361 362 363
3 363 362 364
3 365 366 367
3 367 366 368
3 367 368 369
3 369 368 370
3 371 372 292
3 292 372 373
3 292 373 293
3 293 373 374
3 375 376 377
3 377 376 378
3 377 378 379
3 379 378 380
3 381 382 383
3 383 382 384
3 383 384 385
3 385 384 386
3 385 387 301
3 301 387 388
3 301 388 389
3 389 388 390
3 391 392 393
3 393 392 394
3 393 394 395
3 395 394 396
3 397 398 399
3 399 398 400
3 399 400 401
3 401 400 402
3 309 403 102
3 102 403 404
3 312 1 405
3 312 405 313
3 313 405 406
3 313 406 314
3 314 406 407
3 314 407 316
3 316 407 408
3 316 408 318
3 318 408 409
3 318 409 320
3 320 409 410
3 320 410 322
3 322 410 411
3 322 411 324
3 324 411 412
3 324 412 326
3 326 412 413
3 326 413 328
3 328 413 414
3 328 414 330
3 330 414 415
3 330 415 332
3 332 415 416
3 332 416 334
3 334 416 417
3 334 417 336
3 336 417 418
3 336 418 338
3 338 418 419
3 338 419 340
3 340 419 420
3 340 420 342
3 342 420 421
3 342 421 344
3 344 421 422
3 344 422 346
3 346 422 423
3 346 423 348
3 348 423 424
3 348 424 350
3 350 424 425
3 350 425 351
3 351 425 426
3 351 426 353
3 353 426 427
3 354 428 356
3 356 428 429
3 356 429 358
3 358 429 430
3 360 431 362
3 362 431 432
3 362 432 364
3 364 432 433
3 366 434 368
3 368 434 435
3 368 435 370
3 370 435 436
3 372 437 373
3 373 437 438
3 373 438 374
3 374 438 439
3 376 440 378
3 378 440 441
3 378 441 380
3 380 441 442
3 382 443 384
3 384 443 444
3 384 444 386
3 386 444 445
3 387 446 388
3 388 446 447
3 388 447 390
3 390 447 448
3 392 449 394
3 394 449 450
3 394 450 396
3 396 450 451
3 398 452 400
3 400 452 453
3 400 453 402
3 402 453 454
3 403 455 404
3 1 456 405
3 405 456 457
3 405 457 406
3 406 457 458
3 406 458 407
3 407 458 459
3 407 459 408
3 408 459 460
3 408 460 409
3 409 460 461
3 409 461 410
3 410 461 462
3 410 462 411
3 411 462 463
3 411 463 412
3 412 463 464
3 412 464 413
3 413 464 465
3 413 465 414
3 414 465 466
3 414 466 415
3 415 466 467
3 415 467 416
3 416 467 468
3 416 468 417
3 417 468 469
3 417 469 418
3 418 469 470
3 418 470 419
3 419 470 471
3 419 471 420
3 420 471 472
3 420 472 421
3 421 472 473
3 421 473 422
3 422 473 474
3 422 474 423
3 423 474 475
3 423 475 424
3 424 475 476
3 424 476 425
3 425 476 477
3 425 477 426
3 426 477 478
3 426 478 427
3 427 478 479
3 428 480 429
3 429 480 481
3 429 481 430
3 430 481 482
3 431 483 432
3 432 483 484
3 432 484 433
3 433 484 485
3 434 486 435
3 435 486 487
3 435 487 436
3 436 487 488
3 437 489 438
3 438 489 490
3 438 490 439
3 439 490 491
3 440 492 441
3 441 492 493
3 441 493 442
3 442 493 494
3 443 495 444
3 444 495 496
3 444 496 445
3 445 496 497
3 446 498 447
3 447 498 499
3 447 499 448
3 448 499 500
3 449 501 450
3 450 501 502
3 450 502 451
3 451 502 503
3 452 504 453
3 453 504 505
3 453 505 454
3 454 505 506
3 455 507 404
3 404 507 508
3 509 510 511
3 511 510 512
3 511 512 513
3 513 512 514
3 513 514 515
3 515 514 516
3 515 516 517
3 517 516 518
3 517 518 519
3 519 518 520
3 519 520 521
3 521 520 522
3 521 522 523
3 523 522 524
3 523 524 525
3 525 524 526
3 525 526 527
3 527 526 528
3 527 528 529
3 529 528 530
3 529 530 531
3 531 530 532
3 531 532 533
3 533 532 534
3 533 534 535
3 535 534 536
3 535 536 537
3 537 536 538
3 537 538 539
3 539 538 540
3 539 540 541
3 541 540 542
3 541 542 543
3 543 542 544
3 543 544 545
3 545 544 546
3 545 546 547
3 547 546 548
3 547 548 549
3 549 548 550
3 549 550 551
3 551 550 552
3 551 552 553
3 553 552 554
3 553 554 555
3 555 554 556
3 557 558 559
3 559 558 560
3 559 560 561
3 561 560 562
3 563 564 565
3 565 564 566
3 565 566 567
3 567 566 568
3 569 570 571
3 571 570 572
3 571 572 573
3 573 572 574
3 575 576 577
3 577 576 578
3 577 578 579
3 579 578 580
3 581 580 582
3 582 580 583
3 582 583 584
3 584 583 585
3 586 587 588
3 588 587 589
3 588 589 590
3 590 589 591
3 592 593 594
3 594 593 595
3 594 595 596
3 596 595 597
3 598 599 600
3 600 599 601
3 600 601 602
3 602 601 603
3 604 605 606
3 606 605 607
3 606 607 608
3 608 607 609
3 610 611 612
3 612 611 404
3 510 208 512
3 512 208 613
3 512 613 514
3 514 613 614
3 514 614 516
3 516 614 615
3 516 615 518
3 518 615 616
3 518 616 520
3 520 616 617
3 520 617 522
3 522 617 618
3 522 618 524
3 524 618 619
3 524 619 526
3 526 619 620
3 526 620 528
3 528 620 621
3 528 621 530
3 530 621 622
3 530 622 532
3 532 622 623
3 532 623 534
3 534 623 624
3 534 624 536
3 536 624 625
3 536 625 538
3 538 625 626
3 538 626 540
3 540 626 627
3 540 627 542
3 542 627 628
3 542 628 544
3 544 628 629
3 544 629 546
3 546 629 630
3 546 630 548
3 548 630 631
3 548 631 550
3 550 631 632
3 550 632 552
3 552 632 633
3 552 633 554
3 554 633 634
3 554 634 556
3 556 634 635
3 558 636 560
3 560 636 637
3 560 637 562
3 562 637 638
3 564 639 566
3 566 639 640
3 566 640 568
3 568 640 641
3 570 642 572
3 572 642 643
3 572 643 574
3 574 643 644
3 576 645 578
3 578 645 646
3 578 646 580
3 580 646 647
3 580 648 583
3 583 648 649
3 583 649 585
3 585 649 650
3 587 651 589
3 589 651 652
3 589 652 591
3 591 652 653
3 593 654 595
3 595 654 655
3 595 655 597
3 597 655 656
3 599 657 601
3 601 657 658
3 601 658 603
3 603 658 659
3 605 660 607
3 607 660 661
3 607 661 609
3 609 661 662
3 611 663 404
3 404 663 664
3 208 509 613
3 613 509 665
3 613 665 614
3 614 665 666
3 614 666 615
3 615 666 667
3 615 667 616
3 616 667 668
3 616 668 617
3 617 668 669
3 617 669 618
3 618 669 670
3 618 670 619
3 619 670 671
3 619 671 620
3 620 671 672
3 620 672 621
3 621 672 673
3 621 673 622
3 622 673 674
3 622 674 623
3 623 674 675
3 623 675 624
3 624 675 676
3 624 676 625
3 625 676 677
3 625 677 626
3 626 677 678
3 626 678 627
3 627 678 679
3 627 679 628
3 628 679 680
3 628 680 629
3 629 680 681
3 629 681 630
3 630 681 682
3 630 682 631
3 631 682 683
3 631 683 632
3 632 683 684
3 632 684 633
3 633 684 685
3 633 685 634
3 634 685 686
3 634 686 635
3 635 686 687
3 636 688 637
3 637 688 689
3 637 689 638
3 638 689 690
3 639 691 640
3 640 691 692
3 640 692 641
3 641 692 693
3 642 694 643
3 643 694 695
3 643 695 644
3 644 695 696
3 645 696 646
3 646 696 697
3 646 697 647
3 647 697 698
3 648 699 649
3 649 699 700
3 649 700 650
3 650 700 701
3 651 702 652
3 652 702 703
3 652 703 653
3 653 703 704
3 654 704 655
3 655 704 705
3 655 705 656
3 656 705 706
3 657 707 658
3 658 707 708
3 658 708 659
3 659 708 709
3 660 710 661
3 661 710 711
3 661 711 662
3 662 711 712
3 663 713 664
3 714 208 665
3 665 208 715
3 665 715 716
3 716 715 717
3 716 717 718
3 718 717 719
3 718 719 720
3 720 719 721
3 720 721 722
3 722 721 723
3 722 723 724
3 724 723 725
3 724 725 671
3 671 725 726
3 671 726 727
3 727 726 728
3 727 728 729
3 729 728 730
3 729 730 674
3 674 730 731
3 674 731 732
3 732 731 733
3 732 733 734
3 734 733 735
3 734 735 736
3 736 735 737
3 736 737 678
3 678 737 738
3 678 738 739
3 739 738 740
3 739 740 741
3 741 740 742
3 741 742 743
3 743 742 744
3 743 744 745
3 745 744 746
3 745 746 747
3 747 746 748
3 747 748 749
3 749 748 750
3 749 750 685
3 685 750 751
3 685 751 686
3 686 751 752
3 686 752 687
3 687 752 753
3 687 754 755
3 755 754 756
3 755 756 757
3 757 756 758
3 759 760 692
3 692 760 761
3 692 761 693
3 693 761 762
3 694 763 695
3 695 763 764
3 695 764 765
3 765 764 766
3 696 767 768
3 768 767 769
3 768 769 770
3 770 769 771
3 772 773 700
3 700 773 774
3 700 774 775
3 775 774 776
3 777 778 779
3 779 778 780
3 779 780 781
3 781 780 782
3 704 783 705
3 705 783 784
3 705 784 706
3 706 784 785
3 707 786 708
3 708 786 787
3 708 787 709
3 709 787 788
3 789 790 791
3 791 790 792
3 791 792 793
3 793 792 794
3 713 795 796
3 796 795 102
3 208 714 715
3 715 714 797
3 715 797 717
3 717 797 798
3 717 798 719
3 719 798 799
3 719 799 721
3 721 799 800
3 721 800 723
3 723 800 801
3 723 801 725
3 725 801 802
3 725 802 726
3 726 802 803
3 726 803 728
3 728 803 804
3 728 804 730
3 730 804 805
3 730 805 731
3 731 805 806
3 731 806 733
3 733 806 807
3 733 807 735
3 735 807 808
3 735 808 737
3 737 808 809
3 737 809 738
3 738 809 810
3 738 810 740
3 740 810 811
3 740 811 742
3 742 811 812
3 742 812 744
3 744 812 813
3 744 813 746
3 746 813 814
3 746 814 748
3 748 814 815
3 748 815 750
3 750 815 816
3 750 816 751
3 751 816 817
3 751 817 752
3 752 817 818
3 752 818 753
3 753 818 819
3 754 820 756
3 756 820 821
3 756 821 758
3 758 821 822
3 760 823 761
3 761 823 824
3 761 824 762
3 762 824 825
3 763 826 764
3 764 826 827
3 764 827 766
3 766 827 828
3 767 829 769
3 769 829 830
3 769 830 771
3 771 830 831
3 773 832 774
3 774 832 833
3 774 833 776
3 776 833 834
3 778 835 780
3 780 835 836
3 780 836 782
3 782 836 837
3 783 838 784
3 784 838 839
3 784 839 785
3 785 839 840
3 786 841 787
3 787 841 842
3 787 842 788
3 788 842 843
3 790 844 792
3 792 844 845
3 792 845 794
3 794 845 846
3 795 847 102
3 714 848 797
3 797 848 849
3 797 849 798
3 798 849 850
3 798 850 799
3 799 850 851
3 799 851 800
3 800 851 852
3 800 852 801
3 801 852 853
3 801 853 802
3 802 853 854
3 802 854 803
3 803 854 855
3 803 855 804
3 804 855 856
3 804 856 805
3 805 856 857
3 805 857 806
3 806 857 858
3 806 858 807
3 807 858 859
3 807 859 808
3 808 859 860
3 808 860 809
3 809 860 861
3 809 861 810
3 810 861 862
3 810 862 811
3 811 862 863
3 811 863 812
3 812 863 864
3 812 864 813
3 813 864 865
3 813 865 814
3 814 865 866
3 814 866 815
3 815 866 867
3 815 867 816
3 816 867 868
3 816 868 817
3 817 868 869
3 817 869 818
3 818 869 870
3 818 870 819
3 819 870 871
3 820 872 821
3 821 872 873
3 821 873 822
3 822 873 874
3 823 875 824
3 824 875 876
3 824 876 825
3 825 876 877
3 826 878 827
3 827 878 879
3 827 879 828
3 828 879 880
3 829 881 830
3 830 881 882
3 830 882 831
3 831 882 883
3 832 884 833
3 833 884 885
3 833 885 834
3 834 885 886
3 835 887 836
3 836 887 888
3 836 888 837
3 837 888 889
3 838 890 839
3 839 890 891
3 839 891 840
3 840 891 892
3 841 893 842
3 842 893 894
3 842 894 843
3 843 894 895
3 844 896 845
3 845 896 897
3 845 897 846
3 846 897 898
3 847 899 664
3 664 899 612
3 848 900 849
3 849 900 901
3 849 901 850
3 850 901 902
3 850 902 851
3 851 902 903
3 851 903 852
3 852 903 904
3 852 904 853
3 853 904 905
3 853 905 854
3 854 905 906
3 854 906 855
3 855 906 907
3 855 907 856
3 856 907 908
3 856 908 857
3 857 908 909
3 857 909 858
3 858 909 910
3 858 910 859
3 859 910 911
3 859 911 860
3 860 911 912
3 860 912 861
3 861 912 913
3 861 913 862
3 862 913 914
3 862 914 863
3 863 914 915
3 863 915 864
3 864 915 916
3 864 916 865
3 865 916 917
3 865 917 866
3 866 917 918
3 866 918 867
3 867 918 919
3 867 919 868
3 868 919 920
3 868 920 869
3 869 920 921
3 869 921 870
3 870 921 922
3 870 922 871
3 871 922 923
3 872 924 873
3 873 924 925
3 873 925 874
3 874 925 926
3 875 927 876
3 876 927 928
3 876 928 877
3 877 928 929
3 878 930 879
3 879 930 931
3 879 931 880
3 880 931 932
3 881 932 882
3 882 932 933
3 882 933 883
3 883 933 934
3 884 935 885
3 885 935 936
3 885 936 886
3 886 936 937
3 887 938 888
3 888 938 939
3 888 939 889
3 889 939 940
3 890 941 891
3 891 941 942
3 891 942 892
3 892 942 943
3 893 944 894
3 894 944 945
3 894 945 895
3 895 945 946
3 896 947 897
3 897 947 948
3 897 948 898
3 898 948 949
3 899 950 612
3 951 952 953
3 953 952 954
3 953 954 955
3 955 954 956
3 955 956 957
3 957 956 958
3 957 958 959
3 959 958 960
3 959 960 961
3 961 960 962
3 961 962 963
3 963 962 964
3 963 964 965
3 965 964 966
3 965 966 967
3 967 966 968
3 967 968 969
3 969 968 970
3 969 970 971
3 971 970 972
3 971 972 973
3 973 972 974
3 973 974 975
3 975 974 976
3 975 976 977
3 977 976 978
3 977 978 979
3 979 978 980
3 979 980 981
3 981 980 982
3 981 982 983
3 983 982 984
3 983 984 985
3 985 984 986
3 985 986 987
3 987 986 988
3 987 988 989
3 989 988 990
3 989 990 991
3 991 990 992
3 991 992 993
3 993 992 994
3 993 994 922
3 922 994 995
3 922 995 996
3 996 995 997
3 998 999 1000
3 1000 999 1001
3 1000 1001 1002
3 1002 1001 1003
3 1004 1005 1006
3 1006 1005 1007
3 1006 1007 1008
3 1008 1007 1009
3 1010 1011 1012
3 1012 1011 1013
3 1012 1013 1014
3 1014 1013 1015
3 1016 1015 1017
3 1017 1015 1018
3 1017 1018 1019
3 1019 1018 1020
3 1019 1021 1022
3 1022 1021 1023
3 1022 1023 1024
3 1024 1023 1025
3 937 1026 1027
3 1027 1026 1028
3 1027 1028 1029
3 1029 1028 1030
3 1029 1031 1032
3 1032 1031 1033
3 1032 1033 1034
3 1034 1033 1035
3 1036 1037 1038
3 1038 1037 1039
3 1038 1039 1040
3 1040 1039 1041
3 946 1042 1043
3 1043 1042 1044
3 1043 1044 1045
3 1045 1044 1046
3 1047 1048 1049
3 1049 1048 796
3 952 156 954
3 954 156 1050
3 954 1050 956
3 956 1050 1051
3 956 1051 958
3 958 1051 1052
3 958 1052 960
3 960 1052 1053
3 960 1053 962
3 962 1053 1054
3 962 1054 964
3 964 1054 1055
3 964 1055 966
3 966 1055 1056
3 966 1056 968
3 968 1056 1057
3 968 1057 970
3 970 1057 1058
3 970 1058 972
3 972 1058 1059
3 972 1059 974
3 974 1059 1060
3 974 1060 976
3 976 1060 1061
3 976 1061 978
3 978 1061 1062
3 978 1062 980
3 980 1062 1063
3 980 1063 982
3 982 1063 1064
3 982 1064 984
3 984 1064 1065
3 984 1065 986
3 986 1065 1066
3 986 1066 988
3 988 1066 1067
3 988 1067 990
3 990 1067 1068
3 990 1068 992
3 992 1068 1069
3 992 1069 994
3 994 1069 1070
3 994 1070 995
3 995 1070 1071
3 995 1071 997
3 997 1071 1072
3 999 1073 1001
3 1001 1073 1074
3 1001 1074 1003
3 1003 1074 1075
3 1005 1076 1007
3 1007 1076 1077
3 1007 1077 1009
3 1009 1077 1078
3 1011 1079 1013
3 1013 1079 1080
3 1013 1080 1015
3 1015 1080 1081
3 1015 1081 1018
3 1018 1081 1082
3 1018 1082 1020
3 1020 1082 1083
3 1021 1084 1023
3 1023 1084 1085
3 1023 1085 1025
3 1025 1085 1086
3 1026 1087 1028
3 1028 1087 1088
3 1028 1088 1030
3 1030 1088 1089
3 1031 1090 1033
3 1033 1090 1091
3 1033 1091 1035
3 1035 1091 1092
3 1037 1093 1039
3 1039 1093 1094
3 1039 1094 1041
3 1041 1094 1095
3 1042 1096 1044
3 1044 1096 1097
3 1044 1097 1046
3 1046 1097 1098
3 1048 1099 796
3 796 1099 102
3 156 510 1050
3 1050 510 1100
3 1050 1100 1051
3 1051 1100 1101
3 1051 1101 1052
3 1052 1101 1102
3 1052 1102 1053
3 1053 1102 1103
3 1053 1103 1054
3 1054 1103 1104
3 1054 1104 1055
3 1055 1104 1105
3 1055 1105 1056
3 1056 1105 1106
3 1056 1106 1057
3 1057 1106 1107
3 1057 1107 1058
3 1058 1107 1108
3 1058 1108 1059
3 1059 1108 1109
3 1059 1109 1060
3 1060 1109 1110
3 1060 1110 1061
3 1061 1110 1111
3 1061 1111 1062
3 1062 1111 1112
3 1062 1112 1063
3 1063 1112 1113
3 1063 1113 1064
3 1064 1113 1114
3 1064 1114 1065
3 1065 1114 1115
3 1065 1115 1066
3 1066 1115 1116
3 1066 1116 1067
3 1067 1116 1117
3 1067 1117 1068
3 1068 1117 1118
3 1068 1118 1069
3 1069 1118 1119
3 1069 1119 1070
3 1070 1119 1120
3 1070 1120 1071
3 1071 1120 1121
3 1071 1121 1072
3 1072 1121 1122
3 1073 1123 1074
3 1074 1123 1124
3 1074 1124 1075
3 1075 1124 1125
3 1076 1126 1077
3 1077 1126 1127
3 1077 1127 1078
3 1078 1127 1128
3 1079 1128 1080
3 1080 1128 1129
3 1080 1129 1081
3 1081 1129 1130
3 1081 1131 1082
3 1082 1131 1132
3 1082 1132 1083
3 1083 1132 1133
3 1084 1134 1085
3 1085 1134 1135
3 1085 1135 1086
3 1086 1135 1136
3 1087 1137 1088
3 1088 1137 1138
3 1088 1138 1089
3 1089 1138 1139
3 1090 1140 1091
3 1091 1140 1141
3 1091 1141 1092
3 1092 1141 1142
3 1093 1143 1094
3 1094 1143 1144
3 1094 1144 1095
3 1095 1144 1145
3 1096 1146 1097
3 1097 1146 1147
3 1097 1147 1098
3 1098 1147 1148
3 1099 1149 102
3 102 1149 664
3 510 848 1100
3 1100 848 1150
3 1100 1150 1101
3 1101 1150 1151
3 1101 1151 1102
3 1102 1151 1152
3 1102 1152 1103
3 1103 1152 1153
3 1103 1153 1104
3 1104 1153 1154
3 1104 1154 1105
3 1105 1154 1155
3 1105 1155 1106
3 1106 1155 1156
3 1106 1156 1107
3 1107 1156 1157
3 1107 1157 1108
3 1108 1157 1158
3 1108 1158 1109
3 1109 1158 1159
3 1109 1159 1110
3 1110 1159 1160
3 1110 1160 1111
3 1111 1160 1161
3 1111 1161 1112
3 1112 1161 1162
3 1112 1162 1113
3 1113 1162 1163
3 1113 1163 1114
3 1114 1163 1164
3 1114 1164 1115
3 1115 1164 1165
3 1115 1165 1116
3 1116 1165 1166
3 1116 1166 1117
3 1117 1166 1167
3 1117 1167 1118
3 1118 1167 1168
3 1118 1168 1119
3 1119 1168 1169
3 1119 1169 1120
3 1120 1169 1170
3 1120 1170 1121
3 1121 1170 1171
3 1121 1171 1122
3 1122 1171 1172
3 1123 1173 1124
3 1124 1173 1174
3 1124 1174 1125
3 1125 1174 1175
3 1126 1176 1127
3 1127 1176 1177
3 1127 1177 1128
3 1128 1177 1178
3 1128 1178 1129
3 1129 1178 1179
3 1129 1179 1130
3 1130 1179 1180
3 1131 1180 1132
3 1132 1180 1181
3 1132 1181 1133
3 1133 1181 1182
3 1134 1183 1135
3 1135 1183 1184
3 1135 1184 1136
3 1136 1184 1185
3 1137 1185 1138
3 1138 1185 1186
3 1138 1186 1139
3 1139 1186 1187
3 1140 1188 1141
3 1141 1188 1189
3 1141 1189 1142
3 1142 1189 1190
3 1143 1191 1144
3 1144 1191 1192
3 1144 1192 1145
3 1145 1192 1193
3 1146 1194 1147
3 1147 1194 1195
3 1147 1195 1148
3 1148 1195 1196
3 1149 1197 664
3 664 1197 102
3 848 1198 1150
3 1150 1198 1199
3 1150 1199 1151
3 1151 1199 1200
3 1151 1200 1152
3 1152 1200 1201
3 1152 1201 1153
3 1153 1201 1202
3 1153 1202 1154
3 1154 1202 1203
3 1154 1203 1155
3 1155 1203 1204
3 1155 1204 1156
3 1156 1204 1205
3 1156 1205 1157
3 1157 1205 1206
3 1157 1206 1158
3 1158 1206 1207
3 1158 1207 1159
3 1159 1207 1208
3 1159 1208 1160
3 1160 1208 1209
3 1160 1209 1161
3 1161 1209 1210
3 1161 1210 1162
3 1162 1210 1211
3 1162 1211 1163
3 1163 1211 1212
3 1163 1212 1164
3 1164 1212 1213
3 1164 1213 1165
3 1165 1213 1214
3 1165 1214 1166
3 1166 1214 1215
3 1166 1215 1167
3 1167 1215 1216
3 1167 1216 1168
3 1168 1216 1217
3 1168 1217 1169
3 1169 1217 1218
3 1169 1218 1170
3 1170 1218 1219
3 1170 1219 1171
3 1171 1219 1220
3 1171 1220 1172
3 1172 1220 1221
3 1173 1222 1174
3 1174 1222 1223
3 1174 1223 1175
3 1175 1223 1224
3 1176 1225 1177
3 1177 1225 1226
3 1177 1226 1178
3 1178 1226 1227
3 1178 1228 1179
3 1179 1228 1229
3 1179 1229 1180
3 1180 1229 1230
3 1180 1231 1181
3 1181 1231 1232
3 1181 1232 1182
3 1182 1232 1233
3 1183 1234 1184
3 1184 1234 1235
3 1184 1235 1185
3 1185 1235 1236
3 1185 1237 1186
3 1186 1237 1238
3 1186 1238 1187
3 1187 1238 1239
3 1188 1240 1189
3 1189 1240 1241
3 1189 1241 1190
3 1190 1241 1242
3 1191 1243 1192
3 1192 1243 1244
3 1192 1244 1193
3 1193 1244 1245
3 1194 1246 1195
3 1195 1246 1247
3 1195 1247 1196
3 1196 1247 1248
3 1197 1249 102
3 102 1249 1250
3 1198 714 1199
3 1199 714 1251
3 1199 1251 1200
3 1200 1251 1252
3 1200 1252 1201
3 1201 1252 1253
3 1201 1253 1202
3 1202 1253 1254
3 1202 1254 1203
3 1203 1254 1255
3 1203 1255 1204
3 1204 1255 1256
3 1204 1256 1205
3 1205 1256 1257
3 1205 1257 1206
3 1206 1257 1258
3 1206 1258 1207
3 1207 1258 1259
3 1207 1259 1208
3 1208 1259 1260
3 1208 1260 1209
3 1209 1260 1261
3 1209 1261 1210
3 1210 1261 1262
3 1210 1262 1211
3 1211 1262 1263
3 1211 1263 1212
3 1212 1263 1264
3 1212 1264 1213
3 1213 1264 1265
3 1213 1265 1214
3 1214 1265 1266
3 1214 1266 1215
3 1215 1266 1267
3 1215 1267 1216
3 1216 1267 1268
3 1216 1268 1217
3 1217 1268 1269
3 1217 1269 1218
3 1218 1269 1270
3 1218 1270 1219
3 1219 1270 1271
3 1219 1271 1220
3 1220 1271 1272
3 1220 1272 1221
3 1221 1272 1273
3 1222 1274 1223
3 1223 1274 1275
3 1223 1275 1224
3 1224 1275 1276
3 1225 1277 1226
3 1226 1277 1278
3 1226 1278 1227
3 1227 1278 1279
3 1228 1280 1229
3 1229 1280 1281
3 1229 1281 1230
3 1230 1281 1282
3 1231 1282 1232
3 1232 1282 1283
3 1232 1283 1233
3 1233 1283 1284
3 1234 1285 1235
3 1235 1285 1286
3 1235 1286 1236
3 1236 1286 1287
3 1237 1288 1238
3 1238 1288 1289
3 1238 1289 1239
3 1239 1289 1290
3 1240 1291 1241
3 1241 1291 1292
3 1241 1292 1242
3 1242 1292 1293
3 1243 1294 1244
3 1244 1294 1295
3 1244 1295 1245
3 1245 1295 1296
3 1246 1297 1247
3 1247 1297 1298
3 1247 1298 1248
3 1248 1298 1299
3 1249 1300 1250
3 1250 1300 1301
3 714 509 1302
3 1302 509 1303
3 1302 1303 1304
3 1304 1303 1305
3 1304 1305 1253
3 1253 1305 1306
3 1253 1306 1254
3 1254 1306 1307
3 1254 1307 1308
3 1308 1307 1309
3 1308 1309 1310
3 1310 1309 1311
3 1310 1311 1257
3 1257 1311 1312
3 1257 1312 1313
3 1313 1312 1314
3 1313 1314 1315
3 1315 1314 1316
3 1315 1316 1317
3 1317 1316 1318
3 1317 1318 1319
3 1319 1318 1320
3 1319 1320 1321
3 1321 1320 1322
3 1321 1322 1263
3 1263 1322 1323
3 1263 1323 1324
3 1324 1323 1325
3 1324 1325 1326
3 1326 1325 1327
3 1326 1327 1266
3 1266 1327 1328
3 1266 1328 1329
3 1329 1328 1330
3 1329 1330 1268
3 1268 1330 1331
3 1268 1331 1332
3 1332 1331 1333
3 1332 1333 1334
3 1334 1333 1335
3 1334 1335 1271
3 1271 1335 1336
3 1271 1336 1337
3 1337 1336 1338
3 1337 1338 1273
3 1273 1338 1339
3 1274 1339 1275
3 1275 1339 1340
3 1275 1340 1341
3 1341 1340 1342
3 1277 1343 1344
3 1344 1343 1345
3 1344 1345 1346
3 1346 1345 1347
3 1348 1349 1281
3 1281 1349 1350
3 1281 1350 1351
3 1351 1350 1352
3 1282 1352 1353
3 1353 1352 1354
3 1353 1354 1355
3 1355 1354 1356
3 1284 1356 1357
3 1357 1356 1358
3 1357 1358 1359
3 1359 1358 1360
3 1361 1362 1289
3 1289 1362 1363
3 1289 1363 1364
3 1364 1363 1365
3 1291 1366 1367
3 1367 1366 1368
3 1367 1368 1369
3 1369 1368 1370
3 1371 1372 1373
3 1373 1372 1374
3 1373 1374 1375
3 1375 1374 1376
3 1297 1377 1378
3 1378 1377 1379
3 1378 1379 1380
3 1380 1379 1381
3 1382 1383 796
3 796 1383 258
3 509 1 1303
3 1303 1 0
3 1303 0 1305
3 1305 0 3
3 1305 3 1306
3 1306 3 5
3 1306 5 1307
3 1307 5 7
3 1307 7 1309
3 1309 7 9
3 1309 9 1311
3 1311 9 11
3 1311 11 1312
3 1312 11 13
3 1312 13 1314
3 1314 13 15
3 1314 15 1316
3 1316 15 17
3 1316 17 1318
3 1318 17 19
3 1318 19 1320
3 1320 19 21
3 1320 21 1322
3 1322 21 23
3 1322 23 1323
3 1323 23 25
3 1323 25 1325
3 1325 25 27
3 1325 27 1327
3 1327 27 29
3 1327 29 1328
3 1328 29 31
3 1328 31 1330
3 1330 31 33
3 1330 33 1331
3 1331 33 35
3 1331 35 1333
3 1333 35 37
3 1333 37 1335
3 1335 37 39
3 1335 39 1336
3 1336 39 41
3 1336 41 1338
3 1338 41 43
3 1338 43 1339
3 1339 43 45
3 1339 47 1340
3 1340 47 49
3 1340 49 1342
3 1342 49 51
3 1343 53 1345
3 1345 53 55
3 1345 55 1347
3 1347 55 57
3 1349 57 1350
3 1350 57 60
3 1350 60 1352
3 1352 60 62
3 1352 64 1354
3 1354 64 66
3 1354 66 1356
3 1356 66 68
3 1356 70 1358
3 1358 70 72
3 1358 72 1360
3 1360 72 74
3 1362 76 1363
3 1363 76 78
3 1363 78 1365
3 1365 78 80
3 1366 82 1368
3 1368 82 84
3 1368 84 1370
3 1370 84 86
3 1372 88 1374
3 1374 88 90
3 1374 90 1376
3 1376 90 92
3 1377 94 1379
3 1379 94 96
3 1379 96 1381
3 1381 96 98
3 1383 100 258
3 258 100 102
