# vtk DataFile Version 2.0
File written by itkPolyDataMeshIO
ASCII
DATASET POLYDATA
POINTS 1378 float
10.823097 -12.320946 5.867569
10.823097 -12.320946 5.867568
6.124474 -13.346214 3.606458
6.547768 -14.870033 3.841742
4.036827 -14.931282 -0.563057
4.484474 -16.276558 -0.456053
2.484474 -16.080101 -4.876536
2.887169 -17.036705 -4.933482
0.518333 -16.56945 -9.21822
0.916542 -17.399254 -9.377418
-1.769218 -16.390999 -13.671343
-1.361687 -17.23841 -13.889469
-4.237175 -15.645729 -18.290953
-3.83326 -16.518501 -18.547318
-6.755592 -14.549599 -22.987165
-6.364662 -15.422966 -23.264297
-6.755562 -14.549599 -22.987164
-6.364647 -15.422966 -23.264297
-9.2089 -13.392128 -27.5758
-8.816399 -14.277626 -27.845901
-11.492409 -12.325249 -32.119408
-11.084099 -13.234032 -32.365147
-11.084084 -13.234032 -32.365147
-13.519127 -11.320625 -37.0153
-13.115639 -12.219383 -37.260254
-15.192055 -10.258553 -42.51748
-14.837578 -11.08474 -42.81057
-16.27555 -8.784798 -48.22037
-15.987404 -9.515633 -48.571873
-16.484154 -6.556984 -53.294422
-16.234917 -7.233009 -53.657143
-16.484169 -6.556999 -53.294415
-16.234932 -7.233055 -53.657135
-16.215431 -3.902382 -57.52623
-15.974907 -4.56237 -57.873165
-16.284111 -1.328255 -61.627193
-16.051018 -1.960945 -62.001686
-17.003181 1.038582 -65.838745
-16.78695 0.458031 -66.29422
-18.132088 3.486626 -69.87368
-17.933693 2.955986 -70.40301
-19.444023 6.206352 -73.53359
-19.255577 5.700096 -74.08573
-19.444023 6.206337 -73.533585
-19.255592 5.700081 -74.085724
-20.95359 9.029076 -77.00608
-20.763206 8.519157 -77.54837
-22.736473 11.712029 -80.60658
-22.531563 11.177528 -81.14086
-24.621803 14.324928 -84.48253
-24.40812 13.780861 -85.005516
-26.25106 17.157448 -88.6477
-26.065956 16.674995 -89.12547
-26.25106 17.157463 -88.647705
-26.065956 16.67501 -89.12549
-27.492027 20.334724 -93.0205
-27.367424 19.972298 -93.42583
-28.48928 23.728264 -97.35794
-28.406578 23.447578 -97.714775
-28.48928 23.72828 -97.35795
-28.406578 23.447594 -97.71479
-29.289848 27.177208 -101.45201
-29.206535 26.893837 -101.80692
-29.782692 30.638634 -105.357864
-29.683556 30.319145 -105.725136
-29.913979 34.161232 -109.150246
-29.805534 33.813774 -109.51992
-29.913994 34.161232 -109.15025
-29.80555 33.81376 -109.51993
-29.83062 37.852486 -112.68401
-29.718697 37.49018 -113.05195
-29.731453 41.784294 -115.76591
-29.616768 41.417076 -116.13931
-29.731438 41.784325 -115.76592
-29.616753 41.417107 -116.13933
-29.87922 45.836555 -118.48273
-29.763222 45.47425 -118.86734
-30.599556 49.782677 -121.05608
-30.488503 49.43772 -121.449394
-31.977943 53.432137 -123.65851
-31.876732 53.1112 -124.0528
-33.820107 56.713142 -126.470116
-33.724068 56.404533 -126.856705
-35.92437 59.609245 -129.6266
-35.821434 59.28939 -129.99643
-35.92437 59.609245 -129.62662
-35.821434 59.28939 -129.99644
-38.204506 62.130745 -133.06415
-38.088142 61.793083 -133.40541
-40.62742 64.35497 -136.63268
-40.49935 64.01415 -136.93509
-43.235725 66.45992 -140.34972
-43.08692 66.102165 -140.62544
-43.23574 66.45989 -140.34973
-43.086937 66.102135 -140.62546
-46.09475 68.666985 -144.32642
-45.895332 68.221825 -144.62071
-48.559654 71.12682 -148.55882
-48.338615 70.64623 -148.84827
-48.559654 71.126854 -148.55882
-48.338615 70.64626 -148.84828
-48.4401 73.78246 -152.63005
7.181053 -16.158226 3.940871
5.147133 -17.398842 -0.478543
3.476952 -17.816383 -5.095114
1.498604 -18.063103 -9.636738
-0.760887 -17.914589 -14.208844
-3.227547 -17.219078 -18.897135
-5.767479 -16.129677 -23.620537
-5.767464 -16.129646 -23.620535
-8.21357 -14.998192 -28.18754
-10.461342 -13.975365 -32.681904
-10.461327 -13.975365 -32.681904
-12.496498 -12.956215 -37.56462
-14.271416 -11.770775 -43.12887
-15.49511 -10.133904 -48.90942
-15.789711 -7.812538 -53.98955
-15.789726 -7.812553 -53.98954
-15.544334 -5.12838 -58.195473
-15.630028 -2.49897 -62.357944
-16.382347 -0.02784 -66.731186
-17.547935 2.521751 -70.91429
-18.884636 5.295677 -74.62669
-18.884636 5.295677 -74.626686
-20.394936 8.119576 -78.08992
-22.14814 10.762657 -81.68268
-24.01609 13.358711 -85.53801
-25.717125 16.298317 -89.6056
-25.717125 16.298332 -89.605606
-27.10624 19.684303 -93.818855
-28.2062 23.21624 -98.044685
-28.2062 23.216255 -98.04469
-29.006493 26.65171 -102.12543
-29.462502 30.039513 -106.05144
-29.572945 33.50358 -109.84817
-29.57296 33.50358 -109.848175
-29.482689 37.162453 -113.38095
-29.377586 41.08471 -116.47808
-29.377571 41.08474 -116.4781
-29.52227 45.15081 -119.22288
-30.253807 49.138847 -121.820145
-31.655357 52.84571 -124.43165
-31.655357 52.84574 -124.43166
-33.511665 56.161995 -127.235504
-35.6054 59.046104 -130.36617
-35.6054 59.04609 -130.36618
-37.865288 61.53994 -133.75342
-40.278038 63.762062 -137.24884
-42.85398 65.83904 -140.91275
-42.85398 65.83901 -140.91277
-45.598106 67.8883 -144.91974
-48.01037 70.27807 -149.13284
-48.01037 70.27807 -149.13286
-48.4401 73.78246 -152.63004
10.823097 -12.320961 5.867569
8.009438 -16.87075 3.748363
6.003517 -18.053062 -0.731107
4.229301 -18.310616 -5.388546
2.237419 -18.51049 -9.989078
0.004646 -18.378319 -14.613366
-2.448738 -17.704002 -19.32273
-4.992226 -16.625603 -24.037458
-4.99221 -16.625572 -24.037458
-7.428337 -15.508766 -28.5833
-9.652397 -14.503059 -33.05405
-9.652382 -14.503059 -33.05405
-11.690651 -13.48481 -37.912872
-13.523186 -12.272026 -43.453648
-14.829155 -10.597115 -49.21026
-15.179802 -8.253807 -54.267696
-15.179817 -8.253838 -54.267685
-14.955482 -5.559013 -58.46941
-15.05265 -2.902718 -62.669697
-15.819633 -0.383186 -67.11737
-17.003654 2.215904 -71.369865
-18.358788 5.022789 -75.11676
-18.358803 5.022774 -75.116745
-19.876213 7.859764 -78.59076
-21.615196 10.49865 -82.191315
-23.475563 13.090614 -86.03964
-25.23037 16.054909 -90.05325
-25.230354 16.054924 -90.05326
-26.726082 19.489067 -94.1748
-27.899971 23.046303 -98.33021
-27.899956 23.046288 -98.330215
-28.701363 26.463127 -102.391174
-29.132896 29.814888 -106.31921
-29.230324 33.247658 -110.11703
-29.23034 33.247658 -110.117035
-29.136742 36.887093 -113.65318
-29.02813 40.805214 -116.763954
-29.028114 40.805244 -116.76397
-29.170586 44.883675 -119.530106
-29.909279 48.902046 -122.148125
-31.326881 52.64988 -124.77437
-31.326897 52.649895 -124.774376
-33.195442 55.9983 -127.58571
-35.288857 58.89199 -130.71545
-35.288857 58.892006 -130.71547
-37.54882 61.384254 -134.089
-39.97599 63.6112 -137.55678
-42.54975 65.68337 -141.19612
-45.21929 67.682335 -145.20766
-47.592842 70.03991 -149.39761
-47.592857 70.03994 -149.39763
10.823112 -12.320946 5.867569
8.920052 -17.131813 3.397865
6.94088 -18.308952 -1.10777
5.04908 -18.521492 -5.750938
3.041481 -18.711708 -10.385761
0.840446 -18.591164 -15.05278
-1.592842 -17.932777 -19.77214
-4.134544 -16.868385 -24.465248
-4.134529 -16.868385 -24.465248
-6.558754 -15.764641 -28.985895
-8.759666 -14.770149 -33.436543
-8.759651 -14.770164 -33.43654
-10.798195 -13.758339 -38.263878
-12.67852 -12.545662 -43.750736
-14.05526 -10.86805 -49.448162
-14.4571 -8.52346 -54.47054
-14.457115 -8.523476 -54.470528
-14.254829 -5.822624 -58.674862
-14.363441 -3.142937 -62.913807
-15.142326 -0.582451 -67.42413
-16.343208 2.060402 -71.73583
-17.719215 4.901024 -75.51926
-17.71923 4.900993 -75.51925
-19.247581 7.758308 -79.013275
-20.973717 10.404106 -82.62889
-22.827965 12.995506 -86.473145
-24.644646 15.962929 -90.43354
-24.644646 15.962959 -90.433556
-26.260674 19.403145 -94.46249
-27.518059 22.953987 -98.54343
-27.518059 22.954018 -98.543434
-28.321526 26.34623 -102.57801
-28.726494 29.666298 -106.50301
-28.810448 33.070015 -110.301186
-28.810463 33.07 -110.301186
-28.714104 36.69021 -113.84275
-28.602196 40.60517 -116.9696
-28.60218 40.605186 -116.96961
-28.74221 44.698326 -119.7596
-29.488274 48.7499 -122.40187
-30.92315 52.542336 -125.047874
-30.92315 52.542366 -125.04789
-32.805946 55.92907 -127.8734
-34.90229 58.841576 -131.01048
-34.90229 58.84159 -131.0105
-37.169 61.34037 -134.37987
-39.621834 63.575066 -137.82959
-42.202477 65.648125 -141.44904
-44.793053 67.61959 -145.45856
-47.122948 69.94906 -149.61966
-47.122963 69.94906 -149.61967
9.860313 -17.114601 3.011971
7.908974 -18.27813 -1.519259
5.896248 -18.479149 -6.140728
3.873711 -18.66018 -10.804385
1.708473 -18.538109 -15.506778
-0.698952 -17.88958 -20.224215
-3.233604 -16.841103 -24.883726
-3.233589 -16.841103 -24.883726
-5.643669 -15.748238 -29.376497
-7.821968 -14.7584 -33.811768
-7.821968 -14.758385 -33.811768
-9.859398 -13.758217 -38.60101
-11.781151 -12.573082 -44.004253
-13.22126 -10.9282 -49.607807
-13.672264 -8.602837 -54.583317
-13.672279 -8.602852 -54.583305
-13.494133 -5.900719 -58.796776
-13.614098 -3.202705 -63.072655
-14.401176 -0.611641 -67.62929
-15.615974 2.065971 -71.9856
-17.013573 4.938515 -75.80487
-17.013588 4.938499 -75.80487
-18.55587 7.8218 -79.32668
-20.271812 10.485085 -82.96334
-22.121956 13.079506 -86.80664
-24.003044 16.028221 -90.71907
-24.003044 16.028236 -90.719086
-25.7425 19.431725 -94.66241
-27.085426 22.944572 -98.67117
-27.085411 22.944572 -98.67118
-27.89132 26.307457 -102.674995
-28.269737 29.601906 -106.5922
-28.340752 32.980583 -110.39
-28.340767 32.980583 -110.39
-28.242409 36.58309 -113.93862
-28.127617 40.496254 -117.08281
-28.127602 40.496284 -117.082825
-28.265236 44.605583 -119.89743
-29.018562 48.691307 -122.5656
-30.470787 52.529243 -125.23483
-30.470787 52.52926 -125.23484
-32.36895 55.957924 -128.0801
-34.471123 58.897026 -131.23225
-34.471138 58.897026 -131.23227
-36.75054 61.409554 -134.60744
-39.238228 63.653847 -138.05008
-41.833565 65.73211 -141.65623
-41.83358 65.73214 -141.65623
-44.344322 67.69802 -145.6586
-46.627403 70.0035 -149.78795
-46.62742 70.00347 -149.78795
-48.4401 73.78249 -152.63005
9.860313 -17.114586 3.011971
10.785667 -16.833656 2.613117
7.908974 -18.278114 -1.519259
8.862053 -17.973824 -1.943094
5.896248 -18.479134 -6.140728
6.730965 -18.193504 -6.538302
3.873711 -18.660164 -10.804386
4.695061 -18.364891 -11.224921
2.567802 -18.22828 -15.954073
0.1903 -17.583107 -20.658
-3.23362 -16.841103 -24.883728
-2.332619 -16.551613 -25.273764
-3.233604 -16.841103 -24.883728
-2.332588 -16.551582 -25.273764
-4.726311 -15.467186 -29.737541
-7.821953 -14.758415 -33.81177
-6.882545 -14.475731 -34.163013
-7.821953 -14.7584 -33.81177
-6.882545 -14.475716 -34.163013
-9.859398 -13.758232 -38.601017
-8.918861 -13.491417 -38.90907
-11.781151 -12.573082 -44.004257
-10.87896 -12.357826 -44.20216
-13.22126 -10.9282 -49.60781
-12.378975 -10.776711 -49.680557
-12.879448 -8.488152 -54.598766
-13.672279 -8.602852 -54.5833
-12.879463 -8.488182 -54.598755
-13.494133 -5.900719 -58.79678
-12.728142 -5.788979 -58.826794
-13.614098 -3.20269 -63.072655
-12.859138 -3.078697 -63.135338
-14.401161 -0.611641 -67.62929
-13.65023 -0.469597 -67.7187
-15.615959 2.065971 -71.9856
-14.874748 2.231255 -72.10195
-16.292946 5.131599 -75.95387
-16.292946 5.131599 -75.953865
-18.555855 7.8218 -79.32668
-17.851265 8.044746 -79.509125
-19.560875 10.7351 -83.1708
-21.40934 13.335945 -87.01614
-23.351326 16.24479 -90.89066
-24.003029 16.028252 -90.719086
-23.351326 16.24479 -90.89067
-25.74247 19.431725 -94.66241
-25.20565 19.569939 -94.76441
-27.085396 22.944572 -98.67117
-26.627983 23.014442 -98.71066
-27.085396 22.944588 -98.67119
-26.627983 23.014473 -98.71068
-27.891304 26.307472 -102.675
-27.436073 26.344444 -102.68199
-28.269722 29.601906 -106.59221
-27.78997 29.620583 -106.58693
-28.340752 32.980583 -110.39001
-27.84948 32.97947 -110.38361
-28.340767 32.980583 -110.39001
-27.84951 32.979454 -110.38362
-28.242424 36.583122 -113.93862
-27.749855 36.56681 -113.94059
-28.127617 40.49627 -117.08281
-27.632698 40.479637 -117.10226
-28.127602 40.4963 -117.08283
-27.632698 40.479668 -117.10227
-28.26522 44.605614 -119.89744
-27.768257 44.605873 -119.94054
-29.018547 48.691307 -122.565605
-28.528511 48.724953 -122.6344
-30.470787 52.52926 -125.23483
-29.997337 52.60694 -125.328606
-30.470787 52.529274 -125.23485
-29.997353 52.60694 -125.32861
-32.368935 55.957924 -128.0801
-31.911018 56.078743 -128.1977
-34.021385 59.05018 -131.37152
-34.02137 59.050194 -131.37154
-36.750557 61.409554 -134.60744
-36.31823 61.582283 -134.76181
-39.238228 63.653862 -138.05006
-38.84719 63.83683 -138.20851
-41.463234 65.92318 -141.80894
-41.46325 65.92318 -141.80893
-43.896843 67.902916 -145.80048
-46.627403 70.00347 -149.78795
-46.132057 70.18865 -149.89757
-48.440117 73.78246 -152.63004
-48.4401 73.78249 -152.63007
11.578468 -16.310738 2.25075
9.678963 -17.420158 -2.326696
7.447029 -17.687828 -6.894196
5.400932 -17.850273 -11.594691
3.309258 -17.687279 -16.338194
0.96273 -17.038445 -21.018211
-1.544792 -16.023155 -25.585022
-1.544777 -16.023125 -25.58502
-3.923378 -14.943672 -30.021894
-6.063072 -13.944267 -34.444244
-6.063042 -13.944252 -34.444244
-8.095543 -12.978539 -39.14776
-10.074898 -11.916145 -44.31877
-11.609261 -10.424553 -49.657597
-12.143379 -8.18763 -54.51629
-12.143394 -8.18766 -54.516277
-12.014412 -5.495766 -58.76333
-12.153938 -2.780556 -63.097248
-12.944496 -0.16729 -67.68579
-14.174294 2.543694 -72.0765
-15.610893 5.465797 -75.95548
-15.610909 5.465782 -75.955475
-17.185997 8.410393 -79.54738
-18.892845 11.135002 -83.2367
-20.741951 13.745033 -87.0872
-22.739021 16.596428 -90.935104
-22.739021 16.596443 -90.93513
-24.695305 19.808846 -94.75733
-26.187737 23.160896 -98.653496
-26.99775 26.457146 -102.5935
-27.33033 29.723793 -106.48374
-27.380516 33.07009 -110.278984
-27.380516 33.07006 -110.27899
-27.280724 36.646385 -113.844635
-27.16224 40.560753 -117.022
-27.162224 40.56077 -117.02202
-27.296303 44.703316 -119.88053
-28.062508 48.851967 -122.597305
-29.545708 52.7725 -125.31582
-29.545708 52.772514 -125.315834
-31.473717 56.284843 -128.21065
-33.59388 59.291664 -131.41106
-33.593895 59.29168 -131.41106
-35.911354 61.84739 -134.82494
-38.48426 64.1115 -138.28722
-41.125145 66.20779 -141.89062
-41.125145 66.20779 -141.89064
-43.491142 68.220055 -145.86876
-45.681908 70.4923 -149.93608
-45.681923 70.4923 -149.9361
10.823082 -12.320961 5.867569
12.211617 -15.57589 1.936339
10.331749 -16.649376 -2.657608
8.019981 -16.991997 -7.196544
5.967247 -17.14698 -11.901418
3.907341 -16.947594 -16.646719
1.591194 -16.288872 -21.29373
-0.898232 -15.288918 -25.808468
-0.898216 -15.288902 -25.808468
-3.262672 -14.211174 -30.221447
-5.390541 -13.198235 -34.647144
-5.390526 -13.198235 -34.64714
-7.41848 -12.253059 -39.310257
-9.404671 -11.277733 -44.352173
-10.956032 -9.896599 -49.54254
-11.513145 -7.72332 -54.341553
-11.513161 -7.723351 -54.341537
-11.403633 -5.042732 -58.610783
-11.5494 -2.330132 -62.961456
-12.334953 0.273216 -67.53331
-13.564919 2.980507 -71.91138
-15.016304 5.916634 -75.80984
-15.016319 5.916618 -75.80982
-16.607841 8.891914 -79.438934
-18.31594 11.655678 -83.1564
-20.167946 14.276985 -87.01474
-22.209496 17.057213 -90.84996
-22.20948 17.057228 -90.849976
-24.246025 20.130074 -94.64375
-25.793251 23.371452 -98.50678
-25.793266 23.371468 -98.5068
-26.604622 26.635155 -102.41905
-26.920738 29.901527 -106.29304
-26.964333 33.24302 -110.086555
-26.964348 33.24302 -110.086555
-26.865425 36.812996 -113.660706
-26.746666 40.730568 -116.85098
-26.74665 40.7306 -116.851
-26.879951 44.88804 -119.72501
-27.65078 49.060875 -122.46033
-29.14524 53.012123 -125.20077
-29.145256 53.012123 -125.200775
-31.085548 56.559685 -128.12144
-33.2165 59.60244 -131.3513
-33.216515 59.602455 -131.3513
-35.55636 62.18415 -134.79544
-38.172874 64.45663 -138.28346
-40.840935 66.56396 -141.89803
-40.84095 66.56396 -141.89804
-43.15348 68.625175 -145.8609
-45.306328 70.89138 -149.90271
-45.306343 70.89138 -149.90271
10.823112 -12.32093 5.867569
10.823128 -12.32093 5.867569
12.211647 -15.575874 1.936339
12.63604 -14.663094 1.690329
10.331779 -16.64936 -2.657609
10.769737 -15.698326 -2.913613
8.019997 -16.991982 -7.196545
8.405266 -16.140602 -7.42409
5.967247 -17.146935 -11.901419
6.349998 -16.290764 -12.122622
3.907356 -16.947578 -16.646723
4.315804 -16.047234 -16.856222
1.591194 -16.288857 -21.293732
2.027367 -15.373238 -21.462715
-0.898216 -15.288918 -25.808472
-0.442421 -14.387108 -25.925388
-0.898201 -15.288887 -25.808472
-0.442406 -14.387077 -25.925386
-3.262642 -14.211159 -30.221449
-2.794701 -13.30761 -30.31897
-5.390511 -13.198204 -34.64715
-4.916512 -12.275963 -34.754333
-5.390495 -13.198219 -34.64714
-4.916512 -12.275948 -34.75433
-7.418465 -12.253044 -39.310257
-6.939445 -11.352791 -39.382244
-9.404671 -11.277733 -44.352177
-8.918739 -10.478035 -44.297455
-10.956032 -9.896584 -49.54255
-10.467537 -9.22538 -49.341362
-11.51313 -7.723305 -54.341557
-11.034721 -7.126457 -54.085453
-11.513161 -7.72332 -54.34155
-11.034737 -7.126472 -54.08544
-11.403603 -5.042717 -58.61079
-10.940224 -4.46125 -58.37932
-11.549385 -2.330101 -62.96146
-11.089546 -1.758797 -62.737343
-12.334953 0.273232 -67.53332
-11.86602 0.821098 -67.27177
-13.564919 2.980522 -71.91138
-13.091011 3.511055 -71.617714
-15.016289 5.916664 -75.809845
-14.552223 6.452568 -75.52658
-15.016304 5.916649 -75.80983
-14.552223 6.452553 -75.526566
-16.607826 8.891945 -79.43894
-16.158623 9.455605 -79.19088
-18.315926 11.655693 -83.15641
-17.872353 12.260139 -82.93522
-20.16793 14.277016 -87.01475
-19.7295 14.893867 -86.80365
-22.20948 17.057228 -90.84997
-21.80001 17.595161 -90.64057
-22.20945 17.057243 -90.84998
-21.800026 17.595177 -90.64058
-24.245995 20.130089 -94.64377
-23.886131 20.513329 -94.4301
-25.793236 23.371483 -98.50679
-25.466743 23.635094 -98.278404
-25.793251 23.371483 -98.506805
-25.466743 23.635078 -98.278404
-26.604622 26.63517 -102.41906
-26.278679 26.869667 -102.1679
-26.920723 29.901543 -106.293045
-26.584877 30.144463 -106.024956
-26.964317 33.243034 -110.08656
-26.625313 33.489098 -109.81662
-26.964333 33.243034 -110.08656
-26.625328 33.489082 -109.81663
-26.86541 36.81301 -113.66071
-26.528084 37.057915 -113.39858
-26.74665 40.730614 -116.85099
-26.410088 40.980385 -116.59813
-26.746635 40.73063 -116.851006
-26.410072 40.980415 -116.598145
-26.879921 44.88807 -119.72503
-26.54345 45.150337 -119.48193
-27.650764 49.06089 -122.46035
-27.317436 49.340416 -122.230446
-29.145226 53.012123 -125.20078
-28.819374 53.312782 -124.98931
-29.14524 53.01214 -125.20079
-28.81939 53.312798 -124.98931
-31.085518 56.5597 -128.12146
-30.769096 56.888344 -127.93454
-33.216484 59.60247 -131.35132
-32.911278 59.965706 -131.1951
-33.2165 59.602486 -131.35132
-32.911293 59.96572 -131.19511
-35.556343 62.184166 -134.79546
-35.27413 62.574516 -134.67435
-38.172844 64.45666 -138.28348
-37.931664 64.853935 -138.19664
-40.84092 66.56396 -141.89804
-40.62812 66.97344 -141.82965
-40.840935 66.56399 -141.89806
-43.15345 68.625175 -145.86092
-42.90502 69.09814 -145.77588
-45.306313 70.89141 -149.90273
-45.028954 71.3666 -149.79762
-45.02897 71.36657 -149.79762
-48.4401 73.78246 -152.63007
-48.440086 73.78249 -152.63007
12.81176 -13.685051 1.536049
10.951607 -14.685295 -3.070021
8.566399 -15.240471 -7.554677
6.512703 -15.389793 -12.237062
4.495323 -15.100212 -16.947304
2.228951 -14.407509 -21.510637
-0.221977 -13.432426 -25.92714
-0.221962 -13.432411 -25.927137
-2.565956 -12.349709 -30.308187
-4.688606 -11.298378 -34.758667
-4.688591 -11.298378 -34.758667
-6.705742 -10.393608 -39.359596
-8.662453 -9.611198 -44.161892
-10.185875 -8.476967 -49.07412
-10.746651 -6.445473 -53.77118
-10.746666 -6.445503 -53.77117
-10.659996 -3.794945 -58.087337
-10.809258 -1.108864 -62.440723
-11.573082 1.43586 -66.91955
-12.788536 4.095985 -71.21682
-14.254311 7.033577 -75.126495
-14.254326 7.033562 -75.126495
-15.872734 10.059425 -78.821205
-17.59504 12.903954 -82.58872
-19.458824 15.550423 -86.46875
-21.543968 18.168877 -90.322876
-21.543968 18.168892 -90.32289
-23.651588 20.92501 -94.13493
-25.246147 23.924889 -97.98988
-25.246162 23.924889 -97.9899
-26.058357 27.136757 -101.863914
-26.361061 30.429558 -105.70476
-26.401741 33.78553 -109.49453
-26.307106 37.35833 -113.082924
-26.191002 41.28663 -116.287224
-26.190971 41.28666 -116.28724
-26.325264 45.46537 -119.17399
-27.100365 49.66375 -121.92883
-28.605125 53.64498 -124.700615
-28.605125 53.64498 -124.70062
-30.56086 57.238655 -127.66629
-32.714592 60.347267 -130.95491
-32.714592 60.347282 -130.95491
-35.099678 62.98313 -134.46982
-37.791374 65.26763 -138.03139
-40.51394 67.39843 -141.68872
-40.513954 67.39843 -141.68874
-42.777016 69.594475 -145.61876
-44.884132 71.8731 -149.62833
-44.884132 71.8731 -149.62834
-48.440086 73.78246 -152.63007
12.726921 -12.647942 1.47709
10.865028 -13.617744 -3.12245
8.492561 -14.29937 -7.583625
6.444756 -14.452431 -12.239454
4.4347 -14.115791 -16.914442
2.183968 -13.401878 -21.432537
-0.249245 -12.435173 -25.8096
-0.249229 -12.435158 -25.8096
-2.588631 -11.346153 -30.184715
-4.718681 -10.272316 -34.654846
-4.718666 -10.272316 -34.654842
-6.730034 -9.385078 -39.23888
-8.651192 -8.697151 -43.94881
-10.129829 -7.685005 -48.752598
-10.669777 -5.723854 -53.415714
-10.669792 -5.723869 -53.415707
-10.584465 -3.090797 -57.753757
-10.730629 -0.426949 -62.093117
-11.479286 2.073219 -66.50222
-12.681068 4.693245 -70.73698
-14.145409 7.617989 -74.63739
-14.145424 7.617989 -74.637375
-15.772255 10.659752 -78.35565
-17.506187 13.53994 -82.141495
-19.377892 16.198357 -86.0339
-21.45974 18.73806 -89.91815
-21.45974 18.73806 -89.91817
-23.554451 21.340538 -93.77523
-25.13926 24.228004 -97.65532
-25.13926 24.228004 -97.65533
-25.951408 27.425545 -101.521164
-26.258293 30.744057 -105.34725
-26.30291 34.11866 -109.13518
-26.302925 34.118645 -109.135185
-26.211464 37.70051 -112.728325
-26.09803 41.635323 -115.932785
-26.098015 41.635353 -115.9328
-26.23391 45.818596 -118.815834
-27.008049 50.015694 -121.5703
-28.511559 53.994377 -124.34878
-28.511559 53.994392 -124.348785
-30.473503 57.60186 -127.327156
-32.646294 60.749336 -130.6341
-32.646294 60.749336 -130.63411
-35.058342 63.42138 -134.17851
-37.77482 65.70718 -137.78326
-40.51287 67.83633 -141.475
-40.512886 67.83633 -141.47502
-42.77793 70.09792 -145.3948
-44.878212 72.38973 -149.40254
-44.878227 72.38973 -149.40254
12.389046 -11.645638 1.518535
10.517738 -12.592567 -3.06629
8.190331 -13.402962 -7.50829
6.44474 -14.452431 -12.239454
6.152092 -13.564217 -12.129462
4.434685 -14.115791 -16.914442
4.139229 -13.183891 -16.760403
1.89637 -12.44799 -21.235218
-0.249245 -12.435188 -25.8096
-0.521889 -11.486259 -25.583147
-0.521858 -11.486229 -25.583145
-2.588631 -11.346153 -30.184717
-2.860741 -10.388832 -29.959673
-4.718681 -10.272316 -34.65485
-5.004021 -9.292213 -34.452522
-4.718666 -10.272331 -34.654846
-5.004005 -9.292198 -34.452522
-6.730034 -9.385094 -39.23888
-7.010246 -8.419151 -39.031013
-8.651176 -8.697151 -43.94881
-8.886192 -7.816154 -43.67621
-10.129829 -7.68499 -48.752598
-10.304878 -6.914574 -48.402935
-10.669777 -5.723854 -53.41571
-10.811668 -5.017311 -53.047134
-10.669792 -5.723869 -53.415703
-10.811668 -5.017342 -53.047123
-10.584465 -3.090782 -57.753757
-10.721092 -2.402 -57.40402
-10.86129 0.235603 -61.72036
-11.479271 2.073219 -66.50222
-11.593315 2.685204 -66.050735
-12.778297 5.257698 -70.213875
-14.235329 8.161537 -74.09562
-14.235344 8.161522 -74.095604
-15.866325 11.211143 -77.82872
-17.614098 14.119942 -81.62653
-19.377892 16.198357 -86.033905
-19.494347 16.788643 -85.53111
-21.555183 19.259682 -89.4563
-21.555168 19.259697 -89.45631
-23.603569 21.728523 -93.377686
-25.13926 24.22799 -97.65532
-25.155785 24.521767 -97.29951
-25.139275 24.228004 -97.65533
-25.155785 24.521782 -97.29952
-25.951439 27.42553 -101.521164
-25.967766 27.714958 -101.16477
-26.258308 30.744057 -105.34726
-26.286415 31.065468 -104.978355
-26.30291 34.11866 -109.135185
-26.338417 34.464714 -108.764496
-26.302925 34.11866 -109.135185
-26.338417 34.4647 -108.764496
-26.211449 37.70051 -112.728325
-26.250435 38.0599 -112.36036
-26.098015 41.635338 -115.93279
-26.140205 42.00126 -115.56051
-26.098015 41.635353 -115.93281
-26.14019 42.001274 -115.560524
-26.23391 45.818596 -118.81584
-26.27813 46.18412 -118.43363
-27.049202 50.370277 -121.18117
-28.511574 53.994377 -124.34878
-28.547066 54.334373 -123.960045
-28.511574 53.994392 -124.34879
-28.547066 54.334373 -123.96006
-30.473518 57.601845 -127.327156
-30.512825 57.946724 -126.9441
-32.646294 60.74932 -130.63411
-32.706535 61.130898 -130.26138
-32.70655 61.130913 -130.2614
-35.058342 63.42138 -134.17853
-35.1448 63.84002 -133.82954
-37.774803 65.707146 -137.78326
-37.875557 66.124596 -137.47733
-40.62159 68.24624 -141.20767
-40.62159 68.24621 -141.20767
-42.908318 70.56884 -145.12112
-45.01374 72.87801 -149.13655
-45.013756 72.87801 -149.13657
-48.440086 73.78249 -152.63005
10.823097 -12.32093 5.867569
11.824913 -10.785957 1.66046
9.937294 -11.720055 -2.902877
7.683601 -12.647774 -7.332422
5.657784 -12.820885 -11.914334
3.631905 -12.404671 -16.496819
1.388115 -11.648003 -20.934904
-1.019539 -10.686836 -25.267452
-1.019524 -10.686821 -25.267452
-3.362206 -9.580345 -29.653238
-5.523537 -8.463783 -34.170067
-7.525658 -7.598503 -38.754753
-9.350517 -7.056358 -43.36831
-10.698967 -6.23481 -48.055565
-11.162651 -4.383247 -52.696346
-11.162666 -4.383263 -52.696335
-11.060387 -1.782326 -57.065918
-11.191948 0.827461 -61.35096
-11.907173 3.224327 -65.5996
-13.073616 5.745491 -69.68785
-14.518105 8.62188 -73.54312
-14.518105 8.621864 -73.54312
-16.148598 11.670723 -77.28104
-17.911064 14.599297 -81.083046
-19.799828 17.276085 -84.99845
-21.82447 19.692741 -88.97322
-21.82447 19.692772 -88.97323
-23.798439 22.056007 -92.97539
-25.299034 24.779137 -96.95387
-25.299034 24.779152 -96.95387
-26.110939 27.97866 -100.826385
-26.447838 31.3657 -104.63036
-26.510109 34.79389 -108.414764
-26.51014 34.793877 -108.414764
-26.425575 38.405373 -112.0112
-26.318764 42.35235 -115.202965
-26.318748 42.35238 -115.20298
-26.458763 46.529472 -118.0609
-27.224602 50.695366 -120.79568
-28.710777 54.630486 -123.56996
-28.710777 54.6305 -123.56997
-30.668938 58.22419 -126.55837
-32.86712 61.413017 -129.88928
-32.867104 61.413033 -129.88928
-35.314995 64.135185 -133.48315
-38.051125 66.42129 -137.16753
-40.813087 68.55645 -140.92482
-40.813103 68.55648 -140.92485
-43.154366 70.952934 -144.82562
-45.282555 73.29128 -148.85368
-45.28257 73.29131 -148.85368
11.067146 -10.109825 1.896023
9.157249 -11.040657 -2.640657
7.001778 -12.067604 -7.065691
4.990578 -12.254845 -11.606122
2.942406 -11.811897 -16.138405
0.689217 -11.0364 -20.548143
-1.712517 -10.071114 -24.879696
-1.712517 -10.071083 -24.879694
-4.063271 -8.954033 -29.281792
-6.246712 -7.820091 -33.82227
-8.245506 -6.957329 -38.424957
-10.014732 -6.455223 -43.04316
-11.284523 -5.687721 -47.732677
-11.696327 -3.867134 -52.387505
-11.696342 -3.867149 -52.387497
-11.576149 -1.278526 -56.76438
-11.697105 1.30349 -61.01319
-12.396599 3.649559 -65.18339
-13.544151 6.119591 -69.19899
-14.971825 8.964195 -73.02183
-14.97184 8.964165 -73.02182
-16.597252 12.0037 -76.754196
-18.374321 14.941551 -80.55261
-20.271065 17.623589 -84.47667
-22.246773 20.005241 -88.50488
-22.246758 20.005257 -88.5049
-24.123055 22.300941 -92.59619
-25.556328 24.984627 -96.64047
-25.556328 24.984612 -96.64049
-26.368294 28.200752 -100.52717
-26.728767 31.625893 -104.32528
-26.803505 35.08529 -108.10816
-26.80352 35.08529 -108.10817
-26.72216 38.714973 -111.702934
-26.61863 42.66622 -114.882965
-26.61863 42.666252 -114.88298
-26.760628 46.832573 -117.72173
-27.519356 50.970024 -120.4391
-28.988564 54.863884 -123.204315
-28.988548 54.863884 -123.20432
-30.928413 58.417336 -126.195496
-33.114906 61.579567 -129.54216
-33.114906 61.579582 -129.54216
-35.555916 64.29098 -133.1617
-38.288383 66.58114 -136.87398
-41.072884 68.74923 -140.64537
-41.0729 68.7492 -140.64539
-43.49694 71.22692 -144.5284
-45.66337 73.603905 -148.57315
-45.663383 73.603874 -148.57317
10.176338 -9.682518 2.210145
8.239998 -10.618904 -2.297503
6.199455 -11.716362 -6.727653
4.203941 -11.9179 -11.228441
2.126015 -11.459297 -15.713104
-0.144325 -10.668068 -20.105537
-2.545372 -9.693611 -24.450977
-2.545357 -9.693596 -24.450975
-4.907692 -8.565132 -28.87542
-7.115425 -7.41787 -33.437565
-7.11541 -7.41787 -33.437565
-9.112099 -6.551598 -38.068592
-10.825935 -6.063469 -42.727043
-12.015572 -5.316826 -47.45991
-12.371208 -3.508247 -52.144638
-12.371223 -3.508247 -52.144627
-12.228432 -0.9282 -56.52233
-12.337608 1.628349 -60.732437
-13.023643 3.929237 -64.833405
-14.153419 6.352196 -68.78409
-15.561287 9.163124 -72.571
-15.561287 9.163109 -72.570984
-17.177498 12.1856 -76.28791
-18.96798 15.12159 -80.07529
-20.871498 17.805717 -84.00519
-22.789482 20.174538 -88.08631
-22.789497 20.174553 -88.08632
-24.552849 22.445793 -92.26779
-25.908638 25.123665 -96.38173
-25.908653 25.12368 -96.381744
-26.720787 28.365257 -100.28862
-27.108131 31.82711 -104.08527
-27.19648 35.317665 -107.86701
-27.196495 35.317665 -107.86702
-27.117989 38.966286 -111.457886
-27.017494 42.92025 -114.62368
-27.017494 42.92028 -114.62369
-27.161293 47.071632 -117.44061
-27.911812 51.175056 -120.13689
-29.36251 55.02233 -122.88726
-29.36251 55.02236 -122.887276
-31.285072 58.533348 -125.87169
-33.46409 61.67103 -129.22046
-33.46409 61.671043 -129.22047
-35.89788 64.37386 -132.8521
-38.614067 66.66421 -136.58453
-41.406487 68.85082 -140.37082
-43.918083 71.383415 -144.24538
-46.1285 73.79446 -148.3149
-46.1285 73.79446 -148.31491
10.823128 -12.32093 5.86757
10.176338 -9.682503 2.210146
9.25663 -9.545906 2.567579
8.240013 -10.618889 -2.297502
7.292961 -10.494667 -1.912643
6.199486 -11.716347 -6.727653
5.370811 -11.625603 -6.357595
4.203972 -11.917885 -11.228442
3.390434 -11.839287 -10.825369
2.12603 -11.459282 -15.713105
1.278801 -11.376991 -15.270363
-0.144295 -10.668053 -20.105537
-1.014626 -10.574257 -19.658075
-2.545357 -9.693596 -24.45098
-3.420235 -9.586433 -24.030275
-2.545341 -9.693596 -24.450977
-3.420219 -9.586418 -24.030275
-4.907692 -8.565132 -28.875422
-5.795113 -8.447014 -28.480806
-7.115395 -7.41787 -33.437565
-8.025063 -7.29203 -33.06073
-7.115395 -7.417854 -33.43757
-8.025063 -7.29203 -33.060734
-9.112083 -6.551582 -38.068596
-10.022942 -6.416344 -37.72634
-10.82592 -6.063438 -42.727047
-11.69532 -5.913689 -42.45262
-12.015556 -5.316826 -47.45991
-12.82206 -5.151314 -47.26085
-12.371208 -3.508217 -52.144638
-13.130455 -3.333229 -51.985867
-12.371223 -3.508232 -52.144627
-13.13047 -3.333244 -51.985855
-12.228432 -0.928185 -56.522335
-12.965691 -0.75663 -56.357468
-12.337593 1.628365 -60.73244
-13.063728 1.778999 -60.529545
-13.023628 3.929253 -64.83341
-13.739708 4.043846 -64.57558
-14.153419 6.352211 -68.78409
-14.853859 6.427193 -68.47386
-15.561272 9.163139 -72.571
-16.240181 9.204964 -72.22432
-15.561272 9.163124 -72.570984
-16.240181 9.204948 -72.224304
-17.177483 12.185616 -76.28792
-17.843864 12.204063 -75.9171
-18.967964 15.12159 -80.075294
-19.646141 15.127754 -79.68608
-20.871483 17.805733 -84.005196
-21.55497 17.81089 -83.618256
-22.789482 20.174568 -88.08632
-23.409172 20.18821 -87.750145
-22.789482 20.174568 -88.08633
-23.409157 20.188225 -87.75016
-24.552849 22.445824 -92.2678
-25.049446 22.476448 -92.020775
-25.908623 25.12368 -96.38174
-26.320793 25.179695 -96.20637
-25.908638 25.123695 -96.38175
-26.320808 25.17971 -96.206375
-26.720772 28.365273 -100.28863
-27.132607 28.452415 -100.13832
-27.108131 31.827126 -104.08527
-27.548332 31.94616 -103.93737
-27.650414 35.464745 -107.71821
-27.650429 35.464745 -107.718216
-27.117973 38.966286 -111.45789
-27.5738 39.13102 -111.30357
-27.017479 42.920265 -114.62369
-27.475563 43.085823 -114.454124
-27.017464 42.920296 -114.623695
-27.475563 43.085854 -114.45414
-27.161263 47.071648 -117.44061
-27.620811 47.219658 -117.24863
-27.911797 51.175102 -120.13689
-28.362938 51.287025 -119.92203
-29.362495 55.02236 -122.88727
-29.79528 55.08683 -122.65326
-29.362495 55.022377 -122.88728
-29.795265 55.08683 -122.65326
-31.285072 58.533363 -125.87169
-31.702248 58.555824 -125.62252
-33.46409 61.671043 -129.22046
-33.87673 61.670235 -128.96072
-33.464073 61.67106 -129.22047
-33.876747 61.67025 -128.96074
-35.89788 64.37389 -132.85211
-36.30204 64.3648 -132.59064
-38.614067 66.66424 -136.58455
-38.991035 66.651634 -136.33311
-41.40647 68.85085 -140.37085
-41.777306 68.84286 -140.13234
-41.777306 68.84283 -140.13234
-43.918068 71.383446 -144.24539
-44.37359 71.399895 -144.00775
-46.12847 73.79449 -148.31493
-46.629906 73.83779 -148.10732
-46.128487 73.79449 -148.31493
-46.629906 73.83779 -148.10733
8.306053 -9.691872 2.964444
6.313835 -10.663124 -1.488046
4.513451 -11.794701 -5.955152
2.547386 -12.020119 -10.395436
0.398186 -11.566475 -14.808586
-1.923531 -10.756477 -19.204494
-4.338661 -9.750816 -23.616636
-4.338646 -9.750801 -23.616636
-6.729362 -8.600273 -28.096642
-8.982399 -7.442619 -32.689766
-8.982384 -7.442604 -32.689762
-10.980843 -6.552254 -37.39721
-12.610481 -6.009209 -42.22281
-13.671593 -5.197945 -47.143158
-13.927742 -3.351631 -51.921585
-13.927757 -3.351662 -51.921574
-13.736275 -0.7743 -56.2813
-13.822731 1.745811 -60.41815
-14.492577 3.986183 -64.427376
-15.594887 6.34037 -68.289604
-16.959953 9.088036 -72.00548
-16.959969 9.08802 -72.00547
-18.5485 12.059013 -75.66727
-20.359108 14.960457 -79.41286
-22.27108 17.63932 -83.34403
-24.062752 20.047142 -87.51822
-24.062737 20.047157 -87.51824
-25.584068 22.395195 -91.86529
-26.773918 25.155144 -96.11597
-26.773933 25.155128 -96.115974
-27.585243 28.463081 -100.07646
-28.02816 31.982002 -103.88303
-28.143105 35.52436 -107.66365
-28.14312 35.52436 -107.66365
-28.067863 39.206642 -111.24176
-27.971397 43.16076 -114.37632
-27.971397 43.16079 -114.376335
-28.11776 47.275475 -117.148636
-28.85157 51.306297 -119.79825
-30.265923 55.058968 -122.507065
-30.265923 55.058968 -122.50708
-32.157204 58.484398 -125.45543
-34.325615 61.570335 -128.77493
-34.325615 61.57035 -128.77495
-36.737602 64.25103 -132.39314
-39.390556 66.5317 -136.13545
-42.161766 68.720726 -139.94225
-42.161766 68.720726 -139.94226
-44.840538 71.278465 -143.8245
-47.14457 73.73827 -147.95657
-47.14457 73.73824 -147.95657
7.446526 -10.010017 3.297962
5.426277 -11.04261 -1.112309
3.733681 -12.184135 -5.582342
1.778343 -12.438377 -9.993579
-0.408134 -12.008675 -14.384563
-2.760414 -11.196434 -18.800692
-5.189079 -10.170769 -23.261091
-5.189049 -10.170769 -23.26109
-7.595436 -9.010597 -27.770626
-9.867729 -7.856056 -32.37104
-9.867714 -7.856071 -32.37104
-11.868706 -6.94738 -37.12203
-13.469734 -6.341881 -42.06479
-14.483955 -5.45295 -47.118546
-14.698631 -3.561836 -51.95575
-14.698647 -3.561852 -51.955738
-14.482536 -0.97921 -56.29852
-14.559196 1.532265 -60.406116
-15.227303 3.761482 -64.399345
-16.32206 6.098839 -68.24431
-17.667473 8.821541 -71.93002
-17.667488 8.821526 -71.930016
-19.239555 11.761818 -75.556244
-21.054955 14.632851 -79.27477
-22.96775 17.304543 -83.20172
-24.70118 19.761803 -87.40814
-24.70118 19.761818 -87.40816
-26.113426 22.206413 -91.81614
-27.228523 25.04853 -96.12266
-27.228539 25.04853 -96.122665
-28.038841 28.392311 -100.113396
-28.505821 31.927269 -103.93171
-28.631721 35.48684 -107.712776
-28.631737 35.486824 -107.71278
-28.557121 39.182076 -111.28256
-28.461784 43.13418 -114.40167
-28.46177 43.13418 -114.401695
-28.608925 47.230125 -117.15362
-29.335426 51.22744 -119.7803
-30.733727 54.937477 -122.46528
-30.733727 54.937492 -122.46529
-32.609932 58.320503 -125.38903
-34.769676 61.37281 -128.6841
-34.76969 61.37281 -128.68411
-37.163246 64.03286 -132.28223
-39.774223 66.30529 -136.0138
-42.5241 68.48788 -139.8207
-42.524117 68.48788 -139.8207
-45.278587 71.02639 -143.7132
-47.630394 73.50478 -147.8757
-47.630394 73.50478 -147.87572
6.754784 -10.198708 3.389436
4.703896 -11.416084 -0.91722
3.090584 -12.69825 -5.302438
1.138618 -13.049919 -9.655025
-1.08271 -12.668495 -14.028922
-3.46566 -11.858925 -18.47589
-5.910927 -10.81321 -22.989012
-5.910912 -10.813194 -22.98901
-8.331734 -9.64579 -27.525837
-10.618111 -8.500069 -32.12703
-12.623375 -7.570976 -36.920147
-14.211769 -6.885963 -41.989452
-15.20089 -5.896889 -47.188286
-15.387596 -3.948112 -52.08558
-15.387611 -3.948128 -52.085567
-15.150642 -1.356255 -56.407684
-15.219902 1.15406 -60.494156
-15.890816 3.386223 -64.4933
-16.982826 5.720314 -68.34093
-18.3115 8.425041 -72.0031
-18.311516 8.425011 -72.0031
-19.866997 11.33416 -75.5918
-21.683556 14.168785 -79.281555
-23.594872 16.830772 -83.20133
-25.277733 19.352898 -87.42771
-25.277718 19.352928 -87.42773
-26.597115 21.92414 -91.87687
-27.648476 24.868156 -96.226006
-27.648476 24.868187 -96.22602
-28.4571 28.245354 -100.2465
-28.943413 31.78556 -104.080025
-29.077614 35.3543 -107.86224
-29.07763 35.3543 -107.86224
-29.002632 39.05842 -111.42324
-28.907753 43.0075 -114.52852
-28.907738 43.00753 -114.528534
-29.055504 47.086754 -117.26333
-29.77642 51.056465 -119.86955
-31.161858 54.73176 -122.531075
-31.161873 54.731773 -122.531075
-33.024757 58.076866 -125.42849
-35.173897 61.092903 -128.69534
-35.173897 61.09292 -128.69536
-37.54522 63.72709 -132.26675
-40.111504 65.989555 -135.97789
-42.835823 68.16262 -139.77716
-42.83584 68.16262 -139.77716
-45.654823 70.66592 -143.68137
-48.052147 73.16061 -147.86865
-48.052147 73.16061 -147.86867
6.253639 -10.446373 3.343893
4.174644 -11.898888 -0.83879
2.613136 -13.358177 -5.104357
0.659096 -13.832832 -9.392984
-1.592537 -13.514153 -13.759933
-4.004646 -12.712807 -18.246578
-6.468803 -11.648293 -22.814322
-6.468788 -11.648293 -22.81432
-8.902763 -10.477318 -27.37476
-11.198158 -9.346397 -31.970087
-13.208138 -8.395119 -36.80167
-14.796242 -7.614433 -42.00041
-15.777596 -6.503654 -47.348415
-15.947212 -4.484474 -52.30362
-15.947227 -4.484505 -52.30361
-15.692696 -1.878975 -56.601902
-15.75695 0.63781 -60.676113
-16.434975 2.886833 -64.70264
-17.529472 5.231575 -68.57297
-18.845802 7.926521 -72.22005
-18.845818 7.926506 -72.22003
-20.385612 10.806343 -75.77196
-22.198906 13.601112 -79.43342
-24.106316 16.251549 -83.34375
-25.75193 18.848885 -87.57623
-25.75193 18.8489 -87.57625
-27.00518 21.566856 -92.04358
-28.01107 24.624733 -96.41906
-28.01107 24.624748 -96.419075
-28.817665 28.030922 -100.46707
-29.316597 31.565788 -104.318565
-29.45565 35.135277 -108.1027
-29.455666 35.135277 -108.1027
-29.379616 38.843575 -111.65497
-29.284676 42.78884 -114.74869
-29.284645 42.788857 -114.7487
-29.4329 46.8545 -117.47042
-30.1502 50.80413 -120.05975
-31.526695 54.45446 -122.69946
-31.526695 54.45446 -122.69947
-33.37876 57.768166 -125.570335
-35.51597 60.747505 -128.80684
-35.515984 60.74752 -128.80685
-37.862587 63.35215 -132.34637
-40.384056 65.60363 -136.02873
-43.080223 67.764824 -139.81305
-43.08024 67.764824 -139.81305
-45.949318 70.21935 -143.72958
-48.387535 72.72741 -147.93459
-48.38755 72.72741 -147.9346
5.970085 -11.07534 3.361315
3.874763 -12.676765 -0.752738
2.341637 -14.178017 -4.962056
0.384239 -14.721184 -9.2256
-1.889565 -14.460152 -13.603845
-4.326668 -13.672844 -18.134605
-6.810173 -12.592873 -22.753466
-6.810158 -12.592857 -22.753466
-9.254372 -11.422157 -27.331196
-11.552345 -10.30999 -31.914347
-11.55233 -10.30999 -31.914343
-13.567741 -9.338036 -36.777336
-15.170723 -8.458977 -42.09716
-16.166115 -7.222221 -47.585674
-16.333763 -5.130562 -52.592247
-16.333794 -5.130577 -52.592236
-16.067635 -2.50959 -56.866623
-16.130165 0.020683 -60.93938
-16.81916 2.299385 -65.01293
-17.921028 4.667992 -68.92416
-19.230171 7.362221 -72.5656
-19.230171 7.362221 -72.56559
-20.756462 10.216728 -76.08425
-22.562614 12.971077 -79.72011
-24.464088 15.60891 -83.6194
-26.087578 18.286919 -87.84325
-26.087578 18.286919 -87.84326
-27.304497 21.162254 -92.303566
-28.285347 24.338509 -96.68632
-28.285347 24.338524 -96.68633
-29.08976 27.767174 -100.75708
-29.594078 31.28614 -104.62772
-29.73423 34.84771 -108.41433
-29.734245 34.84771 -108.41433
-29.65641 38.555244 -111.958755
-29.560722 42.49621 -115.04425
-29.560707 42.49624 -115.04427
-29.70913 46.552544 -117.75815
-30.425148 50.491142 -120.33566
-31.79731 54.128365 -122.95724
-31.797325 54.128365 -122.95724
-33.64193 57.4199 -125.803635
-35.767006 60.365196 -129.01013
-35.767006 60.36521 -129.01015
-38.088783 62.939384 -132.5151
-40.56922 65.179985 -136.1624
-43.235603 67.32583 -139.92667
-43.235634 67.32583 -139.92668
-46.131233 69.71447 -143.85878
-48.597664 72.2243 -148.07637
-48.59768 72.2243 -148.07637
5.927147 -12.050377 3.451009
3.874748 -12.676765 -0.752737
3.829018 -13.695091 -0.659287
2.299004 -15.090752 -4.885505
0.384239 -14.721184 -9.225601
0.337608 -15.63813 -9.167219
-1.889534 -14.460152 -13.603846
-1.948204 -15.423973 -13.574471
-4.326668 -13.672844 -18.134607
-4.40406 -14.655632 -18.149845
-6.810158 -12.592873 -22.753466
-6.905769 -13.565086 -22.811728
-6.905754 -13.565086 -22.811728
-9.254372 -11.422173 -27.331192
-9.356285 -12.398369 -27.398657
-11.552361 -10.30999 -31.914345
-11.650032 -11.306953 -31.964201
-11.552345 -10.310005 -31.914343
-11.650047 -11.306938 -31.9642
-13.567741 -9.33802 -36.777336
-13.671364 -10.318108 -36.849113
-15.170708 -8.458992 -42.09716
-15.303978 -9.348579 -42.272038
-16.335213 -7.995171 -47.881317
-16.333778 -5.130562 -52.592247
-16.51699 -5.83709 -52.929005
-16.333794 -5.130592 -52.592236
-16.517006 -5.837105 -52.928997
-16.06765 -2.509605 -56.866623
-16.246452 -3.20089 -57.18184
-16.13018 0.020668 -60.93938
-16.310692 -0.651268 -61.264538
-16.819176 2.299355 -65.01293
-17.013756 1.667702 -65.40135
-17.921043 4.667976 -68.92416
-18.127281 4.071678 -69.36854
-19.230186 7.362236 -72.5656
-19.434776 6.774498 -73.01424
-19.230186 7.362236 -72.56559
-19.434792 6.774483 -73.01424
-20.756462 10.216743 -76.08425
-20.950768 9.609459 -76.50579
-22.746864 12.325371 -80.12093
-24.464073 15.60891 -83.6194
-24.640938 14.95034 -84.0085
-26.087563 18.286903 -87.84325
-26.257774 17.709404 -88.20893
-26.087563 18.286903 -87.84326
-26.257744 17.70942 -88.20895
-27.304497 21.16224 -92.303566
-27.468437 20.743004 -92.63616
-28.285362 24.338493 -96.68632
-28.444832 24.034737 -97.00529
-28.444847 24.034752 -97.005295
-29.247002 27.47776 -101.091606
-29.749596 30.971107 -104.980835
-29.887169 34.516457 -108.770256
-29.887169 34.516457 -108.77026
-29.80674 38.2183 -112.30837
-29.709572 42.154854 -115.38986
-29.560707 42.49624 -115.044266
-29.709557 42.154884 -115.38988
-29.709145 46.552544 -117.75815
-29.857826 46.20681 -118.102135
-30.425148 50.491127 -120.335655
-30.574959 50.144447 -120.67431
-31.79731 54.12835 -122.95723
-31.947899 53.781654 -123.28328
-31.797325 54.12835 -122.95723
-31.947899 53.78167 -123.28328
-33.789238 57.062325 -126.10964
-35.767006 60.36518 -129.01013
-35.903114 59.979485 -129.28912
-35.767006 60.365196 -129.01015
-35.9031 59.97947 -129.28912
-38.0888 62.939384 -132.5151
-38.20234 62.525444 -132.75963
-40.569237 65.179985 -136.16241
-40.64942 64.756615 -136.36844
-43.23562 67.32583 -139.92667
-43.28559 66.88262 -140.11023
-43.28562 66.88262 -140.11023
-46.13125 69.71447 -143.85878
-46.17608 69.185234 -144.0637
-48.59768 72.2243 -148.07635
-48.65026 71.6769 -148.29118
-48.59768 72.22433 -148.07637
-48.65026 71.6769 -148.2912
POLYGONS 1825 7300
3 0 1 2
3 2 1 3
3 2 3 4
3 4 3 5
3 4 5 6
3 6 5 7
3 6 7 8
3 8 7 9
3 8 9 10
3 10 9 11
3 10 11 12
3 12 11 13
3 12 13 14
3 14 13 15
3 16 17 18
3 18 17 19
3 18 19 20
3 20 19 21
3 20 22 23
3 23 22 24
3 23 24 25
3 25 24 26
3 25 26 27
3 27 26 28
3 27 28 29
3 29 28 30
3 31 32 33
3 33 32 34
3 33 34 35
3 35 34 36
3 35 36 37
3 37 36 38
3 37 38 39
3 39 38 40
3 39 40 41
3 41 40 42
3 43 44 45
3 45 44 46
3 45 46 47
3 47 46 48
3 47 48 49
3 49 48 50
3 49 50 51
3 51 50 52
3 53 54 55
3 55 54 56
3 55 56 57
3 57 56 58
3 59 60 61
3 61 60 62
3 61 62 63
3 63 62 64
3 63 64 65
3 65 64 66
3 67 68 69
3 69 68 70
3 69 70 71
3 71 70 72
3 73 74 75
3 75 74 76
3 75 76 77
3 77 76 78
3 77 78 79
3 79 78 80
3 79 80 81
3 81 80 82
3 81 82 83
3 83 82 84
3 85 86 87
3 87 86 88
3 87 88 89
3 89 88 90
3 89 90 91
3 91 90 92
3 93 94 95
3 95 94 96
3 95 96 97
3 97 96 98
3 99 100 101
3 3 1 102
3 3 102 5
3 5 102 103
3 5 103 7
3 7 103 104
3 7 104 9
3 9 104 105
3 9 105 11
3 11 105 106
3 11 106 13
3 13 106 107
3 13 107 15
3 15 107 108
3 17 109 19
3 19 109 110
3 19 110 21
3 21 110 111
3 22 112 24
3 24 112 113
3 24 113 26
3 26 113 114
3 26 114 28
3 28 114 115
3 28 115 30
3 30 115 116
3 32 117 34
3 34 117 118
3 34 118 36
3 36 118 119
3 36 119 38
3 38 119 120
3 38 120 40
3 40 120 121
3 40 121 42
3 42 121 122
3 44 123 46
3 46 123 124
3 46 124 48
3 48 124 125
3 48 125 50
3 50 125 126
3 50 126 52
3 52 126 127
3 54 128 56
3 56 128 129
3 56 129 58
3 58 129 130
3 60 131 62
3 62 131 132
3 62 132 64
3 64 132 133
3 64 133 66
3 66 133 134
3 68 135 70
3 70 135 136
3 70 136 72
3 72 136 137
3 74 138 76
3 76 138 139
3 76 139 78
3 78 139 140
3 78 140 80
3 80 140 141
3 80 142 82
3 82 142 143
3 82 143 84
3 84 143 144
3 86 145 88
3 88 145 146
3 88 146 90
3 90 146 147
3 90 147 92
3 92 147 148
3 94 149 96
3 96 149 150
3 96 150 98
3 98 150 151
3 100 152 101
3 101 152 153
3 1 154 102
3 102 154 155
3 102 155 103
3 103 155 156
3 103 156 104
3 104 156 157
3 104 157 105
3 105 157 158
3 105 158 106
3 106 158 159
3 106 159 107
3 107 159 160
3 107 160 108
3 108 160 161
3 109 162 110
3 110 162 163
3 110 163 111
3 111 163 164
3 112 165 113
3 113 165 166
3 113 166 114
3 114 166 167
3 114 167 115
3 115 167 168
3 115 168 116
3 116 168 169
3 117 170 118
3 118 170 171
3 118 171 119
3 119 171 172
3 119 172 120
3 120 172 173
3 120 173 121
3 121 173 174
3 121 174 122
3 122 174 175
3 123 176 124
3 124 176 177
3 124 177 125
3 125 177 178
3 125 178 126
3 126 178 179
3 126 179 127
3 127 179 180
3 128 181 129
3 129 181 182
3 129 182 130
3 130 182 183
3 131 184 132
3 132 184 185
3 132 185 133
3 133 185 186
3 133 186 134
3 134 186 187
3 135 188 136
3 136 188 189
3 136 189 137
3 137 189 190
3 138 191 139
3 139 191 192
3 139 192 140
3 140 192 193
3 140 193 141
3 141 193 194
3 142 195 143
3 143 195 196
3 143 196 144
3 144 196 197
3 145 198 146
3 146 198 199
3 146 199 147
3 147 199 200
3 147 200 148
3 148 200 201
3 149 201 150
3 150 201 202
3 150 202 151
3 151 202 203
3 152 204 153
3 153 204 101
3 154 205 155
3 155 205 206
3 155 206 156
3 156 206 207
3 156 207 157
3 157 207 208
3 157 208 158
3 158 208 209
3 158 209 159
3 159 209 210
3 159 210 160
3 160 210 211
3 160 211 161
3 161 211 212
3 162 213 163
3 163 213 214
3 163 214 164
3 164 214 215
3 165 216 166
3 166 216 217
3 166 217 167
3 167 217 218
3 167 218 168
3 168 218 219
3 168 219 169
3 169 219 220
3 170 221 171
3 171 221 222
3 171 222 172
3 172 222 223
3 172 223 173
3 173 223 224
3 173 224 174
3 174 224 225
3 174 225 175
3 175 225 226
3 176 227 177
3 177 227 228
3 177 228 178
3 178 228 229
3 178 229 179
3 179 229 230
3 179 230 180
3 180 230 231
3 181 232 182
3 182 232 233
3 182 233 183
3 183 233 234
3 184 235 185
3 185 235 236
3 185 236 186
3 186 236 237
3 186 237 187
3 187 237 238
3 188 239 189
3 189 239 240
3 189 240 190
3 190 240 241
3 191 242 192
3 192 242 243
3 192 243 193
3 193 243 244
3 193 244 194
3 194 244 245
3 195 246 196
3 196 246 247
3 196 247 197
3 197 247 248
3 198 249 199
3 199 249 250
3 199 250 200
3 200 250 251
3 200 251 201
3 201 251 252
3 201 252 202
3 202 252 253
3 202 253 203
3 203 253 254
3 204 255 101
3 205 154 206
3 206 154 256
3 206 256 207
3 207 256 257
3 207 257 208
3 208 257 258
3 208 258 209
3 209 258 259
3 209 259 210
3 210 259 260
3 210 260 211
3 211 260 261
3 211 261 212
3 212 261 262
3 213 263 214
3 214 263 264
3 214 264 215
3 215 264 265
3 216 266 217
3 217 266 267
3 217 267 218
3 218 267 268
3 218 268 219
3 219 268 269
3 219 269 220
3 220 269 270
3 221 271 222
3 222 271 272
3 222 272 223
3 223 272 273
3 223 273 224
3 224 273 274
3 224 274 225
3 225 274 275
3 225 275 226
3 226 275 276
3 227 277 228
3 228 277 278
3 228 278 229
3 229 278 279
3 229 279 230
3 230 279 280
3 230 280 231
3 231 280 281
3 232 282 233
3 233 282 283
3 233 283 234
3 234 283 284
3 235 285 236
3 236 285 286
3 236 286 237
3 237 286 287
3 237 287 238
3 238 287 288
3 239 289 240
3 240 289 290
3 240 290 241
3 241 290 291
3 242 292 243
3 243 292 293
3 243 293 244
3 244 293 294
3 244 294 245
3 245 294 295
3 246 296 247
3 247 296 297
3 247 297 248
3 248 297 298
3 249 299 250
3 250 299 300
3 250 300 251
3 251 300 301
3 251 301 252
3 252 301 302
3 252 303 253
3 253 303 304
3 253 304 254
3 254 304 305
3 255 306 307
3 1 0 308
3 308 0 309
3 308 309 310
3 310 309 311
3 310 311 312
3 312 311 313
3 312 313 314
3 314 313 315
3 314 315 260
3 260 315 316
3 260 316 261
3 261 316 317
3 261 317 318
3 318 317 319
3 320 321 264
3 264 321 322
3 264 322 323
3 323 322 324
3 325 326 327
3 327 326 328
3 327 328 329
3 329 328 330
3 329 330 331
3 331 330 332
3 331 332 270
3 270 332 333
3 334 335 336
3 336 335 337
3 336 337 338
3 338 337 339
3 338 339 340
3 340 339 341
3 340 341 342
3 342 341 343
3 342 343 276
3 276 343 344
3 277 345 346
3 346 345 347
3 346 347 279
3 279 347 348
3 279 348 280
3 280 348 349
3 280 349 281
3 281 349 350
3 351 352 353
3 353 352 354
3 353 354 355
3 355 354 356
3 357 358 359
3 359 358 360
3 359 360 361
3 361 360 362
3 361 362 363
3 363 362 364
3 365 366 367
3 367 366 368
3 367 368 369
3 369 368 370
3 371 372 373
3 373 372 374
3 373 374 375
3 375 374 376
3 375 376 377
3 377 376 378
3 379 380 381
3 381 380 382
3 381 382 298
3 298 382 383
3 299 384 385
3 385 384 386
3 385 386 387
3 387 386 388
3 387 388 302
3 302 388 389
3 303 390 304
3 304 390 391
3 304 391 392
3 392 391 393
3 306 393 394
3 394 393 395
3 0 205 309
3 309 205 396
3 309 396 311
3 311 396 397
3 311 397 313
3 313 397 398
3 313 398 315
3 315 398 399
3 315 399 316
3 316 399 400
3 316 400 317
3 317 400 401
3 317 401 319
3 319 401 402
3 321 403 322
3 322 403 404
3 322 404 324
3 324 404 405
3 326 406 328
3 328 406 407
3 328 407 330
3 330 407 408
3 330 408 332
3 332 408 409
3 332 409 333
3 333 409 410
3 335 411 337
3 337 411 412
3 337 412 339
3 339 412 413
3 339 413 341
3 341 413 414
3 341 414 343
3 343 414 415
3 343 415 344
3 344 415 416
3 345 417 347
3 347 417 418
3 347 418 348
3 348 418 419
3 348 419 349
3 349 419 420
3 349 420 350
3 350 420 421
3 352 422 354
3 354 422 423
3 354 423 356
3 356 423 424
3 358 424 360
3 360 424 425
3 360 425 362
3 362 425 426
3 362 426 364
3 364 426 427
3 366 428 368
3 368 428 429
3 368 429 370
3 370 429 430
3 372 431 374
3 374 431 432
3 374 432 376
3 376 432 433
3 376 433 378
3 378 433 434
3 380 435 382
3 382 435 436
3 382 436 383
3 383 436 437
3 384 438 386
3 386 438 439
3 386 439 388
3 388 439 440
3 388 440 389
3 389 440 441
3 390 442 391
3 391 442 443
3 391 443 393
3 393 443 444
3 393 445 395
3 395 445 101
3 205 446 396
3 396 446 447
3 396 447 397
3 397 447 448
3 397 448 398
3 398 448 449
3 398 449 399
3 399 449 450
3 399 450 400
3 400 450 451
3 400 451 401
3 401 451 452
3 401 452 402
3 402 452 453
3 403 454 404
3 404 454 455
3 404 455 405
3 405 455 456
3 406 457 407
3 407 457 458
3 407 458 408
3 408 458 459
3 408 459 409
3 409 459 460
3 409 460 410
3 410 460 461
3 411 462 412
3 412 462 463
3 412 463 413
3 413 463 464
3 413 464 414
3 414 464 465
3 414 465 415
3 415 465 466
3 415 466 416
3 416 466 467
3 417 468 418
3 418 468 469
3 418 469 419
3 419 469 470
3 419 470 420
3 420 470 471
3 420 471 421
3 421 471 472
3 422 473 423
3 423 473 474
3 423 474 424
3 424 474 475
3 424 476 425
3 425 476 477
3 425 477 426
3 426 477 478
3 426 478 427
3 427 478 479
3 428 480 429
3 429 480 481
3 429 481 430
3 430 481 482
3 431 483 432
3 432 483 484
3 432 484 433
3 433 484 485
3 433 485 434
3 434 485 486
3 435 487 436
3 436 487 488
3 436 488 437
3 437 488 489
3 438 490 439
3 439 490 491
3 439 491 440
3 440 491 492
3 440 492 441
3 441 492 493
3 442 494 443
3 443 494 495
3 443 495 444
3 444 495 496
3 445 497 101
3 498 499 500
3 500 499 501
3 500 501 502
3 502 501 503
3 502 503 504
3 504 503 505
3 504 505 506
3 506 505 507
3 506 507 508
3 508 507 509
3 508 509 510
3 510 509 511
3 510 511 512
3 512 511 513
3 514 515 516
3 516 515 517
3 516 517 518
3 518 517 519
3 520 521 522
3 522 521 523
3 522 523 524
3 524 523 525
3 524 525 526
3 526 525 527
3 526 527 528
3 528 527 529
3 530 531 532
3 532 531 533
3 532 533 534
3 534 533 535
3 534 535 536
3 536 535 537
3 536 537 538
3 538 537 539
3 538 539 540
3 540 539 541
3 542 543 544
3 544 543 545
3 544 545 546
3 546 545 547
3 546 547 548
3 548 547 549
3 548 549 550
3 550 549 551
3 552 553 554
3 554 553 555
3 554 555 556
3 556 555 557
3 558 559 560
3 560 559 561
3 560 561 562
3 562 561 563
3 562 563 564
3 564 563 565
3 566 567 568
3 568 567 569
3 568 569 570
3 570 569 571
3 572 573 574
3 574 573 575
3 574 575 576
3 576 575 577
3 576 577 578
3 578 577 579
3 580 581 582
3 582 581 583
3 582 583 584
3 584 583 585
3 586 587 588
3 588 587 589
3 588 589 590
3 590 589 591
3 590 591 592
3 592 591 593
3 594 593 595
3 595 593 596
3 595 596 597
3 597 596 598
3 597 599 600
3 600 599 601
3 499 205 501
3 501 205 602
3 501 602 503
3 503 602 603
3 503 603 505
3 505 603 604
3 505 604 507
3 507 604 605
3 507 605 509
3 509 605 606
3 509 606 511
3 511 606 607
3 511 607 513
3 513 607 608
3 515 609 517
3 517 609 610
3 517 610 519
3 519 610 611
3 521 612 523
3 523 612 613
3 523 613 525
3 525 613 614
3 525 614 527
3 527 614 615
3 527 615 529
3 529 615 616
3 531 617 533
3 533 617 618
3 533 618 535
3 535 618 619
3 535 619 537
3 537 619 620
3 537 620 539
3 539 620 621
3 539 621 541
3 541 621 622
3 543 623 545
3 545 623 624
3 545 624 547
3 547 624 625
3 547 625 549
3 549 625 626
3 549 626 551
3 551 626 627
3 553 628 555
3 555 628 629
3 555 629 557
3 557 629 630
3 559 631 561
3 561 631 632
3 561 632 563
3 563 632 633
3 563 633 565
3 565 633 634
3 567 634 569
3 569 634 635
3 569 635 571
3 571 635 636
3 573 637 575
3 575 637 638
3 575 638 577
3 577 638 639
3 577 639 579
3 579 639 640
3 581 641 583
3 583 641 642
3 583 642 585
3 585 642 643
3 587 644 589
3 589 644 645
3 589 645 591
3 591 645 646
3 591 646 593
3 593 646 647
3 593 648 596
3 596 648 649
3 596 649 598
3 598 649 650
3 599 651 601
3 601 651 652
3 205 0 602
3 602 0 653
3 602 653 603
3 603 653 654
3 603 654 604
3 604 654 655
3 604 655 605
3 605 655 656
3 605 656 606
3 606 656 657
3 606 657 607
3 607 657 658
3 607 658 608
3 608 658 659
3 609 660 610
3 610 660 661
3 610 661 611
3 611 661 662
3 612 663 613
3 613 663 664
3 613 664 614
3 614 664 665
3 614 665 615
3 615 665 666
3 615 666 616
3 616 666 667
3 617 668 618
3 618 668 669
3 618 669 619
3 619 669 670
3 619 670 620
3 620 670 671
3 620 671 621
3 621 671 672
3 621 672 622
3 622 672 673
3 623 674 624
3 624 674 675
3 624 675 625
3 625 675 676
3 625 676 626
3 626 676 677
3 626 677 627
3 627 677 678
3 628 679 629
3 629 679 680
3 629 680 630
3 630 680 681
3 631 682 632
3 632 682 683
3 632 683 633
3 633 683 684
3 633 684 634
3 634 684 685
3 634 686 635
3 635 686 687
3 635 687 636
3 636 687 688
3 637 689 638
3 638 689 690
3 638 690 639
3 639 690 691
3 639 691 640
3 640 691 692
3 641 693 642
3 642 693 694
3 642 694 643
3 643 694 695
3 644 696 645
3 645 696 697
3 645 697 646
3 646 697 698
3 646 698 647
3 647 698 699
3 648 700 649
3 649 700 701
3 649 701 650
3 650 701 702
3 651 703 652
3 652 703 101
3 498 205 653
3 653 205 704
3 653 704 654
3 654 704 705
3 654 705 655
3 655 705 706
3 655 706 707
3 707 706 708
3 707 708 709
3 709 708 710
3 709 710 658
3 658 710 711
3 658 711 712
3 712 711 713
3 660 714 715
3 715 714 716
3 715 716 717
3 717 716 718
3 719 720 721
3 721 720 722
3 721 722 723
3 723 722 724
3 723 724 725
3 725 724 726
3 725 726 727
3 727 726 728
3 729 730 731
3 731 730 732
3 731 732 670
3 670 732 733
3 670 733 734
3 734 733 735
3 734 735 672
3 672 735 736
3 672 736 673
3 673 736 737
3 674 738 675
3 675 738 739
3 675 739 676
3 676 739 740
3 676 740 741
3 741 740 742
3 741 742 678
3 678 742 743
3 679 744 680
3 680 744 745
3 680 745 746
3 746 745 747
3 748 749 750
3 750 749 751
3 750 751 752
3 752 751 753
3 752 753 754
3 754 753 755
3 756 757 758
3 758 757 759
3 758 759 760
3 760 759 761
3 762 763 764
3 764 763 765
3 764 765 691
3 691 765 766
3 691 766 767
3 767 766 768
3 769 770 771
3 771 770 772
3 771 772 773
3 773 772 774
3 696 775 776
3 776 775 777
3 776 777 778
3 778 777 779
3 778 779 699
3 699 779 780
3 700 781 701
3 701 781 782
3 701 782 702
3 702 782 783
3 703 784 785
3 785 784 101
3 205 786 704
3 704 786 787
3 704 787 705
3 705 787 788
3 705 788 706
3 706 788 789
3 706 789 708
3 708 789 790
3 708 790 710
3 710 790 791
3 710 791 711
3 711 791 792
3 711 792 713
3 713 792 793
3 714 794 716
3 716 794 795
3 716 795 718
3 718 795 796
3 720 796 722
3 722 796 797
3 722 797 724
3 724 797 798
3 724 798 726
3 726 798 799
3 726 799 728
3 728 799 800
3 730 801 732
3 732 801 802
3 732 802 733
3 733 802 803
3 733 803 735
3 735 803 804
3 735 804 736
3 736 804 805
3 736 805 737
3 737 805 806
3 738 807 739
3 739 807 808
3 739 808 740
3 740 808 809
3 740 809 742
3 742 809 810
3 742 810 743
3 743 810 811
3 744 812 745
3 745 812 813
3 745 813 747
3 747 813 814
3 749 815 751
3 751 815 816
3 751 816 753
3 753 816 817
3 753 817 755
3 755 817 818
3 757 819 759
3 759 819 820
3 759 820 761
3 761 820 821
3 763 822 765
3 765 822 823
3 765 823 766
3 766 823 824
3 766 824 768
3 768 824 825
3 770 826 772
3 772 826 827
3 772 827 774
3 774 827 828
3 775 829 777
3 777 829 830
3 777 830 779
3 779 830 831
3 779 831 780
3 780 831 832
3 781 833 782
3 782 833 834
3 782 834 783
3 783 834 835
3 784 836 101
3 101 836 307
3 786 0 787
3 787 0 837
3 787 837 788
3 788 837 838
3 788 838 789
3 789 838 839
3 789 839 790
3 790 839 840
3 790 840 791
3 791 840 841
3 791 841 792
3 792 841 842
3 792 842 793
3 793 842 843
3 794 844 795
3 795 844 845
3 795 845 796
3 796 845 846
3 796 846 797
3 797 846 847
3 797 847 798
3 798 847 848
3 798 848 799
3 799 848 849
3 799 849 800
3 800 849 850
3 801 851 802
3 802 851 852
3 802 852 803
3 803 852 853
3 803 853 804
3 804 853 854
3 804 854 805
3 805 854 855
3 805 855 806
3 806 855 856
3 807 857 808
3 808 857 858
3 808 858 809
3 809 858 859
3 809 859 810
3 810 859 860
3 810 860 811
3 811 860 861
3 812 862 813
3 813 862 863
3 813 863 814
3 814 863 864
3 815 865 816
3 816 865 866
3 816 866 817
3 817 866 867
3 817 867 818
3 818 867 868
3 819 869 820
3 820 869 870
3 820 870 821
3 821 870 871
3 822 872 823
3 823 872 873
3 823 873 824
3 824 873 874
3 824 874 825
3 825 874 875
3 826 876 827
3 827 876 877
3 827 877 828
3 828 877 878
3 829 879 830
3 830 879 880
3 830 880 831
3 831 880 881
3 831 881 832
3 832 881 882
3 833 883 834
3 834 883 884
3 834 884 835
3 835 884 885
3 836 886 307
3 307 886 101
3 837 498 887
3 837 887 838
3 838 887 888
3 838 888 839
3 839 888 889
3 839 889 840
3 840 889 890
3 840 890 841
3 841 890 891
3 841 891 842
3 842 891 892
3 842 892 843
3 843 892 893
3 844 894 845
3 845 894 895
3 845 895 846
3 846 895 896
3 846 897 847
3 847 897 898
3 847 898 848
3 848 898 899
3 848 899 849
3 849 899 900
3 849 900 850
3 850 900 901
3 851 902 852
3 852 902 903
3 852 903 853
3 853 903 904
3 853 904 854
3 854 904 905
3 854 905 855
3 855 905 906
3 855 906 856
3 856 906 907
3 857 908 858
3 858 908 909
3 858 909 859
3 859 909 910
3 859 910 860
3 860 910 911
3 860 911 861
3 861 911 912
3 862 913 863
3 863 913 914
3 863 914 864
3 864 914 915
3 865 916 866
3 866 916 917
3 866 917 867
3 867 917 918
3 867 918 868
3 868 918 919
3 869 920 870
3 870 920 921
3 870 921 871
3 871 921 922
3 872 923 873
3 873 923 924
3 873 924 874
3 874 924 925
3 874 925 875
3 875 925 926
3 876 927 877
3 877 927 928
3 877 928 878
3 878 928 929
3 879 930 880
3 880 930 931
3 880 931 881
3 881 931 932
3 881 932 882
3 882 932 933
3 883 933 884
3 884 933 934
3 884 934 885
3 885 934 935
3 886 936 101
3 101 936 652
3 937 205 938
3 938 205 939
3 938 939 940
3 940 939 941
3 940 941 942
3 942 941 943
3 942 943 944
3 944 943 945
3 944 945 946
3 946 945 947
3 946 947 948
3 948 947 949
3 948 949 950
3 950 949 951
3 952 953 954
3 954 953 955
3 954 955 956
3 956 955 957
3 958 959 960
3 960 959 961
3 960 961 962
3 962 961 963
3 962 963 964
3 964 963 965
3 964 965 966
3 966 965 967
3 968 969 970
3 970 969 971
3 970 971 972
3 972 971 973
3 972 973 974
3 974 973 975
3 974 975 976
3 976 975 977
3 976 977 978
3 978 977 979
3 980 981 982
3 982 981 983
3 982 983 984
3 984 983 985
3 984 985 986
3 986 985 987
3 986 987 988
3 988 987 989
3 990 991 992
3 992 991 993
3 992 993 994
3 994 993 995
3 996 997 998
3 998 997 999
3 998 999 1000
3 1000 999 1001
3 1000 1001 919
3 919 1001 1002
3 920 1003 1004
3 1004 1003 1005
3 1004 1005 1006
3 1006 1005 1007
3 1008 1009 1010
3 1010 1009 1011
3 1010 1011 1012
3 1012 1011 1013
3 1012 1013 1014
3 1014 1013 1015
3 1016 1017 1018
3 1018 1017 1019
3 1018 1019 1020
3 1020 1019 1021
3 1022 1023 1024
3 1024 1023 1025
3 1024 1025 1026
3 1026 1025 1027
3 1026 1027 1028
3 1028 1027 1029
3 1028 1030 1031
3 1031 1030 1032
3 1031 1032 1033
3 1033 1032 1034
3 1035 1036 601
3 601 1036 101
3 939 0 1037
3 939 1037 941
3 941 1037 1038
3 941 1038 943
3 943 1038 1039
3 943 1039 945
3 945 1039 1040
3 945 1040 947
3 947 1040 1041
3 947 1041 949
3 949 1041 1042
3 949 1042 951
3 951 1042 1043
3 953 1044 955
3 955 1044 1045
3 955 1045 957
3 957 1045 1046
3 959 1047 961
3 961 1047 1048
3 961 1048 963
3 963 1048 1049
3 963 1049 965
3 965 1049 1050
3 965 1050 967
3 967 1050 1051
3 969 1052 971
3 971 1052 1053
3 971 1053 973
3 973 1053 1054
3 973 1054 975
3 975 1054 1055
3 975 1055 977
3 977 1055 1056
3 977 1056 979
3 979 1056 1057
3 981 1058 983
3 983 1058 1059
3 983 1059 985
3 985 1059 1060
3 985 1060 987
3 987 1060 1061
3 987 1061 989
3 989 1061 1062
3 991 1063 993
3 993 1063 1064
3 993 1064 995
3 995 1064 1065
3 997 1066 999
3 999 1066 1067
3 999 1067 1001
3 1001 1067 1068
3 1001 1068 1002
3 1002 1068 1069
3 1003 1070 1005
3 1005 1070 1071
3 1005 1071 1007
3 1007 1071 1072
3 1009 1073 1011
3 1011 1073 1074
3 1011 1074 1013
3 1013 1074 1075
3 1013 1075 1015
3 1015 1075 1076
3 1017 1077 1019
3 1019 1077 1078
3 1019 1078 1021
3 1021 1078 1079
3 1023 1080 1025
3 1025 1080 1081
3 1025 1081 1027
3 1027 1081 1082
3 1027 1082 1029
3 1029 1082 1083
3 1030 1084 1032
3 1032 1084 1085
3 1032 1085 1034
3 1034 1085 1086
3 1036 1087 101
3 1037 498 1088
3 1037 1088 1038
3 1038 1088 1089
3 1038 1089 1039
3 1039 1089 1090
3 1039 1090 1040
3 1040 1090 1091
3 1040 1091 1041
3 1041 1091 1092
3 1041 1092 1042
3 1042 1092 1093
3 1042 1093 1043
3 1043 1093 1094
3 1044 1095 1045
3 1045 1095 1096
3 1045 1096 1046
3 1046 1096 1097
3 1047 1098 1048
3 1048 1098 1099
3 1048 1099 1049
3 1049 1099 1100
3 1049 1100 1050
3 1050 1100 1101
3 1050 1101 1051
3 1051 1101 1102
3 1052 1103 1053
3 1053 1103 1104
3 1053 1104 1054
3 1054 1104 1105
3 1054 1105 1055
3 1055 1105 1106
3 1055 1106 1056
3 1056 1106 1107
3 1056 1107 1057
3 1057 1107 1108
3 1058 1109 1059
3 1059 1109 1110
3 1059 1110 1060
3 1060 1110 1111
3 1060 1111 1061
3 1061 1111 1112
3 1061 1112 1062
3 1062 1112 1113
3 1063 1114 1064
3 1064 1114 1115
3 1064 1115 1065
3 1065 1115 1116
3 1066 1117 1067
3 1067 1117 1118
3 1067 1118 1068
3 1068 1118 1119
3 1068 1119 1069
3 1069 1119 1120
3 1070 1121 1071
3 1071 1121 1122
3 1071 1122 1072
3 1072 1122 1123
3 1073 1124 1074
3 1074 1124 1125
3 1074 1125 1075
3 1075 1125 1126
3 1075 1126 1076
3 1076 1126 1127
3 1077 1128 1078
3 1078 1128 1129
3 1078 1129 1079
3 1079 1129 1130
3 1080 1131 1081
3 1081 1131 1132
3 1081 1132 1082
3 1082 1132 1133
3 1082 1133 1083
3 1083 1133 1134
3 1084 1135 1085
3 1085 1135 1136
3 1085 1136 1086
3 1086 1136 1137
3 1087 1138 101
3 498 0 1088
3 1088 0 1139
3 1088 1139 1089
3 1089 1139 1140
3 1089 1140 1090
3 1090 1140 1141
3 1090 1141 1091
3 1091 1141 1142
3 1091 1142 1092
3 1092 1142 1143
3 1092 1143 1093
3 1093 1143 1144
3 1093 1144 1094
3 1094 1144 1145
3 1095 1146 1096
3 1096 1146 1147
3 1096 1147 1097
3 1097 1147 1148
3 1098 1148 1099
3 1099 1148 1149
3 1099 1149 1100
3 1100 1149 1150
3 1100 1150 1101
3 1101 1150 1151
3 1101 1151 1102
3 1102 1151 1152
3 1103 1153 1104
3 1104 1153 1154
3 1104 1154 1105
3 1105 1154 1155
3 1105 1155 1106
3 1106 1155 1156
3 1106 1156 1107
3 1107 1156 1157
3 1107 1157 1108
3 1108 1157 1158
3 1109 1159 1110
3 1110 1159 1160
3 1110 1160 1111
3 1111 1160 1161
3 1111 1161 1112
3 1112 1161 1162
3 1112 1162 1113
3 1113 1162 1163
3 1114 1164 1115
3 1115 1164 1165
3 1115 1165 1116
3 1116 1165 1166
3 1117 1167 1118
3 1118 1167 1168
3 1118 1168 1119
3 1119 1168 1169
3 1119 1169 1120
3 1120 1169 1170
3 1121 1171 1122
3 1122 1171 1172
3 1122 1172 1123
3 1123 1172 1173
3 1124 1174 1125
3 1125 1174 1175
3 1125 1175 1126
3 1126 1175 1176
3 1126 1176 1127
3 1127 1176 1177
3 1128 1178 1129
3 1129 1178 1179
3 1129 1179 1130
3 1130 1179 1180
3 1131 1181 1132
3 1132 1181 1182
3 1132 1182 1133
3 1133 1182 1183
3 1133 1183 1134
3 1134 1183 1184
3 1135 1185 1136
3 1136 1185 1186
3 1136 1186 1137
3 1137 1186 1187
3 1138 1188 307
3 1139 205 1189
3 1139 1189 1140
3 1140 1189 1190
3 1140 1190 1141
3 1141 1190 1191
3 1141 1191 1142
3 1142 1191 1192
3 1142 1192 1143
3 1143 1192 1193
3 1143 1193 1144
3 1144 1193 1194
3 1144 1194 1145
3 1145 1194 1195
3 1146 1196 1147
3 1147 1196 1197
3 1147 1197 1148
3 1148 1197 1198
3 1148 1198 1149
3 1149 1198 1199
3 1149 1199 1150
3 1150 1199 1200
3 1150 1200 1151
3 1151 1200 1201
3 1151 1201 1152
3 1152 1201 1202
3 1153 1203 1154
3 1154 1203 1204
3 1154 1204 1155
3 1155 1204 1205
3 1155 1205 1156
3 1156 1205 1206
3 1156 1206 1157
3 1157 1206 1207
3 1157 1207 1158
3 1158 1207 1208
3 1159 1209 1160
3 1160 1209 1210
3 1160 1210 1161
3 1161 1210 1211
3 1161 1211 1162
3 1162 1211 1212
3 1162 1212 1163
3 1163 1212 1213
3 1164 1214 1165
3 1165 1214 1215
3 1165 1215 1166
3 1166 1215 1216
3 1167 1217 1168
3 1168 1217 1218
3 1168 1218 1169
3 1169 1218 1219
3 1169 1219 1170
3 1170 1219 1220
3 1171 1221 1172
3 1172 1221 1222
3 1172 1222 1173
3 1173 1222 1223
3 1174 1224 1175
3 1175 1224 1225
3 1175 1225 1176
3 1176 1225 1226
3 1176 1226 1177
3 1177 1226 1227
3 1178 1228 1179
3 1179 1228 1229
3 1179 1229 1180
3 1180 1229 1230
3 1181 1231 1182
3 1182 1231 1232
3 1182 1232 1183
3 1183 1232 1233
3 1183 1233 1184
3 1184 1233 1234
3 1185 1235 1186
3 1186 1235 1236
3 1186 1236 1187
3 1187 1236 1237
3 1188 1238 101
3 205 498 1189
3 1189 498 1239
3 1189 1239 1190
3 1190 1239 1240
3 1190 1240 1191
3 1191 1240 1241
3 1191 1241 1192
3 1192 1241 1242
3 1192 1242 1193
3 1193 1242 1243
3 1193 1243 1194
3 1194 1243 1244
3 1194 1244 1195
3 1195 1244 1245
3 1196 1246 1197
3 1197 1246 1247
3 1197 1247 1198
3 1198 1247 1248
3 1198 1249 1199
3 1199 1249 1250
3 1199 1250 1200
3 1200 1250 1251
3 1200 1251 1201
3 1201 1251 1252
3 1201 1252 1202
3 1202 1252 1253
3 1203 1254 1204
3 1204 1254 1255
3 1204 1255 1205
3 1205 1255 1256
3 1205 1256 1206
3 1206 1256 1257
3 1206 1257 1207
3 1207 1257 1258
3 1207 1258 1208
3 1208 1258 1259
3 1209 1260 1210
3 1210 1260 1261
3 1210 1261 1211
3 1211 1261 1262
3 1211 1262 1212
3 1212 1262 1263
3 1212 1263 1213
3 1213 1263 1264
3 1214 1265 1215
3 1215 1265 1266
3 1215 1266 1216
3 1216 1266 1267
3 1217 1268 1218
3 1218 1268 1269
3 1218 1269 1219
3 1219 1269 1270
3 1219 1270 1220
3 1220 1270 1271
3 1221 1272 1222
3 1222 1272 1273
3 1222 1273 1223
3 1223 1273 1274
3 1224 1275 1225
3 1225 1275 1276
3 1225 1276 1226
3 1226 1276 1277
3 1226 1277 1227
3 1227 1277 1278
3 1228 1279 1229
3 1229 1279 1280
3 1229 1280 1230
3 1230 1280 1281
3 1231 1282 1232
3 1232 1282 1283
3 1232 1283 1233
3 1233 1283 1284
3 1233 1284 1234
3 1234 1284 1285
3 1235 1286 1236
3 1236 1286 1287
3 1236 1287 1237
3 1237 1287 1288
3 1238 1289 101
3 498 0 1239
3 1239 0 1290
3 1239 1290 1291
3 1291 1290 1292
3 1291 1292 1241
3 1241 1292 1293
3 1241 1293 1294
3 1294 1293 1295
3 1294 1295 1296
3 1296 1295 1297
3 1296 1297 1298
3 1298 1297 1299
3 1298 1299 1300
3 1300 1299 1301
3 1300 1302 1303
3 1303 1302 1304
3 1303 1304 1305
3 1305 1304 1306
3 1307 1308 1309
3 1309 1308 1310
3 1309 1310 1311
3 1311 1310 1312
3 1311 1312 1252
3 1252 1312 1313
3 1252 1313 1314
3 1314 1313 1315
3 1316 1317 1318
3 1318 1317 1319
3 1318 1319 1320
3 1320 1319 1321
3 1320 1321 1322
3 1322 1321 1323
3 1322 1323 1324
3 1324 1323 1325
3 1324 1325 1326
3 1326 1325 1327
3 1328 1329 1330
3 1330 1329 1331
3 1330 1331 1262
3 1262 1331 1332
3 1262 1332 1333
3 1333 1332 1334
3 1333 1334 1335
3 1335 1334 1336
3 1337 1338 1339
3 1339 1338 1340
3 1339 1340 1341
3 1341 1340 1342
3 1268 1343 1269
3 1269 1343 1344
3 1269 1344 1270
3 1270 1344 1345
3 1270 1345 1271
3 1271 1345 1346
3 1272 1347 1273
3 1273 1347 1348
3 1273 1348 1274
3 1274 1348 1349
3 1350 1351 1352
3 1352 1351 1353
3 1352 1353 1354
3 1354 1353 1355
3 1354 1355 1356
3 1356 1355 1357
3 1358 1359 1280
3 1280 1359 1360
3 1280 1360 1361
3 1361 1360 1362
3 1363 1364 1365
3 1365 1364 1366
3 1365 1366 1367
3 1367 1366 1368
3 1367 1368 1369
3 1369 1368 1370
3 1286 1371 1372
3 1372 1371 1373
3 1372 1373 1374
3 1374 1373 1375
3 1376 1377 307
3 307 1377 395
3 1290 0 2
3 1290 2 1292
3 1292 2 4
3 1292 4 1293
3 1293 4 6
3 1293 6 1295
3 1295 6 8
3 1295 8 1297
3 1297 8 10
3 1297 10 1299
3 1299 10 12
3 1299 12 1301
3 1301 12 14
3 1302 16 1304
3 1304 16 18
3 1304 18 1306
3 1306 18 20
3 1308 20 1310
3 1310 20 23
3 1310 23 1312
3 1312 23 25
3 1312 25 1313
3 1313 25 27
3 1313 27 1315
3 1315 27 29
3 1317 31 1319
3 1319 31 33
3 1319 33 1321
3 1321 33 35
3 1321 35 1323
3 1323 35 37
3 1323 37 1325
3 1325 37 39
3 1325 39 1327
3 1327 39 41
3 1329 43 1331
3 1331 43 45
3 1331 45 1332
3 1332 45 47
3 1332 47 1334
3 1334 47 49
3 1334 49 1336
3 1336 49 51
3 1338 53 1340
3 1340 53 55
3 1340 55 1342
3 1342 55 57
3 1343 59 1344
3 1344 59 61
3 1344 61 1345
3 1345 61 63
3 1345 63 1346
3 1346 63 65
3 1347 67 1348
3 1348 67 69
3 1348 69 1349
3 1349 69 71
3 1351 73 1353
3 1353 73 75
3 1353 75 1355
3 1355 75 77
3 1355 77 1357
3 1357 77 79
3 1359 79 1360
3 1360 79 81
3 1360 81 1362
3 1362 81 83
3 1364 85 1366
3 1366 85 87
3 1366 87 1368
3 1368 87 89
3 1368 89 1370
3 1370 89 91
3 1371 93 1373
3 1373 93 95
3 1373 95 1375
3 1375 95 97
3 1377 99 395
3 395 99 101
