# vtk DataFile Version 2.0
File written by itkPolyDataMeshIO
ASCII
DATASET POLYDATA
POINTS 1780 float
116.63958 -7.830452 357.87003
111.465904 -6.881432 361.2407
117.73986 -6.980125 359.09442
126.35088 -11.047493 355.67932
127.56664 -10.231514 356.73975
136.93945 -14.055946 352.35083
137.95236 -13.155022 353.43784
143.47772 -14.932884 349.66794
144.18811 -13.998955 350.79947
148.46252 -14.082787 347.33594
148.90475 -13.126289 348.60904
153.41504 -12.481056 345.00616
153.7391 -11.494469 346.41367
158.24286 -10.66758 342.49838
158.61407 -9.634804 343.9847
163.00708 -9.005287 339.69888
163.51099 -7.888161 341.25302
167.79337 -7.699425 336.67325
168.45224 -6.470055 338.29993
172.27008 -6.675346 333.39774
173.129 -5.396263 334.9795
176.17603 -5.715172 329.6723
177.25378 -4.435493 331.11285
179.65823 -4.6119 325.45334
180.89407 -3.3218 326.80234
182.96692 -3.19416 320.9149
184.27267 -1.890434 322.2623
186.04306 -1.277946 316.2145
187.39224 0.008614 317.53528
188.72607 0.759895 311.36804
190.12457 2.005348 312.61118
191.01993 2.960457 306.36392
192.46613 4.168144 307.53018
193.03613 5.327782 301.16223
194.52133 6.51429 302.26987
194.95526 7.632698 295.73727
196.4636 8.817955 296.8117
196.80469 9.941368 290.1867
198.34274 11.137077 291.18887
198.33743 11.82238 284.62488
199.92874 13.03112 285.45563
199.51556 13.29026 279.02365
201.1507 14.504387 279.67648
200.7167 14.676476 273.25302
202.34723 15.889915 273.869
202.08514 16.128792 267.39377
203.70065 17.345116 268.0692
203.39124 17.58477 261.58487
205.01605 18.804573 262.27667
204.5231 19.063576 255.79375
206.16797 20.280998 256.4103
205.5419 20.388054 249.90453
207.18762 21.598335 250.43546
206.3757 21.592278 243.99995
208.02737 22.799416 244.49818
207.16473 22.964516 238.06544
208.82602 24.17286 238.55779
208.05774 24.401329 232.04546
209.71844 25.612968 232.5442
209.038 25.637016 225.95337
210.68973 26.85218 226.47319
210.13354 26.686714 219.84721
211.76816 27.897926 220.37257
211.39899 27.892967 213.76369
213.02011 29.097923 214.29024
212.65881 29.074623 207.6817
214.26941 30.273033 208.20343
213.84589 30.125786 201.58875
215.44446 31.315819 202.11148
215.0727 31.1296 195.50229
216.66098 32.310585 196.0137
216.3555 32.26281 189.4252
217.9342 33.43438 189.92354
217.56366 33.396187 183.3282
219.13449 34.562157 183.82703
218.7525 34.35195 177.19331
220.31467 35.51568 177.69807
220.15103 35.17681 171.02316
221.69873 36.337578 171.53842
221.75436 35.912743 164.83511
223.28165 37.067406 165.36337
223.45105 36.53376 158.63524
224.95483 37.680336 159.17943
225.31021 37.061104 152.42796
226.7945 38.20278 152.99481
227.33716 37.52192 146.24791
228.80731 38.659004 146.82765
229.42911 37.915993 140.1183
230.88321 39.04252 140.69238
231.56393 38.204872 134.02965
232.99591 39.31536 134.59143
233.80682 38.36886 127.967545
235.21332 39.465187 128.53467
236.24985 38.39025 121.9416
237.62894 39.474937 122.530266
236.24979 38.390236 121.94161
237.62888 39.474907 122.53028
238.93542 38.174095 116.01106
240.27512 39.232414 116.60083
241.85895 37.718117 110.21571
243.14365 38.73626 110.79924
241.85895 37.718117 110.21575
243.14368 38.736275 110.79928
245.08527 37.479332 104.58595
246.29556 38.468025 105.22336
248.27255 37.452797 99.125916
249.44424 38.41889 99.76314
248.27255 37.452797 99.125946
249.44427 38.418907 99.763176
250.78107 36.95611 93.72755
251.9957 37.89396 94.19332
252.97232 36.328087 88.29213
254.20126 37.253853 88.68004
252.97232 36.328087 88.292145
254.20126 37.253853 88.68006
255.63504 35.95533 82.75647
256.8284 36.892647 83.261955
258.80096 35.82148 77.245346
259.9362 36.76037 77.872185
258.80096 35.82148 77.245384
259.9362 36.760384 77.872215
261.73434 35.545387 71.8385
262.8859 36.47764 72.41683
264.19403 35.08927 66.474304
265.3795 36.008263 66.94065
264.19406 35.089287 66.474335
265.3795 36.008293 66.94069
266.4615 34.484016 61.016525
267.6595 35.390495 61.4127
268.6316 33.727486 55.47858
269.83533 34.624046 55.827614
268.63162 33.72753 55.478615
269.8354 34.624077 55.827652
270.5016 32.880714 49.91957
271.7195 33.772316 50.197315
271.835 31.926643 44.34917
273.0696 32.811424 44.5024
271.83502 31.926659 44.349197
273.0696 32.81144 44.502434
272.7298 30.834206 38.707775
273.96222 31.704979 38.741943
273.4946 29.602608 32.947533
274.72095 30.462044 32.9282
273.49457 29.602608 32.947563
274.72095 30.462059 32.928234
274.2565 28.084023 27.105028
275.48837 28.93441 27.045536
275.08292 26.366386 21.26147
276.31717 27.208305 21.187283
275.08292 26.366371 21.2615
276.31714 27.208305 21.187313
275.90472 24.49665 15.470152
277.12018 25.318596 15.374523
276.9241 22.598991 9.624629
278.11234 23.400536 9.561692
276.92404 22.598976 9.62466
278.1123 23.40055 9.561724
278.20328 20.944939 3.736136
279.36447 21.740501 3.754869
279.48337 19.556145 -2.110031
280.62924 20.35418 -2.051172
279.4833 19.556145 -2.11
280.6292 20.354195 -2.051141
280.7049 18.375038 -7.91909
281.8386 19.17353 -7.844088
282.04114 17.37101 -13.73544
283.1497 18.160774 -13.622401
282.04117 17.37101 -13.73541
283.14972 18.160805 -13.622371
283.592 16.540642 -19.582792
284.6692 17.31884 -19.414206
285.3285 15.762215 -25.462366
286.3814 16.529305 -25.257456
285.3285 15.762215 -25.462336
286.38138 16.529305 -25.257423
287.08908 14.85244 -31.340492
288.1278 15.60479 -31.148031
288.7669 13.834785 -37.1876
289.7979 14.575172 -37.02185
288.76685 13.834785 -37.18757
289.79788 14.575188 -37.021816
290.47333 12.613838 -42.99587
291.50793 13.347359 -42.846516
292.18408 11.3713 -48.736946
293.2168 12.102013 -48.588142
292.18408 11.3713 -48.736916
293.2168 12.102013 -48.58811
293.75546 10.448158 -54.46924
294.77142 11.178886 -54.308865
295.27386 9.496437 -60.255764
296.28818 10.223793 -60.1089
295.2738 9.496422 -60.255726
296.28815 10.223778 -60.108868
296.8356 8.37635 -66.01251
297.85825 9.10331 -65.876465
298.42197 7.306557 -71.7167
299.44376 8.035576 -71.56941
298.42194 7.306572 -71.71667
299.44373 8.035591 -71.56939
299.94897 6.13372 -77.38815
300.96634 6.854408 -77.26332
301.18994 4.824593 -82.99935
302.2031 5.533455 -82.938095
301.1899 4.824593 -82.99931
302.2031 5.53347 -82.93806
301.9382 3.337059 -88.544716
302.95636 4.040733 -88.588104
302.14105 1.720482 -93.97832
303.15057 2.418053 -94.13717
302.14108 1.720528 -93.97829
303.15057 2.418068 -94.13714
301.84402 0.247566 -99.30863
302.8948 0.986763 -99.55245
301.25858 -0.703178 -104.694145
302.46158 0.160072 -104.94844
301.25858 -0.703148 -104.69412
302.4616 0.160103 -104.94842
300.95013 -1.115501 -110.23603
302.19897 -0.212547 -110.36842
300.27042 -0.97187 -115.93686
301.77747 0.112419 -116.03781
300.27048 -0.971855 -115.93683
301.77756 0.112434 -116.03778
302.3908 -2.388435 -120.566635
302.3908 -2.38842 -120.56664
111.465904 -6.881416 361.24072
118.02746 -6.956078 360.10742
127.98467 -10.233467 357.6774
138.42163 -13.157173 354.40097
144.65921 -14.001183 351.72604
149.35367 -13.128609 349.56665
154.19543 -11.496834 347.43182
159.13889 -9.637276 345.04028
164.12509 -7.890862 342.35742
169.14755 -6.473015 339.47812
173.9462 -5.39933 336.1265
178.22412 -4.438576 332.13187
181.98978 -3.324867 327.71747
185.44406 -1.893562 323.13007
188.61386 0.005501 318.3291
191.38632 2.002327 313.29132
193.75812 4.165245 308.1033
195.83368 6.511452 302.769
197.7862 8.815132 297.28085
199.67142 11.134239 291.6263
201.26413 13.028252 285.81305
202.48892 14.501472 279.94778
203.67575 15.886986 274.13766
205.02557 17.342201 268.37964
206.35092 18.801674 262.5836
207.50803 20.278114 256.6659
208.51715 21.595451 250.65288
209.35748 22.796501 244.68904
210.16272 24.169945 238.73337
211.05554 25.610039 232.73045
212.02231 26.849266 226.68965
213.08765 27.894997 220.61209
214.32886 29.095024 214.53925
215.56927 30.270134 208.45454
216.73517 31.312965 202.3632
217.94254 32.307762 196.2584
219.20703 33.431557 190.15868
220.40134 34.55938 184.0621
221.5748 35.5129 177.9458
222.94708 36.3348 171.81058
224.51279 37.064644 165.66486
226.16577 37.67759 159.51169
227.9891 38.200066 153.35786
229.98941 38.65629 147.2105
232.04968 39.03985 141.08228
234.14005 39.312706 134.98807
236.33237 39.462563 128.9517
238.72003 39.47233 122.981804
238.72 39.472298 122.98182
241.3227 39.229836 117.08143
244.13339 38.733803 111.302246
244.13342 38.733833 111.302284
247.23007 38.465645 105.76041
250.35492 38.416557 100.28982
250.35489 38.416573 100.28985
252.92532 37.891685 94.62219
255.14127 37.251625 89.05715
255.14127 37.25161 89.05718
257.74918 36.890404 83.704285
260.8228 36.75811 78.380714
260.82278 36.758125 78.380745
263.7783 36.475426 72.9009
266.29172 36.00608 67.356606
266.29175 36.00611 67.35664
268.57642 35.388313 61.790363
270.75174 34.62188 56.18502
270.75177 34.62191 56.18506
272.64752 33.770164 50.51067
274.0163 32.80932 44.73245
274.01633 32.80932 44.732483
274.91348 31.702873 38.894108
275.6687 30.459984 33.053257
275.6687 30.459984 33.053288
276.4365 28.932365 27.169724
277.26254 27.206306 21.32068
277.2625 27.206306 21.32071
278.0499 25.316643 15.502628
279.0158 23.398613 9.711366
279.01575 23.398613 9.711397
280.24402 21.738564 3.939625
281.50092 20.352272 -1.861848
281.5009 20.352257 -1.861817
282.70615 19.171638 -7.662506
284.00037 18.158897 -13.431357
284.00034 18.158913 -13.431328
285.49698 17.316963 -19.200035
287.18967 16.527443 -25.022806
287.18964 16.527458 -25.022776
288.92166 15.602974 -30.91328
290.58374 14.573402 -36.798374
290.58368 14.573402 -36.79834
292.28998 13.345604 -42.617184
293.99588 12.100273 -48.35593
293.9959 12.100273 -48.3559
295.54816 11.177116 -54.096523
297.06415 10.222054 -59.905476
297.06412 10.222038 -59.90544
298.63547 9.10157 -65.66465
300.22076 8.033836 -71.35287
300.2208 8.033852 -71.352844
301.73877 6.852699 -77.05614
302.97482 5.531761 -82.76769
302.97476 5.531761 -82.767654
303.73935 4.03904 -88.47914
303.93933 2.416389 -94.10308
303.93936 2.416405 -94.10305
303.7284 0.985008 -99.58495
303.4191 0.157997 -105.01395
303.4191 0.158028 -105.013916
303.18573 -0.214699 -110.41804
302.95233 0.143883 -116.11385
302.9524 0.143898 -116.11382
302.39084 -2.38842 -120.56664
111.465904 -6.881432 361.24072
117.92681 -7.298088 360.89877
127.99392 -10.592873 358.40662
138.57965 -13.554008 355.151
144.94867 -14.41259 352.41016
149.73157 -13.549965 350.2282
154.63455 -11.931404 348.1117
159.64429 -10.092171 345.73322
164.68607 -8.382912 343.08292
169.74408 -7.014503 340.26575
174.61023 -5.962715 336.89404
178.9873 -5.002251 332.79837
182.84341 -3.89315 328.29187
186.36337 -2.467796 323.64484
189.57803 -0.56118 318.76147
192.38004 1.453743 313.61304
194.76944 3.633263 308.32236
196.85382 5.988808 302.91956
198.8093 8.293053 297.40784
200.68921 10.607536 291.74463
202.26715 12.495842 285.90445
203.47644 13.966698 280.00732
204.65286 15.352486 274.2101
206.00473 16.806404 268.4792
207.33878 18.26435 262.67148
208.49374 19.741844 256.7214
209.48901 21.062325 250.6973
210.32748 22.264778 244.71397
211.13684 23.637703 238.74138
212.03043 25.076347 232.74931
212.99536 26.314018 226.73772
214.05151 27.361488 220.68703
215.285 28.564247 214.62576
216.51862 29.742226 208.54579
217.67813 30.788765 202.45473
218.87842 31.78756 196.34601
220.13608 32.91549 190.23984
221.32617 34.0458 184.14302
222.4949 35.000328 178.04024
223.85849 35.823494 171.93147
225.41125 36.556038 165.8174
227.04889 37.172554 159.6964
228.8599 37.697197 153.57187
230.8504 38.155434 147.44405
232.89774 38.543633 141.32729
234.9693 38.82357 135.24701
237.14093 38.97962 129.2343
239.50516 38.99453 123.29882
239.50513 38.994514 123.29885
242.06961 38.763695 117.43493
244.83081 38.285347 111.68699
244.83078 38.285347 111.68703
247.88974 38.03016 106.16491
251.00113 37.99102 100.68122
251.00116 37.99105 100.68125
253.5769 37.4786 94.9641
255.79977 36.84385 89.36731
255.79974 36.84385 89.36734
258.39886 36.477562 84.04599
261.45435 36.34455 78.75357
261.4543 36.344566 78.7536
264.41006 36.064766 73.26384
266.934 35.601265 67.68186
266.93402 35.60128 67.6819
269.21912 34.989006 62.097576
271.39117 34.22695 56.487083
271.3912 34.226997 56.48712
273.2955 33.37742 50.787853
274.6808 32.419594 44.958126
274.6808 32.41961 44.958164
275.5848 31.319328 39.07278
276.33813 30.081429 33.220848
276.33813 30.081413 33.22088
277.10403 28.557808 27.353754
277.92557 26.835457 21.522877
277.92554 26.835457 21.522905
278.7012 24.954597 15.707484
279.64554 23.045525 9.929332
279.6455 23.04554 9.929363
280.85532 21.38813 4.166502
282.1088 20.00074 -1.646703
282.10876 20.00074 -1.646671
283.3141 18.819923 -7.464282
284.59775 17.810997 -13.2377
284.59775 17.811028 -13.23767
286.07907 16.974174 -19.001217
287.7575 16.189552 -24.813847
287.75748 16.189568 -24.813816
289.47736 15.271584 -30.698778
291.13263 14.247261 -36.58653
291.1326 14.247276 -36.586494
292.8325 13.022514 -42.390717
294.53552 11.778419 -48.125576
294.53546 11.778419 -48.12554
296.09204 10.855278 -53.89651
297.60785 9.901665 -59.7109
297.6078 9.901665 -59.71086
299.1771 8.78138 -65.45468
300.76248 7.712715 -71.141785
300.76248 7.71273 -71.141754
302.27664 6.535255 -76.84713
303.5135 5.219536 -82.577644
303.51346 5.219536 -82.57761
304.29022 3.729088 -88.32149
304.50143 2.109077 -93.99021
304.50143 2.109108 -93.99019
304.3294 0.659401 -99.51965
304.1111 -0.222252 -104.98606
304.11118 -0.222237 -104.986046
303.89502 -0.612419 -110.423225
303.8328 -0.291191 -116.16952
303.8329 -0.291176 -116.16949
302.3908 -2.388435 -120.56664
111.465935 -6.881432 361.2407
111.465935 -6.881416 361.24072
117.65508 -7.781578 361.4564
127.99389 -10.592888 358.40656
127.81332 -11.05349 358.90308
138.57965 -13.554008 355.15094
138.56342 -14.062599 355.6622
144.94867 -14.41259 352.4101
145.09985 -14.939842 352.85382
149.73157 -13.549965 350.22818
150.00644 -14.089928 350.62845
154.63455 -11.931404 348.11166
154.9845 -12.48835 348.50702
159.64426 -10.092171 345.73322
160.04709 -10.675163 346.1278
164.68607 -8.382927 343.0829
165.11829 -9.013496 343.4963
169.74408 -7.014519 340.26572
170.18384 -7.708488 340.72427
174.61023 -5.96273 336.89398
175.07956 -6.684776 337.34143
178.9873 -5.002251 332.79834
179.51208 -5.724617 333.17606
182.84341 -3.893166 328.29184
183.4255 -4.621452 328.6
186.36337 -2.467812 323.6448
186.99426 -3.203789 323.89865
189.578 -0.561195 318.76144
190.24298 -1.287453 318.94418
192.38004 1.453728 313.613
193.06406 0.750694 313.707
194.76944 3.633247 308.32233
195.46188 2.9515 308.33472
196.85379 5.988792 302.91956
197.5481 5.318993 302.8787
198.8093 8.293037 297.40784
199.5025 7.62394 297.35083
200.68918 10.607506 291.74463
201.37283 9.932518 291.69135
202.26715 12.495827 285.90442
202.92856 11.813484 285.85416
203.47641 13.966667 280.00732
204.11658 13.281334 279.95654
204.6528 15.352486 274.21008
205.2843 14.667519 274.177
206.0047 16.806404 268.47916
206.64041 16.119759 268.4613
207.33875 18.26435 262.67145
207.9809 17.575737 262.64032
208.49371 19.741829 256.7214
209.1307 19.054527 256.67276
209.48901 21.06231 250.6973
210.11322 20.379082 250.65231
210.32745 22.264763 244.71397
210.949 21.583382 244.65643
211.13681 23.637672 238.7414
211.76059 22.95562 238.66933
212.03043 25.076347 232.7493
212.655 24.392372 232.68613
213.61969 25.628044 226.69788
214.05145 27.361473 220.68701
214.6701 26.677757 220.67088
215.28494 28.564232 214.62576
215.89874 27.884087 214.62001
217.12787 29.065758 208.54514
217.67813 30.78875 202.45473
218.28354 30.116951 202.45421
218.87839 31.787544 196.34601
219.47894 31.120857 196.34373
220.13605 32.91546 190.23984
220.73184 32.254112 190.23381
221.32614 34.045784 184.14302
221.91937 33.387627 184.13664
222.49487 35.000298 178.04022
223.08517 34.343407 178.04523
223.85849 35.823463 171.93147
224.44308 35.168205 171.95901
225.41122 36.556023 165.8174
225.98727 35.904198 165.87183
227.04886 37.172554 159.6964
227.61472 36.525307 159.77773
228.8599 37.69718 153.57187
229.41763 37.052696 153.67636
230.8504 38.15542 147.44403
231.40143 37.51348 147.56436
232.8977 38.543617 141.32727
233.43942 37.907677 141.45898
234.96927 38.823555 135.247
235.49734 38.19668 135.39346
237.14093 38.97962 129.23428
237.65417 38.360725 129.40152
239.50513 38.99453 123.29882
240.0014 38.382195 123.49408
239.5051 38.9945 123.29884
240.00137 38.382195 123.4941
242.06958 38.76368 117.43494
242.53723 38.166283 117.66339
245.26196 37.71064 111.945045
245.26196 37.710655 111.945076
247.88971 38.03016 106.16491
248.29837 37.4721 106.43237
251.0011 37.99102 100.68122
251.40366 37.445686 100.93672
251.00113 37.991035 100.68125
251.40369 37.445686 100.93675
253.57687 37.47857 94.9641
253.97739 36.94918 95.20195
255.79977 36.843834 89.36731
256.2043 36.321236 89.588646
255.79974 36.84382 89.36734
256.2043 36.321236 89.58867
258.39883 36.477547 84.04599
258.80103 35.94845 84.27727
261.4543 36.34455 78.75357
261.8493 35.814568 78.99376
261.4543 36.344566 78.75359
261.8493 35.814583 78.99379
264.41003 36.064766 73.26383
264.80264 35.53849 73.50276
266.934 35.60125 67.68186
267.33066 35.082466 67.904366
266.93396 35.60125 67.6819
267.3307 35.08248 67.90439
269.21912 34.989006 62.09758
269.61426 34.47735 62.314884
271.39114 34.226936 56.487083
271.7823 33.720863 56.707306
271.39117 34.226982 56.487125
271.78235 33.720894 56.707344
273.69217 32.874123 50.996788
274.68073 32.419594 44.958126
275.08984 31.920128 45.140022
274.68076 32.419624 44.958164
275.08984 31.920158 45.14006
275.58475 31.319313 39.072777
276.00052 30.827766 39.23085
276.3381 30.081398 33.220848
276.75314 29.59626 33.377388
276.33813 30.081398 33.22088
276.75314 29.59626 33.37742
277.104 28.557793 27.353754
277.51636 28.077751 27.531792
277.92554 26.835457 21.522875
278.3334 26.360176 21.719921
277.9255 26.835442 21.522905
278.33337 26.36016 21.719952
278.70117 24.954597 15.707482
279.10135 24.490593 15.910425
280.03036 22.593071 10.139003
279.64548 23.045525 9.929362
280.0303 22.593056 10.139033
280.8553 21.38813 4.166502
281.22757 20.939034 4.371171
282.10876 20.000725 -1.646703
282.48038 19.550255 -1.459247
282.10873 20.000725 -1.646671
282.48035 19.550255 -1.459216
283.31406 18.819923 -7.464282
283.6877 18.369179 -7.294952
284.9658 17.365166 -13.078675
284.96582 17.365181 -13.078645
286.43814 16.53489 -18.846407
287.75748 16.189552 -24.813845
288.10745 15.756554 -24.655624
287.75748 16.189568 -24.813814
288.10745 15.756569 -24.655596
289.47736 15.271584 -30.698776
289.81854 14.846886 -30.533484
291.4688 13.829323 -36.41937
291.13263 14.247276 -36.586494
291.46875 13.829323 -36.419334
292.8325 13.022514 -42.390713
293.16223 12.608437 -42.207523
294.5355 11.778404 -48.125576
294.8629 11.365929 -47.938717
294.86288 11.365929 -47.938686
296.092 10.855278 -53.89651
296.426 10.442772 -53.73929
297.60782 9.901649 -59.7109
297.9419 9.491066 -59.55648
297.94186 9.491051 -59.55645
299.17706 8.781364 -65.45467
299.50787 8.37101 -65.284424
301.09357 7.301201 -70.97232
300.76245 7.712715 -71.141754
301.09357 7.301216 -70.97229
302.2766 6.53524 -76.84713
302.6049 6.128426 -76.675964
303.5135 5.219521 -82.57764
303.8432 4.819389 -82.41354
303.51346 5.219521 -82.5776
303.84317 4.819389 -82.413506
304.2902 3.729073 -88.32149
304.6302 3.33181 -88.17016
304.50137 2.109077 -93.99021
304.8531 1.715279 -93.86128
304.50143 2.109093 -93.99019
304.8531 1.715279 -93.86126
304.32938 0.65937 -99.51965
304.71008 0.242058 -99.42056
304.1111 -0.222267 -104.98605
304.55066 -0.709572 -104.91952
304.11115 -0.222252 -104.98604
304.55072 -0.709557 -104.9195
303.895 -0.612419 -110.423225
304.34286 -1.122139 -110.40665
303.8328 -0.291191 -116.16951
304.42886 -0.907814 -116.20679
303.83286 -0.291176 -116.16948
304.42892 -0.907799 -116.20676
117.2813 -8.332848 361.7852
127.51339 -11.55024 359.19797
138.42566 -14.611061 355.96646
145.1427 -15.5084 353.09457
150.18823 -14.672203 350.81433
155.24509 -13.088982 348.67203
160.3471 -11.303902 346.28235
165.427 -9.693565 343.6587
170.4798 -8.456917 340.9164
175.3761 -7.463463 337.52963
179.82907 -6.503654 333.3219
183.77213 -5.406868 328.69742
187.37418 -3.99752 323.94962
190.64679 -2.070671 318.93735
193.47809 -0.007515 313.63358
195.87723 2.216255 308.2007
197.96011 4.596626 302.70624
199.9108 6.902397 297.1686
201.76913 9.204597 291.52124
203.29929 11.077614 285.70792
204.46365 12.542213 279.83197
205.62442 13.928841 274.0723
206.98602 15.379311 268.36224
208.3309 16.833122 262.5278
209.47382 18.313332 256.5545
210.44522 19.64225 250.54784
211.27802 20.848488 244.54524
212.09033 22.219963 238.54639
212.98547 23.654686 232.57004
213.95102 24.888283 226.59921
214.99863 25.940468 220.59187
216.22476 27.150612 214.5498
217.45139 28.336205 208.47987
218.60516 29.392464 202.38895
219.79773 30.401878 196.2784
221.04776 31.54087 190.16684
222.23407 32.677788 184.0693
223.3984 33.634926 177.98694
224.75336 34.461525 171.9188
226.29266 35.20121 165.85304
227.91418 35.827248 159.78006
229.71252 36.357643 153.69582
231.69235 36.82122 147.59578
233.72433 37.221825 141.5009
235.77335 37.520653 135.44954
237.92062 37.69329 129.4748
240.25662 37.721855 123.5888
240.25656 37.72184 123.58881
242.77274 37.52201 117.78648
245.47296 37.090828 112.09435
245.47293 37.090843 112.09439
248.49918 36.87023 106.58308
251.60406 36.857536 101.07716
251.60406 36.857567 101.0772
254.17075 36.378227 95.34848
256.39938 35.757637 89.730606
256.39935 35.75762 89.73064
258.99838 35.37783 84.413216
262.04773 35.243004 79.122345
262.04773 35.243004 79.12238
264.99698 34.97097 73.63628
267.52435 34.52305 68.03762
267.5244 34.523064 68.03766
269.80502 33.9255 62.452385
271.96893 33.17498 56.85316
271.969 33.17501 56.853195
273.88184 32.33132 51.141808
275.28812 31.381477 45.277264
275.28812 31.381508 45.277294
276.2047 30.29766 39.362396
276.9575 29.073051 33.514233
276.95746 29.073051 33.514263
277.71774 27.56002 27.692078
278.5306 25.847603 21.898323
278.53055 25.847588 21.89835
279.29425 23.990196 16.096558
280.21347 22.10505 10.326874
280.21344 22.10505 10.326903
281.40326 20.45472 4.544633
282.65744 19.06446 -1.305516
282.6574 19.06446 -1.305485
283.868 17.883095 -7.158812
285.14444 16.884361 -12.956133
285.1445 16.884392 -12.956103
286.61304 16.061134 -18.73437
288.2775 15.289558 -24.545174
288.27747 15.289574 -24.545143
289.98276 14.388847 -30.41541
291.6297 13.378578 -36.29636
291.62967 13.378563 -36.296326
293.3171 12.161888 -42.068695
295.016 10.921059 -47.79665
295.016 10.921074 -47.79662
296.58682 9.997902 -53.624123
298.103 9.048241 -59.44209
298.103 9.048241 -59.442055
299.66513 7.928444 -65.15508
301.2512 6.857399 -70.84504
301.2512 6.857399 -70.84502
302.76065 5.689644 -76.54445
304.00073 4.38784 -82.28021
304.00064 4.38784 -82.28018
304.79596 2.903435 -88.03481
305.02997 1.290581 -93.73085
305.03 1.290611 -93.73083
304.90674 -0.208 -99.3052
304.77896 -1.23513 -104.83083
304.779 -1.2351 -104.83081
304.5726 -1.671837 -110.37596
304.75323 -1.611839 -116.2265
304.7533 -1.611809 -116.22647
302.3908 -2.38842 -120.566635
111.46587 -6.881447 361.24066
116.84875 -8.927208 361.88867
127.11697 -12.070946 359.3031
138.17822 -15.185951 356.0759
145.08575 -16.104362 353.14536
150.28159 -15.28257 350.8008
155.41913 -13.718529 348.62338
160.54752 -11.962914 346.2146
165.61713 -10.406364 343.5885
170.63882 -9.241371 340.8614
175.50922 -8.27964 337.47723
179.95035 -7.320213 333.25293
183.89716 -6.23011 328.60034
187.51767 -4.829445 323.8141
190.80438 -2.891655 318.75726
193.63766 -0.802254 313.40836
196.03162 1.44561 307.93542
198.1066 3.839531 302.41666
200.05103 6.146095 296.87524
201.89554 8.441628 291.2476
203.3974 10.306343 285.4767
204.53629 11.767464 279.64227
205.6919 13.154579 273.90387
207.06009 14.603218 268.19073
208.40738 16.05474 262.3429
209.5419 17.53643 256.37476
210.504 18.869942 250.39084
211.3334 20.078255 244.387
212.14508 21.448952 238.37918
213.04095 22.881508 232.4077
214.00839 24.112846 226.44858
215.05597 25.167564 220.45686
216.28186 26.381721 214.42194
217.50769 27.571495 208.35678
218.66153 28.633095 202.26569
219.85309 29.648338 196.15651
221.10199 30.793312 190.04535
222.2883 31.933784 183.94745
223.45255 32.892357 177.87183
224.80688 33.720848 171.81732
226.34488 34.464394 165.76767
227.96463 35.09562 159.71017
229.76175 35.629158 153.63715
231.74014 36.095665 147.54535
233.76929 36.502983 141.45992
235.81372 36.812035 135.42197
237.95642 36.993736 129.46082
240.28668 37.02973 123.58978
240.28662 37.029716 123.58981
242.79166 36.846733 117.810936
245.47867 36.441185 112.14144
245.4787 36.4412 112.14148
248.50629 36.239372 106.62423
251.61597 36.24108 101.109795
251.61597 36.24108 101.10983
254.17114 35.779747 95.408775
256.3993 35.166878 89.79742
256.39926 35.166878 89.79744
259.00497 34.77973 84.45951
262.06284 34.64393 79.14652
262.06284 34.643944 79.14656
265.00653 34.376045 73.67094
267.52887 33.936592 68.08684
267.52887 33.936607 68.08687
269.80545 33.347054 62.5144
271.96518 32.602882 56.928337
271.9652 32.602913 56.928375
273.8787 31.762413 51.225677
275.28992 30.816887 45.37109
275.28992 30.816917 45.371128
276.21173 29.742012 39.467213
276.96548 28.524635 33.63055
276.96545 28.52465 33.630585
277.72253 27.017357 27.833183
278.53165 25.31034 22.056446
278.5316 25.310326 22.056477
279.29416 23.465675 16.26393
280.20883 21.593529 10.491383
280.20877 21.593513 10.491413
281.39603 19.94703 4.686384
282.65338 18.55526 -1.185469
282.65332 18.555275 -1.185437
283.86823 17.37362 -7.055505
285.1466 16.380394 -12.869148
285.1466 16.380424 -12.869118
286.6161 15.564568 -18.663443
288.27975 14.800087 -24.480385
288.27975 14.800087 -24.480356
289.98212 13.90876 -30.342665
291.62732 12.906136 -36.215958
291.62726 12.906136 -36.215927
293.3093 11.693855 -41.972973
295.00693 10.454781 -47.698185
295.0069 10.454796 -47.698154
296.5863 9.531593 -53.549564
298.103 8.584099 -59.36639
298.10294 8.584099 -59.366352
299.66092 7.464516 -65.06552
301.2473 6.392143 -70.75867
301.24734 6.392159 -70.758644
302.7558 5.229759 -76.45162
303.99792 3.935524 -82.17749
303.99783 3.935524 -82.17745
304.79932 2.454399 -87.91657
305.0437 0.845406 -93.60144
305.04376 0.845451 -93.60141
304.9315 -0.679726 -99.17712
304.8099 -1.785988 -104.72353
304.80994 -1.785973 -104.72352
304.5987 -2.248039 -110.33301
304.812 -2.371376 -116.229004
304.81207 -2.371376 -116.22898
302.39078 -2.388435 -120.56663
116.44268 -9.544197 361.7434
126.648766 -12.608437 359.20355
137.81607 -15.779396 355.97513
144.92276 -16.719597 352.9921
150.27887 -15.912682 350.57425
155.49759 -14.368477 348.34708
160.63806 -12.643242 345.91025
165.67719 -11.14225 343.27075
170.6488 -10.051186 340.54297
175.4653 -9.122215 337.16846
179.86023 -8.163185 332.95544
183.78308 -7.079994 328.29688
187.40585 -5.688316 323.48138
190.69601 -3.739204 318.39502
193.5224 -1.622719 313.02475
195.9043 0.650002 307.534
197.96664 3.057899 302.00662
199.9024 5.365318 296.46805
201.7312 7.653969 290.86774
203.20233 9.510124 285.15848
204.31427 10.967659 279.386
205.4667 12.355232 273.67023
206.84247 13.801949 267.94458
208.19006 15.251167 262.08377
209.31473 16.734398 256.1324
210.26956 18.072655 250.18039
211.09546 19.283089 244.18114
211.90497 20.652977 238.16745
212.80145 22.083336 232.1986
213.77185 23.312355 226.24486
214.82236 24.369698 220.26418
216.05023 25.587944 214.23453
217.27734 26.782051 208.17384
218.43326 27.849129 202.08249
219.6257 28.870384 195.97632
220.87543 30.021568 189.86763
222.06311 31.165764 183.76941
223.22876 32.125755 177.6979
224.58508 32.956184 171.65207
226.12555 33.70376 165.61261
227.7479 34.34028 159.56422
229.5474 34.877098 153.49593
231.5271 35.34661 147.40828
233.5568 35.76087 141.33107
235.60147 36.080513 135.30547
237.74503 36.271507 129.3538
240.07559 36.315163 123.4906
240.07553 36.315147 123.490616
242.57864 36.14956 117.72952
245.26492 35.770515 112.0784
245.26495 35.77053 112.07843
248.30627 35.58808 106.547485
251.42615 35.604652 101.02656
251.42615 35.604683 101.02659
253.96518 35.161903 95.37586
256.1905 34.556953 89.78274
256.1905 34.55697 89.78277
258.80737 34.16227 84.409134
261.88165 34.02549 79.05858
261.88162 34.02549 79.05861
264.81824 33.761925 73.599266
267.33102 33.331184 68.04533
267.331 33.3312 68.045364
269.60242 32.7499 62.494617
271.75787 32.012245 56.926643
271.75793 32.012276 56.926685
273.66943 31.175041 51.24275
275.08163 30.234016 45.416943
275.08163 30.234032 45.41698
276.00784 29.168373 39.541725
276.7633 27.958519 33.722954
276.7633 27.958519 33.722984
277.517 26.457191 27.95139
278.32275 24.755714 22.190203
278.32272 24.7557 22.190231
279.0877 22.924202 16.408417
280.0035 21.065483 10.628115
280.00348 21.065468 10.628145
281.19333 19.422935 4.791816
282.45566 18.029594 -1.103484
282.45563 18.029594 -1.103453
283.67596 16.847649 -6.989108
284.96002 15.86013 -12.821709
284.96005 15.860146 -12.821677
286.43558 15.051903 -18.637735
288.10275 14.294777 -24.465555
288.10275 14.294777 -24.465523
289.80524 13.41317 -30.319603
291.4504 12.418434 -36.182476
291.45038 12.418434 -36.18244
293.1276 11.210655 -41.92497
294.82455 9.973427 -47.648018
294.82455 9.973442 -47.647987
296.41342 9.05024 -53.519684
297.93076 8.104958 -59.33332
297.93073 8.104958 -59.333286
299.48398 6.985634 -65.020004
301.07086 5.911934 -70.717514
301.07086 5.911949 -70.71748
302.57935 4.754997 -76.40167
303.8237 3.468559 -82.10918
303.8237 3.468559 -82.10914
304.62906 1.990868 -87.818634
304.88284 0.385872 -93.47535
304.88287 0.385887 -93.47532
304.772 -1.166695 -99.037575
304.62933 -2.354698 -104.59815
304.62936 -2.354683 -104.59813
304.40665 -2.842903 -110.27762
304.58008 -3.159996 -116.21248
304.58014 -3.159966 -116.21245
116.09002 -10.096581 361.34116
126.15368 -13.090431 358.89594
137.3775 -16.311577 355.6605
144.66644 -17.271309 352.63882
150.17212 -16.47773 350.148
155.4617 -14.951302 347.86206
160.59708 -13.253334 345.39136
165.58817 -11.802132 342.72852
170.49591 -10.777382 339.9829
175.23572 -9.8778 336.62433
179.55347 -8.919121 332.4512
183.42566 -7.84214 327.81146
187.0328 -6.458519 322.98083
190.31442 -4.499229 317.88507
193.12527 -2.358452 312.5221
195.48926 -0.063469 307.04037
197.53552 2.356972 301.5224
199.46106 4.665138 295.99335
201.27441 6.947624 290.42487
202.71637 8.796104 284.78964
203.8035 10.250465 279.09283
204.95535 11.638451 273.39795
206.33878 13.083458 267.65137
207.68427 14.530586 261.77975
208.79889 16.015175 255.85533
209.74957 17.357674 249.9409
210.57214 18.570015 243.95193
211.37827 19.93914 237.93654
212.27524 21.367561 231.96756
213.24939 22.59452 226.01163
214.30551 23.654228 220.03546
215.53772 24.876183 214.00833
216.76804 26.07412 207.95119
217.92792 27.146095 201.85942
219.12332 28.172722 195.75757
220.37576 29.329521 189.65334
221.56607 30.476982 183.55484
222.73453 31.438301 177.48415
224.0954 32.270454 171.4404
225.64209 33.0216 165.40321
227.27148 33.66294 159.35588
229.07693 34.202705 153.28465
231.06073 34.674904 147.19609
233.09448 35.09536 141.12463
235.14459 35.42449 135.10858
237.29477 35.623848 129.1607
239.63205 35.674385 123.29645
239.63202 35.67437 123.29648
242.14359 35.52442 117.54457
244.84268 35.16912 111.904724
244.84265 35.169106 111.904755
247.90915 35.004066 106.353584
251.0437 35.03396 100.82926
251.04373 35.033974 100.8293
253.56387 34.607857 95.246506
255.78427 34.010048 89.681786
255.78424 34.010048 89.681816
258.41568 33.608574 84.26096
261.5126 33.470894 78.86125
261.5126 33.47091 78.861275
264.44156 33.211235 73.42224
266.941 32.788307 67.91124
266.941 32.788307 67.91127
269.20667 32.21447 62.38893
271.3585 31.482628 56.841923
271.35858 31.482658 56.84196
273.26566 30.648338 51.18515
274.67435 29.711342 45.404568
274.67435 29.711357 45.404602
275.60333 28.653984 39.57319
276.36127 27.450844 33.776764
276.36127 27.450844 33.776794
277.11185 25.954857 28.02857
277.91525 24.258324 22.279186
277.9152 24.258324 22.279217
278.68594 22.438637 16.508266
279.6089 20.591942 10.715992
279.6089 20.591942 10.716022
280.80664 18.952995 4.843426
282.0753 17.558205 -1.073982
282.07526 17.55819 -1.07395
283.3014 16.375969 -6.971787
284.59457 15.393562 -12.823612
284.5946 15.393593 -12.823582
286.08087 14.592201 -18.664526
287.75568 13.841667 -24.506863
287.7557 13.841667 -24.506834
289.46167 12.968742 -30.35355
291.1087 11.981071 -36.20444
291.10867 11.981056 -36.204407
292.78244 10.777336 -41.935276
294.47952 9.541771 -47.65705
294.47955 9.541786 -47.65702
296.07745 8.618584 -53.542274
297.59552 7.675285 -59.350983
297.59546 7.675285 -59.35095
299.14423 6.556206 -65.02845
300.7316 5.481285 -70.73098
300.7316 5.4813 -70.73095
302.24118 4.329262 -76.40507
303.48776 3.049812 -82.08752
303.48773 3.049828 -82.08749
304.29395 1.575172 -87.75608
304.55484 -0.026222 -93.3701
304.55487 -0.026192 -93.37007
304.43484 -1.603386 -98.90476
304.24442 -2.864662 -104.470345
304.24445 -2.864632 -104.47033
304.00458 -3.376335 -110.216354
304.05646 -3.865974 -116.17699
304.05652 -3.865959 -116.176956
111.465935 -6.881432 361.24072
115.790886 -10.475304 360.72348
125.687675 -13.427788 358.40768
136.9278 -16.684044 355.1599
144.34882 -17.657433 352.12177
149.96677 -16.873207 349.57077
155.30371 -15.359215 347.22604
160.41574 -13.680305 344.7207
165.3472 -12.263969 342.02725
170.18655 -11.285667 339.24774
174.83713 -10.406624 335.9094
179.0563 -9.448204 331.80148
182.85645 -8.375557 327.20508
186.43063 -6.997536 322.37762
189.69165 -5.03112 317.2968
192.48001 -2.873344 311.97195
194.8227 -0.562767 306.52765
196.85168 1.866417 301.03784
198.76709 4.175133 295.52405
200.56787 6.4533 289.98724
201.98749 8.296394 284.42712
203.0563 9.748512 278.8085
204.2106 11.136818 273.129
205.60031 12.58062 267.35556
206.9415 14.026283 261.4774
208.0476 15.511803 255.58678
208.9985 16.857292 249.7098
209.81863 18.07093 243.73581
210.62039 19.439552 237.72363
211.51758 20.86663 231.75143
212.49564 22.09214 225.78516
213.55954 23.153496 219.80548
214.79797 24.378075 213.77733
216.03302 25.578712 207.72208
217.1984 26.65409 201.6299
218.39853 27.684502 195.5331
219.6554 28.845146 189.43478
220.8493 29.994926 183.33607
222.0217 30.957191 177.26225
223.38916 31.790535 171.21286
224.94519 32.544212 165.16873
226.58542 33.188927 159.11319
228.39981 33.73069 153.03099
230.3901 34.204765 146.93604
232.43124 34.629616 140.86653
234.49164 34.96537 134.85521
236.65369 35.17057 128.90404
239.00385 35.22593 123.02907
239.00381 35.225914 123.0291
241.53403 35.086876 117.275185
244.25894 34.74819 111.63673
244.25891 34.74819 111.636765
247.35907 34.59533 106.06152
250.51083 34.63456 100.53781
250.51083 34.63456 100.53785
253.01224 34.220116 95.03111
255.22617 33.627296 89.50134
255.22617 33.627296 89.50138
257.8733 33.221077 84.02848
260.99612 33.08274 78.57505
260.99612 33.082756 78.57508
263.91797 32.825813 73.1574
266.40237 32.408363 67.69629
266.40237 32.40838 67.69632
268.6626 31.839668 62.20503
270.81207 31.111977 56.67862
270.81213 31.112022 56.678658
272.71277 30.279762 51.053684
274.11356 29.345558 45.329014
274.1136 29.345573 45.32905
275.04324 28.293983 39.551003
275.8038 27.095543 33.778126
275.8038 27.095543 33.778156
276.5522 25.603264 28.04656
277.3547 23.910225 22.302767
277.35468 23.910225 22.302797
278.13394 22.098778 16.541006
279.06958 20.260536 10.734067
279.06955 20.260536 10.734098
280.2798 18.624092 4.825868
281.5552 17.22828 -1.108354
281.55515 17.22828 -1.108323
282.78656 16.045845 -7.012432
284.09106 15.067055 -12.880493
284.09106 15.06707 -12.880463
285.5915 14.270485 -18.74558
287.2774 13.524544 -24.604044
287.2774 13.524544 -24.604012
288.99002 12.657722 -30.445614
290.64066 11.674965 -36.28484
290.6406 11.674965 -36.284805
292.31314 10.474083 -42.009193
294.0112 9.239693 -47.730896
294.01114 9.239693 -47.73086
295.6161 8.316475 -53.61985
297.13486 7.37458 -59.42254
297.13483 7.37458 -59.422504
298.68008 6.255653 -65.09598
300.26785 5.179893 -70.803375
300.26782 5.179909 -70.80335
301.7795 4.031303 -76.46769
303.02786 2.756767 -82.12188
303.02783 2.756767 -82.12184
303.83133 1.284248 -87.7439
304.0955 -0.314659 -93.30621
304.09555 -0.314629 -93.30619
303.95612 -1.909004 -98.8022
303.69614 -3.22155 -104.361694
303.6962 -3.221519 -104.36168
303.4358 -3.749641 -110.15899
303.30063 -4.349785 -116.12659
303.30066 -4.349754 -116.126564
115.573235 -10.610146 359.98196
125.311 -13.564735 357.79678
136.53052 -16.835228 354.5328
144.01068 -17.814156 351.50397
149.68558 -17.033669 348.91476
155.0386 -15.524696 346.51947
160.11124 -13.853539 343.98355
164.97928 -12.451378 341.25623
169.75513 -11.49192 338.43045
174.31573 -10.621193 335.1141
178.4274 -9.66288 331.08896
182.14307 -8.591972 326.55585
185.67068 -7.21624 321.75046
188.90128 -5.246956 316.70822
191.66281 -3.082283 311.44876
193.98349 -0.765373 306.06677
195.99652 1.667351 300.62097
197.90329 3.976295 295.1266
199.69629 6.252693 289.61655
201.10379 8.09359 284.12222
202.16397 9.544792 278.57336
203.32346 10.933235 272.90128
204.71735 12.376564 267.09857
206.0524 13.821648 261.2192
207.15268 15.307549 255.36494
208.10834 16.654228 249.51999
208.92719 17.868416 243.56375
209.72427 19.236794 237.55966
210.62137 20.663353 231.58142
211.60303 21.888283 225.59766
212.67587 22.95031 219.60645
213.92151 24.175957 213.57378
215.16248 25.377678 207.51833
216.33408 26.454445 201.42572
217.54016 27.486412 195.33406
218.80267 28.648598 189.24234
220.00064 29.799309 183.14359
221.17758 30.76194 177.06296
222.55292 31.595787 171.00052
224.12036 32.350487 164.94067
225.77383 32.99659 158.86827
227.599 33.53916 152.76804
229.59747 34.014 146.6618
231.64856 34.440636 140.59001
233.72296 34.779076 134.57768
235.90082 34.986656 128.61624
238.2685 35.043938 122.721725
238.26846 35.043922 122.72175
240.82538 34.90931 116.95425
243.58618 34.577385 111.30655
243.58618 34.577385 111.30658
246.7244 34.42945 105.70656
249.89359 34.472466 100.18762
249.89359 34.472496 100.18765
252.37906 34.062782 94.75494
254.58578 33.471962 89.26218
254.58575 33.471977 89.26221
257.24777 33.06379 83.7394
260.39612 32.92521 78.23501
260.39612 32.92521 78.23504
263.3125 32.66938 72.83684
265.78204 32.254158 67.425964
265.78207 32.254173 67.426
268.03796 31.687569 61.964207
270.18677 30.96157 56.455086
270.18683 30.961586 56.455124
272.07974 30.130196 50.86247
273.46912 29.197151 45.197186
273.46912 29.197182 45.19722
274.397 28.147911 39.475166
275.16028 26.951363 33.72378
275.16025 26.951378 33.723812
275.90756 25.460594 27.999378
276.71097 23.769005 22.25383
276.7109 23.76899 22.253859
277.50055 21.960884 16.498144
278.45285 20.12603 10.675749
278.45282 20.126045 10.67578
279.67865 18.490623 4.737608
280.96024 17.094414 -1.205477
280.96024 17.094398 -1.205445
282.1956 15.911903 -7.108706
283.51215 14.934563 -12.987549
283.51212 14.934578 -12.987517
285.02838 14.139915 -18.872683
286.7274 13.395836 -24.746708
286.72742 13.395836 -24.746675
288.44904 12.531487 -30.58622
290.10464 11.550743 -36.415745
290.1046 11.550743 -36.41571
291.77826 10.351051 -42.140015
293.47797 9.117119 -47.86293
293.47794 9.117119 -47.862896
295.08682 8.193916 -53.744713
296.60623 7.252571 -59.541042
296.6062 7.252571 -59.54101
298.14944 6.133705 -65.21651
299.73746 5.057579 -70.92796
299.73743 5.057594 -70.92793
301.25198 3.910378 -76.58418
302.50137 2.637825 -82.21069
302.50137 2.637825 -82.21067
303.2988 1.166176 -87.786766
303.56183 -0.431679 -93.2951
303.5619 -0.431664 -93.295074
303.3948 -2.033058 -98.74606
303.0521 -3.366402 -104.28857
303.0521 -3.366371 -104.28853
302.77045 -3.901161 -110.113785
302.42636 -4.521416 -116.068924
302.42642 -4.521385 -116.06889
111.46587 -6.881432 361.24066
115.48879 -10.489571 359.22858
125.08379 -13.482246 357.14066
136.23904 -16.744164 353.8586
143.6955 -17.71975 350.86383
149.36404 -16.937004 348.26352
154.69962 -15.42498 345.83234
159.72174 -13.749184 343.2739
164.53061 -12.338493 340.51355
169.25589 -11.367683 337.6351
173.73743 -10.49192 334.3397
177.74646 -9.533516 330.40445
181.37604 -8.461586 325.94656
184.84912 -7.08448 321.17947
188.04321 -5.11692 316.19464
190.77707 -2.956413 311.01978
193.07794 -0.643303 305.7171
195.07834 1.78727 300.32553
196.9791 4.096062 294.85217
198.77008 6.373512 289.3607
200.17743 8.215736 283.9144
201.2396 9.667488 278.41782
202.40656 11.055885 272.7442
203.80188 12.499489 266.91348
205.12967 13.944939 261.0386
206.22775 15.430595 255.21855
207.19208 16.776543 249.39612
208.01099 17.990425 243.45819
208.80371 19.358955 237.46591
209.70041 20.785805 231.4796
210.68488 22.011116 225.4734
211.76666 23.072731 219.4641
213.01968 24.297737 213.42381
214.26685 25.498787 207.36623
215.4447 26.57473 201.27324
216.65717 27.605766 195.18608
217.92578 28.766975 189.10085
219.1278 29.917137 183.0022
220.30933 30.87954 176.91188
221.69281 31.713112 170.83063
223.27222 32.4672 164.74828
224.9397 33.112434 158.65245
226.77621 33.65455 152.52945
228.78345 34.128944 146.40845
230.84576 34.554497 140.33038
232.9361 34.89132 134.31136
235.13177 35.097435 128.33385
237.51938 35.153557 122.41348
237.51932 35.153557 122.413506
240.10767 35.01629 116.622536
242.91003 34.68026 110.956024
242.91 34.680275 110.956055
246.08566 34.52938 105.333725
249.27036 34.57012 99.82319
249.27039 34.57012 99.82322
251.74466 34.15757 94.45295
253.94437 33.565514 88.99446
253.94437 33.56553 88.994484
256.61853 33.158516 83.43038
259.78888 33.020058 77.88426
259.78885 33.020073 77.88429
262.70215 32.763588 72.501175
265.15887 32.347054 67.134514
265.1589 32.347084 67.13455
267.4122 31.779182 61.69689
269.5621 31.052177 56.199524
269.56216 31.052223 56.19956
271.44708 30.220299 50.63558
272.82297 29.286583 45.025578
272.82297 29.286598 45.02561
273.74692 28.235924 39.355015
274.5124 27.038216 33.62033
274.5124 27.03823 33.620358
275.25986 25.546547 27.892653
276.06577 23.854088 22.138165
276.0657 23.854088 22.138195
276.86624 22.043983 16.384645
277.8372 20.207085 10.548016
277.83716 20.2071 10.548047
279.07962 18.571022 4.589495
280.36615 17.175056 -1.353333
280.36612 17.175041 -1.353301
281.60367 15.992592 -7.248648
282.93143 15.014366 -13.13141
282.93146 15.014366 -13.131378
284.4631 14.218559 -19.029844
286.17557 13.473335 -24.916891
286.17554 13.473351 -24.916859
287.9075 12.607491 -30.757711
289.56885 11.625557 -36.58073
289.56882 11.625557 -36.580696
291.24588 10.425179 -42.311382
292.94778 9.190971 -48.036686
292.94778 9.190971 -48.03666
294.55692 8.267754 -53.901188
296.07678 7.326103 -59.6916
296.07672 7.326088 -59.69157
297.6198 6.207207 -65.37494
299.20786 5.131233 -71.08913
299.20786 5.131248 -71.089096
300.7257 3.983192 -76.739975
301.97528 2.70945 -82.342995
301.97525 2.709465 -82.34296
302.76407 1.237282 -87.87956
303.02148 -0.361153 -93.33854
303.0215 -0.361137 -93.33851
302.8222 -1.958321 -98.74383
302.39395 -3.279137 -104.26056
302.39395 -3.279121 -104.260544
302.09308 -3.809853 -110.08662
301.56516 -4.366539 -116.012764
301.56522 -4.366524 -116.01273
111.465904 -6.881416 361.2407
115.547386 -10.145226 358.5638
125.04012 -13.191597 356.52298
136.09247 -16.423256 353.22336
143.44403 -17.387077 350.28296
149.04337 -16.59629 347.6999
154.33029 -15.07357 345.25217
159.29715 -13.381325 342.68207
164.05862 -11.940575 339.89392
168.75278 -10.929771 336.96304
173.17609 -10.036324 333.68472
177.1004 -9.077705 329.83502
180.65302 -8.002052 325.4547
184.07077 -6.620094 320.7373
187.22708 -4.658684 315.8213
189.93591 -2.51281 310.7393
192.22159 -0.213142 305.52283
194.2143 2.209892 300.18887
196.11234 4.518227 294.73544
197.90738 6.7994 289.2519
199.32648 8.646263 283.82977
200.40112 10.099968 278.36157
201.57669 11.48806 272.67764
202.97049 12.932686 266.8237
204.29105 14.379387 260.95834
205.39062 15.86425 255.16605
206.36649 17.20765 249.35367
207.18686 18.420418 243.4323
207.97601 19.78939 237.45415
208.8721 21.21737 231.45877
209.85825 22.443947 225.42809
210.94781 23.504158 219.39632
212.2074 24.726906 213.3464
213.46033 25.925636 207.28493
214.64359 26.998634 201.19167
215.86209 28.026375 195.1079
217.1365 29.184258 189.02815
218.3421 30.332436 182.92972
219.52768 31.294044 176.82811
220.91852 32.12658 170.72473
222.50894 32.87847 164.61589
224.18942 33.520836 158.49313
226.0364 34.061195 152.34555
228.05191 34.533974 146.20816
230.12518 34.955757 140.1206
232.23135 35.286858 134.09012
234.44449 35.487938 128.09288
236.8519 35.539955 122.14363
236.85184 35.539925 122.143654
239.47241 35.393272 116.32234
242.3165 35.042915 110.62988
242.31653 35.04293 110.62991
245.52432 34.88154 104.99057
248.72064 34.914207 99.49096
248.72067 34.914238 99.49099
251.19003 34.491615 94.16365
253.38385 33.895287 88.7324
253.38385 33.895287 88.73244
256.06573 33.492363 83.14085
259.25174 33.354454 77.56756
259.2517 33.35447 77.56759
262.1646 33.095634 72.19324
264.61227 32.674385 66.8591
264.61234 32.6744 66.85913
266.86508 32.10206 61.437225
269.01773 31.371529 55.944607
269.01776 31.37156 55.94464
270.89536 30.53788 50.40209
272.25732 29.601707 44.836212
272.25735 29.601723 44.836246
273.1757 28.54609 39.20598
273.94275 27.344322 33.481087
273.94275 27.344337 33.481117
274.69177 25.84945 27.740171
275.50137 24.153984 21.970724
275.5013 24.153969 21.970755
276.3118 22.336754 16.2152
277.301 20.492607 10.367302
277.30093 20.492592 10.367332
278.5591 18.854393 4.400518
279.8486 17.459297 -1.532951
279.84857 17.459297 -1.53292
281.08615 16.276985 -7.414337
282.42294 15.295647 -13.293701
282.42294 15.295662 -13.29367
283.9677 14.49575 -19.19702
285.69226 13.746605 -25.092875
285.69226 13.746605 -25.092844
287.43442 12.875496 -30.938171
289.1015 11.88929 -36.758713
289.10147 11.889275 -36.75868
290.7838 10.686455 -42.50139
292.48822 9.451225 -48.229923
292.4882 9.451241 -48.229893
294.09396 8.528023 -54.06927
295.61398 7.585167 -59.855003
295.61395 7.585167 -59.854965
297.15866 6.466103 -65.55103
298.74664 5.390907 -71.26628
298.74664 5.390923 -71.26626
300.2677 4.239922 -76.915184
301.51663 2.961952 -82.50176
301.5166 2.961937 -82.50173
302.29526 1.487938 -88.01031
302.54343 -0.112679 -93.4308
302.54346 -0.112663 -93.43078
302.3113 -1.695 -98.795654
301.80573 -2.971657 -104.281166
301.80573 -2.971642 -104.28114
301.49008 -3.488243 -110.080925
300.8307 -3.926125 -115.9657
300.83075 -3.926094 -115.965675
302.39078 -2.388435 -120.566635
115.73019 -9.637611 358.064
125.18273 -12.73423 356.02176
136.10742 -15.918282 352.70724
143.28763 -16.863579 349.8342
148.76477 -16.060143 347.294
153.97842 -14.520546 344.85062
158.89249 -12.802422 342.28094
163.62405 -11.314415 339.47366
168.31 -10.240669 336.49725
172.70285 -9.319374 333.23026
176.57074 -8.360451 329.4509
180.0654 -7.278908 325.14056
183.43399 -5.889305 320.47757
186.556 -3.937523 315.63278
189.24557 -1.814735 310.63995
191.52261 0.463814 305.50543
193.5133 2.874992 300.225
195.4123 5.182594 294.78793
197.21683 7.469612 289.301
198.65784 9.323769 283.8766
199.7536 10.78051 278.40952
200.93796 12.16819 272.708
202.32758 13.614449 266.83865
203.6416 15.063133 260.98657
204.7463 16.546715 255.21207
205.7349 17.886086 249.39641
206.55795 19.097008 243.48772
207.34485 20.466682 237.52411
208.24011 21.896538 231.51985
209.22656 23.125038 225.46573
210.3219 24.183052 219.41023
211.5864 25.402306 213.34988
212.84384 26.597374 207.28331
214.0311 27.665703 201.18993
215.25446 28.688332 195.108
216.53366 29.840965 189.03206
217.74182 30.986015 182.93396
218.93039 31.946327 176.82092
220.32693 32.7772 170.69492
221.926 33.52572 164.55916
223.61688 34.163536 158.40945
225.47205 34.70112 152.2386
227.49432 35.171318 146.08534
229.5769 35.587196 139.9864
231.69687 35.909294 133.94122
233.9249 36.102455 127.92317
236.34946 36.14794 121.945755
236.34943 36.147926 121.94578
238.99881 35.986458 116.09125
241.87964 35.613594 110.36919
241.87961 35.613594 110.36921
245.11032 35.43569 104.720215
248.31293 35.455727 99.23259
248.31293 35.455727 99.23262
250.78412 35.017326 93.923676
252.97385 34.414223 88.509285
252.97382 34.414238 88.509315
255.65823 34.017754 82.90729
258.85165 33.8807 77.32454
258.85162 33.8807 77.32457
261.76694 33.618187 71.95169
264.21036 33.18949 66.6345
264.21036 33.18952 66.63453
266.46466 32.610146 61.218105
268.62122 31.874062 55.722805
268.62125 31.874092 55.72284
270.49323 31.037636 50.19187
271.8427 30.097649 44.65358
271.84274 30.097649 44.653614
272.75446 29.034172 39.04768
273.52225 27.826057 33.324547
273.52225 27.826073 33.324577
274.27396 26.326103 27.562292
275.08804 24.625908 21.77391
275.088 24.625908 21.773941
275.90628 22.797478 16.012577
276.91092 20.941917 10.157778
276.9109 20.941902 10.157808
278.1817 19.300331 4.195636
279.4719 17.906593 -1.720789
279.47186 17.906593 -1.720758
280.70743 16.72454 -7.584115
282.0499 15.738365 -13.453327
282.0499 15.73838 -13.453297
283.60376 14.931938 -19.35266
285.33762 14.176567 -25.25207
285.33762 14.176567 -25.252039
287.08862 13.297203 -31.104385
288.76074 12.304268 -36.926716
288.7607 12.304253 -36.92668
290.44952 11.097557 -42.685383
292.15628 9.860771 -48.41755
292.15625 9.860786 -48.41752
293.75552 8.937599 -54.227272
295.27545 7.992836 -60.010128
295.2754 7.992851 -60.010094
296.82336 6.873589 -65.72197
298.411 5.799553 -71.436485
298.41104 5.799568 -71.436455
299.93494 4.643929 -77.086975
301.1824 3.359306 -82.6662
301.18237 3.359306 -82.66616
301.95068 1.882378 -88.1615
302.1872 0.278343 -93.559105
302.18723 0.278358 -93.55909
301.92593 -1.280678 -98.89377
301.36078 -2.487785 -104.346664
301.36084 -2.487755 -104.34665
301.03665 -2.982094 -110.09696
300.30493 -3.27787 -115.93303
300.305 -3.27784 -115.933
302.39084 -2.388435 -120.566635
111.465904 -6.881447 361.2407
116.00927 -8.964256 357.76263
125.51858 -12.108208 355.67935
136.30646 -15.227089 352.35382
143.24857 -16.14701 349.55966
148.54883 -15.326271 347.08954
153.6643 -13.763603 344.6744
158.53085 -12.010063 342.11908
163.25406 -10.457344 339.3035
167.95865 -9.297447 336.29187
172.35461 -8.33802 333.0289
176.20145 -7.378654 329.29892
179.66266 -6.289024 325.0463
182.99167 -4.888985 320.4404
186.08511 -2.950417 315.66617
188.76303 -0.859138 310.75375
191.03937 1.39045 305.69217
193.03485 3.785347 300.45792
194.93887 6.091957 295.03223
196.75867 8.387016 289.52896
198.23224 10.251137 284.07196
199.35794 11.712013 278.57495
200.55075 13.099144 272.84842
201.93332 14.547646 266.97318
203.2421 15.999062 261.13794
204.35568 17.480858 255.36908
205.35788 18.814705 249.53487
206.18481 20.02314 243.63383
206.97101 21.393745 237.68454
207.8653 22.826195 231.67198
208.8505 24.05738 225.59682
209.94891 25.112297 219.51726
211.21622 26.326744 213.44614
212.47662 27.516838 207.37337
213.6659 28.578743 201.28
214.89264 29.594398 195.198
216.17517 30.73983 189.12386
217.38474 31.880547 183.02618
218.57492 32.83918 176.90215
219.97491 33.66781 170.75414
221.57947 34.411644 164.59222
223.27716 35.04325 158.41685
225.1376 35.57705 152.22543
227.16446 36.04374 146.05768
229.25415 36.451546 139.94577
231.38474 36.761284 133.88292
233.62405 36.94361 127.84384
236.06186 36.98017 121.8405
236.06183 36.980156 121.840515
238.73465 36.798393 115.95112
241.64459 36.39469 110.19671
241.64456 36.39469 110.19675
244.88635 36.194206 104.54705
248.08868 36.196938 99.07205
248.08875 36.196968 99.07208
250.5694 35.736885 93.75241
252.75732 35.12455 88.34209
252.7573 35.12455 88.34212
255.43811 34.7369 82.749725
258.62912 34.60102 77.178345
258.62912 34.60102 77.178375
261.54977 34.333458 71.798515
263.9947 33.89463 66.479515
263.99472 33.89463 66.479546
266.2528 33.305626 61.056576
268.41452 32.56196 55.550133
268.41458 32.56199 55.550175
270.28314 31.721687 50.018887
271.62234 30.776482 44.487827
271.62238 30.776497 44.487858
272.52673 29.702248 38.886658
273.29428 28.48542 33.15596
273.29428 28.48542 33.15599
274.04965 26.978554 27.364141
274.86896 25.271873 21.553196
274.86896 25.271873 21.553226
275.6921 23.428108 15.781957
276.70825 21.556923 9.925649
276.70822 21.556923 9.925679
277.98764 19.910713 3.98277
279.27588 18.518806 -1.908645
279.27582 18.518806 -1.908614
280.5072 17.337135 -7.750076
281.8512 16.344322 -13.601863
281.8512 16.344353 -13.601832
283.4092 15.52903 -19.487215
285.1485 14.765099 -25.383968
285.1485 14.765099 -25.38394
286.9064 13.874413 -31.245888
288.58246 12.872292 -37.074814
288.58246 12.872292 -37.07478
290.27866 11.660316 -42.853207
291.98758 10.42141 -48.589317
291.98755 10.42141 -48.589283
293.5771 9.498238 -54.365765
295.09656 8.55088 -60.14797
295.09653 8.55088 -60.147934
296.64932 7.431343 -65.8784
298.23657 6.358879 -71.59014
298.23657 6.35891 -71.59011
299.76266 5.196861 -77.24625
301.00787 3.903175 -82.82888
301.00784 3.90316 -82.82885
301.76614 2.422264 -88.32863
301.98883 0.813545 -93.7224
301.98886 0.81356 -93.722374
301.70404 -0.713493 -99.04014
301.10294 -1.825447 -104.46045
301.10294 -1.825432 -104.460434
300.7779 -2.289299 -110.13713
300.02686 -2.418587 -115.9172
300.02695 -2.418556 -115.91717
POLYGONS 2702 10808
3 0 1 2
3 0 2 3
3 3 2 4
3 3 4 5
3 5 4 6
3 5 6 7
3 7 6 8
3 7 8 9
3 9 8 10
3 9 10 11
3 11 10 12
3 11 12 13
3 13 12 14
3 13 14 15
3 15 14 16
3 15 16 17
3 17 16 18
3 17 18 19
3 19 18 20
3 19 20 21
3 21 20 22
3 21 22 23
3 23 22 24
3 23 24 25
3 25 24 26
3 25 26 27
3 27 26 28
3 27 28 29
3 29 28 30
3 29 30 31
3 31 30 32
3 31 32 33
3 33 32 34
3 33 34 35
3 35 34 36
3 35 36 37
3 37 36 38
3 37 38 39
3 39 38 40
3 39 40 41
3 41 40 42
3 41 42 43
3 43 42 44
3 43 44 45
3 45 44 46
3 45 46 47
3 47 46 48
3 47 48 49
3 49 48 50
3 49 50 51
3 51 50 52
3 51 52 53
3 53 52 54
3 53 54 55
3 55 54 56
3 55 56 57
3 57 56 58
3 57 58 59
3 59 58 60
3 59 60 61
3 61 60 62
3 61 62 63
3 63 62 64
3 63 64 65
3 65 64 66
3 65 66 67
3 67 66 68
3 67 68 69
3 69 68 70
3 69 70 71
3 71 70 72
3 71 72 73
3 73 72 74
3 73 74 75
3 75 74 76
3 75 76 77
3 77 76 78
3 77 78 79
3 79 78 80
3 79 80 81
3 81 80 82
3 81 82 83
3 83 82 84
3 83 84 85
3 85 84 86
3 85 86 87
3 87 86 88
3 87 88 89
3 89 88 90
3 89 90 91
3 91 90 92
3 91 92 93
3 93 92 94
3 95 96 97
3 97 96 98
3 97 98 99
3 99 98 100
3 101 102 103
3 103 102 104
3 103 104 105
3 105 104 106
3 107 108 109
3 109 108 110
3 109 110 111
3 111 110 112
3 113 114 115
3 115 114 116
3 115 116 117
3 117 116 118
3 119 120 121
3 121 120 122
3 121 122 123
3 123 122 124
3 125 126 127
3 127 126 128
3 127 128 129
3 129 128 130
3 131 132 133
3 133 132 134
3 133 134 135
3 135 134 136
3 137 138 139
3 139 138 140
3 139 140 141
3 141 140 142
3 143 144 145
3 145 144 146
3 145 146 147
3 147 146 148
3 149 150 151
3 151 150 152
3 151 152 153
3 153 152 154
3 155 156 157
3 157 156 158
3 157 158 159
3 159 158 160
3 161 162 163
3 163 162 164
3 163 164 165
3 165 164 166
3 167 168 169
3 169 168 170
3 169 170 171
3 171 170 172
3 173 174 175
3 175 174 176
3 175 176 177
3 177 176 178
3 179 180 181
3 181 180 182
3 181 182 183
3 183 182 184
3 185 186 187
3 187 186 188
3 187 188 189
3 189 188 190
3 191 192 193
3 193 192 194
3 193 194 195
3 195 194 196
3 197 198 199
3 199 198 200
3 199 200 201
3 201 200 202
3 203 204 205
3 205 204 206
3 205 206 207
3 207 206 208
3 209 210 211
3 211 210 212
3 211 212 213
3 213 212 214
3 215 216 217
3 217 216 218
3 217 218 219
3 219 218 220
3 221 222 223
3 223 222 224
3 1 225 2
3 2 225 226
3 2 226 4
3 4 226 227
3 4 227 6
3 6 227 228
3 6 228 8
3 8 228 229
3 8 229 10
3 10 229 230
3 10 230 12
3 12 230 231
3 12 231 14
3 14 231 232
3 14 232 16
3 16 232 233
3 16 233 18
3 18 233 234
3 18 234 20
3 20 234 235
3 20 235 22
3 22 235 236
3 22 236 24
3 24 236 237
3 24 237 26
3 26 237 238
3 26 238 28
3 28 238 239
3 28 239 30
3 30 239 240
3 30 240 32
3 32 240 241
3 32 241 34
3 34 241 242
3 34 242 36
3 36 242 243
3 36 243 38
3 38 243 244
3 38 244 40
3 40 244 245
3 40 245 42
3 42 245 246
3 42 246 44
3 44 246 247
3 44 247 46
3 46 247 248
3 46 248 48
3 48 248 249
3 48 249 50
3 50 249 250
3 50 250 52
3 52 250 251
3 52 251 54
3 54 251 252
3 54 252 56
3 56 252 253
3 56 253 58
3 58 253 254
3 58 254 60
3 60 254 255
3 60 255 62
3 62 255 256
3 62 256 64
3 64 256 257
3 64 257 66
3 66 257 258
3 66 258 68
3 68 258 259
3 68 259 70
3 70 259 260
3 70 260 72
3 72 260 261
3 72 261 74
3 74 261 262
3 74 262 76
3 76 262 263
3 76 263 78
3 78 263 264
3 78 264 80
3 80 264 265
3 80 265 82
3 82 265 266
3 82 266 84
3 84 266 267
3 84 267 86
3 86 267 268
3 86 268 88
3 88 268 269
3 88 269 90
3 90 269 270
3 90 270 92
3 92 270 271
3 92 271 94
3 94 271 272
3 96 273 98
3 98 273 274
3 98 274 100
3 100 274 275
3 102 276 104
3 104 276 277
3 104 277 106
3 106 277 278
3 108 279 110
3 110 279 280
3 110 280 112
3 112 280 281
3 114 282 116
3 116 282 283
3 116 283 118
3 118 283 284
3 120 285 122
3 122 285 286
3 122 286 124
3 124 286 287
3 126 288 128
3 128 288 289
3 128 289 130
3 130 289 290
3 132 291 134
3 134 291 292
3 134 292 136
3 136 292 293
3 138 294 140
3 140 294 295
3 140 295 142
3 142 295 296
3 144 297 146
3 146 297 298
3 146 298 148
3 148 298 299
3 150 300 152
3 152 300 301
3 152 301 154
3 154 301 302
3 156 303 158
3 158 303 304
3 158 304 160
3 160 304 305
3 162 306 164
3 164 306 307
3 164 307 166
3 166 307 308
3 168 309 170
3 170 309 310
3 170 310 172
3 172 310 311
3 174 312 176
3 176 312 313
3 176 313 178
3 178 313 314
3 180 315 182
3 182 315 316
3 182 316 184
3 184 316 317
3 186 318 188
3 188 318 319
3 188 319 190
3 190 319 320
3 192 321 194
3 194 321 322
3 194 322 196
3 196 322 323
3 198 324 200
3 200 324 325
3 200 325 202
3 202 325 326
3 204 327 206
3 206 327 328
3 206 328 208
3 208 328 329
3 210 330 212
3 212 330 331
3 212 331 214
3 214 331 332
3 216 333 218
3 218 333 334
3 218 334 220
3 220 334 335
3 222 336 224
3 224 336 337
3 225 338 226
3 226 338 339
3 226 339 227
3 227 339 340
3 227 340 228
3 228 340 341
3 228 341 229
3 229 341 342
3 229 342 230
3 230 342 343
3 230 343 231
3 231 343 344
3 231 344 232
3 232 344 345
3 232 345 233
3 233 345 346
3 233 346 234
3 234 346 347
3 234 347 235
3 235 347 348
3 235 348 236
3 236 348 349
3 236 349 237
3 237 349 350
3 237 350 238
3 238 350 351
3 238 351 239
3 239 351 352
3 239 352 240
3 240 352 353
3 240 353 241
3 241 353 354
3 241 354 242
3 242 354 355
3 242 355 243
3 243 355 356
3 243 356 244
3 244 356 357
3 244 357 245
3 245 357 358
3 245 358 246
3 246 358 359
3 246 359 247
3 247 359 360
3 247 360 248
3 248 360 361
3 248 361 249
3 249 361 362
3 249 362 250
3 250 362 363
3 250 363 251
3 251 363 364
3 251 364 252
3 252 364 365
3 252 365 253
3 253 365 366
3 253 366 254
3 254 366 367
3 254 367 255
3 255 367 368
3 255 368 256
3 256 368 369
3 256 369 257
3 257 369 370
3 257 370 258
3 258 370 371
3 258 371 259
3 259 371 372
3 259 372 260
3 260 372 373
3 260 373 261
3 261 373 374
3 261 374 262
3 262 374 375
3 262 375 263
3 263 375 376
3 263 376 264
3 264 376 377
3 264 377 265
3 265 377 378
3 265 378 266
3 266 378 379
3 266 379 267
3 267 379 380
3 267 380 268
3 268 380 381
3 268 381 269
3 269 381 382
3 269 382 270
3 270 382 383
3 270 383 271
3 271 383 384
3 271 384 272
3 272 384 385
3 273 386 274
3 274 386 387
3 274 387 275
3 275 387 388
3 276 389 277
3 277 389 390
3 277 390 278
3 278 390 391
3 279 392 280
3 280 392 393
3 280 393 281
3 281 393 394
3 282 395 283
3 283 395 396
3 283 396 284
3 284 396 397
3 285 398 286
3 286 398 399
3 286 399 287
3 287 399 400
3 288 401 289
3 289 401 402
3 289 402 290
3 290 402 403
3 291 404 292
3 292 404 405
3 292 405 293
3 293 405 406
3 294 407 295
3 295 407 408
3 295 408 296
3 296 408 409
3 297 410 298
3 298 410 411
3 298 411 299
3 299 411 412
3 300 413 301
3 301 413 414
3 301 414 302
3 302 414 415
3 303 416 304
3 304 416 417
3 304 417 305
3 305 417 418
3 306 419 307
3 307 419 420
3 307 420 308
3 308 420 421
3 309 422 310
3 310 422 423
3 310 423 311
3 311 423 424
3 312 425 313
3 313 425 426
3 313 426 314
3 314 426 427
3 315 428 316
3 316 428 429
3 316 429 317
3 317 429 430
3 318 431 319
3 319 431 432
3 319 432 320
3 320 432 433
3 321 434 322
3 322 434 435
3 322 435 323
3 323 435 436
3 324 437 325
3 325 437 438
3 325 438 326
3 326 438 439
3 327 440 328
3 328 440 441
3 328 441 329
3 329 441 442
3 330 443 331
3 331 443 444
3 331 444 332
3 332 444 445
3 333 446 334
3 334 446 447
3 334 447 335
3 335 447 448
3 336 449 337
3 337 448 450
3 451 452 339
3 339 452 453
3 339 453 454
3 454 453 455
3 454 455 456
3 456 455 457
3 456 457 458
3 458 457 459
3 458 459 460
3 460 459 461
3 460 461 462
3 462 461 463
3 462 463 464
3 464 463 465
3 464 465 466
3 466 465 467
3 466 467 468
3 468 467 469
3 468 469 470
3 470 469 471
3 470 471 472
3 472 471 473
3 472 473 474
3 474 473 475
3 474 475 476
3 476 475 477
3 476 477 478
3 478 477 479
3 478 479 480
3 480 479 481
3 480 481 482
3 482 481 483
3 482 483 484
3 484 483 485
3 484 485 486
3 486 485 487
3 486 487 488
3 488 487 489
3 488 489 490
3 490 489 491
3 490 491 492
3 492 491 493
3 492 493 494
3 494 493 495
3 494 495 496
3 496 495 497
3 496 497 498
3 498 497 499
3 498 499 500
3 500 499 501
3 500 501 502
3 502 501 503
3 502 503 504
3 504 503 505
3 504 505 506
3 506 505 507
3 506 507 508
3 508 507 509
3 508 509 368
3 368 509 510
3 368 510 511
3 511 510 512
3 511 512 513
3 513 512 514
3 513 514 371
3 371 514 515
3 371 515 516
3 516 515 517
3 516 517 518
3 518 517 519
3 518 519 520
3 520 519 521
3 520 521 522
3 522 521 523
3 522 523 524
3 524 523 525
3 524 525 526
3 526 525 527
3 526 527 528
3 528 527 529
3 528 529 530
3 530 529 531
3 530 531 532
3 532 531 533
3 532 533 534
3 534 533 535
3 534 535 536
3 536 535 537
3 536 537 538
3 538 537 539
3 538 539 540
3 540 539 541
3 540 541 542
3 542 541 543
3 544 545 546
3 546 545 547
3 546 547 388
3 388 547 548
3 389 549 550
3 550 549 551
3 550 551 552
3 552 551 553
3 554 555 556
3 556 555 557
3 556 557 558
3 558 557 559
3 560 561 562
3 562 561 563
3 562 563 564
3 564 563 565
3 566 567 568
3 568 567 569
3 568 569 570
3 570 569 571
3 572 573 574
3 574 573 575
3 574 575 576
3 576 575 577
3 578 579 405
3 405 579 580
3 405 580 581
3 581 580 582
3 583 584 585
3 585 584 586
3 585 586 587
3 587 586 588
3 589 590 591
3 591 590 592
3 591 592 593
3 593 592 594
3 595 596 597
3 597 596 598
3 597 598 415
3 415 598 599
3 600 601 602
3 602 601 603
3 602 603 604
3 604 603 605
3 606 607 608
3 608 607 609
3 608 609 421
3 421 609 610
3 422 611 423
3 423 611 612
3 423 612 613
3 613 612 614
3 615 616 617
3 617 616 618
3 617 618 427
3 427 618 619
3 620 621 622
3 622 621 623
3 622 623 624
3 624 623 625
3 431 626 627
3 627 626 628
3 627 628 629
3 629 628 630
3 434 631 632
3 632 631 633
3 632 633 436
3 436 633 634
3 635 636 637
3 637 636 638
3 637 638 639
3 639 638 640
3 641 642 643
3 643 642 644
3 643 644 645
3 645 644 646
3 647 648 649
3 649 648 650
3 649 650 651
3 651 650 652
3 653 654 655
3 655 654 656
3 655 656 657
3 657 656 658
3 659 660 223
3 223 660 337
3 452 338 453
3 453 338 661
3 453 661 455
3 455 661 662
3 455 662 457
3 457 662 663
3 457 663 459
3 459 663 664
3 459 664 461
3 461 664 665
3 461 665 463
3 463 665 666
3 463 666 465
3 465 666 667
3 465 667 467
3 467 667 668
3 467 668 469
3 469 668 669
3 469 669 471
3 471 669 670
3 471 670 473
3 473 670 671
3 473 671 475
3 475 671 672
3 475 672 477
3 477 672 673
3 477 673 479
3 479 673 674
3 479 674 481
3 481 674 675
3 481 675 483
3 483 675 676
3 483 676 485
3 485 676 677
3 485 677 487
3 487 677 678
3 487 678 489
3 489 678 679
3 489 679 491
3 491 679 680
3 491 680 493
3 493 680 681
3 493 681 495
3 495 681 682
3 495 682 497
3 497 682 683
3 497 683 499
3 499 683 684
3 499 684 501
3 501 684 685
3 501 685 503
3 503 685 686
3 503 686 505
3 505 686 687
3 505 687 507
3 507 687 688
3 507 688 509
3 509 688 689
3 509 689 510
3 510 689 690
3 510 690 512
3 512 690 691
3 512 691 514
3 514 691 692
3 514 692 515
3 515 692 693
3 515 693 517
3 517 693 694
3 517 694 519
3 519 694 695
3 519 695 521
3 521 695 696
3 521 696 523
3 523 696 697
3 523 697 525
3 525 697 698
3 525 698 527
3 527 698 699
3 527 699 529
3 529 699 700
3 529 700 531
3 531 700 701
3 531 701 533
3 533 701 702
3 533 702 535
3 535 702 703
3 535 703 537
3 537 703 704
3 537 704 539
3 539 704 705
3 539 705 541
3 541 705 706
3 541 706 543
3 543 706 707
3 545 708 547
3 547 708 709
3 547 709 548
3 548 709 710
3 549 711 551
3 551 711 712
3 551 712 553
3 553 712 713
3 555 714 557
3 557 714 715
3 557 715 559
3 559 715 716
3 561 717 563
3 563 717 718
3 563 718 565
3 565 718 719
3 567 720 569
3 569 720 721
3 569 721 571
3 571 721 722
3 573 723 575
3 575 723 724
3 575 724 577
3 577 724 725
3 579 726 580
3 580 726 727
3 580 727 582
3 582 727 728
3 584 729 586
3 586 729 730
3 586 730 588
3 588 730 731
3 590 732 592
3 592 732 733
3 592 733 594
3 594 733 734
3 596 735 598
3 598 735 736
3 598 736 599
3 599 736 737
3 601 738 603
3 603 738 739
3 603 739 605
3 605 739 740
3 607 741 609
3 609 741 742
3 609 742 610
3 610 742 743
3 611 744 612
3 612 744 745
3 612 745 614
3 614 745 746
3 616 747 618
3 618 747 748
3 618 748 619
3 619 748 749
3 621 750 623
3 623 750 751
3 623 751 625
3 625 751 752
3 626 753 628
3 628 753 754
3 628 754 630
3 630 754 755
3 631 756 633
3 633 756 757
3 633 757 634
3 634 757 758
3 636 759 638
3 638 759 760
3 638 760 640
3 640 760 761
3 642 762 644
3 644 762 763
3 644 763 646
3 646 763 764
3 648 765 650
3 650 765 766
3 650 766 652
3 652 766 767
3 654 768 656
3 656 768 769
3 656 769 658
3 658 769 770
3 660 771 337
3 337 771 772
3 338 773 661
3 661 773 774
3 661 774 662
3 662 774 775
3 662 775 663
3 663 775 776
3 663 776 664
3 664 776 777
3 664 777 665
3 665 777 778
3 665 778 666
3 666 778 779
3 666 779 667
3 667 779 780
3 667 780 668
3 668 780 781
3 668 781 669
3 669 781 782
3 669 782 670
3 670 782 783
3 670 783 671
3 671 783 784
3 671 784 672
3 672 784 785
3 672 785 673
3 673 785 786
3 673 786 674
3 674 786 787
3 674 787 675
3 675 787 788
3 675 788 676
3 676 788 789
3 676 789 677
3 677 789 790
3 677 790 678
3 678 790 791
3 678 791 679
3 679 791 792
3 679 792 680
3 680 792 793
3 680 793 681
3 681 793 794
3 681 794 682
3 682 794 795
3 682 795 683
3 683 795 796
3 683 796 684
3 684 796 797
3 684 797 685
3 685 797 798
3 685 798 686
3 686 798 799
3 686 799 687
3 687 799 800
3 687 800 688
3 688 800 801
3 688 801 689
3 689 801 802
3 689 802 690
3 690 802 803
3 690 803 691
3 691 803 804
3 691 804 692
3 692 804 805
3 692 805 693
3 693 805 806
3 693 806 694
3 694 806 807
3 694 807 695
3 695 807 808
3 695 808 696
3 696 808 809
3 696 809 697
3 697 809 810
3 697 810 698
3 698 810 811
3 698 811 699
3 699 811 812
3 699 812 700
3 700 812 813
3 700 813 701
3 701 813 814
3 701 814 702
3 702 814 815
3 702 815 703
3 703 815 816
3 703 816 704
3 704 816 817
3 704 817 705
3 705 817 818
3 705 818 706
3 706 818 819
3 706 819 707
3 707 819 820
3 708 821 709
3 709 821 822
3 709 822 710
3 710 822 823
3 711 824 712
3 712 824 825
3 712 825 713
3 713 825 826
3 714 827 715
3 715 827 828
3 715 828 716
3 716 828 829
3 717 830 718
3 718 830 831
3 718 831 719
3 719 831 832
3 720 833 721
3 721 833 834
3 721 834 722
3 722 834 835
3 723 836 724
3 724 836 837
3 724 837 725
3 725 837 838
3 726 839 727
3 727 839 840
3 727 840 728
3 728 840 841
3 729 842 730
3 730 842 843
3 730 843 731
3 731 843 844
3 732 845 733
3 733 845 846
3 733 846 734
3 734 846 847
3 735 848 736
3 736 848 849
3 736 849 737
3 737 849 850
3 738 851 739
3 739 851 852
3 739 852 740
3 740 852 853
3 741 854 742
3 742 854 855
3 742 855 743
3 743 855 856
3 744 857 745
3 745 857 858
3 745 858 746
3 746 858 859
3 747 860 748
3 748 860 861
3 748 861 749
3 749 861 862
3 750 863 751
3 751 863 864
3 751 864 752
3 752 864 865
3 753 866 754
3 754 866 867
3 754 867 755
3 755 867 868
3 756 869 757
3 757 869 870
3 757 870 758
3 758 870 871
3 759 872 760
3 760 872 873
3 760 873 761
3 761 873 874
3 762 875 763
3 763 875 876
3 763 876 764
3 764 876 877
3 765 878 766
3 766 878 879
3 766 879 767
3 767 879 880
3 768 881 769
3 769 881 882
3 769 882 770
3 770 882 883
3 771 884 772
3 772 884 885
3 451 1 774
3 774 1 886
3 774 886 775
3 775 886 887
3 775 887 776
3 776 887 888
3 776 888 777
3 777 888 889
3 777 889 778
3 778 889 890
3 778 890 779
3 779 890 891
3 779 891 780
3 780 891 892
3 780 892 781
3 781 892 893
3 781 893 782
3 782 893 894
3 782 894 783
3 783 894 895
3 783 895 784
3 784 895 896
3 784 896 785
3 785 896 897
3 785 897 786
3 786 897 898
3 786 898 787
3 787 898 899
3 787 899 788
3 788 899 900
3 788 900 789
3 789 900 901
3 789 901 790
3 790 901 902
3 790 902 791
3 791 902 903
3 791 903 792
3 792 903 904
3 792 904 793
3 793 904 905
3 793 905 794
3 794 905 906
3 794 906 795
3 795 906 907
3 795 907 796
3 796 907 908
3 796 908 797
3 797 908 909
3 797 909 798
3 798 909 910
3 798 910 799
3 799 910 911
3 799 911 800
3 800 911 912
3 800 912 801
3 801 912 913
3 801 913 802
3 802 913 914
3 802 914 803
3 803 914 915
3 803 915 804
3 804 915 916
3 804 916 805
3 805 916 917
3 805 917 806
3 806 917 918
3 806 918 807
3 807 918 919
3 807 919 808
3 808 919 920
3 808 920 809
3 809 920 921
3 809 921 810
3 810 921 922
3 810 922 811
3 811 922 923
3 811 923 812
3 812 923 924
3 812 924 813
3 813 924 925
3 813 925 814
3 814 925 926
3 814 926 815
3 815 926 927
3 815 927 816
3 816 927 928
3 816 928 817
3 817 928 929
3 817 929 818
3 818 929 930
3 818 930 819
3 819 930 931
3 819 931 820
3 820 931 932
3 821 933 822
3 822 933 934
3 822 934 823
3 823 934 935
3 824 936 825
3 825 936 937
3 825 937 826
3 826 937 938
3 827 939 828
3 828 939 940
3 828 940 829
3 829 940 941
3 830 942 831
3 831 942 943
3 831 943 832
3 832 943 944
3 833 945 834
3 834 945 946
3 834 946 835
3 835 946 947
3 836 948 837
3 837 948 949
3 837 949 838
3 838 949 950
3 839 951 840
3 840 951 952
3 840 952 841
3 841 952 953
3 842 954 843
3 843 954 955
3 843 955 844
3 844 955 956
3 845 957 846
3 846 957 958
3 846 958 847
3 847 958 959
3 848 960 849
3 849 960 961
3 849 961 850
3 850 961 962
3 851 963 852
3 852 963 964
3 852 964 853
3 853 964 965
3 854 966 855
3 855 966 967
3 855 967 856
3 856 967 968
3 857 969 858
3 858 969 970
3 858 970 859
3 859 970 971
3 860 972 861
3 861 972 973
3 861 973 862
3 862 973 974
3 863 975 864
3 864 975 976
3 864 976 865
3 865 976 977
3 866 978 867
3 867 978 979
3 867 979 868
3 868 979 980
3 869 981 870
3 870 981 982
3 870 982 871
3 871 982 983
3 872 984 873
3 873 984 985
3 873 985 874
3 874 985 986
3 875 987 876
3 876 987 988
3 876 988 877
3 877 988 989
3 878 990 879
3 879 990 991
3 879 991 880
3 880 991 992
3 881 993 882
3 882 993 994
3 882 994 883
3 883 994 995
3 884 996 885
3 885 996 223
3 886 1 997
3 886 997 887
3 887 997 998
3 887 998 888
3 888 998 999
3 888 999 889
3 889 999 1000
3 889 1000 890
3 890 1000 1001
3 890 1001 891
3 891 1001 1002
3 891 1002 892
3 892 1002 1003
3 892 1003 893
3 893 1003 1004
3 893 1004 894
3 894 1004 1005
3 894 1005 895
3 895 1005 1006
3 895 1006 896
3 896 1006 1007
3 896 1007 897
3 897 1007 1008
3 897 1008 898
3 898 1008 1009
3 898 1009 899
3 899 1009 1010
3 899 1010 900
3 900 1010 1011
3 900 1011 901
3 901 1011 1012
3 901 1012 902
3 902 1012 1013
3 902 1013 903
3 903 1013 1014
3 903 1014 904
3 904 1014 1015
3 904 1015 905
3 905 1015 1016
3 905 1016 906
3 906 1016 1017
3 906 1017 907
3 907 1017 1018
3 907 1018 908
3 908 1018 1019
3 908 1019 909
3 909 1019 1020
3 909 1020 910
3 910 1020 1021
3 910 1021 911
3 911 1021 1022
3 911 1022 912
3 912 1022 1023
3 912 1023 913
3 913 1023 1024
3 913 1024 914
3 914 1024 1025
3 914 1025 915
3 915 1025 1026
3 915 1026 916
3 916 1026 1027
3 916 1027 917
3 917 1027 1028
3 917 1028 918
3 918 1028 1029
3 918 1029 919
3 919 1029 1030
3 919 1030 920
3 920 1030 1031
3 920 1031 921
3 921 1031 1032
3 921 1032 922
3 922 1032 1033
3 922 1033 923
3 923 1033 1034
3 923 1034 924
3 924 1034 1035
3 924 1035 925
3 925 1035 1036
3 925 1036 926
3 926 1036 1037
3 926 1037 927
3 927 1037 1038
3 927 1038 928
3 928 1038 1039
3 928 1039 929
3 929 1039 1040
3 929 1040 930
3 930 1040 1041
3 930 1041 931
3 931 1041 1042
3 931 1042 932
3 932 1042 1043
3 933 1044 934
3 934 1044 1045
3 934 1045 935
3 935 1045 1046
3 936 1047 937
3 937 1047 1048
3 937 1048 938
3 938 1048 1049
3 939 1050 940
3 940 1050 1051
3 940 1051 941
3 941 1051 1052
3 942 1053 943
3 943 1053 1054
3 943 1054 944
3 944 1054 1055
3 945 1056 946
3 946 1056 1057
3 946 1057 947
3 947 1057 1058
3 948 1059 949
3 949 1059 1060
3 949 1060 950
3 950 1060 1061
3 951 1062 952
3 952 1062 1063
3 952 1063 953
3 953 1063 1064
3 954 1065 955
3 955 1065 1066
3 955 1066 956
3 956 1066 1067
3 957 1068 958
3 958 1068 1069
3 958 1069 959
3 959 1069 1070
3 960 1071 961
3 961 1071 1072
3 961 1072 962
3 962 1072 1073
3 963 1074 964
3 964 1074 1075
3 964 1075 965
3 965 1075 1076
3 966 1077 967
3 967 1077 1078
3 967 1078 968
3 968 1078 1079
3 969 1080 970
3 970 1080 1081
3 970 1081 971
3 971 1081 1082
3 972 1083 973
3 973 1083 1084
3 973 1084 974
3 974 1084 1085
3 975 1086 976
3 976 1086 1087
3 976 1087 977
3 977 1087 1088
3 978 1089 979
3 979 1089 1090
3 979 1090 980
3 980 1090 1091
3 981 1092 982
3 982 1092 1093
3 982 1093 983
3 983 1093 1094
3 984 1095 985
3 985 1095 1096
3 985 1096 986
3 986 1096 1097
3 987 1098 988
3 988 1098 1099
3 988 1099 989
3 989 1099 1100
3 990 1101 991
3 991 1101 1102
3 991 1102 992
3 992 1102 1103
3 993 1104 994
3 994 1104 1105
3 994 1105 995
3 995 1105 1106
3 996 1107 223
3 1 1108 997
3 997 1108 1109
3 997 1109 998
3 998 1109 1110
3 998 1110 999
3 999 1110 1111
3 999 1111 1000
3 1000 1111 1112
3 1000 1112 1001
3 1001 1112 1113
3 1001 1113 1002
3 1002 1113 1114
3 1002 1114 1003
3 1003 1114 1115
3 1003 1115 1004
3 1004 1115 1116
3 1004 1116 1005
3 1005 1116 1117
3 1005 1117 1006
3 1006 1117 1118
3 1006 1118 1007
3 1007 1118 1119
3 1007 1119 1008
3 1008 1119 1120
3 1008 1120 1009
3 1009 1120 1121
3 1009 1121 1010
3 1010 1121 1122
3 1010 1122 1011
3 1011 1122 1123
3 1011 1123 1012
3 1012 1123 1124
3 1012 1124 1013
3 1013 1124 1125
3 1013 1125 1014
3 1014 1125 1126
3 1014 1126 1015
3 1015 1126 1127
3 1015 1127 1016
3 1016 1127 1128
3 1016 1128 1017
3 1017 1128 1129
3 1017 1129 1018
3 1018 1129 1130
3 1018 1130 1019
3 1019 1130 1131
3 1019 1131 1020
3 1020 1131 1132
3 1020 1132 1021
3 1021 1132 1133
3 1021 1133 1022
3 1022 1133 1134
3 1022 1134 1023
3 1023 1134 1135
3 1023 1135 1024
3 1024 1135 1136
3 1024 1136 1025
3 1025 1136 1137
3 1025 1137 1026
3 1026 1137 1138
3 1026 1138 1027
3 1027 1138 1139
3 1027 1139 1028
3 1028 1139 1140
3 1028 1140 1029
3 1029 1140 1141
3 1029 1141 1030
3 1030 1141 1142
3 1030 1142 1031
3 1031 1142 1143
3 1031 1143 1032
3 1032 1143 1144
3 1032 1144 1033
3 1033 1144 1145
3 1033 1145 1034
3 1034 1145 1146
3 1034 1146 1035
3 1035 1146 1147
3 1035 1147 1036
3 1036 1147 1148
3 1036 1148 1037
3 1037 1148 1149
3 1037 1149 1038
3 1038 1149 1150
3 1038 1150 1039
3 1039 1150 1151
3 1039 1151 1040
3 1040 1151 1152
3 1040 1152 1041
3 1041 1152 1153
3 1041 1153 1042
3 1042 1153 1154
3 1042 1154 1043
3 1043 1154 1155
3 1044 1156 1045
3 1045 1156 1157
3 1045 1157 1046
3 1046 1157 1158
3 1047 1159 1048
3 1048 1159 1160
3 1048 1160 1049
3 1049 1160 1161
3 1050 1162 1051
3 1051 1162 1163
3 1051 1163 1052
3 1052 1163 1164
3 1053 1165 1054
3 1054 1165 1166
3 1054 1166 1055
3 1055 1166 1167
3 1056 1168 1057
3 1057 1168 1169
3 1057 1169 1058
3 1058 1169 1170
3 1059 1171 1060
3 1060 1171 1172
3 1060 1172 1061
3 1061 1172 1173
3 1062 1174 1063
3 1063 1174 1175
3 1063 1175 1064
3 1064 1175 1176
3 1065 1177 1066
3 1066 1177 1178
3 1066 1178 1067
3 1067 1178 1179
3 1068 1180 1069
3 1069 1180 1181
3 1069 1181 1070
3 1070 1181 1182
3 1071 1183 1072
3 1072 1183 1184
3 1072 1184 1073
3 1073 1184 1185
3 1074 1186 1075
3 1075 1186 1187
3 1075 1187 1076
3 1076 1187 1188
3 1077 1189 1078
3 1078 1189 1190
3 1078 1190 1079
3 1079 1190 1191
3 1080 1192 1081
3 1081 1192 1193
3 1081 1193 1082
3 1082 1193 1194
3 1083 1195 1084
3 1084 1195 1196
3 1084 1196 1085
3 1085 1196 1197
3 1086 1198 1087
3 1087 1198 1199
3 1087 1199 1088
3 1088 1199 1200
3 1089 1201 1090
3 1090 1201 1202
3 1090 1202 1091
3 1091 1202 1203
3 1092 1204 1093
3 1093 1204 1205
3 1093 1205 1094
3 1094 1205 1206
3 1095 1207 1096
3 1096 1207 1208
3 1096 1208 1097
3 1097 1208 1209
3 1098 1210 1099
3 1099 1210 1211
3 1099 1211 1100
3 1100 1211 1212
3 1101 1213 1102
3 1102 1213 1214
3 1102 1214 1103
3 1103 1214 1215
3 1104 1216 1105
3 1105 1216 1217
3 1105 1217 1106
3 1106 1217 1218
3 1107 1219 223
3 223 1219 224
3 1108 1 1109
3 1109 1 1220
3 1109 1220 1110
3 1110 1220 1221
3 1110 1221 1111
3 1111 1221 1222
3 1111 1222 1112
3 1112 1222 1223
3 1112 1223 1113
3 1113 1223 1224
3 1113 1224 1114
3 1114 1224 1225
3 1114 1225 1115
3 1115 1225 1226
3 1115 1226 1116
3 1116 1226 1227
3 1116 1227 1117
3 1117 1227 1228
3 1117 1228 1118
3 1118 1228 1229
3 1118 1229 1119
3 1119 1229 1230
3 1119 1230 1120
3 1120 1230 1231
3 1120 1231 1121
3 1121 1231 1232
3 1121 1232 1122
3 1122 1232 1233
3 1122 1233 1123
3 1123 1233 1234
3 1123 1234 1124
3 1124 1234 1235
3 1124 1235 1125
3 1125 1235 1236
3 1125 1236 1126
3 1126 1236 1237
3 1126 1237 1127
3 1127 1237 1238
3 1127 1238 1128
3 1128 1238 1239
3 1128 1239 1129
3 1129 1239 1240
3 1129 1240 1130
3 1130 1240 1241
3 1130 1241 1131
3 1131 1241 1242
3 1131 1242 1132
3 1132 1242 1243
3 1132 1243 1133
3 1133 1243 1244
3 1133 1244 1134
3 1134 1244 1245
3 1134 1245 1135
3 1135 1245 1246
3 1135 1246 1136
3 1136 1246 1247
3 1136 1247 1137
3 1137 1247 1248
3 1137 1248 1138
3 1138 1248 1249
3 1138 1249 1139
3 1139 1249 1250
3 1139 1250 1140
3 1140 1250 1251
3 1140 1251 1141
3 1141 1251 1252
3 1141 1252 1142
3 1142 1252 1253
3 1142 1253 1143
3 1143 1253 1254
3 1143 1254 1144
3 1144 1254 1255
3 1144 1255 1145
3 1145 1255 1256
3 1145 1256 1146
3 1146 1256 1257
3 1146 1257 1147
3 1147 1257 1258
3 1147 1258 1148
3 1148 1258 1259
3 1148 1259 1149
3 1149 1259 1260
3 1149 1260 1150
3 1150 1260 1261
3 1150 1261 1151
3 1151 1261 1262
3 1151 1262 1152
3 1152 1262 1263
3 1152 1263 1153
3 1153 1263 1264
3 1153 1264 1154
3 1154 1264 1265
3 1154 1265 1155
3 1155 1265 1266
3 1156 1267 1157
3 1157 1267 1268
3 1157 1268 1158
3 1158 1268 1269
3 1159 1270 1160
3 1160 1270 1271
3 1160 1271 1161
3 1161 1271 1272
3 1162 1273 1163
3 1163 1273 1274
3 1163 1274 1164
3 1164 1274 1275
3 1165 1276 1166
3 1166 1276 1277
3 1166 1277 1167
3 1167 1277 1278
3 1168 1279 1169
3 1169 1279 1280
3 1169 1280 1170
3 1170 1280 1281
3 1171 1282 1172
3 1172 1282 1283
3 1172 1283 1173
3 1173 1283 1284
3 1174 1285 1175
3 1175 1285 1286
3 1175 1286 1176
3 1176 1286 1287
3 1177 1288 1178
3 1178 1288 1289
3 1178 1289 1179
3 1179 1289 1290
3 1180 1291 1181
3 1181 1291 1292
3 1181 1292 1182
3 1182 1292 1293
3 1183 1294 1184
3 1184 1294 1295
3 1184 1295 1185
3 1185 1295 1296
3 1186 1297 1187
3 1187 1297 1298
3 1187 1298 1188
3 1188 1298 1299
3 1189 1300 1190
3 1190 1300 1301
3 1190 1301 1191
3 1191 1301 1302
3 1192 1303 1193
3 1193 1303 1304
3 1193 1304 1194
3 1194 1304 1305
3 1195 1306 1196
3 1196 1306 1307
3 1196 1307 1197
3 1197 1307 1308
3 1198 1309 1199
3 1199 1309 1310
3 1199 1310 1200
3 1200 1310 1311
3 1201 1312 1202
3 1202 1312 1313
3 1202 1313 1203
3 1203 1313 1314
3 1204 1315 1205
3 1205 1315 1316
3 1205 1316 1206
3 1206 1316 1317
3 1207 1318 1208
3 1208 1318 1319
3 1208 1319 1209
3 1209 1319 1320
3 1210 1321 1211
3 1211 1321 1322
3 1211 1322 1212
3 1212 1322 1323
3 1213 1324 1214
3 1214 1324 1325
3 1214 1325 1215
3 1215 1325 1326
3 1216 1327 1217
3 1217 1327 1328
3 1217 1328 1218
3 1218 1328 1329
3 1219 1330 224
3 1 1331 1220
3 1220 1331 1332
3 1220 1332 1221
3 1221 1332 1333
3 1221 1333 1222
3 1222 1333 1334
3 1222 1334 1223
3 1223 1334 1335
3 1223 1335 1224
3 1224 1335 1336
3 1224 1336 1225
3 1225 1336 1337
3 1225 1337 1226
3 1226 1337 1338
3 1226 1338 1227
3 1227 1338 1339
3 1227 1339 1228
3 1228 1339 1340
3 1228 1340 1229
3 1229 1340 1341
3 1229 1341 1230
3 1230 1341 1342
3 1230 1342 1231
3 1231 1342 1343
3 1231 1343 1232
3 1232 1343 1344
3 1232 1344 1233
3 1233 1344 1345
3 1233 1345 1234
3 1234 1345 1346
3 1234 1346 1235
3 1235 1346 1347
3 1235 1347 1236
3 1236 1347 1348
3 1236 1348 1237
3 1237 1348 1349
3 1237 1349 1238
3 1238 1349 1350
3 1238 1350 1239
3 1239 1350 1351
3 1239 1351 1240
3 1240 1351 1352
3 1240 1352 1241
3 1241 1352 1353
3 1241 1353 1242
3 1242 1353 1354
3 1242 1354 1243
3 1243 1354 1355
3 1243 1355 1244
3 1244 1355 1356
3 1244 1356 1245
3 1245 1356 1357
3 1245 1357 1246
3 1246 1357 1358
3 1246 1358 1247
3 1247 1358 1359
3 1247 1359 1248
3 1248 1359 1360
3 1248 1360 1249
3 1249 1360 1361
3 1249 1361 1250
3 1250 1361 1362
3 1250 1362 1251
3 1251 1362 1363
3 1251 1363 1252
3 1252 1363 1364
3 1252 1364 1253
3 1253 1364 1365
3 1253 1365 1254
3 1254 1365 1366
3 1254 1366 1255
3 1255 1366 1367
3 1255 1367 1256
3 1256 1367 1368
3 1256 1368 1257
3 1257 1368 1369
3 1257 1369 1258
3 1258 1369 1370
3 1258 1370 1259
3 1259 1370 1371
3 1259 1371 1260
3 1260 1371 1372
3 1260 1372 1261
3 1261 1372 1373
3 1261 1373 1262
3 1262 1373 1374
3 1262 1374 1263
3 1263 1374 1375
3 1263 1375 1264
3 1264 1375 1376
3 1264 1376 1265
3 1265 1376 1377
3 1265 1377 1266
3 1266 1377 1378
3 1267 1379 1268
3 1268 1379 1380
3 1268 1380 1269
3 1269 1380 1381
3 1270 1382 1271
3 1271 1382 1383
3 1271 1383 1272
3 1272 1383 1384
3 1273 1385 1274
3 1274 1385 1386
3 1274 1386 1275
3 1275 1386 1387
3 1276 1388 1277
3 1277 1388 1389
3 1277 1389 1278
3 1278 1389 1390
3 1279 1391 1280
3 1280 1391 1392
3 1280 1392 1281
3 1281 1392 1393
3 1282 1394 1283
3 1283 1394 1395
3 1283 1395 1284
3 1284 1395 1396
3 1285 1397 1286
3 1286 1397 1398
3 1286 1398 1287
3 1287 1398 1399
3 1288 1400 1289
3 1289 1400 1401
3 1289 1401 1290
3 1290 1401 1402
3 1291 1403 1292
3 1292 1403 1404
3 1292 1404 1293
3 1293 1404 1405
3 1294 1406 1295
3 1295 1406 1407
3 1295 1407 1296
3 1296 1407 1408
3 1297 1409 1298
3 1298 1409 1410
3 1298 1410 1299
3 1299 1410 1411
3 1300 1412 1301
3 1301 1412 1413
3 1301 1413 1302
3 1302 1413 1414
3 1303 1415 1304
3 1304 1415 1416
3 1304 1416 1305
3 1305 1416 1417
3 1306 1418 1307
3 1307 1418 1419
3 1307 1419 1308
3 1308 1419 1420
3 1309 1421 1310
3 1310 1421 1422
3 1310 1422 1311
3 1311 1422 1423
3 1312 1424 1313
3 1313 1424 1425
3 1313 1425 1314
3 1314 1425 1426
3 1315 1427 1316
3 1316 1427 1428
3 1316 1428 1317
3 1317 1428 1429
3 1318 1430 1319
3 1319 1430 1431
3 1319 1431 1320
3 1320 1431 1432
3 1321 1433 1322
3 1322 1433 1434
3 1322 1434 1323
3 1323 1434 1435
3 1324 1436 1325
3 1325 1436 1437
3 1325 1437 1326
3 1326 1437 1438
3 1327 1439 1328
3 1328 1439 1440
3 1328 1440 1329
3 1329 1440 1441
3 1330 1442 224
3 224 1442 885
3 1331 1443 1332
3 1332 1443 1444
3 1332 1444 1333
3 1333 1444 1445
3 1333 1445 1334
3 1334 1445 1446
3 1334 1446 1335
3 1335 1446 1447
3 1335 1447 1336
3 1336 1447 1448
3 1336 1448 1337
3 1337 1448 1449
3 1337 1449 1338
3 1338 1449 1450
3 1338 1450 1339
3 1339 1450 1451
3 1339 1451 1340
3 1340 1451 1452
3 1340 1452 1341
3 1341 1452 1453
3 1341 1453 1342
3 1342 1453 1454
3 1342 1454 1343
3 1343 1454 1455
3 1343 1455 1344
3 1344 1455 1456
3 1344 1456 1345
3 1345 1456 1457
3 1345 1457 1346
3 1346 1457 1458
3 1346 1458 1347
3 1347 1458 1459
3 1347 1459 1348
3 1348 1459 1460
3 1348 1460 1349
3 1349 1460 1461
3 1349 1461 1350
3 1350 1461 1462
3 1350 1462 1351
3 1351 1462 1463
3 1351 1463 1352
3 1352 1463 1464
3 1352 1464 1353
3 1353 1464 1465
3 1353 1465 1354
3 1354 1465 1466
3 1354 1466 1355
3 1355 1466 1467
3 1355 1467 1356
3 1356 1467 1468
3 1356 1468 1357
3 1357 1468 1469
3 1357 1469 1358
3 1358 1469 1470
3 1358 1470 1359
3 1359 1470 1471
3 1359 1471 1360
3 1360 1471 1472
3 1360 1472 1361
3 1361 1472 1473
3 1361 1473 1362
3 1362 1473 1474
3 1362 1474 1363
3 1363 1474 1475
3 1363 1475 1364
3 1364 1475 1476
3 1364 1476 1365
3 1365 1476 1477
3 1365 1477 1366
3 1366 1477 1478
3 1366 1478 1367
3 1367 1478 1479
3 1367 1479 1368
3 1368 1479 1480
3 1368 1480 1369
3 1369 1480 1481
3 1369 1481 1370
3 1370 1481 1482
3 1370 1482 1371
3 1371 1482 1483
3 1371 1483 1372
3 1372 1483 1484
3 1372 1484 1373
3 1373 1484 1485
3 1373 1485 1374
3 1374 1485 1486
3 1374 1486 1375
3 1375 1486 1487
3 1375 1487 1376
3 1376 1487 1488
3 1376 1488 1377
3 1377 1488 1489
3 1377 1489 1378
3 1378 1489 1490
3 1379 1491 1380
3 1380 1491 1492
3 1380 1492 1381
3 1381 1492 1493
3 1382 1494 1383
3 1383 1494 1495
3 1383 1495 1384
3 1384 1495 1496
3 1385 1497 1386
3 1386 1497 1498
3 1386 1498 1387
3 1387 1498 1499
3 1388 1500 1389
3 1389 1500 1501
3 1389 1501 1390
3 1390 1501 1502
3 1391 1503 1392
3 1392 1503 1504
3 1392 1504 1393
3 1393 1504 1505
3 1394 1506 1395
3 1395 1506 1507
3 1395 1507 1396
3 1396 1507 1508
3 1397 1509 1398
3 1398 1509 1510
3 1398 1510 1399
3 1399 1510 1511
3 1400 1512 1401
3 1401 1512 1513
3 1401 1513 1402
3 1402 1513 1514
3 1403 1515 1404
3 1404 1515 1516
3 1404 1516 1405
3 1405 1516 1517
3 1406 1518 1407
3 1407 1518 1519
3 1407 1519 1408
3 1408 1519 1520
3 1409 1521 1410
3 1410 1521 1522
3 1410 1522 1411
3 1411 1522 1523
3 1412 1524 1413
3 1413 1524 1525
3 1413 1525 1414
3 1414 1525 1526
3 1415 1527 1416
3 1416 1527 1528
3 1416 1528 1417
3 1417 1528 1529
3 1418 1530 1419
3 1419 1530 1531
3 1419 1531 1420
3 1420 1531 1532
3 1421 1533 1422
3 1422 1533 1534
3 1422 1534 1423
3 1423 1534 1535
3 1424 1536 1425
3 1425 1536 1537
3 1425 1537 1426
3 1426 1537 1538
3 1427 1539 1428
3 1428 1539 1540
3 1428 1540 1429
3 1429 1540 1541
3 1430 1542 1431
3 1431 1542 1543
3 1431 1543 1432
3 1432 1543 1544
3 1433 1545 1434
3 1434 1545 1546
3 1434 1546 1435
3 1435 1546 1547
3 1436 1548 1437
3 1437 1548 1549
3 1437 1549 1438
3 1438 1549 1550
3 1439 1551 1440
3 1440 1551 1552
3 1440 1552 1441
3 1441 1552 1553
3 1442 1554 1555
3 1555 1554 885
3 1443 451 1444
3 1444 451 1556
3 1444 1556 1445
3 1445 1556 1557
3 1445 1557 1446
3 1446 1557 1558
3 1446 1558 1447
3 1447 1558 1559
3 1447 1559 1448
3 1448 1559 1560
3 1448 1560 1449
3 1449 1560 1561
3 1449 1561 1450
3 1450 1561 1562
3 1450 1562 1451
3 1451 1562 1563
3 1451 1563 1452
3 1452 1563 1564
3 1452 1564 1453
3 1453 1564 1565
3 1453 1565 1454
3 1454 1565 1566
3 1454 1566 1455
3 1455 1566 1567
3 1455 1567 1456
3 1456 1567 1568
3 1456 1568 1457
3 1457 1568 1569
3 1457 1569 1458
3 1458 1569 1570
3 1458 1570 1459
3 1459 1570 1571
3 1459 1571 1460
3 1460 1571 1572
3 1460 1572 1461
3 1461 1572 1573
3 1461 1573 1462
3 1462 1573 1574
3 1462 1574 1463
3 1463 1574 1575
3 1463 1575 1464
3 1464 1575 1576
3 1464 1576 1465
3 1465 1576 1577
3 1465 1577 1466
3 1466 1577 1578
3 1466 1578 1467
3 1467 1578 1579
3 1467 1579 1468
3 1468 1579 1580
3 1468 1580 1469
3 1469 1580 1581
3 1469 1581 1470
3 1470 1581 1582
3 1470 1582 1471
3 1471 1582 1583
3 1471 1583 1472
3 1472 1583 1584
3 1472 1584 1473
3 1473 1584 1585
3 1473 1585 1474
3 1474 1585 1586
3 1474 1586 1475
3 1475 1586 1587
3 1475 1587 1476
3 1476 1587 1588
3 1476 1588 1477
3 1477 1588 1589
3 1477 1589 1478
3 1478 1589 1590
3 1478 1590 1479
3 1479 1590 1591
3 1479 1591 1480
3 1480 1591 1592
3 1480 1592 1481
3 1481 1592 1593
3 1481 1593 1482
3 1482 1593 1594
3 1482 1594 1483
3 1483 1594 1595
3 1483 1595 1484
3 1484 1595 1596
3 1484 1596 1485
3 1485 1596 1597
3 1485 1597 1486
3 1486 1597 1598
3 1486 1598 1487
3 1487 1598 1599
3 1487 1599 1488
3 1488 1599 1600
3 1488 1600 1489
3 1489 1600 1601
3 1489 1601 1490
3 1490 1601 1602
3 1491 1603 1492
3 1492 1603 1604
3 1492 1604 1493
3 1493 1604 1605
3 1494 1606 1495
3 1495 1606 1607
3 1495 1607 1496
3 1496 1607 1608
3 1497 1609 1498
3 1498 1609 1610
3 1498 1610 1499
3 1499 1610 1611
3 1500 1612 1501
3 1501 1612 1613
3 1501 1613 1502
3 1502 1613 1614
3 1503 1615 1504
3 1504 1615 1616
3 1504 1616 1505
3 1505 1616 1617
3 1506 1618 1507
3 1507 1618 1619
3 1507 1619 1508
3 1508 1619 1620
3 1509 1621 1510
3 1510 1621 1622
3 1510 1622 1511
3 1511 1622 1623
3 1512 1624 1513
3 1513 1624 1625
3 1513 1625 1514
3 1514 1625 1626
3 1515 1627 1516
3 1516 1627 1628
3 1516 1628 1517
3 1517 1628 1629
3 1518 1630 1519
3 1519 1630 1631
3 1519 1631 1520
3 1520 1631 1632
3 1521 1633 1522
3 1522 1633 1634
3 1522 1634 1523
3 1523 1634 1635
3 1524 1636 1525
3 1525 1636 1637
3 1525 1637 1526
3 1526 1637 1638
3 1527 1639 1528
3 1528 1639 1640
3 1528 1640 1529
3 1529 1640 1641
3 1530 1642 1531
3 1531 1642 1643
3 1531 1643 1532
3 1532 1643 1644
3 1533 1645 1534
3 1534 1645 1646
3 1534 1646 1535
3 1535 1646 1647
3 1536 1648 1537
3 1537 1648 1649
3 1537 1649 1538
3 1538 1649 1650
3 1539 1651 1540
3 1540 1651 1652
3 1540 1652 1541
3 1541 1652 1653
3 1542 1654 1543
3 1543 1654 1655
3 1543 1655 1544
3 1544 1655 1656
3 1545 1657 1546
3 1546 1657 1658
3 1546 1658 1547
3 1547 1658 1659
3 1548 1660 1549
3 1549 1660 1661
3 1549 1661 1550
3 1550 1661 1662
3 1551 1663 1552
3 1552 1663 1664
3 1552 1664 1553
3 1553 1664 1665
3 1554 1666 1667
3 1667 1666 337
3 451 1668 1556
3 1556 1668 1669
3 1556 1669 1557
3 1557 1669 1670
3 1557 1670 1558
3 1558 1670 1671
3 1558 1671 1559
3 1559 1671 1672
3 1559 1672 1560
3 1560 1672 1673
3 1560 1673 1561
3 1561 1673 1674
3 1561 1674 1562
3 1562 1674 1675
3 1562 1675 1563
3 1563 1675 1676
3 1563 1676 1564
3 1564 1676 1677
3 1564 1677 1565
3 1565 1677 1678
3 1565 1678 1566
3 1566 1678 1679
3 1566 1679 1567
3 1567 1679 1680
3 1567 1680 1568
3 1568 1680 1681
3 1568 1681 1569
3 1569 1681 1682
3 1569 1682 1570
3 1570 1682 1683
3 1570 1683 1571
3 1571 1683 1684
3 1571 1684 1572
3 1572 1684 1685
3 1572 1685 1573
3 1573 1685 1686
3 1573 1686 1574
3 1574 1686 1687
3 1574 1687 1575
3 1575 1687 1688
3 1575 1688 1576
3 1576 1688 1689
3 1576 1689 1577
3 1577 1689 1690
3 1577 1690 1578
3 1578 1690 1691
3 1578 1691 1579
3 1579 1691 1692
3 1579 1692 1580
3 1580 1692 1693
3 1580 1693 1581
3 1581 1693 1694
3 1581 1694 1582
3 1582 1694 1695
3 1582 1695 1583
3 1583 1695 1696
3 1583 1696 1584
3 1584 1696 1697
3 1584 1697 1585
3 1585 1697 1698
3 1585 1698 1586
3 1586 1698 1699
3 1586 1699 1587
3 1587 1699 1700
3 1587 1700 1588
3 1588 1700 1701
3 1588 1701 1589
3 1589 1701 1702
3 1589 1702 1590
3 1590 1702 1703
3 1590 1703 1591
3 1591 1703 1704
3 1591 1704 1592
3 1592 1704 1705
3 1592 1705 1593
3 1593 1705 1706
3 1593 1706 1594
3 1594 1706 1707
3 1594 1707 1595
3 1595 1707 1708
3 1595 1708 1596
3 1596 1708 1709
3 1596 1709 1597
3 1597 1709 1710
3 1597 1710 1598
3 1598 1710 1711
3 1598 1711 1599
3 1599 1711 1712
3 1599 1712 1600
3 1600 1712 1713
3 1600 1713 1601
3 1601 1713 1714
3 1601 1714 1602
3 1602 1714 1715
3 1603 1716 1604
3 1604 1716 1717
3 1604 1717 1605
3 1605 1717 1718
3 1606 1719 1607
3 1607 1719 1720
3 1607 1720 1608
3 1608 1720 1721
3 1609 1722 1610
3 1610 1722 1723
3 1610 1723 1611
3 1611 1723 1724
3 1612 1725 1613
3 1613 1725 1726
3 1613 1726 1614
3 1614 1726 1727
3 1615 1728 1616
3 1616 1728 1729
3 1616 1729 1617
3 1617 1729 1730
3 1618 1731 1619
3 1619 1731 1732
3 1619 1732 1620
3 1620 1732 1733
3 1621 1734 1622
3 1622 1734 1735
3 1622 1735 1623
3 1623 1735 1736
3 1624 1737 1625
3 1625 1737 1738
3 1625 1738 1626
3 1626 1738 1739
3 1627 1740 1628
3 1628 1740 1741
3 1628 1741 1629
3 1629 1741 1742
3 1630 1743 1631
3 1631 1743 1744
3 1631 1744 1632
3 1632 1744 1745
3 1633 1746 1634
3 1634 1746 1747
3 1634 1747 1635
3 1635 1747 1748
3 1636 1749 1637
3 1637 1749 1750
3 1637 1750 1638
3 1638 1750 1751
3 1639 1752 1640
3 1640 1752 1753
3 1640 1753 1641
3 1641 1753 1754
3 1642 1755 1643
3 1643 1755 1756
3 1643 1756 1644
3 1644 1756 1757
3 1645 1758 1646
3 1646 1758 1759
3 1646 1759 1647
3 1647 1759 1760
3 1648 1761 1649
3 1649 1761 1762
3 1649 1762 1650
3 1650 1762 1763
3 1651 1764 1652
3 1652 1764 1765
3 1652 1765 1653
3 1653 1765 1766
3 1654 1767 1655
3 1655 1767 1768
3 1655 1768 1656
3 1656 1768 1769
3 1657 1770 1658
3 1658 1770 1771
3 1658 1771 1659
3 1659 1771 1772
3 1660 1773 1661
3 1661 1773 1774
3 1661 1774 1662
3 1662 1774 1775
3 1663 1776 1664
3 1664 1776 1777
3 1664 1777 1665
3 1665 1777 1778
3 1666 1779 337
3 337 1779 885
3 1668 1 1669
3 1669 1 0
3 1669 0 1670
3 1670 0 3
3 1670 3 1671
3 1671 3 5
3 1671 5 1672
3 1672 5 7
3 1672 7 1673
3 1673 7 9
3 1673 9 1674
3 1674 9 11
3 1674 11 1675
3 1675 11 13
3 1675 13 1676
3 1676 13 15
3 1676 15 1677
3 1677 15 17
3 1677 17 1678
3 1678 17 19
3 1678 19 1679
3 1679 19 21
3 1679 21 1680
3 1680 21 23
3 1680 23 1681
3 1681 23 25
3 1681 25 1682
3 1682 25 27
3 1682 27 1683
3 1683 27 29
3 1683 29 1684
3 1684 29 31
3 1684 31 1685
3 1685 31 33
3 1685 33 1686
3 1686 33 35
3 1686 35 1687
3 1687 35 37
3 1687 37 1688
3 1688 37 39
3 1688 39 1689
3 1689 39 41
3 1689 41 1690
3 1690 41 43
3 1690 43 1691
3 1691 43 45
3 1691 45 1692
3 1692 45 47
3 1692 47 1693
3 1693 47 49
3 1693 49 1694
3 1694 49 51
3 1694 51 1695
3 1695 51 53
3 1695 53 1696
3 1696 53 55
3 1696 55 1697
3 1697 55 57
3 1697 57 1698
3 1698 57 59
3 1698 59 1699
3 1699 59 61
3 1699 61 1700
3 1700 61 63
3 1700 63 1701
3 1701 63 65
3 1701 65 1702
3 1702 65 67
3 1702 67 1703
3 1703 67 69
3 1703 69 1704
3 1704 69 71
3 1704 71 1705
3 1705 71 73
3 1705 73 1706
3 1706 73 75
3 1706 75 1707
3 1707 75 77
3 1707 77 1708
3 1708 77 79
3 1708 79 1709
3 1709 79 81
3 1709 81 1710
3 1710 81 83
3 1710 83 1711
3 1711 83 85
3 1711 85 1712
3 1712 85 87
3 1712 87 1713
3 1713 87 89
3 1713 89 1714
3 1714 89 91
3 1714 91 1715
3 1715 91 93
3 1716 95 1717
3 1717 95 97
3 1717 97 1718
3 1718 97 99
3 1719 101 1720
3 1720 101 103
3 1720 103 1721
3 1721 103 105
3 1722 107 1723
3 1723 107 109
3 1723 109 1724
3 1724 109 111
3 1725 113 1726
3 1726 113 115
3 1726 115 1727
3 1727 115 117
3 1728 119 1729
3 1729 119 121
3 1729 121 1730
3 1730 121 123
3 1731 125 1732
3 1732 125 127
3 1732 127 1733
3 1733 127 129
3 1734 131 1735
3 1735 131 133
3 1735 133 1736
3 1736 133 135
3 1737 137 1738
3 1738 137 139
3 1738 139 1739
3 1739 139 141
3 1740 143 1741
3 1741 143 145
3 1741 145 1742
3 1742 145 147
3 1743 149 1744
3 1744 149 151
3 1744 151 1745
3 1745 151 153
3 1746 155 1747
3 1747 155 157
3 1747 157 1748
3 1748 157 159
3 1749 161 1750
3 1750 161 163
3 1750 163 1751
3 1751 163 165
3 1752 167 1753
3 1753 167 169
3 1753 169 1754
3 1754 169 171
3 1755 173 1756
3 1756 173 175
3 1756 175 1757
3 1757 175 177
3 1758 179 1759
3 1759 179 181
3 1759 181 1760
3 1760 181 183
3 1761 185 1762
3 1762 185 187
3 1762 187 1763
3 1763 187 189
3 1764 191 1765
3 1765 191 193
3 1765 193 1766
3 1766 193 195
3 1767 197 1768
3 1768 197 199
3 1768 199 1769
3 1769 199 201
3 1770 203 1771
3 1771 203 205
3 1771 205 1772
3 1772 205 207
3 1773 209 1774
3 1774 209 211
3 1774 211 1775
3 1775 211 213
3 1776 215 1777
3 1777 215 217
3 1777 217 1778
3 1778 217 219
3 1779 221 885
3 885 221 223
3 223 1554 1667
3 448 337 449
3 885 1442 1555
3 451 339 1
3 885 1554 223
3 451 774 773
