# vtk DataFile Version 2.0
File written by itkPolyDataMeshIO
ASCII
DATASET POLYDATA
POINTS 646 float
17.322594 46.868065 -89.93382
17.322609 46.868065 -89.93382
16.464424 39.65928 -87.92254
16.001488 39.744545 -87.8636
15.692482 32.554146 -84.053246
15.273689 32.623146 -83.99594
15.116508 25.332176 -80.51483
14.673607 25.392174 -80.44846
14.826363 17.939705 -76.97041
14.39135 17.979881 -76.89569
14.908134 10.497368 -72.7155
14.470543 10.532433 -72.639
15.303215 3.811745 -66.81119
14.865456 3.858971 -66.74532
15.674767 -1.38839 -59.992355
15.236549 -1.336327 -59.932873
15.674751 -1.38839 -59.99236
15.236549 -1.336327 -59.932877
15.979408 -5.543388 -52.431667
15.540672 -5.481819 -52.389397
16.126717 -8.47979 -44.454563
15.686653 -8.409462 -44.433712
16.126747 -8.479774 -44.45457
15.686668 -8.409447 -44.433716
15.930107 -11.003212 -36.734894
15.494225 -10.93058 -36.72295
15.625404 -13.814812 -29.173956
15.176979 -13.747169 -29.146015
15.593102 -16.18328 -21.195148
15.174736 -16.125343 -21.147469
15.946373 -17.373436 -12.843247
15.634132 -17.32235 -12.799455
15.946388 -17.37342 -12.843259
15.634148 -17.322334 -12.799466
16.63131 -18.380486 -4.571428
16.316551 -18.32737 -4.539857
17.004768 -19.06762 3.747475
16.685326 -19.01139 3.734314
16.528236 -18.977943 11.858767
16.21357 -18.92115 11.827882
15.933632 -18.37693 20.097996
15.612053 -18.31971 20.067373
15.522011 -16.874763 28.23087
15.217979 -16.823296 28.190845
15.522011 -16.874763 28.230858
15.217964 -16.823296 28.190836
14.860542 -14.405525 35.887268
14.525795 -14.353951 35.82613
14.217293 -10.438835 42.285477
15.580254 39.88404 -87.695114
14.892204 32.738243 -83.838196
14.270058 25.500313 -80.27607
13.995018 18.06997 -76.71767
14.071434 10.632393 -72.46797
14.464958 3.993095 -66.603294
14.834938 -1.187737 -59.80977
14.834938 -1.187737 -59.809776
15.137871 -5.315498 -52.29821
15.282326 -8.229622 -44.373844
15.282356 -8.229607 -44.37385
15.093773 -10.75042 -36.6706
14.764549 -13.568993 -29.075748
14.790428 -15.960777 -21.070513
15.349709 -17.18879 -12.746217
15.349724 -17.188774 -12.746227
16.029396 -18.191185 -4.501378
16.393929 -18.870827 3.723155
15.926949 -18.781013 11.795756
15.319771 -18.178246 20.02733
14.942513 -16.693977 28.130932
14.942513 -16.693977 28.130924
14.22332 -14.218559 35.736458
14.217278 -10.43885 42.285473
15.232277 40.067345 -87.429565
14.576576 32.890785 -83.591675
13.936089 25.648659 -80.010475
13.667061 18.203316 -76.449646
13.740669 10.789894 -72.21523
14.13166 4.20414 -66.39571
14.500008 -0.953621 -59.63226
14.500008 -0.953621 -59.632263
14.801247 -5.056816 -52.164986
14.944069 -7.953651 -44.279446
14.944099 -7.953621 -44.279453
14.758751 -10.476143 -36.5817
14.419121 -13.293205 -28.968288
14.468758 -15.702339 -20.970016
15.113014 -16.985786 -12.6878
15.113014 -16.985756 -12.687811
15.790016 -17.985039 -4.459032
16.1511 -18.659279 3.714791
15.688484 -18.570854 11.764832
15.077202 -17.96598 19.981224
14.714699 -16.499184 28.0563
14.714699 -16.499184 28.05629
13.974113 -14.012383 35.625877
17.322594 46.868065 -89.93383
14.983437 40.280846 -87.08674
14.350304 33.069466 -83.274734
13.696449 25.826103 -79.67146
13.431862 18.369987 -76.11161
13.502937 10.993126 -71.89959
13.890465 4.476372 -66.138
14.256691 -0.651405 -59.413494
14.256691 -0.651405 -59.4135
14.555809 -4.724968 -51.999603
14.69706 -7.602089 -44.15756
14.697075 -7.602074 -44.157566
14.514061 -10.127983 -36.46283
14.166466 -12.94088 -28.831697
14.233574 -15.367958 -20.853205
14.940865 -16.720741 -12.627207
14.94088 -16.720726 -12.627218
15.61541 -17.716667 -4.414982
15.974098 -18.385048 3.709888
15.515205 -18.298775 11.737026
14.901711 -17.691277 19.931396
14.551018 -16.246483 27.970491
14.551003 -16.246498 27.970484
13.796196 -13.743309 35.499695
14.217293 -10.438835 42.28548
14.851921 40.508797 -86.69186
14.229958 33.261116 -82.91067
13.568794 26.019585 -79.28397
13.306648 18.557701 -75.72841
13.375664 11.22715 -71.54421
13.75901 4.789818 -65.84906
14.12281 -0.303337 -59.16955
14.12281 -0.303322 -59.169556
14.419548 -4.344429 -51.81421
14.55938 -7.200844 -44.017124
14.559395 -7.200813 -44.01713
14.377663 -9.731789 -36.322758
14.024925 -12.537575 -28.675938
14.102257 -14.983376 -20.72888
14.847389 -16.419579 -12.570101
14.847404 -16.419563 -12.570112
15.519859 -17.412193 -4.373386
15.877312 -18.074532 3.70879
15.421165 -17.991081 11.714751
14.807594 -17.380577 19.882456
14.464653 -15.960304 27.88156
14.464668 -15.96032 27.881548
13.703941 -13.43737 35.369724
14.217278 -10.438835 42.285477
14.847572 40.734276 -86.2743
14.229958 33.261116 -82.91066
14.22451 33.451485 -82.526596
13.568794 26.019585 -79.28396
13.562569 26.214745 -78.87681
13.300774 18.75251 -75.32854
13.375664 11.22715 -71.54422
13.368294 11.474617 -71.17555
13.747047 5.121117 -65.5504
14.122826 -0.303337 -59.16955
14.108315 0.064735 -58.91863
14.122826 -0.303322 -59.169556
14.108315 0.064735 -58.918633
14.419548 -4.344429 -51.814213
14.40258 -3.943443 -51.62266
14.55938 -7.200829 -44.017128
14.541283 -6.779655 -43.868614
14.559395 -7.200798 -44.017136
14.541298 -6.77964 -43.868618
14.377678 -9.731789 -36.322758
14.359718 -9.317055 -36.17195
14.02494 -12.537575 -28.67594
14.005135 -12.112923 -28.512611
14.102272 -14.983376 -20.728882
14.084618 -14.577736 -20.60645
14.847389 -16.419563 -12.570101
14.839333 -16.108604 -12.521358
14.84742 -16.419548 -12.570112
14.839363 -16.10859 -12.521368
15.519859 -17.412209 -4.373386
15.510384 -17.098122 -4.337783
15.877327 -18.074532 3.70879
15.867897 -17.754555 3.711559
15.413246 -17.674522 11.699795
14.801567 -17.06086 19.838512
14.464653 -15.96032 27.881557
14.461845 -15.665443 27.797075
14.464668 -15.96032 27.881546
14.46183 -15.665459 27.797066
13.703926 -13.437355 35.369724
13.70385 -13.121071 35.24709
14.970818 40.940376 -85.865265
14.334419 33.62626 -82.151215
13.678352 26.396935 -78.480446
13.414742 18.939857 -74.9419
13.481483 11.716988 -70.82118
13.855614 5.445503 -65.26438
14.214363 0.425285 -58.679447
14.214363 0.425285 -58.67945
14.506264 -3.551994 -51.43923
14.644188 -6.370094 -43.723125
14.644188 -6.370064 -43.723133
14.461662 -8.914543 -36.021618
14.10862 -11.699501 -28.35402
14.182091 -14.17968 -20.494726
14.917442 -15.800194 -12.482842
14.917458 -15.800163 -12.482853
15.587685 -16.787086 -4.309515
15.94648 -17.438606 3.718086
15.492058 -17.362083 11.692847
14.884254 -16.745308 19.80141
14.542961 -15.374046 27.720587
14.542961 -15.374046 27.72058
13.796364 -12.807549 35.13689
15.21244 41.11213 -85.49455
14.551521 33.772774 -81.811874
13.907539 26.552895 -78.12375
13.640099 19.106041 -74.596664
13.706779 11.936577 -70.50694
14.076576 5.739372 -65.01189
14.433037 0.751976 -58.469437
14.433037 0.751991 -58.469437
14.722908 -3.198677 -51.277275
14.86042 -6.001976 -43.591225
14.860451 -6.001961 -43.591232
14.67585 -8.553764 -35.882717
14.32769 -11.32682 -28.211607
14.38726 -13.819496 -20.402048
15.075249 -15.525017 -12.458623
15.075279 -15.524986 -12.458633
15.74543 -16.509987 -4.291603
16.106728 -17.15757 3.727767
15.651192 -17.084557 11.69472
15.048882 -16.464973 19.774982
14.701347 -15.114815 27.659754
14.701347 -15.114815 27.659744
13.973747 -12.52758 35.05012
17.322609 46.86808 -89.93382
17.322624 46.86808 -89.93383
15.21244 41.11216 -85.49456
15.554573 41.236626 -85.19017
14.551537 33.772804 -81.811874
14.859749 33.880074 -81.5342
13.907555 26.55291 -78.12375
14.233147 26.670937 -77.83359
13.640129 19.106056 -74.59667
13.960152 19.238564 -74.31886
13.706795 11.936607 -70.50694
14.027565 12.11689 -70.2565
14.076576 5.739388 -65.01189
14.393639 5.980568 -64.811874
14.433067 0.751991 -58.469437
14.748253 1.020271 -58.304478
14.433067 0.752007 -58.469437
14.748253 1.020271 -58.30448
14.722923 -3.198677 -51.27728
15.036446 -2.910011 -51.14908
14.860435 -6.001976 -43.59123
15.174019 -5.703056 -43.48295
14.860466 -6.001945 -43.591236
15.174049 -5.703041 -43.482956
14.675865 -8.553749 -35.88272
14.986382 -8.261848 -35.76577
14.327705 -11.32679 -28.211609
14.64637 -11.023247 -28.096207
14.387276 -13.819466 -20.40205
14.684685 -13.523689 -20.335314
15.075279 -15.524986 -12.458624
15.299171 -15.299919 -12.449759
15.07531 -15.524971 -12.458634
15.299187 -15.299889 -12.44977
15.745461 -16.509972 -4.291603
15.969978 -16.283745 -4.284798
16.106758 -17.157555 3.727768
16.334892 -16.928856 3.739829
15.651207 -17.084541 11.694722
15.877022 -16.859016 11.704904
15.048897 -16.464958 19.774984
15.281364 -16.23713 19.760471
14.701363 -15.114784 27.659756
14.923515 -14.903725 27.61796
14.701363 -15.114799 27.659748
14.923515 -14.903709 27.61795
13.973763 -12.52758 35.050125
14.22097 -12.298485 34.991695
14.217293 -10.43882 42.28548
14.217323 -10.43882 42.28548
17.322594 46.86808 -89.93383
15.971703 41.304543 -84.974556
15.236122 33.940086 -81.33866
14.630836 26.742256 -77.63145
14.35096 19.327644 -74.12905
14.419838 12.244499 -70.088425
14.783104 6.151176 -64.67921
15.136406 1.210243 -58.196754
15.136406 1.210243 -58.19676
15.423485 -2.707497 -51.064034
15.561485 -5.495506 -43.40619
15.561485 -5.495506 -43.406197
15.370323 -8.060402 -35.679413
15.040077 -10.81115 -28.01627
15.05349 -13.314308 -20.299578
15.581245 -15.142387 -12.457911
15.581261 -15.142387 -12.457921
16.253365 -16.126015 -4.290358
16.622398 -16.770271 3.753762
16.161232 -16.703087 11.723464
15.573067 -16.079567 19.759726
15.201103 -14.75721 27.599236
15.201103 -14.757225 27.599224
14.528664 -12.137993 34.967304
14.217308 -10.438835 42.285477
17.322594 46.86808 -89.93382
16.43319 41.31098 -84.86355
15.652977 33.94848 -81.23964
15.071541 26.761635 -77.53214
14.783958 19.366692 -74.041115
14.854805 12.310127 -70.01496
15.216331 6.238777 -64.62354
15.569008 1.308006 -58.154125
15.569008 1.308006 -58.15413
15.855629 -2.605858 -51.028397
15.99453 -5.394432 -43.366627
15.994545 -5.394417 -43.366634
15.799202 -7.96418 -35.629925
15.480934 -10.706078 -27.97773
15.464653 -13.206886 -20.297304
15.888374 -15.065071 -12.481282
15.888405 -15.065041 -12.481294
16.562447 -16.04937 -4.307016
16.93621 -16.694374 3.76802
16.470863 -16.629082 11.748039
15.890327 -16.004768 19.772078
15.502159 -14.686928 27.604225
15.502159 -14.686928 27.604218
14.861412 -12.058952 34.97755
14.217308 -10.438835 42.28548
16.433174 41.31098 -84.86355
16.904411 41.25544 -84.86546
15.652992 33.94848 -81.23965
16.07911 33.904625 -81.24454
15.071541 26.761635 -77.53215
15.522133 26.727669 -77.54313
14.783943 19.366692 -74.041115
15.226601 19.352867 -74.06165
14.854805 12.310143 -70.01495
15.299904 12.30883 -70.04162
15.216331 6.238792 -64.62354
15.660866 6.236748 -64.64908
15.569008 1.308006 -58.15412
16.013634 1.306221 -58.179802
15.569008 1.308022 -58.15413
16.013634 1.306221 -58.179806
16.300453 -2.612724 -51.04487
15.99453 -5.394432 -43.36663
16.440605 -5.407463 -43.367275
15.994545 -5.394417 -43.36664
16.440605 -5.407433 -43.367287
15.799202 -7.96418 -35.62993
16.24096 -7.980461 -35.621094
15.935539 -10.715919 -27.98345
15.888176 -13.209389 -20.328733
15.888374 -15.065056 -12.481282
16.202385 -15.073235 -12.518624
15.888405 -15.065025 -12.481294
16.202415 -15.073204 -12.518635
16.562447 -16.049355 -4.307016
16.878838 -16.05909 -4.333879
16.93621 -16.694374 3.768021
17.257423 -16.706429 3.781717
16.470863 -16.629066 11.748039
16.787361 -16.642174 11.777142
16.214104 -16.017921 19.79686
15.502174 -14.686928 27.604227
15.808601 -14.697762 27.632843
15.502159 -14.686928 27.60422
15.808601 -14.697746 27.632833
15.199257 -12.066872 35.022118
14.217293 -10.43882 42.285477
17.350563 41.14199 -84.98022
16.482964 33.8117 -81.353035
15.949272 26.642845 -77.663635
15.646126 19.287163 -74.18925
15.72216 12.240685 -70.16655
16.083885 6.145241 -64.753975
16.4374 1.204994 -58.27193
16.437386 1.204994 -58.271935
16.725075 -2.727684 -51.112244
16.866646 -5.533653 -43.408062
16.866676 -5.533638 -43.40807
16.663033 -8.10804 -35.653572
16.36988 -10.839958 -28.03299
16.293434 -13.321693 -20.391626
16.504692 -15.166588 -12.567732
16.504723 -15.166557 -12.567744
17.183784 -16.154747 -4.369354
17.56678 -16.80587 3.794045
17.091927 -16.741692 11.809037
16.524986 -16.118355 19.832624
16.102089 -14.789116 27.683426
16.102089 -14.789116 27.683416
15.521996 -12.161369 35.0984
14.217308 -10.43882 42.285477
17.7389 40.979027 -85.19925
16.834877 33.676582 -81.557045
16.321617 26.51336 -77.88467
16.011772 19.17437 -74.41437
16.09063 12.110756 -70.38042
16.454353 5.971062 -64.93039
16.809227 1.011879 -58.423622
16.809242 1.011879 -58.423626
17.098366 -2.942146 -51.225468
17.241508 -5.763695 -43.485905
17.241524 -5.76368 -43.485912
17.034279 -8.337379 -35.72486
16.752525 -11.069054 -28.122694
16.649712 -13.535194 -20.481173
16.767036 -15.336571 -12.624041
16.767067 -15.336555 -12.624052
17.448845 -16.32766 -4.410144
17.835747 -16.983711 3.803856
17.35624 -16.918633 11.840803
16.794228 -16.296974 19.876076
16.35543 -14.952812 27.751307
16.35543 -14.952797 27.751297
15.799721 -12.333885 35.199413
17.322609 46.86808 -89.93383
18.040123 40.77877 -85.506294
17.10836 33.509453 -81.841446
16.611122 26.348976 -78.18982
16.295998 19.022972 -74.72026
16.377525 11.928703 -70.66733
16.7443 5.727104 -65.16525
17.101097 0.741188 -58.62364
17.101082 0.741188 -58.623642
17.392174 -3.240166 -51.376156
17.536919 -6.080391 -43.59504
17.536934 -6.080376 -43.59505
17.326836 -8.651451 -35.82971
17.054329 -11.386147 -28.245872
16.93084 -13.834129 -20.590801
16.973793 -15.571297 -12.683898
16.973793 -15.571281 -12.683909
17.65818 -16.565636 -4.453602
18.048027 -17.22744 3.810545
17.564415 -17.160515 11.870401
17.005577 -16.541237 19.924313
16.553383 -15.177269 27.831903
16.553383 -15.177269 27.831896
16.015694 -12.572273 35.318405
14.217308 -10.43882 42.28548
17.322609 46.868095 -89.93383
18.040154 40.7788 -85.50631
18.23211 40.556007 -85.87859
17.108376 33.509468 -81.841446
17.283287 33.322548 -82.185104
16.611122 26.348976 -78.18983
16.79647 26.161797 -78.55641
16.477867 18.844154 -75.08419
16.37754 11.928703 -70.66733
16.561714 11.708046 -71.00596
16.7443 5.727119 -65.16526
16.932365 5.431572 -65.44117
17.101097 0.741188 -58.623642
17.291481 0.413033 -58.857174
17.101097 0.741188 -58.623646
17.291481 0.413033 -58.857178
17.392189 -3.240166 -51.376156
17.584846 -3.599693 -51.553158
17.536934 -6.080391 -43.595043
17.731102 -6.460274 -43.727364
17.536964 -6.080376 -43.59505
17.731133 -6.460243 -43.72737
17.326866 -8.651436 -35.829712
17.519218 -9.027122 -35.96037
17.054344 -11.386116 -28.245872
17.253288 -11.767235 -28.39337
16.93084 -13.834099 -20.590801
17.11576 -14.197411 -20.71255
16.973808 -15.571266 -12.683899
17.10775 -15.859886 -12.743748
16.973824 -15.571266 -12.68391
17.10778 -15.859856 -12.743758
17.658195 -16.56562 -4.453602
17.794472 -16.857552 -4.497142
18.186195 -17.525307 3.813555
17.56443 -17.160515 11.870403
17.699333 -17.455956 11.895813
17.005592 -16.541222 19.924314
17.141624 -16.839546 19.97457
16.553398 -15.177254 27.831907
16.679543 -15.451851 27.920828
16.553398 -15.177254 27.831898
16.679543 -15.451851 27.92082
16.01574 -12.572258 35.31841
16.151985 -12.865257 35.448753
14.217323 -10.438805 42.28548
17.322578 46.868065 -89.93382
18.300652 40.327095 -86.28874
17.346794 33.129707 -82.56274
16.864037 25.965569 -78.95754
16.544014 18.651009 -75.47949
16.629631 11.464928 -71.37145
17.004692 5.106041 -65.73778
17.366356 0.051445 -59.10698
17.366356 0.051445 -59.106983
17.662148 -3.99427 -51.743454
17.80973 -6.875526 -43.87324
17.80973 -6.875511 -43.87325
17.5971 -9.436501 -36.107197
17.33471 -12.185432 -28.554485
17.190865 -14.59597 -20.83707
17.158867 -16.166573 -12.796802
17.158897 -16.166557 -12.796813
17.847328 -17.167488 -4.535846
18.239662 -17.841286 3.81269
17.75071 -17.768745 11.914496
17.192162 -17.15548 20.021162
16.724556 -15.743065 28.007786
16.724556 -15.74305 28.007778
16.198586 -13.177101 35.575367
18.240654 40.109352 -86.70586
17.29406 32.945488 -82.945946
16.808739 25.775185 -79.363
16.48948 18.458214 -75.87638
16.576225 11.217796 -71.73628
16.955925 4.775169 -66.03277
17.320137 -0.316185 -59.35428
17.320137 -0.316185 -59.354282
17.61837 -4.394112 -51.9327
17.766914 -7.29467 -44.02163
17.76693 -7.29467 -44.021637
17.55471 -9.848885 -36.259174
17.292442 -12.608269 -28.716944
17.150597 -15.001595 -20.955292
17.12362 -16.47979 -12.840962
17.123634 -16.47976 -12.840974
17.81321 -17.48362 -4.568155
18.204857 -18.162865 3.808015
17.715065 -18.086815 11.925601
17.153603 -17.476723 20.062162
16.685143 -16.039513 28.089191
16.685127 -16.039528 28.089184
16.152061 -13.495583 35.693134
18.056496 39.918602 -87.09937
17.128975 32.783287 -83.30665
16.634575 25.6045 -79.74306
16.318169 18.279778 -76.24574
16.405373 10.984642 -72.07373
16.789574 4.463142 -66.30455
17.156166 -0.663033 -59.580982
17.156181 -0.663033 -59.580986
17.456642 -4.769997 -52.107014
17.605797 -7.687157 -44.16162
17.605812 -7.687157 -44.16163
17.395119 -10.234108 -36.405144
17.129646 -13.004997 -28.86885
16.99775 -15.384331 -21.058443
17.004112 -16.774529 -12.872609
17.004143 -16.774513 -12.872621
17.694191 -17.780663 -4.591428
18.08387 -18.464378 3.799845
17.59446 -18.384819 11.92814
17.028282 -17.777718 20.094212
16.563805 -16.317635 28.158524
16.56382 -16.317635 28.158514
16.015358 -13.795341 35.7926
17.761864 39.769066 -87.44013
16.863838 32.655144 -83.61812
16.354576 25.46621 -80.069595
16.0429 18.12902 -76.56025
16.129738 10.782784 -72.358765
16.518044 4.193108 -66.53296
16.886711 -0.963341 -59.77026
16.886711 -0.963326 -59.770264
17.189064 -5.094032 -52.25349
17.338371 -8.023872 -44.282867
17.338402 -8.023842 -44.28288
17.130302 -10.563545 -36.534286
16.858192 -13.346352 -28.99897
16.744194 -15.71537 -21.138891
16.812004 -17.02665 -12.889322
16.812035 -17.026634 -12.889333
17.501793 -18.034294 -4.603902
17.888405 -18.721275 3.788897
17.400703 -18.638344 11.922064
16.828377 -18.033821 20.114857
16.37223 -16.554665 28.21029
16.37223 -16.554665 28.210281
15.801582 -14.051903 35.86582
17.378716 39.67202 -87.7026
16.51838 32.570717 -83.856995
15.989555 25.370659 -80.31806
15.684151 18.017204 -76.796234
15.769936 10.627419 -72.56996
16.161552 3.985298 -66.700836
16.531792 -1.194572 -59.907875
16.531792 -1.194572 -59.90788
16.835533 -5.341896 -52.36114
16.984596 -8.279472 -44.37628
16.984612 -8.279457 -44.37629
16.779839 -10.812553 -36.636906
16.498665 -13.60656 -29.09755
16.408104 -15.97039 -21.19063
16.557182 -17.220055 -12.889785
16.557198 -17.22004 -12.889796
17.245949 -18.228386 -4.604601
17.628685 -18.917015 3.775795
17.143867 -18.831108 11.907606
16.564354 -18.228554 20.122635
16.120506 -16.735374 28.240953
16.120506 -16.73539 28.240944
15.522087 -14.248772 35.907795
17.322609 46.868065 -89.93383
17.378716 39.672035 -87.7026
16.93531 39.6345 -87.867485
16.518364 32.570732 -83.856995
16.118065 32.5362 -84.00569
15.989555 25.370674 -80.31806
15.566429 25.324837 -80.47021
15.26841 17.952492 -76.9364
15.352455 10.529854 -72.69187
15.746391 3.854958 -66.79591
16.117638 -1.339836 -59.983765
16.531792 -1.194572 -59.907883
16.117638 -1.339821 -59.98377
16.835518 -5.341911 -52.361145
16.422157 -5.495461 -52.42206
16.984612 -8.279503 -44.37628
16.570549 -8.43528 -44.434982
16.984612 -8.279472 -44.37629
16.570564 -8.435249 -44.43499
16.779854 -10.812553 -36.636906
16.36959 -10.962776 -36.705444
16.077675 -13.766655 -29.157383
16.408104 -15.970375 -21.190626
16.014076 -16.130318 -21.209791
16.557198 -17.220055 -12.889784
16.2575 -17.338646 -12.873608
16.557198 -17.22004 -12.889795
16.25753 -17.33863 -12.873619
16.944664 -18.346733 -4.593204
17.32299 -19.035378 3.761476
17.143852 -18.831108 11.907606
16.841942 -18.947166 11.885669
16.564354 -18.228569 20.122635
16.254768 -18.345848 20.116623
16.120506 -16.73539 28.240953
15.826317 -16.84481 28.247688
15.826317 -16.84481 28.247677
15.196495 -14.369698 35.91466
POLYGONS 909 3636
3 0 1 2
3 2 1 3
3 2 3 4
3 4 3 5
3 4 5 6
3 6 5 7
3 6 7 8
3 8 7 9
3 8 9 10
3 10 9 11
3 10 11 12
3 12 11 13
3 12 13 14
3 14 13 15
3 16 17 18
3 18 17 19
3 18 19 20
3 20 19 21
3 22 23 24
3 24 23 25
3 24 25 26
3 26 25 27
3 26 27 28
3 28 27 29
3 28 29 30
3 30 29 31
3 32 33 34
3 34 33 35
3 34 35 36
3 36 35 37
3 36 37 38
3 38 37 39
3 38 39 40
3 40 39 41
3 40 41 42
3 42 41 43
3 44 45 46
3 46 45 47
3 46 47 48
3 1 0 3
3 3 0 49
3 3 49 5
3 5 49 50
3 5 50 7
3 7 50 51
3 7 51 9
3 9 51 52
3 9 52 11
3 11 52 53
3 11 53 13
3 13 53 54
3 13 54 15
3 15 54 55
3 17 56 19
3 19 56 57
3 19 57 21
3 21 57 58
3 23 59 25
3 25 59 60
3 25 60 27
3 27 60 61
3 27 61 29
3 29 61 62
3 29 62 31
3 31 62 63
3 33 64 35
3 35 64 65
3 35 65 37
3 37 65 66
3 37 66 39
3 39 66 67
3 39 67 41
3 41 67 68
3 41 68 43
3 43 68 69
3 45 70 47
3 47 70 71
3 47 71 48
3 48 71 72
3 49 0 73
3 49 73 50
3 50 73 74
3 50 74 51
3 51 74 75
3 51 75 52
3 52 75 76
3 52 76 53
3 53 76 77
3 53 77 54
3 54 77 78
3 54 78 55
3 55 78 79
3 56 80 57
3 57 80 81
3 57 81 58
3 58 81 82
3 59 83 60
3 60 83 84
3 60 84 61
3 61 84 85
3 61 85 62
3 62 85 86
3 62 86 63
3 63 86 87
3 64 88 65
3 65 88 89
3 65 89 66
3 66 89 90
3 66 90 67
3 67 90 91
3 67 91 68
3 68 91 92
3 68 92 69
3 69 92 93
3 70 94 71
3 71 94 95
3 71 95 72
3 72 95 48
3 0 96 73
3 73 96 97
3 73 97 74
3 74 97 98
3 74 98 75
3 75 98 99
3 75 99 76
3 76 99 100
3 76 100 77
3 77 100 101
3 77 101 78
3 78 101 102
3 78 102 79
3 79 102 103
3 80 104 81
3 81 104 105
3 81 105 82
3 82 105 106
3 83 107 84
3 84 107 108
3 84 108 85
3 85 108 109
3 85 109 86
3 86 109 110
3 86 110 87
3 87 110 111
3 88 112 89
3 89 112 113
3 89 113 90
3 90 113 114
3 90 114 91
3 91 114 115
3 91 115 92
3 92 115 116
3 92 116 93
3 93 116 117
3 94 118 95
3 95 118 119
3 95 119 48
3 48 119 120
3 96 0 97
3 97 0 121
3 97 121 98
3 98 121 122
3 98 122 99
3 99 122 123
3 99 123 100
3 100 123 124
3 100 124 101
3 101 124 125
3 101 125 102
3 102 125 126
3 102 126 103
3 103 126 127
3 104 128 105
3 105 128 129
3 105 129 106
3 106 129 130
3 107 131 108
3 108 131 132
3 108 132 109
3 109 132 133
3 109 133 110
3 110 133 134
3 110 134 111
3 111 134 135
3 112 136 113
3 113 136 137
3 113 137 114
3 114 137 138
3 114 138 115
3 115 138 139
3 115 139 116
3 116 139 140
3 116 140 117
3 117 140 141
3 118 142 119
3 119 142 143
3 119 143 120
3 120 143 144
3 121 0 145
3 121 145 146
3 146 145 147
3 146 147 148
3 148 147 149
3 148 149 124
3 124 149 150
3 124 150 151
3 151 150 152
3 151 152 126
3 126 152 153
3 126 153 154
3 154 153 155
3 156 157 158
3 158 157 159
3 158 159 160
3 160 159 161
3 162 163 164
3 164 163 165
3 164 165 166
3 166 165 167
3 166 167 168
3 168 167 169
3 168 169 170
3 170 169 171
3 172 173 174
3 174 173 175
3 174 175 176
3 176 175 177
3 176 177 139
3 139 177 178
3 139 178 140
3 140 178 179
3 140 179 180
3 180 179 181
3 182 183 184
3 184 183 185
3 184 185 48
3 145 96 186
3 145 186 147
3 147 186 187
3 147 187 149
3 149 187 188
3 149 188 150
3 150 188 189
3 150 189 152
3 152 189 190
3 152 190 153
3 153 190 191
3 153 191 155
3 155 191 192
3 157 193 159
3 159 193 194
3 159 194 161
3 161 194 195
3 163 196 165
3 165 196 197
3 165 197 167
3 167 197 198
3 167 198 169
3 169 198 199
3 169 199 171
3 171 199 200
3 173 201 175
3 175 201 202
3 175 202 177
3 177 202 203
3 177 203 178
3 178 203 204
3 178 204 179
3 179 204 205
3 179 205 181
3 181 205 206
3 183 207 185
3 185 207 208
3 185 208 48
3 48 208 120
3 186 0 209
3 186 209 187
3 187 209 210
3 187 210 188
3 188 210 211
3 188 211 189
3 189 211 212
3 189 212 190
3 190 212 213
3 190 213 191
3 191 213 214
3 191 214 192
3 192 214 215
3 193 216 194
3 194 216 217
3 194 217 195
3 195 217 218
3 196 219 197
3 197 219 220
3 197 220 198
3 198 220 221
3 198 221 199
3 199 221 222
3 199 222 200
3 200 222 223
3 201 224 202
3 202 224 225
3 202 225 203
3 203 225 226
3 203 226 204
3 204 226 227
3 204 227 205
3 205 227 228
3 205 228 206
3 206 228 229
3 207 230 208
3 208 230 231
3 208 231 120
3 120 231 72
3 232 233 234
3 234 233 235
3 234 235 236
3 236 235 237
3 236 237 238
3 238 237 239
3 238 239 240
3 240 239 241
3 240 241 242
3 242 241 243
3 242 243 244
3 244 243 245
3 244 245 246
3 246 245 247
3 248 249 250
3 250 249 251
3 250 251 252
3 252 251 253
3 254 255 256
3 256 255 257
3 256 257 258
3 258 257 259
3 258 259 260
3 260 259 261
3 260 261 262
3 262 261 263
3 264 265 266
3 266 265 267
3 266 267 268
3 268 267 269
3 268 269 270
3 270 269 271
3 270 271 272
3 272 271 273
3 272 273 274
3 274 273 275
3 276 277 278
3 278 277 279
3 278 279 280
3 280 279 281
3 233 282 235
3 235 282 283
3 235 283 237
3 237 283 284
3 237 284 239
3 239 284 285
3 239 285 241
3 241 285 286
3 241 286 243
3 243 286 287
3 243 287 245
3 245 287 288
3 245 288 247
3 247 288 289
3 249 290 251
3 251 290 291
3 251 291 253
3 253 291 292
3 255 293 257
3 257 293 294
3 257 294 259
3 259 294 295
3 259 295 261
3 261 295 296
3 261 296 263
3 263 296 297
3 265 298 267
3 267 298 299
3 267 299 269
3 269 299 300
3 269 300 271
3 271 300 301
3 271 301 273
3 273 301 302
3 273 302 275
3 275 302 303
3 277 304 279
3 279 304 305
3 279 305 281
3 281 305 306
3 282 307 283
3 283 307 308
3 283 308 284
3 284 308 309
3 284 309 285
3 285 309 310
3 285 310 286
3 286 310 311
3 286 311 287
3 287 311 312
3 287 312 288
3 288 312 313
3 288 313 289
3 289 313 314
3 290 315 291
3 291 315 316
3 291 316 292
3 292 316 317
3 293 318 294
3 294 318 319
3 294 319 295
3 295 319 320
3 295 320 296
3 296 320 321
3 296 321 297
3 297 321 322
3 298 323 299
3 299 323 324
3 299 324 300
3 300 324 325
3 300 325 301
3 301 325 326
3 301 326 302
3 302 326 327
3 302 327 303
3 303 327 328
3 304 329 305
3 305 329 330
3 305 330 306
3 306 330 331
3 1 232 332
3 332 232 333
3 332 333 334
3 334 333 335
3 334 335 336
3 336 335 337
3 336 337 338
3 338 337 339
3 338 339 340
3 340 339 341
3 340 341 342
3 342 341 343
3 342 343 344
3 344 343 345
3 346 347 316
3 316 347 348
3 316 348 349
3 349 348 350
3 351 352 353
3 353 352 354
3 353 354 320
3 320 354 355
3 320 355 321
3 321 355 356
3 321 356 357
3 357 356 358
3 359 360 361
3 361 360 362
3 361 362 363
3 363 362 364
3 363 364 365
3 365 364 366
3 365 366 327
3 327 366 367
3 327 367 368
3 368 367 369
3 370 371 330
3 330 371 372
3 330 372 331
3 331 372 373
3 232 282 333
3 333 282 374
3 333 374 335
3 335 374 375
3 335 375 337
3 337 375 376
3 337 376 339
3 339 376 377
3 339 377 341
3 341 377 378
3 341 378 343
3 343 378 379
3 343 379 345
3 345 379 380
3 347 381 348
3 348 381 382
3 348 382 350
3 350 382 383
3 352 384 354
3 354 384 385
3 354 385 355
3 355 385 386
3 355 386 356
3 356 386 387
3 356 387 358
3 358 387 388
3 360 389 362
3 362 389 390
3 362 390 364
3 364 390 391
3 364 391 366
3 366 391 392
3 366 392 367
3 367 392 393
3 367 393 369
3 369 393 394
3 371 395 372
3 372 395 396
3 372 396 373
3 373 396 397
3 282 307 374
3 374 307 398
3 374 398 375
3 375 398 399
3 375 399 376
3 376 399 400
3 376 400 377
3 377 400 401
3 377 401 378
3 378 401 402
3 378 402 379
3 379 402 403
3 379 403 380
3 380 403 404
3 381 405 382
3 382 405 406
3 382 406 383
3 383 406 407
3 384 408 385
3 385 408 409
3 385 409 386
3 386 409 410
3 386 410 387
3 387 410 411
3 387 411 388
3 388 411 412
3 389 413 390
3 390 413 414
3 390 414 391
3 391 414 415
3 391 415 392
3 392 415 416
3 392 416 393
3 393 416 417
3 393 417 394
3 394 417 418
3 395 419 396
3 396 419 420
3 396 420 397
3 397 420 120
3 307 421 398
3 398 421 422
3 398 422 399
3 399 422 423
3 399 423 400
3 400 423 424
3 400 424 401
3 401 424 425
3 401 425 402
3 402 425 426
3 402 426 403
3 403 426 427
3 403 427 404
3 404 427 428
3 405 429 406
3 406 429 430
3 406 430 407
3 407 430 431
3 408 432 409
3 409 432 433
3 409 433 410
3 410 433 434
3 410 434 411
3 411 434 435
3 411 435 412
3 412 435 436
3 413 437 414
3 414 437 438
3 414 438 415
3 415 438 439
3 415 439 416
3 416 439 440
3 416 440 417
3 417 440 441
3 417 441 418
3 418 441 442
3 419 443 420
3 420 443 444
3 420 444 120
3 120 444 445
3 446 421 447
3 447 421 448
3 447 448 449
3 449 448 450
3 449 450 451
3 451 450 452
3 451 452 425
3 425 452 453
3 425 453 454
3 454 453 455
3 454 455 456
3 456 455 457
3 456 457 458
3 458 457 459
3 460 461 462
3 462 461 463
3 462 463 464
3 464 463 465
3 466 467 468
3 468 467 469
3 468 469 470
3 470 469 471
3 470 471 472
3 472 471 473
3 472 473 474
3 474 473 475
3 476 477 478
3 478 477 479
3 478 479 439
3 439 479 480
3 439 480 481
3 481 480 482
3 481 482 483
3 483 482 484
3 483 484 485
3 485 484 486
3 487 488 489
3 489 488 490
3 489 490 491
3 491 490 445
3 421 492 448
3 448 492 493
3 448 493 450
3 450 493 494
3 450 494 452
3 452 494 495
3 452 495 453
3 453 495 496
3 453 496 455
3 455 496 497
3 455 497 457
3 457 497 498
3 457 498 459
3 459 498 499
3 461 500 463
3 463 500 501
3 463 501 465
3 465 501 502
3 467 503 469
3 469 503 504
3 469 504 471
3 471 504 505
3 471 505 473
3 473 505 506
3 473 506 475
3 475 506 507
3 477 508 479
3 479 508 509
3 479 509 480
3 480 509 510
3 480 510 482
3 482 510 511
3 482 511 484
3 484 511 512
3 484 512 486
3 486 512 513
3 488 514 490
3 490 514 515
3 490 515 445
3 445 515 48
3 492 421 493
3 493 421 516
3 493 516 494
3 494 516 517
3 494 517 495
3 495 517 518
3 495 518 496
3 496 518 519
3 496 519 497
3 497 519 520
3 497 520 498
3 498 520 521
3 498 521 499
3 499 521 522
3 500 523 501
3 501 523 524
3 501 524 502
3 502 524 525
3 503 526 504
3 504 526 527
3 504 527 505
3 505 527 528
3 505 528 506
3 506 528 529
3 506 529 507
3 507 529 530
3 508 531 509
3 509 531 532
3 509 532 510
3 510 532 533
3 510 533 511
3 511 533 534
3 511 534 512
3 512 534 535
3 512 535 513
3 513 535 536
3 514 537 515
3 515 537 538
3 515 538 48
3 48 538 445
3 421 0 516
3 516 0 539
3 516 539 517
3 517 539 540
3 517 540 518
3 518 540 541
3 518 541 519
3 519 541 542
3 519 542 520
3 520 542 543
3 520 543 521
3 521 543 544
3 521 544 522
3 522 544 545
3 523 546 524
3 524 546 547
3 524 547 525
3 525 547 548
3 526 549 527
3 527 549 550
3 527 550 528
3 528 550 551
3 528 551 529
3 529 551 552
3 529 552 530
3 530 552 553
3 531 554 532
3 532 554 555
3 532 555 533
3 533 555 556
3 533 556 534
3 534 556 557
3 534 557 535
3 535 557 558
3 535 558 536
3 536 558 559
3 537 560 538
3 538 560 561
3 538 561 445
3 539 0 562
3 539 562 540
3 540 562 563
3 540 563 541
3 541 563 564
3 541 564 542
3 542 564 565
3 542 565 543
3 543 565 566
3 543 566 544
3 544 566 567
3 544 567 545
3 545 567 568
3 546 569 547
3 547 569 570
3 547 570 548
3 548 570 571
3 549 572 550
3 550 572 573
3 550 573 551
3 551 573 574
3 551 574 552
3 552 574 575
3 552 575 553
3 553 575 576
3 554 577 555
3 555 577 578
3 555 578 556
3 556 578 579
3 556 579 557
3 557 579 580
3 557 580 558
3 558 580 581
3 558 581 559
3 559 581 582
3 560 583 561
3 561 583 584
3 561 584 48
3 0 446 562
3 562 446 585
3 562 585 563
3 563 585 586
3 563 586 564
3 564 586 587
3 564 587 565
3 565 587 588
3 565 588 566
3 566 588 589
3 566 589 567
3 567 589 590
3 567 590 568
3 568 590 591
3 569 592 570
3 570 592 593
3 570 593 571
3 571 593 594
3 572 595 573
3 573 595 596
3 573 596 574
3 574 596 597
3 574 597 575
3 575 597 598
3 575 598 576
3 576 598 599
3 577 600 578
3 578 600 601
3 578 601 579
3 579 601 602
3 579 602 580
3 580 602 603
3 580 603 581
3 581 603 604
3 581 604 582
3 582 604 605
3 583 606 584
3 584 606 607
3 584 607 48
3 48 607 331
3 282 608 609
3 609 608 610
3 609 610 611
3 611 610 612
3 611 612 613
3 613 612 614
3 613 614 588
3 588 614 615
3 588 615 589
3 589 615 616
3 589 616 590
3 590 616 617
3 590 617 592
3 592 617 618
3 619 620 621
3 621 620 622
3 621 622 623
3 623 622 624
3 625 626 627
3 627 626 628
3 627 628 597
3 597 628 629
3 597 629 630
3 630 629 631
3 630 631 632
3 632 631 633
3 634 635 601
3 601 635 636
3 601 636 602
3 602 636 637
3 602 637 638
3 638 637 639
3 638 639 640
3 640 639 641
3 640 641 642
3 642 641 643
3 606 644 607
3 607 644 645
3 607 645 445
3 608 0 610
3 610 0 2
3 610 2 612
3 612 2 4
3 612 4 614
3 614 4 6
3 614 6 615
3 615 6 8
3 615 8 616
3 616 8 10
3 616 10 617
3 617 10 12
3 617 12 618
3 618 12 14
3 620 16 622
3 622 16 18
3 622 18 624
3 624 18 20
3 626 22 628
3 628 22 24
3 628 24 629
3 629 24 26
3 629 26 631
3 631 26 28
3 631 28 633
3 633 28 30
3 635 32 636
3 636 32 34
3 636 34 637
3 637 34 36
3 637 36 639
3 639 36 38
3 639 38 641
3 641 38 40
3 641 40 643
3 643 40 42
3 644 44 645
3 645 44 46
3 645 46 445
