# vtk DataFile Version 2.0
File written by itkPolyDataMeshIO
ASCII
DATASET POLYDATA
POINTS 911 float
296.7892 30.070976 -57.03862
296.78918 30.070976 -57.038616
294.1666 31.411278 -50.459187
294.27332 31.3975 -50.414528
290.93637 33.52465 -41.631298
291.05344 33.510475 -41.585175
288.17044 35.252068 -34.031033
288.30176 35.236183 -33.979755
285.4693 36.99221 -26.59038
285.61697 36.97439 -26.53277
282.96597 38.85932 -19.256119
283.12952 38.839806 -19.195318
280.62427 40.74726 -12.054119
280.80115 40.726295 -11.991111
280.62427 40.747276 -12.054123
280.80115 40.726295 -11.991114
278.37173 42.441917 -5.007782
278.56512 42.418983 -4.940779
276.474 44.20266 2.018709
276.69156 44.17727 2.084124
274.55612 45.936974 8.913982
274.79657 45.908913 8.987067
272.73575 47.384285 15.658747
272.9984 47.353508 15.736011
270.7522 48.876335 22.31385
271.032 48.84327 22.40232
268.6717 50.26284 28.742296
268.9666 50.22767 28.84197
267.72525 50.641655 34.84882
268.0537 50.603355 34.904854
267.72522 50.641655 34.848827
268.05368 50.603355 34.90486
266.91922 51.377235 41.05437
267.27112 51.336296 41.10314
264.35806 52.27601 46.699963
264.69687 52.232643 46.843945
264.35803 52.27601 46.699966
264.69684 52.232643 46.843952
261.7262 52.57969 52.16874
262.09094 52.532738 52.341393
259.33212 52.62928 58.008175
259.73563 52.579018 58.166344
254.59317 53.04978 64.780106
254.98492 52.99592 64.98094
254.5932 53.049797 64.78012
254.98492 52.99595 64.98096
250.4031 54.587364 69.765274
250.4031 54.58735 69.765274
294.33505 31.405449 -50.39258
291.12085 33.519615 -41.56276
288.37732 35.246407 -33.954815
285.702 36.985878 -26.504871
283.22363 38.852425 -19.166521
280.90295 40.739845 -11.96171
280.90295 40.739845 -11.961715
278.67618 42.4338 -4.909242
276.81625 44.193687 2.11361
274.93445 45.92704 9.020039
273.1487 47.37342 15.771786
271.1924 48.864677 22.443916
269.1361 50.250404 28.890123
268.23993 50.62809 34.933243
268.23993 50.62809 34.933247
267.47025 51.36277 41.124893
264.89075 52.26072 46.91821
264.8907 52.26072 46.918217
262.2988 52.563087 52.435894
259.9639 52.611412 58.254818
255.20825 53.02688 65.09166
255.20825 53.026894 65.091675
294.3889 31.423592 -50.376217
291.17935 33.539772 -41.546204
288.4429 35.269035 -33.93633
285.77588 37.01127 -26.484312
283.30545 38.880226 -19.145853
280.9913 40.769707 -11.940986
280.9913 40.769707 -11.940989
278.77243 42.4665 -4.886808
276.92422 44.22991 2.133452
275.05386 45.967094 9.042253
273.27863 47.41735 15.796692
271.33127 48.911827 22.473406
269.28317 50.30053 28.925388
268.3997 50.682716 34.95511
268.3997 50.682716 34.955112
267.64096 51.421272 41.13928
265.05838 52.32267 46.97663
265.05838 52.32267 46.97664
262.47794 52.630104 52.514553
260.15936 52.683006 58.32986
255.40085 53.097694 65.18448
255.40085 53.097725 65.18449
296.78925 30.070976 -57.038624
294.4397 31.451195 -50.363354
291.2343 33.570152 -41.53341
288.50443 35.303123 -33.922
285.84512 37.04957 -26.468481
283.3822 38.922188 -19.130552
281.07428 40.81475 -11.926064
281.0743 40.81475 -11.926067
278.86273 42.51577 -4.870396
277.02527 44.284447 2.14669
275.16568 46.02735 9.057108
273.40012 47.483498 15.814305
271.4613 48.98281 22.494883
269.42114 50.37597 28.952377
268.54782 50.7649 34.97305
268.54782 50.7649 34.973053
267.799 51.509315 41.148594
265.21506 52.415947 47.02583
265.21506 52.415947 47.025837
262.64484 52.731026 52.585228
260.34033 52.790764 58.398678
255.58032 53.205467 65.268456
255.58032 53.205482 65.26847
250.4031 54.58738 69.765274
296.7892 30.070976 -57.038616
296.7892 30.070976 -57.038624
294.48575 31.487312 -50.3544
291.2839 33.609657 -41.524734
288.55997 35.34745 -33.912212
285.9077 37.099342 -26.457842
283.45163 38.976707 -19.121086
281.14923 40.873283 -11.91738
281.14923 40.8733 -11.917384
278.94412 42.57984 -4.860462
277.1162 44.355385 2.152969
275.26636 46.10575 9.064198
273.50928 47.569572 15.824158
271.57837 49.07522 22.507784
269.54556 50.474174 28.970339
268.67975 50.87185 34.98657
268.67972 50.871834 34.986576
267.9395 51.623863 41.152607
265.35593 52.537285 47.064335
265.35593 52.537285 47.064342
262.79425 52.862236 52.645763
260.50116 52.930977 58.4591
255.74103 53.34664 65.34091
255.74103 53.346672 65.34092
250.40314 54.587364 69.765274
296.7892 30.070961 -57.03862
294.5255 31.530724 -50.349644
291.32663 33.65693 -41.52042
288.60773 35.40046 -33.90727
285.96152 37.15885 -26.452715
283.5113 39.04194 -19.117683
281.21375 40.943306 -11.915169
281.21375 40.94332 -11.915172
279.014 42.656517 -4.857328
277.19415 44.440285 2.152108
275.3527 46.199593 9.063332
273.60263 47.6726 15.825959
271.67865 49.185814 22.511717
269.6525 50.591698 28.978699
268.7911 50.999855 34.995197
268.79105 50.999855 34.9952
268.05792 51.760963 41.15119
265.47632 52.682533 47.090904
265.47632 52.682518 47.09091
262.9214 53.01934 52.69417
260.6366 53.09884 58.509163
255.87732 53.516136 65.399376
255.87732 53.516167 65.39939
296.78925 30.070976 -57.03862
294.55777 31.579292 -50.349068
291.36124 33.70971 -41.52041
288.6464 35.459663 -33.907093
286.00513 37.225334 -26.45296
283.55966 39.114723 -19.12011
281.2659 41.021538 -11.919123
281.2659 41.021538 -11.919127
279.07043 42.742104 -4.860716
277.25684 44.535027 2.144563
275.42212 46.30433 9.055
273.67743 47.787544 15.820089
271.75928 49.309196 22.507029
269.7389 50.722816 28.977692
268.8789 51.142677 34.998905
268.8789 51.142677 34.99891
268.15097 51.913948 41.144737
265.5729 52.844612 47.105186
265.5729 52.844612 47.105194
263.02258 53.194664 52.72926
260.7429 53.286125 58.547527
255.98502 53.70565 65.442154
255.98502 53.705666 65.44216
250.40314 54.587395 69.765274
296.78925 30.071007 -57.038628
294.58145 31.630058 -50.352356
291.38666 33.764763 -41.52428
288.6747 35.5214 -33.91121
286.03714 37.29464 -26.458036
283.59525 39.19065 -19.127695
281.30426 41.103065 -11.928425
281.3043 41.103065 -11.92843
279.11176 42.831367 -4.869767
277.30246 44.633827 2.131377
275.47278 46.413567 9.040352
273.73166 47.907448 15.807598
271.818 49.43789 22.494812
269.8022 50.85955 28.9683
268.94083 51.291603 34.998
268.9408 51.291588 34.998005
268.21634 52.073463 41.134064
265.6429 53.01362 47.107662
265.6429 53.01362 47.10767
263.09515 53.37745 52.750538
260.8174 53.48147 58.573368
256.06116 53.90397 65.468475
256.06116 53.903984 65.46849
250.40314 54.58738 69.765274
296.78925 30.070992 -57.038624
294.59616 31.680397 -50.359005
291.40213 33.81904 -41.53155
288.692 35.582253 -33.919113
286.05667 37.362938 -26.467373
283.61707 39.26551 -19.139688
281.32773 41.18345 -11.942245
281.32773 41.183464 -11.942249
279.13672 42.91935 -4.883657
277.3298 44.731224 2.1136
275.50323 46.521233 9.020586
273.76395 48.02569 15.789602
271.85327 49.56481 22.476213
269.84067 50.994408 28.95158
268.9754 51.43847 34.992805
268.9754 51.438454 34.99281
268.2524 52.23078 41.11999
265.68454 53.180275 47.09902
265.6845 53.180275 47.099022
263.1373 53.557686 52.757866
260.85843 53.674065 58.58619
256.10486 54.100548 65.47849
256.10486 54.10058 65.47851
294.60217 31.728966 -50.368572
291.40778 33.87101 -41.54186
288.69812 35.64051 -33.93042
286.06375 37.428337 -26.48051
283.62497 39.33715 -19.15557
281.3362 41.2604 -11.96003
281.3362 41.2604 -11.960033
279.14542 43.003517 -4.901807
277.33884 44.824394 2.091954
275.5134 46.62423 8.996497
273.77408 48.138756 15.766849
271.86502 49.686195 22.452042
269.8543 51.12345 28.928312
268.98282 51.579002 34.98366
268.9828 51.579002 34.98367
268.25943 52.38128 41.103065
265.69763 53.339714 47.07993
265.69763 53.339714 47.079933
263.14893 53.730125 52.751575
260.86612 53.858376 58.58614
256.11716 54.290154 65.47315
256.11716 54.290184 65.47317
294.60025 31.776146 -50.380882
291.40433 33.921135 -41.555088
288.6941 35.69668 -33.94499
286.05933 37.491432 -26.49726
283.6202 39.406258 -19.175114
281.33093 41.33457 -11.981524
281.33096 41.334587 -11.981528
279.1391 43.084694 -4.923952
277.33102 44.91427 2.066635
275.50494 46.72358 8.968259
273.7639 48.247826 15.739537
271.85504 49.803276 22.42258
269.8449 51.247887 28.898874
268.9651 51.7145 34.970833
268.96506 51.7145 34.97084
268.23953 52.526405 41.08346
265.68463 53.49346 47.051075
265.68463 53.49346 47.05108
263.1325 53.89646 52.732605
260.84302 54.03617 58.574192
256.10065 54.474236 65.45365
256.10065 54.47425 65.45367
296.78918 30.070961 -57.03862
294.5908 31.822685 -50.395973
291.39267 33.97033 -41.571125
288.68082 35.75184 -33.962643
286.04453 37.553337 -26.517458
283.6039 39.474068 -19.198261
281.3132 41.407402 -12.006726
281.31323 41.407387 -12.006731
279.1192 43.164406 -4.950038
277.30795 45.00254 2.037603
275.4796 46.82116 8.935888
273.73538 48.354927 15.707776
271.8254 49.91825 22.387922
269.81485 51.370033 28.863413
268.92456 51.847588 34.95447
268.92453 51.847572 34.95448
268.19528 52.668922 41.061096
265.64786 53.644463 47.01306
265.64786 53.644463 47.013065
263.09064 54.05979 52.702076
260.79202 54.210808 58.551445
256.057 54.65606 65.420586
256.057 54.656075 65.42059
250.40308 54.587364 69.765274
296.7892 30.070992 -57.038624
294.57364 31.86895 -50.41399
291.37302 34.01902 -41.58994
288.6587 35.806435 -33.983395
286.01968 37.614662 -26.541145
283.57648 39.541237 -19.225029
281.28348 41.47953 -12.035624
281.2835 41.47953 -12.035628
279.0862 43.24337 -4.980101
277.2702 45.089973 2.004802
275.43808 46.917778 8.899335
273.68912 48.461006 15.671521
271.77692 50.032097 22.34805
269.7648 51.490974 28.821964
268.862 51.979317 34.93464
268.862 51.979317 34.934647
268.12744 52.810036 41.035942
265.58813 53.794 46.965958
265.58813 53.794 46.965965
263.02423 54.22152 52.660202
260.714 54.38372 58.51814
255.98532 54.836876 65.37342
255.98532 54.83689 65.373436
250.4031 54.587364 69.76527
294.54776 31.91433 -50.43513
291.34454 34.066658 -41.611687
288.6266 35.859795 -34.007427
285.9837 37.67457 -26.568518
283.53683 39.60691 -19.25562
281.24045 41.550026 -12.068411
281.24045 41.550026 -12.068414
279.03867 43.32052 -5.014333
277.21613 45.17536 1.968084
275.37842 47.012184 8.85839
273.62314 48.56463 15.63051
271.70737 50.14332 22.30267
269.69254 51.609154 28.774157
268.775 52.10804 34.911053
268.77496 52.10804 34.91106
268.0335 52.947914 41.007896
265.50308 53.940056 46.909084
265.50305 53.94004 46.909084
262.93054 54.379494 52.60592
260.6059 54.552666 58.473198
255.88184 55.01397 65.310394
255.88184 55.014 65.3104
294.5116 31.957375 -50.45963
291.30585 34.112083 -41.636604
288.58307 35.910698 -34.034973
285.93488 37.731743 -26.599825
283.48285 39.669502 -19.290241
281.18204 41.61727 -12.105316
281.18204 41.61727 -12.105321
278.97437 43.394127 -5.053024
277.1432 45.25686 1.927281
275.29794 47.102257 8.812897
273.53452 48.663506 15.584512
271.61365 50.249443 22.251448
269.59473 51.721947 28.719519
268.66003 52.230873 34.883392
268.66 52.230858 34.883396
267.90964 53.079475 40.9769
265.3888 54.07946 46.84144
265.3888 54.07946 46.841446
262.8056 54.530266 52.537647
260.4635 54.71383 58.415024
255.74173 55.182014 65.22934
255.74173 55.182045 65.229355
294.46402 31.996193 -50.487576
291.25565 34.15423 -41.664974
288.52676 35.957954 -34.066357
285.8716 37.784813 -26.635395
283.41287 39.727654 -19.32917
281.1063 41.67971 -12.146575
281.1063 41.67971 -12.146579
278.8911 43.46247 -5.0964
277.049 45.332527 1.882262
275.19406 47.18589 8.762672
273.42032 48.755287 15.533253
271.49265 50.34797 22.194038
269.468 51.826637 28.657576
268.5136 52.344902 34.85126
268.51358 52.344902 34.851265
267.75217 53.201653 40.94281
265.24158 54.20887 46.761944
265.24155 54.20887 46.76195
262.64542 54.67025 52.453697
260.28247 54.863426 58.341965
255.56055 55.333534 65.12857
255.56055 55.33355 65.128586
250.40314 54.58738 69.76528
294.40445 32.028053 -50.51844
291.1925 34.19158 -41.69693
288.4559 35.9999 -34.101772
285.792 37.8319 -26.675417
283.3248 39.77926 -19.372536
281.011 41.735115 -12.192245
281.011 41.735115 -12.192249
278.78665 43.523094 -5.144561
276.9311 45.39965 1.833018
275.0638 47.260094 8.707695
273.27756 48.83674 15.476651
271.341 50.435387 22.130295
269.30887 51.919563 28.588003
268.332 52.44613 34.814358
268.332 52.446114 34.814365
267.55707 53.31008 40.90563
265.0574 54.323723 46.669712
265.05734 54.323723 46.669716
262.44574 54.79447 52.352493
260.05847 54.995934 58.25242
255.33713 55.457954 65.00828
255.33713 55.457985 65.008286
296.7892 30.070961 -57.038616
294.33405 32.04551 -50.549946
291.1158 34.214058 -41.730286
288.36987 36.02517 -34.138817
285.69528 37.860268 -26.717148
283.21774 39.810326 -19.417074
280.89517 41.768517 -12.23871
280.89517 41.768517 -12.238713
278.6599 43.559654 -5.19382
276.78836 45.440086 1.78393
274.90607 47.30474 8.652883
273.10495 48.885796 15.419385
271.15732 50.48806 22.065193
269.11557 51.975548 28.515656
268.1148 52.50712 34.774673
268.1148 52.50712 34.774677
267.3241 53.375374 40.868824
264.83475 54.39289 46.568897
264.83475 54.39289 46.5689
262.20547 54.869286 52.235783
259.79132 55.0756 58.146946
255.07709 55.525917 64.873146
255.07709 55.525932 64.87316
296.78915 30.070946 -57.038612
294.33408 32.045525 -50.549946
294.25925 32.039314 -50.57736
291.11584 34.214058 -41.730286
291.03308 34.207085 -41.75879
288.2771 36.017372 -34.170536
285.69525 37.860283 -26.717148
285.59094 37.851524 -26.752672
283.21774 39.810326 -19.417076
283.10217 39.800743 -19.453938
280.89514 41.76853 -12.23871
280.7702 41.758217 -12.276489
280.89517 41.768517 -12.238714
280.7702 41.758217 -12.276494
278.65988 43.55967 -5.19382
278.52353 43.548393 -5.234262
276.78833 45.440086 1.78393
276.63513 45.427605 1.745719
274.9061 47.304756 8.652884
274.73676 47.290993 8.610179
273.10498 48.88581 15.419386
272.9203 48.870705 15.373347
271.15735 50.48809 22.065193
270.9603 50.471886 22.011856
269.11557 51.975563 28.515656
268.90747 51.958366 28.454313
268.11484 52.50712 34.774673
267.8856 52.488396 34.738922
267.88556 52.488396 34.73893
267.32413 53.37539 40.868824
267.0789 53.355293 40.840572
264.83478 54.392906 46.568897
264.5966 54.371635 46.475624
264.83478 54.392906 46.5689
264.59656 54.371635 46.47563
262.2055 54.869286 52.235783
261.94992 54.846306 52.118614
259.79132 55.075584 58.146946
259.5103 55.05105 58.037796
254.80585 55.501854 64.73794
254.80585 55.501884 64.73795
250.40308 54.58735 69.76527
296.78918 30.070961 -57.038616
294.25928 32.03933 -50.577362
294.19006 32.012047 -50.59745
291.0331 34.2071 -41.758793
290.95804 34.1744 -41.778397
288.27713 36.017387 -34.17054
288.19302 35.980644 -34.192425
285.591 37.851555 -26.752674
285.49625 37.81028 -26.776941
283.1022 39.800743 -19.453938
282.99728 39.755547 -19.477962
280.77026 41.758232 -12.27649
280.65683 41.709663 -12.300342
280.77026 41.758232 -12.276494
280.65686 41.70968 -12.300346
278.52362 43.54841 -5.234262
278.40005 43.495277 -5.260237
276.63525 45.42762 1.745719
276.49686 45.368843 1.7235
274.73682 47.291008 8.61018
274.5837 47.22608 8.585275
272.92032 48.870735 15.373349
272.75385 48.79943 15.344838
270.96036 50.4719 22.011856
270.78232 50.395332 21.97771
268.90753 51.958366 28.454317
268.71887 51.877007 28.412704
267.88565 52.48841 34.73893
267.68173 52.399788 34.712395
267.8856 52.48841 34.738937
267.68173 52.399788 34.712402
267.07892 53.35534 40.840576
266.86118 53.260414 40.82461
264.59662 54.37168 46.475628
264.38187 54.27111 46.404015
264.5966 54.37168 46.475636
264.38187 54.271095 46.40402
261.94995 54.84632 52.11862
261.72083 54.737526 52.01956
259.51038 55.05108 58.0378
259.261 54.935066 57.942463
254.80585 55.501884 64.737946
254.55908 55.395576 64.619804
254.80585 55.5019 64.73796
254.55908 55.39559 64.61981
294.13113 31.975792 -50.611343
290.89514 34.13439 -41.791782
288.12262 35.9358 -34.207455
285.417 37.759926 -26.793476
282.90942 39.700356 -19.493597
280.56192 41.65043 -12.315326
280.56192 41.65043 -12.315331
278.29684 43.430428 -5.276866
276.38138 45.29708 1.710843
274.45596 47.146706 8.571029
272.61517 48.712288 15.327305
270.6338 50.30178 21.95595
268.5612 51.77758 28.3846
267.51312 52.291496 34.69301
267.5131 52.291496 34.693012
266.6814 53.144432 40.81586
264.20294 54.148216 46.350304
264.20294 54.148216 46.35031
261.5305 54.604607 51.940132
259.05502 54.793114 57.864468
254.35156 55.254112 64.52368
254.35156 55.254143 64.5237
294.08334 31.934563 -50.619717
290.8439 34.090538 -41.80003
288.06534 35.88662 -34.216774
285.35242 37.704704 -26.803543
282.8378 39.639885 -19.502304
280.48456 41.585503 -12.323102
280.48456 41.585487 -12.323107
278.21292 43.359352 -5.285858
276.28766 45.21836 1.705819
274.35214 47.059685 8.565339
272.50266 48.616753 15.318696
270.51315 50.199272 21.944283
268.43283 51.668633 28.367687
267.3775 52.172813 34.67975
267.3775 52.172813 34.679752
266.537 53.01734 40.81283
264.05777 54.013603 46.312107
264.05777 54.013588 46.312115
261.37665 54.459023 51.878555
258.88977 54.63749 57.802578
254.18561 55.093056 64.4498
254.18561 55.09307 64.449814
294.04587 31.89048 -50.623405
290.84393 34.090523 -41.800026
290.80313 34.043922 -41.803806
288.01968 35.834343 -34.221123
285.3524 37.70469 -26.803543
285.30093 37.64602 -26.808006
282.8378 39.639854 -19.502304
282.78073 39.575615 -19.505035
280.48456 41.585472 -12.323102
280.423 41.516487 -12.324636
280.42297 41.516487 -12.324641
278.21292 43.359337 -5.285858
278.1462 43.28382 -5.288276
276.28766 45.218346 1.705819
276.21326 45.134743 1.70731
274.35214 47.05967 8.565338
274.2697 46.967247 8.566929
272.50266 48.616737 15.318696
272.41357 48.515297 15.317719
270.51315 50.199257 21.944284
270.41745 50.090355 21.941328
268.3307 51.552895 28.360477
267.3775 52.17283 34.679745
267.27142 52.04676 34.671814
267.3775 52.17283 34.679752
267.2714 52.04676 34.671818
266.537 53.01734 40.812828
266.4242 52.8823 40.814674
264.05777 54.013588 46.312107
263.94293 53.870552 46.287445
264.05777 54.013588 46.31211
263.9429 53.870537 46.287453
261.37665 54.459007 51.878555
261.25546 54.30433 51.832764
258.88977 54.637474 57.802578
258.76086 54.47207 57.755043
254.18561 55.09304 64.4498
254.0578 54.920784 64.395905
254.18561 55.093056 64.449814
254.0578 54.920815 64.39592
294.04587 31.890465 -50.623405
294.01746 31.84504 -50.623245
290.80316 34.043938 -41.803802
290.77164 33.995705 -41.803787
288.0197 35.83436 -34.221123
287.9845 35.78028 -34.221287
285.30096 37.646034 -26.808006
285.26123 37.58532 -26.807789
282.78076 39.575615 -19.505035
282.73663 39.509132 -19.502802
280.37537 41.44506 -12.321003
280.423 41.516487 -12.324641
280.37537 41.44506 -12.321008
278.1462 43.283836 -5.288276
278.09476 43.20565 -5.28517
276.15616 45.048195 1.714223
274.2064 46.871574 8.574555
272.41357 48.515297 15.317721
272.34534 48.410255 15.32309
270.41745 50.09034 21.94133
270.34384 49.977608 21.945614
268.33072 51.552895 28.36048
268.25195 51.433098 28.361399
267.1913 51.916313 34.668434
267.2714 52.046745 34.671818
267.1913 51.916313 34.668438
266.33936 52.742577 40.82059
263.94293 53.870552 46.28745
263.85483 53.72248 46.27444
263.9429 53.870552 46.287457
263.85483 53.722466 46.27445
261.25546 54.30433 51.832767
261.16312 54.144142 51.800762
258.76086 54.47207 57.755047
258.66394 54.30085 57.720097
253.96335 54.74334 64.35921
253.96335 54.743355 64.359215
296.78925 30.070992 -57.03862
293.9969 31.799232 -50.619965
290.74835 33.946754 -41.80061
287.95847 35.725456 -34.217915
285.23184 37.523735 -26.803593
282.70395 39.441643 -19.496414
280.34012 41.372566 -12.313104
280.3401 41.372566 -12.313107
278.05676 43.126305 -5.277532
276.11417 44.960365 1.725555
274.15982 46.774498 8.587135
272.29544 48.303703 15.33373
270.2898 49.863228 21.955961
268.19363 51.31156 28.369162
267.1341 51.783913 34.668915
267.1341 51.783897 34.668922
266.27893 52.600746 40.829815
263.79034 53.572212 46.271343
263.79034 53.572197 46.27135
261.0962 53.98162 51.78072
258.59518 54.12713 57.69614
253.89761 54.564415 64.33711
253.89761 54.56443 64.33713
250.4031 54.58738 69.76528
250.4031 54.587364 69.76528
293.98358 31.753181 -50.613823
290.73285 33.897224 -41.79444
287.94122 35.66993 -34.211212
285.2123 37.461372 -26.79565
282.68222 39.37333 -19.48609
280.31674 41.299232 -12.301127
280.31677 41.299232 -12.301132
278.0318 43.046013 -5.265521
276.0868 44.871483 1.741124
274.1294 46.676277 8.604448
272.26312 48.195885 15.349394
270.25458 49.74749 21.97205
268.15533 51.188545 28.383392
267.09897 51.649925 34.673054
267.09894 51.64991 34.67306
266.24216 52.457237 40.842175
263.74866 53.42019 46.27774
263.74866 53.42019 46.27775
261.05377 53.817192 51.772182
258.55347 53.95141 57.682785
253.85828 54.384575 64.32839
253.85828 54.38459 64.32841
250.4031 54.58735 69.76527
293.97757 31.706184 -50.60462
290.73285 33.897224 -41.794445
290.72583 33.846397 -41.784893
287.94122 35.66993 -34.211216
287.93347 35.612907 -34.20077
285.2123 37.461388 -26.79565
285.2035 37.39736 -26.783493
282.68225 39.373344 -19.48609
282.67236 39.30317 -19.471283
280.31677 41.299232 -12.301127
280.30618 41.223915 -12.284486
280.3168 41.299232 -12.301132
280.3062 41.223915 -12.284491
278.03183 43.046013 -5.265521
278.0208 42.963585 -5.248561
276.07513 44.780205 1.761554
274.11633 46.5754 8.627193
272.2631 48.195885 15.349393
272.24982 48.08515 15.370754
270.25455 49.74749 21.97205
270.23947 49.628624 21.99463
268.1553 51.188545 28.383392
268.1382 51.062218 28.404955
267.09897 51.64991 34.673054
267.0875 51.512352 34.68132
267.0875 51.512352 34.681324
266.2308 52.309883 40.858185
263.7487 53.42019 46.27774
263.7314 53.26409 46.294655
263.7487 53.42019 46.27775
263.7314 53.264076 46.294662
261.0538 53.817192 51.772182
261.03766 53.64834 51.776154
258.54083 53.77099 57.68084
253.85828 54.38459 64.32839
253.84586 54.201103 64.333374
253.85828 54.384605 64.32841
253.84589 54.201103 64.33339
293.97754 31.706154 -50.604618
293.9794 31.657387 -50.591938
290.7258 33.84635 -41.78489
290.728 33.793236 -41.771435
287.93344 35.612877 -34.200768
287.936 35.55332 -34.185978
285.2035 37.397346 -26.78349
285.2062 37.330452 -26.766449
282.67233 39.303154 -19.47128
282.6753 39.22988 -19.451265
280.30615 41.223885 -12.284485
280.30945 41.145195 -12.262407
280.30618 41.22387 -12.284489
280.30948 41.145195 -12.262411
278.02078 42.963554 -5.248561
278.025 42.877434 -5.225851
276.0751 44.78019 1.761554
276.08057 44.684853 1.787669
274.11627 46.575386 8.627192
274.1221 46.46998 8.656278
272.24976 48.08512 15.370752
272.2571 47.96943 15.398779
270.23944 49.62861 21.994629
270.24637 49.504417 22.024836
268.13818 51.062202 28.404951
268.14426 50.93026 28.43502
267.08746 51.512337 34.681316
267.10205 51.36863 34.69428
267.08746 51.512337 34.681324
267.10205 51.36863 34.694283
266.2308 52.309868 40.858185
266.2473 52.155937 40.87845
263.73138 53.26406 46.29465
263.74084 53.100975 46.323475
263.7314 53.26406 46.29466
263.74084 53.100975 46.32348
261.03763 53.648308 51.77615
261.05032 53.47193 51.794056
258.54077 53.770958 57.680832
258.56015 53.582497 57.69149
253.84583 54.201073 64.33337
253.8623 54.01072 64.35327
253.84583 54.201103 64.33338
253.86234 54.010735 64.353294
250.40308 54.58735 69.765274
293.98972 31.607246 -50.57563
290.73987 33.73832 -41.753986
287.9495 35.491722 -34.166756
285.22122 37.261284 -26.744432
282.69177 39.15412 -19.42599
280.32742 41.063805 -12.234859
280.32745 41.06382 -12.234863
278.04523 42.78837 -5.19732
276.10403 44.58622 1.8195
274.14792 46.360954 8.69174
272.28625 47.84974 15.433537
270.27652 49.375954 22.062752
268.17477 50.793755 28.473707
267.1439 51.219948 34.712025
267.1439 51.219948 34.712032
266.29306 51.99671 40.90298
263.77835 52.93229 46.364536
261.09326 53.28945 51.826427
258.61298 53.38755 57.7153
253.90979 53.81481 64.389114
253.90982 53.814827 64.38913
294.00876 31.55767 -50.556107
290.7614 33.683968 -41.733135
287.9738 35.430748 -34.143753
285.24844 37.192833 -26.718184
282.72177 39.079124 -19.396313
280.35992 40.9833 -12.202822
280.35992 40.9833 -12.202826
278.08136 42.70022 -5.163994
276.1454 44.48864 1.855911
274.19342 46.25309 8.732335
272.33694 47.731316 15.473777
270.32965 49.248817 22.106983
268.22955 50.65867 28.519653
267.21255 51.072777 34.733963
267.21252 51.072777 34.73397
266.36752 51.83909 40.9309
263.84372 52.765327 46.416603
263.84372 52.765327 46.416607
261.16608 53.108894 51.872524
258.69873 53.19465 57.75189
253.98895 53.62121 64.440765
253.98895 53.62124 64.44078
294.0087 31.55764 -50.556103
294.03635 31.511482 -50.534126
290.76135 33.683952 -41.733135
290.79227 33.63346 -41.709827
287.97372 35.430733 -34.143753
288.00858 35.374107 -34.118
285.24838 37.192833 -26.718184
285.2875 37.129234 -26.688875
282.7217 39.079124 -19.39631
282.76486 39.009453 -19.36357
280.3599 40.983284 -12.202821
280.40656 40.908455 -12.167736
280.35992 40.983284 -12.202826
280.4066 40.908455 -12.16774
278.08127 42.700203 -5.163994
278.1328 42.618324 -5.127357
276.14536 44.488625 1.855911
276.20398 44.397972 1.895184
274.19336 46.253075 8.732334
274.25803 46.15287 8.776152
272.3369 47.7313 15.473776
272.40836 47.621284 15.517683
270.32965 49.248802 22.106981
270.40497 49.130714 22.155563
268.22955 50.658653 28.519653
268.3078 50.533104 28.570858
267.21252 51.07276 34.733963
267.30658 50.936058 34.759228
267.2125 51.07276 34.733967
267.30655 50.936028 34.759235
266.36743 51.839073 40.930893
266.4691 51.69265 40.960873
263.8437 52.765312 46.416595
263.93585 52.610176 46.477695
263.84366 52.765297 46.4166
263.93582 52.610176 46.4777
261.16605 53.108864 51.87252
261.26743 52.941093 51.931046
258.6986 53.194633 57.75188
258.81546 53.015373 57.80039
253.98889 53.621193 64.44075
254.09875 53.441 64.50707
253.98889 53.62121 64.440765
254.09875 53.441032 64.50709
296.78918 30.070976 -57.03862
294.03632 31.511452 -50.53412
294.07693 31.467384 -50.507595
290.79224 33.63343 -41.709824
290.8373 33.58541 -41.681908
288.0085 35.374092 -34.117996
288.05923 35.320183 -34.087112
285.2874 37.129234 -26.688873
285.34433 37.068687 -26.653805
282.76483 39.009438 -19.363567
282.82773 38.943123 -19.32493
280.40656 40.908424 -12.167735
280.47467 40.837257 -12.126644
280.40656 40.908424 -12.167739
280.47467 40.837257 -12.126648
278.13278 42.618294 -5.127357
278.20767 42.540398 -5.084261
276.20395 44.39794 1.895184
276.2888 44.3117 1.940422
274.258 46.15284 8.776151
274.35165 46.057487 8.826618
272.40836 47.62127 15.517682
272.51144 47.51661 15.568864
270.40497 49.1307 22.155561
270.51407 49.018364 22.21265
268.3078 50.53309 28.570856
268.42184 50.413734 28.631956
267.30652 50.936012 34.759228
267.43982 50.805992 34.790386
267.30652 50.936012 34.75923
267.43982 50.805992 34.790394
266.4691 51.692635 40.96087
266.61258 51.553352 40.99522
263.93582 52.610176 46.47769
264.06876 52.46264 46.554146
263.9358 52.610176 46.477695
264.06876 52.462624 46.55415
261.2674 52.941093 51.93104
261.4125 52.7815 52.009296
258.8154 53.015373 57.80038
258.9802 52.84487 57.867447
254.09879 53.441 64.50707
254.2555 53.268852 64.59658
254.09879 53.441017 64.50709
254.2555 53.268883 64.59659
250.40314 54.587395 69.76528
POLYGONS 1253 5012
3 0 1 2
3 2 1 3
3 2 3 4
3 4 3 5
3 4 5 6
3 6 5 7
3 6 7 8
3 8 7 9
3 8 9 10
3 10 9 11
3 10 11 12
3 12 11 13
3 14 15 16
3 16 15 17
3 16 17 18
3 18 17 19
3 18 19 20
3 20 19 21
3 20 21 22
3 22 21 23
3 22 23 24
3 24 23 25
3 24 25 26
3 26 25 27
3 26 27 28
3 28 27 29
3 30 31 32
3 32 31 33
3 32 33 34
3 34 33 35
3 36 37 38
3 38 37 39
3 38 39 40
3 40 39 41
3 40 41 42
3 42 41 43
3 44 45 46
3 46 45 47
3 1 0 3
3 3 0 48
3 3 48 5
3 5 48 49
3 5 49 7
3 7 49 50
3 7 50 9
3 9 50 51
3 9 51 11
3 11 51 52
3 11 52 13
3 13 52 53
3 15 54 17
3 17 54 55
3 17 55 19
3 19 55 56
3 19 56 21
3 21 56 57
3 21 57 23
3 23 57 58
3 23 58 25
3 25 58 59
3 25 59 27
3 27 59 60
3 27 60 29
3 29 60 61
3 31 62 33
3 33 62 63
3 33 63 35
3 35 63 64
3 37 65 39
3 39 65 66
3 39 66 41
3 41 66 67
3 41 67 43
3 43 67 68
3 45 69 47
3 47 69 46
3 48 0 70
3 48 70 49
3 49 70 71
3 49 71 50
3 50 71 72
3 50 72 51
3 51 72 73
3 51 73 52
3 52 73 74
3 52 74 53
3 53 74 75
3 54 76 55
3 55 76 77
3 55 77 56
3 56 77 78
3 56 78 57
3 57 78 79
3 57 79 58
3 58 79 80
3 58 80 59
3 59 80 81
3 59 81 60
3 60 81 82
3 60 82 61
3 61 82 83
3 62 84 63
3 63 84 85
3 63 85 64
3 64 85 86
3 65 87 66
3 66 87 88
3 66 88 67
3 67 88 89
3 67 89 68
3 68 89 90
3 69 91 46
3 0 92 70
3 70 92 93
3 70 93 71
3 71 93 94
3 71 94 72
3 72 94 95
3 72 95 73
3 73 95 96
3 73 96 74
3 74 96 97
3 74 97 75
3 75 97 98
3 76 99 77
3 77 99 100
3 77 100 78
3 78 100 101
3 78 101 79
3 79 101 102
3 79 102 80
3 80 102 103
3 80 103 81
3 81 103 104
3 81 104 82
3 82 104 105
3 82 105 83
3 83 105 106
3 84 107 85
3 85 107 108
3 85 108 86
3 86 108 109
3 87 110 88
3 88 110 111
3 88 111 89
3 89 111 112
3 89 112 90
3 90 112 113
3 91 114 46
3 46 114 115
3 116 117 93
3 93 117 118
3 93 118 94
3 94 118 119
3 94 119 95
3 95 119 120
3 95 120 96
3 96 120 121
3 96 121 97
3 97 121 122
3 97 122 98
3 98 122 123
3 99 124 100
3 100 124 125
3 100 125 101
3 101 125 126
3 101 126 102
3 102 126 127
3 102 127 103
3 103 127 128
3 103 128 104
3 104 128 129
3 104 129 105
3 105 129 130
3 105 130 106
3 106 130 131
3 107 132 108
3 108 132 133
3 108 133 109
3 109 133 134
3 110 135 111
3 111 135 136
3 111 136 112
3 112 136 137
3 112 137 113
3 113 137 138
3 114 139 115
3 115 139 140
3 117 141 118
3 118 141 142
3 118 142 119
3 119 142 143
3 119 143 120
3 120 143 144
3 120 144 121
3 121 144 145
3 121 145 122
3 122 145 146
3 122 146 123
3 123 146 147
3 124 148 125
3 125 148 149
3 125 149 126
3 126 149 150
3 126 150 127
3 127 150 151
3 127 151 128
3 128 151 152
3 128 152 129
3 129 152 153
3 129 153 130
3 130 153 154
3 130 154 131
3 131 154 155
3 132 156 133
3 133 156 157
3 133 157 134
3 134 157 158
3 135 159 136
3 136 159 160
3 136 160 137
3 137 160 161
3 137 161 138
3 138 161 162
3 139 163 140
3 140 163 46
3 141 164 142
3 142 164 165
3 142 165 143
3 143 165 166
3 143 166 144
3 144 166 167
3 144 167 145
3 145 167 168
3 145 168 146
3 146 168 169
3 146 169 147
3 147 169 170
3 148 171 149
3 149 171 172
3 149 172 150
3 150 172 173
3 150 173 151
3 151 173 174
3 151 174 152
3 152 174 175
3 152 175 153
3 153 175 176
3 153 176 154
3 154 176 177
3 154 177 155
3 155 177 178
3 156 179 157
3 157 179 180
3 157 180 158
3 158 180 181
3 159 182 160
3 160 182 183
3 160 183 161
3 161 183 184
3 161 184 162
3 162 184 185
3 163 186 46
3 46 186 187
3 164 188 165
3 165 188 189
3 165 189 166
3 166 189 190
3 166 190 167
3 167 190 191
3 167 191 168
3 168 191 192
3 168 192 169
3 169 192 193
3 169 193 170
3 170 193 194
3 171 195 172
3 172 195 196
3 172 196 173
3 173 196 197
3 173 197 174
3 174 197 198
3 174 198 175
3 175 198 199
3 175 199 176
3 176 199 200
3 176 200 177
3 177 200 201
3 177 201 178
3 178 201 202
3 179 203 180
3 180 203 204
3 180 204 181
3 181 204 205
3 182 206 183
3 183 206 207
3 183 207 184
3 184 207 208
3 184 208 185
3 185 208 209
3 186 210 187
3 187 210 211
3 212 92 189
3 189 92 213
3 189 213 190
3 190 213 214
3 190 214 191
3 191 214 215
3 191 215 192
3 192 215 216
3 192 216 193
3 193 216 217
3 193 217 194
3 194 217 218
3 195 219 196
3 196 219 220
3 196 220 197
3 197 220 221
3 197 221 198
3 198 221 222
3 198 222 199
3 199 222 223
3 199 223 200
3 200 223 224
3 200 224 201
3 201 224 225
3 201 225 202
3 202 225 226
3 203 227 204
3 204 227 228
3 204 228 205
3 205 228 229
3 206 230 207
3 207 230 231
3 207 231 208
3 208 231 232
3 208 232 209
3 209 232 233
3 210 234 211
3 211 234 46
3 92 0 213
3 213 0 235
3 213 235 214
3 214 235 236
3 214 236 215
3 215 236 237
3 215 237 216
3 216 237 238
3 216 238 217
3 217 238 239
3 217 239 218
3 218 239 240
3 219 241 220
3 220 241 242
3 220 242 221
3 221 242 243
3 221 243 222
3 222 243 244
3 222 244 223
3 223 244 245
3 223 245 224
3 224 245 246
3 224 246 225
3 225 246 247
3 225 247 226
3 226 247 248
3 227 249 228
3 228 249 250
3 228 250 229
3 229 250 251
3 230 252 231
3 231 252 253
3 231 253 232
3 232 253 254
3 232 254 233
3 233 254 255
3 234 256 46
3 46 256 115
3 0 164 235
3 235 164 257
3 235 257 236
3 236 257 258
3 236 258 237
3 237 258 259
3 237 259 238
3 238 259 260
3 238 260 239
3 239 260 261
3 239 261 240
3 240 261 262
3 241 263 242
3 242 263 264
3 242 264 243
3 243 264 265
3 243 265 244
3 244 265 266
3 244 266 245
3 245 266 267
3 245 267 246
3 246 267 268
3 246 268 247
3 247 268 269
3 247 269 248
3 248 269 270
3 249 271 250
3 250 271 272
3 250 272 251
3 251 272 273
3 252 274 253
3 253 274 275
3 253 275 254
3 254 275 276
3 254 276 255
3 255 276 277
3 256 278 115
3 115 278 211
3 164 279 257
3 257 279 280
3 257 280 258
3 258 280 281
3 258 281 259
3 259 281 282
3 259 282 260
3 260 282 283
3 260 283 261
3 261 283 284
3 261 284 262
3 262 284 285
3 263 286 264
3 264 286 287
3 264 287 265
3 265 287 288
3 265 288 266
3 266 288 289
3 266 289 267
3 267 289 290
3 267 290 268
3 268 290 291
3 268 291 269
3 269 291 292
3 269 292 270
3 270 292 293
3 271 294 272
3 272 294 295
3 272 295 273
3 273 295 296
3 274 297 275
3 275 297 298
3 275 298 276
3 276 298 299
3 276 299 277
3 277 299 300
3 278 301 211
3 211 301 302
3 279 303 280
3 280 303 304
3 280 304 281
3 281 304 305
3 281 305 282
3 282 305 306
3 282 306 283
3 283 306 307
3 283 307 284
3 284 307 308
3 284 308 285
3 285 308 309
3 286 310 287
3 287 310 311
3 287 311 288
3 288 311 312
3 288 312 289
3 289 312 313
3 289 313 290
3 290 313 314
3 290 314 291
3 291 314 315
3 291 315 292
3 292 315 316
3 292 316 293
3 293 316 317
3 294 318 295
3 295 318 319
3 295 319 296
3 296 319 320
3 297 321 298
3 298 321 322
3 298 322 299
3 299 322 323
3 299 323 300
3 300 323 324
3 301 325 302
3 302 325 326
3 303 212 304
3 304 212 327
3 304 327 305
3 305 327 328
3 305 328 306
3 306 328 329
3 306 329 307
3 307 329 330
3 307 330 308
3 308 330 331
3 308 331 309
3 309 331 332
3 310 333 311
3 311 333 334
3 311 334 312
3 312 334 335
3 312 335 313
3 313 335 336
3 313 336 314
3 314 336 337
3 314 337 315
3 315 337 338
3 315 338 316
3 316 338 339
3 316 339 317
3 317 339 340
3 318 341 319
3 319 341 342
3 319 342 320
3 320 342 343
3 321 344 322
3 322 344 345
3 322 345 323
3 323 345 346
3 323 346 324
3 324 346 347
3 325 348 46
3 46 348 211
3 212 0 327
3 327 0 349
3 327 349 328
3 328 349 350
3 328 350 329
3 329 350 351
3 329 351 330
3 330 351 352
3 330 352 331
3 331 352 353
3 331 353 332
3 332 353 354
3 333 355 334
3 334 355 356
3 334 356 335
3 335 356 357
3 335 357 336
3 336 357 358
3 336 358 337
3 337 358 359
3 337 359 338
3 338 359 360
3 338 360 339
3 339 360 361
3 339 361 340
3 340 361 362
3 341 363 342
3 342 363 364
3 342 364 343
3 343 364 365
3 344 366 345
3 345 366 367
3 345 367 346
3 346 367 368
3 346 368 347
3 347 368 369
3 348 370 211
3 0 212 349
3 349 212 371
3 349 371 350
3 350 371 372
3 350 372 351
3 351 372 373
3 351 373 352
3 352 373 374
3 352 374 353
3 353 374 375
3 353 375 354
3 354 375 376
3 355 377 356
3 356 377 378
3 356 378 357
3 357 378 379
3 357 379 358
3 358 379 380
3 358 380 359
3 359 380 381
3 359 381 360
3 360 381 382
3 360 382 361
3 361 382 383
3 361 383 362
3 362 383 384
3 363 385 364
3 364 385 386
3 364 386 365
3 365 386 387
3 366 388 367
3 367 388 389
3 367 389 368
3 368 389 390
3 368 390 369
3 369 390 391
3 370 392 211
3 211 392 393
3 371 0 394
3 371 394 372
3 372 394 395
3 372 395 373
3 373 395 396
3 373 396 374
3 374 396 397
3 374 397 375
3 375 397 398
3 375 398 376
3 376 398 399
3 377 400 378
3 378 400 401
3 378 401 379
3 379 401 402
3 379 402 380
3 380 402 403
3 380 403 381
3 381 403 404
3 381 404 382
3 382 404 405
3 382 405 383
3 383 405 406
3 383 406 384
3 384 406 407
3 385 408 386
3 386 408 409
3 386 409 387
3 387 409 410
3 388 411 389
3 389 411 412
3 389 412 390
3 390 412 413
3 390 413 391
3 391 413 414
3 392 415 393
3 393 415 211
3 0 416 394
3 394 416 417
3 394 417 395
3 395 417 418
3 395 418 396
3 396 418 419
3 396 419 397
3 397 419 420
3 397 420 398
3 398 420 421
3 398 421 399
3 399 421 422
3 400 423 401
3 401 423 424
3 401 424 402
3 402 424 425
3 402 425 403
3 403 425 426
3 403 426 404
3 404 426 427
3 404 427 405
3 405 427 428
3 405 428 406
3 406 428 429
3 406 429 407
3 407 429 430
3 408 431 409
3 409 431 432
3 409 432 410
3 410 432 433
3 411 434 412
3 412 434 435
3 412 435 413
3 413 435 436
3 413 436 414
3 414 436 437
3 415 438 46
3 164 439 440
3 440 439 441
3 440 441 442
3 442 441 443
3 442 443 419
3 419 443 444
3 419 444 445
3 445 444 446
3 445 446 447
3 447 446 448
3 447 448 449
3 449 448 450
3 451 452 453
3 453 452 454
3 453 454 455
3 455 454 456
3 455 456 457
3 457 456 458
3 457 458 459
3 459 458 460
3 459 460 461
3 461 460 462
3 461 462 463
3 463 462 464
3 463 464 465
3 465 464 466
3 431 467 468
3 468 467 469
3 468 469 470
3 470 469 471
3 472 473 474
3 474 473 475
3 474 475 476
3 476 475 477
3 476 477 437
3 437 477 478
3 438 479 46
3 46 479 480
3 481 0 482
3 482 0 483
3 482 483 484
3 484 483 485
3 484 485 486
3 486 485 487
3 486 487 488
3 488 487 489
3 488 489 490
3 490 489 491
3 490 491 492
3 492 491 493
3 494 495 496
3 496 495 497
3 496 497 498
3 498 497 499
3 498 499 500
3 500 499 501
3 500 501 502
3 502 501 503
3 502 503 504
3 504 503 505
3 504 505 506
3 506 505 507
3 506 507 508
3 508 507 509
3 510 511 512
3 512 511 513
3 512 513 514
3 514 513 515
3 516 517 518
3 518 517 519
3 518 519 520
3 520 519 521
3 520 521 522
3 522 521 523
3 524 525 46
3 46 525 326
3 0 164 483
3 483 164 526
3 483 526 485
3 485 526 527
3 485 527 487
3 487 527 528
3 487 528 489
3 489 528 529
3 489 529 491
3 491 529 530
3 491 530 493
3 493 530 531
3 495 532 497
3 497 532 533
3 497 533 499
3 499 533 534
3 499 534 501
3 501 534 535
3 501 535 503
3 503 535 536
3 503 536 505
3 505 536 537
3 505 537 507
3 507 537 538
3 507 538 509
3 509 538 539
3 511 540 513
3 513 540 541
3 513 541 515
3 515 541 542
3 517 543 519
3 519 543 544
3 519 544 521
3 521 544 545
3 521 545 523
3 523 545 546
3 525 547 326
3 326 547 46
3 164 303 526
3 526 303 548
3 526 548 527
3 527 548 549
3 527 549 528
3 528 549 550
3 528 550 529
3 529 550 551
3 529 551 530
3 530 551 552
3 530 552 531
3 531 552 553
3 532 554 533
3 533 554 555
3 533 555 534
3 534 555 556
3 534 556 535
3 535 556 557
3 535 557 536
3 536 557 558
3 536 558 537
3 537 558 559
3 537 559 538
3 538 559 560
3 538 560 539
3 539 560 561
3 540 562 541
3 541 562 563
3 541 563 542
3 542 563 564
3 543 565 544
3 544 565 566
3 544 566 545
3 545 566 567
3 545 567 546
3 546 567 568
3 547 569 46
3 548 0 570
3 548 570 571
3 571 570 572
3 571 572 550
3 550 572 573
3 550 573 574
3 574 573 575
3 574 575 576
3 576 575 577
3 576 577 578
3 578 577 579
3 554 580 581
3 581 580 582
3 581 582 583
3 583 582 584
3 583 584 585
3 585 584 586
3 585 586 587
3 587 586 588
3 587 588 589
3 589 588 590
3 589 590 560
3 560 590 591
3 560 591 592
3 592 591 593
3 594 595 596
3 596 595 597
3 596 597 598
3 598 597 599
3 600 601 602
3 602 601 603
3 602 603 604
3 604 603 605
3 604 605 606
3 606 605 607
3 608 609 115
3 164 92 610
3 610 92 611
3 610 611 612
3 612 611 613
3 612 613 614
3 614 613 615
3 614 615 616
3 616 615 617
3 616 617 618
3 618 617 619
3 618 619 579
3 579 619 620
3 621 622 623
3 623 622 624
3 623 624 584
3 584 624 625
3 584 625 586
3 586 625 626
3 586 626 627
3 627 626 628
3 627 628 629
3 629 628 630
3 629 630 631
3 631 630 632
3 631 632 593
3 593 632 633
3 634 635 597
3 597 635 636
3 597 636 637
3 637 636 638
3 639 640 641
3 641 640 642
3 641 642 643
3 643 642 644
3 643 644 607
3 607 644 645
3 609 646 46
3 46 646 115
3 92 647 611
3 611 647 648
3 611 648 613
3 613 648 649
3 613 649 615
3 615 649 650
3 615 650 617
3 617 650 651
3 617 651 619
3 619 651 652
3 619 652 620
3 620 652 653
3 622 654 624
3 624 654 655
3 624 655 625
3 625 655 656
3 625 656 626
3 626 656 657
3 626 657 628
3 628 657 658
3 628 658 630
3 630 658 659
3 630 659 632
3 632 659 660
3 632 660 633
3 633 660 661
3 635 662 636
3 636 662 663
3 636 663 638
3 638 663 664
3 640 665 642
3 642 665 666
3 642 666 644
3 644 666 667
3 644 667 645
3 645 667 668
3 646 669 670
3 670 669 671
3 0 279 648
3 648 279 672
3 648 672 649
3 649 672 673
3 649 673 650
3 650 673 674
3 650 674 651
3 651 674 675
3 651 675 652
3 652 675 676
3 652 676 653
3 653 676 677
3 654 678 655
3 655 678 679
3 655 679 656
3 656 679 680
3 656 680 657
3 657 680 681
3 657 681 658
3 658 681 682
3 658 682 659
3 659 682 683
3 659 683 660
3 660 683 684
3 660 684 661
3 661 684 685
3 662 686 663
3 663 686 687
3 663 687 664
3 664 687 688
3 665 689 666
3 666 689 690
3 666 690 667
3 667 690 691
3 667 691 668
3 668 691 692
3 669 693 671
3 671 693 694
3 416 212 672
3 672 212 695
3 672 695 696
3 696 695 697
3 696 697 698
3 698 697 699
3 698 699 700
3 700 699 701
3 700 701 702
3 702 701 703
3 702 703 704
3 704 703 705
3 706 707 708
3 708 707 709
3 708 709 680
3 680 709 710
3 680 710 681
3 681 710 711
3 681 711 712
3 712 711 713
3 712 713 714
3 714 713 715
3 714 715 716
3 716 715 717
3 716 717 718
3 718 717 719
3 686 720 687
3 687 720 721
3 687 721 722
3 722 721 723
3 724 725 726
3 726 725 727
3 726 727 691
3 691 727 728
3 691 728 729
3 729 728 730
3 731 732 46
3 116 164 695
3 733 164 734
3 733 734 735
3 735 734 736
3 735 736 737
3 737 736 738
3 737 738 739
3 739 738 740
3 739 740 741
3 741 740 742
3 741 742 743
3 743 742 744
3 745 746 747
3 747 746 748
3 747 748 749
3 749 748 750
3 749 750 751
3 751 750 752
3 751 752 753
3 753 752 754
3 753 754 755
3 755 754 756
3 755 756 757
3 757 756 758
3 757 758 759
3 759 758 760
3 761 762 763
3 763 762 764
3 763 764 765
3 765 764 766
3 767 768 769
3 769 768 770
3 769 770 771
3 771 770 772
3 771 772 773
3 773 772 774
3 775 776 46
3 46 776 777
3 164 416 734
3 734 416 778
3 734 778 736
3 736 778 779
3 736 779 738
3 738 779 780
3 738 780 740
3 740 780 781
3 740 781 742
3 742 781 782
3 742 782 744
3 744 782 783
3 746 784 748
3 748 784 785
3 748 785 750
3 750 785 786
3 750 786 752
3 752 786 787
3 752 787 754
3 754 787 788
3 754 788 756
3 756 788 789
3 756 789 758
3 758 789 790
3 758 790 760
3 760 790 791
3 762 792 764
3 764 792 793
3 764 793 766
3 766 793 794
3 768 794 770
3 770 794 795
3 770 795 772
3 772 795 796
3 772 796 774
3 774 796 797
3 776 798 777
3 416 481 778
3 778 481 799
3 778 799 779
3 779 799 800
3 779 800 780
3 780 800 801
3 780 801 781
3 781 801 802
3 781 802 782
3 782 802 803
3 782 803 783
3 783 803 804
3 784 805 785
3 785 805 806
3 785 806 786
3 786 806 807
3 786 807 787
3 787 807 808
3 787 808 788
3 788 808 809
3 788 809 789
3 789 809 810
3 789 810 790
3 790 810 811
3 790 811 791
3 791 811 812
3 792 813 793
3 793 813 814
3 793 814 794
3 794 814 815
3 794 816 795
3 795 816 817
3 795 817 796
3 796 817 818
3 796 818 797
3 797 818 819
3 798 820 777
3 777 820 46
3 439 164 799
3 821 164 822
3 821 822 823
3 823 822 824
3 823 824 825
3 825 824 826
3 825 826 827
3 827 826 828
3 827 828 829
3 829 828 830
3 829 830 831
3 831 830 832
3 833 834 835
3 835 834 836
3 835 836 837
3 837 836 838
3 837 838 839
3 839 838 840
3 839 840 841
3 841 840 842
3 841 842 843
3 843 842 844
3 843 844 845
3 845 844 846
3 845 846 847
3 847 846 848
3 849 850 851
3 851 850 852
3 851 852 853
3 853 852 854
3 855 856 857
3 857 856 858
3 857 858 859
3 859 858 860
3 859 860 861
3 861 860 862
3 863 864 480
3 480 864 187
3 865 0 822
3 866 0 867
3 866 867 868
3 868 867 869
3 868 869 870
3 870 869 871
3 870 871 872
3 872 871 873
3 872 873 874
3 874 873 875
3 874 875 876
3 876 875 877
3 878 879 880
3 880 879 881
3 880 881 882
3 882 881 883
3 882 883 884
3 884 883 885
3 884 885 886
3 886 885 887
3 886 887 888
3 888 887 889
3 888 889 890
3 890 889 891
3 890 891 892
3 892 891 893
3 894 895 896
3 896 895 897
3 896 897 898
3 898 897 899
3 900 901 902
3 902 901 903
3 902 903 904
3 904 903 905
3 904 905 906
3 906 905 907
3 908 909 326
3 326 909 47
3 867 0 2
3 867 2 869
3 869 2 4
3 869 4 871
3 871 4 6
3 871 6 873
3 873 6 8
3 873 8 875
3 875 8 10
3 875 10 877
3 877 10 12
3 879 14 881
3 881 14 16
3 881 16 883
3 883 16 18
3 883 18 885
3 885 18 20
3 885 20 887
3 887 20 22
3 887 22 889
3 889 22 24
3 889 24 891
3 891 24 26
3 891 26 893
3 893 26 28
3 895 30 897
3 897 30 32
3 897 32 899
3 899 32 34
3 901 36 903
3 903 36 38
3 903 38 905
3 905 38 40
3 905 40 907
3 907 40 42
3 909 44 47
3 0 648 647
3 115 646 670
3 187 864 910
3 211 415 46
3 212 189 188
3 694 693 47
3 326 325 46
3 695 164 733
3 116 93 92
3 799 164 821
3 822 0 866
