# vtk DataFile Version 2.0
File written by itkPolyDataMeshIO
ASCII
DATASET POLYDATA
POINTS 673 float
-104.39863 31.067574 -145.80592
-103.4557 33.292336 -146.31175
-104.42868 31.143105 -145.58769
-106.4055 28.39048 -145.26141
-106.45119 28.468788 -145.02902
-108.18372 24.798668 -144.56459
-108.25237 24.882957 -144.30942
-108.18372 24.798653 -144.56458
-108.25238 24.882942 -144.3094
-109.94331 18.141823 -144.08566
-110.03781 18.209435 -143.78908
-111.68856 8.27314 -145.07256
-111.818085 8.277687 -144.7251
-113.73823 -1.645042 -147.5773
-113.90478 -1.697502 -147.20201
-113.11764 -10.734322 -149.54483
-113.29098 -10.823784 -149.10886
-109.161316 -18.218025 -150.92834
-109.3108 -18.385918 -150.39537
-103.63326 -23.78321 -152.75842
-103.74427 -24.07325 -152.14488
-103.63327 -23.783195 -152.75844
-103.74427 -24.07325 -152.1449
-97.96106 -28.72779 -154.24039
-98.08927 -29.069756 -153.592
-92.53186 -34.230934 -153.11115
-92.92593 -34.538887 -152.4411
-92.53187 -34.23092 -153.11115
-92.925934 -34.538887 -152.4411
-87.33171 -38.123512 -151.086
-87.85369 -38.431496 -150.35983
-80.41643 -39.677864 -149.89322
-80.81606 -39.95011 -149.13907
-80.416435 -39.67785 -149.89322
-80.81606 -39.950096 -149.13908
-75.553314 -42.004448 -149.77493
-75.55332 -42.004448 -149.77492
-103.4557 33.29235 -146.31175
-104.469315 31.20237 -145.4779
-106.502335 28.530296 -144.91324
-108.319855 24.944862 -144.18402
-108.319855 24.944847 -144.184
-110.12694 18.257454 -143.64325
-111.93545 8.29113 -144.55257
-114.0451 -1.710213 -147.0179
-113.43131 -10.865623 -148.90619
-109.436035 -18.48809 -150.15892
-103.851685 -24.252739 -151.87677
-103.851685 -24.252708 -151.87677
-98.20213 -29.282875 -153.3133
-93.15405 -34.73861 -152.17012
-93.15405 -34.73861 -152.1701
-88.12794 -38.640343 -150.0697
-81.0336 -40.167305 -148.8159
-103.455696 33.29235 -146.31175
-104.52037 31.264442 -145.39384
-106.563515 28.59475 -144.82541
-108.39601 25.00698 -144.09065
-108.39602 25.006966 -144.09064
-110.22586 18.304176 -143.53482
-112.066696 8.310005 -144.42224
-114.19804 -1.709175 -146.87936
-113.58034 -10.895638 -148.75685
-109.56944 -18.581795 -149.98843
-103.97149 -24.419289 -151.68587
-103.97148 -24.419273 -151.68588
-98.324425 -29.48162 -153.11842
-93.35812 -34.929527 -151.99406
-93.35813 -34.929512 -151.99406
-88.35752 -38.844856 -149.88474
-81.21528 -40.39045 -148.59991
-103.455696 33.292366 -146.31177
-104.581345 31.331047 -145.32556
-106.63454 28.663872 -144.75485
-108.48155 25.071526 -144.01785
-108.48156 25.07151 -144.01784
-110.336914 18.351738 -143.45071
-112.21683 8.334206 -144.3184
-114.37063 -1.6968 -146.76883
-113.7454 -10.918251 -148.6372
-109.717125 -18.675713 -149.85193
-104.107506 -24.587883 -151.53488
-104.1075 -24.587883 -151.5349
-98.46108 -29.68354 -152.9677
-93.55943 -35.127052 -151.87073
-93.55943 -35.127037 -151.87071
-88.57204 -39.059837 -149.7587
-81.38315 -40.629463 -148.44305
-81.38315 -40.629448 -148.44307
-75.553314 -42.004433 -149.77495
-104.64817 31.39843 -145.27498
-106.71081 28.733604 -144.70375
-108.57263 25.135597 -143.96693
-108.57263 25.135582 -143.96693
-110.456955 18.398964 -143.39197
-112.38121 8.363091 -144.24373
-114.557755 -1.673653 -146.6896
-113.92365 -10.933769 -148.54883
-109.87855 -18.76992 -149.74889
-104.25944 -24.75872 -151.4228
-104.25944 -24.758705 -151.42282
-98.61174 -29.888329 -152.85913
-93.75742 -35.32865 -151.79419
-93.75743 -35.328667 -151.79419
-88.77128 -39.280617 -149.68315
-81.53686 -40.87745 -148.33745
-81.53686 -40.87745 -148.33746
-75.55331 -42.004448 -149.77493
-104.71779 31.463966 -145.24257
-106.78899 28.801033 -144.67325
-108.66709 25.197624 -143.9377
-108.6671 25.197609 -143.93767
-110.58433 18.445839 -143.35762
-112.55507 8.396217 -144.19957
-114.75387 -1.640678 -146.64386
-114.11388 -10.943245 -148.4935
-110.057 -18.866127 -149.68117
-104.431274 -24.934624 -151.352
-104.431274 -24.934608 -151.35202
-98.77991 -30.098839 -152.79439
-93.95343 -35.534126 -151.7618
-93.95344 -35.534126 -151.76181
-88.95527 -39.504112 -149.65244
-81.6767 -41.1305 -148.27708
-75.553314 -42.004448 -149.77492
-103.455696 33.29235 -146.31177
-104.78937 31.527199 -145.22723
-106.868256 28.865715 -144.6625
-108.76476 25.257668 -143.92865
-108.76476 25.257652 -143.92865
-110.71766 18.492744 -143.34601
-112.73248 8.432854 -144.18567
-114.95256 -1.599236 -146.63246
-114.314766 -10.947975 -148.47298
-110.256004 -18.965996 -149.65138
-104.62742 -25.118416 -151.32571
-104.62741 -25.1184 -151.32573
-98.969635 -30.31823 -152.77669
-94.14966 -35.745354 -151.77534
-94.14966 -35.74534 -151.77536
-89.12474 -39.73136 -149.6671
-81.803604 -41.38949 -148.26056
-75.55331 -42.004433 -149.77493
-104.863785 31.589256 -145.22742
-106.94961 28.928734 -144.66948
-108.86639 25.316414 -143.93837
-108.8664 25.316414 -143.93837
-110.85487 18.539345 -143.35617
-112.906075 8.471535 -144.20036
-115.14623 -1.551277 -146.65456
-114.52187 -10.948708 -148.48817
-110.47354 -19.068413 -149.66164
-104.846306 -25.3079 -151.34647
-104.84631 -25.307884 -151.34647
-99.1799 -30.544518 -152.80904
-94.34652 -35.9636 -151.83951
-89.28069 -39.966545 -149.73265
-81.9187 -41.659203 -148.2911
-103.4557 33.292366 -146.31175
-104.94206 31.651024 -145.24272
-107.033875 28.99099 -144.69292
-108.97229 25.374138 -143.96721
-108.97229 25.374123 -143.9672
-110.993484 18.584816 -143.38933
-113.06869 8.510506 -144.24197
-115.32658 -1.49929 -146.70712
-114.72648 -10.945564 -148.53813
-110.70003 -19.168556 -149.71335
-105.07838 -25.494072 -151.4158
-105.078384 -25.494057 -151.4158
-99.40258 -30.768135 -152.89331
-94.54063 -36.185722 -151.958
-94.540634 -36.185707 -151.958
-89.42279 -40.211876 -149.85399
-82.02175 -41.94306 -148.37369
-82.02175 -41.94306 -148.3737
-103.4557 33.29235 -146.31177
-105.02443 31.712318 -145.27466
-107.120995 29.052269 -144.73372
-109.082085 25.43026 -144.01724
-109.08209 25.43026 -144.01724
-111.13193 18.628197 -143.44772
-113.216225 8.548485 -144.30898
-115.48638 -1.446129 -146.78572
-114.91826 -10.938713 -148.6206
-110.92326 -19.260414 -149.80734
-105.31132 -25.665718 -151.53458
-105.31132 -25.665688 -151.53458
-99.626625 -30.976433 -153.03003
-94.72473 -36.403404 -152.13062
-94.72474 -36.403404 -152.13063
-89.547066 -40.462135 -150.03104
-82.10929 -42.236595 -148.51207
-105.110146 31.771843 -145.32628
-107.21009 29.111458 -144.7945
-109.19498 25.483696 -144.09163
-109.194984 25.48368 -144.09161
-111.27035 18.66874 -143.53392
-113.3493 8.584801 -144.40047
-115.62181 -1.393974 -146.88647
-115.08857 -10.928368 -148.73276
-111.13248 -19.338768 -149.94281
-105.53406 -25.813179 -151.70168
-105.53406 -25.813164 -151.70169
-99.841324 -31.157799 -153.2172
-94.8887 -36.604805 -152.35231
-94.8887 -36.60479 -152.35231
-89.645485 -40.70388 -150.25798
-82.17477 -42.52572 -148.70607
-103.45571 33.292336 -146.31174
-105.197624 31.827477 -145.40117
-107.29996 29.167 -144.8783
-109.308716 25.532448 -144.19421
-109.308716 25.532433 -144.19421
-111.40706 18.704582 -143.65149
-113.46946 8.619026 -144.51653
-115.73289 -1.343422 -147.0071
-115.23304 -10.914116 -148.87135
-111.32022 -19.40055 -150.11566
-105.738525 -25.93084 -151.91203
-100.03837 -31.304878 -153.44891
-95.023125 -36.77941 -152.61542
-95.02313 -36.779396 -152.61542
-89.70982 -40.922676 -150.52711
-82.21148 -42.792946 -148.95189
-75.553314 -42.004463 -149.77493
-105.28402 31.876122 -145.50229
-107.38875 29.217155 -144.98833
-109.413445 25.571297 -144.33006
-109.413445 25.571297 -144.33005
-111.527016 18.72831 -143.80598
-113.57332 8.649117 -144.65868
-115.82178 -1.293694 -147.14716
-115.35036 -10.894722 -149.03384
-111.4807 -19.443428 -150.32059
-105.91791 -26.014732 -152.15887
-105.917915 -26.014702 -152.15889
-100.2108 -31.41233 -153.71774
-95.121216 -36.919167 -152.91118
-95.12122 -36.919167 -152.9112
-89.73479 -41.10714 -150.82976
-82.21496 -43.023155 -149.24243
-82.21496 -43.02314 -149.24243
-105.36284 31.912254 -145.63005
-107.47013 29.257011 -145.127
-109.48593 25.590157 -144.49733
-109.48594 25.590141 -144.49733
-111.595215 18.726936 -143.992
-113.64886 8.67112 -144.82596
-115.88939 -1.244164 -147.30699
-115.4397 -10.869026 -149.21765
-111.609 -19.465675 -150.55177
-106.06637 -26.061897 -152.43481
-106.06636 -26.061882 -152.4348
-100.35292 -31.47628 -154.01543
-95.179405 -37.019066 -153.23009
-95.17941 -37.01908 -153.23009
-89.71903 -41.250526 -151.15584
-82.183754 -43.20553 -149.56773
-82.183754 -43.205513 -149.56775
-75.55331 -42.004433 -149.77495
-105.414604 31.920464 -145.781
-107.516624 29.26435 -145.29247
-109.51597 25.581093 -144.67947
-109.51597 25.581093 -144.67946
-111.62163 18.70916 -144.18372
-113.69755 8.688255 -145.01161
-115.934044 -1.194817 -147.48701
-115.499176 -10.836739 -149.41956
-111.70139 -19.46659 -150.80203
-106.179405 -26.071083 -152.73096
-106.179405 -26.071053 -152.73097
-100.46041 -31.495018 -154.3324
-95.19583 -37.075935 -153.56181
-95.19584 -37.075935 -153.56181
-89.6629 -41.347893 -151.49492
-82.11825 -43.331825 -149.91646
-103.4557 33.292366 -146.31177
-105.430374 31.897636 -145.93677
-107.51804 29.235344 -145.45941
-109.50681 25.546959 -144.8527
-109.50681 25.546928 -144.85269
-111.620476 18.683693 -144.36656
-113.72081 8.703026 -145.21341
-115.95156 -1.146416 -147.68777
-115.525314 -10.798347 -149.63617
-111.75481 -19.446114 -151.06372
-106.253525 -26.042076 -153.03773
-106.253525 -26.04206 -153.03773
-100.52991 -31.46801 -154.65848
-95.169815 -37.0879 -153.89586
-95.169815 -37.087883 -153.89586
-89.56795 -41.39585 -151.83626
-82.020325 -43.39631 -150.27592
-105.41898 31.855202 -146.07906
-107.49164 29.18769 -145.60614
-109.47203 25.499626 -145.00386
-109.47204 25.49961 -145.00386
-111.59507 18.653175 -144.5396
-113.71484 8.714912 -145.43274
-115.93649 -1.100197 -147.90956
-115.514404 -10.754753 -149.8638
-111.76693 -19.404747 -151.32887
-106.28605 -25.975563 -153.3454
-106.28605 -25.975548 -153.34541
-100.55894 -31.395866 -154.98334
-95.10226 -37.05462 -154.22176
-95.10226 -37.054604 -154.22177
-89.43745 -41.393227 -152.16899
-81.89357 -43.39634 -150.63255
-81.89358 -43.39634 -150.63255
-105.39022 31.803032 -146.2008
-107.45207 29.133904 -145.72914
-109.422646 25.447533 -145.13173
-109.42265 25.447517 -145.13171
-111.54264 18.618507 -144.70027
-113.66112 8.720528 -145.66084
-115.876 -1.058861 -148.14748
-115.463066 -10.707191 -150.09854
-111.73704 -19.343758 -151.58968
-106.27602 -25.873665 -153.6444
-100.546684 -31.280922 -155.29677
-94.99538 -36.97718 -154.5291
-89.27562 -41.34008 -152.4823
-81.742775 -43.331856 -150.97278
-81.742775 -43.33184 -150.97278
-75.55332 -42.004463 -149.77493
-103.45572 33.29232 -146.31174
-105.39021 31.803032 -146.2008
-105.34841 31.744896 -146.30112
-107.45207 29.133919 -145.72914
-107.40222 29.075935 -145.83037
-109.422646 25.447548 -145.13173
-109.36156 25.392174 -145.23793
-109.422646 25.447533 -145.13171
-109.361565 25.392159 -145.23792
-111.54263 18.618523 -144.70027
-111.459 18.578712 -144.83867
-113.66112 8.720512 -145.66084
-113.54131 8.714775 -145.86794
-115.87599 -1.058876 -148.14748
-115.75727 -1.026237 -148.38557
-115.463066 -10.707207 -150.09854
-115.36863 -10.657402 -150.33551
-111.73704 -19.343773 -151.58968
-111.665924 -19.265282 -151.83818
-106.27602 -25.87368 -153.6444
-106.22409 -25.739952 -153.92516
-106.22408 -25.739937 -153.92516
-100.49377 -31.127083 -155.58871
-94.99538 -36.97718 -154.52911
-94.85251 -36.857994 -154.8079
-94.852516 -36.857994 -154.8079
-89.27561 -41.34008 -152.48232
-89.08743 -41.237785 -152.76602
-81.57367 -43.20556 -151.28389
-75.553314 -42.004433 -149.77493
-75.55333 -42.004463 -149.7749
-105.348404 31.744911 -146.30113
-103.4557 33.29235 -146.31174
-105.29725 31.683647 -146.38153
-107.402214 29.07595 -145.83037
-107.34442 29.015251 -145.91203
-109.36156 25.392204 -145.23793
-109.29142 25.334846 -145.32423
-109.36156 25.392189 -145.23792
-109.29142 25.334831 -145.32423
-111.35335 18.534904 -144.94768
-113.541306 8.71479 -145.86794
-113.37219 8.696449 -146.02708
-115.75726 -1.026222 -148.38557
-115.57679 -1.013603 -148.59
-115.36862 -10.657387 -150.33553
-115.222145 -10.6157 -150.55255
-111.66591 -19.265266 -151.8382
-111.55454 -19.173088 -152.06448
-106.22408 -25.739922 -153.92519
-106.13221 -25.578987 -154.17848
-106.22408 -25.739922 -153.92517
-106.13221 -25.578972 -154.17848
-100.49376 -31.127068 -155.58876
-100.402115 -30.93969 -155.84982
-94.8525 -36.85798 -154.80794
-94.6783 -36.70112 -155.04956
-94.8525 -36.85798 -154.80795
-94.678314 -36.701134 -155.04956
-89.087425 -41.23777 -152.76604
-88.878944 -41.089867 -153.0114
-81.57366 -43.205544 -151.2839
-81.39271 -43.0232 -151.55495
-81.39271 -43.023186 -151.55495
-75.55332 -42.004448 -149.77493
-75.55331 -42.004463 -149.77493
-103.45571 33.292366 -146.31175
-105.23963 31.621101 -146.44409
-107.28084 28.953178 -145.97623
-109.21394 25.276299 -145.39232
-109.21395 25.276283 -145.3923
-111.239655 18.48951 -145.03157
-113.18988 8.668663 -146.14055
-115.34956 -1.032372 -148.72844
-115.024414 -10.594994 -150.71655
-111.40815 -19.072945 -152.2577
-106.00597 -25.398415 -154.396
-106.005974 -25.3984 -154.39601
-100.276985 -30.727379 -156.07143
-94.4795 -36.512978 -155.24622
-94.47951 -36.512962 -155.24623
-88.65716 -40.901558 -153.21063
-81.20686 -42.792976 -151.77684
-81.20687 -42.792976 -151.77684
-105.17719 31.55828 -146.4908
-107.21261 28.890495 -146.02434
-109.12887 25.216743 -145.44276
-109.12887 25.216728 -145.44275
-111.11828 18.442467 -145.09175
-113.00869 8.635933 -146.21483
-115.121185 -1.066322 -148.81157
-114.81457 -10.584465 -150.83128
-111.24057 -18.969368 -152.41228
-105.85504 -25.209114 -154.57037
-100.12727 -30.502617 -156.24619
-94.26494 -36.30256 -155.39162
-94.264946 -36.302544 -155.3916
-88.42994 -40.67994 -153.35742
-81.02351 -42.525734 -151.94276
-105.1772 31.55828 -146.4908
-105.10964 31.494698 -146.52232
-107.212616 28.890495 -146.02432
-107.13897 28.826561 -146.05605
-109.12887 25.216743 -145.44275
-109.03478 25.155449 -145.47499
-109.03479 25.155449 -145.47498
-111.11828 18.442451 -145.09174
-110.98787 18.393333 -145.12881
-113.00869 8.635918 -146.21483
-112.83226 8.600609 -146.25621
-115.121185 -1.066338 -148.81155
-114.907906 -1.106133 -148.85423
-114.81457 -10.58445 -150.83128
-114.6101 -10.578651 -150.90486
-111.24056 -18.969368 -152.41228
-111.06298 -18.8675 -152.52412
-105.85505 -25.209114 -154.57037
-105.68927 -25.021843 -154.6955
-105.68927 -25.021828 -154.6955
-99.96233 -30.278069 -156.36838
-94.04512 -36.081245 -155.48245
-94.04512 -36.08123 -155.48245
-88.42994 -40.67994 -153.3574
-88.20701 -40.436623 -153.44933
-81.02351 -42.525734 -151.94275
-80.8505 -42.236626 -152.05008
-105.10964 31.494713 -146.52232
-105.035545 31.429298 -146.53816
-107.13897 28.826546 -146.05605
-107.05826 28.760323 -146.07008
-109.03478 25.155449 -145.47498
-108.93129 25.09217 -145.48766
-109.03479 25.155449 -145.47496
-108.9313 25.092155 -145.48764
-110.98787 18.393333 -145.1288
-110.84965 18.342842 -145.14291
-112.83225 8.600609 -146.25621
-112.66197 8.563698 -146.26901
-114.71166 -1.149498 -148.86336
-114.6101 -10.578636 -150.90486
-114.41495 -10.576744 -150.94057
-110.88107 -18.770332 -152.59192
-105.68926 -25.021843 -154.69548
-105.51439 -24.84237 -154.76933
-105.68926 -25.021812 -154.6955
-105.5144 -24.84237 -154.76933
-99.96233 -30.278053 -156.36838
-99.788574 -30.061241 -156.4364
-93.830376 -35.859596 -155.51929
-94.04512 -36.081215 -155.48247
-93.83038 -35.85958 -155.5193
-88.20701 -40.436607 -153.44933
-87.99937 -40.186028 -153.4871
-80.695526 -41.94306 -152.10034
-80.8505 -42.23661 -152.0501
-75.55331 -42.004448 -149.77495
-103.455696 33.292366 -146.31175
-104.95397 31.361488 -146.53712
-106.96964 28.691292 -146.06503
-108.820114 25.027641 -145.479
-110.70774 18.292885 -145.1336
-112.499626 8.52636 -146.25655
-114.53212 -1.195244 -148.84404
-114.22844 -10.577812 -150.94281
-110.69462 -18.677132 -152.61911
-105.33051 -24.669563 -154.79573
-105.33052 -24.669563 -154.79573
-99.60752 -29.85215 -156.45418
-93.6281 -35.644173 -155.50526
-93.628105 -35.644188 -155.50526
-87.81647 -39.94123 -153.47223
-80.56382 -41.659203 -152.09752
-103.4557 33.292336 -146.31174
-104.86669 31.293144 -146.51785
-106.8756 28.621437 -146.04016
-108.70562 24.964409 -145.44786
-108.70563 24.964394 -145.44785
-110.56714 18.245995 -145.09978
-112.34649 8.489586 -146.21991
-114.36835 -1.242332 -148.80014
-114.048775 -10.580467 -150.9164
-110.50151 -18.585945 -152.61066
-105.13579 -24.500084 -154.78017
-105.13579 -24.500069 -154.78017
-99.41824 -29.647545 -156.42723
-93.43991 -35.435936 -155.44443
-93.43992 -35.435936 -155.44444
-87.66093 -39.70684 -153.4075
-80.45573 -41.38949 -152.04681
-80.455734 -41.389503 -152.04681
-75.553314 -42.004463 -149.77492
-103.45571 33.29235 -146.31175
-104.77776 31.227882 -146.47955
-106.8756 28.621437 -146.04018
-106.780945 28.554665 -145.99542
-108.70562 24.964409 -145.44788
-108.59327 24.905937 -145.39429
-108.70563 24.964394 -145.44786
-108.59327 24.905937 -145.39427
-110.56714 18.245995 -145.0998
-110.432144 18.204216 -145.04068
-112.20282 8.45385 -146.15778
-114.219215 -1.290123 -148.73335
-113.874825 -10.583809 -150.86415
-110.300545 -18.495766 -152.5684
-104.92909 -24.332329 -154.72456
-105.13578 -24.500069 -154.78017
-104.929085 -24.332314 -154.72456
-99.418236 -29.647545 -156.42725
-99.21952 -29.445564 -156.3577
-93.43991 -35.435936 -155.44444
-93.26308 -35.232735 -155.33963
-93.43992 -35.43592 -155.44444
-93.26308 -35.23272 -155.33961
-87.66093 -39.706856 -153.4075
-87.529335 -39.480232 -153.29645
-80.45573 -41.389503 -152.04681
-80.3682 -41.1305 -151.95226
-80.368195 -41.1305 -151.95226
-104.77777 31.227837 -146.47955
-104.69192 31.169472 -146.42245
-106.78095 28.55465 -145.9954
-106.69079 28.494911 -145.93121
-108.59327 24.905907 -145.39427
-108.488205 24.855278 -145.31918
-108.59328 24.905891 -145.39426
-108.488205 24.855263 -145.31917
-110.432144 18.204185 -145.04068
-110.30619 18.168816 -144.95645
-112.20283 8.453819 -146.15776
-112.06877 8.419044 -146.06789
-114.219215 -1.290138 -148.73334
-114.084145 -1.338951 -148.64209
-113.874825 -10.583824 -150.86414
-113.70681 -10.588341 -150.78421
-110.30055 -18.49578 -152.56839
-110.09245 -18.407646 -152.4889
-104.92909 -24.332344 -154.72456
-104.71104 -24.168144 -154.62473
-104.9291 -24.332329 -154.72456
-104.71104 -24.168129 -154.62473
-99.21953 -29.445564 -156.3577
-99.01101 -29.247734 -156.24184
-93.263084 -35.23275 -155.33961
-93.094246 -35.033134 -155.19066
-93.26309 -35.232735 -155.33961
-93.09425 -35.033134 -155.19066
-87.529335 -39.480232 -153.29643
-87.41713 -39.25721 -153.14198
-80.3682 -41.1305 -151.95224
-80.298386 -40.87745 -151.81555
-80.29838 -40.87745 -151.81555
-104.61301 31.120842 -146.34811
-106.60911 28.445152 -145.849
-108.39455 24.81475 -145.2245
-108.39455 24.814735 -145.22449
-110.1929 18.141014 -144.84871
-111.94645 8.38546 -145.9498
-113.964005 -1.38961 -148.52348
-113.545876 -10.595314 -150.67174
-109.879 -18.323692 -152.36578
-104.48302 -24.01107 -154.47324
-104.48301 -24.01107 -154.47325
-98.7934 -29.057854 -156.0726
-92.93318 -34.838387 -154.99437
-92.93318 -34.838387 -154.99435
-87.3237 -39.03698 -152.94377
-80.24646 -40.629448 -151.63501
-80.24647 -40.629448 -151.63501
-104.54384 31.083794 -146.2591
-106.53873 28.407173 -145.75146
-108.31544 24.785835 -145.1133
-108.31544 24.78582 -145.11328
-110.09646 18.121788 -144.72089
-111.84084 8.353905 -145.8063
-113.86152 -1.442329 -148.37634
-113.39362 -10.605904 -150.52191
-109.662125 -18.24607 -152.19238
-104.246574 -23.864922 -154.2624
-104.24658 -23.864922 -154.2624
-98.56814 -28.880333 -155.84247
-92.78314 -34.652138 -154.74527
-92.78314 -34.652122 -154.74529
-87.25313 -38.822884 -152.69746
-80.21594 -40.39042 -151.40579
-104.543846 31.083778 -146.25908
-104.486626 31.059517 -146.15819
-106.538734 28.407158 -145.75143
-106.48193 28.38218 -145.64157
-108.31544 24.785805 -145.11327
-108.25339 24.769402 -144.98897
-108.315445 24.785805 -145.11327
-108.253395 24.769386 -144.98897
-110.09646 18.121773 -144.72089
-110.02091 18.111946 -144.57735
-111.84084 8.353889 -145.8063
-111.75824 8.325752 -145.64244
-113.86152 -1.44236 -148.37633
-113.781075 -1.495918 -148.20312
-113.39363 -10.605904 -150.5219
-113.25253 -10.620201 -150.33215
-109.66213 -18.24607 -152.19237
-109.443924 -18.176933 -151.96213
-104.24659 -23.864937 -154.26237
-104.003365 -23.733604 -153.9843
-104.24659 -23.864922 -154.26239
-104.003365 -23.73359 -153.9843
-98.56815 -28.880348 -155.84245
-98.33696 -28.71981 -155.54337
-92.78315 -34.652153 -154.74525
-92.64875 -34.47883 -154.4369
-92.78316 -34.652138 -154.74527
-92.64876 -34.478844 -154.43692
-87.253136 -38.822884 -152.69745
-87.21134 -38.61976 -152.39725
-80.21595 -40.390434 -151.40578
-80.21204 -40.167274 -151.12212
-75.553314 -42.004448 -149.77495
-104.48665 31.059502 -146.15817
-104.43978 31.048927 -146.03499
-106.48194 28.382164 -145.64156
-106.437614 28.371239 -145.50813
-108.207726 24.767036 -144.83923
-108.25341 24.769371 -144.98895
-108.20773 24.767021 -144.83923
-110.02092 18.11193 -144.57733
-109.96663 18.112999 -144.40404
-111.75825 8.325737 -145.64243
-111.70147 8.300453 -145.44244
-113.78108 -1.495918 -148.20312
-113.727844 -1.553932 -147.98552
-113.25254 -10.620216 -150.33215
-113.13523 -10.646523 -150.06912
-109.44393 -18.176964 -151.96211
-109.24286 -18.135246 -151.62279
-104.003365 -23.733635 -153.98428
-103.76908 -23.650291 -153.57751
-98.33696 -28.719826 -155.54337
-98.11117 -28.611 -155.11183
-92.64876 -34.478844 -154.4369
-92.540184 -34.327232 -154.01016
-92.54019 -34.327232 -154.01016
-87.21135 -38.61976 -152.39725
-87.20939 -38.41471 -151.9879
-80.21205 -40.167274 -151.12212
-80.24816 -39.95008 -150.73262
POLYGONS 912 3648
3 0 1 2
3 0 2 3
3 3 2 4
3 3 4 5
3 5 4 6
3 7 8 9
3 9 8 10
3 9 10 11
3 11 10 12
3 11 12 13
3 13 12 14
3 13 14 15
3 15 14 16
3 15 16 17
3 17 16 18
3 17 18 19
3 19 18 20
3 21 22 23
3 23 22 24
3 23 24 25
3 25 24 26
3 27 28 29
3 29 28 30
3 29 30 31
3 31 30 32
3 33 34 35
3 35 34 36
3 1 37 2
3 2 37 38
3 2 38 4
3 4 38 39
3 4 39 6
3 6 39 40
3 8 41 10
3 10 41 42
3 10 42 12
3 12 42 43
3 12 43 14
3 14 43 44
3 14 44 16
3 16 44 45
3 16 45 18
3 18 45 46
3 18 46 20
3 20 46 47
3 22 48 24
3 24 48 49
3 24 49 26
3 26 49 50
3 28 51 30
3 30 51 52
3 30 52 32
3 32 52 53
3 34 53 36
3 36 53 35
3 37 54 38
3 38 54 55
3 38 55 39
3 39 55 56
3 39 56 40
3 40 56 57
3 41 58 42
3 42 58 59
3 42 59 43
3 43 59 60
3 43 60 44
3 44 60 61
3 44 61 45
3 45 61 62
3 45 62 46
3 46 62 63
3 46 63 47
3 47 63 64
3 48 65 49
3 49 65 66
3 49 66 50
3 50 66 67
3 51 68 52
3 52 68 69
3 52 69 53
3 53 69 70
3 53 70 35
3 54 71 55
3 55 71 72
3 55 72 56
3 56 72 73
3 56 73 57
3 57 73 74
3 58 75 59
3 59 75 76
3 59 76 60
3 60 76 77
3 60 77 61
3 61 77 78
3 61 78 62
3 62 78 79
3 62 79 63
3 63 79 80
3 63 80 64
3 64 80 81
3 65 82 66
3 66 82 83
3 66 83 67
3 67 83 84
3 68 85 69
3 69 85 86
3 69 86 70
3 70 86 87
3 70 88 35
3 35 88 89
3 71 54 72
3 72 54 90
3 72 90 73
3 73 90 91
3 73 91 74
3 74 91 92
3 75 93 76
3 76 93 94
3 76 94 77
3 77 94 95
3 77 95 78
3 78 95 96
3 78 96 79
3 79 96 97
3 79 97 80
3 80 97 98
3 80 98 81
3 81 98 99
3 82 100 83
3 83 100 101
3 83 101 84
3 84 101 102
3 85 103 86
3 86 103 104
3 86 104 87
3 87 104 105
3 88 106 89
3 89 106 107
3 54 37 90
3 90 37 108
3 90 108 91
3 91 108 109
3 91 109 92
3 92 109 110
3 93 111 94
3 94 111 112
3 94 112 95
3 95 112 113
3 95 113 96
3 96 113 114
3 96 114 97
3 97 114 115
3 97 115 98
3 98 115 116
3 98 116 99
3 99 116 117
3 100 118 101
3 101 118 119
3 101 119 102
3 102 119 120
3 103 121 104
3 104 121 122
3 104 122 105
3 105 122 123
3 106 123 107
3 107 123 124
3 37 125 108
3 108 125 126
3 108 126 109
3 109 126 127
3 109 127 110
3 110 127 128
3 111 129 112
3 112 129 130
3 112 130 113
3 113 130 131
3 113 131 114
3 114 131 132
3 114 132 115
3 115 132 133
3 115 133 116
3 116 133 134
3 116 134 117
3 117 134 135
3 118 136 119
3 119 136 137
3 119 137 120
3 120 137 138
3 121 139 122
3 122 139 140
3 122 140 123
3 123 140 141
3 123 141 124
3 124 141 142
3 126 125 143
3 126 143 127
3 127 143 144
3 127 144 128
3 128 144 145
3 129 146 130
3 130 146 147
3 130 147 131
3 131 147 148
3 131 148 132
3 132 148 149
3 132 149 133
3 133 149 150
3 133 150 134
3 134 150 151
3 134 151 135
3 135 151 152
3 136 153 137
3 137 153 154
3 137 154 138
3 138 154 155
3 139 155 140
3 140 155 156
3 140 156 141
3 141 156 157
3 141 157 142
3 125 158 143
3 143 158 159
3 143 159 144
3 144 159 160
3 144 160 145
3 145 160 161
3 146 162 147
3 147 162 163
3 147 163 148
3 148 163 164
3 148 164 149
3 149 164 165
3 149 165 150
3 150 165 166
3 150 166 151
3 151 166 167
3 151 167 152
3 152 167 168
3 153 169 154
3 154 169 170
3 154 170 155
3 155 170 171
3 155 172 156
3 156 172 173
3 156 173 157
3 157 173 174
3 157 175 142
3 142 175 107
3 158 176 159
3 159 176 177
3 159 177 160
3 160 177 178
3 160 178 161
3 161 178 179
3 162 180 163
3 163 180 181
3 163 181 164
3 164 181 182
3 164 182 165
3 165 182 183
3 165 183 166
3 166 183 184
3 166 184 167
3 167 184 185
3 167 185 168
3 168 185 186
3 169 187 170
3 170 187 188
3 170 188 171
3 171 188 189
3 172 190 173
3 173 190 191
3 173 191 174
3 174 191 192
3 175 192 107
3 107 192 35
3 176 37 177
3 177 37 193
3 177 193 178
3 178 193 194
3 178 194 179
3 179 194 195
3 180 196 181
3 181 196 197
3 181 197 182
3 182 197 198
3 182 198 183
3 183 198 199
3 183 199 184
3 184 199 200
3 184 200 185
3 185 200 201
3 185 201 186
3 186 201 202
3 187 203 188
3 188 203 204
3 188 204 189
3 189 204 205
3 190 206 191
3 191 206 207
3 191 207 192
3 192 207 208
3 192 208 35
3 37 209 193
3 193 209 210
3 193 210 194
3 194 210 211
3 194 211 195
3 195 211 212
3 196 213 197
3 197 213 214
3 197 214 198
3 198 214 215
3 198 215 199
3 199 215 216
3 199 216 200
3 200 216 217
3 200 217 201
3 201 217 218
3 201 218 202
3 202 218 219
3 203 219 204
3 204 219 220
3 204 220 205
3 205 220 221
3 206 222 207
3 207 222 223
3 207 223 208
3 208 223 224
3 208 224 35
3 35 224 225
3 209 37 210
3 210 37 226
3 210 226 211
3 211 226 227
3 211 227 212
3 212 227 228
3 213 229 214
3 214 229 230
3 214 230 215
3 215 230 231
3 215 231 216
3 216 231 232
3 216 232 217
3 217 232 233
3 217 233 218
3 218 233 234
3 218 234 219
3 219 234 235
3 219 236 220
3 220 236 237
3 220 237 221
3 221 237 238
3 222 239 223
3 223 239 240
3 223 240 224
3 224 240 241
3 224 242 225
3 225 242 89
3 37 158 226
3 226 158 243
3 226 243 227
3 227 243 244
3 227 244 228
3 228 244 245
3 229 246 230
3 230 246 247
3 230 247 231
3 231 247 248
3 231 248 232
3 232 248 249
3 232 249 233
3 233 249 250
3 233 250 234
3 234 250 251
3 234 251 235
3 235 251 252
3 236 253 237
3 237 253 254
3 237 254 238
3 238 254 255
3 239 256 240
3 240 256 257
3 240 257 241
3 241 257 258
3 242 259 89
3 89 259 260
3 243 158 261
3 243 261 244
3 244 261 262
3 244 262 245
3 245 262 263
3 246 264 247
3 247 264 265
3 247 265 248
3 248 265 266
3 248 266 249
3 249 266 267
3 249 267 250
3 250 267 268
3 250 268 251
3 251 268 269
3 251 269 252
3 252 269 270
3 253 271 254
3 254 271 272
3 254 272 255
3 255 272 273
3 256 274 257
3 257 274 275
3 257 275 258
3 258 275 276
3 259 276 260
3 158 277 261
3 261 277 278
3 261 278 262
3 262 278 279
3 262 279 263
3 263 279 280
3 264 281 265
3 265 281 282
3 265 282 266
3 266 282 283
3 266 283 267
3 267 283 284
3 267 284 268
3 268 284 285
3 268 285 269
3 269 285 286
3 269 286 270
3 270 286 287
3 271 288 272
3 272 288 289
3 272 289 273
3 273 289 290
3 274 291 275
3 275 291 292
3 275 292 276
3 276 292 293
3 276 293 35
3 35 293 260
3 277 37 278
3 278 37 294
3 278 294 279
3 279 294 295
3 279 295 280
3 280 295 296
3 281 297 282
3 282 297 298
3 282 298 283
3 283 298 299
3 283 299 284
3 284 299 300
3 284 300 285
3 285 300 301
3 285 301 286
3 286 301 302
3 286 302 287
3 287 302 303
3 288 304 289
3 289 304 305
3 289 305 290
3 290 305 306
3 291 307 292
3 292 307 308
3 292 308 293
3 293 308 309
3 293 310 260
3 260 310 35
3 37 1 294
3 294 1 311
3 294 311 295
3 295 311 312
3 295 312 296
3 296 312 313
3 297 314 298
3 298 314 315
3 298 315 299
3 299 315 316
3 299 316 300
3 300 316 317
3 300 317 301
3 301 317 318
3 301 318 302
3 302 318 319
3 302 319 303
3 303 319 320
3 304 320 305
3 305 320 321
3 305 321 306
3 306 321 322
3 307 322 308
3 308 322 323
3 308 323 309
3 309 323 324
3 310 325 35
3 35 325 326
3 158 327 328
3 328 327 329
3 328 329 330
3 330 329 331
3 330 331 332
3 332 331 333
3 334 335 336
3 336 335 337
3 336 337 338
3 338 337 339
3 338 339 340
3 340 339 341
3 340 341 342
3 342 341 343
3 342 343 344
3 344 343 345
3 344 345 346
3 346 345 347
3 320 348 321
3 321 348 349
3 321 349 350
3 350 349 351
3 350 352 353
3 353 352 354
3 353 354 324
3 324 354 355
3 325 355 356
3 356 355 357
3 358 359 360
3 358 360 361
3 361 360 362
3 361 362 363
3 363 362 364
3 365 366 337
3 337 366 367
3 337 367 368
3 368 367 369
3 368 369 370
3 370 369 371
3 370 371 372
3 372 371 373
3 372 373 374
3 374 373 375
3 374 375 376
3 376 375 377
3 378 379 380
3 380 379 381
3 380 381 382
3 382 381 383
3 384 385 386
3 386 385 387
3 386 387 388
3 388 387 389
3 388 390 391
3 391 390 392
3 359 393 360
3 360 393 394
3 360 394 362
3 362 394 395
3 362 395 364
3 364 395 396
3 366 397 367
3 367 397 398
3 367 398 369
3 369 398 399
3 369 399 371
3 371 399 400
3 371 400 373
3 373 400 401
3 373 401 375
3 375 401 402
3 375 402 377
3 377 402 403
3 379 404 381
3 381 404 405
3 381 405 383
3 383 405 406
3 385 407 387
3 387 407 408
3 387 408 389
3 389 408 409
3 390 410 392
3 392 410 35
3 393 158 394
3 394 158 411
3 394 411 395
3 395 411 412
3 395 412 396
3 396 412 413
3 397 414 398
3 398 414 415
3 398 415 399
3 399 415 416
3 399 416 400
3 400 416 417
3 400 417 401
3 401 417 418
3 401 418 402
3 402 418 419
3 402 419 403
3 403 419 420
3 404 420 405
3 405 420 421
3 405 421 406
3 406 421 422
3 407 423 408
3 408 423 424
3 408 424 409
3 409 424 425
3 410 425 35
3 426 54 427
3 426 427 428
3 428 427 429
3 428 429 430
3 430 429 431
3 414 432 433
3 433 432 434
3 433 434 435
3 435 434 436
3 435 436 437
3 437 436 438
3 437 438 439
3 439 438 440
3 439 440 441
3 441 440 442
3 441 442 443
3 443 442 444
3 443 445 421
3 421 445 446
3 421 446 422
3 422 446 447
3 423 448 449
3 449 448 450
3 449 450 451
3 451 450 452
3 451 452 107
3 107 452 35
3 37 158 453
3 453 158 454
3 453 454 455
3 455 454 456
3 455 456 457
3 457 456 458
3 459 460 461
3 461 460 462
3 461 462 463
3 463 462 464
3 463 464 438
3 438 464 465
3 438 465 466
3 466 465 467
3 466 467 442
3 442 467 468
3 442 468 469
3 469 468 470
3 471 472 473
3 473 472 474
3 473 474 448
3 448 474 475
3 476 477 478
3 478 477 479
3 478 479 452
3 452 479 480
3 481 480 482
3 482 480 260
3 158 483 454
3 454 483 484
3 454 484 456
3 456 484 485
3 456 485 458
3 458 485 486
3 460 486 462
3 462 486 487
3 462 487 464
3 464 487 488
3 464 488 465
3 465 488 489
3 465 489 467
3 467 489 490
3 467 490 468
3 468 490 491
3 468 491 470
3 470 491 492
3 472 493 474
3 474 493 494
3 474 494 475
3 475 494 495
3 477 496 479
3 479 496 497
3 479 497 480
3 480 497 498
3 480 498 260
3 260 498 107
3 483 499 484
3 484 499 500
3 484 500 485
3 485 500 501
3 485 501 486
3 486 501 502
3 486 503 487
3 487 503 504
3 487 504 488
3 488 504 505
3 488 505 489
3 489 505 506
3 489 506 490
3 490 506 507
3 490 507 491
3 491 507 508
3 491 508 492
3 492 508 509
3 493 510 494
3 494 510 511
3 494 511 495
3 495 511 512
3 496 513 497
3 497 513 514
3 497 514 498
3 498 514 515
3 498 516 107
3 107 516 517
3 518 277 500
3 500 277 519
3 500 519 520
3 520 519 521
3 520 521 522
3 522 521 523
3 524 525 526
3 526 525 527
3 526 527 505
3 505 527 528
3 505 528 506
3 506 528 529
3 506 529 507
3 507 529 530
3 507 530 508
3 508 530 531
3 508 531 510
3 510 531 532
3 533 534 535
3 535 534 536
3 535 536 537
3 537 536 538
3 539 540 541
3 541 540 542
3 541 542 543
3 543 542 544
3 516 545 391
3 391 545 107
3 518 37 546
3 546 37 547
3 546 547 548
3 548 547 549
3 548 549 550
3 550 549 551
3 552 553 554
3 554 553 555
3 554 555 556
3 556 555 557
3 556 557 558
3 558 557 559
3 558 559 560
3 560 559 561
3 560 561 562
3 562 561 563
3 562 563 564
3 564 563 565
3 566 567 568
3 568 567 569
3 568 569 570
3 570 569 571
3 572 573 574
3 574 573 575
3 574 575 576
3 576 575 577
3 576 578 391
3 391 578 35
3 37 518 547
3 547 518 579
3 547 579 549
3 549 579 580
3 549 580 551
3 551 580 581
3 553 582 555
3 555 582 583
3 555 583 557
3 557 583 584
3 557 584 559
3 559 584 585
3 559 585 561
3 561 585 586
3 561 586 563
3 563 586 587
3 563 587 565
3 565 587 588
3 567 589 569
3 569 589 590
3 569 590 571
3 571 590 591
3 573 592 575
3 575 592 593
3 575 593 577
3 577 593 594
3 578 595 35
3 35 595 391
3 518 359 579
3 579 359 596
3 579 596 580
3 580 596 597
3 580 597 581
3 581 597 598
3 582 599 583
3 583 599 600
3 583 600 584
3 584 600 601
3 584 601 585
3 585 601 602
3 585 602 586
3 586 602 603
3 586 603 587
3 587 603 604
3 587 604 588
3 588 604 605
3 589 606 590
3 590 606 607
3 590 607 591
3 591 607 608
3 592 609 593
3 593 609 610
3 593 610 594
3 594 610 611
3 595 611 391
3 327 71 612
3 612 71 613
3 612 613 614
3 614 613 615
3 614 615 616
3 616 615 617
3 618 619 620
3 620 619 621
3 620 621 622
3 622 621 623
3 622 623 624
3 624 623 625
3 624 625 626
3 626 625 627
3 626 627 628
3 628 627 629
3 628 629 630
3 630 629 631
3 632 633 634
3 634 633 635
3 634 635 636
3 636 635 637
3 638 639 640
3 640 639 641
3 640 641 642
3 642 641 643
3 642 643 357
3 357 643 644
3 359 176 645
3 645 176 646
3 645 646 647
3 647 646 648
3 647 648 619
3 619 648 649
3 650 651 652
3 652 651 653
3 652 653 654
3 654 653 655
3 654 655 656
3 656 655 657
3 656 657 658
3 658 657 659
3 658 659 660
3 660 659 661
3 660 661 662
3 662 661 663
3 631 663 664
3 664 663 665
3 664 665 666
3 666 665 667
3 639 668 669
3 669 668 670
3 669 670 671
3 671 670 672
3 671 672 124
3 124 672 35
3 176 37 646
3 646 37 0
3 646 0 648
3 648 0 3
3 648 3 649
3 649 3 5
3 651 7 653
3 653 7 9
3 653 9 655
3 655 9 11
3 655 11 657
3 657 11 13
3 657 13 659
3 659 13 15
3 659 15 661
3 661 15 17
3 661 17 663
3 663 17 19
3 663 21 665
3 665 21 23
3 665 23 667
3 667 23 25
3 668 27 670
3 670 27 29
3 670 29 672
3 672 29 31
3 672 33 35
