# vtk DataFile Version 2.0
File written by itkPolyDataMeshIO
ASCII
DATASET POLYDATA
POINTS 441 float
-15.409492 -8.053322 259.22928
-15.409508 -8.053337 259.22928
-21.851082 -7.606316 259.7948
-21.10186 -5.125816 259.78467
-23.721428 -5.689735 266.14102
-22.971199 -2.960228 266.181
-23.895851 -3.730522 273.74365
-23.24305 -1.011391 273.8233
-23.716255 -1.649574 281.37198
-22.912956 1.156349 281.52753
-24.31652 0.399422 289.46707
-23.280876 3.397072 289.69894
-24.31652 0.399422 289.4671
-25.939537 1.11338 297.7319
-24.876564 4.350182 297.90262
-25.939522 1.113396 297.73193
-24.876549 4.350212 297.90265
-28.02494 -0.690178 307.24585
-27.035393 2.619682 307.25195
-29.442879 -4.320183 319.52106
-28.435493 -1.1092 319.55444
-30.289986 -7.111977 331.22415
-29.230263 -4.030296 331.62186
-30.289986 -7.111977 331.22412
-29.230278 -4.030312 331.62183
-34.664925 -8.935387 343.88043
-33.662987 -5.879601 344.62085
-39.367805 -11.300789 356.76913
-38.438805 -8.35128 357.70166
-42.84397 -14.81498 369.79593
-41.9766 -12.025581 370.8082
-45.67388 -18.576393 382.86737
-44.7891 -15.846367 383.55127
-47.479927 -20.131355 395.50943
-46.52903 -17.399559 395.62265
-49.318214 -18.684456 408.13986
-48.342415 -15.999702 407.93582
-52.06922 -16.593987 421.52878
-51.078117 -13.977089 421.2151
-52.069206 -16.593987 421.52878
-51.078102 -13.977089 421.2151
-51.736336 -14.9226 435.21268
-50.781837 -12.39344 434.9085
-50.27102 -13.548927 448.44977
-49.369194 -11.156487 448.12976
-49.576836 -11.930336 461.72812
-48.7353 -9.685112 461.51996
-49.57682 -11.930321 461.72812
-48.735313 -9.685097 461.52
-49.091454 -10.37748 475.14166
-48.315773 -8.319878 474.83954
-46.618584 -7.473839 489.51855
-45.920357 -5.593697 489.01303
-46.618584 -7.473854 489.51852
-45.920372 -5.593697 489.01303
-43.184425 -5.487801 503.28342
-42.519615 -3.796623 503.04666
-42.235237 -7.732765 517.09393
-41.52906 -6.076851 517.18396
-41.41616 -11.096077 531.54895
-40.83172 -9.617149 531.41473
-41.41616 -11.096077 531.5488
-40.83172 -9.617165 531.4147
-35.417595 -11.826637 537.95715
-35.41761 -11.826637 537.9571
-15.409508 -8.053322 259.22928
-19.385246 -3.209084 260.13443
-21.075783 -0.851097 266.59082
-21.434792 1.138802 274.23163
-21.016273 3.447578 281.96802
-21.185417 5.78315 290.17734
-21.185402 5.78315 290.17734
-22.626274 6.787315 298.28604
-22.626259 6.787346 298.28607
-24.69741 5.067345 307.3892
-26.08622 1.23629 319.67206
-26.91935 -1.856163 332.30667
-26.919365 -1.856163 332.3067
-31.430763 -3.736198 345.74365
-36.251472 -6.268394 358.86722
-39.866417 -10.040169 371.91943
-42.70907 -13.882912 384.30844
-44.423943 -15.416069 395.90128
-46.24659 -14.038414 408.0803
-48.987312 -12.078941 421.20447
-48.987297 -12.078911 421.20447
-48.752296 -10.602699 434.55814
-47.443687 -9.46006 447.80743
-46.936638 -8.083076 461.36365
-46.936623 -8.083061 461.36368
-46.652946 -6.854546 474.59583
-44.411064 -4.273888 488.49597
-44.41108 -4.273872 488.4959
-41.13726 -2.6343 502.72058
-40.13964 -4.937309 517.1235
-39.662727 -8.582237 531.04944
-39.662727 -8.582253 531.0494
-35.41761 -11.826653 537.9571
-15.409508 -8.053337 259.22925
-17.02993 -2.136421 260.76785
-18.452248 0.325294 267.27222
-18.857246 2.447517 274.87546
-18.377434 4.906044 282.6089
-18.361855 7.128578 290.82602
-18.361855 7.128563 290.82602
-19.571709 7.894035 298.82462
-19.571678 7.894066 298.82462
-21.509087 6.089256 307.63446
-22.924355 2.180992 319.8488
-23.883171 -1.083351 333.12253
-23.883186 -1.083351 333.1225
-28.475777 -2.995567 346.9929
-33.30616 -5.525658 359.99994
-36.997795 -9.308006 372.8762
-39.910652 -13.131126 384.9661
-41.647285 -14.630348 396.28128
-43.511116 -13.245125 408.53943
-46.27604 -11.329643 421.4985
-46.276024 -11.329643 421.4985
-46.112938 -9.956001 434.24142
-44.935844 -8.84391 447.5562
-44.59307 -7.487129 461.29465
-44.593056 -7.487129 461.29465
-44.484047 -6.313408 474.46597
-42.43656 -3.813332 488.08517
-42.436577 -3.813332 488.08517
-39.354042 -2.26403 502.3796
-38.384514 -4.571587 516.9266
-38.175453 -8.22451 530.5369
-38.175438 -8.224525 530.53687
-35.417595 -11.826653 537.9571
-17.029915 -2.136406 260.76788
-14.55468 -2.176735 261.5485
-18.452248 0.32531 267.27225
-15.664772 0.385948 268.07672
-18.857246 2.447548 274.87546
-16.053764 2.739708 275.61548
-18.377419 4.906059 282.6089
-15.494514 5.289635 283.32736
-18.361855 7.128593 290.82602
-15.299202 7.202644 291.53442
-18.361855 7.128593 290.82605
-15.299202 7.202644 291.53445
-19.571709 7.894051 298.82462
-16.29737 7.488243 299.42276
-19.571678 7.894081 298.82462
-16.297356 7.488258 299.4228
-21.509087 6.089287 307.6345
-18.170341 5.468422 307.9386
-22.924355 2.181007 319.84882
-19.667213 1.514 320.0453
-23.883171 -1.083336 333.12253
-20.813347 -1.889122 333.8828
-23.883186 -1.083336 333.1225
-28.475761 -2.995552 346.9929
-25.471916 -3.844353 348.08102
-33.306145 -5.525642 359.99997
-30.275002 -6.313515 360.8371
-36.99778 -9.307991 372.8762
-34.02529 -10.01432 373.45493
-39.910637 -13.131111 384.9661
-37.032707 -13.780998 385.37076
-41.647285 -14.630333 396.2813
-38.83355 -15.240089 396.676
-43.5111 -13.24511 408.53943
-40.761284 -13.81852 409.21094
-43.564186 -11.917641 422.0329
-46.27601 -11.329643 421.49854
-43.56417 -11.917625 422.03293
-46.112923 -9.956001 434.2414
-43.46717 -10.617973 434.03207
-44.93583 -8.843895 447.5562
-42.418953 -9.464668 447.4351
-44.593056 -7.487129 461.29468
-42.240334 -8.04818 461.33002
-44.59304 -7.487114 461.29468
-42.24032 -8.04818 461.33005
-44.484047 -6.313393 474.466
-42.304924 -6.833641 474.4815
-42.43656 -3.813316 488.08517
-40.448174 -4.329628 487.87714
-42.436577 -3.813316 488.08517
-40.448174 -4.329628 487.8771
-39.354027 -2.26403 502.3796
-37.577644 -2.781487 502.10248
-36.665398 -5.074379 516.63715
-38.175438 -8.224495 530.5369
-36.710564 -8.635826 529.99396
-38.175438 -8.22451 530.53687
-36.710564 -8.635826 529.9939
-35.417595 -11.826653 537.95715
-35.41761 -11.826637 537.95715
-15.409477 -8.053307 259.2293
-12.530052 -3.513771 262.31644
-13.315498 -0.828697 268.8401
-13.650551 1.793831 276.2923
-13.022331 4.373329 283.96368
-12.709648 5.981255 292.1408
-13.576317 5.761742 299.9405
-13.576286 5.761757 299.94052
-15.441917 3.390831 308.23404
-17.062721 -0.596397 320.21686
-18.414314 -4.080971 334.41354
-18.414314 -4.081001 334.4135
-23.104774 -6.079597 348.75995
-27.8525 -8.447594 361.1873
-31.631737 -11.996162 373.52307
-34.735725 -15.681664 385.42984
-36.628624 -17.103783 396.99478
-38.628227 -15.625603 409.9405
-41.47419 -13.70652 422.68494
-41.474174 -13.70649 422.68494
-41.42228 -12.435249 433.97818
-40.47071 -11.178551 447.4719
-40.418434 -9.636284 461.46158
-40.61573 -8.294823 474.63876
-38.90223 -5.70327 487.91943
-38.90223 -5.703285 487.9194
-36.215446 -4.066719 501.95282
-35.377663 -6.329964 516.32166
-35.60682 -9.722878 529.54504
-35.606804 -9.722893 529.545
-35.41758 -11.826622 537.9572
-11.385612 -5.720528 262.89487
-12.06002 -3.155342 269.3587
-12.446907 -0.393105 276.69202
-11.887978 2.159157 284.285
-11.59539 3.622337 292.40845
-11.595375 3.622337 292.40848
-12.327644 3.046745 300.1896
-12.327629 3.046745 300.18964
-14.028618 0.278297 308.43423
-15.724312 -3.683846 320.32077
-17.244896 -7.165154 334.59076
-17.244911 -7.165169 334.5908
-21.93415 -9.19294 348.86865
-26.601158 -11.437569 360.96835
-30.366356 -14.796928 373.06552
-33.548683 -18.395653 385.12955
-35.53959 -19.792397 397.16425
-37.60276 -18.250313 410.56006
-40.4869 -16.2844 423.30423
-40.486885 -16.28437 423.30426
-40.448677 -14.989433 434.09186
-39.539375 -13.590965 447.65784
-39.546577 -11.88578 461.6589
-39.546577 -11.88578 461.65894
-39.80506 -10.360451 474.90134
-38.15441 -7.618004 488.20212
-38.15441 -7.618004 488.2021
-35.58068 -5.823769 501.96487
-34.818565 -8.049995 516.05255
-35.120674 -11.237251 529.29315
-35.120674 -11.237267 529.29315
-35.41761 -11.826653 537.95715
-15.409492 -8.053307 259.2293
-11.482796 -8.230812 263.1139
-12.201607 -5.927315 269.50107
-12.690147 -3.121162 276.7249
-12.371513 -0.546547 284.21045
-12.325172 0.970314 292.24893
-12.963356 0.15049 300.08453
-12.963341 0.15052 300.08456
-14.314842 -3.075447 308.4793
-15.974861 -7.024712 320.32858
-17.579445 -10.428871 334.37268
-22.229546 -12.455452 348.38406
-26.804436 -14.592552 360.23236
-30.51493 -17.775581 372.18835
-33.739815 -21.299843 384.53976
-35.812233 -22.689217 397.14627
-37.9161 -21.09037 410.9286
-40.824852 -19.059822 423.7497
-40.765892 -17.694633 434.34686
-39.834908 -16.148537 447.9502
-39.821327 -14.280663 461.8769
-39.821327 -14.280647 461.87692
-40.055748 -12.556709 475.20917
-38.373375 -9.634636 488.66016
-38.37339 -9.634636 488.66013
-35.816505 -7.649773 502.13574
-35.11399 -9.840157 515.89136
-35.361458 -12.831581 529.29565
-35.361458 -12.831581 529.29553
-35.417595 -11.826622 537.95715
-12.801796 -10.440742 262.9185
-13.610069 -8.424843 269.25528
-14.105721 -5.675163 276.4369
-14.054939 -3.061134 283.83237
-14.386345 -1.415276 291.77988
-15.07267 -2.376717 299.7096
-15.072639 -2.376701 299.70963
-16.15168 -5.928612 308.378
-17.737633 -9.863487 320.2428
-19.332253 -13.130714 333.8108
-19.332268 -13.130714 333.81082
-23.910515 -15.130745 347.41968
-28.411995 -17.196068 359.14798
-32.044807 -20.252312 371.09103
-35.265205 -23.732475 383.79486
-37.3845 -25.13372 396.94476
-39.496864 -23.49836 410.96182
-42.411034 -21.40017 423.91956
-42.411034 -21.400154 423.9196
-42.301613 -19.934227 434.685
-41.289955 -18.268242 448.2823
-41.180077 -16.274956 462.06567
-41.18006 -16.274956 462.06567
-41.310677 -14.382942 475.4919
-39.509346 -11.293526 489.189
-39.50936 -11.293526 489.18896
-36.869576 -9.128777 502.4262
-36.19599 -11.291908 515.87476
-36.272118 -14.140831 529.5517
-36.272118 -14.140831 529.55164
-14.941383 -11.852287 262.38467
-15.893349 -10.150505 268.7002
-16.255821 -7.636986 275.9268
-16.327812 -5.140236 283.29514
-16.953087 -3.461433 291.19128
-16.953072 -3.461433 291.1913
-17.852898 -4.349754 299.22192
-17.852882 -4.349739 299.22195
-18.99952 -7.766304 308.1803
-20.577705 -11.580482 320.0909
-22.08776 -14.663414 333.03723
-22.087776 -14.663429 333.0372
-26.58149 -16.629387 346.1973
-31.055855 -18.658073 357.96307
-34.61007 -21.655434 370.02454
-37.778572 -25.13517 383.06522
-39.899773 -26.563942 396.60538
-41.986183 -24.920982 410.65128
-44.885292 -22.767525 423.77414
-44.885277 -22.76751 423.77417
-44.707237 -21.19329 435.02905
-43.57424 -19.462822 448.57816
-43.314354 -17.410286 462.18204
-43.31434 -17.410286 462.18207
-43.28495 -15.419365 475.68478
-41.304558 -12.213371 489.6676
-41.304573 -12.213371 489.66754
-38.501137 -9.920906 502.77008
-37.81771 -12.070671 516.0071
-37.643044 -14.861977 530.0037
-37.64303 -14.861977 530.00366
-15.409477 -8.053307 259.22928
-17.455925 -12.288857 261.6369
-18.646217 -10.794456 267.93933
-18.864922 -8.607445 275.2575
-18.955986 -6.404732 282.6509
-19.742317 -4.785698 290.5462
-19.742317 -4.785698 290.54623
-20.90165 -5.31501 298.6793
-20.901619 -5.31501 298.67932
-22.300697 -8.15461 307.90927
-23.86596 -11.773827 319.9022
-25.222603 -14.670097 332.22766
-25.222603 -14.670113 332.22763
-29.640404 -16.593803 344.9962
-34.131172 -18.635948 356.95026
-37.6195 -21.66108 369.23502
-40.702003 -25.182823 382.5192
-42.77909 -26.648872 396.20636
-44.811195 -25.028908 410.06827
-47.678276 -22.84536 423.3466
-47.67826 -22.845345 423.3466
-47.42916 -21.180275 435.29965
-46.16204 -19.455605 448.76953
-45.73301 -17.423729 462.19904
-45.52427 -15.425957 475.7431
-43.345833 -12.181023 489.98547
-43.345833 -12.181038 489.98547
-40.335503 -9.842537 503.0881
-39.60537 -11.995613 516.258
-39.157906 -14.827293 530.5479
-39.157906 -14.827309 530.54785
-35.41758 -11.826637 537.95715
-19.863213 -11.737602 260.82666
-21.311714 -10.202538 267.1286
-21.441902 -8.198326 274.5527
-21.513908 -6.192879 282.0014
-22.37281 -4.544273 289.9327
-22.372795 -4.544273 289.93274
-23.747475 -4.591606 298.15677
-23.74746 -4.591576 298.1568
-25.378105 -6.852669 307.61008
-26.867714 -10.367378 319.71576
-28.02842 -13.139198 331.565
-28.028435 -13.139214 331.56497
-32.40133 -15.016899 344.0869
-36.937355 -17.137474 356.3385
-40.381264 -20.280083 368.90115
-43.365273 -23.87342 382.27994
-45.362114 -25.37893 395.8392
-47.32435 -23.806725 409.34763
-50.149742 -21.624992 422.7365
-50.149742 -21.624977 422.7365
-49.843422 -19.907173 435.43542
-48.460182 -18.256737 448.81326
-47.881615 -16.320168 462.11337
-47.881615 -16.320152 462.11337
-47.51525 -14.408531 475.6545
-45.164955 -11.210487 490.07123
-45.16497 -11.210503 490.07123
-41.951805 -8.917274 503.30786
-41.150032 -11.090294 516.56946
-40.47152 -14.051491 531.05896
-40.47152 -14.051506 531.0589
-35.417595 -11.826637 537.9571
-21.483223 -10.099953 260.1568
-23.172554 -8.37664 266.47354
-23.289528 -6.403282 273.998
-23.277443 -4.401375 281.5281
-24.082329 -2.579338 289.52948
-24.082329 -2.579323 289.52948
-25.61335 -2.193443 297.80435
-25.613335 -2.193413 297.80435
-27.463814 -4.128456 307.36646
-28.884727 -7.671288 319.57736
-29.859535 -10.409615 331.2023
-34.21894 -12.247627 343.6831
-38.828835 -14.488991 356.27252
-42.266685 -17.810753 369.10342
-45.16001 -21.489754 382.40543
-47.058937 -23.027596 395.58765
-48.951256 -21.517784 408.65176
-51.73472 -19.369682 422.08066
-51.734703 -19.369652 422.08066
-51.39817 -17.649529 435.4042
-49.943398 -16.125694 448.69797
-49.269142 -14.338219 461.94354
-49.269127 -14.338203 461.9435
-48.802895 -12.58712 475.43762
-46.34626 -9.512169 489.903
-46.34626 -9.512154 489.90295
-42.980125 -7.346107 503.37848
-42.099083 -9.552055 516.8711
-41.286095 -12.704842 531.4204
-41.286095 -12.704842 531.42035
-35.417595 -11.826622 537.9572
POLYGONS 646 2584
3 0 1 2
3 2 1 3
3 2 3 4
3 4 3 5
3 4 5 6
3 6 5 7
3 6 7 8
3 8 7 9
3 8 9 10
3 10 9 11
3 12 11 13
3 13 11 14
3 15 16 17
3 17 16 18
3 17 18 19
3 19 18 20
3 19 20 21
3 21 20 22
3 23 24 25
3 25 24 26
3 25 26 27
3 27 26 28
3 27 28 29
3 29 28 30
3 29 30 31
3 31 30 32
3 31 32 33
3 33 32 34
3 33 34 35
3 35 34 36
3 35 36 37
3 37 36 38
3 39 40 41
3 41 40 42
3 41 42 43
3 43 42 44
3 43 44 45
3 45 44 46
3 47 48 49
3 49 48 50
3 49 50 51
3 51 50 52
3 53 54 55
3 55 54 56
3 55 56 57
3 57 56 58
3 57 58 59
3 59 58 60
3 61 62 63
3 63 62 64
3 1 65 3
3 3 65 66
3 3 66 5
3 5 66 67
3 5 67 7
3 7 67 68
3 7 68 9
3 9 68 69
3 9 69 11
3 11 69 70
3 11 71 14
3 14 71 72
3 16 73 18
3 18 73 74
3 18 74 20
3 20 74 75
3 20 75 22
3 22 75 76
3 24 77 26
3 26 77 78
3 26 78 28
3 28 78 79
3 28 79 30
3 30 79 80
3 30 80 32
3 32 80 81
3 32 81 34
3 34 81 82
3 34 82 36
3 36 82 83
3 36 83 38
3 38 83 84
3 40 85 42
3 42 85 86
3 42 86 44
3 44 86 87
3 44 87 46
3 46 87 88
3 48 89 50
3 50 89 90
3 50 90 52
3 52 90 91
3 54 92 56
3 56 92 93
3 56 93 58
3 58 93 94
3 58 94 60
3 60 94 95
3 62 96 64
3 64 96 97
3 65 98 66
3 66 98 99
3 66 99 67
3 67 99 100
3 67 100 68
3 68 100 101
3 68 101 69
3 69 101 102
3 69 102 70
3 70 102 103
3 71 104 72
3 72 104 105
3 73 106 74
3 74 106 107
3 74 107 75
3 75 107 108
3 75 108 76
3 76 108 109
3 77 110 78
3 78 110 111
3 78 111 79
3 79 111 112
3 79 112 80
3 80 112 113
3 80 113 81
3 81 113 114
3 81 114 82
3 82 114 115
3 82 115 83
3 83 115 116
3 83 116 84
3 84 116 117
3 85 118 86
3 86 118 119
3 86 119 87
3 87 119 120
3 87 120 88
3 88 120 121
3 89 122 90
3 90 122 123
3 90 123 91
3 91 123 124
3 92 125 93
3 93 125 126
3 93 126 94
3 94 126 127
3 94 127 95
3 95 127 128
3 96 129 97
3 97 129 130
3 0 65 131
3 131 65 132
3 131 132 133
3 133 132 134
3 133 134 135
3 135 134 136
3 135 136 137
3 137 136 138
3 137 138 139
3 139 138 140
3 141 142 143
3 143 142 144
3 145 146 147
3 147 146 148
3 147 148 149
3 149 148 150
3 149 150 151
3 151 150 152
3 153 152 154
3 154 152 155
3 154 155 156
3 156 155 157
3 156 157 158
3 158 157 159
3 158 159 160
3 160 159 161
3 160 161 162
3 162 161 163
3 162 163 164
3 164 163 165
3 164 165 118
3 118 165 166
3 167 168 169
3 169 168 170
3 169 170 171
3 171 170 172
3 171 172 173
3 173 172 174
3 175 176 177
3 177 176 178
3 177 178 179
3 179 178 180
3 181 182 183
3 183 182 184
3 183 184 127
3 127 184 185
3 127 185 186
3 186 185 187
3 188 189 190
3 190 189 191
3 65 192 132
3 132 192 193
3 132 193 134
3 134 193 194
3 134 194 136
3 136 194 195
3 136 195 138
3 138 195 196
3 138 196 140
3 140 196 197
3 142 197 144
3 144 197 198
3 146 199 148
3 148 199 200
3 148 200 150
3 150 200 201
3 150 201 152
3 152 201 202
3 152 203 155
3 155 203 204
3 155 204 157
3 157 204 205
3 157 205 159
3 159 205 206
3 159 206 161
3 161 206 207
3 161 207 163
3 163 207 208
3 163 208 165
3 165 208 209
3 165 209 166
3 166 209 210
3 168 211 170
3 170 211 212
3 170 212 172
3 172 212 213
3 172 213 174
3 174 213 214
3 176 214 178
3 178 214 215
3 178 215 180
3 180 215 216
3 182 217 184
3 184 217 218
3 184 218 185
3 185 218 219
3 185 219 187
3 187 219 220
3 189 221 191
3 191 221 222
3 192 1 193
3 193 1 223
3 193 223 194
3 194 223 224
3 194 224 195
3 195 224 225
3 195 225 196
3 196 225 226
3 196 226 197
3 197 226 227
3 197 228 198
3 198 228 229
3 199 230 200
3 200 230 231
3 200 231 201
3 201 231 232
3 201 232 202
3 202 232 233
3 203 234 204
3 204 234 235
3 204 235 205
3 205 235 236
3 205 236 206
3 206 236 237
3 206 237 207
3 207 237 238
3 207 238 208
3 208 238 239
3 208 239 209
3 209 239 240
3 209 240 210
3 210 240 241
3 211 242 212
3 212 242 243
3 212 243 213
3 213 243 244
3 213 244 214
3 214 244 245
3 214 246 215
3 215 246 247
3 215 247 216
3 216 247 248
3 217 249 218
3 218 249 250
3 218 250 219
3 219 250 251
3 219 251 220
3 220 251 252
3 221 253 222
3 222 253 254
3 1 255 223
3 223 255 256
3 223 256 224
3 224 256 257
3 224 257 225
3 225 257 258
3 225 258 226
3 226 258 259
3 226 259 227
3 227 259 260
3 228 260 229
3 229 260 261
3 230 262 231
3 231 262 263
3 231 263 232
3 232 263 264
3 232 264 233
3 233 264 265
3 234 265 235
3 235 265 266
3 235 266 236
3 236 266 267
3 236 267 237
3 237 267 268
3 237 268 238
3 238 268 269
3 238 269 239
3 239 269 270
3 239 270 240
3 240 270 271
3 240 271 241
3 241 271 272
3 242 272 243
3 243 272 273
3 243 273 244
3 244 273 274
3 244 274 245
3 245 274 275
3 246 276 247
3 247 276 277
3 247 277 248
3 248 277 278
3 249 279 250
3 250 279 280
3 250 280 251
3 251 280 281
3 251 281 252
3 252 281 282
3 253 283 254
3 254 283 284
3 255 0 256
3 256 0 285
3 256 285 257
3 257 285 286
3 257 286 258
3 258 286 287
3 258 287 259
3 259 287 288
3 259 288 260
3 260 288 289
3 260 289 261
3 261 289 290
3 262 291 263
3 263 291 292
3 263 292 264
3 264 292 293
3 264 293 265
3 265 293 294
3 265 295 266
3 266 295 296
3 266 296 267
3 267 296 297
3 267 297 268
3 268 297 298
3 268 298 269
3 269 298 299
3 269 299 270
3 270 299 300
3 270 300 271
3 271 300 301
3 271 301 272
3 272 301 302
3 272 303 273
3 273 303 304
3 273 304 274
3 274 304 305
3 274 305 275
3 275 305 306
3 276 307 277
3 277 307 308
3 277 308 278
3 278 308 309
3 279 310 280
3 280 310 311
3 280 311 281
3 281 311 312
3 281 312 282
3 282 312 313
3 283 314 284
3 284 314 63
3 285 0 315
3 285 315 286
3 286 315 316
3 286 316 287
3 287 316 317
3 287 317 288
3 288 317 318
3 288 318 289
3 289 318 319
3 289 320 290
3 290 320 321
3 291 322 292
3 292 322 323
3 292 323 293
3 293 323 324
3 293 324 294
3 294 324 325
3 295 326 296
3 296 326 327
3 296 327 297
3 297 327 328
3 297 328 298
3 298 328 329
3 298 329 299
3 299 329 330
3 299 330 300
3 300 330 331
3 300 331 301
3 301 331 332
3 301 332 302
3 302 332 333
3 303 334 304
3 304 334 335
3 304 335 305
3 305 335 336
3 305 336 306
3 306 336 337
3 307 338 308
3 308 338 339
3 308 339 309
3 309 339 340
3 310 341 311
3 311 341 342
3 311 342 312
3 312 342 343
3 312 343 313
3 313 343 344
3 314 345 63
3 0 346 315
3 315 346 347
3 315 347 316
3 316 347 348
3 316 348 317
3 317 348 349
3 317 349 318
3 318 349 350
3 318 350 319
3 319 350 351
3 320 352 321
3 321 352 353
3 322 354 323
3 323 354 355
3 323 355 324
3 324 355 356
3 324 356 325
3 325 356 357
3 326 358 327
3 327 358 359
3 327 359 328
3 328 359 360
3 328 360 329
3 329 360 361
3 329 361 330
3 330 361 362
3 330 362 331
3 331 362 363
3 331 363 332
3 332 363 364
3 332 364 333
3 333 364 365
3 334 366 335
3 335 366 367
3 335 367 336
3 336 367 368
3 336 368 337
3 337 368 369
3 338 369 339
3 339 369 370
3 339 370 340
3 340 370 371
3 341 372 342
3 342 372 373
3 342 373 343
3 343 373 374
3 343 374 344
3 344 374 375
3 345 376 63
3 63 376 377
3 347 0 378
3 347 378 348
3 348 378 379
3 348 379 349
3 349 379 380
3 349 380 350
3 350 380 381
3 350 381 351
3 351 381 382
3 352 383 353
3 353 383 384
3 354 385 355
3 355 385 386
3 355 386 356
3 356 386 387
3 356 387 357
3 357 387 388
3 358 389 359
3 359 389 390
3 359 390 360
3 360 390 391
3 360 391 361
3 361 391 392
3 361 392 362
3 362 392 393
3 362 393 363
3 363 393 394
3 363 394 364
3 364 394 395
3 364 395 365
3 365 395 396
3 366 397 367
3 367 397 398
3 367 398 368
3 368 398 399
3 368 399 369
3 369 399 400
3 369 401 370
3 370 401 402
3 370 402 371
3 371 402 403
3 372 404 373
3 373 404 405
3 373 405 374
3 374 405 406
3 374 406 375
3 375 406 407
3 376 408 377
3 377 408 409
3 378 346 410
3 378 410 379
3 379 410 411
3 379 411 380
3 380 411 412
3 380 412 381
3 381 412 413
3 381 413 382
3 382 413 414
3 383 415 384
3 384 415 416
3 385 417 386
3 386 417 418
3 386 418 387
3 387 418 419
3 387 419 388
3 388 419 420
3 389 420 390
3 390 420 421
3 390 421 391
3 391 421 422
3 391 422 392
3 392 422 423
3 392 423 393
3 393 423 424
3 393 424 394
3 394 424 425
3 394 425 395
3 395 425 426
3 395 426 396
3 396 426 427
3 397 428 398
3 398 428 429
3 398 429 399
3 399 429 430
3 399 430 400
3 400 430 431
3 401 432 402
3 402 432 433
3 402 433 403
3 403 433 434
3 404 435 405
3 405 435 436
3 405 436 406
3 406 436 437
3 406 437 407
3 407 437 438
3 408 439 409
3 409 439 440
3 346 0 410
3 410 0 2
3 410 2 411
3 411 2 4
3 411 4 412
3 412 4 6
3 412 6 413
3 413 6 8
3 413 8 414
3 414 8 10
3 415 12 416
3 416 12 13
3 417 15 418
3 418 15 17
3 418 17 419
3 419 17 19
3 419 19 420
3 420 19 21
3 420 23 421
3 421 23 25
3 421 25 422
3 422 25 27
3 422 27 423
3 423 27 29
3 423 29 424
3 424 29 31
3 424 31 425
3 425 31 33
3 425 33 426
3 426 33 35
3 426 35 427
3 427 35 37
3 428 39 429
3 429 39 41
3 429 41 430
3 430 41 43
3 430 43 431
3 431 43 45
3 432 47 433
3 433 47 49
3 433 49 434
3 434 49 51
3 435 53 436
3 436 53 55
3 436 55 437
3 437 55 57
3 437 57 438
3 438 57 59
3 439 61 440
3 440 61 63
