# vtk DataFile Version 2.0
File written by itkPolyDataMeshIO
ASCII
DATASET POLYDATA
POINTS 1101 float
-17.87928 5.165184 239.79886
-13.755989 -9.649529 247.82706
-16.790169 5.576454 239.92848
-19.593452 13.380684 221.44933
-18.723091 13.715172 221.4964
-21.59893 23.159233 205.24564
-20.739922 23.510094 205.24663
-25.715187 29.836525 187.8896
-24.85276 30.223686 187.85176
-28.612694 29.616875 169.75253
-27.699791 30.021431 169.69379
-28.638725 24.212608 150.86264
-27.632896 24.598763 150.82234
-26.90554 18.678612 130.89444
-25.876076 18.993935 130.9186
-23.91343 15.353859 113.10872
-22.908058 15.577873 113.23206
-19.234428 11.79113 96.28103
-18.301857 12.042702 96.43292
-14.420921 5.909233 78.69894
-13.582024 6.243217 78.81987
-11.465309 -0.736671 60.955273
-10.701088 -0.461113 61.093708
-11.465309 -0.736671 60.955288
-10.701088 -0.461098 61.093727
-7.745003 -5.042427 43.340904
-7.092369 -4.838448 43.469696
-4.968712 -7.239906 25.811152
-4.420128 -7.084862 25.862833
-4.968727 -7.239922 25.811167
-4.420143 -7.084877 25.862848
-5.695793 -7.779549 8.411734
-5.227638 -7.644188 8.386527
-9.576256 -6.349281 -8.691177
-9.188393 -6.178703 -8.722515
-9.576241 -6.349266 -8.691159
-9.188393 -6.178703 -8.722497
-14.467903 -4.029015 -25.878956
-14.082542 -3.78495 -25.924679
-21.330086 -0.5933 -44.20347
-20.861458 -0.248787 -44.278305
-21.330055 -0.593285 -44.203453
-20.861443 -0.248772 -44.278286
-25.072914 0.29055 -58.90681
-25.072914 0.290535 -58.90681
-13.755989 -9.649529 247.82704
-15.649971 5.844322 239.96315
-17.808968 13.908516 221.48735
-19.833504 23.71 205.213
-23.933647 30.446404 187.79898
-26.725792 30.245338 169.63777
-26.571404 24.789192 150.81078
-24.807701 19.102394 131.01108
-21.88839 15.569237 113.42681
-17.339958 12.077431 96.64456
-12.679146 6.413292 78.99627
-9.886314 -0.323845 61.274284
-9.88633 -0.32386 61.274303
-6.405815 -4.729073 43.621716
-3.845604 -6.981895 25.923473
-3.845619 -6.981911 25.923489
-4.738747 -7.545296 8.359032
-8.779701 -6.046059 -8.770105
-8.779701 -6.046059 -8.770087
-13.670265 -3.587898 -25.99454
-20.364357 0.044197 -44.392975
-20.364326 0.044212 -44.39296
-13.756004 -9.649544 247.82704
-14.487312 5.981514 239.90887
-16.880135 13.999321 221.43655
-18.910606 23.800926 205.15549
-22.992805 30.542122 187.73743
-25.72776 30.313255 169.589
-25.49305 24.799019 150.82715
-23.741615 19.037376 131.15604
-20.889107 15.411095 113.663376
-16.388863 11.963829 96.889565
-11.764977 6.426277 79.21385
-9.062965 -0.314705 61.484383
-9.062965 -0.314705 61.484398
-5.711708 -4.706291 43.789204
-3.261696 -6.932869 25.990751
-3.261726 -6.932899 25.990768
-4.241966 -7.484306 8.329084
-8.362404 -5.9515 -8.831957
-8.362373 -5.9515 -8.831939
-13.241493 -3.439445 -26.085999
-19.847984 0.282555 -44.544266
-19.84797 0.28257 -44.54425
-25.07293 0.290535 -58.906807
-13.756004 -9.649529 247.82706
-13.324074 5.985786 239.76662
-15.950371 13.986534 221.34435
-17.985405 23.781212 205.07466
-22.04879 30.50605 187.66776
-24.730629 30.22657 169.54785
-24.426552 24.644218 150.8679
-22.701424 18.826378 131.34192
-19.922173 15.138039 113.92945
-15.463905 11.735909 97.15604
-10.866737 6.310524 79.459145
-8.251625 -0.410332 61.713806
-8.25161 -0.410347 61.71382
-5.022881 -4.756248 43.966614
-2.677086 -6.931664 26.06276
-2.677101 -6.931679 26.062775
-3.743568 -7.456749 8.296797
-7.942772 -5.891136 -8.9072
-7.942757 -5.891121 -8.907183
-12.804787 -3.33976 -26.197977
-19.322395 0.458336 -44.73341
-19.32238 0.458336 -44.7334
-13.756004 -9.649529 247.82704
-12.183296 5.850121 239.53635
-15.03521 13.856392 221.20749
-17.074165 23.636131 204.96864
-21.122902 30.324852 187.58968
-23.758583 29.984306 169.51357
-23.39344 24.341316 150.92896
-21.700768 18.492165 131.56003
-18.993935 14.769127 114.21793
-14.57206 11.411232 97.43815
-9.994972 6.08567 79.72487
-7.45948 -0.595131 61.957436
-7.459496 -0.595131 61.95745
-4.343376 -4.870796 44.151302
-2.093803 -6.974251 26.13897
-2.093819 -6.974266 26.138988
-3.24456 -7.461403 8.26162
-7.523766 -5.869514 -8.999061
-7.523735 -5.869499 -8.999043
-12.367058 -3.295647 -26.332968
-18.799004 0.556145 -44.965954
-18.798988 0.55616 -44.965942
-25.07293 0.29055 -58.90681
-11.0886 5.57592 239.22194
-15.03521 13.856377 221.2075
-14.152107 13.608284 221.02734
-16.194923 23.36567 204.83891
-21.122887 30.324867 187.58968
-20.237038 30.002968 187.50511
-23.758583 29.984306 169.51358
-22.833687 29.5969 169.48715
-23.39344 24.341316 150.92897
-22.410667 23.905113 151.00813
-21.700752 18.49218 131.56003
-20.749062 18.051064 131.80429
-18.993935 14.769142 114.21793
-18.106712 14.321327 114.52325
-13.718452 11.00248 97.731606
-9.994957 6.08567 79.72487
-9.1623 5.757622 80.00656
-7.459465 -0.595146 61.957436
-6.696312 -0.865471 62.212116
-7.45948 -0.595131 61.95745
-6.696327 -0.865456 62.21213
-4.343361 -4.870796 44.151302
-3.679695 -5.049538 44.341526
-2.093803 -6.974251 26.138968
-1.515923 -7.06205 26.218971
-2.093834 -6.974266 26.138987
-1.515938 -7.06205 26.21899
-3.244576 -7.461403 8.261619
-2.747917 -7.501167 8.223466
-7.523781 -5.869499 -8.999062
-7.111412 -5.894081 -9.108605
-7.52375 -5.869499 -8.999043
-7.111397 -5.894081 -9.108587
-12.367073 -3.295647 -26.33297
-11.937553 -3.314552 -26.490978
-18.799019 0.556145 -44.965958
-18.29226 0.563805 -45.24176
-18.292244 0.563805 -45.24174
-25.072914 0.29055 -58.906815
-10.062737 5.169304 238.8296
-13.317848 13.24781 220.80711
-15.364861 22.976357 204.68826
-19.410591 29.55175 187.41655
-21.97396 29.079338 169.46951
-21.491112 23.35073 151.10355
-19.85276 17.516655 132.06992
-17.260979 13.807045 114.84143
-12.905128 10.522148 98.03286
-8.376244 5.337456 80.29964
-5.968895 -1.21505 62.474762
-5.968895 -1.215065 62.474777
-3.037071 -5.290428 44.53575
-0.946861 -7.195717 26.30195
-0.946877 -7.195732 26.301971
-2.256462 -7.577843 8.182959
-6.711479 -5.96563 -9.232591
-6.711449 -5.965614 -9.232573
-11.524986 -3.396553 -26.667343
-17.814873 0.482353 -45.55166
-17.814842 0.482368 -45.55164
-13.755989 -9.649529 247.82707
-9.126778 4.638222 238.36783
-12.549339 12.779869 220.55107
-14.601418 22.47422 204.51964
-18.661629 28.982246 187.3255
-21.19329 28.447823 169.46008
-20.64132 22.696266 151.21211
-19.012978 16.90458 132.35213
-16.455803 13.236794 115.16937
-12.131279 9.982841 98.33912
-7.637093 4.843285 80.599594
-5.279015 -1.631126 62.74207
-5.27903 -1.631111 62.742085
-2.418953 -5.587517 44.732166
-0.390358 -7.374748 26.386778
-0.390358 -7.374763 26.386797
-1.772911 -7.691689 8.140841
-6.326759 -6.079369 -9.366625
-6.326729 -6.079369 -9.366607
-11.134682 -3.535057 -26.85586
-17.372688 0.324638 -45.882984
-17.372658 0.324669 -45.882965
-13.755974 -9.649513 247.82707
-8.301003 3.992241 237.8471
-11.864525 12.210152 220.26476
-13.922844 21.866463 204.33638
-18.006447 28.307564 187.23334
-20.502632 27.718605 169.45795
-19.865913 21.95678 151.33104
-18.229744 16.227058 132.64717
-15.689445 12.619102 115.50472
-11.3964 9.392952 98.64848
-6.945854 4.28614 80.90347
-4.627357 -2.103401 63.011646
-4.627373 -2.103401 63.01166
-1.82859 -5.936684 44.929234
0.148582 -7.6007 26.472542
0.148552 -7.600716 26.472559
-1.300545 -7.844215 8.097506
-5.959236 -6.232506 -9.508127
-5.959206 -6.232506 -9.508109
-10.770195 -3.723946 -27.051966
-16.966957 0.105125 -46.225525
-16.966911 0.105156 -46.225506
-25.072899 0.290565 -58.906815
-7.604195 3.243752 237.27788
-11.280098 11.548439 219.9536
-13.345207 21.164696 204.14226
-17.457268 27.544044 187.14217
-19.912453 26.906013 169.46352
-19.175896 21.13874 151.4595
-17.511177 15.486198 132.95349
-14.964821 11.956215 115.84624
-10.70565 8.753395 98.95951
-6.313377 3.664284 81.20912
-4.021873 -2.63282 63.281723
-4.021889 -2.63282 63.281742
-1.27317 -6.339836 45.125538
0.663338 -7.876869 26.558453
0.663307 -7.876884 26.55847
-0.8442 -8.038795 8.053028
-5.614891 -6.42794 -9.656365
-5.614876 -6.427925 -9.656348
-10.43824 -3.962029 -27.253084
-16.601707 -0.168861 -46.573025
-16.601677 -0.168846 -46.573013
-25.072899 0.290565 -58.90682
-13.755974 -9.649513 247.82709
-7.604179 3.243736 237.27786
-7.052498 2.409248 236.67076
-11.280098 11.548439 219.95358
-10.810326 10.809471 219.6225
-13.345222 21.164696 204.14226
-12.88134 20.38488 203.9412
-17.457283 27.544044 187.14217
-17.022392 26.709785 187.05461
-19.912468 26.906013 169.46352
-19.43206 26.024117 169.47754
-19.175926 21.138725 151.4595
-18.585716 20.247444 151.59715
-17.511192 15.486183 132.95349
-16.870735 14.680901 133.27008
-14.964836 11.956215 115.84624
-14.2911 11.24427 116.19319
-10.70565 8.75338 98.95951
-10.067879 8.061989 99.27075
-6.313393 3.664268 81.20912
-5.752098 2.97686 81.513725
-4.021873 -2.632835 63.281723
-3.475456 -3.22364 63.549866
-4.021889 -2.632835 63.28174
-3.475456 -3.22364 63.54988
-0.76339 -6.800514 45.319
1.145653 -8.206856 26.64343
1.145622 -8.206871 26.64345
-0.8442 -8.038811 8.053029
-0.412453 -8.281883 8.007657
-5.304863 -6.670906 -9.810723
-5.304848 -6.670891 -9.810704
-10.43824 -3.962013 -27.253084
-10.148979 -4.249886 -27.457014
-16.285774 -0.496071 -46.920963
-16.601692 -0.168846 -46.573013
-16.285744 -0.496056 -46.920944
-6.658791 1.506874 236.0382
-10.467033 10.009377 219.27805
-12.541389 19.54412 203.73752
-16.707664 25.822502 186.97223
-19.065926 25.089104 169.49934
-18.101189 19.295479 151.74203
-16.313744 13.818428 133.59427
-13.674034 10.48423 116.54386
-9.487282 7.322151 99.58049
-5.264442 2.233284 81.81426
-2.994545 -3.871254 63.813156
-2.99456 -3.871254 63.81317
-0.308784 -7.317467 45.506687
1.583977 -8.594841 26.726028
1.583946 -8.594856 26.726046
-0.019737 -8.582527 7.962354
-5.045006 -6.965126 -9.969415
-5.044975 -6.965111 -9.969397
-9.914391 -4.58593 -27.660818
-16.029305 -0.875206 -47.264256
-16.029274 -0.875175 -47.264244
-6.430016 0.55616 235.39552
-10.25663 9.166145 218.92976
-12.330894 18.661568 203.53613
-16.51603 24.900139 186.89597
-18.815315 24.117073 169.52753
-17.72297 18.297234 151.89194
-15.839241 12.909554 133.92308
-13.112572 9.682793 116.89632
-8.963799 6.540657 99.887184
-4.850182 1.443657 82.10835
-2.578651 -4.565422 64.069244
-2.578667 -4.565422 64.06926
0.083336 -7.885414 45.685524
1.961555 -9.043922 26.804573
1.96154 -9.043953 26.80459
0.31443 -8.946129 7.918912
-4.851051 -7.307442 -10.128982
-4.851036 -7.307426 -10.128963
-9.744759 -4.963478 -27.8604
-15.840645 -1.301369 -47.59669
-15.84063 -1.301353 -47.59668
-13.755974 -9.649513 247.82706
-6.430016 0.55616 235.39551
-6.371651 -0.423088 234.75764
-10.256645 9.1661 218.92976
-10.184273 8.298027 218.58665
-12.330894 18.661537 203.53612
-12.254387 17.75602 203.34148
-16.516045 24.900124 186.89595
-16.449867 23.959618 186.82687
-18.81533 24.117058 169.52751
-18.684715 23.122078 169.5612
-17.723 18.297234 151.89194
-17.460487 17.263054 152.04507
-15.839256 12.909538 133.92307
-15.456749 11.959038 134.25398
-12.610512 8.842751 117.24892
-8.963799 6.540657 99.88718
-8.504005 5.7201 100.18858
-4.850197 1.443657 82.10835
-4.522545 0.610527 82.39211
-2.578667 -4.565422 64.069244
-2.236305 -5.302269 64.315
-2.578682 -4.565437 64.06926
-2.236305 -5.302284 64.31502
0.083321 -7.885429 45.685524
0.398354 -8.501808 45.85165
1.96154 -9.043938 26.804573
2.249809 -9.556572 26.877228
2.249794 -9.556587 26.877245
0.314415 -8.946144 7.918911
0.56086 -9.37368 7.880135
-4.851067 -7.307442 -10.128982
-4.734383 -7.686409 -10.285393
-4.851051 -7.307442 -10.128963
-4.734367 -7.686409 -10.285375
-9.744774 -4.963493 -27.8604
-9.645119 -5.370506 -28.051466
-15.840675 -1.301399 -47.59669
-15.725853 -1.766411 -47.911377
-15.840645 -1.301369 -47.596676
-15.725822 -1.766396 -47.91136
-25.072899 0.29055 -58.906815
-25.072899 0.290565 -58.90681
-6.485283 -1.409035 234.13776
-10.252571 7.424995 218.25569
-12.314064 16.846977 203.15758
-16.510109 23.017967 186.76677
-18.681831 22.118874 169.60027
-17.332924 16.204033 152.1997
-15.188866 10.969627 134.58377
-12.185219 7.960426 117.59921
-8.124153 4.859169 100.481346
-4.302818 -0.262917 82.65969
-1.989555 -6.08152 64.54498
-1.989571 -6.08152 64.545
0.612801 -9.162712 45.99925
2.415367 -10.122414 26.941294
2.415337 -10.122444 26.94131
0.684624 -9.851463 7.849478
-4.708305 -8.087395 -10.432792
-4.70829 -8.087395 -10.432773
-9.620827 -5.795158 -28.228464
-15.69236 -2.261528 -48.199505
-15.692329 -2.261497 -48.19949
-6.485283 -1.409035 234.13777
-6.769951 -2.379509 233.54878
-10.252571 7.425011 218.2557
-10.461937 6.567757 217.94373
-12.314079 16.846962 203.15758
-12.510399 15.954536 202.98843
-16.510109 23.017967 186.76675
-16.696999 22.092384 186.71736
-18.681816 22.118874 169.60027
-18.812035 21.124565 169.64444
-17.355751 15.137383 152.3533
-15.18885 10.969627 134.58377
-15.059105 9.950478 134.90724
-12.185204 7.960411 117.599205
-11.860085 7.034279 117.942795
-8.124138 4.859169 100.48134
-7.843697 3.959114 100.76074
-4.302803 -0.262917 82.65969
-4.210304 -1.1661 82.903854
-1.861168 -6.895302 64.752205
-1.989555 -6.08152 64.545
-1.861168 -6.895317 64.75222
0.612816 -9.162712 45.99925
0.707863 -9.85479 46.123215
2.440575 -10.713127 26.993818
2.440544 -10.713142 26.993835
0.684608 -9.851448 7.849478
0.670738 -10.347008 7.829322
-4.708305 -8.087379 -10.432792
-4.773293 -8.493538 -10.561138
-4.70829 -8.087379 -10.432774
-4.773262 -8.493538 -10.561119
-9.620827 -5.795158 -28.228466
-9.672081 -6.226921 -28.382244
-15.748405 -2.777 -48.448982
-15.748375 -2.776985 -48.448963
-25.072914 0.290565 -58.906815
-7.217613 -3.313377 233.00311
-10.804497 5.745399 217.65721
-12.836159 15.097481 202.83725
-17.005836 21.199196 186.67938
-19.07557 20.157722 169.69298
-17.540504 14.08567 152.50253
-15.096733 8.918465 135.21594
-11.670235 6.067589 118.27149
-7.689095 3.025032 101.01952
-4.262398 -2.080925 83.11608
-1.870705 -7.726479 64.92928
-1.87072 -7.726479 64.9293
0.661751 -10.555214 46.217327
2.305244 -11.287697 27.030634
2.305229 -11.287712 27.030651
0.510796 -10.816917 7.821502
-4.918556 -8.889565 -10.66123
-4.918541 -8.889549 -10.661212
-9.790886 -6.657356 -28.504587
-15.894615 -3.300011 -48.64945
-15.894585 -3.300011 -48.64943
-7.817818 -4.190788 232.51247
-11.270302 4.975258 217.40215
-13.282677 14.293083 202.70694
-17.431725 20.354698 186.65353
-19.473 19.239021 169.74522
-17.898018 13.077843 152.64308
-15.328667 7.903114 135.49785
-11.650337 5.076561 118.573326
-7.687813 2.071709 101.24799
-4.478462 -2.980995 83.28516
-2.041069 -8.548454 65.06438
-2.041084 -8.54847 65.0644
0.462471 -11.231697 46.27408
2.023415 -11.807426 27.048412
2.023399 -11.807457 27.048433
0.231071 -11.229576 7.824544
-5.134056 -9.261436 -10.732227
-5.134041 -9.261421 -10.732208
-9.973106 -7.076241 -28.593874
-16.122704 -3.816093 -48.798134
-16.122673 -3.816078 -48.79812
-7.817802 -4.190788 232.51247
-8.556602 -4.993889 232.08734
-11.270302 4.975273 217.40215
-11.848244 4.272972 217.18416
-13.840416 13.557655 202.60027
-17.968788 19.575523 186.64038
-19.472984 19.239037 169.74522
-20.000816 18.38935 169.80028
-17.897987 13.077873 152.64308
-18.427284 12.146263 152.76997
-15.328651 7.90313 135.49786
-15.771111 6.948097 135.73808
-11.650337 5.076576 118.57333
-11.866035 4.096169 118.82468
-7.687798 2.071724 101.24799
-7.900764 1.129219 101.425934
-4.478462 -2.98098 83.28516
-4.871422 -3.826714 83.39787
-2.041069 -8.548439 65.06438
-2.390114 -9.318535 65.141075
-2.041069 -8.548454 65.0644
-2.390129 -9.318535 65.14109
0.462486 -11.231682 46.274082
0.112022 -11.846809 46.285225
2.02343 -11.807426 27.048416
1.631996 -12.250069 27.046005
2.023415 -11.807442 27.048435
1.631981 -12.250099 27.046022
0.231071 -11.229561 7.824545
-0.130348 -11.574455 7.835314
-5.134056 -9.261421 -10.732227
-5.412346 -9.594749 -10.777061
-5.412331 -9.594749 -10.777041
-9.973106 -7.076225 -28.593874
-10.216896 -7.469826 -28.651476
-16.122704 -3.816078 -48.798134
-16.421745 -4.311684 -48.896408
-16.122673 -3.816063 -48.79812
-16.42173 -4.311653 -48.896393
-9.418404 -5.705696 231.73746
-12.526146 3.653481 217.00877
-14.49897 12.907387 202.51997
-18.610252 18.879555 186.64041
-20.654396 17.632866 169.85728
-19.124504 11.330833 152.87708
-16.438332 6.121391 135.91385
-12.400185 3.232002 118.979225
-8.400291 0.286339 101.51602
-5.433922 -4.576088 83.445595
-2.910515 -9.988182 65.14992
-2.91053 -9.988182 65.14993
-0.372902 -12.364815 46.24723
1.164146 -12.60743 27.02509
1.164146 -12.607445 27.025106
-0.546211 -11.852257 7.851744
-5.741112 -9.881767 -10.797627
-5.741096 -9.881767 -10.797608
-10.515175 -7.827614 -28.678091
-16.781868 -4.775459 -48.944702
-16.781837 -4.775429 -48.944687
-10.384941 -6.31118 231.46994
-13.289207 3.129494 216.87912
-15.244835 12.356148 202.46767
-19.345985 18.28379 186.65387
-21.422737 16.99363 169.91525
-19.970192 10.666786 152.95926
-17.297691 5.478554 136.01091
-13.205467 2.584373 119.01789
-9.150719 -0.359505 101.50189
-6.151299 -5.174828 83.4188
-3.575523 -10.506569 65.08828
-3.575523 -10.506584 65.0883
-0.960899 -12.75843 46.16353
0.644905 -12.880882 26.988821
0.64489 -12.880898 26.988842
-0.997276 -12.069572 7.872743
-6.10598 -10.121529 -10.795238
-6.105965 -10.121513 -10.79522
-10.858116 -8.14312 -28.674128
-17.19413 -5.197685 -48.942574
-17.194115 -5.197685 -48.942562
-13.755974 -9.649529 247.82707
-10.384956 -6.311195 231.46992
-11.435738 -6.797081 231.28973
-13.289238 3.129463 216.8791
-14.120979 2.711678 216.79677
-15.24485 12.356117 202.46767
-16.062325 11.915825 202.44434
-20.16262 17.80494 186.68095
-21.422752 16.993614 169.91527
-22.288445 16.495338 169.97267
-19.970192 10.666771 152.95926
-20.931602 10.181587 153.0131
-17.297707 5.478539 136.01091
-18.286171 5.050789 136.02623
-13.205482 2.584358 119.01788
-14.166603 2.215279 118.94548
-9.150734 -0.35952 101.50189
-10.051933 -0.745018 101.38986
-6.151299 -5.174843 83.41879
-6.982811 -5.594994 83.32072
-3.575539 -10.506584 65.08827
-4.336494 -10.858192 64.966484
-3.575523 -10.506599 65.088295
-4.336494 -10.858208 64.9665
-0.960915 -12.758446 46.16353
-1.612236 -13.025093 46.04391
0.64489 -12.880882 26.988821
0.09359 -13.079002 26.94053
0.64489 -12.880898 26.98884
0.093575 -13.079033 26.940548
-1.469917 -12.234718 7.897474
-6.10598 -10.121529 -10.795237
-6.495369 -10.31562 -10.77159
-6.10598 -10.121529 -10.795218
-6.495354 -10.315605 -10.771571
-10.858131 -8.143135 -28.674122
-11.236351 -8.412117 -28.640678
-17.194145 -5.197701 -48.942574
-17.649315 -5.570244 -48.890434
-17.194115 -5.197701 -48.94256
-17.64927 -5.570213 -48.890423
-25.072914 0.290565 -58.90681
-25.072899 0.29055 -58.90681
-13.755989 -9.649544 247.82704
-12.548424 -7.153755 231.20009
-15.003838 2.407784 216.7629
-16.934181 11.595634 202.45036
-21.043098 17.45739 186.72131
-23.227776 16.155342 170.0278
-21.969536 9.888908 153.03754
-19.341942 4.841469 135.96599
-15.185951 2.116508 118.78279
-11.01194 -0.880348 101.203186
-7.873878 -5.846153 83.16694
-5.143089 -11.063042 64.80195
-5.143089 -11.063042 64.80197
-2.293358 -13.184212 45.900036
-0.476036 -13.214531 26.883347
-0.476051 -13.214546 26.883366
-1.95533 -12.356346 7.925137
-6.9002 -10.468132 -10.729404
-6.900185 -10.468117 -10.729386
-11.640785 -8.632957 -28.580154
-18.13726 -5.887016 -48.79053
-18.137245 -5.887001 -48.790512
-13.699226 -7.37484 231.20276
-15.91935 2.222588 216.77823
-17.84179 11.401863 202.48578
-21.966606 17.25222 186.77415
-24.211891 15.981667 170.07886
-23.043129 9.78463 153.03415
-20.41317 4.824104 135.84528
-16.197304 2.209328 118.5642
-11.970711 -0.835732 100.97306
-8.786629 -5.942177 82.97002
-5.965248 -11.139946 64.606384
-5.965263 -11.139946 64.6064
-2.98513 -13.254295 45.739937
-1.055595 -13.296196 26.81942
-1.055611 -13.296211 26.819439
-2.448235 -12.440651 7.955199
-7.313988 -10.582863 -10.671285
-7.313957 -10.582863 -10.671266
-12.063179 -8.804924 -28.49529
-18.647697 -6.143456 -48.646137
-18.647667 -6.143456 -48.64612
-25.072914 0.290535 -58.906807
-14.864449 -7.455391 231.29811
-16.84922 2.159798 216.84274
-18.766197 11.339409 202.55008
-22.910164 17.197853 186.8384
-25.212044 15.97715 170.12427
-24.118843 9.856392 153.00557
-21.468208 4.966591 135.6783
-17.180397 2.431526 118.31097
-12.909325 -0.662529 100.71663
-9.695259 -5.895271 82.73908
-6.784309 -11.101082 64.38696
-6.784309 -11.101067 64.386986
-3.677315 -13.244438 45.567738
-1.63987 -13.326134 26.749727
-1.639885 -13.326134 26.749748
-2.945518 -12.488655 7.987621
-7.732521 -10.65937 -10.597851
-7.732491 -10.659355 -10.597832
-12.496651 -8.92524 -28.387466
-19.170692 -6.334023 -48.45958
-19.170662 -6.334007 -48.459568
-13.756004 -9.649544 247.82706
-14.864449 -7.455391 231.2981
-16.019615 -7.392937 231.4841
-16.84922 2.159798 216.84273
-17.77459 2.222313 216.95528
-18.766182 11.339409 202.55008
-19.687477 11.411644 202.64217
-22.91018 17.197853 186.8384
-23.848778 17.298393 186.91243
-25.212059 15.97715 170.12425
-26.200157 16.13836 170.16277
-24.118858 9.856377 153.00555
-25.171043 10.087074 152.95467
-21.468224 4.966576 135.67828
-22.489449 5.243492 135.47493
-17.180397 2.431526 118.31096
-18.127296 2.758034 118.03216
-13.81739 -0.381371 100.44122
-9.695259 -5.895287 82.73909
-10.581306 -5.72216 82.482605
-6.784325 -11.101082 64.38696
-7.586876 -10.959099 64.14967
-6.78434 -11.101082 64.386986
-7.586891 -10.959099 64.14969
-4.362038 -13.160912 45.38635
-1.63987 -13.326149 26.74973
-2.224297 -13.305992 26.6751
-1.6399 -13.326149 26.749748
-2.224312 -13.306007 26.67512
-2.945518 -12.48867 7.987621
-3.44445 -12.500206 8.022502
-7.732521 -10.659386 -10.597851
-8.151802 -10.695412 -10.508781
-7.732491 -10.65937 -10.597832
-8.151772 -10.695396 -10.508762
-12.496651 -8.925255 -28.387466
-12.934227 -8.990379 -28.257347
-19.696037 -6.452461 -48.232513
-19.170662 -6.334023 -48.459564
-19.696007 -6.452446 -48.2325
-17.140266 -7.187813 231.75737
-18.676216 2.410271 217.11395
-20.585289 11.618401 202.76028
-24.75718 17.551018 186.99417
-27.150871 16.455498 170.19337
-26.180672 10.458748 152.88428
-23.466515 5.633034 135.24309
-19.035515 3.167381 117.73483
-14.690071 -0.011726 100.15276
-11.432838 -5.439568 82.20754
-8.363945 -10.726357 63.89944
-8.363945 -10.726372 63.899464
-5.03344 -13.010445 45.198364
-2.805061 -13.238777 26.596485
-2.805092 -13.238777 26.5965
-3.942329 -12.476189 8.059796
-8.567009 -10.689125 -10.404582
-8.566994 -10.68911 -10.404563
-13.368095 -8.997856 -28.1067
-20.213127 -6.495384 -47.968857
-20.213097 -6.495354 -47.968838
-13.755989 -9.649544 247.82703
-18.202888 -6.845695 232.1121
-19.535713 2.717918 217.31561
-21.440437 11.952782 202.90149
-25.61338 17.943748 187.08109
-28.043633 16.913048 170.21521
-27.13314 10.9562 152.79655
-24.391533 6.121864 134.98769
-19.902779 3.648537 117.42289
-15.524254 0.433464 99.85511
-12.242592 -5.063057 81.91946
-9.109337 -10.413811 63.640194
-9.109352 -10.413826 63.64021
-5.68676 -12.798653 45.005756
-3.378716 -13.126503 26.51488
-3.378731 -13.126503 26.514896
-4.436882 -12.417671 8.099038
-8.974876 -10.643059 -10.28832
-8.974876 -10.643044 -10.288301
-13.792122 -8.95034 -27.93997
-20.713905 -6.467796 -47.67711
-20.713875 -6.467781 -47.677094
-19.184807 -6.373543 232.54152
-20.335426 3.138802 217.55655
-22.23484 12.406868 203.06277
-26.39817 18.46325 187.17114
-28.862175 17.494118 170.22835
-28.018242 11.563011 152.69414
-25.260002 6.696358 134.71333
-20.728249 4.191719 117.09956
-16.318428 0.943504 99.55116
-13.006493 -4.606117 81.62272
-9.818901 -10.030861 63.375084
-9.818901 -10.030876 63.375107
-6.317879 -12.529564 44.810143
-3.941032 -12.9683 26.431381
-3.941048 -12.9683 26.431398
-4.925774 -12.324242 8.13959
-9.375496 -10.564354 -10.164478
-9.375496 -10.564354 -10.16446
-14.202797 -8.854805 -27.762724
-21.191887 -6.377113 -47.36625
-21.191856 -6.377098 -47.36623
-13.755989 -9.649513 247.82706
-20.065788 -5.781197 233.03526
-21.058311 3.665611 217.83081
-22.951134 12.971474 203.24043
-27.094978 19.095116 187.26299
-29.594826 18.18084 170.23376
-28.831215 12.261772 152.58012
-26.071999 7.34185 134.42441
-21.513618 4.786842 116.76765
-17.073006 1.508659 99.24315
-13.723213 -4.0812 81.32064
-10.490837 -9.587364 63.10651
-10.490868 -9.587364 63.10653
-6.922752 -12.206383 44.61321
-4.488899 -12.764992 26.346115
-4.48893 -12.765007 26.346132
-5.404472 -12.191521 8.182129
-9.75428 -10.434608 -10.027987
-9.754265 -10.434593 -10.027969
-14.584343 -8.696709 -27.572184
-21.627892 -6.206749 -47.035126
-21.627876 -6.206718 -47.03511
-13.755974 -9.649529 247.82706
-20.065788 -5.781181 233.03526
-20.826088 -5.07943 233.58264
-21.687187 4.289772 218.13216
-22.951134 12.971489 203.24043
-23.572441 13.635887 203.43054
-27.094963 19.095116 187.26299
-27.690178 19.823326 187.35483
-29.59481 18.18084 170.23376
-30.23162 18.95736 170.23183
-28.8312 12.261772 152.58012
-29.564857 13.041878 152.45631
-26.824272 8.051018 134.12361
-22.259651 5.427116 116.42911
-17.07302 1.508644 99.24315
-17.786385 2.123604 98.93276
-13.723228 -4.081184 81.32064
-14.386147 -3.491447 81.01556
-10.490852 -9.587364 63.10651
-11.120476 -9.086678 62.836422
-11.120476 -9.086678 62.83644
-6.922768 -12.206383 44.61321
-7.496162 -11.829674 44.41629
-5.015785 -12.512871 26.260168
-4.48893 -12.765022 26.346132
-5.0158 -12.512871 26.260185
-5.869377 -12.017769 8.226124
-9.754265 -10.434608 -10.027987
-10.112099 -10.261314 -9.882939
-9.75425 -10.434608 -10.027969
-10.112068 -10.261314 -9.88292
-14.935402 -8.485283 -27.37362
-21.627892 -6.206749 -47.03513
-22.021477 -5.969566 -46.69201
-22.021446 -5.969566 -46.691998
-21.448784 -4.283607 234.17307
-22.20745 4.997688 218.4554
-24.085274 14.385078 203.62921
-28.174461 20.629799 187.44418
-30.762474 19.809715 170.22163
-30.204887 13.898842 152.32295
-27.504433 8.825142 133.81181
-22.95942 6.114723 116.08466
-18.451027 2.789665 98.62142
-14.983131 -2.835335 80.71003
-11.6968 -8.525536 62.56695
-11.696815 -8.525536 62.566967
-8.029091 -11.396629 44.221104
-5.514549 -12.208778 26.174635
-5.514565 -12.208794 26.174652
-6.31469 -11.799416 8.271152
-10.442421 -10.044167 -9.731605
-10.442406 -10.044151 -9.731586
-15.249184 -8.224251 -27.171013
-22.36773 -5.674553 -46.344856
-22.367699 -5.674522 -46.344845
-21.918907 -3.411125 234.79526
-22.605919 5.773705 218.79517
-24.47805 15.202507 203.83235
-28.540916 21.496742 187.5289
-31.180733 20.722511 170.20317
-30.740974 14.823204 152.1813
-28.102516 9.660851 133.49098
-23.604378 6.85186 115.73558
-19.060005 3.506401 98.31075
-15.507256 -2.118248 80.40716
-12.209984 -7.904594 62.300934
-12.209999 -7.90461 62.300953
-8.511055 -10.906029 44.03027
-5.975334 -11.848686 26.090725
-5.975349 -11.848701 26.090744
-6.728127 -11.527199 8.316604
-10.728615 -9.774818 -9.574801
-10.7286 -9.774818 -9.574783
-15.511848 -7.911339 -26.966894
-22.653374 -5.320503 -45.999607
-22.653343 -5.320503 -45.99959
-22.227364 -2.481056 235.43498
-22.87423 6.600533 219.143
-24.743584 16.069786 204.03526
-28.785347 22.406364 187.60786
-31.484398 21.679329 170.17772
-31.172249 15.800087 152.03362
-28.61898 10.547325 133.16415
-24.19349 7.633354 115.38382
-19.612526 4.267586 98.002304
-15.959877 -1.351555 80.10939
-12.659004 -7.23307 62.0409
-12.659035 -7.23307 62.04092
-8.9347 -10.362373 43.846714
-6.384926 -11.429497 26.010092
-6.384941 -11.429512 26.010109
-7.093071 -11.194176 8.361123
-10.953941 -9.453224 -9.415699
-10.953926 -9.453224 -9.415682
-15.711586 -7.551003 -26.765348
-22.86898 -4.911858 -45.66297
-22.868965 -4.911842 -45.662956
-22.3675 -1.512825 236.0769
-23.006157 7.460274 219.48936
-24.87661 16.968025 204.2333
-28.9049 23.341362 187.68025
-31.670982 22.665352 170.14653
-31.495049 16.817451 151.88193
-29.051262 11.476646 132.83398
-24.727547 8.453316 115.03105
-20.106377 5.068169 97.69785
-16.334358 -0.540581 79.81971
-13.041313 -6.51812 61.789295
-13.041328 -6.51812 61.78931
-9.290031 -9.769371 43.67367
-6.720436 -10.946983 25.934439
-6.720467 -10.946983 25.934454
-7.385826 -10.796394 8.402426
-11.106956 -9.088585 -9.258229
-11.106926 -9.088585 -9.258211
-15.842567 -7.154671 -26.570747
-23.010841 -4.458839 -45.341766
-23.010826 -4.458839 -45.341747
-22.3675 -1.51284 236.0769
-22.33651 -0.527306 236.7071
-23.006157 7.460274 219.48935
-22.999779 8.333717 219.82652
-24.87661 16.968025 204.23329
-24.876 17.878029 204.42236
-28.904915 23.341362 187.68025
-28.90026 24.284737 187.74458
-31.670998 22.665352 170.14653
-31.734612 23.666557 170.10994
-31.495064 16.817436 151.88193
-31.692024 17.865837 151.7278
-29.051262 11.476631 132.83398
-29.37983 12.447105 132.50313
-24.727547 8.4533 115.03105
-25.194298 9.313774 114.679146
-20.106377 5.068153 97.69785
-20.528328 5.908836 97.40032
-16.334358 -0.540596 79.81971
-16.609962 0.313774 79.543335
-13.041313 -6.51812 61.78929
-13.338783 -5.759621 61.550632
-13.041328 -6.518135 61.78931
-13.338799 -5.759605 61.55065
-9.290031 -9.769386 43.673668
-9.555351 -9.128853 43.51645
-6.720451 -10.946983 25.934437
-6.947121 -10.403923 25.866161
-6.720482 -10.946983 25.934452
-6.947136 -10.403923 25.866177
-7.385826 -10.796394 8.402425
-7.570595 -10.33947 8.437112
-11.174187 -8.694725 -9.106805
-11.174171 -8.69471 -9.106787
-15.842567 -7.154686 -26.570747
-15.900124 -6.735435 -26.387428
-23.076195 -3.972633 -45.04262
-23.076164 -3.972603 -45.042606
-22.135551 0.453392 237.3132
-22.857353 9.200981 220.14876
-24.744255 18.78086 204.59914
-28.77404 25.220207 187.79929
-31.668953 24.667412 170.06813
-31.742805 18.931282 151.5733
-29.578407 13.453667 132.17581
-25.570778 10.218987 114.3316
-20.859123 6.790489 97.11381
-16.765114 1.204552 79.2871
-13.525673 -4.960686 61.33186
-13.525688 -4.960686 61.331875
-9.709206 -8.449318 43.38062
-7.041985 -9.820641 25.80781
-7.042 -9.820656 25.807827
-7.62429 -9.847389 8.462555
-11.149971 -8.288689 -8.968638
-11.14994 -8.288658 -8.96862
-15.882652 -6.305412 -26.221937
-23.060112 -3.463554 -44.774387
-23.060097 -3.463524 -44.774372
-21.769508 1.408134 237.88301
-22.583199 10.043602 220.45018
-24.485329 19.65879 204.76042
-28.528358 26.132454 187.84329
-31.471977 25.65055 170.02168
-31.636635 19.993324 151.42143
-29.623726 14.482414 131.85878
-25.828712 11.167595 113.99473
-21.078194 7.70948 96.84389
-16.78762 2.116325 79.05771
-13.586143 -4.135353 61.138885
-13.586159 -4.135353 61.1389
-9.736168 -7.749428 43.270237
-6.990257 -9.232277 25.762177
-6.990273 -9.232292 25.762194
-7.538765 -9.358894 8.47729
-11.04464 -7.885628 -8.852858
-11.044609 -7.885612 -8.852839
-15.797203 -5.873116 -26.08269
-22.958015 -2.941978 -44.54851
-22.958 -2.941963 -44.548496
-21.246086 2.316444 238.40404
-22.182518 10.843498 220.72389
-24.103737 20.493965 204.90285
-28.164757 27.005089 187.8758
-31.143135 26.59658 169.97127
-31.366539 21.027046 151.27576
-29.493156 15.510796 131.56151
-25.940254 12.149162 113.67739
-21.164345 8.655708 96.59788
-16.66317 3.028481 78.86356
-13.506126 -3.30407 60.97876
-13.506142 -3.30407 60.97878
-9.621452 -7.055138 43.19103
-6.785088 -8.678398 25.733284
-6.785118 -8.678398 25.7333
-7.320076 -8.91198 8.480667
-10.868401 -7.497932 -8.766026
-10.86837 -7.497932 -8.766007
-15.649437 -5.446098 -25.976171
-22.769753 -2.420799 -44.374653
-22.769722 -2.420769 -44.37464
-20.577568 3.160316 238.86476
-21.667152 11.586372 220.96411
-23.610008 21.271889 205.02396
-27.6903 27.823708 187.89658
-30.6847 27.486153 169.91797
-30.926552 22.002907 151.14108
-29.164528 16.504524 131.29686
-25.861107 13.142723 113.39481
-21.073906 9.609825 96.389824
-16.362587 3.907906 78.720055
-13.253227 -2.500481 60.86889
-13.253242 -2.500481 60.868904
-9.352364 -6.401695 43.153614
-6.449425 -8.191399 25.724733
-6.449425 -8.191414 25.72475
-6.999138 -8.529335 8.473999
-10.622688 -7.141731 -8.709299
-10.622658 -7.141701 -8.709282
-15.43647 -5.037621 -25.904345
-22.501625 -1.91465 -44.255596
-22.50161 -1.914635 -44.255577
-25.072914 0.29055 -58.906807
-19.784416 3.92794 239.25641
-21.06086 12.268837 221.16887
-23.026451 21.98841 205.12395
-27.12371 28.582207 187.90686
-30.107689 28.303337 169.86365
-30.316948 22.884727 151.02379
-28.613808 17.406197 131.08505
-25.498436 14.083229 113.184265
-20.723808 10.515236 96.25136
-15.875618 4.705132 78.64213
-12.810905 -1.779243 60.828194
-12.810921 -1.779228 60.828213
-8.933327 -5.830772 43.167686
-6.021034 -7.787468 25.736588
-6.021049 -7.787498 25.736603
-6.610252 -8.21627 8.45922
-10.316399 -6.832085 -8.680192
-10.316383 -6.832069 -8.680174
-15.161827 -4.662529 -25.865782
-22.16529 -1.436119 -44.18871
-22.165276 -1.436104 -44.188694
-25.07293 0.29055 -58.906807
-19.7844 3.92794 239.25642
-18.882805 4.605888 239.57137
-21.06086 12.268852 221.16888
-20.374825 12.882103 221.33536
-22.362495 22.633675 205.20139
-27.12371 28.582207 187.90688
-26.472252 29.269188 187.90643
-30.107674 28.303337 169.86366
-29.41848 29.027428 169.80908
-30.316933 22.884727 151.02379
-29.545021 23.632027 150.93022
-28.613792 17.406197 131.08505
-27.83973 18.143394 130.94923
-25.49842 14.083229 113.184265
-24.80944 14.845314 113.08958
-20.723808 10.515221 96.25136
-20.079979 11.26609 96.215866
-15.875633 4.705132 78.64213
-15.223427 5.381035 78.63423
-12.205147 -1.184715 60.85904
-12.205147 -1.1847 60.859055
-8.933342 -5.830757 43.167686
-8.388847 -5.37336 43.232937
-6.021034 -7.787453 25.736588
-5.524971 -7.469841 25.766237
-6.021049 -7.787468 25.736603
-5.524986 -7.469856 25.766253
-6.610237 -8.21624 8.45922
-6.173958 -7.967995 8.437419
-10.316414 -6.832069 -8.680192
-9.964958 -6.57003 -8.675598
-10.316399 -6.832069 -8.680174
-9.964943 -6.57003 -8.67558
-14.836021 -4.32621 -25.858267
-22.16529 -1.436134 -44.188713
-21.771309 -0.993462 -44.172024
-22.16526 -1.436104 -44.188694
-21.771294 -0.993446 -44.17201
POLYGONS 1530 6120
3 0 1 2
3 0 2 3
3 3 2 4
3 3 4 5
3 5 4 6
3 5 6 7
3 7 6 8
3 7 8 9
3 9 8 10
3 9 10 11
3 11 10 12
3 11 12 13
3 13 12 14
3 13 14 15
3 15 14 16
3 15 16 17
3 17 16 18
3 17 18 19
3 19 18 20
3 19 20 21
3 21 20 22
3 23 24 25
3 25 24 26
3 25 26 27
3 27 26 28
3 29 30 31
3 31 30 32
3 31 32 33
3 33 32 34
3 35 36 37
3 37 36 38
3 37 38 39
3 39 38 40
3 41 42 43
3 43 42 44
3 1 45 2
3 2 45 46
3 2 46 4
3 4 46 47
3 4 47 6
3 6 47 48
3 6 48 8
3 8 48 49
3 8 49 10
3 10 49 50
3 10 50 12
3 12 50 51
3 12 51 14
3 14 51 52
3 14 52 16
3 16 52 53
3 16 53 18
3 18 53 54
3 18 54 20
3 20 54 55
3 20 55 22
3 22 55 56
3 24 57 26
3 26 57 58
3 26 58 28
3 28 58 59
3 30 60 32
3 32 60 61
3 32 61 34
3 34 61 62
3 36 63 38
3 38 63 64
3 38 64 40
3 40 64 65
3 42 66 44
3 45 67 46
3 46 67 68
3 46 68 47
3 47 68 69
3 47 69 48
3 48 69 70
3 48 70 49
3 49 70 71
3 49 71 50
3 50 71 72
3 50 72 51
3 51 72 73
3 51 73 52
3 52 73 74
3 52 74 53
3 53 74 75
3 53 75 54
3 54 75 76
3 54 76 55
3 55 76 77
3 55 77 56
3 56 77 78
3 57 79 58
3 58 79 80
3 58 80 59
3 59 80 81
3 60 82 61
3 61 82 83
3 61 83 62
3 62 83 84
3 63 85 64
3 64 85 86
3 64 86 65
3 65 86 87
3 66 88 44
3 44 88 89
3 67 90 68
3 68 90 91
3 68 91 69
3 69 91 92
3 69 92 70
3 70 92 93
3 70 93 71
3 71 93 94
3 71 94 72
3 72 94 95
3 72 95 73
3 73 95 96
3 73 96 74
3 74 96 97
3 74 97 75
3 75 97 98
3 75 98 76
3 76 98 99
3 76 99 77
3 77 99 100
3 77 100 78
3 78 100 101
3 79 102 80
3 80 102 103
3 80 103 81
3 81 103 104
3 82 105 83
3 83 105 106
3 83 106 84
3 84 106 107
3 85 108 86
3 86 108 109
3 86 109 87
3 87 109 110
3 88 111 89
3 89 111 43
3 90 112 91
3 91 112 113
3 91 113 92
3 92 113 114
3 92 114 93
3 93 114 115
3 93 115 94
3 94 115 116
3 94 116 95
3 95 116 117
3 95 117 96
3 96 117 118
3 96 118 97
3 97 118 119
3 97 119 98
3 98 119 120
3 98 120 99
3 99 120 121
3 99 121 100
3 100 121 122
3 100 122 101
3 101 122 123
3 102 124 103
3 103 124 125
3 103 125 104
3 104 125 126
3 105 127 106
3 106 127 128
3 106 128 107
3 107 128 129
3 108 130 109
3 109 130 131
3 109 131 110
3 110 131 132
3 111 133 43
3 43 133 134
3 113 1 135
3 113 135 136
3 136 135 137
3 136 137 115
3 115 137 138
3 115 138 139
3 139 138 140
3 139 140 141
3 141 140 142
3 141 142 143
3 143 142 144
3 143 144 145
3 145 144 146
3 145 146 147
3 147 146 148
3 147 148 121
3 121 148 149
3 121 149 150
3 150 149 151
3 150 151 152
3 152 151 153
3 154 155 156
3 156 155 157
3 156 157 158
3 158 157 159
3 160 161 162
3 162 161 163
3 162 163 164
3 164 163 165
3 166 167 168
3 168 167 169
3 168 169 170
3 170 169 171
3 133 172 173
3 173 172 43
3 1 90 135
3 135 90 174
3 135 174 137
3 137 174 175
3 137 175 138
3 138 175 176
3 138 176 140
3 140 176 177
3 140 177 142
3 142 177 178
3 142 178 144
3 144 178 179
3 144 179 146
3 146 179 180
3 146 180 148
3 148 180 181
3 148 181 149
3 149 181 182
3 149 182 151
3 151 182 183
3 151 183 153
3 153 183 184
3 155 185 157
3 157 185 186
3 157 186 159
3 159 186 187
3 161 188 163
3 163 188 189
3 163 189 165
3 165 189 190
3 167 191 169
3 169 191 192
3 169 192 171
3 171 192 193
3 172 194 43
3 90 195 174
3 174 195 196
3 174 196 175
3 175 196 197
3 175 197 176
3 176 197 198
3 176 198 177
3 177 198 199
3 177 199 178
3 178 199 200
3 178 200 179
3 179 200 201
3 179 201 180
3 180 201 202
3 180 202 181
3 181 202 203
3 181 203 182
3 182 203 204
3 182 204 183
3 183 204 205
3 183 205 184
3 184 205 206
3 185 207 186
3 186 207 208
3 186 208 187
3 187 208 209
3 188 210 189
3 189 210 211
3 189 211 190
3 190 211 212
3 191 213 192
3 192 213 214
3 192 214 193
3 193 214 215
3 194 216 43
3 196 217 218
3 196 218 197
3 197 218 219
3 197 219 198
3 198 219 220
3 198 220 199
3 199 220 221
3 199 221 200
3 200 221 222
3 200 222 201
3 201 222 223
3 201 223 202
3 202 223 224
3 202 224 203
3 203 224 225
3 203 225 204
3 204 225 226
3 204 226 205
3 205 226 227
3 205 227 206
3 206 227 228
3 207 229 208
3 208 229 230
3 208 230 209
3 209 230 231
3 210 232 211
3 211 232 233
3 211 233 212
3 212 233 234
3 213 235 214
3 214 235 236
3 214 236 215
3 215 236 237
3 216 238 43
3 43 238 239
3 218 217 240
3 218 240 219
3 219 240 241
3 219 241 220
3 220 241 242
3 220 242 221
3 221 242 243
3 221 243 222
3 222 243 244
3 222 244 223
3 223 244 245
3 223 245 224
3 224 245 246
3 224 246 225
3 225 246 247
3 225 247 226
3 226 247 248
3 226 248 227
3 227 248 249
3 227 249 228
3 228 249 250
3 229 251 230
3 230 251 252
3 230 252 231
3 231 252 253
3 232 254 233
3 233 254 255
3 233 255 234
3 234 255 256
3 235 257 236
3 236 257 258
3 236 258 237
3 237 258 259
3 238 260 239
3 239 260 261
3 217 262 263
3 263 262 264
3 263 264 265
3 265 264 266
3 265 266 267
3 267 266 268
3 267 268 269
3 269 268 270
3 269 270 271
3 271 270 272
3 271 272 273
3 273 272 274
3 273 274 275
3 275 274 276
3 275 276 277
3 277 276 278
3 277 278 279
3 279 278 280
3 279 280 281
3 281 280 282
3 281 282 283
3 283 282 284
3 285 286 252
3 252 286 287
3 252 287 253
3 253 287 288
3 254 289 290
3 290 289 291
3 290 291 256
3 256 291 292
3 257 293 294
3 294 293 295
3 294 295 259
3 259 295 296
3 297 298 239
3 262 1 264
3 264 1 299
3 264 299 266
3 266 299 300
3 266 300 268
3 268 300 301
3 268 301 270
3 270 301 302
3 270 302 272
3 272 302 303
3 272 303 274
3 274 303 304
3 274 304 276
3 276 304 305
3 276 305 278
3 278 305 306
3 278 306 280
3 280 306 307
3 280 307 282
3 282 307 308
3 282 308 284
3 284 308 309
3 286 310 287
3 287 310 311
3 287 311 288
3 288 311 312
3 289 313 291
3 291 313 314
3 291 314 292
3 292 314 315
3 293 316 295
3 295 316 317
3 295 317 296
3 296 317 318
3 298 319 239
3 239 319 43
3 1 262 299
3 299 262 320
3 299 320 300
3 300 320 321
3 300 321 301
3 301 321 322
3 301 322 302
3 302 322 323
3 302 323 303
3 303 323 324
3 303 324 304
3 304 324 325
3 304 325 305
3 305 325 326
3 305 326 306
3 306 326 327
3 306 327 307
3 307 327 328
3 307 328 308
3 308 328 329
3 308 329 309
3 309 329 330
3 310 331 311
3 311 331 332
3 311 332 312
3 312 332 333
3 313 334 314
3 314 334 335
3 314 335 315
3 315 335 336
3 316 337 317
3 317 337 338
3 317 338 318
3 318 338 339
3 319 340 43
3 43 340 261
3 341 217 342
3 342 217 343
3 342 343 344
3 344 343 345
3 344 345 346
3 346 345 347
3 346 347 348
3 348 347 349
3 348 349 350
3 350 349 351
3 350 351 352
3 352 351 353
3 352 353 354
3 354 353 355
3 354 355 327
3 327 355 356
3 327 356 357
3 357 356 358
3 357 358 359
3 359 358 360
3 359 360 361
3 361 360 362
3 363 364 365
3 365 364 366
3 365 366 367
3 367 366 368
3 334 369 370
3 370 369 371
3 370 371 372
3 372 371 373
3 374 375 376
3 376 375 377
3 376 377 378
3 378 377 379
3 380 381 382
3 382 381 383
3 343 217 384
3 343 384 345
3 345 384 385
3 345 385 347
3 347 385 386
3 347 386 349
3 349 386 387
3 349 387 351
3 351 387 388
3 351 388 353
3 353 388 389
3 353 389 355
3 355 389 390
3 355 390 356
3 356 390 391
3 356 391 358
3 358 391 392
3 358 392 360
3 360 392 393
3 360 393 362
3 362 393 394
3 364 395 366
3 366 395 396
3 366 396 368
3 368 396 397
3 369 398 371
3 371 398 399
3 371 399 373
3 373 399 400
3 375 401 377
3 377 401 402
3 377 402 379
3 379 402 403
3 381 404 383
3 383 404 239
3 217 262 405
3 405 262 406
3 405 406 407
3 407 406 408
3 407 408 409
3 409 408 410
3 409 410 411
3 411 410 412
3 411 412 413
3 413 412 414
3 413 414 389
3 389 414 415
3 389 415 416
3 416 415 417
3 416 417 418
3 418 417 419
3 418 419 420
3 420 419 421
3 420 421 422
3 422 421 423
3 422 423 394
3 394 423 424
3 425 426 427
3 427 426 428
3 427 428 397
3 397 428 429
3 398 430 431
3 431 430 432
3 431 432 433
3 433 432 434
3 435 436 437
3 437 436 438
3 437 438 403
3 403 438 439
3 404 440 441
3 441 440 239
3 406 217 442
3 406 442 408
3 408 442 443
3 408 443 410
3 410 443 444
3 410 444 412
3 412 444 445
3 412 445 414
3 414 445 446
3 414 446 415
3 415 446 447
3 415 447 417
3 417 447 448
3 417 448 419
3 419 448 449
3 419 449 421
3 421 449 450
3 421 450 423
3 423 450 451
3 423 451 424
3 424 451 452
3 426 453 428
3 428 453 454
3 428 454 429
3 429 454 455
3 430 456 432
3 432 456 457
3 432 457 434
3 434 457 458
3 436 459 438
3 438 459 460
3 438 460 439
3 439 460 461
3 440 462 239
3 239 462 173
3 442 195 463
3 442 463 443
3 443 463 464
3 443 464 444
3 444 464 465
3 444 465 445
3 445 465 466
3 445 466 446
3 446 466 467
3 446 467 447
3 447 467 468
3 447 468 448
3 448 468 469
3 448 469 449
3 449 469 470
3 449 470 450
3 450 470 471
3 450 471 451
3 451 471 472
3 451 472 452
3 452 472 473
3 453 474 454
3 454 474 475
3 454 475 455
3 455 475 476
3 456 477 457
3 457 477 478
3 457 478 458
3 458 478 479
3 459 480 460
3 460 480 481
3 460 481 461
3 461 481 482
3 462 483 173
3 173 483 43
3 1 67 484
3 484 67 485
3 484 485 486
3 486 485 487
3 486 487 465
3 465 487 488
3 465 488 466
3 466 488 489
3 466 489 490
3 490 489 491
3 490 491 492
3 492 491 493
3 492 493 494
3 494 493 495
3 494 495 496
3 496 495 497
3 496 497 498
3 498 497 499
3 498 499 500
3 500 499 501
3 500 501 502
3 502 501 503
3 504 505 506
3 506 505 507
3 506 507 508
3 508 507 509
3 510 511 512
3 512 511 513
3 512 513 514
3 514 513 515
3 480 516 517
3 517 516 518
3 517 518 519
3 519 518 520
3 521 522 239
3 239 522 89
3 67 1 485
3 485 1 523
3 485 523 487
3 487 523 524
3 487 524 488
3 488 524 525
3 488 525 489
3 489 525 526
3 489 526 491
3 491 526 527
3 491 527 493
3 493 527 528
3 493 528 495
3 495 528 529
3 495 529 497
3 497 529 530
3 497 530 499
3 499 530 531
3 499 531 501
3 501 531 532
3 501 532 503
3 503 532 533
3 505 534 507
3 507 534 535
3 507 535 509
3 509 535 536
3 511 537 513
3 513 537 538
3 513 538 515
3 515 538 539
3 516 540 518
3 518 540 541
3 518 541 520
3 520 541 542
3 522 543 89
3 89 543 134
3 1 217 523
3 523 217 544
3 523 544 524
3 524 544 545
3 524 545 525
3 525 545 546
3 525 546 526
3 526 546 547
3 526 547 527
3 527 547 548
3 527 548 528
3 528 548 549
3 528 549 529
3 529 549 550
3 529 550 530
3 530 550 551
3 530 551 531
3 531 551 552
3 531 552 532
3 532 552 553
3 532 553 533
3 533 553 554
3 534 555 535
3 535 555 556
3 535 556 536
3 536 556 557
3 537 558 538
3 538 558 559
3 538 559 539
3 539 559 560
3 540 561 541
3 541 561 562
3 541 562 542
3 542 562 563
3 543 564 134
3 134 564 261
3 1 565 566
3 566 565 567
3 566 567 568
3 568 567 569
3 568 569 570
3 570 569 571
3 570 571 547
3 547 571 572
3 547 572 573
3 573 572 574
3 573 574 575
3 575 574 576
3 575 576 577
3 577 576 578
3 577 578 579
3 579 578 580
3 579 580 581
3 581 580 582
3 581 582 583
3 583 582 584
3 583 584 585
3 585 584 586
3 587 588 589
3 589 588 590
3 589 590 591
3 591 590 592
3 593 594 559
3 559 594 595
3 559 595 596
3 596 595 597
3 598 599 600
3 600 599 601
3 600 601 602
3 602 601 603
3 604 605 606
3 606 605 607
3 565 608 567
3 567 608 609
3 567 609 569
3 569 609 610
3 569 610 571
3 571 610 611
3 571 611 572
3 572 611 612
3 572 612 574
3 574 612 613
3 574 613 576
3 576 613 614
3 576 614 578
3 578 614 615
3 578 615 580
3 580 615 616
3 580 616 582
3 582 616 617
3 582 617 584
3 584 617 618
3 584 618 586
3 586 618 619
3 588 620 590
3 590 620 621
3 590 621 592
3 592 621 622
3 594 623 595
3 595 623 624
3 595 624 597
3 597 624 625
3 599 626 601
3 601 626 627
3 601 627 603
3 603 627 628
3 605 629 607
3 607 629 134
3 608 1 609
3 609 1 630
3 609 630 610
3 610 630 631
3 610 631 611
3 611 631 632
3 611 632 612
3 612 632 633
3 612 633 613
3 613 633 634
3 613 634 614
3 614 634 635
3 614 635 615
3 615 635 636
3 615 636 616
3 616 636 637
3 616 637 617
3 617 637 638
3 617 638 618
3 618 638 639
3 618 639 619
3 619 639 640
3 620 641 621
3 621 641 642
3 621 642 622
3 622 642 643
3 623 644 624
3 624 644 645
3 624 645 625
3 625 645 646
3 626 647 627
3 627 647 648
3 627 648 628
3 628 648 649
3 629 650 134
3 134 650 651
3 630 1 652
3 630 652 631
3 631 652 653
3 631 653 632
3 632 653 654
3 632 654 633
3 633 654 655
3 633 655 634
3 634 655 656
3 634 656 635
3 635 656 657
3 635 657 636
3 636 657 658
3 636 658 637
3 637 658 659
3 637 659 638
3 638 659 660
3 638 660 639
3 639 660 661
3 639 661 640
3 640 661 662
3 641 663 642
3 642 663 664
3 642 664 643
3 643 664 665
3 644 666 645
3 645 666 667
3 645 667 646
3 646 667 668
3 647 669 648
3 648 669 670
3 648 670 649
3 649 670 671
3 650 672 651
3 651 672 43
3 673 67 674
3 674 67 675
3 674 675 676
3 676 675 677
3 676 677 678
3 678 677 679
3 678 679 680
3 680 679 681
3 680 681 682
3 682 681 683
3 682 683 684
3 684 683 685
3 684 685 686
3 686 685 687
3 686 687 688
3 688 687 689
3 688 689 660
3 660 689 690
3 660 690 691
3 691 690 692
3 691 692 693
3 693 692 694
3 695 696 664
3 664 696 697
3 664 697 698
3 698 697 699
3 700 701 702
3 702 701 703
3 702 703 704
3 704 703 705
3 706 707 708
3 708 707 709
3 708 709 671
3 671 709 710
3 711 712 44
3 44 712 43
3 67 217 675
3 675 217 713
3 675 713 677
3 677 713 714
3 677 714 679
3 679 714 715
3 679 715 681
3 681 715 716
3 681 716 683
3 683 716 717
3 683 717 685
3 685 717 718
3 685 718 687
3 687 718 719
3 687 719 689
3 689 719 720
3 689 720 690
3 690 720 721
3 690 721 692
3 692 721 722
3 692 722 694
3 694 722 723
3 696 724 697
3 697 724 725
3 697 725 699
3 699 725 726
3 701 727 703
3 703 727 728
3 703 728 705
3 705 728 729
3 707 730 709
3 709 730 731
3 709 731 710
3 710 731 732
3 712 733 43
3 43 733 383
3 217 734 713
3 713 734 735
3 713 735 714
3 714 735 736
3 714 736 715
3 715 736 737
3 715 737 716
3 716 737 738
3 716 738 717
3 717 738 739
3 717 739 718
3 718 739 740
3 718 740 719
3 719 740 741
3 719 741 720
3 720 741 742
3 720 742 721
3 721 742 743
3 721 743 722
3 722 743 744
3 722 744 723
3 723 744 745
3 724 746 725
3 725 746 747
3 725 747 726
3 726 747 748
3 727 749 728
3 728 749 750
3 728 750 729
3 729 750 751
3 730 752 731
3 731 752 753
3 731 753 732
3 732 753 754
3 733 755 383
3 383 755 89
3 734 262 735
3 735 262 756
3 735 756 736
3 736 756 757
3 736 757 737
3 737 757 758
3 737 758 738
3 738 758 759
3 738 759 739
3 739 759 760
3 739 760 740
3 740 760 761
3 740 761 741
3 741 761 762
3 741 762 742
3 742 762 763
3 742 763 743
3 743 763 764
3 743 764 744
3 744 764 765
3 744 765 745
3 745 765 766
3 746 767 747
3 747 767 768
3 747 768 748
3 748 768 769
3 749 770 750
3 750 770 771
3 750 771 751
3 751 771 772
3 752 773 753
3 753 773 774
3 753 774 754
3 754 774 775
3 755 776 89
3 89 776 441
3 262 777 756
3 756 777 778
3 756 778 757
3 757 778 779
3 757 779 758
3 758 779 780
3 758 780 759
3 759 780 781
3 759 781 760
3 760 781 782
3 760 782 761
3 761 782 783
3 761 783 762
3 762 783 784
3 762 784 763
3 763 784 785
3 763 785 764
3 764 785 786
3 764 786 765
3 765 786 787
3 765 787 766
3 766 787 788
3 767 789 768
3 768 789 790
3 768 790 769
3 769 790 791
3 770 792 771
3 771 792 793
3 771 793 772
3 772 793 794
3 773 795 774
3 774 795 796
3 774 796 775
3 775 796 797
3 776 798 441
3 441 798 173
3 1 799 800
3 800 799 801
3 800 801 779
3 779 801 802
3 779 802 803
3 803 802 804
3 803 804 805
3 805 804 806
3 805 806 807
3 807 806 808
3 807 808 809
3 809 808 810
3 809 810 784
3 784 810 811
3 784 811 785
3 785 811 812
3 785 812 813
3 813 812 814
3 813 814 815
3 815 814 816
3 815 816 817
3 817 816 818
3 789 819 820
3 820 819 821
3 820 821 791
3 791 821 822
3 823 824 793
3 793 824 825
3 793 825 826
3 826 825 827
3 828 829 796
3 796 829 830
3 796 830 831
3 831 830 832
3 798 833 607
3 607 833 43
3 799 45 801
3 801 45 834
3 801 834 802
3 802 834 835
3 802 835 804
3 804 835 836
3 804 836 806
3 806 836 837
3 806 837 808
3 808 837 838
3 808 838 810
3 810 838 839
3 810 839 811
3 811 839 840
3 811 840 812
3 812 840 841
3 812 841 814
3 814 841 842
3 814 842 816
3 816 842 843
3 816 843 818
3 818 843 844
3 819 845 821
3 821 845 846
3 821 846 822
3 822 846 847
3 824 848 825
3 825 848 849
3 825 849 827
3 827 849 850
3 829 851 830
3 830 851 852
3 830 852 832
3 832 852 853
3 833 854 43
3 45 217 834
3 834 217 855
3 834 855 835
3 835 855 856
3 835 856 836
3 836 856 857
3 836 857 837
3 837 857 858
3 837 858 838
3 838 858 859
3 838 859 839
3 839 859 860
3 839 860 840
3 840 860 861
3 840 861 841
3 841 861 862
3 841 862 842
3 842 862 863
3 842 863 843
3 843 863 864
3 843 864 844
3 844 864 865
3 845 866 846
3 846 866 867
3 846 867 847
3 847 867 868
3 848 869 849
3 849 869 870
3 849 870 850
3 850 870 871
3 851 872 852
3 852 872 873
3 852 873 853
3 853 873 874
3 854 875 43
3 217 195 855
3 855 195 876
3 855 876 856
3 856 876 877
3 856 877 857
3 857 877 878
3 857 878 858
3 858 878 879
3 858 879 859
3 859 879 880
3 859 880 860
3 860 880 881
3 860 881 861
3 861 881 882
3 861 882 862
3 862 882 883
3 862 883 863
3 863 883 884
3 863 884 864
3 864 884 885
3 864 885 865
3 865 885 886
3 866 887 867
3 867 887 888
3 867 888 868
3 868 888 889
3 869 890 870
3 870 890 891
3 870 891 871
3 871 891 892
3 872 893 873
3 873 893 894
3 873 894 874
3 874 894 895
3 875 896 43
3 195 217 876
3 876 217 897
3 876 897 877
3 877 897 898
3 877 898 878
3 878 898 899
3 878 899 879
3 879 899 900
3 879 900 880
3 880 900 901
3 880 901 881
3 881 901 902
3 881 902 882
3 882 902 903
3 882 903 883
3 883 903 904
3 883 904 884
3 884 904 905
3 884 905 885
3 885 905 906
3 885 906 886
3 886 906 907
3 887 908 888
3 888 908 909
3 888 909 889
3 889 909 910
3 890 911 891
3 891 911 912
3 891 912 892
3 892 912 913
3 893 914 894
3 894 914 915
3 894 915 895
3 895 915 916
3 896 917 173
3 173 917 383
3 195 1 918
3 918 1 919
3 918 919 920
3 920 919 921
3 920 921 922
3 922 921 923
3 922 923 924
3 924 923 925
3 924 925 926
3 926 925 927
3 926 927 928
3 928 927 929
3 928 929 930
3 930 929 931
3 930 931 932
3 932 931 933
3 932 933 934
3 934 933 935
3 934 935 936
3 936 935 937
3 936 937 938
3 938 937 939
3 940 941 942
3 942 941 943
3 942 943 944
3 944 943 945
3 946 947 948
3 948 947 949
3 948 949 913
3 913 949 950
3 914 951 952
3 952 951 953
3 952 953 916
3 916 953 954
3 917 955 441
3 441 955 607
3 1 112 919
3 919 112 956
3 919 956 921
3 921 956 957
3 921 957 923
3 923 957 958
3 923 958 925
3 925 958 959
3 925 959 927
3 927 959 960
3 927 960 929
3 929 960 961
3 929 961 931
3 931 961 962
3 931 962 933
3 933 962 963
3 933 963 935
3 935 963 964
3 935 964 937
3 937 964 965
3 937 965 939
3 939 965 966
3 941 967 943
3 943 967 968
3 943 968 945
3 945 968 969
3 947 970 949
3 949 970 971
3 949 971 950
3 950 971 972
3 951 973 953
3 953 973 974
3 953 974 954
3 954 974 975
3 955 976 607
3 607 976 651
3 112 45 956
3 956 45 977
3 956 977 957
3 957 977 978
3 957 978 958
3 958 978 979
3 958 979 959
3 959 979 980
3 959 980 960
3 960 980 981
3 960 981 961
3 961 981 982
3 961 982 962
3 962 982 983
3 962 983 963
3 963 983 984
3 963 984 964
3 964 984 985
3 964 985 965
3 965 985 986
3 965 986 966
3 966 986 987
3 967 988 968
3 968 988 989
3 968 989 969
3 969 989 990
3 970 991 971
3 971 991 992
3 971 992 972
3 972 992 993
3 973 994 974
3 974 994 995
3 974 995 975
3 975 995 996
3 976 997 651
3 651 997 43
3 45 673 977
3 977 673 998
3 977 998 978
3 978 998 999
3 978 999 979
3 979 999 1000
3 979 1000 980
3 980 1000 1001
3 980 1001 981
3 981 1001 1002
3 981 1002 982
3 982 1002 1003
3 982 1003 983
3 983 1003 1004
3 983 1004 984
3 984 1004 1005
3 984 1005 985
3 985 1005 1006
3 985 1006 986
3 986 1006 1007
3 986 1007 987
3 987 1007 1008
3 988 1009 989
3 989 1009 1010
3 989 1010 990
3 990 1010 1011
3 991 1012 992
3 992 1012 1013
3 992 1013 993
3 993 1013 1014
3 994 1015 995
3 995 1015 1016
3 995 1016 996
3 996 1016 1017
3 997 1018 43
3 673 777 998
3 998 777 1019
3 998 1019 999
3 999 1019 1020
3 999 1020 1000
3 1000 1020 1021
3 1000 1021 1001
3 1001 1021 1022
3 1001 1022 1002
3 1002 1022 1023
3 1002 1023 1003
3 1003 1023 1024
3 1003 1024 1004
3 1004 1024 1025
3 1004 1025 1005
3 1005 1025 1026
3 1005 1026 1006
3 1006 1026 1027
3 1006 1027 1007
3 1007 1027 1028
3 1007 1028 1008
3 1008 1028 1029
3 1009 1030 1010
3 1010 1030 1031
3 1010 1031 1011
3 1011 1031 1032
3 1012 1033 1013
3 1013 1033 1034
3 1013 1034 1014
3 1014 1034 1035
3 1015 1036 1016
3 1016 1036 1037
3 1016 1037 1017
3 1017 1037 1038
3 1018 1039 43
3 43 1039 1040
3 777 1 1019
3 1019 1 1041
3 1019 1041 1020
3 1020 1041 1042
3 1020 1042 1021
3 1021 1042 1043
3 1021 1043 1022
3 1022 1043 1044
3 1022 1044 1023
3 1023 1044 1045
3 1023 1045 1024
3 1024 1045 1046
3 1024 1046 1025
3 1025 1046 1047
3 1025 1047 1026
3 1026 1047 1048
3 1026 1048 1027
3 1027 1048 1049
3 1027 1049 1028
3 1028 1049 1050
3 1028 1050 1029
3 1029 1050 1051
3 1030 1052 1031
3 1031 1052 1053
3 1031 1053 1032
3 1032 1053 1054
3 1033 1055 1034
3 1034 1055 1056
3 1034 1056 1035
3 1035 1056 1057
3 1036 1058 1037
3 1037 1058 1059
3 1037 1059 1038
3 1038 1059 1060
3 1039 1061 1040
3 1040 1061 1062
3 341 1 1063
3 1063 1 1064
3 1063 1064 1065
3 1065 1064 1066
3 1065 1066 1043
3 1043 1066 1067
3 1043 1067 1068
3 1068 1067 1069
3 1068 1069 1070
3 1070 1069 1071
3 1070 1071 1072
3 1072 1071 1073
3 1072 1073 1074
3 1074 1073 1075
3 1074 1075 1076
3 1076 1075 1077
3 1076 1077 1078
3 1078 1077 1079
3 1078 1079 1080
3 1080 1079 1081
3 1080 1081 1051
3 1051 1081 1082
3 1052 1083 1084
3 1084 1083 1085
3 1084 1085 1086
3 1086 1085 1087
3 1088 1089 1090
3 1090 1089 1091
3 1090 1091 1092
3 1092 1091 1093
3 1094 1095 1059
3 1059 1095 1096
3 1059 1096 1097
3 1097 1096 1098
3 1099 1100 606
3 606 1100 173
3 1064 1 0
3 1064 0 1066
3 1066 0 3
3 1066 3 1067
3 1067 3 5
3 1067 5 1069
3 1069 5 7
3 1069 7 1071
3 1071 7 9
3 1071 9 1073
3 1073 9 11
3 1073 11 1075
3 1075 11 13
3 1075 13 1077
3 1077 13 15
3 1077 15 1079
3 1079 15 17
3 1079 17 1081
3 1081 17 19
3 1081 19 1082
3 1082 19 21
3 1083 23 1085
3 1085 23 25
3 1085 25 1087
3 1087 25 27
3 1089 29 1091
3 1091 29 31
3 1091 31 1093
3 1093 31 33
3 1095 35 1096
3 1096 35 37
3 1096 37 1098
3 1098 37 39
3 1100 41 173
