# vtk DataFile Version 2.0
File written by itkPolyDataMeshIO
ASCII
DATASET POLYDATA
POINTS 1360 float
10.643074 20.910774 278.7341
10.643059 20.910774 278.7341
15.605156 19.565437 275.7861
14.874474 21.574959 274.70462
18.093285 20.54406 276.1929
17.551521 22.717308 275.1755
21.405754 21.574028 276.75833
20.999443 23.631844 275.87247
25.274773 23.53733 277.5131
24.550423 25.149254 276.76324
27.331657 25.014107 277.5926
26.225685 26.127724 276.9931
27.331642 25.014107 277.59256
26.225685 26.127724 276.99313
28.476036 25.770973 276.8412
27.313652 26.644356 276.2275
29.935646 26.485558 275.61142
28.834435 27.310616 274.90753
31.439339 27.203804 274.2424
30.30323 28.038948 273.50534
32.939857 27.985115 272.8673
31.712273 28.838615 272.10864
31.712273 28.838615 272.1086
34.521812 29.028801 271.52963
33.19552 29.872322 270.75604
36.10247 30.29319 270.38712
34.747932 31.11718 269.57803
37.83541 31.708458 269.5578
36.608177 32.508736 268.64944
39.546486 33.280235 268.8289
38.473534 34.01754 267.93344
40.88096 35.06202 267.8611
39.848946 35.61962 267.20792
42.06214 36.832787 266.723
41.08596 37.144157 266.2343
43.4775 38.44996 265.2554
42.591515 38.701546 264.74048
45.242867 40.128136 263.49146
44.453606 40.37316 262.94507
47.905693 41.625725 261.78073
47.273445 41.882317 261.09378
47.905693 41.62571 261.7807
47.27343 41.8823 261.09375
51.5095 43.13514 260.06882
50.993446 43.4004 259.27533
55.293266 44.848656 258.14325
54.76458 45.108498 257.36008
58.51232 46.8601 256.20776
57.915764 47.100243 255.49025
60.964363 48.865013 254.46992
60.310265 49.091225 253.8139
62.753487 50.543007 252.87659
62.03913 50.768745 252.29126
64.034355 51.787193 251.30678
63.261787 52.023308 250.80693
65.10372 52.622353 249.64656
64.305016 52.873726 249.21002
66.03683 53.37017 247.66052
65.226494 53.62194 247.33957
66.68304 54.294014 245.40565
65.87029 54.528618 245.24643
67.35595 55.215416 243.33865
66.58294 55.437675 243.1712
68.41082 56.083244 241.51578
67.68612 56.30126 241.21686
69.71252 57.018578 239.92294
69.05688 57.22988 239.5258
71.2709 57.87452 238.75711
70.77111 58.07569 238.25844
73.09307 58.556953 237.79538
72.731285 58.74436 237.26369
75.10256 59.172325 236.65173
74.74868 59.355583 236.12982
77.154015 59.721046 235.52122
76.81048 59.905968 234.98915
79.14495 60.178993 234.3221
78.78701 60.3648 233.80417
80.98034 60.519386 232.90512
80.57659 60.704765 232.43199
80.98034 60.5194 232.90514
80.57659 60.704796 232.43199
82.70251 60.80497 231.26486
82.2589 60.989372 230.83496
84.379295 61.10691 229.48943
83.91546 61.290215 229.08458
85.97588 61.48757 227.67223
85.50933 61.665184 227.29895
87.33712 62.06202 225.7449
86.90389 62.215004 225.46733
88.369774 62.814964 223.64784
87.97866 62.93833 223.49007
89.01443 63.430473 221.46729
88.62701 63.54603 221.3893
89.16772 63.717964 219.21251
88.76879 63.8375 219.20488
89.19576 64.11297 216.91411
88.79763 64.22878 216.92276
89.72668 65.23101 214.98273
89.36434 65.32967 214.92056
90.60192 67.040184 213.78323
90.31283 67.120964 213.6908
91.0205 68.63497 213.59418
10.643074 20.910774 278.73407
14.40107 22.604042 274.53445
17.21209 23.809364 275.07602
20.754234 24.668007 275.81256
24.176216 25.985146 276.70947
25.719933 26.802513 276.9288
25.719933 26.802528 276.92877
26.80877 27.265053 276.09982
28.348274 27.918098 274.72784
29.79078 28.65461 273.3213
31.14457 29.467857 271.93277
31.14457 29.467857 271.93274
32.558556 30.49421 270.59665
34.0772 31.724617 269.4132
35.978188 33.098747 268.42722
37.913383 34.563423 267.69562
39.324318 36.055687 267.05963
40.5879 37.44918 266.12973
42.13285 38.97509 264.6028
44.04354 40.640587 262.7775
46.93766 42.16239 260.8393
50.709984 43.68995 258.95905
54.470924 45.392097 257.0514
57.579308 47.362343 255.22414
59.94181 49.33808 253.58629
61.650337 51.015053 252.10207
62.864845 52.280968 250.6545
63.91848 53.14805 249.07207
64.850426 53.89672 247.24496
65.500145 54.784645 245.22932
66.22793 55.6802 243.15118
67.341606 56.539177 241.13658
68.733665 57.460472 239.40031
70.51754 58.29522 238.07195
72.54656 58.948845 237.04791
74.567924 59.55555 235.91728
76.63592 60.10778 234.7705
78.61144 60.56762 233.58948
80.387474 60.907112 232.23508
80.387505 60.907127 232.23509
82.05544 61.190666 230.65677
83.70275 61.49032 228.91873
85.29458 61.859016 227.14868
86.70498 62.38195 225.36041
87.79989 63.07293 223.43872
88.45211 63.672142 221.37177
88.59313 63.967995 219.21036
88.6202 64.355125 216.94032
89.19259 65.43258 214.92451
90.16433 67.192924 213.68797
13.919533 23.511574 274.63443
16.867332 24.777153 275.25742
20.511086 25.586403 276.0118
23.847725 26.730934 276.87393
25.33593 27.43705 277.0295
26.453407 27.880943 276.1131
28.00045 28.529732 274.69467
29.416267 29.274788 273.29248
30.719704 30.101677 271.9227
30.719704 30.101677 271.92267
32.065407 31.120613 270.61514
33.54435 32.336494 269.4352
35.46325 33.693077 268.39835
37.449516 35.114647 267.6404
38.896385 36.509407 267.05737
40.17547 37.80021 266.14075
41.74729 39.30175 264.574
43.697777 40.96038 262.71442
46.64965 42.497307 260.69363
46.649635 42.49729 260.69363
50.460594 44.0362 258.7569
54.21055 45.73127 256.85715
57.277824 47.67576 255.0715
59.611885 49.633247 253.47057
61.310707 51.30961 252.01987
62.53321 52.589104 250.59811
63.611748 53.47608 249.01556
64.56365 54.225258 247.21371
65.22323 55.090736 245.25905
65.960014 55.970192 243.17934
67.072716 56.82366 241.11931
68.472984 57.736168 239.34882
70.30785 58.55773 237.96347
72.39303 59.193398 236.90665
74.417625 59.794685 235.77748
76.49142 60.3491 234.625
78.47036 60.810158 233.4451
80.241875 61.14913 232.10199
80.241905 61.149147 232.102
81.902 61.43136 230.53688
83.54244 61.729546 228.8088
85.13213 62.09075 227.05136
86.55483 62.581535 225.29536
87.66555 63.23394 223.41606
88.32247 63.82293 221.37248
88.46633 64.123955 219.2213
88.49044 64.50616 216.96388
89.05929 65.553795 214.95174
90.04418 67.27178 213.71538
10.643089 20.910774 278.7341
13.383797 24.405937 274.9687
16.490746 25.719872 275.68362
20.250511 26.480766 276.4393
23.534431 27.45591 277.22937
25.040611 28.055733 277.2696
26.22242 28.485878 276.24142
27.771141 29.1325 274.78052
29.160576 29.886024 273.38953
30.418617 30.726357 272.04657
30.418617 30.726357 272.04654
31.69825 31.737984 270.7768
33.133568 32.939537 269.60742
35.051582 34.27883 268.52597
37.072655 35.65902 267.73343
38.55445 36.968407 267.1727
39.838646 38.181847 266.24402
41.426598 39.66532 264.6326
43.409126 41.31658 262.7358
46.404564 42.870293 260.63733
46.40455 42.870277 260.6373
50.242653 44.42179 258.6493
53.981133 46.10903 256.75757
57.0093 48.02485 255.012
59.31826 49.96203 253.4461
61.015984 51.637688 252.02444
62.25924 52.932304 250.61934
63.373802 53.84147 249.02502
64.3529 54.59121 247.23361
65.02529 55.43168 245.32559
65.766075 56.29313 243.24545
66.868645 57.14054 241.15263
68.26647 58.043297 239.3573
70.13674 58.850136 237.91917
72.26696 59.465767 236.82724
74.29415 60.060997 235.69809
76.373344 60.617897 234.54033
78.359245 61.0803 233.35925
80.13348 61.41868 232.02205
80.13351 61.418694 232.02205
81.79104 61.699425 230.46553
83.4266 61.995995 228.74536
85.01418 62.3489 226.99792
86.44616 62.803886 225.26485
87.56893 63.41326 223.41669
88.23104 63.990913 221.38774
88.38064 64.29772 219.23643
88.4009 64.67437 216.99187
88.95898 65.68746 214.99721
89.94637 67.355675 213.7661
91.0205 68.63497 213.5942
10.643059 20.910774 278.73407
12.792641 25.272057 275.57104
16.082726 26.625237 276.37668
19.97268 27.339836 277.11478
23.235695 28.153206 277.78802
24.831047 28.65017 277.6466
24.831032 28.650185 277.6466
26.113472 29.064827 276.4752
27.660316 29.708214 274.97546
29.024483 30.46981 273.60178
30.243263 31.323006 272.29248
30.243263 31.32299 272.29248
31.46096 32.327675 271.0678
32.850273 33.515526 269.91556
34.74978 34.83831 268.79675
36.789696 36.179405 267.9627
38.308617 37.411934 267.3922
39.597206 38.56199 266.42355
41.19233 40.03086 264.76532
43.197212 41.67478 262.83185
46.21955 43.245415 260.66672
46.21955 43.245415 260.6667
50.072044 44.809624 258.6366
53.79966 46.488914 256.7523
56.79389 48.375923 255.04198
59.082954 50.29267 253.5064
60.787483 51.967613 252.10721
62.061226 53.27746 250.709
63.218773 54.208916 249.09337
64.22927 54.959236 247.29808
64.91607 55.77456 245.41974
65.65591 56.617958 243.34018
66.7409 57.45922 241.22893
68.126976 58.352165 239.41939
70.01531 59.144173 237.93677
72.17666 59.73963 236.81068
74.20565 60.328835 235.6803
76.28942 60.88819 234.51807
78.28484 61.351936 233.33382
80.06814 61.689705 231.99713
80.06817 61.68972 231.99715
81.72823 61.96897 230.44435
83.361046 62.26394 228.72954
84.94671 62.608482 226.98888
86.38445 63.02746 225.26819
87.514854 63.593575 223.43828
88.18221 64.15981 221.4148
88.33953 64.472466 219.25401
88.3554 64.84356 217.02142
88.89654 65.8214 215.05577
89.874535 67.43905 213.83568
91.02047 68.63497 213.59418
10.643089 20.91079 278.7341
12.792656 25.272072 275.571
12.156548 26.062202 276.49612
16.082726 26.625252 276.37668
15.647285 27.45652 277.38583
19.972694 27.339851 277.11478
19.6809 28.12922 278.08267
23.23571 28.15319 277.78802
22.957588 28.799599 278.5822
24.831047 28.650185 277.64664
24.705467 29.216759 278.17032
24.831047 28.650185 277.6466
26.113487 29.064827 276.4752
26.116493 29.625359 276.80994
27.660301 29.70823 274.97546
27.656334 30.265938 275.27228
28.99601 31.035347 273.9216
30.243263 31.32302 272.29248
30.180626 31.900993 272.65256
30.180626 31.901009 272.65253
31.46096 32.32766 271.0678
31.33944 32.89892 271.4804
32.850273 33.51551 269.91556
32.680046 34.073463 270.3512
34.749794 34.838295 268.79675
34.54476 35.38024 269.2013
36.589638 36.683388 268.31866
38.308617 37.41195 267.3922
38.152718 37.840385 267.70682
39.597206 38.562004 266.42355
39.454994 38.92655 266.668
41.192345 40.03086 264.76535
41.051033 40.380623 264.96167
43.197227 41.674797 262.83188
43.068123 42.01757 262.99374
46.219566 43.24543 260.66672
46.10041 43.60441 260.77573
46.100395 43.604393 260.7757
50.07203 44.80964 258.6366
49.954475 45.180748 258.71417
53.67228 46.852425 256.83636
56.639137 48.711876 255.15506
59.082954 50.292686 253.50641
58.914177 50.609108 253.64381
60.787483 51.96763 252.10722
60.632683 52.283363 252.25983
62.06124 53.27746 250.70901
61.94465 53.60769 250.859
63.21879 54.208916 249.09337
63.149666 54.56048 249.21402
64.22927 54.95925 247.29808
64.19396 55.311424 247.40149
64.9161 55.77459 245.41974
64.89593 56.10273 245.53539
65.65591 56.617973 243.3402
65.63027 56.928764 243.45741
66.7409 57.45922 241.22894
66.69161 57.764107 241.34206
68.05758 58.647697 239.52904
70.01531 59.144157 237.93678
69.94683 59.4255 238.012
72.17666 59.739616 236.8107
72.124565 60.001717 236.85432
74.20568 60.328835 235.68031
74.154564 60.585136 235.72154
76.28942 60.88819 234.51808
76.24181 61.146828 234.5559
78.28484 61.35195 233.33383
78.24874 61.61184 233.3667
80.06817 61.68972 231.99712
80.046684 61.949043 232.02545
80.06817 61.68975 231.99713
80.046684 61.94906 232.02545
81.72823 61.968987 230.44434
81.71389 62.22695 230.47157
83.346275 62.520348 228.75946
84.94671 62.608513 226.98888
84.93023 62.856865 227.0222
86.38445 63.02749 225.26819
86.37014 63.241417 225.30339
87.514854 63.59359 223.43826
87.503624 63.76615 223.47867
88.18218 64.15984 221.4148
88.17599 64.321434 221.45172
88.3395 64.472466 219.25401
88.34264 64.63964 219.2731
88.35543 64.84356 217.02142
88.353905 65.005455 217.05106
88.89657 65.8214 215.05577
88.87228 65.94967 215.1245
89.874565 67.43905 213.83571
89.82845 67.52007 213.92221
10.643074 20.91079 278.73413
11.529381 26.654564 277.77444
15.217613 28.093452 278.7474
19.398766 28.736046 279.37335
22.730827 29.315834 279.6368
24.682472 29.727882 278.85382
26.234581 30.167152 277.2494
27.758904 30.80848 275.67218
29.074577 31.585594 274.35016
30.229897 32.463356 273.1282
31.332512 33.454735 272.01614
32.621544 34.6164 270.9161
34.43502 35.90757 269.74106
36.470894 37.1737 268.80252
38.083168 38.2564 268.1165
39.403984 39.278603 266.97443
40.994194 40.717796 265.21735
43.014244 42.347984 263.21686
46.040916 43.95043 260.9582
46.0409 43.95043 260.9582
49.884865 45.53846 258.87485
53.593773 47.202843 257.00275
56.53916 49.03573 255.34485
58.805473 50.91416 253.85257
60.544533 52.5877 252.47716
61.90203 53.925987 251.06496
63.158882 54.899376 249.38321
64.23937 55.650887 247.54115
64.9573 56.419044 245.67142
65.68197 57.22837 243.5959
66.71389 58.058037 241.48956
68.052055 58.932518 239.68285
69.926414 59.69668 238.14043
72.10723 60.25431 236.9534
74.13744 60.832207 235.81712
76.22729 61.396187 234.6489
78.24761 61.862434 233.45316
80.0653 62.199074 232.10268
80.06533 62.19909 232.10269
81.74398 62.47561 230.54329
83.37786 62.76754 228.83138
84.96029 63.09635 227.09448
86.3991 63.44767 225.36795
87.53155 63.932518 223.53647
88.20876 64.47729 221.49786
88.38625 64.800865 219.29369
88.39263 65.16152 217.08089
88.88311 66.07348 215.20311
89.80746 67.599266 214.02625
10.643059 20.910759 278.7341
11.045753 26.82125 279.32355
14.899086 28.25727 280.37155
19.19857 28.898415 280.89575
22.6352 29.51638 280.88922
24.814629 30.107964 279.68246
24.814629 30.107979 279.68246
26.491676 30.668938 277.8031
27.98774 31.319756 276.1871
29.280464 32.104378 274.90002
30.41314 32.993553 273.7322
31.464226 33.978706 272.6879
32.69935 35.128212 271.6238
34.443 36.404747 270.4315
36.452446 37.636253 269.4293
38.112267 38.65171 268.63043
39.44285 39.61994 267.34494
41.01728 41.046654 265.53238
43.031303 42.670265 263.5006
46.0375 44.28791 261.21262
46.0375 44.287895 261.2126
49.8601 45.887352 259.11642
53.560875 47.54461 257.2493
56.49018 49.351585 255.60973
58.75274 51.21163 254.13158
60.518852 52.88453 252.75851
61.929283 54.23652 251.32652
63.242714 55.229973 249.60046
64.362144 55.981987 247.71681
65.09698 56.727547 245.8282
65.80779 57.52059 243.756
66.8045 58.34475 241.67139
68.10711 59.210365 239.88037
69.95153 59.96122 238.3209
72.122765 60.50074 237.10628
74.15243 61.073174 235.96544
76.24398 61.63935 234.79553
78.279625 62.10679 233.59166
80.122246 62.44291 232.22728
80.12228 62.44291 232.2273
81.81658 62.718178 230.65811
83.45397 63.00863 228.94412
85.03506 63.329887 227.2046
86.4696 63.648827 225.46112
87.59701 64.09472 223.6115
88.27889 64.629234 221.55331
88.468834 64.95803 219.31584
88.470055 65.31368 217.1112
88.92831 66.19387 215.29214
89.81484 67.675835 214.14919
10.643089 20.910805 278.73413
11.045753 26.821266 279.32358
10.845055 26.421684 280.86905
14.899117 28.257286 280.37158
14.80648 27.764091 281.9229
19.198586 28.89843 280.89578
19.157326 28.441338 282.3337
22.635216 29.51638 280.88925
22.747917 29.259804 282.10388
24.814644 30.107994 279.68246
25.160011 30.269676 280.5661
24.814644 30.107994 279.6825
26.491692 30.668953 277.80316
26.922203 31.084312 278.46823
27.987755 31.319786 276.18713
28.371147 31.766167 276.82806
29.28048 32.10441 274.90005
29.643272 32.558098 275.58282
30.413155 32.99357 273.7322
30.762932 33.457253 274.47592
30.413155 32.99357 273.73224
30.762932 33.457237 274.4759
31.464226 33.978737 272.68793
31.770927 34.436974 273.50632
32.699364 35.128242 271.62384
32.951607 35.575844 272.48523
34.443016 36.404778 270.4315
34.604347 36.839546 271.28668
36.45249 37.63627 269.4293
36.56565 38.041435 270.21393
38.11228 38.651726 268.63046
38.265556 39.004692 269.2575
39.44285 39.619957 267.34494
39.58747 39.940407 267.78363
41.017296 41.046684 265.5324
41.132896 41.359947 265.91086
43.03132 42.67031 263.50064
43.13056 42.9775 263.8499
46.037514 44.287926 261.21265
46.09945 44.609642 261.54617
46.037514 44.287926 261.21262
46.09945 44.609627 261.54617
49.860115 45.887367 259.11646
49.887993 46.219933 259.44775
53.560905 47.544624 257.2493
53.581703 47.870384 257.58475
56.49021 49.3516 255.60974
56.501396 49.65267 255.95729
58.752754 51.211647 254.13159
58.76606 51.49523 254.48734
60.518883 52.88456 252.75856
60.566338 53.16752 253.10944
61.9293 54.23655 251.32655
62.037376 54.53254 251.64816
63.242714 55.230003 249.60051
63.411842 55.545097 249.86986
64.362144 55.982018 247.71683
64.57259 56.297615 247.93129
65.09701 56.727577 245.82823
65.32519 57.021614 246.00648
65.80779 57.520622 243.75603
66.0176 57.799156 243.93857
66.80453 58.344765 241.6714
66.972984 58.618034 241.88994
68.10714 59.21041 239.8804
68.231834 59.475273 240.12532
69.95156 59.96125 238.32094
70.0292 60.2134 238.55873
72.122765 60.500755 237.1063
72.1762 60.735634 237.31902
74.15243 61.07319 235.96545
74.20455 61.30288 236.17249
76.24398 61.63935 234.79555
76.29681 61.871147 235.00186
78.279655 62.106804 233.59166
78.349754 62.339745 233.7881
80.12228 62.442924 232.2273
80.22283 62.675377 232.40482
80.12231 62.44294 232.22731
80.22283 62.675392 232.40483
81.81661 62.718193 230.65813
81.93749 62.94938 230.82109
83.454 63.008644 228.94414
83.58053 63.238457 229.10237
85.03512 63.329903 227.20462
85.160545 63.55256 227.3569
86.46963 63.648857 225.46112
86.58721 63.8406 225.58598
87.59704 64.09472 223.61151
87.70507 64.24935 223.70526
88.27892 64.629234 221.55333
88.39147 64.7741 221.61862
88.468864 64.95803 219.31584
88.59536 65.10787 219.33951
88.470055 65.31371 217.11122
88.59121 65.45876 217.14165
88.92834 66.1939 215.29216
89.01339 66.30801 215.3916
89.85848 67.74575 214.2902
91.0205 68.635 213.5942
10.643074 20.91079 278.7341
10.861549 25.711693 282.17978
14.858406 26.977654 283.17346
19.21772 27.701103 283.48245
23.000496 28.740242 283.09436
25.699348 30.191536 281.3759
27.546257 31.304634 279.18686
28.933311 32.04653 277.56534
30.191628 32.844505 276.36685
31.315056 33.750008 275.32208
31.315056 33.750008 275.32205
32.299217 34.72631 274.42664
33.432793 35.858467 273.453
34.97599 37.114082 272.26605
36.862785 38.29943 271.1235
38.583168 39.25141 269.9728
39.864067 40.21482 268.28668
41.36251 41.641884 266.3567
43.33123 43.254387 264.27048
46.24256 44.899605 261.96887
46.24256 44.89959 261.96887
49.98208 46.51969 259.88187
53.67031 48.164024 258.02167
56.589058 49.92402 256.39792
58.863136 51.7508 254.92838
60.70542 53.42254 253.53658
62.244774 54.79931 252.03496
63.683846 55.829094 250.19608
64.887566 56.58204 248.1876
65.65826 57.28666 246.20576
66.32714 58.05024 244.1432
67.234886 58.864357 242.14752
68.44094 59.714012 240.42197
70.171104 60.440666 238.8612
72.276115 60.94735 237.6006
74.30212 61.50991 236.4471
76.39379 62.0801 235.27701
78.465935 62.549767 234.05157
80.37539 62.88491 232.64359
80.37542 62.884895 232.6436
82.1155 63.157753 231.0397
83.7669 63.445595 229.31299
85.346214 63.753242 227.55754
86.760704 64.01342 225.74686
87.86358 64.388725 223.81952
88.55401 64.904686 221.69408
88.7734 65.24297 219.36421
88.763725 65.58953 217.17104
89.14687 66.4089 215.49887
89.94787 67.80001 214.43993
11.02813 24.865135 283.1827
14.994164 26.097542 284.09775
19.333763 26.868279 284.3223
23.311317 28.102638 283.82138
26.331932 29.852577 282.00095
26.331932 29.852592 282.00095
28.288826 31.15319 279.80392
29.629951 31.937721 278.23312
30.892097 32.73562 277.07352
32.04815 33.63871 276.0725
32.04815 33.63871 276.07248
33.05111 34.61634 275.22568
34.166298 35.751045 274.29175
35.602654 37.009804 273.14474
37.392693 38.209633 271.95898
39.095665 39.24726 270.6338
40.29853 40.3814 268.80902
41.73118 41.85087 266.853
43.655922 43.46073 264.75034
46.486687 45.115715 262.47617
46.486687 45.1157 262.47614
50.16073 46.743156 260.4188
53.84632 48.38291 258.55927
56.776497 50.12629 256.927
59.069527 51.941277 255.44662
60.960777 53.612587 254.02939
62.572563 54.9981 252.47575
64.07491 56.040764 250.57057
65.319664 56.79409 248.47787
66.10714 57.48423 246.41505
66.74755 58.237328 244.35884
67.603355 59.047935 242.43495
68.74911 59.891914 240.76256
70.39019 60.61007 239.2255
72.43218 61.105156 237.95195
74.45461 61.664207 236.79034
76.543816 62.235832 235.62262
78.63601 62.70629 234.38403
80.58672 63.041054 232.94556
80.58672 63.04107 232.94557
82.35714 63.313072 231.31557
84.01971 63.599968 229.57706
85.59884 63.90278 227.80687
86.99636 64.142204 225.94286
88.077995 64.49264 223.95158
88.771385 65.00201 221.77655
89.00686 65.34362 219.38795
88.99212 65.68694 217.19604
89.335655 66.478874 215.60144
90.08825 67.82235 214.5721
11.028114 24.865135 283.18274
11.304848 23.951042 283.89542
14.994164 26.097557 284.09775
15.192009 25.166817 284.74298
19.333748 26.868294 284.3223
19.48835 25.986687 284.89832
23.637993 27.406944 284.31567
26.331932 29.852577 282.00098
26.940712 29.348747 282.4195
26.331932 29.852592 282.00098
26.940697 29.348747 282.4195
28.995415 30.735008 280.24045
30.310097 31.536873 278.7265
30.892097 32.735634 277.07352
31.58947 32.329643 277.59216
32.795433 33.223793 276.61246
32.795418 33.223778 276.61246
33.84794 34.20626 275.7852
34.971046 35.350487 274.8777
35.602684 37.00982 273.1447
36.32183 36.620766 273.786
38.017265 37.854332 272.5849
39.09568 39.24726 270.6338
39.701897 39.010445 271.12158
40.298546 40.3814 268.80905
40.86811 40.333595 269.2233
41.73118 41.85087 266.85303
42.241463 41.849464 267.2784
43.655922 43.460747 264.75034
44.108955 43.460747 265.18076
46.842278 45.115715 262.97333
46.842262 45.115715 262.97333
50.44149 46.74317 260.97064
53.846336 48.38291 258.55927
54.13076 48.38291 259.10742
56.776497 50.126305 256.927
57.09237 50.12629 257.44595
59.416283 51.941277 255.9369
61.353203 53.612587 254.48074
62.57258 54.998116 252.47574
63.02056 54.9981 252.87033
64.07491 56.040794 250.57057
64.56191 56.040794 250.9104
65.319695 56.794106 248.47789
65.83001 56.794136 248.73457
66.10717 57.48423 246.41507
66.62612 57.48423 246.5723
66.74755 58.237343 244.35884
67.23815 58.237328 244.52219
68.051506 59.047935 242.68182
68.74911 59.89193 240.76256
69.14297 59.89193 241.07161
70.39019 60.610085 239.2255
70.68325 60.610085 239.5846
72.43221 61.105156 237.95195
72.64318 61.10517 238.31783
74.45458 61.664207 236.79034
74.66088 61.664238 237.14874
76.543846 62.235847 235.62262
76.74502 62.235863 235.98605
78.85192 62.706276 234.736
80.58672 63.04107 232.94556
80.839195 63.04104 233.26627
80.839195 63.041054 233.26628
82.35714 63.313072 231.31558
82.63882 63.313072 231.60764
84.01971 63.599968 229.57707
84.31432 63.599968 229.8541
85.59884 63.90278 227.80688
85.89446 63.90278 228.065
87.27129 64.142235 226.13963
88.32696 64.49264 224.0729
88.771385 65.001976 221.77657
89.02032 65.001976 221.8444
89.00692 65.34362 219.38797
89.26766 65.34362 219.40178
89.250175 65.68691 217.20416
89.56042 66.472374 215.66956
90.26034 67.80044 214.66139
91.02053 68.635 213.59418
11.663628 23.00779 284.34918
15.438515 24.210075 285.14185
19.67257 25.079948 285.24234
23.966362 26.684319 284.60748
27.47033 28.78936 282.66153
27.470314 28.78936 282.66153
29.575844 30.235039 280.51105
30.870674 31.04847 279.04807
32.17121 31.83471 277.92776
33.427956 32.71795 276.9541
33.42794 32.717934 276.95407
34.53797 33.70632 276.1279
35.68148 34.86213 275.2356
36.97178 36.14643 274.19833
38.590614 37.415703 272.99722
40.272972 38.66239 271.42203
41.46026 40.095924 269.46536
42.794044 41.63833 267.5507
44.60215 43.25437 265.47803
47.24012 44.89959 263.3637
47.24009 44.89959 263.36368
50.769814 46.519737 261.43005
54.46839 48.16404 259.5595
57.475273 49.924004 257.85382
59.83596 51.750755 256.30386
61.806343 53.42251 254.80287
63.5017 54.799294 253.14195
65.050224 55.82911 251.14946
66.31927 56.582085 248.90776
67.11422 57.286674 246.64687
67.70348 58.050255 244.6014
68.49218 58.864357 242.84013
69.54604 59.71398 241.28906
70.99325 60.440636 239.86864
72.868034 60.94735 238.62709
74.88085 61.50991 237.45265
76.95821 62.080116 236.29662
79.07168 62.549767 235.03897
81.08364 62.88491 233.54333
81.08361 62.884895 233.54335
82.905785 63.157753 231.85912
84.59344 63.445595 230.0902
86.1755 63.753227 228.2817
87.53207 64.01342 226.29892
88.562065 64.388725 224.15987
89.2524 64.904686 221.8844
89.50494 65.24297 219.40297
89.487785 65.58944 217.1938
89.77679 66.39266 215.69417
90.431114 67.74374 214.70297
91.02053 68.63497 213.5942
12.100029 22.037819 284.55463
15.735283 23.221977 285.29517
19.88749 24.143517 285.35562
24.298195 25.936699 284.70392
27.925224 28.19918 282.74893
27.925224 28.19918 282.74896
30.036156 29.69526 280.64395
31.315727 30.517616 279.22626
32.63932 31.296623 278.111
33.945076 32.168022 277.13165
33.945076 32.168007 277.13162
35.115837 33.162804 276.2928
36.288063 34.331245 275.40652
37.539528 35.63079 274.42038
39.096413 36.937492 273.2312
40.766 38.268883 271.57217
41.967766 39.791862 269.57492
43.27102 41.35546 267.6953
45.028877 42.97744 265.6536
47.58947 44.60958 263.62955
47.58947 44.609566 263.62955
51.06469 46.219917 261.76016
54.77381 47.87037 259.88174
57.82511 49.65261 258.1318
60.219078 51.495125 256.54184
62.210716 53.167427 255.00092
63.914772 54.532494 253.30167
65.45272 55.545082 251.29391
66.71105 56.2976 249.00696
67.49987 57.0216 246.66533
68.07339 57.799126 244.62296
68.851036 58.61799 242.92448
69.88253 59.475243 241.42053
71.257225 60.21334 240.06345
73.060295 60.735588 238.85226
75.06896 61.302788 237.67444
77.139885 61.871117 236.52473
79.25451 62.339714 235.2629
81.28069 62.675346 233.7487
81.28069 62.67536 233.74872
83.11782 62.949364 232.04501
84.815056 63.238426 230.26324
86.39922 63.552498 228.43849
87.73934 63.840553 226.41052
88.748344 64.24932 224.21353
89.43462 64.77407 221.90285
89.68801 65.10787 219.39735
89.67269 65.45864 217.17564
89.95278 66.28771 215.69107
90.57928 67.672325 214.70714
10.643089 20.91079 278.73413
12.621147 21.03408 284.49664
16.090767 22.188133 285.18033
20.138695 23.163918 285.21695
24.639427 25.156364 284.59216
28.31556 27.585945 282.6897
28.315575 27.585945 282.6897
30.389885 29.134743 280.66077
31.658104 29.96566 279.2858
33.00567 30.737099 278.16833
34.357918 31.596153 277.1743
35.59057 32.597633 276.31207
36.797478 33.779213 275.4244
38.02813 35.094597 274.4856
39.53585 36.43969 273.31778
41.180565 37.854164 271.60135
42.3823 39.45893 269.58246
43.66143 41.041817 267.73984
45.378944 42.670296 265.7312
47.88024 44.287926 263.7891
47.88024 44.287926 263.78906
51.315346 45.887367 261.97614
55.03515 47.54461 260.09
58.127205 49.351585 258.29895
60.549706 51.211617 256.67236
62.552467 52.88453 255.09769
64.25103 54.236565 253.3714
65.766655 55.230003 251.36159
67.00674 55.982018 249.04707
67.7864 56.727577 246.64302
68.35015 57.520607 244.6024
69.12707 58.34472 242.95087
70.14855 59.21041 241.4822
71.47018 59.961235 240.18181
73.21612 60.50071 239.00243
75.22149 61.073112 237.82289
77.28661 61.63932 236.67888
79.39855 62.10682 235.4155
81.430504 62.44294 233.88924
81.430534 62.442955 233.88924
83.27642 62.71821 232.1717
84.98077 63.00866 230.37975
86.56695 63.329918 228.54214
87.89446 63.648857 226.48076
88.88729 64.09475 224.24011
89.569084 64.629234 221.90489
89.82018 64.958 219.38745
89.80758 65.31356 217.15335
90.08868 66.17184 215.66835
90.701195 67.59484 214.68303
91.02053 68.635 213.5942
10.643105 20.910805 278.73413
12.621162 21.03408 284.49667
13.213402 20.031975 284.15845
16.090767 22.188148 285.18036
16.49578 21.142769 284.78503
20.13871 23.163918 285.21698
20.419838 22.172935 284.81564
24.639427 25.156395 284.5922
24.98307 24.363548 284.2626
28.315575 27.585945 282.68976
28.641808 26.9571 282.48178
28.315575 27.585945 282.68973
30.3899 29.134758 280.66077
30.643608 28.558784 280.56833
31.65812 29.96566 279.28583
31.90438 29.399773 279.23743
33.005684 30.737099 278.16837
33.276543 30.16352 278.11148
34.35795 31.596153 277.1743
34.67254 31.009972 277.09448
34.67254 31.009956 277.09445
35.590584 32.59765 276.31207
35.967537 32.018272 276.19943
37.214134 33.21331 275.30377
38.02813 35.094612 274.4856
38.44059 34.544945 274.40833
39.535866 36.439705 273.3178
39.911278 35.92916 273.27057
41.521492 37.426872 271.52423
42.3823 39.458946 269.58246
42.712273 39.111183 269.50775
43.66143 41.041847 267.73984
43.97309 40.712776 267.70474
45.37896 42.67031 265.7312
45.659172 42.348 265.72992
47.88024 44.28794 263.7891
48.116997 43.950447 263.86093
47.88024 44.28794 263.78906
48.11698 43.95043 263.86093
51.31536 45.887398 261.97614
51.52439 45.53846 262.09665
55.03515 47.544624 260.09
55.254692 47.202843 260.20312
58.12722 49.3516 258.29898
58.38349 49.03573 258.37457
60.54972 51.211617 256.6724
60.83001 50.91413 256.71512
62.552467 52.884544 255.0977
62.835625 52.587685 255.11249
64.25103 54.23658 253.37141
64.51772 53.926018 253.36876
65.766655 55.23002 251.3616
66.00237 54.899406 251.36731
67.00674 55.982018 249.04709
67.218834 55.6509 249.03984
67.78643 56.727592 246.64304
67.9873 56.419044 246.58939
68.35018 57.520622 244.60243
68.54629 57.228386 244.54942
69.1271 58.34475 242.95088
69.33056 58.058052 242.93105
70.14855 59.210426 241.48221
70.35192 58.932518 241.48744
71.47021 59.96125 240.18184
71.63735 59.696663 240.23698
73.21612 60.500725 239.00244
73.33907 60.254295 239.08966
75.34188 60.83213 237.90974
77.28661 61.639336 236.67888
77.40194 61.396126 236.77075
79.39855 62.106834 235.41551
79.5082 61.862434 235.50798
81.430534 62.442955 233.88927
81.53921 62.19909 233.97508
81.430565 62.442955 233.88928
81.53924 62.199104 233.9751
83.27642 62.718224 232.17174
83.3886 62.47564 232.24857
84.98077 63.008675 230.37976
85.09795 62.76757 230.44879
86.56698 63.329933 228.54216
86.68612 63.096367 228.60133
87.89449 63.648888 226.48076
88.00436 63.447685 226.51668
88.88729 64.09478 224.24013
88.98519 63.932518 224.24472
89.569084 64.629265 221.90489
89.662224 64.47729 221.89394
89.82018 64.95803 219.38745
89.90865 64.800804 219.37434
89.80761 65.31359 217.15335
89.89944 65.16134 217.12839
90.08868 66.17187 215.66835
90.18914 66.05056 215.63033
90.701225 67.59487 214.68303
90.79858 67.51498 214.63664
91.02053 68.635 213.59421
13.830894 19.121666 283.54236
16.916954 20.182854 284.12012
20.70794 21.261513 284.16452
25.303291 23.620796 283.72272
28.888008 26.329826 282.1218
28.888008 26.329826 282.12183
30.791344 27.960106 280.35782
32.050438 28.809837 279.0715
33.44834 29.565544 277.93
34.885796 30.398811 276.8809
36.244606 31.414284 275.9423
37.537025 32.62333 275.03125
38.777107 33.97187 274.17563
40.223564 35.397087 273.07828
41.79081 36.983055 271.33627
42.96366 38.753548 269.35916
44.21218 40.375435 267.60138
45.87496 42.0176 265.66064
48.30355 43.60444 263.85617
48.303535 43.60444 263.85614
51.69433 45.18078 262.1332
55.434883 46.852486 260.2327
58.596367 48.711937 258.3703
61.06266 50.609154 256.68158
63.06405 52.283363 255.05649
64.72048 53.607704 253.3038
66.16726 54.56054 251.31956
67.35583 55.31144 248.99193
68.11138 56.102745 246.50961
68.669945 56.92878 244.46936
69.4685 57.764137 242.8718
70.498314 58.647697 241.44414
71.762505 59.4255 240.23695
73.431816 60.0017 239.12138
75.43276 60.585136 237.94229
77.48843 61.14686 236.80763
79.58654 61.6119 235.5473
81.6108 61.94909 234.01248
81.61083 61.949104 234.0125
83.45919 62.226982 232.28127
85.17162 62.52041 230.47586
86.76165 62.856926 228.6213
88.07366 63.241447 226.52246
89.04626 63.766182 224.23027
89.71847 64.321465 221.87204
89.958275 64.63964 219.3587
89.952934 65.00533 217.1015
90.25768 65.92611 215.5787
90.873344 67.43334 214.56966
91.0205 68.63497 213.59416
14.420006 18.394066 282.67892
17.317757 19.405006 283.21686
20.9777 20.521141 283.29587
25.569984 22.99807 282.9984
29.03115 25.737007 281.6196
29.031136 25.737022 281.6196
30.821053 27.34626 280.0252
32.087425 28.197273 278.77957
33.51223 28.944328 277.61478
34.988487 29.763954 276.52386
34.988487 29.763954 276.52383
36.41236 30.786873 275.53033
37.75692 32.010506 274.596
39.0299 33.37658 273.7762
40.46627 34.844383 272.7302
41.98333 36.522118 271.02942
43.13456 38.382423 269.13132
44.377953 40.025475 267.42532
46.025734 41.674843 265.51935
48.43972 43.24549 263.77097
48.439705 43.24549 263.77097
51.82534 44.8097 262.08203
55.57589 46.489006 260.17484
58.766228 48.376 258.28207
61.24801 50.292747 256.56766
63.237648 51.967674 254.9255
64.85854 53.277473 253.17273
66.2597 54.20896 251.2152
67.41558 54.959312 248.90082
68.156364 55.774666 246.40149
68.71905 56.61799 244.35995
69.53924 57.459236 242.77048
70.5866 58.352196 241.34932
71.845055 59.144188 240.1789
73.49401 59.739662 239.09525
75.49374 60.32888 237.9182
77.54565 60.88822 236.7872
79.63299 61.35195 235.53127
81.64437 61.689735 233.99954
81.6444 61.68975 233.99953
83.48696 61.969032 232.26802
85.20052 62.264015 230.45921
86.79235 62.608574 228.60036
88.10116 63.02752 226.49672
89.06942 63.59362 224.19572
89.736595 64.159874 221.83836
89.96761 64.472496 219.34027
89.96685 64.84344 217.07227
90.293175 65.79693 215.51231
90.92501 67.34966 214.48135
14.936562 17.90789 281.62393
17.66906 18.872078 282.12778
21.208992 20.011879 282.26065
25.759758 22.547295 282.13272
29.052269 25.225548 281.00372
29.052254 25.225548 281.00372
30.72187 26.760536 279.58646
32.005608 27.602821 278.37357
33.45675 28.341164 277.17883
34.966255 29.147514 276.0386
34.966255 29.147514 276.03857
36.45202 30.177635 274.98184
37.85192 31.415398 274.0175
39.176018 32.79856 273.2267
40.61831 34.307045 272.2397
42.083626 36.067253 270.61182
43.216774 37.999947 268.81995
44.46447 39.659843 267.1689
46.106316 41.316566 265.2985
48.521614 42.870293 263.59744
48.5216 42.870277 263.59744
51.914528 44.421806 261.93475
55.67489 46.10903 260.0212
58.890053 48.02488 258.10165
61.38279 49.962074 256.36523
63.352394 51.63772 254.7119
64.92669 52.93229 252.96866
66.27352 53.841423 251.04832
67.39129 54.59121 248.76196
68.115135 55.43171 246.26175
68.68697 56.293114 244.21785
69.53701 57.140495 242.6226
70.6119 58.043266 241.19763
71.88149 58.85012 240.05719
73.523094 59.46575 239.00569
75.52239 60.060997 237.83209
77.57128 60.617867 236.70413
79.64477 61.08024 235.45471
81.63653 61.418617 233.93149
81.63653 61.418648 233.93149
83.46816 61.699394 232.20453
85.18066 61.995995 230.39473
86.77413 62.348885 228.53459
88.08315 62.80387 226.43634
89.05132 63.413246 224.13896
89.71328 63.99093 221.79161
89.93313 64.29772 219.31866
89.93746 64.67422 217.04034
90.29214 65.66259 215.43062
90.950005 67.26568 214.37332
91.02053 68.63497 213.59418
15.347816 17.692696 280.44705
17.948555 18.619484 280.91922
21.386925 19.7678 281.12222
25.85839 22.301186 281.17902
28.94262 24.841743 280.3145
30.490074 26.261314 279.0712
31.799797 27.086662 277.8804
33.27404 27.817131 276.6514
34.807396 28.611977 275.45828
34.807365 28.611961 275.45825
36.345467 29.648323 274.33524
37.798805 30.898354 273.33624
39.189323 32.29638 272.56412
40.65496 33.839012 271.63843
42.073967 35.659126 270.1092
43.19938 37.62858 268.43832
44.462563 39.296608 266.8407
46.10842 40.96041 265.00485
48.541817 42.497322 263.33932
48.5418 42.497307 263.33932
51.954857 44.036186 261.69333
55.72439 45.7313 259.77405
58.958794 47.67582 257.83292
61.4571 49.63331 256.0796
63.398903 51.309654 254.42183
64.91726 52.589104 252.69786
66.20339 53.47608 250.82396
67.27923 54.22529 248.57973
67.984825 55.09075 246.09575
68.57064 55.970192 244.04842
69.457634 56.82366 242.43309
70.56921 57.736153 240.99359
71.86727 58.557716 239.87437
73.51574 59.193382 238.8537
75.5154 59.794685 237.68478
77.562096 60.3491 236.55893
79.619316 60.810158 235.31796
81.58526 61.14913 233.8086
81.58526 61.14913 233.80861
83.40093 61.431328 232.09113
85.11013 61.72953 230.28296
86.70513 62.090767 228.42479
88.01791 62.58155 226.34242
88.99047 63.233955 224.06165
89.64721 63.822945 221.7335
89.853874 64.123985 219.29482
89.86382 64.506035 217.0072
90.25219 65.5303 215.33763
90.9443 67.18716 214.25185
15.630409 17.756065 279.2246
18.139214 18.662971 279.6643
21.500633 19.804207 279.94937
25.859123 22.276314 280.19547
28.705177 24.617561 279.5958
30.133965 25.894005 278.51318
31.475883 26.69683 277.3322
32.967873 27.421013 276.06686
34.51293 28.207085 274.82138
34.51293 28.20707 274.8214
36.088783 29.248192 273.63403
37.58924 30.50753 272.5981
39.057396 31.916725 271.83188
40.563423 33.483894 270.96545
41.94532 35.336098 269.55588
43.073936 37.303917 268.01477
44.363304 38.970757 266.46466
46.023735 40.640648 264.6589
48.491966 42.162437 263.0125
48.491966 42.162437 263.01248
51.9374 43.68998 261.3711
55.714424 45.39216 259.44742
58.960106 47.362404 257.49243
61.45751 49.338127 255.72939
63.36564 51.015114 254.07509
64.82317 52.281 252.37927
66.047356 53.148064 250.55753
67.08108 53.89672 248.36703
67.76864 54.784645 245.91664
68.37243 55.6802 243.86507
69.30065 56.539207 242.21574
70.45559 57.460472 240.75136
71.798485 58.29522 239.64157
73.46877 58.948875 238.6473
75.46966 59.555595 237.48401
77.51537 60.107826 236.3591
79.5552 60.567665 235.12794
81.49096 60.907143 233.63695
81.49096 60.907158 233.63696
83.286736 61.190666 231.93347
84.99053 61.490334 230.12965
86.58669 61.859047 228.27687
87.90682 62.38198 226.22052
88.88821 63.073006 223.96906
89.540276 63.672142 221.66833
89.73293 63.967964 219.27077
89.748344 64.355034 216.9759
90.17306 65.41277 215.24077
90.90594 67.12133 214.12605
91.0205 68.635 213.59421
10.643089 20.910805 278.7341
10.643089 20.910774 278.73413
15.630409 17.756065 279.22458
15.772026 18.142052 277.91907
18.230598 19.043144 278.3461
21.500633 19.804192 279.94937
21.542305 20.159477 278.72748
25.859123 22.276314 280.1955
25.748528 22.502724 279.16953
28.705193 24.617561 279.5958
28.31971 24.575035 278.83786
28.705193 24.617561 279.59583
30.13398 25.89402 278.51318
29.63224 25.677559 277.9026
31.013405 26.45176 276.71753
32.516914 27.171486 275.41342
34.512917 28.207085 274.8214
34.059715 27.952065 274.11584
34.512917 28.20707 274.8214
36.088768 29.248192 273.63403
35.656578 28.996132 272.86612
37.589226 30.50753 272.5981
37.19703 30.26133 271.7906
39.05738 31.916725 271.83188
38.75625 31.677544 271.01556
40.563423 33.48388 270.96545
40.32241 33.25843 270.20627
41.945335 35.336098 269.55588
41.67608 35.11367 268.9431
43.07395 37.303917 268.01477
42.81698 37.042015 267.54596
44.144142 38.69848 266.03653
46.023735 40.640633 264.65894
45.83204 40.37313 264.25473
48.491966 42.162437 263.01254
48.355415 41.88233 262.6065
48.3554 41.882317 262.6065
51.9374 43.689995 261.37112
51.847862 43.40043 260.95438
55.714424 45.392174 259.44742
55.630165 45.108513 259.02795
58.87693 47.100273 257.0692
61.36538 49.09124 255.30568
63.36564 51.0151 254.07509
63.23313 50.76873 253.66464
64.62496 52.023308 252.00754
66.047386 53.148064 250.55753
65.78689 52.873726 250.24403
66.7792 53.62194 248.12065
67.44933 54.528618 245.72488
68.07574 55.437675 243.66818
69.04977 56.30126 241.9681
70.255455 57.229866 240.46628
71.798454 58.295204 239.64157
71.66277 58.075676 239.35106
73.46877 58.94886 238.6473
73.37322 58.744377 238.37701
75.46963 59.555565 237.484
75.376366 59.355583 237.22041
77.51537 60.10781 236.3591
77.42263 59.906 236.09496
79.5552 60.567665 235.12793
79.44396 60.364845 234.87506
81.4909 60.907143 233.63696
81.34472 60.704796 233.40784
81.49093 60.907158 233.63696
81.34472 60.70481 233.40784
83.286705 61.190666 231.93347
83.11599 60.989372 231.72366
84.99053 61.49032 230.12965
84.81188 61.290215 229.92747
86.58666 61.85903 228.27689
86.408745 61.665184 228.08427
87.90682 62.381966 226.22052
87.74047 62.21502 226.06604
88.888176 63.07302 223.96906
88.73623 62.938347 223.85924
89.540245 63.672157 221.66833
89.38442 63.546043 221.59573
89.56216 63.837517 219.24693
89.748375 64.355034 216.9759
89.58291 64.22872 216.94753
90.17309 65.41274 215.24077
90.04699 65.31576 215.14053
90.90594 67.1213 214.12605
90.82723 67.07082 213.99347
POLYGONS 2152 8608
3 0 1 2
3 2 1 3
3 2 3 4
3 4 3 5
3 4 5 6
3 6 5 7
3 6 7 8
3 8 7 9
3 8 9 10
3 10 9 11
3 12 13 14
3 14 13 15
3 14 15 16
3 16 15 17
3 16 17 18
3 18 17 19
3 18 19 20
3 20 19 21
3 20 22 23
3 23 22 24
3 23 24 25
3 25 24 26
3 25 26 27
3 27 26 28
3 27 28 29
3 29 28 30
3 29 30 31
3 31 30 32
3 31 32 33
3 33 32 34
3 33 34 35
3 35 34 36
3 35 36 37
3 37 36 38
3 37 38 39
3 39 38 40
3 41 42 43
3 43 42 44
3 43 44 45
3 45 44 46
3 45 46 47
3 47 46 48
3 47 48 49
3 49 48 50
3 49 50 51
3 51 50 52
3 51 52 53
3 53 52 54
3 53 54 55
3 55 54 56
3 55 56 57
3 57 56 58
3 57 58 59
3 59 58 60
3 59 60 61
3 61 60 62
3 61 62 63
3 63 62 64
3 63 64 65
3 65 64 66
3 65 66 67
3 67 66 68
3 67 68 69
3 69 68 70
3 69 70 71
3 71 70 72
3 71 72 73
3 73 72 74
3 73 74 75
3 75 74 76
3 75 76 77
3 77 76 78
3 79 80 81
3 81 80 82
3 81 82 83
3 83 82 84
3 83 84 85
3 85 84 86
3 85 86 87
3 87 86 88
3 87 88 89
3 89 88 90
3 89 90 91
3 91 90 92
3 91 92 93
3 93 92 94
3 93 94 95
3 95 94 96
3 95 96 97
3 97 96 98
3 97 98 99
3 99 98 100
3 99 100 101
3 1 102 3
3 3 102 103
3 3 103 5
3 5 103 104
3 5 104 7
3 7 104 105
3 7 105 9
3 9 105 106
3 9 106 11
3 11 106 107
3 13 108 15
3 15 108 109
3 15 109 17
3 17 109 110
3 17 110 19
3 19 110 111
3 19 111 21
3 21 111 112
3 22 113 24
3 24 113 114
3 24 114 26
3 26 114 115
3 26 115 28
3 28 115 116
3 28 116 30
3 30 116 117
3 30 117 32
3 32 117 118
3 32 118 34
3 34 118 119
3 34 119 36
3 36 119 120
3 36 120 38
3 38 120 121
3 38 121 40
3 40 121 122
3 42 122 44
3 44 122 123
3 44 123 46
3 46 123 124
3 46 124 48
3 48 124 125
3 48 125 50
3 50 125 126
3 50 126 52
3 52 126 127
3 52 127 54
3 54 127 128
3 54 128 56
3 56 128 129
3 56 129 58
3 58 129 130
3 58 130 60
3 60 130 131
3 60 131 62
3 62 131 132
3 62 132 64
3 64 132 133
3 64 133 66
3 66 133 134
3 66 134 68
3 68 134 135
3 68 135 70
3 70 135 136
3 70 136 72
3 72 136 137
3 72 137 74
3 74 137 138
3 74 138 76
3 76 138 139
3 76 139 78
3 78 139 140
3 80 141 82
3 82 141 142
3 82 142 84
3 84 142 143
3 84 143 86
3 86 143 144
3 86 144 88
3 88 144 145
3 88 145 90
3 90 145 146
3 90 146 92
3 92 146 147
3 92 147 94
3 94 147 148
3 94 148 96
3 96 148 149
3 96 149 98
3 98 149 150
3 98 150 100
3 100 150 151
3 100 151 101
3 102 0 103
3 103 0 152
3 103 152 104
3 104 152 153
3 104 153 105
3 105 153 154
3 105 154 106
3 106 154 155
3 106 155 107
3 107 155 156
3 108 156 109
3 109 156 157
3 109 157 110
3 110 157 158
3 110 158 111
3 111 158 159
3 111 159 112
3 112 159 160
3 113 161 114
3 114 161 162
3 114 162 115
3 115 162 163
3 115 163 116
3 116 163 164
3 116 164 117
3 117 164 165
3 117 165 118
3 118 165 166
3 118 166 119
3 119 166 167
3 119 167 120
3 120 167 168
3 120 168 121
3 121 168 169
3 121 169 122
3 122 169 170
3 122 171 123
3 123 171 172
3 123 172 124
3 124 172 173
3 124 173 125
3 125 173 174
3 125 174 126
3 126 174 175
3 126 175 127
3 127 175 176
3 127 176 128
3 128 176 177
3 128 177 129
3 129 177 178
3 129 178 130
3 130 178 179
3 130 179 131
3 131 179 180
3 131 180 132
3 132 180 181
3 132 181 133
3 133 181 182
3 133 182 134
3 134 182 183
3 134 183 135
3 135 183 184
3 135 184 136
3 136 184 185
3 136 185 137
3 137 185 186
3 137 186 138
3 138 186 187
3 138 187 139
3 139 187 188
3 139 188 140
3 140 188 189
3 141 190 142
3 142 190 191
3 142 191 143
3 143 191 192
3 143 192 144
3 144 192 193
3 144 193 145
3 145 193 194
3 145 194 146
3 146 194 195
3 146 195 147
3 147 195 196
3 147 196 148
3 148 196 197
3 148 197 149
3 149 197 198
3 149 198 150
3 150 198 199
3 150 199 151
3 151 199 200
3 151 200 101
3 152 201 202
3 152 202 153
3 153 202 203
3 153 203 154
3 154 203 204
3 154 204 155
3 155 204 205
3 155 205 156
3 156 205 206
3 156 206 157
3 157 206 207
3 157 207 158
3 158 207 208
3 158 208 159
3 159 208 209
3 159 209 160
3 160 209 210
3 161 211 162
3 162 211 212
3 162 212 163
3 163 212 213
3 163 213 164
3 164 213 214
3 164 214 165
3 165 214 215
3 165 215 166
3 166 215 216
3 166 216 167
3 167 216 217
3 167 217 168
3 168 217 218
3 168 218 169
3 169 218 219
3 169 219 170
3 170 219 220
3 171 221 172
3 172 221 222
3 172 222 173
3 173 222 223
3 173 223 174
3 174 223 224
3 174 224 175
3 175 224 225
3 175 225 176
3 176 225 226
3 176 226 177
3 177 226 227
3 177 227 178
3 178 227 228
3 178 228 179
3 179 228 229
3 179 229 180
3 180 229 230
3 180 230 181
3 181 230 231
3 181 231 182
3 182 231 232
3 182 232 183
3 183 232 233
3 183 233 184
3 184 233 234
3 184 234 185
3 185 234 235
3 185 235 186
3 186 235 236
3 186 236 187
3 187 236 237
3 187 237 188
3 188 237 238
3 188 238 189
3 189 238 239
3 190 240 191
3 191 240 241
3 191 241 192
3 192 241 242
3 192 242 193
3 193 242 243
3 193 243 194
3 194 243 244
3 194 244 195
3 195 244 245
3 195 245 196
3 196 245 246
3 196 246 197
3 197 246 247
3 197 247 198
3 198 247 248
3 198 248 199
3 199 248 249
3 199 249 200
3 200 249 250
3 200 250 101
3 101 250 251
3 201 252 202
3 202 252 253
3 202 253 203
3 203 253 254
3 203 254 204
3 204 254 255
3 204 255 205
3 205 255 256
3 205 256 206
3 206 256 257
3 206 258 207
3 207 258 259
3 207 259 208
3 208 259 260
3 208 260 209
3 209 260 261
3 209 261 210
3 210 261 262
3 211 263 212
3 212 263 264
3 212 264 213
3 213 264 265
3 213 265 214
3 214 265 266
3 214 266 215
3 215 266 267
3 215 267 216
3 216 267 268
3 216 268 217
3 217 268 269
3 217 269 218
3 218 269 270
3 218 270 219
3 219 270 271
3 219 271 220
3 220 271 272
3 221 273 222
3 222 273 274
3 222 274 223
3 223 274 275
3 223 275 224
3 224 275 276
3 224 276 225
3 225 276 277
3 225 277 226
3 226 277 278
3 226 278 227
3 227 278 279
3 227 279 228
3 228 279 280
3 228 280 229
3 229 280 281
3 229 281 230
3 230 281 282
3 230 282 231
3 231 282 283
3 231 283 232
3 232 283 284
3 232 284 233
3 233 284 285
3 233 285 234
3 234 285 286
3 234 286 235
3 235 286 287
3 235 287 236
3 236 287 288
3 236 288 237
3 237 288 289
3 237 289 238
3 238 289 290
3 238 290 239
3 239 290 291
3 240 292 241
3 241 292 293
3 241 293 242
3 242 293 294
3 242 294 243
3 243 294 295
3 243 295 244
3 244 295 296
3 244 296 245
3 245 296 297
3 245 297 246
3 246 297 298
3 246 298 247
3 247 298 299
3 247 299 248
3 248 299 300
3 248 300 249
3 249 300 301
3 249 301 250
3 250 301 302
3 250 302 251
3 251 302 303
3 0 304 305
3 305 304 306
3 305 306 307
3 307 306 308
3 307 308 309
3 309 308 310
3 309 310 311
3 311 310 312
3 311 312 313
3 313 312 314
3 315 314 316
3 316 314 317
3 316 317 318
3 318 317 319
3 318 319 261
3 261 319 320
3 261 320 321
3 321 320 322
3 262 323 324
3 324 323 325
3 324 325 326
3 326 325 327
3 326 327 328
3 328 327 329
3 328 329 267
3 267 329 330
3 267 330 331
3 331 330 332
3 331 332 333
3 333 332 334
3 333 334 335
3 335 334 336
3 335 336 337
3 337 336 338
3 337 338 339
3 339 338 340
3 339 341 342
3 342 341 343
3 342 343 275
3 275 343 344
3 275 344 276
3 276 344 345
3 276 345 346
3 346 345 347
3 346 347 348
3 348 347 349
3 348 349 350
3 350 349 351
3 350 351 352
3 352 351 353
3 352 353 354
3 354 353 355
3 354 355 356
3 356 355 357
3 356 357 358
3 358 357 359
3 358 359 360
3 360 359 361
3 360 361 285
3 285 361 362
3 285 362 363
3 363 362 364
3 363 364 365
3 365 364 366
3 365 366 367
3 367 366 368
3 367 368 369
3 369 368 370
3 369 370 371
3 371 370 372
3 371 372 373
3 373 372 374
3 375 376 377
3 377 376 378
3 377 378 294
3 294 378 379
3 294 379 380
3 380 379 381
3 380 381 382
3 382 381 383
3 382 383 384
3 384 383 385
3 384 385 386
3 386 385 387
3 386 387 388
3 388 387 389
3 388 389 390
3 390 389 391
3 390 391 392
3 392 391 393
3 392 393 394
3 394 393 395
3 394 395 251
3 304 396 306
3 306 396 397
3 306 397 308
3 308 397 398
3 308 398 310
3 310 398 399
3 310 399 312
3 312 399 400
3 312 400 314
3 314 400 401
3 314 401 317
3 317 401 402
3 317 402 319
3 319 402 403
3 319 403 320
3 320 403 404
3 320 404 322
3 322 404 405
3 323 405 325
3 325 405 406
3 325 406 327
3 327 406 407
3 327 407 329
3 329 407 408
3 329 408 330
3 330 408 409
3 330 409 332
3 332 409 410
3 332 410 334
3 334 410 411
3 334 411 336
3 336 411 412
3 336 412 338
3 338 412 413
3 338 413 340
3 340 413 414
3 341 415 343
3 343 415 416
3 343 416 344
3 344 416 417
3 344 417 345
3 345 417 418
3 345 418 347
3 347 418 419
3 347 419 349
3 349 419 420
3 349 420 351
3 351 420 421
3 351 421 353
3 353 421 422
3 353 422 355
3 355 422 423
3 355 423 357
3 357 423 424
3 357 424 359
3 359 424 425
3 359 425 361
3 361 425 426
3 361 426 362
3 362 426 427
3 362 427 364
3 364 427 428
3 364 428 366
3 366 428 429
3 366 429 368
3 368 429 430
3 368 430 370
3 370 430 431
3 370 431 372
3 372 431 432
3 372 432 374
3 374 432 433
3 376 434 378
3 378 434 435
3 378 435 379
3 379 435 436
3 379 436 381
3 381 436 437
3 381 437 383
3 383 437 438
3 383 438 385
3 385 438 439
3 385 439 387
3 387 439 440
3 387 440 389
3 389 440 441
3 389 441 391
3 391 441 442
3 391 442 393
3 393 442 443
3 393 443 395
3 395 443 444
3 395 444 251
3 396 445 397
3 397 445 446
3 397 446 398
3 398 446 447
3 398 447 399
3 399 447 448
3 399 448 400
3 400 448 449
3 400 449 401
3 401 449 450
3 401 451 402
3 402 451 452
3 402 452 403
3 403 452 453
3 403 453 404
3 404 453 454
3 404 454 405
3 405 454 455
3 405 455 406
3 406 455 456
3 406 456 407
3 407 456 457
3 407 457 408
3 408 457 458
3 408 458 409
3 409 458 459
3 409 459 410
3 410 459 460
3 410 460 411
3 411 460 461
3 411 461 412
3 412 461 462
3 412 462 413
3 413 462 463
3 413 463 414
3 414 463 464
3 415 465 416
3 416 465 466
3 416 466 417
3 417 466 467
3 417 467 418
3 418 467 468
3 418 468 419
3 419 468 469
3 419 469 420
3 420 469 470
3 420 470 421
3 421 470 471
3 421 471 422
3 422 471 472
3 422 472 423
3 423 472 473
3 423 473 424
3 424 473 474
3 424 474 425
3 425 474 475
3 425 475 426
3 426 475 476
3 426 476 427
3 427 476 477
3 427 477 428
3 428 477 478
3 428 478 429
3 429 478 479
3 429 479 430
3 430 479 480
3 430 480 431
3 431 480 481
3 431 481 432
3 432 481 482
3 432 482 433
3 433 482 483
3 434 484 435
3 435 484 485
3 435 485 436
3 436 485 486
3 436 486 437
3 437 486 487
3 437 487 438
3 438 487 488
3 438 488 439
3 439 488 489
3 439 489 440
3 440 489 490
3 440 490 441
3 441 490 491
3 441 491 442
3 442 491 492
3 442 492 443
3 443 492 493
3 443 493 444
3 444 493 494
3 444 494 251
3 0 495 496
3 496 495 497
3 496 497 498
3 498 497 499
3 498 499 500
3 500 499 501
3 500 501 502
3 502 501 503
3 502 503 504
3 504 503 505
3 506 505 507
3 507 505 508
3 507 508 509
3 509 508 510
3 509 510 511
3 511 510 512
3 511 512 513
3 513 512 514
3 515 516 517
3 517 516 518
3 517 518 519
3 519 518 520
3 519 520 521
3 521 520 522
3 521 522 523
3 523 522 524
3 523 524 525
3 525 524 526
3 525 526 527
3 527 526 528
3 527 528 529
3 529 528 530
3 529 530 531
3 531 530 532
3 531 532 533
3 533 532 534
3 535 536 537
3 537 536 538
3 537 538 539
3 539 538 540
3 539 540 541
3 541 540 542
3 541 542 543
3 543 542 544
3 543 544 545
3 545 544 546
3 545 546 547
3 547 546 548
3 547 548 549
3 549 548 550
3 549 550 551
3 551 550 552
3 551 552 553
3 553 552 554
3 553 554 555
3 555 554 556
3 555 556 557
3 557 556 558
3 557 558 559
3 559 558 560
3 559 560 561
3 561 560 562
3 561 562 563
3 563 562 564
3 563 564 565
3 565 564 566
3 565 566 567
3 567 566 568
3 567 568 569
3 569 568 570
3 569 570 571
3 571 570 572
3 573 574 575
3 575 574 576
3 575 576 577
3 577 576 578
3 577 578 579
3 579 578 580
3 579 580 581
3 581 580 582
3 581 582 583
3 583 582 584
3 583 584 585
3 585 584 586
3 585 586 587
3 587 586 588
3 587 588 589
3 589 588 590
3 589 590 591
3 591 590 592
3 591 592 494
3 494 592 593
3 494 593 251
3 251 593 594
3 495 595 497
3 497 595 596
3 497 596 499
3 499 596 597
3 499 597 501
3 501 597 598
3 501 598 503
3 503 598 599
3 503 599 505
3 505 599 600
3 505 600 508
3 508 600 601
3 508 601 510
3 510 601 602
3 510 602 512
3 512 602 603
3 512 603 514
3 514 603 604
3 516 605 518
3 518 605 606
3 518 606 520
3 520 606 607
3 520 607 522
3 522 607 608
3 522 608 524
3 524 608 609
3 524 609 526
3 526 609 610
3 526 610 528
3 528 610 611
3 528 611 530
3 530 611 612
3 530 612 532
3 532 612 613
3 532 613 534
3 534 613 614
3 536 615 538
3 538 615 616
3 538 616 540
3 540 616 617
3 540 617 542
3 542 617 618
3 542 618 544
3 544 618 619
3 544 619 546
3 546 619 620
3 546 620 548
3 548 620 621
3 548 621 550
3 550 621 622
3 550 622 552
3 552 622 623
3 552 623 554
3 554 623 624
3 554 624 556
3 556 624 625
3 556 625 558
3 558 625 626
3 558 626 560
3 560 626 627
3 560 627 562
3 562 627 628
3 562 628 564
3 564 628 629
3 564 629 566
3 566 629 630
3 566 630 568
3 568 630 631
3 568 631 570
3 570 631 632
3 570 632 572
3 572 632 633
3 574 634 576
3 576 634 635
3 576 635 578
3 578 635 636
3 578 636 580
3 580 636 637
3 580 637 582
3 582 637 638
3 582 638 584
3 584 638 639
3 584 639 586
3 586 639 640
3 586 640 588
3 588 640 641
3 588 641 590
3 590 641 642
3 590 642 592
3 592 642 643
3 592 643 593
3 593 643 644
3 593 644 594
3 594 644 101
3 595 0 596
3 596 0 645
3 596 645 597
3 597 645 646
3 597 646 598
3 598 646 647
3 598 647 599
3 599 647 648
3 599 648 600
3 600 648 649
3 600 650 601
3 601 650 651
3 601 651 602
3 602 651 652
3 602 652 603
3 603 652 653
3 603 653 604
3 604 653 654
3 605 655 606
3 606 655 656
3 606 656 607
3 607 656 657
3 607 657 608
3 608 657 658
3 608 658 609
3 609 658 659
3 609 659 610
3 610 659 660
3 610 660 611
3 611 660 661
3 611 661 612
3 612 661 662
3 612 662 613
3 613 662 663
3 613 663 614
3 614 663 664
3 615 665 616
3 616 665 666
3 616 666 617
3 617 666 667
3 617 667 618
3 618 667 668
3 618 668 619
3 619 668 669
3 619 669 620
3 620 669 670
3 620 670 621
3 621 670 671
3 621 671 622
3 622 671 672
3 622 672 623
3 623 672 673
3 623 673 624
3 624 673 674
3 624 674 625
3 625 674 675
3 625 675 626
3 626 675 676
3 626 676 627
3 627 676 677
3 627 677 628
3 628 677 678
3 628 678 629
3 629 678 679
3 629 679 630
3 630 679 680
3 630 680 631
3 631 680 681
3 631 681 632
3 632 681 682
3 632 682 633
3 633 682 683
3 634 684 635
3 635 684 685
3 635 685 636
3 636 685 686
3 636 686 637
3 637 686 687
3 637 687 638
3 638 687 688
3 638 688 639
3 639 688 689
3 639 689 640
3 640 689 690
3 640 690 641
3 641 690 691
3 641 691 642
3 642 691 692
3 642 692 643
3 643 692 693
3 643 693 644
3 644 693 694
3 644 694 101
3 595 0 695
3 695 0 696
3 695 696 697
3 697 696 698
3 697 698 699
3 699 698 700
3 699 700 648
3 648 700 701
3 648 701 702
3 702 701 703
3 704 705 651
3 651 705 706
3 651 706 652
3 652 706 707
3 652 707 708
3 708 707 709
3 708 709 654
3 654 709 710
3 655 711 656
3 656 711 712
3 656 712 657
3 657 712 713
3 657 713 714
3 714 713 715
3 714 715 659
3 659 715 716
3 659 716 717
3 717 716 718
3 717 718 719
3 719 718 720
3 719 720 721
3 721 720 722
3 721 722 723
3 723 722 724
3 723 724 664
3 664 724 725
3 665 726 666
3 666 726 727
3 666 727 728
3 728 727 729
3 728 729 730
3 730 729 731
3 730 731 669
3 669 731 732
3 669 732 670
3 670 732 733
3 670 733 734
3 734 733 735
3 734 735 736
3 736 735 737
3 736 737 738
3 738 737 739
3 738 739 740
3 740 739 741
3 740 741 742
3 742 741 743
3 742 743 676
3 676 743 744
3 676 744 745
3 745 744 746
3 745 746 747
3 747 746 748
3 747 748 749
3 749 748 750
3 749 750 751
3 751 750 752
3 751 752 753
3 753 752 754
3 753 754 682
3 682 754 755
3 682 755 756
3 756 755 757
3 684 758 759
3 759 758 760
3 759 760 761
3 761 760 762
3 761 762 763
3 763 762 764
3 763 764 688
3 688 764 765
3 688 765 689
3 689 765 766
3 689 766 767
3 767 766 768
3 767 768 769
3 769 768 770
3 769 770 692
3 692 770 771
3 692 771 693
3 693 771 772
3 693 772 694
3 694 772 773
3 694 773 101
3 101 773 774
3 0 201 696
3 696 201 775
3 696 775 698
3 698 775 776
3 698 776 700
3 700 776 777
3 700 777 701
3 701 777 778
3 701 778 703
3 703 778 779
3 705 780 706
3 706 780 781
3 706 781 707
3 707 781 782
3 707 782 709
3 709 782 783
3 709 783 710
3 710 783 784
3 711 785 712
3 712 785 786
3 712 786 713
3 713 786 787
3 713 787 715
3 715 787 788
3 715 788 716
3 716 788 789
3 716 789 718
3 718 789 790
3 718 790 720
3 720 790 791
3 720 791 722
3 722 791 792
3 722 792 724
3 724 792 793
3 724 793 725
3 725 793 794
3 726 795 727
3 727 795 796
3 727 796 729
3 729 796 797
3 729 797 731
3 731 797 798
3 731 798 732
3 732 798 799
3 732 799 733
3 733 799 800
3 733 800 735
3 735 800 801
3 735 801 737
3 737 801 802
3 737 802 739
3 739 802 803
3 739 803 741
3 741 803 804
3 741 804 743
3 743 804 805
3 743 805 744
3 744 805 806
3 744 806 746
3 746 806 807
3 746 807 748
3 748 807 808
3 748 808 750
3 750 808 809
3 750 809 752
3 752 809 810
3 752 810 754
3 754 810 811
3 754 811 755
3 755 811 812
3 755 812 757
3 757 812 813
3 758 814 760
3 760 814 815
3 760 815 762
3 762 815 816
3 762 816 764
3 764 816 817
3 764 817 765
3 765 817 818
3 765 818 766
3 766 818 819
3 766 819 768
3 768 819 820
3 768 820 770
3 770 820 821
3 770 821 771
3 771 821 822
3 771 822 772
3 772 822 823
3 772 823 773
3 773 823 824
3 773 824 774
3 774 824 825
3 201 0 775
3 775 0 826
3 775 826 776
3 776 826 827
3 776 827 777
3 777 827 828
3 777 828 778
3 778 828 829
3 778 829 779
3 779 829 830
3 780 831 781
3 781 831 832
3 781 832 782
3 782 832 833
3 782 833 783
3 783 833 834
3 783 834 784
3 784 834 835
3 785 836 786
3 786 836 837
3 786 837 787
3 787 837 838
3 787 838 788
3 788 838 839
3 788 839 789
3 789 839 840
3 789 840 790
3 790 840 841
3 790 841 791
3 791 841 842
3 791 842 792
3 792 842 843
3 792 843 793
3 793 843 844
3 793 844 794
3 794 844 845
3 795 846 796
3 796 846 847
3 796 847 797
3 797 847 848
3 797 848 798
3 798 848 849
3 798 849 799
3 799 849 850
3 799 850 800
3 800 850 851
3 800 851 801
3 801 851 852
3 801 852 802
3 802 852 853
3 802 853 803
3 803 853 854
3 803 854 804
3 804 854 855
3 804 855 805
3 805 855 856
3 805 856 806
3 806 856 857
3 806 857 807
3 807 857 858
3 807 858 808
3 808 858 859
3 808 859 809
3 809 859 860
3 809 860 810
3 810 860 861
3 810 861 811
3 811 861 862
3 811 862 812
3 812 862 863
3 812 863 813
3 813 863 864
3 814 865 815
3 815 865 866
3 815 866 816
3 816 866 867
3 816 867 817
3 817 867 868
3 817 868 818
3 818 868 869
3 818 869 819
3 819 869 870
3 819 870 820
3 820 870 871
3 820 871 821
3 821 871 872
3 821 872 822
3 822 872 873
3 822 873 823
3 823 873 874
3 823 874 824
3 824 874 875
3 824 875 825
3 825 875 101
3 826 876 877
3 826 877 827
3 827 877 878
3 827 878 828
3 828 878 879
3 828 879 829
3 829 879 880
3 829 880 830
3 830 880 881
3 831 882 832
3 832 882 883
3 832 883 833
3 833 883 884
3 833 884 834
3 834 884 885
3 834 885 835
3 835 885 886
3 836 886 837
3 837 886 887
3 837 887 838
3 838 887 888
3 838 888 839
3 839 888 889
3 839 889 840
3 840 889 890
3 840 890 841
3 841 890 891
3 841 891 842
3 842 891 892
3 842 892 843
3 843 892 893
3 843 893 844
3 844 893 894
3 844 894 845
3 845 894 895
3 846 896 847
3 847 896 897
3 847 897 848
3 848 897 898
3 848 898 849
3 849 898 899
3 849 899 850
3 850 899 900
3 850 900 851
3 851 900 901
3 851 901 852
3 852 901 902
3 852 902 853
3 853 902 903
3 853 903 854
3 854 903 904
3 854 904 855
3 855 904 905
3 855 905 856
3 856 905 906
3 856 906 857
3 857 906 907
3 857 907 858
3 858 907 908
3 858 908 859
3 859 908 909
3 859 909 860
3 860 909 910
3 860 910 861
3 861 910 911
3 861 911 862
3 862 911 912
3 862 912 863
3 863 912 913
3 863 913 864
3 864 913 914
3 865 915 866
3 866 915 916
3 866 916 867
3 867 916 917
3 867 917 868
3 868 917 918
3 868 918 869
3 869 918 919
3 869 919 870
3 870 919 920
3 870 920 871
3 871 920 921
3 871 921 872
3 872 921 922
3 872 922 873
3 873 922 923
3 873 923 874
3 874 923 924
3 874 924 875
3 875 924 925
3 875 925 101
3 101 925 926
3 927 396 928
3 928 396 929
3 928 929 930
3 930 929 931
3 930 931 932
3 932 931 933
3 932 933 934
3 934 933 935
3 934 935 936
3 936 935 937
3 938 937 939
3 939 937 940
3 939 940 941
3 941 940 942
3 941 942 943
3 943 942 944
3 943 944 945
3 945 944 946
3 945 947 948
3 948 947 949
3 948 949 888
3 888 949 950
3 888 950 951
3 951 950 952
3 951 952 953
3 953 952 954
3 953 954 891
3 891 954 955
3 891 955 956
3 956 955 957
3 956 957 958
3 958 957 959
3 958 959 960
3 960 959 961
3 960 961 962
3 962 961 963
3 964 965 966
3 966 965 967
3 966 967 968
3 968 967 969
3 968 969 970
3 970 969 971
3 970 971 972
3 972 971 973
3 972 973 974
3 974 973 975
3 974 975 976
3 976 975 977
3 976 977 978
3 978 977 979
3 978 979 980
3 980 979 981
3 980 981 982
3 982 981 983
3 982 983 984
3 984 983 985
3 984 985 986
3 986 985 987
3 986 987 988
3 988 987 989
3 988 989 990
3 990 989 991
3 990 991 992
3 992 991 993
3 992 993 911
3 911 993 994
3 911 994 995
3 995 994 996
3 995 996 997
3 997 996 998
3 997 998 999
3 999 998 1000
3 1001 1002 1003
3 1003 1002 1004
3 1003 1004 1005
3 1005 1004 1006
3 1005 1006 1007
3 1007 1006 1008
3 1007 1008 1009
3 1009 1008 1010
3 1009 1010 1011
3 1011 1010 1012
3 1011 1012 1013
3 1013 1012 1014
3 1013 1014 1015
3 1015 1014 1016
3 1015 1016 1017
3 1017 1016 1018
3 1017 1018 1019
3 1019 1018 1020
3 1019 1020 1021
3 1021 1020 1022
3 1021 1022 1023
3 1023 1022 594
3 396 445 929
3 929 445 1024
3 929 1024 931
3 931 1024 1025
3 931 1025 933
3 933 1025 1026
3 933 1026 935
3 935 1026 1027
3 935 1027 937
3 937 1027 1028
3 937 1029 940
3 940 1029 1030
3 940 1030 942
3 942 1030 1031
3 942 1031 944
3 944 1031 1032
3 944 1032 946
3 946 1032 1033
3 947 1033 949
3 949 1033 1034
3 949 1034 950
3 950 1034 1035
3 950 1035 952
3 952 1035 1036
3 952 1036 954
3 954 1036 1037
3 954 1037 955
3 955 1037 1038
3 955 1038 957
3 957 1038 1039
3 957 1039 959
3 959 1039 1040
3 959 1040 961
3 961 1040 1041
3 961 1041 963
3 963 1041 1042
3 965 1043 967
3 967 1043 1044
3 967 1044 969
3 969 1044 1045
3 969 1045 971
3 971 1045 1046
3 971 1046 973
3 973 1046 1047
3 973 1047 975
3 975 1047 1048
3 975 1048 977
3 977 1048 1049
3 977 1049 979
3 979 1049 1050
3 979 1050 981
3 981 1050 1051
3 981 1051 983
3 983 1051 1052
3 983 1052 985
3 985 1052 1053
3 985 1053 987
3 987 1053 1054
3 987 1054 989
3 989 1054 1055
3 989 1055 991
3 991 1055 1056
3 991 1056 993
3 993 1056 1057
3 993 1057 994
3 994 1057 1058
3 994 1058 996
3 996 1058 1059
3 996 1059 998
3 998 1059 1060
3 998 1060 1000
3 1000 1060 1061
3 1002 1062 1004
3 1004 1062 1063
3 1004 1063 1006
3 1006 1063 1064
3 1006 1064 1008
3 1008 1064 1065
3 1008 1065 1010
3 1010 1065 1066
3 1010 1066 1012
3 1012 1066 1067
3 1012 1067 1014
3 1014 1067 1068
3 1014 1068 1016
3 1016 1068 1069
3 1016 1069 1018
3 1018 1069 1070
3 1018 1070 1020
3 1020 1070 1071
3 1020 1071 1022
3 1022 1071 1072
3 1022 1072 594
3 594 1072 1073
3 445 876 1024
3 1024 876 1074
3 1024 1074 1025
3 1025 1074 1075
3 1025 1075 1026
3 1026 1075 1076
3 1026 1076 1027
3 1027 1076 1077
3 1027 1077 1028
3 1028 1077 1078
3 1029 1079 1030
3 1030 1079 1080
3 1030 1080 1031
3 1031 1080 1081
3 1031 1081 1032
3 1032 1081 1082
3 1032 1082 1033
3 1033 1082 1083
3 1033 1084 1034
3 1034 1084 1085
3 1034 1085 1035
3 1035 1085 1086
3 1035 1086 1036
3 1036 1086 1087
3 1036 1087 1037
3 1037 1087 1088
3 1037 1088 1038
3 1038 1088 1089
3 1038 1089 1039
3 1039 1089 1090
3 1039 1090 1040
3 1040 1090 1091
3 1040 1091 1041
3 1041 1091 1092
3 1041 1092 1042
3 1042 1092 1093
3 1043 1094 1044
3 1044 1094 1095
3 1044 1095 1045
3 1045 1095 1096
3 1045 1096 1046
3 1046 1096 1097
3 1046 1097 1047
3 1047 1097 1098
3 1047 1098 1048
3 1048 1098 1099
3 1048 1099 1049
3 1049 1099 1100
3 1049 1100 1050
3 1050 1100 1101
3 1050 1101 1051
3 1051 1101 1102
3 1051 1102 1052
3 1052 1102 1103
3 1052 1103 1053
3 1053 1103 1104
3 1053 1104 1054
3 1054 1104 1105
3 1054 1105 1055
3 1055 1105 1106
3 1055 1106 1056
3 1056 1106 1107
3 1056 1107 1057
3 1057 1107 1108
3 1057 1108 1058
3 1058 1108 1109
3 1058 1109 1059
3 1059 1109 1110
3 1059 1110 1060
3 1060 1110 1111
3 1060 1111 1061
3 1061 1111 1112
3 1062 1113 1063
3 1063 1113 1114
3 1063 1114 1064
3 1064 1114 1115
3 1064 1115 1065
3 1065 1115 1116
3 1065 1116 1066
3 1066 1116 1117
3 1066 1117 1067
3 1067 1117 1118
3 1067 1118 1068
3 1068 1118 1119
3 1068 1119 1069
3 1069 1119 1120
3 1069 1120 1070
3 1070 1120 1121
3 1070 1121 1071
3 1071 1121 1122
3 1071 1122 1072
3 1072 1122 1123
3 1072 1123 1073
3 1073 1123 926
3 876 0 1074
3 1074 0 1124
3 1074 1124 1075
3 1075 1124 1125
3 1075 1125 1076
3 1076 1125 1126
3 1076 1126 1077
3 1077 1126 1127
3 1077 1127 1078
3 1078 1127 1128
3 1079 1129 1080
3 1080 1129 1130
3 1080 1130 1081
3 1081 1130 1131
3 1081 1131 1082
3 1082 1131 1132
3 1082 1132 1083
3 1083 1132 1133
3 1084 1134 1085
3 1085 1134 1135
3 1085 1135 1086
3 1086 1135 1136
3 1086 1136 1087
3 1087 1136 1137
3 1087 1137 1088
3 1088 1137 1138
3 1088 1138 1089
3 1089 1138 1139
3 1089 1139 1090
3 1090 1139 1140
3 1090 1140 1091
3 1091 1140 1141
3 1091 1141 1092
3 1092 1141 1142
3 1092 1142 1093
3 1093 1142 1143
3 1094 1144 1095
3 1095 1144 1145
3 1095 1145 1096
3 1096 1145 1146
3 1096 1146 1097
3 1097 1146 1147
3 1097 1147 1098
3 1098 1147 1148
3 1098 1148 1099
3 1099 1148 1149
3 1099 1149 1100
3 1100 1149 1150
3 1100 1150 1101
3 1101 1150 1151
3 1101 1151 1102
3 1102 1151 1152
3 1102 1152 1103
3 1103 1152 1153
3 1103 1153 1104
3 1104 1153 1154
3 1104 1154 1105
3 1105 1154 1155
3 1105 1155 1106
3 1106 1155 1156
3 1106 1156 1107
3 1107 1156 1157
3 1107 1157 1108
3 1108 1157 1158
3 1108 1158 1109
3 1109 1158 1159
3 1109 1159 1110
3 1110 1159 1160
3 1110 1160 1111
3 1111 1160 1161
3 1111 1161 1112
3 1112 1161 1162
3 1113 1163 1114
3 1114 1163 1164
3 1114 1164 1115
3 1115 1164 1165
3 1115 1165 1116
3 1116 1165 1166
3 1116 1166 1117
3 1117 1166 1167
3 1117 1167 1118
3 1118 1167 1168
3 1118 1168 1119
3 1119 1168 1169
3 1119 1169 1120
3 1120 1169 1170
3 1120 1170 1121
3 1121 1170 1171
3 1121 1171 1122
3 1122 1171 1172
3 1122 1172 1123
3 1123 1172 1173
3 1123 1173 926
3 926 1173 1174
3 1124 0 1175
3 1124 1175 1125
3 1125 1175 1176
3 1125 1176 1126
3 1126 1176 1177
3 1126 1177 1127
3 1127 1177 1178
3 1127 1178 1128
3 1128 1178 1179
3 1129 1179 1130
3 1130 1179 1180
3 1130 1180 1131
3 1131 1180 1181
3 1131 1181 1132
3 1132 1181 1182
3 1132 1182 1133
3 1133 1182 1183
3 1134 1184 1135
3 1135 1184 1185
3 1135 1185 1136
3 1136 1185 1186
3 1136 1186 1137
3 1137 1186 1187
3 1137 1187 1138
3 1138 1187 1188
3 1138 1188 1139
3 1139 1188 1189
3 1139 1189 1140
3 1140 1189 1190
3 1140 1190 1141
3 1141 1190 1191
3 1141 1191 1142
3 1142 1191 1192
3 1142 1192 1143
3 1143 1192 1193
3 1144 1194 1145
3 1145 1194 1195
3 1145 1195 1146
3 1146 1195 1196
3 1146 1196 1147
3 1147 1196 1197
3 1147 1197 1148
3 1148 1197 1198
3 1148 1198 1149
3 1149 1198 1199
3 1149 1199 1150
3 1150 1199 1200
3 1150 1200 1151
3 1151 1200 1201
3 1151 1201 1152
3 1152 1201 1202
3 1152 1202 1153
3 1153 1202 1203
3 1153 1203 1154
3 1154 1203 1204
3 1154 1204 1155
3 1155 1204 1205
3 1155 1205 1156
3 1156 1205 1206
3 1156 1206 1157
3 1157 1206 1207
3 1157 1207 1158
3 1158 1207 1208
3 1158 1208 1159
3 1159 1208 1209
3 1159 1209 1160
3 1160 1209 1210
3 1160 1210 1161
3 1161 1210 1211
3 1161 1211 1162
3 1162 1211 1212
3 1163 1213 1164
3 1164 1213 1214
3 1164 1214 1165
3 1165 1214 1215
3 1165 1215 1166
3 1166 1215 1216
3 1166 1216 1167
3 1167 1216 1217
3 1167 1217 1168
3 1168 1217 1218
3 1168 1218 1169
3 1169 1218 1219
3 1169 1219 1170
3 1170 1219 1220
3 1170 1220 1171
3 1171 1220 1221
3 1171 1221 1172
3 1172 1221 1222
3 1172 1222 1173
3 1173 1222 1223
3 1173 1223 1174
3 1174 1223 101
3 0 876 1175
3 1175 876 1224
3 1175 1224 1176
3 1176 1224 1225
3 1176 1225 1177
3 1177 1225 1226
3 1177 1226 1178
3 1178 1226 1227
3 1178 1227 1179
3 1179 1227 1228
3 1179 1228 1180
3 1180 1228 1229
3 1180 1229 1181
3 1181 1229 1230
3 1181 1230 1182
3 1182 1230 1231
3 1182 1231 1183
3 1183 1231 1232
3 1184 1233 1185
3 1185 1233 1234
3 1185 1234 1186
3 1186 1234 1235
3 1186 1235 1187
3 1187 1235 1236
3 1187 1236 1188
3 1188 1236 1237
3 1188 1237 1189
3 1189 1237 1238
3 1189 1238 1190
3 1190 1238 1239
3 1190 1239 1191
3 1191 1239 1240
3 1191 1240 1192
3 1192 1240 1241
3 1192 1241 1193
3 1193 1241 1242
3 1194 1243 1195
3 1195 1243 1244
3 1195 1244 1196
3 1196 1244 1245
3 1196 1245 1197
3 1197 1245 1246
3 1197 1246 1198
3 1198 1246 1247
3 1198 1247 1199
3 1199 1247 1248
3 1199 1248 1200
3 1200 1248 1249
3 1200 1249 1201
3 1201 1249 1250
3 1201 1250 1202
3 1202 1250 1251
3 1202 1251 1203
3 1203 1251 1252
3 1203 1252 1204
3 1204 1252 1253
3 1204 1253 1205
3 1205 1253 1254
3 1205 1254 1206
3 1206 1254 1255
3 1206 1255 1207
3 1207 1255 1256
3 1207 1256 1208
3 1208 1256 1257
3 1208 1257 1209
3 1209 1257 1258
3 1209 1258 1210
3 1210 1258 1259
3 1210 1259 1211
3 1211 1259 1260
3 1211 1260 1212
3 1212 1260 1261
3 1213 1262 1214
3 1214 1262 1263
3 1214 1263 1215
3 1215 1263 1264
3 1215 1264 1216
3 1216 1264 1265
3 1216 1265 1217
3 1217 1265 1266
3 1217 1266 1218
3 1218 1266 1267
3 1218 1267 1219
3 1219 1267 1268
3 1219 1268 1220
3 1220 1268 1269
3 1220 1269 1221
3 1221 1269 1270
3 1221 1270 1222
3 1222 1270 1271
3 1222 1271 1223
3 1223 1271 1272
3 1223 1272 101
3 101 1272 1273
3 1274 1275 1276
3 1276 1275 1277
3 1276 1277 1225
3 1225 1277 1278
3 1225 1278 1279
3 1279 1278 1280
3 1279 1280 1281
3 1281 1280 1282
3 1281 1282 1283
3 1283 1282 1284
3 1285 1284 1286
3 1286 1284 1287
3 1286 1287 1230
3 1230 1287 1288
3 1230 1288 1231
3 1231 1288 1289
3 1231 1289 1290
3 1290 1289 1291
3 1292 1291 1293
3 1293 1291 1294
3 1293 1294 1295
3 1295 1294 1296
3 1295 1296 1297
3 1297 1296 1298
3 1297 1298 1299
3 1299 1298 1300
3 1299 1300 1301
3 1301 1300 1302
3 1301 1302 1303
3 1303 1302 1304
3 1303 1304 1240
3 1240 1304 1305
3 1240 1305 1306
3 1306 1305 1307
3 1306 1307 1308
3 1308 1307 1309
3 1242 1310 1311
3 1311 1310 1312
3 1311 1312 1313
3 1313 1312 1314
3 1313 1314 1246
3 1246 1314 1315
3 1246 1315 1247
3 1247 1315 1316
3 1247 1316 1317
3 1317 1316 1318
3 1317 1318 1249
3 1249 1318 1319
3 1249 1319 1320
3 1320 1319 1321
3 1320 1321 1251
3 1251 1321 1322
3 1251 1322 1252
3 1252 1322 1323
3 1252 1323 1253
3 1253 1323 1324
3 1253 1324 1254
3 1254 1324 1325
3 1254 1325 1255
3 1255 1325 1326
3 1255 1326 1327
3 1327 1326 1328
3 1327 1328 1329
3 1329 1328 1330
3 1329 1330 1331
3 1331 1330 1332
3 1331 1332 1333
3 1333 1332 1334
3 1333 1334 1335
3 1335 1334 1336
3 1335 1336 1337
3 1337 1336 1338
3 1339 1340 1341
3 1341 1340 1342
3 1341 1342 1343
3 1343 1342 1344
3 1343 1344 1345
3 1345 1344 1346
3 1345 1346 1347
3 1347 1346 1348
3 1347 1348 1349
3 1349 1348 1350
3 1349 1350 1351
3 1351 1350 1352
3 1351 1352 1269
3 1269 1352 1353
3 1269 1353 1354
3 1354 1353 1355
3 1354 1355 1356
3 1356 1355 1357
3 1356 1357 1358
3 1358 1357 1359
3 1358 1359 774
3 774 1359 594
3 1275 0 1277
3 1277 0 2
3 1277 2 1278
3 1278 2 4
3 1278 4 1280
3 1280 4 6
3 1280 6 1282
3 1282 6 8
3 1282 8 1284
3 1284 8 10
3 1284 12 1287
3 1287 12 14
3 1287 14 1288
3 1288 14 16
3 1288 16 1289
3 1289 16 18
3 1289 18 1291
3 1291 18 20
3 1291 20 1294
3 1294 20 23
3 1294 23 1296
3 1296 23 25
3 1296 25 1298
3 1298 25 27
3 1298 27 1300
3 1300 27 29
3 1300 29 1302
3 1302 29 31
3 1302 31 1304
3 1304 31 33
3 1304 33 1305
3 1305 33 35
3 1305 35 1307
3 1307 35 37
3 1307 37 1309
3 1309 37 39
3 1310 41 1312
3 1312 41 43
3 1312 43 1314
3 1314 43 45
3 1314 45 1315
3 1315 45 47
3 1315 47 1316
3 1316 47 49
3 1316 49 1318
3 1318 49 51
3 1318 51 1319
3 1319 51 53
3 1319 53 1321
3 1321 53 55
3 1321 55 1322
3 1322 55 57
3 1322 57 1323
3 1323 57 59
3 1323 59 1324
3 1324 59 61
3 1324 61 1325
3 1325 61 63
3 1325 63 1326
3 1326 63 65
3 1326 65 1328
3 1328 65 67
3 1328 67 1330
3 1330 67 69
3 1330 69 1332
3 1332 69 71
3 1332 71 1334
3 1334 71 73
3 1334 73 1336
3 1336 73 75
3 1336 75 1338
3 1338 75 77
3 1340 79 1342
3 1342 79 81
3 1342 81 1344
3 1344 81 83
3 1344 83 1346
3 1346 83 85
3 1346 85 1348
3 1348 85 87
3 1348 87 1350
3 1350 87 89
3 1350 89 1352
3 1352 89 91
3 1352 91 1353
3 1353 91 93
3 1353 93 1355
3 1355 93 95
3 1355 95 1357
3 1357 95 97
3 1357 97 1359
3 1359 97 99
3 1359 99 594
3 594 99 101
