# vtk DataFile Version 2.0
File written by itkPolyDataMeshIO
ASCII
DATASET POLYDATA
POINTS 1259 float
10.575966 15.444695 284.03723
9.261086 18.968178 277.1362
12.487785 15.385643 283.16525
15.626472 14.383461 292.0623
17.472359 14.382133 290.70312
23.152672 10.892311 299.3095
24.824272 10.919212 297.48312
30.040443 7.098976 305.5344
31.837212 7.118935 303.83435
34.5205 4.882866 310.71457
36.35302 4.865868 309.55377
37.55047 4.377403 315.6811
39.124596 4.340904 314.90402
37.55047 4.377403 315.68106
39.12458 4.340889 314.904
40.649315 5.013573 320.47635
41.88746 4.981316 319.69116
44.611534 6.609398 324.65225
45.598717 6.58036 323.6884
48.698357 9.462227 328.66925
49.6605 9.437691 327.71915
51.50318 13.425133 333.21143
52.585075 13.511147 332.54022
52.350975 17.804329 338.16296
53.410164 18.208168 337.8152
50.788612 22.264503 343.10693
51.668266 22.91677 343.02307
47.33303 25.788704 347.42838
47.93969 26.377296 347.48227
47.33303 25.788689 347.42838
47.939674 26.377281 347.48227
43.40232 28.383675 351.68365
43.891228 28.901512 351.75424
40.753944 30.502708 355.61905
41.211067 30.988945 355.6253
39.806633 32.099144 358.5305
40.198875 32.533653 358.42264
39.725258 32.80108 360.22556
40.082375 33.20426 360.09543
39.828804 33.033073 361.39856
40.187416 33.43737 361.3031
39.82879 33.033043 361.39853
40.187386 33.437355 361.30304
39.93708 33.21015 362.48508
40.29696 33.62142 362.4076
40.03205 33.378075 363.47424
40.38169 33.784187 363.39392
40.11207 33.583626 364.37106
40.431847 33.96296 364.26303
40.11207 33.58361 364.37103
40.43186 33.962944 364.26303
40.186623 33.859886 365.19348
40.454018 34.189964 365.02997
40.27259 34.20562 365.9664
40.468285 34.472816 365.7181
40.351173 34.681267 366.6538
40.48774 34.886375 366.34033
40.370964 35.373177 367.16486
40.50889 35.53414 366.88766
40.404564 35.98736 367.6144
40.555733 36.14338 367.37515
40.47999 36.506096 368.0299
40.629173 36.66967 367.80826
40.629173 36.669685 367.80826
40.635597 37.000298 368.4383
40.761406 37.17318 368.22424
40.935844 37.452675 368.8408
41.02395 37.64057 368.63605
41.4367 37.824303 369.29974
41.502083 38.030067 369.10666
42.102882 38.196373 369.95523
42.173363 38.41433 369.7644
42.102882 38.19639 369.9553
42.173378 38.41433 369.7644
42.783455 38.602425 370.76294
42.871742 38.82702 370.57236
43.39834 38.98899 371.59558
43.50158 39.218758 371.41324
43.979774 39.322655 372.406
44.090965 39.556572 372.23264
43.97976 39.322624 372.40598
44.090965 39.55654 372.23257
44.520836 39.592674 373.12903
44.632454 39.829414 372.95877
44.98751 39.795982 373.69427
45.093925 40.036507 373.51868
45.45971 39.919228 374.15958
45.55848 40.161064 373.97958
45.45968 39.919212 374.15958
45.558464 40.16105 373.97958
45.457893 40.44866 374.6644
45.457893 40.44866 374.66437
9.26107 18.968163 277.13617
13.446373 15.731102 282.69867
18.421623 14.764473 290.04535
25.757942 11.316109 296.6489
32.84478 7.503487 303.0999
37.332527 5.209297 309.08115
39.926216 4.631477 314.56638
39.9262 4.631462 314.56638
42.48504 5.230247 319.2902
46.034966 6.804665 323.16425
50.057686 9.642372 327.16763
53.03515 13.740364 332.09546
53.83692 18.547203 337.5192
52.001457 23.31945 342.85614
48.159294 26.723335 347.41437
48.15928 26.72332 347.41437
44.06243 29.205269 351.71332
41.363106 31.274178 355.5672
40.31521 32.789955 358.33566
40.18467 33.45417 360.01404
40.29383 33.700127 361.24545
40.2938 33.700096 361.24542
40.404045 33.89335 362.36447
40.483635 34.054054 363.35257
40.52015 34.21482 364.20865
40.520134 34.214836 364.20862
40.5187 34.407158 364.94763
40.49975 34.642784 365.59528
40.493584 35.00872 366.18677
40.52372 35.628517 366.74573
40.581703 36.234886 367.2484
40.656 36.765602 367.69135
40.77848 37.274574 368.11755
41.026665 37.75077 368.5456
41.49859 38.150764 369.0324
42.172127 38.542168 369.6934
42.172142 38.542183 369.69342
42.876183 38.958748 370.49905
43.512306 39.353554 371.3427
44.105995 39.69384 372.16702
44.10598 39.69381 372.167
44.648552 39.9683 372.89627
45.108192 40.177635 373.45584
45.57052 40.304314 373.91516
45.570503 40.304314 373.91513
14.213737 16.28527 282.3024
19.218468 15.354103 289.52197
26.593727 11.917946 296.02216
33.74932 8.088753 302.58136
38.18093 5.744545 308.77164
40.59371 5.092323 314.3264
40.593697 5.092308 314.32635
42.959312 5.625435 318.9555
46.35119 7.160789 322.7042
50.32273 9.96656 326.66055
53.33863 14.05999 331.6543
54.113243 18.915276 337.19638
52.1988 23.693245 342.63977
48.28031 27.034523 347.2977
48.280296 27.034508 347.29767
44.151558 29.478127 351.63052
41.434685 31.530373 355.4804
41.43467 31.530373 355.4804
40.355232 33.02038 358.2444
40.20878 33.68058 359.93967
40.316414 33.9403 361.19525
40.316383 33.940285 361.19522
40.42446 34.143166 362.3297
40.499397 34.302498 363.32162
40.52729 34.446632 364.1685
40.527275 34.446632 364.1685
40.51203 34.606514 364.88574
40.4741 34.797646 365.50116
40.456184 35.118935 366.0664
40.4562 35.118935 366.0664
40.500114 35.713295 366.6298
40.57 36.317085 367.1422
40.646095 36.851784 367.59378
40.646095 36.851784 367.5938
40.762108 37.36564 368.03226
41.001793 37.84977 368.48096
41.4721 38.25921 368.98746
42.147285 38.657005 369.65253
42.1473 38.657036 369.65256
42.853737 39.077095 370.45474
43.494057 39.474617 371.2998
44.091393 39.817085 372.12836
44.091347 39.81707 372.12833
44.63543 40.093025 372.86115
45.094063 40.30436 373.42188
45.55558 40.432457 373.88086
45.555565 40.432457 373.88083
45.457893 40.448647 374.6644
9.261086 18.968178 277.13623
14.832787 17.024086 281.95938
19.88726 16.12461 289.11237
27.348534 12.698738 295.57166
34.568687 8.849312 302.24677
38.919792 6.447243 308.60132
41.148277 5.701729 314.16956
41.148277 5.701729 314.16953
43.32926 6.148232 318.67654
46.565285 7.631905 322.29755
50.475 10.394966 326.1897
53.517876 14.455879 331.21683
54.266243 19.307686 336.8526
52.29151 24.05735 342.37592
48.326332 27.332237 347.13553
48.3263 27.332222 347.1355
44.177803 29.739082 351.5094
41.443886 31.775414 355.36594
41.4439 31.775414 355.36594
40.33483 33.241158 358.14505
40.171227 33.90084 359.8667
40.273186 34.176888 361.1478
40.27317 34.176857 361.14777
40.376213 34.390022 362.2994
40.44648 34.548164 363.29697
40.469246 34.675835 364.137
40.469276 34.67582 364.13696
40.44747 34.803276 364.83597
40.400993 34.94924 365.42456
40.381615 35.224876 365.96707
40.381615 35.22489 365.96707
40.443825 35.794395 366.52957
40.52677 36.39573 367.0476
40.60563 36.934227 367.50717
40.60563 36.934242 367.5072
40.717537 37.452736 367.96033
40.95304 37.94445 368.43433
41.425438 38.362907 368.96445
42.101814 38.76687 369.63446
42.10183 38.766884 369.6345
42.80813 39.19027 370.43204
43.45121 39.5904 371.2774
44.05181 39.935005 372.10983
44.051765 39.93496 372.1098
44.59768 40.212303 372.8466
45.055992 40.42553 373.40982
45.518272 40.55683 373.86826
45.518227 40.556816 373.86823
45.457893 40.448677 374.66443
15.2649 17.879982 281.6924
20.388573 17.004906 288.83777
27.972847 13.586708 295.31683
35.248985 9.715157 302.1063
39.50306 7.252281 308.5718
41.557854 6.402977 314.10092
41.557854 6.402962 314.1009
43.575706 6.749931 318.46957
46.669365 8.17411 321.9701
50.512108 10.887718 325.78705
53.56974 14.893486 330.8143
54.29705 19.702995 336.5076
52.287224 24.412575 342.06915
48.304146 27.621712 346.9294
48.30413 27.621696 346.9294
44.14675 29.992851 351.3513
41.396004 32.013695 355.2243
41.39602 32.013695 355.2243
40.25846 33.455574 358.03693
40.074196 34.112556 359.79507
40.164772 34.40191 361.10394
40.164757 34.40188 361.10388
40.259758 34.623695 362.27438
40.3254 34.78031 363.2795
40.346718 34.892464 364.11526
40.346718 34.89245 364.11526
40.325798 34.989708 364.79944
40.28161 35.094017 365.36514
40.271584 35.32749 365.88593
40.27157 35.327477 365.88596
40.35668 35.873222 366.44214
40.453987 36.47219 366.96216
40.536507 37.014412 367.42932
40.64637 37.537453 367.89948
40.88166 38.036507 368.40335
41.35955 38.463722 368.9611
42.03672 38.873665 369.63687
42.036736 38.873665 369.6369
42.740593 39.300316 370.42874
43.385185 39.70298 371.27338
43.988747 40.04963 372.10947
43.98873 40.0496 372.10944
44.53681 40.3283 372.85074
44.995323 40.543404 373.41776
45.458916 40.67913 373.87634
45.458885 40.679115 373.8763
15.264915 17.879982 281.6924
15.491737 18.770699 281.5165
20.695168 17.906425 288.70877
27.972862 13.586723 295.31683
28.42492 14.492943 295.2604
35.248985 9.715172 302.10632
35.744347 10.59951 302.1529
39.503075 7.252281 308.5718
39.89509 8.078499 308.67172
41.55787 6.402992 314.10092
41.800957 7.125099 314.11765
41.557854 6.402977 314.1009
41.800926 7.125099 314.11765
43.6894 7.369606 318.34558
46.669365 8.174126 321.9701
46.665398 8.732552 321.74274
50.44233 11.395073 325.48108
53.569725 14.893471 330.81433
53.501793 15.336693 330.47336
54.29705 19.70301 336.5076
54.21026 20.08799 336.17096
52.287224 24.41259 342.06915
52.183754 24.756294 341.7192
48.21061 27.901894 346.67764
48.21058 27.901863 346.67764
44.146767 29.992851 351.35132
44.055656 30.23841 351.15485
41.39602 32.01368 355.2243
41.288307 32.24427 355.05463
41.396034 32.01368 355.2243
41.288292 32.24427 355.05463
40.25846 33.45556 358.03693
40.12371 33.66233 357.92004
40.07421 34.112556 359.79507
39.916893 34.31028 359.72574
39.992256 34.60537 361.06497
40.164757 34.401894 361.10388
39.99224 34.60534 361.06494
40.07734 34.831978 362.2558
40.13897 34.986244 363.27026
40.1625 35.08474 364.10464
40.346718 34.89245 364.1153
40.162514 35.084724 364.1046
40.325813 34.989723 364.79944
40.149284 35.15647 364.77798
40.281624 35.094032 365.36517
40.11669 35.226723 365.32486
40.2716 35.327507 365.88596
40.125053 35.425697 365.82428
40.271584 35.327507 365.88596
40.125053 35.425713 365.82428
40.356697 35.873238 366.44214
40.237465 35.949593 366.3684
40.454002 36.472206 366.96222
40.350456 36.54618 366.88672
40.53649 37.014397 367.42932
40.437553 37.091972 367.3609
40.536507 37.014397 367.42935
40.64637 37.537468 367.8995
40.547585 37.61944 367.85056
40.88166 38.036522 368.40335
40.78675 38.125633 368.38907
41.35955 38.463722 368.96112
41.273705 38.561317 368.9784
41.951286 38.976997 369.66083
41.9513 38.977013 369.66086
42.650246 39.406837 370.44586
43.294945 39.81196 371.28873
43.901207 40.16059 372.1282
43.901176 40.16056 372.12817
44.45182 40.440575 372.8745
44.911186 40.65751 373.44666
45.375374 40.7987 373.90747
45.4589 40.67913 373.8763
45.37536 40.7987 373.90744
45.45791 40.44866 374.6644
9.261086 18.968193 277.1362
15.514534 19.640633 281.43567
20.79914 18.76966 288.72498
28.686028 15.357735 295.39404
36.03408 11.444038 302.37213
40.08219 8.871147 308.8865
41.872047 7.820107 314.21344
41.872047 7.820107 314.2134
43.671135 7.966148 318.30753
46.560265 9.270149 321.62415
50.276756 11.883522 325.2856
53.32383 15.763786 330.20593
54.006157 20.45707 335.84244
51.965553 25.078804 341.32278
48.031258 28.162956 346.3761
48.031227 28.162941 346.37607
43.89245 30.46717 350.91614
41.10929 32.459084 354.85483
39.920967 33.853783 357.7955
39.696205 34.483482 359.66138
39.758766 34.77349 361.0331
39.758736 34.773476 361.03308
39.835075 34.999825 362.2452
39.89431 35.150764 363.27057
39.923622 35.238518 364.10687
39.923637 35.238518 364.1069
39.923424 35.291695 364.7747
39.907707 35.339302 365.3087
39.938484 35.51548 365.78845
39.93847 35.51548 365.78848
40.081703 36.020668 366.31384
40.21157 36.615105 366.82568
40.304268 37.164223 367.30612
40.304268 37.164238 367.30615
40.417213 37.69581 367.81778
40.66523 38.20867 368.3959
41.165413 38.65223 369.021
41.842903 39.07331 369.71097
41.84292 39.073326 369.711
42.534065 39.506065 370.4879
43.177147 39.913475 371.32782
43.785652 40.263954 372.1702
43.78562 40.263924 372.17017
44.33924 40.54519 372.922
44.80018 40.763786 373.5008
45.26394 40.909935 373.96704
45.263924 40.90992 373.967
45.457893 40.44866 374.66443
9.261086 18.968178 277.13617
15.345894 20.485207 281.44437
20.71508 19.593178 288.8752
28.769234 16.179955 295.70276
36.132103 12.247643 302.75
40.07876 9.628914 309.20663
41.783592 8.486702 314.38196
41.783577 8.486687 314.38193
43.530815 8.538383 318.34906
46.361977 9.785805 321.60657
50.02317 12.352028 325.19327
53.040733 16.17382 330.00757
53.67594 20.802345 335.5226
51.609962 25.355324 340.88556
47.747612 28.380562 346.02713
47.74758 28.380547 346.02713
43.642464 30.657524 350.63614
40.84559 32.637794 354.62738
39.64045 34.01168 357.66882
39.4125 34.61431 359.60782
39.47341 34.888527 361.01215
39.47338 34.888496 361.01212
39.545494 35.11022 362.2445
39.60517 35.257744 363.28152
39.643578 35.338753 364.1237
39.643562 35.338737 364.1237
39.659996 35.381706 364.79337
39.66137 35.42016 365.32437
39.711433 35.588203 365.78967
39.711433 35.588203 365.7896
39.886818 36.079796 366.28882
40.034035 36.672447 366.78824
40.133324 37.224327 367.27347
40.13334 37.224342 367.27347
40.252678 37.7593 367.80908
40.5158 38.277687 368.4308
41.03402 38.72785 369.09485
41.710686 39.15339 369.79303
41.7107 39.153404 369.7931
42.390633 39.588585 370.56076
43.029915 39.997902 371.39615
43.63987 40.349907 372.2407
43.639854 40.349876 372.24066
44.19674 40.632133 372.99838
44.66021 40.852135 373.58542
45.124123 40.99984 374.06018
45.124107 40.999825 374.06015
45.45788 40.44866 374.66437
9.261101 18.968193 277.1362
9.261116 18.968193 277.13623
15.345924 20.485237 281.44437
14.987938 21.315117 281.54047
20.715096 19.593208 288.87524
20.456093 20.392204 289.15164
28.769234 16.17997 295.7028
28.689262 16.974953 296.17783
36.13212 12.247658 302.75003
36.054527 13.025215 303.27997
40.07879 9.628944 309.20667
39.899345 10.365669 309.62878
41.783623 8.486702 314.38196
41.546516 9.136864 314.62015
41.783607 8.486702 314.38193
41.546516 9.136848 314.62015
43.53083 8.538399 318.34906
43.275658 9.096626 318.46487
46.361977 9.78582 321.6066
46.07473 10.288826 321.68222
50.0232 12.352043 325.1933
49.684547 12.808952 325.19498
53.040764 16.173836 330.0076
52.65043 16.568657 329.87457
53.675987 20.802345 335.52267
53.205315 21.095894 335.23297
51.609978 25.35534 340.88565
51.101128 25.51339 340.45987
47.747643 28.380577 346.0272
47.351036 28.484505 345.67056
47.747612 28.380562 346.02716
47.35102 28.48449 345.67056
43.642494 30.65754 350.6362
43.30134 30.747353 350.34518
40.84562 32.63781 354.6274
40.496925 32.72216 354.4008
40.845604 32.637825 354.6274
40.49691 32.72216 354.4008
39.64048 34.011696 357.66888
39.289406 34.085457 357.56384
39.412514 34.61434 359.60782
39.08129 34.668846 359.57925
39.473427 34.888542 361.01218
39.156075 34.92991 361.00827
39.473396 34.88851 361.01218
39.15606 34.92988 361.00824
39.54551 35.11022 362.24454
39.229637 35.147926 362.25583
39.6052 35.257744 363.28156
39.292854 35.293785 363.30386
39.643593 35.338768 364.1237
39.343605 35.372643 364.15613
39.343605 35.372627 364.15613
39.66001 35.38172 364.79337
39.380074 35.413002 364.8379
39.6614 35.42019 365.32437
39.39878 35.451744 365.3837
39.71145 35.58822 365.78967
39.463234 35.6215 365.8502
39.71145 35.58822 365.7896
39.886833 36.07981 366.28882
39.667274 36.10772 366.317
40.034065 36.672478 366.78827
39.829185 36.69953 366.79688
40.133354 37.224358 367.2735
39.935432 37.25274 367.2835
40.133354 37.224373 367.2735
39.935448 37.25274 367.28348
40.252693 37.75933 367.8091
40.065575 37.789284 367.84137
40.5158 38.277718 368.43085
40.350853 38.310295 368.50458
41.034065 38.727882 369.0949
40.891304 38.763542 369.20508
41.710716 39.15342 369.79312
41.566216 39.1912 369.91098
41.71073 39.153435 369.79312
41.56623 39.191216 369.911
42.390648 39.588615 370.56085
42.23162 39.627556 370.66953
43.02993 39.997932 371.3962
42.86428 40.037804 371.49887
43.639885 40.349937 372.24075
43.474144 40.39051 372.34384
43.639854 40.349907 372.24072
43.474144 40.390465 372.3438
44.196754 40.63215 372.99844
44.034218 40.673195 373.10672
44.660225 40.85218 373.58545
44.501167 40.893898 373.70288
45.124138 40.99987 374.06018
44.96775 41.04142 374.18646
45.124107 40.999855 374.06018
44.967735 41.04142 374.18643
45.45791 40.448692 374.66443
9.261101 18.968178 277.13623
14.415825 22.113777 281.7363
20.006172 21.155678 289.5648
28.429512 17.731483 296.83185
35.783363 13.765877 303.9726
39.527016 11.071327 310.1593
41.147423 9.761955 314.93283
41.147408 9.76194 314.9328
42.896156 9.633446 318.6616
45.69207 10.772575 321.8601
49.255333 13.248177 325.30072
52.144203 16.934425 329.82294
52.599754 21.286873 335.03085
50.490303 25.45179 340.16794
46.89434 28.380074 345.4069
46.89431 28.380058 345.40686
42.918404 30.653221 350.123
40.11837 32.633766 354.24243
40.118355 32.633766 354.24246
38.92939 34.00802 357.52322
38.750587 34.610435 359.5933
38.83947 34.884224 361.02615
38.83944 34.88421 361.02612
38.915337 35.105858 362.27972
38.983727 35.25347 363.33636
39.049873 35.33477 364.20227
39.049873 35.334755 364.20227
39.112312 35.378227 364.90677
39.16079 35.41752 365.4905
39.25097 35.58645 365.9849
39.250984 35.586464 365.9849
39.474113 36.07847 366.4199
39.64219 36.67115 366.87488
39.753807 37.222984 367.35718
39.898476 37.75785 367.92813
40.210426 38.2761 368.61713
40.773003 38.726128 369.33926
41.445152 39.15159 370.04987
41.445168 39.151604 370.04987
42.095207 39.586723 370.80194
42.718773 39.99601 371.62466
43.326195 40.34797 372.4672
43.32618 40.34797 372.46716
43.88833 40.63018 373.23276
44.35923 40.85018 373.83688
44.825996 41.003807 374.32904
44.82598 41.00379 374.329
45.45791 40.448677 374.66443
9.261086 18.968193 277.13623
13.596169 22.830147 282.052
19.330238 21.85151 290.1371
27.952065 18.41697 297.69092
35.277473 14.437904 304.84863
38.923744 11.71682 310.8099
40.557014 10.3368 315.32974
40.557014 10.336784 315.3297
42.372017 10.127205 318.95395
45.20124 11.217537 322.16104
48.725502 13.651665 325.53424
51.522453 17.237251 329.89075
51.912178 21.34742 334.96875
49.896126 25.243614 340.027
46.47538 28.15487 345.25064
46.475365 28.154854 345.25064
42.573463 30.454018 349.98422
39.784935 32.44674 354.15622
39.78492 32.44674 354.15625
38.623802 33.842857 357.53244
38.46496 34.47425 359.63654
38.55535 34.765068 361.0607
38.555336 34.765053 361.06067
38.62995 34.991493 362.3129
38.7033 35.14263 363.37543
38.786583 35.23089 364.25647
38.879692 35.284935 364.98865
38.969566 35.333427 365.6175
39.097176 35.5104 366.14673
39.331413 36.016563 366.55457
39.498955 36.611107 366.98535
39.61399 37.16001 367.46027
39.773155 37.691322 368.03598
40.110176 38.203804 368.73608
40.691093 38.64695 369.4664
41.36033 39.06774 370.17883
41.36033 39.06774 370.1789
41.997063 39.500328 370.92746
42.611473 39.9076 371.74423
43.21531 40.257973 372.58292
43.21528 40.257942 372.5829
43.77842 40.539116 373.34894
44.252846 40.757683 373.9589
44.71714 40.914085 374.46133
44.717125 40.91407 374.4613
45.45791 40.448677 374.6644
9.261101 18.968178 277.1362
12.526894 23.371712 282.4979
18.394157 22.412743 290.8865
27.95208 18.41697 297.69092
27.21296 18.964058 298.7706
34.488945 14.975578 305.91522
38.923744 11.716805 310.80994
38.049156 12.240898 311.5805
39.74749 10.808083 315.8144
39.747475 10.808067 315.81436
42.372 10.12722 318.95395
41.68708 10.532219 319.35602
45.201225 11.217537 322.16104
44.596306 11.582481 322.6079
48.725487 13.651665 325.53424
48.09487 13.981651 325.9243
51.522438 17.237236 329.89078
50.818123 17.431755 330.11475
51.912163 21.34742 334.96875
51.236336 21.252678 335.07095
49.390144 24.96479 340.00693
46.47538 28.154884 345.25067
46.13685 27.893272 345.17725
46.475365 28.154854 345.25067
46.136818 27.893257 345.17722
42.29856 30.224052 349.91174
39.78492 32.44674 354.15622
39.52384 32.230827 354.1226
39.523857 32.230827 354.1226
38.623787 33.842857 357.53247
38.391594 33.650276 357.56857
38.242058 34.299004 359.69308
38.55535 34.765053 361.0607
38.323723 34.594 361.1044
38.55532 34.765038 361.06067
38.323708 34.593987 361.10437
38.629936 34.991493 362.3129
38.393852 34.820427 362.35092
38.703316 35.142616 363.37546
38.471413 34.97483 363.4169
38.786583 35.23089 364.2565
38.571617 35.07406 364.31262
38.786583 35.230873 364.2565
38.571632 35.07406 364.31262
38.6961 35.147194 365.07257
38.96958 35.333458 365.6175
38.830482 35.219215 365.7428
39.09719 35.510414 366.14673
38.99778 35.41996 366.3017
39.237114 35.945076 366.68796
39.498955 36.611122 366.98538
39.40046 36.541817 367.0984
39.61399 37.160027 367.46027
39.517357 37.087395 367.56525
39.517372 37.087395 367.56528
39.77314 37.691322 368.03598
39.688957 37.614586 368.1404
40.110146 38.203804 368.73608
40.046593 38.12037 368.8418
40.69108 38.646965 369.4664
40.641136 38.555565 369.57162
41.360313 39.06774 370.17883
41.307747 38.97094 370.28412
41.307762 38.97097 370.28412
41.934196 39.400597 371.03128
42.61149 39.9076 371.74423
42.54075 39.80558 371.84338
43.215324 40.257973 372.5829
43.140846 40.154076 372.67795
43.215294 40.257942 372.58286
43.140816 40.154076 372.67792
43.77842 40.53913 373.34894
43.704185 40.434 373.44324
44.18151 40.65084 374.0569
44.644264 40.802345 374.56924
44.64425 40.80233 374.5692
45.45791 40.44866 374.66443
11.314018 23.497307 283.0442
17.253197 22.541405 291.74033
26.204521 19.07537 299.93454
33.406334 15.088234 307.0127
36.928963 12.369026 312.33957
38.771965 10.933952 316.31534
38.77195 10.933952 316.3153
40.90876 10.640862 319.84216
43.962334 11.680382 323.19406
47.468163 14.068993 326.49078
50.145195 17.417885 330.51544
50.661293 21.016533 335.30392
48.984627 24.641441 340.07828
45.871986 27.612831 345.16956
45.871956 27.612816 345.16956
42.0866 29.977837 349.89282
39.327065 31.99958 354.1306
38.224266 33.442863 357.6242
38.081932 34.099937 359.75742
38.15348 34.38839 361.1527
38.153465 34.38836 361.15265
38.219017 34.609566 362.39023
38.300438 34.766273 363.4573
38.415916 34.87934 364.36633
38.41593 34.879326 364.36633
38.56849 34.978447 365.15256
38.743065 35.085335 365.86035
38.94462 35.321373 366.44595
38.944633 35.32139 366.44595
39.18325 35.868553 366.8161
39.339714 36.467644 367.20975
39.457207 37.00965 367.66833
39.457222 37.00965 367.66833
39.639214 37.532433 368.23883
40.013405 38.03106 368.9339
40.61747 38.45774 369.65652
41.281776 38.867332 370.36758
41.28179 38.867348 370.3676
41.900627 39.29383 371.11505
42.500496 39.696312 371.92365
43.096886 40.042824 372.75403
43.09687 40.042824 372.754
43.65989 40.321434 373.51758
44.139442 40.53643 374.13327
44.60354 40.679955 374.65195
44.603523 40.67994 374.65192
10.16523 23.106789 283.60165
16.110313 22.101189 292.53445
25.084251 18.617638 300.9445
32.197533 14.644905 307.90436
35.751488 11.974037 312.9151
37.806343 10.600349 316.7251
37.806343 10.600349 316.72507
40.187157 10.35508 320.32507
43.433266 11.422859 323.82364
46.985237 13.834297 327.15118
49.62455 17.171791 331.0286
50.22767 20.69767 335.5993
48.676582 24.297691 340.2137
45.6728 27.323082 345.21545
45.672783 27.323067 345.21545
41.930367 29.72358 349.9179
39.186836 31.76081 354.17236
39.18685 31.76081 354.17236
38.11396 33.227943 357.69443
37.98191 33.887154 359.826
38.047615 34.161552 361.2025
38.0476 34.161537 361.20248
38.110924 34.37371 362.42828
38.19639 34.531883 363.49432
38.324486 34.660652 364.41498
38.324486 34.660637 364.415
38.499443 34.790337 365.2254
38.70524 34.939568 365.96756
38.9311 35.218437 366.5782
39.163445 35.789543 366.93716
39.31098 36.39103 367.31723
39.428017 36.92933 367.7676
39.428017 36.929344 367.7676
39.6186 37.447563 368.33026
40.005684 37.938805 369.01288
40.61573 38.35668 369.72305
41.278023 38.760292 370.43158
41.278038 38.760323 370.43158
41.89158 39.18354 371.18066
42.48591 39.58349 371.9867
43.078697 39.92794 372.81293
43.078667 39.927925 372.8129
43.640877 40.205193 373.57404
44.122124 40.418327 374.19034
44.58967 40.553474 374.71176
44.589653 40.55346 374.71173
9.252083 22.45353 284.07272
15.17672 21.425346 293.14926
24.108025 17.927544 301.68286
31.14112 13.973869 308.51733
34.758965 11.36071 313.28262
37.024025 10.072578 317.0087
37.02401 10.072563 317.00867
39.629982 9.902473 320.71735
43.06002 11.014977 324.36148
46.671135 13.463371 327.7425
49.276375 16.827217 331.5224
49.92971 20.341957 335.9152
48.460762 23.94091 340.4052
45.536644 27.0252 345.31238
45.536613 27.025185 345.31235
41.827736 29.462257 349.98492
39.100914 31.515434 354.24628
38.05848 33.006767 357.77856
37.941246 33.665886 359.89798
38.007072 33.92341 361.25256
38.007042 33.923393 361.25253
38.07145 34.125084 362.464
38.161278 34.28437 363.52686
38.298912 34.42974 364.45712
38.48957 34.59217 365.28958
38.716454 34.7871 366.06332
38.95574 35.112267 366.69846
38.95574 35.11228 366.69843
39.17623 35.70838 367.05136
39.312874 36.31231 367.42108
39.428444 36.846794 367.8631
39.428444 36.846794 367.86313
39.62583 37.360344 368.41486
40.022224 37.844 369.07928
40.634865 38.252907 369.77197
41.29554 38.650307 370.47687
41.295555 38.650337 370.4769
41.90603 39.070168 371.2289
42.495934 39.46752 372.0333
43.085213 39.809883 372.85544
43.085197 39.809853 372.8554
43.646126 40.085747 373.61337
44.12847 40.29693 374.2289
44.600197 40.42437 374.7505
44.60015 40.424355 374.7505
45.45791 40.448692 374.6644
9.261116 18.968208 277.13623
9.261101 18.968193 277.13623
8.600548 21.686623 284.43423
15.176735 21.425362 293.14926
14.47126 20.66137 293.5866
24.108025 17.927559 301.68286
23.321297 17.152855 302.17148
31.141136 13.973885 308.51733
30.287468 13.219429 308.88812
34.758965 11.360725 313.28265
33.984306 10.664482 313.47818
37.02404 10.072578 317.0087
36.43798 9.469215 317.18213
37.024025 10.072563 317.0087
36.43798 9.4692 317.1821
39.630013 9.902473 320.71735
39.23475 9.384895 321.01196
43.06005 11.014977 324.36148
42.825096 10.548576 324.7869
46.671135 13.463387 327.7425
46.49807 13.039436 328.23102
49.276405 16.827217 331.5224
49.075066 16.443245 331.96262
49.929726 20.341957 335.91525
49.753227 19.966438 336.2424
48.460793 23.940926 340.40524
48.338356 23.568031 340.6586
45.53666 27.0252 345.31238
45.46737 26.713676 345.4666
45.46734 26.713661 345.4666
41.82775 29.462257 349.98495
41.782265 29.18888 350.0991
39.100914 31.51545 354.2463
39.07325 31.258781 354.35663
38.058495 33.006783 357.7786
38.062004 32.775856 357.87897
37.94126 33.6659 359.89798
37.96212 33.43847 359.9736
38.007088 33.923424 361.2526
38.032097 33.68197 361.30203
38.03208 33.681953 361.302
38.100105 33.87417 362.49625
38.16131 34.28437 363.52686
38.19442 34.03498 363.55377
38.298927 34.429756 364.45715
38.338387 34.19703 364.49167
38.298927 34.42977 364.45715
38.3384 34.19703 364.49164
38.48957 34.59217 365.2896
38.5384 34.39196 365.34378
38.716484 34.787117 366.06332
38.77781 34.6316 366.14697
38.955757 35.11228 366.6985
39.021996 35.001793 366.80722
38.955757 35.112297 366.69846
39.02201 35.00181 366.80722
39.17623 35.70838 367.0514
39.224968 35.62345 367.15967
39.31289 36.312325 367.42108
39.348427 36.22999 367.5224
39.42846 36.846794 367.86313
39.461403 36.76046 367.95596
39.42846 36.846794 367.86316
39.46142 36.76046 367.956
39.625847 37.36036 368.4149
39.663765 37.26908 368.49326
40.02224 37.844017 369.07935
40.065727 37.74482 369.13287
40.63488 38.252922 369.772
40.677284 38.144295 369.8022
41.295555 38.650322 370.4769
41.336586 38.53527 370.5023
41.29557 38.650352 370.4769
41.3366 38.535286 370.5023
41.906044 39.070183 371.22894
41.946495 38.951622 371.25873
42.49595 39.467552 372.03333
42.53309 39.34623 372.0625
43.085213 39.8099 372.85547
43.118874 39.686394 372.88052
43.085213 39.809853 372.8554
43.11886 39.686348 372.8805
43.64614 40.085747 373.61337
43.678 39.960793 373.63446
44.12847 40.296944 374.22897
44.16091 40.169975 374.2478
44.600197 40.4244 374.75055
44.63636 40.2911 374.7676
44.600166 40.424385 374.75052
44.63633 40.291084 374.76758
45.457924 40.448692 374.66446
8.178627 20.875786 284.69476
13.965553 19.856956 293.87262
22.707588 16.340782 302.45145
29.619423 12.427742 309.06033
33.404 9.929329 313.5351
36.023064 8.829399 317.26495
36.023064 8.829399 317.26492
38.977562 8.83596 321.22144
42.704475 10.053917 325.11096
46.439278 12.589806 328.62354
48.99758 16.038902 332.3498
49.691765 19.577782 336.58124
48.315086 23.18435 340.97452
45.470863 26.393532 345.6792
45.470833 26.393517 345.6792
41.79882 28.907967 350.26132
39.108345 30.995003 354.5038
39.10833 30.995003 354.5038
38.128227 32.539314 357.9948
38.04554 33.211845 360.05118
38.12121 33.44735 361.34927
38.121193 33.447334 361.34924
38.19439 33.632545 362.524
38.292793 33.795464 363.57416
38.43992 33.973442 364.51724
38.43992 33.973427 364.51724
38.643288 34.198692 365.38605
38.888206 34.478737 366.21576
39.130943 34.889336 366.90158
39.13096 34.88935 366.90155
39.31118 35.53614 367.25955
39.419243 36.145332 367.61896
39.52848 36.671715 368.04413
39.528496 36.671715 368.04413
39.733727 37.175316 368.5634
40.137154 37.64289 369.17163
40.743736 38.03266 369.81186
41.40203 38.417046 370.5059
41.402046 38.417046 370.50592
42.01394 38.829765 371.2683
42.59852 39.221596 372.0725
43.1809 39.55947 372.88644
43.180885 39.559456 372.8864
43.73774 39.832344 373.6356
44.22059 40.039482 374.24512
44.69906 40.15615 374.76102
44.699043 40.156136 374.76102
45.457893 40.448647 374.66437
7.949898 20.051674 284.86807
13.635048 19.03492 294.02774
22.249138 15.51371 302.55338
29.118065 11.620811 309.06485
32.995888 9.176476 313.47614
35.75791 8.171974 317.27118
35.75791 8.171974 317.27115
38.839684 8.271782 321.35617
42.68084 9.54554 325.34494
46.476326 12.127724 328.92896
49.031105 15.622429 332.68796
49.74877 19.183723 336.92834
48.39907 22.81556 341.33652
45.552498 26.090614 345.9373
45.552483 26.090584 345.9373
41.880836 28.642464 350.462
39.208214 30.745674 354.67847
39.2082 30.74569 354.67847
38.25643 32.316154 358.1178
38.188484 33.001488 360.1253
38.270073 33.23324 361.39154
38.270058 33.233208 361.3915
38.3491 33.41358 362.54565
38.45072 33.578926 363.58694
38.59765 33.771233 364.53247
38.597633 33.771248 364.53247
38.798454 34.023247 365.4136
39.04168 34.338234 366.26413
39.27677 34.783653 366.97278
39.276756 34.783653 366.97278
39.43061 35.453636 367.3422
39.522255 36.06533 367.7025
39.626823 36.587852 368.11996
39.62684 36.587852 368.11996
39.83245 37.086708 368.61893
40.232796 37.546577 369.19128
40.83059 37.927177 369.79874
41.48832 38.305275 370.48584
41.488335 38.305305 370.48587
42.10485 38.714638 371.2553
42.688988 39.103798 372.06116
43.268425 39.439537 372.87137
43.268394 39.439507 372.87134
43.822594 39.710976 373.61526
44.304695 39.91613 374.21964
44.78582 40.030067 374.72943
44.785805 40.030052 374.72943
7.902733 19.211586 284.95892
13.478706 18.19088 294.05222
21.944176 14.667259 302.47696
28.78138 10.79438 308.90094
32.758507 8.401833 313.30048
35.641685 7.493401 317.20053
35.641685 7.493385 317.2005
38.820854 7.689384 321.41675
42.75437 9.020683 325.48962
46.609795 11.650688 329.1484
49.17826 15.194237 332.97583
49.93032 18.79789 337.2709
48.59411 22.494179 341.71863
45.713295 25.835686 346.2214
45.71328 25.83567 346.22137
42.027885 28.419472 350.6862
39.370644 30.536293 354.86688
39.37063 30.536324 354.86688
38.441338 32.128746 358.23694
38.383766 32.825233 360.18912
38.470634 33.054497 361.42523
38.470604 33.054466 361.42517
38.555534 33.231346 362.55942
38.659325 33.398872 363.59097
38.802544 33.603096 364.5358
38.802544 33.603096 364.53583
38.99479 33.877098 365.42355
39.22866 34.22077 366.28616
39.449715 34.694923 367.01154
39.4497 34.69494 367.01154
39.57563 35.384315 367.39758
39.65116 35.998146 367.76346
39.75048 36.517418 368.1747
39.75048 36.517418 368.17474
39.953682 37.01226 368.65286
40.346184 37.46569 369.18768
40.9318 37.83857 369.76126
41.58956 38.211433 370.44122
41.589592 38.211433 370.44125
42.213173 38.617897 371.2183
42.798607 39.004845 372.0269
43.375862 39.3388 372.8342
43.375847 39.338783 372.83417
43.92724 39.609062 373.57288
44.407936 39.81257 374.17108
44.89103 39.9253 374.6731
44.891014 39.9253 374.6731
8.046776 18.345085 284.96347
13.511284 17.312035 293.9339
21.803612 13.788841 302.204
28.62107 9.936058 308.55035
32.70536 7.593544 312.99478
35.68731 6.783073 317.0447
35.68731 6.783058 317.0447
38.93226 7.079613 321.39667
42.935432 8.471214 325.53818
46.850624 11.151436 329.27634
49.447014 14.756783 333.20474
50.23458 18.442772 337.58704
48.89332 22.246925 342.0936
45.946358 25.65104 346.51187
45.946327 25.651024 346.51184
42.233223 28.258415 350.91867
39.587547 30.385078 355.05597
39.587547 30.385078 355.056
38.67283 31.993355 358.34317
38.620293 32.69741 360.23737
38.711555 32.92449 361.44763
38.71154 32.92446 361.4476
38.802162 33.098793 362.56418
38.906868 33.268013 363.5856
39.042946 33.480843 364.52655
39.04293 33.480843 364.52655
39.220787 33.77085 365.41428
39.437614 34.13549 366.2789
39.63868 34.630806 367.0129
39.63868 34.630806 367.01294
39.737022 35.334267 367.41983
39.798042 35.94964 367.79578
39.891838 36.466576 368.20303
39.891853 36.46659 368.203
40.089836 36.958534 368.6612
40.469994 37.40725 369.15973
41.04075 37.774544 369.70078
41.699165 38.143623 370.37387
41.69918 38.14364 370.3739
42.332024 38.548042 371.15863
42.920525 38.933388 371.9709
43.4965 39.26603 372.77643
43.496468 39.266 372.77637
44.04516 39.53544 373.51016
44.52381 39.73777 374.10162
45.007545 39.8509 374.59518
45.00753 39.8509 374.59515
8.389397 17.47834 284.87616
13.743813 16.42527 293.6675
21.842628 12.90554 301.7311
28.65374 9.072273 308.01273
32.849983 6.776237 312.56082
35.903618 6.062447 316.8035
35.903603 6.062431 316.8035
39.178642 6.46093 321.2915
43.224846 7.913689 325.48288
47.197594 10.645134 329.30252
49.832542 14.330101 333.35867
50.64759 18.146431 337.85098
49.27987 22.092384 342.4362
46.23812 25.549446 346.79044
46.238106 25.54943 346.7904
42.48478 28.170372 351.1449
39.846092 30.302391 355.2338
38.937035 31.919289 358.42953
38.8841 32.627235 360.26666
38.979134 32.85299 361.45688
38.97912 32.852974 361.45682
39.075325 33.025963 362.55917
39.17968 33.19616 363.5709
39.305473 33.41375 364.5048
39.305473 33.41375 364.50482
39.463432 33.71247 365.3859
39.656044 34.088676 366.2421
39.831993 34.59571 366.97626
39.904823 35.306923 367.4071
39.953865 35.923103 367.7971
40.04229 36.43876 368.2026
40.042305 36.43876 368.20264
40.232613 36.92913 368.64307
40.59661 37.375313 369.10876
41.150703 37.739555 369.62076
41.810356 38.10656 370.2877
41.810356 38.10659 370.28775
42.454018 38.50985 371.07965
43.047203 38.89428 371.89636
43.622963 39.22622 372.70126
43.622917 39.22619 372.70123
44.169075 39.495186 373.43082
44.64518 39.696907 374.01523
45.1276 39.81167 374.50098
45.12757 39.811653 374.50098
8.389397 17.47834 284.8762
8.988838 16.611351 284.67157
14.218407 15.550865 293.2242
21.842613 12.905525 301.7311
22.103264 12.038307 301.02216
28.924751 8.223396 307.25674
33.236107 5.968239 311.9787
35.903618 6.062462 316.8035
36.326042 5.347191 316.4624
35.903603 6.062447 316.80347
36.326042 5.347176 316.46237
39.178627 6.46093 321.29147
39.58602 5.846718 321.08347
43.64141 7.360191 325.3003
47.667503 10.142845 329.20203
49.832558 14.330101 333.35867
50.35421 13.925819 333.4172
50.64759 18.146431 337.851
51.188347 17.923286 338.05075
49.279884 22.092384 342.43622
49.769524 22.043571 342.74384
46.238136 25.549461 346.79044
46.59939 25.541496 347.05795
46.238106 25.549446 346.7904
46.599373 25.541496 347.05795
42.791237 28.164604 351.36612
39.846092 30.302391 355.23383
40.15435 30.29702 355.40036
39.846092 30.302406 355.23383
38.93705 31.919289 358.42957
39.241737 31.914696 358.49405
38.8841 32.627235 360.26663
39.18931 32.62481 360.27383
38.979134 32.85299 361.45685
39.293663 32.85244 361.4497
39.293648 32.852425 361.44968
39.075325 33.025963 362.55914
39.396965 33.026146 362.54117
39.499596 33.196556 363.54315
39.305473 33.413765 364.5048
39.61039 33.414085 364.46588
39.463448 33.712486 365.38593
39.739876 33.712456 365.33194
39.65603 34.088676 366.24213
39.894722 34.087746 366.16846
39.831978 34.59571 366.97626
40.03324 34.593773 366.89542
39.831978 34.595726 366.97626
40.033257 34.593758 366.89542
39.90484 35.306923 367.4071
40.08155 35.305138 367.3544
40.121346 35.921364 367.76312
40.04229 36.438774 368.2026
40.204506 36.436928 368.16965
40.042305 36.438774 368.20264
40.232613 36.92913 368.6431
40.38418 36.927223 368.5947
40.59661 37.375313 369.10873
40.727608 37.373222 369.03107
41.262794 37.737297 369.51776
41.924324 38.104164 370.17926
41.92434 38.104164 370.1793
42.454002 38.50985 371.07965
42.58068 38.507362 370.97797
43.047203 38.89425 371.89636
43.180473 38.891747 371.8001
43.622963 39.226204 372.70126
43.75718 39.223625 372.6057
43.622917 39.226173 372.70123
43.757133 39.22361 372.60568
44.169075 39.49517 373.4308
44.301003 39.492546 373.33182
44.645164 39.696907 374.01523
44.77395 39.694252 373.90887
45.127586 39.81167 374.50098
45.254753 39.812187 374.38544
45.127556 39.811653 374.50098
45.254723 39.812172 374.3854
POLYGONS 1742 6968
3 0 1 2
3 0 2 3
3 3 2 4
3 3 4 5
3 5 4 6
3 5 6 7
3 7 6 8
3 7 8 9
3 9 8 10
3 9 10 11
3 11 10 12
3 13 14 15
3 15 14 16
3 15 16 17
3 17 16 18
3 17 18 19
3 19 18 20
3 19 20 21
3 21 20 22
3 21 22 23
3 23 22 24
3 23 24 25
3 25 24 26
3 25 26 27
3 27 26 28
3 29 30 31
3 31 30 32
3 31 32 33
3 33 32 34
3 33 34 35
3 35 34 36
3 35 36 37
3 37 36 38
3 37 38 39
3 39 38 40
3 41 42 43
3 43 42 44
3 43 44 45
3 45 44 46
3 45 46 47
3 47 46 48
3 49 50 51
3 51 50 52
3 51 52 53
3 53 52 54
3 53 54 55
3 55 54 56
3 55 56 57
3 57 56 58
3 57 58 59
3 59 58 60
3 59 60 61
3 61 60 62
3 61 63 64
3 64 63 65
3 64 65 66
3 66 65 67
3 66 67 68
3 68 67 69
3 68 69 70
3 70 69 71
3 72 73 74
3 74 73 75
3 74 75 76
3 76 75 77
3 76 77 78
3 78 77 79
3 80 81 82
3 82 81 83
3 82 83 84
3 84 83 85
3 84 85 86
3 86 85 87
3 88 89 90
3 90 89 91
3 1 92 2
3 2 92 93
3 2 93 4
3 4 93 94
3 4 94 6
3 6 94 95
3 6 95 8
3 8 95 96
3 8 96 10
3 10 96 97
3 10 97 12
3 12 97 98
3 14 99 16
3 16 99 100
3 16 100 18
3 18 100 101
3 18 101 20
3 20 101 102
3 20 102 22
3 22 102 103
3 22 103 24
3 24 103 104
3 24 104 26
3 26 104 105
3 26 105 28
3 28 105 106
3 30 107 32
3 32 107 108
3 32 108 34
3 34 108 109
3 34 109 36
3 36 109 110
3 36 110 38
3 38 110 111
3 38 111 40
3 40 111 112
3 42 113 44
3 44 113 114
3 44 114 46
3 46 114 115
3 46 115 48
3 48 115 116
3 50 117 52
3 52 117 118
3 52 118 54
3 54 118 119
3 54 119 56
3 56 119 120
3 56 120 58
3 58 120 121
3 58 121 60
3 60 121 122
3 60 122 62
3 62 122 123
3 63 123 65
3 65 123 124
3 65 124 67
3 67 124 125
3 67 125 69
3 69 125 126
3 69 126 71
3 71 126 127
3 73 128 75
3 75 128 129
3 75 129 77
3 77 129 130
3 77 130 79
3 79 130 131
3 81 132 83
3 83 132 133
3 83 133 85
3 85 133 134
3 85 134 87
3 87 134 135
3 89 136 91
3 92 1 93
3 93 1 137
3 93 137 94
3 94 137 138
3 94 138 95
3 95 138 139
3 95 139 96
3 96 139 140
3 96 140 97
3 97 140 141
3 97 141 98
3 98 141 142
3 99 143 100
3 100 143 144
3 100 144 101
3 101 144 145
3 101 145 102
3 102 145 146
3 102 146 103
3 103 146 147
3 103 147 104
3 104 147 148
3 104 148 105
3 105 148 149
3 105 149 106
3 106 149 150
3 107 151 108
3 108 151 152
3 108 152 109
3 109 152 153
3 109 154 110
3 110 154 155
3 110 155 111
3 111 155 156
3 111 156 112
3 112 156 157
3 113 158 114
3 114 158 159
3 114 159 115
3 115 159 160
3 115 160 116
3 116 160 161
3 117 162 118
3 118 162 163
3 118 163 119
3 119 163 164
3 119 164 120
3 120 164 165
3 120 166 121
3 121 166 167
3 121 167 122
3 122 167 168
3 122 168 123
3 123 168 169
3 123 170 124
3 124 170 171
3 124 171 125
3 125 171 172
3 125 172 126
3 126 172 173
3 126 173 127
3 127 173 174
3 128 175 129
3 129 175 176
3 129 176 130
3 130 176 177
3 130 177 131
3 131 177 178
3 132 179 133
3 133 179 180
3 133 180 134
3 134 180 181
3 134 181 135
3 135 181 182
3 136 183 91
3 91 183 184
3 137 185 186
3 137 186 138
3 138 186 187
3 138 187 139
3 139 187 188
3 139 188 140
3 140 188 189
3 140 189 141
3 141 189 190
3 141 190 142
3 142 190 191
3 143 192 144
3 144 192 193
3 144 193 145
3 145 193 194
3 145 194 146
3 146 194 195
3 146 195 147
3 147 195 196
3 147 196 148
3 148 196 197
3 148 197 149
3 149 197 198
3 149 198 150
3 150 198 199
3 151 200 152
3 152 200 201
3 152 201 153
3 153 201 202
3 154 203 155
3 155 203 204
3 155 204 156
3 156 204 205
3 156 205 157
3 157 205 206
3 158 207 159
3 159 207 208
3 159 208 160
3 160 208 209
3 160 209 161
3 161 209 210
3 162 211 163
3 163 211 212
3 163 212 164
3 164 212 213
3 164 213 165
3 165 213 214
3 166 215 167
3 167 215 216
3 167 216 168
3 168 216 217
3 168 217 169
3 169 217 218
3 170 219 171
3 171 219 220
3 171 220 172
3 172 220 221
3 172 221 173
3 173 221 222
3 173 222 174
3 174 222 223
3 175 224 176
3 176 224 225
3 176 225 177
3 177 225 226
3 177 226 178
3 178 226 227
3 179 228 180
3 180 228 229
3 180 229 181
3 181 229 230
3 181 230 182
3 182 230 231
3 183 232 184
3 184 232 233
3 185 1 186
3 186 1 234
3 186 234 187
3 187 234 235
3 187 235 188
3 188 235 236
3 188 236 189
3 189 236 237
3 189 237 190
3 190 237 238
3 190 238 191
3 191 238 239
3 192 240 193
3 193 240 241
3 193 241 194
3 194 241 242
3 194 242 195
3 195 242 243
3 195 243 196
3 196 243 244
3 196 244 197
3 197 244 245
3 197 245 198
3 198 245 246
3 198 246 199
3 199 246 247
3 200 248 201
3 201 248 249
3 201 249 202
3 202 249 250
3 203 251 204
3 204 251 252
3 204 252 205
3 205 252 253
3 205 253 206
3 206 253 254
3 207 255 208
3 208 255 256
3 208 256 209
3 209 256 257
3 209 257 210
3 210 257 258
3 211 259 212
3 212 259 260
3 212 260 213
3 213 260 261
3 213 261 214
3 214 261 262
3 215 263 216
3 216 263 264
3 216 264 217
3 217 264 265
3 217 265 218
3 218 265 266
3 219 266 220
3 220 266 267
3 220 267 221
3 221 267 268
3 221 268 222
3 222 268 269
3 222 269 223
3 223 269 270
3 224 271 225
3 225 271 272
3 225 272 226
3 226 272 273
3 226 273 227
3 227 273 274
3 228 275 229
3 229 275 276
3 229 276 230
3 230 276 277
3 230 277 231
3 231 277 278
3 232 279 233
3 233 279 90
3 1 185 280
3 280 185 281
3 280 281 235
3 235 281 282
3 235 282 283
3 283 282 284
3 283 284 285
3 285 284 286
3 285 286 287
3 287 286 288
3 287 288 289
3 289 288 290
3 291 292 241
3 241 292 293
3 241 293 294
3 294 293 295
3 294 295 243
3 243 295 296
3 243 296 297
3 297 296 298
3 297 298 299
3 299 298 300
3 299 300 301
3 301 300 302
3 301 302 247
3 247 302 303
3 248 304 305
3 305 304 306
3 305 306 307
3 307 306 308
3 309 310 311
3 311 310 312
3 311 312 313
3 313 312 314
3 313 314 254
3 254 314 315
3 316 317 256
3 256 317 318
3 256 318 257
3 257 318 319
3 257 319 258
3 258 319 320
3 321 322 323
3 323 322 324
3 323 324 325
3 325 324 326
3 325 326 327
3 327 326 328
3 329 330 331
3 331 330 332
3 331 332 333
3 333 332 334
3 333 334 335
3 335 334 336
3 337 336 338
3 338 336 339
3 338 339 340
3 340 339 341
3 340 341 342
3 342 341 343
3 342 343 270
3 270 343 344
3 271 345 272
3 272 345 346
3 272 346 273
3 273 346 347
3 273 347 274
3 274 347 348
3 275 349 276
3 276 349 350
3 276 350 277
3 277 350 351
3 277 351 278
3 278 351 352
3 353 354 90
3 90 354 355
3 185 356 281
3 281 356 357
3 281 357 282
3 282 357 358
3 282 358 284
3 284 358 359
3 284 359 286
3 286 359 360
3 286 360 288
3 288 360 361
3 288 361 290
3 290 361 362
3 292 363 293
3 293 363 364
3 293 364 295
3 295 364 365
3 295 365 296
3 296 365 366
3 296 366 298
3 298 366 367
3 298 367 300
3 300 367 368
3 300 368 302
3 302 368 369
3 302 369 303
3 303 369 370
3 304 371 306
3 306 371 372
3 306 372 308
3 308 372 373
3 310 373 312
3 312 373 374
3 312 374 314
3 314 374 375
3 314 375 315
3 315 375 376
3 317 377 318
3 318 377 378
3 318 378 319
3 319 378 379
3 319 379 320
3 320 379 380
3 322 381 324
3 324 381 382
3 324 382 326
3 326 382 383
3 326 383 328
3 328 383 384
3 330 385 332
3 332 385 386
3 332 386 334
3 334 386 387
3 334 387 336
3 336 387 388
3 336 389 339
3 339 389 390
3 339 390 341
3 341 390 391
3 341 391 343
3 343 391 392
3 343 392 344
3 344 392 393
3 345 394 346
3 346 394 395
3 346 395 347
3 347 395 396
3 347 396 348
3 348 396 397
3 349 398 350
3 350 398 399
3 350 399 351
3 351 399 400
3 351 400 352
3 352 400 401
3 354 402 355
3 355 402 403
3 356 404 357
3 357 404 405
3 357 405 358
3 358 405 406
3 358 406 359
3 359 406 407
3 359 407 360
3 360 407 408
3 360 408 361
3 361 408 409
3 361 409 362
3 362 409 410
3 363 411 364
3 364 411 412
3 364 412 365
3 365 412 413
3 365 413 366
3 366 413 414
3 366 414 367
3 367 414 415
3 367 415 368
3 368 415 416
3 368 416 369
3 369 416 417
3 369 417 370
3 370 417 418
3 371 419 372
3 372 419 420
3 372 420 373
3 373 420 421
3 373 421 374
3 374 421 422
3 374 422 375
3 375 422 423
3 375 423 376
3 376 423 424
3 377 425 378
3 378 425 426
3 378 426 379
3 379 426 427
3 379 427 380
3 380 427 428
3 381 429 382
3 382 429 430
3 382 430 383
3 383 430 431
3 383 431 384
3 384 431 432
3 385 433 386
3 386 433 434
3 386 434 387
3 387 434 435
3 387 435 388
3 388 435 436
3 389 437 390
3 390 437 438
3 390 438 391
3 391 438 439
3 391 439 392
3 392 439 440
3 392 440 393
3 393 440 441
3 394 442 395
3 395 442 443
3 395 443 396
3 396 443 444
3 396 444 397
3 397 444 445
3 398 446 399
3 399 446 447
3 399 447 400
3 400 447 448
3 400 448 401
3 401 448 449
3 402 450 403
3 403 450 451
3 452 453 454
3 454 453 455
3 454 455 456
3 456 455 457
3 456 457 458
3 458 457 459
3 458 459 460
3 460 459 461
3 460 461 462
3 462 461 463
3 462 463 464
3 464 463 465
3 466 467 468
3 468 467 469
3 468 469 470
3 470 469 471
3 470 471 472
3 472 471 473
3 472 473 474
3 474 473 475
3 474 475 476
3 476 475 477
3 476 477 478
3 478 477 479
3 478 479 480
3 480 479 481
3 482 483 484
3 484 483 485
3 484 485 486
3 486 485 487
3 488 489 490
3 490 489 491
3 490 491 492
3 492 491 493
3 492 493 494
3 494 493 495
3 496 497 498
3 498 497 499
3 498 499 500
3 500 499 501
3 500 501 502
3 502 501 503
3 502 504 505
3 505 504 506
3 505 506 507
3 507 506 508
3 507 508 509
3 509 508 510
3 511 510 512
3 512 510 513
3 512 513 514
3 514 513 515
3 514 515 516
3 516 515 517
3 518 519 520
3 520 519 521
3 520 521 522
3 522 521 523
3 522 523 524
3 524 523 525
3 524 525 526
3 526 525 527
3 528 529 530
3 530 529 531
3 530 531 532
3 532 531 533
3 532 533 534
3 534 533 535
3 536 537 538
3 538 537 539
3 538 539 540
3 540 539 541
3 540 541 542
3 542 541 543
3 544 545 355
3 355 545 546
3 453 547 455
3 455 547 548
3 455 548 457
3 457 548 549
3 457 549 459
3 459 549 550
3 459 550 461
3 461 550 551
3 461 551 463
3 463 551 552
3 463 552 465
3 465 552 553
3 467 554 469
3 469 554 555
3 469 555 471
3 471 555 556
3 471 556 473
3 473 556 557
3 473 557 475
3 475 557 558
3 475 558 477
3 477 558 559
3 477 559 479
3 479 559 560
3 479 560 481
3 481 560 561
3 483 562 485
3 485 562 563
3 485 563 487
3 487 563 564
3 489 565 491
3 491 565 566
3 491 566 493
3 493 566 567
3 493 567 495
3 495 567 568
3 497 569 499
3 499 569 570
3 499 570 501
3 501 570 571
3 501 571 503
3 503 571 572
3 504 573 506
3 506 573 574
3 506 574 508
3 508 574 575
3 508 575 510
3 510 575 576
3 510 577 513
3 513 577 578
3 513 578 515
3 515 578 579
3 515 579 517
3 517 579 580
3 519 580 521
3 521 580 581
3 521 581 523
3 523 581 582
3 523 582 525
3 525 582 583
3 525 583 527
3 527 583 584
3 529 585 531
3 531 585 586
3 531 586 533
3 533 586 587
3 533 587 535
3 535 587 588
3 537 589 539
3 539 589 590
3 539 590 541
3 541 590 591
3 541 591 543
3 543 591 592
3 545 593 546
3 546 593 594
3 547 595 548
3 548 595 596
3 548 596 549
3 549 596 597
3 549 597 550
3 550 597 598
3 550 598 551
3 551 598 599
3 551 599 552
3 552 599 600
3 552 600 553
3 553 600 601
3 554 602 555
3 555 602 603
3 555 603 556
3 556 603 604
3 556 604 557
3 557 604 605
3 557 605 558
3 558 605 606
3 558 606 559
3 559 606 607
3 559 607 560
3 560 607 608
3 560 608 561
3 561 608 609
3 562 610 563
3 563 610 611
3 563 611 564
3 564 611 612
3 565 613 566
3 566 613 614
3 566 614 567
3 567 614 615
3 567 615 568
3 568 615 616
3 569 617 570
3 570 617 618
3 570 618 571
3 571 618 619
3 571 619 572
3 572 619 620
3 573 620 574
3 574 620 621
3 574 621 575
3 575 621 622
3 575 622 576
3 576 622 623
3 577 623 578
3 578 623 624
3 578 624 579
3 579 624 625
3 579 625 580
3 580 625 626
3 580 626 581
3 581 626 627
3 581 627 582
3 582 627 628
3 582 628 583
3 583 628 629
3 583 629 584
3 584 629 630
3 585 631 586
3 586 631 632
3 586 632 587
3 587 632 633
3 587 633 588
3 588 633 634
3 589 635 590
3 590 635 636
3 590 636 591
3 591 636 637
3 591 637 592
3 592 637 638
3 593 639 594
3 594 639 640
3 547 641 596
3 596 641 642
3 596 642 597
3 597 642 643
3 597 643 644
3 644 643 645
3 644 645 599
3 599 645 646
3 599 646 647
3 647 646 648
3 647 648 601
3 601 648 649
3 602 650 651
3 651 650 652
3 651 652 653
3 653 652 654
3 653 654 655
3 655 654 656
3 655 656 657
3 657 656 658
3 657 658 659
3 659 658 660
3 659 660 608
3 608 660 661
3 608 661 662
3 662 661 663
3 664 665 611
3 611 665 666
3 611 666 667
3 667 666 668
3 613 669 670
3 670 669 671
3 670 671 615
3 615 671 672
3 615 672 673
3 673 672 674
3 675 676 677
3 677 676 678
3 677 678 679
3 679 678 680
3 679 680 681
3 681 680 682
3 683 684 621
3 621 684 685
3 621 685 686
3 686 685 687
3 686 687 688
3 688 687 689
3 688 689 624
3 624 689 690
3 624 690 691
3 691 690 692
3 691 692 693
3 693 692 694
3 693 695 696
3 696 695 697
3 696 697 698
3 698 697 699
3 698 699 700
3 700 699 701
3 700 701 702
3 702 701 703
3 631 704 632
3 632 704 705
3 632 705 706
3 706 705 707
3 706 707 708
3 708 707 709
3 710 711 712
3 712 711 713
3 712 713 637
3 637 713 714
3 637 714 638
3 638 714 715
3 639 716 717
3 717 716 640
3 641 185 642
3 642 185 718
3 642 718 643
3 643 718 719
3 643 719 645
3 645 719 720
3 645 720 646
3 646 720 721
3 646 721 648
3 648 721 722
3 648 722 649
3 649 722 723
3 650 724 652
3 652 724 725
3 652 725 654
3 654 725 726
3 654 726 656
3 656 726 727
3 656 727 658
3 658 727 728
3 658 728 660
3 660 728 729
3 660 729 661
3 661 729 730
3 661 730 663
3 663 730 731
3 665 732 666
3 666 732 733
3 666 733 668
3 668 733 734
3 669 734 671
3 671 734 735
3 671 735 672
3 672 735 736
3 672 736 674
3 674 736 737
3 676 738 678
3 678 738 739
3 678 739 680
3 680 739 740
3 680 740 682
3 682 740 741
3 684 742 685
3 685 742 743
3 685 743 687
3 687 743 744
3 687 744 689
3 689 744 745
3 689 746 690
3 690 746 747
3 690 747 692
3 692 747 748
3 692 748 694
3 694 748 749
3 695 750 697
3 697 750 751
3 697 751 699
3 699 751 752
3 699 752 701
3 701 752 753
3 701 753 703
3 703 753 754
3 704 755 705
3 705 755 756
3 705 756 707
3 707 756 757
3 707 757 709
3 709 757 758
3 711 759 713
3 713 759 760
3 713 760 714
3 714 760 761
3 714 761 715
3 715 761 762
3 716 763 640
3 640 763 717
3 718 1 764
3 718 764 719
3 719 764 765
3 719 765 720
3 720 765 766
3 720 766 721
3 721 766 767
3 721 767 722
3 722 767 768
3 722 768 723
3 723 768 769
3 724 770 725
3 725 770 771
3 725 771 726
3 726 771 772
3 726 772 727
3 727 772 773
3 727 773 728
3 728 773 774
3 728 774 729
3 729 774 775
3 729 775 730
3 730 775 776
3 730 776 731
3 731 776 777
3 732 778 733
3 733 778 779
3 733 779 734
3 734 779 780
3 734 781 735
3 735 781 782
3 735 782 736
3 736 782 783
3 736 783 737
3 737 783 784
3 738 785 739
3 739 785 786
3 739 786 740
3 740 786 787
3 740 787 741
3 741 787 788
3 742 789 743
3 743 789 790
3 743 790 744
3 744 790 791
3 744 791 745
3 745 791 792
3 746 792 747
3 747 792 793
3 747 793 748
3 748 793 794
3 748 794 749
3 749 794 795
3 750 796 751
3 751 796 797
3 751 797 752
3 752 797 798
3 752 798 753
3 753 798 799
3 753 799 754
3 754 799 800
3 755 801 756
3 756 801 802
3 756 802 757
3 757 802 803
3 757 803 758
3 758 803 804
3 759 805 760
3 760 805 806
3 760 806 761
3 761 806 807
3 761 807 762
3 762 807 808
3 763 809 717
3 717 809 90
3 1 641 764
3 764 641 810
3 764 810 765
3 765 810 811
3 765 811 766
3 766 811 812
3 766 812 767
3 767 812 813
3 767 813 768
3 768 813 814
3 768 814 769
3 769 814 815
3 770 816 771
3 771 816 817
3 771 817 772
3 772 817 818
3 772 818 773
3 773 818 819
3 773 819 774
3 774 819 820
3 774 820 775
3 775 820 821
3 775 821 776
3 776 821 822
3 776 822 777
3 777 822 823
3 778 824 779
3 779 824 825
3 779 825 780
3 780 825 826
3 781 826 782
3 782 826 827
3 782 827 783
3 783 827 828
3 783 828 784
3 784 828 829
3 785 830 786
3 786 830 831
3 786 831 787
3 787 831 832
3 787 832 788
3 788 832 833
3 789 833 790
3 790 833 834
3 790 834 791
3 791 834 835
3 791 835 792
3 792 835 836
3 792 837 793
3 793 837 838
3 793 838 794
3 794 838 839
3 794 839 795
3 795 839 840
3 796 841 797
3 797 841 842
3 797 842 798
3 798 842 843
3 798 843 799
3 799 843 844
3 799 844 800
3 800 844 845
3 801 846 802
3 802 846 847
3 802 847 803
3 803 847 848
3 803 848 804
3 804 848 849
3 805 850 806
3 806 850 851
3 806 851 807
3 807 851 852
3 807 852 808
3 808 852 853
3 809 854 90
3 90 854 855
3 856 857 810
3 810 857 858
3 810 858 859
3 859 858 860
3 859 860 861
3 861 860 862
3 861 862 863
3 863 862 864
3 863 864 865
3 865 864 866
3 865 866 867
3 867 866 868
3 869 870 871
3 871 870 872
3 871 872 873
3 873 872 874
3 873 874 875
3 875 874 876
3 875 876 877
3 877 876 878
3 877 878 879
3 879 878 880
3 879 880 881
3 881 880 882
3 881 882 883
3 883 882 884
3 823 885 886
3 886 885 887
3 886 887 888
3 888 887 889
3 888 889 890
3 890 889 891
3 890 891 892
3 892 891 893
3 892 893 894
3 894 893 895
3 829 896 831
3 831 896 897
3 831 897 898
3 898 897 899
3 898 899 900
3 900 899 901
3 902 903 904
3 904 903 905
3 904 905 906
3 906 905 907
3 906 907 908
3 908 907 909
3 910 911 912
3 912 911 913
3 912 913 914
3 914 913 915
3 914 915 916
3 916 915 917
3 918 919 920
3 920 919 921
3 920 921 922
3 922 921 923
3 922 923 924
3 924 923 925
3 924 925 926
3 926 925 927
3 928 929 930
3 930 929 931
3 930 931 932
3 932 931 933
3 932 933 934
3 934 933 935
3 936 937 938
3 938 937 939
3 938 939 940
3 940 939 941
3 940 941 942
3 942 941 943
3 944 945 946
3 946 945 594
3 857 1 858
3 858 1 947
3 858 947 860
3 860 947 948
3 860 948 862
3 862 948 949
3 862 949 864
3 864 949 950
3 864 950 866
3 866 950 951
3 866 951 868
3 868 951 952
3 870 953 872
3 872 953 954
3 872 954 874
3 874 954 955
3 874 955 876
3 876 955 956
3 876 956 878
3 878 956 957
3 878 957 880
3 880 957 958
3 880 958 882
3 882 958 959
3 882 959 884
3 884 959 960
3 885 961 887
3 887 961 962
3 887 962 889
3 889 962 963
3 889 964 891
3 891 964 965
3 891 965 893
3 893 965 966
3 893 966 895
3 895 966 967
3 896 968 897
3 897 968 969
3 897 969 899
3 899 969 970
3 899 970 901
3 901 970 971
3 903 972 905
3 905 972 973
3 905 973 907
3 907 973 974
3 907 974 909
3 909 974 975
3 911 976 913
3 913 976 977
3 913 977 915
3 915 977 978
3 915 978 917
3 917 978 979
3 919 980 921
3 921 980 981
3 921 981 923
3 923 981 982
3 923 982 925
3 925 982 983
3 925 983 927
3 927 983 984
3 929 985 931
3 931 985 986
3 931 986 933
3 933 986 987
3 933 987 935
3 935 987 988
3 937 989 939
3 939 989 990
3 939 990 941
3 941 990 991
3 941 991 943
3 943 991 992
3 945 993 594
3 594 993 994
3 1 857 947
3 947 857 995
3 947 995 948
3 948 995 996
3 948 996 949
3 949 996 997
3 949 997 950
3 950 997 998
3 950 998 951
3 951 998 999
3 951 999 952
3 952 999 1000
3 953 1001 954
3 954 1001 1002
3 954 1002 955
3 955 1002 1003
3 955 1003 956
3 956 1003 1004
3 956 1004 957
3 957 1004 1005
3 957 1005 958
3 958 1005 1006
3 958 1006 959
3 959 1006 1007
3 959 1007 960
3 960 1007 1008
3 961 1009 962
3 962 1009 1010
3 962 1010 963
3 963 1010 1011
3 964 1012 965
3 965 1012 1013
3 965 1013 966
3 966 1013 1014
3 966 1014 967
3 967 1014 1015
3 968 1016 969
3 969 1016 1017
3 969 1017 970
3 970 1017 1018
3 970 1018 971
3 971 1018 1019
3 972 1020 973
3 973 1020 1021
3 973 1021 974
3 974 1021 1022
3 974 1022 975
3 975 1022 1023
3 976 1024 977
3 977 1024 1025
3 977 1025 978
3 978 1025 1026
3 978 1026 979
3 979 1026 1027
3 980 1028 981
3 981 1028 1029
3 981 1029 982
3 982 1029 1030
3 982 1030 983
3 983 1030 1031
3 983 1031 984
3 984 1031 1032
3 985 1033 986
3 986 1033 1034
3 986 1034 987
3 987 1034 1035
3 987 1035 988
3 988 1035 1036
3 989 1037 990
3 990 1037 1038
3 990 1038 991
3 991 1038 1039
3 991 1039 992
3 992 1039 1040
3 993 1041 994
3 994 1041 594
3 857 185 995
3 995 185 1042
3 995 1042 996
3 996 1042 1043
3 996 1043 997
3 997 1043 1044
3 997 1044 998
3 998 1044 1045
3 998 1045 999
3 999 1045 1046
3 999 1046 1000
3 1000 1046 1047
3 1001 1048 1002
3 1002 1048 1049
3 1002 1049 1003
3 1003 1049 1050
3 1003 1050 1004
3 1004 1050 1051
3 1004 1051 1005
3 1005 1051 1052
3 1005 1052 1006
3 1006 1052 1053
3 1006 1053 1007
3 1007 1053 1054
3 1007 1054 1008
3 1008 1054 1055
3 1009 1056 1010
3 1010 1056 1057
3 1010 1057 1011
3 1011 1057 1058
3 1012 1059 1013
3 1013 1059 1060
3 1013 1060 1014
3 1014 1060 1061
3 1014 1061 1015
3 1015 1061 1062
3 1016 1063 1017
3 1017 1063 1064
3 1017 1064 1018
3 1018 1064 1065
3 1018 1065 1019
3 1019 1065 1066
3 1020 1067 1021
3 1021 1067 1068
3 1021 1068 1022
3 1022 1068 1069
3 1022 1069 1023
3 1023 1069 1070
3 1024 1071 1025
3 1025 1071 1072
3 1025 1072 1026
3 1026 1072 1073
3 1026 1073 1027
3 1027 1073 1074
3 1028 1075 1029
3 1029 1075 1076
3 1029 1076 1030
3 1030 1076 1077
3 1030 1077 1031
3 1031 1077 1078
3 1031 1078 1032
3 1032 1078 1079
3 1033 1080 1034
3 1034 1080 1081
3 1034 1081 1035
3 1035 1081 1082
3 1035 1082 1036
3 1036 1082 1083
3 1037 1084 1038
3 1038 1084 1085
3 1038 1085 1039
3 1039 1085 1086
3 1039 1086 1040
3 1040 1086 1087
3 1041 1088 594
3 594 1088 90
3 1042 1 1089
3 1042 1089 1043
3 1043 1089 1090
3 1043 1090 1044
3 1044 1090 1091
3 1044 1091 1045
3 1045 1091 1092
3 1045 1092 1046
3 1046 1092 1093
3 1046 1093 1047
3 1047 1093 1094
3 1048 1095 1049
3 1049 1095 1096
3 1049 1096 1050
3 1050 1096 1097
3 1050 1097 1051
3 1051 1097 1098
3 1051 1098 1052
3 1052 1098 1099
3 1052 1099 1053
3 1053 1099 1100
3 1053 1100 1054
3 1054 1100 1101
3 1054 1101 1055
3 1055 1101 1102
3 1056 1103 1057
3 1057 1103 1104
3 1057 1104 1058
3 1058 1104 1105
3 1059 1106 1060
3 1060 1106 1107
3 1060 1107 1061
3 1061 1107 1108
3 1061 1108 1062
3 1062 1108 1109
3 1063 1110 1064
3 1064 1110 1111
3 1064 1111 1065
3 1065 1111 1112
3 1065 1112 1066
3 1066 1112 1113
3 1067 1114 1068
3 1068 1114 1115
3 1068 1115 1069
3 1069 1115 1116
3 1069 1116 1070
3 1070 1116 1117
3 1071 1118 1072
3 1072 1118 1119
3 1072 1119 1073
3 1073 1119 1120
3 1073 1120 1074
3 1074 1120 1121
3 1075 1122 1076
3 1076 1122 1123
3 1076 1123 1077
3 1077 1123 1124
3 1077 1124 1078
3 1078 1124 1125
3 1078 1125 1079
3 1079 1125 1126
3 1080 1127 1081
3 1081 1127 1128
3 1081 1128 1082
3 1082 1128 1129
3 1082 1129 1083
3 1083 1129 1130
3 1084 1131 1085
3 1085 1131 1132
3 1085 1132 1086
3 1086 1132 1133
3 1086 1133 1087
3 1087 1133 1134
3 1088 1135 90
3 1 356 1089
3 1089 356 1136
3 1089 1136 1090
3 1090 1136 1137
3 1090 1137 1091
3 1091 1137 1138
3 1091 1138 1092
3 1092 1138 1139
3 1092 1139 1093
3 1093 1139 1140
3 1093 1140 1094
3 1094 1140 1141
3 1095 1142 1096
3 1096 1142 1143
3 1096 1143 1097
3 1097 1143 1144
3 1097 1144 1098
3 1098 1144 1145
3 1098 1145 1099
3 1099 1145 1146
3 1099 1146 1100
3 1100 1146 1147
3 1100 1147 1101
3 1101 1147 1148
3 1101 1148 1102
3 1102 1148 1149
3 1103 1150 1104
3 1104 1150 1151
3 1104 1151 1105
3 1105 1151 1152
3 1106 1152 1107
3 1107 1152 1153
3 1107 1153 1108
3 1108 1153 1154
3 1108 1154 1109
3 1109 1154 1155
3 1110 1156 1111
3 1111 1156 1157
3 1111 1157 1112
3 1112 1157 1158
3 1112 1158 1113
3 1113 1158 1159
3 1114 1160 1115
3 1115 1160 1161
3 1115 1161 1116
3 1116 1161 1162
3 1116 1162 1117
3 1117 1162 1163
3 1118 1163 1119
3 1119 1163 1164
3 1119 1164 1120
3 1120 1164 1165
3 1120 1165 1121
3 1121 1165 1166
3 1122 1167 1123
3 1123 1167 1168
3 1123 1168 1124
3 1124 1168 1169
3 1124 1169 1125
3 1125 1169 1170
3 1125 1170 1126
3 1126 1170 1171
3 1127 1172 1128
3 1128 1172 1173
3 1128 1173 1129
3 1129 1173 1174
3 1129 1174 1130
3 1130 1174 1175
3 1131 1176 1132
3 1132 1176 1177
3 1132 1177 1133
3 1133 1177 1178
3 1133 1178 1134
3 1134 1178 1179
3 1135 1180 90
3 90 1180 594
3 595 452 1181
3 1181 452 1182
3 1181 1182 1137
3 1137 1182 1183
3 1137 1183 1184
3 1184 1183 1185
3 1184 1185 1139
3 1139 1185 1186
3 1139 1186 1140
3 1140 1186 1187
3 1140 1187 1188
3 1188 1187 1189
3 1190 1191 1192
3 1192 1191 1193
3 1192 1193 1144
3 1144 1193 1194
3 1144 1194 1145
3 1145 1194 1195
3 1145 1195 1196
3 1196 1195 1197
3 1196 1197 1198
3 1198 1197 1199
3 1198 1199 1200
3 1200 1199 1201
3 1200 1201 1202
3 1202 1201 1203
3 1204 1205 1151
3 1151 1205 1206
3 1151 1206 1207
3 1207 1206 1208
3 1209 1208 1210
3 1210 1208 1211
3 1210 1211 1212
3 1212 1211 1213
3 1212 1213 1214
3 1214 1213 1215
3 1156 1216 1217
3 1217 1216 1218
3 1217 1218 1158
3 1158 1218 1219
3 1158 1219 1220
3 1220 1219 1221
3 1160 1221 1222
3 1222 1221 1223
3 1222 1223 1224
3 1224 1223 1225
3 1224 1225 1226
3 1226 1225 1227
3 1228 1229 1230
3 1230 1229 1231
3 1230 1231 1165
3 1165 1231 1232
3 1165 1232 1233
3 1233 1232 1234
3 1235 1234 1236
3 1236 1234 1237
3 1236 1237 1238
3 1238 1237 1239
3 1238 1239 1170
3 1170 1239 1240
3 1170 1240 1171
3 1171 1240 1241
3 1172 1242 1243
3 1243 1242 1244
3 1243 1244 1245
3 1245 1244 1246
3 1245 1246 1247
3 1247 1246 1248
3 1249 1250 1251
3 1251 1250 1252
3 1251 1252 1253
3 1253 1252 1254
3 1253 1254 1255
3 1255 1254 1256
3 1257 1258 546
3 546 1258 640
3 452 1 1182
3 1182 1 0
3 1182 0 1183
3 1183 0 3
3 1183 3 1185
3 1185 3 5
3 1185 5 1186
3 1186 5 7
3 1186 7 1187
3 1187 7 9
3 1187 9 1189
3 1189 9 11
3 1191 13 1193
3 1193 13 15
3 1193 15 1194
3 1194 15 17
3 1194 17 1195
3 1195 17 19
3 1195 19 1197
3 1197 19 21
3 1197 21 1199
3 1199 21 23
3 1199 23 1201
3 1201 23 25
3 1201 25 1203
3 1203 25 27
3 1205 29 1206
3 1206 29 31
3 1206 31 1208
3 1208 31 33
3 1208 33 1211
3 1211 33 35
3 1211 35 1213
3 1213 35 37
3 1213 37 1215
3 1215 37 39
3 1216 41 1218
3 1218 41 43
3 1218 43 1219
3 1219 43 45
3 1219 45 1221
3 1221 45 47
3 1221 49 1223
3 1223 49 51
3 1223 51 1225
3 1225 51 53
3 1225 53 1227
3 1227 53 55
3 1229 55 1231
3 1231 55 57
3 1231 57 1232
3 1232 57 59
3 1232 59 1234
3 1234 59 61
3 1234 61 1237
3 1237 61 64
3 1237 64 1239
3 1239 64 66
3 1239 66 1240
3 1240 66 68
3 1240 68 1241
3 1241 68 70
3 1242 72 1244
3 1244 72 74
3 1244 74 1246
3 1246 74 76
3 1246 76 1248
3 1248 76 78
3 1250 80 1252
3 1252 80 82
3 1252 82 1254
3 1254 82 84
3 1254 84 1256
3 1256 84 86
3 1258 88 640
3 640 88 90
