# vtk DataFile Version 2.0
File written by itkPolyDataMeshIO
ASCII
DATASET POLYDATA
POINTS 1745 float
15.279732 0.476234 310.3382
13.642281 2.513649 313.64514
14.522408 2.030449 309.5994
17.115746 0.814644 309.1638
15.561913 2.703758 308.1595
19.48011 2.183083 308.05484
17.241692 4.326347 306.79053
21.764534 4.464577 307.77264
19.260841 6.673058 306.30325
23.75779 6.958382 308.0233
21.272682 9.18055 306.43524
23.757805 6.958397 308.02332
21.272697 9.180565 306.43527
25.716957 9.267662 308.45828
23.387459 11.527931 306.79535
25.716972 9.267662 308.45828
23.387474 11.527946 306.79532
27.44352 11.084435 308.7904
25.351265 13.44355 307.13803
28.882149 12.475578 308.84793
27.004326 14.958611 307.3135
30.169273 13.59771 308.72028
28.485588 16.199928 307.3449
30.169258 13.59771 308.72025
28.485603 16.199928 307.34488
31.227654 14.416389 308.55383
29.783455 17.12481 307.32928
32.46566 15.171455 308.27823
31.12313 17.910805 307.212
34.373055 16.314552 307.6501
32.8453 18.991447 306.81723
36.40679 17.98333 306.58875
34.631905 20.550423 306.10834
37.98362 19.91787 305.30875
36.128685 22.343208 305.2262
39.4253 21.965004 303.9924
37.660805 24.189125 304.2198
40.998726 24.296638 302.53522
39.4246 26.238762 302.97665
40.99874 24.296654 302.53525
39.42463 26.238777 302.97668
42.482582 26.74273 300.91858
41.159172 28.41793 301.4834
43.319588 28.68969 299.36972
42.25683 30.237816 300.01465
43.61759 30.271019 297.60336
42.72976 31.788277 298.3485
43.617607 30.271034 297.6034
42.729774 31.788277 298.34854
43.73774 31.90255 295.39578
42.96311 33.40171 296.21802
43.684517 34.085533 292.7551
43.111473 35.43583 293.5977
43.684532 34.085533 292.75513
43.11152 35.43583 293.5977
43.635567 36.32441 290.2828
43.261116 37.415047 291.06836
43.39669 38.312065 288.1078
43.132378 39.212654 288.85773
42.73017 40.32345 285.889
42.52607 41.172966 286.6691
42.7302 40.323463 285.88904
42.526085 41.172966 286.66913
41.876945 42.298546 283.70026
41.709282 43.156715 284.50565
41.179314 44.209923 281.49692
40.99859 45.049767 282.29218
40.663994 46.191185 279.18896
40.45153 46.989265 279.94553
40.664024 46.191216 279.18896
40.451546 46.989296 279.94556
40.15087 48.07551 276.93048
39.92724 48.868797 277.6345
39.635292 49.747826 274.63477
39.38584 50.56829 275.29074
39.31228 51.324165 272.22644
39.030098 52.13996 272.81073
39.31225 51.32415 272.22638
39.030098 52.139946 272.8107
39.206062 52.86503 269.71188
38.905403 53.641533 270.2045
39.230675 54.232124 267.15836
38.91442 54.987694 267.55695
39.30262 55.357918 264.5387
38.990913 56.105934 264.84085
39.30259 55.357918 264.53867
38.9909 56.10592 264.84085
39.27401 56.567863 261.72275
39.00547 57.252266 261.99744
38.78045 57.689217 259.0239
38.56678 58.33323 259.2957
37.778206 58.4638 256.5052
37.592537 59.10836 256.74387
37.778206 58.46383 256.5052
37.592537 59.108345 256.74384
36.732994 58.919212 253.9397
36.53945 59.54664 254.11298
35.879814 59.28251 251.036
35.675606 59.87899 251.16653
35.351402 59.72956 247.95595
35.140938 60.304207 248.07553
35.165703 60.207817 244.87535
34.94471 60.7815 244.97885
35.165733 60.207848 244.87538
34.944756 60.781548 244.97888
35.100853 60.640083 241.82588
34.881783 61.20417 241.90381
35.20936 60.793816 239.06096
35.011147 61.317802 239.05983
35.42016 60.40377 236.27719
35.236244 60.88256 236.19122
35.420113 60.403755 236.27716
35.2362 60.882545 236.1912
35.144783 59.625893 233.34532
34.95397 60.06446 233.26398
34.2241 58.7537 230.71173
34.029427 59.13958 230.66397
33.202232 58.131447 227.93222
33.03872 58.46189 227.9129
33.202217 58.131447 227.93219
33.038704 58.461876 227.91287
32.50611 58.397423 224.75629
32.39765 58.668236 224.80092
32.271248 59.556694 222.00653
32.197243 59.740944 222.0922
32.472206 61.02366 219.6452
32.40676 61.151283 219.73141
32.47222 61.02369 219.6452
32.406776 61.15133 219.73143
33.070183 62.206947 217.86485
13.642265 2.513649 313.64514
14.123177 2.828468 309.53857
14.774956 3.653908 308.1074
16.119041 5.398628 306.72006
18.013344 7.763908 306.1697
20.04943 10.255852 306.22855
20.049461 10.255852 306.22855
22.244514 12.605827 306.52505
24.324776 14.568748 306.85614
26.099083 16.152962 307.085
27.703285 17.463966 307.19418
27.703285 17.463951 307.19418
29.150047 18.452217 307.24744
30.571861 19.259956 307.19556
32.243004 20.310768 306.89697
33.97242 21.8171 306.32996
35.499474 23.545189 305.59253
37.108986 25.298088 304.67734
38.963966 27.211967 303.47205
38.96398 27.211967 303.4721
40.806465 29.25933 301.9696
42.02909 31.01574 300.46994
42.596245 32.55065 298.79703
42.59626 32.55065 298.79706
42.887764 34.154976 296.66638
43.107613 36.11431 294.00854
43.107628 36.11431 294.0086
43.305214 37.96305 291.42252
43.197014 39.66517 289.18625
42.612694 41.599846 287.0029
42.612694 41.59986 287.00293
41.813866 43.58799 284.84198
41.09507 45.47178 282.62854
40.5272 47.39028 280.2752
40.527214 47.390312 280.27524
39.992317 49.267418 277.94214
39.438377 50.980583 275.5791
39.062004 52.549873 273.07443
39.06199 52.54986 273.0744
38.917015 54.031685 270.43515
38.909798 55.367348 267.75204
38.98069 56.481773 264.99176
38.98066 56.481773 264.99176
39.00251 57.596138 262.1276
38.578957 58.656807 259.40564
37.61036 59.432198 256.8187
36.548042 59.861916 254.15541
35.676643 60.178764 251.20023
35.13862 60.59301 248.11888
34.938667 61.069817 245.02585
34.938683 61.069847 245.02588
34.87484 61.487633 241.94066
35.006966 61.581093 239.06218
35.23139 61.1231 236.15285
35.23136 61.123085 236.15282
34.936943 60.284767 233.21043
33.998314 59.333412 230.61111
33.014107 58.62789 227.87894
33.01409 58.627876 227.87892
32.392326 58.804283 224.81128
32.196724 59.833534 222.13098
32.40087 61.21659 219.77687
32.400887 61.21662 219.7769
33.070168 62.206932 217.86484
13.759789 3.533119 309.69104
14.07267 4.495674 308.35806
15.124214 6.346809 307.02872
16.91024 8.721901 306.4516
18.973427 11.18885 306.4406
18.973442 11.18885 306.44064
21.237755 13.532906 306.66693
21.237755 13.532906 306.66696
23.41645 15.538612 306.97943
25.30465 17.19065 307.2541
27.034523 18.569756 307.43073
27.034523 18.56974 307.43073
28.634422 19.61863 307.53806
30.15284 20.446907 307.5316
31.809532 21.469688 307.3015
33.533257 22.930016 306.836
35.13375 24.604607 306.19028
36.834938 26.27848 305.31152
38.77041 28.073814 304.09167
38.770424 28.073814 304.09167
40.69802 30.004906 302.53314
42.027733 31.705116 300.95938
42.682533 33.22625 299.243
42.68255 33.22625 299.243
43.026466 34.822533 297.0867
43.290108 36.715584 294.36447
43.29014 36.7156 294.36453
43.496315 38.448723 291.7099
43.383507 40.066246 289.4458
42.8133 41.978188 287.26062
42.813316 41.978188 287.26065
42.03019 43.97016 285.09546
41.303154 45.84577 282.8854
40.713676 47.74566 280.53436
40.71369 47.745705 280.5344
40.166145 49.620705 278.1847
39.601402 51.34597 275.80774
39.20397 52.913155 273.28854
39.203957 52.91314 273.2885
39.033745 54.377464 270.62845
39.00672 55.70379 267.92154
39.067497 56.814857 265.12494
39.067482 56.814842 265.1249
39.08634 57.90087 262.2378
38.668007 58.94358 259.4857
37.69886 59.719246 256.85553
37.69886 59.719246 256.8555
36.624886 60.14135 254.16377
35.745384 60.44442 251.2092
35.204353 60.8489 248.14636
35.002083 61.325325 245.06421
35.002113 61.32537 245.06424
34.936256 61.73887 241.97179
35.06579 61.81446 239.06618
35.284462 61.336296 236.12195
35.284447 61.336266 236.12192
34.97352 60.480034 233.1547
34.014397 59.50521 230.5454
33.02999 58.775032 227.83298
33.029976 58.775032 227.83295
32.419853 58.92489 224.81255
32.2203 59.91564 222.16264
32.413734 61.274208 219.81786
32.41375 61.274254 219.81787
13.642281 2.513664 313.64517
13.390739 4.228661 310.03568
13.3834 5.315559 308.8775
14.151329 7.271812 307.67667
15.82328 9.659111 307.11075
17.902046 12.104317 307.0424
17.902046 12.104317 307.04242
20.220558 14.444344 307.1983
22.488197 16.494667 307.48752
24.496605 18.216103 307.8023
26.370964 19.66201 308.03702
26.370949 19.66201 308.03702
28.147514 20.767677 308.18304
29.788582 21.611732 308.2029
31.464134 22.602058 308.0197
33.227776 24.01513 307.62714
34.946968 25.637947 307.03308
36.762962 27.234703 306.14484
38.77935 28.913857 304.8636
38.77935 28.913857 304.86362
40.78121 30.731255 303.20508
42.211952 32.37661 301.5157
42.955986 33.884377 299.7223
42.955986 33.88439 299.72232
43.35177 35.47283 297.51743
43.640022 37.301292 294.7036
43.640038 37.301292 294.7036
43.82322 38.921776 291.96524
43.68479 40.4569 289.6693
43.123375 42.346687 287.47638
43.123375 42.346703 287.4764
42.35534 44.34243 285.30084
41.619347 46.210106 283.09726
41.00585 48.091835 280.7562
41.005867 48.091896 280.7562
40.44294 49.96479 278.393
39.867943 51.701897 276.0055
39.447517 53.267036 273.479
39.447502 53.267036 273.47897
39.246086 54.714287 270.80655
39.194664 56.031532 268.0835
39.240852 57.139336 265.25403
39.24082 57.13932 265.25403
39.247993 58.19773 262.34033
38.827156 59.222923 259.54758
37.852364 59.998848 256.86404
36.763832 60.41355 254.1449
35.87513 60.70321 251.19861
35.33111 61.09823 248.16295
35.12751 61.57421 245.09853
35.127525 61.57424 245.09856
35.05857 61.983574 242.0007
35.18093 62.04177 239.07181
35.389244 61.54397 236.09476
35.389214 61.543938 236.09474
35.056923 60.670265 233.09268
34.070534 59.672615 230.46387
33.080376 58.91842 227.77354
33.08036 58.918404 227.77351
32.476433 59.042366 224.80649
32.26545 59.995567 222.19087
32.44332 61.330956 219.85909
32.44335 61.331 219.8591
33.070183 62.206963 217.86487
13.020058 4.906166 310.5986
12.715111 6.103706 309.68936
13.209084 8.164574 308.69702
14.752052 10.574455 308.1934
16.819359 13.013252 308.0954
16.819374 13.013252 308.09543
19.16549 15.3592 308.19055
21.51197 17.454567 308.45016
23.654411 19.239845 308.7906
25.700294 20.744225 309.06512
25.700294 20.74421 309.0651
27.683037 21.897484 309.22754
29.476753 22.7499 309.2501
31.208656 23.702614 309.0886
33.064873 25.065392 308.73413
34.955727 26.635567 308.14307
36.91387 28.155724 307.19177
39.012077 29.72152 305.79678
39.012093 29.72155 305.79678
41.075752 31.428932 303.9903
42.599907 33.021538 302.14038
43.434 34.516457 300.2336
43.434013 34.516457 300.2336
43.880455 36.097313 297.95535
44.171852 37.863777 295.02063
44.171867 37.863792 295.0207
44.29722 39.37609 292.18246
44.110176 40.832054 289.85065
43.55146 42.70057 287.64343
43.55149 42.70057 287.64346
42.797707 44.69993 285.45102
42.05207 46.55999 283.2571
41.412132 48.424324 280.93442
41.412148 48.42434 280.93445
40.831047 50.295265 278.5613
40.246483 52.043694 276.167
39.801094 53.606895 273.64127
39.801064 53.60688 273.64124
39.56205 55.037727 270.9659
39.481453 56.346275 268.2354
39.508186 57.450935 265.37735
39.50817 57.45092 265.37732
39.494194 58.482826 262.43338
39.06234 59.491173 259.58862
38.076332 60.26731 256.8412
38.076332 60.26731 256.84116
36.970177 60.67489 254.09596
36.071083 60.951668 251.1664
35.5241 61.33761 248.16734
35.32029 61.81318 245.12798
35.32032 61.813225 245.128
35.247093 62.21856 242.02678
35.357246 62.260017 239.07918
35.550194 61.7434 236.07191
35.550163 61.74337 236.07187
35.191338 60.85296 233.02434
34.170372 59.83335 230.3656
33.168434 59.056038 227.69966
33.168404 59.056038 227.69966
32.564644 59.155144 224.79231
32.334038 60.07229 222.21504
32.49192 61.38581 219.9
32.49195 61.385857 219.90001
33.070183 62.206932 217.86485
13.642281 2.513649 313.6451
13.642281 2.513664 313.64514
13.020058 4.906166 310.59863
12.664101 5.530907 311.4234
12.715111 6.103706 309.68933
12.093681 6.82859 310.84567
13.209099 8.164574 308.69702
12.334969 8.98893 310.15576
14.752068 10.574455 308.19336
13.737556 11.430946 309.77362
16.819374 13.013252 308.0954
15.764687 13.878853 309.67734
15.764687 13.878883 309.67734
19.16549 15.3592 308.19052
18.107857 16.239937 309.72192
18.107857 16.239937 309.7219
21.511986 17.454567 308.45016
20.521706 18.376625 309.94138
23.654411 19.239845 308.79062
22.814476 20.2145 310.28577
25.060066 21.765663 310.5766
25.060066 21.765663 310.57657
27.683052 21.897469 309.22754
27.275948 22.956963 310.73068
29.476784 22.749916 309.2501
29.25042 23.812584 310.73108
31.208672 23.702614 309.0886
31.079231 24.726265 310.56366
33.089394 26.038353 310.20428
34.955727 26.635582 308.14307
35.213417 27.556572 309.5549
36.913887 28.155724 307.1918
37.343117 29.0037 308.4757
39.012093 29.72152 305.79678
39.520943 30.463783 306.90497
39.012108 29.72155 305.7968
39.520943 30.463799 306.905
41.075768 31.428917 303.9903
41.628334 32.069603 304.895
43.23342 33.6137 302.83273
44.155937 35.096794 300.7701
44.155952 35.096794 300.77014
44.65011 36.670723 298.38934
44.171852 37.863777 295.02066
44.917366 38.380257 295.30045
44.91738 38.380272 295.30045
44.94274 39.79325 292.3452
44.679512 41.176506 289.9735
43.551476 42.70057 287.64343
44.115852 43.025505 287.7442
43.551506 42.700584 287.64346
44.115868 43.02552 287.7442
42.79772 44.69993 285.45105
43.374886 45.02819 285.52707
42.05207 46.559975 283.25714
42.61898 46.881218 283.34677
41.412132 48.424294 280.93442
41.95037 48.72959 281.0523
41.950386 48.729607 281.05234
41.348076 50.5987 278.6741
40.246483 52.04368 276.167
40.75512 52.357536 276.27798
40.28295 53.918907 273.76318
40.282936 53.918907 273.76318
39.99946 55.33471 271.09702
39.48147 56.34629 268.23544
39.884544 56.635277 268.37033
39.5082 57.45095 265.37735
39.8863 57.737053 265.4898
39.5082 57.450935 265.37732
39.88627 57.737038 265.48978
39.49421 58.48284 262.43338
39.839775 58.74459 262.51166
39.062355 59.491188 259.58865
39.386543 59.73751 259.60226
38.076347 60.267326 256.8412
38.38259 60.513847 256.77936
38.076347 60.26731 256.8412
36.970192 60.674904 254.09596
37.25544 60.914864 254.01065
36.071083 60.951683 251.1664
36.344856 61.179802 251.10797
35.524086 61.33761 248.16734
35.795036 61.557426 248.15622
35.320274 61.81318 245.12799
35.59243 62.03263 245.15053
35.320305 61.813225 245.12802
35.59246 62.03266 245.15056
35.247093 62.218544 242.02678
35.51362 62.43432 242.04866
35.357246 62.260033 239.07918
35.605568 62.460472 239.08858
35.55018 61.7434 236.07193
35.777306 61.92652 236.05525
35.550163 61.74337 236.07188
35.77726 61.926476 236.0552
35.191338 60.85296 233.02435
35.38616 61.020714 232.9501
34.170372 59.833366 230.36562
34.322426 59.98095 230.24927
33.16842 59.056053 227.69966
33.301384 59.182426 227.6099
33.16839 59.056053 227.69965
33.30137 59.18241 227.60986
32.564644 59.155174 224.79231
32.690224 59.258766 224.76837
32.334038 60.072304 222.21503
32.430244 60.1428 222.23341
32.49192 61.385826 219.90001
32.56315 61.43589 219.93872
32.491936 61.38587 219.90001
32.56318 61.43592 219.93872
33.070168 62.206947 217.86485
33.070183 62.206963 217.86485
12.372322 6.009056 312.5304
11.606468 7.385948 312.37927
11.657433 9.622673 312.09094
12.934074 12.094002 311.88794
14.905251 14.554863 311.81772
14.905251 14.554863 311.81775
17.215645 16.93113 311.8184
19.673775 19.098976 311.98624
22.116905 20.974068 312.3102
24.57235 22.558311 312.5909
24.572334 22.558311 312.5909
27.027122 23.777153 312.7101
29.196648 24.634102 312.66177
31.164207 25.516472 312.45554
33.3948 26.787743 312.03558
35.81179 28.26435 311.24985
38.13407 29.654411 309.96558
40.3776 31.032814 308.14996
40.377617 31.03283 308.15
42.49717 32.56057 305.878
44.156395 34.067406 303.5508
45.155815 35.541435 301.28705
45.155815 35.54145 301.28708
45.688377 37.110054 298.77206
45.894478 38.775963 295.4969
45.894493 38.775993 295.49692
45.769203 40.112877 292.412
45.397804 41.440453 289.99857
44.818626 43.274513 287.7382
44.81864 43.27453 287.73822
44.087044 45.279716 285.4877
43.321007 47.127357 283.32513
42.623466 48.963478 281.0706
42.623497 48.963493 281.0706
41.99778 50.83123 278.69473
41.39901 52.59803 276.3042
40.900337 54.157997 273.81387
40.900337 54.15798 273.81384
40.56707 55.56228 271.17334
40.41384 56.85679 268.4663
40.385246 57.95632 265.57465
40.38523 57.956306 265.57462
40.293236 58.945168 262.56036
39.805763 59.92626 259.5748
38.775963 60.702766 256.66763
38.775963 60.70278 256.6676
37.62516 61.09881 253.88152
36.70269 61.354652 251.01762
36.150536 61.725853 248.1238
35.950996 62.200798 245.1606
35.951042 62.20086 245.16063
35.865227 62.599663 242.06209
35.932228 62.614037 239.09993
36.07647 62.06684 236.04933
36.07644 62.066826 236.04929
35.648125 61.14924 232.87509
34.534203 60.094032 230.11888
33.48551 59.279274 227.5065
33.485497 59.27926 227.50647
32.85668 59.338158 224.73282
32.556374 60.196846 222.24149
32.65853 61.473503 219.96986
32.658546 61.47355 219.96986
33.070198 62.206963 217.86487
13.642281 2.513634 313.64514
12.246727 6.162163 313.83698
11.459053 7.534325 314.17578
11.471718 9.785835 314.35342
12.688255 12.2649 314.37137
14.605858 14.729362 314.3469
14.605873 14.729378 314.34692
16.851295 17.109749 314.31598
16.851295 17.109749 314.31595
19.30355 19.285545 314.42642
21.853569 21.170021 314.702
24.478783 22.762642 314.9381
24.478783 22.762627 314.93808
27.121147 23.988533 314.99078
29.460411 24.845802 314.86377
31.59974 25.72007 314.57687
34.10386 26.980705 314.02316
36.83912 28.446434 313.00803
39.34025 29.82174 311.44217
41.609276 31.179146 309.32654
41.609306 31.179176 309.3266
43.685158 32.68685 306.7582
45.341225 34.18412 304.14157
46.380013 35.655785 301.6491
46.380028 35.6558 301.64914
46.92649 37.22303 298.9792
47.02462 38.877724 295.50858
47.024635 38.87774 295.50858
46.700325 40.19506 292.30356
46.19329 41.50834 289.8556
45.584633 43.338524 287.55658
45.58465 43.33854 287.5566
44.85441 45.344383 285.26624
44.08097 47.190636 283.1241
43.36094 49.023613 280.91898
43.36097 49.023643 280.919
42.713768 50.890984 278.5574
42.11486 52.659843 276.1834
41.596397 54.219475 273.73434
41.216286 55.62078 271.14075
41.027336 56.91369 268.4749
40.966637 58.01264 265.59357
40.966606 58.012627 265.59354
40.81826 58.996742 262.5485
40.283333 59.974785 259.4854
39.220757 60.751366 256.49936
39.220757 60.75138 256.49936
38.047493 61.14611 253.71013
37.115242 61.399635 250.89558
36.56211 61.769157 248.06361
36.36811 62.244026 245.14761
36.368156 62.244087 245.14766
36.274788 62.642174 242.05827
36.31153 62.653526 239.11174
36.4244 62.102913 236.06253
36.424385 62.102882 236.06248
35.959465 61.18226 232.81651
34.79502 60.123085 229.99603
33.710976 59.304176 227.40485
33.710945 59.30413 227.40483
33.051674 59.35853 224.6863
32.70217 60.2107 222.23042
32.77073 61.48403 219.98285
32.770744 61.484062 219.98285
13.642296 2.513664 313.64514
13.642296 2.513664 313.64517
12.246727 6.162193 313.83704
12.356758 5.874031 315.10248
11.459068 7.53434 314.1758
11.791176 7.112648 315.85794
11.471733 9.785835 314.35345
11.974251 9.294411 316.46362
12.688271 12.264915 314.3714
13.233421 11.749779 316.6986
14.605888 14.729378 314.34695
15.116295 14.203178 316.732
14.605888 14.729393 314.34695
15.116325 14.203209 316.732
16.85131 17.109764 314.31598
17.27253 16.571236 316.69244
17.27253 16.57125 316.69247
19.303566 19.285576 314.42645
19.654686 18.723228 316.7534
21.853584 21.170052 314.70203
22.226463 20.579613 316.95764
24.478798 22.762657 314.9381
24.925148 22.147072 317.1164
24.478798 22.762642 314.9381
24.925148 22.147057 317.11642
27.121162 23.988548 314.9908
27.64045 23.351631 317.07858
29.460411 24.845833 314.86383
30.073524 24.207634 316.85388
31.599754 25.720085 314.5769
32.3836 25.106087 316.45236
34.103874 26.980705 314.0232
35.1596 26.39878 315.7046
36.839134 28.446465 313.00803
38.16381 27.897423 314.39883
39.340294 29.821754 311.4422
40.77955 29.317406 312.5244
41.609306 31.179176 309.32657
43.01478 30.73838 310.1141
41.609337 31.179192 309.3266
43.01481 30.73841 310.1141
43.685173 32.686867 306.75824
44.98519 32.306618 307.2803
45.34124 34.18415 304.1416
46.564415 33.83274 304.4161
46.380028 35.65583 301.6491
47.583885 35.311424 301.7175
46.380043 35.65583 301.64914
47.5839 35.311424 301.7175
46.926506 37.22306 298.97922
48.108864 36.882774 298.90533
47.024635 38.877754 295.5086
48.065605 38.57125 295.27716
47.02465 38.87777 295.5086
48.06562 38.57128 295.2772
46.70034 40.195076 292.3036
47.530098 39.947548 291.99524
46.193306 41.508354 289.85562
46.886314 41.303947 289.53052
46.237587 43.145744 287.19293
45.584663 43.33857 287.5566
46.237602 43.14576 287.19296
44.854424 45.3444 285.26624
45.49804 45.14962 284.86435
44.080986 47.190666 283.12415
44.722557 47.00004 282.741
43.360954 49.02363 280.91904
43.99415 48.842476 280.5854
43.36097 49.023643 280.91904
43.994164 48.842537 280.58542
42.713783 50.891014 278.55743
43.33355 50.710976 278.24985
42.114876 52.659874 276.18344
42.74183 52.473625 275.90244
41.596443 54.219505 273.73438
42.21734 54.034355 273.5058
41.596413 54.21949 273.73434
42.217308 54.03434 273.50577
41.216316 55.62081 271.14075
41.806145 55.444557 270.97482
41.02735 56.91372 268.47495
41.59394 56.74221 268.3679
40.966652 58.012657 265.5936
41.50698 57.842873 265.52203
40.966652 58.012657 265.59357
41.506966 57.842857 265.522
40.818275 58.996773 262.5485
41.30256 58.841423 262.46088
40.28338 59.974815 259.48544
40.715157 59.82865 259.33847
39.220802 60.751396 256.4994
39.61915 60.60511 256.3007
39.220787 60.75141 256.49936
39.61915 60.60511 256.30066
38.047523 61.14614 253.71016
38.430687 61.003716 253.5277
37.115288 61.39965 250.89561
37.49389 61.26429 250.76364
36.562126 61.769173 248.06364
36.941765 61.638756 247.98282
36.368156 62.244057 245.14764
36.75506 62.113823 245.10808
36.368187 62.244102 245.14769
36.75509 62.113884 245.10811
36.274803 62.642204 242.0583
36.655296 62.514153 242.03313
36.311546 62.653557 239.11176
36.66262 62.5346 239.12129
36.42443 62.102943 236.06255
36.747078 61.994255 236.09737
36.424416 62.102913 236.06252
36.747063 61.994255 236.09732
35.959496 61.182274 232.81651
36.2557 61.08274 232.79431
34.79502 60.123116 229.99605
35.053093 60.035515 229.9143
33.71099 59.30419 227.40488
33.932716 59.22915 227.33151
33.710976 59.304176 227.40486
33.932686 59.229134 227.3315
33.051674 59.35856 224.68631
33.234016 59.297066 224.63747
32.7022 60.21073 222.23045
32.83651 60.168907 222.19737
32.77076 61.484047 219.98286
32.879097 61.458458 219.97063
32.770775 61.484093 219.98288
32.879128 61.45849 219.97066
33.070183 62.206947 217.86487
33.070213 62.206963 217.86488
12.59333 5.329704 316.1455
12.339302 6.431236 317.1941
12.786171 8.510857 318.1341
14.139671 10.928444 318.5477
16.004433 13.36422 318.636
16.004448 13.364235 318.636
18.072517 15.712624 318.60254
20.359535 17.826683 318.62662
22.90078 19.638252 318.75845
25.605583 21.16558 318.83423
25.605583 21.16558 318.83417
28.316109 22.336143 318.70715
30.78402 23.190102 318.39005
33.235756 24.127144 317.87375
36.237236 25.470985 316.92996
39.437187 27.022087 315.34714
42.111595 28.513344 313.2003
44.284767 30.035652 310.54755
44.284767 30.035652 310.5476
46.132057 31.70037 307.5104
47.605156 33.27247 304.464
48.574944 34.76229 301.6065
48.57496 34.762306 301.60654
49.061745 36.340202 298.6831
48.88163 38.08259 294.94534
48.88166 38.082603 294.94537
48.16323 39.552834 291.62402
47.404884 40.978004 289.15567
46.716774 42.83825 286.78592
46.716805 42.838264 286.78595
45.963356 44.839027 284.4265
45.18923 46.696083 282.31784
44.46189 48.553642 280.20334
44.46192 48.553688 280.20337
43.794655 50.42385 277.8963
43.213203 52.176643 275.57675
42.69152 53.739067 273.23016
42.69152 53.73905 273.23016
42.26348 55.163536 270.76035
42.038994 56.468758 268.2125
41.93357 57.57218 265.41068
41.93354 57.572166 265.41064
41.682564 58.593727 262.3445
41.048546 59.59556 259.1831
39.92434 60.371803 256.11768
38.727364 60.77659 253.36932
37.78974 61.048347 250.64798
37.239647 61.430748 247.90363
37.060036 61.90615 245.0598
37.06008 61.90621 245.05984
36.955574 62.30996 241.99988
36.93885 62.344963 239.12785
37.00132 61.82099 236.13863
37.00129 61.82096 236.1386
36.493706 60.92402 232.79646
35.26647 59.895866 229.86967
34.115273 59.10958 227.2865
34.115257 59.109566 227.2865
33.37861 59.199028 224.59541
32.941856 60.102196 222.15723
32.968636 61.413307 219.9437
32.968666 61.413338 219.94371
33.070198 62.206947 217.86487
12.888618 4.671471 316.91486
12.96006 5.665138 318.1653
13.698921 7.634071 319.34525
15.16819 10.009422 319.89352
17.027153 12.425453 320.02893
17.027153 12.425468 320.0289
19.017601 14.751808 320.0099
19.017616 14.751823 320.0099
21.204613 16.823433 320.0092
23.686302 18.584892 320.07605
26.354866 20.067299 320.07443
26.354866 20.067299 320.0744
29.013054 21.199821 319.86902
31.475319 22.05149 319.47314
34.034843 23.031715 318.8548
37.207863 24.432793 317.73572
40.536293 26.042564 315.91522
43.228157 27.61361 313.54886
45.328606 29.249275 310.7133
45.328636 29.249275 310.71332
47.055733 31.02201 307.53397
48.416435 32.645546 304.3661
49.323296 34.147896 301.39682
49.32331 34.14791 301.39685
49.765846 35.73313 298.3938
49.46702 37.53579 294.58853
49.467033 37.535805 294.58856
48.60372 39.1112 291.25543
47.757454 40.61329 288.79184
47.03475 42.494225 286.39758
47.034767 42.494225 286.3976
46.26615 44.491463 284.0154
45.49534 46.35598 281.9172
44.774803 48.230476 279.83414
44.77485 48.23049 279.83417
44.10589 50.102592 277.5539
43.53544 51.844383 275.2599
43.021797 53.4087 272.9564
43.021782 53.408684 272.95636
42.587547 54.849113 270.53992
42.35897 56.16279 268.04465
42.241966 57.26928 265.28714
42.241936 57.269264 265.2871
41.955544 58.31658 262.22342
41.283775 59.33477 259.03992
40.137703 60.11077 255.96495
40.137703 60.11077 255.96494
38.937325 60.52247 253.24362
38.001305 60.80677 250.5554
37.45362 61.198006 247.83432
37.280174 61.67382 245.01161
37.28022 61.673866 245.01164
37.1726 62.081535 241.9654
37.137856 62.13276 239.1319
37.184776 61.627113 236.17935
37.18476 61.627083 236.17932
36.66909 60.74642 232.81355
35.42826 59.739647 229.85307
34.25309 58.975792 227.26418
34.253075 58.975792 227.26414
33.48371 59.08938 224.56232
33.017418 60.027565 222.11726
33.035286 61.359657 219.9095
33.0353 61.359703 219.90952
13.642296 2.513649 313.64514
13.219261 3.962013 317.43292
13.622826 4.854286 318.82523
13.698906 7.634087 319.34525
14.667046 6.706902 320.16583
15.16819 10.009422 319.89355
16.265923 9.037575 320.81113
17.027153 12.425438 320.02893
18.128868 11.432732 320.9862
17.027153 12.425468 320.02893
18.128868 11.432732 320.98624
20.051933 13.735786 320.9878
19.017616 14.751808 320.0099
20.051933 13.735802 320.98782
21.204613 16.823448 320.0092
22.137672 15.762535 320.97232
24.538673 17.470985 320.98163
26.354881 20.067299 320.07446
27.138771 18.905922 320.90915
26.354881 20.067299 320.07443
27.138771 18.905907 320.90915
29.01307 21.199821 319.86902
29.708702 19.998222 320.6359
32.133827 20.847466 320.17398
34.03486 23.031715 318.8548
34.77189 21.87333 319.4661
38.06983 23.334953 318.19238
40.53631 26.042564 315.91522
41.47077 25.006783 316.17117
43.228172 27.613594 313.5489
44.147423 26.662132 313.63235
45.32862 29.249275 310.7133
46.1688 28.417702 310.66522
45.32865 29.249275 310.71332
46.168816 28.417732 310.66522
47.055733 31.021996 307.53397
47.781 30.30465 307.39523
48.41645 32.64556 304.3661
49.02729 31.982613 304.15665
49.323296 34.14791 301.3968
49.862495 33.498207 301.11533
49.32331 34.14791 301.39682
49.86251 33.498222 301.11536
50.257225 35.09118 298.05957
49.85691 36.957573 294.22134
49.46705 37.535805 294.5886
49.856926 36.95759 294.22134
48.603737 39.1112 291.25543
48.882225 38.644173 290.8984
47.757454 40.61329 288.79187
47.971 40.22764 288.44617
47.218346 42.130455 286.03397
47.21836 42.130455 286.03397
46.26615 44.491463 284.01538
46.434013 44.12397 283.63577
45.49534 46.35598 281.91718
45.668022 45.996315 281.5445
44.77482 48.23049 279.83414
44.958595 47.88874 279.48444
44.77485 48.230507 279.83417
44.958626 47.88877 279.48447
44.291878 49.762917 277.22897
43.53544 51.8444 275.2599
43.732735 51.49305 274.95807
43.021797 53.4087 272.95636
43.23095 53.059395 272.69095
43.021782 53.408684 272.95633
43.23095 53.05938 272.6909
42.587547 54.849113 270.5399
42.799004 54.516624 270.32037
42.5729 55.839226 267.87134
42.44996 56.94895 265.15726
42.449944 56.948936 265.15723
42.137688 58.02352 262.10175
41.436058 59.058983 258.90994
40.137703 60.110786 255.96495
40.27372 59.834755 255.83978
40.137703 60.110786 255.96494
38.937325 60.52247 253.2436
39.074013 60.253777 253.14668
38.00132 60.80677 250.5554
38.14147 60.551308 250.48323
37.453636 61.19802 247.83434
37.596443 60.95188 247.77458
37.280174 61.673836 245.01161
37.428246 61.428123 244.96474
37.428276 61.42817 244.96477
37.172585 62.081535 241.9654
37.31887 61.839973 241.93082
37.13784 62.13273 239.1319
37.27128 61.90838 239.1338
37.18476 61.627113 236.17935
37.308083 61.42208 236.21857
37.184746 61.627083 236.17932
37.308067 61.42208 236.21854
36.669075 60.74642 232.81355
36.790886 60.55863 232.84193
35.428246 59.739647 229.85306
35.54554 59.574394 229.85883
34.25309 58.975792 227.26416
34.352394 58.834282 227.26007
34.253075 58.975792 227.26413
34.352394 58.834282 227.26006
33.48371 59.089394 224.56229
33.555183 58.973457 224.53703
33.017433 60.02758 222.11726
33.067772 59.948677 222.07845
33.035286 61.359673 219.9095
33.080772 61.30181 219.87115
33.035316 61.35972 219.90952
33.080803 61.301857 219.87119
13.570854 3.232597 317.73315
14.309303 4.020439 319.2116
15.664589 5.753853 320.64334
17.402367 8.038582 321.35214
19.277458 10.412254 321.55997
19.277473 10.41227 321.56
21.142967 12.691399 321.58698
23.128197 14.67202 321.56546
25.432137 16.325966 321.52454
27.937859 17.71209 321.3879
27.937843 17.71209 321.3879
30.390877 18.763039 321.05676
32.752983 19.60984 320.5407
35.44358 20.682655 319.75546
38.825035 22.206429 318.34726
42.250175 23.942009 316.16003
44.88433 25.684074 313.4914
46.82264 27.56289 310.4381
46.82267 27.56292 310.43814
48.326424 29.567238 307.1225
49.458626 31.30117 303.85718
50.216103 32.830376 300.77853
50.216133 32.83039 300.77853
50.56086 34.431328 297.69345
50.075386 36.363197 293.8519
50.0754 36.363213 293.85193
49.019447 38.164116 290.5574
48.06385 39.831245 288.12186
47.285683 41.756508 285.69754
47.285683 41.756508 285.69757
46.48536 43.74621 283.28946
45.725304 45.62664 281.202
45.03045 47.537453 279.15744
45.030464 47.537468 279.15747
44.369255 49.413734 276.92453
43.82139 51.131874 274.67422
43.33451 52.70028 272.4373
43.334496 52.70028 272.43726
42.912025 54.174828 270.10556
42.69378 55.506645 267.6965
42.569786 56.619698 265.02438
42.569786 56.619682 265.02435
42.24021 57.722282 261.98175
41.51586 58.775536 258.79352
40.34223 59.551064 255.74011
40.34223 59.55108 255.74011
39.146584 59.977608 253.07573
38.219017 60.28875 250.42957
37.676796 60.698967 247.72397
37.513054 61.17559 244.91982
37.513084 61.175636 244.91985
37.403053 61.591667 241.89679
37.347176 61.677742 239.13396
37.378624 61.211372 236.25581
37.37861 61.21134 236.25577
36.865517 60.365623 232.87921
35.623283 59.40455 229.88329
34.41755 58.688835 227.27147
34.41755 58.68882 227.27145
33.597084 58.854256 224.51883
33.095955 59.86753 222.04124
33.107582 61.24215 219.83054
33.107597 61.24218 219.83055
13.943703 2.484261 317.82776
15.023338 3.159264 319.32547
16.697044 4.7696 320.77823
18.58387 7.006874 321.51718
20.479393 9.35836 321.751
20.479393 9.358376 321.75104
22.296867 11.612801 321.80844
22.296867 11.612801 321.8084
24.181831 13.545769 321.78958
26.371696 15.143456 321.70554
28.756462 16.479164 321.51117
31.063087 17.48748 321.132
33.335655 18.331932 320.57373
36.052864 19.45324 319.7229
39.47683 21.041008 318.19952
42.87777 22.8424 315.8802
45.441856 24.674004 313.12387
47.29261 26.680107 310.02972
47.29261 26.680122 310.02975
48.693916 28.805656 306.71344
49.7118 30.597374 303.46542
50.385033 32.140617 300.38416
50.385048 32.140633 300.3842
50.67736 33.74984 297.29324
50.122612 35.749382 293.47824
50.122643 35.749397 293.47827
49.01528 37.668327 290.23074
48.03576 39.421806 287.81723
47.236397 41.370277 285.3866
47.236427 41.370277 285.38663
46.419777 43.356056 282.9746
45.666817 45.24482 280.8879
44.990074 47.174614 278.85132
44.99009 47.174644 278.85135
44.337715 49.053062 276.639
43.801247 50.758873 274.4069
43.33236 52.329414 272.1941
43.332344 52.329414 272.19406
42.926567 53.821846 269.89432
42.721687 55.163155 267.51923
42.601524 56.27964 264.8877
42.60151 56.27961 264.88766
42.26316 57.41117 261.8628
41.523247 58.48278 258.6899
40.343193 59.258064 255.66545
40.343193 59.258064 255.66544
39.155113 59.69239 253.03046
38.23403 60.01757 250.39417
37.694786 60.437706 247.68216
37.534645 60.914757 244.87651
37.534676 60.914818 244.87654
37.425163 61.335197 241.86311
37.36561 61.439507 239.1323
37.396492 60.993736 236.29126
37.39646 60.99372 236.29123
36.89303 60.166283 232.92567
35.661674 59.229134 229.92667
34.44866 58.538612 227.29848
34.448647 58.538597 227.29843
33.60943 58.731133 224.50758
33.10206 59.783745 222.00542
33.1164 61.180733 219.78773
33.116417 61.18078 219.78773
14.342918 1.709328 317.7051
15.775932 2.258476 319.14163
17.779152 3.740242 320.53876
19.827354 5.928291 321.27194
21.752602 8.25663 321.52466
21.752602 8.25666 321.5247
23.532433 10.48481 321.61792
23.532433 10.484825 321.61792
25.316505 12.367668 321.6111
27.372124 13.906639 321.49146
29.604729 15.190117 321.24622
29.604744 15.190117 321.24622
31.730019 16.154594 320.83014
33.882545 16.997017 320.24243
36.59913 18.168297 319.3374
40.02215 19.821846 317.71765
43.34565 21.691841 315.30167
45.80851 23.617104 312.50302
47.565804 25.756401 309.4174
47.565804 25.756416 309.41742
48.870094 28.008827 306.14984
49.772026 29.860939 302.96777
50.352806 31.418877 299.922
50.35282 31.418877 299.92203
50.58941 33.036736 296.85098
49.982124 35.10711 293.09564
49.982155 35.10711 293.09567
48.85569 37.14953 289.91605
47.874413 38.993385 287.53073
47.058403 40.966164 285.10016
46.224907 42.947823 282.69083
45.48043 44.84533 280.60147
44.825874 46.794975 278.56488
44.825874 46.795006 278.5649
44.18609 48.675682 276.37112
43.661247 50.368584 274.1548
43.214012 51.941383 271.95966
43.21398 51.94137 271.95963
42.83303 53.45249 269.68454
42.647743 54.80378 267.33716
42.536873 55.923866 264.74536
42.536842 55.92385 264.74533
42.198936 57.085655 261.7436
41.451088 58.17643 258.5993
40.269966 58.95147 255.6175
40.269966 58.95147 255.61748
39.093315 59.39393 253.01295
38.18049 59.733818 250.37851
37.644432 60.16433 247.64964
37.48707 60.641838 244.83458
37.487114 60.641884 244.83461
37.379387 61.06684 241.82942
37.321114 61.19024 239.1286
37.356636 60.766014 236.3252
37.35659 60.765984 236.32516
36.869118 59.95771 232.98283
35.657265 59.0456 229.99138
34.442726 58.381416 227.34294
34.44271 58.381386 227.34291
33.589485 58.602303 224.5039
33.083946 59.696114 221.97084
33.106148 61.117165 219.74246
33.106163 61.117195 219.74248
33.070198 62.206963 217.86488
13.642311 2.513695 313.6452
14.342934 1.709343 317.7051
14.755501 0.930946 317.3531
15.775948 2.258492 319.14163
16.541573 1.347847 318.64868
17.779167 3.740242 320.53876
18.872368 2.702248 319.91318
19.82737 5.928307 321.27197
21.085274 4.84417 320.60657
21.752602 8.25663 321.5247
23.04673 7.151024 320.8721
21.752602 8.25666 321.52472
23.04673 7.151024 320.87207
23.532433 10.484825 321.61795
24.802315 9.351433 321.0047
24.802315 9.351463 321.0047
25.316505 12.367699 321.6111
26.489784 11.182289 321.01813
27.372139 13.906654 321.49146
28.394203 12.662315 320.87238
29.604744 15.190132 321.24625
30.445808 13.894447 320.5867
29.60476 15.190117 321.24625
31.73005 16.15461 320.83014
32.35833 14.816063 320.14752
33.882576 16.997032 320.24243
34.36396 15.655785 319.5438
36.59916 18.168297 319.33743
37.054787 16.873741 318.59503
40.022163 19.821861 317.71765
40.43406 18.590034 316.89926
43.34568 21.691841 315.30167
43.627144 20.528511 314.42703
45.808525 23.617104 312.50302
45.95948 22.548393 311.63565
47.56582 25.756416 309.41742
47.62037 24.822395 308.61047
47.565834 25.756432 309.41745
47.620384 24.822426 308.6105
48.870094 28.008827 306.14987
48.8368 27.203072 305.44244
49.772026 29.860954 302.9678
49.625237 29.11628 302.37555
50.352837 31.418892 299.922
50.108253 30.689064 299.40442
50.352837 31.418907 299.92203
50.10827 30.689095 299.40442
50.589424 33.036766 296.85098
50.28762 32.31565 296.37988
49.982155 35.107124 293.09567
49.647453 34.45762 292.71725
49.98217 35.107124 293.0957
49.64747 34.45762 292.71725
48.85569 37.149544 289.91608
48.53678 36.624947 289.6253
47.874443 38.993416 287.53076
47.5774 38.560234 287.2738
47.058434 40.966194 285.10016
46.750114 40.557533 284.84998
47.05845 40.966194 285.10016
46.750145 40.557564 284.85
46.224937 42.947838 282.69083
45.89982 42.535027 282.45023
45.48046 44.84533 280.6015
45.164986 44.441353 280.35474
44.82589 46.794975 278.5649
44.53614 46.41108 278.30945
44.825905 46.795006 278.56494
44.53614 46.41111 278.30948
44.18609 48.675697 276.37112
43.912422 48.29409 276.13153
43.661247 50.368614 274.1548
43.399055 49.9739 273.92776
43.214012 51.9414 271.95966
42.976585 51.548973 271.74283
43.213997 51.941383 271.95963
42.97657 51.548973 271.74283
42.833046 53.452507 269.68457
42.628166 53.079033 269.4839
42.647743 54.803795 267.3372
42.46833 54.440376 267.1566
42.536873 55.92388 264.74536
42.372185 55.564034 264.602
42.536842 55.923866 264.74533
42.37217 55.564034 264.60196
42.198982 57.085655 261.74362
42.044502 56.756447 261.62845
41.451103 58.176445 258.59933
41.29705 57.86666 258.52573
40.26998 58.951485 255.61751
40.120613 58.641457 255.59956
40.269966 58.9515 255.6175
40.120598 58.641457 255.59956
39.09333 59.393944 253.01299
38.9591 59.092125 253.02556
38.18052 59.733833 250.37852
38.0561 59.44689 250.38428
37.644447 60.16436 247.64966
37.523354 59.88793 247.62808
37.487083 60.641853 244.8346
37.367775 60.365883 244.79558
37.48713 60.6419 244.83463
37.36779 60.36593 244.79561
37.379402 61.066856 241.82945
37.263145 60.795494 241.79694
37.32113 61.190254 239.12862
37.211403 60.938194 239.1229
37.35665 60.766045 236.3252
37.25692 60.535744 236.35626
37.35662 60.766 236.32518
37.256874 60.53573 236.35623
36.869118 59.95774 232.98285
36.791466 59.746788 233.04926
35.657265 59.045616 229.99138
35.607597 58.86004 230.07639
34.44274 58.38143 227.34294
34.397682 58.222496 227.40436
34.44271 58.381416 227.34293
34.39765 58.22248 227.40434
33.589516 58.602318 224.5039
33.535988 58.47207 224.50839
33.08396 59.696144 221.97086
33.040733 59.60749 221.93875
33.106163 61.11718 219.74246
33.075768 61.053673 219.69629
33.10618 61.117226 219.74248
33.075783 61.05372 219.69629
33.070213 62.206978 217.86488
13.642281 2.513634 313.6451
15.14463 0.215309 316.77762
17.248299 0.511909 317.8649
19.86927 1.756905 318.92957
22.223686 3.869759 319.56058
24.214745 6.167336 319.84085
24.21476 6.167336 319.84088
25.961128 8.342598 320.01474
27.568016 10.122398 320.05334
29.318245 11.547676 319.89316
31.176292 12.732643 319.5802
31.176277 12.732628 319.5802
32.86541 13.613304 319.13165
34.714333 14.445229 318.52267
37.36181 15.695854 317.53854
40.659966 17.461266 315.79108
43.678276 19.460548 313.31085
45.860313 21.567116 310.58008
47.430748 23.96473 307.66653
47.43078 23.96476 307.66656
48.57766 26.463173 304.64417
49.265923 28.432503 301.73553
49.654488 30.018944 298.87488
49.654503 30.018974 298.8749
49.780342 31.653526 295.92157
49.131844 33.861214 292.379
49.13186 33.86123 292.379
48.073677 36.143303 289.3881
47.159904 38.162483 287.0733
46.328316 40.182304 284.6629
46.32833 40.182304 284.66293
45.462807 42.155937 282.2794
44.737984 44.070366 280.1745
44.13633 46.058586 278.11197
44.13636 46.0586 278.112
43.531075 47.943718 275.94525
43.027916 49.61149 273.7495
42.631233 51.18862 271.5657
42.631233 51.188606 271.56567
42.320778 52.736076 269.312
42.190453 54.106667 266.9946
42.113594 55.23365 264.47107
42.113564 55.233635 264.47104
41.80587 56.45414 261.5284
41.067955 57.582237 258.47763
39.902 58.356773 255.61613
39.902 58.356773 255.61612
38.758278 58.814964 253.0698
37.865883 59.18342 250.41295
37.33628 59.634087 247.62056
37.181175 60.11245 244.76347
37.181206 60.11251 244.7635
37.080772 60.546318 241.76883
37.04064 60.70675 239.11555
37.10108 60.324272 236.38132
37.101067 60.324257 236.38127
36.662315 59.553047 233.11954
35.513054 58.689613 230.17563
34.31408 58.076576 227.47852
34.314064 58.07656 227.47849
33.450768 58.35244 224.52135
32.97419 59.526085 221.91235
33.026054 60.99598 219.6532
33.026085 60.99601 219.65321
15.472176 -0.36599 316.00693
17.825142 -0.165092 316.83035
20.665855 1.002724 317.64154
23.113197 3.116188 318.20026
25.110329 5.43 318.5091
25.110344 5.430016 318.5091
26.855446 7.592964 318.73178
28.405647 9.328423 318.79987
30.017876 10.704079 318.6341
31.694405 11.843956 318.30307
31.69439 11.843956 318.30307
33.177437 12.682472 317.85284
34.880516 13.495522 317.24396
37.473778 14.756416 316.2325
40.65818 16.550194 314.46362
43.469185 18.595665 312.02878
45.49299 20.772057 309.41214
46.987785 23.269783 306.65674
46.987816 23.269783 306.65677
48.09176 25.86361 303.81787
48.70376 27.878395 301.10074
49.010185 29.47593 298.38022
49.010185 29.475945 298.38022
49.0915 31.116966 295.51904
48.46264 33.377968 292.11597
48.462654 33.377983 292.11603
47.49285 35.752953 289.23175
46.646904 37.840157 286.95352
45.819115 39.878242 284.56284
45.81913 39.878258 284.56287
44.941597 41.848793 282.20135
44.226234 43.769768 280.0843
43.650948 45.772957 277.99655
43.650963 45.772987 277.99658
43.064995 47.659813 275.83508
42.569756 49.31785 273.64157
42.197716 50.89666 271.44864
42.197716 50.896645 271.44858
41.927773 52.458168 269.18765
41.828743 53.83622 266.86792
41.774452 54.96592 264.36578
41.774437 54.96592 264.36575
41.495705 56.209175 261.4544
40.776573 57.35177 258.46222
39.626564 58.126076 255.6695
39.626564 58.12609 255.6695
38.501945 58.590385 253.14519
37.62008 58.969917 250.4645
37.0931 59.42843 247.62933
36.93705 59.907127 244.74193
36.93708 59.907173 244.74196
36.841698 60.344444 241.74814
36.817818 60.519234 239.10704
36.897346 60.15293 236.39738
36.897316 60.152916 236.39734
36.487907 59.396126 233.18771
35.37745 58.55152 230.28159
34.195473 57.958336 227.56007
34.195457 57.95832 227.56004
33.33822 58.25553 224.54256
32.88781 59.46015 221.89478
32.959724 60.949837 219.61745
32.959755 60.949867 219.61746
15.711403 -0.762703 315.0896
18.226784 -0.628975 315.60532
21.20327 0.496162 316.1197
23.696175 2.633156 316.59128
25.678505 4.985268 316.937
25.67852 4.985268 316.93704
27.422218 7.157249 317.221
27.422234 7.157249 317.221
28.937279 8.864571 317.3282
30.44088 10.197273 317.16397
31.966866 11.292686 316.8202
31.966866 11.292671 316.82016
33.278313 12.089073 316.37466
34.85401 12.875603 315.77438
37.378685 14.128227 314.7525
40.418312 15.930779 313.00003
43.002052 18.00425 310.66373
44.870613 20.22776 308.2088
46.310875 22.793678 305.6489
46.310905 22.793709 305.64893
47.40284 25.452812 303.0201
47.96885 27.498756 300.5159
48.211784 29.103874 297.9567
48.2118 29.103874 297.95673
48.261116 30.749352 295.2031
47.67974 33.046852 291.95004
47.67977 33.046852 291.9501
46.829704 35.48551 289.17096
46.07 37.619286 286.92664
45.254204 39.6699 284.56073
45.25422 39.669914 284.56076
44.368828 41.63833 282.22595
43.661766 43.563805 280.09464
43.11004 45.577248 277.9751
43.110054 45.577263 277.97513
42.543037 47.465263 275.8122
42.052742 49.116646 273.61456
41.702354 50.6966 271.40256
41.702354 50.696587 271.40256
41.472694 52.267708 269.1217
41.40467 53.650917 266.787
41.37484 54.78251 264.29465
41.374825 54.78251 264.29462
41.13244 56.041344 261.41263
40.440407 57.19381 258.482
39.310966 57.967995 255.75749
39.310966 57.967995 255.75748
38.205498 58.436516 253.2478
37.333336 58.8236 250.53621
36.80828 59.287468 247.65443
36.649834 59.76638 244.73288
36.64985 59.76644 244.73291
36.560066 60.206093 241.73662
36.55613 60.390694 239.0979
36.657692 60.035515 236.40292
36.657677 60.035484 236.40288
36.278328 59.28855 233.24892
35.208366 58.45687 230.38712
34.048393 57.877266 227.64363
34.048378 57.877266 227.6436
33.204933 58.18911 224.57083
32.786797 59.41494 221.88753
32.88114 60.91889 219.59181
32.881157 60.918922 219.59183
15.846565 -0.946922 314.0869
18.4282 -0.849724 314.26324
21.455116 0.263405 314.44794
23.962624 2.429466 314.80426
25.929039 4.824257 315.17505
25.929039 4.824272 315.17505
27.677101 7.021446 315.5236
29.177483 8.721504 315.68018
30.603645 10.024803 315.5296
32.013145 11.084648 315.1857
32.013145 11.084648 315.18567
33.18995 11.84864 314.7591
34.65426 12.611168 314.18555
37.08822 13.847023 313.18213
39.953346 15.644035 311.49023
42.302666 17.72651 309.30124
44.029152 19.97094 307.04562
45.439995 22.568306 304.7061
45.439995 22.568321 304.70612
46.552116 25.258125 302.30103
47.105644 27.318825 300.018
47.307808 28.927528 297.63147
47.307823 28.927528 297.6315
47.33979 30.575111 294.9942
46.831062 32.889885 291.89243
46.831093 32.889885 291.8925
46.1249 35.35871 289.21033
45.464653 37.51455 286.9951
44.668373 39.5711 284.65762
44.66839 39.571114 284.65762
43.77984 41.53855 282.35245
43.07926 43.466194 280.20575
42.546898 45.484474 278.04987
42.54693 45.48449 278.04987
41.997322 47.373024 275.87885
41.5086 49.021248 273.67108
41.17553 50.60177 271.43103
41.175514 50.601738 271.43097
40.983482 52.177452 269.11887
40.94422 53.563087 266.75735
40.9392 54.695564 264.2625
40.939186 54.695564 264.26248
40.73829 55.961815 261.40613
40.0801 57.118965 258.53613
38.974632 57.893074 255.87498
38.974632 57.89306 255.87497
37.88717 58.36355 253.37149
37.023247 58.754265 250.62384
36.499306 59.220634 247.69447
36.33709 59.699684 244.737
36.33712 59.69973 244.73703
36.25312 60.14051 241.73508
36.271584 60.32978 239.08871
36.396812 59.97985 236.39755
36.396782 59.97982 236.3975
36.046394 59.237587 233.29932
35.01606 58.412025 230.48573
33.881874 57.83886 227.72401
33.881874 57.838844 227.72398
33.05906 58.157646 224.60452
32.677284 59.393517 221.8912
32.79545 60.90513 219.57793
32.795464 60.90516 219.57793
33.070183 62.206947 217.86484
13.642311 2.513664 313.64517
15.870491 -0.910179 313.06607
18.417305 -0.813896 312.88486
21.409172 0.316154 312.72406
23.908943 2.507271 312.9348
25.872948 4.935341 313.3042
25.872963 4.935356 313.30423
27.643929 7.16172 313.7042
27.643944 7.16172 313.7042
29.154945 8.872643 313.914
30.532951 10.167442 313.79468
31.85653 11.211464 313.47333
31.85653 11.211464 313.4733
32.935036 11.961937 313.08725
34.30358 12.71035 312.5637
36.623253 13.927635 311.61322
39.290306 15.708687 310.02676
41.41137 17.781319 308.0257
43.018272 20.018547 305.99426
44.427284 22.608131 303.88608
44.4273 22.608131 303.8861
45.59086 25.29174 301.70444
46.166252 27.349785 299.63742
46.352882 28.957863 297.42435
46.352898 28.957863 297.42438
46.383217 30.605095 294.90527
45.96792 32.916847 291.9469
45.967934 32.916878 291.94693
45.421074 35.3805 289.34766
44.86753 37.53257 287.1549
44.097145 39.58811 284.8477
44.09716 39.58811 284.8477
43.210304 41.555717 282.57336
42.514168 43.48301 280.41107
41.995735 45.50042 278.21637
41.99575 45.500465 278.2164
41.46087 47.388878 276.03113
40.970345 49.03762 273.80777
40.649193 50.618065 271.53244
40.649193 50.618065 271.53238
40.48977 52.192986 269.17935
40.475273 53.57821 266.78085
40.49392 54.71055 264.27136
40.49389 54.710518 264.27133
40.33709 55.975517 261.4353
39.71746 57.13189 258.6213
38.63787 57.905983 256.01492
38.63787 57.905983 256.0149
37.566124 58.376106 253.50879
36.70852 58.766228 250.72215
36.184807 59.232185 247.74706
36.017784 59.711205 244.75415
36.01783 59.711235 244.75417
35.93949 60.151817 241.74365
35.981453 60.340294 239.08005
36.130516 59.989464 236.38155
36.130486 59.98945 236.38152
35.806145 59.246407 233.33578
34.812218 58.419746 230.57137
33.706 57.84548 227.79634
33.706 57.845467 227.79633
32.90943 58.163063 224.64162
32.56591 59.397194 221.90564
32.708107 60.90905 219.57639
32.708122 60.909096 219.57639
33.070213 62.206947 217.86487
15.870506 -0.910194 313.06607
15.767494 -0.618904 312.0038
18.417336 -0.813911 312.88486
18.164742 -0.486076 311.454
21.409187 0.316154 312.72406
21.021233 0.696327 310.92966
23.481514 2.913277 310.96515
25.872948 4.935341 313.30417
25.455757 5.366463 311.3055
25.872963 4.935341 313.30417
25.455772 5.366463 311.30554
27.643929 7.16172 313.70416
27.277 7.621895 311.73682
27.643944 7.16172 313.70416
27.277016 7.621895 311.73682
29.154945 8.872643 313.91397
28.833488 9.359505 311.99878
30.195412 10.670021 311.9316
31.464378 11.722664 311.66135
31.464378 11.722649 311.66132
32.935036 11.961937 313.08722
32.484673 12.481285 311.3409
34.30358 12.710365 312.56366
33.77523 13.225929 310.89355
36.623238 13.927635 311.6132
35.953728 14.421669 310.03482
39.290306 15.708687 310.02673
38.394936 16.17434 308.60495
41.411354 17.781319 308.02567
40.292458 18.215782 306.83975
41.805107 20.41323 305.06195
43.244316 22.94976 303.19897
43.24433 22.94976 303.19904
45.59086 25.29174 301.7044
44.49575 25.584984 301.24194
46.166237 27.3498 299.6374
45.13233 27.620537 299.38672
46.352867 28.957863 297.42432
45.331947 29.223183 297.3496
45.331963 29.223213 297.3496
46.383217 30.60508 294.90527
45.378517 30.867256 294.95175
45.081017 33.152992 292.12897
45.96795 32.916878 291.94693
45.081062 33.153023 292.12903
45.421074 35.380486 289.34766
44.71238 35.571236 289.59735
44.867516 37.532555 287.1549
44.274605 37.6901 287.41977
44.09713 39.588097 284.8477
43.537544 39.736702 285.1453
43.537575 39.736717 285.1453
43.21029 41.555717 282.57336
42.658028 41.705833 282.90344
42.514153 43.483025 280.41107
41.96392 43.62989 280.72516
41.995735 45.500435 278.21637
41.453407 45.640007 278.48853
41.99575 45.50048 278.2164
41.453423 45.640038 278.48856
41.46087 47.388893 276.03116
40.930397 47.527626 276.2819
40.434166 49.181145 274.03656
40.649193 50.618065 271.5324
40.11895 50.76075 271.71744
40.649178 50.618065 271.53238
40.118935 50.76075 271.71744
40.489754 52.192986 269.17932
39.986763 52.32876 269.31223
40.47529 53.57821 266.78082
39.9927 53.71032 266.86493
40.49392 54.71055 264.27133
40.03385 54.841347 264.32678
40.493904 54.710518 264.2713
40.03385 54.841347 264.32675
40.337105 55.975517 261.4353
39.92457 56.095207 261.5052
39.349083 57.244514 258.74246
38.297752 58.018715 256.18152
38.297752 58.01873 256.18152
37.23928 58.485832 253.66273
36.70852 58.766228 250.72214
36.385857 58.870537 250.83339
36.184807 59.232185 247.74704
35.861412 59.332695 247.81436
36.01777 59.711205 244.75414
35.688316 59.811546 244.78618
36.017815 59.711235 244.75417
35.688347 59.811577 244.78621
35.615517 60.25045 241.76378
35.98147 60.340294 239.08005
35.682503 60.431923 239.07187
35.85578 60.073204 236.3533
36.130486 59.989433 236.38153
35.855766 60.073174 236.35329
35.806145 59.246407 233.3358
35.55439 59.323097 233.35674
34.593468 58.48725 230.64299
33.706 57.845467 227.79634
33.517982 57.903267 227.86014
33.706 57.84545 227.79633
33.517967 57.90325 227.8601
32.754265 58.21041 224.68289
32.565895 59.39718 221.90564
32.451454 59.42945 221.93239
32.708107 60.909035 219.57639
32.616783 60.933403 219.58899
32.708122 60.90908 219.5764
32.6168 60.93345 219.589
33.070198 62.206963 217.86485
POLYGONS 2293 9172
3 0 1 2
3 0 2 3
3 3 2 4
3 3 4 5
3 5 4 6
3 5 6 7
3 7 6 8
3 7 8 9
3 9 8 10
3 11 12 13
3 13 12 14
3 15 16 17
3 17 16 18
3 17 18 19
3 19 18 20
3 19 20 21
3 21 20 22
3 23 24 25
3 25 24 26
3 25 26 27
3 27 26 28
3 27 28 29
3 29 28 30
3 29 30 31
3 31 30 32
3 31 32 33
3 33 32 34
3 33 34 35
3 35 34 36
3 35 36 37
3 37 36 38
3 39 40 41
3 41 40 42
3 41 42 43
3 43 42 44
3 43 44 45
3 45 44 46
3 47 48 49
3 49 48 50
3 49 50 51
3 51 50 52
3 53 54 55
3 55 54 56
3 55 56 57
3 57 56 58
3 57 58 59
3 59 58 60
3 61 62 63
3 63 62 64
3 63 64 65
3 65 64 66
3 65 66 67
3 67 66 68
3 69 70 71
3 71 70 72
3 71 72 73
3 73 72 74
3 73 74 75
3 75 74 76
3 77 78 79
3 79 78 80
3 79 80 81
3 81 80 82
3 81 82 83
3 83 82 84
3 85 86 87
3 87 86 88
3 87 88 89
3 89 88 90
3 89 90 91
3 91 90 92
3 93 94 95
3 95 94 96
3 95 96 97
3 97 96 98
3 97 98 99
3 99 98 100
3 99 100 101
3 101 100 102
3 103 104 105
3 105 104 106
3 105 106 107
3 107 106 108
3 107 108 109
3 109 108 110
3 111 112 113
3 113 112 114
3 113 114 115
3 115 114 116
3 115 116 117
3 117 116 118
3 119 120 121
3 121 120 122
3 121 122 123
3 123 122 124
3 123 124 125
3 125 124 126
3 127 128 129
3 1 130 2
3 2 130 131
3 2 131 4
3 4 131 132
3 4 132 6
3 6 132 133
3 6 133 8
3 8 133 134
3 8 134 10
3 10 134 135
3 12 136 14
3 14 136 137
3 16 137 18
3 18 137 138
3 18 138 20
3 20 138 139
3 20 139 22
3 22 139 140
3 24 141 26
3 26 141 142
3 26 142 28
3 28 142 143
3 28 143 30
3 30 143 144
3 30 144 32
3 32 144 145
3 32 145 34
3 34 145 146
3 34 146 36
3 36 146 147
3 36 147 38
3 38 147 148
3 40 149 42
3 42 149 150
3 42 150 44
3 44 150 151
3 44 151 46
3 46 151 152
3 48 153 50
3 50 153 154
3 50 154 52
3 52 154 155
3 54 156 56
3 56 156 157
3 56 157 58
3 58 157 158
3 58 158 60
3 60 158 159
3 62 160 64
3 64 160 161
3 64 161 66
3 66 161 162
3 66 162 68
3 68 162 163
3 70 164 72
3 72 164 165
3 72 165 74
3 74 165 166
3 74 166 76
3 76 166 167
3 78 168 80
3 80 168 169
3 80 169 82
3 82 169 170
3 82 170 84
3 84 170 171
3 86 172 88
3 88 172 173
3 88 173 90
3 90 173 174
3 90 174 92
3 92 174 175
3 94 175 96
3 96 175 176
3 96 176 98
3 98 176 177
3 98 177 100
3 100 177 178
3 100 178 102
3 102 178 179
3 104 180 106
3 106 180 181
3 106 181 108
3 108 181 182
3 108 182 110
3 110 182 183
3 112 184 114
3 114 184 185
3 114 185 116
3 116 185 186
3 116 186 118
3 118 186 187
3 120 188 122
3 122 188 189
3 122 189 124
3 124 189 190
3 124 190 126
3 126 190 191
3 128 192 129
3 129 192 193
3 131 130 194
3 131 194 132
3 132 194 195
3 132 195 133
3 133 195 196
3 133 196 134
3 134 196 197
3 134 197 135
3 135 197 198
3 136 199 137
3 137 199 200
3 137 201 138
3 138 201 202
3 138 202 139
3 139 202 203
3 139 203 140
3 140 203 204
3 141 205 142
3 142 205 206
3 142 206 143
3 143 206 207
3 143 207 144
3 144 207 208
3 144 208 145
3 145 208 209
3 145 209 146
3 146 209 210
3 146 210 147
3 147 210 211
3 147 211 148
3 148 211 212
3 149 213 150
3 150 213 214
3 150 214 151
3 151 214 215
3 151 215 152
3 152 215 216
3 153 217 154
3 154 217 218
3 154 218 155
3 155 218 219
3 156 220 157
3 157 220 221
3 157 221 158
3 158 221 222
3 158 222 159
3 159 222 223
3 160 224 161
3 161 224 225
3 161 225 162
3 162 225 226
3 162 226 163
3 163 226 227
3 164 228 165
3 165 228 229
3 165 229 166
3 166 229 230
3 166 230 167
3 167 230 231
3 168 232 169
3 169 232 233
3 169 233 170
3 170 233 234
3 170 234 171
3 171 234 235
3 172 236 173
3 173 236 237
3 173 237 174
3 174 237 238
3 174 238 175
3 175 238 239
3 175 240 176
3 176 240 241
3 176 241 177
3 177 241 242
3 177 242 178
3 178 242 243
3 178 243 179
3 179 243 244
3 180 245 181
3 181 245 246
3 181 246 182
3 182 246 247
3 182 247 183
3 183 247 248
3 184 249 185
3 185 249 250
3 185 250 186
3 186 250 251
3 186 251 187
3 187 251 252
3 188 253 189
3 189 253 254
3 189 254 190
3 190 254 255
3 190 255 191
3 191 255 256
3 192 257 193
3 193 257 129
3 130 258 194
3 194 258 259
3 194 259 195
3 195 259 260
3 195 260 196
3 196 260 261
3 196 261 197
3 197 261 262
3 197 262 198
3 198 262 263
3 199 264 200
3 200 264 265
3 201 265 202
3 202 265 266
3 202 266 203
3 203 266 267
3 203 267 204
3 204 267 268
3 205 269 206
3 206 269 270
3 206 270 207
3 207 270 271
3 207 271 208
3 208 271 272
3 208 272 209
3 209 272 273
3 209 273 210
3 210 273 274
3 210 274 211
3 211 274 275
3 211 275 212
3 212 275 276
3 213 277 214
3 214 277 278
3 214 278 215
3 215 278 279
3 215 279 216
3 216 279 280
3 217 281 218
3 218 281 282
3 218 282 219
3 219 282 283
3 220 284 221
3 221 284 285
3 221 285 222
3 222 285 286
3 222 286 223
3 223 286 287
3 224 288 225
3 225 288 289
3 225 289 226
3 226 289 290
3 226 290 227
3 227 290 291
3 228 292 229
3 229 292 293
3 229 293 230
3 230 293 294
3 230 294 231
3 231 294 295
3 232 296 233
3 233 296 297
3 233 297 234
3 234 297 298
3 234 298 235
3 235 298 299
3 236 300 237
3 237 300 301
3 237 301 238
3 238 301 302
3 238 302 239
3 239 302 303
3 240 303 241
3 241 303 304
3 241 304 242
3 242 304 305
3 242 305 243
3 243 305 306
3 243 306 244
3 244 306 307
3 245 308 246
3 246 308 309
3 246 309 247
3 247 309 310
3 247 310 248
3 248 310 311
3 249 312 250
3 250 312 313
3 250 313 251
3 251 313 314
3 251 314 252
3 252 314 315
3 253 316 254
3 254 316 317
3 254 317 255
3 255 317 318
3 255 318 256
3 256 318 319
3 257 320 129
3 129 320 321
3 258 1 259
3 259 1 322
3 259 322 260
3 260 322 323
3 260 323 261
3 261 323 324
3 261 324 262
3 262 324 325
3 262 325 263
3 263 325 326
3 264 327 265
3 265 327 328
3 265 328 266
3 266 328 329
3 266 329 267
3 267 329 330
3 267 330 268
3 268 330 331
3 269 332 270
3 270 332 333
3 270 333 271
3 271 333 334
3 271 334 272
3 272 334 335
3 272 335 273
3 273 335 336
3 273 336 274
3 274 336 337
3 274 337 275
3 275 337 338
3 275 338 276
3 276 338 339
3 277 340 278
3 278 340 341
3 278 341 279
3 279 341 342
3 279 342 280
3 280 342 343
3 281 344 282
3 282 344 345
3 282 345 283
3 283 345 346
3 284 347 285
3 285 347 348
3 285 348 286
3 286 348 349
3 286 349 287
3 287 349 350
3 288 351 289
3 289 351 352
3 289 352 290
3 290 352 353
3 290 353 291
3 291 353 354
3 292 355 293
3 293 355 356
3 293 356 294
3 294 356 357
3 294 357 295
3 295 357 358
3 296 359 297
3 297 359 360
3 297 360 298
3 298 360 361
3 298 361 299
3 299 361 362
3 300 363 301
3 301 363 364
3 301 364 302
3 302 364 365
3 302 365 303
3 303 365 366
3 303 367 304
3 304 367 368
3 304 368 305
3 305 368 369
3 305 369 306
3 306 369 370
3 306 370 307
3 307 370 371
3 308 372 309
3 309 372 373
3 309 373 310
3 310 373 374
3 310 374 311
3 311 374 375
3 312 376 313
3 313 376 377
3 313 377 314
3 314 377 378
3 314 378 315
3 315 378 379
3 316 380 317
3 317 380 381
3 317 381 318
3 318 381 382
3 318 382 319
3 319 382 383
3 320 384 321
3 321 384 385
3 386 387 388
3 388 387 389
3 388 389 390
3 390 389 391
3 390 391 392
3 392 391 393
3 392 393 394
3 394 393 395
3 394 395 396
3 396 395 397
3 327 398 399
3 399 398 400
3 328 401 402
3 402 401 403
3 402 403 404
3 404 403 405
3 404 405 331
3 331 405 406
3 332 407 408
3 408 407 409
3 408 409 410
3 410 409 411
3 410 411 412
3 412 411 413
3 412 413 336
3 336 413 414
3 336 414 415
3 415 414 416
3 415 416 417
3 417 416 418
3 417 418 419
3 419 418 420
3 421 422 423
3 423 422 424
3 423 424 342
3 342 424 425
3 342 425 343
3 343 425 426
3 344 427 345
3 345 427 428
3 345 428 429
3 429 428 430
3 347 431 348
3 348 431 432
3 348 432 349
3 349 432 433
3 349 433 434
3 434 433 435
3 436 437 438
3 438 437 439
3 438 439 440
3 440 439 441
3 440 441 442
3 442 441 443
3 355 444 356
3 356 444 445
3 356 445 446
3 446 445 447
3 446 447 358
3 358 447 448
3 359 449 360
3 360 449 450
3 360 450 451
3 451 450 452
3 451 452 453
3 453 452 454
3 455 456 457
3 457 456 458
3 457 458 459
3 459 458 460
3 459 460 461
3 461 460 462
3 463 462 464
3 464 462 465
3 464 465 466
3 466 465 467
3 466 467 468
3 468 467 469
3 468 469 470
3 470 469 471
3 472 473 474
3 474 473 475
3 474 475 476
3 476 475 477
3 476 477 478
3 478 477 479
3 480 481 482
3 482 481 483
3 482 483 484
3 484 483 485
3 484 485 486
3 486 485 487
3 488 489 490
3 490 489 491
3 490 491 492
3 492 491 493
3 492 493 494
3 494 493 495
3 496 497 498
3 498 497 499
3 389 387 500
3 389 500 391
3 391 500 501
3 391 501 393
3 393 501 502
3 393 502 395
3 395 502 503
3 395 503 397
3 397 503 504
3 398 505 400
3 400 505 506
3 401 506 403
3 403 506 507
3 403 507 405
3 405 507 508
3 405 508 406
3 406 508 509
3 407 510 409
3 409 510 511
3 409 511 411
3 411 511 512
3 411 512 413
3 413 512 513
3 413 513 414
3 414 513 514
3 414 514 416
3 416 514 515
3 416 515 418
3 418 515 516
3 418 516 420
3 420 516 517
3 422 518 424
3 424 518 519
3 424 519 425
3 425 519 520
3 425 520 426
3 426 520 521
3 427 522 428
3 428 522 523
3 428 523 430
3 430 523 524
3 431 525 432
3 432 525 526
3 432 526 433
3 433 526 527
3 433 527 435
3 435 527 528
3 437 529 439
3 439 529 530
3 439 530 441
3 441 530 531
3 441 531 443
3 443 531 532
3 444 533 445
3 445 533 534
3 445 534 447
3 447 534 535
3 447 535 448
3 448 535 536
3 449 537 450
3 450 537 538
3 450 538 452
3 452 538 539
3 452 539 454
3 454 539 540
3 456 541 458
3 458 541 542
3 458 542 460
3 460 542 543
3 460 543 462
3 462 543 544
3 462 545 465
3 465 545 546
3 465 546 467
3 467 546 547
3 467 547 469
3 469 547 548
3 469 548 471
3 471 548 549
3 473 550 475
3 475 550 551
3 475 551 477
3 477 551 552
3 477 552 479
3 479 552 553
3 481 554 483
3 483 554 555
3 483 555 485
3 485 555 556
3 485 556 487
3 487 556 557
3 489 558 491
3 491 558 559
3 491 559 493
3 493 559 560
3 493 560 495
3 495 560 561
3 497 562 499
3 499 562 563
3 387 564 500
3 500 564 565
3 500 565 501
3 501 565 566
3 501 566 502
3 502 566 567
3 502 567 503
3 503 567 568
3 503 568 504
3 504 568 569
3 505 570 506
3 506 570 571
3 506 572 507
3 507 572 573
3 507 573 508
3 508 573 574
3 508 574 509
3 509 574 575
3 510 576 511
3 511 576 577
3 511 577 512
3 512 577 578
3 512 578 513
3 513 578 579
3 513 579 514
3 514 579 580
3 514 580 515
3 515 580 581
3 515 581 516
3 516 581 582
3 516 582 517
3 517 582 583
3 518 584 519
3 519 584 585
3 519 585 520
3 520 585 586
3 520 586 521
3 521 586 587
3 522 588 523
3 523 588 589
3 523 589 524
3 524 589 590
3 525 591 526
3 526 591 592
3 526 592 527
3 527 592 593
3 527 593 528
3 528 593 594
3 529 595 530
3 530 595 596
3 530 596 531
3 531 596 597
3 531 597 532
3 532 597 598
3 533 599 534
3 534 599 600
3 534 600 535
3 535 600 601
3 535 601 536
3 536 601 602
3 537 602 538
3 538 602 603
3 538 603 539
3 539 603 604
3 539 604 540
3 540 604 605
3 541 606 542
3 542 606 607
3 542 607 543
3 543 607 608
3 543 608 544
3 544 608 609
3 545 610 546
3 546 610 611
3 546 611 547
3 547 611 612
3 547 612 548
3 548 612 613
3 548 613 549
3 549 613 614
3 550 615 551
3 551 615 616
3 551 616 552
3 552 616 617
3 552 617 553
3 553 617 618
3 554 619 555
3 555 619 620
3 555 620 556
3 556 620 621
3 556 621 557
3 557 621 622
3 558 623 559
3 559 623 624
3 559 624 560
3 560 624 625
3 560 625 561
3 561 625 626
3 562 627 563
3 563 627 193
3 628 629 630
3 630 629 631
3 630 631 632
3 632 631 633
3 632 633 634
3 634 633 635
3 634 635 636
3 636 635 637
3 636 637 638
3 638 637 639
3 640 641 642
3 642 641 643
3 642 644 645
3 645 644 646
3 645 646 647
3 647 646 648
3 647 648 649
3 649 648 650
3 651 652 653
3 653 652 654
3 653 654 655
3 655 654 656
3 655 656 657
3 657 656 658
3 657 658 659
3 659 658 660
3 659 660 661
3 661 660 662
3 661 662 663
3 663 662 664
3 663 664 665
3 665 664 666
3 667 668 669
3 669 668 670
3 669 670 671
3 671 670 672
3 671 672 673
3 673 672 674
3 675 676 677
3 677 676 678
3 677 678 679
3 679 678 680
3 681 682 683
3 683 682 684
3 683 684 685
3 685 684 686
3 685 686 595
3 595 686 687
3 688 689 690
3 690 689 691
3 690 691 692
3 692 691 693
3 692 693 694
3 694 693 695
3 696 697 698
3 698 697 699
3 698 699 700
3 700 699 701
3 700 701 702
3 702 701 703
3 704 705 706
3 706 705 707
3 706 707 708
3 708 707 709
3 708 709 710
3 710 709 711
3 712 713 714
3 714 713 715
3 714 715 716
3 716 715 717
3 716 717 718
3 718 717 719
3 720 721 722
3 722 721 723
3 722 723 724
3 724 723 725
3 724 725 726
3 726 725 727
3 726 727 728
3 728 727 729
3 730 731 732
3 732 731 733
3 732 733 734
3 734 733 735
3 734 735 736
3 736 735 737
3 738 739 740
3 740 739 741
3 740 741 742
3 742 741 743
3 742 743 744
3 744 743 745
3 746 747 748
3 748 747 749
3 748 749 750
3 750 749 751
3 750 751 752
3 752 751 753
3 754 755 756
3 756 755 757
3 631 629 758
3 631 758 633
3 633 758 759
3 633 759 635
3 635 759 760
3 635 760 637
3 637 760 761
3 637 761 639
3 639 761 762
3 641 763 643
3 643 763 764
3 644 764 646
3 646 764 765
3 646 765 648
3 648 765 766
3 648 766 650
3 650 766 767
3 652 768 654
3 654 768 769
3 654 769 656
3 656 769 770
3 656 770 658
3 658 770 771
3 658 771 660
3 660 771 772
3 660 772 662
3 662 772 773
3 662 773 664
3 664 773 774
3 664 774 666
3 666 774 775
3 668 776 670
3 670 776 777
3 670 777 672
3 672 777 778
3 672 778 674
3 674 778 779
3 676 780 678
3 678 780 781
3 678 781 680
3 680 781 782
3 682 783 684
3 684 783 784
3 684 784 686
3 686 784 785
3 686 785 687
3 687 785 786
3 689 787 691
3 691 787 788
3 691 788 693
3 693 788 789
3 693 789 695
3 695 789 790
3 697 791 699
3 699 791 792
3 699 792 701
3 701 792 793
3 701 793 703
3 703 793 794
3 705 795 707
3 707 795 796
3 707 796 709
3 709 796 797
3 709 797 711
3 711 797 798
3 713 799 715
3 715 799 800
3 715 800 717
3 717 800 801
3 717 801 719
3 719 801 802
3 721 802 723
3 723 802 803
3 723 803 725
3 725 803 804
3 725 804 727
3 727 804 805
3 727 805 729
3 729 805 806
3 731 807 733
3 733 807 808
3 733 808 735
3 735 808 809
3 735 809 737
3 737 809 810
3 739 811 741
3 741 811 812
3 741 812 743
3 743 812 813
3 743 813 745
3 745 813 814
3 747 815 749
3 749 815 816
3 749 816 751
3 751 816 817
3 751 817 753
3 753 817 818
3 755 819 757
3 757 819 820
3 629 628 758
3 758 628 821
3 758 821 759
3 759 821 822
3 759 822 760
3 760 822 823
3 760 823 761
3 761 823 824
3 761 824 762
3 762 824 825
3 763 826 764
3 764 826 827
3 764 828 765
3 765 828 829
3 765 829 766
3 766 829 830
3 766 830 767
3 767 830 831
3 768 832 769
3 769 832 833
3 769 833 770
3 770 833 834
3 770 834 771
3 771 834 835
3 771 835 772
3 772 835 836
3 772 836 773
3 773 836 837
3 773 837 774
3 774 837 838
3 774 838 775
3 775 838 839
3 776 840 777
3 777 840 841
3 777 841 778
3 778 841 842
3 778 842 779
3 779 842 843
3 780 844 781
3 781 844 845
3 781 845 782
3 782 845 846
3 783 847 784
3 784 847 848
3 784 848 785
3 785 848 849
3 785 849 786
3 786 849 850
3 787 851 788
3 788 851 852
3 788 852 789
3 789 852 853
3 789 853 790
3 790 853 854
3 791 855 792
3 792 855 856
3 792 856 793
3 793 856 857
3 793 857 794
3 794 857 858
3 795 859 796
3 796 859 860
3 796 860 797
3 797 860 861
3 797 861 798
3 798 861 862
3 799 863 800
3 800 863 864
3 800 864 801
3 801 864 865
3 801 865 802
3 802 865 866
3 802 867 803
3 803 867 868
3 803 868 804
3 804 868 869
3 804 869 805
3 805 869 870
3 805 870 806
3 806 870 871
3 807 872 808
3 808 872 873
3 808 873 809
3 809 873 874
3 809 874 810
3 810 874 875
3 811 876 812
3 812 876 877
3 812 877 813
3 813 877 878
3 813 878 814
3 814 878 879
3 815 880 816
3 816 880 881
3 816 881 817
3 817 881 882
3 817 882 818
3 818 882 883
3 819 884 820
3 820 884 499
3 629 885 821
3 821 885 886
3 821 886 822
3 822 886 887
3 822 887 888
3 888 887 889
3 888 889 890
3 890 889 891
3 890 891 892
3 892 891 893
3 894 895 827
3 827 895 896
3 897 898 899
3 899 898 900
3 899 900 830
3 830 900 901
3 830 901 902
3 902 901 903
3 904 905 906
3 906 905 907
3 906 907 834
3 834 907 908
3 834 908 909
3 909 908 910
3 909 910 836
3 836 910 911
3 836 911 912
3 912 911 913
3 912 913 914
3 914 913 915
3 914 915 916
3 916 915 917
3 918 919 920
3 920 919 921
3 920 921 922
3 922 921 923
3 922 923 924
3 924 923 925
3 926 927 845
3 845 927 928
3 845 928 846
3 846 928 929
3 930 931 932
3 932 931 933
3 932 933 934
3 934 933 935
3 934 935 850
3 850 935 936
3 851 937 938
3 938 937 939
3 938 939 940
3 940 939 941
3 940 941 942
3 942 941 943
3 944 945 856
3 856 945 946
3 856 946 947
3 947 946 948
3 947 948 949
3 949 948 950
3 951 952 953
3 953 952 954
3 953 954 861
3 861 954 955
3 861 955 862
3 862 955 956
3 863 957 864
3 864 957 958
3 864 958 865
3 865 958 959
3 865 959 960
3 960 959 961
3 962 961 963
3 963 961 964
3 963 964 965
3 965 964 966
3 965 966 967
3 967 966 968
3 967 968 969
3 969 968 970
3 872 971 972
3 972 971 973
3 972 973 974
3 974 973 975
3 974 975 976
3 976 975 977
3 978 979 980
3 980 979 981
3 980 981 982
3 982 981 983
3 982 983 984
3 984 983 985
3 986 987 988
3 988 987 989
3 988 989 990
3 990 989 991
3 990 991 992
3 992 991 993
3 994 995 563
3 563 995 129
3 885 629 886
3 886 629 996
3 886 996 887
3 887 996 997
3 887 997 889
3 889 997 998
3 889 998 891
3 891 998 999
3 891 999 893
3 893 999 1000
3 895 1001 896
3 896 1001 1002
3 898 1002 900
3 900 1002 1003
3 900 1003 901
3 901 1003 1004
3 901 1004 903
3 903 1004 1005
3 905 1006 907
3 907 1006 1007
3 907 1007 908
3 908 1007 1008
3 908 1008 910
3 910 1008 1009
3 910 1009 911
3 911 1009 1010
3 911 1010 913
3 913 1010 1011
3 913 1011 915
3 915 1011 1012
3 915 1012 917
3 917 1012 1013
3 919 1014 921
3 921 1014 1015
3 921 1015 923
3 923 1015 1016
3 923 1016 925
3 925 1016 1017
3 927 1018 928
3 928 1018 1019
3 928 1019 929
3 929 1019 1020
3 931 1021 933
3 933 1021 1022
3 933 1022 935
3 935 1022 1023
3 935 1023 936
3 936 1023 1024
3 937 1025 939
3 939 1025 1026
3 939 1026 941
3 941 1026 1027
3 941 1027 943
3 943 1027 1028
3 945 1029 946
3 946 1029 1030
3 946 1030 948
3 948 1030 1031
3 948 1031 950
3 950 1031 1032
3 952 1033 954
3 954 1033 1034
3 954 1034 955
3 955 1034 1035
3 955 1035 956
3 956 1035 1036
3 957 1037 958
3 958 1037 1038
3 958 1038 959
3 959 1038 1039
3 959 1039 961
3 961 1039 1040
3 961 1041 964
3 964 1041 1042
3 964 1042 966
3 966 1042 1043
3 966 1043 968
3 968 1043 1044
3 968 1044 970
3 970 1044 1045
3 971 1046 973
3 973 1046 1047
3 973 1047 975
3 975 1047 1048
3 975 1048 977
3 977 1048 1049
3 979 1050 981
3 981 1050 1051
3 981 1051 983
3 983 1051 1052
3 983 1052 985
3 985 1052 1053
3 987 1054 989
3 989 1054 1055
3 989 1055 991
3 991 1055 1056
3 991 1056 993
3 993 1056 1057
3 995 1058 129
3 629 387 996
3 996 387 1059
3 996 1059 997
3 997 1059 1060
3 997 1060 998
3 998 1060 1061
3 998 1061 999
3 999 1061 1062
3 999 1062 1000
3 1000 1062 1063
3 1001 1064 1002
3 1002 1064 1065
3 1002 1066 1003
3 1003 1066 1067
3 1003 1067 1004
3 1004 1067 1068
3 1004 1068 1005
3 1005 1068 1069
3 1006 1069 1007
3 1007 1069 1070
3 1007 1070 1008
3 1008 1070 1071
3 1008 1071 1009
3 1009 1071 1072
3 1009 1072 1010
3 1010 1072 1073
3 1010 1073 1011
3 1011 1073 1074
3 1011 1074 1012
3 1012 1074 1075
3 1012 1075 1013
3 1013 1075 1076
3 1014 1077 1015
3 1015 1077 1078
3 1015 1078 1016
3 1016 1078 1079
3 1016 1079 1017
3 1017 1079 1080
3 1018 1081 1019
3 1019 1081 1082
3 1019 1082 1020
3 1020 1082 1083
3 1021 1084 1022
3 1022 1084 1085
3 1022 1085 1023
3 1023 1085 1086
3 1023 1086 1024
3 1024 1086 1087
3 1025 1088 1026
3 1026 1088 1089
3 1026 1089 1027
3 1027 1089 1090
3 1027 1090 1028
3 1028 1090 1091
3 1029 1092 1030
3 1030 1092 1093
3 1030 1093 1031
3 1031 1093 1094
3 1031 1094 1032
3 1032 1094 1095
3 1033 1096 1034
3 1034 1096 1097
3 1034 1097 1035
3 1035 1097 1098
3 1035 1098 1036
3 1036 1098 1099
3 1037 1100 1038
3 1038 1100 1101
3 1038 1101 1039
3 1039 1101 1102
3 1039 1102 1040
3 1040 1102 1103
3 1041 1104 1042
3 1042 1104 1105
3 1042 1105 1043
3 1043 1105 1106
3 1043 1106 1044
3 1044 1106 1107
3 1044 1107 1045
3 1045 1107 1108
3 1046 1109 1047
3 1047 1109 1110
3 1047 1110 1048
3 1048 1110 1111
3 1048 1111 1049
3 1049 1111 1112
3 1050 1113 1051
3 1051 1113 1114
3 1051 1114 1052
3 1052 1114 1115
3 1052 1115 1053
3 1053 1115 1116
3 1054 1117 1055
3 1055 1117 1118
3 1055 1118 1056
3 1056 1118 1119
3 1056 1119 1057
3 1057 1119 1120
3 1058 1121 321
3 321 1121 129
3 387 629 1059
3 1059 629 1122
3 1059 1122 1060
3 1060 1122 1123
3 1060 1123 1061
3 1061 1123 1124
3 1061 1124 1062
3 1062 1124 1125
3 1062 1125 1063
3 1063 1125 1126
3 1064 1127 1065
3 1065 1127 1128
3 1066 1129 1067
3 1067 1129 1130
3 1067 1130 1068
3 1068 1130 1131
3 1068 1131 1069
3 1069 1131 1132
3 1069 1133 1070
3 1070 1133 1134
3 1070 1134 1071
3 1071 1134 1135
3 1071 1135 1072
3 1072 1135 1136
3 1072 1136 1073
3 1073 1136 1137
3 1073 1137 1074
3 1074 1137 1138
3 1074 1138 1075
3 1075 1138 1139
3 1075 1139 1076
3 1076 1139 1140
3 1077 1141 1078
3 1078 1141 1142
3 1078 1142 1079
3 1079 1142 1143
3 1079 1143 1080
3 1080 1143 1144
3 1081 1145 1082
3 1082 1145 1146
3 1082 1146 1083
3 1083 1146 1147
3 1084 1148 1085
3 1085 1148 1149
3 1085 1149 1086
3 1086 1149 1150
3 1086 1150 1087
3 1087 1150 1151
3 1088 1151 1089
3 1089 1151 1152
3 1089 1152 1090
3 1090 1152 1153
3 1090 1153 1091
3 1091 1153 1154
3 1092 1155 1093
3 1093 1155 1156
3 1093 1156 1094
3 1094 1156 1157
3 1094 1157 1095
3 1095 1157 1158
3 1096 1159 1097
3 1097 1159 1160
3 1097 1160 1098
3 1098 1160 1161
3 1098 1161 1099
3 1099 1161 1162
3 1100 1163 1101
3 1101 1163 1164
3 1101 1164 1102
3 1102 1164 1165
3 1102 1165 1103
3 1103 1165 1166
3 1104 1167 1105
3 1105 1167 1168
3 1105 1168 1106
3 1106 1168 1169
3 1106 1169 1107
3 1107 1169 1170
3 1107 1170 1108
3 1108 1170 1171
3 1109 1172 1110
3 1110 1172 1173
3 1110 1173 1111
3 1111 1173 1174
3 1111 1174 1112
3 1112 1174 1175
3 1113 1176 1114
3 1114 1176 1177
3 1114 1177 1115
3 1115 1177 1178
3 1115 1178 1116
3 1116 1178 1179
3 1117 1180 1118
3 1118 1180 1181
3 1118 1181 1119
3 1119 1181 1182
3 1119 1182 1120
3 1120 1182 1183
3 1121 1184 129
3 129 1184 1185
3 1186 885 1187
3 1187 885 1188
3 1187 1188 1189
3 1189 1188 1190
3 1189 1190 1191
3 1191 1190 1192
3 1191 1192 1193
3 1193 1192 1194
3 1193 1194 1195
3 1195 1194 1196
3 1197 1198 1199
3 1199 1198 1200
3 1199 1201 1202
3 1202 1201 1203
3 1202 1203 1204
3 1204 1203 1205
3 1204 1205 1206
3 1206 1205 1207
3 1208 1207 1209
3 1209 1207 1210
3 1209 1210 1211
3 1211 1210 1212
3 1211 1212 1213
3 1213 1212 1214
3 1213 1214 1215
3 1215 1214 1216
3 1215 1216 1217
3 1217 1216 1218
3 1217 1218 1219
3 1219 1218 1220
3 1219 1220 1221
3 1221 1220 1222
3 1223 1224 1225
3 1225 1224 1226
3 1225 1226 1227
3 1227 1226 1228
3 1227 1228 1229
3 1229 1228 1230
3 1231 1232 1233
3 1233 1232 1234
3 1233 1234 1235
3 1235 1234 1236
3 1237 1238 1239
3 1239 1238 1240
3 1239 1240 1241
3 1241 1240 1242
3 1241 1242 1243
3 1243 1242 1244
3 1245 1246 1247
3 1247 1246 1248
3 1247 1248 1249
3 1249 1248 1250
3 1249 1250 1251
3 1251 1250 1252
3 1253 1254 1255
3 1255 1254 1256
3 1255 1256 1257
3 1257 1256 1258
3 1257 1258 1259
3 1259 1258 1260
3 1261 1262 1263
3 1263 1262 1264
3 1263 1264 1265
3 1265 1264 1266
3 1265 1266 1267
3 1267 1266 1268
3 1269 1270 1271
3 1271 1270 1272
3 1271 1272 1273
3 1273 1272 1274
3 1273 1274 1275
3 1275 1274 1276
3 1277 1278 1279
3 1279 1278 1280
3 1279 1280 1281
3 1281 1280 1282
3 1281 1282 1283
3 1283 1282 1284
3 1283 1284 1285
3 1285 1284 1286
3 1287 1288 1289
3 1289 1288 1290
3 1289 1290 1291
3 1291 1290 1292
3 1291 1292 1293
3 1293 1292 1294
3 1295 1296 1297
3 1297 1296 1298
3 1297 1298 1299
3 1299 1298 1300
3 1299 1300 1301
3 1301 1300 1302
3 1303 1304 1305
3 1305 1304 1306
3 1305 1306 1307
3 1307 1306 1308
3 1307 1308 1309
3 1309 1308 1310
3 1311 1312 1313
3 1313 1312 820
3 885 1314 1188
3 1188 1314 1315
3 1188 1315 1190
3 1190 1315 1316
3 1190 1316 1192
3 1192 1316 1317
3 1192 1317 1194
3 1194 1317 1318
3 1194 1318 1196
3 1196 1318 1319
3 1198 1320 1200
3 1200 1320 1321
3 1201 1321 1203
3 1203 1321 1322
3 1203 1322 1205
3 1205 1322 1323
3 1205 1323 1207
3 1207 1323 1324
3 1207 1325 1210
3 1210 1325 1326
3 1210 1326 1212
3 1212 1326 1327
3 1212 1327 1214
3 1214 1327 1328
3 1214 1328 1216
3 1216 1328 1329
3 1216 1329 1218
3 1218 1329 1330
3 1218 1330 1220
3 1220 1330 1331
3 1220 1331 1222
3 1222 1331 1332
3 1224 1333 1226
3 1226 1333 1334
3 1226 1334 1228
3 1228 1334 1335
3 1228 1335 1230
3 1230 1335 1336
3 1232 1337 1234
3 1234 1337 1338
3 1234 1338 1236
3 1236 1338 1339
3 1238 1340 1240
3 1240 1340 1341
3 1240 1341 1242
3 1242 1341 1342
3 1242 1342 1244
3 1244 1342 1343
3 1246 1344 1248
3 1248 1344 1345
3 1248 1345 1250
3 1250 1345 1346
3 1250 1346 1252
3 1252 1346 1347
3 1254 1348 1256
3 1256 1348 1349
3 1256 1349 1258
3 1258 1349 1350
3 1258 1350 1260
3 1260 1350 1351
3 1262 1352 1264
3 1264 1352 1353
3 1264 1353 1266
3 1266 1353 1354
3 1266 1354 1268
3 1268 1354 1355
3 1270 1356 1272
3 1272 1356 1357
3 1272 1357 1274
3 1274 1357 1358
3 1274 1358 1276
3 1276 1358 1359
3 1278 1360 1280
3 1280 1360 1361
3 1280 1361 1282
3 1282 1361 1362
3 1282 1362 1284
3 1284 1362 1363
3 1284 1363 1286
3 1286 1363 1364
3 1288 1365 1290
3 1290 1365 1366
3 1290 1366 1292
3 1292 1366 1367
3 1292 1367 1294
3 1294 1367 1368
3 1296 1369 1298
3 1298 1369 1370
3 1298 1370 1300
3 1300 1370 1371
3 1300 1371 1302
3 1302 1371 1372
3 1304 1373 1306
3 1306 1373 1374
3 1306 1374 1308
3 1308 1374 1375
3 1308 1375 1310
3 1310 1375 1376
3 1312 1377 820
3 820 1377 129
3 1314 629 1315
3 1315 629 1378
3 1315 1378 1316
3 1316 1378 1379
3 1316 1379 1317
3 1317 1379 1380
3 1317 1380 1318
3 1318 1380 1381
3 1318 1381 1319
3 1319 1381 1382
3 1320 1383 1321
3 1321 1383 1384
3 1321 1384 1322
3 1322 1384 1385
3 1322 1385 1323
3 1323 1385 1386
3 1323 1386 1324
3 1324 1386 1387
3 1325 1388 1326
3 1326 1388 1389
3 1326 1389 1327
3 1327 1389 1390
3 1327 1390 1328
3 1328 1390 1391
3 1328 1391 1329
3 1329 1391 1392
3 1329 1392 1330
3 1330 1392 1393
3 1330 1393 1331
3 1331 1393 1394
3 1331 1394 1332
3 1332 1394 1395
3 1333 1396 1334
3 1334 1396 1397
3 1334 1397 1335
3 1335 1397 1398
3 1335 1398 1336
3 1336 1398 1399
3 1337 1400 1338
3 1338 1400 1401
3 1338 1401 1339
3 1339 1401 1402
3 1340 1403 1341
3 1341 1403 1404
3 1341 1404 1342
3 1342 1404 1405
3 1342 1405 1343
3 1343 1405 1406
3 1344 1407 1345
3 1345 1407 1408
3 1345 1408 1346
3 1346 1408 1409
3 1346 1409 1347
3 1347 1409 1410
3 1348 1411 1349
3 1349 1411 1412
3 1349 1412 1350
3 1350 1412 1413
3 1350 1413 1351
3 1351 1413 1414
3 1352 1415 1353
3 1353 1415 1416
3 1353 1416 1354
3 1354 1416 1417
3 1354 1417 1355
3 1355 1417 1418
3 1356 1419 1357
3 1357 1419 1420
3 1357 1420 1358
3 1358 1420 1421
3 1358 1421 1359
3 1359 1421 1422
3 1360 1423 1361
3 1361 1423 1424
3 1361 1424 1362
3 1362 1424 1425
3 1362 1425 1363
3 1363 1425 1426
3 1363 1426 1364
3 1364 1426 1427
3 1365 1428 1366
3 1366 1428 1429
3 1366 1429 1367
3 1367 1429 1430
3 1367 1430 1368
3 1368 1430 1431
3 1369 1432 1370
3 1370 1432 1433
3 1370 1433 1371
3 1371 1433 1434
3 1371 1434 1372
3 1372 1434 1435
3 1373 1436 1374
3 1374 1436 1437
3 1374 1437 1375
3 1375 1437 1438
3 1375 1438 1376
3 1376 1438 1439
3 1377 1440 129
3 129 1440 563
3 629 1 1378
3 1378 1 1441
3 1378 1441 1379
3 1379 1441 1442
3 1379 1442 1380
3 1380 1442 1443
3 1380 1443 1381
3 1381 1443 1444
3 1381 1444 1382
3 1382 1444 1445
3 1383 1446 1384
3 1384 1446 1447
3 1384 1448 1385
3 1385 1448 1449
3 1385 1449 1386
3 1386 1449 1450
3 1386 1450 1387
3 1387 1450 1451
3 1388 1452 1389
3 1389 1452 1453
3 1389 1453 1390
3 1390 1453 1454
3 1390 1454 1391
3 1391 1454 1455
3 1391 1455 1392
3 1392 1455 1456
3 1392 1456 1393
3 1393 1456 1457
3 1393 1457 1394
3 1394 1457 1458
3 1394 1458 1395
3 1395 1458 1459
3 1396 1460 1397
3 1397 1460 1461
3 1397 1461 1398
3 1398 1461 1462
3 1398 1462 1399
3 1399 1462 1463
3 1400 1464 1401
3 1401 1464 1465
3 1401 1465 1402
3 1402 1465 1466
3 1403 1467 1404
3 1404 1467 1468
3 1404 1468 1405
3 1405 1468 1469
3 1405 1469 1406
3 1406 1469 1470
3 1407 1471 1408
3 1408 1471 1472
3 1408 1472 1409
3 1409 1472 1473
3 1409 1473 1410
3 1410 1473 1474
3 1411 1475 1412
3 1412 1475 1476
3 1412 1476 1413
3 1413 1476 1477
3 1413 1477 1414
3 1414 1477 1478
3 1415 1479 1416
3 1416 1479 1480
3 1416 1480 1417
3 1417 1480 1481
3 1417 1481 1418
3 1418 1481 1482
3 1419 1483 1420
3 1420 1483 1484
3 1420 1484 1421
3 1421 1484 1485
3 1421 1485 1422
3 1422 1485 1486
3 1423 1487 1424
3 1424 1487 1488
3 1424 1488 1425
3 1425 1488 1489
3 1425 1489 1426
3 1426 1489 1490
3 1426 1490 1427
3 1427 1490 1491
3 1428 1492 1429
3 1429 1492 1493
3 1429 1493 1430
3 1430 1493 1494
3 1430 1494 1431
3 1431 1494 1495
3 1432 1496 1433
3 1433 1496 1497
3 1433 1497 1434
3 1434 1497 1498
3 1434 1498 1435
3 1435 1498 1499
3 1436 1500 1437
3 1437 1500 1501
3 1437 1501 1438
3 1438 1501 1502
3 1438 1502 1439
3 1439 1502 1503
3 1440 1504 563
3 563 1504 499
3 1441 1 1505
3 1441 1505 1442
3 1442 1505 1506
3 1442 1506 1443
3 1443 1506 1507
3 1443 1507 1444
3 1444 1507 1508
3 1444 1508 1445
3 1445 1508 1509
3 1446 1510 1447
3 1447 1510 1511
3 1448 1511 1449
3 1449 1511 1512
3 1449 1512 1450
3 1450 1512 1513
3 1450 1513 1451
3 1451 1513 1514
3 1452 1515 1453
3 1453 1515 1516
3 1453 1516 1454
3 1454 1516 1517
3 1454 1517 1455
3 1455 1517 1518
3 1455 1518 1456
3 1456 1518 1519
3 1456 1519 1457
3 1457 1519 1520
3 1457 1520 1458
3 1458 1520 1521
3 1458 1521 1459
3 1459 1521 1522
3 1460 1523 1461
3 1461 1523 1524
3 1461 1524 1462
3 1462 1524 1525
3 1462 1525 1463
3 1463 1525 1526
3 1464 1527 1465
3 1465 1527 1528
3 1465 1528 1466
3 1466 1528 1529
3 1467 1530 1468
3 1468 1530 1531
3 1468 1531 1469
3 1469 1531 1532
3 1469 1532 1470
3 1470 1532 1533
3 1471 1534 1472
3 1472 1534 1535
3 1472 1535 1473
3 1473 1535 1536
3 1473 1536 1474
3 1474 1536 1537
3 1475 1538 1476
3 1476 1538 1539
3 1476 1539 1477
3 1477 1539 1540
3 1477 1540 1478
3 1478 1540 1541
3 1479 1542 1480
3 1480 1542 1543
3 1480 1543 1481
3 1481 1543 1544
3 1481 1544 1482
3 1482 1544 1545
3 1483 1546 1484
3 1484 1546 1547
3 1484 1547 1485
3 1485 1547 1548
3 1485 1548 1486
3 1486 1548 1549
3 1487 1550 1488
3 1488 1550 1551
3 1488 1551 1489
3 1489 1551 1552
3 1489 1552 1490
3 1490 1552 1553
3 1490 1553 1491
3 1491 1553 1554
3 1492 1555 1493
3 1493 1555 1556
3 1493 1556 1494
3 1494 1556 1557
3 1494 1557 1495
3 1495 1557 1558
3 1496 1559 1497
3 1497 1559 1560
3 1497 1560 1498
3 1498 1560 1561
3 1498 1561 1499
3 1499 1561 1562
3 1500 1563 1501
3 1501 1563 1564
3 1501 1564 1502
3 1502 1564 1565
3 1502 1565 1503
3 1503 1565 1566
3 1504 1567 499
3 499 1567 1568
3 1 1569 1505
3 1505 1569 1570
3 1505 1570 1506
3 1506 1570 1571
3 1506 1571 1507
3 1507 1571 1572
3 1507 1572 1508
3 1508 1572 1573
3 1508 1573 1509
3 1509 1573 1574
3 1510 1575 1511
3 1511 1575 1576
3 1511 1577 1512
3 1512 1577 1578
3 1512 1578 1513
3 1513 1578 1579
3 1513 1579 1514
3 1514 1579 1580
3 1515 1581 1516
3 1516 1581 1582
3 1516 1582 1517
3 1517 1582 1583
3 1517 1583 1518
3 1518 1583 1584
3 1518 1584 1519
3 1519 1584 1585
3 1519 1585 1520
3 1520 1585 1586
3 1520 1586 1521
3 1521 1586 1587
3 1521 1587 1522
3 1522 1587 1588
3 1523 1589 1524
3 1524 1589 1590
3 1524 1590 1525
3 1525 1590 1591
3 1525 1591 1526
3 1526 1591 1592
3 1527 1593 1528
3 1528 1593 1594
3 1528 1594 1529
3 1529 1594 1595
3 1530 1596 1531
3 1531 1596 1597
3 1531 1597 1532
3 1532 1597 1598
3 1532 1598 1533
3 1533 1598 1599
3 1534 1600 1535
3 1535 1600 1601
3 1535 1601 1536
3 1536 1601 1602
3 1536 1602 1537
3 1537 1602 1603
3 1538 1604 1539
3 1539 1604 1605
3 1539 1605 1540
3 1540 1605 1606
3 1540 1606 1541
3 1541 1606 1607
3 1542 1608 1543
3 1543 1608 1609
3 1543 1609 1544
3 1544 1609 1610
3 1544 1610 1545
3 1545 1610 1611
3 1546 1612 1547
3 1547 1612 1613
3 1547 1613 1548
3 1548 1613 1614
3 1548 1614 1549
3 1549 1614 1615
3 1550 1616 1551
3 1551 1616 1617
3 1551 1617 1552
3 1552 1617 1618
3 1552 1618 1553
3 1553 1618 1619
3 1553 1619 1554
3 1554 1619 1620
3 1555 1621 1556
3 1556 1621 1622
3 1556 1622 1557
3 1557 1622 1623
3 1557 1623 1558
3 1558 1623 1624
3 1559 1625 1560
3 1560 1625 1626
3 1560 1626 1561
3 1561 1626 1627
3 1561 1627 1562
3 1562 1627 1628
3 1563 1629 1564
3 1564 1629 1630
3 1564 1630 1565
3 1565 1630 1631
3 1565 1631 1566
3 1566 1631 1632
3 1567 1633 1568
3 1568 1633 1634
3 1569 387 1635
3 1635 387 1636
3 1635 1636 1637
3 1637 1636 1638
3 1637 1638 1639
3 1639 1638 1640
3 1639 1640 1573
3 1573 1640 1641
3 1573 1641 1642
3 1642 1641 1643
3 1644 1645 1646
3 1646 1645 1647
3 1648 1649 1650
3 1650 1649 1651
3 1650 1651 1579
3 1579 1651 1652
3 1579 1652 1580
3 1580 1652 1653
3 1581 1654 1655
3 1655 1654 1656
3 1655 1656 1657
3 1657 1656 1658
3 1657 1658 1659
3 1659 1658 1660
3 1659 1660 1661
3 1661 1660 1662
3 1661 1662 1663
3 1663 1662 1664
3 1663 1664 1587
3 1587 1664 1665
3 1587 1665 1588
3 1588 1665 1666
3 1589 1667 1668
3 1668 1667 1669
3 1668 1669 1670
3 1670 1669 1671
3 1670 1671 1672
3 1672 1671 1673
3 1592 1674 1675
3 1675 1674 1676
3 1675 1676 1595
3 1595 1676 1677
3 1678 1679 1680
3 1680 1679 1681
3 1680 1681 1682
3 1682 1681 1683
3 1682 1683 1684
3 1684 1683 1685
3 1684 1686 1687
3 1687 1686 1688
3 1687 1688 1689
3 1689 1688 1690
3 1689 1690 1691
3 1691 1690 1692
3 1693 1694 1695
3 1695 1694 1696
3 1695 1696 1606
3 1606 1696 1697
3 1606 1697 1698
3 1698 1697 1699
3 1700 1701 1702
3 1702 1701 1703
3 1702 1703 1704
3 1704 1703 1705
3 1704 1705 1706
3 1706 1705 1707
3 1708 1709 1710
3 1710 1709 1711
3 1710 1711 1614
3 1614 1711 1712
3 1614 1712 1615
3 1615 1712 1713
3 1615 1714 1617
3 1617 1714 1715
3 1617 1715 1716
3 1716 1715 1717
3 1716 1717 1718
3 1718 1717 1719
3 1718 1719 1720
3 1720 1719 1721
3 1722 1723 1622
3 1622 1723 1724
3 1622 1724 1725
3 1725 1724 1726
3 1725 1726 1624
3 1624 1726 1727
3 1728 1729 1730
3 1730 1729 1731
3 1730 1731 1627
3 1627 1731 1732
3 1627 1732 1733
3 1733 1732 1734
3 1735 1736 1630
3 1630 1736 1737
3 1630 1737 1738
3 1738 1737 1739
3 1738 1739 1740
3 1740 1739 1741
3 1742 1743 563
3 563 1743 1744
3 387 1 1636
3 1636 1 0
3 1636 0 1638
3 1638 0 3
3 1638 3 1640
3 1640 3 5
3 1640 5 1641
3 1641 5 7
3 1641 7 1643
3 1643 7 9
3 1645 11 1647
3 1647 11 13
3 1649 15 1651
3 1651 15 17
3 1651 17 1652
3 1652 17 19
3 1652 19 1653
3 1653 19 21
3 1654 23 1656
3 1656 23 25
3 1656 25 1658
3 1658 25 27
3 1658 27 1660
3 1660 27 29
3 1660 29 1662
3 1662 29 31
3 1662 31 1664
3 1664 31 33
3 1664 33 1665
3 1665 33 35
3 1665 35 1666
3 1666 35 37
3 1667 39 1669
3 1669 39 41
3 1669 41 1671
3 1671 41 43
3 1671 43 1673
3 1673 43 45
3 1674 47 1676
3 1676 47 49
3 1676 49 1677
3 1677 49 51
3 1679 53 1681
3 1681 53 55
3 1681 55 1683
3 1683 55 57
3 1683 57 1685
3 1685 57 59
3 1686 61 1688
3 1688 61 63
3 1688 63 1690
3 1690 63 65
3 1690 65 1692
3 1692 65 67
3 1694 69 1696
3 1696 69 71
3 1696 71 1697
3 1697 71 73
3 1697 73 1699
3 1699 73 75
3 1701 77 1703
3 1703 77 79
3 1703 79 1705
3 1705 79 81
3 1705 81 1707
3 1707 81 83
3 1709 85 1711
3 1711 85 87
3 1711 87 1712
3 1712 87 89
3 1712 89 1713
3 1713 89 91
3 1714 93 1715
3 1715 93 95
3 1715 95 1717
3 1717 95 97
3 1717 97 1719
3 1719 97 99
3 1719 99 1721
3 1721 99 101
3 1723 103 1724
3 1724 103 105
3 1724 105 1726
3 1726 105 107
3 1726 107 1727
3 1727 107 109
3 1729 111 1731
3 1731 111 113
3 1731 113 1732
3 1732 113 115
3 1732 115 1734
3 1734 115 117
3 1736 119 1737
3 1737 119 121
3 1737 121 1739
3 1739 121 123
3 1739 123 1741
3 1741 123 125
3 1743 127 1744
3 1744 127 129
