# vtk DataFile Version 2.0
File written by itkPolyDataMeshIO
ASCII
DATASET POLYDATA
POINTS 635 float
-13.823906 3.116554 223.95686
-13.823906 3.116539 223.95685
-19.127449 5.349449 220.5249
-19.860603 5.186348 221.57426
-25.881508 10.196831 217.14851
-26.69529 10.192879 218.447
-31.334694 13.890968 213.06308
-32.370033 13.833672 214.47157
-35.964638 16.437096 209.2905
-37.160988 16.27761 210.7372
-39.982338 17.869026 206.07668
-41.203056 17.607048 207.55469
-44.09948 18.936607 203.08875
-45.259834 18.624947 204.6386
-48.376274 20.131294 200.43652
-49.41886 19.844429 202.03986
-48.376274 20.13131 200.43652
-49.41886 19.844414 202.03986
-52.732613 21.760033 198.44534
-53.56945 21.546043 199.99496
-56.958855 23.579582 197.07515
-57.585503 23.362663 198.40746
-56.95884 23.579582 197.07518
-57.585487 23.362663 198.40747
-61.273857 25.072533 195.939
-61.720818 24.786873 197.0265
-65.8554 26.181007 194.9019
-66.16643 25.83419 195.85283
-70.58441 27.152962 194.10141
-70.80442 26.779243 195.02458
-75.33103 28.116188 193.63525
-75.48154 27.738426 194.56932
-75.331024 28.116219 193.63527
-75.48152 27.738457 194.56935
-80.11634 29.232704 193.51427
-80.22526 28.859001 194.4433
-84.93173 30.606667 193.59444
-85.0289 30.217445 194.47736
-89.74911 31.916237 193.9543
-89.77708 31.494331 194.77138
-94.32058 32.407906 194.57828
-94.23582 31.99923 195.31438
-98.36908 31.862373 195.0868
-98.259125 31.55471 195.71875
-98.36907 31.862389 195.08682
-98.259125 31.554695 195.71877
-103.10922 30.28135 194.80371
-103.0617 30.075249 195.34314
-107.6158 29.45977 194.74957
-107.6158 29.45977 194.74959
-13.823921 3.116554 223.95685
-20.165794 5.2313 222.16203
-26.993004 10.32061 219.07693
-32.77134 13.986702 215.17705
-37.663902 16.439583 211.48485
-41.740486 17.788063 208.33267
-45.75634 18.867226 205.46458
-49.830788 20.149574 202.8911
-53.871346 21.83619 200.79594
-57.819298 23.546852 199.09178
-57.819283 23.546867 199.0918
-61.911125 24.852303 197.60753
-66.30854 25.82354 196.39024
-70.89791 26.735832 195.55994
-75.53234 27.691154 195.11014
-75.532326 27.69117 195.11015
-80.24633 28.813286 194.97845
-85.03784 30.159477 194.99623
-89.75456 31.421623 195.26988
-94.1838 31.936195 195.77274
-98.22612 31.51873 196.101
-98.22612 31.518745 196.101
-103.07342 30.05648 195.65675
-107.61581 29.45977 194.74956
-20.381859 5.364891 222.71393
-27.210548 10.493477 219.6331
-33.070442 14.208488 215.80112
-38.051888 16.705894 212.14677
-42.15296 18.112068 209.00783
-46.109154 19.27993 206.1538
-50.09211 20.624031 203.57634
-50.09211 20.624046 203.57635
-54.04412 22.269981 201.43134
-57.961876 23.859795 199.64966
-57.96186 23.85981 199.64969
-62.046776 25.043648 198.11192
-66.41639 25.938377 196.88477
-70.96145 26.819527 196.06435
-75.553055 27.773964 195.61609
-75.55303 27.77398 195.6161
-80.23408 28.900078 195.47209
-85.00911 30.23719 195.47624
-89.70443 31.48899 195.73659
-94.13461 32.007454 196.20169
-98.21895 31.586388 196.4551
-103.11136 30.109413 195.9385
-13.823906 3.116554 223.95688
-20.538307 5.586464 223.27979
-27.392555 10.717339 220.1944
-33.319405 14.499031 216.4184
-38.37504 17.0682 212.78337
-42.483345 18.55317 209.62524
-46.36048 19.808144 206.74341
-50.24827 21.193062 204.133
-50.248253 21.193077 204.133
-54.12989 22.781715 201.94312
-58.041832 24.259987 200.11804
-58.041817 24.260017 200.11804
-62.14126 25.340645 198.56265
-66.49447 26.17138 197.34721
-70.99623 27.029015 196.5431
-75.54423 27.985756 196.09004
-75.544205 27.985771 196.09006
-80.18923 29.116753 195.92368
-84.943756 30.447685 195.90968
-89.62875 31.692757 196.15564
-94.089615 32.205467 196.58376
-98.237625 31.750542 196.77184
-98.237625 31.750557 196.77184
-103.174126 30.228035 196.19466
-13.823921 3.116554 223.95686
-20.628685 5.893013 223.84381
-27.54406 11.008232 220.78886
-33.5241 14.870979 217.05067
-38.633827 17.531532 213.40038
-42.731133 19.09684 210.1793
-46.523018 20.408043 207.23378
-50.32508 21.797691 204.57436
-50.32508 21.797707 204.57436
-54.154808 23.319344 202.34943
-58.073875 24.709877 200.504
-58.073845 24.709877 200.50401
-62.19584 25.721382 198.94647
-66.53692 26.513435 197.74611
-70.99682 27.359978 196.9549
-75.504105 28.319786 196.4879
-75.50409 28.319801 196.48793
-80.11395 29.45182 196.28752
-84.84653 30.77726 196.24542
-89.534996 32.01931 196.46977
-94.054596 32.514732 196.86563
-98.28286 31.999199 197.01227
-98.28285 31.999199 197.01225
-103.25842 30.406548 196.40059
-107.6158 29.459755 194.74956
-20.628685 5.892998 223.84381
-20.646294 6.267143 224.37106
-27.544044 11.008232 220.78886
-27.64605 11.381615 221.40465
-33.5241 14.870995 217.05067
-33.66871 15.33593 217.68779
-38.633812 17.531532 213.40038
-38.815163 18.095024 213.98291
-42.731133 19.09681 210.1793
-42.892982 19.724052 210.65921
-46.523003 20.408028 207.23378
-46.611656 21.046654 207.63385
-50.34864 22.403725 204.92738
-54.154808 23.319359 202.34943
-54.142525 23.855186 202.67967
-58.073875 24.709892 200.504
-58.07151 25.183327 200.82077
-58.073845 24.709892 200.50401
-58.07148 25.183342 200.82079
-62.195824 25.721382 198.94647
-62.213264 26.158974 199.25314
-66.53691 26.51345 197.74612
-66.54164 26.937813 198.05283
-70.99682 27.359993 196.95491
-70.96299 27.784523 197.26297
-75.5041 28.319786 196.4879
-75.43646 28.745064 196.77415
-75.50408 28.319801 196.48792
-75.43644 28.745094 196.77417
-80.113945 29.45182 196.28752
-80.016235 29.870354 196.53323
-84.84652 30.777275 196.24544
-84.7286 31.187965 196.4551
-89.534996 32.01931 196.46979
-89.43401 32.4284 196.64969
-94.03275 32.89585 197.02086
-98.28286 31.999199 197.01225
-98.34927 32.302895 197.15466
-98.282845 31.999214 197.01225
-98.34926 32.302895 197.15466
-103.258415 30.406563 196.40059
-103.35683 30.628471 196.53955
-107.61581 29.45977 194.74957
-107.61579 29.45977 194.74957
-13.823891 3.116554 223.95688
-20.578056 6.685982 224.80846
-27.654839 11.839485 221.97318
-33.714455 15.890053 218.2723
-38.89225 18.737679 214.4858
-42.961723 20.40223 211.04292
-46.637047 21.699745 207.94998
-50.334755 23.00164 205.21466
-50.334755 23.001625 205.21466
-54.105263 24.385841 202.95627
-58.041557 25.667397 201.07625
-58.041527 25.667412 201.07626
-62.196495 26.622566 199.47308
-66.51166 27.398537 198.24638
-70.901436 28.249031 197.44386
-75.351524 29.20588 196.93233
-75.3515 29.20591 196.93234
-79.909645 30.31617 196.65779
-84.60631 31.62072 196.54771
-89.338066 32.855934 196.7109
-94.02311 33.288002 197.06454
-98.42469 32.615868 197.20473
-98.42469 32.615852 197.20473
-103.457886 30.866447 196.607
-107.61579 29.45977 194.74959
-13.823921 3.116539 223.95686
-20.411003 7.128868 225.10631
-27.52932 12.362007 222.40363
-33.621544 16.510063 218.72545
-38.8375 19.42855 214.85454
-42.92846 21.103416 211.30737
-46.6016 22.362343 208.18465
-50.2862 23.607811 205.44965
-50.286186 23.607811 205.44965
-54.042183 24.929207 203.18907
-57.98272 26.161522 201.26863
-57.98269 26.161537 201.26866
-62.146523 27.087318 199.59686
-66.45169 27.852669 198.31598
-70.82069 28.702293 197.48885
-75.25977 29.650658 196.96132
-75.25975 29.650688 196.96133
-79.806145 30.740135 196.67238
-84.49316 32.025383 196.54648
-89.25601 33.247414 196.68494
-94.02289 33.64051 197.02771
-98.49751 32.899467 197.18073
-98.49751 32.899452 197.18074
-103.55154 31.095863 196.60706
-107.61581 29.459755 194.74956
-13.823891 3.116585 223.95688
-20.410988 7.128883 225.10632
-20.1502 7.566643 225.23557
-27.529305 12.362038 222.40364
-27.262596 12.895012 222.61938
-33.62153 16.510078 218.72546
-33.373817 17.145897 218.97385
-38.837486 19.428566 214.85455
-38.636894 20.136513 215.04698
-42.928444 21.103432 211.30739
-42.784706 21.825188 211.43916
-46.6016 22.362358 208.18466
-46.493935 23.061668 208.33342
-50.187035 24.267326 205.62914
-50.286186 23.607811 205.44966
-50.18702 24.267326 205.62915
-54.042168 24.929222 203.18909
-53.9358 25.522285 203.36641
-57.882973 26.677528 201.37968
-57.982674 26.161552 201.26868
-57.882957 26.677544 201.3797
-62.146507 27.087334 199.59688
-62.060173 27.546257 199.61441
-66.451675 27.852684 198.316
-66.36478 28.28579 198.2653
-70.82067 28.702309 197.48886
-70.72551 29.12722 197.40813
-75.259766 29.650673 196.96133
-75.165085 30.065239 196.87352
-75.25974 29.650688 196.96135
-75.16507 30.065254 196.87354
-79.80614 30.740166 196.6724
-79.70807 31.133522 196.58992
-84.49315 32.025414 196.54648
-84.390656 32.395607 196.46497
-89.256004 33.24743 196.68495
-89.187614 33.596947 196.58939
-94.02288 33.640526 197.02774
-94.03006 33.949837 196.93066
-98.497505 32.899467 197.18076
-98.56493 33.15 197.09932
-98.4975 32.899483 197.18076
-98.564926 33.15 197.09932
-103.55152 31.095879 196.60707
-103.63509 31.310051 196.5481
-107.61579 29.459785 194.74959
-13.823891 3.11657 223.95688
-19.811256 7.967247 225.18109
-26.87336 13.371101 222.56903
-32.975807 17.735176 218.96129
-38.288094 20.826637 215.0319
-42.521843 22.567467 211.42456
-46.293816 23.82119 208.37633
-50.01159 25.012337 205.72589
-50.01159 25.012337 205.72588
-53.762123 26.186378 203.45325
-57.72706 27.219322 201.37776
-57.727043 27.219337 201.37779
-61.932854 27.99717 199.514
-66.25255 28.69802 198.10336
-70.61806 29.52575 197.21854
-75.06742 30.455711 196.6842
-75.067406 30.455727 196.68422
-79.61262 31.508553 196.41891
-84.29411 32.748055 196.30591
-89.1282 33.925316 196.42807
-94.04375 34.238365 196.78146
-98.629585 33.38291 196.97102
-98.62958 33.382927 196.97102
-103.71012 31.512703 196.43608
-107.6158 29.459785 194.74957
-13.823891 3.11657 223.95686
-19.406715 8.313423 224.94193
-26.393486 13.745857 222.25092
-32.451027 18.225594 218.67206
-37.798866 21.450005 214.78653
-42.129143 23.287651 211.22957
-45.97773 24.591347 208.2565
-49.735603 25.780403 205.66565
-49.735588 25.780403 205.66565
-53.506584 26.858437 203.37878
-57.50892 27.743492 201.2189
-57.508904 27.743523 201.21893
-61.763023 28.41938 199.27957
-66.11586 29.080803 197.82939
-70.49973 29.8937 196.9243
-74.9673 30.820808 196.39511
-74.967285 30.820839 196.39514
-79.5191 31.867943 196.15453
-84.20179 33.089516 196.06015
-89.07605 34.24494 196.19258
-94.06464 34.52102 196.57451
-98.693726 33.60766 196.79457
-98.69371 33.60766 196.79457
-103.776184 31.70388 196.26865
-19.406715 8.313408 224.94193
-18.945824 8.594627 224.5195
-25.8619 13.998039 221.70268
-32.451027 18.225594 218.67207
-31.83599 18.576454 218.12346
-37.18386 21.945518 214.29341
-41.594246 23.903755 210.80203
-45.97773 24.591347 208.25648
-45.521385 25.256828 207.88675
-49.338554 26.426003 205.33698
-49.735588 25.780403 205.66566
-49.33854 26.425987 205.33698
-53.506584 26.858421 203.37878
-53.164787 27.402 203.04483
-57.231636 28.165184 200.85072
-57.508904 27.743507 201.21893
-57.23162 28.1652 200.85074
-61.55233 28.774132 198.89142
-65.955215 29.414482 197.43272
-70.37201 30.216911 196.51718
-74.86675 31.147896 195.99513
-74.967285 30.820824 196.39514
-74.86673 31.147926 195.99515
-79.42992 32.200798 195.78056
-84.20179 33.089516 196.06017
-84.11602 33.41253 195.71007
-89.07604 34.244957 196.1926
-89.03303 34.55474 195.86623
-94.06464 34.52102 196.57452
-94.094604 34.800224 196.29422
-98.75804 33.824043 196.55896
-98.75803 33.824028 196.55896
-103.776184 31.70388 196.26866
-103.8289 31.874245 196.03848
-107.6158 29.459785 194.74959
-18.4544 8.779808 223.91649
-25.32235 14.114082 220.97906
-31.17553 18.750298 217.349
-36.46546 22.244377 213.54224
-40.910805 24.31385 210.08951
-44.90754 25.67405 207.17801
-48.808342 26.772453 204.62637
-48.808342 26.772469 204.62637
-52.741005 27.65554 202.3546
-56.90467 28.384499 200.22511
-56.904655 28.384514 200.22514
-61.305397 29.013542 198.33226
-65.772194 29.671516 196.9012
-70.23726 30.473991 195.98567
-74.76923 31.416283 195.46977
-74.76921 31.416298 195.46979
-79.34984 32.486595 195.27817
-84.04201 33.699745 195.23592
-89.0034 34.843956 195.42966
-94.13593 35.0691 195.92148
-98.821884 34.02465 196.25024
-98.82188 34.02465 196.25024
-103.861015 32.005882 195.7444
-107.61579 29.459785 194.74957
-18.00814 8.811974 223.18735
-24.854118 14.076271 220.18564
-30.577553 18.701225 216.4626
-35.764015 22.234444 212.62755
-40.19793 24.339241 209.17218
-44.258324 25.651024 206.22601
-48.26319 26.663277 203.65315
-52.33111 27.51577 201.43433
-56.5924 28.322258 199.4389
-56.592384 28.322273 199.43892
-61.06057 29.053337 197.6593
-65.59125 29.764519 196.26805
-70.11546 30.583382 195.35367
-74.69492 31.539452 194.83936
-74.69491 31.539482 194.83937
-79.30378 32.626396 194.66473
-84.00733 33.852974 194.6484
-89.00792 35.01835 194.8817
-94.18945 35.236794 195.44908
-98.87031 34.138725 195.86858
-98.87029 34.13874 195.86858
-103.85913 32.0586 195.40692
-13.823891 3.11657 223.9569
-17.69532 8.6661 222.45152
-24.529686 13.895927 219.45053
-30.1596 18.437813 215.63737
-35.247887 21.880241 211.75172
-39.65824 23.902122 208.28331
-43.78817 25.145973 205.3278
-47.89805 26.14051 202.77046
-52.07363 27.068733 200.62029
-56.382957 28.013084 198.72577
-56.382957 28.013084 198.7258
-60.876076 28.851982 197.01414
-65.45313 29.617928 195.63603
-70.0367 30.46569 194.7115
-74.66978 31.428215 194.1959
-74.66976 31.42823 194.19594
-79.32008 32.512794 194.03719
-84.042816 33.75785 194.0389
-89.06688 34.95478 194.2988
-94.24874 35.181847 194.93764
-98.88157 34.079185 195.46365
-103.8145 31.999199 195.07437
-17.69532 8.666115 222.45152
-17.518745 8.404182 221.7972
-24.52967 13.895927 219.45053
-24.305748 13.645882 218.7909
-30.159584 18.437813 215.63737
-29.87252 18.08886 214.91595
-35.24787 21.880257 211.75172
-34.888786 21.403404 211.00441
-39.658226 23.902138 208.28331
-39.28428 23.318138 207.54715
-43.78814 25.145973 205.3278
-43.479317 24.518578 204.61192
-47.89805 26.14051 202.77048
-47.67489 25.5429 202.0881
-52.073616 27.068748 200.6203
-51.92341 26.574944 199.99138
-56.382957 28.0131 198.72578
-56.250465 27.637093 198.15129
-56.382942 28.0131 198.7258
-56.25045 27.637108 198.1513
-60.87606 28.851997 197.01416
-60.749214 28.546883 196.47388
-65.453125 29.617943 195.63605
-65.3616 29.347267 195.09888
-70.03669 30.465721 194.71152
-69.9984 30.217018 194.16333
-74.66978 31.42823 194.19592
-74.682 31.176628 193.65564
-74.66976 31.42826 194.19594
-74.68198 31.176643 193.65567
-79.32007 32.51281 194.0372
-79.37557 32.248146 193.52437
-84.04281 33.757866 194.03891
-84.12098 33.50405 193.54823
-89.06688 34.95478 194.29881
-89.15283 34.720543 193.83487
-94.24874 35.18186 194.93765
-94.29967 34.970222 194.52682
-98.88156 34.079185 195.46365
-98.86331 33.910576 195.12842
-98.88156 34.0792 195.46365
-98.8633 33.91059 195.1284
-103.81449 31.99923 195.07439
-103.74434 31.866417 194.79901
-107.61578 29.4598 194.7496
-17.443352 8.087654 221.24608
-24.149422 13.351738 218.18512
-29.666725 17.703224 214.27113
-34.62835 20.901787 210.36493
-39.014595 22.73191 206.94452
-43.263435 23.918297 204.04247
-47.524025 24.987907 201.54826
-51.824547 26.110512 199.48451
-56.161247 27.255623 197.6787
-56.161232 27.255638 197.67873
-60.664085 28.20652 196.03493
-65.30797 29.024376 194.67397
-69.99145 29.904945 193.73668
-74.7182 30.85749 193.24712
-74.718185 30.857506 193.24715
-79.4499 31.916893 193.15128
-84.21744 33.176826 193.20378
-89.24508 34.39971 193.52321
-94.33788 34.681847 194.24908
-98.826866 33.693047 194.88475
-98.826866 33.69306 194.88475
-103.66405 31.698235 194.5946
-17.440392 7.743904 220.785
-24.054314 13.010994 217.62039
-29.526451 17.280418 213.68034
-34.440483 20.382164 209.80319
-38.817055 22.15438 206.43813
-43.10804 23.349358 203.5737
-47.417473 24.469002 201.10037
-47.417473 24.468987 201.10037
-51.75756 25.665276 199.05397
-56.103477 26.866982 197.27885
-56.103462 26.866997 197.27887
-60.613594 27.842064 195.6837
-65.287575 28.668175 194.3578
-70.01158 29.552116 193.4331
-74.77232 30.499245 192.96701
-74.77231 30.49926 192.96704
-79.53414 31.554405 192.9041
-84.32075 32.818077 192.98682
-89.33488 34.04264 193.34225
-94.36365 34.362297 194.08621
-98.77863 33.45353 194.72314
-98.77862 33.45353 194.72314
-103.58097 31.514061 194.45464
-107.61579 29.4598 194.74957
-17.499336 7.376198 220.39967
-24.028664 12.614922 217.09969
-29.4553 16.808296 213.13791
-34.32041 19.828636 209.30357
-38.680397 21.562645 206.00325
-43.001335 22.779747 203.17442
-47.347145 23.949959 200.71198
-51.719322 25.208778 198.67372
-56.07627 26.454247 196.93741
-56.076256 26.454277 196.93744
-60.59646 27.449944 195.41368
-65.2986 28.283821 194.14774
-70.05662 29.168999 193.25148
-74.84094 30.11657 192.8081
-74.84093 30.116585 192.80814
-79.62357 31.17913 192.76544
-84.42444 32.452553 192.87386
-89.41772 33.682915 193.26328
-94.378136 34.040733 194.0126
-98.7227 33.206245 194.63034
-98.7227 33.20623 194.63034
-103.4979 31.32206 194.36972
-13.823891 3.116554 223.95686
-17.633919 6.977852 220.10468
-24.108147 12.153542 216.6687
-29.491447 16.268501 212.682
-34.299934 19.213814 208.89085
-38.626045 20.917809 205.65082
-42.956932 22.156502 202.84087
-47.325417 23.370277 200.37227
-47.3254 23.370277 200.37227
-51.724678 24.688179 198.33945
-56.09278 25.986473 196.66338
-56.092766 25.986473 196.6634
-60.619713 27.020393 195.23694
-65.34241 27.87429 194.05013
-70.12522 28.764366 193.19234
-74.922104 29.717781 192.76418
-74.92208 29.717796 192.76419
-79.71667 30.796669 192.72418
-84.526634 32.088142 192.84932
-89.493004 33.332787 193.26456
-94.382805 33.726753 194.00835
-98.66117 32.954994 194.5986
-103.41544 31.123695 194.337
-107.6158 29.459755 194.74957
-17.871056 6.546318 219.94269
-24.346428 11.624413 216.41092
-29.698616 15.647026 212.39137
-34.440865 18.510704 208.62903
-38.704628 20.17765 205.42798
-43.013054 21.419807 202.60143
-47.385048 22.660225 200.09975
-51.80529 24.042381 198.07544
-56.178474 25.42875 196.4912
-56.178474 25.42878 196.49123
-60.697258 26.542732 195.18279
-65.42258 27.442772 194.0781
-70.21633 28.34652 193.25624
-75.01485 29.306282 192.8296
-75.01483 29.306313 192.82962
-79.814644 30.402077 192.77585
-84.62949 31.717735 192.90622
-89.563576 32.984093 193.333
-94.37924 33.411293 194.06073
-98.594284 32.69416 194.62604
-98.59428 32.694145 194.62604
-103.33376 30.917534 194.36043
-17.871056 6.546318 219.9427
-18.256569 6.061226 219.9656
-24.346413 11.624413 216.41092
-24.798225 11.023674 216.40968
-30.145668 14.928444 212.35028
-34.816673 17.688118 208.59467
-38.984627 19.293571 205.40305
-43.231346 20.504463 202.51688
-47.385063 22.66024 200.09975
-47.583076 21.747505 199.95244
-47.385048 22.66024 200.09975
-51.805275 24.042381 198.07542
-52.01107 23.21009 197.94246
-56.178474 25.428764 196.49118
-56.36985 24.740349 196.47765
-56.17846 25.428795 196.49121
-56.369835 24.740364 196.47766
-60.697258 26.542747 195.18277
-60.85015 25.9907 195.29234
-65.422585 27.442787 194.0781
-65.54938 26.969673 194.25508
-70.21633 28.346504 193.25624
-70.33566 27.898308 193.4566
-75.01485 29.306282 192.82962
-75.12453 28.861092 193.01633
-75.01483 29.306297 192.82964
-75.124504 28.861107 193.01634
-79.814644 30.402061 192.77585
-79.92447 29.968239 192.93639
-84.62949 31.71772 192.90622
-84.74134 31.311073 193.05896
-89.63596 32.602684 193.47794
-94.37924 33.411293 194.06071
-94.36709 33.060707 194.1771
-98.594284 32.69416 194.626
-98.517 32.400322 194.72359
-98.59428 32.694145 194.62602
-98.517 32.400322 194.7236
-103.24669 30.684563 194.45686
POLYGONS 918 3672
3 0 1 2
3 2 1 3
3 2 3 4
3 4 3 5
3 4 5 6
3 6 5 7
3 6 7 8
3 8 7 9
3 8 9 10
3 10 9 11
3 10 11 12
3 12 11 13
3 12 13 14
3 14 13 15
3 16 17 18
3 18 17 19
3 18 19 20
3 20 19 21
3 22 23 24
3 24 23 25
3 24 25 26
3 26 25 27
3 26 27 28
3 28 27 29
3 28 29 30
3 30 29 31
3 32 33 34
3 34 33 35
3 34 35 36
3 36 35 37
3 36 37 38
3 38 37 39
3 38 39 40
3 40 39 41
3 40 41 42
3 42 41 43
3 44 45 46
3 46 45 47
3 46 47 48
3 48 47 49
3 1 50 3
3 3 50 51
3 3 51 5
3 5 51 52
3 5 52 7
3 7 52 53
3 7 53 9
3 9 53 54
3 9 54 11
3 11 54 55
3 11 55 13
3 13 55 56
3 13 56 15
3 15 56 57
3 17 57 19
3 19 57 58
3 19 58 21
3 21 58 59
3 23 60 25
3 25 60 61
3 25 61 27
3 27 61 62
3 27 62 29
3 29 62 63
3 29 63 31
3 31 63 64
3 33 65 35
3 35 65 66
3 35 66 37
3 37 66 67
3 37 67 39
3 39 67 68
3 39 68 41
3 41 68 69
3 41 69 43
3 43 69 70
3 45 71 47
3 47 71 72
3 47 72 49
3 49 72 73
3 50 0 51
3 51 0 74
3 51 74 52
3 52 74 75
3 52 75 53
3 53 75 76
3 53 76 54
3 54 76 77
3 54 77 55
3 55 77 78
3 55 78 56
3 56 78 79
3 56 79 57
3 57 79 80
3 57 81 58
3 58 81 82
3 58 82 59
3 59 82 83
3 60 84 61
3 61 84 85
3 61 85 62
3 62 85 86
3 62 86 63
3 63 86 87
3 63 87 64
3 64 87 88
3 65 89 66
3 66 89 90
3 66 90 67
3 67 90 91
3 67 91 68
3 68 91 92
3 68 92 69
3 69 92 93
3 69 93 70
3 70 93 94
3 71 94 72
3 72 94 95
3 72 95 73
3 73 95 48
3 0 96 74
3 74 96 97
3 74 97 75
3 75 97 98
3 75 98 76
3 76 98 99
3 76 99 77
3 77 99 100
3 77 100 78
3 78 100 101
3 78 101 79
3 79 101 102
3 79 102 80
3 80 102 103
3 81 104 82
3 82 104 105
3 82 105 83
3 83 105 106
3 84 107 85
3 85 107 108
3 85 108 86
3 86 108 109
3 86 109 87
3 87 109 110
3 87 110 88
3 88 110 111
3 89 112 90
3 90 112 113
3 90 113 91
3 91 113 114
3 91 114 92
3 92 114 115
3 92 115 93
3 93 115 116
3 93 116 94
3 94 116 117
3 94 118 95
3 95 118 119
3 95 119 48
3 48 119 49
3 96 120 97
3 97 120 121
3 97 121 98
3 98 121 122
3 98 122 99
3 99 122 123
3 99 123 100
3 100 123 124
3 100 124 101
3 101 124 125
3 101 125 102
3 102 125 126
3 102 126 103
3 103 126 127
3 104 128 105
3 105 128 129
3 105 129 106
3 106 129 130
3 107 131 108
3 108 131 132
3 108 132 109
3 109 132 133
3 109 133 110
3 110 133 134
3 110 134 111
3 111 134 135
3 112 136 113
3 113 136 137
3 113 137 114
3 114 137 138
3 114 138 115
3 115 138 139
3 115 139 116
3 116 139 140
3 116 140 117
3 117 140 141
3 118 142 119
3 119 142 143
3 119 143 49
3 49 143 144
3 0 96 145
3 145 96 146
3 145 146 147
3 147 146 148
3 147 148 149
3 149 148 150
3 149 150 151
3 151 150 152
3 151 152 153
3 153 152 154
3 153 154 155
3 155 154 156
3 155 156 128
3 128 156 157
3 128 157 158
3 158 157 159
3 158 159 160
3 160 159 161
3 162 163 164
3 164 163 165
3 164 165 166
3 166 165 167
3 166 167 168
3 168 167 169
3 168 169 170
3 170 169 171
3 172 173 174
3 174 173 175
3 174 175 176
3 176 175 177
3 176 177 178
3 178 177 179
3 178 179 140
3 140 179 180
3 140 180 181
3 181 180 182
3 183 184 185
3 185 184 186
3 185 186 187
3 187 186 188
3 96 189 146
3 146 189 190
3 146 190 148
3 148 190 191
3 148 191 150
3 150 191 192
3 150 192 152
3 152 192 193
3 152 193 154
3 154 193 194
3 154 194 156
3 156 194 195
3 156 195 157
3 157 195 196
3 157 197 159
3 159 197 198
3 159 198 161
3 161 198 199
3 163 200 165
3 165 200 201
3 165 201 167
3 167 201 202
3 167 202 169
3 169 202 203
3 169 203 171
3 171 203 204
3 173 205 175
3 175 205 206
3 175 206 177
3 177 206 207
3 177 207 179
3 179 207 208
3 179 208 180
3 180 208 209
3 180 209 182
3 182 209 210
3 184 211 186
3 186 211 212
3 186 212 188
3 188 212 213
3 189 214 190
3 190 214 215
3 190 215 191
3 191 215 216
3 191 216 192
3 192 216 217
3 192 217 193
3 193 217 218
3 193 218 194
3 194 218 219
3 194 219 195
3 195 219 220
3 195 220 196
3 196 220 221
3 197 222 198
3 198 222 223
3 198 223 199
3 199 223 224
3 200 225 201
3 201 225 226
3 201 226 202
3 202 226 227
3 202 227 203
3 203 227 228
3 203 228 204
3 204 228 229
3 205 230 206
3 206 230 231
3 206 231 207
3 207 231 232
3 207 232 208
3 208 232 233
3 208 233 209
3 209 233 234
3 209 234 210
3 210 234 235
3 211 236 212
3 212 236 237
3 212 237 213
3 213 237 238
3 189 239 240
3 240 239 241
3 240 241 242
3 242 241 243
3 242 243 244
3 244 243 245
3 244 245 246
3 246 245 247
3 246 247 248
3 248 247 249
3 248 249 250
3 250 249 251
3 250 251 222
3 222 251 252
3 253 254 255
3 255 254 256
3 255 256 225
3 225 256 257
3 258 259 260
3 260 259 261
3 260 261 262
3 262 261 263
3 262 263 264
3 264 263 265
3 264 265 266
3 266 265 267
3 268 269 270
3 270 269 271
3 270 271 272
3 272 271 273
3 272 273 274
3 274 273 275
3 274 275 276
3 276 275 277
3 276 277 278
3 278 277 279
3 280 281 282
3 282 281 283
3 282 283 213
3 213 283 284
3 239 285 241
3 241 285 286
3 241 286 243
3 243 286 287
3 243 287 245
3 245 287 288
3 245 288 247
3 247 288 289
3 247 289 249
3 249 289 290
3 249 290 251
3 251 290 291
3 251 291 252
3 252 291 292
3 254 293 256
3 256 293 294
3 256 294 257
3 257 294 295
3 259 296 261
3 261 296 297
3 261 297 263
3 263 297 298
3 263 298 265
3 265 298 299
3 265 299 267
3 267 299 300
3 269 301 271
3 271 301 302
3 271 302 273
3 273 302 303
3 273 303 275
3 275 303 304
3 275 304 277
3 277 304 305
3 277 305 279
3 279 305 306
3 281 307 283
3 283 307 308
3 283 308 284
3 284 308 309
3 285 310 286
3 286 310 311
3 286 311 287
3 287 311 312
3 287 312 288
3 288 312 313
3 288 313 289
3 289 313 314
3 289 314 290
3 290 314 315
3 290 315 291
3 291 315 316
3 291 316 292
3 292 316 317
3 293 318 294
3 294 318 319
3 294 319 295
3 295 319 320
3 296 321 297
3 297 321 322
3 297 322 298
3 298 322 323
3 298 323 299
3 299 323 324
3 299 324 300
3 300 324 325
3 301 326 302
3 302 326 327
3 302 327 303
3 303 327 328
3 303 328 304
3 304 328 329
3 304 329 305
3 305 329 330
3 305 330 306
3 306 330 331
3 307 332 308
3 308 332 333
3 308 333 309
3 309 333 213
3 285 310 334
3 334 310 335
3 334 335 312
3 312 335 336
3 312 336 337
3 337 336 338
3 337 338 314
3 314 338 339
3 314 339 315
3 315 339 340
3 315 340 341
3 341 340 342
3 341 342 318
3 318 342 343
3 344 345 346
3 346 345 347
3 346 347 320
3 320 347 348
3 349 350 322
3 322 350 351
3 322 351 323
3 323 351 352
3 323 352 324
3 324 352 353
3 324 353 325
3 325 353 354
3 355 356 327
3 327 356 357
3 327 357 358
3 358 357 359
3 358 359 360
3 360 359 361
3 360 361 362
3 362 361 363
3 362 363 331
3 331 363 364
3 332 365 366
3 366 365 367
3 366 367 368
3 368 367 309
3 335 285 369
3 335 369 336
3 336 369 370
3 336 370 338
3 338 370 371
3 338 371 339
3 339 371 372
3 339 372 340
3 340 372 373
3 340 373 342
3 342 373 374
3 342 374 343
3 343 374 375
3 345 376 347
3 347 376 377
3 347 377 348
3 348 377 378
3 350 379 351
3 351 379 380
3 351 380 352
3 352 380 381
3 352 381 353
3 353 381 382
3 353 382 354
3 354 382 383
3 356 384 357
3 357 384 385
3 357 385 359
3 359 385 386
3 359 386 361
3 361 386 387
3 361 387 363
3 363 387 388
3 363 388 364
3 364 388 389
3 365 390 367
3 367 390 391
3 367 391 309
3 309 391 392
3 285 0 369
3 369 0 393
3 369 393 370
3 370 393 394
3 370 394 371
3 371 394 395
3 371 395 372
3 372 395 396
3 372 396 373
3 373 396 397
3 373 397 374
3 374 397 398
3 374 398 375
3 375 398 399
3 376 399 377
3 377 399 400
3 377 400 378
3 378 400 401
3 379 402 380
3 380 402 403
3 380 403 381
3 381 403 404
3 381 404 382
3 382 404 405
3 382 405 383
3 383 405 406
3 384 407 385
3 385 407 408
3 385 408 386
3 386 408 409
3 386 409 387
3 387 409 410
3 387 410 388
3 388 410 411
3 388 411 389
3 389 411 412
3 390 413 391
3 391 413 414
3 391 414 392
3 392 414 48
3 0 415 393
3 393 415 416
3 393 416 394
3 394 416 417
3 394 417 395
3 395 417 418
3 395 418 396
3 396 418 419
3 396 419 397
3 397 419 420
3 397 420 398
3 398 420 421
3 398 421 399
3 399 421 422
3 399 422 400
3 400 422 423
3 400 423 401
3 401 423 424
3 402 425 403
3 403 425 426
3 403 426 404
3 404 426 427
3 404 427 405
3 405 427 428
3 405 428 406
3 406 428 429
3 407 430 408
3 408 430 431
3 408 431 409
3 409 431 432
3 409 432 410
3 410 432 433
3 410 433 411
3 411 433 434
3 411 434 412
3 412 434 435
3 413 435 414
3 414 435 436
3 414 436 48
3 48 436 284
3 415 285 437
3 437 285 438
3 437 438 439
3 439 438 440
3 439 440 441
3 441 440 442
3 441 442 443
3 443 442 444
3 443 444 445
3 445 444 446
3 445 446 447
3 447 446 448
3 447 448 449
3 449 448 450
3 449 450 451
3 451 450 452
3 451 452 453
3 453 452 454
3 455 456 457
3 457 456 458
3 457 458 459
3 459 458 460
3 459 460 461
3 461 460 462
3 461 462 463
3 463 462 464
3 465 466 467
3 467 466 468
3 467 468 469
3 469 468 470
3 469 470 471
3 471 470 472
3 471 472 473
3 473 472 474
3 473 474 475
3 475 474 476
3 477 478 479
3 479 478 480
3 479 480 481
3 481 480 284
3 285 0 438
3 438 0 482
3 438 482 440
3 440 482 483
3 440 483 442
3 442 483 484
3 442 484 444
3 444 484 485
3 444 485 446
3 446 485 486
3 446 486 448
3 448 486 487
3 448 487 450
3 450 487 488
3 450 488 452
3 452 488 489
3 452 489 454
3 454 489 490
3 456 491 458
3 458 491 492
3 458 492 460
3 460 492 493
3 460 493 462
3 462 493 494
3 462 494 464
3 464 494 495
3 466 496 468
3 468 496 497
3 468 497 470
3 470 497 498
3 470 498 472
3 472 498 499
3 472 499 474
3 474 499 500
3 474 500 476
3 476 500 501
3 478 502 480
3 480 502 503
3 480 503 284
3 284 503 144
3 482 285 504
3 482 504 483
3 483 504 505
3 483 505 484
3 484 505 506
3 484 506 485
3 485 506 507
3 485 507 486
3 486 507 508
3 486 508 487
3 487 508 509
3 487 509 488
3 488 509 510
3 488 511 489
3 489 511 512
3 489 512 490
3 490 512 513
3 491 514 492
3 492 514 515
3 492 515 493
3 493 515 516
3 493 516 494
3 494 516 517
3 494 517 495
3 495 517 518
3 496 519 497
3 497 519 520
3 497 520 498
3 498 520 521
3 498 521 499
3 499 521 522
3 499 522 500
3 500 522 523
3 500 523 501
3 501 523 524
3 502 525 503
3 503 525 526
3 503 526 144
3 144 526 527
3 285 96 504
3 504 96 528
3 504 528 505
3 505 528 529
3 505 529 506
3 506 529 530
3 506 530 507
3 507 530 531
3 507 531 508
3 508 531 532
3 508 532 509
3 509 532 533
3 509 533 510
3 510 533 534
3 511 534 512
3 512 534 535
3 512 535 513
3 513 535 536
3 514 537 515
3 515 537 538
3 515 538 516
3 516 538 539
3 516 539 517
3 517 539 540
3 517 540 518
3 518 540 541
3 519 542 520
3 520 542 543
3 520 543 521
3 521 543 544
3 521 544 522
3 522 544 545
3 522 545 523
3 523 545 546
3 523 546 524
3 524 546 547
3 525 548 526
3 526 548 549
3 526 549 527
3 527 549 48
3 96 550 528
3 528 550 551
3 528 551 529
3 529 551 552
3 529 552 530
3 530 552 553
3 530 553 531
3 531 553 554
3 531 554 532
3 532 554 555
3 532 555 533
3 533 555 556
3 533 556 534
3 534 556 557
3 534 558 535
3 535 558 559
3 535 559 536
3 536 559 560
3 537 561 538
3 538 561 562
3 538 562 539
3 539 562 563
3 539 563 540
3 540 563 564
3 540 564 541
3 541 564 565
3 542 566 543
3 543 566 567
3 543 567 544
3 544 567 568
3 544 568 545
3 545 568 569
3 545 569 546
3 546 569 570
3 546 570 547
3 547 570 571
3 548 571 549
3 549 571 572
3 549 572 48
3 48 572 573
3 550 285 551
3 551 285 574
3 551 574 552
3 552 574 575
3 552 575 553
3 553 575 576
3 553 576 554
3 554 576 577
3 554 577 555
3 555 577 578
3 555 578 556
3 556 578 579
3 556 579 557
3 557 579 580
3 558 580 559
3 559 580 581
3 559 581 560
3 560 581 582
3 561 583 562
3 562 583 584
3 562 584 563
3 563 584 585
3 563 585 564
3 564 585 586
3 564 586 565
3 565 586 587
3 566 588 567
3 567 588 589
3 567 589 568
3 568 589 590
3 568 590 569
3 569 590 591
3 569 591 570
3 570 591 592
3 570 592 571
3 571 592 593
3 571 594 572
3 572 594 595
3 572 595 573
3 573 595 368
3 285 189 596
3 596 189 597
3 596 597 598
3 598 597 599
3 598 599 576
3 576 599 600
3 576 600 577
3 577 600 601
3 577 601 578
3 578 601 602
3 578 602 579
3 579 602 603
3 579 603 604
3 604 603 605
3 606 605 607
3 607 605 608
3 607 608 609
3 609 608 610
3 611 612 613
3 613 612 614
3 613 614 615
3 615 614 616
3 615 616 617
3 617 616 618
3 617 618 619
3 619 618 620
3 621 622 623
3 623 622 624
3 623 624 625
3 625 624 626
3 625 626 591
3 591 626 627
3 591 627 628
3 628 627 629
3 628 629 630
3 630 629 631
3 632 633 595
3 595 633 634
3 595 634 309
3 309 634 392
3 189 0 597
3 597 0 2
3 597 2 599
3 599 2 4
3 599 4 600
3 600 4 6
3 600 6 601
3 601 6 8
3 601 8 602
3 602 8 10
3 602 10 603
3 603 10 12
3 603 12 605
3 605 12 14
3 605 16 608
3 608 16 18
3 608 18 610
3 610 18 20
3 612 22 614
3 614 22 24
3 614 24 616
3 616 24 26
3 616 26 618
3 618 26 28
3 618 28 620
3 620 28 30
3 622 32 624
3 624 32 34
3 624 34 626
3 626 34 36
3 626 36 627
3 627 36 38
3 627 38 629
3 629 38 40
3 629 40 631
3 631 40 42
3 633 44 634
3 634 44 46
3 634 46 392
3 392 46 48
