# vtk DataFile Version 2.0
File written by itkPolyDataMeshIO
ASCII
DATASET POLYDATA
POINTS 1001 float
-10.723259 1.342628 219.80685
-12.336906 3.385658 224.93707
-12.867332 0.231377 220.85603
-12.003975 1.944221 216.61537
-14.488167 0.976662 217.44987
-14.043129 3.114006 213.20285
-16.255074 2.091408 213.90997
-14.043129 3.113991 213.20287
-16.255074 2.091423 213.90997
-16.772469 4.120308 209.71776
-18.495064 2.993462 210.58076
-19.4795 4.108772 206.10191
-20.805794 2.902031 207.06227
-22.137184 2.825264 201.80965
-23.19149 1.589867 202.90477
-24.990028 0.532021 197.34917
-25.827705 -0.640633 198.7705
-28.094643 -2.393349 193.60393
-28.73188 -3.465233 195.30008
-31.480507 -5.669044 190.49362
-31.909294 -6.72094 192.31145
-34.946434 -9.181557 187.76517
-35.204155 -10.187202 189.66812
-38.256325 -13.06823 185.42467
-38.428596 -13.87516 187.40381
-41.58825 -17.190605 183.42561
-41.730705 -17.92881 185.48708
-44.640892 -21.173912 181.78093
-44.90934 -21.886894 183.85074
-47.98252 -25.177849 179.94157
-48.042168 -25.80732 181.9578
-52.232796 -29.146523 178.85652
-51.686775 -29.93261 180.55193
-56.862785 -32.945946 178.73735
-56.002266 -34.045753 180.09793
-61.309746 -36.415382 178.26376
-60.746407 -37.650963 179.56276
-61.30973 -36.415382 178.26376
-60.74639 -37.650948 179.56276
-65.9318 -39.018593 176.75177
-65.84964 -40.269737 177.94104
-70.92375 -40.211983 174.47906
-71.181435 -41.39483 175.42021
-71.18143 -41.39483 175.42021
-75.592834 -40.099205 171.95662
-76.11657 -41.001198 172.75298
-79.18048 -39.686485 168.91
-79.86023 -40.33561 169.53387
-79.18047 -39.686485 168.91
-79.86023 -40.335625 169.53389
-82.333984 -39.25509 165.0417
-82.98705 -39.768456 165.48117
-85.83124 -38.924385 160.89934
-86.34638 -39.35354 161.30704
-85.83122 -38.92437 160.89935
-86.34636 -39.35354 161.30705
-90.13713 -39.05941 157.65717
-90.42608 -39.415962 158.1322
-95.4246 -39.800713 156.28767
-95.46331 -40.11326 156.78458
-95.42459 -39.800697 156.28767
-95.4633 -40.113243 156.78458
-101.19547 -40.67872 156.41527
-101.12534 -40.963676 156.89813
-106.63606 -40.283928 156.88118
-106.6326 -40.504204 157.3031
-106.636055 -40.283913 156.88116
-106.6326 -40.50419 157.30312
-110.954605 -37.64881 157.34592
-111.051994 -37.792152 157.63557
-114.31466 -33.158302 157.78357
-114.474785 -33.28808 157.9804
-114.31464 -33.158287 157.78358
-114.47476 -33.28808 157.98041
-116.60631 -29.393959 158.25955
-12.336906 3.385658 224.93706
-14.049721 0.002937 221.50696
-15.771294 0.900185 217.99303
-17.458794 2.011208 214.4409
-17.458809 2.011208 214.4409
-19.514519 2.823601 211.15831
-21.677254 2.596733 207.6212
-23.95855 1.177849 203.51538
-26.490562 -1.047462 199.55653
-29.29992 -3.804161 196.21532
-32.39576 -7.018669 193.27902
-35.63221 -10.444359 190.68146
-38.810402 -14.057671 188.4497
-42.106956 -18.06855 186.5902
-45.359 -22.013512 184.94962
-48.416435 -25.87899 183.09364
-51.78785 -30.019005 181.64908
-55.926414 -34.254646 181.07726
-60.75689 -37.9728 180.46953
-60.756874 -37.9728 180.46953
-66.0362 -40.635475 178.74944
-71.46723 -41.732857 176.08794
-71.46722 -41.732857 176.08794
-76.46152 -41.25939 173.29834
-80.26713 -40.496086 169.92978
-80.26712 -40.496086 169.9298
-83.378914 -39.88694 165.75381
-86.65739 -39.451714 161.55634
-86.65738 -39.4517 161.55635
-90.60608 -39.503105 158.40811
-95.50122 -40.201057 157.06998
-95.50121 -40.201057 157.06998
-101.09584 -41.040733 157.1781
-106.622765 -40.555077 157.54338
-106.62276 -40.555077 157.54337
-111.077614 -37.833214 157.80388
-114.53191 -33.346443 158.11847
-114.53189 -33.346443 158.11848
-116.60631 -29.393959 158.25954
-116.606316 -29.393959 158.25954
-15.074379 0.028435 222.11172
-16.835548 1.036537 218.50119
-18.466667 2.171303 214.9549
-18.466652 2.171303 214.95488
-20.424324 2.916512 211.70296
-22.53373 2.56002 208.12352
-24.774788 1.026314 204.05367
-27.229103 -1.216469 200.24983
-29.960396 -3.922859 197.01472
-33.006676 -7.084145 194.11758
-36.202187 -10.470863 191.55278
-39.311546 -14.064857 189.34026
-42.580208 -18.062477 187.53787
-45.886925 -22.009743 185.89647
-48.86976 -25.833519 184.05547
-52.07212 -29.90841 182.6192
-56.129402 -34.157005 182.0148
-61.006126 -37.967583 181.35352
-61.006126 -37.967583 181.35353
-66.3704 -40.684288 179.53482
-71.81668 -41.770454 176.75563
-71.81667 -41.770454 176.75563
-76.806465 -41.312874 173.85165
-80.65398 -40.52291 170.31953
-83.74871 -39.89884 166.01619
-86.94977 -39.459084 161.79291
-86.94975 -39.45907 161.79291
-90.780266 -39.518517 158.66904
-95.54579 -40.231743 157.3466
-95.545784 -40.231743 157.3466
-101.073746 -41.066963 157.44925
-106.610344 -40.56637 157.76846
-106.61033 -40.56637 157.76848
-111.086525 -37.85253 157.96353
-114.56018 -33.3897 158.2632
-114.56016 -33.389687 158.26321
-12.336906 3.385674 224.93707
-16.037102 0.246437 222.71149
-17.818413 1.32093 219.01382
-19.388939 2.494347 215.47539
-19.388954 2.494362 215.47539
-21.280312 3.204247 212.23308
-23.383797 2.766731 208.57301
-25.631569 1.158592 204.50253
-28.045708 -1.109062 200.8298
-30.723656 -3.801033 197.69237
-33.736412 -6.928322 194.83409
-36.89817 -10.292397 192.29716
-39.933052 -13.911308 190.10774
-43.159065 -17.927727 188.38835
-46.50846 -21.897453 186.76636
-49.409645 -25.69175 184.91571
-52.4851 -29.662956 183.47742
-56.51275 -33.851387 182.86162
-61.422523 -37.704765 182.15532
-61.42251 -37.70475 182.15533
-66.80811 -40.45733 180.24464
-72.19738 -41.551613 177.37961
-72.197365 -41.551613 177.37961
-77.1477 -41.184715 174.40277
-81.03765 -40.437767 170.71526
-81.03764 -40.437767 170.71526
-84.1118 -39.819878 166.27892
-87.23419 -39.38659 162.02551
-87.234184 -39.386574 162.02553
-90.95613 -39.469536 158.9285
-95.59904 -40.209602 157.63217
-95.59903 -40.209602 157.63217
-101.05744 -41.047096 157.7304
-106.59547 -40.54357 157.99556
-106.59546 -40.54357 157.99556
-111.08339 -37.85546 158.12762
-114.56514 -33.422585 158.42372
-114.56512 -33.422585 158.42374
-16.898186 0.655083 223.27394
-18.7378 1.749611 219.52605
-20.254784 2.954216 216.00327
-20.254799 2.954231 216.00327
-22.07914 3.65873 212.74039
-24.175484 3.207054 208.94162
-26.450035 1.588799 204.80902
-28.873482 -0.700294 201.22832
-31.540565 -3.421425 198.18227
-34.53472 -6.554436 195.37042
-37.670372 -9.922737 192.86238
-40.649773 -13.598976 190.71179
-43.832695 -17.653465 189.0952
-47.21508 -21.657402 187.50357
-50.034737 -25.440758 185.64081
-52.98771 -29.319588 184.1867
-56.99363 -33.416603 183.54225
-61.929817 -37.24807 182.78159
-61.929787 -37.24804 182.7816
-67.28739 -40.000847 180.79225
-72.559746 -41.121895 177.88722
-72.55973 -41.121895 177.88722
-77.45186 -40.885094 174.89806
-81.39461 -40.236748 171.09035
-81.3946 -40.236732 171.09035
-84.44993 -39.648003 166.52892
-87.49803 -39.23394 162.24405
-87.49802 -39.233925 162.24406
-91.12741 -39.352074 159.17581
-95.66095 -40.12542 157.91429
-95.66094 -40.12542 157.9143
-101.04935 -40.971886 158.01039
-106.57835 -40.481377 158.22017
-106.57835 -40.48139 158.22017
-111.067474 -37.839943 158.29764
-114.54392 -33.44233 158.59554
-114.54389 -33.44233 158.59554
-12.336906 3.385643 224.93706
-12.336906 3.385658 224.93709
-16.89817 0.655083 223.27394
-17.608025 1.262672 223.76253
-18.7378 1.749596 219.52603
-19.59797 2.339821 220.02867
-20.254799 2.954216 216.00325
-21.09835 3.54464 216.54732
-22.079155 3.65873 212.74039
-22.824165 4.263451 213.22404
-24.175484 3.207039 208.94162
-24.856392 3.845955 209.21234
-26.45002 1.588783 204.80902
-27.139977 2.260414 204.94423
-29.62069 -0.045326 201.40753
-31.540565 -3.42144 198.18228
-32.333702 -2.824654 198.4426
-34.53472 -6.554451 195.37042
-35.33625 -5.996605 195.68736
-37.670372 -9.922737 192.86237
-38.46055 -9.393578 193.2121
-40.649757 -13.598976 190.71179
-41.41976 -13.146278 191.11743
-44.57093 -17.229286 189.57634
-47.975166 -21.25576 187.98346
-50.724983 -25.05915 186.14404
-52.987694 -29.319588 184.1867
-53.55259 -28.897652 184.71921
-56.99363 -33.416603 183.54224
-57.518166 -32.90795 184.03616
-62.463234 -36.66877 183.19298
-61.929787 -37.24804 182.78159
-62.46322 -36.66874 183.193
-67.28739 -40.000847 180.79227
-67.75117 -39.393288 181.13744
-72.55975 -41.121895 177.88724
-72.86723 -40.551765 178.24228
-72.55974 -41.121895 177.88722
-77.45186 -40.885094 174.89807
-77.68368 -40.437233 175.2847
-81.68599 -39.90928 171.40437
-81.39459 -40.236732 171.09036
-81.68598 -39.909294 171.40439
-84.44993 -39.647987 166.52892
-84.73533 -39.37928 166.74565
-87.498024 -39.233925 162.24405
-87.7247 -39.00367 162.43486
-87.724686 -39.00367 162.43486
-91.28439 -39.163567 159.39326
-95.66095 -40.12542 157.9143
-95.73056 -39.968636 158.16736
-95.660934 -40.12542 157.9143
-95.730545 -39.968636 158.16736
-101.04935 -40.971886 158.0104
-101.05325 -40.828865 158.26384
-106.57835 -40.481377 158.22018
-106.55916 -40.37139 158.42876
-106.55915 -40.371407 158.42876
-111.03446 -37.800346 158.47081
-114.543915 -33.442314 158.59552
-114.49276 -33.444557 158.76979
-114.54389 -33.442314 158.59554
-114.49274 -33.444557 158.76982
-116.606316 -29.393959 158.25955
-18.11985 2.05909 224.14816
-20.354195 3.097527 220.49905
-21.88871 4.262245 217.09134
-21.888695 4.262245 217.09135
-23.479256 4.995796 213.66396
-25.376534 4.62159 209.37445
-27.63572 3.072899 204.91165
-30.211647 0.753456 201.37157
-33.02816 -2.089714 198.46928
-36.07522 -5.314629 195.7758
-39.21099 -8.754875 193.33797
-42.191795 -12.589531 191.31
-45.32711 -16.67112 189.77786
-48.739113 -20.691948 188.12024
-51.441444 -24.550896 186.36292
-54.15197 -28.416542 185.06316
-58.04992 -32.36727 184.35454
-62.97216 -36.038948 183.39493
-62.972145 -36.038948 183.39493
-68.15587 -38.72416 181.28285
-73.09946 -39.920265 178.44061
-77.82091 -39.885963 175.52975
-81.87812 -39.466606 171.6227
-81.87811 -39.46662 171.62271
-84.94151 -39.024986 166.90886
-87.89675 -38.709694 162.58293
-87.896736 -38.709694 162.58295
-91.414116 -38.913277 159.55908
-95.803276 -39.742744 158.35977
-95.80327 -39.742744 158.35977
-101.07114 -40.61843 158.46031
-106.53783 -40.211998 158.6026
-106.53783 -40.211998 158.60262
-110.97931 -37.73104 158.63525
-114.4106 -33.42533 158.93141
-114.41058 -33.425316 158.93143
-116.6063 -29.393944 158.25957
-18.404335 2.978767 224.41896
-20.89701 3.985954 220.89783
-22.483528 5.087578 217.57089
-22.483528 5.087563 217.57089
-23.93557 5.808372 214.00049
-25.69358 5.44532 209.41963
-27.932411 3.912224 204.75418
-30.628273 1.583687 201.17595
-33.583397 -1.311241 198.30809
-36.700783 -4.586708 195.66722
-39.873924 -8.073448 193.27037
-42.91413 -11.982872 191.30962
-46.043465 -16.04499 189.7383
-49.44758 -20.043541 187.9756
-52.129707 -23.976616 186.3385
-54.747307 -27.912193 185.23128
-58.557686 -31.833397 184.51648
-63.422356 -35.424004 183.42679
-63.422325 -35.42399 183.4268
-68.48002 -38.071373 181.2694
-73.25523 -39.29751 178.50514
-73.25522 -39.29751 178.50513
-77.869286 -39.304512 175.63947
-81.96347 -38.96859 171.73657
-81.96346 -38.96859 171.73659
-85.05457 -38.627556 167.00679
-87.99946 -38.38468 162.67458
-87.99944 -38.38468 162.67459
-91.50133 -38.631966 159.65149
-95.86852 -39.480125 158.46278
-95.86851 -39.480125 158.46278
-101.09969 -40.369194 158.57529
-106.51414 -40.01841 158.72423
-106.51413 -40.018425 158.72421
-110.901054 -37.631783 158.7681
-114.30114 -33.38215 159.05716
-114.301125 -33.38215 159.05717
-116.60631 -29.393974 158.25954
-12.336891 3.385658 224.93709
-12.336891 3.385689 224.9371
-18.404335 2.978783 224.41898
-18.452797 3.929604 224.57642
-20.896996 3.98597 220.89784
-21.109901 4.941124 221.18512
-22.483513 5.087593 217.5709
-22.715645 5.983742 217.90842
-22.483513 5.087578 217.57089
-22.71566 5.983742 217.9084
-23.935555 5.808388 214.0005
-24.075233 6.64167 214.16795
-25.693565 5.445335 209.41965
-25.784508 6.231056 209.346
-27.932396 3.912239 204.7542
-28.063774 4.684074 204.52861
-30.628258 1.583702 201.17596
-30.890602 2.353951 200.89365
-33.583397 -1.311226 198.3081
-33.987206 -0.571953 198.02338
-36.700768 -4.586678 195.66724
-37.18078 -3.885643 195.41017
-39.87391 -8.073418 193.27039
-40.414665 -7.412971 193.05444
-42.914116 -11.982857 191.30963
-43.542854 -11.379982 191.15012
-46.043465 -16.044975 189.73831
-46.66871 -15.430367 189.54031
-49.447563 -20.043526 187.9756
-50.049553 -19.415123 187.6824
-52.129692 -23.9766 186.33852
-52.739174 -23.415398 186.16237
-54.74729 -27.912178 185.2313
-55.303368 -27.420784 185.24857
-58.55767 -31.833382 184.5165
-59.02128 -31.333443 184.54266
-63.42234 -35.42399 183.42679
-63.79812 -34.86921 183.34013
-63.422325 -35.423973 183.42682
-63.798103 -34.869194 183.34013
-68.48 -38.071342 181.26941
-68.72114 -37.48649 181.15227
-73.25521 -39.297493 178.50516
-73.34548 -38.730812 178.47037
-73.25521 -39.297493 178.50514
-73.34547 -38.730812 178.47037
-77.86928 -39.304497 175.63948
-77.85066 -38.7649 175.64359
-81.963455 -38.968575 171.73659
-81.95352 -38.48992 171.75644
-81.963455 -38.96856 171.73659
-81.953514 -38.48992 171.75644
-85.054565 -38.62754 167.00682
-85.07271 -38.23893 167.03665
-87.99945 -38.384666 162.67459
-88.0244 -38.06582 162.70142
-87.999435 -38.384666 162.6746
-88.02438 -38.06582 162.70145
-91.50131 -38.63195 159.65149
-91.53429 -38.35685 159.65686
-95.868515 -39.48011 158.46281
-95.91507 -39.22341 158.45988
-95.8685 -39.48011 158.4628
-95.91506 -39.22341 158.45988
-101.09968 -40.36918 158.5753
-101.132965 -40.121147 158.59538
-106.51412 -40.018394 158.72423
-106.488945 -39.81498 158.78069
-106.48894 -39.814995 158.78069
-110.90104 -37.631767 158.7681
-110.80524 -37.509193 158.84436
-114.30113 -33.382133 159.05717
-114.17101 -33.314156 159.12325
-114.30111 -33.382133 159.05719
-114.171 -33.31414 159.12328
-116.6063 -29.393944 158.25955
-12.336891 3.385674 224.93709
-18.280739 4.861702 224.6296
-20.96534 5.907082 221.34686
-22.543938 6.90052 218.07622
-22.543922 6.900505 218.07622
-23.889183 7.451195 214.1578
-25.67292 6.949745 209.16743
-28.065117 5.37455 204.2597
-31.02282 3.048927 200.5531
-34.246056 0.106316 197.64232
-37.51174 -3.234474 195.02788
-40.820442 -6.796623 192.70596
-44.058846 -10.800972 190.83968
-47.191795 -14.851357 189.2184
-50.53707 -18.8404 187.29816
-53.260033 -22.891838 185.87459
-55.818977 -26.94564 185.12996
-59.449303 -30.86129 184.4483
-64.11163 -34.370705 183.16312
-64.11162 -34.370705 183.16312
-68.89467 -36.96511 180.96132
-73.384 -38.21659 178.3582
-73.383995 -38.21659 178.3582
-77.78286 -38.280983 175.56784
-81.86639 -38.056114 171.70007
-81.86638 -38.0561 171.70007
-85.006516 -37.87986 167.00551
-87.977425 -37.768745 162.6682
-87.97742 -37.768745 162.66823
-91.51675 -38.10372 159.58557
-95.94168 -38.99169 158.36601
-95.94167 -38.99169 158.36603
-101.167595 -39.894737 158.52974
-106.465126 -39.61947 158.76814
-106.46512 -39.619484 158.76813
-110.703606 -37.37661 158.85373
-114.03117 -33.227745 159.1253
-114.03115 -33.22773 159.12532
-116.60631 -29.393959 158.25957
-17.912804 5.770485 224.58623
-20.512444 6.845222 221.39073
-22.040794 7.785027 218.09346
-22.040794 7.785011 218.09346
-23.458427 8.210426 214.00946
-25.411476 7.619316 208.90765
-27.960045 6.030281 203.94148
-31.040993 3.70977 200.14146
-34.373238 0.748375 197.15675
-37.70742 -2.617165 194.5183
-41.09249 -6.21537 192.2137
-44.459084 -10.240059 190.36313
-47.62806 -14.287743 188.75793
-50.92959 -18.294685 186.80478
-53.708748 -22.386986 185.46207
-56.314705 -26.466835 184.87549
-59.868248 -30.387962 184.23836
-64.39188 -33.889122 182.89766
-64.39187 -33.889122 182.89766
-69.02409 -36.462944 180.69836
-73.38182 -37.71511 178.17406
-73.38181 -37.71511 178.17406
-77.67492 -37.82035 175.4269
-81.71957 -37.6504 171.58528
-81.71956 -37.6504 171.5853
-84.87274 -37.544212 166.92596
-87.87348 -37.490517 162.58849
-87.87347 -37.4905 162.5885
-91.463135 -37.869423 159.4641
-95.95474 -38.782234 158.21706
-95.95473 -38.782234 158.21707
-101.20273 -39.691505 158.40236
-106.44584 -39.440758 158.68977
-106.44583 -39.440758 158.68977
-110.60943 -37.24978 158.80208
-113.89739 -33.136467 159.07973
-113.89736 -33.13645 159.07974
-12.336891 3.385658 224.93707
-17.355675 6.651955 224.43964
-20.512444 6.845238 221.39073
-19.801628 7.729301 221.32278
-21.28643 8.599693 217.98462
-21.28643 8.599678 217.98462
-23.458427 8.210411 214.00946
-22.855507 8.906258 213.75833
-25.411476 7.619301 208.90765
-25.029167 8.260689 208.57841
-27.960045 6.030296 203.94148
-27.742943 6.690041 203.55466
-31.040993 3.709785 200.14145
-30.936287 4.36837 199.63278
-34.373238 0.74839 197.15675
-34.365517 1.373024 196.54666
-37.769753 -2.020424 193.86792
-41.2259 -5.662346 191.56117
-44.72959 -9.699043 189.70123
-47.62806 -14.287743 188.75795
-47.97097 -13.731453 188.12775
-50.92959 -18.294685 186.80476
-51.220757 -17.766197 186.16579
-53.708763 -22.386986 185.46207
-54.075844 -21.897133 184.89459
-56.31472 -26.466835 184.87549
-56.78916 -25.98095 184.46288
-60.290215 -29.896507 183.89238
-64.39188 -33.889137 182.89766
-64.65572 -33.392143 182.52112
-64.65571 -33.392113 182.52112
-69.118645 -35.942802 180.34163
-73.38183 -37.71511 178.17406
-73.3373 -37.194206 177.9026
-73.337296 -37.194206 177.90262
-77.67491 -37.82035 175.4269
-77.52361 -37.35441 175.21548
-81.517914 -37.256996 171.41634
-81.51791 -37.256996 171.41635
-84.67895 -37.225792 166.80367
-87.87348 -37.4905 162.58849
-87.72087 -37.22738 162.47006
-87.72086 -37.22738 162.47008
-91.46313 -37.869423 159.4641
-91.38271 -37.648933 159.30927
-95.95474 -38.78222 158.21706
-95.959076 -38.589195 158.03662
-95.95473 -38.78222 158.21706
-95.95906 -38.589195 158.03662
-101.23829 -39.509346 158.23029
-106.43306 -39.283638 158.55095
-106.43306 -39.283653 158.55093
-110.60942 -37.24978 158.80208
-110.5311 -37.13952 158.69975
-113.897385 -33.136467 159.07973
-113.78315 -33.052284 159.0037
-113.78313 -33.052284 159.00371
-16.59658 7.473763 224.17001
-18.851128 8.536674 221.13763
-20.318474 9.325584 217.75893
-20.318474 9.325569 217.75894
-22.103905 9.534676 213.41441
-24.514824 8.880394 208.17389
-27.377525 7.359886 203.0761
-30.673378 5.023949 199.00163
-34.197 1.974022 195.79196
-37.679436 -1.449242 193.05933
-41.202736 -5.145363 190.73587
-44.836937 -9.198204 188.839
-48.177208 -13.206154 187.29593
-51.362312 -17.281303 185.35226
-54.310173 -21.453728 184.14218
-57.205772 -25.513344 183.84889
-60.702568 -29.393059 183.36351
-64.89869 -32.869347 181.9916
-64.89868 -32.86933 181.99161
-69.1673 -35.39144 179.85184
-73.23458 -36.644722 177.51004
-73.23458 -36.644722 177.51003
-77.31438 -36.87713 174.90889
-81.25124 -36.877525 171.18132
-81.251236 -36.87751 171.18132
-84.41934 -36.928673 166.63408
-87.51651 -36.981926 162.31049
-87.516495 -36.981926 162.31052
-91.27436 -37.442406 159.11987
-95.95465 -38.41137 157.82562
-95.95464 -38.41137 157.82562
-101.274254 -39.348778 158.01642
-106.4275 -39.151344 158.35675
-106.4275 -39.15136 158.35675
-110.470436 -37.04908 158.55405
-113.69311 -32.979225 158.90334
-113.693085 -32.97921 158.90337
-116.60631 -29.393944 158.25955
-15.631554 8.160912 223.7579
-17.673775 9.214729 220.82121
-19.157951 9.930458 217.41234
-21.203041 10.086739 212.97203
-23.836906 9.47506 207.6796
-26.812096 8.026344 202.48207
-30.203453 5.656212 198.22447
-33.8301 2.530251 194.87411
-37.40586 -0.920174 192.07486
-40.997643 -4.681602 189.72876
-44.737038 -8.768776 187.7653
-48.18421 -12.753105 186.2327
-51.284843 -16.887032 184.34186
-54.33956 -21.107124 183.17776
-57.50907 -25.105553 182.982
-61.078163 -28.897865 182.59319
-65.1038 -32.32453 181.25883
-65.10379 -32.32453 181.25883
-69.147835 -34.81112 179.18217
-73.05054 -36.072426 176.9543
-73.05054 -36.07241 176.95432
-77.02727 -36.396202 174.47304
-80.902214 -36.52369 170.86041
-80.90221 -36.52369 170.86041
-84.08169 -36.663002 166.4076
-87.25174 -36.760735 162.10225
-87.251724 -36.76072 162.10226
-91.13174 -37.253365 158.88583
-95.93893 -38.250465 157.5736
-101.31061 -39.212196 157.75664
-106.42928 -39.046715 158.11217
-106.429276 -39.04673 158.11218
-110.42603 -36.97805 158.3702
-113.62572 -32.91578 158.7769
-113.625694 -32.91578 158.77692
-12.336891 3.385658 224.9371
-14.510262 8.538094 223.19496
-16.353142 9.57119 220.35352
-17.881218 10.266594 216.92848
-20.162605 10.469215 212.41629
-22.94999 9.937401 207.0964
-25.982018 8.530312 201.80186
-29.460442 6.107582 197.34895
-33.197197 2.910942 193.84769
-36.873787 -0.557899 190.9726
-40.543373 -4.372627 188.59622
-44.34919 -8.510536 186.54836
-47.885246 -12.492119 185.00467
-50.900276 -16.692116 183.21352
-54.067497 -20.962502 182.08562
-57.564827 -24.887978 181.90976
-61.278755 -28.557991 181.58667
-65.15911 -31.907906 180.31996
-65.1591 -31.907906 180.31998
-68.98129 -34.365135 178.33435
-72.74838 -35.64097 176.22874
-72.748375 -35.640953 176.22876
-76.6509 -36.03324 173.88469
-80.4622 -36.26963 170.4375
-80.46219 -36.269615 170.43752
-83.66114 -36.48104 166.11775
-86.9243 -36.610817 161.84203
-86.92429 -36.610817 161.84204
-90.94902 -37.121056 158.60034
-95.90544 -38.1341 157.26929
-95.90544 -38.1341 157.26927
-101.344505 -39.120033 157.44684
-106.43877 -38.98432 157.8266
-106.43876 -38.984337 157.8266
-110.39887 -36.931114 158.15677
-113.58123 -32.861702 158.62263
-113.581215 -32.861702 158.62265
-12.336891 3.385674 224.9371
-14.510246 8.538094 223.19496
-13.356407 8.384026 222.50528
-16.353127 9.57119 220.35353
-15.079536 9.33503 219.74184
-17.881187 10.266609 216.92853
-16.665077 10.100792 216.31433
-17.881187 10.266594 216.92851
-16.665092 10.100792 216.31433
-20.16259 10.469231 212.4163
-19.061195 10.483269 211.76292
-22.949959 9.937416 207.09642
-21.87075 10.009941 206.48955
-25.982002 8.530327 201.80186
-24.897774 8.529091 201.18243
-29.460442 6.107597 197.34897
-28.439903 6.057793 196.57089
-33.19718 2.910942 193.8477
-32.26249 2.857094 192.92233
-36.873787 -0.557884 190.97261
-36.013252 -0.614235 189.97075
-40.543358 -4.372612 188.59624
-39.77099 -4.419456 187.54037
-44.34916 -8.510521 186.54836
-43.60639 -8.592628 185.42467
-47.88523 -12.492119 185.00467
-47.187813 -12.61274 183.87326
-50.90026 -16.6921 183.21353
-50.17208 -16.845482 182.22827
-54.067482 -20.962502 182.08563
-53.44256 -21.1502 181.1434
-57.196632 -25.063683 180.88425
-61.27874 -28.557991 181.58667
-61.05738 -28.660332 180.526
-64.8613 -31.94973 179.32274
-65.159096 -31.907906 180.31998
-64.86129 -31.94973 179.32275
-68.981285 -34.365135 178.33437
-68.55684 -34.41442 177.45258
-72.74837 -35.640953 176.22876
-72.31523 -35.70452 175.44418
-76.650894 -36.03324 173.8847
-76.22122 -36.051064 173.19395
-80.4622 -36.26963 170.43753
-79.968666 -36.267357 169.93831
-80.46218 -36.269615 170.43753
-79.96866 -36.267357 169.93831
-83.66114 -36.48104 166.11778
-83.19229 -36.486397 165.78383
-86.56247 -36.62713 161.54985
-86.924286 -36.6108 161.84206
-86.562454 -36.62713 161.54988
-90.94901 -37.12104 158.60034
-90.73421 -37.12777 158.27972
-95.90544 -38.134087 157.26929
-95.84661 -38.12342 156.91954
-95.90543 -38.134087 157.26927
-95.8466 -38.12342 156.91954
-101.34449 -39.120018 157.44684
-101.36857 -39.1157 157.09842
-106.43876 -38.984306 157.8266
-106.45628 -38.99256 157.52359
-106.43875 -38.98432 157.8266
-106.456276 -38.99256 157.52359
-110.39887 -36.9311 158.15678
-110.39378 -36.919823 157.92984
-113.58123 -32.861687 158.62265
-113.56437 -32.820778 158.44398
-113.58121 -32.86167 158.62267
-113.56435 -32.820778 158.444
-116.6063 -29.393929 158.25957
-116.6063 -29.393959 158.25955
-12.297798 7.810463 221.78793
-13.986946 8.682777 219.09665
-15.670937 9.538368 215.68954
-15.670952 9.538368 215.68953
-18.115715 10.115639 211.15393
-20.878838 9.679329 206.00473
-23.86982 8.097359 200.76588
-27.428322 5.60894 196.05101
-31.278404 2.453804 192.27948
-35.059944 -1.002342 189.25662
-38.88331 -4.757698 186.75954
-42.723442 -8.935158 184.60141
-46.3285 -12.995216 183.03703
-49.33236 -17.214195 181.51634
-52.699562 -21.518013 180.46384
-56.61756 -25.467186 180.10185
-60.576973 -29.069435 179.68552
-64.360146 -32.346764 178.54036
-64.36013 -32.346733 178.54036
-68.03891 -34.841637 176.77588
-71.89418 -36.138542 174.81912
-71.89418 -36.138527 174.81912
-75.85356 -36.378975 172.59091
-79.53423 -36.487724 169.48402
-79.534225 -36.487724 169.48402
-82.774216 -36.656685 165.47795
-86.23884 -36.779472 161.2843
-86.23882 -36.779457 161.28432
-90.52992 -37.248665 157.98396
-95.77549 -38.208 156.58589
-95.775475 -38.207985 156.58589
-101.379944 -39.19129 156.76636
-106.47957 -39.061058 157.2419
-106.47956 -39.061073 157.24188
-110.41175 -36.941 157.70758
-113.580185 -32.796608 158.25072
-113.58016 -32.796608 158.25073
-11.396767 7.023567 221.12589
-13.067879 7.876732 218.49109
-14.899559 8.790657 215.12741
-14.899574 8.790642 215.12743
-17.40258 9.494835 210.66246
-20.117699 9.089897 205.68669
-23.064568 7.454048 200.55627
-26.589867 4.979362 195.78209
-30.409142 1.881279 191.91829
-34.186058 -1.547325 188.83238
-38.037712 -5.247124 186.27148
-41.86274 -9.405403 184.08383
-45.485817 -13.482033 182.48615
-48.526268 -17.657051 181.032
-51.987404 -21.926384 179.98396
-56.02256 -25.916695 179.55228
-60.0438 -29.573067 179.12257
-63.836494 -32.87832 178.04198
-63.83648 -32.878304 178.04199
-67.56872 -35.40519 176.3567
-71.565956 -36.701088 174.41206
-71.56595 -36.701088 174.41206
-75.592575 -36.84498 172.15326
-79.20653 -36.833824 169.13208
-79.20652 -36.83384 169.1321
-82.45006 -36.924126 165.23442
-85.98383 -37.00347 161.0715
-85.983826 -37.003456 161.07152
-90.35855 -37.43049 157.74359
-95.70362 -38.352898 156.30864
-101.379745 -39.321404 156.48734
-106.506065 -39.17022 157.00484
-106.50605 -39.170235 157.00482
-110.453674 -36.98922 157.50534
-113.63388 -32.793724 158.05743
-113.633865 -32.793724 158.05745
-10.659538 6.151894 220.55092
-12.26371 7.027138 217.93239
-14.273232 7.975487 214.62717
-14.273247 7.975502 214.62717
-16.881477 8.738823 210.28117
-19.584053 8.362404 205.51149
-22.488869 6.724571 200.50816
-25.94123 4.281288 195.70717
-29.684914 1.234596 191.77965
-33.432228 -2.161629 188.64214
-37.27926 -5.811958 186.02629
-41.07087 -9.935921 183.81102
-44.70455 -14.008858 182.1579
-47.77662 -18.126945 180.71368
-51.325874 -22.338448 179.63846
-55.462822 -26.355263 179.1732
-59.533348 -30.082527 178.78299
-63.35546 -33.43731 177.77608
-63.35546 -33.43731 177.7761
-67.179405 -35.99128 176.1444
-71.33174 -37.28031 174.18362
-71.33175 -37.28031 174.18362
-75.4287 -37.358604 171.86731
-78.983315 -37.246162 168.88309
-78.98331 -37.246162 168.88309
-82.21999 -37.247307 165.05533
-85.79716 -37.266533 160.9124
-85.79714 -37.26655 160.91243
-90.2233 -37.648354 157.56406
-95.634995 -38.539986 156.10304
-95.63499 -38.539986 156.10304
-101.36897 -39.492287 156.27737
-106.533516 -39.309944 156.82272
-106.533516 -39.30996 156.82271
-110.518486 -37.0633 157.34328
-113.723694 -32.81742 157.89514
-113.72367 -32.81742 157.89514
-10.072548 5.248665 220.06479
-11.543236 6.140907 217.40921
-13.728737 7.131248 214.16547
-13.728737 7.131264 214.16547
-16.493935 7.925957 209.98079
-19.235481 7.578606 205.4435
-22.105186 5.969978 200.578
-25.456688 3.562157 195.77652
-29.093971 0.556419 191.81097
-32.79415 -2.809288 188.63727
-36.612785 -6.416893 185.97653
-40.35328 -10.496803 183.72911
-43.98159 -14.558342 182.00392
-47.068855 -18.619911 180.52635
-50.691917 -22.761803 179.39253
-54.92742 -26.784996 178.9131
-59.05552 -30.576683 178.59897
-62.92605 -33.986015 177.67262
-62.926033 -33.986 177.67262
-66.86103 -36.56231 176.07527
-71.168785 -37.84043 174.07921
-71.168785 -37.84043 174.07922
-75.3408 -37.881386 171.69925
-78.85169 -37.692543 168.72397
-78.851685 -37.69256 168.72397
-82.075005 -37.603676 164.93538
-85.672424 -37.55517 160.80283
-85.6724 -37.555153 160.80284
-90.122856 -37.89341 157.44527
-95.57087 -38.761086 155.97662
-95.57086 -38.761086 155.97664
-101.348015 -39.69712 156.14572
-106.560196 -39.47538 156.70123
-106.56019 -39.47538 156.70123
-110.59967 -37.1605 157.23695
-113.83653 -32.86561 157.78728
-113.83651 -32.86561 157.7873
-9.673531 4.329262 219.68903
-10.980949 5.201927 216.94717
-13.296608 6.254494 213.74663
-13.296593 6.254494 213.74664
-16.230568 7.085472 209.75127
-19.046227 6.779625 205.46228
-21.886024 5.220879 200.73956
-25.119942 2.844322 195.96416
-28.6325 -0.13282 191.98932
-32.273094 -3.472969 188.79837
-36.042747 -7.045433 186.1033
-39.711586 -11.077553 183.81894
-43.309517 -15.132561 182.01244
-46.392097 -19.148933 180.47694
-50.05468 -23.22393 179.24481
-54.381126 -27.233559 178.73714
-58.594337 -31.06408 178.51503
-62.53913 -34.517754 177.67923
-62.539116 -34.51774 177.67924
-66.597595 -37.111046 176.10501
-71.05721 -38.375053 174.06065
-71.0572 -38.375053 174.06065
-75.314606 -38.39759 171.62614
-78.804 -38.155632 168.64645
-78.80399 -38.155617 168.64647
-82.01068 -37.98101 164.87187
-85.60805 -37.862984 160.74211
-85.60804 -37.862984 160.74213
-90.0589 -38.159615 157.38994
-95.51394 -39.006935 155.9338
-95.51393 -39.006935 155.9338
-101.31811 -39.92753 156.09706
-106.58476 -39.66134 156.64473
-106.584755 -39.66134 156.64471
-110.68895 -37.274315 157.18921
-113.9579 -32.93003 157.73335
-113.95788 -32.93003 157.73338
-9.611687 3.278206 219.4866
-10.980949 5.201942 216.94717
-10.793922 4.080269 216.60454
-13.296608 6.254494 213.74664
-13.131889 5.205803 213.39116
-13.296593 6.254509 213.74664
-13.131889 5.205788 213.39116
-16.230568 7.085487 209.75127
-16.153465 6.10659 209.60376
-19.046227 6.77964 205.46227
-19.021095 5.886955 205.58208
-21.886024 5.220894 200.73956
-21.821861 4.408257 201.01524
-25.119942 2.844337 195.96414
-24.921822 2.060127 196.30775
-28.6325 -0.132835 191.9893
-28.290916 -0.897514 192.36703
-31.855034 -4.21357 189.18211
-35.54354 -7.757912 186.46211
-39.711586 -11.077553 183.81895
-39.105278 -11.741035 184.14182
-42.63334 -15.806847 182.24945
-45.697792 -19.79525 180.65283
-50.05468 -23.22393 179.24483
-49.32647 -23.820732 179.251
-53.709923 -27.803673 178.63618
-58.594353 -31.064095 178.51503
-58.0608 -31.635231 178.50027
-62.13331 -35.1119 177.78285
-62.133293 -35.11187 177.78287
-66.597595 -37.11106 176.10501
-66.34976 -37.715797 176.23157
-71.057205 -38.375053 174.06065
-70.97828 -38.960365 174.12228
-71.0572 -38.37507 174.06065
-70.978264 -38.960365 174.1223
-75.314606 -38.39759 171.62616
-75.351326 -38.963158 171.64702
-78.847534 -38.67521 168.654
-78.84753 -38.675194 168.654
-82.01068 -37.98101 164.87186
-82.03514 -38.41172 164.86897
-85.60804 -37.863 160.74211
-85.61272 -38.218758 160.73708
-85.60803 -37.862984 160.74214
-85.6127 -38.218742 160.73709
-90.0589 -38.15963 157.38995
-90.03776 -38.466667 157.40955
-95.51395 -39.00695 155.93382
-95.466095 -39.286873 155.982
-95.51393 -39.00695 155.9338
-95.46608 -39.286873 155.98198
-101.3181 -39.92753 156.09706
-101.278534 -40.19207 156.13617
-106.584755 -39.66134 156.64473
-106.607346 -39.877525 156.6607
-106.607346 -39.87754 156.66069
-110.786705 -37.406548 157.19818
-114.090614 -33.009483 157.72108
-113.95788 -32.930016 157.73337
-114.09059 -33.009483 157.7211
POLYGONS 1368 5472
3 0 1 2
3 0 2 3
3 3 2 4
3 3 4 5
3 5 4 6
3 7 8 9
3 9 8 10
3 9 10 11
3 11 10 12
3 11 12 13
3 13 12 14
3 13 14 15
3 15 14 16
3 15 16 17
3 17 16 18
3 17 18 19
3 19 18 20
3 19 20 21
3 21 20 22
3 21 22 23
3 23 22 24
3 23 24 25
3 25 24 26
3 25 26 27
3 27 26 28
3 27 28 29
3 29 28 30
3 29 30 31
3 31 30 32
3 31 32 33
3 33 32 34
3 33 34 35
3 35 34 36
3 37 38 39
3 39 38 40
3 39 40 41
3 41 40 42
3 41 43 44
3 44 43 45
3 44 45 46
3 46 45 47
3 48 49 50
3 50 49 51
3 50 51 52
3 52 51 53
3 54 55 56
3 56 55 57
3 56 57 58
3 58 57 59
3 60 61 62
3 62 61 63
3 62 63 64
3 64 63 65
3 66 67 68
3 68 67 69
3 68 69 70
3 70 69 71
3 72 73 74
3 2 75 76
3 2 76 4
3 4 76 77
3 4 77 6
3 6 77 78
3 8 79 10
3 10 79 80
3 10 80 12
3 12 80 81
3 12 81 14
3 14 81 82
3 14 82 16
3 16 82 83
3 16 83 18
3 18 83 84
3 18 84 20
3 20 84 85
3 20 85 22
3 22 85 86
3 22 86 24
3 24 86 87
3 24 87 26
3 26 87 88
3 26 88 28
3 28 88 89
3 28 89 30
3 30 89 90
3 30 90 32
3 32 90 91
3 32 91 34
3 34 91 92
3 34 92 36
3 36 92 93
3 38 94 40
3 40 94 95
3 40 95 42
3 42 95 96
3 43 97 45
3 45 97 98
3 45 98 47
3 47 98 99
3 49 100 51
3 51 100 101
3 51 101 53
3 53 101 102
3 55 103 57
3 57 103 104
3 57 104 59
3 59 104 105
3 61 106 63
3 63 106 107
3 63 107 65
3 65 107 108
3 67 109 69
3 69 109 110
3 69 110 71
3 71 110 111
3 73 112 113
3 113 112 114
3 75 1 76
3 76 1 115
3 76 115 77
3 77 115 116
3 77 116 78
3 78 116 117
3 79 118 80
3 80 118 119
3 80 119 81
3 81 119 120
3 81 120 82
3 82 120 121
3 82 121 83
3 83 121 122
3 83 122 84
3 84 122 123
3 84 123 85
3 85 123 124
3 85 124 86
3 86 124 125
3 86 125 87
3 87 125 126
3 87 126 88
3 88 126 127
3 88 127 89
3 89 127 128
3 89 128 90
3 90 128 129
3 90 129 91
3 91 129 130
3 91 130 92
3 92 130 131
3 92 131 93
3 93 131 132
3 94 133 95
3 95 133 134
3 95 134 96
3 96 134 135
3 97 136 98
3 98 136 137
3 98 137 99
3 99 137 138
3 100 138 101
3 101 138 139
3 101 139 102
3 102 139 140
3 103 141 104
3 104 141 142
3 104 142 105
3 105 142 143
3 106 144 107
3 107 144 145
3 107 145 108
3 108 145 146
3 109 147 110
3 110 147 148
3 110 148 111
3 111 148 149
3 112 150 114
3 114 150 74
3 1 151 115
3 115 151 152
3 115 152 116
3 116 152 153
3 116 153 117
3 117 153 154
3 118 155 119
3 119 155 156
3 119 156 120
3 120 156 157
3 120 157 121
3 121 157 158
3 121 158 122
3 122 158 159
3 122 159 123
3 123 159 160
3 123 160 124
3 124 160 161
3 124 161 125
3 125 161 162
3 125 162 126
3 126 162 163
3 126 163 127
3 127 163 164
3 127 164 128
3 128 164 165
3 128 165 129
3 129 165 166
3 129 166 130
3 130 166 167
3 130 167 131
3 131 167 168
3 131 168 132
3 132 168 169
3 133 170 134
3 134 170 171
3 134 171 135
3 135 171 172
3 136 173 137
3 137 173 174
3 137 174 138
3 138 174 175
3 138 176 139
3 139 176 177
3 139 177 140
3 140 177 178
3 141 179 142
3 142 179 180
3 142 180 143
3 143 180 181
3 144 182 145
3 145 182 183
3 145 183 146
3 146 183 184
3 147 185 148
3 148 185 186
3 148 186 149
3 149 186 187
3 150 188 74
3 151 1 152
3 152 1 189
3 152 189 153
3 153 189 190
3 153 190 154
3 154 190 191
3 155 192 156
3 156 192 193
3 156 193 157
3 157 193 194
3 157 194 158
3 158 194 195
3 158 195 159
3 159 195 196
3 159 196 160
3 160 196 197
3 160 197 161
3 161 197 198
3 161 198 162
3 162 198 199
3 162 199 163
3 163 199 200
3 163 200 164
3 164 200 201
3 164 201 165
3 165 201 202
3 165 202 166
3 166 202 203
3 166 203 167
3 167 203 204
3 167 204 168
3 168 204 205
3 168 205 169
3 169 205 206
3 170 207 171
3 171 207 208
3 171 208 172
3 172 208 209
3 173 210 174
3 174 210 211
3 174 211 175
3 175 211 212
3 176 213 177
3 177 213 214
3 177 214 178
3 178 214 215
3 179 216 180
3 180 216 217
3 180 217 181
3 181 217 218
3 182 219 183
3 183 219 220
3 183 220 184
3 184 220 221
3 185 222 186
3 186 222 223
3 186 223 187
3 187 223 224
3 188 225 74
3 74 225 113
3 226 227 228
3 228 227 229
3 228 229 230
3 230 229 231
3 230 231 232
3 232 231 233
3 232 233 234
3 234 233 235
3 234 235 236
3 236 235 237
3 236 237 238
3 238 237 239
3 238 239 196
3 196 239 240
3 196 240 241
3 241 240 242
3 241 242 243
3 243 242 244
3 243 244 245
3 245 244 246
3 245 246 247
3 247 246 248
3 247 248 201
3 201 248 249
3 201 249 202
3 202 249 250
3 202 250 203
3 203 250 251
3 203 251 252
3 252 251 253
3 252 253 254
3 254 253 255
3 254 255 206
3 206 255 256
3 257 258 259
3 259 258 260
3 259 260 261
3 261 260 262
3 263 262 264
3 264 262 265
3 264 265 213
3 213 265 266
3 267 268 269
3 269 268 270
3 269 270 271
3 271 270 272
3 216 273 217
3 217 273 274
3 217 274 275
3 275 274 276
3 277 278 279
3 279 278 280
3 279 280 281
3 281 280 282
3 222 283 223
3 223 283 284
3 223 284 285
3 285 284 286
3 287 288 289
3 289 288 74
3 227 1 229
3 229 1 290
3 229 290 231
3 231 290 291
3 231 291 233
3 233 291 292
3 233 293 235
3 235 293 294
3 235 294 237
3 237 294 295
3 237 295 239
3 239 295 296
3 239 296 240
3 240 296 297
3 240 297 242
3 242 297 298
3 242 298 244
3 244 298 299
3 244 299 246
3 246 299 300
3 246 300 248
3 248 300 301
3 248 301 249
3 249 301 302
3 249 302 250
3 250 302 303
3 250 303 251
3 251 303 304
3 251 304 253
3 253 304 305
3 253 305 255
3 255 305 306
3 255 306 256
3 256 306 307
3 258 308 260
3 260 308 309
3 260 309 262
3 262 309 310
3 262 310 265
3 265 310 311
3 265 311 266
3 266 311 312
3 268 313 270
3 270 313 314
3 270 314 272
3 272 314 315
3 273 316 274
3 274 316 317
3 274 317 276
3 276 317 318
3 278 319 280
3 280 319 320
3 280 320 282
3 282 320 321
3 283 322 284
3 284 322 323
3 284 323 286
3 286 323 324
3 288 325 74
3 74 325 326
3 1 75 290
3 290 75 327
3 290 327 291
3 291 327 328
3 291 328 292
3 292 328 329
3 293 330 294
3 294 330 331
3 294 331 295
3 295 331 332
3 295 332 296
3 296 332 333
3 296 333 297
3 297 333 334
3 297 334 298
3 298 334 335
3 298 335 299
3 299 335 336
3 299 336 300
3 300 336 337
3 300 337 301
3 301 337 338
3 301 338 302
3 302 338 339
3 302 339 303
3 303 339 340
3 303 340 304
3 304 340 341
3 304 341 305
3 305 341 342
3 305 342 306
3 306 342 343
3 306 343 307
3 307 343 344
3 308 345 309
3 309 345 346
3 309 346 310
3 310 346 347
3 310 348 311
3 311 348 349
3 311 349 312
3 312 349 350
3 313 351 314
3 314 351 352
3 314 352 315
3 315 352 353
3 316 354 317
3 317 354 355
3 317 355 318
3 318 355 356
3 319 357 320
3 320 357 358
3 320 358 321
3 321 358 359
3 322 360 323
3 323 360 361
3 323 361 324
3 324 361 362
3 325 363 326
3 326 363 364
3 365 366 367
3 367 366 368
3 367 368 369
3 369 368 370
3 369 370 371
3 371 370 372
3 373 374 375
3 375 374 376
3 375 376 377
3 377 376 378
3 377 378 379
3 379 378 380
3 379 380 381
3 381 380 382
3 381 382 383
3 383 382 384
3 383 384 385
3 385 384 386
3 385 386 387
3 387 386 388
3 387 388 389
3 389 388 390
3 389 390 391
3 391 390 392
3 391 392 393
3 393 392 394
3 393 394 395
3 395 394 396
3 395 396 397
3 397 396 398
3 397 398 399
3 399 398 400
3 399 400 401
3 401 400 402
3 403 404 405
3 405 404 406
3 405 406 407
3 407 406 408
3 409 410 411
3 411 410 412
3 411 412 413
3 413 412 414
3 415 416 417
3 417 416 418
3 417 418 419
3 419 418 420
3 421 422 423
3 423 422 424
3 423 424 425
3 425 424 426
3 427 428 429
3 429 428 430
3 429 430 431
3 431 430 432
3 431 433 434
3 434 433 435
3 434 435 436
3 436 435 437
3 438 439 440
3 440 439 326
3 366 441 368
3 368 441 442
3 368 442 370
3 370 442 443
3 370 443 372
3 372 443 444
3 374 445 376
3 376 445 446
3 376 446 378
3 378 446 447
3 378 447 380
3 380 447 448
3 380 448 382
3 382 448 449
3 382 449 384
3 384 449 450
3 384 450 386
3 386 450 451
3 386 451 388
3 388 451 452
3 388 452 390
3 390 452 453
3 390 453 392
3 392 453 454
3 392 454 394
3 394 454 455
3 394 455 396
3 396 455 456
3 396 456 398
3 398 456 457
3 398 457 400
3 400 457 458
3 400 458 402
3 402 458 459
3 404 460 406
3 406 460 461
3 406 461 408
3 408 461 462
3 410 463 412
3 412 463 464
3 412 464 414
3 414 464 465
3 416 466 418
3 418 466 467
3 418 467 420
3 420 467 468
3 422 469 424
3 424 469 470
3 424 470 426
3 426 470 471
3 428 472 430
3 430 472 473
3 430 473 432
3 432 473 474
3 433 475 435
3 435 475 476
3 435 476 437
3 437 476 477
3 439 478 326
3 326 478 479
3 441 365 442
3 442 365 480
3 442 480 443
3 443 480 481
3 443 481 444
3 444 481 482
3 445 483 446
3 446 483 484
3 446 484 447
3 447 484 485
3 447 485 448
3 448 485 486
3 448 486 449
3 449 486 487
3 449 487 450
3 450 487 488
3 450 488 451
3 451 488 489
3 451 489 452
3 452 489 490
3 452 490 453
3 453 490 491
3 453 491 454
3 454 491 492
3 454 492 455
3 455 492 493
3 455 493 456
3 456 493 494
3 456 494 457
3 457 494 495
3 457 495 458
3 458 495 496
3 458 496 459
3 459 496 497
3 460 498 461
3 461 498 499
3 461 499 462
3 462 499 500
3 463 501 464
3 464 501 502
3 464 502 465
3 465 502 503
3 466 504 467
3 467 504 505
3 467 505 468
3 468 505 506
3 469 507 470
3 470 507 508
3 470 508 471
3 471 508 509
3 472 510 473
3 473 510 511
3 473 511 474
3 474 511 512
3 475 513 476
3 476 513 514
3 476 514 477
3 477 514 515
3 478 516 479
3 479 516 440
3 441 517 480
3 480 517 518
3 480 518 519
3 519 518 520
3 519 520 482
3 482 520 521
3 482 522 523
3 523 522 524
3 523 524 525
3 525 524 526
3 525 526 527
3 527 526 528
3 527 528 529
3 529 528 530
3 529 530 531
3 531 530 532
3 531 532 489
3 489 532 533
3 489 533 490
3 490 533 534
3 490 534 491
3 491 534 535
3 491 535 536
3 536 535 537
3 536 537 538
3 538 537 539
3 538 539 540
3 540 539 541
3 540 541 542
3 542 541 543
3 542 543 496
3 496 543 544
3 496 544 545
3 545 544 546
3 498 547 499
3 499 547 548
3 499 548 549
3 549 548 550
3 501 551 552
3 552 551 553
3 552 553 503
3 503 553 554
3 504 555 505
3 505 555 556
3 505 556 557
3 557 556 558
3 507 559 560
3 560 559 561
3 560 561 562
3 562 561 563
3 564 565 511
3 511 565 566
3 511 566 512
3 512 566 567
3 512 568 569
3 569 568 570
3 569 570 571
3 571 570 572
3 516 573 440
3 440 573 74
3 518 517 574
3 518 574 520
3 520 574 575
3 520 575 521
3 521 575 576
3 522 577 524
3 524 577 578
3 524 578 526
3 526 578 579
3 526 579 528
3 528 579 580
3 528 580 530
3 530 580 581
3 530 581 532
3 532 581 582
3 532 582 533
3 533 582 583
3 533 583 534
3 534 583 584
3 534 584 535
3 535 584 585
3 535 585 537
3 537 585 586
3 537 586 539
3 539 586 587
3 539 587 541
3 541 587 588
3 541 588 543
3 543 588 589
3 543 589 544
3 544 589 590
3 544 590 546
3 546 590 591
3 547 592 548
3 548 592 593
3 548 593 550
3 550 593 594
3 551 595 553
3 553 595 596
3 553 596 554
3 554 596 597
3 555 598 556
3 556 598 599
3 556 599 558
3 558 599 600
3 559 601 561
3 561 601 602
3 561 602 563
3 563 602 603
3 565 604 566
3 566 604 605
3 566 605 567
3 567 605 606
3 568 607 570
3 570 607 608
3 570 608 572
3 572 608 609
3 573 610 74
3 74 610 611
3 517 151 574
3 574 151 612
3 574 612 575
3 575 612 613
3 575 613 576
3 576 613 614
3 577 614 578
3 578 614 615
3 578 615 579
3 579 615 616
3 579 616 580
3 580 616 617
3 580 617 581
3 581 617 618
3 581 618 582
3 582 618 619
3 582 619 583
3 583 619 620
3 583 620 584
3 584 620 621
3 584 621 585
3 585 621 622
3 585 622 586
3 586 622 623
3 586 623 587
3 587 623 624
3 587 624 588
3 588 624 625
3 588 625 589
3 589 625 626
3 589 626 590
3 590 626 627
3 590 627 591
3 591 627 628
3 592 629 593
3 593 629 630
3 593 630 594
3 594 630 631
3 595 632 596
3 596 632 633
3 596 633 597
3 597 633 634
3 598 635 599
3 599 635 636
3 599 636 600
3 600 636 637
3 601 638 602
3 602 638 639
3 602 639 603
3 603 639 640
3 604 640 605
3 605 640 641
3 605 641 606
3 606 641 642
3 607 643 608
3 608 643 644
3 608 644 609
3 609 644 645
3 610 646 611
3 611 646 74
3 151 647 612
3 612 647 648
3 612 648 613
3 613 648 649
3 613 649 614
3 614 649 650
3 614 650 615
3 615 650 651
3 615 651 616
3 616 651 652
3 616 652 617
3 617 652 653
3 617 653 618
3 618 653 654
3 618 654 619
3 619 654 655
3 619 655 620
3 620 655 656
3 620 656 621
3 621 656 657
3 621 657 622
3 622 657 658
3 622 658 623
3 623 658 659
3 623 659 624
3 624 659 660
3 624 660 625
3 625 660 661
3 625 661 626
3 626 661 662
3 626 662 627
3 627 662 663
3 627 663 628
3 628 663 664
3 629 665 630
3 630 665 666
3 630 666 631
3 631 666 667
3 632 668 633
3 633 668 669
3 633 669 634
3 634 669 670
3 635 671 636
3 636 671 672
3 636 672 637
3 637 672 673
3 638 674 639
3 639 674 675
3 639 675 640
3 640 675 676
3 640 677 641
3 641 677 678
3 641 678 642
3 642 678 679
3 643 680 644
3 644 680 681
3 644 681 645
3 645 681 682
3 646 683 74
3 684 441 685
3 685 441 686
3 685 686 687
3 687 686 688
3 687 688 689
3 689 688 690
3 691 692 693
3 693 692 694
3 693 694 695
3 695 694 696
3 695 696 697
3 697 696 698
3 697 698 699
3 699 698 700
3 699 700 701
3 701 700 702
3 701 702 703
3 703 702 704
3 703 704 705
3 705 704 706
3 705 706 707
3 707 706 708
3 707 708 709
3 709 708 710
3 709 710 711
3 711 710 712
3 711 712 713
3 713 712 714
3 713 714 662
3 662 714 715
3 662 715 716
3 716 715 717
3 716 717 665
3 665 717 718
3 719 720 721
3 721 720 722
3 721 722 723
3 723 722 724
3 723 724 725
3 725 724 726
3 725 726 727
3 727 726 728
3 729 730 731
3 731 730 732
3 731 732 673
3 673 732 733
3 734 735 736
3 736 735 737
3 736 737 738
3 738 737 739
3 740 741 742
3 742 741 743
3 742 743 744
3 744 743 745
3 746 747 748
3 748 747 749
3 748 749 750
3 750 749 751
3 752 753 754
3 754 753 755
3 686 1 756
3 686 756 688
3 688 756 757
3 688 757 690
3 690 757 758
3 692 759 694
3 694 759 760
3 694 760 696
3 696 760 761
3 696 761 698
3 698 761 762
3 698 762 700
3 700 762 763
3 700 763 702
3 702 763 764
3 702 764 704
3 704 764 765
3 704 765 706
3 706 765 766
3 706 766 708
3 708 766 767
3 708 767 710
3 710 767 768
3 710 768 712
3 712 768 769
3 712 769 714
3 714 769 770
3 714 770 715
3 715 770 771
3 715 771 717
3 717 771 772
3 717 772 718
3 718 772 773
3 720 774 722
3 722 774 775
3 722 775 724
3 724 775 776
3 724 777 726
3 726 777 778
3 726 778 728
3 728 778 779
3 730 780 732
3 732 780 781
3 732 781 733
3 733 781 782
3 735 783 737
3 737 783 784
3 737 784 739
3 739 784 785
3 741 786 743
3 743 786 787
3 743 787 745
3 745 787 788
3 747 789 749
3 749 789 790
3 749 790 751
3 751 790 791
3 753 792 755
3 755 792 74
3 756 441 793
3 756 793 757
3 757 793 794
3 757 794 758
3 758 794 795
3 759 796 760
3 760 796 797
3 760 797 761
3 761 797 798
3 761 798 762
3 762 798 799
3 762 799 763
3 763 799 800
3 763 800 764
3 764 800 801
3 764 801 765
3 765 801 802
3 765 802 766
3 766 802 803
3 766 803 767
3 767 803 804
3 767 804 768
3 768 804 805
3 768 805 769
3 769 805 806
3 769 806 770
3 770 806 807
3 770 807 771
3 771 807 808
3 771 808 772
3 772 808 809
3 772 809 773
3 773 809 810
3 774 811 775
3 775 811 812
3 775 812 776
3 776 812 813
3 777 814 778
3 778 814 815
3 778 815 779
3 779 815 816
3 780 817 781
3 781 817 818
3 781 818 782
3 782 818 819
3 783 820 784
3 784 820 821
3 784 821 785
3 785 821 822
3 786 822 787
3 787 822 823
3 787 823 788
3 788 823 824
3 789 825 790
3 790 825 826
3 790 826 791
3 791 826 827
3 792 828 74
3 74 828 326
3 793 1 829
3 793 829 794
3 794 829 830
3 794 830 795
3 795 830 831
3 796 832 797
3 797 832 833
3 797 833 798
3 798 833 834
3 798 834 799
3 799 834 835
3 799 835 800
3 800 835 836
3 800 836 801
3 801 836 837
3 801 837 802
3 802 837 838
3 802 838 803
3 803 838 839
3 803 839 804
3 804 839 840
3 804 840 805
3 805 840 841
3 805 841 806
3 806 841 842
3 806 842 807
3 807 842 843
3 807 843 808
3 808 843 844
3 808 844 809
3 809 844 845
3 809 845 810
3 810 845 846
3 811 847 812
3 812 847 848
3 812 848 813
3 813 848 849
3 814 850 815
3 815 850 851
3 815 851 816
3 816 851 852
3 817 853 818
3 818 853 854
3 818 854 819
3 819 854 855
3 820 856 821
3 821 856 857
3 821 857 822
3 822 857 858
3 822 859 823
3 823 859 860
3 823 860 824
3 824 860 861
3 825 862 826
3 826 862 863
3 826 863 827
3 827 863 864
3 828 865 326
3 829 1 866
3 829 866 830
3 830 866 867
3 830 867 831
3 831 867 868
3 832 869 833
3 833 869 870
3 833 870 834
3 834 870 871
3 834 871 835
3 835 871 872
3 835 872 836
3 836 872 873
3 836 873 837
3 837 873 874
3 837 874 838
3 838 874 875
3 838 875 839
3 839 875 876
3 839 876 840
3 840 876 877
3 840 877 841
3 841 877 878
3 841 878 842
3 842 878 879
3 842 879 843
3 843 879 880
3 843 880 844
3 844 880 881
3 844 881 845
3 845 881 882
3 845 882 846
3 846 882 883
3 847 884 848
3 848 884 885
3 848 885 849
3 849 885 886
3 850 887 851
3 851 887 888
3 851 888 852
3 852 888 889
3 853 890 854
3 854 890 891
3 854 891 855
3 855 891 892
3 856 893 857
3 857 893 894
3 857 894 858
3 858 894 895
3 859 896 860
3 860 896 897
3 860 897 861
3 861 897 898
3 862 899 863
3 863 899 900
3 863 900 864
3 864 900 901
3 865 902 74
3 74 902 113
3 1 441 866
3 866 441 903
3 866 903 867
3 867 903 904
3 867 904 868
3 868 904 905
3 869 906 870
3 870 906 907
3 870 907 871
3 871 907 908
3 871 908 872
3 872 908 909
3 872 909 873
3 873 909 910
3 873 910 874
3 874 910 911
3 874 911 875
3 875 911 912
3 875 912 876
3 876 912 913
3 876 913 877
3 877 913 914
3 877 914 878
3 878 914 915
3 878 915 879
3 879 915 916
3 879 916 880
3 880 916 917
3 880 917 881
3 881 917 918
3 881 918 882
3 882 918 919
3 882 919 883
3 883 919 920
3 884 921 885
3 885 921 922
3 885 922 886
3 886 922 923
3 887 924 888
3 888 924 925
3 888 925 889
3 889 925 926
3 890 927 891
3 891 927 928
3 891 928 892
3 892 928 929
3 893 930 894
3 894 930 931
3 894 931 895
3 895 931 932
3 896 933 897
3 897 933 934
3 897 934 898
3 898 934 935
3 899 936 900
3 900 936 937
3 900 937 901
3 901 937 938
3 902 939 113
3 113 939 479
3 903 441 940
3 903 940 941
3 941 940 942
3 941 942 943
3 943 942 944
3 945 946 947
3 947 946 948
3 947 948 949
3 949 948 950
3 949 950 951
3 951 950 952
3 951 952 953
3 953 952 954
3 953 954 955
3 955 954 956
3 955 956 912
3 912 956 957
3 912 957 913
3 913 957 958
3 913 958 959
3 959 958 960
3 959 960 915
3 915 960 961
3 915 961 916
3 916 961 962
3 916 962 963
3 963 962 964
3 963 964 918
3 918 964 965
3 918 965 966
3 966 965 967
3 966 967 920
3 920 967 968
3 921 969 970
3 970 969 971
3 970 971 972
3 972 971 973
3 974 975 976
3 976 975 977
3 976 977 926
3 926 977 978
3 927 979 980
3 980 979 981
3 980 981 982
3 982 981 983
3 984 985 986
3 986 985 987
3 986 987 988
3 988 987 989
3 990 991 992
3 992 991 993
3 992 993 994
3 994 993 995
3 936 996 937
3 937 996 997
3 937 997 938
3 938 997 998
3 999 1000 440
3 440 1000 755
3 441 1 940
3 940 1 0
3 940 0 942
3 942 0 3
3 942 3 944
3 944 3 5
3 946 7 948
3 948 7 9
3 948 9 950
3 950 9 11
3 950 11 952
3 952 11 13
3 952 13 954
3 954 13 15
3 954 15 956
3 956 15 17
3 956 17 957
3 957 17 19
3 957 19 958
3 958 19 21
3 958 21 960
3 960 21 23
3 960 23 961
3 961 23 25
3 961 25 962
3 962 25 27
3 962 27 964
3 964 27 29
3 964 29 965
3 965 29 31
3 965 31 967
3 967 31 33
3 967 33 968
3 968 33 35
3 969 37 971
3 971 37 39
3 971 39 973
3 973 39 41
3 975 41 977
3 977 41 44
3 977 44 978
3 978 44 46
3 979 48 981
3 981 48 50
3 981 50 983
3 983 50 52
3 985 54 987
3 987 54 56
3 987 56 989
3 989 56 58
3 991 60 993
3 993 60 62
3 993 62 995
3 995 62 64
3 996 66 997
3 997 66 68
3 997 68 998
3 998 68 70
3 1000 72 755
3 755 72 74
