# vtk DataFile Version 2.0
File written by itkPolyDataMeshIO
ASCII
DATASET POLYDATA
POINTS 999 float
-15.623802 4.668694 215.90744
-14.697701 4.842155 221.05386
-12.968849 5.499596 216.11273
-14.333168 1.891045 214.05898
-11.553795 2.816765 214.27202
-11.776192 -1.030983 211.52242
-9.108711 -0.171089 212.04472
-11.776176 -1.030968 211.52242
-8.767632 -4.172188 209.33424
-6.414787 -3.390541 210.31699
-6.136131 -7.227379 207.81339
-4.104454 -6.471016 209.08122
-3.909554 -10.239891 206.46194
-2.041832 -9.514351 207.68745
-2.113319 -13.403481 204.98033
-0.286751 -12.747902 205.89212
-0.659782 -16.878746 203.24065
1.133278 -16.311607 203.7523
0.614494 -20.504158 201.2504
2.333244 -19.975243 201.48178
1.686058 -23.83216 198.78038
3.398369 -23.235619 198.88164
2.545006 -26.769112 195.31146
4.551613 -26.050194 195.3104
3.35569 -30.231682 191.74963
5.664894 -29.514763 191.57915
3.98037 -34.28028 188.88934
6.363121 -33.631035 188.50116
4.291191 -38.6354 186.61658
6.528465 -38.05648 185.95526
4.241997 -43.223824 184.6449
6.200264 -42.724327 183.68701
3.898857 -48.003822 182.84406
5.551552 -47.579643 181.66083
3.444038 -52.77407 181.01508
4.869102 -52.373726 179.78622
3.444038 -52.774055 181.01508
4.869118 -52.37371 179.78622
2.959175 -57.300865 178.8641
4.221794 -56.874794 177.75447
2.262108 -61.570045 176.32304
3.314857 -61.13865 175.32635
2.262108 -61.570045 176.32306
1.094124 -65.69947 173.70436
1.877266 -65.300224 172.75073
-0.642143 -69.49497 171.183
-0.094795 -69.11649 170.2719
-0.642143 -69.494965 171.18301
-0.09478 -69.116486 170.2719
-2.991676 -72.774895 168.6614
-2.584099 -72.40934 167.83661
-5.838448 -75.65702 165.91537
-5.458397 -75.3047 165.16788
-5.838432 -75.65701 165.91537
-5.458397 -75.30469 165.16791
-8.686241 -78.527245 162.85577
-8.274025 -78.20166 162.18124
-10.976753 -81.665085 159.5258
-10.535515 -81.38983 158.97762
-10.976753 -81.665085 159.52582
-10.53553 -81.389824 158.97762
-12.474281 -85.03635 156.02788
-12.031029 -84.81695 155.64062
-13.277657 -88.34797 152.59192
-12.851357 -88.16467 152.33072
-13.277641 -88.34797 152.59192
-12.851357 -88.164665 152.33072
-13.685234 -91.149864 149.5426
-13.293251 -90.98027 149.34557
-14.489082 -93.60425 145.88211
-14.151833 -93.45011 145.712
-14.489052 -93.604225 145.88214
-14.151802 -93.45009 145.71204
-15.176216 -95.93504 142.30295
-14.697716 4.842155 221.05385
-11.535118 5.567192 216.79234
-10.067986 2.857048 215.0194
-7.765312 -0.165642 212.93738
-7.765327 -0.165627 212.93736
-5.345802 -3.410225 211.38536
-3.257866 -6.496452 210.22627
-1.265831 -9.539543 208.76895
0.527702 -12.770912 206.795
1.995613 -16.333412 204.44376
3.206306 -19.999367 202.0161
4.323341 -23.263756 199.32034
5.671745 -26.084114 195.75034
6.955696 -29.548576 192.03793
7.718224 -33.66166 188.89668
7.865501 -38.08378 186.18636
7.462959 -42.747902 183.70465
6.711723 -47.599663 181.49385
5.924828 -52.392647 179.53207
5.924828 -52.392616 179.53209
5.165627 -56.89492 177.49532
4.12104 -61.159035 175.04807
4.12104 -61.15902 175.04807
2.526344 -65.31906 172.41586
0.409599 -69.13433 169.8863
0.409615 -69.13432 169.88632
-2.187004 -72.42658 167.44489
-5.098335 -75.32132 164.80252
-5.09832 -75.321304 164.80252
-7.90699 -78.217026 161.86964
-10.172859 -81.40284 158.75574
-10.172859 -81.40283 158.75575
-11.699211 -84.827324 155.5182
-12.555916 -88.17334 152.27701
-12.555931 -88.17334 152.277
-13.030037 -90.98825 149.31354
-13.925255 -93.45271 145.66725
-13.925224 -93.452705 145.66728
-15.176216 -95.93505 142.30293
-10.494301 5.341454 217.69673
-9.021889 2.561882 215.99661
-6.880836 -0.484184 213.99948
-6.880836 -0.4842 213.99948
-4.729713 -3.734505 212.52054
-2.833824 -6.819252 211.36143
-0.879173 -9.850319 209.8304
0.984245 -13.051933 207.72316
2.531258 -16.578133 205.22298
3.782845 -20.230873 202.67596
4.974312 -23.525658 199.8944
6.485023 -26.399742 196.36433
7.894142 -29.86335 192.74144
8.718895 -33.94671 189.5932
8.895287 -38.337975 186.7555
8.493233 -42.9672 184.08678
7.713036 -47.78591 181.7026
6.86541 -52.568413 179.63625
6.86541 -52.568398 179.63628
6.010735 -57.081978 177.54802
4.852501 -61.348396 175.03197
3.13932 -65.49434 172.30475
0.908821 -69.30049 169.68857
0.908821 -69.300476 169.68857
-1.785271 -72.58706 167.20636
-4.737968 -75.47599 164.5719
-4.737953 -75.47598 164.57191
-7.548882 -78.359985 161.68681
-9.831734 -81.5237 158.65091
-9.831734 -81.52369 158.65092
-11.401863 -84.92364 155.49202
-12.30294 -88.253815 152.29958
-12.30294 -88.253815 152.29956
-12.809196 -91.06268 149.3424
-13.731133 -93.515205 145.66823
-13.731087 -93.51519 145.66826
-15.176216 -95.93504 142.30293
-9.750755 4.947029 218.69334
-8.306053 2.101402 217.02605
-6.325188 -0.956398 215.06743
-6.325188 -0.956413 215.06741
-4.417152 -4.200783 213.59767
-2.680443 -7.280235 212.3958
-0.741493 -10.293739 210.79156
1.203377 -13.452278 208.58658
2.838387 -16.920555 205.97556
4.139702 -20.542397 203.32414
5.407631 -23.875114 200.46837
7.044441 -26.820885 196.99323
8.540504 -30.283348 193.48505
9.418968 -34.327003 190.35931
9.644997 -38.6771 187.42833
9.281456 -43.259834 184.60857
8.513206 -48.0344 182.07755
7.634392 -52.802925 179.91032
7.634407 -52.802895 179.91034
6.704109 -57.33155 177.75314
5.458092 -61.601128 175.15123
5.458076 -61.601128 175.15123
3.660316 -65.72822 172.32086
1.345436 -69.52221 169.61023
1.345451 -69.5222 169.61023
-1.429436 -72.80119 167.07448
-4.420708 -75.68239 164.4376
-4.420708 -75.68238 164.43762
-7.23835 -78.550705 161.59149
-9.542519 -81.68491 158.61827
-9.542519 -81.684906 158.61827
-11.157784 -85.052155 155.51796
-12.101982 -88.36119 152.35828
-12.636421 -91.16202 149.39882
-13.571983 -93.60586 145.69449
-13.571938 -93.60585 145.69452
-15.176201 -95.935036 142.30296
-9.306145 4.454933 219.67467
-7.892967 1.559883 218.00513
-6.054817 -1.498848 216.04753
-6.054832 -1.498833 216.04755
-4.350243 -4.72924 214.54002
-2.735222 -7.801094 213.26819
-0.795021 -10.794563 211.5975
1.232887 -13.904152 209.32912
2.958458 -17.304115 206.64682
4.318642 -20.88543 203.91513
5.660225 -24.258461 200.99977
7.389091 -27.282845 197.5856
8.939552 -30.744026 194.20087
9.861931 -34.74421 191.1161
10.147926 -39.04914 188.12215
9.84597 -43.58082 185.18704
9.116768 -48.306984 182.53818
8.22924 -53.060173 180.28009
7.2425 -57.60534 178.0471
5.932854 -61.87835 175.35403
5.932854 -61.87835 175.35405
4.079918 -65.9848 172.4226
1.707008 -69.7654 169.61914
1.707008 -69.765396 169.61914
-1.131264 -73.0361 167.02516
-4.156395 -75.90879 164.37895
-4.15638 -75.90878 164.37898
-6.983284 -78.75993 161.56294
-9.310234 -81.8618 158.63728
-9.310234 -81.86179 158.6373
-10.968208 -85.19315 155.57755
-11.951424 -88.479004 152.43729
-11.951424 -88.479 152.43729
-12.509285 -91.271034 149.4699
-13.450935 -93.71057 145.73753
-13.450905 -93.710556 145.73758
-14.697701 4.842155 221.05385
-14.697701 4.842155 221.05388
-9.124794 3.906288 220.59802
-7.892952 1.559883 218.00514
-7.738091 0.974236 218.90651
-6.054817 -1.498848 216.04755
-6.022133 -2.07711 216.92123
-6.022133 -2.077095 216.92125
-4.350243 -4.72924 214.54004
-4.481621 -5.287651 215.34003
-2.735222 -7.801094 213.2682
-2.953865 -8.350349 213.97922
-0.795021 -10.794533 211.59752
-0.99894 -11.322563 212.2499
1.232887 -13.904137 209.32912
1.110268 -14.380409 209.94804
2.958458 -17.304115 206.64684
2.926094 -17.70742 207.23102
4.318642 -20.88543 203.91515
4.352394 -21.244179 204.44519
5.660225 -24.258461 200.99979
5.763863 -24.658867 201.48425
7.389091 -27.282845 197.58559
7.555565 -27.765373 198.1343
8.939552 -30.744026 194.20085
9.1334 -31.225243 194.87675
9.861946 -34.74421 191.1161
10.090874 -35.179985 191.84654
10.147926 -39.049126 188.12215
10.443459 -39.43772 188.81502
10.21978 -43.9161 185.79567
9.54998 -48.591713 183.05484
8.671715 -53.328896 180.71605
8.6717 -53.328896 180.71606
7.242516 -57.605324 178.0471
7.645073 -57.891304 178.40384
5.932854 -61.878334 175.35403
6.292488 -62.1679 175.61775
5.932869 -61.878334 175.35405
4.079918 -65.984795 172.42262
4.408943 -66.252785 172.58943
2.000191 -70.01943 169.69676
1.707024 -69.765396 169.61916
2.000206 -70.01942 169.69676
-0.886177 -73.28145 167.04225
-3.940559 -76.14526 164.38156
-3.940544 -76.14525 164.38156
-6.778404 -78.978455 161.58786
-9.310219 -81.86179 158.6373
-9.128624 -82.046555 158.69664
-9.310219 -81.861786 158.6373
-9.128624 -82.04655 158.69664
-10.968193 -85.19315 155.57756
-10.826286 -85.34042 155.6622
-11.951408 -88.479004 152.4373
-11.844398 -88.60205 152.53035
-11.844398 -88.60204 152.53033
-12.50927 -91.271034 149.46988
-12.421364 -91.38492 149.55072
-13.364815 -93.8228 145.79266
-13.45089 -93.710556 145.73756
-13.364784 -93.82279 145.79271
-15.176231 -95.93504 142.30296
-14.697701 4.842171 221.0539
-9.179436 3.31739 221.45363
-7.816536 0.35746 219.72543
-6.202812 -2.679604 217.68771
-6.202827 -2.679604 217.68771
-4.788872 -5.865379 216.00163
-3.316292 -8.917641 214.53603
-1.334816 -11.86779 212.75586
0.853004 -14.872139 210.44786
2.758171 -18.12307 207.72972
4.257362 -21.612297 204.91464
5.734734 -25.069344 201.9213
7.562767 -28.260048 198.63768
9.143806 -31.71859 195.50912
10.128105 -35.626778 192.54472
10.55233 -39.83613 189.49854
10.420708 -44.259804 186.4234
9.827492 -48.883583 183.61453
8.97419 -53.604378 181.20505
8.974205 -53.604347 181.20506
7.922737 -58.18447 178.81148
6.545998 -62.464775 175.93192
6.545998 -62.46476 175.93192
4.653938 -66.52751 172.81163
2.229454 -70.27985 169.83406
2.229454 -70.27984 169.83406
-0.690865 -73.53297 167.11777
-3.770088 -76.3877 164.43814
-3.770088 -76.387695 164.43816
-6.620415 -79.20249 161.65967
-8.994072 -82.23592 158.79083
-10.72831 -85.49139 155.76794
-11.777168 -88.72818 152.63464
-12.369148 -91.50168 149.63918
-13.310783 -93.93995 145.85751
-13.310738 -93.93993 145.85754
-15.176216 -95.935036 142.30295
-14.697701 4.84214 221.05386
-9.471779 2.686882 222.24228
-8.134209 -0.29319 220.46237
-6.603218 -3.309227 218.34682
-6.603233 -3.309227 218.3468
-5.277809 -6.465096 216.5236
-3.827751 -9.505547 214.93654
-1.807472 -12.432701 213.1134
0.456413 -15.38163 210.82733
2.448708 -18.554039 208.14317
4.025139 -21.994698 205.32559
5.564369 -25.495888 202.31361
7.401024 -28.774101 199.0994
8.959602 -32.23127 196.10335
9.962334 -36.09104 193.21758
10.46447 -40.250114 190.18083
10.440605 -44.616997 187.07944
9.943306 -49.186913 184.22708
9.132057 -53.890648 181.75656
9.132057 -53.890633 181.75656
8.071449 -58.489174 179.27837
6.690132 -62.773277 176.30362
6.690147 -62.773277 176.30362
4.812904 -66.813034 173.09538
2.393745 -70.550446 170.03638
2.393761 -70.55044 170.03639
-0.545952 -73.79434 167.25621
-3.645668 -76.63965 164.55272
-3.645653 -76.63963 164.55273
-6.510078 -79.43532 161.78204
-8.907692 -82.43275 158.9232
-8.907692 -82.43274 158.9232
-10.675636 -85.64828 155.8974
-11.751289 -88.85927 152.75221
-11.751274 -88.85926 152.75221
-12.354134 -91.623024 149.73685
-13.289452 -94.06305 145.9329
-13.289421 -94.063034 145.93294
-15.176216 -95.93505 142.30295
-14.697701 4.842171 221.05388
-14.697685 4.842171 221.05388
-9.471764 2.686897 222.24231
-10.019768 2.017509 222.95026
-8.134178 -0.29319 220.46242
-8.703255 -0.974098 221.10585
-6.603203 -3.309212 218.34685
-7.233086 -3.962349 218.88673
-6.603218 -3.309227 218.34683
-7.233086 -3.962334 218.88672
-5.277794 -6.46508 216.52362
-5.955238 -7.083244 216.89343
-3.827736 -9.505516 214.93655
-4.492928 -10.110481 215.16835
-1.807457 -12.432686 213.11342
-2.421196 -13.013817 213.31087
0.456429 -15.38163 210.82736
-0.084709 -15.905922 211.07635
2.448723 -18.554024 208.14319
1.989586 -18.999168 208.46396
4.025139 -21.994682 205.32562
3.643639 -22.392982 205.67377
5.564384 -25.495888 202.31363
5.239555 -25.941078 202.65823
7.401054 -28.774086 199.09943
7.054619 -29.310616 199.517
8.959633 -32.231255 196.10336
8.562706 -32.76629 196.65765
9.962349 -36.091026 193.21759
9.574791 -36.57551 193.8647
10.46447 -40.2501 190.18085
10.161842 -40.68215 190.86378
10.44062 -44.61698 187.07945
10.263329 -44.989784 187.7682
9.943336 -49.186897 184.2271
9.883263 -49.50347 184.899
9.132072 -53.890648 181.75658
9.132713 -54.189415 182.37785
9.132088 -53.890617 181.75659
9.132698 -54.1894 182.37787
8.071465 -58.489174 179.27838
8.080025 -58.80712 179.81125
6.690163 -62.773262 176.30362
6.715492 -63.095192 176.73915
6.690163 -62.773247 176.30363
4.81292 -66.81301 173.09538
4.878548 -67.11097 173.44708
2.393761 -70.55043 170.03638
2.487755 -70.83288 170.31024
2.393776 -70.55042 170.03639
2.487755 -70.83287 170.31026
-0.545937 -73.794334 167.25623
-0.455589 -74.06716 167.46367
-3.645653 -76.63965 164.55273
-3.571068 -76.90259 164.73093
-3.645638 -76.63963 164.55275
-3.571053 -76.90258 164.73096
-6.510078 -79.43531 161.78206
-6.451454 -79.6783 161.96005
-8.907677 -82.43274 158.92322
-8.873589 -82.63817 159.09761
-8.907692 -82.43273 158.92322
-10.675636 -85.64827 155.89742
-10.672188 -85.812004 156.05313
-11.751289 -88.85925 152.75223
-11.770348 -88.99604 152.88461
-11.751274 -88.85926 152.75223
-12.354118 -91.62301 149.73685
-12.379677 -91.74966 149.84482
-13.289436 -94.06304 145.9329
-13.304298 -94.192444 146.01987
-13.289406 -94.06303 145.93295
-13.304253 -94.19242 146.0199
-14.697685 4.842171 221.05386
-10.823784 1.342567 223.52698
-9.507454 -1.64933 221.61426
-8.069664 -4.603935 219.27109
-8.069679 -4.603951 219.27109
-6.793358 -7.686394 217.08257
-5.28286 -10.699715 215.20972
-3.149223 -13.579811 213.32887
-0.747856 -16.416649 211.1741
1.39875 -19.433937 208.66862
3.126854 -22.784386 205.93459
4.770546 -26.379112 202.93143
6.533394 -29.838478 199.86252
7.964378 -33.292732 197.13608
8.975578 -37.052223 194.44534
9.64994 -41.107246 191.50598
9.887688 -45.35656 188.44989
9.640266 -49.81495 185.59308
8.96656 -54.48336 183.03542
8.966545 -54.483345 183.03542
7.939415 -59.119957 180.38179
6.613335 -63.411964 177.21593
6.613319 -63.411964 177.21594
4.841255 -67.40414 173.84949
2.501472 -71.11079 170.64326
2.501472 -71.11078 170.64328
-0.428535 -74.335594 167.73167
-3.553825 -77.161316 164.9657
-3.553795 -77.1613 164.9657
-6.451134 -79.91738 162.18613
-8.897011 -82.84027 159.30594
-10.72123 -85.9731 156.22719
-11.836006 -89.13064 153.02461
-12.446678 -91.87429 149.95717
-13.358528 -94.32109 146.11443
-13.358482 -94.321075 146.11446
-11.84655 0.723763 223.89969
-10.499443 -2.259499 221.93018
-9.05912 -5.177345 219.45253
-9.05912 -5.17733 219.45255
-7.734032 -8.220894 217.0584
-6.140373 -11.220787 215.0399
-3.938759 -14.080147 213.1497
-1.486458 -16.86811 211.09842
0.716576 -19.818245 208.72742
2.509941 -23.130318 206.07346
4.187538 -26.766273 203.09866
5.869209 -30.305061 200.09428
7.200996 -33.75805 197.48349
8.200081 -37.473595 194.89545
8.955772 -41.482964 192.0402
9.328636 -45.680763 189.05714
9.218056 -50.09028 186.24402
8.631554 -54.743217 183.669
8.631554 -54.743187 183.669
7.647041 -59.396523 180.93832
6.379646 -63.691994 177.69191
6.379646 -63.69198 177.69191
4.693367 -67.66328 174.26888
2.424812 -71.35641 171.00946
2.424828 -71.3564 171.00948
-0.474312 -74.57284 168.04079
-3.601875 -77.39 165.24037
-3.60186 -77.38998 165.24037
-6.515602 -80.1287 162.4435
-8.981941 -83.01892 159.5316
-8.981926 -83.01891 159.53162
-10.823662 -86.1155 156.4046
-11.946892 -89.24963 153.15945
-11.946892 -89.249626 153.15944
-12.553062 -91.98447 150.06343
-13.452538 -94.43608 146.20839
-13.452507 -94.43607 146.20842
-15.176201 -95.93504 142.30295
-13.015694 0.225456 224.01048
-10.499443 -2.259499 221.93016
-11.613762 -2.74868 222.01064
-9.05912 -5.177345 219.45255
-10.134193 -5.63044 219.39937
-9.05912 -5.17733 219.45256
-10.134209 -5.630424 219.39937
-7.734032 -8.220909 217.05841
-8.709816 -8.637886 216.80502
-6.140358 -11.220787 215.0399
-7.001762 -11.625893 214.65495
-4.731102 -14.468971 212.77135
-2.247002 -17.21891 210.84087
0.716576 -19.818245 208.72743
-0.00901 -20.116508 208.62305
2.509941 -23.130318 206.07344
1.835396 -23.398125 206.06804
3.528969 -27.065819 203.13657
5.869209 -30.305077 200.0943
5.104698 -30.666054 200.18285
7.200996 -33.75805 197.4835
6.321571 -34.118034 197.6593
7.297279 -37.79963 195.16586
8.955772 -41.482964 192.04019
8.12104 -41.773705 192.41228
8.616524 -45.931618 189.53265
8.635933 -50.303307 186.7936
8.140678 -54.944252 184.22362
8.631554 -54.743187 183.66902
8.140678 -54.944237 184.22362
7.647041 -59.396507 180.93832
7.213844 -59.61045 181.4332
6.022285 -63.908607 178.1273
6.379646 -63.691963 177.69193
6.022285 -63.908592 178.12729
4.693367 -67.66327 174.26888
4.437416 -67.86376 174.67172
2.424828 -71.3564 171.00946
2.256126 -71.546425 171.38124
2.424843 -71.35639 171.00948
2.256126 -71.54642 171.38124
-0.595619 -74.756386 168.36879
-3.717049 -77.566895 165.53557
-3.60186 -77.389984 165.24037
-3.717018 -77.56688 165.53557
-6.515602 -80.12871 162.44351
-6.645241 -80.29219 162.71353
-8.981941 -83.01892 159.53162
-9.126762 -83.157135 159.75732
-9.126778 -83.15713 159.75732
-10.97567 -86.22566 156.5709
-11.946877 -89.24963 153.15945
-12.097771 -89.34166 153.27737
-11.946892 -89.24963 153.15944
-12.097786 -89.34166 153.27737
-12.553062 -91.984474 150.06342
-12.69355 -92.06969 150.15417
-13.452538 -94.43609 146.20839
-13.581978 -94.5252 146.29297
-13.452507 -94.43608 146.20842
-13.581947 -94.525185 146.29301
-15.176201 -95.93504 142.30296
-14.239906 -0.104546 223.83713
-12.777489 -3.077583 221.8402
-11.225243 -5.927498 219.10571
-11.225258 -5.927498 219.1057
-9.655968 -8.904274 216.33043
-7.808861 -11.882927 214.07231
-5.472755 -14.715446 212.21141
-2.978951 -17.441261 210.41162
-0.730736 -20.305397 208.35645
1.146339 -23.567375 205.91406
2.836281 -27.255089 203.03859
4.287575 -30.894142 200.11787
5.380989 -34.345528 197.64645
6.323341 -38.005653 195.23302
7.196953 -41.95742 192.59242
7.793953 -46.090126 189.84071
7.927696 -50.43792 187.20215
7.521751 -55.071297 184.6599
7.521767 -55.07128 184.65991
6.664223 -59.74563 181.83157
5.56118 -64.04546 178.49185
5.561195 -64.045456 178.49185
4.087059 -67.99044 175.0307
2.003716 -71.666534 171.73398
2.003716 -71.66653 171.734
-0.786766 -74.87239 168.69443
-3.893761 -77.678696 165.83224
-3.893745 -77.67868 165.83224
-6.833443 -80.39549 162.97856
-9.323723 -83.24446 159.96805
-9.323738 -83.24446 159.96806
-11.168694 -86.295265 156.71468
-12.2799 -89.39981 153.37007
-12.2799 -89.39981 153.37006
-12.859871 -92.123535 150.22289
-13.737968 -94.58024 146.36104
-13.737923 -94.58023 146.36108
-15.425163 -0.240379 223.3922
-13.916237 -3.223549 221.42734
-12.264351 -6.048393 218.58728
-10.513359 -9.001961 215.66173
-8.510902 -11.974281 213.32616
-6.117027 -14.802727 211.5028
-3.636513 -17.519997 209.83557
-1.403847 -20.372261 207.9428
0.4851 -23.627266 205.62027
2.15197 -27.322014 202.81017
3.467964 -30.9748 199.90265
4.436928 -34.42594 197.44492
5.337868 -38.07847 195.09189
6.239998 -42.022377 192.56873
6.91111 -46.14614 189.96162
7.136375 -50.485466 187.44388
6.812325 -55.116188 184.95044
6.031517 -59.793434 182.10844
5.024254 -64.09386 178.76285
3.66349 -68.035225 175.32356
1.682793 -71.709 172.0459
1.682793 -71.708984 172.04591
-1.036293 -74.91341 168.99768
-4.121422 -77.71822 166.11214
-4.121407 -77.71821 166.11217
-7.06884 -80.43202 163.22229
-9.56089 -83.27534 160.15079
-9.560875 -83.27534 160.15079
-11.391029 -86.319885 156.82698
-12.482155 -89.420395 153.43169
-12.48217 -89.42039 153.43169
-13.041801 -92.142586 150.26523
-13.90905 -94.59717 146.40758
-13.909019 -94.59715 146.40762
-14.697685 4.842186 221.05388
-16.485664 -0.17646 222.71457
-14.958351 -3.17791 220.79889
-13.187553 -5.985664 217.87599
-13.187569 -5.985649 217.87599
-11.229301 -8.924889 214.83998
-9.064766 -11.894341 212.46219
-6.624352 -14.72538 210.68904
-4.179237 -17.450203 209.14816
-1.987007 -20.313026 207.40762
-0.107735 -23.574226 205.205
1.517998 -27.262688 202.46564
2.696129 -30.903313 199.5508
3.547264 -34.354683 197.06758
4.401314 -38.013924 194.75171
5.308922 -41.96479 192.34317
6.022194 -46.096443 189.8884
6.310585 -50.443275 187.50438
6.056084 -55.076363 185.07784
5.354744 -59.75106 182.24721
4.444572 -64.05096 178.92386
4.444572 -64.05095 178.92387
3.192802 -67.99553 175.53249
1.313225 -71.67135 172.298
1.31324 -71.67134 172.29802
-1.328651 -74.87702 169.26004
-4.385872 -77.68315 166.35823
-4.385841 -77.68314 166.35823
-7.336891 -80.39962 163.42989
-9.823662 -83.247986 160.2944
-9.823647 -83.24797 160.2944
-11.629005 -86.29809 156.901
-12.692116 -89.402176 153.45856
-12.692131 -89.402176 153.45856
-13.228188 -92.12569 150.27867
-14.082909 -94.5755 146.42969
-14.082878 -94.57549 146.42973
-14.697685 4.842186 221.0539
-16.48568 -0.176445 222.71457
-17.352089 0.075554 221.86026
-14.958336 -3.177895 220.7989
-15.839333 -2.944542 219.99539
-13.187538 -5.985649 217.876
-13.938179 -5.743309 217.01572
-13.187553 -5.985634 217.876
-13.938179 -5.743324 217.01572
-11.75985 -8.677834 213.91562
-9.064766 -11.894325 212.4622
-9.436409 -11.648018 211.53348
-6.624352 -14.725365 210.68906
-6.963524 -14.488182 209.82004
-4.179237 -17.450188 209.14818
-4.573799 -17.236137 208.39148
-1.987007 -20.313011 207.40764
-2.444328 -20.131172 206.78362
-0.107719 -23.574211 205.20503
-0.595543 -23.411217 204.6935
1.518013 -27.262672 202.46567
0.973534 -27.080406 202.02588
2.696144 -30.903297 199.55081
2.019691 -30.683693 199.08354
3.547264 -34.354683 197.0676
2.766899 -34.135628 196.53705
3.57148 -37.81556 194.2327
4.461082 -41.78791 191.92894
6.022209 -46.096443 189.8884
5.181984 -45.943855 189.62502
6.310616 -50.44326 187.50438
5.501167 -50.313683 187.37941
6.056084 -55.076347 185.07784
5.2994 -54.954063 185.03378
5.299416 -54.95405 185.0338
5.354744 -59.751045 182.24722
4.675362 -59.620888 182.23894
4.444572 -64.05094 178.92389
3.857719 -63.919167 178.96472
4.444572 -64.05094 178.9239
3.857704 -63.91915 178.96472
3.192818 -67.99552 175.5325
2.70385 -67.873535 175.64441
1.31324 -71.67135 172.29803
0.917625 -71.55572 172.47462
0.917641 -71.55571 172.47461
-1.328651 -74.877014 169.26006
-1.646065 -74.76533 169.46521
-4.385841 -77.68315 166.35823
-4.671028 -77.575516 166.55516
-4.670998 -77.57551 166.55518
-7.336876 -80.39962 163.42989
-7.621239 -80.300156 163.58836
-9.823647 -83.24798 160.2944
-10.095924 -83.16389 160.38988
-9.823631 -83.24796 160.2944
-10.095909 -83.16387 160.3899
-11.62899 -86.29809 156.90102
-11.868004 -86.23105 156.93202
-12.692101 -89.40217 153.45857
-12.896828 -89.34615 153.44887
-12.896843 -89.34615 153.44885
-13.228172 -92.12567 150.27867
-13.407494 -92.07377 150.26231
-14.082909 -94.57549 146.4297
-14.247658 -94.517845 146.42651
-14.082863 -94.57548 146.42973
-14.247627 -94.51783 146.42656
-15.176186 -95.935036 142.30296
-17.97654 0.489037 220.8961
-16.507118 -2.540993 219.06973
-14.47187 -5.338127 216.06099
-14.471855 -5.338142 216.061
-12.074272 -8.277657 212.94646
-9.604881 -11.252159 210.59773
-7.115486 -14.107353 208.94969
-4.797508 -16.892494 207.61267
-2.748878 -19.838997 206.1098
-0.949181 -23.14898 204.1176
0.551292 -26.787117 201.51831
1.479424 -30.330223 198.53014
2.142876 -33.78312 195.8867
2.89843 -37.49633 193.56773
3.747826 -41.503258 191.35257
4.441536 -45.69828 189.18869
4.7575 -50.10514 187.07768
4.588585 -54.757225 184.82193
4.588585 -54.75721 184.82195
4.034981 -59.411415 182.08492
3.299568 -63.70707 178.88356
3.299568 -63.707054 178.88356
2.226616 -67.67724 175.65298
0.520271 -71.36965 172.56532
0.520287 -71.369644 172.56534
-1.968987 -74.5856 169.601
-4.959312 -77.402306 166.69122
-4.959297 -77.4023 166.69122
-7.904427 -80.14008 163.68835
-10.360985 -83.02855 160.43172
-10.360985 -83.028534 160.43173
-12.093391 -86.12319 156.91844
-13.08387 -89.256035 153.40344
-13.08387 -89.25603 153.40344
-13.568886 -91.99031 150.21732
-14.392921 -94.42944 146.39922
-14.392891 -94.429436 146.39925
-18.335106 1.023476 219.89658
-16.926842 -2.000221 218.08714
-14.761528 -4.801979 215.07692
-14.761513 -4.801979 215.07693
-12.159599 -7.755501 211.99673
-9.56617 -10.73745 209.7157
-7.076744 -13.612404 208.13445
-4.841621 -16.445808 206.8629
-2.885704 -19.458763 205.43115
-1.149178 -22.806694 203.51581
0.275627 -26.404076 200.977
1.106926 -29.868584 197.928
1.711708 -33.322746 195.16095
2.421806 -37.079445 192.80273
3.211891 -41.13154 190.65466
3.846092 -45.37754 188.6113
4.12574 -49.832756 186.62256
3.968193 -54.50016 184.45966
3.968208 -54.50013 184.45969
3.473747 -59.13784 181.79836
2.805336 -63.430046 178.68839
1.791481 -67.420876 175.56009
0.146736 -71.12662 172.56631
0.146736 -71.12661 172.56633
-2.276543 -74.35088 169.66025
-5.23214 -77.17606 166.75908
-5.232124 -77.176056 166.7591
-8.168221 -79.93101 163.72482
-10.601982 -82.8518 160.41846
-10.601997 -82.8518 160.41847
-12.290993 -85.98231 156.86218
-13.241615 -89.13834 153.32602
-13.241615 -89.13833 153.32602
-13.702385 -91.88134 150.14722
-14.510078 -94.318054 146.35107
-14.510048 -94.31804 146.35112
-18.432365 1.625435 218.9394
-17.088264 -1.373756 217.12497
-14.805 -4.185036 214.1388
-14.805 -4.18502 214.1388
-12.027504 -7.159706 211.13542
-9.339455 -10.151421 208.94862
-6.86512 -13.049065 207.43036
-4.716927 -15.937401 206.19551
-2.857979 -19.025902 204.7987
-1.193153 -22.416939 202.93579
0.155159 -25.967873 200.44585
0.916374 -29.342888 197.32689
1.489922 -32.798485 194.42116
2.161324 -36.6047 192.00409
2.879036 -40.708168 189.89827
3.428596 -45.012276 187.94843
3.644463 -49.522575 186.06139
3.477684 -54.20742 183.98708
3.477699 -54.207405 183.98708
3.027611 -58.8263 181.41206
2.407097 -63.1146 178.40353
2.407112 -63.1146 178.40352
1.427879 -67.12894 175.3812
-0.176689 -70.84988 172.48497
-0.176674 -70.84987 172.48499
-2.54673 -74.08359 169.64485
-5.470177 -76.918434 166.7593
-5.470146 -76.91842 166.7593
-8.394295 -79.69295 163.70027
-10.802711 -82.65055 160.35565
-10.802711 -82.65054 160.35567
-12.44825 -85.821884 156.771
-13.360588 -89.0043 153.22513
-13.800209 -91.75727 150.05943
-14.593559 -94.194595 146.28793
-14.593513 -94.19458 146.28798
-15.176201 -95.93505 142.30295
-18.294884 2.2425 218.0885
-17.002235 -0.718971 216.25752
-14.620094 -3.543785 213.31804
-14.620079 -3.543785 213.31804
-11.707253 -6.544502 210.42424
-8.959068 -9.54734 208.34843
-6.512505 -12.468468 206.88466
-4.448082 -15.413567 205.65736
-2.682625 -18.58097 204.26106
-1.092293 -22.01847 202.42645
0.185295 -25.522438 199.97101
0.906807 -28.806114 196.78009
1.476631 -32.26316 193.73439
2.118828 -36.119896 191.246
2.758827 -40.27587 189.15636
3.208656 -44.63926 187.26733
3.34153 -49.205833 185.4544
3.147789 -53.9085 183.45695
3.147789 -53.90847 183.45697
2.724846 -58.50814 180.97023
2.130791 -62.792473 178.06314
2.130806 -62.792473 178.06314
1.161034 -66.83081 175.14067
-0.426216 -70.56728 172.33664
-0.426201 -70.567276 172.33665
-2.759239 -73.81063 169.56357
-5.655647 -76.65535 166.69846
-5.655632 -76.65533 166.69847
-8.566277 -79.44984 163.62288
-10.949242 -82.44504 160.25381
-10.949257 -82.44503 160.25383
-12.555122 -85.658066 156.65646
-13.434029 -88.86741 153.11205
-13.434029 -88.86741 153.11206
-13.857231 -91.63058 149.9635
-14.640877 -94.07047 146.21687
-14.640831 -94.07045 146.2169
-14.697685 4.842155 221.05388
-17.956596 2.841759 217.37437
-16.691277 -0.075111 215.52727
-14.232689 -2.917 212.65446
-14.232704 -2.917015 212.65445
-11.22982 -5.946892 209.89464
-8.457161 -8.961464 207.93903
-6.048592 -11.905479 206.51868
-4.060051 -14.905724 205.27122
-2.379158 -18.150536 203.84325
-0.861015 -21.63485 202.01297
0.355522 -25.094078 199.5767
1.068245 -28.289879 196.31606
1.660515 -31.74836 193.13728
2.284126 -35.653725 190.57002
2.845894 -39.860176 188.47098
3.187508 -44.280556 186.60852
3.224174 -48.90119 184.83943
2.98835 -53.62101 182.90334
2.988365 -53.62101 182.90334
2.574684 -58.202187 180.50156
1.985298 -62.482674 177.69012
1.985298 -62.48266 177.69012
1.000786 -66.544106 174.85602
-0.591667 -70.295555 172.13382
-0.591667 -70.29555 172.13383
-2.905098 -73.548134 169.4249
-5.780891 -76.40233 166.58368
-5.780891 -76.40232 166.5837
-8.677376 -79.21603 163.50021
-11.036308 -82.2474 160.12108
-11.036293 -82.24739 160.1211
-12.608299 -85.50053 156.52655
-13.460289 -88.735794 152.99406
-13.460289 -88.7358 152.99408
-13.87249 -91.50877 149.8655
-14.65313 -93.952194 146.1424
-14.653099 -93.95217 146.14243
-15.176216 -95.935036 142.30296
-17.956596 2.841743 217.37437
-17.349129 3.491203 216.73166
-16.691277 -0.075127 215.52727
-16.093025 0.620506 214.8801
-14.232689 -2.917 212.65445
-13.577309 -2.24572 212.10481
-14.232689 -2.917015 212.65443
-13.577293 -2.24572 212.10481
-11.22982 -5.946877 209.89464
-10.527367 -5.311363 209.5201
-8.457161 -8.961449 207.93901
-7.768562 -8.339455 207.70688
-5.413322 -11.307899 206.3215
-4.060066 -14.905724 205.27122
-3.499565 -14.366936 205.02032
-1.906013 -17.696617 203.52077
-0.861015 -21.63485 202.01295
-0.47303 -21.235847 201.66774
0.355537 -25.094078 199.57669
0.685783 -24.64991 199.23557
1.068214 -28.289879 196.31606
1.421257 -27.754585 195.90205
1.660484 -31.74836 193.13727
2.065025 -31.214516 192.58698
2.284111 -35.653725 190.57
2.679756 -35.170296 189.92667
3.156609 -39.429085 187.79083
3.187508 -44.28054 186.60852
3.372643 -43.908607 185.92116
3.291679 -48.58535 184.16768
2.988335 -53.62101 182.90334
2.994591 -53.322914 182.28156
2.994606 -53.3229 182.28156
2.572289 -57.884956 179.96799
1.985298 -62.482674 177.69011
1.965248 -62.161446 177.2536
1.965248 -62.161446 177.25362
1.000786 -66.54411 174.856
0.939476 -66.24682 174.50282
-0.591667 -70.295555 172.1338
-0.682228 -70.013756 171.858
-0.591652 -70.29555 172.13382
-0.682213 -70.01375 171.858
-2.905098 -73.54814 169.4249
-2.992714 -73.27597 169.21527
-5.780891 -76.402336 166.58368
-5.853004 -76.13999 166.40344
-5.780891 -76.40233 166.5837
-5.852989 -76.139984 166.40346
-8.733528 -78.97359 163.32056
-11.036308 -82.24739 160.12108
-11.06797 -82.04243 159.94559
-11.036293 -82.24738 160.1211
-12.608299 -85.50052 156.52655
-12.60955 -85.337166 156.37038
-13.460304 -88.735794 152.99406
-13.439323 -88.59933 152.8616
-13.460304 -88.73579 152.99408
-13.439323 -88.599335 152.8616
-13.87249 -91.508766 149.8655
-13.845222 -91.382454 149.75752
-14.65313 -93.952194 146.14238
-14.62899 -93.82834 146.05685
-14.653099 -93.95217 146.14241
-14.62896 -93.82833 146.0569
POLYGONS 1372 5488
3 0 1 2
3 0 2 3
3 3 2 4
3 3 4 5
3 5 4 6
3 7 6 8
3 8 6 9
3 8 9 10
3 10 9 11
3 10 11 12
3 12 11 13
3 12 13 14
3 14 13 15
3 14 15 16
3 16 15 17
3 16 17 18
3 18 17 19
3 18 19 20
3 20 19 21
3 20 21 22
3 22 21 23
3 22 23 24
3 24 23 25
3 24 25 26
3 26 25 27
3 26 27 28
3 28 27 29
3 28 29 30
3 30 29 31
3 30 31 32
3 32 31 33
3 32 33 34
3 34 33 35
3 36 37 38
3 38 37 39
3 38 39 40
3 40 39 41
3 42 41 43
3 43 41 44
3 43 44 45
3 45 44 46
3 47 48 49
3 49 48 50
3 49 50 51
3 51 50 52
3 53 54 55
3 55 54 56
3 55 56 57
3 57 56 58
3 59 60 61
3 61 60 62
3 61 62 63
3 63 62 64
3 65 66 67
3 67 66 68
3 67 68 69
3 69 68 70
3 71 72 73
3 1 74 2
3 2 74 75
3 2 75 4
3 4 75 76
3 4 76 6
3 6 76 77
3 6 78 9
3 9 78 79
3 9 79 11
3 11 79 80
3 11 80 13
3 13 80 81
3 13 81 15
3 15 81 82
3 15 82 17
3 17 82 83
3 17 83 19
3 19 83 84
3 19 84 21
3 21 84 85
3 21 85 23
3 23 85 86
3 23 86 25
3 25 86 87
3 25 87 27
3 27 87 88
3 27 88 29
3 29 88 89
3 29 89 31
3 31 89 90
3 31 90 33
3 33 90 91
3 33 91 35
3 35 91 92
3 37 93 39
3 39 93 94
3 39 94 41
3 41 94 95
3 41 96 44
3 44 96 97
3 44 97 46
3 46 97 98
3 48 99 50
3 50 99 100
3 50 100 52
3 52 100 101
3 54 102 56
3 56 102 103
3 56 103 58
3 58 103 104
3 60 105 62
3 62 105 106
3 62 106 64
3 64 106 107
3 66 108 68
3 68 108 109
3 68 109 70
3 70 109 110
3 72 111 73
3 73 111 112
3 74 1 75
3 75 1 113
3 75 113 76
3 76 113 114
3 76 114 77
3 77 114 115
3 78 116 79
3 79 116 117
3 79 117 80
3 80 117 118
3 80 118 81
3 81 118 119
3 81 119 82
3 82 119 120
3 82 120 83
3 83 120 121
3 83 121 84
3 84 121 122
3 84 122 85
3 85 122 123
3 85 123 86
3 86 123 124
3 86 124 87
3 87 124 125
3 87 125 88
3 88 125 126
3 88 126 89
3 89 126 127
3 89 127 90
3 90 127 128
3 90 128 91
3 91 128 129
3 91 129 92
3 92 129 130
3 93 131 94
3 94 131 132
3 94 132 95
3 95 132 133
3 96 133 97
3 97 133 134
3 97 134 98
3 98 134 135
3 99 136 100
3 100 136 137
3 100 137 101
3 101 137 138
3 102 139 103
3 103 139 140
3 103 140 104
3 104 140 141
3 105 142 106
3 106 142 143
3 106 143 107
3 107 143 144
3 108 145 109
3 109 145 146
3 109 146 110
3 110 146 147
3 111 148 112
3 112 148 149
3 113 1 150
3 113 150 114
3 114 150 151
3 114 151 115
3 115 151 152
3 116 153 117
3 117 153 154
3 117 154 118
3 118 154 155
3 118 155 119
3 119 155 156
3 119 156 120
3 120 156 157
3 120 157 121
3 121 157 158
3 121 158 122
3 122 158 159
3 122 159 123
3 123 159 160
3 123 160 124
3 124 160 161
3 124 161 125
3 125 161 162
3 125 162 126
3 126 162 163
3 126 163 127
3 127 163 164
3 127 164 128
3 128 164 165
3 128 165 129
3 129 165 166
3 129 166 130
3 130 166 167
3 131 168 132
3 132 168 169
3 132 169 133
3 133 169 170
3 133 171 134
3 134 171 172
3 134 172 135
3 135 172 173
3 136 174 137
3 137 174 175
3 137 175 138
3 138 175 176
3 139 177 140
3 140 177 178
3 140 178 141
3 141 178 179
3 142 180 143
3 143 180 181
3 143 181 144
3 144 181 182
3 145 182 146
3 146 182 183
3 146 183 147
3 147 183 184
3 148 185 149
3 149 185 186
3 150 1 187
3 150 187 151
3 151 187 188
3 151 188 152
3 152 188 189
3 153 190 154
3 154 190 191
3 154 191 155
3 155 191 192
3 155 192 156
3 156 192 193
3 156 193 157
3 157 193 194
3 157 194 158
3 158 194 195
3 158 195 159
3 159 195 196
3 159 196 160
3 160 196 197
3 160 197 161
3 161 197 198
3 161 198 162
3 162 198 199
3 162 199 163
3 163 199 200
3 163 200 164
3 164 200 201
3 164 201 165
3 165 201 202
3 165 202 166
3 166 202 203
3 166 203 167
3 167 203 204
3 168 204 169
3 169 204 205
3 169 205 170
3 170 205 206
3 171 207 172
3 172 207 208
3 172 208 173
3 173 208 209
3 174 210 175
3 175 210 211
3 175 211 176
3 176 211 212
3 177 213 178
3 178 213 214
3 178 214 179
3 179 214 215
3 180 216 181
3 181 216 217
3 181 217 182
3 182 217 218
3 182 219 183
3 183 219 220
3 183 220 184
3 184 220 221
3 185 222 186
3 186 222 73
3 223 224 187
3 187 224 225
3 187 225 226
3 226 225 227
3 226 227 228
3 228 227 229
3 190 230 231
3 231 230 232
3 231 232 233
3 233 232 234
3 233 234 235
3 235 234 236
3 235 236 237
3 237 236 238
3 237 238 239
3 239 238 240
3 239 240 241
3 241 240 242
3 241 242 243
3 243 242 244
3 243 244 245
3 245 244 246
3 245 246 247
3 247 246 248
3 247 248 249
3 249 248 250
3 249 250 251
3 251 250 252
3 251 252 202
3 202 252 253
3 202 253 203
3 203 253 254
3 203 254 204
3 204 254 255
3 204 256 257
3 257 256 258
3 257 258 259
3 259 258 260
3 261 260 262
3 262 260 263
3 262 263 209
3 209 263 264
3 265 266 211
3 211 266 267
3 211 267 212
3 212 267 268
3 213 269 214
3 214 269 270
3 214 270 271
3 271 270 272
3 273 274 275
3 275 274 276
3 275 276 277
3 277 276 278
3 219 279 280
3 280 279 281
3 280 281 221
3 221 281 282
3 283 284 73
3 73 284 285
3 224 286 225
3 225 286 287
3 225 287 227
3 227 287 288
3 227 288 229
3 229 288 289
3 230 290 232
3 232 290 291
3 232 291 234
3 234 291 292
3 234 292 236
3 236 292 293
3 236 293 238
3 238 293 294
3 238 294 240
3 240 294 295
3 240 295 242
3 242 295 296
3 242 296 244
3 244 296 297
3 244 297 246
3 246 297 298
3 246 298 248
3 248 298 299
3 248 299 250
3 250 299 300
3 250 300 252
3 252 300 301
3 252 301 253
3 253 301 302
3 253 302 254
3 254 302 303
3 254 303 255
3 255 303 304
3 256 305 258
3 258 305 306
3 258 306 260
3 260 306 307
3 260 308 263
3 263 308 309
3 263 309 264
3 264 309 310
3 266 311 267
3 267 311 312
3 267 312 268
3 268 312 313
3 269 314 270
3 270 314 315
3 270 315 272
3 272 315 316
3 274 316 276
3 276 316 317
3 276 317 278
3 278 317 318
3 279 318 281
3 281 318 319
3 281 319 282
3 282 319 320
3 284 321 285
3 285 321 322
3 286 323 287
3 287 323 324
3 287 324 288
3 288 324 325
3 288 325 289
3 289 325 326
3 290 327 291
3 291 327 328
3 291 328 292
3 292 328 329
3 292 329 293
3 293 329 330
3 293 330 294
3 294 330 331
3 294 331 295
3 295 331 332
3 295 332 296
3 296 332 333
3 296 333 297
3 297 333 334
3 297 334 298
3 298 334 335
3 298 335 299
3 299 335 336
3 299 336 300
3 300 336 337
3 300 337 301
3 301 337 338
3 301 338 302
3 302 338 339
3 302 339 303
3 303 339 340
3 303 340 304
3 304 340 341
3 305 342 306
3 306 342 343
3 306 343 307
3 307 343 344
3 308 345 309
3 309 345 346
3 309 346 310
3 310 346 347
3 311 348 312
3 312 348 349
3 312 349 313
3 313 349 350
3 314 351 315
3 315 351 352
3 315 352 316
3 316 352 353
3 316 354 317
3 317 354 355
3 317 355 318
3 318 355 356
3 318 357 319
3 319 357 358
3 319 358 320
3 320 358 359
3 321 360 322
3 322 360 361
3 362 363 364
3 364 363 365
3 364 365 366
3 366 365 367
3 366 367 368
3 368 367 369
3 370 371 372
3 372 371 373
3 372 373 374
3 374 373 375
3 374 375 376
3 376 375 377
3 376 377 378
3 378 377 379
3 378 379 380
3 380 379 381
3 380 381 382
3 382 381 383
3 382 383 384
3 384 383 385
3 384 385 386
3 386 385 387
3 386 387 388
3 388 387 389
3 388 389 390
3 390 389 391
3 390 391 392
3 392 391 393
3 392 393 394
3 394 393 395
3 394 395 396
3 396 395 397
3 396 397 398
3 398 397 399
3 400 401 402
3 402 401 403
3 402 403 404
3 404 403 405
3 406 405 407
3 407 405 408
3 407 408 409
3 409 408 410
3 411 412 413
3 413 412 414
3 413 414 415
3 415 414 416
3 417 418 419
3 419 418 420
3 419 420 421
3 421 420 422
3 423 422 424
3 424 422 425
3 424 425 426
3 426 425 427
3 428 427 429
3 429 427 430
3 429 430 431
3 431 430 432
3 433 434 322
3 322 434 186
3 363 435 365
3 365 435 436
3 365 436 367
3 367 436 437
3 367 437 369
3 369 437 438
3 371 439 373
3 373 439 440
3 373 440 375
3 375 440 441
3 375 441 377
3 377 441 442
3 377 442 379
3 379 442 443
3 379 443 381
3 381 443 444
3 381 444 383
3 383 444 445
3 383 445 385
3 385 445 446
3 385 446 387
3 387 446 447
3 387 447 389
3 389 447 448
3 389 448 391
3 391 448 449
3 391 449 393
3 393 449 450
3 393 450 395
3 395 450 451
3 395 451 397
3 397 451 452
3 397 452 399
3 399 452 453
3 401 454 403
3 403 454 455
3 403 455 405
3 405 455 456
3 405 457 408
3 408 457 458
3 408 458 410
3 410 458 459
3 412 460 414
3 414 460 461
3 414 461 416
3 416 461 462
3 418 463 420
3 420 463 464
3 420 464 422
3 422 464 465
3 422 465 425
3 425 465 466
3 425 466 427
3 427 466 467
3 427 467 430
3 430 467 468
3 430 468 432
3 432 468 469
3 434 470 186
3 435 1 436
3 436 1 471
3 436 471 437
3 437 471 472
3 437 472 438
3 438 472 473
3 439 474 440
3 440 474 475
3 440 475 441
3 441 475 476
3 441 476 442
3 442 476 477
3 442 477 443
3 443 477 478
3 443 478 444
3 444 478 479
3 444 479 445
3 445 479 480
3 445 480 446
3 446 480 481
3 446 481 447
3 447 481 482
3 447 482 448
3 448 482 483
3 448 483 449
3 449 483 484
3 449 484 450
3 450 484 485
3 450 485 451
3 451 485 486
3 451 486 452
3 452 486 487
3 452 487 453
3 453 487 488
3 454 489 455
3 455 489 490
3 455 490 456
3 456 490 491
3 457 492 458
3 458 492 493
3 458 493 459
3 459 493 494
3 460 495 461
3 461 495 496
3 461 496 462
3 462 496 497
3 463 498 464
3 464 498 499
3 464 499 465
3 465 499 500
3 465 501 466
3 466 501 502
3 466 502 467
3 467 502 503
3 467 504 468
3 468 504 505
3 468 505 469
3 469 505 506
3 470 507 73
3 73 507 508
3 471 1 509
3 471 509 510
3 510 509 511
3 510 511 512
3 512 511 513
3 514 515 516
3 516 515 517
3 516 517 518
3 518 517 519
3 518 519 477
3 477 519 520
3 477 520 478
3 478 520 521
3 478 521 522
3 522 521 523
3 522 523 524
3 524 523 525
3 524 525 481
3 481 525 526
3 481 526 527
3 527 526 528
3 527 528 529
3 529 528 530
3 529 530 484
3 484 530 531
3 484 531 532
3 532 531 533
3 532 533 486
3 486 533 534
3 486 534 487
3 487 534 535
3 487 535 488
3 488 535 536
3 537 538 539
3 539 538 540
3 539 540 492
3 492 540 541
3 542 543 544
3 544 543 545
3 544 545 546
3 546 545 547
3 548 549 496
3 496 549 550
3 496 550 497
3 497 550 551
3 552 553 554
3 554 553 555
3 554 555 556
3 556 555 557
3 501 558 502
3 502 558 559
3 502 559 560
3 560 559 561
3 562 563 564
3 564 563 565
3 564 565 566
3 566 565 567
3 568 569 570
3 570 569 508
3 1 363 509
3 509 363 571
3 509 571 511
3 511 571 572
3 511 572 513
3 513 572 573
3 515 574 517
3 517 574 575
3 517 575 519
3 519 575 576
3 519 576 520
3 520 576 577
3 520 577 521
3 521 577 578
3 521 578 523
3 523 578 579
3 523 579 525
3 525 579 580
3 525 580 526
3 526 580 581
3 526 581 528
3 528 581 582
3 528 582 530
3 530 582 583
3 530 583 531
3 531 583 584
3 531 584 533
3 533 584 585
3 533 585 534
3 534 585 586
3 534 586 535
3 535 586 587
3 535 587 536
3 536 587 588
3 538 589 540
3 540 589 590
3 540 590 541
3 541 590 591
3 543 592 545
3 545 592 593
3 545 593 547
3 547 593 594
3 549 595 550
3 550 595 596
3 550 596 551
3 551 596 597
3 553 598 555
3 555 598 599
3 555 599 557
3 557 599 600
3 558 601 559
3 559 601 602
3 559 602 561
3 561 602 603
3 563 604 565
3 565 604 605
3 565 605 567
3 567 605 606
3 569 607 508
3 508 607 322
3 571 1 608
3 571 608 572
3 572 608 609
3 572 609 573
3 573 609 610
3 574 610 575
3 575 610 611
3 575 611 576
3 576 611 612
3 576 612 577
3 577 612 613
3 577 613 578
3 578 613 614
3 578 614 579
3 579 614 615
3 579 615 580
3 580 615 616
3 580 616 581
3 581 616 617
3 581 617 582
3 582 617 618
3 582 618 583
3 583 618 619
3 583 619 584
3 584 619 620
3 584 620 585
3 585 620 621
3 585 621 586
3 586 621 622
3 586 622 587
3 587 622 623
3 587 623 588
3 588 623 624
3 589 624 590
3 590 624 625
3 590 625 591
3 591 625 626
3 592 626 593
3 593 626 627
3 593 627 594
3 594 627 628
3 595 629 596
3 596 629 630
3 596 630 597
3 597 630 631
3 598 632 599
3 599 632 633
3 599 633 600
3 600 633 634
3 601 635 602
3 602 635 636
3 602 636 603
3 603 636 637
3 604 638 605
3 605 638 639
3 605 639 606
3 606 639 640
3 607 641 322
3 322 641 73
3 1 642 608
3 608 642 643
3 608 643 609
3 609 643 644
3 609 644 610
3 610 644 645
3 610 646 611
3 611 646 647
3 611 647 612
3 612 647 648
3 612 648 613
3 613 648 649
3 613 649 614
3 614 649 650
3 614 650 615
3 615 650 651
3 615 651 616
3 616 651 652
3 616 652 617
3 617 652 653
3 617 653 618
3 618 653 654
3 618 654 619
3 619 654 655
3 619 655 620
3 620 655 656
3 620 656 621
3 621 656 657
3 621 657 622
3 622 657 658
3 622 658 623
3 623 658 659
3 623 659 624
3 624 659 660
3 624 660 625
3 625 660 661
3 625 661 626
3 626 661 662
3 626 663 627
3 627 663 664
3 627 664 628
3 628 664 665
3 629 666 630
3 630 666 667
3 630 667 631
3 631 667 668
3 632 669 633
3 633 669 670
3 633 670 634
3 634 670 671
3 635 672 636
3 636 672 673
3 636 673 637
3 637 673 674
3 638 675 639
3 639 675 676
3 639 676 640
3 640 676 677
3 641 678 73
3 73 678 570
3 679 1 680
3 680 1 681
3 680 681 682
3 682 681 683
3 682 683 684
3 684 683 685
3 686 687 647
3 647 687 688
3 647 688 689
3 689 688 690
3 689 690 691
3 691 690 692
3 691 692 693
3 693 692 694
3 693 694 695
3 695 694 696
3 695 696 697
3 697 696 698
3 697 698 699
3 699 698 700
3 699 700 701
3 701 700 702
3 701 702 703
3 703 702 704
3 703 704 656
3 656 704 705
3 656 705 657
3 657 705 706
3 657 706 707
3 707 706 708
3 707 708 709
3 709 708 710
3 709 710 711
3 711 710 712
3 711 713 714
3 714 713 715
3 714 715 716
3 716 715 717
3 718 719 720
3 720 719 721
3 720 721 722
3 722 721 723
3 666 724 725
3 725 724 726
3 725 726 727
3 727 726 728
3 669 729 730
3 730 729 731
3 730 731 732
3 732 731 733
3 734 735 736
3 736 735 737
3 736 737 738
3 738 737 739
3 738 740 741
3 741 740 742
3 741 742 743
3 743 742 744
3 745 746 747
3 747 746 508
3 1 323 681
3 681 323 748
3 681 748 683
3 683 748 749
3 683 749 685
3 685 749 750
3 687 751 688
3 688 751 752
3 688 752 690
3 690 752 753
3 690 753 692
3 692 753 754
3 692 754 694
3 694 754 755
3 694 755 696
3 696 755 756
3 696 756 698
3 698 756 757
3 698 757 700
3 700 757 758
3 700 758 702
3 702 758 759
3 702 759 704
3 704 759 760
3 704 760 705
3 705 760 761
3 705 761 706
3 706 761 762
3 706 762 708
3 708 762 763
3 708 763 710
3 710 763 764
3 710 764 712
3 712 764 765
3 713 766 715
3 715 766 767
3 715 767 717
3 717 767 768
3 719 769 721
3 721 769 770
3 721 770 723
3 723 770 771
3 724 772 726
3 726 772 773
3 726 773 728
3 728 773 774
3 729 775 731
3 731 775 776
3 731 776 733
3 733 776 777
3 735 778 737
3 737 778 779
3 737 779 739
3 739 779 780
3 740 781 742
3 742 781 782
3 742 782 744
3 744 782 783
3 746 784 508
3 508 784 73
3 323 363 748
3 748 363 785
3 748 785 749
3 749 785 786
3 749 786 750
3 750 786 787
3 751 788 752
3 752 788 789
3 752 789 753
3 753 789 790
3 753 790 754
3 754 790 791
3 754 791 755
3 755 791 792
3 755 792 756
3 756 792 793
3 756 793 757
3 757 793 794
3 757 794 758
3 758 794 795
3 758 795 759
3 759 795 796
3 759 796 760
3 760 796 797
3 760 797 761
3 761 797 798
3 761 798 762
3 762 798 799
3 762 799 763
3 763 799 800
3 763 800 764
3 764 800 801
3 764 801 765
3 765 801 802
3 766 803 767
3 767 803 804
3 767 804 768
3 768 804 805
3 769 805 770
3 770 805 806
3 770 806 771
3 771 806 807
3 772 808 773
3 773 808 809
3 773 809 774
3 774 809 810
3 775 811 776
3 776 811 812
3 776 812 777
3 777 812 813
3 778 814 779
3 779 814 815
3 779 815 780
3 780 815 816
3 781 817 782
3 782 817 818
3 782 818 783
3 783 818 819
3 784 820 73
3 73 820 186
3 785 1 821
3 785 821 786
3 786 821 822
3 786 822 787
3 787 822 823
3 788 824 789
3 789 824 825
3 789 825 790
3 790 825 826
3 790 826 791
3 791 826 827
3 791 827 792
3 792 827 828
3 792 828 793
3 793 828 829
3 793 829 794
3 794 829 830
3 794 830 795
3 795 830 831
3 795 831 796
3 796 831 832
3 796 832 797
3 797 832 833
3 797 833 798
3 798 833 834
3 798 834 799
3 799 834 835
3 799 835 800
3 800 835 836
3 800 836 801
3 801 836 837
3 801 837 802
3 802 837 838
3 803 839 804
3 804 839 840
3 804 840 805
3 805 840 841
3 805 842 806
3 806 842 843
3 806 843 807
3 807 843 844
3 808 845 809
3 809 845 846
3 809 846 810
3 810 846 847
3 811 848 812
3 812 848 849
3 812 849 813
3 813 849 850
3 814 851 815
3 815 851 852
3 815 852 816
3 816 852 853
3 817 853 818
3 818 853 854
3 818 854 819
3 819 854 855
3 820 856 186
3 186 856 857
3 1 223 821
3 821 223 858
3 821 858 822
3 822 858 859
3 822 859 823
3 823 859 860
3 824 861 825
3 825 861 862
3 825 862 826
3 826 862 863
3 826 863 827
3 827 863 864
3 827 864 828
3 828 864 865
3 828 865 829
3 829 865 866
3 829 866 830
3 830 866 867
3 830 867 831
3 831 867 868
3 831 868 832
3 832 868 869
3 832 869 833
3 833 869 870
3 833 870 834
3 834 870 871
3 834 871 835
3 835 871 872
3 835 872 836
3 836 872 873
3 836 873 837
3 837 873 874
3 837 874 838
3 838 874 875
3 839 876 840
3 840 876 877
3 840 877 841
3 841 877 878
3 842 879 843
3 843 879 880
3 843 880 844
3 844 880 881
3 845 882 846
3 846 882 883
3 846 883 847
3 847 883 884
3 848 885 849
3 849 885 886
3 849 886 850
3 850 886 887
3 851 888 852
3 852 888 889
3 852 889 853
3 853 889 890
3 853 891 854
3 854 891 892
3 854 892 855
3 855 892 893
3 856 894 857
3 857 894 508
3 223 895 858
3 858 895 896
3 858 896 859
3 859 896 897
3 859 897 860
3 860 897 898
3 861 899 862
3 862 899 900
3 862 900 863
3 863 900 901
3 863 901 864
3 864 901 902
3 864 902 865
3 865 902 903
3 865 903 866
3 866 903 904
3 866 904 867
3 867 904 905
3 867 905 868
3 868 905 906
3 868 906 869
3 869 906 907
3 869 907 870
3 870 907 908
3 870 908 871
3 871 908 909
3 871 909 872
3 872 909 910
3 872 910 873
3 873 910 911
3 873 911 874
3 874 911 912
3 874 912 875
3 875 912 913
3 876 914 877
3 877 914 915
3 877 915 878
3 878 915 916
3 879 917 880
3 880 917 918
3 880 918 881
3 881 918 919
3 882 920 883
3 883 920 921
3 883 921 884
3 884 921 922
3 885 923 886
3 886 923 924
3 886 924 887
3 887 924 925
3 888 926 889
3 889 926 927
3 889 927 890
3 890 927 928
3 891 929 892
3 892 929 930
3 892 930 893
3 893 930 931
3 894 932 508
3 508 932 933
3 362 895 934
3 934 895 935
3 934 935 936
3 936 935 937
3 936 937 938
3 938 937 939
3 940 941 942
3 942 941 943
3 942 943 944
3 944 943 945
3 944 945 902
3 902 945 946
3 902 946 947
3 947 946 948
3 947 948 904
3 904 948 949
3 904 949 950
3 950 949 951
3 950 951 952
3 952 951 953
3 952 953 954
3 954 953 955
3 954 955 956
3 956 955 957
3 956 957 958
3 958 957 959
3 958 959 910
3 910 959 960
3 910 960 961
3 961 960 962
3 961 962 912
3 912 962 963
3 912 963 964
3 964 963 965
3 913 966 915
3 915 966 967
3 915 967 968
3 968 967 969
3 968 970 971
3 971 970 972
3 971 972 973
3 973 972 974
3 975 976 977
3 977 976 978
3 977 978 979
3 979 978 980
3 981 982 924
3 924 982 983
3 924 983 984
3 984 983 985
3 986 985 987
3 987 985 988
3 987 988 989
3 989 988 990
3 991 992 993
3 993 992 994
3 993 994 995
3 995 994 996
3 997 998 322
3 322 998 933
3 895 1 935
3 935 1 0
3 935 0 937
3 937 0 3
3 937 3 939
3 939 3 5
3 941 7 943
3 943 7 8
3 943 8 945
3 945 8 10
3 945 10 946
3 946 10 12
3 946 12 948
3 948 12 14
3 948 14 949
3 949 14 16
3 949 16 951
3 951 16 18
3 951 18 953
3 953 18 20
3 953 20 955
3 955 20 22
3 955 22 957
3 957 22 24
3 957 24 959
3 959 24 26
3 959 26 960
3 960 26 28
3 960 28 962
3 962 28 30
3 962 30 963
3 963 30 32
3 963 32 965
3 965 32 34
3 966 36 967
3 967 36 38
3 967 38 969
3 969 38 40
3 970 42 972
3 972 42 43
3 972 43 974
3 974 43 45
3 976 47 978
3 978 47 49
3 978 49 980
3 980 49 51
3 982 53 983
3 983 53 55
3 983 55 985
3 985 55 57
3 985 59 988
3 988 59 61
3 988 61 990
3 990 61 63
3 992 65 994
3 994 65 67
3 994 67 996
3 996 67 69
3 998 71 933
3 933 71 73
