# vtk DataFile Version 2.0
File written by itkPolyDataMeshIO
ASCII
DATASET POLYDATA
POINTS 1427 float
16.330696 1.904381 94.3762
13.805473 2.305153 95.42945
16.281425 2.11335 94.16656
19.307152 2.983177 94.6437
19.2705 3.178276 94.38294
22.251945 4.032341 95.12515
22.2351 4.202141 94.84249
22.25196 4.032326 95.12515
22.235085 4.202156 94.84248
25.26287 5.038536 95.77698
25.266151 5.189751 95.48293
28.268303 6.113594 96.63882
28.292625 6.244774 96.34305
31.255577 7.275002 97.71484
31.302956 7.391502 97.42412
34.145866 8.471535 98.997284
34.214653 8.583549 98.720345
36.886787 9.67794 100.4498
36.966713 9.794395 100.193115
39.507942 10.980888 102.00368
39.58692 11.105522 101.76092
41.999535 12.396858 103.46346
42.07435 12.527916 103.21318
44.40766 13.773766 104.80527
44.48832 13.908669 104.540596
46.798515 15.103096 106.15597
46.891243 15.238274 105.87882
49.182655 16.412025 107.39188
49.274803 16.540443 107.10324
51.597054 17.722603 108.40084
51.669594 17.839104 108.103294
54.118248 19.050255 109.21026
54.167778 19.155357 108.905716
56.77572 20.408714 109.916725
56.807503 20.509575 109.609604
59.719795 21.885612 111.01898
59.800484 21.989342 110.71276
59.80047 21.989326 110.71276
62.561424 23.323143 112.536224
62.701332 23.438759 112.20301
64.5761 24.400398 113.47089
64.62206 24.52314 113.09744
64.62206 24.523125 113.09744
66.82177 25.816887 113.54771
66.757286 25.910301 113.209335
69.865685 28.649437 112.69625
69.66201 28.732857 112.37123
69.66201 28.732841 112.37123
70.94421 31.684624 111.87479
70.71841 31.716743 111.57963
71.52499 33.730293 110.62002
71.26568 33.746864 110.384186
71.52502 33.73031 110.62003
71.26568 33.74688 110.384186
74.06667 36.777107 110.73293
73.93755 36.87925 110.57707
76.08062 40.068398 112.906715
76.07662 40.19297 112.769485
76.08062 40.068398 112.90671
76.07665 40.19297 112.76948
76.79946 42.305687 114.47924
76.76867 42.373894 114.31991
78.29354 43.971992 114.47209
78.24023 44.033653 114.30971
78.2402 44.033638 114.30971
80.644554 45.502785 114.54762
80.61419 45.565987 114.411285
83.37316 47.135185 114.61061
83.34957 47.172874 114.51594
83.37316 47.13523 114.61063
83.34957 47.172905 114.51595
85.63497 48.693336 114.59646
13.805489 2.305168 95.42946
16.225456 2.340645 93.966965
19.228111 3.391289 94.1247
22.213203 4.389351 94.558044
22.213203 4.389351 94.55804
25.264519 5.35891 95.18557
28.31208 6.394279 96.04249
31.345604 7.526176 97.12708
34.27877 8.713509 98.43682
37.04151 9.928185 99.93108
39.66018 11.246376 101.51342
42.142998 12.674614 102.95758
44.562614 14.059883 104.27036
46.9777 15.390602 105.59593
49.360542 16.686943 106.80852
51.735054 17.97477 107.79973
54.209084 19.280678 108.595436
56.830177 20.631004 109.298134
59.869453 22.115913 110.40212
59.869453 22.115913 110.40213
62.822945 23.58384 111.86675
64.6466 24.678932 112.728485
64.6466 24.678947 112.728485
66.67611 26.031517 112.87817
69.431145 28.839409 112.06888
69.431145 28.839424 112.068886
70.469444 31.769737 111.31296
70.99441 33.788765 110.18049
70.99444 33.788765 110.18049
73.79537 36.99859 110.4377
76.058556 40.321983 112.63533
76.058525 40.321983 112.63532
76.727196 42.446724 114.164246
78.17849 44.105156 114.15013
78.17852 44.10514 114.150116
80.57983 45.637794 114.2765
83.322716 47.216576 114.42175
83.32275 47.216606 114.42176
13.805489 2.305183 95.42947
16.159645 2.5924 93.7906
19.175377 3.632957 93.87919
22.180733 4.606865 94.28261
22.180717 4.606865 94.282616
25.251167 5.559792 94.899025
28.318275 6.576134 95.753204
31.37342 7.693336 96.83907
34.32676 8.875557 98.15993
37.099648 10.092812 99.674225
39.717003 11.415871 101.26808
42.195 12.848976 102.70188
44.619133 14.239799 104.00105
47.04496 15.573097 105.31626
49.425804 16.865318 106.51991
51.779366 18.144173 107.50552
54.228706 19.441643 108.297226
56.830727 20.788399 109.00195
59.908043 22.28167 110.1062
62.89846 23.778542 111.54823
64.62679 24.891151 112.38965
66.56542 26.202492 112.57509
69.16119 28.98339 111.825005
69.16122 28.98339 111.82501
70.18792 31.863304 111.12399
70.71606 33.88114 110.059296
70.71606 33.881157 110.0593
73.63735 37.147163 110.33964
76.01296 40.45562 112.510925
76.01296 40.45562 112.51092
76.66534 42.52648 114.02206
78.10311 44.192543 114.00663
78.10308 44.192528 114.00663
80.53896 45.723396 114.15476
83.29055 47.27038 114.3359
83.29058 47.27041 114.33592
85.635 48.69335 114.59646
13.805504 2.305183 95.42946
16.088661 2.848701 93.656654
19.111305 3.899498 93.667206
22.13279 4.858986 94.04175
22.132805 4.858986 94.04174
25.218788 5.796944 94.6557
28.301262 6.794273 95.51216
31.373314 7.897102 96.59723
34.3433 9.073784 97.92272
37.12612 10.291939 99.448654
39.744072 11.617973 101.043785
42.2172 13.05558 102.46292
44.643227 14.452843 103.752174
47.075874 15.789589 105.06408
49.452263 17.07888 106.26756
51.785866 18.350166 107.255844
54.21264 19.640846 108.04954
56.79737 20.983894 108.76048
59.899284 22.486916 109.86252
59.8993 22.486916 109.86251
62.90525 24.021034 111.28289
64.55047 25.161308 112.112144
64.55047 25.161293 112.112144
66.4204 26.431877 112.320305
68.85314 29.168968 111.664345
69.87847 32.004326 111.044495
70.44204 34.03443 110.04947
70.44204 34.03443 110.049484
73.47207 37.318596 110.30333
75.935295 40.585213 112.40667
75.935295 40.585197 112.40666
76.5765 42.61434 113.903755
78.01464 44.2949 113.899155
78.01461 44.294884 113.899155
80.49166 45.82276 114.064705
83.25347 47.33419 114.27151
83.2535 47.33422 114.27152
16.014595 3.102074 93.567566
19.03495 4.187096 93.50679
22.06585 5.142647 93.8664
22.065834 5.142647 93.8664
25.161446 6.065758 94.49612
28.252022 7.043037 95.3661
31.33242 8.131905 96.44946
34.31292 9.302879 97.76834
37.106117 10.520531 99.288155
39.72869 11.849068 100.86497
42.197197 13.292198 102.262924
44.620705 14.696434 103.54928
47.05346 16.036232 104.870544
49.421745 17.322014 106.08971
51.738792 18.585518 107.095085
54.14924 19.86959 107.90097
56.721672 21.207619 108.62281
59.830498 22.718224 109.717545
59.830498 22.718239 109.71755
62.829124 24.290169 111.11365
64.41976 25.465752 111.929665
64.41976 25.465721 111.929665
66.24993 26.705513 112.13052
68.53109 29.381187 111.591644
68.53109 29.381172 111.591644
69.56884 32.178627 111.077095
70.196495 34.230354 110.14614
70.196495 34.230354 110.14615
73.30996 37.503548 110.32549
75.82232 40.710274 112.325714
76.45956 42.70701 113.81931
77.918236 44.40638 113.8481
77.918236 44.40638 113.84809
80.44021 45.930855 114.02676
83.21377 47.40473 114.24335
83.2138 47.404747 114.243355
15.934364 3.360207 93.52871
18.944435 4.494301 93.421165
21.978142 5.451637 93.78654
21.978127 5.451622 93.78653
25.076332 6.35955 94.44969
28.166283 7.316246 95.34281
31.2445 8.39225 96.42234
34.227394 9.558281 97.72139
37.030052 10.775017 99.214485
39.660088 12.107048 100.75163
42.12316 13.557533 102.1226
44.539436 14.96917 103.41387
46.965446 16.31092 104.75763
49.323265 17.591469 106.00909
51.629906 18.845741 107.04686
54.033028 20.122566 107.87568
56.600044 21.453651 108.61279
59.696053 22.968727 109.69301
59.696053 22.968742 109.69301
62.663643 24.575523 111.06137
64.23672 25.790154 111.86547
64.23672 25.790169 111.86547
66.06139 27.011925 112.02335
68.21288 29.61013 111.61013
69.28509 32.369743 111.21244
69.99999 34.44555 110.33106
70.00002 34.445564 110.33107
73.150444 37.69886 110.39647
75.66274 40.83561 112.272865
75.66274 40.835594 112.272865
76.31078 42.801292 113.7783
77.81591 44.52561 113.86325
77.81594 44.525597 113.86324
80.38567 46.04548 114.05
83.17245 47.480446 114.25806
83.17248 47.480476 114.258064
85.63497 48.69335 114.59646
85.63494 48.69332 114.59645
13.805504 2.305183 95.42947
15.848366 3.617287 93.55907
18.842812 4.800438 93.45149
21.873665 5.760017 93.84255
21.87365 5.760017 93.84256
24.967537 6.654152 94.54284
28.048378 7.592705 95.45667
31.11338 8.659081 96.52636
34.088417 9.822945 97.79418
36.895332 11.040672 99.24482
39.529793 12.378731 100.72915
41.98426 13.838463 102.07251
44.3901 15.257835 103.37445
46.805916 16.60012 104.74749
49.155678 17.873116 106.04041
51.462364 19.116325 107.119736
53.869728 20.385017 107.97817
56.43937 21.707375 108.73279
59.503395 23.224632 109.79002
59.50338 23.224632 109.79003
62.417046 24.862923 111.12975
64.00982 26.11747 111.93483
64.00982 26.117485 111.93483
65.8648 27.335335 112.02171
67.92037 29.843483 111.725845
67.92037 29.843483 111.72584
69.05697 32.55813 111.438225
69.87566 34.654167 110.58146
69.87566 34.654167 110.58147
72.99297 37.893913 110.51062
75.44366 40.95806 112.26374
75.44363 40.95806 112.26373
76.12646 42.89147 113.79311
77.711815 44.649437 113.944115
77.711815 44.649406 113.944115
80.32992 46.16204 114.131645
83.13155 47.55784 114.3141
83.131584 47.557854 114.31412
85.635 48.69335 114.596466
15.76078 3.855202 93.68102
18.739723 5.065376 93.636765
21.764305 6.020668 94.06584
24.848244 6.905403 94.78582
27.91349 7.832771 95.70118
30.955849 8.895409 96.751335
33.91163 10.061852 97.98266
36.712044 11.284538 99.386856
39.340233 12.63166 100.8214
41.780647 14.101234 102.14532
44.17579 15.528175 103.45948
46.583366 16.869987 104.85758
48.93383 18.133812 106.18742
51.25524 19.364998 107.30564
53.679985 20.625343 108.19248
56.260353 21.938454 108.96267
59.2772 23.457527 109.990036
62.118477 25.124794 111.304085
63.760048 26.420616 112.12976
65.67437 27.652565 112.135666
67.67364 30.066368 111.93558
67.67364 30.066368 111.935585
68.901085 32.727257 111.73094
69.8316 34.838203 110.86914
69.8316 34.83822 110.869156
72.8391 38.06916 110.66507
75.1661 41.05938 112.32061
75.16613 41.05938 112.32061
75.914116 42.96566 113.87657
77.61556 44.768074 114.07914
77.61553 44.76806 114.07914
80.27773 46.26966 114.25735
83.095024 47.62899 114.4018
83.095024 47.62902 114.40182
85.63497 48.69335 114.596466
15.674995 4.063499 93.89588
18.645576 5.26136 93.96499
21.664299 6.19944 94.431854
21.664299 6.19944 94.43186
24.7351 7.080116 95.144066
27.781258 8.005196 96.036064
30.795296 9.070168 97.0587
33.722603 10.243401 98.25629
36.504005 11.474174 99.62215
39.112602 12.830711 101.02401
41.53399 14.308281 102.3428
43.920464 15.742104 103.66754
46.32482 17.083824 105.0783
48.687157 18.339287 106.4296
51.037743 19.55973 107.57408
53.491127 20.812843 108.48155
56.088524 22.118172 109.26171
59.049583 23.640419 110.25691
59.049583 23.640419 110.256905
61.80796 25.33471 111.5504
63.514626 26.674843 112.40871
65.503624 27.940987 112.34247
67.47802 30.267632 112.21378
67.47805 30.267632 112.21378
68.80529 32.871544 112.05254
69.84643 34.996956 111.16302
69.84643 34.996956 111.163025
72.69427 38.204536 110.853874
74.864006 41.11315 112.45309
74.864006 41.11315 112.45308
75.70095 43.01084 114.02748
77.53625 44.87043 114.24805
77.53622 44.870415 114.24805
80.23437 46.35769 114.40623
83.06643 47.686653 114.50634
83.06643 47.68667 114.506355
15.590202 4.249062 94.18745
18.562996 5.397591 94.37686
21.57917 6.305229 94.86887
21.579155 6.305244 94.86887
24.635628 7.185249 95.555336
27.661507 8.114128 96.41052
30.645042 9.184334 97.40436
33.53858 10.365257 98.57579
36.29238 11.60331 99.91572
38.87272 12.965279 101.30391
41.273277 14.44651 102.630844
43.65287 15.886269 103.96454
46.057365 17.230263 105.376205
48.4392 18.481194 106.73343
50.82833 19.694344 107.89084
53.31727 20.942406 108.81067
55.93525 22.242699 109.59494
58.83648 23.77021 110.559555
58.836494 23.770195 110.55956
61.507423 25.490028 111.83768
63.28707 26.876915 112.73036
65.35702 28.192284 112.60978
67.32522 30.445671 112.53374
67.32522 30.445656 112.53374
68.74734 32.995216 112.377426
69.891716 35.139915 111.44757
69.891716 35.13993 111.44758
72.57003 38.291298 111.06881
74.589836 41.106773 112.64182
74.589836 41.106773 112.641815
75.52001 43.02491 114.22299
77.47332 44.953056 114.437256
77.47332 44.95304 114.43725
80.20101 46.425133 114.56501
83.0458 47.7302 114.617874
83.0458 47.730232 114.61789
15.507912 4.410988 94.54242
18.492332 5.488991 94.817635
21.509712 6.35894 95.3117
21.509712 6.358925 95.3117
24.552177 7.239677 95.965935
27.558128 8.17469 96.783455
30.511665 9.249733 97.7529
33.37017 10.435997 98.90752
36.092537 11.677132 100.233925
38.641838 13.037483 101.62397
41.02305 14.516914 102.96853
43.396828 15.961586 104.31034
45.802086 17.311302 105.714874
48.20632 18.563332 107.066345
50.637794 19.77401 108.22619
53.16494 21.019783 109.15189
55.80468 22.318306 109.93575
58.645073 23.853218 110.87369
61.22779 25.597374 112.14286
63.0819 27.03283 113.070854
65.23461 28.405418 112.91787
67.20922 30.601067 112.8816
67.20922 30.601082 112.88161
68.71755 33.102257 112.69944
69.95507 35.27201 111.72266
69.95507 35.272026 111.722664
72.48098 38.33367 111.2971
74.379295 41.052742 112.84619
75.38894 43.01792 114.42835
77.42458 45.014763 114.6386
77.424614 45.014748 114.638596
80.17718 46.474556 114.72492
83.03191 47.761208 114.73
83.031944 47.76124 114.73003
15.435707 4.530006 94.94379
18.435127 5.541817 95.24916
21.455055 6.378471 95.7191
21.455055 6.378456 95.71909
24.484444 7.26049 96.34252
27.472023 8.20089 97.12907
30.398476 9.277626 98.080734
33.224373 10.464333 99.2265
35.916527 11.702431 100.548325
38.43789 13.053444 101.94909
40.80416 14.526009 103.31538
43.172676 15.97422 104.66527
45.577003 17.332817 106.05977
48.001686 18.591866 107.39971
50.4739 19.805412 108.55579
53.038307 21.051506 109.48311
55.698997 22.351387 110.26416
58.480064 23.894676 111.18169
60.976173 25.661491 112.451126
62.89956 27.14907 113.41788
62.89956 27.149055 113.41788
65.134575 28.582878 113.25271
67.124565 30.735512 113.247955
67.124565 30.735527 113.24795
68.71029 33.196022 113.01773
70.03109 35.39483 111.9919
70.03109 35.394844 111.991905
72.42971 38.34527 111.52534
74.225914 40.973427 113.03986
75.297966 42.99946 114.62481
77.39303 45.053627 114.84379
77.39303 45.053596 114.84379
80.16183 46.50669 114.88132
83.02459 47.780098 114.83856
83.02459 47.780113 114.83858
15.382896 4.585793 95.35927
18.393135 5.556313 95.65107
21.41317 6.374062 96.08048
21.41317 6.374062 96.080475
24.430458 7.257866 96.67806
27.402122 8.20121 97.44093
30.305992 9.275826 98.37857
33.10473 10.457603 99.51805
35.77224 11.687416 100.83744
38.273445 13.024742 102.24836
40.631035 14.488091 103.633965
42.994896 15.937889 104.99214
45.39527 17.3059 106.37943
47.83474 18.575752 107.70931
50.34153 19.796288 108.86094
52.9394 21.044685 109.7883
55.618767 22.348106 110.56693
58.344994 23.897926 111.47189
58.344994 23.897926 111.471886
60.759422 25.683113 112.752396
62.740974 27.22773 113.766075
62.740974 27.227715 113.766075
65.056114 28.725716 113.60488
67.06997 30.849144 113.627335
68.725 33.27822 113.334724
70.1213 35.508095 112.26041
70.1213 35.508095 112.260414
72.41241 38.338036 111.746376
74.11486 40.884438 113.21337
74.11486 40.884438 113.21336
75.23794 42.97352 114.80428
77.382164 45.06785 115.04212
80.15572 46.5196 115.03095
83.024254 47.78611 114.940834
83.024254 47.786156 114.94086
15.3545 4.57061 95.75677
18.366508 5.533257 96.01671
21.381615 6.3507 96.402664
24.387337 7.237221 96.98002
27.345604 8.181068 97.72391
30.231865 9.250435 98.64753
33.01008 10.423119 99.77837
35.660378 11.641853 101.09178
38.15081 12.965202 102.50555
40.50602 14.419807 103.90397
42.866035 15.868996 105.27057
45.259438 17.244362 106.65677
47.706642 18.525917 107.98288
50.239906 19.75579 109.13327
52.866203 21.00756 110.06118
55.56124 22.315742 110.83982
58.23916 23.868065 111.7396
58.23916 23.86805 111.73961
60.579918 25.664879 113.04079
62.60662 27.269585 114.11286
64.99993 28.832329 113.96827
67.04836 30.939507 114.016106
67.04836 30.939522 114.016106
68.765465 33.347786 113.65305
70.23168 35.60917 112.531906
70.23171 35.609184 112.53191
72.42373 38.318657 111.958466
74.03341 40.793266 113.36729
74.03338 40.793266 113.36729
75.2029 42.94117 114.96523
77.391685 45.058678 115.22544
77.391716 45.058678 115.225426
80.158775 46.512794 115.17168
83.0306 47.7797 115.03564
83.0306 47.779716 115.03566
15.347801 4.498497 96.113464
18.352913 5.479103 96.34727
21.358192 6.310997 96.69771
21.358177 6.310997 96.6977
24.35244 7.201546 97.25951
27.298988 8.145027 97.98664
30.170906 9.208458 98.895226
32.933037 10.371101 100.01468
35.57099 11.57888 101.31866
38.05636 12.890266 102.729576
40.412636 14.337532 104.136154
42.76937 15.784828 105.51094
45.15467 17.165169 106.9
47.605537 18.457314 108.226906
50.159584 19.696907 109.37896
52.810402 20.952583 110.30843
55.51867 22.265984 111.0893
58.154915 23.817451 111.9869
58.1549 23.817467 111.9869
60.43258 25.618752 113.311646
62.49836 27.275673 114.45257
62.49836 27.275673 114.45256
64.97265 28.891441 114.33853
67.07482 30.99578 114.40987
67.07482 30.995796 114.409874
68.84713 33.396965 113.97328
70.37884 35.687996 112.80663
70.37884 35.68801 112.80664
72.46285 38.286507 112.16202
73.971855 40.702385 113.50574
73.971855 40.702385 113.50573
75.18621 42.904564 115.110275
77.41393 45.034523 115.39092
80.1683 46.49247 115.3013
83.04107 47.765434 115.12289
83.04107 47.765465 115.122894
15.35804 4.386803 96.42021
18.349876 5.400612 96.64686
21.341454 6.256203 96.9751
21.341454 6.256218 96.97509
24.32409 7.152168 97.52494
27.259865 8.095772 98.236115
30.119041 9.154427 99.128944
32.867165 10.308434 100.23522
35.49491 11.507164 101.52784
37.977394 12.809288 102.93313
40.335854 14.250877 104.34569
42.689705 15.695732 105.72827
45.067207 17.079018 107.12155
47.520485 18.379723 108.451126
50.092506 19.628212 109.60647
52.76528 20.888023 110.538414
55.485023 22.206764 111.32297
58.08544 23.755272 112.217834
58.08544 23.755287 112.217834
60.31127 25.554726 113.563644
62.41622 27.248665 114.78005
62.41622 27.24865 114.780045
64.97689 28.898552 114.70863
67.15548 31.012505 114.79928
67.15548 31.01252 114.799286
68.97622 33.42063 114.28913
70.56835 35.737694 113.07777
70.56835 35.737694 113.07778
72.52685 38.239708 112.356155
73.92449 40.61178 113.63338
73.92449 40.611763 113.63338
75.182915 42.865334 115.242744
77.44247 45.002434 115.53921
77.44244 45.002403 115.5392
80.181725 46.464165 115.419235
83.05358 47.747124 115.203156
83.05361 47.747154 115.20316
85.635 48.693367 114.596466
13.805473 2.305168 95.42946
15.381264 4.24398 96.689384
18.355583 5.298225 96.93093
21.330544 6.182671 97.25053
24.301018 7.085213 97.7912
27.226036 8.029976 98.48629
30.07293 9.085396 99.3624
32.80767 10.232368 100.45398
35.42582 11.42411 101.73351
37.90635 12.719444 103.13115
40.26754 14.156654 104.548676
42.61872 15.598595 105.93918
44.98873 16.983086 107.33743
47.44422 18.290474 108.67049
50.033287 19.547081 109.83017
52.727196 20.811302 110.765495
55.457695 22.135506 111.55484
58.025856 23.679543 112.44567
58.02587 23.679543 112.44566
60.208214 25.471855 113.808815
62.355736 27.190193 115.10266
65.00832 28.860497 115.07635
67.28326 30.993477 115.17568
67.28326 30.993462 115.17568
69.14669 33.418236 114.59038
70.792625 35.756935 113.3328
70.792625 35.75695 113.33281
72.6101 38.1737 112.54198
73.8886 40.515694 113.760345
75.19158 42.821297 115.3704
77.47726 44.962334 115.67812
77.47723 44.96235 115.67812
80.19921 46.42753 115.53115
83.06844 47.724373 115.28028
83.06844 47.724403 115.28029
85.63497 48.69332 114.59646
15.416435 4.069572 96.93579
18.370674 5.164818 97.2171
21.326408 6.080147 97.542114
21.326408 6.080162 97.54212
24.283424 6.990379 98.07612
27.196938 7.937904 98.75436
30.030907 8.99192 99.612434
32.751427 10.133614 100.68767
35.35943 11.32029 101.95216
37.838554 12.611153 103.33995
40.203224 14.044945 104.76216
42.551613 15.483238 106.16145
44.91398 16.86715 107.56552
47.3722 18.17968 108.90239
49.979225 19.443901 110.06703
52.695213 20.712975 111.006676
55.43676 22.042961 111.80187
57.974083 23.581123 112.68716
60.118828 25.361305 114.063034
62.31565 27.09481 115.43115
62.315636 27.09478 115.43115
65.06591 28.778954 115.44184
67.45623 30.938866 115.529625
67.45626 30.93885 115.529625
69.35699 33.386208 114.86407
71.0469 35.741264 113.555466
71.04693 35.74128 113.55547
72.71023 38.078697 112.720024
73.865715 40.404396 113.8987
75.21517 42.76786 115.50227
77.522026 44.910225 115.816605
77.521996 44.910194 115.816605
80.22277 46.378426 115.643875
83.087364 47.694313 115.358795
83.087364 47.694344 115.3588
13.805458 2.305153 95.42945
15.416435 4.069588 96.93579
15.464394 3.860481 97.161385
18.398125 4.989174 97.51072
21.326408 6.080162 97.542114
21.332664 5.933815 97.8571
24.28341 6.990379 98.07612
24.274605 6.852623 98.38753
27.196938 7.937889 98.75436
27.1753 7.80558 99.048325
29.994942 8.861229 99.88759
32.751427 10.133629 100.687675
32.699333 10.000465 100.94551
35.359444 11.320305 101.95216
35.29563 11.184914 102.19323
37.838554 12.611168 103.33996
37.773537 12.474419 103.56897
40.20324 14.04496 104.76217
40.142662 13.906029 104.99606
42.55163 15.483238 106.16146
42.488014 15.339485 106.40577
44.913994 16.86715 107.56552
44.842445 16.72062 107.81633
47.372215 18.17968 108.9024
47.304665 18.036232 109.156456
49.979225 19.443916 110.06704
49.931953 19.30732 110.32589
52.695213 20.712975 111.00668
52.67205 20.581596 111.2707
55.43676 22.042961 111.80188
55.425713 21.917488 112.07258
57.974083 23.581154 112.68716
57.93331 23.448723 112.950325
57.974083 23.581139 112.68716
60.118828 25.36132 114.06303
60.04754 25.211586 114.330986
62.30381 26.950111 115.762535
62.31565 27.09478 115.43116
62.303795 26.950096 115.762535
65.06594 28.778954 115.44184
65.15484 28.64515 115.79686
67.45626 30.938866 115.529625
67.67968 30.841866 115.84379
69.35699 33.386223 114.86407
69.61022 33.3173 115.09232
71.32906 35.68235 113.72643
71.329094 35.682365 113.72644
72.71023 38.078682 112.720024
72.8279 37.942863 112.88424
73.865746 40.404396 113.898705
73.86358 40.267723 114.0544
73.865746 40.404396 113.8987
75.21517 42.767876 115.50227
75.26156 42.699913 115.642265
77.522026 44.910225 115.81661
77.58071 44.84098 115.955696
77.58068 44.840965 115.955696
80.22277 46.37844 115.64388
80.25503 46.31144 115.75815
83.087364 47.69433 115.3588
83.1123 47.653236 115.43921
83.087364 47.694344 115.35882
83.11233 47.653267 115.43922
85.63494 48.69332 114.59644
13.805489 2.305153 95.42946
15.464424 3.860512 97.1614
15.526329 3.614204 97.36173
18.398155 4.989204 97.51073
18.44297 4.757637 97.80514
21.33268 5.933846 97.85711
21.356102 5.724663 98.18838
21.332695 5.93383 97.85711
21.356117 5.724648 98.18838
24.274605 6.852638 98.387535
24.281563 6.65287 98.719
27.175316 7.805595 99.04833
27.167992 7.615547 99.36303
29.994957 8.861244 99.887596
29.971657 8.677757 100.18467
32.69935 10.000496 100.94551
32.657356 9.819176 101.22666
35.29563 11.184944 102.19323
35.239586 11.005684 102.45759
37.773552 12.474464 103.56897
37.71604 12.29818 103.82018
40.142693 13.906044 104.99607
40.090614 13.729088 105.25337
42.48803 15.3395 106.40577
42.4327 15.156136 106.67565
44.84246 16.72065 107.81633
44.779182 16.53164 108.09255
47.30468 18.036247 109.15647
47.247673 17.847466 109.43351
49.93197 19.307335 110.325905
49.898582 19.124046 110.6056
52.67208 20.581596 111.270706
52.665215 20.403801 111.555504
55.425743 21.917488 112.072586
55.432457 21.745323 112.36389
57.93331 23.448753 112.95033
57.912895 23.269478 113.232056
57.933327 23.448753 112.95033
57.912895 23.269493 113.23206
60.047554 25.211586 114.331
60.00753 25.01049 114.60493
62.30381 26.950127 115.76255
62.33538 26.74131 116.07671
62.30381 26.950096 115.76254
62.33538 26.741295 116.07672
65.15484 28.64515 115.796875
65.281395 28.447945 116.12015
67.67971 30.84188 115.843796
67.95513 30.695564 116.088326
67.67971 30.841866 115.8438
67.95513 30.69558 116.088326
69.61025 33.317314 115.09234
69.90377 33.205467 115.2489
71.62847 35.57337 113.820816
71.329094 35.682365 113.72645
71.62847 35.57337 113.82082
72.827934 37.94288 112.88425
72.96407 37.75608 113.018715
73.86361 40.26774 114.05441
73.898186 40.096336 114.22467
73.898186 40.09632 114.22466
75.26156 42.699913 115.64227
75.34313 42.612114 115.78883
77.65737 44.7492 116.08874
77.65734 44.7492 116.08874
80.25506 46.31144 115.75815
80.299065 46.220497 115.86835
83.11233 47.653267 115.43921
83.14571 47.59675 115.51731
83.11236 47.653282 115.43922
83.145744 47.596764 115.51732
85.63497 48.693336 114.59645
15.604088 3.329201 97.52096
18.511787 4.458961 98.06882
21.406273 5.43737 98.49693
24.315376 6.376564 99.03039
27.187416 7.355598 99.66022
29.975136 8.431511 100.46909
32.64112 9.581154 101.501465
35.207344 10.774345 102.72094
37.68183 12.073708 104.074745
40.062935 13.504677 105.51767
42.40203 14.923409 106.9539
44.741585 16.290443 108.374695
47.219078 17.604118 109.71045
49.895653 18.88543 110.878296
52.68891 20.171806 111.82913
55.4703 21.518837 112.640755
57.93055 23.037392 113.49998
57.93055 23.037407 113.49998
60.022194 24.75373 114.85311
62.42849 26.461205 116.33102
62.428474 26.46119 116.33101
65.44775 28.182335 116.37248
68.27035 30.499184 116.21806
68.27038 30.499184 116.21807
70.21963 33.05047 115.29716
71.91613 35.41282 113.80787
71.91616 35.412834 113.807884
73.11788 37.520653 113.0931
73.99273 39.892525 114.3893
73.99279 39.892525 114.3893
75.47207 42.50271 115.928215
77.7542 44.631966 116.1969
77.75417 44.63195 116.1969
80.35638 46.10253 115.95818
83.18853 47.52224 115.581
83.18853 47.52227 115.58101
15.696892 3.017403 97.60662
18.607857 4.105659 98.2318
21.490425 5.085732 98.69296
21.490425 5.085716 98.69296
24.387032 6.039879 99.22657
27.248604 7.043785 99.84629
30.026161 8.140816 100.65185
32.677956 9.303093 101.68781
35.230247 10.504234 102.911095
37.70272 11.809822 104.27223
40.09118 13.23864 105.73231
42.429405 14.647377 107.18032
44.765038 16.005165 108.59882
47.252113 17.317772 109.918785
49.949577 18.60685 111.06787
52.76194 19.903984 112.006966
55.554314 21.257927 112.812874
58.009453 22.773964 113.67138
58.009468 22.773964 113.67137
60.119423 24.465828 115.00869
62.58909 26.134361 116.464714
65.64092 27.86805 116.50668
68.58773 30.271172 116.19689
68.58776 30.271156 116.19691
70.516045 32.869072 115.21305
72.14449 35.21705 113.67494
72.14452 35.21705 113.67495
73.2824 37.269127 113.07462
74.162285 39.68685 114.50575
74.162285 39.68685 114.505745
75.64608 42.382805 116.02722
77.86544 44.49714 116.24633
77.86541 44.497124 116.24633
80.422386 45.96673 115.99848
83.23684 47.4358 115.608406
83.23684 47.435814 115.60841
13.805489 2.305183 95.42946
15.696877 3.017403 97.60662
15.799767 2.702065 97.5921
18.607841 4.105659 98.23179
18.725075 3.737038 98.23241
21.49041 5.085716 98.692955
21.604286 4.717232 98.69548
21.604301 4.717232 98.69547
24.387032 6.039864 99.22657
24.495766 5.692696 99.22069
27.248604 7.04377 99.84629
27.35514 6.728966 99.83467
30.026161 8.1408 100.65185
30.134407 7.851341 100.64792
32.7853 9.025948 101.70364
35.331627 10.230553 102.95282
37.702705 11.809822 104.27223
37.803566 11.535118 104.346405
40.09118 13.23864 105.732315
40.200096 12.956245 105.83255
42.541206 14.354424 107.28572
44.877403 15.705391 108.69436
47.252113 17.317757 109.918785
47.370476 17.022697 109.986786
50.07511 18.32708 111.09861
52.761925 19.903984 112.00696
52.890602 19.642021 112.00696
55.554314 21.257927 112.81287
55.68627 21.006447 112.79461
58.009453 22.773949 113.67138
58.157127 22.522972 113.668304
58.009468 22.773949 113.67137
58.157127 22.522957 113.668304
60.304893 24.192665 115.01722
62.58909 26.134346 116.464714
62.79705 25.811928 116.449486
62.58909 26.134361 116.46472
62.79705 25.811913 116.449486
65.64092 27.86805 116.50669
65.836296 27.545662 116.51049
68.58773 30.271172 116.1969
68.867455 30.042824 116.04552
68.58773 30.271156 116.19691
68.867455 30.042809 116.04552
70.516045 32.869072 115.21304
70.75518 32.68911 115.020775
72.14449 35.217033 113.674934
72.28567 35.015648 113.454636
72.14449 35.217033 113.67495
72.2857 35.015663 113.45464
73.2824 37.269127 113.074615
73.447014 37.04908 112.96392
74.162285 39.686836 114.505745
74.39086 39.523308 114.54081
74.39086 39.523293 114.5408
75.84133 42.273186 116.05531
77.97796 44.3619 116.21326
77.97793 44.3619 116.21326
80.422386 45.966713 115.99849
80.487144 45.8328 115.96875
83.28274 47.35108 115.58409
83.23687 47.435814 115.60841
83.28277 47.351112 115.5841
85.63497 48.693336 114.596466
15.909416 2.393425 97.47704
18.854897 3.380287 98.07019
21.604286 4.717232 98.69547
21.73716 4.366447 98.50484
21.60427 4.717232 98.69547
21.737175 4.366432 98.50483
24.49575 5.692696 99.22069
24.630653 5.369194 99.01453
27.496117 6.442284 99.62796
30.289345 7.591057 100.4585
32.95376 8.775261 101.54677
35.50402 9.977058 102.84008
37.978783 11.271996 104.28705
40.200096 12.956261 105.83255
40.384575 12.680092 105.80441
42.541206 14.354439 107.28572
42.732353 14.06797 107.2552
45.07287 15.41526 108.64901
47.56617 16.743523 109.90663
50.07511 18.32708 111.09862
50.261635 18.070595 110.96777
53.062965 19.409538 111.83028
55.68627 21.006462 112.79461
55.853294 20.787712 112.59004
58.358574 22.306358 113.49466
58.358574 22.306343 113.49466
60.558403 23.955772 114.88741
62.79705 25.811913 116.44949
63.029106 25.519722 116.30746
63.02909 25.519722 116.30746
65.836296 27.545647 116.51049
66.02169 27.236183 116.408005
69.105064 29.82772 115.817665
69.105064 29.827736 115.817665
70.93655 32.522972 114.765205
72.2857 35.015663 113.454636
72.354454 34.82406 113.190575
72.354485 34.824074 113.19058
73.447044 37.04908 112.96392
73.60793 36.877632 112.79057
74.651115 39.41735 114.49783
74.651146 39.417336 114.497826
76.0378 42.184715 116.011
77.97796 44.361916 116.21326
78.08398 44.235954 116.1042
78.08401 44.23594 116.104195
80.54531 45.711464 115.87496
83.32241 47.27546 115.51296
83.32244 47.275505 115.51298
16.022728 2.098442 97.27001
18.987038 3.056633 97.77738
21.87452 4.059105 98.16996
21.87452 4.05909 98.16995
24.77459 5.09185 98.66608
27.651634 6.201149 99.28793
30.466805 7.374779 100.14362
33.155113 8.566338 101.269966
35.718666 9.761726 102.613396
38.20202 11.042366 104.1187
40.61933 12.435783 105.663536
42.97608 13.814659 107.10608
45.322716 15.160042 108.48505
47.809685 16.501366 109.71007
50.4815 17.85308 110.720726
53.254723 19.217262 111.53574
56.03286 20.609245 112.26654
58.584526 22.12989 113.21134
58.58454 22.12989 113.21134
60.84603 23.758781 114.665276
63.268227 25.259834 116.07485
66.19564 26.942848 116.21816
69.31069 29.62548 115.54694
69.31069 29.625496 115.54694
71.07055 32.37124 114.47256
72.37069 34.64524 112.90536
72.37069 34.64524 112.905365
73.76214 36.75152 112.57935
74.92214 39.366066 114.390915
74.92214 39.36605 114.390915
76.223625 42.121483 115.90578
78.178215 44.124565 115.94117
78.178246 44.12455 115.94117
80.59493 45.607155 115.73688
83.35497 47.211143 115.41122
83.35497 47.211174 115.41123
85.635 48.693336 114.59646
13.805473 2.305168 95.42945
16.133186 1.834602 96.978935
19.108757 2.793892 97.389626
21.999947 3.824226 97.74583
24.908806 4.884941 98.24053
27.799782 6.024071 98.88403
30.639961 7.218071 99.7711
33.35772 8.415535 100.933495
35.942574 9.604469 102.31962
38.44239 10.871468 103.870605
40.87423 12.253029 105.42967
43.240623 13.625221 106.86005
45.593315 14.968864 108.22862
48.06704 16.320381 109.433266
50.70353 17.691978 110.4086
53.438972 19.076622 111.18943
56.200356 20.478325 111.899414
58.80311 21.999275 112.885704
58.80311 21.99929 112.8857
61.132057 23.605232 114.39924
63.49842 25.03315 115.78744
63.49842 25.033134 115.78744
66.35607 26.669579 115.95674
69.491905 29.43386 115.24842
69.491905 29.433846 115.24843
71.164635 32.233284 114.157875
72.34725 34.480263 112.6107
72.34725 34.480263 112.61071
73.90322 36.66549 112.34703
75.18539 39.36454 114.234184
75.185356 39.36454 114.23418
76.38787 42.086784 115.75308
78.25378 44.034477 115.74723
80.6339 45.525078 115.57541
83.37942 47.160713 115.296
83.37945 47.16073 115.29601
85.63494 48.693336 114.59646
13.805504 2.305168 95.42946
16.133171 1.834618 96.97893
16.231407 1.626778 96.617256
19.108757 2.793907 97.38962
19.20794 2.617348 96.945244
21.999947 3.824242 97.74583
22.10006 3.683037 97.28539
21.999947 3.824242 97.74582
22.100044 3.683037 97.285385
25.018593 4.764397 97.79622
27.923866 5.921867 98.47517
30.639961 7.218086 99.7711
30.788414 7.12925 99.3975
33.35772 8.415535 100.93349
33.53672 8.331505 100.58886
35.942574 9.604469 102.31963
36.14843 9.516502 102.00188
38.44239 10.871483 103.87061
38.672066 10.774712 103.575325
40.87423 12.253044 105.42967
41.12078 12.150475 105.1308
43.4961 13.51899 106.54698
45.8536 14.860207 107.91165
48.067055 16.320381 109.433266
48.3086 16.215736 109.1129
50.902443 17.597557 110.07629
53.438988 19.076622 111.18943
53.59548 18.993187 110.84483
56.200356 20.478325 111.89941
56.338097 20.397835 111.54714
58.99102 21.916557 112.56974
61.132072 23.605232 114.39924
61.389854 23.496193 114.12745
63.498436 25.03315 115.787445
63.70678 24.842674 115.477325
63.49842 25.03315 115.787445
66.35607 26.669594 115.95675
66.49813 26.42524 115.64564
69.65191 29.252327 114.929436
71.22411 32.10961 113.83403
72.2936 34.330437 112.316124
72.29363 34.330437 112.31613
74.02285 36.614418 112.10649
75.42327 39.405937 114.044395
75.185356 39.36454 114.234184
75.42327 39.405937 114.04439
76.38787 42.0868 115.75308
76.52163 42.08071 115.56962
78.25378 44.034492 115.74723
78.30547 43.9712 115.542885
78.30544 43.9712 115.542885
80.63387 45.525078 115.57541
80.660545 45.469337 115.408485
83.3951 47.126274 115.181206
83.37942 47.16073 115.29601
83.395134 47.12629 115.18122
85.63497 48.69332 114.59645
16.231392 1.626778 96.61724
16.308937 1.494377 96.207886
19.20794 2.617332 96.94524
19.278862 2.532631 96.48245
22.100029 3.683037 97.285385
22.170876 3.631386 96.830864
22.100044 3.683037 97.28538
22.17086 3.631401 96.830864
25.018562 4.764381 97.79621
25.100243 4.722191 97.3716
27.923851 5.921852 98.47516
28.01992 5.884773 98.09418
30.788399 7.129234 99.39749
30.906837 7.097389 99.05258
33.536705 8.33149 100.58885
33.68406 8.302879 100.26569
36.148415 9.516487 102.00187
36.32447 9.487221 101.69116
38.875145 10.74308 103.266716
41.120766 12.150459 105.1308
41.34046 12.11927 104.80528
43.496086 13.518974 106.546974
43.72332 13.486946 106.20695
45.85357 14.860191 107.911644
46.084465 14.825508 107.572075
48.30857 16.215721 109.112885
48.518837 16.179008 108.78238
50.902428 17.597527 110.07627
51.068962 17.560616 109.75287
53.595467 18.993172 110.844826
53.72042 18.956947 110.52736
56.33808 20.39782 111.54713
56.44474 20.357979 111.23213
58.991005 21.916542 112.569725
59.14509 21.871895 112.28334
58.991005 21.916542 112.56973
61.389824 23.496178 114.12745
61.61448 23.422813 113.86641
63.706764 24.842659 115.47732
63.89051 24.68824 115.16258
63.706764 24.842644 115.47732
63.890495 24.688225 115.16258
66.49813 26.425224 115.645615
66.61654 26.218697 115.30867
69.65191 29.252312 114.92942
69.789696 29.082481 114.59295
69.65191 29.252327 114.92943
69.789696 29.082466 114.59296
71.22408 32.10961 113.83402
71.253716 32.00036 113.51051
72.2936 34.33042 112.31612
72.21752 34.195747 112.02812
72.29363 34.33042 112.316124
72.21755 34.195763 112.02813
74.02282 36.614403 112.10648
74.11465 36.592476 111.86576
75.42324 39.405922 114.04439
75.62423 39.4802 113.83958
75.42324 39.405907 114.04438
75.62423 39.480186 113.83958
76.52163 42.08068 115.56961
76.622856 42.09704 115.37362
78.30547 43.97117 115.542885
78.33456 43.933556 115.341515
78.30544 43.97117 115.542885
78.33456 43.93354 115.341515
80.660515 45.469322 115.40848
80.67547 45.438255 115.24628
83.3951 47.12626 115.1812
83.402794 47.10656 115.073135
83.402794 47.106575 115.07315
16.359718 1.447182 95.78623
19.321556 2.529472 96.03822
22.21569 3.648186 96.41258
25.157936 4.735725 96.98741
28.092827 5.891411 97.75286
31.000435 7.101616 98.74469
33.80378 8.30822 99.97511
36.470787 9.494545 101.40576
39.04586 10.75399 102.97399
41.524406 12.135033 104.4915
43.91343 13.503654 105.8795
46.27816 14.840279 107.24545
48.694252 16.18792 108.468094
51.20559 17.561272 109.45307
53.820793 18.95002 110.240715
56.52923 20.343224 110.95068
59.27523 21.850533 112.02309
59.275246 21.850517 112.02309
61.81565 23.372612 113.61528
64.05389 24.567955 114.84572
64.05389 24.56797 114.84571
66.707756 26.056389 114.96144
69.896355 28.931694 114.238014
69.896355 28.931694 114.23802
71.25469 31.90606 113.189575
72.12249 34.075157 111.74685
72.12252 34.075157 111.74686
74.173515 36.594185 111.62892
75.78295 39.576866 113.635345
76.694664 42.127373 115.18022
78.346306 43.916405 115.15074
78.346275 43.916405 115.15074
80.68096 45.426964 115.093094
83.4042 47.098488 114.97283
83.4042 47.09852 114.97285
16.382484 1.484001 95.37314
19.33979 2.590858 95.63149
22.240501 3.710381 96.04311
25.197868 4.783745 96.64899
28.14898 5.923775 97.45048
31.076256 7.125648 98.47089
33.90293 8.331291 99.716095
36.592567 9.521431 101.15004
39.18627 10.78904 102.7098
41.673378 12.177589 104.208176
44.067497 13.548042 105.583885
46.43656 14.883263 106.94891
48.839043 16.222816 108.18122
51.319054 17.582802 109.17937
53.905052 18.958534 109.97904
56.600212 20.342155 110.69205
59.392082 21.841713 111.779
59.392082 21.841728 111.77899
62.00477 23.336632 113.366516
64.20251 24.478493 114.52261
64.20251 24.478508 114.522606
66.77218 25.937798 114.61027
69.96224 28.807976 113.86365
69.96227 28.807976 113.863655
71.22704 31.826393 112.86755
72.0093 33.96595 111.468056
72.0093 33.96595 111.46806
74.19793 36.617485 111.392075
75.90185 39.69007 113.43628
75.90185 39.69007 113.43627
76.74291 42.164803 114.99704
78.34591 43.914513 114.972595
78.34588 43.914513 114.972595
80.679375 45.430367 114.95005
83.40118 47.098824 114.87931
83.40121 47.09887 114.879326
13.805519 2.305168 95.42947
16.38247 1.484001 95.37313
16.379845 1.591789 94.989685
19.339775 2.590843 95.631485
19.33892 2.699959 95.266365
22.24047 3.710365 96.043106
22.251213 3.803093 95.71478
22.240486 3.71035 96.0431
25.197853 4.783714 96.64898
25.225487 4.855904 96.34373
28.148949 5.923744 97.45047
28.193932 5.975685 97.17186
31.076225 7.125618 98.47088
31.140785 7.165535 98.21494
33.9029 8.331276 99.71608
33.989174 8.368813 99.47332
36.592567 9.5214 101.150024
36.6979 9.563896 100.91176
39.18627 10.789024 102.709785
39.304375 10.842323 102.46625
41.673347 12.177574 104.20817
41.795494 12.239632 103.949196
44.06745 13.548042 105.58388
44.194283 13.61219 105.313446
46.436546 14.883247 106.948906
46.569298 14.945885 106.67525
48.839027 16.222801 108.18121
48.962822 16.275948 107.91238
51.319023 17.582787 109.17935
51.41781 17.620155 108.91848
53.90502 18.958519 109.979034
53.979836 18.980385 109.725365
56.600197 20.34214 110.69204
56.66268 20.354713 110.43819
59.392067 21.841698 111.778984
59.50277 21.846474 111.53379
59.392067 21.841698 111.77898
62.004753 23.336586 113.36651
62.189888 23.318413 113.104866
64.20248 24.478477 114.522606
64.33666 24.42559 114.18527
64.20248 24.478477 114.5226
64.33666 24.425575 114.185265
66.77215 25.937782 114.61026
66.80828 25.865532 114.25721
69.96224 28.807945 113.86363
69.97286 28.72364 113.47713
69.96224 28.807945 113.86364
69.97286 28.723625 113.47713
71.22701 31.826378 112.86754
71.16241 31.765144 112.5411
72.00924 33.96592 111.46805
71.86999 33.872643 111.188614
72.00927 33.96592 111.468056
71.86999 33.872658 111.18862
74.19793 36.617455 111.39207
74.18383 36.66207 111.158104
75.90185 39.690056 113.43627
75.98492 39.81504 113.245384
75.90185 39.690056 113.436264
75.98492 39.81504 113.24538
76.74291 42.164787 114.99703
76.77221 42.207436 114.82251
78.34591 43.914482 114.97258
78.334984 43.925865 114.80256
78.34588 43.914467 114.97258
78.334984 43.925865 114.80254
80.679344 45.43035 114.95004
80.67159 45.446587 114.81368
83.401115 47.098824 114.879295
83.39428 47.10653 114.78911
83.401146 47.098854 114.87932
83.39431 47.10656 114.789116
16.37983 1.591774 94.989685
16.359108 1.740715 94.66469
19.338905 2.699928 95.266365
19.325691 2.836113 94.943596
22.251198 3.803062 95.714775
22.253487 3.91346 95.41389
22.251198 3.803078 95.714775
22.253502 3.913475 95.41389
25.225471 4.855873 96.34372
25.245918 4.943077 96.05689
28.193916 5.97567 97.17186
28.232643 6.040627 96.90392
31.140785 7.16552 98.214935
31.199547 7.216576 97.96479
33.98916 8.368813 99.473305
34.068993 8.416634 99.23535
36.697884 9.563881 100.91175
36.794426 9.617317 100.680084
39.304344 10.842293 102.46624
39.40928 10.907921 102.23309
41.79548 12.239616 103.949196
41.90133 12.314583 103.70372
44.194267 13.612175 105.31344
44.304756 13.689278 105.05676
46.569283 14.945885 106.67524
46.687294 15.020851 106.41354
48.962807 16.275948 107.91237
49.075356 16.3404 107.65128
51.417793 17.62014 108.91847
51.50927 17.667747 108.66018
53.97982 18.98037 109.72535
54.050453 19.01159 109.469444
56.66265 20.354698 110.43817
56.720802 20.377632 110.179474
59.502754 21.846474 111.53378
59.61239 21.861626 111.2793
59.612404 21.86164 111.2793
62.189873 23.318413 113.10486
62.37693 23.314629 112.82501
64.33663 24.425575 114.18526
64.46081 24.403084 113.83096
64.33663 24.42556 114.18526
64.46081 24.403053 113.830956
66.80828 25.865517 114.2572
66.821526 25.830528 113.901436
69.97286 28.723625 113.47712
69.93337 28.675621 113.08431
69.97286 28.72361 113.47712
69.93337 28.675606 113.08432
71.16241 31.76513 112.54109
71.06332 31.719582 112.20739
71.86996 33.872627 111.18861
71.704796 33.795296 110.903465
71.86996 33.872643 111.188614
71.704796 33.79531 110.90347
74.18377 36.662056 111.1581
74.13427 36.717155 110.938965
75.984856 39.815025 113.24538
76.03979 39.94242 113.07049
75.984856 39.815025 113.24537
76.03982 39.942406 113.07049
76.77218 42.207436 114.822495
76.78936 42.255074 114.649994
78.334984 43.92585 114.80254
78.31655 43.94628 114.63619
78.334984 43.925835 114.80254
78.31655 43.946266 114.636185
80.67156 45.446556 114.81368
80.65926 45.472008 114.68002
83.39428 47.106514 114.7891
83.384575 47.11927 114.6997
83.384575 47.1193 114.699715
POLYGONS 1959 7836
3 0 1 2
3 0 2 3
3 3 2 4
3 3 4 5
3 5 4 6
3 7 8 9
3 9 8 10
3 9 10 11
3 11 10 12
3 11 12 13
3 13 12 14
3 13 14 15
3 15 14 16
3 15 16 17
3 17 16 18
3 17 18 19
3 19 18 20
3 19 20 21
3 21 20 22
3 21 22 23
3 23 22 24
3 23 24 25
3 25 24 26
3 25 26 27
3 27 26 28
3 27 28 29
3 29 28 30
3 29 30 31
3 31 30 32
3 31 32 33
3 33 32 34
3 33 34 35
3 35 34 36
3 35 37 38
3 38 37 39
3 38 39 40
3 40 39 41
3 40 42 43
3 43 42 44
3 43 44 45
3 45 44 46
3 45 47 48
3 48 47 49
3 48 49 50
3 50 49 51
3 52 53 54
3 54 53 55
3 54 55 56
3 56 55 57
3 58 59 60
3 60 59 61
3 60 61 62
3 62 61 63
3 62 64 65
3 65 64 66
3 65 66 67
3 67 66 68
3 69 70 71
3 1 72 2
3 2 72 73
3 2 73 4
3 4 73 74
3 4 74 6
3 6 74 75
3 8 76 10
3 10 76 77
3 10 77 12
3 12 77 78
3 12 78 14
3 14 78 79
3 14 79 16
3 16 79 80
3 16 80 18
3 18 80 81
3 18 81 20
3 20 81 82
3 20 82 22
3 22 82 83
3 22 83 24
3 24 83 84
3 24 84 26
3 26 84 85
3 26 85 28
3 28 85 86
3 28 86 30
3 30 86 87
3 30 87 32
3 32 87 88
3 32 88 34
3 34 88 89
3 34 89 36
3 36 89 90
3 37 91 39
3 39 91 92
3 39 92 41
3 41 92 93
3 42 94 44
3 44 94 95
3 44 95 46
3 46 95 96
3 47 97 49
3 49 97 98
3 49 98 51
3 51 98 99
3 53 100 55
3 55 100 101
3 55 101 57
3 57 101 102
3 59 103 61
3 61 103 104
3 61 104 63
3 63 104 105
3 64 106 66
3 66 106 107
3 66 107 68
3 68 107 108
3 70 109 71
3 72 110 73
3 73 110 111
3 73 111 74
3 74 111 112
3 74 112 75
3 75 112 113
3 76 114 77
3 77 114 115
3 77 115 78
3 78 115 116
3 78 116 79
3 79 116 117
3 79 117 80
3 80 117 118
3 80 118 81
3 81 118 119
3 81 119 82
3 82 119 120
3 82 120 83
3 83 120 121
3 83 121 84
3 84 121 122
3 84 122 85
3 85 122 123
3 85 123 86
3 86 123 124
3 86 124 87
3 87 124 125
3 87 125 88
3 88 125 126
3 88 126 89
3 89 126 127
3 89 127 90
3 90 127 128
3 91 128 92
3 92 128 129
3 92 129 93
3 93 129 130
3 94 130 95
3 95 130 131
3 95 131 96
3 96 131 132
3 97 133 98
3 98 133 134
3 98 134 99
3 99 134 135
3 100 136 101
3 101 136 137
3 101 137 102
3 102 137 138
3 103 139 104
3 104 139 140
3 104 140 105
3 105 140 141
3 106 142 107
3 107 142 143
3 107 143 108
3 108 143 144
3 109 145 71
3 71 145 146
3 110 147 111
3 111 147 148
3 111 148 112
3 112 148 149
3 112 149 113
3 113 149 150
3 114 151 115
3 115 151 152
3 115 152 116
3 116 152 153
3 116 153 117
3 117 153 154
3 117 154 118
3 118 154 155
3 118 155 119
3 119 155 156
3 119 156 120
3 120 156 157
3 120 157 121
3 121 157 158
3 121 158 122
3 122 158 159
3 122 159 123
3 123 159 160
3 123 160 124
3 124 160 161
3 124 161 125
3 125 161 162
3 125 162 126
3 126 162 163
3 126 163 127
3 127 163 164
3 127 164 128
3 128 164 165
3 128 166 129
3 129 166 167
3 129 167 130
3 130 167 168
3 130 169 131
3 131 169 170
3 131 170 132
3 132 170 171
3 133 171 134
3 134 171 172
3 134 172 135
3 135 172 173
3 136 174 137
3 137 174 175
3 137 175 138
3 138 175 176
3 139 177 140
3 140 177 178
3 140 178 141
3 141 178 179
3 142 180 143
3 143 180 181
3 143 181 144
3 144 181 182
3 145 183 146
3 146 183 71
3 147 72 148
3 148 72 184
3 148 184 149
3 149 184 185
3 149 185 150
3 150 185 186
3 151 187 152
3 152 187 188
3 152 188 153
3 153 188 189
3 153 189 154
3 154 189 190
3 154 190 155
3 155 190 191
3 155 191 156
3 156 191 192
3 156 192 157
3 157 192 193
3 157 193 158
3 158 193 194
3 158 194 159
3 159 194 195
3 159 195 160
3 160 195 196
3 160 196 161
3 161 196 197
3 161 197 162
3 162 197 198
3 162 198 163
3 163 198 199
3 163 199 164
3 164 199 200
3 164 200 165
3 165 200 201
3 166 202 167
3 167 202 203
3 167 203 168
3 168 203 204
3 169 205 170
3 170 205 206
3 170 206 171
3 171 206 207
3 171 208 172
3 172 208 209
3 172 209 173
3 173 209 210
3 174 211 175
3 175 211 212
3 175 212 176
3 176 212 213
3 177 213 178
3 178 213 214
3 178 214 179
3 179 214 215
3 180 216 181
3 181 216 217
3 181 217 182
3 182 217 218
3 183 219 71
3 72 1 184
3 184 1 220
3 184 220 185
3 185 220 221
3 185 221 186
3 186 221 222
3 187 223 188
3 188 223 224
3 188 224 189
3 189 224 225
3 189 225 190
3 190 225 226
3 190 226 191
3 191 226 227
3 191 227 192
3 192 227 228
3 192 228 193
3 193 228 229
3 193 229 194
3 194 229 230
3 194 230 195
3 195 230 231
3 195 231 196
3 196 231 232
3 196 232 197
3 197 232 233
3 197 233 198
3 198 233 234
3 198 234 199
3 199 234 235
3 199 235 200
3 200 235 236
3 200 236 201
3 201 236 237
3 202 238 203
3 203 238 239
3 203 239 204
3 204 239 240
3 205 241 206
3 206 241 242
3 206 242 207
3 207 242 243
3 208 243 209
3 209 243 244
3 209 244 210
3 210 244 245
3 211 246 212
3 212 246 247
3 212 247 213
3 213 247 248
3 213 249 214
3 214 249 250
3 214 250 215
3 215 250 251
3 216 252 217
3 217 252 253
3 217 253 218
3 218 253 254
3 219 255 256
3 256 255 257
3 1 258 220
3 220 258 259
3 220 259 221
3 221 259 260
3 221 260 222
3 222 260 261
3 223 262 224
3 224 262 263
3 224 263 225
3 225 263 264
3 225 264 226
3 226 264 265
3 226 265 227
3 227 265 266
3 227 266 228
3 228 266 267
3 228 267 229
3 229 267 268
3 229 268 230
3 230 268 269
3 230 269 231
3 231 269 270
3 231 270 232
3 232 270 271
3 232 271 233
3 233 271 272
3 233 272 234
3 234 272 273
3 234 273 235
3 235 273 274
3 235 274 236
3 236 274 275
3 236 275 237
3 237 275 276
3 238 277 239
3 239 277 278
3 239 278 240
3 240 278 279
3 241 280 242
3 242 280 281
3 242 281 243
3 243 281 282
3 243 283 244
3 244 283 284
3 244 284 245
3 245 284 285
3 246 286 247
3 247 286 287
3 247 287 248
3 248 287 288
3 249 289 250
3 250 289 290
3 250 290 251
3 251 290 291
3 252 292 253
3 253 292 293
3 253 293 254
3 254 293 294
3 255 295 257
3 257 295 296
3 259 258 297
3 259 297 260
3 260 297 298
3 260 298 261
3 261 298 299
3 262 299 263
3 263 299 300
3 263 300 264
3 264 300 301
3 264 301 265
3 265 301 302
3 265 302 266
3 266 302 303
3 266 303 267
3 267 303 304
3 267 304 268
3 268 304 305
3 268 305 269
3 269 305 306
3 269 306 270
3 270 306 307
3 270 307 271
3 271 307 308
3 271 308 272
3 272 308 309
3 272 309 273
3 273 309 310
3 273 310 274
3 274 310 311
3 274 311 275
3 275 311 312
3 275 312 276
3 276 312 313
3 277 313 278
3 278 313 314
3 278 314 279
3 279 314 315
3 280 315 281
3 281 315 316
3 281 316 282
3 282 316 317
3 283 318 284
3 284 318 319
3 284 319 285
3 285 319 320
3 286 321 287
3 287 321 322
3 287 322 288
3 288 322 323
3 289 324 290
3 290 324 325
3 290 325 291
3 291 325 326
3 292 327 293
3 293 327 328
3 293 328 294
3 294 328 329
3 295 330 296
3 296 330 331
3 258 72 297
3 297 72 332
3 297 332 298
3 298 332 333
3 298 333 299
3 299 333 334
3 299 335 300
3 300 335 336
3 300 336 301
3 301 336 337
3 301 337 302
3 302 337 338
3 302 338 303
3 303 338 339
3 303 339 304
3 304 339 340
3 304 340 305
3 305 340 341
3 305 341 306
3 306 341 342
3 306 342 307
3 307 342 343
3 307 343 308
3 308 343 344
3 308 344 309
3 309 344 345
3 309 345 310
3 310 345 346
3 310 346 311
3 311 346 347
3 311 347 312
3 312 347 348
3 312 348 313
3 313 348 349
3 313 350 314
3 314 350 351
3 314 351 315
3 315 351 352
3 315 352 316
3 316 352 353
3 316 353 317
3 317 353 354
3 318 355 319
3 319 355 356
3 319 356 320
3 320 356 357
3 321 358 322
3 322 358 359
3 322 359 323
3 323 359 360
3 324 361 325
3 325 361 362
3 325 362 326
3 326 362 363
3 327 364 328
3 328 364 365
3 328 365 329
3 329 365 366
3 330 367 331
3 331 367 256
3 332 147 368
3 332 368 333
3 333 368 369
3 333 369 334
3 334 369 370
3 335 371 336
3 336 371 372
3 336 372 337
3 337 372 373
3 337 373 338
3 338 373 374
3 338 374 339
3 339 374 375
3 339 375 340
3 340 375 376
3 340 376 341
3 341 376 377
3 341 377 342
3 342 377 378
3 342 378 343
3 343 378 379
3 343 379 344
3 344 379 380
3 344 380 345
3 345 380 381
3 345 381 346
3 346 381 382
3 346 382 347
3 347 382 383
3 347 383 348
3 348 383 384
3 348 384 349
3 349 384 385
3 350 386 351
3 351 386 387
3 351 387 352
3 352 387 388
3 352 388 353
3 353 388 389
3 353 389 354
3 354 389 390
3 355 391 356
3 356 391 392
3 356 392 357
3 357 392 393
3 358 394 359
3 359 394 395
3 359 395 360
3 360 395 396
3 361 397 362
3 362 397 398
3 362 398 363
3 363 398 399
3 364 400 365
3 365 400 401
3 365 401 366
3 366 401 402
3 367 403 256
3 256 403 71
3 368 147 404
3 368 404 369
3 369 404 405
3 369 405 370
3 370 405 406
3 371 407 372
3 372 407 408
3 372 408 373
3 373 408 409
3 373 409 374
3 374 409 410
3 374 410 375
3 375 410 411
3 375 411 376
3 376 411 412
3 376 412 377
3 377 412 413
3 377 413 378
3 378 413 414
3 378 414 379
3 379 414 415
3 379 415 380
3 380 415 416
3 380 416 381
3 381 416 417
3 381 417 382
3 382 417 418
3 382 418 383
3 383 418 419
3 383 419 384
3 384 419 420
3 384 420 385
3 385 420 421
3 386 421 387
3 387 421 422
3 387 422 388
3 388 422 423
3 388 423 389
3 389 423 424
3 389 424 390
3 390 424 425
3 391 426 392
3 392 426 427
3 392 427 393
3 393 427 428
3 394 429 395
3 395 429 430
3 395 430 396
3 396 430 431
3 397 431 398
3 398 431 432
3 398 432 399
3 399 432 433
3 400 434 401
3 401 434 435
3 401 435 402
3 402 435 436
3 403 437 71
3 404 72 438
3 404 438 405
3 405 438 439
3 405 439 406
3 406 439 440
3 407 441 408
3 408 441 442
3 408 442 409
3 409 442 443
3 409 443 410
3 410 443 444
3 410 444 411
3 411 444 445
3 411 445 412
3 412 445 446
3 412 446 413
3 413 446 447
3 413 447 414
3 414 447 448
3 414 448 415
3 415 448 449
3 415 449 416
3 416 449 450
3 416 450 417
3 417 450 451
3 417 451 418
3 418 451 452
3 418 452 419
3 419 452 453
3 419 453 420
3 420 453 454
3 420 454 421
3 421 454 455
3 421 455 422
3 422 455 456
3 422 456 423
3 423 456 457
3 423 458 424
3 424 458 459
3 424 459 425
3 425 459 460
3 426 461 427
3 427 461 462
3 427 462 428
3 428 462 463
3 429 464 430
3 430 464 465
3 430 465 431
3 431 465 466
3 431 466 432
3 432 466 467
3 432 467 433
3 433 467 468
3 434 469 435
3 435 469 470
3 435 470 436
3 436 470 471
3 437 472 71
3 71 472 257
3 438 72 473
3 438 473 439
3 439 473 474
3 439 474 440
3 440 474 475
3 441 476 442
3 442 476 477
3 442 477 443
3 443 477 478
3 443 478 444
3 444 478 479
3 444 479 445
3 445 479 480
3 445 480 446
3 446 480 481
3 446 481 447
3 447 481 482
3 447 482 448
3 448 482 483
3 448 483 449
3 449 483 484
3 449 484 450
3 450 484 485
3 450 485 451
3 451 485 486
3 451 486 452
3 452 486 487
3 452 487 453
3 453 487 488
3 453 488 454
3 454 488 489
3 454 489 455
3 455 489 490
3 455 491 456
3 456 491 492
3 456 492 457
3 457 492 493
3 458 494 459
3 459 494 495
3 459 495 460
3 460 495 496
3 461 496 462
3 462 496 497
3 462 497 463
3 463 497 498
3 464 499 465
3 465 499 500
3 465 500 466
3 466 500 501
3 466 502 467
3 467 502 503
3 467 503 468
3 468 503 504
3 469 504 470
3 470 504 505
3 470 505 471
3 471 505 506
3 472 507 257
3 257 507 71
3 473 258 508
3 473 508 474
3 474 508 509
3 474 509 475
3 475 509 510
3 476 510 477
3 477 510 511
3 477 511 478
3 478 511 512
3 478 512 479
3 479 512 513
3 479 513 480
3 480 513 514
3 480 514 481
3 481 514 515
3 481 515 482
3 482 515 516
3 482 516 483
3 483 516 517
3 483 517 484
3 484 517 518
3 484 518 485
3 485 518 519
3 485 519 486
3 486 519 520
3 486 520 487
3 487 520 521
3 487 521 488
3 488 521 522
3 488 522 489
3 489 522 523
3 489 523 490
3 490 523 524
3 491 525 492
3 492 525 526
3 492 526 493
3 493 526 527
3 494 527 495
3 495 527 528
3 495 528 496
3 496 528 529
3 496 530 497
3 497 530 531
3 497 531 498
3 498 531 532
3 499 533 500
3 500 533 534
3 500 534 501
3 501 534 535
3 502 536 503
3 503 536 537
3 503 537 504
3 504 537 538
3 504 539 505
3 505 539 540
3 505 540 506
3 506 540 541
3 507 542 71
3 71 542 331
3 508 72 543
3 508 543 509
3 509 543 544
3 509 544 510
3 510 544 545
3 510 546 511
3 511 546 547
3 511 547 512
3 512 547 548
3 512 548 513
3 513 548 549
3 513 549 514
3 514 549 550
3 514 550 515
3 515 550 551
3 515 551 516
3 516 551 552
3 516 552 517
3 517 552 553
3 517 553 518
3 518 553 554
3 518 554 519
3 519 554 555
3 519 555 520
3 520 555 556
3 520 556 521
3 521 556 557
3 521 557 522
3 522 557 558
3 522 558 523
3 523 558 559
3 523 559 524
3 524 559 560
3 525 561 526
3 526 561 562
3 526 562 527
3 527 562 563
3 527 564 528
3 528 564 565
3 528 565 529
3 529 565 566
3 530 567 531
3 531 567 568
3 531 568 532
3 532 568 569
3 533 570 534
3 534 570 571
3 534 571 535
3 535 571 572
3 536 573 537
3 537 573 574
3 537 574 538
3 538 574 575
3 539 575 540
3 540 575 576
3 540 576 541
3 541 576 577
3 542 578 331
3 331 578 71
3 543 258 579
3 543 579 544
3 544 579 580
3 544 580 545
3 545 580 581
3 546 582 547
3 547 582 583
3 547 583 548
3 548 583 584
3 548 584 549
3 549 584 585
3 549 585 550
3 550 585 586
3 550 586 551
3 551 586 587
3 551 587 552
3 552 587 588
3 552 588 553
3 553 588 589
3 553 589 554
3 554 589 590
3 554 590 555
3 555 590 591
3 555 591 556
3 556 591 592
3 556 592 557
3 557 592 593
3 557 593 558
3 558 593 594
3 558 594 559
3 559 594 595
3 559 595 560
3 560 595 596
3 561 597 562
3 562 597 598
3 562 598 563
3 563 598 599
3 564 600 565
3 565 600 601
3 565 601 566
3 566 601 602
3 567 603 568
3 568 603 604
3 568 604 569
3 569 604 605
3 570 606 571
3 571 606 607
3 571 607 572
3 572 607 608
3 573 609 574
3 574 609 610
3 574 610 575
3 575 610 611
3 575 612 576
3 576 612 613
3 576 613 577
3 577 613 614
3 578 615 71
3 71 615 616
3 258 617 579
3 579 617 618
3 579 618 580
3 580 618 619
3 580 619 581
3 581 619 620
3 582 620 583
3 583 620 621
3 583 621 584
3 584 621 622
3 584 622 585
3 585 622 623
3 585 623 586
3 586 623 624
3 586 624 587
3 587 624 625
3 587 625 588
3 588 625 626
3 588 626 589
3 589 626 627
3 589 627 590
3 590 627 628
3 590 628 591
3 591 628 629
3 591 629 592
3 592 629 630
3 592 630 593
3 593 630 631
3 593 631 594
3 594 631 632
3 594 632 595
3 595 632 633
3 595 633 596
3 596 633 634
3 597 635 598
3 598 635 636
3 598 636 599
3 599 636 637
3 600 637 601
3 601 637 638
3 601 638 602
3 602 638 639
3 603 640 604
3 604 640 641
3 604 641 605
3 605 641 642
3 606 643 607
3 607 643 644
3 607 644 608
3 608 644 645
3 609 645 610
3 610 645 646
3 610 646 611
3 611 646 647
3 612 648 613
3 613 648 649
3 613 649 614
3 614 649 650
3 615 651 616
3 616 651 652
3 617 72 618
3 618 72 653
3 618 653 619
3 619 653 654
3 619 654 620
3 620 654 655
3 620 656 621
3 621 656 657
3 621 657 622
3 622 657 658
3 622 658 623
3 623 658 659
3 623 659 624
3 624 659 660
3 624 660 625
3 625 660 661
3 625 661 626
3 626 661 662
3 626 662 627
3 627 662 663
3 627 663 628
3 628 663 664
3 628 664 629
3 629 664 665
3 629 665 630
3 630 665 666
3 630 666 631
3 631 666 667
3 631 667 632
3 632 667 668
3 632 668 633
3 633 668 669
3 633 669 634
3 634 669 670
3 635 670 636
3 636 670 671
3 636 671 637
3 637 671 672
3 637 673 638
3 638 673 674
3 638 674 639
3 639 674 675
3 640 676 641
3 641 676 677
3 641 677 642
3 642 677 678
3 643 679 644
3 644 679 680
3 644 680 645
3 645 680 681
3 645 681 646
3 646 681 682
3 646 682 647
3 647 682 683
3 648 684 649
3 649 684 685
3 649 685 650
3 650 685 686
3 651 687 652
3 652 687 71
3 72 688 689
3 689 688 690
3 689 690 654
3 654 690 691
3 654 691 692
3 692 691 693
3 656 693 694
3 694 693 695
3 694 695 696
3 696 695 697
3 696 697 659
3 659 697 698
3 659 698 699
3 699 698 700
3 699 700 701
3 701 700 702
3 701 702 703
3 703 702 704
3 703 704 705
3 705 704 706
3 705 706 707
3 707 706 708
3 707 708 709
3 709 708 710
3 709 710 711
3 711 710 712
3 711 712 713
3 713 712 714
3 713 714 715
3 715 714 716
3 715 716 717
3 717 716 718
3 717 718 719
3 719 718 720
3 721 720 722
3 722 720 723
3 722 723 672
3 672 723 724
3 725 726 727
3 727 726 728
3 727 728 729
3 729 728 730
3 729 730 731
3 731 730 732
3 731 732 678
3 678 732 733
3 679 734 735
3 735 734 736
3 735 736 737
3 737 736 738
3 739 738 740
3 740 738 741
3 740 741 742
3 742 741 743
3 684 744 745
3 745 744 746
3 745 746 747
3 747 746 748
3 749 750 71
3 71 750 751
3 752 72 753
3 753 72 754
3 753 754 755
3 755 754 756
3 755 756 757
3 757 756 758
3 759 760 761
3 761 760 762
3 761 762 763
3 763 762 764
3 763 764 765
3 765 764 766
3 765 766 767
3 767 766 768
3 767 768 769
3 769 768 770
3 769 770 771
3 771 770 772
3 771 772 773
3 773 772 774
3 773 774 775
3 775 774 776
3 775 776 777
3 777 776 778
3 777 778 779
3 779 778 780
3 779 780 781
3 781 780 782
3 781 782 783
3 783 782 784
3 783 784 785
3 785 784 786
3 785 786 787
3 787 786 788
3 789 790 791
3 791 790 792
3 791 792 793
3 793 792 794
3 795 796 797
3 797 796 798
3 797 798 799
3 799 798 800
3 801 802 803
3 803 802 804
3 803 804 733
3 733 804 805
3 806 807 808
3 808 807 809
3 808 809 810
3 810 809 811
3 810 812 813
3 813 812 814
3 813 814 743
3 743 814 815
3 744 816 817
3 817 816 818
3 817 818 819
3 819 818 820
3 821 822 823
3 823 822 71
3 754 147 824
3 754 824 756
3 756 824 825
3 756 825 758
3 758 825 826
3 760 826 762
3 762 826 827
3 762 827 764
3 764 827 828
3 764 828 766
3 766 828 829
3 766 829 768
3 768 829 830
3 768 830 770
3 770 830 831
3 770 831 772
3 772 831 832
3 772 832 774
3 774 832 833
3 774 833 776
3 776 833 834
3 776 834 778
3 778 834 835
3 778 835 780
3 780 835 836
3 780 836 782
3 782 836 837
3 782 837 784
3 784 837 838
3 784 838 786
3 786 838 839
3 786 839 788
3 788 839 840
3 790 841 792
3 792 841 842
3 792 842 794
3 794 842 843
3 796 844 798
3 798 844 845
3 798 845 800
3 800 845 846
3 802 847 804
3 804 847 848
3 804 848 805
3 805 848 849
3 807 850 809
3 809 850 851
3 809 851 811
3 811 851 852
3 812 853 814
3 814 853 854
3 814 854 815
3 815 854 855
3 816 856 818
3 818 856 857
3 818 857 820
3 820 857 858
3 822 859 71
3 147 72 824
3 824 72 860
3 824 860 825
3 825 860 861
3 825 861 826
3 826 861 862
3 826 863 827
3 827 863 864
3 827 864 828
3 828 864 865
3 828 865 829
3 829 865 866
3 829 866 830
3 830 866 867
3 830 867 831
3 831 867 868
3 831 868 832
3 832 868 869
3 832 869 833
3 833 869 870
3 833 870 834
3 834 870 871
3 834 871 835
3 835 871 872
3 835 872 836
3 836 872 873
3 836 873 837
3 837 873 874
3 837 874 838
3 838 874 875
3 838 875 839
3 839 875 876
3 839 876 840
3 840 876 877
3 841 878 842
3 842 878 879
3 842 879 843
3 843 879 880
3 844 880 845
3 845 880 881
3 845 881 846
3 846 881 882
3 847 883 848
3 848 883 884
3 848 884 849
3 849 884 885
3 850 886 851
3 851 886 887
3 851 887 852
3 852 887 888
3 853 889 854
3 854 889 890
3 854 890 855
3 855 890 891
3 856 892 857
3 857 892 893
3 857 893 858
3 858 893 894
3 859 895 71
3 72 896 897
3 897 896 898
3 897 898 899
3 899 898 900
3 899 900 901
3 901 900 902
3 901 903 904
3 904 903 905
3 904 905 906
3 906 905 907
3 906 907 908
3 908 907 909
3 908 909 867
3 867 909 910
3 867 910 868
3 868 910 911
3 868 911 912
3 912 911 913
3 912 913 914
3 914 913 915
3 914 915 871
3 871 915 916
3 871 916 872
3 872 916 917
3 872 917 918
3 918 917 919
3 918 919 874
3 874 919 920
3 874 920 921
3 921 920 922
3 921 922 923
3 923 922 924
3 923 924 925
3 925 924 926
3 927 928 879
3 879 928 929
3 879 929 930
3 930 929 931
3 932 933 934
3 934 933 935
3 934 935 936
3 936 935 937
3 938 939 940
3 940 939 941
3 940 941 942
3 942 941 943
3 944 945 946
3 946 945 947
3 946 947 948
3 948 947 949
3 948 950 890
3 890 950 951
3 890 951 891
3 891 951 952
3 892 953 954
3 954 953 955
3 954 955 894
3 894 955 956
3 957 958 959
3 959 958 71
3 72 258 898
3 898 258 960
3 898 960 900
3 900 960 961
3 900 961 962
3 962 961 963
3 964 965 966
3 966 965 967
3 966 967 907
3 907 967 968
3 907 968 909
3 909 968 969
3 909 969 910
3 910 969 970
3 910 970 911
3 911 970 971
3 911 971 913
3 913 971 972
3 913 972 973
3 973 972 974
3 973 974 975
3 975 974 976
3 975 976 917
3 917 976 977
3 917 977 919
3 919 977 978
3 919 978 979
3 979 978 980
3 979 980 922
3 922 980 981
3 922 981 982
3 982 981 983
3 982 983 926
3 926 983 984
3 928 985 929
3 929 985 986
3 929 986 987
3 987 986 988
3 933 989 990
3 990 989 991
3 990 991 937
3 937 991 992
3 937 993 941
3 941 993 994
3 941 994 995
3 995 994 996
3 945 997 998
3 998 997 999
3 998 999 949
3 949 999 1000
3 950 1001 951
3 951 1001 1002
3 951 1002 1003
3 1003 1002 1004
3 953 1005 955
3 955 1005 1006
3 955 1006 956
3 956 1006 1007
3 958 1008 71
3 71 1008 256
3 258 110 960
3 960 110 1009
3 960 1009 961
3 961 1009 1010
3 961 1010 963
3 963 1010 1011
3 965 1012 967
3 967 1012 1013
3 967 1013 968
3 968 1013 1014
3 968 1014 969
3 969 1014 1015
3 969 1015 970
3 970 1015 1016
3 970 1016 971
3 971 1016 1017
3 971 1017 972
3 972 1017 1018
3 972 1018 974
3 974 1018 1019
3 974 1019 976
3 976 1019 1020
3 976 1020 977
3 977 1020 1021
3 977 1021 978
3 978 1021 1022
3 978 1022 980
3 980 1022 1023
3 980 1023 981
3 981 1023 1024
3 981 1024 983
3 983 1024 1025
3 983 1025 984
3 984 1025 1026
3 985 1027 986
3 986 1027 1028
3 986 1028 988
3 988 1028 1029
3 989 1029 991
3 991 1029 1030
3 991 1030 992
3 992 1030 1031
3 993 1032 994
3 994 1032 1033
3 994 1033 996
3 996 1033 1034
3 997 1035 999
3 999 1035 1036
3 999 1036 1000
3 1000 1036 1037
3 1001 1038 1002
3 1002 1038 1039
3 1002 1039 1004
3 1004 1039 1040
3 1005 1041 1006
3 1006 1041 1042
3 1006 1042 1007
3 1007 1042 1043
3 1008 1044 256
3 256 1044 1045
3 110 1046 1009
3 1009 1046 1047
3 1009 1047 1010
3 1010 1047 1048
3 1010 1048 1011
3 1011 1048 1049
3 1012 1049 1013
3 1013 1049 1050
3 1013 1050 1014
3 1014 1050 1051
3 1014 1051 1015
3 1015 1051 1052
3 1015 1052 1016
3 1016 1052 1053
3 1016 1053 1017
3 1017 1053 1054
3 1017 1054 1018
3 1018 1054 1055
3 1018 1055 1019
3 1019 1055 1056
3 1019 1056 1020
3 1020 1056 1057
3 1020 1057 1021
3 1021 1057 1058
3 1021 1058 1022
3 1022 1058 1059
3 1022 1059 1023
3 1023 1059 1060
3 1023 1060 1024
3 1024 1060 1061
3 1024 1061 1025
3 1025 1061 1062
3 1025 1062 1026
3 1026 1062 1063
3 1027 1064 1028
3 1028 1064 1065
3 1028 1065 1029
3 1029 1065 1066
3 1029 1067 1030
3 1030 1067 1068
3 1030 1068 1031
3 1031 1068 1069
3 1032 1070 1033
3 1033 1070 1071
3 1033 1071 1034
3 1034 1071 1072
3 1035 1073 1036
3 1036 1073 1074
3 1036 1074 1037
3 1037 1074 1075
3 1038 1076 1039
3 1039 1076 1077
3 1039 1077 1040
3 1040 1077 1078
3 1041 1078 1042
3 1042 1078 1079
3 1042 1079 1043
3 1043 1079 1080
3 1044 1081 1045
3 1045 1081 1082
3 617 1083 1084
3 1084 1083 1085
3 1084 1085 1086
3 1086 1085 1087
3 1086 1087 1088
3 1088 1087 1089
3 1090 1091 1050
3 1050 1091 1092
3 1050 1092 1051
3 1051 1092 1093
3 1051 1093 1094
3 1094 1093 1095
3 1094 1095 1096
3 1096 1095 1097
3 1096 1097 1098
3 1098 1097 1099
3 1098 1099 1100
3 1100 1099 1101
3 1100 1101 1102
3 1102 1101 1103
3 1102 1103 1057
3 1057 1103 1104
3 1057 1104 1058
3 1058 1104 1105
3 1058 1105 1106
3 1106 1105 1107
3 1106 1107 1060
3 1060 1107 1108
3 1060 1108 1109
3 1109 1108 1110
3 1109 1110 1111
3 1111 1110 1112
3 1111 1112 1063
3 1063 1112 1113
3 1064 1113 1114
3 1114 1113 1115
3 1114 1115 1116
3 1116 1115 1117
3 1118 1117 1119
3 1119 1117 1120
3 1119 1120 1069
3 1069 1120 1121
3 1070 1121 1071
3 1071 1121 1122
3 1071 1122 1072
3 1072 1122 1123
3 1073 1124 1074
3 1074 1124 1125
3 1074 1125 1075
3 1075 1125 1126
3 1127 1128 1129
3 1129 1128 1130
3 1129 1130 1131
3 1131 1130 1132
3 1078 1133 1134
3 1134 1133 1135
3 1134 1135 1080
3 1080 1135 1136
3 1137 1138 1139
3 1139 1138 331
3 1140 72 1141
3 1140 1141 1142
3 1142 1141 1143
3 1142 1143 1144
3 1144 1143 1145
3 1146 1147 1148
3 1148 1147 1149
3 1148 1149 1150
3 1150 1149 1151
3 1150 1151 1152
3 1152 1151 1153
3 1152 1153 1154
3 1154 1153 1155
3 1154 1155 1156
3 1156 1155 1157
3 1156 1157 1101
3 1101 1157 1158
3 1101 1158 1159
3 1159 1158 1160
3 1159 1160 1161
3 1161 1160 1162
3 1161 1162 1163
3 1163 1162 1164
3 1163 1164 1165
3 1165 1164 1166
3 1165 1166 1167
3 1167 1166 1168
3 1167 1168 1169
3 1169 1168 1170
3 1169 1170 1171
3 1171 1170 1172
3 1171 1172 1173
3 1173 1172 1174
3 1175 1174 1176
3 1176 1174 1177
3 1176 1177 1178
3 1178 1177 1179
3 1180 1181 1182
3 1182 1181 1183
3 1182 1183 1184
3 1184 1183 1185
3 1186 1187 1188
3 1188 1187 1189
3 1188 1189 1190
3 1190 1189 1191
3 1192 1193 1194
3 1194 1193 1195
3 1194 1195 1196
3 1196 1195 1197
3 1198 1199 1200
3 1200 1199 1201
3 1200 1201 1202
3 1202 1201 1203
3 1204 1205 1206
3 1206 1205 1207
3 1206 1207 1208
3 1208 1207 1209
3 1136 1210 652
3 652 1210 1082
3 1141 1 1211
3 1141 1211 1143
3 1143 1211 1212
3 1143 1212 1145
3 1145 1212 1213
3 1147 1213 1149
3 1149 1213 1214
3 1149 1214 1151
3 1151 1214 1215
3 1151 1215 1153
3 1153 1215 1216
3 1153 1216 1155
3 1155 1216 1217
3 1155 1217 1157
3 1157 1217 1218
3 1157 1218 1158
3 1158 1218 1219
3 1158 1219 1160
3 1160 1219 1220
3 1160 1220 1162
3 1162 1220 1221
3 1162 1221 1164
3 1164 1221 1222
3 1164 1222 1166
3 1166 1222 1223
3 1166 1223 1168
3 1168 1223 1224
3 1168 1224 1170
3 1170 1224 1225
3 1170 1225 1172
3 1172 1225 1226
3 1172 1226 1174
3 1174 1226 1227
3 1174 1228 1177
3 1177 1228 1229
3 1177 1229 1179
3 1179 1229 1230
3 1181 1231 1183
3 1183 1231 1232
3 1183 1232 1185
3 1185 1232 1233
3 1187 1234 1189
3 1189 1234 1235
3 1189 1235 1191
3 1191 1235 1236
3 1193 1237 1195
3 1195 1237 1238
3 1195 1238 1197
3 1197 1238 1239
3 1199 1239 1201
3 1201 1239 1240
3 1201 1240 1203
3 1203 1240 1241
3 1205 1242 1207
3 1207 1242 1243
3 1207 1243 1209
3 1209 1243 1244
3 1210 1245 1082
3 1082 1245 71
3 1 752 1211
3 1211 752 1246
3 1211 1246 1212
3 1212 1246 1247
3 1212 1247 1213
3 1213 1247 1248
3 1213 1248 1214
3 1214 1248 1249
3 1214 1249 1215
3 1215 1249 1250
3 1215 1250 1216
3 1216 1250 1251
3 1216 1251 1217
3 1217 1251 1252
3 1217 1252 1218
3 1218 1252 1253
3 1218 1253 1219
3 1219 1253 1254
3 1219 1254 1220
3 1220 1254 1255
3 1220 1255 1221
3 1221 1255 1256
3 1221 1256 1222
3 1222 1256 1257
3 1222 1257 1223
3 1223 1257 1258
3 1223 1258 1224
3 1224 1258 1259
3 1224 1259 1225
3 1225 1259 1260
3 1225 1260 1226
3 1226 1260 1261
3 1226 1261 1227
3 1227 1261 1262
3 1228 1263 1229
3 1229 1263 1264
3 1229 1264 1230
3 1230 1264 1265
3 1231 1266 1232
3 1232 1266 1267
3 1232 1267 1233
3 1233 1267 1268
3 1234 1269 1235
3 1235 1269 1270
3 1235 1270 1236
3 1236 1270 1271
3 1237 1272 1238
3 1238 1272 1273
3 1238 1273 1239
3 1239 1273 1274
3 1239 1275 1240
3 1240 1275 1276
3 1240 1276 1241
3 1241 1276 1277
3 1242 1278 1243
3 1243 1278 1279
3 1243 1279 1244
3 1244 1279 1280
3 1245 1281 71
3 71 1281 823
3 688 1282 1283
3 1283 1282 1284
3 1283 1284 1285
3 1285 1284 1286
3 1285 1286 1287
3 1287 1286 1288
3 1289 1288 1290
3 1290 1288 1291
3 1290 1291 1292
3 1292 1291 1293
3 1292 1293 1294
3 1294 1293 1295
3 1294 1295 1296
3 1296 1295 1297
3 1296 1297 1298
3 1298 1297 1299
3 1298 1299 1300
3 1300 1299 1301
3 1300 1301 1302
3 1302 1301 1303
3 1302 1303 1304
3 1304 1303 1305
3 1304 1305 1306
3 1306 1305 1307
3 1306 1307 1308
3 1308 1307 1309
3 1308 1309 1310
3 1310 1309 1311
3 1310 1311 1312
3 1312 1311 1313
3 1312 1313 1314
3 1314 1313 1315
3 1314 1315 1316
3 1316 1315 1317
3 1318 1317 1319
3 1319 1317 1320
3 1319 1320 1321
3 1321 1320 1322
3 1323 1324 1325
3 1325 1324 1326
3 1325 1326 1327
3 1327 1326 1328
3 1329 1330 1331
3 1331 1330 1332
3 1331 1332 1333
3 1333 1332 1334
3 1335 1336 1337
3 1337 1336 1338
3 1337 1338 1339
3 1339 1338 1340
3 1341 1342 1343
3 1343 1342 1344
3 1343 1344 1345
3 1345 1344 1346
3 1347 1348 1349
3 1349 1348 1350
3 1349 1350 1351
3 1351 1350 1352
3 1353 1354 751
3 751 1354 296
3 1355 72 1356
3 1355 1356 1357
3 1357 1356 1358
3 1357 1358 1359
3 1359 1358 1360
3 1361 1362 1363
3 1363 1362 1364
3 1363 1364 1365
3 1365 1364 1366
3 1365 1366 1367
3 1367 1366 1368
3 1367 1368 1369
3 1369 1368 1370
3 1369 1370 1371
3 1371 1370 1372
3 1371 1372 1373
3 1373 1372 1374
3 1373 1374 1375
3 1375 1374 1376
3 1375 1376 1377
3 1377 1376 1378
3 1377 1378 1379
3 1379 1378 1380
3 1379 1380 1381
3 1381 1380 1382
3 1381 1382 1383
3 1383 1382 1384
3 1383 1384 1385
3 1385 1384 1386
3 1385 1386 1387
3 1387 1386 1388
3 1387 1388 1389
3 1389 1388 1390
3 1389 1391 1392
3 1392 1391 1393
3 1392 1393 1394
3 1394 1393 1395
3 1396 1397 1398
3 1398 1397 1399
3 1398 1399 1400
3 1400 1399 1401
3 1402 1403 1404
3 1404 1403 1405
3 1404 1405 1406
3 1406 1405 1407
3 1408 1409 1410
3 1410 1409 1411
3 1410 1411 1412
3 1412 1411 1413
3 1414 1415 1416
3 1416 1415 1417
3 1416 1417 1418
3 1418 1417 1419
3 1420 1421 1422
3 1422 1421 1423
3 1422 1423 1424
3 1424 1423 1425
3 1352 1426 71
3 71 1426 1082
3 1356 72 0
3 1356 0 1358
3 1358 0 3
3 1358 3 1360
3 1360 3 5
3 1362 7 1364
3 1364 7 9
3 1364 9 1366
3 1366 9 11
3 1366 11 1368
3 1368 11 13
3 1368 13 1370
3 1370 13 15
3 1370 15 1372
3 1372 15 17
3 1372 17 1374
3 1374 17 19
3 1374 19 1376
3 1376 19 21
3 1376 21 1378
3 1378 21 23
3 1378 23 1380
3 1380 23 25
3 1380 25 1382
3 1382 25 27
3 1382 27 1384
3 1384 27 29
3 1384 29 1386
3 1386 29 31
3 1386 31 1388
3 1388 31 33
3 1388 33 1390
3 1390 33 35
3 1391 35 1393
3 1393 35 38
3 1393 38 1395
3 1395 38 40
3 1397 40 1399
3 1399 40 43
3 1399 43 1401
3 1401 43 45
3 1403 45 1405
3 1405 45 48
3 1405 48 1407
3 1407 48 50
3 1409 52 1411
3 1411 52 54
3 1411 54 1413
3 1413 54 56
3 1415 58 1417
3 1417 58 60
3 1417 60 1419
3 1419 60 62
3 1421 62 1423
3 1423 62 65
3 1423 65 1425
3 1425 65 67
3 1426 69 1082
