# vtk DataFile Version 2.0
File written by itkPolyDataMeshIO
ASCII
DATASET POLYDATA
POINTS 430 float
-7.569969 3.941216 102.951614
-8.941322 2.451042 99.87506
-7.340385 4.32093 102.5626
-1.899315 0.121513 102.82787
-1.743599 0.55407 102.362885
5.60331 -3.113457 102.54455
5.564369 -2.665062 101.973145
11.682549 -4.1493 102.17847
11.469444 -3.704262 101.51498
15.515846 -3.782417 101.571396
15.265358 -3.315269 100.86478
18.996117 -2.477287 100.700935
18.752785 -2.023369 99.90359
22.254585 0.117851 98.96006
22.092812 0.419563 97.88146
26.243034 2.763359 97.10419
26.145042 2.946129 95.92772
31.271126 5.460228 96.8487
31.187569 5.616158 95.75835
36.738716 8.680199 98.49296
36.670403 8.807579 97.431076
42.30735 11.745842 100.50937
42.28031 11.796181 99.43855
48.215126 14.450142 102.60603
48.24415 14.396034 101.51238
53.511314 16.833702 105.30161
53.577705 16.711174 104.212395
57.941277 19.018211 108.10648
58.022087 18.877708 107.14554
61.419212 20.880058 109.95061
61.506783 20.739891 109.1932
64.16439 19.24215 109.42737
64.16439 19.242134 109.42737
-8.941338 2.451027 99.87505
-7.047768 4.649651 101.94046
-1.52906 0.910332 101.65676
5.592644 -2.336891 101.171265
11.343727 -3.421761 100.61767
15.114159 -3.033241 99.88762
18.631691 -1.797508 98.84175
22.117699 0.373238 96.75533
26.247124 2.75576 94.84838
31.2696 5.463097 94.80266
36.749504 8.659981 96.5648
42.401344 11.570381 98.575554
48.439278 14.032143 100.579285
53.79696 16.303566 103.27493
58.22146 18.513695 106.269264
61.69645 20.40374 108.39773
-6.681129 4.75074 100.90653
-1.254692 1.012688 100.6425
5.717812 -2.278297 100.17199
11.367531 -3.42971 99.604965
15.136894 -3.075706 98.83386
18.6959 -1.91732 97.77695
22.291664 0.048775 95.85192
26.471764 2.33683 94.06403
31.465752 5.097359 94.044304
36.92811 8.327003 95.839905
42.619316 11.163963 97.87963
48.739235 13.472908 99.90312
54.103676 15.732735 102.62597
58.497734 18.003838 105.59
61.976585 19.892006 107.68563
64.16439 19.24215 109.427376
-8.941307 2.451042 99.87507
-6.400719 4.33358 99.69139
-1.010353 0.666267 99.536026
5.915718 -2.585426 99.18135
11.534691 -3.733498 98.70598
15.306648 -3.392204 97.97704
18.895058 -2.28875 96.97488
22.534523 -0.404228 95.26818
26.739082 1.838295 93.58339
31.723045 4.617592 93.51572
37.16938 7.877083 95.29547
42.88241 10.673302 97.39053
49.049614 12.894173 99.52402
54.4094 15.163307 102.285904
58.797356 17.448097 105.15547
62.322624 19.250526 107.1462
-6.325768 3.582573 98.814964
-0.881691 0.008919 98.71769
6.1157 -3.133644 98.45638
11.768059 -4.190102 98.085304
15.532127 -3.812737 97.42702
19.132088 -2.730827 96.491615
22.782448 -0.866661 94.94283
27.00689 1.338783 93.321495
32.00054 4.099968 93.19963
37.434578 7.382439 94.95059
43.143196 10.186928 97.1056
49.305626 12.41671 99.36674
54.660606 14.695229 102.1593
59.06614 16.94793 104.94124
62.639565 18.658165 106.84629
64.16436 19.24215 109.42737
-8.941338 2.451042 99.87505
-8.941322 2.451057 99.87506
-6.390373 2.919701 98.44551
-0.881691 0.008934 98.7177
-0.855492 -0.640999 98.3147
6.115685 -3.133644 98.45638
6.272682 -3.705223 98.062965
11.768044 -4.190102 98.0853
12.001305 -4.659782 97.72786
15.532112 -3.812737 97.42702
15.761147 -4.239922 97.10208
19.132088 -2.730827 96.49162
19.368385 -3.171562 96.21802
22.782448 -0.866661 94.94284
23.025673 -1.320244 94.78095
27.006874 1.338783 93.3215
27.271507 0.845253 93.21084
32.28071 3.577446 93.05404
37.434578 7.382454 94.95059
37.702385 6.882957 94.77741
43.38903 9.728447 96.97678
49.517143 12.022346 99.33251
54.66062 14.695229 102.1593
54.870964 14.303246 102.150154
59.066124 16.947914 104.94123
59.289482 16.531456 104.88642
62.639565 18.65815 106.84628
62.856895 18.249443 106.75871
-6.479179 2.444176 98.31719
-0.869225 -1.164787 98.15382
6.398613 -4.217155 97.88197
12.229485 -5.120216 97.53571
15.997475 -4.680641 96.90976
19.608437 -3.619225 96.069214
23.27082 -1.777428 94.73125
27.531944 0.359566 93.220795
32.551933 3.071602 93.04931
37.963234 6.396416 94.746475
43.625923 9.286644 96.97116
49.719658 11.644691 99.38418
55.075706 13.921669 102.22462
59.49447 16.148476 104.93714
63.025 17.931313 106.781715
64.16439 19.242165 109.427376
-8.941338 2.451042 99.87506
-6.562965 2.098274 98.289085
-0.897743 -1.601936 98.112015
6.516716 -4.698387 97.82485
12.472038 -5.605797 97.45728
16.250084 -5.151772 96.82201
19.844765 -4.060005 96.025024
23.503899 -2.212181 94.78259
27.77433 -0.092628 93.33629
32.80282 2.603569 93.16219
38.211266 5.933769 94.837975
43.85676 8.856071 97.07737
49.92634 11.259239 99.52639
55.28579 13.529945 102.39462
59.699577 15.764366 105.09511
63.201744 17.59391 106.9063
64.16439 19.24215 109.42736
-8.941307 2.451057 99.87506
-8.941307 2.451057 99.87507
-6.56292 2.098289 98.28909
-6.674812 1.725243 98.32069
-0.897728 -1.601936 98.11203
-0.94558 -2.030388 98.14826
6.516731 -4.698387 97.82486
6.628319 -5.175194 97.868546
12.472084 -5.605782 97.4573
12.722572 -6.106987 97.49491
16.2501 -5.151772 96.82202
16.51278 -5.641563 96.84596
19.84478 -4.060005 96.02503
20.08268 -4.503593 96.07869
23.503914 -2.212166 94.7826
23.728874 -2.631676 94.92861
27.77436 -0.092613 93.336296
27.996758 -0.507393 93.54672
32.80285 2.603584 93.16219
33.02967 2.180565 93.376915
38.211296 5.933784 94.83799
38.443794 5.500206 95.04516
43.85679 8.856087 97.077385
44.08184 8.436333 97.30217
49.92637 11.259254 99.5264
50.140038 10.86071 99.78572
55.28579 13.529976 102.39463
55.50567 13.119804 102.69997
59.699593 15.764381 105.09512
59.90397 15.380653 105.39429
63.201775 17.59391 106.90632
63.363106 17.283424 107.15042
64.16442 19.242165 109.427376
-6.830345 1.291252 98.43025
-1.01963 -2.482292 98.26912
6.725639 -5.654579 98.01701
12.966667 -6.599907 97.65522
16.773064 -6.127113 96.99001
20.319069 -4.944557 96.236626
23.947304 -3.039146 95.182175
28.20382 -0.893623 93.86476
33.23635 1.795097 93.70123
38.65879 5.099205 95.379654
44.296333 8.036293 97.67088
50.35308 10.463295 100.20983
55.71949 12.720818 103.19375
60.086296 15.037376 105.86736
63.487587 17.041023 107.51569
-7.002785 0.880547 98.61448
-1.116402 -2.930565 98.48444
6.801659 -6.11895 98.277534
13.194069 -7.064812 97.94313
17.025368 -6.597679 97.26829
20.554497 -5.383659 96.52587
24.161888 -3.439354 95.59624
28.39991 -1.259315 94.350464
33.424065 1.445015 94.17759
38.84739 4.747459 95.868164
44.482155 7.689644 98.21659
50.536613 10.120903 100.855804
55.887016 12.408012 103.92353
60.212563 14.797813 106.53922
63.56556 16.884483 108.03116
-8.941322 2.451042 99.87507
-8.941307 2.451042 99.87506
-7.002785 0.880547 98.61447
-7.196007 0.50515 98.89219
-1.234596 -3.341164 98.797035
6.801659 -6.11895 98.27753
6.851662 -6.534904 98.647675
13.194069 -7.064812 97.94312
13.392799 -7.476311 98.35995
17.025368 -6.597694 97.268295
17.257118 -7.029991 97.696304
20.778145 -5.800819 96.98475
24.347466 -3.785515 96.2246
28.399925 -1.259315 94.350464
28.555183 -1.548927 95.062805
33.568947 1.174797 94.848366
38.84739 4.747475 95.868164
38.984047 4.492561 96.52067
44.48217 7.689644 98.2166
44.60238 7.465416 98.93186
50.536613 10.120918 100.855804
50.632027 9.942986 101.70342
55.887016 12.408012 103.92354
55.94689 12.295906 104.82222
60.241493 14.738945 107.33346
63.57888 16.847862 108.6593
-8.941322 2.451057 99.87507
-7.403801 0.177986 99.25359
-1.371803 -3.687675 99.202934
6.87159 -6.873772 99.125656
13.5485 -7.80468 98.91207
17.445763 -7.381783 98.291016
20.95823 -6.136681 97.64557
24.446587 -3.97036 97.066
28.604118 -1.640221 95.97605
33.62139 1.076866 95.6839
39.034096 4.399223 97.2889
44.622932 7.427162 99.72795
50.597313 10.007866 102.59447
55.87185 12.435341 105.70041
60.161293 14.882912 108.10617
63.51391 16.956917 109.32765
-7.631538 -0.067802 99.74478
-1.537346 -3.951225 99.74625
6.847847 -7.112114 99.74042
13.63961 -8.010078 99.6078
17.558617 -7.592171 99.04711
21.047874 -6.303825 98.47799
24.411201 -3.904289 97.99381
28.50071 -1.44735 96.92308
33.543663 1.221855 96.55413
38.977715 4.504326 98.06962
44.54061 7.580711 100.47842
50.451546 10.279671 103.341675
55.697548 12.759621 106.394104
59.99877 15.179512 108.75688
63.372765 17.207024 109.97951
-7.913841 -0.20475 100.49116
-1.745064 -4.083305 100.49436
6.76078 -7.200172 100.50796
13.6381 -8.038582 100.405716
17.560905 -7.596458 99.88735
21.01052 -6.234184 99.35491
24.249214 -3.602165 98.79971
28.275139 -1.026588 97.677605
33.353676 1.576256 97.28978
38.82827 4.783104 98.7531
44.381645 7.87719 101.100365
50.25007 10.655373 103.88101
55.48095 13.162605 106.875244
59.78843 15.564522 109.25954
63.167442 17.575539 110.55102
-8.941307 2.451073 99.87507
-7.913826 -0.20475 100.491165
-8.175041 -0.06057 101.41248
-1.745064 -4.083305 100.49437
-1.958397 -3.954094 101.37472
6.760796 -7.200172 100.507965
6.613319 -7.05619 101.331825
13.6381 -8.038582 100.40572
13.532127 -7.857445 101.18259
17.560936 -7.596458 99.88736
17.446953 -7.383858 100.66792
21.010551 -6.234169 99.35491
20.855873 -5.945656 100.12385
24.24923 -3.60215 98.79972
24.021065 -3.176613 99.38154
28.275154 -1.026573 97.67761
28.01458 -0.540611 98.14973
33.353676 1.576271 97.28979
33.117928 2.015938 97.791466
38.828285 4.783104 98.7531
38.622093 5.167641 99.27107
44.38166 7.87719 101.100365
44.173515 8.265312 101.567795
50.250084 10.655373 103.88101
50.02256 11.079491 104.24634
55.480965 13.162621 106.875244
55.249992 13.59211 107.18872
59.788445 15.564537 109.25954
59.55195 15.997643 109.6204
63.167473 17.575539 110.551025
62.914955 18.030983 110.99347
64.16442 19.242195 109.427376
-8.941322 2.451027 99.87506
-8.327293 0.451759 102.31822
-2.122108 -3.500893 102.22189
6.429863 -6.657814 102.08511
13.337624 -7.487999 101.848915
17.24784 -7.012596 101.29202
20.630608 -5.525597 100.69337
23.780663 -2.72834 99.7448
27.773796 -0.09156 98.40035
32.881462 2.456978 98.09162
38.386986 5.606163 99.623055
43.93154 8.716606 101.88699
49.769814 11.550789 104.47744
54.99665 14.063362 107.384056
59.285637 16.486412 109.864525
62.618614 18.568245 111.299774
-8.329796 1.194588 102.96469
-2.199821 -2.817513 102.84935
6.238213 -6.064857 102.65438
13.079506 -6.977638 102.35088
16.995827 -6.542549 101.741295
20.374062 -5.047112 101.06609
23.539726 -2.278893 99.94681
27.543282 0.338432 98.51897
32.6408 2.905876 98.2547
38.131584 6.082527 99.830345
43.66677 9.210487 102.06478
49.499016 12.05584 104.580215
54.725227 14.568428 107.46332
58.99978 17.013283 109.98394
62.295616 19.159416 111.45152
-8.941322 2.451042 99.87505
-8.225105 1.945137 103.28538
-2.201714 -2.079872 103.18862
6.06089 -5.389473 102.985596
12.788017 -6.391075 102.659836
16.713188 -6.015434 102.023605
20.110481 -4.555504 101.27493
23.306877 -1.844643 100.02868
27.317345 0.759727 98.54342
32.39254 3.368752 98.30555
37.861702 6.585762 99.90143
43.389214 9.72805 102.10136
49.22161 12.573021 104.5494
54.448784 15.08297 107.41437
58.719154 17.534035 109.965256
62.00135 19.706612 111.44388
-8.08654 2.552498 103.37109
-2.15934 -1.408852 103.29021
5.907585 -4.722786 103.094124
12.485481 -5.77874 102.77599
16.406303 -5.443138 102.14487
19.833733 -4.039375 101.344215
23.067085 -1.397484 100.002495
27.0774 1.207191 98.46533
32.126 3.865898 98.2317
37.580162 7.110893 99.8293
43.106544 10.255302 101.99014
48.945427 13.088036 104.37484
54.17634 15.590767 107.22044
58.459984 18.020012 109.79737
61.761406 20.165215 111.284424
-7.931404 3.056084 103.31518
-2.090202 -0.827766 103.23223
5.781654 -4.116264 103.02912
12.191597 -5.183479 102.71751
16.088478 -4.85038 102.10213
19.543907 -3.498802 101.27558
22.807549 -0.913338 99.85253
26.810402 1.705299 98.2475
31.840172 4.399086 98.002144
37.29737 7.638329 99.60505
42.829735 10.771553 101.72121
48.67463 13.593056 104.02308
53.911583 16.084969 106.832115
58.230125 18.45652 109.447716
61.578316 20.52871 110.97461
64.16439 19.242165 109.42738
-7.931404 3.056084 103.31517
-7.749687 3.537712 103.164536
-2.090202 -0.827766 103.23222
-2.000618 -0.3218 103.06956
5.78167 -4.116264 103.02912
5.682854 -3.588081 102.83933
12.191612 -5.183479 102.71751
11.924522 -4.641884 102.51318
15.788628 -4.291161 101.906105
19.543892 -3.498802 101.27558
19.26435 -2.97747 101.066284
22.807549 -0.913353 99.85254
22.53675 -0.408363 99.535614
26.810387 1.705269 98.2475
26.527641 2.232567 97.82889
31.840157 4.399071 98.002144
31.552422 4.935677 97.57539
37.297356 7.638313 99.60505
37.022865 8.150276 99.20822
42.82972 10.771553 101.721214
42.566566 11.262413 101.27282
48.421288 14.065605 103.45249
53.911583 16.084953 106.832115
53.67321 16.53051 106.197845
58.046394 18.81025 108.8859
61.578316 20.528725 110.97461
61.463203 20.770897 110.52346
POLYGONS 724 2896
3 0 1 2
3 0 2 3
3 3 2 4
3 3 4 5
3 5 4 6
3 5 6 7
3 7 6 8
3 7 8 9
3 9 8 10
3 9 10 11
3 11 10 12
3 11 12 13
3 13 12 14
3 13 14 15
3 15 14 16
3 15 16 17
3 17 16 18
3 17 18 19
3 19 18 20
3 19 20 21
3 21 20 22
3 21 22 23
3 23 22 24
3 23 24 25
3 25 24 26
3 25 26 27
3 27 26 28
3 27 28 29
3 29 28 30
3 29 30 31
3 31 30 32
3 1 33 2
3 2 33 34
3 2 34 4
3 4 34 35
3 4 35 6
3 6 35 36
3 6 36 8
3 8 36 37
3 8 37 10
3 10 37 38
3 10 38 12
3 12 38 39
3 12 39 14
3 14 39 40
3 14 40 16
3 16 40 41
3 16 41 18
3 18 41 42
3 18 42 20
3 20 42 43
3 20 43 22
3 22 43 44
3 22 44 24
3 24 44 45
3 24 45 26
3 26 45 46
3 26 46 28
3 28 46 47
3 28 47 30
3 30 47 48
3 30 48 32
3 33 1 34
3 34 1 49
3 34 49 35
3 35 49 50
3 35 50 36
3 36 50 51
3 36 51 37
3 37 51 52
3 37 52 38
3 38 52 53
3 38 53 39
3 39 53 54
3 39 54 40
3 40 54 55
3 40 55 41
3 41 55 56
3 41 56 42
3 42 56 57
3 42 57 43
3 43 57 58
3 43 58 44
3 44 58 59
3 44 59 45
3 45 59 60
3 45 60 46
3 46 60 61
3 46 61 47
3 47 61 62
3 47 62 48
3 48 62 63
3 48 63 32
3 32 63 64
3 1 65 49
3 49 65 66
3 49 66 50
3 50 66 67
3 50 67 51
3 51 67 68
3 51 68 52
3 52 68 69
3 52 69 53
3 53 69 70
3 53 70 54
3 54 70 71
3 54 71 55
3 55 71 72
3 55 72 56
3 56 72 73
3 56 73 57
3 57 73 74
3 57 74 58
3 58 74 75
3 58 75 59
3 59 75 76
3 59 76 60
3 60 76 77
3 60 77 61
3 61 77 78
3 61 78 62
3 62 78 79
3 62 79 63
3 63 79 80
3 63 80 64
3 64 80 31
3 65 1 66
3 66 1 81
3 66 81 67
3 67 81 82
3 67 82 68
3 68 82 83
3 68 83 69
3 69 83 84
3 69 84 70
3 70 84 85
3 70 85 71
3 71 85 86
3 71 86 72
3 72 86 87
3 72 87 73
3 73 87 88
3 73 88 74
3 74 88 89
3 74 89 75
3 75 89 90
3 75 90 76
3 76 90 91
3 76 91 77
3 77 91 92
3 77 92 78
3 78 92 93
3 78 93 79
3 79 93 94
3 79 94 80
3 80 94 95
3 80 95 31
3 31 95 96
3 97 98 81
3 81 98 99
3 81 99 100
3 100 99 101
3 100 101 102
3 102 101 103
3 102 103 104
3 104 103 105
3 104 105 106
3 106 105 107
3 106 107 108
3 108 107 109
3 108 109 110
3 110 109 111
3 110 111 112
3 112 111 113
3 112 113 89
3 89 113 114
3 89 114 115
3 115 114 116
3 115 116 91
3 91 116 117
3 91 117 92
3 92 117 118
3 92 118 119
3 119 118 120
3 119 120 121
3 121 120 122
3 121 122 123
3 123 122 124
3 123 124 31
3 98 65 99
3 99 65 125
3 99 125 101
3 101 125 126
3 101 126 103
3 103 126 127
3 103 127 105
3 105 127 128
3 105 128 107
3 107 128 129
3 107 129 109
3 109 129 130
3 109 130 111
3 111 130 131
3 111 131 113
3 113 131 132
3 113 132 114
3 114 132 133
3 114 133 116
3 116 133 134
3 116 134 117
3 117 134 135
3 117 135 118
3 118 135 136
3 118 136 120
3 120 136 137
3 120 137 122
3 122 137 138
3 122 138 124
3 124 138 139
3 124 139 31
3 31 139 140
3 65 141 125
3 125 141 142
3 125 142 126
3 126 142 143
3 126 143 127
3 127 143 144
3 127 144 128
3 128 144 145
3 128 145 129
3 129 145 146
3 129 146 130
3 130 146 147
3 130 147 131
3 131 147 148
3 131 148 132
3 132 148 149
3 132 149 133
3 133 149 150
3 133 150 134
3 134 150 151
3 134 151 135
3 135 151 152
3 135 152 136
3 136 152 153
3 136 153 137
3 137 153 154
3 137 154 138
3 138 154 155
3 138 155 139
3 139 155 156
3 139 156 140
3 140 156 157
3 158 159 160
3 160 159 161
3 160 161 162
3 162 161 163
3 162 163 164
3 164 163 165
3 164 165 166
3 166 165 167
3 166 167 168
3 168 167 169
3 168 169 170
3 170 169 171
3 170 171 172
3 172 171 173
3 172 173 174
3 174 173 175
3 174 175 176
3 176 175 177
3 176 177 178
3 178 177 179
3 178 179 180
3 180 179 181
3 180 181 182
3 182 181 183
3 182 183 184
3 184 183 185
3 184 185 186
3 186 185 187
3 186 187 188
3 188 187 189
3 188 189 140
3 140 189 190
3 159 65 161
3 161 65 191
3 161 191 163
3 163 191 192
3 163 192 165
3 165 192 193
3 165 193 167
3 167 193 194
3 167 194 169
3 169 194 195
3 169 195 171
3 171 195 196
3 171 196 173
3 173 196 197
3 173 197 175
3 175 197 198
3 175 198 177
3 177 198 199
3 177 199 179
3 179 199 200
3 179 200 181
3 181 200 201
3 181 201 183
3 183 201 202
3 183 202 185
3 185 202 203
3 185 203 187
3 187 203 204
3 187 204 189
3 189 204 205
3 189 205 190
3 65 158 191
3 191 158 206
3 191 206 192
3 192 206 207
3 192 207 193
3 193 207 208
3 193 208 194
3 194 208 209
3 194 209 195
3 195 209 210
3 195 210 196
3 196 210 211
3 196 211 197
3 197 211 212
3 197 212 198
3 198 212 213
3 198 213 199
3 199 213 214
3 199 214 200
3 200 214 215
3 200 215 201
3 201 215 216
3 201 216 202
3 202 216 217
3 202 217 203
3 203 217 218
3 203 218 204
3 204 218 219
3 204 219 205
3 205 219 220
3 205 220 190
3 221 222 223
3 223 222 224
3 223 224 207
3 207 224 225
3 207 225 226
3 226 225 227
3 226 227 228
3 228 227 229
3 228 229 230
3 230 229 231
3 230 231 211
3 211 231 232
3 211 232 212
3 212 232 233
3 212 233 234
3 234 233 235
3 234 235 214
3 214 235 236
3 214 236 237
3 237 236 238
3 237 238 239
3 239 238 240
3 239 240 241
3 241 240 242
3 241 242 243
3 243 242 244
3 243 244 219
3 219 244 245
3 219 245 220
3 220 245 246
3 220 246 190
3 222 247 224
3 224 247 248
3 224 248 225
3 225 248 249
3 225 249 227
3 227 249 250
3 227 250 229
3 229 250 251
3 229 251 231
3 231 251 252
3 231 252 232
3 232 252 253
3 232 253 233
3 233 253 254
3 233 254 235
3 235 254 255
3 235 255 236
3 236 255 256
3 236 256 238
3 238 256 257
3 238 257 240
3 240 257 258
3 240 258 242
3 242 258 259
3 242 259 244
3 244 259 260
3 244 260 245
3 245 260 261
3 245 261 246
3 246 261 262
3 246 262 31
3 247 1 248
3 248 1 263
3 248 263 249
3 249 263 264
3 249 264 250
3 250 264 265
3 250 265 251
3 251 265 266
3 251 266 252
3 252 266 267
3 252 267 253
3 253 267 268
3 253 268 254
3 254 268 269
3 254 269 255
3 255 269 270
3 255 270 256
3 256 270 271
3 256 271 257
3 257 271 272
3 257 272 258
3 258 272 273
3 258 273 259
3 259 273 274
3 259 274 260
3 260 274 275
3 260 275 261
3 261 275 276
3 261 276 262
3 262 276 277
3 262 277 140
3 1 159 263
3 263 159 278
3 263 278 264
3 264 278 279
3 264 279 265
3 265 279 280
3 265 280 266
3 266 280 281
3 266 281 267
3 267 281 282
3 267 282 268
3 268 282 283
3 268 283 269
3 269 283 284
3 269 284 270
3 270 284 285
3 270 285 271
3 271 285 286
3 271 286 272
3 272 286 287
3 272 287 273
3 273 287 288
3 273 288 274
3 274 288 289
3 274 289 275
3 275 289 290
3 275 290 276
3 276 290 291
3 276 291 277
3 277 291 292
3 277 292 31
3 293 159 294
3 294 159 295
3 294 295 296
3 296 295 297
3 296 297 298
3 298 297 299
3 298 299 300
3 300 299 301
3 300 301 302
3 302 301 303
3 302 303 304
3 304 303 305
3 304 305 306
3 306 305 307
3 306 307 308
3 308 307 309
3 308 309 310
3 310 309 311
3 310 311 312
3 312 311 313
3 312 313 314
3 314 313 315
3 314 315 316
3 316 315 317
3 316 317 318
3 318 317 319
3 318 319 320
3 320 319 321
3 320 321 322
3 322 321 323
3 322 323 324
3 324 323 190
3 159 325 295
3 295 325 326
3 295 326 297
3 297 326 327
3 297 327 299
3 299 327 328
3 299 328 301
3 301 328 329
3 301 329 303
3 303 329 330
3 303 330 305
3 305 330 331
3 305 331 307
3 307 331 332
3 307 332 309
3 309 332 333
3 309 333 311
3 311 333 334
3 311 334 313
3 313 334 335
3 313 335 315
3 315 335 336
3 315 336 317
3 317 336 337
3 317 337 319
3 319 337 338
3 319 338 321
3 321 338 339
3 321 339 323
3 323 339 340
3 323 340 190
3 325 159 326
3 326 159 341
3 326 341 327
3 327 341 342
3 327 342 328
3 328 342 343
3 328 343 329
3 329 343 344
3 329 344 330
3 330 344 345
3 330 345 331
3 331 345 346
3 331 346 332
3 332 346 347
3 332 347 333
3 333 347 348
3 333 348 334
3 334 348 349
3 334 349 335
3 335 349 350
3 335 350 336
3 336 350 351
3 336 351 337
3 337 351 352
3 337 352 338
3 338 352 353
3 338 353 339
3 339 353 354
3 339 354 340
3 340 354 355
3 340 355 31
3 31 355 190
3 159 356 341
3 341 356 357
3 341 357 342
3 342 357 358
3 342 358 343
3 343 358 359
3 343 359 344
3 344 359 360
3 344 360 345
3 345 360 361
3 345 361 346
3 346 361 362
3 346 362 347
3 347 362 363
3 347 363 348
3 348 363 364
3 348 364 349
3 349 364 365
3 349 365 350
3 350 365 366
3 350 366 351
3 351 366 367
3 351 367 352
3 352 367 368
3 352 368 353
3 353 368 369
3 353 369 354
3 354 369 370
3 354 370 355
3 355 370 371
3 355 371 190
3 190 371 31
3 356 98 357
3 357 98 372
3 357 372 358
3 358 372 373
3 358 373 359
3 359 373 374
3 359 374 360
3 360 374 375
3 360 375 361
3 361 375 376
3 361 376 362
3 362 376 377
3 362 377 363
3 363 377 378
3 363 378 364
3 364 378 379
3 364 379 365
3 365 379 380
3 365 380 366
3 366 380 381
3 366 381 367
3 367 381 382
3 367 382 368
3 368 382 383
3 368 383 369
3 369 383 384
3 369 384 370
3 370 384 385
3 370 385 371
3 371 385 386
3 371 386 31
3 98 159 372
3 372 159 387
3 372 387 373
3 373 387 388
3 373 388 374
3 374 388 389
3 374 389 375
3 375 389 390
3 375 390 376
3 376 390 391
3 376 391 377
3 377 391 392
3 377 392 378
3 378 392 393
3 378 393 379
3 379 393 394
3 379 394 380
3 380 394 395
3 380 395 381
3 381 395 396
3 381 396 382
3 382 396 397
3 382 397 383
3 383 397 398
3 383 398 384
3 384 398 399
3 384 399 385
3 385 399 400
3 385 400 386
3 386 400 401
3 386 401 31
3 31 401 402
3 65 159 403
3 403 159 404
3 403 404 405
3 405 404 406
3 405 406 407
3 407 406 408
3 407 408 409
3 409 408 410
3 409 410 391
3 391 410 411
3 391 411 412
3 412 411 413
3 412 413 414
3 414 413 415
3 414 415 416
3 416 415 417
3 416 417 418
3 418 417 419
3 418 419 420
3 420 419 421
3 420 421 422
3 422 421 423
3 422 423 398
3 398 423 424
3 398 424 425
3 425 424 426
3 425 426 400
3 400 426 427
3 400 427 428
3 428 427 429
3 428 429 140
3 159 1 404
3 404 1 0
3 404 0 406
3 406 0 3
3 406 3 408
3 408 3 5
3 408 5 410
3 410 5 7
3 410 7 411
3 411 7 9
3 411 9 413
3 413 9 11
3 413 11 415
3 415 11 13
3 415 13 417
3 417 13 15
3 417 15 419
3 419 15 17
3 419 17 421
3 421 17 19
3 421 19 423
3 423 19 21
3 423 21 424
3 424 21 23
3 424 23 426
3 426 23 25
3 426 25 427
3 427 25 27
3 427 27 429
3 429 27 29
3 429 29 140
3 140 29 31
