# vtk DataFile Version 2.0
File written by itkPolyDataMeshIO
ASCII
DATASET POLYDATA
POINTS 803 float
-10.832878 15.957161 272.97842
-9.980721 18.18377 275.49857
-10.344398 15.059166 275.21985
-12.935234 14.966438 272.7852
-11.904305 13.914391 275.408
-15.680061 13.934441 273.39734
-14.161568 12.745003 276.19238
-18.979362 12.653938 274.67828
-17.236168 11.435051 277.49957
-21.851646 11.314629 276.05347
-19.916298 10.165138 278.71957
-21.851631 11.314629 276.05347
-19.916313 10.165154 278.7196
-24.001472 10.006569 277.35498
-22.026497 8.988747 279.7687
-24.001472 10.006569 277.355
-22.026482 8.988747 279.76868
-26.022972 8.586037 278.72534
-24.126167 7.682304 280.86758
-28.317665 7.102791 280.48682
-26.447899 6.267799 282.24945
-30.637245 5.761864 282.6336
-28.72329 4.939415 284.04074
-28.72329 4.9394 284.0407
-32.691566 4.650902 284.84265
-30.692451 3.786613 286.10913
-34.52944 3.797173 287.0471
-32.439552 2.874382 288.31137
-36.232506 3.271446 289.3411
-34.08297 2.299248 290.63397
-37.78379 3.154243 291.69962
-35.617012 2.157539 293.04376
-39.220787 3.523872 294.05173
-37.064613 2.52964 295.52048
-40.591805 4.420113 296.3202
-38.450768 3.449318 297.9821
-41.844307 5.691032 298.54346
-39.67234 4.746834 300.2978
-41.84429 5.691032 298.5435
-39.672325 4.746849 300.29782
-42.88212 7.104851 300.82916
-40.602303 6.177727 302.50104
-43.7788 8.503975 302.92737
-41.469215 7.576485 304.56253
-44.704628 9.921211 304.98245
-42.427452 8.994637 306.63187
-44.704628 9.921211 304.98248
-42.427437 8.994652 306.6319
-45.53385 11.474693 307.4253
-43.16207 10.567284 308.91132
-46.20571 12.886436 309.79944
-43.739967 11.957573 311.11304
-46.20571 12.886467 309.79947
-43.739937 11.957588 311.11307
-46.87664 13.978493 311.86575
-44.43049 13.007469 313.14044
-47.531837 15.063957 314.0544
-45.188423 14.123589 315.29184
-48.046288 16.456047 316.11386
-45.946327 15.690865 317.3895
-48.046272 16.456062 316.1139
-45.946327 15.69088 317.38953
-48.47541 17.900688 317.65527
-46.62159 17.499947 319.02737
-49.069267 19.287407 319.17374
-47.278847 19.150002 320.46173
-49.6065 20.935387 321.40405
-47.82493 20.760399 322.26965
-49.606483 20.935417 321.4041
-47.824913 20.76043 322.26968
-49.492836 22.717888 324.2981
-47.901665 22.379662 324.59247
-48.98397 24.070229 327.14804
-47.663063 23.60418 327.1703
-48.805 24.895287 329.66525
-47.572502 24.427406 329.75458
-48.805016 24.895256 329.66522
-47.572502 24.427406 329.75452
-48.871773 25.566307 332.177
-47.659767 25.101326 332.3309
-48.93464 26.2416 334.763
-47.709755 25.77401 334.9065
-48.93383 26.946281 337.33344
-47.69245 26.474846 337.4598
-48.933846 26.946266 337.33344
-47.692467 26.47483 337.45984
-48.999565 27.721382 339.8344
-47.783867 27.259819 340.0143
-48.99607 28.561867 342.40497
-47.8061 28.114922 342.55695
-48.836037 29.45588 345.0035
-47.67858 29.02552 345.09662
-47.678596 29.02552 345.0966
-48.563866 30.374382 347.58096
-47.485817 29.973076 347.63248
-47.967827 31.39193 350.22745
-46.956017 31.021416 350.15997
-47.145256 32.60807 352.70218
-46.14013 32.25692 352.54843
-46.58262 33.841774 354.87448
-45.54441 33.50428 354.8064
-46.58259 33.841805 354.87454
-45.544395 33.504326 354.8065
-46.56707 35.039146 356.892
-45.553 34.83425 357.0364
-47.144493 36.281548 358.9114
-46.334465 36.214638 359.2087
-48.0362 37.4271 361.14584
-47.433113 37.38749 361.4285
-48.036217 37.427086 361.1458
-47.43313 37.38746 361.42847
-48.8321 38.354073 363.589
-48.259834 38.31814 363.7905
-49.542397 39.197563 365.92203
-48.95498 39.1612 366.1179
-50.421013 40.196434 367.8578
-49.85926 40.166267 368.15247
-49.859276 40.166252 368.15247
-51.521538 41.52311 369.1492
-51.029915 41.55047 369.58118
-52.69558 43.066612 369.79294
-52.272957 43.211617 370.3057
-54.026848 44.82493 369.93698
-53.668434 45.009544 370.4792
-54.026848 44.824974 369.93698
-53.66842 45.00956 370.47925
-54.61521 46.72306 369.79626
-9.980721 18.183754 275.49857
-10.38871 15.392403 276.62018
-11.654915 14.382607 277.04437
-13.627998 13.274467 277.9891
-16.618095 11.977608 279.35495
-19.286842 10.676765 280.55463
-19.286842 10.676796 280.55463
-21.445045 9.441765 281.5019
-23.576042 8.084587 282.4481
-25.801476 6.639488 283.6022
-27.905922 5.305504 285.16275
-27.905922 5.305489 285.16275
-29.727913 4.171333 287.11102
-31.359016 3.285164 289.26144
-32.897346 2.732002 291.5187
-34.338463 2.601219 293.8365
-35.691536 2.972191 296.21503
-36.982704 3.881447 298.60574
-38.13346 5.167122 300.85617
-38.133446 5.167137 300.8562
-39.00741 6.590416 302.94565
-39.86515 7.989342 304.98056
-40.84057 9.407051 307.071
-40.840553 9.407066 307.07104
-41.553352 10.971153 309.2187
-42.119133 12.37101 311.34656
-42.119102 12.371025 311.34656
-42.841576 13.439659 313.45175
-43.664177 14.543221 315.6164
-44.533348 16.057457 317.65613
-44.533333 16.057472 317.65616
-45.352425 17.898933 319.2523
-46.130974 19.651283 320.64334
-46.786797 21.253593 322.3146
-46.78678 21.253609 322.31464
-47.01458 22.731773 324.4567
-46.906746 23.8321 327.00757
-46.848854 24.635704 329.67395
-46.84887 24.635689 329.67395
-46.939552 25.308327 332.2997
-46.98356 25.98214 334.86124
-46.958885 26.68467 337.39673
-46.9589 26.684654 337.3967
-47.059975 27.465279 339.97708
-47.101875 28.31385 342.4962
-47.001213 29.217064 345.00003
-46.85946 30.15171 347.52463
-46.390907 31.186333 349.97723
-45.606804 32.413933 352.28452
-44.98678 33.671288 354.57104
-44.986748 33.671333 354.5711
-45.007866 35.057823 356.91855
-45.904167 36.45472 359.21747
-47.112938 37.58686 361.4855
-47.112953 37.586845 361.48547
-47.966713 38.502922 363.82095
-48.653847 39.348473 366.14102
-49.545662 40.350426 368.20468
-49.545677 40.35041 368.20468
-50.711006 41.73255 369.66663
-51.964806 43.40603 370.4016
-53.37052 45.19767 370.59653
-53.37052 45.1977 370.59656
-54.615227 46.723045 369.79626
-9.980705 18.183784 275.49857
-10.634605 16.160057 277.51044
-11.727913 15.337624 278.0793
-13.533073 14.354332 279.15643
-16.502296 13.084175 280.58398
-19.227379 11.720299 281.81555
-19.227379 11.720299 281.81558
-21.458565 10.365715 282.7311
-21.458565 10.36573 282.7311
-23.599113 8.905022 283.5906
-25.69738 7.397545 284.606
-27.609703 6.052177 286.01544
-27.609718 6.052162 286.01544
-29.283562 4.955971 287.86874
-30.806496 4.122902 289.9568
-32.238594 3.614616 292.12402
-33.572807 3.506111 294.311
-34.80683 3.874809 296.5244
-35.976784 4.762794 298.75815
-37.052574 6.024284 300.8953
-37.05256 6.0243 300.89532
-37.897682 7.432106 302.87625
-38.755165 8.831383 304.8922
-39.739693 10.248222 307.00314
-39.739677 10.248222 307.00317
-40.46041 11.794975 309.05
-41.045784 13.214256 311.15094
-41.045753 13.214272 311.15097
-41.799965 14.321175 313.36517
-42.663765 15.398125 315.55954
-43.580284 16.782616 317.5159
-43.58027 16.782616 317.51593
-44.489952 18.52134 319.03424
-45.39646 20.291893 320.41016
-46.17887 21.899223 322.06607
-46.17887 21.899239 322.0661
-46.51705 23.275063 324.1901
-46.46824 24.279213 326.8019
-46.417763 25.06054 329.54315
-46.417778 25.060524 329.5431
-46.505165 25.730522 332.20547
-46.54653 26.406685 334.75366
-46.518913 27.112694 337.27368
-46.51893 27.112679 337.27368
-46.622414 27.884346 339.8659
-46.67887 28.719627 342.36664
-46.599052 29.60778 344.84836
-46.599052 29.60778 344.8484
-46.49041 30.51609 347.37448
-46.072258 31.522697 349.77927
-45.32444 32.733604 352.0193
-44.686928 33.997383 354.30975
-44.686897 33.99743 354.3098
-44.715034 35.39901 356.7258
-45.677116 36.76197 359.1243
-46.944267 37.835793 361.4548
-46.944267 37.835777 361.45477
-47.819298 38.733376 363.78717
-48.50225 39.581993 366.10052
-49.370445 40.578117 368.1642
-49.370445 40.578102 368.1642
-50.504387 41.938576 369.61758
-51.7436 43.588173 370.336
-53.126854 45.36695 370.54062
-53.126854 45.36698 370.54065
-54.61521 46.72306 369.7963
-11.002342 17.167534 277.93887
-12.012672 16.520805 278.59247
-13.747154 15.692101 279.76865
-16.741142 14.455086 281.25345
-19.56263 13.013115 282.5491
-19.562614 13.01313 282.54913
-21.875923 11.510399 283.484
-21.875923 11.510414 283.484
-24.01014 9.921486 284.31107
-25.973946 8.336662 285.26343
-27.70057 6.977165 286.59235
-29.241615 5.928017 288.37805
-30.673424 5.16082 290.40332
-32.010048 4.708092 292.47354
-33.239418 4.627159 294.51733
-34.35058 4.99305 296.53784
-35.39454 5.854637 298.57294
-36.400658 7.086205 300.5764
-36.400642 7.08622 300.5764
-37.238533 8.4748 302.4642
-38.101845 9.874596 304.4685
-39.08898 11.290306 306.59735
-39.088966 11.290321 306.59735
-39.837074 12.815514 308.5753
-40.46154 14.25898 310.68417
-40.46151 14.258995 310.68417
-41.24386 15.413292 313.0169
-42.128487 16.456993 315.24896
-43.043617 17.673729 317.11334
-43.043602 17.673744 317.11337
-43.99743 19.23095 318.53506
-45.02256 20.962914 319.9144
-45.930107 22.583382 321.6405
-45.93009 22.583412 321.64053
-46.33918 23.891975 323.86127
-46.293785 24.8274 326.589
-46.232613 25.58683 329.39215
-46.232628 25.58683 329.39212
-46.312477 26.253548 332.07846
-46.353844 26.932594 334.61523
-46.32656 27.642921 337.1231
-46.326576 27.642906 337.12308
-46.42724 28.403526 339.71646
-46.493217 29.222343 342.20425
-46.42791 30.091835 344.67563
-46.427895 30.09185 344.67563
-46.336617 30.967522 347.21167
-45.955956 31.939445 349.59225
-45.243538 33.129417 351.78177
-44.595222 34.39666 354.0588
-44.595192 34.39672 354.05887
-44.62612 35.784798 356.50183
-45.61364 37.084007 358.97028
-46.897453 38.093605 361.36652
-46.89747 38.093575 361.36652
-47.787575 38.971855 363.71222
-48.4694 39.823616 366.02008
-49.308403 40.812996 368.06335
-50.391777 42.144966 369.47513
-51.588432 43.758247 370.14862
-52.922935 45.52346 370.341
-52.922935 45.523506 370.34103
-9.980721 18.18377 275.49854
-11.415901 18.214043 277.84134
-12.435966 17.693657 278.54263
-14.200233 17.01809 279.76984
-17.255516 15.813927 281.29745
-20.191826 14.294533 282.67438
-20.191826 14.294548 282.67438
-22.580437 12.645012 283.67114
-22.580437 12.645012 283.67117
-24.69526 10.928963 284.52054
-26.542625 9.267509 285.48944
-28.123055 7.893974 286.81598
-28.123085 7.893974 286.81598
-29.569328 6.891472 288.5711
-30.941963 6.189522 290.54465
-32.210182 5.791924 292.52908
-33.35569 5.738289 294.4448
-34.362953 6.101418 296.28268
-35.299522 6.936852 298.11783
-36.25347 8.138756 299.9936
-36.253456 8.138786 299.9936
-37.104897 9.508324 301.81903
-37.978462 10.908592 303.82037
-38.961876 12.323235 305.96143
-38.96186 12.32325 305.96143
-39.749855 13.827095 307.91177
-40.423775 15.294472 310.0585
-40.423744 15.294487 310.05853
-41.22593 16.49578 312.49664
-42.109093 17.506447 314.76666
-42.977577 18.555397 316.54398
-42.977577 18.555412 316.544
-43.914314 19.920677 317.8412
-45.022865 21.600792 319.2167
-46.04232 23.235832 321.08868
-46.042305 23.235863 321.0887
-46.481224 24.490974 323.51596
-46.38871 25.3695 326.40625
-46.302483 26.108467 329.2506
-46.372353 26.77195 331.9451
-46.416023 27.45388 334.47437
-46.39205 28.16848 336.9752
-46.392067 28.16845 336.97516
-46.48574 28.918098 339.55978
-46.554924 29.720558 342.04187
-46.49575 30.571571 344.51535
-46.495735 30.571571 344.51535
-46.404457 31.41494 347.06714
-46.04293 32.3525 349.44925
-45.35871 33.52169 351.6124
-44.70765 34.79139 353.86148
-44.707634 34.791435 353.86157
-44.73815 36.15896 356.27902
-45.710014 37.390144 358.7734
-46.969612 38.337868 361.2315
-46.969627 38.337837 361.2315
-47.867714 39.19776 363.60495
-48.551353 40.05253 365.90875
-49.358345 41.03504 367.91364
-49.35836 41.035027 367.9136
-50.37966 42.334114 369.25177
-51.517845 43.899284 369.8466
-52.801964 45.63807 370.00037
-52.80195 45.6381 370.0004
-11.82151 19.161034 277.18457
-12.972786 18.773003 277.9138
-14.86866 18.238441 279.13876
-18.0187 17.064522 280.6911
-21.080849 15.473885 282.1615
-23.532463 13.689247 283.25977
-25.61567 11.856194 284.1865
-27.373375 10.124199 285.25308
-28.85891 8.737785 286.6583
-28.85894 8.737785 286.6583
-30.256416 7.778191 288.4233
-31.607155 7.13633 290.3602
-32.839775 6.789421 292.27664
-33.92901 6.760948 294.0889
-34.85932 7.121498 295.76755
-35.715446 7.932869 297.4156
-36.638924 9.107506 299.1788
-36.638924 9.107506 299.17883
-37.524467 10.459557 300.97815
-38.412148 11.860222 302.98563
-39.38555 13.273872 305.13223
-39.38555 13.273888 305.13223
-40.223503 14.758064 307.09976
-40.95417 16.247475 309.31262
-40.954155 16.24749 309.31262
-41.76612 17.492027 311.83514
-42.625084 18.472176 314.14053
-43.406837 19.364098 315.84103
-43.406822 19.364113 315.84106
-44.289757 20.532463 316.98557
-45.463356 22.14199 318.3435
-46.56597 23.792992 320.4357
-46.56597 23.793022 320.43573
-46.966316 25.021278 323.1764
-46.757927 25.866234 326.26767
-46.631264 26.58857 329.12888
-46.631264 26.588554 329.12888
-46.68934 27.249077 331.81464
-46.737602 27.933632 334.34082
-46.71972 28.652168 336.8405
-46.719734 28.652138 336.8405
-46.802574 29.3917 339.4067
-46.868233 30.17913 341.89105
-46.806114 31.013115 344.37933
-46.806114 31.0131 344.37933
-46.69686 31.826744 346.95184
-46.3341 32.73269 349.36197
-45.668694 33.882652 351.5256
-45.025185 35.1529 353.73352
-45.025154 35.15296 353.7336
-45.06388 36.48954 356.07266
-45.985695 37.650017 358.54297
-47.176414 38.543755 361.05334
-47.176445 38.543724 361.0533
-48.073387 39.388115 363.469
-48.76226 40.24537 365.771
-49.538094 41.220085 367.72083
-49.538094 41.220085 367.7208
-50.5019 42.4703 368.9705
-51.599403 43.94979 369.4951
-52.85032 45.644875 369.61383
-52.850304 45.64489 369.61386
-54.615196 46.723076 369.7963
-9.980721 18.183784 275.49857
-12.122444 19.762764 276.0216
-13.541328 19.51371 276.68982
-15.669182 19.075981 277.8463
-18.936409 17.922783 279.3958
-22.112328 16.283272 280.95557
-22.112328 16.283272 280.9556
-24.598595 14.405891 282.184
-24.598595 14.405891 282.18402
-26.641426 12.492546 283.24112
-28.361351 10.712151 284.48682
-29.835655 9.316872 286.05597
-29.835686 9.316856 286.05597
-31.252007 8.386726 287.8794
-32.63192 7.786095 289.80606
-33.87731 7.473961 291.6907
-34.956367 7.462776 293.45154
-35.859245 7.821556 295.03302
-36.68508 8.616432 296.54834
-37.61155 9.772346 298.2411
-37.611534 9.772346 298.24112
-38.549904 11.112404 300.06506
-39.45362 12.513374 302.0889
-40.411217 13.926308 304.23154
-40.411217 13.926323 304.23154
-41.301567 15.397011 306.26865
-42.08642 16.901543 308.56946
-42.086388 16.901543 308.5695
-42.893578 18.175743 311.13287
-43.704857 19.13459 313.46353
-44.366753 19.910332 315.12363
-44.366753 19.910347 315.12366
-45.153847 20.877739 316.16833
-46.34025 22.36457 317.5415
-47.461983 24.03495 319.87546
-47.461967 24.03498 319.87552
-47.758278 25.31704 322.95004
-47.39202 26.200233 326.2163
-47.21644 26.918053 329.05692
-47.216454 26.918022 329.05692
-47.26287 27.576561 331.71454
-47.31759 28.26287 334.24396
-47.308067 28.984123 336.75006
-47.308067 28.984108 336.75003
-47.377495 29.716728 339.28955
-47.43197 30.493858 341.78558
-47.356163 31.316154 344.3016
-47.35618 31.316154 344.3016
-47.210167 32.109367 346.89673
-46.8209 32.9936 349.3622
-46.158607 34.13009 351.56003
-45.531914 35.395363 353.72125
-45.531883 35.39538 353.7213
-45.573784 36.67167 355.94937
-46.405693 37.757256 358.34854
-47.490685 38.623604 360.88098
-47.490685 38.623573 360.88095
-48.37455 39.461647 363.34338
-49.071312 40.319847 365.6472
-49.82737 41.28904 367.53943
-49.8274 41.28904 367.53943
-50.74964 42.49462 368.7121
-51.819252 43.886833 369.20078
-53.054283 45.540596 369.30444
-53.054283 45.54061 369.30447
-54.61521 46.723076 369.79626
-12.202797 19.748924 274.5989
-13.974098 19.560371 275.0411
-16.397545 19.128822 276.06046
-19.775597 17.976936 277.5704
-23.013008 16.334312 279.18594
-23.012993 16.334312 279.18594
-25.484428 14.451088 280.54257
-25.484428 14.451088 280.5426
-27.487663 12.532677 281.7612
-29.252449 10.749229 283.24057
-30.832878 9.353386 285.03802
-30.832878 9.353371 285.03802
-32.354134 8.425102 286.9676
-33.82354 7.827049 288.92322
-35.1435 7.517143 290.83533
-36.278282 7.507042 292.63174
-37.22982 7.8657 294.23102
-38.103203 8.659554 295.7295
-39.077263 9.814278 297.4313
-39.077248 9.814293 297.43134
-40.077248 11.153557 299.34116
-40.994514 12.554527 301.39008
-41.93342 13.967461 303.51712
-41.933403 13.967461 303.51712
-42.862923 15.437325 305.67322
-43.681435 16.942772 308.06403
-43.681435 16.942787 308.06403
-44.465508 18.218864 310.59607
-45.211876 19.17559 312.93048
-45.74215 19.926262 314.61728
-45.74215 19.926262 314.6173
-46.37298 20.742699 315.70044
-47.46142 22.065804 317.15683
-48.512764 23.755058 319.66687
-48.51275 23.755089 319.66693
-48.682335 25.192451 322.96707
-48.183357 26.206734 326.3015
-47.96644 26.93879 329.07526
-47.966454 26.938774 329.0753
-48.005104 27.597221 331.68726
-48.06678 28.283653 334.2274
-48.066 29.005043 336.74817
-48.066017 29.005043 336.74814
-48.122795 29.737236 339.25818
-48.159126 30.51371 341.77512
-48.059273 31.335274 344.32758
-48.059273 31.335258 344.32758
-47.862526 32.12719 346.9408
-47.420753 33.010048 349.48154
-46.739082 34.14521 351.7486
-46.133537 35.398674 353.87146
-46.133507 35.398735 353.8715
-46.15023 36.589043 355.98746
-46.85502 37.61454 358.2816
-47.82412 38.499474 360.78638
-47.82415 38.499443 360.78638
-48.683815 39.346336 363.28268
-49.38891 40.20298 365.59244
-50.147057 41.17356 367.44614
-50.147087 41.173576 367.4461
-51.049248 42.37461 368.57443
-52.07879 43.746513 369.05264
-53.306114 45.387794 369.1534
-53.306114 45.387825 369.15344
-12.039497 19.146278 273.4519
-14.089195 18.871819 273.6309
-16.75251 18.35038 274.4986
-20.189339 17.179207 275.94736
-23.409065 15.582008 277.56107
-23.40905 15.582024 277.56107
-25.820671 13.784981 278.99136
-25.820671 13.784981 278.99133
-27.801369 11.941216 280.3372
-29.677803 10.202751 282.0106
-31.441887 8.815132 284.00916
-31.441902 8.815132 284.00912
-33.11376 7.859474 286.05048
-34.698204 7.223137 288.06354
-36.12594 6.880852 290.05304
-37.361595 6.854683 291.96017
-38.420204 7.214989 293.68863
-39.40194 8.024208 295.2967
-40.450096 9.196327 297.08588
-40.450066 9.196342 297.0859
-41.49552 10.546776 299.10962
-42.41828 11.947487 301.1823
-43.343086 13.361031 303.28806
-43.343086 13.361046 303.2881
-44.282036 14.843468 305.56537
-45.099205 16.334877 308.01123
-45.09919 16.334892 308.01123
-45.850777 17.583366 310.45038
-46.54113 18.559013 312.76428
-46.98191 19.397163 314.5236
-46.98191 19.397179 314.5236
-47.46235 20.240166 315.68274
-48.3975 21.496574 317.18533
-49.33477 23.188255 319.7718
-49.33477 23.188286 319.77182
-49.393562 24.751625 323.16998
-48.815315 25.879448 326.4869
-48.578636 26.632545 329.17935
-48.61669 27.29284 331.7464
-48.683006 27.977608 334.30057
-48.68786 28.69651 336.83853
-48.687874 28.696495 336.83853
-48.737907 29.435158 339.3282
-48.75637 30.221199 341.86688
-48.63172 31.053596 344.44998
-48.631737 31.053612 344.44998
-48.390663 31.864494 347.0692
-47.891045 32.76754 349.6747
-47.174904 33.914604 352.0186
-46.58915 35.159508 354.12332
-46.589134 35.159554 354.12338
-46.581123 36.3108 356.144
-47.181786 37.341743 358.32492
-48.06565 38.275673 360.77444
-48.065666 38.275642 360.7744
-48.901283 39.139015 363.28516
-49.61239 39.992897 365.6019
-50.38787 40.968544 367.44165
-50.387886 40.96853 367.44162
-51.302376 42.185936 368.5595
-52.322517 43.5718 369.0446
-53.55787 45.219612 369.1523
-53.557854 45.219643 369.15234
-9.980736 18.183754 275.49854
-9.980721 18.18377 275.4986
-12.039497 19.146263 273.45187
-11.655296 18.04261 272.7506
-14.089211 18.871803 273.6309
-13.864021 17.54934 272.6888
-16.752525 18.35035 274.49857
-16.672173 16.855064 273.41455
-20.189339 17.179192 275.94733
-20.105598 15.646889 274.79007
-23.409065 15.581993 277.56104
-23.23034 14.136986 276.3439
-23.409065 15.582008 277.56104
-23.23034 14.137001 276.34393
-25.820671 13.784966 278.99133
-25.546211 12.505531 277.7807
-25.820671 13.784966 278.9913
-25.546196 12.505547 277.7807
-27.801369 11.9412 280.3372
-27.52526 10.805107 279.1988
-29.677803 10.202736 282.01056
-29.563026 9.153069 280.9948
-31.441902 8.815117 284.00916
-31.559807 7.781258 283.1345
-31.441902 8.815117 284.00912
-33.113777 7.859459 286.05048
-33.404457 6.772987 285.27536
-34.698204 7.223122 288.06354
-35.111275 6.063042 287.3656
-36.12594 6.880836 290.053
-36.663048 5.658669 289.4705
-37.361595 6.854683 291.96014
-38.02912 5.601662 291.54663
-38.42022 7.214973 293.68857
-39.236855 5.965111 293.49622
-39.401955 8.024193 295.29666
-40.37107 6.803795 295.32443
-40.450096 9.196312 297.08588
-41.508186 8.009361 297.26627
-40.45008 9.196327 297.08588
-41.50817 8.009377 297.2663
-41.495537 10.546761 299.1096
-42.575356 9.381279 299.41388
-42.418297 11.947472 301.18228
-43.494514 10.781456 301.50528
-43.3431 13.361031 303.28802
-44.41227 12.196251 303.58743
-43.343086 13.361046 303.28802
-44.412254 12.196251 303.58746
-44.28205 14.843437 305.5653
-45.329018 13.702736 305.9686
-45.099205 16.334862 308.0112
-46.10961 15.167183 308.42538
-45.099205 16.334877 308.0112
-46.10958 15.167183 308.42545
-46.824364 16.362709 310.72418
-47.47689 17.375435 312.9963
-47.888863 18.398201 314.86432
-47.888847 18.398201 314.86435
-47.46235 20.240166 315.6827
-48.27575 19.4217 316.13492
-48.3975 21.496574 317.1853
-49.04827 20.696007 317.64716
-49.334785 23.18824 319.77176
-49.83378 22.375877 320.19513
-49.33477 23.188286 319.7718
-49.833763 22.375893 320.19516
-49.393578 24.751595 323.16995
-49.79261 24.038933 323.53888
-48.815315 25.879433 326.48688
-49.186073 25.264381 326.74506
-48.578636 26.632545 329.17932
-48.952827 26.04432 329.35345
-48.578636 26.632545 329.1793
-48.952843 26.044289 329.35342
-48.616707 27.292809 331.74637
-48.997673 26.708214 331.88358
-48.68302 27.977608 334.3005
-49.06556 27.389763 334.45288
-48.68786 28.696495 336.8385
-49.071953 28.103859 337.0078
-48.687874 28.696465 336.8385
-49.071968 28.103844 337.00778
-48.737907 29.435143 339.3282
-49.122337 28.854836 339.48965
-49.12609 29.659325 342.04752
-48.97982 30.512596 344.65033
-48.631737 31.053596 344.44998
-48.979805 30.512611 344.65033
-48.390663 31.86448 347.0692
-48.70803 31.359932 347.26236
-47.891045 32.767525 349.6747
-48.154533 32.301765 349.91168
-47.174904 33.914574 352.0186
-47.394173 33.47213 352.3278
-46.589165 35.159492 354.1233
-46.824913 34.71131 354.43872
-46.589134 35.15954 354.12335
-46.824898 34.711357 354.4388
-46.58114 36.310783 356.14398
-46.80555 35.864418 356.40167
-47.181786 37.34173 358.32492
-47.34774 36.957664 358.47992
-48.06565 38.275642 360.77444
-48.188072 37.966637 360.851
-48.065666 38.27561 360.7744
-48.188103 37.96662 360.85098
-48.901283 39.139015 363.28513
-49.00202 38.853096 363.35428
-49.61239 39.992897 365.60184
-49.716164 39.703194 365.6784
-50.38787 40.96853 367.44162
-50.524376 40.686333 367.53214
-50.387886 40.9685 367.4416
-50.52439 40.686317 367.53214
-51.302376 42.185905 368.55948
-51.491936 41.93302 368.68384
-52.322533 43.571785 369.04453
-52.553017 43.353172 369.20914
-53.557884 45.219612 369.1523
-53.8162 45.028526 369.33157
-53.55787 45.219627 369.15234
-53.816185 45.028557 369.3316
-54.615227 46.723045 369.79623
-9.980705 18.18377 275.4986
-11.655296 18.042625 272.7506
-13.864021 17.54934 272.68884
-20.105598 15.646904 274.79007
-25.546227 12.505516 277.7807
-25.546196 12.505531 277.7807
-29.563042 9.153069 280.9948
-38.02912 5.601677 291.54663
-39.236855 5.965111 293.49625
-40.37107 6.803795 295.32446
-42.575356 9.381294 299.41388
-43.494514 10.781471 301.50528
-44.412254 12.196266 303.58743
-46.10961 15.167198 308.42538
-46.109596 15.167213 308.4254
-46.824364 16.362724 310.72418
-47.47689 17.375435 312.99634
-47.888847 18.398216 314.86435
-48.27575 19.421715 316.13492
-49.83378 22.375862 320.19513
-49.833763 22.375877 320.19516
-48.997673 26.708214 331.88354
-49.06556 27.389778 334.45288
-49.071938 28.103874 337.00778
-49.071953 28.103859 337.00778
-49.122337 28.85485 339.48965
-48.979805 30.512596 344.65033
-48.97979 30.512611 344.65033
-48.708015 31.359932 347.2624
-48.154533 32.30175 349.91168
-46.82493 34.71131 354.43872
-46.824913 34.711357 354.4388
-46.80555 35.864403 356.40167
-47.347755 36.957664 358.47992
-48.188087 37.966652 360.85104
-48.188103 37.966637 360.85098
-49.00202 38.85311 363.3543
-49.71615 39.70318 365.6784
-51.491936 41.933006 368.68384
-53.816185 45.02854 369.3316
POLYGONS 1094 4376
3 0 1 2
3 0 2 3
3 3 2 4
3 3 4 5
3 5 4 6
3 5 6 7
3 7 6 8
3 7 8 9
3 9 8 10
3 11 12 13
3 13 12 14
3 15 16 17
3 17 16 18
3 17 18 19
3 19 18 20
3 19 20 21
3 21 20 22
3 21 23 24
3 24 23 25
3 24 25 26
3 26 25 27
3 26 27 28
3 28 27 29
3 28 29 30
3 30 29 31
3 30 31 32
3 32 31 33
3 32 33 34
3 34 33 35
3 34 35 36
3 36 35 37
3 38 39 40
3 40 39 41
3 40 41 42
3 42 41 43
3 42 43 44
3 44 43 45
3 46 47 48
3 48 47 49
3 48 49 50
3 50 49 51
3 52 53 54
3 54 53 55
3 54 55 56
3 56 55 57
3 56 57 58
3 58 57 59
3 60 61 62
3 62 61 63
3 62 63 64
3 64 63 65
3 64 65 66
3 66 65 67
3 68 69 70
3 70 69 71
3 70 71 72
3 72 71 73
3 72 73 74
3 74 73 75
3 76 77 78
3 78 77 79
3 78 79 80
3 80 79 81
3 80 81 82
3 82 81 83
3 84 85 86
3 86 85 87
3 86 87 88
3 88 87 89
3 88 89 90
3 90 89 91
3 90 92 93
3 93 92 94
3 93 94 95
3 95 94 96
3 95 96 97
3 97 96 98
3 97 98 99
3 99 98 100
3 101 102 103
3 103 102 104
3 103 104 105
3 105 104 106
3 105 106 107
3 107 106 108
3 109 110 111
3 111 110 112
3 111 112 113
3 113 112 114
3 113 114 115
3 115 114 116
3 115 117 118
3 118 117 119
3 118 119 120
3 120 119 121
3 120 121 122
3 122 121 123
3 124 125 126
3 1 127 2
3 2 127 128
3 2 128 4
3 4 128 129
3 4 129 6
3 6 129 130
3 6 130 8
3 8 130 131
3 8 131 10
3 10 131 132
3 12 133 14
3 14 133 134
3 16 134 18
3 18 134 135
3 18 135 20
3 20 135 136
3 20 136 22
3 22 136 137
3 23 138 25
3 25 138 139
3 25 139 27
3 27 139 140
3 27 140 29
3 29 140 141
3 29 141 31
3 31 141 142
3 31 142 33
3 33 142 143
3 33 143 35
3 35 143 144
3 35 144 37
3 37 144 145
3 39 146 41
3 41 146 147
3 41 147 43
3 43 147 148
3 43 148 45
3 45 148 149
3 47 150 49
3 49 150 151
3 49 151 51
3 51 151 152
3 53 153 55
3 55 153 154
3 55 154 57
3 57 154 155
3 57 155 59
3 59 155 156
3 61 157 63
3 63 157 158
3 63 158 65
3 65 158 159
3 65 159 67
3 67 159 160
3 69 161 71
3 71 161 162
3 71 162 73
3 73 162 163
3 73 163 75
3 75 163 164
3 77 165 79
3 79 165 166
3 79 166 81
3 81 166 167
3 81 167 83
3 83 167 168
3 85 169 87
3 87 169 170
3 87 170 89
3 89 170 171
3 89 171 91
3 91 171 172
3 92 172 94
3 94 172 173
3 94 173 96
3 96 173 174
3 96 174 98
3 98 174 175
3 98 175 100
3 100 175 176
3 102 177 104
3 104 177 178
3 104 178 106
3 106 178 179
3 106 179 108
3 108 179 180
3 110 181 112
3 112 181 182
3 112 182 114
3 114 182 183
3 114 183 116
3 116 183 184
3 117 185 119
3 119 185 186
3 119 186 121
3 121 186 187
3 121 187 123
3 123 187 188
3 125 189 126
3 126 189 190
3 127 191 128
3 128 191 192
3 128 192 129
3 129 192 193
3 129 193 130
3 130 193 194
3 130 194 131
3 131 194 195
3 131 195 132
3 132 195 196
3 133 197 134
3 134 197 198
3 134 199 135
3 135 199 200
3 135 200 136
3 136 200 201
3 136 201 137
3 137 201 202
3 138 203 139
3 139 203 204
3 139 204 140
3 140 204 205
3 140 205 141
3 141 205 206
3 141 206 142
3 142 206 207
3 142 207 143
3 143 207 208
3 143 208 144
3 144 208 209
3 144 209 145
3 145 209 210
3 146 211 147
3 147 211 212
3 147 212 148
3 148 212 213
3 148 213 149
3 149 213 214
3 150 215 151
3 151 215 216
3 151 216 152
3 152 216 217
3 153 218 154
3 154 218 219
3 154 219 155
3 155 219 220
3 155 220 156
3 156 220 221
3 157 222 158
3 158 222 223
3 158 223 159
3 159 223 224
3 159 224 160
3 160 224 225
3 161 226 162
3 162 226 227
3 162 227 163
3 163 227 228
3 163 228 164
3 164 228 229
3 165 230 166
3 166 230 231
3 166 231 167
3 167 231 232
3 167 232 168
3 168 232 233
3 169 234 170
3 170 234 235
3 170 235 171
3 171 235 236
3 171 236 172
3 172 236 237
3 172 238 173
3 173 238 239
3 173 239 174
3 174 239 240
3 174 240 175
3 175 240 241
3 175 241 176
3 176 241 242
3 177 243 178
3 178 243 244
3 178 244 179
3 179 244 245
3 179 245 180
3 180 245 246
3 181 247 182
3 182 247 248
3 182 248 183
3 183 248 249
3 183 249 184
3 184 249 250
3 185 251 186
3 186 251 252
3 186 252 187
3 187 252 253
3 187 253 188
3 188 253 254
3 189 255 190
3 190 255 256
3 192 191 257
3 192 257 193
3 193 257 258
3 193 258 194
3 194 258 259
3 194 259 195
3 195 259 260
3 195 260 196
3 196 260 261
3 197 262 198
3 198 262 263
3 199 264 200
3 200 264 265
3 200 265 201
3 201 265 266
3 201 266 202
3 202 266 267
3 203 267 204
3 204 267 268
3 204 268 205
3 205 268 269
3 205 269 206
3 206 269 270
3 206 270 207
3 207 270 271
3 207 271 208
3 208 271 272
3 208 272 209
3 209 272 273
3 209 273 210
3 210 273 274
3 211 275 212
3 212 275 276
3 212 276 213
3 213 276 277
3 213 277 214
3 214 277 278
3 215 279 216
3 216 279 280
3 216 280 217
3 217 280 281
3 218 282 219
3 219 282 283
3 219 283 220
3 220 283 284
3 220 284 221
3 221 284 285
3 222 286 223
3 223 286 287
3 223 287 224
3 224 287 288
3 224 288 225
3 225 288 289
3 226 290 227
3 227 290 291
3 227 291 228
3 228 291 292
3 228 292 229
3 229 292 293
3 230 294 231
3 231 294 295
3 231 295 232
3 232 295 296
3 232 296 233
3 233 296 297
3 234 298 235
3 235 298 299
3 235 299 236
3 236 299 300
3 236 300 237
3 237 300 301
3 238 302 239
3 239 302 303
3 239 303 240
3 240 303 304
3 240 304 241
3 241 304 305
3 241 305 242
3 242 305 306
3 243 307 244
3 244 307 308
3 244 308 245
3 245 308 309
3 245 309 246
3 246 309 310
3 247 311 248
3 248 311 312
3 248 312 249
3 249 312 313
3 249 313 250
3 250 313 314
3 251 314 252
3 252 314 315
3 252 315 253
3 253 315 316
3 253 316 254
3 254 316 317
3 255 318 256
3 256 318 126
3 191 319 257
3 257 319 320
3 257 320 258
3 258 320 321
3 258 321 259
3 259 321 322
3 259 322 260
3 260 322 323
3 260 323 261
3 261 323 324
3 262 325 263
3 263 325 326
3 264 327 265
3 265 327 328
3 265 328 266
3 266 328 329
3 266 329 267
3 267 329 330
3 267 331 268
3 268 331 332
3 268 332 269
3 269 332 333
3 269 333 270
3 270 333 334
3 270 334 271
3 271 334 335
3 271 335 272
3 272 335 336
3 272 336 273
3 273 336 337
3 273 337 274
3 274 337 338
3 275 339 276
3 276 339 340
3 276 340 277
3 277 340 341
3 277 341 278
3 278 341 342
3 279 343 280
3 280 343 344
3 280 344 281
3 281 344 345
3 282 346 283
3 283 346 347
3 283 347 284
3 284 347 348
3 284 348 285
3 285 348 349
3 286 350 287
3 287 350 351
3 287 351 288
3 288 351 352
3 288 352 289
3 289 352 353
3 290 354 291
3 291 354 355
3 291 355 292
3 292 355 356
3 292 356 293
3 293 356 357
3 294 357 295
3 295 357 358
3 295 358 296
3 296 358 359
3 296 359 297
3 297 359 360
3 298 361 299
3 299 361 362
3 299 362 300
3 300 362 363
3 300 363 301
3 301 363 364
3 302 365 303
3 303 365 366
3 303 366 304
3 304 366 367
3 304 367 305
3 305 367 368
3 305 368 306
3 306 368 369
3 307 370 308
3 308 370 371
3 308 371 309
3 309 371 372
3 309 372 310
3 310 372 373
3 311 374 312
3 312 374 375
3 312 375 313
3 313 375 376
3 313 376 314
3 314 376 377
3 314 378 315
3 315 378 379
3 315 379 316
3 316 379 380
3 316 380 317
3 317 380 381
3 318 382 126
3 319 1 320
3 320 1 383
3 320 383 321
3 321 383 384
3 321 384 322
3 322 384 385
3 322 385 323
3 323 385 386
3 323 386 324
3 324 386 387
3 325 387 326
3 326 387 388
3 327 388 328
3 328 388 389
3 328 389 329
3 329 389 390
3 329 390 330
3 330 390 391
3 331 392 332
3 332 392 393
3 332 393 333
3 333 393 394
3 333 394 334
3 334 394 395
3 334 395 335
3 335 395 396
3 335 396 336
3 336 396 397
3 336 397 337
3 337 397 398
3 337 398 338
3 338 398 399
3 339 400 340
3 340 400 401
3 340 401 341
3 341 401 402
3 341 402 342
3 342 402 403
3 343 404 344
3 344 404 405
3 344 405 345
3 345 405 406
3 346 407 347
3 347 407 408
3 347 408 348
3 348 408 409
3 348 409 349
3 349 409 410
3 350 411 351
3 351 411 412
3 351 412 352
3 352 412 413
3 352 413 353
3 353 413 414
3 354 415 355
3 355 415 416
3 355 416 356
3 356 416 417
3 356 417 357
3 357 417 418
3 357 419 358
3 358 419 420
3 358 420 359
3 359 420 421
3 359 421 360
3 360 421 422
3 361 423 362
3 362 423 424
3 362 424 363
3 363 424 425
3 363 425 364
3 364 425 426
3 365 427 366
3 366 427 428
3 366 428 367
3 367 428 429
3 367 429 368
3 368 429 430
3 368 430 369
3 369 430 431
3 370 432 371
3 371 432 433
3 371 433 372
3 372 433 434
3 372 434 373
3 373 434 435
3 374 436 375
3 375 436 437
3 375 437 376
3 376 437 438
3 376 438 377
3 377 438 439
3 378 440 379
3 379 440 441
3 379 441 380
3 380 441 442
3 380 442 381
3 381 442 443
3 382 444 126
3 126 444 445
3 1 446 383
3 383 446 447
3 383 447 384
3 384 447 448
3 384 448 385
3 385 448 449
3 385 449 386
3 386 449 450
3 386 450 387
3 387 450 451
3 387 452 388
3 388 452 453
3 388 454 389
3 389 454 455
3 389 455 390
3 390 455 456
3 390 456 391
3 391 456 457
3 392 458 393
3 393 458 459
3 393 459 394
3 394 459 460
3 394 460 395
3 395 460 461
3 395 461 396
3 396 461 462
3 396 462 397
3 397 462 463
3 397 463 398
3 398 463 464
3 398 464 399
3 399 464 465
3 400 466 401
3 401 466 467
3 401 467 402
3 402 467 468
3 402 468 403
3 403 468 469
3 404 470 405
3 405 470 471
3 405 471 406
3 406 471 472
3 407 473 408
3 408 473 474
3 408 474 409
3 409 474 475
3 409 475 410
3 410 475 476
3 411 477 412
3 412 477 478
3 412 478 413
3 413 478 479
3 413 479 414
3 414 479 480
3 415 481 416
3 416 481 482
3 416 482 417
3 417 482 483
3 417 483 418
3 418 483 484
3 419 485 420
3 420 485 486
3 420 486 421
3 421 486 487
3 421 487 422
3 422 487 488
3 423 489 424
3 424 489 490
3 424 490 425
3 425 490 491
3 425 491 426
3 426 491 492
3 427 493 428
3 428 493 494
3 428 494 429
3 429 494 495
3 429 495 430
3 430 495 496
3 430 496 431
3 431 496 497
3 432 498 433
3 433 498 499
3 433 499 434
3 434 499 500
3 434 500 435
3 435 500 501
3 436 502 437
3 437 502 503
3 437 503 438
3 438 503 504
3 438 504 439
3 439 504 505
3 440 506 441
3 441 506 507
3 441 507 442
3 442 507 508
3 442 508 443
3 443 508 509
3 444 510 445
3 445 510 511
3 446 1 447
3 447 1 512
3 447 512 448
3 448 512 513
3 448 513 449
3 449 513 514
3 449 514 450
3 450 514 515
3 450 515 451
3 451 515 516
3 452 517 453
3 453 517 518
3 454 519 455
3 455 519 520
3 455 520 456
3 456 520 521
3 456 521 457
3 457 521 522
3 458 523 459
3 459 523 524
3 459 524 460
3 460 524 525
3 460 525 461
3 461 525 526
3 461 526 462
3 462 526 527
3 462 527 463
3 463 527 528
3 463 528 464
3 464 528 529
3 464 529 465
3 465 529 530
3 466 531 467
3 467 531 532
3 467 532 468
3 468 532 533
3 468 533 469
3 469 533 534
3 470 535 471
3 471 535 536
3 471 536 472
3 472 536 537
3 473 538 474
3 474 538 539
3 474 539 475
3 475 539 540
3 475 540 476
3 476 540 541
3 477 542 478
3 478 542 543
3 478 543 479
3 479 543 544
3 479 544 480
3 480 544 545
3 481 546 482
3 482 546 547
3 482 547 483
3 483 547 548
3 483 548 484
3 484 548 549
3 485 550 486
3 486 550 551
3 486 551 487
3 487 551 552
3 487 552 488
3 488 552 553
3 489 554 490
3 490 554 555
3 490 555 491
3 491 555 556
3 491 556 492
3 492 556 557
3 493 558 494
3 494 558 559
3 494 559 495
3 495 559 560
3 495 560 496
3 496 560 561
3 496 561 497
3 497 561 562
3 498 563 499
3 499 563 564
3 499 564 500
3 500 564 565
3 500 565 501
3 501 565 566
3 502 567 503
3 503 567 568
3 503 568 504
3 504 568 569
3 504 569 505
3 505 569 570
3 506 571 507
3 507 571 572
3 507 572 508
3 508 572 573
3 508 573 509
3 509 573 574
3 510 575 511
3 511 575 126
3 512 1 576
3 512 576 513
3 513 576 577
3 513 577 514
3 514 577 578
3 514 578 515
3 515 578 579
3 515 579 516
3 516 579 580
3 517 581 518
3 518 581 582
3 519 583 520
3 520 583 584
3 520 584 521
3 521 584 585
3 521 585 522
3 522 585 586
3 523 587 524
3 524 587 588
3 524 588 525
3 525 588 589
3 525 589 526
3 526 589 590
3 526 590 527
3 527 590 591
3 527 591 528
3 528 591 592
3 528 592 529
3 529 592 593
3 529 593 530
3 530 593 594
3 531 595 532
3 532 595 596
3 532 596 533
3 533 596 597
3 533 597 534
3 534 597 598
3 535 599 536
3 536 599 600
3 536 600 537
3 537 600 601
3 538 602 539
3 539 602 603
3 539 603 540
3 540 603 604
3 540 604 541
3 541 604 605
3 542 606 543
3 543 606 607
3 543 607 544
3 544 607 608
3 544 608 545
3 545 608 609
3 546 610 547
3 547 610 611
3 547 611 548
3 548 611 612
3 548 612 549
3 549 612 613
3 550 613 551
3 551 613 614
3 551 614 552
3 552 614 615
3 552 615 553
3 553 615 616
3 554 617 555
3 555 617 618
3 555 618 556
3 556 618 619
3 556 619 557
3 557 619 620
3 558 621 559
3 559 621 622
3 559 622 560
3 560 622 623
3 560 623 561
3 561 623 624
3 561 624 562
3 562 624 625
3 563 626 564
3 564 626 627
3 564 627 565
3 565 627 628
3 565 628 566
3 566 628 629
3 567 630 568
3 568 630 631
3 568 631 569
3 569 631 632
3 569 632 570
3 570 632 633
3 571 634 572
3 572 634 635
3 572 635 573
3 573 635 636
3 573 636 574
3 574 636 637
3 575 638 126
3 639 640 641
3 641 640 642
3 641 642 643
3 643 642 644
3 643 644 645
3 645 644 646
3 645 646 647
3 647 646 648
3 647 648 649
3 649 648 650
3 651 652 653
3 653 652 654
3 655 656 657
3 657 656 658
3 657 658 659
3 659 658 660
3 659 660 661
3 661 660 662
3 663 662 664
3 664 662 665
3 664 665 666
3 666 665 667
3 666 667 668
3 668 667 669
3 668 669 670
3 670 669 671
3 670 671 672
3 672 671 673
3 672 673 674
3 674 673 675
3 674 675 676
3 676 675 677
3 678 679 680
3 680 679 681
3 680 681 682
3 682 681 683
3 682 683 684
3 684 683 685
3 686 687 688
3 688 687 689
3 688 689 690
3 690 689 691
3 692 693 603
3 603 693 694
3 603 694 604
3 604 694 695
3 604 695 605
3 605 695 696
3 606 697 698
3 698 697 699
3 698 699 700
3 700 699 701
3 700 701 702
3 702 701 703
3 704 705 706
3 706 705 707
3 706 707 708
3 708 707 709
3 708 709 710
3 710 709 711
3 712 713 714
3 714 713 715
3 714 715 716
3 716 715 717
3 716 717 718
3 718 717 719
3 720 721 722
3 722 721 723
3 722 723 619
3 619 723 724
3 619 724 620
3 620 724 725
3 726 727 728
3 728 727 729
3 728 729 730
3 730 729 731
3 730 731 732
3 732 731 733
3 732 733 734
3 734 733 735
3 736 737 738
3 738 737 739
3 738 739 740
3 740 739 741
3 740 741 742
3 742 741 743
3 744 745 746
3 746 745 747
3 746 747 748
3 748 747 749
3 748 749 750
3 750 749 751
3 752 753 754
3 754 753 755
3 754 755 756
3 756 755 757
3 756 757 758
3 758 757 759
3 760 761 762
3 762 761 126
3 763 1 764
3 764 1 0
3 764 0 765
3 765 0 3
3 765 3 646
3 646 3 5
3 646 5 766
3 766 5 7
3 766 7 650
3 650 7 9
3 652 11 767
3 767 11 13
3 768 15 658
3 658 15 17
3 658 17 769
3 769 17 19
3 769 19 662
3 662 19 21
3 662 21 665
3 665 21 24
3 665 24 667
3 667 24 26
3 667 26 669
3 669 26 28
3 669 28 770
3 770 28 30
3 770 30 771
3 771 30 32
3 771 32 772
3 772 32 34
3 772 34 677
3 677 34 36
3 679 38 773
3 773 38 40
3 773 40 774
3 774 40 42
3 774 42 685
3 685 42 44
3 775 46 689
3 689 46 48
3 689 48 776
3 776 48 50
3 777 52 778
3 778 52 54
3 778 54 779
3 779 54 56
3 779 56 696
3 696 56 58
3 780 60 781
3 781 60 62
3 781 62 701
3 701 62 64
3 701 64 782
3 782 64 66
3 783 68 707
3 707 68 70
3 707 70 709
3 709 70 72
3 709 72 711
3 711 72 74
3 713 76 784
3 784 76 78
3 784 78 785
3 785 78 80
3 785 80 786
3 786 80 82
3 787 84 788
3 788 84 86
3 788 86 724
3 724 86 88
3 724 88 789
3 789 88 90
3 790 90 791
3 791 90 93
3 791 93 792
3 792 93 95
3 792 95 733
3 733 95 97
3 733 97 793
3 793 97 99
3 794 101 795
3 795 101 103
3 795 103 796
3 796 103 105
3 796 105 797
3 797 105 107
3 798 109 799
3 799 109 111
3 799 111 800
3 800 111 113
3 800 113 751
3 751 113 115
3 753 115 801
3 801 115 118
3 801 118 757
3 757 118 120
3 757 120 759
3 759 120 122
3 802 124 511
3 511 124 126
