# vtk DataFile Version 2.0
File written by itkPolyDataMeshIO
ASCII
DATASET POLYDATA
POINTS 805 float
12.914085 -1.328285 309.09427
12.895882 3.558846 311.16516
10.329659 -0.296211 312.57587
10.685936 -2.589836 307.5894
8.485466 -1.099983 312.98712
7.193947 -3.067833 306.34717
5.696053 -1.332298 313.1157
3.474876 -2.422234 305.56815
2.407341 -0.659996 312.59528
-0.050209 -1.332481 304.961
-0.985756 0.36927 311.79315
-0.050209 -1.332481 304.96103
-0.985756 0.36927 311.79318
-3.438988 -0.197777 304.3485
-4.357307 1.441948 310.95148
-3.438957 -0.197777 304.34854
-6.700111 0.877708 303.7039
-7.657845 2.469856 310.10876
-9.83503 1.900627 302.98843
-10.91938 3.451942 309.19525
-12.805107 2.895378 302.14175
-14.153099 4.403481 308.09692
-12.805122 2.895378 302.14175
-14.153114 4.403481 308.09692
-15.528587 3.864601 301.13425
-17.26551 5.318199 306.72308
-18.084267 4.86068 299.9432
-20.192024 6.236671 305.04697
-20.667778 5.968956 298.58295
-22.929222 7.240425 303.17065
-23.356255 7.173439 297.16214
-25.495903 8.327003 301.29565
-26.179024 8.372749 295.77097
-28.03878 9.414619 299.5389
-29.165901 9.463997 294.4245
-30.721504 10.418694 297.9375
-32.329247 10.517998 293.2101
-33.535576 11.405373 296.59134
-32.32923 10.518013 293.21014
-33.53556 11.405373 296.59137
-35.64631 11.974205 292.3036
-36.380623 12.762444 295.53094
-38.704674 13.928032 291.55542
-39.188805 14.597588 294.53247
-41.18589 15.926933 290.44647
-41.905586 16.534035 293.2354
-41.185875 15.926933 290.4465
-41.90557 16.53405 293.23544
-43.2013 17.919426 288.89267
-44.365334 18.51815 291.5193
-44.75512 19.852226 286.9603
-46.437202 20.588585 289.35745
-44.755104 19.852226 286.9603
-46.437172 20.5886 289.3575
-46.23037 21.831184 285.04532
-48.00567 22.843193 287.2502
-47.955925 24.264366 283.3948
-49.337288 25.075417 285.69165
-49.59272 27.390877 282.10828
-50.592567 27.93734 284.3579
-49.592705 27.390892 282.10828
-50.592552 27.93734 284.3579
-50.33677 30.766487 280.81842
-51.21566 31.465385 282.6517
-50.465355 33.8086 279.17487
-51.280968 34.76786 280.69534
-50.748833 36.530083 277.22717
-51.454475 37.64466 278.7182
-50.748833 36.530098 277.2272
-51.454475 37.64469 278.71823
-50.787804 39.2163 274.9596
-51.565956 40.391914 276.38824
-50.31472 41.905907 272.55444
-51.292397 43.07978 273.82968
-49.843025 44.536613 270.35474
-50.825203 45.69628 271.53192
-49.843025 44.5366 270.35468
-50.825203 45.696266 271.5319
-49.139107 47.129723 268.194
-50.008186 48.27758 269.20316
-48.08677 49.643303 265.926
-48.72042 50.808052 266.7478
-47.1186 51.934914 263.35208
-47.587196 53.11767 264.11026
-47.118614 51.9349 263.35205
-47.58721 53.11767 264.11026
-46.36628 54.08181 260.45316
-46.737846 55.28971 261.18976
-45.62632 56.102913 257.44055
-45.953392 57.30065 258.13013
-45.038292 58.03463 254.36154
-45.31173 59.206444 255.00519
-45.038277 58.034645 254.36153
-45.311714 59.20646 255.00517
-44.696465 59.997948 251.06917
-44.891396 61.11651 251.65523
-45.031532 61.811363 247.98021
-45.09304 62.847084 248.50334
-45.78428 63.40104 245.135
-45.774635 64.40203 245.65828
-46.210762 64.63259 242.19228
-46.25788 65.668755 242.62175
-46.21073 64.63262 242.1923
-46.25785 65.668785 242.62178
-45.866035 65.336266 239.01195
-45.988243 66.41506 239.22362
-44.97811 65.70504 235.68762
-45.12525 66.80352 235.76399
-43.72161 66.10879 232.2233
-43.865547 67.13766 232.27847
-43.721626 66.10879 232.22327
-43.865562 67.13763 232.27843
-41.84487 66.79067 228.7565
-41.981728 67.61541 228.81361
-39.633904 67.655754 225.56163
-39.766045 68.3019 225.6266
-37.669548 68.19503 222.61372
-37.768074 68.79464 222.638
-37.669548 68.195 222.6137
-37.768074 68.79461 222.63802
-35.844643 67.97317 219.8561
-35.868614 68.50921 219.7772
-34.134895 67.03002 217.38371
-34.09762 67.44402 217.23325
-32.40789 65.57177 214.95523
-32.354332 65.89309 214.8005
-32.407875 65.5718 214.95523
-32.354317 65.89312 214.8005
-30.632118 64.38613 213.07565
12.895866 3.55883 311.16513
9.445869 1.634346 313.95416
7.979515 1.519615 315.06342
5.61692 1.719154 315.7014
2.554878 2.438408 315.26505
-0.764824 3.361305 314.39185
-0.764809 3.361305 314.39185
-4.121071 4.324959 313.47162
-4.12104 4.324959 313.47162
-7.448967 5.269188 312.56024
-10.783546 6.179497 311.58182
-14.15403 7.055 310.40613
-17.474266 7.873894 308.91327
-20.600807 8.655968 307.07474
-23.42472 9.47596 305.02512
-25.965141 10.355217 302.98352
-28.434624 11.246407 301.06964
-31.033104 12.097206 299.34586
-33.70014 12.965477 297.93427
-33.700127 12.965492 297.9343
-36.272545 14.148369 296.81845
-38.886086 15.774879 295.7549
-41.653526 17.601463 294.46814
-41.65351 17.601479 294.46814
-44.27938 19.548546 292.80087
-46.554115 21.658943 290.65424
-46.554115 21.658974 290.65424
-48.12754 23.963737 288.4474
-49.289314 26.05236 286.8862
-50.3926 28.64495 285.53232
-50.3926 28.644966 285.53232
-50.98423 32.015175 283.6679
-51.03591 35.332375 281.56412
-51.141014 38.283882 279.51813
-51.141014 38.283913 279.51816
-51.288063 41.065514 277.18713
-51.13851 43.752388 274.65002
-50.70054 46.3581 272.32358
-49.87731 48.912315 269.9389
-48.520714 51.41349 267.41428
-47.306847 53.723564 264.69342
-47.30686 53.72355 264.6934
-46.397392 55.908134 261.71008
-45.6009 57.91384 258.60498
-44.947166 59.806374 255.42522
-44.94718 59.80639 255.4252
-44.515724 61.689217 251.99306
-44.697548 63.37742 248.7116
-45.359352 64.91457 245.81824
-45.864403 66.19924 242.78575
-45.864388 66.19927 242.78578
-45.63929 66.9674 239.37811
-44.798225 67.36596 235.91371
-43.569466 67.66439 232.43127
-43.569466 67.66439 232.43124
-41.768135 68.03762 228.97461
-39.623558 68.632744 225.79324
-37.62406 69.101616 222.77525
-37.62406 69.101616 222.77524
-35.705376 68.78365 219.84836
-33.937218 67.65597 217.2472
-32.215935 66.063225 214.7935
-32.21592 66.063255 214.79353
-30.632133 64.3861 213.07564
12.895897 3.558846 311.1652
9.304771 3.617058 314.37216
8.142784 4.084892 315.6444
6.039757 4.707146 316.40887
3.095909 5.472374 315.98224
-0.182991 6.291115 315.09268
-0.182961 6.291115 315.09268
-3.527153 7.148018 314.15912
-6.873711 8.010307 313.23532
-10.250481 8.850349 312.24872
-13.69088 9.65139 311.0688
-17.121407 10.376457 309.5623
-20.355293 11.024986 307.69995
-23.228157 11.665001 305.6244
-25.77967 12.341209 303.54337
-28.259315 13.040108 301.5708
-30.863503 13.740837 299.791
-33.478065 14.493187 298.3479
-33.478035 14.493202 298.3479
-35.892647 15.505501 297.2199
-38.36361 16.927696 296.1662
-41.109505 18.646706 294.95627
-41.109474 18.646706 294.95627
-43.777016 20.554024 293.40295
-46.107735 22.672005 291.35794
-46.10772 22.67202 291.35797
-47.645363 24.95794 289.11044
-48.746803 26.93885 287.5101
-49.79653 29.300407 286.15494
-49.796516 29.300407 286.15497
-50.340492 32.46525 284.3082
-50.345924 35.746468 282.18387
-50.3908 38.74752 280.05817
-50.390816 38.74755 280.0582
-50.55903 41.553963 277.75195
-50.506462 44.240013 275.3101
-50.10769 46.833305 272.98108
-50.10769 46.83329 272.98105
-49.312782 49.33306 270.57108
-47.937828 51.746147 267.99805
-46.67843 54.039635 265.17825
-46.67843 54.03962 265.17822
-45.727776 56.23014 262.11392
-44.935036 58.233116 258.9652
-44.2893 60.118767 255.72784
-44.289284 60.118767 255.72783
-43.87905 61.98742 252.20401
-44.095512 63.65354 248.76474
-44.76249 65.18145 245.80145
-45.27218 66.47549 242.81937
-45.27215 66.47552 242.81938
-45.075813 67.255 239.50139
-44.254616 67.658775 236.09428
-43.07218 67.93871 232.62642
-43.072197 67.93868 232.62637
-41.39376 68.25756 229.18068
-39.35444 68.805016 226.00375
-37.368675 69.2615 222.96254
-37.368675 69.2615 222.96251
-35.457558 68.92657 219.98894
-33.722557 67.76635 217.33894
-32.037987 66.15618 214.85954
-32.037956 66.15621 214.85954
-30.632118 64.38613 213.07567
9.748421 5.564461 314.02988
8.789909 6.494987 315.10178
6.812019 7.514259 315.70615
3.901375 8.322685 315.23422
0.637535 9.043571 314.36923
0.63755 9.043571 314.36923
-2.697502 9.800179 313.4708
-6.055397 10.585503 312.57635
-9.449898 11.359489 311.62363
-12.907997 12.090599 310.49323
-12.908012 12.090584 310.49323
-16.372276 12.727562 309.05106
-19.640709 13.250618 307.26767
-22.53263 13.721535 305.2755
-25.122108 14.207008 303.2502
-27.672752 14.725227 301.2938
-30.348442 15.284966 299.50922
-32.98223 15.928368 298.06088
-32.98223 15.928398 298.0609
-35.33036 16.780449 296.95312
-37.70336 18.010735 295.96365
-40.375618 19.628685 294.87595
-40.375618 19.628685 294.876
-42.990227 21.49778 293.47998
-45.25315 23.614891 291.60272
-45.253136 23.614906 291.60275
-46.696754 25.865944 289.37335
-47.83396 27.753685 287.70166
-48.9069 29.900139 286.352
-48.906883 29.900154 286.35202
-49.365517 32.810448 284.61777
-49.293724 35.98687 282.5252
-49.291542 39.005775 280.30685
-49.291527 39.00579 280.3069
-49.465523 41.825645 278.04745
-49.47605 44.51116 275.76236
-49.123604 47.090218 273.4536
-49.12362 47.090202 273.4536
-48.39489 49.50437 271.03577
-47.066338 51.76214 268.414
-45.806023 54.019493 265.48917
-45.806023 54.019478 265.48914
-44.839424 56.20832 262.33847
-44.065437 58.211464 259.15506
-43.44625 60.097572 255.86649
-43.446236 60.097588 255.86649
-43.085716 61.967186 252.25612
-43.385124 63.63482 248.65625
-44.08114 65.16335 245.61272
-44.577705 66.45675 242.7188
-44.577675 66.45681 242.71883
-44.38996 67.23553 239.57419
-43.583504 67.63894 236.27664
-42.45527 67.9201 232.83234
-42.45527 67.92007 232.8323
-40.920097 68.24264 229.39848
-39.00303 68.79336 226.22415
-37.04383 69.25066 223.16945
-37.043846 69.25063 223.16942
-35.16558 68.91689 220.17569
-33.488457 67.75887 217.49289
-31.846962 66.158226 214.9886
-31.846947 66.15829 214.98862
-30.632103 64.38616 213.07565
10.785789 7.269753 312.8998
9.884148 8.608955 313.46487
7.889305 9.976448 313.63135
4.924843 10.822777 313.0617
1.649345 11.457802 312.2608
1.649361 11.457817 312.2608
-1.680031 12.126442 311.44397
-5.041328 12.844246 310.61905
-8.42794 13.560326 309.74042
-11.85038 14.230095 308.7106
-11.85038 14.230095 308.71057
-15.269753 14.789742 307.40707
-18.497734 15.202736 305.80103
-21.377586 15.525352 303.99695
-24.029793 15.843513 302.11948
-26.70829 16.203255 300.25327
-29.517235 16.63935 298.51544
-32.241066 17.187233 297.08862
-32.241035 17.187248 297.08865
-34.618095 17.89872 296.03223
-36.943565 18.960655 295.1578
-39.494347 20.489967 294.2308
-39.49433 20.489983 294.2308
-41.963753 22.323006 293.02493
-44.034096 24.416588 291.35718
-44.03408 24.416618 291.3572
-45.32264 26.588066 289.17157
-46.595695 28.417274 287.41403
-47.7911 30.386055 286.0659
-47.791084 30.386055 286.0659
-48.23948 32.938957 284.40875
-48.181694 35.87046 282.311
-48.18702 38.842415 280.01178
-48.187004 38.842445 280.0118
-48.342003 41.65235 277.80933
-48.336693 44.33808 275.69922
-48.023033 46.91308 273.43958
-48.02305 46.91308 273.43958
-47.410393 49.282616 271.07578
-46.244576 51.448784 268.4873
-45.043633 53.68093 265.50732
-45.043648 53.6809 265.5073
-44.092537 55.8619 262.3
-43.344353 57.867973 259.1042
-42.75907 59.761528 255.79105
-42.75907 59.761528 255.79103
-42.456184 61.646385 252.13359
-42.852333 63.33773 248.43427
-43.588844 64.87621 245.33241
-44.060356 66.15957 242.5282
-44.060326 66.15963 242.52823
-43.85833 66.92611 239.56912
-43.05578 67.323845 236.38817
-41.96778 67.62499 232.9668
-41.967796 67.62499 232.96675
-40.53858 68.006065 229.54106
-38.711617 68.607994 226.3664
-36.780952 69.0787 223.31303
-36.780952 69.078636 223.313
-34.946953 68.763115 220.33289
-33.32862 67.64016 217.64586
-31.715965 66.06536 215.1335
-31.71595 66.06542 215.13353
12.895897 3.558846 311.16516
12.305016 8.091026 311.04202
11.299965 9.671532 310.7334
9.088387 11.214149 310.1906
5.960457 12.079521 309.4764
2.638329 12.671394 308.77765
2.638329 12.671394 308.77768
-0.692085 13.295815 308.08542
-0.692055 13.295815 308.08545
-4.044334 13.979668 307.36737
-7.388466 14.666634 306.5989
-10.708839 15.30558 305.71368
-10.708839 15.305565 305.71365
-13.983131 15.826332 304.615
-17.074455 16.183998 303.27585
-19.901024 16.432106 301.7553
-22.63308 16.666191 300.11475
-25.48365 16.94625 298.4189
-28.475548 17.320183 296.78848
-31.364876 17.820045 295.41522
-31.364845 17.820076 295.41525
-33.899895 18.460854 294.44003
-36.264595 19.438164 293.72003
-38.660774 20.922935 292.9616
-38.66076 20.92295 292.9616
-40.90026 22.730507 291.9366
-42.70504 24.745934 290.47595
-42.705025 24.745964 290.476
-43.90461 26.734734 288.36264
-45.36767 28.603584 286.52542
-46.761497 30.551567 285.19577
-47.324226 32.817574 283.72058
-47.35662 35.5194 281.73358
-47.40702 38.417793 279.4046
-47.407005 38.417824 279.4046
-47.53042 41.203926 277.2504
-47.455925 43.890312 275.2765
-47.16201 46.469154 273.0728
-47.16201 46.46914 273.07278
-46.65261 48.83103 270.79422
-45.658592 50.96746 268.29178
-44.538673 53.18685 265.3063
-44.538673 53.186836 265.30627
-43.622246 55.357155 262.0772
-42.899086 57.3675 258.8883
-42.34533 59.271873 255.57576
-42.34533 59.271873 255.57574
-42.09249 61.178978 251.9111
-42.57319 62.904945 248.18027
-43.349327 64.45794 245.04967
-43.792793 65.72665 242.3156
-43.792763 65.72668 242.31563
-43.56295 66.475365 239.50809
-42.755455 66.86489 236.42192
-41.688103 67.19512 233.0177
-41.688103 67.19509 233.01765
-40.312996 67.66146 229.59538
-38.53167 68.338005 226.4184
-36.62435 68.82812 223.37697
-36.62435 68.82812 223.37694
-34.83274 68.539116 220.4321
-33.260292 67.467155 217.76279
-31.666817 65.919426 215.25441
-31.666801 65.91949 215.25443
-30.632103 64.38613 213.07565
12.895882 3.558861 311.16516
13.846031 7.655968 308.9997
12.612175 9.179253 307.65988
10.027763 10.640846 306.33356
6.665459 11.497368 305.46945
3.272148 12.10923 304.88242
3.272148 12.109245 304.88245
-0.066536 12.754143 304.3224
-0.066536 12.754143 304.32242
-3.398537 13.453712 303.71844
-6.674797 14.154167 303.06473
-9.851189 14.807411 302.32614
-9.851204 14.807411 302.32614
-12.914207 15.346153 301.4399
-15.80439 15.729424 300.38104
-18.54824 16.012062 299.1588
-21.353233 16.285133 297.7782
-24.369102 16.602104 296.28763
-27.539894 17.004814 294.79816
-30.625908 17.526924 293.49728
-30.625893 17.52694 293.4973
-33.413826 18.200478 292.6104
-35.903816 19.216988 292.0384
-38.158943 20.72239 291.40143
-38.158928 20.722404 291.40146
-40.147545 22.527168 290.48816
-41.68473 24.446877 289.1759
-41.684715 24.446907 289.17593
-42.883583 26.236534 287.1706
-44.541435 28.224327 285.27472
-46.144234 30.317268 283.9779
-46.144234 30.317284 283.97794
-46.854042 32.49563 282.79205
-46.969826 35.08332 281.0337
-47.075676 37.913048 278.7282
-47.075676 37.91308 278.7282
-47.166374 40.67167 276.60327
-47.0017 43.35888 274.70062
-46.706367 45.944054 272.54156
-46.706383 45.944054 272.54156
-46.250557 48.31086 270.33884
-45.366936 50.43882 267.92047
-44.32273 52.649864 264.9633
-44.32273 52.64985 264.96326
-43.450325 54.80874 261.74365
-42.74743 56.82374 258.576
-42.2181 58.73986 255.28407
-42.2181 58.73986 255.28406
-42.001106 60.671135 251.64526
-42.542686 62.434685 247.94241
-43.351204 64.00347 244.81146
-43.768867 65.25619 242.12029
-43.768837 65.25625 242.1203
-43.504982 65.98556 239.41226
-42.68618 66.36617 236.38792
-41.620506 66.72802 232.9934
-41.620506 66.72799 232.99336
-40.249138 67.28701 229.57025
-38.470406 68.04461 226.38965
-36.578407 68.5559 223.36667
-36.578423 68.5559 223.36664
-34.820793 68.2958 220.46857
-33.276375 67.2792 217.83171
-31.696358 65.75823 215.33067
-31.696342 65.75826 215.33069
14.838585 6.188896 307.53674
13.328484 7.349464 305.40958
10.358742 8.509575 303.5223
6.780922 9.333336 302.55945
3.319221 10.019508 302.0514
-0.031792 10.740547 301.58127
-0.031776 10.740562 301.5813
-3.340126 11.498589 301.05548
-6.549232 12.249168 300.4777
-9.594856 12.955498 299.83252
-9.594856 12.955482 299.83252
-12.461372 13.561195 299.08606
-15.163063 14.039726 298.21518
-17.826546 14.450691 297.19315
-20.670143 14.868538 295.99713
-23.782478 15.322716 294.66876
-27.060738 15.832466 293.29987
-30.299843 16.437263 292.06268
-30.299812 16.437279 292.0627
-33.338326 17.232506 291.2377
-35.990746 18.394753 290.75162
-38.17121 19.976875 290.1443
-38.17121 19.97689 290.14432
-39.97854 21.805946 289.23416
-41.307304 23.683891 287.96802
-41.307304 23.683907 287.96805
-42.504906 25.408684 286.08423
-44.327797 27.511147 284.16132
-46.083168 29.80584 282.88416
-46.083168 29.805855 282.8842
-46.845512 32.066704 281.9013
-46.985405 34.615456 280.30524
-47.147514 37.380074 278.04654
-47.1475 37.380104 278.04657
-47.206963 40.109856 275.93182
-46.941414 42.79789 274.04013
-46.628242 45.39071 271.91183
-46.628258 45.39071 271.91183
-46.189293 47.769783 269.76364
-45.373833 49.902306 267.40784
-44.40058 52.107918 264.50644
-44.400597 52.107918 264.5064
-43.578377 54.25541 261.3257
-42.88981 56.275078 258.19162
-42.37641 58.20307 254.93834
-42.179085 60.158745 251.35555
-42.75451 61.960243 247.7363
-43.586266 63.5449 244.63243
-43.981987 64.78155 241.95493
-43.98197 64.78158 241.95496
-43.68029 65.49139 239.28937
-42.844963 65.86297 236.29079
-41.762444 66.25671 232.89813
-41.762444 66.256645 232.8981
-40.345894 66.9092 229.47003
-38.527992 67.74865 226.2849
-36.642586 68.28121 223.28539
-36.642586 68.28121 223.28535
-34.90847 68.050224 220.44196
-33.372887 67.08953 217.84944
-31.79435 65.60284 215.35637
-31.79432 65.6029 215.35637
12.895882 3.558846 311.16513
15.219719 4.305 306.8089
13.469566 4.95977 304.22192
10.18763 5.726158 302.05096
6.453514 6.507088 301.04672
2.939934 7.290306 300.5775
2.939949 7.290306 300.57755
-0.423576 8.110786 300.14813
-0.423592 8.110786 300.14813
-3.71093 8.945152 299.65836
-6.867668 9.761208 299.11282
-9.819695 10.536888 298.50348
-9.819695 10.536873 298.50348
-12.541939 11.230003 297.81552
-15.10421 11.832924 297.02704
-17.706078 12.411537 296.09317
-20.555748 13.018517 294.989
-23.695107 13.651802 293.75766
-27.007317 14.301384 292.46936
-30.336052 15.014198 291.27603
-30.336037 15.014214 291.27606
-33.570198 15.96833 290.48114
-36.37681 17.320885 290.01862
-38.545662 19.003212 289.3695
-38.545647 19.003227 289.3695
-40.26066 20.867851 288.38284
-41.476982 22.725288 287.0628
-41.476967 22.725304 287.0628
-42.696556 24.438744 285.24722
-44.619514 26.655525 283.34232
-46.463478 29.178688 282.07254
-46.463463 29.178688 282.07257
-47.2573 31.604134 281.14316
-47.418755 34.158882 279.61188
-47.63993 36.86489 277.42032
-47.63993 36.86492 277.42032
-47.672783 39.566994 275.29462
-47.304054 42.255882 273.34915
-46.957832 44.859306 271.23605
-46.957832 44.859306 271.23602
-46.499428 47.274437 269.1292
-45.707237 49.457954 266.8339
-44.7891 51.670143 264.01544
-44.789116 51.670143 264.0154
-44.01397 53.80883 260.89877
-43.330254 55.832222 257.8052
-42.82006 57.769783 254.60269
-42.820045 57.7698 254.60269
-42.620384 59.745186 251.09808
-43.192787 61.57731 247.60722
-44.03283 63.174767 244.55548
-44.41543 64.39843 241.85641
-44.415398 64.39849 241.85645
-44.079445 65.09252 239.16127
-43.225 65.45684 236.14313
-42.108498 65.876274 232.74324
-42.108498 65.87624 232.74321
-40.601555 66.60424 229.30667
-38.706017 67.5097 226.1169
-36.816093 68.0595 223.14163
-36.81611 68.05947 223.14162
-35.089073 67.85198 220.35066
-33.539253 66.936455 217.8068
-31.944267 65.48443 215.32434
-31.944252 65.48446 215.32434
15.219719 4.304985 306.80887
14.90696 1.954018 306.91873
13.469566 4.95977 304.2219
12.924889 1.871758 304.28992
10.187614 5.726158 302.0509
9.414253 2.12925 302.16318
6.453499 6.507088 301.0467
5.592735 2.854836 301.18564
2.939934 7.290291 300.5775
2.046471 3.76342 300.70798
2.046471 3.763435 300.708
-0.423592 8.110771 300.14813
-1.33004 4.712425 300.26108
-0.423607 8.110771 300.14813
-1.33004 4.71241 300.26108
-3.71093 8.945137 299.65833
-4.599281 5.645393 299.75732
-6.867683 9.761192 299.1128
-7.720695 6.546059 299.1923
-10.622383 7.411369 298.55035
-9.81971 10.536858 298.50348
-10.622383 7.411369 298.55032
-12.541954 11.229988 297.81552
-13.261086 8.217415 297.82443
-15.104225 11.832924 297.02704
-15.740852 8.981133 296.99323
-17.706078 12.411522 296.09317
-18.302803 9.776375 296.0146
-20.555763 13.018486 294.989
-21.119728 10.627769 294.89243
-23.695137 13.651787 293.75763
-24.20353 11.492592 293.6815
-27.007332 14.301369 292.46933
-27.462227 12.322792 292.42697
-30.336067 15.014183 291.27603
-30.805824 13.175179 291.25436
-30.336052 15.014198 291.27606
-30.805809 13.175194 291.2544
-33.570213 15.96833 290.4811
-34.172295 14.334648 290.45178
-37.125175 15.933113 289.93872
-38.545677 19.003197 289.36945
-39.357597 17.744942 289.16174
-38.545662 19.003197 289.3695
-39.357582 17.744957 289.16174
-40.26066 20.86782 288.3828
-41.08689 19.657845 288.00214
-41.476982 22.725273 287.06274
-42.316933 21.509712 286.5052
-41.476967 22.725288 287.06277
-42.316902 21.509727 286.50522
-42.696556 24.438728 285.24716
-43.614525 23.253487 284.69052
-44.619514 26.655495 283.34232
-45.548454 25.596504 282.86078
-46.463493 29.178673 282.07254
-47.4004 28.399956 281.5917
-46.463478 29.178673 282.07254
-47.400383 28.399971 281.59174
-47.257317 31.604103 281.14313
-48.21624 31.123497 280.58945
-47.41877 34.15885 279.61185
-48.393654 33.781197 279.05984
-47.639946 36.864876 277.42026
-48.66857 36.451347 276.9662
-47.63993 36.864906 277.4203
-48.66857 36.451378 276.9662
-47.6728 39.566994 275.2946
-48.685417 39.131645 274.80103
-47.30407 42.255867 273.34912
-48.225395 41.821236 272.71594
-46.957848 44.85929 271.23605
-47.829063 44.438255 270.59357
-46.957848 44.859306 271.23602
-47.829063 44.438255 270.5935
-46.499443 47.274437 269.1292
-47.302376 46.920647 268.5046
-45.707268 49.457954 266.8339
-46.466545 49.218697 266.2604
-44.789116 51.670128 264.0154
-45.572044 51.454796 263.55228
-44.78913 51.670128 264.01538
-45.572044 51.45478 263.55225
-44.013985 53.8088 260.89874
-44.831917 53.589836 260.52634
-43.33027 55.832207 257.80518
-44.138283 55.615074 257.47705
-42.82006 57.769783 254.60268
-43.612114 57.55732 254.33514
-42.82006 57.769768 254.60266
-43.61213 57.557335 254.33513
-42.620384 59.745155 251.09807
-43.378136 59.542366 250.92885
-43.192802 61.57728 247.60721
-43.893883 61.389503 247.61182
-44.032845 63.17475 244.55547
-44.719 62.993294 244.64067
-44.41543 64.3984 241.85641
-45.103447 64.210594 241.87178
-44.415398 64.39846 241.85643
-45.10343 64.210625 241.8718
-44.079445 65.09249 239.16124
-44.743782 64.896935 239.04594
-43.225014 65.45681 236.1431
-43.869576 65.25771 235.94476
-42.108513 65.876274 232.74323
-42.699303 65.68978 232.52545
-42.108513 65.87624 232.7432
-42.699318 65.68975 232.52542
-40.601555 66.60421 229.30666
-41.04995 66.454735 229.07655
-38.706017 67.50967 226.1169
-39.032555 67.39254 225.88266
-36.816093 68.0595 223.14162
-37.122612 67.9508 222.92905
-36.81611 68.05947 223.14159
-37.122627 67.95074 222.92902
-35.08909 67.85198 220.35065
-35.37751 67.754845 220.17886
-33.539253 66.936424 217.80678
-33.781776 66.86144 217.68222
-31.944283 65.4844 215.32433
-32.1448 65.4331 215.2177
-31.944267 65.48446 215.32434
-32.144768 65.43316 215.2177
-30.632118 64.38613 213.07564
12.895897 3.558861 311.16516
14.906975 1.954018 306.91873
12.924889 1.871773 304.28995
2.046455 3.763435 300.708
2.046455 3.763451 300.70804
-1.330055 4.712425 300.26105
-1.330055 4.712425 300.26108
-4.599266 5.645393 299.7573
-7.72068 6.546074 299.1923
-13.261086 8.2174 297.82443
-27.462227 12.322807 292.427
-30.805824 13.175194 291.25436
-30.805809 13.175209 291.2544
-34.172295 14.334663 290.45178
-37.125175 15.933144 289.93872
-47.400383 28.399956 281.59174
-48.39364 33.78121 279.05984
-48.668556 36.451363 276.9662
-48.685417 39.13166 274.80103
-48.225395 41.82125 272.71594
-47.829063 44.43827 270.59357
-47.829063 44.43827 270.5935
-47.302376 46.920662 268.5046
-46.466545 49.21871 266.2604
-45.57203 51.454796 263.55228
-44.831917 53.58985 260.52634
-44.138268 55.615074 257.47705
-43.612114 57.55732 254.33511
-43.612114 57.557335 254.33511
-43.378136 59.54235 250.92885
-44.719 62.99331 244.64067
-44.743782 64.896965 239.04594
-41.049934 66.454735 229.07655
-37.122612 67.9508 222.92906
-37.122627 67.95077 222.92905
-35.37751 67.754814 220.1789
-33.781776 66.86144 217.68224
-32.144783 65.43313 215.2177
POLYGONS 1095 4380
3 0 1 2
3 0 2 3
3 3 2 4
3 3 4 5
3 5 4 6
3 5 6 7
3 7 6 8
3 7 8 9
3 9 8 10
3 11 12 13
3 13 12 14
3 15 14 16
3 16 14 17
3 16 17 18
3 18 17 19
3 18 19 20
3 20 19 21
3 22 23 24
3 24 23 25
3 24 25 26
3 26 25 27
3 26 27 28
3 28 27 29
3 28 29 30
3 30 29 31
3 30 31 32
3 32 31 33
3 32 33 34
3 34 33 35
3 34 35 36
3 36 35 37
3 38 39 40
3 40 39 41
3 40 41 42
3 42 41 43
3 42 43 44
3 44 43 45
3 46 47 48
3 48 47 49
3 48 49 50
3 50 49 51
3 52 53 54
3 54 53 55
3 54 55 56
3 56 55 57
3 56 57 58
3 58 57 59
3 60 61 62
3 62 61 63
3 62 63 64
3 64 63 65
3 64 65 66
3 66 65 67
3 68 69 70
3 70 69 71
3 70 71 72
3 72 71 73
3 72 73 74
3 74 73 75
3 76 77 78
3 78 77 79
3 78 79 80
3 80 79 81
3 80 81 82
3 82 81 83
3 84 85 86
3 86 85 87
3 86 87 88
3 88 87 89
3 88 89 90
3 90 89 91
3 92 93 94
3 94 93 95
3 94 95 96
3 96 95 97
3 96 97 98
3 98 97 99
3 98 99 100
3 100 99 101
3 102 103 104
3 104 103 105
3 104 105 106
3 106 105 107
3 106 107 108
3 108 107 109
3 110 111 112
3 112 111 113
3 112 113 114
3 114 113 115
3 114 115 116
3 116 115 117
3 118 119 120
3 120 119 121
3 120 121 122
3 122 121 123
3 122 123 124
3 124 123 125
3 126 127 128
3 1 129 2
3 2 129 130
3 2 130 4
3 4 130 131
3 4 131 6
3 6 131 132
3 6 132 8
3 8 132 133
3 8 133 10
3 10 133 134
3 12 135 14
3 14 135 136
3 14 137 17
3 17 137 138
3 17 138 19
3 19 138 139
3 19 139 21
3 21 139 140
3 23 140 25
3 25 140 141
3 25 141 27
3 27 141 142
3 27 142 29
3 29 142 143
3 29 143 31
3 31 143 144
3 31 144 33
3 33 144 145
3 33 145 35
3 35 145 146
3 35 146 37
3 37 146 147
3 39 148 41
3 41 148 149
3 41 149 43
3 43 149 150
3 43 150 45
3 45 150 151
3 47 152 49
3 49 152 153
3 49 153 51
3 51 153 154
3 53 155 55
3 55 155 156
3 55 156 57
3 57 156 157
3 57 157 59
3 59 157 158
3 61 159 63
3 63 159 160
3 63 160 65
3 65 160 161
3 65 161 67
3 67 161 162
3 69 163 71
3 71 163 164
3 71 164 73
3 73 164 165
3 73 165 75
3 75 165 166
3 77 166 79
3 79 166 167
3 79 167 81
3 81 167 168
3 81 168 83
3 83 168 169
3 85 170 87
3 87 170 171
3 87 171 89
3 89 171 172
3 89 172 91
3 91 172 173
3 93 174 95
3 95 174 175
3 95 175 97
3 97 175 176
3 97 176 99
3 99 176 177
3 99 177 101
3 101 177 178
3 103 179 105
3 105 179 180
3 105 180 107
3 107 180 181
3 107 181 109
3 109 181 182
3 111 183 113
3 113 183 184
3 113 184 115
3 115 184 185
3 115 185 117
3 117 185 186
3 119 187 121
3 121 187 188
3 121 188 123
3 123 188 189
3 123 189 125
3 125 189 190
3 127 191 128
3 128 191 192
3 129 193 130
3 130 193 194
3 130 194 131
3 131 194 195
3 131 195 132
3 132 195 196
3 132 196 133
3 133 196 197
3 133 197 134
3 134 197 198
3 135 199 136
3 136 199 200
3 137 200 138
3 138 200 201
3 138 201 139
3 139 201 202
3 139 202 140
3 140 202 203
3 140 203 141
3 141 203 204
3 141 204 142
3 142 204 205
3 142 205 143
3 143 205 206
3 143 206 144
3 144 206 207
3 144 207 145
3 145 207 208
3 145 208 146
3 146 208 209
3 146 209 147
3 147 209 210
3 148 211 149
3 149 211 212
3 149 212 150
3 150 212 213
3 150 213 151
3 151 213 214
3 152 215 153
3 153 215 216
3 153 216 154
3 154 216 217
3 155 218 156
3 156 218 219
3 156 219 157
3 157 219 220
3 157 220 158
3 158 220 221
3 159 222 160
3 160 222 223
3 160 223 161
3 161 223 224
3 161 224 162
3 162 224 225
3 163 226 164
3 164 226 227
3 164 227 165
3 165 227 228
3 165 228 166
3 166 228 229
3 166 230 167
3 167 230 231
3 167 231 168
3 168 231 232
3 168 232 169
3 169 232 233
3 170 234 171
3 171 234 235
3 171 235 172
3 172 235 236
3 172 236 173
3 173 236 237
3 174 238 175
3 175 238 239
3 175 239 176
3 176 239 240
3 176 240 177
3 177 240 241
3 177 241 178
3 178 241 242
3 179 243 180
3 180 243 244
3 180 244 181
3 181 244 245
3 181 245 182
3 182 245 246
3 183 247 184
3 184 247 248
3 184 248 185
3 185 248 249
3 185 249 186
3 186 249 250
3 187 251 188
3 188 251 252
3 188 252 189
3 189 252 253
3 189 253 190
3 190 253 254
3 191 255 192
3 192 255 256
3 193 1 194
3 194 1 257
3 194 257 195
3 195 257 258
3 195 258 196
3 196 258 259
3 196 259 197
3 197 259 260
3 197 260 198
3 198 260 261
3 199 262 200
3 200 262 263
3 200 263 201
3 201 263 264
3 201 264 202
3 202 264 265
3 202 265 203
3 203 265 266
3 203 267 204
3 204 267 268
3 204 268 205
3 205 268 269
3 205 269 206
3 206 269 270
3 206 270 207
3 207 270 271
3 207 271 208
3 208 271 272
3 208 272 209
3 209 272 273
3 209 273 210
3 210 273 274
3 211 275 212
3 212 275 276
3 212 276 213
3 213 276 277
3 213 277 214
3 214 277 278
3 215 279 216
3 216 279 280
3 216 280 217
3 217 280 281
3 218 282 219
3 219 282 283
3 219 283 220
3 220 283 284
3 220 284 221
3 221 284 285
3 222 286 223
3 223 286 287
3 223 287 224
3 224 287 288
3 224 288 225
3 225 288 289
3 226 290 227
3 227 290 291
3 227 291 228
3 228 291 292
3 228 292 229
3 229 292 293
3 230 294 231
3 231 294 295
3 231 295 232
3 232 295 296
3 232 296 233
3 233 296 297
3 234 298 235
3 235 298 299
3 235 299 236
3 236 299 300
3 236 300 237
3 237 300 301
3 238 302 239
3 239 302 303
3 239 303 240
3 240 303 304
3 240 304 241
3 241 304 305
3 241 305 242
3 242 305 306
3 243 307 244
3 244 307 308
3 244 308 245
3 245 308 309
3 245 309 246
3 246 309 310
3 247 311 248
3 248 311 312
3 248 312 249
3 249 312 313
3 249 313 250
3 250 313 314
3 251 315 252
3 252 315 316
3 252 316 253
3 253 316 317
3 253 317 254
3 254 317 318
3 255 319 256
3 256 319 320
3 257 1 321
3 257 321 258
3 258 321 322
3 258 322 259
3 259 322 323
3 259 323 260
3 260 323 324
3 260 324 261
3 261 324 325
3 262 326 263
3 263 326 327
3 263 327 264
3 264 327 328
3 264 328 265
3 265 328 329
3 265 329 266
3 266 329 330
3 267 331 268
3 268 331 332
3 268 332 269
3 269 332 333
3 269 333 270
3 270 333 334
3 270 334 271
3 271 334 335
3 271 335 272
3 272 335 336
3 272 336 273
3 273 336 337
3 273 337 274
3 274 337 338
3 275 339 276
3 276 339 340
3 276 340 277
3 277 340 341
3 277 341 278
3 278 341 342
3 279 343 280
3 280 343 344
3 280 344 281
3 281 344 345
3 282 346 283
3 283 346 347
3 283 347 284
3 284 347 348
3 284 348 285
3 285 348 349
3 286 350 287
3 287 350 351
3 287 351 288
3 288 351 352
3 288 352 289
3 289 352 353
3 290 354 291
3 291 354 355
3 291 355 292
3 292 355 356
3 292 356 293
3 293 356 357
3 294 358 295
3 295 358 359
3 295 359 296
3 296 359 360
3 296 360 297
3 297 360 361
3 298 362 299
3 299 362 363
3 299 363 300
3 300 363 364
3 300 364 301
3 301 364 365
3 302 366 303
3 303 366 367
3 303 367 304
3 304 367 368
3 304 368 305
3 305 368 369
3 305 369 306
3 306 369 370
3 307 371 308
3 308 371 372
3 308 372 309
3 309 372 373
3 309 373 310
3 310 373 374
3 311 375 312
3 312 375 376
3 312 376 313
3 313 376 377
3 313 377 314
3 314 377 378
3 315 379 316
3 316 379 380
3 316 380 317
3 317 380 381
3 317 381 318
3 318 381 382
3 319 383 320
3 320 383 128
3 1 384 321
3 321 384 385
3 321 385 322
3 322 385 386
3 322 386 323
3 323 386 387
3 323 387 324
3 324 387 388
3 324 388 325
3 325 388 389
3 326 390 327
3 327 390 391
3 327 392 328
3 328 392 393
3 328 393 329
3 329 393 394
3 329 394 330
3 330 394 395
3 331 396 332
3 332 396 397
3 332 397 333
3 333 397 398
3 333 398 334
3 334 398 399
3 334 399 335
3 335 399 400
3 335 400 336
3 336 400 401
3 336 401 337
3 337 401 402
3 337 402 338
3 338 402 403
3 339 404 340
3 340 404 405
3 340 405 341
3 341 405 406
3 341 406 342
3 342 406 407
3 343 408 344
3 344 408 409
3 344 409 345
3 345 409 410
3 346 411 347
3 347 411 412
3 347 412 348
3 348 412 413
3 348 413 349
3 349 413 414
3 350 414 351
3 351 414 415
3 351 415 352
3 352 415 416
3 352 416 353
3 353 416 417
3 354 418 355
3 355 418 419
3 355 419 356
3 356 419 420
3 356 420 357
3 357 420 421
3 358 422 359
3 359 422 423
3 359 423 360
3 360 423 424
3 360 424 361
3 361 424 425
3 362 426 363
3 363 426 427
3 363 427 364
3 364 427 428
3 364 428 365
3 365 428 429
3 366 430 367
3 367 430 431
3 367 431 368
3 368 431 432
3 368 432 369
3 369 432 433
3 369 433 370
3 370 433 434
3 371 435 372
3 372 435 436
3 372 436 373
3 373 436 437
3 373 437 374
3 374 437 438
3 375 439 376
3 376 439 440
3 376 440 377
3 377 440 441
3 377 441 378
3 378 441 442
3 379 443 380
3 380 443 444
3 380 444 381
3 381 444 445
3 381 445 382
3 382 445 446
3 383 447 128
3 128 447 448
3 384 449 385
3 385 449 450
3 385 450 386
3 386 450 451
3 386 451 387
3 387 451 452
3 387 452 388
3 388 452 453
3 388 453 389
3 389 453 454
3 390 455 391
3 391 455 456
3 392 457 393
3 393 457 458
3 393 458 394
3 394 458 459
3 394 459 395
3 395 459 460
3 396 461 397
3 397 461 462
3 397 462 398
3 398 462 463
3 398 463 399
3 399 463 464
3 399 464 400
3 400 464 465
3 400 465 401
3 401 465 466
3 401 466 402
3 402 466 467
3 402 467 403
3 403 467 468
3 404 469 405
3 405 469 470
3 405 470 406
3 406 470 471
3 406 471 407
3 407 471 472
3 408 473 409
3 409 473 474
3 409 474 410
3 410 474 475
3 411 476 412
3 412 476 477
3 412 477 413
3 413 477 478
3 413 478 414
3 414 478 479
3 414 480 415
3 415 480 481
3 415 481 416
3 416 481 482
3 416 482 417
3 417 482 483
3 418 484 419
3 419 484 485
3 419 485 420
3 420 485 486
3 420 486 421
3 421 486 487
3 422 488 423
3 423 488 489
3 423 489 424
3 424 489 490
3 424 490 425
3 425 490 491
3 426 492 427
3 427 492 493
3 427 493 428
3 428 493 494
3 428 494 429
3 429 494 495
3 430 496 431
3 431 496 497
3 431 497 432
3 432 497 498
3 432 498 433
3 433 498 499
3 433 499 434
3 434 499 500
3 435 501 436
3 436 501 502
3 436 502 437
3 437 502 503
3 437 503 438
3 438 503 504
3 439 505 440
3 440 505 506
3 440 506 441
3 441 506 507
3 441 507 442
3 442 507 508
3 443 509 444
3 444 509 510
3 444 510 445
3 445 510 511
3 445 511 446
3 446 511 512
3 447 513 448
3 448 513 256
3 449 1 450
3 450 1 514
3 450 514 451
3 451 514 515
3 451 515 452
3 452 515 516
3 452 516 453
3 453 516 517
3 453 517 454
3 454 517 518
3 455 518 456
3 456 518 519
3 457 520 458
3 458 520 521
3 458 521 459
3 459 521 522
3 459 522 460
3 460 522 523
3 461 524 462
3 462 524 525
3 462 525 463
3 463 525 526
3 463 526 464
3 464 526 527
3 464 527 465
3 465 527 528
3 465 528 466
3 466 528 529
3 466 529 467
3 467 529 530
3 467 530 468
3 468 530 531
3 469 532 470
3 470 532 533
3 470 533 471
3 471 533 534
3 471 534 472
3 472 534 535
3 473 536 474
3 474 536 537
3 474 537 475
3 475 537 538
3 476 539 477
3 477 539 540
3 477 540 478
3 478 540 541
3 478 541 479
3 479 541 542
3 480 543 481
3 481 543 544
3 481 544 482
3 482 544 545
3 482 545 483
3 483 545 546
3 484 547 485
3 485 547 548
3 485 548 486
3 486 548 549
3 486 549 487
3 487 549 550
3 488 551 489
3 489 551 552
3 489 552 490
3 490 552 553
3 490 553 491
3 491 553 554
3 492 555 493
3 493 555 556
3 493 556 494
3 494 556 557
3 494 557 495
3 495 557 558
3 496 558 497
3 497 558 559
3 497 559 498
3 498 559 560
3 498 560 499
3 499 560 561
3 499 561 500
3 500 561 562
3 501 563 502
3 502 563 564
3 502 564 503
3 503 564 565
3 503 565 504
3 504 565 566
3 505 567 506
3 506 567 568
3 506 568 507
3 507 568 569
3 507 569 508
3 508 569 570
3 509 571 510
3 510 571 572
3 510 572 511
3 511 572 573
3 511 573 512
3 512 573 574
3 513 575 256
3 256 575 128
3 1 576 514
3 514 576 577
3 514 577 515
3 515 577 578
3 515 578 516
3 516 578 579
3 516 579 517
3 517 579 580
3 517 580 518
3 518 580 581
3 518 582 519
3 519 582 583
3 520 584 521
3 521 584 585
3 521 585 522
3 522 585 586
3 522 586 523
3 523 586 587
3 524 588 525
3 525 588 589
3 525 589 526
3 526 589 590
3 526 590 527
3 527 590 591
3 527 591 528
3 528 591 592
3 528 592 529
3 529 592 593
3 529 593 530
3 530 593 594
3 530 594 531
3 531 594 595
3 532 596 533
3 533 596 597
3 533 597 534
3 534 597 598
3 534 598 535
3 535 598 599
3 536 600 537
3 537 600 601
3 537 601 538
3 538 601 602
3 539 603 540
3 540 603 604
3 540 604 541
3 541 604 605
3 541 605 542
3 542 605 606
3 543 607 544
3 544 607 608
3 544 608 545
3 545 608 609
3 545 609 546
3 546 609 610
3 547 611 548
3 548 611 612
3 548 612 549
3 549 612 613
3 549 613 550
3 550 613 614
3 551 615 552
3 552 615 616
3 552 616 553
3 553 616 617
3 553 617 554
3 554 617 618
3 555 619 556
3 556 619 620
3 556 620 557
3 557 620 621
3 557 621 558
3 558 621 622
3 558 623 559
3 559 623 624
3 559 624 560
3 560 624 625
3 560 625 561
3 561 625 626
3 561 626 562
3 562 626 627
3 563 628 564
3 564 628 629
3 564 629 565
3 565 629 630
3 565 630 566
3 566 630 631
3 567 632 568
3 568 632 633
3 568 633 569
3 569 633 634
3 569 634 570
3 570 634 635
3 571 636 572
3 572 636 637
3 572 637 573
3 573 637 638
3 573 638 574
3 574 638 639
3 575 640 128
3 129 1 641
3 641 1 642
3 641 642 643
3 643 642 644
3 643 644 645
3 645 644 646
3 645 646 647
3 647 646 648
3 647 648 649
3 649 648 650
3 649 651 652
3 652 651 653
3 654 655 656
3 656 655 657
3 656 657 658
3 658 657 659
3 658 659 588
3 588 659 660
3 661 662 663
3 663 662 664
3 663 664 665
3 665 664 666
3 665 666 667
3 667 666 668
3 667 668 669
3 669 668 670
3 669 670 671
3 671 670 672
3 671 672 673
3 673 672 674
3 673 674 675
3 675 674 676
3 677 678 679
3 679 678 680
3 679 680 598
3 598 680 681
3 598 681 682
3 682 681 683
3 684 685 686
3 686 685 687
3 686 687 688
3 688 687 689
3 690 691 692
3 692 691 693
3 692 693 694
3 694 693 695
3 694 695 696
3 696 695 697
3 698 699 700
3 700 699 701
3 700 701 702
3 702 701 703
3 702 703 704
3 704 703 705
3 706 707 708
3 708 707 709
3 708 709 710
3 710 709 711
3 710 711 712
3 712 711 713
3 714 715 716
3 716 715 717
3 716 717 718
3 718 717 719
3 718 719 720
3 720 719 721
3 722 723 724
3 724 723 725
3 724 725 726
3 726 725 727
3 726 727 728
3 728 727 729
3 730 731 732
3 732 731 733
3 732 733 734
3 734 733 735
3 734 735 736
3 736 735 737
3 736 737 738
3 738 737 739
3 740 741 742
3 742 741 743
3 742 743 744
3 744 743 745
3 744 745 746
3 746 745 747
3 748 749 750
3 750 749 751
3 750 751 752
3 752 751 753
3 752 753 754
3 754 753 755
3 756 757 758
3 758 757 759
3 758 759 760
3 760 759 761
3 760 761 762
3 762 761 763
3 764 765 766
3 766 765 128
3 767 1 768
3 768 1 0
3 768 0 769
3 769 0 3
3 769 3 646
3 646 3 5
3 646 5 648
3 648 5 7
3 648 7 770
3 770 7 9
3 771 11 772
3 772 11 13
3 773 15 774
3 774 15 16
3 774 16 775
3 775 16 18
3 775 18 660
3 660 18 20
3 662 22 776
3 776 22 24
3 776 24 666
3 666 24 26
3 666 26 668
3 668 26 28
3 668 28 670
3 670 28 30
3 670 30 672
3 672 30 32
3 672 32 777
3 777 32 34
3 777 34 778
3 778 34 36
3 779 38 780
3 780 38 40
3 780 40 781
3 781 40 42
3 781 42 683
3 683 42 44
3 685 46 687
3 687 46 48
3 687 48 689
3 689 48 50
3 691 52 693
3 693 52 54
3 693 54 695
3 695 54 56
3 695 56 697
3 697 56 58
3 782 60 701
3 701 60 62
3 701 62 783
3 783 62 64
3 783 64 705
3 705 64 66
3 784 68 785
3 785 68 70
3 785 70 786
3 786 70 72
3 786 72 787
3 787 72 74
3 788 76 789
3 789 76 78
3 789 78 790
3 790 78 80
3 790 80 791
3 791 80 82
3 723 84 792
3 792 84 86
3 792 86 793
3 793 86 88
3 793 88 794
3 794 88 90
3 795 92 796
3 796 92 94
3 796 94 735
3 735 94 96
3 735 96 797
3 797 96 98
3 797 98 739
3 739 98 100
3 741 102 798
3 798 102 104
3 798 104 745
3 745 104 106
3 745 106 747
3 747 106 108
3 749 110 799
3 799 110 112
3 799 112 753
3 753 112 114
3 753 114 800
3 800 114 116
3 801 118 802
3 802 118 120
3 802 120 803
3 803 120 122
3 803 122 804
3 804 122 124
3 765 126 128
