# vtk DataFile Version 2.0
File written by itkPolyDataMeshIO
ASCII
DATASET POLYDATA
POINTS 888 float
-12.561211 17.048744 270.25757
-12.561226 17.048729 270.25757
-15.525703 16.165901 268.69818
-15.256828 15.273476 271.08124
-17.206459 17.10418 268.90582
-16.909615 16.084816 271.85513
-18.9488 18.51522 269.41772
-18.642036 17.421211 272.57816
-20.499168 20.190834 270.01892
-20.33648 19.127266 273.13925
-21.764305 21.663109 270.30676
-21.977577 20.759178 273.33582
-21.764305 21.663124 270.30676
-21.977577 20.759178 273.33585
-22.749763 22.622871 270.29346
-23.434578 22.06672 273.18158
-23.434578 22.06672 273.1816
-23.68882 23.43908 269.91403
-24.772621 23.078926 272.5863
-25.005836 24.348717 269.32254
-26.222298 23.997261 271.84952
-26.730827 25.326118 268.69754
-27.896523 24.980995 271.19296
-26.730843 25.326118 268.69757
-27.896523 24.980995 271.19293
-28.537468 26.342934 268.05313
-29.663353 26.003197 270.51523
-30.319756 27.33033 267.41177
-31.420586 26.995705 269.78918
-32.217964 28.339195 266.7088
-33.29586 28.015587 268.96143
-34.352043 29.48481 265.84064
-35.43148 29.178001 267.9546
-36.609245 30.86071 264.7522
-37.749428 30.575325 266.693
-38.690315 32.435783 263.5064
-39.931725 32.176353 265.22116
-40.42765 34.03614 262.22015
-41.760994 33.79972 263.7304
-40.42765 34.036156 262.22018
-41.76098 33.799736 263.73044
-41.931923 35.553703 260.96945
-43.312904 35.330513 262.38074
-43.552467 37.082817 259.756
-44.88569 36.86402 261.1963
-45.35177 38.767586 258.50967
-46.63006 38.55181 259.98386
-45.35177 38.7676 258.50967
-46.630043 38.551826 259.9839
-46.973305 40.582985 257.14114
-48.33761 40.371986 258.54184
-48.185875 42.42536 255.67616
-49.718468 42.21943 256.87463
-48.185844 42.425377 255.67618
-49.718452 42.219444 256.87466
-49.1457 44.301582 254.17284
-50.728935 44.106438 255.08855
-50.004936 46.341713 252.60764
-51.464424 46.17359 253.21555
-50.608635 48.6307 251.02882
-51.902916 48.50161 251.33426
-50.60862 48.6307 251.02884
-51.9029 48.501625 251.33427
-50.87133 51.075478 249.62035
-52.082558 50.980217 249.7082
-51.11106 53.53855 248.4761
-52.307793 53.420982 248.52307
-51.560387 55.849724 247.50058
-52.74743 55.65589 247.60976
-51.56037 55.849754 247.50061
-52.747414 55.655937 247.60979
-52.090965 57.919273 246.49344
-53.26348 57.655525 246.61702
-52.57926 59.879158 245.25677
-53.743233 59.564034 245.31622
-52.963234 61.82769 243.68924
-54.129707 61.544014 243.65349
-52.96325 61.827675 243.68922
-54.129723 61.544014 243.65347
-53.05767 63.745247 241.89458
-54.23739 63.655098 241.76508
-52.674904 65.54009 240.22858
-53.838722 65.63418 239.98492
-52.19097 67.13351 238.68533
-53.34095 67.20043 238.43967
-52.190987 67.13348 238.68532
-53.34095 67.20043 238.43964
-52.218727 68.49029 236.91856
-53.3731 68.401665 236.90067
-52.8841 69.505394 235.02495
-54.00663 69.36059 235.30588
-53.85604 70.23592 233.1566
-54.924507 70.080894 233.62495
-54.924507 70.080894 233.62494
-55.207756 71.001 231.28343
-56.153816 70.85134 231.86513
-56.805763 71.9775 229.36458
-57.63613 71.84258 229.9475
-58.081413 73.08749 227.25328
-58.890144 72.96606 227.66426
-58.581383 74.10079 224.86139
-59.38305 73.98916 224.99185
-58.581352 74.10085 224.8614
-59.383034 73.98919 224.99188
-58.346672 75.08135 222.2779
-59.116768 74.97646 222.17068
-57.781273 76.23736 219.75783
-58.532967 76.13741 219.54105
-57.308907 77.51421 217.38939
-58.058052 77.41808 217.18925
-57.30892 77.51418 217.38936
-58.058067 77.41805 217.18921
-57.307747 78.873314 215.13947
-58.01037 78.78649 215.07167
-57.96325 80.29693 213.05621
-58.571587 80.22195 213.17413
-59.001457 81.55105 211.07516
-59.55799 81.476555 211.30888
-59.001472 81.55105 211.07515
-59.55799 81.476555 211.30885
-60.095467 82.55077 209.10097
-60.6408 82.47265 209.36386
-61.24711 83.353874 207.21237
-61.77413 83.273796 207.50682
-62.569542 83.96462 205.30602
-63.057564 83.87542 205.6249
-62.569527 83.96465 205.30603
-63.057564 83.87545 205.62491
-63.92402 84.76113 204.09355
-63.92402 84.7611 204.09354
-14.554604 15.373009 272.389
-16.057838 16.248299 273.417
-17.736763 17.596748 274.2542
-19.521996 19.308708 274.82272
-21.420052 21.022453 275.02432
-21.420052 21.022453 275.02435
-23.2389 22.543312 274.80896
-24.904121 23.681953 274.11588
-26.484001 24.60273 273.31668
-28.1372 25.575691 272.6369
-28.137215 25.575691 272.63693
-29.89077 26.58854 271.93582
-31.672844 27.572182 271.1544
-33.573875 28.573067 270.25238
-35.723717 29.706642 269.17636
-38.06968 31.0671 267.8454
-40.301277 32.62336 266.29016
-42.17765 34.20707 264.72903
-42.17765 34.207085 264.7291
-43.74836 35.715034 263.35187
-45.283577 37.241005 262.17795
-46.989693 38.923546 260.97488
-46.989677 38.92356 260.9749
-48.742393 40.73548 259.52176
-50.239372 42.574257 257.79398
-50.239357 42.574303 257.794
-51.33622 44.44271 255.87227
-52.07357 46.463356 253.82097
-52.48281 48.72396 251.77908
-52.482796 48.72396 251.77908
-52.656822 51.139107 250.06511
-52.87986 53.51824 248.88524
-53.306053 55.707344 248.0085
-53.306023 55.70736 248.00853
-53.8267 57.699318 247.00974
-54.337105 59.615654 245.6569
-54.749046 61.637062 243.92581
-54.74906 61.637062 243.9258
-54.847984 63.857475 241.9775
-54.42884 65.929375 240.1329
-53.93055 67.496086 238.56812
-53.930565 67.496086 238.5681
-53.95652 68.652794 237.10477
-54.545815 69.61257 235.61194
-55.428215 70.34786 233.98068
-56.58709 71.10915 232.2565
-58.002724 72.07494 230.33649
-59.259422 73.17519 227.96715
-59.781166 74.18151 225.13847
-59.78115 74.18154 225.13852
-59.52688 75.15713 222.19334
-58.94802 76.30953 219.52786
-58.470543 77.5837 217.19896
-58.47056 77.5837 217.19894
-58.37742 78.93609 215.14912
-58.860832 80.35107 213.33727
-59.807274 81.60488 211.51285
-59.80729 81.60488 211.51283
-60.888786 82.60729 209.5667
-62.014793 83.411705 207.715
-63.28373 84.00164 205.84521
-63.283714 84.00167 205.84523
-63.924034 84.76113 204.09354
-12.561211 17.048729 270.25757
-13.709694 15.86837 273.20334
-15.041069 16.858864 274.35324
-16.65284 18.252068 275.26065
-18.503395 19.959633 275.85458
-20.60131 21.7154 276.09814
-20.60131 21.715416 276.09814
-22.726784 23.372719 275.85535
-22.726784 23.372734 275.85535
-24.675362 24.596245 275.11423
-26.375298 25.5167 274.2876
-28.01995 26.473366 273.58948
-28.019966 26.473366 273.58945
-29.771004 27.472145 272.87027
-31.59446 28.44239 272.04828
-33.53736 29.414558 271.09607
-35.70501 30.504631 269.9814
-38.064903 31.809486 268.6243
-40.32316 33.298073 267.04425
-42.2268 34.821983 265.4671
-42.22677 34.822 265.46713
-43.804283 36.295464 264.09067
-45.308403 37.81005 262.91983
-46.98519 39.484688 261.71646
-46.98516 39.484688 261.71646
-48.76467 41.284172 260.27597
-50.35015 43.109886 258.5441
-50.35015 43.1099 258.54413
-51.54032 44.950264 256.55075
-52.325645 46.900703 254.38173
-52.757805 49.059547 252.2431
-52.955055 51.38015 250.49544
-53.17965 53.689125 249.34096
-53.590553 55.84957 248.49382
-53.590538 55.849617 248.49385
-54.122307 57.859306 247.48344
-54.676674 59.805763 246.08646
-55.121758 61.86776 244.29869
-55.121758 61.86776 244.29866
-55.20379 64.150566 242.29819
-54.76165 66.266106 240.40329
-54.26803 67.84469 238.8156
-54.268044 67.84469 238.81558
-54.286873 69.008354 237.37361
-54.83129 69.99227 235.90509
-55.68763 70.75082 234.26921
-55.68763 70.75082 234.2692
-56.80027 71.498314 232.54947
-58.172096 72.42565 230.62595
-59.44024 73.49093 228.20831
-60.00199 74.471825 225.28046
-60.001976 74.471886 225.28049
-59.77488 75.429924 222.26219
-59.20919 76.56945 219.59056
-58.729332 77.833824 217.28522
-58.729347 77.83379 217.28517
-58.594475 79.16198 215.27444
-59.01171 80.54601 213.5052
-59.925453 81.79861 211.6911
-59.925453 81.79858 211.69109
-61.00939 82.81051 209.73276
-62.132713 83.61999 207.87637
-63.39617 84.202446 206.01451
-63.39617 84.20248 206.01453
-12.807793 16.62722 273.6082
-15.041069 16.85888 274.35327
-13.970192 17.746666 274.79242
-16.65284 18.252083 275.26068
-15.50927 19.204887 275.73486
-18.50338 19.959633 275.85458
-17.403557 20.900673 276.36517
-20.601295 21.7154 276.09814
-19.651543 22.664314 276.67407
-20.601295 21.715416 276.09818
-19.651543 22.66433 276.67407
-22.726768 23.372734 275.85538
-22.031761 24.386528 276.4281
-22.726768 23.372734 275.8554
-22.031746 24.386543 276.42807
-24.675362 24.596245 275.11426
-24.21743 25.655098 275.6755
-26.375298 25.5167 274.28763
-26.021797 26.57322 274.84735
-28.019966 26.473381 273.58948
-27.667076 27.511024 274.13544
-28.019981 26.473366 273.58945
-27.667091 27.511024 274.13544
-29.423103 28.493568 273.40317
-31.594444 28.44239 272.04825
-31.296165 29.448341 272.55374
-33.537346 29.414574 271.09604
-33.288795 30.387321 271.57144
-35.704994 30.504631 269.9814
-35.475395 31.427086 270.44196
-38.064888 31.809486 268.6243
-37.8386 32.667625 269.09012
-40.323128 33.298088 267.04425
-40.10598 34.07804 267.5271
-42.226784 34.821983 265.46707
-42.021233 35.532753 265.97226
-42.22677 34.822 265.4671
-42.021217 35.532784 265.97226
-43.804283 36.295494 264.09067
-43.596916 36.966408 264.6158
-45.308388 37.810066 262.91983
-45.076607 38.467857 263.44266
-46.985176 39.484688 261.71646
-46.732323 40.13337 262.23236
-46.985146 39.484703 261.71646
-46.732307 40.13337 262.2324
-48.76467 41.284172 260.276
-48.524147 41.918434 260.81985
-50.17269 43.729073 259.1228
-50.35015 43.109932 258.54416
-50.17266 43.729088 259.12283
-51.54032 44.95031 256.55075
-51.45394 45.53704 257.10678
-52.325645 46.900734 254.38173
-52.315132 47.406303 254.87018
-52.757805 49.059563 252.2431
-52.80413 49.447487 252.68562
-52.75779 49.059593 252.24312
-52.804115 49.447502 252.68564
-52.95504 51.38018 250.49544
-53.04255 51.65937 250.94398
-53.17965 53.68914 249.34096
-53.270683 53.89866 249.82944
-53.590553 55.849586 248.49384
-53.665382 56.04624 249.00885
-53.590538 55.849632 248.49387
-53.665367 56.046272 249.00887
-54.122307 57.85932 247.48346
-54.21177 58.091118 247.98512
-54.67666 59.80578 246.08646
-54.81669 60.081642 246.55223
-55.121758 61.867775 244.29869
-55.2985 62.18006 244.71834
-55.121758 61.86776 244.29868
-55.2985 62.18006 244.71829
-55.20379 64.1506 242.29822
-55.360054 64.48763 242.67319
-54.761635 66.266106 240.4033
-54.896217 66.61266 240.74365
-54.26803 67.84469 238.81563
-54.41027 68.20901 239.1312
-54.268044 67.84469 238.8156
-54.410286 68.20901 239.13116
-54.286873 69.008415 237.37361
-54.42025 69.41015 237.66791
-54.83129 69.9923 235.90509
-54.92228 70.43096 236.16762
-55.687614 70.75085 234.26923
-55.760902 71.216606 234.49039
-55.687614 70.75085 234.26921
-56.800255 71.498314 232.5495
-56.847298 71.94814 232.7535
-58.17208 72.42565 230.62598
-58.194176 72.83105 230.8259
-59.44024 73.4909 228.20834
-59.47892 73.85586 228.38942
-60.00199 74.471855 225.28047
-60.08529 74.80752 225.4087
-60.001976 74.47192 225.2805
-60.085274 74.80755 225.40874
-59.77488 75.429924 222.26222
-59.893684 75.74523 222.35742
-59.209175 76.56945 219.59059
-59.345802 76.869835 219.70044
-58.729332 77.833824 217.28523
-58.86387 78.12292 217.41731
-58.729347 77.833824 217.2852
-58.86387 78.12289 217.4173
-58.59446 79.16201 215.27444
-58.692894 79.42315 215.42308
-59.01171 80.54604 213.50522
-59.056892 80.771385 213.66394
-59.925438 81.79864 211.69112
-59.94532 82.022484 211.83853
-59.94535 82.022484 211.83852
-61.00939 82.81054 209.73276
-61.03408 83.04546 209.86133
-62.132698 83.62002 207.87637
-62.15798 83.8608 207.99373
-63.420525 84.444176 206.13695
-63.396156 84.20248 206.01453
-63.420525 84.44421 206.13695
-12.561195 17.04876 270.2576
-12.009285 17.497978 273.5659
-13.038948 18.722298 274.71948
-14.513161 20.2519 275.66
-16.424187 21.932198 276.32996
-18.747826 23.678719 276.71237
-18.747826 23.678734 276.71237
-21.282341 25.407768 276.4844
-23.619148 26.687996 275.75558
-25.497917 27.602623 274.94968
-27.152077 28.522072 274.23026
-27.152077 28.522057 274.23022
-28.91912 29.488777 273.49136
-30.841957 30.428429 272.63055
-32.884117 31.335106 271.64093
-35.087883 32.325874 270.52042
-37.44416 33.50376 269.20178
-39.703423 34.837975 267.6913
-41.614388 36.225334 266.1904
-41.614372 36.22535 266.19043
-43.18058 37.620155 264.8685
-44.645607 39.108772 263.6885
-46.290916 40.76539 262.46628
-46.2909 40.765404 262.4663
-48.079994 42.536446 261.09146
-49.7591 44.332344 259.45953
-49.759087 44.33236 259.45956
-51.115883 46.108727 257.46887
-52.0671 47.898933 255.2203
-52.635338 49.825493 253.04286
-52.635323 49.825523 253.04288
-52.92524 51.9318 251.34225
-53.159782 54.11013 250.27023
-53.54232 56.2575 249.46263
-53.542305 56.257545 249.46265
-54.10491 58.345528 248.4239
-54.75747 60.384605 246.96857
-55.272026 62.512962 245.10963
-55.272026 62.512947 245.1096
-55.312782 64.82235 243.04991
-54.834175 66.94338 241.12514
-54.357613 68.55703 239.48558
-54.357628 68.557 239.48555
-54.355537 69.79998 237.94725
-54.822655 70.85833 236.3635
-55.65377 71.67043 234.61745
-56.736015 72.38647 232.84624
-58.07888 73.2261 230.91469
-59.382393 74.21151 228.48894
-60.030968 75.134544 225.50542
-60.030952 75.134605 225.50545
-59.87716 76.05242 222.46257
-59.348686 77.16256 219.83691
-58.865257 78.404625 217.57153
-58.865273 78.404625 217.5715
-58.668663 79.677635 215.57097
-58.99906 80.99102 213.79076
-59.872704 82.240685 211.93599
-59.872704 82.240685 211.93597
-60.967735 83.274376 209.9367
-62.09516 84.09539 208.05363
-63.357292 84.69076 206.19727
-63.357292 84.69079 206.19727
-63.924004 84.76116 204.09357
-11.413551 18.36866 273.0889
-12.348 19.667213 274.17145
-13.772316 21.265923 275.07547
-15.671196 22.930763 275.78317
-17.978233 24.656487 276.23557
-17.978233 24.656502 276.2356
-20.52462 26.3816 276.0406
-22.902367 27.667015 275.36853
-24.823586 28.578102 274.60736
-26.4943 29.480171 273.88666
-26.494316 29.480156 273.88663
-28.278038 30.431847 273.14755
-30.249413 31.3572 272.29114
-32.33953 32.23324 271.31638
-34.55831 33.17753 270.22766
-36.897972 34.29606 268.96823
-39.132683 35.558083 267.5432
-41.02407 36.881554 266.1253
-41.02404 36.881584 266.12534
-42.573647 38.239616 264.8511
-44.033836 39.716118 263.66003
-45.6793 41.364265 262.42145
-45.679283 41.36428 262.42145
-47.45124 43.122 261.09277
-49.128654 44.903954 259.55334
-49.128624 44.903984 259.55338
-50.543877 46.65043 257.6337
-51.596336 48.365746 255.42732
-52.263374 50.183678 253.30809
-52.26336 50.183693 253.30812
-52.61355 52.18995 251.68053
-52.861732 54.31182 250.63959
-53.243553 56.46125 249.81319
-53.243538 56.46131 249.8132
-53.82496 58.59182 248.75279
-54.51702 60.677956 247.28983
-55.05349 62.833 245.43587
-55.05349 62.833 245.43585
-55.06269 65.13506 243.40916
-54.562218 67.24093 241.53433
-54.0996 68.872856 239.86797
-54.099617 68.872856 239.86794
-54.096825 70.16598 238.20464
-54.541557 71.26321 236.48956
-55.375313 72.10046 234.65007
-55.375328 72.10046 234.65005
-56.474876 72.80181 232.82889
-57.834023 73.600395 230.89359
-59.15792 74.54842 228.50688
-59.845238 75.44442 225.56895
-59.845207 75.44448 225.569
-59.73049 76.34356 222.57437
-59.222435 77.43987 219.99539
-58.738075 78.6715 217.74294
-58.73809 78.6715 217.7429
-58.526665 79.918724 215.714
-58.843376 81.19906 213.8832
-59.712746 82.44738 211.98254
-60.81527 83.4912 209.95862
-61.948982 84.31768 208.05635
-63.20655 84.9277 206.18904
-63.20655 84.92773 206.18906
-11.081383 19.171425 272.18265
-11.925545 20.547478 273.16037
-13.316902 22.210579 273.99405
-15.175056 23.8601 274.7347
-17.374031 25.557259 275.2364
-17.374016 25.557259 275.23642
-19.785637 27.2557 275.05316
-19.785637 27.2557 275.05313
-22.082375 28.532372 274.4517
-24.006538 29.439888 273.75854
-25.70205 30.326561 273.04395
-25.70205 30.326561 273.04398
-27.508171 31.264992 272.3123
-29.524178 32.177696 271.47864
-31.657982 33.026665 270.54422
-33.888435 33.929924 269.51248
-36.200966 34.996025 268.3398
-38.392982 36.194237 267.03473
-40.247734 37.461296 265.72986
-40.247734 37.46131 265.72986
-41.773216 38.786858 264.51636
-43.240425 40.252632 263.3098
-44.898476 41.893364 262.05045
-44.89846 41.89338 262.05045
-46.637093 43.63932 260.77545
-48.27488 45.40896 259.35617
-48.27485 45.40899 259.35617
-49.725456 47.129005 257.5577
-50.887215 48.77813 255.45511
-51.670982 50.500145 253.45128
-51.670982 50.500145 253.4513
-52.089104 52.418205 251.93114
-52.366203 54.49308 250.91364
-52.77172 56.64939 250.0433
-52.77172 56.64942 250.0433
-53.378563 58.821144 248.95816
-54.10076 60.95112 247.50311
-54.640602 63.124306 245.67993
-54.640617 63.12429 245.67992
-54.589287 65.38625 243.71094
-54.04557 67.42889 241.89859
-53.601067 69.08633 240.21626
-53.60108 69.08633 240.21623
-53.619774 70.47369 238.4118
-54.06083 71.62051 236.5267
-54.909203 72.48037 234.56978
-54.909203 72.48037 234.56976
-56.05047 73.168755 232.68275
-57.44895 73.93105 230.74416
-58.794136 74.84609 228.42784
-59.51409 75.71822 225.59024
-59.514076 75.718254 225.59027
-59.437828 76.60076 222.68835
-58.950294 77.68493 220.17174
-58.465813 78.90731 217.92583
-58.465813 78.90728 217.92581
-58.25312 80.13174 215.84407
-58.58027 81.38293 213.93051
-59.457985 82.63006 211.96674
-59.457985 82.63003 211.9667
-60.569084 83.68285 209.91644
-61.711952 84.51406 207.99161
-62.967354 85.1253 206.09888
-62.967354 85.12533 206.09888
-12.561211 17.04876 270.25757
-11.116997 19.772758 270.891
-11.881737 21.256676 271.6748
-13.26461 22.971718 272.40298
-15.053963 24.603218 273.16928
-17.075737 26.220589 273.70712
-17.075722 26.220604 273.70715
-19.263817 27.755363 273.54117
-19.263817 27.755363 273.5412
-21.372505 28.941643 273.0262
-23.240349 29.84423 272.41492
-24.965096 30.723656 271.71582
-24.965096 30.72364 271.71582
-26.795036 31.655846 271.00073
-28.834923 32.56263 270.2105
-30.991463 33.398872 269.34186
-33.224648 34.28289 268.387
-35.50289 35.324394 267.3148
-37.638557 36.4927 266.14273
-39.44274 37.733315 264.95947
-39.442726 37.73333 264.9595
-40.940544 39.043617 263.80664
-42.43052 40.504387 262.58304
-44.11605 42.14158 261.3029
-44.116035 42.141594 261.30292
-45.807625 43.882042 260.07544
-47.360878 45.645912 258.77893
-47.360863 45.645927 258.77896
-48.799828 47.353508 257.13852
-50.047203 48.971565 255.19972
-50.936745 50.648567 253.36073
-50.936745 50.648582 253.36076
-51.411263 52.526253 251.96667
-51.713142 54.59765 250.98087
-52.14463 56.79017 250.0818
-52.144615 56.7902 250.08183
-52.771248 59.00515 248.98688
-53.507988 61.170692 247.55928
-54.04113 63.33396 245.77838
-54.04113 63.333946 245.77835
-53.94503 65.490166 243.84938
-53.38198 67.41854 242.08723
-52.948524 69.09832 240.40488
-52.94854 69.09832 240.40485
-52.977882 70.59695 238.4755
-53.433647 71.78762 236.41565
-54.309746 72.65865 234.34328
-54.309746 72.65865 234.34326
-55.516212 73.340904 232.38786
-56.97637 74.086205 230.44777
-58.337196 74.98577 228.22658
-59.069756 75.84667 225.53992
-59.069725 75.8467 225.53995
-59.018425 76.72143 222.76811
-58.544884 77.79986 220.31721
-58.061455 79.01794 218.06604
-58.061455 79.01791 218.06601
-57.86857 80.23165 215.91147
-58.23963 81.46914 213.89319
-59.142265 82.71575 211.86078
-59.14228 82.71569 211.86075
-60.260765 83.77276 209.79012
-61.414207 84.606224 207.84497
-62.67933 85.208275 205.92346
-62.67933 85.208305 205.92348
-63.92402 84.76113 204.09354
-12.561195 17.048744 270.25757
-11.61805 19.95176 269.44965
-12.38546 21.528069 269.92874
-13.796867 23.263054 270.53085
-15.496956 24.877556 271.30804
-17.29673 26.363747 271.88043
-17.296715 26.363762 271.88043
-19.215614 27.583809 271.79742
-21.05767 28.587624 271.39685
-22.807793 29.484734 270.85944
-24.557793 30.370506 270.18323
-26.405235 31.308235 269.49155
-28.432564 32.2203 268.7578
-30.575401 33.067818 267.96725
-32.79815 33.96897 267.0897
-35.044136 35.03234 266.1019
-37.124245 36.227257 265.0349
-38.876305 37.491417 263.94315
-38.87629 37.491447 263.94315
-40.35108 38.815285 262.82996
-41.87745 40.280495 261.59296
-43.601326 41.920815 260.2993
-43.60131 41.92083 260.2993
-45.243355 43.666176 259.09467
-46.679924 45.435204 257.8822
-46.679924 45.43522 257.88223
-48.047157 47.15383 256.3955
-49.31829 48.79949 254.6459
-50.262077 50.51655 252.98248
-50.262077 50.516563 252.98248
-50.75692 52.433098 251.69637
-51.053688 54.564247 250.74098
-51.481804 56.82499 249.84045
-51.481804 56.825005 249.84047
-52.104897 59.074196 248.75803
-52.82969 61.253807 247.37779
-53.357155 63.37319 245.64635
-53.357155 63.373177 245.64632
-53.290382 65.38375 243.73906
-52.779167 67.20159 242.02516
-52.340996 68.88348 240.35463
-52.34101 68.88348 240.3546
-52.33967 70.43844 238.33174
-52.823006 71.63775 236.14099
-53.73501 72.500145 233.99539
-55.01638 73.18783 231.99164
-56.5474 73.948235 230.05298
-57.910698 74.861534 227.92786
-58.624153 75.732414 225.40918
-58.624138 75.732475 225.4092
-58.57067 76.6141 222.7737
-58.097374 77.697655 220.37048
-57.616264 78.91958 218.09966
-57.61628 78.91955 218.09961
-57.46514 80.142784 215.87012
-57.910667 81.39245 213.75325
-58.85218 82.63952 211.66835
-58.85221 82.63949 211.66832
-59.973885 83.6928 209.59258
-61.136253 84.524284 207.63722
-62.423347 85.12203 205.69865
-62.423332 85.12203 205.69867
-12.561211 17.04876 270.2576
-12.500877 19.555565 268.3508
-13.421608 21.08886 268.56577
-14.899956 22.79171 269.06708
-16.51397 24.40664 269.8282
-18.058876 25.835289 270.39807
-18.058876 25.835304 270.39807
-19.60978 26.888802 270.42224
-21.12922 27.791435 270.131
-22.751183 28.687752 269.63904
-24.515572 29.58776 268.98386
-24.515587 29.587746 268.98383
-26.370491 30.537758 268.3131
-28.362907 31.461494 267.6277
-30.47013 32.33407 266.89948
-32.67626 33.273155 266.07535
-34.901604 34.385017 265.13397
-36.94413 35.63891 264.119
-38.659203 36.95524 263.06833
-38.659187 36.955254 263.06836
-40.12156 38.30918 261.96722
-41.682793 39.78431 260.7237
-43.440758 41.431526 259.42593
-43.440742 41.43154 259.42596
-45.046974 43.187737 258.21912
-46.380318 44.968117 257.0365
-46.380302 44.968147 257.03653
-47.65502 46.71122 255.6523
-48.897865 48.418114 254.05083
-49.84185 50.223915 252.5155
-49.84185 50.22393 252.51555
-50.32528 52.22323 251.28806
-50.60862 54.42144 250.30577
-51.031715 56.717537 249.3562
-51.031715 56.717583 249.35622
-51.638283 58.958748 248.27798
-52.32116 61.1168 246.95026
-52.828117 63.195976 245.2925
-52.828133 63.19596 245.29247
-52.81202 65.13204 243.45988
-52.35589 66.89843 241.81555
-51.911644 68.57043 240.16417
-51.91166 68.57043 240.16415
-51.893623 70.12621 238.08759
-52.41546 71.30657 235.83464
-53.35827 72.148796 233.66911
-53.35827 72.148796 233.6691
-54.69802 72.84847 231.64665
-56.28431 73.64236 229.71107
-57.639854 74.586235 227.65262
-58.317345 75.47924 225.2615
-58.31733 75.47927 225.26155
-58.242912 76.376274 222.7241
-57.75988 77.47103 220.34062
-57.281273 78.7015 218.04597
-57.28129 78.70147 218.04593
-57.174583 79.945854 215.76337
-57.693214 81.222496 213.58328
-58.671547 82.470665 211.47392
-58.671547 82.470634 211.4739
-59.792442 83.51562 209.40565
-60.959694 84.34264 207.45058
-62.267723 84.935326 205.50406
-62.267708 84.935356 205.50409
-63.92402 84.76116 204.09355
-12.561211 17.048744 270.2576
-13.445473 18.842384 267.76028
-14.568779 20.265755 267.80945
-16.124031 21.908318 268.25275
-17.676567 23.534264 268.9813
-19.015434 24.95684 269.50598
-19.015434 24.95684 269.506
-20.232765 25.953148 269.5833
-21.465324 26.815727 269.3467
-22.974571 27.714241 268.87057
-24.743095 28.631584 268.23148
-24.743095 28.631584 268.23145
-26.596992 29.59658 267.5763
-28.544487 30.5346 266.92484
-30.606453 31.437767 266.23697
-32.794395 32.42321 265.43985
-35.01098 33.594307 264.50958
-37.035347 34.92025 263.49942
-38.730797 36.3003 262.44656
-38.73078 36.300316 262.44662
-40.190468 37.690956 261.3356
-41.77938 39.1782 260.09158
-43.56254 40.83384 258.79727
-43.562523 40.833855 258.7973
-45.149025 42.60331 257.5707
-46.406624 44.39762 256.37375
-46.40661 44.397636 256.37378
-47.58988 46.17057 255.03745
-48.771965 47.952248 253.52899
-49.677223 49.866478 252.0656
-49.677208 49.86651 252.06563
-50.12887 51.965965 250.8519
-50.404854 54.22805 249.82008
-50.836708 56.535408 248.81677
-50.836708 56.535423 248.81679
-51.426613 58.743782 247.74281
-52.057487 60.86097 246.45848
-52.531242 62.906044 244.86592
-52.531242 62.90603 244.8659
-52.548576 64.81414 243.10606
-52.124123 66.56118 241.51353
-51.673866 68.21917 239.88664
-51.673866 68.21914 239.88663
-51.66024 69.75228 237.80899
-52.22431 70.902306 235.55844
-53.188988 71.71963 233.41484
-53.189003 71.71963 233.41483
-54.565147 72.43395 231.39816
-56.18595 73.26882 229.46637
-57.527733 74.24999 227.44185
-58.1634 75.169975 225.12721
-58.163383 75.170006 225.12726
-58.058083 76.08572 222.64339
-57.55979 77.19421 220.2562
-57.083397 78.43511 217.9388
-57.083412 78.43511 217.93877
-57.01542 79.70519 215.6281
-57.59353 81.014824 213.42114
-58.600777 82.264336 211.31175
-58.600792 82.264305 211.31174
-59.718147 83.299126 209.25871
-60.886543 84.12081 207.31142
-62.211967 84.709526 205.36581
-62.211967 84.70956 205.36583
-63.92402 84.76113 204.09357
-14.373589 17.897743 267.67328
-15.713799 19.174095 267.65808
-17.348 20.736763 268.08646
-18.869164 22.378319 268.77063
-20.090782 23.802727 269.21548
-21.09394 24.748024 269.28442
-22.116142 25.572105 269.03635
-23.523552 26.473915 268.54428
-25.28521 27.413383 267.91696
-27.128609 28.397438 267.27258
-29.016777 29.35366 266.64188
-31.019585 30.2958 265.97287
-33.186256 31.34031 265.17575
-35.406517 32.58686 264.21826
-37.432854 34.0046 263.16135
-39.126335 35.465843 262.05823
-39.12632 35.46586 262.05826
-40.593925 36.903267 260.91254
-42.204674 38.405952 259.67468
-44.005013 40.07235 258.3923
-44.005013 40.07235 258.39233
-45.588036 41.85874 257.12506
-46.794655 43.67077 255.86397
-46.79464 43.670784 255.864
-47.88085 45.48179 254.51884
-48.961845 47.358727 253.0495
-49.782555 49.411034 251.60132
-49.782555 49.411064 251.60133
-50.177284 51.63804 250.35452
-50.444786 53.978813 249.27765
-50.889687 56.295784 248.2593
-50.88967 56.2958 248.25931
-51.460167 58.458916 247.2044
-52.034325 60.521828 245.95247
-52.469307 62.526146 244.39537
-52.469322 62.52613 244.39534
-52.512398 64.41097 242.65453
-52.107094 66.14529 241.0621
-51.646538 67.78405 239.4687
-51.646538 67.78402 239.46867
-51.648186 69.2788 237.46611
-52.258034 70.38729 235.29497
-53.236244 71.17281 233.22125
-53.236244 71.17281 233.22124
-54.627235 71.905876 231.23788
-56.26217 72.79293 229.31087
-57.582527 73.821556 227.28673
-58.16674 74.77596 224.9978
-58.16674 74.77599 224.99783
-58.01734 75.7156 222.52242
-57.49662 76.841606 220.10529
-57.0223 78.095726 217.76472
-57.0223 78.095726 217.76471
-56.98957 79.398674 215.45139
-57.61651 80.75024 213.25565
-58.64611 82.00146 211.1732
-58.646126 82.00146 211.1732
-59.75666 83.02334 209.14508
-60.922188 83.83816 207.21436
-62.258873 84.42962 205.27945
-62.258873 84.42965 205.27945
POLYGONS 1295 5180
3 0 1 2
3 2 1 3
3 2 3 4
3 4 3 5
3 4 5 6
3 6 5 7
3 6 7 8
3 8 7 9
3 8 9 10
3 10 9 11
3 12 13 14
3 14 13 15
3 14 16 17
3 17 16 18
3 17 18 19
3 19 18 20
3 19 20 21
3 21 20 22
3 23 24 25
3 25 24 26
3 25 26 27
3 27 26 28
3 27 28 29
3 29 28 30
3 29 30 31
3 31 30 32
3 31 32 33
3 33 32 34
3 33 34 35
3 35 34 36
3 35 36 37
3 37 36 38
3 39 40 41
3 41 40 42
3 41 42 43
3 43 42 44
3 43 44 45
3 45 44 46
3 47 48 49
3 49 48 50
3 49 50 51
3 51 50 52
3 53 54 55
3 55 54 56
3 55 56 57
3 57 56 58
3 57 58 59
3 59 58 60
3 61 62 63
3 63 62 64
3 63 64 65
3 65 64 66
3 65 66 67
3 67 66 68
3 69 70 71
3 71 70 72
3 71 72 73
3 73 72 74
3 73 74 75
3 75 74 76
3 77 78 79
3 79 78 80
3 79 80 81
3 81 80 82
3 81 82 83
3 83 82 84
3 85 86 87
3 87 86 88
3 87 88 89
3 89 88 90
3 89 90 91
3 91 90 92
3 91 93 94
3 94 93 95
3 94 95 96
3 96 95 97
3 96 97 98
3 98 97 99
3 98 99 100
3 100 99 101
3 102 103 104
3 104 103 105
3 104 105 106
3 106 105 107
3 106 107 108
3 108 107 109
3 110 111 112
3 112 111 113
3 112 113 114
3 114 113 115
3 114 115 116
3 116 115 117
3 118 119 120
3 120 119 121
3 120 121 122
3 122 121 123
3 122 123 124
3 124 123 125
3 126 127 128
3 128 127 129
3 3 1 130
3 3 130 5
3 5 130 131
3 5 131 7
3 7 131 132
3 7 132 9
3 9 132 133
3 9 133 11
3 11 133 134
3 13 135 15
3 15 135 136
3 16 136 18
3 18 136 137
3 18 137 20
3 20 137 138
3 20 138 22
3 22 138 139
3 24 140 26
3 26 140 141
3 26 141 28
3 28 141 142
3 28 142 30
3 30 142 143
3 30 143 32
3 32 143 144
3 32 144 34
3 34 144 145
3 34 145 36
3 36 145 146
3 36 146 38
3 38 146 147
3 40 148 42
3 42 148 149
3 42 149 44
3 44 149 150
3 44 150 46
3 46 150 151
3 48 152 50
3 50 152 153
3 50 153 52
3 52 153 154
3 54 155 56
3 56 155 156
3 56 156 58
3 58 156 157
3 58 157 60
3 60 157 158
3 62 159 64
3 64 159 160
3 64 160 66
3 66 160 161
3 66 161 68
3 68 161 162
3 70 163 72
3 72 163 164
3 72 164 74
3 74 164 165
3 74 165 76
3 76 165 166
3 78 167 80
3 80 167 168
3 80 168 82
3 82 168 169
3 82 169 84
3 84 169 170
3 86 171 88
3 88 171 172
3 88 172 90
3 90 172 173
3 90 173 92
3 92 173 174
3 93 174 95
3 95 174 175
3 95 175 97
3 97 175 176
3 97 176 99
3 99 176 177
3 99 177 101
3 101 177 178
3 103 179 105
3 105 179 180
3 105 180 107
3 107 180 181
3 107 181 109
3 109 181 182
3 111 183 113
3 113 183 184
3 113 184 115
3 115 184 185
3 115 185 117
3 117 185 186
3 119 187 121
3 121 187 188
3 121 188 123
3 123 188 189
3 123 189 125
3 125 189 190
3 127 191 129
3 129 191 192
3 1 193 130
3 130 193 194
3 130 194 131
3 131 194 195
3 131 195 132
3 132 195 196
3 132 196 133
3 133 196 197
3 133 197 134
3 134 197 198
3 135 199 136
3 136 199 200
3 136 201 137
3 137 201 202
3 137 202 138
3 138 202 203
3 138 203 139
3 139 203 204
3 140 205 141
3 141 205 206
3 141 206 142
3 142 206 207
3 142 207 143
3 143 207 208
3 143 208 144
3 144 208 209
3 144 209 145
3 145 209 210
3 145 210 146
3 146 210 211
3 146 211 147
3 147 211 212
3 148 213 149
3 149 213 214
3 149 214 150
3 150 214 215
3 150 215 151
3 151 215 216
3 152 217 153
3 153 217 218
3 153 218 154
3 154 218 219
3 155 220 156
3 156 220 221
3 156 221 157
3 157 221 222
3 157 222 158
3 158 222 223
3 159 223 160
3 160 223 224
3 160 224 161
3 161 224 225
3 161 225 162
3 162 225 226
3 163 227 164
3 164 227 228
3 164 228 165
3 165 228 229
3 165 229 166
3 166 229 230
3 167 231 168
3 168 231 232
3 168 232 169
3 169 232 233
3 169 233 170
3 170 233 234
3 171 235 172
3 172 235 236
3 172 236 173
3 173 236 237
3 173 237 174
3 174 237 238
3 174 239 175
3 175 239 240
3 175 240 176
3 176 240 241
3 176 241 177
3 177 241 242
3 177 242 178
3 178 242 243
3 179 244 180
3 180 244 245
3 180 245 181
3 181 245 246
3 181 246 182
3 182 246 247
3 183 248 184
3 184 248 249
3 184 249 185
3 185 249 250
3 185 250 186
3 186 250 251
3 187 252 188
3 188 252 253
3 188 253 189
3 189 253 254
3 189 254 190
3 190 254 255
3 191 256 192
3 0 1 194
3 194 1 257
3 194 257 258
3 258 257 259
3 258 259 260
3 260 259 261
3 260 261 262
3 262 261 263
3 262 263 264
3 264 263 265
3 266 267 268
3 268 267 269
3 270 271 272
3 272 271 273
3 272 273 274
3 274 273 275
3 274 275 276
3 276 275 277
3 278 279 206
3 206 279 280
3 206 280 281
3 281 280 282
3 281 282 283
3 283 282 284
3 283 284 285
3 285 284 286
3 285 286 287
3 287 286 288
3 287 288 289
3 289 288 290
3 289 290 291
3 291 290 292
3 293 294 295
3 295 294 296
3 295 296 297
3 297 296 298
3 297 298 299
3 299 298 300
3 301 302 303
3 303 302 304
3 303 304 220
3 220 304 305
3 306 307 308
3 308 307 309
3 308 309 310
3 310 309 311
3 310 311 312
3 312 311 313
3 314 315 316
3 316 315 317
3 316 317 318
3 318 317 319
3 318 319 320
3 320 319 321
3 322 323 324
3 324 323 325
3 324 325 326
3 326 325 327
3 326 327 328
3 328 327 329
3 330 331 332
3 332 331 333
3 332 333 334
3 334 333 335
3 334 335 336
3 336 335 337
3 338 339 340
3 340 339 341
3 340 341 342
3 342 341 343
3 342 343 344
3 344 343 345
3 346 345 347
3 347 345 348
3 347 348 349
3 349 348 350
3 349 350 351
3 351 350 352
3 351 352 353
3 353 352 354
3 355 356 357
3 357 356 358
3 357 358 359
3 359 358 360
3 359 360 361
3 361 360 362
3 363 364 365
3 365 364 366
3 365 366 367
3 367 366 368
3 367 368 369
3 369 368 370
3 251 371 372
3 372 371 373
3 372 373 374
3 374 373 375
3 374 375 255
3 255 375 376
3 377 378 128
3 1 379 257
3 257 379 380
3 257 380 259
3 259 380 381
3 259 381 261
3 261 381 382
3 261 382 263
3 263 382 383
3 263 383 265
3 265 383 384
3 267 385 269
3 269 385 386
3 271 386 273
3 273 386 387
3 273 387 275
3 275 387 388
3 275 388 277
3 277 388 389
3 279 390 280
3 280 390 391
3 280 391 282
3 282 391 392
3 282 392 284
3 284 392 393
3 284 393 286
3 286 393 394
3 286 394 288
3 288 394 395
3 288 395 290
3 290 395 396
3 290 396 292
3 292 396 397
3 294 398 296
3 296 398 399
3 296 399 298
3 298 399 400
3 298 400 300
3 300 400 401
3 302 402 304
3 304 402 403
3 304 403 305
3 305 403 404
3 307 405 309
3 309 405 406
3 309 406 311
3 311 406 407
3 311 407 313
3 313 407 408
3 315 409 317
3 317 409 410
3 317 410 319
3 319 410 411
3 319 411 321
3 321 411 412
3 323 413 325
3 325 413 414
3 325 414 327
3 327 414 415
3 327 415 329
3 329 415 416
3 331 417 333
3 333 417 418
3 333 418 335
3 335 418 419
3 335 419 337
3 337 419 420
3 339 421 341
3 341 421 422
3 341 422 343
3 343 422 423
3 343 423 345
3 345 423 424
3 345 424 348
3 348 424 425
3 348 425 350
3 350 425 426
3 350 426 352
3 352 426 427
3 352 427 354
3 354 427 428
3 356 429 358
3 358 429 430
3 358 430 360
3 360 430 431
3 360 431 362
3 362 431 432
3 364 433 366
3 366 433 434
3 366 434 368
3 368 434 435
3 368 435 370
3 370 435 436
3 371 437 373
3 373 437 438
3 373 438 375
3 375 438 439
3 375 439 376
3 376 439 440
3 378 441 128
3 128 441 442
3 379 193 380
3 380 193 443
3 380 443 381
3 381 443 444
3 381 444 382
3 382 444 445
3 382 445 383
3 383 445 446
3 383 446 384
3 384 446 447
3 385 448 386
3 386 448 449
3 386 449 387
3 387 449 450
3 387 450 388
3 388 450 451
3 388 451 389
3 389 451 452
3 390 453 391
3 391 453 454
3 391 454 392
3 392 454 455
3 392 455 393
3 393 455 456
3 393 456 394
3 394 456 457
3 394 457 395
3 395 457 458
3 395 458 396
3 396 458 459
3 396 459 397
3 397 459 460
3 398 461 399
3 399 461 462
3 399 462 400
3 400 462 463
3 400 463 401
3 401 463 464
3 402 465 403
3 403 465 466
3 403 466 404
3 404 466 467
3 405 468 406
3 406 468 469
3 406 469 407
3 407 469 470
3 407 470 408
3 408 470 471
3 409 472 410
3 410 472 473
3 410 473 411
3 411 473 474
3 411 474 412
3 412 474 475
3 413 476 414
3 414 476 477
3 414 477 415
3 415 477 478
3 415 478 416
3 416 478 479
3 417 480 418
3 418 480 481
3 418 481 419
3 419 481 482
3 419 482 420
3 420 482 483
3 421 484 422
3 422 484 485
3 422 485 423
3 423 485 486
3 423 486 424
3 424 486 487
3 424 488 425
3 425 488 489
3 425 489 426
3 426 489 490
3 426 490 427
3 427 490 491
3 427 491 428
3 428 491 492
3 429 493 430
3 430 493 494
3 430 494 431
3 431 494 495
3 431 495 432
3 432 495 496
3 433 497 434
3 434 497 498
3 434 498 435
3 435 498 499
3 435 499 436
3 436 499 500
3 437 500 438
3 438 500 501
3 438 501 439
3 439 501 502
3 439 502 440
3 440 502 503
3 441 504 442
3 193 0 443
3 443 0 505
3 443 505 444
3 444 505 506
3 444 506 445
3 445 506 507
3 445 507 446
3 446 507 508
3 446 508 447
3 447 508 509
3 448 510 449
3 449 510 511
3 449 512 450
3 450 512 513
3 450 513 451
3 451 513 514
3 451 514 452
3 452 514 515
3 453 516 454
3 454 516 517
3 454 517 455
3 455 517 518
3 455 518 456
3 456 518 519
3 456 519 457
3 457 519 520
3 457 520 458
3 458 520 521
3 458 521 459
3 459 521 522
3 459 522 460
3 460 522 523
3 461 524 462
3 462 524 525
3 462 525 463
3 463 525 526
3 463 526 464
3 464 526 527
3 465 528 466
3 466 528 529
3 466 529 467
3 467 529 530
3 468 531 469
3 469 531 532
3 469 532 470
3 470 532 533
3 470 533 471
3 471 533 534
3 472 535 473
3 473 535 536
3 473 536 474
3 474 536 537
3 474 537 475
3 475 537 538
3 476 539 477
3 477 539 540
3 477 540 478
3 478 540 541
3 478 541 479
3 479 541 542
3 480 543 481
3 481 543 544
3 481 544 482
3 482 544 545
3 482 545 483
3 483 545 546
3 484 547 485
3 485 547 548
3 485 548 486
3 486 548 549
3 486 549 487
3 487 549 550
3 488 551 489
3 489 551 552
3 489 552 490
3 490 552 553
3 490 553 491
3 491 553 554
3 491 554 492
3 492 554 555
3 493 556 494
3 494 556 557
3 494 557 495
3 495 557 558
3 495 558 496
3 496 558 559
3 497 560 498
3 498 560 561
3 498 561 499
3 499 561 562
3 499 562 500
3 500 562 563
3 500 564 501
3 501 564 565
3 501 565 502
3 502 565 566
3 502 566 503
3 503 566 567
3 504 568 128
3 0 569 505
3 505 569 570
3 505 570 506
3 506 570 571
3 506 571 507
3 507 571 572
3 507 572 508
3 508 572 573
3 508 573 509
3 509 573 574
3 510 575 511
3 511 575 576
3 512 577 513
3 513 577 578
3 513 578 514
3 514 578 579
3 514 579 515
3 515 579 580
3 516 581 517
3 517 581 582
3 517 582 518
3 518 582 583
3 518 583 519
3 519 583 584
3 519 584 520
3 520 584 585
3 520 585 521
3 521 585 586
3 521 586 522
3 522 586 587
3 522 587 523
3 523 587 588
3 524 589 525
3 525 589 590
3 525 590 526
3 526 590 591
3 526 591 527
3 527 591 592
3 528 593 529
3 529 593 594
3 529 594 530
3 530 594 595
3 531 596 532
3 532 596 597
3 532 597 533
3 533 597 598
3 533 598 534
3 534 598 599
3 535 600 536
3 536 600 601
3 536 601 537
3 537 601 602
3 537 602 538
3 538 602 603
3 539 604 540
3 540 604 605
3 540 605 541
3 541 605 606
3 541 606 542
3 542 606 607
3 543 608 544
3 544 608 609
3 544 609 545
3 545 609 610
3 545 610 546
3 546 610 611
3 547 612 548
3 548 612 613
3 548 613 549
3 549 613 614
3 549 614 550
3 550 614 615
3 551 616 552
3 552 616 617
3 552 617 553
3 553 617 618
3 553 618 554
3 554 618 619
3 554 619 555
3 555 619 620
3 556 621 557
3 557 621 622
3 557 622 558
3 558 622 623
3 558 623 559
3 559 623 624
3 560 625 561
3 561 625 626
3 561 626 562
3 562 626 627
3 562 627 563
3 563 627 628
3 564 629 565
3 565 629 630
3 565 630 566
3 566 630 631
3 566 631 567
3 567 631 632
3 568 633 128
3 128 633 634
3 569 635 570
3 570 635 636
3 570 636 571
3 571 636 637
3 571 637 572
3 572 637 638
3 572 638 573
3 573 638 639
3 573 639 574
3 574 639 640
3 575 641 576
3 576 641 642
3 577 642 578
3 578 642 643
3 578 643 579
3 579 643 644
3 579 644 580
3 580 644 645
3 581 645 582
3 582 645 646
3 582 646 583
3 583 646 647
3 583 647 584
3 584 647 648
3 584 648 585
3 585 648 649
3 585 649 586
3 586 649 650
3 586 650 587
3 587 650 651
3 587 651 588
3 588 651 652
3 589 653 590
3 590 653 654
3 590 654 591
3 591 654 655
3 591 655 592
3 592 655 656
3 593 657 594
3 594 657 658
3 594 658 595
3 595 658 659
3 596 660 597
3 597 660 661
3 597 661 598
3 598 661 662
3 598 662 599
3 599 662 663
3 600 664 601
3 601 664 665
3 601 665 602
3 602 665 666
3 602 666 603
3 603 666 667
3 604 668 605
3 605 668 669
3 605 669 606
3 606 669 670
3 606 670 607
3 607 670 671
3 608 672 609
3 609 672 673
3 609 673 610
3 610 673 674
3 610 674 611
3 611 674 675
3 612 676 613
3 613 676 677
3 613 677 614
3 614 677 678
3 614 678 615
3 615 678 679
3 616 679 617
3 617 679 680
3 617 680 618
3 618 680 681
3 618 681 619
3 619 681 682
3 619 682 620
3 620 682 683
3 621 684 622
3 622 684 685
3 622 685 623
3 623 685 686
3 623 686 624
3 624 686 687
3 625 688 626
3 626 688 689
3 626 689 627
3 627 689 690
3 627 690 628
3 628 690 691
3 629 692 630
3 630 692 693
3 630 693 631
3 631 693 694
3 631 694 632
3 632 694 695
3 633 696 634
3 634 696 128
3 635 697 636
3 636 697 698
3 636 698 637
3 637 698 699
3 637 699 638
3 638 699 700
3 638 700 639
3 639 700 701
3 639 701 640
3 640 701 702
3 641 703 642
3 642 703 704
3 642 704 643
3 643 704 705
3 643 705 644
3 644 705 706
3 644 706 645
3 645 706 707
3 645 708 646
3 646 708 709
3 646 709 647
3 647 709 710
3 647 710 648
3 648 710 711
3 648 711 649
3 649 711 712
3 649 712 650
3 650 712 713
3 650 713 651
3 651 713 714
3 651 714 652
3 652 714 715
3 653 716 654
3 654 716 717
3 654 717 655
3 655 717 718
3 655 718 656
3 656 718 719
3 657 720 658
3 658 720 721
3 658 721 659
3 659 721 722
3 660 723 661
3 661 723 724
3 661 724 662
3 662 724 725
3 662 725 663
3 663 725 726
3 664 727 665
3 665 727 728
3 665 728 666
3 666 728 729
3 666 729 667
3 667 729 730
3 668 731 669
3 669 731 732
3 669 732 670
3 670 732 733
3 670 733 671
3 671 733 734
3 672 735 673
3 673 735 736
3 673 736 674
3 674 736 737
3 674 737 675
3 675 737 738
3 676 739 677
3 677 739 740
3 677 740 678
3 678 740 741
3 678 741 679
3 679 741 742
3 679 743 680
3 680 743 744
3 680 744 681
3 681 744 745
3 681 745 682
3 682 745 746
3 682 746 683
3 683 746 747
3 684 748 685
3 685 748 749
3 685 749 686
3 686 749 750
3 686 750 687
3 687 750 751
3 688 752 689
3 689 752 753
3 689 753 690
3 690 753 754
3 690 754 691
3 691 754 755
3 692 756 693
3 693 756 757
3 693 757 694
3 694 757 758
3 694 758 695
3 695 758 759
3 696 760 128
3 128 760 761
3 697 762 698
3 698 762 763
3 698 763 699
3 699 763 764
3 699 764 700
3 700 764 765
3 700 765 701
3 701 765 766
3 701 766 702
3 702 766 767
3 703 768 704
3 704 768 769
3 704 769 705
3 705 769 770
3 705 770 706
3 706 770 771
3 706 771 707
3 707 771 772
3 708 773 709
3 709 773 774
3 709 774 710
3 710 774 775
3 710 775 711
3 711 775 776
3 711 776 712
3 712 776 777
3 712 777 713
3 713 777 778
3 713 778 714
3 714 778 779
3 714 779 715
3 715 779 780
3 716 781 717
3 717 781 782
3 717 782 718
3 718 782 783
3 718 783 719
3 719 783 784
3 720 785 721
3 721 785 786
3 721 786 722
3 722 786 787
3 723 788 724
3 724 788 789
3 724 789 725
3 725 789 790
3 725 790 726
3 726 790 791
3 727 792 728
3 728 792 793
3 728 793 729
3 729 793 794
3 729 794 730
3 730 794 795
3 731 796 732
3 732 796 797
3 732 797 733
3 733 797 798
3 733 798 734
3 734 798 799
3 735 800 736
3 736 800 801
3 736 801 737
3 737 801 802
3 737 802 738
3 738 802 803
3 739 804 740
3 740 804 805
3 740 805 741
3 741 805 806
3 741 806 742
3 742 806 807
3 743 808 744
3 744 808 809
3 744 809 745
3 745 809 810
3 745 810 746
3 746 810 811
3 746 811 747
3 747 811 812
3 748 813 749
3 749 813 814
3 749 814 750
3 750 814 815
3 750 815 751
3 751 815 816
3 752 817 753
3 753 817 818
3 753 818 754
3 754 818 819
3 754 819 755
3 755 819 820
3 756 821 757
3 757 821 822
3 757 822 758
3 758 822 823
3 758 823 759
3 759 823 824
3 760 825 761
3 761 825 826
3 762 379 763
3 763 379 827
3 763 827 764
3 764 827 828
3 764 828 765
3 765 828 829
3 765 829 766
3 766 829 830
3 766 830 767
3 767 830 831
3 768 831 769
3 769 831 832
3 769 832 770
3 770 832 833
3 770 833 771
3 771 833 834
3 771 834 772
3 772 834 835
3 773 835 774
3 774 835 836
3 774 836 775
3 775 836 837
3 775 837 776
3 776 837 838
3 776 838 777
3 777 838 839
3 777 839 778
3 778 839 840
3 778 840 779
3 779 840 841
3 779 841 780
3 780 841 842
3 781 843 782
3 782 843 844
3 782 844 783
3 783 844 845
3 783 845 784
3 784 845 846
3 785 847 786
3 786 847 848
3 786 848 787
3 787 848 849
3 788 850 789
3 789 850 851
3 789 851 790
3 790 851 852
3 790 852 791
3 791 852 853
3 792 854 793
3 793 854 855
3 793 855 794
3 794 855 856
3 794 856 795
3 795 856 857
3 796 858 797
3 797 858 859
3 797 859 798
3 798 859 860
3 798 860 799
3 799 860 861
3 800 862 801
3 801 862 863
3 801 863 802
3 802 863 864
3 802 864 803
3 803 864 865
3 804 866 805
3 805 866 867
3 805 867 806
3 806 867 868
3 806 868 807
3 807 868 869
3 808 870 809
3 809 870 871
3 809 871 810
3 810 871 872
3 810 872 811
3 811 872 873
3 811 873 812
3 812 873 874
3 813 875 814
3 814 875 876
3 814 876 815
3 815 876 877
3 815 877 816
3 816 877 878
3 817 879 818
3 818 879 880
3 818 880 819
3 819 880 881
3 819 881 820
3 820 881 882
3 821 883 822
3 822 883 884
3 822 884 823
3 823 884 885
3 823 885 824
3 824 885 886
3 825 887 826
3 826 887 442
3 379 0 827
3 827 0 2
3 827 2 828
3 828 2 4
3 828 4 829
3 829 4 6
3 829 6 830
3 830 6 8
3 830 8 831
3 831 8 10
3 831 12 832
3 832 12 14
3 832 14 833
3 833 14 17
3 833 17 834
3 834 17 19
3 834 19 835
3 835 19 21
3 835 23 836
3 836 23 25
3 836 25 837
3 837 25 27
3 837 27 838
3 838 27 29
3 838 29 839
3 839 29 31
3 839 31 840
3 840 31 33
3 840 33 841
3 841 33 35
3 841 35 842
3 842 35 37
3 843 39 844
3 844 39 41
3 844 41 845
3 845 41 43
3 845 43 846
3 846 43 45
3 847 47 848
3 848 47 49
3 848 49 849
3 849 49 51
3 850 53 851
3 851 53 55
3 851 55 852
3 852 55 57
3 852 57 853
3 853 57 59
3 854 61 855
3 855 61 63
3 855 63 856
3 856 63 65
3 856 65 857
3 857 65 67
3 858 69 859
3 859 69 71
3 859 71 860
3 860 71 73
3 860 73 861
3 861 73 75
3 862 77 863
3 863 77 79
3 863 79 864
3 864 79 81
3 864 81 865
3 865 81 83
3 866 85 867
3 867 85 87
3 867 87 868
3 868 87 89
3 868 89 869
3 869 89 91
3 870 91 871
3 871 91 94
3 871 94 872
3 872 94 96
3 872 96 873
3 873 96 98
3 873 98 874
3 874 98 100
3 875 102 876
3 876 102 104
3 876 104 877
3 877 104 106
3 877 106 878
3 878 106 108
3 879 110 880
3 880 110 112
3 880 112 881
3 881 112 114
3 881 114 882
3 882 114 116
3 883 118 884
3 884 118 120
3 884 120 885
3 885 120 122
3 885 122 886
3 886 122 124
3 887 126 442
3 442 126 128
