# vtk DataFile Version 2.0
File written by itkPolyDataMeshIO
ASCII
DATASET POLYDATA
POINTS 633 float
-11.183006 1.157066 80.94557
-11.183006 1.157051 80.94557
-12.342354 1.051796 81.87398
-12.207909 1.25219 81.95923
-13.673119 1.898247 82.649475
-13.463768 2.225777 82.79488
-15.132332 3.022865 83.18299
-14.897606 3.413902 83.36464
-16.619926 4.200813 83.58311
-16.383827 4.623009 83.78875
-18.119453 5.377541 83.9299
-17.89196 5.81646 84.154594
-19.643959 6.52639 84.256195
-19.429817 6.974068 84.497986
-21.215218 7.61692 84.595146
-21.014687 8.070564 84.85489
-21.215202 7.61692 84.595146
-21.014671 8.070564 84.85488
-22.857445 8.6157 84.96909
-22.66851 9.07444 85.24894
-24.589516 9.487144 85.39188
-24.409569 9.949471 85.69355
-24.5895 9.487144 85.391884
-24.409569 9.949501 85.69355
-26.428734 10.18409 85.88139
-26.25518 10.647209 86.20447
-28.376625 10.658318 86.456665
-28.207497 11.117302 86.79595
-30.401634 10.935219 87.12199
-30.23809 11.382378 87.462585
-32.45408 11.13488 87.853714
-32.30114 11.559441 88.16865
-32.454063 11.134911 87.85373
-32.301125 11.559471 88.16866
-34.496452 11.351082 88.58085
-34.35755 11.739128 88.838554
-36.481834 11.553566 89.16275
-36.35241 11.890205 89.34698
-38.339912 11.754951 89.541245
-38.21218 12.03759 89.68409
-39.99331 11.954277 89.863815
-39.85601 12.197975 90.01449
-41.519325 12.225365 90.169
-41.38369 12.438911 90.34454
-41.519325 12.22538 90.169
-41.383675 12.438911 90.344536
-42.91593 12.866539 90.193855
-42.82151 12.998009 90.328674
-43.852196 14.294762 89.63008
-12.078682 1.455269 81.996826
-13.263802 2.55854 82.86217
-14.675026 3.812752 83.453064
-16.161781 5.05584 83.89383
-17.679863 6.269356 84.274704
-19.231972 7.439888 84.632904
-20.830803 8.547951 85.00583
-20.830788 8.547951 85.00583
-22.495872 9.564461 85.4179
-24.244804 10.452766 85.882195
-24.24479 10.452766 85.8822
-26.094582 11.162651 86.41291
-28.047874 11.640297 87.02061
-30.079765 11.901451 87.69171
-32.148705 12.054741 88.37846
-32.14869 12.054771 88.37846
-34.213844 12.186913 88.9997
-36.21369 12.274498 89.451706
-38.07766 12.366203 89.77179
-39.719917 12.505257 90.13887
-41.25097 12.730263 90.50908
-41.25097 12.730263 90.50907
-42.72666 13.187431 90.452774
-43.852196 14.294762 89.63007
-11.183006 1.157066 80.945564
-11.948158 1.663872 82.01551
-13.063255 2.900185 82.89545
-14.453667 4.222481 83.49665
-15.943138 5.500893 83.94546
-17.473488 6.73571 84.33347
-19.04226 7.920509 84.69847
-20.657448 9.041801 85.07842
-20.657463 9.041801 85.07843
-22.336128 10.07328 85.49801
-24.094948 10.978065 85.97005
-24.094933 10.978081 85.97005
-25.950233 11.704613 86.50795
-27.904488 12.195869 87.120605
-29.935036 12.460472 87.79033
-32.003822 12.598289 88.46218
-32.003807 12.598305 88.46219
-34.069862 12.693489 89.05291
-36.070824 12.732368 89.47978
-37.943016 12.788597 89.81834
-39.592262 12.933662 90.25427
-41.129723 13.155128 90.681274
-42.638786 13.474113 90.58068
-11.182991 1.157066 80.94558
-11.774727 1.965401 81.93622
-12.801567 3.383171 82.77482
-14.170723 4.787636 83.364395
-15.670753 6.098595 83.81583
-17.224678 7.34417 84.21243
-18.823158 8.527718 84.58902
-20.468147 9.64399 84.98102
-20.468163 9.64399 84.98101
-22.173317 10.670036 85.41166
-23.953972 11.56913 85.89319
-23.953972 11.569145 85.893196
-25.82473 12.289421 86.438126
-27.786171 12.773994 87.05412
-29.816093 13.030907 87.721794
-31.879585 13.15992 88.38604
-31.87957 13.159935 88.38605
-33.93853 13.248558 88.96967
-35.93441 13.288887 89.40521
-37.81176 13.364601 89.784836
-39.467476 13.564415 90.28728
-41.014427 13.811989 90.77087
-41.014427 13.811974 90.77087
-42.55813 13.951836 90.65461
-11.183022 1.157051 80.945564
-11.601463 2.286583 81.76684
-12.543221 3.896126 82.51101
-13.895454 5.386635 83.0655
-15.410652 6.730507 83.51083
-16.992851 7.985023 83.91389
-18.625862 9.163643 84.30357
-20.305458 10.269005 84.71047
-20.305443 10.269005 84.71047
-22.041832 11.281075 85.155396
-23.848747 12.162895 85.64981
-23.848732 12.16291 85.64982
-25.73864 12.862831 86.20495
-27.70942 13.326057 86.82624
-29.738548 13.565788 87.491974
-31.79435 13.690559 88.15015
-31.79432 13.69059 88.150154
-33.843315 13.798485 88.738464
-35.831398 13.886147 89.20443
-37.70672 14.024208 89.62217
-39.36022 14.302284 90.13737
-40.9168 14.58477 90.629944
-40.916817 14.584785 90.629944
-42.49749 14.528053 90.55955
-43.85221 14.294762 89.63008
-11.182991 1.157066 80.94557
-11.601463 2.286568 81.76684
-11.488029 2.521965 81.530495
-12.543221 3.896111 82.51101
-12.376472 4.277092 82.139114
-13.721504 5.838966 82.63785
-15.251045 7.216377 83.066895
-16.856163 8.486992 83.47116
-18.625862 9.163643 84.303566
-18.515892 9.671364 83.871826
-20.305458 10.26899 84.710464
-20.221733 10.777351 84.293274
-20.305443 10.26899 84.710464
-20.221718 10.777351 84.293274
-22.041832 11.281059 85.155396
-21.981361 11.786629 84.75359
-23.807182 12.661613 85.26344
-23.807167 12.661629 85.26345
-25.709908 13.350136 85.83234
-27.70942 13.326073 86.82624
-27.68554 13.798225 86.4619
-29.738548 13.565819 87.49198
-29.711784 14.02314 87.12489
-31.79435 13.690575 88.15015
-31.760872 14.142906 87.770325
-31.794334 13.690605 88.150154
-31.760872 14.142937 87.77033
-33.843315 13.7985 88.738464
-33.80445 14.270653 88.355576
-35.790306 14.411736 88.84969
-37.706734 14.024208 89.62217
-37.661476 14.611275 89.28818
-39.360237 14.302284 90.137375
-39.306435 14.952827 89.772285
-40.9168 14.584785 90.62995
-40.86625 15.255699 90.23146
-40.916817 14.584785 90.62995
-40.866234 15.255699 90.23146
-42.49749 14.528069 90.55955
-42.472145 15.025108 90.26714
-11.182991 1.157082 80.94558
-11.413734 2.722557 81.15921
-12.270409 4.599495 81.55988
-13.616402 6.217583 81.9791
-15.161842 7.618034 82.39176
-16.788597 8.896675 82.80749
-18.47219 10.08033 83.23512
-20.200874 11.181786 83.689026
-20.200874 11.181786 83.68903
-21.980247 12.184288 84.1829
-23.821556 13.049751 84.726135
-23.821526 13.049767 84.72614
-25.734093 13.725075 85.325676
-27.712456 14.156013 85.97746
-29.735542 14.360771 86.64564
-31.780632 14.463799 87.27774
-31.780617 14.463814 87.27774
-33.825417 14.593895 87.850395
-35.817604 14.769585 88.35602
-37.689568 15.014336 88.80235
-39.326775 15.4049 89.26818
-40.877693 15.730186 89.72097
-42.481606 15.384392 89.8998
-43.85218 14.294777 89.63009
-43.85218 14.294777 89.63008
-11.183006 1.157051 80.945564
-11.414848 2.827919 80.668205
-12.278465 4.772423 80.79615
-13.63607 6.423729 81.11549
-15.194572 7.839821 81.513084
-16.834358 9.126137 81.95101
-18.53025 10.31292 82.42152
-20.269463 11.41552 82.92548
-20.269478 11.41552 82.92548
-22.05677 12.418007 83.470726
-23.90252 13.28138 84.06538
-23.902504 13.281395 84.065384
-25.815147 13.950905 84.71386
-27.788795 14.369896 85.40615
-29.804314 14.553642 86.09768
-31.84414 14.628716 86.73314
-31.84414 14.628731 86.73315
-33.891335 14.739296 87.30376
-35.894478 14.924324 87.822426
-37.77732 15.200203 88.28632
-39.412636 15.62632 88.757126
-40.942513 15.97393 89.2404
-40.942513 15.97393 89.240395
-42.517998 15.580055 89.576546
-11.183006 1.157066 80.94558
-11.182976 1.157082 80.94558
-11.414848 2.827919 80.66821
-11.508171 2.784492 80.17083
-12.27845 4.772438 80.79616
-12.425224 4.713722 80.017426
-13.636055 6.423759 81.1155
-13.805107 6.367805 80.230644
-15.194557 7.839836 81.51309
-15.370354 7.794823 80.60853
-16.834343 9.126137 81.95102
-17.009743 9.095634 81.06473
-18.530235 10.312935 82.42153
-18.700981 10.298897 81.57454
-20.269463 11.415535 82.92549
-20.433372 11.418724 82.12519
-20.433388 11.418724 82.12519
-22.056755 12.418022 83.47073
-22.212334 12.438316 82.71871
-24.048027 13.317711 83.36263
-23.902489 13.28141 84.06539
-24.048012 13.317726 83.36263
-25.815132 13.95092 84.71386
-25.948723 13.999855 84.06012
-27.78878 14.369911 85.40616
-27.908974 14.423805 84.797676
-29.804314 14.553673 86.09769
-29.911507 14.598442 85.52534
-31.84414 14.628731 86.73314
-31.94175 14.64756 86.1842
-31.844124 14.628761 86.733154
-31.941734 14.647575 86.18421
-33.89132 14.739311 87.30377
-33.98516 14.727364 86.770164
-35.894463 14.924339 87.82243
-35.993355 14.903679 87.31041
-37.777306 15.200218 88.28634
-37.89286 15.212257 87.81488
-39.41262 15.626335 88.75714
-39.54122 15.689583 88.31711
-40.942497 15.973946 89.24041
-41.048653 16.067894 88.83217
-40.942497 15.97393 89.24041
-42.517967 15.58007 89.57655
-42.57293 15.661949 89.29683
-43.852196 14.294777 89.63008
-43.852196 14.294792 89.63009
-11.661247 2.628487 79.75631
-12.662041 4.476173 79.36189
-14.070671 6.105415 79.477875
-15.63781 7.535133 79.82987
-17.267403 8.850883 80.29152
-18.942436 10.076042 80.82412
-20.656609 11.22065 81.40348
-20.656593 11.22065 81.40347
-22.417091 12.266045 82.02695
-24.234337 13.171394 82.7021
-24.234337 13.171394 82.70211
-26.116844 13.877708 83.432495
-28.059944 14.319771 84.20421
-30.04731 14.499168 84.96673
-32.064796 14.534737 85.659805
-32.06478 14.534752 85.65981
-34.098106 14.590218 86.27615
-36.10105 14.752647 86.84165
-38.00611 15.08091 87.37571
-39.674614 15.620522 87.92075
-41.174873 16.056374 88.4798
-41.174873 16.056358 88.479805
-42.644264 15.671806 89.04968
-43.852196 14.294777 89.63009
-11.183006 1.157082 80.94557
-11.842659 2.403282 79.45979
-12.941826 4.124992 78.88592
-14.381966 5.707359 78.921906
-15.948158 7.12928 79.24375
-17.562935 8.454613 79.69711
-19.215935 9.699333 80.23333
-20.90641 10.867638 80.82009
-20.906395 10.867638 80.82009
-22.644127 11.938423 81.45153
-24.440056 12.870552 82.13573
-24.44004 12.870567 82.135735
-26.303154 13.603905 82.87784
-28.229439 14.070122 83.666336
-30.202171 14.264961 84.454636
-32.20559 14.302177 85.18436
-32.205574 14.302208 85.18436
-34.224632 14.349281 85.841095
-36.21508 14.505714 86.43614
-38.113594 14.844536 86.98296
-39.794792 15.43177 87.54669
-41.304466 15.948097 88.160446
-41.304466 15.948082 88.160446
-42.735954 15.64016 88.85128
-43.852196 14.294762 89.63009
-11.842659 2.403297 79.45979
-12.024025 2.151299 79.27812
-12.941826 4.125008 78.88591
-13.22184 3.725136 78.5878
-14.693001 5.245491 78.56489
-16.257515 6.648262 78.857056
-17.56292 8.454613 79.69711
-17.85682 7.973549 79.293465
-19.487389 9.229073 79.819435
-21.15435 10.412437 80.39767
-21.154366 10.412437 80.39767
-22.870277 11.500038 81.02032
-24.64672 12.450798 81.69624
-24.64672 12.450798 81.69625
-26.493217 13.204521 82.432655
-28.405998 13.691872 83.22199
-30.202171 14.264946 84.45464
-30.366783 13.905846 84.0244
-32.20559 14.302193 85.18436
-32.356697 13.957191 84.78562
-32.205574 14.302223 85.18436
-32.35668 13.957222 84.78563
-34.35978 14.013817 85.483
-36.335014 14.17942 86.10786
-38.222237 14.53112 86.6562
-39.794792 15.431786 87.54669
-39.907585 15.143593 87.20246
-41.432365 15.737587 87.85567
-41.43235 15.737587 87.855675
-42.735954 15.640175 88.85127
-42.839928 15.553215 88.68115
-11.182991 1.157082 80.94557
-12.17907 1.917671 79.19062
-13.461891 3.346809 78.43873
-14.960518 4.798012 78.378746
-16.524666 6.169838 78.646576
-18.112038 7.481194 79.06411
-19.724953 8.732307 79.57386
-21.37371 9.914787 80.13607
-21.37371 9.914787 80.13608
-23.073448 11.002739 80.74191
-24.83628 11.955635 81.40094
-24.836266 11.955635 81.40095
-26.672127 12.71447 82.122345
-28.577126 13.211403 82.90257
-30.530434 13.440895 83.70881
-32.509377 13.513542 84.49157
-32.509346 13.513573 84.49158
-34.49758 13.594704 85.22043
-36.458336 13.78437 85.866875
-38.33436 14.155708 86.40523
-40.022133 14.779503 86.909
-41.55668 15.426201 87.56108
-41.55665 15.426201 87.56107
-42.93876 15.384727 88.500786
-12.29937 1.722557 79.167725
-13.648643 3.022865 78.395226
-15.169823 4.402916 78.31831
-16.735313 5.73333 78.571434
-18.315254 7.016685 78.97516
-19.916527 8.247246 79.4713
-21.553413 9.411873 80.01943
-21.553413 9.411873 80.01944
-23.243141 10.483101 80.61053
-24.998375 11.421303 81.25461
-24.99836 11.421303 81.25461
-26.8292 12.169609 81.96217
-28.731422 12.663597 82.732414
-30.681908 12.902031 83.53761
-32.654427 12.997002 84.331505
-32.654396 12.997032 84.33151
-34.632378 13.107689 85.07693
-36.58326 13.323174 85.72902
-38.452065 13.707695 86.24281
-40.146736 14.319572 86.687325
-41.68609 14.97802 87.293816
-41.686073 14.978004 87.293816
-43.03315 15.090462 88.30722
-12.4226 1.510277 79.19999
-13.837318 2.671959 78.442986
-15.378044 3.976494 78.368774
-16.941109 5.263832 78.61846
-18.50959 6.51873 79.01612
-20.0951 7.728996 79.50472
-21.716148 8.876289 80.04472
-21.716133 8.876289 80.04472
-23.392189 9.931343 80.62761
-25.13665 10.855385 81.263664
-25.136635 10.855385 81.26367
-26.96038 11.593529 81.96398
-28.859764 12.084206 82.728836
-30.810112 12.329979 83.53253
-32.78205 12.443413 84.32942
-32.782036 12.443443 84.32943
-34.757805 12.574699 85.076515
-36.706703 12.798347 85.71687
-38.57438 13.170326 86.193146
-40.28164 13.733574 86.57174
-41.827003 14.364372 87.11073
-41.82702 14.364372 87.110725
-43.132164 14.64782 88.15177
-11.182991 1.157097 80.94558
-12.422585 1.510277 79.2
-12.594933 1.207649 79.316284
-13.837303 2.671974 78.442986
-14.095848 2.18737 78.62415
-15.378029 3.976494 78.368774
-15.654808 3.409813 78.57381
-16.941093 5.263832 78.61847
-17.203972 4.664986 78.82737
-18.509575 6.518745 79.01612
-18.74546 5.909767 79.22033
-20.0951 7.729012 79.50473
-20.297874 7.122032 79.699776
-21.716118 8.87632 80.04473
-21.885948 8.275276 80.22964
-21.885948 8.275276 80.229645
-23.392174 9.931343 80.62762
-23.5326 9.33683 80.80308
-25.136635 10.8554 81.26367
-25.252785 10.268059 81.4308
-25.13662 10.8554 81.26368
-25.25277 10.268074 81.4308
-26.960365 11.593544 81.964
-27.059273 11.014503 82.124535
-28.859764 12.084221 82.72884
-28.950676 11.514717 82.885376
-30.810097 12.329994 83.53254
-30.901756 11.771797 83.68827
-32.78205 12.443413 84.32943
-32.87893 11.897163 84.486534
-32.78202 12.443443 84.32944
-32.87893 11.897194 84.48654
-34.757805 12.574715 85.07652
-34.860176 12.033775 85.23178
-36.706703 12.798347 85.71688
-36.812782 12.245659 85.85765
-38.57438 13.170357 86.19315
-38.68 12.589668 86.30278
-40.281624 13.733589 86.57175
-40.394005 13.097404 86.6362
-41.827003 14.364388 87.11073
-41.939995 13.701836 87.11973
-41.82699 14.364388 87.11073
-41.93998 13.701836 87.11973
-43.13215 14.64785 88.15177
-43.20826 14.163963 88.13151
-43.85218 14.294777 89.6301
-12.723106 0.959373 79.49411
-14.286644 1.787056 78.90512
-15.856453 2.938271 78.896805
-17.392082 4.16291 79.16226
-18.91018 5.395164 79.55417
-20.434685 6.604851 80.02582
-21.995094 7.758949 80.54634
-21.995094 7.758949 80.54635
-23.617073 8.822075 81.11149
-25.316856 9.755592 81.73262
-25.316841 9.755592 81.73263
-27.109032 10.505196 82.42239
-28.994255 11.009102 83.18332
-30.947395 11.269905 83.9915
-32.931694 11.396797 84.7994
-32.93168 11.396828 84.79941
-34.920616 11.525139 85.55297
-36.876976 11.709984 86.176704
-38.740227 12.015816 86.61354
-40.449867 12.467995 86.93823
-41.990837 13.048668 87.39202
-41.99082 13.048668 87.39202
-43.242027 13.677437 88.31146
-12.824059 0.736855 79.76511
-14.43409 1.42997 79.3312
-16.008217 2.5196 79.38446
-17.528542 3.719337 79.66551
-19.023537 4.943108 80.05304
-20.521461 6.153587 80.50961
-22.055748 7.31208 81.01217
-23.654427 8.381081 81.56013
-25.334953 9.321999 82.16605
-25.334938 9.322014 82.16605
-27.113518 10.080666 82.84462
-28.992805 10.594475 83.6021
-30.94767 10.86422 84.41924
-32.93827 10.995537 85.24999
-32.938255 10.995567 85.25
-34.933235 11.116707 86.03274
-36.890526 11.277199 86.67917
-38.74714 11.551842 87.13774
-40.44567 11.961052 87.48337
-41.982536 12.523582 87.91647
-41.982536 12.523582 87.91648
-43.238884 13.284309 88.67213
-12.871834 0.566582 80.19243
-14.499367 1.156883 79.996056
-16.0682 2.200111 80.13741
-17.57302 3.381981 80.433334
-19.048851 4.600746 80.80358
-20.526436 5.813759 81.22516
-22.041573 6.978111 81.686775
-22.041588 6.978127 81.68678
-23.62397 8.054985 82.193146
-25.292137 9.006325 82.75834
-25.292137 9.006325 82.75835
-27.063606 9.778709 83.39996
-28.942207 10.309868 84.13059
-30.90171 10.600121 84.940254
-32.898476 10.751839 85.78883
-32.89846 10.751869 85.78884
-34.89721 10.886192 86.60835
-36.853554 11.045219 87.29614
-38.70446 11.303444 87.79321
-40.392952 11.674553 88.170105
-41.932213 12.204506 88.5853
-41.932198 12.204491 88.5853
-43.210014 13.03022 89.138084
-12.825569 0.524086 80.722595
-14.422783 1.082253 80.82046
-15.974037 2.105705 81.06999
-17.468208 3.27462 81.382675
-18.936958 4.483681 81.7293
-20.410042 5.68914 82.104645
-21.922829 6.847221 82.51157
-21.922829 6.847206 82.51158
-23.505226 7.919197 82.9608
-25.176384 8.868004 83.4675
-25.176369 8.868019 83.4675
-26.95443 9.642036 84.05166
-28.843102 10.181816 84.732
-30.814095 10.491051 85.50885
-32.82003 10.672295 86.35063
-32.820015 10.672325 86.35064
-34.823524 10.838783 87.18666
-36.78071 11.01873 87.90047
-38.629417 11.271736 88.413445
-40.310722 11.603691 88.80057
-41.85372 12.079414 89.19007
-41.85372 12.07943 89.19007
-43.159737 12.90229 89.55555
-12.695107 0.624168 81.224236
-14.219597 1.230431 81.60691
-15.743584 2.264702 81.96631
-17.232964 3.426613 82.30226
-18.707054 4.620903 82.63371
-20.191322 5.807137 82.97212
-21.717873 6.944389 83.333565
-21.717873 6.944405 83.33357
-23.315483 7.995293 83.734024
-25.003426 8.923759 84.18886
-25.00341 8.923759 84.18886
-26.79972 9.680351 84.7188
-28.707344 10.209908 85.34605
-30.69587 10.52282 86.07768
-32.71534 10.725838 86.88951
-32.71534 10.725853 86.88953
-34.72782 10.924431 87.71055
-36.69027 11.127647 88.410965
-38.540367 11.374702 88.89756
-40.2136 11.664955 89.26502
-41.752907 12.071693 89.61577
-41.75289 12.071693 89.61576
-43.087746 12.850334 89.83517
-12.695107 0.624168 81.22424
-12.518486 0.822517 81.61956
-13.946297 1.536232 82.23599
-15.743584 2.264687 81.96631
-15.437721 2.607018 82.69382
-17.232964 3.426598 82.30225
-16.925957 3.770653 83.06047
-18.707054 4.620903 82.633705
-18.412605 4.950996 83.39246
-20.191307 5.807152 82.97213
-19.91697 6.114113 83.71431
-21.717857 6.944389 83.33357
-21.46621 7.224007 84.05238
-21.717857 6.944405 83.33357
-21.466225 7.224007 84.05238
-23.087013 8.245384 84.42654
-25.00344 8.923759 84.18885
-24.798409 9.142647 84.851585
-24.798393 9.142662 84.85159
-26.799706 9.680367 84.7188
-26.61805 9.868156 85.34736
-28.707329 10.209908 85.34604
-28.548012 10.371056 85.93606
-30.695885 10.52282 86.07768
-30.55642 10.670174 86.62652
-32.71537 10.725838 86.88952
-32.59243 10.879143 87.398
-32.59243 10.879173 87.39802
-34.72782 10.924416 87.71055
-34.61831 11.096596 88.17992
-36.590614 11.309822 88.83232
-38.540367 11.374702 88.89757
-38.44436 11.540306 89.26755
-40.2136 11.66494 89.26502
-40.10766 11.783943 89.60762
-41.752907 12.071663 89.61576
-41.63813 12.114998 89.92335
-41.75289 12.071678 89.61576
-41.638145 12.114998 89.92335
-43.087746 12.850319 89.83516
-43.00222 12.829811 90.02978
POLYGONS 912 3648
3 0 1 2
3 2 1 3
3 2 3 4
3 4 3 5
3 4 5 6
3 6 5 7
3 6 7 8
3 8 7 9
3 8 9 10
3 10 9 11
3 10 11 12
3 12 11 13
3 12 13 14
3 14 13 15
3 16 17 18
3 18 17 19
3 18 19 20
3 20 19 21
3 22 23 24
3 24 23 25
3 24 25 26
3 26 25 27
3 26 27 28
3 28 27 29
3 28 29 30
3 30 29 31
3 32 33 34
3 34 33 35
3 34 35 36
3 36 35 37
3 36 37 38
3 38 37 39
3 38 39 40
3 40 39 41
3 40 41 42
3 42 41 43
3 44 45 46
3 46 45 47
3 46 47 48
3 3 1 49
3 3 49 5
3 5 49 50
3 5 50 7
3 7 50 51
3 7 51 9
3 9 51 52
3 9 52 11
3 11 52 53
3 11 53 13
3 13 53 54
3 13 54 15
3 15 54 55
3 17 56 19
3 19 56 57
3 19 57 21
3 21 57 58
3 23 59 25
3 25 59 60
3 25 60 27
3 27 60 61
3 27 61 29
3 29 61 62
3 29 62 31
3 31 62 63
3 33 64 35
3 35 64 65
3 35 65 37
3 37 65 66
3 37 66 39
3 39 66 67
3 39 67 41
3 41 67 68
3 41 68 43
3 43 68 69
3 45 70 47
3 47 70 71
3 47 71 48
3 48 71 72
3 1 73 49
3 49 73 74
3 49 74 50
3 50 74 75
3 50 75 51
3 51 75 76
3 51 76 52
3 52 76 77
3 52 77 53
3 53 77 78
3 53 78 54
3 54 78 79
3 54 79 55
3 55 79 80
3 56 81 57
3 57 81 82
3 57 82 58
3 58 82 83
3 59 84 60
3 60 84 85
3 60 85 61
3 61 85 86
3 61 86 62
3 62 86 87
3 62 87 63
3 63 87 88
3 64 89 65
3 65 89 90
3 65 90 66
3 66 90 91
3 66 91 67
3 67 91 92
3 67 92 68
3 68 92 93
3 68 93 69
3 69 93 94
3 70 94 71
3 71 94 95
3 71 95 72
3 72 95 48
3 73 96 74
3 74 96 97
3 74 97 75
3 75 97 98
3 75 98 76
3 76 98 99
3 76 99 77
3 77 99 100
3 77 100 78
3 78 100 101
3 78 101 79
3 79 101 102
3 79 102 80
3 80 102 103
3 81 104 82
3 82 104 105
3 82 105 83
3 83 105 106
3 84 107 85
3 85 107 108
3 85 108 86
3 86 108 109
3 86 109 87
3 87 109 110
3 87 110 88
3 88 110 111
3 89 112 90
3 90 112 113
3 90 113 91
3 91 113 114
3 91 114 92
3 92 114 115
3 92 115 93
3 93 115 116
3 93 116 94
3 94 116 117
3 94 118 95
3 95 118 119
3 95 119 48
3 96 120 97
3 97 120 121
3 97 121 98
3 98 121 122
3 98 122 99
3 99 122 123
3 99 123 100
3 100 123 124
3 100 124 101
3 101 124 125
3 101 125 102
3 102 125 126
3 102 126 103
3 103 126 127
3 104 128 105
3 105 128 129
3 105 129 106
3 106 129 130
3 107 131 108
3 108 131 132
3 108 132 109
3 109 132 133
3 109 133 110
3 110 133 134
3 110 134 111
3 111 134 135
3 112 136 113
3 113 136 137
3 113 137 114
3 114 137 138
3 114 138 115
3 115 138 139
3 115 139 116
3 116 139 140
3 116 140 117
3 117 140 141
3 118 142 119
3 119 142 143
3 119 143 48
3 48 143 144
3 0 145 146
3 146 145 147
3 146 147 148
3 148 147 149
3 148 149 123
3 123 149 150
3 123 150 124
3 124 150 151
3 124 151 125
3 125 151 152
3 125 152 153
3 153 152 154
3 153 154 155
3 155 154 156
3 157 158 159
3 159 158 160
3 159 160 130
3 130 160 161
3 131 162 132
3 132 162 163
3 132 163 164
3 164 163 165
3 164 165 166
3 166 165 167
3 166 167 168
3 168 167 169
3 170 171 172
3 172 171 173
3 172 173 138
3 138 173 174
3 138 174 175
3 175 174 176
3 175 176 177
3 177 176 178
3 177 178 179
3 179 178 180
3 181 182 183
3 183 182 184
3 183 184 48
3 145 185 147
3 147 185 186
3 147 186 149
3 149 186 187
3 149 187 150
3 150 187 188
3 150 188 151
3 151 188 189
3 151 189 152
3 152 189 190
3 152 190 154
3 154 190 191
3 154 191 156
3 156 191 192
3 158 193 160
3 160 193 194
3 160 194 161
3 161 194 195
3 162 196 163
3 163 196 197
3 163 197 165
3 165 197 198
3 165 198 167
3 167 198 199
3 167 199 169
3 169 199 200
3 171 201 173
3 173 201 202
3 173 202 174
3 174 202 203
3 174 203 176
3 176 203 204
3 176 204 178
3 178 204 205
3 178 205 180
3 180 205 206
3 182 206 184
3 184 206 207
3 184 207 208
3 208 207 209
3 185 210 186
3 186 210 211
3 186 211 187
3 187 211 212
3 187 212 188
3 188 212 213
3 188 213 189
3 189 213 214
3 189 214 190
3 190 214 215
3 190 215 191
3 191 215 216
3 191 216 192
3 192 216 217
3 193 218 194
3 194 218 219
3 194 219 195
3 195 219 220
3 196 221 197
3 197 221 222
3 197 222 198
3 198 222 223
3 198 223 199
3 199 223 224
3 199 224 200
3 200 224 225
3 201 226 202
3 202 226 227
3 202 227 203
3 203 227 228
3 203 228 204
3 204 228 229
3 204 229 205
3 205 229 230
3 205 230 206
3 206 230 231
3 206 232 207
3 207 232 233
3 207 233 209
3 209 233 144
3 234 235 236
3 236 235 237
3 236 237 238
3 238 237 239
3 238 239 240
3 240 239 241
3 240 241 242
3 242 241 243
3 242 243 244
3 244 243 245
3 244 245 246
3 246 245 247
3 246 247 248
3 248 247 249
3 248 250 251
3 251 250 252
3 251 252 221
3 221 252 253
3 254 255 256
3 256 255 257
3 256 257 258
3 258 257 259
3 258 259 260
3 260 259 261
3 260 261 262
3 262 261 263
3 264 265 266
3 266 265 267
3 266 267 268
3 268 267 269
3 268 269 270
3 270 269 271
3 270 271 272
3 272 271 273
3 272 273 274
3 274 273 275
3 276 275 277
3 277 275 278
3 277 278 279
3 279 278 280
3 235 96 237
3 237 96 281
3 237 281 239
3 239 281 282
3 239 282 241
3 241 282 283
3 241 283 243
3 243 283 284
3 243 284 245
3 245 284 285
3 245 285 247
3 247 285 286
3 247 286 249
3 249 286 287
3 250 288 252
3 252 288 289
3 252 289 253
3 253 289 290
3 255 291 257
3 257 291 292
3 257 292 259
3 259 292 293
3 259 293 261
3 261 293 294
3 261 294 263
3 263 294 295
3 265 296 267
3 267 296 297
3 267 297 269
3 269 297 298
3 269 298 271
3 271 298 299
3 271 299 273
3 273 299 300
3 273 300 275
3 275 300 301
3 275 302 278
3 278 302 303
3 278 303 280
3 280 303 304
3 96 305 281
3 281 305 306
3 281 306 282
3 282 306 307
3 282 307 283
3 283 307 308
3 283 308 284
3 284 308 309
3 284 309 285
3 285 309 310
3 285 310 286
3 286 310 311
3 286 311 287
3 287 311 312
3 288 313 289
3 289 313 314
3 289 314 290
3 290 314 315
3 291 316 292
3 292 316 317
3 292 317 293
3 293 317 318
3 293 318 294
3 294 318 319
3 294 319 295
3 295 319 320
3 296 321 297
3 297 321 322
3 297 322 298
3 298 322 323
3 298 323 299
3 299 323 324
3 299 324 300
3 300 324 325
3 300 325 301
3 301 325 326
3 302 327 303
3 303 327 328
3 303 328 304
3 304 328 329
3 185 305 330
3 330 305 331
3 330 331 332
3 332 331 333
3 332 333 308
3 308 333 334
3 308 334 309
3 309 334 335
3 309 335 336
3 336 335 337
3 336 337 311
3 311 337 338
3 311 338 312
3 312 338 339
3 313 340 314
3 314 340 341
3 314 341 315
3 315 341 342
3 316 343 317
3 317 343 344
3 317 344 318
3 318 344 345
3 318 345 346
3 346 345 347
3 346 347 348
3 348 347 349
3 350 351 322
3 322 351 352
3 322 352 323
3 323 352 353
3 323 353 324
3 324 353 354
3 324 354 355
3 355 354 356
3 355 356 326
3 326 356 357
3 326 358 359
3 359 358 360
3 359 360 209
3 209 360 304
3 305 361 331
3 331 361 362
3 331 362 333
3 333 362 363
3 333 363 334
3 334 363 364
3 334 364 335
3 335 364 365
3 335 365 337
3 337 365 366
3 337 366 338
3 338 366 367
3 338 367 339
3 339 367 368
3 340 369 341
3 341 369 370
3 341 370 342
3 342 370 371
3 343 372 344
3 344 372 373
3 344 373 345
3 345 373 374
3 345 374 347
3 347 374 375
3 347 375 349
3 349 375 376
3 351 377 352
3 352 377 378
3 352 378 353
3 353 378 379
3 353 379 354
3 354 379 380
3 354 380 356
3 356 380 381
3 356 381 357
3 357 381 382
3 358 383 360
3 360 383 384
3 360 384 304
3 304 384 208
3 361 305 362
3 362 305 385
3 362 385 363
3 363 385 386
3 363 386 364
3 364 386 387
3 364 387 365
3 365 387 388
3 365 388 366
3 366 388 389
3 366 389 367
3 367 389 390
3 367 390 368
3 368 390 391
3 369 392 370
3 370 392 393
3 370 393 371
3 371 393 394
3 372 395 373
3 373 395 396
3 373 396 374
3 374 396 397
3 374 397 375
3 375 397 398
3 375 398 376
3 376 398 399
3 377 400 378
3 378 400 401
3 378 401 379
3 379 401 402
3 379 402 380
3 380 402 403
3 380 403 381
3 381 403 404
3 381 404 382
3 382 404 405
3 383 406 384
3 384 406 407
3 384 407 208
3 208 407 48
3 305 96 385
3 385 96 408
3 385 408 386
3 386 408 409
3 386 409 387
3 387 409 410
3 387 410 388
3 388 410 411
3 388 411 389
3 389 411 412
3 389 412 390
3 390 412 413
3 390 413 391
3 391 413 414
3 392 415 393
3 393 415 416
3 393 416 394
3 394 416 417
3 395 418 396
3 396 418 419
3 396 419 397
3 397 419 420
3 397 420 398
3 398 420 421
3 398 421 399
3 399 421 422
3 400 423 401
3 401 423 424
3 401 424 402
3 402 424 425
3 402 425 403
3 403 425 426
3 403 426 404
3 404 426 427
3 404 427 405
3 405 427 428
3 406 429 407
3 407 429 430
3 407 430 48
3 48 430 208
3 431 185 432
3 432 185 433
3 432 433 434
3 434 433 435
3 434 435 436
3 436 435 437
3 436 437 438
3 438 437 439
3 438 439 440
3 440 439 441
3 440 441 442
3 442 441 443
3 442 443 444
3 444 443 445
3 444 446 447
3 447 446 448
3 447 448 449
3 449 448 450
3 451 452 453
3 453 452 454
3 453 454 455
3 455 454 456
3 455 456 457
3 457 456 458
3 457 458 459
3 459 458 460
3 461 462 463
3 463 462 464
3 463 464 465
3 465 464 466
3 465 466 467
3 467 466 468
3 467 468 469
3 469 468 470
3 469 470 471
3 471 470 472
3 473 474 475
3 475 474 476
3 475 476 477
3 477 476 304
3 185 0 433
3 433 0 478
3 433 478 435
3 435 478 479
3 435 479 437
3 437 479 480
3 437 480 439
3 439 480 481
3 439 481 441
3 441 481 482
3 441 482 443
3 443 482 483
3 443 483 445
3 445 483 484
3 446 485 448
3 448 485 486
3 448 486 450
3 450 486 487
3 452 488 454
3 454 488 489
3 454 489 456
3 456 489 490
3 456 490 458
3 458 490 491
3 458 491 460
3 460 491 492
3 462 493 464
3 464 493 494
3 464 494 466
3 466 494 495
3 466 495 468
3 468 495 496
3 468 496 470
3 470 496 497
3 470 497 472
3 472 497 498
3 474 499 476
3 476 499 500
3 476 500 304
3 304 500 48
3 0 185 478
3 478 185 501
3 478 501 479
3 479 501 502
3 479 502 480
3 480 502 503
3 480 503 481
3 481 503 504
3 481 504 482
3 482 504 505
3 482 505 483
3 483 505 506
3 483 506 484
3 484 506 507
3 485 507 486
3 486 507 508
3 486 508 487
3 487 508 509
3 488 510 489
3 489 510 511
3 489 511 490
3 490 511 512
3 490 512 491
3 491 512 513
3 491 513 492
3 492 513 514
3 493 515 494
3 494 515 516
3 494 516 495
3 495 516 517
3 495 517 496
3 496 517 518
3 496 518 497
3 497 518 519
3 497 519 498
3 498 519 520
3 499 521 500
3 500 521 522
3 500 522 48
3 501 0 523
3 501 523 502
3 502 523 524
3 502 524 503
3 503 524 525
3 503 525 504
3 504 525 526
3 504 526 505
3 505 526 527
3 505 527 506
3 506 527 528
3 506 528 507
3 507 528 529
3 507 530 508
3 508 530 531
3 508 531 509
3 509 531 532
3 510 533 511
3 511 533 534
3 511 534 512
3 512 534 535
3 512 535 513
3 513 535 536
3 513 536 514
3 514 536 537
3 515 538 516
3 516 538 539
3 516 539 517
3 517 539 540
3 517 540 518
3 518 540 541
3 518 541 519
3 519 541 542
3 519 542 520
3 520 542 543
3 521 544 522
3 522 544 545
3 522 545 208
3 523 0 546
3 523 546 524
3 524 546 547
3 524 547 525
3 525 547 548
3 525 548 526
3 526 548 549
3 526 549 527
3 527 549 550
3 527 550 528
3 528 550 551
3 528 551 529
3 529 551 552
3 530 553 531
3 531 553 554
3 531 554 532
3 532 554 555
3 533 556 534
3 534 556 557
3 534 557 535
3 535 557 558
3 535 558 536
3 536 558 559
3 536 559 537
3 537 559 560
3 538 561 539
3 539 561 562
3 539 562 540
3 540 562 563
3 540 563 541
3 541 563 564
3 541 564 542
3 542 564 565
3 542 565 543
3 543 565 566
3 544 567 545
3 545 567 568
3 545 568 48
3 48 568 279
3 0 361 546
3 546 361 569
3 546 569 547
3 547 569 570
3 547 570 548
3 548 570 571
3 548 571 549
3 549 571 572
3 549 572 550
3 550 572 573
3 550 573 551
3 551 573 574
3 551 574 552
3 552 574 575
3 553 576 554
3 554 576 577
3 554 577 555
3 555 577 578
3 556 579 557
3 557 579 580
3 557 580 558
3 558 580 581
3 558 581 559
3 559 581 582
3 559 582 560
3 560 582 583
3 561 584 562
3 562 584 585
3 562 585 563
3 563 585 586
3 563 586 564
3 564 586 587
3 564 587 565
3 565 587 588
3 565 588 566
3 566 588 589
3 567 590 568
3 568 590 591
3 568 591 279
3 279 591 209
3 96 361 592
3 592 361 593
3 592 593 570
3 570 593 594
3 570 594 595
3 595 594 596
3 595 596 597
3 597 596 598
3 597 598 599
3 599 598 600
3 599 600 601
3 601 600 602
3 601 602 603
3 603 602 604
3 605 606 577
3 577 606 607
3 577 607 608
3 608 607 609
3 579 610 611
3 611 610 612
3 611 612 613
3 613 612 614
3 613 614 615
3 615 614 616
3 615 616 617
3 617 616 618
3 584 619 620
3 620 619 621
3 620 621 586
3 586 621 622
3 586 622 623
3 623 622 624
3 623 624 625
3 625 624 626
3 625 626 627
3 627 626 628
3 629 630 631
3 631 630 632
3 631 632 304
3 304 632 209
3 361 0 593
3 593 0 2
3 593 2 594
3 594 2 4
3 594 4 596
3 596 4 6
3 596 6 598
3 598 6 8
3 598 8 600
3 600 8 10
3 600 10 602
3 602 10 12
3 602 12 604
3 604 12 14
3 606 16 607
3 607 16 18
3 607 18 609
3 609 18 20
3 610 22 612
3 612 22 24
3 612 24 614
3 614 24 26
3 614 26 616
3 616 26 28
3 616 28 618
3 618 28 30
3 619 32 621
3 621 32 34
3 621 34 622
3 622 34 36
3 622 36 624
3 624 36 38
3 624 38 626
3 626 38 40
3 626 40 628
3 628 40 42
3 630 44 632
3 632 44 46
3 632 46 209
3 209 46 48
