# vtk DataFile Version 2.0
File written by itkPolyDataMeshIO
ASCII
DATASET POLYDATA
POINTS 861 float
-66.67827 -40.061134 -159.44049
-63.569008 -38.276634 -161.05252
-66.41974 -39.65931 -158.76834
-70.725975 -39.157814 -158.25629
-70.43971 -38.766808 -157.59938
-74.76047 -37.212395 -157.48416
-74.4618 -36.857597 -156.83519
-78.87086 -34.620155 -156.99344
-78.57881 -34.296608 -156.34673
-82.761345 -31.511574 -156.34415
-82.45301 -31.216408 -155.73976
-86.73468 -27.764458 -154.95148
-86.36315 -27.538124 -154.41705
-90.717575 -24.759758 -152.3391
-90.2877 -24.616219 -151.8399
-94.929085 -21.150185 -149.72588
-94.51379 -21.043327 -149.22333
-99.066376 -16.826805 -147.3002
-98.683975 -16.735786 -146.80977
-102.60354 -11.35009 -144.61818
-102.25054 -11.316475 -144.1811
-104.13501 -5.677773 -141.86494
-103.80973 -5.752922 -141.53784
-103.2706 -0.152397 -139.97096
-102.97563 -0.288368 -139.76083
-102.10075 7.172707 -139.46866
-101.85003 7.104759 -139.27043
-102.10076 7.172707 -139.46866
-101.85003 7.104759 -139.27042
-101.0978 13.608269 -139.69739
-100.830864 13.571327 -139.48492
-100.227325 19.337852 -140.3551
-99.902336 19.306877 -140.18594
-100.22732 19.337852 -140.3551
-99.902336 19.306877 -140.18596
-99.94688 24.535591 -141.3465
-99.65425 24.538628 -141.21248
-100.11402 28.68473 -142.28842
-99.90418 28.719261 -142.15631
-100.25278 31.769218 -142.96329
-100.07044 31.80091 -142.83984
-100.25278 31.769218 -142.9633
-100.07044 31.80091 -142.83986
-99.8937 33.35766 -143.81673
-99.89371 33.357643 -143.81673
-63.569008 -38.276634 -161.05255
-66.276115 -39.343636 -158.45885
-70.279175 -38.457695 -157.29779
-74.27426 -36.57705 -156.5381
-78.37688 -34.040718 -156.05084
-82.24131 -30.982872 -155.46625
-86.11907 -27.348824 -154.17874
-86.119064 -27.348824 -154.17874
-90.02273 -24.462471 -151.61148
-94.25293 -20.91137 -148.99086
-98.43518 -16.621025 -146.584
-102.01479 -11.24601 -143.98106
-103.58931 -5.761696 -141.39545
-102.78039 -0.350105 -139.68243
-101.69169 7.068855 -139.19621
-101.69169 7.06884 -139.1962
-100.676186 13.548866 -139.40843
-99.73039 19.286491 -140.13586
-99.73039 19.286507 -140.13586
-99.485535 24.537468 -141.17018
-99.75692 28.736702 -142.10165
-99.93801 31.816948 -142.78836
-99.938 31.816963 -142.78838
-63.569008 -38.276634 -161.05254
-66.15555 -39.01316 -158.24413
-70.14322 -38.13262 -157.08914
-74.10131 -36.28202 -156.33336
-78.17896 -33.77166 -155.84705
-82.03468 -30.737267 -155.28049
-85.88693 -27.144356 -154.01993
-85.88693 -27.144356 -154.01994
-89.78054 -24.279686 -151.45389
-94.011116 -20.747704 -148.82819
-98.198975 -16.477974 -146.42696
-101.78706 -11.149101 -143.84326
-103.37459 -5.744499 -141.30478
-102.59106 -0.391426 -139.6455
-101.5373 7.039253 -139.15817
-101.53731 7.039253 -139.15817
-100.53546 13.527931 -139.36775
-99.58538 19.266823 -140.11855
-99.58538 19.266838 -140.11855
-99.330734 24.534233 -141.15591
-99.60257 28.749992 -142.07166
-99.79824 31.828743 -142.76164
-99.79824 31.828758 -142.76164
-99.8937 33.357674 -143.81674
-63.568993 -38.27662 -161.05255
-66.04733 -38.65821 -158.09164
-70.020065 -37.78283 -156.9413
-73.93228 -35.964546 -156.18904
-77.97617 -33.482155 -155.70352
-81.82359 -30.472939 -155.15248
-85.653854 -26.919289 -153.91414
-85.65385 -26.919289 -153.91414
-89.5432 -24.063286 -151.3438
-93.77016 -20.548409 -148.71242
-97.95876 -16.303215 -146.31631
-101.55202 -11.024712 -143.74757
-103.15131 -5.705132 -141.25061
-102.39349 -0.418846 -139.64026
-101.37182 7.012306 -139.14679
-101.371826 7.012306 -139.14677
-100.39322 13.506493 -139.35014
-99.44889 19.246132 -140.12315
-99.4489 19.246132 -140.12312
-99.17458 24.527367 -141.16928
-99.43227 28.757698 -142.07439
-99.64552 31.835686 -142.76463
-99.64552 31.835686 -142.76465
-65.955696 -38.299065 -158.00298
-69.91521 -37.42942 -156.85664
-73.77601 -35.643806 -156.10742
-77.77993 -33.18966 -155.62253
-81.61987 -30.205818 -155.0839
-85.43183 -26.686546 -153.86223
-85.43182 -26.686546 -153.86223
-89.32025 -23.823845 -151.28287
-93.53897 -20.322548 -148.64568
-97.72359 -16.104698 -146.25403
-101.317955 -10.878227 -143.69608
-102.92669 -5.645042 -141.23442
-102.19387 -0.431374 -139.6672
-101.19966 6.988853 -139.16295
-101.19967 6.988853 -139.16295
-100.2507 13.484779 -139.35544
-99.32195 19.224342 -140.1486
-99.321945 19.224327 -140.14859
-99.03264 24.512856 -141.22357
-99.275665 28.752296 -142.13866
-99.50175 31.833153 -142.81622
-99.50175 31.833168 -142.81622
-65.88293 -37.950066 -157.97653
-69.83226 -37.087715 -156.83578
-73.63856 -35.33367 -156.08905
-77.59834 -32.906822 -155.6046
-81.43193 -29.947548 -155.07484
-85.22995 -26.456993 -153.86353
-85.22994 -26.456993 -153.86354
-89.12082 -23.574608 -151.26994
-93.32763 -20.08326 -148.62654
-97.50401 -15.893959 -146.2387
-101.09431 -10.717278 -143.68842
-102.70826 -5.566673 -141.25645
-101.99928 -0.428505 -139.72586
-101.02785 6.969856 -139.20769
-101.027855 6.969856 -139.20767
-100.10946 13.46302 -139.38522
-99.20445 19.201683 -140.19328
-99.20445 19.201698 -140.19327
-98.91379 24.492851 -141.3056
-99.1502 28.737343 -142.24211
-99.38112 31.823204 -142.90181
-99.38111 31.823204 -142.90181
-63.569008 -38.27662 -161.05254
-65.828316 -37.613564 -158.00804
-69.770935 -36.760506 -156.87572
-73.52035 -35.03672 -156.13104
-77.43245 -32.63601 -155.64679
-81.26081 -29.700218 -155.12245
-85.05064 -26.235146 -153.91528
-88.95189 -23.327934 -151.30241
-93.146 -19.844673 -148.65231
-97.31062 -15.683342 -146.26741
-100.89093 -10.550804 -143.7219
-102.504135 -5.474037 -141.31422
-101.81693 -0.410591 -139.8145
-100.86349 6.9562 -139.28151
-99.97106 13.441338 -139.44153
-99.09548 19.178368 -140.25688
-99.09548 19.178352 -140.25688
-98.81613 24.471382 -141.39713
-99.05294 28.72013 -142.34973
-99.28497 31.810326 -142.997
-99.89369 33.35769 -143.81674
-65.789665 -37.283745 -158.09335
-69.72827 -36.44187 -156.97096
-73.417885 -34.747658 -156.22786
-77.27849 -32.372383 -155.74367
-81.10254 -29.459465 -155.22176
-84.89117 -26.019844 -154.0135
-88.815956 -23.090324 -151.3773
-92.999435 -19.615364 -148.72026
-97.149475 -15.480614 -146.33722
-100.71537 -10.386192 -143.7924
-102.32253 -5.372337 -141.4031
-101.653496 -0.378456 -139.93001
-100.7127 6.948357 -139.38312
-100.71271 6.948357 -139.38312
-99.83871 13.420143 -139.52464
-98.99566 19.154259 -140.34114
-98.99565 19.154259 -140.34114
-98.73811 24.448647 -141.49805
-98.98091 28.701363 -142.45874
-99.213005 31.795387 -143.09682
-99.213005 31.795403 -143.09682
-63.568993 -38.276634 -161.05254
-65.765816 -36.95565 -158.23187
-69.70207 -36.126945 -157.118
-73.328415 -34.462013 -156.37598
-77.13334 -32.111885 -155.89171
-80.953964 -29.221535 -155.36954
-84.74827 -25.808434 -154.15536
-88.71054 -22.860985 -151.49179
-92.88605 -19.39518 -148.82753
-97.01915 -15.285851 -146.44537
-100.57042 -10.226494 -143.89601
-102.17021 -5.266258 -141.51805
-101.51442 -0.333488 -140.06828
-100.58078 6.946739 -139.50912
-99.71802 13.40023 -139.63239
-98.907776 19.129677 -140.44637
-98.90777 19.129677 -140.44637
-98.67855 24.424782 -141.60883
-98.931145 28.68148 -142.56795
-99.163025 31.77909 -143.1981
-99.16302 31.779106 -143.19812
-65.758194 -36.63021 -158.42828
-69.69318 -35.816475 -157.3188
-73.25272 -34.180428 -156.57738
-76.99773 -31.85508 -156.09291
-80.81578 -28.986992 -155.56764
-84.62163 -25.600441 -154.34174
-84.62162 -25.600441 -154.34174
-88.63194 -22.636345 -151.64442
-92.80066 -19.179832 -148.97171
-96.91477 -15.095467 -146.58942
-100.45484 -10.071236 -144.02963
-102.050354 -5.158257 -141.6549
-101.40386 -0.277046 -140.22487
-100.47261 6.951469 -139.65565
-99.61546 13.382607 -139.76149
-98.83598 19.105446 -140.5704
-98.83598 19.10543 -140.5704
-98.63704 24.400337 -141.72803
-98.900734 28.660988 -142.67612
-99.132164 31.762062 -143.29878
-99.132164 31.762062 -143.2988
-99.89369 33.35766 -143.81673
-65.77062 -36.314278 -158.69164
-69.705086 -35.51655 -157.58057
-73.19474 -33.908424 -156.83907
-76.87576 -31.607063 -156.35419
-80.69229 -28.760475 -155.82245
-84.5146 -25.3984 -154.57707
-84.514595 -25.3984 -154.57709
-88.57909 -22.41491 -151.83574
-92.74038 -18.966637 -149.15178
-96.833374 -14.907066 -146.76831
-100.36555 -9.918678 -144.19225
-101.96183 -5.048286 -141.81117
-101.32449 -0.210518 -140.39491
-100.39206 6.962486 -139.81812
-99.53644 13.368309 -139.90765
-98.78486 19.082878 -140.70827
-98.78487 19.082893 -140.70827
-98.614265 24.376213 -141.85202
-98.887375 28.640266 -142.7818
-99.11796 31.74459 -143.39728
-99.11796 31.744606 -143.39728
-99.8937 33.357674 -143.81673
-63.569023 -38.276634 -161.05254
-65.807686 -36.018883 -159.03159
-69.741776 -35.23432 -157.91132
-73.15897 -33.652473 -157.16891
-76.772156 -31.37362 -156.68341
-80.58843 -28.547264 -156.14127
-84.43227 -25.206383 -154.86696
-84.43226 -25.206383 -154.86697
-88.5555 -22.199318 -152.06856
-92.70806 -18.757454 -149.36981
-96.777466 -14.722191 -146.98407
-100.30201 -9.768776 -144.38478
-101.90238 -4.936226 -141.9846
-101.27726 -0.135948 -140.57268
-100.3415 6.979149 -139.99092
-100.3415 6.979134 -139.99092
-99.48405 13.35778 -140.06598
-98.757904 19.063148 -140.8545
-98.61201 24.35328 -141.97754
-98.89077 28.619423 -142.88469
-99.119415 31.726738 -143.49345
-99.119415 31.726738 -143.49347
-99.8937 33.357643 -143.81673
-65.87401 -35.7595 -159.45451
-69.807274 -34.97692 -158.31905
-73.14993 -33.418755 -157.57487
-76.69168 -31.1605 -157.08847
-80.50922 -28.352592 -156.53146
-84.38031 -25.028938 -155.21748
-84.38031 -25.028938 -155.2175
-88.56723 -21.994057 -152.3474
-92.70984 -18.556557 -149.62971
-96.75288 -14.544502 -147.24031
-100.26686 -9.623161 -144.60925
-101.871056 -4.823402 -142.17264
-101.261536 -0.05674 -140.75098
-100.32212 7.000496 -140.16791
-99.46028 13.351479 -140.23117
-98.757095 19.047096 -141.00388
-98.75709 19.047081 -141.00386
-98.632126 24.331947 -142.10213
-98.91267 28.598213 -142.98563
-99.137474 31.708336 -143.58853
-99.137474 31.708336 -143.58855
-63.568993 -38.27662 -161.05254
-65.973694 -35.56463 -159.95543
-69.90782 -34.766624 -158.80785
-73.177185 -33.2275 -158.061
-76.64649 -30.986061 -157.57346
-80.46727 -28.193245 -156.9964
-84.37121 -24.878654 -155.6312
-84.3712 -24.878654 -155.6312
-88.62279 -21.806267 -152.67583
-92.75246 -18.368828 -149.93575
-96.766106 -14.378258 -147.54108
-100.265396 -9.484932 -144.86809
-101.86995 -4.712975 -142.37312
-101.27662 0.023094 -140.92278
-100.334206 7.025414 -140.34291
-100.33421 7.025414 -140.34291
-99.46609 13.349663 -140.39803
-98.782814 19.035225 -141.15161
-98.78282 19.035225 -141.15161
-98.67559 24.31234 -142.2237
-98.95511 28.576286 -143.08536
-99.17403 31.689003 -143.68353
-99.17402 31.689003 -143.68353
-99.89369 33.357674 -143.81673
-66.11437 -35.520546 -160.5023
-70.061554 -34.72213 -159.34933
-73.2809 -33.187096 -158.59851
-76.69535 -30.949211 -158.10947
-80.52297 -28.15937 -157.50584
-84.45849 -24.818672 -156.08185
-88.74224 -21.656364 -153.04924
-92.84285 -18.199242 -150.292
-96.82375 -14.227669 -147.89032
-100.303925 -9.357414 -145.16402
-101.90264 -4.607887 -142.58533
-101.32172 0.100777 -141.0833
-100.376945 7.05294 -140.51027
-100.37694 7.052956 -140.51027
-99.5011 13.352333 -140.56137
-98.834335 19.027931 -141.29315
-98.83433 19.027931 -141.29315
-98.742035 24.294899 -142.33923
-99.018555 28.553963 -143.1824
-99.23034 31.668953 -143.77704
-63.569008 -38.27662 -161.05255
-66.279724 -35.64509 -161.02336
-70.246925 -34.86657 -159.85524
-73.45024 -33.318657 -159.09923
-76.83857 -31.069206 -158.60861
-80.67584 -28.268486 -157.97601
-84.6415 -24.863625 -156.50566
-84.64151 -24.863625 -156.50566
-88.93138 -21.557564 -153.44965
-92.990326 -18.059654 -150.6973
-96.93561 -14.103065 -148.28711
-100.39072 -9.247261 -145.497
-101.97315 -4.510307 -142.81018
-101.39607 0.17585 -141.23198
-100.44882 7.082756 -140.66573
-100.448814 7.082756 -140.66573
-99.56409 13.359444 -140.71597
-98.91001 19.025475 -141.42389
-98.91001 19.025475 -141.42387
-98.8294 24.280388 -142.44432
-99.10105 28.53225 -143.2722
-99.305786 31.649117 -143.86441
-99.305786 31.649132 -143.86443
-66.44384 -35.873238 -161.46881
-70.42737 -35.10691 -160.2738
-73.6372 -33.537117 -159.5124
-77.02022 -31.268425 -159.02037
-80.867714 -28.450127 -158.36113
-84.8735 -24.988762 -156.85793
-84.87349 -24.988762 -156.85794
-89.199066 -21.590508 -153.81415
-93.23878 -18.060127 -151.07877
-97.15374 -14.100197 -148.66045
-100.55971 -9.208275 -145.8265
-102.08907 -4.428017 -143.04411
-101.49874 0.248894 -141.37001
-100.54704 7.114662 -140.80548
-99.65294 13.370644 -140.85669
-99.0075 19.027885 -141.53947
-99.00749 19.027885 -141.53947
-98.93469 24.269493 -142.53401
-99.19966 28.512459 -143.34886
-99.39817 31.63073 -143.93962
-99.39817 31.630745 -143.93964
-63.569008 -38.27665 -161.05254
-66.59385 -36.15107 -161.82841
-70.58932 -35.37809 -160.60843
-73.817245 -33.783195 -159.84218
-77.20666 -31.49282 -159.3489
-81.06383 -28.654991 -158.66655
-85.115654 -25.160164 -157.13416
-85.11565 -25.160164 -157.13416
-89.50367 -21.746223 -154.10072
-93.5504 -18.200462 -151.37868
-97.44635 -14.219856 -148.95418
-100.80299 -9.250633 -146.11092
-102.262436 -4.375237 -143.26926
-101.63061 0.317497 -141.49478
-100.66674 7.148125 -140.92595
-99.76383 13.385475 -140.97906
-99.12358 19.035133 -141.63618
-99.05443 24.262932 -142.60432
-99.31109 28.495705 -143.40776
-99.504105 31.614845 -143.99771
-99.504105 31.61486 -143.99773
-99.89371 33.35766 -143.81673
-63.569023 -38.27665 -161.0525
-66.72696 -36.459297 -162.1048
-70.58932 -35.378075 -160.60844
-70.73328 -35.670433 -160.86777
-73.81725 -33.783195 -159.84218
-73.98868 -34.048317 -160.09724
-77.206665 -31.49282 -159.3489
-77.39407 -31.734642 -159.60292
-81.260185 -28.875755 -158.90076
-85.11565 -25.160133 -157.13417
-85.35028 -25.348915 -157.34276
-89.50367 -21.746208 -154.10074
-89.78466 -21.930016 -154.31825
-93.55041 -18.200447 -151.3787
-93.84011 -18.370537 -151.6068
-97.44635 -14.219856 -148.9542
-97.72631 -14.367546 -149.17712
-100.802986 -9.250618 -146.11092
-101.07332 -9.336967 -146.33058
-102.262436 -4.375221 -143.26927
-102.49226 -4.366859 -143.4487
-101.630615 0.317497 -141.4948
-101.79153 0.376808 -141.5969
-100.802086 7.182076 -141.02303
-99.76383 13.385506 -140.97906
-99.89179 13.403313 -141.07898
-99.12358 19.035149 -141.6362
-99.25453 19.047005 -141.71089
-99.12357 19.035149 -141.6362
-99.25454 19.047005 -141.71089
-99.05442 24.262947 -142.60432
-99.18481 24.260948 -142.65256
-99.31108 28.49572 -143.40778
-99.43163 28.482597 -143.44627
-99.5041 31.614845 -143.99771
-99.61954 31.602211 -144.03557
-99.50409 31.614876 -143.99773
-99.61954 31.602211 -144.03558
-99.893715 33.357643 -143.81671
-66.72695 -36.459282 -162.10483
-66.84294 -36.784035 -162.30696
-70.73326 -35.670433 -160.86778
-70.86025 -35.976707 -161.06067
-73.98866 -34.048317 -160.09726
-74.15068 -34.326073 -160.28647
-77.39407 -31.734627 -159.60294
-77.579895 -31.987907 -159.79128
-81.26018 -28.87574 -158.90079
-81.45421 -29.107002 -159.07237
-85.35028 -25.3489 -157.34277
-85.57484 -25.548729 -157.49197
-85.57483 -25.548729 -157.49197
-89.78465 -21.930016 -154.31827
-90.03902 -22.130836 -154.47472
-93.84011 -18.370522 -151.60683
-94.10329 -18.558418 -151.77136
-97.7263 -14.367531 -149.17714
-97.98653 -14.532631 -149.33621
-101.07331 -9.336937 -146.33061
-101.346344 -9.457893 -146.47675
-102.492256 -4.366844 -143.44872
-102.74909 -4.397591 -143.56273
-101.79153 0.376823 -141.5969
-101.97581 0.426567 -141.66898
-100.948524 7.215416 -141.09326
-100.80208 7.182091 -141.02303
-100.94853 7.215416 -141.09325
-99.891785 13.403328 -141.07898
-100.031845 13.423515 -141.15323
-99.254524 19.047035 -141.71089
-99.39601 19.063179 -141.7613
-99.25453 19.04702 -141.71089
-99.1848 24.260963 -142.65256
-99.32162 24.263649 -142.67725
-99.43162 28.482613 -143.44627
-99.55736 28.473625 -143.46312
-99.61953 31.602211 -144.03558
-99.74012 31.59333 -144.0517
-99.61953 31.602226 -144.03558
-99.74012 31.59333 -144.05171
-66.942825 -37.11561 -162.44496
-70.9714 -36.29017 -161.19576
-74.30259 -34.6103 -160.41838
-77.76179 -32.24714 -159.92247
-81.64361 -29.343697 -159.18951
-85.78788 -25.75512 -157.58954
-90.26782 -22.343697 -154.57767
-94.341034 -18.759422 -151.88007
-98.225685 -14.709648 -149.44008
-101.59927 -9.592491 -146.5685
-103.00127 -4.4412 -143.63152
-102.178406 0.470573 -141.71228
-101.10446 7.247429 -141.13585
-100.17921 13.445259 -141.20068
-99.54283 19.082863 -141.78607
-99.54283 19.082878 -141.78607
-99.46044 24.270912 -142.67754
-99.68434 28.469109 -143.45758
-99.861534 31.588493 -144.04553
-99.861534 31.588493 -144.04555
-67.027695 -37.449043 -162.52649
-71.0674 -36.606743 -161.27861
-74.44404 -34.897408 -160.49852
-77.93837 -32.508995 -160.00198
-81.82703 -29.582832 -159.25755
-85.98884 -25.965004 -157.64119
-90.47241 -22.564003 -154.63426
-94.554436 -18.968681 -151.94073
-98.44393 -14.894112 -149.49654
-101.82988 -9.735008 -146.61472
-103.24642 -4.493141 -143.66068
-102.40084 0.508598 -141.72577
-101.270195 7.277794 -141.15202
-101.27019 7.277794 -141.15201
-100.3286 13.467766 -141.2222
-99.68872 19.105202 -141.7853
-99.68873 19.105217 -141.78528
-99.59661 24.282433 -142.65372
-99.808525 28.46914 -143.43008
-99.9795 31.587883 -144.01767
-99.97949 31.587898 -144.01767
-67.027695 -37.449043 -162.5265
-67.09839 -37.786583 -162.55312
-71.0674 -36.60676 -161.27861
-71.148445 -36.92913 -161.30748
-74.44404 -34.897408 -160.4985
-74.575745 -35.18981 -160.52512
-77.93837 -32.50898 -160.00195
-78.11084 -32.77561 -160.02814
-81.82703 -29.582832 -159.25754
-82.0056 -29.826332 -159.27487
-85.98884 -25.965004 -157.64117
-86.179085 -26.178734 -157.64687
-86.179085 -26.178734 -157.64688
-90.65452 -22.78846 -154.64944
-94.554436 -18.968681 -151.94072
-94.74454 -19.181877 -151.96043
-98.44393 -14.894112 -149.49652
-98.64168 -15.082237 -149.51266
-102.0388 -9.882362 -146.62187
-103.48361 -4.554832 -143.64969
-102.40085 0.508598 -141.72577
-102.64009 0.534416 -141.7008
-101.2702 7.277794 -141.15202
-101.44462 7.304588 -141.14058
-101.270195 7.277794 -141.15201
-101.44462 7.304588 -141.14056
-100.3286 13.467751 -141.2222
-100.47488 13.490242 -141.21886
-99.68872 19.105186 -141.78528
-99.82715 19.129036 -141.76051
-99.68873 19.105202 -141.78526
-99.59661 24.282417 -142.65372
-99.72515 24.2976 -142.60756
-99.92588 28.473717 -143.38162
-99.9795 31.587868 -144.01767
-100.08989 31.591393 -143.9694
-99.9795 31.587898 -144.01767
-67.09838 -37.7866 -162.5531
-67.15517 -38.1343 -162.52156
-71.14844 -36.92913 -161.30748
-71.21416 -37.263374 -161.27676
-74.69875 -35.49302 -160.49248
-78.2816 -33.0521 -159.99524
-82.18183 -30.078804 -159.23587
-86.3609 -26.399132 -157.60284
-86.36089 -26.399132 -157.60286
-90.65452 -22.78846 -154.64943
-90.81562 -23.016396 -154.6247
-94.74454 -19.181892 -151.96043
-94.912125 -19.39727 -151.94273
-98.64168 -15.082237 -149.51268
-98.81938 -15.272331 -149.49202
-102.0388 -9.882362 -146.62189
-102.22631 -10.033028 -146.59412
-103.483604 -4.554817 -143.6497
-103.701164 -4.635796 -143.58896
-102.64008 0.534431 -141.70082
-102.871 0.525658 -141.61014
-101.44462 7.304604 -141.14058
-101.61963 7.321007 -141.09297
-101.44461 7.304604 -141.14058
-101.61963 7.321007 -141.09296
-100.47488 13.490242 -141.21884
-100.614815 13.512062 -141.19138
-99.82715 19.129036 -141.7605
-99.95285 19.153175 -141.71468
-99.84104 24.31562 -142.54198
-99.92587 28.473717 -143.38162
-100.0325 28.482643 -143.31374
-100.18906 31.598839 -143.90265
-100.18905 31.59887 -143.90265
-99.89369 33.357674 -143.81674
-67.197014 -38.494774 -162.42671
-71.26361 -37.612602 -161.18135
-74.81314 -35.809868 -160.3955
-78.45162 -33.341118 -159.89815
-82.35661 -30.34269 -159.13565
-86.5349 -26.628426 -157.50468
-86.53489 -26.628426 -157.5047
-90.955734 -23.250465 -154.5566
-95.05738 -19.6175 -151.88445
-98.977646 -15.466682 -149.4318
-102.3928 -10.18734 -146.53246
-103.88586 -4.733833 -143.49004
-103.06492 0.484612 -141.47057
-101.786125 7.3274 -141.01186
-100.74831 13.533028 -141.14
-100.06312 19.176857 -141.65086
-100.06312 19.176842 -141.65086
-99.93998 24.335533 -142.46022
-100.12502 28.495567 -143.22871
-100.27394 31.609886 -143.81999
-100.27393 31.609901 -143.82
-99.8937 33.35766 -143.81674
-67.22169 -38.858376 -162.2664
-71.29473 -37.96679 -161.02147
-74.91508 -36.13125 -160.23453
-78.61565 -33.63418 -159.73727
-82.52459 -30.610329 -158.97482
-86.69622 -26.862251 -157.35217
-86.69621 -26.862251 -157.35217
-91.072845 -23.492958 -154.441
-95.180214 -19.846886 -151.77992
-99.11689 -15.668999 -149.32657
-102.5388 -10.346809 -146.43495
-104.03789 -4.839989 -143.36913
-103.22112 0.429344 -141.31317
-101.94323 7.328926 -140.90376
-101.94323 7.328941 -140.90376
-100.87657 13.553291 -141.0647
-100.15826 19.199883 -141.57108
-100.01994 24.356941 -142.36491
-100.20063 28.512108 -143.12949
-100.34212 31.624138 -143.72466
-100.34211 31.624153 -143.72466
-99.89371 33.357643 -143.81671
-67.22168 -38.858376 -162.26642
-67.22614 -39.20588 -162.04295
-71.29473 -37.96679 -161.02148
-71.30434 -38.306313 -160.80133
-74.91508 -36.13125 -160.23451
-74.99784 -36.439384 -160.01393
-78.615654 -33.63418 -159.73726
-78.76402 -33.915184 -159.5169
-82.524605 -30.610313 -158.97481
-82.67583 -30.866936 -158.7579
-86.69623 -26.862251 -157.35217
-86.83584 -27.090477 -157.14886
-86.83583 -27.090477 -157.14888
-91.07285 -23.492943 -154.441
-91.16299 -23.741295 -154.27705
-95.27884 -20.085487 -151.62628
-99.11688 -15.668983 -149.32657
-99.23565 -15.879417 -149.17352
-102.538795 -10.346809 -146.43495
-102.663635 -10.512062 -146.29878
-104.16054 -4.951012 -143.22986
-103.34617 0.368462 -141.14874
-102.09205 7.327965 -140.7693
-102.09206 7.327965 -140.7693
-100.87657 13.553307 -141.0647
-101.00013 13.572914 -140.96455
-100.15826 19.199898 -141.57106
-100.23991 19.222511 -141.47589
-100.15826 19.199883 -141.57106
-100.2399 19.222527 -141.47589
-100.08089 24.379707 -142.25798
-100.25715 28.531807 -143.01923
-100.3917 31.64103 -143.62018
-100.3917 31.64103 -143.6202
-67.22616 -39.205894 -162.04295
-67.20817 -39.51673 -161.76234
-71.304344 -38.30636 -160.80132
-71.28959 -38.61071 -160.52672
-74.997856 -36.4394 -160.01392
-75.05481 -36.715645 -159.73956
-78.76403 -33.9152 -159.5169
-78.88675 -34.16712 -159.24301
-82.67583 -30.866951 -158.7579
-82.80001 -31.097054 -158.49097
-86.83585 -27.090492 -157.14886
-86.94418 -27.300652 -156.90074
-86.944176 -27.300652 -156.90074
-91.162994 -23.74131 -154.27704
-91.22062 -23.985435 -154.06897
-95.27885 -20.085503 -151.62627
-95.348465 -20.3247 -151.42728
-99.235664 -15.879448 -149.17351
-99.32871 -16.090645 -148.9761
-102.663635 -10.512093 -146.29878
-102.76414 -10.680092 -146.12398
-104.160545 -4.951042 -143.22984
-104.25495 -5.067177 -143.06993
-103.34618 0.368431 -141.14871
-103.44272 0.302773 -140.97635
-102.09206 7.32795 -140.76929
-102.2308 7.324318 -140.60518
-102.2308 7.324318 -140.60516
-101.00014 13.572884 -140.96454
-101.11705 13.59153 -140.83708
-100.239914 19.222496 -141.47588
-100.30903 19.244865 -141.36461
-100.23991 19.222496 -141.47588
-100.080894 24.379677 -142.25797
-100.12371 24.403542 -142.14153
-100.25716 28.531776 -143.01921
-100.29367 28.553719 -142.90237
-100.39171 31.641014 -143.62015
-100.422035 31.659645 -143.51129
-100.3917 31.641014 -143.62016
-100.422035 31.659645 -143.5113
-99.8937 33.35766 -143.81671
-67.16737 -39.77561 -161.43373
-71.24962 -38.86503 -160.20576
-75.08199 -36.946434 -159.4196
-78.97712 -34.37757 -158.92368
-82.89026 -31.289375 -158.18211
-87.0145 -27.481865 -156.61583
-91.24015 -24.211311 -153.82454
-95.38241 -20.550423 -151.19075
-99.38847 -16.290337 -148.74191
-102.83489 -10.84362 -145.91473
-104.32071 -5.186333 -142.89003
-103.50186 0.232094 -140.79474
-102.32413 7.313316 -140.40575
-101.20961 13.606728 -140.67818
-100.36404 19.266716 -141.23613
-100.364044 19.266731 -141.23613
-100.14859 24.427849 -142.01846
-100.31034 28.576683 -142.78502
-100.433655 31.678947 -143.40372
-100.433655 31.678947 -143.40373
-99.8937 33.357643 -143.81671
-67.10508 -39.97323 -161.06845
-71.18562 -39.060402 -159.84903
-75.07828 -37.12377 -159.06451
-79.0319 -34.539314 -158.56938
-82.94339 -31.437202 -157.84146
-87.043564 -27.626625 -156.30365
-91.21791 -24.406578 -153.55232
-95.375336 -20.749413 -150.92523
-99.40854 -16.466911 -148.4795
-102.87014 -10.99395 -145.67863
-104.35586 -5.303719 -142.69484
-103.518234 0.157463 -140.61075
-102.34861 7.292763 -140.18707
-102.34861 7.292763 -140.18706
-101.26496 13.617073 -140.49306
-100.40175 19.287575 -141.08968
-100.40176 19.28759 -141.08968
-100.15444 24.451698 -141.89185
-100.307686 28.59945 -142.67308
-100.42795 31.697914 -143.30249
-100.42794 31.697914 -143.3025
-67.10509 -39.97326 -161.06842
-67.02321 -40.10311 -160.67815
-71.18563 -39.060432 -159.84901
-71.0994 -39.190178 -159.4676
-75.078285 -37.123787 -159.06448
-75.04352 -37.2416 -158.68535
-79.0319 -34.539314 -158.56935
-79.04903 -34.64675 -158.19115
-82.9434 -31.437202 -157.84145
-82.95739 -31.535454 -157.47961
-87.043564 -27.626625 -156.30363
-87.029854 -27.729576 -155.97406
-87.043564 -27.62664 -156.30363
-87.02985 -27.729576 -155.97406
-91.21792 -24.406593 -153.5523
-91.15319 -24.562645 -153.26123
-95.375336 -20.749458 -150.92522
-95.32548 -20.912712 -150.6396
-99.40855 -16.466942 -148.47949
-99.38608 -16.612297 -148.19781
-102.87015 -10.993965 -145.67862
-102.86575 -11.123558 -145.4247
-104.355865 -5.303719 -142.69482
-104.35756 -5.413918 -142.49107
-103.518234 0.157463 -140.61073
-103.50221 0.082039 -140.43645
-102.348625 7.292747 -140.18706
-102.33224 7.267952 -139.98088
-102.332245 7.267967 -139.98088
-101.26498 13.617058 -140.49304
-101.29273 13.624535 -140.2939
-100.401764 19.28756 -141.08968
-100.41894 19.306984 -140.92453
-100.418945 19.306969 -140.92453
-100.15445 24.451683 -141.89183
-100.13964 24.47448 -141.7631
-100.307686 28.599419 -142.67307
-100.286285 28.6213 -142.56966
-100.427956 31.697899 -143.30249
-100.40649 31.716087 -143.20995
-100.427956 31.697899 -143.3025
-100.40649 31.716103 -143.20996
-99.89369 33.35766 -143.81674
-63.569008 -38.27665 -161.05252
-67.023224 -40.103127 -160.67815
-66.91111 -40.159874 -160.22737
-71.09942 -39.190193 -159.46759
-70.979256 -39.248924 -159.02657
-75.043526 -37.241615 -158.68533
-74.967865 -37.294945 -158.24754
-79.049034 -34.646767 -158.19113
-79.02108 -34.695427 -157.75453
-82.9574 -31.535454 -157.4796
-82.92418 -31.58007 -157.06406
-87.029854 -27.729576 -155.97404
-86.962395 -27.78872 -155.59795
-86.962395 -27.78872 -155.59796
-91.1532 -24.56266 -153.26123
-91.031425 -24.682152 -152.92519
-95.32549 -20.912727 -150.6396
-95.21936 -21.044212 -150.30804
-99.386086 -16.612312 -148.1978
-99.30954 -16.730034 -147.87154
-102.86575 -11.123573 -145.42468
-102.81026 -11.235832 -145.13098
-104.35756 -5.413933 -142.49106
-104.31439 -5.523033 -142.26079
-103.50222 0.082024 -140.43643
-103.44865 -0.002174 -140.25658
-102.332245 7.267952 -139.98087
-102.278046 7.236916 -139.7736
-102.27805 7.236916 -139.7736
-101.29274 13.624519 -140.29388
-101.27726 13.626991 -140.0621
-100.418945 19.306969 -140.92451
-100.397255 19.324333 -140.71991
-100.41895 19.306969 -140.92453
-100.39726 19.324333 -140.71991
-100.13965 24.474464 -141.76309
-100.09508 24.498116 -141.61588
-100.28629 28.621254 -142.56966
-100.24058 28.64457 -142.46324
-100.40649 31.716087 -143.20996
-100.36474 31.735497 -143.1157
-100.36473 31.735512 -143.11572
-99.89369 33.357643 -143.81673
POLYGONS 1241 4964
3 0 1 2
3 0 2 3
3 3 2 4
3 3 4 5
3 5 4 6
3 5 6 7
3 7 6 8
3 7 8 9
3 9 8 10
3 9 10 11
3 11 10 12
3 11 12 13
3 13 12 14
3 13 14 15
3 15 14 16
3 15 16 17
3 17 16 18
3 17 18 19
3 19 18 20
3 19 20 21
3 21 20 22
3 21 22 23
3 23 22 24
3 23 24 25
3 25 24 26
3 27 28 29
3 29 28 30
3 29 30 31
3 31 30 32
3 33 34 35
3 35 34 36
3 35 36 37
3 37 36 38
3 37 38 39
3 39 38 40
3 41 42 43
3 43 42 44
3 1 45 2
3 2 45 46
3 2 46 4
3 4 46 47
3 4 47 6
3 6 47 48
3 6 48 8
3 8 48 49
3 8 49 10
3 10 49 50
3 10 50 12
3 12 50 51
3 12 52 14
3 14 52 53
3 14 53 16
3 16 53 54
3 16 54 18
3 18 54 55
3 18 55 20
3 20 55 56
3 20 56 22
3 22 56 57
3 22 57 24
3 24 57 58
3 24 58 26
3 26 58 59
3 28 60 30
3 30 60 61
3 30 61 32
3 32 61 62
3 34 63 36
3 36 63 64
3 36 64 38
3 38 64 65
3 38 65 40
3 40 65 66
3 42 67 44
3 44 67 43
3 45 68 46
3 46 68 69
3 46 69 47
3 47 69 70
3 47 70 48
3 48 70 71
3 48 71 49
3 49 71 72
3 49 72 50
3 50 72 73
3 50 73 51
3 51 73 74
3 52 75 53
3 53 75 76
3 53 76 54
3 54 76 77
3 54 77 55
3 55 77 78
3 55 78 56
3 56 78 79
3 56 79 57
3 57 79 80
3 57 80 58
3 58 80 81
3 58 81 59
3 59 81 82
3 60 83 61
3 61 83 84
3 61 84 62
3 62 84 85
3 63 86 64
3 64 86 87
3 64 87 65
3 65 87 88
3 65 88 66
3 66 88 89
3 67 90 43
3 43 90 91
3 68 92 69
3 69 92 93
3 69 93 70
3 70 93 94
3 70 94 71
3 71 94 95
3 71 95 72
3 72 95 96
3 72 96 73
3 73 96 97
3 73 97 74
3 74 97 98
3 75 99 76
3 76 99 100
3 76 100 77
3 77 100 101
3 77 101 78
3 78 101 102
3 78 102 79
3 79 102 103
3 79 103 80
3 80 103 104
3 80 104 81
3 81 104 105
3 81 105 82
3 82 105 106
3 83 107 84
3 84 107 108
3 84 108 85
3 85 108 109
3 86 110 87
3 87 110 111
3 87 111 88
3 88 111 112
3 88 112 89
3 89 112 113
3 90 114 91
3 92 68 93
3 93 68 115
3 93 115 94
3 94 115 116
3 94 116 95
3 95 116 117
3 95 117 96
3 96 117 118
3 96 118 97
3 97 118 119
3 97 119 98
3 98 119 120
3 99 121 100
3 100 121 122
3 100 122 101
3 101 122 123
3 101 123 102
3 102 123 124
3 102 124 103
3 103 124 125
3 103 125 104
3 104 125 126
3 104 126 105
3 105 126 127
3 105 127 106
3 106 127 128
3 107 129 108
3 108 129 130
3 108 130 109
3 109 130 131
3 110 132 111
3 111 132 133
3 111 133 112
3 112 133 134
3 112 134 113
3 113 134 135
3 114 136 91
3 115 68 137
3 115 137 116
3 116 137 138
3 116 138 117
3 117 138 139
3 117 139 118
3 118 139 140
3 118 140 119
3 119 140 141
3 119 141 120
3 120 141 142
3 121 143 122
3 122 143 144
3 122 144 123
3 123 144 145
3 123 145 124
3 124 145 146
3 124 146 125
3 125 146 147
3 125 147 126
3 126 147 148
3 126 148 127
3 127 148 149
3 127 149 128
3 128 149 150
3 129 151 130
3 130 151 152
3 130 152 131
3 131 152 153
3 132 154 133
3 133 154 155
3 133 155 134
3 134 155 156
3 134 156 135
3 135 156 157
3 136 158 91
3 91 158 44
3 68 159 137
3 137 159 160
3 137 160 138
3 138 160 161
3 138 161 139
3 139 161 162
3 139 162 140
3 140 162 163
3 140 163 141
3 141 163 164
3 141 164 142
3 142 164 165
3 143 165 144
3 144 165 166
3 144 166 145
3 145 166 167
3 145 167 146
3 146 167 168
3 146 168 147
3 147 168 169
3 147 169 148
3 148 169 170
3 148 170 149
3 149 170 171
3 149 171 150
3 150 171 172
3 151 172 152
3 152 172 173
3 152 173 153
3 153 173 174
3 154 175 155
3 155 175 176
3 155 176 156
3 156 176 177
3 156 177 157
3 157 177 178
3 158 178 44
3 44 178 179
3 159 92 160
3 160 92 180
3 160 180 161
3 161 180 181
3 161 181 162
3 162 181 182
3 162 182 163
3 163 182 183
3 163 183 164
3 164 183 184
3 164 184 165
3 165 184 185
3 165 185 166
3 166 185 186
3 166 186 167
3 167 186 187
3 167 187 168
3 168 187 188
3 168 188 169
3 169 188 189
3 169 189 170
3 170 189 190
3 170 190 171
3 171 190 191
3 171 191 172
3 172 191 192
3 172 193 173
3 173 193 194
3 173 194 174
3 174 194 195
3 175 196 176
3 176 196 197
3 176 197 177
3 177 197 198
3 177 198 178
3 178 198 199
3 178 200 179
3 179 200 91
3 92 201 180
3 180 201 202
3 180 202 181
3 181 202 203
3 181 203 182
3 182 203 204
3 182 204 183
3 183 204 205
3 183 205 184
3 184 205 206
3 184 206 185
3 185 206 207
3 185 207 186
3 186 207 208
3 186 208 187
3 187 208 209
3 187 209 188
3 188 209 210
3 188 210 189
3 189 210 211
3 189 211 190
3 190 211 212
3 190 212 191
3 191 212 213
3 191 213 192
3 192 213 214
3 193 214 194
3 194 214 215
3 194 215 195
3 195 215 216
3 196 217 197
3 197 217 218
3 197 218 198
3 198 218 219
3 198 219 199
3 199 219 220
3 200 221 91
3 91 221 43
3 201 68 202
3 202 68 222
3 202 222 203
3 203 222 223
3 203 223 204
3 204 223 224
3 204 224 205
3 205 224 225
3 205 225 206
3 206 225 226
3 206 226 207
3 207 226 227
3 207 228 208
3 208 228 229
3 208 229 209
3 209 229 230
3 209 230 210
3 210 230 231
3 210 231 211
3 211 231 232
3 211 232 212
3 212 232 233
3 212 233 213
3 213 233 234
3 213 234 214
3 214 234 235
3 214 235 215
3 215 235 236
3 215 236 216
3 216 236 237
3 217 238 218
3 218 238 239
3 218 239 219
3 219 239 240
3 219 240 220
3 220 240 241
3 221 242 43
3 43 242 243
3 222 68 244
3 222 244 223
3 223 244 245
3 223 245 224
3 224 245 246
3 224 246 225
3 225 246 247
3 225 247 226
3 226 247 248
3 226 248 227
3 227 248 249
3 228 250 229
3 229 250 251
3 229 251 230
3 230 251 252
3 230 252 231
3 231 252 253
3 231 253 232
3 232 253 254
3 232 254 233
3 233 254 255
3 233 255 234
3 234 255 256
3 234 256 235
3 235 256 257
3 235 257 236
3 236 257 258
3 236 258 237
3 237 258 259
3 238 260 239
3 239 260 261
3 239 261 240
3 240 261 262
3 240 262 241
3 241 262 263
3 242 264 243
3 243 264 265
3 68 266 244
3 244 266 267
3 244 267 245
3 245 267 268
3 245 268 246
3 246 268 269
3 246 269 247
3 247 269 270
3 247 270 248
3 248 270 271
3 248 271 249
3 249 271 272
3 250 273 251
3 251 273 274
3 251 274 252
3 252 274 275
3 252 275 253
3 253 275 276
3 253 276 254
3 254 276 277
3 254 277 255
3 255 277 278
3 255 278 256
3 256 278 279
3 256 279 257
3 257 279 280
3 257 281 258
3 258 281 282
3 258 282 259
3 259 282 283
3 260 283 261
3 261 283 284
3 261 284 262
3 262 284 285
3 262 285 263
3 263 285 286
3 264 287 265
3 265 287 288
3 266 68 267
3 267 68 289
3 267 289 268
3 268 289 290
3 268 290 269
3 269 290 291
3 269 291 270
3 270 291 292
3 270 292 271
3 271 292 293
3 271 293 272
3 272 293 294
3 273 295 274
3 274 295 296
3 274 296 275
3 275 296 297
3 275 297 276
3 276 297 298
3 276 298 277
3 277 298 299
3 277 299 278
3 278 299 300
3 278 300 279
3 279 300 301
3 279 301 280
3 280 301 302
3 281 302 282
3 282 302 303
3 282 303 283
3 283 303 304
3 283 305 284
3 284 305 306
3 284 306 285
3 285 306 307
3 285 307 286
3 286 307 308
3 287 309 288
3 288 309 265
3 68 310 289
3 289 310 311
3 289 311 290
3 290 311 312
3 290 312 291
3 291 312 313
3 291 313 292
3 292 313 314
3 292 314 293
3 293 314 315
3 293 315 294
3 294 315 316
3 295 317 296
3 296 317 318
3 296 318 297
3 297 318 319
3 297 319 298
3 298 319 320
3 298 320 299
3 299 320 321
3 299 321 300
3 300 321 322
3 300 322 301
3 301 322 323
3 301 323 302
3 302 323 324
3 302 325 303
3 303 325 326
3 303 326 304
3 304 326 327
3 305 328 306
3 306 328 329
3 306 329 307
3 307 329 330
3 307 330 308
3 308 330 331
3 309 332 265
3 265 332 333
3 310 68 311
3 311 68 334
3 311 334 312
3 312 334 335
3 312 335 313
3 313 335 336
3 313 336 314
3 314 336 337
3 314 337 315
3 315 337 338
3 315 338 316
3 316 338 339
3 317 339 318
3 318 339 340
3 318 340 319
3 319 340 341
3 319 341 320
3 320 341 342
3 320 342 321
3 321 342 343
3 321 343 322
3 322 343 344
3 322 344 323
3 323 344 345
3 323 345 324
3 324 345 346
3 325 347 326
3 326 347 348
3 326 348 327
3 327 348 349
3 328 350 329
3 329 350 351
3 329 351 330
3 330 351 352
3 330 352 331
3 331 352 353
3 332 353 333
3 333 353 43
3 68 354 334
3 334 354 355
3 334 355 335
3 335 355 356
3 335 356 336
3 336 356 357
3 336 357 337
3 337 357 358
3 337 358 338
3 338 358 359
3 338 359 339
3 339 359 360
3 339 361 340
3 340 361 362
3 340 362 341
3 341 362 363
3 341 363 342
3 342 363 364
3 342 364 343
3 343 364 365
3 343 365 344
3 344 365 366
3 344 366 345
3 345 366 367
3 345 367 346
3 346 367 368
3 347 369 348
3 348 369 370
3 348 370 349
3 349 370 371
3 350 372 351
3 351 372 373
3 351 373 352
3 352 373 374
3 352 374 353
3 353 374 375
3 353 376 43
3 43 376 333
3 354 68 355
3 355 68 377
3 355 377 356
3 356 377 378
3 356 378 357
3 357 378 379
3 357 379 358
3 358 379 380
3 358 380 359
3 359 380 381
3 359 381 360
3 360 381 382
3 361 383 362
3 362 383 384
3 362 384 363
3 363 384 385
3 363 385 364
3 364 385 386
3 364 386 365
3 365 386 387
3 365 387 366
3 366 387 388
3 366 388 367
3 367 388 389
3 367 389 368
3 368 389 390
3 369 390 370
3 370 390 391
3 370 391 371
3 371 391 392
3 372 393 373
3 373 393 394
3 373 394 374
3 374 394 395
3 374 395 375
3 375 395 396
3 376 397 333
3 377 398 399
3 377 399 378
3 378 399 400
3 378 400 379
3 379 400 401
3 379 401 380
3 380 401 402
3 380 402 381
3 381 402 403
3 381 403 382
3 382 403 404
3 383 405 384
3 384 405 406
3 384 406 385
3 385 406 407
3 385 407 386
3 386 407 408
3 386 408 387
3 387 408 409
3 387 409 388
3 388 409 410
3 388 410 389
3 389 410 411
3 389 411 390
3 390 411 412
3 390 412 391
3 391 412 413
3 391 413 392
3 392 413 414
3 393 414 394
3 394 414 415
3 394 415 395
3 395 415 416
3 395 416 396
3 396 416 417
3 397 418 43
3 43 418 419
3 68 420 399
3 399 420 421
3 399 421 422
3 422 421 423
3 422 423 424
3 424 423 425
3 424 425 426
3 426 425 427
3 426 427 403
3 403 427 428
3 403 428 429
3 429 428 430
3 429 430 431
3 431 430 432
3 431 432 433
3 433 432 434
3 433 434 435
3 435 434 436
3 435 436 437
3 437 436 438
3 437 438 439
3 439 438 440
3 439 440 441
3 441 440 442
3 441 442 412
3 412 442 443
3 412 443 444
3 444 443 445
3 444 445 446
3 446 445 447
3 448 449 450
3 450 449 451
3 450 451 452
3 452 451 453
3 452 453 454
3 454 453 455
3 456 457 43
3 43 457 458
3 68 1 459
3 459 1 460
3 459 460 461
3 461 460 462
3 461 462 463
3 463 462 464
3 463 464 465
3 465 464 466
3 465 466 467
3 467 466 468
3 467 468 469
3 469 468 470
3 469 471 472
3 472 471 473
3 472 473 474
3 474 473 475
3 474 475 476
3 476 475 477
3 476 477 478
3 478 477 479
3 478 479 480
3 480 479 481
3 480 481 482
3 482 481 483
3 482 483 443
3 443 483 484
3 485 486 487
3 487 486 488
3 487 488 489
3 489 488 490
3 491 490 492
3 492 490 493
3 492 493 494
3 494 493 495
3 494 495 496
3 496 495 497
3 498 499 419
3 419 499 243
3 1 354 460
3 460 354 500
3 460 500 462
3 462 500 501
3 462 501 464
3 464 501 502
3 464 502 466
3 466 502 503
3 466 503 468
3 468 503 504
3 468 504 470
3 470 504 505
3 471 505 473
3 473 505 506
3 473 506 475
3 475 506 507
3 475 507 477
3 477 507 508
3 477 508 479
3 479 508 509
3 479 509 481
3 481 509 510
3 481 510 483
3 483 510 511
3 483 511 484
3 484 511 512
3 486 512 488
3 488 512 513
3 488 513 490
3 490 513 514
3 490 515 493
3 493 515 516
3 493 516 495
3 495 516 517
3 495 517 497
3 497 517 518
3 499 519 243
3 243 519 43
3 354 159 500
3 500 159 520
3 500 520 501
3 501 520 521
3 501 521 502
3 502 521 522
3 502 522 503
3 503 522 523
3 503 523 504
3 504 523 524
3 504 524 505
3 505 524 525
3 505 525 506
3 506 525 526
3 506 526 507
3 507 526 527
3 507 527 508
3 508 527 528
3 508 528 509
3 509 528 529
3 509 529 510
3 510 529 530
3 510 530 511
3 511 530 531
3 511 531 512
3 512 531 532
3 512 533 513
3 513 533 534
3 513 534 514
3 514 534 535
3 515 536 516
3 516 536 537
3 516 537 517
3 517 537 538
3 517 538 518
3 518 538 539
3 519 540 43
3 541 68 542
3 541 542 543
3 543 542 544
3 543 544 545
3 545 544 546
3 545 546 547
3 547 546 548
3 547 548 549
3 549 548 550
3 549 550 551
3 551 550 552
3 551 553 526
3 526 553 554
3 526 554 555
3 555 554 556
3 555 556 557
3 557 556 558
3 557 558 529
3 529 558 559
3 529 559 530
3 530 559 560
3 530 560 561
3 561 560 562
3 561 562 563
3 563 562 564
3 565 566 567
3 567 566 568
3 567 568 569
3 569 568 570
3 571 570 572
3 572 570 573
3 572 573 538
3 538 573 574
3 538 574 575
3 575 574 576
3 577 576 43
3 159 310 578
3 578 310 579
3 578 579 580
3 580 579 581
3 580 581 546
3 546 581 582
3 546 582 548
3 548 582 583
3 548 583 550
3 550 583 584
3 550 584 553
3 553 584 585
3 553 586 587
3 587 586 588
3 587 588 589
3 589 588 590
3 589 590 591
3 591 590 592
3 591 592 593
3 593 592 594
3 593 594 595
3 595 594 596
3 595 596 597
3 597 596 598
3 597 598 599
3 599 598 600
3 601 602 603
3 603 602 604
3 603 604 605
3 605 604 606
3 605 606 573
3 573 606 607
3 573 607 608
3 608 607 609
3 608 609 576
3 576 609 610
3 576 611 43
3 43 611 612
3 310 45 579
3 579 45 613
3 579 613 581
3 581 613 614
3 581 614 582
3 582 614 615
3 582 615 583
3 583 615 616
3 583 616 584
3 584 616 617
3 584 617 585
3 585 617 618
3 586 619 588
3 588 619 620
3 588 620 590
3 590 620 621
3 590 621 592
3 592 621 622
3 592 622 594
3 594 622 623
3 594 623 596
3 596 623 624
3 596 624 598
3 598 624 625
3 598 625 600
3 600 625 626
3 602 626 604
3 604 626 627
3 604 627 606
3 606 627 628
3 606 629 607
3 607 629 630
3 607 630 609
3 609 630 631
3 609 631 610
3 610 631 632
3 611 633 612
3 612 633 634
3 45 266 613
3 613 266 635
3 613 635 614
3 614 635 636
3 614 636 615
3 615 636 637
3 615 637 616
3 616 637 638
3 616 638 617
3 617 638 639
3 617 639 618
3 618 639 640
3 619 641 620
3 620 641 642
3 620 642 621
3 621 642 643
3 621 643 622
3 622 643 644
3 622 644 623
3 623 644 645
3 623 645 624
3 624 645 646
3 624 646 625
3 625 646 647
3 625 647 626
3 626 647 648
3 626 649 627
3 627 649 650
3 627 650 628
3 628 650 651
3 629 651 630
3 630 651 652
3 630 652 631
3 631 652 653
3 631 653 632
3 632 653 654
3 633 655 634
3 634 655 656
3 657 68 658
3 657 658 659
3 659 658 660
3 659 660 661
3 661 660 662
3 661 662 663
3 663 662 664
3 663 664 665
3 665 664 666
3 665 666 667
3 667 666 668
3 640 669 670
3 670 669 671
3 670 671 643
3 643 671 672
3 643 672 673
3 673 672 674
3 673 674 675
3 675 674 676
3 675 676 646
3 646 676 677
3 646 677 647
3 647 677 678
3 647 678 649
3 649 678 679
3 649 680 681
3 681 680 682
3 681 682 683
3 683 682 684
3 685 686 652
3 652 686 687
3 652 687 653
3 653 687 688
3 653 688 654
3 654 688 689
3 655 690 43
3 1 68 691
3 691 68 692
3 691 692 693
3 693 692 694
3 693 694 695
3 695 694 696
3 695 696 697
3 697 696 698
3 697 698 699
3 699 698 700
3 699 700 701
3 701 700 702
3 701 703 704
3 704 703 705
3 704 705 706
3 706 705 707
3 706 707 708
3 708 707 709
3 708 709 710
3 710 709 711
3 710 711 712
3 712 711 713
3 712 713 714
3 714 713 715
3 714 715 716
3 716 715 717
3 716 718 719
3 719 718 720
3 719 720 721
3 721 720 722
3 723 722 724
3 724 722 725
3 724 725 726
3 726 725 727
3 726 727 728
3 728 727 729
3 730 731 732
3 732 731 43
3 68 398 692
3 692 398 733
3 692 733 694
3 694 733 734
3 694 734 696
3 696 734 735
3 696 735 698
3 698 735 736
3 698 736 700
3 700 736 737
3 700 737 702
3 702 737 738
3 703 738 705
3 705 738 739
3 705 739 707
3 707 739 740
3 707 740 709
3 709 740 741
3 709 741 711
3 711 741 742
3 711 742 713
3 713 742 743
3 713 743 715
3 715 743 744
3 715 744 717
3 717 744 745
3 718 745 720
3 720 745 746
3 720 746 722
3 722 746 747
3 722 748 725
3 725 748 749
3 725 749 727
3 727 749 750
3 727 750 729
3 729 750 751
3 731 752 43
3 43 752 753
3 398 68 733
3 733 68 754
3 733 754 734
3 734 754 755
3 734 755 735
3 735 755 756
3 735 756 736
3 736 756 757
3 736 757 737
3 737 757 758
3 737 758 738
3 738 758 759
3 738 759 739
3 739 759 760
3 739 760 740
3 740 760 761
3 740 761 741
3 741 761 762
3 741 762 742
3 742 762 763
3 742 763 743
3 743 763 764
3 743 764 744
3 744 764 765
3 744 765 745
3 745 765 766
3 745 767 746
3 746 767 768
3 746 768 747
3 747 768 769
3 748 770 749
3 749 770 771
3 749 771 750
3 750 771 772
3 750 772 751
3 751 772 773
3 752 774 753
3 753 774 419
3 420 310 775
3 775 310 776
3 775 776 777
3 777 776 778
3 777 778 779
3 779 778 780
3 779 780 781
3 781 780 782
3 781 782 783
3 783 782 784
3 783 784 785
3 785 784 786
3 787 788 789
3 789 788 790
3 789 790 791
3 791 790 792
3 791 792 793
3 793 792 794
3 793 794 795
3 795 794 796
3 795 796 797
3 797 796 798
3 797 798 799
3 799 798 800
3 799 800 801
3 801 800 802
3 801 803 804
3 804 803 805
3 804 805 806
3 806 805 807
3 806 808 809
3 809 808 810
3 809 810 811
3 811 810 812
3 811 812 813
3 813 812 814
3 815 816 458
3 458 816 817
3 266 818 819
3 819 818 820
3 819 820 821
3 821 820 822
3 821 822 823
3 823 822 824
3 823 824 825
3 825 824 826
3 825 826 827
3 827 826 828
3 827 828 829
3 829 828 830
3 829 831 832
3 832 831 833
3 832 833 834
3 834 833 835
3 834 835 836
3 836 835 837
3 836 837 838
3 838 837 839
3 838 839 840
3 840 839 841
3 840 841 842
3 842 841 843
3 842 843 844
3 844 843 845
3 844 846 847
3 847 846 848
3 847 848 849
3 849 848 850
3 851 852 853
3 853 852 854
3 853 854 855
3 855 854 856
3 855 856 857
3 857 856 858
3 857 859 860
3 860 859 43
3 818 68 820
3 820 68 0
3 820 0 822
3 822 0 3
3 822 3 824
3 824 3 5
3 824 5 826
3 826 5 7
3 826 7 828
3 828 7 9
3 828 9 830
3 830 9 11
3 831 11 833
3 833 11 13
3 833 13 835
3 835 13 15
3 835 15 837
3 837 15 17
3 837 17 839
3 839 17 19
3 839 19 841
3 841 19 21
3 841 21 843
3 843 21 23
3 843 23 845
3 845 23 25
3 846 27 848
3 848 27 29
3 848 29 850
3 850 29 31
3 852 33 854
3 854 33 35
3 854 35 856
3 856 35 37
3 856 37 858
3 858 37 39
3 859 41 43
