# vtk DataFile Version 2.0
File written by itkPolyDataMeshIO
ASCII
DATASET POLYDATA
POINTS 638 float
-19.815346 -8.015831 332.13733
-26.055794 -6.674141 335.71338
-20.328957 -9.022087 332.53204
-11.759651 -13.045448 334.97937
-12.410637 -14.398476 335.55862
-5.462822 -16.983223 338.92773
-6.015282 -18.338066 339.5594
0.180153 -18.081398 341.3642
-0.106972 -19.41883 342.09003
7.025536 -17.737846 344.35846
7.039879 -19.007454 345.23962
13.784035 -16.637047 348.60272
13.848381 -17.83088 349.58176
19.597603 -15.693047 353.31375
19.499947 -16.85897 354.2108
19.597603 -15.693031 353.31372
19.499931 -16.85897 354.21082
24.961632 -15.400459 358.30164
24.681694 -16.446068 359.0027
29.615242 -15.758614 363.05212
29.185036 -16.737648 363.68988
29.615273 -15.758598 363.05215
29.185036 -16.737633 363.6899
33.73266 -16.52224 367.6655
33.246727 -17.606544 368.2532
37.566475 -17.466927 371.6781
37.144264 -18.689842 372.23624
41.291725 -18.253822 374.4371
41.076653 -19.52076 375.08948
45.275185 -18.392097 375.98517
45.40412 -19.657661 376.73572
45.2752 -18.392082 375.9852
45.404152 -19.657646 376.73575
49.85871 -17.725594 376.43216
50.28115 -18.956383 377.19827
55.24958 -16.715187 376.23254
55.77659 -17.92765 376.9853
60.905495 -15.739281 375.82523
61.30816 -16.902061 376.55276
65.67269 -15.031105 375.01395
65.95818 -16.137413 375.70792
69.93511 -14.577919 373.4385
70.31753 -15.664589 374.07285
69.93514 -14.577934 373.43857
70.31756 -15.664589 374.07288
74.06936 -13.677254 372.7228
74.46795 -14.474419 373.14124
76.48382 -11.854546 374.71338
76.48382 -11.854561 374.71338
-26.055794 -6.674156 335.71338
-20.955696 -9.868416 333.20126
-13.235832 -15.567009 336.53665
-6.753044 -19.493217 340.5623
-0.604622 -20.584938 343.19907
6.789864 -20.176826 346.53525
13.622643 -18.908058 350.88156
19.12606 -17.876762 355.34097
19.12603 -17.876778 355.34094
24.121666 -17.341988 359.91043
28.534416 -17.611046 364.5283
28.534431 -17.61103 364.5283
32.577843 -18.58242 369.0474
36.543205 -19.759727 373.0278
40.70939 -20.61425 376.01212
45.40087 -20.740639 377.783
45.400887 -20.740623 377.78305
50.58947 -19.994347 378.27347
56.2201 -18.952217 378.05518
61.659477 -17.88276 377.59186
66.21633 -17.05178 376.70547
70.692314 -16.539116 375.00937
74.872826 -15.106682 373.7819
76.48382 -11.854561 374.71335
-26.055809 -6.674141 335.71338
-21.633873 -10.441368 334.07736
-14.163048 -16.336906 337.73618
-7.611595 -20.258156 341.78415
-1.250389 -21.379265 344.51315
6.328117 -20.977852 347.95526
13.132149 -19.6475 352.25342
18.497963 -18.624306 356.55017
18.497948 -18.624306 356.55014
23.380257 -18.095543 360.93793
27.759895 -18.389458 365.50085
27.759895 -18.389442 365.50092
31.777824 -19.390785 369.9879
35.787025 -20.58422 373.99448
40.147224 -21.404808 377.12216
45.117485 -21.43145 379.00632
45.11747 -21.431435 379.00638
50.593895 -20.622597 379.5335
56.339745 -19.556892 379.31342
61.758263 -18.482506 378.82806
66.35406 -17.648994 377.92398
71.02441 -17.12159 376.18716
71.02441 -17.121605 376.18716
75.25295 -15.519463 374.60318
-26.055794 -6.674126 335.71338
-22.264229 -10.729485 335.0781
-15.07914 -16.663933 339.0099
-8.476387 -20.622917 343.11407
-1.952705 -21.822243 345.95782
5.715584 -21.443428 349.4434
12.461143 -20.17324 353.6526
17.760796 -19.38462 357.7787
17.760765 -19.384605 357.7787
22.566658 -18.861275 362.02225
26.897362 -19.025948 366.53845
26.897392 -19.025932 366.53848
30.870598 -19.929985 371.00626
34.89048 -21.060432 375.05432
39.386574 -21.785728 378.3187
44.595024 -21.69622 380.3226
44.595055 -21.696205 380.32263
50.340477 -20.835274 380.90164
56.200264 -19.750084 380.68842
61.657356 -18.696434 380.1851
66.3832 -17.898552 379.2769
71.29275 -17.370201 377.5187
75.58169 -15.681419 375.54474
76.48382 -11.85453 374.71338
-26.055809 -6.674141 335.71335
-22.835701 -10.744774 336.2193
-15.94294 -16.631065 340.45917
-9.331734 -20.59893 344.56808
-2.713692 -21.86335 347.46472
4.96563 -21.54049 350.9243
11.63044 -20.399132 354.98453
16.904991 -19.949364 358.94696
16.904991 -19.949364 358.947
21.66378 -19.451027 363.08075
25.954445 -19.392784 367.5679
25.95446 -19.392769 367.56793
29.907707 -20.12815 372.03012
33.92324 -21.145912 376.11478
38.50663 -21.7445 379.50235
43.954308 -21.596977 381.6475
43.954338 -21.596962 381.64755
49.94834 -20.708946 382.29416
55.944496 -19.622948 382.09775
61.48124 -18.595695 381.57715
66.35195 -17.820885 380.66757
71.481895 -17.278465 378.8979
71.481926 -17.27845 378.89792
75.83608 -15.59153 376.5265
76.48382 -11.854546 374.71335
-23.345284 -10.435265 337.37582
-15.94294 -16.63105 340.45917
-16.717415 -16.205803 341.96054
-9.331718 -20.598915 344.5681
-10.131996 -20.16262 346.02313
-2.713676 -21.86335 347.46472
-3.48864 -21.451546 348.8816
4.965645 -21.540474 350.9243
4.133232 -21.25579 352.21985
11.630455 -20.399117 354.98453
10.689598 -20.329597 356.10104
16.904976 -19.949364 358.94696
15.903297 -20.015923 359.93765
16.904976 -19.949364 358.947
15.903282 -20.015923 359.93762
20.652214 -19.591408 364.00586
25.95446 -19.392784 367.5679
24.97129 -19.387825 368.49216
25.954475 -19.392769 367.56793
24.971321 -19.38781 368.4922
29.907722 -20.12815 372.03012
28.957695 -19.953102 372.98697
33.92324 -21.145897 376.11475
32.97033 -20.834465 377.1251
38.506645 -21.744484 379.5023
37.597847 -21.304955 380.6205
43.23934 -21.138924 382.91425
43.239357 -21.138908 382.9143
49.948357 -20.708946 382.29413
49.436363 -20.244255 383.64407
55.571205 -19.16787 383.47836
61.48124 -18.59568 381.57712
61.227745 -18.176048 382.9335
66.35198 -17.82087 380.66757
66.257866 -17.419914 382.00345
71.481926 -17.278465 378.8979
71.57549 -16.844154 380.2328
71.57549 -16.84417 380.2328
75.9967 -15.239433 377.50003
76.48379 -11.854546 374.71338
-26.055779 -6.674141 335.71338
-23.721489 -9.800789 338.3114
-17.317238 -15.341972 343.1528
-10.750481 -19.363747 347.22723
-4.147835 -20.747093 350.09586
3.312935 -20.795998 353.3063
9.739983 -20.194832 356.99973
14.899208 -19.78199 360.7016
14.899208 -19.781975 360.70157
19.638939 -19.336998 364.7259
24.008324 -18.994759 369.20602
24.008324 -18.994743 369.20602
28.064537 -19.379906 373.76135
32.098427 -20.128593 377.99622
36.74723 -20.510399 381.59857
42.50576 -20.356041 384.03412
42.505775 -20.356026 384.03415
48.83918 -19.474998 384.85864
55.08686 -18.41053 384.73627
60.88932 -17.459755 384.16266
66.101036 -16.727028 383.19617
71.57336 -16.106056 381.43246
71.57336 -16.106071 381.43246
76.053154 -14.652626 378.39536
76.48382 -11.85453 374.7134
-26.055794 -6.674141 335.71335
-23.941566 -8.962624 339.112
-17.714577 -14.207756 344.15146
-11.208336 -18.237022 348.1751
-4.703163 -19.756096 351.0414
2.532219 -20.071922 354.13632
8.782524 -19.614372 357.59793
13.93264 -19.070229 361.20038
18.714684 -18.662971 365.20804
23.136406 -18.225945 369.6573
23.136421 -18.225945 369.65735
27.276207 -18.43937 374.22794
31.380531 -19.096748 378.5607
36.057884 -19.46653 382.29202
41.8547 -19.359291 384.8422
41.85473 -19.359276 384.84222
48.24189 -18.512093 385.74634
54.551033 -17.461266 385.6525
60.502327 -16.540596 385.07745
65.9027 -15.819084 384.13657
71.49035 -15.172325 382.3882
76.014 -13.949837 379.07776
76.48379 -11.854561 374.71338
-26.055779 -6.674126 335.71338
-26.055779 -6.674126 335.7134
-23.941551 -8.962593 339.11203
-23.94741 -7.993645 339.78638
-17.714561 -14.207741 344.1515
-17.830544 -12.930534 344.9871
-11.208321 -18.237007 348.17514
-11.444832 -16.892265 348.88174
-4.703163 -19.75608 351.04144
-5.1222 -18.446404 351.64142
2.532219 -20.071907 354.13635
1.843819 -18.98153 354.5751
8.782555 -19.614357 357.59796
7.938225 -18.593498 357.82574
13.932655 -19.070229 361.20038
13.112679 -17.83445 361.3781
13.93264 -19.070213 361.20038
13.112679 -17.834435 361.3781
18.714699 -18.662941 365.2081
17.968376 -17.548317 365.42398
22.465004 -17.122108 369.84586
23.136436 -18.225914 369.65738
22.465004 -17.122093 369.8459
27.276222 -18.439354 374.22797
26.657906 -17.174187 374.41635
31.380547 -19.096733 378.5607
30.805046 -17.736534 378.85138
36.057884 -19.466515 382.29205
35.505196 -18.13253 382.71176
41.854713 -19.359276 384.8422
41.273903 -18.095146 385.3481
41.85473 -19.359245 384.84222
41.27392 -18.09513 385.34814
48.241905 -18.512093 385.7464
47.633522 -17.305809 386.31104
54.55105 -17.461266 385.65256
53.956963 -16.263924 386.24094
60.502357 -16.54058 385.07745
60.05201 -15.366707 385.6528
65.90273 -15.819069 384.13657
65.62328 -14.666054 384.72318
71.49035 -15.17231 382.38824
71.28631 -14.010719 383.02808
71.49038 -15.17231 382.38824
76.01403 -13.949821 379.0778
75.86941 -13.087822 379.57678
76.48385 -11.854546 374.71338
76.48385 -11.85453 374.7134
-23.803703 -6.896019 340.14322
-17.731789 -11.469185 345.39734
-11.456017 -15.406578 349.19803
-5.358437 -16.996666 351.85663
1.284081 -17.65055 354.62088
7.225365 -17.219078 357.69608
12.46653 -16.216179 361.23956
12.466499 -16.216194 361.23953
17.44532 -16.159096 365.37137
22.050804 -15.844505 369.79248
22.05082 -15.84449 369.7925
26.297249 -15.785881 374.36667
30.470222 -16.29 378.8903
35.161903 -16.728645 382.8461
40.83262 -16.740623 385.52737
40.83262 -16.740608 385.5274
47.084694 -16.001564 386.52652
53.381004 -14.969292 386.47147
59.60601 -14.090187 385.86716
65.3063 -13.399467 384.94406
70.99175 -12.7472 383.32202
70.99172 -12.747215 383.32202
75.64501 -12.171852 379.84866
76.48382 -11.854546 374.7134
-26.055779 -6.674141 335.7134
-23.51136 -5.724419 340.1705
-17.414421 -9.901573 345.3683
-11.238029 -13.845299 349.108
-5.390678 -15.486916 351.6787
0.90786 -16.20362 354.27414
6.750191 -15.907921 357.20532
12.167671 -15.176567 360.78232
12.167671 -15.176552 360.78235
17.229362 -14.866585 365.03824
21.933098 -14.476906 369.49158
21.933113 -14.476891 369.4916
26.265495 -14.386314 374.06125
30.459526 -14.82412 378.6311
35.087837 -15.327324 382.63544
40.574013 -15.375389 385.3178
40.574043 -15.375374 385.31784
46.635323 -14.65934 386.33466
52.872383 -13.641243 386.2948
59.220757 -12.792595 385.68826
65.012535 -12.107185 384.77567
70.64861 -11.453041 383.22742
70.64864 -11.453041 383.2274
75.34545 -11.237907 379.84253
-23.511345 -5.724419 340.1705
-23.102257 -4.566658 339.8404
-16.912987 -8.330849 344.8629
-10.811455 -12.324181 348.59418
-5.390663 -15.486916 351.6787
-5.218941 -13.964882 351.079
0.907845 -16.20362 354.27414
0.739174 -14.532616 353.4858
6.750175 -15.907921 357.20535
6.511497 -14.324532 356.34
12.121681 -14.084099 360.02863
12.167671 -15.176537 360.78238
12.121651 -14.084084 360.02863
17.229362 -14.866585 365.03827
17.232338 -13.29789 364.45203
21.933083 -14.476906 369.49158
22.080544 -12.982384 368.96808
21.933098 -14.476891 369.4916
22.080559 -12.982384 368.9681
26.560371 -13.136559 373.56934
30.77282 -13.530342 378.15494
35.087837 -15.327324 382.63547
35.285973 -14.050896 382.11343
40.574028 -15.375389 385.3178
40.51516 -14.140617 384.7512
40.57406 -15.375374 385.31784
40.515175 -14.140617 384.75122
46.635307 -14.65934 386.33466
46.333107 -13.44532 385.7757
52.49816 -12.432884 385.75662
58.948616 -11.61512 385.16
65.012566 -12.107201 384.77563
64.78301 -10.934013 384.2539
70.64861 -11.453041 383.2274
70.30154 -10.26815 382.76755
70.64864 -11.453056 383.2274
70.30154 -10.268135 382.76755
75.00231 -10.378395 379.56805
-22.59365 -3.580132 339.2412
-16.25106 -6.985054 344.01566
-10.209938 -11.039131 347.75708
-4.862709 -12.64431 350.1592
0.790291 -12.952293 352.3716
6.507439 -12.593971 355.1613
12.263878 -12.49659 359.02283
17.436928 -11.332146 363.65094
22.483833 -11.445824 368.25394
22.483864 -11.445808 368.25397
27.15113 -12.102791 372.92432
31.373116 -12.515541 377.51514
35.721123 -13.032219 381.3583
40.64643 -13.164406 383.91074
40.64646 -13.164391 383.91077
46.20228 -12.498756 384.9289
52.29133 -11.480492 384.9306
58.80993 -10.680855 384.35107
64.628685 -9.998283 383.446
69.97515 -9.317039 382.00446
69.97518 -9.317039 382.0045
74.65118 -9.689781 379.06424
76.48385 -11.854546 374.7134
-21.96833 -2.877159 338.49347
-15.412209 -6.046669 343.0009
-9.453819 -10.068062 346.68134
-4.339806 -11.651955 348.99014
1.088066 -11.914421 351.09076
6.781456 -11.365364 353.81943
12.648598 -11.063454 357.84158
12.648598 -11.063438 357.84158
17.993416 -9.953453 362.68323
23.212608 -10.41227 367.3836
23.212639 -10.412254 367.38367
27.997414 -11.290764 372.11044
32.210213 -11.737312 376.68356
36.362556 -12.291359 380.38815
40.955544 -12.452904 382.82343
40.95556 -12.452888 382.82346
46.23432 -11.812248 383.81635
52.233833 -10.789574 383.8334
58.791023 -10.003166 383.278
64.54418 -9.314842 382.37213
69.66146 -8.615715 380.9571
69.66146 -8.61573 380.9571
74.2853 -9.183037 378.3425
-26.055794 -6.674126 335.7134
-21.285988 -2.441246 337.54663
-14.474754 -5.447624 341.71628
-8.592964 -9.378685 345.31424
-3.673576 -10.923622 347.5336
1.619514 -11.269127 349.63745
7.304848 -10.563316 352.4433
13.222084 -9.966194 356.57883
13.222069 -9.966209 356.57883
18.91874 -9.842857 361.6265
24.254662 -10.313988 366.42664
24.254677 -10.313972 366.42667
29.01551 -10.813774 371.1988
33.20289 -11.280373 375.7203
37.177223 -11.853416 379.2356
41.44082 -12.027 381.52844
41.44082 -12.027 381.52847
46.435646 -11.408974 382.486
52.32714 -10.38961 382.50967
58.88772 -9.610619 381.98224
64.53213 -8.911934 381.07513
69.368095 -8.192528 379.6654
69.368065 -8.192543 379.6654
73.907555 -8.87571 377.428
76.48385 -11.854515 374.71338
-26.055763 -6.674126 335.71344
-26.055794 -6.674141 335.7134
-21.285973 -2.441246 337.54666
-20.649635 -2.307045 336.49564
-14.474739 -5.447609 341.71628
-13.580055 -5.227409 340.27908
-8.592964 -9.37867 345.31424
-7.730385 -9.144661 343.87595
-3.673561 -10.923607 347.5336
-2.939796 -10.625557 346.03665
1.61953 -11.269127 349.63748
2.302071 -10.945564 348.1229
7.304863 -10.563316 352.44333
8.07296 -10.241493 351.06787
13.222099 -9.966194 356.57886
14.086662 -9.564934 355.30545
13.222099 -9.966209 356.5789
14.086662 -9.564934 355.30542
18.91877 -9.842857 361.62653
20.029076 -10.13401 360.5508
24.254677 -10.313988 366.42667
25.401848 -10.495232 365.44922
24.254707 -10.313972 366.4267
25.401848 -10.495216 365.44925
29.015526 -10.813759 371.19882
30.110725 -10.667839 370.2543
33.202904 -11.280357 375.72034
34.26014 -11.173241 374.71927
37.177223 -11.853401 379.23563
38.07453 -11.776985 378.05084
41.44082 -12.02697 381.52847
42.05329 -11.955589 380.19174
41.44082 -12.026985 381.5285
42.053307 -11.955559 380.19177
46.435646 -11.408958 382.486
46.792976 -11.355721 381.09952
52.32714 -10.38961 382.5097
52.56637 -10.349541 381.11606
58.887733 -9.610619 381.98227
59.08799 -9.566475 380.61472
64.53216 -8.911903 381.07516
64.594536 -8.850456 379.70703
69.368095 -8.192528 379.66544
69.14681 -8.117134 378.28726
69.14681 -8.117119 378.28726
73.907555 -8.875694 377.42804
73.58581 -8.822365 376.43628
76.48388 -11.85453 374.7134
-20.106056 -2.432854 335.39008
-12.760017 -5.435097 338.8704
-6.905144 -9.3339 342.46216
-2.184502 -10.748634 344.5795
3.088905 -11.019417 346.71487
8.988976 -10.283226 349.78738
15.08625 -9.625008 354.21945
15.086235 -9.625008 354.21948
21.087349 -10.224373 359.59265
26.493584 -10.630669 364.52496
26.493584 -10.630638 364.52496
31.204887 -10.855507 369.35083
35.307167 -11.40818 373.77048
38.989998 -12.047066 376.93735
42.75196 -12.24543 378.91394
42.75196 -12.24543 378.91397
47.271233 -11.661263 379.74524
52.91662 -10.670464 379.7353
59.353966 -9.866661 379.25473
64.7044 -9.126915 378.34964
69.009026 -8.394203 376.91437
69.009056 -8.394203 376.91437
73.35171 -9.03231 375.4378
-19.658531 -2.89225 334.28427
-12.024269 -6.138206 337.5348
-6.140129 -10.026756 341.14746
-1.412987 -11.334877 343.20724
3.985023 -11.511879 345.41992
10.035591 -10.782936 348.7312
16.17849 -10.091362 353.33417
16.17849 -10.091347 353.33414
22.118141 -10.43943 358.7588
27.499489 -10.943535 363.7185
27.499489 -10.94352 363.71854
32.21514 -11.365669 368.54648
36.275917 -11.968651 372.9012
39.841057 -12.62394 375.92416
43.42478 -12.831795 377.7242
43.42478 -12.831764 377.72424
47.762383 -12.27079 378.4504
53.274986 -11.292259 378.39948
59.57711 -10.443291 377.9363
64.793175 -9.692131 377.0505
68.94817 -9.002007 375.61002
68.94814 -9.002007 375.61002
73.2141 -9.49572 374.47803
-19.34594 -3.62278 333.3573
-11.479698 -7.146385 336.36487
-5.551125 -11.045021 340.0423
-0.741127 -12.298317 342.12833
4.868034 -12.388206 344.44736
11.06945 -11.644188 348.01318
17.169243 -10.819008 352.72223
17.169243 -10.819008 352.7222
22.905418 -10.782875 358.12503
28.295158 -11.454338 363.0877
28.295174 -11.454338 363.08774
33.029976 -12.130119 367.91742
37.009438 -12.751366 372.21368
40.49424 -13.414482 375.11423
43.95939 -13.616005 376.75723
43.95939 -13.61599 376.75726
48.162148 -13.063255 377.37152
53.564445 -12.086723 377.27835
59.731117 -11.197151 376.8376
64.8626 -10.462624 375.9863
68.970146 -9.84536 374.5456
73.1842 -10.138466 373.68304
-19.19587 -4.579872 332.6651
-11.176109 -8.399574 335.4798
-5.176994 -12.313164 339.2321
-0.229973 -13.548439 341.40295
5.635674 -13.533836 343.87473
12.000114 -12.719368 347.64328
18.034447 -11.793022 352.40466
18.034462 -11.793007 352.4047
23.533577 -11.406624 357.73254
28.913612 -12.231392 362.67047
28.913628 -12.231361 362.6705
33.619194 -13.107262 367.49124
37.484047 -13.715294 371.71957
40.93888 -14.392769 374.51138
44.37858 -14.579735 376.04517
44.378593 -14.57972 376.04517
48.52691 -14.015831 376.57397
53.858162 -13.038689 376.44702
59.902946 -12.12748 376.03113
64.9685 -11.422554 375.21405
69.08062 -10.878242 373.7635
73.258934 -10.920509 373.08493
-19.225014 -5.715462 332.20334
-11.116478 -9.923424 334.94363
-5.023842 -13.844444 338.76178
0.116096 -15.031715 341.0104
6.288368 -14.900551 343.66528
12.819817 -14.002007 347.62134
18.789787 -13.020576 352.38733
24.137596 -12.463341 357.61044
29.3751 -13.282143 362.51013
29.3751 -13.282143 362.51016
33.952217 -14.241402 367.28918
37.74285 -14.900093 371.42767
41.224403 -15.600471 374.144
44.75025 -15.767784 375.6278
44.750282 -15.767769 375.62787
48.95507 -15.180443 376.10678
54.260628 -14.200722 375.95236
60.17449 -13.274483 375.55304
65.152824 -12.5895 374.75595
69.29131 -12.100166 373.27695
69.29134 -12.100151 373.27695
73.44256 -11.837868 372.6926
-19.225014 -5.715446 332.2033
-19.44172 -6.893089 332.02795
-11.319435 -11.541588 334.77545
-5.128334 -15.466667 338.65887
0.257973 -16.604912 341.00296
6.288368 -14.900551 343.66525
6.785164 -16.389854 343.84134
12.819801 -14.002007 347.62134
13.447899 -15.38839 347.95877
18.789772 -13.020576 352.38736
19.32743 -14.366493 352.70624
19.32743 -14.366508 352.70627
24.137596 -12.463356 357.61044
24.654716 -13.875801 357.81717
29.3751 -13.282158 362.51013
29.619514 -14.497688 362.64655
29.619514 -14.497658 362.64658
33.9522 -14.241402 367.2892
33.97709 -15.408302 367.34906
37.74285 -14.900093 371.4277
37.76719 -16.21453 371.41473
41.224403 -15.600471 374.14404
41.34327 -16.950249 374.12238
44.75025 -15.767799 375.62784
45.061195 -17.09896 375.6148
45.061226 -17.09893 375.61484
48.955055 -15.180428 376.10675
49.42022 -16.473686 376.06668
54.260628 -14.200737 375.95233
54.74839 -15.480339 375.8869
60.174507 -13.274498 375.553
60.528282 -14.535362 375.49063
65.152855 -12.589516 374.75595
65.402306 -13.85215 374.69513
69.29134 -12.100182 373.27695
69.592155 -13.39341 373.17154
69.291374 -12.100166 373.27695
69.592125 -13.39341 373.17154
73.72741 -12.801033 372.57166
POLYGONS 912 3648
3 0 1 2
3 0 2 3
3 3 2 4
3 3 4 5
3 5 4 6
3 5 6 7
3 7 6 8
3 7 8 9
3 9 8 10
3 9 10 11
3 11 10 12
3 11 12 13
3 13 12 14
3 15 16 17
3 17 16 18
3 17 18 19
3 19 18 20
3 21 22 23
3 23 22 24
3 23 24 25
3 25 24 26
3 25 26 27
3 27 26 28
3 27 28 29
3 29 28 30
3 31 32 33
3 33 32 34
3 33 34 35
3 35 34 36
3 35 36 37
3 37 36 38
3 37 38 39
3 39 38 40
3 39 40 41
3 41 40 42
3 43 44 45
3 45 44 46
3 45 46 47
3 47 46 48
3 1 49 2
3 2 49 50
3 2 50 4
3 4 50 51
3 4 51 6
3 6 51 52
3 6 52 8
3 8 52 53
3 8 53 10
3 10 53 54
3 10 54 12
3 12 54 55
3 12 55 14
3 14 55 56
3 16 57 18
3 18 57 58
3 18 58 20
3 20 58 59
3 22 60 24
3 24 60 61
3 24 61 26
3 26 61 62
3 26 62 28
3 28 62 63
3 28 63 30
3 30 63 64
3 32 65 34
3 34 65 66
3 34 66 36
3 36 66 67
3 36 67 38
3 38 67 68
3 38 68 40
3 40 68 69
3 40 69 42
3 42 69 70
3 44 70 46
3 46 70 71
3 46 71 48
3 48 71 72
3 49 73 50
3 50 73 74
3 50 74 51
3 51 74 75
3 51 75 52
3 52 75 76
3 52 76 53
3 53 76 77
3 53 77 54
3 54 77 78
3 54 78 55
3 55 78 79
3 55 79 56
3 56 79 80
3 57 81 58
3 58 81 82
3 58 82 59
3 59 82 83
3 60 84 61
3 61 84 85
3 61 85 62
3 62 85 86
3 62 86 63
3 63 86 87
3 63 87 64
3 64 87 88
3 65 89 66
3 66 89 90
3 66 90 67
3 67 90 91
3 67 91 68
3 68 91 92
3 68 92 69
3 69 92 93
3 69 93 70
3 70 93 94
3 70 95 71
3 71 95 96
3 71 96 72
3 72 96 48
3 73 97 74
3 74 97 98
3 74 98 75
3 75 98 99
3 75 99 76
3 76 99 100
3 76 100 77
3 77 100 101
3 77 101 78
3 78 101 102
3 78 102 79
3 79 102 103
3 79 103 80
3 80 103 104
3 81 105 82
3 82 105 106
3 82 106 83
3 83 106 107
3 84 108 85
3 85 108 109
3 85 109 86
3 86 109 110
3 86 110 87
3 87 110 111
3 87 111 88
3 88 111 112
3 89 113 90
3 90 113 114
3 90 114 91
3 91 114 115
3 91 115 92
3 92 115 116
3 92 116 93
3 93 116 117
3 93 117 94
3 94 117 118
3 95 118 96
3 96 118 119
3 96 119 48
3 48 119 120
3 97 121 98
3 98 121 122
3 98 122 99
3 99 122 123
3 99 123 100
3 100 123 124
3 100 124 101
3 101 124 125
3 101 125 102
3 102 125 126
3 102 126 103
3 103 126 127
3 103 127 104
3 104 127 128
3 105 129 106
3 106 129 130
3 106 130 107
3 107 130 131
3 108 132 109
3 109 132 133
3 109 133 110
3 110 133 134
3 110 134 111
3 111 134 135
3 111 135 112
3 112 135 136
3 113 137 114
3 114 137 138
3 114 138 115
3 115 138 139
3 115 139 116
3 116 139 140
3 116 140 117
3 117 140 141
3 117 141 118
3 118 141 142
3 118 143 119
3 119 143 144
3 119 144 120
3 120 144 145
3 122 1 146
3 122 146 147
3 147 146 148
3 147 148 149
3 149 148 150
3 149 150 151
3 151 150 152
3 151 152 153
3 153 152 154
3 153 154 155
3 155 154 156
3 155 156 157
3 157 156 158
3 159 160 130
3 130 160 161
3 130 161 162
3 162 161 163
3 164 165 166
3 166 165 167
3 166 167 168
3 168 167 169
3 168 169 170
3 170 169 171
3 170 171 136
3 136 171 172
3 137 173 174
3 174 173 175
3 174 175 139
3 139 175 176
3 139 176 177
3 177 176 178
3 177 178 179
3 179 178 180
3 179 180 181
3 181 180 182
3 143 183 144
3 144 183 184
3 144 184 185
3 185 184 47
3 1 186 146
3 146 186 187
3 146 187 148
3 148 187 188
3 148 188 150
3 150 188 189
3 150 189 152
3 152 189 190
3 152 190 154
3 154 190 191
3 154 191 156
3 156 191 192
3 156 192 158
3 158 192 193
3 160 194 161
3 161 194 195
3 161 195 163
3 163 195 196
3 165 197 167
3 167 197 198
3 167 198 169
3 169 198 199
3 169 199 171
3 171 199 200
3 171 200 172
3 172 200 201
3 173 202 175
3 175 202 203
3 175 203 176
3 176 203 204
3 176 204 178
3 178 204 205
3 178 205 180
3 180 205 206
3 180 206 182
3 182 206 207
3 183 208 184
3 184 208 209
3 184 209 47
3 47 209 210
3 186 211 187
3 187 211 212
3 187 212 188
3 188 212 213
3 188 213 189
3 189 213 214
3 189 214 190
3 190 214 215
3 190 215 191
3 191 215 216
3 191 216 192
3 192 216 217
3 192 217 193
3 193 217 218
3 194 218 195
3 195 218 219
3 195 219 196
3 196 219 220
3 197 221 198
3 198 221 222
3 198 222 199
3 199 222 223
3 199 223 200
3 200 223 224
3 200 224 201
3 201 224 225
3 202 226 203
3 203 226 227
3 203 227 204
3 204 227 228
3 204 228 205
3 205 228 229
3 205 229 206
3 206 229 230
3 206 230 207
3 207 230 231
3 208 231 209
3 209 231 232
3 209 232 210
3 210 232 233
3 234 235 236
3 236 235 237
3 236 237 238
3 238 237 239
3 238 239 240
3 240 239 241
3 240 241 242
3 242 241 243
3 242 243 244
3 244 243 245
3 244 245 246
3 246 245 247
3 246 247 248
3 248 247 249
3 250 251 252
3 252 251 253
3 252 253 221
3 221 253 254
3 255 256 257
3 257 256 258
3 257 258 259
3 259 258 260
3 259 260 261
3 261 260 262
3 261 262 263
3 263 262 264
3 265 266 267
3 267 266 268
3 267 268 269
3 269 268 270
3 269 270 271
3 271 270 272
3 271 272 273
3 273 272 274
3 273 274 275
3 275 274 276
3 277 276 278
3 278 276 279
3 278 279 280
3 280 279 281
3 237 1 282
3 237 282 239
3 239 282 283
3 239 283 241
3 241 283 284
3 241 284 243
3 243 284 285
3 243 285 245
3 245 285 286
3 245 286 247
3 247 286 287
3 247 287 249
3 249 287 288
3 251 289 253
3 253 289 290
3 253 290 254
3 254 290 291
3 256 292 258
3 258 292 293
3 258 293 260
3 260 293 294
3 260 294 262
3 262 294 295
3 262 295 264
3 264 295 296
3 266 297 268
3 268 297 298
3 268 298 270
3 270 298 299
3 270 299 272
3 272 299 300
3 272 300 274
3 274 300 301
3 274 301 276
3 276 301 302
3 276 303 279
3 279 303 304
3 279 304 281
3 281 304 305
3 1 306 282
3 282 306 307
3 282 307 283
3 283 307 308
3 283 308 284
3 284 308 309
3 284 309 285
3 285 309 310
3 285 310 286
3 286 310 311
3 286 311 287
3 287 311 312
3 287 312 288
3 288 312 313
3 289 314 290
3 290 314 315
3 290 315 291
3 291 315 316
3 292 317 293
3 293 317 318
3 293 318 294
3 294 318 319
3 294 319 295
3 295 319 320
3 295 320 296
3 296 320 321
3 297 322 298
3 298 322 323
3 298 323 299
3 299 323 324
3 299 324 300
3 300 324 325
3 300 325 301
3 301 325 326
3 301 326 302
3 302 326 327
3 303 328 304
3 304 328 329
3 304 329 305
3 305 329 210
3 330 1 331
3 330 331 308
3 308 331 332
3 308 332 309
3 309 332 333
3 309 333 334
3 334 333 335
3 334 335 336
3 336 335 337
3 336 337 338
3 338 337 339
3 338 339 314
3 314 339 340
3 341 342 343
3 343 342 344
3 343 344 345
3 345 344 346
3 347 348 318
3 318 348 349
3 318 349 319
3 319 349 350
3 319 350 351
3 351 350 352
3 351 352 353
3 353 352 354
3 355 356 357
3 357 356 358
3 357 358 324
3 324 358 359
3 324 359 325
3 325 359 360
3 325 360 361
3 361 360 362
3 361 362 363
3 363 362 364
3 365 366 329
3 329 366 367
3 329 367 280
3 280 367 120
3 331 1 368
3 331 368 332
3 332 368 369
3 332 369 333
3 333 369 370
3 333 370 335
3 335 370 371
3 335 371 337
3 337 371 372
3 337 372 339
3 339 372 373
3 339 373 340
3 340 373 374
3 342 374 344
3 344 374 375
3 344 375 346
3 346 375 376
3 348 377 349
3 349 377 378
3 349 378 350
3 350 378 379
3 350 379 352
3 352 379 380
3 352 380 354
3 354 380 381
3 356 382 358
3 358 382 383
3 358 383 359
3 359 383 384
3 359 384 360
3 360 384 385
3 360 385 362
3 362 385 386
3 362 386 364
3 364 386 387
3 366 388 367
3 367 388 389
3 367 389 120
3 120 389 390
3 368 1 391
3 368 391 369
3 369 391 392
3 369 392 370
3 370 392 393
3 370 393 371
3 371 393 394
3 371 394 372
3 372 394 395
3 372 395 373
3 373 395 396
3 373 396 374
3 374 396 397
3 374 398 375
3 375 398 399
3 375 399 376
3 376 399 400
3 377 401 378
3 378 401 402
3 378 402 379
3 379 402 403
3 379 403 380
3 380 403 404
3 380 404 381
3 381 404 405
3 382 406 383
3 383 406 407
3 383 407 384
3 384 407 408
3 384 408 385
3 385 408 409
3 385 409 386
3 386 409 410
3 386 410 387
3 387 410 411
3 388 412 389
3 389 412 413
3 389 413 390
3 390 413 47
3 1 414 391
3 391 414 415
3 391 415 392
3 392 415 416
3 392 416 393
3 393 416 417
3 393 417 394
3 394 417 418
3 394 418 395
3 395 418 419
3 395 419 396
3 396 419 420
3 396 420 397
3 397 420 421
3 398 422 399
3 399 422 423
3 399 423 400
3 400 423 424
3 401 425 402
3 402 425 426
3 402 426 403
3 403 426 427
3 403 427 404
3 404 427 428
3 404 428 405
3 405 428 429
3 406 430 407
3 407 430 431
3 407 431 408
3 408 431 432
3 408 432 409
3 409 432 433
3 409 433 410
3 410 433 434
3 410 434 411
3 411 434 435
3 412 436 413
3 413 436 437
3 413 437 47
3 47 437 438
3 439 440 441
3 441 440 442
3 441 442 443
3 443 442 444
3 443 444 445
3 445 444 446
3 445 446 447
3 447 446 448
3 447 448 449
3 449 448 450
3 449 450 451
3 451 450 452
3 451 452 453
3 453 452 454
3 455 456 457
3 457 456 458
3 457 458 459
3 459 458 460
3 461 462 463
3 463 462 464
3 463 464 465
3 465 464 466
3 465 466 467
3 467 466 468
3 467 468 469
3 469 468 470
3 471 472 473
3 473 472 474
3 473 474 475
3 475 474 476
3 475 476 477
3 477 476 478
3 477 478 479
3 479 478 480
3 479 480 481
3 481 480 482
3 481 483 484
3 484 483 485
3 484 485 486
3 486 485 281
3 440 73 442
3 442 73 487
3 442 487 444
3 444 487 488
3 444 488 446
3 446 488 489
3 446 489 448
3 448 489 490
3 448 490 450
3 450 490 491
3 450 491 452
3 452 491 492
3 452 492 454
3 454 492 493
3 456 494 458
3 458 494 495
3 458 495 460
3 460 495 496
3 462 497 464
3 464 497 498
3 464 498 466
3 466 498 499
3 466 499 468
3 468 499 500
3 468 500 470
3 470 500 501
3 472 502 474
3 474 502 503
3 474 503 476
3 476 503 504
3 476 504 478
3 478 504 505
3 478 505 480
3 480 505 506
3 480 506 482
3 482 506 507
3 483 508 485
3 485 508 509
3 485 509 281
3 281 509 145
3 73 235 487
3 487 235 510
3 487 510 488
3 488 510 511
3 488 511 489
3 489 511 512
3 489 512 490
3 490 512 513
3 490 513 491
3 491 513 514
3 491 514 492
3 492 514 515
3 492 515 493
3 493 515 516
3 494 517 495
3 495 517 518
3 495 518 496
3 496 518 519
3 497 520 498
3 498 520 521
3 498 521 499
3 499 521 522
3 499 522 500
3 500 522 523
3 500 523 501
3 501 523 524
3 502 525 503
3 503 525 526
3 503 526 504
3 504 526 527
3 504 527 505
3 505 527 528
3 505 528 506
3 506 528 529
3 506 529 507
3 507 529 530
3 508 531 509
3 509 531 532
3 509 532 145
3 145 532 210
3 235 1 510
3 510 1 533
3 510 533 511
3 511 533 534
3 511 534 512
3 512 534 535
3 512 535 513
3 513 535 536
3 513 536 514
3 514 536 537
3 514 537 515
3 515 537 538
3 515 538 516
3 516 538 539
3 517 540 518
3 518 540 541
3 518 541 519
3 519 541 542
3 520 543 521
3 521 543 544
3 521 544 522
3 522 544 545
3 522 545 523
3 523 545 546
3 523 546 524
3 524 546 547
3 525 548 526
3 526 548 549
3 526 549 527
3 527 549 550
3 527 550 528
3 528 550 551
3 528 551 529
3 529 551 552
3 529 552 530
3 530 552 553
3 531 553 532
3 532 553 554
3 532 554 210
3 210 554 280
3 1 234 533
3 533 234 555
3 533 555 534
3 534 555 556
3 534 556 535
3 535 556 557
3 535 557 536
3 536 557 558
3 536 558 537
3 537 558 559
3 537 559 538
3 538 559 560
3 538 560 539
3 539 560 561
3 540 562 541
3 541 562 563
3 541 563 542
3 542 563 564
3 543 565 544
3 544 565 566
3 544 566 545
3 545 566 567
3 545 567 546
3 546 567 568
3 546 568 547
3 547 568 569
3 548 570 549
3 549 570 571
3 549 571 550
3 550 571 572
3 550 572 551
3 551 572 573
3 551 573 552
3 552 573 574
3 552 574 553
3 553 574 575
3 553 575 554
3 554 575 576
3 554 576 280
3 280 576 305
3 234 306 555
3 555 306 577
3 555 577 556
3 556 577 578
3 556 578 557
3 557 578 579
3 557 579 558
3 558 579 580
3 558 580 559
3 559 580 581
3 559 581 560
3 560 581 582
3 560 582 561
3 561 582 583
3 562 583 563
3 563 583 584
3 563 584 564
3 564 584 585
3 565 586 566
3 566 586 587
3 566 587 567
3 567 587 588
3 567 588 568
3 568 588 589
3 568 589 569
3 569 589 590
3 570 591 571
3 571 591 592
3 571 592 572
3 572 592 593
3 572 593 573
3 573 593 594
3 573 594 574
3 574 594 595
3 574 595 575
3 575 595 596
3 575 597 576
3 576 597 598
3 576 598 305
3 305 598 281
3 599 235 600
3 599 600 578
3 578 600 601
3 578 601 579
3 579 601 602
3 579 602 580
3 580 602 603
3 580 603 604
3 604 603 605
3 604 605 606
3 606 605 607
3 606 607 608
3 608 607 609
3 608 610 611
3 611 610 612
3 611 612 613
3 613 612 614
3 586 615 616
3 616 615 617
3 616 617 618
3 618 617 619
3 618 619 620
3 620 619 621
3 620 621 622
3 622 621 623
3 591 624 625
3 625 624 626
3 625 626 627
3 627 626 628
3 627 628 629
3 629 628 630
3 629 630 631
3 631 630 632
3 631 632 633
3 633 632 634
3 635 636 598
3 598 636 637
3 598 637 281
3 235 1 600
3 600 1 0
3 600 0 601
3 601 0 3
3 601 3 602
3 602 3 5
3 602 5 603
3 603 5 7
3 603 7 605
3 605 7 9
3 605 9 607
3 607 9 11
3 607 11 609
3 609 11 13
3 610 15 612
3 612 15 17
3 612 17 614
3 614 17 19
3 615 21 617
3 617 21 23
3 617 23 619
3 619 23 25
3 619 25 621
3 621 25 27
3 621 27 623
3 623 27 29
3 624 31 626
3 626 31 33
3 626 33 628
3 628 33 35
3 628 35 630
3 630 35 37
3 630 37 632
3 632 37 39
3 632 39 634
3 634 39 41
3 636 43 637
3 637 43 45
3 637 45 305
3 305 45 47
