# vtk DataFile Version 2.0
File written by itkPolyDataMeshIO
ASCII
DATASET POLYDATA
POINTS 1743 float
106.2683 -8.637932 354.3931
106.2683 -8.637947 354.3931
119.32421 -13.08091 346.83
118.87264 -12.202415 346.06833
142.74356 -13.560249 340.20837
142.39758 -12.692833 339.4504
156.77167 -12.429573 335.03152
156.38623 -11.597862 334.36777
163.01544 -11.302956 331.46732
162.53183 -10.500603 330.88257
166.79044 -10.501839 329.11487
166.28482 -9.715492 328.56207
170.07504 -9.773277 326.99478
169.56607 -8.999641 326.46002
173.44382 -8.682243 324.35452
172.87976 -7.928429 323.8908
176.94247 -6.853096 320.69357
176.2764 -6.125359 320.36166
180.38583 -4.477959 316.12183
179.66016 -3.768227 315.90424
183.46097 -2.011513 310.95795
182.7203 -1.306084 310.82187
186.45447 0.911018 304.1978
185.71191 1.613472 304.13803
186.45447 0.911034 304.1978
185.71191 1.613472 304.13806
190.64899 5.664909 291.84402
189.94144 6.338356 291.84085
196.31314 12.389854 268.88235
195.69424 13.002357 268.90393
196.31311 12.389854 268.88242
195.69424 13.002342 268.904
203.46252 19.943214 231.63701
202.87112 20.555534 231.64818
209.14429 28.57827 189.58925
208.61664 29.129341 189.634
209.14429 28.578255 189.58931
208.61667 29.129356 189.63406
212.95624 37.847527 153.763
212.4263 38.380486 153.86263
212.61014 39.445824 128.03964
212.06631 39.993034 128.10867
212.61017 39.445854 128.03967
212.06635 39.993034 128.1087
217.41858 34.42591 107.84139
216.90466 34.89251 107.62657
234.27808 32.367683 88.597
233.83447 32.72979 88.142746
251.51505 35.36315 69.857956
251.08337 35.686028 69.49706
259.87775 36.881706 51.14606
259.3719 37.186043 50.935925
259.87778 36.88172 51.146107
259.3719 37.186058 50.935974
265.71964 33.15174 30.680735
265.23206 33.439064 30.492483
272.6957 27.561867 7.982435
272.2652 27.819023 7.788085
279.31055 21.13935 -15.603608
278.91367 21.373238 -15.778676
287.21927 15.001183 -40.673443
286.8613 15.215355 -40.83821
287.21924 15.001183 -40.673386
286.86127 15.21534 -40.838154
294.72247 9.934456 -64.909775
294.36514 10.148766 -65.06446
298.90414 6.021049 -84.69124
298.54547 6.229042 -84.806656
300.96683 3.310555 -97.3361
300.60544 3.51667 -97.440315
301.93497 1.945869 -104.22004
301.5645 2.156029 -104.30385
302.1279 1.525703 -108.35539
301.75385 1.736717 -108.387344
302.12787 1.525673 -108.35537
301.7538 1.736702 -108.38733
301.91055 1.587639 -111.583
301.54553 1.794716 -111.55439
301.44016 1.9645 -114.569275
301.09103 2.164772 -114.49143
300.81522 2.530342 -117.563065
300.4789 2.725121 -117.45904
300.258 3.160881 -120.45922
299.93457 3.34774 -120.35853
300.25797 3.160866 -120.459206
299.93457 3.347755 -120.35851
300.12558 3.606606 -122.56789
299.82132 3.779259 -122.50955
300.4377 4.640266 -123.205246
300.4377 4.640251 -123.205246
106.26833 -8.637932 354.3931
118.728966 -11.6278 345.75555
142.26913 -12.121376 339.14545
156.21515 -11.049873 334.11133
162.31168 -9.971977 330.66437
166.05353 -9.197426 328.359
169.33319 -8.489906 326.265
172.61948 -7.43177 323.7325
175.96628 -5.645866 320.27313
179.3248 -3.300606 315.87402
182.38565 -0.841316 310.8282
185.38443 2.076286 304.17673
189.63562 6.782036 291.8991
195.43408 13.405876 268.95752
195.43408 13.405876 268.95758
202.62817 20.958946 231.68382
208.40222 29.492378 189.67932
208.40228 29.492393 189.67937
212.20935 38.73159 153.93991
211.84076 40.355186 128.14214
211.84076 40.355217 128.14217
216.68631 35.224663 107.49947
233.63385 33.01365 87.916824
250.87402 35.941338 69.335464
259.1289 37.426704 50.843067
259.12894 37.42672 50.843113
265.0061 33.666313 30.389597
272.06836 28.022469 7.677974
278.73227 21.55828 -15.880364
286.69778 15.384712 -40.931583
286.69772 15.384712 -40.931526
294.20105 10.31826 -65.15038
298.37933 6.393562 -84.87374
300.43784 3.679665 -97.50329
301.39194 2.322273 -104.35519
301.57837 1.903633 -108.408676
301.57837 1.903618 -108.40866
301.3742 1.958488 -111.54022
300.92804 2.323189 -114.44785
300.323 2.879189 -117.39951
299.78476 3.495552 -120.29957
299.78473 3.495567 -120.29955
299.67935 3.915031 -122.47203
300.43774 4.640266 -123.205246
106.26833 -8.637917 354.3931
118.68163 -11.097908 345.56863
142.20554 -11.593346 338.96933
156.10211 -10.543571 333.9726
162.16177 -9.483589 330.5536
165.89505 -8.718773 328.2592
169.1737 -8.018944 326.17047
172.43945 -6.972862 323.66635
175.74973 -5.202843 320.2621
179.09253 -2.868568 315.90765
182.15979 -0.411903 310.88632
185.16974 2.503868 304.25494
189.44012 7.191978 291.98572
195.2739 13.778694 269.02838
195.2739 13.778709 269.0284
202.48352 21.331688 231.73207
208.27661 29.827827 189.72972
208.27661 29.827812 189.72977
212.08069 39.055992 154.01756
211.70444 40.691063 128.16635
211.70447 40.691063 128.16638
216.54987 35.5505 107.3882
233.49765 33.31066 87.745735
250.71973 36.209846 69.22718
258.95178 37.679802 50.78193
258.95178 37.679817 50.781975
264.84802 33.90531 30.304295
271.93283 28.236351 7.583876
278.60754 21.75283 -15.968957
286.5854 15.562843 -41.01133
286.58533 15.562843 -41.011272
294.08755 10.496513 -65.22261
298.26312 6.566551 -84.93219
300.32034 3.851112 -97.55981
301.2704 2.497093 -104.40172
301.4537 2.079201 -108.42909
301.4537 2.079185 -108.42908
301.2524 2.130714 -111.5295
300.813 2.489738 -114.410934
300.21384 3.041191 -117.34823
299.68002 3.650978 -120.24783
299.68 3.650978 -120.24782
299.57925 4.057335 -122.436874
106.2683 -8.637917 354.39313
118.7058 -10.581062 345.46826
142.1897 -11.079628 338.88544
156.02951 -10.050941 333.91898
162.06018 -9.008385 330.5209
165.78665 -8.253059 328.23453
169.06458 -7.560722 326.1492
172.31442 -6.52636 323.66818
175.59692 -4.771812 320.30988
178.9307 -2.448204 315.99133
182.00897 0.005913 310.98608
185.03357 2.919884 304.36618
185.03357 2.919899 304.3662
189.32205 7.590828 292.09717
195.18436 14.141487 269.11505
195.18439 14.141487 269.1151
202.40878 21.69439 231.79178
208.2143 30.154243 189.78586
208.2143 30.154259 189.78592
212.01495 39.37168 154.09831
211.63141 41.018883 128.18433
211.63144 41.018913 128.18436
216.47012 35.883568 107.28406
233.4039 33.62905 87.60854
250.60007 36.49874 69.15415
258.81635 37.95211 50.741875
258.81638 37.952126 50.74192
264.73398 34.162453 30.228643
271.83755 28.466545 7.497921
278.51987 21.962212 -16.051386
286.5064 15.754478 -41.084187
286.50638 15.754478 -41.08413
294.0071 10.688255 -65.28752
298.17938 6.752663 -84.98656
300.23547 4.035591 -97.61379
301.18192 2.685265 -104.44655
301.36194 2.268089 -108.44967
301.3619 2.268074 -108.449646
301.1627 2.316032 -111.52091
300.7289 2.668953 -114.377495
300.13495 3.215508 -117.30099
299.6045 3.81823 -120.199394
299.60443 3.81823 -120.19939
299.50632 4.210213 -122.40203
106.2683 -8.637917 354.3931
118.796684 -10.084221 345.44998
142.21945 -10.58799 338.89078
155.99655 -9.579521 333.94733
162.00638 -8.553642 330.56332
165.72775 -7.807396 328.28204
169.00537 -7.122231 326.1982
172.2438 -6.099113 323.73477
175.50735 -4.359352 320.41293
178.83871 -2.045982 316.12128
181.93219 0.405739 311.1238
184.97452 3.318047 304.50705
184.97452 3.318031 304.50705
189.2797 7.972527 292.23038
195.16376 14.48864 269.2154
195.16376 14.48864 269.21542
202.40189 22.04142 231.8614
208.21335 30.466606 189.84657
208.21335 30.466621 189.84663
212.01022 39.67373 154.18073
211.6199 41.333183 128.19624
211.61993 41.333214 128.19626
216.44614 36.21128 107.19093
233.35379 33.95022 87.5095
250.51834 36.790672 69.117134
258.72623 38.227272 50.72318
258.72623 38.227287 50.72323
264.66617 34.42228 30.165848
271.7839 28.69915 7.424026
278.47058 22.173729 -16.12372
286.46213 15.948097 -41.146797
286.46207 15.948097 -41.14674
293.96103 10.882011 -65.34224
298.1297 6.940697 -85.03428
300.18472 4.221947 -97.66256
301.1282 2.875328 -104.4874
301.30484 2.458946 -108.46927
301.3048 2.458946 -108.46926
301.10684 2.503273 -111.51474
300.67752 2.85006 -114.34902
300.08792 3.39164 -117.25997
299.55963 3.98719 -120.15657
299.55963 3.987175 -120.156555
299.4617 4.36483 -122.36929
300.43774 4.640282 -123.20525
300.4377 4.640266 -123.20525
106.26827 -8.637947 354.39307
118.948845 -9.600471 345.5069
142.29086 -10.111671 338.97778
155.99951 -9.122826 334.0509
161.99573 -8.113075 330.6747
165.71356 -7.375603 328.39597
168.99109 -6.69738 326.31195
172.22226 -5.685158 323.86136
175.47476 -3.95974 320.56754
178.80966 -1.656242 316.29483
181.9223 0.793083 311.2977
184.98544 3.703758 304.67636
184.98541 3.703758 304.67636
189.30612 8.342323 292.38483
195.20587 14.825005 269.32913
195.2059 14.824989 269.32916
202.457 22.377647 231.94075
208.26855 30.769188 189.91206
208.26855 30.769173 189.91212
212.06125 39.966377 154.26547
211.6647 41.63772 128.20302
211.66473 41.637733 128.20303
216.47485 36.528435 107.111176
233.34741 34.260674 87.45095
250.47635 37.072853 69.11603
258.68307 38.493248 50.725666
258.68307 38.49328 50.725708
264.64526 34.673393 30.118023
271.7722 28.923943 7.364821
278.46 22.378181 -16.183308
286.45276 16.135277 -41.196968
286.4527 16.135277 -41.196907
293.94965 11.069313 -65.384926
298.1146 7.12249 -85.07364
300.16876 4.402122 -97.70424
301.10992 3.05909 -104.522675
301.28336 2.643425 -108.48709
301.28336 2.643425 -108.48707
301.0857 2.684288 -111.5111
300.6595 3.025124 -114.32651
300.07324 3.561897 -117.22669
299.54593 4.150536 -120.12095
299.54587 4.150505 -120.12094
299.44516 4.514931 -122.33983
119.15829 -9.121056 345.63513
142.4 -9.64193 339.13943
156.03479 -8.672417 334.22363
162.02362 -7.678612 330.84982
165.73929 -6.949776 328.57126
169.01709 -6.278419 326.48553
172.2445 -5.276955 324.04364
175.49292 -3.565651 320.77087
178.83682 -1.271904 316.51022
181.97247 1.175087 311.5067
185.05933 4.084145 304.87384
185.05933 4.084129 304.87387
189.3948 8.707054 292.5607
195.30505 15.1567 269.4567
195.30505 15.1567 269.45673
202.56863 22.709267 232.03006
208.375 31.067604 189.98285
208.37503 31.06762 189.9829
212.16327 40.254982 154.35355
211.76086 41.937737 128.20538
211.7609 41.937737 128.20541
216.55249 36.836494 107.044426
233.38254 34.558205 87.43145
250.4725 37.343056 69.14907
258.685 38.747948 50.748234
258.68506 38.747963 50.748272
264.66922 34.913887 30.08487
271.80063 29.139183 7.320119
278.48642 22.573967 -16.230253
286.47678 16.314537 -41.234867
286.47675 16.314537 -41.23481
293.97147 11.24868 -65.415825
298.13254 7.296577 -85.10467
300.18604 4.574623 -97.73879
301.12567 3.234993 -104.55232
301.29602 2.820061 -108.50305
301.296 2.820061 -108.503044
301.09787 2.857613 -111.50997
300.67346 3.192757 -114.309906
300.0895 3.724922 -117.2011
299.56195 4.306953 -120.09255
299.56195 4.306938 -120.09253
299.4548 4.659508 -122.31371
119.42519 -8.644798 345.83832
142.5462 -9.177742 339.3763
156.10251 -8.227333 334.46603
162.09024 -7.249229 331.0891
165.805 -6.528999 328.80838
169.08328 -5.864433 326.71945
172.31058 -4.873573 324.28214
175.56183 -3.176231 321.0233
178.9202 -0.892159 316.76785
182.08282 1.552589 311.7513
185.19638 4.46003 305.09995
185.19641 4.46003 305.09995
189.5459 9.067421 292.75842
195.46143 15.484428 269.59833
195.46146 15.484428 269.59836
202.73703 23.036934 232.12953
208.53302 31.362495 190.059
208.53305 31.36251 190.05907
212.31638 40.540154 154.44518
211.90854 42.234016 128.20323
211.90857 42.234016 128.20326
216.67725 37.13862 106.98823
233.45569 34.84806 87.44683
250.50299 37.606133 69.21332
258.72766 38.995903 50.78918
258.72766 38.99592 50.789227
264.73392 35.148064 30.06447
271.8655 29.348808 7.287855
278.54642 22.764595 -16.266449
286.53107 16.489052 -41.262184
286.53104 16.489052 -41.262123
294.02338 11.423302 -65.43646
298.18048 7.466057 -85.128586
300.23346 4.742592 -97.76738
301.17212 3.406273 -104.57732
301.33942 2.992043 -108.51756
301.33942 2.992027 -108.51754
301.14 3.026375 -111.51104
300.7163 3.355965 -114.298416
300.13382 3.883644 -117.18207
299.60507 4.459236 -120.07021
299.605 4.459251 -120.070206
299.48874 4.801003 -122.29026
106.2683 -8.637932 354.39313
119.754234 -8.17971 346.1278
142.73273 -8.726906 339.69778
156.20724 -7.795052 334.7865
162.2012 -6.832253 331.40012
165.91669 -6.120323 329.1146
169.1958 -5.462334 327.0207
172.42712 -4.481743 324.583
175.6893 -2.797997 321.32965
179.06827 -0.523262 317.07132
182.26205 1.919228 312.03406
185.40561 4.825066 305.35623
185.40561 4.825081 305.35623
189.76807 9.417397 292.97885
195.68274 15.802773 269.75443
195.68271 15.802788 269.7545
202.96957 23.355171 232.23943
208.74911 31.648903 190.1404
208.74911 31.648903 190.14046
212.52722 40.817146 154.53961
212.1141 42.521935 128.19548
212.11407 42.52195 128.19553
216.85117 37.43467 106.94042
233.5647 35.134407 87.4942
250.56512 37.866096 69.30682
258.8079 39.240974 50.847443
258.8079 39.24099 50.847485
264.83655 35.379433 30.0555
271.96442 29.555931 7.266562
278.63794 22.95301 -16.293274
286.61383 16.661537 -41.280186
286.61377 16.661537 -41.280132
294.10345 11.595894 -65.44799
298.25635 7.633553 -85.146355
300.309 4.908592 -97.79093
301.24725 3.575584 -104.598366
301.4115 3.162025 -108.5309
301.41153 3.16201 -108.530876
301.21014 3.193138 -111.514114
300.7861 3.517235 -114.29134
300.20435 4.040504 -117.168724
299.67337 4.609779 -120.05315
299.67337 4.609764 -120.05314
299.54623 4.941597 -122.26898
300.4377 4.640282 -123.205246
120.15026 -7.739189 346.51773
142.96356 -8.299721 340.11588
156.35486 -7.385475 335.19568
162.36386 -6.437157 331.7923
166.08194 -5.733101 329.49884
169.36224 -5.081306 327.39795
172.60248 -4.110497 324.954
175.8852 -2.439598 321.69592
179.29187 -0.173729 317.425
182.52136 2.266624 312.35797
185.69827 5.171028 305.64468
185.69827 5.171043 305.6447
190.07214 9.749046 293.2229
195.97855 16.104393 269.92532
195.97858 16.104393 269.92535
203.2756 23.6567 232.36009
209.03168 31.92028 190.22678
209.03168 31.920296 190.22684
212.80414 41.079582 154.6359
212.38577 42.79516 128.18095
212.38577 42.795174 128.18098
217.07913 37.720955 106.90102
233.71118 35.41622 87.57485
250.66028 38.122353 69.43074
258.92725 39.482506 50.923634
258.92728 39.48252 50.923683
264.97864 35.607536 30.058458
272.0988 29.760048 7.256777
278.7621 23.138695 -16.310266
286.726 16.83155 -41.288475
286.72592 16.83155 -41.288418
294.2128 11.766029 -65.45002
298.36127 7.798653 -85.15764
300.4137 5.072182 -97.80915
301.3521 3.742439 -104.6153
301.51343 3.329552 -108.54302
301.51343 3.329536 -108.543015
301.3094 3.357475 -111.519295
300.88397 3.67617 -114.28896
300.30206 4.195137 -117.161385
299.76785 4.758156 -120.0416
299.7678 4.758125 -120.041595
299.62918 5.08091 -122.25011
120.615685 -7.341835 347.02084
143.24213 -7.9067 340.6427
156.55112 -7.008598 335.7043
162.58548 -6.073601 332.27527
166.30838 -5.376823 329.97028
169.59027 -4.730782 327.8601
172.8453 -3.768929 325.40308
176.15952 -2.109856 322.12808
179.60196 0.14785 317.8332
182.87207 2.586296 312.72635
186.08578 5.489326 305.96722
190.46915 10.054161 293.4916
196.35867 16.38192 270.11136
196.35867 16.38192 270.1114
203.66449 23.934135 232.49179
209.3891 32.169975 190.3178
209.38913 32.169975 190.31786
213.15555 41.321053 154.73293
212.73215 43.04696 128.15858
212.73218 43.04699 128.15862
217.36798 37.991127 106.87224
233.90002 35.687965 87.693825
250.79321 38.36982 69.58886
259.0914 39.715782 51.019993
259.09146 39.715797 51.02004
265.1655 35.827827 30.07556
272.2731 29.957253 7.260867
278.92313 23.318047 -16.315243
286.87143 16.99572 -41.28498
286.8714 16.99572 -41.284927
294.3552 11.930321 -65.44067
298.49908 7.958122 -85.16102
300.55148 5.230202 -97.820694
301.49075 3.903572 -104.62699
301.6493 3.491341 -108.55352
301.64926 3.491341 -108.553505
301.44174 3.516212 -111.52693
301.01355 3.829735 -114.29224
300.43054 4.34449 -117.16135
299.89194 4.901436 -120.03689
299.8919 4.901451 -120.03688
299.74167 5.216026 -122.234505
300.43774 4.640266 -123.20525
106.2683 -8.637932 354.39307
121.14474 -7.021706 347.64236
143.57016 -7.573021 341.28955
156.80273 -6.688576 336.32175
162.87466 -5.764946 332.85687
166.60507 -5.074318 330.53613
169.889 -4.433113 328.4141
173.16565 -3.47892 325.9355
176.52454 -1.829857 322.6286
180.01172 0.420891 318.29596
183.32715 2.857674 313.13763
186.58072 5.75956 306.32117
186.58075 5.75956 306.3212
190.97073 10.313255 293.78165
196.83276 16.617561 270.3097
196.8328 16.617577 270.30972
204.14523 24.169716 232.63264
209.82935 32.381996 190.41132
209.82935 32.381996 190.41138
213.58954 41.526085 154.82724
213.16165 43.261696 128.12688
213.16165 43.26171 128.1269
217.7248 38.233818 106.857506
234.13654 35.94303 87.85704
250.96927 38.602806 69.78551
259.3066 39.93537 51.13905
259.3066 39.935402 51.139095
265.403 36.035194 30.109436
272.49274 30.14286 7.281518
279.12582 23.48687 -16.305746
287.05457 17.150276 -41.267414
287.05453 17.150276 -41.26736
294.53506 12.084953 -65.417755
298.67422 8.108177 -85.154816
300.72684 5.378929 -97.82401
301.66776 4.05526 -104.632195
301.82358 3.643639 -108.56184
301.82352 3.643623 -108.56182
301.6116 3.665657 -111.53737
301.17923 3.974266 -114.30223
300.594 4.485069 -117.170074
300.04968 5.036293 -120.040405
300.04968 5.036308 -120.04039
299.8879 5.342491 -122.22331
300.43768 4.640266 -123.20524
121.70348 -6.866631 348.3624
143.93509 -7.402901 342.0445
157.11197 -6.525383 337.03207
163.23746 -5.607521 333.51883
166.97888 -4.919991 331.17734
170.26544 -4.281288 329.0407
173.57245 -3.331001 326.529
176.99207 -1.687035 323.16837
180.53275 0.560188 318.77945
183.89447 2.996117 313.55743
187.18677 5.897408 306.6725
187.18677 5.897392 306.67252
191.57703 10.445442 294.06152
197.39713 16.737785 270.49692
197.39713 16.737785 270.49695
204.71121 24.289879 232.76633
210.34515 32.49015 190.49356
210.34515 32.49015 190.4936
214.09976 41.630684 154.90067
213.66946 43.37484 128.08339
213.66946 43.374855 128.08342
218.15033 38.4121 106.86692
234.42587 36.172966 88.07087
251.19412 38.815468 70.025055
259.57925 40.13584 51.28326
259.57928 40.135857 51.283306
265.69717 36.224434 30.162619
272.76285 30.312294 7.321479
279.37515 23.640953 -16.279215
287.27972 17.291344 -41.233467
287.27966 17.291328 -41.233414
294.7567 12.226128 -65.379196
298.89117 8.245216 -85.13741
300.9442 5.514702 -97.81761
301.8877 4.193718 -104.62969
302.04102 3.782677 -108.5675
302.041 3.782661 -108.56749
301.82352 3.802071 -111.55099
301.3853 4.106194 -114.32005
300.79657 4.61335 -117.18907
300.24512 5.159386 -120.05363
300.24512 5.159386 -120.05361
300.0711 5.454353 -122.21799
300.43774 4.640282 -123.205246
122.198204 -7.005577 349.09232
144.27505 -7.572868 342.79242
157.44247 -6.688469 337.71957
163.63577 -5.764809 334.14856
167.39163 -5.074165 331.7829
170.68106 -4.433006 329.63068
174.02625 -3.478813 327.07376
177.51941 -1.82975 323.63455
181.11499 0.420998 319.17108
184.5123 2.857765 313.88016
187.83084 5.759651 306.92493
187.83084 5.759666 306.92493
192.20984 10.313377 294.24817
197.9732 16.617683 270.6141
197.9732 16.617683 270.61414
205.27942 24.169807 232.8514
210.85938 32.382072 190.53352
210.85938 32.382088 190.53357
214.61096 41.52616 154.91687
214.18433 43.27671 128.03082
214.1843 43.276726 128.03085
218.60971 38.458458 106.925385
234.76816 36.354546 88.342316
251.47217 38.989494 70.30929
259.91434 40.299873 51.453514
259.9144 40.29989 51.45356
266.05167 36.379326 30.238882
273.08618 30.450935 7.385232
279.67355 23.767082 -16.231314
287.5491 17.406792 -41.17939
287.54904 17.406792 -41.179337
295.02258 12.341652 -65.321686
299.1524 8.357353 -85.10592
301.20627 5.625862 -97.79849
302.15344 4.307076 -104.61695
302.3047 3.896492 -108.56925
302.3047 3.896477 -108.56924
302.08063 3.913704 -111.56806
301.63458 4.214134 -114.347374
301.04074 4.718361 -117.22072
300.48056 5.260109 -120.0791
300.48056 5.260109 -120.079094
300.29025 5.539848 -122.22069
122.595024 -7.323402 349.74832
144.55606 -7.921532 343.43967
157.74289 -7.022926 338.30496
164.0036 -6.087456 334.678
167.77414 -5.390373 332.28925
171.06613 -4.744118 330.12286
174.44907 -3.78196 327.51953
178.01389 -2.122398 323.9972
181.65814 0.135612 319.458
185.08011 2.574074 314.10403
188.41428 5.47718 307.0865
188.41425 5.47718 307.08652
192.77664 10.042564 294.35574
198.48184 16.37136 270.67477
198.48187 16.37136 270.67484
205.7756 23.923592 232.89677
211.30618 32.160484 190.54337
211.30621 32.160484 190.54341
215.05673 41.31185 154.8972
214.63824 43.063118 127.98187
214.63828 43.063133 127.981895
219.05185 38.367577 107.0386
235.14029 36.38624 88.66891
251.79651 39.026253 70.61833
260.30118 40.334496 51.63693
260.3012 40.33454 51.63697
266.4475 36.412025 30.347431
273.4434 30.480217 7.48637
280.00305 23.793709 -16.147186
287.84644 17.431175 -41.093655
287.8464 17.431175 -41.093594
295.3172 12.366051 -65.23625
299.444 8.381035 -85.05053
301.49918 5.64933 -97.755325
302.45157 4.331017 -104.58414
302.6024 3.920525 -108.56155
302.60236 3.920509 -108.56153
302.37094 3.937279 -111.58858
301.91467 4.236916 -114.38915
301.31354 4.740517 -117.27302
300.7433 5.28141 -120.12595
300.7433 5.28138 -120.125946
300.5327 5.558907 -122.237885
106.26833 -8.637917 354.39313
122.89886 -7.715233 350.29752
144.77802 -8.316078 343.96768
157.9957 -7.401283 338.7772
164.31635 -6.452415 335.10138
168.09995 -5.748085 332.6926
171.39417 -5.096062 330.51434
174.81052 -4.124855 327.86914
178.43811 -2.453423 324.27072
182.12271 -0.187233 319.66364
185.56146 2.253181 314.25644
188.90439 5.157661 307.18723
188.90439 5.157646 307.18723
193.24948 9.736229 294.41397
198.90234 16.09272 270.70203
198.90234 16.09272 270.7021
206.1828 23.645073 232.91833
211.67169 31.909813 190.5379
211.67169 31.909828 190.53795
215.42221 41.06945 154.8628
215.01276 42.81527 127.9409
215.01279 42.815285 127.94093
219.43158 38.171104 107.17704
235.483 36.250465 88.99828
252.11551 38.906563 70.901085
260.6779 40.221703 51.803024
260.67792 40.221718 51.803074
266.82034 36.305504 30.472525
273.77585 30.384865 7.610888
280.30966 23.706993 -16.037968
288.1231 17.351799 -40.988075
288.12305 17.351784 -40.98802
295.59244 12.286598 -65.13504
299.71854 8.303917 -84.97855
301.77533 5.572914 -97.69325
302.73373 4.253075 -104.53503
302.88586 3.842247 -108.544876
302.88583 3.842232 -108.54486
302.64755 3.860497 -111.6093
302.18027 4.162666 -114.43953
301.57062 4.668327 -117.33886
300.99075 5.212166 -120.18808
300.9907 5.212151 -120.18807
300.76553 5.503441 -122.26819
106.26827 -8.637932 354.3931
123.118675 -8.156609 350.7389
144.94858 -8.744438 344.38785
158.20508 -7.811989 339.14758
164.57834 -6.848579 335.42953
168.3736 -6.13636 333.00366
171.66965 -5.478081 330.81552
175.11526 -4.497124 328.13284
178.7973 -2.812828 324.46527
182.51465 -0.537712 319.7978
185.96332 1.904854 314.34628
189.30914 4.810768 307.23514
189.30914 4.810783 307.23514
193.63663 9.403679 294.42975
199.24268 15.790291 270.7007
199.24268 15.790306 270.70074
206.5094 23.342705 232.91953
211.9636 31.637672 190.51953
211.96362 31.637688 190.51959
215.715 40.806267 154.81635
215.31406 42.54354 127.9057
215.31409 42.543556 127.90573
219.73618 37.917824 107.31245
235.76398 36.029747 89.28636
252.38956 38.707787 71.131065
260.99924 40.03434 51.936993
260.9993 40.034355 51.937046
267.13058 36.128563 30.591307
274.05 30.226479 7.733306
280.56235 23.56292 -15.927823
288.351 17.219917 -40.884274
288.35098 17.219917 -40.88422
295.81992 12.15464 -65.03749
299.94678 8.17585 -84.90593
302.00522 5.445976 -97.6278
302.96933 4.123619 -104.48241
303.12372 3.712257 -108.52489
303.1237 3.712242 -108.52488
302.8797 3.732979 -111.62739
302.40237 4.03936 -114.48851
301.78458 4.548363 -117.404274
301.19653 5.097054 -120.25134
301.1965 5.097054 -120.25133
300.9651 5.403847 -122.30377
123.2662 -8.62748 351.08105
145.07477 -9.196007 344.71228
158.3754 -8.244942 339.42783
164.7945 -7.266243 335.67365
168.60004 -6.545692 333.23322
171.89761 -5.880821 331.03708
175.36868 -4.889534 328.32108
179.09753 -3.191689 324.59103
182.84088 -0.907188 319.8702
186.29349 1.537605 314.38245
189.6373 4.445107 307.2381
193.94702 9.053123 294.40967
199.5115 15.471474 270.6753
199.51154 15.471489 270.67532
206.76425 23.023949 232.9035
212.19019 31.350777 190.49054
212.19019 31.350777 190.49059
215.94315 40.5288 154.7603
215.55014 42.256554 127.87531
215.55017 42.256554 127.87535
219.974 37.64248 107.43673
235.98712 35.781822 89.52711
252.61545 38.483833 71.31244
261.26263 39.823235 52.041927
261.26263 39.82325 52.041973
267.37985 35.929253 30.696264
274.2686 30.048042 7.843841
280.76382 23.400642 -15.826859
288.53268 17.071327 -40.790577
288.53265 17.071327 -40.79052
296.0017 12.005943 -64.95047
300.1301 8.031548 -84.839355
302.1901 5.303001 -97.56632
303.15924 3.977821 -104.43256
303.31616 3.565865 -108.50489
303.31613 3.565849 -108.50488
303.06754 3.589348 -111.64252
302.58154 3.900444 -114.53249
301.95654 4.413261 -117.463776
301.36188 4.967445 -120.30969
301.36185 4.967415 -120.30968
301.12738 5.284416 -122.33983
300.4377 4.640251 -123.20524
106.26824 -8.637962 354.39304
123.35302 -9.112648 351.33557
145.07477 -9.195992 344.71228
145.16278 -9.660484 344.95273
158.37543 -8.244942 339.42786
158.51093 -8.690269 339.62943
164.96967 -7.695824 335.8446
168.60004 -6.545677 333.23322
168.78415 -6.966667 333.39206
171.89764 -5.880821 331.03708
172.08301 -6.295021 331.1895
175.36871 -4.889534 328.32108
175.57599 -5.293144 328.44412
179.09756 -3.191689 324.59103
179.34464 -3.581322 324.65802
182.84091 -0.907188 319.87024
183.10797 -1.287178 319.8904
186.29349 1.537621 314.38248
186.55963 1.159935 314.3736
189.6373 4.445122 307.23813
189.89728 4.069054 307.20364
189.89728 4.069038 307.20364
193.94705 9.053123 294.40967
194.18951 8.692558 294.36002
199.5115 15.471458 270.6753
199.71738 15.143532 270.63025
199.51154 15.471474 270.67535
199.71738 15.143532 270.6303
206.76428 23.023949 232.9035
206.95609 22.696114 232.87347
212.19019 31.350777 190.49052
212.35931 31.055717 190.45312
212.19022 31.350777 190.49059
212.35934 31.055733 190.45317
215.94318 40.528816 154.7603
216.11444 40.24346 154.69707
215.55014 42.25657 127.87532
215.72882 41.960945 127.849266
215.55017 42.25657 127.87535
215.72879 41.960976 127.84929
219.97397 37.642494 107.43674
220.15271 37.352974 107.54966
236.15851 35.515175 89.72456
252.61545 38.48385 71.31244
252.79755 38.242577 71.45043
261.47348 39.595833 52.120968
261.26263 39.823265 52.041973
261.4735 39.595848 52.121017
267.37988 35.929253 30.696264
267.57443 35.71453 30.788034
274.4376 29.855858 7.942707
280.76385 23.400642 -15.82686
280.91946 23.225807 -15.735153
288.53268 17.071342 -40.79058
288.673 16.911263 -40.706764
288.53265 17.071327 -40.790524
288.67297 16.911247 -40.706707
296.00174 12.005959 -64.950485
296.14267 11.845787 -64.8736
300.13016 8.031548 -84.839355
300.27316 7.876106 -84.77885
302.19012 5.303001 -97.56633
302.3345 5.148964 -97.509125
303.15924 3.977821 -104.43257
303.308 3.820747 -104.38585
303.3162 3.565865 -108.5049
303.46768 3.408134 -108.48524
303.31616 3.565849 -108.50489
303.46765 3.408119 -108.48523
303.2155 3.434578 -111.65492
302.58157 3.900459 -114.53249
302.72214 3.750771 -114.57159
301.95657 4.413261 -117.463776
302.09082 4.267708 -117.51735
301.36188 4.967445 -120.309685
301.49084 4.827766 -120.36295
301.36188 4.96743 -120.30968
301.4908 4.827766 -120.36295
301.1274 5.284401 -122.33982
301.25363 5.152596 -122.37512
300.43765 4.640251 -123.20523
123.35305 -9.112633 351.3356
123.38787 -9.602913 351.51245
145.16284 -9.660469 344.95276
145.2175 -10.130516 345.11813
158.51096 -8.690239 339.62943
158.61499 -9.140938 339.7609
164.9697 -7.695808 335.84464
165.10748 -8.130547 335.95062
168.78421 -6.966652 333.39206
168.92972 -7.392723 333.4881
172.08304 -6.295006 331.18954
172.22952 -6.714211 331.28073
175.57602 -5.293114 328.44415
175.74121 -5.701576 328.50955
179.34464 -3.581291 324.65808
179.54315 -3.975609 324.67365
183.10797 -1.287163 319.89044
183.3211 -1.6717 319.8655
186.55966 1.15995 314.37366
186.76752 0.777748 314.3262
189.89731 4.069069 307.20367
190.09561 3.688454 307.13754
189.89731 4.069054 307.20367
190.09558 3.688469 307.13754
194.18954 8.692574 294.36002
194.37064 8.32769 294.2856
199.7174 15.143547 270.63025
199.86655 14.811684 270.5689
199.7174 15.143547 270.6303
199.86655 14.811684 270.56897
206.95609 22.696129 232.8735
207.09143 22.364342 232.83177
212.35934 31.055748 190.45314
212.47708 30.757195 190.40895
212.35934 31.055748 190.45322
212.47711 30.75718 190.40903
216.11447 40.243477 154.69708
216.23483 39.954735 154.62846
215.72885 41.960976 127.84928
215.85605 41.66149 127.82735
215.72885 41.96099 127.849304
215.85605 41.661507 127.82738
220.15274 37.35299 107.54966
220.27917 37.054955 107.65192
236.15854 35.51519 89.72457
236.28445 35.2362 89.883316
252.79755 38.24259 71.45045
252.94073 37.98989 71.550354
261.4735 39.595848 52.12097
261.63773 39.357613 52.177322
261.4735 39.595863 52.12102
261.63776 39.357628 52.177372
267.72067 35.489586 30.867596
274.43762 29.855873 7.942707
274.56284 29.654518 8.03058
280.91953 23.225822 -15.735155
281.03485 23.042671 -15.652362
288.67303 16.911293 -40.706768
288.77695 16.74363 -40.632282
288.673 16.911293 -40.706715
288.77692 16.743614 -40.632225
296.14273 11.845818 -64.87361
296.24765 11.678062 -64.80623
300.27322 7.876137 -84.77886
300.38068 7.713326 -84.72426
302.33453 5.148979 -97.50914
302.44324 4.987617 -97.45625
303.30804 3.820747 -104.38586
303.4206 3.656151 -104.34227
303.4677 3.40815 -108.485245
303.58316 3.242897 -108.46608
303.5831 3.242882 -108.466064
303.21555 3.434593 -111.65492
303.32828 3.272469 -111.6649
302.72214 3.750801 -114.57159
302.82867 3.594002 -114.60608
302.09085 4.267738 -117.51735
302.1919 4.115211 -117.56529
301.49084 4.827782 -120.36296
301.5878 4.681435 -120.41133
301.58777 4.68145 -120.41132
301.2537 5.152626 -122.37513
301.3478 5.013893 -122.40906
300.43768 4.640266 -123.205246
123.372826 -10.098686 351.61523
145.2391 -10.607262 345.20895
158.68784 -9.598015 339.8227
165.20828 -8.57148 335.992
169.03708 -7.824852 333.5217
172.33755 -7.139412 331.31097
175.86465 -6.115868 328.5177
179.69354 -4.375557 324.63803
183.48074 -2.061775 319.79544
186.9177 0.390053 314.24005
190.23273 3.302406 307.03952
194.49094 7.957558 294.18625
199.95938 14.47506 270.4911
199.95941 14.47506 270.49112
207.1705 22.027855 232.77824
212.54382 30.454353 190.35791
212.54382 30.454369 190.35796
216.30469 39.66189 154.5543
215.93243 41.357674 127.8096
215.93243 41.35769 127.80963
220.35724 36.75132 107.74531
236.37051 34.950706 90.007774
253.04947 37.73118 71.61726
261.76096 39.113777 52.214108
261.761 39.113808 52.214157
267.82483 35.259346 30.935934
274.64996 29.448418 8.10808
281.115 22.855217 -15.578134
288.84912 16.57203 -40.566612
288.8491 16.57203 -40.56656
296.3211 11.506371 -64.747696
300.4571 7.546669 -84.6753
302.5207 4.822487 -97.40771
303.5013 3.487755 -104.30199
303.66678 3.073799 -108.44764
303.66678 3.073784 -108.447624
303.41006 3.106529 -111.672714
302.90533 3.43351 -114.63621
302.2639 3.959114 -117.60785
301.65677 4.531685 -120.45498
301.65677 4.531685 -120.45496
301.41406 4.872231 -122.44122
123.30361 -10.60836 351.64056
145.22406 -11.099693 345.218
158.72705 -10.070152 339.8077
165.26947 -9.026924 335.962
169.10358 -8.271233 333.48608
172.40445 -7.578606 331.27353
175.9436 -6.543816 328.46185
179.79279 -4.788673 324.54446
183.58344 -2.464653 319.67368
187.00595 -0.010414 314.1092
190.3038 2.903664 306.90424
190.3038 2.903648 306.90427
194.54523 7.575279 294.0573
199.991 14.127327 270.39352
199.99103 14.127342 270.3936
207.18826 21.68023 232.7106
212.55457 30.141518 190.29823
212.55457 30.141518 190.29828
216.31915 39.359337 154.47261
215.95355 41.04406 127.7963
215.95355 41.04406 127.796326
220.38702 36.44117 107.83229
236.42032 34.662163 90.10099
253.12692 37.469902 71.65444
261.8468 38.8675 52.23322
261.8468 38.86753 52.23327
267.89072 35.02677 30.993616
274.7027 29.240227 8.175625
281.16345 22.66587 -15.512202
288.89273 16.39869 -40.509377
288.89267 16.39869 -40.50932
296.36627 11.332893 -64.69751
300.50537 7.378304 -84.63177
302.56992 4.655632 -97.36342
303.55328 3.317619 -104.26496
303.7218 2.902977 -108.42999
303.72177 2.902977 -108.42998
303.46387 2.938927 -111.67852
302.95502 3.271416 -114.66228
302.30954 3.801476 -117.64529
301.70038 4.380394 -120.49395
301.70032 4.380394 -120.49395
301.4555 4.729637 -122.47146
123.30358 -10.60836 351.64056
123.17443 -11.138069 351.58188
145.22403 -11.099709 345.21796
145.16855 -11.61451 345.13763
158.72708 -10.070168 339.80768
158.72998 -10.563774 339.7085
165.26944 -9.026924 335.96198
165.28796 -9.503105 335.8534
169.10355 -8.271233 333.48608
169.12613 -8.737892 333.37442
172.40442 -7.578606 331.27353
172.42712 -8.037743 331.16174
175.9436 -6.543831 328.46182
175.97476 -6.991188 328.3355
179.79279 -4.788689 324.54443
179.83704 -5.220573 324.38654
183.58344 -2.464668 319.67368
183.62488 -2.885887 319.4941
187.00592 -0.010445 314.10916
187.02744 -0.4291 313.92798
190.30377 2.903648 306.90424
190.30347 2.486763 306.72675
190.30347 2.486778 306.72678
194.52795 7.175591 293.89465
199.9559 13.763817 270.2734
199.9559 13.763817 270.27347
207.13907 21.316826 232.62688
212.55457 30.141518 190.29825
212.50436 29.81446 190.22859
212.5044 29.81446 190.22864
216.27335 39.043053 154.38185
215.91455 40.71644 127.78771
215.91458 40.716454 127.787735
220.36542 36.12101 107.913704
236.42035 34.662163 90.10099
236.43268 34.368004 90.16227
253.17221 37.203804 71.66082
261.84677 38.8675 52.233215
261.89426 38.616707 52.234028
261.8468 38.86753 52.233265
261.89426 38.616722 52.234074
267.8907 35.02677 30.993616
267.9173 34.789986 31.040695
274.70264 29.240227 8.175625
274.71988 29.028267 8.233358
281.16342 22.66587 -15.512202
281.17905 22.47306 -15.454383
288.8927 16.39869 -40.509377
288.90665 16.22219 -40.460423
288.89264 16.39869 -40.50932
288.90662 16.22219 -40.460365
296.38205 11.156288 -64.65562
300.52466 7.206902 -84.59359
302.5699 4.655617 -97.36342
302.59003 4.485756 -97.32328
303.57565 3.144356 -104.231064
303.72183 2.902992 -108.42999
303.74725 2.729012 -108.41301
303.7218 2.902977 -108.42998
303.74722 2.728996 -108.412994
303.4639 2.938911 -111.67852
303.48886 2.768242 -111.68227
302.95502 3.2714 -114.66228
302.97687 3.106361 -114.68424
302.3095 3.80146 -117.64528
302.32812 3.640968 -117.67762
301.70035 4.380394 -120.49395
301.7178 4.226402 -120.52843
301.70032 4.380394 -120.49394
301.7178 4.226402 -120.52841
301.4555 4.729637 -122.47145
301.47263 4.585167 -122.49999
123.17443 -11.138054 351.58188
122.98287 -11.678307 351.43433
145.07144 -12.14222 344.9657
158.69482 -11.069756 339.5235
165.2616 -9.991203 335.665
169.12616 -8.737892 333.37442
169.10239 -9.21627 333.18555
172.4031 -8.508415 330.9746
175.95541 -7.449791 328.13812
179.83707 -5.220573 324.38654
179.82324 -5.663292 324.1647
183.62488 -2.885872 319.4941
183.60156 -3.317619 319.25784
187.02744 -0.429085 313.92798
186.97876 -0.858208 313.69803
190.30347 2.486778 306.72675
190.22858 2.059441 306.5088
190.22855 2.059456 306.50882
194.52795 7.175606 293.89465
194.4364 6.765892 293.70007
199.9559 13.763832 270.2734
199.85193 13.391182 270.13205
199.95587 13.763832 270.27347
199.85196 13.391182 270.1321
207.13907 21.316841 232.62688
207.02112 20.944267 232.52794
212.50433 29.814476 190.2286
212.39145 29.47921 190.14993
212.50436 29.814476 190.22865
212.39148 29.47921 190.14996
216.27335 39.043068 154.38187
216.1654 38.71882 154.2835
215.91455 40.71644 127.78772
215.81348 40.38047 127.78435
215.91458 40.71647 127.78774
215.81348 40.380486 127.78437
220.28879 35.790947 107.98828
236.43268 34.368004 90.16226
236.40353 34.063118 90.1888
253.17221 37.203804 71.66081
253.18237 36.92785 71.63292
261.89426 38.61669 52.234028
261.89963 38.356606 52.214462
261.89426 38.616707 52.234074
261.89966 38.35662 52.214504
267.9173 34.789986 31.040697
267.90033 34.544426 31.076725
274.71988 29.028252 8.233358
274.69763 28.808434 8.281065
281.17905 22.47306 -15.454384
281.1584 22.273125 -15.4047
288.88782 16.039146 -40.420013
288.88776 16.039131 -40.41996
296.38208 11.156288 -64.65562
296.36545 10.973106 -64.6224
300.51193 7.029121 -84.56079
302.59003 4.485741 -97.32328
302.578 4.309547 -97.28708
303.57565 3.144341 -104.231064
303.56534 2.964668 -104.20005
303.74008 2.548637 -108.39652
303.74005 2.548622 -108.39651
303.4889 2.768242 -111.682274
303.48203 2.59127 -111.68387
302.9769 3.106377 -114.68426
302.968 2.935188 -114.70209
302.32816 3.640953 -117.67763
302.31674 3.47448 -117.70487
301.71783 4.226372 -120.528435
301.70642 4.066689 -120.55844
301.71783 4.226387 -120.52842
301.7064 4.066673 -120.558426
301.4639 4.43615 -122.527145
122.73223 -12.202232 351.1977
144.9346 -12.65583 344.7055
158.62115 -11.562263 339.25708
165.18887 -10.466255 335.40192
169.03064 -9.681847 332.92474
172.33084 -8.96653 330.71735
175.88336 -7.896156 327.87573
179.7482 -6.094185 323.88663
183.51074 -3.737862 318.97388
186.85818 -1.275917 313.4284
190.07843 1.643547 306.25943
190.07846 1.643547 306.25946
194.27072 6.367195 293.48187
199.6803 13.028526 269.9757
199.68033 13.028526 269.97574
206.83618 20.581703 232.41814
212.21796 29.152916 190.06577
212.21796 29.1529 190.06583
215.99722 38.403297 154.1822
215.65164 40.052742 127.78675
215.65167 40.052742 127.78678
220.15567 35.4582 108.05298
236.32944 33.745277 90.17766
253.15457 36.63949 71.56774
261.8596 38.084785 52.172672
261.8596 38.084816 52.172718
267.8362 34.287743 31.100986
274.63266 28.578682 8.318269
281.09818 22.064156 -15.363464
288.83328 15.847847 -40.38853
288.83325 15.847847 -40.388477
296.31354 10.78167 -64.59826
300.4644 6.843346 -84.533516
302.53104 4.12545 -97.25488
303.5195 2.776909 -104.172005
303.69754 2.360085 -108.38043
303.69754 2.360085 -108.38042
303.44073 2.406273 -111.683044
302.92575 2.756279 -114.71549
302.27277 3.300484 -117.72671
301.6637 3.899727 -120.58377
301.66367 3.899742 -120.583755
301.42703 4.28138 -122.552895
106.26827 -8.637947 354.3931
122.42919 -12.678154 350.87643
144.76077 -13.123863 344.3628
158.5091 -12.011024 338.91614
165.06909 -10.899132 335.07144
168.90997 -10.106071 332.5995
172.20929 -9.383934 330.3974
175.75723 -8.302895 327.5566
179.60992 -6.486885 323.5626
183.35043 -4.120796 318.65356
186.66507 -1.656502 313.13043
189.85382 1.264565 305.98972
189.85382 1.26458 305.98972
194.03275 6.003868 293.2503
199.44376 12.698097 269.81186
199.44376 12.698097 269.8119
206.58798 20.25135 232.30275
211.98746 28.855583 189.98051
211.98746 28.855598 189.98058
215.77228 38.11576 154.08363
215.43207 39.752953 127.79552
215.43207 39.752968 127.79555
219.96805 35.13778 108.10446
236.2109 33.42408 90.127625
253.08804 36.34704 71.46582
261.7734 37.80909 52.109055
261.7734 37.809105 52.109104
267.72488 34.027397 31.112268
274.5251 28.34568 8.34334
280.99872 21.852242 -15.332323
288.74338 15.653801 -40.36727
288.74332 15.653801 -40.367214
296.2265 10.587517 -64.58432
300.38208 6.65493 -84.51289
302.44916 3.938713 -97.22789
303.43814 2.586464 -104.147934
303.6196 2.168877 -108.3653
303.61954 2.168877 -108.365295
303.36487 2.218681 -111.67978
302.85016 2.574837 -114.72388
302.1963 3.12397 -117.742294
301.58957 3.7304 -120.60349
301.58957 3.730385 -120.603485
301.36108 4.125084 -122.57646
122.42919 -12.678169 350.8764
122.08218 -13.081001 350.47992
144.7608 -13.123848 344.3628
144.55429 -13.521797 343.94675
158.50912 -12.011009 338.91614
158.36084 -12.392601 338.51028
165.06912 -10.899132 335.07144
164.90417 -11.26722 334.68332
168.90997 -10.106056 332.5995
168.74219 -10.466835 332.21957
172.20929 -9.383919 330.3974
172.04028 -9.738853 330.0245
175.75726 -8.302895 327.5566
175.5787 -8.64872 327.1909
179.60992 -6.48687 323.5626
179.40991 -6.820732 323.20364
183.35043 -4.120796 318.6536
183.12271 -4.446404 318.30865
186.40259 -1.980141 312.8155
189.55911 0.942314 305.7104
189.85382 1.264565 305.98975
189.55914 0.942299 305.7104
194.03278 6.003868 293.25027
193.7276 5.694893 293.0147
199.44379 12.698097 269.81183
199.14807 12.417107 269.6473
199.44379 12.698097 269.8119
199.14807 12.417107 269.64734
206.58798 20.251335 232.30276
206.28287 19.970436 232.18652
211.98743 28.855568 189.98053
211.70605 28.602776 189.89792
211.98746 28.855583 189.98059
211.70609 28.602776 189.89798
215.49628 37.87127 153.9924
215.43207 39.752953 127.795525
215.16034 39.49685 127.81078
215.43207 39.752968 127.795555
215.16031 39.496864 127.810814
219.96805 35.13778 108.10447
219.7312 34.84693 108.13963
236.2109 33.42408 90.12763
236.05136 33.11721 90.03873
252.98389 36.066658 71.33015
261.7734 37.809105 52.10906
261.64267 37.544807 52.02561
261.77347 37.80912 52.109104
261.64267 37.544823 52.025658
267.7249 34.027397 31.11227
267.56934 33.77784 31.109028
274.5251 28.345665 8.343342
274.37796 28.122292 8.354017
280.99875 21.852242 -15.332323
280.86282 21.649086 -15.313771
288.74338 15.653831 -40.367275
288.62057 15.467812 -40.358242
288.74332 15.653831 -40.367218
288.6205 15.467812 -40.358185
296.22653 10.587532 -64.58431
296.10684 10.401421 -64.58212
300.3821 6.65493 -84.51289
300.26727 6.474281 -84.50057
302.4492 3.938713 -97.22789
302.33453 3.759712 -97.20801
303.43817 2.586464 -104.147934
303.3233 2.403908 -104.12944
303.6196 2.168892 -108.3653
303.508 1.985603 -108.35204
303.61957 2.168877 -108.365295
303.50797 1.985588 -108.352036
303.25623 2.038857 -111.67411
302.85016 2.574852 -114.72388
302.7431 2.400902 -114.726456
302.1963 3.123985 -117.74231
302.08936 2.954796 -117.750305
301.5896 3.730385 -120.6035
301.48615 3.568092 -120.61611
301.5896 3.730385 -120.60349
301.48615 3.568092 -120.616104
301.2671 3.975685 -122.59639
122.08218 -13.081032 350.47986
121.7011 -13.39518 350.0217
144.55429 -13.521812 343.9467
144.32071 -13.834724 343.47055
158.36084 -12.392601 338.51025
158.18076 -12.69265 338.05255
164.90417 -11.267235 334.6833
164.69897 -11.556679 334.25
168.74216 -10.46685 332.21954
168.5322 -10.750511 331.79712
172.04025 -9.738869 330.02448
171.82886 -10.017952 329.61057
175.57867 -8.648735 327.19083
175.35294 -8.920662 326.79034
179.40988 -6.820747 323.2036
179.15393 -7.083275 322.82156
183.12268 -4.446404 318.30865
182.83417 -4.702415 317.95065
186.07867 -2.234596 312.49426
189.55911 0.942284 305.71036
189.20343 0.688911 305.43082
189.55914 0.942284 305.71036
189.20346 0.688911 305.43082
193.72757 5.694893 293.0147
193.36475 5.451927 292.78314
199.14804 12.417091 269.64728
198.80243 12.196098 269.4877
199.14804 12.417107 269.64734
198.80243 12.196114 269.48773
206.28287 19.970436 232.18651
205.93048 19.749565 232.07338
211.70602 28.60276 189.8979
211.38263 28.403969 189.82083
211.70609 28.60276 189.89796
211.38263 28.403984 189.82088
215.49628 37.871254 153.99237
215.17798 37.678993 153.91173
215.16031 39.49682 127.810776
214.84488 39.294243 127.83196
215.16031 39.496834 127.8108
214.84491 39.294273 127.83199
219.7312 34.8469 108.139626
219.45258 34.600243 108.1557
236.05133 33.117195 90.03872
235.85504 32.842995 89.911766
252.98383 36.066643 71.33014
252.84366 35.81527 71.164635
261.6426 37.544792 52.025604
261.46973 37.30784 51.92481
261.6426 37.544807 52.025654
261.46976 37.307884 51.924854
267.5693 33.77781 31.109024
267.3732 33.5541 31.08983
274.37793 28.122276 8.354017
274.19516 27.92202 8.34818
280.86276 21.64907 -15.313769
280.694 21.466911 -15.310148
288.6205 15.467796 -40.35824
288.46808 15.301048 -40.36324
288.62048 15.467796 -40.35818
288.46802 15.301048 -40.363182
296.10678 10.401405 -64.582115
295.95746 10.234535 -64.59306
300.2672 6.474266 -84.50056
300.12256 6.312325 -84.49808
302.33447 3.759697 -97.208
302.18982 3.59922 -97.19705
303.32327 2.403908 -104.12944
303.17764 2.240242 -104.11818
303.50797 1.985603 -108.352036
303.3652 1.821266 -108.34155
303.50793 1.985588 -108.35203
303.36517 1.821266 -108.341545
303.25616 2.038841 -111.6741
303.11713 1.877632 -111.66602
302.743 2.400887 -114.72644
302.60696 2.244957 -114.72242
302.0893 2.954781 -117.75029
301.95447 2.803154 -117.749435
301.4861 3.568077 -120.616104
301.35583 3.422569 -120.6201
301.48615 3.568062 -120.6161
301.3558 3.422569 -120.620094
301.26706 3.97567 -122.596375
301.14725 3.841972 -122.61115
300.43768 4.640251 -123.20524
300.43768 4.640266 -123.20525
121.29693 -13.610329 349.51718
144.06662 -14.052086 342.94946
157.97467 -12.9011 337.5576
164.46011 -11.757759 333.78546
168.28674 -10.947609 331.34583
171.58167 -10.211876 329.16904
175.08713 -9.109642 326.36804
178.85013 -7.265694 322.4288
182.49402 -4.880333 317.59116
185.70355 -2.411461 312.17706
188.79807 0.512825 305.16016
188.79807 0.51284 305.1602
192.95584 5.283119 292.56323
198.41791 12.04258 269.33826
198.41794 12.04258 269.33832
205.54205 19.596046 231.9671
211.02756 28.265846 189.75179
211.02756 28.265846 189.75185
214.82751 37.545418 153.84435
214.49588 39.152107 127.85834
214.49591 39.152122 127.85837
219.14108 34.408302 108.15129
235.62808 32.614815 89.7497
252.67108 35.605232 70.97439
261.25925 37.10987 51.80983
261.2593 37.1099 51.809875
267.1424 33.367165 31.054499
273.9821 27.754677 8.32501
280.4973 21.31469 -15.322552
288.29047 15.161705 -40.382908
288.29044 15.161705 -40.38285
295.7829 10.0951 -64.61751
299.95236 6.17701 -84.50618
302.01935 3.465111 -97.19606
303.00546 2.103477 -104.115036
303.1955 1.683922 -108.33446
303.19547 1.683907 -108.33445
302.9517 1.742882 -111.65572
302.44574 2.114677 -114.711555
301.79553 2.676399 -117.73922
301.20248 3.300987 -120.614784
301.20245 3.300957 -120.61477
301.00543 3.730553 -122.61987
300.4377 4.640266 -123.20524
120.88119 -13.719749 348.98248
143.79941 -14.166451 342.3996
157.74881 -13.010765 337.04077
164.19482 -11.863579 333.3041
168.01334 -11.051323 330.87973
171.30637 -10.313942 328.71356
174.7894 -9.209084 325.93707
178.50781 -7.361717 322.03763
182.1127 -4.973961 317.24146
185.28885 -2.504509 311.87402
188.35553 0.420158 304.90707
188.35553 0.420143 304.9071
192.51337 5.194313 292.36197
198.00641 11.961784 269.20383
198.00644 11.9618 269.20386
205.12967 19.515282 231.8711
210.6518 28.193169 189.69307
210.65182 28.193184 189.69312
214.45581 37.47512 153.79243
214.12418 39.075356 127.88918
214.1242 39.075356 127.88922
218.80658 34.27775 108.12662
235.37775 32.44062 89.557816
252.47174 35.44384 70.76565
261.01813 36.957756 51.684467
261.01816 36.95777 51.68451
266.88437 33.223564 31.004147
273.74588 27.626091 8.285163
280.27933 21.197746 -15.350705
288.09366 15.054665 -40.41671
288.09357 15.054649 -40.416653
295.5889 9.987999 -64.65469
299.76218 6.073036 -84.52467
301.82867 3.362068 -97.20515
302.81238 1.99836 -104.12017
303.0043 1.578392 -108.33105
303.00427 1.578392 -108.33103
302.76535 1.639336 -111.6436
302.26474 2.014549 -114.69415
301.6179 2.579018 -117.719894
301.0312 3.207542 -120.60027
301.03113 3.207558 -120.60026
300.84647 3.645409 -122.62222
120.88116 -13.719765 348.98242
120.46624 -13.721046 348.43454
143.79938 -14.166466 342.39957
143.5271 -14.174812 341.83832
157.74878 -13.01078 337.04074
157.51038 -13.018791 336.51828
164.1948 -11.863594 333.30408
163.91153 -11.871315 332.821
168.01334 -11.051338 330.8797
167.72061 -11.058891 330.41333
171.30634 -10.313972 328.71353
171.0116 -10.321373 328.25845
174.78937 -9.209099 325.93704
174.4693 -9.216316 325.51083
178.50778 -7.361717 322.03763
178.13785 -7.368675 321.66025
182.11267 -4.973976 317.24146
181.70227 -4.980766 316.91245
185.28885 -2.504509 311.874
184.8476 -2.511284 311.5944
188.35547 0.420143 304.90704
187.88968 0.413399 304.67923
188.35547 0.420143 304.90707
187.88971 0.413399 304.67926
192.51337 5.194283 292.36197
192.05142 5.187828 292.18555
198.00638 11.961769 269.20383
197.58087 11.95591 269.0885
198.00638 11.961769 269.20386
197.5809 11.95591 269.08856
205.12964 19.515282 231.87108
204.7062 19.509407 231.78827
210.65176 28.193169 189.69305
210.26712 28.187904 189.64647
210.6518 28.193169 189.69312
210.26715 28.18792 189.64653
214.45578 37.475105 153.79242
214.07443 37.47001 153.7576
214.12415 39.075325 127.88918
213.74133 39.066032 127.92352
214.12415 39.075325 127.88921
213.74136 39.066048 127.92355
218.80655 34.277718 108.12662
218.45953 34.212807 108.08244
235.37772 32.440605 89.55781
235.11194 32.326363 89.342026
252.47168 35.44384 70.76564
252.25177 35.33663 70.54492
261.01807 36.957756 51.68446
260.7538 36.856728 51.55257
261.01816 36.95777 51.684505
260.7538 36.85676 51.552616
266.88434 33.22355 31.004145
266.60724 33.128136 30.940235
273.74582 27.626076 8.285162
273.49374 27.540718 8.229814
280.27927 21.197731 -15.350705
280.04663 21.120079 -15.393799
288.09357 15.054649 -40.416706
287.8836 14.983559 -40.46368
288.09354 15.054649 -40.41665
287.88354 14.983559 -40.463623
295.58887 9.987984 -64.65469
295.38144 9.916832 -64.70358
299.76215 6.073021 -84.524666
299.55792 6.003975 -84.55304
301.82864 3.362053 -97.20514
301.62378 3.293633 -97.224106
302.81235 1.998329 -104.12016
302.60437 1.928566 -104.13354
303.00427 1.578362 -108.33104
302.79755 1.508293 -108.331436
303.00424 1.578362 -108.331024
302.79752 1.508293 -108.33142
302.7653 1.639336 -111.643585
302.56378 1.570564 -111.62996
302.26468 2.014534 -114.69414
302.06955 1.948021 -114.67071
301.61783 2.579002 -117.71988
301.427 2.51432 -117.69201
301.03113 3.207527 -120.60026
300.84714 3.145454 -120.57697
301.0311 3.207527 -120.60025
300.84714 3.14547 -120.576965
300.8464 3.645378 -122.622215
300.67532 3.589333 -122.618126
300.4377 4.640282 -123.20525
120.46621 -13.721077 348.43454
120.02157 -13.590675 347.82916
143.52707 -14.174828 341.83826
143.22842 -14.053749 341.2207
157.51038 -13.018806 336.51825
157.23859 -12.902748 335.9496
163.91153 -11.871346 332.82098
163.58487 -11.759407 332.29947
167.72058 -11.058907 330.41333
167.38214 -10.949196 329.91153
171.01157 -10.321388 328.25842
170.67084 -10.213448 327.76947
174.46924 -9.216347 325.5108
174.0975 -9.111137 325.05844
178.13782 -7.368706 321.66022
177.70605 -7.267143 321.2713
181.70227 -4.980797 316.9124
181.22522 -4.881752 316.584
184.84756 -2.511299 311.59436
184.34058 -2.412865 311.32248
187.88965 0.413383 304.6792
187.36032 0.511406 304.4653
187.88968 0.413383 304.67923
187.36032 0.511421 304.4653
192.05139 5.187828 292.18552
191.53067 5.281792 292.02625
197.58084 11.955894 269.0885
197.10611 12.041359 268.98782
197.58087 11.955894 269.08853
197.10614 12.041374 268.98788
204.7062 19.509392 231.78825
204.23746 19.594856 231.7153
210.26712 28.18789 189.64644
209.84274 28.264793 189.61107
210.26715 28.187904 189.6465
209.84274 28.264793 189.61113
214.0744 37.46998 153.75758
213.65259 37.544334 153.74097
213.7413 39.066017 127.923515
213.31607 39.138756 127.964645
213.74133 39.066032 127.92354
213.3161 39.13877 127.96467
218.45953 34.21279 108.08243
218.07086 34.223503 108.0107
235.11194 32.326332 89.34202
234.8067 32.2772 89.08025
252.25174 35.3366 70.544914
251.98962 35.288017 70.29259
260.75375 36.856712 51.552563
260.44064 36.810905 51.402576
260.7538 36.856728 51.552612
260.44067 36.810905 51.402626
266.6072 33.128136 30.940235
266.28522 33.084846 30.854708
273.4937 27.540703 8.229814
273.20282 27.501991 8.151111
280.04663 21.120064 -15.393799
279.7782 21.084877 -15.458595
287.88358 14.983559 -40.463676
287.64127 14.951332 -40.530422
287.8835 14.983543 -40.46362
287.6412 14.951317 -40.53037
295.3814 9.916832 -64.70358
295.1415 9.884575 -64.77054
299.5579 6.00396 -84.55304
299.3207 5.972664 -84.59568
301.62375 3.293617 -97.2241
301.38556 3.262611 -97.25662
302.6043 1.928535 -104.13353
302.362 1.896889 -104.15801
302.7975 1.508263 -108.33142
302.55573 1.476524 -108.336525
302.79745 1.508263 -108.331406
302.55573 1.476509 -108.33651
302.56372 1.570534 -111.629944
302.32794 1.539406 -111.613396
302.0695 1.94799 -114.67071
301.84183 1.917854 -114.638016
301.42694 2.51432 -117.692
301.20508 2.484993 -117.65144
300.8471 3.145454 -120.576965
300.63333 3.117363 -120.54103
300.84708 3.145454 -120.57696
300.63333 3.117332 -120.541016
300.6753 3.589302 -122.61812
300.4762 3.564629 -122.605705
POLYGONS 2362 9448
3 0 1 2
3 2 1 3
3 2 3 4
3 4 3 5
3 4 5 6
3 6 5 7
3 6 7 8
3 8 7 9
3 8 9 10
3 10 9 11
3 10 11 12
3 12 11 13
3 12 13 14
3 14 13 15
3 14 15 16
3 16 15 17
3 16 17 18
3 18 17 19
3 18 19 20
3 20 19 21
3 20 21 22
3 22 21 23
3 24 25 26
3 26 25 27
3 26 27 28
3 28 27 29
3 30 31 32
3 32 31 33
3 32 33 34
3 34 33 35
3 36 37 38
3 38 37 39
3 38 39 40
3 40 39 41
3 42 43 44
3 44 43 45
3 44 45 46
3 46 45 47
3 46 47 48
3 48 47 49
3 48 49 50
3 50 49 51
3 52 53 54
3 54 53 55
3 54 55 56
3 56 55 57
3 56 57 58
3 58 57 59
3 58 59 60
3 60 59 61
3 62 63 64
3 64 63 65
3 64 65 66
3 66 65 67
3 66 67 68
3 68 67 69
3 68 69 70
3 70 69 71
3 70 71 72
3 72 71 73
3 74 75 76
3 76 75 77
3 76 77 78
3 78 77 79
3 78 79 80
3 80 79 81
3 80 81 82
3 82 81 83
3 84 85 86
3 86 85 87
3 86 87 88
3 88 87 89
3 1 90 3
3 3 90 91
3 3 91 5
3 5 91 92
3 5 92 7
3 7 92 93
3 7 93 9
3 9 93 94
3 9 94 11
3 11 94 95
3 11 95 13
3 13 95 96
3 13 96 15
3 15 96 97
3 15 97 17
3 17 97 98
3 17 98 19
3 19 98 99
3 19 99 21
3 21 99 100
3 21 100 23
3 23 100 101
3 25 101 27
3 27 101 102
3 27 102 29
3 29 102 103
3 31 104 33
3 33 104 105
3 33 105 35
3 35 105 106
3 37 107 39
3 39 107 108
3 39 108 41
3 41 108 109
3 43 110 45
3 45 110 111
3 45 111 47
3 47 111 112
3 47 112 49
3 49 112 113
3 49 113 51
3 51 113 114
3 53 115 55
3 55 115 116
3 55 116 57
3 57 116 117
3 57 117 59
3 59 117 118
3 59 118 61
3 61 118 119
3 63 120 65
3 65 120 121
3 65 121 67
3 67 121 122
3 67 122 69
3 69 122 123
3 69 123 71
3 71 123 124
3 71 124 73
3 73 124 125
3 75 126 77
3 77 126 127
3 77 127 79
3 79 127 128
3 79 128 81
3 81 128 129
3 81 129 83
3 83 129 130
3 85 131 87
3 87 131 132
3 87 132 89
3 89 132 133
3 90 134 91
3 91 134 135
3 91 135 92
3 92 135 136
3 92 136 93
3 93 136 137
3 93 137 94
3 94 137 138
3 94 138 95
3 95 138 139
3 95 139 96
3 96 139 140
3 96 140 97
3 97 140 141
3 97 141 98
3 98 141 142
3 98 142 99
3 99 142 143
3 99 143 100
3 100 143 144
3 100 144 101
3 101 144 145
3 101 145 102
3 102 145 146
3 102 146 103
3 103 146 147
3 104 148 105
3 105 148 149
3 105 149 106
3 106 149 150
3 107 151 108
3 108 151 152
3 108 152 109
3 109 152 153
3 110 154 111
3 111 154 155
3 111 155 112
3 112 155 156
3 112 156 113
3 113 156 157
3 113 157 114
3 114 157 158
3 115 159 116
3 116 159 160
3 116 160 117
3 117 160 161
3 117 161 118
3 118 161 162
3 118 162 119
3 119 162 163
3 120 164 121
3 121 164 165
3 121 165 122
3 122 165 166
3 122 166 123
3 123 166 167
3 123 167 124
3 124 167 168
3 124 168 125
3 125 168 169
3 126 170 127
3 127 170 171
3 127 171 128
3 128 171 172
3 128 172 129
3 129 172 173
3 129 173 130
3 130 173 174
3 131 175 132
3 132 175 176
3 132 176 133
3 133 176 88
3 134 177 135
3 135 177 178
3 135 178 136
3 136 178 179
3 136 179 137
3 137 179 180
3 137 180 138
3 138 180 181
3 138 181 139
3 139 181 182
3 139 182 140
3 140 182 183
3 140 183 141
3 141 183 184
3 141 184 142
3 142 184 185
3 142 185 143
3 143 185 186
3 143 186 144
3 144 186 187
3 144 187 145
3 145 187 188
3 145 189 146
3 146 189 190
3 146 190 147
3 147 190 191
3 148 192 149
3 149 192 193
3 149 193 150
3 150 193 194
3 151 195 152
3 152 195 196
3 152 196 153
3 153 196 197
3 154 198 155
3 155 198 199
3 155 199 156
3 156 199 200
3 156 200 157
3 157 200 201
3 157 201 158
3 158 201 202
3 159 203 160
3 160 203 204
3 160 204 161
3 161 204 205
3 161 205 162
3 162 205 206
3 162 206 163
3 163 206 207
3 164 208 165
3 165 208 209
3 165 209 166
3 166 209 210
3 166 210 167
3 167 210 211
3 167 211 168
3 168 211 212
3 168 212 169
3 169 212 213
3 170 214 171
3 171 214 215
3 171 215 172
3 172 215 216
3 172 216 173
3 173 216 217
3 173 217 174
3 174 217 218
3 175 219 176
3 176 219 220
3 176 220 88
3 177 221 178
3 178 221 222
3 178 222 179
3 179 222 223
3 179 223 180
3 180 223 224
3 180 224 181
3 181 224 225
3 181 225 182
3 182 225 226
3 182 226 183
3 183 226 227
3 183 227 184
3 184 227 228
3 184 228 185
3 185 228 229
3 185 229 186
3 186 229 230
3 186 230 187
3 187 230 231
3 187 231 188
3 188 231 232
3 189 233 190
3 190 233 234
3 190 234 191
3 191 234 235
3 192 236 193
3 193 236 237
3 193 237 194
3 194 237 238
3 195 239 196
3 196 239 240
3 196 240 197
3 197 240 241
3 198 242 199
3 199 242 243
3 199 243 200
3 200 243 244
3 200 244 201
3 201 244 245
3 201 245 202
3 202 245 246
3 203 247 204
3 204 247 248
3 204 248 205
3 205 248 249
3 205 249 206
3 206 249 250
3 206 250 207
3 207 250 251
3 208 252 209
3 209 252 253
3 209 253 210
3 210 253 254
3 210 254 211
3 211 254 255
3 211 255 212
3 212 255 256
3 212 256 213
3 213 256 257
3 214 258 215
3 215 258 259
3 215 259 216
3 216 259 260
3 216 260 217
3 217 260 261
3 217 261 218
3 218 261 262
3 219 263 220
3 220 263 264
3 220 264 265
3 265 264 266
3 221 267 222
3 222 267 268
3 222 268 223
3 223 268 269
3 223 269 224
3 224 269 270
3 224 270 225
3 225 270 271
3 225 271 226
3 226 271 272
3 226 272 227
3 227 272 273
3 227 273 228
3 228 273 274
3 228 274 229
3 229 274 275
3 229 275 230
3 230 275 276
3 230 276 231
3 231 276 277
3 231 277 232
3 232 277 278
3 233 279 234
3 234 279 280
3 234 280 235
3 235 280 281
3 236 282 237
3 237 282 283
3 237 283 238
3 238 283 284
3 239 285 240
3 240 285 286
3 240 286 241
3 241 286 287
3 242 288 243
3 243 288 289
3 243 289 244
3 244 289 290
3 244 290 245
3 245 290 291
3 245 291 246
3 246 291 292
3 247 293 248
3 248 293 294
3 248 294 249
3 249 294 295
3 249 295 250
3 250 295 296
3 250 296 251
3 251 296 297
3 252 298 253
3 253 298 299
3 253 299 254
3 254 299 300
3 254 300 255
3 255 300 301
3 255 301 256
3 256 301 302
3 256 302 257
3 257 302 303
3 258 304 259
3 259 304 305
3 259 305 260
3 260 305 306
3 260 306 261
3 261 306 307
3 261 307 262
3 262 307 308
3 263 309 264
3 264 309 310
3 264 310 266
3 266 310 88
3 267 177 268
3 268 177 311
3 268 311 269
3 269 311 312
3 269 312 270
3 270 312 313
3 270 313 271
3 271 313 314
3 271 314 272
3 272 314 315
3 272 315 273
3 273 315 316
3 273 316 274
3 274 316 317
3 274 317 275
3 275 317 318
3 275 318 276
3 276 318 319
3 276 319 277
3 277 319 320
3 277 320 278
3 278 320 321
3 279 322 280
3 280 322 323
3 280 323 281
3 281 323 324
3 282 325 283
3 283 325 326
3 283 326 284
3 284 326 327
3 285 328 286
3 286 328 329
3 286 329 287
3 287 329 330
3 288 331 289
3 289 331 332
3 289 332 290
3 290 332 333
3 290 333 291
3 291 333 334
3 291 334 292
3 292 334 335
3 293 336 294
3 294 336 337
3 294 337 295
3 295 337 338
3 295 338 296
3 296 338 339
3 296 339 297
3 297 339 340
3 298 341 299
3 299 341 342
3 299 342 300
3 300 342 343
3 300 343 301
3 301 343 344
3 301 344 302
3 302 344 345
3 302 345 303
3 303 345 346
3 304 347 305
3 305 347 348
3 305 348 306
3 306 348 349
3 306 349 307
3 307 349 350
3 307 350 308
3 308 350 351
3 309 352 310
3 310 352 353
3 310 353 88
3 311 177 354
3 311 354 312
3 312 354 355
3 312 355 313
3 313 355 356
3 313 356 314
3 314 356 357
3 314 357 315
3 315 357 358
3 315 358 316
3 316 358 359
3 316 359 317
3 317 359 360
3 317 360 318
3 318 360 361
3 318 361 319
3 319 361 362
3 319 362 320
3 320 362 363
3 320 363 321
3 321 363 364
3 322 365 323
3 323 365 366
3 323 366 324
3 324 366 367
3 325 368 326
3 326 368 369
3 326 369 327
3 327 369 370
3 328 371 329
3 329 371 372
3 329 372 330
3 330 372 373
3 331 374 332
3 332 374 375
3 332 375 333
3 333 375 376
3 333 376 334
3 334 376 377
3 334 377 335
3 335 377 378
3 336 379 337
3 337 379 380
3 337 380 338
3 338 380 381
3 338 381 339
3 339 381 382
3 339 382 340
3 340 382 383
3 341 384 342
3 342 384 385
3 342 385 343
3 343 385 386
3 343 386 344
3 344 386 387
3 344 387 345
3 345 387 388
3 345 388 346
3 346 388 389
3 347 390 348
3 348 390 391
3 348 391 349
3 349 391 392
3 349 392 350
3 350 392 393
3 350 393 351
3 351 393 394
3 352 395 353
3 353 395 396
3 353 396 265
3 177 397 354
3 354 397 398
3 354 398 355
3 355 398 399
3 355 399 356
3 356 399 400
3 356 400 357
3 357 400 401
3 357 401 358
3 358 401 402
3 358 402 359
3 359 402 403
3 359 403 360
3 360 403 404
3 360 404 361
3 361 404 405
3 361 405 362
3 362 405 406
3 362 406 363
3 363 406 407
3 363 407 364
3 364 407 408
3 365 409 366
3 366 409 410
3 366 410 367
3 367 410 411
3 368 412 369
3 369 412 413
3 369 413 370
3 370 413 414
3 371 415 372
3 372 415 416
3 372 416 373
3 373 416 417
3 374 418 375
3 375 418 419
3 375 419 376
3 376 419 420
3 376 420 377
3 377 420 421
3 377 421 378
3 378 421 422
3 379 423 380
3 380 423 424
3 380 424 381
3 381 424 425
3 381 425 382
3 382 425 426
3 382 426 383
3 383 426 427
3 384 428 385
3 385 428 429
3 385 429 386
3 386 429 430
3 386 430 387
3 387 430 431
3 387 431 388
3 388 431 432
3 388 432 389
3 389 432 433
3 390 434 391
3 391 434 435
3 391 435 392
3 392 435 436
3 392 436 393
3 393 436 437
3 393 437 394
3 394 437 438
3 395 439 396
3 396 439 440
3 396 440 265
3 265 440 441
3 398 0 442
3 398 442 399
3 399 442 443
3 399 443 400
3 400 443 444
3 400 444 401
3 401 444 445
3 401 445 402
3 402 445 446
3 402 446 403
3 403 446 447
3 403 447 404
3 404 447 448
3 404 448 405
3 405 448 449
3 405 449 406
3 406 449 450
3 406 450 407
3 407 450 451
3 407 451 408
3 408 451 452
3 409 453 410
3 410 453 454
3 410 454 411
3 411 454 455
3 412 456 413
3 413 456 457
3 413 457 414
3 414 457 458
3 415 459 416
3 416 459 460
3 416 460 417
3 417 460 461
3 418 462 419
3 419 462 463
3 419 463 420
3 420 463 464
3 420 464 421
3 421 464 465
3 421 465 422
3 422 465 466
3 423 467 424
3 424 467 468
3 424 468 425
3 425 468 469
3 425 469 426
3 426 469 470
3 426 470 427
3 427 470 471
3 428 472 429
3 429 472 473
3 429 473 430
3 430 473 474
3 430 474 431
3 431 474 475
3 431 475 432
3 432 475 476
3 432 476 433
3 433 476 477
3 434 478 435
3 435 478 479
3 435 479 436
3 436 479 480
3 436 480 437
3 437 480 481
3 437 481 438
3 438 481 482
3 439 483 440
3 440 483 484
3 440 484 441
3 441 484 88
3 442 0 485
3 442 485 443
3 443 485 486
3 443 486 444
3 444 486 487
3 444 487 445
3 445 487 488
3 445 488 446
3 446 488 489
3 446 489 447
3 447 489 490
3 447 490 448
3 448 490 491
3 448 491 449
3 449 491 492
3 449 492 450
3 450 492 493
3 450 493 451
3 451 493 494
3 451 494 452
3 452 494 495
3 453 495 454
3 454 495 496
3 454 496 455
3 455 496 497
3 456 498 457
3 457 498 499
3 457 499 458
3 458 499 500
3 459 501 460
3 460 501 502
3 460 502 461
3 461 502 503
3 462 504 463
3 463 504 505
3 463 505 464
3 464 505 506
3 464 506 465
3 465 506 507
3 465 507 466
3 466 507 508
3 467 509 468
3 468 509 510
3 468 510 469
3 469 510 511
3 469 511 470
3 470 511 512
3 470 512 471
3 471 512 513
3 472 514 473
3 473 514 515
3 473 515 474
3 474 515 516
3 474 516 475
3 475 516 517
3 475 517 476
3 476 517 518
3 476 518 477
3 477 518 519
3 478 520 479
3 479 520 521
3 479 521 480
3 480 521 522
3 480 522 481
3 481 522 523
3 481 523 482
3 482 523 524
3 483 525 484
3 484 525 526
3 484 526 88
3 88 526 527
3 0 528 485
3 485 528 529
3 485 529 486
3 486 529 530
3 486 530 487
3 487 530 531
3 487 531 488
3 488 531 532
3 488 532 489
3 489 532 533
3 489 533 490
3 490 533 534
3 490 534 491
3 491 534 535
3 491 535 492
3 492 535 536
3 492 536 493
3 493 536 537
3 493 537 494
3 494 537 538
3 494 538 495
3 495 538 539
3 495 540 496
3 496 540 541
3 496 541 497
3 497 541 542
3 498 543 499
3 499 543 544
3 499 544 500
3 500 544 545
3 501 546 502
3 502 546 547
3 502 547 503
3 503 547 548
3 504 549 505
3 505 549 550
3 505 550 506
3 506 550 551
3 506 551 507
3 507 551 552
3 507 552 508
3 508 552 553
3 509 554 510
3 510 554 555
3 510 555 511
3 511 555 556
3 511 556 512
3 512 556 557
3 512 557 513
3 513 557 558
3 514 559 515
3 515 559 560
3 515 560 516
3 516 560 561
3 516 561 517
3 517 561 562
3 517 562 518
3 518 562 563
3 518 563 519
3 519 563 564
3 520 565 521
3 521 565 566
3 521 566 522
3 522 566 567
3 522 567 523
3 523 567 568
3 523 568 524
3 524 568 569
3 525 570 526
3 526 570 571
3 526 571 527
3 527 571 572
3 528 177 529
3 529 177 573
3 529 573 530
3 530 573 574
3 530 574 531
3 531 574 575
3 531 575 532
3 532 575 576
3 532 576 533
3 533 576 577
3 533 577 534
3 534 577 578
3 534 578 535
3 535 578 579
3 535 579 536
3 536 579 580
3 536 580 537
3 537 580 581
3 537 581 538
3 538 581 582
3 538 582 539
3 539 582 583
3 540 584 541
3 541 584 585
3 541 585 542
3 542 585 586
3 543 587 544
3 544 587 588
3 544 588 545
3 545 588 589
3 546 590 547
3 547 590 591
3 547 591 548
3 548 591 592
3 549 593 550
3 550 593 594
3 550 594 551
3 551 594 595
3 551 595 552
3 552 595 596
3 552 596 553
3 553 596 597
3 554 598 555
3 555 598 599
3 555 599 556
3 556 599 600
3 556 600 557
3 557 600 601
3 557 601 558
3 558 601 602
3 559 603 560
3 560 603 604
3 560 604 561
3 561 604 605
3 561 605 562
3 562 605 606
3 562 606 563
3 563 606 607
3 563 607 564
3 564 607 608
3 565 609 566
3 566 609 610
3 566 610 567
3 567 610 611
3 567 611 568
3 568 611 612
3 568 612 569
3 569 612 613
3 570 614 571
3 571 614 615
3 571 615 572
3 572 615 616
3 177 397 573
3 573 397 617
3 573 617 574
3 574 617 618
3 574 618 575
3 575 618 619
3 575 619 576
3 576 619 620
3 576 620 577
3 577 620 621
3 577 621 578
3 578 621 622
3 578 622 579
3 579 622 623
3 579 623 580
3 580 623 624
3 580 624 581
3 581 624 625
3 581 625 582
3 582 625 626
3 582 626 583
3 583 626 627
3 584 628 585
3 585 628 629
3 585 629 586
3 586 629 630
3 587 631 588
3 588 631 632
3 588 632 589
3 589 632 633
3 590 634 591
3 591 634 635
3 591 635 592
3 592 635 636
3 593 637 594
3 594 637 638
3 594 638 595
3 595 638 639
3 595 639 596
3 596 639 640
3 596 640 597
3 597 640 641
3 598 642 599
3 599 642 643
3 599 643 600
3 600 643 644
3 600 644 601
3 601 644 645
3 601 645 602
3 602 645 646
3 603 647 604
3 604 647 648
3 604 648 605
3 605 648 649
3 605 649 606
3 606 649 650
3 606 650 607
3 607 650 651
3 607 651 608
3 608 651 652
3 609 653 610
3 610 653 654
3 610 654 611
3 611 654 655
3 611 655 612
3 612 655 656
3 612 656 613
3 613 656 657
3 614 658 615
3 615 658 659
3 615 659 616
3 616 659 265
3 617 0 660
3 617 660 618
3 618 660 661
3 618 661 619
3 619 661 662
3 619 662 620
3 620 662 663
3 620 663 621
3 621 663 664
3 621 664 622
3 622 664 665
3 622 665 623
3 623 665 666
3 623 666 624
3 624 666 667
3 624 667 625
3 625 667 668
3 625 668 626
3 626 668 669
3 626 669 627
3 627 669 670
3 628 671 629
3 629 671 672
3 629 672 630
3 630 672 673
3 631 674 632
3 632 674 675
3 632 675 633
3 633 675 676
3 634 677 635
3 635 677 678
3 635 678 636
3 636 678 679
3 637 680 638
3 638 680 681
3 638 681 639
3 639 681 682
3 639 682 640
3 640 682 683
3 640 683 641
3 641 683 684
3 642 685 643
3 643 685 686
3 643 686 644
3 644 686 687
3 644 687 645
3 645 687 688
3 645 688 646
3 646 688 689
3 647 690 648
3 648 690 691
3 648 691 649
3 649 691 692
3 649 692 650
3 650 692 693
3 650 693 651
3 651 693 694
3 651 694 652
3 652 694 695
3 653 696 654
3 654 696 697
3 654 697 655
3 655 697 698
3 655 698 656
3 656 698 699
3 656 699 657
3 657 699 700
3 658 701 659
3 659 701 702
3 659 702 265
3 265 702 88
3 0 703 660
3 660 703 704
3 660 704 661
3 661 704 705
3 661 705 662
3 662 705 706
3 662 706 663
3 663 706 707
3 663 707 664
3 664 707 708
3 664 708 665
3 665 708 709
3 665 709 666
3 666 709 710
3 666 710 667
3 667 710 711
3 667 711 668
3 668 711 712
3 668 712 669
3 669 712 713
3 669 713 670
3 670 713 714
3 671 715 672
3 672 715 716
3 672 716 673
3 673 716 717
3 674 718 675
3 675 718 719
3 675 719 676
3 676 719 720
3 677 721 678
3 678 721 722
3 678 722 679
3 679 722 723
3 680 724 681
3 681 724 725
3 681 725 682
3 682 725 726
3 682 726 683
3 683 726 727
3 683 727 684
3 684 727 728
3 685 729 686
3 686 729 730
3 686 730 687
3 687 730 731
3 687 731 688
3 688 731 732
3 688 732 689
3 689 732 733
3 690 734 691
3 691 734 735
3 691 735 692
3 692 735 736
3 692 736 693
3 693 736 737
3 693 737 694
3 694 737 738
3 694 738 695
3 695 738 739
3 696 740 697
3 697 740 741
3 697 741 698
3 698 741 742
3 698 742 699
3 699 742 743
3 699 743 700
3 700 743 744
3 701 745 702
3 702 745 746
3 702 746 88
3 88 746 265
3 703 747 704
3 704 747 748
3 704 748 705
3 705 748 749
3 705 749 706
3 706 749 750
3 706 750 707
3 707 750 751
3 707 751 708
3 708 751 752
3 708 752 709
3 709 752 753
3 709 753 710
3 710 753 754
3 710 754 711
3 711 754 755
3 711 755 712
3 712 755 756
3 712 756 713
3 713 756 757
3 713 757 714
3 714 757 758
3 715 759 716
3 716 759 760
3 716 760 717
3 717 760 761
3 718 762 719
3 719 762 763
3 719 763 720
3 720 763 764
3 721 765 722
3 722 765 766
3 722 766 723
3 723 766 767
3 724 768 725
3 725 768 769
3 725 769 726
3 726 769 770
3 726 770 727
3 727 770 771
3 727 771 728
3 728 771 772
3 729 773 730
3 730 773 774
3 730 774 731
3 731 774 775
3 731 775 732
3 732 775 776
3 732 776 733
3 733 776 777
3 734 778 735
3 735 778 779
3 735 779 736
3 736 779 780
3 736 780 737
3 737 780 781
3 737 781 738
3 738 781 782
3 738 782 739
3 739 782 783
3 740 784 741
3 741 784 785
3 741 785 742
3 742 785 786
3 742 786 743
3 743 786 787
3 743 787 744
3 744 787 788
3 745 789 746
3 746 789 790
3 746 790 265
3 747 528 748
3 748 528 791
3 748 791 749
3 749 791 792
3 749 792 750
3 750 792 793
3 750 793 751
3 751 793 794
3 751 794 752
3 752 794 795
3 752 795 753
3 753 795 796
3 753 796 754
3 754 796 797
3 754 797 755
3 755 797 798
3 755 798 756
3 756 798 799
3 756 799 757
3 757 799 800
3 757 800 758
3 758 800 801
3 759 801 760
3 760 801 802
3 760 802 761
3 761 802 803
3 762 804 763
3 763 804 805
3 763 805 764
3 764 805 806
3 765 807 766
3 766 807 808
3 766 808 767
3 767 808 809
3 768 810 769
3 769 810 811
3 769 811 770
3 770 811 812
3 770 812 771
3 771 812 813
3 771 813 772
3 772 813 814
3 773 815 774
3 774 815 816
3 774 816 775
3 775 816 817
3 775 817 776
3 776 817 818
3 776 818 777
3 777 818 819
3 778 820 779
3 779 820 821
3 779 821 780
3 780 821 822
3 780 822 781
3 781 822 823
3 781 823 782
3 782 823 824
3 782 824 783
3 783 824 825
3 784 826 785
3 785 826 827
3 785 827 786
3 786 827 828
3 786 828 787
3 787 828 829
3 787 829 788
3 788 829 830
3 789 831 790
3 790 831 832
3 790 832 88
3 88 832 833
3 0 834 791
3 791 834 835
3 791 835 836
3 836 835 837
3 836 837 838
3 838 837 839
3 838 839 794
3 794 839 840
3 794 840 841
3 841 840 842
3 841 842 843
3 843 842 844
3 843 844 845
3 845 844 846
3 845 846 847
3 847 846 848
3 847 848 849
3 849 848 850
3 849 850 851
3 851 850 852
3 851 852 853
3 853 852 854
3 853 855 856
3 856 855 857
3 856 857 858
3 858 857 859
3 860 861 862
3 862 861 863
3 862 863 864
3 864 863 865
3 866 867 868
3 868 867 869
3 868 869 870
3 870 869 871
3 872 873 874
3 874 873 875
3 874 875 812
3 812 875 876
3 812 876 877
3 877 876 878
3 877 878 814
3 814 878 879
3 880 881 882
3 882 881 883
3 882 883 817
3 817 883 884
3 817 884 885
3 885 884 886
3 885 886 887
3 887 886 888
3 889 890 891
3 891 890 892
3 891 892 893
3 893 892 894
3 893 894 895
3 895 894 896
3 895 896 897
3 897 896 898
3 897 898 899
3 899 898 900
3 901 902 827
3 827 902 903
3 827 903 904
3 904 903 905
3 904 905 906
3 906 905 907
3 906 907 908
3 908 907 909
3 910 911 912
3 912 911 913
3 912 913 133
3 133 913 914
3 915 0 916
3 915 916 917
3 917 916 918
3 917 918 919
3 919 918 920
3 919 920 921
3 921 920 922
3 921 922 923
3 923 922 924
3 923 924 925
3 925 924 926
3 925 926 927
3 927 926 928
3 927 928 929
3 929 928 930
3 929 930 931
3 931 930 932
3 931 932 933
3 933 932 934
3 933 934 935
3 935 934 936
3 937 938 939
3 939 938 940
3 939 940 941
3 941 940 942
3 943 944 945
3 945 944 946
3 945 946 947
3 947 946 948
3 949 950 951
3 951 950 952
3 951 952 953
3 953 952 954
3 955 956 957
3 957 956 958
3 957 958 959
3 959 958 960
3 959 960 961
3 961 960 962
3 961 962 963
3 963 962 964
3 965 966 883
3 883 966 967
3 883 967 968
3 968 967 969
3 968 969 970
3 970 969 971
3 970 971 972
3 972 971 973
3 974 975 976
3 976 975 977
3 976 977 978
3 978 977 979
3 978 979 980
3 980 979 981
3 980 981 982
3 982 981 983
3 982 983 984
3 984 983 985
3 900 986 987
3 987 986 988
3 987 988 989
3 989 988 990
3 989 990 991
3 991 990 992
3 991 992 993
3 993 992 994
3 909 995 996
3 996 995 997
3 996 997 572
3 572 997 998
3 916 703 999
3 916 999 918
3 918 999 1000
3 918 1000 920
3 920 1000 1001
3 920 1001 922
3 922 1001 1002
3 922 1002 924
3 924 1002 1003
3 924 1003 926
3 926 1003 1004
3 926 1004 928
3 928 1004 1005
3 928 1005 930
3 930 1005 1006
3 930 1006 932
3 932 1006 1007
3 932 1007 934
3 934 1007 1008
3 934 1008 936
3 936 1008 1009
3 938 1009 940
3 940 1009 1010
3 940 1010 942
3 942 1010 1011
3 944 1012 946
3 946 1012 1013
3 946 1013 948
3 948 1013 1014
3 950 1015 952
3 952 1015 1016
3 952 1016 954
3 954 1016 1017
3 956 1018 958
3 958 1018 1019
3 958 1019 960
3 960 1019 1020
3 960 1020 962
3 962 1020 1021
3 962 1021 964
3 964 1021 1022
3 966 1023 967
3 967 1023 1024
3 967 1024 969
3 969 1024 1025
3 969 1025 971
3 971 1025 1026
3 971 1026 973
3 973 1026 1027
3 975 1028 977
3 977 1028 1029
3 977 1029 979
3 979 1029 1030
3 979 1030 981
3 981 1030 1031
3 981 1031 983
3 983 1031 1032
3 983 1032 985
3 985 1032 1033
3 986 1034 988
3 988 1034 1035
3 988 1035 990
3 990 1035 1036
3 990 1036 992
3 992 1036 1037
3 992 1037 994
3 994 1037 1038
3 995 1039 997
3 997 1039 1040
3 997 1040 998
3 998 1040 133
3 999 0 1041
3 999 1041 1000
3 1000 1041 1042
3 1000 1042 1001
3 1001 1042 1043
3 1001 1043 1002
3 1002 1043 1044
3 1002 1044 1003
3 1003 1044 1045
3 1003 1045 1004
3 1004 1045 1046
3 1004 1046 1005
3 1005 1046 1047
3 1005 1047 1006
3 1006 1047 1048
3 1006 1048 1007
3 1007 1048 1049
3 1007 1049 1008
3 1008 1049 1050
3 1008 1050 1009
3 1009 1050 1051
3 1009 1052 1010
3 1010 1052 1053
3 1010 1053 1011
3 1011 1053 1054
3 1012 1055 1013
3 1013 1055 1056
3 1013 1056 1014
3 1014 1056 1057
3 1015 1058 1016
3 1016 1058 1059
3 1016 1059 1017
3 1017 1059 1060
3 1018 1061 1019
3 1019 1061 1062
3 1019 1062 1020
3 1020 1062 1063
3 1020 1063 1021
3 1021 1063 1064
3 1021 1064 1022
3 1022 1064 1065
3 1023 1066 1024
3 1024 1066 1067
3 1024 1067 1025
3 1025 1067 1068
3 1025 1068 1026
3 1026 1068 1069
3 1026 1069 1027
3 1027 1069 1070
3 1028 1071 1029
3 1029 1071 1072
3 1029 1072 1030
3 1030 1072 1073
3 1030 1073 1031
3 1031 1073 1074
3 1031 1074 1032
3 1032 1074 1075
3 1032 1075 1033
3 1033 1075 1076
3 1034 1077 1035
3 1035 1077 1078
3 1035 1078 1036
3 1036 1078 1079
3 1036 1079 1037
3 1037 1079 1080
3 1037 1080 1038
3 1038 1080 1081
3 1039 1082 1040
3 1040 1082 1083
3 1040 1083 133
3 133 1083 616
3 397 0 1084
3 1084 0 1085
3 1084 1085 1086
3 1086 1085 1087
3 1086 1087 1088
3 1088 1087 1089
3 1088 1089 1090
3 1090 1089 1091
3 1090 1091 1092
3 1092 1091 1093
3 1092 1093 1094
3 1094 1093 1095
3 1094 1095 1096
3 1096 1095 1097
3 1096 1097 1098
3 1098 1097 1099
3 1098 1099 1100
3 1100 1099 1101
3 1100 1101 1102
3 1102 1101 1103
3 1102 1103 1104
3 1104 1103 1105
3 1052 1106 1053
3 1053 1106 1107
3 1053 1107 1054
3 1054 1107 1108
3 1055 1109 1056
3 1056 1109 1110
3 1056 1110 1111
3 1111 1110 1112
3 1058 1113 1059
3 1059 1113 1114
3 1059 1114 1060
3 1060 1114 1115
3 1061 1116 1062
3 1062 1116 1117
3 1062 1117 1118
3 1118 1117 1119
3 1118 1119 1064
3 1064 1119 1120
3 1064 1120 1121
3 1121 1120 1122
3 1123 1124 1125
3 1125 1124 1126
3 1125 1126 1127
3 1127 1126 1128
3 1127 1128 1129
3 1129 1128 1130
3 1129 1130 1131
3 1131 1130 1132
3 1133 1134 1072
3 1072 1134 1135
3 1072 1135 1073
3 1073 1135 1136
3 1073 1136 1137
3 1137 1136 1138
3 1137 1138 1075
3 1075 1138 1139
3 1075 1139 1140
3 1140 1139 1141
3 1142 1143 1144
3 1144 1143 1145
3 1144 1145 1146
3 1146 1145 1147
3 1146 1147 1148
3 1148 1147 1149
3 1148 1149 1150
3 1150 1149 1151
3 1152 1153 1154
3 1154 1153 1155
3 1154 1155 266
3 397 0 1156
3 1156 0 1157
3 1156 1157 1087
3 1087 1157 1158
3 1087 1158 1089
3 1089 1158 1159
3 1089 1159 1091
3 1091 1159 1160
3 1091 1160 1161
3 1161 1160 1162
3 1161 1162 1095
3 1095 1162 1163
3 1095 1163 1097
3 1097 1163 1164
3 1097 1164 1165
3 1165 1164 1166
3 1165 1166 1167
3 1167 1166 1168
3 1167 1168 1169
3 1169 1168 1170
3 1169 1170 1171
3 1171 1170 1172
3 1106 1173 1174
3 1174 1173 1175
3 1174 1175 1176
3 1176 1175 1177
3 1178 1179 1180
3 1180 1179 1181
3 1180 1181 1182
3 1182 1181 1183
3 1184 1185 1186
3 1186 1185 1187
3 1186 1187 1188
3 1188 1187 1189
3 1190 1191 1117
3 1117 1191 1192
3 1117 1192 1193
3 1193 1192 1194
3 1193 1194 1195
3 1195 1194 1196
3 1195 1196 1197
3 1197 1196 1198
3 1199 1200 1201
3 1201 1200 1202
3 1201 1202 1203
3 1203 1202 1204
3 1203 1204 1205
3 1205 1204 1206
3 1205 1206 1132
3 1132 1206 1207
3 1134 1208 1209
3 1209 1208 1210
3 1209 1210 1136
3 1136 1210 1211
3 1136 1211 1212
3 1212 1211 1213
3 1212 1213 1214
3 1214 1213 1215
3 1214 1215 1141
3 1141 1215 1216
3 1143 1217 1218
3 1218 1217 1219
3 1218 1219 1220
3 1220 1219 1221
3 1220 1221 1222
3 1222 1221 1223
3 1222 1223 1224
3 1224 1223 1225
3 1226 1227 1155
3 1155 1227 1228
3 1155 1228 266
3 266 1228 133
3 0 90 1157
3 1157 90 1229
3 1157 1229 1158
3 1158 1229 1230
3 1158 1230 1159
3 1159 1230 1231
3 1159 1231 1160
3 1160 1231 1232
3 1160 1232 1162
3 1162 1232 1233
3 1162 1233 1163
3 1163 1233 1234
3 1163 1234 1164
3 1164 1234 1235
3 1164 1235 1166
3 1166 1235 1236
3 1166 1236 1168
3 1168 1236 1237
3 1168 1237 1170
3 1170 1237 1238
3 1170 1238 1172
3 1172 1238 1239
3 1173 1240 1175
3 1175 1240 1241
3 1175 1241 1177
3 1177 1241 1242
3 1179 1243 1181
3 1181 1243 1244
3 1181 1244 1183
3 1183 1244 1245
3 1185 1246 1187
3 1187 1246 1247
3 1187 1247 1189
3 1189 1247 1248
3 1191 1249 1192
3 1192 1249 1250
3 1192 1250 1194
3 1194 1250 1251
3 1194 1251 1196
3 1196 1251 1252
3 1196 1252 1198
3 1198 1252 1253
3 1200 1254 1202
3 1202 1254 1255
3 1202 1255 1204
3 1204 1255 1256
3 1204 1256 1206
3 1206 1256 1257
3 1206 1257 1207
3 1207 1257 1258
3 1208 1259 1210
3 1210 1259 1260
3 1210 1260 1211
3 1211 1260 1261
3 1211 1261 1213
3 1213 1261 1262
3 1213 1262 1215
3 1215 1262 1263
3 1215 1263 1216
3 1216 1263 1264
3 1217 1265 1219
3 1219 1265 1266
3 1219 1266 1221
3 1221 1266 1267
3 1221 1267 1223
3 1223 1267 1268
3 1223 1268 1225
3 1225 1268 1269
3 1227 1270 1228
3 1228 1270 1271
3 1228 1271 133
3 133 1271 527
3 90 1272 1229
3 1229 1272 1273
3 1229 1273 1230
3 1230 1273 1274
3 1230 1274 1231
3 1231 1274 1275
3 1231 1275 1232
3 1232 1275 1276
3 1232 1276 1233
3 1233 1276 1277
3 1233 1277 1234
3 1234 1277 1278
3 1234 1278 1235
3 1235 1278 1279
3 1235 1279 1236
3 1236 1279 1280
3 1236 1280 1237
3 1237 1280 1281
3 1237 1281 1238
3 1238 1281 1282
3 1238 1282 1239
3 1239 1282 1283
3 1240 1284 1241
3 1241 1284 1285
3 1241 1285 1242
3 1242 1285 1286
3 1243 1287 1244
3 1244 1287 1288
3 1244 1288 1245
3 1245 1288 1289
3 1246 1290 1247
3 1247 1290 1291
3 1247 1291 1248
3 1248 1291 1292
3 1249 1293 1250
3 1250 1293 1294
3 1250 1294 1251
3 1251 1294 1295
3 1251 1295 1252
3 1252 1295 1296
3 1252 1296 1253
3 1253 1296 1297
3 1254 1298 1255
3 1255 1298 1299
3 1255 1299 1256
3 1256 1299 1300
3 1256 1300 1257
3 1257 1300 1301
3 1257 1301 1258
3 1258 1301 1302
3 1259 1303 1260
3 1260 1303 1304
3 1260 1304 1261
3 1261 1304 1305
3 1261 1305 1262
3 1262 1305 1306
3 1262 1306 1263
3 1263 1306 1307
3 1263 1307 1264
3 1264 1307 1308
3 1265 1309 1266
3 1266 1309 1310
3 1266 1310 1267
3 1267 1310 1311
3 1267 1311 1268
3 1268 1311 1312
3 1268 1312 1269
3 1269 1312 1313
3 1270 1314 1271
3 1271 1314 1315
3 1271 1315 527
3 527 1315 833
3 0 703 1316
3 1316 703 1317
3 1316 1317 1318
3 1318 1317 1319
3 1318 1319 1320
3 1320 1319 1321
3 1320 1321 1322
3 1322 1321 1323
3 1322 1323 1324
3 1324 1323 1325
3 1324 1325 1326
3 1326 1325 1327
3 1326 1327 1328
3 1328 1327 1329
3 1328 1329 1330
3 1330 1329 1331
3 1330 1331 1332
3 1332 1331 1333
3 1332 1333 1282
3 1282 1333 1334
3 1282 1334 1284
3 1284 1334 1335
3 1336 1337 1338
3 1338 1337 1339
3 1338 1339 1340
3 1340 1339 1341
3 1342 1343 1344
3 1344 1343 1345
3 1344 1345 1346
3 1346 1345 1347
3 1348 1349 1291
3 1291 1349 1350
3 1291 1350 1351
3 1351 1350 1352
3 1353 1354 1355
3 1355 1354 1356
3 1355 1356 1357
3 1357 1356 1358
3 1357 1358 1296
3 1296 1358 1359
3 1296 1359 1360
3 1360 1359 1361
3 1362 1363 1364
3 1364 1363 1365
3 1364 1365 1366
3 1366 1365 1367
3 1366 1367 1368
3 1368 1367 1369
3 1368 1369 1370
3 1370 1369 1371
3 1372 1373 1374
3 1374 1373 1375
3 1374 1375 1376
3 1376 1375 1377
3 1376 1377 1378
3 1378 1377 1379
3 1378 1379 1380
3 1380 1379 1381
3 1380 1381 1382
3 1382 1381 1383
3 1384 1385 1310
3 1310 1385 1386
3 1310 1386 1387
3 1387 1386 1388
3 1387 1388 1389
3 1389 1388 1390
3 1389 1390 1391
3 1391 1390 1392
3 1393 1394 1315
3 1315 1394 1395
3 1315 1395 88
3 88 1395 133
3 1 0 1396
3 1396 0 1397
3 1396 1397 1398
3 1398 1397 1399
3 1398 1399 1400
3 1400 1399 1401
3 1400 1401 1402
3 1402 1401 1403
3 1402 1403 1404
3 1404 1403 1405
3 1404 1405 1406
3 1406 1405 1407
3 1406 1407 1408
3 1408 1407 1409
3 1408 1409 1410
3 1410 1409 1411
3 1410 1411 1412
3 1412 1411 1413
3 1412 1413 1334
3 1334 1413 1414
3 1334 1414 1415
3 1415 1414 1416
3 1417 1418 1419
3 1419 1418 1420
3 1419 1420 1421
3 1421 1420 1422
3 1423 1424 1425
3 1425 1424 1426
3 1425 1426 1427
3 1427 1426 1428
3 1429 1430 1431
3 1431 1430 1432
3 1431 1432 1433
3 1433 1432 1434
3 1435 1436 1437
3 1437 1436 1438
3 1437 1438 1439
3 1439 1438 1440
3 1439 1440 1441
3 1441 1440 1442
3 1441 1442 1443
3 1443 1442 1444
3 1445 1446 1447
3 1447 1446 1448
3 1447 1448 1449
3 1449 1448 1450
3 1449 1450 1451
3 1451 1450 1452
3 1451 1452 1453
3 1453 1452 1454
3 1455 1456 1457
3 1457 1456 1458
3 1457 1458 1459
3 1459 1458 1460
3 1459 1460 1461
3 1461 1460 1462
3 1461 1462 1463
3 1463 1462 1464
3 1463 1464 1465
3 1465 1464 1466
3 1467 1468 1469
3 1469 1468 1470
3 1469 1470 1471
3 1471 1470 1472
3 1471 1472 1473
3 1473 1472 1474
3 1473 1474 1475
3 1475 1474 1476
3 1477 1478 1479
3 1479 1478 1480
3 1479 1480 1481
3 1481 1480 1482
3 1397 0 1483
3 1397 1483 1399
3 1399 1483 1484
3 1399 1484 1401
3 1401 1484 1485
3 1401 1485 1403
3 1403 1485 1486
3 1403 1486 1405
3 1405 1486 1487
3 1405 1487 1407
3 1407 1487 1488
3 1407 1488 1409
3 1409 1488 1489
3 1409 1489 1411
3 1411 1489 1490
3 1411 1490 1413
3 1413 1490 1491
3 1413 1491 1414
3 1414 1491 1492
3 1414 1492 1416
3 1416 1492 1493
3 1418 1494 1420
3 1420 1494 1495
3 1420 1495 1422
3 1422 1495 1496
3 1424 1497 1426
3 1426 1497 1498
3 1426 1498 1428
3 1428 1498 1499
3 1430 1500 1432
3 1432 1500 1501
3 1432 1501 1434
3 1434 1501 1502
3 1436 1503 1438
3 1438 1503 1504
3 1438 1504 1440
3 1440 1504 1505
3 1440 1505 1442
3 1442 1505 1506
3 1442 1506 1444
3 1444 1506 1507
3 1446 1508 1448
3 1448 1508 1509
3 1448 1509 1450
3 1450 1509 1510
3 1450 1510 1452
3 1452 1510 1511
3 1452 1511 1454
3 1454 1511 1512
3 1456 1513 1458
3 1458 1513 1514
3 1458 1514 1460
3 1460 1514 1515
3 1460 1515 1462
3 1462 1515 1516
3 1462 1516 1464
3 1464 1516 1517
3 1464 1517 1466
3 1466 1517 1518
3 1468 1519 1470
3 1470 1519 1520
3 1470 1520 1472
3 1472 1520 1521
3 1472 1521 1474
3 1474 1521 1522
3 1474 1522 1476
3 1476 1522 1523
3 1478 1524 1480
3 1480 1524 1525
3 1480 1525 1482
3 1482 1525 1526
3 1483 0 1527
3 1483 1527 1484
3 1484 1527 1528
3 1484 1528 1485
3 1485 1528 1529
3 1485 1529 1486
3 1486 1529 1530
3 1486 1530 1487
3 1487 1530 1531
3 1487 1531 1488
3 1488 1531 1532
3 1488 1532 1489
3 1489 1532 1533
3 1489 1533 1490
3 1490 1533 1534
3 1490 1534 1491
3 1491 1534 1535
3 1491 1535 1492
3 1492 1535 1536
3 1492 1536 1493
3 1493 1536 1537
3 1494 1538 1495
3 1495 1538 1539
3 1495 1539 1496
3 1496 1539 1540
3 1497 1541 1498
3 1498 1541 1542
3 1498 1542 1499
3 1499 1542 1543
3 1500 1544 1501
3 1501 1544 1545
3 1501 1545 1502
3 1502 1545 1546
3 1503 1547 1504
3 1504 1547 1548
3 1504 1548 1505
3 1505 1548 1549
3 1505 1549 1506
3 1506 1549 1550
3 1506 1550 1507
3 1507 1550 1551
3 1508 1552 1509
3 1509 1552 1553
3 1509 1553 1510
3 1510 1553 1554
3 1510 1554 1511
3 1511 1554 1555
3 1511 1555 1512
3 1512 1555 1556
3 1513 1557 1514
3 1514 1557 1558
3 1514 1558 1515
3 1515 1558 1559
3 1515 1559 1516
3 1516 1559 1560
3 1516 1560 1517
3 1517 1560 1561
3 1517 1561 1518
3 1518 1561 1562
3 1519 1563 1520
3 1520 1563 1564
3 1520 1564 1521
3 1521 1564 1565
3 1521 1565 1522
3 1522 1565 1566
3 1522 1566 1523
3 1523 1566 1567
3 1524 1568 1525
3 1525 1568 1569
3 1525 1569 1526
3 1526 1569 572
3 834 90 1570
3 1570 90 1571
3 1570 1571 1572
3 1572 1571 1573
3 1572 1573 1574
3 1574 1573 1575
3 1574 1575 1576
3 1576 1575 1577
3 1576 1577 1578
3 1578 1577 1579
3 1578 1579 1580
3 1580 1579 1581
3 1580 1581 1582
3 1582 1581 1583
3 1582 1583 1584
3 1584 1583 1585
3 1584 1585 1586
3 1586 1585 1587
3 1586 1587 1588
3 1588 1587 1589
3 1588 1589 1590
3 1590 1589 1591
3 1592 1593 1594
3 1594 1593 1595
3 1594 1595 1596
3 1596 1595 1597
3 1598 1599 1600
3 1600 1599 1601
3 1600 1601 1602
3 1602 1601 1603
3 1604 1605 1606
3 1606 1605 1607
3 1606 1607 1608
3 1608 1607 1609
3 1610 1611 1612
3 1612 1611 1613
3 1612 1613 1614
3 1614 1613 1615
3 1614 1615 1616
3 1616 1615 1617
3 1616 1617 1618
3 1618 1617 1619
3 1620 1621 1622
3 1622 1621 1623
3 1622 1623 1624
3 1624 1623 1625
3 1624 1625 1626
3 1626 1625 1627
3 1626 1627 1628
3 1628 1627 1629
3 1630 1631 1632
3 1632 1631 1633
3 1632 1633 1634
3 1634 1633 1635
3 1634 1635 1636
3 1636 1635 1637
3 1636 1637 1638
3 1638 1637 1639
3 1638 1639 1640
3 1640 1639 1641
3 1642 1643 1644
3 1644 1643 1645
3 1644 1645 1646
3 1646 1645 1647
3 1646 1647 1648
3 1648 1647 1649
3 1648 1649 1650
3 1650 1649 1651
3 1652 1653 1654
3 1654 1653 1655
3 1654 1655 914
3 914 1655 1656
3 0 747 1657
3 1657 747 1658
3 1657 1658 1659
3 1659 1658 1660
3 1659 1660 1661
3 1661 1660 1662
3 1661 1662 1663
3 1663 1662 1664
3 1663 1664 1665
3 1665 1664 1666
3 1665 1666 1667
3 1667 1666 1668
3 1667 1668 1669
3 1669 1668 1670
3 1669 1670 1671
3 1671 1670 1672
3 1671 1672 1673
3 1673 1672 1674
3 1673 1674 1675
3 1675 1674 1676
3 1675 1676 1677
3 1677 1676 1678
3 1679 1680 1681
3 1681 1680 1682
3 1681 1682 1683
3 1683 1682 1684
3 1685 1686 1687
3 1687 1686 1688
3 1687 1688 1689
3 1689 1688 1690
3 1691 1692 1693
3 1693 1692 1694
3 1693 1694 1695
3 1695 1694 1696
3 1697 1698 1699
3 1699 1698 1700
3 1699 1700 1701
3 1701 1700 1702
3 1701 1702 1703
3 1703 1702 1704
3 1703 1704 1705
3 1705 1704 1706
3 1707 1708 1709
3 1709 1708 1710
3 1709 1710 1711
3 1711 1710 1712
3 1711 1712 1713
3 1713 1712 1714
3 1713 1714 1715
3 1715 1714 1716
3 1717 1718 1719
3 1719 1718 1720
3 1719 1720 1721
3 1721 1720 1722
3 1721 1722 1723
3 1723 1722 1724
3 1723 1724 1725
3 1725 1724 1726
3 1725 1726 1727
3 1727 1726 1728
3 1729 1730 1731
3 1731 1730 1732
3 1731 1732 1733
3 1733 1732 1734
3 1733 1734 1735
3 1735 1734 1736
3 1735 1736 1737
3 1737 1736 1738
3 1739 1740 1741
3 1741 1740 1742
3 1741 1742 89
3 89 1742 1526
3 747 0 1658
3 1658 0 2
3 1658 2 1660
3 1660 2 4
3 1660 4 1662
3 1662 4 6
3 1662 6 1664
3 1664 6 8
3 1664 8 1666
3 1666 8 10
3 1666 10 1668
3 1668 10 12
3 1668 12 1670
3 1670 12 14
3 1670 14 1672
3 1672 14 16
3 1672 16 1674
3 1674 16 18
3 1674 18 1676
3 1676 18 20
3 1676 20 1678
3 1678 20 22
3 1680 24 1682
3 1682 24 26
3 1682 26 1684
3 1684 26 28
3 1686 30 1688
3 1688 30 32
3 1688 32 1690
3 1690 32 34
3 1692 36 1694
3 1694 36 38
3 1694 38 1696
3 1696 38 40
3 1698 42 1700
3 1700 42 44
3 1700 44 1702
3 1702 44 46
3 1702 46 1704
3 1704 46 48
3 1704 48 1706
3 1706 48 50
3 1708 52 1710
3 1710 52 54
3 1710 54 1712
3 1712 54 56
3 1712 56 1714
3 1714 56 58
3 1714 58 1716
3 1716 58 60
3 1718 62 1720
3 1720 62 64
3 1720 64 1722
3 1722 64 66
3 1722 66 1724
3 1724 66 68
3 1724 68 1726
3 1726 68 70
3 1726 70 1728
3 1728 70 72
3 1730 74 1732
3 1732 74 76
3 1732 76 1734
3 1734 76 78
3 1734 78 1736
3 1736 78 80
3 1736 80 1738
3 1738 80 82
3 1740 84 1742
3 1742 84 86
3 1742 86 1526
3 1526 86 88
