# vtk DataFile Version 2.0
File written by itkPolyDataMeshIO
ASCII
DATASET POLYDATA
POINTS 318 float
75.4186 -10.026436 375.10617
75.4186 -10.026451 375.10617
80.56161 -12.781883 376.13303
80.78936 -12.041862 375.98703
87.00753 -13.76223 381.45367
87.26269 -12.828712 381.24063
93.49645 -13.944237 387.05804
93.71078 -13.086403 386.8378
98.65139 -14.258476 389.13852
98.89779 -13.48008 388.9413
103.079094 -14.755287 389.46973
103.40029 -14.071205 389.23633
107.20345 -15.369957 389.0128
107.56756 -14.780006 388.74646
110.90514 -16.037148 387.92975
111.25692 -15.494255 387.69794
110.90511 -16.037163 387.92972
111.25689 -15.49427 387.6979
113.72561 -16.655525 386.7727
114.069725 -16.109047 386.56613
115.83047 -17.087547 386.43927
116.09594 -16.651314 386.28162
115.8305 -17.087532 386.4393
116.09597 -16.651314 386.28165
117.909294 -17.291832 387.8115
117.909294 -17.291832 387.81146
80.83526 -11.264366 376.01434
87.297844 -11.852165 381.25732
93.755516 -12.189095 386.8544
99.06429 -12.658028 388.99457
103.73434 -13.369469 389.2294
108.00396 -14.209084 388.66202
111.69454 -14.989433 387.62323
111.69454 -14.989449 387.6232
114.49523 -15.617378 386.50876
116.42788 -16.25866 386.2391
116.42791 -16.258644 386.23914
80.6972 -10.507393 376.20947
87.11306 -10.902733 381.49686
93.62682 -11.322701 387.1025
99.129326 -11.879417 389.2976
104.05703 -12.717064 389.45975
108.49218 -13.692024 388.7752
112.19384 -14.54966 387.71176
112.19384 -14.549675 387.71173
114.98452 -15.196663 386.6
116.812675 -15.924294 386.3125
116.812706 -15.924278 386.31253
75.4186 -10.026421 375.1062
80.39117 -9.837608 376.5526
86.72796 -10.065804 381.933
93.33608 -10.566216 387.55438
99.08776 -11.213493 389.817
104.339165 -12.172295 389.90445
108.989525 -13.274254 389.07874
112.71911 -14.208336 387.96014
112.71908 -14.208351 387.9601
115.50753 -14.875114 386.83673
117.226494 -15.669563 386.49808
117.226524 -15.669548 386.49814
75.4186 -10.026436 375.10614
79.97344 -9.323112 376.98947
86.20873 -9.424812 382.49142
92.933495 -9.989723 388.13632
98.9537 -10.704781 390.49854
104.55685 -11.770943 390.5254
109.45342 -12.990105 389.54437
113.230736 -13.991707 388.34897
113.230705 -13.991722 388.34894
116.0256 -14.678566 387.20374
117.63833 -15.51577 386.7842
117.63836 -15.515755 386.78427
79.97344 -9.323112 376.9895
79.48452 -8.983589 377.48743
85.59353 -9.000069 383.13965
92.933495 -9.989708 388.13632
92.44024 -9.610725 388.81927
98.9537 -10.704765 390.49857
98.73702 -10.381538 391.29745
104.55685 -11.770927 390.52542
104.70223 -11.53994 391.28134
109.45342 -12.990105 389.5444
109.856224 -12.858315 390.1446
113.23077 -13.991707 388.34897
113.690056 -13.917854 388.85123
113.230736 -13.991722 388.3489
113.69009 -13.91787 388.8512
116.02563 -14.678566 387.20374
116.497 -14.62513 387.67334
118.015465 -15.476707 387.1495
118.015526 -15.476692 387.14954
78.93032 -8.806374 378.04324
84.9006 -8.776527 383.86832
91.87856 -9.418999 389.5812
98.45458 -10.254707 392.15692
104.76687 -11.497093 392.1092
110.16552 -12.890007 390.83105
114.0602 -13.992836 389.4264
114.0602 -13.992851 389.4264
116.884575 -14.71917 388.2079
118.3283 -15.555565 387.56494
118.32833 -15.55555 387.56494
117.909325 -17.291817 387.81152
78.358604 -8.813454 378.60446
84.21816 -8.782799 384.58127
91.34811 -9.436516 390.31036
98.15716 -10.320534 392.9975
104.74523 -11.630119 392.9362
110.34969 -13.078499 391.53168
114.31374 -14.211586 390.0291
114.31374 -14.211601 390.0291
117.16323 -14.954948 388.77277
118.55627 -15.747337 388.00278
118.55633 -15.747322 388.00284
117.909294 -17.291847 387.81146
78.358635 -8.813438 378.6045
75.41863 -10.026421 375.1062
77.80517 -9.002831 379.1363
84.21816 -8.782784 384.5813
83.53396 -9.022133 385.3048
91.34814 -9.436485 390.3104
90.81866 -9.654701 391.092
98.15716 -10.320503 392.9975
97.90209 -10.538246 393.86993
104.74526 -11.630089 392.9362
104.70113 -11.903481 393.77252
110.34969 -13.078484 391.5317
110.41555 -13.408913 392.23065
114.31374 -14.211586 390.02914
114.432976 -14.557182 390.6184
114.313774 -14.211586 390.02914
114.432945 -14.557198 390.61838
117.16323 -14.954933 388.77277
117.30956 -15.312569 389.31992
118.5563 -15.747337 388.00287
118.680626 -16.036095 388.4269
118.55633 -15.747322 388.00287
118.68066 -16.036064 388.4269
77.294334 -9.375664 379.61288
82.93441 -9.470131 385.9382
90.42715 -10.01992 391.82782
97.81567 -10.844261 394.81546
104.698814 -12.25901 394.6459
110.36959 -13.837807 392.8689
114.40786 -15.001564 391.14322
114.40783 -15.001564 391.14322
117.31075 -15.768135 389.8103
118.69085 -16.402153 388.8064
118.69088 -16.402138 388.8064
76.86306 -9.930412 379.99796
82.434654 -10.147469 386.45728
90.07217 -10.611382 392.40143
97.6278 -11.378914 395.47745
104.5368 -12.788826 395.27487
110.175255 -14.368187 393.37982
114.23882 -15.517555 391.5726
114.23879 -15.51757 391.57257
117.167076 -16.288536 390.20847
118.58642 -16.818962 389.11404
118.58645 -16.818947 389.1141
117.909325 -17.291817 387.8115
75.41863 -10.026421 375.10617
76.86303 -9.930412 379.998
76.56542 -10.623726 380.23953
82.43462 -10.147469 386.45728
82.08395 -11.028679 386.80197
90.072136 -10.611382 392.40143
89.76876 -11.428139 392.74704
97.62777 -11.378914 395.47745
97.32241 -12.124657 395.7691
104.206505 -13.459175 395.58798
110.175285 -14.368187 393.37985
109.84518 -14.96154 393.7226
113.94109 -16.063622 391.87347
114.23879 -15.51757 391.5726
113.94106 -16.063637 391.87344
116.89153 -16.831062 390.48303
118.58642 -16.818962 389.1141
118.3767 -17.252632 389.326
118.37673 -17.252602 389.32602
117.909325 -17.291832 387.81152
117.909294 -17.291832 387.81152
75.41863 -10.026436 375.10617
76.43694 -11.388634 380.30624
81.945946 -12.002983 386.90463
89.614006 -12.344292 392.8227
97.02828 -12.981194 395.7598
103.80337 -14.194878 395.64084
109.41912 -15.559914 393.87778
113.53655 -16.597023 392.02075
113.53652 -16.597038 392.02072
116.50323 -17.357002 390.6141
118.07647 -17.671913 389.42657
118.0765 -17.671898 389.42664
117.909325 -17.291832 387.8115
76.48745 -12.166985 380.19263
82.02627 -12.966454 386.76663
89.605156 -13.251427 392.62326
96.7441 -13.887642 395.41226
103.336205 -14.963219 395.39908
108.917076 -16.131416 393.83334
113.05166 -17.083382 392.0075
113.05163 -17.083382 392.0075
116.030266 -17.829918 390.59454
117.70733 -18.047707 389.41028
117.70733 -18.047691 389.41028
75.41863 -10.026436 375.1062
76.70852 -12.889565 379.91296
82.30761 -13.864174 386.41388
89.75613 -14.09272 392.2025
96.563286 -14.705681 394.82193
102.89587 -15.644005 394.92532
108.384514 -16.625648 393.59622
112.52541 -17.484093 391.8337
112.52538 -17.484108 391.8337
115.51211 -18.210304 390.42633
117.29949 -18.349205 389.27835
117.29949 -18.349174 389.27835
117.909294 -17.291817 387.81152
76.70852 -12.889565 379.91302
77.05746 -13.47155 379.51782
82.30761 -13.864159 386.4139
82.759026 -14.612953 385.89334
89.75619 -14.092705 392.2025
90.09713 -14.792015 391.63913
96.563286 -14.705666 394.82196
96.60763 -15.32856 394.16235
102.89587 -15.644005 394.92538
102.611595 -16.133644 394.3574
108.384514 -16.625648 393.59625
107.89916 -16.976097 393.20596
112.52541 -17.484077 391.83374
112.00219 -17.763374 391.51233
112.52538 -17.484093 391.83374
112.00216 -17.76339 391.5123
115.51211 -18.210289 390.42636
114.98406 -18.471535 390.12036
117.29949 -18.34919 389.27838
116.88125 -18.554909 389.0395
117.29952 -18.349174 389.27838
116.88128 -18.554878 389.0395
117.909325 -17.291801 387.81155
77.51061 -13.907204 379.0312
83.31841 -15.154243 385.27454
90.53106 -15.278465 390.99527
96.774254 -15.754692 393.4054
102.431725 -16.453072 393.66373
107.471306 -17.180061 392.68054
111.51638 -17.905632 391.0689
111.51635 -17.905647 391.0689
114.48589 -18.594826 389.70032
116.483696 -18.650185 388.71194
116.48373 -18.65017 388.712
78.034966 -14.176704 378.4884
83.95818 -15.49015 384.582
91.033745 -15.574226 390.277
97.01855 -15.98838 392.56482
102.335045 -16.589333 392.86255
107.12328 -17.221596 392.04037
111.10598 -17.8984 390.53387
111.10595 -17.898415 390.53387
114.05831 -18.56997 389.20016
116.13906 -18.627373 388.32214
116.13906 -18.627357 388.32214
75.4186 -10.026436 375.1062
78.597435 -14.264946 377.92426
84.64605 -15.608421 383.84937
91.58352 -15.670952 389.51553
97.32177 -16.01577 391.70062
102.33013 -16.5355 392.03528
106.88897 -17.105247 391.35837
110.80108 -17.747322 389.953
110.80108 -17.747337 389.953
113.729485 -18.400978 388.65448
115.87075 -18.48893 387.8969
115.87078 -18.488914 387.89694
79.16219 -14.168053 377.3748
85.33477 -15.493294 383.126
92.13668 -15.554054 388.77197
97.652824 -15.847359 390.89377
102.408134 -16.306023 391.24368
106.78008 -16.834389 390.66525
110.62228 -17.454506 389.35406
110.622246 -17.454521 389.354
113.5223 -18.094856 388.09595
115.697044 -18.24363 387.46448
115.697044 -18.243599 387.4645
79.69848 -13.885063 376.87097
85.984245 -15.144035 382.45575
92.66128 -15.224815 388.0871
97.997826 -15.488762 390.17328
102.56454 -15.911217 390.5166
106.79647 -16.430962 390.00406
110.57748 -17.057991 388.7944
110.577446 -17.057991 388.7944
113.45037 -17.687294 387.5779
115.63149 -17.910637 387.0586
115.63152 -17.910622 387.0586
80.17962 -13.416679 376.442
85.984245 -15.144051 382.45575
86.55996 -14.560997 381.87952
92.66125 -15.224831 388.0871
93.1307 -14.681221 387.4936
97.997795 -15.488762 390.17325
98.344475 -14.942574 389.55783
102.56451 -15.911217 390.51657
102.79714 -15.376335 389.9027
106.79647 -16.430962 390.00403
106.940575 -15.935524 389.44794
110.67068 -16.590477 388.32376
110.577446 -17.058006 388.79437
110.67065 -16.590492 388.32373
113.45037 -17.68731 387.5779
113.516624 -17.210518 387.138
115.63149 -17.910652 387.05856
115.67654 -17.519157 386.7111
115.63152 -17.910637 387.05856
115.67657 -17.519157 386.71112
POLYGONS 450 1800
3 0 1 2
3 2 1 3
3 2 3 4
3 4 3 5
3 4 5 6
3 6 5 7
3 6 7 8
3 8 7 9
3 8 9 10
3 10 9 11
3 10 11 12
3 12 11 13
3 12 13 14
3 14 13 15
3 16 17 18
3 18 17 19
3 18 19 20
3 20 19 21
3 22 23 24
3 24 23 25
3 1 0 3
3 3 0 26
3 3 26 5
3 5 26 27
3 5 27 7
3 7 27 28
3 7 28 9
3 9 28 29
3 9 29 11
3 11 29 30
3 11 30 13
3 13 30 31
3 13 31 15
3 15 31 32
3 17 33 19
3 19 33 34
3 19 34 21
3 21 34 35
3 23 36 25
3 26 0 37
3 26 37 27
3 27 37 38
3 27 38 28
3 28 38 39
3 28 39 29
3 29 39 40
3 29 40 30
3 30 40 41
3 30 41 31
3 31 41 42
3 31 42 32
3 32 42 43
3 33 44 34
3 34 44 45
3 34 45 35
3 35 45 46
3 36 47 25
3 25 47 24
3 0 48 37
3 37 48 49
3 37 49 38
3 38 49 50
3 38 50 39
3 39 50 51
3 39 51 40
3 40 51 52
3 40 52 41
3 41 52 53
3 41 53 42
3 42 53 54
3 42 54 43
3 43 54 55
3 44 56 45
3 45 56 57
3 45 57 46
3 46 57 58
3 47 59 24
3 48 60 49
3 49 60 61
3 49 61 50
3 50 61 62
3 50 62 51
3 51 62 63
3 51 63 52
3 52 63 64
3 52 64 53
3 53 64 65
3 53 65 54
3 54 65 66
3 54 66 55
3 55 66 67
3 56 68 57
3 57 68 69
3 57 69 58
3 58 69 70
3 59 71 24
3 60 0 72
3 72 0 73
3 72 73 62
3 62 73 74
3 62 74 75
3 75 74 76
3 75 76 77
3 77 76 78
3 77 78 79
3 79 78 80
3 79 80 81
3 81 80 82
3 81 82 83
3 83 82 84
3 85 86 87
3 87 86 88
3 87 88 70
3 70 88 89
3 71 90 24
3 0 48 73
3 73 48 91
3 73 91 74
3 74 91 92
3 74 92 76
3 76 92 93
3 76 93 78
3 78 93 94
3 78 94 80
3 80 94 95
3 80 95 82
3 82 95 96
3 82 96 84
3 84 96 97
3 86 98 88
3 88 98 99
3 88 99 89
3 89 99 100
3 90 101 24
3 24 101 102
3 48 1 91
3 91 1 103
3 91 103 92
3 92 103 104
3 92 104 93
3 93 104 105
3 93 105 94
3 94 105 106
3 94 106 95
3 95 106 107
3 95 107 96
3 96 107 108
3 96 108 97
3 97 108 109
3 98 110 99
3 99 110 111
3 99 111 100
3 100 111 112
3 101 113 102
3 102 113 114
3 115 116 117
3 115 117 118
3 118 117 119
3 118 119 120
3 120 119 121
3 120 121 122
3 122 121 123
3 122 123 124
3 124 123 125
3 124 125 126
3 126 125 127
3 126 127 128
3 128 127 129
3 130 131 132
3 132 131 133
3 132 133 134
3 134 133 135
3 136 137 102
3 116 48 117
3 117 48 138
3 117 138 119
3 119 138 139
3 119 139 121
3 121 139 140
3 121 140 123
3 123 140 141
3 123 141 125
3 125 141 142
3 125 142 127
3 127 142 143
3 127 143 129
3 129 143 144
3 131 145 133
3 133 145 146
3 133 146 135
3 135 146 147
3 137 148 102
3 48 116 138
3 138 116 149
3 138 149 139
3 139 149 150
3 139 150 140
3 140 150 151
3 140 151 141
3 141 151 152
3 141 152 142
3 142 152 153
3 142 153 143
3 143 153 154
3 143 154 144
3 144 154 155
3 145 156 146
3 146 156 157
3 146 157 147
3 147 157 158
3 148 159 102
3 102 159 160
3 161 116 162
3 162 116 163
3 162 163 164
3 164 163 165
3 164 165 166
3 166 165 167
3 166 167 168
3 168 167 169
3 168 169 153
3 153 169 170
3 153 170 171
3 171 170 172
3 171 172 155
3 155 172 173
3 174 175 157
3 157 175 176
3 157 176 177
3 177 176 178
3 159 179 180
3 180 179 181
3 116 182 163
3 163 182 183
3 163 183 165
3 165 183 184
3 165 184 167
3 167 184 185
3 167 185 169
3 169 185 186
3 169 186 170
3 170 186 187
3 170 187 172
3 172 187 188
3 172 188 173
3 173 188 189
3 175 190 176
3 176 190 191
3 176 191 178
3 178 191 192
3 179 193 181
3 181 193 194
3 182 0 183
3 183 0 195
3 183 195 184
3 184 195 196
3 184 196 185
3 185 196 197
3 185 197 186
3 186 197 198
3 186 198 187
3 187 198 199
3 187 199 188
3 188 199 200
3 188 200 189
3 189 200 201
3 190 202 191
3 191 202 203
3 191 203 192
3 192 203 204
3 193 205 194
3 194 205 181
3 0 206 195
3 195 206 207
3 195 207 196
3 196 207 208
3 196 208 197
3 197 208 209
3 197 209 198
3 198 209 210
3 198 210 199
3 199 210 211
3 199 211 200
3 200 211 212
3 200 212 201
3 201 212 213
3 202 214 203
3 203 214 215
3 203 215 204
3 204 215 216
3 205 217 181
3 181 217 218
3 219 116 220
3 219 220 221
3 221 220 222
3 221 222 223
3 223 222 224
3 223 224 225
3 225 224 226
3 225 226 227
3 227 226 228
3 227 228 229
3 229 228 230
3 229 230 231
3 231 230 232
3 233 234 235
3 235 234 236
3 235 236 237
3 237 236 238
3 239 240 241
3 241 240 102
3 116 0 220
3 220 0 242
3 220 242 222
3 222 242 243
3 222 243 224
3 224 243 244
3 224 244 226
3 226 244 245
3 226 245 228
3 228 245 246
3 228 246 230
3 230 246 247
3 230 247 232
3 232 247 248
3 234 249 236
3 236 249 250
3 236 250 238
3 238 250 251
3 240 252 102
3 102 252 114
3 0 116 242
3 242 116 253
3 242 253 243
3 243 253 254
3 243 254 244
3 244 254 255
3 244 255 245
3 245 255 256
3 245 256 246
3 246 256 257
3 246 257 247
3 247 257 258
3 247 258 248
3 248 258 259
3 249 260 250
3 250 260 261
3 250 261 251
3 251 261 262
3 252 263 114
3 114 263 180
3 116 264 253
3 253 264 265
3 253 265 254
3 254 265 266
3 254 266 255
3 255 266 267
3 255 267 256
3 256 267 268
3 256 268 257
3 257 268 269
3 257 269 258
3 258 269 270
3 258 270 259
3 259 270 271
3 260 272 261
3 261 272 273
3 261 273 262
3 262 273 274
3 263 275 180
3 180 275 160
3 264 182 265
3 265 182 276
3 265 276 266
3 266 276 277
3 266 277 267
3 267 277 278
3 267 278 268
3 268 278 279
3 268 279 269
3 269 279 280
3 269 280 270
3 270 280 281
3 270 281 271
3 271 281 282
3 272 283 273
3 273 283 284
3 273 284 274
3 274 284 285
3 275 286 160
3 160 286 180
3 182 0 276
3 276 0 287
3 276 287 277
3 277 287 288
3 277 288 278
3 278 288 289
3 278 289 279
3 279 289 290
3 279 290 280
3 280 290 291
3 280 291 281
3 281 291 292
3 281 292 282
3 282 292 293
3 283 294 284
3 284 294 295
3 284 295 285
3 285 295 296
3 286 297 180
3 180 297 102
3 116 182 287
3 287 182 298
3 287 298 299
3 299 298 300
3 299 300 301
3 301 300 302
3 301 302 303
3 303 302 304
3 303 304 305
3 305 304 306
3 305 306 307
3 307 306 308
3 307 308 293
3 293 308 309
3 310 311 312
3 312 311 313
3 312 313 314
3 314 313 315
3 316 317 218
3 218 317 194
3 298 0 2
3 298 2 300
3 300 2 4
3 300 4 302
3 302 4 6
3 302 6 304
3 304 6 8
3 304 8 306
3 306 8 10
3 306 10 308
3 308 10 12
3 308 12 309
3 309 12 14
3 311 16 313
3 313 16 18
3 313 18 315
3 315 18 20
3 317 22 194
3 194 22 24
