# vtk DataFile Version 2.0
File written by itkPolyDataMeshIO
ASCII
DATASET POLYDATA
POINTS 393 float
-81.9754 -12.217934 377.7823
-81.97541 -12.217949 377.78226
-84.972336 -11.997887 377.0473
-84.687935 -11.250755 376.90826
-87.35699 -11.310463 372.8361
-87.045135 -10.422523 372.81073
-89.80579 -10.582741 367.75122
-89.61413 -9.827339 367.87885
-94.14175 -9.951958 364.11343
-93.990265 -9.13842 364.22125
-101.04771 -9.177299 359.40247
-100.84684 -8.375755 359.514
-101.0477 -9.177299 359.4025
-100.846825 -8.375755 359.514
-108.40685 -10.728874 354.92642
-108.1026 -9.916222 355.03107
-115.28142 -13.471321 350.87393
-114.92602 -12.617348 350.92685
-121.29965 -15.201881 346.99072
-121.01881 -14.362755 346.98184
-125.652916 -16.298134 344.21597
-125.51471 -15.523293 344.1861
-129.52617 -16.781563 342.1763
-129.48378 -15.980461 342.1356
-131.63231 -16.649254 340.4046
-131.62294 -16.006767 340.36697
-131.63232 -16.64927 340.40457
-131.62296 -16.006783 340.36694
-130.63528 -15.989342 338.54248
-130.63528 -15.989342 338.54245
-84.19648 -10.617577 376.7108
-86.471794 -9.65551 372.68637
-89.2229 -9.13903 367.86682
-93.688835 -8.354866 364.15073
-100.49728 -7.573479 359.47333
-100.49727 -7.573463 359.47333
-107.67809 -9.152946 355.04376
-114.47258 -11.849709 350.9522
-120.61496 -13.569298 346.97836
-120.61497 -13.569298 346.97836
-125.24106 -14.801292 344.1183
-129.28175 -15.228279 341.9939
-131.47702 -15.386513 340.22858
-131.47704 -15.386528 340.22855
-130.6353 -15.989357 338.54248
-83.56946 -10.122231 376.4793
-85.73148 -9.060966 372.48648
-88.69557 -8.576057 367.73328
-93.27489 -7.663811 363.92987
-100.073555 -6.87957 359.3075
-100.073555 -6.879555 359.30756
-107.17837 -8.460564 354.98334
-113.93468 -11.1092 350.9635
-120.13407 -12.815941 346.9961
-124.850655 -14.120964 344.0379
-128.92477 -14.540337 341.7926
-131.206 -14.834496 340.0286
-131.206 -14.834511 340.02853
-81.975395 -12.217934 377.78232
-82.84483 -9.775917 376.2284
-84.876884 -8.655937 372.2294
-88.068504 -8.170387 367.48123
-92.75494 -7.093361 363.55243
-99.57084 -6.245308 359.04617
-99.57083 -6.245293 359.0462
-106.615036 -7.809227 354.87286
-113.33385 -10.409355 350.92737
-119.598145 -12.089653 346.97556
-119.598145 -12.089638 346.97556
-124.40391 -13.490974 343.94507
-128.46555 -13.926613 341.56424
-130.82443 -14.343254 339.7862
-130.82445 -14.343269 339.78616
-81.9754 -12.217934 377.78226
-82.07258 -9.589592 375.97775
-83.95962 -8.429955 371.93835
-87.38858 -7.920082 367.1416
-92.187004 -6.680443 363.06384
-99.01146 -5.656166 358.71252
-99.01145 -5.656151 358.71252
-106.00838 -7.178108 354.71545
-112.69638 -9.770393 350.84738
-119.000145 -11.419975 346.9176
-119.00015 -11.41996 346.9176
-123.88002 -12.926292 343.81442
-127.92274 -13.40641 341.30103
-130.37852 -13.937813 339.52148
-130.37854 -13.937828 339.52145
-130.63528 -15.989357 338.54245
-81.975395 -12.217934 377.7823
-81.9754 -12.217934 377.78232
-82.072586 -9.589592 375.97775
-81.29085 -9.581764 375.74103
-83.959625 -8.429939 371.93835
-83.02056 -8.413033 371.6208
-87.38859 -7.920052 367.14163
-86.69173 -7.852592 366.7376
-92.187004 -6.680428 363.06384
-91.6256 -6.486458 362.50192
-99.01146 -5.656151 358.7125
-98.45619 -5.287193 358.24896
-98.45618 -5.287178 358.249
-106.00838 -7.178093 354.71542
-105.36267 -6.656883 354.43536
-112.69638 -9.770378 350.84735
-111.97433 -9.214119 350.67297
-119.000145 -11.41996 346.9176
-118.30083 -10.936516 346.75433
-118.300835 -10.936516 346.75433
-123.25045 -12.48185 343.61218
-127.92274 -13.40641 341.30106
-127.295 -12.990669 340.99936
-130.37852 -13.937798 339.5215
-129.88669 -13.646217 339.23596
-130.37854 -13.937813 339.52145
-129.88669 -13.646233 339.23596
-81.9754 -12.217918 377.78232
-80.50564 -9.767143 375.5172
-82.09014 -8.629051 371.2803
-86.0055 -7.979195 366.27435
-91.06897 -6.523796 361.8517
-97.936554 -5.244652 357.59158
-97.93655 -5.244652 357.59164
-104.72342 -6.444969 353.9278
-111.21782 -8.9851 350.25757
-117.584724 -10.882133 346.3277
-117.584724 -10.882149 346.3277
-122.61168 -12.345222 343.2795
-126.63003 -12.787788 340.6371
-129.34528 -13.510597 338.8947
-129.34529 -13.510612 338.89468
-81.97541 -12.217934 377.78226
-79.76996 -10.154732 375.32056
-81.25149 -9.029732 370.9551
-85.41283 -8.224998 365.80685
-90.58476 -6.748589 361.1918
-97.5325 -5.461052 356.87607
-97.53249 -5.461037 356.8761
-104.291245 -6.710884 353.25943
-110.74644 -9.402092 349.63925
-117.13567 -11.402 345.74838
-122.094284 -12.682869 342.79236
-126.01873 -13.001396 340.1566
-128.8539 -13.66938 338.50467
-128.85391 -13.669395 338.50464
-130.63528 -15.989326 338.5425
-81.975395 -12.217918 377.78232
-79.76994 -10.154701 375.3206
-79.17712 -10.709831 375.18198
-81.25148 -9.029716 370.95514
-80.54939 -9.655632 370.6542
-85.41282 -8.224968 365.8069
-84.91318 -8.67704 365.3386
-90.584755 -6.748573 361.19183
-90.23253 -7.196693 360.59543
-97.532486 -5.461021 356.8761
-97.29656 -5.992622 356.25705
-97.53248 -5.461006 356.8761
-97.296555 -5.992607 356.25705
-104.29124 -6.710854 353.25943
-104.16311 -7.368507 352.68228
-110.74643 -9.402077 349.63925
-110.66151 -10.162788 349.11176
-117.135666 -11.402 345.7484
-116.98786 -12.143822 345.26538
-116.98786 -12.143837 345.26538
-122.09428 -12.682869 342.79242
-121.824425 -13.25576 342.3624
-126.01872 -13.001381 340.15665
-125.61342 -13.507179 339.70917
-128.8539 -13.669365 338.5047
-128.49178 -14.065742 338.13943
-128.85391 -13.669395 338.50467
-128.49179 -14.065758 338.1394
-130.63528 -15.989311 338.5425
-78.7831 -11.440712 375.11548
-80.07156 -10.469536 370.4171
-84.54932 -9.270073 364.90918
-89.99361 -7.816444 360.0846
-97.27077 -6.713203 355.80035
-97.27076 -6.713188 355.80035
-104.26958 -8.156776 352.27805
-110.76686 -10.987907 348.72403
-117.01797 -12.951027 344.90155
-117.017975 -12.951042 344.90155
-121.74381 -13.935265 342.02963
-125.409386 -14.187294 339.35352
-128.28258 -14.627785 337.84604
-128.28258 -14.6278 337.846
-130.63528 -15.989342 338.5425
-78.63776 -12.251778 375.12457
-79.88642 -11.400063 370.2633
-84.39294 -10.00106 364.56766
-89.896645 -8.578529 359.7029
-97.3223 -7.485603 355.4489
-97.322296 -7.485603 355.4489
-104.43397 -8.944252 351.959
-110.94758 -11.82029 348.4242
-117.14576 -13.791176 344.62503
-121.79429 -14.694801 341.7891
-125.38582 -14.95475 339.12576
-128.2339 -15.241997 337.67334
-128.2339 -15.242012 337.6733
-78.771255 -13.071815 375.21207
-79.88641 -11.400063 370.2633
-80.0285 -12.349998 370.21582
-84.39293 -10.00106 364.56766
-84.474915 -10.77198 364.36108
-89.896645 -8.578514 359.7029
-89.961334 -9.3937 359.49136
-97.41794 -8.27758 355.19464
-97.322296 -7.485588 355.4489
-97.41792 -8.27758 355.19464
-104.6264 -9.735725 351.70044
-111.204445 -12.667946 348.20392
-117.14575 -13.791176 344.62503
-117.35829 -14.64785 344.43585
-117.14576 -13.791191 344.62503
-117.3583 -14.64785 344.43585
-121.79428 -14.694801 341.7891
-121.93065 -15.455132 341.6357
-125.47781 -15.743065 339.00635
-128.2339 -15.241982 337.67334
-128.29408 -15.895012 337.59875
-128.2941 -15.895042 337.59872
-79.1411 -13.803047 375.36063
-80.46281 -13.198448 370.2766
-84.77846 -11.485207 364.30484
-90.18263 -10.194923 359.46188
-97.6161 -9.087852 355.095
-97.61609 -9.087852 355.09503
-104.89593 -10.550377 351.54514
-111.53296 -13.515114 348.0624
-117.64092 -15.479805 344.33377
-117.64092 -15.47982 344.33377
-122.14308 -16.202019 341.5689
-125.65614 -16.526924 338.98026
-128.42357 -16.543266 337.60107
-128.42358 -16.543282 337.60104
-79.69411 -14.366615 375.55405
-81.1186 -13.875465 370.42825
-85.25686 -12.112968 364.39075
-90.55076 -10.954338 359.61667
-97.91895 -9.881111 355.16446
-97.918945 -9.881096 355.16446
-105.23409 -11.361107 351.5007
-111.916245 -14.347206 347.9935
-117.98438 -16.283058 344.3112
-117.98439 -16.283058 344.3112
-122.433395 -16.950432 341.58676
-125.931725 -17.28611 339.05804
-128.63385 -17.13604 337.69537
-128.63387 -17.13607 337.69534
-81.97539 -12.217934 377.78235
-80.392235 -14.785652 375.78674
-81.93311 -14.378471 370.658
-85.84674 -12.597572 364.60364
-91.02337 -11.590431 359.93927
-98.30985 -10.612297 355.37637
-98.309845 -10.612282 355.3764
-105.63286 -12.131233 351.56055
-112.35658 -15.154579 348.0125
-118.3997 -17.087303 344.37253
-118.399704 -17.087318 344.3725
-122.77514 -17.636452 341.68033
-126.27529 -17.981377 339.22504
-128.91998 -17.714073 337.8703
-128.91998 -17.714088 337.87024
-81.97538 -12.217918 377.78235
-81.975395 -12.217918 377.7823
-80.39223 -14.785637 375.78674
-81.130165 -15.012032 376.02158
-81.933105 -14.378456 370.65802
-82.81986 -14.677559 370.9296
-85.84674 -12.597572 364.6037
-86.500404 -12.926704 364.90155
-91.02336 -11.590431 359.93927
-91.53621 -12.055 360.3718
-98.30985 -10.612282 355.3764
-98.787964 -11.229256 355.73856
-98.30984 -10.612282 355.37643
-98.78796 -11.22924 355.7386
-105.63286 -12.131218 351.56055
-106.118904 -12.843864 351.75925
-112.356575 -15.154564 348.0125
-112.85025 -15.905235 348.138
-118.39969 -17.087303 344.37253
-118.86877 -17.818398 344.5358
-122.77513 -17.636436 341.68036
-123.17968 -18.275917 341.86624
-126.27528 -17.981361 339.2251
-126.68908 -18.601143 339.4891
-128.91998 -17.714058 337.87033
-129.26088 -18.197823 338.12576
-129.2609 -18.197838 338.12573
-130.63528 -15.989311 338.54254
-81.930916 -15.069481 376.2674
-83.76855 -14.776329 371.24445
-87.19367 -13.098915 365.2863
-92.0901 -12.351997 360.92233
-99.29905 -11.633842 356.23065
-99.29904 -11.633812 356.23068
-106.67277 -13.393791 352.124
-113.45028 -16.547966 348.45886
-119.432205 -18.417412 344.87204
-119.43221 -18.417412 344.87204
-123.655945 -18.797783 342.18112
-127.18167 -19.090858 339.8779
-129.67365 -18.562798 338.48688
-129.67365 -18.562813 338.48685
-82.72631 -14.958549 376.50745
-84.7023 -14.677696 371.57712
-87.87723 -13.1036 365.72095
-92.65696 -12.450401 361.562
-99.83172 -11.795708 356.8951
-99.83171 -11.795708 356.89517
-107.2576 -13.654762 352.6923
-114.1047 -16.843315 348.9826
-120.08042 -18.64936 345.42203
-120.08043 -18.64936 345.42203
-124.23066 -19.050652 342.67953
-127.75081 -19.34301 340.39874
-130.12363 -18.728264 338.92123
-130.12364 -18.72828 338.9212
-83.474525 -14.682167 376.72766
-85.59376 -14.374229 371.91772
-88.534225 -12.919044 366.18784
-93.1827 -12.326347 362.21558
-100.32419 -11.688667 357.58273
-100.32418 -11.688667 357.58273
-107.81769 -13.524773 353.34415
-114.72131 -16.63108 349.616
-120.655235 -18.38578 346.03482
-124.75343 -18.922966 343.22128
-128.3086 -19.264717 340.96518
-130.58194 -18.638939 339.39212
-130.58194 -18.638954 339.3921
-81.9754 -12.217918 377.7823
-84.15396 -14.225929 376.9189
-86.390045 -13.861031 372.24957
-89.10362 -12.555443 366.66013
-93.62766 -11.986519 362.83493
-100.726234 -11.315681 358.20483
-100.72623 -11.315666 358.20486
-108.250916 -13.059456 353.93237
-115.175415 -16.04383 350.1632
-121.072174 -17.76902 346.51782
-125.16602 -18.468727 343.67838
-128.78564 -18.884819 341.47183
-130.98282 -18.337517 339.8106
-130.98283 -18.337532 339.81058
-84.68883 -13.599037 377.05502
-87.00086 -13.14785 372.53772
-89.52579 -12.017342 367.10394
-93.956535 -11.442101 363.39093
-101.00109 -10.729469 358.7462
-101.00108 -10.729454 358.74622
-108.49475 -12.386787 354.39447
-115.41302 -15.267708 350.5264
-121.33075 -16.984352 346.80963
-121.33075 -16.984337 346.80963
-125.47564 -17.831688 343.99854
-129.16081 -18.298103 341.85306
-131.29282 -17.873436 340.11978
-131.29283 -17.873451 340.11975
-81.97539 -12.217934 377.78232
-84.68882 -13.599037 377.05502
-84.97749 -12.83709 377.10162
-87.00086 -13.147865 372.5377
-87.3455 -12.26812 372.7442
-89.525795 -12.017342 367.10394
-89.77613 -11.328148 367.48526
-93.95654 -11.442085 363.3909
-94.13209 -10.734276 363.83276
-101.00111 -10.729454 358.7462
-101.10641 -9.993065 359.14777
-101.0011 -10.729439 358.74622
-101.1064 -9.99305 359.14777
-108.49475 -12.386772 354.39447
-108.549355 -11.583046 354.72165
-115.45512 -14.377769 350.75586
-121.33074 -16.984337 346.80963
-121.40854 -16.102821 346.95187
-121.33075 -16.984322 346.80963
-121.40854 -16.102837 346.95187
-125.47565 -17.831673 343.99857
-125.635574 -17.095802 344.16138
-129.16083 -18.298103 341.8531
-129.41373 -17.575676 342.08533
-131.5217 -17.282509 340.32608
-131.29282 -17.873451 340.11975
-131.52171 -17.282524 340.32605
-130.63528 -15.989326 338.54248
POLYGONS 540 2160
3 0 1 2
3 2 1 3
3 2 3 4
3 4 3 5
3 4 5 6
3 6 5 7
3 6 7 8
3 8 7 9
3 8 9 10
3 10 9 11
3 12 13 14
3 14 13 15
3 14 15 16
3 16 15 17
3 16 17 18
3 18 17 19
3 18 19 20
3 20 19 21
3 20 21 22
3 22 21 23
3 22 23 24
3 24 23 25
3 26 27 28
3 28 27 29
3 3 1 30
3 3 30 5
3 5 30 31
3 5 31 7
3 7 31 32
3 7 32 9
3 9 32 33
3 9 33 11
3 11 33 34
3 13 35 15
3 15 35 36
3 15 36 17
3 17 36 37
3 17 37 19
3 19 37 38
3 19 39 21
3 21 39 40
3 21 40 23
3 23 40 41
3 23 41 25
3 25 41 42
3 27 43 29
3 29 43 44
3 1 0 30
3 30 0 45
3 30 45 31
3 31 45 46
3 31 46 32
3 32 46 47
3 32 47 33
3 33 47 48
3 33 48 34
3 34 48 49
3 35 50 36
3 36 50 51
3 36 51 37
3 37 51 52
3 37 52 38
3 38 52 53
3 39 53 40
3 40 53 54
3 40 54 41
3 41 54 55
3 41 55 42
3 42 55 56
3 43 57 44
3 44 57 28
3 0 58 45
3 45 58 59
3 45 59 46
3 46 59 60
3 46 60 47
3 47 60 61
3 47 61 48
3 48 61 62
3 48 62 49
3 49 62 63
3 50 64 51
3 51 64 65
3 51 65 52
3 52 65 66
3 52 66 53
3 53 66 67
3 53 68 54
3 54 68 69
3 54 69 55
3 55 69 70
3 55 70 56
3 56 70 71
3 57 72 28
3 58 73 59
3 59 73 74
3 59 74 60
3 60 74 75
3 60 75 61
3 61 75 76
3 61 76 62
3 62 76 77
3 62 77 63
3 63 77 78
3 64 79 65
3 65 79 80
3 65 80 66
3 66 80 81
3 66 81 67
3 67 81 82
3 68 83 69
3 69 83 84
3 69 84 70
3 70 84 85
3 70 85 71
3 71 85 86
3 72 87 28
3 28 87 88
3 89 90 91
3 91 90 92
3 91 92 93
3 93 92 94
3 93 94 95
3 95 94 96
3 95 96 97
3 97 96 98
3 97 98 99
3 99 98 100
3 79 101 102
3 102 101 103
3 102 103 104
3 104 103 105
3 104 105 106
3 106 105 107
3 83 108 84
3 84 108 109
3 84 109 110
3 110 109 111
3 110 111 112
3 112 111 113
3 114 115 28
3 90 116 92
3 92 116 117
3 92 117 94
3 94 117 118
3 94 118 96
3 96 118 119
3 96 119 98
3 98 119 120
3 98 120 100
3 100 120 121
3 101 122 103
3 103 122 123
3 103 123 105
3 105 123 124
3 105 124 107
3 107 124 125
3 108 126 109
3 109 126 127
3 109 127 111
3 111 127 128
3 111 128 113
3 113 128 129
3 115 130 28
3 116 131 117
3 117 131 132
3 117 132 118
3 118 132 133
3 118 133 119
3 119 133 134
3 119 134 120
3 120 134 135
3 120 135 121
3 121 135 136
3 122 137 123
3 123 137 138
3 123 138 124
3 124 138 139
3 124 139 125
3 125 139 140
3 126 140 127
3 127 140 141
3 127 141 128
3 128 141 142
3 128 142 129
3 129 142 143
3 130 144 145
3 145 144 44
3 58 146 147
3 147 146 148
3 147 148 149
3 149 148 150
3 149 150 151
3 151 150 152
3 151 152 153
3 153 152 154
3 153 154 155
3 155 154 156
3 157 158 159
3 159 158 160
3 159 160 161
3 161 160 162
3 161 162 163
3 163 162 164
3 163 165 166
3 166 165 167
3 166 167 168
3 168 167 169
3 168 169 170
3 170 169 171
3 172 173 28
3 28 173 174
3 146 58 148
3 148 58 175
3 148 175 150
3 150 175 176
3 150 176 152
3 152 176 177
3 152 177 154
3 154 177 178
3 154 178 156
3 156 178 179
3 158 180 160
3 160 180 181
3 160 181 162
3 162 181 182
3 162 182 164
3 164 182 183
3 165 184 167
3 167 184 185
3 167 185 169
3 169 185 186
3 169 186 171
3 171 186 187
3 173 188 174
3 174 188 189
3 58 0 175
3 175 0 190
3 175 190 176
3 176 190 191
3 176 191 177
3 177 191 192
3 177 192 178
3 178 192 193
3 178 193 179
3 179 193 194
3 180 195 181
3 181 195 196
3 181 196 182
3 182 196 197
3 182 197 183
3 183 197 198
3 184 198 185
3 185 198 199
3 185 199 186
3 186 199 200
3 186 200 187
3 187 200 201
3 188 202 189
3 189 202 145
3 89 90 190
3 190 90 203
3 190 203 204
3 204 203 205
3 204 205 206
3 206 205 207
3 206 207 208
3 208 207 209
3 208 209 194
3 194 209 210
3 211 212 196
3 196 212 213
3 196 213 197
3 197 213 214
3 197 214 215
3 215 214 216
3 217 218 219
3 219 218 220
3 219 220 200
3 200 220 221
3 200 221 222
3 222 221 223
3 202 224 145
3 90 0 203
3 203 0 225
3 203 225 205
3 205 225 226
3 205 226 207
3 207 226 227
3 207 227 209
3 209 227 228
3 209 228 210
3 210 228 229
3 212 230 213
3 213 230 231
3 213 231 214
3 214 231 232
3 214 232 216
3 216 232 233
3 218 234 220
3 220 234 235
3 220 235 221
3 221 235 236
3 221 236 223
3 223 236 237
3 224 238 145
3 0 89 225
3 225 89 239
3 225 239 226
3 226 239 240
3 226 240 227
3 227 240 241
3 227 241 228
3 228 241 242
3 228 242 229
3 229 242 243
3 230 244 231
3 231 244 245
3 231 245 232
3 232 245 246
3 232 246 233
3 233 246 247
3 234 248 235
3 235 248 249
3 235 249 236
3 236 249 250
3 236 250 237
3 237 250 251
3 238 252 28
3 89 253 239
3 239 253 254
3 239 254 240
3 240 254 255
3 240 255 241
3 241 255 256
3 241 256 242
3 242 256 257
3 242 257 243
3 243 257 258
3 244 259 245
3 245 259 260
3 245 260 246
3 246 260 261
3 246 261 247
3 247 261 262
3 248 263 249
3 249 263 264
3 249 264 250
3 250 264 265
3 250 265 251
3 251 265 266
3 252 267 28
3 268 269 270
3 270 269 271
3 270 271 272
3 272 271 273
3 272 273 274
3 274 273 275
3 274 275 276
3 276 275 277
3 276 277 278
3 278 277 279
3 280 281 282
3 282 281 283
3 282 283 284
3 284 283 285
3 284 285 286
3 286 285 287
3 262 287 288
3 288 287 289
3 288 289 290
3 290 289 291
3 290 291 292
3 292 291 293
3 266 294 295
3 295 294 145
3 269 0 271
3 271 0 296
3 271 296 273
3 273 296 297
3 273 297 275
3 275 297 298
3 275 298 277
3 277 298 299
3 277 299 279
3 279 299 300
3 281 301 283
3 283 301 302
3 283 302 285
3 285 302 303
3 285 303 287
3 287 303 304
3 287 305 289
3 289 305 306
3 289 306 291
3 291 306 307
3 291 307 293
3 293 307 308
3 294 309 145
3 0 146 296
3 296 146 310
3 296 310 297
3 297 310 311
3 297 311 298
3 298 311 312
3 298 312 299
3 299 312 313
3 299 313 300
3 300 313 314
3 301 315 302
3 302 315 316
3 302 316 303
3 303 316 317
3 303 317 304
3 304 317 318
3 305 319 306
3 306 319 320
3 306 320 307
3 307 320 321
3 307 321 308
3 308 321 322
3 309 323 28
3 28 323 145
3 146 0 310
3 310 0 324
3 310 324 311
3 311 324 325
3 311 325 312
3 312 325 326
3 312 326 313
3 313 326 327
3 313 327 314
3 314 327 328
3 315 329 316
3 316 329 330
3 316 330 317
3 317 330 331
3 317 331 318
3 318 331 332
3 319 332 320
3 320 332 333
3 320 333 321
3 321 333 334
3 321 334 322
3 322 334 335
3 323 336 145
3 145 336 28
3 0 337 324
3 324 337 338
3 324 338 325
3 325 338 339
3 325 339 326
3 326 339 340
3 326 340 327
3 327 340 341
3 327 341 328
3 328 341 342
3 329 343 330
3 330 343 344
3 330 344 331
3 331 344 345
3 331 345 332
3 332 345 346
3 332 346 333
3 333 346 347
3 333 347 334
3 334 347 348
3 334 348 335
3 335 348 349
3 336 350 28
3 337 269 338
3 338 269 351
3 338 351 339
3 339 351 352
3 339 352 340
3 340 352 353
3 340 353 341
3 341 353 354
3 341 354 342
3 342 354 355
3 343 356 344
3 344 356 357
3 344 357 345
3 345 357 358
3 345 358 346
3 346 358 359
3 346 360 347
3 347 360 361
3 347 361 348
3 348 361 362
3 348 362 349
3 349 362 363
3 350 364 28
3 269 365 366
3 366 365 367
3 366 367 368
3 368 367 369
3 368 369 370
3 370 369 371
3 370 371 372
3 372 371 373
3 372 373 374
3 374 373 375
3 376 377 378
3 378 377 379
3 378 379 358
3 358 379 380
3 358 380 381
3 381 380 382
3 383 384 385
3 385 384 386
3 385 386 387
3 387 386 388
3 387 388 363
3 363 388 389
3 390 391 392
3 392 391 145
3 365 0 367
3 367 0 2
3 367 2 369
3 369 2 4
3 369 4 371
3 371 4 6
3 371 6 373
3 373 6 8
3 373 8 375
3 375 8 10
3 377 12 379
3 379 12 14
3 379 14 380
3 380 14 16
3 380 16 382
3 382 16 18
3 384 18 386
3 386 18 20
3 386 20 388
3 388 20 22
3 388 22 389
3 389 22 24
3 391 26 145
