# vtk DataFile Version 2.0
File written by itkPolyDataMeshIO
ASCII
DATASET POLYDATA
POINTS 632 float
33.862617 -20.06411 383.12875
37.017403 -17.954033 376.5578
34.55831 -20.474922 383.20895
31.991905 -20.697975 394.7534
32.81814 -21.170433 394.86304
31.257668 -21.408592 405.34415
32.06707 -21.852211 405.45462
31.426155 -21.871346 414.03156
32.182 -22.242882 414.16623
31.945534 -20.98954 422.7506
32.67034 -21.31031 422.90344
32.52056 -19.46151 431.07864
33.187035 -19.74604 431.1621
32.640327 -18.354988 439.3892
33.26731 -18.61663 439.42795
32.640327 -18.355003 439.3892
33.267326 -18.616615 439.42795
32.272133 -17.558846 448.11737
32.937157 -17.820427 448.1638
31.86898 -17.020271 456.75858
32.552483 -17.284035 456.8048
31.868996 -17.02024 456.7586
32.552483 -17.28402 456.80487
31.695168 -16.404778 465.52948
32.36953 -16.674126 465.5852
31.74038 -15.276497 474.50873
32.40293 -15.561531 474.5975
31.83863 -13.597069 483.32782
32.48304 -13.900032 483.44727
31.75135 -11.708687 491.84802
32.36869 -12.028069 491.9822
31.751396 -11.708672 491.84808
32.368706 -12.028053 491.98227
31.42501 -10.10743 500.28473
32.01539 -10.457237 500.4024
31.386879 -9.783028 509.06516
31.976357 -10.162651 509.0891
32.100838 -10.622643 518.15717
32.620308 -10.936928 518.1233
32.374077 -11.720085 527.2485
32.861183 -11.993263 527.3121
31.123344 -10.7062 536.42957
31.607185 -10.954048 536.6386
31.12336 -10.7062 536.42957
31.607185 -10.954033 536.6386
28.354729 -6.515587 545.53143
28.84359 -6.683281 545.84973
27.276894 0.047356 550.6243
35.329124 -20.693642 383.23834
33.765205 -21.434258 394.916
33.01658 -22.107185 405.52002
33.062935 -22.448189 414.26944
33.505867 -21.477806 423.03
33.96363 -19.901665 431.2305
33.96891 -18.75872 439.46396
33.96891 -18.758736 439.46396
33.584877 -17.931541 448.20056
33.149895 -17.375328 456.8383
33.149895 -17.375313 456.83832
32.924507 -16.759026 465.61917
32.938972 -15.646126 474.64502
33.017967 -13.988213 483.51233
32.915382 -12.12693 492.06638
32.915413 -12.126915 492.0664
32.606133 -10.5868 500.49316
32.610176 -10.320869 509.1195
33.17974 -11.076332 518.10724
33.38935 -12.115166 527.37463
32.134636 -11.052727 536.80597
29.373207 -6.721443 546.0792
27.276878 0.047356 550.6243
36.11242 -20.698723 383.21503
34.771935 -21.438713 394.89597
34.077385 -22.102043 405.51797
34.07482 -22.417412 414.31592
34.473442 -21.428596 423.10345
34.891228 -19.85923 431.2686
34.840416 -18.72628 439.49448
34.8404 -18.726265 439.49448
34.352486 -17.888771 448.23505
33.814186 -17.332115 456.86996
33.814217 -17.332115 456.87
33.514732 -16.721764 465.64822
33.48986 -15.608116 474.67722
33.55561 -13.94384 483.55295
33.459404 -12.07383 492.12454
33.45942 -12.073814 492.12457
33.19744 -10.527122 500.5655
33.25173 -10.263634 509.15582
33.742958 -11.040291 518.1073
33.913445 -12.078957 527.428
32.661934 -10.995644 536.9225
32.661934 -10.995644 536.9224
29.918495 -6.632835 546.2136
37.017418 -17.954018 376.5578
36.844414 -20.492805 383.14322
35.732994 -21.163536 394.8049
35.126976 -21.783806 405.44577
35.111794 -22.078331 414.29306
35.486794 -21.08326 423.1031
35.892662 -19.522285 431.26126
35.827354 -18.406517 439.5152
35.82734 -18.406502 439.5152
35.22431 -17.6007 448.26447
34.55561 -17.090385 456.89886
34.55561 -17.09037 456.8989
34.1558 -16.520058 465.67355
34.06089 -15.425514 474.6945
34.082634 -13.762321 483.56805
33.964516 -11.879051 492.15353
33.96453 -11.879051 492.15356
33.717705 -10.303886 500.61288
33.802284 -10.02404 509.19177
34.240974 -10.849419 518.1187
34.386757 -11.897591 527.4657
33.140984 -10.795937 536.98065
33.14097 -10.795937 536.98065
30.44178 -6.425331 546.244
27.276909 0.047356 550.6243
37.470863 -20.107124 383.033
36.549797 -20.643944 394.6577
36.02117 -21.177849 405.31702
36.014656 -21.434013 414.20245
36.393257 -20.420113 423.02127
36.808617 -18.842262 431.20352
36.759407 -17.721245 439.5221
36.076073 -16.989311 448.28156
35.299263 -16.580803 456.92007
35.299263 -16.580788 456.9201
34.79792 -16.098549 465.69257
34.608086 -15.068108 474.69382
34.551186 -13.442894 483.5546
34.37928 -11.569954 492.1508
34.37931 -11.569954 492.15082
34.11042 -9.977211 500.63266
34.198875 -9.683464 509.2213
34.624992 -10.559135 518.1361
34.76821 -11.61248 527.4861
33.5259 -10.497841 536.98193
33.5259 -10.497841 536.9819
30.891182 -6.131355 546.17456
27.276894 0.04734 550.6243
37.470863 -20.10711 383.033
37.95536 -19.579445 382.89603
37.164726 -19.940575 394.47095
36.02117 -21.177864 405.31702
36.669563 -20.367699 405.14972
36.01464 -21.434013 414.20245
36.662697 -20.570778 414.0565
37.050514 -19.51284 422.8679
36.808617 -18.842262 431.20355
37.471153 -17.88282 431.1061
36.759407 -17.721245 439.52213
37.44152 -16.726738 439.51257
37.441505 -16.726753 439.51257
36.076073 -16.989326 448.28156
36.740974 -16.079903 448.27927
35.299263 -16.580818 456.92007
35.920876 -15.795479 456.92874
35.299263 -16.580803 456.92014
35.920876 -15.795479 456.92877
34.79792 -16.098564 465.69257
35.352394 -15.434395 465.70178
34.6081 -15.068108 474.69385
35.07244 -14.522224 474.67294
34.5512 -13.442894 483.55463
34.924538 -12.994957 483.51303
34.379295 -11.569954 492.1508
34.684837 -11.177696 492.1194
34.379326 -11.569954 492.15082
34.684883 -11.177666 492.11942
34.110435 -9.977211 500.63263
34.37577 -9.598885 500.62894
34.198875 -9.683464 509.22128
34.45443 -9.305351 509.24384
34.624977 -10.559135 518.1361
34.897163 -10.209145 518.1594
34.76821 -11.61248 527.486
35.046272 -11.255562 527.4936
33.525917 -10.497841 536.9819
33.79934 -10.141319 536.93445
33.525917 -10.497841 536.9818
33.799324 -10.141319 536.9344
30.891197 -6.13134 546.1745
31.235039 -5.783089 546.01776
37.017418 -17.954033 376.55783
38.273994 -18.949104 382.7449
37.547966 -19.121117 394.26395
37.037834 -19.455376 404.96527
37.00393 -19.616188 413.87982
37.377373 -18.509773 422.67294
37.772545 -16.816399 430.991
37.74064 -15.620064 439.48868
37.740654 -15.620079 439.48868
37.07926 -15.028694 448.25656
36.285988 -14.834831 456.9223
36.285988 -14.834816 456.92236
35.70507 -14.586266 465.69647
35.37667 -13.822594 474.6293
35.165306 -12.446404 483.445
34.874153 -10.729378 492.06345
34.87417 -10.729362 492.06348
34.531624 -9.195412 500.6062
34.60134 -8.914314 509.26022
35.072685 -9.816093 518.18866
35.226692 -10.846825 527.49146
33.968697 -9.753716 536.847
33.96871 -9.753716 536.847
31.467628 -5.404976 545.79114
27.276909 0.047371 550.6244
37.017387 -17.954048 376.55777
38.41073 -18.265053 382.59113
37.690025 -18.257591 394.05707
37.135323 -18.535728 404.78314
37.05738 -18.685936 413.6971
37.39332 -17.55561 422.4675
37.737633 -15.822044 430.87354
37.68682 -14.609871 439.45535
37.686806 -14.609871 439.45535
37.079674 -14.03759 448.22012
36.34057 -13.879066 456.90234
36.340584 -13.879051 456.90237
35.78605 -13.701759 465.6739
35.463722 -13.072807 474.5637
35.244713 -11.859016 483.35495
34.941444 -10.258965 491.98767
34.94146 -10.258949 491.9877
34.588005 -8.784889 500.56772
34.655754 -8.523079 509.2703
35.14588 -9.405083 518.2192
35.29902 -10.421776 527.4763
34.03466 -9.367821 536.7259
31.578056 -5.030418 545.5182
27.276894 0.047356 550.62427
37.017418 -17.954018 376.55783
37.017433 -17.954018 376.55783
38.410744 -18.265038 382.59116
38.36396 -17.588982 382.44455
37.69004 -18.25756 394.0571
37.60264 -17.41462 393.86563
37.135338 -18.535698 404.78317
36.999367 -17.675285 404.61588
37.057396 -18.68592 413.69714
36.879402 -17.848778 413.5236
37.393333 -17.55561 422.46753
37.173195 -16.724907 422.27173
37.737648 -15.822044 430.8736
37.466194 -14.990425 430.7649
37.68682 -14.609871 439.45538
37.40104 -13.795219 439.41898
37.686836 -14.609871 439.45538
37.079704 -14.037575 448.22018
36.83857 -13.23037 448.17856
36.340584 -13.879036 456.9024
36.145897 -13.077324 456.87305
36.340614 -13.879021 456.90244
36.145912 -13.077293 456.87308
35.786064 -13.701729 465.67395
35.628487 -12.934578 465.63742
35.463753 -13.072792 474.56375
35.34803 -12.398293 474.4841
35.244728 -11.858986 483.35504
35.169487 -11.309669 483.2518
34.941475 -10.258965 491.98773
34.891487 -9.802132 491.89786
34.941505 -10.258934 491.98776
34.891502 -9.802116 491.8979
34.588036 -8.784889 500.56778
34.550423 -8.374947 500.5156
34.65577 -8.523064 509.27032
34.624535 -8.127998 509.27512
35.145912 -9.405083 518.21924
35.11622 -8.983116 518.2518
35.29905 -10.421761 527.4764
35.262627 -9.987068 527.45
34.034676 -9.36779 536.72595
34.002266 -8.984291 536.5776
34.034676 -9.367805 536.72595
34.00228 -8.984306 536.5776
31.578087 -5.030403 545.51825
31.56974 -4.671425 545.213
27.276909 0.047356 550.6244
38.149727 -16.961983 382.31308
37.310417 -16.639412 393.69815
36.6706 -16.908455 404.4685
36.5241 -17.12928 413.36594
36.78646 -16.035835 422.0935
37.051308 -14.336281 430.668
36.990074 -13.177803 439.38278
36.99006 -13.177803 439.3828
36.46499 -12.626427 448.1369
35.80813 -12.477821 456.83917
35.808144 -12.477806 456.8392
35.32641 -12.35305 465.5939
35.097725 -11.866737 474.40076
34.976723 -10.846764 483.1451
34.738 -9.386681 491.79968
34.73803 -9.38665 491.7997
34.418266 -7.97686 500.45126
34.502068 -7.731483 509.2753
34.980568 -8.570152 518.2874
35.11544 -9.567314 527.4153
33.869865 -8.616295 536.4095
33.86988 -8.61628 536.40955
31.445396 -4.344429 544.89294
27.276894 0.047371 550.6243
37.017403 -17.954018 376.55783
37.795647 -16.41964 382.20218
36.84664 -15.971977 393.562
36.181236 -16.254494 404.34637
36.029335 -16.533958 413.22867
36.27967 -15.485832 421.93607
36.54957 -13.839211 430.58234
36.511787 -12.720604 439.34814
36.511803 -12.720619 439.34818
36.02671 -12.190254 448.0977
35.405952 -12.054924 456.80438
35.405952 -12.054909 456.80444
34.958977 -11.944298 465.5496
34.775932 -11.478737 474.32156
34.703453 -10.481483 483.04214
34.496468 -9.0308 491.69858
34.4965 -9.030769 491.69864
34.19181 -7.611794 500.37747
34.280586 -7.352592 509.27066
34.74842 -8.201363 518.32294
34.873405 -9.20536 527.37244
33.645027 -8.294289 536.2328
31.219475 -4.075188 544.5847
37.322166 -15.980766 382.11673
36.24279 -15.438438 393.4632
35.55857 -15.731987 404.25394
36.029335 -16.533943 413.22864
35.422615 -16.070137 413.11478
36.279655 -15.485832 421.93607
35.683556 -15.072304 421.8011
35.986107 -13.475868 430.50662
36.511772 -12.720604 439.34814
35.98545 -12.388908 439.31494
36.511787 -12.720619 439.34818
35.548317 -11.880318 448.06104
34.972054 -11.762947 456.77054
34.972084 -11.762932 456.77057
34.958992 -11.944298 465.5496
34.56228 -11.665459 465.5075
34.775948 -11.478737 474.32156
34.41384 -11.205635 474.24982
34.703453 -10.481483 483.0421
34.37049 -10.206688 482.94705
34.496452 -9.0308 491.69855
34.17832 -8.745811 491.59903
34.496483 -9.030769 491.69864
34.178352 -8.745796 491.59912
34.191795 -7.611809 500.37747
33.872505 -7.302696 500.29727
34.280586 -7.352608 509.27072
33.951805 -7.017067 509.26047
34.42823 -7.898109 518.355
34.549324 -8.920769 527.32245
33.645042 -8.294289 536.2328
33.329964 -8.036049 536.0559
31.21949 -4.075188 544.58466
30.901588 -3.875618 544.30176
27.276894 0.047356 550.6244
36.75051 -15.661613 382.06186
35.531334 -15.058479 393.40564
34.83274 -15.361595 404.19382
34.729164 -15.74955 413.02634
35.017723 -14.79583 421.69
35.367302 -13.234032 430.44064
35.409645 -12.165154 439.28275
35.409645 -12.165154 439.28278
35.027794 -11.671822 448.02643
34.506813 -11.569435 456.73813
34.50683 -11.56942 456.73813
34.139244 -11.482399 465.46878
34.016853 -11.02346 474.18713
33.986 -10.016991 482.86316
33.79412 -8.543434 491.50595
33.79415 -8.543419 491.506
33.469475 -7.075233 500.21487
33.51844 -6.760475 509.24313
34.029793 -7.677269 518.3786
34.15943 -8.724556 527.2674
32.93963 -7.860527 535.8895
32.93963 -7.860542 535.88947
30.511375 -3.754906 544.05756
27.276924 0.047371 550.6243
36.113075 -15.484657 382.0417
34.748726 -14.85128 393.39127
34.03428 -15.162132 404.16754
33.970497 -15.585487 412.96506
34.29252 -14.662239 421.6054
34.68998 -13.116524 430.38602
34.773796 -12.05143 439.2519
34.773796 -12.051414 439.25186
34.450874 -11.562462 447.9936
33.994926 -11.465538 456.70697
33.994926 -11.465523 456.707
33.677177 -11.383278 465.43362
33.5792 -10.925545 474.1351
33.553993 -9.91671 482.79434
33.356773 -8.438728 491.42496
33.356804 -8.438713 491.425
33.001762 -6.957466 500.13544
33.003838 -6.625755 509.21747
33.57273 -7.563423 518.3895
33.726555 -8.634483 527.2104
32.501793 -7.792198 535.74615
32.50181 -7.792198 535.7461
30.074608 -3.72538 543.8695
35.447807 -15.463905 382.05865
33.9311 -14.830818 393.41855
33.190407 -15.150826 404.17398
33.164207 -15.595161 412.93103
33.51818 -14.688759 421.54822
33.954475 -13.143303 430.34454
34.073494 -12.069359 439.22266
34.073494 -12.069374 439.22266
33.80416 -11.573952 447.96298
33.417336 -11.468452 456.67712
33.41735 -11.468437 456.67712
33.15954 -11.38018 465.40204
33.094536 -10.922813 474.09576
33.081657 -9.918663 482.74533
32.88459 -8.447029 491.36252
32.88462 -8.446999 491.36258
32.499016 -6.97097 500.0656
32.454536 -6.643333 509.18524
33.089684 -7.575279 518.3898
33.274055 -8.659691 527.15985
32.042885 -7.840111 535.6366
32.0429 -7.840126 535.63666
29.606483 -3.790535 543.7459
37.01745 -17.954018 376.55786
35.447823 -15.46389 382.05872
34.792442 -15.605385 382.11224
33.931114 -14.830803 393.41858
33.11213 -15.012398 393.48254
33.190422 -15.150795 404.174
32.328087 -15.354088 404.20978
33.164207 -15.595146 412.93103
32.32943 -15.810982 412.92307
33.518196 -14.688759 421.54822
32.7078 -14.912712 421.51825
33.95449 -13.143288 430.34457
33.16767 -13.360054 430.31805
34.07351 -12.069374 439.22266
33.3117 -12.268883 439.19574
34.07351 -12.069359 439.2227
33.3117 -12.268883 439.1957
33.80419 -11.573967 447.96298
33.083275 -11.758522 447.93655
33.41735 -11.468468 456.67715
32.76339 -11.625877 456.6499
33.417366 -11.468452 456.6772
32.763405 -11.625877 456.64993
33.159554 -11.38018 465.4021
32.57743 -11.510933 465.37512
33.094536 -10.922813 474.0958
32.565666 -11.042686 474.0724
33.081657 -9.918633 482.74533
32.587196 -10.040962 482.72168
32.884605 -8.447014 491.36255
32.40844 -8.579796 491.32562
32.884636 -8.446983 491.36258
32.40847 -8.579781 491.32565
32.49903 -6.97097 500.06564
32.008247 -7.12365 500.0131
32.454582 -6.643333 509.18527
31.93798 -6.814644 509.15073
33.0897 -7.575249 518.38983
32.629707 -7.713921 518.38165
33.27407 -8.659676 527.16
32.842476 -8.79966 527.12427
32.0429 -7.840111 535.6367
31.607979 -8.000725 535.5744
31.607994 -8.00074 535.57434
29.606483 -3.79052 543.746
29.137154 -3.950172 543.6996
27.276924 0.047371 550.62445
37.017403 -17.954048 376.5578
34.179604 -15.912239 382.1999
32.320854 -15.419685 393.58627
31.475487 -15.814537 404.2828
31.48774 -16.28823 412.95462
31.87246 -15.402931 421.535
32.328148 -13.858009 430.32166
32.47471 -12.754402 439.17572
32.47471 -12.754417 439.17572
32.296974 -12.208153 447.91846
32.05265 -12.014442 456.62848
32.052666 -12.014427 456.62854
31.9486 -11.836708 465.3553
32.01548 -11.324913 474.06903
32.10334 -10.300911 482.72842
31.969765 -8.836601 491.31973
31.96978 -8.836586 491.31976
31.58271 -7.39817 499.98438
31.513039 -7.104942 509.11932
32.23658 -7.957649 518.367
32.468178 -9.038246 527.10455
31.235268 -8.253029 535.5627
31.235252 -8.253029 535.5627
28.705894 -4.194084 543.7382
33.647896 -16.38633 382.3221
31.62156 -16.072136 393.73727
30.719505 -16.565605 404.40433
30.732689 -17.07557 413.0457
31.111534 -16.22805 421.62833
31.551613 -14.734337 430.37894
31.685066 -13.640419 439.1722
31.558952 -13.009117 447.9148
31.379173 -12.701561 456.6168
31.379189 -12.701546 456.61682
31.345467 -12.415459 465.34528
31.499992 -11.805901 474.08884
31.675697 -10.707542 482.76794
31.606178 -9.205864 491.34665
31.606209 -9.205833 491.3467
31.252602 -7.766167 499.9814
31.197975 -7.475883 509.0942
31.921227 -8.290535 518.34735
32.16053 -9.367073 527.102
30.936668 -8.58036 535.6045
30.936653 -8.58036 535.6045
28.331367 -4.518471 543.86725
33.24807 -17.02317 382.475
31.113106 -16.95234 393.93268
30.196815 -17.571846 404.5735
30.225105 -18.134834 413.2034
30.616692 -17.343971 421.8108
31.07679 -15.930687 430.49915
31.2062 -14.86776 439.19376
31.2062 -14.86776 439.19373
31.080986 -14.111031 447.93085
30.90644 -13.657509 456.61853
30.906471 -13.657494 456.61856
30.89849 -13.236824 465.34912
31.11248 -12.478844 474.13403
31.362587 -11.245277 482.8393
31.351662 -9.662758 491.4043
31.351677 -9.662743 491.40433
31.034187 -8.194389 500.00275
30.995598 -7.893089 509.07632
31.699043 -8.692284 518.3228
31.939903 -9.770195 527.1121
30.727852 -8.962868 535.6938
30.727867 -8.962852 535.6937
28.047386 -4.903664 544.0821
33.043114 -17.786018 382.64853
30.891563 -17.97599 394.1557
30.017357 -18.701271 404.77707
30.090202 -19.303581 413.41455
30.527 -18.548729 422.05823
31.0514 -17.18061 430.66046
31.193916 -16.137962 439.2379
31.193916 -16.137962 439.23788
30.998863 -15.27903 447.96597
30.759254 -14.711998 456.636
30.75927 -14.711983 456.63602
30.72306 -14.1744 465.37073
30.940239 -13.256615 474.2036
31.21473 -11.85743 482.937
31.230461 -10.169411 491.4873
31.230492 -10.16938 491.48737
30.93438 -8.656807 500.04544
30.904472 -8.339409 509.0654
31.58857 -9.15229 518.29285
31.831017 -10.23954 527.1325
30.625893 -9.390129 535.82684
30.625893 -9.390129 535.8268
27.887825 -5.329903 544.3777
33.085136 -18.605858 382.82605
30.998695 -19.010918 394.3801
30.193642 -19.779991 404.98944
30.32412 -20.375893 413.6443
30.81417 -19.607765 422.32034
31.39959 -18.213371 430.8248
31.55088 -17.156929 439.29153
31.55088 -17.156914 439.29153
31.252296 -16.259163 448.01184
30.919212 -15.647438 456.66623
30.919228 -15.647423 456.66626
30.825432 -15.040352 465.40817
30.996895 -13.998634 474.28867
31.240456 -12.455635 483.04883
31.245644 -10.674294 491.58582
31.245659 -10.674263 491.58588
30.95385 -9.126244 500.10452
30.92582 -8.801094 509.0598
31.61045 -9.650856 518.25446
31.861305 -10.75602 527.162
30.650322 -9.846626 536.0004
27.880547 -5.768562 544.7396
33.374763 -19.396461 382.98978
30.998695 -19.010933 394.38007
31.393166 -19.940895 394.58276
30.193642 -19.780006 404.98944
30.641335 -20.692818 405.18295
30.80999 -21.234474 413.85504
30.81417 -19.60778 422.3203
31.329369 -20.41465 422.55524
31.399605 -18.213371 430.82477
31.930489 -18.953224 430.96606
32.068016 -17.865242 439.34268
32.06803 -17.865257 439.34265
31.252312 -16.259163 448.01184
31.687157 -16.984474 448.06058
31.282585 -16.383034 456.70483
30.919228 -15.647423 456.66623
31.282585 -16.383018 456.7049
30.825432 -15.040337 465.40814
31.13398 -15.751503 465.45746
31.240013 -14.639793 474.38327
31.240456 -12.455635 483.04886
31.419777 -13.003365 483.16934
31.245644 -10.674309 491.58582
31.391457 -11.159492 491.69656
31.245659 -10.674278 491.58588
31.391487 -11.159462 491.6966
30.953835 -9.126244 500.10455
31.096367 -9.592018 500.1785
31.068855 -9.269829 509.05862
31.777824 -10.148277 518.2073
32.04612 -11.2687 527.19946
30.814964 -10.29763 536.2043
30.650307 -9.846626 536.0004
30.814949 -10.297615 536.2043
27.880531 -5.768562 544.7396
28.038185 -6.175484 545.13477
27.276894 0.047371 550.6244
POLYGONS 906 3624
3 0 1 2
3 0 2 3
3 3 2 4
3 3 4 5
3 5 4 6
3 5 6 7
3 7 6 8
3 7 8 9
3 9 8 10
3 9 10 11
3 11 10 12
3 11 12 13
3 13 12 14
3 15 16 17
3 17 16 18
3 17 18 19
3 19 18 20
3 21 22 23
3 23 22 24
3 23 24 25
3 25 24 26
3 25 26 27
3 27 26 28
3 27 28 29
3 29 28 30
3 31 32 33
3 33 32 34
3 33 34 35
3 35 34 36
3 35 36 37
3 37 36 38
3 37 38 39
3 39 38 40
3 39 40 41
3 41 40 42
3 43 44 45
3 45 44 46
3 45 46 47
3 2 1 48
3 2 48 4
3 4 48 49
3 4 49 6
3 6 49 50
3 6 50 8
3 8 50 51
3 8 51 10
3 10 51 52
3 10 52 12
3 12 52 53
3 12 53 14
3 14 53 54
3 16 55 18
3 18 55 56
3 18 56 20
3 20 56 57
3 22 58 24
3 24 58 59
3 24 59 26
3 26 59 60
3 26 60 28
3 28 60 61
3 28 61 30
3 30 61 62
3 32 63 34
3 34 63 64
3 34 64 36
3 36 64 65
3 36 65 38
3 38 65 66
3 38 66 40
3 40 66 67
3 40 67 42
3 42 67 68
3 44 68 46
3 46 68 69
3 46 69 47
3 47 69 70
3 48 1 71
3 48 71 49
3 49 71 72
3 49 72 50
3 50 72 73
3 50 73 51
3 51 73 74
3 51 74 52
3 52 74 75
3 52 75 53
3 53 75 76
3 53 76 54
3 54 76 77
3 55 78 56
3 56 78 79
3 56 79 57
3 57 79 80
3 58 81 59
3 59 81 82
3 59 82 60
3 60 82 83
3 60 83 61
3 61 83 84
3 61 84 62
3 62 84 85
3 63 86 64
3 64 86 87
3 64 87 65
3 65 87 88
3 65 88 66
3 66 88 89
3 66 89 67
3 67 89 90
3 67 90 68
3 68 90 91
3 68 92 69
3 69 92 93
3 69 93 70
3 1 94 71
3 71 94 95
3 71 95 72
3 72 95 96
3 72 96 73
3 73 96 97
3 73 97 74
3 74 97 98
3 74 98 75
3 75 98 99
3 75 99 76
3 76 99 100
3 76 100 77
3 77 100 101
3 78 102 79
3 79 102 103
3 79 103 80
3 80 103 104
3 81 105 82
3 82 105 106
3 82 106 83
3 83 106 107
3 83 107 84
3 84 107 108
3 84 108 85
3 85 108 109
3 86 110 87
3 87 110 111
3 87 111 88
3 88 111 112
3 88 112 89
3 89 112 113
3 89 113 90
3 90 113 114
3 90 114 91
3 91 114 115
3 92 116 93
3 93 116 117
3 93 117 70
3 70 117 118
3 94 1 95
3 95 1 119
3 95 119 96
3 96 119 120
3 96 120 97
3 97 120 121
3 97 121 98
3 98 121 122
3 98 122 99
3 99 122 123
3 99 123 100
3 100 123 124
3 100 124 101
3 101 124 125
3 102 125 103
3 103 125 126
3 103 126 104
3 104 126 127
3 105 128 106
3 106 128 129
3 106 129 107
3 107 129 130
3 107 130 108
3 108 130 131
3 108 131 109
3 109 131 132
3 110 133 111
3 111 133 134
3 111 134 112
3 112 134 135
3 112 135 113
3 113 135 136
3 113 136 114
3 114 136 137
3 114 137 115
3 115 137 138
3 116 139 117
3 117 139 140
3 117 140 118
3 118 140 141
3 142 1 143
3 142 143 120
3 120 143 144
3 120 144 145
3 145 144 146
3 145 146 147
3 147 146 148
3 147 148 123
3 123 148 149
3 123 149 150
3 150 149 151
3 150 151 152
3 152 151 153
3 152 154 155
3 155 154 156
3 155 156 157
3 157 156 158
3 159 160 161
3 161 160 162
3 161 162 163
3 163 162 164
3 163 164 165
3 165 164 166
3 165 166 167
3 167 166 168
3 169 170 171
3 171 170 172
3 171 172 173
3 173 172 174
3 173 174 175
3 175 174 176
3 175 176 177
3 177 176 178
3 177 178 179
3 179 178 180
3 181 182 183
3 183 182 184
3 183 184 47
3 1 185 143
3 143 185 186
3 143 186 144
3 144 186 187
3 144 187 146
3 146 187 188
3 146 188 148
3 148 188 189
3 148 189 149
3 149 189 190
3 149 190 151
3 151 190 191
3 151 191 153
3 153 191 192
3 154 193 156
3 156 193 194
3 156 194 158
3 158 194 195
3 160 196 162
3 162 196 197
3 162 197 164
3 164 197 198
3 164 198 166
3 166 198 199
3 166 199 168
3 168 199 200
3 170 201 172
3 172 201 202
3 172 202 174
3 174 202 203
3 174 203 176
3 176 203 204
3 176 204 178
3 178 204 205
3 178 205 180
3 180 205 206
3 182 207 184
3 184 207 208
3 184 208 47
3 47 208 209
3 185 210 186
3 186 210 211
3 186 211 187
3 187 211 212
3 187 212 188
3 188 212 213
3 188 213 189
3 189 213 214
3 189 214 190
3 190 214 215
3 190 215 191
3 191 215 216
3 191 216 192
3 192 216 217
3 193 218 194
3 194 218 219
3 194 219 195
3 195 219 220
3 196 221 197
3 197 221 222
3 197 222 198
3 198 222 223
3 198 223 199
3 199 223 224
3 199 224 200
3 200 224 225
3 201 226 202
3 202 226 227
3 202 227 203
3 203 227 228
3 203 228 204
3 204 228 229
3 204 229 205
3 205 229 230
3 205 230 206
3 206 230 231
3 207 231 208
3 208 231 232
3 208 232 209
3 209 232 233
3 234 235 236
3 236 235 237
3 236 237 238
3 238 237 239
3 238 239 240
3 240 239 241
3 240 241 242
3 242 241 243
3 242 243 244
3 244 243 245
3 244 245 246
3 246 245 247
3 246 247 248
3 248 247 249
3 250 249 251
3 251 249 252
3 251 252 253
3 253 252 254
3 255 256 257
3 257 256 258
3 257 258 259
3 259 258 260
3 259 260 261
3 261 260 262
3 261 262 263
3 263 262 264
3 265 266 267
3 267 266 268
3 267 268 269
3 269 268 270
3 269 270 271
3 271 270 272
3 271 272 273
3 273 272 274
3 273 274 275
3 275 274 276
3 277 278 279
3 279 278 280
3 279 280 281
3 281 280 209
3 235 234 237
3 237 234 282
3 237 282 239
3 239 282 283
3 239 283 241
3 241 283 284
3 241 284 243
3 243 284 285
3 243 285 245
3 245 285 286
3 245 286 247
3 247 286 287
3 247 287 249
3 249 287 288
3 249 289 252
3 252 289 290
3 252 290 254
3 254 290 291
3 256 292 258
3 258 292 293
3 258 293 260
3 260 293 294
3 260 294 262
3 262 294 295
3 262 295 264
3 264 295 296
3 266 297 268
3 268 297 298
3 268 298 270
3 270 298 299
3 270 299 272
3 272 299 300
3 272 300 274
3 274 300 301
3 274 301 276
3 276 301 302
3 278 303 280
3 280 303 304
3 280 304 209
3 209 304 305
3 234 306 282
3 282 306 307
3 282 307 283
3 283 307 308
3 283 308 284
3 284 308 309
3 284 309 285
3 285 309 310
3 285 310 286
3 286 310 311
3 286 311 287
3 287 311 312
3 287 312 288
3 288 312 313
3 289 314 290
3 290 314 315
3 290 315 291
3 291 315 316
3 292 317 293
3 293 317 318
3 293 318 294
3 294 318 319
3 294 319 295
3 295 319 320
3 295 320 296
3 296 320 321
3 297 322 298
3 298 322 323
3 298 323 299
3 299 323 324
3 299 324 300
3 300 324 325
3 300 325 301
3 301 325 326
3 301 326 302
3 302 326 327
3 303 327 304
3 304 327 328
3 304 328 305
3 305 328 47
3 307 1 329
3 307 329 308
3 308 329 330
3 308 330 309
3 309 330 331
3 309 331 332
3 332 331 333
3 332 333 334
3 334 333 335
3 334 335 312
3 312 335 336
3 312 336 337
3 337 336 338
3 339 338 315
3 315 338 340
3 315 340 316
3 316 340 341
3 317 342 343
3 343 342 344
3 343 344 345
3 345 344 346
3 345 346 347
3 347 346 348
3 347 348 349
3 349 348 350
3 351 352 353
3 353 352 354
3 353 354 355
3 355 354 356
3 355 356 325
3 325 356 357
3 325 357 326
3 326 357 358
3 326 358 359
3 359 358 360
3 359 360 361
3 361 360 362
3 361 362 281
3 281 362 363
3 329 234 364
3 329 364 330
3 330 364 365
3 330 365 331
3 331 365 366
3 331 366 333
3 333 366 367
3 333 367 335
3 335 367 368
3 335 368 336
3 336 368 369
3 336 369 338
3 338 369 370
3 338 371 340
3 340 371 372
3 340 372 341
3 341 372 373
3 342 374 344
3 344 374 375
3 344 375 346
3 346 375 376
3 346 376 348
3 348 376 377
3 348 377 350
3 350 377 378
3 352 379 354
3 354 379 380
3 354 380 356
3 356 380 381
3 356 381 357
3 357 381 382
3 357 382 358
3 358 382 383
3 358 383 360
3 360 383 384
3 360 385 362
3 362 385 386
3 362 386 363
3 363 386 387
3 234 94 364
3 364 94 388
3 364 388 365
3 365 388 389
3 365 389 366
3 366 389 390
3 366 390 367
3 367 390 391
3 367 391 368
3 368 391 392
3 368 392 369
3 369 392 393
3 369 393 370
3 370 393 394
3 371 395 372
3 372 395 396
3 372 396 373
3 373 396 397
3 374 398 375
3 375 398 399
3 375 399 376
3 376 399 400
3 376 400 377
3 377 400 401
3 377 401 378
3 378 401 402
3 379 403 380
3 380 403 404
3 380 404 381
3 381 404 405
3 381 405 382
3 382 405 406
3 382 406 383
3 383 406 407
3 383 407 384
3 384 407 408
3 385 409 386
3 386 409 410
3 386 410 387
3 387 410 47
3 94 235 388
3 388 235 411
3 388 411 389
3 389 411 412
3 389 412 390
3 390 412 413
3 390 413 391
3 391 413 414
3 391 414 392
3 392 414 415
3 392 415 393
3 393 415 416
3 393 416 394
3 394 416 417
3 395 418 396
3 396 418 419
3 396 419 397
3 397 419 420
3 398 421 399
3 399 421 422
3 399 422 400
3 400 422 423
3 400 423 401
3 401 423 424
3 401 424 402
3 402 424 425
3 403 426 404
3 404 426 427
3 404 427 405
3 405 427 428
3 405 428 406
3 406 428 429
3 406 429 407
3 407 429 430
3 407 430 408
3 408 430 431
3 409 432 410
3 410 432 433
3 410 433 47
3 47 433 281
3 434 1 435
3 435 1 436
3 435 436 437
3 437 436 438
3 437 438 439
3 439 438 440
3 439 440 441
3 441 440 442
3 441 442 443
3 443 442 444
3 443 444 445
3 445 444 446
3 445 446 447
3 447 446 448
3 449 450 451
3 451 450 452
3 451 452 453
3 453 452 454
3 455 456 457
3 457 456 458
3 457 458 459
3 459 458 460
3 459 460 461
3 461 460 462
3 461 462 463
3 463 462 464
3 465 466 467
3 467 466 468
3 467 468 469
3 469 468 470
3 469 470 471
3 471 470 472
3 471 472 473
3 473 472 474
3 473 474 475
3 475 474 476
3 475 477 478
3 478 477 479
3 478 479 480
3 480 479 209
3 1 481 436
3 436 481 482
3 436 482 438
3 438 482 483
3 438 483 440
3 440 483 484
3 440 484 442
3 442 484 485
3 442 485 444
3 444 485 486
3 444 486 446
3 446 486 487
3 446 487 448
3 448 487 488
3 450 489 452
3 452 489 490
3 452 490 454
3 454 490 491
3 456 492 458
3 458 492 493
3 458 493 460
3 460 493 494
3 460 494 462
3 462 494 495
3 462 495 464
3 464 495 496
3 466 497 468
3 468 497 498
3 468 498 470
3 470 498 499
3 470 499 472
3 472 499 500
3 472 500 474
3 474 500 501
3 474 501 476
3 476 501 502
3 477 503 479
3 479 503 504
3 479 504 209
3 209 504 47
3 481 234 482
3 482 234 505
3 482 505 483
3 483 505 506
3 483 506 484
3 484 506 507
3 484 507 485
3 485 507 508
3 485 508 486
3 486 508 509
3 486 509 487
3 487 509 510
3 487 510 488
3 488 510 511
3 489 511 490
3 490 511 512
3 490 512 491
3 491 512 513
3 492 514 493
3 493 514 515
3 493 515 494
3 494 515 516
3 494 516 495
3 495 516 517
3 495 517 496
3 496 517 518
3 497 519 498
3 498 519 520
3 498 520 499
3 499 520 521
3 499 521 500
3 500 521 522
3 500 522 501
3 501 522 523
3 501 523 502
3 502 523 524
3 503 525 504
3 504 525 526
3 504 526 47
3 234 1 505
3 505 1 527
3 505 527 506
3 506 527 528
3 506 528 507
3 507 528 529
3 507 529 508
3 508 529 530
3 508 530 509
3 509 530 531
3 509 531 510
3 510 531 532
3 510 532 511
3 511 532 533
3 511 534 512
3 512 534 535
3 512 535 513
3 513 535 536
3 514 537 515
3 515 537 538
3 515 538 516
3 516 538 539
3 516 539 517
3 517 539 540
3 517 540 518
3 518 540 541
3 519 542 520
3 520 542 543
3 520 543 521
3 521 543 544
3 521 544 522
3 522 544 545
3 522 545 523
3 523 545 546
3 523 546 524
3 524 546 547
3 525 548 526
3 526 548 549
3 526 549 209
3 209 549 118
3 527 1 550
3 527 550 528
3 528 550 551
3 528 551 529
3 529 551 552
3 529 552 530
3 530 552 553
3 530 553 531
3 531 553 554
3 531 554 532
3 532 554 555
3 532 555 533
3 533 555 556
3 534 557 535
3 535 557 558
3 535 558 536
3 536 558 559
3 537 560 538
3 538 560 561
3 538 561 539
3 539 561 562
3 539 562 540
3 540 562 563
3 540 563 541
3 541 563 564
3 542 565 543
3 543 565 566
3 543 566 544
3 544 566 567
3 544 567 545
3 545 567 568
3 545 568 546
3 546 568 569
3 546 569 547
3 547 569 570
3 548 571 549
3 549 571 572
3 549 572 118
3 1 234 550
3 550 234 573
3 550 573 551
3 551 573 574
3 551 574 552
3 552 574 575
3 552 575 553
3 553 575 576
3 553 576 554
3 554 576 577
3 554 577 555
3 555 577 578
3 555 578 556
3 556 578 579
3 557 580 558
3 558 580 581
3 558 581 559
3 559 581 582
3 560 583 561
3 561 583 584
3 561 584 562
3 562 584 585
3 562 585 563
3 563 585 586
3 563 586 564
3 564 586 587
3 565 588 566
3 566 588 589
3 566 589 567
3 567 589 590
3 567 590 568
3 568 590 591
3 568 591 569
3 569 591 592
3 569 592 570
3 570 592 593
3 571 593 572
3 572 593 594
3 572 594 118
3 118 594 209
3 573 185 595
3 573 595 596
3 596 595 597
3 596 597 598
3 598 597 599
3 598 599 576
3 576 599 600
3 576 600 601
3 601 600 602
3 601 602 603
3 603 602 604
3 603 604 579
3 579 604 605
3 580 606 607
3 607 606 608
3 607 608 582
3 582 608 609
3 610 611 612
3 612 611 613
3 612 613 585
3 585 613 614
3 585 614 615
3 615 614 616
3 615 616 617
3 617 616 618
3 619 620 621
3 621 620 622
3 621 622 590
3 590 622 623
3 590 623 591
3 591 623 624
3 591 624 592
3 592 624 625
3 592 625 593
3 593 625 626
3 627 628 629
3 629 628 630
3 629 630 631
3 185 1 595
3 595 1 0
3 595 0 597
3 597 0 3
3 597 3 599
3 599 3 5
3 599 5 600
3 600 5 7
3 600 7 602
3 602 7 9
3 602 9 604
3 604 9 11
3 604 11 605
3 605 11 13
3 606 15 608
3 608 15 17
3 608 17 609
3 609 17 19
3 611 21 613
3 613 21 23
3 613 23 614
3 614 23 25
3 614 25 616
3 616 25 27
3 616 27 618
3 618 27 29
3 620 31 622
3 622 31 33
3 622 33 623
3 623 33 35
3 623 35 624
3 624 35 37
3 624 37 625
3 625 37 39
3 625 39 626
3 626 39 41
3 628 43 630
3 630 43 45
3 630 45 631
3 631 45 47
