# vtk DataFile Version 2.0
File written by itkPolyDataMeshIO
ASCII
DATASET POLYDATA
POINTS 643 float
41.505928 45.230904 -93.24363
40.38009 47.994865 -99.29384
42.348747 44.773994 -93.700874
39.788643 40.04644 -89.673584
40.67272 39.46026 -90.11644
37.497 34.600883 -85.21544
38.31768 33.971657 -85.61846
36.090218 28.586525 -79.75277
36.941566 27.991112 -80.17326
35.333443 23.31443 -75.45546
36.231895 22.788185 -75.9012
34.506844 19.47953 -71.768295
35.403587 18.944664 -72.19926
33.96441 15.6838 -66.91453
34.81318 15.066322 -67.1792
33.964424 15.6838 -66.91453
34.81318 15.066322 -67.17921
32.858208 12.28492 -61.234142
33.62435 11.653343 -61.336132
30.872765 8.758904 -55.13766
31.586037 8.154716 -55.20147
30.872795 8.758919 -55.13767
31.586052 8.154747 -55.201477
28.497932 4.511024 -49.36758
29.144676 3.959114 -49.426754
25.78852 0.591469 -43.899223
26.341408 0.062126 -43.890232
22.402824 -1.971489 -38.246025
22.892342 -2.531822 -38.165928
18.59864 -3.758965 -32.50217
19.076317 -4.339546 -32.43033
18.598656 -3.758934 -32.50218
19.076332 -4.339531 -32.43034
15.175972 -5.315086 -26.88578
15.650627 -5.891319 -26.829557
12.272041 -6.448158 -20.99759
12.724327 -6.999062 -20.944263
9.677376 -6.994102 -14.717693
10.107796 -7.52903 -14.652573
7.23037 -7.329704 -8.239882
7.643669 -7.855583 -8.156362
4.797737 -7.914986 -1.676305
5.177757 -8.394814 -1.576941
4.797752 -7.914986 -1.676312
5.177742 -8.394814 -1.576949
2.075493 -8.083244 5.659764
2.446419 -8.534508 5.780749
-2.392311 -10.007545 12.521271
-2.392326 -10.007545 12.521271
40.380074 47.99485 -99.29383
42.994164 44.214775 -94.338486
41.361748 38.75921 -90.72695
38.97695 33.24952 -86.17656
37.623833 27.32647 -80.78821
36.927544 22.1688 -76.55375
36.08262 18.264763 -72.79812
35.454277 14.294365 -67.5896
34.203285 10.874825 -61.570995
32.126625 7.415489 -55.397366
32.126656 7.41552 -55.39737
29.63749 3.289833 -49.614742
26.758064 -0.569038 -44.00323
23.239586 -3.163765 -38.204067
19.385094 -4.937859 -32.467278
19.385109 -4.937859 -32.467285
15.941933 -6.470558 -26.864374
12.994102 -7.553993 -20.96462
10.359718 -8.069664 -14.652945
7.883766 -8.392204 -8.13523
5.407661 -8.914314 -1.532194
5.407661 -8.914314 -1.532202
2.688744 -9.074867 5.853677
-2.392311 -10.007561 12.52127
43.388954 43.600563 -95.10223
41.79885 38.002495 -91.45316
39.420235 32.49534 -86.8422
38.08056 26.648598 -81.54513
37.363 21.508858 -77.35739
36.48806 17.497551 -73.51404
35.836037 13.430931 -68.11204
35.836037 13.430931 -68.112045
34.55018 10.007912 -61.921364
32.453194 6.595726 -55.711575
32.453224 6.595757 -55.71158
29.9385 2.553062 -49.91807
27.00695 -1.255775 -44.23034
23.436668 -3.843681 -38.35547
19.559761 -5.581551 -32.6028
19.559792 -5.581535 -32.602806
16.099876 -7.097527 -26.979687
13.131218 -8.157478 -21.049238
10.480309 -8.657921 -14.709099
7.992409 -8.974205 -8.166686
5.505043 -9.473564 -1.538035
5.505043 -9.473579 -1.538043
2.785011 -9.650551 5.872593
40.380104 47.994865 -99.29384
43.512184 42.982796 -95.925674
41.959724 37.252968 -92.23211
39.62113 31.770851 -87.557556
38.28466 26.012337 -82.377464
37.514397 20.862923 -78.24134
36.59899 16.707878 -74.2849
35.93792 12.54615 -68.70187
35.937935 12.54615 -68.70188
34.644447 9.117729 -62.359196
32.54583 5.755913 -56.11943
32.54586 5.755913 -56.11944
30.029457 1.803581 -50.312527
27.073051 -1.947365 -44.553062
23.470406 -4.5252 -38.609623
19.58477 -6.234886 -32.832928
19.5848 -6.234871 -32.83294
16.108208 -7.740746 -27.173754
13.120354 -8.77993 -21.197329
10.455254 -9.265617 -14.82128
7.956245 -9.574959 -8.252003
5.459953 -10.047676 -1.59594
5.459953 -10.047676 -1.595948
2.729286 -10.23658 5.83628
-2.392296 -10.00753 12.521271
40.38009 47.994865 -99.29383
43.350563 42.389717 -96.772705
41.829247 36.54531 -93.029526
39.56373 31.110146 -88.29124
38.21969 25.448082 -83.24909
37.366783 20.260689 -79.167496
36.40203 15.931648 -75.07654
35.747612 11.688408 -69.32862
35.747597 11.688438 -69.32862
34.47573 8.269112 -62.85386
32.394753 4.960625 -56.5903
32.394768 4.960655 -56.590313
29.90084 1.097527 -50.769547
26.949059 -2.591362 -44.94803
23.333458 -5.153877 -38.94919
19.447792 -6.839775 -33.14326
19.447823 -6.839745 -33.143272
15.95385 -8.341133 -27.434788
12.95005 -9.364113 -21.400236
10.274834 -9.837166 -14.983543
7.767616 -10.14045 -8.387248
5.269508 -10.589226 -1.70312
5.269508 -10.589226 -1.703128
2.524925 -10.791344 5.747309
-2.392311 -10.007545 12.52127
40.38009 47.99485 -99.29383
43.350563 42.389732 -96.772705
42.91691 41.866386 -97.579
41.829247 36.545296 -93.029526
41.417946 35.93316 -93.78487
39.563744 31.110146 -88.291245
39.252907 30.56324 -88.98756
38.21969 25.448067 -83.24909
37.891182 24.998543 -84.0938
37.366783 20.260689 -79.16749
36.932045 19.747887 -80.0655
36.402016 15.931648 -75.07654
35.912727 15.227837 -75.828896
35.27926 10.922188 -69.945206
35.27926 10.922203 -69.94521
34.475746 8.269096 -62.85386
34.05488 7.52462 -63.369392
32.009163 4.268333 -57.09032
32.394768 4.96064 -56.590313
32.00918 4.268349 -57.09033
29.90084 1.097542 -50.769547
29.560616 0.486885 -51.25613
26.949074 -2.591347 -44.94803
26.642708 -3.140312 -45.386883
23.333473 -5.153862 -38.94919
23.034325 -5.682823 -39.34993
19.447807 -6.839775 -33.14326
19.1567 -7.3498 -33.511566
19.447838 -6.839745 -33.143272
19.15673 -7.3498 -33.511574
15.95385 -8.341118 -27.434788
15.645638 -8.852211 -27.744059
12.950035 -9.364113 -21.400236
12.630486 -9.864708 -21.643421
9.95031 -10.327614 -15.184308
7.439125 -10.624336 -8.562658
5.269493 -10.589226 -1.70312
4.94854 -11.049187 -1.851187
4.94854 -11.049187 -1.851195
2.52491 -10.791344 5.747309
2.191063 -11.257484 5.613823
-2.392311 -10.007561 12.521271
40.380104 47.99488 -99.293846
42.252693 41.47233 -98.25438
40.764503 35.48655 -94.41356
38.71694 30.193459 -89.56853
37.32914 24.716103 -84.81759
36.251427 19.38366 -80.83508
35.1782 14.67556 -76.45811
34.577065 10.324516 -70.48954
34.577065 10.324532 -70.48955
33.41915 6.940163 -63.86515
31.422798 3.726677 -57.58268
31.422829 3.726677 -57.582684
29.038918 0.015511 -51.7351
26.180824 -3.555595 -45.83607
22.598274 -6.074425 -39.780827
18.734596 -7.727852 -33.909897
18.734627 -7.727837 -33.90991
15.20739 -9.236504 -28.078308
12.186165 -10.245033 -21.908606
9.506279 -10.701241 -15.408537
6.99511 -10.992332 -8.765311
4.519875 -11.398048 -2.029642
4.519875 -11.398033 -2.02965
1.750069 -11.610146 5.44477
-2.392296 -10.007545 12.521272
40.380074 47.99485 -99.29384
41.386635 41.21569 -98.78173
39.89776 35.213997 -94.8998
37.980278 30.006493 -90.01952
36.559166 24.60427 -85.40138
35.354485 19.174324 -81.45636
34.230064 14.287773 -76.94796
33.675743 9.919289 -70.93931
33.675743 9.919304 -70.93931
32.609398 6.559349 -64.30625
30.675468 3.380562 -58.02952
30.675468 3.380577 -58.02953
28.370094 -0.27935 -52.17128
25.594276 -3.803505 -46.262524
22.055061 -6.297249 -40.210648
18.211357 -7.944542 -34.309067
18.211388 -7.944542 -34.309074
14.670677 -9.4645 -28.412914
11.649162 -10.47596 -22.176264
8.974586 -10.929848 -15.639822
6.46653 -11.217583 -8.980755
4.009895 -11.61219 -2.227124
4.009911 -11.61219 -2.227133
1.223015 -11.828011 5.248496
40.380104 47.99488 -99.29384
40.38012 47.994896 -99.293846
41.38665 41.215706 -98.78174
40.40354 41.12658 -99.10269
39.897774 35.214012 -94.89981
38.902275 35.148216 -95.18966
37.980293 30.006508 -90.01952
37.114418 30.026344 -90.29054
36.559196 24.604301 -85.40138
35.655952 24.678795 -85.78114
35.3545 19.17434 -81.45636
34.329155 19.14553 -81.86102
34.230064 14.287788 -76.94797
33.161095 14.108559 -77.24437
33.675743 9.919319 -70.939316
32.65786 9.748009 -71.249954
32.657845 9.748009 -71.24996
32.60943 6.559364 -64.30626
31.688667 6.411812 -64.65838
30.675499 3.380577 -58.029522
29.8227 3.254921 -58.398136
30.675499 3.380608 -58.029533
29.822731 3.254951 -58.398144
28.370125 -0.279335 -52.17128
27.60505 -0.375542 -52.53175
25.594307 -3.803505 -46.262527
24.927345 -3.865791 -46.63432
22.055092 -6.297234 -40.210655
21.445625 -6.334831 -40.607197
18.211372 -7.944527 -34.309067
17.626122 -7.983849 -34.67935
18.211403 -7.944511 -34.30908
17.626152 -7.983818 -34.679363
14.670692 -9.464485 -28.412918
14.075447 -9.519295 -28.722977
11.649178 -10.47596 -22.176268
11.059685 -10.540367 -22.42639
8.974602 -10.929848 -15.639826
8.396263 -10.996086 -15.860477
6.466545 -11.217567 -8.980756
5.89782 -11.281883 -9.191151
4.009911 -11.61219 -2.227125
3.472252 -11.671257 -2.423238
4.009926 -11.61219 -2.227133
3.472252 -11.671257 -2.423246
1.22303 -11.827995 5.248497
0.682671 -11.885628 5.051777
-2.392281 -10.007515 12.521272
39.382973 41.20446 -99.20181
37.859016 35.2853 -95.26961
36.190483 30.242622 -90.368835
34.69358 24.926064 -85.93693
33.25866 19.291801 -82.027725
32.05741 14.142601 -77.33308
31.60366 9.815086 -71.40333
31.60366 9.815086 -71.403336
30.726143 6.503349 -64.897934
28.92788 3.354866 -58.663254
28.92791 3.354866 -58.66326
26.801033 -0.270088 -52.79191
24.229729 -3.741478 -46.92558
20.81527 -6.187477 -40.9421
17.022362 -7.844536 -34.993767
17.022392 -7.844521 -34.99378
13.46595 -9.398048 -28.985794
10.461235 -10.434532 -22.640785
7.812386 -10.896126 -16.054966
5.324852 -11.181709 -9.383281
2.92852 -11.573463 -2.61019
2.928505 -11.573463 -2.610198
0.13102 -11.783821 4.855338
-2.392296 -10.00753 12.521272
40.380104 47.994865 -99.293846
38.36033 41.453484 -99.066414
36.803825 35.628624 -95.12812
35.23951 30.655632 -90.24364
33.704643 25.344292 -85.85394
32.179512 19.614983 -81.94075
30.958168 14.397331 -77.20242
30.562813 10.126076 -71.386024
30.562828 10.126076 -71.386024
29.790642 6.833672 -65.0042
28.060234 3.678047 -58.80173
28.06025 3.678062 -58.80174
26.017723 0.034264 -52.929405
23.55407 -3.435371 -47.11198
20.211388 -5.86245 -41.1886
16.44529 -7.534981 -35.227997
16.445305 -7.53495 -35.22801
12.887688 -9.108391 -29.181301
9.898491 -10.165123 -22.803123
7.266899 -10.636177 -16.208414
4.79171 -10.923317 -9.542171
2.423607 -11.323875 -2.772259
2.423607 -11.323891 -2.772267
-0.381004 -11.526024 4.677472
40.38009 47.994865 -99.293846
38.36033 41.453484 -99.06641
37.441338 41.84597 -98.71308
35.84588 36.14039 -94.78231
35.23951 30.655617 -90.24364
34.3601 31.22036 -89.93014
33.70466 25.344292 -85.85395
32.79151 25.888237 -85.54332
31.20356 20.079643 -81.61187
30.958168 14.397331 -77.20243
29.976402 14.844124 -76.86832
29.633156 10.648872 -71.20193
30.562828 10.126076 -71.38603
29.633156 10.648872 -71.201935
29.790642 6.833656 -65.0042
28.9524 7.375038 -64.97095
28.06025 3.678047 -58.801735
27.280891 4.198936 -58.805042
28.06025 3.678062 -58.801743
27.280907 4.198967 -58.805054
26.017723 0.034279 -52.92941
25.312263 0.512947 -52.93568
22.949043 -2.971779 -47.181232
19.677711 -5.385109 -41.32968
15.937019 -7.078758 -35.365383
15.937035 -7.078743 -35.365395
12.887688 -9.108391 -29.181303
12.382973 -8.672188 -29.295433
9.412834 -9.752464 -22.901623
7.266899 -10.636162 -16.208414
6.800636 -10.236198 -16.309376
4.79171 -10.923302 -9.542171
4.340279 -10.527245 -9.655231
2.002037 -10.944908 -2.894951
2.002052 -10.944908 -2.894959
-0.381004 -11.526009 4.677471
-0.801018 -11.139519 4.536541
-2.392311 -10.00753 12.521271
36.703453 42.35334 -98.16536
35.06568 36.78289 -94.25544
33.625786 31.894493 -89.44938
32.030495 26.51664 -85.02492
30.413109 20.651375 -81.06202
29.19497 15.451134 -76.35308
28.890358 11.344856 -70.86328
28.890358 11.344872 -70.86329
28.274284 8.085503 -64.801476
26.647041 4.876778 -58.674316
26.647057 4.876808 -58.674324
24.737038 1.12867 -52.811337
22.459328 -2.386696 -47.129215
19.253761 -4.79229 -41.355568
15.53524 -6.510506 -35.396088
15.535255 -6.51049 -35.3961
11.989311 -8.122383 -29.319916
9.040245 -9.227669 -22.929111
6.447762 -9.725899 -16.350569
4.002663 -10.021782 -9.714626
1.690544 -10.46032 -2.970876
1.690544 -10.46032 -2.970884
-1.107857 -10.643166 4.439342
36.17504 42.947807 -97.45568
34.49375 37.521477 -93.578445
33.066017 32.64263 -88.82964
31.452232 27.196999 -84.3303
29.8386 21.299568 -80.324684
28.644127 16.184105 -75.687256
28.371758 12.172478 -70.39129
28.371758 12.172462 -70.39129
27.806816 8.916496 -64.50585
26.209648 5.66375 -58.416737
26.209663 5.663765 -58.416748
24.336433 1.838585 -52.56319
22.123375 -1.721306 -46.95751
18.972496 -4.126076 -41.262486
15.270622 -5.871376 -35.31682
15.270638 -5.871346 -35.31683
11.736595 -7.499062 -29.252333
8.808983 -8.629066 -22.883114
6.234856 -9.142784 -16.3287
3.803658 -9.444664 -9.715999
1.511009 -9.90696 -2.994803
1.510994 -9.906944 -2.994812
-1.281395 -10.075478 4.392162
35.915977 43.569603 -96.65422
34.19439 38.281532 -92.81839
32.743034 33.388527 -88.13232
31.120964 27.85978 -83.5277
29.54496 21.958443 -79.472404
28.386086 16.969978 -74.93652
28.129646 13.054802 -69.82954
28.129646 13.054802 -69.829544
27.585045 9.803291 -64.10779
25.99871 6.50132 -58.052147
25.998741 6.501335 -58.052155
24.139275 2.588631 -52.210857
21.964836 -1.025703 -46.679832
18.85389 -3.436516 -41.058186
15.162224 -5.209023 -35.133904
15.162254 -5.209007 -35.13391
11.643089 -6.848625 -29.097988
8.735863 -8.001366 -22.767292
6.177696 -8.531181 -16.245485
3.759026 -8.842049 -9.658981
1.48011 -9.336571 -2.963845
1.480125 -9.336571 -2.963853
-1.301476 -9.501732 4.401057
40.38009 47.99488 -99.29384
35.916008 43.569603 -96.65422
35.9327 44.176476 -95.81743
34.19442 38.281548 -92.8184
34.17652 39.012 -92.02867
32.743065 33.388542 -88.132324
32.668755 34.083122 -87.4064
31.12098 27.85978 -83.5277
31.04879 28.461952 -82.67426
29.544975 21.958458 -79.472404
29.540337 22.584206 -78.56589
28.4264 17.754784 -74.15377
28.129662 13.054802 -69.829544
28.171638 13.930107 -69.219025
27.58506 9.803291 -64.107796
27.620949 10.680641 -63.63778
25.998726 6.50132 -58.052147
26.026863 7.327248 -57.60873
25.998741 6.50135 -58.05216
26.026878 7.327263 -57.608738
24.139275 2.588646 -52.210857
24.157005 3.323524 -51.781483
21.964836 -1.025673 -46.679836
21.992973 -0.351173 -46.31795
18.853905 -3.436501 -41.05819
18.904823 -2.774529 -40.759
15.162239 -5.209007 -35.133907
15.217155 -4.572609 -34.86159
15.16227 -5.208992 -35.133915
15.217186 -4.572578 -34.8616
11.643105 -6.848625 -29.09799
11.714989 -6.219353 -28.868683
8.735863 -8.001366 -22.767294
8.825554 -7.3908 -22.590479
6.177711 -8.531181 -16.245485
6.279747 -7.93438 -16.10732
3.759041 -8.842033 -9.658982
3.870888 -8.25161 -9.548064
1.480141 -9.336555 -2.963845
1.597466 -8.770912 -2.881001
1.480141 -9.336555 -2.963853
1.597466 -8.770912 -2.881009
-1.30146 -9.501717 4.401057
-1.171852 -8.921837 4.463688
-2.392281 -10.00753 12.521273
36.23661 44.74511 -94.97509
34.45318 39.68421 -91.237595
32.85691 34.698143 -86.67785
31.249794 28.978203 -81.79982
29.837685 23.152199 -77.636444
28.77668 18.508598 -73.367226
28.50724 14.754738 -68.58721
28.507225 14.754753 -68.58721
27.920067 11.484749 -63.127377
26.298836 8.077019 -57.118874
26.298866 8.077034 -57.11888
24.394768 3.987648 -51.304985
22.211128 0.250328 -45.8969
19.125572 -2.19062 -40.385094
15.433464 -4.010033 -34.518925
15.433495 -4.010017 -34.518936
11.948601 -5.658379 -28.580744
9.072899 -6.843224 -22.36527
6.534767 -7.398125 -15.92402
4.132301 -7.72123 -9.391074
1.85688 -8.263802 -2.751645
1.85688 -8.263802 -2.751653
-0.897453 -8.403633 4.576998
40.38012 47.99488 -99.293846
36.78797 45.20588 -94.231
34.987907 40.21601 -90.54254
33.28219 35.158546 -86.0364
31.69703 29.345848 -81.012085
30.39782 23.592628 -76.798965
29.39135 19.139519 -72.67333
29.095863 15.44088 -68.00336
29.095848 15.44088 -68.003365
28.452812 12.155373 -62.61724
26.789177 8.700218 -56.6179
26.789192 8.700233 -56.61791
24.82943 4.533913 -50.817738
22.598625 0.73719 -45.448734
19.496422 -1.725838 -39.965405
15.793327 -3.561668 -34.13201
15.793358 -3.561653 -34.132027
12.325264 -5.206367 -28.255957
9.458336 -6.398491 -22.108707
6.922539 -6.961891 -15.709556
4.521889 -7.29113 -9.200367
2.234093 -7.855659 -2.587269
2.234093 -7.855675 -2.587277
-0.50898 -7.990974 4.728727
-2.392311 -10.00753 12.521272
37.560783 45.53396 -93.62431
35.7557 40.578545 -89.98019
33.92501 35.43911 -85.51587
32.369835 29.544426 -80.35247
31.194527 23.881721 -76.09735
30.241096 19.613548 -72.10886
29.905434 15.946785 -67.50178
29.905434 15.946785 -67.501785
29.182167 12.642723 -62.144333
27.462029 9.148506 -56.14377
27.462044 9.148537 -56.143776
25.430061 4.920815 -50.3558
23.127556 1.072121 -45.00676
19.990456 -1.41555 -39.53101
16.270073 -3.261253 -33.72964
16.270088 -3.261238 -33.729645
12.816887 -4.897087 -27.918526
9.953194 -6.089745 -21.839901
7.414711 -6.657677 -15.47971
5.012901 -6.991432 -8.98927
2.709038 -7.57122 -2.397081
2.709038 -7.571205 -2.397088
-0.017464 -7.702751 4.9142
38.49624 45.709435 -93.19441
36.69776 40.750343 -89.58687
34.73565 35.5243 -85.14995
33.21621 29.563835 -79.864265
32.166954 24.002708 -75.57757
31.261482 19.901024 -71.71048
30.875725 16.23861 -67.117035
30.875725 16.23861 -67.11704
30.055931 12.909142 -61.74396
28.269707 9.386147 -55.73239
28.269737 9.386147 -55.7324
26.153954 5.117882 -49.953815
23.760292 1.228386 -44.60397
20.57151 -1.283791 -39.114246
16.827156 -3.130409 -33.342113
16.827187 -3.130394 -33.342125
13.385155 -4.752312 -27.59403
10.51873 -5.938667 -21.579317
7.972069 -6.506889 -15.252324
5.564034 -6.84333 -8.775056
3.236153 -7.431831 -2.198857
3.236183 -7.431831 -2.198865
0.521156 -7.562828 5.112566
39.507088 45.713707 -92.984436
37.726402 40.7127 -89.40213
35.638863 35.403572 -84.97538
34.157677 29.400093 -79.596016
33.22439 23.941978 -75.29138
32.357582 19.972527 -71.51795
31.92118 16.289787 -66.88394
31.92118 16.289787 -66.88395
31.006386 12.937096 -61.445576
29.151802 9.39904 -55.412632
29.151802 9.399071 -55.412643
26.945885 5.113029 -49.640728
24.448875 1.197029 -44.269444
21.192665 -1.335503 -38.746593
17.412926 -3.169319 -33.0008
17.412956 -3.169289 -33.000813
13.975227 -4.771858 -27.30937
11.100517 -5.946007 -21.348782
8.541435 -6.510857 -15.04678
6.123772 -6.84922 -8.57622
3.770073 -7.44413 -2.008981
3.770073 -7.444115 -2.008988
1.066475 -7.585106 5.309002
39.507088 45.71369 -92.984436
40.529854 45.551994 -92.99994
38.776726 40.47457 -89.43042
35.638847 35.403572 -84.97539
36.57708 35.090813 -84.99654
34.157646 29.400078 -79.59602
35.134193 29.068901 -79.55684
33.22439 23.941948 -75.29139
34.300346 23.709023 -75.24851
32.357567 19.972511 -71.51795
33.460533 19.830421 -71.536385
31.92118 16.289772 -66.88394
32.972603 16.102394 -66.813934
31.921165 16.289787 -66.88395
32.972603 16.102394 -66.81394
31.006401 12.937096 -61.445576
31.963692 12.725609 -61.270443
29.151802 9.399055 -55.412636
30.041786 9.186317 -55.20841
29.151817 9.399071 -55.412643
30.041817 9.186317 -55.208416
26.945885 5.113029 -49.64073
27.746925 4.907112 -49.439503
24.448875 1.197044 -44.269444
25.141975 0.980843 -44.02792
21.19268 -1.335487 -38.746593
21.810432 -1.564171 -38.45254
17.992699 -3.367439 -32.722805
17.99273 -3.367424 -32.722816
13.975227 -4.771843 -27.30937
14.555031 -4.944542 -27.07698
11.100517 -5.946007 -21.34878
11.667763 -6.101311 -21.15826
8.541435 -6.510857 -15.046779
9.093895 -6.659325 -14.8719
6.123772 -6.84922 -8.576221
6.666344 -6.998619 -8.400733
3.770073 -7.44413 -2.00898
4.290886 -7.598763 -1.83385
4.290886 -7.598778 -1.833858
1.605125 -7.761406 5.498879
POLYGONS 912 3648
3 0 1 2
3 0 2 3
3 3 2 4
3 3 4 5
3 5 4 6
3 5 6 7
3 7 6 8
3 7 8 9
3 9 8 10
3 9 10 11
3 11 10 12
3 11 12 13
3 13 12 14
3 15 16 17
3 17 16 18
3 17 18 19
3 19 18 20
3 21 22 23
3 23 22 24
3 23 24 25
3 25 24 26
3 25 26 27
3 27 26 28
3 27 28 29
3 29 28 30
3 31 32 33
3 33 32 34
3 33 34 35
3 35 34 36
3 35 36 37
3 37 36 38
3 37 38 39
3 39 38 40
3 39 40 41
3 41 40 42
3 43 44 45
3 45 44 46
3 45 46 47
3 47 46 48
3 1 49 2
3 2 49 50
3 2 50 4
3 4 50 51
3 4 51 6
3 6 51 52
3 6 52 8
3 8 52 53
3 8 53 10
3 10 53 54
3 10 54 12
3 12 54 55
3 12 55 14
3 14 55 56
3 16 56 18
3 18 56 57
3 18 57 20
3 20 57 58
3 22 59 24
3 24 59 60
3 24 60 26
3 26 60 61
3 26 61 28
3 28 61 62
3 28 62 30
3 30 62 63
3 32 64 34
3 34 64 65
3 34 65 36
3 36 65 66
3 36 66 38
3 38 66 67
3 38 67 40
3 40 67 68
3 40 68 42
3 42 68 69
3 44 70 46
3 46 70 71
3 46 71 48
3 48 71 72
3 50 49 73
3 50 73 51
3 51 73 74
3 51 74 52
3 52 74 75
3 52 75 53
3 53 75 76
3 53 76 54
3 54 76 77
3 54 77 55
3 55 77 78
3 55 78 56
3 56 78 79
3 56 80 57
3 57 80 81
3 57 81 58
3 58 81 82
3 59 83 60
3 60 83 84
3 60 84 61
3 61 84 85
3 61 85 62
3 62 85 86
3 62 86 63
3 63 86 87
3 64 88 65
3 65 88 89
3 65 89 66
3 66 89 90
3 66 90 67
3 67 90 91
3 67 91 68
3 68 91 92
3 68 92 69
3 69 92 93
3 70 94 71
3 71 94 95
3 71 95 72
3 72 95 48
3 49 96 73
3 73 96 97
3 73 97 74
3 74 97 98
3 74 98 75
3 75 98 99
3 75 99 76
3 76 99 100
3 76 100 77
3 77 100 101
3 77 101 78
3 78 101 102
3 78 102 79
3 79 102 103
3 80 104 81
3 81 104 105
3 81 105 82
3 82 105 106
3 83 107 84
3 84 107 108
3 84 108 85
3 85 108 109
3 85 109 86
3 86 109 110
3 86 110 87
3 87 110 111
3 88 112 89
3 89 112 113
3 89 113 90
3 90 113 114
3 90 114 91
3 91 114 115
3 91 115 92
3 92 115 116
3 92 116 93
3 93 116 117
3 94 118 95
3 95 118 119
3 95 119 48
3 48 119 120
3 96 121 97
3 97 121 122
3 97 122 98
3 98 122 123
3 98 123 99
3 99 123 124
3 99 124 100
3 100 124 125
3 100 125 101
3 101 125 126
3 101 126 102
3 102 126 127
3 102 127 103
3 103 127 128
3 104 129 105
3 105 129 130
3 105 130 106
3 106 130 131
3 107 132 108
3 108 132 133
3 108 133 109
3 109 133 134
3 109 134 110
3 110 134 135
3 110 135 111
3 111 135 136
3 112 137 113
3 113 137 138
3 113 138 114
3 114 138 139
3 114 139 115
3 115 139 140
3 115 140 116
3 116 140 141
3 116 141 117
3 117 141 142
3 118 143 119
3 119 143 144
3 119 144 120
3 120 144 145
3 146 1 147
3 147 1 148
3 147 148 149
3 149 148 150
3 149 150 151
3 151 150 152
3 151 152 153
3 153 152 154
3 153 154 155
3 155 154 156
3 155 156 157
3 157 156 158
3 157 158 128
3 128 158 159
3 128 160 161
3 161 160 162
3 161 162 131
3 131 162 163
3 164 165 166
3 166 165 167
3 166 167 168
3 168 167 169
3 168 169 170
3 170 169 171
3 170 171 172
3 172 171 173
3 174 175 176
3 176 175 177
3 176 177 178
3 178 177 179
3 178 179 140
3 140 179 180
3 140 180 141
3 141 180 181
3 141 181 182
3 182 181 183
3 143 184 185
3 185 184 186
3 185 186 187
3 1 188 148
3 148 188 189
3 148 189 150
3 150 189 190
3 150 190 152
3 152 190 191
3 152 191 154
3 154 191 192
3 154 192 156
3 156 192 193
3 156 193 158
3 158 193 194
3 158 194 159
3 159 194 195
3 160 196 162
3 162 196 197
3 162 197 163
3 163 197 198
3 165 199 167
3 167 199 200
3 167 200 169
3 169 200 201
3 169 201 171
3 171 201 202
3 171 202 173
3 173 202 203
3 175 204 177
3 177 204 205
3 177 205 179
3 179 205 206
3 179 206 180
3 180 206 207
3 180 207 181
3 181 207 208
3 181 208 183
3 183 208 209
3 184 210 186
3 186 210 211
3 186 211 187
3 187 211 212
3 188 213 189
3 189 213 214
3 189 214 190
3 190 214 215
3 190 215 191
3 191 215 216
3 191 216 192
3 192 216 217
3 192 217 193
3 193 217 218
3 193 218 194
3 194 218 219
3 194 219 195
3 195 219 220
3 196 221 197
3 197 221 222
3 197 222 198
3 198 222 223
3 199 224 200
3 200 224 225
3 200 225 201
3 201 225 226
3 201 226 202
3 202 226 227
3 202 227 203
3 203 227 228
3 204 229 205
3 205 229 230
3 205 230 206
3 206 230 231
3 206 231 207
3 207 231 232
3 207 232 208
3 208 232 233
3 208 233 209
3 209 233 234
3 210 235 211
3 211 235 236
3 211 236 212
3 212 236 145
3 237 238 239
3 239 238 240
3 239 240 241
3 241 240 242
3 241 242 243
3 243 242 244
3 243 244 245
3 245 244 246
3 245 246 247
3 247 246 248
3 247 248 249
3 249 248 250
3 249 250 251
3 251 250 252
3 251 253 254
3 254 253 255
3 254 255 256
3 256 255 257
3 258 259 260
3 260 259 261
3 260 261 262
3 262 261 263
3 262 263 264
3 264 263 265
3 264 265 266
3 266 265 267
3 268 269 270
3 270 269 271
3 270 271 272
3 272 271 273
3 272 273 274
3 274 273 275
3 274 275 276
3 276 275 277
3 276 277 278
3 278 277 279
3 280 281 282
3 282 281 283
3 282 283 120
3 120 283 284
3 238 237 240
3 240 237 285
3 240 285 242
3 242 285 286
3 242 286 244
3 244 286 287
3 244 287 246
3 246 287 288
3 246 288 248
3 248 288 289
3 248 289 250
3 250 289 290
3 250 290 252
3 252 290 291
3 253 292 255
3 255 292 293
3 255 293 257
3 257 293 294
3 259 295 261
3 261 295 296
3 261 296 263
3 263 296 297
3 263 297 265
3 265 297 298
3 265 298 267
3 267 298 299
3 269 300 271
3 271 300 301
3 271 301 273
3 273 301 302
3 273 302 275
3 275 302 303
3 275 303 277
3 277 303 304
3 277 304 279
3 279 304 305
3 281 306 283
3 283 306 307
3 283 307 284
3 284 307 308
3 237 309 285
3 285 309 310
3 285 310 286
3 286 310 311
3 286 311 287
3 287 311 312
3 287 312 288
3 288 312 313
3 288 313 289
3 289 313 314
3 289 314 290
3 290 314 315
3 290 315 291
3 291 315 316
3 292 317 293
3 293 317 318
3 293 318 294
3 294 318 319
3 295 320 296
3 296 320 321
3 296 321 297
3 297 321 322
3 297 322 298
3 298 322 323
3 298 323 299
3 299 323 324
3 300 325 301
3 301 325 326
3 301 326 302
3 302 326 327
3 302 327 303
3 303 327 328
3 303 328 304
3 304 328 329
3 304 329 305
3 305 329 330
3 306 331 307
3 307 331 332
3 307 332 308
3 188 333 334
3 334 333 335
3 334 335 311
3 311 335 336
3 311 336 337
3 337 336 338
3 337 338 339
3 339 338 340
3 339 340 314
3 314 340 341
3 314 341 342
3 342 341 343
3 342 343 317
3 317 343 344
3 345 346 347
3 347 346 348
3 347 348 349
3 349 348 350
3 351 352 353
3 353 352 354
3 353 354 322
3 322 354 355
3 322 355 323
3 323 355 356
3 323 356 324
3 324 356 357
3 325 358 359
3 359 358 360
3 359 360 327
3 327 360 361
3 327 361 362
3 362 361 363
3 362 363 364
3 364 363 365
3 364 365 330
3 330 365 366
3 331 367 368
3 368 367 369
3 368 369 308
3 308 369 370
3 335 333 371
3 335 371 336
3 336 371 372
3 336 372 338
3 338 372 373
3 338 373 340
3 340 373 374
3 340 374 341
3 341 374 375
3 341 375 343
3 343 375 376
3 343 376 344
3 344 376 377
3 346 378 348
3 348 378 379
3 348 379 350
3 350 379 380
3 352 381 354
3 354 381 382
3 354 382 355
3 355 382 383
3 355 383 356
3 356 383 384
3 356 384 357
3 357 384 385
3 358 386 360
3 360 386 387
3 360 387 361
3 361 387 388
3 361 388 363
3 363 388 389
3 363 389 365
3 365 389 390
3 365 390 366
3 366 390 391
3 367 392 369
3 369 392 393
3 369 393 370
3 370 393 308
3 333 1 371
3 371 1 394
3 371 394 372
3 372 394 395
3 372 395 373
3 373 395 396
3 373 396 374
3 374 396 397
3 374 397 375
3 375 397 398
3 375 398 376
3 376 398 399
3 376 399 377
3 377 399 400
3 378 401 379
3 379 401 402
3 379 402 380
3 380 402 403
3 381 404 382
3 382 404 405
3 382 405 383
3 383 405 406
3 383 406 384
3 384 406 407
3 384 407 385
3 385 407 408
3 386 409 387
3 387 409 410
3 387 410 388
3 388 410 411
3 388 411 389
3 389 411 412
3 389 412 390
3 390 412 413
3 390 413 391
3 391 413 414
3 392 415 393
3 393 415 416
3 393 416 308
3 308 416 47
3 1 96 394
3 394 96 417
3 394 417 395
3 395 417 418
3 395 418 396
3 396 418 419
3 396 419 397
3 397 419 420
3 397 420 398
3 398 420 421
3 398 421 399
3 399 421 422
3 399 422 400
3 400 422 423
3 401 424 402
3 402 424 425
3 402 425 403
3 403 425 426
3 404 427 405
3 405 427 428
3 405 428 406
3 406 428 429
3 406 429 407
3 407 429 430
3 407 430 408
3 408 430 431
3 409 432 410
3 410 432 433
3 410 433 411
3 411 433 434
3 411 434 412
3 412 434 435
3 412 435 413
3 413 435 436
3 413 436 414
3 414 436 437
3 415 438 416
3 416 438 439
3 416 439 47
3 47 439 212
3 238 440 441
3 441 440 442
3 441 442 443
3 443 442 444
3 443 444 445
3 445 444 446
3 445 446 447
3 447 446 448
3 447 448 449
3 449 448 450
3 449 450 422
3 422 450 451
3 422 451 452
3 452 451 453
3 452 453 454
3 454 453 455
3 454 455 456
3 456 455 457
3 458 459 460
3 460 459 461
3 460 461 462
3 462 461 463
3 462 463 464
3 464 463 465
3 464 465 466
3 466 465 467
3 468 469 470
3 470 469 471
3 470 471 472
3 472 471 473
3 472 473 474
3 474 473 475
3 474 475 476
3 476 475 477
3 476 477 478
3 478 477 479
3 480 481 482
3 482 481 483
3 482 483 484
3 484 483 308
3 440 1 442
3 442 1 485
3 442 485 444
3 444 485 486
3 444 486 446
3 446 486 487
3 446 487 448
3 448 487 488
3 448 488 450
3 450 488 489
3 450 489 451
3 451 489 490
3 451 490 453
3 453 490 491
3 453 492 455
3 455 492 493
3 455 493 457
3 457 493 494
3 459 495 461
3 461 495 496
3 461 496 463
3 463 496 497
3 463 497 465
3 465 497 498
3 465 498 467
3 467 498 499
3 469 500 471
3 471 500 501
3 471 501 473
3 473 501 502
3 473 502 475
3 475 502 503
3 475 503 477
3 477 503 504
3 477 504 479
3 479 504 505
3 481 506 483
3 483 506 507
3 483 507 308
3 308 507 47
3 1 508 485
3 485 508 509
3 485 509 486
3 486 509 510
3 486 510 487
3 487 510 511
3 487 511 488
3 488 511 512
3 488 512 489
3 489 512 513
3 489 513 490
3 490 513 514
3 490 514 491
3 491 514 515
3 492 516 493
3 493 516 517
3 493 517 494
3 494 517 518
3 495 519 496
3 496 519 520
3 496 520 497
3 497 520 521
3 497 521 498
3 498 521 522
3 498 522 499
3 499 522 523
3 500 524 501
3 501 524 525
3 501 525 502
3 502 525 526
3 502 526 503
3 503 526 527
3 503 527 504
3 504 527 528
3 504 528 505
3 505 528 529
3 506 530 507
3 507 530 531
3 507 531 47
3 47 531 532
3 508 1 509
3 509 1 533
3 509 533 510
3 510 533 534
3 510 534 511
3 511 534 535
3 511 535 512
3 512 535 536
3 512 536 513
3 513 536 537
3 513 537 514
3 514 537 538
3 514 538 515
3 515 538 539
3 516 540 517
3 517 540 541
3 517 541 518
3 518 541 542
3 519 543 520
3 520 543 544
3 520 544 521
3 521 544 545
3 521 545 522
3 522 545 546
3 522 546 523
3 523 546 547
3 524 548 525
3 525 548 549
3 525 549 526
3 526 549 550
3 526 550 527
3 527 550 551
3 527 551 528
3 528 551 552
3 528 552 529
3 529 552 553
3 530 554 531
3 531 554 555
3 531 555 532
3 532 555 47
3 1 333 533
3 533 333 556
3 533 556 534
3 534 556 557
3 534 557 535
3 535 557 558
3 535 558 536
3 536 558 559
3 536 559 537
3 537 559 560
3 537 560 538
3 538 560 561
3 538 561 539
3 539 561 562
3 540 563 541
3 541 563 564
3 541 564 542
3 542 564 565
3 543 566 544
3 544 566 567
3 544 567 545
3 545 567 568
3 545 568 546
3 546 568 569
3 546 569 547
3 547 569 570
3 548 571 549
3 549 571 572
3 549 572 550
3 550 572 573
3 550 573 551
3 551 573 574
3 551 574 552
3 552 574 575
3 552 575 553
3 553 575 576
3 554 577 555
3 555 577 578
3 555 578 47
3 333 188 556
3 556 188 579
3 556 579 557
3 557 579 580
3 557 580 558
3 558 580 581
3 558 581 559
3 559 581 582
3 559 582 560
3 560 582 583
3 560 583 561
3 561 583 584
3 561 584 562
3 562 584 585
3 563 586 564
3 564 586 587
3 564 587 565
3 565 587 588
3 566 589 567
3 567 589 590
3 567 590 568
3 568 590 591
3 568 591 569
3 569 591 592
3 569 592 570
3 570 592 593
3 571 594 572
3 572 594 595
3 572 595 573
3 573 595 596
3 573 596 574
3 574 596 597
3 574 597 575
3 575 597 598
3 575 598 576
3 576 598 599
3 577 600 578
3 578 600 601
3 578 601 47
3 188 96 602
3 602 96 603
3 602 603 580
3 580 603 604
3 580 604 605
3 605 604 606
3 605 606 607
3 607 606 608
3 607 608 609
3 609 608 610
3 609 610 611
3 611 610 612
3 611 612 613
3 613 612 614
3 615 616 617
3 617 616 618
3 617 618 619
3 619 618 620
3 621 622 623
3 623 622 624
3 623 624 625
3 625 624 626
3 625 626 627
3 627 626 628
3 627 628 593
3 593 628 629
3 594 630 631
3 631 630 632
3 631 632 633
3 633 632 634
3 633 634 635
3 635 634 636
3 635 636 637
3 637 636 638
3 637 638 639
3 639 638 640
3 600 641 601
3 601 641 642
3 601 642 308
3 96 1 603
3 603 1 0
3 603 0 604
3 604 0 3
3 604 3 606
3 606 3 5
3 606 5 608
3 608 5 7
3 608 7 610
3 610 7 9
3 610 9 612
3 612 9 11
3 612 11 614
3 614 11 13
3 616 15 618
3 618 15 17
3 618 17 620
3 620 17 19
3 622 21 624
3 624 21 23
3 624 23 626
3 626 23 25
3 626 25 628
3 628 25 27
3 628 27 629
3 629 27 29
3 630 31 632
3 632 31 33
3 632 33 634
3 634 33 35
3 634 35 636
3 636 35 37
3 636 37 638
3 638 37 39
3 638 39 640
3 640 39 41
3 641 43 642
3 642 43 45
3 642 45 370
3 370 45 47
