# vtk DataFile Version 2.0
File written by itkPolyDataMeshIO
ASCII
DATASET POLYDATA
POINTS 640 float
-85.28741 -13.99221 377.73615
-87.2803 -12.197533 376.7789
-85.29274 -13.71479 378.27045
-82.82915 -15.180611 378.5719
-82.86131 -14.647575 379.5489
-80.05416 -15.776039 379.1339
-80.1147 -15.077431 380.36227
-77.17976 -15.95182 379.44382
-77.256294 -15.186943 380.7519
-74.29589 -15.891914 379.65512
-74.37606 -15.110512 380.97675
-71.498436 -15.810493 379.87656
-71.57064 -15.025932 381.20868
-68.880394 -15.829765 380.1206
-68.92903 -15.041008 381.4603
-68.8804 -15.82975 380.1206
-68.92902 -15.041008 381.46027
-66.50455 -16.023018 380.39252
-66.50645 -15.224342 381.73236
-64.284035 -16.435188 380.6817
-64.213585 -15.620918 382.01166
-64.28403 -16.435173 380.6817
-64.213585 -15.620918 382.01172
-61.88453 -17.057198 380.97406
-61.726616 -16.22303 382.28418
-58.98365 -17.784538 381.08893
-58.74601 -16.929253 382.3755
-55.55311 -18.491829 380.81894
-55.269905 -17.618675 382.08337
-51.830605 -19.137627 380.12604
-51.552788 -18.25634 381.37622
-51.83059 -19.137596 380.12607
-51.552788 -18.25631 381.37625
-48.068306 -19.767052 379.06534
-47.84133 -18.905418 380.32022
-44.500877 -20.386269 377.85477
-44.338707 -19.594734 379.11163
-41.4638 -20.630562 377.1188
-41.352608 -19.876213 378.35526
-38.740654 -20.481422 376.81854
-38.655342 -19.716011 378.05032
-36.393135 -19.485313 376.25177
-36.33564 -18.849037 377.3081
-36.33564 -18.849037 377.30807
-34.86396 -17.349754 375.1546
-34.84362 -17.036858 375.7256
-34.0718 -14.896935 374.0388
-87.280304 -12.197548 376.77887
-85.31418 -13.331383 378.6999
-82.90974 -14.012169 380.30142
-80.18496 -14.30114 381.29404
-77.336464 -14.343758 381.74612
-74.45407 -14.247704 381.9827
-71.63561 -14.159081 382.22333
-68.9666 -14.171501 382.48203
-68.96659 -14.171501 382.48203
-66.494774 -14.348885 382.75647
-64.129906 -14.734932 383.03058
-64.1299 -14.734917 383.03058
-61.56327 -15.321007 383.28757
-58.520164 -16.00756 383.35706
-55.019173 -16.678368 383.04428
-51.321556 -17.30117 382.32736
-51.32154 -17.30114 382.32742
-47.664024 -17.935722 381.29077
-44.22361 -18.607536 380.1302
-41.284966 -18.880836 379.3751
-38.60888 -18.71305 379.05392
-36.303032 -17.989021 378.15747
-36.303032 -17.989037 378.15747
-34.832115 -16.568184 376.179
-34.0718 -14.89695 374.0388
-87.2803 -12.197548 376.77887
-85.35054 -12.857719 379.00208
-82.97705 -13.238625 380.8366
-80.272934 -13.36277 381.96085
-77.432106 -13.324181 382.45932
-74.54501 -13.203636 382.70535
-71.71199 -13.11097 382.9538
-69.013885 -13.123222 383.21997
-66.48697 -13.297966 383.4989
-64.03937 -13.675972 383.77148
-64.03936 -13.675957 383.7715
-61.384697 -14.245842 384.01584
-58.280663 -14.909615 384.06473
-54.766228 -15.557045 383.73312
-51.102943 -16.15818 383.01083
-51.10293 -16.158165 383.01086
-47.513634 -16.760963 381.99463
-44.149406 -17.378593 380.8668
-41.269585 -17.639977 380.10986
-38.620064 -17.498497 379.77368
-36.314705 -16.955925 378.75555
-36.314705 -16.95594 378.75555
-34.838432 -15.986015 376.48547
-87.2803 -12.197517 376.7789
-85.39968 -12.324715 379.15375
-83.06144 -12.357674 381.1104
-80.37773 -12.286201 382.30655
-77.54343 -12.152016 382.8315
-74.652565 -12.003487 383.08456
-71.810005 -11.908791 383.34094
-69.08876 -11.925377 383.61685
-69.08875 -11.925362 383.61682
-66.50523 -12.102089 383.90344
-63.96334 -12.474831 384.17758
-63.96334 -12.474815 384.1776
-61.209084 -13.029015 384.41138
-58.043648 -13.668999 384.44162
-54.526558 -14.290932 384.0947
-50.91143 -14.866249 383.37192
-50.911415 -14.866234 383.37195
-47.402306 -15.428703 382.37643
-44.124718 -15.978004 381.2674
-41.31098 -16.234047 380.50717
-38.692345 -16.148582 380.1546
-36.376915 -15.820824 379.05292
-36.3769 -15.820824 379.0529
-34.87011 -15.3433 376.62268
-87.2803 -12.197548 376.7789
-85.45831 -11.772865 379.142
-83.15691 -11.44117 381.09167
-80.49158 -11.162453 382.2878
-77.6628 -10.927223 382.81616
-74.772156 -10.750557 383.0739
-71.93143 -10.657722 383.33945
-69.2013 -10.684914 383.6295
-69.20131 -10.684929 383.62946
-66.56777 -10.869576 383.92795
-63.92704 -11.241295 384.206
-63.927025 -11.24128 384.20602
-61.067635 -11.783943 384.43066
-57.844597 -12.406471 384.44522
-54.33616 -13.010399 384.08826
-50.77851 -13.565636 383.36972
-50.77851 -13.565605 383.36978
-47.352623 -14.09269 382.39407
-44.16059 -14.581139 381.29504
-41.407677 -14.832314 380.52747
-38.820747 -14.799843 380.15604
-36.498726 -14.692299 379.03372
-36.49871 -14.692314 379.03372
-34.944466 -14.712486 376.60178
-34.0718 -14.89695 374.03876
-85.45831 -11.77285 379.14197
-85.52237 -11.243477 378.9679
-83.15691 -11.441185 381.09164
-83.256805 -10.559364 380.78174
-80.49158 -11.162468 382.2878
-80.60612 -10.078819 381.90552
-77.662796 -10.927238 382.81616
-77.78107 -9.745186 382.41376
-74.77215 -10.750542 383.0739
-74.89452 -9.542625 382.67355
-72.06704 -9.455788 382.94986
-69.2013 -10.684929 383.62946
-69.34359 -9.499535 383.25894
-69.201294 -10.684929 383.6295
-66.567764 -10.869576 383.92795
-66.67108 -9.697701 383.57346
-63.92704 -11.241295 384.20602
-63.935616 -10.072731 383.85724
-63.927025 -11.24128 384.20605
-63.9356 -10.072716 383.85727
-61.06765 -11.783943 384.4307
-60.975655 -10.609261 384.0742
-57.844612 -12.406471 384.44525
-57.70524 -11.223808 384.07693
-54.336174 -13.010399 384.0883
-54.21705 -11.822838 383.71597
-50.77851 -13.565636 383.36975
-50.72135 -12.371788 383.0054
-50.72135 -12.371773 383.00546
-47.352623 -14.09269 382.3941
-47.373177 -12.880745 382.04382
-44.16059 -14.581123 381.29504
-44.25437 -13.333397 380.9364
-41.407692 -14.832298 380.52747
-41.546455 -13.573677 380.14682
-38.989006 -13.565254 379.7546
-36.67077 -13.656914 378.68958
-36.49871 -14.692299 379.03372
-36.670753 -13.656914 378.6896
-34.944466 -14.712471 376.60178
-35.058556 -14.143883 376.42435
-34.0718 -14.896919 374.0388
-87.28029 -12.197533 376.7789
-85.58746 -10.775826 378.64453
-83.35423 -9.778206 380.20386
-80.71312 -9.116692 381.1883
-77.888664 -8.694572 381.65417
-75.0071 -8.469872 381.9132
-72.19861 -8.391655 382.20117
-69.49149 -8.455208 382.53363
-69.49149 -8.455223 382.53363
-66.79126 -8.670067 382.86755
-63.974037 -9.050957 383.1578
-63.974022 -9.050941 383.15787
-60.929832 -9.584373 383.36844
-57.628944 -10.196205 383.36353
-54.17202 -10.79879 383.00467
-50.738533 -11.353218 382.30524
-50.738533 -11.353203 382.3053
-47.45771 -11.860466 381.35022
-44.395836 -12.298912 380.21207
-41.714058 -12.525368 379.38095
-39.177467 -12.518089 378.95697
-36.85978 -12.766838 378.008
-36.859795 -12.766838 378.008
-35.180733 -13.652107 376.0698
-34.0718 -14.896935 374.03882
-87.280304 -12.197533 376.7789
-85.649315 -10.404778 378.19617
-83.442795 -9.156013 379.40176
-80.80528 -8.347984 380.19012
-77.97708 -7.853859 380.5943
-75.09724 -7.61132 380.84982
-72.304375 -7.541466 381.14975
-69.61217 -7.62339 381.50827
-66.89129 -7.854042 381.8631
-64.01182 -8.241127 382.15927
-64.01181 -8.241112 382.1593
-60.90954 -8.77198 382.3641
-57.599586 -9.380867 382.35495
-54.182945 -9.986931 382.00317
-50.80845 -10.549614 381.3184
-50.80845 -10.549599 381.31845
-47.585304 -11.063271 380.36566
-44.57273 -11.500984 379.18457
-41.903847 -11.722969 378.30106
-39.374825 -11.715889 377.83154
-37.050148 -12.081062 377.04388
-35.301033 -13.270821 375.56964
-87.28028 -12.197517 376.77893
-85.64931 -10.404762 378.1962
-85.703804 -10.158028 377.6566
-83.44279 -9.155998 379.4018
-83.5169 -8.739372 378.43607
-80.805275 -8.347969 380.19016
-80.87677 -7.830284 378.98697
-77.97707 -7.853828 380.5943
-78.03895 -7.285271 379.31528
-75.09723 -7.611305 380.84982
-75.15085 -7.028389 379.56396
-72.30437 -7.541435 381.14978
-72.35575 -6.961479 379.8711
-69.61216 -7.623375 381.5083
-69.658966 -7.05294 380.24872
-69.61217 -7.623375 381.50833
-69.658966 -7.052956 380.24872
-66.89128 -7.854042 381.86313
-66.91397 -7.292366 380.61868
-63.993584 -7.682991 380.91876
-64.0118 -8.241096 382.15933
-63.99357 -7.682976 380.9188
-60.909523 -8.771965 382.36417
-60.866554 -8.211617 381.11963
-57.59957 -9.380852 382.35498
-57.573067 -8.816734 381.10925
-54.18293 -9.9869 382.0032
-54.20498 -9.422707 380.7663
-50.808434 -10.549599 381.31842
-50.884224 -9.99012 380.095
-50.80842 -10.549568 381.31848
-50.884224 -9.990089 380.09503
-47.58529 -11.063271 380.3657
-47.708504 -10.510536 379.14062
-44.572716 -11.500969 379.1846
-44.740486 -10.952766 377.919
-41.90383 -11.722939 378.3011
-42.086845 -11.178368 376.98917
-39.37481 -11.715889 377.83157
-39.565437 -11.181664 376.46957
-37.050133 -12.081062 377.04388
-37.230446 -11.634514 375.8822
-37.23043 -11.634529 375.8822
-35.301018 -13.270821 375.56964
-35.41265 -13.027702 374.97443
-34.071785 -14.896919 374.03882
-34.0718 -14.896919 374.03882
-87.28029 -12.197533 376.77893
-85.74644 -10.053841 377.06586
-83.57124 -8.559334 377.38043
-80.92308 -7.602074 377.67328
-78.068405 -7.030174 377.919
-75.15533 -6.760841 378.1552
-72.326195 -6.686226 378.45306
-69.587715 -6.771065 378.82266
-69.58772 -6.771065 378.82263
-66.802505 -7.005394 379.1869
-63.85868 -7.393044 379.4846
-63.858665 -7.393044 379.48462
-60.74111 -7.91938 379.68365
-57.49082 -8.522285 379.6729
-54.180656 -9.127312 379.33383
-50.909004 -9.696541 378.6666
-50.909004 -9.696526 378.66666
-47.76516 -10.220512 377.7058
-44.821083 -10.665031 376.46405
-42.20565 -10.908226 375.5453
-39.723213 -10.944817 375.02304
-37.385384 -11.456429 374.6501
-37.3854 -11.456429 374.6501
-35.50602 -12.938118 374.32687
-34.071785 -14.896935 374.03882
-87.28029 -12.197517 376.77893
-85.77328 -10.099663 376.4673
-83.60037 -8.628822 376.3118
-80.93922 -7.679756 376.34424
-78.06219 -7.106987 376.5065
-75.11071 -6.828224 376.72607
-72.220665 -6.736397 377.00037
-69.408394 -6.799141 377.33685
-69.40839 -6.799141 377.33688
-66.568344 -7.01403 377.67368
-63.614006 -7.39019 377.9583
-63.614006 -7.390175 377.95837
-60.53109 -7.911964 378.1509
-57.3422 -8.513893 378.1356
-54.09504 -9.119621 377.79608
-50.86828 -9.691994 377.13104
-50.868263 -9.691963 377.13107
-47.74572 -10.223213 376.16992
-44.81446 -10.679939 374.9376
-42.256294 -10.955406 374.08353
-39.833473 -11.035927 373.5958
-37.49888 -11.563347 373.429
-37.49888 -11.563332 373.429
-35.572685 -13.008827 373.6691
-87.28029 -12.197517 376.7789
-85.78158 -10.292061 375.90506
-83.60008 -8.942299 375.30737
-80.93921 -7.679756 376.34424
-80.921326 -8.057045 375.0945
-78.06218 -7.106987 376.5065
-78.02035 -7.510094 375.17755
-75.1107 -6.828224 376.7261
-75.02818 -7.228249 375.37943
-72.22066 -6.736397 377.0004
-72.07091 -7.116066 375.6253
-69.40839 -6.799141 377.33685
-69.17776 -7.149452 375.9192
-69.40838 -6.799141 377.33685
-66.56834 -7.01403 377.67368
-66.28463 -7.336845 376.21875
-63.614006 -7.39019 377.95834
-63.332848 -7.694847 376.48273
-63.614006 -7.390175 377.95834
-63.332848 -7.694832 376.48276
-60.29827 -8.208153 376.66376
-57.3422 -8.513908 378.1356
-57.175285 -8.807945 376.64096
-54.09504 -9.119637 377.7961
-53.985954 -9.414848 376.30093
-50.86828 -9.691994 377.13107
-50.793327 -9.991951 375.64044
-50.868263 -9.691963 377.1311
-50.793312 -9.99192 375.6405
-47.678917 -10.535805 374.6845
-44.814476 -10.679939 374.9376
-44.749977 -11.017662 373.47678
-42.25628 -10.955406 374.08353
-42.24508 -11.329353 372.7019
-39.833458 -11.035927 373.5958
-39.878883 -11.448875 372.25082
-37.553474 -11.944313 372.27277
-37.498863 -11.563332 373.429
-37.553474 -11.944328 372.2728
-35.605705 -13.233833 373.0442
-87.2803 -12.197517 376.77893
-85.77039 -10.616814 375.42065
-83.569046 -9.476128 374.44092
-80.8688 -8.705223 374.0152
-77.94602 -8.209465 374.02875
-74.92177 -7.93354 374.21423
-71.911896 -7.804436 374.4339
-68.957 -7.810249 374.68842
-68.95701 -7.810249 374.68845
-66.03068 -7.969902 374.95193
-63.09678 -8.30677 375.19315
-63.09678 -8.30674 375.19318
-60.1155 -8.807503 375.36127
-57.051506 -9.401848 375.33218
-53.904655 -10.007927 374.9933
-50.725975 -10.588356 374.33722
-50.72596 -10.588326 374.33725
-47.59568 -11.144615 373.3832
-44.64257 -11.652885 372.19583
-42.164818 -11.989693 371.49335
-39.840538 -12.136147 371.07526
-37.53562 -12.56176 371.26065
-35.60099 -13.595589 372.49722
-87.2803 -12.197533 376.77893
-85.74056 -11.049767 375.04965
-83.50928 -10.190453 373.77618
-80.78502 -9.575539 373.18558
-77.84521 -9.152657 373.1443
-74.8035 -8.892204 373.3164
-71.76703 -8.753227 373.51627
-68.78388 -8.73864 373.74142
-68.78388 -8.738625 373.74142
-65.85396 -8.875374 373.9758
-62.95426 -9.191505 374.19525
-62.954247 -9.19149 374.19528
-60.02633 -9.676872 374.35046
-57.0082 -10.262215 374.31702
-53.882973 -10.864357 373.98083
-50.69323 -11.444923 373.3276
-50.693214 -11.444908 373.32764
-47.517723 -12.008965 372.37036
-44.505257 -12.535774 371.19504
-42.01812 -12.878761 370.55276
-39.715813 -13.037987 370.1649
-37.443977 -13.366356 370.47485
-37.443977 -13.366371 370.47485
-35.558754 -14.067848 372.06958
-85.69445 -11.55883 374.81985
-83.42612 -11.03231 373.36276
-80.67796 -10.60363 372.66742
-77.7275 -10.269936 372.59
-74.683945 -10.033257 372.7529
-71.64783 -9.891853 372.9407
-68.671 -9.865379 373.14853
-68.671 -9.865364 373.14853
-65.767876 -9.986229 373.36377
-62.918724 -10.284904 373.566
-62.918724 -10.284889 373.56604
-60.043633 -10.755028 373.71063
-57.057304 -11.330147 373.67514
-53.932198 -11.926628 373.3424
-50.70765 -12.50486 372.6899
-50.707634 -12.504845 372.68994
-47.462257 -13.073006 371.72504
-44.363045 -13.612297 370.55472
-41.83265 -13.946907 369.9517
-39.527855 -14.102898 369.5804
-37.292336 -14.305641 369.96637
-37.29232 -14.305641 369.96637
-35.483406 -14.616249 371.79218
-34.071785 -14.896919 374.03885
-87.28028 -12.197517 376.77896
-85.69445 -11.55883 374.81992
-85.63608 -12.106407 374.74832
-83.42612 -11.032295 373.3628
-83.32797 -11.940056 373.23184
-80.67796 -10.603615 372.66742
-80.55957 -11.714851 372.50073
-77.72749 -10.269905 372.59003
-77.60594 -11.480324 372.40955
-74.68394 -10.033257 372.75293
-74.573524 -11.273323 372.56778
-71.64781 -9.891838 372.94073
-71.55832 -11.135353 372.74966
-68.67099 -9.865364 373.14853
-68.61434 -11.104164 372.9493
-68.67098 -9.865364 373.14853
-68.61434 -11.104179 372.9493
-65.76787 -9.986214 373.36383
-65.76311 -11.216377 373.15503
-62.918724 -10.284904 373.56607
-62.980568 -11.503624 373.3479
-62.91871 -10.284889 373.5661
-62.980568 -11.503609 373.3479
-60.043633 -10.755028 373.71066
-60.161095 -11.96299 373.48837
-57.05729 -11.330132 373.67514
-57.196114 -12.530724 373.4551
-53.932182 -11.926613 373.3424
-54.052452 -13.122719 373.12607
-50.707634 -12.50486 372.6899
-50.77372 -13.698784 372.4703
-50.70762 -12.504829 372.68994
-50.773705 -13.698769 372.47034
-47.462257 -13.073006 371.72507
-47.44378 -14.271996 371.48978
-44.363045 -13.612297 370.55475
-44.24729 -14.827202 370.3116
-41.832634 -13.946892 369.9517
-41.652443 -15.148628 369.72562
-39.527855 -14.102898 369.58044
-39.317314 -15.276314 369.36807
-37.10482 -15.315468 369.7843
-37.10482 -15.315468 369.78427
-35.48339 -14.616234 371.79218
-35.38343 -15.199272 371.69238
-34.07177 -14.896904 374.03885
-85.570435 -12.651909 374.84033
-83.22368 -12.846901 373.39362
-80.44079 -12.827827 372.6989
-77.4911 -12.69529 372.61758
-74.478676 -12.520897 372.7755
-71.49656 -12.390175 372.95618
-68.60168 -12.359535 373.1537
-68.601685 -12.359535 373.1537
-65.82022 -12.470116 373.35724
-63.119453 -12.754387 373.54926
-63.119453 -12.754372 373.5493
-60.362602 -13.211937 373.69543
-57.414055 -13.779579 373.67157
-54.237755 -14.371376 373.3468
-50.89048 -14.947273 372.6828
-50.890465 -14.947258 372.68283
-47.468803 -15.528099 371.6797
-44.174934 -16.104836 370.48502
-41.505165 -16.411263 369.89417
-39.116203 -16.481743 369.54868
-36.905754 -16.319511 369.95654
-36.90577 -16.319511 369.95654
-35.269768 -15.768837 371.79572
-85.5027 -13.154915 375.08942
-83.12062 -13.685463 373.83612
-80.32863 -13.859596 373.2466
-77.38789 -13.82383 373.19724
-74.40001 -13.681877 373.35843
-71.45648 -13.560387 373.54102
-68.61901 -13.534386 373.74072
-68.61902 -13.534401 373.7407
-65.91917 -13.65052 373.94897
-63.313576 -13.942513 374.1498
-63.31356 -13.942513 374.14984
-60.628822 -14.410683 374.3134
-57.696404 -14.988869 374.3076
-54.47811 -15.586693 373.98904
-51.052483 -16.164986 373.3141
-51.052467 -16.16497 373.31415
-47.53637 -16.754433 372.28516
-44.147667 -17.354118 371.0709
-41.395287 -17.646523 370.46295
-38.938652 -17.6493 370.129
-36.716286 -17.27198 370.47662
-36.7163 -17.271996 370.47662
-35.15545 -16.297722 372.08966
-85.43784 -13.578255 375.477
-83.02536 -14.393532 374.5264
-80.22876 -14.733238 374.10245
-77.29969 -14.781349 374.10406
-74.33744 -14.668678 374.2714
-71.43339 -14.557289 374.45856
-68.65581 -14.539375 374.66406
-68.6558 -14.53936 374.66406
-66.04322 -14.668083 374.88287
-63.541206 -14.978981 375.10068
-63.541206 -14.978981 375.10074
-60.936363 -15.471153 375.29178
-58.02189 -16.071404 375.31223
-54.757027 -16.68229 375.00272
-51.249123 -17.265694 374.31686
-51.249107 -17.265678 374.31693
-47.64193 -17.863503 373.2639
-44.16651 -18.484123 372.03433
-41.328285 -18.762825 371.40198
-38.800224 -18.703041 371.07635
-36.55883 -18.124916 371.30786
-36.55883 -18.1249 371.30783
-35.052956 -16.759895 372.54544
-85.38042 -13.890663 375.97446
-82.94434 -14.920097 375.41336
-80.14736 -15.386391 375.20285
-77.231224 -15.499428 375.27063
-74.29331 -15.410622 375.4467
-71.42598 -15.309288 375.64053
-68.705185 -15.301888 375.8546
-66.17749 -15.448524 376.0876
-63.778236 -15.787117 376.3271
-63.77822 -15.787102 376.3271
-61.254265 -16.314049 376.55173
-58.358727 -16.946098 376.6043
-55.04769 -17.57653 376.30704
-51.461235 -18.168175 375.61206
-51.461235 -18.16816 375.61212
-47.77433 -18.77375 374.5396
-44.22825 -19.411385 373.301
-41.308678 -19.678963 372.64056
-38.713844 -19.571968 372.32523
-36.449608 -18.824547 372.3949
-34.971535 -17.124428 373.12875
-85.33444 -14.069969 376.54312
-82.883156 -15.233665 376.4192
-80.08988 -15.783974 376.44727
-77.18682 -15.939934 376.59088
-74.26999 -15.868019 376.77753
-71.4333 -15.77552 376.97955
-68.76027 -15.779243 377.2034
-68.76028 -15.779243 377.20337
-66.3053 -15.945564 377.45175
-63.995155 -16.31501 377.71417
-63.99514 -16.314995 377.71417
-61.541756 -16.88076 377.9735
-58.661995 -17.549019 378.05954
-55.309807 -18.203468 377.77655
-51.65792 -18.807014 377.0761
-51.657906 -18.807 377.0761
-47.912453 -19.419579 375.99374
-44.321022 -20.065804 374.76428
-41.33335 -20.32537 374.08276
-38.681038 -20.189674 373.78275
-36.391487 -19.31408 373.6573
-36.391502 -19.31408 373.6573
-34.914574 -17.359932 373.79517
-85.33445 -14.069969 376.54312
-85.30276 -14.105995 377.14124
-82.883156 -15.233665 376.41916
-82.84377 -15.331276 377.47293
-80.08989 -15.783974 376.44727
-80.057076 -15.931572 377.7495
-77.18683 -15.939934 376.59088
-77.16685 -16.110481 377.97342
-74.27 -15.868019 376.77753
-74.26733 -16.04853 378.17175
-71.433304 -15.775505 376.97955
-71.45401 -15.962929 378.3827
-68.76027 -15.779228 377.2034
-68.81662 -15.976433 378.61682
-68.76028 -15.779228 377.20337
-68.81663 -15.976433 378.6168
-66.3053 -15.945549 377.45175
-66.415794 -16.160378 378.87967
-64.17131 -16.557533 379.1621
-63.995155 -16.314995 377.71417
-64.1713 -16.557518 379.16217
-61.54177 -16.880775 377.9735
-61.76731 -17.15873 379.44943
-58.66198 -17.549034 378.05954
-58.893166 -17.861763 379.56168
-55.309807 -18.203484 377.77655
-55.50515 -18.54322 379.29147
-51.807228 -19.164116 378.59293
-51.65792 -18.807 377.0761
-51.807213 -19.1641 378.59296
-48.032707 -19.78173 377.51755
-44.321022 -20.065804 374.7643
-44.43 -20.416435 376.3169
-41.333366 -20.32537 374.0828
-41.395027 -20.662392 375.61798
-38.681038 -20.189674 373.78278
-38.694954 -20.511253 375.32428
-36.376854 -19.54995 374.9822
-36.391487 -19.314095 373.6573
-34.91456 -17.359932 373.79517
-34.88018 -17.441109 374.48978
POLYGONS 911 3644
3 0 1 2
3 0 2 3
3 3 2 4
3 3 4 5
3 5 4 6
3 5 6 7
3 7 6 8
3 7 8 9
3 9 8 10
3 9 10 11
3 11 10 12
3 11 12 13
3 13 12 14
3 15 16 17
3 17 16 18
3 17 18 19
3 19 18 20
3 21 22 23
3 23 22 24
3 23 24 25
3 25 24 26
3 25 26 27
3 27 26 28
3 27 28 29
3 29 28 30
3 31 32 33
3 33 32 34
3 33 34 35
3 35 34 36
3 35 36 37
3 37 36 38
3 37 38 39
3 39 38 40
3 39 40 41
3 41 40 42
3 41 43 44
3 44 43 45
3 44 45 46
3 1 47 2
3 2 47 48
3 2 48 4
3 4 48 49
3 4 49 6
3 6 49 50
3 6 50 8
3 8 50 51
3 8 51 10
3 10 51 52
3 10 52 12
3 12 52 53
3 12 53 14
3 14 53 54
3 16 55 18
3 18 55 56
3 18 56 20
3 20 56 57
3 22 58 24
3 24 58 59
3 24 59 26
3 26 59 60
3 26 60 28
3 28 60 61
3 28 61 30
3 30 61 62
3 32 63 34
3 34 63 64
3 34 64 36
3 36 64 65
3 36 65 38
3 38 65 66
3 38 66 40
3 40 66 67
3 40 67 42
3 42 67 68
3 43 69 45
3 45 69 70
3 45 70 46
3 46 70 71
3 47 72 48
3 48 72 73
3 48 73 49
3 49 73 74
3 49 74 50
3 50 74 75
3 50 75 51
3 51 75 76
3 51 76 52
3 52 76 77
3 52 77 53
3 53 77 78
3 53 78 54
3 54 78 79
3 55 79 56
3 56 79 80
3 56 80 57
3 57 80 81
3 58 82 59
3 59 82 83
3 59 83 60
3 60 83 84
3 60 84 61
3 61 84 85
3 61 85 62
3 62 85 86
3 63 87 64
3 64 87 88
3 64 88 65
3 65 88 89
3 65 89 66
3 66 89 90
3 66 90 67
3 67 90 91
3 67 91 68
3 68 91 92
3 69 93 70
3 70 93 94
3 70 94 71
3 71 94 46
3 72 95 73
3 73 95 96
3 73 96 74
3 74 96 97
3 74 97 75
3 75 97 98
3 75 98 76
3 76 98 99
3 76 99 77
3 77 99 100
3 77 100 78
3 78 100 101
3 78 101 79
3 79 101 102
3 79 103 80
3 80 103 104
3 80 104 81
3 81 104 105
3 82 106 83
3 83 106 107
3 83 107 84
3 84 107 108
3 84 108 85
3 85 108 109
3 85 109 86
3 86 109 110
3 87 111 88
3 88 111 112
3 88 112 89
3 89 112 113
3 89 113 90
3 90 113 114
3 90 114 91
3 91 114 115
3 91 115 92
3 92 115 116
3 93 117 94
3 94 117 118
3 94 118 46
3 95 119 96
3 96 119 120
3 96 120 97
3 97 120 121
3 97 121 98
3 98 121 122
3 98 122 99
3 99 122 123
3 99 123 100
3 100 123 124
3 100 124 101
3 101 124 125
3 101 125 102
3 102 125 126
3 103 127 104
3 104 127 128
3 104 128 105
3 105 128 129
3 106 130 107
3 107 130 131
3 107 131 108
3 108 131 132
3 108 132 109
3 109 132 133
3 109 133 110
3 110 133 134
3 111 135 112
3 112 135 136
3 112 136 113
3 113 136 137
3 113 137 114
3 114 137 138
3 114 138 115
3 115 138 139
3 115 139 116
3 116 139 140
3 117 141 118
3 118 141 142
3 118 142 46
3 46 142 143
3 144 1 145
3 144 145 146
3 146 145 147
3 146 147 148
3 148 147 149
3 148 149 150
3 150 149 151
3 150 151 152
3 152 151 153
3 152 153 125
3 125 153 154
3 125 154 155
3 155 154 156
3 157 156 158
3 158 156 159
3 158 159 160
3 160 159 161
3 162 163 164
3 164 163 165
3 164 165 166
3 166 165 167
3 166 167 168
3 168 167 169
3 168 169 170
3 170 169 171
3 135 172 173
3 173 172 174
3 173 174 175
3 175 174 176
3 175 176 177
3 177 176 178
3 177 178 139
3 139 178 179
3 139 179 140
3 140 179 180
3 181 182 183
3 183 182 184
3 183 184 46
3 46 184 185
3 1 186 145
3 145 186 187
3 145 187 147
3 147 187 188
3 147 188 149
3 149 188 189
3 149 189 151
3 151 189 190
3 151 190 153
3 153 190 191
3 153 191 154
3 154 191 192
3 154 192 156
3 156 192 193
3 156 194 159
3 159 194 195
3 159 195 161
3 161 195 196
3 163 197 165
3 165 197 198
3 165 198 167
3 167 198 199
3 167 199 169
3 169 199 200
3 169 200 171
3 171 200 201
3 172 202 174
3 174 202 203
3 174 203 176
3 176 203 204
3 176 204 178
3 178 204 205
3 178 205 179
3 179 205 206
3 179 206 180
3 180 206 207
3 182 208 184
3 184 208 209
3 184 209 185
3 185 209 210
3 186 211 187
3 187 211 212
3 187 212 188
3 188 212 213
3 188 213 189
3 189 213 214
3 189 214 190
3 190 214 215
3 190 215 191
3 191 215 216
3 191 216 192
3 192 216 217
3 192 217 193
3 193 217 218
3 194 218 195
3 195 218 219
3 195 219 196
3 196 219 220
3 197 221 198
3 198 221 222
3 198 222 199
3 199 222 223
3 199 223 200
3 200 223 224
3 200 224 201
3 201 224 225
3 202 226 203
3 203 226 227
3 203 227 204
3 204 227 228
3 204 228 205
3 205 228 229
3 205 229 206
3 206 229 230
3 206 230 207
3 207 230 231
3 208 231 209
3 209 231 232
3 209 232 210
3 210 232 143
3 186 233 234
3 234 233 235
3 234 235 236
3 236 235 237
3 236 237 238
3 238 237 239
3 238 239 240
3 240 239 241
3 240 241 242
3 242 241 243
3 242 243 244
3 244 243 245
3 244 245 246
3 246 245 247
3 248 249 250
3 250 249 251
3 250 251 221
3 221 251 252
3 253 254 255
3 255 254 256
3 255 256 257
3 257 256 258
3 257 258 259
3 259 258 260
3 259 260 261
3 261 260 262
3 263 264 265
3 265 264 266
3 265 266 267
3 267 266 268
3 267 268 269
3 269 268 270
3 269 270 271
3 271 270 272
3 271 272 273
3 273 272 274
3 273 275 276
3 276 275 277
3 276 277 278
3 278 277 279
3 233 280 235
3 235 280 281
3 235 281 237
3 237 281 282
3 237 282 239
3 239 282 283
3 239 283 241
3 241 283 284
3 241 284 243
3 243 284 285
3 243 285 245
3 245 285 286
3 245 286 247
3 247 286 287
3 249 288 251
3 251 288 289
3 251 289 252
3 252 289 290
3 254 291 256
3 256 291 292
3 256 292 258
3 258 292 293
3 258 293 260
3 260 293 294
3 260 294 262
3 262 294 295
3 264 296 266
3 266 296 297
3 266 297 268
3 268 297 298
3 268 298 270
3 270 298 299
3 270 299 272
3 272 299 300
3 272 300 274
3 274 300 301
3 275 302 277
3 277 302 303
3 277 303 279
3 279 303 304
3 280 305 281
3 281 305 306
3 281 306 282
3 282 306 307
3 282 307 283
3 283 307 308
3 283 308 284
3 284 308 309
3 284 309 285
3 285 309 310
3 285 310 286
3 286 310 311
3 286 311 287
3 287 311 312
3 288 313 289
3 289 313 314
3 289 314 290
3 290 314 315
3 291 316 292
3 292 316 317
3 292 317 293
3 293 317 318
3 293 318 294
3 294 318 319
3 294 319 295
3 295 319 320
3 296 321 297
3 297 321 322
3 297 322 298
3 298 322 323
3 298 323 299
3 299 323 324
3 299 324 300
3 300 324 325
3 300 325 301
3 301 325 326
3 302 327 303
3 303 327 328
3 303 328 304
3 305 329 306
3 306 329 330
3 306 330 307
3 307 330 331
3 307 331 332
3 332 331 333
3 332 333 334
3 334 333 335
3 334 335 336
3 336 335 337
3 336 337 338
3 338 337 339
3 338 339 340
3 340 339 341
3 342 341 343
3 343 341 344
3 343 344 345
3 345 344 346
3 347 348 317
3 317 348 349
3 317 349 350
3 350 349 351
3 350 351 352
3 352 351 353
3 352 353 354
3 354 353 355
3 356 357 322
3 322 357 358
3 322 358 359
3 359 358 360
3 359 360 361
3 361 360 362
3 361 362 363
3 363 362 364
3 363 364 326
3 326 364 365
3 366 367 328
3 328 367 368
3 328 368 278
3 278 368 304
3 329 369 330
3 330 369 370
3 330 370 331
3 331 370 371
3 331 371 333
3 333 371 372
3 333 372 335
3 335 372 373
3 335 373 337
3 337 373 374
3 337 374 339
3 339 374 375
3 339 375 341
3 341 375 376
3 341 377 344
3 344 377 378
3 344 378 346
3 346 378 379
3 348 380 349
3 349 380 381
3 349 381 351
3 351 381 382
3 351 382 353
3 353 382 383
3 353 383 355
3 355 383 384
3 357 385 358
3 358 385 386
3 358 386 360
3 360 386 387
3 360 387 362
3 362 387 388
3 362 388 364
3 364 388 389
3 364 389 365
3 365 389 390
3 367 390 368
3 368 390 391
3 368 391 304
3 369 392 370
3 370 392 393
3 370 393 371
3 371 393 394
3 371 394 372
3 372 394 395
3 372 395 373
3 373 395 396
3 373 396 374
3 374 396 397
3 374 397 375
3 375 397 398
3 375 398 376
3 376 398 399
3 377 400 378
3 378 400 401
3 378 401 379
3 379 401 402
3 380 403 381
3 381 403 404
3 381 404 382
3 382 404 405
3 382 405 383
3 383 405 406
3 383 406 384
3 384 406 407
3 385 408 386
3 386 408 409
3 386 409 387
3 387 409 410
3 387 410 388
3 388 410 411
3 388 411 389
3 389 411 412
3 389 412 390
3 390 412 413
3 390 414 391
3 391 414 415
3 391 415 304
3 304 415 210
3 392 280 393
3 393 280 416
3 393 416 394
3 394 416 417
3 394 417 395
3 395 417 418
3 395 418 396
3 396 418 419
3 396 419 397
3 397 419 420
3 397 420 398
3 398 420 421
3 398 421 399
3 399 421 422
3 400 423 401
3 401 423 424
3 401 424 402
3 402 424 425
3 403 426 404
3 404 426 427
3 404 427 405
3 405 427 428
3 405 428 406
3 406 428 429
3 406 429 407
3 407 429 430
3 408 431 409
3 409 431 432
3 409 432 410
3 410 432 433
3 410 433 411
3 411 433 434
3 411 434 412
3 412 434 435
3 412 435 413
3 413 435 436
3 414 437 415
3 415 437 438
3 415 438 210
3 210 438 439
3 440 1 441
3 441 1 442
3 441 442 443
3 443 442 444
3 443 444 445
3 445 444 446
3 445 446 447
3 447 446 448
3 447 448 449
3 449 448 450
3 449 450 451
3 451 450 452
3 451 452 453
3 453 452 454
3 455 456 457
3 457 456 458
3 457 458 459
3 459 458 460
3 461 462 463
3 463 462 464
3 463 464 465
3 465 464 466
3 465 466 467
3 467 466 468
3 467 468 469
3 469 468 470
3 471 472 473
3 473 472 474
3 473 474 475
3 475 474 476
3 475 476 477
3 477 476 478
3 477 478 479
3 479 478 480
3 479 480 436
3 436 480 481
3 437 482 483
3 483 482 484
3 483 484 485
3 485 484 279
3 442 1 486
3 442 486 444
3 444 486 487
3 444 487 446
3 446 487 488
3 446 488 448
3 448 488 489
3 448 489 450
3 450 489 490
3 450 490 452
3 452 490 491
3 452 491 454
3 454 491 492
3 456 493 458
3 458 493 494
3 458 494 460
3 460 494 495
3 462 496 464
3 464 496 497
3 464 497 466
3 466 497 498
3 466 498 468
3 468 498 499
3 468 499 470
3 470 499 500
3 472 501 474
3 474 501 502
3 474 502 476
3 476 502 503
3 476 503 478
3 478 503 504
3 478 504 480
3 480 504 505
3 480 505 481
3 481 505 506
3 482 507 484
3 484 507 508
3 484 508 279
3 1 305 486
3 486 305 509
3 486 509 487
3 487 509 510
3 487 510 488
3 488 510 511
3 488 511 489
3 489 511 512
3 489 512 490
3 490 512 513
3 490 513 491
3 491 513 514
3 491 514 492
3 492 514 515
3 493 516 494
3 494 516 517
3 494 517 495
3 495 517 518
3 496 519 497
3 497 519 520
3 497 520 498
3 498 520 521
3 498 521 499
3 499 521 522
3 499 522 500
3 500 522 523
3 501 524 502
3 502 524 525
3 502 525 503
3 503 525 526
3 503 526 504
3 504 526 527
3 504 527 505
3 505 527 528
3 505 528 506
3 506 528 529
3 507 530 508
3 508 530 531
3 508 531 46
3 46 531 278
3 305 1 509
3 509 1 532
3 509 532 510
3 510 532 533
3 510 533 511
3 511 533 534
3 511 534 512
3 512 534 535
3 512 535 513
3 513 535 536
3 513 536 514
3 514 536 537
3 514 537 515
3 515 537 538
3 516 539 517
3 517 539 540
3 517 540 518
3 518 540 541
3 519 542 520
3 520 542 543
3 520 543 521
3 521 543 544
3 521 544 522
3 522 544 545
3 522 545 523
3 523 545 546
3 524 547 525
3 525 547 548
3 525 548 526
3 526 548 549
3 526 549 527
3 527 549 550
3 527 550 528
3 528 550 551
3 528 551 529
3 529 551 552
3 530 553 531
3 531 553 554
3 531 554 278
3 278 554 46
3 1 186 532
3 532 186 555
3 532 555 533
3 533 555 556
3 533 556 534
3 534 556 557
3 534 557 535
3 535 557 558
3 535 558 536
3 536 558 559
3 536 559 537
3 537 559 560
3 537 560 538
3 538 560 561
3 539 561 540
3 540 561 562
3 540 562 541
3 541 562 563
3 542 564 543
3 543 564 565
3 543 565 544
3 544 565 566
3 544 566 545
3 545 566 567
3 545 567 546
3 546 567 568
3 547 569 548
3 548 569 570
3 548 570 549
3 549 570 571
3 549 571 550
3 550 571 572
3 550 572 551
3 551 572 573
3 551 573 552
3 552 573 574
3 553 574 554
3 554 574 575
3 554 575 46
3 186 305 555
3 555 305 576
3 555 576 556
3 556 576 577
3 556 577 557
3 557 577 578
3 557 578 558
3 558 578 579
3 558 579 559
3 559 579 580
3 559 580 560
3 560 580 581
3 560 581 561
3 561 581 582
3 561 583 562
3 562 583 584
3 562 584 563
3 563 584 585
3 564 586 565
3 565 586 587
3 565 587 566
3 566 587 588
3 566 588 567
3 567 588 589
3 567 589 568
3 568 589 590
3 569 591 570
3 570 591 592
3 570 592 571
3 571 592 593
3 571 593 572
3 572 593 594
3 572 594 573
3 573 594 595
3 573 595 574
3 574 595 596
3 574 597 575
3 575 597 598
3 575 598 46
3 46 598 279
3 329 392 599
3 599 392 600
3 599 600 601
3 601 600 602
3 601 602 603
3 603 602 604
3 603 604 605
3 605 604 606
3 605 606 607
3 607 606 608
3 607 608 609
3 609 608 610
3 609 610 611
3 611 610 612
3 613 614 615
3 615 614 616
3 615 616 585
3 585 616 617
3 618 619 620
3 620 619 621
3 620 621 622
3 622 621 623
3 622 623 624
3 624 623 625
3 624 625 590
3 590 625 626
3 627 628 592
3 592 628 629
3 592 629 630
3 630 629 631
3 630 631 632
3 632 631 633
3 632 633 634
3 634 633 635
3 634 635 596
3 596 635 636
3 637 636 638
3 638 636 639
3 638 639 210
3 210 639 279
3 392 1 600
3 600 1 0
3 600 0 602
3 602 0 3
3 602 3 604
3 604 3 5
3 604 5 606
3 606 5 7
3 606 7 608
3 608 7 9
3 608 9 610
3 610 9 11
3 610 11 612
3 612 11 13
3 614 15 616
3 616 15 17
3 616 17 617
3 617 17 19
3 619 21 621
3 621 21 23
3 621 23 623
3 623 23 25
3 623 25 625
3 625 25 27
3 625 27 626
3 626 27 29
3 628 31 629
3 629 31 33
3 629 33 631
3 631 33 35
3 631 35 633
3 633 35 37
3 633 37 635
3 635 37 39
3 635 39 636
3 636 39 41
3 636 41 639
3 639 41 44
3 639 44 279
3 279 44 46
