# vtk DataFile Version 2.0
File written by itkPolyDataMeshIO
ASCII
DATASET POLYDATA
POINTS 1707 float
-302.05518 -30.97013 -240.61012
-302.05518 -30.97013 -240.61014
-302.15848 -32.004402 -239.82846
-301.9178 -31.987068 -239.8177
-302.18103 -33.07305 -239.0669
-301.838 -33.05027 -239.05429
-302.17627 -34.08065 -238.63048
-301.74185 -34.04827 -238.62427
-302.1763 -34.080635 -238.6305
-301.74188 -34.048256 -238.62428
-302.06244 -35.11434 -238.2439
-301.57193 -35.045723 -238.24945
-302.01172 -36.562233 -237.7505
-301.48218 -36.52395 -237.74203
-302.0452 -39.493126 -236.35735
-301.51117 -39.479668 -236.3231
-302.60013 -43.133797 -232.22025
-302.15106 -43.17408 -232.19717
-303.48224 -45.110176 -224.99455
-303.07855 -45.186775 -224.97041
-304.0598 -45.991615 -216.93445
-303.6454 -46.077065 -216.9379
-303.89575 -45.660606 -208.87608
-303.47333 -45.74758 -208.89197
-303.40555 -43.905464 -200.96407
-302.98438 -43.99044 -200.94972
-303.239 -41.762352 -193.14914
-302.81506 -41.84713 -193.12067
-303.239 -41.762367 -193.14912
-302.81506 -41.847145 -193.12067
-302.8017 -39.692635 -185.31525
-302.3701 -39.779152 -185.31577
-301.2995 -36.994347 -177.7948
-300.86755 -37.07937 -177.84972
-298.3321 -34.41813 -170.658
-297.92358 -34.49961 -170.79318
-296.55362 -31.448341 -163.53726
-296.1388 -31.465065 -163.63593
-297.8563 -27.519218 -156.69302
-297.42636 -27.420128 -156.66731
-300.2323 -24.191063 -149.85744
-299.8047 -24.021767 -149.78758
-300.2323 -24.191048 -149.8574
-299.8047 -24.021782 -149.78755
-302.3924 -22.221123 -142.49057
-301.95612 -22.03083 -142.41293
-304.13525 -20.62783 -134.81721
-303.687 -20.429222 -134.75615
-304.92834 -18.302345 -127.04435
-304.46472 -18.103783 -127.05543
-304.8624 -15.39904 -119.39196
-304.39154 -15.20092 -119.46997
-304.43793 -12.574577 -111.77998
-303.96048 -12.371696 -111.88148
-304.43793 -12.574562 -111.779976
-303.96048 -12.371681 -111.88148
-303.93024 -10.319756 -104.05425
-303.44284 -10.107872 -104.148476
-303.0913 -8.685768 -96.22808
-302.59686 -8.46537 -96.32685
-301.79248 -7.541389 -88.37629
-301.29483 -7.315056 -88.49107
-300.2068 -6.683952 -80.52618
-299.7071 -6.454262 -80.651855
-298.68604 -5.929726 -72.64108
-298.18085 -5.697792 -72.760994
-297.44922 -5.219017 -64.70143
-296.93213 -4.98336 -64.804054
-296.4029 -4.736916 -56.74095
-295.8688 -4.494667 -56.826767
-295.2295 -4.749138 -48.81998
-294.6778 -4.49897 -48.901646
-293.5509 -5.216576 -41.00462
-292.98495 -4.958366 -41.1103
-291.03134 -5.505501 -33.35791
-290.46484 -5.237938 -33.53725
-287.43082 -4.605843 -26.405903
-286.90265 -4.33036 -26.722933
-283.69058 -3.213158 -21.29933
-283.22015 -2.93502 -21.727985
-280.65866 -2.344551 -17.832468
-280.21082 -2.06118 -18.296011
-280.65866 -2.344551 -17.83246
-280.21082 -2.06118 -18.296003
-278.55984 -1.754036 -15.575747
-278.12573 -1.469994 -16.055977
-276.69742 -0.989357 -13.61958
-276.28308 -0.710579 -14.121783
-274.8142 0.176353 -11.653403
-274.4256 0.44265 -12.183024
-273.06967 1.556023 -9.849233
-272.7019 1.81002 -10.399736
-271.42188 2.940727 -8.171657
-271.06296 3.191002 -8.729552
-269.85223 4.194283 -6.595725
-269.49387 4.447212 -7.15252
-268.18585 5.445244 -4.89292
-267.81985 5.702065 -5.442862
-265.86557 7.165321 -2.377803
-265.4838 7.425224 -2.916095
-262.80304 9.724495 1.510865
-262.38617 9.987923 0.998443
-259.37427 13.055565 7.101112
-258.89758 13.322441 6.634711
-259.37427 13.05558 7.101131
-258.89755 13.322456 6.63473
-256.0785 16.207268 13.741595
-255.53859 16.48722 13.328522
-252.80582 18.225197 20.705421
-252.21811 18.527184 20.329605
-249.90158 19.472496 28.096497
-249.2598 19.791756 27.776268
-248.3162 20.325554 36.038376
-247.60333 20.657967 35.855404
-248.57654 20.391396 44.106434
-247.81584 20.73864 44.145523
-250.49263 19.515999 51.741905
-249.73792 19.87632 52.010983
-253.38136 18.05471 58.910236
-252.65034 18.424828 59.321545
-256.4884 16.535316 66.03949
-255.7445 16.915428 66.476204
-259.28595 15.335075 73.490845
-258.48776 15.727943 73.86589
-261.41852 14.862938 81.337364
-260.55157 15.270287 81.60085
-262.56653 15.200691 89.43121
-261.63892 15.62188 89.56442
-262.4468 15.317818 97.5407
-261.47882 15.751534 97.546326
-260.92285 14.335152 105.40518
-259.93127 14.775169 105.31731
-258.93585 12.562172 113.0782
-257.91742 13.00312 112.97753
-257.44727 10.868019 120.94964
-256.40396 11.318214 120.91397
-256.77716 9.818275 129.09799
-255.72397 10.282631 129.12932
-256.55475 9.520256 137.32935
-255.4995 9.992424 137.36433
-256.35764 10.00544 145.53107
-255.3057 10.476158 145.51585
-255.95528 11.178139 153.61278
-254.9165 11.639153 153.5307
-255.40546 12.814064 161.52881
-254.38782 13.261528 161.39676
-254.75096 14.591286 169.33293
-253.75204 15.030266 169.17215
-253.93533 16.205177 177.11476
-252.94905 16.642342 176.94447
-252.91264 17.478676 184.9234
-251.93326 17.917976 184.75629
-251.70819 18.301567 192.76163
-250.73058 18.744072 192.60072
-250.359 18.627281 200.61166
-249.37808 19.073326 200.4492
-250.35898 18.627281 200.61172
-249.37807 19.073326 200.44926
-248.67496 18.637398 208.4378
-247.68604 19.088173 208.26216
-246.81667 18.220222 216.17427
-245.81541 18.67678 215.97842
-244.70328 17.322502 223.75063
-243.686 17.784462 223.53284
-242.37106 15.955467 231.13327
-241.3357 16.421501 230.89302
-239.80174 14.172432 238.3043
-238.74788 14.640678 238.04297
-237.02992 12.039925 245.26024
-235.9585 12.50843 244.98012
-234.12354 9.636803 252.01369
-233.0363 10.104134 251.717
-231.12648 7.017159 258.58783
-230.02542 7.482719 258.27652
-228.03052 4.251778 265.00842
-226.91719 4.715538 264.68454
-225.00351 1.315132 271.29993
-223.8787 1.777458 270.96542
-221.83289 -1.637672 277.4968
-220.6972 -1.17524 277.15164
-218.55733 -4.684441 283.64514
-217.4115 -4.218941 283.28644
-215.47026 -8.137566 289.7527
-214.31299 -7.667992 289.3822
-212.38132 -11.903175 296.04044
-211.22134 -11.415016 295.62903
-208.99844 -15.519371 302.7292
-207.8508 -14.990929 302.2213
-205.25359 -18.537148 309.65848
-204.11795 -17.965431 309.0307
-201.22316 -20.882988 316.54883
-200.07753 -20.277397 315.82877
-197.02061 -22.895103 323.26904
-195.83664 -22.266304 322.5143
-192.70918 -24.779198 329.87204
-191.48296 -24.136223 329.11584
-188.2631 -26.295235 336.42886
-187.01584 -25.64515 335.66763
-188.26308 -26.295265 336.42886
-187.01581 -25.645164 335.66766
-183.68225 -27.492973 342.8938
-182.43481 -26.84275 342.1233
-178.98956 -28.847252 349.15997
-177.75659 -28.202415 348.3751
-173.99796 -30.276955 355.1559
-172.8079 -29.635078 354.31595
-168.46042 -31.504051 360.74915
-167.36131 -30.85868 359.79626
-162.29381 -32.269493 365.70435
-161.32724 -31.606712 364.5857
-155.57234 -32.387947 369.82986
-154.77261 -31.698128 368.52347
-148.43283 -31.79058 373.02298
-147.84784 -31.089516 371.5753
-141.13806 -30.885445 375.2123
-140.75952 -30.157982 373.62323
-133.15503 -29.984825 376.98077
-132.84525 -29.224403 375.2563
-126.478004 -26.202736 378.18777
-126.478004 -26.20272 378.1878
-301.8027 -31.930351 -239.7674
-301.67413 -32.981987 -238.97246
-301.5319 -33.97361 -238.5166
-301.5319 -33.973595 -238.51662
-301.33582 -34.956306 -238.13036
-301.22577 -36.453514 -237.60117
-301.2553 -39.41677 -236.17003
-301.92328 -43.115425 -232.09453
-302.8595 -45.121376 -224.92328
-303.4158 -46.00431 -216.92668
-303.4158 -46.00431 -216.92665
-303.2392 -45.673515 -208.9053
-302.75055 -43.918053 -200.96844
-302.5794 -41.774925 -193.13791
-302.5794 -41.774925 -193.1379
-302.13245 -39.705467 -185.3482
-300.63672 -37.00695 -177.9211
-297.7114 -34.425484 -170.90556
-295.9357 -31.361351 -163.73343
-297.23132 -27.269066 -156.71881
-299.6244 -23.835686 -149.81458
-299.6244 -23.83567 -149.81456
-301.78296 -21.824028 -142.41801
-303.51364 -20.213417 -134.76167
-304.28796 -17.887993 -127.10153
-304.21634 -14.985664 -119.55285
-303.78522 -12.151283 -111.97324
-303.78522 -12.151268 -111.973236
-303.26373 -9.877586 -104.228004
-302.41562 -8.225883 -96.396614
-301.1128 -7.069054 -88.55717
-299.5241 -6.204597 -80.716125
-297.9953 -5.445732 -72.82113
-296.74152 -4.727242 -64.85736
-295.6709 -4.231377 -56.86955
-294.4718 -4.227043 -48.932377
-292.77148 -4.677788 -41.1397
-290.2528 -4.947166 -33.598362
-286.7187 -4.030998 -26.861973
-283.0716 -2.632729 -21.923481
-280.06848 -1.753242 -18.497496
-280.06845 -1.753242 -18.497488
-277.991 -1.161324 -16.264355
-276.16708 -0.407646 -14.349735
-274.3368 0.732018 -12.439311
-272.6343 2.085991 -10.67724
-271.0026 3.462959 -9.012877
-269.43176 4.722145 -7.432435
-267.75104 5.981133 -5.71699
-265.40503 7.707634 -3.184488
-262.28802 10.274223 0.738881
-258.76904 13.612495 6.386252
-258.76904 13.612495 6.386272
-255.37456 16.791466 13.105111
-252.02167 18.85537 20.143711
-249.03352 20.138649 27.62607
-247.34357 21.019218 35.763634
-247.53488 21.116035 44.15874
-249.46649 20.26786 52.138603
-252.39786 18.827003 59.518257
-255.4885 17.328575 66.6834
-258.20392 16.154945 74.03863
-260.2317 15.713005 81.707596
-261.29062 16.079659 89.5972
-261.11478 16.222893 97.53877
-259.55273 15.253319 105.32468
-257.51947 13.482292 113.021255
-256.00122 11.807442 120.98452
-255.3275 10.787239 129.19629
-255.10558 10.505531 137.39491
-254.91315 10.98777 145.49077
-254.52966 12.14016 153.44952
-254.01044 13.747765 161.27611
-253.3834 15.507301 169.03601
-252.58609 17.11744 176.81372
-251.57254 18.395363 184.64507
-250.36893 19.224983 192.51381
-249.01305 19.558083 200.38074
-249.01303 19.558098 200.38078
-247.31554 19.578026 208.2035
-245.43637 19.17295 215.92772
-243.29443 18.286552 223.49348
-240.92865 16.928001 230.8659
-238.32379 15.149529 238.02751
-235.51712 13.017555 244.9753
-232.57861 10.612022 251.7211
-229.55307 7.988686 258.28757
-226.43188 5.219521 264.7009
-223.38193 2.279884 270.98602
-220.19064 -0.672752 277.17426
-216.89723 -3.713112 283.30704
-213.79132 -7.157677 289.40097
-210.70364 -10.884453 295.61996
-207.35794 -14.416618 302.13696
-203.65773 -17.34414 308.85303
-199.63324 -19.6193 315.58514
-195.37857 -21.582909 322.25662
-190.99953 -23.437431 328.87164
-186.51758 -24.938591 335.43118
-186.51755 -24.938606 335.43118
-181.93051 -26.1361 341.8903
-177.24847 -27.50164 348.14597
-172.30998 -28.937523 354.0672
-166.90128 -30.157265 359.49194
-160.93425 -30.886436 364.19604
-154.47372 -30.948418 368.03857
-147.66791 -30.327568 371.01993
-140.68423 -29.367317 373.011
-132.7975 -28.392387 374.58365
-301.7369 -31.860435 -239.70369
-301.5807 -32.89936 -238.86812
-301.41074 -33.88645 -238.37645
-301.41074 -33.886436 -238.37646
-301.202 -34.8648 -237.97441
-301.07782 -36.374672 -237.41847
-301.10883 -39.337624 -235.97842
-301.7829 -43.019722 -231.96387
-302.71384 -45.00152 -224.86754
-303.25977 -45.870872 -216.90977
-303.25977 -45.870872 -216.90976
-303.08005 -45.537712 -208.91745
-302.5913 -43.7853 -200.99977
-302.41873 -41.64245 -193.17268
-302.41873 -41.642464 -193.17267
-301.97205 -39.57029 -185.39275
-300.48572 -36.874123 -177.99825
-297.5771 -34.291817 -171.0081
-295.81613 -31.214684 -163.82805
-297.12888 -27.107246 -156.79494
-299.54105 -23.656532 -149.8729
-301.71185 -21.625847 -142.45102
-303.44635 -20.0066 -134.7896
-304.22168 -17.681236 -127.156425
-304.15442 -14.779411 -119.63165
-303.72552 -11.940071 -112.0553
-303.72552 -11.940056 -112.0553
-303.20255 -9.656914 -104.29701
-302.3541 -7.996361 -96.451614
-301.05133 -6.833321 -88.60202
-299.46216 -5.965401 -80.754944
-297.93198 -5.204201 -72.85666
-296.6758 -4.481819 -64.8901
-295.60178 -3.979103 -56.89466
-294.39832 -3.966515 -48.943573
-292.69342 -4.408928 -41.140984
-290.1767 -4.66851 -33.614796
-286.66516 -3.744133 -26.930477
-283.0435 -2.343056 -22.02567
-280.04053 -1.458183 -18.595385
-280.0405 -1.458183 -18.595375
-277.96802 -0.865578 -16.365326
-276.16125 -0.117393 -14.468097
-274.35675 1.009331 -12.584354
-272.67416 2.350487 -10.842147
-271.0486 3.723564 -9.182659
-269.4754 4.985527 -7.598263
-267.78873 6.248512 -5.877777
-265.43533 7.978249 -3.341971
-262.30563 10.548531 0.583769
-258.76855 13.890388 6.229533
-258.76855 13.890388 6.229552
-255.35052 17.083015 12.962053
-251.97272 19.169884 20.035702
-248.96506 20.471077 27.544464
-247.25679 21.365349 35.709408
-247.43747 21.477623 44.162197
-249.37921 20.642998 52.209015
-252.32661 19.21238 59.627956
-255.41716 17.724419 66.79773
-258.11566 16.564049 74.13017
-260.12115 16.13723 81.75331
-261.1646 16.518288 89.59333
-260.98257 16.674522 97.52725
-259.4101 15.71151 105.36416
-257.36136 13.941429 113.11136
-255.8455 12.276222 121.08653
-255.18314 11.270775 129.27083
-254.96518 10.9972 137.42189
-254.77335 11.478004 145.46405
-254.39265 12.620232 153.37431
-253.87823 14.213722 161.16772
-253.25592 15.964424 168.91772
-252.46149 17.57264 176.70555
-251.44843 18.85279 184.56067
-250.2431 19.685814 192.45824
-248.88406 20.02259 200.34914
-248.88406 20.022621 200.3492
-247.1823 20.04737 208.1889
-245.29648 19.648354 215.9302
-243.14404 18.767632 223.51796
-240.7647 17.413307 230.91364
-238.14447 15.637062 238.0973
-235.3219 13.505363 245.06506
-232.36803 11.098701 251.82788
-229.32854 8.473488 258.40817
-226.19508 5.702415 264.83255
-223.13445 2.761314 271.12668
-219.93439 -0.191261 277.32117
-216.6346 -3.228416 283.456
-213.5232 -6.668724 289.55157
-210.44148 -10.376076 295.74924
-207.12318 -13.86631 302.20355
-203.46045 -16.748802 308.8418
-199.45967 -18.988716 315.52145
-195.20056 -20.928139 322.1869
-190.8037 -22.767876 328.81946
-186.31006 -24.261604 335.3906
-186.31003 -24.261635 335.39062
-181.71532 -25.459038 341.8574
-177.02353 -26.830208 348.1229
-172.08333 -28.269173 354.03796
-166.69171 -29.485191 359.4306
-160.76474 -30.196266 364.0828
-154.36691 -30.230064 367.8683
-147.63899 -29.59748 370.80817
-140.7179 -28.609734 372.77524
-132.84367 -27.577232 374.31226
-126.478 -26.20272 378.18777
-301.7369 -31.860435 -239.70366
-301.70834 -31.784126 -239.63332
-301.5807 -32.899376 -238.8681
-301.5405 -32.811363 -238.75398
-301.35645 -33.7949 -238.22066
-301.41074 -33.88645 -238.37646
-301.35645 -33.794884 -238.22066
-301.14297 -34.773872 -237.79646
-301.07782 -36.374687 -237.41847
-301.01114 -36.293266 -237.21509
-301.10883 -39.337624 -235.97841
-301.045 -39.25138 -235.77065
-301.70932 -42.90226 -231.81987
-302.71384 -45.00152 -224.86752
-302.6252 -44.84829 -224.80806
-303.25977 -45.870888 -216.90976
-303.16135 -45.700294 -216.88963
-303.16135 -45.700294 -216.88962
-302.97958 -45.364067 -208.92833
-302.49048 -43.615578 -201.0387
-302.4187 -41.64245 -193.17268
-302.3168 -41.47306 -193.21835
-302.4187 -41.642464 -193.17265
-302.31677 -41.47306 -193.21832
-301.97205 -39.57029 -185.39273
-301.8719 -39.397453 -185.44394
-300.39655 -36.704308 -178.07639
-297.5771 -34.291832 -171.0081
-297.50256 -34.121895 -171.09962
-295.8161 -31.214699 -163.82805
-295.75967 -31.04496 -163.91629
-297.12888 -27.107246 -156.79492
-297.09433 -26.94291 -156.88588
-299.54105 -23.656548 -149.8729
-299.52716 -23.483833 -149.95293
-301.7136 -21.435219 -142.50363
-303.44635 -20.006615 -134.78958
-303.4547 -19.80767 -134.83324
-304.22168 -17.681252 -127.156425
-304.23407 -17.482353 -127.21721
-304.17325 -14.580986 -119.70704
-303.72552 -11.940071 -112.05529
-303.7481 -11.7369 -112.12991
-303.72552 -11.940056 -112.05529
-303.74814 -11.736885 -112.1299
-303.2025 -9.656914 -104.29701
-303.2253 -9.444633 -104.358086
-302.3778 -7.775581 -96.49581
-301.05133 -6.833336 -88.60202
-301.07574 -6.60659 -88.631546
-299.4864 -5.735268 -80.77546
-297.95572 -4.971855 -72.87452
-296.6758 -4.481834 -64.89009
-296.69913 -4.245735 -64.90806
-295.60178 -3.979134 -56.894657
-295.62436 -3.736473 -56.907097
-294.39832 -3.96653 -48.94357
-294.4193 -3.715904 -48.94087
-292.69342 -4.408913 -41.140984
-292.7118 -4.150246 -41.122337
-290.1767 -4.668526 -33.614796
-290.19745 -4.400459 -33.59942
-286.66516 -3.744148 -26.930477
-286.70453 -3.468208 -26.948507
-283.0435 -2.343086 -22.02567
-283.1009 -2.064461 -22.06103
-280.04053 -1.458214 -18.595385
-280.0938 -1.174385 -18.61916
-280.0405 -1.458214 -18.595375
-280.0938 -1.174385 -18.61915
-278.02438 -0.581078 -16.38947
-276.16122 -0.117393 -14.468097
-276.23346 0.161858 -14.507978
-274.35675 1.009331 -12.584353
-274.4536 1.2761 -12.649558
-272.67416 2.350487 -10.842146
-272.78983 2.604912 -10.926116
-271.04858 3.723549 -9.182659
-271.16968 3.974236 -9.270782
-269.47537 4.985527 -7.598263
-269.59357 5.238899 -7.682068
-267.90158 6.505699 -5.957094
-265.43533 7.978233 -3.341971
-265.54276 8.238548 -3.419745
-262.30563 10.548515 0.583769
-262.4052 10.812386 0.503767
-258.76855 13.890373 6.229533
-258.85883 14.157707 6.138938
-258.85883 14.157707 6.138958
-255.35051 17.083 12.962053
-255.42584 17.363426 12.87695
-252.02861 19.47242 19.983635
-248.96504 20.471077 27.544462
-249.00891 20.79087 27.512041
-247.25679 21.365349 35.709404
-247.29324 21.698296 35.68219
-247.43747 21.477608 44.162193
-247.47086 21.825417 44.158726
-249.37921 20.642967 52.209007
-249.42305 21.003838 52.23838
-252.32661 19.212364 59.62795
-252.38432 19.583046 59.675213
-255.41716 17.724419 66.79772
-255.47717 18.105156 66.84544
-258.1667 16.957573 74.16354
-260.1597 16.54528 81.75548
-261.19702 16.940224 89.56357
-260.98257 16.674522 97.527245
-261.01562 17.10897 97.51301
-259.4101 15.71151 105.36415
-259.4357 16.152245 105.426094
-257.37433 14.383064 113.23367
-255.86598 12.72715 121.210075
-255.18314 11.27076 129.27083
-255.21841 11.735878 129.35016
-255.00545 11.470131 137.4461
-254.77335 11.477989 145.46405
-254.81364 11.949547 145.4364
-254.39265 12.620216 153.37431
-254.43364 13.082008 153.30382
-253.87823 14.213707 161.16772
-253.92072 14.661919 161.06883
-253.25592 15.964409 168.91772
-253.3002 16.404121 168.81294
-252.46149 17.572624 176.70555
-252.50665 18.010506 176.61415
-251.44843 18.852776 184.56067
-251.49286 19.292824 184.4959
-250.24309 19.685799 192.45824
-250.28525 20.129097 192.4253
-248.92322 20.46946 200.34392
-248.88405 20.022621 200.34917
-248.92322 20.46946 200.34398
-247.1823 20.04737 208.18889
-247.21811 20.498848 208.20566
-245.29648 19.648338 215.9302
-245.32704 20.105598 215.97038
-243.14404 18.767616 223.51794
-243.16562 19.23037 223.58748
-240.7647 17.413292 230.91362
-240.7742 17.880135 231.014
-238.13991 16.106041 238.22702
-235.3219 13.505363 245.06505
-235.30246 13.974602 245.2212
-232.36803 11.098671 251.82787
-232.33403 11.56678 252.00665
-229.32854 8.473488 258.40814
-229.28117 8.939827 258.60556
-226.19508 5.702415 264.83252
-226.13603 6.166939 265.045
-223.13445 2.761299 271.12665
-223.06537 3.224388 271.35144
-219.93439 -0.191277 277.32114
-219.8573 0.271904 277.55508
-216.55217 -2.762184 283.69485
-213.43666 -6.198402 289.7946
-210.44148 -10.376091 295.74924
-210.36226 -9.887093 295.97552
-207.12318 -13.866325 302.20355
-207.07303 -13.336967 302.37637
-203.46045 -16.748817 308.84177
-203.45091 -16.17617 308.94843
-199.45967 -18.988716 315.52142
-199.47917 -18.382164 315.58566
-195.20056 -20.928154 322.18686
-195.22229 -20.298332 322.25082
-190.8037 -22.76789 328.81946
-190.81306 -22.123878 328.90387
-186.31003 -23.61042 335.48923
-186.31003 -24.261635 335.3906
-186.31 -23.610435 335.48926
-181.71532 -25.459053 341.85736
-181.70653 -24.807777 341.96652
-177.02353 -26.830208 348.12286
-177.00085 -26.184334 348.24603
-172.0505 -27.626244 354.16452
-166.66118 -28.838753 359.54193
-160.76474 -30.196281 364.0828
-160.7548 -29.532417 364.16626
-154.36691 -30.230064 367.86826
-154.39694 -29.5391 367.92218
-147.63899 -29.597496 370.80817
-147.71727 -28.895256 370.84164
-140.7179 -28.609749 372.7752
-140.82846 -27.881004 372.8081
-132.84367 -27.577232 374.31223
-132.95811 -26.76873 374.3296
-301.71753 -31.708961 -239.56343
-301.5534 -32.72741 -238.64255
-301.36874 -33.70765 -238.06425
-301.15622 -34.6874 -237.60574
-301.02505 -36.215675 -237.00928
-301.0639 -39.168083 -235.56966
-301.70563 -42.78167 -231.68211
-302.59988 -44.688103 -224.75395
-303.12808 -45.521873 -216.86955
-302.9456 -45.182487 -208.9365
-302.456 -43.438103 -201.07864
-302.2816 -41.29595 -193.26695
-302.2816 -41.29595 -193.26694
-301.8396 -39.21673 -185.49358
-300.37494 -36.52668 -178.14398
-297.49164 -33.944588 -171.16818
-295.76755 -30.87539 -163.9884
-297.12537 -26.78611 -156.98541
-299.5786 -23.31968 -150.05208
-299.5786 -23.31968 -150.05206
-301.78348 -21.254097 -142.5739
-303.5338 -19.618645 -134.89096
-304.32007 -17.293358 -127.28266
-304.2674 -14.392448 -119.77825
-303.84747 -11.543877 -112.196625
-303.84747 -11.543877 -112.19661
-303.32642 -9.242989 -104.41094
-302.48105 -7.565849 -96.529305
-301.18027 -6.391151 -88.646324
-299.591 -5.516655 -80.778595
-298.06067 -4.751076 -72.87557
-296.80548 -4.021431 -64.91192
-295.7325 -3.505882 -56.907448
-294.52844 -3.477715 -48.925163
-292.82028 -3.904442 -41.085243
-290.30865 -4.145744 -33.554478
-286.8303 -3.205986 -26.919043
-283.23767 -1.799706 -22.033333
-280.22247 -0.904716 -18.573215
-280.22247 -0.904716 -18.573206
-278.1543 -0.310753 -16.34133
-276.37784 0.427177 -14.473827
-274.6212 1.529579 -12.639154
-272.975 2.846642 -10.93321
-271.35947 4.21244 -9.281319
-269.7801 5.479683 -7.688009
-268.08337 6.750145 -5.959148
-265.72107 8.485893 -3.421891
-262.58032 11.063103 0.495125
-259.03293 14.411736 6.111416
-259.03293 14.411736 6.111435
-255.59323 17.629906 12.847204
-252.18196 19.75985 19.984594
-249.1574 21.094704 27.526043
-247.44461 22.014687 35.680576
-247.62628 22.155922 44.148815
-249.5891 21.346733 52.228973
-252.56198 19.93525 59.66341
-255.65941 18.466927 66.83019
-258.3475 17.33155 74.14203
-260.3374 16.933052 81.71683
-261.37744 17.341148 89.509895
-261.20297 17.521797 97.4964
-259.61847 16.571053 105.50826
-257.54736 14.802727 113.3846
-256.05118 13.155647 121.35221
-255.42152 12.177879 129.433
-255.2144 11.919548 137.46745
-255.02216 12.397606 145.40817
-254.64081 13.520775 153.23862
-254.12619 15.087761 160.98003
-253.50476 16.821938 168.72218
-252.7103 18.426582 176.53963
-251.6946 19.71093 184.45024
-250.48415 20.550331 192.41391
-249.11934 20.894035 200.36345
-249.11932 20.89405 200.3635
-247.41174 20.927849 208.25156
-245.51683 20.540123 216.0453
-243.348 19.670067 223.69827
-240.94604 18.323753 231.16245
-238.29906 16.551674 238.41118
-235.44785 14.420479 245.43752
-232.46576 12.011574 252.25058
-229.40033 9.382927 258.8723
-226.24417 6.608345 265.33038
-223.16425 3.664452 271.6521
-219.94905 0.712013 277.86752
-216.63956 -2.31916 284.0149
-213.52127 -5.751503 290.121
-210.45541 -9.422417 296.2899
-207.19635 -12.833946 302.64667
-203.61731 -15.632027 309.1642
-199.67923 -17.805779 315.76883
-195.43079 -19.699821 322.43906
-191.01451 -21.511894 329.115
-186.50435 -22.991646 335.7169
-186.50432 -22.991661 335.7169
-181.8912 -24.188896 342.20718
-177.16791 -25.570595 348.50443
-172.19966 -27.015327 354.43524
-166.79866 -28.22448 359.81348
-160.89441 -28.901588 364.43277
-154.55472 -28.882515 368.18524
-147.89494 -28.22799 371.10406
-141.00969 -27.188591 373.09195
-133.13815 -25.982613 374.63373
-302.05518 -30.970146 -240.61012
-301.76425 -31.636162 -239.49489
-301.61603 -32.647255 -238.5335
-301.44482 -33.624596 -237.90717
-301.44482 -33.62461 -237.90718
-301.24478 -34.60639 -237.40273
-301.11737 -36.142174 -236.80101
-301.16043 -39.088524 -235.37598
-301.76862 -42.66674 -231.5571
-302.63644 -44.5355 -224.70961
-303.1592 -45.35195 -216.8513
-303.1592 -45.351936 -216.8513
-302.97717 -45.00953 -208.94138
-302.48694 -43.269035 -201.11597
-302.31235 -41.127235 -193.314
-301.87402 -39.04461 -185.53731
-300.41882 -36.35755 -178.19565
-297.54163 -33.77572 -171.20927
-295.8364 -30.713753 -164.04298
-297.22266 -26.63845 -157.09389
-299.70084 -23.16729 -150.1708
-301.92737 -21.086021 -142.66257
-303.6896 -19.443245 -134.9634
-304.48572 -17.11802 -127.35234
-304.44315 -14.217537 -119.84381
-304.02997 -11.364754 -112.25363
-304.02997 -11.364754 -112.253624
-303.51233 -9.055855 -104.45398
-302.67035 -7.371223 -96.550476
-301.37146 -6.191277 -88.64461
-299.78265 -5.313805 -80.76248
-298.2535 -4.546242 -72.85811
-297.0017 -3.813301 -64.90021
-295.93338 -3.291985 -56.894505
-294.73303 -3.256783 -48.895332
-293.02643 -3.676414 -41.028393
-290.51782 -3.909462 -33.477634
-287.04944 -2.962715 -26.837729
-283.45984 -1.554085 -21.93662
-280.4323 -0.654503 -18.451212
-280.4323 -0.654503 -18.451204
-278.36343 -0.059929 -16.214329
-276.5996 0.673317 -14.358647
-274.8643 1.764717 -12.545616
-273.23407 3.070915 -10.855528
-271.62213 4.433403 -9.20625
-270.03918 5.703041 -7.608122
-268.33853 6.976875 -5.8761
-265.97482 8.715355 -3.340699
-262.83603 11.295723 0.565226
-259.29675 14.647408 6.153759
-259.29675 14.647423 6.153778
-255.85956 17.877129 12.878836
-252.44043 20.026543 20.04394
-249.41895 21.376625 27.590998
-247.72034 22.308235 35.70717
-247.91388 22.462547 44.131897
-249.88733 21.664879 52.176933
-252.86919 20.262047 59.586666
-255.97362 18.802605 66.74575
-258.66858 17.67852 74.06034
-260.6658 17.292793 81.63376
-261.71814 17.713097 89.43064
-261.55753 17.904808 97.47736
-259.9717 16.959618 105.611534
-257.89417 15.192116 113.564865
-256.41504 13.55323 121.51282
-255.80647 12.587944 129.51851
-255.60605 12.336494 137.48524
-255.41278 12.813301 145.37971
-255.02792 13.927895 153.18025
-254.50822 15.482887 160.90363
-253.88293 17.209557 168.64803
-253.08545 18.812614 176.48471
-252.0666 20.098839 184.42636
-250.8528 20.941109 192.42644
-249.48547 21.287941 200.40994
-249.48546 21.287941 200.41
-247.77643 21.325905 208.32887
-245.87918 20.943275 216.15741
-243.7048 20.078056 223.85292
-241.29414 18.735313 231.36165
-238.63617 16.965157 238.6526
-235.77269 14.834175 245.7169
-232.77817 12.424263 252.56268
-229.70114 9.79406 259.21164
-226.5349 7.017891 265.69196
-223.44662 4.072716 272.03192
-220.2253 1.120354 278.26187
-216.91261 -1.908119 284.41962
-213.7931 -5.336845 290.53452
-210.73701 -8.99131 296.69656
-207.50897 -12.367256 303.02026
-203.97499 -15.127159 309.49695
-200.07518 -17.271004 316.08035
-195.84192 -19.144539 322.76147
-191.42451 -20.944084 329.46262
-186.90984 -22.417534 336.0833
-186.9098 -22.417564 336.08334
-182.2862 -23.614708 342.58932
-177.54144 -25.001198 348.90805
-172.547 -26.448524 354.86093
-167.11916 -27.654533 360.2575
-161.19666 -28.316322 364.89706
-154.8509 -28.273323 368.67493
-148.17953 -27.608864 371.61502
-141.26617 -26.54612 373.64816
-133.38809 -25.254326 375.26315
-301.85394 -31.571342 -239.43275
-301.73456 -32.574867 -238.43195
-301.5939 -33.55082 -237.75717
-301.59393 -33.550804 -237.75719
-301.42404 -34.53939 -237.2003
-301.3003 -36.078148 -236.6011
-301.3431 -39.01612 -235.19826
-301.89905 -42.558388 -231.44722
-302.732 -44.39022 -224.6747
-303.2517 -45.190147 -216.83485
-303.2517 -45.190147 -216.83484
-303.07135 -44.84481 -208.94316
-302.58038 -43.108025 -201.15083
-302.406 -40.966576 -193.3596
-302.406 -40.96656 -193.35959
-301.9721 -38.8807 -185.57542
-300.52524 -36.19648 -178.2321
-297.65002 -33.615135 -171.22401
-295.9691 -30.56411 -164.0787
-297.39673 -26.513054 -157.20633
-299.90683 -23.046684 -150.30403
-299.90686 -23.046684 -150.30402
-302.15723 -20.953484 -142.76709
-303.93384 -19.304924 -135.04837
-304.74286 -16.979744 -127.42049
-304.71188 -14.079597 -119.894775
-304.30676 -11.223488 -112.29142
-304.30676 -11.223488 -112.29141
-303.79456 -8.908287 -104.47909
-302.9574 -7.217751 -96.552635
-301.661 -6.033638 -88.6206
-300.073 -5.153816 -80.72182
-298.54617 -4.384712 -72.81719
-297.3001 -3.649208 -64.868454
-296.23975 -3.123329 -56.864777
-295.04663 -3.082558 -48.84939
-293.34436 -3.496605 -40.9505
-290.83887 -3.723122 -33.365284
-287.37308 -2.770897 -26.694105
-283.77533 -1.360374 -21.755796
-280.731 -0.457207 -18.238108
-280.731 -0.457207 -18.238098
-278.65863 0.137856 -15.992958
-276.9038 0.867409 -14.144934
-275.185 1.950142 -12.348397
-273.5668 3.247765 -10.670217
-271.95685 4.607643 -9.022124
-270.37012 5.879158 -7.419352
-268.66693 7.155693 -5.685467
-266.30487 8.896309 -3.154219
-263.17493 11.479179 0.735503
-259.65546 14.833275 6.287129
-259.65546 14.83329 6.287148
-256.2331 18.072105 12.991042
-252.8153 20.23684 20.176853
-249.80746 21.598885 27.718756
-248.13693 22.539726 35.76957
-248.35172 22.704369 44.107273
-250.33472 21.915749 52.072197
-253.32106 20.519753 59.42937
-256.4351 19.067284 66.57573
-259.14746 17.952065 73.90507
-261.1655 17.57647 81.49879
-262.24207 18.006447 89.32485
-262.1032 18.206856 97.4571
-260.52063 17.26603 105.73276
-258.44177 15.499138 113.76624
-256.98477 13.866707 121.681755
-256.39935 12.911293 129.59866
-256.20612 12.665276 137.4964
-256.01117 13.141106 145.354
-255.62024 14.248909 153.13734
-255.09128 15.794456 160.85223
-254.4584 17.515236 168.60449
-253.65543 19.117043 176.46243
-252.63206 20.404747 184.43475
-251.41458 21.24929 192.47037
-250.04535 21.598534 200.48843
-250.04535 21.598549 200.48848
-248.3364 21.639748 208.441
-246.43921 21.261162 216.30855
-244.26233 20.399757 224.05121
-241.84639 19.059837 231.60925
-239.18091 17.29116 238.94685
-236.30847 15.160378 246.0531
-233.3045 12.749672 252.93509
-230.21846 10.118217 259.61432
-227.04442 7.340797 266.11954
-223.94994 4.394646 272.48004
-220.72455 1.442314 278.72665
-217.41066 -1.583992 284.89746
-214.29213 -5.009865 291.02356
-211.2464 -8.65136 297.1867
-208.04724 -11.99929 303.4958
-204.55638 -14.729042 309.95453
-200.69714 -16.849312 316.53442
-196.48663 -18.706688 323.2333
-192.07628 -20.496346 329.96014
-187.56116 -21.964806 336.60083
-187.56113 -21.964836 336.60083
-182.92694 -23.161903 343.12442
-178.15776 -24.552177 349.46765
-173.12852 -26.001595 355.45343
-167.65593 -27.205132 360.89053
-161.68932 -27.85482 365.5827
-155.30502 -27.792961 369.4226
-148.58023 -27.120659 372.41156
-141.59837 -26.039528 374.5178
-133.69595 -24.717827 376.24338
-301.98788 -31.531914 -239.39299
-301.91666 -32.528435 -238.36143
-301.82404 -33.508736 -237.65527
-301.69275 -34.52363 -237.0808
-301.58185 -36.04754 -236.4691
-301.6234 -38.966835 -235.0778
-302.10516 -42.465935 -231.3696
-302.89407 -44.25921 -224.65244
-303.4136 -45.044197 -216.82115
-303.2363 -44.696266 -208.94116
-302.74448 -42.962822 -201.18143
-302.57092 -40.821663 -193.40164
-302.57092 -40.82168 -193.40164
-302.14212 -38.732872 -185.60533
-300.70187 -36.05123 -178.24904
-297.8238 -33.471306 -171.20644
-296.17242 -30.449165 -164.08214
-297.64072 -26.467522 -157.28297
-300.16885 -23.044441 -150.3991
-300.16885 -23.044441 -150.39908
-302.4349 -20.953484 -142.8496
-304.22327 -19.304924 -135.11469
-305.04462 -16.97976 -127.45191
-305.02228 -14.079597 -119.89303
-304.62375 -11.223488 -112.27431
-304.62378 -11.223488 -112.2743
-304.11798 -8.908287 -104.45802
-303.28583 -7.217735 -96.51801
-301.99194 -6.033638 -88.56654
-300.40512 -5.153816 -80.655136
-298.88147 -4.384712 -72.75245
-297.64276 -3.649193 -64.81473
-296.59265 -3.123314 -56.818226
-295.4097 -3.082558 -48.7959
-293.71484 -3.496605 -40.8717
-291.21112 -3.723137 -33.241833
-287.7328 -2.770912 -26.504484
-284.10992 -1.360374 -21.506405
-281.04865 -0.457191 -17.959286
-281.04865 -0.457191 -17.959276
-278.9695 0.137856 -15.703804
-277.2122 0.867409 -13.851809
-275.49268 1.950142 -12.053905
-273.87317 3.24778 -10.374353
-272.26105 4.607674 -8.724197
-270.67215 5.879128 -7.1194
-268.9704 7.155678 -5.387014
-266.61493 8.896309 -2.862181
-263.50226 11.479179 1.009722
-260.01483 14.83326 6.525509
-260.01483 14.833275 6.525528
-256.62308 18.07209 13.199099
-253.22333 20.236794 20.38218
-250.24216 21.59887 27.901257
-248.61198 22.539726 35.868317
-248.85512 22.704369 44.080296
-250.84091 21.915733 51.920227
-253.82101 20.519722 59.198524
-256.9447 19.067253 66.329025
-259.68585 17.952034 73.68836
-261.73962 17.576454 81.33309
-262.8507 18.006432 89.22156
-262.73782 18.206856 97.44451
-261.1655 17.266014 105.827675
-259.0957 15.499077 113.90749
-257.6592 13.866661 121.78257
-257.08942 12.911293 129.629
-256.90063 12.665276 137.4895
-256.70367 13.14109 145.34615
-256.30478 14.248909 153.14471
-255.76334 15.794487 160.87334
-255.11972 17.515251 168.6401
-254.3093 19.117043 176.51254
-253.28108 20.404747 184.49971
-252.06107 21.24929 192.55153
-250.69205 21.598549 200.58812
-250.69205 21.598564 200.58818
-248.98604 21.639748 208.56296
-247.09338 21.261162 216.45815
-244.92102 20.399742 224.23329
-242.50885 19.059837 231.82512
-239.84613 17.291176 239.19461
-236.9754 15.160393 246.32948
-233.97226 12.749672 253.23633
-230.88655 10.118202 259.93658
-227.71289 7.340767 266.45932
-224.61932 4.39463 272.83432
-221.39575 1.442299 279.09348
-218.08495 -1.583992 285.27606
-214.97107 -5.009865 291.4122
-211.9317 -8.651375 297.59076
-208.7431 -11.999306 303.9272
-205.27036 -14.729057 310.42004
-201.43582 -16.849327 317.0316
-197.25107 -18.706688 323.75226
-192.85971 -20.496346 330.493
-188.35196 -21.964806 337.14587
-188.35193 -21.964836 337.1459
-183.71227 -23.161903 343.68198
-178.92516 -24.552193 350.04312
-173.86229 -26.001595 356.066
-168.33342 -27.205116 361.56516
-162.29585 -27.854805 366.3448
-155.83105 -27.792946 370.28488
-149.00064 -27.120659 373.35056
-141.90836 -26.039513 375.54605
-133.9711 -24.717812 377.39203
-302.1374 -31.537697 -239.39476
-302.12537 -32.533073 -238.35696
-302.08667 -33.521095 -237.64752
-302.0867 -33.521095 -237.64754
-301.98425 -34.56762 -237.08525
-301.90097 -36.066856 -236.46278
-301.94696 -38.965233 -235.07591
-302.3665 -42.422752 -231.36263
-303.1212 -44.186012 -224.65645
-303.64542 -44.96261 -216.81549
-303.47253 -44.613197 -208.93352
-302.97998 -42.88163 -201.19695
-302.80786 -40.74064 -193.42686
-302.80786 -40.740654 -193.42685
-302.38397 -38.650215 -185.61407
-300.94583 -35.97001 -178.22984
-298.0566 -33.39251 -171.14113
-296.41766 -30.416191 -164.03447
-297.89645 -26.525826 -157.29648
-300.4161 -23.161781 -150.42986
-300.4161 -23.161781 -150.42984
-302.68494 -21.086006 -142.88766
-304.47934 -19.44323 -135.14435
-305.30905 -17.11802 -127.4381
-305.29004 -14.217522 -119.839035
-304.89487 -11.364708 -112.20692
-304.39478 -9.055809 -104.3965
-303.56653 -7.371178 -96.45596
-302.27438 -6.191246 -88.49712
-300.68872 -5.313805 -80.580536
-299.16833 -4.546242 -72.68145
-297.93655 -3.813301 -64.753624
-296.89624 -3.291969 -56.767483
-295.72357 -3.256767 -48.749393
-294.03717 -3.676414 -40.813396
-291.53345 -3.909462 -33.140827
-288.03088 -2.962761 -26.3204
-284.3727 -1.5541 -21.256205
-281.29898 -0.654488 -17.69051
-281.29898 -0.654488 -17.6905
-279.2116 -0.059929 -15.425423
-277.441 0.673332 -13.558901
-275.70367 1.764717 -11.742134
-274.06995 3.07093 -10.048313
-272.4521 4.433418 -8.39342
-270.86325 5.703026 -6.789785
-269.1665 6.97686 -5.061867
-266.82074 8.71537 -2.543928
-263.7292 11.295769 1.313397
-260.2772 14.647438 6.804113
-260.2772 14.647469 6.804132
-256.92352 17.87716 13.446457
-253.55359 20.026497 20.604116
-250.60492 21.37658 28.088894
-249.01642 22.30825 35.97657
-249.28735 22.462563 44.05829
-251.26842 21.664879 51.7623
-254.23323 20.262047 58.956825
-257.364 18.802574 66.07269
-260.13742 17.678474 73.46914
-262.23218 17.292763 81.181694
-263.37875 17.713112 89.1488
-263.289 17.904808 97.44303
-261.73114 16.959602 105.8705
-259.67828 15.192055 113.95026
-258.25513 13.553185 121.78787
-257.68915 12.587959 129.60127
-257.50092 12.336479 137.46646
-257.3021 12.813286 145.35828
-256.89554 13.92791 153.20042
-256.3418 15.482933 160.9612
-255.6872 17.209572 168.74516
-254.86945 18.81263 176.62144
-253.83737 20.098854 184.60353
-252.61664 20.941124 192.64789
-251.2499 21.287926 200.68192
-251.2499 21.287941 200.68196
-249.54889 21.325905 208.66164
-247.66394 20.94329 216.56558
-245.50192 20.078026 224.34972
-243.10156 18.735298 231.95062
-240.45114 16.965157 239.32863
-237.5923 14.834175 246.47102
-234.60002 12.424278 253.38458
-231.5239 9.794029 260.09094
-228.3587 7.01783 266.61908
-225.27292 4.072685 272.9987
-222.05656 1.120323 279.26285
-218.75226 -1.908134 285.45255
-215.64546 -5.33683 291.5949
-212.60675 -8.991325 297.79895
-209.40753 -12.367287 304.19733
-205.9229 -15.127174 310.7671
-202.09055 -17.271004 317.43668
-197.92754 -19.144539 324.17728
-193.56192 -20.944084 330.91638
-189.06735 -22.417534 337.57043
-189.06732 -22.417564 337.57047
-184.4288 -23.614708 344.11057
-179.63516 -25.001198 350.47827
-174.54892 -26.44851 356.5323
-168.96759 -27.654518 362.09808
-162.85147 -28.316292 366.9762
-156.28609 -28.273308 371.02762
-149.32657 -27.608864 374.17685
-142.11192 -26.54612 376.45352
-134.14075 -25.25431 378.40555
-302.2591 -31.58854 -239.43922
-302.29752 -32.591103 -238.42484
-302.30322 -33.58407 -237.7343
-302.30322 -33.584053 -237.7343
-302.21378 -34.64109 -237.1742
-302.1626 -36.12574 -236.57544
-302.2179 -39.01658 -235.20337
-302.62033 -42.456 -231.44382
-303.3689 -44.214333 -224.6953
-303.90314 -44.99401 -216.82262
-303.90314 -44.99401 -216.8226
-303.73532 -44.645164 -208.92047
-303.24228 -42.912865 -201.18712
-303.0721 -40.771797 -193.42134
-303.0721 -40.771812 -193.42133
-302.65137 -38.68203 -185.59111
-301.20853 -36.001274 -178.16687
-298.29987 -33.426033 -171.0305
-296.64087 -30.48925 -163.94016
-298.09357 -26.650276 -157.25859
-300.59045 -23.313118 -150.41762
-300.59045 -23.313118 -150.41759
-302.85437 -21.254066 -142.89212
-304.6502 -19.618614 -135.14673
-305.48395 -17.293358 -127.403885
-305.46457 -14.392433 -119.77147
-305.0701 -11.543816 -112.13058
-304.57382 -9.242928 -104.32968
-303.7478 -7.565788 -96.395676
-302.45654 -6.391106 -88.43781
-300.87177 -5.51664 -80.5214
-299.3538 -4.751076 -72.62588
-298.12692 -4.021431 -64.70474
-297.09357 -3.505882 -56.727886
-295.9286 -3.47773 -48.718872
-294.24902 -3.904442 -40.78134
-291.74435 -4.14576 -33.078373
-288.21765 -3.206001 -26.187788
-284.52808 -1.799706 -21.071516
-281.44757 -0.904716 -17.49791
-281.44754 -0.904716 -17.4979
-279.35333 -0.310768 -15.226144
-277.5672 0.427177 -13.343312
-275.8077 1.529579 -11.503357
-274.15656 2.846642 -9.792148
-272.53262 4.21244 -8.132339
-270.945 5.479668 -6.531274
-269.25388 6.75013 -4.808238
-266.9169 8.485893 -2.295603
-263.8429 11.063133 1.552736
-260.41882 14.411766 7.030695
-260.41882 14.411766 7.030714
-257.09717 17.629936 13.649527
-253.75546 19.75985 20.776405
-250.83382 21.094719 28.229818
-249.2767 22.014702 36.06137
-249.5678 22.155922 44.044754
-251.5414 21.346764 51.642857
-254.49014 19.935295 58.773056
-257.6248 18.466927 65.87877
-260.42386 17.331535 73.306366
-262.55154 16.933037 81.07783
-263.7248 17.341133 89.11147
-263.65057 17.521797 97.44784
-262.10556 16.571037 105.87431
-260.0694 14.802727 113.929344
-258.65225 13.155632 121.74098
-258.08276 12.177879 129.55002
-257.89288 11.919548 137.44089
-257.69278 12.397606 145.37787
-257.2808 13.520836 153.26718
-256.71805 15.087807 161.06143
-256.05524 16.821938 168.85948
-255.23213 18.426582 176.73291
-254.19772 19.71093 184.70064
-252.97743 20.550331 192.7269
-251.6135 20.894035 200.74788
-251.6135 20.89405 200.74794
-249.91724 20.927849 208.72195
-248.0397 20.540123 216.62228
-245.88834 19.670067 224.40053
-243.50096 18.323738 231.99501
-240.86464 16.551674 239.36682
-238.01999 14.420479 246.50352
-235.04106 12.011574 253.41241
-231.97691 9.382912 260.11536
-228.82227 6.608315 266.64096
-225.7459 3.664436 273.01865
-222.53772 0.712013 279.28247
-219.23999 -2.31913 285.475
-216.13968 -5.751472 291.61993
-213.09843 -9.422432 297.8482
-209.88013 -12.833961 304.31055
-206.37079 -15.632042 310.9597
-202.52806 -17.805779 317.68616
-198.37892 -19.699821 324.4404
-194.03586 -21.511894 331.17004
-189.55411 -22.991646 337.8191
-189.5541 -22.991676 337.81912
-184.91994 -24.188911 344.35764
-180.1275 -25.57061 350.72406
-175.0295 -27.015327 356.79785
-169.41159 -28.224434 362.41522
-163.23361 -28.901588 367.3717
-156.58344 -28.88253 371.51096
-149.51636 -28.22799 374.72546
-142.20525 -27.188591 377.05765
-134.20308 -25.982597 379.08005
-302.3375 -31.65612 -239.5001
-302.41156 -32.66691 -238.51912
-302.449 -33.66398 -237.85878
-302.44904 -33.663963 -237.85878
-302.37115 -34.724815 -237.30661
-302.33972 -36.197945 -236.73688
-302.39822 -39.089012 -235.3783
-302.80035 -42.54249 -231.56837
-303.55597 -44.322136 -224.75212
-304.10153 -45.11402 -216.83862
-303.93768 -44.767326 -208.90686
-303.44452 -43.032265 -201.15826
-303.2761 -40.890938 -193.39076
-303.27606 -40.890938 -193.39073
-302.856 -38.80355 -185.54779
-301.404 -36.12069 -178.08571
-298.4759 -33.546303 -170.91585
-296.79376 -30.622627 -163.84071
-298.22073 -26.798409 -157.19472
-300.6974 -23.476875 -150.37521
-300.6974 -23.476875 -150.3752
-302.95175 -21.435204 -142.87155
-304.74548 -19.807655 -135.12892
-305.57977 -17.482353 -127.35734
-305.55737 -14.580986 -119.69921
-305.16165 -11.736885 -112.053566
-305.16165 -11.73687 -112.05356
-304.6675 -9.444618 -104.26415
-303.8424 -7.775551 -96.34133
-302.55133 -6.606575 -88.39047
-300.96716 -5.735298 -80.478134
-299.4508 -4.97187 -72.58585
-298.22693 -4.24575 -64.66855
-297.1979 -3.736473 -56.699512
-296.0381 -3.715919 -48.702415
-294.36365 -4.150261 -40.770977
-291.85736 -4.400475 -33.048958
-288.30853 -3.468208 -26.103079
-284.59277 -2.064461 -20.949038
-281.51016 -1.174385 -17.37591
-281.51016 -1.174385 -17.3759
-279.41058 -0.581093 -15.10012
-277.60855 0.161842 -13.200924
-275.82538 1.2761 -11.336422
-274.15588 2.604912 -9.606872
-272.52603 3.974236 -7.942378
-270.94037 5.238899 -6.344685
-269.25482 6.505699 -4.626438
-266.92535 8.238533 -2.117573
-263.8649 10.812386 1.726514
-260.46115 14.157722 7.201742
-260.46115 14.157738 7.20176
-257.16464 17.363457 13.804534
-253.84781 19.47242 20.899092
-250.9471 20.790855 28.325726
-249.41142 21.69828 36.122463
-249.71555 21.825401 44.03845
-251.6802 21.003868 51.560776
-254.61357 19.583092 58.645855
-257.74945 18.105171 65.74547
-260.56726 16.957603 73.19742
-262.71954 16.54528 81.016716
-263.91095 16.940224 89.10295
-263.8454 17.10897 97.4569
-262.31116 16.15226 105.849304
-260.29016 14.383034 113.863464
-258.8732 12.727135 121.65953
-258.29523 11.735878 129.48546
-258.10223 11.470131 137.41547
-257.90134 11.949547 145.40135
-257.4859 13.082039 153.3368
-256.9173 14.661919 161.16293
-256.24896 16.404106 168.97171
-255.42232 18.010506 176.8376
-254.38687 19.292824 184.78532
-253.16786 20.129097 192.78714
-251.80684 20.46946 200.78836
-251.80684 20.46946 200.7884
-250.1148 20.498833 208.74947
-248.2439 20.105598 216.63742
-246.10265 19.230354 224.39937
-243.72809 17.88012 231.97653
-241.10611 16.106026 239.33192
-238.27621 13.974586 246.45372
-235.31145 11.566765 253.34995
-232.2601 8.939812 260.04272
-229.11673 6.166924 266.56027
-226.05022 3.224388 272.9314
-222.85025 0.271904 279.19098
-219.5587 -2.762184 285.38303
-216.46396 -6.198402 291.5276
-213.418 -9.887093 297.77722
-210.17586 -13.336983 304.30005
-206.63435 -16.176186 311.02426
-202.77284 -18.382164 317.8024
-198.63078 -20.298332 324.56473
-194.30624 -22.123878 331.27982
-189.83606 -23.61042 337.91968
-189.83603 -23.610435 337.91968
-185.20825 -24.807762 344.4527
-180.4226 -26.184334 350.8123
-175.32225 -27.626244 356.89603
-169.68216 -28.838737 362.54993
-163.45929 -29.532417 367.5641
-156.74245 -29.5391 371.76718
-149.59184 -28.895256 375.02844
-142.21066 -27.881004 377.393
-134.18066 -26.76873 379.43274
-302.37665 -31.728035 -239.56592
-302.47308 -32.74787 -238.62283
-302.53018 -33.749153 -238.0002
-302.5302 -33.749138 -238.00021
-302.46152 -34.813362 -237.46948
-302.43927 -36.274773 -236.92192
-302.49554 -39.16828 -235.5687
-302.903 -42.64994 -231.70398
-303.6706 -44.462105 -224.81052
-304.22632 -45.269875 -216.85756
-304.22632 -45.26989 -216.85754
-304.065 -44.92594 -208.89534
-303.57208 -43.187325 -201.12233
-303.40494 -41.045692 -193.34946
-303.40494 -41.045708 -193.34944
-302.9837 -38.96145 -185.49908
-301.5213 -36.275826 -178.00726
-298.57745 -33.70159 -170.81876
-296.8772 -30.778542 -163.75163
-298.284 -26.956001 -157.11345
-300.74182 -23.649254 -150.30635
-300.74182 -23.649254 -150.30632
-302.98242 -21.625832 -142.8286
-304.77087 -20.006584 -135.09306
-305.60254 -17.681252 -127.300255
-305.57477 -14.779411 -119.623634
-305.17603 -11.940071 -111.97695
-305.17603 -11.940056 -111.976944
-304.68243 -9.656883 -104.20064
-303.857 -7.9963 -96.29312
-302.56555 -6.833275 -88.354675
-300.98166 -5.96537 -80.449844
-299.4662 -5.20417 -72.56047
-298.24356 -4.481773 -64.644325
-297.21646 -3.979103 -56.681664
-296.0594 -3.966515 -48.698887
-294.38843 -4.408897 -40.780434
-291.88 -4.668465 -33.04993
-288.31113 -3.744133 -26.062965
-284.5744 -2.343056 -20.88464
-281.49393 -1.458183 -17.319622
-281.4939 -1.458183 -17.319613
-279.39047 -0.865562 -15.042274
-277.5723 -0.117348 -13.126879
-275.76447 1.009377 -11.236896
-274.076 2.350517 -9.488427
-272.44046 3.723564 -7.81953
-270.8574 4.985527 -6.225904
-269.17737 6.248512 -4.512295
-266.85406 7.978249 -2.005748
-263.80347 10.548531 1.838476
-260.41278 13.890404 7.320118
-260.41278 13.890404 7.320137
-257.1348 17.083046 13.913881
-253.83948 19.169899 20.9751
-250.95392 20.471092 28.37944
-249.43036 21.36538 36.161213
-249.74088 21.477608 44.038784
-251.6954 20.642998 51.51369
-254.61418 19.21241 58.571712
-257.74884 17.72445 65.669014
-260.57898 16.56411 73.13878
-262.74786 16.137276 80.99525
-263.94946 16.518333 89.120705
-263.88635 16.674614 97.46971
-262.36072 15.711586 105.79848
-260.3534 13.941444 113.757645
-258.93137 12.276237 121.54775
-258.34036 11.270821 129.40965
-258.1429 10.997215 137.39047
-257.9417 11.47802 145.42812
-257.5247 12.620262 153.40814
-256.9532 14.213737 161.26433
-256.28177 15.964455 169.08066
-255.45335 17.572655 176.93483
-254.41809 18.852837 184.8577
-253.20108 19.685875 192.82957
-251.84306 20.022621 200.80522
-251.84305 20.022636 200.80528
-250.15474 20.047401 208.74695
-248.2896 19.648369 216.61473
-246.15784 18.767647 224.35109
-243.79579 17.413338 231.90132
-241.18822 15.637077 239.23111
-238.37343 13.505363 246.32983
-235.42332 11.098686 253.20631
-232.38536 8.473488 259.88293
-229.25371 5.702415 266.38745
-226.19731 2.761299 272.748
-223.00555 -0.191246 278.99985
-219.71971 -3.228386 285.1883
-216.62962 -6.668709 291.32993
-213.57709 -10.376076 297.59802
-210.30711 -13.86631 304.17746
-206.7271 -16.748787 310.9719
-202.83943 -18.988686 317.79614
-198.69815 -20.928139 324.5613
-194.38818 -22.767876 331.25757
-189.92825 -24.26159 337.8846
-189.92822 -24.26162 337.88464
-185.30856 -25.459007 344.40866
-180.53474 -26.830177 350.75632
-175.44058 -28.269142 356.8409
-169.79166 -29.485191 362.51727
-163.53992 -30.196281 367.56955
-156.77376 -30.230064 371.81384
-149.56256 -29.59748 375.10455
-142.1362 -28.609703 377.48004
-134.08688 -27.577232 379.5001
-302.37936 -31.802757 -239.63528
-302.48383 -32.83396 -238.73592
-302.5479 -33.83941 -238.15843
-302.5479 -33.839394 -238.15845
-302.4821 -34.905983 -237.66295
-302.4619 -36.355858 -237.13043
-302.5134 -39.252678 -235.77301
-302.93686 -42.765022 -231.84135
-303.72232 -44.61228 -224.86461
-304.28644 -45.437096 -216.87679
-304.28644 -45.437096 -216.87677
-304.1264 -45.09617 -208.88634
-303.6339 -43.35372 -201.08455
-303.46762 -41.21174 -193.30423
-303.04407 -39.13085 -185.45094
-301.57135 -36.44227 -177.93803
-298.61554 -33.868156 -170.74309
-296.8975 -30.944984 -163.67334
-298.2823 -27.121681 -157.01428
-300.7191 -23.828545 -150.21005
-300.71912 -23.82853 -150.21004
-302.94147 -21.824013 -142.76228
-304.7213 -20.213371 -135.03836
-305.54706 -17.887993 -127.232666
-305.51138 -14.985664 -119.54552
-305.1078 -12.151283 -111.90179
-305.1078 -12.151268 -111.90178
-304.6131 -9.877556 -104.14009
-303.78595 -8.225792 -96.25207
-302.49347 -7.068993 -88.33163
-300.9096 -6.204597 -80.43795
-299.39417 -5.445702 -72.55106
-298.17096 -4.72715 -64.63325
-297.1432 -4.231361 -56.675335
-295.98633 -4.227028 -48.709267
-294.31702 -4.677727 -40.810955
-291.80585 -4.94709 -33.083355
-288.21945 -4.030968 -26.071007
-284.46747 -2.632698 -20.883093
-281.39368 -1.753227 -17.334269
-281.39368 -1.753212 -17.334259
-279.288 -1.161308 -15.058013
-277.45367 -0.407585 -13.126815
-275.62036 0.732109 -11.210688
-273.91248 2.086067 -9.442924
-272.27167 3.462975 -7.769998
-270.69186 4.72216 -6.181129
-269.01718 5.981148 -4.471951
-266.69855 7.707634 -1.966122
-263.6537 10.274223 1.882921
-260.26825 13.612495 7.380639
-260.26822 13.612495 7.380658
-257.00146 16.791512 13.972988
-253.72379 18.855415 21.000263
-250.84692 20.13871 28.387394
-249.32538 21.019264 36.175587
-249.63507 21.116035 44.046204
-251.57837 20.26786 51.504593
-254.48363 18.827003 58.555195
-257.6145 17.328575 65.65426
-260.4499 16.154976 73.13468
-262.6267 15.713081 81.016396
-263.82983 16.079735 89.16627
-263.76236 16.222984 97.48633
-262.24304 15.253395 105.720726
-260.24756 13.482323 113.610565
-258.81485 11.807487 121.40508
-258.20624 10.787315 129.32288
-258.003 10.505592 137.36626
-257.80203 10.987831 145.458
-257.3854 12.140205 153.48042
-256.81415 13.74781 161.36421
-256.14233 15.507347 169.1846
-255.31404 17.117455 177.02281
-254.28024 18.395393 184.91591
-253.066 19.22506 192.85239
-251.71104 19.558113 200.7966
-251.71103 19.558113 200.79666
-250.02579 19.578041 208.71233
-248.16547 19.172997 216.55186
-246.04237 18.286613 224.25313
-243.69234 16.928078 231.76651
-241.09903 15.149529 239.06131
-238.2995 13.017555 246.12851
-235.36441 10.612053 252.97794
-232.34027 7.988716 259.63223
-229.2207 5.219521 266.11862
-226.1746 2.279884 272.4643
-222.9909 -0.672722 278.70486
-219.71019 -3.713081 284.8865
-216.62372 -7.157661 291.02243
-213.56265 -10.884438 297.30573
-210.26099 -14.416603 303.93686
-206.6362 -17.344109 310.79526
-202.71484 -19.619255 317.65924
-198.5676 -21.582878 324.4216
-194.26778 -23.437416 331.09464
-189.81657 -24.938576 337.70514
-189.81654 -24.938591 337.70517
-185.20676 -26.136055 344.2165
-180.44995 -27.50161 350.54706
-175.3711 -28.937462 356.62296
-169.72774 -30.15725 362.30637
-163.46461 -30.886421 367.37518
-156.66827 -30.948402 371.63608
-149.4218 -30.327522 374.93723
-141.97745 -29.367271 377.30075
-133.92302 -28.392357 379.2792
-126.478 -26.202736 378.1878
-302.33447 -31.889381 -239.71706
-302.4262 -32.93627 -238.87384
-302.47992 -33.94491 -238.3538
-302.47992 -33.944893 -238.35382
-302.40582 -35.006966 -237.90456
-302.3803 -36.448692 -237.38777
-302.42505 -39.353523 -236.01862
-302.88608 -42.906334 -231.99947
-303.70224 -44.79815 -224.92148
-304.2738 -45.644096 -216.89934
-304.2738 -45.644096 -216.89932
-304.11365 -45.306892 -208.87918
-303.6219 -43.559685 -201.03871
-303.456 -41.41729 -193.2472
-303.456 -41.417274 -193.24718
-303.02835 -39.340553 -185.39621
-301.54376 -36.64834 -177.86995
-298.5789 -34.07415 -170.68314
-296.8372 -31.146263 -163.59879
-298.191 -27.306648 -156.8857
-300.60193 -24.016273 -150.07574
-300.60193 -24.016273 -150.07573
-302.7998 -22.030846 -142.66364
-304.5665 -20.429237 -134.9576
-305.38162 -18.103798 -127.1509
-305.33466 -15.200935 -119.46462
-304.9236 -12.371712 -111.82944
-304.92365 -12.371696 -111.82943
-304.42554 -10.107857 -104.08445
-303.59482 -8.465324 -96.22158
-302.30032 -7.31501 -88.32682
-300.71606 -6.454262 -80.44929
-299.19955 -5.697777 -72.564316
-297.9731 -4.983299 -64.64085
-296.94098 -4.494637 -56.685326
-295.7808 -4.498955 -48.739162
-294.11047 -4.958305 -40.870907
-291.5959 -5.237892 -33.16223
-287.99564 -4.330345 -26.146925
-284.2367 -2.93499 -20.970322
-281.17593 -2.06115 -17.448875
-281.1759 -2.06115 -17.448868
-279.0703 -1.469994 -15.177423
-277.22003 -0.710564 -13.23115
-275.36035 0.44268 -11.288231
-273.63272 1.81002 -9.500799
-271.98718 3.191002 -7.824404
-270.4115 4.447243 -6.241234
-268.74185 5.702065 -4.536156
-266.4258 7.425209 -2.028809
-263.38074 9.987938 1.831607
-259.98935 13.322441 7.358894
-259.98935 13.322456 7.358913
-256.72342 16.48722 13.960564
-253.4577 18.527184 20.953394
-250.58043 19.791756 28.330706
-249.04657 20.657982 36.155415
-249.3453 20.73864 44.063564
-251.27588 19.876305 51.54924
-254.16928 18.424797 58.620163
-257.2928 16.915428 65.72671
-260.1234 15.727928 73.20758
-262.29578 15.270302 81.097496
-263.4881 15.621941 89.25061
-263.40692 15.751595 97.50814
-261.8905 14.775154 105.60574
-259.90417 13.003105 113.40669
-258.453 11.318214 121.220245
-257.82043 10.282661 129.22153
-257.6096 9.99247 137.34346
-257.40958 10.476189 145.49196
-256.99622 11.639168 153.55319
-256.42963 13.261528 161.46089
-255.76128 15.030235 169.28035
-254.93573 16.642326 177.09673
-253.90518 17.917976 184.95354
-252.69472 18.744087 192.84727
-251.3429 19.073326 200.75206
-251.3429 19.073341 200.75212
-249.6598 19.088173 208.6327
-247.80286 18.676811 216.43294
-245.68718 17.784508 224.08603
-243.34839 16.421547 231.54886
-240.76898 14.640694 238.79579
-237.98473 12.50843 245.81993
-235.06505 10.104149 252.63226
-232.0552 7.482735 259.25577
-228.94817 4.715523 265.71698
-225.9125 1.777443 272.04196
-222.73653 -1.175255 278.2663
-219.46007 -4.218956 284.43668
-216.3757 -7.668007 290.56305
-213.30344 -11.415016 296.8567
-209.96497 -14.990929 303.53207
-206.28702 -17.965446 310.4451
-202.32172 -20.277397 317.3392
-198.15904 -22.266273 324.09094
-193.86305 -24.136208 330.73474
-189.41835 -25.64515 337.32367
-189.41832 -25.64515 337.32367
-184.82076 -26.84272 343.8173
-180.08807 -28.2024 350.12366
-175.03717 -29.635063 356.17722
-169.41971 -30.85868 361.84586
-163.16998 -31.606712 366.90088
-156.37079 -31.698143 371.14334
-149.12512 -31.089485 374.4281
-141.70131 -30.157982 376.74725
-133.66083 -29.224388 378.65814
-126.478004 -26.202751 378.18774
POLYGONS 3011 12044
3 0 1 2
3 2 1 3
3 2 3 4
3 4 3 5
3 4 5 6
3 6 5 7
3 8 9 10
3 10 9 11
3 10 11 12
3 12 11 13
3 12 13 14
3 14 13 15
3 14 15 16
3 16 15 17
3 16 17 18
3 18 17 19
3 18 19 20
3 20 19 21
3 20 21 22
3 22 21 23
3 22 23 24
3 24 23 25
3 24 25 26
3 26 25 27
3 28 29 30
3 30 29 31
3 30 31 32
3 32 31 33
3 32 33 34
3 34 33 35
3 34 35 36
3 36 35 37
3 36 37 38
3 38 37 39
3 38 39 40
3 40 39 41
3 42 43 44
3 44 43 45
3 44 45 46
3 46 45 47
3 46 47 48
3 48 47 49
3 48 49 50
3 50 49 51
3 50 51 52
3 52 51 53
3 54 55 56
3 56 55 57
3 56 57 58
3 58 57 59
3 58 59 60
3 60 59 61
3 60 61 62
3 62 61 63
3 62 63 64
3 64 63 65
3 64 65 66
3 66 65 67
3 66 67 68
3 68 67 69
3 68 69 70
3 70 69 71
3 70 71 72
3 72 71 73
3 72 73 74
3 74 73 75
3 74 75 76
3 76 75 77
3 76 77 78
3 78 77 79
3 78 79 80
3 80 79 81
3 82 83 84
3 84 83 85
3 84 85 86
3 86 85 87
3 86 87 88
3 88 87 89
3 88 89 90
3 90 89 91
3 90 91 92
3 92 91 93
3 92 93 94
3 94 93 95
3 94 95 96
3 96 95 97
3 96 97 98
3 98 97 99
3 98 99 100
3 100 99 101
3 100 101 102
3 102 101 103
3 104 105 106
3 106 105 107
3 106 107 108
3 108 107 109
3 108 109 110
3 110 109 111
3 110 111 112
3 112 111 113
3 112 113 114
3 114 113 115
3 114 115 116
3 116 115 117
3 116 117 118
3 118 117 119
3 118 119 120
3 120 119 121
3 120 121 122
3 122 121 123
3 122 123 124
3 124 123 125
3 124 125 126
3 126 125 127
3 126 127 128
3 128 127 129
3 128 129 130
3 130 129 131
3 130 131 132
3 132 131 133
3 132 133 134
3 134 133 135
3 134 135 136
3 136 135 137
3 136 137 138
3 138 137 139
3 138 139 140
3 140 139 141
3 140 141 142
3 142 141 143
3 142 143 144
3 144 143 145
3 144 145 146
3 146 145 147
3 146 147 148
3 148 147 149
3 148 149 150
3 150 149 151
3 150 151 152
3 152 151 153
3 152 153 154
3 154 153 155
3 156 157 158
3 158 157 159
3 158 159 160
3 160 159 161
3 160 161 162
3 162 161 163
3 162 163 164
3 164 163 165
3 164 165 166
3 166 165 167
3 166 167 168
3 168 167 169
3 168 169 170
3 170 169 171
3 170 171 172
3 172 171 173
3 172 173 174
3 174 173 175
3 174 175 176
3 176 175 177
3 176 177 178
3 178 177 179
3 178 179 180
3 180 179 181
3 180 181 182
3 182 181 183
3 182 183 184
3 184 183 185
3 184 185 186
3 186 185 187
3 186 187 188
3 188 187 189
3 188 189 190
3 190 189 191
3 190 191 192
3 192 191 193
3 192 193 194
3 194 193 195
3 194 195 196
3 196 195 197
3 198 199 200
3 200 199 201
3 200 201 202
3 202 201 203
3 202 203 204
3 204 203 205
3 204 205 206
3 206 205 207
3 206 207 208
3 208 207 209
3 208 209 210
3 210 209 211
3 210 211 212
3 212 211 213
3 212 213 214
3 214 213 215
3 214 215 216
3 216 215 217
3 216 217 218
3 218 217 219
3 3 1 220
3 3 220 5
3 5 220 221
3 5 221 7
3 7 221 222
3 9 223 11
3 11 223 224
3 11 224 13
3 13 224 225
3 13 225 15
3 15 225 226
3 15 226 17
3 17 226 227
3 17 227 19
3 19 227 228
3 19 228 21
3 21 228 229
3 21 230 23
3 23 230 231
3 23 231 25
3 25 231 232
3 25 232 27
3 27 232 233
3 29 234 31
3 31 234 235
3 31 235 33
3 33 235 236
3 33 236 35
3 35 236 237
3 35 237 37
3 37 237 238
3 37 238 39
3 39 238 239
3 39 239 41
3 41 239 240
3 43 241 45
3 45 241 242
3 45 242 47
3 47 242 243
3 47 243 49
3 49 243 244
3 49 244 51
3 51 244 245
3 51 245 53
3 53 245 246
3 55 247 57
3 57 247 248
3 57 248 59
3 59 248 249
3 59 249 61
3 61 249 250
3 61 250 63
3 63 250 251
3 63 251 65
3 65 251 252
3 65 252 67
3 67 252 253
3 67 253 69
3 69 253 254
3 69 254 71
3 71 254 255
3 71 255 73
3 73 255 256
3 73 256 75
3 75 256 257
3 75 257 77
3 77 257 258
3 77 258 79
3 79 258 259
3 79 259 81
3 81 259 260
3 83 261 85
3 85 261 262
3 85 262 87
3 87 262 263
3 87 263 89
3 89 263 264
3 89 264 91
3 91 264 265
3 91 265 93
3 93 265 266
3 93 266 95
3 95 266 267
3 95 267 97
3 97 267 268
3 97 268 99
3 99 268 269
3 99 269 101
3 101 269 270
3 101 270 103
3 103 270 271
3 105 272 107
3 107 272 273
3 107 273 109
3 109 273 274
3 109 274 111
3 111 274 275
3 111 275 113
3 113 275 276
3 113 276 115
3 115 276 277
3 115 277 117
3 117 277 278
3 117 278 119
3 119 278 279
3 119 279 121
3 121 279 280
3 121 280 123
3 123 280 281
3 123 281 125
3 125 281 282
3 125 282 127
3 127 282 283
3 127 283 129
3 129 283 284
3 129 284 131
3 131 284 285
3 131 285 133
3 133 285 286
3 133 286 135
3 135 286 287
3 135 287 137
3 137 287 288
3 137 288 139
3 139 288 289
3 139 289 141
3 141 289 290
3 141 290 143
3 143 290 291
3 143 291 145
3 145 291 292
3 145 292 147
3 147 292 293
3 147 293 149
3 149 293 294
3 149 294 151
3 151 294 295
3 151 295 153
3 153 295 296
3 153 296 155
3 155 296 297
3 157 298 159
3 159 298 299
3 159 299 161
3 161 299 300
3 161 300 163
3 163 300 301
3 163 301 165
3 165 301 302
3 165 302 167
3 167 302 303
3 167 303 169
3 169 303 304
3 169 304 171
3 171 304 305
3 171 305 173
3 173 305 306
3 173 306 175
3 175 306 307
3 175 307 177
3 177 307 308
3 177 308 179
3 179 308 309
3 179 309 181
3 181 309 310
3 181 310 183
3 183 310 311
3 183 311 185
3 185 311 312
3 185 312 187
3 187 312 313
3 187 313 189
3 189 313 314
3 189 314 191
3 191 314 315
3 191 315 193
3 193 315 316
3 193 316 195
3 195 316 317
3 195 317 197
3 197 317 318
3 199 319 201
3 201 319 320
3 201 320 203
3 203 320 321
3 203 321 205
3 205 321 322
3 205 322 207
3 207 322 323
3 207 323 209
3 209 323 324
3 209 324 211
3 211 324 325
3 211 325 213
3 213 325 326
3 213 326 215
3 215 326 327
3 215 327 217
3 217 327 328
3 217 328 219
3 220 1 329
3 220 329 221
3 221 329 330
3 221 330 222
3 222 330 331
3 223 332 224
3 224 332 333
3 224 333 225
3 225 333 334
3 225 334 226
3 226 334 335
3 226 335 227
3 227 335 336
3 227 336 228
3 228 336 337
3 228 337 229
3 229 337 338
3 230 339 231
3 231 339 340
3 231 340 232
3 232 340 341
3 232 341 233
3 233 341 342
3 234 343 235
3 235 343 344
3 235 344 236
3 236 344 345
3 236 345 237
3 237 345 346
3 237 346 238
3 238 346 347
3 238 347 239
3 239 347 348
3 239 348 240
3 240 348 349
3 241 349 242
3 242 349 350
3 242 350 243
3 243 350 351
3 243 351 244
3 244 351 352
3 244 352 245
3 245 352 353
3 245 353 246
3 246 353 354
3 247 355 248
3 248 355 356
3 248 356 249
3 249 356 357
3 249 357 250
3 250 357 358
3 250 358 251
3 251 358 359
3 251 359 252
3 252 359 360
3 252 360 253
3 253 360 361
3 253 361 254
3 254 361 362
3 254 362 255
3 255 362 363
3 255 363 256
3 256 363 364
3 256 364 257
3 257 364 365
3 257 365 258
3 258 365 366
3 258 366 259
3 259 366 367
3 259 367 260
3 260 367 368
3 261 369 262
3 262 369 370
3 262 370 263
3 263 370 371
3 263 371 264
3 264 371 372
3 264 372 265
3 265 372 373
3 265 373 266
3 266 373 374
3 266 374 267
3 267 374 375
3 267 375 268
3 268 375 376
3 268 376 269
3 269 376 377
3 269 377 270
3 270 377 378
3 270 378 271
3 271 378 379
3 272 380 273
3 273 380 381
3 273 381 274
3 274 381 382
3 274 382 275
3 275 382 383
3 275 383 276
3 276 383 384
3 276 384 277
3 277 384 385
3 277 385 278
3 278 385 386
3 278 386 279
3 279 386 387
3 279 387 280
3 280 387 388
3 280 388 281
3 281 388 389
3 281 389 282
3 282 389 390
3 282 390 283
3 283 390 391
3 283 391 284
3 284 391 392
3 284 392 285
3 285 392 393
3 285 393 286
3 286 393 394
3 286 394 287
3 287 394 395
3 287 395 288
3 288 395 396
3 288 396 289
3 289 396 397
3 289 397 290
3 290 397 398
3 290 398 291
3 291 398 399
3 291 399 292
3 292 399 400
3 292 400 293
3 293 400 401
3 293 401 294
3 294 401 402
3 294 402 295
3 295 402 403
3 295 403 296
3 296 403 404
3 296 404 297
3 297 404 405
3 298 406 299
3 299 406 407
3 299 407 300
3 300 407 408
3 300 408 301
3 301 408 409
3 301 409 302
3 302 409 410
3 302 410 303
3 303 410 411
3 303 411 304
3 304 411 412
3 304 412 305
3 305 412 413
3 305 413 306
3 306 413 414
3 306 414 307
3 307 414 415
3 307 415 308
3 308 415 416
3 308 416 309
3 309 416 417
3 309 417 310
3 310 417 418
3 310 418 311
3 311 418 419
3 311 419 312
3 312 419 420
3 312 420 313
3 313 420 421
3 313 421 314
3 314 421 422
3 314 422 315
3 315 422 423
3 315 423 316
3 316 423 424
3 316 424 317
3 317 424 425
3 317 425 318
3 318 425 426
3 319 427 320
3 320 427 428
3 320 428 321
3 321 428 429
3 321 429 322
3 322 429 430
3 322 430 323
3 323 430 431
3 323 431 324
3 324 431 432
3 324 432 325
3 325 432 433
3 325 433 326
3 326 433 434
3 326 434 327
3 327 434 435
3 327 435 328
3 328 435 436
3 328 436 219
3 219 436 437
3 438 0 439
3 438 439 440
3 440 439 441
3 440 441 331
3 331 441 442
3 443 444 333
3 333 444 445
3 333 445 446
3 446 445 447
3 446 447 448
3 448 447 449
3 448 449 336
3 336 449 450
3 336 450 451
3 451 450 452
3 451 452 453
3 453 452 454
3 453 455 340
3 340 455 456
3 340 456 341
3 341 456 457
3 341 457 458
3 458 457 459
3 460 461 462
3 462 461 463
3 462 463 345
3 345 463 464
3 345 464 465
3 465 464 466
3 465 466 467
3 467 466 468
3 467 468 469
3 469 468 470
3 469 470 471
3 471 470 472
3 471 472 350
3 350 472 473
3 350 473 474
3 474 473 475
3 474 475 476
3 476 475 477
3 476 477 353
3 353 477 478
3 353 478 479
3 479 478 480
3 481 482 483
3 483 482 484
3 483 484 357
3 357 484 485
3 357 485 486
3 486 485 487
3 486 487 359
3 359 487 488
3 359 488 360
3 360 488 489
3 360 489 490
3 490 489 491
3 490 491 492
3 492 491 493
3 492 493 494
3 494 493 495
3 494 495 496
3 496 495 497
3 496 497 498
3 498 497 499
3 498 499 500
3 500 499 501
3 500 501 502
3 502 501 503
3 502 503 504
3 504 503 505
3 506 507 370
3 370 507 508
3 370 508 509
3 509 508 510
3 509 510 511
3 511 510 512
3 511 512 513
3 513 512 514
3 513 514 515
3 515 514 516
3 515 516 517
3 517 516 518
3 517 518 376
3 376 518 519
3 376 519 520
3 520 519 521
3 520 521 522
3 522 521 523
3 522 523 524
3 524 523 525
3 380 526 527
3 527 526 528
3 527 528 382
3 382 528 529
3 382 529 530
3 530 529 531
3 530 531 532
3 532 531 533
3 532 533 534
3 534 533 535
3 534 535 536
3 536 535 537
3 536 537 538
3 538 537 539
3 538 539 540
3 540 539 541
3 540 541 389
3 389 541 542
3 389 542 390
3 390 542 543
3 390 543 391
3 391 543 544
3 391 544 545
3 545 544 546
3 545 546 547
3 547 546 548
3 547 548 394
3 394 548 549
3 394 549 395
3 395 549 550
3 395 550 551
3 551 550 552
3 551 552 397
3 397 552 553
3 397 553 554
3 554 553 555
3 554 555 556
3 556 555 557
3 556 557 558
3 558 557 559
3 558 559 560
3 560 559 561
3 560 561 562
3 562 561 563
3 562 563 564
3 564 563 565
3 564 565 566
3 566 565 567
3 566 567 405
3 405 567 568
3 569 570 571
3 571 570 572
3 571 572 573
3 573 572 574
3 573 574 575
3 575 574 576
3 575 576 577
3 577 576 578
3 577 578 411
3 411 578 579
3 411 579 580
3 580 579 581
3 580 581 582
3 582 581 583
3 582 583 584
3 584 583 585
3 584 585 586
3 586 585 587
3 586 587 588
3 588 587 589
3 588 589 590
3 590 589 591
3 590 591 418
3 418 591 592
3 418 592 419
3 419 592 593
3 419 593 594
3 594 593 595
3 594 595 596
3 596 595 597
3 596 597 598
3 598 597 599
3 598 599 600
3 600 599 601
3 600 601 602
3 602 601 603
3 602 603 604
3 604 603 605
3 604 605 426
3 426 605 606
3 607 608 609
3 609 608 610
3 609 610 611
3 611 610 612
3 611 612 430
3 430 612 613
3 430 613 431
3 431 613 614
3 431 614 615
3 615 614 616
3 615 616 617
3 617 616 618
3 617 618 619
3 619 618 620
3 619 620 621
3 621 620 622
3 621 622 623
3 623 622 624
3 623 624 218
3 218 624 437
3 439 0 625
3 439 625 441
3 441 625 626
3 441 626 442
3 442 626 627
3 444 627 445
3 445 627 628
3 445 628 447
3 447 628 629
3 447 629 449
3 449 629 630
3 449 630 450
3 450 630 631
3 450 631 452
3 452 631 632
3 452 632 454
3 454 632 633
3 455 633 456
3 456 633 634
3 456 634 457
3 457 634 635
3 457 635 459
3 459 635 636
3 461 637 463
3 463 637 638
3 463 638 464
3 464 638 639
3 464 639 466
3 466 639 640
3 466 640 468
3 468 640 641
3 468 641 470
3 470 641 642
3 470 642 472
3 472 642 643
3 472 644 473
3 473 644 645
3 473 645 475
3 475 645 646
3 475 646 477
3 477 646 647
3 477 647 478
3 478 647 648
3 478 648 480
3 480 648 649
3 482 650 484
3 484 650 651
3 484 651 485
3 485 651 652
3 485 652 487
3 487 652 653
3 487 653 488
3 488 653 654
3 488 654 489
3 489 654 655
3 489 655 491
3 491 655 656
3 491 656 493
3 493 656 657
3 493 657 495
3 495 657 658
3 495 658 497
3 497 658 659
3 497 659 499
3 499 659 660
3 499 660 501
3 501 660 661
3 501 661 503
3 503 661 662
3 503 662 505
3 505 662 663
3 507 664 508
3 508 664 665
3 508 665 510
3 510 665 666
3 510 666 512
3 512 666 667
3 512 667 514
3 514 667 668
3 514 668 516
3 516 668 669
3 516 669 518
3 518 669 670
3 518 670 519
3 519 670 671
3 519 671 521
3 521 671 672
3 521 672 523
3 523 672 673
3 523 673 525
3 525 673 674
3 526 675 528
3 528 675 676
3 528 676 529
3 529 676 677
3 529 677 531
3 531 677 678
3 531 678 533
3 533 678 679
3 533 679 535
3 535 679 680
3 535 680 537
3 537 680 681
3 537 681 539
3 539 681 682
3 539 682 541
3 541 682 683
3 541 683 542
3 542 683 684
3 542 684 543
3 543 684 685
3 543 685 544
3 544 685 686
3 544 686 546
3 546 686 687
3 546 687 548
3 548 687 688
3 548 688 549
3 549 688 689
3 549 689 550
3 550 689 690
3 550 690 552
3 552 690 691
3 552 691 553
3 553 691 692
3 553 692 555
3 555 692 693
3 555 693 557
3 557 693 694
3 557 694 559
3 559 694 695
3 559 695 561
3 561 695 696
3 561 696 563
3 563 696 697
3 563 697 565
3 565 697 698
3 565 698 567
3 567 698 699
3 567 699 568
3 568 699 700
3 570 701 572
3 572 701 702
3 572 702 574
3 574 702 703
3 574 703 576
3 576 703 704
3 576 704 578
3 578 704 705
3 578 705 579
3 579 705 706
3 579 706 581
3 581 706 707
3 581 707 583
3 583 707 708
3 583 708 585
3 585 708 709
3 585 709 587
3 587 709 710
3 587 710 589
3 589 710 711
3 589 711 591
3 591 711 712
3 591 712 592
3 592 712 713
3 592 713 593
3 593 713 714
3 593 714 595
3 595 714 715
3 595 715 597
3 597 715 716
3 597 716 599
3 599 716 717
3 599 717 601
3 601 717 718
3 601 718 603
3 603 718 719
3 603 719 605
3 605 719 720
3 605 720 606
3 606 720 721
3 608 722 610
3 610 722 723
3 610 723 612
3 612 723 724
3 612 724 613
3 613 724 725
3 613 725 614
3 614 725 726
3 614 726 616
3 616 726 727
3 616 727 618
3 618 727 728
3 618 728 620
3 620 728 729
3 620 729 622
3 622 729 730
3 622 730 624
3 624 730 731
3 624 731 437
3 437 731 218
3 0 732 625
3 625 732 733
3 625 733 626
3 626 733 734
3 626 734 627
3 627 734 735
3 627 736 628
3 628 736 737
3 628 737 629
3 629 737 738
3 629 738 630
3 630 738 739
3 630 739 631
3 631 739 740
3 631 740 632
3 632 740 741
3 632 741 633
3 633 741 742
3 633 743 634
3 634 743 744
3 634 744 635
3 635 744 745
3 635 745 636
3 636 745 746
3 637 746 638
3 638 746 747
3 638 747 639
3 639 747 748
3 639 748 640
3 640 748 749
3 640 749 641
3 641 749 750
3 641 750 642
3 642 750 751
3 642 751 643
3 643 751 752
3 644 752 645
3 645 752 753
3 645 753 646
3 646 753 754
3 646 754 647
3 647 754 755
3 647 755 648
3 648 755 756
3 648 756 649
3 649 756 757
3 650 758 651
3 651 758 759
3 651 759 652
3 652 759 760
3 652 760 653
3 653 760 761
3 653 761 654
3 654 761 762
3 654 762 655
3 655 762 763
3 655 763 656
3 656 763 764
3 656 764 657
3 657 764 765
3 657 765 658
3 658 765 766
3 658 766 659
3 659 766 767
3 659 767 660
3 660 767 768
3 660 768 661
3 661 768 769
3 661 769 662
3 662 769 770
3 662 770 663
3 663 770 771
3 664 772 665
3 665 772 773
3 665 773 666
3 666 773 774
3 666 774 667
3 667 774 775
3 667 775 668
3 668 775 776
3 668 776 669
3 669 776 777
3 669 777 670
3 670 777 778
3 670 778 671
3 671 778 779
3 671 779 672
3 672 779 780
3 672 780 673
3 673 780 781
3 673 781 674
3 674 781 782
3 675 783 676
3 676 783 784
3 676 784 677
3 677 784 785
3 677 785 678
3 678 785 786
3 678 786 679
3 679 786 787
3 679 787 680
3 680 787 788
3 680 788 681
3 681 788 789
3 681 789 682
3 682 789 790
3 682 790 683
3 683 790 791
3 683 791 684
3 684 791 792
3 684 792 685
3 685 792 793
3 685 793 686
3 686 793 794
3 686 794 687
3 687 794 795
3 687 795 688
3 688 795 796
3 688 796 689
3 689 796 797
3 689 797 690
3 690 797 798
3 690 798 691
3 691 798 799
3 691 799 692
3 692 799 800
3 692 800 693
3 693 800 801
3 693 801 694
3 694 801 802
3 694 802 695
3 695 802 803
3 695 803 696
3 696 803 804
3 696 804 697
3 697 804 805
3 697 805 698
3 698 805 806
3 698 806 699
3 699 806 807
3 699 807 700
3 700 807 808
3 701 809 702
3 702 809 810
3 702 810 703
3 703 810 811
3 703 811 704
3 704 811 812
3 704 812 705
3 705 812 813
3 705 813 706
3 706 813 814
3 706 814 707
3 707 814 815
3 707 815 708
3 708 815 816
3 708 816 709
3 709 816 817
3 709 817 710
3 710 817 818
3 710 818 711
3 711 818 819
3 711 819 712
3 712 819 820
3 712 820 713
3 713 820 821
3 713 821 714
3 714 821 822
3 714 822 715
3 715 822 823
3 715 823 716
3 716 823 824
3 716 824 717
3 717 824 825
3 717 825 718
3 718 825 826
3 718 826 719
3 719 826 827
3 719 827 720
3 720 827 828
3 720 828 721
3 721 828 829
3 722 830 723
3 723 830 831
3 723 831 724
3 724 831 832
3 724 832 725
3 725 832 833
3 725 833 726
3 726 833 834
3 726 834 727
3 727 834 835
3 727 835 728
3 728 835 836
3 728 836 729
3 729 836 837
3 729 837 730
3 730 837 838
3 730 838 731
3 731 838 839
3 731 839 218
3 732 0 733
3 733 0 840
3 733 840 734
3 734 840 841
3 734 841 735
3 735 841 842
3 736 843 737
3 737 843 844
3 737 844 738
3 738 844 845
3 738 845 739
3 739 845 846
3 739 846 740
3 740 846 847
3 740 847 741
3 741 847 848
3 741 848 742
3 742 848 849
3 743 850 744
3 744 850 851
3 744 851 745
3 745 851 852
3 745 852 746
3 746 852 853
3 746 854 747
3 747 854 855
3 747 855 748
3 748 855 856
3 748 856 749
3 749 856 857
3 749 857 750
3 750 857 858
3 750 858 751
3 751 858 859
3 751 859 752
3 752 859 860
3 752 861 753
3 753 861 862
3 753 862 754
3 754 862 863
3 754 863 755
3 755 863 864
3 755 864 756
3 756 864 865
3 756 865 757
3 757 865 866
3 758 867 759
3 759 867 868
3 759 868 760
3 760 868 869
3 760 869 761
3 761 869 870
3 761 870 762
3 762 870 871
3 762 871 763
3 763 871 872
3 763 872 764
3 764 872 873
3 764 873 765
3 765 873 874
3 765 874 766
3 766 874 875
3 766 875 767
3 767 875 876
3 767 876 768
3 768 876 877
3 768 877 769
3 769 877 878
3 769 878 770
3 770 878 879
3 770 879 771
3 771 879 880
3 772 881 773
3 773 881 882
3 773 882 774
3 774 882 883
3 774 883 775
3 775 883 884
3 775 884 776
3 776 884 885
3 776 885 777
3 777 885 886
3 777 886 778
3 778 886 887
3 778 887 779
3 779 887 888
3 779 888 780
3 780 888 889
3 780 889 781
3 781 889 890
3 781 890 782
3 782 890 891
3 783 892 784
3 784 892 893
3 784 893 785
3 785 893 894
3 785 894 786
3 786 894 895
3 786 895 787
3 787 895 896
3 787 896 788
3 788 896 897
3 788 897 789
3 789 897 898
3 789 898 790
3 790 898 899
3 790 899 791
3 791 899 900
3 791 900 792
3 792 900 901
3 792 901 793
3 793 901 902
3 793 902 794
3 794 902 903
3 794 903 795
3 795 903 904
3 795 904 796
3 796 904 905
3 796 905 797
3 797 905 906
3 797 906 798
3 798 906 907
3 798 907 799
3 799 907 908
3 799 908 800
3 800 908 909
3 800 909 801
3 801 909 910
3 801 910 802
3 802 910 911
3 802 911 803
3 803 911 912
3 803 912 804
3 804 912 913
3 804 913 805
3 805 913 914
3 805 914 806
3 806 914 915
3 806 915 807
3 807 915 916
3 807 916 808
3 808 916 917
3 809 918 810
3 810 918 919
3 810 919 811
3 811 919 920
3 811 920 812
3 812 920 921
3 812 921 813
3 813 921 922
3 813 922 814
3 814 922 923
3 814 923 815
3 815 923 924
3 815 924 816
3 816 924 925
3 816 925 817
3 817 925 926
3 817 926 818
3 818 926 927
3 818 927 819
3 819 927 928
3 819 928 820
3 820 928 929
3 820 929 821
3 821 929 930
3 821 930 822
3 822 930 931
3 822 931 823
3 823 931 932
3 823 932 824
3 824 932 933
3 824 933 825
3 825 933 934
3 825 934 826
3 826 934 935
3 826 935 827
3 827 935 936
3 827 936 828
3 828 936 937
3 828 937 829
3 829 937 938
3 830 939 831
3 831 939 940
3 831 940 832
3 832 940 941
3 832 941 833
3 833 941 942
3 833 942 834
3 834 942 943
3 834 943 835
3 835 943 944
3 835 944 836
3 836 944 945
3 836 945 837
3 837 945 946
3 837 946 838
3 838 946 947
3 838 947 839
3 839 947 948
3 839 948 218
3 840 0 949
3 840 949 841
3 841 949 950
3 841 950 842
3 842 950 951
3 843 951 844
3 844 951 952
3 844 952 845
3 845 952 953
3 845 953 846
3 846 953 954
3 846 954 847
3 847 954 955
3 847 955 848
3 848 955 956
3 848 956 849
3 849 956 957
3 850 957 851
3 851 957 958
3 851 958 852
3 852 958 959
3 852 959 853
3 853 959 960
3 854 961 855
3 855 961 962
3 855 962 856
3 856 962 963
3 856 963 857
3 857 963 964
3 857 964 858
3 858 964 965
3 858 965 859
3 859 965 966
3 859 966 860
3 860 966 967
3 861 968 862
3 862 968 969
3 862 969 863
3 863 969 970
3 863 970 864
3 864 970 971
3 864 971 865
3 865 971 972
3 865 972 866
3 866 972 973
3 867 974 868
3 868 974 975
3 868 975 869
3 869 975 976
3 869 976 870
3 870 976 977
3 870 977 871
3 871 977 978
3 871 978 872
3 872 978 979
3 872 979 873
3 873 979 980
3 873 980 874
3 874 980 981
3 874 981 875
3 875 981 982
3 875 982 876
3 876 982 983
3 876 983 877
3 877 983 984
3 877 984 878
3 878 984 985
3 878 985 879
3 879 985 986
3 879 986 880
3 880 986 987
3 881 988 882
3 882 988 989
3 882 989 883
3 883 989 990
3 883 990 884
3 884 990 991
3 884 991 885
3 885 991 992
3 885 992 886
3 886 992 993
3 886 993 887
3 887 993 994
3 887 994 888
3 888 994 995
3 888 995 889
3 889 995 996
3 889 996 890
3 890 996 997
3 890 997 891
3 891 997 998
3 892 999 893
3 893 999 1000
3 893 1000 894
3 894 1000 1001
3 894 1001 895
3 895 1001 1002
3 895 1002 896
3 896 1002 1003
3 896 1003 897
3 897 1003 1004
3 897 1004 898
3 898 1004 1005
3 898 1005 899
3 899 1005 1006
3 899 1006 900
3 900 1006 1007
3 900 1007 901
3 901 1007 1008
3 901 1008 902
3 902 1008 1009
3 902 1009 903
3 903 1009 1010
3 903 1010 904
3 904 1010 1011
3 904 1011 905
3 905 1011 1012
3 905 1012 906
3 906 1012 1013
3 906 1013 907
3 907 1013 1014
3 907 1014 908
3 908 1014 1015
3 908 1015 909
3 909 1015 1016
3 909 1016 910
3 910 1016 1017
3 910 1017 911
3 911 1017 1018
3 911 1018 912
3 912 1018 1019
3 912 1019 913
3 913 1019 1020
3 913 1020 914
3 914 1020 1021
3 914 1021 915
3 915 1021 1022
3 915 1022 916
3 916 1022 1023
3 916 1023 917
3 917 1023 1024
3 918 1025 919
3 919 1025 1026
3 919 1026 920
3 920 1026 1027
3 920 1027 921
3 921 1027 1028
3 921 1028 922
3 922 1028 1029
3 922 1029 923
3 923 1029 1030
3 923 1030 924
3 924 1030 1031
3 924 1031 925
3 925 1031 1032
3 925 1032 926
3 926 1032 1033
3 926 1033 927
3 927 1033 1034
3 927 1034 928
3 928 1034 1035
3 928 1035 929
3 929 1035 1036
3 929 1036 930
3 930 1036 1037
3 930 1037 931
3 931 1037 1038
3 931 1038 932
3 932 1038 1039
3 932 1039 933
3 933 1039 1040
3 933 1040 934
3 934 1040 1041
3 934 1041 935
3 935 1041 1042
3 935 1042 936
3 936 1042 1043
3 936 1043 937
3 937 1043 1044
3 937 1044 938
3 938 1044 1045
3 939 1046 940
3 940 1046 1047
3 940 1047 941
3 941 1047 1048
3 941 1048 942
3 942 1048 1049
3 942 1049 943
3 943 1049 1050
3 943 1050 944
3 944 1050 1051
3 944 1051 945
3 945 1051 1052
3 945 1052 946
3 946 1052 1053
3 946 1053 947
3 947 1053 1054
3 947 1054 948
3 948 1054 1055
3 948 1055 218
3 949 1 1056
3 949 1056 950
3 950 1056 1057
3 950 1057 951
3 951 1057 1058
3 951 1059 952
3 952 1059 1060
3 952 1060 953
3 953 1060 1061
3 953 1061 954
3 954 1061 1062
3 954 1062 955
3 955 1062 1063
3 955 1063 956
3 956 1063 1064
3 956 1064 957
3 957 1064 1065
3 957 1065 958
3 958 1065 1066
3 958 1066 959
3 959 1066 1067
3 959 1067 960
3 960 1067 1068
3 961 1069 962
3 962 1069 1070
3 962 1070 963
3 963 1070 1071
3 963 1071 964
3 964 1071 1072
3 964 1072 965
3 965 1072 1073
3 965 1073 966
3 966 1073 1074
3 966 1074 967
3 967 1074 1075
3 968 1076 969
3 969 1076 1077
3 969 1077 970
3 970 1077 1078
3 970 1078 971
3 971 1078 1079
3 971 1079 972
3 972 1079 1080
3 972 1080 973
3 973 1080 1081
3 974 1081 975
3 975 1081 1082
3 975 1082 976
3 976 1082 1083
3 976 1083 977
3 977 1083 1084
3 977 1084 978
3 978 1084 1085
3 978 1085 979
3 979 1085 1086
3 979 1086 980
3 980 1086 1087
3 980 1087 981
3 981 1087 1088
3 981 1088 982
3 982 1088 1089
3 982 1089 983
3 983 1089 1090
3 983 1090 984
3 984 1090 1091
3 984 1091 985
3 985 1091 1092
3 985 1092 986
3 986 1092 1093
3 986 1093 987
3 987 1093 1094
3 988 1095 989
3 989 1095 1096
3 989 1096 990
3 990 1096 1097
3 990 1097 991
3 991 1097 1098
3 991 1098 992
3 992 1098 1099
3 992 1099 993
3 993 1099 1100
3 993 1100 994
3 994 1100 1101
3 994 1101 995
3 995 1101 1102
3 995 1102 996
3 996 1102 1103
3 996 1103 997
3 997 1103 1104
3 997 1104 998
3 998 1104 1105
3 999 1106 1000
3 1000 1106 1107
3 1000 1107 1001
3 1001 1107 1108
3 1001 1108 1002
3 1002 1108 1109
3 1002 1109 1003
3 1003 1109 1110
3 1003 1110 1004
3 1004 1110 1111
3 1004 1111 1005
3 1005 1111 1112
3 1005 1112 1006
3 1006 1112 1113
3 1006 1113 1007
3 1007 1113 1114
3 1007 1114 1008
3 1008 1114 1115
3 1008 1115 1009
3 1009 1115 1116
3 1009 1116 1010
3 1010 1116 1117
3 1010 1117 1011
3 1011 1117 1118
3 1011 1118 1012
3 1012 1118 1119
3 1012 1119 1013
3 1013 1119 1120
3 1013 1120 1014
3 1014 1120 1121
3 1014 1121 1015
3 1015 1121 1122
3 1015 1122 1016
3 1016 1122 1123
3 1016 1123 1017
3 1017 1123 1124
3 1017 1124 1018
3 1018 1124 1125
3 1018 1125 1019
3 1019 1125 1126
3 1019 1126 1020
3 1020 1126 1127
3 1020 1127 1021
3 1021 1127 1128
3 1021 1128 1022
3 1022 1128 1129
3 1022 1129 1023
3 1023 1129 1130
3 1023 1130 1024
3 1024 1130 1131
3 1025 1132 1026
3 1026 1132 1133
3 1026 1133 1027
3 1027 1133 1134
3 1027 1134 1028
3 1028 1134 1135
3 1028 1135 1029
3 1029 1135 1136
3 1029 1136 1030
3 1030 1136 1137
3 1030 1137 1031
3 1031 1137 1138
3 1031 1138 1032
3 1032 1138 1139
3 1032 1139 1033
3 1033 1139 1140
3 1033 1140 1034
3 1034 1140 1141
3 1034 1141 1035
3 1035 1141 1142
3 1035 1142 1036
3 1036 1142 1143
3 1036 1143 1037
3 1037 1143 1144
3 1037 1144 1038
3 1038 1144 1145
3 1038 1145 1039
3 1039 1145 1146
3 1039 1146 1040
3 1040 1146 1147
3 1040 1147 1041
3 1041 1147 1148
3 1041 1148 1042
3 1042 1148 1149
3 1042 1149 1043
3 1043 1149 1150
3 1043 1150 1044
3 1044 1150 1151
3 1044 1151 1045
3 1045 1151 1152
3 1046 1153 1047
3 1047 1153 1154
3 1047 1154 1048
3 1048 1154 1155
3 1048 1155 1049
3 1049 1155 1156
3 1049 1156 1050
3 1050 1156 1157
3 1050 1157 1051
3 1051 1157 1158
3 1051 1158 1052
3 1052 1158 1159
3 1052 1159 1053
3 1053 1159 1160
3 1053 1160 1054
3 1054 1160 1161
3 1054 1161 1055
3 1055 1161 1162
3 1055 1162 218
3 1 0 1056
3 1056 0 1163
3 1056 1163 1057
3 1057 1163 1164
3 1057 1164 1058
3 1058 1164 1165
3 1059 1166 1060
3 1060 1166 1167
3 1060 1167 1061
3 1061 1167 1168
3 1061 1168 1062
3 1062 1168 1169
3 1062 1169 1063
3 1063 1169 1170
3 1063 1170 1064
3 1064 1170 1171
3 1064 1171 1065
3 1065 1171 1172
3 1065 1173 1066
3 1066 1173 1174
3 1066 1174 1067
3 1067 1174 1175
3 1067 1175 1068
3 1068 1175 1176
3 1069 1177 1070
3 1070 1177 1178
3 1070 1178 1071
3 1071 1178 1179
3 1071 1179 1072
3 1072 1179 1180
3 1072 1180 1073
3 1073 1180 1181
3 1073 1181 1074
3 1074 1181 1182
3 1074 1182 1075
3 1075 1182 1183
3 1076 1184 1077
3 1077 1184 1185
3 1077 1185 1078
3 1078 1185 1186
3 1078 1186 1079
3 1079 1186 1187
3 1079 1187 1080
3 1080 1187 1188
3 1080 1188 1081
3 1081 1188 1189
3 1081 1189 1082
3 1082 1189 1190
3 1082 1190 1083
3 1083 1190 1191
3 1083 1191 1084
3 1084 1191 1192
3 1084 1192 1085
3 1085 1192 1193
3 1085 1193 1086
3 1086 1193 1194
3 1086 1194 1087
3 1087 1194 1195
3 1087 1195 1088
3 1088 1195 1196
3 1088 1196 1089
3 1089 1196 1197
3 1089 1197 1090
3 1090 1197 1198
3 1090 1198 1091
3 1091 1198 1199
3 1091 1199 1092
3 1092 1199 1200
3 1092 1200 1093
3 1093 1200 1201
3 1093 1201 1094
3 1094 1201 1202
3 1095 1203 1096
3 1096 1203 1204
3 1096 1204 1097
3 1097 1204 1205
3 1097 1205 1098
3 1098 1205 1206
3 1098 1206 1099
3 1099 1206 1207
3 1099 1207 1100
3 1100 1207 1208
3 1100 1208 1101
3 1101 1208 1209
3 1101 1209 1102
3 1102 1209 1210
3 1102 1210 1103
3 1103 1210 1211
3 1103 1211 1104
3 1104 1211 1212
3 1104 1212 1105
3 1105 1212 1213
3 1106 1214 1107
3 1107 1214 1215
3 1107 1215 1108
3 1108 1215 1216
3 1108 1216 1109
3 1109 1216 1217
3 1109 1217 1110
3 1110 1217 1218
3 1110 1218 1111
3 1111 1218 1219
3 1111 1219 1112
3 1112 1219 1220
3 1112 1220 1113
3 1113 1220 1221
3 1113 1221 1114
3 1114 1221 1222
3 1114 1222 1115
3 1115 1222 1223
3 1115 1223 1116
3 1116 1223 1224
3 1116 1224 1117
3 1117 1224 1225
3 1117 1225 1118
3 1118 1225 1226
3 1118 1226 1119
3 1119 1226 1227
3 1119 1227 1120
3 1120 1227 1228
3 1120 1228 1121
3 1121 1228 1229
3 1121 1229 1122
3 1122 1229 1230
3 1122 1230 1123
3 1123 1230 1231
3 1123 1231 1124
3 1124 1231 1232
3 1124 1232 1125
3 1125 1232 1233
3 1125 1233 1126
3 1126 1233 1234
3 1126 1234 1127
3 1127 1234 1235
3 1127 1235 1128
3 1128 1235 1236
3 1128 1236 1129
3 1129 1236 1237
3 1129 1237 1130
3 1130 1237 1238
3 1130 1238 1131
3 1131 1238 1239
3 1132 1240 1133
3 1133 1240 1241
3 1133 1241 1134
3 1134 1241 1242
3 1134 1242 1135
3 1135 1242 1243
3 1135 1243 1136
3 1136 1243 1244
3 1136 1244 1137
3 1137 1244 1245
3 1137 1245 1138
3 1138 1245 1246
3 1138 1246 1139
3 1139 1246 1247
3 1139 1247 1140
3 1140 1247 1248
3 1140 1248 1141
3 1141 1248 1249
3 1141 1249 1142
3 1142 1249 1250
3 1142 1250 1143
3 1143 1250 1251
3 1143 1251 1144
3 1144 1251 1252
3 1144 1252 1145
3 1145 1252 1253
3 1145 1253 1146
3 1146 1253 1254
3 1146 1254 1147
3 1147 1254 1255
3 1147 1255 1148
3 1148 1255 1256
3 1148 1256 1149
3 1149 1256 1257
3 1149 1257 1150
3 1150 1257 1258
3 1150 1258 1151
3 1151 1258 1259
3 1151 1259 1152
3 1152 1259 1260
3 1153 1261 1154
3 1154 1261 1262
3 1154 1262 1155
3 1155 1262 1263
3 1155 1263 1156
3 1156 1263 1264
3 1156 1264 1157
3 1157 1264 1265
3 1157 1265 1158
3 1158 1265 1266
3 1158 1266 1159
3 1159 1266 1267
3 1159 1267 1160
3 1160 1267 1268
3 1160 1268 1161
3 1161 1268 1269
3 1161 1269 1162
3 1162 1269 1270
3 1162 1270 218
3 1163 0 1271
3 1163 1271 1164
3 1164 1271 1272
3 1164 1272 1165
3 1165 1272 1273
3 1166 1274 1167
3 1167 1274 1275
3 1167 1275 1168
3 1168 1275 1276
3 1168 1276 1169
3 1169 1276 1277
3 1169 1277 1170
3 1170 1277 1278
3 1170 1278 1171
3 1171 1278 1279
3 1171 1279 1172
3 1172 1279 1280
3 1173 1280 1174
3 1174 1280 1281
3 1174 1281 1175
3 1175 1281 1282
3 1175 1282 1176
3 1176 1282 1283
3 1177 1284 1178
3 1178 1284 1285
3 1178 1285 1179
3 1179 1285 1286
3 1179 1286 1180
3 1180 1286 1287
3 1180 1287 1181
3 1181 1287 1288
3 1181 1288 1182
3 1182 1288 1289
3 1182 1289 1183
3 1183 1289 1290
3 1184 1291 1185
3 1185 1291 1292
3 1185 1292 1186
3 1186 1292 1293
3 1186 1293 1187
3 1187 1293 1294
3 1187 1294 1188
3 1188 1294 1295
3 1188 1295 1189
3 1189 1295 1296
3 1189 1297 1190
3 1190 1297 1298
3 1190 1298 1191
3 1191 1298 1299
3 1191 1299 1192
3 1192 1299 1300
3 1192 1300 1193
3 1193 1300 1301
3 1193 1301 1194
3 1194 1301 1302
3 1194 1302 1195
3 1195 1302 1303
3 1195 1303 1196
3 1196 1303 1304
3 1196 1304 1197
3 1197 1304 1305
3 1197 1305 1198
3 1198 1305 1306
3 1198 1306 1199
3 1199 1306 1307
3 1199 1307 1200
3 1200 1307 1308
3 1200 1308 1201
3 1201 1308 1309
3 1201 1309 1202
3 1202 1309 1310
3 1203 1311 1204
3 1204 1311 1312
3 1204 1312 1205
3 1205 1312 1313
3 1205 1313 1206
3 1206 1313 1314
3 1206 1314 1207
3 1207 1314 1315
3 1207 1315 1208
3 1208 1315 1316
3 1208 1316 1209
3 1209 1316 1317
3 1209 1317 1210
3 1210 1317 1318
3 1210 1318 1211
3 1211 1318 1319
3 1211 1319 1212
3 1212 1319 1320
3 1212 1320 1213
3 1213 1320 1321
3 1214 1322 1215
3 1215 1322 1323
3 1215 1323 1216
3 1216 1323 1324
3 1216 1324 1217
3 1217 1324 1325
3 1217 1325 1218
3 1218 1325 1326
3 1218 1326 1219
3 1219 1326 1327
3 1219 1327 1220
3 1220 1327 1328
3 1220 1328 1221
3 1221 1328 1329
3 1221 1329 1222
3 1222 1329 1330
3 1222 1330 1223
3 1223 1330 1331
3 1223 1331 1224
3 1224 1331 1332
3 1224 1332 1225
3 1225 1332 1333
3 1225 1333 1226
3 1226 1333 1334
3 1226 1334 1227
3 1227 1334 1335
3 1227 1335 1228
3 1228 1335 1336
3 1228 1336 1229
3 1229 1336 1337
3 1229 1337 1230
3 1230 1337 1338
3 1230 1338 1231
3 1231 1338 1339
3 1231 1339 1232
3 1232 1339 1340
3 1232 1340 1233
3 1233 1340 1341
3 1233 1341 1234
3 1234 1341 1342
3 1234 1342 1235
3 1235 1342 1343
3 1235 1343 1236
3 1236 1343 1344
3 1236 1344 1237
3 1237 1344 1345
3 1237 1345 1238
3 1238 1345 1346
3 1238 1346 1239
3 1239 1346 1347
3 1240 1348 1241
3 1241 1348 1349
3 1241 1349 1242
3 1242 1349 1350
3 1242 1350 1243
3 1243 1350 1351
3 1243 1351 1244
3 1244 1351 1352
3 1244 1352 1245
3 1245 1352 1353
3 1245 1353 1246
3 1246 1353 1354
3 1246 1354 1247
3 1247 1354 1355
3 1247 1355 1248
3 1248 1355 1356
3 1248 1356 1249
3 1249 1356 1357
3 1249 1357 1250
3 1250 1357 1358
3 1250 1358 1251
3 1251 1358 1359
3 1251 1359 1252
3 1252 1359 1360
3 1252 1360 1253
3 1253 1360 1361
3 1253 1361 1254
3 1254 1361 1362
3 1254 1362 1255
3 1255 1362 1363
3 1255 1363 1256
3 1256 1363 1364
3 1256 1364 1257
3 1257 1364 1365
3 1257 1365 1258
3 1258 1365 1366
3 1258 1366 1259
3 1259 1366 1367
3 1259 1367 1260
3 1260 1367 1368
3 1261 1369 1262
3 1262 1369 1370
3 1262 1370 1263
3 1263 1370 1371
3 1263 1371 1264
3 1264 1371 1372
3 1264 1372 1265
3 1265 1372 1373
3 1265 1373 1266
3 1266 1373 1374
3 1266 1374 1267
3 1267 1374 1375
3 1267 1375 1268
3 1268 1375 1376
3 1268 1376 1269
3 1269 1376 1377
3 1269 1377 1270
3 1270 1377 1378
3 1270 1378 218
3 1271 0 1379
3 1271 1379 1272
3 1272 1379 1380
3 1272 1380 1273
3 1273 1380 1381
3 1274 1382 1275
3 1275 1382 1383
3 1275 1383 1276
3 1276 1383 1384
3 1276 1384 1277
3 1277 1384 1385
3 1277 1385 1278
3 1278 1385 1386
3 1278 1386 1279
3 1279 1386 1387
3 1279 1387 1280
3 1280 1387 1388
3 1280 1389 1281
3 1281 1389 1390
3 1281 1390 1282
3 1282 1390 1391
3 1282 1391 1283
3 1283 1391 1392
3 1284 1393 1285
3 1285 1393 1394
3 1285 1394 1286
3 1286 1394 1395
3 1286 1395 1287
3 1287 1395 1396
3 1287 1396 1288
3 1288 1396 1397
3 1288 1397 1289
3 1289 1397 1398
3 1289 1398 1290
3 1290 1398 1399
3 1291 1400 1292
3 1292 1400 1401
3 1292 1401 1293
3 1293 1401 1402
3 1293 1402 1294
3 1294 1402 1403
3 1294 1403 1295
3 1295 1403 1404
3 1295 1404 1296
3 1296 1404 1405
3 1297 1406 1298
3 1298 1406 1407
3 1298 1407 1299
3 1299 1407 1408
3 1299 1408 1300
3 1300 1408 1409
3 1300 1409 1301
3 1301 1409 1410
3 1301 1410 1302
3 1302 1410 1411
3 1302 1411 1303
3 1303 1411 1412
3 1303 1412 1304
3 1304 1412 1413
3 1304 1413 1305
3 1305 1413 1414
3 1305 1414 1306
3 1306 1414 1415
3 1306 1415 1307
3 1307 1415 1416
3 1307 1416 1308
3 1308 1416 1417
3 1308 1417 1309
3 1309 1417 1418
3 1309 1418 1310
3 1310 1418 1419
3 1311 1420 1312
3 1312 1420 1421
3 1312 1421 1313
3 1313 1421 1422
3 1313 1422 1314
3 1314 1422 1423
3 1314 1423 1315
3 1315 1423 1424
3 1315 1424 1316
3 1316 1424 1425
3 1316 1425 1317
3 1317 1425 1426
3 1317 1426 1318
3 1318 1426 1427
3 1318 1427 1319
3 1319 1427 1428
3 1319 1428 1320
3 1320 1428 1429
3 1320 1429 1321
3 1321 1429 1430
3 1322 1431 1323
3 1323 1431 1432
3 1323 1432 1324
3 1324 1432 1433
3 1324 1433 1325
3 1325 1433 1434
3 1325 1434 1326
3 1326 1434 1435
3 1326 1435 1327
3 1327 1435 1436
3 1327 1436 1328
3 1328 1436 1437
3 1328 1437 1329
3 1329 1437 1438
3 1329 1438 1330
3 1330 1438 1439
3 1330 1439 1331
3 1331 1439 1440
3 1331 1440 1332
3 1332 1440 1441
3 1332 1441 1333
3 1333 1441 1442
3 1333 1442 1334
3 1334 1442 1443
3 1334 1443 1335
3 1335 1443 1444
3 1335 1444 1336
3 1336 1444 1445
3 1336 1445 1337
3 1337 1445 1446
3 1337 1446 1338
3 1338 1446 1447
3 1338 1447 1339
3 1339 1447 1448
3 1339 1448 1340
3 1340 1448 1449
3 1340 1449 1341
3 1341 1449 1450
3 1341 1450 1342
3 1342 1450 1451
3 1342 1451 1343
3 1343 1451 1452
3 1343 1452 1344
3 1344 1452 1453
3 1344 1453 1345
3 1345 1453 1454
3 1345 1454 1346
3 1346 1454 1455
3 1346 1455 1347
3 1347 1455 1456
3 1348 1457 1349
3 1349 1457 1458
3 1349 1458 1350
3 1350 1458 1459
3 1350 1459 1351
3 1351 1459 1460
3 1351 1460 1352
3 1352 1460 1461
3 1352 1461 1353
3 1353 1461 1462
3 1353 1462 1354
3 1354 1462 1463
3 1354 1463 1355
3 1355 1463 1464
3 1355 1464 1356
3 1356 1464 1465
3 1356 1465 1357
3 1357 1465 1466
3 1357 1466 1358
3 1358 1466 1467
3 1358 1467 1359
3 1359 1467 1468
3 1359 1468 1360
3 1360 1468 1469
3 1360 1469 1361
3 1361 1469 1470
3 1361 1470 1362
3 1362 1470 1471
3 1362 1471 1363
3 1363 1471 1472
3 1363 1472 1364
3 1364 1472 1473
3 1364 1473 1365
3 1365 1473 1474
3 1365 1474 1366
3 1366 1474 1475
3 1366 1475 1367
3 1367 1475 1476
3 1367 1476 1368
3 1368 1476 1477
3 1369 1478 1370
3 1370 1478 1479
3 1370 1479 1371
3 1371 1479 1480
3 1371 1480 1372
3 1372 1480 1481
3 1372 1481 1373
3 1373 1481 1482
3 1373 1482 1374
3 1374 1482 1483
3 1374 1483 1375
3 1375 1483 1484
3 1375 1484 1376
3 1376 1484 1485
3 1376 1485 1377
3 1377 1485 1486
3 1377 1486 1378
3 1378 1486 1487
3 1378 1487 218
3 1379 0 1488
3 1379 1488 1380
3 1380 1488 1489
3 1380 1489 1381
3 1381 1489 1490
3 1382 1491 1383
3 1383 1491 1492
3 1383 1492 1384
3 1384 1492 1493
3 1384 1493 1385
3 1385 1493 1494
3 1385 1494 1386
3 1386 1494 1495
3 1386 1495 1387
3 1387 1495 1496
3 1387 1496 1388
3 1388 1496 1497
3 1389 1498 1390
3 1390 1498 1499
3 1390 1499 1391
3 1391 1499 1500
3 1391 1500 1392
3 1392 1500 1501
3 1393 1501 1394
3 1394 1501 1502
3 1394 1502 1395
3 1395 1502 1503
3 1395 1503 1396
3 1396 1503 1504
3 1396 1504 1397
3 1397 1504 1505
3 1397 1505 1398
3 1398 1505 1506
3 1398 1506 1399
3 1399 1506 1507
3 1400 1508 1401
3 1401 1508 1509
3 1401 1509 1402
3 1402 1509 1510
3 1402 1510 1403
3 1403 1510 1511
3 1403 1511 1404
3 1404 1511 1512
3 1404 1512 1405
3 1405 1512 1513
3 1406 1514 1407
3 1407 1514 1515
3 1407 1515 1408
3 1408 1515 1516
3 1408 1516 1409
3 1409 1516 1517
3 1409 1517 1410
3 1410 1517 1518
3 1410 1518 1411
3 1411 1518 1519
3 1411 1519 1412
3 1412 1519 1520
3 1412 1520 1413
3 1413 1520 1521
3 1413 1521 1414
3 1414 1521 1522
3 1414 1522 1415
3 1415 1522 1523
3 1415 1523 1416
3 1416 1523 1524
3 1416 1524 1417
3 1417 1524 1525
3 1417 1525 1418
3 1418 1525 1526
3 1418 1526 1419
3 1419 1526 1527
3 1420 1528 1421
3 1421 1528 1529
3 1421 1529 1422
3 1422 1529 1530
3 1422 1530 1423
3 1423 1530 1531
3 1423 1531 1424
3 1424 1531 1532
3 1424 1532 1425
3 1425 1532 1533
3 1425 1533 1426
3 1426 1533 1534
3 1426 1534 1427
3 1427 1534 1535
3 1427 1535 1428
3 1428 1535 1536
3 1428 1536 1429
3 1429 1536 1537
3 1429 1537 1430
3 1430 1537 1538
3 1431 1539 1432
3 1432 1539 1540
3 1432 1540 1433
3 1433 1540 1541
3 1433 1541 1434
3 1434 1541 1542
3 1434 1542 1435
3 1435 1542 1543
3 1435 1543 1436
3 1436 1543 1544
3 1436 1544 1437
3 1437 1544 1545
3 1437 1545 1438
3 1438 1545 1546
3 1438 1546 1439
3 1439 1546 1547
3 1439 1547 1440
3 1440 1547 1548
3 1440 1548 1441
3 1441 1548 1549
3 1441 1549 1442
3 1442 1549 1550
3 1442 1550 1443
3 1443 1550 1551
3 1443 1551 1444
3 1444 1551 1552
3 1444 1552 1445
3 1445 1552 1553
3 1445 1553 1446
3 1446 1553 1554
3 1446 1554 1447
3 1447 1554 1555
3 1447 1555 1448
3 1448 1555 1556
3 1448 1556 1449
3 1449 1556 1557
3 1449 1557 1450
3 1450 1557 1558
3 1450 1558 1451
3 1451 1558 1559
3 1451 1559 1452
3 1452 1559 1560
3 1452 1560 1453
3 1453 1560 1561
3 1453 1561 1454
3 1454 1561 1562
3 1454 1562 1455
3 1455 1562 1563
3 1455 1563 1456
3 1456 1563 1564
3 1457 1565 1458
3 1458 1565 1566
3 1458 1566 1459
3 1459 1566 1567
3 1459 1567 1460
3 1460 1567 1568
3 1460 1568 1461
3 1461 1568 1569
3 1461 1569 1462
3 1462 1569 1570
3 1462 1570 1463
3 1463 1570 1571
3 1463 1571 1464
3 1464 1571 1572
3 1464 1572 1465
3 1465 1572 1573
3 1465 1573 1466
3 1466 1573 1574
3 1466 1574 1467
3 1467 1574 1575
3 1467 1575 1468
3 1468 1575 1576
3 1468 1576 1469
3 1469 1576 1577
3 1469 1577 1470
3 1470 1577 1578
3 1470 1578 1471
3 1471 1578 1579
3 1471 1579 1472
3 1472 1579 1580
3 1472 1580 1473
3 1473 1580 1581
3 1473 1581 1474
3 1474 1581 1582
3 1474 1582 1475
3 1475 1582 1583
3 1475 1583 1476
3 1476 1583 1584
3 1476 1584 1477
3 1477 1584 1585
3 1478 1586 1479
3 1479 1586 1587
3 1479 1587 1480
3 1480 1587 1588
3 1480 1588 1481
3 1481 1588 1589
3 1481 1589 1482
3 1482 1589 1590
3 1482 1590 1483
3 1483 1590 1591
3 1483 1591 1484
3 1484 1591 1592
3 1484 1592 1485
3 1485 1592 1593
3 1485 1593 1486
3 1486 1593 1594
3 1486 1594 1487
3 1487 1594 1595
3 1487 1595 218
3 218 1595 1596
3 1488 0 1597
3 1488 1597 1489
3 1489 1597 1598
3 1489 1598 1490
3 1490 1598 1599
3 1491 1600 1492
3 1492 1600 1601
3 1492 1601 1493
3 1493 1601 1602
3 1493 1602 1494
3 1494 1602 1603
3 1494 1603 1495
3 1495 1603 1604
3 1495 1604 1496
3 1496 1604 1605
3 1496 1605 1497
3 1497 1605 1606
3 1498 1607 1499
3 1499 1607 1608
3 1499 1608 1500
3 1500 1608 1609
3 1500 1609 1501
3 1501 1609 1610
3 1501 1611 1502
3 1502 1611 1612
3 1502 1612 1503
3 1503 1612 1613
3 1503 1613 1504
3 1504 1613 1614
3 1504 1614 1505
3 1505 1614 1615
3 1505 1615 1506
3 1506 1615 1616
3 1506 1616 1507
3 1507 1616 1617
3 1508 1618 1509
3 1509 1618 1619
3 1509 1619 1510
3 1510 1619 1620
3 1510 1620 1511
3 1511 1620 1621
3 1511 1621 1512
3 1512 1621 1622
3 1512 1622 1513
3 1513 1622 1623
3 1514 1624 1515
3 1515 1624 1625
3 1515 1625 1516
3 1516 1625 1626
3 1516 1626 1517
3 1517 1626 1627
3 1517 1627 1518
3 1518 1627 1628
3 1518 1628 1519
3 1519 1628 1629
3 1519 1629 1520
3 1520 1629 1630
3 1520 1630 1521
3 1521 1630 1631
3 1521 1631 1522
3 1522 1631 1632
3 1522 1632 1523
3 1523 1632 1633
3 1523 1633 1524
3 1524 1633 1634
3 1524 1634 1525
3 1525 1634 1635
3 1525 1635 1526
3 1526 1635 1636
3 1526 1636 1527
3 1527 1636 1637
3 1528 1638 1529
3 1529 1638 1639
3 1529 1639 1530
3 1530 1639 1640
3 1530 1640 1531
3 1531 1640 1641
3 1531 1641 1532
3 1532 1641 1642
3 1532 1642 1533
3 1533 1642 1643
3 1533 1643 1534
3 1534 1643 1644
3 1534 1644 1535
3 1535 1644 1645
3 1535 1645 1536
3 1536 1645 1646
3 1536 1646 1537
3 1537 1646 1647
3 1537 1647 1538
3 1538 1647 1648
3 1539 1649 1540
3 1540 1649 1650
3 1540 1650 1541
3 1541 1650 1651
3 1541 1651 1542
3 1542 1651 1652
3 1542 1652 1543
3 1543 1652 1653
3 1543 1653 1544
3 1544 1653 1654
3 1544 1654 1545
3 1545 1654 1655
3 1545 1655 1546
3 1546 1655 1656
3 1546 1656 1547
3 1547 1656 1657
3 1547 1657 1548
3 1548 1657 1658
3 1548 1658 1549
3 1549 1658 1659
3 1549 1659 1550
3 1550 1659 1660
3 1550 1660 1551
3 1551 1660 1661
3 1551 1661 1552
3 1552 1661 1662
3 1552 1662 1553
3 1553 1662 1663
3 1553 1663 1554
3 1554 1663 1664
3 1554 1664 1555
3 1555 1664 1665
3 1555 1665 1556
3 1556 1665 1666
3 1556 1666 1557
3 1557 1666 1667
3 1557 1667 1558
3 1558 1667 1668
3 1558 1668 1559
3 1559 1668 1669
3 1559 1669 1560
3 1560 1669 1670
3 1560 1670 1561
3 1561 1670 1671
3 1561 1671 1562
3 1562 1671 1672
3 1562 1672 1563
3 1563 1672 1673
3 1563 1673 1564
3 1564 1673 1674
3 1565 1675 1566
3 1566 1675 1676
3 1566 1676 1567
3 1567 1676 1677
3 1567 1677 1568
3 1568 1677 1678
3 1568 1678 1569
3 1569 1678 1679
3 1569 1679 1570
3 1570 1679 1680
3 1570 1680 1571
3 1571 1680 1681
3 1571 1681 1572
3 1572 1681 1682
3 1572 1682 1573
3 1573 1682 1683
3 1573 1683 1574
3 1574 1683 1684
3 1574 1684 1575
3 1575 1684 1685
3 1575 1685 1576
3 1576 1685 1686
3 1576 1686 1577
3 1577 1686 1687
3 1577 1687 1578
3 1578 1687 1688
3 1578 1688 1579
3 1579 1688 1689
3 1579 1689 1580
3 1580 1689 1690
3 1580 1690 1581
3 1581 1690 1691
3 1581 1691 1582
3 1582 1691 1692
3 1582 1692 1583
3 1583 1692 1693
3 1583 1693 1584
3 1584 1693 1694
3 1584 1694 1585
3 1585 1694 1695
3 1586 1696 1587
3 1587 1696 1697
3 1587 1697 1588
3 1588 1697 1698
3 1588 1698 1589
3 1589 1698 1699
3 1589 1699 1590
3 1590 1699 1700
3 1590 1700 1591
3 1591 1700 1701
3 1591 1701 1592
3 1592 1701 1702
3 1592 1702 1593
3 1593 1702 1703
3 1593 1703 1594
3 1594 1703 1704
3 1594 1704 1595
3 1595 1704 1705
3 1595 1705 1596
3 1596 1705 1706
3 1597 0 2
3 1597 2 1598
3 1598 2 4
3 1598 4 1599
3 1599 4 6
3 1600 8 1601
3 1601 8 10
3 1601 10 1602
3 1602 10 12
3 1602 12 1603
3 1603 12 14
3 1603 14 1604
3 1604 14 16
3 1604 16 1605
3 1605 16 18
3 1605 18 1606
3 1606 18 20
3 1607 20 1608
3 1608 20 22
3 1608 22 1609
3 1609 22 24
3 1609 24 1610
3 1610 24 26
3 1611 28 1612
3 1612 28 30
3 1612 30 1613
3 1613 30 32
3 1613 32 1614
3 1614 32 34
3 1614 34 1615
3 1615 34 36
3 1615 36 1616
3 1616 36 38
3 1616 38 1617
3 1617 38 40
3 1618 42 1619
3 1619 42 44
3 1619 44 1620
3 1620 44 46
3 1620 46 1621
3 1621 46 48
3 1621 48 1622
3 1622 48 50
3 1622 50 1623
3 1623 50 52
3 1624 54 1625
3 1625 54 56
3 1625 56 1626
3 1626 56 58
3 1626 58 1627
3 1627 58 60
3 1627 60 1628
3 1628 60 62
3 1628 62 1629
3 1629 62 64
3 1629 64 1630
3 1630 64 66
3 1630 66 1631
3 1631 66 68
3 1631 68 1632
3 1632 68 70
3 1632 70 1633
3 1633 70 72
3 1633 72 1634
3 1634 72 74
3 1634 74 1635
3 1635 74 76
3 1635 76 1636
3 1636 76 78
3 1636 78 1637
3 1637 78 80
3 1638 82 1639
3 1639 82 84
3 1639 84 1640
3 1640 84 86
3 1640 86 1641
3 1641 86 88
3 1641 88 1642
3 1642 88 90
3 1642 90 1643
3 1643 90 92
3 1643 92 1644
3 1644 92 94
3 1644 94 1645
3 1645 94 96
3 1645 96 1646
3 1646 96 98
3 1646 98 1647
3 1647 98 100
3 1647 100 1648
3 1648 100 102
3 1649 104 1650
3 1650 104 106
3 1650 106 1651
3 1651 106 108
3 1651 108 1652
3 1652 108 110
3 1652 110 1653
3 1653 110 112
3 1653 112 1654
3 1654 112 114
3 1654 114 1655
3 1655 114 116
3 1655 116 1656
3 1656 116 118
3 1656 118 1657
3 1657 118 120
3 1657 120 1658
3 1658 120 122
3 1658 122 1659
3 1659 122 124
3 1659 124 1660
3 1660 124 126
3 1660 126 1661
3 1661 126 128
3 1661 128 1662
3 1662 128 130
3 1662 130 1663
3 1663 130 132
3 1663 132 1664
3 1664 132 134
3 1664 134 1665
3 1665 134 136
3 1665 136 1666
3 1666 136 138
3 1666 138 1667
3 1667 138 140
3 1667 140 1668
3 1668 140 142
3 1668 142 1669
3 1669 142 144
3 1669 144 1670
3 1670 144 146
3 1670 146 1671
3 1671 146 148
3 1671 148 1672
3 1672 148 150
3 1672 150 1673
3 1673 150 152
3 1673 152 1674
3 1674 152 154
3 1675 156 1676
3 1676 156 158
3 1676 158 1677
3 1677 158 160
3 1677 160 1678
3 1678 160 162
3 1678 162 1679
3 1679 162 164
3 1679 164 1680
3 1680 164 166
3 1680 166 1681
3 1681 166 168
3 1681 168 1682
3 1682 168 170
3 1682 170 1683
3 1683 170 172
3 1683 172 1684
3 1684 172 174
3 1684 174 1685
3 1685 174 176
3 1685 176 1686
3 1686 176 178
3 1686 178 1687
3 1687 178 180
3 1687 180 1688
3 1688 180 182
3 1688 182 1689
3 1689 182 184
3 1689 184 1690
3 1690 184 186
3 1690 186 1691
3 1691 186 188
3 1691 188 1692
3 1692 188 190
3 1692 190 1693
3 1693 190 192
3 1693 192 1694
3 1694 192 194
3 1694 194 1695
3 1695 194 196
3 1696 198 1697
3 1697 198 200
3 1697 200 1698
3 1698 200 202
3 1698 202 1699
3 1699 202 204
3 1699 204 1700
3 1700 204 206
3 1700 206 1701
3 1701 206 208
3 1701 208 1702
3 1702 208 210
3 1702 210 1703
3 1703 210 212
3 1703 212 1704
3 1704 212 214
3 1704 214 1705
3 1705 214 216
3 1705 216 1706
3 1706 216 218
