# vtk DataFile Version 2.0
File written by itkPolyDataMeshIO
ASCII
DATASET POLYDATA
POINTS 1624 float
-135.84386 -18.10189 333.7813
-125.989204 -15.426353 341.82727
-136.36276 -18.598518 334.7007
-148.34972 -17.48603 327.09177
-148.86075 -17.968086 328.0134
-158.40828 -16.280235 321.66592
-158.93161 -16.741936 322.5322
-165.06169 -15.242058 317.81863
-165.60857 -15.685188 318.62665
-169.05952 -14.504707 315.3619
-169.61688 -14.936241 316.1349
-172.47162 -13.824013 313.1926
-173.03108 -14.246269 313.94037
-175.87788 -12.795296 310.5753
-176.49117 -13.20504 311.25314
-179.2727 -11.040657 307.02228
-179.9954 -11.434242 307.57098
-182.45404 -8.709709 302.60648
-183.26166 -9.092537 303.0293
-185.23972 -6.23539 297.6089
-186.09462 -6.617134 297.93033
-187.97917 -3.470711 291.21368
-188.85019 -3.852074 291.45227
-191.92209 0.731941 279.5767
-192.76515 0.363258 279.75134
-197.79231 6.944206 257.65262
-198.55803 6.605873 257.76865
-205.77008 13.354927 221.46954
-206.50287 13.023521 221.5653
-212.3153 19.003807 179.97469
-212.97316 18.704521 180.02612
-215.96072 25.707527 144.45425
-216.60245 25.422768 144.45598
-216.33957 26.502205 118.69869
-216.99188 26.22007 118.672905
-220.42021 20.899315 98.91228
-221.02365 20.706856 99.06128
-234.5192 18.698402 80.17468
-235.04092 18.61065 80.600334
-234.51917 18.698387 80.17472
-235.0409 18.610634 80.60037
-250.12315 21.429756 61.408382
-250.62224 21.353447 61.831795
-257.53442 21.871605 42.81961
-258.1172 21.799263 43.0569
-257.53442 21.871605 42.819645
-258.1172 21.799263 43.05694
-261.61212 16.802452 22.605186
-262.204 16.73481 22.743242
-266.53516 9.859337 -0.15482
-267.07278 9.798332 -0.022213
-266.53516 9.859352 -0.154773
-267.07278 9.798363 -0.022166
-270.79605 2.515923 -23.908295
-271.29327 2.46003 -23.800665
-275.03455 -4.248405 -49.34269
-275.49252 -4.300194 -49.25297
-275.03455 -4.24839 -49.342632
-275.49252 -4.300179 -49.25292
-278.95486 -9.838844 -74.812065
-279.3929 -9.888878 -74.73364
-280.39935 -14.29261 -97.7312
-280.81802 -14.340263 -97.6948
-280.39935 -14.292595 -97.73117
-280.81802 -14.340233 -97.69476
-280.67233 -18.139168 -115.01136
-281.081 -18.185127 -114.99407
-279.95923 -19.945152 -125.30374
-280.34314 -19.989754 -125.34543
-279.95923 -19.945152 -125.303734
-280.34314 -19.989738 -125.34541
-278.1863 -19.434181 -131.06879
-278.53223 -19.47599 -131.18607
-277.05887 -18.617226 -134.73395
-277.38593 -18.656105 -134.8445
-277.05887 -18.617256 -134.73393
-277.38593 -18.656105 -134.84448
-276.491 -18.024864 -136.73088
-276.79047 -18.060051 -136.8294
-276.09247 -17.4878 -138.19714
-276.362 -17.520897 -138.28528
-276.09247 -17.487816 -138.19713
-276.36197 -17.520912 -138.28525
-276.24988 -16.502434 -138.60924
-276.24988 -16.502434 -138.60922
-125.989204 -15.426338 341.82727
-136.67542 -18.725594 335.26907
-149.1636 -18.086357 328.58182
-159.23752 -16.855156 323.0697
-165.92538 -15.793861 319.13116
-169.93839 -15.042046 316.6195
-173.3531 -14.349785 314.41055
-176.84137 -13.305504 311.68704
-180.40475 -11.530739 307.93982
-183.72108 -9.18644 303.33304
-186.58778 -6.710747 298.17667
-189.36002 -3.945564 291.64713
-193.26413 0.272835 279.90213
-199.01625 6.522881 257.87347
-206.94592 12.942268 221.64552
-213.37318 18.631172 180.07239
-216.99222 25.352943 144.47809
-217.38579 26.152306 118.658264
-221.38411 20.68943 99.12049
-235.34233 18.654442 80.8284
-235.34229 18.654442 80.82843
-250.89813 21.402763 62.077145
-258.44232 21.846016 43.194138
-258.44232 21.846016 43.194176
-262.54047 16.778572 22.803293
-267.3806 9.837822 0.030781
-267.3806 9.837837 0.030828
-271.57742 2.496178 -23.760641
-275.7536 -4.266731 -49.21924
-275.75357 -4.266716 -49.219185
-279.64203 -9.856544 -74.702644
-281.05493 -14.309486 -97.685585
-281.05496 -14.309456 -97.68555
-281.3119 -18.155449 -114.99702
-280.56055 -19.960945 -125.37612
-280.56055 -19.96093 -125.37611
-278.72906 -19.448952 -131.24785
-277.57324 -18.630959 -134.89754
-277.57324 -18.630943 -134.89754
-276.96237 -18.0373 -136.87486
-276.51733 -17.501488 -138.32524
-276.51733 -17.501488 -138.32521
-136.95721 -18.724403 335.79102
-149.433 -18.078194 329.10248
-159.50674 -16.847282 323.5641
-166.20224 -15.786324 319.5973
-170.21838 -15.034706 317.06857
-173.6331 -14.342598 314.84705
-177.1439 -13.298561 312.09482
-180.75607 -11.524086 308.29742
-184.11674 -9.179924 303.63922
-187.01733 -6.704247 298.43353
-189.8092 -3.939079 291.85657
-193.70757 0.279106 280.06824
-199.42691 6.528633 257.99115
-207.34604 12.947884 221.73274
-213.73593 18.636238 180.12418
-217.34532 25.35778 144.51198
-217.74109 26.15934 118.645615
-221.70662 20.739754 99.15325
-235.605 18.75924 81.014595
-235.60495 18.759209 81.014626
-251.12979 21.511559 62.291428
-258.7175 21.949226 43.313793
-258.7175 21.949226 43.31383
-262.8298 16.87513 22.841688
-267.6469 9.924919 0.060333
-267.6469 9.92495 0.06038
-271.8228 2.575996 -23.741404
-275.97858 -4.192833 -49.202595
-275.97858 -4.192833 -49.20254
-279.8563 -9.785149 -74.685684
-281.25787 -14.241539 -97.685875
-281.2579 -14.241524 -97.685844
-281.50946 -18.089897 -115.008675
-280.7469 -19.8973 -125.40751
-280.7469 -19.8973 -125.4075
-278.89844 -19.389275 -131.29752
-277.73535 -18.575508 -134.93617
-277.73535 -18.575493 -134.93616
-277.11145 -17.987038 -136.9064
-276.65247 -17.457298 -138.35236
-276.65247 -17.457298 -138.35234
-125.9892 -15.426338 341.8273
-137.23114 -18.617912 336.30707
-149.69159 -17.966469 329.61603
-159.76254 -16.740273 324.0535
-166.46341 -15.683586 320.06064
-170.48169 -14.934669 317.51605
-173.896 -14.244728 315.28275
-177.4261 -13.20359 312.50613
-181.08157 -11.432838 308.66776
-184.48463 -9.091148 303.9662
-187.42126 -6.615776 298.71475
-190.23642 -3.850716 292.09076
-194.1328 0.364586 280.25696
-199.82385 6.607094 258.1265
-207.73557 13.024727 221.83105
-214.09044 18.705605 180.18369
-217.69012 25.42379 144.55762
-218.08669 26.227837 118.63388
-222.0181 20.848259 99.16663
-235.85242 18.919899 81.178375
-235.85239 18.919868 81.178406
-251.33981 21.675392 62.493786
-258.96915 22.104622 43.42658
-258.96912 22.104637 43.426617
-263.0988 17.020454 22.864864
-267.896 10.056038 0.072651
-267.896 10.056068 0.072698
-272.05203 2.696114 -23.737833
-276.18823 -4.081612 -49.198784
-276.18823 -4.081596 -49.19873
-280.05557 -9.677696 -74.67912
-281.4458 -14.139244 -97.693924
-281.4458 -14.139229 -97.69389
-281.69214 -17.991203 -115.028114
-280.91956 -19.801537 -125.44138
-280.91956 -19.801537 -125.44137
-279.05597 -19.299446 -131.34035
-277.887 -18.491982 -134.96544
-277.887 -18.491997 -134.96542
-277.25116 -17.91137 -136.92859
-276.7796 -17.39016 -138.37068
-276.7796 -17.390175 -138.37065
-276.24988 -16.502419 -138.60924
-276.24988 -16.502434 -138.60925
-137.4885 -18.40841 336.80115
-149.93126 -17.754112 330.10648
-159.99684 -16.536873 324.5227
-166.70074 -15.48838 320.50684
-170.72 -14.744591 317.9481
-174.13345 -14.058708 315.7041
-177.67903 -13.023079 312.90826
-181.37099 -11.259422 309.03937
-184.81311 -8.922493 304.3038
-187.78683 -6.447578 299.0116
-190.62822 -3.682701 292.3425
-194.52652 0.527016 280.46252
-200.19469 6.756126 258.27542
-208.10233 13.170738 221.93742
-214.42563 18.837425 180.24911
-218.01587 25.549232 144.61363
-218.41177 26.355888 118.623405
-222.30876 21.011559 99.160164
-236.0769 19.130974 81.31463
-236.07687 19.130974 81.31467
-251.52174 21.888557 62.677876
-259.18945 22.306831 43.52898
-259.18945 22.306847 43.52902
-263.33902 17.209602 22.87224
-268.1201 10.226662 0.0675
-268.1201 10.226692 0.067547
-272.25784 2.852394 -23.749899
-276.37604 -3.936867 -49.20781
-276.37604 -3.936852 -49.207752
-280.2336 -9.537819 -74.68299
-281.61285 -14.006111 -97.70935
-281.61285 -14.006096 -97.70932
-281.8543 -17.862785 -115.05464
-281.07318 -19.676933 -125.47665
-281.07318 -19.676918 -125.47663
-279.19684 -19.18261 -131.37508
-278.02344 -18.383354 -134.98447
-278.02344 -18.383354 -134.98445
-277.37714 -17.81295 -136.94075
-276.89465 -17.302391 -138.3796
-276.89465 -17.302406 -138.37958
-125.98921 -15.426353 341.82724
-137.7211 -18.1025 337.25732
-150.14465 -17.448448 330.55865
-160.2025 -16.244102 324.95718
-166.90695 -15.20739 320.92184
-170.92603 -14.470955 318.3512
-174.3382 -13.790993 316.09796
-177.89497 -12.763237 313.28867
-181.61545 -11.009834 309.40057
-185.09218 -8.679756 304.64142
-188.10294 -6.205528 299.31482
-190.97264 -3.440926 292.60382
-194.87663 0.760796 280.67853
-200.52795 6.970634 258.43317
-208.435 13.380852 222.04846
-214.73112 19.027214 180.31833
-218.31245 25.729805 144.67818
-218.70625 26.539116 118.6145
-222.56941 21.224022 99.134125
-236.27115 19.385155 81.41902
-236.2711 19.38514 81.41906
-251.66972 22.14367 62.83769
-259.37137 22.54882 43.61766
-259.37134 22.54882 43.6177
-263.54272 17.435951 22.863693
-268.31186 10.430855 0.045194
-268.31186 10.430885 0.04524
-272.4336 3.039467 -23.777103
-276.53586 -3.763603 -49.22929
-276.53583 -3.763603 -49.229237
-280.38464 -9.370445 -74.69715
-281.75357 -13.846825 -97.73163
-281.75357 -13.846809 -97.7316
-281.9907 -17.709099 -115.08733
-281.2028 -19.52781 -125.51213
-281.20276 -19.527794 -125.51212
-279.31638 -19.042747 -131.40062
-278.1403 -18.253319 -134.99277
-278.1403 -18.253319 -134.99275
-277.48535 -17.695152 -136.94261
-276.99368 -17.19709 -138.37892
-276.99368 -17.197105 -138.3789
-125.9892 -15.426323 341.8273
-137.9211 -17.710106 337.6604
-150.32492 -17.0597 330.958
-160.37292 -15.871742 325.343
-167.07547 -14.849953 321.29254
-171.0932 -14.122902 318.71252
-174.50374 -13.450447 316.45184
-178.06708 -12.432762 313.63516
-181.80724 -10.692406 309.73978
-185.31297 -8.370995 304.9682
-188.35945 -5.897667 299.61447
-191.25867 -3.133369 292.86618
-195.17194 1.058174 280.89777
-200.813 7.243538 258.5946
-208.72292 13.648155 222.16058
-214.99715 19.268639 180.38914
-218.57037 25.95951 144.74918
-218.96072 26.771355 118.60752
-222.7917 21.476845 99.09006
-236.42924 19.67022 81.489265
-236.42921 19.670204 81.48929
-251.7799 22.428337 62.968372
-259.5099 22.818779 43.689934
-259.5099 22.818794 43.689976
-263.704 17.688469 22.840462
-268.46567 10.658653 0.007584
-268.46567 10.658699 0.007631
-272.57404 3.248161 -23.817522
-276.66306 -3.570335 -49.2617
-276.66302 -3.570335 -49.261646
-280.50433 -9.183708 -74.72048
-281.86404 -13.669106 -97.75953
-281.86404 -13.669075 -97.75951
-282.09744 -17.537636 -115.124596
-281.30463 -19.361427 -125.54645
-281.30463 -19.361427 -125.54644
-279.41116 -18.886711 -131.4165
-278.23407 -18.108238 -134.99059
-278.23407 -18.108253 -134.99059
-277.57248 -17.563744 -136.93472
-277.07355 -17.079369 -138.36917
-277.07355 -17.079384 -138.36916
-125.989204 -15.426323 341.8273
-138.0816 -17.246574 337.99637
-150.46642 -16.602608 331.2916
-160.50284 -15.433937 325.66766
-167.20111 -14.429741 321.6068
-171.21645 -13.713707 319.02023
-174.62506 -13.050011 316.75406
-178.19014 -12.044182 313.93634
-181.94063 -10.31916 310.04562
-185.46886 -8.007957 305.27295
-188.54854 -5.535683 299.90033
-191.4774 -2.771782 293.12064
-195.40315 1.407799 281.11276
-201.04082 7.564369 258.75403
-208.95694 13.962456 222.26985
-215.21521 19.552437 180.459
-218.78145 26.22953 144.82402
-219.16711 27.043602 118.60267
-222.96858 21.757545 99.030754
-236.54681 19.969017 81.524956
-236.54677 19.969032 81.524994
-251.85039 22.725212 63.066116
-259.60226 23.10038 43.743744
-259.60226 23.100365 43.743786
-263.81885 17.95182 22.805153
-268.57742 10.896233 -0.041944
-268.57742 10.896263 -0.041897
-272.6756 3.465782 -23.867807
-276.75433 -3.368782 -49.302296
-276.75433 -3.368782 -49.302242
-280.58966 -8.98896 -74.75087
-281.9416 -13.483742 -97.79105
-281.9416 -13.483727 -97.79102
-282.172 -17.358833 -115.164085
-281.37628 -19.18792 -125.577965
-281.37628 -19.18792 -125.57796
-279.47882 -18.724007 -131.42282
-278.30225 -17.956947 -134.97908
-278.30225 -17.956947 -134.97906
-277.63623 -17.426643 -136.91837
-277.1319 -16.95626 -138.3516
-277.1319 -16.956276 -138.35156
-276.24988 -16.502419 -138.60925
-125.989204 -15.426338 341.8273
-138.19809 -16.736244 338.25464
-150.56598 -16.100945 331.55032
-160.5897 -14.953468 325.92197
-167.2817 -13.968605 321.8556
-171.29373 -13.264656 319.26526
-174.70023 -12.610634 316.99573
-178.26253 -11.617775 314.18292
-182.01419 -9.909554 310.30777
-185.55795 -7.609566 305.54465
-188.66714 -5.138405 300.16153
-191.62451 -2.374931 293.3571
-195.56522 1.791466 281.31482
-201.20596 7.916451 258.90503
-209.1311 14.307381 222.37202
-215.37962 19.863869 180.5251
-218.94017 26.525856 144.89934
-219.32019 27.341682 118.60003
-223.09521 22.051079 98.959724
-236.62059 20.265144 81.52656
-236.62056 20.26513 81.52659
-251.88023 23.017876 63.128086
-259.64685 23.377998 43.777523
-259.64682 23.377998 43.777565
-263.8844 18.21151 22.760437
-268.6442 11.130455 -0.099988
-268.64417 11.130486 -0.099941
-272.7356 3.680382 -23.924644
-276.80746 -3.170067 -49.348385
-276.80743 -3.170052 -49.34833
-280.6385 -8.796944 -74.786224
-281.98438 -13.300972 -97.82432
-281.98438 -13.300957 -97.82428
-282.21265 -17.182487 -115.20358
-281.41605 -19.016823 -125.605225
-281.41608 -19.016823 -125.60522
-279.51767 -18.563545 -131.41992
-278.34308 -17.807747 -134.95949
-278.34308 -17.807762 -134.95947
-277.67487 -17.291496 -136.895
-277.16772 -16.834343 -138.32779
-277.16772 -16.834358 -138.32776
-125.98921 -15.426338 341.8273
-138.26854 -16.21 338.42908
-150.62245 -15.585472 331.72772
-160.63316 -14.45977 326.0994
-167.31735 -13.494728 322.0321
-171.32545 -12.803215 319.44095
-174.72974 -12.159096 317.17004
-178.28532 -11.179573 314.36713
-182.02986 -9.488655 310.51666
-185.58202 -7.200188 305.7722
-188.71585 -4.730202 300.38666
-191.69923 -1.967171 293.56482
-195.65631 2.185753 281.49463
-201.3058 8.278221 259.04044
-209.24208 14.661781 222.46231
-215.48691 20.183891 180.58437
-219.04323 26.830376 144.97119
-219.41704 27.647575 118.59947
-223.16959 22.343697 98.880714
-236.65007 20.549568 81.49547
-236.65002 20.549553 81.49549
-251.87012 23.29795 63.15385
-259.64413 23.643654 43.791073
-259.6441 23.64367 43.791115
-263.9007 18.46 22.707985
-268.6657 11.354622 -0.164501
-268.6657 11.354652 -0.164454
-272.75388 3.885735 -23.98614
-276.82227 -2.979866 -49.398434
-276.82227 -2.979866 -49.398384
-280.65082 -8.613182 -74.825356
-281.99252 -13.126091 -97.85825
-281.99255 -13.12606 -97.858215
-282.2196 -17.013771 -115.24189
-281.424 -18.853142 -125.62757
-281.424 -18.853127 -125.627556
-279.52765 -18.410011 -131.40826
-278.35635 -17.665031 -134.93266
-278.35635 -17.665047 -134.93266
-277.6882 -17.162193 -136.86557
-277.18155 -16.716911 -138.2988
-277.18152 -16.716911 -138.29877
-138.29343 -15.693932 338.51822
-150.63553 -15.082634 331.81973
-160.6335 -13.978172 326.19553
-167.30887 -13.032463 322.13177
-171.3126 -12.353065 319.54242
-174.71475 -11.718636 317.27222
-178.26025 -10.752129 314.48346
-181.99016 -9.078056 310.66504
-185.54362 -6.80085 305.94678
-188.6962 -4.332039 300.5666
-191.70198 -1.569405 293.73523
-195.676 2.570351 281.6444
-201.33919 8.631096 259.1545
-209.288 15.007439 222.537
-215.53506 20.49607 180.63422
-219.08873 27.127388 145.03609
-219.45615 27.945854 118.60083
-223.19266 22.627724 98.79695
-236.63847 20.824028 81.43431
-236.63844 20.824013 81.43434
-251.82301 23.568016 63.146297
-259.59778 23.899834 43.78602
-259.59778 23.899849 43.78606
-263.87152 18.699623 22.648129
-268.6456 11.570778 -0.235347
-268.6456 11.570824 -0.235299
-272.7337 4.083763 -24.052273
-276.80176 -2.796486 -49.452404
-276.80173 -2.796471 -49.45235
-280.62952 -8.435966 -74.868195
-281.96875 -12.957436 -97.89304
-281.96878 -12.957405 -97.893005
-282.19543 -16.851082 -115.27936
-281.40265 -18.695244 -125.64552
-281.40265 -18.695229 -125.645515
-279.51102 -18.26197 -131.38844
-278.34427 -17.527397 -134.89905
-277.67825 -17.037483 -136.8304
-277.17505 -16.60305 -138.26486
-277.17505 -16.60305 -138.26485
-125.989204 -15.426338 341.82724
-138.27539 -15.197395 338.5262
-150.60683 -14.601631 331.82806
-160.59256 -13.51754 326.21185
-167.25829 -12.59034 322.15585
-171.25735 -11.922508 319.5709
-174.65747 -11.297356 317.30325
-178.18985 -10.343285 314.53256
-181.89822 -8.685341 310.7524
-185.44612 -6.418877 306.06717
-188.6115 -3.951134 300.69974
-191.63576 -1.188942 293.8665
-195.6269 2.938179 281.76257
-201.30827 8.968651 259.2458
-209.2707 15.338127 222.59518
-215.52563 20.79467 180.67407
-219.07826 27.411522 145.09312
-219.43932 28.23133 118.603935
-223.16751 22.902443 98.70968
-236.5897 21.093147 81.345535
-236.58968 21.093132 81.34557
-251.74207 23.833244 63.108833
-259.51154 24.151405 43.76422
-259.51154 24.151405 43.76426
-263.8012 18.934944 22.580664
-268.5879 11.783104 -0.312953
-268.5879 11.783134 -0.312906
-272.6788 4.278221 -24.123556
-276.74933 -2.616402 -49.51074
-276.74933 -2.616402 -49.51069
-280.57773 -8.261971 -74.91499
-281.916 -12.791817 -97.92908
-281.916 -12.791801 -97.92905
-282.143 -16.691307 -115.3166
-281.35474 -18.54023 -125.659775
-281.35474 -18.54023 -125.65976
-279.47037 -18.1166 -131.36096
-278.30933 -17.392204 -134.8588
-278.30933 -17.39222 -134.8588
-277.64734 -16.914986 -136.78955
-277.1497 -16.490685 -138.22581
-277.1497 -16.490685 -138.2258
-125.989204 -15.426323 341.82727
-138.21767 -14.714333 338.45963
-150.53955 -14.135887 331.76025
-160.51344 -13.07151 326.15555
-167.16873 -12.162254 322.11118
-171.16281 -11.505638 319.533
-174.56094 -10.889458 317.26962
-178.07726 -9.947441 314.5206
-181.75766 -8.305077 310.78503
-185.29366 -6.049019 306.13943
-188.46654 -3.582359 300.79153
-191.50583 -0.820564 293.9634
-195.51443 3.29438 281.85306
-201.21823 9.295494 259.31723
-209.1954 15.658302 222.63898
-215.46346 21.083824 180.7052
-219.01651 27.686623 145.14354
-219.37114 28.507866 118.6087
-223.09732 23.170982 98.61795
-236.50513 21.359322 81.229576
-236.50508 21.359291 81.22961
-251.62816 24.095833 63.042408
-259.38654 24.400475 43.726215
-259.38654 24.400505 43.726257
-263.691 19.16793 22.50545
-268.49374 11.993294 -0.397611
-268.4937 11.993309 -0.397564
-272.59027 4.470757 -24.200308
-276.66602 -2.438118 -49.573654
-276.66602 -2.438103 -49.5736
-280.49643 -8.089714 -74.96592
-281.83508 -12.627846 -97.96661
-281.83508 -12.627815 -97.966576
-282.06317 -16.533073 -115.353966
-281.281 -18.386696 -125.670685
-279.40643 -17.972633 -131.32602
-278.25226 -17.25837 -134.81197
-278.25226 -17.25837 -134.81195
-277.5961 -16.793694 -136.74294
-277.1051 -16.379005 -138.18137
-277.1051 -16.379005 -138.18135
-125.9892 -15.426323 341.82727
-138.12192 -14.23661 338.3221
-150.43674 -13.67675 331.623
-160.39897 -12.631767 326.03333
-167.04292 -11.74015 322.00427
-171.03166 -11.094627 319.43503
-174.42781 -10.487297 317.1776
-177.92523 -9.557167 314.45392
-181.5714 -7.930214 310.7691
-185.0897 -5.684395 306.16956
-188.26541 -3.218788 300.84766
-191.31693 -0.457359 294.0309
-195.34355 3.645576 281.92014
-201.07394 9.61776 259.37204
-209.06712 15.973976 222.6705
-215.35318 21.368904 180.72897
-218.90793 27.957878 145.18883
-219.25581 28.780449 118.615005
-222.98254 23.4347 98.51975
-236.3813 21.619453 81.083824
-236.38127 21.619438 81.08386
-251.47809 24.352364 62.943893
-259.21896 24.643806 43.67026
-259.21893 24.643822 43.670303
-263.53674 19.395546 22.422306
-268.3593 12.198601 -0.489305
-268.3593 12.198647 -0.489258
-272.46457 4.658882 -24.282389
-276.54852 -2.263924 -49.64106
-276.54852 -2.263908 -49.641006
-280.3825 -7.921425 -75.020966
-281.72318 -12.467674 -98.0054
-281.72318 -12.467659 -98.00536
-281.95306 -16.378563 -115.390976
-281.17877 -18.236732 -125.6776
-281.17877 -18.236732 -125.67758
-279.31665 -17.831963 -131.28297
-278.17062 -17.127586 -134.75815
-278.17062 -17.127586 -134.75813
-277.5223 -16.675194 -136.69032
-277.03873 -16.269691 -138.13121
-277.03873 -16.269691 -138.13118
-137.98619 -13.763924 338.1102
-150.29813 -13.223076 331.4159
-160.24886 -12.197289 325.84473
-166.88052 -11.323158 321.83466
-170.86351 -10.688591 319.27658
-174.25769 -10.089958 317.02682
-177.73335 -9.171577 314.33215
-181.33894 -7.559837 310.70447
-184.83365 -5.324165 306.15756
-188.00752 -2.859581 300.86813
-191.06845 -0.098534 294.06918
-195.11374 3.992546 281.96384
-200.87492 9.936134 259.41016
-208.88539 16.285866 222.68979
-215.1944 21.65055 180.74545
-218.75212 28.225838 145.22903
-219.09277 29.049583 118.62274
-222.81993 23.691505 98.41379
-236.21268 21.868248 80.90451
-236.21265 21.868217 80.90455
-251.28699 24.597252 62.808365
-259.00287 24.876076 43.59362
-259.00284 24.876091 43.59366
-263.332 19.61277 22.331017
-268.17856 12.394569 -0.587919
-268.17856 12.3946 -0.587872
-272.29614 4.838402 -24.369505
-276.3918 -2.097664 -49.712715
-276.39178 -2.097664 -49.71266
-280.2312 -7.76075 -75.08004
-281.57574 -12.314766 -98.04502
-281.57574 -12.314751 -98.04499
-281.80838 -16.231041 -115.42695
-281.04398 -18.09359 -125.67956
-281.04398 -18.09359 -125.67954
-279.19733 -17.697731 -131.23087
-278.0608 -17.0028 -134.69676
-278.0608 -17.002815 -134.69675
-277.42267 -16.562141 -136.63135
-276.94714 -16.165855 -138.07518
-276.94714 -16.16587 -138.07516
-137.80537 -13.305107 337.81384
-150.1198 -12.781914 331.13058
-160.05934 -11.774834 325.58163
-166.67778 -10.917671 321.5946
-170.6547 -10.293755 319.0502
-174.04698 -9.703621 316.80988
-177.49779 -8.796654 314.1481
-181.056 -7.199669 310.58417
-184.52058 -4.973839 306.09683
-187.68726 -2.510277 300.847
-190.7542 0.25042 294.073
-194.81859 4.329933 281.97992
-200.61508 10.245705 259.42856
-208.64412 16.589104 222.69464
-214.98148 21.924385 180.7532
-218.54364 28.486412 145.26282
-218.8766 29.311058 118.63208
-222.60349 23.936485 98.299934
-235.99324 22.09977 80.68782
-235.9932 22.09977 80.68785
-251.04982 24.824577 62.630714
-258.7322 25.091698 43.49346
-258.7322 25.091713 43.493504
-263.07013 19.81446 22.23138
-267.94534 12.5765 -0.693311
-267.94534 12.57653 -0.693264
-272.0793 5.005089 -24.461306
-276.1907 -1.943291 -49.78841
-276.19067 -1.943275 -49.788357
-280.0376 -7.611595 -75.14306
-281.38818 -12.172783 -98.085106
-281.38818 -12.172768 -98.08507
-281.62463 -16.094093 -115.46118
-280.87234 -17.960716 -125.67565
-280.87238 -17.960716 -125.67564
-279.0446 -17.573158 -131.16876
-277.91904 -16.886955 -134.62738
-277.91904 -16.88697 -134.62737
-277.29364 -16.457191 -136.56572
-276.8271 -16.071754 -138.0136
-276.8271 -16.071754 -138.01358
-137.57367 -12.875114 337.42084
-149.89658 -12.363503 330.75558
-159.8255 -11.374138 325.2331
-166.42986 -10.533073 321.2736
-170.40034 -9.919243 318.74564
-173.79085 -9.337166 316.5168
-177.2135 -8.441002 313.892
-180.71692 -6.858055 310.39868
-184.14406 -4.641579 305.9783
-187.29713 -2.178978 300.77585
-190.3659 0.581398 294.03503
-194.44963 4.649925 281.96225
-200.28625 10.53936 259.42273
-208.33505 16.876732 222.68196
-214.7068 22.184105 180.75032
-218.27513 28.733528 145.28824
-218.59996 29.55877 118.643166
-222.326 24.162758 98.17879
-235.71686 22.306068 80.430374
-235.71683 22.306053 80.430405
-250.76186 25.026314 62.40587
-258.40115 25.283058 43.366943
-258.40115 25.283073 43.366985
-262.7447 19.993477 22.123604
-267.6535 12.737984 -0.804809
-267.6535 12.738014 -0.804762
-271.8085 5.153008 -24.556957
-275.94012 -1.806297 -49.86747
-275.9401 -1.806297 -49.867416
-279.79688 -7.47924 -75.20955
-281.15604 -12.046837 -98.12491
-281.15604 -12.046822 -98.12487
-281.39746 -15.972618 -115.49265
-280.65976 -17.842827 -125.66472
-280.65976 -17.842812 -125.664696
-278.8546 -17.462563 -131.09583
-277.7416 -16.784157 -134.54965
-277.1318 -16.364082 -136.49333
-276.67712 -15.993385 -137.94771
-276.67712 -15.993401 -137.9477
-137.28683 -12.493568 336.92194
-149.62323 -11.978096 330.27963
-159.5424 -11.004982 324.78812
-166.13184 -10.178749 320.86108
-170.09558 -9.574165 318.3525
-173.4844 -8.999504 316.13745
-176.87543 -8.113335 313.55405
-180.31604 -6.543327 310.13852
-183.69754 -4.335442 305.79276
-186.82968 -1.873711 300.64648
-189.8953 0.886269 293.94812
-193.99832 4.944725 281.90488
-199.88022 10.809853 259.3882
-207.9499 17.141747 222.64867
-214.36273 22.423409 180.73486
-217.93915 28.961235 145.3034
-218.25545 29.785637 118.656525
-221.97978 24.343102 98.05759
-235.37984 22.434334 80.13857
-235.3798 22.434334 80.13861
-250.42654 25.147804 62.13005
-258.01196 25.398308 43.21215
-258.01193 25.398308 43.212193
-262.35416 20.101265 22.018301
-267.30048 12.835197 -0.9095
-267.30048 12.835243 -0.909453
-271.48163 5.242073 -24.644222
-275.63852 -1.723839 -49.93987
-275.63852 -1.723824 -49.939816
-279.50793 -7.399559 -75.271675
-280.87897 -11.971016 -98.157745
-280.87897 -11.971001 -98.157715
-281.12677 -15.899452 -115.51386
-280.40582 -17.771812 -125.64255
-280.40582 -17.771797 -125.64253
-278.62646 -17.395958 -131.01466
-277.5269 -16.722237 -134.46918
-277.5269 -16.722252 -134.46918
-276.9355 -16.307991 -136.42024
-276.49942 -15.94973 -137.88351
-276.49942 -15.949745 -137.88348
-276.24988 -16.502449 -138.60922
-125.98921 -15.426369 341.8272
-136.94574 -12.184441 336.31662
-149.62323 -11.978081 330.27963
-149.29485 -11.63755 329.69144
-159.5424 -11.004967 324.78812
-159.20532 -10.678642 324.23584
-166.13182 -10.178734 320.8611
-165.77907 -9.865517 320.34665
-170.09558 -9.57415 318.35254
-169.73582 -9.269157 317.86075
-173.12314 -8.701073 315.6619
-176.87541 -8.113335 313.55405
-176.47888 -7.823753 313.12442
-179.84819 -6.26516 309.79398
-183.69754 -4.335426 305.79276
-183.17508 -4.064888 305.5309
-186.27786 -1.603935 300.45026
-189.89528 0.886299 293.94812
-189.33446 1.155754 293.80463
-193.99832 4.94474 281.90485
-193.45651 5.205269 281.80133
-199.8802 10.809868 259.3882
-199.38904 11.048973 259.32034
-207.9499 17.141762 222.64867
-207.4807 17.376 222.59143
-214.36273 22.423424 180.73488
-213.9419 22.634956 180.70471
-217.93915 28.96125 145.3034
-217.52855 29.162514 145.30621
-218.25543 29.785637 118.656525
-217.83673 29.9831 118.67334
-221.97978 24.343117 98.057594
-221.57379 24.43917 97.95884
-235.37984 22.434334 80.13858
-235.0133 22.408684 79.85249
-235.3798 22.434334 80.13862
-235.01328 22.408669 79.85252
-250.42654 25.147804 62.130054
-250.0852 25.110466 61.82941
-258.01196 25.398308 43.212154
-257.6105 25.362877 43.043934
-257.61047 25.362877 43.043976
-262.35416 20.10128 22.018303
-261.9403 20.068108 21.939804
-267.30048 12.835228 -0.9095
-266.92242 12.805305 -0.980348
-267.30048 12.835258 -0.909453
-266.92242 12.805336 -0.9803
-271.48163 5.242088 -24.644222
-271.1325 5.214699 -24.698786
-275.31763 -1.749184 -49.985687
-275.3176 -1.749168 -49.985634
-279.50793 -7.399544 -75.271675
-279.20154 -7.424049 -75.31322
-280.87897 -11.971001 -98.157745
-280.58728 -11.994331 -98.171974
-280.87897 -11.97097 -98.157715
-280.58728 -11.994301 -98.17195
-281.12677 -15.899437 -115.51386
-280.84238 -15.921928 -115.513466
-280.13815 -17.793617 -125.606544
-280.40582 -17.771797 -125.64254
-280.13818 -17.793617 -125.60653
-278.3844 -17.416435 -130.9374
-277.2968 -16.741295 -134.40144
-277.2968 -16.74131 -134.40143
-276.9355 -16.307991 -136.42026
-276.72443 -16.325249 -136.36168
-276.49942 -15.94973 -137.88353
-276.3107 -15.964745 -137.83257
-276.49942 -15.94973 -137.8835
-276.3107 -15.96476 -137.83253
-125.98921 -15.426338 341.82724
-136.94574 -12.184425 336.31665
-136.56874 -12.049538 335.6301
-149.29483 -11.63755 329.69147
-148.92694 -11.47155 329.00397
-159.20532 -10.678642 324.23587
-158.83315 -10.519508 323.58618
-165.77907 -9.865517 320.34668
-165.39323 -9.712761 319.73727
-169.73582 -9.269142 317.8608
-169.34407 -9.120399 317.27563
-173.12314 -8.701073 315.66196
-172.73062 -8.55555 315.09442
-176.47887 -7.823738 313.12442
-176.05164 -7.682503 312.60168
-179.84818 -6.265144 309.79398
-179.34831 -6.129463 309.35184
-183.17508 -4.064873 305.5309
-182.61438 -3.932915 305.16913
-186.27786 -1.60392 300.45026
-185.67696 -1.472328 300.15857
-189.33446 1.155785 293.80466
-188.71425 1.287254 293.5752
-193.45651 5.205315 281.80136
-192.85027 5.332405 281.62457
-199.38904 11.049004 259.32034
-198.83298 11.165611 259.19785
-207.4807 17.37603 222.59145
-206.94365 17.490273 222.49715
-213.94191 22.634972 180.70473
-213.45732 22.738152 180.65068
-217.52856 29.162529 145.30623
-217.05634 29.260689 145.28224
-217.83673 29.983116 118.67335
-217.35968 30.076118 118.692505
-221.57379 24.439186 97.95885
-221.14583 24.41674 97.9091
-235.0133 22.408714 79.8525
-234.6749 22.244057 79.61825
-235.01328 22.408699 79.85254
-234.67487 22.244026 79.61828
-250.0852 25.110481 61.829426
-249.79237 24.933846 61.55367
-257.6105 25.362892 43.04394
-257.26135 25.19535 42.890076
-257.61047 25.362892 43.04398
-257.26132 25.19535 42.890118
-261.57056 19.9114 21.898226
-266.92242 12.805321 -0.980348
-266.58118 12.663933 -1.009019
-266.92242 12.805351 -0.980301
-266.58118 12.663979 -1.008972
-271.1325 5.214699 -24.698788
-270.8182 5.085213 -24.714796
-275.31763 -1.749184 -49.98569
-275.02975 -1.869102 -49.99997
-275.3176 -1.749168 -49.985638
-275.02975 -1.869087 -49.999916
-279.20154 -7.424049 -75.313225
-278.92767 -7.53994 -75.3294
-280.58728 -11.994316 -98.17198
-280.32837 -12.104622 -98.16697
-280.32837 -12.104607 -98.16694
-280.84238 -15.921913 -115.513466
-280.59045 -16.028328 -115.49344
-280.13818 -17.793587 -125.60656
-279.90033 -17.896858 -125.56365
-280.13818 -17.793587 -125.606544
-279.90033 -17.896858 -125.563644
-278.3844 -17.41642 -130.93741
-278.16788 -17.513237 -130.87596
-277.29684 -16.74128 -134.40146
-277.0891 -16.831276 -134.3561
-277.29684 -16.741295 -134.40144
-277.0891 -16.831291 -134.35608
-276.72443 -16.325233 -136.3617
-276.53326 -16.406746 -136.32565
-276.31073 -15.964729 -137.83258
-276.13705 -16.03202 -137.80067
-276.3107 -15.964745 -137.83255
-276.13705 -16.032036 -137.80066
-136.20024 -12.200371 334.93497
-148.57253 -11.637733 328.29834
-158.48288 -10.678749 322.91348
-165.03578 -9.865623 319.1002
-168.98384 -9.269234 316.6602
-172.37106 -8.701164 314.49515
-175.66592 -7.82383 312.0354
-178.90367 -6.265221 308.84085
-182.11165 -4.064964 304.71686
-185.12437 -1.604012 299.76883
-188.1292 1.155739 293.25006
-192.26746 5.205254 281.3622
-198.28853 11.048943 259.0095
-206.40904 17.375984 222.3606
-212.97061 22.634926 180.56787
-216.58295 29.162468 145.218
-216.88666 29.974846 118.70929
-220.74493 24.267464 97.90907
-234.38771 22.031776 79.43669
-234.38766 22.031761 79.43673
-249.55548 24.71801 61.321587
-256.97644 24.990623 42.760807
-256.97644 24.990623 42.760845
-261.26398 19.719917 21.877584
-266.2966 12.491219 -1.01604
-266.29657 12.491234 -1.015993
-270.5565 4.926964 -24.712225
-274.79056 -2.015633 -49.998913
-274.79056 -2.015617 -49.99886
-278.70056 -7.681511 -75.332664
-280.11456 -12.239388 -98.15422
-280.11456 -12.239357 -98.15419
-280.3827 -16.158318 -115.46729
-279.70383 -18.023033 -125.52285
-279.70386 -18.023018 -125.522835
-277.98828 -17.631569 -130.82866
-276.91586 -16.941261 -134.3258
-276.91586 -16.941277 -134.32579
-276.37354 -16.506401 -136.30367
-275.99 -16.120155 -137.78246
-275.99 -16.12017 -137.78242
-135.88385 -12.511986 334.32297
-148.27815 -11.963631 327.6873
-158.19675 -10.99099 322.3278
-164.7471 -10.165321 318.54218
-168.69455 -9.561073 316.1192
-172.08315 -8.986717 313.96713
-175.36043 -8.100945 311.52896
-178.55556 -6.53141 308.3674
-181.71564 -4.323845 304.28143
-184.68056 -1.862175 299.38235
-187.65039 0.89785 292.92007
-191.78407 4.95591 281.0913
-197.8313 10.820137 258.81256
-205.95512 17.151833 222.22086
-212.55495 22.432533 180.4814
-216.17917 28.969887 145.141
-216.48553 29.780159 118.72216
-220.40797 24.056465 97.93384
-234.15273 21.794899 79.30043
-234.15268 21.794868 79.30047
-249.36977 24.48153 61.13132
-256.75095 24.766289 42.65503
-256.75092 24.766304 42.655067
-261.01685 19.510094 21.873415
-266.0657 12.301949 -1.006609
-266.0657 12.301979 -1.006563
-270.34448 4.753532 -24.695908
-274.59723 -2.176247 -49.986446
-274.5972 -2.176231 -49.986393
-278.51736 -7.836678 -75.32616
-279.9429 -12.387047 -98.1362
-279.94293 -12.387016 -98.13617
-280.21613 -16.300789 -115.43761
-279.54596 -18.161247 -125.48525
-279.546 -18.161247 -125.48524
-277.84338 -17.761192 -130.79382
-276.7752 -17.061806 -134.30804
-276.7752 -17.06179 -134.30803
-276.24362 -16.615593 -136.29306
-275.87085 -16.219826 -137.77565
-275.87085 -16.219841 -137.77562
-135.62901 -12.898994 333.8188
-148.27815 -11.963661 327.6873
-148.04442 -12.347572 327.18546
-158.19675 -10.991005 322.32776
-157.97272 -11.358696 321.8448
-164.52333 -10.518272 318.07996
-168.69455 -9.561089 316.1192
-168.47144 -9.904778 315.66977
-172.08315 -8.986732 313.9671
-171.86163 -9.323021 313.52765
-175.36043 -8.10096 311.52896
-175.12773 -8.427284 311.10272
-178.55556 -6.531425 308.3674
-178.29327 -6.844872 307.95886
-181.71564 -4.32386 304.2814
-181.41553 -4.628746 303.8959
-184.68056 -1.86219 299.38235
-184.33823 -2.166191 299.03387
-187.65039 0.897835 292.92004
-187.27496 0.594124 292.61816
-191.40076 4.662224 280.84088
-197.46492 10.550621 258.6292
-205.58812 16.887825 222.09238
-212.21733 22.19416 180.40096
-216.17917 28.969887 145.14099
-215.8515 28.74311 145.0641
-216.48553 29.780144 118.72216
-216.16147 29.55146 118.731735
-220.40797 24.05645 97.93383
-220.1352 23.819878 97.971985
-234.15273 21.794884 79.30043
-233.96521 21.542107 79.20335
-234.15268 21.794853 79.30047
-233.96516 21.542107 79.20338
-249.22948 24.230324 60.978672
-256.75095 24.766289 42.655025
-256.5782 24.528023 42.57036
-256.75092 24.766304 42.655064
-256.5782 24.528038 42.570396
-261.01685 19.510078 21.873413
-260.82275 19.287209 21.883219
-265.8828 12.100868 -0.983359
-266.0657 12.301979 -1.006562
-265.8828 12.100914 -0.983312
-270.34448 4.753548 -24.695908
-270.177 4.569374 -24.6681
-274.59723 -2.176247 -49.986443
-274.44492 -2.346825 -49.964466
-274.59723 -2.176231 -49.98639
-274.44492 -2.346809 -49.964413
-278.51736 -7.836693 -75.32615
-278.37347 -8.001503 -75.31149
-279.80893 -12.543892 -98.11397
-279.94293 -12.387016 -98.13616
-279.80893 -12.543877 -98.11393
-280.21613 -16.300774 -115.43761
-280.08633 -16.452126 -115.40531
-279.54596 -18.161247 -125.485245
-279.42264 -18.308128 -125.45082
-279.54596 -18.161232 -125.48523
-279.42264 -18.308128 -125.4508
-277.7295 -17.898918 -130.76993
-276.66382 -17.189842 -134.301
-276.7752 -17.061806 -134.30803
-276.6638 -17.189842 -134.30098
-276.24362 -16.615608 -136.29306
-276.14038 -16.73162 -136.29225
-275.87085 -16.219841 -137.77563
-275.7774 -16.326256 -137.77827
-275.7774 -16.326271 -137.77824
-135.62901 -12.89901 333.8188
-135.43283 -13.328178 333.4197
-147.86462 -12.764854 326.7833
-157.80347 -11.758354 321.45575
-164.52333 -10.518272 318.08
-164.35654 -10.901848 317.70575
-168.30623 -10.278297 315.30478
-171.69817 -9.688484 313.17
-175.12773 -8.427299 311.10272
-174.9584 -8.781975 310.75146
-178.29327 -6.844872 307.95892
-178.10532 -7.185585 307.6129
-181.41553 -4.628746 303.89597
-181.19867 -4.960152 303.56067
-184.33823 -2.166191 299.0339
-184.08473 -2.49662 298.7252
-186.99081 0.26403 292.34705
-191.40076 4.662239 280.8409
-191.10632 4.343086 280.6139
-197.46492 10.550636 258.6292
-197.17984 10.25779 258.4619
-205.58812 16.887825 222.09239
-205.29941 16.60096 221.97643
-211.95018 21.935066 180.32759
-215.85152 28.74311 145.0641
-215.59258 28.496605 144.98962
-215.9067 29.303154 118.73857
-219.9199 23.568428 98.01987
-233.81972 21.279839 79.140045
-233.81967 21.279839 79.14008
-249.1289 23.970268 60.85937
-256.45172 24.281364 42.504356
-256.5782 24.528038 42.5704
-256.45172 24.281364 42.504395
-260.67554 19.05648 21.904459
-265.8828 12.100868 -0.98336
-265.7424 11.892754 -0.948969
-265.7424 11.892784 -0.948922
-270.177 4.569374 -24.668102
-270.04877 4.378685 -24.63115
-274.44492 -2.346809 -49.964466
-274.3288 -2.523384 -49.93484
-274.44492 -2.346794 -49.964413
-274.3288 -2.523369 -49.934788
-278.2642 -8.172081 -75.290184
-279.70807 -12.706276 -98.08848
-279.80896 -12.543861 -98.11393
-279.70807 -12.706261 -98.08845
-279.9889 -16.608788 -115.37128
-279.32965 -18.460152 -125.4195
-279.32965 -18.460136 -125.41949
-277.64294 -18.041496 -130.75548
-276.66382 -17.189827 -134.301
-276.5782 -17.322395 -134.30304
-276.5782 -17.32241 -134.30301
-276.14038 -16.731606 -136.29225
-276.06085 -16.851723 -136.29955
-275.7774 -16.326271 -137.77827
-275.70657 -16.436028 -137.78848
-275.7774 -16.326271 -137.77826
-275.70657 -16.436028 -137.78845
-135.28867 -13.781288 333.11487
-147.73242 -13.205254 326.46988
-157.6824 -12.180122 321.15054
-164.23975 -11.306694 317.41006
-168.19177 -10.672539 315.0152
-171.58554 -10.074242 312.88547
-174.84447 -9.156319 310.4675
-177.98221 -7.545174 307.32367
-181.05457 -5.309883 303.2717
-183.90913 -2.845375 298.45364
-186.78694 -0.084343 292.10513
-190.89035 4.006264 280.40924
-196.96666 9.948708 258.31003
-205.08005 16.29818 221.8724
-211.74564 21.66166 180.26102
-215.39465 28.236458 144.91803
-215.71338 29.041344 118.74294
-219.75568 23.307701 98.075356
-233.71146 21.013176 79.10597
-233.71141 21.013176 79.10601
-249.06299 23.706367 60.769657
-256.3658 24.031044 42.45492
-256.3658 24.03106 42.45496
-260.56955 18.82235 21.935028
-265.6395 11.681511 -0.905687
-265.6395 11.681526 -0.90564
-269.9552 4.185173 -24.587029
-274.24463 -2.702568 -49.899235
-274.24463 -2.702568 -49.89918
-278.1855 -8.345222 -75.2636
-279.63638 -12.871056 -98.060616
-279.63638 -12.871025 -98.060585
-279.91992 -16.767769 -115.336205
-279.2634 -18.614388 -125.39117
-279.2634 -18.614388 -125.39116
-277.5805 -18.18615 -130.7491
-276.51538 -17.456886 -134.31259
-276.0022 -16.973595 -136.3135
-275.65546 -16.546806 -137.80469
-275.65543 -16.546822 -137.80466
-135.18915 -14.245262 332.89166
-147.6416 -13.658684 326.23447
-157.60303 -12.614357 320.9191
-164.16608 -11.723457 317.18375
-168.12106 -11.078392 314.79227
-171.51675 -10.471382 312.66565
-174.7781 -9.54174 310.24338
-177.91463 -7.915413 307.0856
-180.97282 -5.669991 303.02518
-183.80061 -3.204414 298.2168
-186.65259 -0.443031 291.89075
-190.74251 3.659447 280.2261
-196.81612 9.63047 258.17313
-204.92137 15.986443 221.7798
-211.59592 21.38012 180.20108
-215.25012 27.968575 144.84981
-215.57379 28.771858 118.745285
-219.63757 23.041267 98.137924
-233.63882 20.74311 79.09994
-233.63878 20.743095 79.099976
-249.03043 23.439323 60.70848
-256.3189 23.777779 42.42149
-256.3189 23.777794 42.421528
-260.5033 18.585442 21.974476
-265.5727 11.467766 -0.853987
-265.5727 11.467796 -0.85394
-269.89505 3.989388 -24.53614
-274.19122 -2.883904 -49.857983
-274.19122 -2.883904 -49.85793
-278.13617 -8.520439 -75.23205
-279.5928 -13.037819 -98.03059
-279.5928 -13.037804 -98.03055
-279.87836 -16.928612 -115.30028
-279.22293 -18.770454 -125.36581
-279.22296 -18.770454 -125.3658
-277.54132 -18.332497 -130.75052
-276.4746 -17.59298 -134.32933
-276.4746 -17.592964 -134.32933
-275.9637 -17.096916 -136.33382
-275.62256 -16.658287 -137.82643
-275.62256 -16.658287 -137.8264
-135.1282 -14.712151 332.73978
-147.58722 -14.117455 326.06873
-157.56026 -13.053795 320.75366
-164.1301 -12.145226 317.01953
-168.12106 -11.078392 314.79224
-168.08855 -11.489082 314.62906
-171.48619 -10.873222 312.50385
-174.7781 -9.541756 310.24338
-174.75319 -9.931709 310.0732
-177.91463 -7.915413 307.08557
-177.8953 -8.290001 306.89423
-180.97282 -5.670006 303.02515
-180.94531 -6.03434 302.818
-183.75069 -3.567711 298.01254
-186.5792 -0.805916 291.70267
-190.65462 3.308571 280.06363
-196.81612 9.630455 258.17316
-196.72093 9.308495 258.05087
-204.81648 15.671043 221.69815
-211.49489 21.095314 180.1476
-215.25012 27.968575 144.84982
-215.15297 27.697578 144.78543
-215.57379 28.771858 118.74529
-215.48196 28.499123 118.74608
-219.56314 22.76995 98.2089
-233.60371 20.465996 79.1245
-233.6388 20.743095 79.099976
-233.60368 20.465996 79.12454
-249.03044 23.439323 60.70848
-249.03394 23.165092 60.67771
-256.31403 23.517677 42.40511
-256.314 23.517677 42.405148
-260.5033 18.585442 21.974478
-260.47968 18.342155 22.024221
-265.5727 11.467766 -0.853986
-265.54462 11.248314 -0.792316
-265.5446 11.248344 -0.792269
-269.89502 3.989388 -24.53614
-269.87067 3.788322 -24.477116
-274.19122 -2.883919 -49.857983
-274.17078 -3.070122 -49.809967
-274.17078 -3.070107 -49.809917
-278.1184 -8.700356 -75.194626
-279.57938 -13.209068 -97.99771
-279.5794 -13.209038 -97.99768
-279.86627 -17.093803 -115.26288
-279.22293 -18.770454 -125.3658
-279.21014 -18.930748 -125.34332
-279.21014 -18.930748 -125.34331
-277.54132 -18.332497 -130.75053
-277.52707 -18.482826 -130.76047
-276.45734 -17.73272 -134.35426
-276.45734 -17.732735 -134.35425
-275.9637 -17.096916 -136.3338
-275.94678 -17.223518 -136.36143
-275.62256 -16.658287 -137.82642
-275.60828 -16.772163 -137.8543
-275.62256 -16.658302 -137.82639
-275.60828 -16.772163 -137.85426
-135.1282 -14.712166 332.73972
-135.10394 -15.183342 332.65533
-147.58722 -14.117455 326.06866
-147.56903 -14.582741 325.9718
-157.56026 -13.05381 320.75363
-157.55385 -13.499428 320.6535
-164.1301 -12.145256 317.01953
-164.13165 -12.572975 316.91675
-168.08855 -11.489098 314.62903
-168.09406 -11.905602 314.525
-171.48619 -10.873268 312.5038
-171.49368 -11.2808 312.3994
-174.75319 -9.93174 310.07318
-174.7695 -10.327232 309.9563
-177.8953 -8.290031 306.8942
-177.92403 -8.66993 306.74893
-180.94531 -6.034355 302.818
-180.97185 -6.403847 302.6496
-183.75069 -3.567741 298.0125
-183.7591 -3.936165 297.84027
-186.5792 -0.805931 291.70264
-186.56644 -1.173988 291.54025
-190.65463 3.308556 280.0636
-190.62631 2.95269 279.92123
-196.72093 9.308495 258.05084
-196.6807 8.981956 257.9427
-204.81648 15.671028 221.69812
-204.76492 15.351143 221.62709
-211.49489 21.095284 180.14758
-211.44208 20.806435 180.10033
-215.15297 27.697533 144.78542
-215.10281 27.422707 144.72461
-215.48196 28.499092 118.74606
-215.43765 28.222328 118.745316
-219.56314 22.769936 98.20889
-219.53369 22.491142 98.290215
-233.60371 20.465996 79.12449
-233.60947 20.176964 79.18339
-233.60367 20.465965 79.124535
-233.60944 20.176933 79.183426
-249.03392 23.165077 60.677704
-249.07751 22.878624 60.680187
-256.31403 23.517647 42.405106
-256.35574 23.245934 42.407394
-256.314 23.517662 42.405144
-256.35574 23.245949 42.407433
-260.47968 18.342125 22.02422
-260.503 18.08799 22.086142
-265.54462 11.248283 -0.792316
-265.55896 11.01902 -0.718656
-265.5446 11.248314 -0.792269
-265.55896 11.019051 -0.718609
-269.87064 3.788307 -24.477116
-269.8856 3.578285 -24.408167
-274.17078 -3.070137 -49.809963
-274.18658 -3.26461 -49.753704
-274.17075 -3.070122 -49.80991
-274.18655 -3.26461 -49.753647
-278.11838 -8.700371 -75.19462
-278.1353 -8.888313 -75.15006
-279.57938 -13.209084 -97.99771
-279.5992 -13.387932 -97.96116
-279.57938 -13.209053 -97.99767
-279.5992 -13.387917 -97.96113
-279.86627 -17.093819 -115.26286
-279.88666 -17.26638 -115.22321
-279.21014 -18.930763 -125.3433
-279.2278 -19.098213 -125.32365
-279.2278 -19.098213 -125.32364
-277.52707 -18.482841 -130.76044
-277.54016 -18.63987 -130.78001
-276.45734 -17.732735 -134.35423
-276.46588 -17.878761 -134.3886
-276.45734 -17.73275 -134.35422
-276.46588 -17.878761 -134.38858
-275.94678 -17.223534 -136.3614
-275.9534 -17.355812 -136.39758
-275.60828 -16.772179 -137.85428
-275.61407 -16.89048 -137.88924
-275.60828 -16.772179 -137.85425
-275.61407 -16.890495 -137.88922
-135.11847 -15.667274 332.6417
-147.59085 -15.062965 325.94998
-157.5878 -13.959389 320.62442
-164.175 -13.014442 316.8807
-168.142 -12.335518 314.485
-171.54367 -11.701485 312.3572
-174.83202 -10.735497 309.89682
-178.00674 -9.06205 306.65244
-181.05899 -6.78524 302.52145
-183.83258 -4.316475 297.7007
-186.62102 -1.553886 291.4038
-190.66393 2.585365 279.79898
-196.70099 8.64489 257.8485
-204.77191 15.020943 221.56671
-211.44214 20.508247 180.05917
-215.10419 27.139015 144.66676
-215.44545 27.936607 118.74277
-219.55289 22.203026 98.38247
-233.6583 19.877983 79.2779
-233.65826 19.877983 79.27794
-249.16287 22.582314 60.717648
-256.44614 22.964882 42.429302
-256.44614 22.964882 42.429337
-260.57544 17.82508 22.160234
-265.61792 10.781883 -0.633137
-265.61792 10.781914 -0.63309
-269.94177 3.361061 -24.329473
-274.2404 -3.465813 -49.68935
-274.2404 -3.465797 -49.689297
-278.18866 -9.082695 -75.09849
-279.65387 -13.57296 -97.92116
-279.65387 -13.572945 -97.92112
-279.941 -17.444878 -115.181656
-279.2774 -19.271416 -125.30719
-279.2774 -19.271416 -125.30718
-277.58203 -18.80233 -130.80951
-276.50153 -18.029778 -134.4325
-276.50153 -18.029793 -134.43246
-275.98483 -17.492622 -136.44229
-275.64133 -17.012321 -137.93146
-275.64133 -17.012321 -137.93144
-135.17534 -16.1706 332.70486
-147.65668 -15.564751 326.01028
-157.66635 -14.44001 320.67288
-164.26463 -13.475761 316.9173
-168.23694 -12.784737 314.51477
-171.64075 -12.141014 312.38263
-174.9458 -11.162025 309.89963
-178.14948 -9.471779 306.6085
-181.21341 -7.183784 302.43613
-183.9781 -4.71386 297.59552
-186.74985 -1.950844 291.2943
-190.77411 2.20153 279.69742
-196.78781 8.292686 257.76862
-204.8431 14.675926 221.5174
-211.50014 20.196724 180.02437
-215.16197 26.842583 144.61159
-215.51027 27.638374 118.73811
-219.62389 21.909142 98.48399
-233.75027 19.581291 79.40575
-233.75024 19.581276 79.40578
-249.28818 22.28907 60.790157
-256.5835 22.68673 42.470806
-256.5835 22.68673 42.470844
-260.69623 17.564903 22.243761
-265.721 10.547188 -0.539005
-265.72098 10.547218 -0.538958
-270.0387 3.146049 -24.24409
-274.33163 -3.664925 -49.619392
-274.33163 -3.664925 -49.61934
-278.27774 -9.275078 -75.04187
-279.7426 -13.75605 -97.87935
-279.7426 -13.75602 -97.87931
-280.02863 -17.621513 -115.13996
-279.3583 -19.442833 -125.29484
-279.3583 -19.442818 -125.29483
-277.65216 -18.963066 -130.8481
-276.56406 -18.179207 -134.4844
-276.56403 -18.179207 -134.4844
-276.04095 -17.627983 -136.494
-275.6906 -17.132729 -137.97975
-275.6906 -17.132729 -137.97972
-135.17535 -16.170616 332.70483
-135.2768 -16.686638 332.84955
-147.65668 -15.564781 326.01025
-147.7675 -16.080528 326.15555
-157.66635 -14.440041 320.67285
-157.79028 -14.934029 320.80173
-164.26463 -13.475792 316.91727
-164.4012 -13.949928 317.02942
-168.23694 -12.784752 314.51474
-168.37944 -13.246452 314.61716
-171.64075 -12.141045 312.38263
-171.78546 -12.592812 312.47858
-174.9458 -11.162056 309.89963
-175.11133 -11.600456 309.96762
-178.14948 -9.471794 306.60846
-178.35263 -9.892952 306.62033
-181.21341 -7.1838 302.4361
-181.4357 -7.593422 302.39706
-183.9781 -4.71389 297.5955
-184.19666 -5.122337 297.5281
-186.74985 -1.950859 291.29428
-186.95432 -2.358849 291.2149
-190.77411 2.20153 279.6974
-190.95844 1.80703 279.6193
-196.94286 7.930702 257.7051
-204.8431 14.675911 221.51738
-204.98035 14.321342 221.48053
-211.50014 20.196709 180.02435
-211.61781 19.876488 179.9968
-215.16197 26.842567 144.61157
-215.27792 26.537865 144.56018
-215.51027 27.63836 118.738106
-215.63376 27.332497 118.731155
-219.62387 21.909111 98.483986
-219.74765 21.619759 98.59135
-233.75027 19.58126 79.40574
-233.88428 19.304115 79.56284
-233.75024 19.58126 79.40577
-233.88425 19.3041 79.562874
-249.28818 22.28904 60.79015
-249.45001 22.016579 60.896908
-256.5835 22.686699 42.470802
-256.76434 22.42823 42.531403
-256.58347 22.686714 42.470837
-256.7643 22.428246 42.531445
-260.69623 17.564888 22.243757
-260.86298 17.323143 22.3327
-265.72098 10.547173 -0.539005
-265.86646 10.329079 -0.441029
-265.72098 10.547203 -0.538958
-265.86646 10.329109 -0.440983
-270.0387 3.146019 -24.244085
-270.1747 2.946236 -24.156464
-274.3316 -3.664955 -49.619385
-274.4587 -3.849968 -49.54742
-274.3316 -3.66494 -49.619335
-274.45868 -3.849953 -49.547367
-278.2777 -9.275108 -75.04186
-278.40088 -9.453835 -74.98306
-279.74258 -13.756065 -97.87933
-279.86356 -13.926186 -97.838005
-279.7426 -13.75605 -97.8793
-279.8636 -13.926155 -97.83798
-280.02863 -17.621529 -115.139946
-280.1476 -17.785652 -115.1006
-279.3583 -19.442848 -125.29483
-279.46878 -19.602104 -125.28776
-279.3583 -19.442833 -125.294815
-279.4688 -19.602104 -125.28775
-277.65216 -18.963081 -130.84807
-277.7492 -19.112434 -130.89441
-276.56403 -18.179237 -134.48439
-276.65237 -18.318108 -134.5421
-276.56403 -18.179222 -134.48438
-276.65237 -18.318123 -134.54208
-276.04092 -17.627998 -136.49399
-276.1208 -17.753838 -136.55035
-275.6906 -17.132744 -137.97974
-275.76147 -17.24479 -138.03204
-275.6906 -17.132744 -137.97972
-275.76147 -17.24479 -138.03201
-135.2768 -16.686653 332.84952
-135.44339 -17.246239 333.11124
-147.7675 -16.080528 326.15552
-147.9424 -16.63871 326.41876
-157.7903 -14.934029 320.80173
-157.9794 -15.468666 321.04184
-164.4012 -13.949944 317.02942
-164.60558 -14.463097 317.2457
-168.37944 -13.246468 314.61716
-168.59091 -13.746208 314.81937
-171.99933 -13.08181 312.6712
-175.11133 -11.600471 309.96762
-175.35239 -12.074989 310.12405
-178.35263 -9.892967 306.62033
-178.64441 -10.348747 306.70566
-181.43571 -7.593422 302.39706
-181.75722 -8.036797 302.4168
-184.19666 -5.122337 297.52808
-184.52097 -5.564415 297.5071
-186.95432 -2.358879 291.21484
-187.26741 -2.800484 291.17117
-190.95844 1.807014 279.61923
-191.24847 1.380074 279.5681
-196.94286 7.930687 257.7051
-197.19444 7.538887 257.66003
-204.98035 14.321327 221.48053
-205.21046 13.937508 221.45818
-211.61781 19.876472 179.9968
-211.81912 19.52987 179.97736
-215.27791 26.53785 144.56017
-215.47537 26.208061 144.51125
-215.63376 27.332466 118.73115
-215.83987 27.002174 118.72094
-219.74765 21.619743 98.59133
-219.94745 21.322227 98.712364
-233.88428 19.3041 79.562836
-234.0819 19.03852 79.76777
-233.88425 19.3041 79.56287
-234.08185 19.03849 79.7678
-249.45001 22.016548 60.896904
-249.66971 21.757423 61.05549
-256.76434 22.428215 42.531403
-257.01346 22.182426 42.620987
-256.7643 22.428215 42.53144
-257.01346 22.182442 42.62102
-260.86298 17.323112 22.332699
-261.10062 17.093208 22.433664
-265.86646 10.329048 -0.44103
-266.07684 10.121635 -0.332633
-265.86646 10.329079 -0.440983
-266.07684 10.121651 -0.332587
-270.1747 2.94622 -24.156458
-270.37064 2.756187 -24.061092
-274.45868 -3.849968 -49.547417
-274.6408 -4.025948 -49.468887
-274.45868 -3.849953 -49.547363
-274.6408 -4.025917 -49.468834
-278.40088 -9.45385 -74.983055
-278.57654 -9.623878 -74.91815
-279.86356 -13.926201 -97.838
-280.03436 -14.08802 -97.79509
-279.86356 -13.92617 -97.837975
-280.03436 -14.08799 -97.79507
-280.1476 -17.785667 -115.1006
-280.31516 -17.94178 -115.06225
-279.46878 -19.60212 -125.28776
-279.62503 -19.753593 -125.287315
-279.46878 -19.60212 -125.28774
-279.62503 -19.753593 -125.28731
-277.7492 -19.11245 -130.89441
-277.88776 -19.254524 -130.95354
-276.65237 -18.318123 -134.5421
-276.7802 -18.450203 -134.61067
-276.7802 -18.450203 -134.61066
-276.12076 -17.753853 -136.55035
-276.23688 -17.873512 -136.61592
-275.76147 -17.244804 -138.03203
-275.86502 -17.351768 -138.09238
-275.76144 -17.24482 -138.032
-275.86502 -17.351768 -138.09236
-276.24988 -16.502449 -138.60924
POLYGONS 2217 8868
3 0 1 2
3 0 2 3
3 3 2 4
3 3 4 5
3 5 4 6
3 5 6 7
3 7 6 8
3 7 8 9
3 9 8 10
3 9 10 11
3 11 10 12
3 11 12 13
3 13 12 14
3 13 14 15
3 15 14 16
3 15 16 17
3 17 16 18
3 17 18 19
3 19 18 20
3 19 20 21
3 21 20 22
3 21 22 23
3 23 22 24
3 23 24 25
3 25 24 26
3 25 26 27
3 27 26 28
3 27 28 29
3 29 28 30
3 29 30 31
3 31 30 32
3 31 32 33
3 33 32 34
3 33 34 35
3 35 34 36
3 35 36 37
3 37 36 38
3 39 40 41
3 41 40 42
3 41 42 43
3 43 42 44
3 45 46 47
3 47 46 48
3 47 48 49
3 49 48 50
3 51 52 53
3 53 52 54
3 53 54 55
3 55 54 56
3 57 58 59
3 59 58 60
3 59 60 61
3 61 60 62
3 63 64 65
3 65 64 66
3 65 66 67
3 67 66 68
3 69 70 71
3 71 70 72
3 71 72 73
3 73 72 74
3 75 76 77
3 77 76 78
3 77 78 79
3 79 78 80
3 81 82 83
3 83 82 84
3 2 85 86
3 2 86 4
3 4 86 87
3 4 87 6
3 6 87 88
3 6 88 8
3 8 88 89
3 8 89 10
3 10 89 90
3 10 90 12
3 12 90 91
3 12 91 14
3 14 91 92
3 14 92 16
3 16 92 93
3 16 93 18
3 18 93 94
3 18 94 20
3 20 94 95
3 20 95 22
3 22 95 96
3 22 96 24
3 24 96 97
3 24 97 26
3 26 97 98
3 26 98 28
3 28 98 99
3 28 99 30
3 30 99 100
3 30 100 32
3 32 100 101
3 32 101 34
3 34 101 102
3 34 102 36
3 36 102 103
3 36 103 38
3 38 103 104
3 40 105 42
3 42 105 106
3 42 106 44
3 44 106 107
3 46 108 48
3 48 108 109
3 48 109 50
3 50 109 110
3 52 111 54
3 54 111 112
3 54 112 56
3 56 112 113
3 58 114 60
3 60 114 115
3 60 115 62
3 62 115 116
3 64 117 66
3 66 117 118
3 66 118 68
3 68 118 119
3 70 120 72
3 72 120 121
3 72 121 74
3 74 121 122
3 76 123 78
3 78 123 124
3 78 124 80
3 80 124 125
3 82 126 84
3 84 126 83
3 86 85 127
3 86 127 87
3 87 127 128
3 87 128 88
3 88 128 129
3 88 129 89
3 89 129 130
3 89 130 90
3 90 130 131
3 90 131 91
3 91 131 132
3 91 132 92
3 92 132 133
3 92 133 93
3 93 133 134
3 93 134 94
3 94 134 135
3 94 135 95
3 95 135 136
3 95 136 96
3 96 136 137
3 96 137 97
3 97 137 138
3 97 138 98
3 98 138 139
3 98 139 99
3 99 139 140
3 99 140 100
3 100 140 141
3 100 141 101
3 101 141 142
3 101 142 102
3 102 142 143
3 102 143 103
3 103 143 144
3 103 144 104
3 104 144 145
3 105 146 106
3 106 146 147
3 106 147 107
3 107 147 148
3 108 149 109
3 109 149 150
3 109 150 110
3 110 150 151
3 111 152 112
3 112 152 153
3 112 153 113
3 113 153 154
3 114 155 115
3 115 155 156
3 115 156 116
3 116 156 157
3 117 158 118
3 118 158 159
3 118 159 119
3 119 159 160
3 120 161 121
3 121 161 162
3 121 162 122
3 122 162 163
3 123 164 124
3 124 164 165
3 124 165 125
3 125 165 166
3 126 167 83
3 127 168 169
3 127 169 128
3 128 169 170
3 128 170 129
3 129 170 171
3 129 171 130
3 130 171 172
3 130 172 131
3 131 172 173
3 131 173 132
3 132 173 174
3 132 174 133
3 133 174 175
3 133 175 134
3 134 175 176
3 134 176 135
3 135 176 177
3 135 177 136
3 136 177 178
3 136 178 137
3 137 178 179
3 137 179 138
3 138 179 180
3 138 180 139
3 139 180 181
3 139 181 140
3 140 181 182
3 140 182 141
3 141 182 183
3 141 183 142
3 142 183 184
3 142 184 143
3 143 184 185
3 143 185 144
3 144 185 186
3 144 186 145
3 145 186 187
3 146 188 147
3 147 188 189
3 147 189 148
3 148 189 190
3 149 191 150
3 150 191 192
3 150 192 151
3 151 192 193
3 152 194 153
3 153 194 195
3 153 195 154
3 154 195 196
3 155 197 156
3 156 197 198
3 156 198 157
3 157 198 199
3 158 200 159
3 159 200 201
3 159 201 160
3 160 201 202
3 161 203 162
3 162 203 204
3 162 204 163
3 163 204 205
3 164 206 165
3 165 206 207
3 165 207 166
3 166 207 208
3 167 209 210
3 210 209 211
3 169 85 212
3 169 212 170
3 170 212 213
3 170 213 171
3 171 213 214
3 171 214 172
3 172 214 215
3 172 215 173
3 173 215 216
3 173 216 174
3 174 216 217
3 174 217 175
3 175 217 218
3 175 218 176
3 176 218 219
3 176 219 177
3 177 219 220
3 177 220 178
3 178 220 221
3 178 221 179
3 179 221 222
3 179 222 180
3 180 222 223
3 180 223 181
3 181 223 224
3 181 224 182
3 182 224 225
3 182 225 183
3 183 225 226
3 183 226 184
3 184 226 227
3 184 227 185
3 185 227 228
3 185 228 186
3 186 228 229
3 186 229 187
3 187 229 230
3 188 231 189
3 189 231 232
3 189 232 190
3 190 232 233
3 191 234 192
3 192 234 235
3 192 235 193
3 193 235 236
3 194 237 195
3 195 237 238
3 195 238 196
3 196 238 239
3 197 240 198
3 198 240 241
3 198 241 199
3 199 241 242
3 200 243 201
3 201 243 244
3 201 244 202
3 202 244 245
3 203 246 204
3 204 246 247
3 204 247 205
3 205 247 248
3 206 249 207
3 207 249 250
3 207 250 208
3 208 250 251
3 209 252 211
3 211 252 83
3 85 253 212
3 212 253 254
3 212 254 213
3 213 254 255
3 213 255 214
3 214 255 256
3 214 256 215
3 215 256 257
3 215 257 216
3 216 257 258
3 216 258 217
3 217 258 259
3 217 259 218
3 218 259 260
3 218 260 219
3 219 260 261
3 219 261 220
3 220 261 262
3 220 262 221
3 221 262 263
3 221 263 222
3 222 263 264
3 222 264 223
3 223 264 265
3 223 265 224
3 224 265 266
3 224 266 225
3 225 266 267
3 225 267 226
3 226 267 268
3 226 268 227
3 227 268 269
3 227 269 228
3 228 269 270
3 228 270 229
3 229 270 271
3 229 271 230
3 230 271 272
3 231 273 232
3 232 273 274
3 232 274 233
3 233 274 275
3 234 276 235
3 235 276 277
3 235 277 236
3 236 277 278
3 237 279 238
3 238 279 280
3 238 280 239
3 239 280 281
3 240 282 241
3 241 282 283
3 241 283 242
3 242 283 284
3 243 285 244
3 244 285 286
3 244 286 245
3 245 286 287
3 246 288 247
3 247 288 289
3 247 289 248
3 248 289 290
3 249 291 250
3 250 291 292
3 250 292 251
3 251 292 293
3 252 294 83
3 253 295 254
3 254 295 296
3 254 296 255
3 255 296 297
3 255 297 256
3 256 297 298
3 256 298 257
3 257 298 299
3 257 299 258
3 258 299 300
3 258 300 259
3 259 300 301
3 259 301 260
3 260 301 302
3 260 302 261
3 261 302 303
3 261 303 262
3 262 303 304
3 262 304 263
3 263 304 305
3 263 305 264
3 264 305 306
3 264 306 265
3 265 306 307
3 265 307 266
3 266 307 308
3 266 308 267
3 267 308 309
3 267 309 268
3 268 309 310
3 268 310 269
3 269 310 311
3 269 311 270
3 270 311 312
3 270 312 271
3 271 312 313
3 271 313 272
3 272 313 314
3 273 315 274
3 274 315 316
3 274 316 275
3 275 316 317
3 276 318 277
3 277 318 319
3 277 319 278
3 278 319 320
3 279 321 280
3 280 321 322
3 280 322 281
3 281 322 323
3 282 324 283
3 283 324 325
3 283 325 284
3 284 325 326
3 285 327 286
3 286 327 328
3 286 328 287
3 287 328 329
3 288 330 289
3 289 330 331
3 289 331 290
3 290 331 332
3 291 333 292
3 292 333 334
3 292 334 293
3 293 334 335
3 294 336 83
3 295 337 296
3 296 337 338
3 296 338 297
3 297 338 339
3 297 339 298
3 298 339 340
3 298 340 299
3 299 340 341
3 299 341 300
3 300 341 342
3 300 342 301
3 301 342 343
3 301 343 302
3 302 343 344
3 302 344 303
3 303 344 345
3 303 345 304
3 304 345 346
3 304 346 305
3 305 346 347
3 305 347 306
3 306 347 348
3 306 348 307
3 307 348 349
3 307 349 308
3 308 349 350
3 308 350 309
3 309 350 351
3 309 351 310
3 310 351 352
3 310 352 311
3 311 352 353
3 311 353 312
3 312 353 354
3 312 354 313
3 313 354 355
3 313 355 314
3 314 355 356
3 315 357 316
3 316 357 358
3 316 358 317
3 317 358 359
3 318 360 319
3 319 360 361
3 319 361 320
3 320 361 362
3 321 363 322
3 322 363 364
3 322 364 323
3 323 364 365
3 324 366 325
3 325 366 367
3 325 367 326
3 326 367 368
3 327 369 328
3 328 369 370
3 328 370 329
3 329 370 371
3 330 372 331
3 331 372 373
3 331 373 332
3 332 373 374
3 333 375 334
3 334 375 376
3 334 376 335
3 335 376 377
3 336 378 379
3 379 378 211
3 337 380 338
3 338 380 381
3 338 381 339
3 339 381 382
3 339 382 340
3 340 382 383
3 340 383 341
3 341 383 384
3 341 384 342
3 342 384 385
3 342 385 343
3 343 385 386
3 343 386 344
3 344 386 387
3 344 387 345
3 345 387 388
3 345 388 346
3 346 388 389
3 346 389 347
3 347 389 390
3 347 390 348
3 348 390 391
3 348 391 349
3 349 391 392
3 349 392 350
3 350 392 393
3 350 393 351
3 351 393 394
3 351 394 352
3 352 394 395
3 352 395 353
3 353 395 396
3 353 396 354
3 354 396 397
3 354 397 355
3 355 397 398
3 355 398 356
3 356 398 399
3 357 400 358
3 358 400 401
3 358 401 359
3 359 401 402
3 360 403 361
3 361 403 404
3 361 404 362
3 362 404 405
3 363 406 364
3 364 406 407
3 364 407 365
3 365 407 408
3 366 409 367
3 367 409 410
3 367 410 368
3 368 410 411
3 369 412 370
3 370 412 413
3 370 413 371
3 371 413 414
3 372 415 373
3 373 415 416
3 373 416 374
3 374 416 417
3 375 418 376
3 376 418 419
3 376 419 377
3 377 419 420
3 378 421 211
3 211 421 210
3 380 422 381
3 381 422 423
3 381 423 382
3 382 423 424
3 382 424 383
3 383 424 425
3 383 425 384
3 384 425 426
3 384 426 385
3 385 426 427
3 385 427 386
3 386 427 428
3 386 428 387
3 387 428 429
3 387 429 388
3 388 429 430
3 388 430 389
3 389 430 431
3 389 431 390
3 390 431 432
3 390 432 391
3 391 432 433
3 391 433 392
3 392 433 434
3 392 434 393
3 393 434 435
3 393 435 394
3 394 435 436
3 394 436 395
3 395 436 437
3 395 437 396
3 396 437 438
3 396 438 397
3 397 438 439
3 397 439 398
3 398 439 440
3 398 440 399
3 399 440 441
3 400 442 401
3 401 442 443
3 401 443 402
3 402 443 444
3 403 445 404
3 404 445 446
3 404 446 405
3 405 446 447
3 406 448 407
3 407 448 449
3 407 449 408
3 408 449 450
3 409 451 410
3 410 451 452
3 410 452 411
3 411 452 453
3 412 454 413
3 413 454 455
3 413 455 414
3 414 455 456
3 415 457 416
3 416 457 458
3 416 458 417
3 417 458 459
3 418 460 419
3 419 460 461
3 419 461 420
3 420 461 462
3 421 463 210
3 422 380 423
3 423 380 464
3 423 464 424
3 424 464 465
3 424 465 425
3 425 465 466
3 425 466 426
3 426 466 467
3 426 467 427
3 427 467 468
3 427 468 428
3 428 468 469
3 428 469 429
3 429 469 470
3 429 470 430
3 430 470 471
3 430 471 431
3 431 471 472
3 431 472 432
3 432 472 473
3 432 473 433
3 433 473 474
3 433 474 434
3 434 474 475
3 434 475 435
3 435 475 476
3 435 476 436
3 436 476 477
3 436 477 437
3 437 477 478
3 437 478 438
3 438 478 479
3 438 479 439
3 439 479 480
3 439 480 440
3 440 480 481
3 440 481 441
3 441 481 482
3 442 483 443
3 443 483 484
3 443 484 444
3 444 484 485
3 445 486 446
3 446 486 487
3 446 487 447
3 447 487 488
3 448 489 449
3 449 489 490
3 449 490 450
3 450 490 491
3 451 492 452
3 452 492 493
3 452 493 453
3 453 493 494
3 454 495 455
3 455 495 496
3 455 496 456
3 456 496 497
3 457 498 458
3 458 498 499
3 458 499 459
3 459 499 500
3 460 500 461
3 461 500 501
3 461 501 462
3 462 501 502
3 463 503 83
3 83 503 210
3 380 504 464
3 464 504 505
3 464 505 465
3 465 505 506
3 465 506 466
3 466 506 507
3 466 507 467
3 467 507 508
3 467 508 468
3 468 508 509
3 468 509 469
3 469 509 510
3 469 510 470
3 470 510 511
3 470 511 471
3 471 511 512
3 471 512 472
3 472 512 513
3 472 513 473
3 473 513 514
3 473 514 474
3 474 514 515
3 474 515 475
3 475 515 516
3 475 516 476
3 476 516 517
3 476 517 477
3 477 517 518
3 477 518 478
3 478 518 519
3 478 519 479
3 479 519 520
3 479 520 480
3 480 520 521
3 480 521 481
3 481 521 522
3 481 522 482
3 482 522 523
3 483 524 484
3 484 524 525
3 484 525 485
3 485 525 526
3 486 527 487
3 487 527 528
3 487 528 488
3 488 528 529
3 489 530 490
3 490 530 531
3 490 531 491
3 491 531 532
3 492 533 493
3 493 533 534
3 493 534 494
3 494 534 535
3 495 536 496
3 496 536 537
3 496 537 497
3 497 537 538
3 498 539 499
3 499 539 540
3 499 540 500
3 500 540 541
3 500 542 501
3 501 542 543
3 501 543 502
3 502 543 544
3 503 545 210
3 504 546 505
3 505 546 547
3 505 547 506
3 506 547 548
3 506 548 507
3 507 548 549
3 507 549 508
3 508 549 550
3 508 550 509
3 509 550 551
3 509 551 510
3 510 551 552
3 510 552 511
3 511 552 553
3 511 553 512
3 512 553 554
3 512 554 513
3 513 554 555
3 513 555 514
3 514 555 556
3 514 556 515
3 515 556 557
3 515 557 516
3 516 557 558
3 516 558 517
3 517 558 559
3 517 559 518
3 518 559 560
3 518 560 519
3 519 560 561
3 519 561 520
3 520 561 562
3 520 562 521
3 521 562 563
3 521 563 522
3 522 563 564
3 522 564 523
3 523 564 565
3 524 566 525
3 525 566 567
3 525 567 526
3 526 567 568
3 527 569 528
3 528 569 570
3 528 570 529
3 529 570 571
3 530 572 531
3 531 572 573
3 531 573 532
3 532 573 574
3 533 575 534
3 534 575 576
3 534 576 535
3 535 576 577
3 536 578 537
3 537 578 579
3 537 579 538
3 538 579 580
3 539 580 540
3 540 580 581
3 540 581 541
3 541 581 582
3 542 583 543
3 543 583 584
3 543 584 544
3 544 584 585
3 545 586 83
3 83 586 211
3 546 587 547
3 547 587 588
3 547 588 548
3 548 588 589
3 548 589 549
3 549 589 590
3 549 590 550
3 550 590 591
3 550 591 551
3 551 591 592
3 551 592 552
3 552 592 593
3 552 593 553
3 553 593 594
3 553 594 554
3 554 594 595
3 554 595 555
3 555 595 596
3 555 596 556
3 556 596 597
3 556 597 557
3 557 597 598
3 557 598 558
3 558 598 599
3 558 599 559
3 559 599 600
3 559 600 560
3 560 600 601
3 560 601 561
3 561 601 602
3 561 602 562
3 562 602 603
3 562 603 563
3 563 603 604
3 563 604 564
3 564 604 605
3 564 605 565
3 565 605 606
3 566 607 567
3 567 607 608
3 567 608 568
3 568 608 609
3 569 610 570
3 570 610 611
3 570 611 571
3 571 611 612
3 572 613 573
3 573 613 614
3 573 614 574
3 574 614 615
3 575 616 576
3 576 616 617
3 576 617 577
3 577 617 618
3 578 619 579
3 579 619 620
3 579 620 580
3 580 620 621
3 580 622 581
3 581 622 623
3 581 623 582
3 582 623 624
3 583 625 584
3 584 625 626
3 584 626 585
3 585 626 627
3 586 628 211
3 587 85 588
3 588 85 629
3 588 629 589
3 589 629 630
3 589 630 590
3 590 630 631
3 590 631 591
3 591 631 632
3 591 632 592
3 592 632 633
3 592 633 593
3 593 633 634
3 593 634 594
3 594 634 635
3 594 635 595
3 595 635 636
3 595 636 596
3 596 636 637
3 596 637 597
3 597 637 638
3 597 638 598
3 598 638 639
3 598 639 599
3 599 639 640
3 599 640 600
3 600 640 641
3 600 641 601
3 601 641 642
3 601 642 602
3 602 642 643
3 602 643 603
3 603 643 644
3 603 644 604
3 604 644 645
3 604 645 605
3 605 645 646
3 605 646 606
3 606 646 647
3 607 648 608
3 608 648 649
3 608 649 609
3 609 649 650
3 610 651 611
3 611 651 652
3 611 652 612
3 612 652 653
3 613 654 614
3 614 654 655
3 614 655 615
3 615 655 656
3 616 657 617
3 617 657 658
3 617 658 618
3 618 658 659
3 619 660 620
3 620 660 661
3 620 661 621
3 621 661 662
3 622 663 623
3 623 663 664
3 623 664 624
3 624 664 665
3 625 666 626
3 626 666 667
3 626 667 627
3 627 667 668
3 628 669 211
3 85 168 629
3 629 168 670
3 629 670 630
3 630 670 671
3 630 671 631
3 631 671 672
3 631 672 632
3 632 672 673
3 632 673 633
3 633 673 674
3 633 674 634
3 634 674 675
3 634 675 635
3 635 675 676
3 635 676 636
3 636 676 677
3 636 677 637
3 637 677 678
3 637 678 638
3 638 678 679
3 638 679 639
3 639 679 680
3 639 680 640
3 640 680 681
3 640 681 641
3 641 681 682
3 641 682 642
3 642 682 683
3 642 683 643
3 643 683 684
3 643 684 644
3 644 684 685
3 644 685 645
3 645 685 686
3 645 686 646
3 646 686 687
3 646 687 647
3 647 687 688
3 648 689 649
3 649 689 690
3 649 690 650
3 650 690 691
3 651 692 652
3 652 692 693
3 652 693 653
3 653 693 694
3 654 695 655
3 655 695 696
3 655 696 656
3 656 696 697
3 657 698 658
3 658 698 699
3 658 699 659
3 659 699 700
3 660 701 661
3 661 701 702
3 661 702 662
3 662 702 703
3 663 704 664
3 664 704 705
3 664 705 665
3 665 705 706
3 666 707 667
3 667 707 708
3 667 708 668
3 668 708 709
3 669 710 83
3 83 710 379
3 168 85 670
3 670 85 711
3 670 711 671
3 671 711 712
3 671 712 672
3 672 712 713
3 672 713 673
3 673 713 714
3 673 714 674
3 674 714 715
3 674 715 675
3 675 715 716
3 675 716 676
3 676 716 717
3 676 717 677
3 677 717 718
3 677 718 678
3 678 718 719
3 678 719 679
3 679 719 720
3 679 720 680
3 680 720 721
3 680 721 681
3 681 721 722
3 681 722 682
3 682 722 723
3 682 723 683
3 683 723 724
3 683 724 684
3 684 724 725
3 684 725 685
3 685 725 726
3 685 726 686
3 686 726 727
3 686 727 687
3 687 727 728
3 687 728 688
3 688 728 729
3 689 730 690
3 690 730 731
3 690 731 691
3 691 731 732
3 692 733 693
3 693 733 734
3 693 734 694
3 694 734 735
3 695 736 696
3 696 736 737
3 696 737 697
3 697 737 738
3 698 739 699
3 699 739 740
3 699 740 700
3 700 740 741
3 701 742 702
3 702 742 743
3 702 743 703
3 703 743 744
3 704 745 705
3 705 745 746
3 705 746 706
3 706 746 747
3 707 747 708
3 708 747 748
3 708 748 709
3 709 748 749
3 710 750 379
3 379 750 83
3 711 85 751
3 711 751 712
3 712 751 752
3 712 752 713
3 713 752 753
3 713 753 714
3 714 753 754
3 714 754 715
3 715 754 755
3 715 755 716
3 716 755 756
3 716 756 717
3 717 756 757
3 717 757 718
3 718 757 758
3 718 758 719
3 719 758 759
3 719 759 720
3 720 759 760
3 720 760 721
3 721 760 761
3 721 761 722
3 722 761 762
3 722 762 723
3 723 762 763
3 723 763 724
3 724 763 764
3 724 764 725
3 725 764 765
3 725 765 726
3 726 765 766
3 726 766 727
3 727 766 767
3 727 767 728
3 728 767 768
3 728 768 729
3 729 768 769
3 730 770 731
3 731 770 771
3 731 771 732
3 732 771 772
3 733 773 734
3 734 773 774
3 734 774 735
3 735 774 775
3 736 776 737
3 737 776 777
3 737 777 738
3 738 777 778
3 739 779 740
3 740 779 780
3 740 780 741
3 741 780 781
3 742 782 743
3 743 782 783
3 743 783 744
3 744 783 784
3 745 785 746
3 746 785 786
3 746 786 747
3 747 786 787
3 747 788 748
3 748 788 789
3 748 789 749
3 749 789 790
3 750 791 83
3 83 791 792
3 546 793 751
3 751 793 794
3 751 794 795
3 795 794 796
3 795 796 797
3 797 796 798
3 797 798 799
3 799 798 800
3 799 800 801
3 801 800 802
3 801 802 756
3 756 802 803
3 756 803 804
3 804 803 805
3 804 805 758
3 758 805 806
3 758 806 807
3 807 806 808
3 807 808 760
3 760 808 809
3 760 809 810
3 810 809 811
3 810 811 812
3 812 811 813
3 812 813 814
3 814 813 815
3 814 815 816
3 816 815 817
3 816 817 818
3 818 817 819
3 818 819 820
3 820 819 821
3 820 821 822
3 822 821 823
3 822 823 824
3 824 823 825
3 824 825 826
3 826 825 827
3 828 829 830
3 830 829 831
3 830 831 832
3 832 831 833
3 773 834 835
3 835 834 836
3 835 836 837
3 837 836 838
3 839 840 841
3 841 840 842
3 841 842 778
3 778 842 843
3 779 844 845
3 845 844 846
3 845 846 847
3 847 846 848
3 849 850 851
3 851 850 852
3 851 852 784
3 784 852 853
3 854 855 786
3 786 855 856
3 786 856 787
3 787 856 857
3 788 858 859
3 859 858 860
3 859 860 861
3 861 860 862
3 863 864 83
3 83 864 792
3 865 380 866
3 866 380 867
3 866 867 868
3 868 867 869
3 868 869 870
3 870 869 871
3 870 871 872
3 872 871 873
3 872 873 874
3 874 873 875
3 874 875 876
3 876 875 877
3 876 877 878
3 878 877 879
3 878 879 880
3 880 879 881
3 880 881 882
3 882 881 883
3 882 883 884
3 884 883 885
3 884 885 886
3 886 885 887
3 886 887 888
3 888 887 889
3 888 889 890
3 890 889 891
3 890 891 892
3 892 891 893
3 892 893 894
3 894 893 895
3 894 895 896
3 896 895 897
3 896 897 898
3 898 897 899
3 898 899 900
3 900 899 901
3 900 901 902
3 902 901 903
3 904 905 906
3 906 905 907
3 906 907 908
3 908 907 909
3 910 911 836
3 836 911 912
3 836 912 913
3 913 912 914
3 915 916 917
3 917 916 918
3 917 918 919
3 919 918 920
3 921 922 923
3 923 922 924
3 923 924 925
3 925 924 926
3 850 927 928
3 928 927 929
3 928 929 930
3 930 929 931
3 932 933 934
3 934 933 935
3 934 935 936
3 936 935 937
3 938 939 940
3 940 939 941
3 940 941 942
3 942 941 943
3 944 945 83
3 867 380 946
3 867 946 869
3 869 946 947
3 869 947 871
3 871 947 948
3 871 948 873
3 873 948 949
3 873 949 875
3 875 949 950
3 875 950 877
3 877 950 951
3 877 951 879
3 879 951 952
3 879 952 881
3 881 952 953
3 881 953 883
3 883 953 954
3 883 954 885
3 885 954 955
3 885 955 887
3 887 955 956
3 887 956 889
3 889 956 957
3 889 957 891
3 891 957 958
3 891 958 893
3 893 958 959
3 893 959 895
3 895 959 960
3 895 960 897
3 897 960 961
3 897 961 899
3 899 961 962
3 899 962 901
3 901 962 963
3 901 963 903
3 903 963 964
3 905 965 907
3 907 965 966
3 907 966 909
3 909 966 967
3 911 968 912
3 912 968 969
3 912 969 914
3 914 969 970
3 916 971 918
3 918 971 972
3 918 972 920
3 920 972 973
3 922 974 924
3 924 974 975
3 924 975 926
3 926 975 976
3 927 977 929
3 929 977 978
3 929 978 931
3 931 978 979
3 933 980 935
3 935 980 981
3 935 981 937
3 937 981 982
3 939 983 941
3 941 983 984
3 941 984 943
3 943 984 985
3 945 986 83
3 380 546 946
3 946 546 987
3 946 987 947
3 947 987 988
3 947 988 948
3 948 988 989
3 948 989 949
3 949 989 990
3 949 990 950
3 950 990 991
3 950 991 951
3 951 991 992
3 951 992 952
3 952 992 993
3 952 993 953
3 953 993 994
3 953 994 954
3 954 994 995
3 954 995 955
3 955 995 996
3 955 996 956
3 956 996 997
3 956 997 957
3 957 997 998
3 957 998 958
3 958 998 999
3 958 999 959
3 959 999 1000
3 959 1000 960
3 960 1000 1001
3 960 1001 961
3 961 1001 1002
3 961 1002 962
3 962 1002 1003
3 962 1003 963
3 963 1003 1004
3 963 1004 964
3 964 1004 1005
3 965 1006 966
3 966 1006 1007
3 966 1007 967
3 967 1007 1008
3 968 1009 969
3 969 1009 1010
3 969 1010 970
3 970 1010 1011
3 971 1012 972
3 972 1012 1013
3 972 1013 973
3 973 1013 1014
3 974 1015 975
3 975 1015 1016
3 975 1016 976
3 976 1016 1017
3 977 1018 978
3 978 1018 1019
3 978 1019 979
3 979 1019 1020
3 980 1021 981
3 981 1021 1022
3 981 1022 982
3 982 1022 1023
3 983 1024 984
3 984 1024 1025
3 984 1025 985
3 985 1025 1026
3 986 1027 83
3 987 85 1028
3 987 1028 1029
3 1029 1028 1030
3 1029 1030 1031
3 1031 1030 1032
3 1031 1032 990
3 990 1032 1033
3 990 1033 1034
3 1034 1033 1035
3 1034 1035 1036
3 1036 1035 1037
3 1036 1037 1038
3 1038 1037 1039
3 1038 1039 1040
3 1040 1039 1041
3 1040 1041 1042
3 1042 1041 1043
3 1042 1043 1044
3 1044 1043 1045
3 1044 1045 1046
3 1046 1045 1047
3 1046 1047 998
3 998 1047 1048
3 998 1048 999
3 999 1048 1049
3 999 1049 1000
3 1000 1049 1050
3 1000 1050 1001
3 1001 1050 1051
3 1001 1051 1052
3 1052 1051 1053
3 1052 1053 1054
3 1054 1053 1055
3 1054 1055 1056
3 1056 1055 1057
3 1056 1057 1058
3 1058 1057 1059
3 1060 1061 1007
3 1007 1061 1062
3 1007 1062 1063
3 1063 1062 1064
3 1065 1066 1067
3 1067 1066 1068
3 1067 1068 1011
3 1011 1068 1069
3 1070 1071 1072
3 1072 1071 1073
3 1072 1073 1074
3 1074 1073 1075
3 1076 1077 1078
3 1078 1077 1079
3 1078 1079 1017
3 1017 1079 1080
3 1081 1082 1083
3 1083 1082 1084
3 1083 1084 1085
3 1085 1084 1086
3 1087 1088 1022
3 1022 1088 1089
3 1022 1089 1023
3 1023 1089 1090
3 1091 1092 1093
3 1093 1092 1094
3 1093 1094 1095
3 1095 1094 1096
3 1027 1097 83
3 85 295 1098
3 1098 295 1099
3 1098 1099 1030
3 1030 1099 1100
3 1030 1100 1032
3 1032 1100 1101
3 1032 1101 1102
3 1102 1101 1103
3 1102 1103 1035
3 1035 1103 1104
3 1035 1104 1037
3 1037 1104 1105
3 1037 1105 1106
3 1106 1105 1107
3 1106 1107 1108
3 1108 1107 1109
3 1108 1109 1110
3 1110 1109 1111
3 1110 1111 1112
3 1112 1111 1113
3 1112 1113 1047
3 1047 1113 1114
3 1047 1114 1115
3 1115 1114 1116
3 1115 1116 1117
3 1117 1116 1118
3 1117 1118 1119
3 1119 1118 1120
3 1119 1120 1051
3 1051 1120 1121
3 1051 1121 1122
3 1122 1121 1123
3 1122 1123 1055
3 1055 1123 1124
3 1055 1124 1057
3 1057 1124 1125
3 1057 1125 1059
3 1059 1125 1126
3 1061 1127 1062
3 1062 1127 1128
3 1062 1128 1064
3 1064 1128 1129
3 1130 1131 1068
3 1068 1131 1132
3 1068 1132 1133
3 1133 1132 1134
3 1071 1135 1136
3 1136 1135 1137
3 1136 1137 1138
3 1138 1137 1139
3 1140 1141 1079
3 1079 1141 1142
3 1079 1142 1080
3 1080 1142 1143
3 1144 1145 1084
3 1084 1145 1146
3 1084 1146 1086
3 1086 1146 1147
3 1088 1148 1089
3 1089 1148 1149
3 1089 1149 1150
3 1150 1149 1151
3 1092 1152 1153
3 1153 1152 1154
3 1153 1154 1155
3 1155 1154 1156
3 1157 1158 83
3 295 85 1099
3 1099 85 1159
3 1099 1159 1100
3 1100 1159 1160
3 1100 1160 1101
3 1101 1160 1161
3 1101 1161 1103
3 1103 1161 1162
3 1103 1162 1104
3 1104 1162 1163
3 1104 1163 1105
3 1105 1163 1164
3 1105 1164 1107
3 1107 1164 1165
3 1107 1165 1109
3 1109 1165 1166
3 1109 1166 1111
3 1111 1166 1167
3 1111 1167 1113
3 1113 1167 1168
3 1113 1168 1114
3 1114 1168 1169
3 1114 1169 1116
3 1116 1169 1170
3 1116 1170 1118
3 1118 1170 1171
3 1118 1171 1120
3 1120 1171 1172
3 1120 1172 1121
3 1121 1172 1173
3 1121 1173 1123
3 1123 1173 1174
3 1123 1174 1124
3 1124 1174 1175
3 1124 1175 1125
3 1125 1175 1176
3 1125 1176 1126
3 1126 1176 1177
3 1127 1178 1128
3 1128 1178 1179
3 1128 1179 1129
3 1129 1179 1180
3 1131 1181 1132
3 1132 1181 1182
3 1132 1182 1134
3 1134 1182 1183
3 1135 1184 1137
3 1137 1184 1185
3 1137 1185 1139
3 1139 1185 1186
3 1141 1187 1142
3 1142 1187 1188
3 1142 1188 1143
3 1143 1188 1189
3 1145 1190 1146
3 1146 1190 1191
3 1146 1191 1147
3 1147 1191 1192
3 1148 1193 1149
3 1149 1193 1194
3 1149 1194 1151
3 1151 1194 1195
3 1152 1195 1154
3 1154 1195 1196
3 1154 1196 1156
3 1156 1196 1197
3 1158 1198 83
3 85 1 1159
3 1159 1 1199
3 1159 1199 1160
3 1160 1199 1200
3 1160 1200 1161
3 1161 1200 1201
3 1161 1201 1162
3 1162 1201 1202
3 1162 1202 1163
3 1163 1202 1203
3 1163 1203 1164
3 1164 1203 1204
3 1164 1204 1165
3 1165 1204 1205
3 1165 1205 1166
3 1166 1205 1206
3 1166 1206 1167
3 1167 1206 1207
3 1167 1207 1168
3 1168 1207 1208
3 1168 1208 1169
3 1169 1208 1209
3 1169 1209 1170
3 1170 1209 1210
3 1170 1210 1171
3 1171 1210 1211
3 1171 1211 1172
3 1172 1211 1212
3 1172 1212 1173
3 1173 1212 1213
3 1173 1213 1174
3 1174 1213 1214
3 1174 1214 1175
3 1175 1214 1215
3 1175 1215 1176
3 1176 1215 1216
3 1176 1216 1177
3 1177 1216 1217
3 1178 1218 1179
3 1179 1218 1219
3 1179 1219 1180
3 1180 1219 1220
3 1181 1221 1182
3 1182 1221 1222
3 1182 1222 1183
3 1183 1222 1223
3 1184 1224 1185
3 1185 1224 1225
3 1185 1225 1186
3 1186 1225 1226
3 1187 1227 1188
3 1188 1227 1228
3 1188 1228 1189
3 1189 1228 1229
3 1190 1230 1191
3 1191 1230 1231
3 1191 1231 1192
3 1192 1231 1232
3 1193 1233 1194
3 1194 1233 1234
3 1194 1234 1195
3 1195 1234 1235
3 1195 1236 1196
3 1196 1236 1237
3 1196 1237 1197
3 1197 1237 1238
3 1198 1239 379
3 379 1239 792
3 85 337 1199
3 1199 337 1240
3 1199 1240 1200
3 1200 1240 1241
3 1200 1241 1201
3 1201 1241 1242
3 1201 1242 1202
3 1202 1242 1243
3 1202 1243 1244
3 1244 1243 1245
3 1244 1245 1204
3 1204 1245 1246
3 1204 1246 1247
3 1247 1246 1248
3 1247 1248 1249
3 1249 1248 1250
3 1249 1250 1251
3 1251 1250 1252
3 1251 1252 1208
3 1208 1252 1253
3 1208 1253 1209
3 1209 1253 1254
3 1209 1254 1210
3 1210 1254 1255
3 1210 1255 1256
3 1256 1255 1257
3 1256 1257 1212
3 1212 1257 1258
3 1212 1258 1213
3 1213 1258 1259
3 1213 1259 1260
3 1260 1259 1261
3 1260 1261 1262
3 1262 1261 1263
3 1262 1263 1216
3 1216 1263 1264
3 1216 1264 1217
3 1217 1264 1265
3 1266 1267 1268
3 1268 1267 1269
3 1268 1269 1220
3 1220 1269 1270
3 1221 1271 1272
3 1272 1271 1273
3 1272 1273 1274
3 1274 1273 1275
3 1224 1276 1277
3 1277 1276 1278
3 1277 1278 1279
3 1279 1278 1280
3 1227 1281 1228
3 1228 1281 1282
3 1228 1282 1229
3 1229 1282 1283
3 1230 1284 1231
3 1231 1284 1285
3 1231 1285 1286
3 1286 1285 1287
3 1233 1288 1289
3 1289 1288 1290
3 1289 1290 1235
3 1235 1290 1291
3 1236 1292 1293
3 1293 1292 1294
3 1293 1294 1295
3 1295 1294 1296
3 1297 1298 83
3 83 1298 210
3 1 85 1299
3 1299 85 1300
3 1299 1300 1301
3 1301 1300 1302
3 1301 1302 1303
3 1303 1302 1304
3 1303 1304 1305
3 1305 1304 1306
3 1305 1306 1307
3 1307 1306 1308
3 1307 1308 1309
3 1309 1308 1310
3 1309 1310 1311
3 1311 1310 1312
3 1311 1312 1313
3 1313 1312 1314
3 1313 1314 1315
3 1315 1314 1316
3 1315 1316 1317
3 1317 1316 1318
3 1317 1318 1319
3 1319 1318 1320
3 1319 1320 1321
3 1321 1320 1322
3 1321 1322 1323
3 1323 1322 1324
3 1323 1324 1325
3 1325 1324 1326
3 1325 1326 1327
3 1327 1326 1328
3 1327 1328 1329
3 1329 1328 1330
3 1329 1330 1331
3 1331 1330 1332
3 1331 1332 1333
3 1333 1332 1334
3 1333 1334 1335
3 1335 1334 1336
3 1337 1338 1339
3 1339 1338 1340
3 1339 1340 1341
3 1341 1340 1342
3 1343 1344 1345
3 1345 1344 1346
3 1345 1346 1347
3 1347 1346 1348
3 1349 1350 1351
3 1351 1350 1352
3 1351 1352 1353
3 1353 1352 1354
3 1355 1356 1357
3 1357 1356 1358
3 1357 1358 1359
3 1359 1358 1360
3 1361 1362 1363
3 1363 1362 1364
3 1363 1364 1365
3 1365 1364 1366
3 1365 1367 1368
3 1368 1367 1369
3 1368 1369 1370
3 1370 1369 1371
3 1372 1373 1374
3 1374 1373 1375
3 1374 1375 1376
3 1376 1375 1377
3 1378 1379 83
3 85 504 1300
3 1300 504 1380
3 1300 1380 1302
3 1302 1380 1381
3 1302 1381 1304
3 1304 1381 1382
3 1304 1382 1306
3 1306 1382 1383
3 1306 1383 1308
3 1308 1383 1384
3 1308 1384 1310
3 1310 1384 1385
3 1310 1385 1312
3 1312 1385 1386
3 1312 1386 1314
3 1314 1386 1387
3 1314 1387 1316
3 1316 1387 1388
3 1316 1388 1318
3 1318 1388 1389
3 1318 1389 1320
3 1320 1389 1390
3 1320 1390 1322
3 1322 1390 1391
3 1322 1391 1324
3 1324 1391 1392
3 1324 1392 1326
3 1326 1392 1393
3 1326 1393 1328
3 1328 1393 1394
3 1328 1394 1330
3 1330 1394 1395
3 1330 1395 1332
3 1332 1395 1396
3 1332 1396 1334
3 1334 1396 1397
3 1334 1397 1336
3 1336 1397 1398
3 1338 1399 1340
3 1340 1399 1400
3 1340 1400 1342
3 1342 1400 1401
3 1344 1402 1346
3 1346 1402 1403
3 1346 1403 1348
3 1348 1403 1404
3 1350 1405 1352
3 1352 1405 1406
3 1352 1406 1354
3 1354 1406 1407
3 1356 1408 1358
3 1358 1408 1409
3 1358 1409 1360
3 1360 1409 1410
3 1362 1411 1364
3 1364 1411 1412
3 1364 1412 1366
3 1366 1412 1413
3 1367 1414 1369
3 1369 1414 1415
3 1369 1415 1371
3 1371 1415 1416
3 1373 1417 1375
3 1375 1417 1418
3 1375 1418 1377
3 1377 1418 1419
3 1379 1420 83
3 504 865 1380
3 1380 865 1421
3 1380 1421 1381
3 1381 1421 1422
3 1381 1422 1382
3 1382 1422 1423
3 1382 1423 1383
3 1383 1423 1424
3 1383 1424 1384
3 1384 1424 1425
3 1384 1425 1385
3 1385 1425 1426
3 1385 1426 1386
3 1386 1426 1427
3 1386 1427 1387
3 1387 1427 1428
3 1387 1428 1388
3 1388 1428 1429
3 1388 1429 1389
3 1389 1429 1430
3 1389 1430 1390
3 1390 1430 1431
3 1390 1431 1391
3 1391 1431 1432
3 1391 1432 1392
3 1392 1432 1433
3 1392 1433 1393
3 1393 1433 1434
3 1393 1434 1394
3 1394 1434 1435
3 1394 1435 1395
3 1395 1435 1436
3 1395 1436 1396
3 1396 1436 1437
3 1396 1437 1397
3 1397 1437 1438
3 1397 1438 1398
3 1398 1438 1439
3 1399 1440 1400
3 1400 1440 1441
3 1400 1441 1401
3 1401 1441 1442
3 1402 1443 1403
3 1403 1443 1444
3 1403 1444 1404
3 1404 1444 1445
3 1405 1446 1406
3 1406 1446 1447
3 1406 1447 1407
3 1407 1447 1448
3 1408 1449 1409
3 1409 1449 1450
3 1409 1450 1410
3 1410 1450 1451
3 1411 1452 1412
3 1412 1452 1453
3 1412 1453 1413
3 1413 1453 1454
3 1414 1455 1415
3 1415 1455 1456
3 1415 1456 1416
3 1416 1456 1457
3 1417 1458 1418
3 1418 1458 1459
3 1418 1459 1419
3 1419 1459 1460
3 1420 1461 792
3 793 85 1462
3 1462 85 1463
3 1462 1463 1464
3 1464 1463 1465
3 1464 1465 1466
3 1466 1465 1467
3 1466 1467 1468
3 1468 1467 1469
3 1468 1469 1470
3 1470 1469 1471
3 1470 1471 1472
3 1472 1471 1473
3 1472 1473 1474
3 1474 1473 1475
3 1474 1475 1476
3 1476 1475 1477
3 1476 1477 1478
3 1478 1477 1479
3 1478 1479 1480
3 1480 1479 1481
3 1480 1481 1482
3 1482 1481 1483
3 1482 1483 1484
3 1484 1483 1485
3 1484 1485 1433
3 1433 1485 1486
3 1433 1486 1487
3 1487 1486 1488
3 1487 1488 1489
3 1489 1488 1490
3 1489 1490 1491
3 1491 1490 1492
3 1491 1492 1493
3 1493 1492 1494
3 1493 1494 1495
3 1495 1494 1496
3 1495 1496 1497
3 1497 1496 1498
3 1499 1500 1501
3 1501 1500 1502
3 1501 1502 1503
3 1503 1502 1504
3 1505 1506 1507
3 1507 1506 1508
3 1507 1508 1509
3 1509 1508 1510
3 1511 1512 1513
3 1513 1512 1514
3 1513 1514 1515
3 1515 1514 1516
3 1517 1518 1519
3 1519 1518 1520
3 1519 1520 1521
3 1521 1520 1522
3 1523 1524 1525
3 1525 1524 1526
3 1525 1526 1527
3 1527 1526 1528
3 1529 1530 1531
3 1531 1530 1532
3 1531 1532 1533
3 1533 1532 1534
3 1535 1536 1537
3 1537 1536 1538
3 1537 1538 1539
3 1539 1538 1540
3 1541 1542 792
3 792 1542 210
3 1543 85 1544
3 1543 1544 1545
3 1545 1544 1546
3 1545 1546 1547
3 1547 1546 1548
3 1547 1548 1549
3 1549 1548 1550
3 1549 1550 1551
3 1551 1550 1552
3 1551 1552 1473
3 1473 1552 1553
3 1473 1553 1554
3 1554 1553 1555
3 1554 1555 1556
3 1556 1555 1557
3 1556 1557 1558
3 1558 1557 1559
3 1558 1559 1560
3 1560 1559 1561
3 1560 1561 1562
3 1562 1561 1563
3 1562 1563 1564
3 1564 1563 1565
3 1564 1565 1566
3 1566 1565 1567
3 1566 1567 1568
3 1568 1567 1569
3 1568 1569 1570
3 1570 1569 1571
3 1570 1571 1572
3 1572 1571 1573
3 1572 1573 1574
3 1574 1573 1575
3 1574 1575 1576
3 1576 1575 1577
3 1576 1577 1578
3 1578 1577 1579
3 1580 1581 1582
3 1582 1581 1583
3 1582 1583 1584
3 1584 1583 1585
3 1586 1587 1588
3 1588 1587 1589
3 1588 1589 1590
3 1590 1589 1591
3 1592 1593 1594
3 1594 1593 1595
3 1594 1595 1596
3 1596 1595 1597
3 1598 1599 1600
3 1600 1599 1601
3 1600 1601 1602
3 1602 1601 1603
3 1604 1605 1606
3 1606 1605 1607
3 1606 1607 1608
3 1608 1607 1609
3 1610 1611 1612
3 1612 1611 1613
3 1612 1613 1614
3 1614 1613 1615
3 1536 1616 1617
3 1617 1616 1618
3 1617 1618 1619
3 1619 1618 1620
3 1621 1622 1623
3 1623 1622 83
3 1544 85 0
3 1544 0 1546
3 1546 0 3
3 1546 3 1548
3 1548 3 5
3 1548 5 1550
3 1550 5 7
3 1550 7 1552
3 1552 7 9
3 1552 9 1553
3 1553 9 11
3 1553 11 1555
3 1555 11 13
3 1555 13 1557
3 1557 13 15
3 1557 15 1559
3 1559 15 17
3 1559 17 1561
3 1561 17 19
3 1561 19 1563
3 1563 19 21
3 1563 21 1565
3 1565 21 23
3 1565 23 1567
3 1567 23 25
3 1567 25 1569
3 1569 25 27
3 1569 27 1571
3 1571 27 29
3 1571 29 1573
3 1573 29 31
3 1573 31 1575
3 1575 31 33
3 1575 33 1577
3 1577 33 35
3 1577 35 1579
3 1579 35 37
3 1581 39 1583
3 1583 39 41
3 1583 41 1585
3 1585 41 43
3 1587 45 1589
3 1589 45 47
3 1589 47 1591
3 1591 47 49
3 1593 51 1595
3 1595 51 53
3 1595 53 1597
3 1597 53 55
3 1599 57 1601
3 1601 57 59
3 1601 59 1603
3 1603 59 61
3 1605 63 1607
3 1607 63 65
3 1607 65 1609
3 1609 65 67
3 1611 69 1613
3 1613 69 71
3 1613 71 1615
3 1615 71 73
3 1616 75 1618
3 1618 75 77
3 1618 77 1620
3 1620 77 79
3 1622 81 83
