# vtk DataFile Version 2.0
File written by itkPolyDataMeshIO
ASCII
DATASET POLYDATA
POINTS 386 float
-81.1412 -11.568642 375.4932
-81.141205 -11.568642 375.4932
-84.7065 -11.666115 375.0769
-84.6109 -12.406975 374.9557
-88.87368 -12.403191 376.75348
-88.8211 -13.281029 376.62103
-93.34447 -13.624504 379.58243
-93.3104 -14.33329 379.48282
-97.98563 -15.217995 381.5886
-97.803604 -15.896996 381.49255
-102.76406 -17.503471 381.97968
-102.41672 -18.138786 381.90842
-102.76405 -17.503471 381.9797
-102.41671 -18.138786 381.90845
-108.14829 -20.27465 380.66846
-107.65342 -20.83825 380.57053
-114.0588 -22.779488 378.94354
-113.58546 -23.312859 378.7653
-119.93143 -24.453743 377.85165
-119.65811 -24.989616 377.61343
-119.931435 -24.453743 377.85165
-119.65812 -24.989616 377.61343
-125.057915 -25.38784 376.90424
-124.87441 -25.865181 376.674
-128.52425 -25.609306 375.93335
-128.3223 -26.11341 375.69
-130.44962 -25.978432 375.86176
-130.2834 -26.38073 375.6698
-130.44962 -25.978447 375.86172
-130.28342 -26.380745 375.66977
-131.48639 -27.048744 377.13028
-81.1412 -11.568642 375.49316
-84.35538 -13.121071 374.99976
-88.58759 -14.143013 376.70767
-93.15925 -15.037117 379.5881
-97.56435 -16.552269 381.59497
-102.07962 -18.755363 382.01822
-102.07961 -18.755348 382.01822
-107.195694 -21.459984 380.65097
-113.1563 -23.957909 378.77936
-119.44358 -25.609993 377.57434
-119.44359 -25.609993 377.57437
-124.74183 -26.425774 376.63242
-128.17986 -26.699638 375.65228
-130.17108 -26.83535 375.6408
-130.17108 -26.835365 375.64078
-131.4864 -27.04876 377.13025
-83.97731 -13.747902 375.19995
-88.210915 -14.904488 376.99734
-92.914246 -15.663811 379.87268
-97.28555 -17.142067 381.85968
-101.76219 -19.335136 382.27707
-101.762184 -19.335136 382.2771
-106.81569 -22.081154 380.8877
-112.828186 -24.620735 378.9715
-119.31064 -26.237587 377.72443
-124.67757 -26.974083 376.7723
-128.11467 -27.278313 375.8155
-130.12222 -27.294655 375.77252
-130.12222 -27.29467 375.7725
-131.48639 -27.04876 377.13028
-83.518715 -14.258446 375.54114
-87.737144 -15.524284 377.46228
-92.603035 -16.177528 380.30325
-96.98084 -17.64373 382.2608
-101.46966 -19.864632 382.67728
-106.53037 -22.66996 381.26965
-112.62261 -25.24102 379.31094
-119.261765 -26.806496 378.0216
-119.26177 -26.806496 378.02164
-124.67662 -27.461342 377.05197
-128.11963 -27.792015 376.12775
-130.13063 -27.704124 376.01947
-130.13065 -27.70414 376.01944
-81.1412 -11.568657 375.49316
-83.017235 -14.617729 375.9899
-87.20692 -15.965584 378.0552
-92.251274 -16.556618 380.83765
-96.67091 -18.035866 382.76575
-101.2233 -20.30796 383.19067
-101.2233 -20.30793 383.1907
-106.34877 -23.201454 381.77295
-112.53539 -25.81623 379.78262
-119.29043 -27.318565 378.453
-124.72588 -27.884651 377.43347
-128.17828 -28.227547 376.53687
-130.18503 -28.048943 376.34528
-130.18504 -28.048958 376.34525
-131.4864 -27.048744 377.13028
-81.141205 -11.568642 375.49316
-83.01723 -14.617729 375.98996
-82.4945 -14.795082 376.51797
-86.64482 -16.198082 378.73776
-92.251274 -16.556618 380.83768
-91.874306 -16.786156 381.44583
-96.36459 -18.304527 383.35535
-101.2233 -20.30796 383.1907
-101.03321 -20.637596 383.79752
-101.2233 -20.30793 383.19073
-101.0332 -20.63758 383.79752
-106.291534 -23.643364 382.38773
-112.53539 -25.81623 379.78265
-112.582436 -26.316856 380.3709
-119.29042 -27.318565 378.453
-119.390076 -27.747795 378.97733
-119.29043 -27.318565 378.45303
-119.39008 -27.747795 378.97733
-124.725876 -27.884651 377.43347
-124.81844 -28.231407 377.89117
-128.28175 -28.585411 377.02008
-130.27463 -28.333763 376.7255
-130.27463 -28.333778 376.72546
-131.48639 -27.048744 377.13025
-81.1412 -11.568626 375.4932
-81.976105 -14.785515 377.10043
-86.07965 -16.219719 379.4752
-91.49263 -16.862099 382.09256
-96.07693 -18.434639 383.999
-100.90718 -20.836266 384.4836
-100.90717 -20.836235 384.48364
-106.36921 -23.959679 383.0886
-112.77031 -26.682472 381.0166
-119.55064 -28.037498 379.5251
-119.55064 -28.037498 379.52505
-124.94626 -28.48095 378.39133
-128.42433 -28.853767 377.55573
-130.39384 -28.542168 377.1374
-130.39386 -28.542183 377.13736
-131.48639 -27.048729 377.1303
-81.1412 -11.568657 375.4932
-81.520805 -14.579857 377.67603
-85.567955 -16.019402 380.19565
-91.13372 -16.77546 382.72623
-95.83006 -18.412407 384.65454
-100.8689 -20.870003 385.1944
-100.86889 -20.870003 385.19443
-106.57801 -24.09098 383.78204
-113.08039 -26.881706 381.65906
-119.77323 -28.215874 380.1229
-119.77324 -28.215874 380.12286
-125.10157 -28.626534 378.90823
-128.59766 -29.013512 378.1082
-130.5435 -28.67498 377.5837
-130.54352 -28.674995 377.58368
-81.14119 -11.568626 375.4932
-81.14119 -11.568626 375.49323
-81.52079 -14.579842 377.67606
-81.152664 -14.189857 378.21555
-85.56795 -16.019402 380.19568
-85.12965 -15.602531 380.8697
-91.133705 -16.775444 382.7263
-90.80319 -16.513298 383.3428
-95.83005 -18.412407 384.65457
-95.62976 -18.211327 385.32526
-100.86888 -20.869987 385.19446
-100.93026 -20.714912 385.88947
-100.86887 -20.869987 385.19446
-100.93025 -20.714912 385.8895
-106.577995 -24.090965 383.78207
-106.927605 -24.034645 384.4499
-113.08038 -26.881691 381.6591
-113.50987 -26.905022 382.29318
-119.77323 -28.215858 380.12292
-120.04839 -28.240196 380.72302
-119.77323 -28.215858 380.1229
-120.0484 -28.240196 380.72305
-125.10156 -28.626518 378.90826
-125.28887 -28.647621 379.44223
-128.59766 -29.013496 378.10822
-128.80072 -29.043053 378.6651
-130.5435 -28.674965 377.5837
-130.71211 -28.701698 378.01852
-130.5435 -28.674965 377.58368
-130.71213 -28.701714 378.01846
-131.48639 -27.048744 377.1303
-80.899 -13.635292 378.68103
-84.799515 -14.983925 381.45056
-90.53434 -16.0794 383.8779
-95.5111 -17.829277 385.9106
-101.11411 -20.348076 386.48093
-101.114105 -20.348045 386.48096
-107.38998 -23.772987 385.00552
-114.00839 -26.741188 382.8435
-120.36263 -28.081276 381.2903
-125.50291 -28.513145 379.95892
-129.03308 -28.912132 379.20627
-130.9053 -28.599556 378.4434
-130.90532 -28.599556 378.44333
-131.48639 -27.048729 377.13028
-81.1412 -11.568626 375.49323
-80.78358 -12.972145 379.02368
-84.61085 -14.217659 381.8738
-90.368866 -15.48745 384.2713
-95.50935 -17.269646 386.33698
-101.38941 -19.82505 386.86197
-101.3894 -19.825035 386.862
-107.9014 -23.352837 385.37402
-114.52374 -26.394646 383.2641
-120.67946 -27.735573 381.74847
-120.67947 -27.735573 381.74847
-125.72354 -28.203087 380.39026
-129.27454 -28.594246 379.66318
-131.10362 -28.352074 378.8008
-131.10364 -28.352089 378.80078
-80.78358 -12.972145 379.0237
-80.81271 -12.241478 379.21973
-84.61085 -14.217659 381.87384
-84.58158 -13.35424 382.1049
-90.368866 -15.487434 384.27133
-90.32944 -14.787102 384.4746
-95.50935 -17.26963 386.33698
-95.62586 -16.596107 386.54904
-101.38941 -19.825035 386.86197
-101.71359 -19.217445 387.02533
-101.71358 -19.21743 387.02533
-108.41283 -22.827232 385.56018
-114.52375 -26.394646 383.2641
-115.02328 -25.903831 383.53162
-120.96853 -27.248863 382.05295
-120.96854 -27.248863 382.05295
-125.92177 -27.754997 380.67847
-129.49338 -28.116478 379.96713
-131.10364 -28.352074 378.80084
-131.28201 -27.975838 379.03757
-131.28201 -27.975853 379.03754
-81.1412 -11.568642 375.49323
-80.97612 -11.497139 379.26227
-84.71304 -12.466972 382.12955
-90.41339 -14.069969 384.4721
-95.827934 -15.917259 386.5507
-102.05887 -18.576698 387.01447
-102.05886 -18.576698 387.0145
-108.89209 -22.229744 385.58453
-115.469635 -25.3171 383.62338
-121.20666 -26.66462 382.17868
-121.206665 -26.66462 382.17868
-126.07483 -27.223564 380.7931
-129.66138 -27.550926 380.08472
-131.41864 -27.52845 379.13107
-131.41864 -27.528465 379.13104
-81.14119 -11.568642 375.4932
-81.27029 -10.800148 379.1348
-84.99632 -11.639641 381.9377
-90.60332 -13.40876 384.28256
-96.090645 -15.288536 386.3834
-102.40035 -17.949486 386.85095
-102.400345 -17.949486 386.85098
-109.30762 -21.59742 385.445
-115.83054 -24.670952 383.52936
-121.376915 -26.031136 382.12015
-121.37692 -26.031136 382.12015
-126.17496 -26.660255 380.74246
-129.76883 -26.962791 380.02817
-131.50345 -27.06646 379.08743
-131.50345 -27.066475 379.0874
-81.14119 -11.568626 375.49326
-81.67962 -10.198128 378.84268
-85.412766 -10.924828 381.54178
-90.88591 -12.82795 383.92404
-96.4013 -14.720192 386.06613
-102.71682 -17.3749 386.54953
-102.71681 -17.374886 386.54953
-109.64112 -20.968666 385.1518
-116.09856 -24.006142 383.26993
-121.4769 -25.422447 381.91608
-121.476906 -25.422447 381.91608
-126.2212 -26.125008 380.55948
-129.81784 -26.393059 379.82687
-131.54007 -26.615929 378.93008
-131.54007 -26.61596 378.93005
-81.14118 -11.568611 375.49326
-81.67961 -10.198128 378.84268
-82.14191 -9.765572 378.44083
-85.41276 -10.924812 381.54178
-85.91897 -10.382973 380.98917
-90.885895 -12.827934 383.92407
-91.24135 -12.367302 383.42657
-96.40129 -14.720161 386.06616
-96.719185 -14.274361 385.63596
-102.71681 -17.37487 386.54953
-102.99528 -16.878227 386.1164
-102.7168 -17.37487 386.54956
-102.99527 -16.878212 386.11642
-109.64111 -20.968636 385.15182
-109.88349 -20.381187 384.71777
-116.09856 -24.006126 383.26993
-116.254654 -23.376045 382.87332
-121.47689 -25.422447 381.9161
-121.50191 -24.854515 381.57507
-126.22119 -26.124992 380.55948
-126.21099 -25.64521 380.2526
-129.81784 -26.393028 379.82687
-129.80154 -25.883415 379.4873
-131.54005 -26.615913 378.9301
-131.52196 -26.20588 378.65866
-131.52197 -26.205894 378.65863
-131.48639 -27.048714 377.1303
-82.6544 -9.491432 377.9336
-86.45294 -10.044167 380.35367
-91.59779 -12.063118 382.87018
-97.04225 -13.941628 385.08304
-103.212326 -16.50019 385.558
-103.21231 -16.50019 385.55804
-109.98697 -19.894402 384.1441
-116.26668 -22.81382 382.31552
-121.444786 -24.349144 381.09552
-121.444786 -24.349144 381.09555
-126.15036 -25.238182 379.848
-129.73135 -25.471016 379.06094
-131.45866 -25.87815 378.3201
-131.45868 -25.878181 378.32007
-83.1599 -9.419243 377.37955
-87.00593 -9.930489 379.6475
-91.979454 -11.922737 382.24637
-97.34169 -13.757545 384.46432
-103.3587 -16.250587 384.90704
-103.3587 -16.250557 384.90707
-109.96858 -19.531609 383.4969
-116.14748 -22.390846 381.70328
-121.30579 -23.987663 380.53424
-126.03518 -24.948448 379.3605
-129.60147 -25.17765 378.5455
-131.34511 -25.64759 377.91006
-131.34512 -25.647606 377.91003
-83.64657 -9.557442 376.78946
-87.55138 -10.045372 378.90207
-92.35951 -11.943657 381.5931
-97.60615 -13.730019 383.8051
-103.422455 -16.15818 384.1882
-103.42245 -16.15818 384.1882
-109.81277 -19.319695 382.78348
-115.900795 -22.11988 381.0676
-121.11628 -23.77906 379.982
-125.882965 -24.783546 378.842
-129.42958 -25.007362 377.98868
-131.20355 -25.515038 377.48438
-131.20355 -25.515053 377.48434
-84.07474 -9.870308 376.23166
-88.038155 -10.365028 378.20535
-92.7045 -12.124153 380.96683
-97.82364 -13.858986 383.1344
-103.39094 -16.243034 383.4689
-103.39094 -16.243034 383.46893
-109.51791 -19.289146 382.0714
-115.52645 -22.013695 380.40265
-120.86056 -23.711617 379.3808
-120.860565 -23.711617 379.3808
-125.70073 -24.736961 378.30875
-129.22755 -24.958641 377.42355
-131.03366 -25.477562 377.0405
-131.03368 -25.477562 377.04044
-84.407814 -10.343239 375.7548
-88.44309 -10.880898 377.59973
-93.00607 -12.47506 380.3948
-97.97121 -14.161873 382.50284
-103.26302 -16.503365 382.82336
-103.26302 -16.503334 382.82336
-109.12132 -19.445198 381.4537
-115.0698 -22.089638 379.7899
-120.55634 -23.79116 378.76865
-125.49241 -24.815773 377.77646
-128.99928 -25.037605 376.86368
-130.83989 -25.536171 376.59
-130.8399 -25.536201 376.58997
-84.40782 -10.343224 375.75476
-84.63554 -10.962349 375.3506
-88.7429 -11.582314 377.09225
-93.00607 -12.475075 380.39484
-93.23517 -12.990959 379.91016
-97.97121 -14.161873 382.50287
-98.03265 -14.629402 381.9596
-103.26302 -16.503365 382.82333
-103.050415 -16.932762 382.30157
-103.05041 -16.932747 382.30164
-109.12132 -19.445213 381.4537
-108.65508 -19.781136 380.96973
-114.57721 -22.348488 379.30707
-120.25201 -24.034615 378.2752
-120.55635 -23.79116 378.76865
-120.25201 -24.034615 378.27524
-125.49241 -24.815788 377.77643
-125.273705 -25.03173 377.29523
-128.75894 -25.252403 376.34918
-130.83989 -25.536186 376.59003
-130.64539 -25.6986 376.19525
-130.64539 -25.698631 376.1952
POLYGONS 544 2176
3 0 1 2
3 2 1 3
3 2 3 4
3 4 3 5
3 4 5 6
3 6 5 7
3 6 7 8
3 8 7 9
3 8 9 10
3 10 9 11
3 12 13 14
3 14 13 15
3 14 15 16
3 16 15 17
3 16 17 18
3 18 17 19
3 20 21 22
3 22 21 23
3 22 23 24
3 24 23 25
3 24 25 26
3 26 25 27
3 28 29 30
3 1 31 3
3 3 31 32
3 3 32 5
3 5 32 33
3 5 33 7
3 7 33 34
3 7 34 9
3 9 34 35
3 9 35 11
3 11 35 36
3 13 37 15
3 15 37 38
3 15 38 17
3 17 38 39
3 17 39 19
3 19 39 40
3 21 41 23
3 23 41 42
3 23 42 25
3 25 42 43
3 25 43 27
3 27 43 44
3 29 45 30
3 30 45 46
3 31 0 32
3 32 0 47
3 32 47 33
3 33 47 48
3 33 48 34
3 34 48 49
3 34 49 35
3 35 49 50
3 35 50 36
3 36 50 51
3 37 52 38
3 38 52 53
3 38 53 39
3 39 53 54
3 39 54 40
3 40 54 55
3 41 55 42
3 42 55 56
3 42 56 43
3 43 56 57
3 43 57 44
3 44 57 58
3 45 59 46
3 46 59 60
3 47 0 61
3 47 61 48
3 48 61 62
3 48 62 49
3 49 62 63
3 49 63 50
3 50 63 64
3 50 64 51
3 51 64 65
3 52 65 53
3 53 65 66
3 53 66 54
3 54 66 67
3 54 67 55
3 55 67 68
3 55 69 56
3 56 69 70
3 56 70 57
3 57 70 71
3 57 71 58
3 58 71 72
3 59 73 60
3 60 73 30
3 0 74 61
3 61 74 75
3 61 75 62
3 62 75 76
3 62 76 63
3 63 76 77
3 63 77 64
3 64 77 78
3 64 78 65
3 65 78 79
3 65 80 66
3 66 80 81
3 66 81 67
3 67 81 82
3 67 82 68
3 68 82 83
3 69 83 70
3 70 83 84
3 70 84 71
3 71 84 85
3 71 85 72
3 72 85 86
3 73 87 30
3 30 87 88
3 89 0 90
3 90 0 91
3 90 91 76
3 76 91 92
3 76 92 93
3 93 92 94
3 93 94 78
3 78 94 95
3 78 95 96
3 96 95 97
3 98 99 81
3 81 99 100
3 81 100 101
3 101 100 102
3 101 102 103
3 103 102 104
3 105 106 107
3 107 106 108
3 107 108 85
3 85 108 109
3 85 109 86
3 86 109 110
3 87 111 112
3 112 111 88
3 0 113 91
3 91 113 114
3 91 114 92
3 92 114 115
3 92 115 94
3 94 115 116
3 94 116 95
3 95 116 117
3 95 117 97
3 97 117 118
3 99 119 100
3 100 119 120
3 100 120 102
3 102 120 121
3 102 121 104
3 104 121 122
3 106 123 108
3 108 123 124
3 108 124 109
3 109 124 125
3 109 125 110
3 110 125 126
3 111 127 88
3 88 127 128
3 113 129 114
3 114 129 130
3 114 130 115
3 115 130 131
3 115 131 116
3 116 131 132
3 116 132 117
3 117 132 133
3 117 133 118
3 118 133 134
3 119 135 120
3 120 135 136
3 120 136 121
3 121 136 137
3 121 137 122
3 122 137 138
3 123 139 124
3 124 139 140
3 124 140 125
3 125 140 141
3 125 141 126
3 126 141 142
3 127 143 128
3 128 143 46
3 144 145 146
3 146 145 147
3 146 147 148
3 148 147 149
3 148 149 150
3 150 149 151
3 150 151 152
3 152 151 153
3 152 153 154
3 154 153 155
3 156 157 158
3 158 157 159
3 158 159 160
3 160 159 161
3 160 161 162
3 162 161 163
3 164 165 166
3 166 165 167
3 166 167 168
3 168 167 169
3 168 169 170
3 170 169 171
3 172 173 174
3 174 173 128
3 147 145 175
3 147 175 149
3 149 175 176
3 149 176 151
3 151 176 177
3 151 177 153
3 153 177 178
3 153 178 155
3 155 178 179
3 157 180 159
3 159 180 181
3 159 181 161
3 161 181 182
3 161 182 163
3 163 182 183
3 165 183 167
3 167 183 184
3 167 184 169
3 169 184 185
3 169 185 171
3 171 185 186
3 173 187 128
3 128 187 188
3 145 189 175
3 175 189 190
3 175 190 176
3 176 190 191
3 176 191 177
3 177 191 192
3 177 192 178
3 178 192 193
3 178 193 179
3 179 193 194
3 180 195 181
3 181 195 196
3 181 196 182
3 182 196 197
3 182 197 183
3 183 197 198
3 183 199 184
3 184 199 200
3 184 200 185
3 185 200 201
3 185 201 186
3 186 201 202
3 187 203 188
3 188 203 30
3 113 0 204
3 204 0 205
3 204 205 206
3 206 205 207
3 206 207 208
3 208 207 209
3 208 209 210
3 210 209 211
3 210 211 212
3 212 211 213
3 195 214 196
3 196 214 215
3 196 215 216
3 216 215 217
3 216 217 198
3 198 217 218
3 199 219 200
3 200 219 220
3 200 220 201
3 201 220 221
3 201 221 222
3 222 221 223
3 203 224 30
3 0 225 205
3 205 225 226
3 205 226 207
3 207 226 227
3 207 227 209
3 209 227 228
3 209 228 211
3 211 228 229
3 211 229 213
3 213 229 230
3 214 231 215
3 215 231 232
3 215 232 217
3 217 232 233
3 217 233 218
3 218 233 234
3 219 235 220
3 220 235 236
3 220 236 221
3 221 236 237
3 221 237 223
3 223 237 238
3 224 239 30
3 30 239 128
3 225 240 226
3 226 240 241
3 226 241 227
3 227 241 242
3 227 242 228
3 228 242 243
3 228 243 229
3 229 243 244
3 229 244 230
3 230 244 245
3 231 246 232
3 232 246 247
3 232 247 233
3 233 247 248
3 233 248 234
3 234 248 249
3 235 250 236
3 236 250 251
3 236 251 237
3 237 251 252
3 237 252 238
3 238 252 253
3 239 254 128
3 128 254 174
3 240 255 241
3 241 255 256
3 241 256 242
3 242 256 257
3 242 257 243
3 243 257 258
3 243 258 244
3 244 258 259
3 244 259 245
3 245 259 260
3 246 261 247
3 247 261 262
3 247 262 248
3 248 262 263
3 248 263 249
3 249 263 264
3 250 265 251
3 251 265 266
3 251 266 252
3 252 266 267
3 252 267 253
3 253 267 268
3 254 269 174
3 270 145 271
3 271 145 272
3 271 272 273
3 273 272 274
3 273 274 275
3 275 274 276
3 275 276 277
3 277 276 278
3 277 278 279
3 279 278 280
3 281 282 283
3 283 282 284
3 283 284 285
3 285 284 286
3 285 286 287
3 287 286 288
3 264 288 289
3 289 288 290
3 289 290 291
3 291 290 292
3 291 292 293
3 293 292 294
3 268 295 296
3 296 295 174
3 145 1 272
3 272 1 297
3 272 297 274
3 274 297 298
3 274 298 276
3 276 298 299
3 276 299 278
3 278 299 300
3 278 300 280
3 280 300 301
3 282 302 284
3 284 302 303
3 284 303 286
3 286 303 304
3 286 304 288
3 288 304 305
3 288 306 290
3 290 306 307
3 290 307 292
3 292 307 308
3 292 308 294
3 294 308 309
3 295 310 174
3 174 310 112
3 1 255 297
3 297 255 311
3 297 311 298
3 298 311 312
3 298 312 299
3 299 312 313
3 299 313 300
3 300 313 314
3 300 314 301
3 301 314 315
3 302 316 303
3 303 316 317
3 303 317 304
3 304 317 318
3 304 318 305
3 305 318 319
3 306 319 307
3 307 319 320
3 307 320 308
3 308 320 321
3 308 321 309
3 309 321 322
3 310 323 112
3 112 323 128
3 255 225 311
3 311 225 324
3 311 324 312
3 312 324 325
3 312 325 313
3 313 325 326
3 313 326 314
3 314 326 327
3 314 327 315
3 315 327 328
3 316 329 317
3 317 329 330
3 317 330 318
3 318 330 331
3 318 331 319
3 319 331 332
3 319 332 320
3 320 332 333
3 320 333 321
3 321 333 334
3 321 334 322
3 322 334 335
3 323 336 128
3 225 0 324
3 324 0 337
3 324 337 325
3 325 337 338
3 325 338 326
3 326 338 339
3 326 339 327
3 327 339 340
3 327 340 328
3 328 340 341
3 329 342 330
3 330 342 343
3 330 343 331
3 331 343 344
3 331 344 332
3 332 344 345
3 332 346 333
3 333 346 347
3 333 347 334
3 334 347 348
3 334 348 335
3 335 348 349
3 336 350 174
3 174 350 188
3 0 189 337
3 337 189 351
3 337 351 338
3 338 351 352
3 338 352 339
3 339 352 353
3 339 353 340
3 340 353 354
3 340 354 341
3 341 354 355
3 342 356 343
3 343 356 357
3 343 357 344
3 344 357 358
3 344 358 345
3 345 358 359
3 346 359 347
3 347 359 360
3 347 360 348
3 348 360 361
3 348 361 349
3 349 361 362
3 350 363 188
3 189 145 364
3 364 145 365
3 364 365 352
3 352 365 366
3 352 366 367
3 367 366 368
3 367 368 369
3 369 368 370
3 369 370 371
3 371 370 372
3 355 373 374
3 374 373 375
3 374 375 358
3 358 375 376
3 358 376 359
3 359 376 377
3 378 379 380
3 380 379 381
3 380 381 361
3 361 381 382
3 361 382 383
3 383 382 384
3 363 385 188
3 145 0 365
3 365 0 2
3 365 2 366
3 366 2 4
3 366 4 368
3 368 4 6
3 368 6 370
3 370 6 8
3 370 8 372
3 372 8 10
3 373 12 375
3 375 12 14
3 375 14 376
3 376 14 16
3 376 16 377
3 377 16 18
3 379 20 381
3 381 20 22
3 381 22 382
3 382 22 24
3 382 24 384
3 384 24 26
3 385 28 174
3 174 28 30
