# vtk DataFile Version 2.0
File written by itkPolyDataMeshIO
ASCII
DATASET POLYDATA
POINTS 848 float
73.94671 -32.155434 -161.10274
73.94668 -32.15545 -161.10274
77.50616 -31.796333 -162.61113
77.365715 -31.151054 -162.54062
81.57244 -30.982292 -161.35887
81.40963 -30.344627 -161.29329
85.029686 -29.22779 -160.5737
84.767204 -28.648888 -160.51294
88.587425 -26.799858 -160.07645
88.244835 -26.271843 -160.01651
92.46496 -23.843925 -159.33081
92.108055 -23.361092 -159.28888
96.553795 -20.219765 -157.73743
96.169914 -19.79493 -157.72021
100.82787 -16.947884 -154.82652
100.4602 -16.502434 -154.7924
104.702415 -13.478111 -152.28487
104.31899 -13.056038 -152.23889
108.48562 -9.416466 -149.9667
108.08474 -9.044289 -149.92519
111.906364 -4.181313 -147.19006
111.48046 -3.888496 -147.16045
113.46047 1.177132 -144.33804
112.97082 1.294807 -144.33966
112.78225 6.316597 -142.48018
112.2752 6.252647 -142.54333
111.61068 13.211769 -141.99776
111.23437 13.148796 -142.11191
109.92568 19.493813 -142.24638
109.63354 19.421257 -142.33936
108.690544 25.219368 -142.83987
108.398186 25.153786 -142.90071
108.690544 25.219368 -142.83986
108.398186 25.153801 -142.9007
108.50768 30.661064 -143.56065
108.21087 30.64405 -143.6015
108.91195 35.117683 -144.13673
108.64059 35.142265 -144.15985
109.336876 38.270164 -144.55482
109.093864 38.30288 -144.56343
109.33691 38.270164 -144.55481
109.093864 38.302895 -144.56342
109.494896 39.992363 -144.19041
109.494896 39.992348 -144.19041
77.26592 -30.793114 -162.42134
81.29446 -29.991905 -161.17406
84.60348 -28.328712 -160.39693
88.044304 -25.979805 -159.9012
91.89837 -23.094063 -159.18747
95.93566 -19.56054 -157.63919
95.93563 -19.56054 -157.63919
100.21645 -16.258156 -154.70746
104.06591 -12.825127 -152.14696
107.826866 -8.84095 -149.83612
111.20718 -3.731636 -147.0793
112.68682 1.349602 -144.27982
112.02267 6.206001 -142.5268
111.0342 13.109627 -142.13069
109.4587 19.378517 -142.34964
108.22295 25.118385 -142.89346
108.22292 25.1184 -142.89345
108.04061 30.639473 -143.58394
108.48992 35.16102 -144.13628
108.96255 38.324623 -144.53677
108.96258 38.32464 -144.53676
109.494896 39.99238 -144.19041
77.16079 -30.476967 -162.25365
81.17449 -29.681572 -161.00752
84.44558 -28.047066 -160.23372
87.85958 -25.722939 -159.73878
91.704704 -22.859184 -159.0402
95.71264 -19.356133 -157.51317
99.97045 -16.050377 -154.57668
103.81219 -12.630333 -152.0074
107.57351 -8.669685 -149.6993
110.93957 -3.602745 -146.95052
112.42669 1.387474 -144.17795
111.81872 6.157951 -142.47874
110.86437 13.072884 -142.1182
110.86434 13.072884 -142.11818
109.29803 19.339867 -142.32845
108.06509 25.089104 -142.85593
107.894066 30.63929 -143.53934
108.3641 35.180214 -144.09134
108.856255 38.344902 -144.49416
108.856285 38.344917 -144.49414
109.494896 39.992363 -144.19043
73.94674 -32.15542 -161.10274
77.03991 -30.170998 -162.0212
81.03805 -29.382195 -160.77864
84.27804 -27.775383 -160.0086
87.672356 -25.47512 -159.51459
91.507774 -22.632622 -158.83394
95.478966 -19.160912 -157.33096
95.478935 -19.160912 -157.33098
99.69784 -15.857582 -154.38818
103.53243 -12.451408 -151.80737
107.30001 -8.513252 -149.50172
110.66045 -3.495857 -146.75728
112.17358 1.402641 -144.02083
111.635124 6.10302 -142.40099
110.70251 13.035286 -142.07857
110.70254 13.035286 -142.07855
109.13885 19.30259 -142.2789
107.91302 25.063377 -142.79099
107.7586 30.642403 -143.47122
108.251884 35.20043 -144.02856
108.76421 38.364937 -144.43811
108.764244 38.364952 -144.4381
109.494896 39.99238 -144.19043
76.902214 -29.884651 -161.71361
80.884056 -29.100761 -160.47833
84.101494 -27.519936 -159.71262
87.48495 -25.24215 -159.21965
91.30996 -22.41961 -158.55986
95.23635 -18.980461 -157.08403
99.3995 -15.688423 -154.13351
103.22866 -12.297432 -151.53818
107.011925 -8.380989 -149.23466
110.40594 -3.435143 -146.48973
111.975395 1.367012 -143.80211
111.47909 6.036797 -142.29457
110.547874 12.997246 -142.01048
110.547844 12.997246 -142.01048
108.986565 19.268349 -142.2003
107.773155 25.042534 -142.70003
107.773155 25.042534 -142.70001
107.63921 30.648476 -143.38313
108.15716 35.22074 -143.95178
108.68722 38.384285 -144.3708
108.68725 38.3843 -144.3708
73.94668 -32.155434 -161.10272
76.74792 -29.631462 -161.32256
80.71136 -28.844429 -160.09776
83.91668 -27.287117 -159.33691
87.29983 -25.029793 -158.8452
91.11385 -22.22564 -158.20943
94.99453 -18.833733 -156.76237
94.99453 -18.833733 -156.76239
99.10778 -15.603432 -153.79765
102.948296 -12.238472 -151.18248
106.75997 -8.332954 -148.88263
110.21053 -3.444496 -146.16248
111.84228 1.290276 -143.55673
111.35085 5.9627 -142.16817
110.4016 12.959358 -141.91377
110.4016 12.959373 -141.91377
108.846245 19.238533 -142.09355
107.65075 25.02758 -142.58563
107.53979 30.65725 -143.27853
108.08132 35.240685 -143.86366
108.62383 38.403145 -144.2928
108.62383 38.40316 -144.2928
109.494865 39.992363 -144.19041
76.58102 -29.430458 -160.84917
80.51992 -28.623497 -159.62906
83.72573 -27.086128 -158.87332
87.12142 -24.846458 -158.38307
90.92397 -22.058372 -157.77481
94.7687 -18.734718 -156.3668
94.76873 -18.734718 -156.3668
98.8695 -15.637947 -153.40742
102.749626 -12.314537 -150.77827
106.59844 -8.402428 -148.48372
110.09026 -3.523613 -145.81929
111.75564 1.197319 -143.32008
111.24743 5.886147 -142.02843
110.26885 12.922447 -141.79033
110.26882 12.922447 -141.79031
108.72323 19.214333 -141.96185
107.54977 25.01902 -142.45143
107.46209 30.668678 -143.16013
108.02361 35.260353 -143.76526
108.5725 38.421883 -144.20358
108.57253 38.421883 -144.20357
109.49493 39.992363 -144.19043
73.94674 -32.155434 -161.10275
76.42614 -29.373466 -160.32117
80.34548 -28.566078 -159.09532
83.58395 -27.03402 -158.34392
87.02007 -24.798943 -157.85515
90.81371 -22.015251 -157.27385
94.62707 -18.73867 -155.91986
94.62707 -18.738686 -155.91988
98.7127 -15.762581 -153.02023
102.63412 -12.470345 -150.39912
106.52053 -8.541084 -148.10948
110.03689 -3.644279 -145.5012
111.710594 1.093407 -143.0963
111.17092 5.80677 -141.8739
110.15673 12.887169 -141.64294
108.62289 19.196693 -141.8095
107.47338 25.01722 -142.30148
107.406334 30.682915 -143.02986
107.982445 35.2799 -143.65639
108.53344 38.440422 -144.10216
73.94671 -32.15542 -161.10275
76.30981 -29.513176 -159.79857
80.22823 -28.749886 -158.57214
83.53863 -27.201729 -157.8235
87.04699 -24.951912 -157.3359
90.83672 -22.15525 -156.77544
94.61425 -18.87455 -155.47546
98.63308 -15.941429 -152.66785
102.57198 -12.651161 -150.06976
106.49258 -8.701256 -147.78404
110.027885 -3.779396 -145.22148
111.70138 0.982872 -142.88522
111.12368 5.724449 -141.70367
110.07162 12.854195 -141.475
110.07165 12.854195 -141.475
108.549675 19.186302 -141.64124
107.42394 25.0223 -142.14023
107.42394 25.022316 -142.14023
107.372734 30.70002 -142.88985
107.95757 35.2994 -143.53674
108.509026 38.458565 -143.98766
108.509026 38.45858 -143.98766
109.49493 39.992348 -144.19041
76.22503 -29.731056 -159.33708
80.1484 -28.993828 -158.12773
83.53423 -27.423729 -157.38126
87.115685 -25.154411 -156.89453
90.903984 -22.340462 -156.34966
94.65145 -19.04493 -155.09273
94.65142 -19.04493 -155.09273
98.60189 -16.141365 -152.36575
102.55389 -12.847267 -149.78859
106.505394 -8.874672 -147.50565
110.0552 -3.923286 -144.9786
111.72402 0.868553 -142.68672
111.10732 5.641045 -141.52057
110.01751 12.824562 -141.29147
108.50631 19.183586 -141.46262
107.402855 25.034172 -141.97281
107.362236 30.719719 -142.74274
107.95077 35.318657 -143.4063
108.50323 38.475853 -143.85962
108.50326 38.47587 -143.8596
73.94671 -32.155434 -161.10275
76.170006 -29.997246 -158.95139
80.099174 -29.265907 -157.76364
83.55871 -27.67089 -157.01865
87.20971 -25.37983 -156.53255
90.998314 -22.546654 -155.99872
94.7221 -19.232048 -154.77374
98.60955 -16.353981 -152.11163
102.57305 -13.053841 -149.55135
106.55233 -9.057182 -147.27017
110.11297 -4.072746 -144.76984
111.7756 0.753731 -142.50253
111.123314 5.560448 -141.33144
109.996544 12.799614 -141.09897
109.996574 12.799614 -141.09897
108.494225 19.188622 -141.27939
107.41091 25.052315 -141.80446
107.41091 25.052315 -141.80444
107.3767 30.741417 -142.59137
107.965294 35.337242 -143.26523
108.520805 38.491478 -143.71873
108.520836 38.491493 -143.71873
76.141716 -30.296501 -158.6413
80.07656 -29.558998 -157.472
83.60732 -27.936882 -156.72768
87.32421 -25.622444 -156.242
91.114586 -22.768547 -155.71535
94.820305 -19.431282 -154.51245
98.64959 -16.574303 -151.90097
102.62292 -13.266197 -149.35388
106.6271 -9.244728 -147.07362
110.197075 -4.225471 -144.59279
111.85577 0.640587 -142.33514
111.17324 5.486595 -141.144
110.01025 12.780708 -140.90424
108.51388 19.201271 -141.09735
107.44741 25.076088 -141.64075
107.44741 25.076088 -141.64073
107.41726 30.764412 -142.43895
108.00536 35.354424 -143.1146
108.567314 38.504128 -143.56927
108.567345 38.504143 -143.56927
109.494865 39.992363 -144.1904
76.13625 -30.616035 -158.40096
80.07659 -29.865822 -157.24486
83.67571 -28.215248 -156.50049
87.45446 -25.876305 -156.01506
91.247826 -23.000664 -155.49213
94.94048 -19.6381 -154.30289
94.94051 -19.638084 -154.30289
98.71673 -16.7985 -151.72995
102.69842 -13.480858 -149.19301
106.72512 -9.434349 -146.913
110.30663 -4.380577 -144.44594
111.96667 0.529716 -142.18716
111.25762 5.422371 -140.9651
110.05843 12.768822 -140.71387
110.0584 12.768822 -140.71385
108.56429 19.221046 -140.92242
107.509605 25.104317 -141.48767
107.509575 25.104332 -141.48767
107.483635 30.787605 -142.28938
108.07827 35.368477 -142.96088
108.650566 38.51098 -143.42525
108.650566 38.510994 -143.42525
76.14968 -30.946114 -158.2228
80.09533 -30.17965 -157.07442
83.75948 -28.49987 -156.32944
87.59591 -26.135902 -155.84407
91.3933 -23.238075 -155.32199
95.07845 -19.84922 -154.13997
98.81014 -17.026405 -151.59709
102.800285 -13.69883 -149.06851
106.84725 -9.627022 -146.78809
110.444115 -4.539406 -144.32957
112.11028 0.420647 -142.06111
111.37481 5.369316 -140.80042
110.1394 12.764336 -140.534
110.1394 12.764366 -140.534
108.643425 19.247185 -140.76038
107.593864 25.135612 -141.35124
107.593834 25.135612 -141.35124
107.57613 30.809319 -142.14917
108.1907 35.375877 -142.82289
108.77444 38.508003 -143.3138
108.77447 38.50802 -143.31378
109.49493 39.99238 -144.19041
76.17947 -31.281578 -158.10109
80.130455 -30.496712 -156.95581
83.85604 -28.787407 -156.20973
87.74593 -26.398155 -155.72432
91.54818 -23.477913 -155.2005
95.232445 -20.063667 -154.02081
95.232445 -20.063652 -154.02083
98.93276 -17.260933 -151.50299
102.93316 -13.92408 -148.9824
106.99798 -9.826134 -146.70096
110.61187 -4.703209 -144.24596
112.28545 0.314613 -141.96046
111.5216 5.328835 -140.65517
110.250694 12.767418 -140.37045
108.748314 19.27874 -140.61642
107.69756 25.16845 -141.23718
107.69753 25.16845 -141.23718
107.7004 30.82534 -142.03835
108.33926 35.37417 -142.72151
108.9175 38.497765 -143.23854
108.9175 38.49778 -143.23853
76.22576 -31.62429 -158.03494
80.18316 -30.819756 -156.8906
83.96694 -29.080345 -156.14291
87.90621 -26.665352 -155.65732
91.714226 -23.722282 -155.12914
95.40496 -20.283424 -153.94693
95.40499 -20.283424 -153.94695
99.08831 -17.505074 -151.44995
103.10125 -14.159645 -148.9374
107.181206 -10.034096 -146.65436
110.809166 -4.870827 -144.19873
112.486595 0.215599 -141.89001
111.693565 5.302544 -140.53441
110.38845 12.777855 -140.22845
110.38848 12.777855 -140.22845
108.8742 19.314262 -140.49478
107.816734 25.201881 -141.1477
107.84539 30.834969 -141.96793
108.50301 35.364326 -142.66626
109.06051 38.483467 -143.19574
109.06051 38.483482 -143.19574
76.29064 -31.980171 -158.02782
80.25631 -31.155266 -156.88396
84.095665 -29.38459 -156.13416
88.08071 -26.942848 -155.64822
91.89565 -23.976051 -155.11252
95.59951 -20.510902 -153.92207
99.2766 -17.755592 -151.4409
103.30239 -14.400719 -148.93622
107.39394 -10.246513 -146.65108
111.02993 -5.036507 -144.19202
112.70544 0.128868 -141.85475
111.884544 5.291573 -140.44228
110.54748 12.795067 -140.11237
109.0144 19.351814 -140.39886
107.94671 25.235283 -141.08167
107.94671 25.235298 -141.08167
107.99404 30.841316 -141.92905
108.66045 35.350197 -142.64664
109.195366 38.46662 -143.18098
109.1954 38.466637 -143.18098
73.94668 -32.155434 -161.10274
76.37588 -32.350914 -158.08524
80.3518 -31.505241 -156.9404
84.2441 -29.701973 -156.18784
88.27126 -27.232323 -155.70137
92.09435 -24.24076 -155.15477
95.81643 -20.744392 -153.94984
95.8164 -20.744392 -153.94984
99.49233 -18.002098 -151.47887
103.52801 -14.634789 -148.98175
107.626854 -10.452278 -146.69418
111.26479 -5.191475 -144.22913
112.93343 0.059151 -141.85814
112.08813 5.296623 -140.3822
110.72219 12.818352 -140.02596
110.72216 12.818352 -140.02594
109.16302 19.389656 -140.33145
108.08422 25.268074 -141.03836
108.140434 30.846626 -141.91203
108.80398 35.334602 -142.65025
109.31887 38.44851 -143.18837
109.31887 38.448524 -143.18837
73.94668 -32.15545 -161.1027
76.480675 -32.72625 -158.2112
80.3518 -31.505257 -156.9404
80.467735 -31.85987 -157.0608
84.408714 -30.023552 -156.30486
88.27126 -27.232307 -155.70137
88.47277 -27.525612 -155.81769
92.305046 -24.508934 -155.2571
96.04946 -20.9757 -154.03198
96.04946 -20.975685 -154.03198
99.49236 -18.002098 -151.47887
99.727135 -18.231194 -151.56596
103.52801 -14.634789 -148.98177
103.76769 -14.847618 -149.07632
107.626884 -10.452278 -146.69418
107.86883 -10.638954 -146.78596
111.503654 -5.327232 -144.31139
112.933464 0.059166 -141.85814
113.16265 0.009651 -141.90094
112.08816 5.296623 -140.3822
112.29742 5.317696 -140.35617
110.90606 12.846931 -139.97133
109.16302 19.389671 -140.33145
109.31588 19.426918 -140.29338
108.22808 25.29972 -141.01848
108.08422 25.26809 -141.03836
108.22805 25.29972 -141.01848
108.28472 30.85096 -141.91551
108.80401 35.334602 -142.65025
108.93389 35.317924 -142.67332
109.43041 38.429726 -143.2135
109.3189 38.448524 -143.18837
109.43041 38.42974 -143.2135
109.494865 39.992348 -144.1904
76.480675 -32.726234 -158.21121
76.60107 -33.084953 -158.40596
80.467735 -31.859856 -157.06082
80.59896 -32.19883 -157.24321
84.408714 -30.023537 -156.30487
84.58111 -30.330956 -156.4834
88.47277 -27.525597 -155.81769
88.6744 -27.806007 -155.99538
92.305046 -24.508919 -155.2571
92.5165 -24.765282 -155.41818
96.28686 -21.191795 -154.16809
99.727165 -18.231194 -151.56598
99.971245 -18.430595 -151.70189
103.76772 -14.847588 -149.07634
104.01183 -15.028038 -149.21947
107.86883 -10.638939 -146.78598
108.109795 -10.796806 -146.92604
111.503654 -5.327217 -144.31139
111.73745 -5.437309 -144.43762
113.16268 0.009682 -141.90096
113.38552 -0.017738 -141.98192
112.29748 5.317711 -140.35619
112.50503 5.353981 -140.36453
110.90609 12.846931 -139.97134
111.091606 12.879829 -139.94844
110.90609 12.846947 -139.97133
109.31591 19.426933 -140.2934
109.47115 19.463646 -140.28339
108.22808 25.299751 -141.0185
108.37884 25.330208 -141.02315
108.22805 25.299736 -141.0185
108.37884 25.330223 -141.02315
108.28472 30.85099 -141.91551
108.427574 30.854347 -141.93974
108.93389 35.317924 -142.67334
109.05096 35.300606 -142.71297
109.43044 38.42974 -143.21353
109.53033 38.410713 -143.25319
109.43044 38.429756 -143.21352
109.53033 38.41073 -143.25319
109.494896 39.992363 -144.1904
76.731804 -33.404823 -158.66537
80.73986 -32.501976 -157.48418
84.75271 -30.605873 -156.72015
88.865135 -28.056755 -156.23114
92.71703 -24.994469 -155.63539
96.516685 -21.380714 -154.35616
96.516716 -21.380714 -154.35616
100.21526 -18.592033 -151.88315
104.251945 -15.169502 -149.40685
108.34139 -10.920128 -147.11015
111.958336 -5.517769 -144.6041
113.59475 -0.022072 -142.09859
112.70321 5.404106 -140.40642
111.27087 12.915825 -139.95628
111.27087 12.91584 -139.95628
109.62716 19.499886 -140.29985
108.5375 25.359566 -141.05354
108.5375 25.359581 -141.05354
108.56957 30.856697 -141.98505
109.155846 35.2828 -142.76718
109.619316 38.391487 -143.30634
109.61935 38.391502 -143.30634
76.86736 -33.66912 -158.98085
80.885155 -32.754417 -157.77724
84.91625 -30.834846 -157.00883
89.03625 -28.265572 -156.5188
92.8977 -25.18528 -155.90315
96.729515 -21.533638 -154.59134
96.729485 -21.533638 -154.59134
100.45071 -18.709389 -152.10426
104.48031 -15.267235 -149.63252
108.556175 -11.004707 -147.33249
112.159325 -5.565941 -144.8055
113.783745 -0.003349 -142.24712
112.885216 5.466194 -140.47998
111.43795 12.953819 -139.99377
111.43795 12.953835 -139.99376
109.782005 19.535362 -140.34264
108.704124 25.38752 -141.11203
108.704124 25.387535 -141.11203
108.711205 30.857872 -142.05273
109.24917 35.264534 -142.83578
109.698204 38.371773 -143.37411
109.698235 38.371788 -143.37411
73.94671 -32.15542 -161.10274
76.86736 -33.669136 -158.98087
77.00265 -33.867622 -159.34048
80.885124 -32.754417 -157.77725
81.02999 -32.947517 -158.11276
84.91622 -30.834846 -157.00885
85.066246 -31.010094 -157.34001
89.18203 -28.425423 -156.84888
93.05245 -25.331306 -156.21275
96.91811 -21.645454 -154.86612
96.91811 -21.645454 -154.86613
100.45071 -18.709373 -152.10426
100.669945 -18.778648 -152.35852
104.68957 -15.317772 -149.88977
108.747154 -11.047569 -147.58636
112.333916 -5.580238 -145.03549
113.94631 0.037148 -142.4217
113.046104 5.537224 -140.58067
111.591576 12.992851 -140.05911
111.43792 12.953835 -139.99376
111.591576 12.992851 -140.0591
109.781975 19.535362 -140.34264
109.934044 19.569435 -140.4141
108.704094 25.38752 -141.11203
108.87237 25.412071 -141.20569
108.704094 25.387535 -141.11203
108.87237 25.412086 -141.20569
108.711174 30.857872 -142.05273
108.84725 30.856255 -142.1486
109.33041 35.245415 -142.9208
109.698204 38.371773 -143.3741
109.76696 38.351357 -143.45828
109.698235 38.371788 -143.3741
109.76696 38.35134 -143.45828
73.94674 -32.15542 -161.10275
77.00265 -33.867638 -159.34048
77.132835 -33.993584 -159.73137
81.02999 -32.947517 -158.11278
81.16973 -33.074562 -158.48022
85.06628 -31.010078 -157.34001
85.19778 -31.125465 -157.70332
89.18206 -28.425423 -156.84889
89.29757 -28.530678 -157.21107
93.17608 -25.427422 -156.5544
96.91811 -21.64544 -154.86612
97.07635 -21.712318 -155.1718
96.91811 -21.64544 -154.86613
100.669945 -18.778633 -152.3585
100.86617 -18.797829 -152.6377
104.68957 -15.317757 -149.88977
104.873344 -15.319939 -150.17018
108.90859 -11.047768 -147.86351
112.333916 -5.580238 -145.03548
112.476585 -5.560356 -145.28667
113.94631 0.037148 -142.42169
114.076775 0.097389 -142.6155
113.046074 5.537224 -140.58069
113.18185 5.613426 -140.7024
111.591545 12.992867 -140.05911
111.73263 13.031898 -140.15013
111.591576 12.992867 -140.0591
111.7326 13.031898 -140.15012
109.934044 19.56945 -140.41411
110.07925 19.600838 -140.51819
108.8724 25.412086 -141.20569
109.015465 25.427269 -141.34851
109.015465 25.427269 -141.3485
108.84725 30.85627 -142.1486
108.95428 30.846626 -142.28487
109.33044 35.24543 -142.9208
109.39617 35.224922 -143.02475
109.82357 38.330513 -143.55882
109.82357 38.33053 -143.55882
109.49493 39.99238 -144.19043
77.25353 -34.04348 -160.13992
81.29989 -33.131447 -158.86809
85.30666 -31.177254 -158.08743
89.37914 -28.577904 -157.5941
93.26458 -25.470451 -156.91754
97.19915 -21.732002 -155.49884
97.19912 -21.732002 -155.49884
101.03298 -18.766258 -152.93283
105.02572 -15.27372 -150.46465
109.03524 -11.005302 -148.15495
112.58282 -5.506935 -145.55098
114.17077 0.17469 -142.82115
113.289055 5.691063 -140.83917
111.86147 13.069908 -140.26521
111.86144 13.069908 -140.2652
110.21505 19.62896 -140.65451
109.12026 25.433083 -141.52371
109.12026 25.433098 -141.52371
109.02096 30.829247 -142.44595
109.443474 35.20321 -143.14539
109.86431 38.310158 -143.67274
73.94671 -32.155434 -161.10272
77.360954 -34.017204 -160.55214
81.416466 -33.116936 -159.2639
85.38964 -31.164314 -158.47998
89.42446 -28.566093 -157.98569
93.31545 -25.45951 -157.29054
97.28271 -21.704124 -155.8368
97.28274 -21.704124 -155.8368
101.16503 -18.6847 -153.23468
105.141594 -15.180092 -150.764
109.122856 -10.92115 -148.45155
112.64922 -5.421623 -145.82002
114.22628 0.266838 -143.03233
113.36672 5.768517 -140.9882
111.97625 13.106117 -140.40533
111.97622 13.106117 -140.40532
110.33956 19.653313 -140.8232
109.19582 25.433434 -141.71164
109.19582 25.433434 -141.71162
109.0559 30.80851 -142.61151
109.470604 35.181602 -143.27716
109.88546 38.29142 -143.79517
109.88549 38.291435 -143.79517
77.360985 -34.017204 -160.55214
77.451805 -33.916634 -160.95425
81.4165 -33.116936 -159.2639
81.51571 -33.031258 -159.65497
85.44399 -31.0868 -158.8684
89.42446 -28.566109 -157.98569
89.432 -28.495415 -158.3732
93.31545 -25.45951 -157.29056
93.32693 -25.394722 -157.66139
97.324486 -21.62954 -156.17484
101.165 -18.684685 -153.23466
101.25832 -18.555992 -153.53368
105.141594 -15.180092 -150.76399
105.21755 -15.04229 -151.05888
109.122856 -10.92115 -148.45154
109.16891 -10.79818 -148.74406
112.67397 -5.307228 -146.08525
114.2434 0.372169 -143.24373
113.36672 5.768517 -140.98822
113.41595 5.846062 -141.14954
111.97628 13.106117 -140.40533
112.07021 13.138924 -140.57317
112.07018 13.138924 -140.57315
110.33956 19.653297 -140.82321
110.43136 19.667046 -141.02693
109.19579 25.433418 -141.71164
109.237175 25.426186 -141.90733
109.19579 25.433434 -141.71162
109.0559 30.808495 -142.61151
109.06469 30.786827 -142.77289
109.470634 35.181602 -143.27716
109.475914 35.16146 -143.41397
109.88549 38.29142 -143.79517
109.88497 38.275352 -143.92076
109.88497 38.275352 -143.92075
77.451775 -33.91665 -160.95425
77.52325 -33.746056 -161.33359
81.51571 -33.031273 -159.65495
81.59429 -32.876823 -160.02892
85.44396 -31.086815 -158.86838
85.467705 -30.946877 -159.24039
89.43197 -28.49543 -158.37318
89.401146 -28.36779 -158.7444
93.32693 -25.394753 -157.66138
93.29842 -25.277916 -158.01831
97.324425 -21.629555 -156.17484
97.32281 -21.51049 -156.50223
97.324455 -21.629555 -156.17484
101.25829 -18.556007 -153.53368
101.30981 -18.384422 -153.8202
105.21752 -15.042305 -151.05887
105.25124 -14.86512 -151.33969
109.168846 -10.79818 -148.74405
109.17208 -10.640678 -149.02295
112.67394 -5.307243 -146.08524
112.65731 -5.168251 -146.33763
114.24334 0.372154 -143.24373
114.22445 0.487709 -143.44972
113.41592 5.846046 -141.14954
113.43838 5.924065 -141.32364
112.07015 13.138924 -140.57317
112.135216 13.166725 -140.76744
112.07015 13.138924 -140.57315
112.135185 13.166725 -140.76744
110.43136 19.66703 -141.02693
110.46386 19.662941 -141.25018
109.237175 25.42617 -141.90733
109.23055 25.407234 -142.10056
109.06472 30.786812 -142.77289
109.047325 30.764824 -142.92653
109.475914 35.16146 -143.41396
109.45779 35.14382 -143.55023
109.88494 38.275337 -143.92073
109.862206 38.262566 -144.04465
109.88497 38.275352 -143.92073
109.862206 38.26258 -144.04465
73.94668 -32.15545 -161.10272
77.57354 -33.512306 -161.67857
81.64999 -32.658928 -160.37415
85.46038 -30.749336 -159.5844
89.333305 -28.187614 -159.08777
93.23116 -25.11306 -158.3502
97.27813 -21.351097 -156.80864
101.31829 -18.176125 -154.08498
105.24215 -14.654854 -151.5972
109.13299 -10.45443 -149.27885
112.60195 -5.010918 -146.5679
114.173 0.608727 -143.64401
113.43401 6.001823 -141.51039
112.1708 13.190422 -140.98491
110.44735 19.645973 -141.4698
109.18548 25.38015 -142.27643
109.00594 30.743446 -143.0691
109.41616 35.129433 -143.68115
109.817924 38.253532 -144.16267
109.817955 38.253532 -144.16267
77.60146 -33.224297 -161.97873
81.68102 -32.384926 -160.67947
85.422386 -30.500801 -159.88931
89.230736 -27.96093 -159.39218
93.1274 -24.905663 -158.64638
97.19247 -21.157478 -157.08408
97.19247 -21.157478 -157.08409
101.28539 -17.941048 -154.31897
105.19332 -14.422096 -151.82246
109.05593 -10.248787 -149.5029
112.513176 -4.843452 -146.76724
114.09197 0.729515 -143.8204
113.39736 6.077049 -141.70825
112.17135 13.210396 -141.22287
112.17132 13.210396 -141.22285
110.40386 19.624672 -141.67665
109.12075 25.350899 -142.42957
109.12075 25.350883 -142.42957
108.94427 30.72358 -143.19853
109.3525 35.118797 -143.80266
109.753654 38.248558 -144.271
109.753685 38.248573 -144.27098
77.60143 -33.22431 -161.97871
77.60677 -32.89402 -162.22516
81.68102 -32.384926 -160.67946
81.68682 -32.065254 -160.93524
85.422356 -30.500816 -159.8893
85.35549 -30.210777 -160.14539
89.230705 -27.960945 -159.39217
89.09768 -27.696373 -159.64796
93.1274 -24.905678 -158.64636
92.99148 -24.663689 -158.89735
97.19247 -21.157509 -157.08408
97.07015 -20.938179 -157.31946
97.19244 -21.157509 -157.08408
97.07015 -20.938179 -157.31947
101.28539 -17.941063 -154.31894
101.21572 -17.692696 -154.51366
105.19329 -14.422112 -151.82243
105.11108 -14.181038 -152.00699
109.0559 -10.248802 -149.50288
108.94845 -10.036171 -149.68666
112.513176 -4.843452 -146.76723
112.39709 -4.674446 -146.92911
114.09194 0.729515 -143.82039
113.98254 0.846153 -143.97539
113.39736 6.077034 -141.70824
113.31524 6.146492 -141.90938
112.17135 13.210365 -141.22285
112.10671 13.222054 -141.46133
112.17132 13.210365 -141.22284
110.40386 19.624657 -141.67664
110.32433 19.598259 -141.86333
109.12072 25.350868 -142.42957
109.03954 25.320335 -142.56078
109.03954 25.320335 -142.56076
108.94427 30.723564 -143.19852
108.86434 30.705666 -143.31311
109.3525 35.118797 -143.80264
109.26876 35.112267 -143.91115
109.753654 38.248543 -144.27098
109.67156 38.24775 -144.36633
109.753654 38.248558 -144.27097
109.67159 38.247765 -144.36633
77.58718 -32.4965 -162.42671
81.68679 -32.065254 -160.93523
81.664665 -31.675133 -161.15082
85.35549 -30.210777 -160.14537
85.25222 -29.856667 -160.36218
89.09765 -27.696373 -159.64793
88.922264 -27.373405 -159.86464
92.99148 -24.663689 -158.89734
92.81112 -24.368355 -159.11281
97.07015 -20.938179 -157.31944
96.89922 -20.677193 -157.52364
97.07012 -20.938179 -157.31946
101.21569 -17.69271 -154.51366
101.10009 -17.415932 -154.67413
105.11108 -14.181068 -152.00696
104.98623 -13.917885 -152.15443
108.94842 -10.036186 -149.68665
108.80013 -9.804253 -149.83406
112.39706 -4.674461 -146.9291
112.23983 -4.491112 -147.0606
113.982506 0.846123 -143.97537
113.824425 0.97007 -144.12343
113.31521 6.146461 -141.90936
113.160545 6.214561 -142.12387
112.10668 13.222023 -141.46133
111.94738 13.222343 -141.68748
112.10665 13.222038 -141.46133
111.94735 13.222343 -141.68748
110.191246 19.562248 -142.03172
109.03954 25.32032 -142.56076
108.92904 25.284767 -142.68129
109.03951 25.32032 -142.56075
108.92904 25.284767 -142.6813
108.86431 30.70565 -143.3131
108.75295 30.68792 -143.4207
109.26876 35.112236 -143.91115
109.153496 35.1101 -144.01212
109.67156 38.247734 -144.36633
109.561516 38.2519 -144.45311
109.67159 38.247734 -144.36633
109.56155 38.2519 -144.45311
POLYGONS 1241 4964
3 0 1 2
3 2 1 3
3 2 3 4
3 4 3 5
3 4 5 6
3 6 5 7
3 6 7 8
3 8 7 9
3 8 9 10
3 10 9 11
3 10 11 12
3 12 11 13
3 12 13 14
3 14 13 15
3 14 15 16
3 16 15 17
3 16 17 18
3 18 17 19
3 18 19 20
3 20 19 21
3 20 21 22
3 22 21 23
3 22 23 24
3 24 23 25
3 24 25 26
3 26 25 27
3 26 27 28
3 28 27 29
3 28 29 30
3 30 29 31
3 32 33 34
3 34 33 35
3 34 35 36
3 36 35 37
3 36 37 38
3 38 37 39
3 40 41 42
3 42 41 43
3 1 0 3
3 3 0 44
3 3 44 5
3 5 44 45
3 5 45 7
3 7 45 46
3 7 46 9
3 9 46 47
3 9 47 11
3 11 47 48
3 11 48 13
3 13 48 49
3 13 50 15
3 15 50 51
3 15 51 17
3 17 51 52
3 17 52 19
3 19 52 53
3 19 53 21
3 21 53 54
3 21 54 23
3 23 54 55
3 23 55 25
3 25 55 56
3 25 56 27
3 27 56 57
3 27 57 29
3 29 57 58
3 29 58 31
3 31 58 59
3 33 60 35
3 35 60 61
3 35 61 37
3 37 61 62
3 37 62 39
3 39 62 63
3 41 64 43
3 43 64 65
3 44 0 66
3 44 66 45
3 45 66 67
3 45 67 46
3 46 67 68
3 46 68 47
3 47 68 69
3 47 69 48
3 48 69 70
3 48 70 49
3 49 70 71
3 50 71 51
3 51 71 72
3 51 72 52
3 52 72 73
3 52 73 53
3 53 73 74
3 53 74 54
3 54 74 75
3 54 75 55
3 55 75 76
3 55 76 56
3 56 76 77
3 56 77 57
3 57 77 78
3 57 79 58
3 58 79 80
3 58 80 59
3 59 80 81
3 60 81 61
3 61 81 82
3 61 82 62
3 62 82 83
3 62 83 63
3 63 83 84
3 64 85 65
3 65 85 86
3 66 87 88
3 66 88 67
3 67 88 89
3 67 89 68
3 68 89 90
3 68 90 69
3 69 90 91
3 69 91 70
3 70 91 92
3 70 92 71
3 71 92 93
3 71 94 72
3 72 94 95
3 72 95 73
3 73 95 96
3 73 96 74
3 74 96 97
3 74 97 75
3 75 97 98
3 75 98 76
3 76 98 99
3 76 99 77
3 77 99 100
3 77 100 78
3 78 100 101
3 79 102 80
3 80 102 103
3 80 103 81
3 81 103 104
3 81 104 82
3 82 104 105
3 82 105 83
3 83 105 106
3 83 106 84
3 84 106 107
3 85 108 86
3 86 108 109
3 88 0 110
3 88 110 89
3 89 110 111
3 89 111 90
3 90 111 112
3 90 112 91
3 91 112 113
3 91 113 92
3 92 113 114
3 92 114 93
3 93 114 115
3 94 115 95
3 95 115 116
3 95 116 96
3 96 116 117
3 96 117 97
3 97 117 118
3 97 118 98
3 98 118 119
3 98 119 99
3 99 119 120
3 99 120 100
3 100 120 121
3 100 121 101
3 101 121 122
3 102 123 103
3 103 123 124
3 103 124 104
3 104 124 125
3 104 126 105
3 105 126 127
3 105 127 106
3 106 127 128
3 106 128 107
3 107 128 129
3 108 130 109
3 109 130 65
3 0 131 110
3 110 131 132
3 110 132 111
3 111 132 133
3 111 133 112
3 112 133 134
3 112 134 113
3 113 134 135
3 113 135 114
3 114 135 136
3 114 136 115
3 115 136 137
3 115 138 116
3 116 138 139
3 116 139 117
3 117 139 140
3 117 140 118
3 118 140 141
3 118 141 119
3 119 141 142
3 119 142 120
3 120 142 143
3 120 143 121
3 121 143 144
3 121 144 122
3 122 144 145
3 123 146 124
3 124 146 147
3 124 147 125
3 125 147 148
3 126 148 127
3 127 148 149
3 127 149 128
3 128 149 150
3 128 150 129
3 129 150 151
3 130 152 65
3 65 152 153
3 131 87 132
3 132 87 154
3 132 154 133
3 133 154 155
3 133 155 134
3 134 155 156
3 134 156 135
3 135 156 157
3 135 157 136
3 136 157 158
3 136 158 137
3 137 158 159
3 138 160 139
3 139 160 161
3 139 161 140
3 140 161 162
3 140 162 141
3 141 162 163
3 141 163 142
3 142 163 164
3 142 164 143
3 143 164 165
3 143 165 144
3 144 165 166
3 144 166 145
3 145 166 167
3 146 168 147
3 147 168 169
3 147 169 148
3 148 169 170
3 148 170 149
3 149 170 171
3 149 171 150
3 150 171 172
3 150 172 151
3 151 172 173
3 152 174 153
3 153 174 175
3 87 176 154
3 154 176 177
3 154 177 155
3 155 177 178
3 155 178 156
3 156 178 179
3 156 179 157
3 157 179 180
3 157 180 158
3 158 180 181
3 158 181 159
3 159 181 182
3 160 183 161
3 161 183 184
3 161 184 162
3 162 184 185
3 162 185 163
3 163 185 186
3 163 186 164
3 164 186 187
3 164 187 165
3 165 187 188
3 165 188 166
3 166 188 189
3 166 189 167
3 167 189 190
3 168 190 169
3 169 190 191
3 169 191 170
3 170 191 192
3 170 192 171
3 171 192 193
3 171 193 172
3 172 193 194
3 172 194 173
3 173 194 195
3 174 195 175
3 175 195 109
3 176 196 177
3 177 196 197
3 177 197 178
3 178 197 198
3 178 198 179
3 179 198 199
3 179 199 180
3 180 199 200
3 180 200 181
3 181 200 201
3 181 201 182
3 182 201 202
3 183 202 184
3 184 202 203
3 184 203 185
3 185 203 204
3 185 204 186
3 186 204 205
3 186 205 187
3 187 205 206
3 187 206 188
3 188 206 207
3 188 207 189
3 189 207 208
3 189 208 190
3 190 208 209
3 190 210 191
3 191 210 211
3 191 211 192
3 192 211 212
3 192 213 193
3 193 213 214
3 193 214 194
3 194 214 215
3 194 215 195
3 195 215 216
3 195 217 109
3 109 217 218
3 196 0 197
3 197 0 219
3 197 219 198
3 198 219 220
3 198 220 199
3 199 220 221
3 199 221 200
3 200 221 222
3 200 222 201
3 201 222 223
3 201 223 202
3 202 223 224
3 202 225 203
3 203 225 226
3 203 226 204
3 204 226 227
3 204 227 205
3 205 227 228
3 205 228 206
3 206 228 229
3 206 229 207
3 207 229 230
3 207 230 208
3 208 230 231
3 208 231 209
3 209 231 232
3 210 232 211
3 211 232 233
3 211 233 212
3 212 233 234
3 213 234 214
3 214 234 235
3 214 235 215
3 215 235 236
3 215 236 216
3 216 236 237
3 217 238 218
3 218 238 42
3 0 239 219
3 219 239 240
3 219 240 220
3 220 240 241
3 220 241 221
3 221 241 242
3 221 242 222
3 222 242 243
3 222 243 223
3 223 243 244
3 223 244 224
3 224 244 245
3 225 245 226
3 226 245 246
3 226 246 227
3 227 246 247
3 227 247 228
3 228 247 248
3 228 248 229
3 229 248 249
3 229 249 230
3 230 249 250
3 230 250 231
3 231 250 251
3 231 251 232
3 232 251 252
3 232 253 233
3 233 253 254
3 233 254 234
3 234 254 255
3 234 256 235
3 235 256 257
3 235 257 236
3 236 257 258
3 236 258 237
3 237 258 259
3 238 260 42
3 239 0 240
3 240 0 261
3 240 261 241
3 241 261 262
3 241 262 242
3 242 262 263
3 242 263 243
3 243 263 264
3 243 264 244
3 244 264 265
3 244 265 245
3 245 265 266
3 245 266 246
3 246 266 267
3 246 267 247
3 247 267 268
3 247 268 248
3 248 268 269
3 248 269 249
3 249 269 270
3 249 270 250
3 250 270 271
3 250 271 251
3 251 271 272
3 251 272 252
3 252 272 273
3 253 273 254
3 254 273 274
3 254 274 255
3 255 274 275
3 256 276 257
3 257 276 277
3 257 277 258
3 258 277 278
3 258 278 259
3 259 278 279
3 260 280 42
3 42 280 281
3 0 196 261
3 261 196 282
3 261 282 262
3 262 282 283
3 262 283 263
3 263 283 284
3 263 284 264
3 264 284 285
3 264 285 265
3 265 285 286
3 265 286 266
3 266 286 287
3 266 288 267
3 267 288 289
3 267 289 268
3 268 289 290
3 268 290 269
3 269 290 291
3 269 291 270
3 270 291 292
3 270 292 271
3 271 292 293
3 271 293 272
3 272 293 294
3 272 294 273
3 273 294 295
3 273 296 274
3 274 296 297
3 274 297 275
3 275 297 298
3 276 299 277
3 277 299 300
3 277 300 278
3 278 300 301
3 278 301 279
3 279 301 302
3 280 303 281
3 281 303 109
3 196 87 282
3 282 87 304
3 282 304 283
3 283 304 305
3 283 305 284
3 284 305 306
3 284 306 285
3 285 306 307
3 285 307 286
3 286 307 308
3 286 308 287
3 287 308 309
3 288 309 289
3 289 309 310
3 289 310 290
3 290 310 311
3 290 311 291
3 291 311 312
3 291 312 292
3 292 312 313
3 292 313 293
3 293 313 314
3 293 314 294
3 294 314 315
3 294 315 295
3 295 315 316
3 296 317 297
3 297 317 318
3 297 318 298
3 298 318 319
3 299 320 300
3 300 320 321
3 300 321 301
3 301 321 322
3 301 322 302
3 302 322 323
3 303 324 109
3 109 324 325
3 304 0 326
3 304 326 305
3 305 326 327
3 305 327 306
3 306 327 328
3 306 328 307
3 307 328 329
3 307 329 308
3 308 329 330
3 308 330 309
3 309 330 331
3 309 332 310
3 310 332 333
3 310 333 311
3 311 333 334
3 311 334 312
3 312 334 335
3 312 335 313
3 313 335 336
3 313 336 314
3 314 336 337
3 314 337 315
3 315 337 338
3 315 338 316
3 316 338 339
3 317 339 318
3 318 339 340
3 318 340 319
3 319 340 341
3 320 342 321
3 321 342 343
3 321 343 322
3 322 343 344
3 322 344 323
3 323 344 345
3 324 346 325
3 325 346 65
3 0 87 326
3 326 87 347
3 326 347 327
3 327 347 348
3 327 348 328
3 328 348 349
3 328 349 329
3 329 349 350
3 329 350 330
3 330 350 351
3 330 351 331
3 331 351 352
3 332 353 333
3 333 353 354
3 333 354 334
3 334 354 355
3 334 355 335
3 335 355 356
3 335 356 336
3 336 356 357
3 336 357 337
3 337 357 358
3 337 358 338
3 338 358 359
3 338 359 339
3 339 359 360
3 339 361 340
3 340 361 362
3 340 362 341
3 341 362 363
3 342 363 343
3 343 363 364
3 343 364 344
3 344 364 365
3 344 365 345
3 345 365 366
3 346 367 65
3 65 367 175
3 87 0 347
3 347 0 368
3 347 368 348
3 348 368 369
3 348 369 349
3 349 369 370
3 349 370 350
3 350 370 371
3 350 371 351
3 351 371 372
3 351 372 352
3 352 372 373
3 353 373 354
3 354 373 374
3 354 374 355
3 355 374 375
3 355 375 356
3 356 375 376
3 356 376 357
3 357 376 377
3 357 377 358
3 358 377 378
3 358 378 359
3 359 378 379
3 359 379 360
3 360 379 380
3 361 380 362
3 362 380 381
3 362 381 363
3 363 381 382
3 363 383 364
3 364 383 384
3 364 384 365
3 365 384 385
3 365 385 366
3 366 385 386
3 367 387 175
3 175 387 153
3 0 388 368
3 368 388 389
3 368 389 369
3 369 389 390
3 369 390 370
3 370 390 391
3 370 391 371
3 371 391 392
3 371 392 372
3 372 392 393
3 372 393 373
3 373 393 394
3 373 395 374
3 374 395 396
3 374 396 375
3 375 396 397
3 375 397 376
3 376 397 398
3 376 398 377
3 377 398 399
3 377 399 378
3 378 399 400
3 378 400 379
3 379 400 401
3 379 401 380
3 380 401 402
3 380 403 381
3 381 403 404
3 381 404 382
3 382 404 405
3 383 405 384
3 384 405 406
3 384 406 385
3 385 406 407
3 385 407 386
3 386 407 408
3 387 409 153
3 153 409 42
3 0 410 389
3 389 410 411
3 389 411 412
3 412 411 413
3 412 413 391
3 391 413 414
3 391 414 415
3 415 414 416
3 415 416 393
3 393 416 417
3 393 417 394
3 394 417 418
3 394 419 420
3 420 419 421
3 420 421 422
3 422 421 423
3 422 423 424
3 424 423 425
3 424 425 399
3 399 425 426
3 399 426 427
3 427 426 428
3 427 428 429
3 429 428 430
3 429 430 402
3 402 430 431
3 403 431 432
3 432 431 433
3 432 433 405
3 405 433 434
3 435 436 406
3 406 436 437
3 406 437 438
3 438 437 439
3 438 439 409
3 409 439 440
3 441 442 65
3 65 442 443
3 444 0 445
3 444 445 446
3 446 445 447
3 446 447 448
3 448 447 449
3 448 449 450
3 450 449 451
3 450 451 452
3 452 451 453
3 452 453 419
3 419 453 454
3 419 454 455
3 455 454 456
3 455 456 457
3 457 456 458
3 457 458 459
3 459 458 460
3 459 460 461
3 461 460 462
3 461 462 463
3 463 462 464
3 463 464 465
3 465 464 466
3 465 466 467
3 467 466 468
3 469 468 470
3 470 468 471
3 470 471 472
3 472 471 473
3 474 475 476
3 476 475 477
3 476 477 478
3 478 477 479
3 478 479 480
3 480 479 481
3 482 483 484
3 484 483 43
3 445 0 485
3 445 485 447
3 447 485 486
3 447 486 449
3 449 486 487
3 449 487 451
3 451 487 488
3 451 488 453
3 453 488 489
3 453 489 454
3 454 489 490
3 454 491 456
3 456 491 492
3 456 492 458
3 458 492 493
3 458 493 460
3 460 493 494
3 460 494 462
3 462 494 495
3 462 495 464
3 464 495 496
3 464 496 466
3 466 496 497
3 466 497 468
3 468 497 498
3 468 499 471
3 471 499 500
3 471 500 473
3 473 500 501
3 475 502 477
3 477 502 503
3 477 503 479
3 479 503 504
3 479 504 481
3 481 504 505
3 483 506 43
3 43 506 65
3 485 239 507
3 485 507 486
3 486 507 508
3 486 508 487
3 487 508 509
3 487 509 488
3 488 509 510
3 488 510 489
3 489 510 511
3 489 511 490
3 490 511 512
3 491 513 492
3 492 513 514
3 492 514 493
3 493 514 515
3 493 515 494
3 494 515 516
3 494 516 495
3 495 516 517
3 495 517 496
3 496 517 518
3 496 518 497
3 497 518 519
3 497 519 498
3 498 519 520
3 499 521 500
3 500 521 522
3 500 522 501
3 501 522 523
3 502 524 503
3 503 524 525
3 503 525 504
3 504 525 526
3 504 526 505
3 505 526 527
3 506 528 65
3 65 528 42
3 529 0 530
3 530 0 531
3 530 531 532
3 532 531 533
3 532 533 534
3 534 533 535
3 534 535 510
3 510 535 536
3 510 536 511
3 511 536 537
3 511 537 513
3 513 537 538
3 513 539 540
3 540 539 541
3 540 541 515
3 515 541 542
3 515 542 516
3 516 542 543
3 516 543 517
3 517 543 544
3 517 544 518
3 518 544 545
3 518 545 519
3 519 545 546
3 519 546 520
3 520 546 547
3 548 549 550
3 550 549 551
3 550 551 552
3 552 551 553
3 554 555 556
3 556 555 557
3 556 557 526
3 526 557 558
3 526 558 559
3 559 558 560
3 561 562 42
3 42 562 325
3 0 563 564
3 564 563 565
3 564 565 566
3 566 565 567
3 566 567 568
3 568 567 569
3 568 569 570
3 570 569 571
3 570 571 537
3 537 571 572
3 537 572 573
3 573 572 574
3 575 574 576
3 576 574 577
3 576 577 578
3 578 577 579
3 578 579 543
3 543 579 580
3 543 580 581
3 581 580 582
3 581 582 583
3 583 582 584
3 583 584 585
3 585 584 586
3 585 586 587
3 587 586 588
3 589 590 591
3 591 590 592
3 591 592 593
3 593 592 594
3 555 595 596
3 596 595 597
3 596 597 598
3 598 597 599
3 598 599 562
3 562 599 600
3 560 601 42
3 42 601 602
3 563 0 565
3 565 0 603
3 565 603 567
3 567 603 604
3 567 604 569
3 569 604 605
3 569 605 571
3 571 605 606
3 571 606 572
3 572 606 607
3 572 607 574
3 574 607 608
3 574 609 577
3 577 609 610
3 577 610 579
3 579 610 611
3 579 611 580
3 580 611 612
3 580 612 582
3 582 612 613
3 582 613 584
3 584 613 614
3 584 614 586
3 586 614 615
3 586 615 588
3 588 615 616
3 590 617 592
3 592 617 618
3 592 618 594
3 594 618 619
3 595 620 597
3 597 620 621
3 597 621 599
3 599 621 622
3 599 622 600
3 600 622 623
3 601 623 602
3 602 623 109
3 0 624 603
3 603 624 625
3 603 625 604
3 604 625 626
3 604 626 605
3 605 626 627
3 605 627 606
3 606 627 628
3 606 628 607
3 607 628 629
3 607 629 608
3 608 629 630
3 609 631 610
3 610 631 632
3 610 632 611
3 611 632 633
3 611 633 612
3 612 633 634
3 612 634 613
3 613 634 635
3 613 635 614
3 614 635 636
3 614 636 615
3 615 636 637
3 615 637 616
3 616 637 638
3 617 639 618
3 618 639 640
3 618 640 619
3 619 640 641
3 620 642 621
3 621 642 643
3 621 643 622
3 622 643 644
3 622 644 623
3 623 644 645
3 623 646 109
3 109 646 43
3 0 529 647
3 647 529 648
3 647 648 649
3 649 648 650
3 649 650 627
3 627 650 651
3 627 651 652
3 652 651 653
3 652 653 654
3 654 653 655
3 654 655 630
3 630 655 656
3 631 656 657
3 657 656 658
3 657 658 659
3 659 658 660
3 659 660 661
3 661 660 662
3 661 662 635
3 635 662 663
3 635 663 636
3 636 663 664
3 636 664 665
3 665 664 666
3 665 666 667
3 667 666 668
3 638 669 670
3 670 669 671
3 670 671 672
3 672 671 673
3 674 673 675
3 675 673 676
3 675 676 677
3 677 676 678
3 677 678 679
3 679 678 680
3 646 681 281
3 281 681 65
3 0 388 682
3 682 388 683
3 682 683 684
3 684 683 685
3 684 685 686
3 686 685 687
3 686 687 688
3 688 687 689
3 688 689 690
3 690 689 691
3 690 691 692
3 692 691 693
3 694 693 695
3 695 693 696
3 695 696 697
3 697 696 698
3 697 698 699
3 699 698 700
3 699 700 701
3 701 700 702
3 701 702 703
3 703 702 704
3 703 704 705
3 705 704 706
3 705 706 707
3 707 706 708
3 709 710 711
3 711 710 712
3 711 712 713
3 713 712 714
3 713 714 715
3 715 714 716
3 715 716 717
3 717 716 718
3 717 718 719
3 719 718 720
3 721 722 42
3 388 723 683
3 683 723 724
3 683 724 685
3 685 724 725
3 685 725 687
3 687 725 726
3 687 726 689
3 689 726 727
3 689 727 691
3 691 727 728
3 691 728 693
3 693 728 729
3 693 729 696
3 696 729 730
3 696 730 698
3 698 730 731
3 698 731 700
3 700 731 732
3 700 732 702
3 702 732 733
3 702 733 704
3 704 733 734
3 704 734 706
3 706 734 735
3 706 735 708
3 708 735 736
3 710 736 712
3 712 736 737
3 712 737 714
3 714 737 738
3 714 738 716
3 716 738 739
3 716 739 718
3 718 739 740
3 718 740 720
3 720 740 741
3 722 742 42
3 723 0 724
3 724 0 743
3 724 743 725
3 725 743 744
3 725 744 726
3 726 744 745
3 726 745 727
3 727 745 746
3 727 746 728
3 728 746 747
3 728 747 729
3 729 747 748
3 729 749 730
3 730 749 750
3 730 750 731
3 731 750 751
3 731 751 732
3 732 751 752
3 732 752 733
3 733 752 753
3 733 753 734
3 734 753 754
3 734 754 735
3 735 754 755
3 735 755 736
3 736 755 756
3 736 757 737
3 737 757 758
3 737 758 738
3 738 758 759
3 738 760 739
3 739 760 761
3 739 761 740
3 740 761 762
3 740 762 741
3 741 762 763
3 742 764 42
3 42 764 484
3 410 0 765
3 765 0 766
3 765 766 767
3 767 766 768
3 767 768 769
3 769 768 770
3 769 770 771
3 771 770 772
3 771 772 773
3 773 772 774
3 773 774 775
3 775 774 776
3 777 778 779
3 779 778 780
3 779 780 781
3 781 780 782
3 781 782 783
3 783 782 784
3 783 784 785
3 785 784 786
3 785 786 787
3 787 786 788
3 787 788 789
3 789 788 790
3 789 790 791
3 791 790 792
3 793 792 794
3 794 792 795
3 794 795 796
3 796 795 797
3 796 798 799
3 799 798 800
3 799 800 801
3 801 800 802
3 801 802 803
3 803 802 804
3 805 806 443
3 443 806 86
3 766 0 807
3 766 807 808
3 808 807 809
3 808 809 810
3 810 809 811
3 810 811 812
3 812 811 813
3 812 813 814
3 814 813 815
3 814 815 816
3 816 815 817
3 818 817 819
3 819 817 820
3 819 820 821
3 821 820 822
3 821 822 823
3 823 822 824
3 823 824 825
3 825 824 826
3 825 826 827
3 827 826 828
3 827 828 829
3 829 828 830
3 829 830 831
3 831 830 832
3 833 834 795
3 795 834 835
3 795 835 836
3 836 835 837
3 838 839 840
3 840 839 841
3 840 841 842
3 842 841 843
3 842 843 844
3 844 843 845
3 846 847 42
3 807 0 2
3 807 2 809
3 809 2 4
3 809 4 811
3 811 4 6
3 811 6 813
3 813 6 8
3 813 8 815
3 815 8 10
3 815 10 817
3 817 10 12
3 817 12 820
3 820 12 14
3 820 14 822
3 822 14 16
3 822 16 824
3 824 16 18
3 824 18 826
3 826 18 20
3 826 20 828
3 828 20 22
3 828 22 830
3 830 22 24
3 830 24 832
3 832 24 26
3 834 26 835
3 835 26 28
3 835 28 837
3 837 28 30
3 839 32 841
3 841 32 34
3 841 34 843
3 843 34 36
3 843 36 845
3 845 36 38
3 847 40 43
3 43 40 42
