# vtk DataFile Version 2.0
File written by itkPolyDataMeshIO
ASCII
DATASET POLYDATA
POINTS 339 float
70.30212 -12.277245 378.22427
70.30212 -12.277229 378.22427
72.496086 -14.486366 373.49173
72.91924 -15.243385 374.09866
76.09109 -14.506065 369.95068
76.756584 -15.499138 370.70532
80.651665 -13.244133 366.88892
81.42147 -14.215538 367.568
85.167625 -12.073494 363.8927
85.922295 -13.04641 364.55215
89.53063 -11.572472 361.147
90.15972 -12.504967 361.82532
94.3388 -11.616325 358.11984
94.86016 -12.491005 358.81412
99.24349 -11.849998 354.99564
99.7311 -12.670265 355.69025
103.1939 -11.985207 352.58572
103.67101 -12.738487 353.27103
106.398735 -11.916512 350.73123
106.85711 -12.60186 351.3787
106.85708 -12.60186 351.37866
109.0263 -11.408119 349.7952
109.37423 -11.929451 350.27502
109.02633 -11.408119 349.7952
110.945305 -9.755333 351.1999
110.945305 -9.755348 351.1999
73.34667 -15.810677 374.9401
77.424614 -16.227013 371.75745
82.190636 -14.905373 368.51694
86.68719 -13.727379 365.4556
90.84127 -13.159279 362.71686
95.46731 -13.103706 359.69714
100.29546 -13.226082 356.5371
104.18377 -13.212166 354.03693
107.32833 -13.012367 352.0668
107.3283 -13.012383 352.06677
109.748405 -12.252953 350.80743
110.945274 -9.755333 351.1999
73.72793 -16.130821 375.90063
78.03762 -16.631264 372.99524
82.91506 -15.279839 369.67215
87.42577 -14.090477 366.5508
91.542595 -13.496315 363.77762
96.11364 -13.407906 360.7044
100.885704 -13.496849 357.46002
104.72408 -13.44149 354.86935
107.82964 -13.209038 352.81912
110.145195 -12.404701 351.38702
110.945305 -9.755318 351.1999
70.30212 -12.277229 378.2243
74.03863 -16.190529 376.914
78.54714 -16.688164 374.32083
83.539055 -15.31057 370.94574
88.09203 -14.113167 367.77307
92.191246 -13.505821 364.89307
96.73525 -13.400276 361.7323
101.48321 -13.475655 358.4338
105.27947 -13.411385 355.75348
108.34429 -13.173851 353.61353
108.34426 -13.173851 353.61346
110.54867 -12.37394 351.9939
110.54867 -12.373924 351.9939
70.30212 -12.27726 378.22427
74.26946 -15.998344 377.94638
78.928215 -16.40464 375.67242
84.014336 -14.993172 372.24902
88.62173 -13.779015 369.02216
92.74642 -13.178154 365.99948
97.306114 -13.079002 362.73553
102.051414 -13.157066 359.39606
105.80932 -13.109001 356.62323
108.833275 -12.891701 354.3883
108.833244 -12.891716 354.3883
110.93142 -12.154152 352.5834
74.26946 -15.998344 377.94635
74.402916 -15.566078 378.9262
78.928215 -16.40464 375.6724
79.155846 -15.792213 376.97256
84.30569 -14.349052 373.4989
88.6217 -13.779015 369.02216
88.96935 -13.132378 370.18332
92.74639 -13.178154 365.99948
93.18929 -12.533607 367.05038
97.805534 -12.443214 363.68478
102.53719 -12.547554 360.2587
106.26342 -12.545235 357.39496
108.833336 -12.891701 354.3883
109.25683 -12.373329 355.07864
108.833275 -12.891716 354.3883
109.25683 -12.373344 355.07864
110.93145 -12.154152 352.58344
111.26476 -11.751335 353.10843
110.945274 -9.755348 351.1999
110.945335 -9.755333 351.1999
70.30215 -12.277229 378.2243
74.42562 -14.921364 379.77246
79.204155 -14.902901 378.09656
84.38839 -13.444878 374.57632
89.11858 -12.236748 371.17218
93.4667 -11.625801 367.93054
98.17083 -11.54052 364.46838
102.90688 -11.692909 360.963
106.61083 -11.762505 358.0174
109.581505 -11.656639 355.63165
109.581505 -11.656654 355.63162
111.5227 -11.192818 353.53098
111.52273 -11.192818 353.53098
110.945335 -9.755318 351.1999
74.33556 -14.071785 380.4651
79.07769 -13.795433 378.9867
84.27187 -12.356087 375.4167
89.069115 -11.112343 371.96472
93.55926 -10.515068 368.5841
98.366356 -10.471306 364.99625
103.12069 -10.674431 361.43103
106.81753 -10.826118 358.42984
109.77682 -10.800255 355.9954
109.77682 -10.800255 355.99533
111.67678 -10.530251 353.8039
70.30215 -12.277245 378.2243
74.335594 -14.071754 380.46512
74.14297 -13.129585 380.90436
79.07772 -13.795403 378.98672
78.78509 -12.542458 379.58423
84.271904 -12.356056 375.41672
83.95437 -11.104805 376.00546
89.069115 -11.112312 371.9648
88.80978 -9.837196 372.48914
93.55926 -10.515038 368.58414
93.4605 -9.268272 368.97107
98.36639 -10.471275 364.99628
98.389915 -9.276329 365.26978
103.12072 -10.6744 361.43106
103.17223 -9.541222 361.65366
106.81753 -10.826088 358.4299
106.87304 -9.791359 358.6143
109.77685 -10.800224 355.99542
109.83102 -9.858437 356.15082
109.77682 -10.80024 355.99536
109.830986 -9.858452 356.15082
111.67681 -10.530235 353.80396
111.720146 -9.79966 353.91855
111.67681 -10.530235 353.80392
111.72018 -9.79966 353.91858
110.945335 -9.755318 351.19995
73.85076 -12.114418 381.071
78.33373 -11.201698 379.83493
83.44933 -9.786995 376.26395
88.3558 -8.517906 372.67932
93.17089 -7.980476 369.04077
98.230156 -8.043922 365.24704
103.0512 -8.382637 361.5968
106.770134 -8.73922 358.54788
109.73861 -8.905205 356.08185
109.73861 -8.90522 356.08185
111.64767 -9.064476 353.86014
111.6477 -9.064476 353.86017
110.945335 -9.755333 351.19992
70.30215 -12.277245 378.22427
73.468346 -11.092155 380.92343
77.76293 -9.892723 379.70132
82.820854 -8.548027 376.17792
87.76214 -7.290062 372.53296
92.7286 -6.790749 368.8032
97.91296 -6.912285 364.94693
102.775505 -7.318184 361.27975
106.5212 -7.768501 358.244
109.50939 -8.024467 355.7984
109.50936 -8.024467 355.7984
111.46749 -8.387718 353.63843
111.46749 -8.387733 353.63843
73.468346 -11.09214 380.92343
73.056725 -10.209999 380.48648
77.76296 -9.892693 379.70132
77.11678 -8.728828 379.1771
82.820885 -8.548012 376.17792
82.08291 -7.425667 375.71686
87.76214 -7.290047 372.53296
87.05767 -6.211632 372.05264
92.72863 -6.790733 368.8032
92.15179 -5.754387 368.2628
97.91296 -6.912254 364.94693
97.44323 -5.924736 364.36737
102.775505 -7.318199 361.27975
102.35433 -6.396736 360.70895
106.5212 -7.768501 358.24396
106.139305 -6.934303 357.7162
109.15777 -7.271141 355.31674
109.15777 -7.271172 355.3167
111.46749 -8.387703 353.63846
111.19051 -7.808754 353.2652
111.46749 -8.387718 353.63846
110.945305 -9.755333 351.19992
72.64684 -9.531807 379.7981
76.45272 -7.812553 378.30725
81.30099 -6.524742 374.91495
86.29171 -5.358025 371.26932
91.4912 -4.94561 367.47412
96.873955 -5.161095 363.57767
101.83166 -5.690132 359.94522
105.66064 -6.299171 357.01486
108.71642 -6.701393 354.68057
108.71639 -6.701408 354.68057
110.84493 -7.373604 352.77576
110.84496 -7.373604 352.7758
110.945305 -9.755318 351.19992
72.247246 -9.067833 378.90112
75.83001 -7.228416 377.17316
80.57433 -5.982338 373.86942
85.54348 -4.825447 370.2624
90.810295 -4.450066 366.51163
96.261375 -4.709435 362.6544
101.25512 -5.272514 359.06012
105.12557 -5.922112 356.20105
108.22042 -6.363945 353.94244
108.22039 -6.363976 353.9424
110.45815 -7.119164 352.21158
110.45815 -7.119164 352.2116
110.945335 -9.755318 351.19992
71.90609 -8.87838 377.89603
75.28289 -7.001076 375.86914
79.92144 -5.784752 372.6412
84.85598 -4.633278 369.0994
90.12948 -4.267647 365.40466
95.60525 -4.547432 361.59955
100.63592 -5.13546 358.07013
104.554924 -5.809105 355.3066
107.69204 -6.269585 353.1383
107.69201 -6.269585 353.13828
110.04177 -7.049385 351.59476
110.0418 -7.049385 351.5948
110.945335 -9.755302 351.19992
70.30215 -12.277229 378.22433
71.63348 -8.952751 376.83685
75.28289 -7.001076 375.86917
74.84814 -7.129555 374.5001
79.92144 -5.784752 372.64124
79.391594 -5.944237 371.34064
84.85598 -4.633263 369.09943
84.26479 -4.798576 367.84558
90.12948 -4.267632 365.4047
89.514824 -4.436684 364.25647
95.60525 -4.547401 361.59955
94.99102 -4.723991 360.54803
100.63595 -5.135445 358.07016
100.04177 -5.31562 357.08435
104.554955 -5.809105 355.3066
104.001335 -5.982002 354.41516
107.69204 -6.269569 353.13834
107.1773 -6.433098 352.3383
107.69201 -6.269585 353.1383
107.17727 -6.433113 352.3383
110.04177 -7.04937 351.5948
109.63607 -7.179848 350.98355
110.0418 -7.04937 351.59482
109.63607 -7.179848 350.98358
110.945335 -9.755302 351.19995
71.45153 -9.2929 375.7982
74.552025 -7.603157 373.15082
79.02459 -6.431572 370.07077
83.838646 -5.285378 366.65872
89.01357 -4.934547 363.16736
94.44631 -5.22773 359.5475
99.50881 -5.801384 356.16275
103.50506 -6.428551 353.59125
106.7163 -6.841866 351.6036
109.27416 -7.497032 350.42618
109.27413 -7.497032 350.42618
71.37524 -9.826424 374.90958
74.41656 -8.356682 371.95306
78.835594 -7.222618 368.89362
83.5816 -6.080467 365.5581
88.655174 -5.723701 362.20056
94.02264 -5.998909 358.6967
99.08456 -6.535088 355.3879
103.10415 -7.107063 352.8973
106.34026 -7.466591 350.98312
106.34026 -7.466591 350.98306
108.97637 -7.983925 349.95312
108.97637 -7.983925 349.95316
71.40377 -10.569237 374.15268
74.44186 -9.351814 370.94656
78.833855 -8.238777 367.90625
83.52029 -7.140831 364.62292
88.470634 -6.743752 361.42575
93.74874 -6.973381 358.05655
98.79745 -7.483192 354.80524
102.827965 -7.980629 352.37863
106.07894 -8.262474 350.52362
108.76888 -8.599159 349.60495
108.76891 -8.599159 349.60495
71.53576 -11.477654 373.57446
74.63595 -10.565147 370.17682
79.03591 -9.44973 367.1652
83.667046 -8.35955 363.9567
88.467766 -7.924126 360.90005
93.63348 -8.099022 357.64676
98.661156 -8.552986 354.45255
102.6943 -8.969978 352.07495
105.95199 -9.170815 350.26035
105.95196 -9.170815 350.26028
108.66854 -9.304192 349.40912
108.66857 -9.304207 349.40912
71.770226 -12.468147 373.26468
74.988976 -11.888695 369.73358
79.42248 -10.750847 366.7256
84.0068 -9.639046 363.60703
88.654594 -9.20388 360.6682
93.69924 -9.337883 357.5095
98.69308 -9.693138 354.36624
102.71163 -9.999916 352.00797
105.96291 -10.107216 350.20508
105.96288 -10.107216 350.20505
108.67852 -10.036293 349.37387
108.67852 -10.036293 349.3739
70.30215 -12.277229 378.22427
71.770226 -12.468147 373.26465
72.098625 -13.505836 373.22797
74.989006 -11.88871 369.73358
75.47784 -13.220589 369.65375
79.42251 -10.750847 366.7256
79.961754 -12.017632 366.63403
84.00677 -9.639046 363.60703
84.517815 -10.908974 363.58237
89.02477 -10.469215 360.7551
93.69921 -9.337883 357.50952
93.94814 -10.569862 357.6771
98.69305 -9.693138 354.36624
98.894035 -10.846245 354.5501
102.7116 -9.999916 352.00797
102.87505 -11.015877 352.17072
105.96288 -10.107231 350.20508
106.10409 -11.006981 350.35034
105.96288 -10.107231 350.20505
106.10409 -11.006996 350.35034
108.67852 -10.036308 349.37387
108.795006 -10.730675 349.498
108.67849 -10.036308 349.3739
108.79504 -10.730675 349.498
POLYGONS 496 1984
3 0 1 2
3 2 1 3
3 2 3 4
3 4 3 5
3 4 5 6
3 6 5 7
3 6 7 8
3 8 7 9
3 8 9 10
3 10 9 11
3 10 11 12
3 12 11 13
3 12 13 14
3 14 13 15
3 14 15 16
3 16 15 17
3 16 17 18
3 18 17 19
3 18 20 21
3 21 20 22
3 23 22 24
3 24 22 25
3 1 0 3
3 3 0 26
3 3 26 5
3 5 26 27
3 5 27 7
3 7 27 28
3 7 28 9
3 9 28 29
3 9 29 11
3 11 29 30
3 11 30 13
3 13 30 31
3 13 31 15
3 15 31 32
3 15 32 17
3 17 32 33
3 17 33 19
3 19 33 34
3 20 35 22
3 22 35 36
3 22 36 25
3 25 36 37
3 26 0 38
3 26 38 27
3 27 38 39
3 27 39 28
3 28 39 40
3 28 40 29
3 29 40 41
3 29 41 30
3 30 41 42
3 30 42 31
3 31 42 43
3 31 43 32
3 32 43 44
3 32 44 33
3 33 44 45
3 33 45 34
3 34 45 46
3 35 46 36
3 36 46 47
3 36 47 37
3 37 47 48
3 0 49 38
3 38 49 50
3 38 50 39
3 39 50 51
3 39 51 40
3 40 51 52
3 40 52 41
3 41 52 53
3 41 53 42
3 42 53 54
3 42 54 43
3 43 54 55
3 43 55 44
3 44 55 56
3 44 56 45
3 45 56 57
3 45 57 46
3 46 57 58
3 46 59 47
3 47 59 60
3 47 61 48
3 48 61 24
3 49 62 50
3 50 62 63
3 50 63 51
3 51 63 64
3 51 64 52
3 52 64 65
3 52 65 53
3 53 65 66
3 53 66 54
3 54 66 67
3 54 67 55
3 55 67 68
3 55 68 56
3 56 68 69
3 56 69 57
3 57 69 70
3 57 70 58
3 58 70 71
3 59 72 60
3 60 72 73
3 61 73 24
3 62 0 74
3 74 0 75
3 74 75 76
3 76 75 77
3 76 77 65
3 65 77 78
3 65 78 79
3 79 78 80
3 79 80 81
3 81 80 82
3 81 82 68
3 68 82 83
3 68 83 69
3 69 83 84
3 69 84 70
3 70 84 85
3 70 85 86
3 86 85 87
3 88 89 90
3 90 89 91
3 90 91 92
3 92 91 93
3 0 94 75
3 75 94 95
3 75 95 77
3 77 95 96
3 77 96 78
3 78 96 97
3 78 97 80
3 80 97 98
3 80 98 82
3 82 98 99
3 82 99 83
3 83 99 100
3 83 100 84
3 84 100 101
3 84 101 85
3 85 101 102
3 85 102 87
3 87 102 103
3 89 104 91
3 91 104 105
3 91 106 93
3 93 106 107
3 94 0 95
3 95 0 108
3 95 108 96
3 96 108 109
3 96 109 97
3 97 109 110
3 97 110 98
3 98 110 111
3 98 111 99
3 99 111 112
3 99 112 100
3 100 112 113
3 100 113 101
3 101 113 114
3 101 114 102
3 102 114 115
3 102 115 103
3 103 115 116
3 104 117 105
3 105 117 118
3 106 118 107
3 107 118 24
3 119 94 120
3 120 94 121
3 120 121 122
3 122 121 123
3 122 123 124
3 124 123 125
3 124 125 126
3 126 125 127
3 126 127 128
3 128 127 129
3 128 129 130
3 130 129 131
3 130 131 132
3 132 131 133
3 132 133 134
3 134 133 135
3 134 135 136
3 136 135 137
3 138 139 140
3 140 139 141
3 142 143 24
3 24 143 144
3 121 94 145
3 121 145 123
3 123 145 146
3 123 146 125
3 125 146 147
3 125 147 127
3 127 147 148
3 127 148 129
3 129 148 149
3 129 149 131
3 131 149 150
3 131 150 133
3 133 150 151
3 133 151 135
3 135 151 152
3 135 152 137
3 137 152 153
3 139 154 141
3 141 154 155
3 143 156 144
3 144 156 157
3 94 158 145
3 145 158 159
3 145 159 146
3 146 159 160
3 146 160 147
3 147 160 161
3 147 161 148
3 148 161 162
3 148 162 149
3 149 162 163
3 149 163 150
3 150 163 164
3 150 164 151
3 151 164 165
3 151 165 152
3 152 165 166
3 152 166 153
3 153 166 167
3 154 168 155
3 155 168 169
3 156 170 157
3 157 170 24
3 171 0 172
3 171 172 173
3 173 172 174
3 173 174 175
3 175 174 176
3 175 176 177
3 177 176 178
3 177 178 179
3 179 178 180
3 179 180 181
3 181 180 182
3 181 182 183
3 183 182 184
3 183 184 185
3 185 184 186
3 185 186 167
3 167 186 187
3 168 188 189
3 189 188 190
3 191 190 192
3 192 190 24
3 172 0 193
3 172 193 174
3 174 193 194
3 174 194 176
3 176 194 195
3 176 195 178
3 178 195 196
3 178 196 180
3 180 196 197
3 180 197 182
3 182 197 198
3 182 198 184
3 184 198 199
3 184 199 186
3 186 199 200
3 186 200 187
3 187 200 201
3 188 202 190
3 190 202 203
3 190 204 24
3 24 204 205
3 193 0 206
3 193 206 194
3 194 206 207
3 194 207 195
3 195 207 208
3 195 208 196
3 196 208 209
3 196 209 197
3 197 209 210
3 197 210 198
3 198 210 211
3 198 211 199
3 199 211 212
3 199 212 200
3 200 212 213
3 200 213 201
3 201 213 214
3 202 215 203
3 203 215 216
3 204 217 205
3 205 217 218
3 0 119 206
3 206 119 219
3 206 219 207
3 207 219 220
3 207 220 208
3 208 220 221
3 208 221 209
3 209 221 222
3 209 222 210
3 210 222 223
3 210 223 211
3 211 223 224
3 211 224 212
3 212 224 225
3 212 225 213
3 213 225 226
3 213 226 214
3 214 226 227
3 215 228 216
3 216 228 229
3 217 230 218
3 218 230 231
3 232 94 219
3 219 94 233
3 219 233 234
3 234 233 235
3 234 235 236
3 236 235 237
3 236 237 238
3 238 237 239
3 238 239 240
3 240 239 241
3 240 241 242
3 242 241 243
3 242 243 244
3 244 243 245
3 244 245 246
3 246 245 247
3 246 247 248
3 248 247 249
3 250 251 252
3 252 251 253
3 254 255 256
3 256 255 218
3 233 0 257
3 233 257 235
3 235 257 258
3 235 258 237
3 237 258 259
3 237 259 239
3 239 259 260
3 239 260 241
3 241 260 261
3 241 261 243
3 243 261 262
3 243 262 245
3 245 262 263
3 245 263 247
3 247 263 264
3 247 264 249
3 249 264 265
3 251 265 253
3 253 265 266
3 255 267 218
3 218 267 24
3 257 94 268
3 257 268 258
3 258 268 269
3 258 269 259
3 259 269 270
3 259 270 260
3 260 270 271
3 260 271 261
3 261 271 272
3 261 272 262
3 262 272 273
3 262 273 263
3 263 273 274
3 263 274 264
3 264 274 275
3 264 275 265
3 265 275 276
3 265 277 266
3 266 277 278
3 267 279 24
3 24 279 218
3 94 1 268
3 268 1 280
3 268 280 269
3 269 280 281
3 269 281 270
3 270 281 282
3 270 282 271
3 271 282 283
3 271 283 272
3 272 283 284
3 272 284 273
3 273 284 285
3 273 285 274
3 274 285 286
3 274 286 275
3 275 286 287
3 275 287 276
3 276 287 288
3 277 288 278
3 278 288 289
3 279 290 218
3 218 290 48
3 1 158 280
3 280 158 291
3 280 291 281
3 281 291 292
3 281 292 282
3 282 292 293
3 282 293 283
3 283 293 294
3 283 294 284
3 284 294 295
3 284 295 285
3 285 295 296
3 285 296 286
3 286 296 297
3 286 297 287
3 287 297 298
3 287 298 288
3 288 298 299
3 288 300 289
3 289 300 301
3 290 302 48
3 48 302 24
3 158 94 291
3 291 94 303
3 291 303 292
3 292 303 304
3 292 304 293
3 293 304 305
3 293 305 294
3 294 305 306
3 294 306 295
3 295 306 307
3 295 307 296
3 296 307 308
3 296 308 297
3 297 308 309
3 297 309 298
3 298 309 310
3 298 310 299
3 299 310 311
3 300 312 301
3 301 312 313
3 302 314 24
3 158 315 316
3 316 315 317
3 316 317 318
3 318 317 319
3 318 319 320
3 320 319 321
3 320 321 322
3 322 321 323
3 322 323 307
3 307 323 324
3 307 324 325
3 325 324 326
3 325 326 327
3 327 326 328
3 327 328 329
3 329 328 330
3 329 330 331
3 331 330 332
3 333 334 335
3 335 334 336
3 337 338 192
3 192 338 24
3 315 0 317
3 317 0 2
3 317 2 319
3 319 2 4
3 319 4 321
3 321 4 6
3 321 6 323
3 323 6 8
3 323 8 324
3 324 8 10
3 324 10 326
3 326 10 12
3 326 12 328
3 328 12 14
3 328 14 330
3 330 14 16
3 330 16 332
3 332 16 18
3 334 18 336
3 336 18 21
3 338 23 24
