# vtk DataFile Version 2.0
File written by itkPolyDataMeshIO
ASCII
DATASET POLYDATA
POINTS 1866 float
-28.933098 1.395256 -61.086716
-28.933098 1.395241 -61.086716
-29.422478 -0.411278 -64.58993
-29.84423 -0.261375 -64.43728
-29.739906 0.027687 -68.54963
-30.365639 0.268303 -68.269196
-29.698875 1.551521 -72.34537
-30.3796 1.8209 -71.956345
-29.69889 1.551521 -72.34537
-30.379616 1.820915 -71.956345
-29.72065 3.374428 -76.09563
-30.414131 3.634132 -75.58789
-29.886436 5.508247 -79.707726
-30.57946 5.744774 -79.09579
-30.334145 7.808357 -82.83902
-31.024391 8.027 -82.163704
-31.262444 10.005196 -85.3389
-31.940819 10.208076 -84.63486
-32.634926 12.00869 -87.35686
-33.288887 12.189262 -86.658005
-34.201286 14.057487 -89.35257
-34.828056 14.208519 -88.70805
-35.937096 16.512901 -91.7985
-36.546806 16.643211 -91.24168
-37.845467 19.781822 -95.06181
-38.461906 19.930672 -94.57937
-39.192955 23.98307 -98.74233
-39.82354 24.1932 -98.3218
-39.248726 28.565773 -101.98071
-39.87876 28.863594 -101.62212
-38.9647 31.637886 -104.14545
-39.585762 32.015846 -103.84401
-38.747643 33.19526 -105.756874
-39.360573 33.622093 -105.4992
-37.466484 36.282692 -108.6355
-38.068367 36.724174 -108.405464
-34.796577 41.843605 -112.862755
-35.395515 42.288795 -112.64146
-34.796577 41.84359 -112.862755
-35.39553 42.288795 -112.64145
-31.875603 47.138023 -115.93095
-32.497734 47.603172 -115.69995
-29.007683 51.05764 -116.44308
-29.63926 51.52601 -116.207405
-29.007683 51.057625 -116.44308
-25.393639 55.015846 -115.087616
-25.94236 55.39556 -114.8891
-21.295784 59.398445 -112.56129
-21.705116 59.630013 -112.42865
-21.295784 59.39843 -112.56129
-21.705116 59.630013 -112.42866
-18.36509 63.586388 -109.680565
-18.72042 63.74108 -109.58581
-17.028358 66.58108 -107.23402
-17.414833 66.75231 -107.13105
-17.028358 66.58108 -107.23403
-17.414833 66.75231 -107.13106
-15.743324 68.80312 -105.03953
-16.129707 69.005455 -104.91005
-13.865227 70.76095 -103.266396
-14.187141 71.00106 -103.10548
-13.865227 70.76092 -103.266396
-14.187157 71.00109 -103.10547
-11.395531 72.51232 -102.222565
-11.630486 72.812645 -102.027336
-8.09034 74.003075 -101.80236
-8.253746 74.36108 -101.58055
-8.09037 74.003075 -101.80235
-8.253761 74.36108 -101.58055
-4.181953 75.03799 -101.40842
-4.299782 75.40737 -101.18732
-0.395561 75.36318 -100.03846
-0.46891 75.63055 -99.87964
-0.395515 75.36321 -100.038475
-0.468895 75.63061 -99.87965
2.458183 74.76324 -97.486305
-30.217293 -0.064384 -64.26713
-30.85746 0.554253 -67.998085
-30.851036 2.117989 -71.6201
-30.851051 2.117973 -71.620094
-30.852577 3.915474 -75.17523
-30.995583 6.005394 -78.610855
-31.434563 8.275932 -81.63055
-32.354744 10.45179 -84.074135
-33.71656 12.426094 -86.08409
-35.29081 14.432793 -88.13623
-37.057365 16.858376 -90.68752
-39.005394 20.161308 -94.05595
-40.3805 24.47004 -97.84013
-40.434456 29.210945 -101.189476
-40.13157 32.44129 -103.468315
-39.89498 34.107643 -105.17756
-38.596336 37.219032 -108.10846
-35.933968 42.758156 -112.33013
-35.933968 42.75817 -112.33012
-33.069298 48.068245 -115.35817
-30.226204 51.984993 -115.85901
-30.22622 51.984993 -115.859
-26.460777 55.75628 -114.59635
-22.10485 59.829643 -112.23124
-19.07885 63.85264 -109.44352
-17.805183 66.87603 -106.98034
-17.805168 66.87603 -106.98035
-16.517677 69.161705 -104.72933
-14.507881 71.19927 -102.892136
-14.507896 71.19927 -102.892136
-11.861305 73.07424 -101.77807
-8.413445 74.6802 -101.30164
-8.413445 74.68017 -101.30164
-4.417458 75.73785 -100.90965
-0.544472 75.86959 -99.68049
-0.544441 75.86965 -99.680504
-28.933113 1.395241 -61.08671
-30.545662 0.175636 -64.07947
-31.265831 0.879158 -67.72413
-31.21357 2.434181 -71.307434
-31.16732 4.205818 -74.81037
-31.280815 6.273201 -78.19101
-31.712532 8.535027 -81.17018
-32.641365 10.713692 -83.58606
-34.028557 12.695946 -85.57236
-35.654945 14.712273 -87.59867
-37.484703 17.149101 -90.12923
-39.467888 20.468346 -93.50015
-40.85189 24.807732 -97.30753
-40.903862 29.60041 -100.69163
-40.58985 32.905174 -103.0261
-40.33857 34.641563 -104.79863
-39.038536 37.756813 -107.75045
-36.400017 43.241707 -111.93482
-36.400017 43.241707 -111.934814
-33.576317 48.52259 -114.91288
-30.75393 52.423775 -115.40551
-26.941414 56.091667 -114.213196
-22.499596 59.998436 -111.9665
-22.49958 59.998436 -111.96651
-19.450386 63.92492 -109.24875
-18.207573 66.95443 -106.778244
-18.207573 66.95443 -106.77826
-16.914314 69.27392 -104.49371
-14.834007 71.359184 -102.6215
-14.834023 71.359184 -102.621506
-12.09272 73.30215 -101.46912
-8.572548 74.96627 -100.959496
-8.572563 74.96627 -100.959496
-4.537224 76.035515 -100.56935
-0.623695 76.08468 -99.436714
-0.62368 76.08474 -99.43673
2.458168 74.76321 -97.4863
-28.933098 1.395256 -61.08671
-30.827507 0.456184 -63.874977
-31.608849 1.249565 -67.43562
-31.5075 2.785851 -70.9903
-31.507484 2.785835 -70.9903
-31.411446 4.525185 -74.45021
-31.493355 6.568077 -77.78211
-31.91639 8.823067 -80.72366
-32.853905 11.010521 -83.11304
-34.266884 13.011574 -85.074615
-35.943382 15.052773 -87.06817
-37.830864 17.513191 -89.56491
-39.8415 20.84533 -92.922485
-41.2284 25.198463 -96.735954
-41.277412 30.02311 -100.139694
-40.95069 33.397163 -102.52723
-40.681633 35.211983 -104.37081
-39.385216 38.32551 -107.339516
-36.78318 43.728615 -111.46453
-36.78318 43.7286 -111.464516
-34.008186 48.956383 -114.373604
-31.211601 52.83306 -114.85649
-31.211617 52.833046 -114.8565
-27.37133 56.393654 -113.74979
-22.87284 60.130226 -111.64545
-22.87284 60.130226 -111.645454
-19.816383 63.95376 -109.011986
-18.603325 66.98406 -106.53442
-18.603325 66.98409 -106.53443
-17.301735 69.33758 -104.21391
-15.150444 71.47372 -102.30637
-15.150444 71.47372 -102.30638
-12.313988 73.48614 -101.11509
-8.723763 75.2066 -100.570114
-8.723778 75.206566 -100.57012
-4.653587 76.28704 -100.18232
-0.70298 76.26626 -99.15967
-0.70295 76.26632 -99.15968
2.458183 74.76324 -97.4863
-31.057945 0.772728 -63.656578
-31.886726 1.665077 -67.13103
-31.740318 3.178398 -70.66056
-31.740318 3.178413 -70.66056
-31.596672 4.881752 -74.08122
-31.646507 6.898766 -77.36699
-32.05941 9.148582 -80.272484
-33.004066 11.350212 -82.637474
-34.439613 13.378761 -84.577484
-36.158028 15.455345 -86.5405
-38.091072 17.945747 -89.00123
-40.118675 21.284264 -92.334915
-41.50231 25.633324 -96.13803
-41.54708 30.46952 -99.54579
-41.205925 33.906242 -101.98258
-40.916298 35.806374 -103.90337
-39.627937 38.91239 -106.88481
-37.07424 44.207832 -110.929695
-34.35601 49.360268 -113.751396
-31.590218 53.20411 -114.22293
-31.590233 53.20411 -114.22294
-27.736534 56.65374 -113.21869
-23.202446 60.21688 -111.28326
-23.202446 60.21688 -111.28325
-20.150093 63.932777 -108.74832
-18.965965 66.95995 -106.262695
-18.965965 66.959984 -106.2627
-17.655022 69.346275 -103.905174
-15.435966 71.53271 -101.96487
-15.435982 71.53271 -101.964874
-12.510124 73.611595 -100.736496
-8.856895 75.382866 -100.156105
-8.856911 75.382835 -100.156105
-4.758873 76.47344 -99.771065
-0.777107 76.400566 -98.86549
-0.777077 76.40063 -98.8655
-28.933083 1.395256 -61.086716
-28.933083 1.395241 -61.086716
-31.05796 0.772728 -63.656578
-31.232414 1.119118 -63.428314
-32.095314 2.120766 -66.813286
-31.740303 3.178398 -70.66056
-31.910378 3.610664 -70.31818
-31.740318 3.178413 -70.66057
-31.723152 5.276573 -73.701035
-31.74125 7.267265 -76.94202
-32.05941 9.148598 -80.27249
-32.142464 9.513725 -79.81297
-33.004066 11.350227 -82.63748
-33.09185 11.734169 -82.156944
-34.43963 13.378777 -84.577484
-34.545387 13.797173 -84.08127
-36.158012 15.455345 -86.540504
-36.295647 15.916161 -86.02055
-38.26037 18.439003 -88.44817
-40.11866 21.284264 -92.33492
-40.29374 21.775536 -91.75006
-41.502296 25.633324 -96.13803
-41.668053 26.102577 -95.52699
-41.547066 30.46952 -99.545784
-41.707344 30.929695 -98.9231
-41.205925 33.906242 -101.982574
-41.35038 34.42115 -101.4043
-40.916283 35.806374 -103.90337
-41.037804 36.41149 -103.406746
-39.627922 38.912407 -106.88481
-39.761864 39.504555 -106.39642
-37.267204 44.668922 -110.34228
-34.356026 49.360268 -113.7514
-34.612465 49.72544 -113.060326
-31.590218 53.204124 -114.22294
-31.881706 53.528923 -113.51914
-31.590248 53.20411 -114.22294
-31.881706 53.528908 -113.51914
-27.73655 56.65374 -113.2187
-28.02961 56.86654 -112.63161
-23.20243 60.21688 -111.28326
-23.482323 60.257072 -110.88729
-20.150078 63.932777 -108.74833
-20.445671 63.86303 -108.46277
-19.288994 66.88305 -105.968376
-19.288994 66.88308 -105.96839
-17.655006 69.346275 -103.905174
-17.967628 69.300285 -103.57361
-15.435951 71.53271 -101.96487
-15.685448 71.535515 -101.60363
-15.435966 71.53271 -101.96488
-15.685448 71.535515 -101.60364
-12.510109 73.611595 -100.736496
-12.67765 73.67675 -100.34068
-8.969612 75.492424 -99.72549
-8.856911 75.382866 -100.156105
-8.969627 75.49239 -99.72549
-4.758873 76.47347 -99.771065
-4.851143 76.59191 -99.343544
-0.777122 76.400566 -98.86549
-0.84478 76.48556 -98.55987
-0.777092 76.4006 -98.8655
-0.844749 76.48562 -98.55988
-31.346428 1.487572 -63.19533
-32.22709 2.606392 -66.49008
-32.00889 4.072945 -69.97206
-32.00889 4.072945 -69.97205
-31.782143 5.70118 -73.31987
-31.769295 7.666023 -76.51879
-32.157326 9.91111 -79.357925
-33.10897 12.154625 -81.685295
-34.57618 14.258202 -83.60042
-36.349495 16.425423 -85.52238
-38.333702 18.9822 -87.91889
-40.362602 22.308357 -91.180916
-41.721718 26.595955 -94.91629
-41.754616 31.393654 -98.28535
-41.380882 34.93067 -100.805176
-41.043587 37.014076 -102.89195
-39.784294 40.08898 -105.885086
-37.358177 45.101845 -109.715126
-37.358162 45.101845 -109.715126
-34.77131 50.04371 -112.31606
-32.078773 53.800026 -112.76127
-28.246819 57.028343 -111.99982
-23.715096 60.252922 -110.46084
-23.715096 60.252922 -110.460846
-20.708443 63.749275 -108.15499
-19.576439 66.75744 -105.6523
-19.576424 66.75747 -105.652306
-18.24305 69.20342 -103.220474
-15.902336 71.486565 -101.22327
-15.902321 71.486534 -101.22327
-12.819176 73.68636 -99.928055
-9.063683 75.54058 -99.278595
-9.063683 75.54055 -99.278595
-4.931648 76.64782 -98.90002
-0.906639 76.52517 -98.242966
-0.906624 76.52523 -98.24299
-31.397255 1.870201 -62.962696
-32.277428 3.111549 -66.168724
-32.030495 4.55558 -69.63025
-32.03051 4.55558 -69.63024
-31.76844 6.147057 -72.94677
-31.725777 8.08741 -76.107475
-32.099266 10.333275 -78.91851
-33.050713 12.603508 -81.234406
-34.527657 14.752632 -83.14715
-36.31611 16.972496 -85.05806
-38.309 19.563484 -87.42525
-40.324333 22.870934 -90.63982
-41.663063 27.102577 -94.31914
-41.688698 31.851204 -97.64638
-41.297432 35.423683 -100.19825
-40.934013 37.60108 -102.37022
-39.695335 40.653114 -105.3619
-37.345695 45.497368 -109.0619
-34.829445 50.30845 -111.53523
-32.17739 54.011925 -111.96641
-32.17739 54.01191 -111.96641
-28.384346 57.135765 -111.33629
-23.89785 60.20426 -110.010155
-23.897865 60.20426 -110.01016
-20.935555 63.59327 -107.827965
-19.824928 66.58477 -105.3183
-19.824928 66.5848 -105.318306
-18.478035 69.05691 -102.85038
-16.084068 71.38653 -100.82841
-12.933098 73.64056 -99.50362
-9.138023 75.52697 -98.820915
-9.138039 75.52694 -98.820915
-4.999382 76.64071 -98.445946
-0.961967 76.5191 -97.91869
-0.961937 76.51913 -97.91871
-28.933083 1.395271 -61.08672
-31.38375 2.258675 -62.73546
-32.244194 3.625343 -65.85645
-31.972557 5.048241 -69.3008
-31.972572 5.048225 -69.3008
-31.67939 6.604744 -72.59075
-31.608269 8.522682 -75.71823
-31.966103 10.771492 -78.50573
-32.91517 13.071541 -80.81564
-34.398323 15.270103 -82.73276
-36.194847 17.545723 -84.63861
-38.186836 20.170189 -86.978165
-40.18084 23.450829 -90.13841
-41.49482 27.611168 -93.748436
-41.512154 32.29229 -97.020065
-41.10267 35.88958 -99.59674
-40.712227 38.159904 -101.85292
-39.49752 41.18479 -104.83823
-37.2306 45.847084 -108.396866
-34.786476 50.514427 -110.73507
-32.176414 54.160652 -111.15211
-32.17643 54.160652 -111.15211
-28.438622 57.18589 -110.65525
-24.023384 60.109367 -109.544075
-24.0234 60.109367 -109.544075
-21.117775 63.394585 -107.487595
-20.025398 66.36523 -104.9727
-20.025383 66.36523 -104.97272
-18.66401 68.860374 -102.47065
-16.223549 71.233696 -100.42707
-16.223564 71.233696 -100.42707
-13.014519 73.53585 -99.07632
-9.189354 75.44689 -98.36227
-9.189369 75.44692 -98.362274
-5.051826 76.56567 -97.9911
-1.008919 76.46374 -97.59402
-1.008888 76.4638 -97.59404
2.458199 74.76327 -97.486305
-28.933098 1.395271 -61.086723
-31.306145 2.644798 -62.518448
-32.12722 4.136894 -65.560074
-31.834648 5.54055 -68.991135
-31.834633 5.540565 -68.991135
-31.514626 7.064903 -72.26008
-31.416664 8.96302 -75.36026
-31.757942 11.216927 -78.129425
-32.70269 13.549187 -80.439
-34.189003 15.799934 -82.36704
-35.98719 18.132988 -84.273605
-37.96952 20.789467 -86.5873
-39.935036 24.035759 -89.687225
-41.220314 28.111076 -93.216194
-41.228752 32.70777 -96.419716
-40.801094 36.318626 -99.01344
-40.38337 38.678764 -101.35102
-39.19541 41.672783 -104.32528
-37.015663 46.143715 -107.734314
-37.01568 46.1437 -107.73431
-34.64379 50.657448 -109.93236
-32.076378 54.243187 -110.33533
-32.076378 54.243187 -110.335335
-28.408516 57.178185 -109.97224
-24.088188 59.97158 -109.0759
-24.088203 59.97158 -109.0759
-21.249779 63.1594 -107.14522
-20.171959 66.105705 -104.62624
-20.171959 66.105736 -104.62625
-18.7956 68.62005 -102.09272
-16.316765 71.03292 -100.03164
-16.31675 71.03295 -100.03165
-13.061089 73.375755 -98.65925
-9.216225 75.303185 -97.91663
-9.21624 75.303154 -97.91663
-5.087425 76.42535 -97.54932
-1.046104 76.36108 -97.27884
-1.046074 76.36114 -97.27885
2.458199 74.76327 -97.48631
-28.933083 1.395287 -61.08672
-31.30616 2.644798 -62.518448
-31.166237 3.020378 -62.316257
-32.12725 4.136894 -65.560074
-31.928795 4.635445 -65.28595
-31.834663 5.54055 -68.99113
-31.618858 6.022255 -68.7081
-31.834663 5.540565 -68.99113
-31.618843 6.02227 -68.70811
-31.51464 7.064903 -72.26007
-31.27639 7.517906 -71.96225
-31.41668 8.96302 -75.36025
-31.153542 9.399315 -75.04178
-31.757957 11.216927 -78.12942
-31.477715 11.660347 -77.798256
-32.702705 13.549187 -80.439
-32.41651 14.026512 -80.11319
-34.18902 15.799934 -82.36704
-33.90325 16.331047 -82.05835
-35.987206 18.133003 -84.273605
-35.697243 18.722038 -83.97102
-37.66143 21.408318 -86.26079
-39.93505 24.035759 -89.687225
-39.590996 24.613792 -89.29552
-41.220314 28.111061 -93.21619
-40.843513 28.592445 -92.733475
-41.228737 32.707756 -96.41971
-40.843544 33.089394 -95.85794
-40.801094 36.31861 -99.01344
-40.399315 36.701973 -98.4606
-40.38337 38.67875 -101.35102
-39.95507 39.146782 -100.87501
-39.195427 41.672768 -104.32528
-38.796104 42.10714 -103.83407
-37.01568 46.1437 -107.734314
-36.70611 46.381416 -107.08855
-37.01568 46.143684 -107.73431
-36.706123 46.381416 -107.08854
-34.64379 50.657433 -109.93236
-34.404854 50.734383 -109.1435
-32.076363 54.24317 -110.33533
-31.879738 54.25753 -109.53246
-32.076378 54.24317 -110.33533
-31.879738 54.257515 -109.53246
-28.408531 57.178185 -109.97224
-28.295692 57.11489 -109.30437
-24.088188 59.971565 -109.07589
-24.092949 59.799995 -108.62403
-24.088188 59.971565 -109.0759
-24.092949 59.799995 -108.62404
-21.249763 63.15937 -107.14521
-21.33065 62.901634 -106.818375
-20.171959 66.105705 -104.626236
-20.26252 65.82107 -104.29474
-20.171959 66.105736 -104.62624
-20.262505 65.82107 -104.29475
-18.795616 68.62005 -102.09271
-18.87101 68.35003 -101.73276
-16.316765 71.03292 -100.03163
-16.363243 70.79705 -99.65937
-16.31675 71.03295 -100.03164
-16.363228 70.79708 -99.65936
-13.07354 73.17181 -98.27026
-9.219337 75.10723 -97.50277
-9.21624 75.303154 -97.916626
-9.219353 75.1072 -97.50277
-5.105873 76.23113 -97.13925
-1.04612 76.361046 -97.27883
-1.072655 76.21941 -96.98643
-1.046089 76.36111 -97.27884
-1.072624 76.219475 -96.98644
2.458183 74.76327 -97.48631
2.458214 74.76327 -97.48631
-30.966927 3.37748 -62.13305
-31.65255 5.110558 -65.039894
-31.328682 6.48333 -68.457825
-31.328697 6.483345 -68.457825
-30.9683 7.95446 -71.70386
-30.822884 9.82267 -74.76999
-31.129738 12.092705 -77.51987
-32.061226 14.493797 -79.8457
-33.545906 16.852654 -81.81372
-35.33033 19.300697 -83.737526
-37.268623 22.013832 -86.00554
-39.15522 25.172966 -88.97148
-40.37133 29.04551 -92.31029
-40.36399 33.42945 -95.34642
-39.90571 37.031746 -97.94974
-39.436455 39.554222 -100.43478
-38.308098 42.478783 -103.37484
-36.308495 46.55526 -106.47306
-36.30851 46.55526 -106.47305
-34.074745 50.743553 -108.38486
-31.590706 54.203316 -108.76011
-31.590721 54.203316 -108.7601
-28.102669 56.997566 -108.665955
-24.037788 59.5989 -108.199066
-24.037788 59.598885 -108.19907
-21.358864 62.627754 -106.51527
-20.295265 65.51827 -103.98617
-20.295265 65.5183 -103.98618
-18.888771 68.05703 -101.399254
-16.362175 70.532005 -99.319084
-16.362206 70.532005 -99.319084
-13.051811 72.92925 -97.91858
-9.198799 74.86407 -97.130516
-9.198814 74.86404 -97.13051
-5.106911 75.98809 -96.77063
-1.08802 76.04241 -96.723755
-1.08799 76.04244 -96.72376
-28.933083 1.395271 -61.086723
-30.71276 3.708992 -61.972553
-31.304436 5.552757 -64.8269
-30.970055 6.914619 -68.2455
-30.970055 6.914619 -68.24549
-30.596367 8.365868 -71.490364
-30.430946 10.224617 -74.55066
-30.720634 12.505379 -77.30009
-31.643715 14.941658 -79.64215
-33.12423 17.354195 -81.63813
-34.894264 19.8572 -83.577675
-36.80001 22.593636 -85.826385
-38.63842 25.701775 -88.721275
-39.815697 29.460854 -91.95495
-39.80175 33.721016 -94.895325
-39.331535 37.30152 -97.49112
-38.839073 39.893272 -100.039314
-37.742165 42.780464 -102.95663
-35.83175 46.662086 -105.900055
-33.66137 50.68618 -107.673004
-31.216469 54.08335 -108.035576
-31.216469 54.083366 -108.03558
-27.833183 56.82656 -108.066185
-23.921501 59.36387 -107.7971
-21.331444 62.330574 -106.22682
-20.268532 65.19036 -103.69435
-20.268517 65.19036 -103.69436
-18.847527 67.73434 -101.087036
-16.31176 70.23116 -99.004684
-12.994118 72.641624 -97.598076
-9.153343 74.56707 -96.79362
-9.153358 74.56707 -96.79362
-5.089928 75.689415 -96.437225
-1.092049 75.82519 -96.486404
-1.092018 75.82525 -96.48641
-30.71276 3.708977 -61.97255
-30.408928 4.007973 -61.83809
-31.304436 5.552757 -64.82689
-30.891289 5.952827 -64.65154
-30.970055 6.914604 -68.2455
-30.54966 7.307106 -68.07577
-30.97007 6.914604 -68.24549
-30.549675 7.307121 -68.075775
-30.596382 8.365852 -71.490364
-30.16735 8.743599 -71.32655
-30.430962 10.224602 -74.55066
-29.984856 10.59687 -74.38881
-30.72065 12.505363 -77.30009
-30.257866 12.88987 -77.144035
-31.64373 14.941643 -79.64214
-31.171715 15.360893 -79.50725
-33.124245 17.354164 -81.63812
-32.64611 17.825356 -81.53568
-34.894264 19.85717 -83.57767
-34.39756 20.380089 -83.49512
-36.800026 22.59362 -85.82638
-36.265236 23.135674 -85.72717
-38.63842 25.701744 -88.72127
-38.051765 26.188927 -88.55016
-39.815697 29.460838 -91.95495
-39.188988 29.8294 -91.67489
-39.801765 33.721 -94.89532
-39.168983 33.957664 -94.513985
-39.33155 37.301476 -97.49111
-38.688713 37.50544 -97.09424
-38.839073 39.893257 -100.03931
-38.175102 40.15679 -99.69682
-37.74218 42.780464 -102.95662
-37.10984 43.005745 -102.587944
-35.831764 46.662086 -105.900055
-35.28553 46.699364 -105.38117
-35.831764 46.662086 -105.90005
-35.285545 46.699364 -105.38117
-33.66137 50.68618 -107.673
-33.17321 50.563637 -107.02324
-30.764748 53.900444 -107.374725
-31.216469 54.083366 -108.03557
-30.764748 53.900444 -107.37473
-27.833183 56.82656 -108.06617
-27.492348 56.603752 -107.51508
-23.921501 59.363853 -107.79709
-23.745018 59.094475 -107.41886
-21.331444 62.33056 -106.22682
-21.247719 62.00849 -105.94991
-20.268532 65.19033 -103.69434
-20.18232 64.83605 -103.4179
-20.182304 64.83608 -103.41791
-18.847527 67.73431 -101.08703
-18.747612 67.38091 -100.79544
-16.311775 70.23113 -99.00468
-16.211952 69.893425 -98.71482
-16.211952 69.893456 -98.71483
-12.994133 72.641624 -97.598076
-12.900398 72.307945 -97.30744
-9.082878 74.215294 -96.49086
-9.082893 74.215294 -96.49085
-5.054909 75.33425 -96.13779
-1.092064 75.82519 -96.48639
-1.084862 75.56704 -96.27339
-1.092033 75.82525 -96.4864
-1.084831 75.5671 -96.27341
2.458214 74.76324 -97.48631
-30.062004 4.268379 -61.7324
-30.421913 6.302635 -64.51738
-30.07618 7.652916 -67.95207
-30.07618 7.652901 -67.95207
-29.689919 9.080086 -71.21574
-29.493553 10.931984 -74.28774
-29.75077 13.238441 -77.05484
-30.654823 15.74308 -79.443695
-32.121407 18.25663 -81.50836
-33.850487 20.858818 -83.491325
-35.67547 23.629005 -85.70967
-37.407722 26.624657 -88.46136
-38.504463 30.143898 -91.47549
-38.479027 34.134956 -94.209984
-37.99076 37.63981 -96.76703
-37.458473 40.339714 -99.414085
-36.4246 43.15049 -102.27637
-34.681618 46.666954 -104.92714
-34.681633 46.66694 -104.92714
-32.62046 50.378197 -106.44786
-30.24482 53.657814 -106.789696
-27.088554 56.336357 -107.02696
-23.515846 58.804604 -107.08215
-23.515862 58.804604 -107.08215
-21.11361 61.68009 -105.70236
-20.041435 64.474815 -103.17236
-20.041435 64.474846 -103.17238
-18.59391 67.01583 -100.53979
-16.068108 69.537346 -98.46554
-16.068123 69.53738 -98.46554
-12.775703 71.946526 -97.06272
-8.991203 73.827934 -96.23876
-8.991219 73.8279 -96.23876
-5.003685 74.94189 -95.88872
-1.066826 75.282005 -96.09645
-1.066795 75.28207 -96.09645
2.458199 74.76324 -97.48631
-28.933098 1.395271 -61.08672
-29.679115 4.484535 -61.657906
-29.90577 6.594582 -64.42746
-30.076195 7.652916 -67.95207
-29.559013 7.944542 -67.8773
-30.076195 7.652901 -67.952065
-29.559013 7.944557 -67.8773
-29.689934 9.080086 -71.21574
-29.173409 9.368111 -71.160675
-28.966667 11.222847 -74.250114
-29.209328 13.543724 -77.03498
-30.103264 16.080086 -79.4534
-31.56054 18.638863 -81.5573
-33.850487 20.858833 -83.491325
-33.264015 21.283165 -83.5669
-35.675453 23.629005 -85.70967
-35.042595 24.063133 -85.774666
-37.407707 26.624641 -88.46136
-36.71911 26.999641 -88.4571
-37.775764 30.3975 -91.36137
-38.479027 34.13497 -94.20998
-37.745674 34.248894 -93.99013
-37.99076 37.639824 -96.76703
-37.251762 37.70147 -96.516655
-36.703835 40.437813 -99.197235
-35.700523 43.211388 -102.02893
-34.681618 46.666954 -104.92715
-34.032402 46.565315 -104.54808
-34.681618 46.66694 -104.92715
-34.032417 46.565315 -104.54808
-32.620476 50.378212 -106.44787
-32.013985 50.13285 -105.95848
-30.244835 53.65783 -106.789696
-29.66677 53.359474 -106.29195
-30.244835 53.657814 -106.789696
-29.666786 53.35949 -106.291954
-27.08857 56.336357 -107.02696
-26.631004 56.032158 -106.615395
-23.515846 58.80459 -107.08215
-23.241905 58.50808 -106.80421
-23.515862 58.804604 -107.08216
-23.24192 58.508095 -106.80421
-21.11361 61.68009 -105.70237
-20.935295 61.36358 -105.501564
-19.85099 64.12591 -102.97287
-19.850975 64.12594 -102.97288
-18.3917 66.65798 -100.33502
-16.068108 69.537346 -98.465546
-15.885918 69.18124 -98.27245
-16.068123 69.53738 -98.465546
-12.775703 71.946526 -97.06273
-12.625267 71.5754 -96.87946
-8.882179 73.42397 -96.05335
-5.0037 74.94189 -95.88871
-4.938301 74.53158 -95.70591
-1.066826 75.282005 -96.09644
-1.038353 74.98415 -95.9669
-1.038322 74.984184 -95.96691
-28.933083 1.395256 -61.08672
-29.268394 4.652077 -61.616077
-29.353737 6.822777 -64.38363
-29.008919 8.176109 -67.852974
-28.628532 9.601784 -71.16247
-28.414986 11.463417 -74.27664
-28.644615 13.799431 -77.08478
-29.528358 16.365013 -79.53605
-30.975029 18.964256 -81.681335
-32.65029 21.644554 -83.720116
-34.379814 24.429268 -85.92057
-36.000343 27.306358 -88.53718
-37.01806 30.585258 -91.33459
-36.984093 34.297432 -93.85865
-36.48699 37.6894 -96.34803
-35.926888 40.449272 -99.05054
-34.95269 43.187386 -101.8504
-33.351402 46.396675 -104.25142
-33.351418 46.396675 -104.25142
-31.366707 49.833046 -105.56525
-29.043007 53.012062 -105.89197
-29.043007 53.012047 -105.89197
-26.12896 55.696495 -106.28736
-22.927605 58.20768 -106.58639
-20.71502 61.06063 -105.34644
-19.61393 63.791588 -102.819275
-19.61393 63.791603 -102.81928
-18.144295 66.31008 -100.18127
-15.668037 68.82778 -98.13507
-12.451103 71.197685 -96.75698
-8.757195 73.00704 -95.93388
-8.75721 73.00701 -95.93388
-4.859627 74.10702 -95.588554
-0.999962 74.67611 -95.884155
-0.999931 74.67617 -95.88416
-28.838448 4.767143 -61.60809
-28.77723 6.982002 -64.38714
-28.437141 8.342323 -67.880005
-28.066338 9.775887 -71.22155
-27.8498 11.648369 -74.36731
-28.068245 13.999809 -77.20379
-28.941902 16.591484 -79.69055
-30.37696 19.225624 -81.878456
-32.021965 21.934975 -83.94827
-33.700783 24.71923 -86.14481
-35.266243 27.537926 -88.70041
-36.246925 30.702873 -91.396194
-36.209923 34.279198 -93.81877
-35.712105 37.603523 -96.26518
-35.143593 40.373528 -98.97758
-34.19651 43.078438 -101.74482
-32.65264 46.164024 -104.0437
-32.652626 46.16404 -104.04371
-30.692131 49.485207 -105.277565
-28.38659 52.623238 -105.59956
-28.38659 52.623238 -105.599556
-25.591728 55.334557 -106.04803
-22.576393 57.903816 -106.42648
-20.454002 60.769142 -105.23192
-19.332817 63.470207 -102.70803
-19.332802 63.470207 -102.708046
-17.85456 65.97091 -100.0754
-15.416344 68.47613 -98.04946
-15.416359 68.47613 -98.04945
-12.254402 70.81316 -96.691025
-8.617119 72.57729 -95.875854
-8.617134 72.577324 -95.87585
-4.76844 73.66848 -95.5322
-0.952293 74.358055 -95.84501
-0.952263 74.358086 -95.84502
-28.933098 1.395256 -61.08672
-28.838432 4.767159 -61.60809
-28.398247 4.827415 -61.634094
-28.777214 6.982033 -64.38714
-28.18827 7.068993 -64.43799
-28.437141 8.342339 -67.880005
-27.855537 8.43972 -67.9579
-28.437126 8.342339 -67.880005
-27.855537 8.43972 -67.95789
-28.066338 9.775887 -71.22156
-27.498466 9.886696 -71.33677
-27.849815 11.648384 -74.36731
-27.282768 11.773811 -74.5203
-28.068245 13.999825 -77.20379
-27.492058 14.140724 -77.389595
-28.941887 16.5915 -79.69056
-28.35598 16.75483 -79.913765
-30.376945 19.225624 -81.87846
-29.778587 19.417503 -82.14467
-32.021965 21.934975 -83.94828
-31.391975 22.148369 -84.24664
-33.700783 24.719246 -86.14482
-33.0196 24.927101 -86.44272
-35.266228 27.537941 -88.70042
-34.532112 27.68966 -88.94333
-36.24691 30.702873 -91.396194
-35.478447 30.747948 -91.54481
-36.209892 34.279198 -93.81878
-35.4392 34.194572 -93.871254
-35.71209 37.603523 -96.26518
-34.9432 37.4457 -96.26977
-35.143578 40.373528 -98.97758
-34.370247 40.212227 -98.97976
-33.44764 42.886864 -101.71427
-32.65264 46.16404 -104.0437
-31.950539 45.872307 -103.92914
-30.692131 49.48522 -105.277565
-30.004524 49.096764 -105.101234
-28.38659 52.623253 -105.59957
-27.71151 52.201256 -105.42057
-27.71151 52.20124 -105.42057
-25.591713 55.334587 -106.04803
-25.029823 54.95347 -105.90246
-22.576393 57.90383 -106.42649
-22.193275 57.6016 -106.32854
-22.19326 57.601616 -106.32854
-20.15458 60.49369 -105.1613
-19.332802 63.470222 -102.708046
-19.01052 63.167107 -102.64227
-19.332787 63.470222 -102.708046
-19.01052 63.167107 -102.64229
-17.854546 65.97091 -100.07541
-17.525764 65.64614 -100.02048
-15.416328 68.47613 -98.04946
-15.133751 68.13186 -98.01854
-15.416359 68.47616 -98.04946
-15.133781 68.13186 -98.01855
-12.254402 70.813194 -96.691025
-12.037605 70.4277 -96.68438
-8.617104 72.577324 -95.875854
-8.463737 72.141136 -95.88208
-8.617119 72.577324 -95.875854
-8.463753 72.141106 -95.88207
-4.76844 73.66851 -95.5322
-4.665794 73.222404 -95.53964
-0.895744 74.03463 -95.85143
-0.895714 74.03466 -95.85145
-27.957039 4.831261 -61.693768
-27.59922 7.081429 -64.53543
-27.276222 8.465797 -68.08538
-26.936714 9.931465 -71.50613
-26.72573 11.836617 -74.73293
-26.928154 14.218727 -77.63885
-27.78292 16.851173 -80.20152
-29.192543 19.535454 -82.47488
-30.773613 22.27987 -84.60947
-32.350655 25.048058 -86.80852
-33.81356 27.75785 -89.26136
-34.729057 30.719017 -91.77787
-34.688393 34.044945 -94.01557
-34.1966 37.21879 -96.3622
-33.62319 39.968285 -99.05748
-32.721764 42.616234 -101.75998
-31.259727 45.527275 -103.9108
-31.259743 45.527275 -103.910805
-29.318245 48.67553 -105.04023
-27.031868 51.754646 -105.358894
-27.031868 51.754646 -105.3589
-24.454308 54.56141 -105.85551
-21.78437 57.308388 -106.29896
-21.784386 57.308388 -106.29897
-19.820305 60.242027 -105.14115
-18.65104 62.891014 -102.62764
-18.651024 62.891014 -102.627655
-17.162209 65.34475 -100.021965
-14.824074 67.80367 -98.04788
-14.824089 67.80367 -98.04789
-11.803917 70.0501 -96.74248
-8.299416 71.70815 -95.95809
-8.299416 71.70815 -95.958084
-4.553093 72.77856 -95.61629
-0.830925 73.712975 -95.90729
-0.83091 73.713005 -95.907295
-27.524162 4.778358 -61.786045
-27.022438 7.018669 -64.677635
-26.711418 8.419624 -68.26002
-26.392998 9.908897 -71.72634
-26.190498 11.835197 -75.00099
-26.388542 14.231941 -77.94659
-27.234901 16.878136 -80.54807
-28.631264 19.576607 -82.86238
-30.180016 22.326302 -85.029366
-31.708138 25.07917 -87.23477
-33.125847 27.740715 -89.6481
-34.014717 30.616386 -92.09078
-33.973564 33.83309 -94.249016
-33.488197 36.927162 -96.54084
-32.91822 39.646355 -99.209366
-32.034294 42.27195 -101.881195
-30.594841 45.13598 -103.989365
-28.647285 48.22991 -105.09635
-26.361351 51.29238 -105.416435
-26.361382 51.292366 -105.41644
-23.878624 54.16732 -105.90818
-21.362923 57.033028 -106.33744
-19.464348 60.02279 -105.17063
-18.26757 62.650658 -102.66335
-18.267555 62.650673 -102.66337
-16.776772 65.0761 -100.07855
-14.498528 67.50231 -98.1351
-14.498543 67.50231 -98.1351
-11.561684 69.69311 -96.8618
-8.129921 71.2929 -96.09961
-4.434349 72.35183 -95.75789
-0.760246 73.40386 -96.00946
-0.760216 73.40389 -96.00947
-28.933083 1.395271 -61.086716
-28.933098 1.395271 -61.086716
-27.524178 4.778343 -61.78604
-27.109016 4.669365 -61.909153
-27.022453 7.018654 -64.677635
-26.470528 6.881523 -64.86187
-26.711433 8.419594 -68.26001
-26.17353 8.301704 -68.47834
-26.711433 8.419609 -68.26001
-26.17353 8.301704 -68.47835
-26.393013 9.908897 -71.72633
-25.87928 9.819069 -71.992935
-26.190514 11.835197 -75.000984
-25.688896 11.769157 -75.31899
-26.388557 14.231926 -77.94658
-25.885109 14.179573 -78.30653
-27.234917 16.87812 -80.548065
-26.723991 16.834618 -80.94629
-28.631279 19.576591 -82.86237
-28.107124 19.539467 -83.2992
-30.18003 22.326286 -85.02936
-29.62426 22.286034 -85.497696
-31.708153 25.07917 -87.23477
-31.106209 25.019096 -87.71276
-33.125877 27.740715 -89.648094
-32.48414 27.637947 -90.09573
-34.014732 30.616386 -92.090775
-33.35125 30.441658 -92.47741
-33.97358 33.833076 -94.24901
-33.31063 33.563057 -94.56717
-33.488213 36.927147 -96.54084
-32.83381 36.576546 -96.802475
-32.918236 39.64634 -99.209366
-32.270927 39.252724 -99.432724
-32.03431 42.271935 -101.881195
-31.400536 41.860847 -102.07578
-30.594856 45.135963 -103.98936
-29.97065 44.70661 -104.16376
-30.594856 45.13598 -103.98936
-29.97065 44.70661 -104.16375
-28.6473 48.229897 -105.096344
-28.005592 47.769005 -105.269646
-26.361366 51.29235 -105.416435
-25.713509 50.823708 -105.593376
-26.361397 51.29235 -105.416435
-25.713509 50.823723 -105.59337
-23.878624 54.16729 -105.90818
-23.317787 53.78071 -106.05869
-21.362938 57.032997 -106.33743
-20.946724 56.785133 -106.43922
-20.946709 56.785133 -106.43922
-19.464378 60.02276 -105.17062
-19.106041 59.84504 -105.2441
-18.26757 62.65061 -102.66335
-17.879204 62.45472 -102.74441
-18.267555 62.650642 -102.66336
-17.879189 62.454735 -102.74442
-16.776787 65.07607 -100.078545
-16.38784 64.849815 -100.18444
-14.498543 67.50231 -98.13509
-14.17292 67.23968 -98.272446
-14.498558 67.50228 -98.13509
-14.172935 67.23965 -98.27245
-11.561714 69.69311 -96.86179
-11.322502 69.37136 -97.03297
-8.129951 71.29287 -96.0996
-7.963264 70.912865 -96.29601
-8.129936 71.2929 -96.0996
-7.963295 70.912834 -96.29601
-4.434364 72.3518 -95.75787
-4.315361 71.96029 -95.9538
-0.760246 73.40383 -96.00945
-0.687218 73.120384 -96.15034
-0.760231 73.40386 -96.00946
-0.687187 73.120445 -96.15034
2.458183 74.76327 -97.486305
-26.720573 4.506386 -62.0606
-25.955498 6.672585 -65.084335
-25.674278 8.114265 -68.73582
-25.674278 8.114281 -68.73582
-25.406822 9.663567 -72.30034
-25.231941 11.63958 -75.68033
-25.428963 14.062416 -78.711136
-26.261513 16.721275 -81.387764
-27.631676 19.424553 -83.77611
-29.118553 22.159538 -86.004555
-30.558006 24.86869 -88.232414
-31.902397 27.451363 -90.59494
-32.753105 30.19825 -92.92982
-32.71418 33.240334 -94.963684
-32.247887 36.174126 -97.14188
-31.69561 38.795494 -99.7231
-30.834328 41.391518 -102.340004
-29.400658 44.248207 -104.43078
-27.407219 47.302788 -105.55686
-25.102654 50.358894 -105.886314
-25.102654 50.358894 -105.88631
-22.783165 53.409645 -106.30479
-20.541954 56.569115 -106.60395
-20.541954 56.5691 -106.60395
-18.74926 59.711662 -105.36206
-17.490685 62.306816 -102.87087
-17.49067 62.306816 -102.87088
-16.00045 64.670006 -100.33924
-13.851418 67.02001 -98.45927
-13.851418 67.02001 -98.459274
-11.08947 69.08996 -97.25494
-7.801643 70.573875 -96.54606
-7.801674 70.573845 -96.54605
-4.197594 71.60998 -96.20281
-0.61274 72.866936 -96.32904
-0.612694 72.86697 -96.32905
2.458168 74.76324 -97.486305
-26.367378 4.2929 -62.237152
-25.488686 6.396309 -65.340225
-25.224724 7.861214 -69.0269
-24.986137 9.44561 -72.64196
-24.829826 11.449135 -76.07715
-25.030281 13.882866 -79.15159
-25.85778 16.540337 -81.86293
-27.2156 19.234077 -84.28274
-28.67411 21.949303 -86.538925
-30.07563 24.631004 -88.78245
-31.393456 27.184853 -91.13488
-32.233467 29.891304 -93.43826
-32.197334 32.871834 -95.43011
-31.743462 35.728615 -97.55188
-31.205132 38.284523 -100.07426
-30.347923 40.873894 -102.668335
-28.897118 43.770576 -104.78499
-28.897118 43.770576 -104.78498
-26.866585 46.84194 -105.95139
-24.543907 49.908897 -106.28827
-24.543922 49.908882 -106.28827
-22.282219 53.06063 -106.643585
-20.143288 56.384148 -106.8356
-18.38279 59.619118 -105.53103
-17.092735 62.20507 -103.04775
-17.09272 62.205086 -103.04777
-15.606575 64.53503 -100.54801
-13.526649 66.83999 -98.70199
-13.526649 66.83999 -98.701996
-10.857399 68.843956 -97.53493
-7.641624 70.26986 -96.85758
-4.078468 71.29449 -96.51279
-0.535057 72.63885 -96.55121
-0.535027 72.63888 -96.55122
2.458183 74.76321 -97.4863
-26.05732 4.033379 -62.434986
-25.08059 6.058464 -65.624054
-24.835045 7.547798 -69.34531
-24.835045 7.547813 -69.345314
-24.626793 9.169701 -73.010376
-24.491798 11.201744 -76.50084
-24.698189 13.644646 -79.61831
-25.522026 16.295464 -82.36142
-26.868416 18.97187 -84.80802
-28.30114 21.659523 -87.08916
-29.670052 24.310783 -89.35092
-30.968788 26.843864 -91.703896
-31.8041 29.52729 -93.99185
-31.771782 32.465492 -95.95648
-31.331932 35.249657 -98.02377
-30.810722 37.730904 -100.47875
-29.95243 40.31916 -103.05389
-28.471397 43.28405 -105.21904
-26.396156 46.396767 -106.44497
-24.050194 49.483894 -106.790794
-24.050209 49.48388 -106.79079
-21.825142 52.74093 -107.0684
-19.75631 56.23278 -107.130516
-18.010399 59.56768 -105.74886
-16.690102 62.150368 -103.27258
-16.690102 62.150383 -103.2726
-15.211189 64.44622 -100.807755
-13.202492 66.70138 -98.99729
-13.202492 66.70141 -98.9973
-10.629051 68.63607 -97.86916
-7.48513 70.004265 -97.22636
-7.485146 70.004234 -97.226364
-3.959358 71.01733 -96.87947
-0.455101 72.43862 -96.8138
-0.45507 72.43868 -96.813805
-26.057335 4.033379 -62.434982
-25.797173 3.733681 -62.64963
-25.080605 6.058464 -65.624054
-24.740181 5.666679 -65.929405
-24.83506 7.547798 -69.34531
-24.513878 7.18119 -69.68384
-24.513878 7.181206 -69.683846
-24.626808 9.169685 -73.01037
-24.336739 8.842171 -73.397224
-24.491814 11.201729 -76.50084
-24.225197 10.903069 -76.94182
-24.698204 13.64463 -79.61831
-24.43998 13.353188 -80.10078
-25.522026 16.295448 -82.36141
-25.261711 15.992317 -82.871956
-26.868416 18.97184 -84.808014
-26.597801 18.643959 -85.34011
-28.30114 21.659523 -87.08915
-28.007896 21.296837 -87.642876
-29.670067 24.310753 -89.35092
-29.350304 23.91529 -89.92511
-30.968803 26.84385 -91.70389
-30.637901 26.436073 -92.289276
-31.47451 29.114388 -94.57815
-31.771797 32.465492 -95.95648
-31.446907 32.030434 -96.530975
-31.331947 35.249657 -98.023766
-31.022362 34.74798 -98.54696
-30.810738 37.73089 -100.478745
-30.521004 37.14695 -100.927605
-29.952446 40.31916 -103.05388
-29.656853 39.73983 -103.487885
-28.471397 43.28405 -105.219025
-28.133293 42.79969 -105.72297
-28.471413 43.28405 -105.219025
-26.396156 46.396767 -106.44496
-26.005287 45.97683 -107.0272
-24.050224 49.48388 -106.79078
-23.631035 49.092705 -107.38354
-24.050209 49.483864 -106.79078
-23.63105 49.092705 -107.38353
-21.825157 52.74093 -107.06839
-21.426247 52.459053 -107.56717
-19.75631 56.23278 -107.13051
-19.402977 56.122993 -107.47372
-19.756325 56.23278 -107.13051
-19.402977 56.122993 -107.473724
-18.010414 59.567665 -105.74886
-17.658348 59.56344 -106.000565
-16.690117 62.150368 -103.27258
-16.308723 62.147438 -103.53174
-16.308723 62.147438 -103.531746
-15.211189 64.44619 -100.807755
-14.838783 64.40972 -101.103485
-13.202507 66.70138 -98.99729
-12.899788 66.61404 -99.32731
-13.202507 66.70138 -98.9973
-12.899803 66.61404 -99.32731
-10.629066 68.63607 -97.86916
-10.419151 68.4804 -98.23738
-7.485146 70.004265 -97.22635
-7.34214 69.79464 -97.63014
-7.485161 70.004234 -97.22636
-7.342155 69.79464 -97.63014
-3.959373 71.01733 -96.87946
-3.847908 70.79693 -97.28071
-0.455116 72.43859 -96.8138
-0.377998 72.279625 -97.100914
-0.455101 72.43865 -96.8138
-0.377968 72.279686 -97.10092
2.458168 74.76321 -97.486305
-25.59275 3.400368 -62.8763
-24.47506 5.229607 -66.249504
-24.268349 6.769478 -70.03507
-24.268349 6.769478 -70.035065
-24.122475 8.470268 -73.79403
-24.036095 10.559746 -77.39033
-24.261528 13.014961 -80.58828
-25.082726 15.637566 -83.38326
-26.409966 18.257484 -85.86723
-27.80114 20.869072 -88.187805
-29.123726 23.453102 -90.49225
-30.408394 25.970284 -92.87805
-31.252266 28.661613 -95.18427
-31.230156 31.576286 -97.141014
-30.821754 34.234673 -99.11003
-30.342552 36.545525 -101.41104
-29.468208 39.14869 -103.96079
-27.8908 42.328285 -106.28572
-25.70237 45.591286 -107.68584
-23.295097 48.74386 -108.054276
-23.295082 48.743843 -108.054276
-21.096672 52.222145 -108.12771
-19.09864 56.059914 -107.85318
-17.34446 59.609474 -106.2751
-15.966499 62.19854 -103.81486
-15.966469 62.19854 -103.814865
-14.506355 64.42895 -101.42378
-12.63279 66.583824 -99.67868
-12.632774 66.58379 -99.67869
-10.237694 68.385796 -98.62455
-7.219475 69.65252 -98.05242
-7.219475 69.65249 -98.05242
-3.74929 70.64532 -97.70007
-0.307152 72.170586 -97.4008
-0.307121 72.17065 -97.40082
-28.933113 1.395241 -61.086716
-25.448128 3.040962 -63.10992
-24.290459 4.757042 -66.577194
-24.10328 6.321892 -70.39117
-24.10328 6.321877 -70.391174
-23.98806 8.06237 -74.19206
-23.92797 10.179558 -77.836586
-24.166023 12.637581 -81.07015
-24.98832 15.23925 -83.8841
-26.308434 17.821281 -86.37788
-27.684883 20.385979 -88.71209
-28.994743 22.93467 -91.039986
-30.284752 25.457054 -93.457306
-31.141716 28.179085 -95.79679
-31.125679 31.113014 -97.77299
-30.73394 33.721046 -99.700325
-30.27871 35.939964 -101.91815
-29.389824 38.558723 -104.46202
-27.748497 41.880013 -106.894646
-25.494102 45.248543 -108.40553
-23.050056 48.44494 -108.78721
-23.050072 48.44494 -108.7872
-20.841103 52.034355 -108.73862
-18.842476 56.042046 -108.26488
-18.84246 56.042046 -108.264885
-17.065636 59.701714 -106.57181
-15.661507 62.300224 -104.12024
-15.661507 62.30024 -104.12025
-14.212532 64.500786 -101.766426
-12.399834 66.60732 -100.049736
-12.399849 66.60732 -100.049736
-10.083351 68.34881 -99.02899
-7.116203 69.57406 -98.49142
-7.116234 69.57406 -98.49141
-3.663002 70.558586 -98.13581
-0.242424 72.108604 -97.71223
-0.242393 72.108635 -97.712234
2.458168 74.76324 -97.4863
-25.366417 2.663383 -63.345367
-24.19027 4.259438 -66.90537
-24.022148 5.848289 -70.74445
-24.022133 5.848305 -70.74445
-23.936256 7.627449 -74.582726
-23.902916 9.770821 -78.27096
-24.155357 12.229439 -81.53604
-24.9804 14.806221 -84.36374
-26.29528 17.344994 -86.86099
-27.661537 19.858223 -89.20429
-28.966179 22.371468 -91.556335
-30.269676 24.907738 -94.01435
-31.145271 27.677513 -96.40229
-31.13578 30.650948 -98.413086
-30.760872 33.218452 -100.30501
-30.33097 35.34362 -102.43786
-29.423363 37.982964 -104.98076
-27.709297 41.464775 -107.53669
-27.709297 41.464775 -107.53668
-25.385536 44.95643 -109.17029
-22.902061 48.20301 -109.56584
-22.902077 48.20301 -109.56585
-20.663261 51.899452 -109.38812
-18.633812 56.06826 -108.704544
-18.633797 56.068245 -108.70455
-16.819572 59.836555 -106.88991
-15.392372 62.449425 -104.44604
-15.392357 62.44944 -104.44605
-13.95623 64.62246 -102.12895
-12.199593 66.68163 -100.438385
-12.199608 66.68163 -100.43838
-9.954948 68.36654 -99.448685
-7.031532 69.55624 -98.944954
-7.031548 69.55624 -98.94495
-3.588478 70.53359 -98.58583
-0.183571 72.09145 -98.033676
-0.18354 72.091515 -98.03369
2.458199 74.76324 -97.486305
-25.348686 2.275948 -63.57753
-24.175728 3.747688 -67.22696
-24.025627 5.359093 -71.08744
-24.025627 5.359077 -71.08745
-23.967049 7.175072 -74.95783
-23.96035 9.342583 -78.68442
-24.228645 11.799538 -81.97628
-25.058098 14.348045 -84.812225
-26.369804 16.839195 -87.3066
-27.730644 19.297585 -89.65419
-29.037682 21.77604 -92.03043
-30.36248 24.33448 -94.537315
-31.261787 27.16784 -96.987724
-31.259178 30.199974 -99.04736
-30.900917 32.73757 -100.91079
-30.49717 34.769188 -102.95871
-29.567146 37.4336 -105.505554
-27.773232 41.09115 -108.19758
-25.377953 44.720497 -109.96291
-22.853157 48.022285 -110.3726
-22.853157 48.02227 -110.3726
-20.566994 51.82038 -110.06217
-18.478844 56.1399 -109.16407
-18.478859 56.139885 -109.16408
-16.613869 60.01394 -107.22442
-15.166847 62.645668 -104.78667
-15.166847 62.645683 -104.78668
-13.744774 64.79406 -102.50479
-12.03817 66.807945 -100.837524
-12.038155 66.807945 -100.837524
-9.856743 68.44152 -99.875725
-6.968315 69.60265 -99.40437
-6.96833 69.60265 -99.40437
-3.528084 70.57421 -99.04154
-0.132256 72.12185 -98.359055
-0.132225 72.12191 -98.35907
-25.348686 2.275963 -63.57753
-25.39515 1.887077 -63.80144
-24.175743 3.747704 -67.22696
-24.246773 3.232887 -67.53511
-24.025642 5.359093 -71.08744
-24.113228 4.864738 -71.41293
-24.113213 4.864738 -71.41294
-24.079384 6.714821 -75.30967
-24.09861 8.903954 -79.06852
-24.383827 11.357109 -82.38183
-25.058098 14.348045 -84.81223
-25.219246 13.87458 -85.220276
-26.36979 16.839195 -87.3066
-26.530006 16.314766 -87.7054
-27.730644 19.29757 -89.65419
-27.89045 18.716164 -90.05232
-29.037682 21.77604 -92.03042
-29.207542 21.161217 -92.45216
-30.36248 24.33448 -94.53731
-30.561089 23.74961 -95.01498
-31.261787 27.167824 -96.98773
-31.48864 26.661003 -97.54053
-31.259193 30.199974 -99.04736
-31.493065 29.769768 -99.66218
-31.150887 32.288734 -101.504616
-30.773476 34.22901 -103.469536
-29.567162 37.4336 -105.505554
-29.818 36.92257 -106.02515
-27.938866 40.767326 -108.863045
-27.938866 40.767296 -108.86305
-25.471153 44.545647 -110.766304
-22.853157 48.0223 -110.3726
-22.903938 47.906425 -111.19008
-22.903938 47.90641 -111.19007
-20.555107 51.799416 -110.74624
-18.383705 56.25727 -109.63339
-18.383705 56.25727 -109.6334
-16.613853 60.013924 -107.22441
-16.45655 60.232475 -107.567856
-14.993034 62.88688 -105.13455
-15.166847 62.645668 -104.786674
-14.993034 62.886894 -105.13456
-13.744774 64.79406 -102.50478
-13.585747 65.01412 -102.88553
-12.03817 66.807945 -100.83752
-11.921715 66.98617 -101.23794
-12.038155 66.807945 -100.83752
-11.92173 66.9862 -101.23793
-9.856728 68.44152 -99.87572
-9.792778 68.57522 -100.299995
-6.929268 69.71587 -99.8587
-6.929283 69.71584 -99.8587
-3.528084 70.57421 -99.041534
-3.484047 70.68322 -99.49203
-0.132256 72.12185 -98.35905
-0.09008 72.201836 -98.680534
-0.132225 72.12191 -98.35906
-0.09005 72.201866 -98.68055
-28.933113 1.395256 -61.08671
-25.504158 1.504951 -64.01239
-24.40084 2.725822 -67.82358
-24.281761 4.375603 -71.71459
-24.281776 4.375587 -71.714584
-24.269356 6.256371 -75.6316
-24.313255 8.464104 -79.416084
-24.616127 10.911339 -82.74513
-25.458992 13.39579 -85.58036
-26.771126 15.782906 -88.05002
-28.136467 18.126427 -90.39112
-29.471199 20.54023 -92.81324
-30.860313 23.165672 -95.43765
-31.82003 26.167747 -98.04928
-31.83152 29.36924 -100.2447
-31.504524 31.881233 -102.07406
-31.153114 33.734337 -103.95966
-30.169563 36.460274 -106.52845
-28.201744 40.49949 -109.51878
-28.20176 40.499504 -109.51878
-25.662392 44.43534 -111.5639
-23.052559 47.857796 -112.001724
-23.052574 47.85778 -112.00172
-20.626778 51.835213 -111.42361
-18.349068 56.41308 -110.095566
-18.349068 56.413063 -110.09557
-16.35009 60.4806 -107.9045
-14.87429 63.160698 -105.47535
-14.87429 63.16073 -105.475365
-13.482063 65.2709 -103.25636
-11.851845 67.205986 -101.62379
-11.851845 67.205986 -101.623795
-9.763359 68.75857 -100.705055
-6.914375 69.88708 -100.29059
-6.914375 69.88705 -100.29058
-3.456978 70.85183 -99.920074
-0.058113 72.324974 -98.98585
-0.058067 72.325035 -98.985855
-25.673073 1.137703 -64.205864
-24.63401 2.237129 -68.08642
-24.526894 3.901772 -71.98644
-24.526909 3.901772 -71.986435
-24.532112 5.80912 -75.91745
-24.598778 8.032066 -79.720634
-24.919716 10.471474 -83.05949
-25.771477 12.921638 -85.88572
-27.087502 15.254692 -88.33386
-28.463036 17.540733 -90.66389
-29.822807 19.926186 -93.10622
-31.253685 22.59504 -95.796455
-32.248924 25.69854 -98.50316
-32.267296 29.006966 -100.782486
-31.954262 31.52369 -102.60707
-31.627953 33.295647 -104.41879
-30.614357 36.05642 -107.00467
-28.556206 40.29328 -110.15073
-25.947655 44.392296 -112.33939
-23.296059 47.877922 -112.79116
-23.296043 47.877922 -112.79117
-20.780022 51.92556 -112.07782
-18.374107 56.59913 -110.53383
-18.374107 56.599113 -110.53384
-16.295235 60.74592 -108.21885
-14.812447 63.453926 -105.79503
-14.812431 63.45394 -105.795044
-13.43531 65.55196 -103.60282
-11.828926 67.455986 -101.9797
-11.828941 67.455986 -101.979706
-9.767799 68.981316 -101.07502
-6.92292 70.1061 -100.68329
-6.922905 70.10607 -100.68329
-3.44709 71.06997 -100.309074
-0.037086 72.48394 -99.26312
-0.037056 72.484 -99.26313
-25.896645 0.793114 -64.3776
-24.939156 1.776894 -68.31816
-24.841576 3.452644 -72.223465
-24.841576 3.452629 -72.22347
-24.86042 5.381691 -76.16251
-24.947533 7.616127 -79.97748
-25.286537 10.046028 -83.32012
-26.148567 12.461433 -86.13178
-27.471107 14.740685 -88.55261
-28.86219 16.971 -90.866165
-30.25422 19.331688 -93.32578
-31.732323 22.0494 -96.08447
-32.76557 25.262932 -98.89324
-32.79061 28.690071 -101.26484
-32.49006 31.223045 -103.09289
-32.18743 32.921516 -104.83757
-31.142448 35.71897 -107.44431
-28.99424 40.15255 -110.74621
-28.99424 40.15255 -110.7462
-26.320168 44.416435 -113.076324
-23.628395 47.965233 -113.54137
-23.62841 47.965218 -113.54137
-21.011574 52.069588 -112.69769
-18.459587 56.816338 -110.94643
-16.294426 61.03022 -108.51317
-14.809227 63.76803 -106.094154
-14.809227 63.76806 -106.09417
-13.446877 65.858635 -103.92472
-11.854378 67.737755 -102.30593
-9.807228 69.24529 -101.41
-6.955727 70.37499 -101.036736
-6.955742 70.37496 -101.036736
-3.455025 71.33959 -100.65895
-0.027412 72.68017 -99.51232
-0.027382 72.68023 -99.51234
-26.16848 0.478783 -64.523575
-25.30764 1.354851 -68.513855
-25.21737 3.037224 -72.42137
-25.21737 3.037224 -72.421364
-25.245811 4.982414 -76.362946
-25.350716 7.224297 -80.182915
-25.707512 9.643227 -83.523415
-26.580986 12.024193 -86.31512
-27.912712 14.251167 -88.70313
-29.324867 16.428795 -90.99468
-30.75608 18.768929 -93.46781
-32.286064 21.540047 -96.295944
-33.359093 24.86988 -99.21161
-33.390434 28.425102 -101.68192
-33.100594 30.98545 -103.52151
-32.819725 32.619514 -105.207306
-31.74273 35.454933 -107.83857
-29.50663 40.08033 -111.29326
-29.50663 40.080345 -111.29325
-26.77172 44.506508 -113.75845
-24.042091 48.116875 -114.23537
-21.317284 52.266945 -113.27435
-18.606361 57.069313 -111.33766
-16.350212 61.34086 -108.79684
-14.865913 64.11022 -106.379196
-14.865883 64.11025 -106.37921
-13.517677 66.19775 -104.227554
-11.929741 68.05804 -102.60904
-9.883186 69.55694 -101.716545
-7.013878 70.70037 -101.35757
-7.013893 70.7004 -101.35756
-3.481117 71.667534 -100.976364
-0.028999 72.9186 -99.738205
-0.028969 72.91866 -99.73822
-26.483772 0.200539 -64.64137
-25.30764 1.354851 -68.51385
-25.732124 0.97863 -68.67061
-25.645622 2.662895 -72.57755
-25.21737 3.037239 -72.42136
-25.645638 2.662895 -72.57755
-25.67878 4.618233 -76.51656
-25.79818 6.86338 -80.335075
-26.171944 9.27018 -83.66775
-26.580986 12.024193 -86.31511
-27.057976 11.617897 -86.43452
-28.401695 13.795372 -88.78459
-29.324867 16.42878 -90.99468
-29.840416 15.924644 -91.04838
-30.75608 18.768913 -93.46781
-31.317528 18.249123 -93.530136
-32.286064 21.540047 -96.29594
-32.903267 21.077217 -96.4268
-33.359093 24.869865 -99.2116
-34.017113 24.527245 -99.45193
-33.39042 28.425087 -101.68192
-34.054222 28.217216 -102.025375
-33.100594 30.985435 -103.5215
-33.773155 30.815483 -103.884315
-32.819725 32.619514 -105.20729
-33.51168 32.395515 -105.520546
-31.74273 35.454933 -107.83856
-32.402733 35.269417 -108.17941
-30.082634 40.077797 -111.78077
-29.50663 40.08033 -111.29325
-30.082619 40.07778 -111.78077
-26.77172 44.506493 -113.75845
-27.292946 44.6605 -114.37216
-24.528557 48.329735 -114.859406
-24.528572 48.329735 -114.859406
-21.69033 52.51275 -113.79553
-18.80999 57.3507 -111.69754
-18.606361 57.069298 -111.33766
-18.810005 57.3507 -111.69755
-16.350227 61.34086 -108.79683
-16.4598 61.66854 -109.06161
-14.865913 64.11022 -106.37919
-14.979897 64.47054 -106.64235
-14.865898 64.11022 -106.3792
-14.979897 64.47054 -106.64236
-13.517677 66.197716 -104.227554
-13.644966 66.55944 -104.5033
-12.052177 68.40731 -102.88086
-9.883202 69.55691 -101.716545
-9.993019 69.90679 -101.98651
-7.013893 70.70034 -101.35757
-7.095406 71.07238 -101.63738
-7.013908 70.70037 -101.35756
-7.095406 71.07235 -101.63738
-3.481133 71.6675 -100.97636
-3.524437 72.043785 -101.25296
-0.029015 72.9186 -99.738205
-0.041649 73.19198 -99.934845
-0.028984 72.91866 -99.73822
-0.041618 73.19201 -99.93486
-26.838753 -0.036842 -64.72993
-26.20591 0.654564 -68.787224
-26.11721 2.335899 -72.69091
-26.117195 2.335899 -72.69091
-26.148643 4.29528 -76.62257
-26.278328 6.539574 -80.433586
-26.667778 8.933388 -83.753174
-27.567207 11.249901 -86.49049
-28.925804 13.381996 -88.79781
-30.396828 15.468605 -91.02779
-31.926384 17.782982 -93.512085
-33.571053 20.67051 -96.474434
-34.726006 24.24221 -99.60922
-34.768196 28.070793 -102.28806
-34.493782 30.716728 -104.17384
-34.248985 32.25431 -105.77094
-33.108635 35.1661 -108.45959
-30.710182 40.144722 -112.19828
-30.710197 40.144722 -112.19828
-27.873451 44.876076 -114.905716
-25.078346 48.60047 -115.401985
-25.078362 48.60047 -115.401985
-22.121696 52.79899 -114.24655
-19.06208 57.644753 -112.006
-19.06208 57.644737 -112.006
-16.616432 61.992104 -109.28681
-15.145897 64.826744 -106.865814
-15.145897 64.826744 -106.86582
-13.823265 66.92199 -104.734436
-12.215553 68.76452 -103.10298
-12.215553 68.76452 -103.10299
-10.130913 70.27419 -102.20148
-7.196007 71.46923 -101.85715
-7.196007 71.4692 -101.85715
-3.582893 72.44628 -101.469894
-0.064964 73.484245 -100.088806
-0.064934 73.48431 -100.08882
-28.933098 1.395241 -61.08671
-27.227974 -0.229225 -64.78838
-26.720192 0.387718 -68.86316
-26.621315 2.061028 -72.761444
-26.621315 2.061028 -72.76144
-26.643745 4.018196 -76.68167
-26.77906 6.257469 -80.47986
-27.18235 8.63784 -83.78168
-28.095604 10.926048 -86.485695
-29.47181 13.018135 -88.74592
-30.980919 15.069252 -90.935486
-32.569588 17.379845 -93.414696
-34.27569 20.328362 -96.43783
-35.47126 24.020653 -99.68008
-35.51783 27.98896 -102.46439
-35.24778 30.69146 -104.38402
-35.01664 32.199028 -105.95331
-33.846092 35.1473 -108.6732
-31.376564 40.279915 -112.53705
-31.376564 40.2799 -112.53704
-28.501472 45.149117 -115.3483
-25.680336 48.923897 -115.852196
-25.680367 48.923897 -115.852196
-22.602196 53.11918 -114.61706
-19.356361 57.942986 -112.253525
-19.356361 57.942986 -112.25354
-16.815681 62.301353 -109.46401
-15.359764 65.1679 -107.04184
-15.359749 65.1679 -107.041855
-14.048149 67.27447 -104.91324
-12.415581 69.11895 -103.26766
-12.415596 69.11895 -103.26766
-10.293159 70.64834 -102.35377
-7.312965 71.87942 -102.00899
-7.312981 71.87939 -102.00898
-3.654945 72.863396 -101.61938
-0.098442 73.78698 -100.19456
-0.098412 73.78701 -100.19457
-28.933113 1.395256 -61.086716
-27.644035 -0.373192 -64.81617
-27.263268 0.182152 -68.898506
-27.144218 1.841942 -72.790306
-27.144218 1.841942 -72.7903
-27.149788 3.790504 -76.69608
-27.285912 6.020805 -80.477066
-27.70086 8.387642 -83.75737
-28.627861 10.651146 -86.425255
-30.024254 12.709785 -88.63476
-31.577736 14.733894 -90.77668
-33.232735 17.047722 -93.24115
-35.00245 20.057823 -96.31782
-36.237465 23.867271 -99.66297
-36.287605 27.973412 -102.55071
-36.019646 30.740135 -104.51044
-35.798744 32.230766 -106.06376
-34.599922 35.213463 -108.81593
-32.06803 40.480644 -112.79024
-32.068047 40.480644 -112.79023
-29.163933 45.473473 -115.69009
-26.321877 49.292763 -116.19976
-26.321892 49.292747 -116.19976
-23.122734 53.468468 -114.90167
-19.689232 58.245155 -112.44259
-19.689247 58.245155 -112.4426
-17.056084 62.59841 -109.59873
-15.61869 65.49572 -107.17427
-15.61869 65.49572 -107.17428
-14.316643 67.618065 -105.04312
-12.650261 69.47149 -103.37919
-10.478493 71.02938 -102.44803
-7.445396 72.3027 -102.09779
-7.445412 72.3027 -102.09779
-3.739799 73.29488 -101.70631
-0.141457 74.10003 -100.25554
-0.141426 74.10006 -100.255554
2.458199 74.76321 -97.486305
-28.078972 -0.465828 -64.81237
-27.828804 0.039833 -68.89238
-27.68502 1.678383 -72.77695
-27.6697 3.610497 -76.66522
-27.80384 5.827217 -80.4245
-28.228401 8.180397 -83.67961
-29.167564 10.423302 -86.30894
-30.583473 12.456459 -88.46487
-32.182304 14.464928 -90.55323
-33.90484 16.792122 -92.99424
-35.73684 19.864723 -96.11639
-37.008934 23.785652 -99.557785
-37.061745 28.02488 -102.54472
-36.793434 30.862206 -104.54996
-36.57917 32.349373 -106.09954
-35.354576 35.36387 -108.884476
-32.770454 40.7434 -112.95218
-32.77047 40.7434 -112.95218
-29.846992 45.842567 -115.92312
-26.98957 49.69924 -116.43646
-26.98957 49.699226 -116.436455
-23.673668 53.84101 -115.09518
-20.0568 58.549065 -112.572716
-20.056816 58.549065 -112.57273
-17.33619 62.88279 -109.69245
-15.920326 65.809044 -107.26376
-15.920326 65.809074 -107.26377
-14.625938 67.9511 -105.12455
-12.917473 69.8204 -103.438576
-10.685356 71.415245 -102.485466
-7.592232 72.736565 -102.12488
-7.592216 72.736534 -102.12487
-3.836708 73.73815 -101.73193
-0.193474 74.42144 -100.27271
-0.193428 74.4215 -100.27273
2.458183 74.76324 -97.48631
-28.522713 -0.504707 -64.7753
-28.414375 -0.038155 -68.84181
-28.254356 1.568596 -72.717445
-28.254372 1.568596 -72.71744
-28.222176 3.474602 -76.58343
-28.355034 5.672081 -80.31475
-28.787773 8.010765 -83.54017
-29.735619 10.236824 -86.12847
-31.164726 12.253258 -88.229385
-32.799187 14.260765 -90.26237
-34.578087 16.61567 -92.6763
-36.464256 19.752708 -95.83733
-37.769478 23.777534 -99.36665
-37.824043 28.142342 -102.44648
-37.55294 31.055138 -104.50172
-37.34156 32.55239 -106.05985
-36.0944 35.595406 -108.877266
-33.46926 41.0626 -113.01933
-33.46926 41.062584 -113.019325
-30.536156 46.24859 -116.04272
-27.66912 50.134834 -116.55773
-27.669136 50.13482 -116.55773
-24.244377 54.228996 -115.192314
-20.454475 58.84832 -112.63729
-20.454475 58.848305 -112.6373
-17.654503 63.147987 -109.73851
-16.262688 66.100365 -107.304535
-16.262688 66.100395 -107.30454
-14.973625 68.26595 -105.15179
-13.215004 70.15847 -103.439804
-13.214989 70.15847 -103.439804
-10.91169 71.79879 -102.460075
-7.751839 73.17339 -102.08407
-7.751854 73.17339 -102.08407
-3.944847 74.18542 -101.69022
-0.254356 74.7456 -100.24179
-0.254326 74.74566 -100.241806
-28.522697 -0.504707 -64.77531
-28.9701 -0.487846 -64.70262
-28.41436 -0.038155 -68.84181
-29.038994 -0.049828 -68.737206
-28.254372 1.568596 -72.717445
-28.90049 1.512993 -72.59326
-28.900505 1.512978 -72.59327
-28.222176 3.474602 -76.583435
-28.87339 3.380623 -76.42262
-28.355034 5.672066 -80.31475
-29.013893 5.550713 -80.111916
-28.787773 8.01078 -83.54017
-29.454445 7.872444 -83.299126
-29.735619 10.236839 -86.12847
-30.40165 10.084221 -85.84346
-31.823051 12.092857 -87.89272
-32.799187 14.260765 -90.26238
-33.45788 14.117561 -89.88248
-34.57807 16.615654 -92.6763
-35.253517 16.519539 -92.28333
-36.46424 19.752693 -95.83734
-37.171333 19.724464 -95.48445
-37.769463 23.77752 -99.36665
-38.502815 23.843712 -99.09287
-37.824028 28.142342 -102.44648
-38.558342 28.32389 -102.25717
-37.552925 31.055138 -104.50172
-38.281944 31.315529 -104.36596
-37.341545 32.55239 -106.05986
-38.069588 32.83631 -105.94486
-36.094383 35.595406 -108.87727
-36.803535 35.903847 -108.79372
-33.46926 41.0626 -113.01934
-34.149605 41.431984 -112.98937
-34.149605 41.43197 -112.989365
-30.536156 46.24859 -116.042725
-31.217003 46.683372 -116.04557
-27.66912 50.13485 -116.55773
-28.346306 50.590736 -116.560234
-27.66912 50.13482 -116.55773
-28.346321 50.59072 -116.56024
-24.244377 54.22901 -115.192314
-24.822762 54.623924 -115.18945
-20.45446 58.84832 -112.63729
-20.87362 59.13494 -112.63211
-20.45446 58.84832 -112.6373
-17.654503 63.147987 -109.73852
-18.00422 63.38595 -109.73285
-16.262672 66.100365 -107.30454
-16.638725 66.361046 -107.29311
-16.262657 66.100395 -107.30454
-16.63871 66.361046 -107.29313
-14.97361 68.26592 -105.15179
-15.352531 68.55361 -105.12165
-13.214989 70.15844 -103.439804
-13.536476 70.47643 -103.37995
-13.214973 70.15847 -103.439804
-13.536476 70.4764 -103.37996
-10.911674 71.79882 -102.46008
-11.152473 72.169914 -102.36944
-7.751823 73.17342 -102.084076
-7.920662 73.60195 -101.97316
-7.751839 73.17339 -102.084076
-7.920677 73.60195 -101.97316
-3.944832 74.18542 -101.69023
-4.061943 74.62527 -101.578995
-0.254341 74.74563 -100.2418
-0.322975 75.06426 -100.16126
-0.254311 74.74569 -100.24181
-0.322945 75.06432 -100.16128
POLYGONS 2565 10260
3 0 1 2
3 2 1 3
3 2 3 4
3 4 3 5
3 4 5 6
3 6 5 7
3 8 9 10
3 10 9 11
3 10 11 12
3 12 11 13
3 12 13 14
3 14 13 15
3 14 15 16
3 16 15 17
3 16 17 18
3 18 17 19
3 18 19 20
3 20 19 21
3 20 21 22
3 22 21 23
3 22 23 24
3 24 23 25
3 24 25 26
3 26 25 27
3 26 27 28
3 28 27 29
3 28 29 30
3 30 29 31
3 30 31 32
3 32 31 33
3 32 33 34
3 34 33 35
3 34 35 36
3 36 35 37
3 38 39 40
3 40 39 41
3 40 41 42
3 42 41 43
3 44 43 45
3 45 43 46
3 45 46 47
3 47 46 48
3 49 50 51
3 51 50 52
3 51 52 53
3 53 52 54
3 55 56 57
3 57 56 58
3 57 58 59
3 59 58 60
3 61 62 63
3 63 62 64
3 63 64 65
3 65 64 66
3 67 68 69
3 69 68 70
3 69 70 71
3 71 70 72
3 73 74 75
3 1 0 3
3 3 0 76
3 3 76 5
3 5 76 77
3 5 77 7
3 7 77 78
3 9 79 11
3 11 79 80
3 11 80 13
3 13 80 81
3 13 81 15
3 15 81 82
3 15 82 17
3 17 82 83
3 17 83 19
3 19 83 84
3 19 84 21
3 21 84 85
3 21 85 23
3 23 85 86
3 23 86 25
3 25 86 87
3 25 87 27
3 27 87 88
3 27 88 29
3 29 88 89
3 29 89 31
3 31 89 90
3 31 90 33
3 33 90 91
3 33 91 35
3 35 91 92
3 35 92 37
3 37 92 93
3 39 94 41
3 41 94 95
3 41 95 43
3 43 95 96
3 43 97 46
3 46 97 98
3 46 98 48
3 48 98 99
3 50 99 52
3 52 99 100
3 52 100 54
3 54 100 101
3 56 102 58
3 58 102 103
3 58 103 60
3 60 103 104
3 62 105 64
3 64 105 106
3 64 106 66
3 66 106 107
3 68 108 70
3 70 108 109
3 70 109 72
3 72 109 110
3 74 111 75
3 0 112 76
3 76 112 113
3 76 113 77
3 77 113 114
3 77 114 78
3 78 114 115
3 79 115 80
3 80 115 116
3 80 116 81
3 81 116 117
3 81 117 82
3 82 117 118
3 82 118 83
3 83 118 119
3 83 119 84
3 84 119 120
3 84 120 85
3 85 120 121
3 85 121 86
3 86 121 122
3 86 122 87
3 87 122 123
3 87 123 88
3 88 123 124
3 88 124 89
3 89 124 125
3 89 125 90
3 90 125 126
3 90 126 91
3 91 126 127
3 91 127 92
3 92 127 128
3 92 128 93
3 93 128 129
3 94 130 95
3 95 130 131
3 95 131 96
3 96 131 132
3 97 132 98
3 98 132 133
3 98 133 99
3 99 133 134
3 99 135 100
3 100 135 136
3 100 136 101
3 101 136 137
3 102 138 103
3 103 138 139
3 103 139 104
3 104 139 140
3 105 141 106
3 106 141 142
3 106 142 107
3 107 142 143
3 108 144 109
3 109 144 145
3 109 145 110
3 110 145 146
3 111 147 75
3 75 147 148
3 112 149 113
3 113 149 150
3 113 150 114
3 114 150 151
3 114 151 115
3 115 151 152
3 115 153 116
3 116 153 154
3 116 154 117
3 117 154 155
3 117 155 118
3 118 155 156
3 118 156 119
3 119 156 157
3 119 157 120
3 120 157 158
3 120 158 121
3 121 158 159
3 121 159 122
3 122 159 160
3 122 160 123
3 123 160 161
3 123 161 124
3 124 161 162
3 124 162 125
3 125 162 163
3 125 163 126
3 126 163 164
3 126 164 127
3 127 164 165
3 127 165 128
3 128 165 166
3 128 166 129
3 129 166 167
3 130 168 131
3 131 168 169
3 131 169 132
3 132 169 170
3 132 171 133
3 133 171 172
3 133 172 134
3 134 172 173
3 135 174 136
3 136 174 175
3 136 175 137
3 137 175 176
3 138 177 139
3 139 177 178
3 139 178 140
3 140 178 179
3 141 180 142
3 142 180 181
3 142 181 143
3 143 181 182
3 144 183 145
3 145 183 184
3 145 184 146
3 146 184 185
3 147 186 148
3 148 186 187
3 149 0 150
3 150 0 188
3 150 188 151
3 151 188 189
3 151 189 152
3 152 189 190
3 153 191 154
3 154 191 192
3 154 192 155
3 155 192 193
3 155 193 156
3 156 193 194
3 156 194 157
3 157 194 195
3 157 195 158
3 158 195 196
3 158 196 159
3 159 196 197
3 159 197 160
3 160 197 198
3 160 198 161
3 161 198 199
3 161 199 162
3 162 199 200
3 162 200 163
3 163 200 201
3 163 201 164
3 164 201 202
3 164 202 165
3 165 202 203
3 165 203 166
3 166 203 204
3 166 204 167
3 167 204 205
3 168 205 169
3 169 205 206
3 169 206 170
3 170 206 207
3 171 208 172
3 172 208 209
3 172 209 173
3 173 209 210
3 174 211 175
3 175 211 212
3 175 212 176
3 176 212 213
3 177 214 178
3 178 214 215
3 178 215 179
3 179 215 216
3 180 217 181
3 181 217 218
3 181 218 182
3 182 218 219
3 183 220 184
3 184 220 221
3 184 221 185
3 185 221 222
3 186 223 187
3 224 225 226
3 226 225 227
3 226 227 189
3 189 227 228
3 189 228 229
3 229 228 230
3 231 230 192
3 192 230 232
3 192 232 193
3 193 232 233
3 193 233 234
3 234 233 235
3 234 235 236
3 236 235 237
3 236 237 238
3 238 237 239
3 238 239 240
3 240 239 241
3 240 241 198
3 198 241 242
3 198 242 243
3 243 242 244
3 243 244 245
3 245 244 246
3 245 246 247
3 247 246 248
3 247 248 249
3 249 248 250
3 249 250 251
3 251 250 252
3 251 252 253
3 253 252 254
3 253 254 205
3 205 254 255
3 205 255 256
3 256 255 257
3 256 257 258
3 258 257 259
3 260 261 262
3 262 261 263
3 262 263 264
3 264 263 265
3 264 265 266
3 266 265 267
3 266 267 213
3 213 267 268
3 214 269 270
3 270 269 271
3 270 271 272
3 272 271 273
3 274 275 276
3 276 275 277
3 276 277 219
3 219 277 278
3 279 280 281
3 281 280 282
3 281 282 283
3 283 282 284
3 285 286 75
3 225 0 227
3 227 0 287
3 227 287 228
3 228 287 288
3 228 288 230
3 230 288 289
3 230 290 232
3 232 290 291
3 232 291 233
3 233 291 292
3 233 292 235
3 235 292 293
3 235 293 237
3 237 293 294
3 237 294 239
3 239 294 295
3 239 295 241
3 241 295 296
3 241 296 242
3 242 296 297
3 242 297 244
3 244 297 298
3 244 298 246
3 246 298 299
3 246 299 248
3 248 299 300
3 248 300 250
3 250 300 301
3 250 301 252
3 252 301 302
3 252 302 254
3 254 302 303
3 254 303 255
3 255 303 304
3 255 305 257
3 257 305 306
3 257 306 259
3 259 306 307
3 261 307 263
3 263 307 308
3 263 308 265
3 265 308 309
3 265 310 267
3 267 310 311
3 267 311 268
3 268 311 312
3 269 313 271
3 271 313 314
3 271 314 273
3 273 314 315
3 275 316 277
3 277 316 317
3 277 317 278
3 278 317 318
3 280 319 282
3 282 319 320
3 282 320 284
3 284 320 321
3 286 322 75
3 75 322 187
3 0 149 287
3 287 149 323
3 287 323 288
3 288 323 324
3 288 324 289
3 289 324 325
3 290 326 291
3 291 326 327
3 291 327 292
3 292 327 328
3 292 328 293
3 293 328 329
3 293 329 294
3 294 329 330
3 294 330 295
3 295 330 331
3 295 331 296
3 296 331 332
3 296 332 297
3 297 332 333
3 297 333 298
3 298 333 334
3 298 334 299
3 299 334 335
3 299 335 300
3 300 335 336
3 300 336 301
3 301 336 337
3 301 337 302
3 302 337 338
3 302 338 303
3 303 338 339
3 303 339 304
3 304 339 340
3 305 340 306
3 306 340 341
3 306 341 307
3 307 341 342
3 307 343 308
3 308 343 344
3 308 344 309
3 309 344 345
3 310 346 311
3 311 346 347
3 311 347 312
3 312 347 348
3 313 349 314
3 314 349 350
3 314 350 315
3 315 350 351
3 316 351 317
3 317 351 352
3 317 352 318
3 318 352 353
3 319 354 320
3 320 354 355
3 320 355 321
3 321 355 356
3 322 357 187
3 187 357 75
3 149 358 323
3 323 358 359
3 323 359 324
3 324 359 360
3 324 360 325
3 325 360 361
3 326 362 327
3 327 362 363
3 327 363 328
3 328 363 364
3 328 364 329
3 329 364 365
3 329 365 330
3 330 365 366
3 330 366 331
3 331 366 367
3 331 367 332
3 332 367 368
3 332 368 333
3 333 368 369
3 333 369 334
3 334 369 370
3 334 370 335
3 335 370 371
3 335 371 336
3 336 371 372
3 336 372 337
3 337 372 373
3 337 373 338
3 338 373 374
3 338 374 339
3 339 374 375
3 339 375 340
3 340 375 376
3 340 376 341
3 341 376 377
3 341 377 342
3 342 377 378
3 343 379 344
3 344 379 380
3 344 380 345
3 345 380 381
3 346 382 347
3 347 382 383
3 347 383 348
3 348 383 384
3 349 385 350
3 350 385 386
3 350 386 351
3 351 386 387
3 351 388 352
3 352 388 389
3 352 389 353
3 353 389 390
3 354 391 355
3 355 391 392
3 355 392 356
3 356 392 393
3 357 394 75
3 75 394 395
3 358 396 359
3 359 396 397
3 359 397 360
3 360 397 398
3 360 398 361
3 361 398 399
3 362 400 363
3 363 400 401
3 363 401 364
3 364 401 402
3 364 402 365
3 365 402 403
3 365 403 366
3 366 403 404
3 366 404 367
3 367 404 405
3 367 405 368
3 368 405 406
3 368 406 369
3 369 406 407
3 369 407 370
3 370 407 408
3 370 408 371
3 371 408 409
3 371 409 372
3 372 409 410
3 372 410 373
3 373 410 411
3 373 411 374
3 374 411 412
3 374 412 375
3 375 412 413
3 375 413 376
3 376 413 414
3 376 415 377
3 377 415 416
3 377 416 378
3 378 416 417
3 379 418 380
3 380 418 419
3 380 419 381
3 381 419 420
3 382 421 383
3 383 421 422
3 383 422 384
3 384 422 423
3 385 424 386
3 386 424 425
3 386 425 387
3 387 425 426
3 388 427 389
3 389 427 428
3 389 428 390
3 390 428 429
3 391 430 392
3 392 430 431
3 392 431 393
3 393 431 432
3 394 433 395
3 395 433 434
3 358 435 436
3 436 435 437
3 436 437 438
3 438 437 439
3 438 439 440
3 440 439 441
3 442 443 444
3 444 443 445
3 444 445 446
3 446 445 447
3 446 447 448
3 448 447 449
3 448 449 450
3 450 449 451
3 450 451 452
3 452 451 453
3 452 453 454
3 454 453 455
3 454 455 407
3 407 455 456
3 407 456 457
3 457 456 458
3 457 458 459
3 459 458 460
3 459 460 461
3 461 460 462
3 461 462 463
3 463 462 464
3 463 464 465
3 465 464 466
3 465 466 467
3 467 466 468
3 467 468 469
3 469 468 470
3 471 472 473
3 473 472 474
3 473 474 475
3 475 474 476
3 477 478 479
3 479 478 480
3 479 480 481
3 481 480 482
3 483 484 485
3 485 484 486
3 485 486 487
3 487 486 488
3 489 490 491
3 491 490 492
3 491 492 493
3 493 492 494
3 495 496 428
3 428 496 497
3 428 497 429
3 429 497 498
3 499 500 431
3 431 500 501
3 431 501 502
3 502 501 503
3 504 505 506
3 506 505 507
3 435 0 437
3 437 0 508
3 437 508 439
3 439 508 509
3 439 509 441
3 441 509 510
3 443 511 445
3 445 511 512
3 445 512 447
3 447 512 513
3 447 513 449
3 449 513 514
3 449 514 451
3 451 514 515
3 451 515 453
3 453 515 516
3 453 516 455
3 455 516 517
3 455 517 456
3 456 517 518
3 456 518 458
3 458 518 519
3 458 519 460
3 460 519 520
3 460 520 462
3 462 520 521
3 462 521 464
3 464 521 522
3 464 522 466
3 466 522 523
3 466 523 468
3 468 523 524
3 468 524 470
3 470 524 525
3 472 526 474
3 474 526 527
3 474 527 476
3 476 527 528
3 478 529 480
3 480 529 530
3 480 530 482
3 482 530 531
3 484 532 486
3 486 532 533
3 486 533 488
3 488 533 534
3 490 535 492
3 492 535 536
3 492 536 494
3 494 536 537
3 496 538 497
3 497 538 539
3 497 539 498
3 498 539 540
3 500 541 501
3 501 541 542
3 501 542 503
3 503 542 543
3 505 544 507
3 507 544 75
3 0 545 508
3 508 545 546
3 508 546 509
3 509 546 547
3 509 547 510
3 510 547 548
3 511 549 512
3 512 549 550
3 512 550 513
3 513 550 551
3 513 551 514
3 514 551 552
3 514 552 515
3 515 552 553
3 515 553 516
3 516 553 554
3 516 554 517
3 517 554 555
3 517 555 518
3 518 555 556
3 518 556 519
3 519 556 557
3 519 557 520
3 520 557 558
3 520 558 521
3 521 558 559
3 521 559 522
3 522 559 560
3 522 560 523
3 523 560 561
3 523 561 524
3 524 561 562
3 524 562 525
3 525 562 563
3 526 563 527
3 527 563 564
3 527 564 528
3 528 564 565
3 529 566 530
3 530 566 567
3 530 567 531
3 531 567 568
3 532 568 533
3 533 568 569
3 533 569 534
3 534 569 570
3 535 571 536
3 536 571 572
3 536 572 537
3 537 572 573
3 538 573 539
3 539 573 574
3 539 574 540
3 540 574 575
3 541 576 542
3 542 576 577
3 542 577 543
3 543 577 578
3 544 579 75
3 75 579 507
3 224 358 580
3 580 358 581
3 580 581 582
3 582 581 583
3 582 583 584
3 584 583 585
3 586 587 588
3 588 587 589
3 588 589 590
3 590 589 591
3 590 591 592
3 592 591 593
3 592 593 594
3 594 593 595
3 594 595 596
3 596 595 597
3 596 597 598
3 598 597 599
3 598 599 600
3 600 599 601
3 600 601 602
3 602 601 603
3 602 603 604
3 604 603 605
3 604 605 606
3 606 605 607
3 606 607 608
3 608 607 609
3 608 609 610
3 610 609 611
3 610 611 612
3 612 611 613
3 612 613 614
3 614 613 615
3 616 617 618
3 618 617 619
3 618 619 565
3 565 619 620
3 621 622 623
3 623 622 624
3 623 624 625
3 625 624 626
3 625 626 627
3 627 626 628
3 627 628 629
3 629 628 630
3 571 631 632
3 632 631 633
3 632 633 634
3 634 633 635
3 634 636 637
3 637 636 638
3 637 638 575
3 575 638 639
3 576 640 577
3 577 640 641
3 577 641 642
3 642 641 643
3 644 645 434
3 434 645 646
3 358 545 581
3 581 545 647
3 581 647 583
3 583 647 648
3 583 648 585
3 585 648 649
3 587 650 589
3 589 650 651
3 589 651 591
3 591 651 652
3 591 652 593
3 593 652 653
3 593 653 595
3 595 653 654
3 595 654 597
3 597 654 655
3 597 655 599
3 599 655 656
3 599 656 601
3 601 656 657
3 601 657 603
3 603 657 658
3 603 658 605
3 605 658 659
3 605 659 607
3 607 659 660
3 607 660 609
3 609 660 661
3 609 661 611
3 611 661 662
3 611 662 613
3 613 662 663
3 613 663 615
3 615 663 664
3 617 665 619
3 619 665 666
3 619 666 620
3 620 666 667
3 622 667 624
3 624 667 668
3 624 668 626
3 626 668 669
3 626 670 628
3 628 670 671
3 628 671 630
3 630 671 672
3 631 673 633
3 633 673 674
3 633 674 635
3 635 674 675
3 636 676 638
3 638 676 677
3 638 677 639
3 639 677 678
3 640 679 641
3 641 679 680
3 641 680 643
3 643 680 681
3 645 682 646
3 646 682 683
3 358 684 647
3 647 684 685
3 647 685 648
3 648 685 686
3 648 686 687
3 687 686 688
3 689 690 691
3 691 690 692
3 691 692 652
3 652 692 693
3 652 693 653
3 653 693 694
3 653 694 654
3 654 694 695
3 654 695 655
3 655 695 696
3 655 696 697
3 697 696 698
3 697 698 699
3 699 698 700
3 699 700 701
3 701 700 702
3 701 702 659
3 659 702 703
3 659 703 704
3 704 703 705
3 704 705 706
3 706 705 707
3 706 707 662
3 662 707 708
3 662 708 663
3 663 708 709
3 663 709 710
3 710 709 711
3 712 713 714
3 714 713 715
3 714 715 716
3 716 715 717
3 718 719 720
3 720 719 721
3 720 721 722
3 722 721 723
3 724 725 726
3 726 725 727
3 726 727 672
3 672 727 728
3 673 729 674
3 674 729 730
3 674 730 731
3 731 730 732
3 733 732 734
3 734 732 735
3 734 735 678
3 678 735 736
3 679 736 737
3 737 736 738
3 737 738 739
3 739 738 740
3 682 741 683
3 683 741 434
3 684 742 685
3 685 742 743
3 685 743 686
3 686 743 744
3 686 744 688
3 688 744 745
3 690 745 692
3 692 745 746
3 692 746 693
3 693 746 747
3 693 747 694
3 694 747 748
3 694 748 695
3 695 748 749
3 695 749 696
3 696 749 750
3 696 750 698
3 698 750 751
3 698 751 700
3 700 751 752
3 700 752 702
3 702 752 753
3 702 753 703
3 703 753 754
3 703 754 705
3 705 754 755
3 705 755 707
3 707 755 756
3 707 756 708
3 708 756 757
3 708 757 709
3 709 757 758
3 709 758 711
3 711 758 759
3 713 760 715
3 715 760 761
3 715 761 717
3 717 761 762
3 719 763 721
3 721 763 764
3 721 764 723
3 723 764 765
3 725 765 727
3 727 765 766
3 727 766 728
3 728 766 767
3 729 768 730
3 730 768 769
3 730 769 732
3 732 769 770
3 732 770 735
3 735 770 771
3 735 771 736
3 736 771 772
3 736 773 738
3 738 773 774
3 738 774 740
3 740 774 775
3 741 776 434
3 742 0 743
3 743 0 777
3 743 777 744
3 744 777 778
3 744 778 745
3 745 778 779
3 745 779 746
3 746 779 780
3 746 780 747
3 747 780 781
3 747 781 748
3 748 781 782
3 748 782 749
3 749 782 783
3 749 783 750
3 750 783 784
3 750 784 751
3 751 784 785
3 751 785 752
3 752 785 786
3 752 786 753
3 753 786 787
3 753 787 754
3 754 787 788
3 754 788 755
3 755 788 789
3 755 789 756
3 756 789 790
3 756 790 757
3 757 790 791
3 757 791 758
3 758 791 792
3 758 792 759
3 759 792 793
3 760 794 761
3 761 794 795
3 761 795 762
3 762 795 796
3 763 797 764
3 764 797 798
3 764 798 765
3 765 798 799
3 765 799 766
3 766 799 800
3 766 800 767
3 767 800 801
3 768 802 769
3 769 802 803
3 769 803 770
3 770 803 804
3 770 805 771
3 771 805 806
3 771 806 772
3 772 806 807
3 773 808 774
3 774 808 809
3 774 809 775
3 775 809 810
3 776 811 434
3 434 811 75
3 812 112 813
3 813 112 814
3 813 814 815
3 815 814 816
3 815 816 817
3 817 816 818
3 819 820 821
3 821 820 822
3 821 822 823
3 823 822 824
3 823 824 825
3 825 824 826
3 825 826 827
3 827 826 828
3 827 828 829
3 829 828 830
3 829 830 831
3 831 830 832
3 831 832 833
3 833 832 834
3 833 834 835
3 835 834 836
3 835 836 837
3 837 836 838
3 837 838 839
3 839 838 840
3 839 840 841
3 841 840 842
3 841 842 843
3 843 842 844
3 843 844 792
3 792 844 845
3 792 845 846
3 846 845 847
3 794 847 848
3 848 847 849
3 848 849 850
3 850 849 851
3 850 852 853
3 853 852 854
3 853 854 855
3 855 854 856
3 855 857 800
3 800 857 858
3 800 858 859
3 859 858 860
3 861 862 863
3 863 862 864
3 863 864 865
3 865 864 866
3 867 868 869
3 869 868 870
3 869 870 871
3 871 870 872
3 873 874 875
3 875 874 876
3 875 876 810
3 810 876 877
3 811 878 683
3 683 878 148
3 112 224 814
3 814 224 879
3 814 879 816
3 816 879 880
3 816 880 818
3 818 880 881
3 820 881 822
3 822 881 882
3 822 882 824
3 824 882 883
3 824 883 826
3 826 883 884
3 826 884 828
3 828 884 885
3 828 885 830
3 830 885 886
3 830 886 832
3 832 886 887
3 832 887 834
3 834 887 888
3 834 888 836
3 836 888 889
3 836 889 838
3 838 889 890
3 838 890 840
3 840 890 891
3 840 891 842
3 842 891 892
3 842 892 844
3 844 892 893
3 844 893 845
3 845 893 894
3 845 894 847
3 847 894 895
3 847 896 849
3 849 896 897
3 849 897 851
3 851 897 898
3 852 899 854
3 854 899 900
3 854 900 856
3 856 900 901
3 857 902 858
3 858 902 903
3 858 903 860
3 860 903 904
3 862 905 864
3 864 905 906
3 864 906 866
3 866 906 907
3 868 908 870
3 870 908 909
3 870 909 872
3 872 909 910
3 874 911 876
3 876 911 912
3 876 912 877
3 877 912 913
3 878 914 148
3 148 914 75
3 879 358 915
3 879 915 880
3 880 915 916
3 880 916 881
3 881 916 917
3 881 917 882
3 882 917 918
3 882 918 883
3 883 918 919
3 883 919 884
3 884 919 920
3 884 920 885
3 885 920 921
3 885 921 886
3 886 921 922
3 886 922 887
3 887 922 923
3 887 923 888
3 888 923 924
3 888 924 889
3 889 924 925
3 889 925 890
3 890 925 926
3 890 926 891
3 891 926 927
3 891 927 892
3 892 927 928
3 892 928 893
3 893 928 929
3 893 929 894
3 894 929 930
3 894 930 895
3 895 930 931
3 896 931 897
3 897 931 932
3 897 932 898
3 898 932 933
3 899 934 900
3 900 934 935
3 900 935 901
3 901 935 936
3 902 936 903
3 903 936 937
3 903 937 904
3 904 937 938
3 905 939 906
3 906 939 940
3 906 940 907
3 907 940 941
3 908 942 909
3 909 942 943
3 909 943 910
3 910 943 944
3 911 944 912
3 912 944 945
3 912 945 913
3 913 945 946
3 914 947 75
3 75 947 434
3 948 949 950
3 950 949 951
3 950 951 952
3 952 951 953
3 952 953 954
3 954 953 955
3 956 957 958
3 958 957 959
3 958 959 960
3 960 959 961
3 960 961 962
3 962 961 963
3 962 963 964
3 964 963 965
3 964 965 966
3 966 965 967
3 966 967 968
3 968 967 969
3 968 969 970
3 970 969 971
3 970 971 972
3 972 971 973
3 972 973 974
3 974 973 975
3 974 975 976
3 976 975 977
3 976 977 978
3 978 977 979
3 978 979 980
3 980 979 981
3 980 981 982
3 982 981 983
3 982 983 984
3 984 983 985
3 986 987 988
3 988 987 989
3 988 989 990
3 990 989 991
3 992 993 994
3 994 993 995
3 994 995 996
3 996 995 997
3 996 998 999
3 999 998 1000
3 999 1000 1001
3 1001 1000 1002
3 1003 1004 1005
3 1005 1004 1006
3 1005 1006 1007
3 1007 1006 1008
3 1009 1010 1011
3 1011 1010 1012
3 1011 1012 1013
3 1013 1012 1014
3 1015 1016 1017
3 1017 1016 1018
3 1017 1018 1019
3 1019 1018 1020
3 1021 1022 1023
3 1023 1022 75
3 951 0 1024
3 951 1024 953
3 953 1024 1025
3 953 1025 955
3 955 1025 1026
3 957 1027 959
3 959 1027 1028
3 959 1028 961
3 961 1028 1029
3 961 1029 963
3 963 1029 1030
3 963 1030 965
3 965 1030 1031
3 965 1031 967
3 967 1031 1032
3 967 1032 969
3 969 1032 1033
3 969 1033 971
3 971 1033 1034
3 971 1034 973
3 973 1034 1035
3 973 1035 975
3 975 1035 1036
3 975 1036 977
3 977 1036 1037
3 977 1037 979
3 979 1037 1038
3 979 1038 981
3 981 1038 1039
3 981 1039 983
3 983 1039 1040
3 983 1040 985
3 985 1040 1041
3 987 1041 989
3 989 1041 1042
3 989 1042 991
3 991 1042 1043
3 993 1044 995
3 995 1044 1045
3 995 1045 997
3 997 1045 1046
3 998 1047 1000
3 1000 1047 1048
3 1000 1048 1002
3 1002 1048 1049
3 1004 1050 1006
3 1006 1050 1051
3 1006 1051 1008
3 1008 1051 1052
3 1010 1053 1012
3 1012 1053 1054
3 1012 1054 1014
3 1014 1054 1055
3 1016 1056 1018
3 1018 1056 1057
3 1018 1057 1020
3 1020 1057 1058
3 1022 1059 75
3 75 1059 1060
3 1024 0 1061
3 1024 1061 1025
3 1025 1061 1062
3 1025 1062 1026
3 1026 1062 1063
3 1027 1063 1028
3 1028 1063 1064
3 1028 1064 1029
3 1029 1064 1065
3 1029 1065 1030
3 1030 1065 1066
3 1030 1066 1031
3 1031 1066 1067
3 1031 1067 1032
3 1032 1067 1068
3 1032 1068 1033
3 1033 1068 1069
3 1033 1069 1034
3 1034 1069 1070
3 1034 1070 1035
3 1035 1070 1071
3 1035 1071 1036
3 1036 1071 1072
3 1036 1072 1037
3 1037 1072 1073
3 1037 1073 1038
3 1038 1073 1074
3 1038 1074 1039
3 1039 1074 1075
3 1039 1075 1040
3 1040 1075 1076
3 1040 1076 1041
3 1041 1076 1077
3 1041 1078 1042
3 1042 1078 1079
3 1042 1079 1043
3 1043 1079 1080
3 1044 1081 1045
3 1045 1081 1082
3 1045 1082 1046
3 1046 1082 1083
3 1047 1083 1048
3 1048 1083 1084
3 1048 1084 1049
3 1049 1084 1085
3 1050 1086 1051
3 1051 1086 1087
3 1051 1087 1052
3 1052 1087 1088
3 1053 1089 1054
3 1054 1089 1090
3 1054 1090 1055
3 1055 1090 1091
3 1056 1091 1057
3 1057 1091 1092
3 1057 1092 1058
3 1058 1092 1093
3 1059 1094 1060
3 1060 1094 1095
3 1061 0 1096
3 1061 1096 1062
3 1062 1096 1097
3 1062 1097 1063
3 1063 1097 1098
3 1063 1099 1064
3 1064 1099 1100
3 1064 1100 1065
3 1065 1100 1101
3 1065 1101 1066
3 1066 1101 1102
3 1066 1102 1067
3 1067 1102 1103
3 1067 1103 1068
3 1068 1103 1104
3 1068 1104 1069
3 1069 1104 1105
3 1069 1105 1070
3 1070 1105 1106
3 1070 1106 1071
3 1071 1106 1107
3 1071 1107 1072
3 1072 1107 1108
3 1072 1108 1073
3 1073 1108 1109
3 1073 1109 1074
3 1074 1109 1110
3 1074 1110 1075
3 1075 1110 1111
3 1075 1111 1076
3 1076 1111 1112
3 1076 1112 1077
3 1077 1112 1113
3 1078 1113 1079
3 1079 1113 1114
3 1079 1114 1080
3 1080 1114 1115
3 1081 1116 1082
3 1082 1116 1117
3 1082 1117 1083
3 1083 1117 1118
3 1083 1118 1084
3 1084 1118 1119
3 1084 1119 1085
3 1085 1119 1120
3 1086 1121 1087
3 1087 1121 1122
3 1087 1122 1088
3 1088 1122 1123
3 1089 1124 1090
3 1090 1124 1125
3 1090 1125 1091
3 1091 1125 1126
3 1091 1127 1092
3 1092 1127 1128
3 1092 1128 1093
3 1093 1128 1129
3 1094 1130 1095
3 1095 1130 75
3 112 0 1131
3 1131 0 1132
3 1131 1132 1133
3 1133 1132 1134
3 1133 1134 1135
3 1135 1134 1136
3 1135 1137 1138
3 1138 1137 1139
3 1138 1139 1140
3 1140 1139 1141
3 1140 1141 1142
3 1142 1141 1143
3 1142 1143 1144
3 1144 1143 1145
3 1144 1145 1146
3 1146 1145 1147
3 1146 1147 1148
3 1148 1147 1149
3 1148 1149 1150
3 1150 1149 1151
3 1150 1151 1152
3 1152 1151 1153
3 1152 1153 1108
3 1108 1153 1154
3 1108 1154 1155
3 1155 1154 1156
3 1155 1156 1157
3 1157 1156 1158
3 1157 1158 1159
3 1159 1158 1160
3 1159 1160 1161
3 1161 1160 1162
3 1161 1162 1163
3 1163 1162 1164
3 1165 1164 1166
3 1166 1164 1167
3 1166 1167 1168
3 1168 1167 1169
3 1170 1171 1172
3 1172 1171 1173
3 1172 1173 1174
3 1174 1173 1175
3 1176 1177 1178
3 1178 1177 1179
3 1178 1179 1180
3 1180 1179 1181
3 1121 1182 1183
3 1183 1182 1184
3 1183 1184 1185
3 1185 1184 1186
3 1187 1188 1189
3 1189 1188 1190
3 1189 1190 1191
3 1191 1190 1192
3 1193 1194 1195
3 1195 1194 1196
3 1195 1196 1197
3 1197 1196 1198
3 1199 1200 1201
3 1201 1200 75
3 1132 949 1202
3 1132 1202 1134
3 1134 1202 1203
3 1134 1203 1136
3 1136 1203 1204
3 1137 1205 1139
3 1139 1205 1206
3 1139 1206 1141
3 1141 1206 1207
3 1141 1207 1143
3 1143 1207 1208
3 1143 1208 1145
3 1145 1208 1209
3 1145 1209 1147
3 1147 1209 1210
3 1147 1210 1149
3 1149 1210 1211
3 1149 1211 1151
3 1151 1211 1212
3 1151 1212 1153
3 1153 1212 1213
3 1153 1213 1154
3 1154 1213 1214
3 1154 1214 1156
3 1156 1214 1215
3 1156 1215 1158
3 1158 1215 1216
3 1158 1216 1160
3 1160 1216 1217
3 1160 1217 1162
3 1162 1217 1218
3 1162 1218 1164
3 1164 1218 1219
3 1164 1219 1167
3 1167 1219 1220
3 1167 1220 1169
3 1169 1220 1221
3 1171 1222 1173
3 1173 1222 1223
3 1173 1223 1175
3 1175 1223 1224
3 1177 1224 1179
3 1179 1224 1225
3 1179 1225 1181
3 1181 1225 1226
3 1182 1227 1184
3 1184 1227 1228
3 1184 1228 1186
3 1186 1228 1229
3 1188 1230 1190
3 1190 1230 1231
3 1190 1231 1192
3 1192 1231 1232
3 1194 1233 1196
3 1196 1233 1234
3 1196 1234 1198
3 1198 1234 1235
3 1200 1236 75
3 949 1237 1202
3 1202 1237 1238
3 1202 1238 1203
3 1203 1238 1239
3 1203 1239 1204
3 1204 1239 1240
3 1205 1241 1206
3 1206 1241 1242
3 1206 1242 1207
3 1207 1242 1243
3 1207 1243 1208
3 1208 1243 1244
3 1208 1244 1209
3 1209 1244 1245
3 1209 1245 1210
3 1210 1245 1246
3 1210 1246 1211
3 1211 1246 1247
3 1211 1247 1212
3 1212 1247 1248
3 1212 1248 1213
3 1213 1248 1249
3 1213 1249 1214
3 1214 1249 1250
3 1214 1250 1215
3 1215 1250 1251
3 1215 1251 1216
3 1216 1251 1252
3 1216 1252 1217
3 1217 1252 1253
3 1217 1253 1218
3 1218 1253 1254
3 1218 1254 1219
3 1219 1254 1255
3 1219 1255 1220
3 1220 1255 1256
3 1220 1256 1221
3 1221 1256 1257
3 1222 1258 1223
3 1223 1258 1259
3 1223 1259 1224
3 1224 1259 1260
3 1224 1261 1225
3 1225 1261 1262
3 1225 1262 1226
3 1226 1262 1263
3 1227 1264 1228
3 1228 1264 1265
3 1228 1265 1229
3 1229 1265 1266
3 1230 1267 1231
3 1231 1267 1268
3 1231 1268 1232
3 1232 1268 1269
3 1233 1270 1234
3 1234 1270 1271
3 1234 1271 1235
3 1235 1271 1272
3 1236 1273 1023
3 1023 1273 1274
3 1237 684 1238
3 1238 684 1275
3 1238 1275 1239
3 1239 1275 1276
3 1239 1276 1240
3 1240 1276 1277
3 1241 1278 1242
3 1242 1278 1279
3 1242 1279 1243
3 1243 1279 1280
3 1243 1280 1244
3 1244 1280 1281
3 1244 1281 1245
3 1245 1281 1282
3 1245 1282 1246
3 1246 1282 1283
3 1246 1283 1247
3 1247 1283 1284
3 1247 1284 1248
3 1248 1284 1285
3 1248 1285 1249
3 1249 1285 1286
3 1249 1286 1250
3 1250 1286 1287
3 1250 1287 1251
3 1251 1287 1288
3 1251 1288 1252
3 1252 1288 1289
3 1252 1289 1253
3 1253 1289 1290
3 1253 1290 1254
3 1254 1290 1291
3 1254 1291 1255
3 1255 1291 1292
3 1255 1293 1256
3 1256 1293 1294
3 1256 1294 1257
3 1257 1294 1295
3 1258 1296 1259
3 1259 1296 1297
3 1259 1297 1260
3 1260 1297 1298
3 1261 1299 1262
3 1262 1299 1300
3 1262 1300 1263
3 1263 1300 1301
3 1264 1302 1265
3 1265 1302 1303
3 1265 1303 1266
3 1266 1303 1304
3 1267 1305 1268
3 1268 1305 1306
3 1268 1306 1269
3 1269 1306 1307
3 1270 1308 1271
3 1271 1308 1309
3 1271 1309 1272
3 1272 1309 1310
3 1273 1311 1274
3 1274 1311 1312
3 684 948 1275
3 1275 948 1313
3 1275 1313 1276
3 1276 1313 1314
3 1276 1314 1277
3 1277 1314 1315
3 1278 1316 1279
3 1279 1316 1317
3 1279 1317 1280
3 1280 1317 1318
3 1280 1318 1281
3 1281 1318 1319
3 1281 1319 1282
3 1282 1319 1320
3 1282 1320 1283
3 1283 1320 1321
3 1283 1321 1284
3 1284 1321 1322
3 1284 1322 1285
3 1285 1322 1323
3 1285 1323 1286
3 1286 1323 1324
3 1286 1324 1287
3 1287 1324 1325
3 1287 1325 1288
3 1288 1325 1326
3 1288 1326 1289
3 1289 1326 1327
3 1289 1327 1290
3 1290 1327 1328
3 1290 1328 1291
3 1291 1328 1329
3 1291 1329 1292
3 1292 1329 1330
3 1293 1330 1294
3 1294 1330 1331
3 1294 1331 1295
3 1295 1331 1332
3 1296 1333 1297
3 1297 1333 1334
3 1297 1334 1298
3 1298 1334 1335
3 1299 1336 1300
3 1300 1336 1337
3 1300 1337 1301
3 1301 1337 1338
3 1302 1339 1303
3 1303 1339 1340
3 1303 1340 1304
3 1304 1340 1341
3 1305 1342 1306
3 1306 1342 1343
3 1306 1343 1307
3 1307 1343 1344
3 1308 1345 1309
3 1309 1345 1346
3 1309 1346 1310
3 1310 1346 1347
3 1311 1348 1312
3 1312 1348 75
3 0 224 1349
3 1349 224 1350
3 1349 1350 1351
3 1351 1350 1352
3 1351 1352 1353
3 1353 1352 1354
3 1316 1355 1317
3 1317 1355 1356
3 1317 1356 1318
3 1318 1356 1357
3 1318 1357 1319
3 1319 1357 1358
3 1319 1358 1359
3 1359 1358 1360
3 1359 1360 1361
3 1361 1360 1362
3 1361 1362 1363
3 1363 1362 1364
3 1363 1364 1365
3 1365 1364 1366
3 1365 1366 1367
3 1367 1366 1368
3 1367 1368 1369
3 1369 1368 1370
3 1369 1370 1371
3 1371 1370 1372
3 1371 1372 1327
3 1327 1372 1373
3 1327 1373 1328
3 1328 1373 1374
3 1328 1374 1375
3 1375 1374 1376
3 1375 1376 1330
3 1330 1376 1377
3 1330 1378 1331
3 1331 1378 1379
3 1331 1379 1380
3 1380 1379 1381
3 1333 1382 1334
3 1334 1382 1383
3 1334 1383 1335
3 1335 1383 1384
3 1336 1385 1386
3 1386 1385 1387
3 1386 1387 1338
3 1338 1387 1388
3 1389 1390 1391
3 1391 1390 1392
3 1391 1392 1393
3 1393 1392 1394
3 1395 1396 1397
3 1397 1396 1398
3 1397 1398 1344
3 1344 1398 1399
3 1344 1400 1401
3 1401 1400 1402
3 1401 1402 1403
3 1403 1402 1404
3 1405 1406 75
3 224 1407 1350
3 1350 1407 1408
3 1350 1408 1352
3 1352 1408 1409
3 1352 1409 1354
3 1354 1409 1410
3 1355 1411 1356
3 1356 1411 1412
3 1356 1412 1357
3 1357 1412 1413
3 1357 1413 1358
3 1358 1413 1414
3 1358 1414 1360
3 1360 1414 1415
3 1360 1415 1362
3 1362 1415 1416
3 1362 1416 1364
3 1364 1416 1417
3 1364 1417 1366
3 1366 1417 1418
3 1366 1418 1368
3 1368 1418 1419
3 1368 1419 1370
3 1370 1419 1420
3 1370 1420 1372
3 1372 1420 1421
3 1372 1421 1373
3 1373 1421 1422
3 1373 1422 1374
3 1374 1422 1423
3 1374 1423 1376
3 1376 1423 1424
3 1376 1424 1377
3 1377 1424 1425
3 1378 1426 1379
3 1379 1426 1427
3 1379 1427 1381
3 1381 1427 1428
3 1382 1429 1383
3 1383 1429 1430
3 1383 1430 1384
3 1384 1430 1431
3 1385 1432 1387
3 1387 1432 1433
3 1387 1433 1388
3 1388 1433 1434
3 1390 1435 1392
3 1392 1435 1436
3 1392 1436 1394
3 1394 1436 1437
3 1396 1438 1398
3 1398 1438 1439
3 1398 1439 1399
3 1399 1439 1440
3 1400 1441 1402
3 1402 1441 1442
3 1402 1442 1404
3 1404 1442 1443
3 1406 1444 75
3 1407 358 1408
3 1408 358 1445
3 1408 1445 1409
3 1409 1445 1446
3 1409 1446 1410
3 1410 1446 1447
3 1411 1448 1412
3 1412 1448 1449
3 1412 1449 1413
3 1413 1449 1450
3 1413 1450 1414
3 1414 1450 1451
3 1414 1451 1415
3 1415 1451 1452
3 1415 1452 1416
3 1416 1452 1453
3 1416 1453 1417
3 1417 1453 1454
3 1417 1454 1418
3 1418 1454 1455
3 1418 1455 1419
3 1419 1455 1456
3 1419 1456 1420
3 1420 1456 1457
3 1420 1457 1421
3 1421 1457 1458
3 1421 1458 1422
3 1422 1458 1459
3 1422 1459 1423
3 1423 1459 1460
3 1423 1460 1424
3 1424 1460 1461
3 1424 1461 1425
3 1425 1461 1462
3 1426 1462 1427
3 1427 1462 1463
3 1427 1463 1428
3 1428 1463 1464
3 1429 1465 1430
3 1430 1465 1466
3 1430 1466 1431
3 1431 1466 1467
3 1432 1468 1433
3 1433 1468 1469
3 1433 1469 1434
3 1434 1469 1470
3 1435 1471 1436
3 1436 1471 1472
3 1436 1472 1437
3 1437 1472 1473
3 1438 1474 1439
3 1439 1474 1475
3 1439 1475 1440
3 1440 1475 1476
3 1441 1477 1442
3 1442 1477 1478
3 1442 1478 1443
3 1443 1478 1479
3 1444 1480 187
3 187 1480 1023
3 358 224 1445
3 1445 224 1481
3 1445 1481 1446
3 1446 1481 1482
3 1446 1482 1447
3 1447 1482 1483
3 1448 1484 1449
3 1449 1484 1485
3 1449 1485 1450
3 1450 1485 1486
3 1450 1486 1451
3 1451 1486 1487
3 1451 1487 1452
3 1452 1487 1488
3 1452 1488 1453
3 1453 1488 1489
3 1453 1489 1454
3 1454 1489 1490
3 1454 1490 1455
3 1455 1490 1491
3 1455 1491 1456
3 1456 1491 1492
3 1456 1492 1457
3 1457 1492 1493
3 1457 1493 1458
3 1458 1493 1494
3 1458 1494 1459
3 1459 1494 1495
3 1459 1495 1460
3 1460 1495 1496
3 1460 1496 1461
3 1461 1496 1497
3 1461 1497 1462
3 1462 1497 1498
3 1462 1499 1463
3 1463 1499 1500
3 1463 1500 1464
3 1464 1500 1501
3 1465 1502 1466
3 1466 1502 1503
3 1466 1503 1467
3 1467 1503 1504
3 1468 1504 1469
3 1469 1504 1505
3 1469 1505 1470
3 1470 1505 1506
3 1471 1507 1472
3 1472 1507 1508
3 1472 1508 1473
3 1473 1508 1509
3 1474 1509 1475
3 1475 1509 1510
3 1475 1510 1476
3 1476 1510 1511
3 1477 1512 1478
3 1478 1512 1513
3 1478 1513 1479
3 1479 1513 1514
3 1480 1515 1023
3 1023 1515 75
3 224 949 1481
3 1481 949 1516
3 1481 1516 1482
3 1482 1516 1517
3 1482 1517 1483
3 1483 1517 1518
3 1484 1519 1485
3 1485 1519 1520
3 1485 1520 1486
3 1486 1520 1521
3 1486 1521 1487
3 1487 1521 1522
3 1487 1522 1488
3 1488 1522 1523
3 1488 1523 1489
3 1489 1523 1524
3 1489 1524 1490
3 1490 1524 1525
3 1490 1525 1491
3 1491 1525 1526
3 1491 1526 1492
3 1492 1526 1527
3 1492 1527 1493
3 1493 1527 1528
3 1493 1528 1494
3 1494 1528 1529
3 1494 1529 1495
3 1495 1529 1530
3 1495 1530 1496
3 1496 1530 1531
3 1496 1531 1497
3 1497 1531 1532
3 1497 1532 1498
3 1498 1532 1533
3 1499 1534 1500
3 1500 1534 1535
3 1500 1535 1501
3 1501 1535 1536
3 1502 1536 1503
3 1503 1536 1537
3 1503 1537 1504
3 1504 1537 1538
3 1504 1538 1505
3 1505 1538 1539
3 1505 1539 1506
3 1506 1539 1540
3 1507 1541 1508
3 1508 1541 1542
3 1508 1542 1509
3 1509 1542 1543
3 1509 1543 1510
3 1510 1543 1544
3 1510 1544 1511
3 1511 1544 1545
3 1512 1546 1513
3 1513 1546 1547
3 1513 1547 1514
3 1514 1547 1548
3 1515 1549 75
3 75 1549 506
3 949 812 1516
3 1516 812 1550
3 1516 1550 1551
3 1551 1550 1552
3 1551 1552 1519
3 1519 1552 1553
3 1554 1555 1520
3 1520 1555 1556
3 1520 1556 1521
3 1521 1556 1557
3 1521 1557 1522
3 1522 1557 1558
3 1522 1558 1559
3 1559 1558 1560
3 1559 1560 1524
3 1524 1560 1561
3 1524 1561 1562
3 1562 1561 1563
3 1562 1563 1564
3 1564 1563 1565
3 1564 1565 1566
3 1566 1565 1567
3 1566 1567 1568
3 1568 1567 1569
3 1568 1569 1570
3 1570 1569 1571
3 1570 1571 1572
3 1572 1571 1573
3 1572 1573 1574
3 1574 1573 1575
3 1574 1575 1576
3 1576 1575 1577
3 1576 1577 1533
3 1533 1577 1578
3 1579 1580 1581
3 1581 1580 1582
3 1581 1582 1536
3 1536 1582 1583
3 1536 1584 1537
3 1537 1584 1585
3 1537 1585 1538
3 1538 1585 1586
3 1587 1588 1589
3 1589 1588 1590
3 1589 1590 1591
3 1591 1590 1592
3 1593 1594 1595
3 1595 1594 1596
3 1595 1596 1543
3 1543 1596 1597
3 1543 1597 1598
3 1598 1597 1599
3 1598 1599 1600
3 1600 1599 1601
3 1602 1603 1604
3 1604 1603 1605
3 1604 1605 1606
3 1606 1605 1607
3 1608 1609 75
3 812 112 1550
3 1550 112 1610
3 1550 1610 1552
3 1552 1610 1611
3 1552 1611 1553
3 1553 1611 1612
3 1555 1613 1556
3 1556 1613 1614
3 1556 1614 1557
3 1557 1614 1615
3 1557 1615 1558
3 1558 1615 1616
3 1558 1616 1560
3 1560 1616 1617
3 1560 1617 1561
3 1561 1617 1618
3 1561 1618 1563
3 1563 1618 1619
3 1563 1619 1565
3 1565 1619 1620
3 1565 1620 1567
3 1567 1620 1621
3 1567 1621 1569
3 1569 1621 1622
3 1569 1622 1571
3 1571 1622 1623
3 1571 1623 1573
3 1573 1623 1624
3 1573 1624 1575
3 1575 1624 1625
3 1575 1625 1577
3 1577 1625 1626
3 1577 1626 1578
3 1578 1626 1627
3 1580 1628 1582
3 1582 1628 1629
3 1582 1629 1583
3 1583 1629 1630
3 1584 1631 1585
3 1585 1631 1632
3 1585 1632 1586
3 1586 1632 1633
3 1588 1634 1590
3 1590 1634 1635
3 1590 1635 1592
3 1592 1635 1636
3 1594 1637 1596
3 1596 1637 1638
3 1596 1638 1597
3 1597 1638 1639
3 1597 1640 1599
3 1599 1640 1641
3 1599 1641 1601
3 1601 1641 1642
3 1603 1643 1605
3 1605 1643 1644
3 1605 1644 1607
3 1607 1644 1645
3 1609 1646 75
3 75 1646 1274
3 112 1647 1610
3 1610 1647 1648
3 1610 1648 1611
3 1611 1648 1649
3 1611 1649 1612
3 1612 1649 1650
3 1613 1651 1614
3 1614 1651 1652
3 1614 1652 1615
3 1615 1652 1653
3 1615 1653 1616
3 1616 1653 1654
3 1616 1654 1617
3 1617 1654 1655
3 1617 1655 1618
3 1618 1655 1656
3 1618 1656 1619
3 1619 1656 1657
3 1619 1657 1620
3 1620 1657 1658
3 1620 1658 1621
3 1621 1658 1659
3 1621 1659 1622
3 1622 1659 1660
3 1622 1660 1623
3 1623 1660 1661
3 1623 1661 1624
3 1624 1661 1662
3 1624 1662 1625
3 1625 1662 1663
3 1625 1663 1626
3 1626 1663 1664
3 1626 1664 1627
3 1627 1664 1665
3 1628 1666 1629
3 1629 1666 1667
3 1629 1667 1630
3 1630 1667 1668
3 1631 1669 1632
3 1632 1669 1670
3 1632 1670 1633
3 1633 1670 1671
3 1634 1672 1635
3 1635 1672 1673
3 1635 1673 1636
3 1636 1673 1674
3 1637 1675 1638
3 1638 1675 1676
3 1638 1676 1639
3 1639 1676 1677
3 1640 1678 1641
3 1641 1678 1679
3 1641 1679 1642
3 1642 1679 1680
3 1643 1681 1644
3 1644 1681 1682
3 1644 1682 1645
3 1645 1682 1683
3 1646 1684 1274
3 1274 1684 1023
3 1647 1685 1648
3 1648 1685 1686
3 1648 1686 1649
3 1649 1686 1687
3 1649 1687 1650
3 1650 1687 1688
3 1651 1689 1652
3 1652 1689 1690
3 1652 1690 1653
3 1653 1690 1691
3 1653 1691 1654
3 1654 1691 1692
3 1654 1692 1655
3 1655 1692 1693
3 1655 1693 1656
3 1656 1693 1694
3 1656 1694 1657
3 1657 1694 1695
3 1657 1695 1658
3 1658 1695 1696
3 1658 1696 1659
3 1659 1696 1697
3 1659 1697 1660
3 1660 1697 1698
3 1660 1698 1661
3 1661 1698 1699
3 1661 1699 1662
3 1662 1699 1700
3 1662 1700 1663
3 1663 1700 1701
3 1663 1701 1664
3 1664 1701 1702
3 1664 1702 1665
3 1665 1702 1703
3 1666 1704 1667
3 1667 1704 1705
3 1667 1705 1668
3 1668 1705 1706
3 1669 1707 1670
3 1670 1707 1708
3 1670 1708 1671
3 1671 1708 1709
3 1672 1710 1673
3 1673 1710 1711
3 1673 1711 1674
3 1674 1711 1712
3 1675 1713 1676
3 1676 1713 1714
3 1676 1714 1677
3 1677 1714 1715
3 1678 1715 1679
3 1679 1715 1716
3 1679 1716 1680
3 1680 1716 1717
3 1681 1718 1682
3 1682 1718 1719
3 1682 1719 1683
3 1683 1719 1720
3 1684 1721 1023
3 1023 1721 1722
3 1685 812 1686
3 1686 812 1723
3 1686 1723 1687
3 1687 1723 1724
3 1687 1724 1688
3 1688 1724 1725
3 1689 1725 1690
3 1690 1725 1726
3 1690 1726 1691
3 1691 1726 1727
3 1691 1727 1692
3 1692 1727 1728
3 1692 1728 1693
3 1693 1728 1729
3 1693 1729 1694
3 1694 1729 1730
3 1694 1730 1695
3 1695 1730 1731
3 1695 1731 1696
3 1696 1731 1732
3 1696 1732 1697
3 1697 1732 1733
3 1697 1733 1698
3 1698 1733 1734
3 1698 1734 1699
3 1699 1734 1735
3 1699 1735 1700
3 1700 1735 1736
3 1700 1736 1701
3 1701 1736 1737
3 1701 1737 1702
3 1702 1737 1738
3 1702 1738 1703
3 1703 1738 1739
3 1704 1740 1705
3 1705 1740 1741
3 1705 1741 1706
3 1706 1741 1742
3 1707 1743 1708
3 1708 1743 1744
3 1708 1744 1709
3 1709 1744 1745
3 1710 1746 1711
3 1711 1746 1747
3 1711 1747 1712
3 1712 1747 1748
3 1713 1749 1714
3 1714 1749 1750
3 1714 1750 1715
3 1715 1750 1751
3 1715 1751 1716
3 1716 1751 1752
3 1716 1752 1717
3 1717 1752 1753
3 1718 1754 1719
3 1719 1754 1755
3 1719 1755 1720
3 1720 1755 1756
3 1721 1757 1722
3 1722 1757 1758
3 1723 812 1759
3 1723 1759 1724
3 1724 1759 1760
3 1724 1760 1725
3 1725 1760 1761
3 1725 1762 1726
3 1726 1762 1763
3 1726 1763 1727
3 1727 1763 1764
3 1727 1764 1728
3 1728 1764 1765
3 1728 1765 1729
3 1729 1765 1766
3 1729 1766 1730
3 1730 1766 1767
3 1730 1767 1731
3 1731 1767 1768
3 1731 1768 1732
3 1732 1768 1769
3 1732 1769 1733
3 1733 1769 1770
3 1733 1770 1734
3 1734 1770 1771
3 1734 1771 1735
3 1735 1771 1772
3 1735 1772 1736
3 1736 1772 1773
3 1736 1773 1737
3 1737 1773 1774
3 1737 1774 1738
3 1738 1774 1775
3 1738 1775 1739
3 1739 1775 1776
3 1740 1777 1741
3 1741 1777 1778
3 1741 1778 1742
3 1742 1778 1779
3 1743 1780 1744
3 1744 1780 1781
3 1744 1781 1745
3 1745 1781 1782
3 1746 1783 1747
3 1747 1783 1784
3 1747 1784 1748
3 1748 1784 1785
3 1749 1786 1750
3 1750 1786 1787
3 1750 1787 1751
3 1751 1787 1788
3 1751 1789 1752
3 1752 1789 1790
3 1752 1790 1753
3 1753 1790 1791
3 1754 1792 1755
3 1755 1792 1793
3 1755 1793 1756
3 1756 1793 1794
3 1757 1795 1758
3 1758 1795 75
3 0 949 1796
3 1796 949 1797
3 1796 1797 1798
3 1798 1797 1799
3 1798 1799 1800
3 1800 1799 1801
3 1762 1802 1803
3 1803 1802 1804
3 1803 1804 1805
3 1805 1804 1806
3 1805 1806 1807
3 1807 1806 1808
3 1807 1808 1809
3 1809 1808 1810
3 1809 1810 1767
3 1767 1810 1811
3 1767 1811 1812
3 1812 1811 1813
3 1812 1813 1814
3 1814 1813 1815
3 1814 1815 1816
3 1816 1815 1817
3 1816 1817 1818
3 1818 1817 1819
3 1818 1819 1820
3 1820 1819 1821
3 1820 1821 1822
3 1822 1821 1823
3 1822 1823 1824
3 1824 1823 1825
3 1824 1825 1826
3 1826 1825 1827
3 1826 1827 1828
3 1828 1827 1829
3 1828 1830 1831
3 1831 1830 1832
3 1831 1832 1833
3 1833 1832 1834
3 1835 1836 1837
3 1837 1836 1838
3 1837 1838 1839
3 1839 1838 1840
3 1841 1840 1842
3 1842 1840 1843
3 1842 1843 1844
3 1844 1843 1845
3 1846 1847 1848
3 1848 1847 1849
3 1848 1849 1850
3 1850 1849 1851
3 1852 1853 1854
3 1854 1853 1855
3 1854 1855 1856
3 1856 1855 1857
3 1858 1859 1860
3 1860 1859 1861
3 1860 1861 1862
3 1862 1861 1863
3 1864 1865 187
3 187 1865 1312
3 949 0 1797
3 1797 0 2
3 1797 2 1799
3 1799 2 4
3 1799 4 1801
3 1801 4 6
3 1802 8 1804
3 1804 8 10
3 1804 10 1806
3 1806 10 12
3 1806 12 1808
3 1808 12 14
3 1808 14 1810
3 1810 14 16
3 1810 16 1811
3 1811 16 18
3 1811 18 1813
3 1813 18 20
3 1813 20 1815
3 1815 20 22
3 1815 22 1817
3 1817 22 24
3 1817 24 1819
3 1819 24 26
3 1819 26 1821
3 1821 26 28
3 1821 28 1823
3 1823 28 30
3 1823 30 1825
3 1825 30 32
3 1825 32 1827
3 1827 32 34
3 1827 34 1829
3 1829 34 36
3 1830 38 1832
3 1832 38 40
3 1832 40 1834
3 1834 40 42
3 1836 44 1838
3 1838 44 45
3 1838 45 1840
3 1840 45 47
3 1840 49 1843
3 1843 49 51
3 1843 51 1845
3 1845 51 53
3 1847 55 1849
3 1849 55 57
3 1849 57 1851
3 1851 57 59
3 1853 61 1855
3 1855 61 63
3 1855 63 1857
3 1857 63 65
3 1859 67 1861
3 1861 67 69
3 1861 69 1863
3 1863 69 71
3 1865 73 1312
3 1312 73 75
