solid 
facet normal -nan(ind) -nan(ind) -nan(ind)
outer loop
vertex 30.79759979 61.08126068 243.6936646
vertex 30.79759979 61.08126068 243.6936646
vertex 30.67534637 60.86489105 243.5182648

endloop
endfacet
facet normal 0.5736994743 -0.6864156127 0.4468806982
outer loop
vertex 30.67534637 60.86489105 243.5182648
vertex 30.79759979 61.08126068 243.6936646
vertex 30.57283783 60.9148941 243.7266693

endloop
endfacet
facet normal -0.08280258626 -0.9775375128 0.1938147694
outer loop
vertex 30.67534637 60.86489105 243.5182648
vertex 30.57283783 60.9148941 243.7266693
vertex 30.52597809 60.85619354 243.4105835

endloop
endfacet
facet normal -0.1227411926 -0.9723299742 0.1987686157
outer loop
vertex 30.52597809 60.85619354 243.4105835
vertex 30.57283783 60.9148941 243.7266693
vertex 30.40448761 60.92589569 243.6765289

endloop
endfacet
facet normal -0.1901072264 -0.9675023556 0.1667288393
outer loop
vertex 30.52597809 60.85619354 243.4105835
vertex 30.40448761 60.92589569 243.6765289
vertex 30.36354828 60.87023163 243.306839

endloop
endfacet
facet normal -0.192468524 -0.9670032263 0.1669151783
outer loop
vertex 30.36354828 60.87023163 243.306839
vertex 30.40448761 60.92589569 243.6765289
vertex 30.2347641 60.94931793 243.6165161

endloop
endfacet
facet normal -0.3549045324 -0.9305551648 0.09005532414
outer loop
vertex 30.36354828 60.87023163 243.306839
vertex 30.2347641 60.94931793 243.6165161
vertex 30.18770599 60.92810822 243.2118988

endloop
endfacet
facet normal -0.3633842468 -0.927197516 0.09086553752
outer loop
vertex 30.18770599 60.92810822 243.2118988
vertex 30.2347641 60.94931793 243.6165161
vertex 30.0618515 61.00901031 243.5341187

endloop
endfacet
facet normal -0.4015431106 -0.9129746556 0.07239021361
outer loop
vertex 30.18770599 60.92810822 243.2118988
vertex 30.0618515 61.00901031 243.5341187
vertex 30.02072906 60.99454498 243.1235809

endloop
endfacet
facet normal -0.4005079865 -0.913436234 0.0723027885
outer loop
vertex 30.02072906 60.99454498 243.1235809
vertex 30.0618515 61.00901031 243.5341187
vertex 29.89386749 61.07569122 243.4460144

endloop
endfacet
facet normal -0.4040010273 -0.9120320678 0.07057506591
outer loop
vertex 30.02072906 60.99454498 243.1235809
vertex 29.89386749 61.07569122 243.4460144
vertex 29.85987091 61.0590744 243.0366669

endloop
endfacet
facet normal -0.3983021677 -0.9145636559 0.07020453364
outer loop
vertex 29.85987091 61.0590744 243.0366669
vertex 29.89386749 61.07569122 243.4460144
vertex 29.72971344 61.14037323 243.3573151

endloop
endfacet
facet normal -0.3984124064 -0.9145199656 0.07014868408
outer loop
vertex 29.85987091 61.0590744 243.0366669
vertex 29.72971344 61.14037323 243.3573151
vertex 29.70256805 61.12088776 242.9491119

endloop
endfacet
facet normal -0.3909265399 -0.9177709222 0.06980606169
outer loop
vertex 29.70256805 61.12088776 242.9491119
vertex 29.72971344 61.14037323 243.3573151
vertex 29.56772614 61.20252228 243.2672577

endloop
endfacet
facet normal -0.3909509778 -0.9177578092 0.06984306872
outer loop
vertex 29.70256805 61.12088776 242.9491272
vertex 29.56772614 61.20253754 243.2672424
vertex 29.54686737 61.18044281 242.8601532

endloop
endfacet
facet normal -0.3833501935 -0.920974791 0.06962821633
outer loop
vertex 29.54686737 61.18044281 242.8601532
vertex 29.56772614 61.20253754 243.2672424
vertex 29.40726471 61.26239777 243.1755676

endloop
endfacet
facet normal -0.3825346529 -0.9212804437 0.07006857544
outer loop
vertex 29.54686737 61.18044281 242.8601532
vertex 29.40726471 61.26239777 243.1755676
vertex 29.39185333 61.23790741 242.7694244

endloop
endfacet
facet normal -0.3755009174 -0.9241766334 0.0699763
outer loop
vertex 29.39185333 61.23790741 242.7694244
vertex 29.40726471 61.26239777 243.1755676
vertex 29.24770355 61.32015228 243.0821075

endloop
endfacet
facet normal -0.3744852841 -0.9245445132 0.07055614889
outer loop
vertex 29.39185333 61.23792267 242.769455
vertex 29.24771881 61.32016754 243.0821533
vertex 29.23761749 61.29332733 242.6768341

endloop
endfacet
facet normal -0.3675453961 -0.9273244739 0.0705672875
outer loop
vertex 29.23761749 61.29332733 242.6768341
vertex 29.24771881 61.32016754 243.0821533
vertex 29.08889008 61.37586212 242.9867859

endloop
endfacet
facet normal -0.3667223155 -0.9276142716 0.07103940845
outer loop
vertex 29.23761749 61.29332733 242.6768341
vertex 29.08889008 61.37586212 242.9867859
vertex 29.08409882 61.34677887 242.5822906

endloop
endfacet
facet normal -0.3596333265 -0.9303768277 0.07115406543
outer loop
vertex 29.08409882 61.34677887 242.5822906
vertex 29.08889008 61.37586212 242.9867859
vertex 28.93071747 61.4295578 242.8894348

endloop
endfacet
facet normal -0.3584854305 -0.9307675958 0.07183261216
outer loop
vertex 29.08409882 61.34677887 242.5822906
vertex 28.93071747 61.4295578 242.8894348
vertex 28.93094635 61.3983078 242.4856567

endloop
endfacet
facet normal -0.3516342938 -0.9333616495 0.07203727216
outer loop
vertex 28.93094635 61.3983078 242.4856567
vertex 28.93071747 61.4295578 242.8894348
vertex 28.7728653 61.48134613 242.789917

endloop
endfacet
facet normal -0.3497727215 -0.9339727163 0.07317123562
outer loop
vertex 28.93094635 61.3983078 242.4856567
vertex 28.7728653 61.48134613 242.789917
vertex 28.77787018 61.44788361 242.3867188

endloop
endfacet
facet normal -0.3433874547 -0.9363177419 0.07344511896
outer loop
vertex 28.77787018 61.44788361 242.3867188
vertex 28.7728653 61.48134613 242.789917
vertex 28.61504364 61.53122711 242.6879425

endloop
endfacet
facet normal -0.3411499858 -0.9370186925 0.07491708547
outer loop
vertex 28.7779007 61.44789886 242.3867493
vertex 28.61508942 61.53125763 242.6879578
vertex 28.62425995 61.49568939 242.2848511

endloop
endfacet
facet normal -0.3351450861 -0.9391573071 0.07524239272
outer loop
vertex 28.62425995 61.49568939 242.2848511
vertex 28.61508942 61.53125763 242.6879578
vertex 28.45682526 61.57933807 242.5831451

endloop
endfacet
facet normal -0.3329004645 -0.9398379922 0.07669316232
outer loop
vertex 28.62425995 61.49568939 242.2848511
vertex 28.45682526 61.57933807 242.5831451
vertex 28.46770477 61.54253387 242.1793518

endloop
endfacet
facet normal -0.3292091191 -0.9411196709 0.07690943778
outer loop
vertex 28.46770477 61.54253387 242.1793518
vertex 28.45682526 61.57933807 242.5831451
vertex 28.29698944 61.62645721 242.4755554

endloop
endfacet
facet normal -0.3314297497 -0.9404588342 0.07544240355
outer loop
vertex 28.46770477 61.54253387 242.1793518
vertex 28.29698944 61.62645721 242.4755554
vertex 28.3057785 61.5908432 242.0702057

endloop
endfacet
facet normal -0.3302687705 -0.940862298 0.07550302148
outer loop
vertex 28.3057785 61.5908432 242.0702057
vertex 28.29698944 61.62645721 242.4755554
vertex 28.13448334 61.67461395 242.3648071

endloop
endfacet
facet normal -0.3745763004 -0.9260772467 0.04553639516
outer loop
vertex 28.3057785 61.5908432 242.0702057
vertex 28.13448334 61.67461395 242.3648071
vertex 28.14109039 61.65235138 241.9664001

endloop
endfacet
facet normal -0.3803013861 -0.9237518907 0.04531151056
outer loop
vertex 28.14109039 61.65235138 241.9664001
vertex 28.13448334 61.67461395 242.3648071
vertex 27.97986603 61.7327652 242.2526093

endloop
endfacet
facet normal -0.5130471587 -0.8570049405 -0.04821883515
outer loop
vertex 28.14109039 61.65235138 241.9664001
vertex 27.97986603 61.7327652 242.2526093
vertex 27.99477386 61.74408722 241.8927612

endloop
endfacet
facet normal -0.5335680842 -0.8443555236 -0.0486709848
outer loop
vertex 27.99477386 61.74408722 241.8927612
vertex 27.97986603 61.7327652 242.2526093
vertex 27.86258698 61.8130722 242.1451263

endloop
endfacet
facet normal -0.5318703055 -0.8454924226 -0.04750305042
outer loop
vertex 27.99477386 61.74408722 241.8927612
vertex 27.86257172 61.8130722 242.1451263
vertex 27.85126495 61.83834076 241.8219757

endloop
endfacet
facet normal -0.5150331855 -0.8557745814 -0.04889617115
outer loop
vertex 27.85126495 61.83834076 241.8219757
vertex 27.86257172 61.8130722 242.1451263
vertex 27.75084686 61.88713837 242.02565

endloop
endfacet
facet normal -0.889351964 -0.2598129809 -0.3762318492
outer loop
vertex 27.85126495 61.83834076 241.8219757
vertex 27.75084686 61.88713837 242.02565
vertex 27.75978851 62.1019516 241.8561707

endloop
endfacet
facet normal 0.9986143708 0 0.05262482166
outer loop
vertex 27.75978851 62.1019516 241.8561707
vertex 27.75084686 61.88713837 242.02565
vertex 27.75978851 62.10193634 241.8561707

endloop
endfacet
facet normal -0.6022159457 0.7786034942 -0.1763875932
outer loop
vertex 30.79759979 61.08126068 243.6936646
vertex 30.79758453 61.08124542 243.6936493
vertex 30.57283783 60.9148941 243.7266693

endloop
endfacet
facet normal 0.4998781681 -0.5411217213 0.6762462258
outer loop
vertex 30.57283783 60.9148941 243.7266693
vertex 30.79758453 61.08124542 243.6936493
vertex 30.55332184 61.01160431 243.8184814

endloop
endfacet
facet normal -0.2470276654 -0.6929197907 0.6773769855
outer loop
vertex 30.57283783 60.9148941 243.7266693
vertex 30.55332184 61.01160431 243.8184814
vertex 30.40448761 60.92589569 243.6765289

endloop
endfacet
facet normal -0.2761131823 -0.6668618917 0.6921392083
outer loop
vertex 30.40448761 60.92589569 243.6765289
vertex 30.55332184 61.01160431 243.8184814
vertex 30.38742828 61.04956818 243.7888794

endloop
endfacet
facet normal -0.3298880756 -0.6592980027 0.6756479144
outer loop
vertex 30.40448761 60.92589569 243.6765289
vertex 30.38742828 61.04956818 243.7888794
vertex 30.2347641 60.94931793 243.6165161

endloop
endfacet
facet normal -0.3292486668 -0.6598616838 0.6754093766
outer loop
vertex 30.2347641 60.94931793 243.6165161
vertex 30.38742828 61.04956818 243.7888794
vertex 30.22220612 61.08971405 243.7475586

endloop
endfacet
facet normal -0.5021893978 -0.6136347055 0.6093096137
outer loop
vertex 30.2347641 60.94931793 243.6165161
vertex 30.22220612 61.08971405 243.7475586
vertex 30.0618515 61.00901031 243.5341187

endloop
endfacet
facet normal -0.5059614778 -0.6093242764 0.6105136871
outer loop
vertex 30.0618515 61.00901031 243.5341187
vertex 30.22220612 61.08971405 243.7475586
vertex 30.05344391 61.15280914 243.6706696

endloop
endfacet
facet normal -0.545805037 -0.5935431719 0.5914416909
outer loop
vertex 30.0618515 61.00901031 243.5341187
vertex 30.05344391 61.15280914 243.6706696
vertex 29.89386749 61.07569122 243.4460144

endloop
endfacet
facet normal -0.545104146 -0.5943923593 0.5912353992
outer loop
vertex 29.89386749 61.07569122 243.4460144
vertex 30.05344391 61.15280914 243.6706696
vertex 29.88495636 61.21981049 243.5826874

endloop
endfacet
facet normal -0.5510610938 -0.5918937325 0.5882121921
outer loop
vertex 29.89386749 61.07569122 243.4460144
vertex 29.88495636 61.21981049 243.5826874
vertex 29.72971344 61.14037323 243.3573151

endloop
endfacet
facet normal -0.5486229658 -0.5948015451 0.5875576138
outer loop
vertex 29.72971344 61.14037323 243.3573151
vertex 29.88495636 61.21981049 243.5826874
vertex 29.71858978 61.28479767 243.4931335

endloop
endfacet
facet normal -0.5529299974 -0.5930230021 0.5853137374
outer loop
vertex 29.72971344 61.14037323 243.3573151
vertex 29.71858978 61.28479767 243.4931335
vertex 29.56772614 61.20252228 243.2672577

endloop
endfacet
facet normal -0.5493186712 -0.5972313881 0.5844345689
outer loop
vertex 29.56772614 61.20252228 243.2672577
vertex 29.71858978 61.28479767 243.4931335
vertex 29.55347443 61.34738922 243.4019012

endloop
endfacet
facet normal -0.5543715358 -0.595302999 0.5816240907
outer loop
vertex 29.56772614 61.20253754 243.2672424
vertex 29.55347443 61.34737396 243.4019012
vertex 29.40726471 61.26239777 243.1755676

endloop
endfacet
facet normal -0.5507177114 -0.599460423 0.5808246136
outer loop
vertex 29.40726471 61.26239777 243.1755676
vertex 29.55347443 61.34737396 243.4019012
vertex 29.38976288 61.40770721 243.3089447

endloop
endfacet
facet normal -0.5551351309 -0.5977478623 0.5783792138
outer loop
vertex 29.40726471 61.26239777 243.1755676
vertex 29.38976288 61.40770721 243.3089447
vertex 29.24770355 61.32015228 243.0821075

endloop
endfacet
facet normal -0.5518395305 -0.6014151573 0.5777308345
outer loop
vertex 29.24770355 61.32015228 243.0821075
vertex 29.38976288 61.40770721 243.3089447
vertex 29.2271347 61.46590424 243.2141876

endloop
endfacet
facet normal -0.5558860302 -0.5998327136 0.575492382
outer loop
vertex 29.24771881 61.32016754 243.0821533
vertex 29.2271347 61.46593475 243.2142029
vertex 29.08889008 61.37586212 242.9867859

endloop
endfacet
facet normal -0.5524708033 -0.6035538912 0.5748902559
outer loop
vertex 29.08889008 61.37586212 242.9867859
vertex 29.2271347 61.46593475 243.2142029
vertex 29.06523895 61.5220108 243.1174927

endloop
endfacet
facet normal -0.5566835999 -0.602027595 0.5724212527
outer loop
vertex 29.08889008 61.37586212 242.9867859
vertex 29.06523895 61.5220108 243.1174927
vertex 28.93071747 61.4295578 242.8894348

endloop
endfacet
facet normal -0.5531591177 -0.6057906151 0.571867764
outer loop
vertex 28.93071747 61.4295578 242.8894348
vertex 29.06523895 61.5220108 243.1174927
vertex 28.90393829 61.57607269 243.0187378

endloop
endfacet
facet normal -0.557256043 -0.6043602228 0.5693984032
outer loop
vertex 28.93071747 61.4295578 242.8894348
vertex 28.90393829 61.57607269 243.0187378
vertex 28.7728653 61.48134613 242.789917

endloop
endfacet
facet normal -0.5539779663 -0.607793808 0.56894207
outer loop
vertex 28.7728653 61.48134613 242.789917
vertex 28.90393829 61.57607269 243.0187378
vertex 28.74297333 61.62825775 242.9177551

endloop
endfacet
facet normal -0.5577847958 -0.6065151095 0.5665823817
outer loop
vertex 28.7728653 61.48134613 242.789917
vertex 28.74297333 61.62825775 242.9177551
vertex 28.61504364 61.53122711 242.6879425

endloop
endfacet
facet normal -0.5547865033 -0.6095996499 0.5662156343
outer loop
vertex 28.61504364 61.53122711 242.6879425
vertex 28.74297333 61.62825775 242.9177551
vertex 28.58190155 61.67862701 242.8141632

endloop
endfacet
facet normal -0.5583167672 -0.6085268259 0.5638949275
outer loop
vertex 28.61508942 61.53125763 242.6879578
vertex 28.58193207 61.67864227 242.8141785
vertex 28.45682526 61.57933807 242.5831451

endloop
endfacet
facet normal -0.5552268028 -0.6116517782 0.5635647774
outer loop
vertex 28.45682526 61.57933807 242.5831451
vertex 28.58193207 61.67864227 242.8141785
vertex 28.4204483 61.72718048 242.7077637

endloop
endfacet
facet normal -0.5581226945 -0.6107630134 0.5616649389
outer loop
vertex 28.45682526 61.57933807 242.5831451
vertex 28.4204483 61.72718048 242.7077637
vertex 28.29698944 61.62645721 242.4755554

endloop
endfacet
facet normal -0.5560403466 -0.6128460765 0.5614614487
outer loop
vertex 28.29698944 61.62645721 242.4755554
vertex 28.4204483 61.72718048 242.7077637
vertex 28.25836945 61.7746048 242.5990143

endloop
endfacet
facet normal -0.5613480806 -0.6112598181 0.5578975677
outer loop
vertex 28.29698944 61.62645721 242.4755554
vertex 28.25836945 61.7746048 242.5990143
vertex 28.13448334 61.67461395 242.3648071

endloop
endfacet
facet normal -0.5607302785 -0.611882329 0.5578365922
outer loop
vertex 28.13448334 61.67461395 242.3648071
vertex 28.25836945 61.7746048 242.5990143
vertex 28.09528351 61.82239532 242.4875031

endloop
endfacet
facet normal -0.6059720516 -0.5971152186 0.5255961418
outer loop
vertex 28.13448334 61.67461395 242.3648071
vertex 28.09528351 61.82239532 242.4875031
vertex 27.97986603 61.7327652 242.2526093

endloop
endfacet
facet normal -0.6093658805 -0.5934224129 0.5258547068
outer loop
vertex 27.97986603 61.7327652 242.2526093
vertex 28.09528351 61.82239532 242.4875031
vertex 27.94472504 61.87476349 242.3721313

endloop
endfacet
facet normal -0.7408741117 -0.5302907825 0.4121859968
outer loop
vertex 27.97986603 61.7327652 242.2526093
vertex 27.94472504 61.87476349 242.3721313
vertex 27.86258698 61.8130722 242.1451263

endloop
endfacet
facet normal -0.7524761558 -0.51390028 0.4119296968
outer loop
vertex 27.86258698 61.8130722 242.1451263
vertex 27.94472504 61.87476349 242.3721313
vertex 27.83725739 61.93520355 242.2512207

endloop
endfacet
facet normal -0.763822794 -0.5061354041 0.4005018473
outer loop
vertex 27.86257172 61.8130722 242.1451263
vertex 27.83727264 61.93520355 242.2512207
vertex 27.75084686 61.88713837 242.02565

endloop
endfacet
facet normal -0.7487890124 -0.5288231969 0.3995761573
outer loop
vertex 27.75084686 61.88713837 242.02565
vertex 27.83727264 61.93520355 242.2512207
vertex 27.73232269 61.98143768 242.1157379

endloop
endfacet
facet normal -0.9886994362 -0.0653097406 -0.1349368095
outer loop
vertex 27.75084686 61.88713837 242.02565
vertex 27.73232269 61.98143768 242.1157379
vertex 27.75978851 62.10193634 241.8561707

endloop
endfacet
facet normal -0.395737946 -0.816296339 -0.4207753241
outer loop
vertex 27.75978851 62.10193634 241.8561707
vertex 27.73232269 61.98143768 242.1157379
vertex 27.75977325 62.1019516 241.8561554

endloop
endfacet
facet normal 0.4299985766 -0.81610322 0.3861046433
outer loop
vertex 30.79758453 61.08124542 243.6936493
vertex 30.79761505 61.08127594 243.6936798
vertex 30.55332184 61.01160431 243.8184814

endloop
endfacet
facet normal 0.5035341382 -0.353066653 0.7885411978
outer loop
vertex 30.55332184 61.01160431 243.8184814
vertex 30.79761505 61.08127594 243.6936798
vertex 30.56711578 61.11241913 243.8548126

endloop
endfacet
facet normal -0.2338757068 -0.3011496663 0.9244517088
outer loop
vertex 30.55332184 61.01160431 243.8184814
vertex 30.56711578 61.11241913 243.8548126
vertex 30.38742828 61.04956818 243.7888794

endloop
endfacet
facet normal -0.2491166741 -0.2649875581 0.9315161705
outer loop
vertex 30.38742828 61.04956818 243.7888794
vertex 30.56711578 61.11241913 243.8548126
vertex 30.40932465 61.1709671 243.8292694

endloop
endfacet
facet normal -0.2923009694 -0.2540231049 0.9219719768
outer loop
vertex 30.38742828 61.04956818 243.7888794
vertex 30.40932465 61.1709671 243.8292694
vertex 30.22220612 61.08971405 243.7475586

endloop
endfacet
facet normal -0.2923160195 -0.2539922893 0.9219757318
outer loop
vertex 30.22220612 61.08971405 243.7475586
vertex 30.40932465 61.1709671 243.8292694
vertex 30.2518692 61.22750092 243.7949219

endloop
endfacet
facet normal -0.4663279057 -0.1961198896 0.8625979424
outer loop
vertex 30.22220612 61.08971405 243.7475586
vertex 30.2518692 61.22750092 243.7949219
vertex 30.05344391 61.15280914 243.6706696

endloop
endfacet
facet normal -0.4681810737 -0.1913201362 0.8626720905
outer loop
vertex 30.05344391 61.15280914 243.6706696
vertex 30.2518692 61.22750092 243.7949219
vertex 30.08695221 61.29393768 243.7201538

endloop
endfacet
facet normal -0.5094128251 -0.1745072901 0.8426421881
outer loop
vertex 30.05344391 61.15280914 243.6706696
vertex 30.08695221 61.29393768 243.7201538
vertex 29.88495636 61.21981049 243.5826874

endloop
endfacet
facet normal -0.5090922713 -0.1753972918 0.8426510692
outer loop
vertex 29.88495636 61.21981049 243.5826874
vertex 30.08695221 61.29393768 243.7201538
vertex 29.91823578 61.3612442 243.6322327

endloop
endfacet
facet normal -0.5180921555 -0.171625495 0.83792907
outer loop
vertex 29.88495636 61.21981049 243.5826874
vertex 29.91823578 61.3612442 243.6322327
vertex 29.71858978 61.28479767 243.4931335

endloop
endfacet
facet normal -0.516818285 -0.1750824302 0.8380005956
outer loop
vertex 29.71858978 61.28479767 243.4931335
vertex 29.91823578 61.3612442 243.6322327
vertex 29.7503891 61.42653656 243.5423584

endloop
endfacet
facet normal -0.5254725218 -0.1715228856 0.8333418369
outer loop
vertex 29.71858978 61.28479767 243.4931335
vertex 29.7503891 61.42653656 243.5423584
vertex 29.55347443 61.34738922 243.4019012

endloop
endfacet
facet normal -0.523784101 -0.1759658605 0.8334783912
outer loop
vertex 29.55347443 61.34738922 243.4019012
vertex 29.7503891 61.42653656 243.5423584
vertex 29.58319855 61.4895401 243.450592

endloop
endfacet
facet normal -0.5335840583 -0.1720434725 0.828063488
outer loop
vertex 29.55347443 61.34737396 243.4019012
vertex 29.58319855 61.4895401 243.450592
vertex 29.38976288 61.40770721 243.3089447

endloop
endfacet
facet normal -0.5317483544 -0.1767212301 0.8282591701
outer loop
vertex 29.38976288 61.40770721 243.3089447
vertex 29.58319855 61.4895401 243.450592
vertex 29.41733551 61.5503006 243.3570709

endloop
endfacet
facet normal -0.5413373709 -0.1730277091 0.8228093386
outer loop
vertex 29.38976288 61.40770721 243.3089447
vertex 29.41733551 61.5503006 243.3570709
vertex 29.2271347 61.46590424 243.2141876

endloop
endfacet
facet normal -0.5395659208 -0.1774099618 0.8230396509
outer loop
vertex 29.2271347 61.46590424 243.2141876
vertex 29.41733551 61.5503006 243.3570709
vertex 29.25263214 61.60886383 243.2617188

endloop
endfacet
facet normal -0.5487331748 -0.1740404814 0.8176807165
outer loop
vertex 29.2271347 61.46593475 243.2142029
vertex 29.2526474 61.60887909 243.2617493
vertex 29.06523895 61.5220108 243.1174927

endloop
endfacet
facet normal -0.5470702648 -0.178046301 0.8179324865
outer loop
vertex 29.06523895 61.5220108 243.1174927
vertex 29.2526474 61.60887909 243.2617493
vertex 29.08867645 61.66533661 243.1643677

endloop
endfacet
facet normal -0.5560652614 -0.1748138368 0.8125463724
outer loop
vertex 29.06523895 61.5220108 243.1174927
vertex 29.08867645 61.66533661 243.1643677
vertex 28.90393829 61.57607269 243.0187378

endloop
endfacet
facet normal -0.5543213487 -0.1789115518 0.8128459454
outer loop
vertex 28.90393829 61.57607269 243.0187378
vertex 29.08867645 61.66533661 243.1643677
vertex 28.92528534 61.71977997 243.0649261

endloop
endfacet
facet normal -0.5634216666 -0.175763309 0.807256639
outer loop
vertex 28.90393829 61.57607269 243.0187378
vertex 28.92528534 61.71977997 243.0649261
vertex 28.74297333 61.62825775 242.9177551

endloop
endfacet
facet normal -0.5616996884 -0.1797215641 0.807585001
outer loop
vertex 28.74297333 61.62825775 242.9177551
vertex 28.92528534 61.71977997 243.0649261
vertex 28.76222992 61.77233124 242.9632111

endloop
endfacet
facet normal -0.5709049702 -0.1766610891 0.8017844558
outer loop
vertex 28.74297333 61.62825775 242.9177551
vertex 28.76222992 61.77233124 242.9632111
vertex 28.58190155 61.67862701 242.8141632

endloop
endfacet
facet normal -0.5691711903 -0.1805723906 0.8021457791
outer loop
vertex 28.58190155 61.67862701 242.8141632
vertex 28.76222992 61.77233124 242.9632111
vertex 28.59900665 61.82311249 242.8588257

endloop
endfacet
facet normal -0.5781810284 -0.1777448654 0.7963124514
outer loop
vertex 28.58193207 61.67864227 242.8141785
vertex 28.59902191 61.82314301 242.8588409
vertex 28.4204483 61.72718048 242.7077637

endloop
endfacet
facet normal -0.57665658 -0.1811232716 0.7966564894
outer loop
vertex 28.4204483 61.72718048 242.7077637
vertex 28.59902191 61.82314301 242.8588409
vertex 28.43543243 61.8720932 242.7515564

endloop
endfacet
facet normal -0.5837481618 -0.1789719164 0.7919640541
outer loop
vertex 28.4204483 61.72718048 242.7077637
vertex 28.43543243 61.8720932 242.7515564
vertex 28.25836945 61.7746048 242.5990143

endloop
endfacet
facet normal -0.5826326013 -0.1814139038 0.7922299504
outer loop
vertex 28.25836945 61.7746048 242.5990143
vertex 28.43543243 61.8720932 242.7515564
vertex 28.27181244 61.91980743 242.6421509

endloop
endfacet
facet normal -0.5905270576 -0.1790977418 0.7868937254
outer loop
vertex 28.25836945 61.7746048 242.5990143
vertex 28.27181244 61.91980743 242.6421509
vertex 28.09528351 61.82239532 242.4875031

endloop
endfacet
facet normal -0.5902033448 -0.1798117012 0.7869737744
outer loop
vertex 28.09528351 61.82239532 242.4875031
vertex 28.27181244 61.91980743 242.6421509
vertex 28.1082077 61.96723175 242.5302887

endloop
endfacet
facet normal -0.6355379224 -0.1660276651 0.7540068626
outer loop
vertex 28.09528351 61.82239532 242.4875031
vertex 28.1082077 61.96723175 242.5302887
vertex 27.94472504 61.87476349 242.3721313

endloop
endfacet
facet normal -0.637385726 -0.1617009044 0.7533872128
outer loop
vertex 27.94472504 61.87476349 242.3721313
vertex 28.1082077 61.96723175 242.5302887
vertex 27.95896149 62.0139389 242.4140472

endloop
endfacet
facet normal -0.7696661949 -0.1106432304 0.628786087
outer loop
vertex 27.94472504 61.87476349 242.3721313
vertex 27.95896149 62.0139389 242.4140472
vertex 27.83725739 61.93520355 242.2512207

endloop
endfacet
facet normal -0.774977386 -0.09439601004 0.6248995066
outer loop
vertex 27.83725739 61.93520355 242.2512207
vertex 27.95896149 62.0139389 242.4140472
vertex 27.85309601 62.0550766 242.2889709

endloop
endfacet
facet normal -0.8011540771 -0.08105143905 0.5929442644
outer loop
vertex 27.83727264 61.93520355 242.2512207
vertex 27.85309601 62.0550766 242.2889862
vertex 27.73232269 61.98143768 242.1157379

endloop
endfacet
facet normal -0.7945380807 -0.1042594835 0.5981966257
outer loop
vertex 27.73232269 61.98143768 242.1157379
vertex 27.85309601 62.0550766 242.2889862
vertex 27.74652863 62.07970428 242.1517334

endloop
endfacet
facet normal -0.9874250293 0.1546898186 -0.03260271251
outer loop
vertex 27.73232269 61.98143768 242.1157379
vertex 27.74652863 62.07970428 242.1517334
vertex 27.75977325 62.1019516 241.8561554

endloop
endfacet
facet normal -0.07166466117 0.9948509932 0.07166466117
outer loop
vertex 27.75977325 62.1019516 241.8561554
vertex 27.74652863 62.07970428 242.1517334
vertex 27.75978851 62.1019516 241.8561707

endloop
endfacet
facet normal 0 0.9818295836 -0.189764604
outer loop
vertex 30.79761505 61.08127594 243.6936798
vertex 30.79759979 61.08127594 243.6936798
vertex 30.56711578 61.11241913 243.8548126

endloop
endfacet
facet normal 0.5533906221 -0.1466430724 0.8199113607
outer loop
vertex 30.56711578 61.11241913 243.8548126
vertex 30.79759979 61.08127594 243.6936798
vertex 30.60648346 61.21260834 243.8461609

endloop
endfacet
facet normal -0.1116563603 0.1289617866 0.9853433967
outer loop
vertex 30.56711578 61.11241913 243.8548126
vertex 30.60648346 61.21260834 243.8461609
vertex 30.40932465 61.1709671 243.8292694

endloop
endfacet
facet normal -0.1205187291 0.1741808504 0.9773106575
outer loop
vertex 30.40932465 61.1709671 243.8292694
vertex 30.60648346 61.21260834 243.8461609
vertex 30.45876312 61.28522491 243.8150024

endloop
endfacet
facet normal -0.1457992196 0.1844522655 0.9719670415
outer loop
vertex 30.40932465 61.1709671 243.8292694
vertex 30.45876312 61.28522491 243.8150024
vertex 30.2518692 61.22750092 243.7949219

endloop
endfacet
facet normal -0.146962747 0.1889867485 0.9709202051
outer loop
vertex 30.2518692 61.22750092 243.7949219
vertex 30.45876312 61.28522491 243.8150024
vertex 30.31111908 61.35706329 243.7786713

endloop
endfacet
facet normal -0.311224103 0.2570788264 0.914904356
outer loop
vertex 30.2518692 61.22750092 243.7949219
vertex 30.31111908 61.35706329 243.7786713
vertex 30.08695221 61.29393768 243.7201538

endloop
endfacet
facet normal -0.3121916056 0.2621576786 0.9131317735
outer loop
vertex 30.08695221 61.29393768 243.7201538
vertex 30.31111908 61.35706329 243.7786713
vertex 30.14966583 61.42665863 243.7034912

endloop
endfacet
facet normal -0.3537865579 0.2792432308 0.8926692009
outer loop
vertex 30.08695221 61.29393768 243.7201538
vertex 30.14966583 61.42665863 243.7034912
vertex 29.91823578 61.3612442 243.6322327

endloop
endfacet
facet normal -0.3536272645 0.2782849073 0.8930315375
outer loop
vertex 29.91823578 61.3612442 243.6322327
vertex 30.14966583 61.42665863 243.7034912
vertex 29.98090363 61.49430084 243.6155853

endloop
endfacet
facet normal -0.364931047 0.2828575671 0.8870270252
outer loop
vertex 29.91823578 61.3612442 243.6322327
vertex 29.98090363 61.49430084 243.6155853
vertex 29.7503891 61.42653656 243.5423584

endloop
endfacet
facet normal -0.3643492758 0.2794561088 0.8883433342
outer loop
vertex 29.7503891 61.42653656 243.5423584
vertex 29.98090363 61.49430084 243.6155853
vertex 29.81220245 61.5598526 243.5257721

endloop
endfacet
facet normal -0.3767293394 0.2843571007 0.8815985322
outer loop
vertex 29.7503891 61.42653656 243.5423584
vertex 29.81220245 61.5598526 243.5257721
vertex 29.58319855 61.4895401 243.450592

endloop
endfacet
facet normal -0.3759720623 0.2800842822 0.8832880855
outer loop
vertex 29.58319855 61.4895401 243.450592
vertex 29.81220245 61.5598526 243.5257721
vertex 29.64380646 61.62325287 243.4339905

endloop
endfacet
facet normal -0.3893277049 0.2852546573 0.8758159876
outer loop
vertex 29.58319855 61.4895401 243.450592
vertex 29.64382172 61.62325287 243.4339905
vertex 29.41733551 61.5503006 243.3570709

endloop
endfacet
facet normal -0.388482213 0.2806760967 0.8776688576
outer loop
vertex 29.41733551 61.5503006 243.3570709
vertex 29.64382172 61.62325287 243.4339905
vertex 29.47663116 61.68437958 243.3404388

endloop
endfacet
facet normal -0.4020314515 0.2857056558 0.8699097037
outer loop
vertex 29.41733551 61.5503006 243.3570709
vertex 29.47663116 61.68437958 243.3404388
vertex 29.25263214 61.60886383 243.2617188

endloop
endfacet
facet normal -0.4012659788 0.28170982 0.8715648055
outer loop
vertex 29.25263214 61.60886383 243.2617188
vertex 29.47663116 61.68437958 243.3404388
vertex 29.31070709 61.7432785 243.2450104

endloop
endfacet
facet normal -0.414324671 0.2866318226 0.863815546
outer loop
vertex 29.2526474 61.60887909 243.2617493
vertex 29.31073761 61.74329376 243.2450104
vertex 29.08867645 61.66533661 243.1643677

endloop
endfacet
facet normal -0.4135144651 0.2825242579 0.8655552268
outer loop
vertex 29.08867645 61.66533661 243.1643677
vertex 29.31073761 61.74329376 243.2450104
vertex 29.14557648 61.80008698 243.1475677

endloop
endfacet
facet normal -0.4264226556 0.2870058715 0.8577827811
outer loop
vertex 29.08867645 61.66533661 243.1643677
vertex 29.14557648 61.80008698 243.1475677
vertex 28.92528534 61.71977997 243.0649261

endloop
endfacet
facet normal -0.4255749583 0.2828179002 0.8595929742
outer loop
vertex 28.92528534 61.71977997 243.0649261
vertex 29.14557648 61.80008698 243.1475677
vertex 28.98097992 61.85492706 243.0480347

endloop
endfacet
facet normal -0.4386358559 0.2871936858 0.851538837
outer loop
vertex 28.92528534 61.71977997 243.0649261
vertex 28.98097992 61.85492706 243.0480347
vertex 28.76222992 61.77233124 242.9632111

endloop
endfacet
facet normal -0.4378276169 0.2832823396 0.8532631397
outer loop
vertex 28.76222992 61.77233124 242.9632111
vertex 28.98097992 61.85492706 243.0480347
vertex 28.81667328 61.90781403 242.946167

endloop
endfacet
facet normal -0.4509382844 0.2875089347 0.8449812531
outer loop
vertex 28.76222992 61.77233124 242.9632111
vertex 28.81667328 61.90781403 242.946167
vertex 28.59900665 61.82311249 242.8588257

endloop
endfacet
facet normal -0.4501903653 0.2839290202 0.8465890288
outer loop
vertex 28.59900665 61.82311249 242.8588257
vertex 28.81667328 61.90781403 242.946167
vertex 28.65218353 61.95893097 242.8415527

endloop
endfacet
facet normal -0.4634116292 0.2880171239 0.8380308747
outer loop
vertex 28.59902191 61.82314301 242.8588409
vertex 28.65219879 61.95896149 242.841568
vertex 28.43543243 61.8720932 242.7515564

endloop
endfacet
facet normal -0.4627123773 0.2846983373 0.8395498991
outer loop
vertex 28.43543243 61.8720932 242.7515564
vertex 28.65219879 61.95896149 242.841568
vertex 28.48735809 62.00827789 242.7339935

endloop
endfacet
facet normal -0.4729434848 0.287727356 0.8327889442
outer loop
vertex 28.43543243 61.8720932 242.7515564
vertex 28.48735809 62.00827789 242.7339935
vertex 28.27181244 61.91980743 242.6421509

endloop
endfacet
facet normal -0.4724972546 0.2856271565 0.8337646723
outer loop
vertex 28.27181244 61.91980743 242.6421509
vertex 28.48735809 62.00827789 242.7339935
vertex 28.32285309 62.05622101 242.6243439

endloop
endfacet
facet normal -0.4820735455 0.2883681953 0.8273142576
outer loop
vertex 28.27181244 61.91980743 242.6421509
vertex 28.32285309 62.05622101 242.6243439
vertex 28.1082077 61.96723175 242.5302887

endloop
endfacet
facet normal -0.4819555283 0.2878029644 0.8275797367
outer loop
vertex 28.1082077 61.96723175 242.5302887
vertex 28.32285309 62.05622101 242.6243439
vertex 28.15882111 62.10332489 242.5124359

endloop
endfacet
facet normal -0.5259592533 0.3000046611 0.7958416939
outer loop
vertex 28.1082077 61.96723175 242.5302887
vertex 28.15882111 62.10332489 242.5124359
vertex 27.95896149 62.0139389 242.4140472

endloop
endfacet
facet normal -0.5265871882 0.3032007217 0.794213593
outer loop
vertex 27.95896149 62.0139389 242.4140472
vertex 28.15882111 62.10332489 242.5124359
vertex 28.00875092 62.14473724 242.3971252

endloop
endfacet
facet normal -0.6605474949 0.3381644189 0.6703147292
outer loop
vertex 27.95896149 62.0139389 242.4140472
vertex 28.00875092 62.14473724 242.3971252
vertex 27.85309601 62.0550766 242.2889709

endloop
endfacet
facet normal -0.6618881822 0.3485350013 0.6636470556
outer loop
vertex 27.85309601 62.0550766 242.2889709
vertex 28.00875092 62.14473724 242.3971252
vertex 27.89835358 62.16786957 242.2748718

endloop
endfacet
facet normal -0.7048404813 0.3591817617 0.6117093563
outer loop
vertex 27.85309601 62.0550766 242.2889862
vertex 27.89833832 62.16786957 242.2748871
vertex 27.74652863 62.07970428 242.1517334

endloop
endfacet
facet normal -0.7031310797 0.3334313035 0.628036797
outer loop
vertex 27.74652863 62.07970428 242.1517334
vertex 27.89833832 62.16786957 242.2748871
vertex 27.78583527 62.17745209 242.1438446

endloop
endfacet
facet normal -0.9280899763 0.3721064627 -0.01362823788
outer loop
vertex 27.74652863 62.07970428 242.1517334
vertex 27.78583527 62.17745209 242.1438446
vertex 27.75978851 62.1019516 241.8561707

endloop
endfacet
facet normal -0.6231716275 0.7684767842 -0.1452603042
outer loop
vertex 27.75978851 62.1019516 241.8561707
vertex 27.78583527 62.17745209 242.1438446
vertex 27.75980377 62.10196686 241.8561859

endloop
endfacet
facet normal -0.07800905406 0.704951942 -0.704951942
outer loop
vertex 30.79759979 61.08127594 243.6936798
vertex 30.79759979 61.08126068 243.6936646
vertex 30.60648346 61.21260834 243.8461609

endloop
endfacet
facet normal 0.6401497126 0.04075174406 0.7671687007
outer loop
vertex 30.60648346 61.21260834 243.8461609
vertex 30.79759979 61.08126068 243.6936646
vertex 30.66963959 61.30059052 243.7887878

endloop
endfacet
facet normal 0.06950499117 0.5094174147 0.8577079177
outer loop
vertex 30.60648346 61.21260834 243.8461609
vertex 30.66963959 61.30059052 243.7887878
vertex 30.45876312 61.28522491 243.8150024

endloop
endfacet
facet normal 0.06693974137 0.5268728733 0.8473039865
outer loop
vertex 30.45876312 61.28522491 243.8150024
vertex 30.66963959 61.30059052 243.7887878
vertex 30.53298187 61.38558197 243.7467346

endloop
endfacet
facet normal 0.05266244337 0.5347527862 0.8433659673
outer loop
vertex 30.45876312 61.28522491 243.8150024
vertex 30.53298187 61.38558197 243.7467346
vertex 30.31111908 61.35706329 243.7786713

endloop
endfacet
facet normal 0.05087608099 0.542915225 0.8382450342
outer loop
vertex 30.31111908 61.35706329 243.7786713
vertex 30.53298187 61.38558197 243.7467346
vertex 30.39659882 61.47092438 243.6997375

endloop
endfacet
facet normal -0.09851700813 0.6158542037 0.7816764116
outer loop
vertex 30.31111908 61.35706329 243.7786713
vertex 30.39659882 61.47092438 243.6997375
vertex 30.14966583 61.42665863 243.7034912

endloop
endfacet
facet normal -0.09955358505 0.6212617159 0.777253449
outer loop
vertex 30.14966583 61.42665863 243.7034912
vertex 30.39659882 61.47092438 243.6997375
vertex 30.23799896 61.54332733 243.6215515

endloop
endfacet
facet normal -0.1391600519 0.637544632 0.7577409744
outer loop
vertex 30.14966583 61.42665863 243.7034912
vertex 30.23799896 61.54332733 243.6215515
vertex 29.98090363 61.49430084 243.6155853

endloop
endfacet
facet normal -0.1390656233 0.6369906068 0.7582240701
outer loop
vertex 29.98090363 61.49430084 243.6155853
vertex 30.23799896 61.54332733 243.6215515
vertex 30.06938934 61.6112442 243.5335693

endloop
endfacet
facet normal -0.1510145813 0.6416533589 0.75198102
outer loop
vertex 29.98090363 61.49430084 243.6155853
vertex 30.06938934 61.6112442 243.5335693
vertex 29.81220245 61.5598526 243.5257721

endloop
endfacet
facet normal -0.1504937559 0.6386429667 0.7546434999
outer loop
vertex 29.81220245 61.5598526 243.5257721
vertex 30.06938934 61.6112442 243.5335693
vertex 29.90053558 61.6770401 243.4442139

endloop
endfacet
facet normal -0.1646835506 0.6440511346 0.7470457554
outer loop
vertex 29.81220245 61.5598526 243.5257721
vertex 29.90053558 61.6770401 243.4442139
vertex 29.64380646 61.62325287 243.4339905

endloop
endfacet
facet normal -0.1640276313 0.6402778029 0.750426054
outer loop
vertex 29.64380646 61.62325287 243.4339905
vertex 29.90053558 61.6770401 243.4442139
vertex 29.73188019 61.7407608 243.3529816

endloop
endfacet
facet normal -0.179131031 0.6458630562 0.7421408892
outer loop
vertex 29.64382172 61.62325287 243.4339905
vertex 29.73188019 61.7407608 243.3529816
vertex 29.47663116 61.68437958 243.3404388

endloop
endfacet
facet normal -0.1785185635 0.6423880458 0.7452977896
outer loop
vertex 29.47663116 61.68437958 243.3404388
vertex 29.73188019 61.7407608 243.3529816
vertex 29.56439972 61.80220795 243.259903

endloop
endfacet
facet normal -0.1937360317 0.6478565931 0.7367144227
outer loop
vertex 29.47663116 61.68437958 243.3404388
vertex 29.56439972 61.80220795 243.259903
vertex 29.31070709 61.7432785 243.2450104

endloop
endfacet
facet normal -0.1931544095 0.6445919275 0.7397247553
outer loop
vertex 29.31070709 61.7432785 243.2450104
vertex 29.56439972 61.80220795 243.259903
vertex 29.39817047 61.86136627 243.1649475

endloop
endfacet
facet normal -0.2080248743 0.6496396065 0.7312276363
outer loop
vertex 29.31073761 61.74329376 243.2450104
vertex 29.39818573 61.86139679 243.1649628
vertex 29.14557648 61.80008698 243.1475677

endloop
endfacet
facet normal -0.2074759454 0.6465612054 0.7341064811
outer loop
vertex 29.14557648 61.80008698 243.1475677
vertex 29.39818573 61.86139679 243.1649628
vertex 29.23271942 61.91843414 243.0679626

endloop
endfacet
facet normal -0.2217658758 0.6513767838 0.725622654
outer loop
vertex 29.14557648 61.80008698 243.1475677
vertex 29.23271942 61.91843414 243.0679626
vertex 28.98097992 61.85492706 243.0480347

endloop
endfacet
facet normal -0.2211902291 0.6481294036 0.7286996245
outer loop
vertex 28.98097992 61.85492706 243.0480347
vertex 29.23271942 61.91843414 243.0679626
vertex 29.06781769 61.97354889 242.9688873

endloop
endfacet
facet normal -0.236014545 0.6529625058 0.7196784019
outer loop
vertex 28.98097992 61.85492706 243.0480347
vertex 29.06781769 61.97354889 242.9688873
vertex 28.81667328 61.90781403 242.946167

endloop
endfacet
facet normal -0.2354512364 0.649740994 0.7227720022
outer loop
vertex 28.81667328 61.90781403 242.946167
vertex 29.06781769 61.97354889 242.9688873
vertex 28.90325165 62.02675629 242.8674469

endloop
endfacet
facet normal -0.2503781021 0.6544402838 0.7134554982
outer loop
vertex 28.81667328 61.90781403 242.946167
vertex 28.90325165 62.02675629 242.8674469
vertex 28.65218353 61.95893097 242.8415527

endloop
endfacet
facet normal -0.2498671114 0.6514314413 0.7163822055
outer loop
vertex 28.65218353 61.95893097 242.8415527
vertex 28.90325165 62.02675629 242.8674469
vertex 28.73842621 62.07819366 242.7631836

endloop
endfacet
facet normal -0.2649849355 0.6559510231 0.7067611814
outer loop
vertex 28.65219879 61.95896149 242.841568
vertex 28.73844147 62.07822418 242.7632141
vertex 28.48735809 62.00827789 242.7339935

endloop
endfacet
facet normal -0.2645325959 0.6531906724 0.7094818354
outer loop
vertex 28.48735809 62.00827789 242.7339935
vertex 28.73844147 62.07822418 242.7632141
vertex 28.57331085 62.12784576 242.6559601

endloop
endfacet
facet normal -0.2763675451 0.6566453576 0.7017392516
outer loop
vertex 28.48735809 62.00827789 242.7339935
vertex 28.57331085 62.12784576 242.6559601
vertex 28.32285309 62.05622101 242.6243439

endloop
endfacet
facet normal -0.2760778069 0.6548369527 0.7035407424
outer loop
vertex 28.32285309 62.05622101 242.6243439
vertex 28.57331085 62.12784576 242.6559601
vertex 28.40857697 62.1760025 242.5464935

endloop
endfacet
facet normal -0.2864016891 0.6577532291 0.6966596842
outer loop
vertex 28.32285309 62.05622101 242.6243439
vertex 28.40857697 62.1760025 242.5464935
vertex 28.15882111 62.10332489 242.5124359

endloop
endfacet
facet normal -0.2863257229 0.6572591066 0.6971570253
outer loop
vertex 28.15882111 62.10332489 242.5124359
vertex 28.40857697 62.1760025 242.5464935
vertex 28.24419403 62.22280121 242.4348602

endloop
endfacet
facet normal -0.3285307288 0.6681821346 0.6675328612
outer loop
vertex 28.15882111 62.10332489 242.5124359
vertex 28.24419403 62.22280121 242.4348602
vertex 28.00875092 62.14473724 242.3971252

endloop
endfacet
facet normal -0.3288851082 0.6704241037 0.6651060581
outer loop
vertex 28.00875092 62.14473724 242.3971252
vertex 28.24419403 62.22280121 242.4348602
vertex 28.09127045 62.25957489 242.3221741

endloop
endfacet
facet normal -0.4646449685 0.6933597922 0.5507788062
outer loop
vertex 28.00875092 62.14473724 242.3971252
vertex 28.09127045 62.25957489 242.3221741
vertex 27.89835358 62.16786957 242.2748718

endloop
endfacet
facet normal -0.4653143287 0.6983016133 0.5439279079
outer loop
vertex 27.89835358 62.16786957 242.2748718
vertex 28.09127045 62.25957489 242.3221741
vertex 27.97048187 62.26683807 242.2095184

endloop
endfacet
facet normal -0.5148627162 0.7011273503 0.4932918549
outer loop
vertex 27.89833832 62.16786957 242.2748871
vertex 27.97046661 62.26683807 242.2095032
vertex 27.78583527 62.17745209 242.1438446

endloop
endfacet
facet normal -0.5149047375 0.697905004 0.4977968335
outer loop
vertex 27.78583527 62.17745209 242.1438446
vertex 27.97046661 62.26683807 242.2095032
vertex 27.84833527 62.26319122 242.0882874

endloop
endfacet
facet normal -0.8274551034 0.556989193 -0.07128088176
outer loop
vertex 27.78583527 62.17745209 242.1438446
vertex 27.84833527 62.26319122 242.0882874
vertex 27.75980377 62.10196686 241.8561859

endloop
endfacet
facet normal 0.4039597213 -0.8162485361 0.4129828811
outer loop
vertex 27.75980377 62.10196686 241.8561859
vertex 27.84833527 62.26319122 242.0882874
vertex 27.75978851 62.1019516 241.8561707

endloop
endfacet
facet normal -0.2881489694 -0.5175353885 0.8056843281
outer loop
vertex 30.79759979 61.08126068 243.6936646
vertex 30.79761505 61.08127594 243.6936798
vertex 30.66963959 61.30059052 243.7887878

endloop
endfacet
facet normal 0.7659664154 0.1792209297 0.6173940897
outer loop
vertex 30.66963959 61.30059052 243.7887878
vertex 30.79761505 61.08127594 243.6936798
vertex 30.74468231 61.34282684 243.6834259

endloop
endfacet
facet normal 0.3187201321 0.7793777585 0.5394327641
outer loop
vertex 30.66963959 61.30059052 243.7887878
vertex 30.74468231 61.34282684 243.6834259
vertex 30.53298187 61.38558197 243.7467346

endloop
endfacet
facet normal 0.3183755279 0.7811294794 0.5370975137
outer loop
vertex 30.53298187 61.38558197 243.7467346
vertex 30.74468231 61.34282684 243.6834259
vertex 30.62093353 61.43630219 243.6208344

endloop
endfacet
facet normal 0.3090699911 0.7875282168 0.5331745744
outer loop
vertex 30.53298187 61.38558197 243.7467346
vertex 30.62093353 61.43630219 243.6208344
vertex 30.39659882 61.47092438 243.6997375

endloop
endfacet
facet normal 0.3059395552 0.7975879312 0.5198600292
outer loop
vertex 30.39659882 61.47092438 243.6997375
vertex 30.62093353 61.43630219 243.6208344
vertex 30.49465179 61.52854156 243.5536346

endloop
endfacet
facet normal 0.1716767102 0.8717017174 0.4589806795
outer loop
vertex 30.39659882 61.47092438 243.6997375
vertex 30.49465179 61.52854156 243.5536346
vertex 30.23799896 61.54332733 243.6215515

endloop
endfacet
facet normal 0.1699643582 0.875882268 0.4515998065
outer loop
vertex 30.23799896 61.54332733 243.6215515
vertex 30.49465179 61.52854156 243.5536346
vertex 30.33721161 61.60237885 243.4696808

endloop
endfacet
facet normal 0.1328910589 0.8913517594 0.4333958626
outer loop
vertex 30.23799896 61.54332733 243.6215515
vertex 30.33721161 61.60237885 243.4696808
vertex 30.06938934 61.6112442 243.5335693

endloop
endfacet
facet normal 0.1330338866 0.8910164833 0.4340411127
outer loop
vertex 30.06938934 61.6112442 243.5335693
vertex 30.33721161 61.60237885 243.4696808
vertex 30.16901398 61.67040253 243.3815918

endloop
endfacet
facet normal 0.1220825016 0.8952512145 0.4285105467
outer loop
vertex 30.06938934 61.6112442 243.5335693
vertex 30.16901398 61.67040253 243.3815918
vertex 29.90053558 61.6770401 243.4442139

endloop
endfacet
facet normal 0.12284448 0.8934851885 0.431964606
outer loop
vertex 29.90053558 61.6770401 243.4442139
vertex 30.16901398 61.67040253 243.3815918
vertex 30.00104523 61.73630524 243.293045

endloop
endfacet
facet normal 0.1095279157 0.8985052109 0.4250786602
outer loop
vertex 29.90053558 61.6770401 243.4442139
vertex 30.00104523 61.73630524 243.293045
vertex 29.73188019 61.7407608 243.3529816

endloop
endfacet
facet normal 0.110519737 0.8961799741 0.42970559
outer loop
vertex 29.73188019 61.7407608 243.3529816
vertex 30.00104523 61.73630524 243.293045
vertex 29.83356476 61.80014801 243.2029724

endloop
endfacet
facet normal 0.09612944722 0.9014284611 0.4221206009
outer loop
vertex 29.73188019 61.7407608 243.3529816
vertex 29.83356476 61.80016327 243.2029724
vertex 29.56439972 61.80220795 243.259903

endloop
endfacet
facet normal 0.09708825499 0.8991499543 0.4267356694
outer loop
vertex 29.56439972 61.80220795 243.259903
vertex 29.83356476 61.80016327 243.2029724
vertex 29.6672287 61.861763 243.1110229

endloop
endfacet
facet normal 0.0826015994 0.9043155313 0.4187963009
outer loop
vertex 29.56439972 61.80220795 243.259903
vertex 29.6672287 61.861763 243.1110229
vertex 29.39817047 61.86136627 243.1649475

endloop
endfacet
facet normal 0.08347809315 0.9022039771 0.4231540859
outer loop
vertex 29.39817047 61.86136627 243.1649475
vertex 29.6672287 61.861763 243.1110229
vertex 29.50206757 61.92105865 243.0171814

endloop
endfacet
facet normal 0.06934460998 0.9071243405 0.4151105285
outer loop
vertex 29.39818573 61.86139679 243.1649628
vertex 29.50208282 61.92107391 243.0171967
vertex 29.23271942 61.91843414 243.0679626

endloop
endfacet
facet normal 0.07017063349 0.9050912261 0.419387728
outer loop
vertex 29.23271942 61.91843414 243.0679626
vertex 29.50208282 61.92107391 243.0171967
vertex 29.33771515 61.97823334 242.9213409

endloop
endfacet
facet normal 0.05672117323 0.9095999002 0.4115954041
outer loop
vertex 29.23271942 61.91843414 243.0679626
vertex 29.33771515 61.97823334 242.9213409
vertex 29.06781769 61.97354889 242.9688873

endloop
endfacet
facet normal 0.05746584758 0.9077135324 0.4156366885
outer loop
vertex 29.06781769 61.97354889 242.9688873
vertex 29.33771515 61.97823334 242.9213409
vertex 29.1740036 62.03343964 242.82341

endloop
endfacet
facet normal 0.04375642166 0.9121717811 0.4074654281
outer loop
vertex 29.06781769 61.97354889 242.9688873
vertex 29.1740036 62.03343964 242.82341
vertex 28.90325165 62.02675629 242.8674469

endloop
endfacet
facet normal 0.04447176307 0.9102889895 0.411577791
outer loop
vertex 28.90325165 62.02675629 242.8674469
vertex 29.1740036 62.03343964 242.82341
vertex 29.01062775 62.0867691 242.723114

endloop
endfacet
facet normal 0.03051035106 0.9146831632 0.4030183256
outer loop
vertex 28.90325165 62.02675629 242.8674469
vertex 29.01062775 62.0867691 242.723114
vertex 28.73842621 62.07819366 242.7631836

endloop
endfacet
facet normal 0.03117606603 0.9128314853 0.4071443975
outer loop
vertex 28.73842621 62.07819366 242.7631836
vertex 29.01062775 62.0867691 242.723114
vertex 28.84696198 62.13835907 242.6199799

endloop
endfacet
facet normal 0.01701408438 0.9171682 0.3981369734
outer loop
vertex 28.73844147 62.07822418 242.7632141
vertex 28.84699249 62.13837433 242.6200104
vertex 28.57331085 62.12784576 242.6559601

endloop
endfacet
facet normal 0.01758107357 0.9154878855 0.401961267
outer loop
vertex 28.57331085 62.12784576 242.6559601
vertex 28.84699249 62.13837433 242.6200104
vertex 28.68299103 62.18813324 242.513855

endloop
endfacet
facet normal 0.006326389499 0.9187974334 0.3946787119
outer loop
vertex 28.57331085 62.12784576 242.6559601
vertex 28.68299103 62.18813324 242.513855
vertex 28.40857697 62.1760025 242.5464935

endloop
endfacet
facet normal 0.006638399325 0.9178209305 0.396939069
outer loop
vertex 28.40857697 62.1760025 242.5464935
vertex 28.68299103 62.18813324 242.513855
vertex 28.51903534 62.23635101 242.4051056

endloop
endfacet
facet normal -0.0031089033 0.9205943942 0.3905077577
outer loop
vertex 28.40857697 62.1760025 242.5464935
vertex 28.51903534 62.23635101 242.4051056
vertex 28.24419403 62.22280121 242.4348602

endloop
endfacet
facet normal -0.002981320489 0.9201751947 0.3914954364
outer loop
vertex 28.24419403 62.22280121 242.4348602
vertex 28.51903534 62.23635101 242.4051056
vertex 28.35454559 62.28302765 242.2941437

endloop
endfacet
facet normal -0.04417716712 0.9305033088 0.3636095524
outer loop
vertex 28.24419403 62.22280121 242.4348602
vertex 28.35454559 62.28302765 242.2941437
vertex 28.09127045 62.25957489 242.3221741

endloop
endfacet
facet normal -0.04456187412 0.9315500855 0.3608720303
outer loop
vertex 28.09127045 62.25957489 242.3221741
vertex 28.35454559 62.28302765 242.2941437
vertex 28.19664764 62.31746674 242.1857452

endloop
endfacet
facet normal -0.1849281043 0.947901547 0.2593921125
outer loop
vertex 28.09127045 62.25957489 242.3221741
vertex 28.19664764 62.31746674 242.1857452
vertex 27.97048187 62.26683807 242.2095184

endloop
endfacet
facet normal -0.1853992492 0.948615253 0.2564297915
outer loop
vertex 27.97048187 62.26683807 242.2095184
vertex 28.19664764 62.31746674 242.1857452
vertex 28.06008148 62.31674957 242.0896606

endloop
endfacet
facet normal -0.2408434451 0.9466363192 0.2141823769
outer loop
vertex 27.97046661 62.26683807 242.2095032
vertex 28.06008148 62.31674957 242.0896759
vertex 27.84833527 62.26319122 242.0882874

endloop
endfacet
facet normal -0.2412000895 0.9482448697 0.2065287679
outer loop
vertex 27.84833527 62.26319122 242.0882874
vertex 28.06008148 62.31674957 242.0896759
vertex 27.92221832 62.30434418 241.9856262

endloop
endfacet
facet normal -0.6883206367 0.691866219 -0.218026951
outer loop
vertex 27.84833527 62.26319122 242.0882874
vertex 27.92221832 62.30434418 241.9856262
vertex 27.75978851 62.1019516 241.8561707

endloop
endfacet
facet normal 0.7024648786 -0.1143941656 -0.7024648786
outer loop
vertex 27.75978851 62.1019516 241.8561707
vertex 27.92221832 62.30434418 241.9856262
vertex 27.75980377 62.1019516 241.8561859

endloop
endfacet
facet normal 0 -0.0391741544 -0.9992323518
outer loop
vertex 30.79761505 61.08127594 243.6936798
vertex 30.79759979 61.08127594 243.6936798
vertex 30.74468231 61.34282684 243.6834259

endloop
endfacet
facet normal 0.8871785998 0.1958747655 0.4177884161
outer loop
vertex 30.74468231 61.34282684 243.6834259
vertex 30.79759979 61.08127594 243.6936798
vertex 30.80744171 61.32030487 243.5607147

endloop
endfacet
facet normal 0.5539098978 0.8219771981 0.1324288696
outer loop
vertex 30.74468231 61.34282684 243.6834259
vertex 30.80744171 61.32030487 243.5607147
vertex 30.62093353 61.43630219 243.6208344

endloop
endfacet
facet normal 0.5567572713 0.816783011 0.151284188
outer loop
vertex 30.62093353 61.43630219 243.6208344
vertex 30.80744171 61.32030487 243.5607147
vertex 30.69525909 61.41338348 243.4710388

endloop
endfacet
facet normal 0.5352274179 0.833348155 0.138067022
outer loop
vertex 30.62093353 61.43630219 243.6208344
vertex 30.69525909 61.41338348 243.4710388
vertex 30.49465179 61.52854156 243.5536346

endloop
endfacet
facet normal 0.5305063725 0.8394060731 0.1181544885
outer loop
vertex 30.49465179 61.52854156 243.5536346
vertex 30.69525909 61.41338348 243.4710388
vertex 30.57440948 61.50266266 243.3793793

endloop
endfacet
facet normal 0.4027482271 0.9140198231 0.04859784991
outer loop
vertex 30.49465179 61.52854156 243.5536346
vertex 30.57440948 61.50266266 243.3793793
vertex 30.33721161 61.60237885 243.4696808

endloop
endfacet
facet normal 0.4000745416 0.915617466 0.03981042653
outer loop
vertex 30.33721161 61.60237885 243.4696808
vertex 30.57440948 61.50266266 243.3793793
vertex 30.41584015 61.57590485 243.2883911

endloop
endfacet
facet normal 0.3647816777 0.9308264256 0.0222823061
outer loop
vertex 30.33721161 61.60237885 243.4696808
vertex 30.41584015 61.57590485 243.2883911
vertex 30.16901398 61.67040253 243.3815918

endloop
endfacet
facet normal 0.3650679588 0.9306922555 0.02317644283
outer loop
vertex 30.16901398 61.67040253 243.3815918
vertex 30.41584015 61.57590485 243.2883911
vertex 30.24817657 61.64386749 243.2002106

endloop
endfacet
facet normal 0.3565092087 0.9340997934 0.01894255914
outer loop
vertex 30.16901398 61.67040253 243.3815918
vertex 30.24817657 61.64386749 243.2002106
vertex 30.00104523 61.73630524 243.293045

endloop
endfacet
facet normal 0.3577203155 0.9335525632 0.02271143533
outer loop
vertex 30.00104523 61.73630524 243.293045
vertex 30.24817657 61.64386749 243.2002106
vertex 30.08194733 61.70969391 243.1126404

endloop
endfacet
facet normal 0.3478117883 0.9373973608 0.01770085469
outer loop
vertex 30.00104523 61.73630524 243.293045
vertex 30.08194733 61.70969391 243.1126404
vertex 29.83356476 61.80014801 243.2029724

endloop
endfacet
facet normal 0.3494670093 0.9366667271 0.0229837466
outer loop
vertex 29.83356476 61.80014801 243.2029724
vertex 30.08194733 61.70969391 243.1126404
vertex 29.91690826 61.77344513 243.0239716

endloop
endfacet
facet normal 0.3388237655 0.9406914115 0.01726741157
outer loop
vertex 29.83356476 61.80016327 243.2029724
vertex 29.91690826 61.77342987 243.0239716
vertex 29.6672287 61.861763 243.1110229

endloop
endfacet
facet normal 0.3404020965 0.9400110841 0.02248463593
outer loop
vertex 29.6672287 61.861763 243.1110229
vertex 29.91690826 61.77342987 243.0239716
vertex 29.75302887 61.83493805 242.9335327

endloop
endfacet
facet normal 0.3294845223 0.9440150261 0.01660189033
outer loop
vertex 29.6672287 61.861763 243.1110229
vertex 29.75302887 61.83493805 242.9335327
vertex 29.50206757 61.92105865 243.0171814

endloop
endfacet
facet normal 0.3308016658 0.9434638619 0.0211210344
outer loop
vertex 29.50206757 61.92105865 243.0171814
vertex 29.75302887 61.83493805 242.9335327
vertex 29.59020233 61.89409637 242.8411865

endloop
endfacet
facet normal 0.3203852475 0.9471618533 0.01542160008
outer loop
vertex 29.50208282 61.92107391 243.0171967
vertex 29.59021759 61.89412689 242.841217
vertex 29.33771515 61.97823334 242.9213409

endloop
endfacet
facet normal 0.3217046261 0.9466258287 0.02014220878
outer loop
vertex 29.33771515 61.97823334 242.9213409
vertex 29.59021759 61.89412689 242.841217
vertex 29.42824554 61.9511795 242.7468719

endloop
endfacet
facet normal 0.3117386103 0.9500582218 0.01443867851
outer loop
vertex 29.33771515 61.97823334 242.9213409
vertex 29.42824554 61.9511795 242.7468719
vertex 29.1740036 62.03343964 242.82341

endloop
endfacet
facet normal 0.3128862679 0.9496058226 0.01873721741
outer loop
vertex 29.1740036 62.03343964 242.82341
vertex 29.42824554 61.9511795 242.7468719
vertex 29.26692963 62.00623322 242.6504974

endloop
endfacet
facet normal 0.3030858338 0.9528752565 0.01295588166
outer loop
vertex 29.1740036 62.03343964 242.82341
vertex 29.26692963 62.00623322 242.6504974
vertex 29.01062775 62.0867691 242.723114

endloop
endfacet
facet normal 0.3041888475 0.9524543285 0.01731582172
outer loop
vertex 29.01062775 62.0867691 242.723114
vertex 29.26692963 62.00623322 242.6504974
vertex 29.1059494 62.05944061 242.5517883

endloop
endfacet
facet normal 0.2941722274 0.9556865692 0.01122722309
outer loop
vertex 29.01062775 62.0867691 242.723114
vertex 29.1059494 62.05944061 242.5517883
vertex 28.84696198 62.13835907 242.6199799

endloop
endfacet
facet normal 0.2952753901 0.9552800059 0.01588737033
outer loop
vertex 28.84696198 62.13835907 242.6199799
vertex 29.1059494 62.05944061 242.5517883
vertex 28.94480133 62.11093903 242.4503021

endloop
endfacet
facet normal 0.2847962976 0.9585427642 0.009316840209
outer loop
vertex 28.84699249 62.13837433 242.6200104
vertex 28.94483185 62.11095428 242.4503174
vertex 28.68299103 62.18813324 242.513855

endloop
endfacet
facet normal 0.2857029736 0.9582239389 0.013440351
outer loop
vertex 28.68299103 62.18813324 242.513855
vertex 28.94483185 62.11095428 242.4503174
vertex 28.78327179 62.16059113 242.3457794

endloop
endfacet
facet normal 0.2772553563 0.9607630372 0.007984098978
outer loop
vertex 28.68299103 62.18813324 242.513855
vertex 28.78327179 62.16059113 242.3457794
vertex 28.51903534 62.23635101 242.4051056

endloop
endfacet
facet normal 0.2778312266 0.9605691433 0.01079672202
outer loop
vertex 28.51903534 62.23635101 242.4051056
vertex 28.78327179 62.16059113 242.3457794
vertex 28.62100983 62.2087326 242.2381744

endloop
endfacet
facet normal 0.2696197331 0.962951839 0.00538627943
outer loop
vertex 28.51903534 62.23635101 242.4051056
vertex 28.62100983 62.2087326 242.2381744
vertex 28.35454559 62.28302765 242.2941437

endloop
endfacet
facet normal 0.2697454989 0.9629127383 0.006036834791
outer loop
vertex 28.35454559 62.28302765 242.2941437
vertex 28.62100983 62.2087326 242.2381744
vertex 28.45668793 62.25545502 242.1280975

endloop
endfacet
facet normal 0.2273292691 0.9735733271 -0.02182548493
outer loop
vertex 28.35454559 62.28302765 242.2941437
vertex 28.45668793 62.25545502 242.1280975
vertex 28.19664764 62.31746674 242.1857452

endloop
endfacet
facet normal 0.2268818617 0.9736288786 -0.02390337549
outer loop
vertex 28.19664764 62.31746674 242.1857452
vertex 28.45668793 62.25545502 242.1280975
vertex 28.29306793 62.29103851 242.0244598

endloop
endfacet
facet normal 0.07670063525 0.9902355671 -0.1164065078
outer loop
vertex 28.19664764 62.31746674 242.1857452
vertex 28.29306793 62.29103851 242.0244598
vertex 28.06008148 62.31674957 242.0896606

endloop
endfacet
facet normal 0.07699039578 0.9903299809 -0.1154083163
outer loop
vertex 28.06008148 62.31674957 242.0896606
vertex 28.29306793 62.29103851 242.0244598
vertex 28.13974762 62.29398346 241.9474487

endloop
endfacet
facet normal 0.02142673917 0.989007473 -0.1463049948
outer loop
vertex 28.06008148 62.31674957 242.0896759
vertex 28.13976288 62.29398346 241.9474487
vertex 27.92221832 62.30434418 241.9856262

endloop
endfacet
facet normal 0.0167297516 0.98495996 -0.1719711125
outer loop
vertex 27.92221832 62.30434418 241.9856262
vertex 28.13976288 62.29398346 241.9474487
vertex 27.98363495 62.28237152 241.8657532

endloop
endfacet
facet normal -0.5592790842 0.7160028219 -0.4177879691
outer loop
vertex 27.92221832 62.30434418 241.9856262
vertex 27.98363495 62.28237152 241.8657532
vertex 27.75980377 62.1019516 241.8561859

endloop
endfacet
facet normal -0.02365070954 -0.02365070954 0.9994405508
outer loop
vertex 27.75980377 62.1019516 241.8561859
vertex 27.98363495 62.28237152 241.8657532
vertex 27.75978851 62.10196686 241.8561859

endloop
endfacet
facet normal 0.9993008375 -0.02643869817 0.02643869817
outer loop
vertex 30.79759979 61.08127594 243.6936798
vertex 30.79759979 61.08126068 243.6936646
vertex 30.80744171 61.32030487 243.5607147

endloop
endfacet
facet normal 0.9712937474 0.08382742107 0.2226242274
outer loop
vertex 30.80744171 61.32030487 243.5607147
vertex 30.79759979 61.08126068 243.6936646
vertex 30.83542633 61.24498749 243.46698

endloop
endfacet
facet normal 0.7350882888 0.6185530424 -0.2775558829
outer loop
vertex 30.80744171 61.32030487 243.5607147
vertex 30.83542633 61.24498749 243.46698
vertex 30.69525909 61.41338348 243.4710388

endloop
endfacet
facet normal 0.7409088612 0.6227679253 -0.251424402
outer loop
vertex 30.69525909 61.41338348 243.4710388
vertex 30.83542633 61.24498749 243.46698
vertex 30.72827911 61.32694244 243.3542328

endloop
endfacet
facet normal 0.700219214 0.6540914178 -0.2861075401
outer loop
vertex 30.69525909 61.41338348 243.4710388
vertex 30.72827911 61.32694244 243.3542328
vertex 30.57440948 61.50266266 243.3793793

endloop
endfacet
facet normal 0.6938966513 0.6514997482 -0.3066846728
outer loop
vertex 30.57440948 61.50266266 243.3793793
vertex 30.72827911 61.32694244 243.3542328
vertex 30.6062088 61.40470123 243.2432251

endloop
endfacet
facet normal 0.5616983771 0.7281856537 -0.3927348256
outer loop
vertex 30.57440948 61.50266266 243.3793793
vertex 30.6062088 61.40470123 243.2432251
vertex 30.41584015 61.57590485 243.2883911

endloop
endfacet
facet normal 0.5584321022 0.7265583873 -0.4003331065
outer loop
vertex 30.41584015 61.57590485 243.2883911
vertex 30.6062088 61.40470123 243.2432251
vertex 30.44464874 61.47563934 243.1466064

endloop
endfacet
facet normal 0.5217109323 0.7429299355 -0.4193717539
outer loop
vertex 30.41584015 61.57590485 243.2883911
vertex 30.44464874 61.47563934 243.1466064
vertex 30.24817657 61.64386749 243.2002106

endloop
endfacet
facet normal 0.5221287012 0.7431357503 -0.4184862673
outer loop
vertex 30.24817657 61.64386749 243.2002106
vertex 30.44464874 61.47563934 243.1466064
vertex 30.27750397 61.54335785 243.0583191

endloop
endfacet
facet normal 0.5169564486 0.7452848554 -0.4210776687
outer loop
vertex 30.24817657 61.64386749 243.2002106
vertex 30.27750397 61.54335785 243.0583191
vertex 30.08194733 61.70969391 243.1126404

endloop
endfacet
facet normal 0.5183642507 0.7459732294 -0.4181175232
outer loop
vertex 30.08194733 61.70969391 243.1126404
vertex 30.27750397 61.54335785 243.0583191
vertex 30.11318207 61.60895538 242.9716339

endloop
endfacet
facet normal 0.5144697428 0.7475501895 -0.4201067686
outer loop
vertex 30.08194733 61.70969391 243.1126404
vertex 30.11318207 61.60895538 242.9716339
vertex 29.91690826 61.77344513 243.0239716

endloop
endfacet
facet normal 0.5166599154 0.7486671209 -0.4154035151
outer loop
vertex 29.91690826 61.77344513 243.0239716
vertex 30.11318207 61.60895538 242.9716339
vertex 29.95087433 61.67240143 242.8841095

endloop
endfacet
facet normal 0.5122045279 0.7504017353 -0.4177843034
outer loop
vertex 29.91690826 61.77342987 243.0239716
vertex 29.95087433 61.67238617 242.8841248
vertex 29.75302887 61.83493805 242.9335327

endloop
endfacet
facet normal 0.5142758489 0.7515268922 -0.4131920934
outer loop
vertex 29.75302887 61.83493805 242.9335327
vertex 29.95087433 61.67238617 242.8841248
vertex 29.78984833 61.73355865 242.7949677

endloop
endfacet
facet normal 0.5095134377 0.7533392906 -0.4157834947
outer loop
vertex 29.75302887 61.83493805 242.9335327
vertex 29.78984833 61.73355865 242.7949677
vertex 29.59020233 61.89409637 242.8411865

endloop
endfacet
facet normal 0.5113976598 0.7544370294 -0.4114573896
outer loop
vertex 29.59020233 61.89409637 242.8411865
vertex 29.78984833 61.73355865 242.7949677
vertex 29.6297226 61.79242706 242.7038879

endloop
endfacet
facet normal 0.5072900653 0.7559346557 -0.4137868285
outer loop
vertex 29.59021759 61.89412689 242.841217
vertex 29.62973785 61.79244232 242.7039032
vertex 29.42824554 61.9511795 242.7468719

endloop
endfacet
facet normal 0.5090160966 0.7570128441 -0.4096756577
outer loop
vertex 29.42824554 61.9511795 242.7468719
vertex 29.62973785 61.79244232 242.7039032
vertex 29.47042084 61.84922028 242.6108704

endloop
endfacet
facet normal 0.5049841404 0.7584489584 -0.4120026529
outer loop
vertex 29.42824554 61.9511795 242.7468719
vertex 29.47042084 61.84922028 242.6108704
vertex 29.26692963 62.00623322 242.6504974

endloop
endfacet
facet normal 0.5067608953 0.7596408129 -0.4076016545
outer loop
vertex 29.26692963 62.00623322 242.6504974
vertex 29.47042084 61.84922028 242.6108704
vertex 29.31183624 61.90402985 242.5158539

endloop
endfacet
facet normal 0.5028703809 0.76098001 -0.4099157453
outer loop
vertex 29.26692963 62.00623322 242.6504974
vertex 29.31183624 61.90402985 242.5158539
vertex 29.1059494 62.05944061 242.5517883

endloop
endfacet
facet normal 0.5043236017 0.7620351911 -0.4061528146
outer loop
vertex 29.1059494 62.05944061 242.5517883
vertex 29.31183624 61.90402985 242.5158539
vertex 29.15357208 61.95691681 242.4185638

endloop
endfacet
facet normal 0.5009619594 0.7631508708 -0.408213079
outer loop
vertex 29.1059494 62.05944061 242.5517883
vertex 29.15357208 61.95691681 242.4185638
vertex 28.94480133 62.11093903 242.4503021

endloop
endfacet
facet normal 0.502374053 0.7642714977 -0.4043629169
outer loop
vertex 28.94480133 62.11093903 242.4503021
vertex 29.15357208 61.95691681 242.4185638
vertex 28.9952774 62.00806427 242.318573

endloop
endfacet
facet normal 0.4984371662 0.765542686 -0.4068226814
outer loop
vertex 28.94483185 62.11095428 242.4503174
vertex 28.99530792 62.00809479 242.3186035
vertex 28.78327179 62.16059113 242.3457794

endloop
endfacet
facet normal 0.4997173548 0.7666637301 -0.4031243622
outer loop
vertex 28.78327179 62.16059113 242.3457794
vertex 28.99530792 62.00809479 242.3186035
vertex 28.8365097 62.05741119 242.2155457

endloop
endfacet
facet normal 0.4964852035 0.7676531672 -0.4052295089
outer loop
vertex 28.78327179 62.16059113 242.3457794
vertex 28.8365097 62.05741119 242.2155457
vertex 28.62100983 62.2087326 242.2381744

endloop
endfacet
facet normal 0.4972552955 0.7683967948 -0.4028691947
outer loop
vertex 28.62100983 62.2087326 242.2381744
vertex 28.8365097 62.05741119 242.2155457
vertex 28.67617035 62.10533905 242.1090546

endloop
endfacet
facet normal 0.4914304018 0.7701090574 -0.4067286551
outer loop
vertex 28.62100983 62.2087326 242.2381744
vertex 28.67617035 62.10533905 242.1090546
vertex 28.45668793 62.25545502 242.1280975

endloop
endfacet
facet normal 0.4916686118 0.7703603506 -0.4059641659
outer loop
vertex 28.45668793 62.25545502 242.1280975
vertex 28.67617035 62.10533905 242.1090546
vertex 28.51232147 62.15229034 241.9997101

endloop
endfacet
facet normal 0.4458214045 0.7821477056 -0.435302496
outer loop
vertex 28.45668793 62.25545502 242.1280975
vertex 28.51232147 62.15229034 241.9997101
vertex 28.29306793 62.29103851 242.0244598

endloop
endfacet
facet normal 0.4451310337 0.7814161777 -0.4373180568
outer loop
vertex 28.29306793 62.29103851 242.0244598
vertex 28.51232147 62.15229034 241.9997101
vertex 28.34438324 62.19190216 241.8995514

endloop
endfacet
facet normal 0.2787382305 0.8047097325 -0.524163425
outer loop
vertex 28.29306793 62.29103851 242.0244598
vertex 28.34438324 62.19190216 241.8995514
vertex 28.13974762 62.29398346 241.9474487

endloop
endfacet
facet normal 0.2802760005 0.8062745333 -0.5209286809
outer loop
vertex 28.13974762 62.29398346 241.9474487
vertex 28.34438324 62.19190216 241.8995514
vertex 28.17972565 62.20864105 241.8368683

endloop
endfacet
facet normal 0.2241306305 0.8090473413 -0.5433301926
outer loop
vertex 28.13976288 62.29398346 241.9474487
vertex 28.17974091 62.20865631 241.8368835
vertex 27.98363495 62.28237152 241.8657532

endloop
endfacet
facet normal 0.2141324878 0.7930199504 -0.5703215003
outer loop
vertex 27.98363495 62.28237152 241.8657532
vertex 28.17974091 62.20865631 241.8368835
vertex 28.01061249 62.208992 241.7738495

endloop
endfacet
facet normal -0.470386833 0.6171096563 -0.630802691
outer loop
vertex 27.98363495 62.28237152 241.8657532
vertex 28.01061249 62.208992 241.7738495
vertex 27.75978851 62.10196686 241.8561859

endloop
endfacet
facet normal -0.4709478617 0.6237820387 -0.6237820387
outer loop
vertex 27.75978851 62.10196686 241.8561859
vertex 28.01061249 62.208992 241.7738495
vertex 27.75978851 62.1019516 241.8561707

endloop
endfacet
facet normal -nan(ind) -nan(ind) -nan(ind)
outer loop
vertex 30.79759979 61.08126068 243.6936646
vertex 30.79759979 61.08126068 243.6936646
vertex 30.83542633 61.24498749 243.46698

endloop
endfacet
facet normal 0.9909126163 -0.08751814812 0.1021407321
outer loop
vertex 30.83542633 61.24498749 243.46698
vertex 30.79759979 61.08126068 243.6936646
vertex 30.83229828 61.14871979 243.4148407

endloop
endfacet
facet normal 0.7885816693 0.2728473246 -0.551083684
outer loop
vertex 30.83542633 61.24498749 243.46698
vertex 30.83229828 61.14871979 243.4148407
vertex 30.72827911 61.32694244 243.3542328

endloop
endfacet
facet normal 0.8027727008 0.2916734815 -0.5200793147
outer loop
vertex 30.72827911 61.32694244 243.3542328
vertex 30.83229828 61.14871979 243.4148407
vertex 30.72498322 61.21390533 243.2857513

endloop
endfacet
facet normal 0.7415744066 0.3316679895 -0.5831498504
outer loop
vertex 30.72827911 61.32694244 243.3542328
vertex 30.72498322 61.21390533 243.2857513
vertex 30.6062088 61.40470123 243.2432251

endloop
endfacet
facet normal 0.7331755161 0.3230370283 -0.5984151959
outer loop
vertex 30.6062088 61.40470123 243.2432251
vertex 30.72498322 61.21390533 243.2857513
vertex 30.59726715 61.27651215 243.1630707

endloop
endfacet
facet normal 0.5931499004 0.3966864944 -0.7005804777
outer loop
vertex 30.6062088 61.40470123 243.2432251
vertex 30.59726715 61.27651215 243.1630707
vertex 30.44464874 61.47563934 243.1466064

endloop
endfacet
facet normal 0.5889222026 0.3929804862 -0.7062132359
outer loop
vertex 30.44464874 61.47563934 243.1466064
vertex 30.59726715 61.27651215 243.1630707
vertex 30.43202972 61.34433746 243.0630188

endloop
endfacet
facet normal 0.5503194332 0.4101110697 -0.7272946239
outer loop
vertex 30.44464874 61.47563934 243.1466064
vertex 30.43202972 61.34433746 243.0630188
vertex 30.27750397 61.54335785 243.0583191

endloop
endfacet
facet normal 0.550811708 0.4105073512 -0.7266981006
outer loop
vertex 30.27750397 61.54335785 243.0583191
vertex 30.43202972 61.34433746 243.0630188
vertex 30.26520538 61.41178131 242.9746704

endloop
endfacet
facet normal 0.5483281016 0.4115558565 -0.727982223
outer loop
vertex 30.27750397 61.54335785 243.0583191
vertex 30.26520538 61.41178131 242.9746704
vertex 30.11318207 61.60895538 242.9716339

endloop
endfacet
facet normal 0.5503283143 0.4131351113 -0.7255743742
outer loop
vertex 30.11318207 61.60895538 242.9716339
vertex 30.26520538 61.41178131 242.9746704
vertex 30.10256195 61.47710419 242.888504

endloop
endfacet
facet normal 0.5520119071 0.4124415815 -0.7246894836
outer loop
vertex 30.11318207 61.60895538 242.9716339
vertex 30.10256195 61.47710419 242.888504
vertex 29.95087433 61.67240143 242.8841095

endloop
endfacet
facet normal 0.5547780991 0.4146663547 -0.7212995887
outer loop
vertex 29.95087433 61.67240143 242.8841095
vertex 30.10256195 61.47710419 242.888504
vertex 29.94260406 61.54013824 242.801712

endloop
endfacet
facet normal 0.556245327 0.41422382 -0.7204233408
outer loop
vertex 29.95087433 61.67238617 242.8841248
vertex 29.94261932 61.54013824 242.801712
vertex 29.78984833 61.73355865 242.7949677

endloop
endfacet
facet normal 0.5589054227 0.4164414704 -0.7170782685
outer loop
vertex 29.78984833 61.73355865 242.7949677
vertex 29.94261932 61.54013824 242.801712
vertex 29.78406525 61.60088348 242.7134094

endloop
endfacet
facet normal 0.5603243113 0.4158939421 -0.7162882686
outer loop
vertex 29.78984833 61.73355865 242.7949677
vertex 29.78406525 61.60088348 242.7134094
vertex 29.6297226 61.79242706 242.7038879

endloop
endfacet
facet normal 0.5628312826 0.4180751741 -0.7130457163
outer loop
vertex 29.6297226 61.79242706 242.7038879
vertex 29.78406525 61.60088348 242.7134094
vertex 29.62631989 61.6594162 242.6232147

endloop
endfacet
facet normal 0.564566493 0.4174759984 -0.7120241523
outer loop
vertex 29.62973785 61.79244232 242.7039032
vertex 29.62631989 61.65944672 242.6232147
vertex 29.47042084 61.84922028 242.6108704

endloop
endfacet
facet normal 0.5668141246 0.4195169806 -0.7090325952
outer loop
vertex 29.47042084 61.84922028 242.6108704
vertex 29.62631989 61.65944672 242.6232147
vertex 29.46933746 61.71585846 242.5310974

endloop
endfacet
facet normal 0.5688434243 0.4187861681 -0.7078384161
outer loop
vertex 29.47042084 61.84922028 242.6108704
vertex 29.46933746 61.71585846 242.5310974
vertex 29.31183624 61.90402985 242.5158539

endloop
endfacet
facet normal 0.571080327 0.4209067822 -0.70477283
outer loop
vertex 29.31183624 61.90402985 242.5158539
vertex 29.46933746 61.71585846 242.5310974
vertex 29.31311798 61.77030182 242.437027

endloop
endfacet
facet normal 0.5729756355 0.4202490151 -0.7036260962
outer loop
vertex 29.31183624 61.90402985 242.5158539
vertex 29.31311798 61.77030182 242.437027
vertex 29.15357208 61.95691681 242.4185638

endloop
endfacet
facet normal 0.5752202272 0.4224823117 -0.7004501224
outer loop
vertex 29.15357208 61.95691681 242.4185638
vertex 29.31311798 61.77030182 242.437027
vertex 29.15727997 61.82282257 242.3407288

endloop
endfacet
facet normal 0.5777166486 0.421649158 -0.6988958716
outer loop
vertex 29.15357208 61.95691681 242.4185638
vertex 29.15727997 61.82282257 242.3407288
vertex 28.9952774 62.00806427 242.318573

endloop
endfacet
facet normal 0.5796893239 0.4237202108 -0.6960039139
outer loop
vertex 28.9952774 62.00806427 242.318573
vertex 29.15727997 61.82282257 242.3407288
vertex 29.00144196 61.87355804 242.2418213

endloop
endfacet
facet normal 0.5820629001 0.4229840338 -0.6944690347
outer loop
vertex 28.99530792 62.00809479 242.3186035
vertex 29.00147247 61.8735733 242.2418365
vertex 28.8365097 62.05741119 242.2155457

endloop
endfacet
facet normal 0.5838781595 0.4250084162 -0.6917037964
outer loop
vertex 28.8365097 62.05741119 242.2155457
vertex 29.00147247 61.8735733 242.2418365
vertex 28.8451004 61.92250824 242.1399078

endloop
endfacet
facet normal 0.5855567455 0.4244957268 -0.6905987859
outer loop
vertex 28.8365097 62.05741119 242.2155457
vertex 28.8451004 61.92250824 242.1399078
vertex 28.67617035 62.10533905 242.1090546

endloop
endfacet
facet normal 0.5867360234 0.4259006679 -0.6887302995
outer loop
vertex 28.67617035 62.10533905 242.1090546
vertex 28.8451004 61.92250824 242.1399078
vertex 28.68647003 61.97019196 242.034256

endloop
endfacet
facet normal 0.5834208727 0.4268719852 -0.6909416914
outer loop
vertex 28.67617035 62.10533905 242.1090546
vertex 28.68647003 61.97019196 242.034256
vertex 28.51232147 62.15229034 241.9997101

endloop
endfacet
facet normal 0.5836228728 0.4271275401 -0.690613091
outer loop
vertex 28.51232147 62.15229034 241.9997101
vertex 28.68647003 61.97019196 242.034256
vertex 28.52310944 62.01744843 241.9254303

endloop
endfacet
facet normal 0.534232378 0.44026649 -0.7216377854
outer loop
vertex 28.51232147 62.15229034 241.9997101
vertex 28.52310944 62.01744843 241.9254303
vertex 28.34438324 62.19190216 241.8995514

endloop
endfacet
facet normal 0.5333322883 0.4391442537 -0.7229862213
outer loop
vertex 28.34438324 62.19190216 241.8995514
vertex 28.52310944 62.01744843 241.9254303
vertex 28.35279083 62.06233978 241.8270569

endloop
endfacet
facet normal 0.3549563289 0.4739336073 -0.8058491945
outer loop
vertex 28.34438324 62.19190216 241.8995514
vertex 28.35279083 62.06233978 241.8270569
vertex 28.17972565 62.20864105 241.8368683

endloop
endfacet
facet normal 0.3563750088 0.4755075872 -0.8042943478
outer loop
vertex 28.17972565 62.20864105 241.8368683
vertex 28.35279083 62.06233978 241.8270569
vertex 28.18302155 62.09702301 241.7723389

endloop
endfacet
facet normal 0.3066170812 0.4831036627 -0.820119977
outer loop
vertex 28.17974091 62.20865631 241.8368835
vertex 28.18300629 62.09703827 241.7723541
vertex 28.01061249 62.208992 241.7738495

endloop
endfacet
facet normal 0.2860766947 0.4518065751 -0.8450034857
outer loop
vertex 28.01061249 62.208992 241.7738495
vertex 28.18300629 62.09703827 241.7723541
vertex 28.00695038 62.11516571 241.7224426

endloop
endfacet
facet normal -0.444702059 0.4436611533 -0.7780777216
outer loop
vertex 28.01061249 62.208992 241.7738495
vertex 28.00695038 62.11516571 241.7224426
vertex 27.75978851 62.1019516 241.8561707

endloop
endfacet
facet normal -0.3875972033 0.6517106891 -0.6519521475
outer loop
vertex 27.75978851 62.1019516 241.8561707
vertex 28.00695038 62.11516571 241.7224426
vertex 27.75978851 62.10193634 241.8561554

endloop
endfacet
facet normal -0.7394864559 0.6695262194 0.0699602291
outer loop
vertex 30.79758453 61.08124542 243.6936493
vertex 30.79759979 61.08126068 243.6936646
vertex 30.83228302 61.14870453 243.4148254

endloop
endfacet
facet normal 0.9516430497 -0.3039127588 0.04486101493
outer loop
vertex 30.83228302 61.14870453 243.4148254
vertex 30.79759979 61.08126068 243.6936646
vertex 30.79457855 61.02983856 243.4093933

endloop
endfacet
facet normal 0.7046685219 -0.1923101097 -0.6829781532
outer loop
vertex 30.83228302 61.14870453 243.4148254
vertex 30.79457855 61.02983856 243.4093933
vertex 30.7249527 61.21387482 243.2857361

endloop
endfacet
facet normal 0.7212677598 -0.1770689189 -0.6696411967
outer loop
vertex 30.7249527 61.21387482 243.2857361
vertex 30.79457855 61.02983856 243.4093933
vertex 30.6782608 61.06771088 243.2740936

endloop
endfacet
facet normal 0.6468220949 -0.1470190287 -0.7483358383
outer loop
vertex 30.7249527 61.21387482 243.2857361
vertex 30.6782608 61.06771088 243.2740936
vertex 30.59725189 61.27649689 243.1630554

endloop
endfacet
facet normal 0.6344983578 -0.1563765556 -0.7569400072
outer loop
vertex 30.59725189 61.27649689 243.1630554
vertex 30.6782608 61.06771088 243.2740936
vertex 30.5394516 61.11058807 243.14888

endloop
endfacet
facet normal 0.4866624475 -0.09535188228 -0.8683707714
outer loop
vertex 30.59725189 61.27649689 243.1630554
vertex 30.5394516 61.11058807 243.14888
vertex 30.43201447 61.3443222 243.0630035

endloop
endfacet
facet normal 0.4805974662 -0.09921966493 -0.8713102341
outer loop
vertex 30.43201447 61.3443222 243.0630035
vertex 30.5394516 61.11058807 243.14888
vertex 30.36971283 61.17440033 243.0479889

endloop
endfacet
facet normal 0.4402855933 -0.08242861181 -0.8940660954
outer loop
vertex 30.43201447 61.3443222 243.0630035
vertex 30.36971283 61.17440033 243.0479889
vertex 30.26520538 61.41176605 242.9746399

endloop
endfacet
facet normal 0.4410221577 -0.08200418204 -0.8937420249
outer loop
vertex 30.26520538 61.41176605 242.9746399
vertex 30.36971283 61.17440033 243.0479889
vertex 30.20304108 61.24141693 242.9595947

endloop
endfacet
facet normal 0.4406143725 -0.0818362385 -0.893958509
outer loop
vertex 30.26520538 61.41176605 242.9746399
vertex 30.20304108 61.24141693 242.9595947
vertex 30.10254669 61.47708893 242.8884888

endloop
endfacet
facet normal 0.4441306293 -0.07986524701 -0.8923953772
outer loop
vertex 30.10254669 61.47708893 242.8884888
vertex 30.20304108 61.24141693 242.9595947
vertex 30.04177094 61.3063736 242.8735199

endloop
endfacet
facet normal 0.4500895739 -0.08226809651 -0.8891857266
outer loop
vertex 30.10254669 61.47708893 242.8884888
vertex 30.04177094 61.3063736 242.8735199
vertex 29.94260406 61.54012299 242.8016968

endloop
endfacet
facet normal 0.4541336894 -0.07998407632 -0.8873360157
outer loop
vertex 29.94260406 61.54012299 242.8016968
vertex 30.04177094 61.3063736 242.8735199
vertex 29.88379669 61.36890411 242.7870331

endloop
endfacet
facet normal 0.4605472982 -0.08240348101 -0.8838018775
outer loop
vertex 29.94260406 61.54012299 242.8016968
vertex 29.88379669 61.36888885 242.7870178
vertex 29.78404999 61.60088348 242.7134094

endloop
endfacet
facet normal 0.4649324417 -0.07986284792 -0.8817367554
outer loop
vertex 29.78404999 61.60088348 242.7134094
vertex 29.88379669 61.36888885 242.7870178
vertex 29.72734833 61.42914581 242.6990662

endloop
endfacet
facet normal 0.4715706706 -0.08236891031 -0.8779729605
outer loop
vertex 29.78404999 61.60088348 242.7134094
vertex 29.72734833 61.42914581 242.6990662
vertex 29.62628937 61.65940094 242.6231842

endloop
endfacet
facet normal 0.4753458202 -0.08010938764 -0.8761443496
outer loop
vertex 29.62628937 61.65940094 242.6231842
vertex 29.72734833 61.42914581 242.6990662
vertex 29.57157135 61.48725128 242.6092377

endloop
endfacet
facet normal 0.4822249711 -0.08248442411 -0.8721556067
outer loop
vertex 29.62630463 61.65943146 242.6232147
vertex 29.57160187 61.48725128 242.6092529
vertex 29.4693222 61.7158432 242.5310822

endloop
endfacet
facet normal 0.4859364927 -0.08019179106 -0.8703075051
outer loop
vertex 29.4693222 61.7158432 242.5310822
vertex 29.57160187 61.48725128 242.6092529
vertex 29.41657257 61.54325104 242.5175323

endloop
endfacet
facet normal 0.4928671718 -0.08263472468 -0.8661717176
outer loop
vertex 29.4693222 61.7158432 242.5310822
vertex 29.41657257 61.54325104 242.5175323
vertex 29.31310272 61.77028656 242.4369965

endloop
endfacet
facet normal 0.4963885546 -0.08039080352 -0.8643701077
outer loop
vertex 29.31310272 61.77028656 242.4369965
vertex 29.41657257 61.54325104 242.5175323
vertex 29.26230621 61.59723663 242.4239197

endloop
endfacet
facet normal 0.5034582615 -0.08279296756 -0.8600435853
outer loop
vertex 29.31310272 61.77028656 242.4369965
vertex 29.26230621 61.59723663 242.4239197
vertex 29.15726471 61.82282257 242.3407135

endloop
endfacet
facet normal 0.5069202781 -0.08051007986 -0.8582249284
outer loop
vertex 29.15726471 61.82282257 242.3407135
vertex 29.26230621 61.59723663 242.4239197
vertex 29.10845184 61.6493454 242.3281555

endloop
endfacet
facet normal 0.5146172047 -0.08302573115 -0.8533908725
outer loop
vertex 29.15726471 61.82282257 242.3407135
vertex 29.10845184 61.6493454 242.3281555
vertex 29.0014267 61.87352753 242.241806

endloop
endfacet
facet normal 0.5180709958 -0.08065858483 -0.8515260816
outer loop
vertex 29.0014267 61.87352753 242.241806
vertex 29.10845184 61.6493454 242.3281555
vertex 28.95470428 61.69956207 242.2298584

endloop
endfacet
facet normal 0.5257840753 -0.08307172358 -0.8465519547
outer loop
vertex 29.00144196 61.87355804 242.2418213
vertex 28.95471954 61.69959259 242.2298737
vertex 28.84508514 61.92249298 242.1399078

endloop
endfacet
facet normal 0.5290054083 -0.080766581 -0.8447662592
outer loop
vertex 28.84508514 61.92249298 242.1399078
vertex 28.95471954 61.69959259 242.2298737
vertex 28.80039215 61.74802399 242.1286011

endloop
endfacet
facet normal 0.5351772904 -0.08261173218 -0.8406906128
outer loop
vertex 28.84508514 61.92249298 242.1399078
vertex 28.80039215 61.74802399 242.1286011
vertex 28.68645477 61.97016144 242.0342407

endloop
endfacet
facet normal 0.5371300578 -0.08114163578 -0.8395876884
outer loop
vertex 28.68645477 61.97016144 242.0342407
vertex 28.80039215 61.74802399 242.1286011
vertex 28.64321136 61.79537201 242.023468

endloop
endfacet
facet normal 0.5363097787 -0.08090501279 -0.8401345611
outer loop
vertex 28.68645477 61.97016144 242.0342407
vertex 28.64321136 61.79537201 242.023468
vertex 28.52310944 62.01743317 241.925415

endloop
endfacet
facet normal 0.5370243192 -0.08034086227 -0.8397321701
outer loop
vertex 28.52310944 62.01743317 241.925415
vertex 28.64321136 61.79537201 242.023468
vertex 28.48049164 61.84308624 241.9148407

endloop
endfacet
facet normal 0.4859752953 -0.06593666226 -0.871481657
outer loop
vertex 28.52310944 62.01743317 241.925415
vertex 28.48049164 61.84308624 241.9148407
vertex 28.35279083 62.06232452 241.8270416

endloop
endfacet
facet normal 0.4839985669 -0.06748110801 -0.8724629879
outer loop
vertex 28.35279083 62.06232452 241.8270416
vertex 28.48049164 61.84308624 241.9148407
vertex 28.31003571 61.8947525 241.8162842

endloop
endfacet
facet normal 0.3036052287 -0.01630647853 -0.9526583552
outer loop
vertex 28.35279083 62.06232452 241.8270416
vertex 28.31003571 61.8947525 241.8162842
vertex 28.18300629 62.09700775 241.7723389

endloop
endfacet
facet normal 0.3030680716 -0.01667962782 -0.9528229237
outer loop
vertex 28.18300629 62.09700775 241.7723389
vertex 28.31003571 61.8947525 241.8162842
vertex 28.14253998 61.95272064 241.7619934

endloop
endfacet
facet normal 0.2720151544 -0.007394629531 -0.9622645378
outer loop
vertex 28.18300629 62.09702301 241.7723389
vertex 28.14253998 61.95272064 241.7620087
vertex 28.00693512 62.11515045 241.7224274

endloop
endfacet
facet normal 0.2458783239 -0.03081022389 -0.9688109159
outer loop
vertex 28.00693512 62.11515045 241.7224274
vertex 28.14253998 61.95272064 241.7620087
vertex 27.96920013 61.99921417 241.7165375

endloop
endfacet
facet normal -0.4746105671 0.1980462819 -0.8576260209
outer loop
vertex 28.00693512 62.11515045 241.7224274
vertex 27.96920013 61.99921417 241.7165375
vertex 27.75977325 62.10193634 241.8561554

endloop
endfacet
facet normal 0.07862147689 -0.7430704236 0.664578855
outer loop
vertex 27.75977325 62.10193634 241.8561554
vertex 27.96920013 61.99921417 241.7165375
vertex 27.75978851 62.1019516 241.8561707

endloop
endfacet
facet normal -0.1770216972 -0.9681563377 0.1770216972
outer loop
vertex 30.79761505 61.08126068 243.6936798
vertex 30.79759979 61.08126068 243.6936646
vertex 30.79456329 61.02983856 243.4093933

endloop
endfacet
facet normal 0.8343297839 -0.5439543724 0.08948441595
outer loop
vertex 30.79456329 61.02983856 243.4093933
vertex 30.79759979 61.08126068 243.6936646
vertex 30.67534637 60.86489105 243.5182648

endloop
endfacet
facet normal 0.4385259151 -0.693910718 -0.5711243153
outer loop
vertex 30.79456329 61.02983856 243.4093933
vertex 30.67534637 60.86489105 243.5182648
vertex 30.6782608 61.06771088 243.2740784

endloop
endfacet
facet normal 0.4493685663 -0.6898413897 -0.5676149726
outer loop
vertex 30.6782608 61.06771088 243.2740784
vertex 30.67534637 60.86489105 243.5182648
vertex 30.52597809 60.85619354 243.4105835

endloop
endfacet
facet normal 0.3671087921 -0.6763886213 -0.6385370493
outer loop
vertex 30.6782608 61.06771088 243.2740784
vertex 30.52597809 60.85619354 243.4105835
vertex 30.53946686 61.11057281 243.14888

endloop
endfacet
facet normal 0.3519160748 -0.6802008152 -0.6430256963
outer loop
vertex 30.53946686 61.11057281 243.14888
vertex 30.52597809 60.85619354 243.4105835
vertex 30.36354828 60.87023163 243.306839

endloop
endfacet
facet normal 0.202549696 -0.6370564699 -0.7437288761
outer loop
vertex 30.53946686 61.11057281 243.14888
vertex 30.36354828 60.87023163 243.306839
vertex 30.36971283 61.17438507 243.0479889

endloop
endfacet
facet normal 0.1923714876 -0.6382659078 -0.7453923821
outer loop
vertex 30.36971283 61.17438507 243.0479889
vertex 30.36354828 60.87023163 243.306839
vertex 30.18770599 60.92810822 243.2118988

endloop
endfacet
facet normal 0.1550515443 -0.6242110133 -0.7657151222
outer loop
vertex 30.36971283 61.17438507 243.0479889
vertex 30.18770599 60.92810822 243.2118988
vertex 30.20304108 61.24141693 242.9595947

endloop
endfacet
facet normal 0.1565670222 -0.6241059303 -0.7654924393
outer loop
vertex 30.20304108 61.24141693 242.9595947
vertex 30.18770599 60.92810822 243.2118988
vertex 30.02072906 60.99454498 243.1235809

endloop
endfacet
facet normal 0.1569594294 -0.6242592335 -0.7652869821
outer loop
vertex 30.20304108 61.24141693 242.9595947
vertex 30.02072906 60.99454498 243.1235809
vertex 30.04178619 61.3063736 242.8735352

endloop
endfacet
facet normal 0.1627131701 -0.6239113212 -0.7643685341
outer loop
vertex 30.04178619 61.3063736 242.8735352
vertex 30.02072906 60.99454498 243.1235809
vertex 29.85987091 61.0590744 243.0366669

endloop
endfacet
facet normal 0.1688978225 -0.6262886524 -0.7610756755
outer loop
vertex 30.04178619 61.3063736 242.8735352
vertex 29.85987091 61.0590744 243.0366669
vertex 29.88379669 61.36890411 242.7870178

endloop
endfacet
facet normal 0.1769296974 -0.6257767081 -0.7596705556
outer loop
vertex 29.88379669 61.36890411 242.7870178
vertex 29.85987091 61.0590744 243.0366669
vertex 29.70256805 61.12088776 242.9491119

endloop
endfacet
facet normal 0.1831300855 -0.6281480789 -0.7562363148
outer loop
vertex 29.88379669 61.36888885 242.7870178
vertex 29.70256805 61.12088776 242.9491272
vertex 29.72734833 61.42914581 242.6990814

endloop
endfacet
facet normal 0.1912339479 -0.627564311 -0.7547135353
outer loop
vertex 29.72734833 61.42914581 242.6990814
vertex 29.70256805 61.12088776 242.9491272
vertex 29.54686737 61.18044281 242.8601532

endloop
endfacet
facet normal 0.1981171072 -0.6300577521 -0.7508507967
outer loop
vertex 29.72734833 61.42914581 242.6990814
vertex 29.54686737 61.18044281 242.8601532
vertex 29.57158661 61.48723602 242.6092377

endloop
endfacet
facet normal 0.2052847445 -0.6294655204 -0.7494205832
outer loop
vertex 29.57158661 61.48723602 242.6092377
vertex 29.54686737 61.18044281 242.8601532
vertex 29.39185333 61.23790741 242.7694244

endloop
endfacet
facet normal 0.2126007825 -0.6320414543 -0.7452010512
outer loop
vertex 29.57160187 61.48725128 242.6092682
vertex 29.39185333 61.23792267 242.769455
vertex 29.41658783 61.54325104 242.5175476

endloop
endfacet
facet normal 0.2197905928 -0.6313707232 -0.7436821461
outer loop
vertex 29.41658783 61.54325104 242.5175476
vertex 29.39185333 61.23792267 242.769455
vertex 29.23761749 61.29332733 242.6768341

endloop
endfacet
facet normal 0.2269782573 -0.6338111162 -0.7394351959
outer loop
vertex 29.41658783 61.54325104 242.5175476
vertex 29.23761749 61.29332733 242.6768341
vertex 29.26232147 61.59723663 242.4239197

endloop
endfacet
facet normal 0.2339904904 -0.6330811381 -0.737873137
outer loop
vertex 29.26232147 61.59723663 242.4239197
vertex 29.23761749 61.29332733 242.6768341
vertex 29.08409882 61.34677887 242.5822906

endloop
endfacet
facet normal 0.2412927151 -0.6354786158 -0.7334470749
outer loop
vertex 29.26232147 61.59723663 242.4239197
vertex 29.08409882 61.34677887 242.5822906
vertex 29.1084671 61.6493454 242.3281555

endloop
endfacet
facet normal 0.2482181787 -0.6346769333 -0.7318285108
outer loop
vertex 29.1084671 61.6493454 242.3281555
vertex 29.08409882 61.34677887 242.5822906
vertex 28.93094635 61.3983078 242.4856567

endloop
endfacet
facet normal 0.2564178407 -0.6372742057 -0.7267264724
outer loop
vertex 29.1084671 61.6493454 242.3281555
vertex 28.93094635 61.3983078 242.4856567
vertex 28.95471954 61.69957733 242.2298584

endloop
endfacet
facet normal 0.2625973821 -0.6364789009 -0.725215435
outer loop
vertex 28.95471954 61.69957733 242.2298584
vertex 28.93094635 61.3983078 242.4856567
vertex 28.77787018 61.44788361 242.3867188

endloop
endfacet
facet normal 0.2714757025 -0.6392009258 -0.7195299268
outer loop
vertex 28.9547348 61.69959259 242.2298737
vertex 28.7779007 61.44789886 242.3867493
vertex 28.80039215 61.74802399 242.1286163

endloop
endfacet
facet normal 0.2776218653 -0.6383174658 -0.7179672122
outer loop
vertex 28.80039215 61.74802399 242.1286163
vertex 28.7779007 61.44789886 242.3867493
vertex 28.62425995 61.49568939 242.2848511

endloop
endfacet
facet normal 0.2844084799 -0.6403053999 -0.7135270834
outer loop
vertex 28.80039215 61.74802399 242.1286163
vertex 28.62425995 61.49568939 242.2848511
vertex 28.64322662 61.79538727 242.023468

endloop
endfacet
facet normal 0.2887012661 -0.639613688 -0.7124225497
outer loop
vertex 28.64322662 61.79538727 242.023468
vertex 28.62425995 61.49568939 242.2848511
vertex 28.46770477 61.54253387 242.1793518

endloop
endfacet
facet normal 0.2882460058 -0.6394833922 -0.7127237916
outer loop
vertex 28.64322662 61.79538727 242.023468
vertex 28.46770477 61.54253387 242.1793518
vertex 28.48049164 61.84308624 241.914856

endloop
endfacet
facet normal 0.2894838452 -0.6392660737 -0.7124170065
outer loop
vertex 28.48049164 61.84308624 241.914856
vertex 28.46770477 61.54253387 242.1793518
vertex 28.3057785 61.5908432 242.0702057

endloop
endfacet
facet normal 0.2405291498 -0.6243243217 -0.7432125807
outer loop
vertex 28.48049164 61.84308624 241.914856
vertex 28.3057785 61.5908432 242.0702057
vertex 28.31002045 61.8947525 241.8162842

endloop
endfacet
facet normal 0.2356148809 -0.6250563264 -0.7441707253
outer loop
vertex 28.31002045 61.8947525 241.8162842
vertex 28.3057785 61.5908432 242.0702057
vertex 28.14109039 61.65235138 241.9664001

endloop
endfacet
facet normal 0.07287089527 -0.561316371 -0.8243868947
outer loop
vertex 28.31002045 61.8947525 241.8162842
vertex 28.14109039 61.65235138 241.9664001
vertex 28.14252472 61.95272064 241.7620087

endloop
endfacet
facet normal 0.06304744631 -0.561660707 -0.8249619603
outer loop
vertex 28.14252472 61.95272064 241.7620087
vertex 28.14109039 61.65235138 241.9664001
vertex 27.99477386 61.74408722 241.8927612

endloop
endfacet
facet normal 0.0652006343 -0.562658906 -0.824113965
outer loop
vertex 28.14253998 61.95272064 241.7620087
vertex 27.99477386 61.74408722 241.8927612
vertex 27.96921539 61.99921417 241.7165527

endloop
endfacet
facet normal 0.03495415673 -0.5655782223 -0.8239535689
outer loop
vertex 27.96921539 61.99921417 241.7165527
vertex 27.99477386 61.74408722 241.8927612
vertex 27.85126495 61.83834076 241.8219757

endloop
endfacet
facet normal -0.5850600004 -0.09855704755 -0.8049790859
outer loop
vertex 27.96921539 61.99921417 241.7165527
vertex 27.85126495 61.83834076 241.8219757
vertex 27.75978851 62.1019516 241.8561859

endloop
endfacet
facet normal 0.9447348118 0.3278354406 0
outer loop
vertex 27.75978851 62.1019516 241.8561859
vertex 27.85126495 61.83834076 241.8219757
vertex 27.75978851 62.1019516 241.8561707

endloop
endfacet
endsolid
