solid 
facet normal 0.676734 0 -0.736228
outer loop
vertex -90.07820129 20.73235321 262.5899963
vertex -90.07820129 20.73233795 262.5899963
vertex -90.95293427 19.96450043 261.7859497

endloop
endfacet
facet normal 0.7565784454 -0.6068441272 -0.2435760498
outer loop
vertex -90.95293427 19.96450043 261.7859497
vertex -90.07820129 20.73233795 262.5899963
vertex -90.9556427 19.71685028 262.3945312

endloop
endfacet
facet normal 0.3280323148 -0.8755030036 -0.3548086584
outer loop
vertex -90.95293427 19.96450043 261.7859497
vertex -90.9556427 19.71685028 262.3945312
vertex -92.55922699 19.43906403 261.5974121

endloop
endfacet
facet normal 0.3206709027 -0.8853809237 -0.3365571499
outer loop
vertex -92.55922699 19.43906403 261.5974121
vertex -90.9556427 19.71685028 262.3945312
vertex -92.54327393 19.21527863 262.2013245

endloop
endfacet
facet normal 0.3108735681 -0.8885247707 -0.3374632895
outer loop
vertex -92.55922699 19.43906403 261.5974121
vertex -92.54327393 19.21527863 262.2013245
vertex -94.0497818 18.94428253 261.5270386

endloop
endfacet
facet normal 0.3181906044 -0.8777801394 -0.3581295013
outer loop
vertex -94.0497818 18.94428253 261.5270386
vertex -92.54327393 19.21527863 262.2013245
vertex -93.98896027 18.72780609 262.1116638

endloop
endfacet
facet normal 0.3478996754 -0.8668321371 -0.3571664691
outer loop
vertex -94.0497818 18.94428253 261.5270386
vertex -93.98896027 18.72780609 262.1116638
vertex -95.41845703 18.40120697 261.5119019

endloop
endfacet
facet normal 0.350338459 -0.862413168 -0.3653855324
outer loop
vertex -95.41845703 18.40120697 261.5119019
vertex -93.98896027 18.72780609 262.1116638
vertex -95.32548523 18.18987274 262.0998535

endloop
endfacet
facet normal 0.4587159753 -0.8106449842 -0.3639154136
outer loop
vertex -95.41845703 18.40120697 261.5119019
vertex -95.32548523 18.18987274 262.0998535
vertex -96.59880829 17.74149323 261.4936218

endloop
endfacet
facet normal 0.4536901116 -0.8215441108 -0.3452978134
outer loop
vertex -96.59880829 17.74149323 261.4936218
vertex -95.32548523 18.18987274 262.0998535
vertex -96.50434875 17.54416656 262.0872192

endloop
endfacet
facet normal 0.5760437846 -0.7438383698 -0.3389367163
outer loop
vertex -96.59880829 17.74149323 261.4936218
vertex -96.50434875 17.54416656 262.0872192
vertex -97.66578674 16.9477005 261.4223022

endloop
endfacet
facet normal 0.5669317842 -0.7659375668 -0.3031962514
outer loop
vertex -97.66578674 16.9477005 261.4223022
vertex -96.50434875 17.54416656 262.0872192
vertex -97.59343719 16.76512909 262.0187988

endloop
endfacet
facet normal 0.6349503398 -0.7138088346 -0.2954911292
outer loop
vertex -97.66578674 16.9477005 261.4223022
vertex -97.59343719 16.76512909 262.0187988
vertex -98.7131424 16.06938934 261.293457

endloop
endfacet
facet normal 0.6245040298 -0.7377277613 -0.2564223409
outer loop
vertex -98.7131424 16.06938934 261.293457
vertex -97.59343719 16.76512909 262.0187988
vertex -98.67641449 15.90177155 261.8651428

endloop
endfacet
facet normal 0.6348065734 -0.7294900417 -0.2546859086
outer loop
vertex -98.71315002 16.06938934 261.293457
vertex -98.67640686 15.90177155 261.8651428
vertex -99.81070709 15.17066193 261.1319885

endloop
endfacet
facet normal 0.6256928444 -0.7476807833 -0.2224456072
outer loop
vertex -99.81070709 15.17066193 261.1319885
vertex -98.67640686 15.90177155 261.8651428
vertex -99.80651855 15.02681732 261.6272583

endloop
endfacet
facet normal 0.6762490869 -0.7058880329 -0.210735023
outer loop
vertex -99.81070709 15.17066193 261.1319885
vertex -99.80651855 15.02681732 261.6272583
vertex -100.8443832 14.24651337 260.9104919

endloop
endfacet
facet normal 0.6547275186 -0.7429277301 -0.1392491758
outer loop
vertex -100.8443832 14.24651337 260.9104919
vertex -99.80651855 15.02681732 261.6272583
vertex -100.885994 14.13500214 261.3097839

endloop
endfacet
facet normal 0.7885411978 -0.6086832881 -0.0877917856
outer loop
vertex -100.8443756 14.24652863 260.9104919
vertex -100.885994 14.1350174 261.3098145
vertex -101.6931686 13.20153046 260.5319214

endloop
endfacet
facet normal 0.7400410771 -0.671492517 0.03790618107
outer loop
vertex -101.6931686 13.20153046 260.5319214
vertex -100.885994 14.1350174 261.3098145
vertex -101.7921066 13.111763 260.873291

endloop
endfacet
facet normal 0.8252381682 -0.5571300387 0.09267157316
outer loop
vertex -101.6931686 13.20153046 260.5319214
vertex -101.7921066 13.111763 260.873291
vertex -102.4135666 12.04808807 260.0126953

endloop
endfacet
facet normal 0.7878787518 -0.5934440494 0.1645331234
outer loop
vertex -102.4135666 12.04808807 260.0126953
vertex -101.7921066 13.111763 260.873291
vertex -102.5424576 11.96802521 260.3411255

endloop
endfacet
facet normal 0.8387864828 -0.5038403273 0.2063547224
outer loop
vertex -102.4135666 12.04808807 260.0126953
vertex -102.5424576 11.96802521 260.3411255
vertex -103.0197067 10.83914948 259.5247498

endloop
endfacet
facet normal 0.8248064518 -0.5159517527 0.2312748879
outer loop
vertex -103.0197067 10.83914948 259.5247498
vertex -102.5424576 11.96802521 260.3411255
vertex -103.1513977 10.77231598 259.8453064

endloop
endfacet
facet normal 0.8932164907 -0.3380354047 0.2964732051
outer loop
vertex -103.0197067 10.83914948 259.5247498
vertex -103.1513977 10.77231598 259.8453064
vertex -103.3853149 9.547233582 259.1532288

endloop
endfacet
facet normal 0.8751231432 -0.3536713421 0.3302667141
outer loop
vertex -103.3853149 9.547233582 259.1532288
vertex -103.1513977 10.77231598 259.8453064
vertex -103.5223312 9.49030304 259.4553223

endloop
endfacet
facet normal 0.8999509811 -0.242141068 0.3625684977
outer loop
vertex -103.3853073 9.547264099 259.1532593
vertex -103.5223312 9.490333557 259.4553528
vertex -103.5801163 8.183769226 258.7261963

endloop
endfacet
facet normal 0.9397084713 -0.1974017173 0.2792500257
outer loop
vertex -103.5801163 8.183769226 258.7261963
vertex -103.5223312 9.490333557 259.4553528
vertex -103.6857376 8.105644226 259.0263977

endloop
endfacet
facet normal 0.9235877395 -0.2914286256 0.2491084635
outer loop
vertex -103.5801163 8.183769226 258.7261963
vertex -103.6857376 8.105644226 259.0263977
vertex -103.8626633 6.807487011 258.1636658

endloop
endfacet
facet normal 0.9791712165 -0.1866136491 0.0799940154
outer loop
vertex -103.8626633 6.807487011 258.1636658
vertex -103.6857376 8.105644226 259.0263977
vertex -103.9083023 6.698218822 258.4674072

endloop
endfacet
facet normal 0.9467639327 -0.3208068609 0.02684985474
outer loop
vertex -103.8626633 6.807487011 258.1636658
vertex -103.9083023 6.698218822 258.4674072
vertex -104.302269 5.459465027 257.5583801

endloop
endfacet
facet normal 0.9678063393 -0.2249686271 -0.1128707975
outer loop
vertex -104.302269 5.459465027 257.5583801
vertex -103.9083023 6.698218822 258.4674072
vertex -104.2967606 5.331626892 257.8604126

endloop
endfacet
facet normal 0.9427779317 -0.3005315363 -0.1443970948
outer loop
vertex -104.302269 5.459465027 257.5583801
vertex -104.2967606 5.331626892 257.8604126
vertex -104.7980194 4.164206982 257.017395

endloop
endfacet
facet normal 0.9443281293 -0.2585023642 -0.2035212517
outer loop
vertex -104.7980194 4.164206982 257.017395
vertex -104.2967606 5.331626892 257.8604126
vertex -104.7683411 4.03653717 257.3172607

endloop
endfacet
facet normal 0.950086236 -0.2419041842 -0.1970243454
outer loop
vertex -104.7980194 4.164206982 257.017395
vertex -104.7683411 4.03653717 257.3172607
vertex -105.1921234 2.967339039 256.5864563

endloop
endfacet
facet normal 0.9504004717 -0.2594521642 -0.1715331227
outer loop
vertex -105.1921234 2.967339039 256.5864563
vertex -104.7683411 4.03653717 257.3172607
vertex -105.1673508 2.850914001 256.8998108

endloop
endfacet
facet normal 0.9808380008 -0.1441052556 -0.1311126202
outer loop
vertex -105.1921234 2.967339039 256.5864868
vertex -105.1673431 2.850929022 256.8998108
vertex -105.4639969 1.520133972 256.1432495

endloop
endfacet
facet normal 0.981502831 -0.1545802355 -0.1129477099
outer loop
vertex -105.4639969 1.520133972 256.1432495
vertex -105.1673431 2.850929022 256.8998108
vertex -105.4438019 1.415611029 256.461792

endloop
endfacet
facet normal 0.9199847579 -0.3513984978 -0.1736292988
outer loop
vertex -105.4639969 1.520133972 256.1432495
vertex -105.4438019 1.415611029 256.461792
vertex -105.968399 0.2582629919 256.0244751

endloop
endfacet
facet normal 0.6385724545 0 -0.769561708
outer loop
vertex -105.968399 0.2582629919 256.0244751
vertex -105.4438019 1.415611029 256.461792
vertex -105.968399 0.2582469881 256.0244751

endloop
endfacet
facet normal 0 -0.1890143007 0.9819743037
outer loop
vertex -90.07820129 20.73233795 262.5899963
vertex -90.07820892 20.73233795 262.5899963
vertex -90.9556427 19.71685028 262.3945312

endloop
endfacet
facet normal 0.6908304095 -0.655596137 0.304872334
outer loop
vertex -90.9556427 19.71685028 262.3945312
vertex -90.07820892 20.73233795 262.5899963
vertex -91.03759003 19.80254364 262.7644958

endloop
endfacet
facet normal 0.2596130073 -0.9265794158 0.2721241415
outer loop
vertex -90.9556427 19.71685028 262.3945312
vertex -91.03759003 19.80254364 262.7644958
vertex -92.54327393 19.21527863 262.2013245

endloop
endfacet
facet normal 0.2426016629 -0.9192690849 0.3099821508
outer loop
vertex -92.54327393 19.21527863 262.2013245
vertex -91.03759003 19.80254364 262.7644958
vertex -92.61379242 19.31447601 262.5506897

endloop
endfacet
facet normal 0.2857021093 -0.9051795602 0.314681381
outer loop
vertex -92.54327393 19.21527863 262.2013245
vertex -92.61379242 19.31447601 262.5506897
vertex -93.98896027 18.72780609 262.1116638

endloop
endfacet
facet normal 0.2944088578 -0.9095680714 0.2932734489
outer loop
vertex -93.98896027 18.72780609 262.1116638
vertex -92.61379242 19.31447601 262.5506897
vertex -94.03328705 18.82419586 262.4551086

endloop
endfacet
facet normal 0.354542166 -0.8873517513 0.2947994471
outer loop
vertex -93.98896027 18.72780609 262.1116638
vertex -94.03328705 18.82419586 262.4551086
vertex -95.32548523 18.18987274 262.0998535

endloop
endfacet
facet normal 0.3586719334 -0.8893951774 0.2834264934
outer loop
vertex -95.32548523 18.18987274 262.0998535
vertex -94.03328705 18.82419586 262.4551086
vertex -95.36667633 18.28394318 262.4471741

endloop
endfacet
facet normal 0.4584826529 -0.8425793648 0.282583952
outer loop
vertex -95.32548523 18.18987274 262.0998535
vertex -95.36667633 18.28394318 262.4471741
vertex -96.50434875 17.54416656 262.0872192

endloop
endfacet
facet normal 0.4500350058 -0.8398166895 0.3036057353
outer loop
vertex -96.50434875 17.54416656 262.0872192
vertex -95.36667633 18.28394318 262.4471741
vertex -96.57304382 17.63201141 262.4320374

endloop
endfacet
facet normal 0.5408103466 -0.7830311656 0.3072235882
outer loop
vertex -96.50434875 17.54416656 262.0872192
vertex -96.57304382 17.63201141 262.4320374
vertex -97.59343719 16.76512909 262.0187988

endloop
endfacet
facet normal 0.5220532417 -0.7795108557 0.3461548388
outer loop
vertex -97.59343719 16.76512909 262.0187988
vertex -96.57304382 17.63201141 262.4320374
vertex -97.69465637 16.8463974 262.3544617

endloop
endfacet
facet normal 0.5531185269 -0.7560848594 0.349850893
outer loop
vertex -97.59343719 16.76512909 262.0187988
vertex -97.69465637 16.8463974 262.3544617
vertex -98.67641449 15.90177155 261.8651428

endloop
endfacet
facet normal 0.5309852958 -0.7530885339 0.388474375
outer loop
vertex -98.67641449 15.90177155 261.8651428
vertex -97.69465637 16.8463974 262.3544617
vertex -98.79825592 15.97637177 262.1763

endloop
endfacet
facet normal 0.5130262971 -0.7672685385 0.3848416507
outer loop
vertex -98.67640686 15.90177155 261.8651428
vertex -98.79824829 15.97637177 262.1763
vertex -99.80651855 15.02681732 261.6272583

endloop
endfacet
facet normal 0.4937677681 -0.764216423 0.414929688
outer loop
vertex -99.80651855 15.02681732 261.6272583
vertex -98.79824829 15.97637177 262.1763
vertex -99.9276886 15.0908432 261.8893738

endloop
endfacet
facet normal 0.5027117133 -0.757053256 0.4173145294
outer loop
vertex -99.80651855 15.02681732 261.6272583
vertex -99.9276886 15.0908432 261.8893738
vertex -100.885994 14.13500214 261.3097839

endloop
endfacet
facet normal 0.4563050866 -0.7488869429 0.4805766344
outer loop
vertex -100.885994 14.13500214 261.3097839
vertex -99.9276886 15.0908432 261.8893738
vertex -101.0114136 14.18462372 261.5061951

endloop
endfacet
facet normal 0.5257216692 -0.6822745204 0.508053422
outer loop
vertex -100.885994 14.1350174 261.3098145
vertex -101.0114059 14.18463898 261.5062256
vertex -101.7921066 13.111763 260.873291

endloop
endfacet
facet normal 0.4250344038 -0.668998301 0.6097434163
outer loop
vertex -101.7921066 13.111763 260.873291
vertex -101.0114059 14.18463898 261.5062256
vertex -101.9378204 13.15169525 261.0186768

endloop
endfacet
facet normal 0.4717241526 -0.6070349813 0.6395193338
outer loop
vertex -101.7921066 13.111763 260.873291
vertex -101.9378204 13.15169525 261.0186768
vertex -102.5424576 11.96802521 260.3411255

endloop
endfacet
facet normal 0.4035204649 -0.6010249853 0.6898841858
outer loop
vertex -102.5424576 11.96802521 260.3411255
vertex -101.9378204 13.15169525 261.0186768
vertex -102.7039413 12.00357819 260.4665527

endloop
endfacet
facet normal 0.4458807111 -0.5270668268 0.7234575748
outer loop
vertex -102.5424576 11.96802521 260.3411255
vertex -102.7039413 12.00357819 260.4665527
vertex -103.1513977 10.77231598 259.8453064

endloop
endfacet
facet normal 0.4246225655 -0.5260905623 0.7368340492
outer loop
vertex -103.1513977 10.77231598 259.8453064
vertex -102.7039413 12.00357819 260.4665527
vertex -103.3161316 10.79891205 259.9592285

endloop
endfacet
facet normal 0.4838941991 -0.3798363507 0.7883976102
outer loop
vertex -103.1513977 10.77231598 259.8453064
vertex -103.3161316 10.79891205 259.9592285
vertex -103.5223312 9.49030304 259.4553223

endloop
endfacet
facet normal 0.4497518539 -0.3817893565 0.8074405193
outer loop
vertex -103.5223312 9.49030304 259.4553223
vertex -103.3161316 10.79891205 259.9592285
vertex -103.6903076 9.497795105 259.5524292

endloop
endfacet
facet normal 0.4651342332 -0.311576128 0.8285954595
outer loop
vertex -103.5223312 9.490333557 259.4553528
vertex -103.6903 9.497825623 259.5524597
vertex -103.6857376 8.105644226 259.0263977

endloop
endfacet
facet normal 0.5649002194 -0.2900526524 0.7725005746
outer loop
vertex -103.6857376 8.105644226 259.0263977
vertex -103.6903 9.497825623 259.5524597
vertex -103.8441772 8.091621399 259.1369934

endloop
endfacet
facet normal 0.5515030622 -0.3817858696 0.7416764498
outer loop
vertex -103.6857376 8.105644226 259.0263977
vertex -103.8441772 8.091621399 259.1369934
vertex -103.9083023 6.698218822 258.4674072

endloop
endfacet
facet normal 0.712120235 -0.330434829 0.6194332242
outer loop
vertex -103.9083023 6.698218822 258.4674072
vertex -103.8441772 8.091621399 259.1369934
vertex -104.0414886 6.672173023 258.6066284

endloop
endfacet
facet normal 0.6860700846 -0.4492105246 0.5722916126
outer loop
vertex -103.9083023 6.698218822 258.4674072
vertex -104.0414886 6.672173023 258.6066284
vertex -104.2967606 5.331626892 257.8604126

endloop
endfacet
facet normal 0.7930778861 -0.4045205712 0.4554016292
outer loop
vertex -104.2967606 5.331626892 257.8604126
vertex -104.0414886 6.672173023 258.6066284
vertex -104.4044495 5.301108837 258.0208435

endloop
endfacet
facet normal 0.7742066383 -0.4629313946 0.4316231906
outer loop
vertex -104.2967606 5.331626892 257.8604126
vertex -104.4044495 5.301108837 258.0208435
vertex -104.7683411 4.03653717 257.3172607

endloop
endfacet
facet normal 0.8135153055 -0.4434319437 0.3762458861
outer loop
vertex -104.7683411 4.03653717 257.3172607
vertex -104.4044495 5.301108837 258.0208435
vertex -104.8627396 4.006081104 257.4854736

endloop
endfacet
facet normal 0.8238672614 -0.4136801064 0.387442112
outer loop
vertex -104.7683411 4.03653717 257.3172607
vertex -104.8627396 4.006081104 257.4854736
vertex -105.1673508 2.850914001 256.8998108

endloop
endfacet
facet normal 0.8083180785 -0.421531111 0.4110149443
outer loop
vertex -105.1673508 2.850914001 256.8998108
vertex -104.8627396 4.006081104 257.4854736
vertex -105.2685471 2.823050976 257.0702515

endloop
endfacet
facet normal 0.8410871029 -0.2994638681 0.4504373372
outer loop
vertex -105.1673431 2.850929022 256.8998108
vertex -105.2685471 2.823050976 257.0702515
vertex -105.4438019 1.415611029 256.461792

endloop
endfacet
facet normal 0.8379832506 -0.3010971844 0.4551092982
outer loop
vertex -105.4438019 1.415611029 256.461792
vertex -105.2685471 2.823050976 257.0702515
vertex -105.5497513 1.386345029 256.6375122

endloop
endfacet
facet normal 0.7768938541 -0.4978104234 0.3855135441
outer loop
vertex -105.4438019 1.415611029 256.461792
vertex -105.5497513 1.386345029 256.6375122
vertex -105.968399 0.2582469881 256.0244751

endloop
endfacet
facet normal -0.9375236034 0.3479218185 0
outer loop
vertex -105.968399 0.2582469881 256.0244751
vertex -105.5497513 1.386345029 256.6375122
vertex -105.968399 0.2582469881 256.0244446

endloop
endfacet
facet normal 0.6968616247 -0.7171339989 0.01013618801
outer loop
vertex -90.07820892 20.73233795 262.5899963
vertex -90.07819366 20.73235321 262.5900269
vertex -91.03759003 19.80254364 262.7644958

endloop
endfacet
facet normal 0.5717074871 -0.4627759755 0.6774872541
outer loop
vertex -91.03759003 19.80254364 262.7644958
vertex -90.07819366 20.73235321 262.5900269
vertex -91.14055634 20.00983429 262.992981

endloop
endfacet
facet normal 0.124208495 -0.7063903213 0.696839273
outer loop
vertex -91.03759003 19.80254364 262.7644958
vertex -91.14055634 20.00983429 262.992981
vertex -92.61379242 19.31447601 262.5506897

endloop
endfacet
facet normal 0.1051293835 -0.6826807857 0.7231146693
outer loop
vertex -92.61379242 19.31447601 262.5506897
vertex -91.14055634 20.00983429 262.992981
vertex -92.70558929 19.51740265 262.7556152

endloop
endfacet
facet normal 0.1780682355 -0.6581656933 0.7315118313
outer loop
vertex -92.61379242 19.31447601 262.5506897
vertex -92.70558929 19.51740265 262.7556152
vertex -94.03328705 18.82419586 262.4551086

endloop
endfacet
facet normal 0.1889467835 -0.6722095609 0.7158445716
outer loop
vertex -94.03328705 18.82419586 262.4551086
vertex -92.70558929 19.51740265 262.7556152
vertex -94.10949707 19.02077484 262.6598206

endloop
endfacet
facet normal 0.2579263449 -0.6471207142 0.7174320817
outer loop
vertex -94.03328705 18.82419586 262.4551086
vertex -94.10949707 19.02077484 262.6598206
vertex -95.36667633 18.28394318 262.4471741

endloop
endfacet
facet normal 0.2634719312 -0.654147625 0.7089947462
outer loop
vertex -95.36667633 18.28394318 262.4471741
vertex -94.10949707 19.02077484 262.6598206
vertex -95.45083618 18.47579193 262.6554565

endloop
endfacet
facet normal 0.3287254572 -0.6247349977 0.7082695365
outer loop
vertex -95.36667633 18.28394318 262.4471741
vertex -95.45083618 18.47579193 262.6554565
vertex -96.57304382 17.63201141 262.4320374

endloop
endfacet
facet normal 0.3163399696 -0.6125300527 0.7243866324
outer loop
vertex -96.57304382 17.63201141 262.4320374
vertex -95.45083618 18.47579193 262.6554565
vertex -96.69128418 17.81116486 262.6351624

endloop
endfacet
facet normal 0.3600284755 -0.5857142806 0.7261667848
outer loop
vertex -96.57304382 17.63201141 262.4320374
vertex -96.69128418 17.81116486 262.6351624
vertex -97.69465637 16.8463974 262.3544617

endloop
endfacet
facet normal 0.3338144124 -0.5664027929 0.7534957528
outer loop
vertex -97.69465637 16.8463974 262.3544617
vertex -96.69128418 17.81116486 262.6351624
vertex -97.84441376 17.0121994 262.5454407

endloop
endfacet
facet normal 0.3282853067 -0.5705716014 0.7527793646
outer loop
vertex -97.69465637 16.8463974 262.3544617
vertex -97.84441376 17.0121994 262.5454407
vertex -98.79825592 15.97637177 262.1763

endloop
endfacet
facet normal 0.2988256514 -0.5524751544 0.7781223655
outer loop
vertex -98.79825592 15.97637177 262.1763
vertex -97.84441376 17.0121994 262.5454407
vertex -98.96011353 16.12857819 262.3465271

endloop
endfacet
facet normal 0.2613593042 -0.5826873779 0.7695237398
outer loop
vertex -98.79824829 15.97637177 262.1763
vertex -98.96011353 16.12857819 262.3465271
vertex -99.9276886 15.0908432 261.8893738

endloop
endfacet
facet normal 0.2354442775 -0.5671972036 0.7892106175
outer loop
vertex -99.9276886 15.0908432 261.8893738
vertex -98.96011353 16.12857819 262.3465271
vertex -100.076828 15.22150421 262.027771

endloop
endfacet
facet normal 0.2129787505 -0.585449338 0.7822334766
outer loop
vertex -99.9276886 15.0908432 261.8893738
vertex -100.076828 15.22150421 262.027771
vertex -101.0114136 14.18462372 261.5061951

endloop
endfacet
facet normal 0.1521592736 -0.5501679778 0.8210741878
outer loop
vertex -101.0114136 14.18462372 261.5061951
vertex -100.076828 15.22150421 262.027771
vertex -101.1489868 14.2858963 261.5995483

endloop
endfacet
facet normal 0.1648391038 -0.5380206108 0.8266570568
outer loop
vertex -101.0114059 14.18463898 261.5062256
vertex -101.1489716 14.28592682 261.5995789
vertex -101.9378204 13.15169525 261.0186768

endloop
endfacet
facet normal 0.04699150845 -0.4810416996 0.8754373789
outer loop
vertex -101.9378204 13.15169525 261.0186768
vertex -101.1489716 14.28592682 261.5995789
vertex -102.079155 13.23319244 261.0710449

endloop
endfacet
facet normal 0.05948354304 -0.4645786881 0.8835317492
outer loop
vertex -101.9378204 13.15169525 261.0186768
vertex -102.079155 13.23319244 261.0710449
vertex -102.7039413 12.00357819 260.4665527

endloop
endfacet
facet normal -0.01392821223 -0.4354295433 0.9001150727
outer loop
vertex -102.7039413 12.00357819 260.4665527
vertex -102.079155 13.23319244 261.0710449
vertex -102.8535385 12.07618046 260.4993591

endloop
endfacet
facet normal 0.01100146957 -0.392839551 0.9195411801
outer loop
vertex -102.7039413 12.00357819 260.4665527
vertex -102.8535385 12.07618046 260.4993591
vertex -103.3161316 10.79891205 259.9592285

endloop
endfacet
facet normal -0.01479454804 -0.3848930001 0.9228426218
outer loop
vertex -103.3161316 10.79891205 259.9592285
vertex -102.8535385 12.07618046 260.4993591
vertex -103.4689941 10.85593414 259.9805603

endloop
endfacet
facet normal 0.01971875876 -0.3035122156 0.9526234865
outer loop
vertex -103.3161316 10.79891205 259.9592285
vertex -103.4689941 10.85593414 259.9805603
vertex -103.6903076 9.497795105 259.5524292

endloop
endfacet
facet normal -0.02474034205 -0.2968878448 0.9545918107
outer loop
vertex -103.6903076 9.497795105 259.5524292
vertex -103.4689941 10.85593414 259.9805603
vertex -103.846611 9.528678894 259.5579834

endloop
endfacet
facet normal -0.02145176381 -0.2811193168 0.9594330192
outer loop
vertex -103.6903 9.497825623 259.5524597
vertex -103.846611 9.528709412 259.5580139
vertex -103.8441772 8.091621399 259.1369934

endloop
endfacet
facet normal 0.08805598319 -0.2799210846 0.9559761286
outer loop
vertex -103.8441772 8.091621399 259.1369934
vertex -103.846611 9.528709412 259.5580139
vertex -104.003212 8.105690002 259.1557617

endloop
endfacet
facet normal 0.07807712257 -0.3584445715 0.9302803278
outer loop
vertex -103.8441772 8.091621399 259.1369934
vertex -104.003212 8.105690002 259.1557617
vertex -104.0414886 6.672173023 258.6066284

endloop
endfacet
facet normal 0.2796227038 -0.3499516845 0.8940609694
outer loop
vertex -104.0414886 6.672173023 258.6066284
vertex -104.003212 8.105690002 259.1557617
vertex -104.1937103 6.684333801 258.6589966

endloop
endfacet
facet normal 0.2612148821 -0.4369032383 0.8607452512
outer loop
vertex -104.0414886 6.672173023 258.6066284
vertex -104.1937103 6.684333801 258.6589966
vertex -104.4044495 5.301108837 258.0208435

endloop
endfacet
facet normal 0.41330266 -0.4326293766 0.8012570143
outer loop
vertex -104.4044495 5.301108837 258.0208435
vertex -104.1937103 6.684333801 258.6589966
vertex -104.5452271 5.315268993 258.1011047

endloop
endfacet
facet normal 0.401817292 -0.4676671028 0.7872930169
outer loop
vertex -104.4044495 5.301108837 258.0208435
vertex -104.5452271 5.315268993 258.1011047
vertex -104.8627396 4.006081104 257.4854736

endloop
endfacet
facet normal 0.4639695883 -0.4666133821 0.7529968023
outer loop
vertex -104.8627396 4.006081104 257.4854736
vertex -104.5452271 5.315268993 258.1011047
vertex -104.996521 4.020209789 257.5766602

endloop
endfacet
facet normal 0.4763050973 -0.4321499169 0.7657544613
outer loop
vertex -104.8627396 4.006081104 257.4854736
vertex -104.996521 4.020209789 257.5766602
vertex -105.2685471 2.823050976 257.0702515

endloop
endfacet
facet normal 0.4514409006 -0.4326847494 0.7803749442
outer loop
vertex -105.2685471 2.823050976 257.0702515
vertex -104.996521 4.020209789 257.5766602
vertex -105.4091415 2.835869074 257.1586914

endloop
endfacet
facet normal 0.4790487885 -0.3377944827 0.8101895452
outer loop
vertex -105.2685471 2.823050976 257.0702515
vertex -105.4091339 2.835869074 257.1587219
vertex -105.5497513 1.386345029 256.6375122

endloop
endfacet
facet normal 0.4749685824 -0.3382004499 0.8124193549
outer loop
vertex -105.5497513 1.386345029 256.6375122
vertex -105.4091339 2.835869074 257.1587219
vertex -105.7024307 1.394340992 256.7301025

endloop
endfacet
facet normal 0.4124285579 -0.5483871102 0.7274435759
outer loop
vertex -105.5497513 1.386345029 256.6375122
vertex -105.7024307 1.394340992 256.7301025
vertex -105.968399 0.2582469881 256.0244446

endloop
endfacet
facet normal 0.9773287773 -0.2089382708 -0.03425217792
outer loop
vertex -105.968399 0.2582469881 256.0244446
vertex -105.7024307 1.394340992 256.7301025
vertex -105.9683914 0.2582780123 256.0244751

endloop
endfacet
facet normal -0.4017232955 0.8190816045 0.4095408022
outer loop
vertex -90.07819366 20.73235321 262.5900269
vertex -90.07819366 20.73236847 262.5899963
vertex -91.14055634 20.00983429 262.992981

endloop
endfacet
facet normal 0.4380743206 -0.1497463733 0.8863785863
outer loop
vertex -91.14055634 20.00983429 262.992981
vertex -90.07819366 20.73236847 262.5899963
vertex -91.24892426 20.2869339 263.0933533

endloop
endfacet
facet normal -0.03140905127 -0.3512384295 0.9357590675
outer loop
vertex -91.14055634 20.00983429 262.992981
vertex -91.24892426 20.2869339 263.0933533
vertex -92.70558929 19.51740265 262.7556152

endloop
endfacet
facet normal -0.04320967197 -0.331798017 0.9423603415
outer loop
vertex -92.70558929 19.51740265 262.7556152
vertex -91.24892426 20.2869339 263.0933533
vertex -92.80201721 19.76909637 262.8398132

endloop
endfacet
facet normal 0.04201579839 -0.3024511933 0.9522383809
outer loop
vertex -92.70558929 19.51740265 262.7556152
vertex -92.80201721 19.76909637 262.8398132
vertex -94.10949707 19.02077484 262.6598206

endloop
endfacet
facet normal 0.05414797366 -0.3219569027 0.945204556
outer loop
vertex -94.10949707 19.02077484 262.6598206
vertex -92.80201721 19.76909637 262.8398132
vertex -94.1991806 19.26425934 262.7478943

endloop
endfacet
facet normal 0.1183691546 -0.298918575 0.9469088912
outer loop
vertex -94.10949707 19.02077484 262.6598206
vertex -94.1991806 19.26425934 262.7478943
vertex -95.45083618 18.47579193 262.6554565

endloop
endfacet
facet normal 0.1236523464 -0.3069252372 0.9436666965
outer loop
vertex -95.45083618 18.47579193 262.6554565
vertex -94.1991806 19.26425934 262.7478943
vertex -95.55516815 18.71346283 262.7464294

endloop
endfacet
facet normal 0.1441785544 -0.2979061604 0.9436442256
outer loop
vertex -95.45083618 18.47579193 262.6554565
vertex -95.55516815 18.71346283 262.7464294
vertex -96.69128418 17.81116486 262.6351624

endloop
endfacet
facet normal 0.130008027 -0.280955106 0.9508744478
outer loop
vertex -96.69128418 17.81116486 262.6351624
vertex -95.55516815 18.71346283 262.7464294
vertex -96.83048248 18.03305817 262.7197571

endloop
endfacet
facet normal 0.123465158 -0.2849400043 0.950560689
outer loop
vertex -96.69128418 17.81116486 262.6351624
vertex -96.83048248 18.03305817 262.7197571
vertex -97.84441376 17.0121994 262.5454407

endloop
endfacet
facet normal 0.09499928355 -0.2585057318 0.9613271952
outer loop
vertex -97.84441376 17.0121994 262.5454407
vertex -96.83048248 18.03305817 262.7197571
vertex -98.0110321 17.21755219 262.6171265

endloop
endfacet
facet normal 0.05715109035 -0.2873923779 0.9561063647
outer loop
vertex -97.84441376 17.0121994 262.5454407
vertex -98.0110321 17.21755219 262.6171265
vertex -98.96011353 16.12857819 262.3465271

endloop
endfacet
facet normal 0.02541218884 -0.2618823051 0.9647651315
outer loop
vertex -98.96011353 16.12857819 262.3465271
vertex -98.0110321 17.21755219 262.6171265
vertex -99.13174438 16.31710052 262.4022217

endloop
endfacet
facet normal -0.0248969961 -0.3040128946 0.9523425698
outer loop
vertex -98.96011353 16.12857819 262.3465271
vertex -99.13173676 16.31710052 262.4022217
vertex -100.076828 15.22150421 262.027771

endloop
endfacet
facet normal -0.05335802585 -0.2814285457 0.9580975175
outer loop
vertex -100.076828 15.22150421 262.027771
vertex -99.13173676 16.31710052 262.4022217
vertex -100.2289124 15.38332367 262.0668335

endloop
endfacet
facet normal -0.09774538875 -0.3193963766 0.9425666332
outer loop
vertex -100.076828 15.22150421 262.027771
vertex -100.2289124 15.38332367 262.0668335
vertex -101.1489868 14.2858963 261.5995483

endloop
endfacet
facet normal -0.1623981893 -0.2681791782 0.9495823383
outer loop
vertex -101.1489868 14.2858963 261.5995483
vertex -100.2289124 15.38332367 262.0668335
vertex -101.2799683 14.41135406 261.6125793

endloop
endfacet
facet normal -0.1930490136 -0.2986627519 0.9346297979
outer loop
vertex -101.1489716 14.28592682 261.5995789
vertex -101.279953 14.41136932 261.6126099
vertex -102.079155 13.23319244 261.0710449

endloop
endfacet
facet normal -0.3049620688 -0.2191519439 0.9268066287
outer loop
vertex -102.079155 13.23319244 261.0710449
vertex -101.279953 14.41136932 261.6126099
vertex -102.2022476 13.33414459 261.0544128

endloop
endfacet
facet normal -0.3198482096 -0.238944307 0.9168439507
outer loop
vertex -102.079155 13.23319244 261.0710449
vertex -102.2022476 13.33414459 261.0544128
vertex -102.8535385 12.07618046 260.4993591

endloop
endfacet
facet normal -0.3859480917 -0.1977637261 0.901073575
outer loop
vertex -102.8535385 12.07618046 260.4993591
vertex -102.2022476 13.33414459 261.0544128
vertex -102.9788589 12.16613007 260.4654236

endloop
endfacet
facet normal -0.3822651207 -0.1915341914 0.9039844871
outer loop
vertex -102.8535385 12.07618046 260.4993591
vertex -102.9788589 12.16613007 260.4654236
vertex -103.4689941 10.85593414 259.9805603

endloop
endfacet
facet normal -0.4085925817 -0.1784016788 0.89511168
outer loop
vertex -103.4689941 10.85593414 259.9805603
vertex -102.9788589 12.16613007 260.4654236
vertex -103.5973816 10.92749786 259.9362183

endloop
endfacet
facet normal -0.4053011239 -0.1706342101 0.8981174231
outer loop
vertex -103.4689941 10.85593414 259.9805603
vertex -103.5973816 10.92749786 259.9362183
vertex -103.846611 9.528678894 259.5579834

endloop
endfacet
facet normal -0.443433255 -0.1594832838 0.882004559
outer loop
vertex -103.846611 9.528678894 259.5579834
vertex -103.5973816 10.92749786 259.9362183
vertex -103.9790497 9.572532654 259.4993286

endloop
endfacet
facet normal -0.4509198666 -0.1964930445 0.8706674576
outer loop
vertex -103.846611 9.528709412 259.5580139
vertex -103.9790344 9.572563171 259.4993286
vertex -104.003212 8.105690002 259.1557617

endloop
endfacet
facet normal -0.3551435173 -0.2076266259 0.9114627242
outer loop
vertex -104.003212 8.105690002 259.1557617
vertex -103.9790344 9.572563171 259.4993286
vertex -104.148056 8.138557434 259.1068115

endloop
endfacet
facet normal -0.3620271981 -0.2639397979 0.8940201402
outer loop
vertex -104.003212 8.105690002 259.1557617
vertex -104.148056 8.138557434 259.1068115
vertex -104.1937103 6.684333801 258.6589966

endloop
endfacet
facet normal -0.1686193347 -0.2852498293 0.9435041547
outer loop
vertex -104.1937103 6.684333801 258.6589966
vertex -104.148056 8.138557434 259.1068115
vertex -104.3460464 6.723105907 258.6434937

endloop
endfacet
facet normal -0.1786719561 -0.331608355 0.9263435006
outer loop
vertex -104.1937103 6.684333801 258.6589966
vertex -104.3460464 6.723105907 258.6434937
vertex -104.5452271 5.315268993 258.1011047

endloop
endfacet
facet normal -0.01612986997 -0.3574716449 0.9337846637
outer loop
vertex -104.5452271 5.315268993 258.1011047
vertex -104.3460464 6.723105907 258.6434937
vertex -104.6973724 5.360558033 258.1158142

endloop
endfacet
facet normal -0.02008793689 -0.36925143 0.9291124344
outer loop
vertex -104.5452271 5.315268993 258.1011047
vertex -104.6973724 5.360558033 258.1158142
vertex -104.996521 4.020209789 257.5766602

endloop
endfacet
facet normal 0.04981921241 -0.3822761476 0.9227042198
outer loop
vertex -104.996521 4.020209789 257.5766602
vertex -104.6973724 5.360558033 258.1158142
vertex -105.1468735 4.06543684 257.6035156

endloop
endfacet
facet normal 0.0612782985 -0.3510878086 0.9343352318
outer loop
vertex -104.996521 4.020209789 257.5766602
vertex -105.1468735 4.06543684 257.6035156
vertex -105.4091415 2.835869074 257.1586914

endloop
endfacet
facet normal 0.03266586363 -0.346167326 0.9376038909
outer loop
vertex -105.4091415 2.835869074 257.1586914
vertex -105.1468735 4.06543684 257.6035156
vertex -105.5657883 2.877129078 257.1793823

endloop
endfacet
facet normal 0.04857199639 -0.2937357128 0.954651773
outer loop
vertex -105.4091339 2.835869074 257.1587219
vertex -105.5657806 2.877113104 257.1793823
vertex -105.7024307 1.394340992 256.7301025

endloop
endfacet
facet normal 0.03178717569 -0.2925162017 0.9557320476
outer loop
vertex -105.7024307 1.394340992 256.7301025
vertex -105.5657806 2.877113104 257.1793823
vertex -105.8782272 1.431373954 256.7472839

endloop
endfacet
facet normal -0.02688215114 -0.5228850245 0.8519792557
outer loop
vertex -105.7024307 1.394340992 256.7301025
vertex -105.8782272 1.431373954 256.7472839
vertex -105.9683914 0.2582780123 256.0244751

endloop
endfacet
facet normal 0.7561278939 -0.3842957616 0.529704988
outer loop
vertex -105.9683914 0.2582780123 256.0244751
vertex -105.8782272 1.431373954 256.7472839
vertex -105.968399 0.2582629919 256.0244751

endloop
endfacet
facet normal -0.4565721452 0.2282860726 -0.8598996401
outer loop
vertex -90.07819366 20.73236847 262.5899963
vertex -90.07820129 20.73235321 262.5899963
vertex -91.24892426 20.2869339 263.0933533

endloop
endfacet
facet normal 0.3061937988 0.2371052504 0.9219687581
outer loop
vertex -91.24892426 20.2869339 263.0933533
vertex -90.07820129 20.73235321 262.5899963
vertex -91.34152222 20.5786972 263.0490723

endloop
endfacet
facet normal -0.1891267151 0.08840226382 0.9779652953
outer loop
vertex -91.24892426 20.2869339 263.0933533
vertex -91.34152222 20.5786972 263.0490723
vertex -92.80201721 19.76909637 262.8398132

endloop
endfacet
facet normal -0.191382274 0.09268737584 0.9771293998
outer loop
vertex -92.80201721 19.76909637 262.8398132
vertex -91.34152222 20.5786972 263.0490723
vertex -92.88500214 20.01888275 262.7998657

endloop
endfacet
facet normal -0.1088520139 0.1216188893 0.986590147
outer loop
vertex -92.80201721 19.76909637 262.8398132
vertex -92.88500214 20.01888275 262.7998657
vertex -94.1991806 19.26425934 262.7478943

endloop
endfacet
facet normal -0.09700800478 0.1007458642 0.9901715517
outer loop
vertex -94.1991806 19.26425934 262.7478943
vertex -92.88500214 20.01888275 262.7998657
vertex -94.28463745 19.5056076 262.7149658

endloop
endfacet
facet normal -0.04899078608 0.1179710552 0.9918077588
outer loop
vertex -94.1991806 19.26425934 262.7478943
vertex -94.28463745 19.5056076 262.7149658
vertex -95.55516815 18.71346283 262.7464294

endloop
endfacet
facet normal -0.04491491243 0.1114712283 0.9927521348
outer loop
vertex -95.55516815 18.71346283 262.7464294
vertex -94.28463745 19.5056076 262.7149658
vertex -95.65859222 18.94901276 262.7153015

endloop
endfacet
facet normal -0.07350385189 0.09886960685 0.99238199
outer loop
vertex -95.55516815 18.71346283 262.7464294
vertex -95.65859222 18.94901276 262.7153015
vertex -96.83048248 18.03305817 262.7197571

endloop
endfacet
facet normal -0.08693176508 0.1160352007 0.989433527
outer loop
vertex -96.83048248 18.03305817 262.7197571
vertex -95.65859222 18.94901276 262.7153015
vertex -96.96311951 18.25298309 262.682312

endloop
endfacet
facet normal -0.1424295008 0.08204771578 0.9863985181
outer loop
vertex -96.83048248 18.03305817 262.7197571
vertex -96.96311951 18.25298309 262.682312
vertex -98.0110321 17.21755219 262.6171265

endloop
endfacet
facet normal -0.1685334891 0.1088904291 0.9796628952
outer loop
vertex -98.0110321 17.21755219 262.6171265
vertex -96.96311951 18.25298309 262.682312
vertex -98.16246033 17.42110443 262.5684509

endloop
endfacet
facet normal -0.2332229614 0.05861211568 0.9706552625
outer loop
vertex -98.0110321 17.21755219 262.6171265
vertex -98.16246033 17.42110443 262.5684509
vertex -99.13174438 16.31710052 262.4022217

endloop
endfacet
facet normal -0.262693733 0.0859336257 0.9610449672
outer loop
vertex -99.13174438 16.31710052 262.4022217
vertex -98.16246033 17.42110443 262.5684509
vertex -99.28083801 16.50399017 262.3447571

endloop
endfacet
facet normal -0.3199329674 0.03586524725 0.9467610717
outer loop
vertex -99.13173676 16.31710052 262.4022217
vertex -99.28083801 16.50399017 262.3447571
vertex -100.2289124 15.38332367 262.0668335

endloop
endfacet
facet normal -0.3462572396 0.06076208875 0.9361698031
outer loop
vertex -100.2289124 15.38332367 262.0668335
vertex -99.28083801 16.50399017 262.3447571
vertex -100.3558807 15.54373932 262.0094604

endloop
endfacet
facet normal -0.4031125307 0.008230461739 0.9151134491
outer loop
vertex -100.2289124 15.38332367 262.0668335
vertex -100.3558807 15.54373932 262.0094604
vertex -101.2799683 14.41135406 261.6125793

endloop
endfacet
facet normal -0.4596759975 0.06468836218 0.885727644
outer loop
vertex -101.2799683 14.41135406 261.6125793
vertex -100.3558807 15.54373932 262.0094604
vertex -101.381134 14.53569794 261.5509949

endloop
endfacet
facet normal -0.5189302564 0.001347121201 0.8548154831
outer loop
vertex -101.279953 14.41136932 261.6126099
vertex -101.3811264 14.5357132 261.5509949
vertex -102.2022476 13.33414459 261.0544128

endloop
endfacet
facet normal -0.6064954996 0.08788506687 0.790214777
outer loop
vertex -102.2022476 13.33414459 261.0544128
vertex -101.3811264 14.5357132 261.5509949
vertex -102.2864761 13.43421173 260.9786377

endloop
endfacet
facet normal -0.6414638162 0.04019084573 0.7660998702
outer loop
vertex -102.2022476 13.33414459 261.0544128
vertex -102.2864761 13.43421173 260.9786377
vertex -102.9788589 12.16613007 260.4654236

endloop
endfacet
facet normal -0.6890343428 0.08492930233 0.7197351456
outer loop
vertex -102.9788589 12.16613007 260.4654236
vertex -102.2864761 13.43421173 260.9786377
vertex -103.0595169 12.25528717 260.3776855

endloop
endfacet
facet normal -0.7079563141 0.05261533335 0.7042936087
outer loop
vertex -102.9788589 12.16613007 260.4654236
vertex -103.0595169 12.25528717 260.3776855
vertex -103.5973816 10.92749786 259.9362183

endloop
endfacet
facet normal -0.7266792655 0.06704761833 0.6836971641
outer loop
vertex -103.5973816 10.92749786 259.9362183
vertex -103.0595169 12.25528717 260.3776855
vertex -103.6799164 10.998909 259.8414917

endloop
endfacet
facet normal -0.7537907958 0.0004512391752 0.657114327
outer loop
vertex -103.5973816 10.92749786 259.9362183
vertex -103.6799164 10.998909 259.8414917
vertex -103.9790497 9.572532654 259.4993286

endloop
endfacet
facet normal -0.7716972828 0.009290179238 0.6359221339
outer loop
vertex -103.9790497 9.572532654 259.4993286
vertex -103.6799164 10.998909 259.8414917
vertex -104.0641403 9.619392395 259.3953857

endloop
endfacet
facet normal -0.7877556682 -0.07452009618 0.611463666
outer loop
vertex -103.9790344 9.572563171 259.4993286
vertex -104.0641251 9.619422913 259.3954163
vertex -104.148056 8.138557434 259.1068115

endloop
endfacet
facet normal -0.7096920609 -0.09580317885 0.6979677081
outer loop
vertex -104.148056 8.138557434 259.1068115
vertex -104.0641251 9.619422913 259.3954163
vertex -104.2508392 8.181373596 259.0081787

endloop
endfacet
facet normal -0.7136636376 -0.1257399321 0.6891108155
outer loop
vertex -104.148056 8.138557434 259.1068115
vertex -104.2508392 8.181373596 259.0081787
vertex -104.3460464 6.723105907 258.6434937

endloop
endfacet
facet normal -0.5581120253 -0.1668330729 0.8128207922
outer loop
vertex -104.3460464 6.723105907 258.6434937
vertex -104.2508392 8.181373596 259.0081787
vertex -104.4672546 6.777397156 258.5714111

endloop
endfacet
facet normal -0.5588877201 -0.1702008843 0.811588645
outer loop
vertex -104.3460464 6.723105907 258.6434937
vertex -104.4672546 6.777397156 258.5714111
vertex -104.6973724 5.360558033 258.1158142

endloop
endfacet
facet normal -0.415282011 -0.2166539282 0.8835167885
outer loop
vertex -104.6973724 5.360558033 258.1158142
vertex -104.4672546 6.777397156 258.5714111
vertex -104.8283005 5.423973083 258.0698242

endloop
endfacet
facet normal -0.4122413397 -0.2078075856 0.8870586753
outer loop
vertex -104.6973724 5.360558033 258.1158142
vertex -104.8283005 5.423973083 258.0698242
vertex -105.1468735 4.06543684 257.6035156

endloop
endfacet
facet normal -0.3470571935 -0.2306386232 0.9090418816
outer loop
vertex -105.1468735 4.06543684 257.6035156
vertex -104.8283005 5.423973083 258.0698242
vertex -105.2809601 4.128760815 257.5683899

endloop
endfacet
facet normal -0.3386655152 -0.208122015 0.9176006913
outer loop
vertex -105.1468735 4.06543684 257.6035156
vertex -105.2809601 4.128760815 257.5683899
vertex -105.5657883 2.877129078 257.1793823

endloop
endfacet
facet normal -0.3671990335 -0.1988436878 0.9086396694
outer loop
vertex -105.5657883 2.877129078 257.1793823
vertex -105.2809601 4.128760815 257.5683899
vertex -105.7043457 2.934974909 257.1360474

endloop
endfacet
facet normal -0.3652572334 -0.1932291836 0.9106314778
outer loop
vertex -105.5657806 2.877113104 257.1793823
vertex -105.7043457 2.934958935 257.1360779
vertex -105.8782272 1.431373954 256.7472839

endloop
endfacet
facet normal -0.410102427 -0.1835803092 0.8933724165
outer loop
vertex -105.8782272 1.431373954 256.7472839
vertex -105.7043457 2.934958935 257.1360779
vertex -106.0346375 1.487769961 256.6870728

endloop
endfacet
facet normal -0.456487298 -0.4410279691 0.7727313042
outer loop
vertex -105.8782272 1.431373954 256.7472839
vertex -106.0346375 1.487769961 256.6870728
vertex -105.968399 0.2582629919 256.0244751

endloop
endfacet
facet normal -nan(ind) -nan(ind) -nan(ind)
outer loop
vertex -105.968399 0.2582629919 256.0244751
vertex -106.0346375 1.487769961 256.6870728
vertex -105.968399 0.2582629919 256.0244751

endloop
endfacet
facet normal 0.3415370584 0 0.939868331
outer loop
vertex -90.07820129 20.73235321 262.5899963
vertex -90.07820129 20.73236847 262.5899963
vertex -91.34152222 20.5786972 263.0490723

endloop
endfacet
facet normal 0.201282531 0.6173026562 0.760541141
outer loop
vertex -91.34152222 20.5786972 263.0490723
vertex -90.07820129 20.73236847 262.5899963
vertex -91.40236664 20.84157562 262.8518066

endloop
endfacet
facet normal -0.3169813156 0.5212292075 0.7923654318
outer loop
vertex -91.34152222 20.5786972 263.0490723
vertex -91.40236664 20.84157562 262.8518066
vertex -92.88500214 20.01888275 262.7998657

endloop
endfacet
facet normal -0.305903554 0.5001448393 0.810109973
outer loop
vertex -92.88500214 20.01888275 262.7998657
vertex -91.40236664 20.84157562 262.8518066
vertex -92.94805145 20.24868011 262.6341858

endloop
endfacet
facet normal -0.2414059788 0.5230818987 0.817379117
outer loop
vertex -92.88500214 20.01888275 262.7998657
vertex -92.94805145 20.24868011 262.6341858
vertex -94.28463745 19.5056076 262.7149658

endloop
endfacet
facet normal -0.230661571 0.5052958727 0.8315475583
outer loop
vertex -94.28463745 19.5056076 262.7149658
vertex -92.94805145 20.24868011 262.6341858
vertex -94.35968781 19.7277298 262.5591736

endloop
endfacet
facet normal -0.2078702897 0.5136300325 0.8324507475
outer loop
vertex -94.28463745 19.5056076 262.7149658
vertex -94.35968781 19.7277298 262.5591736
vertex -95.65859222 18.94901276 262.7153015

endloop
endfacet
facet normal -0.2045398057 0.5088295341 0.8362153172
outer loop
vertex -95.65859222 18.94901276 262.7153015
vertex -94.35968781 19.7277298 262.5591736
vertex -95.75382233 19.16580963 262.5600891

endloop
endfacet
facet normal -0.2754427791 0.4766788781 0.8348104954
outer loop
vertex -95.65859222 18.94901276 262.7153015
vertex -95.75382233 19.16580963 262.5600891
vertex -96.96311951 18.25298309 262.682312

endloop
endfacet
facet normal -0.2866657972 0.4899978042 0.8232405186
outer loop
vertex -96.96311951 18.25298309 262.682312
vertex -95.75382233 19.16580963 262.5600891
vertex -97.07962799 18.45543671 262.5212402

endloop
endfacet
facet normal -0.3781722188 0.4332457781 0.818097651
outer loop
vertex -96.96311951 18.25298309 262.682312
vertex -97.07962799 18.45543671 262.5212402
vertex -98.16246033 17.42110443 262.5684509

endloop
endfacet
facet normal -0.3996616304 0.4547305703 0.7959213257
outer loop
vertex -98.16246033 17.42110443 262.5684509
vertex -97.07962799 18.45543671 262.5212402
vertex -98.2874527 17.60845184 262.3986511

endloop
endfacet
facet normal -0.47882393 0.3923453391 0.7853615284
outer loop
vertex -98.16246033 17.42110443 262.5684509
vertex -98.2874527 17.60845184 262.3986511
vertex -99.28083801 16.50399017 262.3447571

endloop
endfacet
facet normal -0.5025097728 0.4149607718 0.758479774
outer loop
vertex -99.28083801 16.50399017 262.3447571
vertex -98.2874527 17.60845184 262.3986511
vertex -99.39612579 16.67597198 262.1742859

endloop
endfacet
facet normal -0.5581247211 0.3645789623 0.7453716993
outer loop
vertex -99.28083801 16.50399017 262.3447571
vertex -99.39611816 16.67597198 262.1743164
vertex -100.3558807 15.54373932 262.0094604

endloop
endfacet
facet normal -0.5782422423 0.3854622543 0.719065249
outer loop
vertex -100.3558807 15.54373932 262.0094604
vertex -99.39611816 16.67597198 262.1743164
vertex -100.4479294 15.69138336 261.8562927

endloop
endfacet
facet normal -0.6355128884 0.3286016881 0.6986732483
outer loop
vertex -100.3558807 15.54373932 262.0094604
vertex -100.4479294 15.69138336 261.8562927
vertex -101.381134 14.53569794 261.5509949

endloop
endfacet
facet normal -0.6736498475 0.3758650124 0.6363341808
outer loop
vertex -101.381134 14.53569794 261.5509949
vertex -100.4479294 15.69138336 261.8562927
vertex -101.4443054 14.65016937 261.4165039

endloop
endfacet
facet normal -0.7416754961 0.297124058 0.6013607383
outer loop
vertex -101.3811264 14.5357132 261.5509949
vertex -101.4442902 14.65018463 261.4165344
vertex -102.2864761 13.43421173 260.9786377

endloop
endfacet
facet normal -0.7897496223 0.371076405 0.4884647727
outer loop
vertex -102.2864761 13.43421173 260.9786377
vertex -101.4442902 14.65018463 261.4165344
vertex -102.3245316 13.52635956 260.8471069

endloop
endfacet
facet normal -0.8320028782 0.3115807176 0.4590082467
outer loop
vertex -102.2864761 13.43421173 260.9786377
vertex -102.3245316 13.52635956 260.8471069
vertex -103.0595169 12.25528717 260.3776855

endloop
endfacet
facet normal -0.8527077436 0.3497761488 0.3880028427
outer loop
vertex -103.0595169 12.25528717 260.3776855
vertex -102.3245316 13.52635956 260.8471069
vertex -103.0882263 12.3373642 260.2406006

endloop
endfacet
facet normal -0.8889006376 0.2863264382 0.3575930893
outer loop
vertex -103.0595169 12.25528717 260.3776855
vertex -103.0882263 12.3373642 260.2406006
vertex -103.6799164 10.998909 259.8414917

endloop
endfacet
facet normal -0.8962261081 0.2982900441 0.3283318281
outer loop
vertex -103.6799164 10.998909 259.8414917
vertex -103.0882263 12.3373642 260.2406006
vertex -103.7089386 11.06491947 259.702301

endloop
endfacet
facet normal -0.9446144104 0.1728882641 0.2789500356
outer loop
vertex -103.6799164 10.998909 259.8414917
vertex -103.7089386 11.06491947 259.702301
vertex -104.0641403 9.619392395 259.3953857

endloop
endfacet
facet normal -0.9507332444 0.1800337881 0.252377063
outer loop
vertex -104.0641403 9.619392395 259.3953857
vertex -103.7089386 11.06491947 259.702301
vertex -104.0921249 9.664207458 259.2579956

endloop
endfacet
facet normal -0.9731571674 0.0670709312 0.2201514989
outer loop
vertex -104.0641251 9.619422913 259.3954163
vertex -104.0921173 9.664237976 259.2580261
vertex -104.2508392 8.181373596 259.0081787

endloop
endfacet
facet normal -0.9385435581 0.04275098816 0.3425031006
outer loop
vertex -104.2508392 8.181373596 259.0081787
vertex -104.0921173 9.664237976 259.2580261
vertex -104.2953949 8.22568512 258.8805542

endloop
endfacet
facet normal -0.9391690493 0.03859807178 0.3412795663
outer loop
vertex -104.2508392 8.181373596 259.0081787
vertex -104.2953949 8.22568512 258.8805542
vertex -104.4672546 6.777397156 258.5714111

endloop
endfacet
facet normal -0.8499677777 -0.01156732626 0.5267077088
outer loop
vertex -104.4672546 6.777397156 258.5714111
vertex -104.2953949 8.22568512 258.8805542
vertex -104.5357208 6.834952831 258.4621887

endloop
endfacet
facet normal -0.8412442207 0.02424584702 0.5401113629
outer loop
vertex -104.4672546 6.777397156 258.5714111
vertex -104.5357208 6.834952831 258.4621887
vertex -104.8283005 5.423973083 258.0698242

endloop
endfacet
facet normal -0.7444093227 -0.03111841343 0.666998148
outer loop
vertex -104.8283005 5.423973083 258.0698242
vertex -104.5357208 6.834952831 258.4621887
vertex -104.9135818 5.491233826 257.9777832

endloop
endfacet
facet normal -0.7354428172 -0.005288424902 0.6775661111
outer loop
vertex -104.8283005 5.423973083 258.0698242
vertex -104.9135818 5.491233826 257.9777832
vertex -105.2809601 4.128760815 257.5683899

endloop
endfacet
facet normal -0.6883371472 -0.03214618191 0.724678278
outer loop
vertex -105.2809601 4.128760815 257.5683899
vertex -104.9135818 5.491233826 257.9777832
vertex -105.3732529 4.195899963 257.4837036

endloop
endfacet
facet normal -0.6842998266 -0.02128317021 0.728890121
outer loop
vertex -105.2809601 4.128760815 257.5683899
vertex -105.3732529 4.195899963 257.4837036
vertex -105.7043457 2.934974909 257.1360474

endloop
endfacet
facet normal -0.7059336305 -0.009900422767 0.7082087994
outer loop
vertex -105.7043457 2.934974909 257.1360474
vertex -105.3732529 4.195899963 257.4837036
vertex -105.7984619 2.996299982 257.0430908

endloop
endfacet
facet normal -0.7185868025 -0.05117848516 0.6935516
outer loop
vertex -105.7043457 2.934958935 257.1360779
vertex -105.7984619 2.996299982 257.0430908
vertex -106.0346375 1.487769961 256.6870728

endloop
endfacet
facet normal -0.7715374231 -0.02919143811 0.6355138421
outer loop
vertex -106.0346375 1.487769961 256.6870728
vertex -105.7984619 2.996299982 257.0430908
vertex -106.1363297 1.549872994 256.5664673

endloop
endfacet
facet normal -0.7991729975 -0.3179644048 0.5101187229
outer loop
vertex -106.0346375 1.487769961 256.6870728
vertex -106.1363297 1.549872994 256.5664673
vertex -105.968399 0.2582629919 256.0244751

endloop
endfacet
facet normal -0.9555903077 0 -0.2946984768
outer loop
vertex -105.968399 0.2582629919 256.0244751
vertex -106.1363297 1.549872994 256.5664673
vertex -105.968399 0.2582780123 256.0244751

endloop
endfacet
facet normal -0.1939623803 0 -0.9810090065
outer loop
vertex -90.07820129 20.73236847 262.5899963
vertex -90.07820129 20.73235321 262.5899963
vertex -91.40236664 20.84157562 262.8518066

endloop
endfacet
facet normal 0.1594485193 0.8851216435 0.4371908605
outer loop
vertex -91.40236664 20.84157562 262.8518066
vertex -90.07820129 20.73235321 262.5899963
vertex -91.41085052 21.00479889 262.5244446

endloop
endfacet
facet normal -0.3759058416 0.8253643513 0.4212699533
outer loop
vertex -91.40236664 20.84157562 262.8518066
vertex -91.41085052 21.00479889 262.5244446
vertex -92.94805145 20.24868011 262.6341858

endloop
endfacet
facet normal -0.3622454405 0.8047136068 0.4703342617
outer loop
vertex -92.94805145 20.24868011 262.6341858
vertex -91.41085052 21.00479889 262.5244446
vertex -92.97320557 20.40607452 262.34552

endloop
endfacet
facet normal -0.3268812597 0.817478478 0.4742126167
outer loop
vertex -92.94805145 20.24868011 262.6341858
vertex -92.97320557 20.40607452 262.34552
vertex -94.35968781 19.7277298 262.5591736

endloop
endfacet
facet normal -0.31835711 0.807236135 0.497009635
outer loop
vertex -94.35968781 19.7277298 262.5591736
vertex -92.97320557 20.40607452 262.34552
vertex -94.40631866 19.88021088 262.2816467

endloop
endfacet
facet normal -0.3241611719 0.8050593138 0.49678877
outer loop
vertex -94.35968781 19.7277298 262.5591736
vertex -94.40631866 19.88021088 262.2816467
vertex -95.75382233 19.16580963 262.5600891

endloop
endfacet
facet normal -0.3210542202 0.8019353151 0.5038093925
outer loop
vertex -95.75382233 19.16580963 262.5600891
vertex -94.40631866 19.88021088 262.2816467
vertex -95.81925201 19.31465912 262.2814636

endloop
endfacet
facet normal -0.4197446406 0.7559158206 0.502399981
outer loop
vertex -95.75382233 19.16580963 262.5600891
vertex -95.81925201 19.31465912 262.2814636
vertex -97.07962799 18.45543671 262.5212402

endloop
endfacet
facet normal -0.4278689921 0.762891233 0.4846906066
outer loop
vertex -97.07962799 18.45543671 262.5212402
vertex -95.81925201 19.31465912 262.2814636
vertex -97.15207672 18.59438324 262.2385864

endloop
endfacet
facet normal -0.5360469818 0.6950778961 0.4790828228
outer loop
vertex -97.07962799 18.45543671 262.5212402
vertex -97.15207672 18.59438324 262.2385864
vertex -98.2874527 17.60845184 262.3986511

endloop
endfacet
facet normal -0.5507630706 0.7064195275 0.4445576966
outer loop
vertex -98.2874527 17.60845184 262.3986511
vertex -97.15207672 18.59438324 262.2385864
vertex -98.35372925 17.73703766 262.1122131

endloop
endfacet
facet normal -0.629571557 0.6439268589 0.4347387552
outer loop
vertex -98.2874527 17.60845184 262.3986511
vertex -98.35372925 17.73703766 262.1122131
vertex -99.39612579 16.67597198 262.1742859

endloop
endfacet
facet normal -0.6439241171 0.6556610465 0.3942973614
outer loop
vertex -99.39612579 16.67597198 262.1742859
vertex -98.35372925 17.73703766 262.1122131
vertex -99.44545746 16.79399872 261.8974609

endloop
endfacet
facet normal -0.6901631951 0.6131286621 0.3843800724
outer loop
vertex -99.39611816 16.67597198 262.1743164
vertex -99.44545746 16.79399872 261.8974609
vertex -100.4479294 15.69138336 261.8562927

endloop
endfacet
facet normal -0.700294435 0.6237276196 0.3472052813
outer loop
vertex -100.4479294 15.69138336 261.8562927
vertex -99.44545746 16.79399872 261.8974609
vertex -100.477417 15.79270172 261.6148071

endloop
endfacet
facet normal -0.7475814223 0.574942112 0.3325108588
outer loop
vertex -100.4479294 15.69138336 261.8562927
vertex -100.477417 15.79270172 261.6148071
vertex -101.4443054 14.65016937 261.4165039

endloop
endfacet
facet normal -0.7602447271 0.6002474427 0.2484571189
outer loop
vertex -101.4443054 14.65016937 261.4165039
vertex -100.477417 15.79270172 261.6148071
vertex -101.446991 14.72873688 261.2184753

endloop
endfacet
facet normal -0.8190140724 0.529437542 0.2211604714
outer loop
vertex -101.4442902 14.65018463 261.4165344
vertex -101.4469757 14.72875214 261.2185059
vertex -102.3245316 13.52635956 260.8471069

endloop
endfacet
facet normal -0.8166379929 0.571801126 0.0783957243
outer loop
vertex -102.3245316 13.52635956 260.8471069
vertex -101.4469757 14.72875214 261.2185059
vertex -102.2970123 13.58956146 260.6727905

endloop
endfacet
facet normal -0.8524551392 0.5200077891 0.05396264419
outer loop
vertex -102.3245316 13.52635956 260.8471069
vertex -102.2970123 13.58956146 260.6727905
vertex -103.0882263 12.3373642 260.2406006

endloop
endfacet
facet normal -0.8405126929 0.5410259962 -0.02879702672
outer loop
vertex -103.0882263 12.3373642 260.2406006
vertex -102.2970123 13.58956146 260.6727905
vertex -103.0460892 12.39373016 260.0697021

endloop
endfacet
facet normal -0.8853880763 0.4600619078 -0.06656524539
outer loop
vertex -103.0882263 12.3373642 260.2406006
vertex -103.0460892 12.39373016 260.0697021
vertex -103.7089386 11.06491947 259.702301

endloop
endfacet
facet normal -0.8801026344 0.4652267694 -0.09478135407
outer loop
vertex -103.7089386 11.06491947 259.702301
vertex -103.0460892 12.39373016 260.0697021
vertex -103.6664886 11.11109161 259.5347595

endloop
endfacet
facet normal -0.9395879507 0.3058188856 -0.153783679
outer loop
vertex -103.7089386 11.06491947 259.702301
vertex -103.6664886 11.11109161 259.5347595
vertex -104.0921249 9.664207458 259.2579956

endloop
endfacet
facet normal -0.9324476719 0.3098493218 -0.185835585
outer loop
vertex -104.0921249 9.664207458 259.2579956
vertex -103.6664886 11.11109161 259.5347595
vertex -104.0496216 9.699043274 259.1028137

endloop
endfacet
facet normal -0.9565839171 0.1925771087 -0.2187719643
outer loop
vertex -104.0921173 9.664237976 259.2580261
vertex -104.049614 9.699073792 259.1028442
vertex -104.2953949 8.22568512 258.8805542

endloop
endfacet
facet normal -0.9783032537 0.1789460629 -0.1044076309
outer loop
vertex -104.2953949 8.22568512 258.8805542
vertex -104.049614 9.699073792 259.1028442
vertex -104.2729111 8.2657547 258.7385559

endloop
endfacet
facet normal -0.9752096534 0.1981520206 -0.09849820286
outer loop
vertex -104.2953949 8.22568512 258.8805542
vertex -104.2729111 8.2657547 258.7385559
vertex -104.5357208 6.834952831 258.4621887

endloop
endfacet
facet normal -0.9811008573 0.1588737071 0.1104546487
outer loop
vertex -104.5357208 6.834952831 258.4621887
vertex -104.2729111 8.2657547 258.7385559
vertex -104.5420837 6.888907909 258.328064

endloop
endfacet
facet normal -0.9654449224 0.2226838917 0.1353812069
outer loop
vertex -104.5357208 6.834952831 258.4621887
vertex -104.5420837 6.888907909 258.328064
vertex -104.9135818 5.491233826 257.9777832

endloop
endfacet
facet normal -0.9392052293 0.1757083684 0.2949917018
outer loop
vertex -104.9135818 5.491233826 257.9777832
vertex -104.5420837 6.888907909 258.328064
vertex -104.9420547 5.554328918 257.8495483

endloop
endfacet
facet normal -0.9271664619 0.2109141797 0.3096409738
outer loop
vertex -104.9135818 5.491233826 257.9777832
vertex -104.9420547 5.554328918 257.8495483
vertex -105.3732529 4.195899963 257.4837036

endloop
endfacet
facet normal -0.908092618 0.1873913854 0.3745028377
outer loop
vertex -105.3732529 4.195899963 257.4837036
vertex -104.9420547 5.554328918 257.8495483
vertex -105.4118652 4.25890398 257.358551

endloop
endfacet
facet normal -0.908972919 0.1849841774 0.3735627234
outer loop
vertex -105.3732529 4.195899963 257.4837036
vertex -105.4118652 4.25890398 257.358551
vertex -105.7984619 2.996299982 257.0430908

endloop
endfacet
facet normal -0.9185267687 0.1953667104 0.3437155485
outer loop
vertex -105.7984619 2.996299982 257.0430908
vertex -105.4118652 4.25890398 257.358551
vertex -105.8358078 3.053841114 256.9105835

endloop
endfacet
facet normal -0.9417264462 0.1159226224 0.3157740533
outer loop
vertex -105.7984619 2.996299982 257.0430908
vertex -105.8358002 3.053841114 256.910614
vertex -106.1363297 1.549872994 256.5664673

endloop
endfacet
facet normal -0.9655730128 0.1432600617 0.2171299458
outer loop
vertex -106.1363297 1.549872994 256.5664673
vertex -105.8358002 3.053841114 256.910614
vertex -106.1638489 1.606438041 256.4067688

endloop
endfacet
facet normal -0.9791167378 -0.1724688411 0.1076329798
outer loop
vertex -106.1363297 1.549872994 256.5664673
vertex -106.1638489 1.606438041 256.4067688
vertex -105.968399 0.2582780123 256.0244751

endloop
endfacet
facet normal -nan(ind) -nan(ind) -nan(ind)
outer loop
vertex -105.968399 0.2582780123 256.0244751
vertex -106.1638489 1.606438041 256.4067688
vertex -105.968399 0.2582780123 256.0244751

endloop
endfacet
facet normal -nan(ind) -nan(ind) -nan(ind)
outer loop
vertex -90.07820129 20.73235321 262.5899963
vertex -90.07820129 20.73235321 262.5899963
vertex -91.41085052 21.00479889 262.5244446

endloop
endfacet
facet normal 0.1998918205 0.9797818661 0.008415405639
outer loop
vertex -91.41085052 21.00479889 262.5244446
vertex -90.07820129 20.73235321 262.5899963
vertex -91.35378265 20.99642181 262.1442261

endloop
endfacet
facet normal -0.3495815694 0.9340538383 -0.07304883003
outer loop
vertex -91.41085052 21.00479889 262.5244446
vertex -91.35378265 20.99642181 262.1442261
vertex -92.97320557 20.40607452 262.34552

endloop
endfacet
facet normal -0.3433046937 0.9391943812 -0.007474657148
outer loop
vertex -92.97320557 20.40607452 262.34552
vertex -91.35378265 20.99642181 262.1442261
vertex -92.93904877 20.41565704 261.9807739

endloop
endfacet
facet normal -0.3441721499 0.938876152 -0.007564223371
outer loop
vertex -92.97320557 20.40607452 262.34552
vertex -92.93904877 20.41565704 261.9807739
vertex -94.40631866 19.88021088 262.2816467

endloop
endfacet
facet normal -0.3393256366 0.9404785633 0.01892274432
outer loop
vertex -94.40631866 19.88021088 262.2816467
vertex -92.93904877 20.41565704 261.9807739
vertex -94.3996048 19.8897934 261.9257812

endloop
endfacet
facet normal -0.3715469241 0.9282399416 0.01798533835
outer loop
vertex -94.40631866 19.88021088 262.2816467
vertex -94.3996048 19.8897934 261.9257812
vertex -95.81925201 19.31465912 262.2814636

endloop
endfacet
facet normal -0.3691590726 0.9289252162 0.02862416767
outer loop
vertex -95.81925201 19.31465912 262.2814636
vertex -94.3996048 19.8897934 261.9257812
vertex -95.82350922 19.32402802 261.9225159

endloop
endfacet
facet normal -0.4759475887 0.8790088892 0.02858786285
outer loop
vertex -95.81925201 19.31465912 262.2814636
vertex -95.82350922 19.32402802 261.9225159
vertex -97.15207672 18.59438324 262.2385864

endloop
endfacet
facet normal -0.4799725711 0.8772504926 0.00761000393
outer loop
vertex -97.15207672 18.59438324 262.2385864
vertex -95.82350922 19.32402802 261.9225159
vertex -97.14170837 18.6031723 261.879364

endloop
endfacet
facet normal -0.5810157061 0.8138862252 0.003143245587
outer loop
vertex -97.15207672 18.59438324 262.2385864
vertex -97.14170837 18.6031723 261.879364
vertex -98.35372925 17.73703766 262.1122131

endloop
endfacet
facet normal -0.5858687758 0.8094928861 -0.03846000135
outer loop
vertex -98.35372925 17.73703766 262.1122131
vertex -97.14170837 18.6031723 261.879364
vertex -98.31922913 17.74514008 261.7572021

endloop
endfacet
facet normal -0.6478597522 0.7603932619 -0.04560482875
outer loop
vertex -98.35372925 17.73703766 262.1122131
vertex -98.31922913 17.74514008 261.7572021
vertex -99.44545746 16.79399872 261.8974609

endloop
endfacet
facet normal -0.6491470933 0.7550919652 -0.09189209342
outer loop
vertex -99.44545746 16.79399872 261.8974609
vertex -98.31922913 17.74514008 261.7572021
vertex -99.3894577 16.80142975 261.5629272

endloop
endfacet
facet normal -0.6791532636 0.7274861932 -0.09754361957
outer loop
vertex -99.44545746 16.79399872 261.8974609
vertex -99.38945007 16.80142975 261.5629272
vertex -100.477417 15.79270172 261.6148071

endloop
endfacet
facet normal -0.6769397259 0.7230300307 -0.1377680898
outer loop
vertex -100.477417 15.79270172 261.6148071
vertex -99.38945007 16.80142975 261.5629272
vertex -100.4124527 15.7990799 261.329071

endloop
endfacet
facet normal -0.7039763927 0.6953614354 -0.1445326507
outer loop
vertex -100.477417 15.79270172 261.6148071
vertex -100.4124527 15.7990799 261.329071
vertex -101.446991 14.72873688 261.2184753

endloop
endfacet
facet normal -0.6869722009 0.6881254315 -0.2335647941
outer loop
vertex -101.446991 14.72873688 261.2184753
vertex -100.4124527 15.7990799 261.329071
vertex -101.3664932 14.73368073 260.9962769

endloop
endfacet
facet normal -0.7170269489 0.6524918675 -0.2452076077
outer loop
vertex -101.4469757 14.72875214 261.2185059
vertex -101.3664932 14.73368073 260.9962769
vertex -102.2970123 13.58956146 260.6727905

endloop
endfacet
facet normal -0.6589770317 0.645240128 -0.3865416646
outer loop
vertex -102.2970123 13.58956146 260.6727905
vertex -101.3664932 14.73368073 260.9962769
vertex -102.1889114 13.59354401 260.4951477

endloop
endfacet
facet normal -0.6746225953 0.6225886345 -0.3965700269
outer loop
vertex -102.2970123 13.58956146 260.6727905
vertex -102.1889114 13.59354401 260.4951477
vertex -103.0460892 12.39373016 260.0697021

endloop
endfacet
facet normal -0.630286634 0.6172627807 -0.47087726
outer loop
vertex -103.0460892 12.39373016 260.0697021
vertex -102.1889114 13.59354401 260.4951477
vertex -102.9208069 12.39731598 259.9067078

endloop
endfacet
facet normal -0.6743118763 0.5373899937 -0.5064736009
outer loop
vertex -103.0460892 12.39373016 260.0697021
vertex -102.9208069 12.39731598 259.9067078
vertex -103.6664886 11.11109161 259.5347595

endloop
endfacet
facet normal -0.6641141772 0.535798192 -0.5214141011
outer loop
vertex -103.6664886 11.11109161 259.5347595
vertex -102.9208069 12.39731598 259.9067078
vertex -103.5406113 11.11618805 259.3796692

endloop
endfacet
facet normal -0.7261929512 0.373583138 -0.5771302581
outer loop
vertex -103.6664886 11.11109161 259.5347595
vertex -103.5406113 11.11618805 259.3796692
vertex -104.0496216 9.699043274 259.1028137

endloop
endfacet
facet normal -0.7167190909 0.3725931942 -0.5894812346
outer loop
vertex -104.0496216 9.699043274 259.1028137
vertex -103.5406113 11.11618805 259.3796692
vertex -103.9282837 9.712089539 258.9635315

endloop
endfacet
facet normal -0.738045752 0.2719298601 -0.6175294518
outer loop
vertex -104.049614 9.699073792 259.1028442
vertex -103.9282684 9.712120056 258.963562
vertex -104.2729111 8.2657547 258.7385559

endloop
endfacet
facet normal -0.8178852201 0.2736277878 -0.5061535835
outer loop
vertex -104.2729111 8.2657547 258.7385559
vertex -103.9282684 9.712120056 258.963562
vertex -104.1779327 8.295280457 258.6010437

endloop
endfacet
facet normal -0.812699616 0.3066074848 -0.4954908192
outer loop
vertex -104.2729111 8.2657547 258.7385559
vertex -104.1779327 8.295280457 258.6010437
vertex -104.5420837 6.888907909 258.328064

endloop
endfacet
facet normal -0.908765316 0.2929856479 -0.2971615493
outer loop
vertex -104.5420837 6.888907909 258.328064
vertex -104.1779327 8.295280457 258.6010437
vertex -104.4798126 6.933113098 258.1812134

endloop
endfacet
facet normal -0.8919217587 0.3636656404 -0.2687429488
outer loop
vertex -104.5420837 6.888907909 258.328064
vertex -104.4798126 6.933113098 258.1812134
vertex -104.9420547 5.554328918 257.8495483

endloop
endfacet
facet normal -0.9342701435 0.3394627869 -0.1091068387
outer loop
vertex -104.9420547 5.554328918 257.8495483
vertex -104.4798126 6.933113098 258.1812134
vertex -104.9052887 5.606070995 257.6957092

endloop
endfacet
facet normal -0.9235622287 0.3712760508 -0.09584783018
outer loop
vertex -104.9420547 5.554328918 257.8495483
vertex -104.9052887 5.606070995 257.6957092
vertex -105.4118652 4.25890398 257.358551

endloop
endfacet
facet normal -0.9334298968 0.357745558 -0.02695871703
outer loop
vertex -105.4118652 4.25890398 257.358551
vertex -104.9052887 5.606070995 257.6957092
vertex -105.3875656 4.310554981 257.2026062

endloop
endfacet
facet normal -0.938931942 0.3425309658 -0.03285536543
outer loop
vertex -105.4118652 4.25890398 257.358551
vertex -105.3875656 4.310554981 257.2026062
vertex -105.8358078 3.053841114 256.9105835

endloop
endfacet
facet normal -0.9350371361 0.3485720456 -0.06483151764
outer loop
vertex -105.8358078 3.053841114 256.9105835
vertex -105.3875656 4.310554981 257.2026062
vertex -105.8070908 3.100898981 256.7494202

endloop
endfacet
facet normal -0.9627056718 0.2522464097 -0.09782344103
outer loop
vertex -105.8358002 3.053841114 256.910614
vertex -105.8070908 3.100898981 256.7494202
vertex -106.1638489 1.606438041 256.4067688

endloop
endfacet
facet normal -0.9343331456 0.2750189006 -0.2266853452
outer loop
vertex -106.1638489 1.606438041 256.4067688
vertex -105.8070908 3.100898981 256.7494202
vertex -106.109787 1.647606015 256.2338867

endloop
endfacet
facet normal -0.9497653246 -0.05009047687 -0.3089286685
outer loop
vertex -106.1638489 1.606438041 256.4067688
vertex -106.109787 1.647606015 256.2338867
vertex -105.968399 0.2582780123 256.0244751

endloop
endfacet
facet normal 0.830842495 0 0.5565077066
outer loop
vertex -105.968399 0.2582780123 256.0244751
vertex -106.109787 1.647606015 256.2338867
vertex -105.968399 0.2582629919 256.0244751

endloop
endfacet
facet normal -nan(ind) -nan(ind) -nan(ind)
outer loop
vertex -90.07820129 20.73235321 262.5899963
vertex -90.07820129 20.73235321 262.5899963
vertex -91.35378265 20.99642181 262.1442261

endloop
endfacet
facet normal 0.3150190413 0.8659463525 -0.3884583116
outer loop
vertex -91.35378265 20.99642181 262.1442261
vertex -90.07820129 20.73235321 262.5899963
vertex -91.25531769 20.82910919 261.8511047

endloop
endfacet
facet normal -0.2396437675 0.8063259721 -0.5407488346
outer loop
vertex -91.35378265 20.99642181 262.1442261
vertex -91.25531769 20.82910919 261.8511047
vertex -92.93904877 20.41565704 261.9807739

endloop
endfacet
facet normal -0.2435213029 0.8392184377 -0.4862197638
outer loop
vertex -92.93904877 20.41565704 261.9807739
vertex -91.25531769 20.82910919 261.8511047
vertex -92.85775757 20.26906586 261.6870422

endloop
endfacet
facet normal -0.2790175676 0.8261471987 -0.4895201325
outer loop
vertex -92.93904877 20.41565704 261.9807739
vertex -92.85775757 20.26906586 261.6870422
vertex -94.3996048 19.8897934 261.9257812

endloop
endfacet
facet normal -0.2787196934 0.8397112489 -0.466047734
outer loop
vertex -94.3996048 19.8897934 261.9257812
vertex -92.85775757 20.26906586 261.6870422
vertex -94.34059143 19.74808502 261.6351624

endloop
endfacet
facet normal -0.3255910873 0.822134912 -0.4669952095
outer loop
vertex -94.3996048 19.8897934 261.9257812
vertex -94.34059143 19.74808502 261.6351624
vertex -95.82350922 19.32402802 261.9225159

endloop
endfacet
facet normal -0.3252603114 0.8283492327 -0.45611763
outer loop
vertex -95.82350922 19.32402802 261.9225159
vertex -94.34059143 19.74808502 261.6351624
vertex -95.76288605 19.18570709 261.6280823

endloop
endfacet
facet normal -0.4156229794 0.7872959375 -0.4554367661
outer loop
vertex -95.82350922 19.32402802 261.9225159
vertex -95.76288605 19.18570709 261.6280823
vertex -97.14170837 18.6031723 261.879364

endloop
endfacet
facet normal -0.4144948125 0.7760289907 -0.4753661156
outer loop
vertex -97.14170837 18.6031723 261.879364
vertex -95.76288605 19.18570709 261.6280823
vertex -97.05013275 18.47400665 261.5886536

endloop
endfacet
facet normal -0.4843055904 0.7327073812 -0.4781087339
outer loop
vertex -97.14170837 18.6031723 261.879364
vertex -97.05013275 18.47400665 261.5886536
vertex -98.31922913 17.74514008 261.7572021

endloop
endfacet
facet normal -0.4771977663 0.7116692662 -0.5155668259
outer loop
vertex -98.31922913 17.74514008 261.7572021
vertex -97.05013275 18.47400665 261.5886536
vertex -98.19490051 17.62561798 261.4771423

endloop
endfacet
facet normal -0.5103192329 0.6856085062 -0.5191485882
outer loop
vertex -98.31922913 17.74514008 261.7572021
vertex -98.19490051 17.62561798 261.4771423
vertex -99.3894577 16.80142975 261.5629272

endloop
endfacet
facet normal -0.4979038835 0.6635273099 -0.5584113598
outer loop
vertex -99.3894577 16.80142975 261.5629272
vertex -98.19490051 17.62561798 261.4771423
vertex -99.24777222 16.6917038 261.3062134

endloop
endfacet
facet normal -0.5106713176 0.6519623399 -0.5604996085
outer loop
vertex -99.38945007 16.80142975 261.5629272
vertex -99.24777222 16.6917038 261.3062134
vertex -100.4124527 15.7990799 261.329071

endloop
endfacet
facet normal -0.4968212545 0.6330420375 -0.5936552286
outer loop
vertex -100.4124527 15.7990799 261.329071
vertex -99.24777222 16.6917038 261.3062134
vertex -100.2766647 15.70488739 261.1149902

endloop
endfacet
facet normal -0.4982213378 0.631672442 -0.5939404964
outer loop
vertex -100.4124527 15.7990799 261.329071
vertex -100.2766647 15.70488739 261.1149902
vertex -101.3664932 14.73368073 260.9962769

endloop
endfacet
facet normal -0.4547446072 0.5916562676 -0.6656953096
outer loop
vertex -101.3664932 14.73368073 260.9962769
vertex -100.2766647 15.70488739 261.1149902
vertex -101.233223 14.66065216 260.840332

endloop
endfacet
facet normal -0.4400830865 0.6079236269 -0.6608749628
outer loop
vertex -101.3664932 14.73368073 260.9962769
vertex -101.2332153 14.66066742 260.8403625
vertex -102.1889114 13.59354401 260.4951477

endloop
endfacet
facet normal -0.3405836523 0.5513859987 -0.7615616322
outer loop
vertex -102.1889114 13.59354401 260.4951477
vertex -101.2332153 14.66066742 260.8403625
vertex -102.0420685 13.53478241 260.3869324

endloop
endfacet
facet normal -0.3268707693 0.5705892444 -0.7533812523
outer loop
vertex -102.1889114 13.59354401 260.4951477
vertex -102.0420685 13.53478241 260.3869324
vertex -102.9208069 12.39731598 259.9067078

endloop
endfacet
facet normal -0.263230443 0.5406779647 -0.7989850044
outer loop
vertex -102.9208069 12.39731598 259.9067078
vertex -102.0420685 13.53478241 260.3869324
vertex -102.7611008 12.34500885 259.8186951

endloop
endfacet
facet normal -0.2962602079 0.4824384153 -0.8243076205
outer loop
vertex -102.9208069 12.39731598 259.9067078
vertex -102.7611008 12.34500885 259.8186951
vertex -103.5406113 11.11618805 259.3796692

endloop
endfacet
facet normal -0.2746543586 0.4732697308 -0.8370070457
outer loop
vertex -103.5406113 11.11618805 259.3796692
vertex -102.7611008 12.34500885 259.8186951
vertex -103.3766022 11.07584381 259.3030396

endloop
endfacet
facet normal -0.3244739473 0.3500252962 -0.8787485361
outer loop
vertex -103.5406113 11.11618805 259.3796692
vertex -103.3766022 11.07584381 259.3030396
vertex -103.9282837 9.712089539 258.9635315

endloop
endfacet
facet normal -0.2963235974 0.3418865502 -0.8917992115
outer loop
vertex -103.9282837 9.712089539 258.9635315
vertex -103.3766022 11.07584381 259.3030396
vertex -103.7583923 9.694877625 258.9004822

endloop
endfacet
facet normal -0.3076971471 0.2863815725 -0.907363236
outer loop
vertex -103.9282684 9.712120056 258.963562
vertex -103.7583771 9.694892883 258.9005127
vertex -104.1779327 8.295280457 258.6010437

endloop
endfacet
facet normal -0.4336779416 0.3109552264 -0.845712781
outer loop
vertex -104.1779327 8.295280457 258.6010437
vertex -103.7583771 9.694892883 258.9005127
vertex -104.0108643 8.300285339 258.5172119

endloop
endfacet
facet normal -0.4282597303 0.3514910042 -0.8324948549
outer loop
vertex -104.1779327 8.295280457 258.6010437
vertex -104.0108643 8.300285339 258.5172119
vertex -104.4798126 6.933113098 258.1812134

endloop
endfacet
facet normal -0.6011606455 0.3790920377 -0.7034878135
outer loop
vertex -104.4798126 6.933113098 258.1812134
vertex -104.0108643 8.300285339 258.5172119
vertex -104.3322525 6.947776794 258.0630188

endloop
endfacet
facet normal -0.588260293 0.4374413192 -0.6801432967
outer loop
vertex -104.4798126 6.933113098 258.1812134
vertex -104.3322525 6.947776794 258.0630188
vertex -104.9052887 5.606070995 257.6957092

endloop
endfacet
facet normal -0.6976224184 0.450473547 -0.5571324229
outer loop
vertex -104.9052887 5.606070995 257.6957092
vertex -104.3322525 6.947776794 258.0630188
vertex -104.7800064 5.623299122 257.5527649

endloop
endfacet
facet normal -0.6920998096 0.4670978487 -0.550288558
outer loop
vertex -104.9052887 5.606070995 257.6957092
vertex -104.7800064 5.623299122 257.5527649
vertex -105.3875656 4.310554981 257.2026062

endloop
endfacet
facet normal -0.7325004339 0.4703011513 -0.4921990335
outer loop
vertex -105.3875656 4.310554981 257.2026062
vertex -104.7800064 5.623299122 257.5527649
vertex -105.274231 4.327765942 257.0503845

endloop
endfacet
facet normal -0.7416052222 0.4451993406 -0.5018159747
outer loop
vertex -105.3875656 4.310554981 257.2026062
vertex -105.274231 4.327765942 257.0503845
vertex -105.8070908 3.100898981 256.7494202

endloop
endfacet
facet normal -0.7241382599 0.4439729154 -0.5277422071
outer loop
vertex -105.8070908 3.100898981 256.7494202
vertex -105.274231 4.327765942 257.0503845
vertex -105.6862946 3.116508007 256.5968018

endloop
endfacet
facet normal -0.750565052 0.3542146981 -0.557838738
outer loop
vertex -105.8070908 3.100898981 256.7494202
vertex -105.6862946 3.116508007 256.5968018
vertex -106.109787 1.647606015 256.2338867

endloop
endfacet
facet normal -0.6710997224 0.3543682694 -0.6511898637
outer loop
vertex -106.109787 1.647606015 256.2338867
vertex -105.6862946 3.116508007 256.5968018
vertex -105.9682312 1.657493949 256.0933838

endloop
endfacet
facet normal -0.7052608132 0.03495607898 -0.7080855966
outer loop
vertex -106.109787 1.647606015 256.2338867
vertex -105.9682312 1.657493949 256.0933838
vertex -105.968399 0.2582629919 256.0244751

endloop
endfacet
facet normal -nan(ind) -nan(ind) -nan(ind)
outer loop
vertex -105.968399 0.2582629919 256.0244751
vertex -105.9682312 1.657493949 256.0933838
vertex -105.968399 0.2582629919 256.0244751

endloop
endfacet
facet normal -0.499953419 0.2499767095 0.8291912675
outer loop
vertex -90.07820892 20.73233795 262.5899963
vertex -90.07820129 20.73235321 262.5899963
vertex -91.25531769 20.82907867 261.8511047

endloop
endfacet
facet normal 0.4715783 0.5646336675 -0.6773498058
outer loop
vertex -91.25531769 20.82907867 261.8511047
vertex -90.07820129 20.73235321 262.5899963
vertex -91.12975311 20.52750397 261.6871338

endloop
endfacet
facet normal -0.06793319434 0.4545921087 -0.8881053329
outer loop
vertex -91.25531769 20.82907867 261.8511047
vertex -91.12975311 20.52750397 261.6871338
vertex -92.8577652 20.26903534 261.6870117

endloop
endfacet
facet normal -0.07530586421 0.5038695931 -0.8604908586
outer loop
vertex -92.8577652 20.26903534 261.6870117
vertex -91.12975311 20.52750397 261.6871338
vertex -92.74176788 19.98784637 261.512207

endloop
endfacet
facet normal -0.1387087554 0.4809547663 -0.8657034039
outer loop
vertex -92.8577652 20.26903534 261.6870117
vertex -92.74176788 19.98784637 261.512207
vertex -94.34059906 19.7480545 261.6351624

endloop
endfacet
facet normal -0.1410748959 0.5035755634 -0.8523553014
outer loop
vertex -94.34059906 19.7480545 261.6351624
vertex -92.74176788 19.98784637 261.512207
vertex -94.23804474 19.47589874 261.4573975

endloop
endfacet
facet normal -0.1880853921 0.4864340127 -0.8532325625
outer loop
vertex -94.34059906 19.7480545 261.6351624
vertex -94.23804474 19.47589874 261.4573975
vertex -95.76288605 19.18569183 261.6280823

endloop
endfacet
facet normal -0.1893139482 0.4964572191 -0.8471661806
outer loop
vertex -95.76288605 19.18569183 261.6280823
vertex -94.23804474 19.47589874 261.4573975
vertex -95.64626312 18.92005157 261.4463501

endloop
endfacet
facet normal -0.2369649708 0.4755434394 -0.8471754193
outer loop
vertex -95.76288605 19.18569183 261.6280823
vertex -95.64626312 18.92005157 261.4463501
vertex -97.05014038 18.47400665 261.5886536

endloop
endfacet
facet normal -0.2319730818 0.4559887052 -0.8592221737
outer loop
vertex -97.05014038 18.47400665 261.5886536
vertex -95.64626312 18.92005157 261.4463501
vertex -96.89104462 18.22595978 261.4140625

endloop
endfacet
facet normal -0.2472396493 0.4466520548 -0.8598688841
outer loop
vertex -97.05014038 18.47400665 261.5886536
vertex -96.89104462 18.22595978 261.4140625
vertex -98.19490051 17.62560272 261.4771118

endloop
endfacet
facet normal -0.2325826883 0.4126319587 -0.8807043433
outer loop
vertex -98.19490051 17.62560272 261.4771118
vertex -96.89104462 18.22595978 261.4140625
vertex -97.99958038 17.39608002 261.3179932

endloop
endfacet
facet normal -0.2269999087 0.4169746041 -0.8801154494
outer loop
vertex -98.19490051 17.62560272 261.4771118
vertex -97.99958038 17.39608002 261.3179932
vertex -99.24777222 16.6917038 261.3062134

endloop
endfacet
facet normal -0.2069468051 0.3817850947 -0.9007847309
outer loop
vertex -99.24777222 16.6917038 261.3062134
vertex -97.99958038 17.39608002 261.3179932
vertex -99.04206085 16.48099518 261.1696472

endloop
endfacet
facet normal -0.2025846094 0.3856478631 -0.9001306891
outer loop
vertex -99.24777985 16.6917038 261.3062134
vertex -99.04206848 16.48101044 261.1696472
vertex -100.2766724 15.70488739 261.1149902

endloop
endfacet
facet normal -0.1826741099 0.3551486135 -0.9167876244
outer loop
vertex -100.2766724 15.70488739 261.1149902
vertex -99.04206848 16.48101044 261.1696472
vertex -100.0909882 15.52404022 261.0079346

endloop
endfacet
facet normal -0.1543390453 0.3811377585 -0.9115445018
outer loop
vertex -100.2766724 15.70488739 261.1149902
vertex -100.0909882 15.52404022 261.0079346
vertex -101.2332306 14.66065216 260.840332

endloop
endfacet
facet normal -0.09828592092 0.3133832812 -0.9445267916
outer loop
vertex -101.2332306 14.66065216 260.840332
vertex -100.0909882 15.52404022 261.0079346
vertex -101.067894 14.52045441 260.7766113

endloop
endfacet
facet normal -0.02507511899 0.3888884187 -0.9209435582
outer loop
vertex -101.2332153 14.66065216 260.840332
vertex -101.0678864 14.52048492 260.7766418
vertex -102.0420761 13.53478241 260.3869324

endloop
endfacet
facet normal 0.08395285904 0.2935154736 -0.9522607327
outer loop
vertex -102.0420761 13.53478241 260.3869324
vertex -101.0678864 14.52048492 260.7766418
vertex -101.8795471 13.42195892 260.3664856

endloop
endfacet
facet normal 0.1338101625 0.3600845933 -0.9232735038
outer loop
vertex -102.0420761 13.53478241 260.3869324
vertex -101.8795471 13.42195892 260.3664856
vertex -102.7611084 12.34499359 259.8186951

endloop
endfacet
facet normal 0.1974504888 0.3112103641 -0.9296028018
outer loop
vertex -102.7611084 12.34499359 259.8186951
vertex -101.8795471 13.42195892 260.3664856
vertex -102.5921783 12.24446869 259.8209229

endloop
endfacet
facet normal 0.1856928319 0.2912555635 -0.9384500384
outer loop
vertex -102.7611084 12.34499359 259.8186951
vertex -102.5921783 12.24446869 259.8209229
vertex -103.3766098 11.07582855 259.303009

endloop
endfacet
facet normal 0.2107181847 0.2743703723 -0.9382530451
outer loop
vertex -103.3766098 11.07582855 259.303009
vertex -102.5921783 12.24446869 259.8209229
vertex -103.2017288 10.99599457 259.3189392

endloop
endfacet
facet normal 0.1901670247 0.2259298414 -0.9554015398
outer loop
vertex -103.3766098 11.07582855 259.303009
vertex -103.2017288 10.99599457 259.3189392
vertex -103.7583923 9.694862366 258.9004517

endloop
endfacet
facet normal 0.2203176767 0.2119740844 -0.9521171451
outer loop
vertex -103.7583923 9.694862366 258.9004517
vertex -103.2017288 10.99599457 259.3189392
vertex -103.5705795 9.647834778 258.9334412

endloop
endfacet
facet normal 0.2220954299 0.2208101153 -0.9496927857
outer loop
vertex -103.7583847 9.694892883 258.9004822
vertex -103.5705643 9.647865295 258.9334717
vertex -104.0108643 8.300285339 258.5171814

endloop
endfacet
facet normal 0.09072671831 0.266757369 -0.9594838023
outer loop
vertex -104.0108643 8.300285339 258.5171814
vertex -103.5705643 9.647865295 258.9334717
vertex -103.8003235 8.271048546 258.5289612

endloop
endfacet
facet normal 0.09437013417 0.2966966629 -0.9502975345
outer loop
vertex -104.0108643 8.300285339 258.5171814
vertex -103.8003235 8.271048546 258.5289612
vertex -104.3322525 6.947762012 258.0629883

endloop
endfacet
facet normal -0.1047054827 0.3674990535 -0.9241110682
outer loop
vertex -104.3322525 6.947762012 258.0629883
vertex -103.8003235 8.271048546 258.5289612
vertex -104.1187744 6.916344166 258.0263062

endloop
endfacet
facet normal -0.1005268618 0.3870691359 -0.9165542722
outer loop
vertex -104.3322525 6.947762012 258.0629883
vertex -104.1187744 6.916344166 258.0263062
vertex -104.7800064 5.623299122 257.5527649

endloop
endfacet
facet normal -0.24690862 0.4420669973 -0.8623299003
outer loop
vertex -104.7800064 5.623299122 257.5527649
vertex -104.1187744 6.916344166 258.0263062
vertex -104.5764542 5.586616993 257.4756775

endloop
endfacet
facet normal -0.2504217029 0.4315826297 -0.8666171432
outer loop
vertex -104.7800064 5.623299122 257.5527649
vertex -104.5764542 5.586616993 257.4756775
vertex -105.274231 4.32775116 257.0503845

endloop
endfacet
facet normal -0.3106722236 0.4542755187 -0.8349350691
outer loop
vertex -105.274231 4.32775116 257.0503845
vertex -104.5764542 5.586616993 257.4756775
vertex -105.0776901 4.291144848 256.9573364

endloop
endfacet
facet normal -0.3211018145 0.4259804785 -0.84583354
outer loop
vertex -105.274231 4.32775116 257.0503845
vertex -105.0776901 4.291144848 256.9573364
vertex -105.6863022 3.116492987 256.5968018

endloop
endfacet
facet normal -0.2952486277 0.4168394804 -0.8596936464
outer loop
vertex -105.6863022 3.116492987 256.5968018
vertex -105.0776901 4.291144848 256.9573364
vertex -105.4806747 3.083076 256.5099792

endloop
endfacet
facet normal -0.3117187023 0.3631887138 -0.8780235648
outer loop
vertex -105.6862946 3.116492987 256.5968018
vertex -105.4806747 3.083076 256.5099792
vertex -105.9682312 1.657477975 256.0933838

endloop
endfacet
facet normal -0.2083944827 0.3393275142 -0.9172941446
outer loop
vertex -105.9682312 1.657477975 256.0933838
vertex -105.4806747 3.083076 256.5099792
vertex -105.7530136 1.624657035 256.0323486

endloop
endfacet
facet normal -0.2658261061 0.04745145887 -0.962852478
outer loop
vertex -105.9682312 1.657477975 256.0933838
vertex -105.7530136 1.624657035 256.0323486
vertex -105.9684067 0.2582469881 256.0244751

endloop
endfacet
facet normal -0.01802524738 0.008612062782 -0.9998004436
outer loop
vertex -105.9684067 0.2582469881 256.0244751
vertex -105.7530136 1.624657035 256.0323486
vertex -105.968399 0.2582629919 256.0244751

endloop
endfacet
facet normal 0.6516199708 -0.3258099854 -0.6850103736
outer loop
vertex -90.07819366 20.73236847 262.5899963
vertex -90.07820129 20.73235321 262.5899963
vertex -91.12975311 20.52750397 261.6871338

endloop
endfacet
facet normal 0.6423052549 0.06772711128 -0.7634507418
outer loop
vertex -91.12975311 20.52750397 261.6871338
vertex -90.07820129 20.73235321 262.5899963
vertex -90.95293427 19.96450043 261.7859497

endloop
endfacet
facet normal 0.1484688371 -0.1255375594 -0.9809166193
outer loop
vertex -91.12975311 20.52750397 261.6871338
vertex -90.95293427 19.96450043 261.7859497
vertex -92.74176788 19.98786163 261.512207

endloop
endfacet
facet normal 0.1491464972 -0.1030757502 -0.983428061
outer loop
vertex -92.74176788 19.98786163 261.512207
vertex -90.95293427 19.96450043 261.7859497
vertex -92.55922699 19.43906403 261.5974121

endloop
endfacet
facet normal 0.07967039198 -0.1270030141 -0.9886975884
outer loop
vertex -92.74176788 19.98786163 261.512207
vertex -92.55922699 19.43906403 261.5974121
vertex -94.23804474 19.475914 261.4573975

endloop
endfacet
facet normal 0.08047340065 -0.1013954282 -0.9915860891
outer loop
vertex -94.23804474 19.475914 261.4573975
vertex -92.55922699 19.43906403 261.5974121
vertex -94.0497818 18.94428253 261.5270386

endloop
endfacet
facet normal 0.0518514961 -0.1116371304 -0.992395401
outer loop
vertex -94.23804474 19.475914 261.4573975
vertex -94.0497818 18.94428253 261.5270386
vertex -95.64626312 18.92005157 261.4463501

endloop
endfacet
facet normal 0.051765576 -0.1027740836 -0.9933568835
outer loop
vertex -95.64626312 18.92005157 261.4463501
vertex -94.0497818 18.94428253 261.5270386
vertex -95.41845703 18.40120697 261.5119019

endloop
endfacet
facet normal 0.07687386125 -0.09168168157 -0.992816627
outer loop
vertex -95.64626312 18.92005157 261.4463501
vertex -95.41845703 18.40120697 261.5119019
vertex -96.89104462 18.22595978 261.4140625

endloop
endfacet
facet normal 0.07944002748 -0.1146950424 -0.990219295
outer loop
vertex -96.89104462 18.22595978 261.4140625
vertex -95.41845703 18.40120697 261.5119019
vertex -96.59880829 17.74149323 261.4936218

endloop
endfacet
facet normal 0.1425003856 -0.07610532641 -0.9868645072
outer loop
vertex -96.89104462 18.22595978 261.4140625
vertex -96.59880829 17.74149323 261.4936218
vertex -97.99957275 17.39608002 261.3179932

endloop
endfacet
facet normal 0.1515725553 -0.1155368388 -0.9816705585
outer loop
vertex -97.99957275 17.39608002 261.3179932
vertex -96.59880829 17.74149323 261.4936218
vertex -97.66578674 16.9477005 261.4223022

endloop
endfacet
facet normal 0.2045341581 -0.0747911334 -0.9759979248
outer loop
vertex -97.99957275 17.39608002 261.3179932
vertex -97.66578674 16.9477005 261.4223022
vertex -99.04206085 16.48101044 261.1696472

endloop
endfacet
facet normal 0.2177073956 -0.1174714342 -0.9689189792
outer loop
vertex -99.04206085 16.48101044 261.1696472
vertex -97.66578674 16.9477005 261.4223022
vertex -98.7131424 16.06938934 261.293457

endloop
endfacet
facet normal 0.2394111305 -0.09920565784 -0.9658367038
outer loop
vertex -99.04206085 16.48101044 261.1696472
vertex -98.71315002 16.06938934 261.293457
vertex -100.0909882 15.52404022 261.0079346

endloop
endfacet
facet normal 0.2523978949 -0.1361191273 -0.958001554
outer loop
vertex -100.0909882 15.52404022 261.0079346
vertex -98.71315002 16.06938934 261.293457
vertex -99.81070709 15.17066193 261.1319885

endloop
endfacet
facet normal 0.3115556538 -0.08512801677 -0.9464070201
outer loop
vertex -100.0909882 15.52404022 261.0079346
vertex -99.81070709 15.17066193 261.1319885
vertex -101.067894 14.52043915 260.7766113

endloop
endfacet
facet normal 0.3474183083 -0.1674592942 -0.9226363301
outer loop
vertex -101.067894 14.52043915 260.7766113
vertex -99.81070709 15.17066193 261.1319885
vertex -100.8443832 14.24651337 260.9104919

endloop
endfacet
facet normal 0.4846308827 -0.03170055151 -0.8741441965
outer loop
vertex -101.0678864 14.52046967 260.7766418
vertex -100.8443756 14.24652863 260.9104919
vertex -101.8795547 13.42194366 260.3664856

endloop
endfacet
facet normal 0.5510107279 -0.1501777321 -0.8208737969
outer loop
vertex -101.8795547 13.42194366 260.3664856
vertex -100.8443756 14.24652863 260.9104919
vertex -101.6931686 13.20153046 260.5319214

endloop
endfacet
facet normal 0.6413528323 -0.03299819306 -0.7665361166
outer loop
vertex -101.8795547 13.42194366 260.3664856
vertex -101.6931686 13.20153046 260.5319214
vertex -102.592186 12.24446869 259.8209229

endloop
endfacet
facet normal 0.6779048443 -0.09525416791 -0.7289524078
outer loop
vertex -102.592186 12.24446869 259.8209229
vertex -101.6931686 13.20153046 260.5319214
vertex -102.4135666 12.04808807 260.0126953

endloop
endfacet
facet normal 0.7010858059 -0.05647902563 -0.7108367085
outer loop
vertex -102.592186 12.24446869 259.8209229
vertex -102.4135666 12.04808807 260.0126953
vertex -103.2017288 10.99597931 259.3189392

endloop
endfacet
facet normal 0.7160515785 -0.07908730209 -0.6935527325
outer loop
vertex -103.2017288 10.99597931 259.3189392
vertex -102.4135666 12.04808807 260.0126953
vertex -103.0197067 10.83914948 259.5247498

endloop
endfacet
facet normal 0.7442074418 -0.01265056804 -0.6678287387
outer loop
vertex -103.2017288 10.99597931 259.3189392
vertex -103.0197067 10.83914948 259.5247498
vertex -103.5705795 9.647834778 258.9334412

endloop
endfacet
facet normal 0.7581502795 -0.02719632722 -0.6515125036
outer loop
vertex -103.5705795 9.647834778 258.9334412
vertex -103.0197067 10.83914948 259.5247498
vertex -103.3853149 9.547233582 259.1532288

endloop
endfacet
facet normal 0.7757621408 0.05522768572 -0.6286039948
outer loop
vertex -103.5705643 9.647865295 258.9334717
vertex -103.3853073 9.547264099 259.1532593
vertex -103.8003235 8.271048546 258.5289612

endloop
endfacet
facet normal 0.6890033484 0.1251517385 -0.7138707638
outer loop
vertex -103.8003235 8.271048546 258.5289612
vertex -103.3853073 9.547264099 259.1532593
vertex -103.5801163 8.183769226 258.7261963

endloop
endfacet
facet normal 0.6863578558 0.1056424007 -0.719550252
outer loop
vertex -103.8003235 8.271048546 258.5289612
vertex -103.5801163 8.183769226 258.7261963
vertex -104.1187744 6.916344166 258.0263062

endloop
endfacet
facet normal 0.5328845978 0.2241133451 -0.8159701228
outer loop
vertex -104.1187744 6.916344166 258.0263062
vertex -103.5801163 8.183769226 258.7261963
vertex -103.8626633 6.807487011 258.1636658

endloop
endfacet
facet normal 0.5203393698 0.1676246375 -0.837346375
outer loop
vertex -104.1187744 6.916344166 258.0263062
vertex -103.8626633 6.807487011 258.1636658
vertex -104.5764542 5.586631775 257.475708

endloop
endfacet
facet normal 0.3900353014 0.2683173716 -0.8808395267
outer loop
vertex -104.5764542 5.586631775 257.475708
vertex -103.8626633 6.807487011 258.1636658
vertex -104.302269 5.459465027 257.5583801

endloop
endfacet
facet normal 0.3726358414 0.2168619931 -0.9022823572
outer loop
vertex -104.5764542 5.586631775 257.475708
vertex -104.302269 5.459465027 257.5583801
vertex -105.0776825 4.291144848 256.9573364

endloop
endfacet
facet normal 0.3144225478 0.260874778 -0.9127336144
outer loop
vertex -105.0776825 4.291144848 256.9573364
vertex -104.302269 5.459465027 257.5583801
vertex -104.7980194 4.164206982 257.017395

endloop
endfacet
facet normal 0.3063644171 0.2390117794 -0.9214196801
outer loop
vertex -105.0776825 4.291144848 256.9573364
vertex -104.7980194 4.164206982 257.017395
vertex -105.4806824 3.083091974 256.5099792

endloop
endfacet
facet normal 0.3317162693 0.2209903002 -0.9171301126
outer loop
vertex -105.4806824 3.083091974 256.5099792
vertex -104.7980194 4.164206982 257.017395
vertex -105.1921234 2.967339039 256.5864563

endloop
endfacet
facet normal 0.3363250792 0.2357945293 -0.9117490649
outer loop
vertex -105.4806824 3.083091974 256.5099792
vertex -105.1921234 2.967339039 256.5864868
vertex -105.7530136 1.624672055 256.0323486

endloop
endfacet
facet normal 0.4120970368 0.1951623261 -0.8899931312
outer loop
vertex -105.7530136 1.624672055 256.0323486
vertex -105.1921234 2.967339039 256.5864868
vertex -105.4639969 1.520133972 256.1432495

endloop
endfacet
facet normal 0.3424629271 -0.04857549071 -0.9382748008
outer loop
vertex -105.7530136 1.624672055 256.0323486
vertex -105.4639969 1.520133972 256.1432495
vertex -105.968399 0.2582629919 256.0244751

endloop
endfacet
facet normal -nan(ind) -nan(ind) -nan(ind)
outer loop
vertex -105.968399 0.2582629919 256.0244751
vertex -105.4639969 1.520133972 256.1432495
vertex -105.968399 0.2582629919 256.0244751

endloop
endfacet
endsolid
