solid 
facet normal -nan(ind) -nan(ind) -nan(ind)
outer loop
vertex -84.67740631 67.42147064 233.5983734
vertex -84.67740631 67.42147064 233.5983734
vertex -84.6366272 67.13906097 233.4891205

endloop
endfacet
facet normal -0.9898734689 -0.1067273617 -0.09359314293
outer loop
vertex -84.6366272 67.13906097 233.4891205
vertex -84.67740631 67.42147064 233.5983734
vertex -84.64099121 67.3274765 233.3204193

endloop
endfacet
facet normal -0.4458130896 -0.6028082371 -0.6617197394
outer loop
vertex -84.6366272 67.13906097 233.4891205
vertex -84.64099121 67.3274765 233.3204193
vertex -84.50656891 67.07057953 233.4638824

endloop
endfacet
facet normal -0.3496652246 -0.5895719528 -0.7281064987
outer loop
vertex -84.50656891 67.07057953 233.4638824
vertex -84.64099121 67.3274765 233.3204193
vertex -84.47671509 67.3088913 233.2565765

endloop
endfacet
facet normal -0.2073988169 -0.6271305084 -0.7507949471
outer loop
vertex -84.50656891 67.07057953 233.4638824
vertex -84.47671509 67.3088913 233.2565765
vertex -84.29736328 67.00002289 233.4650269

endloop
endfacet
facet normal -0.1897782683 -0.6225724816 -0.7592020035
outer loop
vertex -84.29736328 67.00002289 233.4650269
vertex -84.47671509 67.3088913 233.2565765
vertex -84.24394989 67.26625824 233.2333527

endloop
endfacet
facet normal -0.08253677934 -0.6447307467 -0.7599408627
outer loop
vertex -84.29736328 67.00002289 233.4650269
vertex -84.24394989 67.26625824 233.2333527
vertex -84.06932831 66.95735931 233.4764557

endloop
endfacet
facet normal -0.09961932898 -0.6495361328 -0.7537763715
outer loop
vertex -84.06932831 66.95735931 233.4764557
vertex -84.24394989 67.26625824 233.2333527
vertex -84.03037262 67.22762299 233.2384186

endloop
endfacet
facet normal -0.1390940249 -0.6431577206 -0.7529946566
outer loop
vertex -84.06932831 66.95735931 233.4764557
vertex -84.03037262 67.22762299 233.2384186
vertex -83.87722015 66.92583466 233.4678955

endloop
endfacet
facet normal -0.179332599 -0.6515170932 -0.7371330857
outer loop
vertex -83.87722015 66.92583466 233.4678955
vertex -84.03037262 67.22762299 233.2384186
vertex -83.86956787 67.19686127 233.2264862

endloop
endfacet
facet normal -0.1987037808 -0.6487308145 -0.7346190214
outer loop
vertex -83.87722015 66.92583466 233.4678955
vertex -83.86956787 67.19686127 233.2264862
vertex -83.69274139 66.90145111 233.4395294

endloop
endfacet
facet normal -0.2172251195 -0.6531623602 -0.7253910899
outer loop
vertex -83.69274139 66.90145111 233.4395294
vertex -83.86956787 67.19686127 233.2264862
vertex -83.70755005 67.17336273 233.1991272

endloop
endfacet
facet normal -0.2202180922 -0.6528087258 -0.724806726
outer loop
vertex -83.69274139 66.90145111 233.4395294
vertex -83.70755005 67.17336273 233.1991272
vertex -83.50745392 66.88292694 233.3999176

endloop
endfacet
facet normal -0.2283945978 -0.6551940441 -0.7201088071
outer loop
vertex -83.50745392 66.88292694 233.3999176
vertex -83.70755005 67.17336273 233.1991272
vertex -83.54076385 67.15572357 233.1622772

endloop
endfacet
facet normal -0.2312974334 -0.6549862027 -0.7193709016
outer loop
vertex -83.50745392 66.88292694 233.3999329
vertex -83.54076385 67.15572357 233.162262
vertex -83.31797791 66.86989594 233.3508759

endloop
endfacet
facet normal -0.2358135581 -0.6565775871 -0.7164481282
outer loop
vertex -83.31797791 66.86989594 233.3508759
vertex -83.54076385 67.15572357 233.162262
vertex -83.36651611 67.14324188 233.1163483

endloop
endfacet
facet normal -0.2386310846 -0.6564093232 -0.7156688571
outer loop
vertex -83.31797791 66.86989594 233.3508759
vertex -83.36651611 67.14324188 233.1163483
vertex -83.12265015 66.86019135 233.2946472

endloop
endfacet
facet normal -0.2404311597 -0.6571511626 -0.7143844962
outer loop
vertex -83.12265015 66.86019135 233.2946472
vertex -83.36651611 67.14324188 233.1163483
vertex -83.1787262 67.1337204 233.0619049

endloop
endfacet
facet normal -0.2413004041 -0.6571335793 -0.7141076326
outer loop
vertex -83.12264252 66.86022186 233.2946777
vertex -83.17871857 67.13375092 233.0619202
vertex -82.92321777 66.85128021 233.2355194

endloop
endfacet
facet normal -0.2415298969 -0.6572356224 -0.7139359117
outer loop
vertex -82.92321777 66.85128021 233.2355194
vertex -83.17871857 67.13375092 233.0619202
vertex -82.97993469 67.12477875 233.0029297

endloop
endfacet
facet normal -0.2427010387 -0.6571823359 -0.7135877609
outer loop
vertex -82.92321777 66.85128021 233.2355194
vertex -82.97993469 67.12477875 233.0029297
vertex -82.72496033 66.84203339 233.1766052

endloop
endfacet
facet normal -0.2428063154 -0.6572290063 -0.7135090828
outer loop
vertex -82.72496033 66.84203339 233.1766052
vertex -82.97993469 67.12477875 233.0029297
vertex -82.78157043 67.11547089 232.9440002

endloop
endfacet
facet normal -0.2467541248 -0.6570408344 -0.7123270035
outer loop
vertex -82.72496033 66.84203339 233.1766052
vertex -82.78157043 67.11547089 232.9440002
vertex -82.53255463 66.83358002 233.1177521

endloop
endfacet
facet normal -0.2474950105 -0.6573569775 -0.7117781043
outer loop
vertex -82.53255463 66.83358002 233.1177521
vertex -82.78157043 67.11547089 232.9440002
vertex -82.59453583 67.10710907 232.8866882

endloop
endfacet
facet normal -0.2533189654 -0.657124877 -0.7099411488
outer loop
vertex -82.53255463 66.83358002 233.1177521
vertex -82.59453583 67.10710907 232.8866882
vertex -82.34684753 66.82878876 233.0559235

endloop
endfacet
facet normal -0.2542639077 -0.6575312614 -0.7092266083
outer loop
vertex -82.34684753 66.82878876 233.0559235
vertex -82.59453583 67.10710907 232.8866882
vertex -82.42157745 67.10243988 232.82901

endloop
endfacet
facet normal -0.2619227469 -0.6574047804 -0.7065517902
outer loop
vertex -82.3468399 66.82881927 233.055954
vertex -82.42156982 67.1024704 232.8290405
vertex -82.16609955 66.82991791 232.9879303

endloop
endfacet
facet normal -0.2617007196 -0.6573010087 -0.7067305446
outer loop
vertex -82.16609955 66.82991791 232.9879303
vertex -82.42156982 67.1024704 232.8290405
vertex -82.25801849 67.10356903 232.7674561

endloop
endfacet
facet normal -0.2706774175 -0.6574633121 -0.7031896114
outer loop
vertex -82.16609955 66.82991791 232.9879303
vertex -82.25801849 67.10356903 232.7674561
vertex -81.98752594 66.83785248 232.9117737

endloop
endfacet
facet normal -0.2687976658 -0.6564529538 -0.7048526406
outer loop
vertex -81.98752594 66.83785248 232.9117737
vertex -82.25801849 67.10356903 232.7674561
vertex -82.09659576 67.11119843 232.6987915

endloop
endfacet
facet normal -0.2772857845 -0.6569265127 -0.7011135221
outer loop
vertex -81.98752594 66.83785248 232.9117737
vertex -82.09659576 67.11119843 232.6987915
vertex -81.80804443 66.8521347 232.8274078

endloop
endfacet
facet normal -0.2750188112 -0.6555040479 -0.7033342719
outer loop
vertex -81.80804443 66.8521347 232.8274078
vertex -82.09659576 67.11119843 232.6987915
vertex -81.92993164 67.1248703 232.6208801

endloop
endfacet
facet normal -0.2559318244 -0.6536757946 -0.7121845484
outer loop
vertex -81.80804443 66.8521347 232.8274078
vertex -81.92993164 67.1248703 232.6208801
vertex -81.63035583 66.87456512 232.7429657

endloop
endfacet
facet normal -0.2551236153 -0.6531051397 -0.7129976749
outer loop
vertex -81.63035583 66.87456512 232.7429657
vertex -81.92993164 67.1248703 232.6208801
vertex -81.75224304 67.14299774 232.5406952

endloop
endfacet
facet normal -0.06840162724 -0.6200154424 -0.7816022635
outer loop
vertex -81.63035583 66.87456512 232.7429657
vertex -81.75224304 67.14299774 232.5406952
vertex -81.47981262 66.92714691 232.6880798

endloop
endfacet
facet normal -0.08514691889 -0.6329076886 -0.769530952
outer loop
vertex -81.47981262 66.92714691 232.6880798
vertex -81.75224304 67.14299774 232.5406952
vertex -81.57467651 67.16677094 232.5014954

endloop
endfacet
facet normal 0.08382154256 -0.5913552046 -0.8020429015
outer loop
vertex -81.47981262 66.92714691 232.6880646
vertex -81.57467651 67.16674042 232.5014954
vertex -81.37430573 66.97689056 232.6624146

endloop
endfacet
facet normal 0.005593250506 -0.6431387663 -0.7657291889
outer loop
vertex -81.37430573 66.97689056 232.6624146
vertex -81.57467651 67.16674042 232.5014954
vertex -81.43152618 67.16564178 232.5034637

endloop
endfacet
facet normal 0.8564544916 -0.1550197303 -0.4923968613
outer loop
vertex -81.37430573 66.97689056 232.6624146
vertex -81.43152618 67.16564178 232.5034637
vertex -81.28870392 67.24034882 232.728363

endloop
endfacet
facet normal -nan(ind) -nan(ind) -nan(ind)
outer loop
vertex -81.28870392 67.24034882 232.728363
vertex -81.43152618 67.16564178 232.5034637
vertex -81.28870392 67.24034882 232.728363

endloop
endfacet
facet normal 0.9085378051 -0.3449784517 0.2356880009
outer loop
vertex -84.67740631 67.42147064 233.5983734
vertex -84.67741394 67.42144012 233.5983582
vertex -84.64099121 67.3274765 233.3204193

endloop
endfacet
facet normal -0.9900126457 0.0260632541 -0.1385483146
outer loop
vertex -84.64099121 67.3274765 233.3204193
vertex -84.67741394 67.42144012 233.5983582
vertex -84.63516235 67.46355438 233.3043671

endloop
endfacet
facet normal -0.3698041439 -0.0932078287 -0.9244226217
outer loop
vertex -84.64099121 67.3274765 233.3204193
vertex -84.63516235 67.46355438 233.3043671
vertex -84.47671509 67.3088913 233.2565765

endloop
endfacet
facet normal -0.3232821226 -0.03903556615 -0.9454972148
outer loop
vertex -84.47671509 67.3088913 233.2565765
vertex -84.63516235 67.46355438 233.3043671
vertex -84.45902252 67.47393036 233.2437134

endloop
endfacet
facet normal -0.1109218374 -0.0654001534 -0.9916749001
outer loop
vertex -84.47671509 67.3088913 233.2565765
vertex -84.45902252 67.47393036 233.2437134
vertex -84.24394989 67.26625824 233.2333527

endloop
endfacet
facet normal -0.1041024178 -0.05827870965 -0.992857635
outer loop
vertex -84.24394989 67.26625824 233.2333527
vertex -84.45902252 67.47393036 233.2437134
vertex -84.21685791 67.45052338 233.219696

endloop
endfacet
facet normal 0.01001620945 -0.07537205517 -0.9971051812
outer loop
vertex -84.24394989 67.26625824 233.2333527
vertex -84.21685791 67.45052338 233.219696
vertex -84.03037262 67.22762299 233.2384186

endloop
endfacet
facet normal -0.001033298322 -0.08455868065 -0.9964179993
outer loop
vertex -84.03037262 67.22762299 233.2384186
vertex -84.21685791 67.45052338 233.219696
vertex -84.0020752 67.4146347 233.2225189

endloop
endfacet
facet normal -0.08736266196 -0.07125838846 -0.9936246276
outer loop
vertex -84.03037262 67.22762299 233.2384186
vertex -84.0020752 67.4146347 233.2225189
vertex -83.86956787 67.19686127 233.2264862

endloop
endfacet
facet normal -0.1103937626 -0.08521012217 -0.9902284741
outer loop
vertex -83.86956787 67.19686127 233.2264862
vertex -84.0020752 67.4146347 233.2225189
vertex -83.84516907 67.3844223 233.2076263

endloop
endfacet
facet normal -0.1766933203 -0.07569292188 -0.9813511372
outer loop
vertex -83.86956787 67.19686127 233.2264862
vertex -83.84516907 67.3844223 233.2076263
vertex -83.70755005 67.17336273 233.1991272

endloop
endfacet
facet normal -0.1875625253 -0.08288483322 -0.9787493944
outer loop
vertex -83.70755005 67.17336273 233.1991272
vertex -83.84516907 67.3844223 233.2076263
vertex -83.6893692 67.36159515 233.1797028

endloop
endfacet
facet normal -0.2230003923 -0.07872773707 -0.9716341496
outer loop
vertex -83.70755005 67.17336273 233.1991272
vertex -83.6893692 67.36159515 233.1797028
vertex -83.54076385 67.15572357 233.1622772

endloop
endfacet
facet normal -0.2285647094 -0.08288306743 -0.9699941278
outer loop
vertex -83.54076385 67.15572357 233.1622772
vertex -83.6893692 67.36159515 233.1797028
vertex -83.52905273 67.34450531 233.1433868

endloop
endfacet
facet normal -0.2593472004 -0.08020786196 -0.9624477625
outer loop
vertex -83.54076385 67.15572357 233.162262
vertex -83.5290451 67.34450531 233.1433716
vertex -83.36651611 67.14324188 233.1163483

endloop
endfacet
facet normal -0.2625418305 -0.08293508738 -0.9613498449
outer loop
vertex -83.36651611 67.14324188 233.1163483
vertex -83.5290451 67.34450531 233.1433716
vertex -83.3603363 67.33238983 233.0983429

endloop
endfacet
facet normal -0.2813414037 -0.08182237297 -0.9561130404
outer loop
vertex -83.36651611 67.14324188 233.1163483
vertex -83.3603363 67.33238983 233.0983429
vertex -83.1787262 67.1337204 233.0619049

endloop
endfacet
facet normal -0.2824535072 -0.08291642368 -0.9556908011
outer loop
vertex -83.1787262 67.1337204 233.0619049
vertex -83.3603363 67.33238983 233.0983429
vertex -83.17528534 67.32302094 233.0444641

endloop
endfacet
facet normal -0.2869498134 -0.08277768642 -0.954362452
outer loop
vertex -83.17871857 67.13375092 233.0619202
vertex -83.17527008 67.32305145 233.0444641
vertex -82.97993469 67.12477875 233.0029297

endloop
endfacet
facet normal -0.2870136499 -0.08284586668 -0.9543373585
outer loop
vertex -82.97993469 67.12477875 233.0029297
vertex -83.17527008 67.32305145 233.0444641
vertex -82.97659302 67.3141098 232.9854889

endloop
endfacet
facet normal -0.2873670459 -0.08282995969 -0.9542323947
outer loop
vertex -82.97993469 67.12477875 233.0029297
vertex -82.97659302 67.3141098 232.9854889
vertex -82.78157043 67.11547089 232.9440002

endloop
endfacet
facet normal -0.2874836922 -0.08295410872 -0.9541863799
outer loop
vertex -82.78157043 67.11547089 232.9440002
vertex -82.97659302 67.3141098 232.9854889
vertex -82.7779007 67.30477142 232.9264374

endloop
endfacet
facet normal -0.2953509688 -0.08258140832 -0.9518130422
outer loop
vertex -82.78157043 67.11547089 232.9440002
vertex -82.7779007 67.30477142 232.9264374
vertex -82.59453583 67.10710907 232.8866882

endloop
endfacet
facet normal -0.2955361009 -0.08276796341 -0.9517394304
outer loop
vertex -82.59453583 67.10710907 232.8866882
vertex -82.7779007 67.30477142 232.9264374
vertex -82.59248352 67.29647064 232.8695831

endloop
endfacet
facet normal -0.3172795177 -0.08190441132 -0.9447885752
outer loop
vertex -82.59453583 67.10710907 232.8866882
vertex -82.59248352 67.29647064 232.8695831
vertex -82.42157745 67.10243988 232.82901

endloop
endfacet
facet normal -0.3177970052 -0.08240573108 -0.9445709586
outer loop
vertex -82.42157745 67.10243988 232.82901
vertex -82.59248352 67.29647064 232.8695831
vertex -82.42406464 67.29183197 232.813324

endloop
endfacet
facet normal -0.350726217 -0.08187091351 -0.9328924417
outer loop
vertex -82.42156982 67.1024704 232.8290405
vertex -82.42405701 67.29186249 232.8133545
vertex -82.25801849 67.10356903 232.7674561

endloop
endfacet
facet normal -0.3506024182 -0.08174776286 -0.9329497814
outer loop
vertex -82.25801849 67.10356903 232.7674561
vertex -82.42405701 67.29186249 232.8133545
vertex -82.2668457 67.2929306 232.7541809

endloop
endfacet
facet normal -0.3867969215 -0.08242020011 -0.9184743762
outer loop
vertex -82.25801849 67.10356903 232.7674561
vertex -82.2668457 67.2929306 232.7541809
vertex -82.09659576 67.11119843 232.6987915

endloop
endfacet
facet normal -0.3859544992 -0.08149798214 -0.918910861
outer loop
vertex -82.09659576 67.11119843 232.6987915
vertex -82.2668457 67.2929306 232.7541809
vertex -82.11180878 67.30040741 232.6884003

endloop
endfacet
facet normal -0.4164092541 -0.08320255578 -0.9053621888
outer loop
vertex -82.09659576 67.11119843 232.6987915
vertex -82.11180878 67.30040741 232.6884003
vertex -81.92993164 67.1248703 232.6208801

endloop
endfacet
facet normal -0.4151887894 -0.08166882396 -0.906062007
outer loop
vertex -81.92993164 67.1248703 232.6208801
vertex -82.11180878 67.30040741 232.6884003
vertex -81.94978333 67.31365204 232.6129608

endloop
endfacet
facet normal -0.4031393528 -0.08063320816 -0.9115794301
outer loop
vertex -81.92993164 67.1248703 232.6208801
vertex -81.94978333 67.31365204 232.6129608
vertex -81.75224304 67.14299774 232.5406952

endloop
endfacet
facet normal -0.4027473629 -0.08008570969 -0.9118008614
outer loop
vertex -81.75224304 67.14299774 232.5406952
vertex -81.94978333 67.31365204 232.6129608
vertex -81.77239227 67.32875824 232.5332794

endloop
endfacet
facet normal -0.2073098123 -0.06146337092 -0.9763426185
outer loop
vertex -81.75224304 67.14299774 232.5406952
vertex -81.77239227 67.32875824 232.5332794
vertex -81.57467651 67.16677094 232.5014954

endloop
endfacet
facet normal -0.2140305638 -0.07006511837 -0.9743109345
outer loop
vertex -81.57467651 67.16677094 232.5014954
vertex -81.77239227 67.32875824 232.5332794
vertex -81.58765411 67.33266449 232.4924164

endloop
endfacet
facet normal 0.01331818383 -0.05359189957 -0.9984741211
outer loop
vertex -81.57467651 67.16674042 232.5014954
vertex -81.58766174 67.33266449 232.4924164
vertex -81.43152618 67.16564178 232.5034637

endloop
endfacet
facet normal -0.04713989049 -0.1097365841 -0.9928421974
outer loop
vertex -81.43152618 67.16564178 232.5034637
vertex -81.58766174 67.33266449 232.4924164
vertex -81.43649292 67.30196381 232.4886322

endloop
endfacet
facet normal 0.8478555083 -0.02672363818 -0.5295534134
outer loop
vertex -81.43152618 67.16564178 232.5034637
vertex -81.43649292 67.30196381 232.4886322
vertex -81.28870392 67.24034882 232.728363

endloop
endfacet
facet normal -0.855453372 -0.04438900948 0.5159739852
outer loop
vertex -81.28870392 67.24034882 232.728363
vertex -81.43649292 67.30196381 232.4886322
vertex -81.28871155 67.2403183 232.7283478

endloop
endfacet
facet normal -0.9533123374 0.2863238156 -0.09599149227
outer loop
vertex -84.67741394 67.42144012 233.5983582
vertex -84.67739868 67.42150116 233.5983887
vertex -84.63516235 67.46355438 233.3043671

endloop
endfacet
facet normal -0.9826990962 0.1401107609 -0.1211254299
outer loop
vertex -84.63516235 67.46355438 233.3043671
vertex -84.67739868 67.42150116 233.5983887
vertex -84.62523651 67.57390594 233.3514862

endloop
endfacet
facet normal -0.3197157085 0.3962581754 -0.8606749773
outer loop
vertex -84.63516235 67.46355438 233.3043671
vertex -84.62523651 67.57390594 233.3514862
vertex -84.45902252 67.47393036 233.2437134

endloop
endfacet
facet normal -0.2818628848 0.4467248917 -0.8491114378
outer loop
vertex -84.45902252 67.47393036 233.2437134
vertex -84.62523651 67.57390594 233.3514862
vertex -84.44694519 67.60176849 233.3069611

endloop
endfacet
facet normal -0.04548013955 0.4464334249 -0.8936603069
outer loop
vertex -84.45902252 67.47393036 233.2437134
vertex -84.44694519 67.60176849 233.3069611
vertex -84.21685791 67.45052338 233.219696

endloop
endfacet
facet normal -0.04116250947 0.4516177475 -0.891261518
outer loop
vertex -84.21685791 67.45052338 233.219696
vertex -84.44694519 67.60176849 233.3069611
vertex -84.20139313 67.59319305 233.291275

endloop
endfacet
facet normal 0.08517614007 0.4394157529 -0.8942364454
outer loop
vertex -84.21685791 67.45052338 233.219696
vertex -84.20139313 67.59319305 233.291275
vertex -84.0020752 67.4146347 233.2225189

endloop
endfacet
facet normal 0.07462497056 0.4297946393 -0.8998375535
outer loop
vertex -84.0020752 67.4146347 233.2225189
vertex -84.20139313 67.59319305 233.291275
vertex -83.97940063 67.55944061 233.2935638

endloop
endfacet
facet normal -0.0003872181696 0.4405141175 -0.8977456093
outer loop
vertex -84.0020752 67.4146347 233.2225189
vertex -83.97940063 67.55944061 233.2935638
vertex -83.84516907 67.3844223 233.2076263

endloop
endfacet
facet normal -0.01824435033 0.4293709695 -0.9029439688
outer loop
vertex -83.84516907 67.3844223 233.2076263
vertex -83.97940063 67.55944061 233.2935638
vertex -83.81558228 67.5295639 233.2760468

endloop
endfacet
facet normal -0.09549258649 0.4403131604 -0.8927516341
outer loop
vertex -83.84516907 67.3844223 233.2076263
vertex -83.81558228 67.5295639 233.2760468
vertex -83.6893692 67.36159515 233.1797028

endloop
endfacet
facet normal -0.1042881235 0.434712857 -0.8945103288
outer loop
vertex -83.6893692 67.36159515 233.1797028
vertex -83.81558228 67.5295639 233.2760468
vertex -83.65937805 67.50725555 233.246994

endloop
endfacet
facet normal -0.1534618288 0.4402813613 -0.8846478462
outer loop
vertex -83.6893692 67.36159515 233.1797028
vertex -83.65937805 67.50725555 233.246994
vertex -83.52905273 67.34450531 233.1433868

endloop
endfacet
facet normal -0.1587770283 0.436591804 -0.885537982
outer loop
vertex -83.52905273 67.34450531 233.1433868
vertex -83.65937805 67.50725555 233.246994
vertex -83.50052643 67.49062347 233.2103119

endloop
endfacet
facet normal -0.2018983811 0.4402175546 -0.87489748
outer loop
vertex -83.5290451 67.34450531 233.1433716
vertex -83.50052643 67.49062347 233.2103119
vertex -83.3603363 67.33238983 233.0983429

endloop
endfacet
facet normal -0.2046575248 0.4380789697 -0.8753296733
outer loop
vertex -83.3603363 67.33238983 233.0983429
vertex -83.50052643 67.49062347 233.2103119
vertex -83.33328247 67.47878265 233.1652832

endloop
endfacet
facet normal -0.2305071652 0.43956393 -0.8681301475
outer loop
vertex -83.3603363 67.33238983 233.0983429
vertex -83.33328247 67.47878265 233.1652832
vertex -83.17528534 67.32302094 233.0444641

endloop
endfacet
facet normal -0.231619522 0.4385885596 -0.8683274388
outer loop
vertex -83.17528534 67.32302094 233.0444641
vertex -83.33328247 67.47878265 233.1652832
vertex -83.14891815 67.46953583 233.1114349

endloop
endfacet
facet normal -0.237466678 0.4389928579 -0.8665419221
outer loop
vertex -83.17527008 67.32305145 233.0444641
vertex -83.14891052 67.46956635 233.1114655
vertex -82.97659302 67.3141098 232.9854889

endloop
endfacet
facet normal -0.2376413494 0.4388280213 -0.8665775061
outer loop
vertex -82.97659302 67.3141098 232.9854889
vertex -83.14891052 67.46956635 233.1114655
vertex -82.95014191 67.46062469 233.0524292

endloop
endfacet
facet normal -0.236982435 0.4387983978 -0.8667729497
outer loop
vertex -82.97659302 67.3141098 232.9854889
vertex -82.95014191 67.46062469 233.0524292
vertex -82.7779007 67.30477142 232.9264374

endloop
endfacet
facet normal -0.2370476127 0.438737005 -0.8667861819
outer loop
vertex -82.7779007 67.30477142 232.9264374
vertex -82.95014191 67.46062469 233.0524292
vertex -82.75105286 67.4512558 232.9932404

endloop
endfacet
facet normal -0.2453544289 0.4391160905 -0.8642789721
outer loop
vertex -82.7779007 67.30477142 232.9264374
vertex -82.75105286 67.4512558 232.9932404
vertex -82.59248352 67.29647064 232.8695831

endloop
endfacet
facet normal -0.2459812313 0.4385580122 -0.864384234
outer loop
vertex -82.59248352 67.29647064 232.8695831
vertex -82.75105286 67.4512558 232.9932404
vertex -82.56574249 67.44298553 232.9363098

endloop
endfacet
facet normal -0.273668319 0.4395669103 -0.8555036783
outer loop
vertex -82.59248352 67.29647064 232.8695831
vertex -82.56574249 67.44298553 232.9363098
vertex -82.42406464 67.29183197 232.813324

endloop
endfacet
facet normal -0.2741043568 0.4391985238 -0.8555532694
outer loop
vertex -82.42406464 67.29183197 232.813324
vertex -82.56574249 67.44298553 232.9363098
vertex -82.39842987 67.4384079 232.8803558

endloop
endfacet
facet normal -0.31899634 0.4397385418 -0.8395661712
outer loop
vertex -82.42405701 67.29186249 232.8133545
vertex -82.39842224 67.43843842 232.8803864
vertex -82.2668457 67.2929306 232.7541809

endloop
endfacet
facet normal -0.3190024197 0.439733386 -0.8395665884
outer loop
vertex -82.2668457 67.2929306 232.7541809
vertex -82.39842224 67.43843842 232.8803864
vertex -82.2430191 67.43953705 232.8219147

endloop
endfacet
facet normal -0.3688607812 0.4385703206 -0.8195106983
outer loop
vertex -82.2668457 67.2929306 232.7541809
vertex -82.2430191 67.43953705 232.8219147
vertex -82.11180878 67.30040741 232.6884003

endloop
endfacet
facet normal -0.367654562 0.4396651089 -0.8194660544
outer loop
vertex -82.11180878 67.30040741 232.6884003
vertex -82.2430191 67.43953705 232.8219147
vertex -82.08982086 67.44683075 232.7570953

endloop
endfacet
facet normal -0.408737421 0.4372209609 -0.8011065125
outer loop
vertex -82.11180878 67.30040741 232.6884003
vertex -82.08982086 67.44683075 232.7570953
vertex -81.94978333 67.31365204 232.6129608

endloop
endfacet
facet normal -0.4071202278 0.4388491213 -0.8010396957
outer loop
vertex -81.94978333 67.31365204 232.6129608
vertex -82.08982086 67.44683075 232.7570953
vertex -81.92903137 67.4597702 232.6824646

endloop
endfacet
facet normal -0.3989316523 0.4394777119 -0.8048061132
outer loop
vertex -81.94978333 67.31365204 232.6129608
vertex -81.92903137 67.4597702 232.6824646
vertex -81.77239227 67.32875824 232.5332794

endloop
endfacet
facet normal -0.3985608816 0.4398799837 -0.8047700524
outer loop
vertex -81.77239227 67.32875824 232.5332794
vertex -81.92903137 67.4597702 232.6824646
vertex -81.75205231 67.47258759 232.6018219

endloop
endfacet
facet normal -0.2024172097 0.4444766045 -0.8726212382
outer loop
vertex -81.77239227 67.32875824 232.5332794
vertex -81.75205231 67.47258759 232.6018219
vertex -81.58765411 67.33266449 232.4924164

endloop
endfacet
facet normal -0.2058727145 0.4411171675 -0.8735170364
outer loop
vertex -81.58765411 67.33266449 232.4924164
vertex -81.75205231 67.47258759 232.6018219
vertex -81.56822968 67.46117401 232.5527344

endloop
endfacet
facet normal 0.06185944378 0.4163998067 -0.9070747495
outer loop
vertex -81.58766174 67.33266449 232.4924164
vertex -81.5682373 67.46117401 232.5527344
vertex -81.43649292 67.30196381 232.4886322

endloop
endfacet
facet normal 0.00266731251 0.3753868937 -0.926864326
outer loop
vertex -81.43649292 67.30196381 232.4886322
vertex -81.5682373 67.46117401 232.5527344
vertex -81.41991425 67.41249847 232.5334473

endloop
endfacet
facet normal 0.8574647903 0.07762042433 -0.508654356
outer loop
vertex -81.43649292 67.30196381 232.4886322
vertex -81.41991425 67.41249847 232.5334473
vertex -81.28871155 67.2403183 232.7283478

endloop
endfacet
facet normal 0.8487548828 0.05097322538 -0.5263239145
outer loop
vertex -81.28871155 67.2403183 232.7283478
vertex -81.41991425 67.41249847 232.5334473
vertex -81.28869629 67.24037933 232.7283783

endloop
endfacet
facet normal 0.9840980768 -0.07943658531 0.1588731706
outer loop
vertex -84.67739868 67.42150116 233.5983887
vertex -84.67739868 67.42147064 233.5983734
vertex -84.62523651 67.57390594 233.3514862

endloop
endfacet
facet normal -0.9712724686 0.229305312 -0.06363008916
outer loop
vertex -84.62523651 67.57390594 233.3514862
vertex -84.67739868 67.42147064 233.5983734
vertex -84.61160278 67.66036224 233.4549408

endloop
endfacet
facet normal -0.2672898471 0.7564529777 -0.596938014
outer loop
vertex -84.62523651 67.57390594 233.3514862
vertex -84.61160278 67.66036224 233.4549408
vertex -84.44694519 67.60176849 233.3069611

endloop
endfacet
facet normal -0.2460306734 0.7758536935 -0.5809646845
outer loop
vertex -84.44694519 67.60176849 233.3069611
vertex -84.61160278 67.66036224 233.4549408
vertex -84.43947601 67.69966888 233.4345398

endloop
endfacet
facet normal -0.01114586834 0.7936017513 -0.608335495
outer loop
vertex -84.44694519 67.60176849 233.3069611
vertex -84.43947601 67.69966888 233.4345398
vertex -84.20139313 67.59319305 233.291275

endloop
endfacet
facet normal -0.008219284005 0.7959933877 -0.6052495241
outer loop
vertex -84.20139313 67.59319305 233.291275
vertex -84.43947601 67.69966888 233.4345398
vertex -84.19554138 67.70238495 233.4347992

endloop
endfacet
facet normal 0.1258916259 0.7870469093 -0.6039109826
outer loop
vertex -84.20139313 67.59319305 233.291275
vertex -84.19554138 67.70238495 233.4347992
vertex -83.97940063 67.55944061 233.2935638

endloop
endfacet
facet normal 0.1155471206 0.7810557485 -0.6136781573
outer loop
vertex -83.97940063 67.55944061 233.2935638
vertex -84.19554138 67.70238495 233.4347992
vertex -83.96125793 67.67021942 233.437973

endloop
endfacet
facet normal 0.07785639912 0.7862775326 -0.6129485965
outer loop
vertex -83.97940063 67.55944061 233.2935638
vertex -83.96125793 67.67021942 233.437973
vertex -83.81558228 67.5295639 233.2760468

endloop
endfacet
facet normal 0.05888660252 0.7792642713 -0.6239227057
outer loop
vertex -83.81558228 67.5295639 233.2760468
vertex -83.96125793 67.67021942 233.437973
vertex -83.78139496 67.64070892 233.4180908

endloop
endfacet
facet normal -0.002049175557 0.7877961993 -0.6159325838
outer loop
vertex -83.81558228 67.5295639 233.2760468
vertex -83.78139496 67.64070892 233.4180908
vertex -83.65937805 67.50725555 233.246994

endloop
endfacet
facet normal -0.01137885358 0.784504652 -0.6200185418
outer loop
vertex -83.65937805 67.50725555 233.246994
vertex -83.78139496 67.64070892 233.4180908
vertex -83.61923218 67.6187973 233.3873901

endloop
endfacet
facet normal -0.0583438389 0.7896980643 -0.6107151508
outer loop
vertex -83.65937805 67.50725555 233.246994
vertex -83.61923218 67.6187973 233.3873901
vertex -83.50052643 67.49062347 233.2103119

endloop
endfacet
facet normal -0.06362012029 0.7876796722 -0.6127912402
outer loop
vertex -83.50052643 67.49062347 233.2103119
vertex -83.61923218 67.6187973 233.3873901
vertex -83.45767975 67.60250092 233.3496704

endloop
endfacet
facet normal -0.1061899215 0.7910764813 -0.6024298072
outer loop
vertex -83.50052643 67.49062347 233.2103119
vertex -83.45767975 67.60250092 233.3496704
vertex -83.33328247 67.47878265 233.1652832

endloop
endfacet
facet normal -0.1089629605 0.7898829579 -0.6034997702
outer loop
vertex -83.33328247 67.47878265 233.1652832
vertex -83.45767975 67.60250092 233.3496704
vertex -83.28848267 67.5908432 233.3038635

endloop
endfacet
facet normal -0.134507671 0.791328907 -0.5964110494
outer loop
vertex -83.33328247 67.47878265 233.1652832
vertex -83.28848267 67.5908432 233.3038635
vertex -83.14891815 67.46953583 233.1114349

endloop
endfacet
facet normal -0.1355604976 0.7908168435 -0.5968517065
outer loop
vertex -83.14891815 67.46953583 233.1114349
vertex -83.28848267 67.5908432 233.3038635
vertex -83.10312653 67.58168793 233.2496338

endloop
endfacet
facet normal -0.1412160695 0.7910212874 -0.5952674747
outer loop
vertex -83.14891052 67.46956635 233.1114655
vertex -83.10311127 67.58171844 233.2496338
vertex -82.95014191 67.46062469 233.0524292

endloop
endfacet
facet normal -0.1414255649 0.7909120321 -0.5953628421
outer loop
vertex -82.95014191 67.46062469 233.0524292
vertex -83.10311127 67.58171844 233.2496338
vertex -82.90409851 67.57280731 233.1905212

endloop
endfacet
facet normal -0.139917165 0.7908434868 -0.5958101153
outer loop
vertex -82.95014191 67.46062469 233.0524292
vertex -82.90409851 67.57280731 233.1905212
vertex -82.75105286 67.4512558 232.9932404

endloop
endfacet
facet normal -0.1401447654 0.790725112 -0.5959137082
outer loop
vertex -82.75105286 67.4512558 232.9932404
vertex -82.90409851 67.57280731 233.1905212
vertex -82.70458984 67.56346893 233.1312103

endloop
endfacet
facet normal -0.1471268684 0.7910356522 -0.5938149691
outer loop
vertex -82.75105286 67.4512558 232.9932404
vertex -82.70458984 67.56346893 233.1312103
vertex -82.56574249 67.44298553 232.9363098

endloop
endfacet
facet normal -0.1476709992 0.7907676101 -0.5940368772
outer loop
vertex -82.56574249 67.44298553 232.9363098
vertex -82.70458984 67.56346893 233.1312103
vertex -82.51808167 67.55519867 233.0738373

endloop
endfacet
facet normal -0.1741774827 0.7916733027 -0.5855899453
outer loop
vertex -82.56574249 67.44298553 232.9363098
vertex -82.51808167 67.55519867 233.0738373
vertex -82.39842987 67.4384079 232.8803558

endloop
endfacet
facet normal -0.1751830876 0.7912017107 -0.5859271884
outer loop
vertex -82.39842987 67.4384079 232.8803558
vertex -82.51808167 67.55519867 233.0738373
vertex -82.34903717 67.55068207 233.0171967

endloop
endfacet
facet normal -0.2200790495 0.7915917039 -0.5700418949
outer loop
vertex -82.39842224 67.43843842 232.8803864
vertex -82.34902954 67.55071259 233.0172272
vertex -82.2430191 67.43953705 232.8219147

endloop
endfacet
facet normal -0.2194669247 0.7918818593 -0.5698748231
outer loop
vertex -82.2430191 67.43953705 232.8219147
vertex -82.34902954 67.55071259 233.0172272
vertex -82.19167328 67.55175018 232.9580688

endloop
endfacet
facet normal -0.2701854408 0.7905157804 -0.5496222973
outer loop
vertex -82.2430191 67.43953705 232.8219147
vertex -82.19167328 67.55175018 232.9580688
vertex -82.08982086 67.44683075 232.7570953

endloop
endfacet
facet normal -0.2682390511 0.7915047407 -0.5491520762
outer loop
vertex -82.08982086 67.44683075 232.7570953
vertex -82.19167328 67.55175018 232.9580688
vertex -82.03652954 67.55892181 232.8926239

endloop
endfacet
facet normal -0.3098028302 0.7889264226 -0.5306763053
outer loop
vertex -82.08982086 67.44683075 232.7570953
vertex -82.03652954 67.55892181 232.8926239
vertex -81.92903137 67.4597702 232.6824646

endloop
endfacet
facet normal -0.3072969019 0.7903237939 -0.5300537944
outer loop
vertex -81.92903137 67.4597702 232.6824646
vertex -82.03652954 67.55892181 232.8926239
vertex -81.87412262 67.57161713 232.8173981

endloop
endfacet
facet normal -0.3002870977 0.7908214927 -0.5333188176
outer loop
vertex -81.92903137 67.4597702 232.6824646
vertex -81.87412262 67.57161713 232.8173981
vertex -81.75205231 67.47258759 232.6018219

endloop
endfacet
facet normal -0.2998839617 0.7910559177 -0.5331982374
outer loop
vertex -81.75205231 67.47258759 232.6018219
vertex -81.87412262 67.57161713 232.8173981
vertex -81.69766235 67.58263397 232.7344971

endloop
endfacet
facet normal -0.1130771115 0.7870407104 -0.6064490676
outer loop
vertex -81.75205231 67.47258759 232.6018219
vertex -81.69766235 67.58263397 232.7344971
vertex -81.56822968 67.46117401 232.5527344

endloop
endfacet
facet normal -0.113341406 0.7869198918 -0.6065564752
outer loop
vertex -81.56822968 67.46117401 232.5527344
vertex -81.69766235 67.58263397 232.7344971
vertex -81.521492 67.55956268 232.6716461

endloop
endfacet
facet normal 0.153336525 0.7308000326 -0.6651460528
outer loop
vertex -81.5682373 67.46117401 232.5527344
vertex -81.52148438 67.5595932 232.6716461
vertex -81.41991425 67.41249847 232.5334473

endloop
endfacet
facet normal 0.1195260957 0.7224057317 -0.681060493
outer loop
vertex -81.41991425 67.41249847 232.5334473
vertex -81.52148438 67.5595932 232.6716461
vertex -81.38420868 67.49904633 232.6315155

endloop
endfacet
facet normal 0.8772029281 0.1535596848 -0.4549005032
outer loop
vertex -81.41991425 67.41249847 232.5334473
vertex -81.38420868 67.49904633 232.6315155
vertex -81.28869629 67.24037933 232.7283783

endloop
endfacet
facet normal -0.8132117987 -0.08459070325 0.5757873058
outer loop
vertex -81.28869629 67.24037933 232.7283783
vertex -81.38420868 67.49904633 232.6315155
vertex -81.28870392 67.24034882 232.728363

endloop
endfacet
facet normal 0 -0.5147534609 -0.8573382497
outer loop
vertex -84.67739868 67.42147064 233.5983734
vertex -84.67740631 67.42147064 233.5983734
vertex -84.61160278 67.66036224 233.4549408

endloop
endfacet
facet normal -0.9563779235 0.2890105247 0.04259247705
outer loop
vertex -84.61160278 67.66036224 233.4549408
vertex -84.67740631 67.42147064 233.5983734
vertex -84.59705353 67.68639374 233.6049957

endloop
endfacet
facet normal -0.2364796698 0.9609402418 -0.1437747329
outer loop
vertex -84.61160278 67.66036224 233.4549408
vertex -84.59705353 67.68639374 233.6049957
vertex -84.43947601 67.69966888 233.4345398

endloop
endfacet
facet normal -0.234897241 0.9615530372 -0.1422641277
outer loop
vertex -84.43947601 67.69966888 233.4345398
vertex -84.59705353 67.68639374 233.6049957
vertex -84.44069672 67.72600555 233.614563

endloop
endfacet
facet normal -0.01086235512 0.9893985987 -0.1448187083
outer loop
vertex -84.43947601 67.69966888 233.4345398
vertex -84.44069672 67.72600555 233.614563
vertex -84.19554138 67.70238495 233.4347992

endloop
endfacet
facet normal -0.01035113912 0.9895038605 -0.1441353559
outer loop
vertex -84.19554138 67.70238495 233.4347992
vertex -84.44069672 67.72600555 233.614563
vertex -84.20494843 67.73171234 233.6368103

endloop
endfacet
facet normal 0.1365610659 0.9812387228 -0.1360941678
outer loop
vertex -84.19554138 67.70238495 233.4347992
vertex -84.20494843 67.73171234 233.6368103
vertex -83.96125793 67.67021942 233.437973

endloop
endfacet
facet normal 0.1278914213 0.9808917046 -0.1466121972
outer loop
vertex -83.96125793 67.67021942 233.437973
vertex -84.20494843 67.73171234 233.6368103
vertex -83.95489502 67.69997406 233.6425934

endloop
endfacet
facet normal 0.1443319172 0.9785814881 -0.1467874944
outer loop
vertex -83.96125793 67.67021942 233.437973
vertex -83.95489502 67.69997406 233.6425934
vertex -83.78139496 67.64070892 233.4180908

endloop
endfacet
facet normal 0.1242808774 0.9788734913 -0.1623604447
outer loop
vertex -83.78139496 67.64070892 233.4180908
vertex -83.95489502 67.69997406 233.6425934
vertex -83.75093079 67.67055511 233.6213531

endloop
endfacet
facet normal 0.1024679393 0.9818608165 -0.159529835
outer loop
vertex -83.78139496 67.64070892 233.4180908
vertex -83.75093079 67.67055511 233.6213531
vertex -83.61923218 67.6187973 233.3873901

endloop
endfacet
facet normal 0.09192184359 0.9819200635 -0.1654793769
outer loop
vertex -83.61923218 67.6187973 233.3873901
vertex -83.75093079 67.67055511 233.6213531
vertex -83.57673645 67.64876556 233.5888214

endloop
endfacet
facet normal 0.06210007146 0.9852138758 -0.1596779525
outer loop
vertex -83.61923218 67.6187973 233.3873901
vertex -83.57673645 67.64876556 233.5888214
vertex -83.45767975 67.60250092 233.3496704

endloop
endfacet
facet normal 0.05659712851 0.9851011634 -0.1623957008
outer loop
vertex -83.45767975 67.60250092 233.3496704
vertex -83.57673645 67.64876556 233.5888214
vertex -83.4074173 67.63253021 233.5493469

endloop
endfacet
facet normal 0.02606159449 0.9875600338 -0.1550672501
outer loop
vertex -83.45767975 67.60250092 233.3496704
vertex -83.4074173 67.63253021 233.5493622
vertex -83.28848267 67.5908432 233.3038635

endloop
endfacet
facet normal 0.02277226932 0.9873943925 -0.1566326618
outer loop
vertex -83.28848267 67.5908432 233.3038635
vertex -83.4074173 67.63253021 233.5493622
vertex -83.23210907 67.62096405 233.5019379

endloop
endfacet
facet normal 0.004472997505 0.9884344935 -0.151582703
outer loop
vertex -83.28848267 67.5908432 233.3038635
vertex -83.23210907 67.62096405 233.5019379
vertex -83.10312653 67.58168793 233.2496338

endloop
endfacet
facet normal 0.003346908838 0.9883524776 -0.1521456242
outer loop
vertex -83.10312653 67.58168793 233.2496338
vertex -83.23210907 67.62096405 233.5019379
vertex -83.04367065 67.61183929 233.4468079

endloop
endfacet
facet normal -0.000536435924 0.9885595441 -0.1508299559
outer loop
vertex -83.10311127 67.58171844 233.2496338
vertex -83.0436554 67.61183929 233.4468384
vertex -82.90409851 67.57280731 233.1905212

endloop
endfacet
facet normal -0.0006865339819 0.9885472655 -0.1509098113
outer loop
vertex -82.90409851 67.57280731 233.1905212
vertex -83.0436554 67.61183929 233.4468384
vertex -82.84422302 67.60292816 233.387558

endloop
endfacet
facet normal 0.001233992632 0.9884594679 -0.1514800042
outer loop
vertex -82.90409851 67.57280731 233.1905212
vertex -82.84422302 67.60292816 233.387558
vertex -82.70458984 67.56346893 233.1312103

endloop
endfacet
facet normal 0.0009408308542 0.9884359837 -0.1516360641
outer loop
vertex -82.70458984 67.56346893 233.1312103
vertex -82.84422302 67.60292816 233.387558
vertex -82.64435577 67.5936203 233.328125

endloop
endfacet
facet normal -0.002493237145 0.9885902405 -0.1506092399
outer loop
vertex -82.70458984 67.56346893 233.1312103
vertex -82.64435577 67.5936203 233.328125
vertex -82.51808167 67.55519867 233.0738373

endloop
endfacet
facet normal -0.003226853907 0.9885337949 -0.1509650201
outer loop
vertex -82.51808167 67.55519867 233.0738373
vertex -82.64435577 67.5936203 233.328125
vertex -82.45523071 67.58535004 233.269928

endloop
endfacet
facet normal -0.02215421945 0.9891838431 -0.1449983567
outer loop
vertex -82.51808167 67.55519867 233.0738373
vertex -82.45523071 67.58535004 233.269928
vertex -82.34903717 67.55068207 233.0171967

endloop
endfacet
facet normal -0.02330568247 0.9890882373 -0.1454690844
outer loop
vertex -82.34903717 67.55068207 233.0171967
vertex -82.45523071 67.58535004 233.269928
vertex -82.28093719 67.58086395 233.2115021

endloop
endfacet
facet normal -0.05681708083 0.989381671 -0.1337756366
outer loop
vertex -82.34902954 67.55071259 233.0172272
vertex -82.28091431 67.58089447 233.2115173
vertex -82.19167328 67.55175018 232.9580688

endloop
endfacet
facet normal -0.05627187341 0.9894378185 -0.133590132
outer loop
vertex -82.19167328 67.55175018 232.9580688
vertex -82.28091431 67.58089447 233.2115173
vertex -82.11685944 67.58190155 233.1498718

endloop
endfacet
facet normal -0.09551585466 0.9883949757 -0.1181188673
outer loop
vertex -82.19167328 67.55175018 232.9580688
vertex -82.11685944 67.58190155 233.1498718
vertex -82.03652954 67.55892181 232.8926239

endloop
endfacet
facet normal -0.09308934957 0.9887133837 -0.1173896044
outer loop
vertex -82.03652954 67.55892181 232.8926239
vertex -82.11685944 67.58190155 233.1498718
vertex -81.95507812 67.58904266 233.0817261

endloop
endfacet
facet normal -0.1249987036 0.9867610931 -0.1033344045
outer loop
vertex -82.03652954 67.55892181 232.8926239
vertex -81.95507812 67.58904266 233.0817261
vertex -81.87412262 67.57161713 232.8173981

endloop
endfacet
facet normal -0.1217381805 0.9872691035 -0.102369301
outer loop
vertex -81.87412262 67.57161713 232.8173981
vertex -81.95507812 67.58904266 233.0817261
vertex -81.78756714 67.60164642 233.0040741

endloop
endfacet
facet normal -0.1119538397 0.9879344106 -0.1070129871
outer loop
vertex -81.87412262 67.57161713 232.8173981
vertex -81.78756714 67.60164642 233.0040741
vertex -81.69766235 67.58263397 232.7344971

endloop
endfacet
facet normal -0.1116479039 0.9879797697 -0.1069141477
outer loop
vertex -81.69766235 67.58263397 232.7344971
vertex -81.78756714 67.60164642 233.0040741
vertex -81.61157227 67.61220551 232.9178619

endloop
endfacet
facet normal 0.06165838987 0.9804113507 -0.1870611608
outer loop
vertex -81.69766235 67.58263397 232.7344971
vertex -81.61157227 67.61220551 232.9178619
vertex -81.521492 67.55956268 232.6716461

endloop
endfacet
facet normal 0.06649293005 0.9804304838 -0.1852964759
outer loop
vertex -81.521492 67.55956268 232.6716461
vertex -81.61157227 67.61220551 232.9178619
vertex -81.45022583 67.58608246 232.8375397

endloop
endfacet
facet normal 0.3173628151 0.9057397246 -0.2809205055
outer loop
vertex -81.52148438 67.5595932 232.6716461
vertex -81.45022583 67.58608246 232.8375549
vertex -81.38420868 67.49904633 232.6315155

endloop
endfacet
facet normal 0.3163703978 0.9059594274 -0.2813312411
outer loop
vertex -81.38420868 67.49904633 232.6315155
vertex -81.45022583 67.58608246 232.8375549
vertex -81.33281708 67.52519989 232.7735291

endloop
endfacet
facet normal 0.9092729688 0.1987920552 -0.3656560779
outer loop
vertex -81.38420868 67.49904633 232.6315155
vertex -81.33281708 67.52519989 232.7735291
vertex -81.28870392 67.24034882 232.728363

endloop
endfacet
facet normal -nan(ind) -nan(ind) -nan(ind)
outer loop
vertex -81.28870392 67.24034882 232.728363
vertex -81.33281708 67.52519989 232.7735291
vertex -81.28870392 67.24034882 232.728363

endloop
endfacet
facet normal -nan(ind) -nan(ind) -nan(ind)
outer loop
vertex -84.67740631 67.42147064 233.5983734
vertex -84.67740631 67.42147064 233.5983734
vertex -84.59705353 67.68639374 233.6049957

endloop
endfacet
facet normal -0.9453455806 0.2826658189 0.1625476778
outer loop
vertex -84.59705353 67.68639374 233.6049957
vertex -84.67740631 67.42147064 233.5983734
vertex -84.58721161 67.63838959 233.7457123

endloop
endfacet
facet normal -0.2508017421 0.9106984138 0.3282177448
outer loop
vertex -84.59705353 67.68639374 233.6049957
vertex -84.58721161 67.63838959 233.7457123
vertex -84.44069672 67.72600555 233.614563

endloop
endfacet
facet normal -0.2778844833 0.9127804637 0.2993529439
outer loop
vertex -84.44069672 67.72600555 233.614563
vertex -84.58721161 67.63838959 233.7457123
vertex -84.4503479 67.66918182 233.7788696

endloop
endfacet
facet normal -0.05340381339 0.9446939826 0.3235756755
outer loop
vertex -84.44069672 67.72600555 233.614563
vertex -84.4503479 67.66918182 233.7788696
vertex -84.20494843 67.73171234 233.6368103

endloop
endfacet
facet normal -0.05602962524 0.9459038973 0.3195722699
outer loop
vertex -84.20494843 67.73171234 233.6368103
vertex -84.4503479 67.66918182 233.7788696
vertex -84.2263031 67.66829681 233.8207703

endloop
endfacet
facet normal 0.1109856144 0.9355221391 0.3353810906
outer loop
vertex -84.20494843 67.73171234 233.6368103
vertex -84.2263031 67.66829681 233.8207703
vertex -83.95489502 67.69997406 233.6425934

endloop
endfacet
facet normal 0.1050736606 0.9391571283 0.3270219564
outer loop
vertex -83.95489502 67.69997406 233.6425934
vertex -84.2263031 67.66829681 233.8207703
vertex -83.96298218 67.63564301 233.8299408

endloop
endfacet
facet normal 0.1681637615 0.9300733209 0.3266261518
outer loop
vertex -83.95489502 67.69997406 233.6425934
vertex -83.96298218 67.63564301 233.8299408
vertex -83.75093079 67.67055511 233.6213531

endloop
endfacet
facet normal 0.1510822773 0.938436985 0.3106608987
outer loop
vertex -83.75093079 67.67055511 233.6213531
vertex -83.96298218 67.63564301 233.8299408
vertex -83.73596954 67.60604095 233.80896

endloop
endfacet
facet normal 0.174469918 0.9353405237 0.307730943
outer loop
vertex -83.75093079 67.67055511 233.6213531
vertex -83.73596954 67.60604095 233.80896
vertex -83.57673645 67.64876556 233.5888214

endloop
endfacet
facet normal 0.1645953357 0.9392037988 0.3013381362
outer loop
vertex -83.57673645 67.64876556 233.5888214
vertex -83.73596954 67.60604095 233.80896
vertex -83.5482254 67.58400726 233.7750854

endloop
endfacet
facet normal 0.160534516 0.9396563768 0.3021170795
outer loop
vertex -83.57673645 67.64876556 233.5888214
vertex -83.5482254 67.58400726 233.7750854
vertex -83.4074173 67.63253021 233.5493469

endloop
endfacet
facet normal 0.1550954729 0.9415248632 0.2991259992
outer loop
vertex -83.4074173 67.63253021 233.5493469
vertex -83.5482254 67.58400726 233.7750854
vertex -83.36894989 67.56758881 233.7338104

endloop
endfacet
facet normal 0.1438280344 0.942452848 0.3018214107
outer loop
vertex -83.4074173 67.63253021 233.5493622
vertex -83.36894226 67.56758881 233.7338104
vertex -83.23210907 67.62096405 233.5019379

endloop
endfacet
facet normal 0.1408370882 0.9433983564 0.3002740443
outer loop
vertex -83.23210907 67.62096405 233.5019379
vertex -83.36894226 67.56758881 233.7338104
vertex -83.18560028 67.55590057 233.6845398

endloop
endfacet
facet normal 0.1340931356 0.9437881708 0.3021306098
outer loop
vertex -83.23210907 67.62096405 233.5019379
vertex -83.18560028 67.55590057 233.6845398
vertex -83.04367065 67.61183929 233.4468079

endloop
endfacet
facet normal 0.1332042217 0.9440630674 0.3016645908
outer loop
vertex -83.04367065 67.61183929 233.4468079
vertex -83.18560028 67.55590057 233.6845398
vertex -82.9931488 67.54668427 233.6284027

endloop
endfacet
facet normal 0.1319700927 0.944111228 0.3020561337
outer loop
vertex -83.0436554 67.61183929 233.4468384
vertex -82.99314117 67.54668427 233.628418
vertex -82.84422302 67.60292816 233.387558

endloop
endfacet
facet normal 0.1318107396 0.9441612363 0.3019693196
outer loop
vertex -82.84422302 67.60292816 233.387558
vertex -82.99314117 67.54668427 233.628418
vertex -82.79325867 67.53777313 233.5690308

endloop
endfacet
facet normal 0.1336019635 0.9440796375 0.3014369309
outer loop
vertex -82.84422302 67.60292816 233.387558
vertex -82.79325867 67.53777313 233.5690308
vertex -82.64435577 67.5936203 233.328125

endloop
endfacet
facet normal 0.133735314 0.9440375566 0.301509589
outer loop
vertex -82.64435577 67.5936203 233.328125
vertex -82.79325867 67.53777313 233.5690308
vertex -82.59320831 67.52843475 233.5095367

endloop
endfacet
facet normal 0.1340335459 0.9440236688 0.3014205396
outer loop
vertex -82.64435577 67.5936203 233.328125
vertex -82.59320831 67.52843475 233.5095367
vertex -82.45523071 67.58535004 233.269928

endloop
endfacet
facet normal 0.1331105679 0.9443026185 0.3009553254
outer loop
vertex -82.45523071 67.58535004 233.269928
vertex -82.59320831 67.52843475 233.5095367
vertex -82.40100098 67.52019501 233.4503784

endloop
endfacet
facet normal 0.1259499937 0.9445660114 0.3032023013
outer loop
vertex -82.45523071 67.58535004 233.269928
vertex -82.40100098 67.52019501 233.4503784
vertex -82.28093719 67.58086395 233.2115021

endloop
endfacet
facet normal 0.1250776052 0.9448032379 0.30282408
outer loop
vertex -82.28093719 67.58086395 233.2115021
vertex -82.40100098 67.52019501 233.4503784
vertex -82.21992493 67.51567841 233.389679

endloop
endfacet
facet normal 0.1099542826 0.9449931979 0.308055222
outer loop
vertex -82.28091431 67.58089447 233.2115173
vertex -82.2199173 67.51570892 233.3897095
vertex -82.11685944 67.58190155 233.1498718

endloop
endfacet
facet normal 0.1100744456 0.9449648261 0.3080990016
outer loop
vertex -82.11685944 67.58190155 233.1498718
vertex -82.2199173 67.51570892 233.3897095
vertex -82.04688263 67.51674652 233.324707

endloop
endfacet
facet normal 0.0912002027 0.9445350766 0.3154931962
outer loop
vertex -82.11685944 67.58190155 233.1498718
vertex -82.04688263 67.51674652 233.324707
vertex -81.95507812 67.58904266 233.0817261

endloop
endfacet
facet normal 0.09338566661 0.9440897107 0.3161863685
outer loop
vertex -81.95507812 67.58904266 233.0817261
vertex -82.04688263 67.51674652 233.324707
vertex -81.87615204 67.52394867 233.2527771

endloop
endfacet
facet normal 0.07861178368 0.9432381392 0.3226792514
outer loop
vertex -81.95507812 67.58904266 233.0817261
vertex -81.87615204 67.52394867 233.2527771
vertex -81.78756714 67.60164642 233.0040741

endloop
endfacet
facet normal 0.08130146563 0.9427356124 0.3234802783
outer loop
vertex -81.78756714 67.60164642 233.0040741
vertex -81.87615204 67.52394867 233.2527771
vertex -81.70193481 67.53670502 233.171814

endloop
endfacet
facet normal 0.0978962034 0.9438786507 0.3154511154
outer loop
vertex -81.78756714 67.60164642 233.0040741
vertex -81.70193481 67.53670502 233.171814
vertex -81.61157227 67.61220551 232.9178619

endloop
endfacet
facet normal 0.0984185487 0.9437727332 0.3156054616
outer loop
vertex -81.61157227 67.61220551 232.9178619
vertex -81.70193481 67.53670502 233.171814
vertex -81.52620697 67.54827118 233.082428

endloop
endfacet
facet normal 0.264677465 0.9372779727 0.2268388271
outer loop
vertex -81.61157227 67.61220551 232.9178619
vertex -81.52620697 67.54827118 233.082428
vertex -81.45022583 67.58608246 232.8375397

endloop
endfacet
facet normal 0.2746165693 0.9337925315 0.229384467
outer loop
vertex -81.45022583 67.58608246 232.8375397
vertex -81.52620697 67.54827118 233.082428
vertex -81.3813324 67.52895355 232.9876251

endloop
endfacet
facet normal 0.4997825325 0.8605701327 0.09816537052
outer loop
vertex -81.45022583 67.58608246 232.8375549
vertex -81.3813324 67.52895355 232.9876251
vertex -81.33281708 67.52519989 232.7735291

endloop
endfacet
facet normal 0.5399369597 0.834784627 0.1077166647
outer loop
vertex -81.33281708 67.52519989 232.7735291
vertex -81.3813324 67.52895355 232.9876251
vertex -81.28494263 67.47707367 232.9065247

endloop
endfacet
facet normal 0.943733573 0.1891620755 -0.2712650895
outer loop
vertex -81.33281708 67.52519989 232.7735291
vertex -81.28494263 67.47707367 232.9065247
vertex -81.28870392 67.24034882 232.728363

endloop
endfacet
facet normal -0.6499655247 0.4635563791 -0.6022129059
outer loop
vertex -81.28870392 67.24034882 232.728363
vertex -81.28494263 67.47707367 232.9065247
vertex -81.28869629 67.24037933 232.7283783

endloop
endfacet
facet normal -0.923361063 0.3839326799 0
outer loop
vertex -84.67740631 67.42147064 233.5983734
vertex -84.67740631 67.42147064 233.5983887
vertex -84.58721161 67.63838959 233.7457123

endloop
endfacet
facet normal -0.9408575296 0.2113846689 0.2647710741
outer loop
vertex -84.58721161 67.63838959 233.7457123
vertex -84.67740631 67.42147064 233.5983887
vertex -84.58470154 67.53792572 233.8348389

endloop
endfacet
facet normal -0.313791126 0.6257190108 0.7141504288
outer loop
vertex -84.58721161 67.63838959 233.7457123
vertex -84.58470154 67.53792572 233.8348389
vertex -84.4503479 67.66918182 233.7788696

endloop
endfacet
facet normal -0.3584233522 0.6518522501 0.6682973504
outer loop
vertex -84.4503479 67.66918182 233.7788696
vertex -84.58470154 67.53792572 233.8348389
vertex -84.46459198 67.5561142 233.8815155

endloop
endfacet
facet normal -0.133001864 0.675321877 0.7254315019
outer loop
vertex -84.4503479 67.66918182 233.7788696
vertex -84.46459198 67.5561142 233.8815155
vertex -84.2263031 67.66829681 233.8207703

endloop
endfacet
facet normal -0.1373338401 0.6811309457 0.7191662192
outer loop
vertex -84.2263031 67.66829681 233.8207703
vertex -84.46459198 67.5561142 233.8815155
vertex -84.25193024 67.54213715 233.9353638

endloop
endfacet
facet normal 0.05652514845 0.6649700999 0.7447279096
outer loop
vertex -84.2263031 67.66829681 233.8207703
vertex -84.25193024 67.54213715 233.9353638
vertex -83.96298218 67.63564301 233.8299408

endloop
endfacet
facet normal 0.05219633505 0.6717833877 0.7389064431
outer loop
vertex -83.96298218 67.63564301 233.8299408
vertex -84.25193024 67.54213715 233.9353638
vertex -83.98137665 67.50762177 233.9476318

endloop
endfacet
facet normal 0.1538638622 0.6566494703 0.7383342385
outer loop
vertex -83.96298218 67.63564301 233.8299408
vertex -83.98137665 67.50762177 233.9476318
vertex -83.73596954 67.60604095 233.80896

endloop
endfacet
facet normal 0.1412273049 0.6720574498 0.7269067764
outer loop
vertex -83.73596954 67.60604095 233.80896
vertex -83.98137665 67.50762177 233.9476318
vertex -83.73894501 67.4776535 233.9282379

endloop
endfacet
facet normal 0.2075752765 0.6632267833 0.7190568447
outer loop
vertex -83.73596954 67.60604095 233.80896
vertex -83.73894501 67.4776535 233.9282379
vertex -83.5482254 67.58400726 233.7750854

endloop
endfacet
facet normal 0.1993559301 0.6709601283 0.7141917348
outer loop
vertex -83.5482254 67.58400726 233.7750854
vertex -83.73894501 67.4776535 233.9282379
vertex -83.54024506 67.45519257 233.8938751

endloop
endfacet
facet normal 0.2245115787 0.6680959463 0.7093958259
outer loop
vertex -83.5482254 67.58400726 233.7750854
vertex -83.54024506 67.45519257 233.8938751
vertex -83.36894989 67.56758881 233.7338104

endloop
endfacet
facet normal 0.2201036066 0.6717977524 0.7072779536
outer loop
vertex -83.36894989 67.56758881 233.7338104
vertex -83.54024506 67.45519257 233.8938751
vertex -83.35197449 67.43837738 233.8512573

endloop
endfacet
facet normal 0.2320685536 0.6707578301 0.7044346333
outer loop
vertex -83.36894226 67.56758881 233.7338104
vertex -83.35198212 67.43837738 233.8512573
vertex -83.18560028 67.55590057 233.6845398

endloop
endfacet
facet normal 0.2294209152 0.672873199 0.7032834888
outer loop
vertex -83.18560028 67.55590057 233.6845398
vertex -83.35198212 67.43837738 233.8512573
vertex -83.16127014 67.42644501 233.8004608

endloop
endfacet
facet normal 0.2367569804 0.6724417806 0.7012619376
outer loop
vertex -83.18560028 67.55590057 233.6845398
vertex -83.16127014 67.42644501 233.8004608
vertex -82.9931488 67.54668427 233.6284027

endloop
endfacet
facet normal 0.2358609289 0.6731517315 0.7008825541
outer loop
vertex -82.9931488 67.54668427 233.6284027
vertex -83.16127014 67.42644501 233.8004608
vertex -82.96517181 67.41710663 233.7434387

endloop
endfacet
facet normal 0.2380249053 0.6731832027 0.7001202703
outer loop
vertex -82.99314117 67.54668427 233.628418
vertex -82.96516418 67.41713715 233.7434692
vertex -82.79325867 67.53777313 233.5690308

endloop
endfacet
facet normal 0.2380709797 0.6731463671 0.7001401782
outer loop
vertex -82.79325867 67.53777313 233.5690308
vertex -82.96516418 67.41713715 233.7434692
vertex -82.76496124 67.4081955 233.6839905

endloop
endfacet
facet normal 0.2395105362 0.673080802 0.6997119784
outer loop
vertex -82.79325867 67.53777313 233.5690308
vertex -82.76496124 67.4081955 233.6839905
vertex -82.59320831 67.52843475 233.5095367

endloop
endfacet
facet normal 0.2393790483 0.673186481 0.699655354
outer loop
vertex -82.59320831 67.52843475 233.5095367
vertex -82.76496124 67.4081955 233.6839905
vertex -82.56494141 67.39888763 233.6245117

endloop
endfacet
facet normal 0.2437860966 0.6729760766 0.6983348727
outer loop
vertex -82.59320831 67.52843475 233.5095367
vertex -82.56494141 67.39888763 233.6245117
vertex -82.40100098 67.52019501 233.4503784

endloop
endfacet
facet normal 0.2432694882 0.6733774543 0.6981281042
outer loop
vertex -82.40100098 67.52019501 233.4503784
vertex -82.56494141 67.39888763 233.6245117
vertex -82.37013245 67.39061737 233.5646057

endloop
endfacet
facet normal 0.2500912845 0.6731057167 0.6959764361
outer loop
vertex -82.40100098 67.52019501 233.4503784
vertex -82.37013245 67.39061737 233.5646057
vertex -82.21992493 67.51567841 233.389679

endloop
endfacet
facet normal 0.2495031059 0.6735314131 0.6957756281
outer loop
vertex -82.21992493 67.51567841 233.389679
vertex -82.37013245 67.39061737 233.5646057
vertex -82.18289185 67.38600922 233.5019226

endloop
endfacet
facet normal 0.2564453185 0.6733750701 0.6933987737
outer loop
vertex -82.2199173 67.51570892 233.3897095
vertex -82.18288422 67.38603973 233.5019379
vertex -82.04688263 67.51674652 233.324707

endloop
endfacet
facet normal 0.256686002 0.6732147932 0.6934653521
outer loop
vertex -82.04688263 67.51674652 233.324707
vertex -82.18288422 67.38603973 233.5019379
vertex -82.00154114 67.38710785 233.4337769

endloop
endfacet
facet normal 0.2627522051 0.6733285189 0.6910787225
outer loop
vertex -82.04688263 67.51674652 233.324707
vertex -82.00154114 67.38710785 233.4337769
vertex -81.87615204 67.52394867 233.2527771

endloop
endfacet
facet normal 0.2640677691 0.6725117564 0.691372633
outer loop
vertex -81.87615204 67.52394867 233.2527771
vertex -82.00154114 67.38710785 233.4337769
vertex -81.82247925 67.39446259 233.3582306

endloop
endfacet
facet normal 0.2706747651 0.6728760004 0.6884571314
outer loop
vertex -81.87615204 67.52394867 233.2527771
vertex -81.82247925 67.39446259 233.3582306
vertex -81.70193481 67.53670502 233.171814

endloop
endfacet
facet normal 0.2725247741 0.6717686653 0.6888084412
outer loop
vertex -81.70193481 67.53670502 233.171814
vertex -81.82247925 67.39446259 233.3582306
vertex -81.64205933 67.40749359 233.2741394

endloop
endfacet
facet normal 0.2993204594 0.6737470031 0.6756272316
outer loop
vertex -81.70193481 67.53670502 233.171814
vertex -81.64205933 67.40749359 233.2741394
vertex -81.52620697 67.54827118 233.082428

endloop
endfacet
facet normal 0.2996453345 0.6735504866 0.6756792665
outer loop
vertex -81.52620697 67.54827118 233.082428
vertex -81.64205933 67.40749359 233.2741394
vertex -81.46634674 67.42110443 233.1826477

endloop
endfacet
facet normal 0.4659473896 0.6724976897 0.5750128627
outer loop
vertex -81.52620697 67.54827118 233.082428
vertex -81.46634674 67.42110443 233.1826477
vertex -81.3813324 67.52895355 232.9876251

endloop
endfacet
facet normal 0.4773353636 0.6641579866 0.5753651857
outer loop
vertex -81.3813324 67.52895355 232.9876251
vertex -81.46634674 67.42110443 233.1826477
vertex -81.33460236 67.41527557 233.0800781

endloop
endfacet
facet normal 0.675478816 0.611992836 0.4113309979
outer loop
vertex -81.3813324 67.52895355 232.9876251
vertex -81.33460999 67.41524506 233.0800781
vertex -81.28494263 67.47707367 232.9065247

endloop
endfacet
facet normal 0.7262666821 0.5550225377 0.4055696428
outer loop
vertex -81.28494263 67.47707367 232.9065247
vertex -81.33460999 67.41524506 233.0800781
vertex -81.25492859 67.37639618 232.9905548

endloop
endfacet
facet normal 0.9727448821 0.1293949634 -0.1924171448
outer loop
vertex -81.28494263 67.47707367 232.9065247
vertex -81.25492859 67.37639618 232.9905548
vertex -81.28869629 67.24037933 232.7283783

endloop
endfacet
facet normal -nan(ind) -nan(ind) -nan(ind)
outer loop
vertex -81.28869629 67.24037933 232.7283783
vertex -81.25492859 67.37639618 232.9905548
vertex -81.28869629 67.24037933 232.7283783

endloop
endfacet
facet normal 0.7823716998 -0.6228117347 0
outer loop
vertex -84.67740631 67.42147064 233.5983887
vertex -84.67740631 67.42147064 233.5983734
vertex -84.58470154 67.53792572 233.8348389

endloop
endfacet
facet normal -0.942655921 0.1119321361 0.314437598
outer loop
vertex -84.58470154 67.53792572 233.8348389
vertex -84.67740631 67.42147064 233.5983734
vertex -84.58825684 67.42324066 233.8650055

endloop
endfacet
facet normal -0.3832363188 0.2460568845 0.8902729154
outer loop
vertex -84.58470154 67.53792572 233.8348389
vertex -84.58825684 67.42324066 233.8650055
vertex -84.46459198 67.5561142 233.8815155

endloop
endfacet
facet normal -0.4393250644 0.303835839 0.8453858495
outer loop
vertex -84.46459198 67.5561142 233.8815155
vertex -84.58825684 67.42324066 233.8650055
vertex -84.47908783 67.42714691 233.9203339

endloop
endfacet
facet normal -0.2150833905 0.3035631478 0.9282179475
outer loop
vertex -84.46459198 67.5561142 233.8815155
vertex -84.47908783 67.42714691 233.9203339
vertex -84.25193024 67.54213715 233.9353638

endloop
endfacet
facet normal -0.2193959802 0.3126078844 0.9241979122
outer loop
vertex -84.25193024 67.54213715 233.9353638
vertex -84.47908783 67.42714691 233.9203339
vertex -84.27526093 67.39836884 233.9784546

endloop
endfacet
facet normal -0.006668013055 0.288091749 0.9575796127
outer loop
vertex -84.25193024 67.54213715 233.9353638
vertex -84.27526093 67.39836884 233.9784546
vertex -83.98137665 67.50762177 233.9476318

endloop
endfacet
facet normal -0.01063661464 0.2979081869 0.9545352459
outer loop
vertex -83.98137665 67.50762177 233.9476318
vertex -84.27526093 67.39836884 233.9784546
vertex -84.00315094 67.36168671 233.9929352

endloop
endfacet
facet normal 0.1108489111 0.2795279324 0.9537172318
outer loop
vertex -83.98137665 67.50762177 233.9476318
vertex -84.00315094 67.36168671 233.9929352
vertex -83.73894501 67.4776535 233.9282379

endloop
endfacet
facet normal 0.1018974185 0.2974489927 0.9492844939
outer loop
vertex -83.73894501 67.4776535 233.9282379
vertex -84.00315094 67.36168671 233.9929352
vertex -83.7537384 67.33132172 233.9756775

endloop
endfacet
facet normal 0.1945120841 0.2846514285 0.9386898279
outer loop
vertex -83.73894501 67.4776535 233.9282379
vertex -83.7537384 67.33132172 233.9756775
vertex -83.54024506 67.45519257 233.8938751

endloop
endfacet
facet normal 0.1887572408 0.2935376167 0.9371265769
outer loop
vertex -83.54024506 67.45519257 233.8938751
vertex -83.7537384 67.33132172 233.9756775
vertex -83.54811096 67.30831146 233.9414673

endloop
endfacet
facet normal 0.2358223051 0.2880957127 0.9281103015
outer loop
vertex -83.54024506 67.45519257 233.8938751
vertex -83.54811096 67.30831146 233.9414673
vertex -83.35197449 67.43837738 233.8512573

endloop
endfacet
facet normal 0.2321997136 0.2931042314 0.9274552464
outer loop
vertex -83.35197449 67.43837738 233.8512573
vertex -83.54811096 67.30831146 233.9414673
vertex -83.35340118 67.29103851 233.8981781

endloop
endfacet
facet normal 0.2632136941 0.2902960777 0.9200254083
outer loop
vertex -83.35198212 67.43837738 233.8512573
vertex -83.35340118 67.291008 233.8981628
vertex -83.16127014 67.42644501 233.8004608

endloop
endfacet
facet normal 0.2609845996 0.2932422757 0.9197260141
outer loop
vertex -83.16127014 67.42644501 233.8004608
vertex -83.35340118 67.291008 233.8981628
vertex -83.1572876 67.27880096 233.846405

endloop
endfacet
facet normal 0.279839009 0.2921312451 0.9145214558
outer loop
vertex -83.16127014 67.42644501 233.8004608
vertex -83.1572876 67.27880096 233.846405
vertex -82.96517181 67.41710663 233.7434387

endloop
endfacet
facet normal 0.2789107263 0.2933430076 0.9144171476
outer loop
vertex -82.96517181 67.41710663 233.7434387
vertex -83.1572876 67.27880096 233.846405
vertex -82.95853424 67.26943207 233.7887878

endloop
endfacet
facet normal 0.2842943966 0.2929584682 0.9128811359
outer loop
vertex -82.96516418 67.41713715 233.7434692
vertex -82.95852661 67.26943207 233.7888031
vertex -82.76496124 67.4081955 233.6839905

endloop
endfacet
facet normal 0.2840864658 0.2932312191 0.9128583074
outer loop
vertex -82.76496124 67.4081955 233.6839905
vertex -82.95852661 67.26943207 233.7888031
vertex -82.75815582 67.26052094 233.7293091

endloop
endfacet
facet normal 0.2850130796 0.2931894064 0.9125829339
outer loop
vertex -82.76496124 67.4081955 233.6839905
vertex -82.75815582 67.26052094 233.7293091
vertex -82.56494141 67.39888763 233.6245117

endloop
endfacet
facet normal 0.2848934531 0.2933464348 0.9125697613
outer loop
vertex -82.56494141 67.39888763 233.6245117
vertex -82.75815582 67.26052094 233.7293091
vertex -82.55831146 67.25118256 233.6699219

endloop
endfacet
facet normal 0.2923712134 0.292989403 0.9103165865
outer loop
vertex -82.56494141 67.39888763 233.6245117
vertex -82.55831146 67.25118256 233.6699219
vertex -82.37013245 67.39061737 233.5646057

endloop
endfacet
facet normal 0.2921176255 0.2933141291 0.9102934003
outer loop
vertex -82.37013245 67.39061737 233.5646057
vertex -82.55831146 67.25118256 233.6699219
vertex -82.361763 67.24282074 233.6095428

endloop
endfacet
facet normal 0.310030967 0.2925923169 0.9045830965
outer loop
vertex -82.37013245 67.39061737 233.5646057
vertex -82.361763 67.24282074 233.6095428
vertex -82.18289185 67.38600922 233.5019226

endloop
endfacet
facet normal 0.3095858693 0.2931316793 0.904560864
outer loop
vertex -82.18289185 67.38600922 233.5019226
vertex -82.361763 67.24282074 233.6095428
vertex -82.17007446 67.23818207 233.5454407

endloop
endfacet
facet normal 0.3349155188 0.292699635 0.8956330419
outer loop
vertex -82.18288422 67.38603973 233.5019379
vertex -82.17006683 67.23821259 233.5454559
vertex -82.00154114 67.38710785 233.4337769

endloop
endfacet
facet normal 0.3349834681 0.292622596 0.8956328034
outer loop
vertex -82.00154114 67.38710785 233.4337769
vertex -82.17006683 67.23821259 233.5454559
vertex -81.9825592 67.2392807 233.4749756

endloop
endfacet
facet normal 0.3614048958 0.2930926383 0.885145843
outer loop
vertex -82.00154114 67.38710785 233.4337769
vertex -81.9825592 67.2392807 233.4749756
vertex -81.82247925 67.39446259 233.3582306

endloop
endfacet
facet normal 0.3623426557 0.2920869887 0.8850948811
outer loop
vertex -81.82247925 67.39446259 233.3582306
vertex -81.9825592 67.2392807 233.4749756
vertex -81.79730225 67.24684906 233.396637

endloop
endfacet
facet normal 0.3863682449 0.2934102714 0.8744312525
outer loop
vertex -81.82247925 67.39446259 233.3582306
vertex -81.79730225 67.24684906 233.396637
vertex -81.64205933 67.40749359 233.2741394

endloop
endfacet
facet normal 0.3877784014 0.2919454277 0.8742973208
outer loop
vertex -81.64205933 67.40749359 233.2741394
vertex -81.79730225 67.24684906 233.396637
vertex -81.61231232 67.26018524 233.3101349

endloop
endfacet
facet normal 0.4232437313 0.2948096693 0.8567100167
outer loop
vertex -81.64205933 67.40749359 233.2741394
vertex -81.61231232 67.26018524 233.3101349
vertex -81.46634674 67.42110443 233.1826477

endloop
endfacet
facet normal 0.4233626127 0.294688344 0.8566930294
outer loop
vertex -81.46634674 67.42110443 233.1826477
vertex -81.61231232 67.26018524 233.3101349
vertex -81.43643188 67.27614594 233.2177277

endloop
endfacet
facet normal 0.5937636495 0.3029300869 0.7454381585
outer loop
vertex -81.46634674 67.42110443 233.1826477
vertex -81.43643188 67.27614594 233.2177277
vertex -81.33460236 67.41527557 233.0800781

endloop
endfacet
facet normal 0.6029295325 0.2929007113 0.7420817018
outer loop
vertex -81.33460236 67.41527557 233.0800781
vertex -81.43643188 67.27614594 233.2177277
vertex -81.31286621 67.2856369 233.1135864

endloop
endfacet
facet normal 0.7743009925 0.2770003378 0.5689716935
outer loop
vertex -81.33460999 67.41524506 233.0800781
vertex -81.31286621 67.2856369 233.1135864
vertex -81.25492859 67.37639618 232.9905548

endloop
endfacet
facet normal 0.8202195168 0.2019360662 0.5352212787
outer loop
vertex -81.25492859 67.37639618 232.9905548
vertex -81.31286621 67.2856369 233.1135864
vertex -81.24505615 67.26155853 233.0187531

endloop
endfacet
facet normal 0.9872580767 0.04758789018 -0.1518449932
outer loop
vertex -81.25492859 67.37639618 232.9905548
vertex -81.24505615 67.26155853 233.0187531
vertex -81.28869629 67.24037933 232.7283783

endloop
endfacet
facet normal 0.9750989079 -0.1769813001 -0.133640036
outer loop
vertex -81.28869629 67.24037933 232.7283783
vertex -81.24505615 67.26155853 233.0187531
vertex -81.28870392 67.24034882 232.728363

endloop
endfacet
facet normal -nan(ind) -nan(ind) -nan(ind)
outer loop
vertex -84.67740631 67.42147064 233.5983734
vertex -84.67740631 67.42147064 233.5983734
vertex -84.58825684 67.42324066 233.8650055

endloop
endfacet
facet normal -0.9483889937 -0.001329725375 0.317106396
outer loop
vertex -84.58825684 67.42324066 233.8650055
vertex -84.67740631 67.42147064 233.5983734
vertex -84.59690094 67.30776215 233.8386688

endloop
endfacet
facet normal -0.4408454299 -0.1680869758 0.8817040324
outer loop
vertex -84.58825684 67.42324066 233.8650055
vertex -84.59690094 67.30776215 233.8386688
vertex -84.47908783 67.42714691 233.9203339

endloop
endfacet
facet normal -0.4778010547 -0.1234419718 0.869751811
outer loop
vertex -84.47908783 67.42714691 233.9203339
vertex -84.59690094 67.30776215 233.8386688
vertex -84.4929657 67.29003143 233.8932495

endloop
endfacet
facet normal -0.29124704 -0.1569283903 0.9436888695
outer loop
vertex -84.47908783 67.42714691 233.9203339
vertex -84.4929657 67.29003143 233.8932495
vertex -84.27526093 67.39836884 233.9784546

endloop
endfacet
facet normal -0.2935870886 -0.152257517 0.9437288642
outer loop
vertex -84.27526093 67.39836884 233.9784546
vertex -84.4929657 67.29003143 233.8932495
vertex -84.29493713 67.24526215 233.9476318

endloop
endfacet
facet normal -0.07734888047 -0.1872021854 0.9792714119
outer loop
vertex -84.27526093 67.39836884 233.9784546
vertex -84.29493713 67.24526215 233.9476318
vertex -84.00315094 67.36168671 233.9929352

endloop
endfacet
facet normal -0.08286426961 -0.1741407365 0.9812280536
outer loop
vertex -84.00315094 67.36168671 233.9929352
vertex -84.29493713 67.24526215 233.9476318
vertex -84.02706146 67.20635223 233.9633484

endloop
endfacet
facet normal 0.04425940663 -0.1934944391 0.9801025987
outer loop
vertex -84.00315094 67.36168671 233.9929352
vertex -84.02706146 67.20635223 233.9633484
vertex -83.7537384 67.33132172 233.9756775

endloop
endfacet
facet normal 0.03615681827 -0.1761283427 0.9837029576
outer loop
vertex -83.7537384 67.33132172 233.9756775
vertex -84.02706146 67.20635223 233.9633484
vertex -83.77950287 67.17552948 233.9487305

endloop
endfacet
facet normal 0.1402261406 -0.1912245154 0.9714781642
outer loop
vertex -83.7537384 67.33132172 233.9756775
vertex -83.77950287 67.17552948 233.9487305
vertex -83.54811096 67.30831146 233.9414673

endloop
endfacet
facet normal 0.1355514228 -0.1829548627 0.973731637
outer loop
vertex -83.54811096 67.30831146 233.9414673
vertex -83.77950287 67.17552948 233.9487305
vertex -83.5714035 67.15193939 233.915329

endloop
endfacet
facet normal 0.1969692558 -0.1901091933 0.9618011713
outer loop
vertex -83.54811096 67.30831146 233.9414673
vertex -83.5714035 67.15193939 233.915329
vertex -83.35340118 67.29103851 233.8981781

endloop
endfacet
facet normal 0.1941643059 -0.1855327338 0.9632641673
outer loop
vertex -83.35340118 67.29103851 233.8981781
vertex -83.5714035 67.15193939 233.915329
vertex -83.3731308 67.13420868 233.8719482

endloop
endfacet
facet normal 0.2395388782 -0.1892525405 0.9522628188
outer loop
vertex -83.35340118 67.291008 233.8981628
vertex -83.3731308 67.13420868 233.8719635
vertex -83.1572876 67.27880096 233.846405

endloop
endfacet
facet normal 0.237818718 -0.1865130365 0.9532340169
outer loop
vertex -83.1572876 67.27880096 233.846405
vertex -83.3731308 67.13420868 233.8719635
vertex -83.17385864 67.12166595 233.8197937

endloop
endfacet
facet normal 0.2652677894 -0.1881223917 0.9456441402
outer loop
vertex -83.1572876 67.27880096 233.846405
vertex -83.17385864 67.12166595 233.8197937
vertex -82.95853424 67.26943207 233.7887878

endloop
endfacet
facet normal 0.2644710839 -0.1868622452 0.9461170435
outer loop
vertex -82.95853424 67.26943207 233.7887878
vertex -83.17385864 67.12166595 233.8197937
vertex -82.97357178 67.11217499 233.7619324

endloop
endfacet
facet normal 0.271949172 -0.1871626526 0.9439352155
outer loop
vertex -82.95852661 67.26943207 233.7888031
vertex -82.97357178 67.11220551 233.7619629
vertex -82.75815582 67.26052094 233.7293091

endloop
endfacet
facet normal 0.2719429433 -0.1871527582 0.9439389706
outer loop
vertex -82.75815582 67.26052094 233.7293091
vertex -82.97357178 67.11220551 233.7619629
vertex -82.77321625 67.10326385 233.7024689

endloop
endfacet
facet normal 0.271777451 -0.1871453375 0.9439881444
outer loop
vertex -82.75815582 67.26052094 233.7293091
vertex -82.77321625 67.10326385 233.7024689
vertex -82.55831146 67.25118256 233.6699219

endloop
endfacet
facet normal 0.2718029618 -0.1871857345 0.943972826
outer loop
vertex -82.55831146 67.25118256 233.6699219
vertex -82.77321625 67.10326385 233.7024689
vertex -82.57369232 67.09395599 233.6431732

endloop
endfacet
facet normal 0.2811360061 -0.1876183599 0.9411492348
outer loop
vertex -82.55831146 67.25118256 233.6699219
vertex -82.57369232 67.09395599 233.6431732
vertex -82.361763 67.24282074 233.6095428

endloop
endfacet
facet normal 0.2807276845 -0.1869809479 0.9413978457
outer loop
vertex -82.361763 67.24282074 233.6095428
vertex -82.57369232 67.09395599 233.6431732
vertex -82.37636566 67.08553314 233.5826569

endloop
endfacet
facet normal 0.3073956966 -0.1879918277 0.9328274727
outer loop
vertex -82.361763 67.24282074 233.6095428
vertex -82.37636566 67.08553314 233.5826569
vertex -82.17007446 67.23818207 233.5454407

endloop
endfacet
facet normal 0.3070230484 -0.1874307543 0.9330630898
outer loop
vertex -82.17007446 67.23818207 233.5454407
vertex -82.37636566 67.08553314 233.5826569
vertex -82.18215179 67.08083344 233.517807

endloop
endfacet
facet normal 0.3465175331 -0.1878760755 0.9190365076
outer loop
vertex -82.17006683 67.23821259 233.5454559
vertex -82.18212891 67.08086395 233.5178375
vertex -81.9825592 67.2392807 233.4749756

endloop
endfacet
facet normal 0.3467229605 -0.1881721616 0.9188985229
outer loop
vertex -81.9825592 67.2392807 233.4749756
vertex -82.18212891 67.08086395 233.5178375
vertex -81.99098206 67.08196259 233.4459381

endloop
endfacet
facet normal 0.3890622854 -0.1873137951 0.9019668102
outer loop
vertex -81.9825592 67.2392807 233.4749756
vertex -81.99098206 67.08196259 233.4459381
vertex -81.79730225 67.24684906 233.396637

endloop
endfacet
facet normal 0.3897188604 -0.18822667 0.9014931321
outer loop
vertex -81.79730225 67.24684906 233.396637
vertex -81.99098206 67.08196259 233.4459381
vertex -81.80201721 67.08968353 233.36586

endloop
endfacet
facet normal 0.4271606207 -0.1860848665 0.8848198056
outer loop
vertex -81.79730225 67.24684906 233.396637
vertex -81.80201721 67.08968353 233.36586
vertex -81.61231232 67.26018524 233.3101349

endloop
endfacet
facet normal 0.4281893373 -0.1874888986 0.8840259314
outer loop
vertex -81.61231232 67.26018524 233.3101349
vertex -81.80201721 67.08968353 233.36586
vertex -81.61437225 67.10338593 233.2778778

endloop
endfacet
facet normal 0.4702065289 -0.1837594509 0.8632138371
outer loop
vertex -81.61231232 67.26018524 233.3101349
vertex -81.61437225 67.10338593 233.2778778
vertex -81.43643188 67.27614594 233.2177277

endloop
endfacet
facet normal 0.4705175459 -0.184169203 0.8629570007
outer loop
vertex -81.43643188 67.27614594 233.2177277
vertex -81.61437225 67.10338593 233.2778778
vertex -81.43814087 67.12184906 233.18573

endloop
endfacet
facet normal 0.6431608796 -0.1623105556 0.7483310699
outer loop
vertex -81.43643188 67.27614594 233.2177277
vertex -81.43814087 67.12184906 233.18573
vertex -81.31286621 67.2856369 233.1135864

endloop
endfacet
facet normal 0.6471207738 -0.1673366427 0.7437964678
outer loop
vertex -81.31286621 67.2856369 233.1135864
vertex -81.43814087 67.12184906 233.18573
vertex -81.317276 67.147789 233.0864105

endloop
endfacet
facet normal 0.7874270678 -0.1434830576 0.5994758606
outer loop
vertex -81.31286621 67.2856369 233.1135864
vertex -81.31728363 67.147789 233.0863953
vertex -81.24505615 67.26155853 233.0187531

endloop
endfacet
facet normal 0.8119028807 -0.1865433902 0.553186357
outer loop
vertex -81.24505615 67.26155853 233.0187531
vertex -81.31728363 67.147789 233.0863953
vertex -81.25441742 67.14592743 232.9934998

endloop
endfacet
facet normal 0.9882487059 -0.04833703116 -0.1450106055
outer loop
vertex -81.24505615 67.26155853 233.0187531
vertex -81.25441742 67.14592743 232.9934998
vertex -81.28870392 67.24034882 232.728363

endloop
endfacet
facet normal 0 -0.9420456886 -0.3354845047
outer loop
vertex -81.28870392 67.24034882 232.728363
vertex -81.25441742 67.14592743 232.9934998
vertex -81.28871155 67.24034882 232.728363

endloop
endfacet
facet normal 0.9570580125 0.1296456307 -0.2592912614
outer loop
vertex -84.67740631 67.42144012 233.5983582
vertex -84.67740631 67.42147064 233.5983734
vertex -84.59690094 67.30776215 233.8386688

endloop
endfacet
facet normal -0.9569467902 -0.1090535522 0.2689982653
outer loop
vertex -84.59690094 67.30776215 233.8386688
vertex -84.67740631 67.42147064 233.5983734
vertex -84.61149597 67.19683075 233.7417755

endloop
endfacet
facet normal -0.4602567255 -0.5489042997 0.6977590322
outer loop
vertex -84.59690094 67.30776215 233.8386688
vertex -84.61149597 67.19683075 233.7417755
vertex -84.49297333 67.29000092 233.8932495

endloop
endfacet
facet normal -0.4741280079 -0.5344266295 0.6997076869
outer loop
vertex -84.49297333 67.29000092 233.8932495
vertex -84.61149597 67.19683075 233.7417755
vertex -84.50518036 67.15007782 233.7781067

endloop
endfacet
facet normal -0.3349961936 -0.5811059475 0.7416827679
outer loop
vertex -84.49297333 67.29000092 233.8932495
vertex -84.50518036 67.15007782 233.7781067
vertex -84.29494476 67.24523163 233.9476166

endloop
endfacet
facet normal -0.3317267001 -0.5852039456 0.7399281263
outer loop
vertex -84.29494476 67.24523163 233.9476166
vertex -84.50518036 67.15007782 233.7781067
vertex -84.3084259 67.08892059 233.8179474

endloop
endfacet
facet normal -0.135866046 -0.6255805492 0.7682378292
outer loop
vertex -84.29494476 67.24523163 233.9476166
vertex -84.3084259 67.08892059 233.8179474
vertex -84.02706146 67.20635223 233.9633331

endloop
endfacet
facet normal -0.1459779441 -0.6122698784 0.7770559788
outer loop
vertex -84.02706146 67.20635223 233.9633331
vertex -84.3084259 67.08892059 233.8179474
vertex -84.05236053 67.04766083 233.8335419

endloop
endfacet
facet normal -0.03251642361 -0.6296539903 0.7761949897
outer loop
vertex -84.02706146 67.20635223 233.9633331
vertex -84.05236053 67.04766083 233.8335419
vertex -83.7795105 67.17552948 233.9487

endloop
endfacet
facet normal -0.04353635386 -0.6156821251 0.786790967
outer loop
vertex -83.7795105 67.17552948 233.9487
vertex -84.05236053 67.04766083 233.8335419
vertex -83.8186264 67.01641083 233.8220215

endloop
endfacet
facet normal 0.05290837213 -0.6299012303 0.7748711109
outer loop
vertex -83.7795105 67.17552948 233.9487
vertex -83.8186264 67.01641083 233.8220215
vertex -83.5714035 67.15193939 233.9153137

endloop
endfacet
facet normal 0.04749350995 -0.623703599 0.7802167535
outer loop
vertex -83.5714035 67.15193939 233.9153137
vertex -83.8186264 67.01641083 233.8220215
vertex -83.61424255 66.99227142 233.7902832

endloop
endfacet
facet normal 0.1113847792 -0.6310483217 0.7677053213
outer loop
vertex -83.5714035 67.15193939 233.9153137
vertex -83.61424255 66.99227142 233.7902832
vertex -83.37313843 67.13417816 233.8719482

endloop
endfacet
facet normal 0.1081628799 -0.6275060177 0.7710621953
outer loop
vertex -83.37313843 67.13417816 233.8719482
vertex -83.61424255 66.99227142 233.7902832
vertex -83.41656494 66.97405243 233.7477264

endloop
endfacet
facet normal 0.1588893682 -0.6316757202 0.7587753534
outer loop
vertex -83.37313843 67.13420868 233.8719635
vertex -83.41655731 66.97405243 233.7477264
vertex -83.17386627 67.12166595 233.8197937

endloop
endfacet
facet normal 0.1569819748 -0.629581809 0.7609096169
outer loop
vertex -83.17386627 67.12166595 233.8197937
vertex -83.41655731 66.97405243 233.7477264
vertex -83.21743011 66.96120453 233.6960144

endloop
endfacet
facet normal 0.1875288934 -0.631364882 0.7524701953
outer loop
vertex -83.17386627 67.12166595 233.8197937
vertex -83.21743011 66.96120453 233.6960144
vertex -82.97358704 67.11217499 233.7619171

endloop
endfacet
facet normal 0.1866691709 -0.6304164529 0.7534784675
outer loop
vertex -82.97358704 67.11217499 233.7619171
vertex -83.21743011 66.96120453 233.6960144
vertex -83.01726532 66.95159149 233.638382

endloop
endfacet
facet normal 0.1949020177 -0.6308307052 0.7510431409
outer loop
vertex -82.97357941 67.11217499 233.7619324
vertex -83.01725769 66.95162201 233.6384125
vertex -82.77322388 67.10326385 233.7024536

endloop
endfacet
facet normal 0.1947829127 -0.6306988597 0.7511847615
outer loop
vertex -82.77322388 67.10326385 233.7024536
vertex -83.01725769 66.95162201 233.6384125
vertex -82.81712341 66.94268036 233.57901

endloop
endfacet
facet normal 0.1938461065 -0.6306564212 0.751462698
outer loop
vertex -82.77322388 67.10326385 233.7024536
vertex -82.81712341 66.94268036 233.57901
vertex -82.57369995 67.09395599 233.6431732

endloop
endfacet
facet normal 0.193826139 -0.6306343079 0.751486361
outer loop
vertex -82.57369995 67.09395599 233.6431732
vertex -82.81712341 66.94268036 233.57901
vertex -82.61810303 66.9333725 233.5198669

endloop
endfacet
facet normal 0.2027616501 -0.6310335398 0.7487886548
outer loop
vertex -82.57369995 67.09395599 233.6431732
vertex -82.61810303 66.9333725 233.5198669
vertex -82.37637329 67.08553314 233.5826416

endloop
endfacet
facet normal 0.2022817135 -0.6305074096 0.7493614554
outer loop
vertex -82.37637329 67.08553314 233.5826416
vertex -82.61810303 66.9333725 233.5198669
vertex -82.42137909 66.92488861 233.4596252

endloop
endfacet
facet normal 0.2317778915 -0.6315264702 0.7399009466
outer loop
vertex -82.37637329 67.08553314 233.5826416
vertex -82.42137909 66.92488861 233.4596252
vertex -82.18215942 67.08083344 233.5177917

endloop
endfacet
facet normal 0.2314318568 -0.631154418 0.7403265238
outer loop
vertex -82.18215942 67.08083344 233.5177917
vertex -82.42137909 66.92488861 233.4596252
vertex -82.22741699 66.92015839 233.3949585

endloop
endfacet
facet normal 0.2760672271 -0.6316144466 0.7244653702
outer loop
vertex -82.18214417 67.08086395 233.5178223
vertex -82.22740936 66.9201889 233.394989
vertex -81.99098969 67.08196259 233.4459381

endloop
endfacet
facet normal 0.276178658 -0.6317316294 0.7243206501
outer loop
vertex -81.99098969 67.08196259 233.4459381
vertex -82.22740936 66.9201889 233.394989
vertex -82.03620911 66.92128754 233.3230438

endloop
endfacet
facet normal 0.3245696127 -0.6305752397 0.7050030828
outer loop
vertex -81.99098969 67.08196259 233.4459381
vertex -82.03620911 66.92128754 233.3230438
vertex -81.80201721 67.08968353 233.3658447

endloop
endfacet
facet normal 0.3256070912 -0.6316512823 0.7035599947
outer loop
vertex -81.80201721 67.08968353 233.3658447
vertex -82.03620911 66.92128754 233.3230438
vertex -81.84716034 66.92922211 233.2426758

endloop
endfacet
facet normal 0.3671307564 -0.6291655898 0.685102582
outer loop
vertex -81.80201721 67.08968353 233.3658447
vertex -81.84716034 66.92922211 233.2426758
vertex -81.61437988 67.10338593 233.2778778

endloop
endfacet
facet normal 0.3683379889 -0.6304153204 0.6833034754
outer loop
vertex -81.61437988 67.10338593 233.2778778
vertex -81.84716034 66.92922211 233.2426758
vertex -81.65960693 66.94326019 233.1545258

endloop
endfacet
facet normal 0.4118028581 -0.6262629032 0.6619766355
outer loop
vertex -81.61437988 67.10338593 233.2778778
vertex -81.65960693 66.94326019 233.1545258
vertex -81.4381485 67.12184906 233.1857147

endloop
endfacet
facet normal 0.412071377 -0.6265236139 0.6615628004
outer loop
vertex -81.4381485 67.12184906 233.1857147
vertex -81.65960693 66.94326019 233.1545258
vertex -81.48283386 66.9642868 233.0643311

endloop
endfacet
facet normal 0.5832587481 -0.5930398703 0.5550792813
outer loop
vertex -81.4381485 67.12184906 233.1857147
vertex -81.48283386 66.9642868 233.0643311
vertex -81.31728363 67.14775848 233.0863953

endloop
endfacet
facet normal 0.5825802684 -0.5925730467 0.556288898
outer loop
vertex -81.31728363 67.14775848 233.0863953
vertex -81.48283386 66.9642868 233.0643311
vertex -81.35703278 67.00713348 232.9782257

endloop
endfacet
facet normal 0.6826828718 -0.5568351746 0.4731582105
outer loop
vertex -81.31728363 67.14775848 233.08638
vertex -81.35702515 67.00713348 232.9782257
vertex -81.25441742 67.14589691 232.9934845

endloop
endfacet
facet normal 0.7028238177 -0.5669455528 0.429664284
outer loop
vertex -81.25441742 67.14589691 232.9934845
vertex -81.35702515 67.00713348 232.9782257
vertex -81.28781891 67.03478241 232.9015045

endloop
endfacet
facet normal 0.9732735157 -0.145475015 -0.1776951998
outer loop
vertex -81.25441742 67.14589691 232.9934845
vertex -81.28781891 67.03478241 232.9015045
vertex -81.28871155 67.2403183 232.7283478

endloop
endfacet
facet normal -0.9712750316 0.1508350372 0.1840480268
outer loop
vertex -81.28871155 67.2403183 232.7283478
vertex -81.28781891 67.03478241 232.9015045
vertex -81.28870392 67.24034882 232.728363

endloop
endfacet
facet normal -0.8941895962 0.02305019274 0.4470947981
outer loop
vertex -84.67739868 67.42147064 233.5983887
vertex -84.67740631 67.42147064 233.5983734
vertex -84.61149597 67.19683075 233.7417755

endloop
endfacet
facet normal -0.970656991 -0.1947368085 0.1410765499
outer loop
vertex -84.61149597 67.19683075 233.7417755
vertex -84.67740631 67.42147064 233.5983734
vertex -84.6366272 67.13906097 233.4891205

endloop
endfacet
facet normal -0.4584050775 -0.8553920388 0.241182968
outer loop
vertex -84.61149597 67.19683075 233.7417755
vertex -84.6366272 67.13906097 233.4891205
vertex -84.50518799 67.15010834 233.7781219

endloop
endfacet
facet normal -0.4195640683 -0.8795409203 0.2244410068
outer loop
vertex -84.50518799 67.15010834 233.7781219
vertex -84.6366272 67.13906097 233.4891205
vertex -84.50656891 67.07057953 233.4638824

endloop
endfacet
facet normal -0.3313223422 -0.9143317342 0.2328581959
outer loop
vertex -84.50518799 67.15010834 233.7781219
vertex -84.50656891 67.07057953 233.4638824
vertex -84.3084259 67.08895111 233.8179474

endloop
endfacet
facet normal -0.3126311004 -0.9233592749 0.2228665501
outer loop
vertex -84.3084259 67.08895111 233.8179474
vertex -84.50656891 67.07057953 233.4638824
vertex -84.29736328 67.00002289 233.4650269

endloop
endfacet
facet normal -0.1686713248 -0.9570358992 0.2358648777
outer loop
vertex -84.3084259 67.08895111 233.8179474
vertex -84.29736328 67.00002289 233.4650269
vertex -84.05236053 67.04766083 233.8335266

endloop
endfacet
facet normal -0.1901524961 -0.9496042728 0.2491862625
outer loop
vertex -84.05236053 67.04766083 233.8335266
vertex -84.29736328 67.00002289 233.4650269
vertex -84.06932831 66.95735931 233.4764557

endloop
endfacet
facet normal -0.1163028851 -0.961571753 0.2487034947
outer loop
vertex -84.05236053 67.04766083 233.8335266
vertex -84.06932831 66.95735931 233.4764557
vertex -83.8186264 67.01641083 233.8220062

endloop
endfacet
facet normal -0.144406721 -0.9526559114 0.2675695717
outer loop
vertex -83.8186264 67.01641083 233.8220062
vertex -84.06932831 66.95735931 233.4764557
vertex -83.87722015 66.92583466 233.4678955

endloop
endfacet
facet normal -0.07362699509 -0.9631874561 0.2585516572
outer loop
vertex -83.8186264 67.01641083 233.8220062
vertex -83.87722015 66.92583466 233.4678955
vertex -83.61423492 66.99227142 233.7902832

endloop
endfacet
facet normal -0.08568959683 -0.9596922994 0.2676713765
outer loop
vertex -83.61423492 66.99227142 233.7902832
vertex -83.87722015 66.92583466 233.4678955
vertex -83.69274139 66.90145111 233.4395294

endloop
endfacet
facet normal -0.03353628516 -0.9656829834 0.2575494349
outer loop
vertex -83.61423492 66.99227142 233.7902832
vertex -83.69274139 66.90145111 233.4395294
vertex -83.41655731 66.97405243 233.7477112

endloop
endfacet
facet normal -0.04013386369 -0.9639463425 0.2630528808
outer loop
vertex -83.41655731 66.97405243 233.7477112
vertex -83.69274139 66.90145111 233.4395294
vertex -83.50745392 66.88292694 233.3999176

endloop
endfacet
facet normal 0.003190460382 -0.9675463438 0.2526732683
outer loop
vertex -83.41655731 66.97405243 233.7477264
vertex -83.50745392 66.88292694 233.3999329
vertex -83.21743011 66.96120453 233.6960144

endloop
endfacet
facet normal -0.0002498477988 -0.9667229056 0.25582546
outer loop
vertex -83.21743011 66.96120453 233.6960144
vertex -83.50745392 66.88292694 233.3999329
vertex -83.31797791 66.86989594 233.3508759

endloop
endfacet
facet normal 0.02514419891 -0.9682222605 0.2488241941
outer loop
vertex -83.21743011 66.96120453 233.6960144
vertex -83.31797791 66.86989594 233.3508759
vertex -83.01727295 66.95159149 233.638382

endloop
endfacet
facet normal 0.02389171533 -0.9679372311 0.2500531673
outer loop
vertex -83.01727295 66.95159149 233.638382
vertex -83.31797791 66.86989594 233.3508759
vertex -83.12265015 66.86019135 233.2946472

endloop
endfacet
facet normal 0.03039217927 -0.968246758 0.2481419891
outer loop
vertex -83.01725769 66.95162201 233.6384125
vertex -83.12264252 66.86022186 233.2946777
vertex -82.81712341 66.94268036 233.57901

endloop
endfacet
facet normal 0.03024278395 -0.9682128429 0.2482926995
outer loop
vertex -82.81712341 66.94268036 233.57901
vertex -83.12264252 66.86022186 233.2946777
vertex -82.92321777 66.85128021 233.2355194

endloop
endfacet
facet normal 0.02863018773 -0.968139112 0.248771131
outer loop
vertex -82.81712341 66.94268036 233.57901
vertex -82.92321777 66.85128021 233.2355194
vertex -82.61810303 66.9333725 233.5198822

endloop
endfacet
facet normal 0.02873718739 -0.9681636095 0.2486633956
outer loop
vertex -82.61810303 66.9333725 233.5198822
vertex -82.92321777 66.85128021 233.2355194
vertex -82.72496033 66.84203339 233.1766052

endloop
endfacet
facet normal 0.03392722458 -0.9683935046 0.2471090257
outer loop
vertex -82.61810303 66.9333725 233.5198822
vertex -82.72496033 66.84203339 233.1766052
vertex -82.42137909 66.92488861 233.4596252

endloop
endfacet
facet normal 0.03325352445 -0.9682434797 0.2477876991
outer loop
vertex -82.42137909 66.92488861 233.4596252
vertex -82.72496033 66.84203339 233.1766052
vertex -82.53255463 66.83358002 233.1177521

endloop
endfacet
facet normal 0.05652420968 -0.9690198898 0.2404275537
outer loop
vertex -82.42137909 66.92488861 233.4596252
vertex -82.53255463 66.83358002 233.1177521
vertex -82.22740936 66.92015839 233.3949585

endloop
endfacet
facet normal 0.05543008074 -0.9688006043 0.2415634543
outer loop
vertex -82.22740936 66.92015839 233.3949585
vertex -82.53255463 66.83358002 233.1177521
vertex -82.34684753 66.82878876 233.0559235

endloop
endfacet
facet normal 0.09167484194 -0.9691275954 0.2288829982
outer loop
vertex -82.22740173 66.9201889 233.394989
vertex -82.3468399 66.82881927 233.055954
vertex -82.03620148 66.92128754 233.3230591

endloop
endfacet
facet normal 0.09192834795 -0.9691697359 0.228602767
outer loop
vertex -82.03620148 66.92128754 233.3230591
vertex -82.3468399 66.82881927 233.055954
vertex -82.16609955 66.82991791 232.9879303

endloop
endfacet
facet normal 0.1310945302 -0.9681838751 0.2131529152
outer loop
vertex -82.03620148 66.92128754 233.3230591
vertex -82.16609955 66.82991791 232.9879303
vertex -81.84715271 66.92919159 233.242691

endloop
endfacet
facet normal 0.132971257 -0.9684221148 0.2108962089
outer loop
vertex -81.84715271 66.92919159 233.242691
vertex -82.16609955 66.82991791 232.9879303
vertex -81.98752594 66.83785248 232.9117737

endloop
endfacet
facet normal 0.1650001854 -0.96646595 0.1967697889
outer loop
vertex -81.84715271 66.92919159 233.242691
vertex -81.98752594 66.83785248 232.9117737
vertex -81.65960693 66.94326019 233.1545258

endloop
endfacet
facet normal 0.1677342653 -0.9667183757 0.1931860894
outer loop
vertex -81.65960693 66.94326019 233.1545258
vertex -81.98752594 66.83785248 232.9117737
vertex -81.80804443 66.8521347 232.8274078

endloop
endfacet
facet normal 0.2041652501 -0.9630522132 0.1756333411
outer loop
vertex -81.65960693 66.94326019 233.1545258
vertex -81.80804443 66.8521347 232.8274078
vertex -81.48283386 66.9642868 233.0643311

endloop
endfacet
facet normal 0.2046959996 -0.9630704522 0.1749134958
outer loop
vertex -81.48283386 66.9642868 233.0643311
vertex -81.80804443 66.8521347 232.8274078
vertex -81.63035583 66.87456512 232.7429657

endloop
endfacet
facet normal 0.3736236989 -0.9235537648 0.08633502573
outer loop
vertex -81.48283386 66.9642868 233.0643311
vertex -81.63035583 66.87456512 232.7429657
vertex -81.35702515 67.00713348 232.9782257

endloop
endfacet
facet normal 0.3611570597 -0.926835835 0.1026685685
outer loop
vertex -81.35702515 67.00713348 232.9782257
vertex -81.63035583 66.87456512 232.7429657
vertex -81.47981262 66.92714691 232.6880798

endloop
endfacet
facet normal 0.4317547977 -0.8996242285 0.06529843807
outer loop
vertex -81.35703278 67.00713348 232.9782257
vertex -81.47981262 66.92714691 232.6880646
vertex -81.28781891 67.03478241 232.9015045

endloop
endfacet
facet normal 0.437415868 -0.8973188996 0.05904363468
outer loop
vertex -81.28781891 67.03478241 232.9015045
vertex -81.47981262 66.92714691 232.6880646
vertex -81.37430573 66.97689056 232.6624146

endloop
endfacet
facet normal 0.9312700629 -0.2323704958 -0.2806066275
outer loop
vertex -81.28781891 67.03478241 232.9015045
vertex -81.37430573 66.97689056 232.6624146
vertex -81.28869629 67.24034882 232.728363

endloop
endfacet
facet normal 0 0.2425356209 -0.9701424837
outer loop
vertex -81.28869629 67.24034882 232.728363
vertex -81.37430573 66.97689056 232.6624146
vertex -81.28870392 67.24034882 232.728363

endloop
endfacet
endsolid
