solid 
facet normal -nan(ind) -nan(ind) -nan(ind)
outer loop
vertex -23.16620636 25.6986618 356.5401001
vertex -23.16620636 25.6986618 356.5401001
vertex -23.18268585 25.37995148 356.2979736

endloop
endfacet
facet normal 0.9801210165 -0.1496438533 0.1302672178
outer loop
vertex -23.18268585 25.37995148 356.2979736
vertex -23.16620636 25.6986618 356.5401001
vertex -23.22939301 25.35063934 356.6157227

endloop
endfacet
facet normal 0.347427249 -0.9370395541 -0.03537160158
outer loop
vertex -23.18268585 25.37995148 356.2979736
vertex -23.22939301 25.35063934 356.6157227
vertex -23.37950897 25.30924225 356.237915

endloop
endfacet
facet normal 0.3311734498 -0.9431471229 -0.02824420482
outer loop
vertex -23.37950897 25.30924225 356.237915
vertex -23.22939301 25.35063934 356.6157227
vertex -23.41477203 25.28556061 356.6152344

endloop
endfacet
facet normal 0.1960083842 -0.9796515703 -0.04316741601
outer loop
vertex -23.37950897 25.30924225 356.237915
vertex -23.41477203 25.28556061 356.6152344
vertex -23.61922455 25.26291656 356.2007751

endloop
endfacet
facet normal 0.2066402882 -0.977211833 -0.04854542762
outer loop
vertex -23.61922455 25.26291656 356.2007751
vertex -23.41477203 25.28556061 356.6152344
vertex -23.64345551 25.23758698 356.6075134

endloop
endfacet
facet normal 0.09557189792 -0.9938349724 -0.05619740114
outer loop
vertex -23.61922455 25.26291656 356.2007751
vertex -23.64345551 25.23758698 356.6075134
vertex -23.85894012 25.24080658 356.1841125

endloop
endfacet
facet normal 0.09300129861 -0.9941517711 -0.05489153787
outer loop
vertex -23.85894012 25.24080658 356.1841125
vertex -23.64345551 25.23758698 356.6075134
vertex -23.88985443 25.21547699 356.5904846

endloop
endfacet
facet normal 0.1213915795 -0.9912127256 -0.0525485836
outer loop
vertex -23.85894012 25.24080658 356.1841125
vertex -23.88985443 25.21547699 356.5904846
vertex -24.08548737 25.21431732 356.1604309

endloop
endfacet
facet normal 0.1127983183 -0.9924268723 -0.04863620549
outer loop
vertex -24.08548737 25.21431732 356.1604309
vertex -23.88985443 25.21547699 356.5904846
vertex -24.13323212 25.18904877 356.5653076

endloop
endfacet
facet normal 0.1430269629 -0.9887025356 -0.0448390767
outer loop
vertex -24.08548737 25.21431732 356.1604309
vertex -24.13323212 25.18904877 356.5653076
vertex -24.32753754 25.18090057 356.1251831

endloop
endfacet
facet normal 0.1364193708 -0.9897645712 -0.04190229997
outer loop
vertex -24.32753754 25.18090057 356.1251831
vertex -24.13323212 25.18904877 356.5653076
vertex -24.38687897 25.1556015 356.5295715

endloop
endfacet
facet normal 0.1495049894 -0.9879568815 -0.03986898065
outer loop
vertex -24.32753754 25.18090057 356.1251831
vertex -24.38687897 25.1556015 356.5295715
vertex -24.58751678 25.14328766 356.0823364

endloop
endfacet
facet normal 0.1468270421 -0.9884065986 -0.03865523264
outer loop
vertex -24.58751678 25.14328766 356.0823364
vertex -24.38687897 25.1556015 356.5295715
vertex -24.65183258 25.11789703 356.4872742

endloop
endfacet
facet normal 0.1526449621 -0.9875624776 -0.03768109158
outer loop
vertex -24.58751678 25.14328766 356.0823669
vertex -24.65183258 25.11789703 356.4872742
vertex -24.83922577 25.10604095 356.0388794

endloop
endfacet
facet normal 0.1484929174 -0.9882605672 -0.03592741862
outer loop
vertex -24.83922577 25.10604095 356.0388794
vertex -24.65183258 25.11789703 356.4872742
vertex -24.91049957 25.08065033 356.4427185

endloop
endfacet
facet normal 0.1657669693 -0.9856222272 -0.03271283209
outer loop
vertex -24.83922577 25.10604095 356.0388794
vertex -24.91049957 25.08065033 356.4427185
vertex -25.07012177 25.0687027 355.9938354

endloop
endfacet
facet normal 0.1569226831 -0.9871694446 -0.02952663414
outer loop
vertex -25.07012177 25.0687027 355.9938354
vertex -24.91049957 25.08065033 356.4427185
vertex -25.15349579 25.04347992 356.3940125

endloop
endfacet
facet normal 0.1796521395 -0.9834228158 -0.02459059097
outer loop
vertex -25.07010651 25.06871796 355.9938354
vertex -25.15348053 25.04347992 356.394043
vertex -25.30263519 25.027565 355.9408264

endloop
endfacet
facet normal 0.1723173261 -0.9847928882 -0.02212857455
outer loop
vertex -25.30263519 25.027565 355.9408264
vertex -25.15348053 25.04347992 356.394043
vertex -25.39499664 25.00247955 356.3379822

endloop
endfacet
facet normal 0.1864402592 -0.982288599 -0.01868601516
outer loop
vertex -25.30263519 25.027565 355.9408264
vertex -25.39499664 25.00247955 356.3379822
vertex -25.54557037 24.98259735 355.8807983

endloop
endfacet
facet normal 0.1835411638 -0.9828525186 -0.01770667545
outer loop
vertex -25.54557037 24.98259735 355.8807983
vertex -25.39499664 25.00247955 356.3379822
vertex -25.6414566 24.95755768 356.2767639

endloop
endfacet
facet normal 0.1930740029 -0.9810651541 -0.01528520044
outer loop
vertex -25.54557037 24.98259735 355.8807983
vertex -25.6414566 24.95755768 356.2767639
vertex -25.78726959 24.93599701 355.8187866

endloop
endfacet
facet normal 0.190225184 -0.9816355705 -0.0143513307
outer loop
vertex -25.78726959 24.93599701 355.8187866
vertex -25.6414566 24.95755768 356.2767639
vertex -25.88628387 24.91103363 356.2138672

endloop
endfacet
facet normal 0.2017527819 -0.9793710709 -0.01131922007
outer loop
vertex -25.78726959 24.93599701 355.8187866
vertex -25.88628387 24.91103363 356.2138672
vertex -26.02519989 24.8877182 355.7551575

endloop
endfacet
facet normal 0.1977322847 -0.980204463 -0.01005928777
outer loop
vertex -26.02519989 24.8877182 355.7551575
vertex -25.88628387 24.91103363 356.2138672
vertex -26.12853241 24.86283112 356.1490479

endloop
endfacet
facet normal 0.2067584842 -0.9783627391 -0.007566993125
outer loop
vertex -26.02516937 24.88774872 355.755188
vertex -26.12851715 24.86286163 356.1490784
vertex -26.26706696 24.83715057 355.6876526

endloop
endfacet
facet normal 0.2041058838 -0.9789255857 -0.006739146076
outer loop
vertex -26.26706696 24.83715057 355.6876526
vertex -26.12851715 24.86286163 356.1490784
vertex -26.37352753 24.81224823 356.0806274

endloop
endfacet
facet normal 0.2080529928 -0.9781014323 -0.005617604125
outer loop
vertex -26.26706696 24.83715057 355.6876526
vertex -26.37352753 24.81224823 356.0806274
vertex -26.51430511 24.78496552 355.6170959

endloop
endfacet
facet normal 0.2073595822 -0.9782498479 -0.005398275796
outer loop
vertex -26.51430511 24.78496552 355.6170959
vertex -26.37352753 24.81224823 356.0806274
vertex -26.62155914 24.76006317 356.0099182

endloop
endfacet
facet normal 0.2110931873 -0.9774563313 -0.004328572657
outer loop
vertex -26.51430511 24.78496552 355.6170959
vertex -26.62155914 24.76006317 356.0099182
vertex -26.76309967 24.73155975 355.5438538

endloop
endfacet
facet normal 0.2071098238 -0.9783129096 -0.00306646945
outer loop
vertex -26.76309967 24.73155975 355.5438538
vertex -26.62155914 24.76006317 356.0099182
vertex -26.87577057 24.7064743 355.9371948

endloop
endfacet
facet normal 0.205033958 -0.9787479043 -0.003688833676
outer loop
vertex -26.76309967 24.73155975 355.5438538
vertex -26.87577057 24.7064743 355.9371948
vertex -27.00522614 24.68112946 355.4664307

endloop
endfacet
facet normal 0.2044348866 -0.9788738489 -0.003517310368
outer loop
vertex -27.00522614 24.68112946 355.4664307
vertex -26.87577057 24.7064743 355.9371948
vertex -27.12024689 24.6556778 355.8643799

endloop
endfacet
facet normal 0.08571439981 -0.9955601096 -0.03889873624
outer loop
vertex -27.00522614 24.68112946 355.4664307
vertex -27.12024689 24.6556778 355.8643799
vertex -27.2329483 24.66345978 355.4168701

endloop
endfacet
facet normal 0.09505564719 -0.994617641 -0.04123485833
outer loop
vertex -27.2329483 24.66345978 355.4168701
vertex -27.12024689 24.6556778 355.8643799
vertex -27.31981659 24.63950348 355.7944641

endloop
endfacet
facet normal 0.007814754732 -0.9980750084 -0.06152494252
outer loop
vertex -27.2329483 24.66347504 355.4168701
vertex -27.31980133 24.63951874 355.7944641
vertex -27.43653107 24.66274261 355.4028931

endloop
endfacet
facet normal 0.07330804318 -0.9940300584 -0.0808089897
outer loop
vertex -27.43653107 24.66274261 355.4028931
vertex -27.31980133 24.63951874 355.7944641
vertex -27.47605133 24.633461 355.7272339

endloop
endfacet
facet normal -0.8231775761 -0.5476809144 -0.1497473568
outer loop
vertex -27.43653107 24.66274261 355.4028931
vertex -27.47605133 24.633461 355.7272339
vertex -27.64560699 24.92186737 355.6044922

endloop
endfacet
facet normal 0.5868528485 0 -0.8096936345
outer loop
vertex -27.64560699 24.92186737 355.6044922
vertex -27.47605133 24.633461 355.7272339
vertex -27.64560699 24.92185211 355.6044922

endloop
endfacet
facet normal -0.9836478233 0.161088571 -0.08054428548
outer loop
vertex -23.16620636 25.6986618 356.5401001
vertex -23.16620636 25.69864655 356.5400696
vertex -23.22939301 25.35063934 356.6157227

endloop
endfacet
facet normal 0.9469094872 -0.1059402972 0.3035441935
outer loop
vertex -23.22939301 25.35063934 356.6157227
vertex -23.16620636 25.69864655 356.5400696
vertex -23.26854706 25.44731903 356.7716064

endloop
endfacet
facet normal 0.274091959 -0.7849295139 0.5556610823
outer loop
vertex -23.22939301 25.35063934 356.6157227
vertex -23.26854706 25.44731903 356.7716064
vertex -23.41477203 25.28556061 356.6152344

endloop
endfacet
facet normal 0.2487871498 -0.7799895406 0.5742136836
outer loop
vertex -23.41477203 25.28556061 356.6152344
vertex -23.26854706 25.44731903 356.7716064
vertex -23.44564056 25.4063797 356.7927246

endloop
endfacet
facet normal 0.149509415 -0.8050742149 0.5740230083
outer loop
vertex -23.41477203 25.28556061 356.6152344
vertex -23.44564056 25.4063797 356.7927246
vertex -23.64345551 25.23758698 356.6075134

endloop
endfacet
facet normal 0.1582310647 -0.808070004 0.5674380064
outer loop
vertex -23.64345551 25.23758698 356.6075134
vertex -23.44564056 25.4063797 356.7927246
vertex -23.66725922 25.36780548 356.7995911

endloop
endfacet
facet normal 0.03508250788 -0.8251814842 0.5637772083
outer loop
vertex -23.64345551 25.23758698 356.6075134
vertex -23.66725922 25.36780548 356.7995911
vertex -23.88985443 25.21547699 356.5904846

endloop
endfacet
facet normal 0.03323696926 -0.8243352771 0.5651254058
outer loop
vertex -23.88985443 25.21547699 356.5904846
vertex -23.66725922 25.36780548 356.7995911
vertex -23.91802216 25.34566498 356.7820435

endloop
endfacet
facet normal 0.03109321371 -0.824539721 0.5649490952
outer loop
vertex -23.88985443 25.21547699 356.5904846
vertex -23.91802216 25.34566498 356.7820435
vertex -24.13323212 25.18904877 356.5653076

endloop
endfacet
facet normal 0.02637758292 -0.8224979043 0.5681561232
outer loop
vertex -24.13323212 25.18904877 356.5653076
vertex -23.91802216 25.34566498 356.7820435
vertex -24.17250824 25.31893158 356.7551575

endloop
endfacet
facet normal 0.02834632993 -0.8222623467 0.5684022307
outer loop
vertex -24.13323212 25.18904877 356.5653076
vertex -24.17250824 25.31893158 356.7551575
vertex -24.38687897 25.1556015 356.5295715

endloop
endfacet
facet normal 0.02455251105 -0.820679307 0.5708612204
outer loop
vertex -24.38687897 25.1556015 356.5295715
vertex -24.17250824 25.31893158 356.7551575
vertex -24.43364716 25.28556061 356.7184143

endloop
endfacet
facet normal 0.02560840733 -0.8205344677 0.5710231066
outer loop
vertex -24.38687897 25.1556015 356.5295715
vertex -24.43364716 25.28556061 356.7184143
vertex -24.65183258 25.11789703 356.4872742

endloop
endfacet
facet normal 0.02377794124 -0.8197712302 0.5721973777
outer loop
vertex -24.65183258 25.11789703 356.4872742
vertex -24.43364716 25.28556061 356.7184143
vertex -24.70171356 25.24817657 356.6759949

endloop
endfacet
facet normal 0.01969364472 -0.8203828931 0.571475327
outer loop
vertex -24.65183258 25.11789703 356.4872742
vertex -24.70172882 25.24816132 356.6759949
vertex -24.91049957 25.08065033 356.4427185

endloop
endfacet
facet normal 0.01686749049 -0.8192487359 0.5731902122
outer loop
vertex -24.91049957 25.08065033 356.4427185
vertex -24.70172882 25.24816132 356.6759949
vertex -24.96485138 25.21082306 356.6303711

endloop
endfacet
facet normal 0.01079316158 -0.820145607 0.5720530152
outer loop
vertex -24.91049957 25.08065033 356.4427185
vertex -24.96485138 25.21082306 356.6303711
vertex -25.15349579 25.04347992 356.3940125

endloop
endfacet
facet normal 0.005322737619 -0.8181377649 0.5749975443
outer loop
vertex -25.15349579 25.04347992 356.3940125
vertex -24.96485138 25.21082306 356.6303711
vertex -25.21556854 25.172966 356.5788269

endloop
endfacet
facet normal 0.005392467137 -0.8180815578 0.5750769377
outer loop
vertex -25.15348053 25.04347992 356.394043
vertex -25.21556854 25.172966 356.5788269
vertex -25.39499664 25.00247955 356.3379822

endloop
endfacet
facet normal 0.001377732027 -0.8166863322 0.5770802498
outer loop
vertex -25.39499664 25.00247955 356.3379822
vertex -25.21556854 25.172966 356.5788269
vertex -25.46276093 25.13134003 356.5205078

endloop
endfacet
facet normal 0.005161419977 -0.8160133958 0.5780099034
outer loop
vertex -25.39499664 25.00247955 356.3379822
vertex -25.46276093 25.13134003 356.5205078
vertex -25.6414566 24.95755768 356.2767639

endloop
endfacet
facet normal 0.003397948807 -0.815410614 0.5788730383
outer loop
vertex -25.6414566 24.95755768 356.2767639
vertex -25.46276093 25.13134003 356.5205078
vertex -25.71161652 25.08612823 356.4582825

endloop
endfacet
facet normal 0.005976992194 -0.8149296045 0.5795291662
outer loop
vertex -25.6414566 24.95755768 356.2767639
vertex -25.71161652 25.08612823 356.4582825
vertex -25.88628387 24.91103363 356.2138672

endloop
endfacet
facet normal 0.004249329679 -0.8143545985 0.5803520083
outer loop
vertex -25.88628387 24.91103363 356.2138672
vertex -25.71161652 25.08612823 356.4582825
vertex -25.95882416 25.03940582 356.3945312

endloop
endfacet
facet normal 0.006506608333 -0.8139157891 0.5809464455
outer loop
vertex -25.88628387 24.91103363 356.2138672
vertex -25.95882416 25.03940582 356.3945312
vertex -26.12853241 24.86283112 356.1490479

endloop
endfacet
facet normal 0.003783799242 -0.8130384684 0.5821977258
outer loop
vertex -26.12853241 24.86283112 356.1490479
vertex -25.95882416 25.03940582 356.3945312
vertex -26.20413971 24.99097443 356.3284912

endloop
endfacet
facet normal 0.005163986236 -0.8128047585 0.5825133324
outer loop
vertex -26.12851715 24.86286163 356.1490784
vertex -26.20412445 24.99100494 356.3285522
vertex -26.37352753 24.81224823 356.0806274

endloop
endfacet
facet normal 0.003202220891 -0.8121774793 0.5834015608
outer loop
vertex -26.37352753 24.81224823 356.0806274
vertex -26.20412445 24.99100494 356.3285522
vertex -26.4511795 24.94026947 356.2592773

endloop
endfacet
facet normal 0.004411243834 -0.8119245172 0.583745718
outer loop
vertex -26.37352753 24.81224823 356.0806274
vertex -26.4511795 24.94026947 356.2592773
vertex -26.62155914 24.76006317 356.0099182

endloop
endfacet
facet normal 0.004010199569 -0.811796248 0.5839270353
outer loop
vertex -26.62155914 24.76006317 356.0099182
vertex -26.4511795 24.94026947 356.2592773
vertex -26.69963837 24.88811493 356.1884766

endloop
endfacet
facet normal 0.004075334873 -0.8117825389 0.5839457512
outer loop
vertex -26.62155914 24.76006317 356.0099182
vertex -26.69963837 24.88811493 356.1884766
vertex -26.87577057 24.7064743 355.9371948

endloop
endfacet
facet normal 0.001667808276 -0.8109886646 0.5850594044
outer loop
vertex -26.87577057 24.7064743 355.9371948
vertex -26.69963837 24.88811493 356.1884766
vertex -26.95471954 24.83545685 356.1162109

endloop
endfacet
facet normal -0.004896747414 -0.8123521209 0.5831466317
outer loop
vertex -26.87577057 24.7064743 355.9371948
vertex -26.95471954 24.83545685 356.1162109
vertex -27.12024689 24.6556778 355.8643799

endloop
endfacet
facet normal -0.005392893218 -0.8121952415 0.5833607912
outer loop
vertex -27.12024689 24.6556778 355.8643799
vertex -26.95471954 24.83545685 356.1162109
vertex -27.19934845 24.78649139 356.0457764

endloop
endfacet
facet normal -0.1234980002 -0.8296530843 0.5444483757
outer loop
vertex -27.12024689 24.6556778 355.8643799
vertex -27.19934845 24.78649139 356.0457764
vertex -27.31981659 24.63950348 355.7944641

endloop
endfacet
facet normal -0.1149754226 -0.8324694633 0.5420102477
outer loop
vertex -27.31981659 24.63950348 355.7944641
vertex -27.19934845 24.78649139 356.0457764
vertex -27.3870163 24.76160431 355.9677429

endloop
endfacet
facet normal -0.1893594563 -0.8357682228 0.5153974295
outer loop
vertex -27.31980133 24.63951874 355.7944641
vertex -27.3870163 24.76160431 355.9677429
vertex -27.47605133 24.633461 355.7272339

endloop
endfacet
facet normal -0.1021276265 -0.8617498875 0.4969477952
outer loop
vertex -27.47605133 24.633461 355.7272339
vertex -27.3870163 24.76160431 355.9677429
vertex -27.52230072 24.73015594 355.8854065

endloop
endfacet
facet normal -0.8696002364 -0.4915856421 0.04624927044
outer loop
vertex -27.47605133 24.633461 355.7272339
vertex -27.52230072 24.73015594 355.8854065
vertex -27.64560699 24.92185211 355.6044922

endloop
endfacet
facet normal 0.8914829493 -0.07949529588 -0.4460254014
outer loop
vertex -27.64560699 24.92185211 355.6044922
vertex -27.52230072 24.73015594 355.8854065
vertex -27.64562225 24.92185211 355.6044617

endloop
endfacet
facet normal 0.9464378953 -0.3132452965 0.07831132412
outer loop
vertex -23.16620636 25.69864655 356.5400696
vertex -23.16620636 25.6986618 356.5401306
vertex -23.26854706 25.44731903 356.7716064

endloop
endfacet
facet normal 0.9174289107 -0.007166007999 0.3978350759
outer loop
vertex -23.26854706 25.44731903 356.7716064
vertex -23.16620636 25.6986618 356.5401306
vertex -23.29946136 25.57772064 356.8452454

endloop
endfacet
facet normal 0.2065350413 -0.4435381591 0.8721336722
outer loop
vertex -23.26854706 25.44731903 356.7716064
vertex -23.29946136 25.57772064 356.8452454
vertex -23.44564056 25.4063797 356.7927246

endloop
endfacet
facet normal 0.1866651028 -0.4300133884 0.8833145499
outer loop
vertex -23.44564056 25.4063797 356.7927246
vertex -23.29946136 25.57772064 356.8452454
vertex -23.46985626 25.55728912 356.8713074

endloop
endfacet
facet normal 0.1051638424 -0.4459724724 0.8888471127
outer loop
vertex -23.44564056 25.4063797 356.7927246
vertex -23.46985626 25.55728912 356.8713074
vertex -23.66725922 25.36780548 356.7995911

endloop
endfacet
facet normal 0.11299669 -0.452513665 0.8845694661
outer loop
vertex -23.66725922 25.36780548 356.7995911
vertex -23.46985626 25.55728912 356.8713074
vertex -23.68689728 25.53023529 356.8851929

endloop
endfacet
facet normal -0.02049472183 -0.4680661261 0.8834557533
outer loop
vertex -23.66725922 25.36780548 356.7995911
vertex -23.68689728 25.53023529 356.8851929
vertex -23.91802216 25.34566498 356.7820435

endloop
endfacet
facet normal -0.02195244469 -0.4666419625 0.8841737509
outer loop
vertex -23.91802216 25.34566498 356.7820435
vertex -23.68689728 25.53023529 356.8851929
vertex -23.94048309 25.50804901 356.8671875

endloop
endfacet
facet normal -0.04397492483 -0.4686888754 0.8822681308
outer loop
vertex -23.91802216 25.34566498 356.7820435
vertex -23.94048309 25.50804901 356.8671875
vertex -24.17250824 25.31893158 356.7551575

endloop
endfacet
facet normal -0.04754123092 -0.4652737379 0.8838892579
outer loop
vertex -24.17250824 25.31893158 356.7551575
vertex -23.94048309 25.50804901 356.8671875
vertex -24.2022171 25.48093414 356.8388367

endloop
endfacet
facet normal -0.06435672939 -0.4672640264 0.8817723393
outer loop
vertex -24.17250824 25.31893158 356.7551575
vertex -24.2022171 25.48093414 356.8388367
vertex -24.43364716 25.28556061 356.7184143

endloop
endfacet
facet normal -0.06714351475 -0.4646770656 0.8829309344
outer loop
vertex -24.43364716 25.28556061 356.7184143
vertex -24.2022171 25.48093414 356.8388367
vertex -24.46820831 25.44763947 356.8010864

endloop
endfacet
facet normal -0.07459384948 -0.4656885564 0.8817992806
outer loop
vertex -24.43364716 25.28556061 356.7184143
vertex -24.46820831 25.44763947 356.8010864
vertex -24.70171356 25.24817657 356.6759949

endloop
endfacet
facet normal -0.07601803541 -0.4643782973 0.882368505
outer loop
vertex -24.70171356 25.24817657 356.6759949
vertex -24.46820831 25.44763947 356.8010864
vertex -24.73827362 25.41066742 356.7583618

endloop
endfacet
facet normal -0.08659306169 -0.4658244848 0.8806299567
outer loop
vertex -24.70172882 25.24816132 356.6759949
vertex -24.73827362 25.41066742 356.7583618
vertex -24.96485138 25.21082306 356.6303711

endloop
endfacet
facet normal -0.08890161663 -0.4637581408 0.881490171
outer loop
vertex -24.96485138 25.21082306 356.6303711
vertex -24.73827362 25.41066742 356.7583618
vertex -25.00423431 25.37319183 356.7118225

endloop
endfacet
facet normal -0.1099082083 -0.4668433666 0.8774835467
outer loop
vertex -24.96485138 25.21082306 356.6303711
vertex -25.00423431 25.37319183 356.7118225
vertex -25.21556854 25.172966 356.5788269

endloop
endfacet
facet normal -0.114038378 -0.4633597434 0.8788019419
outer loop
vertex -25.21556854 25.172966 356.5788269
vertex -25.00423431 25.37319183 356.7118225
vertex -25.25989532 25.33441925 356.6582031

endloop
endfacet
facet normal -0.1281509697 -0.4657258391 0.8756007552
outer loop
vertex -25.21556854 25.172966 356.5788269
vertex -25.25988007 25.33444977 356.6582336
vertex -25.46276093 25.13134003 356.5205078

endloop
endfacet
facet normal -0.1315089464 -0.4630103111 0.8765425682
outer loop
vertex -25.46276093 25.13134003 356.5205078
vertex -25.25988007 25.33444977 356.6582336
vertex -25.51068878 25.29204559 356.5982056

endloop
endfacet
facet normal -0.1347513795 -0.4635907114 0.8757429719
outer loop
vertex -25.46276093 25.13134003 356.5205078
vertex -25.51068878 25.29204559 356.5982056
vertex -25.71161652 25.08612823 356.4582825

endloop
endfacet
facet normal -0.1362460852 -0.4624021053 0.876140058
outer loop
vertex -25.71161652 25.08612823 356.4582825
vertex -25.51068878 25.29204559 356.5982056
vertex -25.76111603 25.24654388 356.5352478

endloop
endfacet
facet normal -0.1383381039 -0.4627915621 0.8756064177
outer loop
vertex -25.71161652 25.08612823 356.4582825
vertex -25.76111603 25.24654388 356.5352478
vertex -25.95882416 25.03940582 356.3945312

endloop
endfacet
facet normal -0.139929384 -0.4615471065 0.8760102987
outer loop
vertex -25.95882416 25.03940582 356.3945312
vertex -25.76111603 25.24654388 356.5352478
vertex -26.01003265 25.19956207 356.4707336

endloop
endfacet
facet normal -0.1442336589 -0.4623815119 0.8748714328
outer loop
vertex -25.95882416 25.03940582 356.3945312
vertex -26.01003265 25.19956207 356.4707336
vertex -26.20413971 24.99097443 356.3284912

endloop
endfacet
facet normal -0.1462740004 -0.4608152211 0.8753589392
outer loop
vertex -26.20413971 24.99097443 356.3284912
vertex -26.01003265 25.19956207 356.4707336
vertex -26.25749969 25.15081024 356.403717

endloop
endfacet
facet normal -0.1503767371 -0.4615165889 0.8742935658
outer loop
vertex -26.20412445 24.99100494 356.3285522
vertex -26.25748444 25.15084076 356.4037476
vertex -26.4511795 24.94026947 356.2592773

endloop
endfacet
facet normal -0.1519656777 -0.4603047669 0.8746576309
outer loop
vertex -26.4511795 24.94026947 356.2592773
vertex -26.25748444 25.15084076 356.4037476
vertex -26.50583649 25.09992218 356.3338013

endloop
endfacet
facet normal -0.1525461227 -0.4604264498 0.8744925261
outer loop
vertex -26.4511795 24.94026947 356.2592773
vertex -26.50583649 25.09992218 356.3338013
vertex -26.69963837 24.88811493 356.1884766

endloop
endfacet
facet normal -0.1526175737 -0.4603720605 0.8745086789
outer loop
vertex -26.69963837 24.88811493 356.1884766
vertex -26.50583649 25.09992218 356.3338013
vertex -26.75455475 25.04776764 356.2629395

endloop
endfacet
facet normal -0.1527038217 -0.4603902698 0.8744840622
outer loop
vertex -26.69963837 24.88811493 356.1884766
vertex -26.75455475 25.04776764 356.2629395
vertex -26.95471954 24.83545685 356.1162109

endloop
endfacet
facet normal -0.1546792984 -0.4588479698 0.8749474287
outer loop
vertex -26.95471954 24.83545685 356.1162109
vertex -26.75455475 25.04776764 356.2629395
vertex -27.00879669 24.996315 356.1910095

endloop
endfacet
facet normal -0.1594831645 -0.4598232806 0.8735717535
outer loop
vertex -26.95471954 24.83545685 356.1162109
vertex -27.00879669 24.996315 356.1910095
vertex -27.19934845 24.78649139 356.0457764

endloop
endfacet
facet normal -0.1596386284 -0.4597054422 0.8736053705
outer loop
vertex -27.19934845 24.78649139 356.0457764
vertex -27.00879669 24.996315 356.1910095
vertex -27.25281525 24.94963837 356.1218567

endloop
endfacet
facet normal -0.2818470597 -0.4798232913 0.8308621049
outer loop
vertex -27.19934845 24.78649139 356.0457764
vertex -27.25281525 24.94963837 356.1218567
vertex -27.3870163 24.76160431 355.9677429

endloop
endfacet
facet normal -0.2701102793 -0.4876568615 0.8301995993
outer loop
vertex -27.3870163 24.76160431 355.9677429
vertex -27.25281525 24.94963837 356.1218567
vertex -27.43622589 24.91407013 356.0412903

endloop
endfacet
facet normal -0.3637641668 -0.4973014891 0.7876337171
outer loop
vertex -27.3870163 24.76160431 355.9677429
vertex -27.43622589 24.91408539 356.0412903
vertex -27.52230072 24.73015594 355.8854065

endloop
endfacet
facet normal -0.2800312042 -0.5410397053 0.7930060625
outer loop
vertex -27.52230072 24.73015594 355.8854065
vertex -27.43622589 24.91408539 356.0412903
vertex -27.56467438 24.86055756 355.9594116

endloop
endfacet
facet normal -0.9144854546 -0.3784298599 0.143203184
outer loop
vertex -27.52230072 24.73015594 355.8854065
vertex -27.56467438 24.86055756 355.9594116
vertex -27.64562225 24.92185211 355.6044617

endloop
endfacet
facet normal -0.9718127251 0.05039907619 0.2303040028
outer loop
vertex -27.64562225 24.92185211 355.6044617
vertex -27.56467438 24.86055756 355.9594116
vertex -27.64560699 24.92186737 355.6045227

endloop
endfacet
facet normal -0 -0.9296328425 -0.3684872091
outer loop
vertex -23.16620636 25.6986618 356.5401306
vertex -23.1661911 25.6986618 356.5401306
vertex -23.29946136 25.57772064 356.8452454

endloop
endfacet
facet normal 0.8916516304 0.1192557439 0.4367326796
outer loop
vertex -23.29946136 25.57772064 356.8452454
vertex -23.1661911 25.6986618 356.5401306
vertex -23.32161713 25.72258759 356.8509216

endloop
endfacet
facet normal 0.1529695839 -0.01532187127 0.988112092
outer loop
vertex -23.29946136 25.57772064 356.8452454
vertex -23.32161713 25.72258759 356.8509216
vertex -23.46985626 25.55728912 356.8713074

endloop
endfacet
facet normal 0.134699434 0.001404780429 0.9908854961
outer loop
vertex -23.46985626 25.55728912 356.8713074
vertex -23.32161713 25.72258759 356.8509216
vertex -23.48697662 25.71360016 356.8734131

endloop
endfacet
facet normal 0.06463451684 -0.006363599095 0.9978887439
outer loop
vertex -23.46985626 25.55728912 356.8713074
vertex -23.48697662 25.71360016 356.8734131
vertex -23.68689728 25.53023529 356.8851929

endloop
endfacet
facet normal 0.07097467035 -0.01330827735 0.9973893762
outer loop
vertex -23.68689728 25.53023529 356.8851929
vertex -23.48697662 25.71360016 356.8734131
vertex -23.7016983 25.69831085 356.8884888

endloop
endfacet
facet normal -0.06857325137 -0.02559570409 0.9973177314
outer loop
vertex -23.68689728 25.53023529 356.8851929
vertex -23.7016983 25.69831085 356.8884888
vertex -23.94048309 25.50804901 356.8671875

endloop
endfacet
facet normal -0.06999161839 -0.02380951494 0.9972634315
outer loop
vertex -23.94048309 25.50804901 356.8671875
vertex -23.7016983 25.69831085 356.8884888
vertex -23.95676422 25.67606354 356.8700562

endloop
endfacet
facet normal -0.104870677 -0.02713565901 0.994115591
outer loop
vertex -23.94048309 25.50804901 356.8671875
vertex -23.95676422 25.67606354 356.8700562
vertex -24.2022171 25.48093414 356.8388367

endloop
endfacet
facet normal -0.1080481261 -0.02310064062 0.9938772917
outer loop
vertex -24.2022171 25.48093414 356.8388367
vertex -23.95676422 25.67606354 356.8700562
vertex -24.22234344 25.64859772 356.8405457

endloop
endfacet
facet normal -0.1372051686 -0.02656302229 0.9901863933
outer loop
vertex -24.2022171 25.48093414 356.8388367
vertex -24.22234344 25.64859772 356.8405457
vertex -24.46820831 25.44763947 356.8010864

endloop
endfacet
facet normal -0.1395071894 -0.02369770594 0.9899374843
outer loop
vertex -24.46820831 25.44763947 356.8010864
vertex -24.22234344 25.64859772 356.8405457
vertex -24.49085236 25.61536407 356.8019104

endloop
endfacet
facet normal -0.1528026462 -0.0254828278 0.9879281521
outer loop
vertex -24.46820831 25.44763947 356.8010864
vertex -24.49085236 25.61536407 356.8019104
vertex -24.73827362 25.41066742 356.7583618

endloop
endfacet
facet normal -0.1538608521 -0.02417579293 0.9877967834
outer loop
vertex -24.73827362 25.41066742 356.7583618
vertex -24.49085236 25.61536407 356.8019104
vertex -24.76194 25.57874298 356.7587891

endloop
endfacet
facet normal -0.1687177122 -0.02624614537 0.9853149652
outer loop
vertex -24.73827362 25.41066742 356.7583618
vertex -24.76192474 25.57874298 356.7587891
vertex -25.00423431 25.37319183 356.7118225

endloop
endfacet
facet normal -0.1703868508 -0.02422471344 0.9850794673
outer loop
vertex -25.00423431 25.37319183 356.7118225
vertex -24.76192474 25.57874298 356.7587891
vertex -25.02935028 25.54116058 356.7116089

endloop
endfacet
facet normal -0.2009907365 -0.02880835347 0.979169488
outer loop
vertex -25.00423431 25.37319183 356.7118225
vertex -25.02935028 25.54116058 356.7116089
vertex -25.25989532 25.33441925 356.6582031

endloop
endfacet
facet normal -0.2048474997 -0.02433234826 0.9784914255
outer loop
vertex -25.25989532 25.33441925 356.6582031
vertex -25.02935028 25.54116058 356.7116089
vertex -25.28746796 25.50150299 356.6565857

endloop
endfacet
facet normal -0.2281835973 -0.02805668116 0.9732138515
outer loop
vertex -25.25988007 25.33444977 356.6582336
vertex -25.2874527 25.50153351 356.6565857
vertex -25.51068878 25.29204559 356.5982056

endloop
endfacet
facet normal -0.2310004681 -0.02489364706 0.9726350904
outer loop
vertex -25.51068878 25.29204559 356.5982056
vertex -25.2874527 25.50153351 356.6565857
vertex -25.54004669 25.45835114 356.5954895

endloop
endfacet
facet normal -0.2392193377 -0.0263776388 0.9706072211
outer loop
vertex -25.51068878 25.29204559 356.5982056
vertex -25.54004669 25.45835114 356.5954895
vertex -25.76111603 25.24654388 356.5352478

endloop
endfacet
facet normal -0.2406939268 -0.02474704199 0.9702855945
outer loop
vertex -25.76111603 25.24654388 356.5352478
vertex -25.54004669 25.45835114 356.5954895
vertex -25.79134369 25.41251373 356.5319824

endloop
endfacet
facet normal -0.246243313 -0.02578568272 0.9688649774
outer loop
vertex -25.76111603 25.24654388 356.5352478
vertex -25.79134369 25.41251373 356.5319824
vertex -26.01003265 25.19956207 356.4707336

endloop
endfacet
facet normal -0.2473328114 -0.02459588647 0.9686183929
outer loop
vertex -26.01003265 25.19956207 356.4707336
vertex -25.79134369 25.41251373 356.5319824
vertex -26.04132843 25.365242 356.4669495

endloop
endfacet
facet normal -0.2564595044 -0.02637520991 0.9661950469
outer loop
vertex -26.01003265 25.19956207 356.4707336
vertex -26.04132843 25.365242 356.4669495
vertex -26.25749969 25.15081024 356.403717

endloop
endfacet
facet normal -0.2581906021 -0.02450852469 0.9657830596
outer loop
vertex -26.25749969 25.15081024 356.403717
vertex -26.04132843 25.365242 356.4669495
vertex -26.29009247 25.316185 356.3992004

endloop
endfacet
facet normal -0.266004473 -0.02628558874 0.9636132717
outer loop
vertex -26.25748444 25.15084076 356.4037476
vertex -26.29007721 25.31621552 356.3992615
vertex -26.50583649 25.09992218 356.3338013

endloop
endfacet
facet normal -0.2672182322 -0.02498361655 0.9633120894
outer loop
vertex -26.50583649 25.09992218 356.3338013
vertex -26.29007721 25.31621552 356.3992615
vertex -26.53910065 25.26508331 356.3288574

endloop
endfacet
facet normal -0.2689945698 -0.02535646595 0.9628078341
outer loop
vertex -26.50583649 25.09992218 356.3338013
vertex -26.53910065 25.26508331 356.3288574
vertex -26.75455475 25.04776764 356.2629395

endloop
endfacet
facet normal -0.2695971429 -0.02471297421 0.9626559615
outer loop
vertex -26.75455475 25.04776764 356.2629395
vertex -26.53910065 25.26508331 356.3288574
vertex -26.7878952 25.21295929 356.257843

endloop
endfacet
facet normal -0.2675985098 -0.02429206111 0.9632242322
outer loop
vertex -26.75455475 25.04776764 356.2629395
vertex -26.7878952 25.21295929 356.257843
vertex -27.00879669 24.996315 356.1910095

endloop
endfacet
facet normal -0.2690720856 -0.02267504856 0.9628530741
outer loop
vertex -27.00879669 24.996315 356.1910095
vertex -26.7878952 25.21295929 356.257843
vertex -27.04018402 25.16272736 356.1861572

endloop
endfacet
facet normal -0.2685847878 -0.02257909626 0.9629914165
outer loop
vertex -27.00879669 24.996315 356.1910095
vertex -27.04018402 25.16272736 356.1861572
vertex -27.25281525 24.94963837 356.1218567

endloop
endfacet
facet normal -0.2687064707 -0.02244835347 0.9629604816
outer loop
vertex -27.25281525 24.94963837 356.1218567
vertex -27.04018402 25.16272736 356.1861572
vertex -27.28310394 25.11844635 356.1173401

endloop
endfacet
facet normal -0.3942278326 -0.0461771749 0.9178518653
outer loop
vertex -27.25281525 24.94963837 356.1218567
vertex -27.28310394 25.11844635 356.1173401
vertex -27.43622589 24.91407013 356.0412903

endloop
endfacet
facet normal -0.379685998 -0.0590724647 0.9232275486
outer loop
vertex -27.43622589 24.91407013 356.0412903
vertex -27.28310394 25.11844635 356.1173401
vertex -27.46799469 25.0719986 356.0383301

endloop
endfacet
facet normal -0.5096749663 -0.08636452258 0.8560214043
outer loop
vertex -27.43622589 24.91408539 356.0412903
vertex -27.46800995 25.07201385 356.0382996
vertex -27.56467438 24.86055756 355.9594116

endloop
endfacet
facet normal -0.4307979941 -0.1359030455 0.8921566606
outer loop
vertex -27.56467438 24.86055756 355.9594116
vertex -27.46800995 25.07201385 356.0382996
vertex -27.60082245 25.00539398 355.9640198

endloop
endfacet
facet normal -0.9538648725 -0.2436460257 0.1754376888
outer loop
vertex -27.56467438 24.86055756 355.9594116
vertex -27.60082245 25.00539398 355.9640198
vertex -27.64560699 24.92186737 355.6045227

endloop
endfacet
facet normal -0.7050626874 0.7050626874 -0.07598277181
outer loop
vertex -27.64560699 24.92186737 355.6045227
vertex -27.60082245 25.00539398 355.9640198
vertex -27.64559174 24.92188263 355.6045227

endloop
endfacet
facet normal 0.07669245452 0.9963171482 -0.03834622726
outer loop
vertex -23.1661911 25.6986618 356.5401306
vertex -23.16620636 25.6986618 356.5401001
vertex -23.32161713 25.72258759 356.8509216

endloop
endfacet
facet normal 0.8725532889 0.2550681531 0.4166425169
outer loop
vertex -23.32161713 25.72258759 356.8509216
vertex -23.16620636 25.6986618 356.5401001
vertex -23.33176422 25.86452484 356.7852783

endloop
endfacet
facet normal 0.09944999218 0.423530668 0.900406301
outer loop
vertex -23.32161713 25.72258759 356.8509216
vertex -23.33176422 25.86452484 356.7852783
vertex -23.48697662 25.71360016 356.8734131

endloop
endfacet
facet normal 0.09103988111 0.4307087064 0.8978874087
outer loop
vertex -23.48697662 25.71360016 356.8734131
vertex -23.33176422 25.86452484 356.7852783
vertex -23.49596405 25.86182404 356.8032227

endloop
endfacet
facet normal 0.03279317915 0.4293756485 0.9025303721
outer loop
vertex -23.48697662 25.71360016 356.8734131
vertex -23.49596405 25.86182404 356.8032227
vertex -23.7016983 25.69831085 356.8884888

endloop
endfacet
facet normal 0.03658427671 0.4254887998 0.9042239189
outer loop
vertex -23.7016983 25.69831085 356.8884888
vertex -23.49596405 25.86182404 356.8032227
vertex -23.71067047 25.85752106 356.8139343

endloop
endfacet
facet normal -0.1016523242 0.4171817303 0.9031202793
outer loop
vertex -23.7016983 25.69831085 356.8884888
vertex -23.71067047 25.85752106 356.8139343
vertex -23.95676422 25.67606354 356.8700562

endloop
endfacet
facet normal -0.1030618623 0.4188106656 0.9022061825
outer loop
vertex -23.95676422 25.67606354 356.8700562
vertex -23.71067047 25.85752106 356.8139343
vertex -23.96582794 25.83522797 356.7951355

endloop
endfacet
facet normal -0.1427562684 0.4148604572 0.8986164331
outer loop
vertex -23.95676422 25.67606354 356.8700562
vertex -23.96582794 25.83522797 356.7951355
vertex -24.22234344 25.64859772 356.8405457

endloop
endfacet
facet normal -0.1458028555 0.4185157716 0.8964296579
outer loop
vertex -24.22234344 25.64859772 356.8405457
vertex -23.96582794 25.83522797 356.7951355
vertex -24.23175812 25.80742645 356.7648621

endloop
endfacet
facet normal -0.1796693653 0.4144696295 0.8921512365
outer loop
vertex -24.22234344 25.64859772 356.8405457
vertex -24.23175812 25.80742645 356.7648621
vertex -24.49085236 25.61536407 356.8019104

endloop
endfacet
facet normal -0.1822288334 0.4175451696 0.8901959062
outer loop
vertex -24.49085236 25.61536407 356.8019104
vertex -24.23175812 25.80742645 356.7648621
vertex -24.50034332 25.7742691 356.7254333

endloop
endfacet
facet normal -0.1973717213 0.4155375659 0.8879036903
outer loop
vertex -24.49085236 25.61536407 356.8019104
vertex -24.50034332 25.7742691 356.7254333
vertex -24.76194 25.57874298 356.7587891

endloop
endfacet
facet normal -0.1984684765 0.4168575704 0.8870400786
outer loop
vertex -24.76194 25.57874298 356.7587891
vertex -24.50034332 25.7742691 356.7254333
vertex -24.77136993 25.73802948 356.6818237

endloop
endfacet
facet normal -0.2142920196 0.4145193398 0.8844504952
outer loop
vertex -24.76192474 25.57874298 356.7587891
vertex -24.77136993 25.73801422 356.6818542
vertex -25.02935028 25.54116058 356.7116089

endloop
endfacet
facet normal -0.2161366642 0.4167129397 0.8829696178
outer loop
vertex -25.02935028 25.54116058 356.7116089
vertex -24.77136993 25.73801422 356.6818542
vertex -25.03876495 25.70026398 356.6342163

endloop
endfacet
facet normal -0.2500553727 0.4115225375 0.8764254451
outer loop
vertex -25.02935028 25.54116058 356.7116089
vertex -25.03876495 25.70026398 356.6342163
vertex -25.28746796 25.50150299 356.6565857

endloop
endfacet
facet normal -0.2534377873 0.4154371023 0.8736025095
outer loop
vertex -25.28746796 25.50150299 356.6565857
vertex -25.03876495 25.70026398 356.6342163
vertex -25.29683685 25.65975189 356.5786133

endloop
endfacet
facet normal -0.2800880373 0.4107937813 0.8676400185
outer loop
vertex -25.2874527 25.50153351 356.6565857
vertex -25.29682159 25.65976715 356.5786438
vertex -25.54004669 25.45835114 356.5954895

endloop
endfacet
facet normal -0.2827376723 0.4138017297 0.8653481603
outer loop
vertex -25.54004669 25.45835114 356.5954895
vertex -25.29682159 25.65976715 356.5786438
vertex -25.54936981 25.61586761 356.5171204

endloop
endfacet
facet normal -0.2931715548 0.4119050801 0.8627772927
outer loop
vertex -25.54004669 25.45835114 356.5954895
vertex -25.54936981 25.61586761 356.5171204
vertex -25.79134369 25.41251373 356.5319824

endloop
endfacet
facet normal -0.2941243649 0.4129777253 0.8619398475
outer loop
vertex -25.79134369 25.41251373 356.5319824
vertex -25.54936981 25.61586761 356.5171204
vertex -25.80080414 25.56972504 356.4534302

endloop
endfacet
facet normal -0.3015652299 0.4115785062 0.8600357771
outer loop
vertex -25.79134369 25.41251373 356.5319824
vertex -25.80080414 25.56972504 356.4534302
vertex -26.04132843 25.365242 356.4669495

endloop
endfacet
facet normal -0.3028575778 0.413022846 0.8588884473
outer loop
vertex -26.04132843 25.365242 356.4669495
vertex -25.80080414 25.56972504 356.4534302
vertex -26.05120087 25.52217865 356.3880005

endloop
endfacet
facet normal -0.3141117096 0.4108121991 0.8559013605
outer loop
vertex -26.04132843 25.365242 356.4669495
vertex -26.05120087 25.52217865 356.3880005
vertex -26.29009247 25.316185 356.3992004

endloop
endfacet
facet normal -0.315449208 0.4122976363 0.8546944261
outer loop
vertex -26.29009247 25.316185 356.3992004
vertex -26.05120087 25.52217865 356.3880005
vertex -26.30031586 25.47284698 356.3198547

endloop
endfacet
facet normal -0.3251440823 0.4104986787 0.8519225717
outer loop
vertex -26.29007721 25.31621552 356.3992615
vertex -26.30028534 25.47286224 356.3198853
vertex -26.53910065 25.26508331 356.3288574

endloop
endfacet
facet normal -0.3260431886 0.4114964604 0.8510972261
outer loop
vertex -26.53910065 25.26508331 356.3288574
vertex -26.30028534 25.47286224 356.3198853
vertex -26.54936981 25.42156219 356.2492676

endloop
endfacet
facet normal -0.3287990093 0.4109182656 0.8503160477
outer loop
vertex -26.53910065 25.26508331 356.3288574
vertex -26.54936981 25.42156219 356.2492676
vertex -26.7878952 25.21295929 356.257843

endloop
endfacet
facet normal -0.3290550411 0.4112012982 0.8500801325
outer loop
vertex -26.7878952 25.21295929 356.257843
vertex -26.54936981 25.42156219 356.2492676
vertex -26.79810333 25.36945343 356.1781921

endloop
endfacet
facet normal -0.3240284026 0.4122522473 0.8515008688
outer loop
vertex -26.7878952 25.21295929 356.257843
vertex -26.79810333 25.36945343 356.1781921
vertex -27.04018402 25.16272736 356.1861572

endloop
endfacet
facet normal -0.3255746067 0.4140073359 0.8500583172
outer loop
vertex -27.04018402 25.16272736 356.1861572
vertex -26.79810333 25.36945343 356.1781921
vertex -27.04755402 25.32041168 356.1065369

endloop
endfacet
facet normal -0.3172435164 0.4155944884 0.8524305224
outer loop
vertex -27.04018402 25.16272736 356.1861572
vertex -27.04755402 25.32041168 356.1065369
vertex -27.28310394 25.11844635 356.1173401

endloop
endfacet
facet normal -0.3170448542 0.4153725505 0.8526126146
outer loop
vertex -27.28310394 25.11844635 356.1173401
vertex -27.04755402 25.32041168 356.1065369
vertex -27.28900909 25.27837372 356.0372314

endloop
endfacet
facet normal -0.4428926408 0.3884149194 0.8080716729
outer loop
vertex -27.28310394 25.11844635 356.1173401
vertex -27.28900909 25.27837372 356.0372314
vertex -27.46799469 25.0719986 356.0383301

endloop
endfacet
facet normal -0.4282716513 0.3758074343 0.8217981458
outer loop
vertex -27.46799469 25.0719986 356.0383301
vertex -27.28900909 25.27837372 356.0372314
vertex -27.48061371 25.22171783 355.9632874

endloop
endfacet
facet normal -0.5805806518 0.3251495361 0.746460855
outer loop
vertex -27.46800995 25.07201385 356.0382996
vertex -27.48061371 25.22171783 355.9632874
vertex -27.60082245 25.00539398 355.9640198

endloop
endfacet
facet normal -0.5216118693 0.2925673723 0.8014520407
outer loop
vertex -27.60082245 25.00539398 355.9640198
vertex -27.48061371 25.22171783 355.9632874
vertex -27.62601471 25.14723969 355.8958435

endloop
endfacet
facet normal -0.9836776257 -0.1041927934 0.1467044801
outer loop
vertex -27.60082245 25.00539398 355.9640198
vertex -27.62601471 25.14723969 355.8958435
vertex -27.64559174 24.92188263 355.6045227

endloop
endfacet
facet normal -0.4404280186 -0.6955765486 0.5676234961
outer loop
vertex -27.64559174 24.92188263 355.6045227
vertex -27.62601471 25.14723969 355.8958435
vertex -27.64560699 24.92186737 355.6044922

endloop
endfacet
facet normal -0.7077575922 -0.7064554095 -0
outer loop
vertex -23.16620636 25.6986618 356.5401001
vertex -23.16620636 25.6986618 356.5401306
vertex -23.33176422 25.86452484 356.7852783

endloop
endfacet
facet normal 0.8664517403 0.3709077537 0.3341986239
outer loop
vertex -23.33176422 25.86452484 356.7852783
vertex -23.16620636 25.6986618 356.5401306
vertex -23.32523346 25.97515106 356.6455688

endloop
endfacet
facet normal 0.05505603924 0.7815400958 0.6214208603
outer loop
vertex -23.33176422 25.86452484 356.7852783
vertex -23.32523346 25.97515106 356.6455688
vertex -23.49596405 25.86182404 356.8032227

endloop
endfacet
facet normal 0.08137368411 0.7654365301 0.6383457184
outer loop
vertex -23.49596405 25.86182404 356.8032227
vertex -23.32523346 25.97515106 356.6455688
vertex -23.49440765 25.98651886 356.6535034

endloop
endfacet
facet normal 0.01653274335 0.7682114244 0.63998276
outer loop
vertex -23.49596405 25.86182404 356.8032227
vertex -23.49440765 25.98651886 356.6535034
vertex -23.71067047 25.85752106 356.8139343

endloop
endfacet
facet normal 0.0183160305 0.7669866085 0.6414017081
outer loop
vertex -23.71067047 25.85752106 356.8139343
vertex -23.49440765 25.98651886 356.6535034
vertex -23.71187592 25.99166107 356.6535645

endloop
endfacet
facet normal -0.1135474592 0.7616664767 0.6379429102
outer loop
vertex -23.71067047 25.85752106 356.8139343
vertex -23.71187592 25.99166107 356.6535645
vertex -23.96582794 25.83522797 356.7951355

endloop
endfacet
facet normal -0.1148760393 0.762598753 0.6365898252
outer loop
vertex -23.96582794 25.83522797 356.7951355
vertex -23.71187592 25.99166107 356.6535645
vertex -23.96546173 25.96930695 356.6345825

endloop
endfacet
facet normal -0.1514405608 0.7588684559 0.6333911419
outer loop
vertex -23.96582794 25.83522797 356.7951355
vertex -23.96546173 25.96930695 356.6345825
vertex -24.23175812 25.80742645 356.7648621

endloop
endfacet
facet normal -0.1547540426 0.7613088489 0.629650712
outer loop
vertex -24.23175812 25.80742645 356.7648621
vertex -23.96546173 25.96930695 356.6345825
vertex -24.22750092 25.94123077 356.604126

endloop
endfacet
facet normal -0.1853984445 0.7576408386 0.6257857084
outer loop
vertex -24.23175812 25.80742645 356.7648621
vertex -24.22750092 25.94123077 356.604126
vertex -24.50034332 25.7742691 356.7254333

endloop
endfacet
facet normal -0.188109532 0.75968045 0.6224952936
outer loop
vertex -24.50034332 25.7742691 356.7254333
vertex -24.22750092 25.94123077 356.604126
vertex -24.49329376 25.90814972 356.5641785

endloop
endfacet
facet normal -0.2011901438 0.7579619884 0.6204966307
outer loop
vertex -24.50034332 25.7742691 356.7254333
vertex -24.49329376 25.90814972 356.5641785
vertex -24.77136993 25.73802948 356.6818237

endloop
endfacet
facet normal -0.2022861391 0.7587987781 0.6191160679
outer loop
vertex -24.77136993 25.73802948 356.6818237
vertex -24.49329376 25.90814972 356.5641785
vertex -24.76305389 25.87221527 356.5200806

endloop
endfacet
facet normal -0.2167110741 0.756757915 0.6167281866
outer loop
vertex -24.77136993 25.73801422 356.6818542
vertex -24.76306915 25.87223053 356.5200806
vertex -25.03876495 25.70026398 356.6342163

endloop
endfacet
facet normal -0.2185757011 0.7581625581 0.6143403649
outer loop
vertex -25.03876495 25.70026398 356.6342163
vertex -24.76306915 25.87223053 356.5200806
vertex -25.02872467 25.83434296 356.4723206

endloop
endfacet
facet normal -0.24936378 0.7533800602 0.6084703207
outer loop
vertex -25.03876495 25.70026398 356.6342163
vertex -25.02872467 25.83434296 356.4723206
vertex -25.29683685 25.65975189 356.5786133

endloop
endfacet
facet normal -0.2528487146 0.7559244037 0.603859067
outer loop
vertex -25.29683685 25.65975189 356.5786133
vertex -25.02872467 25.83434296 356.4723206
vertex -25.28377533 25.79308319 356.4171753

endloop
endfacet
facet normal -0.2765003145 0.7518925667 0.5985024571
outer loop
vertex -25.29682159 25.65976715 356.5786438
vertex -25.28376007 25.79309845 356.4171753
vertex -25.54936981 25.61586761 356.5171204

endloop
endfacet
facet normal -0.2791403234 0.7537992597 0.5948675871
outer loop
vertex -25.54936981 25.61586761 356.5171204
vertex -25.28376007 25.79309845 356.4171753
vertex -25.53404999 25.74860382 356.3561096

endloop
endfacet
facet normal -0.2881556749 0.7521510124 0.59265095
outer loop
vertex -25.54936981 25.61586761 356.5171204
vertex -25.53404999 25.74860382 356.3561096
vertex -25.80080414 25.56972504 356.4534302

endloop
endfacet
facet normal -0.2893087864 0.7529864311 0.5910260677
outer loop
vertex -25.80080414 25.56972504 356.4534302
vertex -25.53404999 25.74860382 356.3561096
vertex -25.78470612 25.7022171 356.292511

endloop
endfacet
facet normal -0.2966627181 0.7515969276 0.5891462564
outer loop
vertex -25.80080414 25.56972504 356.4534302
vertex -25.78470612 25.7022171 356.292511
vertex -26.05120087 25.52217865 356.3880005

endloop
endfacet
facet normal -0.2977251112 0.7523645163 0.5876286626
outer loop
vertex -26.05120087 25.52217865 356.3880005
vertex -25.78470612 25.7022171 356.292511
vertex -26.0346756 25.65442657 356.2270508

endloop
endfacet
facet normal -0.3085318208 0.7502351403 0.5847694874
outer loop
vertex -26.05120087 25.52217865 356.3880005
vertex -26.0346756 25.65442657 356.2270508
vertex -26.30031586 25.47284698 356.3198547

endloop
endfacet
facet normal -0.3099829853 0.7512790561 0.582658112
outer loop
vertex -26.30031586 25.47284698 356.3198547
vertex -26.0346756 25.65442657 356.2270508
vertex -26.28301239 25.60483551 356.1588745

endloop
endfacet
facet normal -0.3188517988 0.7494438887 0.5802304745
outer loop
vertex -26.30028534 25.47286224 356.3198853
vertex -26.28299713 25.60485077 356.158905
vertex -26.54936981 25.42156219 356.2492676

endloop
endfacet
facet normal -0.3198954463 0.7501968145 0.5786809921
outer loop
vertex -26.54936981 25.42156219 356.2492676
vertex -26.28299713 25.60485077 356.158905
vertex -26.53133392 25.55342865 356.0882874

endloop
endfacet
facet normal -0.3222296536 0.7497079968 0.5780190229
outer loop
vertex -26.54936981 25.42156219 356.2492676
vertex -26.53133392 25.55342865 356.0882874
vertex -26.79810333 25.36945343 356.1781921

endloop
endfacet
facet normal -0.3225333691 0.7499268055 0.5775656104
outer loop
vertex -26.79810333 25.36945343 356.1781921
vertex -26.53133392 25.55342865 356.0882874
vertex -26.7798233 25.50131989 356.0171814

endloop
endfacet
facet normal -0.3143393099 0.7516176701 0.5798807144
outer loop
vertex -26.79810333 25.36945343 356.1781921
vertex -26.7798233 25.50131989 356.0171814
vertex -27.04755402 25.32041168 356.1065369

endloop
endfacet
facet normal -0.315584749 0.7525365949 0.5780094862
outer loop
vertex -27.04755402 25.32041168 356.1065369
vertex -26.7798233 25.50131989 356.0171814
vertex -27.0256424 25.45326996 355.9455261

endloop
endfacet
facet normal -0.2988523543 0.7556336522 0.5828421712
outer loop
vertex -27.04755402 25.32041168 356.1065369
vertex -27.0256424 25.45326996 355.9455261
vertex -27.28900909 25.27837372 356.0372314

endloop
endfacet
facet normal -0.2989369333 0.7556959987 0.5827180147
outer loop
vertex -27.28900909 25.27837372 356.0372314
vertex -27.0256424 25.45326996 355.9455261
vertex -27.26535797 25.41310883 355.8746338

endloop
endfacet
facet normal -0.4235687256 0.7268231511 0.5406641364
outer loop
vertex -27.28900909 25.27837372 356.0372314
vertex -27.26535797 25.41310883 355.8746338
vertex -27.48061371 25.22171783 355.9632874

endloop
endfacet
facet normal -0.4095353782 0.7200705409 0.5601599813
outer loop
vertex -27.48061371 25.22171783 355.9632874
vertex -27.26535797 25.41310883 355.8746338
vertex -27.46920013 25.3476944 355.8096924

endloop
endfacet
facet normal -0.5669862032 0.6571670175 0.4966469109
outer loop
vertex -27.48061371 25.22171783 355.9632874
vertex -27.46918488 25.34767914 355.8096619
vertex -27.62601471 25.14723969 355.8958435

endloop
endfacet
facet normal -0.5435820818 0.6523869038 0.528119266
outer loop
vertex -27.62601471 25.14723969 355.8958435
vertex -27.46918488 25.34767914 355.8096619
vertex -27.63269806 25.25788116 355.7522888

endloop
endfacet
facet normal -0.9982967973 0.01337519661 0.05678545311
outer loop
vertex -27.62601471 25.14723969 355.8958435
vertex -27.63269806 25.25788116 355.7522888
vertex -27.64560699 24.92186737 355.6044922

endloop
endfacet
facet normal -0.9962026477 0 0.08706481755
outer loop
vertex -27.64560699 24.92186737 355.6044922
vertex -27.63269806 25.25788116 355.7522888
vertex -27.64560699 24.92188263 355.6044922

endloop
endfacet
facet normal 0.2290464044 -0.2290464044 0.9460843205
outer loop
vertex -23.16620636 25.6986618 356.5401306
vertex -23.1661911 25.69867706 356.5401306
vertex -23.32523346 25.97515106 356.6455688

endloop
endfacet
facet normal 0.8803420663 0.4302911162 0.1996179968
outer loop
vertex -23.32523346 25.97515106 356.6455688
vertex -23.1661911 25.69867706 356.5401306
vertex -23.30069733 26.00952911 356.4632568

endloop
endfacet
facet normal 0.07484278083 0.9780431986 0.1944993883
outer loop
vertex -23.32523346 25.97515106 356.6455688
vertex -23.30069733 26.00952911 356.4632568
vertex -23.49440765 25.98651886 356.6535034

endloop
endfacet
facet normal 0.1181470379 0.9643156528 0.2369317114
outer loop
vertex -23.49440765 25.98651886 356.6535034
vertex -23.30069733 26.00952911 356.4632568
vertex -23.47924042 26.03453827 356.4505005

endloop
endfacet
facet normal 0.02306056395 0.9724988937 0.2317630798
outer loop
vertex -23.49440765 25.98651886 356.6535034
vertex -23.47924042 26.03453827 356.4505005
vertex -23.71187592 25.99166107 356.6535645

endloop
endfacet
facet normal 0.02316860668 0.9724683166 0.2318804264
outer loop
vertex -23.71187592 25.99166107 356.6535645
vertex -23.47924042 26.03453827 356.4505005
vertex -23.70220184 26.04351044 356.4351501

endloop
endfacet
facet normal -0.1022848636 0.9688661695 0.2254686952
outer loop
vertex -23.71187592 25.99166107 356.6535645
vertex -23.70220184 26.04351044 356.4351501
vertex -23.96546173 25.96930695 356.6345825

endloop
endfacet
facet normal -0.1034991741 0.9690896869 0.2239488661
outer loop
vertex -23.96546173 25.96930695 356.6345825
vertex -23.70220184 26.04351044 356.4351501
vertex -23.95253754 26.02112579 356.4163208

endloop
endfacet
facet normal -0.1293326169 0.9664772749 0.2217989564
outer loop
vertex -23.96546173 25.96930695 356.6345825
vertex -23.95253754 26.02112579 356.4163208
vertex -24.22750092 25.94123077 356.604126

endloop
endfacet
facet normal -0.1329715252 0.9671290517 0.2167485207
outer loop
vertex -24.22750092 25.94123077 356.604126
vertex -23.95253754 26.02112579 356.4163208
vertex -24.20636749 25.99294281 356.3863525

endloop
endfacet
facet normal -0.1522948146 0.9648167491 0.2143242508
outer loop
vertex -24.22750092 25.94123077 356.604126
vertex -24.20636749 25.99294281 356.3863525
vertex -24.49329376 25.90814972 356.5641785

endloop
endfacet
facet normal -0.1549887061 0.9652938247 0.2102051377
outer loop
vertex -24.49329376 25.90814972 356.5641785
vertex -24.20636749 25.99294281 356.3863525
vertex -24.46646881 25.9598465 356.3465576

endloop
endfacet
facet normal -0.1626221836 0.9642934799 0.2090265155
outer loop
vertex -24.49329376 25.90814972 356.5641785
vertex -24.46646881 25.9598465 356.3465576
vertex -24.76305389 25.87221527 356.5200806

endloop
endfacet
facet normal -0.1636777222 0.9644836187 0.207318455
outer loop
vertex -24.76305389 25.87221527 356.5200806
vertex -24.46646881 25.9598465 356.3465576
vertex -24.7338028 25.92404938 356.3020325

endloop
endfacet
facet normal -0.1742867976 0.9630164504 0.2054834664
outer loop
vertex -24.76306915 25.87223053 356.5200806
vertex -24.73378754 25.92404938 356.302063
vertex -25.02872467 25.83434296 356.4723206

endloop
endfacet
facet normal -0.1758377254 0.9632752538 0.2029331625
outer loop
vertex -25.02872467 25.83434296 356.4723206
vertex -24.73378754 25.92404938 356.302063
vertex -24.99604034 25.8861618 356.2546692

endloop
endfacet
facet normal -0.198236987 0.9597938657 0.1987406313
outer loop
vertex -25.02872467 25.83434296 356.4723206
vertex -24.99604034 25.8861618 356.2546692
vertex -25.28377533 25.79308319 356.4171753

endloop
endfacet
facet normal -0.2016582489 0.9602623582 0.1929512769
outer loop
vertex -25.28377533 25.79308319 356.4171753
vertex -24.99604034 25.8861618 356.2546692
vertex -25.24510956 25.84461212 356.2011414

endloop
endfacet
facet normal -0.2165295184 0.9576689005 0.1896978021
outer loop
vertex -25.28376007 25.79309845 356.4171753
vertex -25.2450943 25.84462738 356.2011719
vertex -25.53404999 25.74860382 356.3561096

endloop
endfacet
facet normal -0.219238162 0.9580003023 0.1848515868
outer loop
vertex -25.53404999 25.74860382 356.3561096
vertex -25.2450943 25.84462738 356.2011719
vertex -25.49095917 25.79987335 356.14151

endloop
endfacet
facet normal -0.2237561643 0.9571680427 0.1837455481
outer loop
vertex -25.53404999 25.74860382 356.3561096
vertex -25.49095917 25.79987335 356.14151
vertex -25.78470612 25.7022171 356.292511

endloop
endfacet
facet normal -0.2247500271 0.9572895169 0.1818906516
outer loop
vertex -25.78470612 25.7022171 356.292511
vertex -25.49095917 25.79987335 356.14151
vertex -25.73993683 25.75341034 356.0783997

endloop
endfacet
facet normal -0.2301016003 0.9562752843 0.1805291772
outer loop
vertex -25.78470612 25.7022171 356.292511
vertex -25.73993683 25.75341034 356.0783997
vertex -26.0346756 25.65442657 356.2270508

endloop
endfacet
facet normal -0.231029287 0.9563836455 0.1787619591
outer loop
vertex -26.0346756 25.65442657 356.2270508
vertex -25.73993683 25.75341034 356.0783997
vertex -25.98845673 25.70554352 356.0133057

endloop
endfacet
facet normal -0.2391518205 0.954783082 0.1766228229
outer loop
vertex -26.0346756 25.65442657 356.2270508
vertex -25.98845673 25.70554352 356.0133057
vertex -26.28301239 25.60483551 356.1588745

endloop
endfacet
facet normal -0.2404715568 0.9549241662 0.1740499288
outer loop
vertex -26.28301239 25.60483551 356.1588745
vertex -25.98845673 25.70554352 356.0133057
vertex -26.23471832 25.6558609 355.9456482

endloop
endfacet
facet normal -0.2465118915 0.9536732435 0.1724507511
outer loop
vertex -26.28299713 25.60485077 356.158905
vertex -26.23470306 25.65589142 355.9456787
vertex -26.53133392 25.55342865 356.0882874

endloop
endfacet
facet normal -0.2474587411 0.9537697434 0.1705505699
outer loop
vertex -26.53133392 25.55342865 356.0882874
vertex -26.23470306 25.65589142 355.9456787
vertex -26.48152924 25.60440826 355.8754578

endloop
endfacet
facet normal -0.2486606538 0.9535180926 0.1702090502
outer loop
vertex -26.53133392 25.55342865 356.0882874
vertex -26.48152924 25.60440826 355.8754578
vertex -26.7798233 25.50131989 356.0171814

endloop
endfacet
facet normal -0.2489055842 0.9535428882 0.1697115302
outer loop
vertex -26.7798233 25.50131989 356.0171814
vertex -26.48152924 25.60440826 355.8754578
vertex -26.72963715 25.5522995 355.8043518

endloop
endfacet
facet normal -0.2372843027 0.9559083581 0.1730184704
outer loop
vertex -26.7798233 25.50131989 356.0171814
vertex -26.72963715 25.5522995 355.8043518
vertex -27.0256424 25.45326996 355.9455261

endloop
endfacet
facet normal -0.238620609 0.9560598135 0.1703228503
outer loop
vertex -27.0256424 25.45326996 355.9455261
vertex -26.72963715 25.5522995 355.8043518
vertex -26.97206879 25.50460052 355.7324524

endloop
endfacet
facet normal -0.2135059088 0.9606370926 0.1777401865
outer loop
vertex -27.0256424 25.45326996 355.9455261
vertex -26.97206879 25.50460052 355.7324524
vertex -27.26535797 25.41310883 355.8746338

endloop
endfacet
facet normal -0.2136173695 0.9606529474 0.1775204688
outer loop
vertex -27.26535797 25.41310883 355.8746338
vertex -26.97206879 25.50460052 355.7324524
vertex -27.21027374 25.46517181 355.6591797

endloop
endfacet
facet normal -0.3420293033 0.9296206236 0.1371912062
outer loop
vertex -27.26535797 25.41310883 355.8746338
vertex -27.21027374 25.46517181 355.6591797
vertex -27.46920013 25.3476944 355.8096924

endloop
endfacet
facet normal -0.3312247694 0.9304899573 0.1564567387
outer loop
vertex -27.46920013 25.3476944 355.8096924
vertex -27.21027374 25.46517181 355.6591797
vertex -27.42951202 25.39618683 355.6053162

endloop
endfacet
facet normal -0.5066959262 0.8557423353 0.1047102213
outer loop
vertex -27.46918488 25.34767914 355.8096619
vertex -27.42949677 25.39618683 355.6052856
vertex -27.63269806 25.25788116 355.7522888

endloop
endfacet
facet normal -0.5044932961 0.8565672636 0.1085310355
outer loop
vertex -27.63269806 25.25788116 355.7522888
vertex -27.42949677 25.39618683 355.6052856
vertex -27.61440277 25.29227448 355.5658875

endloop
endfacet
facet normal -0.9936661124 0.0749899894 -0.0836917311
outer loop
vertex -27.63269806 25.25788116 355.7522888
vertex -27.61440277 25.29227448 355.5658875
vertex -27.64560699 24.92188263 355.6044922

endloop
endfacet
facet normal -nan(ind) -nan(ind) -nan(ind)
outer loop
vertex -27.64560699 24.92188263 355.6044922
vertex -27.61440277 25.29227448 355.5658875
vertex -27.64560699 24.92188263 355.6044922

endloop
endfacet
facet normal 0.8620969057 0.2664324641 -0.4310484529
outer loop
vertex -23.1661911 25.69867706 356.5401306
vertex -23.16620636 25.69867706 356.5401001
vertex -23.30069733 26.00952911 356.4632568

endloop
endfacet
facet normal 0.9142302871 0.4038122594 0.03344666213
outer loop
vertex -23.30069733 26.00952911 356.4632568
vertex -23.16620636 25.69867706 356.5401001
vertex -23.26413727 25.94039154 356.298645

endloop
endfacet
facet normal 0.1544820517 0.9226955771 -0.3532253206
outer loop
vertex -23.30069733 26.00952911 356.4632568
vertex -23.26413727 25.94039154 356.298645
vertex -23.47924042 26.03453827 356.4505005

endloop
endfacet
facet normal 0.1666219532 0.9262045622 -0.3382045925
outer loop
vertex -23.47924042 26.03453827 356.4505005
vertex -23.26413727 25.94039154 356.298645
vertex -23.45166779 25.95896149 356.2571106

endloop
endfacet
facet normal 0.06201047823 0.9325752854 -0.3556093276
outer loop
vertex -23.47924042 26.03453827 356.4505005
vertex -23.45166779 25.95896149 356.2571106
vertex -23.70220184 26.04351044 356.4351501

endloop
endfacet
facet normal 0.06133096293 0.9323043823 -0.3564368486
outer loop
vertex -23.70220184 26.04351044 356.4351501
vertex -23.45166779 25.95896149 356.2571106
vertex -23.6815567 25.96224213 356.2261353

endloop
endfacet
facet normal -0.05547248572 0.9287297726 -0.3665840924
outer loop
vertex -23.70220184 26.04351044 356.4351501
vertex -23.6815567 25.96224213 356.2261353
vertex -23.95253754 26.02112579 356.4163208

endloop
endfacet
facet normal -0.05672693253 0.9280321002 -0.3681554198
outer loop
vertex -23.95253754 26.02112579 356.4163208
vertex -23.6815567 25.96224213 356.2261353
vertex -23.92763519 25.939888 356.2077026

endloop
endfacet
facet normal -0.05951764435 0.9277662635 -0.3683850169
outer loop
vertex -23.95253754 26.02112579 356.4163208
vertex -23.92763519 25.939888 356.2077026
vertex -24.20636749 25.99294281 356.3863525

endloop
endfacet
facet normal -0.0629735142 0.9256339073 -0.3731436729
outer loop
vertex -24.20636749 25.99294281 356.3863525
vertex -23.92763519 25.939888 356.2077026
vertex -24.17075348 25.9118576 356.1791992

endloop
endfacet
facet normal -0.0607666634 0.9258933663 -0.3728658259
outer loop
vertex -24.20636749 25.99294281 356.3863525
vertex -24.17075348 25.9118576 356.1791992
vertex -24.46646881 25.9598465 356.3465576

endloop
endfacet
facet normal -0.06288827211 0.9244065285 -0.3761882782
outer loop
vertex -24.46646881 25.9598465 356.3465576
vertex -24.17075348 25.9118576 356.1791992
vertex -24.42357635 25.87876129 356.1401367

endloop
endfacet
facet normal -0.06120025739 0.9246271849 -0.3759242296
outer loop
vertex -24.46646881 25.9598465 356.3465576
vertex -24.42357635 25.87876129 356.1401367
vertex -24.7338028 25.92404938 356.3020325

endloop
endfacet
facet normal -0.06218389422 0.9238785505 -0.3775996268
outer loop
vertex -24.7338028 25.92404938 356.3020325
vertex -24.42357635 25.87876129 356.1401367
vertex -24.68781281 25.84276581 356.0955811

endloop
endfacet
facet normal -0.06510004401 0.923499763 -0.3780346215
outer loop
vertex -24.73378754 25.92404938 356.302063
vertex -24.68782806 25.84276581 356.0955811
vertex -24.99604034 25.8861618 356.2546692

endloop
endfacet
facet normal -0.06670505553 0.922247231 -0.3808024526
outer loop
vertex -24.99604034 25.8861618 356.2546692
vertex -24.68782806 25.84276581 356.0955811
vertex -24.94568634 25.80492401 356.0491028

endloop
endfacet
facet normal -0.07168623805 0.9214920998 -0.3817242086
outer loop
vertex -24.99604034 25.8861618 356.2546692
vertex -24.94568634 25.80492401 356.0491028
vertex -25.24510956 25.84461212 356.2011414

endloop
endfacet
facet normal -0.0748379454 0.9189274311 -0.3872616589
outer loop
vertex -25.24510956 25.84461212 356.2011414
vertex -24.94568634 25.80492401 356.0491028
vertex -25.18718719 25.76381683 355.99823

endloop
endfacet
facet normal -0.07341697812 0.9191738963 -0.3869486749
outer loop
vertex -25.2450943 25.84462738 356.2011719
vertex -25.18718719 25.76383209 355.9982605
vertex -25.49095917 25.79987335 356.14151

endloop
endfacet
facet normal -0.07565713674 0.9171906114 -0.3912000656
outer loop
vertex -25.49095917 25.79987335 356.14151
vertex -25.18718719 25.76383209 355.9982605
vertex -25.4274826 25.71947479 355.9407349

endloop
endfacet
facet normal -0.07232070714 0.9178042412 -0.390391022
outer loop
vertex -25.49095917 25.79987335 356.14151
vertex -25.4274826 25.71947479 355.9407349
vertex -25.73993683 25.75341034 356.0783997

endloop
endfacet
facet normal -0.07320440561 0.9169666767 -0.3921902776
outer loop
vertex -25.73993683 25.75341034 356.0783997
vertex -25.4274826 25.71947479 355.9407349
vertex -25.67420197 25.67316437 355.8785095

endloop
endfacet
facet normal -0.07382588834 0.9168495536 -0.392347604
outer loop
vertex -25.73993683 25.75341034 356.0783997
vertex -25.67420197 25.67316437 355.8785095
vertex -25.98845673 25.70554352 356.0133057

endloop
endfacet
facet normal -0.07454680651 0.9161430597 -0.3938586116
outer loop
vertex -25.98845673 25.70554352 356.0133057
vertex -25.67420197 25.67316437 355.8785095
vertex -25.92053986 25.62545013 355.8141479

endloop
endfacet
facet normal -0.07641324401 0.9157784581 -0.394348532
outer loop
vertex -25.98845673 25.70554352 356.0133057
vertex -25.92053986 25.62545013 355.8141479
vertex -26.23471832 25.6558609 355.9456482

endloop
endfacet
facet normal -0.07757093757 0.9146031141 -0.3968426287
outer loop
vertex -26.23471832 25.6558609 355.9456482
vertex -25.92053986 25.62545013 355.8141479
vertex -26.16388702 25.57590485 355.7475281

endloop
endfacet
facet normal -0.07781636715 0.9145268202 -0.396969974
outer loop
vertex -26.23470306 25.65589142 355.9456787
vertex -26.16387177 25.5759201 355.7475586
vertex -26.48152924 25.60440826 355.8754578

endloop
endfacet
facet normal -0.07861869037 0.9136736393 -0.3987726569
outer loop
vertex -26.48152924 25.60440826 355.8754578
vertex -26.16387177 25.5759201 355.7475586
vertex -26.40868378 25.52451324 355.6780396

endloop
endfacet
facet normal -0.07772113383 0.913861692 -0.3985175788
outer loop
vertex -26.48152924 25.60440826 355.8754578
vertex -26.40868378 25.52451324 355.6780396
vertex -26.72963715 25.5522995 355.8043518

endloop
endfacet
facet normal -0.07795956731 0.9136018753 -0.3990662694
outer loop
vertex -26.72963715 25.5522995 355.8043518
vertex -26.40868378 25.52451324 355.6780396
vertex -26.65631866 25.47238922 355.6070862

endloop
endfacet
facet normal -0.06324969977 0.9165843129 -0.3948071599
outer loop
vertex -26.72963715 25.5522995 355.8043518
vertex -26.65631866 25.47238922 355.6070862
vertex -26.97206879 25.50460052 355.7324524

endloop
endfacet
facet normal -0.0643074587 0.9154815078 -0.3971878886
outer loop
vertex -26.97206879 25.50460052 355.7324524
vertex -26.65631866 25.47238922 355.6070862
vertex -26.8970871 25.42411041 355.53479

endloop
endfacet
facet normal -0.03321552649 0.9211810231 -0.3877142966
outer loop
vertex -26.97206879 25.50460052 355.7324524
vertex -26.8970871 25.42411041 355.53479
vertex -27.21027374 25.46517181 355.6591797

endloop
endfacet
facet normal -0.03344836086 0.9209567904 -0.3882265091
outer loop
vertex -27.21027374 25.46517181 355.6591797
vertex -26.8970871 25.42411041 355.53479
vertex -27.13471222 25.38353729 355.4590149

endloop
endfacet
facet normal -0.174096927 0.8870889544 -0.4275082946
outer loop
vertex -27.21027374 25.46517181 355.6591797
vertex -27.13471222 25.38353729 355.4590149
vertex -27.42951202 25.39618683 355.6053162

endloop
endfacet
facet normal -0.1663715094 0.8955563307 -0.412673533
outer loop
vertex -27.42951202 25.39618683 355.6053162
vertex -27.13471222 25.38353729 355.4590149
vertex -27.36748505 25.31984711 355.4146423

endloop
endfacet
facet normal -0.3644141555 0.8175268769 -0.445928514
outer loop
vertex -27.42949677 25.39618683 355.6052856
vertex -27.36746979 25.31984711 355.4146423
vertex -27.61440277 25.29227448 355.5658875

endloop
endfacet
facet normal -0.3559046388 0.8298251033 -0.4297932386
outer loop
vertex -27.61440277 25.29227448 355.5658875
vertex -27.36746979 25.31984711 355.4146423
vertex -27.57335663 25.22318268 355.3984985

endloop
endfacet
facet normal -0.9643844366 0.05426393449 -0.2588788271
outer loop
vertex -27.61440277 25.29227448 355.5658875
vertex -27.57335663 25.22318268 355.3984985
vertex -27.64560699 24.92188263 355.6044922

endloop
endfacet
facet normal -0.9435263276 0 -0.331297487
outer loop
vertex -27.64560699 24.92188263 355.6044922
vertex -27.57335663 25.22318268 355.3984985
vertex -27.64560699 24.92186737 355.6044922

endloop
endfacet
facet normal 0.9266808033 0 -0.3758491874
outer loop
vertex -23.16620636 25.69867706 356.5401001
vertex -23.16620636 25.6986618 356.5401001
vertex -23.26413727 25.94039154 356.298645

endloop
endfacet
facet normal 0.945640862 0.3187714815 -0.06440508366
outer loop
vertex -23.26413727 25.94039154 356.298645
vertex -23.16620636 25.6986618 356.5401001
vertex -23.2299118 25.81816864 356.196228

endloop
endfacet
facet normal 0.2239656895 0.6620389223 -0.7152229548
outer loop
vertex -23.26413727 25.94039154 356.298645
vertex -23.2299118 25.81816864 356.196228
vertex -23.45166779 25.95896149 356.2571106

endloop
endfacet
facet normal 0.2468813062 0.6851760149 -0.6852616072
outer loop
vertex -23.45166779 25.95896149 356.2571106
vertex -23.2299118 25.81816864 356.196228
vertex -23.42435455 25.82312775 356.131134

endloop
endfacet
facet normal 0.1065900549 0.6875662804 -0.7182556987
outer loop
vertex -23.45166779 25.95896149 356.2571106
vertex -23.42435455 25.82312775 356.131134
vertex -23.6815567 25.96224213 356.2261353

endloop
endfacet
facet normal 0.1070394963 0.6880409718 -0.7177340388
outer loop
vertex -23.6815567 25.96224213 356.2261353
vertex -23.42435455 25.82312775 356.131134
vertex -23.65998077 25.81613922 356.0892944

endloop
endfacet
facet normal -0.007334846538 0.6829980612 -0.7303833961
outer loop
vertex -23.6815567 25.96224213 356.2261353
vertex -23.65998077 25.81613922 356.0892944
vertex -23.92763519 25.939888 356.2077026

endloop
endfacet
facet normal -0.008635990322 0.68150419 -0.7317633033
outer loop
vertex -23.92763519 25.939888 356.2077026
vertex -23.65998077 25.81613922 356.0892944
vertex -23.90251923 25.79383087 356.0713806

endloop
endfacet
facet normal 0.006897669286 0.6829410195 -0.730440855
outer loop
vertex -23.92763519 25.939888 356.2077026
vertex -23.90251923 25.79383087 356.0713806
vertex -24.17075348 25.9118576 356.1791992

endloop
endfacet
facet normal 0.004110882059 0.6795281172 -0.7336378694
outer loop
vertex -24.17075348 25.9118576 356.1791992
vertex -23.90251923 25.79383087 356.0713806
vertex -24.13654327 25.76612091 356.0444031

endloop
endfacet
facet normal 0.02371011861 0.6818170547 -0.7311383486
outer loop
vertex -24.17075348 25.9118576 356.1791992
vertex -24.13654327 25.76612091 356.0444031
vertex -24.42357635 25.87876129 356.1401367

endloop
endfacet
facet normal 0.02177376673 0.6790884137 -0.7337335348
outer loop
vertex -24.42357635 25.87876129 356.1401367
vertex -24.13654327 25.76612091 356.0444031
vertex -24.38323212 25.73297882 356.0064087

endloop
endfacet
facet normal 0.03081092238 0.6802791953 -0.7323052287
outer loop
vertex -24.42357635 25.87876129 356.1401367
vertex -24.38323212 25.73297882 356.0064087
vertex -24.68781281 25.84276581 356.0955811

endloop
endfacet
facet normal 0.03010039404 0.679168582 -0.7333648801
outer loop
vertex -24.68781281 25.84276581 356.0955811
vertex -24.38323212 25.73297882 356.0064087
vertex -24.64496613 25.69663239 355.9620056

endloop
endfacet
facet normal 0.03237339854 0.6795680523 -0.7328978777
outer loop
vertex -24.68782806 25.84276581 356.0955811
vertex -24.64495087 25.69663239 355.9619751
vertex -24.94568634 25.80492401 356.0491028

endloop
endfacet
facet normal 0.030963514 0.6773506403 -0.735008359
outer loop
vertex -24.94568634 25.80492401 356.0491028
vertex -24.64495087 25.69663239 355.9619751
vertex -24.89919281 25.65891266 355.9165039

endloop
endfacet
facet normal 0.03901560605 0.678555727 -0.7335119843
outer loop
vertex -24.94568634 25.80492401 356.0491028
vertex -24.89919281 25.65891266 355.9165039
vertex -25.18718719 25.76381683 355.99823

endloop
endfacet
facet normal 0.03638951108 0.6744169593 -0.7374534607
outer loop
vertex -25.18718719 25.76381683 355.99823
vertex -24.89919281 25.65891266 355.9165039
vertex -25.13443756 25.6186142 355.868042

endloop
endfacet
facet normal 0.05084815994 0.676879406 -0.7343355417
outer loop
vertex -25.18718719 25.76383209 355.9982605
vertex -25.1344223 25.61862946 355.8680725
vertex -25.4274826 25.71947479 355.9407349

endloop
endfacet
facet normal 0.04890989885 0.6735454202 -0.7375259399
outer loop
vertex -25.4274826 25.71947479 355.9407349
vertex -25.1344223 25.61862946 355.8680725
vertex -25.37014008 25.57492828 355.8125305

endloop
endfacet
facet normal 0.05865736306 0.6753305793 -0.7351788282
outer loop
vertex -25.4274826 25.71947479 355.9407349
vertex -25.37014008 25.57492828 355.8125305
vertex -25.67420197 25.67316437 355.8785095

endloop
endfacet
facet normal 0.0578388758 0.6737895012 -0.736656189
outer loop
vertex -25.67420197 25.67316437 355.8785095
vertex -25.37014008 25.57492828 355.8125305
vertex -25.61489105 25.52890778 355.7512207

endloop
endfacet
facet normal 0.06157647818 0.6744915247 -0.7357102036
outer loop
vertex -25.67420197 25.67316437 355.8785095
vertex -25.61489105 25.52890778 355.7512207
vertex -25.92053986 25.62545013 355.8141479

endloop
endfacet
facet normal 0.06088345125 0.6731407046 -0.7370039821
outer loop
vertex -25.92053986 25.62545013 355.8141479
vertex -25.61489105 25.52890778 355.7512207
vertex -25.85918427 25.48143768 355.6876831

endloop
endfacet
facet normal 0.06432972103 0.6738123298 -0.7360969186
outer loop
vertex -25.92053986 25.62545013 355.8141479
vertex -25.85918427 25.48143768 355.6876831
vertex -26.16388702 25.57590485 355.7475281

endloop
endfacet
facet normal 0.06337723136 0.6718989611 -0.7379262447
outer loop
vertex -26.16388702 25.57590485 355.7475281
vertex -25.85918427 25.48143768 355.6876831
vertex -26.0999527 25.43212128 355.6221008

endloop
endfacet
facet normal 0.06790871173 0.6728292108 -0.7366744876
outer loop
vertex -26.16387177 25.5759201 355.7475586
vertex -26.09992218 25.43213654 355.6221313
vertex -26.40868378 25.52451324 355.6780396

endloop
endfacet
facet normal 0.06733429432 0.6716125011 -0.7378365397
outer loop
vertex -26.40868378 25.52451324 355.6780396
vertex -26.09992218 25.43213654 355.6221313
vertex -26.34308624 25.38091278 355.5533142

endloop
endfacet
facet normal 0.06973978132 0.6721175909 -0.7371528745
outer loop
vertex -26.40868378 25.52451324 355.6780396
vertex -26.34308624 25.38091278 355.5533142
vertex -26.65631866 25.47238922 355.6070862

endloop
endfacet
facet normal 0.06952510029 0.671646595 -0.7376022339
outer loop
vertex -26.65631866 25.47238922 355.6070862
vertex -26.34308624 25.38091278 355.5533142
vertex -26.59035492 25.32878876 355.4825439

endloop
endfacet
facet normal 0.08482741565 0.6747884154 -0.7331199646
outer loop
vertex -26.65631866 25.47238922 355.6070862
vertex -26.59035492 25.32878876 355.4825439
vertex -26.8970871 25.42411041 355.53479

endloop
endfacet
facet normal 0.08386774361 0.6727741361 -0.7350790501
outer loop
vertex -26.8970871 25.42411041 355.53479
vertex -26.59035492 25.32878876 355.4825439
vertex -26.83112335 25.27941132 355.4098816

endloop
endfacet
facet normal 0.1154007018 0.6787005067 -0.7252919078
outer loop
vertex -26.8970871 25.42411041 355.53479
vertex -26.83112335 25.27941132 355.4098816
vertex -27.13471222 25.38353729 355.4590149

endloop
endfacet
facet normal 0.1153237149 0.6785488129 -0.7254460454
outer loop
vertex -27.13471222 25.38353729 355.4590149
vertex -26.83112335 25.27941132 355.4098816
vertex -27.06902313 25.23680878 355.3322144

endloop
endfacet
facet normal -0.03115539439 0.6455187798 -0.7631086111
outer loop
vertex -27.13471222 25.38353729 355.4590149
vertex -27.06902313 25.23680878 355.3322144
vertex -27.36748505 25.31984711 355.4146423

endloop
endfacet
facet normal -0.02565281093 0.6563097835 -0.7540553212
outer loop
vertex -27.36748505 25.31984711 355.4146423
vertex -27.06902313 25.23680878 355.3322144
vertex -27.30974579 25.18262482 355.2932434

endloop
endfacet
facet normal -0.2179825902 0.593654573 -0.7746340632
outer loop
vertex -27.36746979 25.31984711 355.4146423
vertex -27.30973053 25.18264008 355.2932434
vertex -27.57335663 25.22318268 355.3984985

endloop
endfacet
facet normal -0.2232443839 0.5807779431 -0.7828530669
outer loop
vertex -27.57335663 25.22318268 355.3984985
vertex -27.30973053 25.18264008 355.2932434
vertex -27.52841949 25.10100555 355.2950439

endloop
endfacet
facet normal -0.9290305972 -0.02938676998 -0.3688341081
outer loop
vertex -27.57335663 25.22318268 355.3984985
vertex -27.52841949 25.10100555 355.2950439
vertex -27.64560699 24.92186737 355.6044922

endloop
endfacet
facet normal -nan(ind) -nan(ind) -nan(ind)
outer loop
vertex -27.64560699 24.92186737 355.6044922
vertex -27.52841949 25.10100555 355.2950439
vertex -27.64560699 24.92186737 355.6044922

endloop
endfacet
facet normal -0.981621027 -0.1349446177 0.1349446177
outer loop
vertex -23.16620636 25.69863129 356.5400696
vertex -23.16620636 25.6986618 356.5401001
vertex -23.2299118 25.81816864 356.1961975

endloop
endfacet
facet normal 0.9750372171 0.1902353317 -0.1145113781
outer loop
vertex -23.2299118 25.81816864 356.1961975
vertex -23.16620636 25.6986618 356.5401001
vertex -23.20114899 25.65294647 356.166626

endloop
endfacet
facet normal 0.3146942556 0.22004278 -0.9233356714
outer loop
vertex -23.2299118 25.81816864 356.1961975
vertex -23.20114899 25.65294647 356.166626
vertex -23.42436981 25.82312775 356.1311035

endloop
endfacet
facet normal 0.3382170796 0.2545159161 -0.9059972167
outer loop
vertex -23.42436981 25.82312775 356.1311035
vertex -23.20114899 25.65294647 356.166626
vertex -23.39977264 25.63585663 356.087677

endloop
endfacet
facet normal 0.162577942 0.2431062311 -0.9562780857
outer loop
vertex -23.42436981 25.82312775 356.1311035
vertex -23.39977264 25.63585663 356.087677
vertex -23.65999603 25.81612396 356.0892639

endloop
endfacet
facet normal 0.1644164473 0.2457514703 -0.9552870989
outer loop
vertex -23.65999603 25.81612396 356.0892639
vertex -23.39977264 25.63585663 356.087677
vertex -23.63933563 25.61463165 356.0409851

endloop
endfacet
facet normal 0.0498018302 0.237548098 -0.9700983167
outer loop
vertex -23.65999603 25.81612396 356.0892639
vertex -23.63933563 25.61463165 356.0409851
vertex -23.90253448 25.79381561 356.0713501

endloop
endfacet
facet normal 0.04827910662 0.2354126275 -0.9706956744
outer loop
vertex -23.90253448 25.79381561 356.0713501
vertex -23.63933563 25.61463165 356.0409851
vertex -23.87937164 25.59238434 356.0236511

endloop
endfacet
facet normal 0.08326555043 0.2386840135 -0.9675210118
outer loop
vertex -23.90253448 25.79381561 356.0713501
vertex -23.87937164 25.59238434 356.0236511
vertex -24.13657379 25.76610565 356.0443726

endloop
endfacet
facet normal 0.08008100837 0.2341337204 -0.9689006209
outer loop
vertex -24.13657379 25.76610565 356.0443726
vertex -23.87937164 25.59238434 356.0236511
vertex -24.10689545 25.56513214 355.9982605

endloop
endfacet
facet normal 0.1165805236 0.2384306788 -0.9641367793
outer loop
vertex -24.13657379 25.76610565 356.0443726
vertex -24.10689545 25.56513214 355.9982605
vertex -24.38326263 25.73296356 356.0063477

endloop
endfacet
facet normal 0.1144518778 0.2349785268 -0.96523875
outer loop
vertex -24.38326263 25.73296356 356.0063477
vertex -24.10689545 25.56513214 355.9982605
vertex -24.34928131 25.53188324 355.9614258

endloop
endfacet
facet normal 0.1304017305 0.2371050864 -0.96269238
outer loop
vertex -24.38326263 25.73296356 356.0063477
vertex -24.34928131 25.53188324 355.9614258
vertex -24.64498138 25.69661713 355.9619446

endloop
endfacet
facet normal 0.1294057816 0.2353191376 -0.9632647634
outer loop
vertex -24.64498138 25.69661713 355.9619446
vertex -24.34928131 25.53188324 355.9614258
vertex -24.6092453 25.49507904 355.917511

endloop
endfacet
facet normal 0.1369910985 0.2363756895 -0.9619563818
outer loop
vertex -24.64496613 25.69661713 355.9619446
vertex -24.60923004 25.49507904 355.917511
vertex -24.89920807 25.65891266 355.9164734

endloop
endfacet
facet normal 0.1355261058 0.2337774038 -0.9627984762
outer loop
vertex -24.89920807 25.65891266 355.9164734
vertex -24.60923004 25.49507904 355.917511
vertex -24.8609848 25.45752716 355.8729553

endloop
endfacet
facet normal 0.1567723453 0.2369439304 -0.9587908387
outer loop
vertex -24.89920807 25.65891266 355.9164734
vertex -24.8609848 25.45752716 355.8729553
vertex -25.13445282 25.61858368 355.868042

endloop
endfacet
facet normal 0.153625831 0.2315455526 -0.9606174231
outer loop
vertex -25.13445282 25.61858368 355.868042
vertex -24.8609848 25.45752716 355.8729553
vertex -25.09191132 25.41829681 355.8265686

endloop
endfacet
facet normal 0.1812822968 0.2361707538 -0.9546518326
outer loop
vertex -25.13443756 25.6186142 355.8680725
vertex -25.09191132 25.41832733 355.8265991
vertex -25.37015533 25.57491302 355.8125

endloop
endfacet
facet normal 0.1790353656 0.2320489883 -0.9560855031
outer loop
vertex -25.37015533 25.57491302 355.8125
vertex -25.09191132 25.41832733 355.8265991
vertex -25.32442474 25.37554169 355.7726746

endloop
endfacet
facet normal 0.1944164634 0.2348394543 -0.9523931742
outer loop
vertex -25.37015533 25.57491302 355.8125
vertex -25.32442474 25.37554169 355.7726746
vertex -25.61490631 25.52889252 355.7511902

endloop
endfacet
facet normal 0.1935399026 0.2330939919 -0.9530002475
outer loop
vertex -25.61490631 25.52889252 355.7511902
vertex -25.32442474 25.37554169 355.7726746
vertex -25.56772614 25.32988739 355.7120972

endloop
endfacet
facet normal 0.2016234696 0.2346078306 -0.9509506226
outer loop
vertex -25.61490631 25.52889252 355.7511902
vertex -25.56772614 25.32988739 355.7120972
vertex -25.85919952 25.48142242 355.6876831

endloop
endfacet
facet normal 0.2009361684 0.233206898 -0.9514405727
outer loop
vertex -25.85919952 25.48142242 355.6876831
vertex -25.56772614 25.32988739 355.7120972
vertex -25.8103714 25.28272247 355.649292

endloop
endfacet
facet normal 0.2104620188 0.2350610495 -0.9489215016
outer loop
vertex -25.85919952 25.48142242 355.6876831
vertex -25.8103714 25.28272247 355.649292
vertex -26.09996796 25.43212128 355.6220703

endloop
endfacet
facet normal 0.2091874927 0.2324207276 -0.9498532414
outer loop
vertex -26.09996796 25.43212128 355.6220703
vertex -25.8103714 25.28272247 355.649292
vertex -26.04909515 25.2338028 355.5847473

endloop
endfacet
facet normal 0.2185866237 0.2343278378 -0.9472647309
outer loop
vertex -26.09993744 25.43213654 355.6221008
vertex -26.0490799 25.23381805 355.5847778
vertex -26.3431015 25.38089752 355.5533142

endloop
endfacet
facet normal 0.2177020907 0.2324153036 -0.9479392767
outer loop
vertex -26.3431015 25.38089752 355.5533142
vertex -26.0490799 25.23381805 355.5847778
vertex -26.29109955 25.18282318 355.5166931

endloop
endfacet
facet normal 0.2219171822 0.2333008498 -0.9467436075
outer loop
vertex -26.3431015 25.38089752 355.5533142
vertex -26.29109955 25.18282318 355.5166931
vertex -26.59037018 25.32878876 355.4825134

endloop
endfacet
facet normal 0.2217455804 0.2329175025 -0.9468781948
outer loop
vertex -26.59037018 25.32878876 355.4825134
vertex -26.29109955 25.18282318 355.5166931
vertex -26.53813934 25.1306839 355.4460144

endloop
endfacet
facet normal 0.2361026704 0.235924378 -0.9426532984
outer loop
vertex -26.59037018 25.32878876 355.4825134
vertex -26.53813934 25.1306839 355.4460144
vertex -26.83113861 25.27941132 355.4098511

endloop
endfacet
facet normal 0.2350033373 0.233548075 -0.9435193539
outer loop
vertex -26.83113861 25.27941132 355.4098511
vertex -26.53813934 25.1306839 355.4460144
vertex -26.78070831 25.07985687 355.3730164

endloop
endfacet
facet normal 0.262321502 0.2388697267 -0.934948504
outer loop
vertex -26.83113861 25.27941132 355.4098511
vertex -26.78070831 25.07985687 355.3730164
vertex -27.06903839 25.23679352 355.3322144

endloop
endfacet
facet normal 0.2621065974 0.2384299934 -0.9351209998
outer loop
vertex -27.06903839 25.23679352 355.3322144
vertex -26.78070831 25.07985687 355.3730164
vertex -27.01969147 25.03437042 355.2944336

endloop
endfacet
facet normal 0.1105618626 0.2083301395 -0.9717894197
outer loop
vertex -27.06903839 25.23679352 355.3322144
vertex -27.01969147 25.03437042 355.2944336
vertex -27.30974579 25.18260956 355.2932129

endloop
endfacet
facet normal 0.1164222807 0.2198235393 -0.968567729
outer loop
vertex -27.30974579 25.18260956 355.2932129
vertex -27.01969147 25.03437042 355.2944336
vertex -27.26172638 24.99340057 355.2560425

endloop
endfacet
facet normal -0.07314503938 0.1746566892 -0.9819087386
outer loop
vertex -27.30973053 25.18260956 355.2932434
vertex -27.26172638 24.99340057 355.256012
vertex -27.52841949 25.10097504 355.2950134

endloop
endfacet
facet normal -0.08431531489 0.1482132524 -0.9853546023
outer loop
vertex -27.52841949 25.10097504 355.2950134
vertex -27.26172638 24.99340057 355.256012
vertex -27.48363495 24.93573761 355.2663269

endloop
endfacet
facet normal -0.8867659569 -0.1654109508 -0.4316079021
outer loop
vertex -27.52841949 25.10097504 355.2950134
vertex -27.48363495 24.93573761 355.2663269
vertex -27.64562225 24.92185211 355.6044617

endloop
endfacet
facet normal 0.6936386228 -0.6523269415 0.3055076599
outer loop
vertex -27.64562225 24.92185211 355.6044617
vertex -27.48363495 24.93573761 355.2663269
vertex -27.64560699 24.92188263 355.6044922

endloop
endfacet
facet normal -nan(ind) -nan(ind) -nan(ind)
outer loop
vertex -23.16620636 25.6986618 356.5401001
vertex -23.16620636 25.6986618 356.5401001
vertex -23.20114899 25.65296173 356.1666565

endloop
endfacet
facet normal 0.9951812625 0.02126123942 -0.09571965039
outer loop
vertex -23.20114899 25.65296173 356.1666565
vertex -23.16620636 25.6986618 356.5401001
vertex -23.18268585 25.37995148 356.2979736

endloop
endfacet
facet normal 0.3695521653 -0.3823617995 -0.8468946815
outer loop
vertex -23.20114899 25.65296173 356.1666565
vertex -23.18268585 25.37995148 356.2979736
vertex -23.39977264 25.63585663 356.0877075

endloop
endfacet
facet normal 0.3891697824 -0.3648474813 -0.8458327651
outer loop
vertex -23.39977264 25.63585663 356.0877075
vertex -23.18268585 25.37995148 356.2979736
vertex -23.37950897 25.30924225 356.237915

endloop
endfacet
facet normal 0.2093466222 -0.3978161216 -0.8932615519
outer loop
vertex -23.39977264 25.63585663 356.0877075
vertex -23.37950897 25.30924225 356.237915
vertex -23.63933563 25.61463165 356.0410156

endloop
endfacet
facet normal 0.2145741135 -0.3937346935 -0.8938293457
outer loop
vertex -23.63933563 25.61463165 356.0410156
vertex -23.37950897 25.30924225 356.237915
vertex -23.61922455 25.26291656 356.2007751

endloop
endfacet
facet normal 0.1033174768 -0.4064483345 -0.9078134298
outer loop
vertex -23.63933563 25.61463165 356.0410156
vertex -23.61922455 25.26291656 356.2007751
vertex -23.87937164 25.5923996 356.0236511

endloop
endfacet
facet normal 0.1007193401 -0.4082274735 -0.9073069096
outer loop
vertex -23.87937164 25.5923996 356.0236511
vertex -23.61922455 25.26291656 356.2007751
vertex -23.85894012 25.24080658 356.1841125

endloop
endfacet
facet normal 0.1489726752 -0.4033779502 -0.9028251767
outer loop
vertex -23.87937164 25.5923996 356.0236511
vertex -23.85894012 25.24080658 356.1841125
vertex -24.10689545 25.56513214 355.998291

endloop
endfacet
facet normal 0.141990602 -0.4081352651 -0.9018116593
outer loop
vertex -24.10689545 25.56513214 355.998291
vertex -23.85894012 25.24080658 356.1841125
vertex -24.08548737 25.21431732 356.1604309

endloop
endfacet
facet normal 0.1913529187 -0.402140528 -0.8953585625
outer loop
vertex -24.10689545 25.56513214 355.998291
vertex -24.08548737 25.21431732 356.1604309
vertex -24.34926605 25.53188324 355.9614258

endloop
endfacet
facet normal 0.1863292009 -0.4059110284 -0.8947165608
outer loop
vertex -24.34926605 25.53188324 355.9614258
vertex -24.08548737 25.21431732 356.1604309
vertex -24.32753754 25.18090057 356.1251831

endloop
endfacet
facet normal 0.2076141387 -0.4030148685 -0.8913334608
outer loop
vertex -24.34926605 25.53188324 355.9614258
vertex -24.32753754 25.18090057 356.1251831
vertex -24.6092453 25.49507904 355.917511

endloop
endfacet
facet normal 0.2054141611 -0.4047920704 -0.8910378218
outer loop
vertex -24.6092453 25.49507904 355.917511
vertex -24.32753754 25.18090057 356.1251831
vertex -24.58751678 25.14328766 356.0823364

endloop
endfacet
facet normal 0.2174555957 -0.4031448066 -0.8889248371
outer loop
vertex -24.60923004 25.49507904 355.917511
vertex -24.58751678 25.14328766 356.0823669
vertex -24.8609848 25.45752716 355.8729553

endloop
endfacet
facet normal 0.2136067003 -0.4061918259 -0.8884708285
outer loop
vertex -24.8609848 25.45752716 355.8729553
vertex -24.58751678 25.14328766 356.0823669
vertex -24.83922577 25.10604095 356.0388794

endloop
endfacet
facet normal 0.2454137802 -0.401369065 -0.8824255466
outer loop
vertex -24.8609848 25.45752716 355.8729553
vertex -24.83922577 25.10604095 356.0388794
vertex -25.09191132 25.41831207 355.8265686

endloop
endfacet
facet normal 0.2378692329 -0.4070951641 -0.881868422
outer loop
vertex -25.09191132 25.41831207 355.8265686
vertex -24.83922577 25.10604095 356.0388794
vertex -25.07012177 25.0687027 355.9938354

endloop
endfacet
facet normal 0.2762988508 -0.4006461203 -0.8735798001
outer loop
vertex -25.09191132 25.41832733 355.8265991
vertex -25.07010651 25.06871796 355.9938354
vertex -25.32442474 25.37555695 355.7726746

endloop
endfacet
facet normal 0.2707642019 -0.4050265253 -0.8732928634
outer loop
vertex -25.32442474 25.37555695 355.7726746
vertex -25.07010651 25.06871796 355.9938354
vertex -25.30263519 25.027565 355.9408264

endloop
endfacet
facet normal 0.2915225327 -0.4013179541 -0.8683077693
outer loop
vertex -25.32442474 25.37555695 355.7726746
vertex -25.30263519 25.027565 355.9408264
vertex -25.56772614 25.32988739 355.7120972

endloop
endfacet
facet normal 0.2891721427 -0.4032842517 -0.8681827784
outer loop
vertex -25.56772614 25.32988739 355.7120972
vertex -25.30263519 25.027565 355.9408264
vertex -25.54557037 24.98259735 355.8807983

endloop
endfacet
facet normal 0.3016345799 -0.4009514749 -0.8650170565
outer loop
vertex -25.56772614 25.32988739 355.7120972
vertex -25.54557037 24.98259735 355.8807983
vertex -25.81035614 25.28272247 355.649353

endloop
endfacet
facet normal 0.2995535731 -0.402713716 -0.8649215102
outer loop
vertex -25.81035614 25.28272247 355.649353
vertex -25.54557037 24.98259735 355.8807983
vertex -25.78726959 24.93599701 355.8187866

endloop
endfacet
facet normal 0.3146679401 -0.3997517526 -0.8609195948
outer loop
vertex -25.81035614 25.28272247 355.649353
vertex -25.78726959 24.93599701 355.8187866
vertex -26.04909515 25.2338028 355.5848083

endloop
endfacet
facet normal 0.3118160963 -0.4021841288 -0.8608243465
outer loop
vertex -26.04909515 25.2338028 355.5848083
vertex -25.78726959 24.93599701 355.8187866
vertex -26.02519989 24.8877182 355.7551575

endloop
endfacet
facet normal 0.3252881169 -0.3994777203 -0.8570911884
outer loop
vertex -26.0490799 25.23383331 355.5848083
vertex -26.02516937 24.88774872 355.755188
vertex -26.29109955 25.18283844 355.5167236

endloop
endfacet
facet normal 0.3232131004 -0.4012957215 -0.857026875
outer loop
vertex -26.29109955 25.18283844 355.5167236
vertex -26.02516937 24.88774872 355.755188
vertex -26.26706696 24.83715057 355.6876526

endloop
endfacet
facet normal 0.3292441666 -0.4000324607 -0.8553200364
outer loop
vertex -26.29109955 25.18283844 355.5167236
vertex -26.26706696 24.83715057 355.6876526
vertex -26.53813934 25.13069916 355.4460144

endloop
endfacet
facet normal 0.3286353052 -0.4005774856 -0.8552990556
outer loop
vertex -26.53813934 25.13069916 355.4460144
vertex -26.26706696 24.83715057 355.6876526
vertex -26.51430511 24.78496552 355.6170959

endloop
endfacet
facet normal 0.3398610055 -0.3981829584 -0.8520239592
outer loop
vertex -26.53813934 25.13069916 355.4460144
vertex -26.51430511 24.78496552 355.6170959
vertex -26.78069305 25.07987213 355.3730164

endloop
endfacet
facet normal 0.3368548751 -0.4008510113 -0.8519667387
outer loop
vertex -26.78069305 25.07987213 355.3730164
vertex -26.51430511 24.78496552 355.6170959
vertex -26.76309967 24.73155975 355.5438538

endloop
endfacet
facet normal 0.3539275825 -0.3973827064 -0.8466535807
outer loop
vertex -26.78069305 25.07987213 355.3730164
vertex -26.76309967 24.73155975 355.5438538
vertex -27.01969147 25.03437042 355.2944641

endloop
endfacet
facet normal 0.3535626829 -0.3976962268 -0.8466587663
outer loop
vertex -27.01969147 25.03437042 355.2944641
vertex -26.76309967 24.73155975 355.5438538
vertex -27.00522614 24.68112946 355.4664307

endloop
endfacet
facet normal 0.2112519592 -0.4208264649 -0.8822004795
outer loop
vertex -27.01969147 25.03437042 355.2944641
vertex -27.00522614 24.68112946 355.4664307
vertex -27.26172638 24.99341583 355.2560425

endloop
endfacet
facet normal 0.2241990715 -0.4111216366 -0.8835800886
outer loop
vertex -27.26172638 24.99341583 355.2560425
vertex -27.00522614 24.68112946 355.4664307
vertex -27.2329483 24.66345978 355.4168701

endloop
endfacet
facet normal 0.07058932632 -0.4321004152 -0.8990585804
outer loop
vertex -27.26174164 24.99340057 355.2560425
vertex -27.2329483 24.66347504 355.4168701
vertex -27.48363495 24.93575287 355.2663269

endloop
endfacet
facet normal 0.06315041333 -0.4377443492 -0.8968789577
outer loop
vertex -27.48363495 24.93575287 355.2663269
vertex -27.2329483 24.66347504 355.4168701
vertex -27.43653107 24.66274261 355.4028931

endloop
endfacet
facet normal -0.8382040858 -0.3526922762 -0.4159591794
outer loop
vertex -27.48363495 24.93575287 355.2663269
vertex -27.43653107 24.66274261 355.4028931
vertex -27.64560699 24.92186737 355.6044922

endloop
endfacet
facet normal -nan(ind) -nan(ind) -nan(ind)
outer loop
vertex -27.64560699 24.92186737 355.6044922
vertex -27.43653107 24.66274261 355.4028931
vertex -27.64560699 24.92186737 355.6044922

endloop
endfacet
endsolid
