solid 
facet normal -0.866979 -0 -0.498344
outer loop
vertex -88.94429779 10.32196808 325.1012878
vertex -88.94429779 10.32198334 325.1012878
vertex -88.87453461 9.815864563 324.9799194

endloop
endfacet
facet normal -0.8731467724 -0.003463755362 -0.4874450266
outer loop
vertex -88.87453461 9.815864563 324.9799194
vertex -88.94429779 10.32198334 325.1012878
vertex -88.73136139 10.11754608 324.7213135

endloop
endfacet
facet normal -0.1019977182 -0.6190838218 -0.7786729932
outer loop
vertex -88.87453461 9.815864563 324.9799194
vertex -88.73136139 10.11754608 324.7213135
vertex -88.59394073 9.69367218 325.0403137

endloop
endfacet
facet normal -0.103087604 -0.6192373633 -0.7784073949
outer loop
vertex -88.59394073 9.69367218 325.0403137
vertex -88.73136139 10.11754608 324.7213135
vertex -88.44564056 10.03388214 324.7500305

endloop
endfacet
facet normal -0.1254830807 -0.6117302179 -0.7810506821
outer loop
vertex -88.59394073 9.69367218 325.0403137
vertex -88.44564056 10.03388214 324.7500305
vertex -88.26186371 9.571159363 325.0829163

endloop
endfacet
facet normal -0.1333843321 -0.613132596 -0.7786379457
outer loop
vertex -88.26186371 9.571159363 325.0829163
vertex -88.44564056 10.03388214 324.7500305
vertex -88.11154938 9.925392151 324.7782288

endloop
endfacet
facet normal -0.07337802649 -0.6322607398 -0.7712730169
outer loop
vertex -88.26186371 9.571159363 325.0829163
vertex -88.11154938 9.925392151 324.7782288
vertex -87.88657379 9.459403992 325.1388245

endloop
endfacet
facet normal -0.06302534044 -0.6296309829 -0.7743336558
outer loop
vertex -87.88657379 9.459403992 325.1388245
vertex -88.11154938 9.925392151 324.7782288
vertex -87.72953033 9.814079285 324.8376465

endloop
endfacet
facet normal -0.05058989301 -0.6333404183 -0.772217989
outer loop
vertex -87.88657379 9.459403992 325.1388245
vertex -87.72953033 9.814079285 324.8376465
vertex -87.49852753 9.344612122 325.20755

endloop
endfacet
facet normal -0.04012043029 -0.6305003166 -0.7751514316
outer loop
vertex -87.49852753 9.344612122 325.20755
vertex -87.72953033 9.814079285 324.8376465
vertex -87.33415222 9.699287415 324.910553

endloop
endfacet
facet normal -0.03510455042 -0.6320033669 -0.7741702199
outer loop
vertex -87.49852753 9.344612122 325.20755
vertex -87.33415222 9.699287415 324.910553
vertex -87.10997009 9.228340149 325.2848511

endloop
endfacet
facet normal -0.02853005007 -0.6302335858 -0.7758812308
outer loop
vertex -87.10997009 9.228340149 325.2848511
vertex -87.33415222 9.699287415 324.910553
vertex -86.94036865 9.582801819 324.9906921

endloop
endfacet
facet normal -0.02236483246 -0.632094264 -0.7745687366
outer loop
vertex -87.10997009 9.228340149 325.2848511
vertex -86.94036865 9.582801819 324.9906921
vertex -86.72838593 9.113121033 325.3678589

endloop
endfacet
facet normal -0.01227278449 -0.6294481158 -0.7769456506
outer loop
vertex -86.72838593 9.113121033 325.3678589
vertex -86.94036865 9.582801819 324.9906921
vertex -86.55072021 9.467170715 325.0782166

endloop
endfacet
facet normal -0.005886543542 -0.6314266324 -0.7754132748
outer loop
vertex -86.7283783 9.113121033 325.3678894
vertex -86.55072784 9.467155457 325.0782471
vertex -86.34863281 8.995689392 325.4606323

endloop
endfacet
facet normal 0.004939450882 -0.6286310554 -0.7776880264
outer loop
vertex -86.34863281 8.995689392 325.4606323
vertex -86.55072784 9.467155457 325.0782471
vertex -86.16173553 9.349173546 325.1760864

endloop
endfacet
facet normal 0.005111684091 -0.6286856532 -0.7776427269
outer loop
vertex -86.34863281 8.995689392 325.4606323
vertex -86.16173553 9.349173546 325.1760864
vertex -85.97384644 8.874809265 325.5608215

endloop
endfacet
facet normal 0.01931300014 -0.6251730919 -0.7802471519
outer loop
vertex -85.97384644 8.874809265 325.5608215
vertex -86.16173553 9.349173546 325.1760864
vertex -85.77693176 9.229164124 325.2817688

endloop
endfacet
facet normal 0.018726632 -0.6249801517 -0.7804159522
outer loop
vertex -85.97384644 8.874824524 325.5608521
vertex -85.77693176 9.229179382 325.2817993
vertex -85.60289764 8.751534462 325.6684875

endloop
endfacet
facet normal 0.04794974625 -0.6178854704 -0.7848047018
outer loop
vertex -85.60289764 8.751534462 325.6684875
vertex -85.77693176 9.229179382 325.2817993
vertex -85.39394379 9.113349915 325.3963928

endloop
endfacet
facet normal 0.05634725839 -0.6206634045 -0.7820498347
outer loop
vertex -85.60289764 8.751534462 325.6684875
vertex -85.39394379 9.113349915 325.3963928
vertex -85.2309494 8.638450623 325.7850342

endloop
endfacet
facet normal 0.09079673141 -0.6118584871 -0.7857385874
outer loop
vertex -85.2309494 8.638450623 325.7850342
vertex -85.39394379 9.113349915 325.3963928
vertex -85.00931549 9.01158905 325.5200806

endloop
endfacet
facet normal 0.111078389 -0.6183946133 -0.7779779434
outer loop
vertex -85.2309494 8.638450623 325.7850342
vertex -85.00931549 9.01158905 325.5200806
vertex -84.85572052 8.548362732 325.9102173

endloop
endfacet
facet normal 0.1266791224 -0.6140871644 -0.7790054083
outer loop
vertex -84.85572052 8.548362732 325.9102173
vertex -85.00931549 9.01158905 325.5200806
vertex -84.62355042 8.926597595 325.6498108

endloop
endfacet
facet normal 0.1276993155 -0.6144186258 -0.7785773277
outer loop
vertex -84.85572052 8.548362732 325.9102173
vertex -84.62355042 8.926597595 325.6498108
vertex -84.47978973 8.463844299 326.0385742

endloop
endfacet
facet normal 0.110637255 -0.6189184785 -0.7776241899
outer loop
vertex -84.47978973 8.463844299 326.0385742
vertex -84.62355042 8.926597595 325.6498108
vertex -84.24078369 8.833366394 325.7784729

endloop
endfacet
facet normal 0.0593711175 -0.5999725461 -0.7978144884
outer loop
vertex -84.4797821 8.463859558 326.0386047
vertex -84.24076843 8.833381653 325.7785034
vertex -84.10951233 8.341545105 326.1581421

endloop
endfacet
facet normal 0.01350572612 -0.6087105274 -0.7932774425
outer loop
vertex -84.10951233 8.341545105 326.1581421
vertex -84.24076843 8.833381653 325.7785034
vertex -83.86794281 8.691001892 325.894104

endloop
endfacet
facet normal -0.02301170491 -0.5925044417 -0.8052384257
outer loop
vertex -84.10951233 8.341545105 326.1581421
vertex -83.86794281 8.691001892 325.894104
vertex -83.75434875 8.184165955 326.2637939

endloop
endfacet
facet normal -0.05864798278 -0.5968313217 -0.8002205491
outer loop
vertex -83.75434875 8.184165955 326.2637939
vertex -83.86794281 8.691001892 325.894104
vertex -83.51300812 8.519950867 325.9956665

endloop
endfacet
facet normal -0.06219954416 -0.5950959325 -0.8012440801
outer loop
vertex -83.75434875 8.184165955 326.2637939
vertex -83.51300812 8.519950867 325.9956665
vertex -83.44586945 8.025779724 326.3574829

endloop
endfacet
facet normal -0.1088027656 -0.5968261361 -0.7949594259
outer loop
vertex -83.44586945 8.025779724 326.3574829
vertex -83.51300812 8.519950867 325.9956665
vertex -83.2168808 8.356864929 326.0775757

endloop
endfacet
facet normal -0.05753396079 -0.6210430861 -0.7816619277
outer loop
vertex -83.44586945 8.025779724 326.3574829
vertex -83.2168808 8.356864929 326.0775757
vertex -83.27342987 7.922843933 326.4265747

endloop
endfacet
facet normal -0.2315709442 -0.591109097 -0.7726350427
outer loop
vertex -83.27342987 7.922843933 326.4265747
vertex -83.2168808 8.356864929 326.0775757
vertex -83.07779694 8.248008728 326.1191711

endloop
endfacet
facet normal -0.1311022192 -0.6382619739 -0.7585735321
outer loop
vertex -83.27342987 7.922843933 326.4265747
vertex -83.07779694 8.248008728 326.1191711
vertex -83.13259125 7.857826233 326.4569397

endloop
endfacet
facet normal -0.2313748896 -0.61796242 -0.7513907552
outer loop
vertex -83.13259125 7.857826233 326.4569397
vertex -83.07779694 8.248008728 326.1191711
vertex -82.95305634 8.163825989 326.1499939

endloop
endfacet
facet normal -0.3001124859 -0.5819632411 -0.7558116317
outer loop
vertex -83.13259125 7.857826233 326.4569092
vertex -82.95305634 8.163841248 326.1499939
vertex -82.90244293 7.74306488 326.4538879

endloop
endfacet
facet normal -0.2418965846 -0.5870571136 -0.7725605965
outer loop
vertex -82.90244293 7.74306488 326.4538879
vertex -82.95305634 8.163841248 326.1499939
vertex -82.71391296 8.012611389 326.190033

endloop
endfacet
facet normal 0.6829670668 -0.6956765652 -0.2226883769
outer loop
vertex -82.90244293 7.74306488 326.4538879
vertex -82.71391296 8.012611389 326.190033
vertex -82.54990387 8.031166077 326.6350708

endloop
endfacet
facet normal 0.1123788357 -0.9936654568 0
outer loop
vertex -82.54990387 8.031166077 326.6350708
vertex -82.71391296 8.012611389 326.190033
vertex -82.54990387 8.031166077 326.6350403

endloop
endfacet
facet normal 0.8044160604 -0.2011040151 0.5589919686
outer loop
vertex -88.94429779 10.32198334 325.1012878
vertex -88.94430542 10.32195282 325.1012878
vertex -88.73136139 10.11754608 324.7213135

endloop
endfacet
facet normal -0.7982486486 0.2146065831 -0.5627992749
outer loop
vertex -88.73136139 10.11754608 324.7213135
vertex -88.94430542 10.32195282 325.1012878
vertex -88.66339874 10.33568573 324.7080994

endloop
endfacet
facet normal 0.07536739111 -0.08367221057 -0.9936391711
outer loop
vertex -88.73136139 10.11754608 324.7213135
vertex -88.66339874 10.33568573 324.7080994
vertex -88.44564056 10.03388214 324.7500305

endloop
endfacet
facet normal 0.09562985599 -0.06896702945 -0.9930249453
outer loop
vertex -88.44564056 10.03388214 324.7500305
vertex -88.66339874 10.33568573 324.7080994
vertex -88.3733139 10.26950836 324.7406311

endloop
endfacet
facet normal 0.06472058594 -0.05960281566 -0.9961218834
outer loop
vertex -88.44564056 10.03388214 324.7500305
vertex -88.3733139 10.26950836 324.7406311
vertex -88.11154938 9.925392151 324.7782288

endloop
endfacet
facet normal 0.0611311309 -0.06233974174 -0.9961811304
outer loop
vertex -88.11154938 9.925392151 324.7782288
vertex -88.3733139 10.26950836 324.7406311
vertex -88.03609467 10.17055511 324.7675171

endloop
endfacet
facet normal 0.1294926107 -0.0830264464 -0.9880982637
outer loop
vertex -88.11154938 9.925392151 324.7782288
vertex -88.03609467 10.17055511 324.7675171
vertex -87.72953033 9.814079285 324.8376465

endloop
endfacet
facet normal 0.1355222911 -0.07776614279 -0.9877176285
outer loop
vertex -87.72953033 9.814079285 324.8376465
vertex -88.03609467 10.17055511 324.7675171
vertex -87.65429688 10.05953217 324.8286438

endloop
endfacet
facet normal 0.1569972485 -0.08421212435 -0.9840021133
outer loop
vertex -87.72953033 9.814079285 324.8376465
vertex -87.65429688 10.05953217 324.8286438
vertex -87.33415222 9.699287415 324.910553

endloop
endfacet
facet normal 0.1636179835 -0.07819598168 -0.9834198356
outer loop
vertex -87.33415222 9.699287415 324.910553
vertex -87.65429688 10.05953217 324.8286438
vertex -87.25904083 9.944725037 324.9035339

endloop
endfacet
facet normal 0.1754759103 -0.08175805956 -0.9810829163
outer loop
vertex -87.33415222 9.699287415 324.910553
vertex -87.25904083 9.944725037 324.9035339
vertex -86.94036865 9.582801819 324.9906921

endloop
endfacet
facet normal 0.1794297844 -0.07817476243 -0.9806597829
outer loop
vertex -86.94036865 9.582801819 324.9906921
vertex -87.25904083 9.944725037 324.9035339
vertex -86.86484528 9.828117371 324.9849548

endloop
endfacet
facet normal 0.1949348897 -0.08286984265 -0.9773090482
outer loop
vertex -86.94036865 9.582801819 324.9906921
vertex -86.86484528 9.828117371 324.9849548
vertex -86.55072021 9.467170715 325.0782166

endloop
endfacet
facet normal 0.2009360343 -0.07744792104 -0.9765380025
outer loop
vertex -86.55072021 9.467170715 325.0782166
vertex -86.86484528 9.828117371 324.9849548
vertex -86.47437286 9.71219635 325.0744934

endloop
endfacet
facet normal 0.2192625999 -0.08322572708 -0.9721097946
outer loop
vertex -86.55072784 9.467155457 325.0782471
vertex -86.47436523 9.712181091 325.0744934
vertex -86.16173553 9.349173546 325.1760864

endloop
endfacet
facet normal 0.225364089 -0.07770815492 -0.9711706638
outer loop
vertex -86.16173553 9.349173546 325.1760864
vertex -86.47436523 9.712181091 325.0744934
vertex -86.08370209 9.593788147 325.1746216

endloop
endfacet
facet normal 0.2399725914 -0.082345061 -0.9672809839
outer loop
vertex -86.16173553 9.349173546 325.1760864
vertex -86.08370209 9.593788147 325.1746216
vertex -85.77693176 9.229164124 325.2817688

endloop
endfacet
facet normal 0.2461163253 -0.07685507089 -0.9661883712
outer loop
vertex -85.77693176 9.229164124 325.2817688
vertex -86.08370209 9.593788147 325.1746216
vertex -85.69594574 9.473930359 325.2829285

endloop
endfacet
facet normal 0.2626951337 -0.08249150217 -0.9613461494
outer loop
vertex -85.77693176 9.229179382 325.2817993
vertex -85.69593811 9.473945618 325.2829285
vertex -85.39394379 9.113349915 325.3963928

endloop
endfacet
facet normal 0.2693610787 -0.07648436725 -0.9599972367
outer loop
vertex -85.39394379 9.113349915 325.3963928
vertex -85.69593811 9.473945618 325.2829285
vertex -85.3082962 9.360206604 325.4007568

endloop
endfacet
facet normal 0.2853473425 -0.08212099224 -0.9548994899
outer loop
vertex -85.39394379 9.113349915 325.3963928
vertex -85.3082962 9.360206604 325.4007568
vertex -85.00931549 9.01158905 325.5200806

endloop
endfacet
facet normal 0.289452523 -0.07828741521 -0.9539855123
outer loop
vertex -85.00931549 9.01158905 325.5200806
vertex -85.3082962 9.360206604 325.4007568
vertex -84.91784668 9.260154724 325.5274353

endloop
endfacet
facet normal 0.3012334704 -0.08274194598 -0.9499537349
outer loop
vertex -85.00931549 9.01158905 325.5200806
vertex -84.91784668 9.260154724 325.5274353
vertex -84.62355042 8.926597595 325.6498108

endloop
endfacet
facet normal 0.301412791 -0.08256842196 -0.9499120116
outer loop
vertex -84.62355042 8.926597595 325.6498108
vertex -84.91784668 9.260154724 325.5274353
vertex -84.52593231 9.17375946 325.6593018

endloop
endfacet
facet normal 0.2995868027 -0.08182257414 -0.9505539536
outer loop
vertex -84.62355042 8.926597595 325.6498108
vertex -84.52593231 9.17375946 325.6593018
vertex -84.24078369 8.833366394 325.7784729

endloop
endfacet
facet normal 0.2954961658 -0.08558155596 -0.9515029192
outer loop
vertex -84.24078369 8.833366394 325.7784729
vertex -84.52593231 9.17375946 325.6593018
vertex -84.13693237 9.075904846 325.7889099

endloop
endfacet
facet normal 0.2694402039 -0.07403882593 -0.9601667523
outer loop
vertex -84.24076843 8.833381653 325.7785034
vertex -84.13692474 9.075935364 325.7889404
vertex -83.86794281 8.691001892 325.894104

endloop
endfacet
facet normal 0.2601914406 -0.08104343712 -0.9621498585
outer loop
vertex -83.86794281 8.691001892 325.894104
vertex -84.13692474 9.075935364 325.7889404
vertex -83.75816345 8.926063538 325.9039917

endloop
endfacet
facet normal 0.2420109212 -0.07232453674 -0.9675742388
outer loop
vertex -83.86794281 8.691001892 325.894104
vertex -83.75816345 8.926063538 325.9039917
vertex -83.51300812 8.519950867 325.9956665

endloop
endfacet
facet normal 0.2337232679 -0.07769313455 -0.9691941142
outer loop
vertex -83.51300812 8.519950867 325.9956665
vertex -83.75816345 8.926063538 325.9039917
vertex -83.39941406 8.750511169 326.0045776

endloop
endfacet
facet normal 0.2274962664 -0.07455846667 -0.9709205031
outer loop
vertex -83.51300812 8.519950867 325.9956665
vertex -83.39941406 8.750511169 326.0045776
vertex -83.2168808 8.356864929 326.0775757

endloop
endfacet
facet normal 0.2008102238 -0.08781651407 -0.9756861925
outer loop
vertex -83.2168808 8.356864929 326.0775757
vertex -83.39941406 8.750511169 326.0045776
vertex -83.10116577 8.585868835 326.08078

endloop
endfacet
facet normal 0.2158811837 -0.09548705816 -0.9717394114
outer loop
vertex -83.2168808 8.356864929 326.0775757
vertex -83.10116577 8.585868835 326.08078
vertex -83.07779694 8.248008728 326.1191711

endloop
endfacet
facet normal 0.08846010268 -0.1064183861 -0.9903786778
outer loop
vertex -83.07779694 8.248008728 326.1191711
vertex -83.10116577 8.585868835 326.08078
vertex -82.95672607 8.473045349 326.1058044

endloop
endfacet
facet normal 0.1487072259 -0.1381665468 -0.9791814089
outer loop
vertex -83.07779694 8.248008728 326.1191711
vertex -82.95672607 8.473045349 326.1058044
vertex -82.95305634 8.163825989 326.1499939

endloop
endfacet
facet normal 0.08159303665 -0.1400485188 -0.9867770672
outer loop
vertex -82.95305634 8.163825989 326.1499939
vertex -82.95672607 8.473045349 326.1058044
vertex -82.82958984 8.375740051 326.130127

endloop
endfacet
facet normal 0.07802419364 -0.1380257905 -0.9873505235
outer loop
vertex -82.95305634 8.163841248 326.1499939
vertex -82.82958221 8.37575531 326.130127
vertex -82.71391296 8.012611389 326.190033

endloop
endfacet
facet normal 0.09585334361 -0.1322189122 -0.986575067
outer loop
vertex -82.71391296 8.012611389 326.190033
vertex -82.82958221 8.37575531 326.130127
vertex -82.59516907 8.207542419 326.1754456

endloop
endfacet
facet normal 0.8111227155 -0.5148667097 -0.277474761
outer loop
vertex -82.71391296 8.012611389 326.190033
vertex -82.59516907 8.207542419 326.1754456
vertex -82.54990387 8.031166077 326.6350403

endloop
endfacet
facet normal -0.8656794429 0.4328397214 0.2514932156
outer loop
vertex -82.54990387 8.031166077 326.6350403
vertex -82.59516907 8.207542419 326.1754456
vertex -82.5499115 8.031150818 326.6350403

endloop
endfacet
facet normal -0.6546477675 0.6100562215 -0.4463942647
outer loop
vertex -88.94430542 10.32195282 325.1012878
vertex -88.94429779 10.32198334 325.1013184
vertex -88.66339874 10.33568573 324.7080994

endloop
endfacet
facet normal -0.7498668432 0.4071264863 -0.5214861631
outer loop
vertex -88.66339874 10.33568573 324.7080994
vertex -88.94429779 10.32198334 325.1013184
vertex -88.62849426 10.51274872 324.7961426

endloop
endfacet
facet normal 0.1928258538 0.4061419368 -0.8932340145
outer loop
vertex -88.66339874 10.33568573 324.7080994
vertex -88.62849426 10.51274872 324.7961426
vertex -88.3733139 10.26950836 324.7406311

endloop
endfacet
facet normal 0.2217758745 0.4321480095 -0.8741073012
outer loop
vertex -88.3733139 10.26950836 324.7406311
vertex -88.62849426 10.51274872 324.7961426
vertex -88.33430481 10.45201874 324.8407593

endloop
endfacet
facet normal 0.1985451579 0.4384530187 -0.8765493631
outer loop
vertex -88.3733139 10.26950836 324.7406311
vertex -88.33430481 10.45201874 324.8407593
vertex -88.03609467 10.17055511 324.7675171

endloop
endfacet
facet normal 0.1962449849 0.4364150465 -0.8780829906
outer loop
vertex -88.03609467 10.17055511 324.7675171
vertex -88.33430481 10.45201874 324.8407593
vertex -87.99368286 10.36031342 324.8713074

endloop
endfacet
facet normal 0.2608160079 0.4177405536 -0.8703262806
outer loop
vertex -88.03609467 10.17055511 324.7675171
vertex -87.99368286 10.36031342 324.8713074
vertex -87.65429688 10.05953217 324.8286438

endloop
endfacet
facet normal 0.2657363713 0.4227378368 -0.8664161563
outer loop
vertex -87.65429688 10.05953217 324.8286438
vertex -87.99368286 10.36031342 324.8713074
vertex -87.61482239 10.24950409 324.9334412

endloop
endfacet
facet normal 0.284673363 0.4170120656 -0.8631697893
outer loop
vertex -87.65429688 10.05953217 324.8286438
vertex -87.61482239 10.24950409 324.9334412
vertex -87.25904083 9.944725037 324.9035339

endloop
endfacet
facet normal 0.2897173166 0.4224737287 -0.8588246703
outer loop
vertex -87.25904083 9.944725037 324.9035339
vertex -87.61482239 10.24950409 324.9334412
vertex -87.22257996 10.1346817 325.0092773

endloop
endfacet
facet normal 0.3009105623 0.4191010296 -0.8566254973
outer loop
vertex -87.25904083 9.944725037 324.9035339
vertex -87.22257996 10.1346817 325.0092773
vertex -86.86484528 9.828117371 324.9849548

endloop
endfacet
facet normal 0.3038525581 0.4223257303 -0.8539991379
outer loop
vertex -86.86484528 9.828117371 324.9849548
vertex -87.22257996 10.1346817 325.0092773
vertex -86.82980347 10.01796722 325.0913086

endloop
endfacet
facet normal 0.3190768361 0.4176812768 -0.8507246375
outer loop
vertex -86.86484528 9.828117371 324.9849548
vertex -86.82980347 10.01796722 325.0913086
vertex -86.47437286 9.71219635 325.0744934

endloop
endfacet
facet normal 0.323412776 0.4224999845 -0.8466982841
outer loop
vertex -86.47437286 9.71219635 325.0744934
vertex -86.82980347 10.01796722 325.0913086
vertex -86.44133759 9.901817322 325.1817322

endloop
endfacet
facet normal 0.3421387076 0.4166799188 -0.84221071
outer loop
vertex -86.47436523 9.712181091 325.0744934
vertex -86.44133759 9.901817322 325.1817322
vertex -86.08370209 9.593788147 325.1746216

endloop
endfacet
facet normal 0.3466043472 0.4217638671 -0.8378428817
outer loop
vertex -86.08370209 9.593788147 325.1746216
vertex -86.44133759 9.901817322 325.1817322
vertex -86.05209351 9.782905579 325.2828979

endloop
endfacet
facet normal 0.3617807925 0.4169330299 -0.833835423
outer loop
vertex -86.08370209 9.593788147 325.1746216
vertex -86.05209351 9.782905579 325.2828979
vertex -85.69594574 9.473930359 325.2829285

endloop
endfacet
facet normal 0.3666450083 0.4225403965 -0.8288734555
outer loop
vertex -85.69594574 9.473930359 325.2829285
vertex -86.05209351 9.782905579 325.2828979
vertex -85.66468811 9.661003113 325.3921204

endloop
endfacet
facet normal 0.3744978607 0.4199585617 -0.8266718388
outer loop
vertex -85.69593811 9.473945618 325.2829285
vertex -85.66468811 9.661018372 325.3921204
vertex -85.3082962 9.360206604 325.4007568

endloop
endfacet
facet normal 0.3823240101 0.4294752479 -0.8181560636
outer loop
vertex -85.3082962 9.360206604 325.4007568
vertex -85.66468811 9.661018372 325.3921204
vertex -85.27687836 9.540657043 325.5101624

endloop
endfacet
facet normal 0.37653777 0.431471765 -0.8197874427
outer loop
vertex -85.3082962 9.360206604 325.4007568
vertex -85.27687836 9.540657043 325.5101624
vertex -84.91784668 9.260154724 325.5274353

endloop
endfacet
facet normal 0.3813206553 0.4379423559 -0.8141259551
outer loop
vertex -84.91784668 9.260154724 325.5274353
vertex -85.27687836 9.540657043 325.5101624
vertex -84.88414001 9.435493469 325.6375427

endloop
endfacet
facet normal 0.3720416427 0.4412859678 -0.8166098595
outer loop
vertex -84.91784668 9.260154724 325.5274353
vertex -84.88414001 9.435493469 325.6375427
vertex -84.52593231 9.17375946 325.6593018

endloop
endfacet
facet normal 0.3695130646 0.4375638962 -0.8197548389
outer loop
vertex -84.52593231 9.17375946 325.6593018
vertex -84.88414001 9.435493469 325.6375427
vertex -84.48679352 9.351448059 325.7717896

endloop
endfacet
facet normal 0.3810999691 0.4331380129 -0.8167951107
outer loop
vertex -84.52593231 9.17375946 325.6593018
vertex -84.48679352 9.351448059 325.7717896
vertex -84.13693237 9.075904846 325.7889099

endloop
endfacet
facet normal 0.375980407 0.4262670279 -0.8227607012
outer loop
vertex -84.13693237 9.075904846 325.7889099
vertex -84.48679352 9.351448059 325.7717896
vertex -84.09082031 9.257240295 325.9039307

endloop
endfacet
facet normal 0.4101475179 0.4118771851 -0.8137174845
outer loop
vertex -84.13692474 9.075935364 325.7889404
vertex -84.09081268 9.257255554 325.9039612
vertex -83.75816345 8.926063538 325.9039917

endloop
endfacet
facet normal 0.405938834 0.4076495767 -0.817945838
outer loop
vertex -83.75816345 8.926063538 325.9039917
vertex -84.09081268 9.257255554 325.9039612
vertex -83.70497131 9.105903625 326.0200195

endloop
endfacet
facet normal 0.4234246314 0.3993809223 -0.8131459951
outer loop
vertex -83.75816345 8.926063538 325.9039917
vertex -83.70497131 9.105903625 326.0200195
vertex -83.39941406 8.750511169 326.0045776

endloop
endfacet
facet normal 0.4191407561 0.3958684504 -0.8170735836
outer loop
vertex -83.39941406 8.750511169 326.0045776
vertex -83.70497131 9.105903625 326.0200195
vertex -83.34132385 8.92855072 326.120636

endloop
endfacet
facet normal 0.4251873493 0.3928177357 -0.8154201508
outer loop
vertex -83.39941406 8.750511169 326.0045776
vertex -83.34132385 8.92855072 326.120636
vertex -83.10116577 8.585868835 326.08078

endloop
endfacet
facet normal 0.4042036831 0.3800379634 -0.8319798112
outer loop
vertex -83.10116577 8.585868835 326.08078
vertex -83.34132385 8.92855072 326.120636
vertex -83.03554535 8.763069153 326.1936035

endloop
endfacet
facet normal 0.4293265641 0.3665566146 -0.8254180551
outer loop
vertex -83.10116577 8.585868835 326.08078
vertex -83.03554535 8.763069153 326.1936035
vertex -82.95672607 8.473045349 326.1058044

endloop
endfacet
facet normal 0.3211111128 0.353272438 -0.8786843419
outer loop
vertex -82.95672607 8.473045349 326.1058044
vertex -83.03554535 8.763069153 326.1936035
vertex -82.87098694 8.647193909 326.2071533

endloop
endfacet
facet normal 0.3995995224 0.3061223328 -0.8640655875
outer loop
vertex -82.95672607 8.473045349 326.1058044
vertex -82.87098694 8.647193909 326.2071533
vertex -82.82958984 8.375740051 326.130127

endloop
endfacet
facet normal 0.3406808972 0.3043680787 -0.8895485401
outer loop
vertex -82.82958984 8.375740051 326.130127
vertex -82.87098694 8.647193909 326.2071533
vertex -82.73440552 8.539894104 326.2227478

endloop
endfacet
facet normal 0.3733463287 0.282188803 -0.883731842
outer loop
vertex -82.82958221 8.37575531 326.130127
vertex -82.73440552 8.539894104 326.2227478
vertex -82.59516907 8.207542419 326.1754456

endloop
endfacet
facet normal 0.3798491955 0.2844161093 -0.8802397251
outer loop
vertex -82.59516907 8.207542419 326.1754456
vertex -82.73440552 8.539894104 326.2227478
vertex -82.5089035 8.365760803 326.2637939

endloop
endfacet
facet normal 0.9026927352 -0.3644370139 -0.2287608981
outer loop
vertex -82.59516907 8.207542419 326.1754456
vertex -82.5089035 8.365760803 326.2637939
vertex -82.5499115 8.031150818 326.6350403

endloop
endfacet
facet normal 0.8875845671 -0.386626184 -0.2504271269
outer loop
vertex -82.5499115 8.031150818 326.6350403
vertex -82.5089035 8.365760803 326.2637939
vertex -82.54989624 8.031166077 326.6350708

endloop
endfacet
facet normal -nan(ind) -nan(ind) -nan(ind)
outer loop
vertex -88.94429779 10.32198334 325.1013184
vertex -88.94429779 10.32198334 325.1013184
vertex -88.62849426 10.51274872 324.7961426

endloop
endfacet
facet normal -0.7276984453 0.5508164167 -0.4087251723
outer loop
vertex -88.62849426 10.51274872 324.7961426
vertex -88.94429779 10.32198334 325.1013184
vertex -88.62368774 10.6515274 324.9746094

endloop
endfacet
facet normal 0.248017028 0.7615010738 -0.5988352895
outer loop
vertex -88.62849426 10.51274872 324.7961426
vertex -88.62368774 10.6515274 324.9746094
vertex -88.33430481 10.45201874 324.8407593

endloop
endfacet
facet normal 0.2663171291 0.7727847695 -0.5760893226
outer loop
vertex -88.33430481 10.45201874 324.8407593
vertex -88.62368774 10.6515274 324.9746094
vertex -88.32286835 10.59178925 325.0335388

endloop
endfacet
facet normal 0.2601996064 0.7743119001 -0.5768337846
outer loop
vertex -88.33430481 10.45201874 324.8407593
vertex -88.32286835 10.59178925 325.0335388
vertex -87.99368286 10.36031342 324.8713074

endloop
endfacet
facet normal 0.2581564784 0.7731440663 -0.5793130398
outer loop
vertex -87.99368286 10.36031342 324.8713074
vertex -88.32286835 10.59178925 325.0335388
vertex -87.97854614 10.50556183 325.0718994

endloop
endfacet
facet normal 0.3152830601 0.7571874857 -0.5720697045
outer loop
vertex -87.99368286 10.36031342 324.8713074
vertex -87.97854614 10.50556183 325.0718994
vertex -87.61482239 10.24950409 324.9334412

endloop
endfacet
facet normal 0.3196809292 0.7600463033 -0.565803647
outer loop
vertex -87.61482239 10.24950409 324.9334412
vertex -87.97854614 10.50556183 325.0718994
vertex -87.6049118 10.39493561 325.1343994

endloop
endfacet
facet normal 0.3305632174 0.7567552924 -0.5639587045
outer loop
vertex -87.61482239 10.24950409 324.9334412
vertex -87.6049118 10.39493561 325.1343994
vertex -87.22257996 10.1346817 325.0092773

endloop
endfacet
facet normal 0.3349523544 0.7599031329 -0.5570943356
outer loop
vertex -87.22257996 10.1346817 325.0092773
vertex -87.6049118 10.39493561 325.1343994
vertex -87.21813202 10.28011322 325.2103271

endloop
endfacet
facet normal 0.3413237929 0.7579806447 -0.5558446646
outer loop
vertex -87.22257996 10.1346817 325.0092773
vertex -87.21813202 10.28011322 325.2103271
vertex -86.82980347 10.01796722 325.0913086

endloop
endfacet
facet normal 0.3439527154 0.7599259615 -0.5515515804
outer loop
vertex -86.82980347 10.01796722 325.0913086
vertex -87.21813202 10.28011322 325.2103271
vertex -86.82835388 10.16327667 325.2924194

endloop
endfacet
facet normal 0.3541611433 0.7568086982 -0.5493728518
outer loop
vertex -86.82980347 10.01796722 325.0913086
vertex -86.82835388 10.16327667 325.2924194
vertex -86.44133759 9.901817322 325.1817322

endloop
endfacet
facet normal 0.3578445911 0.7596027851 -0.5430938005
outer loop
vertex -86.44133759 9.901817322 325.1817322
vertex -86.82835388 10.16327667 325.2924194
vertex -86.4442749 10.04698944 325.382843

endloop
endfacet
facet normal 0.3711206615 0.7555193901 -0.5398702621
outer loop
vertex -86.44133759 9.901817322 325.1817322
vertex -86.4442749 10.04698944 325.3828735
vertex -86.05209351 9.782905579 325.2828979

endloop
endfacet
facet normal 0.3750711679 0.758664608 -0.5326814651
outer loop
vertex -86.05209351 9.782905579 325.2828979
vertex -86.4442749 10.04698944 325.3828735
vertex -86.05899811 9.927589417 325.4841003

endloop
endfacet
facet normal 0.3868496418 0.7549126744 -0.5295792818
outer loop
vertex -86.05209351 9.782905579 325.2828979
vertex -86.05899811 9.927589417 325.4841003
vertex -85.66468811 9.661003113 325.3921204

endloop
endfacet
facet normal 0.3918431401 0.7589908242 -0.5199922919
outer loop
vertex -85.66468811 9.661003113 325.3921204
vertex -86.05899811 9.927589417 325.4841003
vertex -85.67430878 9.803794861 325.5932922

endloop
endfacet
facet normal 0.3935189247 0.7584932446 -0.5194525719
outer loop
vertex -85.66468811 9.661018372 325.3921204
vertex -85.67429352 9.803794861 325.5933228
vertex -85.27687836 9.540657043 325.5101624

endloop
endfacet
facet normal 0.4017877579 0.7655986547 -0.502419591
outer loop
vertex -85.27687836 9.540657043 325.5101624
vertex -85.67429352 9.803794861 325.5933228
vertex -85.2882309 9.678352356 325.710907

endloop
endfacet
facet normal 0.3730146587 0.7748353481 -0.5103824139
outer loop
vertex -85.27687836 9.540657043 325.5101624
vertex -85.2882309 9.678352356 325.710907
vertex -84.88414001 9.435493469 325.6375427

endloop
endfacet
facet normal 0.3769891858 0.7787451148 -0.5014331937
outer loop
vertex -84.88414001 9.435493469 325.6375427
vertex -85.2882309 9.678352356 325.710907
vertex -84.89457703 9.57006073 325.8386841

endloop
endfacet
facet normal 0.339621067 0.7897953391 -0.5107649565
outer loop
vertex -84.88414001 9.435493469 325.6375427
vertex -84.89457703 9.57006073 325.8386841
vertex -84.48679352 9.351448059 325.7717896

endloop
endfacet
facet normal 0.3361482322 0.7858579755 -0.5190680623
outer loop
vertex -84.48679352 9.351448059 325.7717896
vertex -84.89457703 9.57006073 325.8386841
vertex -84.49299622 9.488166809 325.974762

endloop
endfacet
facet normal 0.3571317196 0.7797186375 -0.5142914653
outer loop
vertex -84.48679352 9.351448059 325.7717896
vertex -84.49299622 9.488166809 325.974762
vertex -84.09082031 9.257240295 325.9039307

endloop
endfacet
facet normal 0.352807641 0.7751796246 -0.5240451097
outer loop
vertex -84.09082031 9.257240295 325.9039307
vertex -84.49299622 9.488166809 325.974762
vertex -84.09114075 9.395942688 326.1088867

endloop
endfacet
facet normal 0.4424932301 0.7430266142 -0.5021067858
outer loop
vertex -84.09081268 9.257255554 325.9039612
vertex -84.09112549 9.395942688 326.1089172
vertex -83.70497131 9.105903625 326.0200195

endloop
endfacet
facet normal 0.4392571747 0.7406522036 -0.5084165931
outer loop
vertex -83.70497131 9.105903625 326.0200195
vertex -84.09112549 9.395942688 326.1089172
vertex -83.69821167 9.243507385 326.2263184

endloop
endfacet
facet normal 0.4876616597 0.7188309431 -0.4954476058
outer loop
vertex -83.70497131 9.105903625 326.0200195
vertex -83.69821167 9.243507385 326.2263184
vertex -83.34132385 8.92855072 326.120636

endloop
endfacet
facet normal 0.4843710661 0.717043221 -0.5012321472
outer loop
vertex -83.34132385 8.92855072 326.120636
vertex -83.69821167 9.243507385 326.2263184
vertex -83.32902527 9.064856529 326.3275146

endloop
endfacet
facet normal 0.5017967224 0.7082958817 -0.4965047538
outer loop
vertex -83.34132385 8.92855072 326.120636
vertex -83.32902527 9.064856529 326.3275146
vertex -83.03554535 8.763069153 326.1936035

endloop
endfacet
facet normal 0.4847945571 0.7025891542 -0.5209056735
outer loop
vertex -83.03554535 8.763069153 326.1936035
vertex -83.32902527 9.064856529 326.3275146
vertex -83.01121521 8.898735046 326.399231

endloop
endfacet
facet normal 0.5223997831 0.6820317507 -0.5117921233
outer loop
vertex -83.03554535 8.763069153 326.1936035
vertex -83.01121521 8.898735046 326.399231
vertex -82.87098694 8.647193909 326.2071533

endloop
endfacet
facet normal 0.4300141633 0.6870071888 -0.5857549906
outer loop
vertex -82.87098694 8.647193909 326.2071533
vertex -83.01121521 8.898735046 326.399231
vertex -82.81400299 8.780525208 326.405365

endloop
endfacet
facet normal 0.5469133854 0.6133490801 -0.5698146224
outer loop
vertex -82.87098694 8.647193909 326.2071533
vertex -82.81400299 8.780525208 326.405365
vertex -82.73440552 8.539894104 326.2227478

endloop
endfacet
facet normal 0.491663307 0.6237581968 -0.6076124907
outer loop
vertex -82.73440552 8.539894104 326.2227478
vertex -82.81400299 8.780525208 326.405365
vertex -82.66204834 8.665596008 326.4103394

endloop
endfacet
facet normal 0.5544508696 0.5765469074 -0.6001482606
outer loop
vertex -82.73440552 8.539894104 326.2227478
vertex -82.66204834 8.66558075 326.4103394
vertex -82.5089035 8.365760803 326.2637939

endloop
endfacet
facet normal 0.5779275894 0.5771909356 -0.5769318938
outer loop
vertex -82.5089035 8.365760803 326.2637939
vertex -82.66204834 8.66558075 326.4103394
vertex -82.45267487 8.489463806 326.4438782

endloop
endfacet
facet normal 0.9588930607 -0.255189985 -0.1241057143
outer loop
vertex -82.5089035 8.365760803 326.2637939
vertex -82.45267487 8.489463806 326.4438782
vertex -82.54989624 8.031166077 326.6350708

endloop
endfacet
facet normal -nan(ind) -nan(ind) -nan(ind)
outer loop
vertex -82.54989624 8.031166077 326.6350708
vertex -82.45267487 8.489463806 326.4438782
vertex -82.54989624 8.031166077 326.6350708

endloop
endfacet
facet normal 0.709312439 -0.4984354675 0.4984354675
outer loop
vertex -88.94429779 10.32198334 325.1013184
vertex -88.94429779 10.32195282 325.1012878
vertex -88.62368774 10.6515274 324.9746094

endloop
endfacet
facet normal -0.740172565 0.6347472668 -0.221901983
outer loop
vertex -88.62368774 10.6515274 324.9746094
vertex -88.94429779 10.32195282 325.1012878
vertex -88.66233063 10.69356537 325.2237549

endloop
endfacet
facet normal 0.2174865603 0.9674342871 -0.1295012534
outer loop
vertex -88.62368774 10.6515274 324.9746094
vertex -88.66233063 10.69356537 325.2237549
vertex -88.32286835 10.59178925 325.0335388

endloop
endfacet
facet normal 0.2279164046 0.9673509598 -0.11084342
outer loop
vertex -88.32286835 10.59178925 325.0335388
vertex -88.66233063 10.69356537 325.2237549
vertex -88.35366058 10.6294632 325.2990112

endloop
endfacet
facet normal 0.2527427375 0.9615825415 -0.1071452126
outer loop
vertex -88.32286835 10.59178925 325.0335388
vertex -88.35366058 10.6294632 325.2990112
vertex -87.97854614 10.50556183 325.0718994

endloop
endfacet
facet normal 0.2507277429 0.9617245197 -0.1105507985
outer loop
vertex -87.97854614 10.50556183 325.0718994
vertex -88.35366058 10.6294632 325.2990112
vertex -88.00634003 10.54463959 325.3488159

endloop
endfacet
facet normal 0.2983081937 0.9487921 -0.103950195
outer loop
vertex -87.97854614 10.50556183 325.0718994
vertex -88.00634003 10.54463959 325.3488159
vertex -87.6049118 10.39493561 325.1343994

endloop
endfacet
facet normal 0.3022200465 0.9483588934 -0.09632394463
outer loop
vertex -87.6049118 10.39493561 325.1343994
vertex -88.00634003 10.54463959 325.3488159
vertex -87.6395874 10.43404388 325.4106445

endloop
endfacet
facet normal 0.3006393909 0.9488342404 -0.09658966213
outer loop
vertex -87.6049118 10.39493561 325.1343994
vertex -87.6395874 10.43404388 325.4106445
vertex -87.21813202 10.28011322 325.2103271

endloop
endfacet
facet normal 0.3044080138 0.9484351873 -0.08835407346
outer loop
vertex -87.21813202 10.28011322 325.2103271
vertex -87.6395874 10.43404388 325.4106445
vertex -87.26006317 10.31920624 325.4855042

endloop
endfacet
facet normal 0.3030783236 0.9488367438 -0.08861374855
outer loop
vertex -87.21813202 10.28011322 325.2103271
vertex -87.26006317 10.31920624 325.4855042
vertex -86.82835388 10.16327667 325.2924194

endloop
endfacet
facet normal 0.3051711023 0.9486076832 -0.08374975622
outer loop
vertex -86.82835388 10.16327667 325.2924194
vertex -87.26006317 10.31920624 325.4855042
vertex -86.8746109 10.20238495 325.5668335

endloop
endfacet
facet normal 0.3067081273 0.9481405616 -0.08342407644
outer loop
vertex -86.82835388 10.16327667 325.2924194
vertex -86.8746109 10.20238495 325.5668335
vertex -86.4442749 10.04698944 325.382843

endloop
endfacet
facet normal 0.309876889 0.9477590919 -0.07569050789
outer loop
vertex -86.4442749 10.04698944 325.382843
vertex -86.8746109 10.20238495 325.5668335
vertex -86.49695587 10.08603668 325.6560974

endloop
endfacet
facet normal 0.313097924 0.9467593431 -0.07494338602
outer loop
vertex -86.4442749 10.04698944 325.3828735
vertex -86.49695587 10.08603668 325.6560669
vertex -86.05899811 9.927589417 325.4841003

endloop
endfacet
facet normal 0.3161820471 0.9463500977 -0.06671181321
outer loop
vertex -86.05899811 9.927589417 325.4841003
vertex -86.49695587 10.08603668 325.6560669
vertex -86.11803436 9.96648407 325.7560425

endloop
endfacet
facet normal 0.322376281 0.9443715215 -0.06508412212
outer loop
vertex -86.05899811 9.927589417 325.4841003
vertex -86.11803436 9.96648407 325.7560425
vertex -85.67430878 9.803794861 325.5932922

endloop
endfacet
facet normal 0.3254798055 0.9438813925 -0.05613254383
outer loop
vertex -85.67430878 9.803794861 325.5932922
vertex -86.11803436 9.96648407 325.7560425
vertex -85.73848724 9.842018127 325.8638916

endloop
endfacet
facet normal 0.3240725696 0.9443392158 -0.05657235533
outer loop
vertex -85.67429352 9.803794861 325.5933228
vertex -85.73848724 9.842033386 325.8638916
vertex -85.2882309 9.678352356 325.710907

endloop
endfacet
facet normal 0.3279155493 0.9436569214 -0.04453180358
outer loop
vertex -85.2882309 9.678352356 325.710907
vertex -85.73848724 9.842033386 325.8638916
vertex -85.35638428 9.714744568 325.9802246

endloop
endfacet
facet normal 0.2822439671 0.9575894475 -0.05797213316
outer loop
vertex -85.2882309 9.678352356 325.710907
vertex -85.35638428 9.714744568 325.9802246
vertex -84.89457703 9.57006073 325.8386841

endloop
endfacet
facet normal 0.2852970958 0.9572530985 -0.04766682908
outer loop
vertex -84.89457703 9.57006073 325.8386841
vertex -85.35638428 9.714744568 325.9802246
vertex -84.96453857 9.604286194 326.1072693

endloop
endfacet
facet normal 0.2209406942 0.9730216265 -0.06643985957
outer loop
vertex -84.89457703 9.57006073 325.8386841
vertex -84.96453857 9.604286194 326.1072693
vertex -84.49299622 9.488166809 325.974762

endloop
endfacet
facet normal 0.221415177 0.9730271697 -0.06475631893
outer loop
vertex -84.49299622 9.488166809 325.974762
vertex -84.96453857 9.604286194 326.1072693
vertex -84.56216431 9.52179718 326.2435913

endloop
endfacet
facet normal 0.241930142 0.9685035944 -0.05891205743
outer loop
vertex -84.49299622 9.488166809 325.974762
vertex -84.56216431 9.52179718 326.2435913
vertex -84.09114075 9.395942688 326.1088867

endloop
endfacet
facet normal 0.2397999465 0.9685487151 -0.06640288979
outer loop
vertex -84.09114075 9.395942688 326.1088867
vertex -84.56216431 9.52179718 326.2435913
vertex -84.1572113 9.430809021 326.3788452

endloop
endfacet
facet normal 0.369224906 0.9288668633 -0.0296544116
outer loop
vertex -84.09112549 9.395942688 326.1089172
vertex -84.15719604 9.43082428 326.3788757
vertex -83.69821167 9.243507385 326.2263184

endloop
endfacet
facet normal 0.3653434515 0.9298976064 -0.04259775952
outer loop
vertex -83.69821167 9.243507385 326.2263184
vertex -84.15719604 9.43082428 326.3788757
vertex -83.75889587 9.279792786 326.4979553

endloop
endfacet
facet normal 0.4402635694 0.8976100087 -0.02154748701
outer loop
vertex -83.69821167 9.243507385 326.2263184
vertex -83.75889587 9.279792786 326.4979553
vertex -83.32902527 9.064856529 326.3275146

endloop
endfacet
facet normal 0.4370934963 0.8988767862 -0.03114015423
outer loop
vertex -83.32902527 9.064856529 326.3275146
vertex -83.75889587 9.279792786 326.4979553
vertex -83.38490295 9.101478577 326.6003113

endloop
endfacet
facet normal 0.4671824574 0.8838627338 -0.02296138555
outer loop
vertex -83.32902527 9.064856529 326.3275146
vertex -83.38490295 9.101478577 326.6003113
vertex -83.01121521 8.898735046 326.399231

endloop
endfacet
facet normal 0.4554087818 0.8888826966 -0.04990298301
outer loop
vertex -83.01121521 8.898735046 326.399231
vertex -83.38490295 9.101478577 326.6003113
vertex -83.05234528 8.93523407 326.6740112

endloop
endfacet
facet normal 0.5146133304 0.8566340804 -0.03675746173
outer loop
vertex -83.01121521 8.898735046 326.399231
vertex -83.05234528 8.93523407 326.6740112
vertex -82.81400299 8.780525208 326.405365

endloop
endfacet
facet normal 0.446870476 0.887242794 -0.1144858971
outer loop
vertex -82.81400299 8.780525208 326.405365
vertex -83.05234528 8.93523407 326.6740112
vertex -82.8146286 8.816383362 326.6808167

endloop
endfacet
facet normal 0.6022181511 0.7918257117 -0.1017116904
outer loop
vertex -82.81400299 8.780525208 326.405365
vertex -82.8146286 8.816383362 326.6808167
vertex -82.66204834 8.665596008 326.4103394

endloop
endfacet
facet normal 0.555496037 0.8190845251 -0.1432647556
outer loop
vertex -82.66204834 8.665596008 326.4103394
vertex -82.8146286 8.816383362 326.6808167
vertex -82.64354706 8.699455261 326.6756592

endloop
endfacet
facet normal 0.6504120827 0.7464498281 -0.1406302154
outer loop
vertex -82.66204834 8.66558075 326.4103394
vertex -82.64354706 8.699440002 326.6756287
vertex -82.45267487 8.489463806 326.4438782

endloop
endfacet
facet normal 0.6812451482 0.7256782651 -0.09641584754
outer loop
vertex -82.45267487 8.489463806 326.4438782
vertex -82.64354706 8.699440002 326.6756287
vertex -82.45596313 8.526054382 326.6960449

endloop
endfacet
facet normal 0.9807257056 -0.1911411881 0.04052420333
outer loop
vertex -82.45267487 8.489463806 326.4438782
vertex -82.45596313 8.526054382 326.6960449
vertex -82.54989624 8.031166077 326.6350708

endloop
endfacet
facet normal 0.3630736172 -0.1817187071 0.9138686657
outer loop
vertex -82.54989624 8.031166077 326.6350708
vertex -82.45596313 8.526054382 326.6960449
vertex -82.54990387 8.031150818 326.6350708

endloop
endfacet
facet normal 0.3983775973 0 -0.9172214866
outer loop
vertex -88.94429779 10.32195282 325.1012878
vertex -88.94429779 10.32196808 325.1012878
vertex -88.66233063 10.69356537 325.2237549

endloop
endfacet
facet normal -0.7905151248 0.6114318967 -0.03516962379
outer loop
vertex -88.66233063 10.69356537 325.2237549
vertex -88.94429779 10.32196808 325.1012878
vertex -88.73196411 10.61657047 325.4503479

endloop
endfacet
facet normal 0.1080790088 0.9306974411 0.3494585454
outer loop
vertex -88.66233063 10.69356537 325.2237549
vertex -88.73196411 10.61657047 325.4503479
vertex -88.35366058 10.6294632 325.2990112

endloop
endfacet
facet normal 0.1066376194 0.9321620464 0.345980227
outer loop
vertex -88.35366058 10.6294632 325.2990112
vertex -88.73196411 10.61657047 325.4503479
vertex -88.41574097 10.54836273 325.5366516

endloop
endfacet
facet normal 0.172707513 0.9175156355 0.3582417071
outer loop
vertex -88.35366058 10.6294632 325.2990112
vertex -88.41574097 10.54836273 325.5366516
vertex -88.00634003 10.54463959 325.3488159

endloop
endfacet
facet normal 0.1709026396 0.919393599 0.3542706072
outer loop
vertex -88.00634003 10.54463959 325.3488159
vertex -88.41574097 10.54836273 325.5366516
vertex -88.06723785 10.46027374 325.5971375

endloop
endfacet
facet normal 0.2130037695 0.9080209732 0.3607315719
outer loop
vertex -88.00634003 10.54463959 325.3488159
vertex -88.06723785 10.46027374 325.5971375
vertex -87.6395874 10.43404388 325.4106445

endloop
endfacet
facet normal 0.2159134448 0.904448092 0.3679063916
outer loop
vertex -87.6395874 10.43404388 325.4106445
vertex -88.06723785 10.46027374 325.5971375
vertex -87.7064209 10.34957123 325.6575317

endloop
endfacet
facet normal 0.2027331889 0.9083898664 0.3656871617
outer loop
vertex -87.6395874 10.43404388 325.4106445
vertex -87.7064209 10.34957123 325.6575317
vertex -87.26006317 10.31920624 325.4855042

endloop
endfacet
facet normal 0.2053454816 0.9047806263 0.3731023073
outer loop
vertex -87.26006317 10.31920624 325.4855042
vertex -87.7064209 10.34957123 325.6575317
vertex -87.33319855 10.2347641 325.7305298

endloop
endfacet
facet normal 0.1966461688 0.907405436 0.3714103103
outer loop
vertex -87.26006317 10.31920624 325.4855042
vertex -87.33319855 10.2347641 325.7305298
vertex -86.8746109 10.20238495 325.5668335

endloop
endfacet
facet normal 0.1981700808 0.9051268697 0.3761301637
outer loop
vertex -86.8746109 10.20238495 325.5668335
vertex -87.33319855 10.2347641 325.7305298
vertex -86.95176697 10.11798859 325.8105774

endloop
endfacet
facet normal 0.1909788549 0.9073019624 0.3746069372
outer loop
vertex -86.8746109 10.20238495 325.5668335
vertex -86.95176697 10.11798859 325.8105774
vertex -86.49695587 10.08603668 325.6560974

endloop
endfacet
facet normal 0.1931526959 0.9038718939 0.3817165792
outer loop
vertex -86.49695587 10.08603668 325.6560974
vertex -86.95176697 10.11798859 325.8105774
vertex -86.58016205 10.00173187 325.8978271

endloop
endfacet
facet normal 0.1856786311 0.9061997533 0.3799019754
outer loop
vertex -86.49695587 10.08603668 325.6560669
vertex -86.58015442 10.00173187 325.8978271
vertex -86.11803436 9.96648407 325.7560425

endloop
endfacet
facet normal 0.18767263 0.9026584029 0.387281388
outer loop
vertex -86.11803436 9.96648407 325.7560425
vertex -86.58015442 10.00173187 325.8978271
vertex -86.20760345 9.882362366 325.9955139

endloop
endfacet
facet normal 0.1862239391 0.9031209946 0.3869020641
outer loop
vertex -86.11803436 9.96648407 325.7560425
vertex -86.20760345 9.882362366 325.9955139
vertex -85.73848724 9.842018127 325.8638916

endloop
endfacet
facet normal 0.1878176183 0.8999049664 0.3935678899
outer loop
vertex -85.73848724 9.842018127 325.8638916
vertex -86.20760345 9.882362366 325.9955139
vertex -85.83380127 9.758140564 326.1011658

endloop
endfacet
facet normal 0.1812681407 0.9020819664 0.3916503191
outer loop
vertex -85.73848724 9.842033386 325.8638916
vertex -85.83379364 9.758155823 326.1011963
vertex -85.35638428 9.714744568 325.9802246

endloop
endfacet
facet normal 0.1830275357 0.8980331421 0.4000466168
outer loop
vertex -85.35638428 9.714744568 325.9802246
vertex -85.83379364 9.758155823 326.1011963
vertex -85.45691681 9.630500793 326.215332

endloop
endfacet
facet normal 0.1329675615 0.9136145711 0.384223938
outer loop
vertex -85.35638428 9.714744568 325.9802246
vertex -85.45691681 9.630500793 326.215332
vertex -84.96453857 9.604286194 326.1072693

endloop
endfacet
facet normal 0.1365814656 0.9050548673 0.4027668238
outer loop
vertex -84.96453857 9.604286194 326.1072693
vertex -85.45691681 9.630500793 326.215332
vertex -85.06969452 9.516532898 326.3401184

endloop
endfacet
facet normal 0.06199370325 0.9243928194 0.3763704002
outer loop
vertex -84.96453857 9.604286194 326.1072693
vertex -85.06969452 9.516532898 326.3401184
vertex -84.56216431 9.52179718 326.2435913

endloop
endfacet
facet normal 0.06631935388 0.914729476 0.3985872269
outer loop
vertex -84.56216431 9.52179718 326.2435913
vertex -85.06969452 9.516532898 326.3401184
vertex -84.67069244 9.42905426 326.4744873

endloop
endfacet
facet normal 0.07147948444 0.9134967923 0.4005175531
outer loop
vertex -84.56216431 9.52179718 326.2435913
vertex -84.67069244 9.42905426 326.4744873
vertex -84.1572113 9.430809021 326.3788452

endloop
endfacet
facet normal 0.07094059885 0.9147914648 0.3976481557
outer loop
vertex -84.1572113 9.430809021 326.3788452
vertex -84.67069244 9.42905426 326.4744873
vertex -84.26652527 9.338905334 326.6097717

endloop
endfacet
facet normal 0.199300617 0.8743960857 0.442392081
outer loop
vertex -84.15719604 9.43082428 326.3788757
vertex -84.26651001 9.338920593 326.6097717
vertex -83.75889587 9.279792786 326.4979553

endloop
endfacet
facet normal 0.194239974 0.8908264637 0.4107299447
outer loop
vertex -83.75889587 9.279792786 326.4979553
vertex -84.26651001 9.338920593 326.6097717
vertex -83.86574554 9.195549011 326.7312012

endloop
endfacet
facet normal 0.2860824168 0.8518640399 0.4387304783
outer loop
vertex -83.75889587 9.279792786 326.4979553
vertex -83.86574554 9.195549011 326.7312012
vertex -83.38490295 9.101478577 326.6003113

endloop
endfacet
facet normal 0.2827493846 0.8631387949 0.4183828533
outer loop
vertex -83.38490295 9.101478577 326.6003113
vertex -83.86574554 9.195549011 326.7312012
vertex -83.48899078 9.021614075 326.8354187

endloop
endfacet
facet normal 0.3255802095 0.8419959545 0.4301630557
outer loop
vertex -83.38490295 9.101478577 326.6003113
vertex -83.48899078 9.021614075 326.8354187
vertex -83.05234528 8.93523407 326.6740112

endloop
endfacet
facet normal 0.3190736473 0.8570759296 0.4044908583
outer loop
vertex -83.05234528 8.93523407 326.6740112
vertex -83.48899078 9.021614075 326.8354187
vertex -83.14445496 8.856407166 326.9136963

endloop
endfacet
facet normal 0.3960425556 0.8162216544 0.4206335247
outer loop
vertex -83.05234528 8.93523407 326.6740112
vertex -83.14445496 8.856407166 326.9136963
vertex -82.8146286 8.816383362 326.6808167

endloop
endfacet
facet normal 0.355186224 0.8650177717 0.354382515
outer loop
vertex -82.8146286 8.816383362 326.6808167
vertex -83.14445496 8.856407166 326.9136963
vertex -82.87380219 8.738960266 326.9291077

endloop
endfacet
facet normal 0.532800436 0.7634573579 0.3650431931
outer loop
vertex -82.8146286 8.816383362 326.6808167
vertex -82.87380219 8.738960266 326.9291077
vertex -82.64354706 8.699455261 326.6756592

endloop
endfacet
facet normal 0.5011152029 0.7997411489 0.3306019604
outer loop
vertex -82.64354706 8.699455261 326.6756592
vertex -82.87380219 8.738960266 326.9291077
vertex -82.68714142 8.626502991 326.9182129

endloop
endfacet
facet normal 0.6223558187 0.7116878033 0.3258428276
outer loop
vertex -82.64354706 8.699440002 326.6756287
vertex -82.68714905 8.626502991 326.9182129
vertex -82.45596313 8.526054382 326.6960449

endloop
endfacet
facet normal 0.6508145332 0.6572602391 0.3800650537
outer loop
vertex -82.45596313 8.526054382 326.6960449
vertex -82.68714905 8.626502991 326.9182129
vertex -82.52085114 8.45728302 326.9260864

endloop
endfacet
facet normal 0.956012547 -0.2070637196 0.2077611536
outer loop
vertex -82.45596313 8.526054382 326.6960449
vertex -82.52085114 8.45728302 326.9260864
vertex -82.54990387 8.031150818 326.6350708

endloop
endfacet
facet normal -0.9950537086 0 0.09933841228
outer loop
vertex -82.54990387 8.031150818 326.6350708
vertex -82.52085114 8.45728302 326.9260864
vertex -82.54990387 8.031166077 326.6350708

endloop
endfacet
facet normal -nan(ind) -nan(ind) -nan(ind)
outer loop
vertex -88.94429779 10.32196808 325.1012878
vertex -88.94429779 10.32196808 325.1012878
vertex -88.73196411 10.61657047 325.4503479

endloop
endfacet
facet normal -0.8616309762 0.4965436757 0.1050544977
outer loop
vertex -88.73196411 10.61657047 325.4503479
vertex -88.94429779 10.32196808 325.1012878
vertex -88.80831909 10.45516205 325.5870056

endloop
endfacet
facet normal -0.06123292446 0.6616677642 0.7472926378
outer loop
vertex -88.73196411 10.61657047 325.4503479
vertex -88.80831909 10.45516205 325.5870056
vertex -88.41574097 10.54836273 325.5366516

endloop
endfacet
facet normal -0.06807949394 0.6807900071 0.7293079495
outer loop
vertex -88.41574097 10.54836273 325.5366516
vertex -88.80831909 10.45516205 325.5870056
vertex -88.48714447 10.38684845 325.6807556

endloop
endfacet
facet normal 0.03521083668 0.6566206217 0.7533987761
outer loop
vertex -88.41574097 10.54836273 325.5366516
vertex -88.48714447 10.38684845 325.6807556
vertex -88.06723785 10.46027374 325.5971375

endloop
endfacet
facet normal 0.03389799222 0.6604135036 0.7501366138
outer loop
vertex -88.06723785 10.46027374 325.5971375
vertex -88.48714447 10.38684845 325.6807556
vertex -88.13939667 10.29242706 325.7481689

endloop
endfacet
facet normal 0.07266554236 0.6496783495 0.7567282915
outer loop
vertex -88.06723785 10.46027374 325.5971375
vertex -88.13939667 10.29242706 325.7481689
vertex -87.7064209 10.34957123 325.6575317

endloop
endfacet
facet normal 0.074531883 0.6435407996 0.7617743611
outer loop
vertex -87.7064209 10.34957123 325.6575317
vertex -88.13939667 10.29242706 325.7481689
vertex -87.7819519 10.18152618 325.8068848

endloop
endfacet
facet normal 0.05180612206 0.6503113508 0.757899344
outer loop
vertex -87.7064209 10.34957123 325.6575317
vertex -87.7819519 10.18152618 325.8068848
vertex -87.33319855 10.2347641 325.7305298

endloop
endfacet
facet normal 0.05348528549 0.6438610554 0.7632707357
outer loop
vertex -87.33319855 10.2347641 325.7305298
vertex -87.7819519 10.18152618 325.8068848
vertex -87.4123764 10.06674957 325.8778076

endloop
endfacet
facet normal 0.03887887672 0.6482546926 0.7604303956
outer loop
vertex -87.33319855 10.2347641 325.7305298
vertex -87.4123764 10.06674957 325.8778076
vertex -86.95176697 10.11798859 325.8105774

endloop
endfacet
facet normal 0.039785292 0.6443690658 0.7636790872
outer loop
vertex -86.95176697 10.11798859 325.8105774
vertex -87.4123764 10.06674957 325.8778076
vertex -87.03353119 9.950080872 325.9565125

endloop
endfacet
facet normal 0.02449390478 0.6489771605 0.7604135871
outer loop
vertex -86.95176697 10.11798859 325.8105774
vertex -87.03353119 9.950080872 325.9565125
vertex -86.58016205 10.00173187 325.8978271

endloop
endfacet
facet normal 0.02582874149 0.6429799795 0.7654473782
outer loop
vertex -86.58016205 10.00173187 325.8978271
vertex -87.03353119 9.950080872 325.9565125
vertex -86.6658783 9.834023476 326.0415955

endloop
endfacet
facet normal 0.008114465512 0.6483435631 0.7613046765
outer loop
vertex -86.58015442 10.00173187 325.8978271
vertex -86.6658783 9.834023476 326.0415649
vertex -86.20760345 9.882362366 325.9955139

endloop
endfacet
facet normal 0.009269307368 0.6422703266 0.7664221525
outer loop
vertex -86.20760345 9.882362366 325.9955139
vertex -86.6658783 9.834023476 326.0415649
vertex -86.29785156 9.715019226 326.1368408

endloop
endfacet
facet normal -0.001286116079 0.6456247568 0.7636536956
outer loop
vertex -86.20760345 9.882362366 325.9955139
vertex -86.29785156 9.715019226 326.1368408
vertex -85.83380127 9.758140564 326.1011658

endloop
endfacet
facet normal -0.0004315646074 0.6401979327 0.768209815
outer loop
vertex -85.83380127 9.758140564 326.1011658
vertex -86.29785156 9.715019226 326.1368408
vertex -85.9287262 9.591346741 326.2401123

endloop
endfacet
facet normal -0.0132719567 0.6444105506 0.7645645142
outer loop
vertex -85.83379364 9.758155823 326.1011963
vertex -85.9287262 9.591346741 326.2401428
vertex -85.45691681 9.630500793 326.215332

endloop
endfacet
facet normal -0.01226195041 0.6364549398 0.7712163925
outer loop
vertex -85.45691681 9.630500793 326.215332
vertex -85.9287262 9.591346741 326.2401428
vertex -85.55697632 9.463386536 326.3516541

endloop
endfacet
facet normal -0.0529553704 0.6500645876 0.7580314875
outer loop
vertex -85.45691681 9.630500793 326.215332
vertex -85.55697632 9.463386536 326.3516541
vertex -85.06969452 9.516532898 326.3401184

endloop
endfacet
facet normal -0.05010516942 0.6279678345 0.7766247392
outer loop
vertex -85.06969452 9.516532898 326.3401184
vertex -85.55697632 9.463386536 326.3516541
vertex -85.17584229 9.343772888 326.4729614

endloop
endfacet
facet normal -0.1116679087 0.647965312 0.7534396648
outer loop
vertex -85.06969452 9.516532898 326.3401184
vertex -85.17584229 9.343772888 326.4729614
vertex -84.67069244 9.42905426 326.4744873

endloop
endfacet
facet normal -0.1069050655 0.6193169951 0.7778288722
outer loop
vertex -84.67069244 9.42905426 326.4744873
vertex -85.17584229 9.343772888 326.4729614
vertex -84.78318787 9.247276306 326.6037598

endloop
endfacet
facet normal -0.1195615306 0.6234685183 0.772652626
outer loop
vertex -84.67069244 9.42905426 326.4744873
vertex -84.78318787 9.247276306 326.6037598
vertex -84.26652527 9.338905334 326.6097717

endloop
endfacet
facet normal -0.1194876134 0.6230276823 0.7730195522
outer loop
vertex -84.26652527 9.338905334 326.6097717
vertex -84.78318787 9.247276306 326.6037598
vertex -84.38302612 9.157417297 326.7380371

endloop
endfacet
facet normal -0.03284212202 0.5909049511 0.8060724735
outer loop
vertex -84.26651001 9.338920593 326.6097717
vertex -84.38301849 9.157432556 326.7380676
vertex -83.86574554 9.195549011 326.7312012

endloop
endfacet
facet normal -0.03618869931 0.6307489872 0.7751426697
outer loop
vertex -83.86574554 9.195549011 326.7312012
vertex -84.38301849 9.157432556 326.7380676
vertex -83.98252106 9.027732849 326.8623047

endloop
endfacet
facet normal 0.05114256963 0.5924878716 0.8039543629
outer loop
vertex -83.86574554 9.195549011 326.7312012
vertex -83.98252106 9.027732849 326.8623047
vertex -83.48899078 9.021614075 326.8354187

endloop
endfacet
facet normal 0.05033900589 0.6200757623 0.7829252481
outer loop
vertex -83.48899078 9.021614075 326.8354187
vertex -83.98252106 9.027732849 326.8623047
vertex -83.60514832 8.862464905 326.9689331

endloop
endfacet
facet normal 0.1034755558 0.5938506126 0.797893703
outer loop
vertex -83.48899078 9.021614075 326.8354187
vertex -83.60514832 8.862464905 326.9689331
vertex -83.14445496 8.856407166 326.9136963

endloop
endfacet
facet normal 0.1014729589 0.6195468903 0.7783732414
outer loop
vertex -83.14445496 8.856407166 326.9136963
vertex -83.60514832 8.862464905 326.9689331
vertex -83.2543869 8.699577332 327.0528564

endloop
endfacet
facet normal 0.2008615881 0.5676447153 0.79839468
outer loop
vertex -83.14445496 8.856407166 326.9136963
vertex -83.2543869 8.699577332 327.0528564
vertex -82.87380219 8.738960266 326.9291077

endloop
endfacet
facet normal 0.178709358 0.6348753572 0.7516623735
outer loop
vertex -82.87380219 8.738960266 326.9291077
vertex -83.2543869 8.699577332 327.0528564
vertex -82.96695709 8.584922791 327.0813599

endloop
endfacet
facet normal 0.3656642437 0.5330237746 0.7630041242
outer loop
vertex -82.87380219 8.738960266 326.9291077
vertex -82.96695709 8.584922791 327.0813599
vertex -82.68714142 8.626502991 326.9182129

endloop
endfacet
facet normal 0.347708106 0.5727496743 0.7423319817
outer loop
vertex -82.68714142 8.626502991 326.9182129
vertex -82.96695709 8.584922791 327.0813599
vertex -82.77242279 8.481300354 327.0701904

endloop
endfacet
facet normal 0.4672507942 0.4933201969 0.7336974144
outer loop
vertex -82.68714905 8.626502991 326.9182129
vertex -82.77242279 8.481285095 327.0701599
vertex -82.52085114 8.45728302 326.9260864

endloop
endfacet
facet normal 0.4819375575 0.4131152034 0.7727043629
outer loop
vertex -82.52085114 8.45728302 326.9260864
vertex -82.77242279 8.481285095 327.0701599
vertex -82.62160492 8.31401825 327.0655212

endloop
endfacet
facet normal 0.8922947645 -0.2945129275 0.3421580791
outer loop
vertex -82.52085114 8.45728302 326.9260864
vertex -82.62160492 8.31401825 327.0655212
vertex -82.54990387 8.031166077 326.6350708

endloop
endfacet
facet normal -0.8179591298 0.4087477326 -0.4048063159
outer loop
vertex -82.54990387 8.031166077 326.6350708
vertex -82.62160492 8.31401825 327.0655212
vertex -82.54989624 8.031181335 326.6350708

endloop
endfacet
facet normal -nan(ind) -nan(ind) -nan(ind)
outer loop
vertex -88.94429779 10.32196808 325.1012878
vertex -88.94429779 10.32196808 325.1012878
vertex -88.80831909 10.45516205 325.5870056

endloop
endfacet
facet normal -0.9231082797 0.3483267426 0.1629095078
outer loop
vertex -88.80831909 10.45516205 325.5870056
vertex -88.94429779 10.32196808 325.1012878
vertex -88.87111664 10.27094269 325.625061

endloop
endfacet
facet normal -0.2170206904 0.2678902447 0.9386888742
outer loop
vertex -88.80831909 10.45516205 325.5870056
vertex -88.87111664 10.27094269 325.625061
vertex -88.48714447 10.38684845 325.6807556

endloop
endfacet
facet normal -0.2313175201 0.3258201778 0.9166970849
outer loop
vertex -88.48714447 10.38684845 325.6807556
vertex -88.87111664 10.27094269 325.625061
vertex -88.550354 10.20270538 325.7302551

endloop
endfacet
facet normal -0.1051166952 0.2916490138 0.9507319331
outer loop
vertex -88.48714447 10.38684845 325.6807556
vertex -88.550354 10.20270538 325.7302551
vertex -88.13939667 10.29242706 325.7481689

endloop
endfacet
facet normal -0.1062404066 0.2971621454 0.948898077
outer loop
vertex -88.13939667 10.29242706 325.7481689
vertex -88.550354 10.20270538 325.7302551
vertex -88.2046051 10.10111237 325.8007812

endloop
endfacet
facet normal -0.06823498011 0.2860974669 0.9557678699
outer loop
vertex -88.13939667 10.29242706 325.7481689
vertex -88.2046051 10.10111237 325.8007812
vertex -87.7819519 10.18152618 325.8068848

endloop
endfacet
facet normal -0.06681569666 0.2784591019 0.9581211209
outer loop
vertex -87.7819519 10.18152618 325.8068848
vertex -88.2046051 10.10111237 325.8007812
vertex -87.84803009 9.989997864 325.8579407

endloop
endfacet
facet normal -0.09396740049 0.2865780592 0.9534375668
outer loop
vertex -87.7819519 10.18152618 325.8068848
vertex -87.84803009 9.989997864 325.8579407
vertex -87.4123764 10.06674957 325.8778076

endloop
endfacet
facet normal -0.09270077199 0.2787570059 0.9558771849
outer loop
vertex -87.4123764 10.06674957 325.8778076
vertex -87.84803009 9.989997864 325.8579407
vertex -87.47952271 9.875205994 325.9271545

endloop
endfacet
facet normal -0.1103852093 0.2840679288 0.9524288177
outer loop
vertex -87.4123764 10.06674957 325.8778076
vertex -87.47952271 9.875205994 325.9271545
vertex -87.03353119 9.950080872 325.9565125

endloop
endfacet
facet normal -0.1096848994 0.2793139219 0.9539145231
outer loop
vertex -87.03353119 9.950080872 325.9565125
vertex -87.47952271 9.875205994 325.9271545
vertex -87.10172272 9.758628845 326.0047302

endloop
endfacet
facet normal -0.1296829134 0.2853523195 0.9496085644
outer loop
vertex -87.03353119 9.950080872 325.9565125
vertex -87.10172272 9.758628845 326.0047302
vertex -86.6658783 9.834023476 326.0415955

endloop
endfacet
facet normal -0.1285693496 0.2777387798 0.9520142078
outer loop
vertex -86.6658783 9.834023476 326.0415955
vertex -87.10172272 9.758628845 326.0047302
vertex -86.73577881 9.64276886 326.0879517

endloop
endfacet
facet normal -0.1526519507 0.2854250669 0.9461659789
outer loop
vertex -86.6658783 9.834023476 326.0415649
vertex -86.73577881 9.64276886 326.0879822
vertex -86.29785156 9.715019226 326.1368408

endloop
endfacet
facet normal -0.1516864896 0.2779690325 0.9485380054
outer loop
vertex -86.29785156 9.715019226 326.1368408
vertex -86.73577881 9.64276886 326.0879822
vertex -86.37007141 9.52419281 326.1812134

endloop
endfacet
facet normal -0.1691083312 0.2834945619 0.9439455867
outer loop
vertex -86.29785156 9.715019226 326.1368408
vertex -86.37007141 9.52419281 326.1812134
vertex -85.9287262 9.591346741 326.2401123

endloop
endfacet
facet normal -0.1683782637 0.2768558264 0.946044147
outer loop
vertex -85.9287262 9.591346741 326.2401123
vertex -86.37007141 9.52419281 326.1812134
vertex -86.00395966 9.401161194 326.2823792

endloop
endfacet
facet normal -0.1851180643 0.2824504077 0.9412508011
outer loop
vertex -85.9287262 9.591346741 326.2401428
vertex -86.00395203 9.401191711 326.2824097
vertex -85.55697632 9.463386536 326.3516541

endloop
endfacet
facet normal -0.1843746305 0.2742485404 0.9438186884
outer loop
vertex -85.55697632 9.463386536 326.3516541
vertex -86.00395203 9.401191711 326.2824097
vertex -85.63623047 9.272941589 326.39151

endloop
endfacet
facet normal -0.2091363221 0.2829299569 0.9360622764
outer loop
vertex -85.55697632 9.463386536 326.3516541
vertex -85.63623047 9.272941589 326.39151
vertex -85.17584229 9.343772888 326.4729614

endloop
endfacet
facet normal -0.20721744 0.2634527981 0.9421536922
outer loop
vertex -85.17584229 9.343772888 326.4729614
vertex -85.63623047 9.272941589 326.39151
vertex -85.26106262 9.146980286 326.5092468

endloop
endfacet
facet normal -0.241942361 0.2762728631 0.9301275015
outer loop
vertex -85.17584229 9.343772888 326.4729614
vertex -85.26106262 9.146980286 326.5092468
vertex -84.78318787 9.247276306 326.6037598

endloop
endfacet
facet normal -0.2383467555 0.2517341971 0.937987566
outer loop
vertex -84.78318787 9.247276306 326.6037598
vertex -85.26106262 9.146980286 326.5092468
vertex -84.87562561 9.040016174 326.6358948

endloop
endfacet
facet normal -0.2547531426 0.2581111193 0.9319224954
outer loop
vertex -84.78318787 9.247276306 326.6037598
vertex -84.87562561 9.040016174 326.6358948
vertex -84.38302612 9.157417297 326.7380371

endloop
endfacet
facet normal -0.2545846403 0.2571275234 0.9322403073
outer loop
vertex -84.38302612 9.157417297 326.7380371
vertex -84.87562561 9.040016174 326.6358948
vertex -84.48091125 8.949745178 326.7685852

endloop
endfacet
facet normal -0.2155338526 0.2409124225 0.9463120103
outer loop
vertex -84.38301849 9.157432556 326.7380676
vertex -84.48090363 8.949745178 326.7686462
vertex -83.98252106 9.027732849 326.8623047

endloop
endfacet
facet normal -0.2189783752 0.275152564 0.9361301064
outer loop
vertex -83.98252106 9.027732849 326.8623047
vertex -84.48090363 8.949745178 326.7686462
vertex -84.08250427 8.835197449 326.8955078

endloop
endfacet
facet normal -0.1611091644 0.2483845949 0.9551695585
outer loop
vertex -83.98252106 9.027732849 326.8623047
vertex -84.08250427 8.835197449 326.8955078
vertex -83.60514832 8.862464905 326.9689331

endloop
endfacet
facet normal -0.1614944488 0.2750776708 0.9477615356
outer loop
vertex -83.60514832 8.862464905 326.9689331
vertex -84.08250427 8.835197449 326.8955078
vertex -83.70597839 8.680458069 327.0045776

endloop
endfacet
facet normal -0.1134010628 0.251085639 0.9612992406
outer loop
vertex -83.60514832 8.862464905 326.9689331
vertex -83.70597839 8.680458069 327.0045776
vertex -83.2543869 8.699577332 327.0528564

endloop
endfacet
facet normal -0.1137840971 0.2819625139 0.9526543021
outer loop
vertex -83.2543869 8.699577332 327.0528564
vertex -83.70597839 8.680458069 327.0045776
vertex -83.35417938 8.520729065 327.0938721

endloop
endfacet
facet normal -0.006123619154 0.2267699093 0.9739291072
outer loop
vertex -83.2543869 8.699577332 327.0528564
vertex -83.35417938 8.520729065 327.0938721
vertex -82.96695709 8.584922791 327.0813599

endloop
endfacet
facet normal -0.02006904222 0.3065463006 0.9516441226
outer loop
vertex -82.96695709 8.584922791 327.0813599
vertex -83.35417938 8.520729065 327.0938721
vertex -83.0646286 8.409324646 327.1358643

endloop
endfacet
facet normal 0.1656852067 0.2071179599 0.9641838074
outer loop
vertex -82.96695709 8.584922791 327.0813599
vertex -83.0646286 8.409324646 327.1358643
vertex -82.77242279 8.481300354 327.0701904

endloop
endfacet
facet normal 0.1550669372 0.2439531982 0.9573092461
outer loop
vertex -82.77242279 8.481300354 327.0701904
vertex -83.0646286 8.409324646 327.1358643
vertex -82.86912537 8.315711975 327.1280518

endloop
endfacet
facet normal 0.241627723 0.1914848238 0.9512884021
outer loop
vertex -82.77242279 8.481285095 327.0701599
vertex -82.86911774 8.315696716 327.1280518
vertex -82.62160492 8.31401825 327.0655212

endloop
endfacet
facet normal 0.2446721345 0.07942940295 0.9663469791
outer loop
vertex -82.62160492 8.31401825 327.0655212
vertex -82.86911774 8.315696716 327.1280518
vertex -82.7243576 8.149726868 327.1050415

endloop
endfacet
facet normal 0.8153529167 -0.4121311903 0.4066293836
outer loop
vertex -82.62160492 8.31401825 327.0655212
vertex -82.7243576 8.149726868 327.1050415
vertex -82.54989624 8.031181335 326.6350708

endloop
endfacet
facet normal 0.8169898987 -0.4091315866 0.4063729048
outer loop
vertex -82.54989624 8.031181335 326.6350708
vertex -82.7243576 8.149726868 327.1050415
vertex -82.54990387 8.031166077 326.6350708

endloop
endfacet
facet normal -0.9903799295 0 0.1383750588
outer loop
vertex -88.94429779 10.32196808 325.1012878
vertex -88.94429779 10.32195282 325.1012878
vertex -88.87111664 10.27094269 325.625061

endloop
endfacet
facet normal -0.9706483483 0.1850324273 0.1536384374
outer loop
vertex -88.87111664 10.27094269 325.625061
vertex -88.94429779 10.32195282 325.1012878
vertex -88.91507721 10.08579254 325.5703125

endloop
endfacet
facet normal -0.3423040807 -0.1907736212 0.9200181365
outer loop
vertex -88.87111664 10.27094269 325.625061
vertex -88.91507721 10.08579254 325.5703125
vertex -88.550354 10.20270538 325.7302551

endloop
endfacet
facet normal -0.3631719053 -0.1293438375 0.9227006435
outer loop
vertex -88.550354 10.20270538 325.7302551
vertex -88.91507721 10.08579254 325.5703125
vertex -88.60164642 10.00688934 325.6826172

endloop
endfacet
facet normal -0.244263947 -0.1683447212 0.9549844265
outer loop
vertex -88.550354 10.20270538 325.7302551
vertex -88.60164642 10.00688934 325.6826172
vertex -88.2046051 10.10111237 325.8007812

endloop
endfacet
facet normal -0.2457886785 -0.1626637131 0.9555774927
outer loop
vertex -88.2046051 10.10111237 325.8007812
vertex -88.60164642 10.00688934 325.6826172
vertex -88.25906372 9.897453308 325.7521057

endloop
endfacet
facet normal -0.2085637152 -0.1742393523 0.9623625875
outer loop
vertex -88.2046051 10.10111237 325.8007812
vertex -88.25906372 9.897453308 325.7521057
vertex -87.84803009 9.989997864 325.8579407

endloop
endfacet
facet normal -0.2065592408 -0.1819945276 0.9613590837
outer loop
vertex -87.84803009 9.989997864 325.8579407
vertex -88.25906372 9.897453308 325.7521057
vertex -87.90087128 9.786079407 325.8079834

endloop
endfacet
facet normal -0.2338075638 -0.1737745702 0.956627667
outer loop
vertex -87.84803009 9.989997864 325.8579407
vertex -87.90087128 9.786079407 325.8079834
vertex -87.47952271 9.875205994 325.9271545

endloop
endfacet
facet normal -0.2317745835 -0.182000801 0.9555920959
outer loop
vertex -87.47952271 9.875205994 325.9271545
vertex -87.90087128 9.786079407 325.8079834
vertex -87.53077698 9.671287537 325.875885

endloop
endfacet
facet normal -0.2499578148 -0.17653431 0.9520276785
outer loop
vertex -87.47952271 9.875205994 325.9271545
vertex -87.53077698 9.671287537 325.875885
vertex -87.10172272 9.758628845 326.0047302

endloop
endfacet
facet normal -0.2487390041 -0.1815896332 0.9513958693
outer loop
vertex -87.10172272 9.758628845 326.0047302
vertex -87.53077698 9.671287537 325.875885
vertex -87.15242767 9.554832458 325.9525757

endloop
endfacet
facet normal -0.270663619 -0.174919948 0.9466489553
outer loop
vertex -87.10172272 9.758628845 326.0047302
vertex -87.15242767 9.554832458 325.9525757
vertex -86.73577881 9.64276886 326.0879517

endloop
endfacet
facet normal -0.2688415349 -0.1822292805 0.9457889199
outer loop
vertex -86.73577881 9.64276886 326.0879517
vertex -87.15242767 9.554832458 325.9525757
vertex -86.78580475 9.439231873 326.0345154

endloop
endfacet
facet normal -0.2958638072 -0.1740003675 0.9392489195
outer loop
vertex -86.73577881 9.64276886 326.0879822
vertex -86.78581238 9.439231873 326.0345154
vertex -86.37007141 9.52419281 326.1812134

endloop
endfacet
facet normal -0.2939586937 -0.1818029881 0.9383687973
outer loop
vertex -86.37007141 9.52419281 326.1812134
vertex -86.78581238 9.439231873 326.0345154
vertex -86.42008972 9.32106781 326.1261902

endloop
endfacet
facet normal -0.3163515031 -0.1746777892 0.932421267
outer loop
vertex -86.37007141 9.52419281 326.1812134
vertex -86.42008972 9.32106781 326.1261902
vertex -86.00395966 9.401161194 326.2823792

endloop
endfacet
facet normal -0.3148367405 -0.1811419129 0.9317002892
outer loop
vertex -86.00395966 9.401161194 326.2823792
vertex -86.42008972 9.32106781 326.1261902
vertex -86.05513 9.198768616 326.2257385

endloop
endfacet
facet normal -0.3354614973 -0.17428644 0.9257914424
outer loop
vertex -86.00395203 9.401191711 326.2824097
vertex -86.05511475 9.198799133 326.225769
vertex -85.63623047 9.272941589 326.39151

endloop
endfacet
facet normal -0.3343232572 -0.1794373691 0.9252189994
outer loop
vertex -85.63623047 9.272941589 326.39151
vertex -86.05511475 9.198799133 326.225769
vertex -85.68991852 9.071006775 326.3329468

endloop
endfacet
facet normal -0.3477400243 -0.1746966243 0.9211720228
outer loop
vertex -85.63623047 9.272941589 326.39151
vertex -85.68991852 9.071006775 326.3329468
vertex -85.26106262 9.146980286 326.5092468

endloop
endfacet
facet normal -0.347319752 -0.1765962541 0.9209682941
outer loop
vertex -85.26106262 9.146980286 326.5092468
vertex -85.68991852 9.071006775 326.3329468
vertex -85.31958771 8.941551208 326.4477844

endloop
endfacet
facet normal -0.3508886993 -0.1752514094 0.9198717475
outer loop
vertex -85.26106262 9.146980286 326.5092468
vertex -85.31958771 8.941551208 326.4477844
vertex -84.87562561 9.040016174 326.6358948

endloop
endfacet
facet normal -0.3513812125 -0.1733570695 0.920042634
outer loop
vertex -84.87562561 9.040016174 326.6358948
vertex -85.31958771 8.941551208 326.4477844
vertex -84.94099426 8.82736969 326.5708618

endloop
endfacet
facet normal -0.3493334353 -0.1741776317 0.9206672907
outer loop
vertex -84.87562561 9.040016174 326.6358948
vertex -84.94099426 8.82736969 326.5708618
vertex -84.48091125 8.949745178 326.7685852

endloop
endfacet
facet normal -0.350366503 -0.1707091182 0.9209244251
outer loop
vertex -84.48091125 8.949745178 326.7685852
vertex -84.94099426 8.82736969 326.5708618
vertex -84.55279541 8.736076355 326.7016296

endloop
endfacet
facet normal -0.3437953591 -0.1736779511 0.9228438735
outer loop
vertex -84.48090363 8.949745178 326.7686462
vertex -84.55278778 8.736106873 326.7016602
vertex -84.08250427 8.835197449 326.8955078

endloop
endfacet
facet normal -0.3449087739 -0.1692058146 0.9232590795
outer loop
vertex -84.08250427 8.835197449 326.8955078
vertex -84.55278778 8.736106873 326.7016602
vertex -84.15901947 8.632987976 326.8298645

endloop
endfacet
facet normal -0.3386930227 -0.172128886 0.9250182509
outer loop
vertex -84.08250427 8.835197449 326.8955078
vertex -84.15901947 8.632987976 326.8298645
vertex -83.70597839 8.680458069 327.0045776

endloop
endfacet
facet normal -0.3395555615 -0.1665146947 0.925729394
outer loop
vertex -83.70597839 8.680458069 327.0045776
vertex -84.15901947 8.632987976 326.8298645
vertex -83.78543091 8.487037659 326.9406433

endloop
endfacet
facet normal -0.3171258867 -0.1776665002 0.9315931201
outer loop
vertex -83.70597839 8.680458069 327.0045776
vertex -83.78543091 8.487037659 326.9406433
vertex -83.35417938 8.520729065 327.0938721

endloop
endfacet
facet normal -0.3205294311 -0.1505194157 0.9352030754
outer loop
vertex -83.35417938 8.520729065 327.0938721
vertex -83.78543091 8.487037659 326.9406433
vertex -83.43804169 8.330329895 327.0344849

endloop
endfacet
facet normal -0.2164403349 -0.2025570124 0.9550519586
outer loop
vertex -83.35417938 8.520729065 327.0938721
vertex -83.43804169 8.330329895 327.0344849
vertex -83.0646286 8.409324646 327.1358643

endloop
endfacet
facet normal -0.2373411655 -0.1158712581 0.9644910693
outer loop
vertex -83.0646286 8.409324646 327.1358643
vertex -83.43804169 8.330329895 327.0344849
vertex -83.16110992 8.222358704 327.0896606

endloop
endfacet
facet normal -0.06132545322 -0.2095163912 0.975880146
outer loop
vertex -83.0646286 8.409324646 327.1358643
vertex -83.16110992 8.222358704 327.0896606
vertex -82.86912537 8.315711975 327.1280518

endloop
endfacet
facet normal -0.07262574881 -0.1765294075 0.9816124439
outer loop
vertex -82.86912537 8.315711975 327.1280518
vertex -83.16110992 8.222358704 327.0896606
vertex -82.97145081 8.139579773 327.0888062

endloop
endfacet
facet normal -0.0567288287 -0.1854873598 0.9810078144
outer loop
vertex -82.86911774 8.315696716 327.1280518
vertex -82.97145844 8.139595032 327.0888367
vertex -82.7243576 8.149726868 327.1050415

endloop
endfacet
facet normal -0.05099568889 -0.28647843 0.9567285776
outer loop
vertex -82.7243576 8.149726868 327.1050415
vertex -82.97145844 8.139595032 327.0888367
vertex -82.81803131 7.984275818 327.0505066

endloop
endfacet
facet normal 0.729657948 -0.5479510427 0.4090830684
outer loop
vertex -82.7243576 8.149726868 327.1050415
vertex -82.81803131 7.984275818 327.0505066
vertex -82.54990387 8.031166077 326.6350708

endloop
endfacet
facet normal 0.840182364 0 0.5423039794
outer loop
vertex -82.54990387 8.031166077 326.6350708
vertex -82.81803131 7.984275818 327.0505066
vertex -82.54990387 8.031150818 326.6350708

endloop
endfacet
facet normal 0.9715275764 -0.1817263961 -0.1520186961
outer loop
vertex -88.94430542 10.32195282 325.1012573
vertex -88.94429779 10.32196808 325.1012878
vertex -88.91508484 10.08579254 325.5703125

endloop
endfacet
facet normal -0.9966815114 0.02829358168 0.07632489502
outer loop
vertex -88.91508484 10.08579254 325.5703125
vertex -88.94429779 10.32196808 325.1012878
vertex -88.93315887 9.908149719 325.4001465

endloop
endfacet
facet normal -0.3987400234 -0.6128955483 0.6821769476
outer loop
vertex -88.91508484 10.08579254 325.5703125
vertex -88.93315887 9.908149719 325.4001465
vertex -88.60164642 10.00687408 325.6826172

endloop
endfacet
facet normal -0.4367775023 -0.5562084913 0.7070060372
outer loop
vertex -88.60164642 10.00687408 325.6826172
vertex -88.93315887 9.908149719 325.4001465
vertex -88.63363647 9.807121277 325.5057068

endloop
endfacet
facet normal -0.3376639485 -0.5931833386 0.7308327556
outer loop
vertex -88.60164642 10.00687408 325.6826172
vertex -88.63363647 9.807121277 325.5057068
vertex -88.25906372 9.897438049 325.7520752

endloop
endfacet
facet normal -0.340711236 -0.5880310535 0.7335770726
outer loop
vertex -88.25906372 9.897438049 325.7520752
vertex -88.63363647 9.807121277 325.5057068
vertex -88.29553986 9.689460754 325.5684204

endloop
endfacet
facet normal -0.3022101521 -0.6006368995 0.740205586
outer loop
vertex -88.25906372 9.897438049 325.7520752
vertex -88.29553986 9.689460754 325.5684204
vertex -87.90087891 9.786079407 325.8079529

endloop
endfacet
facet normal -0.2982078791 -0.607367754 0.7363263369
outer loop
vertex -87.90087891 9.786079407 325.8079529
vertex -88.29553986 9.689460754 325.5684204
vertex -87.93243408 9.577887535 325.6234436

endloop
endfacet
facet normal -0.3207132816 -0.6005333066 0.732463479
outer loop
vertex -87.90087891 9.786079407 325.8079529
vertex -87.93243408 9.577887535 325.6234436
vertex -87.53078461 9.671287537 325.875885

endloop
endfacet
facet normal -0.3165034354 -0.6076629758 0.7284033298
outer loop
vertex -87.53078461 9.671287537 325.875885
vertex -87.93243408 9.577887535 325.6234436
vertex -87.55722046 9.46308136 325.6907043

endloop
endfacet
facet normal -0.3325796425 -0.6028223634 0.725255847
outer loop
vertex -87.53078461 9.671287537 325.875885
vertex -87.55722046 9.46308136 325.6907043
vertex -87.1524353 9.5548172 325.9525757

endloop
endfacet
facet normal -0.3300255239 -0.607137084 0.7228192687
outer loop
vertex -87.1524353 9.5548172 325.9525757
vertex -87.55722046 9.46308136 325.6907043
vertex -87.17618561 9.346717834 325.7669373

endloop
endfacet
facet normal -0.3500788808 -0.6009978056 0.7185028791
outer loop
vertex -87.1524353 9.5548172 325.9525757
vertex -87.17618561 9.346717834 325.7669373
vertex -86.78580475 9.439216614 326.0345154

endloop
endfacet
facet normal -0.3460695148 -0.6075561643 0.71492064
outer loop
vertex -86.78580475 9.439216614 326.0345154
vertex -87.17618561 9.346717834 325.7669373
vertex -86.80571747 9.231361389 325.8482361

endloop
endfacet
facet normal -0.3714105785 -0.599681437 0.708827436
outer loop
vertex -86.78581238 9.439216614 326.0345154
vertex -86.80571747 9.231361389 325.8482361
vertex -86.42008972 9.32106781 326.1261902

endloop
endfacet
facet normal -0.367320776 -0.6063255668 0.7052976489
outer loop
vertex -86.42008972 9.32106781 326.1261902
vertex -86.80571747 9.231361389 325.8482361
vertex -86.43682861 9.113670349 325.9391785

endloop
endfacet
facet normal -0.3912392259 -0.5986689925 0.6989472508
outer loop
vertex -86.42008972 9.32106781 326.1261902
vertex -86.43682861 9.113670349 325.9391785
vertex -86.05513763 9.198753357 326.225708

endloop
endfacet
facet normal -0.3875771463 -0.6046389937 0.69584167
outer loop
vertex -86.05513763 9.198753357 326.225708
vertex -86.43682861 9.113670349 325.9391785
vertex -86.07036591 8.992240906 326.0377808

endloop
endfacet
facet normal -0.4110117555 -0.59676826 0.6891566515
outer loop
vertex -86.05512238 9.198783875 326.2257385
vertex -86.07035828 8.992256165 326.0378113
vertex -85.68991852 9.07099247 326.3328857

endloop
endfacet
facet normal -0.4069091082 -0.6035498977 0.6856766939
outer loop
vertex -85.68991852 9.07099247 326.3328857
vertex -86.07035828 8.992256165 326.0378113
vertex -85.70529175 8.866783142 326.1440125

endloop
endfacet
facet normal -0.4207031429 -0.5987182856 0.6815755963
outer loop
vertex -85.68991852 9.07099247 326.3328857
vertex -85.70529175 8.866783142 326.1440125
vertex -85.31958771 8.94153595 326.4477539

endloop
endfacet
facet normal -0.4129370451 -0.611574173 0.6748778224
outer loop
vertex -85.31958771 8.94153595 326.4477539
vertex -85.70529175 8.866783142 326.1440125
vertex -85.33659363 8.744224548 326.2585449

endloop
endfacet
facet normal -0.4054275155 -0.6142520905 0.6769954562
outer loop
vertex -85.31958771 8.94153595 326.4477539
vertex -85.33659363 8.744224548 326.2585449
vertex -84.94100189 8.827339172 326.5708618

endloop
endfacet
facet normal -0.3955831826 -0.6296480298 0.6686234474
outer loop
vertex -84.94100189 8.827339172 326.5708618
vertex -85.33659363 8.744224548 326.2585449
vertex -84.96148682 8.639320374 326.3816833

endloop
endfacet
facet normal -0.3764124513 -0.6364123225 0.6732704043
outer loop
vertex -84.94100189 8.827339172 326.5708618
vertex -84.96148682 8.639320374 326.3816833
vertex -84.55280304 8.736076355 326.7016296

endloop
endfacet
facet normal -0.3764249682 -0.6363939047 0.6732807755
outer loop
vertex -84.55280304 8.736076355 326.7016296
vertex -84.96148682 8.639320374 326.3816833
vertex -84.58005524 8.550437927 326.5109253

endloop
endfacet
facet normal -0.3844695091 -0.6333729625 0.6715816855
outer loop
vertex -84.55279541 8.736091614 326.7016602
vertex -84.58003998 8.550453186 326.5109863
vertex -84.1590271 8.632972717 326.829834

endloop
endfacet
facet normal -0.3970561028 -0.6131176949 0.6829591393
outer loop
vertex -84.1590271 8.632972717 326.829834
vertex -84.58003998 8.550453186 326.5109863
vertex -84.19654846 8.441444397 326.6360779

endloop
endfacet
facet normal -0.4334487617 -0.5975289941 0.6745971441
outer loop
vertex -84.1590271 8.632972717 326.829834
vertex -84.19654846 8.441444397 326.6360779
vertex -83.78543854 8.487037659 326.9406128

endloop
endfacet
facet normal -0.440676868 -0.5833981633 0.6822392941
outer loop
vertex -83.78543854 8.487037659 326.9406128
vertex -84.19654846 8.441444397 326.6360779
vertex -83.83031464 8.292746544 326.7454834

endloop
endfacet
facet normal -0.4459995627 -0.5808648467 0.6809408665
outer loop
vertex -83.78543854 8.487037659 326.9406128
vertex -83.83031464 8.292746544 326.7454834
vertex -83.43804932 8.330314636 327.0344543

endloop
endfacet
facet normal -0.4586610198 -0.5541514754 0.6946554184
outer loop
vertex -83.43804932 8.330314636 327.0344543
vertex -83.83031464 8.292746544 326.7454834
vertex -83.4949646 8.136146545 326.84198

endloop
endfacet
facet normal -0.3737426102 -0.5954274535 0.7111839652
outer loop
vertex -83.43804932 8.330314636 327.0344543
vertex -83.4949646 8.136146545 326.84198
vertex -83.16112518 8.222358704 327.0895996

endloop
endfacet
facet normal -0.4229618609 -0.5111678839 0.7482049465
outer loop
vertex -83.16112518 8.222358704 327.0895996
vertex -83.4949646 8.136146545 326.84198
vertex -83.25005341 8.031455994 326.908905

endloop
endfacet
facet normal -0.2577624619 -0.5981498361 0.7587985992
outer loop
vertex -83.16112518 8.222358704 327.0895996
vertex -83.25005341 8.031455994 326.908905
vertex -82.97145844 8.139579773 327.0887756

endloop
endfacet
facet normal -0.2800748944 -0.5670064092 0.774636507
outer loop
vertex -82.97145844 8.139579773 327.0887756
vertex -83.25005341 8.031455994 326.908905
vertex -83.07527161 7.959922791 326.9197388

endloop
endfacet
facet normal -0.3435575962 -0.5306574106 0.7748360634
outer loop
vertex -82.97146606 8.139579773 327.0888062
vertex -83.07527161 7.959922791 326.9197388
vertex -82.81803131 7.984275818 327.0504761

endloop
endfacet
facet normal -0.3057585359 -0.6252052188 0.7180739641
outer loop
vertex -82.81803131 7.984275818 327.0504761
vertex -83.07527161 7.959922791 326.9197388
vertex -82.89588165 7.825539112 326.8791199

endloop
endfacet
facet normal 0.6459474564 -0.6835927367 0.3397836089
outer loop
vertex -82.81803131 7.984275818 327.0504761
vertex -82.89588165 7.825539112 326.8791199
vertex -82.5499115 8.031150818 326.6350708

endloop
endfacet
facet normal -0.6107666492 0.7586795688 -0.2266481221
outer loop
vertex -82.5499115 8.031150818 326.6350708
vertex -82.89588165 7.825539112 326.8791199
vertex -82.54990387 8.031166077 326.6351013

endloop
endfacet
facet normal -0.9993053079 0 0.03726733476
outer loop
vertex -88.94429779 10.32198334 325.1012878
vertex -88.94429779 10.32196808 325.1012878
vertex -88.93315125 9.908164978 325.400177

endloop
endfacet
facet normal -0.98752141 -0.1088245586 -0.1138364598
outer loop
vertex -88.93315125 9.908164978 325.400177
vertex -88.94429779 10.32196808 325.1012878
vertex -88.87453461 9.815864563 324.9799194

endloop
endfacet
facet normal -0.3633438945 -0.9192997813 0.1512257457
outer loop
vertex -88.93315125 9.908164978 325.400177
vertex -88.87453461 9.815864563 324.9799194
vertex -88.63362885 9.807136536 325.5056763

endloop
endfacet
facet normal -0.4250552058 -0.8870820403 0.1800371557
outer loop
vertex -88.63362885 9.807136536 325.5056763
vertex -88.87453461 9.815864563 324.9799194
vertex -88.59394073 9.69367218 325.0403137

endloop
endfacet
facet normal -0.3542681634 -0.9150342941 0.1928894818
outer loop
vertex -88.63362885 9.807136536 325.5056763
vertex -88.59394073 9.69367218 325.0403137
vertex -88.29553986 9.689460754 325.5683899

endloop
endfacet
facet normal -0.3614882529 -0.9113274217 0.1969988793
outer loop
vertex -88.29553986 9.689460754 325.5683899
vertex -88.59394073 9.69367218 325.0403137
vertex -88.26186371 9.571159363 325.0829163

endloop
endfacet
facet normal -0.3156692982 -0.9266976118 0.2039227188
outer loop
vertex -88.29553986 9.689460754 325.5683899
vertex -88.26186371 9.571159363 325.0829163
vertex -87.93243408 9.577887535 325.6234436

endloop
endfacet
facet normal -0.306769222 -0.9308439493 0.1985500902
outer loop
vertex -87.93243408 9.577887535 325.6234436
vertex -88.26186371 9.571159363 325.0829163
vertex -87.88657379 9.459403992 325.1388245

endloop
endfacet
facet normal -0.3189160824 -0.9271879792 0.1965067536
outer loop
vertex -87.93243408 9.577887535 325.6234436
vertex -87.88657379 9.459403992 325.1388245
vertex -87.55721283 9.46308136 325.6907043

endloop
endfacet
facet normal -0.3093832135 -0.9315898418 0.1908468604
outer loop
vertex -87.55721283 9.46308136 325.6907043
vertex -87.88657379 9.459403992 325.1388245
vertex -87.49852753 9.344612122 325.20755

endloop
endfacet
facet normal -0.3211257756 -0.9280753136 0.1885588467
outer loop
vertex -87.55721283 9.46308136 325.6907043
vertex -87.49852753 9.344612122 325.20755
vertex -87.17617798 9.346733093 325.7669678

endloop
endfacet
facet normal -0.3153610826 -0.9307153225 0.1852471232
outer loop
vertex -87.17617798 9.346733093 325.7669678
vertex -87.49852753 9.344612122 325.20755
vertex -87.10997009 9.228340149 325.2848511

endloop
endfacet
facet normal -0.3285865486 -0.9266854525 0.1824413091
outer loop
vertex -87.17617798 9.346733093 325.7669678
vertex -87.10997009 9.228340149 325.2848511
vertex -86.8057251 9.231376648 325.8482361

endloop
endfacet
facet normal -0.3196768463 -0.9307236671 0.1776515692
outer loop
vertex -86.8057251 9.231376648 325.8482361
vertex -87.10997009 9.228340149 325.2848511
vertex -86.72838593 9.113121033 325.3678589

endloop
endfacet
facet normal -0.3378833532 -0.9250903726 0.1733282357
outer loop
vertex -86.8057251 9.231376648 325.8482666
vertex -86.7283783 9.113121033 325.3678894
vertex -86.43682098 9.113670349 325.9391785

endloop
endfacet
facet normal -0.3285500407 -0.9293219447 0.1685690582
outer loop
vertex -86.43682098 9.113670349 325.9391785
vertex -86.7283783 9.113121033 325.3678894
vertex -86.34863281 8.995689392 325.4606323

endloop
endfacet
facet normal -0.3495804965 -0.9226113558 0.1630390584
outer loop
vertex -86.43682098 9.113670349 325.9391785
vertex -86.34863281 8.995689392 325.4606323
vertex -86.07035828 8.992240906 326.0377808

endloop
endfacet
facet normal -0.3413047791 -0.9264026284 0.1590262353
outer loop
vertex -86.07035828 8.992240906 326.0377808
vertex -86.34863281 8.995689392 325.4606323
vertex -85.97384644 8.874809265 325.5608215

endloop
endfacet
facet normal -0.3608238697 -0.9199184775 0.1534801275
outer loop
vertex -86.07035828 8.992256165 326.0378113
vertex -85.97384644 8.874824524 325.5608521
vertex -85.70529175 8.866783142 326.1440125

endloop
endfacet
facet normal -0.3504694998 -0.924703002 0.1486458033
outer loop
vertex -85.70529175 8.866783142 326.1440125
vertex -85.97384644 8.874824524 325.5608521
vertex -85.60289764 8.751534462 325.6684875

endloop
endfacet
facet normal -0.3530350029 -0.9238484502 0.1478862762
outer loop
vertex -85.70529175 8.866783142 326.1440125
vertex -85.60289764 8.751534462 325.6684875
vertex -85.33659363 8.744224548 326.2585449

endloop
endfacet
facet normal -0.3269382119 -0.9352134466 0.1359674931
outer loop
vertex -85.33659363 8.744224548 326.2585449
vertex -85.60289764 8.751534462 325.6684875
vertex -85.2309494 8.638450623 325.7850342

endloop
endfacet
facet normal -0.3093160689 -0.9404381514 0.1410662383
outer loop
vertex -85.33659363 8.744224548 326.2585449
vertex -85.2309494 8.638450623 325.7850342
vertex -84.96148682 8.639320374 326.3816833

endloop
endfacet
facet normal -0.2704426944 -0.9547778964 0.1235308945
outer loop
vertex -84.96148682 8.639320374 326.3816833
vertex -85.2309494 8.638450623 325.7850342
vertex -84.85572052 8.548362732 325.9102173

endloop
endfacet
facet normal -0.265175581 -0.9560682178 0.1249614209
outer loop
vertex -84.96148682 8.639320374 326.3816833
vertex -84.85572052 8.548362732 325.9102173
vertex -84.58005524 8.550422668 326.5109558

endloop
endfacet
facet normal -0.2569407821 -0.9587981701 0.1211920232
outer loop
vertex -84.58005524 8.550422668 326.5109558
vertex -84.85572052 8.548362732 325.9102173
vertex -84.47978973 8.463844299 326.0385742

endloop
endfacet
facet normal -0.3044806421 -0.9462794662 0.1088424996
outer loop
vertex -84.58003998 8.550453186 326.5109863
vertex -84.4797821 8.463859558 326.0386047
vertex -84.19654083 8.441444397 326.6360779

endloop
endfacet
facet normal -0.3487159312 -0.928099215 0.1304949969
outer loop
vertex -84.19654083 8.441444397 326.6360779
vertex -84.4797821 8.463859558 326.0386047
vertex -84.10951233 8.341545105 326.1581421

endloop
endfacet
facet normal -0.4033028483 -0.9076483846 0.1162804514
outer loop
vertex -84.19654083 8.441444397 326.6360779
vertex -84.10951233 8.341545105 326.1581421
vertex -83.83031464 8.292732239 326.7454834

endloop
endfacet
facet normal -0.4342053533 -0.8910381794 0.1323506534
outer loop
vertex -83.83031464 8.292732239 326.7454834
vertex -84.10951233 8.341545105 326.1581421
vertex -83.75434875 8.184165955 326.2637939

endloop
endfacet
facet normal -0.4497217238 -0.8839063048 0.1282961816
outer loop
vertex -83.83031464 8.292732239 326.7454834
vertex -83.75434875 8.184165955 326.2637939
vertex -83.4949646 8.136116028 326.84198

endloop
endfacet
facet normal -0.4867241681 -0.8611345887 0.1467885226
outer loop
vertex -83.4949646 8.136116028 326.84198
vertex -83.75434875 8.184165955 326.2637939
vertex -83.44586945 8.025779724 326.3574829

endloop
endfacet
facet normal -0.4245096445 -0.8911857009 0.1599365175
outer loop
vertex -83.4949646 8.136116028 326.84198
vertex -83.44586945 8.025779724 326.3574829
vertex -83.25004578 8.031455994 326.9088745

endloop
endfacet
facet normal -0.5613866448 -0.8010860682 0.2076200992
outer loop
vertex -83.25004578 8.031455994 326.9088745
vertex -83.44586945 8.025779724 326.3574829
vertex -83.27342987 7.922843933 326.4265747

endloop
endfacet
facet normal -0.3811563551 -0.897791326 0.2206593603
outer loop
vertex -83.25004578 8.031455994 326.9088745
vertex -83.27342987 7.922843933 326.4265747
vertex -83.07526398 7.959922791 326.9197388

endloop
endfacet
facet normal -0.4494221509 -0.8590162992 0.245175004
outer loop
vertex -83.07526398 7.959922791 326.9197388
vertex -83.27342987 7.922843933 326.4265747
vertex -83.13259125 7.857826233 326.4569397

endloop
endfacet
facet normal -0.5452810526 -0.8018310666 0.2444085479
outer loop
vertex -83.07527161 7.959922791 326.9197388
vertex -83.13259125 7.857826233 326.4569092
vertex -82.89588165 7.825539112 326.8790894

endloop
endfacet
facet normal -0.4372648299 -0.8815928102 0.1777456552
outer loop
vertex -82.89588165 7.825539112 326.8790894
vertex -83.13259125 7.857826233 326.4569092
vertex -82.90244293 7.74306488 326.4538879

endloop
endfacet
facet normal 0.5797221661 -0.8015317917 0.1465234905
outer loop
vertex -82.89588165 7.825539112 326.8790894
vertex -82.90244293 7.74306488 326.4538879
vertex -82.54990387 8.031166077 326.6350708

endloop
endfacet
facet normal -nan(ind) -nan(ind) -nan(ind)
outer loop
vertex -82.54990387 8.031166077 326.6350708
vertex -82.90244293 7.74306488 326.4538879
vertex -82.54990387 8.031166077 326.6350708

endloop
endfacet
endsolid
