solid 
facet normal 0 0.4466 -0.894734
outer loop
vertex -100.1219025 47.87584686 237.2459717
vertex -100.1218948 47.87584686 237.2459717
vertex -100.2557144 47.4486618 237.0327454

endloop
endfacet
facet normal 0.1060647368 0.4172834158 -0.9025657177
outer loop
vertex -100.2557144 47.4486618 237.0327454
vertex -100.1218948 47.87584686 237.2459717
vertex -99.86177826 47.52071381 237.1123505

endloop
endfacet
facet normal 0.261513561 -0.5660511851 -0.7817906737
outer loop
vertex -100.2557144 47.4486618 237.0327454
vertex -99.86177826 47.52071381 237.1123505
vertex -100.2876358 47.23925018 237.1736908

endloop
endfacet
facet normal 0.2858156562 -0.5959816575 -0.7504100204
outer loop
vertex -100.2876358 47.23925018 237.1736908
vertex -99.86177826 47.52071381 237.1123505
vertex -99.80387115 47.34621429 237.272995

endloop
endfacet
facet normal 0.287609756 -0.7614818811 -0.580883801
outer loop
vertex -100.2876358 47.23925018 237.1736908
vertex -99.80387115 47.34621429 237.272995
vertex -100.3232193 47.05963898 237.3915253

endloop
endfacet
facet normal 0.2895180881 -0.7634662986 -0.5773201585
outer loop
vertex -100.3232193 47.05963898 237.3915253
vertex -99.80387115 47.34621429 237.272995
vertex -99.78443909 47.18482208 237.49617

endloop
endfacet
facet normal 0.2813019753 -0.8671653867 -0.4109663665
outer loop
vertex -100.3232193 47.05963898 237.3915253
vertex -99.78443909 47.18482208 237.49617
vertex -100.3443604 46.95478058 237.5983124

endloop
endfacet
facet normal 0.2792333364 -0.8648770452 -0.4171526432
outer loop
vertex -100.3443604 46.95478058 237.5983124
vertex -99.78443909 47.18482208 237.49617
vertex -99.79832458 47.08048248 237.7032013

endloop
endfacet
facet normal 0.2812633812 -0.8498037457 -0.4457851648
outer loop
vertex -100.3443604 46.95478058 237.5983124
vertex -99.79832458 47.08048248 237.7032013
vertex -100.3595963 46.87448883 237.7417603

endloop
endfacet
facet normal 0.2745268941 -0.8367066979 -0.4738744497
outer loop
vertex -100.3595963 46.87448883 237.7417603
vertex -99.79832458 47.08048248 237.7032013
vertex -99.81212616 46.99407196 237.8477783

endloop
endfacet
facet normal 0.2780463696 -0.7951209545 -0.5389553905
outer loop
vertex -100.3595963 46.87448883 237.7417603
vertex -99.81212616 46.99407196 237.8477783
vertex -100.3730545 46.7589798 237.9052277

endloop
endfacet
facet normal 0.2687984109 -0.7795859575 -0.5656793714
outer loop
vertex -100.3730545 46.7589798 237.9052277
vertex -99.81212616 46.99407196 237.8477783
vertex -99.8238678 46.87250519 238.0097351

endloop
endfacet
facet normal 0.2692185938 -0.7706656456 -0.5775776505
outer loop
vertex -100.3730545 46.7589798 237.9052277
vertex -99.8238678 46.87250519 238.0097351
vertex -100.3838654 46.58794403 238.1284027

endloop
endfacet
facet normal 0.2633684576 -0.7639502883 -0.5890815258
outer loop
vertex -100.3838654 46.58794403 238.1284027
vertex -99.8238678 46.87250519 238.0097351
vertex -99.83378601 46.69863129 238.2307892

endloop
endfacet
facet normal 0.2635867 -0.7581506968 -0.5964306593
outer loop
vertex -100.383873 46.58794403 238.128418
vertex -99.83378601 46.69864655 238.2308044
vertex -100.3931122 46.42082977 238.3367615

endloop
endfacet
facet normal 0.2564031482 -0.7491529584 -0.6107595563
outer loop
vertex -100.3931122 46.42082977 238.3367615
vertex -99.83378601 46.69864655 238.2308044
vertex -99.8420105 46.52852631 238.4360199

endloop
endfacet
facet normal 0.2566887438 -0.7338293195 -0.6289716959
outer loop
vertex -100.3931122 46.42082977 238.3367615
vertex -99.8420105 46.52852631 238.4360199
vertex -100.4003983 46.2430954 238.541153

endloop
endfacet
facet normal 0.2469110489 -0.7213602066 -0.6470504999
outer loop
vertex -100.4003983 46.2430954 238.541153
vertex -99.8420105 46.52852631 238.4360199
vertex -99.84771729 46.34799957 238.6351013

endloop
endfacet
facet normal 0.2468788177 -0.7216351628 -0.6467561126
outer loop
vertex -100.4003906 46.24311066 238.5411835
vertex -99.84771729 46.34799957 238.6351166
vertex -100.4031448 46.03119659 238.7765808

endloop
endfacet
facet normal 0.2394013703 -0.7136776447 -0.6582942605
outer loop
vertex -100.4031448 46.03119659 238.7765808
vertex -99.84771729 46.34799957 238.6351166
vertex -99.84934235 46.1349411 238.865509

endloop
endfacet
facet normal 0.2394043654 -0.7139189243 -0.658031404
outer loop
vertex -100.4031448 46.03119659 238.7765808
vertex -99.84934235 46.1349411 238.865509
vertex -100.4030075 45.81259918 239.0137939

endloop
endfacet
facet normal 0.233362183 -0.7076342702 -0.6669301391
outer loop
vertex -100.4030075 45.81259918 239.0137939
vertex -99.84934235 46.1349411 238.865509
vertex -99.84843445 45.9146347 239.0995789

endloop
endfacet
facet normal 0.2330007404 -0.6915919781 -0.6836747527
outer loop
vertex -100.4030075 45.81259918 239.0137939
vertex -99.84843445 45.9146347 239.0995789
vertex -100.4010315 45.59404755 239.2355499

endloop
endfacet
facet normal 0.2267996967 -0.6847034693 -0.6926348209
outer loop
vertex -100.4010315 45.59404755 239.2355499
vertex -99.84843445 45.9146347 239.0995789
vertex -99.84561157 45.6926651 239.319931

endloop
endfacet
facet normal 0.2262953222 -0.6676347852 -0.7092632055
outer loop
vertex -100.4010315 45.59404755 239.2355499
vertex -99.84561157 45.6926651 239.319931
vertex -100.3956146 45.35089874 239.466156

endloop
endfacet
facet normal 0.2230587453 -0.6642279625 -0.7134746313
outer loop
vertex -100.3956146 45.35089874 239.466156
vertex -99.84561157 45.6926651 239.319931
vertex -99.83971405 45.44643402 239.5510101

endloop
endfacet
facet normal 0.2225041687 -0.6465830207 -0.72967273
outer loop
vertex -100.3955994 45.35092926 239.4661713
vertex -99.83970642 45.44644928 239.5510406
vertex -100.3899231 45.11275482 239.6789551

endloop
endfacet
facet normal 0.2196787298 -0.643345654 -0.7333809137
outer loop
vertex -100.3899231 45.11275482 239.6789551
vertex -99.83970642 45.44644928 239.5510406
vertex -99.83358002 45.20479584 239.7648621

endloop
endfacet
facet normal 0.2190306038 -0.6232135296 -0.7507533431
outer loop
vertex -100.3899231 45.11275482 239.6789551
vertex -99.83358002 45.20479584 239.7648621
vertex -100.382576 44.85663605 239.8937073

endloop
endfacet
facet normal 0.2172864377 -0.6212514639 -0.7528832555
outer loop
vertex -100.382576 44.85663605 239.8937073
vertex -99.83358002 45.20479584 239.7648621
vertex -99.82603455 44.9466629 239.9800415

endloop
endfacet
facet normal 0.217364803 -0.6237084866 -0.7508264184
outer loop
vertex -100.382576 44.85663605 239.8937073
vertex -99.82603455 44.9466629 239.9800415
vertex -100.3725891 44.58098602 240.1255798

endloop
endfacet
facet normal 0.2197416872 -0.6261686087 -0.7480818033
outer loop
vertex -100.3725891 44.58098602 240.1255798
vertex -99.82603455 44.9466629 239.9800415
vertex -99.81655121 44.67189789 240.2128143

endloop
endfacet
facet normal 0.2203030586 -0.646869421 -0.7300866842
outer loop
vertex -100.3725891 44.58098602 240.1255798
vertex -99.81655121 44.67189789 240.2128143
vertex -100.3599396 44.32099152 240.3597565

endloop
endfacet
facet normal 0.2245705277 -0.6512824893 -0.7248442173
outer loop
vertex -100.3599396 44.32099152 240.3597565
vertex -99.81655121 44.67189789 240.2128143
vertex -99.81124115 44.41301727 240.4470673

endloop
endfacet
facet normal 0.2239744514 -0.7759265304 -0.5897232294
outer loop
vertex -100.3599396 44.32099152 240.3597565
vertex -99.81124115 44.41301727 240.4470673
vertex -100.3301849 44.14289093 240.6053925

endloop
endfacet
facet normal 0.2306724787 -0.7822912931 -0.5786281824
outer loop
vertex -100.3301849 44.14289093 240.6053925
vertex -99.81124115 44.41301727 240.4470673
vertex -99.83831024 44.22949982 240.6843872

endloop
endfacet
facet normal 0.2221273631 -0.8816031814 -0.4164555967
outer loop
vertex -100.3301773 44.14289093 240.6053925
vertex -99.83830261 44.22949982 240.6844025
vertex -100.3036423 44.03894806 240.8395844

endloop
endfacet
facet normal 0.2121224254 -0.8740189075 -0.4371441901
outer loop
vertex -100.3036423 44.03894806 240.8395844
vertex -99.83830261 44.22949982 240.6844025
vertex -99.90496826 44.1067276 240.897522

endloop
endfacet
facet normal 0.06428990513 -0.8394343257 0.5396451354
outer loop
vertex -100.3036423 44.03894806 240.8395844
vertex -99.90496826 44.1067276 240.897522
vertex -100.1653976 44.29445648 241.2205658

endloop
endfacet
facet normal -nan(ind) -nan(ind) -nan(ind)
outer loop
vertex -100.1653976 44.29445648 241.2205658
vertex -99.90496826 44.1067276 240.897522
vertex -100.1653976 44.29445648 241.2205658

endloop
endfacet
facet normal -0.2902023196 -0.5158352852 0.8060375452
outer loop
vertex -100.1218948 47.87584686 237.2459717
vertex -100.1219101 47.8758316 237.2459564
vertex -99.86177826 47.52071381 237.1123505

endloop
endfacet
facet normal 0.2152351886 0.4780452847 -0.8515552878
outer loop
vertex -99.86177826 47.52071381 237.1123505
vertex -100.1219101 47.8758316 237.2459564
vertex -99.71559906 47.65883636 237.2268372

endloop
endfacet
facet normal 0.747190237 -0.298640281 -0.5937345028
outer loop
vertex -99.86177826 47.52071381 237.1123505
vertex -99.71559906 47.65883636 237.2268372
vertex -99.80387115 47.34621429 237.272995

endloop
endfacet
facet normal 0.7543754578 -0.2992696464 -0.5842561722
outer loop
vertex -99.80387115 47.34621429 237.272995
vertex -99.71559906 47.65883636 237.2268372
vertex -99.63406372 47.53447723 237.395813

endloop
endfacet
facet normal 0.7950248718 -0.456543237 -0.3993793428
outer loop
vertex -99.80387115 47.34621429 237.272995
vertex -99.63406372 47.53447723 237.395813
vertex -99.78443909 47.18482208 237.49617

endloop
endfacet
facet normal 0.7909158468 -0.4569600224 -0.4069885015
outer loop
vertex -99.78443909 47.18482208 237.49617
vertex -99.63406372 47.53447723 237.395813
vertex -99.59516907 47.40493011 237.6168518

endloop
endfacet
facet normal 0.7965838909 -0.5596322417 -0.2286169231
outer loop
vertex -99.78443909 47.18482208 237.49617
vertex -99.59516907 47.40493011 237.6168518
vertex -99.79832458 47.08048248 237.7032013

endloop
endfacet
facet normal 0.7951154113 -0.5598923564 -0.233049199
outer loop
vertex -99.79832458 47.08048248 237.7032013
vertex -99.59516907 47.40493011 237.6168518
vertex -99.60617065 47.30150604 237.8277893

endloop
endfacet
facet normal 0.7961851954 -0.5498022437 -0.2525995374
outer loop
vertex -99.79832458 47.08048248 237.7032013
vertex -99.60617065 47.30150604 237.8277893
vertex -99.81212616 46.99407196 237.8477783

endloop
endfacet
facet normal 0.7917186022 -0.5479457974 -0.2700685859
outer loop
vertex -99.81212616 46.99407196 237.8477783
vertex -99.60617065 47.30150604 237.8277893
vertex -99.61870575 47.20426178 237.9883423

endloop
endfacet
facet normal 0.7942039967 -0.5122246742 -0.3269035518
outer loop
vertex -99.81212616 46.99407196 237.8477783
vertex -99.61870575 47.20426178 237.9883423
vertex -99.8238678 46.87250519 238.0097351

endloop
endfacet
facet normal 0.7892142534 -0.5101091862 -0.3419494629
outer loop
vertex -99.8238678 46.87250519 238.0097351
vertex -99.61870575 47.20426178 237.9883423
vertex -99.62840271 47.07215118 238.1630402

endloop
endfacet
facet normal 0.7896601558 -0.4989610016 -0.3570360839
outer loop
vertex -99.8238678 46.87250519 238.0097351
vertex -99.62840271 47.07215118 238.1630402
vertex -99.83378601 46.69863129 238.2307892

endloop
endfacet
facet normal 0.7861244082 -0.4985249937 -0.3653510511
outer loop
vertex -99.83378601 46.69863129 238.2307892
vertex -99.62840271 47.07215118 238.1630402
vertex -99.63694 46.89324188 238.3887939

endloop
endfacet
facet normal 0.786362648 -0.4907136559 -0.3752782643
outer loop
vertex -99.83378601 46.69864655 238.2308044
vertex -99.63694763 46.89324188 238.3888092
vertex -99.8420105 46.52852631 238.4360199

endloop
endfacet
facet normal 0.781735599 -0.4895407557 -0.3863149583
outer loop
vertex -99.8420105 46.52852631 238.4360199
vertex -99.63694763 46.89324188 238.3888092
vertex -99.64337921 46.71793365 238.5979462

endloop
endfacet
facet normal 0.7819688916 -0.4727346003 -0.4062593877
outer loop
vertex -99.8420105 46.52852631 238.4360199
vertex -99.64337921 46.71793365 238.5979462
vertex -99.84771729 46.34799957 238.6351013

endloop
endfacet
facet normal 0.7756212354 -0.4706664085 -0.4205768406
outer loop
vertex -99.84771729 46.34799957 238.6351013
vertex -99.64337921 46.71793365 238.5979462
vertex -99.64653778 46.53244781 238.7996979

endloop
endfacet
facet normal 0.775603652 -0.4661507308 -0.4256083965
outer loop
vertex -99.84771729 46.34799957 238.6351166
vertex -99.64653015 46.53246307 238.7997131
vertex -99.84934235 46.1349411 238.865509

endloop
endfacet
facet normal 0.7708325982 -0.4652896523 -0.4351122379
outer loop
vertex -99.84934235 46.1349411 238.865509
vertex -99.64653015 46.53246307 238.7997131
vertex -99.64630127 46.31742096 239.0300751

endloop
endfacet
facet normal 0.7707881927 -0.4624298811 -0.4382284582
outer loop
vertex -99.84934235 46.1349411 238.865509
vertex -99.64630127 46.31742096 239.0300751
vertex -99.84843445 45.9146347 239.0995789

endloop
endfacet
facet normal 0.7666841745 -0.4617281556 -0.4460970461
outer loop
vertex -99.84843445 45.9146347 239.0995789
vertex -99.64630127 46.31742096 239.0300751
vertex -99.64386749 46.09407806 239.2654266

endloop
endfacet
facet normal 0.7663042545 -0.4477015734 -0.4608047903
outer loop
vertex -99.84843445 45.9146347 239.0995789
vertex -99.64386749 46.09407806 239.2654266
vertex -99.84561157 45.6926651 239.319931

endloop
endfacet
facet normal 0.7622486949 -0.4467000663 -0.4684399664
outer loop
vertex -99.84561157 45.6926651 239.319931
vertex -99.64386749 46.09407806 239.2654266
vertex -99.63938904 45.86603546 239.4901733

endloop
endfacet
facet normal 0.7618188858 -0.4334972501 -0.4813648164
outer loop
vertex -99.84561157 45.6926651 239.319931
vertex -99.63938904 45.86603546 239.4901733
vertex -99.83971405 45.44643402 239.5510101

endloop
endfacet
facet normal 0.75982517 -0.433057785 -0.4848985076
outer loop
vertex -99.83971405 45.44643402 239.5510101
vertex -99.63938904 45.86603546 239.4901733
vertex -99.63262177 45.61441803 239.7254944

endloop
endfacet
facet normal 0.7593888044 -0.4202489555 -0.4967085719
outer loop
vertex -99.83970642 45.44644928 239.5510406
vertex -99.63260651 45.61444855 239.7255249
vertex -99.83358002 45.20479584 239.7648621

endloop
endfacet
facet normal 0.7575750947 -0.4196711183 -0.499956131
outer loop
vertex -99.83358002 45.20479584 239.7648621
vertex -99.63260651 45.61444855 239.7255249
vertex -99.62564087 45.36666107 239.9440765

endloop
endfacet
facet normal 0.7570898533 -0.4051193297 -0.5125361085
outer loop
vertex -99.83358002 45.20479584 239.7648621
vertex -99.62564087 45.36666107 239.9440765
vertex -99.82603455 44.9466629 239.9800415

endloop
endfacet
facet normal 0.7559909225 -0.4047580063 -0.5144401193
outer loop
vertex -99.82603455 44.9466629 239.9800415
vertex -99.62564087 45.36666107 239.9440765
vertex -99.61755371 45.10501862 240.1618195

endloop
endfacet
facet normal 0.7560793161 -0.4076641202 -0.5120099187
outer loop
vertex -99.82603455 44.9466629 239.9800415
vertex -99.61755371 45.10501862 240.1618195
vertex -99.81655121 44.67189789 240.2128143

endloop
endfacet
facet normal 0.7575953603 -0.4080590308 -0.5094478726
outer loop
vertex -99.81655121 44.67189789 240.2128143
vertex -99.61755371 45.10501862 240.1618195
vertex -99.60874176 44.83170319 240.3938446

endloop
endfacet
facet normal 0.7579603791 -0.4290491045 -0.4913377762
outer loop
vertex -99.81655121 44.67189789 240.2128143
vertex -99.60874176 44.83170319 240.3938446
vertex -99.81124115 44.41301727 240.4470673

endloop
endfacet
facet normal 0.7608821988 -0.4298011363 -0.4861370623
outer loop
vertex -99.81124115 44.41301727 240.4470673
vertex -99.60874176 44.83170319 240.3938446
vertex -99.60709381 44.57480621 240.6235504

endloop
endfacet
facet normal 0.748711884 -0.5629920959 -0.3499577045
outer loop
vertex -99.81124115 44.41301727 240.4470673
vertex -99.60709381 44.57480621 240.6235504
vertex -99.83831024 44.22949982 240.6843872

endloop
endfacet
facet normal 0.7548575401 -0.5643373132 -0.3342355192
outer loop
vertex -99.83831024 44.22949982 240.6843872
vertex -99.60709381 44.57480621 240.6235504
vertex -99.6565094 44.38208771 240.8373413

endloop
endfacet
facet normal 0.713110745 -0.6804027557 -0.168893829
outer loop
vertex -99.83830261 44.22949982 240.6844025
vertex -99.6565094 44.38207245 240.837326
vertex -99.90496826 44.1067276 240.897522

endloop
endfacet
facet normal 0.7106646895 -0.680392921 -0.1789445877
outer loop
vertex -99.90496826 44.1067276 240.897522
vertex -99.6565094 44.38207245 240.837326
vertex -99.75123596 44.2372818 241.0116577

endloop
endfacet
facet normal 0.2007290423 -0.7680294514 0.6081436276
outer loop
vertex -99.90496826 44.1067276 240.897522
vertex -99.75123596 44.2372818 241.0116577
vertex -100.1653976 44.29445648 241.2205658

endloop
endfacet
facet normal -0.2172171474 0.7423478961 -0.6338267326
outer loop
vertex -100.1653976 44.29445648 241.2205658
vertex -99.75123596 44.2372818 241.0116577
vertex -100.1654053 44.29444122 241.2205505

endloop
endfacet
facet normal 0.2864666879 0.6020594239 -0.7452927232
outer loop
vertex -100.1219101 47.8758316 237.2459564
vertex -100.1219025 47.87584686 237.2459717
vertex -99.71559906 47.65883636 237.2268372

endloop
endfacet
facet normal 0.2586863339 0.5540980697 -0.7912374735
outer loop
vertex -99.71559906 47.65883636 237.2268372
vertex -100.1219025 47.87584686 237.2459717
vertex -99.68062592 47.80237579 237.3387909

endloop
endfacet
facet normal 0.9190525413 0.07748178393 -0.3864440024
outer loop
vertex -99.71559906 47.65883636 237.2268372
vertex -99.68062592 47.80237579 237.3387909
vertex -99.63406372 47.53447723 237.395813

endloop
endfacet
facet normal 0.9145488739 0.07432715595 -0.397587359
outer loop
vertex -99.63406372 47.53447723 237.395813
vertex -99.68062592 47.80237579 237.3387909
vertex -99.60112762 47.71901703 237.506073

endloop
endfacet
facet normal 0.9777030349 -0.0531087108 -0.2031656653
outer loop
vertex -99.63406372 47.53447723 237.395813
vertex -99.60112762 47.71901703 237.506073
vertex -99.59516907 47.40493011 237.6168518

endloop
endfacet
facet normal 0.9738366008 -0.05893419683 -0.2194744796
outer loop
vertex -99.59516907 47.40493011 237.6168518
vertex -99.60112762 47.71901703 237.506073
vertex -99.55827332 47.62052155 237.7226715

endloop
endfacet
facet normal 0.9873438478 -0.1565677375 -0.02527063526
outer loop
vertex -99.59516907 47.40493011 237.6168518
vertex -99.55827332 47.62052155 237.7226715
vertex -99.60617065 47.30150604 237.8277893

endloop
endfacet
facet normal 0.9870830178 -0.157632485 -0.02862075716
outer loop
vertex -99.60617065 47.30150604 237.8277893
vertex -99.55827332 47.62052155 237.7226715
vertex -99.56840515 47.51795197 237.9381561

endloop
endfacet
facet normal 0.986646831 -0.1615392715 -0.02080966532
outer loop
vertex -99.60617065 47.30150604 237.8277893
vertex -99.56840515 47.51795197 237.9381561
vertex -99.61870575 47.20426178 237.9883423

endloop
endfacet
facet normal 0.9858878851 -0.1636961102 -0.035051696
outer loop
vertex -99.61870575 47.20426178 237.9883423
vertex -99.56840515 47.51795197 237.9381561
vertex -99.57994843 47.4101181 238.1170807

endloop
endfacet
facet normal 0.9870570302 -0.1494307369 -0.05821438134
outer loop
vertex -99.61870575 47.20426178 237.9883423
vertex -99.57994843 47.4101181 238.1170807
vertex -99.62840271 47.07215118 238.1630402

endloop
endfacet
facet normal 0.9858497381 -0.1511875093 -0.07240587473
outer loop
vertex -99.62840271 47.07215118 238.1630402
vertex -99.57994843 47.4101181 238.1170807
vertex -99.58783722 47.26763153 238.3071899

endloop
endfacet
facet normal 0.9860650301 -0.146505639 -0.07881549001
outer loop
vertex -99.62840271 47.07215118 238.1630402
vertex -99.58783722 47.26763153 238.3071899
vertex -99.63694 46.89324188 238.3887939

endloop
endfacet
facet normal 0.985170424 -0.1480946094 -0.08664381504
outer loop
vertex -99.63694 46.89324188 238.3887939
vertex -99.58783722 47.26763153 238.3071899
vertex -99.59506226 47.08379364 238.5392609

endloop
endfacet
facet normal 0.9852734804 -0.1447410882 -0.09102856368
outer loop
vertex -99.63694763 46.89324188 238.3888092
vertex -99.59505463 47.08379364 238.5392609
vertex -99.64337921 46.71793365 238.5979462

endloop
endfacet
facet normal 0.984041214 -0.1462381482 -0.1013764068
outer loop
vertex -99.64337921 46.71793365 238.5979462
vertex -99.59505463 47.08379364 238.5392609
vertex -99.59973907 46.90338898 238.7540283

endloop
endfacet
facet normal 0.9841706157 -0.1378742754 -0.1113504916
outer loop
vertex -99.64337921 46.71793365 238.5979462
vertex -99.59973907 46.90338898 238.7540283
vertex -99.64653778 46.53244781 238.7996979

endloop
endfacet
facet normal 0.982346952 -0.1393065155 -0.1248525381
outer loop
vertex -99.64653778 46.53244781 238.7996979
vertex -99.59973907 46.90338898 238.7540283
vertex -99.60044861 46.71308136 238.9607849

endloop
endfacet
facet normal 0.9823420644 -0.1362767369 -0.1281899065
outer loop
vertex -99.64653015 46.53246307 238.7997131
vertex -99.60044861 46.71309662 238.9608154
vertex -99.64630127 46.31742096 239.0300751

endloop
endfacet
facet normal 0.9809008837 -0.1377149969 -0.1373607963
outer loop
vertex -99.64630127 46.31742096 239.0300751
vertex -99.60044861 46.71309662 238.9608154
vertex -99.59841156 46.49611664 239.1929016

endloop
endfacet
facet normal 0.9808760881 -0.1360154897 -0.1392186582
outer loop
vertex -99.64630127 46.31742096 239.0300751
vertex -99.59841156 46.49611664 239.1929016
vertex -99.64386749 46.09407806 239.2654266

endloop
endfacet
facet normal 0.9796062708 -0.1372325271 -0.1467610896
outer loop
vertex -99.64386749 46.09407806 239.2654266
vertex -99.59841156 46.49611664 239.1929016
vertex -99.59445953 46.26984406 239.4308624

endloop
endfacet
facet normal 0.9794656038 -0.1314343512 -0.1528793275
outer loop
vertex -99.64386749 46.09407806 239.2654266
vertex -99.59445953 46.26984406 239.4308624
vertex -99.63938904 45.86603546 239.4901733

endloop
endfacet
facet normal 0.9781385064 -0.1323870122 -0.160370782
outer loop
vertex -99.63938904 45.86603546 239.4901733
vertex -99.59445953 46.26984406 239.4308624
vertex -99.58835602 46.03586578 239.6612396

endloop
endfacet
facet normal 0.9780002236 -0.1278524101 -0.1648313701
outer loop
vertex -99.63938904 45.86603546 239.4901733
vertex -99.58835602 46.03586578 239.6612396
vertex -99.63262177 45.61441803 239.7254944

endloop
endfacet
facet normal 0.9773081541 -0.1283412874 -0.1685147285
outer loop
vertex -99.63262177 45.61441803 239.7254944
vertex -99.58835602 46.03586578 239.6612396
vertex -99.58069611 45.77892303 239.9013519

endloop
endfacet
facet normal 0.9771876931 -0.1243699268 -0.1721517593
outer loop
vertex -99.63260651 45.61444855 239.7255249
vertex -99.58068848 45.77895355 239.9013824
vertex -99.62564087 45.36666107 239.9440765

endloop
endfacet
facet normal 0.9765537381 -0.1246490702 -0.1755147874
outer loop
vertex -99.62564087 45.36666107 239.9440765
vertex -99.58068848 45.77895355 239.9013824
vertex -99.57286835 45.52519989 240.1251068

endloop
endfacet
facet normal 0.9763876796 -0.1195573956 -0.1799254268
outer loop
vertex -99.62564087 45.36666107 239.9440765
vertex -99.57286835 45.52519989 240.1251068
vertex -99.61755371 45.10501862 240.1618195

endloop
endfacet
facet normal 0.9759687185 -0.1197018847 -0.1820891052
outer loop
vertex -99.61755371 45.10501862 240.1618195
vertex -99.57286835 45.52519989 240.1251068
vertex -99.56422424 45.26006317 240.3457336

endloop
endfacet
facet normal 0.976031065 -0.1216986775 -0.1804238111
outer loop
vertex -99.61755371 45.10501862 240.1618195
vertex -99.56422424 45.26006317 240.3457336
vertex -99.60874176 44.83170319 240.3938446

endloop
endfacet
facet normal 0.9765591025 -0.1214492321 -0.1777143329
outer loop
vertex -99.60874176 44.83170319 240.3938446
vertex -99.56422424 45.26006317 240.3457336
vertex -99.55602264 44.98821259 240.5765839

endloop
endfacet
facet normal 0.9768256545 -0.1391507834 -0.1626305133
outer loop
vertex -99.60874176 44.83170319 240.3938446
vertex -99.55602264 44.98821259 240.5765839
vertex -99.60709381 44.57480621 240.6235504

endloop
endfacet
facet normal 0.9778180122 -0.1386349052 -0.1570105106
outer loop
vertex -99.60709381 44.57480621 240.6235504
vertex -99.55602264 44.98821259 240.5765839
vertex -99.55613708 44.733284 240.8009644

endloop
endfacet
facet normal 0.9603515267 -0.2773761451 -0.02806101367
outer loop
vertex -99.60709381 44.57480621 240.6235504
vertex -99.55613708 44.733284 240.8009644
vertex -99.6565094 44.38208771 240.8373413

endloop
endfacet
facet normal 0.961227715 -0.2756191492 -0.008680613711
outer loop
vertex -99.6565094 44.38208771 240.8373413
vertex -99.55613708 44.733284 240.8009644
vertex -99.61223602 44.53168488 240.989975

endloop
endfacet
facet normal 0.8988204598 -0.4137148261 0.1447822601
outer loop
vertex -99.6565094 44.38207245 240.837326
vertex -99.61223602 44.53168488 240.9899902
vertex -99.75123596 44.2372818 241.0116577

endloop
endfacet
facet normal 0.8981931806 -0.4129882157 0.1506309658
outer loop
vertex -99.75123596 44.2372818 241.0116577
vertex -99.61223602 44.53168488 240.9899902
vertex -99.7086792 44.3733139 241.1308594

endloop
endfacet
facet normal 0.2525788248 -0.6811720729 0.6871744394
outer loop
vertex -99.75123596 44.2372818 241.0116577
vertex -99.7086792 44.3733139 241.1308594
vertex -100.1654053 44.29444122 241.2205505

endloop
endfacet
facet normal 0.2501180768 -0.7442637086 0.6192839146
outer loop
vertex -100.1654053 44.29444122 241.2205505
vertex -99.7086792 44.3733139 241.1308594
vertex -100.16539 44.29447174 241.2205811

endloop
endfacet
facet normal 0.1642358154 0.9864211679 0
outer loop
vertex -100.1219025 47.87584686 237.2459717
vertex -100.1219025 47.87584686 237.2459869
vertex -99.68062592 47.80237579 237.3387909

endloop
endfacet
facet normal 0.2587688565 0.6370605826 -0.7260802388
outer loop
vertex -99.68062592 47.80237579 237.3387909
vertex -100.1219025 47.87584686 237.2459869
vertex -99.73439026 47.94478607 237.4445801

endloop
endfacet
facet normal 0.867698431 0.4626464546 -0.1818179935
outer loop
vertex -99.68062592 47.80237579 237.3387909
vertex -99.73439026 47.94478607 237.4445801
vertex -99.60112762 47.71901703 237.506073

endloop
endfacet
facet normal 0.866572082 0.4567131102 -0.2011615038
outer loop
vertex -99.60112762 47.71901703 237.506073
vertex -99.73439026 47.94478607 237.4445801
vertex -99.67025757 47.89247894 237.6020966

endloop
endfacet
facet normal 0.9265149832 0.3760566711 -0.01230512653
outer loop
vertex -99.60112762 47.71901703 237.506073
vertex -99.67025757 47.89247894 237.6020966
vertex -99.55827332 47.62052155 237.7226715

endloop
endfacet
facet normal 0.9294694066 0.3672415912 -0.03493148834
outer loop
vertex -99.55827332 47.62052155 237.7226715
vertex -99.67025757 47.89247894 237.6020966
vertex -99.63490295 47.82303619 237.8127594

endloop
endfacet
facet normal 0.9439996481 0.2784875333 0.1769444197
outer loop
vertex -99.55827332 47.62052155 237.7226715
vertex -99.63490295 47.82303619 237.8127594
vertex -99.56840515 47.51795197 237.9381561

endloop
endfacet
facet normal 0.944766283 0.2775622904 0.1742867976
outer loop
vertex -99.56840515 47.51795197 237.9381561
vertex -99.63490295 47.82303619 237.8127594
vertex -99.64564514 47.72127533 238.0330505

endloop
endfacet
facet normal 0.9419791102 0.2571514249 0.2157510072
outer loop
vertex -99.56840515 47.51795197 237.9381561
vertex -99.64564514 47.72127533 238.0330505
vertex -99.57994843 47.4101181 238.1170807

endloop
endfacet
facet normal 0.9456167817 0.2543973625 0.2027090043
outer loop
vertex -99.57994843 47.4101181 238.1170807
vertex -99.64564514 47.72127533 238.0330505
vertex -99.65644836 47.60349274 238.2312622

endloop
endfacet
facet normal 0.9444561601 0.2429649383 0.2212930918
outer loop
vertex -99.57994843 47.4101181 238.1170807
vertex -99.65644836 47.60349274 238.2312622
vertex -99.58783722 47.26763153 238.3071899

endloop
endfacet
facet normal 0.9486138821 0.2403241545 0.2058546245
outer loop
vertex -99.58783722 47.26763153 238.3071899
vertex -99.65644836 47.60349274 238.2312622
vertex -99.66278076 47.4512558 238.4381714

endloop
endfacet
facet normal 0.9482629895 0.2338320911 0.2147551924
outer loop
vertex -99.58783722 47.26763153 238.3071899
vertex -99.66278076 47.4512558 238.4381714
vertex -99.59506226 47.08379364 238.5392609

endloop
endfacet
facet normal 0.9504788518 0.2320395708 0.2067549974
outer loop
vertex -99.59506226 47.08379364 238.5392609
vertex -99.66278076 47.4512558 238.4381714
vertex -99.66880035 47.26279449 238.6773529

endloop
endfacet
facet normal 0.9503005147 0.2278717309 0.2121399492
outer loop
vertex -99.59505463 47.08379364 238.5392609
vertex -99.66880035 47.26277924 238.6773529
vertex -99.59973907 46.90338898 238.7540283

endloop
endfacet
facet normal 0.9528288245 0.2262578905 0.2022982836
outer loop
vertex -99.59973907 46.90338898 238.7540283
vertex -99.66880035 47.26277924 238.6773529
vertex -99.67184448 47.07759857 238.8988037

endloop
endfacet
facet normal 0.9527356625 0.2218905836 0.2075071335
outer loop
vertex -99.59973907 46.90338898 238.7540283
vertex -99.67184448 47.07759857 238.8988037
vertex -99.60044861 46.71308136 238.9607849

endloop
endfacet
facet normal 0.9558623433 0.2202797979 0.1944323778
outer loop
vertex -99.60044861 46.71308136 238.9607849
vertex -99.67184448 47.07759857 238.8988037
vertex -99.6703186 46.88274384 239.1120605

endloop
endfacet
facet normal 0.9558683634 0.2187501937 0.196122244
outer loop
vertex -99.60044861 46.71309662 238.9608154
vertex -99.67031097 46.88275909 239.1120758
vertex -99.59841156 46.49611664 239.1929016

endloop
endfacet
facet normal 0.9580485821 0.217238307 0.1869505495
outer loop
vertex -99.59841156 46.49611664 239.1929016
vertex -99.67031097 46.88275909 239.1120758
vertex -99.66654968 46.66394806 239.3470612

endloop
endfacet
facet normal 0.9580689669 0.2154257596 0.1889329106
outer loop
vertex -99.59841156 46.49611664 239.1929016
vertex -99.66654968 46.66394806 239.3470612
vertex -99.59445953 46.26984406 239.4308624

endloop
endfacet
facet normal 0.9597433209 0.2141934782 0.181697309
outer loop
vertex -99.59445953 46.26984406 239.4308624
vertex -99.66654968 46.66394806 239.3470612
vertex -99.66114044 46.43491364 239.5884857

endloop
endfacet
facet normal 0.959833622 0.2091632932 0.1870033443
outer loop
vertex -99.59445953 46.26984406 239.4308624
vertex -99.66114044 46.43491364 239.5884857
vertex -99.58835602 46.03586578 239.6612396

endloop
endfacet
facet normal 0.9614716172 0.208114624 0.1796128601
outer loop
vertex -99.58835602 46.03586578 239.6612396
vertex -99.66114044 46.43491364 239.5884857
vertex -99.65350342 46.19536591 239.8251648

endloop
endfacet
facet normal 0.9616318345 0.202070713 0.1855572909
outer loop
vertex -99.58835602 46.03586578 239.6612396
vertex -99.65350342 46.19536591 239.8251648
vertex -99.58069611 45.77892303 239.9013519

endloop
endfacet
facet normal 0.9624567628 0.2015327662 0.1818285286
outer loop
vertex -99.58069611 45.77892303 239.9013519
vertex -99.65350342 46.19536591 239.8251648
vertex -99.64497375 45.93347931 240.070282

endloop
endfacet
facet normal 0.9626371861 0.1951701492 0.1877184361
outer loop
vertex -99.58068848 45.77895355 239.9013824
vertex -99.64496613 45.93350983 240.0703125
vertex -99.57286835 45.52519989 240.1251068

endloop
endfacet
facet normal 0.9633465409 0.1948479712 0.1843845248
outer loop
vertex -99.57286835 45.52519989 240.1251068
vertex -99.64496613 45.93350983 240.0703125
vertex -99.63633728 45.67415619 240.2993011

endloop
endfacet
facet normal 0.9635275006 0.1890352666 0.1894210279
outer loop
vertex -99.57286835 45.52519989 240.1251068
vertex -99.63633728 45.67415619 240.2993011
vertex -99.56422424 45.26006317 240.3457336

endloop
endfacet
facet normal 0.9639766812 0.1888739616 0.1872848272
outer loop
vertex -99.56422424 45.26006317 240.3457336
vertex -99.63633728 45.67415619 240.2993011
vertex -99.62718201 45.40572357 240.5228882

endloop
endfacet
facet normal 0.9639914632 0.1884336621 0.1876520962
outer loop
vertex -99.56422424 45.26006317 240.3457336
vertex -99.62718201 45.40572357 240.5228882
vertex -99.55602264 44.98821259 240.5765839

endloop
endfacet
facet normal 0.9634452462 0.188668713 0.1902037412
outer loop
vertex -99.55602264 44.98821259 240.5765839
vertex -99.62718201 45.40572357 240.5228882
vertex -99.61949158 45.13521576 240.7522583

endloop
endfacet
facet normal 0.9636726379 0.1762200445 0.2007028759
outer loop
vertex -99.55602264 44.98821259 240.5765839
vertex -99.61949158 45.13521576 240.7522583
vertex -99.55613708 44.733284 240.8009644

endloop
endfacet
facet normal 0.9624149203 0.1766933948 0.2062451243
outer loop
vertex -99.55613708 44.733284 240.8009644
vertex -99.61949158 45.13521576 240.7522583
vertex -99.61989594 44.88211823 240.9709778

endloop
endfacet
facet normal 0.9461533427 0.03810834512 0.3214677274
outer loop
vertex -99.55613708 44.733284 240.8009644
vertex -99.61989594 44.88211823 240.9709778
vertex -99.61223602 44.53168488 240.989975

endloop
endfacet
facet normal 0.9390640259 0.03904033452 0.3415181935
outer loop
vertex -99.61223602 44.53168488 240.989975
vertex -99.61989594 44.88211823 240.9709778
vertex -99.67101288 44.67234039 241.1355133

endloop
endfacet
facet normal 0.8761090636 -0.1176563576 0.4675359428
outer loop
vertex -99.61223602 44.53168488 240.9899902
vertex -99.67100525 44.67234039 241.1355133
vertex -99.7086792 44.3733139 241.1308594

endloop
endfacet
facet normal 0.8721419573 -0.1172725558 0.4749900401
outer loop
vertex -99.7086792 44.3733139 241.1308594
vertex -99.67100525 44.67234039 241.1355133
vertex -99.75514221 44.50847626 241.2495422

endloop
endfacet
facet normal 0.252469629 -0.5879816413 0.7684637904
outer loop
vertex -99.7086792 44.3733139 241.1308594
vertex -99.75514221 44.50847626 241.2495422
vertex -100.16539 44.29447174 241.2205811

endloop
endfacet
facet normal 0.09497155249 -0.04743573815 -0.9943491817
outer loop
vertex -100.16539 44.29447174 241.2205811
vertex -99.75514221 44.50847626 241.2495422
vertex -100.1653976 44.29445648 241.2205811

endloop
endfacet
facet normal 0.1751519144 -0.9845414162 0
outer loop
vertex -100.1219025 47.87584686 237.2459869
vertex -100.1219025 47.87584686 237.2459717
vertex -99.73439026 47.94478607 237.4445801

endloop
endfacet
facet normal 0.2150911242 0.7131380439 -0.6672105789
outer loop
vertex -99.73439026 47.94478607 237.4445801
vertex -100.1219025 47.87584686 237.2459717
vertex -99.88009644 48.069664 237.5310822

endloop
endfacet
facet normal 0.6471645236 0.7622799873 -0.01035903953
outer loop
vertex -99.73439026 47.94478607 237.4445801
vertex -99.88009644 48.069664 237.5310822
vertex -99.67025757 47.89247894 237.6020966

endloop
endfacet
facet normal 0.6559426785 0.7523322701 -0.0611173436
outer loop
vertex -99.67025757 47.89247894 237.6020966
vertex -99.88009644 48.069664 237.5310822
vertex -99.83772278 48.0446701 237.6781921

endloop
endfacet
facet normal 0.6964495182 0.7080811858 0.1165293157
outer loop
vertex -99.67025757 47.89247894 237.6020966
vertex -99.83772278 48.0446701 237.6781921
vertex -99.63490295 47.82303619 237.8127594

endloop
endfacet
facet normal 0.705750823 0.7023254037 0.0930306986
outer loop
vertex -99.63490295 47.82303619 237.8127594
vertex -99.83772278 48.0446701 237.6781921
vertex -99.82079315 48.00067902 237.8818665

endloop
endfacet
facet normal 0.7139175534 0.6217823029 0.3220381141
outer loop
vertex -99.63490295 47.82303619 237.8127594
vertex -99.82079315 48.00067902 237.8818665
vertex -99.64564514 47.72127533 238.0330505

endloop
endfacet
facet normal 0.7152966857 0.6213929653 0.3197209239
outer loop
vertex -99.64564514 47.72127533 238.0330505
vertex -99.82079315 48.00067902 237.8818665
vertex -99.83358765 47.8996048 238.1069336

endloop
endfacet
facet normal 0.7100765109 0.5876459479 0.3878962994
outer loop
vertex -99.64564514 47.72127533 238.0330505
vertex -99.83358765 47.8996048 238.1069336
vertex -99.65644836 47.60349274 238.2312622

endloop
endfacet
facet normal 0.7171691656 0.5868425965 0.375877738
outer loop
vertex -99.65644836 47.60349274 238.2312622
vertex -99.83358765 47.8996048 238.1069336
vertex -99.84395599 47.77306366 238.3242798

endloop
endfacet
facet normal 0.713613987 0.5536593795 0.4292042553
outer loop
vertex -99.65644836 47.60349274 238.2312622
vertex -99.84395599 47.77306366 238.3242798
vertex -99.66278076 47.4512558 238.4381714

endloop
endfacet
facet normal 0.7228272557 0.5534076095 0.4138367474
outer loop
vertex -99.66278076 47.4512558 238.4381714
vertex -99.84395599 47.77306366 238.3242798
vertex -99.84909821 47.61229706 238.5482483

endloop
endfacet
facet normal 0.7217885852 0.534686327 0.4394676983
outer loop
vertex -99.66278076 47.4512558 238.4381714
vertex -99.84909821 47.61229706 238.5482483
vertex -99.66880035 47.26279449 238.6773529

endloop
endfacet
facet normal 0.7267592549 0.5343497992 0.4316148758
outer loop
vertex -99.66880035 47.26279449 238.6773529
vertex -99.84909821 47.61229706 238.5482483
vertex -99.85408783 47.41976166 238.7950134

endloop
endfacet
facet normal 0.726331532 0.5223383307 0.4467719495
outer loop
vertex -99.66880035 47.26277924 238.6773529
vertex -99.85408783 47.41977692 238.7950287
vertex -99.67184448 47.07759857 238.8988037

endloop
endfacet
facet normal 0.7317156196 0.522467792 0.437743783
outer loop
vertex -99.67184448 47.07759857 238.8988037
vertex -99.85408783 47.41977692 238.7950287
vertex -99.85572815 47.23038483 239.023819

endloop
endfacet
facet normal 0.731331706 0.5060940981 0.457190007
outer loop
vertex -99.67184448 47.07759857 238.8988037
vertex -99.85572815 47.23038483 239.023819
vertex -99.6703186 46.88274384 239.1120605

endloop
endfacet
facet normal 0.7385305762 0.5067644119 0.4447048604
outer loop
vertex -99.6703186 46.88274384 239.1120605
vertex -99.85572815 47.23038483 239.023819
vertex -99.85224915 47.03153229 239.2446442

endloop
endfacet
facet normal 0.7385438085 0.4992690682 0.4530822635
outer loop
vertex -99.67031097 46.88275909 239.1120758
vertex -99.85224152 47.03154755 239.2446747
vertex -99.66654968 46.66394806 239.3470612

endloop
endfacet
facet normal 0.7436685562 0.4994457066 0.444422096
outer loop
vertex -99.66654968 46.66394806 239.3470612
vertex -99.85224152 47.03154755 239.2446747
vertex -99.84697723 46.8111496 239.483551

endloop
endfacet
facet normal 0.7437309027 0.4932076633 0.4512321353
outer loop
vertex -99.66654968 46.66394806 239.3470612
vertex -99.84697723 46.8111496 239.483551
vertex -99.66114044 46.43491364 239.5884857

endloop
endfacet
facet normal 0.7476661801 0.493296802 0.4445824027
outer loop
vertex -99.66114044 46.43491364 239.5884857
vertex -99.84697723 46.8111496 239.483551
vertex -99.840271 46.57968903 239.7290955

endloop
endfacet
facet normal 0.7478915453 0.4784694314 0.4601361454
outer loop
vertex -99.66114044 46.43491364 239.5884857
vertex -99.840271 46.57968903 239.7290955
vertex -99.65350342 46.19536591 239.8251648

endloop
endfacet
facet normal 0.7519925237 0.4787145555 0.4531441331
outer loop
vertex -99.65350342 46.19536591 239.8251648
vertex -99.840271 46.57968903 239.7290955
vertex -99.83126068 46.33525848 239.9723663

endloop
endfacet
facet normal 0.7523870468 0.4630302489 0.468526125
outer loop
vertex -99.65350342 46.19536591 239.8251648
vertex -99.83126068 46.33525848 239.9723663
vertex -99.64497375 45.93347931 240.070282

endloop
endfacet
facet normal 0.7545285225 0.4631513655 0.4649489522
outer loop
vertex -99.64497375 45.93347931 240.070282
vertex -99.83126068 46.33525848 239.9723663
vertex -99.82193756 46.06902313 240.2224426

endloop
endfacet
facet normal 0.7549237013 0.447991848 0.4789503515
outer loop
vertex -99.64496613 45.93350983 240.0703125
vertex -99.82193756 46.06905365 240.2224731
vertex -99.63633728 45.67415619 240.2993011

endloop
endfacet
facet normal 0.756731391 0.4482395053 0.4758560359
outer loop
vertex -99.63633728 45.67415619 240.2993011
vertex -99.82193756 46.06905365 240.2224731
vertex -99.81258392 45.80477142 240.456543

endloop
endfacet
facet normal 0.7571976781 0.4330957532 0.4889579713
outer loop
vertex -99.63633728 45.67415619 240.2993011
vertex -99.81258392 45.80477142 240.456543
vertex -99.62718201 45.40572357 240.5228882

endloop
endfacet
facet normal 0.7583671212 0.4333060682 0.4869548976
outer loop
vertex -99.62718201 45.40572357 240.5228882
vertex -99.81258392 45.80477142 240.456543
vertex -99.80297089 45.53347015 240.6829834

endloop
endfacet
facet normal 0.7583435774 0.4339812994 0.4863900542
outer loop
vertex -99.62718201 45.40572357 240.5228882
vertex -99.80297089 45.53347015 240.6829834
vertex -99.61949158 45.13521576 240.7522583

endloop
endfacet
facet normal 0.7568791509 0.4337397814 0.4888800085
outer loop
vertex -99.61949158 45.13521576 240.7522583
vertex -99.80297089 45.53347015 240.6829834
vertex -99.79571533 45.26413727 240.9107056

endloop
endfacet
facet normal 0.7570448518 0.4265094697 0.4949472845
outer loop
vertex -99.61949158 45.13521576 240.7522583
vertex -99.79571533 45.26413727 240.9107056
vertex -99.61989594 44.88211823 240.9709778

endloop
endfacet
facet normal 0.7540652752 0.4259303808 0.4999688268
outer loop
vertex -99.61989594 44.88211823 240.9709778
vertex -99.79571533 45.26413727 240.9107056
vertex -99.79489899 45.01268768 241.1236877

endloop
endfacet
facet normal 0.7430914044 0.2914155126 0.6024053097
outer loop
vertex -99.61989594 44.88211823 240.9709778
vertex -99.79489899 45.01268768 241.1236877
vertex -99.67101288 44.67234039 241.1355133

endloop
endfacet
facet normal 0.7302550077 0.2873476744 0.6198055744
outer loop
vertex -99.67101288 44.67234039 241.1355133
vertex -99.79489899 45.01268768 241.1236877
vertex -99.82970428 44.7957077 241.2652893

endloop
endfacet
facet normal 0.6898117065 0.1400956213 0.7103049159
outer loop
vertex -99.67100525 44.67234039 241.1355133
vertex -99.82970428 44.79569244 241.2653046
vertex -99.75514221 44.50847626 241.2495422

endloop
endfacet
facet normal 0.6633557677 0.1317840666 0.7366085052
outer loop
vertex -99.75514221 44.50847626 241.2495422
vertex -99.82970428 44.79569244 241.2653046
vertex -99.89468384 44.62699127 241.3540039

endloop
endfacet
facet normal 0.2026878148 -0.5022847652 0.8406114578
outer loop
vertex -99.75514221 44.50847626 241.2495422
vertex -99.89468384 44.62699127 241.3540039
vertex -100.1653976 44.29445648 241.2205811

endloop
endfacet
facet normal -0.7756786346 0.6311280727 0
outer loop
vertex -100.1653976 44.29445648 241.2205811
vertex -99.89468384 44.62699127 241.3540039
vertex -100.1653976 44.29445648 241.2205658

endloop
endfacet
facet normal 0.7626488805 0 -0.6468127966
outer loop
vertex -100.1219025 47.87584686 237.2459717
vertex -100.1219025 47.87586212 237.2459717
vertex -99.88009644 48.069664 237.5310822

endloop
endfacet
facet normal 0.1181136966 0.7717997432 -0.6247994304
outer loop
vertex -99.88009644 48.069664 237.5310822
vertex -100.1219025 47.87586212 237.2459717
vertex -100.1040115 48.12940216 237.5625458

endloop
endfacet
facet normal 0.2680622637 0.9595716596 0.08581779152
outer loop
vertex -99.88009644 48.069664 237.5310822
vertex -100.1040115 48.12940216 237.5625458
vertex -99.83772278 48.0446701 237.6781921

endloop
endfacet
facet normal 0.2860852778 0.9572558403 0.04262103885
outer loop
vertex -99.83772278 48.0446701 237.6781921
vertex -100.1040115 48.12940216 237.5625458
vertex -100.0973129 48.12114716 237.7029877

endloop
endfacet
facet normal 0.2937066853 0.9390967488 0.1784198284
outer loop
vertex -99.83772278 48.0446701 237.6781921
vertex -100.0973129 48.12114716 237.7029877
vertex -99.82079315 48.00067902 237.8818665

endloop
endfacet
facet normal 0.3012375832 0.9388771057 0.1666303426
outer loop
vertex -99.82079315 48.00067902 237.8818665
vertex -100.0973129 48.12114716 237.7029877
vertex -100.1093521 48.08998871 237.9003143

endloop
endfacet
facet normal 0.2938292325 0.8656127453 0.4054369032
outer loop
vertex -99.82079315 48.00067902 237.8818665
vertex -100.1093521 48.08998871 237.9003143
vertex -99.83358765 47.8996048 238.1069336

endloop
endfacet
facet normal 0.2958390713 0.866009891 0.4031204581
outer loop
vertex -99.83358765 47.8996048 238.1069336
vertex -100.1093521 48.08998871 237.9003143
vertex -100.1257248 47.9892807 238.1286774

endloop
endfacet
facet normal 0.2887395918 0.8213395476 0.4919663072
outer loop
vertex -99.83358765 47.8996048 238.1069336
vertex -100.1257248 47.9892807 238.1286774
vertex -99.84395599 47.77306366 238.3242798

endloop
endfacet
facet normal 0.2979835868 0.824110508 0.4817132056
outer loop
vertex -99.84395599 47.77306366 238.3242798
vertex -100.1257248 47.9892807 238.1286774
vertex -100.1362152 47.85831451 238.3592224

endloop
endfacet
facet normal 0.2928388417 0.7735666037 0.5619965196
outer loop
vertex -99.84395599 47.77306366 238.3242798
vertex -100.1362152 47.85831451 238.3592224
vertex -99.84909821 47.61229706 238.5482483

endloop
endfacet
facet normal 0.3050691485 0.7780132294 0.5492067337
outer loop
vertex -99.84909821 47.61229706 238.5482483
vertex -100.1362152 47.85831451 238.3592224
vertex -100.1410294 47.69321442 238.5957794

endloop
endfacet
facet normal 0.3034526706 0.74824965 0.5899482965
outer loop
vertex -99.84909821 47.61229706 238.5482483
vertex -100.1410294 47.69321442 238.5957794
vertex -99.85408783 47.41976166 238.7950134

endloop
endfacet
facet normal 0.3104156256 0.7506588101 0.5832267404
outer loop
vertex -99.85408783 47.41976166 238.7950134
vertex -100.1410294 47.69321442 238.5957794
vertex -100.1455231 47.49866486 238.8485718

endloop
endfacet
facet normal 0.3096043766 0.7313737869 0.6076492667
outer loop
vertex -99.85408783 47.41977692 238.7950287
vertex -100.1455307 47.49866486 238.8485718
vertex -99.85572815 47.23038483 239.023819

endloop
endfacet
facet normal 0.3171049058 0.734474659 0.5999928713
outer loop
vertex -99.85572815 47.23038483 239.023819
vertex -100.1455307 47.49866486 238.8485718
vertex -100.1464691 47.30719757 239.0834503

endloop
endfacet
facet normal 0.3165128231 0.7073799372 0.6320073605
outer loop
vertex -99.85572815 47.23038483 239.023819
vertex -100.1464691 47.30719757 239.0834503
vertex -99.85224915 47.03153229 239.2446442

endloop
endfacet
facet normal 0.3264909983 0.7119871378 0.621673584
outer loop
vertex -99.85224915 47.03153229 239.2446442
vertex -100.1464691 47.30719757 239.0834503
vertex -100.1420746 47.10634613 239.3111725

endloop
endfacet
facet normal 0.3264164627 0.6982793212 0.6370701194
outer loop
vertex -99.85224152 47.03154755 239.2446747
vertex -100.142067 47.10634613 239.3111877
vertex -99.84697723 46.8111496 239.483551

endloop
endfacet
facet normal 0.3336396813 0.701333046 0.6299337149
outer loop
vertex -99.84697723 46.8111496 239.483551
vertex -100.142067 47.10634613 239.3111877
vertex -100.1360703 46.88513947 239.5542908

endloop
endfacet
facet normal 0.3337538838 0.6904759407 0.6417564154
outer loop
vertex -99.84697723 46.8111496 239.483551
vertex -100.1360703 46.88513947 239.5542908
vertex -99.840271 46.57968903 239.7290955

endloop
endfacet
facet normal 0.3393075168 0.692763567 0.6363561153
outer loop
vertex -99.840271 46.57968903 239.7290955
vertex -100.1360703 46.88513947 239.5542908
vertex -100.1286697 46.65247345 239.8036346

endloop
endfacet
facet normal 0.339696914 0.6697366834 0.6603475213
outer loop
vertex -99.840271 46.57968903 239.7290955
vertex -100.1286697 46.65247345 239.8036346
vertex -99.83126068 46.33525848 239.9723663

endloop
endfacet
facet normal 0.3455960751 0.6722616553 0.6546966434
outer loop
vertex -99.83126068 46.33525848 239.9723663
vertex -100.1286697 46.65247345 239.8036346
vertex -100.118927 46.40561676 240.0519714

endloop
endfacet
facet normal 0.3462089896 0.6487135887 0.677724123
outer loop
vertex -99.83126068 46.33525848 239.9723663
vertex -100.118927 46.40561676 240.0519714
vertex -99.82193756 46.06902313 240.2224426

endloop
endfacet
facet normal 0.3492067158 0.6499680281 0.6749786735
outer loop
vertex -99.82193756 46.06902313 240.2224426
vertex -100.118927 46.40561676 240.0519714
vertex -100.1091919 46.13715363 240.3054504

endloop
endfacet
facet normal 0.3498417139 0.6280326843 0.6951156259
outer loop
vertex -99.82193756 46.06905365 240.2224731
vertex -100.1091766 46.13718414 240.305481
vertex -99.81258392 45.80477142 240.456543

endloop
endfacet
facet normal 0.3524892628 0.6292747259 0.692650497
outer loop
vertex -99.81258392 45.80477142 240.456543
vertex -100.1091766 46.13718414 240.305481
vertex -100.0994186 45.87042999 240.5428619

endloop
endfacet
facet normal 0.3531894982 0.6068262458 0.7120527029
outer loop
vertex -99.81258392 45.80477142 240.456543
vertex -100.0994186 45.87042999 240.5428619
vertex -99.80297089 45.53347015 240.6829834

endloop
endfacet
facet normal 0.3550058007 0.6077280641 0.710378468
outer loop
vertex -99.80297089 45.53347015 240.6829834
vertex -100.0994186 45.87042999 240.5428619
vertex -100.0895462 45.59770966 240.7712402

endloop
endfacet
facet normal 0.3549560606 0.6091678143 0.7091690898
outer loop
vertex -99.80297089 45.53347015 240.6829834
vertex -100.0895462 45.59770966 240.7712402
vertex -99.79571533 45.26413727 240.9107056

endloop
endfacet
facet normal 0.3528096676 0.6081050634 0.7111494541
outer loop
vertex -99.79571533 45.26413727 240.9107056
vertex -100.0895462 45.59770966 240.7712402
vertex -100.0824661 45.32898712 240.9975128

endloop
endfacet
facet normal 0.3528839648 0.6054130197 0.7134059668
outer loop
vertex -99.79571533 45.26413727 240.9107056
vertex -100.0824661 45.32898712 240.9975128
vertex -99.79489899 45.01268768 241.1236877

endloop
endfacet
facet normal 0.3486197293 0.6031368971 0.7174190879
outer loop
vertex -99.79489899 45.01268768 241.1236877
vertex -100.0824661 45.32898712 240.9975128
vertex -100.0786591 45.07833099 241.2063904

endloop
endfacet
facet normal 0.3456435204 0.473323077 0.8102443218
outer loop
vertex -99.79489899 45.01268768 241.1236877
vertex -100.0786591 45.07833099 241.2063904
vertex -99.82970428 44.7957077 241.2652893

endloop
endfacet
facet normal 0.3331384659 0.4644551575 0.8205486536
outer loop
vertex -99.82970428 44.7957077 241.2652893
vertex -100.0786591 45.07833099 241.2063904
vertex -100.0854645 44.85765839 241.3340607

endloop
endfacet
facet normal 0.3202297091 0.3412980139 0.8837242723
outer loop
vertex -99.82970428 44.79569244 241.2653046
vertex -100.0854645 44.85767365 241.3340454
vertex -99.89468384 44.62699127 241.3540039

endloop
endfacet
facet normal 0.2878988981 0.3163065612 0.9039161205
outer loop
vertex -99.89468384 44.62699127 241.3540039
vertex -100.0854645 44.85767365 241.3340454
vertex -100.1160278 44.6835556 241.4047089

endloop
endfacet
facet normal 0.09376998246 -0.4355803728 0.8952524662
outer loop
vertex -99.89468384 44.62699127 241.3540039
vertex -100.1160278 44.6835556 241.4047089
vertex -100.1653976 44.29445648 241.2205658

endloop
endfacet
facet normal -0.9661076069 0 0.2581398487
outer loop
vertex -100.1653976 44.29445648 241.2205658
vertex -100.1160278 44.6835556 241.4047089
vertex -100.1653976 44.29447174 241.2205658

endloop
endfacet
facet normal 0 -0.7805309892 0.6251170039
outer loop
vertex -100.1219025 47.87586212 237.2459717
vertex -100.1218948 47.87586212 237.2459717
vertex -100.1040115 48.12940216 237.5625458

endloop
endfacet
facet normal -0.001542657265 0.7805725932 -0.6250631809
outer loop
vertex -100.1040115 48.12940216 237.5625458
vertex -100.1218948 47.87586212 237.2459717
vertex -100.3385391 48.09702301 237.5226898

endloop
endfacet
facet normal -0.1473120451 0.986949563 0.06503798813
outer loop
vertex -100.1040115 48.12940216 237.5625458
vertex -100.3385391 48.09702301 237.5226898
vertex -100.0973129 48.12114716 237.7029877

endloop
endfacet
facet normal -0.1330649555 0.9900596142 0.04556022584
outer loop
vertex -100.0973129 48.12114716 237.7029877
vertex -100.3385391 48.09702301 237.5226898
vertex -100.3757553 48.08565521 237.661026

endloop
endfacet
facet normal -0.1466498971 0.9784218669 0.1455483139
outer loop
vertex -100.0973129 48.12114716 237.7029877
vertex -100.3757553 48.08565521 237.661026
vertex -100.1093521 48.08998871 237.9003143

endloop
endfacet
facet normal -0.1527176648 0.9764580131 0.1523392349
outer loop
vertex -100.1093521 48.08998871 237.9003143
vertex -100.3757553 48.08565521 237.661026
vertex -100.4192429 48.04863739 237.8547058

endloop
endfacet
facet normal -0.1776387691 0.9050645232 0.3863971531
outer loop
vertex -100.1093521 48.08998871 237.9003143
vertex -100.4192429 48.04863739 237.8547058
vertex -100.1257248 47.9892807 238.1286774

endloop
endfacet
facet normal -0.1749917716 0.9066402912 0.3839026988
outer loop
vertex -100.1257248 47.9892807 238.1286774
vertex -100.4192429 48.04863739 237.8547058
vertex -100.4397354 47.94774628 238.0836334

endloop
endfacet
facet normal -0.1823146641 0.8584648371 0.4793740511
outer loop
vertex -100.1257248 47.9892807 238.1286774
vertex -100.4397354 47.94774628 238.0836334
vertex -100.1362152 47.85831451 238.3592224

endloop
endfacet
facet normal -0.1728119254 0.8650209904 0.4710357189
outer loop
vertex -100.1362152 47.85831451 238.3592224
vertex -100.4397354 47.94774628 238.0836334
vertex -100.4509277 47.81884003 238.3162537

endloop
endfacet
facet normal -0.1779873371 0.8086315393 0.5607455373
outer loop
vertex -100.1362152 47.85831451 238.3592224
vertex -100.4509277 47.81884003 238.3162537
vertex -100.1410294 47.69321442 238.5957794

endloop
endfacet
facet normal -0.1667338461 0.8169875741 0.5520246625
outer loop
vertex -100.1410294 47.69321442 238.5957794
vertex -100.4509277 47.81884003 238.3162537
vertex -100.4565125 47.65573883 238.555954

endloop
endfacet
facet normal -0.1686121225 0.7825818062 0.5992794037
outer loop
vertex -100.1410294 47.69321442 238.5957794
vertex -100.4565125 47.65573883 238.555954
vertex -100.1455231 47.49866486 238.8485718

endloop
endfacet
facet normal -0.1619492471 0.7874022722 0.5947858095
outer loop
vertex -100.1455231 47.49866486 238.8485718
vertex -100.4565125 47.65573883 238.555954
vertex -100.4613266 47.46213531 238.8109436

endloop
endfacet
facet normal -0.1627404392 0.7650833726 0.6230272055
outer loop
vertex -100.1455307 47.49866486 238.8485718
vertex -100.461319 47.46213531 238.8109436
vertex -100.1464691 47.30719757 239.0834503

endloop
endfacet
facet normal -0.1550310701 0.7711060047 0.6175441742
outer loop
vertex -100.1464691 47.30719757 239.0834503
vertex -100.461319 47.46213531 238.8109436
vertex -100.462616 47.27164459 239.0484772

endloop
endfacet
facet normal -0.1556136608 0.7393406034 0.6551029682
outer loop
vertex -100.1464691 47.30719757 239.0834503
vertex -100.462616 47.27164459 239.0484772
vertex -100.1420746 47.10634613 239.3111725

endloop
endfacet
facet normal -0.1454575509 0.7476658225 0.6479490399
outer loop
vertex -100.1420746 47.10634613 239.3111725
vertex -100.462616 47.27164459 239.0484772
vertex -100.458786 47.07169342 239.2800598

endloop
endfacet
facet normal -0.1454422921 0.7299779654 0.6678163409
outer loop
vertex -100.142067 47.10634613 239.3111877
vertex -100.4587708 47.07170868 239.2800751
vertex -100.1360703 46.88513947 239.5542908

endloop
endfacet
facet normal -0.137982741 0.7357964516 0.6629965305
outer loop
vertex -100.1360703 46.88513947 239.5542908
vertex -100.4587708 47.07170868 239.2800751
vertex -100.4531479 46.85085297 239.5263519

endloop
endfacet
facet normal -0.137817055 0.7221152782 0.6779056191
outer loop
vertex -100.1360703 46.88513947 239.5542908
vertex -100.4531479 46.85085297 239.5263519
vertex -100.1286697 46.65247345 239.8036346

endloop
endfacet
facet normal -0.1318239123 0.7267087102 0.6741786599
outer loop
vertex -100.1286697 46.65247345 239.8036346
vertex -100.4531479 46.85085297 239.5263519
vertex -100.4459839 46.61875153 239.7779388

endloop
endfacet
facet normal -0.1312494278 0.700502634 0.7014767528
outer loop
vertex -100.1286697 46.65247345 239.8036346
vertex -100.4459839 46.61875153 239.7779388
vertex -100.118927 46.40561676 240.0519714

endloop
endfacet
facet normal -0.1251537204 0.7052112222 0.697863698
outer loop
vertex -100.118927 46.40561676 240.0519714
vertex -100.4459839 46.61875153 239.7779388
vertex -100.4365005 46.37303925 240.0279388

endloop
endfacet
facet normal -0.1244003177 0.6788024902 0.7237069011
outer loop
vertex -100.118927 46.40561676 240.0519714
vertex -100.4365005 46.37303925 240.0279388
vertex -100.1091919 46.13715363 240.3054504

endloop
endfacet
facet normal -0.1212729663 0.6811591983 0.7220215201
outer loop
vertex -100.1091919 46.13715363 240.3054504
vertex -100.4365005 46.37303925 240.0279388
vertex -100.4268875 46.10562897 240.2818298

endloop
endfacet
facet normal -0.1205369011 0.6574687958 0.7437779307
outer loop
vertex -100.1091766 46.13718414 240.305481
vertex -100.4268799 46.10565948 240.2818604
vertex -100.0994186 45.87042999 240.5428619

endloop
endfacet
facet normal -0.1178993806 0.6595568061 0.7423506379
outer loop
vertex -100.0994186 45.87042999 240.5428619
vertex -100.4268799 46.10565948 240.2818604
vertex -100.4172134 45.84001923 240.5194092

endloop
endfacet
facet normal -0.1171201468 0.6351122856 0.7634888887
outer loop
vertex -100.0994186 45.87042999 240.5428619
vertex -100.4172134 45.84001923 240.5194092
vertex -100.0895462 45.59770966 240.7712402

endloop
endfacet
facet normal -0.1154548377 0.6364605427 0.7626193166
outer loop
vertex -100.0895462 45.59770966 240.7712402
vertex -100.4172134 45.84001923 240.5194092
vertex -100.4073944 45.56797028 240.7479401

endloop
endfacet
facet normal -0.1155042052 0.6380088329 0.7613168955
outer loop
vertex -100.0895462 45.59770966 240.7712402
vertex -100.4073944 45.56797028 240.7479401
vertex -100.0824661 45.32898712 240.9975128

endloop
endfacet
facet normal -0.1176982373 0.6362292767 0.7624692917
outer loop
vertex -100.0824661 45.32898712 240.9975128
vertex -100.4073944 45.56797028 240.7479401
vertex -100.4001007 45.29897308 240.973526

endloop
endfacet
facet normal -0.1176497564 0.6346786618 0.7637679577
outer loop
vertex -100.0824661 45.32898712 240.9975128
vertex -100.4001007 45.29897308 240.973526
vertex -100.0786591 45.07833099 241.2063904

endloop
endfacet
facet normal -0.1218444183 0.6310462952 0.7661165595
outer loop
vertex -100.0786591 45.07833099 241.2063904
vertex -100.4001007 45.29897308 240.973526
vertex -100.3922577 45.04792023 241.1815643

endloop
endfacet
facet normal -0.1164264381 0.5000610948 0.8581280708
outer loop
vertex -100.0786591 45.07833099 241.2063904
vertex -100.3922577 45.04792023 241.1815643
vertex -100.0854645 44.85765839 241.3340607

endloop
endfacet
facet normal -0.1232600808 0.4920037091 0.8618232012
outer loop
vertex -100.0854645 44.85765839 241.3340607
vertex -100.3922577 45.04792023 241.1815643
vertex -100.3669815 44.82888031 241.3102264

endloop
endfacet
facet normal -0.1172372773 0.3910548389 0.9128699303
outer loop
vertex -100.0854645 44.85767365 241.3340454
vertex -100.3669739 44.82888031 241.3102264
vertex -100.1160278 44.6835556 241.4047089

endloop
endfacet
facet normal -0.1463349015 0.3490827978 0.9255957007
outer loop
vertex -100.1160278 44.6835556 241.4047089
vertex -100.3669739 44.82888031 241.3102264
vertex -100.3527985 44.65271759 241.3789062

endloop
endfacet
facet normal -0.04356623814 -0.4228552282 0.9051494598
outer loop
vertex -100.1160278 44.6835556 241.4047089
vertex -100.3527985 44.65271759 241.3789062
vertex -100.1653976 44.29447174 241.2205658

endloop
endfacet
facet normal 0.8897091746 0.3227087855 0.3229190409
outer loop
vertex -100.1653976 44.29447174 241.2205658
vertex -100.3527985 44.65271759 241.3789062
vertex -100.1653976 44.29445648 241.2205811

endloop
endfacet
facet normal -0.6144860387 0.3072430193 -0.7266420126
outer loop
vertex -100.1218948 47.87586212 237.2459717
vertex -100.1219025 47.87584686 237.2459717
vertex -100.3385391 48.09702301 237.5226898

endloop
endfacet
facet normal -0.1071514338 0.7340438366 -0.6705954075
outer loop
vertex -100.3385391 48.09702301 237.5226898
vertex -100.1219025 47.87584686 237.2459717
vertex -100.4963837 47.98963165 237.4303589

endloop
endfacet
facet normal -0.5312222838 0.8440335393 -0.07355463505
outer loop
vertex -100.3385391 48.09702301 237.5226898
vertex -100.4963837 47.98963165 237.4303589
vertex -100.3757553 48.08565521 237.661026

endloop
endfacet
facet normal -0.5435342193 0.8369314075 -0.06415951252
outer loop
vertex -100.3757553 48.08565521 237.661026
vertex -100.4963837 47.98963165 237.4303589
vertex -100.5677643 47.95394135 237.5695038

endloop
endfacet
facet normal -0.574319005 0.8181720972 0.02742269449
outer loop
vertex -100.3757553 48.08565521 237.661026
vertex -100.5677643 47.95394135 237.5695038
vertex -100.4192429 48.04863739 237.8547058

endloop
endfacet
facet normal -0.5950999856 0.8024759293 0.04345623404
outer loop
vertex -100.4192429 48.04863739 237.8547058
vertex -100.5677643 47.95394135 237.5695038
vertex -100.6332626 47.89485931 237.7635803

endloop
endfacet
facet normal -0.6343684793 0.7267369628 0.2634958029
outer loop
vertex -100.4192429 48.04863739 237.8547058
vertex -100.6332626 47.89485931 237.7635803
vertex -100.4397354 47.94774628 238.0836334

endloop
endfacet
facet normal -0.6315767765 0.729963243 0.2612746358
outer loop
vertex -100.4397354 47.94774628 238.0836334
vertex -100.6332626 47.89485931 237.7635803
vertex -100.6568451 47.79337311 237.9901123

endloop
endfacet
facet normal -0.6382549405 0.6859592795 0.349414438
outer loop
vertex -100.4397354 47.94774628 238.0836334
vertex -100.6568451 47.79337311 237.9901123
vertex -100.4509277 47.81884003 238.3162537

endloop
endfacet
facet normal -0.6308482289 0.6954843998 0.3439942598
outer loop
vertex -100.4509277 47.81884003 238.3162537
vertex -100.6568451 47.79337311 237.9901123
vertex -100.6690369 47.67203522 238.2130737

endloop
endfacet
facet normal -0.6351412535 0.6453871131 0.4243478775
outer loop
vertex -100.4509277 47.81884003 238.3162537
vertex -100.6690369 47.67203522 238.2130737
vertex -100.4565125 47.65573883 238.555954

endloop
endfacet
facet normal -0.6273230314 0.6557961702 0.4199966788
outer loop
vertex -100.4565125 47.65573883 238.555954
vertex -100.6690369 47.67203522 238.2130737
vertex -100.6761398 47.51634979 238.4455566

endloop
endfacet
facet normal -0.6290339231 0.624813199 0.4625198841
outer loop
vertex -100.4565125 47.65573883 238.555954
vertex -100.6761398 47.51634979 238.4455566
vertex -100.4613266 47.46213531 238.8109436

endloop
endfacet
facet normal -0.6241544485 0.6311045289 0.4605847597
outer loop
vertex -100.4613266 47.46213531 238.8109436
vertex -100.6761398 47.51634979 238.4455566
vertex -100.6819458 47.32624054 238.6981812

endloop
endfacet
facet normal -0.6247881055 0.6107788086 0.4864042699
outer loop
vertex -100.461319 47.46213531 238.8109436
vertex -100.6819534 47.32624054 238.6981812
vertex -100.462616 47.27164459 239.0484772

endloop
endfacet
facet normal -0.6186723113 0.6189761162 0.4838524759
outer loop
vertex -100.462616 47.27164459 239.0484772
vertex -100.6819534 47.32624054 238.6981812
vertex -100.6845093 47.13936615 238.9339752

endloop
endfacet
facet normal -0.6191357374 0.5892930627 0.5190419555
outer loop
vertex -100.462616 47.27164459 239.0484772
vertex -100.6845093 47.13936615 238.9339752
vertex -100.458786 47.07169342 239.2800598

endloop
endfacet
facet normal -0.6111617684 0.6002088189 0.5159755349
outer loop
vertex -100.458786 47.07169342 239.2800598
vertex -100.6845093 47.13936615 238.9339752
vertex -100.6824417 46.94284821 239.1650238

endloop
endfacet
facet normal -0.6111330986 0.5822950006 0.5361424685
outer loop
vertex -100.4587708 47.07170868 239.2800751
vertex -100.6824417 46.94287872 239.1650391
vertex -100.4531479 46.85085297 239.5263519

endloop
endfacet
facet normal -0.6052565575 0.5900049806 0.5343769193
outer loop
vertex -100.4531479 46.85085297 239.5263519
vertex -100.6824417 46.94287872 239.1650391
vertex -100.6781235 46.72338104 239.4122772

endloop
endfacet
facet normal -0.6050785184 0.5765181184 0.5490964055
outer loop
vertex -100.4531479 46.85085297 239.5263519
vertex -100.6781235 46.72338104 239.4122772
vertex -100.4459839 46.61875153 239.7779388

endloop
endfacet
facet normal -0.6001572013 0.582870245 0.5477896929
outer loop
vertex -100.4459839 46.61875153 239.7779388
vertex -100.6781235 46.72338104 239.4122772
vertex -100.6720123 46.49340057 239.663681

endloop
endfacet
facet normal -0.5995581746 0.5593060851 0.5724567175
outer loop
vertex -100.4459839 46.61875153 239.7779388
vertex -100.6720123 46.49340057 239.663681
vertex -100.4365005 46.37303925 240.0279388

endloop
endfacet
facet normal -0.5946761966 0.5655879974 0.5713759661
outer loop
vertex -100.4365005 46.37303925 240.0279388
vertex -100.6720123 46.49340057 239.663681
vertex -100.6636658 46.25193024 239.9113922

endloop
endfacet
facet normal -0.5939924717 0.5425754189 0.5939568877
outer loop
vertex -100.4365005 46.37303925 240.0279388
vertex -100.6636658 46.25193024 239.9113922
vertex -100.4268875 46.10562897 240.2818298

endloop
endfacet
facet normal -0.5915494561 0.5456262231 0.5936002135
outer loop
vertex -100.4268875 46.10562897 240.2818298
vertex -100.6636658 46.25193024 239.9113922
vertex -100.654686 45.98827362 240.1626892

endloop
endfacet
facet normal -0.59092623 0.525703311 0.6119167805
outer loop
vertex -100.4268799 46.10565948 240.2818604
vertex -100.6546707 45.98830414 240.1627045
vertex -100.4172134 45.84001923 240.5194092

endloop
endfacet
facet normal -0.588819921 0.5283913016 0.6116320491
outer loop
vertex -100.4172134 45.84001923 240.5194092
vertex -100.6546707 45.98830414 240.1627045
vertex -100.6455994 45.72692108 240.3972473

endloop
endfacet
facet normal -0.5881491303 0.5076455474 0.6295844913
outer loop
vertex -100.4172134 45.84001923 240.5194092
vertex -100.6455994 45.72692108 240.3972473
vertex -100.4073944 45.56797028 240.7479401

endloop
endfacet
facet normal -0.5868719816 0.5092787147 0.6294572949
outer loop
vertex -100.4073944 45.56797028 240.7479401
vertex -100.6455994 45.72692108 240.3972473
vertex -100.6361389 45.45734406 240.624176

endloop
endfacet
facet normal -0.5869188309 0.5108528733 0.6281366348
outer loop
vertex -100.4073944 45.56797028 240.7479401
vertex -100.6361389 45.45734406 240.624176
vertex -100.4001007 45.29897308 240.973526

endloop
endfacet
facet normal -0.5886533856 0.5086429715 0.6283068657
outer loop
vertex -100.4001007 45.29897308 240.973526
vertex -100.6361389 45.45734406 240.624176
vertex -100.6283493 45.18732452 240.8500671

endloop
endfacet
facet normal -0.5885184407 0.5048814416 0.6314591169
outer loop
vertex -100.4001007 45.29897308 240.973526
vertex -100.6283493 45.18732452 240.8500671
vertex -100.3922577 45.04792023 241.1815643

endloop
endfacet
facet normal -0.5916550159 0.5006364584 0.6319078207
outer loop
vertex -100.3922577 45.04792023 241.1815643
vertex -100.6283493 45.18732452 240.8500671
vertex -100.6169281 44.93488312 241.0607605

endloop
endfacet
facet normal -0.5763896704 0.3634108603 0.7319203615
outer loop
vertex -100.3922577 45.04792023 241.1815643
vertex -100.6169281 44.93488312 241.0607605
vertex -100.3669815 44.82888031 241.3102264

endloop
endfacet
facet normal -0.5773051381 0.3616300821 0.7320809364
outer loop
vertex -100.3669815 44.82888031 241.3102264
vertex -100.6169281 44.93488312 241.0607605
vertex -100.5676346 44.7220993 241.2047424

endloop
endfacet
facet normal -0.5549180508 0.2630389035 0.7892252803
outer loop
vertex -100.3669739 44.82888031 241.3102264
vertex -100.5676346 44.7220993 241.2047272
vertex -100.3527985 44.65271759 241.3789062

endloop
endfacet
facet normal -0.5682377815 0.22646828 0.7910866141
outer loop
vertex -100.3527985 44.65271759 241.3789062
vertex -100.5676346 44.7220993 241.2047272
vertex -100.5166245 44.55080414 241.2904053

endloop
endfacet
facet normal -0.1729883999 -0.4724153578 0.8642330766
outer loop
vertex -100.3527985 44.65271759 241.3789062
vertex -100.5166245 44.55080414 241.2904053
vertex -100.1653976 44.29445648 241.2205811

endloop
endfacet
facet normal -0.5895730257 -0.8077150583 0
outer loop
vertex -100.1653976 44.29445648 241.2205811
vertex -100.5166245 44.55080414 241.2904053
vertex -100.1653976 44.29445648 241.2205658

endloop
endfacet
facet normal -nan(ind) -nan(ind) -nan(ind)
outer loop
vertex -100.1219025 47.87584686 237.2459717
vertex -100.1219025 47.87584686 237.2459717
vertex -100.4963837 47.98963165 237.4303589

endloop
endfacet
facet normal -0.1592115611 0.6623480916 -0.7320837975
outer loop
vertex -100.4963837 47.98963165 237.4303589
vertex -100.1219025 47.87584686 237.2459717
vertex -100.5642395 47.85253143 237.3210754

endloop
endfacet
facet normal -0.7747843266 0.5814135671 -0.2483293116
outer loop
vertex -100.4963837 47.98963165 237.4303589
vertex -100.5642395 47.85253143 237.3210754
vertex -100.5677643 47.95394135 237.5695038

endloop
endfacet
facet normal -0.7903702259 0.5631878376 -0.2411106229
outer loop
vertex -100.5677643 47.95394135 237.5695038
vertex -100.5642395 47.85253143 237.3210754
vertex -100.6575775 47.78197479 237.4622345

endloop
endfacet
facet normal -0.8446217775 0.5201548934 -0.126700148
outer loop
vertex -100.5677643 47.95394135 237.5695038
vertex -100.6575775 47.78197479 237.4622345
vertex -100.6332626 47.89485931 237.7635803

endloop
endfacet
facet normal -0.8634834886 0.4912440777 -0.1143482029
outer loop
vertex -100.6332626 47.89485931 237.7635803
vertex -100.6575775 47.78197479 237.4622345
vertex -100.7337112 47.69406891 237.6595001

endloop
endfacet
facet normal -0.9084200263 0.4085883498 0.08847893029
outer loop
vertex -100.6332626 47.89485931 237.7635803
vertex -100.7337112 47.69406891 237.6595001
vertex -100.6568451 47.79337311 237.9901123

endloop
endfacet
facet normal -0.9066717625 0.4128088951 0.08680476248
outer loop
vertex -100.6568451 47.79337311 237.9901123
vertex -100.7337112 47.69406891 237.6595001
vertex -100.7589874 47.59174347 237.8821106

endloop
endfacet
facet normal -0.9123221636 0.3785429299 0.1561201513
outer loop
vertex -100.6568451 47.79337311 237.9901123
vertex -100.7589874 47.59174347 237.8821106
vertex -100.6690369 47.67203522 238.2130737

endloop
endfacet
facet normal -0.9080308676 0.3903155327 0.1520978063
outer loop
vertex -100.6690369 47.67203522 238.2130737
vertex -100.7589874 47.59174347 237.8821106
vertex -100.7722015 47.48030853 238.0891876

endloop
endfacet
facet normal -0.9111356139 0.3547495008 0.2097253799
outer loop
vertex -100.6690369 47.67203522 238.2130737
vertex -100.7722015 47.48030853 238.0891876
vertex -100.6761398 47.51634979 238.4455566

endloop
endfacet
facet normal -0.9069226384 0.3667222261 0.2073788643
outer loop
vertex -100.6761398 47.51634979 238.4455566
vertex -100.7722015 47.48030853 238.0891876
vertex -100.7810745 47.33426666 238.3086395

endloop
endfacet
facet normal -0.9081562161 0.3442598581 0.2381964475
outer loop
vertex -100.6761398 47.51634979 238.4455566
vertex -100.7810745 47.33426666 238.3086395
vertex -100.6819458 47.32624054 238.6981812

endloop
endfacet
facet normal -0.9055321217 0.3514559269 0.2376769483
outer loop
vertex -100.6819458 47.32624054 238.6981812
vertex -100.7810745 47.33426666 238.3086395
vertex -100.7881241 47.14875031 238.5561066

endloop
endfacet
facet normal -0.9060204029 0.3364208937 0.2568037212
outer loop
vertex -100.6819534 47.32624054 238.6981812
vertex -100.7881241 47.14875031 238.5561218
vertex -100.6845093 47.13936615 238.9339752

endloop
endfacet
facet normal -0.902586937 0.3460473716 0.2561012805
outer loop
vertex -100.6845093 47.13936615 238.9339752
vertex -100.7881241 47.14875031 238.5561218
vertex -100.7923126 46.96660614 238.7874756

endloop
endfacet
facet normal -0.9029325843 0.3233582675 0.2831117809
outer loop
vertex -100.6845093 47.13936615 238.9339752
vertex -100.7923126 46.96660614 238.7874756
vertex -100.6824417 46.94284821 239.1650238

endloop
endfacet
facet normal -0.898514986 0.3358582258 0.2826127708
outer loop
vertex -100.6824417 46.94284821 239.1650238
vertex -100.7923126 46.96660614 238.7874756
vertex -100.7925415 46.7746048 239.0149231

endloop
endfacet
facet normal -0.8985404372 0.320299685 0.3000553846
outer loop
vertex -100.6824417 46.94287872 239.1650391
vertex -100.7925339 46.77463531 239.0149536
vertex -100.6781235 46.72338104 239.4122772

endloop
endfacet
facet normal -0.89522928 0.329256922 0.3002574146
outer loop
vertex -100.6781235 46.72338104 239.4122772
vertex -100.7925339 46.77463531 239.0149536
vertex -100.7899323 46.55698395 239.2613831

endloop
endfacet
facet normal -0.8950849771 0.3179526627 0.3126161695
outer loop
vertex -100.6781235 46.72338104 239.4122772
vertex -100.7899323 46.55698395 239.2613831
vertex -100.6720123 46.49340057 239.663681

endloop
endfacet
facet normal -0.8923358917 0.3252538145 0.3129642904
outer loop
vertex -100.6720123 46.49340057 239.663681
vertex -100.7899323 46.55698395 239.2613831
vertex -100.7852325 46.3297348 239.5109558

endloop
endfacet
facet normal -0.8919181824 0.3084159493 0.3306986392
outer loop
vertex -100.6720123 46.49340057 239.663681
vertex -100.7852325 46.3297348 239.5109558
vertex -100.6636658 46.25193024 239.9113922

endloop
endfacet
facet normal -0.8892937899 0.3153302073 0.3312453628
outer loop
vertex -100.6636658 46.25193024 239.9113922
vertex -100.7852325 46.3297348 239.5109558
vertex -100.778389 46.09374237 239.7539825

endloop
endfacet
facet normal -0.8888472319 0.2999070287 0.3464193642
outer loop
vertex -100.6636658 46.25193024 239.9113922
vertex -100.778389 46.09374237 239.7539825
vertex -100.654686 45.98827362 240.1626892

endloop
endfacet
facet normal -0.8875131011 0.3032950163 0.3468898535
outer loop
vertex -100.654686 45.98827362 240.1626892
vertex -100.778389 46.09374237 239.7539825
vertex -100.7702255 45.8350296 240.0010681

endloop
endfacet
facet normal -0.8871005774 0.2908332348 0.3584252596
outer loop
vertex -100.6546707 45.98830414 240.1627045
vertex -100.7702179 45.83504486 240.0010834
vertex -100.6455994 45.72692108 240.3972473

endloop
endfacet
facet normal -0.8858335614 0.2940768003 0.3589119613
outer loop
vertex -100.6455994 45.72692108 240.3972473
vertex -100.7702179 45.83504486 240.0010834
vertex -100.76194 45.57927704 240.2310791

endloop
endfacet
facet normal -0.8854064941 0.2807639539 0.370441705
outer loop
vertex -100.6455994 45.72692108 240.3972473
vertex -100.76194 45.57927704 240.2310791
vertex -100.6361389 45.45734406 240.624176

endloop
endfacet
facet normal -0.8846991658 0.2825538516 0.3707704842
outer loop
vertex -100.6361389 45.45734406 240.624176
vertex -100.76194 45.57927704 240.2310791
vertex -100.7529678 45.31293488 240.4554596

endloop
endfacet
facet normal -0.8847356439 0.2837897539 0.3697379529
outer loop
vertex -100.6361389 45.45734406 240.624176
vertex -100.7529678 45.31293488 240.4554596
vertex -100.6283493 45.18732452 240.8500671

endloop
endfacet
facet normal -0.8857583404 0.2812289596 0.3692457378
outer loop
vertex -100.6283493 45.18732452 240.8500671
vertex -100.7529678 45.31293488 240.4554596
vertex -100.7445831 45.04157257 240.682251

endloop
endfacet
facet normal -0.8854475021 0.2735253274 0.3757213056
outer loop
vertex -100.6283493 45.18732452 240.8500671
vertex -100.7445831 45.04157257 240.682251
vertex -100.6169281 44.93488312 241.0607605

endloop
endfacet
facet normal -0.8870435357 0.2692397535 0.3750516176
outer loop
vertex -100.6169281 44.93488312 241.0607605
vertex -100.7445831 45.04157257 240.682251
vertex -100.7307358 44.78730011 240.8975372

endloop
endfacet
facet normal -0.8643043041 0.1287705153 0.4862059653
outer loop
vertex -100.6169281 44.93488312 241.0607605
vertex -100.7307358 44.78730011 240.8975372
vertex -100.5676346 44.7220993 241.2047424

endloop
endfacet
facet normal -0.8638124466 0.1311377138 0.4864473045
outer loop
vertex -100.5676346 44.7220993 241.2047424
vertex -100.7307358 44.78730011 240.8975372
vertex -100.6682129 44.58269501 241.0637207

endloop
endfacet
facet normal -0.8286514282 0.03273813799 0.558806777
outer loop
vertex -100.5676346 44.7220993 241.2047272
vertex -100.6682205 44.58269501 241.063736
vertex -100.5166245 44.55080414 241.2904053

endloop
endfacet
facet normal -0.8315240741 -0.004639107268 0.5554693341
outer loop
vertex -100.5166245 44.55080414 241.2904053
vertex -100.6682205 44.58269501 241.063736
vertex -100.5917969 44.42081451 241.1767883

endloop
endfacet
facet normal -0.2457163483 -0.5534685254 0.7957990766
outer loop
vertex -100.5166245 44.55080414 241.2904053
vertex -100.5917969 44.42081451 241.1767883
vertex -100.1653976 44.29445648 241.2205658

endloop
endfacet
facet normal -nan(ind) -nan(ind) -nan(ind)
outer loop
vertex -100.1653976 44.29445648 241.2205658
vertex -100.5917969 44.42081451 241.1767883
vertex -100.1653976 44.29445648 241.2205658

endloop
endfacet
facet normal 0.150885731 -0.7357141376 0.660271287
outer loop
vertex -100.1219101 47.8758316 237.2459564
vertex -100.1219025 47.87584686 237.2459717
vertex -100.5642471 47.85251617 237.3210602

endloop
endfacet
facet normal -0.1665404439 0.5715227723 -0.8035085797
outer loop
vertex -100.5642471 47.85251617 237.3210602
vertex -100.1219025 47.87584686 237.2459717
vertex -100.5314331 47.68325043 237.1938629

endloop
endfacet
facet normal -0.8599542379 0.1894211918 -0.4739180803
outer loop
vertex -100.5642471 47.85251617 237.3210602
vertex -100.5314331 47.68325043 237.1938629
vertex -100.6575775 47.78197479 237.4622192

endloop
endfacet
facet normal -0.8744397759 0.1428966969 -0.4636114836
outer loop
vertex -100.6575775 47.78197479 237.4622192
vertex -100.5314331 47.68325043 237.1938629
vertex -100.6264038 47.55991364 237.3349762

endloop
endfacet
facet normal -0.9399760365 0.060481105 -0.3358379006
outer loop
vertex -100.6575775 47.78197479 237.4622192
vertex -100.6264038 47.55991364 237.3349762
vertex -100.7337189 47.69406891 237.6595001

endloop
endfacet
facet normal -0.9457859993 0.02649099939 -0.3237080276
outer loop
vertex -100.7337189 47.69406891 237.6595001
vertex -100.6264038 47.55991364 237.3349762
vertex -100.699646 47.43456268 237.5387115

endloop
endfacet
facet normal -0.9878759384 -0.06383933127 -0.1415123194
outer loop
vertex -100.7337189 47.69406891 237.6595001
vertex -100.699646 47.43456268 237.5387115
vertex -100.7589951 47.59174347 237.8821106

endloop
endfacet
facet normal -0.9878582954 -0.05913128704 -0.1436642259
outer loop
vertex -100.7589951 47.59174347 237.8821106
vertex -100.699646 47.43456268 237.5387115
vertex -100.7249832 47.33119965 237.7554779

endloop
endfacet
facet normal -0.9913543463 -0.0782051757 -0.1053591222
outer loop
vertex -100.7589951 47.59174347 237.8821106
vertex -100.7249832 47.33119965 237.7554779
vertex -100.7722092 47.48029327 238.0891724

endloop
endfacet
facet normal -0.9916703105 -0.06420521438 -0.1116589978
outer loop
vertex -100.7722092 47.48029327 238.0891724
vertex -100.7249832 47.33119965 237.7554779
vertex -100.7392578 47.23252106 237.9389954

endloop
endfacet
facet normal -0.992869556 -0.07676652819 -0.09119761735
outer loop
vertex -100.7722092 47.48029327 238.0891724
vertex -100.7392578 47.23252106 237.9389954
vertex -100.7810745 47.33426666 238.308609

endloop
endfacet
facet normal -0.9935414195 -0.06117997691 -0.09556422383
outer loop
vertex -100.7810745 47.33426666 238.308609
vertex -100.7392578 47.23252106 237.9389954
vertex -100.7501984 47.09896088 238.1382446

endloop
endfacet
facet normal -0.99410218 -0.07124973089 -0.08175760508
outer loop
vertex -100.7810745 47.33426666 238.308609
vertex -100.7501984 47.09896088 238.1382446
vertex -100.7881317 47.14875031 238.5560913

endloop
endfacet
facet normal -0.9946010113 -0.06249343231 -0.08284626156
outer loop
vertex -100.7881317 47.14875031 238.5560913
vertex -100.7501984 47.09896088 238.1382446
vertex -100.7588272 46.91939545 238.3772888

endloop
endfacet
facet normal -0.9948557019 -0.07006014138 -0.07316948473
outer loop
vertex -100.7881241 47.14875031 238.5561066
vertex -100.7588196 46.91939545 238.3772736
vertex -100.7923126 46.96660614 238.7874603

endloop
endfacet
facet normal -0.995465517 -0.05918196216 -0.07447130978
outer loop
vertex -100.7923126 46.96660614 238.7874603
vertex -100.7588196 46.91939545 238.3772736
vertex -100.7650833 46.74338531 238.6008759

endloop
endfacet
facet normal -0.9956479669 -0.07071691006 -0.06069808453
outer loop
vertex -100.7923126 46.96660614 238.7874603
vertex -100.7650833 46.74338531 238.6008759
vertex -100.7925415 46.7746048 239.0149078

endloop
endfacet
facet normal -0.9964942336 -0.05635071918 -0.0618374683
outer loop
vertex -100.7925415 46.7746048 239.0149078
vertex -100.7650833 46.74338531 238.6008759
vertex -100.768219 46.55721283 238.8210602

endloop
endfacet
facet normal -0.9964978695 -0.06761176884 -0.04919993132
outer loop
vertex -100.7925339 46.77463531 239.0149384
vertex -100.7682114 46.55722809 238.8210754
vertex -100.7899323 46.55696869 239.2613678

endloop
endfacet
facet normal -0.9971306324 -0.05750964582 -0.04922519624
outer loop
vertex -100.7899323 46.55696869 239.2613678
vertex -100.7682114 46.55722809 238.8210754
vertex -100.7678146 46.34192657 239.0645752

endloop
endfacet
facet normal -0.9970350266 -0.06530886143 -0.04069198295
outer loop
vertex -100.7899323 46.55696869 239.2613678
vertex -100.7678146 46.34192657 239.0645752
vertex -100.7852325 46.32971954 239.5109406

endloop
endfacet
facet normal -0.9975457191 -0.05712479725 -0.04048809409
outer loop
vertex -100.7852325 46.32971954 239.5109406
vertex -100.7678146 46.34192657 239.0645752
vertex -100.7649765 46.11820221 239.3103027

endloop
endfacet
facet normal -0.9974083304 -0.06358989328 -0.03365856782
outer loop
vertex -100.7852325 46.32971954 239.5109406
vertex -100.7649765 46.11820221 239.3103027
vertex -100.778389 46.09374237 239.7539673

endloop
endfacet
facet normal -0.9979085326 -0.0554497987 -0.03322491422
outer loop
vertex -100.778389 46.09374237 239.7539673
vertex -100.7649765 46.11820221 239.3103027
vertex -100.7601013 45.88933563 239.5458374

endloop
endfacet
facet normal -0.9978020191 -0.05943582207 -0.02930084243
outer loop
vertex -100.778389 46.09374237 239.7539673
vertex -100.7601013 45.88933563 239.5458374
vertex -100.7702332 45.83501434 240.0010529

endloop
endfacet
facet normal -0.9980395436 -0.05554362759 -0.02884167247
outer loop
vertex -100.7702332 45.83501434 240.0010529
vertex -100.7601013 45.88933563 239.5458374
vertex -100.7530212 45.63703156 239.7867279

endloop
endfacet
facet normal -0.9979988337 -0.05695858225 -0.02746028081
outer loop
vertex -100.7702179 45.83504486 240.0010834
vertex -100.7530212 45.63706207 239.7867584
vertex -100.7619476 45.57926178 240.2310638

endloop
endfacet
facet normal -0.99821347 -0.0533063598 -0.0269894693
outer loop
vertex -100.7619476 45.57926178 240.2310638
vertex -100.7530212 45.63706207 239.7867584
vertex -100.7457886 45.38848114 240.0102234

endloop
endfacet
facet normal -0.99815768 -0.05507284403 -0.02545935102
outer loop
vertex -100.7619476 45.57926178 240.2310638
vertex -100.7457886 45.38848114 240.0102234
vertex -100.7529755 45.31291962 240.4554443

endloop
endfacet
facet normal -0.9982874393 -0.05284947529 -0.02508410253
outer loop
vertex -100.7529755 45.31291962 240.4554443
vertex -100.7457886 45.38848114 240.0102234
vertex -100.7374573 45.12631989 240.2310028

endloop
endfacet
facet normal -0.998306632 -0.05223872513 -0.02559320442
outer loop
vertex -100.7529755 45.31291962 240.4554443
vertex -100.7374573 45.12631989 240.2310028
vertex -100.7445908 45.04157257 240.6822357

endloop
endfacet
facet normal -0.9981437922 -0.05502007902 -0.02611300349
outer loop
vertex -100.7445908 45.04157257 240.6822357
vertex -100.7374573 45.12631989 240.2310028
vertex -100.7283783 44.85318756 240.4594574

endloop
endfacet
facet normal -0.9975985885 -0.0674995929 -0.01552045345
outer loop
vertex -100.7445908 45.04157257 240.6822357
vertex -100.7283783 44.85318756 240.4594574
vertex -100.7307358 44.78730011 240.8975372

endloop
endfacet
facet normal -0.997248888 -0.0723239705 -0.01624416187
outer loop
vertex -100.7307358 44.78730011 240.8975372
vertex -100.7283783 44.85318756 240.4594574
vertex -100.7133865 44.59656525 240.6816559

endloop
endfacet
facet normal -0.9718460441 -0.2097910196 0.1072518304
outer loop
vertex -100.7307358 44.78730011 240.8975372
vertex -100.7133865 44.59656525 240.6816559
vertex -100.6682281 44.58269501 241.0637207

endloop
endfacet
facet normal -0.9726002812 -0.2061510682 0.1074731275
outer loop
vertex -100.6682281 44.58269501 241.0637207
vertex -100.7133865 44.59656525 240.6816559
vertex -100.650528 44.40270233 240.8786469

endloop
endfacet
facet normal -0.9325771928 -0.2992751896 0.2018269747
outer loop
vertex -100.6682205 44.58269501 241.063736
vertex -100.6505203 44.40271759 240.8786469
vertex -100.5918045 44.42081451 241.1767883

endloop
endfacet
facet normal -0.9269304276 -0.3163792491 0.2017531097
outer loop
vertex -100.5918045 44.42081451 241.1767883
vertex -100.6505203 44.40271759 240.8786469
vertex -100.5677719 44.26058197 241.0359344

endloop
endfacet
facet normal -0.2673584521 -0.6585047841 0.7034848332
outer loop
vertex -100.5918045 44.42081451 241.1767883
vertex -100.5677719 44.26058197 241.0359344
vertex -100.1653976 44.29444122 241.2205505

endloop
endfacet
facet normal 0.2915247679 0.599573195 -0.7453355789
outer loop
vertex -100.1653976 44.29444122 241.2205505
vertex -100.5677719 44.26058197 241.0359344
vertex -100.16539 44.29445648 241.2205658

endloop
endfacet
facet normal -0.4378955364 0.8719571829 0.2189477682
outer loop
vertex -100.1218948 47.87584686 237.2459869
vertex -100.1219025 47.87584686 237.2459717
vertex -100.5314331 47.68326569 237.1938629

endloop
endfacet
facet normal -0.1102968529 0.471318841 -0.8750389218
outer loop
vertex -100.5314331 47.68326569 237.1938629
vertex -100.1219025 47.87584686 237.2459717
vertex -100.2557144 47.4486618 237.0327454

endloop
endfacet
facet normal -0.655467391 -0.2920209467 -0.6964813471
outer loop
vertex -100.5314331 47.68326569 237.1938629
vertex -100.2557144 47.4486618 237.0327454
vertex -100.6264114 47.55992889 237.3349609

endloop
endfacet
facet normal -0.6526380777 -0.3520699441 -0.6709025502
outer loop
vertex -100.6264114 47.55992889 237.3349609
vertex -100.2557144 47.4486618 237.0327454
vertex -100.2876358 47.23925018 237.1736908

endloop
endfacet
facet normal -0.6998699307 -0.468007654 -0.5395841002
outer loop
vertex -100.6264114 47.55992889 237.3349609
vertex -100.2876358 47.23925018 237.1736908
vertex -100.6996536 47.43456268 237.5386963

endloop
endfacet
facet normal -0.6958930492 -0.4941423535 -0.5211104155
outer loop
vertex -100.6996536 47.43456268 237.5386963
vertex -100.2876358 47.23925018 237.1736908
vertex -100.3232193 47.05963898 237.3915253

endloop
endfacet
facet normal -0.7248882055 -0.5850681067 -0.3636377752
outer loop
vertex -100.6996536 47.43456268 237.5386963
vertex -100.3232193 47.05963898 237.3915253
vertex -100.7249832 47.33119965 237.7554932

endloop
endfacet
facet normal -0.7261709571 -0.5803875327 -0.3685458302
outer loop
vertex -100.7249832 47.33119965 237.7554932
vertex -100.3232193 47.05963898 237.3915253
vertex -100.3443604 46.95478058 237.5983124

endloop
endfacet
facet normal -0.7261673808 -0.5803686976 -0.3685825765
outer loop
vertex -100.7249832 47.33119965 237.7554932
vertex -100.3443604 46.95478058 237.5983124
vertex -100.7392578 47.23252106 237.9389954

endloop
endfacet
facet normal -0.7307907343 -0.559622407 -0.3908549845
outer loop
vertex -100.7392578 47.23252106 237.9389954
vertex -100.3443604 46.95478058 237.5983124
vertex -100.3595963 46.87448883 237.7417603

endloop
endfacet
facet normal -0.7295699716 -0.548905611 -0.4079585969
outer loop
vertex -100.7392578 47.23252106 237.9389954
vertex -100.3595963 46.87448883 237.7417603
vertex -100.7501984 47.09897614 238.1382446

endloop
endfacet
facet normal -0.7364760637 -0.5223986506 -0.4297703505
outer loop
vertex -100.7501984 47.09897614 238.1382446
vertex -100.3595963 46.87448883 237.7417603
vertex -100.3730545 46.7589798 237.9052277

endloop
endfacet
facet normal -0.7368236184 -0.5275047421 -0.4228824973
outer loop
vertex -100.7501984 47.09897614 238.1382446
vertex -100.3730545 46.7589798 237.9052277
vertex -100.7588272 46.91939545 238.3772888

endloop
endfacet
facet normal -0.7411286831 -0.5150595307 -0.4306298196
outer loop
vertex -100.7588272 46.91939545 238.3772888
vertex -100.3730545 46.7589798 237.9052277
vertex -100.3838654 46.58794403 238.1284027

endloop
endfacet
facet normal -0.7412137389 -0.517241478 -0.4278592765
outer loop
vertex -100.7588196 46.91939545 238.3772736
vertex -100.383873 46.58794403 238.128418
vertex -100.7650757 46.74338531 238.6008911

endloop
endfacet
facet normal -0.7460415959 -0.5029070973 -0.436470449
outer loop
vertex -100.7650757 46.74338531 238.6008911
vertex -100.383873 46.58794403 238.128418
vertex -100.3931122 46.42082977 238.3367615

endloop
endfacet
facet normal -0.746047914 -0.5031957626 -0.436126709
outer loop
vertex -100.7650757 46.74338531 238.6008911
vertex -100.3931122 46.42082977 238.3367615
vertex -100.7682114 46.55719757 238.8210754

endloop
endfacet
facet normal -0.7528117895 -0.4831821024 -0.4470005631
outer loop
vertex -100.7682114 46.55719757 238.8210754
vertex -100.3931122 46.42082977 238.3367615
vertex -100.4003983 46.2430954 238.541153

endloop
endfacet
facet normal -0.7528737187 -0.493629992 -0.4353281856
outer loop
vertex -100.7682037 46.55724335 238.8210907
vertex -100.4003906 46.24311066 238.5411835
vertex -100.767807 46.34191132 239.0645752

endloop
endfacet
facet normal -0.7579007745 -0.4804106951 -0.4413524866
outer loop
vertex -100.767807 46.34191132 239.0645752
vertex -100.4003906 46.24311066 238.5411835
vertex -100.4031448 46.03119659 238.7765808

endloop
endfacet
facet normal -0.7578467131 -0.4867681563 -0.4344251454
outer loop
vertex -100.767807 46.34191132 239.0645752
vertex -100.4031448 46.03119659 238.7765808
vertex -100.7649689 46.11820221 239.3102875

endloop
endfacet
facet normal -0.761798501 -0.4766045213 -0.4387611151
outer loop
vertex -100.7649689 46.11820221 239.3102875
vertex -100.4031448 46.03119659 238.7765808
vertex -100.4030075 45.81259918 239.0137939

endloop
endfacet
facet normal -0.7618632317 -0.4723861516 -0.4431881011
outer loop
vertex -100.7649689 46.11820221 239.3102875
vertex -100.4030075 45.81259918 239.0137939
vertex -100.7600861 45.88935089 239.5458221

endloop
endfacet
facet normal -0.7661166787 -0.4611536264 -0.447663337
outer loop
vertex -100.7600861 45.88935089 239.5458221
vertex -100.4030075 45.81259918 239.0137939
vertex -100.4010315 45.59404755 239.2355499

endloop
endfacet
facet normal -0.7662591934 -0.4548261166 -0.4538503885
outer loop
vertex -100.7600861 45.88935089 239.5458221
vertex -100.4010315 45.59404755 239.2355499
vertex -100.7530136 45.63703156 239.7867432

endloop
endfacet
facet normal -0.7684401274 -0.4492885172 -0.4556749463
outer loop
vertex -100.7530136 45.63703156 239.7867432
vertex -100.4010315 45.59404755 239.2355499
vertex -100.3956146 45.35089874 239.466156

endloop
endfacet
facet normal -0.7686859965 -0.4398095906 -0.4644237459
outer loop
vertex -100.7530136 45.63706207 239.7867737
vertex -100.3955994 45.35092926 239.4661713
vertex -100.7457809 45.38846588 240.0102234

endloop
endfacet
facet normal -0.770620048 -0.4347062111 -0.4660206735
outer loop
vertex -100.7457809 45.38846588 240.0102234
vertex -100.3955994 45.35092926 239.4661713
vertex -100.3899231 45.11275482 239.6789551

endloop
endfacet
facet normal -0.7709256411 -0.4244495332 -0.4748854637
outer loop
vertex -100.7457809 45.38846588 240.0102234
vertex -100.3899231 45.11275482 239.6789551
vertex -100.7374496 45.12631989 240.2310028

endloop
endfacet
facet normal -0.7722162604 -0.4210877419 -0.4757804871
outer loop
vertex -100.7374496 45.12631989 240.2310028
vertex -100.3899231 45.11275482 239.6789551
vertex -100.382576 44.85663605 239.8937073

endloop
endfacet
facet normal -0.7721664906 -0.4225970209 -0.4745215178
outer loop
vertex -100.7374496 45.12631989 240.2310028
vertex -100.382576 44.85663605 239.8937073
vertex -100.7283783 44.85320282 240.4594727

endloop
endfacet
facet normal -0.7706640363 -0.4263281226 -0.4736257792
outer loop
vertex -100.7283783 44.85320282 240.4594727
vertex -100.382576 44.85663605 239.8937073
vertex -100.3725891 44.58098602 240.1255798

endloop
endfacet
facet normal -0.7699596882 -0.442797482 -0.4594480395
outer loop
vertex -100.7283783 44.85320282 240.4594727
vertex -100.3725891 44.58098602 240.1255798
vertex -100.7133865 44.59658051 240.6816711

endloop
endfacet
facet normal -0.7672077417 -0.4494637549 -0.4575746357
outer loop
vertex -100.7133865 44.59658051 240.6816711
vertex -100.3725891 44.58098602 240.1255798
vertex -100.3599396 44.32099152 240.3597565

endloop
endfacet
facet normal -0.7483873963 -0.5762932897 -0.3283328712
outer loop
vertex -100.7133865 44.59658051 240.6816711
vertex -100.3599396 44.32099152 240.3597565
vertex -100.6505203 44.40271759 240.8786469

endloop
endfacet
facet normal -0.7478798032 -0.5771940947 -0.3279067576
outer loop
vertex -100.6505203 44.40271759 240.8786469
vertex -100.3599396 44.32099152 240.3597565
vertex -100.3301849 44.14289093 240.6053925

endloop
endfacet
facet normal -0.7198845744 -0.6592889428 -0.2170352936
outer loop
vertex -100.6505203 44.40271759 240.8786621
vertex -100.3301773 44.14289093 240.6053925
vertex -100.5677643 44.26058197 241.0359344

endloop
endfacet
facet normal -0.71628052 -0.6642917395 -0.2136789113
outer loop
vertex -100.5677643 44.26058197 241.0359344
vertex -100.3301773 44.14289093 240.6053925
vertex -100.3036423 44.03894806 240.8395844

endloop
endfacet
facet normal -0.2080587298 -0.7757434249 0.5957632065
outer loop
vertex -100.5677643 44.26058197 241.0359344
vertex -100.3036423 44.03894806 240.8395844
vertex -100.1653976 44.29447174 241.2205811

endloop
endfacet
facet normal -0.5388410687 -0.5956720114 0.5956720114
outer loop
vertex -100.1653976 44.29447174 241.2205811
vertex -100.3036423 44.03894806 240.8395844
vertex -100.1653976 44.29445648 241.2205658

endloop
endfacet
endsolid
