solid 
facet normal 0.0253298 0 -0.999679
outer loop
vertex -23.88530731 51.24575043 233.1899719
vertex -23.88530731 51.24573517 233.1899719
vertex -24.18219757 51.18309784 233.1824493

endloop
endfacet
facet normal 0.2076439559 -0.9648533463 -0.1610650122
outer loop
vertex -24.18219757 51.18309784 233.1824493
vertex -23.88530731 51.24573517 233.1899719
vertex -24.06084442 51.17197418 233.4055328

endloop
endfacet
facet normal -0.6943773031 -0.6308208108 0.3462731838
outer loop
vertex -24.18219757 51.18309784 233.1824493
vertex -24.06084442 51.17197418 233.4055328
vertex -24.28383636 51.28374481 233.1619873

endloop
endfacet
facet normal -0.6180104613 -0.754937768 0.219390139
outer loop
vertex -24.28383636 51.28374481 233.1619873
vertex -24.06084442 51.17197418 233.4055328
vertex -24.16861725 51.27565765 233.458725

endloop
endfacet
facet normal -0.8475317359 -0.4253090322 0.3174936175
outer loop
vertex -24.28383636 51.28374481 233.1619873
vertex -24.16861725 51.27565765 233.458725
vertex -24.37639618 51.44208527 233.1270142

endloop
endfacet
facet normal -0.7725887895 -0.609387815 0.1781935245
outer loop
vertex -24.37639618 51.44208527 233.1270142
vertex -24.16861725 51.27565765 233.458725
vertex -24.28916168 51.43419647 233.4782562

endloop
endfacet
facet normal -0.9169819355 -0.3326026499 0.2202715427
outer loop
vertex -24.37639618 51.44208527 233.1270142
vertex -24.28916168 51.43419647 233.4782562
vertex -24.44524384 51.63236237 233.1277161

endloop
endfacet
facet normal -0.9012748599 -0.3949885964 0.1780100316
outer loop
vertex -24.44524384 51.63236237 233.1277161
vertex -24.28916168 51.43419647 233.4782562
vertex -24.37023163 51.62462616 233.4903412

endloop
endfacet
facet normal -0.9081611037 -0.3780432642 0.1797960103
outer loop
vertex -24.44524384 51.63236237 233.1277161
vertex -24.37023163 51.62462616 233.4903412
vertex -24.51537323 51.81668854 233.1610565

endloop
endfacet
facet normal -0.9225027561 -0.3152278662 0.2227559239
outer loop
vertex -24.51537323 51.81668854 233.1610565
vertex -24.37023163 51.62462616 233.4903412
vertex -24.42580414 51.80869293 233.5206757

endloop
endfacet
facet normal -0.8854235411 -0.4139647186 0.2113254517
outer loop
vertex -24.51537323 51.81668854 233.1610565
vertex -24.42580414 51.80869293 233.5206757
vertex -24.58679962 51.99312592 233.2074127

endloop
endfacet
facet normal -0.9066516757 -0.3152572215 0.2803491056
outer loop
vertex -24.58679962 51.99312592 233.2074127
vertex -24.42580414 51.80869293 233.5206757
vertex -24.47466278 51.98470306 233.5605927

endloop
endfacet
facet normal -0.8631498218 -0.4305680096 0.2637870014
outer loop
vertex -24.58679962 51.99312592 233.2074127
vertex -24.47466278 51.98470306 233.5605927
vertex -24.65836334 52.16738129 233.2576752

endloop
endfacet
facet normal -0.8809298277 -0.3399928808 0.3291920125
outer loop
vertex -24.65836334 52.16738129 233.2576752
vertex -24.47466278 51.98470306 233.5605927
vertex -24.52559662 52.1584549 233.6037445

endloop
endfacet
facet normal -0.8451701403 -0.4332669377 0.3129970729
outer loop
vertex -24.65836334 52.16738129 233.2576599
vertex -24.52561188 52.15843964 233.6037445
vertex -24.73108673 52.3451004 233.3072968

endloop
endfacet
facet normal -0.8562087417 -0.3702002764 0.3603586257
outer loop
vertex -24.73108673 52.3451004 233.3072968
vertex -24.52561188 52.15843964 233.6037445
vertex -24.58382416 52.33577728 233.6476135

endloop
endfacet
facet normal -0.8348077536 -0.4253045619 0.3495883346
outer loop
vertex -24.73108673 52.3451004 233.3072968
vertex -24.58382416 52.33577728 233.6476135
vertex -24.80605316 52.53011322 233.353363

endloop
endfacet
facet normal -0.8394182324 -0.3955361545 0.3727306724
outer loop
vertex -24.80605316 52.53011322 233.353363
vertex -24.58382416 52.33577728 233.6476135
vertex -24.65181732 52.52063751 233.6906586

endloop
endfacet
facet normal -0.8320114017 -0.4144246578 0.3687943518
outer loop
vertex -24.8060379 52.53014374 233.3533783
vertex -24.65180206 52.52065277 233.6906738
vertex -24.88291168 52.72202301 233.3955688

endloop
endfacet
facet normal -0.832809031 -0.4087699652 0.3732776344
outer loop
vertex -24.88291168 52.72202301 233.3955688
vertex -24.65180206 52.52065277 233.6906738
vertex -24.72731781 52.71251678 233.7322998

endloop
endfacet
facet normal -0.8327906728 -0.4088162184 0.3732677996
outer loop
vertex -24.88291168 52.72202301 233.3955688
vertex -24.72731781 52.71251678 233.7322998
vertex -24.95973969 52.91516876 233.4356995

endloop
endfacet
facet normal -0.8324018121 -0.4116204679 0.3710470498
outer loop
vertex -24.95973969 52.91516876 233.4356995
vertex -24.72731781 52.71251678 233.7322998
vertex -24.80480194 52.90563202 233.7727051

endloop
endfacet
facet normal -0.830300808 -0.4168328047 0.3699336052
outer loop
vertex -24.95973969 52.91516876 233.4356995
vertex -24.80480194 52.90563202 233.7727051
vertex -25.0348587 53.10166168 233.4772339

endloop
endfacet
facet normal -0.8312750459 -0.4102722406 0.3750447333
outer loop
vertex -25.0348587 53.10166168 233.4772339
vertex -24.80480194 52.90563202 233.7727051
vertex -24.87841034 53.09200287 233.8134308

endloop
endfacet
facet normal -0.8186671138 -0.4406071603 0.36830616
outer loop
vertex -25.0348587 53.10166168 233.4772339
vertex -24.87841034 53.09200287 233.8134308
vertex -25.10822296 53.27695465 233.5238647

endloop
endfacet
facet normal -0.82322824 -0.4129082263 0.3896179199
outer loop
vertex -25.10822296 53.27695465 233.5238647
vertex -24.87841034 53.09200287 233.8134308
vertex -24.94551849 53.26700592 233.8571014

endloop
endfacet
facet normal -0.7982470989 -0.4707868397 0.3757143915
outer loop
vertex -25.1082077 53.27698517 233.5238953
vertex -24.94550323 53.2670517 233.857132
vertex -25.18114471 53.44309235 233.5770721

endloop
endfacet
facet normal -0.8063101768 -0.4252640605 0.4111134708
outer loop
vertex -25.18114471 53.44309235 233.5770721
vertex -24.94550323 53.2670517 233.857132
vertex -25.00835419 53.43264008 233.9051514

endloop
endfacet
facet normal -0.7729933858 -0.4994409084 0.3912031949
outer loop
vertex -25.18114471 53.44309235 233.5770721
vertex -25.00835419 53.43264008 233.9051514
vertex -25.25556183 53.60532379 233.637146

endloop
endfacet
facet normal -0.7826727033 -0.4449738264 0.4352260828
outer loop
vertex -25.25556183 53.60532379 233.637146
vertex -25.00835419 53.43264008 233.9051514
vertex -25.07059479 53.5943222 233.9585266

endloop
endfacet
facet normal -0.7560018301 -0.5038387179 0.4178608954
outer loop
vertex -25.25556183 53.60532379 233.637146
vertex -25.07059479 53.5943222 233.9585266
vertex -25.33193207 53.77108002 233.6988373

endloop
endfacet
facet normal -0.7617218494 -0.4681288004 0.4479232132
outer loop
vertex -25.33193207 53.77108002 233.6988373
vertex -25.07059479 53.5943222 233.9585266
vertex -25.13944244 53.75971222 234.0142975

endloop
endfacet
facet normal -0.7817237377 -0.4189959466 0.4618986845
outer loop
vertex -25.33193207 53.77108002 233.6988373
vertex -25.13944244 53.75971222 234.0142975
vertex -25.39528656 53.94818878 233.7522736

endloop
endfacet
facet normal -0.7808483839 -0.4302418232 0.4529546797
outer loop
vertex -25.39528656 53.94818878 233.7522736
vertex -25.13944244 53.75971222 234.0142975
vertex -25.21326447 53.93735504 234.0557709

endloop
endfacet
facet normal -0.845987618 -0.1829021871 0.5008509755
outer loop
vertex -25.39528656 53.94818878 233.7522736
vertex -25.21326447 53.93735504 234.0557709
vertex -25.41365814 54.12529755 233.7859192

endloop
endfacet
facet normal -0.853633225 -0.2753023207 0.4421750903
outer loop
vertex -25.41365814 54.12529755 233.7859192
vertex -25.21326447 53.93735504 234.0557709
vertex -25.27143097 54.11646271 234.0549927

endloop
endfacet
facet normal -0.8833831549 -0.05871957541 0.4649582505
outer loop
vertex -25.41365814 54.12529755 233.7859192
vertex -25.27144623 54.11644745 234.0549927
vertex -25.41887665 54.27787018 233.7952728

endloop
endfacet
facet normal -0.9002350569 -0.2585704625 0.3503116667
outer loop
vertex -25.41887665 54.27787018 233.7952728
vertex -25.27144623 54.11644745 234.0549927
vertex -25.32909393 54.26859283 234.0191498

endloop
endfacet
facet normal -0.6434322596 0.7094878554 0.2874403
outer loop
vertex -25.41887665 54.27787018 233.7952728
vertex -25.32909393 54.26859283 234.0191498
vertex -25.20890045 54.44326019 233.8570709

endloop
endfacet
facet normal -nan(ind) -nan(ind) -nan(ind)
outer loop
vertex -25.20890045 54.44326019 233.8570709
vertex -25.32909393 54.26859283 234.0191498
vertex -25.20890045 54.44326019 233.8570709

endloop
endfacet
facet normal -0.5821198821 0.7868949175 -0.2047750503
outer loop
vertex -23.88530731 51.24573517 233.1899719
vertex -23.88532257 51.24571991 233.1899567
vertex -24.06084442 51.17197418 233.4055328

endloop
endfacet
facet normal 0.3107961118 -0.947807312 -0.07118242234
outer loop
vertex -24.06084442 51.17197418 233.4055328
vertex -23.88532257 51.24571991 233.1899567
vertex -23.93471527 51.20818329 233.4741058

endloop
endfacet
facet normal -0.2286539525 -0.6219088435 0.7489637733
outer loop
vertex -24.06084442 51.17197418 233.4055328
vertex -23.93471527 51.20818329 233.4741058
vertex -24.16861725 51.27565765 233.458725

endloop
endfacet
facet normal -0.2476288974 -0.7075400949 0.6618663073
outer loop
vertex -24.16861725 51.27565765 233.458725
vertex -23.93471527 51.20818329 233.4741058
vertex -24.02100372 51.31647491 233.5575867

endloop
endfacet
facet normal -0.4220255315 -0.4198722839 0.8034933805
outer loop
vertex -24.16861725 51.27565765 233.458725
vertex -24.02100372 51.31647491 233.5575867
vertex -24.28916168 51.43419647 233.4782562

endloop
endfacet
facet normal -0.4503267407 -0.5538765788 0.7003046274
outer loop
vertex -24.28916168 51.43419647 233.4782562
vertex -24.02100372 51.31647491 233.5575867
vertex -24.13443756 51.47458649 233.6096954

endloop
endfacet
facet normal -0.5735384226 -0.2927214503 0.7650933266
outer loop
vertex -24.28916168 51.43419647 233.4782562
vertex -24.13443756 51.47458649 233.6096954
vertex -24.37023163 51.62462616 233.4903412

endloop
endfacet
facet normal -0.5867846012 -0.3361443877 0.7366754413
outer loop
vertex -24.37023163 51.62462616 233.4903412
vertex -24.13443756 51.47458649 233.6096954
vertex -24.21677399 51.66432953 233.6306915

endloop
endfacet
facet normal -0.5992752314 -0.303042829 0.7409685254
outer loop
vertex -24.37023163 51.62462616 233.4903412
vertex -24.21677399 51.66432953 233.6306915
vertex -24.42580414 51.80869293 233.5206757

endloop
endfacet
facet normal -0.5841770172 -0.2599060237 0.7688862681
outer loop
vertex -24.42580414 51.80869293 233.5206757
vertex -24.21677399 51.66432953 233.6306915
vertex -24.26720428 51.84967804 233.6550293

endloop
endfacet
facet normal -0.5598430037 -0.3279756606 0.7609256506
outer loop
vertex -24.42580414 51.80869293 233.5206757
vertex -24.26720428 51.84967804 233.6550293
vertex -24.47466278 51.98470306 233.5605927

endloop
endfacet
facet normal -0.5351001024 -0.2599802911 0.8037897944
outer loop
vertex -24.47466278 51.98470306 233.5605927
vertex -24.26720428 51.84967804 233.6550293
vertex -24.30879974 52.02799225 233.6850128

endloop
endfacet
facet normal -0.50415802 -0.3444699049 0.79193753
outer loop
vertex -24.47466278 51.98470306 233.5605927
vertex -24.30879974 52.02799225 233.6850128
vertex -24.52559662 52.1584549 233.6037445

endloop
endfacet
facet normal -0.4805094004 -0.2809910178 0.8307555318
outer loop
vertex -24.52559662 52.1584549 233.6037445
vertex -24.30879974 52.02799225 233.6850128
vertex -24.35358429 52.20418549 233.7187042

endloop
endfacet
facet normal -0.4537467659 -0.3515144587 0.8188720345
outer loop
vertex -24.52561188 52.15843964 233.6037445
vertex -24.35358429 52.20418549 233.7187042
vertex -24.58382416 52.33577728 233.6476135

endloop
endfacet
facet normal -0.4364196956 -0.3066006303 0.8458923697
outer loop
vertex -24.58382416 52.33577728 233.6476135
vertex -24.35358429 52.20418549 233.7187042
vertex -24.40781403 52.38350677 233.755722

endloop
endfacet
facet normal -0.4197536707 -0.3494427204 0.8376733065
outer loop
vertex -24.58382416 52.33577728 233.6476135
vertex -24.40781403 52.38350677 233.755722
vertex -24.65181732 52.52063751 233.6906586

endloop
endfacet
facet normal -0.41107741 -0.3278730512 0.8505966067
outer loop
vertex -24.65181732 52.52063751 233.6906586
vertex -24.40781403 52.38350677 233.755722
vertex -24.47400665 52.56941986 233.7953949

endloop
endfacet
facet normal -0.4049238861 -0.3432396352 0.8474804759
outer loop
vertex -24.65180206 52.52065277 233.6906738
vertex -24.47399139 52.56945038 233.7953949
vertex -24.72731781 52.71251678 233.7322998

endloop
endfacet
facet normal -0.4032268822 -0.3391539752 0.8499310613
outer loop
vertex -24.72731781 52.71251678 233.7322998
vertex -24.47399139 52.56945038 233.7953949
vertex -24.54917145 52.76146698 233.8363495

endloop
endfacet
facet normal -0.4030735791 -0.3395393491 0.8498498797
outer loop
vertex -24.72731781 52.71251678 233.7322998
vertex -24.54917145 52.76146698 233.8363495
vertex -24.80480194 52.90563202 233.7727051

endloop
endfacet
facet normal -0.4038936198 -0.3415152431 0.8486679792
outer loop
vertex -24.80480194 52.90563202 233.7727051
vertex -24.54917145 52.76146698 233.8363495
vertex -24.62682343 52.95450592 233.8770752

endloop
endfacet
facet normal -0.4027459323 -0.3443837166 0.8480539918
outer loop
vertex -24.80480194 52.90563202 233.7727051
vertex -24.62682343 52.95450592 233.8770752
vertex -24.87841034 53.09200287 233.8134308

endloop
endfacet
facet normal -0.4010169506 -0.3400293291 0.8506264687
outer loop
vertex -24.87841034 53.09200287 233.8134308
vertex -24.62682343 52.95450592 233.8770752
vertex -24.7002182 53.1414566 233.9172058

endloop
endfacet
facet normal -0.3922711611 -0.3614962399 0.8458390832
outer loop
vertex -24.87841034 53.09200287 233.8134308
vertex -24.7002182 53.1414566 233.9172058
vertex -24.94551849 53.26700592 233.8571014

endloop
endfacet
facet normal -0.3849180937 -0.34158957 0.857411623
outer loop
vertex -24.94551849 53.26700592 233.8571014
vertex -24.7002182 53.1414566 233.9172058
vertex -24.76621246 53.31819916 233.9579926

endloop
endfacet
facet normal -0.3666941822 -0.3848142922 0.8470262289
outer loop
vertex -24.94550323 53.2670517 233.857132
vertex -24.7661972 53.31822968 233.9580078
vertex -25.00835419 53.43264008 233.9051514

endloop
endfacet
facet normal -0.3551518917 -0.3515282273 0.8661957383
outer loop
vertex -25.00835419 53.43264008 233.9051514
vertex -24.7661972 53.31822968 233.9580078
vertex -24.82724762 53.48642731 234.001236

endloop
endfacet
facet normal -0.33032161 -0.4081197679 0.8510733843
outer loop
vertex -25.00835419 53.43264008 233.9051514
vertex -24.82724762 53.48642731 234.001236
vertex -25.07059479 53.5943222 233.9585266

endloop
endfacet
facet normal -0.316573441 -0.3679132164 0.8743118048
outer loop
vertex -25.07059479 53.5943222 233.9585266
vertex -24.82724762 53.48642731 234.001236
vertex -24.88732147 53.65096283 234.0487213

endloop
endfacet
facet normal -0.2959420979 -0.4135447145 0.8610452414
outer loop
vertex -25.07059479 53.5943222 233.9585266
vertex -24.88732147 53.65096283 234.0487213
vertex -25.13944244 53.75971222 234.0142975

endloop
endfacet
facet normal -0.2865212858 -0.3868053555 0.876519978
outer loop
vertex -25.13944244 53.75971222 234.0142975
vertex -24.88732147 53.65096283 234.0487213
vertex -24.95549774 53.81809235 234.1001892

endloop
endfacet
facet normal -0.3088141084 -0.336062938 0.8897727132
outer loop
vertex -25.13944244 53.75971222 234.0142975
vertex -24.95549774 53.81809235 234.1001892
vertex -25.21326447 53.93735504 234.0557709

endloop
endfacet
facet normal -0.3118984699 -0.3443078399 0.8855344653
outer loop
vertex -25.21326447 53.93735504 234.0557709
vertex -24.95549774 53.81809235 234.1001892
vertex -25.03754425 53.99288177 234.1392517

endloop
endfacet
facet normal -0.3936050534 -0.1238683611 0.9108961225
outer loop
vertex -25.21326447 53.93735504 234.0557709
vertex -25.03754425 53.99288177 234.1392517
vertex -25.27143097 54.11646271 234.0549927

endloop
endfacet
facet normal -0.4179822206 -0.1845893413 0.8895041943
outer loop
vertex -25.27143097 54.11646271 234.0549927
vertex -25.03754425 53.99288177 234.1392517
vertex -25.12299347 54.16144562 234.134079

endloop
endfacet
facet normal -0.4762786329 0.02659084089 0.8788922429
outer loop
vertex -25.27144623 54.11644745 234.0549927
vertex -25.12299347 54.16144562 234.134079
vertex -25.32909393 54.26859283 234.0191498

endloop
endfacet
facet normal -0.5351924896 -0.1350250542 0.8338688612
outer loop
vertex -25.32909393 54.26859283 234.0191498
vertex -25.12299347 54.16144562 234.134079
vertex -25.21616364 54.29949188 234.0966339

endloop
endfacet
facet normal -0.5022648573 0.7480787039 0.4337146282
outer loop
vertex -25.32909393 54.26859283 234.0191498
vertex -25.21616364 54.29949188 234.0966339
vertex -25.20890045 54.44326019 233.8570709

endloop
endfacet
facet normal 0.9995409846 0 0.03029683605
outer loop
vertex -25.20890045 54.44326019 233.8570709
vertex -25.21616364 54.29949188 234.0966339
vertex -25.20890045 54.44322968 233.8570709

endloop
endfacet
facet normal 0.8101808429 -0.5826914907 0.0638564229
outer loop
vertex -23.88532257 51.24571991 233.1899567
vertex -23.88529205 51.24576569 233.1899872
vertex -23.93471527 51.20818329 233.4741058

endloop
endfacet
facet normal 0.4060687125 -0.9124701619 -0.05006216466
outer loop
vertex -23.93471527 51.20818329 233.4741058
vertex -23.88529205 51.24576569 233.1899872
vertex -23.82450104 51.257164 233.4753265

endloop
endfacet
facet normal 0.2075440437 -0.4881337285 0.847732842
outer loop
vertex -23.93471527 51.20818329 233.4741058
vertex -23.82450104 51.257164 233.4753265
vertex -24.02100372 51.31647491 233.5575867

endloop
endfacet
facet normal 0.1475316286 -0.6008390188 0.7856378555
outer loop
vertex -24.02100372 51.31647491 233.5575867
vertex -23.82450104 51.257164 233.4753265
vertex -23.88669586 51.36746979 233.5713654

endloop
endfacet
facet normal 0.0168867968 -0.3020153046 0.953153491
outer loop
vertex -24.02100372 51.31647491 233.5575867
vertex -23.88669586 51.36746979 233.5713654
vertex -24.13443756 51.47458649 233.6096954

endloop
endfacet
facet normal -0.05084196106 -0.4386452138 0.8972209692
outer loop
vertex -24.13443756 51.47458649 233.6096954
vertex -23.88669586 51.36746979 233.5713654
vertex -23.98210907 51.52500153 233.6429749

endloop
endfacet
facet normal -0.1546239406 -0.1746988595 0.9724051952
outer loop
vertex -24.13443756 51.47458649 233.6096954
vertex -23.98210907 51.52500153 233.6429749
vertex -24.21677399 51.66432953 233.6306915

endloop
endfacet
facet normal -0.1779518127 -0.2150606513 0.9602509737
outer loop
vertex -24.21677399 51.66432953 233.6306915
vertex -23.98210907 51.52500153 233.6429749
vertex -24.06172943 51.71385956 233.670517

endloop
endfacet
facet normal -0.1908538491 -0.1786696166 0.9652212858
outer loop
vertex -24.21677399 51.66432953 233.6306915
vertex -24.06172943 51.71385956 233.670517
vertex -24.26720428 51.84967804 233.6550293

endloop
endfacet
facet normal -0.1659483165 -0.1397409588 0.9761831164
outer loop
vertex -24.26720428 51.84967804 233.6550293
vertex -24.06172943 51.71385956 233.670517
vertex -24.11113739 51.90087128 233.6888885

endloop
endfacet
facet normal -0.1457141042 -0.1970141232 0.9695116878
outer loop
vertex -24.26720428 51.84967804 233.6550293
vertex -24.11113739 51.90087128 233.6888885
vertex -24.30879974 52.02799225 233.6850128

endloop
endfacet
facet normal -0.1065204516 -0.135598436 0.9850209951
outer loop
vertex -24.30879974 52.02799225 233.6850128
vertex -24.11113739 51.90087128 233.6888885
vertex -24.15193939 52.08200836 233.7094116

endloop
endfacet
facet normal -0.08042042702 -0.2068894058 0.9750534892
outer loop
vertex -24.30879974 52.02799225 233.6850128
vertex -24.15193939 52.08200836 233.7094116
vertex -24.35358429 52.20418549 233.7187042

endloop
endfacet
facet normal -0.04464232549 -0.148813948 0.9878570437
outer loop
vertex -24.35358429 52.20418549 233.7187042
vertex -24.15193939 52.08200836 233.7094116
vertex -24.1966629 52.2612381 233.7343903

endloop
endfacet
facet normal -0.0220087003 -0.2085006833 0.9777745605
outer loop
vertex -24.35358429 52.20418549 233.7187042
vertex -24.1966629 52.26125336 233.7344055
vertex -24.40781403 52.38350677 233.755722

endloop
endfacet
facet normal 0.003143307753 -0.1664997339 0.9860364795
outer loop
vertex -24.40781403 52.38350677 233.755722
vertex -24.1966629 52.26125336 233.7344055
vertex -24.25122833 52.44303131 233.765274

endloop
endfacet
facet normal 0.01734907925 -0.20275262 0.9790762663
outer loop
vertex -24.40781403 52.38350677 233.755722
vertex -24.25122833 52.44303131 233.765274
vertex -24.47400665 52.56941986 233.7953949

endloop
endfacet
facet normal 0.0292615518 -0.182629779 0.9827462435
outer loop
vertex -24.47400665 52.56941986 233.7953949
vertex -24.25122833 52.44303131 233.765274
vertex -24.31774139 52.63025665 233.8020477

endloop
endfacet
facet normal 0.03432808816 -0.1955982596 0.9800831676
outer loop
vertex -24.47399139 52.56945038 233.7953949
vertex -24.31772614 52.63028717 233.802063
vertex -24.54917145 52.76146698 233.8363495

endloop
endfacet
facet normal 0.03662751988 -0.1917197555 0.9807659388
outer loop
vertex -24.54917145 52.76146698 233.8363495
vertex -24.31772614 52.63028717 233.802063
vertex -24.39296722 52.82253265 233.842453

endloop
endfacet
facet normal 0.0367799364 -0.1921015531 0.9806855917
outer loop
vertex -24.54917145 52.76146698 233.8363495
vertex -24.39296722 52.82253265 233.842453
vertex -24.62682343 52.95450592 233.8770752

endloop
endfacet
facet normal 0.03568936512 -0.193949163 0.9803621769
outer loop
vertex -24.62682343 52.95450592 233.8770752
vertex -24.39296722 52.82253265 233.842453
vertex -24.47058868 53.0154953 233.8834534

endloop
endfacet
facet normal 0.03651340678 -0.1960139573 0.9799211025
outer loop
vertex -24.62682343 52.95450592 233.8770752
vertex -24.47058868 53.0154953 233.8834534
vertex -24.7002182 53.1414566 233.9172058

endloop
endfacet
facet normal 0.03899837658 -0.1916874051 0.9806808829
outer loop
vertex -24.7002182 53.1414566 233.9172058
vertex -24.47058868 53.0154953 233.8834534
vertex -24.54425812 53.20316315 233.9230652

endloop
endfacet
facet normal 0.0457409136 -0.2083772272 0.976978302
outer loop
vertex -24.7002182 53.1414566 233.9172058
vertex -24.54425812 53.20316315 233.9230652
vertex -24.76621246 53.31819916 233.9579926

endloop
endfacet
facet normal 0.05589070171 -0.1897824109 0.9802340865
outer loop
vertex -24.76621246 53.31819916 233.9579926
vertex -24.54425812 53.20316315 233.9230652
vertex -24.61109161 53.38208771 233.9615173

endloop
endfacet
facet normal 0.07018966228 -0.224330619 0.9719821215
outer loop
vertex -24.7661972 53.31822968 233.9580078
vertex -24.61107635 53.38210297 233.9615479
vertex -24.82724762 53.48642731 234.001236

endloop
endfacet
facet normal 0.08616580069 -0.1932702214 0.9773546457
outer loop
vertex -24.82724762 53.48642731 234.001236
vertex -24.61107635 53.38210297 233.9615479
vertex -24.67346954 53.5535202 234.000946

endloop
endfacet
facet normal 0.1063833162 -0.2396624535 0.9650101066
outer loop
vertex -24.82724762 53.48642731 234.001236
vertex -24.67346954 53.5535202 234.000946
vertex -24.88732147 53.65096283 234.0487213

endloop
endfacet
facet normal 0.1251439601 -0.2016383708 0.9714323878
outer loop
vertex -24.88732147 53.65096283 234.0487213
vertex -24.67346954 53.5535202 234.000946
vertex -24.7352066 53.72162628 234.0437927

endloop
endfacet
facet normal 0.1417298019 -0.2380803674 0.9608488083
outer loop
vertex -24.88732147 53.65096283 234.0487213
vertex -24.7352066 53.72162628 234.0437927
vertex -24.95549774 53.81809235 234.1001892

endloop
endfacet
facet normal 0.1540578157 -0.2123405486 0.9649755359
outer loop
vertex -24.95549774 53.81809235 234.1001892
vertex -24.7352066 53.72162628 234.0437927
vertex -24.80521393 53.89099884 234.0922394

endloop
endfacet
facet normal 0.128630504 -0.1584017277 0.9789601564
outer loop
vertex -24.95549774 53.81809235 234.1001892
vertex -24.80521393 53.89099884 234.0922394
vertex -25.03754425 53.99288177 234.1392517

endloop
endfacet
facet normal 0.1250561476 -0.1661717445 0.9781349301
outer loop
vertex -25.03754425 53.99288177 234.1392517
vertex -24.80521393 53.89099884 234.0922394
vertex -24.89331818 54.06217194 234.1325836

endloop
endfacet
facet normal 0.02529136837 0.04346905649 0.9987345338
outer loop
vertex -25.03754425 53.99288177 234.1392517
vertex -24.89331818 54.06217194 234.1325836
vertex -25.12299347 54.16144562 234.134079

endloop
endfacet
facet normal 0.003247570945 -0.007549069822 0.9999662042
outer loop
vertex -25.12299347 54.16144562 234.134079
vertex -24.89331818 54.06217194 234.1325836
vertex -24.9970932 54.21762848 234.1340942

endloop
endfacet
facet normal -0.09078510851 0.2031757236 0.9749244452
outer loop
vertex -25.12299347 54.16144562 234.134079
vertex -24.9970932 54.21762848 234.1340942
vertex -25.21616364 54.29949188 234.0966339

endloop
endfacet
facet normal -0.1412781179 0.07368222624 0.987224102
outer loop
vertex -25.21616364 54.29949188 234.0966339
vertex -24.9970932 54.21762848 234.1340942
vertex -25.11026764 54.34102631 234.1086884

endloop
endfacet
facet normal -0.3681366444 0.8021544814 0.4701313376
outer loop
vertex -25.21616364 54.29949188 234.0966339
vertex -25.11026764 54.34102631 234.1086884
vertex -25.20890045 54.44322968 233.8570709

endloop
endfacet
facet normal -0.8742369413 0.2208505869 0.4323595166
outer loop
vertex -25.20890045 54.44322968 233.8570709
vertex -25.11026764 54.34102631 234.1086884
vertex -25.20888519 54.44326019 233.8570862

endloop
endfacet
facet normal 0 0.9992030859 -0.03991468996
outer loop
vertex -23.88529205 51.24576569 233.1899872
vertex -23.88530731 51.24576569 233.1899872
vertex -23.82450104 51.257164 233.4753265

endloop
endfacet
facet normal 0.4925049841 -0.8674655557 -0.07030137628
outer loop
vertex -23.82450104 51.257164 233.4753265
vertex -23.88530731 51.24576569 233.1899872
vertex -23.73564911 51.31162262 233.4258118

endloop
endfacet
facet normal 0.5995904803 -0.3058359325 0.7395644784
outer loop
vertex -23.82450104 51.257164 233.4753265
vertex -23.73564911 51.31162262 233.4258118
vertex -23.88669586 51.36746979 233.5713654

endloop
endfacet
facet normal 0.5196951628 -0.464030236 0.7173511982
outer loop
vertex -23.88669586 51.36746979 233.5713654
vertex -23.73564911 51.31162262 233.4258118
vertex -23.77532196 51.42023468 233.5248108

endloop
endfacet
facet normal 0.4372756779 -0.1390458196 0.8885135055
outer loop
vertex -23.88669586 51.36746979 233.5713654
vertex -23.77532196 51.42023468 233.5248108
vertex -23.98210907 51.52500153 233.6429749

endloop
endfacet
facet normal 0.3604838848 -0.2888226211 0.8869232535
outer loop
vertex -23.98210907 51.52500153 233.6429749
vertex -23.77532196 51.42023468 233.5248108
vertex -23.84705353 51.57707977 233.6050415

endloop
endfacet
facet normal 0.2784245312 -0.02264888585 0.9601910114
outer loop
vertex -23.98210907 51.52500153 233.6429749
vertex -23.84705353 51.57707977 233.6050415
vertex -24.06172943 51.71385956 233.670517

endloop
endfacet
facet normal 0.2544155419 -0.06266305596 0.9650626779
outer loop
vertex -24.06172943 51.71385956 233.670517
vertex -23.84705353 51.57707977 233.6050415
vertex -23.92142487 51.76509857 233.6368561

endloop
endfacet
facet normal 0.2438081503 -0.03081161901 0.9693338871
outer loop
vertex -24.06172943 51.71385956 233.670517
vertex -23.92142487 51.76509857 233.6368561
vertex -24.11113739 51.90087128 233.6888885

endloop
endfacet
facet normal 0.2692955434 0.007217032369 0.9630305767
outer loop
vertex -24.11113739 51.90087128 233.6888885
vertex -23.92142487 51.76509857 233.6368561
vertex -23.97275543 51.95381927 233.6497955

endloop
endfacet
facet normal 0.2870695889 -0.0437553525 0.9569098353
outer loop
vertex -24.11113739 51.90087128 233.6888885
vertex -23.97275543 51.95381927 233.6497955
vertex -24.15193939 52.08200836 233.7094116

endloop
endfacet
facet normal 0.3256411254 0.01552902162 0.9453659058
outer loop
vertex -24.15193939 52.08200836 233.7094116
vertex -23.97275543 51.95381927 233.6497955
vertex -24.01732635 52.13790131 233.6621246

endloop
endfacet
facet normal 0.3472809196 -0.04389172047 0.9367334247
outer loop
vertex -24.15193939 52.08200836 233.7094116
vertex -24.01732635 52.13790131 233.6621246
vertex -24.1966629 52.2612381 233.7343903

endloop
endfacet
facet normal 0.3809470236 0.01221855078 0.9245161414
outer loop
vertex -24.1966629 52.2612381 233.7343903
vertex -24.01732635 52.13790131 233.6621246
vertex -24.06616974 52.32028961 233.6798401

endloop
endfacet
facet normal 0.3993255496 -0.03570134938 0.9161138535
outer loop
vertex -24.1966629 52.26125336 233.7344055
vertex -24.06616974 52.32027435 233.6798248
vertex -24.25122833 52.44303131 233.765274

endloop
endfacet
facet normal 0.4217637479 0.004681881983 0.9066937566
outer loop
vertex -24.25122833 52.44303131 233.765274
vertex -24.06616974 52.32027435 233.6798248
vertex -24.12404633 52.50460052 233.7057953

endloop
endfacet
facet normal 0.43273893 -0.02327854931 0.9012186527
outer loop
vertex -24.25122833 52.44303131 233.765274
vertex -24.12404633 52.50460052 233.7057953
vertex -24.31774139 52.63025665 233.8020477

endloop
endfacet
facet normal 0.4433440268 -0.003198587568 0.8963458538
outer loop
vertex -24.31774139 52.63025665 233.8020477
vertex -24.12404633 52.50460052 233.7057953
vertex -24.19231415 52.6931839 233.7402344

endloop
endfacet
facet normal 0.4471312761 -0.01290629897 0.894375205
outer loop
vertex -24.31772614 52.63028717 233.802063
vertex -24.19229889 52.6931839 233.7402649
vertex -24.39296722 52.82253265 233.842453

endloop
endfacet
facet normal 0.4492155313 -0.008886074647 0.8933792114
outer loop
vertex -24.39296722 52.82253265 233.842453
vertex -24.19229889 52.6931839 233.7402649
vertex -24.26787567 52.88570404 233.7801819

endloop
endfacet
facet normal 0.4492935836 -0.009081341326 0.8933380246
outer loop
vertex -24.39296722 52.82253265 233.842453
vertex -24.26787567 52.88570404 233.7801819
vertex -24.47058868 53.0154953 233.8834534

endloop
endfacet
facet normal 0.4483565688 -0.01090315171 0.8937883377
outer loop
vertex -24.47058868 53.0154953 233.8834534
vertex -24.26787567 52.88570404 233.7801819
vertex -24.34534454 53.07857513 233.8213959

endloop
endfacet
facet normal 0.4489362836 -0.01235915907 0.893478334
outer loop
vertex -24.47058868 53.0154953 233.8834534
vertex -24.34534454 53.07857513 233.8213959
vertex -24.54425812 53.20316315 233.9230652

endloop
endfacet
facet normal 0.4510324597 -0.008189653978 0.8924699426
outer loop
vertex -24.54425812 53.20316315 233.9230652
vertex -24.34534454 53.07857513 233.8213959
vertex -24.41960907 53.26703644 233.8606567

endloop
endfacet
facet normal 0.4561111331 -0.02082760818 0.8896790147
outer loop
vertex -24.54425812 53.20316315 233.9230652
vertex -24.41960907 53.26703644 233.8606567
vertex -24.61109161 53.38208771 233.9615173

endloop
endfacet
facet normal 0.4648864865 -0.002442273777 0.8853669167
outer loop
vertex -24.61109161 53.38208771 233.9615173
vertex -24.41960907 53.26703644 233.8606567
vertex -24.48851776 53.44818878 233.8973389

endloop
endfacet
facet normal 0.4758683741 -0.02882903069 0.8790438771
outer loop
vertex -24.61107635 53.38210297 233.9615479
vertex -24.48851776 53.4482193 233.8973694
vertex -24.67346954 53.5535202 234.000946

endloop
endfacet
facet normal 0.4890650809 0.00103567529 0.8722466826
outer loop
vertex -24.67346954 53.5535202 234.000946
vertex -24.48851776 53.4482193 233.8973694
vertex -24.55428314 53.62297821 233.9340363

endloop
endfacet
facet normal 0.5044932365 -0.03461400792 0.8627215624
outer loop
vertex -24.67346954 53.5535202 234.000946
vertex -24.55428314 53.62297821 233.9340363
vertex -24.7352066 53.72162628 234.0437927

endloop
endfacet
facet normal 0.5196561217 0.00248505082 0.8543719053
outer loop
vertex -24.7352066 53.72162628 234.0437927
vertex -24.55428314 53.62297821 233.9340363
vertex -24.62015533 53.79471588 233.9736023

endloop
endfacet
facet normal 0.5311535597 -0.02272070013 0.8469708562
outer loop
vertex -24.7352066 53.72162628 234.0437927
vertex -24.62015533 53.79471588 233.9736023
vertex -24.80521393 53.89099884 234.0922394

endloop
endfacet
facet normal 0.5405931473 0.002433724934 0.8412806392
outer loop
vertex -24.80521393 53.89099884 234.0922394
vertex -24.62015533 53.79471588 233.9736023
vertex -24.69351959 53.966362 234.0202484

endloop
endfacet
facet normal 0.5112823844 0.06111696362 0.8572368622
outer loop
vertex -24.80521393 53.89099884 234.0922394
vertex -24.69351959 53.966362 234.0202484
vertex -24.89331818 54.06217194 234.1325836

endloop
endfacet
facet normal 0.5088909864 0.05389626697 0.8591421247
outer loop
vertex -24.89331818 54.06217194 234.1325836
vertex -24.69351959 53.966362 234.0202484
vertex -24.78560638 54.13387299 234.0642853

endloop
endfacet
facet normal 0.3921916187 0.2532140911 0.8843462467
outer loop
vertex -24.89331818 54.06217194 234.1325836
vertex -24.78560638 54.13387299 234.0642853
vertex -24.9970932 54.21762848 234.1340942

endloop
endfacet
facet normal 0.3803952932 0.2097833008 0.9007165432
outer loop
vertex -24.9970932 54.21762848 234.1340942
vertex -24.78560638 54.13387299 234.0642853
vertex -24.89963531 54.27577972 234.0793915

endloop
endfacet
facet normal 0.2487764508 0.4089334011 0.8779997826
outer loop
vertex -24.9970932 54.21762848 234.1340942
vertex -24.89962006 54.27577972 234.0793915
vertex -25.11026764 54.34102631 234.1086884

endloop
endfacet
facet normal 0.225516662 0.3139648139 0.922262609
outer loop
vertex -25.11026764 54.34102631 234.1086884
vertex -24.89962006 54.27577972 234.0793915
vertex -25.01839447 54.38700104 234.0705719

endloop
endfacet
facet normal -0.2456517369 0.8606623411 0.4459994733
outer loop
vertex -25.11026764 54.34102631 234.1086884
vertex -25.01839447 54.38700104 234.0705719
vertex -25.20888519 54.44326019 233.8570862

endloop
endfacet
facet normal -0.6462987065 -0.6459292173 0.4062924087
outer loop
vertex -25.20888519 54.44326019 233.8570862
vertex -25.01839447 54.38700104 234.0705719
vertex -25.20890045 54.44327545 233.8570862

endloop
endfacet
facet normal -0.6261512041 -0.5513323545 0.5513323545
outer loop
vertex -23.88530731 51.24576569 233.1899872
vertex -23.88530731 51.24575043 233.1899719
vertex -23.73564911 51.31162262 233.4258118

endloop
endfacet
facet normal 0.5621235967 -0.8170077205 -0.1285122782
outer loop
vertex -23.73564911 51.31162262 233.4258118
vertex -23.88530731 51.24575043 233.1899719
vertex -23.68000031 51.36499786 233.329895

endloop
endfacet
facet normal 0.8832077384 -0.09584152699 0.459084481
outer loop
vertex -23.73564911 51.31162262 233.4258118
vertex -23.68000031 51.36499786 233.329895
vertex -23.77532196 51.42023468 233.5248108

endloop
endfacet
facet normal 0.8091305494 -0.3268690705 0.4883282185
outer loop
vertex -23.77532196 51.42023468 233.5248108
vertex -23.68000031 51.36499786 233.329895
vertex -23.69506073 51.47023773 233.425293

endloop
endfacet
facet normal 0.7713069916 0.02748437971 0.6358695626
outer loop
vertex -23.77532196 51.42023468 233.5248108
vertex -23.69506073 51.47023773 233.425293
vertex -23.84705353 51.57707977 233.6050415

endloop
endfacet
facet normal 0.7143828869 -0.137891531 0.6860342026
outer loop
vertex -23.84705353 51.57707977 233.6050415
vertex -23.69506073 51.47023773 233.425293
vertex -23.73966217 51.62641144 233.5031281

endloop
endfacet
facet normal 0.6502553821 0.1305719912 0.7484109998
outer loop
vertex -23.84705353 51.57707977 233.6050415
vertex -23.73966217 51.62641144 233.5031281
vertex -23.92142487 51.76509857 233.6368561

endloop
endfacet
facet normal 0.63382411 0.08992472291 0.7682321072
outer loop
vertex -23.92142487 51.76509857 233.6368561
vertex -23.73966217 51.62641144 233.5031281
vertex -23.8068924 51.81362152 233.5366821

endloop
endfacet
facet normal 0.6252307296 0.1171541587 0.7715966702
outer loop
vertex -23.92142487 51.76509857 233.6368561
vertex -23.8068924 51.81362152 233.5366821
vertex -23.97275543 51.95381927 233.6497955

endloop
endfacet
facet normal 0.6425287724 0.1546443403 0.7504943609
outer loop
vertex -23.97275543 51.95381927 233.6497955
vertex -23.8068924 51.81362152 233.5366821
vertex -23.86270905 52.00399017 233.5452423

endloop
endfacet
facet normal 0.6579759121 0.1094121709 0.7450481057
outer loop
vertex -23.97275543 51.95381927 233.6497955
vertex -23.86270905 52.00399017 233.5452423
vertex -24.01732635 52.13790131 233.6621246

endloop
endfacet
facet normal 0.6831796169 0.168662712 0.7105058432
outer loop
vertex -24.01732635 52.13790131 233.6621246
vertex -23.86270905 52.00399017 233.5452423
vertex -23.91507721 52.1908493 233.551239

endloop
endfacet
facet normal 0.70084095 0.1193767041 0.7032575607
outer loop
vertex -24.01732635 52.13790131 233.6621246
vertex -23.91507721 52.1908493 233.551239
vertex -24.06616974 52.32028961 233.6798401

endloop
endfacet
facet normal 0.72075212 0.1748998314 0.6707655787
outer loop
vertex -24.06616974 52.32028961 233.6798401
vertex -23.91507721 52.1908493 233.551239
vertex -23.97159576 52.37618256 233.5636444

endloop
endfacet
facet normal 0.7348634005 0.137157768 0.6642014384
outer loop
vertex -24.06616974 52.32027435 233.6798248
vertex -23.97159576 52.37618256 233.5636444
vertex -24.12404633 52.50460052 233.7057953

endloop
endfacet
facet normal 0.7470055223 0.1776502877 0.6406427026
outer loop
vertex -24.12404633 52.50460052 233.7057953
vertex -23.97159576 52.37618256 233.5636444
vertex -24.03531647 52.56290436 233.5861664

endloop
endfacet
facet normal 0.7550455928 0.1570769846 0.6365792155
outer loop
vertex -24.12404633 52.50460052 233.7057953
vertex -24.03531647 52.56290436 233.5861664
vertex -24.19231415 52.6931839 233.7402344

endloop
endfacet
facet normal 0.7602608204 0.1770127863 0.6250360012
outer loop
vertex -24.19231415 52.6931839 233.7402344
vertex -24.03531647 52.56290436 233.5861664
vertex -24.10654449 52.75276947 233.6190338

endloop
endfacet
facet normal 0.7629496455 0.1702006012 0.6236501336
outer loop
vertex -24.19229889 52.6931839 233.7402649
vertex -24.10651398 52.75279999 233.6190491
vertex -24.26787567 52.88570404 233.7801819

endloop
endfacet
facet normal 0.763886869 0.1740079224 0.621448338
outer loop
vertex -24.26787567 52.88570404 233.7801819
vertex -24.10651398 52.75279999 233.6190491
vertex -24.18265533 52.94553375 233.6586761

endloop
endfacet
facet normal 0.7638800144 0.1740250587 0.6214520335
outer loop
vertex -24.26787567 52.88570404 233.7801819
vertex -24.18265533 52.94553375 233.6586761
vertex -24.34534454 53.07857513 233.8213959

endloop
endfacet
facet normal 0.7634518147 0.1722559035 0.6224703193
outer loop
vertex -24.34534454 53.07857513 233.8213959
vertex -24.18265533 52.94553375 233.6586761
vertex -24.25989532 53.13832855 233.700058

endloop
endfacet
facet normal 0.7638120651 0.1713505983 0.6222781539
outer loop
vertex -24.34534454 53.07857513 233.8213959
vertex -24.25989532 53.13832855 233.700058
vertex -24.41960907 53.26703644 233.8606567

endloop
endfacet
facet normal 0.7648141384 0.1756215543 0.6198518872
outer loop
vertex -24.41960907 53.26703644 233.8606567
vertex -24.25989532 53.13832855 233.700058
vertex -24.33498383 53.32746124 233.7391205

endloop
endfacet
facet normal 0.7682278752 0.167088747 0.6179865599
outer loop
vertex -24.41960907 53.26703644 233.8606567
vertex -24.33498383 53.32746124 233.7391205
vertex -24.48851776 53.44818878 233.8973389

endloop
endfacet
facet normal 0.7720378637 0.184913367 0.6080827117
outer loop
vertex -24.48851776 53.44818878 233.8973389
vertex -24.33498383 53.32746124 233.7391205
vertex -24.40699005 53.51078033 233.7747955

endloop
endfacet
facet normal 0.7795127034 0.1666592211 0.6038084626
outer loop
vertex -24.48851776 53.4482193 233.8973694
vertex -24.40697479 53.51079559 233.774826
vertex -24.55428314 53.62297821 233.9340363

endloop
endfacet
facet normal 0.7848555446 0.1965729892 0.5876740217
outer loop
vertex -24.55428314 53.62297821 233.9340363
vertex -24.40697479 53.51079559 233.774826
vertex -24.47782135 53.68874359 233.8099213

endloop
endfacet
facet normal 0.795681119 0.1713448465 0.5809754133
outer loop
vertex -24.55428314 53.62297821 233.9340363
vertex -24.47782135 53.68874359 233.8099213
vertex -24.62015533 53.79471588 233.9736023

endloop
endfacet
facet normal 0.800737381 0.2076293081 0.5618805289
outer loop
vertex -24.62015533 53.79471588 233.9736023
vertex -24.47782135 53.68874359 233.8099213
vertex -24.54981232 53.86397552 233.8477631

endloop
endfacet
facet normal 0.8071938753 0.1934518963 0.5576866865
outer loop
vertex -24.62015533 53.79471588 233.9736023
vertex -24.54981232 53.86397552 233.8477631
vertex -24.69351959 53.966362 234.0202484

endloop
endfacet
facet normal 0.8095616102 0.2181637585 0.5449904799
outer loop
vertex -24.69351959 53.966362 234.0202484
vertex -24.54981232 53.86397552 233.8477631
vertex -24.62767792 54.03780365 233.8938446

endloop
endfacet
facet normal 0.7777069807 0.2795085013 0.5630691051
outer loop
vertex -24.69351959 53.966362 234.0202484
vertex -24.62767792 54.03780365 233.8938446
vertex -24.78560638 54.13387299 234.0642853

endloop
endfacet
facet normal 0.7774763703 0.2724419534 0.5668385029
outer loop
vertex -24.78560638 54.13387299 234.0642853
vertex -24.62767792 54.03780365 233.8938446
vertex -24.7213974 54.20178986 233.943573

endloop
endfacet
facet normal 0.6511402726 0.4588696361 0.6045287251
outer loop
vertex -24.78560638 54.13387299 234.0642853
vertex -24.7213974 54.20178986 233.943573
vertex -24.89963531 54.27577972 234.0793915

endloop
endfacet
facet normal 0.653840661 0.4208987951 0.6287580132
outer loop
vertex -24.89963531 54.27577972 234.0793915
vertex -24.7213974 54.20178986 233.943573
vertex -24.83725739 54.33089447 233.9776306

endloop
endfacet
facet normal 0.5057345629 0.5899893045 0.6294006109
outer loop
vertex -24.89962006 54.27577972 234.0793915
vertex -24.83727264 54.33089447 233.9776306
vertex -25.01839447 54.38700104 234.0705719

endloop
endfacet
facet normal 0.5111287236 0.5328274965 0.6744198799
outer loop
vertex -25.01839447 54.38700104 234.0705719
vertex -24.83727264 54.33089447 233.9776306
vertex -24.95244598 54.43202972 233.9850159

endloop
endfacet
facet normal -0.1448819637 0.9172338843 0.3710677922
outer loop
vertex -25.01839447 54.38700104 234.0705719
vertex -24.95244598 54.43202972 233.9850159
vertex -25.20890045 54.44327545 233.8570862

endloop
endfacet
facet normal 0.3583321869 0.6600132585 -0.6602882147
outer loop
vertex -25.20890045 54.44327545 233.8570862
vertex -24.95244598 54.43202972 233.9850159
vertex -25.20890045 54.44326019 233.8570709

endloop
endfacet
facet normal -nan(ind) -nan(ind) -nan(ind)
outer loop
vertex -23.88530731 51.24575043 233.1899719
vertex -23.88530731 51.24575043 233.1899719
vertex -23.68000031 51.36499786 233.329895

endloop
endfacet
facet normal 0.5971955657 -0.7717486024 -0.2185442001
outer loop
vertex -23.68000031 51.36499786 233.329895
vertex -23.88530731 51.24575043 233.1899719
vertex -23.67519379 51.40654755 233.1963043

endloop
endfacet
facet normal 0.9943625331 0.08570486307 0.06243273243
outer loop
vertex -23.68000031 51.36499786 233.329895
vertex -23.67519379 51.40654755 233.1963043
vertex -23.69506073 51.47023773 233.425293

endloop
endfacet
facet normal 0.9549896121 -0.2538587749 0.1534619182
outer loop
vertex -23.69506073 51.47023773 233.425293
vertex -23.67519379 51.40654755 233.1963043
vertex -23.65924835 51.51232147 233.272049

endloop
endfacet
facet normal 0.9545457959 0.1419961452 0.2620675564
outer loop
vertex -23.69506073 51.47023773 233.425293
vertex -23.65924835 51.51232147 233.272049
vertex -23.73966217 51.62641144 233.5031281

endloop
endfacet
facet normal 0.9363030791 -0.04540694132 0.3482452333
outer loop
vertex -23.73966217 51.62641144 233.5031281
vertex -23.65924835 51.51232147 233.272049
vertex -23.67493439 51.66797638 233.3345184

endloop
endfacet
facet normal 0.8831967711 0.2455521822 0.3995841444
outer loop
vertex -23.73966217 51.62641144 233.5031281
vertex -23.67493439 51.66797638 233.3345184
vertex -23.8068924 51.81362152 233.5366821

endloop
endfacet
facet normal 0.8803681135 0.2019577771 0.4291445613
outer loop
vertex -23.8068924 51.81362152 233.5366821
vertex -23.67493439 51.66797638 233.3345184
vertex -23.73340607 51.85451508 233.366684

endloop
endfacet
facet normal 0.8701292872 0.2356618643 0.4328261912
outer loop
vertex -23.8068924 51.81362152 233.5366821
vertex -23.73340607 51.85451508 233.366684
vertex -23.86270905 52.00399017 233.5452423

endloop
endfacet
facet normal 0.8732899427 0.2751003802 0.4021001756
outer loop
vertex -23.86270905 52.00399017 233.5452423
vertex -23.73340607 51.85451508 233.366684
vertex -23.79647064 52.04625702 233.372467

endloop
endfacet
facet normal 0.886741221 0.2357526273 0.397631228
outer loop
vertex -23.86270905 52.00399017 233.5452423
vertex -23.79647064 52.04625702 233.372467
vertex -23.91507721 52.1908493 233.551239

endloop
endfacet
facet normal 0.8886722326 0.2966356874 0.3496696353
outer loop
vertex -23.91507721 52.1908493 233.551239
vertex -23.79647064 52.04625702 233.372467
vertex -23.86061859 52.235466 233.3749847

endloop
endfacet
facet normal 0.9044891 0.2528393567 0.343470186
outer loop
vertex -23.91507721 52.1908493 233.551239
vertex -23.86061859 52.235466 233.3749847
vertex -23.97159576 52.37618256 233.5636444

endloop
endfacet
facet normal 0.9023122191 0.3099972308 0.2995570004
outer loop
vertex -23.97159576 52.37618256 233.5636444
vertex -23.86061859 52.235466 233.3749847
vertex -23.92844391 52.4233017 233.384903

endloop
endfacet
facet normal 0.9148876071 0.2767640352 0.2939087749
outer loop
vertex -23.97159576 52.37618256 233.5636444
vertex -23.92842865 52.42331696 233.3848877
vertex -24.03531647 52.56290436 233.5861664

endloop
endfacet
facet normal 0.9108496308 0.317896992 0.2632385492
outer loop
vertex -24.03531647 52.56290436 233.5861664
vertex -23.92842865 52.42331696 233.3848877
vertex -24.00041962 52.61203766 233.4060822

endloop
endfacet
facet normal 0.9180998802 0.2994832397 0.2596195936
outer loop
vertex -24.03531647 52.56290436 233.5861664
vertex -24.00041962 52.61203766 233.4060822
vertex -24.10654449 52.75276947 233.6190338

endloop
endfacet
facet normal 0.9153650403 0.3194612265 0.245053947
outer loop
vertex -24.10654449 52.75276947 233.6190338
vertex -24.00041962 52.61203766 233.4060822
vertex -24.07572174 52.8030014 233.4384155

endloop
endfacet
facet normal 0.9181156754 0.3126319349 0.2435670644
outer loop
vertex -24.10651398 52.75279999 233.6190491
vertex -24.07570648 52.80303192 233.438446
vertex -24.18265533 52.94553375 233.6586761

endloop
endfacet
facet normal 0.9175285697 0.3164833784 0.2407898009
outer loop
vertex -24.18265533 52.94553375 233.6586761
vertex -24.07570648 52.80303192 233.438446
vertex -24.15262604 52.99596405 233.4779663

endloop
endfacet
facet normal 0.9177193046 0.3160069287 0.2406885624
outer loop
vertex -24.18265533 52.94553375 233.6586761
vertex -24.15262604 52.99596405 233.4779663
vertex -24.25989532 53.13832855 233.700058

endloop
endfacet
facet normal 0.918012917 0.3141125143 0.2420446873
outer loop
vertex -24.25989532 53.13832855 233.700058
vertex -24.15262604 52.99596405 233.4779663
vertex -24.22949982 53.18869781 233.5194092

endloop
endfacet
facet normal 0.9178930521 0.3144134283 0.2421084195
outer loop
vertex -24.25989532 53.13832855 233.700058
vertex -24.22949982 53.18869781 233.5194092
vertex -24.33498383 53.32746124 233.7391205

endloop
endfacet
facet normal 0.9171996117 0.3187647462 0.2390272915
outer loop
vertex -24.33498383 53.32746124 233.7391205
vertex -24.22949982 53.18869781 233.5194092
vertex -24.30562592 53.3784256 233.5585022

endloop
endfacet
facet normal 0.9188761115 0.3145871162 0.2381210178
outer loop
vertex -24.33498383 53.32746124 233.7391205
vertex -24.30562592 53.3784256 233.5585022
vertex -24.40699005 53.51078033 233.7747955

endloop
endfacet
facet normal 0.9156602621 0.3327339888 0.2255094349
outer loop
vertex -24.40699005 53.51078033 233.7747955
vertex -24.30562592 53.3784256 233.5585022
vertex -24.38166046 53.56352997 233.5941162

endloop
endfacet
facet normal 0.9199860096 0.3222799897 0.2230722159
outer loop
vertex -24.40697479 53.51079559 233.774826
vertex -24.3816452 53.56356049 233.5941315
vertex -24.47782135 53.68874359 233.8099213

endloop
endfacet
facet normal 0.9136621356 0.3522204757 0.2028847188
outer loop
vertex -24.47782135 53.68874359 233.8099213
vertex -24.3816452 53.56356049 233.5941315
vertex -24.4590683 53.74416351 233.6292572

endloop
endfacet
facet normal 0.9209010005 0.3354699016 0.1984978169
outer loop
vertex -24.47782135 53.68874359 233.8099213
vertex -24.4590683 53.74416351 233.6292572
vertex -24.54981232 53.86397552 233.8477631

endloop
endfacet
facet normal 0.9117572904 0.3716466129 0.1748638898
outer loop
vertex -24.54981232 53.86397552 233.8477631
vertex -24.4590683 53.74416351 233.6292572
vertex -24.53899384 53.92230988 233.6673737

endloop
endfacet
facet normal 0.9151837826 0.3641821444 0.1726555079
outer loop
vertex -24.54981232 53.86397552 233.8477631
vertex -24.53899384 53.92230988 233.6673737
vertex -24.62767792 54.03780365 233.8938446

endloop
endfacet
facet normal 0.9079506993 0.3883567452 0.1574947685
outer loop
vertex -24.62767792 54.03780365 233.8938446
vertex -24.53899384 53.92230988 233.6673737
vertex -24.62230682 54.09799957 233.714447

endloop
endfacet
facet normal 0.8766907454 0.4475381374 0.176416859
outer loop
vertex -24.62767792 54.03780365 233.8938446
vertex -24.62230682 54.09799957 233.714447
vertex -24.7213974 54.20178986 233.943573

endloop
endfacet
facet normal 0.8793680668 0.4404948354 0.1807652265
outer loop
vertex -24.7213974 54.20178986 233.943573
vertex -24.62230682 54.09799957 233.714447
vertex -24.71472931 54.25901031 233.771698

endloop
endfacet
facet normal 0.7534749508 0.6144983768 0.2338101566
outer loop
vertex -24.7213974 54.20178986 233.943573
vertex -24.71472931 54.25901031 233.771698
vertex -24.83725739 54.33089447 233.9776306

endloop
endfacet
facet normal 0.7737129927 0.5784245729 0.2584438026
outer loop
vertex -24.83725739 54.33089447 233.9776306
vertex -24.71472931 54.25901031 233.771698
vertex -24.8224411 54.37729645 233.829422

endloop
endfacet
facet normal 0.6424296498 0.7106599808 0.2867866158
outer loop
vertex -24.83727264 54.33089447 233.9776306
vertex -24.8224411 54.37729645 233.829422
vertex -24.95244598 54.43202972 233.9850159

endloop
endfacet
facet normal 0.6542958021 0.6929075122 0.3029460311
outer loop
vertex -24.95244598 54.43202972 233.9850159
vertex -24.8224411 54.37729645 233.829422
vertex -24.93099213 54.46721649 233.8582001

endloop
endfacet
facet normal -0.08410656452 0.9637564421 0.2531787157
outer loop
vertex -24.95244598 54.43202972 233.9850159
vertex -24.93099213 54.46721649 233.8582001
vertex -25.20890045 54.44326019 233.8570709

endloop
endfacet
facet normal 0.05798183009 -0.7058978081 0.7059365511
outer loop
vertex -25.20890045 54.44326019 233.8570709
vertex -24.93099213 54.46721649 233.8582001
vertex -25.20890045 54.44327545 233.8570862

endloop
endfacet
facet normal -0.5931385159 0.7825115919 -0.189373076
outer loop
vertex -23.88530731 51.24575043 233.1899719
vertex -23.88529205 51.24576569 233.1899872
vertex -23.67519379 51.40654755 233.1963043

endloop
endfacet
facet normal 0.5804156065 -0.7455798388 -0.3274573982
outer loop
vertex -23.67519379 51.40654755 233.1963043
vertex -23.88529205 51.24576569 233.1899872
vertex -23.73426056 51.41942596 233.0622864

endloop
endfacet
facet normal 0.9109008312 0.1405042261 -0.3879667222
outer loop
vertex -23.67519379 51.40654755 233.1963043
vertex -23.73426056 51.41942596 233.0622864
vertex -23.65924835 51.51232147 233.272049

endloop
endfacet
facet normal 0.9420060515 -0.246549651 -0.2276793271
outer loop
vertex -23.65924835 51.51232147 233.272049
vertex -23.73426056 51.41942596 233.0622864
vertex -23.6962204 51.52852631 233.101532

endloop
endfacet
facet normal 0.9655750394 0.1746662706 -0.1927599609
outer loop
vertex -23.65924835 51.51232147 233.272049
vertex -23.6962204 51.52852631 233.101532
vertex -23.67493439 51.66797638 233.3345184

endloop
endfacet
facet normal 0.9964514375 -0.01321971882 -0.08312494308
outer loop
vertex -23.67493439 51.66797638 233.3345184
vertex -23.6962204 51.52852631 233.101532
vertex -23.69123077 51.68404388 233.1366119

endloop
endfacet
facet normal 0.9502020478 0.3070399463 -0.05331555381
outer loop
vertex -23.67493439 51.66797638 233.3345184
vertex -23.69123077 51.68404388 233.1366119
vertex -23.73340607 51.85451508 233.366684

endloop
endfacet
facet normal 0.963940084 0.2653724551 -0.01992379688
outer loop
vertex -23.73340607 51.85451508 233.366684
vertex -23.69123077 51.68404388 233.1366119
vertex -23.74195099 51.87030792 233.16362

endloop
endfacet
facet normal 0.9496821165 0.3128251731 -0.01563329808
outer loop
vertex -23.73340607 51.85451508 233.366684
vertex -23.74195099 51.87030792 233.16362
vertex -23.79647064 52.04625702 233.372467

endloop
endfacet
facet normal 0.9358556867 0.3488734365 -0.04961258173
outer loop
vertex -23.79647064 52.04625702 233.372467
vertex -23.74195099 51.87030792 233.16362
vertex -23.81330109 52.06258392 233.1697998

endloop
endfacet
facet normal 0.945525527 0.3212640882 -0.05263981968
outer loop
vertex -23.79647064 52.04625702 233.372467
vertex -23.81330109 52.06258392 233.1697998
vertex -23.86061859 52.235466 233.3749847

endloop
endfacet
facet normal 0.9206923246 0.3760348558 -0.1045146137
outer loop
vertex -23.86061859 52.235466 233.3749847
vertex -23.81330109 52.06258392 233.1697998
vertex -23.89048004 52.25270844 233.1739655

endloop
endfacet
facet normal 0.9330783486 0.3426907361 -0.1092146561
outer loop
vertex -23.86061859 52.235466 233.3749847
vertex -23.89048004 52.25270844 233.1739655
vertex -23.92844391 52.4233017 233.384903

endloop
endfacet
facet normal 0.9063431025 0.3931514025 -0.1548358649
outer loop
vertex -23.92844391 52.4233017 233.384903
vertex -23.89048004 52.25270844 233.1739655
vertex -23.97031403 52.44150543 233.1860352

endloop
endfacet
facet normal 0.9163063169 0.3674321175 -0.1593000144
outer loop
vertex -23.92842865 52.42331696 233.3848877
vertex -23.97029877 52.44152069 233.1860352
vertex -24.00041962 52.61203766 233.4060822

endloop
endfacet
facet normal 0.8949461579 0.4035846889 -0.1902389079
outer loop
vertex -24.00041962 52.61203766 233.4060822
vertex -23.97029877 52.44152069 233.1860352
vertex -24.05083466 52.63101959 233.2091827

endloop
endfacet
facet normal 0.9011269808 0.3880703747 -0.1933171153
outer loop
vertex -24.00041962 52.61203766 233.4060822
vertex -24.05083466 52.63101959 233.2091827
vertex -24.07572174 52.8030014 233.4384155

endloop
endfacet
facet normal 0.8899597526 0.4058927596 -0.2079007477
outer loop
vertex -24.07572174 52.8030014 233.4384155
vertex -24.05083466 52.63101959 233.2091827
vertex -24.13031769 52.82242584 233.24263

endloop
endfacet
facet normal 0.8927874565 0.3988405168 -0.2094200402
outer loop
vertex -24.07570648 52.80303192 233.438446
vertex -24.13030243 52.8224411 233.2426605
vertex -24.15262604 52.99596405 233.4779663

endloop
endfacet
facet normal 0.8905404806 0.4023627341 -0.212230593
outer loop
vertex -24.15262604 52.99596405 233.4779663
vertex -24.13030243 52.8224411 233.2426605
vertex -24.2080307 53.01544952 233.2824249

endloop
endfacet
facet normal 0.8910473585 0.4010963142 -0.2125004381
outer loop
vertex -24.15262604 52.99596405 233.4779663
vertex -24.2080307 53.01544952 233.2824249
vertex -24.22949982 53.18869781 233.5194092

endloop
endfacet
facet normal 0.8921195269 0.3994113207 -0.2111714482
outer loop
vertex -24.22949982 53.18869781 233.5194092
vertex -24.2080307 53.01544952 233.2824249
vertex -24.28450775 53.20812225 233.323761

endloop
endfacet
facet normal 0.8914392591 0.4011169374 -0.2108108401
outer loop
vertex -24.22949982 53.18869781 233.5194092
vertex -24.28450775 53.20812225 233.323761
vertex -24.30562592 53.3784256 233.5585022

endloop
endfacet
facet normal 0.8890126944 0.4049117565 -0.2137822956
outer loop
vertex -24.30562592 53.3784256 233.5585022
vertex -24.28450775 53.20812225 233.323761
vertex -24.3615799 53.39812469 233.3631287

endloop
endfacet
facet normal 0.8885455728 0.4060676396 -0.2135319859
outer loop
vertex -24.30562592 53.3784256 233.5585022
vertex -24.3615799 53.39812469 233.3631287
vertex -24.38166046 53.56352997 233.5941162

endloop
endfacet
facet normal 0.8778786063 0.4221958816 -0.2260083854
outer loop
vertex -24.38166046 53.56352997 233.5941162
vertex -24.3615799 53.39812469 233.3631287
vertex -24.4414444 53.58393097 233.4000092

endloop
endfacet
facet normal 0.8785154223 0.4206489623 -0.2264179587
outer loop
vertex -24.3816452 53.56356049 233.5941315
vertex -24.44142914 53.58394623 233.4000397
vertex -24.4590683 53.74416351 233.6292572

endloop
endfacet
facet normal 0.8601863384 0.446703285 -0.2460397184
outer loop
vertex -24.4590683 53.74416351 233.6292572
vertex -24.44142914 53.58394623 233.4000397
vertex -24.52507782 53.76557159 233.4373474

endloop
endfacet
facet normal 0.8630390763 0.4402112067 -0.2477451414
outer loop
vertex -24.4590683 53.74416351 233.6292572
vertex -24.52507782 53.76557159 233.4373474
vertex -24.53899384 53.92230988 233.6673737

endloop
endfacet
facet normal 0.8395701051 0.4712313712 -0.2703018486
outer loop
vertex -24.53899384 53.92230988 233.6673737
vertex -24.52507782 53.76557159 233.4373474
vertex -24.61251068 53.94484711 233.4783173

endloop
endfacet
facet normal 0.8398127556 0.470708847 -0.2704584897
outer loop
vertex -24.53899384 53.92230988 233.6673737
vertex -24.61251068 53.94484711 233.4783173
vertex -24.62230682 54.09799957 233.714447

endloop
endfacet
facet normal 0.8229243159 0.4916486144 -0.2847405374
outer loop
vertex -24.62230682 54.09799957 233.714447
vertex -24.61251068 53.94484711 233.4783173
vertex -24.70064545 54.12123871 233.5281677

endloop
endfacet
facet normal 0.7926468253 0.5491579771 -0.2648330033
outer loop
vertex -24.62230682 54.09799957 233.714447
vertex -24.70064545 54.12123871 233.5281677
vertex -24.71472931 54.25901031 233.771698

endloop
endfacet
facet normal 0.7980860472 0.543051064 -0.2610635757
outer loop
vertex -24.71472931 54.25901031 233.771698
vertex -24.70064545 54.12123871 233.5281677
vertex -24.78835297 54.28115082 233.5926819

endloop
endfacet
facet normal 0.6776383519 0.7101977468 -0.1908547729
outer loop
vertex -24.71472931 54.25901031 233.771698
vertex -24.78835297 54.28115082 233.5926819
vertex -24.8224411 54.37729645 233.829422

endloop
endfacet
facet normal 0.715813458 0.6768264771 -0.1718050987
outer loop
vertex -24.8224411 54.37729645 233.829422
vertex -24.78835297 54.28115082 233.5926819
vertex -24.87717438 54.39521027 233.6719513

endloop
endfacet
facet normal 0.6131908298 0.7800700068 -0.1244502366
outer loop
vertex -24.8224411 54.37729645 233.829422
vertex -24.87718964 54.39521027 233.6719513
vertex -24.93099213 54.46721649 233.8582001

endloop
endfacet
facet normal 0.6165465117 0.777718842 -0.1225718707
outer loop
vertex -24.93099213 54.46721649 233.8582001
vertex -24.87718964 54.39521027 233.6719513
vertex -24.97144318 54.47821808 233.7245331

endloop
endfacet
facet normal -0.08575980365 0.9905018806 0.1074772924
outer loop
vertex -24.93099213 54.46721649 233.8582001
vertex -24.97144318 54.47821808 233.7245331
vertex -25.20890045 54.44327545 233.8570862

endloop
endfacet
facet normal -0.4873283803 0 -0.8732188344
outer loop
vertex -25.20890045 54.44327545 233.8570862
vertex -24.97144318 54.47821808 233.7245331
vertex -25.20890045 54.44326019 233.8570862

endloop
endfacet
facet normal 0.8133628964 -0.5283864737 0.2434100956
outer loop
vertex -23.88529205 51.24576569 233.1899872
vertex -23.88530731 51.24573517 233.1899719
vertex -23.73426056 51.41942596 233.0622864

endloop
endfacet
facet normal 0.4970165193 -0.751347959 -0.4341093898
outer loop
vertex -23.73426056 51.41942596 233.0622864
vertex -23.88530731 51.24573517 233.1899719
vertex -23.84732819 51.39345551 232.9777832

endloop
endfacet
facet normal 0.5834787488 0.08701503277 -0.8074534535
outer loop
vertex -23.73426056 51.41942596 233.0622864
vertex -23.84732819 51.39345551 232.9777832
vertex -23.6962204 51.52852631 233.101532

endloop
endfacet
facet normal 0.7235565782 -0.2058296204 -0.65886271
outer loop
vertex -23.6962204 51.52852631 233.101532
vertex -23.84732819 51.39345551 232.9777832
vertex -23.81732941 51.50301361 232.9765015

endloop
endfacet
facet normal 0.6975340247 0.1363011599 -0.7034687996
outer loop
vertex -23.6962204 51.52852631 233.101532
vertex -23.81732941 51.50301361 232.9765015
vertex -23.69123077 51.68404388 233.1366119

endloop
endfacet
facet normal 0.7969058752 -0.02112685144 -0.6037340164
outer loop
vertex -23.69123077 51.68404388 233.1366119
vertex -23.81732941 51.50301361 232.9765015
vertex -23.81134796 51.65886688 232.9789429

endloop
endfacet
facet normal 0.7385807037 0.2894054055 -0.6088867188
outer loop
vertex -23.69123077 51.68404388 233.1366119
vertex -23.81134796 51.65886688 232.9789429
vertex -23.74195099 51.87030792 233.16362

endloop
endfacet
facet normal 0.7722473145 0.2548452616 -0.5819690824
outer loop
vertex -23.74195099 51.87030792 233.16362
vertex -23.81134796 51.65886688 232.9789429
vertex -23.85875702 51.84552765 232.9977722

endloop
endfacet
facet normal 0.758249402 0.2999770045 -0.578853786
outer loop
vertex -23.74195099 51.87030792 233.16362
vertex -23.85875702 51.84552765 232.9977722
vertex -23.81330109 52.06258392 233.1697998

endloop
endfacet
facet normal 0.7248795033 0.3282121718 -0.6056620479
outer loop
vertex -23.81330109 52.06258392 233.1697998
vertex -23.85875702 51.84552765 232.9977722
vertex -23.93645477 52.03697968 233.0085297

endloop
endfacet
facet normal 0.7311860323 0.3101297021 -0.6076071858
outer loop
vertex -23.81330109 52.06258392 233.1697998
vertex -23.93645477 52.03697968 233.0085297
vertex -23.89048004 52.25270844 233.1739655

endloop
endfacet
facet normal 0.6768387556 0.3516833186 -0.6466901302
outer loop
vertex -23.89048004 52.25270844 233.1739655
vertex -23.93645477 52.03697968 233.0085297
vertex -24.02300262 52.22568512 233.0205688

endloop
endfacet
facet normal 0.6844500303 0.330953449 -0.6496136785
outer loop
vertex -23.89048004 52.25270844 233.1739655
vertex -24.02300262 52.22568512 233.0205688
vertex -23.97031403 52.44150543 233.1860352

endloop
endfacet
facet normal 0.631367147 0.3688541651 -0.6821452975
outer loop
vertex -23.97031403 52.44150543 233.1860352
vertex -24.02300262 52.22568512 233.0205688
vertex -24.11107635 52.41295624 233.0403137

endloop
endfacet
facet normal 0.6368951797 0.3543147743 -0.6847084165
outer loop
vertex -23.97029877 52.44152069 233.1860352
vertex -24.1110611 52.4129715 233.040329
vertex -24.05083466 52.63101959 233.2091827

endloop
endfacet
facet normal 0.5974804163 0.381261766 -0.7054478526
outer loop
vertex -24.05083466 52.63101959 233.2091827
vertex -24.1110611 52.4129715 233.040329
vertex -24.19713593 52.60124969 233.0691833

endloop
endfacet
facet normal 0.600730896 0.3730191886 -0.7070919275
outer loop
vertex -24.05083466 52.63101959 233.2091827
vertex -24.19713593 52.60124969 233.0691833
vertex -24.13031769 52.82242584 233.24263

endloop
endfacet
facet normal 0.58094877 0.3863124847 -0.7164224982
outer loop
vertex -24.13031769 52.82242584 233.24263
vertex -24.19713593 52.60124969 233.0691833
vertex -24.27921295 52.79199982 233.105484

endloop
endfacet
facet normal 0.5825432539 0.3823707402 -0.7172418833
outer loop
vertex -24.13030243 52.8224411 233.2426605
vertex -24.27919769 52.79199982 233.1054993
vertex -24.2080307 53.01544952 233.2824249

endloop
endfacet
facet normal 0.5785819292 0.3850392699 -0.7190186381
outer loop
vertex -24.2080307 53.01544952 233.2824249
vertex -24.27919769 52.79199982 233.1054993
vertex -24.35741425 52.98487091 233.1458435

endloop
endfacet
facet normal 0.5789554715 0.3841043711 -0.7192178965
outer loop
vertex -24.2080307 53.01544952 233.2824249
vertex -24.35741425 52.98487091 233.1458435
vertex -24.28450775 53.20812225 233.323761

endloop
endfacet
facet normal 0.5809291601 0.382761538 -0.7183417082
outer loop
vertex -24.28450775 53.20812225 233.323761
vertex -24.35741425 52.98487091 233.1458435
vertex -24.43364716 53.17760468 233.1868896

endloop
endfacet
facet normal 0.5803594589 0.3841902614 -0.7180395126
outer loop
vertex -24.28450775 53.20812225 233.323761
vertex -24.43364716 53.17760468 233.1868896
vertex -24.3615799 53.39812469 233.3631287

endloop
endfacet
facet normal 0.5761380196 0.3870551884 -0.7198980451
outer loop
vertex -24.3615799 53.39812469 233.3631287
vertex -24.43364716 53.17760468 233.1868896
vertex -24.51113129 53.36724091 233.2268372

endloop
endfacet
facet normal 0.5749837756 0.3899123073 -0.7192788124
outer loop
vertex -24.3615799 53.39812469 233.3631287
vertex -24.51113129 53.36724091 233.2268372
vertex -24.4414444 53.58393097 233.4000092

endloop
endfacet
facet normal 0.5568695068 0.4018461704 -0.7269222736
outer loop
vertex -24.4414444 53.58393097 233.4000092
vertex -24.51113129 53.36724091 233.2268372
vertex -24.59300995 53.55194855 233.2662201

endloop
endfacet
facet normal 0.5555799007 0.4050324857 -0.7261401415
outer loop
vertex -24.44142914 53.58394623 233.4000397
vertex -24.59299469 53.55196381 233.2662354
vertex -24.52507782 53.76557159 233.4373474

endloop
endfacet
facet normal 0.5257040262 0.4237301648 -0.7376232147
outer loop
vertex -24.52507782 53.76557159 233.4373474
vertex -24.59299469 53.55196381 233.2662354
vertex -24.67986298 53.731987 233.3077393

endloop
endfacet
facet normal 0.5252830386 0.4246923029 -0.7373697162
outer loop
vertex -24.52507782 53.76557159 233.4373474
vertex -24.67986298 53.731987 233.3077393
vertex -24.61251068 53.94484711 233.4783173

endloop
endfacet
facet normal 0.488189429 0.4464651346 -0.7498932481
outer loop
vertex -24.61251068 53.94484711 233.4783173
vertex -24.67986298 53.731987 233.3077393
vertex -24.77120209 53.90949249 233.3539581

endloop
endfacet
facet normal 0.4849073291 0.453605026 -0.7477348447
outer loop
vertex -24.61251068 53.94484711 233.4783173
vertex -24.77120209 53.90949249 233.3539581
vertex -24.70064545 54.12123871 233.5281677

endloop
endfacet
facet normal 0.459256053 0.4680984318 -0.7549620867
outer loop
vertex -24.70064545 54.12123871 233.5281677
vertex -24.77120209 53.90949249 233.3539581
vertex -24.86127472 54.08478546 233.4078522

endloop
endfacet
facet normal 0.4280027747 0.5300675035 -0.7320122719
outer loop
vertex -24.70064545 54.12123871 233.5281677
vertex -24.86127472 54.08478546 233.4078522
vertex -24.78835297 54.28115082 233.5926819

endloop
endfacet
facet normal 0.4358843565 0.5257157087 -0.7304983139
outer loop
vertex -24.78835297 54.28115082 233.5926819
vertex -24.86127472 54.08478546 233.4078522
vertex -24.9414444 54.24649811 233.4763947

endloop
endfacet
facet normal 0.326564312 0.6975560188 -0.6377862692
outer loop
vertex -24.78835297 54.28115082 233.5926819
vertex -24.9414444 54.24649811 233.4763947
vertex -24.87717438 54.39521027 233.6719513

endloop
endfacet
facet normal 0.3835889399 0.6700031161 -0.6355748177
outer loop
vertex -24.87717438 54.39521027 233.6719513
vertex -24.9414444 54.24649811 233.4763947
vertex -25.00432587 54.36710358 233.5655823

endloop
endfacet
facet normal 0.3262825012 0.7417029142 -0.586017549
outer loop
vertex -24.87718964 54.39521027 233.6719513
vertex -25.00434113 54.36710358 233.5655823
vertex -24.97144318 54.47821808 233.7245331

endloop
endfacet
facet normal 0.3790159523 0.7197788954 -0.5816058517
outer loop
vertex -24.97144318 54.47821808 233.7245331
vertex -25.00434113 54.36710358 233.5655823
vertex -25.07035065 54.45626068 233.6329041

endloop
endfacet
facet normal -0.1724887192 0.9837642312 -0.0495528467
outer loop
vertex -24.97144318 54.47821808 233.7245331
vertex -25.07035065 54.45626068 233.6329041
vertex -25.20890045 54.44326019 233.8570862

endloop
endfacet
facet normal -0.09342223406 0.9956266284 0
outer loop
vertex -25.20890045 54.44326019 233.8570862
vertex -25.07035065 54.45626068 233.6329041
vertex -25.20890045 54.44326019 233.8570709

endloop
endfacet
facet normal 0.9685026407 -0.2490035146 0
outer loop
vertex -23.88530731 51.24573517 233.1899719
vertex -23.88530731 51.24573517 233.1899567
vertex -23.84732819 51.39345551 232.9777832

endloop
endfacet
facet normal 0.4013792574 -0.7838067412 -0.4738583565
outer loop
vertex -23.84732819 51.39345551 232.9777832
vertex -23.88530731 51.24573517 233.1899567
vertex -23.96489716 51.34751129 232.9541931

endloop
endfacet
facet normal 0.223383069 -0.07253780961 -0.9720279574
outer loop
vertex -23.84732819 51.39345551 232.9777832
vertex -23.96489716 51.34751129 232.9541931
vertex -23.81732941 51.50301361 232.9765015

endloop
endfacet
facet normal 0.4281231761 -0.2831586599 -0.8582143188
outer loop
vertex -23.81732941 51.50301361 232.9765015
vertex -23.96489716 51.34751129 232.9541931
vertex -23.95749664 51.45716095 232.9217072

endloop
endfacet
facet normal 0.3639124334 0.000624200271 -0.9314329624
outer loop
vertex -23.81732941 51.50301361 232.9765015
vertex -23.95749664 51.45716095 232.9217072
vertex -23.81134796 51.65886688 232.9789429

endloop
endfacet
facet normal 0.4893895388 -0.1090814322 -0.865216136
outer loop
vertex -23.81134796 51.65886688 232.9789429
vertex -23.95749664 51.45716095 232.9217072
vertex -23.96414948 51.6135788 232.8982239

endloop
endfacet
facet normal 0.4124714732 0.1945357174 -0.8899568319
outer loop
vertex -23.81134796 51.65886688 232.9789429
vertex -23.96414948 51.6135788 232.8982239
vertex -23.85875702 51.84552765 232.9977722

endloop
endfacet
facet normal 0.4543749988 0.1689250618 -0.8746471405
outer loop
vertex -23.85875702 51.84552765 232.9977722
vertex -23.96414948 51.6135788 232.8982239
vertex -24.01235199 51.80098724 232.9093781

endloop
endfacet
facet normal 0.435885936 0.2258492112 -0.8712034822
outer loop
vertex -23.85875702 51.84552765 232.9977722
vertex -24.01235199 51.80098724 232.9093781
vertex -23.93645477 52.03697968 233.0085297

endloop
endfacet
facet normal 0.3941333294 0.2453655452 -0.8856945038
outer loop
vertex -23.93645477 52.03697968 233.0085297
vertex -24.01235199 51.80098724 232.9093781
vertex -24.09307098 51.99095917 232.9260864

endloop
endfacet
facet normal 0.3965849578 0.2384466678 -0.8864894509
outer loop
vertex -23.93645477 52.03697968 233.0085297
vertex -24.09307098 51.99095917 232.9260864
vertex -24.02300262 52.22568512 233.0205688

endloop
endfacet
facet normal 0.3301616311 0.2659956515 -0.9056707621
outer loop
vertex -24.02300262 52.22568512 233.0205688
vertex -24.09307098 51.99095917 232.9260864
vertex -24.18357086 52.17711639 232.9477692

endloop
endfacet
facet normal 0.3349051774 0.2531981766 -0.9075952768
outer loop
vertex -24.02300262 52.22568512 233.0205688
vertex -24.18357086 52.17711639 232.9477692
vertex -24.11107635 52.41295624 233.0403137

endloop
endfacet
facet normal 0.2719915509 0.2779130042 -0.9212952256
outer loop
vertex -24.11107635 52.41295624 233.0403137
vertex -24.18357086 52.17711639 232.9477692
vertex -24.27465057 52.36165619 232.9765472

endloop
endfacet
facet normal 0.275991559 0.2676497996 -0.9231425524
outer loop
vertex -24.1110611 52.4129715 233.040329
vertex -24.27463531 52.36165619 232.9765472
vertex -24.19713593 52.60124969 233.0691833

endloop
endfacet
facet normal 0.2302615047 0.2852420509 -0.930385232
outer loop
vertex -24.19713593 52.60124969 233.0691833
vertex -24.27463531 52.36165619 232.9765472
vertex -24.36248016 52.54773712 233.0118561

endloop
endfacet
facet normal 0.2332336009 0.2777065337 -0.9319233894
outer loop
vertex -24.19713593 52.60124969 233.0691833
vertex -24.36248016 52.54773712 233.0118561
vertex -24.27921295 52.79199982 233.105484

endloop
endfacet
facet normal 0.210454762 0.2865252793 -0.9346721768
outer loop
vertex -24.27921295 52.79199982 233.105484
vertex -24.36248016 52.54773712 233.0118561
vertex -24.44524384 52.73729706 233.0513306

endloop
endfacet
facet normal 0.2124422193 0.2818675935 -0.9356382489
outer loop
vertex -24.27919769 52.79199982 233.1054993
vertex -24.44522858 52.73732758 233.0513306
vertex -24.35741425 52.98487091 233.1458435

endloop
endfacet
facet normal 0.20801422 0.2836164236 -0.9361045361
outer loop
vertex -24.35741425 52.98487091 233.1458435
vertex -24.44522858 52.73732758 233.0513306
vertex -24.52358246 52.92996979 233.0922852

endloop
endfacet
facet normal 0.2086707354 0.2819716334 -0.9364553094
outer loop
vertex -24.35741425 52.98487091 233.1458435
vertex -24.52358246 52.92996979 233.0922852
vertex -24.43364716 53.17760468 233.1868896

endloop
endfacet
facet normal 0.2109343261 0.2810604572 -0.9362220764
outer loop
vertex -24.43364716 53.17760468 233.1868896
vertex -24.52358246 52.92996979 233.0922852
vertex -24.59975433 53.1227951 233.1330109

endloop
endfacet
facet normal 0.2101603895 0.2830019295 -0.935811162
outer loop
vertex -24.43364716 53.17760468 233.1868896
vertex -24.59975433 53.1227951 233.1330109
vertex -24.51113129 53.36724091 233.2268372

endloop
endfacet
facet normal 0.2054627538 0.2848860025 -0.9362825751
outer loop
vertex -24.51113129 53.36724091 233.2268372
vertex -24.59975433 53.1227951 233.1330109
vertex -24.67722321 53.31175995 233.1735077

endloop
endfacet
facet normal 0.2035417855 0.2896380723 -0.935243547
outer loop
vertex -24.51113129 53.36724091 233.2268372
vertex -24.67722321 53.31175995 233.1735077
vertex -24.59300995 53.55194855 233.2662201

endloop
endfacet
facet normal 0.1832100749 0.2974430621 -0.9369961619
outer loop
vertex -24.59300995 53.55194855 233.2662201
vertex -24.67722321 53.31175995 233.1735077
vertex -24.75919342 53.49448395 233.2154846

endloop
endfacet
facet normal 0.1808587611 0.3029890358 -0.935675025
outer loop
vertex -24.59299469 53.55196381 233.2662354
vertex -24.75917816 53.49452972 233.2155151
vertex -24.67986298 53.731987 233.3077393

endloop
endfacet
facet normal 0.1475534439 0.314860642 -0.9375983477
outer loop
vertex -24.67986298 53.731987 233.3077393
vertex -24.75917816 53.49452972 233.2155151
vertex -24.84622955 53.67163849 233.2612915

endloop
endfacet
facet normal 0.1457961798 0.3188726306 -0.9365168214
outer loop
vertex -24.67986298 53.731987 233.3077393
vertex -24.84622955 53.67163849 233.2612915
vertex -24.77120209 53.90949249 233.3539581

endloop
endfacet
facet normal 0.1054584235 0.3319361508 -0.9373883605
outer loop
vertex -24.77120209 53.90949249 233.3539581
vertex -24.84622955 53.67163849 233.2612915
vertex -24.93773651 53.84597015 233.3127289

endloop
endfacet
facet normal 0.1018605381 0.3397967517 -0.9349666238
outer loop
vertex -24.77120209 53.90949249 233.3539581
vertex -24.93773651 53.84597015 233.3127289
vertex -24.86127472 54.08478546 233.4078522

endloop
endfacet
facet normal 0.07416932285 0.3484346271 -0.934394002
outer loop
vertex -24.86127472 54.08478546 233.4078522
vertex -24.93773651 53.84597015 233.3127289
vertex -25.02719879 54.01927948 233.3702545

endloop
endfacet
facet normal 0.04517559335 0.4087501764 -0.9115276337
outer loop
vertex -24.86127472 54.08478546 233.4078522
vertex -25.02719879 54.01927948 233.3702545
vertex -24.9414444 54.24649811 233.4763947

endloop
endfacet
facet normal 0.05390810966 0.4058399498 -0.91235286
outer loop
vertex -24.9414444 54.24649811 233.4763947
vertex -25.02719879 54.01927948 233.3702545
vertex -25.10031891 54.18421173 233.4393005

endloop
endfacet
facet normal -0.03808962554 0.5812368989 -0.8128424287
outer loop
vertex -24.9414444 54.24649811 233.4763947
vertex -25.10031891 54.18421173 233.4393005
vertex -25.00432587 54.36710358 233.5655823

endloop
endfacet
facet normal 0.02508130297 0.5590621233 -0.8287463188
outer loop
vertex -25.00432587 54.36710358 233.5655823
vertex -25.10031891 54.18421173 233.4393005
vertex -25.14067841 54.31658173 233.5273743

endloop
endfacet
facet normal 0.0002727607789 0.6027258635 -0.7979482412
outer loop
vertex -25.00434113 54.36710358 233.5655823
vertex -25.14066315 54.31658173 233.5273743
vertex -25.07035065 54.45626068 233.6329041

endloop
endfacet
facet normal 0.04138853401 0.5889499187 -0.8071089983
outer loop
vertex -25.07035065 54.45626068 233.6329041
vertex -25.14066315 54.31658173 233.5273743
vertex -25.18117523 54.41739655 233.5988617

endloop
endfacet
facet normal -0.2934624255 0.947574079 -0.1264247298
outer loop
vertex -25.07035065 54.45626068 233.6329041
vertex -25.18117523 54.41739655 233.5988617
vertex -25.20890045 54.44326019 233.8570709

endloop
endfacet
facet normal 0 0.995020926 -0.09966672957
outer loop
vertex -25.20890045 54.44326019 233.8570709
vertex -25.18117523 54.41739655 233.5988617
vertex -25.20891571 54.44326019 233.8570709

endloop
endfacet
facet normal -0.9486464262 -0.2236851752 0.2236851752
outer loop
vertex -23.88530731 51.24573517 233.1899567
vertex -23.88530731 51.24575043 233.1899719
vertex -23.96489716 51.34749603 232.9541779

endloop
endfacet
facet normal 0.29689309 -0.8362341523 -0.4610498548
outer loop
vertex -23.96489716 51.34749603 232.9541779
vertex -23.88530731 51.24575043 233.1899719
vertex -24.07631683 51.28548431 232.9949036

endloop
endfacet
facet normal -0.1967856288 -0.2661478221 -0.9436317086
outer loop
vertex -23.96489716 51.34749603 232.9541779
vertex -24.07631683 51.28548431 232.9949036
vertex -23.9575119 51.45716095 232.9217072

endloop
endfacet
facet normal 0.02247726172 -0.4052245915 -0.9139407873
outer loop
vertex -23.9575119 51.45716095 232.9217072
vertex -24.07631683 51.28548431 232.9949036
vertex -24.10520172 51.3939743 232.9460907

endloop
endfacet
facet normal -0.09740321338 -0.1518965811 -0.9835852385
outer loop
vertex -23.9575119 51.45716095 232.9217072
vertex -24.10520172 51.3939743 232.9460907
vertex -23.96414948 51.6135788 232.8982086

endloop
endfacet
facet normal 0.04126980156 -0.2380843908 -0.9703673124
outer loop
vertex -23.96414948 51.6135788 232.8982086
vertex -24.10520172 51.3939743 232.9460907
vertex -24.13779449 51.55113983 232.9061432

endloop
endfacet
facet normal -0.06121368706 0.04351919889 -0.9971754551
outer loop
vertex -23.96414948 51.6135788 232.8982086
vertex -24.13779449 51.55113983 232.9061432
vertex -24.01236725 51.80098724 232.9093475

endloop
endfacet
facet normal -0.0157434158 0.02072430216 -0.9996612668
outer loop
vertex -24.01236725 51.80098724 232.9093475
vertex -24.13779449 51.55113983 232.9061432
vertex -24.19103241 51.73960114 232.9108887

endloop
endfacet
facet normal -0.03381021321 0.07338155061 -0.9967306852
outer loop
vertex -24.01236725 51.80098724 232.9093475
vertex -24.19103241 51.73960114 232.9108887
vertex -24.0931015 51.99094391 232.9260712

endloop
endfacet
facet normal -0.07925001532 0.09084324539 -0.9927068949
outer loop
vertex -24.0931015 51.99094391 232.9260712
vertex -24.19103241 51.73960114 232.9108887
vertex -24.27098846 51.92746735 232.9344635

endloop
endfacet
facet normal -0.07517137378 0.07924000919 -0.9940172434
outer loop
vertex -24.0931015 51.99094391 232.9260712
vertex -24.27098846 51.92746735 232.9344635
vertex -24.18357086 52.17711639 232.9477539

endloop
endfacet
facet normal -0.1461595297 0.1035548225 -0.9838261008
outer loop
vertex -24.18357086 52.17711639 232.9477539
vertex -24.27098846 51.92746735 232.9344635
vertex -24.35933685 52.11009979 232.9668121

endloop
endfacet
facet normal -0.1394021213 0.08504980803 -0.9865766764
outer loop
vertex -24.18357086 52.17711639 232.9477539
vertex -24.35933685 52.11009979 232.9668121
vertex -24.27465057 52.36165619 232.976532

endloop
endfacet
facet normal -0.2048992515 0.1065733731 -0.9729636908
outer loop
vertex -24.27465057 52.36165619 232.976532
vertex -24.35933685 52.11009979 232.9668121
vertex -24.44766998 52.29090118 233.0052185

endloop
endfacet
facet normal -0.1990666538 0.09116329998 -0.9757364988
outer loop
vertex -24.27465057 52.36164093 232.976532
vertex -24.44765472 52.29090118 233.0052185
vertex -24.36249542 52.54773712 233.0118408

endloop
endfacet
facet normal -0.2455586344 0.1062641963 -0.9635397792
outer loop
vertex -24.36249542 52.54773712 233.0118408
vertex -24.44765472 52.29090118 233.0052185
vertex -24.53308868 52.47396088 233.0471802

endloop
endfacet
facet normal -0.2414133549 0.09564552456 -0.9656974077
outer loop
vertex -24.36249542 52.54773712 233.0118408
vertex -24.53308868 52.47396088 233.0471802
vertex -24.44524384 52.7372818 233.0513

endloop
endfacet
facet normal -0.2638679147 0.1030322909 -0.9590401649
outer loop
vertex -24.44524384 52.7372818 233.0513
vertex -24.53308868 52.47396088 233.0471802
vertex -24.61449432 52.66188812 233.0897675

endloop
endfacet
facet normal -0.2618225813 0.09765385091 -0.9601628184
outer loop
vertex -24.44524384 52.73731232 233.0513153
vertex -24.61449432 52.66190338 233.089798
vertex -24.52358246 52.92995453 233.0922699

endloop
endfacet
facet normal -0.2661025822 0.09909324348 -0.9588378668
outer loop
vertex -24.52358246 52.92995453 233.0922699
vertex -24.61449432 52.66190338 233.089798
vertex -24.69257355 52.85427094 233.1313477

endloop
endfacet
facet normal -0.2655667067 0.09774874151 -0.9591243863
outer loop
vertex -24.52358246 52.92995453 233.0922699
vertex -24.69257355 52.85427094 233.1313477
vertex -24.59975433 53.12276459 233.1330109

endloop
endfacet
facet normal -0.263397038 0.09700284898 -0.9597980976
outer loop
vertex -24.59975433 53.12276459 233.1330109
vertex -24.69257355 52.85427094 233.1313477
vertex -24.76882172 53.04717255 233.1717682

endloop
endfacet
facet normal -0.2636276484 0.0975811705 -0.9596761465
outer loop
vertex -24.59975433 53.12276459 233.1330109
vertex -24.76882172 53.04717255 233.1717682
vertex -24.67722321 53.31174469 233.1735077

endloop
endfacet
facet normal -0.2685362399 0.09927049279 -0.9581407309
outer loop
vertex -24.67722321 53.31174469 233.1735077
vertex -24.76882172 53.04717255 233.1717682
vertex -24.84574127 53.23526764 233.2128143

endloop
endfacet
facet normal -0.2686567605 0.09956936538 -0.958075881
outer loop
vertex -24.67722321 53.31174469 233.1735077
vertex -24.84574127 53.23526764 233.2128143
vertex -24.75919342 53.49448395 233.2154846

endloop
endfacet
facet normal -0.2887240648 0.1062017903 -0.9515038729
outer loop
vertex -24.75919342 53.49448395 233.2154846
vertex -24.84574127 53.23526764 233.2128143
vertex -24.92584991 53.41530609 233.2572174

endloop
endfacet
facet normal -0.287981689 0.1043951884 -0.9519286752
outer loop
vertex -24.75917816 53.49452972 233.2154999
vertex -24.92583466 53.41533661 233.2572327
vertex -24.84624481 53.67162323 233.261261

endloop
endfacet
facet normal -0.3207839131 0.1143978685 -0.9402185082
outer loop
vertex -24.84624481 53.67162323 233.261261
vertex -24.92583466 53.41533661 233.2572327
vertex -25.00986481 53.58841705 233.3069611

endloop
endfacet
facet normal -0.3189936876 0.1102726385 -0.9413198233
outer loop
vertex -24.84624481 53.67162323 233.261261
vertex -25.00986481 53.58841705 233.3069611
vertex -24.93776703 53.8459549 233.3126984

endloop
endfacet
facet normal -0.3581567109 0.1208906248 -0.9258019328
outer loop
vertex -24.93776703 53.8459549 233.3126984
vertex -25.00986481 53.58841705 233.3069611
vertex -25.09766388 53.75832367 233.3631134

endloop
endfacet
facet normal -0.3587109745 0.1221181527 -0.9254261255
outer loop
vertex -24.93776703 53.8459549 233.3126984
vertex -25.09766388 53.75832367 233.3631134
vertex -25.02721405 54.01926422 233.3702393

endloop
endfacet
facet normal -0.3850583732 0.1289152503 -0.9138439894
outer loop
vertex -25.02721405 54.01926422 233.3702393
vertex -25.09766388 53.75832367 233.3631134
vertex -25.18386078 53.92887115 233.4234924

endloop
endfacet
facet normal -0.4125582278 0.1901034415 -0.890873909
outer loop
vertex -25.02721405 54.01926422 233.3702393
vertex -25.18386078 53.92887115 233.4234924
vertex -25.10031891 54.18418121 233.4392853

endloop
endfacet
facet normal -0.4045627415 0.1877443492 -0.895031333
outer loop
vertex -25.10031891 54.18418121 233.4392853
vertex -25.18386078 53.92887115 233.4234924
vertex -25.25099945 54.09822845 233.4893646

endloop
endfacet
facet normal -0.4796417654 0.3800357878 -0.7908960581
outer loop
vertex -25.10031891 54.18418121 233.4392853
vertex -25.25099945 54.09822845 233.4893646
vertex -25.14067841 54.31656647 233.5273743

endloop
endfacet
facet normal -0.4192615449 0.3571466506 -0.8346652985
outer loop
vertex -25.14067841 54.31656647 233.5273743
vertex -25.25099945 54.09822845 233.4893646
vertex -25.27442169 54.24689484 233.564743

endloop
endfacet
facet normal -0.4335302114 0.3988010585 -0.8080899119
outer loop
vertex -25.14066315 54.31658173 233.5273743
vertex -25.27442169 54.24686432 233.5647278
vertex -25.18117523 54.41739655 233.5988617

endloop
endfacet
facet normal -0.3847593069 0.3788570166 -0.8416814804
outer loop
vertex -25.18117523 54.41739655 233.5988617
vertex -25.27442169 54.24686432 233.5647278
vertex -25.29395294 54.36483002 233.6267548

endloop
endfacet
facet normal -0.4460466206 0.8845430017 -0.136477083
outer loop
vertex -25.18117523 54.41739655 233.5988617
vertex -25.29395294 54.36483002 233.6267548
vertex -25.20891571 54.44324493 233.8570557

endloop
endfacet
facet normal 0.722258091 -0.6909060478 -0.03149718791
outer loop
vertex -25.20891571 54.44324493 233.8570557
vertex -25.29395294 54.36483002 233.6267548
vertex -25.20890045 54.44326019 233.8570709

endloop
endfacet
facet normal 0.203660652 0.9790415168 -0
outer loop
vertex -23.88530731 51.24575043 233.1899872
vertex -23.88530731 51.24575043 233.1899719
vertex -24.07631683 51.28548431 232.9949188

endloop
endfacet
facet normal 0.2002003342 -0.903057158 -0.3800100386
outer loop
vertex -24.07631683 51.28548431 232.9949188
vertex -23.88530731 51.24575043 233.1899719
vertex -24.18219757 51.18309784 233.1824493

endloop
endfacet
facet normal -0.650578022 -0.4490244091 -0.6124747396
outer loop
vertex -24.07631683 51.28548431 232.9949188
vertex -24.18219757 51.18309784 233.1824493
vertex -24.10521698 51.39395905 232.9460907

endloop
endfacet
facet normal -0.4484265149 -0.5894483924 -0.671910882
outer loop
vertex -24.10521698 51.39395905 232.9460907
vertex -24.18219757 51.18309784 233.1824493
vertex -24.28383636 51.28374481 233.1619873

endloop
endfacet
facet normal -0.6482132077 -0.3109976053 -0.6950540543
outer loop
vertex -24.10521698 51.39395905 232.9460907
vertex -24.28383636 51.28374481 233.1619873
vertex -24.13779449 51.55113983 232.9061432

endloop
endfacet
facet normal -0.4871183038 -0.4500609338 -0.748439014
outer loop
vertex -24.13779449 51.55113983 232.9061432
vertex -24.28383636 51.28374481 233.1619873
vertex -24.37639618 51.44208527 233.1270142

endloop
endfacet
facet normal -0.6305755973 -0.1589497626 -0.7596771121
outer loop
vertex -24.13779449 51.55113983 232.9061432
vertex -24.37639618 51.44208527 233.1270142
vertex -24.19101715 51.73960114 232.9108887

endloop
endfacet
facet normal -0.5825107694 -0.207870245 -0.785793364
outer loop
vertex -24.19101715 51.73960114 232.9108887
vertex -24.37639618 51.44208527 233.1270142
vertex -24.44524384 51.63236237 233.1277161

endloop
endfacet
facet normal -0.6014381051 -0.1577408016 -0.783192277
outer loop
vertex -24.19101715 51.73960114 232.9108887
vertex -24.44524384 51.63236237 233.1277161
vertex -24.27098846 51.92746735 232.9344635

endloop
endfacet
facet normal -0.6483727098 -0.1104324088 -0.7532711625
outer loop
vertex -24.27098846 51.92746735 232.9344635
vertex -24.44524384 51.63236237 233.1277161
vertex -24.51537323 51.81668854 233.1610565

endloop
endfacet
facet normal -0.627821207 -0.1690705419 -0.7597734332
outer loop
vertex -24.27098846 51.92746735 232.9344635
vertex -24.51537323 51.81668854 233.1610565
vertex -24.35933685 52.11009979 232.9668274

endloop
endfacet
facet normal -0.6992506385 -0.09698846191 -0.7082667947
outer loop
vertex -24.35933685 52.11009979 232.9668274
vertex -24.51537323 51.81668854 233.1610565
vertex -24.58679962 51.99312592 233.2074127

endloop
endfacet
facet normal -0.6714961529 -0.175125137 -0.7200167775
outer loop
vertex -24.35933685 52.11009979 232.9668274
vertex -24.58679962 51.99312592 233.2074127
vertex -24.44765472 52.29090118 233.0052185

endloop
endfacet
facet normal -0.7360649109 -0.1096173078 -0.6679764986
outer loop
vertex -24.44765472 52.29090118 233.0052185
vertex -24.58679962 51.99312592 233.2074127
vertex -24.65836334 52.16738129 233.2576752

endloop
endfacet
facet normal -0.7116009593 -0.1761389822 -0.6801464558
outer loop
vertex -24.44765472 52.29090118 233.0052185
vertex -24.65836334 52.16738129 233.2576599
vertex -24.53307343 52.47396088 233.0471802

endloop
endfacet
facet normal -0.7566009164 -0.1306599975 -0.6406894922
outer loop
vertex -24.53307343 52.47396088 233.0471802
vertex -24.65836334 52.16738129 233.2576599
vertex -24.73108673 52.3451004 233.3072968

endloop
endfacet
facet normal -0.7403020859 -0.1734939963 -0.6495018005
outer loop
vertex -24.53307343 52.47396088 233.0471802
vertex -24.73108673 52.3451004 233.3072968
vertex -24.61447906 52.66188812 233.0897675

endloop
endfacet
facet normal -0.7618713379 -0.1519286484 -0.6296585202
outer loop
vertex -24.61447906 52.66188812 233.0897675
vertex -24.73108673 52.3451004 233.3072968
vertex -24.80605316 52.53011322 233.353363

endloop
endfacet
facet normal -0.7549608946 -0.1696067154 -0.6334568262
outer loop
vertex -24.61447906 52.66190338 233.089798
vertex -24.8060379 52.53014374 233.3533783
vertex -24.69255829 52.85427094 233.1313477

endloop
endfacet
facet normal -0.7589845657 -0.1656194329 -0.6296925545
outer loop
vertex -24.69255829 52.85427094 233.1313477
vertex -24.8060379 52.53014374 233.3533783
vertex -24.88291168 52.72202301 233.3955688

endloop
endfacet
facet normal -0.7581538558 -0.1677092165 -0.6301399469
outer loop
vertex -24.69255829 52.85427094 233.1313477
vertex -24.88291168 52.72202301 233.3955688
vertex -24.76882172 53.04715729 233.1717682

endloop
endfacet
facet normal -0.7563021183 -0.1695498973 -0.6318701506
outer loop
vertex -24.76882172 53.04715729 233.1717682
vertex -24.88291168 52.72202301 233.3955688
vertex -24.95973969 52.91516876 233.4356995

endloop
endfacet
facet normal -0.7557109594 -0.1710245162 -0.6321800351
outer loop
vertex -24.76882172 53.04715729 233.1717682
vertex -24.95973969 52.91516876 233.4356995
vertex -24.84572601 53.23525238 233.2128143

endloop
endfacet
facet normal -0.7602997422 -0.1664067656 -0.6278957725
outer loop
vertex -24.84572601 53.23525238 233.2128143
vertex -24.95973969 52.91516876 233.4356995
vertex -25.0348587 53.10166168 233.4772339

endloop
endfacet
facet normal -0.7546464205 -0.1803020537 -0.6308723688
outer loop
vertex -24.84572601 53.23525238 233.2128143
vertex -25.0348587 53.10166168 233.4772339
vertex -24.92586517 53.41530609 233.2572174

endloop
endfacet
facet normal -0.7737976313 -0.1608738303 -0.6126637459
outer loop
vertex -24.92586517 53.41530609 233.2572174
vertex -25.0348587 53.10166168 233.4772339
vertex -25.10822296 53.27695465 233.5238647

endloop
endfacet
facet normal -0.7610627413 -0.1914057732 -0.6197961569
outer loop
vertex -24.92584991 53.41533661 233.2572479
vertex -25.1082077 53.27698517 233.5238953
vertex -25.00986481 53.58841705 233.3069611

endloop
endfacet
facet normal -0.792597115 -0.1596331596 -0.5884786248
outer loop
vertex -25.00986481 53.58841705 233.3069611
vertex -25.1082077 53.27698517 233.5238953
vertex -25.18114471 53.44309235 233.5770721

endloop
endfacet
facet normal -0.7743672729 -0.2019004077 -0.5996594429
outer loop
vertex -25.00986481 53.58841705 233.3069611
vertex -25.18114471 53.44309235 233.5770721
vertex -25.09766388 53.75833893 233.3631287

endloop
endfacet
facet normal -0.811883986 -0.1650517881 -0.5600019693
outer loop
vertex -25.09766388 53.75833893 233.3631287
vertex -25.18114471 53.44309235 233.5770721
vertex -25.25556183 53.60532379 233.637146

endloop
endfacet
facet normal -0.7962758541 -0.2004311681 -0.5707643628
outer loop
vertex -25.09766388 53.75833893 233.3631287
vertex -25.25556183 53.60532379 233.637146
vertex -25.18386078 53.92888641 233.4234924

endloop
endfacet
facet normal -0.821199894 -0.1763760448 -0.542699039
outer loop
vertex -25.18386078 53.92888641 233.4234924
vertex -25.25556183 53.60532379 233.637146
vertex -25.33193207 53.77108002 233.6988373

endloop
endfacet
facet normal -0.8407154679 -0.1288102865 -0.5259329081
outer loop
vertex -25.18386078 53.92888641 233.4234924
vertex -25.33193207 53.77108002 233.6988373
vertex -25.25101471 54.09822845 233.4893646

endloop
endfacet
facet normal -0.8335005641 -0.1366302818 -0.5353588462
outer loop
vertex -25.25101471 54.09822845 233.4893646
vertex -25.33193207 53.77108002 233.6988373
vertex -25.39528656 53.94818878 233.7522736

endloop
endfacet
facet normal -0.8929629922 0.08361811936 -0.4422953129
outer loop
vertex -25.25101471 54.09822845 233.4893646
vertex -25.39528656 53.94818878 233.7522736
vertex -25.27442169 54.24689484 233.5647278

endloop
endfacet
facet normal -0.8492332101 0.01219027396 -0.5278772116
outer loop
vertex -25.27442169 54.24689484 233.5647278
vertex -25.39528656 53.94818878 233.7522736
vertex -25.41365814 54.12529755 233.7859192

endloop
endfacet
facet normal -0.867469728 0.1113248542 -0.4848741889
outer loop
vertex -25.27442169 54.24686432 233.5647278
vertex -25.41365814 54.12529755 233.7859192
vertex -25.29395294 54.36483002 233.6267548

endloop
endfacet
facet normal -0.8054702878 0.008778412826 -0.5925711989
outer loop
vertex -25.29395294 54.36483002 233.6267548
vertex -25.41365814 54.12529755 233.7859192
vertex -25.41887665 54.27787018 233.7952728

endloop
endfacet
facet normal -0.610134244 0.7910706401 -0.04408344626
outer loop
vertex -25.29395294 54.36483002 233.6267548
vertex -25.41887665 54.27787018 233.7952728
vertex -25.20888519 54.44327545 233.8570709

endloop
endfacet
facet normal -0.6292956471 0.6299175024 0.4551822543
outer loop
vertex -25.20888519 54.44327545 233.8570709
vertex -25.41887665 54.27787018 233.7952728
vertex -25.20890045 54.44326019 233.8570709

endloop
endfacet
endsolid
