solid 
facet normal -0.385699 0 0.922625
outer loop
vertex 81.83080292 -50.69184113 9.712783813
vertex 81.83080292 -50.69182587 9.712783813
vertex 65.88851166 -49.95697784 3.048190117

endloop
endfacet
facet normal -0.06789085269 0.9609250426 0.2683538795
outer loop
vertex 65.88851166 -49.95697784 3.048190117
vertex 81.83080292 -50.69182587 9.712783813
vertex 75.64299774 -48.30677032 -0.3931060135

endloop
endfacet
facet normal 0.3595301211 -0.2509889901 0.8987450004
outer loop
vertex 65.88851166 -49.95697784 3.048190117
vertex 75.64299774 -48.30677032 -0.3931060135
vertex 64.954216 -42.9040451 5.391586781

endloop
endfacet
facet normal 0.4138274491 -0.1437667161 0.8989316225
outer loop
vertex 64.954216 -42.9040451 5.391586781
vertex 75.64299774 -48.30677032 -0.3931060135
vertex 74.19887543 -40.07546234 1.588140965

endloop
endfacet
facet normal 0.4501397908 -0.6547733545 0.6071621776
outer loop
vertex 64.954216 -42.9040451 5.391586781
vertex 74.19887543 -40.07546234 1.588140965
vertex 65.68373871 -37.97400665 10.16736221

endloop
endfacet
facet normal 0.451900214 -0.6524607539 0.6083430052
outer loop
vertex 65.68373871 -37.97400665 10.16736221
vertex 74.19887543 -40.07546234 1.588140965
vertex 74.58351898 -35.48477936 6.226017952

endloop
endfacet
facet normal 0.4316795766 -0.7500810027 0.5010301471
outer loop
vertex 65.68373871 -37.97400665 10.16735935
vertex 74.58351898 -35.48477936 6.226016998
vertex 67.11397552 -33.93560028 14.98089695

endloop
endfacet
facet normal 0.2883544862 -0.8699883819 0.399964869
outer loop
vertex 67.11397552 -33.93560028 14.98089695
vertex 74.58351898 -35.48477936 6.226016998
vertex 76.30550385 -32.57802582 11.30721283

endloop
endfacet
facet normal 0.3258390129 -0.7865322828 0.5245912075
outer loop
vertex 67.11397552 -33.93560028 14.98089695
vertex 76.30550385 -32.57802582 11.30721283
vertex 69.38008881 -30.399086 18.87572861

endloop
endfacet
facet normal 0.3373166919 -0.776512146 0.5322089195
outer loop
vertex 69.38008881 -30.399086 18.87572861
vertex 76.30550385 -32.57802582 11.30721283
vertex 78.12914276 -29.14128876 15.16570568

endloop
endfacet
facet normal 0.1700192094 -0.9831166267 0.06764000654
outer loop
vertex 69.38008881 -30.399086 18.87572861
vertex 78.12914276 -29.14128876 15.16570568
vertex 73.0915451 -29.46926117 23.06122971

endloop
endfacet
facet normal 0.555672586 -0.7662159204 0.3227090836
outer loop
vertex 73.0915451 -29.46926117 23.06122971
vertex 78.12914276 -29.14128876 15.16570568
vertex 79.56600189 -26.31296539 19.40693474

endloop
endfacet
facet normal 0.4015571773 -0.9126092196 -0.07678643614
outer loop
vertex 73.0915451 -29.46926117 23.06122971
vertex 79.56600189 -26.31296539 19.40693474
vertex 75.08333588 -28.98084259 27.67249489

endloop
endfacet
facet normal 0.7083323002 -0.6869372129 0.1624273509
outer loop
vertex 75.08333588 -28.98084259 27.67249489
vertex 79.56600189 -26.31296539 19.40693474
vertex 80.32051849 -24.40691376 24.17761803

endloop
endfacet
facet normal 0.7041323185 -0.6949790716 0.1456087679
outer loop
vertex 75.08333588 -28.98084259 27.67249489
vertex 80.32051849 -24.40691376 24.17761803
vertex 75.62120819 -27.52741241 32.00856781

endloop
endfacet
facet normal 0.7671154737 -0.6025143862 0.2202502191
outer loop
vertex 75.62120819 -27.52741241 32.00856781
vertex 80.32051849 -24.40691376 24.17761803
vertex 80.62450409 -22.42076874 28.55213737

endloop
endfacet
facet normal 0.7700526118 -0.5897275209 0.2433936447
outer loop
vertex 75.62120819 -27.52741241 32.00856781
vertex 80.62450409 -22.42076874 28.55213737
vertex 76.06615448 -25.24504852 36.13086319

endloop
endfacet
facet normal 0.8318625689 -0.4419973195 0.3356232643
outer loop
vertex 76.06615448 -25.24504852 36.13086319
vertex 80.62450409 -22.42076874 28.55213737
vertex 80.48259735 -19.61927032 32.59328079

endloop
endfacet
facet normal 0.8315446377 -0.4379501045 0.3416623771
outer loop
vertex 76.06615448 -25.24504852 36.13086319
vertex 80.48259735 -19.61927032 32.59328079
vertex 75.87975311 -22.32517242 40.32728958

endloop
endfacet
facet normal 0.8557267189 -0.339455992 0.3905144632
outer loop
vertex 75.87975311 -22.32517242 40.32728958
vertex 80.48259735 -19.61927032 32.59328079
vertex 79.81279755 -16.04547882 37.16753006

endloop
endfacet
facet normal 0.7770164609 -0.1837063879 0.6020776033
outer loop
vertex 75.87975311 -22.32517242 40.32728958
vertex 79.81279755 -16.04547882 37.16753006
vertex 74.18938446 -18.66738129 43.62487793

endloop
endfacet
facet normal 0.7430458665 -0.5010713935 0.4436331391
outer loop
vertex 74.18938446 -18.66738129 43.62487793
vertex 79.81279755 -16.04547882 37.16753006
vertex 79.16945648 -12.53342438 42.21183777

endloop
endfacet
facet normal 0.6988674998 -0.4369538426 0.5662645698
outer loop
vertex 74.18938446 -18.66738129 43.62487793
vertex 79.16945648 -12.53342438 42.21183777
vertex 73.60192108 -16.33979034 46.14597702

endloop
endfacet
facet normal 0.6071503162 -0.7887553573 0.0960919857
outer loop
vertex 73.60192108 -16.33979034 46.14597702
vertex 79.16945648 -12.53342438 42.21183777
vertex 78.67784882 -12.27664948 47.42572021

endloop
endfacet
facet normal 0.6423780322 -0.7185660005 -0.2664831281
outer loop
vertex 73.60192108 -16.33979034 46.14597702
vertex 78.67784882 -12.27664948 47.42572021
vertex 75.16970062 -15.9436264 48.85698318

endloop
endfacet
facet normal 0.733537972 -0.6765776277 0.06453426927
outer loop
vertex 75.16970062 -15.9436264 48.85698318
vertex 78.67784882 -12.27664948 47.42572021
vertex 79.13457489 -11.53908539 49.96690369

endloop
endfacet
facet normal 0.4145644605 -0.1468682289 -0.8980902433
outer loop
vertex 75.16970062 -15.9436264 48.85698318
vertex 79.13457489 -11.53908539 49.96690369
vertex 77.85411835 -16.60378265 50.2040863

endloop
endfacet
facet normal 0.09053684771 -0.06941432506 -0.9934710264
outer loop
vertex 77.85411835 -16.60378265 50.2040863
vertex 79.13457489 -11.53908539 49.96690369
vertex 80.52806854 -9.643592834 49.9614563

endloop
endfacet
facet normal 0.8159630299 -0.2961678803 0.4964765608
outer loop
vertex 77.85411835 -16.60378265 50.2040863
vertex 80.52806854 -9.643592834 49.9614563
vertex 74.52840424 -14.77783966 56.75917053

endloop
endfacet
facet normal 0 -0.8017458916 -0.5976651311
outer loop
vertex 74.52840424 -14.77783966 56.75917053
vertex 80.52806854 -9.643592834 49.9614563
vertex 74.52843475 -14.77783966 56.75917053

endloop
endfacet
facet normal 0.8528316021 0 -0.5221861005
outer loop
vertex 81.83080292 -50.69182587 9.712783813
vertex 81.83080292 -50.69184113 9.712783813
vertex 75.64299774 -48.30677032 -0.3931060135

endloop
endfacet
facet normal -0.1534167528 0.9366149902 0.3149852157
outer loop
vertex 75.64299774 -48.30677032 -0.3931060135
vertex 81.83080292 -50.69184113 9.712783813
vertex 81.97460175 -47.55866241 0.4662509859

endloop
endfacet
facet normal -0.101223506 -0.2495625615 0.9630537033
outer loop
vertex 75.64299774 -48.30677032 -0.3931060135
vertex 81.97460175 -47.55866241 0.4662509859
vertex 74.19887543 -40.07546234 1.588140965

endloop
endfacet
facet normal -0.03564563021 -0.1842952371 0.9822242856
outer loop
vertex 74.19887543 -40.07546234 1.588140965
vertex 81.97460175 -47.55866241 0.4662509859
vertex 80.43608856 -40.21024323 1.789204955

endloop
endfacet
facet normal -0.03802515194 -0.7086210251 0.7045638561
outer loop
vertex 74.19887543 -40.07546234 1.588140965
vertex 80.43608856 -40.21024323 1.789204955
vertex 74.58351898 -35.48477936 6.226017952

endloop
endfacet
facet normal 0.2853865325 -0.4440165758 0.8493549228
outer loop
vertex 74.58351898 -35.48477936 6.226017952
vertex 80.43608856 -40.21024323 1.789204955
vertex 79.96901703 -34.74155426 4.805005074

endloop
endfacet
facet normal 0.2323683947 -0.876101315 0.4224351346
outer loop
vertex 74.58351898 -35.48477936 6.226016998
vertex 79.96898651 -34.74156952 4.805005074
vertex 76.30550385 -32.57802582 11.30721283

endloop
endfacet
facet normal 0.5810421109 -0.6157155633 0.5322446823
outer loop
vertex 76.30550385 -32.57802582 11.30721283
vertex 79.96898651 -34.74156952 4.805005074
vertex 80.57778168 -30.7064743 8.80830574

endloop
endfacet
facet normal 0.5521926284 -0.7349430323 0.3936267197
outer loop
vertex 76.30550385 -32.57802582 11.30721283
vertex 80.57778168 -30.7064743 8.80830574
vertex 78.12914276 -29.14128876 15.16570568

endloop
endfacet
facet normal 0.4645587206 -0.8016183376 0.376288712
outer loop
vertex 78.12914276 -29.14128876 15.16570568
vertex 80.57778168 -30.7064743 8.80830574
vertex 82.10167694 -27.80570221 13.10652924

endloop
endfacet
facet normal 0.4647352993 -0.8012409806 0.3768740594
outer loop
vertex 78.12914276 -29.14128876 15.16570568
vertex 82.10167694 -27.80570221 13.10652924
vertex 79.56600189 -26.31296539 19.40693474

endloop
endfacet
facet normal 0.3737146258 -0.8575099111 0.3535733521
outer loop
vertex 79.56600189 -26.31296539 19.40693474
vertex 82.10167694 -27.80570221 13.10652924
vertex 83.68599701 -25.1891098 17.77789497

endloop
endfacet
facet normal 0.3587707579 -0.884970665 0.2968340814
outer loop
vertex 79.56600189 -26.31296539 19.40693474
vertex 83.68599701 -25.1891098 17.77789497
vertex 80.32051849 -24.40691376 24.17761803

endloop
endfacet
facet normal 0.4008254707 -0.8599708676 0.3158941567
outer loop
vertex 80.32051849 -24.40691376 24.17761803
vertex 83.68599701 -25.1891098 17.77789497
vertex 84.78490448 -22.85077667 22.74926949

endloop
endfacet
facet normal 0.4068113565 -0.8421047926 0.354068011
outer loop
vertex 80.32051849 -24.40691376 24.17761803
vertex 84.78490448 -22.85077667 22.74926949
vertex 80.62450409 -22.42076874 28.55213737

endloop
endfacet
facet normal 0.4834750593 -0.7764661908 0.4041685164
outer loop
vertex 80.62450409 -22.42076874 28.55213737
vertex 84.78490448 -22.85077667 22.74926949
vertex 85.27519989 -20.24474335 27.16933441

endloop
endfacet
facet normal 0.4842698276 -0.7109820843 0.5098894238
outer loop
vertex 80.62450409 -22.42076874 28.55213737
vertex 85.27519989 -20.24474335 27.16933441
vertex 80.48259735 -19.61927032 32.59328079

endloop
endfacet
facet normal 0.5388507843 -0.638302505 0.5497360229
outer loop
vertex 80.48259735 -19.61927032 32.59328079
vertex 85.27519989 -20.24474335 27.16933441
vertex 84.88512421 -17.00225067 31.31656837

endloop
endfacet
facet normal 0.5361446738 -0.6253045797 0.5670477748
outer loop
vertex 80.48259735 -19.61927032 32.59328079
vertex 84.88512421 -17.00225067 31.31656837
vertex 79.81279755 -16.04547882 37.16753006

endloop
endfacet
facet normal 0.5624688268 -0.5858744383 0.5834209919
outer loop
vertex 79.81279755 -16.04547882 37.16753006
vertex 84.88512421 -17.00225067 31.31656837
vertex 83.72020721 -13.14305878 36.31507111

endloop
endfacet
facet normal 0.5810135603 -0.6313299537 0.5136592388
outer loop
vertex 79.81279755 -16.04547882 37.16753006
vertex 83.72020721 -13.14305878 36.31507111
vertex 79.16945648 -12.53342438 42.21183777

endloop
endfacet
facet normal 0.5964083076 -0.6087324619 0.5232035518
outer loop
vertex 79.16945648 -12.53342438 42.21183777
vertex 83.72020721 -13.14305878 36.31507111
vertex 82.82131195 -9.156990051 41.97741318

endloop
endfacet
facet normal 0.6789317727 -0.7273816466 0.09983757883
outer loop
vertex 79.16945648 -12.53342438 42.21183777
vertex 82.82131195 -9.156990051 41.97741318
vertex 78.67784882 -12.27664948 47.42572021

endloop
endfacet
facet normal 0.7665603757 -0.5946277976 0.2424934059
outer loop
vertex 78.67784882 -12.27664948 47.42572021
vertex 82.82131195 -9.156990051 41.97741318
vertex 81.85445404 -8.094047546 47.64028931

endloop
endfacet
facet normal 0.795118928 -0.6055628657 0.0328547433
outer loop
vertex 78.67784882 -12.27664948 47.42572021
vertex 81.85445404 -8.094047546 47.64028931
vertex 79.13457489 -11.53908539 49.96690369

endloop
endfacet
facet normal 0.8354969621 -0.4842977822 0.2596160173
outer loop
vertex 79.13457489 -11.53908539 49.96690369
vertex 81.85445404 -8.094047546 47.64028931
vertex 81.5602951 -7.041434765 50.55053711

endloop
endfacet
facet normal -0.518887341 0.3792644441 -0.7661034465
outer loop
vertex 79.13457489 -11.53908539 49.96690369
vertex 81.5602951 -7.041434765 50.55053711
vertex 80.52806854 -9.643592834 49.9614563

endloop
endfacet
facet normal -0.9310200214 0.3642923832 0.02219948545
outer loop
vertex 80.52806854 -9.643592834 49.9614563
vertex 81.5602951 -7.041434765 50.55053711
vertex 82.23964691 -5.317039013 50.74450302

endloop
endfacet
facet normal 0.8158264756 -0.3985740542 0.4190059602
outer loop
vertex 80.52806854 -9.643592834 49.9614563
vertex 82.23964691 -5.317039013 50.74450302
vertex 74.52843475 -14.77783966 56.75917053

endloop
endfacet
facet normal 0.7097184658 -0.1505463421 0.6882118583
outer loop
vertex 74.52843475 -14.77783966 56.75917053
vertex 82.23964691 -5.317039013 50.74450302
vertex 74.52843475 -14.7778244 56.75917435

endloop
endfacet
facet normal 0 0.947104454 0.3209254444
outer loop
vertex 81.83080292 -50.69184113 9.712783813
vertex 81.83083344 -50.69184113 9.712783813
vertex 81.97460175 -47.55866241 0.4662509859

endloop
endfacet
facet normal -0.2431447953 0.9198246598 0.3079012036
outer loop
vertex 81.97460175 -47.55866241 0.4662509859
vertex 81.83083344 -50.69184113 9.712783813
vertex 85.21129608 -47.2547226 2.11422801

endloop
endfacet
facet normal -0.4214533567 -0.2454088777 0.8730129004
outer loop
vertex 81.97460175 -47.55866241 0.4662509859
vertex 85.21129608 -47.2547226 2.11422801
vertex 80.43608856 -40.21024323 1.789204955

endloop
endfacet
facet normal -0.387827307 -0.2216146439 0.8946937323
outer loop
vertex 80.43608856 -40.21024323 1.789204955
vertex 85.21129608 -47.2547226 2.11422801
vertex 84.22759247 -41.16254425 3.196842909

endloop
endfacet
facet normal -0.4084689021 -0.4672860801 0.7840898037
outer loop
vertex 80.43608856 -40.21024323 1.789204955
vertex 84.22759247 -41.16254425 3.196842909
vertex 79.96901703 -34.74155426 4.805005074

endloop
endfacet
facet normal -0.3243167996 -0.4265576601 0.8443146348
outer loop
vertex 79.96901703 -34.74155426 4.805005074
vertex 84.22759247 -41.16254425 3.196842909
vertex 84.18453217 -36.35329437 5.609992027

endloop
endfacet
facet normal -0.370285809 -0.6254899502 0.6867682934
outer loop
vertex 79.96898651 -34.74156952 4.805005074
vertex 84.18453217 -36.35329437 5.609991074
vertex 80.57778168 -30.7064743 8.80830574

endloop
endfacet
facet normal -0.2781679034 -0.6017277837 0.7486963868
outer loop
vertex 80.57778168 -30.7064743 8.80830574
vertex 84.18453217 -36.35329437 5.609991074
vertex 84.90010834 -32.56298065 8.922131538

endloop
endfacet
facet normal -0.3274686933 -0.725284934 0.6055790782
outer loop
vertex 80.57778168 -30.7064743 8.80830574
vertex 84.90010834 -32.56298065 8.922131538
vertex 82.10167694 -27.80570221 13.10652924

endloop
endfacet
facet normal -0.3365974426 -0.7257449031 0.599996984
outer loop
vertex 82.10167694 -27.80570221 13.10652924
vertex 84.90010834 -32.56298065 8.922131538
vertex 86.28774261 -29.81780243 13.02110767

endloop
endfacet
facet normal -0.3539992273 -0.759637475 0.5455598235
outer loop
vertex 82.10167694 -27.80570221 13.10652924
vertex 86.28774261 -29.81780243 13.02110767
vertex 83.68599701 -25.1891098 17.77789497

endloop
endfacet
facet normal -0.3722318709 -0.7586765885 0.5346524715
outer loop
vertex 83.68599701 -25.1891098 17.77789497
vertex 86.28774261 -29.81780243 13.02110767
vertex 87.89354706 -27.19220734 17.86483192

endloop
endfacet
facet normal -0.3891701102 -0.797447443 0.4611118436
outer loop
vertex 83.68599701 -25.1891098 17.77789497
vertex 87.89354706 -27.19220734 17.86483192
vertex 84.78490448 -22.85077667 22.74926949

endloop
endfacet
facet normal -0.3340631127 -0.7999785542 0.4984337389
outer loop
vertex 84.78490448 -22.85077667 22.74926949
vertex 87.89354706 -27.19220734 17.86483192
vertex 89.20738983 -24.43906403 23.16415596

endloop
endfacet
facet normal -0.3331907094 -0.7955679297 0.5060193539
outer loop
vertex 84.78490448 -22.85077667 22.74926949
vertex 89.20738983 -24.43906403 23.16415596
vertex 85.27519989 -20.24474335 27.16933441

endloop
endfacet
facet normal -0.2865223289 -0.7884126306 0.5443440676
outer loop
vertex 85.27519989 -20.24474335 27.16933441
vertex 89.20738983 -24.43906403 23.16415596
vertex 89.79088593 -21.32041168 27.98825455

endloop
endfacet
facet normal -0.2867945731 -0.7676067948 0.5731742978
outer loop
vertex 85.27519989 -20.24474335 27.16933441
vertex 89.79088593 -21.32041168 27.98825455
vertex 84.88512421 -17.00225067 31.31656837

endloop
endfacet
facet normal -0.2818798423 -0.7657750845 0.5780418515
outer loop
vertex 84.88512421 -17.00225067 31.31656837
vertex 89.79088593 -21.32041168 27.98825455
vertex 89.3391037 -17.70409393 32.55875015

endloop
endfacet
facet normal -0.2768689394 -0.790731132 0.5459742546
outer loop
vertex 84.88512421 -17.00225067 31.31656837
vertex 89.3391037 -17.70409393 32.55875015
vertex 83.72020721 -13.14305878 36.31507111

endloop
endfacet
facet normal -0.2733048797 -0.7893978953 0.5496866703
outer loop
vertex 83.72020721 -13.14305878 36.31507111
vertex 89.3391037 -17.70409393 32.55875015
vertex 88.02645111 -13.54106903 37.88456345

endloop
endfacet
facet normal -0.2664198577 -0.8075532913 0.5261920691
outer loop
vertex 83.72020721 -13.14305878 36.31507111
vertex 88.02645111 -13.54106903 37.88456345
vertex 82.82131195 -9.156990051 41.97741318

endloop
endfacet
facet normal -0.2305216789 -0.796084702 0.5595613718
outer loop
vertex 82.82131195 -9.156990051 41.97741318
vertex 88.02645111 -13.54106903 37.88456345
vertex 86.5222702 -9.06855011 43.62791443

endloop
endfacet
facet normal -0.05463698134 -0.9830178618 0.1751875281
outer loop
vertex 82.82131195 -9.156990051 41.97741318
vertex 86.5222702 -9.06855011 43.62791443
vertex 81.85445404 -8.094047546 47.64028931

endloop
endfacet
facet normal 0.2639359832 -0.8208963275 0.5064257979
outer loop
vertex 81.85445404 -8.094047546 47.64028931
vertex 86.5222702 -9.06855011 43.62791443
vertex 84.65462494 -6.320151806 49.05632782

endloop
endfacet
facet normal 0.3692469001 -0.8613629341 0.3488702774
outer loop
vertex 81.85445404 -8.094047546 47.64028931
vertex 84.65462494 -6.320151806 49.05632782
vertex 81.5602951 -7.041434765 50.55053711

endloop
endfacet
facet normal 0.3964843452 -0.8114421964 0.4293735623
outer loop
vertex 81.5602951 -7.041434765 50.55053711
vertex 84.65462494 -6.320151806 49.05632782
vertex 82.93636322 -5.260887146 52.64480209

endloop
endfacet
facet normal -0.8936738372 0.3162720799 0.3183066547
outer loop
vertex 81.5602951 -7.041434765 50.55053711
vertex 82.93636322 -5.260887146 52.64480209
vertex 82.23964691 -5.317039013 50.74450302

endloop
endfacet
facet normal -0.1547555625 -0.9842181802 0.08582144231
outer loop
vertex 82.23964691 -5.317039013 50.74450302
vertex 82.93636322 -5.260887146 52.64480209
vertex 81.55751801 -4.94342804 53.79911804

endloop
endfacet
facet normal 0.8220317364 -0.5133904219 0.2463616282
outer loop
vertex 82.23964691 -5.317039013 50.74450302
vertex 81.55751801 -4.94342804 53.79911804
vertex 74.52843475 -14.7778244 56.75917435

endloop
endfacet
facet normal -0.3516401052 0.487501055 0.7991820574
outer loop
vertex 74.52843475 -14.7778244 56.75917435
vertex 81.55751801 -4.94342804 53.79911804
vertex 74.52840424 -14.77783966 56.75917053

endloop
endfacet
facet normal -0.9136616588 -0 -0.4064754844
outer loop
vertex 81.83080292 -50.69184113 9.712783813
vertex 81.83080292 -50.69182587 9.712783813
vertex 85.21129608 -47.2547226 2.114227057

endloop
endfacet
facet normal -0.2882485092 0.914085865 0.285236448
outer loop
vertex 85.21129608 -47.2547226 2.114227057
vertex 81.83080292 -50.69182587 9.712783813
vertex 87.51244354 -47.17337799 4.178993225

endloop
endfacet
facet normal -0.6448051333 -0.2334554493 0.7278219461
outer loop
vertex 85.21129608 -47.2547226 2.114227057
vertex 87.51244354 -47.17337799 4.178993225
vertex 84.22759247 -41.16255951 3.196842909

endloop
endfacet
facet normal -0.5471910834 -0.164951846 0.8205929399
outer loop
vertex 84.22759247 -41.16255951 3.196842909
vertex 87.51244354 -47.17337799 4.178993225
vertex 87.1906662 -42.27016449 4.950046062

endloop
endfacet
facet normal -0.5717312098 -0.3720344901 0.7312412262
outer loop
vertex 84.22759247 -41.16255951 3.196842909
vertex 87.1906662 -42.27016449 4.950046062
vertex 84.18453217 -36.35329437 5.609991074

endloop
endfacet
facet normal -0.5382164717 -0.3585211337 0.7627486587
outer loop
vertex 84.18453217 -36.35329437 5.609991074
vertex 87.1906662 -42.27016449 4.950046062
vertex 87.53951263 -38.41478729 7.008377075

endloop
endfacet
facet normal -0.571261704 -0.476270467 0.6684508324
outer loop
vertex 84.18453217 -36.35330963 5.609991074
vertex 87.53951263 -38.41478729 7.008375168
vertex 84.90010834 -32.56298065 8.922131538

endloop
endfacet
facet normal -0.5346841812 -0.4706886411 0.7018297315
outer loop
vertex 84.90010834 -32.56298065 8.922131538
vertex 87.53951263 -38.41478729 7.008375168
vertex 88.39208221 -35.14612579 9.850057602

endloop
endfacet
facet normal -0.578441143 -0.5736125112 0.579978168
outer loop
vertex 84.90010834 -32.56298065 8.922131538
vertex 88.39208221 -35.14612579 9.850057602
vertex 86.2877121 -29.81780243 13.02110577

endloop
endfacet
facet normal -0.4429124594 -0.5812003016 0.6826674342
outer loop
vertex 86.2877121 -29.81780243 13.02110577
vertex 88.39208221 -35.14612579 9.850057602
vertex 89.87480927 -32.1608963 13.35357094

endloop
endfacet
facet normal -0.496191889 -0.6837043166 0.5351094604
outer loop
vertex 86.2877121 -29.81780243 13.02110577
vertex 89.87480927 -32.1608963 13.35357094
vertex 87.89354706 -27.1922226 17.86483002

endloop
endfacet
facet normal -0.4567580223 -0.6909127235 0.5603674054
outer loop
vertex 87.89354706 -27.1922226 17.86483002
vertex 89.87480927 -32.1608963 13.35357094
vertex 91.51262665 -29.34273529 18.16325378

endloop
endfacet
facet normal -0.4735112786 -0.7280861735 0.4956587255
outer loop
vertex 87.89354706 -27.1922226 17.86483002
vertex 91.51262665 -29.34273529 18.16325378
vertex 89.20738983 -24.43906403 23.16415405

endloop
endfacet
facet normal -0.5104733109 -0.7197741866 0.4704701006
outer loop
vertex 89.20738983 -24.43906403 23.16415405
vertex 91.51262665 -29.34273529 18.16325378
vertex 92.8521347 -26.50988007 23.95065498

endloop
endfacet
facet normal -0.505376935 -0.6955056787 0.5107504129
outer loop
vertex 89.20738983 -24.43906403 23.16415405
vertex 92.8521347 -26.50988007 23.95065498
vertex 89.79085541 -21.32041168 27.98825264

endloop
endfacet
facet normal -0.5767737031 -0.6856994629 0.4440141022
outer loop
vertex 89.79085541 -21.32041168 27.98825264
vertex 92.8521347 -26.50988007 23.95065498
vertex 93.41573334 -23.39098358 29.49934006

endloop
endfacet
facet normal -0.5773245096 -0.6671260595 0.470785737
outer loop
vertex 89.79085541 -21.32041168 27.98825264
vertex 93.41573334 -23.39098358 29.49934006
vertex 89.33907318 -17.70407867 32.55875015

endloop
endfacet
facet normal -0.6040724516 -0.6673593521 0.4355778396
outer loop
vertex 89.33907318 -17.70407867 32.55875015
vertex 93.41573334 -23.39098358 29.49934006
vertex 92.9799118 -19.63942719 34.6427803

endloop
endfacet
facet normal -0.5975883603 -0.696526289 0.3971639872
outer loop
vertex 89.33907318 -17.70407867 32.55875015
vertex 92.9799118 -19.63942719 34.6427803
vertex 88.02642059 -13.54106903 37.88455963

endloop
endfacet
facet normal -0.582011044 -0.6961570978 0.4202717841
outer loop
vertex 88.02642059 -13.54106903 37.88455963
vertex 92.9799118 -19.63942719 34.6427803
vertex 91.71608734 -15.19886017 40.24813461

endloop
endfacet
facet normal -0.577062726 -0.7107245326 0.4023296833
outer loop
vertex 88.02642059 -13.54106903 37.88455963
vertex 91.71608734 -15.19886017 40.24813461
vertex 86.52223969 -9.06855011 43.62791443

endloop
endfacet
facet normal -0.6348288059 -0.708190918 0.3089627624
outer loop
vertex 86.52223969 -9.06855011 43.62791443
vertex 91.71608734 -15.19886017 40.24813461
vertex 89.82756805 -10.86388397 46.30421829

endloop
endfacet
facet normal -0.5860200524 -0.7861358523 0.1963948756
outer loop
vertex 86.52223969 -9.06855011 43.62791443
vertex 89.82756805 -10.86388397 46.30421829
vertex 84.65459442 -6.3201828 49.05632782

endloop
endfacet
facet normal -0.6479526758 -0.7607300878 0.03803929314
outer loop
vertex 84.65459442 -6.3201828 49.05632782
vertex 89.82756805 -10.86388397 46.30421829
vertex 86.9189682 -8.109137535 51.8506813

endloop
endfacet
facet normal -0.586753428 -0.808663249 -0.04223981127
outer loop
vertex 84.65459442 -6.3201828 49.05632782
vertex 86.9189682 -8.109137535 51.8506813
vertex 82.93636322 -5.260901928 52.64480209

endloop
endfacet
facet normal -0.5958762765 -0.7655596137 -0.2425901592
outer loop
vertex 82.93636322 -5.260901928 52.64480209
vertex 86.9189682 -8.109137535 51.8506813
vertex 83.69643402 -6.780083179 55.5720253

endloop
endfacet
facet normal -0.4549409747 -0.8332144618 -0.314296633
outer loop
vertex 82.93636322 -5.260901928 52.64480209
vertex 83.69643402 -6.780083179 55.5720253
vertex 81.55751801 -4.943459034 53.79911041

endloop
endfacet
facet normal -0.3551335037 -0.8295663595 -0.4309292138
outer loop
vertex 81.55751801 -4.943459034 53.79911041
vertex 83.69643402 -6.780083179 55.5720253
vertex 80.36553192 -6.015799999 56.84576416

endloop
endfacet
facet normal 0.8247104287 -0.5506848097 0.1288369447
outer loop
vertex 81.55751801 -4.943459034 53.79911041
vertex 80.36553192 -6.015799999 56.84576416
vertex 74.52837372 -14.77783966 56.75917053

endloop
endfacet
facet normal -0.007645235397 0.01462566759 -0.9998638034
outer loop
vertex 74.52837372 -14.77783966 56.75917053
vertex 80.36553192 -6.015799999 56.84576416
vertex 74.52840424 -14.7778244 56.75917053

endloop
endfacet
facet normal 0.6823646426 0.04559927434 0.7295883894
outer loop
vertex 81.83080292 -50.69182587 9.712783813
vertex 81.83080292 -50.69184113 9.712784767
vertex 87.51244354 -47.17337799 4.178993225

endloop
endfacet
facet normal -0.2767887712 0.9139149785 0.2968962193
outer loop
vertex 87.51244354 -47.17337799 4.178993225
vertex 81.83080292 -50.69184113 9.712784767
vertex 89.53130341 -47.29250336 6.427820206

endloop
endfacet
facet normal -0.7395023108 -0.1516652405 0.6558460593
outer loop
vertex 87.51244354 -47.17337799 4.178993225
vertex 89.53130341 -47.29250336 6.427820206
vertex 87.1906662 -42.27016449 4.950046062

endloop
endfacet
facet normal -0.7134398222 -0.1298894584 0.6885726452
outer loop
vertex 87.1906662 -42.27016449 4.950046062
vertex 89.53130341 -47.29250336 6.427820206
vertex 89.65151215 -43.84548187 7.20260191

endloop
endfacet
facet normal -0.7378255129 -0.2647342682 0.6209099889
outer loop
vertex 87.1906662 -42.27016449 4.950046062
vertex 89.65151215 -43.84548187 7.20260191
vertex 87.53951263 -38.41478729 7.008377075

endloop
endfacet
facet normal -0.6951833963 -0.246203512 0.6753546596
outer loop
vertex 87.53951263 -38.41478729 7.008377075
vertex 89.65151215 -43.84548187 7.20260191
vertex 90.32457733 -40.98983002 8.936469078

endloop
endfacet
facet normal -0.7254415154 -0.3339873552 0.6018198729
outer loop
vertex 87.53951263 -38.41478729 7.008375168
vertex 90.32457733 -40.98984528 8.936468124
vertex 88.39208221 -35.14612579 9.850057602

endloop
endfacet
facet normal -0.6868501902 -0.3284960389 0.6483265162
outer loop
vertex 88.39208221 -35.14612579 9.850057602
vertex 90.32457733 -40.98984528 8.936468124
vertex 91.25762177 -38.25353241 11.31139755

endloop
endfacet
facet normal -0.7050857544 -0.3640120625 0.6085632443
outer loop
vertex 88.39208221 -35.14612579 9.850057602
vertex 91.25762177 -38.25353241 11.31139755
vertex 89.87480927 -32.1608963 13.35357094

endloop
endfacet
facet normal -0.6639915705 -0.3687406182 0.6504964232
outer loop
vertex 89.87480927 -32.1608963 13.35357094
vertex 91.25762177 -38.25353241 11.31139755
vertex 92.69762421 -35.3564682 14.42350483

endloop
endfacet
facet normal -0.7201356888 -0.4631638527 0.5166080594
outer loop
vertex 89.87480927 -32.1608963 13.35357094
vertex 92.69762421 -35.3564682 14.42350483
vertex 91.51262665 -29.34273529 18.16325378

endloop
endfacet
facet normal -0.7005732656 -0.4712606072 0.5358268619
outer loop
vertex 91.51262665 -29.34273529 18.16325378
vertex 92.69762421 -35.3564682 14.42350483
vertex 94.37462616 -32.43802643 19.18289566

endloop
endfacet
facet normal -0.7291802168 -0.5327265263 0.4295330346
outer loop
vertex 91.51262665 -29.34273529 18.16325378
vertex 94.37462616 -32.43802643 19.18289566
vertex 92.8521347 -26.50988007 23.95065498

endloop
endfacet
facet normal -0.7934155464 -0.4919946492 0.3583754301
outer loop
vertex 92.8521347 -26.50988007 23.95065498
vertex 94.37462616 -32.43802643 19.18289566
vertex 95.58968353 -29.75705719 25.55349922

endloop
endfacet
facet normal -0.7935038805 -0.4925275445 0.3574468493
outer loop
vertex 92.8521347 -26.50988007 23.95065498
vertex 95.58968353 -29.75705719 25.55349922
vertex 93.41573334 -23.39098358 29.49934006

endloop
endfacet
facet normal -0.8436154723 -0.4598813057 0.2771678567
outer loop
vertex 93.41573334 -23.39098358 29.49934006
vertex 95.58968353 -29.75705719 25.55349922
vertex 96.01506805 -26.72925568 31.87201881

endloop
endfacet
facet normal -0.8432027698 -0.4658409357 0.2683306336
outer loop
vertex 93.41573334 -23.39098358 29.49934006
vertex 96.01506805 -26.72925568 31.87201881
vertex 92.9799118 -19.63942719 34.6427803

endloop
endfacet
facet normal -0.8479024172 -0.4635362327 0.2572852373
outer loop
vertex 92.9799118 -19.63942719 34.6427803
vertex 96.01506805 -26.72925568 31.87201881
vertex 95.58083344 -22.79763031 37.52435303

endloop
endfacet
facet normal -0.8396723866 -0.5016474724 0.2080868632
outer loop
vertex 92.9799118 -19.63942719 34.6427803
vertex 95.58083344 -22.79763031 37.52435303
vertex 91.71608734 -15.19886017 40.24813461

endloop
endfacet
facet normal -0.8425438404 -0.5001669526 0.1998823136
outer loop
vertex 91.71608734 -15.19886017 40.24813461
vertex 95.58083344 -22.79763031 37.52435303
vertex 94.26073456 -18.20607758 43.44934845

endloop
endfacet
facet normal -0.823415637 -0.5505702496 0.1373284757
outer loop
vertex 91.71608734 -15.19886017 40.24813461
vertex 94.26073456 -18.20607758 43.44934845
vertex 89.82756805 -10.86388397 46.30421829

endloop
endfacet
facet normal -0.8438143134 -0.5331686139 0.06089857593
outer loop
vertex 89.82756805 -10.86388397 46.30421829
vertex 94.26073456 -18.20607758 43.44934845
vertex 91.99544525 -13.9023056 49.74099731

endloop
endfacet
facet normal -0.764313221 -0.6394534707 -0.0832150802
outer loop
vertex 89.82756805 -10.86388397 46.30421829
vertex 91.99544525 -13.9023056 49.74099731
vertex 86.9189682 -8.109137535 51.8506813

endloop
endfacet
facet normal -0.7716274858 -0.6073898077 -0.1888615787
outer loop
vertex 86.9189682 -8.109137535 51.8506813
vertex 91.99544525 -13.9023056 49.74099731
vertex 88.4675827 -11.01978302 54.88434601

endloop
endfacet
facet normal -0.6543343663 -0.6840762496 -0.3223137259
outer loop
vertex 86.9189682 -8.109137535 51.8506813
vertex 88.4675827 -11.01978302 54.88434601
vertex 83.69643402 -6.780083179 55.5720253

endloop
endfacet
facet normal -0.633908391 -0.6438704133 -0.4284753799
outer loop
vertex 83.69643402 -6.780083179 55.5720253
vertex 88.4675827 -11.01978302 54.88434601
vertex 84.20671844 -9.101097107 58.30487442

endloop
endfacet
facet normal -0.3819572926 -0.7383815646 -0.555788815
outer loop
vertex 83.69643402 -6.780083179 55.5720253
vertex 84.20671844 -9.101097107 58.30487442
vertex 80.36553192 -6.015799999 56.84576416

endloop
endfacet
facet normal -0.368562758 -0.7306575179 -0.5747183561
outer loop
vertex 80.36553192 -6.015799999 56.84576416
vertex 84.20671844 -9.101097107 58.30487442
vertex 79.20549774 -7.53087616 59.51585007

endloop
endfacet
facet normal 0.8311164379 -0.5541381836 0.04665089399
outer loop
vertex 80.36553192 -6.015799999 56.84576416
vertex 79.20549774 -7.53087616 59.51585007
vertex 74.52840424 -14.7778244 56.75917053

endloop
endfacet
facet normal 0.6877846122 -0.1672989577 -0.7063733935
outer loop
vertex 74.52840424 -14.7778244 56.75917053
vertex 79.20549774 -7.53087616 59.51585007
vertex 74.52840424 -14.77783966 56.75917435

endloop
endfacet
facet normal 0.4038448632 -0.914827466 0
outer loop
vertex 81.83080292 -50.69184113 9.712784767
vertex 81.83080292 -50.69184113 9.712783813
vertex 89.53130341 -47.29250336 6.427820206

endloop
endfacet
facet normal -0.2853353322 0.9166951776 0.2797388136
outer loop
vertex 89.53130341 -47.29250336 6.427820206
vertex 81.83080292 -50.69184113 9.712783813
vertex 90.58470917 -47.76355743 9.045929909

endloop
endfacet
facet normal -0.9296392202 -0.04964599386 0.3651112616
outer loop
vertex 89.53130341 -47.29250336 6.427820206
vertex 90.58470917 -47.76355743 9.045929909
vertex 89.65151215 -43.84548187 7.20260191

endloop
endfacet
facet normal -0.8761288524 0.01796996221 0.4817420244
outer loop
vertex 89.65151215 -43.84548187 7.20260191
vertex 90.58470917 -47.76355743 9.045929909
vertex 91.1319809 -45.92946625 9.972820282

endloop
endfacet
facet normal -0.8971526027 -0.05468166247 0.4383230507
outer loop
vertex 89.65151215 -43.84548187 7.20260191
vertex 91.1319809 -45.92946625 9.972820282
vertex 90.32457733 -40.98983002 8.936469078

endloop
endfacet
facet normal -0.8454638124 -0.02628857084 0.5333853364
outer loop
vertex 90.32457733 -40.98983002 8.936469078
vertex 91.1319809 -45.92946625 9.972820282
vertex 92.04036713 -44.13925934 11.50092697

endloop
endfacet
facet normal -0.8802035451 -0.102129221 0.4634775519
outer loop
vertex 90.32457733 -40.98984528 8.936468124
vertex 92.04033661 -44.1392746 11.50092602
vertex 91.25762177 -38.25353241 11.31139755

endloop
endfacet
facet normal -0.8590382338 -0.09806016088 0.5024316311
outer loop
vertex 91.25762177 -38.25353241 11.31139755
vertex 92.04033661 -44.1392746 11.50092602
vertex 93.00060272 -42.04576874 13.55134392

endloop
endfacet
facet normal -0.8623785973 -0.1036684364 0.4955360889
outer loop
vertex 91.25762177 -38.25353241 11.31139755
vertex 93.00060272 -42.04576874 13.55134392
vertex 92.69762421 -35.3564682 14.42350483

endloop
endfacet
facet normal -0.8714968562 -0.1020132601 0.4796735346
outer loop
vertex 92.69762421 -35.3564682 14.42350483
vertex 93.00060272 -42.04576874 13.55134392
vertex 94.26583099 -39.41004181 16.41062546

endloop
endfacet
facet normal -0.900716126 -0.1483005136 0.4083105028
outer loop
vertex 92.69762421 -35.3564682 14.42350483
vertex 94.26583099 -39.41004181 16.41062546
vertex 94.37462616 -32.43802643 19.18289566

endloop
endfacet
facet normal -0.9275845289 -0.1254584789 0.3519192338
outer loop
vertex 94.37462616 -32.43802643 19.18289566
vertex 94.26583099 -39.41004181 16.41062546
vertex 95.68950653 -36.58690643 21.16957474

endloop
endfacet
facet normal -0.9500078559 -0.1783716828 0.2562587559
outer loop
vertex 94.37462616 -32.43802643 19.18289566
vertex 95.68950653 -36.58690643 21.16957474
vertex 95.58968353 -29.75705719 25.55349922

endloop
endfacet
facet normal -0.9671759009 -0.1471232325 0.2071849257
outer loop
vertex 95.58968353 -29.75705719 25.55349922
vertex 95.68950653 -36.58690643 21.16957474
vertex 96.72832489 -33.94229889 27.89691353

endloop
endfacet
facet normal -0.9720007181 -0.1796111763 0.151507169
outer loop
vertex 95.58968353 -29.75705719 25.55349922
vertex 96.72832489 -33.94229889 27.89691353
vertex 96.01506805 -26.72925568 31.87201881

endloop
endfacet
facet normal -0.9755524993 -0.1719147861 0.1369043589
outer loop
vertex 96.01506805 -26.72925568 31.87201881
vertex 96.72832489 -33.94229889 27.89691353
vertex 97.11064911 -30.73834991 34.6445694

endloop
endfacet
facet normal -0.9738529325 -0.2146256268 0.07447311282
outer loop
vertex 96.01506805 -26.72925568 31.87201881
vertex 97.11064911 -30.73834991 34.6445694
vertex 95.58083344 -22.79763031 37.52435303

endloop
endfacet
facet normal -0.9726207852 -0.2172808349 0.08244910091
outer loop
vertex 95.58083344 -22.79763031 37.52435303
vertex 97.11064911 -30.73834991 34.6445694
vertex 96.66902924 -26.52126312 40.54837418

endloop
endfacet
facet normal -0.9603210688 -0.278888464 0.002162411576
outer loop
vertex 95.58083344 -22.79763031 37.52435303
vertex 96.66902924 -26.52126312 40.54837418
vertex 94.26073456 -18.20607758 43.44934845

endloop
endfacet
facet normal -0.9613479376 -0.2751785815 -0.009323909879
outer loop
vertex 94.26073456 -18.20607758 43.44934845
vertex 96.66902924 -26.52126312 40.54837418
vertex 95.24733734 -21.75572968 46.48665237

endloop
endfacet
facet normal -0.9332618117 -0.3449871242 -0.1000313535
outer loop
vertex 94.26073456 -18.20607758 43.44934845
vertex 95.24733734 -21.75572968 46.48665237
vertex 91.99544525 -13.9023056 49.74099731

endloop
endfacet
facet normal -0.933893621 -0.3357114792 -0.1230468154
outer loop
vertex 91.99544525 -13.9023056 49.74099731
vertex 95.24733734 -21.75572968 46.48665237
vertex 92.81304169 -17.21309662 52.56855774

endloop
endfacet
facet normal -0.8292313218 -0.4670092762 -0.3070468903
outer loop
vertex 91.99544525 -13.9023056 49.74099731
vertex 92.81304169 -17.21309662 52.56855774
vertex 88.4675827 -11.01978302 54.88434601

endloop
endfacet
facet normal -0.8293994665 -0.4676804245 -0.3055676222
outer loop
vertex 88.4675827 -11.01978302 54.88434601
vertex 92.81304169 -17.21309662 52.56855774
vertex 89.15032196 -14.1336441 57.79705048

endloop
endfacet
facet normal -0.6500231028 -0.590236783 -0.4786339402
outer loop
vertex 88.4675827 -11.01978302 54.88434601
vertex 89.15032196 -14.1336441 57.79705048
vertex 84.20671844 -9.101097107 58.30487442

endloop
endfacet
facet normal -0.6670909524 -0.61251086 -0.424051851
outer loop
vertex 84.20671844 -9.101097107 58.30487442
vertex 89.15032196 -14.1336441 57.79705048
vertex 84.45513153 -11.4920578 61.36764908

endloop
endfacet
facet normal -0.3685170412 -0.7470391393 -0.5532881021
outer loop
vertex 84.20671844 -9.101097107 58.30487442
vertex 84.45513153 -11.4920578 61.36764908
vertex 79.20549774 -7.53087616 59.51585007

endloop
endfacet
facet normal -0.3670422435 -0.7461203337 -0.555503726
outer loop
vertex 79.20549774 -7.53087616 59.51585007
vertex 84.45513153 -11.4920578 61.36764908
vertex 78.16005707 -8.994911194 62.17301941

endloop
endfacet
facet normal 0.8353636861 -0.5490757823 0.02613947727
outer loop
vertex 79.20549774 -7.53087616 59.51585007
vertex 78.16005707 -8.994911194 62.17301941
vertex 74.52840424 -14.77783966 56.75917435

endloop
endfacet
facet normal 0.5223516822 0.3917637765 -0.7574099302
outer loop
vertex 74.52840424 -14.77783966 56.75917435
vertex 78.16005707 -8.994911194 62.17301941
vertex 74.52840424 -14.77785492 56.75916672

endloop
endfacet
facet normal -nan(ind) -nan(ind) -nan(ind)
outer loop
vertex 81.83080292 -50.69184113 9.712783813
vertex 81.83080292 -50.69184113 9.712783813
vertex 90.58470917 -47.76355743 9.045929909

endloop
endfacet
facet normal -0.2886280417 0.9217838645 0.2588598132
outer loop
vertex 90.58470917 -47.76355743 9.045929909
vertex 81.83080292 -50.69184113 9.712783813
vertex 90.52593231 -48.61949921 12.02834988

endloop
endfacet
facet normal -0.9641123414 0.259626478 0.05551118404
outer loop
vertex 90.58470917 -47.76355743 9.045929909
vertex 90.52593231 -48.61949921 12.02834988
vertex 91.1319809 -45.92946625 9.972820282

endloop
endfacet
facet normal -0.7560867667 0.4963249862 0.4266079366
outer loop
vertex 91.1319809 -45.92946625 9.972820282
vertex 90.52593231 -48.61949921 12.02834988
vertex 91.28356171 -48.42302704 13.1425333

endloop
endfacet
facet normal -0.9327321053 0.2603712678 0.2494345307
outer loop
vertex 91.1319809 -45.92946625 9.972820282
vertex 91.28356171 -48.42302704 13.1425333
vertex 92.04036713 -44.13925934 11.50092697

endloop
endfacet
facet normal -0.9283847809 0.2641759813 0.2613671124
outer loop
vertex 92.04036713 -44.13925934 11.50092697
vertex 91.28356171 -48.42302704 13.1425333
vertex 91.90621185 -47.64617157 14.56900311

endloop
endfacet
facet normal -0.9502726197 0.2248475552 0.2154658288
outer loop
vertex 92.04033661 -44.1392746 11.50092602
vertex 91.90621185 -47.64618683 14.56900215
vertex 93.00060272 -42.04576874 13.55134392

endloop
endfacet
facet normal -0.9376997352 0.230482012 0.2599945366
outer loop
vertex 93.00060272 -42.04576874 13.55134392
vertex 91.90621185 -47.64618683 14.56900215
vertex 92.81056976 -46.03847504 16.40545464

endloop
endfacet
facet normal -0.9509339929 0.2085977048 0.2284986824
outer loop
vertex 93.00060272 -42.04576874 13.55134392
vertex 92.81056976 -46.03847504 16.40545464
vertex 94.26583099 -39.41004181 16.41062546

endloop
endfacet
facet normal -0.9467995167 0.2076764405 0.2458474934
outer loop
vertex 94.26583099 -39.41004181 16.41062546
vertex 92.81056976 -46.03847504 16.40545464
vertex 94.04271698 -43.47216034 18.98279762

endloop
endfacet
facet normal -0.9671413898 0.1717937291 0.1874150187
outer loop
vertex 94.26583099 -39.41004181 16.41062546
vertex 94.04271698 -43.47216034 18.98279762
vertex 95.68950653 -36.58690643 21.16957474

endloop
endfacet
facet normal -0.9720138907 0.1875520051 0.1414681226
outer loop
vertex 95.68950653 -36.58690643 21.16957474
vertex 94.04271698 -43.47216034 18.98279762
vertex 95.23674774 -40.88552094 23.75761986

endloop
endfacet
facet normal -0.9833922982 0.1576824933 0.08986579627
outer loop
vertex 95.68950653 -36.58690643 21.16957474
vertex 95.23674774 -40.88552094 23.75761986
vertex 96.72832489 -33.94229889 27.89691353

endloop
endfacet
facet normal -0.9828208685 0.173318699 0.06343183666
outer loop
vertex 96.72832489 -33.94229889 27.89691353
vertex 95.23674774 -40.88552094 23.75761986
vertex 96.1448288 -38.20729828 30.50967026

endloop
endfacet
facet normal -0.9912676811 0.1317109466 -0.006373995915
outer loop
vertex 96.72832489 -33.94229889 27.89691353
vertex 96.1448288 -38.20729828 30.50967026
vertex 97.11064911 -30.73834991 34.6445694

endloop
endfacet
facet normal -0.9899461865 0.1398253739 -0.02133991197
outer loop
vertex 97.11064911 -30.73834991 34.6445694
vertex 96.1448288 -38.20729828 30.50967026
vertex 96.4983139 -34.66954803 37.29207993

endloop
endfacet
facet normal -0.9897370934 0.07042606175 -0.1243402138
outer loop
vertex 97.11064911 -30.73834991 34.6445694
vertex 96.4983139 -34.66954803 37.29207993
vertex 96.66902924 -26.52126312 40.54837418

endloop
endfacet
facet normal -0.9867270589 0.07766449451 -0.1426108778
outer loop
vertex 96.66902924 -26.52126312 40.54837418
vertex 96.4983139 -34.66954803 37.29207993
vertex 95.98763275 -30.19052887 43.26472092

endloop
endfacet
facet normal -0.9715583324 0.005161113571 -0.2367440611
outer loop
vertex 96.66902924 -26.52126312 40.54837418
vertex 95.98763275 -30.19052887 43.26472092
vertex 95.24733734 -21.75572968 46.48665237

endloop
endfacet
facet normal -0.9445468783 0.04152672738 -0.3257404268
outer loop
vertex 95.24733734 -21.75572968 46.48665237
vertex 95.98763275 -30.19052887 43.26472092
vertex 94.23467255 -25.42032623 48.95589066

endloop
endfacet
facet normal -0.9273282886 0.004098379519 -0.3742262423
outer loop
vertex 95.24733734 -21.75572968 46.48665237
vertex 94.23467255 -25.42032623 48.95589066
vertex 92.81304169 -17.21309662 52.56855774

endloop
endfacet
facet normal -0.8302199244 0.09776173532 -0.5487965941
outer loop
vertex 92.81304169 -17.21309662 52.56855774
vertex 94.23467255 -25.42032623 48.95589066
vertex 91.20656586 -20.88996124 54.34384537

endloop
endfacet
facet normal -0.8001039028 0.06147288904 -0.5967032909
outer loop
vertex 92.81304169 -17.21309662 52.56855774
vertex 91.20656586 -20.88996124 54.34384537
vertex 89.15032196 -14.1336441 57.79705048

endloop
endfacet
facet normal -0.8965331912 -0.04776582494 -0.4403937161
outer loop
vertex 89.15032196 -14.1336441 57.79705048
vertex 91.20656586 -20.88996124 54.34384537
vertex 88.30828094 -17.66898346 59.89468765

endloop
endfacet
facet normal -0.6717960835 -0.2530544102 -0.6961705089
outer loop
vertex 89.15032196 -14.1336441 57.79705048
vertex 88.30828094 -17.66898346 59.89468765
vertex 84.45513153 -11.4920578 61.36764908

endloop
endfacet
facet normal -0.6897940636 -0.2701089084 -0.6717331409
outer loop
vertex 84.45513153 -11.4920578 61.36764908
vertex 88.30828094 -17.66898346 59.89468765
vertex 83.94701385 -14.8549881 63.24168777

endloop
endfacet
facet normal -0.2817181945 -0.4342362583 -0.8556131124
outer loop
vertex 84.45513153 -11.4920578 61.36764908
vertex 83.94701385 -14.8549881 63.24168777
vertex 78.16005707 -8.994911194 62.17301941

endloop
endfacet
facet normal -0.2011521608 -0.3644544482 -0.9092364311
outer loop
vertex 78.16005707 -8.994911194 62.17301941
vertex 83.94701385 -14.8549881 63.24168777
vertex 76.44026947 -11.70137787 63.63834

endloop
endfacet
facet normal 0.8450496793 -0.5346708298 0.004256531131
outer loop
vertex 78.16005707 -8.994911194 62.17301941
vertex 76.44026947 -11.70137787 63.63834
vertex 74.52840424 -14.77785492 56.75916672

endloop
endfacet
facet normal -0.9512321949 -0.06794515252 0.3008999825
outer loop
vertex 74.52840424 -14.77785492 56.75916672
vertex 76.44026947 -11.70137787 63.63834
vertex 74.52840424 -14.77783966 56.75917053

endloop
endfacet
facet normal -nan(ind) -nan(ind) -nan(ind)
outer loop
vertex 81.83080292 -50.69184113 9.712783813
vertex 81.83080292 -50.69184113 9.712783813
vertex 90.52593231 -48.61949921 12.02834988

endloop
endfacet
facet normal -0.2297141105 0.9732218981 -0.00840171054
outer loop
vertex 90.52593231 -48.61949921 12.02834988
vertex 81.83080292 -50.69184113 9.712783813
vertex 87.84441376 -49.23119354 14.48836422

endloop
endfacet
facet normal -0.2334504277 0.9722856879 -0.01270724367
outer loop
vertex 90.52593231 -48.61949921 12.02834988
vertex 87.84441376 -49.23119354 14.48836422
vertex 91.28356171 -48.42302704 13.1425333

endloop
endfacet
facet normal 0.1322670281 0.6634775996 0.7364121675
outer loop
vertex 91.28356171 -48.42302704 13.1425333
vertex 87.84441376 -49.23119354 14.48836422
vertex 87.49086761 -49.70682526 14.9803896

endloop
endfacet
facet normal -0.4272252023 0.8592231274 -0.2814503014
outer loop
vertex 91.28356171 -48.42302704 13.1425333
vertex 87.49086761 -49.70682526 14.9803896
vertex 91.90621185 -47.64617157 14.56900311

endloop
endfacet
facet normal -0.3799150884 0.8743326664 0.3020048738
outer loop
vertex 91.90621185 -47.64617157 14.56900311
vertex 87.49086761 -49.70682526 14.9803896
vertex 88.59679413 -49.87174225 16.8490696

endloop
endfacet
facet normal -0.661642611 0.694647789 -0.2823006511
outer loop
vertex 91.90621185 -47.64618683 14.56900215
vertex 88.59679413 -49.87175751 16.84906769
vertex 92.81056976 -46.03847504 16.40545464

endloop
endfacet
facet normal -0.609965682 0.711001873 0.3498831093
outer loop
vertex 92.81056976 -46.03847504 16.40545464
vertex 88.59679413 -49.87175751 16.84906769
vertex 90.64037323 -49.27616119 19.20140457

endloop
endfacet
facet normal -0.860815227 0.5013146996 -0.08764062822
outer loop
vertex 92.81056976 -46.03847504 16.40545464
vertex 90.64037323 -49.27616119 19.20140457
vertex 94.04271698 -43.47216034 18.98279762

endloop
endfacet
facet normal -0.8614690304 0.5064154863 0.03761035949
outer loop
vertex 94.04271698 -43.47216034 18.98279762
vertex 90.64037323 -49.27616119 19.20140457
vertex 92.12075043 -46.94524384 21.72428894

endloop
endfacet
facet normal -0.8846497536 0.4652372599 -0.03080783784
outer loop
vertex 94.04271698 -43.47216034 18.98279762
vertex 92.12075043 -46.94524384 21.72428894
vertex 95.23674774 -40.88552094 23.75761986

endloop
endfacet
facet normal -0.8879775405 0.4597892463 -0.009471947327
outer loop
vertex 95.23674774 -40.88552094 23.75761986
vertex 92.12075043 -46.94524384 21.72428894
vertex 93.36489105 -44.44763947 26.327631

endloop
endfacet
facet normal -0.898907721 0.4350791872 -0.0516817756
outer loop
vertex 95.23674774 -40.88552094 23.75761986
vertex 93.36489105 -44.44763947 26.327631
vertex 96.1448288 -38.20729828 30.50967026

endloop
endfacet
facet normal -0.8842844963 0.4572799802 -0.09452979267
outer loop
vertex 96.1448288 -38.20729828 30.50967026
vertex 93.36489105 -44.44763947 26.327631
vertex 94.06206512 -41.74269867 32.89080048

endloop
endfacet
facet normal -0.8947697878 0.4133270979 -0.168960616
outer loop
vertex 96.1448288 -38.20729828 30.50967026
vertex 94.06206512 -41.74269867 32.89080048
vertex 96.4983139 -34.66954803 37.29207993

endloop
endfacet
facet normal -0.7846436501 0.4990929663 -0.3677505255
outer loop
vertex 96.4983139 -34.66954803 37.29207993
vertex 94.06206512 -41.74269867 32.89080048
vertex 93.6085434 -37.76064301 39.26269913

endloop
endfacet
facet normal -0.781358242 0.4653829336 -0.4158100486
outer loop
vertex 96.4983139 -34.66954803 37.29207993
vertex 93.6085434 -37.76064301 39.26269913
vertex 95.98763275 -30.19052887 43.26472092

endloop
endfacet
facet normal -0.5758788586 0.5161522627 -0.6339955926
outer loop
vertex 95.98763275 -30.19052887 43.26472092
vertex 93.6085434 -37.76064301 39.26269913
vertex 92.23915863 -32.71416473 44.61502457

endloop
endfacet
facet normal -0.5792189837 0.5280593038 -0.621014297
outer loop
vertex 95.98763275 -30.19052887 43.26472092
vertex 92.23915863 -32.71416473 44.61502457
vertex 94.23467255 -25.42032623 48.95589066

endloop
endfacet
facet normal -0.4947503805 0.5403999686 -0.6805804968
outer loop
vertex 94.23467255 -25.42032623 48.95589066
vertex 92.23915863 -32.71416473 44.61502457
vertex 90.44655609 -27.92490387 49.72097015

endloop
endfacet
facet normal -0.4841186702 0.516453445 -0.7063321471
outer loop
vertex 94.23467255 -25.42032623 48.95589066
vertex 90.44655609 -27.92490387 49.72097015
vertex 91.20656586 -20.88996124 54.34384537

endloop
endfacet
facet normal -0.5682610869 0.4938812256 -0.6581493616
outer loop
vertex 91.20656586 -20.88996124 54.34384537
vertex 90.44655609 -27.92490387 49.72097015
vertex 88.05532074 -23.93067169 54.78292465

endloop
endfacet
facet normal -0.5912315845 0.5242220759 -0.6128917933
outer loop
vertex 91.20656586 -20.88996124 54.34384537
vertex 88.05532074 -23.93067169 54.78292465
vertex 88.30828094 -17.66898346 59.89468765

endloop
endfacet
facet normal -0.8473870158 0.3559072614 -0.3940372765
outer loop
vertex 88.30828094 -17.66898346 59.89468765
vertex 88.05532074 -23.93067169 54.78292465
vertex 86.37340546 -21.35236359 60.72873688

endloop
endfacet
facet normal -0.56028229 0.1083707064 -0.8211817741
outer loop
vertex 88.30828094 -17.66898346 59.89468765
vertex 86.37340546 -21.35236359 60.72873688
vertex 83.94701385 -14.8549881 63.24168777

endloop
endfacet
facet normal -0.5490343571 0.1151426584 -0.8278304935
outer loop
vertex 83.94701385 -14.8549881 63.24168777
vertex 86.37340546 -21.35236359 60.72873688
vertex 82.58315277 -18.81151581 63.59591675

endloop
endfacet
facet normal -0.07861278206 -0.06198177487 -0.9949765205
outer loop
vertex 83.94701385 -14.8549881 63.24168777
vertex 82.58315277 -18.81151581 63.59591675
vertex 76.44026947 -11.70137787 63.63834

endloop
endfacet
facet normal -0.02141201124 -0.01253439859 -0.9996922016
outer loop
vertex 76.44026947 -11.70137787 63.63834
vertex 82.58315277 -18.81151581 63.59591675
vertex 74.46044159 -15.59958553 63.72962189

endloop
endfacet
facet normal 0.8902820945 -0.4532057047 -0.04474803433
outer loop
vertex 76.44026947 -11.70137787 63.63834
vertex 74.46044159 -15.59958553 63.72962189
vertex 74.52840424 -14.77783966 56.75917053

endloop
endfacet
facet normal -0.9999524355 0.002445535734 -0.009442485869
outer loop
vertex 74.52840424 -14.77783966 56.75917053
vertex 74.46044159 -15.59958553 63.72962189
vertex 74.52840424 -14.7778244 56.75917435

endloop
endfacet
facet normal -0.2360277325 0.9717463255 0
outer loop
vertex 81.83080292 -50.69184113 9.712783813
vertex 81.83080292 -50.69184113 9.712784767
vertex 87.84441376 -49.23119354 14.48836422

endloop
endfacet
facet normal -0.2082277089 0.9773904085 -0.03673327342
outer loop
vertex 87.84441376 -49.23119354 14.48836422
vertex 81.83080292 -50.69184113 9.712784767
vertex 83.72792816 -50.04985809 16.04040146

endloop
endfacet
facet normal 0.1488510966 0.6553723216 0.7404934168
outer loop
vertex 87.84441376 -49.23119354 14.48836422
vertex 83.72792816 -50.04985809 16.04040146
vertex 87.49086761 -49.70682526 14.9803896

endloop
endfacet
facet normal 0.1951223314 0.4881853759 0.8506481647
outer loop
vertex 87.49086761 -49.70682526 14.9803896
vertex 83.72792816 -50.04985809 16.04040146
vertex 82.71163177 -50.78833771 16.69733238

endloop
endfacet
facet normal -0.1559129804 0.9715967178 0.1780193001
outer loop
vertex 87.49086761 -49.70682526 14.9803896
vertex 82.71163177 -50.78833771 16.69733238
vertex 88.59679413 -49.87174225 16.8490696

endloop
endfacet
facet normal -0.1558805853 0.9698321223 0.1874218136
outer loop
vertex 88.59679413 -49.87174225 16.8490696
vertex 82.71163177 -50.78833771 16.69733238
vertex 84.06764984 -50.9467392 18.64480972

endloop
endfacet
facet normal -0.2434970587 0.9693095088 -0.03388619423
outer loop
vertex 88.59679413 -49.87175751 16.84906769
vertex 84.06761932 -50.9467392 18.64480782
vertex 90.64037323 -49.27616119 19.20140457

endloop
endfacet
facet normal -0.2556093931 0.9545018673 0.1535903066
outer loop
vertex 90.64037323 -49.27616119 19.20140457
vertex 84.06761932 -50.9467392 18.64480782
vertex 86.71770477 -50.64707184 21.19284439

endloop
endfacet
facet normal -0.4830578864 0.765955627 -0.4242253006
outer loop
vertex 90.64037323 -49.27616119 19.20140457
vertex 86.71770477 -50.64707184 21.19284439
vertex 92.12075043 -46.94524384 21.72428894

endloop
endfacet
facet normal -0.5644997954 0.8253714442 -0.0100949835
outer loop
vertex 92.12075043 -46.94524384 21.72428894
vertex 86.71770477 -50.64707184 21.19284439
vertex 88.7370224 -49.22986603 24.14647102

endloop
endfacet
facet normal -0.6490464807 0.728321135 -0.2197431475
outer loop
vertex 92.12075043 -46.94524384 21.72428894
vertex 88.7370224 -49.22986603 24.14647102
vertex 93.36489105 -44.44763947 26.327631

endloop
endfacet
facet normal -0.6734496355 0.7226746678 -0.1555857211
outer loop
vertex 93.36489105 -44.44763947 26.327631
vertex 88.7370224 -49.22986603 24.14647102
vertex 90.153862 -46.95087433 28.59931755

endloop
endfacet
facet normal -0.6897345185 0.6923120022 -0.212061882
outer loop
vertex 93.36489105 -44.44763947 26.327631
vertex 90.153862 -46.95087433 28.59931755
vertex 94.06206512 -41.74269867 32.89080048

endloop
endfacet
facet normal -0.6361919045 0.7154154181 -0.2888609171
outer loop
vertex 94.06206512 -41.74269867 32.89080048
vertex 90.153862 -46.95087433 28.59931755
vertex 90.52965546 -44.11481476 34.79566956

endloop
endfacet
facet normal -0.6517623067 0.6214449406 -0.4347552657
outer loop
vertex 94.06206512 -41.74269867 32.89080048
vertex 90.52965546 -44.11481476 34.79566956
vertex 93.6085434 -37.76064301 39.26269913

endloop
endfacet
facet normal -0.4853524268 0.6478969455 -0.5870797038
outer loop
vertex 93.6085434 -37.76064301 39.26269913
vertex 90.52965546 -44.11481476 34.79566956
vertex 89.30657196 -39.79073334 40.57884598

endloop
endfacet
facet normal -0.4753202498 0.5761971474 -0.6648816466
outer loop
vertex 93.6085434 -37.76064301 39.26269913
vertex 89.30657196 -39.79073334 40.57884598
vertex 92.23915863 -32.71416473 44.61502457

endloop
endfacet
facet normal -0.3482646048 0.569147706 -0.7448373437
outer loop
vertex 92.23915863 -32.71416473 44.61502457
vertex 89.30657196 -39.79073334 40.57884598
vertex 87.48586273 -34.61872101 45.38221359

endloop
endfacet
facet normal -0.3595093787 0.6142997742 -0.7024163008
outer loop
vertex 92.23915863 -32.71416473 44.61502457
vertex 87.48586273 -34.61872101 45.38221359
vertex 90.44655609 -27.92490387 49.72097015

endloop
endfacet
facet normal -0.487999469 0.6164037585 -0.6179828644
outer loop
vertex 90.44655609 -27.92490387 49.72097015
vertex 87.48586273 -34.61872101 45.38221359
vertex 86.42290497 -30.38712311 50.442379

endloop
endfacet
facet normal -0.4701655209 0.5711948872 -0.6728155017
outer loop
vertex 90.44655609 -27.92490387 49.72097015
vertex 86.42290497 -30.38712311 50.442379
vertex 88.05532074 -23.93067169 54.78292465

endloop
endfacet
facet normal -0.7253713608 0.500855267 -0.4722079039
outer loop
vertex 88.05532074 -23.93067169 54.78292465
vertex 86.42290497 -30.38712311 50.442379
vertex 85.40053558 -27.06742096 55.53396606

endloop
endfacet
facet normal -0.7363710999 0.519423306 -0.4335399866
outer loop
vertex 88.05532074 -23.93067169 54.78292465
vertex 85.40053558 -27.06742096 55.53396606
vertex 86.37340546 -21.35236359 60.72873688

endloop
endfacet
facet normal -0.8169825673 0.4578028023 -0.350650996
outer loop
vertex 86.37340546 -21.35236359 60.72873688
vertex 85.40053558 -27.06742096 55.53396606
vertex 84.09889984 -25.17281342 61.04021072

endloop
endfacet
facet normal -0.4889937043 0.2223559916 -0.8434708118
outer loop
vertex 86.37340546 -21.35236359 60.72873688
vertex 84.09889984 -25.17281342 61.04021072
vertex 82.58315277 -18.81151581 63.59591675

endloop
endfacet
facet normal -0.4495113492 0.2387201339 -0.8607858419
outer loop
vertex 82.58315277 -18.81151581 63.59591675
vertex 84.09889984 -25.17281342 61.04021072
vertex 80.42208099 -23.05619049 63.54728317

endloop
endfacet
facet normal -0.0099289231 0.01651049033 -0.9998144507
outer loop
vertex 82.58315277 -18.81151581 63.59591675
vertex 80.42208099 -23.05619049 63.54728317
vertex 74.46044159 -15.59958553 63.72962189

endloop
endfacet
facet normal 0.03689033166 0.05389533937 -0.997864902
outer loop
vertex 74.46044159 -15.59958553 63.72962189
vertex 80.42208099 -23.05619049 63.54728317
vertex 72.76848602 -20.37448883 63.40917587

endloop
endfacet
facet normal 0.9427829981 -0.3320586681 -0.02995487675
outer loop
vertex 74.46044159 -15.59958553 63.72962189
vertex 72.76848602 -20.37448883 63.40917587
vertex 74.52840424 -14.7778244 56.75917435

endloop
endfacet
facet normal 0.9679968953 0 0.250962168
outer loop
vertex 74.52840424 -14.7778244 56.75917435
vertex 72.76848602 -20.37448883 63.40917587
vertex 74.52840424 -14.77783966 56.75917435

endloop
endfacet
facet normal 0.3205420375 -0.9472343326 0
outer loop
vertex 81.83080292 -50.69184113 9.712784767
vertex 81.83080292 -50.69184113 9.712783813
vertex 83.72792816 -50.04985809 16.04040146

endloop
endfacet
facet normal -0.4052886069 0.9137347937 0.02880720422
outer loop
vertex 83.72792816 -50.04985809 16.04040146
vertex 81.83080292 -50.69184113 9.712783813
vertex 80.76900482 -51.38248444 16.68083763

endloop
endfacet
facet normal -0.2533542812 0.8138515949 0.522931397
outer loop
vertex 83.72792816 -50.04985809 16.04040146
vertex 80.76900482 -51.38248444 16.68083763
vertex 82.71163177 -50.78833771 16.69733238

endloop
endfacet
facet normal -0.2549154162 0.8192115426 0.5137223005
outer loop
vertex 82.71163177 -50.78833771 16.69733238
vertex 80.76900482 -51.38248444 16.68083763
vertex 81.17144012 -53.1593399 19.71400833

endloop
endfacet
facet normal -0.4646513462 0.7958326936 0.3882647157
outer loop
vertex 82.71163177 -50.78833771 16.69733238
vertex 81.17144012 -53.1593399 19.71400833
vertex 84.06764984 -50.9467392 18.64480972

endloop
endfacet
facet normal -0.6467087865 0.6988191605 -0.3056462705
outer loop
vertex 84.06764984 -50.9467392 18.64480972
vertex 81.17144012 -53.1593399 19.71400833
vertex 81.13726044 -52.55493927 21.16820908

endloop
endfacet
facet normal -0.3164076805 0.9226233363 0.2205726951
outer loop
vertex 84.06761932 -50.9467392 18.64480782
vertex 81.13722992 -52.55496979 21.16820908
vertex 86.71770477 -50.64707184 21.19284439

endloop
endfacet
facet normal -0.2413005978 0.7142710686 -0.6569558382
outer loop
vertex 86.71770477 -50.64707184 21.19284439
vertex 81.13722992 -52.55496979 21.16820908
vertex 82.02492523 -50.82863617 22.71910286

endloop
endfacet
facet normal -0.1477363557 0.9272995591 -0.3439323604
outer loop
vertex 86.71770477 -50.64707184 21.19284439
vertex 82.02492523 -50.82863617 22.71910286
vertex 88.7370224 -49.22986603 24.14647102

endloop
endfacet
facet normal -0.2260126472 0.9737263322 -0.02784534171
outer loop
vertex 88.7370224 -49.22986603 24.14647102
vertex 82.02492523 -50.82863617 22.71910286
vertex 84.35430145 -50.19217682 26.06862831

endloop
endfacet
facet normal -0.3414591253 0.8763037324 -0.3398491442
outer loop
vertex 88.7370224 -49.22986603 24.14647102
vertex 84.35430145 -50.19217682 26.06862831
vertex 90.153862 -46.95087433 28.59931755

endloop
endfacet
facet normal -0.389218092 0.8878974915 -0.2452495992
outer loop
vertex 90.153862 -46.95087433 28.59931755
vertex 84.35430145 -50.19217682 26.06862831
vertex 85.69411469 -48.37152863 30.53375053

endloop
endfacet
facet normal -0.4203961194 0.8344087005 -0.3564114273
outer loop
vertex 90.153862 -46.95087433 28.59931755
vertex 85.69411469 -48.37152863 30.53375053
vertex 90.52965546 -44.11481476 34.79566956

endloop
endfacet
facet normal -0.3648542762 0.8323000073 -0.4173226058
outer loop
vertex 90.52965546 -44.11481476 34.79566956
vertex 85.69411469 -48.37152863 30.53375053
vertex 85.8877182 -45.41709137 36.25675964

endloop
endfacet
facet normal -0.3857308626 0.6979252696 -0.6034169793
outer loop
vertex 90.52965546 -44.11481476 34.79566956
vertex 85.8877182 -45.41709137 36.25675964
vertex 89.30657196 -39.79073334 40.57884598

endloop
endfacet
facet normal -0.4312718213 0.6996522546 -0.5696414113
outer loop
vertex 89.30657196 -39.79073334 40.57884598
vertex 85.8877182 -45.41709137 36.25675964
vertex 85.25630951 -41.31269073 41.7759552

endloop
endfacet
facet normal -0.4180094302 0.5348283052 -0.7343207002
outer loop
vertex 89.30657196 -39.79073334 40.57884598
vertex 85.25630951 -41.31269073 41.7759552
vertex 87.48586273 -34.61872101 45.38221359

endloop
endfacet
facet normal -0.7204101682 0.4992815554 -0.4813805521
outer loop
vertex 87.48586273 -34.61872101 45.38221359
vertex 85.25630951 -41.31269073 41.7759552
vertex 84.62926483 -37.15503693 47.02662277

endloop
endfacet
facet normal -0.7124543786 0.4573969841 -0.5321622491
outer loop
vertex 87.48586273 -34.61872101 45.38221359
vertex 84.62926483 -37.15503693 47.02662277
vertex 86.42290497 -30.38712311 50.442379

endloop
endfacet
facet normal -0.9101305604 0.3517234623 -0.2189815044
outer loop
vertex 86.42290497 -30.38712311 50.442379
vertex 84.62926483 -37.15503693 47.02662277
vertex 84.42119598 -34.11840057 52.76877975

endloop
endfacet
facet normal -0.898486495 0.2627238631 -0.3517076373
outer loop
vertex 86.42290497 -30.38712311 50.442379
vertex 84.42119598 -34.11840057 52.76877975
vertex 85.40053558 -27.06742096 55.53396606

endloop
endfacet
facet normal -0.887519002 0.2697649896 -0.3735462725
outer loop
vertex 85.40053558 -27.06742096 55.53396606
vertex 84.42119598 -34.11840057 52.76877975
vertex 83.40633392 -31.11638641 57.34799194

endloop
endfacet
facet normal -0.8995271325 0.3013179004 -0.3163200915
outer loop
vertex 85.40053558 -27.06742096 55.53396606
vertex 83.40633392 -31.11638641 57.34799194
vertex 84.09889984 -25.17281342 61.04021072

endloop
endfacet
facet normal -0.6638519168 0.448924154 -0.5981369019
outer loop
vertex 84.09889984 -25.17281342 61.04021072
vertex 83.40633392 -31.11638641 57.34799194
vertex 81.47277069 -28.9234848 61.13984299

endloop
endfacet
facet normal -0.4276202619 0.276548028 -0.8606173396
outer loop
vertex 84.09889984 -25.17281342 61.04021072
vertex 81.47277069 -28.9234848 61.13984299
vertex 80.42208099 -23.05619049 63.54728317

endloop
endfacet
facet normal -0.3651443422 0.2966787517 -0.8824122548
outer loop
vertex 80.42208099 -23.05619049 63.54728317
vertex 81.47277069 -28.9234848 61.13984299
vertex 77.7453537 -27.28574371 63.23288727

endloop
endfacet
facet normal 0.03601653129 0.05139307678 -0.9980288148
outer loop
vertex 80.42208099 -23.05619049 63.54728317
vertex 77.7453537 -27.28574371 63.23288727
vertex 72.76848602 -20.37448883 63.40917587

endloop
endfacet
facet normal 0.1165629476 0.1091184393 -0.9871708155
outer loop
vertex 72.76848602 -20.37448883 63.40917587
vertex 77.7453537 -27.28574371 63.23288727
vertex 71.55287933 -25.34589386 62.71611786

endloop
endfacet
facet normal 0.9684528112 -0.2439182401 0.05101845041
outer loop
vertex 72.76848602 -20.37448883 63.40917587
vertex 71.55287933 -25.34589386 62.71611786
vertex 74.52840424 -14.77783966 56.75917435

endloop
endfacet
facet normal 0.9751328826 -0.221621111 0
outer loop
vertex 74.52840424 -14.77783966 56.75917435
vertex 71.55287933 -25.34589386 62.71611786
vertex 74.52840424 -14.77783966 56.75917053

endloop
endfacet
facet normal -0.5452517271 0.8382723927 0
outer loop
vertex 81.83080292 -50.69184113 9.712783813
vertex 81.83080292 -50.69184113 9.71278286
vertex 80.76900482 -51.38248444 16.68083763

endloop
endfacet
facet normal -0.03604706004 0.9950014949 0.09312734008
outer loop
vertex 80.76900482 -51.38248444 16.68083763
vertex 81.83080292 -50.69184113 9.71278286
vertex 77.48958588 -51.47646332 16.41556358

endloop
endfacet
facet normal -0.06588675827 0.8571360707 0.5108588934
outer loop
vertex 80.76900482 -51.38248444 16.68083763
vertex 77.48958588 -51.47646332 16.41556358
vertex 81.17144012 -53.1593399 19.71400833

endloop
endfacet
facet normal -0.07256636769 0.8532945514 0.5163549781
outer loop
vertex 81.17144012 -53.1593399 19.71400833
vertex 77.48958588 -51.47646332 16.41556358
vertex 77.87957001 -53.83002472 20.3597126

endloop
endfacet
facet normal -0.2552586198 0.8906872272 -0.376190573
outer loop
vertex 81.17144012 -53.1593399 19.71400833
vertex 77.87957001 -53.83002472 20.3597126
vertex 81.13726044 -52.55493927 21.16820908

endloop
endfacet
facet normal -0.3859425783 0.91585958 0.1106773764
outer loop
vertex 81.13726044 -52.55493927 21.16820908
vertex 77.87957001 -53.83002472 20.3597126
vertex 77.83043671 -54.19760895 23.23015404

endloop
endfacet
facet normal -0.5994631052 0.6830637455 -0.4172144234
outer loop
vertex 81.13722992 -52.55496979 21.16820908
vertex 77.83043671 -54.19760895 23.23015404
vertex 82.02492523 -50.82863617 22.71910286

endloop
endfacet
facet normal -0.5815044641 0.6497235894 -0.4896037579
outer loop
vertex 82.02492523 -50.82863617 22.71910286
vertex 77.83043671 -54.19760895 23.23015404
vertex 78.3788681 -52.35433197 25.02488136

endloop
endfacet
facet normal -0.3496246338 0.9345936179 0.06555448472
outer loop
vertex 82.02492523 -50.82863617 22.71910286
vertex 78.3788681 -52.35433197 25.02488136
vertex 84.35430145 -50.19217682 26.06862831

endloop
endfacet
facet normal -0.2410343885 0.8719009161 -0.4262526929
outer loop
vertex 84.35430145 -50.19217682 26.06862831
vertex 78.3788681 -52.35433197 25.02488136
vertex 79.95464325 -50.56989288 27.7838974

endloop
endfacet
facet normal -0.2030650675 0.9264858961 -0.3168414235
outer loop
vertex 84.35430145 -50.19217682 26.06862831
vertex 79.95464325 -50.56989288 27.7838974
vertex 85.69411469 -48.37152863 30.53375053

endloop
endfacet
facet normal -0.1282357126 0.8877664804 -0.4420704544
outer loop
vertex 85.69411469 -48.37152863 30.53375053
vertex 79.95464325 -50.56989288 27.7838974
vertex 80.96199799 -48.42891693 31.79119492

endloop
endfacet
facet normal -0.1306266338 0.8827616572 -0.4512965381
outer loop
vertex 85.69411469 -48.37152863 30.53375053
vertex 80.96199799 -48.42891693 31.79119492
vertex 85.8877182 -45.41709137 36.25675964

endloop
endfacet
facet normal -0.183032617 0.8967457414 -0.4029219747
outer loop
vertex 85.8877182 -45.41709137 36.25675964
vertex 80.96199799 -48.42891693 31.79119492
vertex 81.35164642 -45.90387726 37.23393631

endloop
endfacet
facet normal -0.2118663192 0.7724577785 -0.5986832976
outer loop
vertex 85.8877182 -45.41709137 36.25675964
vertex 81.35164642 -45.90387726 37.23393631
vertex 85.25630951 -41.31269073 41.7759552

endloop
endfacet
facet normal -0.4200929403 0.7932765484 -0.4407201111
outer loop
vertex 85.25630951 -41.31269073 41.7759552
vertex 81.35164642 -45.90387726 37.23393631
vertex 81.40776825 -42.73863983 42.87772751

endloop
endfacet
facet normal -0.4235095978 0.6849076748 -0.5929090381
outer loop
vertex 85.25630951 -41.31269073 41.7759552
vertex 81.40776825 -42.73863983 42.87772751
vertex 84.62926483 -37.15503693 47.02662277

endloop
endfacet
facet normal -0.5706748366 0.6758430004 -0.4664402604
outer loop
vertex 84.62926483 -37.15503693 47.02662277
vertex 81.40776825 -42.73863983 42.87772751
vertex 81.24925995 -39.2385025 48.14313889

endloop
endfacet
facet normal -0.5730448961 0.715696156 -0.3992474675
outer loop
vertex 84.62926483 -37.15503693 47.02662277
vertex 81.24925995 -39.2385025 48.14313889
vertex 84.42119598 -34.11840057 52.76877975

endloop
endfacet
facet normal -0.4362308681 0.736851275 -0.5164812803
outer loop
vertex 84.42119598 -34.11840057 52.76877975
vertex 81.24925995 -39.2385025 48.14313889
vertex 80.76491547 -36.05953217 53.08758545

endloop
endfacet
facet normal -0.4260182679 0.7104408741 -0.5601626635
outer loop
vertex 84.42119598 -34.11840057 52.76877975
vertex 80.76491547 -36.05953217 53.08758545
vertex 83.40633392 -31.11638641 57.34799194

endloop
endfacet
facet normal -0.278388232 0.7080741525 -0.6489460468
outer loop
vertex 83.40633392 -31.11638641 57.34799194
vertex 80.76491547 -36.05953217 53.08758545
vertex 79.68749237 -33.195961 56.67426682

endloop
endfacet
facet normal -0.3102508783 0.7457990646 -0.5895151496
outer loop
vertex 83.40633392 -31.11638641 57.34799194
vertex 79.68749237 -33.195961 56.67426682
vertex 81.47277069 -28.9234848 61.13984299

endloop
endfacet
facet normal -0.1361986995 0.7424573302 -0.6559016109
outer loop
vertex 81.47277069 -28.9234848 61.13984299
vertex 79.68749237 -33.195961 56.67426682
vertex 78.04659271 -31.1614151 59.31803513

endloop
endfacet
facet normal -0.08582971245 0.7047216892 -0.7042731047
outer loop
vertex 81.47277069 -28.9234848 61.13984299
vertex 78.04659271 -31.1614151 59.31803513
vertex 77.7453537 -27.28574371 63.23288727

endloop
endfacet
facet normal -0.038983576 0.708612442 -0.7045201659
outer loop
vertex 77.7453537 -27.28574371 63.23288727
vertex 78.04659271 -31.1614151 59.31803513
vertex 75.3358078 -29.85967255 60.77733612

endloop
endfacet
facet normal 0.2377428114 0.544687748 -0.8042348027
outer loop
vertex 77.7453537 -27.28574371 63.23288727
vertex 75.3358078 -29.85967255 60.77733612
vertex 71.55287933 -25.34589386 62.71611786

endloop
endfacet
facet normal 0.3417771161 0.5978758931 -0.7250743508
outer loop
vertex 71.55287933 -25.34589386 62.71611786
vertex 75.3358078 -29.85967255 60.77733612
vertex 71.23204803 -28.43701935 60.01603317

endloop
endfacet
facet normal 0.9712059498 -0.2057364136 0.1201309636
outer loop
vertex 71.55287933 -25.34589386 62.71611786
vertex 71.23204803 -28.43701935 60.01603317
vertex 74.52840424 -14.77783966 56.75917053

endloop
endfacet
facet normal 0.8957490921 -0.1078216434 0.4312865734
outer loop
vertex 74.52840424 -14.77783966 56.75917053
vertex 71.23204803 -28.43701935 60.01603317
vertex 74.52840424 -14.77785492 56.75916672

endloop
endfacet
facet normal 0.1778562516 -0.9840565324 0
outer loop
vertex 81.83080292 -50.69184113 9.71278286
vertex 81.83080292 -50.69184113 9.712784767
vertex 77.48958588 -51.47646332 16.41556358

endloop
endfacet
facet normal -0.03334709629 0.9949311018 0.09486782551
outer loop
vertex 77.48958588 -51.47646332 16.41556358
vertex 81.83080292 -50.69184113 9.712784767
vertex 72.5462265 -51.84282684 18.52017403

endloop
endfacet
facet normal 0.147748515 0.8556676507 0.4959869981
outer loop
vertex 77.48958588 -51.47646332 16.41556358
vertex 72.5462265 -51.84282684 18.52017403
vertex 77.87957001 -53.83002472 20.3597126

endloop
endfacet
facet normal 0.08349590003 0.7883425951 0.6095443964
outer loop
vertex 77.87957001 -53.83002472 20.3597126
vertex 72.5462265 -51.84282684 18.52017403
vertex 73.06752777 -53.87772369 21.08056068

endloop
endfacet
facet normal 0.009218814783 0.9918379188 0.1271710098
outer loop
vertex 77.87957001 -53.83002472 20.3597126
vertex 73.06752777 -53.87772369 21.08056068
vertex 77.83043671 -54.19760895 23.23015404

endloop
endfacet
facet normal 0.05151456594 0.9980801344 0.03438415378
outer loop
vertex 77.83043671 -54.19760895 23.23015404
vertex 73.06752777 -53.87772369 21.08056068
vertex 73.53798676 -53.9943924 23.76229668

endloop
endfacet
facet normal -0.054315947 0.7048275471 -0.7072961926
outer loop
vertex 77.83043671 -54.19760895 23.23015404
vertex 73.53798676 -53.9943924 23.76229477
vertex 78.3788681 -52.35433197 25.02488136

endloop
endfacet
facet normal -0.1018787399 0.7779861093 -0.6199664474
outer loop
vertex 78.3788681 -52.35433197 25.02488136
vertex 73.53798676 -53.9943924 23.76229477
vertex 74.34145355 -52.09127045 26.01845932

endloop
endfacet
facet normal -0.07051139325 0.8554750681 -0.5130209923
outer loop
vertex 78.3788681 -52.35433197 25.02488136
vertex 74.34145355 -52.09127045 26.01845932
vertex 79.95464325 -50.56989288 27.7838974

endloop
endfacet
facet normal 0.0550561361 0.6631128192 -0.7464920282
outer loop
vertex 79.95464325 -50.56989288 27.7838974
vertex 74.34145355 -52.09127045 26.01845932
vertex 75.58800507 -49.3963089 28.50434494

endloop
endfacet
facet normal 0.1484883875 0.8562343717 -0.4947867095
outer loop
vertex 79.95464325 -50.56989288 27.7838974
vertex 75.58800507 -49.3963089 28.50434494
vertex 80.96199799 -48.42891693 31.79119492

endloop
endfacet
facet normal 0.2370575368 0.7560271025 -0.6101039052
outer loop
vertex 80.96199799 -48.42891693 31.79119492
vertex 75.58800507 -49.3963089 28.50434494
vertex 76.72475433 -46.89664459 32.04356003

endloop
endfacet
facet normal 0.2863917351 0.8611444831 -0.4200118482
outer loop
vertex 80.96199799 -48.42891693 31.79119492
vertex 76.72475433 -46.89664459 32.04356003
vertex 81.35164642 -45.90387726 37.23393631

endloop
endfacet
facet normal 0.2597594559 0.8790706396 -0.3996996582
outer loop
vertex 81.35164642 -45.90387726 37.23393631
vertex 76.72475433 -46.89664459 32.04356003
vertex 77.39315033 -44.78079987 37.13137817

endloop
endfacet
facet normal 0.2515105903 0.8430889249 -0.4753350914
outer loop
vertex 81.35164642 -45.90387726 37.23393631
vertex 77.39315033 -44.78079987 37.13137817
vertex 81.40776825 -42.73863983 42.87772751

endloop
endfacet
facet normal 0.09988618642 0.9134845734 -0.3944219947
outer loop
vertex 81.40776825 -42.73863983 42.87772751
vertex 77.39315033 -44.78079987 37.13137817
vertex 77.59377289 -42.42093658 42.64764786

endloop
endfacet
facet normal 0.1022169739 0.8298433423 -0.5485541224
outer loop
vertex 81.40776825 -42.73863983 42.87772751
vertex 77.59377289 -42.42093658 42.64764786
vertex 81.24925995 -39.2385025 48.14313889

endloop
endfacet
facet normal 0.02987148799 0.856238246 -0.5157167912
outer loop
vertex 81.24925995 -39.2385025 48.14313889
vertex 77.59377289 -42.42093658 42.64764786
vertex 77.31734467 -39.43755341 47.58491135

endloop
endfacet
facet normal 0.03376930207 0.8421695232 -0.5381544232
outer loop
vertex 81.24925995 -39.2385025 48.14313889
vertex 77.31734467 -39.43755341 47.58491135
vertex 80.76491547 -36.05953217 53.08758545

endloop
endfacet
facet normal 0.163011983 0.7920134068 -0.5883382559
outer loop
vertex 80.76491547 -36.05953217 53.08758545
vertex 77.31734467 -39.43755341 47.58491135
vertex 76.60878754 -36.24965668 51.68009567

endloop
endfacet
facet normal 0.1619532406 0.7943139672 -0.5855224729
outer loop
vertex 80.76491547 -36.05953217 53.08758545
vertex 76.60878754 -36.24965668 51.68009567
vertex 79.68749237 -33.195961 56.67426682

endloop
endfacet
facet normal 0.256559521 0.7461313605 -0.6143820286
outer loop
vertex 79.68749237 -33.195961 56.67426682
vertex 76.60878754 -36.24965668 51.68009567
vertex 75.82128143 -33.61624908 54.54936218

endloop
endfacet
facet normal 0.1949652582 0.8320509195 -0.5193070173
outer loop
vertex 79.68749237 -33.195961 56.67426682
vertex 75.82128143 -33.61624908 54.54936218
vertex 78.04659271 -31.1614151 59.31803513

endloop
endfacet
facet normal 0.2892377675 0.7894638181 -0.5413763523
outer loop
vertex 78.04659271 -31.1614151 59.31803513
vertex 75.82128143 -33.61624908 54.54936218
vertex 74.87749481 -31.89919281 56.54903412

endloop
endfacet
facet normal 0.1828795224 0.8776031137 -0.4431341887
outer loop
vertex 78.04659271 -31.1614151 59.31803513
vertex 74.87749481 -31.89919281 56.54903412
vertex 75.3358078 -29.85967255 60.77733612

endloop
endfacet
facet normal 0.3027901053 0.8451589346 -0.4404821396
outer loop
vertex 75.3358078 -29.85967255 60.77733612
vertex 74.87749481 -31.89919281 56.54903412
vertex 73.43700409 -30.8854599 57.50389481

endloop
endfacet
facet normal 0.3657598794 0.8063166738 -0.4648366868
outer loop
vertex 75.3358078 -29.85967255 60.77733612
vertex 73.43700409 -30.8854599 57.50389481
vertex 71.23204803 -28.43701935 60.01603317

endloop
endfacet
facet normal 0.4837614 0.799944818 -0.3550539613
outer loop
vertex 71.23204803 -28.43701935 60.01603317
vertex 73.43700409 -30.8854599 57.50389481
vertex 71.29589081 -29.88401031 56.84291458

endloop
endfacet
facet normal 0.9716086388 -0.2072787434 0.1140709445
outer loop
vertex 71.23204803 -28.43701935 60.01603317
vertex 71.29589081 -29.88401031 56.84291458
vertex 74.52840424 -14.77785492 56.75916672

endloop
endfacet
facet normal -0.515961647 0.1057465896 -0.8500595689
outer loop
vertex 74.52840424 -14.77785492 56.75916672
vertex 71.29589081 -29.88401031 56.84291458
vertex 74.52840424 -14.7778244 56.75917053

endloop
endfacet
facet normal 0.6882170439 0 0.7255048752
outer loop
vertex 81.83080292 -50.69184113 9.712784767
vertex 81.83080292 -50.69182587 9.712784767
vertex 72.5462265 -51.84282684 18.52017403

endloop
endfacet
facet normal -0.073212713 0.995908618 0.0529717803
outer loop
vertex 72.5462265 -51.84282684 18.52017403
vertex 81.83080292 -50.69182587 9.712784767
vertex 68.10927582 -52.2078476 19.2504921

endloop
endfacet
facet normal 0.03692092374 0.785979569 0.6171491146
outer loop
vertex 72.5462265 -51.84282684 18.52017403
vertex 68.10927582 -52.2078476 19.2504921
vertex 73.06752777 -53.87772369 21.08056068

endloop
endfacet
facet normal 0.09321039915 0.8481974602 0.5214142799
outer loop
vertex 73.06752777 -53.87772369 21.08056068
vertex 68.10927582 -52.2078476 19.2504921
vertex 68.77986908 -53.16651154 20.6900959

endloop
endfacet
facet normal 0.1623410136 0.9866289496 0.01444360428
outer loop
vertex 73.06752777 -53.87772369 21.08056068
vertex 68.77986908 -53.16651154 20.6900959
vertex 73.53798676 -53.9943924 23.76229668

endloop
endfacet
facet normal 0.4571697414 0.7271519899 -0.5120993257
outer loop
vertex 73.53798676 -53.9943924 23.76229668
vertex 68.77986908 -53.16651154 20.6900959
vertex 69.47045135 -52.13594818 22.76994514

endloop
endfacet
facet normal 0.4383537471 0.6040065885 -0.6655989885
outer loop
vertex 73.53798676 -53.9943924 23.76229477
vertex 69.47045135 -52.13594818 22.76994514
vertex 74.34145355 -52.09127045 26.01845932

endloop
endfacet
facet normal 0.4647421837 0.5367106199 -0.7042417526
outer loop
vertex 74.34145355 -52.09127045 26.01845932
vertex 69.47045135 -52.13594818 22.76994514
vertex 70.53340912 -49.72202301 25.31109047

endloop
endfacet
facet normal 0.4434037209 0.4882548451 -0.751665175
outer loop
vertex 74.34145355 -52.09127045 26.01845932
vertex 70.53340912 -49.72202301 25.31109047
vertex 75.58800507 -49.3963089 28.50434494

endloop
endfacet
facet normal 0.4667052627 0.4148784876 -0.7810646892
outer loop
vertex 75.58800507 -49.3963089 28.50434494
vertex 70.53340912 -49.72202301 25.31109047
vertex 72.12783051 -46.67803192 27.88067436

endloop
endfacet
facet normal 0.5618616939 0.5798445344 -0.5899931192
outer loop
vertex 75.58800507 -49.3963089 28.50434494
vertex 72.12783051 -46.67803192 27.88067436
vertex 76.72475433 -46.89664459 32.04356003

endloop
endfacet
facet normal 0.5881845355 0.5163975954 -0.622392416
outer loop
vertex 76.72475433 -46.89664459 32.04356003
vertex 72.12783051 -46.67803192 27.88067436
vertex 73.56975555 -44.170784 31.32360649

endloop
endfacet
facet normal 0.6553813219 0.6629968286 -0.361815691
outer loop
vertex 76.72475433 -46.89664459 32.04356003
vertex 73.56975555 -44.170784 31.32360649
vertex 77.39315033 -44.78079987 37.13137817

endloop
endfacet
facet normal 0.6615163684 0.654112339 -0.3667877018
outer loop
vertex 77.39315033 -44.78079987 37.13137817
vertex 73.56975555 -44.170784 31.32360649
vertex 74.39586639 -42.32784271 36.10014725

endloop
endfacet
facet normal 0.6636578441 0.6787146926 -0.3144912422
outer loop
vertex 77.39315033 -44.78079987 37.13137817
vertex 74.39586639 -42.32784271 36.10014725
vertex 77.59377289 -42.42093658 42.64764786

endloop
endfacet
facet normal 0.6393976808 0.7069805264 -0.3022403121
outer loop
vertex 77.59377289 -42.42093658 42.64764786
vertex 74.39586639 -42.32784271 36.10014725
vertex 74.55739594 -40.32021332 41.13798141

endloop
endfacet
facet normal 0.6458002925 0.6689380407 -0.3680543303
outer loop
vertex 77.59377289 -42.42093658 42.64764786
vertex 74.55739594 -40.32021332 41.13798141
vertex 77.31734467 -39.43755341 47.58491135

endloop
endfacet
facet normal 0.6085743904 0.7083905339 -0.3575193286
outer loop
vertex 77.31734467 -39.43755341 47.58491135
vertex 74.55739594 -40.32021332 41.13798141
vertex 74.18471527 -37.80135345 45.49448013

endloop
endfacet
facet normal 0.6222468615 0.6662577391 -0.4109859765
outer loop
vertex 77.31734467 -39.43755341 47.58491135
vertex 74.18471527 -37.80135345 45.49448013
vertex 76.60878754 -36.24965668 51.68009567

endloop
endfacet
facet normal 0.5864443779 0.7010705471 -0.4056883752
outer loop
vertex 76.60878754 -36.24965668 51.68009567
vertex 74.18471527 -37.80135345 45.49448013
vertex 73.50774384 -35.16591644 49.0701828

endloop
endfacet
facet normal 0.6040607691 0.6627900004 -0.4425154328
outer loop
vertex 76.60878754 -36.24965668 51.68009567
vertex 73.50774384 -35.16591644 49.0701828
vertex 75.82128143 -33.61624908 54.54936218

endloop
endfacet
facet normal 0.6172298789 0.6493447423 -0.4442732334
outer loop
vertex 75.82128143 -33.61624908 54.54936218
vertex 73.50774384 -35.16591644 49.0701828
vertex 72.89003754 -32.7458725 51.74911118

endloop
endfacet
facet normal 0.567953229 0.7375683784 -0.3652697802
outer loop
vertex 75.82128143 -33.61624908 54.54936218
vertex 72.89003754 -32.7458725 51.74911118
vertex 74.87749481 -31.89919281 56.54903412

endloop
endfacet
facet normal 0.6631516218 0.6403468251 -0.3875383437
outer loop
vertex 74.87749481 -31.89919281 56.54903412
vertex 72.89003754 -32.7458725 51.74911118
vertex 72.4743576 -31.26042938 53.49226761

endloop
endfacet
facet normal 0.4751804173 0.8581807017 -0.1942409575
outer loop
vertex 74.87749481 -31.89919281 56.54903412
vertex 72.4743576 -31.26042938 53.49226761
vertex 73.43700409 -30.8854599 57.50389481

endloop
endfacet
facet normal 0.6803951859 0.6963578463 -0.2283594459
outer loop
vertex 73.43700409 -30.8854599 57.50389481
vertex 72.4743576 -31.26042938 53.49226761
vertex 72.07857513 -30.64557648 54.18796539

endloop
endfacet
facet normal 0.4509132206 0.8843627572 -0.1207473278
outer loop
vertex 73.43700409 -30.8854599 57.50389481
vertex 72.07857513 -30.64557648 54.18796539
vertex 71.29589081 -29.88401031 56.84291458

endloop
endfacet
facet normal 0.7015870214 0.7125796676 0.002427386586
outer loop
vertex 71.29589081 -29.88401031 56.84291458
vertex 72.07857513 -30.64557648 54.18796539
vertex 71.55675507 -30.13063812 53.84503174

endloop
endfacet
facet normal 0.9729037285 -0.2076238543 0.1017390192
outer loop
vertex 71.29589081 -29.88401031 56.84291458
vertex 71.55675507 -30.13063812 53.84503174
vertex 74.52840424 -14.7778244 56.75917053

endloop
endfacet
facet normal -0.9805806875 0.1961161345 0
outer loop
vertex 74.52840424 -14.7778244 56.75917053
vertex 71.55675507 -30.13063812 53.84503174
vertex 74.52840424 -14.7778244 56.75917435

endloop
endfacet
facet normal -0.5738080144 0.05108717829 -0.8173948526
outer loop
vertex 81.83080292 -50.69182587 9.712784767
vertex 81.83080292 -50.69184113 9.712783813
vertex 68.10927582 -52.2078476 19.2504921

endloop
endfacet
facet normal -0.03010216169 0.9929643273 0.114523612
outer loop
vertex 68.10927582 -52.2078476 19.2504921
vertex 81.83080292 -50.69184113 9.712783813
vertex 65.61843109 -51.90973663 16.01104355

endloop
endfacet
facet normal -0.7166210413 0.3784690797 0.5858458877
outer loop
vertex 68.10927582 -52.2078476 19.2504921
vertex 65.61843109 -51.90973663 16.01104355
vertex 68.77986908 -53.16651154 20.6900959

endloop
endfacet
facet normal 0.8002280593 0.420265913 -0.4277985692
outer loop
vertex 68.77986908 -53.16651154 20.6900959
vertex 65.61843109 -51.90973663 16.01104355
vertex 66.02498627 -51.06858063 17.59787941

endloop
endfacet
facet normal 0.8034344316 0.3824838102 -0.4562885761
outer loop
vertex 68.77986908 -53.16651154 20.6900959
vertex 66.02498627 -51.06858063 17.59787941
vertex 69.47045135 -52.13594818 22.76994514

endloop
endfacet
facet normal 0.8235669732 0.2865991592 -0.4894880652
outer loop
vertex 69.47045135 -52.13594818 22.76994514
vertex 66.02498627 -51.06858063 17.59787941
vertex 66.87078094 -49.03229523 20.2131958

endloop
endfacet
facet normal 0.8057386279 0.2228605747 -0.5487426519
outer loop
vertex 69.47045135 -52.13594818 22.76994514
vertex 66.87075043 -49.03229523 20.2131958
vertex 70.53340912 -49.72202301 25.31109047

endloop
endfacet
facet normal 0.8138233423 0.1215468496 -0.5682587028
outer loop
vertex 70.53340912 -49.72202301 25.31109047
vertex 66.87075043 -49.03229523 20.2131958
vertex 68.47686005 -45.99800873 23.1623764

endloop
endfacet
facet normal 0.7938997149 0.09158866853 -0.6011112332
outer loop
vertex 70.53340912 -49.72202301 25.31109047
vertex 68.47686005 -45.99800873 23.1623764
vertex 72.12783051 -46.67803192 27.88067436

endloop
endfacet
facet normal 0.7920238972 0.01835915446 -0.610213995
outer loop
vertex 72.12783051 -46.67803192 27.88067436
vertex 68.47686005 -45.99800873 23.1623764
vertex 70.50691986 -42.65903473 25.89773941

endloop
endfacet
facet normal 0.8785141706 0.1271117479 -0.4604947269
outer loop
vertex 72.12783051 -46.67803192 27.88067436
vertex 70.50691986 -42.65903473 25.89773941
vertex 73.56975555 -44.170784 31.32360649

endloop
endfacet
facet normal 0.8784508109 0.1165804714 -0.4633931518
outer loop
vertex 73.56975555 -44.170784 31.32360649
vertex 70.50691986 -42.65903473 25.89773941
vertex 72.06368256 -40.2299118 29.46000099

endloop
endfacet
facet normal 0.93742764 0.2381351888 -0.2540098727
outer loop
vertex 73.56975555 -44.170784 31.32360649
vertex 72.06368256 -40.2299118 29.46000099
vertex 74.39586639 -42.32784271 36.10014725

endloop
endfacet
facet normal 0.9317020178 0.2712883651 -0.2415241897
outer loop
vertex 74.39586639 -42.32784271 36.10014725
vertex 72.06368256 -40.2299118 29.46000099
vertex 72.81517792 -38.69286346 34.08543015

endloop
endfacet
facet normal 0.934538126 0.3192625046 -0.1571938097
outer loop
vertex 74.39586639 -42.32784271 36.10014725
vertex 72.81517792 -38.69286346 34.08543015
vertex 74.55739594 -40.32021332 41.13798141

endloop
endfacet
facet normal 0.9305003285 0.3327700198 -0.1530795097
outer loop
vertex 74.55739594 -40.32021332 41.13798141
vertex 72.81517792 -38.69286346 34.08543015
vertex 72.91182709 -36.87822723 38.61764145

endloop
endfacet
facet normal 0.9275568724 0.3523721993 -0.1243874058
outer loop
vertex 74.55739594 -40.32021332 41.13798141
vertex 72.91182709 -36.87822723 38.61764145
vertex 74.18471527 -37.80135345 45.49448013

endloop
endfacet
facet normal 0.8909867406 0.4415673912 -0.1056450605
outer loop
vertex 74.18471527 -37.80135345 45.49448013
vertex 72.91182709 -36.87822723 38.61764145
vertex 72.22939301 -34.60070038 42.38158417

endloop
endfacet
facet normal 0.8989136219 0.4162780643 -0.1366265118
outer loop
vertex 74.18471527 -37.80135345 45.49448013
vertex 72.22939301 -34.60070038 42.38158417
vertex 73.50774384 -35.16591644 49.0701828

endloop
endfacet
facet normal 0.7801344395 0.6180662513 -0.09687298536
outer loop
vertex 73.50774384 -35.16591644 49.0701828
vertex 72.22939301 -34.60070038 42.38158417
vertex 70.98073578 -32.51010895 45.66426849

endloop
endfacet
facet normal 0.8395440578 0.485096693 -0.2446365058
outer loop
vertex 73.50774384 -35.16591644 49.0701828
vertex 70.98073578 -32.51010895 45.66426849
vertex 72.89003754 -32.7458725 51.74911118

endloop
endfacet
facet normal 0.8787029386 0.400213033 -0.2602127194
outer loop
vertex 72.89003754 -32.7458725 51.74911118
vertex 70.98073578 -32.51010895 45.66426849
vertex 70.75569916 -30.15523529 48.52619934

endloop
endfacet
facet normal 0.8617875576 0.4687355161 -0.193931058
outer loop
vertex 72.89003754 -32.7458725 51.74911118
vertex 70.75569916 -30.15523529 48.52619934
vertex 72.4743576 -31.26042938 53.49226761

endloop
endfacet
facet normal 0.9084951878 -0.2101875395 -0.3611893356
outer loop
vertex 72.4743576 -31.26042938 53.49226761
vertex 70.75569916 -30.15523529 48.52619934
vertex 72.30883026 -27.45909882 50.86380386

endloop
endfacet
facet normal 0.9198216796 0.2494461387 0.3028276861
outer loop
vertex 72.4743576 -31.26042938 53.49226761
vertex 72.30883026 -27.45909882 50.86380386
vertex 72.07857513 -30.64557648 54.18796539

endloop
endfacet
facet normal 0.6211881042 -0.586774528 -0.5194429755
outer loop
vertex 72.07857513 -30.64557648 54.18796539
vertex 72.30883026 -27.45909882 50.86380386
vertex 72.92562103 -27.24752045 51.36240387

endloop
endfacet
facet normal 0.1019094735 0.6208923459 0.7772433162
outer loop
vertex 72.07857513 -30.64557648 54.18796539
vertex 72.92562103 -27.24752045 51.36240387
vertex 71.55675507 -30.13063812 53.84503174

endloop
endfacet
facet normal -0.9389932156 0.2139128745 -0.2693194151
outer loop
vertex 71.55675507 -30.13063812 53.84503174
vertex 72.92562103 -27.24752045 51.36240387
vertex 72.96175385 -27.2987442 51.19573975

endloop
endfacet
facet normal 0.9398391843 -0.229878515 0.2527019978
outer loop
vertex 71.55675507 -30.13063812 53.84503174
vertex 72.96175385 -27.2987442 51.19573975
vertex 74.52840424 -14.7778244 56.75917435

endloop
endfacet
facet normal 0.2690691054 -0.403603673 0.8744746447
outer loop
vertex 74.52840424 -14.7778244 56.75917435
vertex 72.96175385 -27.2987442 51.19573975
vertex 74.52840424 -14.77783966 56.75916672

endloop
endfacet
facet normal -nan(ind) -nan(ind) -nan(ind)
outer loop
vertex 81.83080292 -50.69184113 9.712783813
vertex 81.83080292 -50.69184113 9.712783813
vertex 65.61843109 -51.90973663 16.01104355

endloop
endfacet
facet normal -0.01654630713 0.9887583256 0.1486044526
outer loop
vertex 65.61843109 -51.90973663 16.01104355
vertex 81.83080292 -50.69184113 9.712783813
vertex 65.88851166 -49.95697784 3.048190117

endloop
endfacet
facet normal 0.9255814552 -0.3766902089 -0.03746116161
outer loop
vertex 65.61843109 -51.90973663 16.01104355
vertex 65.88851166 -49.95697784 3.048190117
vertex 66.02498627 -51.06858063 17.59787941

endloop
endfacet
facet normal 0.9913704991 0.1310879886 0.0007162261172
outer loop
vertex 66.02498627 -51.06858063 17.59787941
vertex 65.88851166 -49.95697784 3.048190117
vertex 64.954216 -42.9040451 5.391586781

endloop
endfacet
facet normal 0.9689243436 -0.1577596813 -0.1905189157
outer loop
vertex 66.02498627 -51.06858063 17.59787941
vertex 64.954216 -42.9040451 5.391586781
vertex 66.87078094 -49.03229523 20.2131958

endloop
endfacet
facet normal 0.9907485843 -0.0160669405 -0.1347556859
outer loop
vertex 66.87078094 -49.03229523 20.2131958
vertex 64.954216 -42.9040451 5.391586781
vertex 65.68373871 -37.97400665 10.16736221

endloop
endfacet
facet normal 0.9305927157 -0.1863402873 -0.3150786757
outer loop
vertex 66.87075043 -49.03229523 20.2131958
vertex 65.68373871 -37.97400665 10.16735935
vertex 68.47686005 -45.99800873 23.1623764

endloop
endfacet
facet normal 0.9687411189 -0.05466835946 -0.2419750839
outer loop
vertex 68.47686005 -45.99800873 23.1623764
vertex 65.68373871 -37.97400665 10.16735935
vertex 67.11397552 -33.93560028 14.98089695

endloop
endfacet
facet normal 0.884778142 -0.1889606118 -0.4259829521
outer loop
vertex 68.47686005 -45.99800873 23.1623764
vertex 67.11397552 -33.93560028 14.98089695
vertex 70.50691986 -42.65903473 25.89773941

endloop
endfacet
facet normal 0.9065627456 -0.143931374 -0.39677158
outer loop
vertex 70.50691986 -42.65903473 25.89773941
vertex 67.11397552 -33.93560028 14.98089695
vertex 69.38008881 -30.399086 18.87572861

endloop
endfacet
facet normal 0.935723722 -0.1065841243 -0.3362453878
outer loop
vertex 70.50691986 -42.65903473 25.89773941
vertex 69.38008881 -30.399086 18.87572861
vertex 72.06368256 -40.2299118 29.46000099

endloop
endfacet
facet normal 0.7279410958 -0.4004708827 -0.5565292835
outer loop
vertex 72.06368256 -40.2299118 29.46000099
vertex 69.38008881 -30.399086 18.87572861
vertex 73.0915451 -29.46926117 23.06122971

endloop
endfacet
facet normal 0.9816886783 -0.1574933827 -0.1071596891
outer loop
vertex 72.06368256 -40.2299118 29.46000099
vertex 73.0915451 -29.46926117 23.06122971
vertex 72.81517792 -38.69286346 34.08543015

endloop
endfacet
facet normal 0.8512808681 -0.4127398729 -0.3239856362
outer loop
vertex 72.81517792 -38.69286346 34.08543015
vertex 73.0915451 -29.46926117 23.06122971
vertex 75.08333588 -28.98084259 27.67249489

endloop
endfacet
facet normal 0.9798204899 -0.1918930113 0.05593675375
outer loop
vertex 72.81517792 -38.69286346 34.08543015
vertex 75.08333588 -28.98084259 27.67249489
vertex 72.91182709 -36.87822723 38.61764145

endloop
endfacet
facet normal 0.9562572837 -0.2917854786 -0.02081480063
outer loop
vertex 72.91182709 -36.87822723 38.61764145
vertex 75.08333588 -28.98084259 27.67249489
vertex 75.62120819 -27.52741241 32.00856781

endloop
endfacet
facet normal 0.9643904567 -0.1091612056 0.2409044504
outer loop
vertex 72.91182709 -36.87822723 38.61764145
vertex 75.62120819 -27.52741241 32.00856781
vertex 72.22939301 -34.60070038 42.38158417

endloop
endfacet
facet normal 0.9401103258 -0.3309227526 0.08174753934
outer loop
vertex 72.22939301 -34.60070038 42.38158417
vertex 75.62120819 -27.52741241 32.00856781
vertex 76.06615448 -25.24504852 36.13086319

endloop
endfacet
facet normal 0.9073978066 -0.09927780181 0.4083786011
outer loop
vertex 72.22939301 -34.60070038 42.38158417
vertex 76.06615448 -25.24504852 36.13086319
vertex 70.98073578 -32.51010895 45.66426849

endloop
endfacet
facet normal 0.9168166518 -0.307528466 0.2547026277
outer loop
vertex 70.98073578 -32.51010895 45.66426849
vertex 76.06615448 -25.24504852 36.13086319
vertex 75.87975311 -22.32517242 40.32728958

endloop
endfacet
facet normal 0.9112321138 -0.2800249159 0.3020631373
outer loop
vertex 70.98073578 -32.51010895 45.66426849
vertex 75.87975311 -22.32517242 40.32728958
vertex 70.75569916 -30.15523529 48.52619934

endloop
endfacet
facet normal 0.866694808 -0.04717558995 0.4966030121
outer loop
vertex 70.75569916 -30.15523529 48.52619934
vertex 75.87975311 -22.32517242 40.32728958
vertex 74.18938446 -18.66738129 43.62487793

endloop
endfacet
facet normal 0.9135418534 -0.3565595746 -0.1957204789
outer loop
vertex 70.75569916 -30.15523529 48.52619934
vertex 74.18938446 -18.66738129 43.62487793
vertex 72.30883026 -27.45909882 50.86380386

endloop
endfacet
facet normal 0.9712972641 -0.01216073334 0.2375578135
outer loop
vertex 72.30883026 -27.45909882 50.86380386
vertex 74.18938446 -18.66738129 43.62487793
vertex 73.60192108 -16.33979034 46.14597702

endloop
endfacet
facet normal 0.6582050323 -0.3576256633 -0.6624726653
outer loop
vertex 72.30883026 -27.45909882 50.86380386
vertex 73.60192108 -16.33979034 46.14597702
vertex 72.92562103 -27.24752045 51.36240387

endloop
endfacet
facet normal 0.8502631783 -0.2690652311 -0.4523896873
outer loop
vertex 72.92562103 -27.24752045 51.36240387
vertex 73.60192108 -16.33979034 46.14597702
vertex 75.16970062 -15.9436264 48.85698318

endloop
endfacet
facet normal -0.9589282274 0.1350881606 -0.2494147718
outer loop
vertex 72.92562103 -27.24752045 51.36240387
vertex 75.16970062 -15.9436264 48.85698318
vertex 72.96175385 -27.2987442 51.19573975

endloop
endfacet
facet normal 0.3821821511 -0.257126689 -0.8875938058
outer loop
vertex 72.96175385 -27.2987442 51.19573975
vertex 75.16970062 -15.9436264 48.85698318
vertex 77.85411835 -16.60378265 50.2040863

endloop
endfacet
facet normal 0.8050502539 -0.3220768869 0.4981573224
outer loop
vertex 72.96175385 -27.2987442 51.19573975
vertex 77.85411835 -16.60378265 50.2040863
vertex 74.52840424 -14.77783966 56.75916672

endloop
endfacet
facet normal -0.4472135901 -0.8944271803 0
outer loop
vertex 74.52840424 -14.77783966 56.75916672
vertex 77.85411835 -16.60378265 50.2040863
vertex 74.52840424 -14.77783966 56.75917053

endloop
endfacet
endsolid
