solid 
facet normal -0.982487 -0 -0.186331
outer loop
vertex 40.40769196 -24.42264557 18.35508728
vertex 40.40769196 -24.42263031 18.35508728
vertex 41.87625885 -26.99753571 10.61161041

endloop
endfacet
facet normal -0.9841321111 -0.04562381655 -0.1714716554
outer loop
vertex 41.87625885 -26.99753571 10.61161041
vertex 40.40769196 -24.42263031 18.35508728
vertex 41.03553009 -19.91512299 13.55239677

endloop
endfacet
facet normal 0.03282668442 -0.3799467981 0.9244257212
outer loop
vertex 41.87625885 -26.99753571 10.61161041
vertex 41.03553009 -19.91512299 13.55239677
vertex 34.3272171 -27.28057098 10.76334953

endloop
endfacet
facet normal 0.2193721384 -0.5138499141 0.8293576837
outer loop
vertex 34.3272171 -27.28057098 10.76334953
vertex 41.03553009 -19.91512299 13.55239677
vertex 35.22579193 -20.89194489 14.48390675

endloop
endfacet
facet normal 0.1797923744 -0.5138118863 0.8388515711
outer loop
vertex 34.3272171 -27.28057098 10.76334953
vertex 35.22579193 -20.89194489 14.48390675
vertex 29.68727875 -27.33776093 11.72280502

endloop
endfacet
facet normal 0.5218163729 -0.6729403138 0.5242699385
outer loop
vertex 29.68727875 -27.33776093 11.72280502
vertex 35.22579193 -20.89194489 14.48390675
vertex 31.01622772 -22.7572403 16.27952194

endloop
endfacet
facet normal 0.6393248439 -0.6275400519 0.4443615973
outer loop
vertex 29.68727875 -27.33776093 11.72280502
vertex 31.01622772 -22.7572403 16.27952194
vertex 27.61040497 -27.71044159 14.18459511

endloop
endfacet
facet normal 0.6961966157 -0.6267398596 0.3500105143
outer loop
vertex 27.61040497 -27.71044159 14.18459511
vertex 31.01622772 -22.7572403 16.27952194
vertex 28.25693512 -24.46500397 18.70998192

endloop
endfacet
facet normal 0.8889676929 -0.4227325618 0.1761634201
outer loop
vertex 27.61040497 -27.71044159 14.18459511
vertex 28.25693512 -24.46500397 18.70998192
vertex 26.74217987 -28.40798187 16.89203072

endloop
endfacet
facet normal 0.7879410982 -0.4803311229 0.3852672279
outer loop
vertex 26.74217987 -28.40798187 16.89203072
vertex 28.25693512 -24.46500397 18.70998192
vertex 26.29280853 -25.9197464 20.91327858

endloop
endfacet
facet normal 0.9229208827 -0.2726273239 0.2718298435
outer loop
vertex 26.74217987 -28.40798187 16.89203072
vertex 26.29280853 -25.9197464 20.91327858
vertex 26.05527496 -29.26830292 18.36137581

endloop
endfacet
facet normal 0.6963742971 -0.4656082094 0.5461427569
outer loop
vertex 26.05527496 -29.26830292 18.36137581
vertex 26.29280853 -25.9197464 20.91327858
vertex 24.590065 -27.24863434 21.95147896

endloop
endfacet
facet normal 0.9003360271 -0.0998050943 0.4235963821
outer loop
vertex 26.05527496 -29.26830292 18.36137581
vertex 24.590065 -27.24863434 21.95147896
vertex 25.45665741 -30.37805939 19.37223816

endloop
endfacet
facet normal 0.4492325187 -0.4908527434 0.7464942932
outer loop
vertex 25.45665741 -30.37805939 19.37223816
vertex 24.590065 -27.24863434 21.95147896
vertex 23.07546234 -28.65593719 21.93758774

endloop
endfacet
facet normal 0.7805891037 0.4761655927 0.4049037099
outer loop
vertex 25.45665741 -30.37805939 19.37223816
vertex 23.07546234 -28.65593719 21.93758774
vertex 25.17079926 -34.79553986 25.11827087

endloop
endfacet
facet normal 0.9486832619 0.3162277639 0
outer loop
vertex 25.17079926 -34.79553986 25.11827087
vertex 23.07546234 -28.65593719 21.93758774
vertex 25.17079926 -34.79553986 25.11827278

endloop
endfacet
facet normal -0.08450011909 0.732039988 0.6760009527
outer loop
vertex 40.40769196 -24.42263031 18.35508728
vertex 40.40770721 -24.42263031 18.35508919
vertex 41.03553009 -19.91512299 13.55239677

endloop
endfacet
facet normal -0.9507189989 -0.1541914642 -0.2689954042
outer loop
vertex 41.03553009 -19.91512299 13.55239677
vertex 40.40770721 -24.42263031 18.35508919
vertex 40.15727997 -19.12471771 16.20335388

endloop
endfacet
facet normal 0.208910957 -0.9160560966 0.342341125
outer loop
vertex 41.03553009 -19.91512299 13.55239677
vertex 40.15727997 -19.12471771 16.20335388
vertex 35.22579193 -20.89194489 14.48390675

endloop
endfacet
facet normal 0.2299288809 -0.9277216196 0.294049859
outer loop
vertex 35.22579193 -20.89194489 14.48390675
vertex 40.15727997 -19.12471771 16.20335388
vertex 36.05062103 -19.78958893 17.31685257

endloop
endfacet
facet normal 0.4668135047 -0.8615947366 0.1993482411
outer loop
vertex 35.22579193 -20.89194489 14.48390675
vertex 36.05062103 -19.78958893 17.31685257
vertex 31.01622772 -22.7572403 16.27952194

endloop
endfacet
facet normal 0.4710640907 -0.8629768491 0.1826733351
outer loop
vertex 31.01622772 -22.7572403 16.27952194
vertex 36.05062103 -19.78958893 17.31685257
vertex 32.15172577 -21.56484222 18.98445702

endloop
endfacet
facet normal 0.5890712738 -0.8011163473 0.1058658287
outer loop
vertex 31.01622772 -22.7572403 16.27952194
vertex 32.15172577 -21.56484222 18.98445702
vertex 28.25693512 -24.46500397 18.70998192

endloop
endfacet
facet normal 0.5805649757 -0.7959174514 0.1716382056
outer loop
vertex 28.25693512 -24.46500397 18.70998192
vertex 32.15172577 -21.56484222 18.98445702
vertex 28.98934174 -23.4031601 21.15658379

endloop
endfacet
facet normal 0.6720434427 -0.7313340306 0.1162238717
outer loop
vertex 28.25693512 -24.46500397 18.70998192
vertex 28.98934174 -23.4031601 21.15658379
vertex 26.29280853 -25.9197464 20.91327858

endloop
endfacet
facet normal 0.6471968889 -0.7181879282 0.2556216717
outer loop
vertex 26.29280853 -25.9197464 20.91327858
vertex 28.98934174 -23.4031601 21.15658379
vertex 26.40575409 -25.05161285 23.06640244

endloop
endfacet
facet normal 0.6842659712 -0.6880707145 0.2415339351
outer loop
vertex 26.29280853 -25.9197464 20.91327858
vertex 26.40575409 -25.05161285 23.06640244
vertex 24.590065 -27.24863434 21.95147896

endloop
endfacet
facet normal 0.595580101 -0.6958642602 0.4013194144
outer loop
vertex 24.590065 -27.24863434 21.95147896
vertex 26.40575409 -25.05161285 23.06640244
vertex 24.0892868 -26.56752777 23.87565994

endloop
endfacet
facet normal 0.6218428016 -0.67320472 0.4001336098
outer loop
vertex 24.590065 -27.24863434 21.95147896
vertex 24.0892868 -26.56752777 23.87565994
vertex 23.07546234 -28.65593719 21.93758774

endloop
endfacet
facet normal 0.5963554978 -0.6821558475 0.4231116474
outer loop
vertex 23.07546234 -28.65593719 21.93758774
vertex 24.0892868 -26.56752777 23.87565994
vertex 22.13915253 -28.40694427 23.65870667

endloop
endfacet
facet normal 0.8038014174 0.4659385383 0.3698708713
outer loop
vertex 23.07546234 -28.65593719 21.93758774
vertex 22.13915253 -28.40694427 23.65870667
vertex 25.17079926 -34.79553986 25.11827278

endloop
endfacet
facet normal -nan(ind) -nan(ind) -nan(ind)
outer loop
vertex 25.17079926 -34.79553986 25.11827278
vertex 22.13915253 -28.40694427 23.65870667
vertex 25.17079926 -34.79553986 25.11827278

endloop
endfacet
facet normal 0.4281387329 -0.3226180971 -0.844165206
outer loop
vertex 40.40770721 -24.42263031 18.35508919
vertex 40.40769196 -24.42264557 18.35508728
vertex 40.15727997 -19.12471771 16.20335388

endloop
endfacet
facet normal -0.9265423417 -0.1783254594 -0.3312390149
outer loop
vertex 40.15727997 -19.12471771 16.20335388
vertex 40.40769196 -24.42264557 18.35508728
vertex 39.75907135 -19.26207733 17.39117241

endloop
endfacet
facet normal 0.14182432 -0.9876443744 -0.06666573137
outer loop
vertex 40.15727997 -19.12471771 16.20335388
vertex 39.75907135 -19.26207733 17.39117241
vertex 36.05062103 -19.78958893 17.31685257

endloop
endfacet
facet normal 0.1416635513 -0.9885289073 -0.05236480758
outer loop
vertex 36.05062103 -19.78958893 17.31685257
vertex 39.75907135 -19.26207733 17.39117241
vertex 36.65773773 -19.78675079 18.90571976

endloop
endfacet
facet normal 0.3615590036 -0.9223020077 -0.1365066171
outer loop
vertex 36.05062103 -19.78958893 17.31685257
vertex 36.65773773 -19.78675079 18.90571976
vertex 32.15172577 -21.56484222 18.98445702

endloop
endfacet
facet normal 0.3667376935 -0.9301586151 -0.01755883917
outer loop
vertex 32.15172577 -21.56484222 18.98445702
vertex 36.65773773 -19.78675079 18.90571976
vertex 33.05886078 -21.24198151 20.82791519

endloop
endfacet
facet normal 0.4631500244 -0.8832504153 -0.07321713865
outer loop
vertex 32.15172577 -21.56484222 18.98445702
vertex 33.05886078 -21.24198151 20.82791519
vertex 28.98934174 -23.4031601 21.15658379

endloop
endfacet
facet normal 0.4724556208 -0.8780597448 0.07613582164
outer loop
vertex 28.98934174 -23.4031601 21.15658379
vertex 33.05886078 -21.24198151 20.82791519
vertex 29.63872528 -22.88813019 23.06661987

endloop
endfacet
facet normal 0.5558108687 -0.8305720687 0.03499148786
outer loop
vertex 28.98934174 -23.4031601 21.15658379
vertex 29.63872528 -22.88813019 23.06661987
vertex 26.40575409 -25.05161285 23.06640244

endloop
endfacet
facet normal 0.5437078476 -0.8125036359 0.2102847397
outer loop
vertex 26.40575409 -25.05161285 23.06640244
vertex 29.63872528 -22.88813019 23.06661987
vertex 26.52698517 -24.4859848 24.93843842

endloop
endfacet
facet normal 0.5844516754 -0.786451757 0.1997747272
outer loop
vertex 26.40575409 -25.05161285 23.06640244
vertex 26.52698517 -24.4859848 24.93843842
vertex 24.0892868 -26.56752777 23.87565994

endloop
endfacet
facet normal 0.5295704007 -0.7846901417 0.3222057521
outer loop
vertex 24.0892868 -26.56752777 23.87565994
vertex 26.52698517 -24.4859848 24.93843842
vertex 23.64260101 -26.09888458 25.7511425

endloop
endfacet
facet normal 0.6291810274 -0.7055205703 0.3261473179
outer loop
vertex 24.0892868 -26.56752777 23.87565994
vertex 23.64260101 -26.09888458 25.7511425
vertex 22.13915253 -28.40694427 23.65870667

endloop
endfacet
facet normal 0.6528323889 -0.69609797 0.2987599373
outer loop
vertex 22.13915253 -28.40694427 23.65870667
vertex 23.64260101 -26.09888458 25.7511425
vertex 21.26605988 -28.40836334 25.56323051

endloop
endfacet
facet normal 0.8041980863 0.4659315944 0.3690164685
outer loop
vertex 22.13915253 -28.40694427 23.65870667
vertex 21.26605988 -28.40836334 25.56323051
vertex 25.17079926 -34.79553986 25.11827278

endloop
endfacet
facet normal -0.124031432 -0.007295966614 -0.9922514558
outer loop
vertex 25.17079926 -34.79553986 25.11827278
vertex 21.26605988 -28.40836334 25.56323051
vertex 25.17081451 -34.79553986 25.11827087

endloop
endfacet
facet normal 0 0.1836096793 0.982999146
outer loop
vertex 40.40769196 -24.42264557 18.35508728
vertex 40.40770721 -24.42264557 18.35508728
vertex 39.75904083 -19.26209259 17.39117241

endloop
endfacet
facet normal -0.9832084179 -0.1444223374 -0.1115501747
outer loop
vertex 39.75904083 -19.26209259 17.39117241
vertex 40.40770721 -24.42264557 18.35508728
vertex 39.70316315 -19.74633026 18.5106163

endloop
endfacet
facet normal -0.03951993585 -0.9163737297 -0.398368299
outer loop
vertex 39.75904083 -19.26209259 17.39117241
vertex 39.70316315 -19.74633026 18.5106163
vertex 36.65772247 -19.78675079 18.90571785

endloop
endfacet
facet normal -0.03072944842 -0.9423316121 -0.3332668841
outer loop
vertex 36.65772247 -19.78675079 18.90571785
vertex 39.70316315 -19.74633026 18.5106163
vertex 37.23865509 -20.27603912 20.23564339

endloop
endfacet
facet normal 0.152374506 -0.904117763 -0.3991904855
outer loop
vertex 36.65772247 -19.78675079 18.90571785
vertex 37.23865509 -20.27603912 20.23564339
vertex 33.05884552 -21.24198151 20.82791519

endloop
endfacet
facet normal 0.1869325638 -0.9536014795 -0.2360091954
outer loop
vertex 33.05884552 -21.24198151 20.82791519
vertex 37.23865509 -20.27603912 20.23564339
vertex 33.99150848 -21.43805695 22.35888481

endloop
endfacet
facet normal 0.2625503242 -0.9239214659 -0.2782741487
outer loop
vertex 33.05884552 -21.24198151 20.82791519
vertex 33.99150848 -21.43805695 22.35888481
vertex 29.63872528 -22.88814545 23.06661606

endloop
endfacet
facet normal 0.3006685078 -0.9489697218 -0.09515691549
outer loop
vertex 29.63872528 -22.88814545 23.06661606
vertex 33.99150848 -21.43805695 22.35888481
vertex 30.49770355 -22.79701996 24.87197495

endloop
endfacet
facet normal 0.3857504427 -0.9123011231 -0.1374892145
outer loop
vertex 29.63872528 -22.88814545 23.06661606
vertex 30.49770355 -22.79701996 24.87197495
vertex 26.52698517 -24.4859848 24.93843842

endloop
endfacet
facet normal 0.3916692734 -0.9195711017 0.0313705951
outer loop
vertex 26.52698517 -24.4859848 24.93843842
vertex 30.49770355 -22.79701996 24.87197495
vertex 26.93688202 -24.23885345 27.06497955

endloop
endfacet
facet normal 0.489544332 -0.8719505072 0.006970768794
outer loop
vertex 26.52698517 -24.4859848 24.93843842
vertex 26.93688202 -24.23885345 27.06497955
vertex 23.64260101 -26.09888458 25.75114059

endloop
endfacet
facet normal 0.4569556713 -0.8833000064 0.1047504023
outer loop
vertex 23.64260101 -26.09888458 25.75114059
vertex 26.93688202 -24.23885345 27.06497955
vertex 23.38175201 -25.94522858 28.18474197

endloop
endfacet
facet normal 0.6871179938 -0.7167499065 0.1189048365
outer loop
vertex 23.64260101 -26.09888458 25.75114059
vertex 23.38175201 -25.94522858 28.18474197
vertex 21.26604462 -28.40836334 25.5632267

endloop
endfacet
facet normal 0.6857327819 -0.7177340984 0.1209475771
outer loop
vertex 21.26604462 -28.40836334 25.5632267
vertex 23.38175201 -25.94522858 28.18474197
vertex 20.42905426 -28.78623199 28.0663147

endloop
endfacet
facet normal 0.8119308949 0.4724838138 0.3428225815
outer loop
vertex 21.26604462 -28.40836334 25.5632267
vertex 20.42905426 -28.78623199 28.0663147
vertex 25.170784 -34.79553986 25.11827087

endloop
endfacet
facet normal -0.1174538583 0.3592706323 -0.9258127809
outer loop
vertex 25.170784 -34.79553986 25.11827087
vertex 20.42905426 -28.78623199 28.0663147
vertex 25.17081451 -34.7955246 25.11827278

endloop
endfacet
facet normal -nan(ind) -nan(ind) -nan(ind)
outer loop
vertex 40.40770721 -24.42264557 18.35508728
vertex 40.40770721 -24.42264557 18.35508728
vertex 39.70316315 -19.74633026 18.5106163

endloop
endfacet
facet normal -0.9825862646 -0.1516111791 0.1074161083
outer loop
vertex 39.70316315 -19.74633026 18.5106163
vertex 40.40770721 -24.42264557 18.35508728
vertex 39.97005463 -20.49559784 19.89445496

endloop
endfacet
facet normal -0.12752074 -0.8822857141 -0.4531119764
outer loop
vertex 39.70316315 -19.74633026 18.5106163
vertex 39.97005463 -20.49559784 19.89445496
vertex 37.23865509 -20.27603912 20.23564339

endloop
endfacet
facet normal -0.1290474832 -0.8721959591 -0.471827358
outer loop
vertex 37.23865509 -20.27603912 20.23564339
vertex 39.97005463 -20.49559784 19.89445496
vertex 37.8804245 -21.09590912 21.5756855

endloop
endfacet
facet normal -0.02759009413 -0.8585145473 -0.5120464563
outer loop
vertex 37.23865509 -20.27603912 20.23564339
vertex 37.8804245 -21.09590912 21.5756855
vertex 33.99150848 -21.43805695 22.35888481

endloop
endfacet
facet normal 0.00877457764 -0.9315901995 -0.3634042442
outer loop
vertex 33.99150848 -21.43805695 22.35888481
vertex 37.8804245 -21.09590912 21.5756855
vertex 35.02555084 -22.02068329 23.87742043

endloop
endfacet
facet normal 0.06936870515 -0.9146814346 -0.39817819
outer loop
vertex 33.99150848 -21.43805695 22.35888481
vertex 35.02555084 -22.02068329 23.87742043
vertex 30.49770355 -22.79701996 24.87197495

endloop
endfacet
facet normal 0.1063530147 -0.9586148858 -0.2640957832
outer loop
vertex 30.49770355 -22.79701996 24.87197495
vertex 35.02555084 -22.02068329 23.87742043
vertex 31.73899078 -23.1891861 26.79533386

endloop
endfacet
facet normal 0.1863368154 -0.9321886897 -0.3103270829
outer loop
vertex 30.49770355 -22.79701996 24.87197495
vertex 31.73899078 -23.1891861 26.79533386
vertex 26.93688202 -24.23885345 27.06497955

endloop
endfacet
facet normal 0.1961706728 -0.9548131824 -0.2232684642
outer loop
vertex 26.93688202 -24.23885345 27.06497955
vertex 31.73899078 -23.1891861 26.79533386
vertex 27.99259186 -24.600914 29.54092026

endloop
endfacet
facet normal 0.3432515264 -0.8972920775 -0.2775704861
outer loop
vertex 26.93688202 -24.23885345 27.06497955
vertex 27.99259186 -24.600914 29.54092026
vertex 23.38175201 -25.94522858 28.18474197

endloop
endfacet
facet normal 0.3350515366 -0.9125289321 -0.2345879078
outer loop
vertex 23.38175201 -25.94522858 28.18474197
vertex 27.99259186 -24.600914 29.54092026
vertex 23.84470367 -26.54616547 31.1835537

endloop
endfacet
facet normal 0.6775057912 -0.6939849854 -0.2436610162
outer loop
vertex 23.38175201 -25.94522858 28.18474197
vertex 23.84470367 -26.54616547 31.1835537
vertex 20.42905426 -28.78623199 28.0663147

endloop
endfacet
facet normal 0.6869505644 -0.6758648157 -0.2670311928
outer loop
vertex 20.42905426 -28.78623199 28.0663147
vertex 23.84470367 -26.54616547 31.1835537
vertex 20.32015228 -30.06200409 31.01518059

endloop
endfacet
facet normal 0.815992713 0.5189505219 0.2546490431
outer loop
vertex 20.42905426 -28.78623199 28.0663147
vertex 20.32015228 -30.06200409 31.01518059
vertex 25.17081451 -34.7955246 25.11827278

endloop
endfacet
facet normal 0 -0.7776300311 0.6287221313
outer loop
vertex 25.17081451 -34.7955246 25.11827278
vertex 20.32015228 -30.06200409 31.01518059
vertex 25.17079926 -34.7955246 25.11827278

endloop
endfacet
facet normal 0 0.3649537265 -0.9310256243
outer loop
vertex 40.40770721 -24.42264557 18.35508728
vertex 40.4076767 -24.42264557 18.35508728
vertex 39.97005463 -20.49559784 19.89445496

endloop
endfacet
facet normal -0.9824118018 -0.1519950628 0.1084645167
outer loop
vertex 39.97005463 -20.49559784 19.89445496
vertex 40.4076767 -24.42264557 18.35508728
vertex 40.28800201 -21.4608078 21.42166519

endloop
endfacet
facet normal -0.1608789265 -0.8490965366 -0.5031431913
outer loop
vertex 39.97005463 -20.49559784 19.89445496
vertex 40.28800201 -21.4608078 21.42166519
vertex 37.8804245 -21.09590912 21.5756855

endloop
endfacet
facet normal -0.1582198441 -0.7991226315 -0.5799736977
outer loop
vertex 37.8804245 -21.09590912 21.5756855
vertex 40.28800201 -21.4608078 21.42166519
vertex 38.58138275 -22.20819855 22.91703987

endloop
endfacet
facet normal -0.1946144849 -0.8026177287 -0.5638528466
outer loop
vertex 37.8804245 -21.09590912 21.5756855
vertex 38.58138275 -22.20819855 22.91703987
vertex 35.02555084 -22.02068329 23.87742043

endloop
endfacet
facet normal -0.1609736234 -0.892290473 -0.4217881262
outer loop
vertex 35.02555084 -22.02068329 23.87742043
vertex 38.58138275 -22.20819855 22.91703987
vertex 36.25899506 -23.02806854 25.53779984

endloop
endfacet
facet normal -0.09724809229 -0.8812931776 -0.4624555707
outer loop
vertex 35.02555084 -22.02068329 23.87742043
vertex 36.25899506 -23.02806854 25.53779984
vertex 31.73899078 -23.1891861 26.79533386

endloop
endfacet
facet normal -0.0710504055 -0.9247592688 -0.3738611341
outer loop
vertex 31.73899078 -23.1891861 26.79533386
vertex 36.25899506 -23.02806854 25.53779984
vertex 33.42108917 -24.181633 28.93051338

endloop
endfacet
facet normal 0.02065302245 -0.9003170133 -0.4347443879
outer loop
vertex 31.73899078 -23.1891861 26.79533386
vertex 33.42108917 -24.181633 28.93051338
vertex 27.99259186 -24.600914 29.54092026

endloop
endfacet
facet normal 0.017851891 -0.8911494613 -0.4533584714
outer loop
vertex 27.99259186 -24.600914 29.54092026
vertex 33.42108917 -24.181633 28.93051338
vertex 29.94046783 -25.902565 32.17622757

endloop
endfacet
facet normal 0.1745645702 -0.8254813552 -0.5367566347
outer loop
vertex 27.99259186 -24.600914 29.54092026
vertex 29.94046783 -25.902565 32.17622757
vertex 23.84470367 -26.54616547 31.1835537

endloop
endfacet
facet normal 0.1815029085 -0.7638915181 -0.6192950606
outer loop
vertex 23.84470367 -26.54616547 31.1835537
vertex 29.94046783 -25.902565 32.17622757
vertex 25.79886627 -28.53063202 34.20409012

endloop
endfacet
facet normal 0.5353463888 -0.5042220354 -0.6776166558
outer loop
vertex 23.84470367 -26.54616547 31.1835537
vertex 25.79886627 -28.53063202 34.20409012
vertex 20.32015228 -30.06200409 31.01518059

endloop
endfacet
facet normal 0.5408217311 -0.4321682155 -0.7216249704
outer loop
vertex 20.32015228 -30.06200409 31.01518059
vertex 25.79886627 -28.53063202 34.20409012
vertex 21.81433868 -32.65624237 33.68864059

endloop
endfacet
facet normal 0.7794626355 0.6073076725 0.153672874
outer loop
vertex 20.32015228 -30.06200409 31.01518059
vertex 21.81433868 -32.65624237 33.68864059
vertex 25.17079926 -34.7955246 25.11827278

endloop
endfacet
facet normal 0.8003733754 -0.4268657863 0.4209370911
outer loop
vertex 25.17079926 -34.7955246 25.11827278
vertex 21.81433868 -32.65624237 33.68864059
vertex 25.170784 -34.79555511 25.11827087

endloop
endfacet
facet normal 0 -0.7192837596 0.6947163343
outer loop
vertex 40.4076767 -24.42264557 18.35508728
vertex 40.40769196 -24.42264557 18.35508728
vertex 40.28800201 -21.4608078 21.42166519

endloop
endfacet
facet normal -0.9944258332 -0.09252800047 0.0505547747
outer loop
vertex 40.28800201 -21.4608078 21.42166519
vertex 40.40769196 -24.42264557 18.35508728
vertex 40.5076828 -22.64707184 23.57168198

endloop
endfacet
facet normal -0.03661827743 -0.876560092 -0.4798973799
outer loop
vertex 40.28800201 -21.4608078 21.42166519
vertex 40.5076828 -22.64707184 23.57168198
vertex 38.58138275 -22.20819855 22.91703987

endloop
endfacet
facet normal 0.06356011331 -0.7323268652 -0.677980423
outer loop
vertex 38.58138275 -22.20819855 22.91703987
vertex 40.5076828 -22.64707184 23.57168198
vertex 39.44268036 -23.65808868 24.56389809

endloop
endfacet
facet normal -0.3173491359 -0.7879170775 -0.5277085304
outer loop
vertex 38.58138275 -22.20819855 22.91703987
vertex 39.44268036 -23.65808868 24.56389809
vertex 36.25899506 -23.02806854 25.53779984

endloop
endfacet
facet normal -0.3125095665 -0.808593154 -0.4985125661
outer loop
vertex 36.25899506 -23.02806854 25.53779984
vertex 39.44268036 -23.65808868 24.56389809
vertex 37.8582077 -24.71515656 27.27175522

endloop
endfacet
facet normal -0.289962858 -0.8057018518 -0.5164940357
outer loop
vertex 36.25899506 -23.02806854 25.53779984
vertex 37.8582077 -24.71515656 27.27175522
vertex 33.42108917 -24.181633 28.93051338

endloop
endfacet
facet normal -0.2923694253 -0.7993193865 -0.5249844193
outer loop
vertex 33.42108917 -24.181633 28.93051338
vertex 37.8582077 -24.71515656 27.27175522
vertex 35.67708588 -26.24855804 30.82113838

endloop
endfacet
facet normal -0.1907949299 -0.7677536011 -0.6116794348
outer loop
vertex 33.42108917 -24.181633 28.93051338
vertex 35.67708588 -26.24855804 30.82113838
vertex 29.94046783 -25.902565 32.17622757

endloop
endfacet
facet normal -0.2061027586 -0.6866081357 -0.6972022057
outer loop
vertex 29.94046783 -25.902565 32.17622757
vertex 35.67708588 -26.24855804 30.82113838
vertex 32.74027252 -28.5276413 33.93375397

endloop
endfacet
facet normal -0.03147936612 -0.5790279508 -0.814699769
outer loop
vertex 29.94046783 -25.902565 32.17622757
vertex 32.74027252 -28.5276413 33.93375397
vertex 25.79886627 -28.53063202 34.20409012

endloop
endfacet
facet normal -0.03536722809 -0.4072585404 -0.9126278758
outer loop
vertex 25.79886627 -28.53063202 34.20409012
vertex 32.74027252 -28.5276413 33.93375397
vertex 28.96350861 -31.75833893 35.52180862

endloop
endfacet
facet normal 0.2618559897 -0.1334806979 -0.9558317661
outer loop
vertex 25.79886627 -28.53063202 34.20409012
vertex 28.96350861 -31.75833893 35.52180862
vertex 21.81433868 -32.65624237 33.68864059

endloop
endfacet
facet normal 0.2513544858 -0.02594860829 -0.9675472379
outer loop
vertex 21.81433868 -32.65624237 33.68864059
vertex 28.96350861 -31.75833893 35.52180862
vertex 24.76912689 -35.95497894 34.5447197

endloop
endfacet
facet normal 0.7250384688 0.6791363955 0.1144252419
outer loop
vertex 21.81433868 -32.65624237 33.68864059
vertex 24.76912689 -35.95497894 34.5447197
vertex 25.170784 -34.79555511 25.11827087

endloop
endfacet
facet normal -0.7036187649 0.7083095908 0.05672926456
outer loop
vertex 25.170784 -34.79555511 25.11827087
vertex 24.76912689 -35.95497894 34.5447197
vertex 25.17079926 -34.79553986 25.11827087

endloop
endfacet
facet normal -nan(ind) -nan(ind) -nan(ind)
outer loop
vertex 40.40769196 -24.42264557 18.35508728
vertex 40.40769196 -24.42264557 18.35508728
vertex 40.5076828 -22.64707184 23.57168198

endloop
endfacet
facet normal -0.9997735023 -0.004688206594 0.02075922117
outer loop
vertex 40.5076828 -22.64707184 23.57168198
vertex 40.40769196 -24.42264557 18.35508728
vertex 40.56316376 -25.19374847 25.66853523

endloop
endfacet
facet normal -0.1125726923 -0.6330532432 -0.7658792138
outer loop
vertex 40.5076828 -22.64707184 23.57168198
vertex 40.56316376 -25.19374847 25.66853523
vertex 39.44268036 -23.65808868 24.56389809

endloop
endfacet
facet normal 0.2418948412 -0.4440770149 -0.8627180457
outer loop
vertex 39.44268036 -23.65808868 24.56389809
vertex 40.56316376 -25.19374847 25.66853523
vertex 40.33098602 -26.19594574 26.11930847

endloop
endfacet
facet normal -0.6010720134 -0.5599039197 -0.5702807307
outer loop
vertex 39.44268036 -23.65808868 24.56389809
vertex 40.33098602 -26.19594574 26.11930847
vertex 37.8582077 -24.71515656 27.27175522

endloop
endfacet
facet normal -0.6042913795 -0.6441273689 -0.4689688981
outer loop
vertex 37.8582077 -24.71515656 27.27175522
vertex 40.33098602 -26.19594574 26.11930847
vertex 39.72377777 -27.48827362 28.67673683

endloop
endfacet
facet normal -0.5044397712 -0.6355027556 -0.5845312476
outer loop
vertex 37.8582077 -24.71515656 27.27175522
vertex 39.72377777 -27.48827362 28.67673683
vertex 35.67708588 -26.24855804 30.82113838

endloop
endfacet
facet normal -0.5140227079 -0.5716474652 -0.6395309567
outer loop
vertex 35.67708588 -26.24855804 30.82113838
vertex 39.72377777 -27.48827362 28.67673683
vertex 38.1595993 -29.40329742 31.64569664

endloop
endfacet
facet normal -0.4027259052 -0.5147363544 -0.7568739653
outer loop
vertex 35.67708588 -26.24855804 30.82113838
vertex 38.1595993 -29.40329742 31.64569664
vertex 32.74027252 -28.5276413 33.93375397

endloop
endfacet
facet normal -0.4118672609 -0.3093807697 -0.8571166992
outer loop
vertex 32.74027252 -28.5276413 33.93375397
vertex 38.1595993 -29.40329742 31.64569664
vertex 35.64531708 -32.02472687 33.8000946

endloop
endfacet
facet normal -0.2522203624 -0.1731327921 -0.9520556927
outer loop
vertex 32.74027252 -28.5276413 33.93375397
vertex 35.64531708 -32.02472687 33.8000946
vertex 28.96350861 -31.75833893 35.52180862

endloop
endfacet
facet normal -0.2488991767 0.01581089757 -0.9684003592
outer loop
vertex 28.96350861 -31.75833893 35.52180862
vertex 35.64531708 -32.02472687 33.8000946
vertex 32.32880402 -35.33713531 34.59842682

endloop
endfacet
facet normal -0.01260853745 0.2386800945 -0.971016407
outer loop
vertex 28.96350861 -31.75833893 35.52180862
vertex 32.32880402 -35.33713531 34.59842682
vertex 24.76912689 -35.95497894 34.5447197

endloop
endfacet
facet normal -0.01895361394 0.3144104779 -0.9490979314
outer loop
vertex 24.76912689 -35.95497894 34.5447197
vertex 32.32880402 -35.33713531 34.59842682
vertex 28.17647552 -38.87841034 33.50822067

endloop
endfacet
facet normal 0.667121768 0.735401988 0.1188802049
outer loop
vertex 24.76912689 -35.95497894 34.5447197
vertex 28.17647552 -38.87841034 33.50822067
vertex 25.17079926 -34.79553986 25.11827087

endloop
endfacet
facet normal -nan(ind) -nan(ind) -nan(ind)
outer loop
vertex 25.17079926 -34.79553986 25.11827087
vertex 28.17647552 -38.87841034 33.50822067
vertex 25.17079926 -34.79553986 25.11827087

endloop
endfacet
facet normal -nan(ind) -nan(ind) -nan(ind)
outer loop
vertex 40.40769196 -24.42264557 18.35508728
vertex 40.40769196 -24.42264557 18.35508728
vertex 40.56316376 -25.19374847 25.66853523

endloop
endfacet
facet normal -0.9997679591 0.00190951454 0.0214547459
outer loop
vertex 40.56316376 -25.19374847 25.66853523
vertex 40.40769196 -24.42264557 18.35508728
vertex 40.56980133 -29.26378632 26.34008026

endloop
endfacet
facet normal -0.7692739367 -0.10523469 -0.6301931739
outer loop
vertex 40.56316376 -25.19374847 25.66853523
vertex 40.56980133 -29.26378632 26.34008026
vertex 40.33098602 -26.19594574 26.11930847

endloop
endfacet
facet normal -0.6560394764 0.003242838196 0.7547195554
outer loop
vertex 40.33098602 -26.19594574 26.11930847
vertex 40.56980133 -29.26378632 26.34008026
vertex 40.92017365 -29.92359161 26.6474762

endloop
endfacet
facet normal -0.9286997914 -0.1917617917 -0.3174021542
outer loop
vertex 40.33098602 -26.19594574 26.11930847
vertex 40.92017365 -29.92359161 26.6474762
vertex 39.72377777 -27.48827362 28.67673683

endloop
endfacet
facet normal -0.9326360822 -0.3211940825 -0.1643910259
outer loop
vertex 39.72377777 -27.48827362 28.67673683
vertex 40.92017365 -29.92359161 26.6474762
vertex 40.99396515 -31.17900848 28.68172264

endloop
endfacet
facet normal -0.7713181376 -0.2662344575 -0.5780895352
outer loop
vertex 39.72377777 -27.48827362 28.67673683
vertex 40.99396515 -31.17900848 28.68172264
vertex 38.1595993 -29.40329742 31.64569664

endloop
endfacet
facet normal -0.7646811604 -0.1957917809 -0.6139448285
outer loop
vertex 38.1595993 -29.40329742 31.64569664
vertex 40.99396515 -31.17900848 28.68172264
vertex 39.89107513 -33.0608139 30.65551758

endloop
endfacet
facet normal -0.6048765182 -0.07164090127 -0.7930901647
outer loop
vertex 38.1595993 -29.40329742 31.64569664
vertex 39.89107513 -33.0608139 30.65551758
vertex 35.64531708 -32.02472687 33.8000946

endloop
endfacet
facet normal -0.5713203549 0.1220507771 -0.8116014004
outer loop
vertex 35.64531708 -32.02472687 33.8000946
vertex 39.89107513 -33.0608139 30.65551758
vertex 37.7977066 -35.45174408 31.76957321

endloop
endfacet
facet normal -0.4427197874 0.2346961349 -0.8653999567
outer loop
vertex 35.64531708 -32.02472687 33.8000946
vertex 37.7977066 -35.45174408 31.76957321
vertex 32.32880402 -35.33713531 34.59842682

endloop
endfacet
facet normal -0.4252942204 0.3461881876 -0.8362287879
outer loop
vertex 32.32880402 -35.33713531 34.59842682
vertex 37.7977066 -35.45174408 31.76957321
vertex 35.0535202 -38.22455597 32.01731873

endloop
endfacet
facet normal -0.2278843224 0.5205323696 -0.8228698969
outer loop
vertex 32.32880402 -35.33713531 34.59842682
vertex 35.0535202 -38.22455597 32.01731873
vertex 28.17647552 -38.87841034 33.50822067

endloop
endfacet
facet normal -0.2211918384 0.6310699582 -0.7435219884
outer loop
vertex 28.17647552 -38.87841034 33.50822067
vertex 35.0535202 -38.22455597 32.01731873
vertex 31.18610382 -40.59394073 31.15681076

endloop
endfacet
facet normal 0.586956799 0.7905982733 0.1744597107
outer loop
vertex 28.17647552 -38.87841034 33.50822067
vertex 31.18610382 -40.59394073 31.15681076
vertex 25.17079926 -34.79553986 25.11827087

endloop
endfacet
facet normal -0.4615553021 0.3760821223 0.8034481406
outer loop
vertex 25.17079926 -34.79553986 25.11827087
vertex 31.18610382 -40.59394073 31.15681076
vertex 25.17081451 -34.7955246 25.11827278

endloop
endfacet
facet normal -nan(ind) -nan(ind) -nan(ind)
outer loop
vertex 40.40769196 -24.42264557 18.35508728
vertex 40.40769196 -24.42264557 18.35508728
vertex 40.56980133 -29.26378632 26.34008026

endloop
endfacet
facet normal -0.999322772 -0.03674301133 -0.001988542033
outer loop
vertex 40.56980133 -29.26378632 26.34008026
vertex 40.40769196 -24.42264557 18.35508728
vertex 40.73178864 -33.58975983 24.86748886

endloop
endfacet
facet normal -0.8347356915 -0.2052008361 0.5109881759
outer loop
vertex 40.56980133 -29.26378632 26.34008026
vertex 40.73178864 -33.58975983 24.86748886
vertex 40.92017365 -29.92359161 26.6474762

endloop
endfacet
facet normal -0.8768051267 -0.1728073061 0.448720932
outer loop
vertex 40.92017365 -29.92359161 26.6474762
vertex 40.73178864 -33.58975983 24.86748886
vertex 41.11782074 -34.08267975 25.4319706

endloop
endfacet
facet normal -0.9987725616 -0.04918134958 0.005878260359
outer loop
vertex 40.92017365 -29.92359161 26.6474762
vertex 41.11782074 -34.08267975 25.4319706
vertex 40.99396515 -31.17900848 28.68172264

endloop
endfacet
facet normal -0.9995740056 -0.01394051965 -0.02564015612
outer loop
vertex 40.99396515 -31.17900848 28.68172264
vertex 41.11782074 -34.08267975 25.4319706
vertex 41.102211 -35.06990814 26.57726669

endloop
endfacet
facet normal -0.9198354483 0.1665285975 -0.3552055657
outer loop
vertex 40.99396515 -31.17900848 28.68172264
vertex 41.102211 -35.06990814 26.57726669
vertex 39.89107513 -33.0608139 30.65551758

endloop
endfacet
facet normal -0.9122053385 0.1885344088 -0.3637804687
outer loop
vertex 39.89107513 -33.0608139 30.65551758
vertex 41.102211 -35.06990814 26.57726669
vertex 40.31850433 -36.50435638 27.79904366

endloop
endfacet
facet normal -0.7328980565 0.3781653643 -0.565554142
outer loop
vertex 39.89107513 -33.0608139 30.65551758
vertex 40.31850433 -36.50435638 27.79904366
vertex 37.7977066 -35.45174408 31.76957321

endloop
endfacet
facet normal -0.7294017076 0.3853344321 -0.5652348995
outer loop
vertex 37.7977066 -35.45174408 31.76957321
vertex 40.31850433 -36.50435638 27.79904366
vertex 38.86673737 -38.18837738 28.5244236

endloop
endfacet
facet normal -0.5803474188 0.5182275176 -0.6282015443
outer loop
vertex 37.7977066 -35.45174408 31.76957321
vertex 38.86673737 -38.18837738 28.5244236
vertex 35.0535202 -38.22455597 32.01731873

endloop
endfacet
facet normal -0.5426791906 0.6015399098 -0.5862159133
outer loop
vertex 35.0535202 -38.22455597 32.01731873
vertex 38.86673737 -38.18837738 28.5244236
vertex 36.82106781 -40.00577545 28.5532608

endloop
endfacet
facet normal -0.3380878866 0.755599618 -0.5610399842
outer loop
vertex 35.0535202 -38.22455597 32.01731873
vertex 36.82106781 -40.00577545 28.5532608
vertex 31.18610382 -40.59394073 31.15681076

endloop
endfacet
facet normal -0.2546615303 0.9025182724 -0.3472868502
outer loop
vertex 31.18610382 -40.59394073 31.15681076
vertex 36.82106781 -40.00577545 28.5532608
vertex 33.52716827 -41.15250397 27.98855782

endloop
endfacet
facet normal 0.5306501389 0.8101039529 0.2492831051
outer loop
vertex 31.18610382 -40.59394073 31.15681076
vertex 33.52716827 -41.15250397 27.98855782
vertex 25.17081451 -34.7955246 25.11827278

endloop
endfacet
facet normal 0.2368629724 -0.1225153357 -0.9637872577
outer loop
vertex 25.17081451 -34.7955246 25.11827278
vertex 33.52716827 -41.15250397 27.98855782
vertex 25.17079926 -34.79553986 25.11827087

endloop
endfacet
facet normal -0 0.5791436434 0.815225482
outer loop
vertex 40.40769196 -24.42264557 18.35508728
vertex 40.4076767 -24.42264557 18.35508728
vertex 40.73178864 -33.58975983 24.86748886

endloop
endfacet
facet normal -0.9978166819 -0.05787805468 -0.03181168064
outer loop
vertex 40.73178864 -33.58975983 24.86748886
vertex 40.4076767 -24.42264557 18.35508728
vertex 41.03678131 -37.20413971 21.87696648

endloop
endfacet
facet normal -0.8880627751 -0.3352278471 0.3145898879
outer loop
vertex 40.73178864 -33.58975983 24.86748886
vertex 41.03678131 -37.20413971 21.87696648
vertex 41.11782074 -34.08267975 25.4319706

endloop
endfacet
facet normal -0.9899139404 -0.09450318664 0.1055441722
outer loop
vertex 41.11782074 -34.08267975 25.4319706
vertex 41.03678131 -37.20413971 21.87696648
vertex 41.18456268 -37.98813629 22.5610466

endloop
endfacet
facet normal -0.9998400211 -0.004327241331 -0.01735727116
outer loop
vertex 41.11782074 -34.08267975 25.4319706
vertex 41.18456268 -37.98813629 22.5610466
vertex 41.102211 -35.06990814 26.57726669

endloop
endfacet
facet normal -0.9443657398 0.2565645576 -0.205786556
outer loop
vertex 41.102211 -35.06990814 26.57726669
vertex 41.18456268 -37.98813629 22.5610466
vertex 40.8992691 -38.48213959 23.25437546

endloop
endfacet
facet normal -0.9233134389 0.2947123349 -0.2462456971
outer loop
vertex 41.102211 -35.06990814 26.57726669
vertex 40.8992691 -38.48213959 23.25437546
vertex 40.31850433 -36.50435638 27.79904366

endloop
endfacet
facet normal -0.8192285299 0.4801075161 -0.3136263192
outer loop
vertex 40.31850433 -36.50435638 27.79904366
vertex 40.8992691 -38.48213959 23.25437546
vertex 40.16904449 -39.27217865 23.95239449

endloop
endfacet
facet normal -0.7791802287 0.5227419734 -0.3458596468
outer loop
vertex 40.31850433 -36.50435638 27.79904366
vertex 40.16904449 -39.27217865 23.95239449
vertex 38.86673737 -38.18837738 28.5244236

endloop
endfacet
facet normal -0.6882458925 0.6370763779 -0.3470607102
outer loop
vertex 38.86673737 -38.18837738 28.5244236
vertex 40.16904449 -39.27217865 23.95239449
vertex 39.06633759 -40.18871307 24.45671844

endloop
endfacet
facet normal -0.6197880507 0.6917552948 -0.3705904484
outer loop
vertex 38.86673737 -38.18837738 28.5244236
vertex 39.06633759 -40.18871307 24.45671844
vertex 36.82106781 -40.00577545 28.5532608

endloop
endfacet
facet normal -0.516410768 0.7948927879 -0.3185362518
outer loop
vertex 36.82106781 -40.00577545 28.5532608
vertex 39.06633759 -40.18871307 24.45671844
vertex 37.59719086 -41.0688858 24.64206696

endloop
endfacet
facet normal -0.2669070959 0.9152655005 -0.3017444611
outer loop
vertex 36.82106781 -40.00577545 28.5532608
vertex 37.59719086 -41.0688858 24.64206696
vertex 33.52716827 -41.15250397 27.98855782

endloop
endfacet
facet normal -0.1251280308 0.9839014411 -0.1275969148
outer loop
vertex 33.52716827 -41.15250397 27.98855782
vertex 37.59719086 -41.0688858 24.64206696
vertex 35.13857269 -41.3875351 24.59600449

endloop
endfacet
facet normal 0.5474450588 0.8116468191 0.2037972957
outer loop
vertex 33.52716827 -41.15250397 27.98855782
vertex 35.13857269 -41.3875351 24.59600449
vertex 25.17079926 -34.79553986 25.11827087

endloop
endfacet
facet normal -0.03121952526 0.03121952526 -0.9990248084
outer loop
vertex 25.17079926 -34.79553986 25.11827087
vertex 35.13857269 -41.3875351 24.59600449
vertex 25.170784 -34.79555511 25.11827087

endloop
endfacet
facet normal 0.2461881042 -0.2461881042 -0.9374341965
outer loop
vertex 40.4076767 -24.42264557 18.35508728
vertex 40.40769196 -24.42263031 18.35508728
vertex 41.03678131 -37.20413971 21.87696648

endloop
endfacet
facet normal -0.9985642433 -0.05231769755 -0.01150322612
outer loop
vertex 41.03678131 -37.20413971 21.87696648
vertex 40.40769196 -24.42263031 18.35508728
vertex 41.18926239 -39.34259796 18.36639214

endloop
endfacet
facet normal -0.9881997108 -0.1460809708 0.04606262967
outer loop
vertex 41.03678131 -37.20413971 21.87696648
vertex 41.18926239 -39.34259796 18.36639214
vertex 41.18456268 -37.98813629 22.5610466

endloop
endfacet
facet normal -0.8878886104 0.4375088215 -0.1422671974
outer loop
vertex 41.18456268 -37.98813629 22.5610466
vertex 41.18926239 -39.34259796 18.36639214
vertex 40.70056915 -40.21671295 18.72819138

endloop
endfacet
facet normal -0.9182319045 0.3816123307 -0.1059351489
outer loop
vertex 41.18456268 -37.98813629 22.5610466
vertex 40.70056915 -40.21671295 18.72819138
vertex 40.8992691 -38.48213959 23.25437546

endloop
endfacet
facet normal -0.4624094069 0.8345438838 -0.299523145
outer loop
vertex 40.8992691 -38.48213959 23.25437546
vertex 40.70056915 -40.21671295 18.72819138
vertex 40.08280182 -40.35851288 19.28682327

endloop
endfacet
facet normal -0.7820074558 0.6100690365 -0.1275934726
outer loop
vertex 40.8992691 -38.48213959 23.25437546
vertex 40.08280182 -40.35851288 19.28682327
vertex 40.16904449 -39.27217865 23.95239449

endloop
endfacet
facet normal -0.4595752954 0.8668391109 -0.1933401078
outer loop
vertex 40.16904449 -39.27217865 23.95239449
vertex 40.08280182 -40.35851288 19.28682327
vertex 39.34047699 -40.63535309 19.81014061

endloop
endfacet
facet normal -0.6646410823 0.7389846444 -0.1102455184
outer loop
vertex 40.16904449 -39.27217865 23.95239449
vertex 39.34047699 -40.63535309 19.81014061
vertex 39.06633759 -40.18871307 24.45671844

endloop
endfacet
facet normal -0.4194115102 0.9009419084 -0.1113451645
outer loop
vertex 39.06633759 -40.18871307 24.45671844
vertex 39.34047699 -40.63535309 19.81014061
vertex 38.49533844 -40.97718048 20.22770882

endloop
endfacet
facet normal -0.5200914741 0.8495476246 -0.08816929907
outer loop
vertex 39.06633759 -40.18871307 24.45671844
vertex 38.49533844 -40.97718048 20.22770882
vertex 37.59719086 -41.0688858 24.64206696

endloop
endfacet
facet normal -0.3462003171 0.9367746711 -0.0509772338
outer loop
vertex 37.59719086 -41.0688858 24.64206696
vertex 38.49533844 -40.97718048 20.22770882
vertex 37.57416534 -41.30106354 20.53186417

endloop
endfacet
facet normal -0.1273162067 0.9903234243 -0.05522830412
outer loop
vertex 37.59719086 -41.0688858 24.64206696
vertex 37.57416534 -41.30106354 20.53186417
vertex 35.13857269 -41.3875351 24.59600449

endloop
endfacet
facet normal 0.06005099043 0.9965556264 0.05719129369
outer loop
vertex 35.13857269 -41.3875351 24.59600449
vertex 37.57416534 -41.30106354 20.53186417
vertex 35.98888397 -41.22794342 20.92229843

endloop
endfacet
facet normal 0.550168395 0.8190065622 0.1629202366
outer loop
vertex 35.13857269 -41.3875351 24.59600449
vertex 35.98888397 -41.22794342 20.92229843
vertex 25.170784 -34.79555511 25.11827087

endloop
endfacet
facet normal 0.229687795 -0.229687795 0.9457732439
outer loop
vertex 25.170784 -34.79555511 25.11827087
vertex 35.98888397 -41.22794342 20.92229843
vertex 25.17079926 -34.79553986 25.11827087

endloop
endfacet
facet normal -0 -0.0007576995413 -0.9999997616
outer loop
vertex 40.40769196 -24.42263031 18.35508728
vertex 40.40770721 -24.42263031 18.35508728
vertex 41.18926239 -39.34259796 18.36639214

endloop
endfacet
facet normal -0.9981816411 -0.05231061205 -0.0299523063
outer loop
vertex 41.18926239 -39.34259796 18.36639214
vertex 40.40770721 -24.42263031 18.35508728
vertex 41.29608917 -39.54186249 15.15432262

endloop
endfacet
facet normal -0.8814610839 0.4686332941 -0.05838778988
outer loop
vertex 41.18926239 -39.34259796 18.36639214
vertex 41.29608917 -39.54186249 15.15432262
vertex 40.70056915 -40.21671295 18.72819138

endloop
endfacet
facet normal -0.3363069296 0.9340329766 0.1203332171
outer loop
vertex 40.70056915 -40.21671295 18.72819138
vertex 41.29608917 -39.54186249 15.15432262
vertex 39.869133 -40.01111603 14.80864143

endloop
endfacet
facet normal -0.150512442 0.9850671291 0.08359843493
outer loop
vertex 40.70056915 -40.21671295 18.72819138
vertex 39.869133 -40.01111603 14.80864143
vertex 40.08280182 -40.35851288 19.28682327

endloop
endfacet
facet normal 0.00369138713 0.9970113039 0.07716744393
outer loop
vertex 40.08280182 -40.35851288 19.28682327
vertex 39.869133 -40.01111603 14.80864143
vertex 38.77906036 -40.03440094 15.16162968

endloop
endfacet
facet normal -0.2483675033 0.9564040899 0.1536386162
outer loop
vertex 40.08280182 -40.35851288 19.28682327
vertex 38.77906036 -40.03440094 15.16162968
vertex 39.34047699 -40.63535309 19.81014061

endloop
endfacet
facet normal -0.09476369619 0.9857643843 0.1388829947
outer loop
vertex 39.34047699 -40.63535309 19.81014061
vertex 38.77906036 -40.03440094 15.16162968
vertex 37.94361115 -40.18663788 15.67212772

endloop
endfacet
facet normal -0.2823377252 0.9388456941 0.1971144676
outer loop
vertex 39.34047699 -40.63535309 19.81014061
vertex 37.94361115 -40.18663788 15.67212772
vertex 38.49533844 -40.97718048 20.22770882

endloop
endfacet
facet normal -0.095971331 0.9787040949 0.1814603508
outer loop
vertex 38.49533844 -40.97718048 20.22770882
vertex 37.94361115 -40.18663788 15.67212772
vertex 37.29889679 -40.33504486 16.13158035

endloop
endfacet
facet normal -0.257163614 0.9403955936 0.2225376368
outer loop
vertex 38.49533844 -40.97718048 20.22770882
vertex 37.29889679 -40.33504486 16.13158035
vertex 37.57416534 -41.30106354 20.53186417

endloop
endfacet
facet normal -0.08001635969 0.9725476503 0.218514353
outer loop
vertex 37.57416534 -41.30106354 20.53186417
vertex 37.29889679 -40.33504486 16.13158035
vertex 36.85884857 -40.45198822 16.49092484

endloop
endfacet
facet normal 0.09168894589 0.977650106 0.1891916543
outer loop
vertex 37.57416534 -41.30106354 20.53186417
vertex 36.85884857 -40.45198822 16.49092484
vertex 35.98888397 -41.22794342 20.92229843

endloop
endfacet
facet normal 0.4352099001 0.8684368134 0.2375076711
outer loop
vertex 35.98888397 -41.22794342 20.92229843
vertex 36.85884857 -40.45198822 16.49092484
vertex 36.00978851 -40.23297882 17.24594688

endloop
endfacet
facet normal 0.5600895882 0.7988550663 0.2193862349
outer loop
vertex 35.98888397 -41.22794342 20.92229843
vertex 36.00978851 -40.23297882 17.24594688
vertex 25.17079926 -34.79553986 25.11827087

endloop
endfacet
facet normal -0.04550157487 -0.8645299673 0.5005173683
outer loop
vertex 25.17079926 -34.79553986 25.11827087
vertex 36.00978851 -40.23297882 17.24594688
vertex 25.17081451 -34.79553986 25.11827278

endloop
endfacet
facet normal 0.1002146676 -0.2004293352 0.9745692015
outer loop
vertex 40.40770721 -24.42263031 18.35508728
vertex 40.4076767 -24.42264557 18.35508728
vertex 41.29608917 -39.54186249 15.15432262

endloop
endfacet
facet normal -0.9847406745 -0.02129875496 -0.1727198064
outer loop
vertex 41.29608917 -39.54186249 15.15432262
vertex 40.4076767 -24.42264557 18.35508728
vertex 41.37375641 -36.08083344 14.28471947

endloop
endfacet
facet normal -0.3020657599 0.2386690229 0.9229265451
outer loop
vertex 41.29608917 -39.54186249 15.15432262
vertex 41.37375641 -36.08083344 14.28471947
vertex 39.869133 -40.01111603 14.80864143

endloop
endfacet
facet normal -0.2489137053 0.2209936082 0.9429760575
outer loop
vertex 39.869133 -40.01111603 14.80864143
vertex 41.37375641 -36.08083344 14.28471947
vertex 38.75324249 -35.82830048 13.53380966

endloop
endfacet
facet normal 0.282109201 0.3477725387 0.8941301107
outer loop
vertex 39.869133 -40.01111603 14.80864143
vertex 38.75324249 -35.82830048 13.53380966
vertex 38.77906036 -40.03440094 15.16162968

endloop
endfacet
facet normal 0.05930245295 0.3606083393 0.9308301806
outer loop
vertex 38.77906036 -40.03440094 15.16162968
vertex 38.75324249 -35.82830048 13.53380966
vertex 36.80498505 -35.75286102 13.62870598

endloop
endfacet
facet normal 0.3978268504 0.4663115442 0.7901185155
outer loop
vertex 38.77906036 -40.03440094 15.16162968
vertex 36.80498505 -35.75286102 13.62870598
vertex 37.94361115 -40.18663788 15.67212772

endloop
endfacet
facet normal 0.228901118 0.4553209543 0.8603993654
outer loop
vertex 37.94361115 -40.18663788 15.67212772
vertex 36.80498505 -35.75286102 13.62870598
vertex 35.33242035 -36.01866913 14.16113281

endloop
endfacet
facet normal 0.4096083343 0.5266556144 0.7448857427
outer loop
vertex 37.94361115 -40.18663788 15.67212772
vertex 35.33242035 -36.01866913 14.16113281
vertex 37.29889679 -40.33504486 16.13158035

endloop
endfacet
facet normal 0.3255372643 0.5113741755 0.7953124642
outer loop
vertex 37.29889679 -40.33504486 16.13158035
vertex 35.33242035 -36.01866913 14.16113281
vertex 34.28369904 -36.38500214 14.82594204

endloop
endfacet
facet normal 0.428843677 0.5613141656 0.7078273296
outer loop
vertex 37.29889679 -40.33504486 16.13158035
vertex 34.28369904 -36.38500214 14.82594204
vertex 36.85884857 -40.45198822 16.49092484

endloop
endfacet
facet normal 0.3003640473 0.518055439 0.8008744717
outer loop
vertex 36.85884857 -40.45198822 16.49092484
vertex 34.28369904 -36.38500214 14.82594204
vertex 33.90732574 -36.78990936 15.22901821

endloop
endfacet
facet normal 0.5941154361 0.644628346 0.4811249673
outer loop
vertex 36.85884857 -40.45198822 16.49092484
vertex 33.90732574 -36.78990936 15.22901821
vertex 36.00978851 -40.23297882 17.24594688

endloop
endfacet
facet normal 0.8291158676 0.5532894731 0.08023522794
outer loop
vertex 36.00978851 -40.23297882 17.24594688
vertex 33.90732574 -36.78990936 15.22901821
vertex 34.04857635 -37.03388214 15.45179367

endloop
endfacet
facet normal 0.6363912821 0.6354104877 0.4373323619
outer loop
vertex 36.00978851 -40.23297882 17.24594688
vertex 34.04857635 -37.03388214 15.45179367
vertex 25.17081451 -34.79553986 25.11827278

endloop
endfacet
facet normal 0.04091870785 0.9820489883 -0.1841341853
outer loop
vertex 25.17081451 -34.79553986 25.11827278
vertex 34.04857635 -37.03388214 15.45179367
vertex 25.17079926 -34.79553986 25.11826897

endloop
endfacet
facet normal 0 0.3296290338 -0.9441105127
outer loop
vertex 40.4076767 -24.42264557 18.35508728
vertex 40.40769196 -24.42264557 18.35508728
vertex 41.37375641 -36.08083344 14.28471947

endloop
endfacet
facet normal -0.9834281206 -0.01852493174 -0.1803492606
outer loop
vertex 41.37375641 -36.08083344 14.28471947
vertex 40.40769196 -24.42264557 18.35508728
vertex 41.87625885 -26.99753571 10.61161041

endloop
endfacet
facet normal -0.2215691656 0.3760810196 0.8997055888
outer loop
vertex 41.37375641 -36.08083344 14.28471947
vertex 41.87625885 -26.99753571 10.61161041
vertex 38.75324249 -35.82830048 13.53380966

endloop
endfacet
facet normal 0.007408129051 0.3117865622 0.9501232505
outer loop
vertex 38.75324249 -35.82830048 13.53380966
vertex 41.87625885 -26.99753571 10.61161041
vertex 34.3272171 -27.28057098 10.76334953

endloop
endfacet
facet normal 0.05878063664 0.335206449 0.9403092861
outer loop
vertex 38.75324249 -35.82830048 13.53380966
vertex 34.3272171 -27.28057098 10.76334953
vertex 36.80498505 -35.75286102 13.62870598

endloop
endfacet
facet normal 0.1844060719 0.3628516793 0.9134183526
outer loop
vertex 36.80498505 -35.75286102 13.62870598
vertex 34.3272171 -27.28057098 10.76334953
vertex 29.68727875 -27.33776093 11.72280502

endloop
endfacet
facet normal 0.2448845655 0.4064884186 0.8802264929
outer loop
vertex 36.80498505 -35.75286102 13.62870598
vertex 29.68727875 -27.33776093 11.72280502
vertex 35.33242035 -36.01866913 14.16113281

endloop
endfacet
facet normal 0.5947727561 0.5511541367 0.5852133036
outer loop
vertex 35.33242035 -36.01866913 14.16113281
vertex 29.68727875 -27.33776093 11.72280502
vertex 27.61040497 -27.71044159 14.18459511

endloop
endfacet
facet normal 0.4014171064 0.370728761 0.8375108838
outer loop
vertex 35.33242035 -36.01866913 14.16113281
vertex 27.61040497 -27.71044159 14.18459511
vertex 34.28369904 -36.38500214 14.82594204

endloop
endfacet
facet normal 0.7191990614 0.5814025402 0.3804258108
outer loop
vertex 34.28369904 -36.38500214 14.82594204
vertex 27.61040497 -27.71044159 14.18459511
vertex 26.74217987 -28.40798187 16.89203072

endloop
endfacet
facet normal 0.5310822129 0.2965029478 0.7937491536
outer loop
vertex 34.28369904 -36.38500214 14.82594204
vertex 26.74217987 -28.40798187 16.89203072
vertex 33.90732574 -36.78990936 15.22901821

endloop
endfacet
facet normal 0.6714124084 0.4584167898 0.5822880864
outer loop
vertex 33.90732574 -36.78990936 15.22901821
vertex 26.74217987 -28.40798187 16.89203072
vertex 26.05527496 -29.26830292 18.36137581

endloop
endfacet
facet normal 0.719958961 0.6467338204 0.2517826557
outer loop
vertex 33.90732574 -36.78990936 15.22901821
vertex 26.05527496 -29.26830292 18.36137581
vertex 34.04857635 -37.03388214 15.45179367

endloop
endfacet
facet normal 0.5958735943 0.3409092426 0.7271282673
outer loop
vertex 34.04857635 -37.03388214 15.45179367
vertex 26.05527496 -29.26830292 18.36137581
vertex 25.45665741 -30.37805939 19.37223816

endloop
endfacet
facet normal 0.6639255285 0.5765265226 0.4762562811
outer loop
vertex 34.04857635 -37.03388214 15.45179367
vertex 25.45665741 -30.37805939 19.37223816
vertex 25.17079926 -34.79553986 25.11826897

endloop
endfacet
facet normal 0.998052597 -0.06237828732 0
outer loop
vertex 25.17079926 -34.79553986 25.11826897
vertex 25.45665741 -30.37805939 19.37223816
vertex 25.17079926 -34.79553986 25.11827087

endloop
endfacet
endsolid
