solid 
facet normal -0.704665 0.704665 -0.0830388
outer loop
vertex 49.29788971 -23.05364227 64.0226593
vertex 49.29790497 -23.05362701 64.0226593
vertex 49.41890717 -24.5510788 50.28850937

endloop
endfacet
facet normal -0.9998245835 0.01550943311 -0.01049978379
outer loop
vertex 49.41890717 -24.5510788 50.28850937
vertex 49.29790497 -23.05362701 64.0226593
vertex 49.54033661 -15.21999359 52.50871658

endloop
endfacet
facet normal 0.9615412951 -0.07535687089 0.2641204
outer loop
vertex 49.41890717 -24.5510788 50.28850937
vertex 49.54033661 -15.21999359 52.50871658
vertex 49.13779449 -24.47003937 51.33503342

endloop
endfacet
facet normal 0.9900319576 -0.05929390714 0.1277531981
outer loop
vertex 49.13779449 -24.47003937 51.33503342
vertex 49.54033661 -15.21999359 52.50871658
vertex 49.39426422 -15.97551727 53.29005432

endloop
endfacet
facet normal -0.3666274846 -0.1981431246 0.9090234041
outer loop
vertex 49.13779449 -24.47003937 51.33503342
vertex 49.39426422 -15.97551727 53.29005432
vertex 48.48413849 -24.33159637 51.10157776

endloop
endfacet
facet normal -0.5956537724 -0.1421719939 0.7905591726
outer loop
vertex 48.48413849 -24.33159637 51.10157776
vertex 49.39426422 -15.97551727 53.29005432
vertex 48.68378448 -16.8988266 52.58869171

endloop
endfacet
facet normal -0.9984285235 0.03549282998 -0.0433675386
outer loop
vertex 48.48413849 -24.33161163 51.10157394
vertex 48.68376923 -16.89885712 52.5886879
vertex 48.60187531 -24.43169403 48.30907059

endloop
endfacet
facet normal -0.9999430776 0.01066518947 0.0003622137883
outer loop
vertex 48.60187531 -24.43169403 48.30907059
vertex 48.68376923 -16.89885712 52.5886879
vertex 48.67787933 -17.33599091 49.19996262

endloop
endfacet
facet normal -0.9502707124 0.04879621789 -0.3075783253
outer loop
vertex 48.60187531 -24.43169403 48.30907059
vertex 48.67787933 -17.33599091 49.19996262
vertex 49.78246307 -25.03334808 44.56616592

endloop
endfacet
facet normal -0.9900169373 -0.06762063503 -0.1236688942
outer loop
vertex 49.78246307 -25.03334808 44.56616592
vertex 48.67787933 -17.33599091 49.19996262
vertex 49.29158783 -17.75533295 44.51628113

endloop
endfacet
facet normal -0.7971542478 -0.05788443238 -0.6009947062
outer loop
vertex 49.78246307 -25.03334808 44.56616592
vertex 49.29158783 -17.75533295 44.51628113
vertex 52.12883759 -26.49549103 41.59477997

endloop
endfacet
facet normal -0.9401084185 -0.3315914869 0.07901399583
outer loop
vertex 52.12883759 -26.49549103 41.59477997
vertex 49.29158783 -17.75533295 44.51628113
vertex 49.25563812 -18.69300079 40.15351868

endloop
endfacet
facet normal -0.9086950421 -0.3702430129 -0.1928557754
outer loop
vertex 52.12883759 -26.49549103 41.59477997
vertex 49.25563812 -18.69300079 40.15351868
vertex 53.6442337 -28.45044708 38.2076683

endloop
endfacet
facet normal -0.9000791311 -0.424459815 0.0984455198
outer loop
vertex 53.6442337 -28.45044708 38.2076683
vertex 49.25563812 -18.69300079 40.15351868
vertex 49.48126984 -20.13677216 35.99145508

endloop
endfacet
facet normal -0.8843178749 -0.3653046489 0.2907479107
outer loop
vertex 53.6442337 -28.45044708 38.2076683
vertex 49.48126984 -20.13677216 35.99145508
vertex 52.32308197 -29.14897919 33.31169128

endloop
endfacet
facet normal -0.9362968802 -0.3305396736 0.1187090129
outer loop
vertex 52.32308197 -29.14897919 33.31169128
vertex 49.48126984 -20.13677216 35.99145508
vertex 49.49233246 -21.77465057 31.51811409

endloop
endfacet
facet normal -0.8527547717 -0.211150229 0.4777289629
outer loop
vertex 52.32308197 -29.14897919 33.31169128
vertex 49.49233246 -21.77465057 31.51811409
vertex 48.95023346 -28.52069855 27.56878853

endloop
endfacet
facet normal -0.9846851826 -0.02211284079 0.1729335934
outer loop
vertex 48.95023346 -28.52069855 27.56878853
vertex 49.49233246 -21.77465057 31.51811409
vertex 48.66864777 -22.98960114 26.67269325

endloop
endfacet
facet normal -0.9258081913 0.01406653598 0.3777319193
outer loop
vertex 48.95023346 -28.52069855 27.56879425
vertex 48.66866302 -22.98958588 26.67269897
vertex 46.91718292 -28.825737 22.59721565

endloop
endfacet
facet normal -0.9684773088 0.2369237393 0.07693468034
outer loop
vertex 46.91718292 -28.825737 22.59721565
vertex 48.66866302 -22.98958588 26.67269897
vertex 48.27974701 -22.96143341 21.69020844

endloop
endfacet
facet normal -0.9738121629 0.2146937251 -0.0748090446
outer loop
vertex 46.91718292 -28.825737 22.59721565
vertex 48.27974701 -22.96143341 21.69020844
vertex 47.22005463 -28.89556122 18.45425415

endloop
endfacet
facet normal -0.9782624245 0.2014724463 -0.04910635203
outer loop
vertex 47.22005463 -28.89556122 18.45425415
vertex 48.27974701 -22.96143341 21.69020844
vertex 48.84052277 -21.46163177 16.67217827

endloop
endfacet
facet normal -0.9773138762 0.2117251456 -0.00547283655
outer loop
vertex 47.22005463 -28.89557648 18.45425606
vertex 48.84052277 -21.46163177 16.67218208
vertex 47.42670441 -28.06009674 13.87351322

endloop
endfacet
facet normal -0.9028968215 0.01120141521 0.4297113717
outer loop
vertex 47.42670441 -28.06009674 13.87351322
vertex 48.84052277 -21.46163177 16.67218208
vertex 47.42290497 -19.98069 13.65492153

endloop
endfacet
facet normal -0.5015589595 0.02316202037 0.8648133874
outer loop
vertex 47.42670441 -28.06009674 13.87351322
vertex 47.42290497 -19.98069 13.65492153
vertex 42.20590973 -27.29009247 10.82502747

endloop
endfacet
facet normal -0.07115512341 -0.3155564964 0.9462351799
outer loop
vertex 42.20590973 -27.29009247 10.82502747
vertex 47.42290497 -19.98069 13.65492153
vertex 41.65879059 -19.66300201 13.32741547

endloop
endfacet
facet normal 0.9019441009 -0.0748417601 0.4253181517
outer loop
vertex 42.20592499 -27.29009247 10.82502842
vertex 41.65879059 -19.66298676 13.32741547
vertex 38.79187775 -25.15164948 18.44126701

endloop
endfacet
facet normal 0.892909348 -0.05823322013 0.446454674
outer loop
vertex 38.79187775 -25.15164948 18.44126701
vertex 41.65879059 -19.66298676 13.32741547
vertex 38.79187775 -25.15163422 18.44126892

endloop
endfacet
facet normal 0 -0.8267878294 -0.5625138879
outer loop
vertex 49.29790497 -23.05362701 64.0226593
vertex 49.29788971 -23.05362701 64.0226593
vertex 49.54033661 -15.21999359 52.50871658

endloop
endfacet
facet normal -0.9890854955 -0.1113004833 -0.09655144811
outer loop
vertex 49.54033661 -15.21999359 52.50871658
vertex 49.29788971 -23.05362701 64.0226593
vertex 48.79761505 -11.91858673 56.31152725

endloop
endfacet
facet normal 0.9821697474 0.004472719971 0.1879431754
outer loop
vertex 49.54033661 -15.21999359 52.50871658
vertex 48.79761505 -11.91858673 56.31152725
vertex 49.39426422 -15.97551727 53.29005432

endloop
endfacet
facet normal -0.2078597397 -0.6037445664 0.7696017027
outer loop
vertex 49.39426422 -15.97551727 53.29005432
vertex 48.79761505 -11.91858673 56.31152725
vertex 48.11478424 -12.22367096 55.88776779

endloop
endfacet
facet normal -0.04923643172 -0.579856813 0.8132293224
outer loop
vertex 49.39426422 -15.97551727 53.29005432
vertex 48.11478424 -12.22367096 55.88776779
vertex 48.68378448 -16.8988266 52.58869171

endloop
endfacet
facet normal -0.8228980303 -0.3910407722 0.4122206569
outer loop
vertex 48.68378448 -16.8988266 52.58869171
vertex 48.11478424 -12.22367096 55.88776779
vertex 47.49088287 -12.83861542 54.05895233

endloop
endfacet
facet normal -0.9547121525 -0.2948708236 0.03969669342
outer loop
vertex 48.68376923 -16.89885712 52.5886879
vertex 47.49086761 -12.83863068 54.05895233
vertex 48.67787933 -17.33599091 49.19996262

endloop
endfacet
facet normal -0.9441518188 -0.3224577904 0.06781027466
outer loop
vertex 48.67787933 -17.33599091 49.19996262
vertex 47.49086761 -12.83863068 54.05895233
vertex 47.33589935 -13.28145599 49.79549789

endloop
endfacet
facet normal -0.949010849 -0.2997836173 -0.09750964493
outer loop
vertex 48.67787933 -17.33599091 49.19996262
vertex 47.33589935 -13.28145599 49.79549789
vertex 49.29158783 -17.75533295 44.51628113

endloop
endfacet
facet normal -0.8972480893 -0.4396900237 0.04022965953
outer loop
vertex 49.29158783 -17.75533295 44.51628113
vertex 47.33589935 -13.28145599 49.79549789
vertex 47.51488495 -14.15752411 44.21245575

endloop
endfacet
facet normal -0.8954280019 -0.433693856 0.1005901992
outer loop
vertex 49.29158783 -17.75533295 44.51628113
vertex 47.51488495 -14.15752411 44.21245575
vertex 49.25563812 -18.69300079 40.15351868

endloop
endfacet
facet normal -0.9107474685 -0.4078020453 0.06508847326
outer loop
vertex 49.25563812 -18.69300079 40.15351868
vertex 47.51488495 -14.15752411 44.21245575
vertex 47.72814178 -15.40265656 39.39525223

endloop
endfacet
facet normal -0.911105752 -0.4021985233 0.09012555331
outer loop
vertex 49.25563812 -18.69300079 40.15351868
vertex 47.72814178 -15.40265656 39.39525223
vertex 49.48126984 -20.13677216 35.99145508

endloop
endfacet
facet normal -0.9428769946 -0.3323158324 -0.02343346924
outer loop
vertex 49.48126984 -20.13677216 35.99145508
vertex 47.72814178 -15.40265656 39.39525223
vertex 48.39170074 -16.98787689 35.1764679

endloop
endfacet
facet normal -0.9478177428 -0.3001259863 0.1075448021
outer loop
vertex 49.48126984 -20.13677216 35.99145508
vertex 48.39170074 -16.98787689 35.1764679
vertex 49.49233246 -21.77465057 31.51811409

endloop
endfacet
facet normal -0.975112319 -0.2216870189 -0.003300379729
outer loop
vertex 49.49233246 -21.77465057 31.51811409
vertex 48.39170074 -16.98787689 35.1764679
vertex 48.77307892 -18.60141754 30.87830734

endloop
endfacet
facet normal -0.9621819854 -0.1762038618 0.2077453434
outer loop
vertex 49.49233246 -21.77465057 31.51811409
vertex 48.77307892 -18.60141754 30.87830734
vertex 48.66864777 -22.98960114 26.67269325

endloop
endfacet
facet normal -0.9905809164 -0.08172231168 0.1098674312
outer loop
vertex 48.66864777 -22.98960114 26.67269325
vertex 48.77307892 -18.60141754 30.87830734
vertex 48.35774994 -19.68436432 26.32811546

endloop
endfacet
facet normal -0.9933626056 -0.08540004492 0.07705592364
outer loop
vertex 48.66866302 -22.98958588 26.67269897
vertex 48.35778046 -19.68434906 26.32812119
vertex 48.27974701 -22.96143341 21.69020844

endloop
endfacet
facet normal -0.9745439291 -0.1750461906 0.1400820166
outer loop
vertex 48.27974701 -22.96143341 21.69020844
vertex 48.35778046 -19.68434906 26.32812119
vertex 47.74495697 -19.87979889 21.82050323

endloop
endfacet
facet normal -0.9740929008 -0.1623903662 -0.1573926359
outer loop
vertex 48.27974701 -22.96143341 21.69020844
vertex 47.74495697 -19.87979889 21.82050323
vertex 48.84052277 -21.46163177 16.67217827

endloop
endfacet
facet normal -0.5194540024 -0.8415775299 0.1480362862
outer loop
vertex 48.84052277 -21.46163177 16.67217827
vertex 47.74495697 -19.87979889 21.82050323
vertex 46.02092743 -19.50458527 17.90401268

endloop
endfacet
facet normal -0.5983867645 -0.7938287258 -0.1084859371
outer loop
vertex 48.84052277 -21.46163177 16.67218208
vertex 46.02092743 -19.50457001 17.90401649
vertex 47.42290497 -19.98069 13.65492153

endloop
endfacet
facet normal -0.2479999363 -0.9683924913 0.02668349072
outer loop
vertex 47.42290497 -19.98069 13.65492153
vertex 46.02092743 -19.50457001 17.90401649
vertex 43.83499908 -18.99991608 15.90251541

endloop
endfacet
facet normal -0.0696202442 -0.9502747655 0.3035307229
outer loop
vertex 47.42290497 -19.98069 13.65492153
vertex 43.83499908 -18.99991608 15.90251541
vertex 41.65879059 -19.66300201 13.32741547

endloop
endfacet
facet normal -0.04527222365 -0.9575119615 0.2848178744
outer loop
vertex 41.65879059 -19.66300201 13.32741547
vertex 43.83499908 -18.99991608 15.90251541
vertex 40.57076263 -18.80260468 16.04698944

endloop
endfacet
facet normal 0.9113585949 -0.105286859 0.3979197443
outer loop
vertex 41.65879059 -19.66298676 13.32741547
vertex 40.57076263 -18.80258942 16.04698944
vertex 38.79187775 -25.15163422 18.44126892

endloop
endfacet
facet normal -0.9599999785 0.2800000012 0
outer loop
vertex 38.79187775 -25.15163422 18.44126892
vertex 40.57076263 -18.80258942 16.04698944
vertex 38.79187775 -25.15163422 18.44126701

endloop
endfacet
facet normal 0.5062373281 0.5062373281 0.698174417
outer loop
vertex 49.29788971 -23.05362701 64.0226593
vertex 49.29790497 -23.05364227 64.0226593
vertex 48.79761505 -11.91858673 56.31152725

endloop
endfacet
facet normal -0.9787333012 -0.144681856 -0.1454248428
outer loop
vertex 48.79761505 -11.91858673 56.31152725
vertex 49.29790497 -23.05364227 64.0226593
vertex 48.05217743 -10.36048126 59.77830124

endloop
endfacet
facet normal 0.1322850436 -0.8931513429 0.429861933
outer loop
vertex 48.79761505 -11.91858673 56.31152725
vertex 48.05217743 -10.36048126 59.77830124
vertex 48.11478424 -12.22367096 55.88776779

endloop
endfacet
facet normal 0.02216924913 -0.9015478492 0.4321110845
outer loop
vertex 48.11478424 -12.22367096 55.88776779
vertex 48.05217743 -10.36048126 59.77830124
vertex 46.33673859 -10.86539459 58.81287003

endloop
endfacet
facet normal -0.1250918955 -0.926730752 0.3542910516
outer loop
vertex 48.11478424 -12.22367096 55.88776779
vertex 46.33673859 -10.86539459 58.81287003
vertex 47.49088287 -12.83861542 54.05895233

endloop
endfacet
facet normal -0.2149983793 -0.9193816185 0.3294132948
outer loop
vertex 47.49088287 -12.83861542 54.05895233
vertex 46.33673859 -10.86539459 58.81287003
vertex 45.14858246 -11.63202667 55.89775085

endloop
endfacet
facet normal -0.3861339688 -0.9159595966 0.1091717184
outer loop
vertex 47.49086761 -12.83863068 54.05895233
vertex 45.1485672 -11.63204193 55.89775085
vertex 47.33589935 -13.28145599 49.79549789

endloop
endfacet
facet normal -0.2736385465 -0.9487086535 0.158347249
outer loop
vertex 47.33589935 -13.28145599 49.79549789
vertex 45.1485672 -11.63204193 55.89775085
vertex 44.51706696 -12.41112518 50.13872528

endloop
endfacet
facet normal -0.2764566243 -0.9507269263 0.1403213143
outer loop
vertex 47.33589935 -13.28145599 49.79549789
vertex 44.51706696 -12.41112518 50.13872528
vertex 47.51488495 -14.15752411 44.21245575

endloop
endfacet
facet normal -0.1173945367 -0.9671179056 0.2256134748
outer loop
vertex 47.51488495 -14.15752411 44.21245575
vertex 44.51706696 -12.41112518 50.13872528
vertex 43.98595428 -13.93837738 43.31562805

endloop
endfacet
facet normal -0.121600762 -0.9622870684 0.2433450669
outer loop
vertex 47.51488495 -14.15752411 44.21245575
vertex 43.98595428 -13.93837738 43.31562805
vertex 47.72814178 -15.40265656 39.39525223

endloop
endfacet
facet normal -0.04623422772 -0.9494510293 0.3104917109
outer loop
vertex 47.72814178 -15.40265656 39.39525223
vertex 43.98595428 -13.93837738 43.31562805
vertex 43.69438934 -15.52407074 38.4233284

endloop
endfacet
facet normal -0.0545909591 -0.9374983907 0.3436812758
outer loop
vertex 47.72814178 -15.40265656 39.39525223
vertex 43.69438934 -15.52407074 38.4233284
vertex 48.39170074 -16.98787689 35.1764679

endloop
endfacet
facet normal -0.04405296221 -0.933088541 0.3569387197
outer loop
vertex 48.39170074 -16.98787689 35.1764679
vertex 43.69438934 -15.52407074 38.4233284
vertex 44.57555389 -17.03838348 34.573452

endloop
endfacet
facet normal -0.042566102 -0.9365935922 0.3478227556
outer loop
vertex 48.39170074 -16.98787689 35.1764679
vertex 44.57555389 -17.03838348 34.573452
vertex 48.77307892 -18.60141754 30.87830734

endloop
endfacet
facet normal -0.1548964828 -0.9606860876 0.2304113656
outer loop
vertex 48.77307892 -18.60141754 30.87830734
vertex 44.57555389 -17.03838348 34.573452
vertex 46.09386444 -18.21796417 30.67596245

endloop
endfacet
facet normal -0.155357331 -0.9577275515 0.2421199828
outer loop
vertex 48.77307892 -18.60141754 30.87830734
vertex 46.09386444 -18.21796417 30.67596245
vertex 48.35774994 -19.68436432 26.32811546

endloop
endfacet
facet normal -0.5331667662 -0.8459750414 0.00770714134
outer loop
vertex 48.35774994 -19.68436432 26.32811546
vertex 46.09386444 -18.21796417 30.67596245
vertex 46.95296478 -18.79656219 26.59717751

endloop
endfacet
facet normal -0.5164211988 -0.8496174812 0.1070482582
outer loop
vertex 48.35778046 -19.68434906 26.32812119
vertex 46.95296478 -18.79656219 26.59718323
vertex 47.74495697 -19.87979889 21.82050323

endloop
endfacet
facet normal -0.572555542 -0.8149250746 0.08987354487
outer loop
vertex 47.74495697 -19.87979889 21.82050323
vertex 46.95296478 -18.79656219 26.59718323
vertex 46.50946808 -18.93660736 22.50195312

endloop
endfacet
facet normal -0.5419433713 -0.8251385093 0.1595109552
outer loop
vertex 47.74495697 -19.87979889 21.82050323
vertex 46.50946808 -18.93660736 22.50195312
vertex 46.02092743 -19.50458527 17.90401268

endloop
endfacet
facet normal -0.2724986374 -0.9509493709 0.1464231461
outer loop
vertex 46.02092743 -19.50458527 17.90401268
vertex 46.50946808 -18.93660736 22.50195312
vertex 44.46431732 -18.89662933 18.95549393

endloop
endfacet
facet normal -0.3057658076 -0.9473475218 0.09507838637
outer loop
vertex 46.02092743 -19.50457001 17.90401649
vertex 44.46431732 -18.89662933 18.95549583
vertex 43.83499908 -18.99991608 15.90251541

endloop
endfacet
facet normal -0.07533668727 -0.995942533 0.04922351241
outer loop
vertex 43.83499908 -18.99991608 15.90251541
vertex 44.46431732 -18.89662933 18.95549583
vertex 42.31606293 -18.82743073 17.06768799

endloop
endfacet
facet normal -0.05694812909 -0.9956930876 0.07315818965
outer loop
vertex 43.83499908 -18.99991608 15.90251541
vertex 42.31606293 -18.82743073 17.06768799
vertex 40.57076263 -18.80260468 16.04698944

endloop
endfacet
facet normal 0.0395825468 -0.9949828386 -0.09188307077
outer loop
vertex 40.57076263 -18.80260468 16.04698944
vertex 42.31606293 -18.82743073 17.06768799
vertex 40.1046524 -18.93575287 17.28802681

endloop
endfacet
facet normal 0.9322972298 -0.134613499 0.3357097507
outer loop
vertex 40.57076263 -18.80258942 16.04698944
vertex 40.1046524 -18.93575287 17.2880249
vertex 38.79187775 -25.15163422 18.44126701

endloop
endfacet
facet normal -0.6610305309 0 -0.7503589988
outer loop
vertex 38.79187775 -25.15163422 18.44126701
vertex 40.1046524 -18.93575287 17.2880249
vertex 38.79187775 -25.15164948 18.44126701

endloop
endfacet
facet normal -0.9595261812 0 0.2816193998
outer loop
vertex 49.29788971 -23.05364227 64.0226593
vertex 49.29788971 -23.05362701 64.0226593
vertex 48.05217743 -10.36049747 59.77830124

endloop
endfacet
facet normal -0.9527308941 -0.1762501597 -0.247466743
outer loop
vertex 48.05217743 -10.36049747 59.77830124
vertex 49.29788971 -23.05362701 64.0226593
vertex 47.04885101 -10.28643036 63.58829117

endloop
endfacet
facet normal 0.2388241589 -0.9676195979 0.08170293272
outer loop
vertex 48.05217743 -10.36049747 59.77830124
vertex 47.04885101 -10.28643036 63.58829117
vertex 46.33675385 -10.86540985 58.81287003

endloop
endfacet
facet normal 0.08979353309 -0.9902318716 0.1066674888
outer loop
vertex 46.33675385 -10.86540985 58.81287003
vertex 47.04885101 -10.28643036 63.58829117
vertex 44.16585541 -10.74013519 61.80331802

endloop
endfacet
facet normal 0.1884092987 -0.9659646749 0.1772404462
outer loop
vertex 46.33675385 -10.86540985 58.81287003
vertex 44.16585541 -10.74013519 61.80331802
vertex 45.14858246 -11.63204193 55.89775085

endloop
endfacet
facet normal 0.05943493545 -0.9855309129 0.1587332785
outer loop
vertex 45.14858246 -11.63204193 55.89775085
vertex 44.16585541 -10.74013519 61.80331802
vertex 42.31932831 -11.52805328 57.60275269

endloop
endfacet
facet normal 0.04160464928 -0.9907111526 0.1294616461
outer loop
vertex 45.1485672 -11.63204193 55.89774323
vertex 42.31931305 -11.52805328 57.60274887
vertex 44.5170517 -12.41112518 50.13872147

endloop
endfacet
facet normal 0.1143557206 -0.9820715189 0.1498606056
outer loop
vertex 44.5170517 -12.41112518 50.13872147
vertex 42.31931305 -11.52805328 57.60274887
vertex 41.23964691 -12.70056915 50.74285126

endloop
endfacet
facet normal 0.1239532307 -0.9703398347 0.2075479329
outer loop
vertex 44.5170517 -12.41112518 50.13872147
vertex 41.23964691 -12.70056915 50.74285126
vertex 43.98593903 -13.93837738 43.31562042

endloop
endfacet
facet normal 0.1388859898 -0.9672293663 0.2125510871
outer loop
vertex 43.98593903 -13.93837738 43.31562042
vertex 41.23964691 -12.70056915 50.74285126
vertex 40.78108978 -14.40666962 43.27874756

endloop
endfacet
facet normal 0.1346433312 -0.9449421167 0.2982541621
outer loop
vertex 43.98593903 -13.93837738 43.31562042
vertex 40.78108978 -14.40666962 43.27874756
vertex 43.69438934 -15.524086 38.42332458

endloop
endfacet
facet normal 0.1034160107 -0.9539456964 0.2815895379
outer loop
vertex 43.69438934 -15.524086 38.42332458
vertex 40.78108978 -14.40666962 43.27874756
vertex 40.7352829 -15.94327545 38.08998489

endloop
endfacet
facet normal 0.08731923252 -0.9200742841 0.3818883002
outer loop
vertex 43.69438934 -15.524086 38.42332458
vertex 40.7352829 -15.94327545 38.08998489
vertex 44.57555389 -17.03839874 34.57344818

endloop
endfacet
facet normal 0.07055368274 -0.9279267788 0.3660247326
outer loop
vertex 44.57555389 -17.03839874 34.57344818
vertex 40.7352829 -15.94327545 38.08998489
vertex 41.97580719 -17.3449173 34.2974968

endloop
endfacet
facet normal 0.07787471265 -0.9454024434 0.3164646029
outer loop
vertex 44.57555389 -17.03839874 34.57344818
vertex 41.97580719 -17.3449173 34.2974968
vertex 46.09386444 -18.21797943 30.67596245

endloop
endfacet
facet normal 0.1178755239 -0.926486969 0.3573896289
outer loop
vertex 46.09386444 -18.21797943 30.67596245
vertex 41.97580719 -17.3449173 34.2974968
vertex 43.98671722 -18.44367218 30.7858696

endloop
endfacet
facet normal 0.1134739742 -0.9800907969 0.1629282236
outer loop
vertex 46.09386444 -18.21797943 30.67596245
vertex 43.98671722 -18.44367218 30.7858696
vertex 46.95296478 -18.79656219 26.59717751

endloop
endfacet
facet normal 0.1712767333 -0.9641832113 0.2025213987
outer loop
vertex 46.95296478 -18.79656219 26.59717751
vertex 43.98671722 -18.44367218 30.7858696
vertex 45.30135345 -18.960289 27.21449471

endloop
endfacet
facet normal 0.1069157124 -0.9940154552 0.02241355367
outer loop
vertex 46.95296478 -18.79656219 26.59718323
vertex 45.30135345 -18.960289 27.21449852
vertex 46.50945282 -18.93660736 22.50195312

endloop
endfacet
facet normal 0.09716481715 -0.9950691462 0.01990853623
outer loop
vertex 46.50945282 -18.93660736 22.50195312
vertex 45.30135345 -18.960289 27.21449852
vertex 45.08687592 -19.0555954 23.49766159

endloop
endfacet
facet normal 0.05384438485 -0.9976533651 -0.04229252785
outer loop
vertex 46.50945282 -18.93660736 22.50195312
vertex 45.08687592 -19.0555954 23.49766159
vertex 44.46430206 -18.89664459 18.95549011

endloop
endfacet
facet normal 0.1518811733 -0.9868476987 -0.05535182729
outer loop
vertex 44.46430206 -18.89664459 18.95549011
vertex 45.08687592 -19.0555954 23.49766159
vertex 43.37973785 -19.13654327 20.25659561

endloop
endfacet
facet normal 0.074182868 -0.9899138212 -0.1206958517
outer loop
vertex 44.46430206 -18.89662933 18.95549202
vertex 43.37973785 -19.13654327 20.25659752
vertex 42.31603241 -18.82744598 17.06768608

endloop
endfacet
facet normal 0.2061537802 -0.9649662375 -0.1622984409
outer loop
vertex 42.31603241 -18.82744598 17.06768608
vertex 43.37973785 -19.13654327 20.25659752
vertex 41.61215973 -19.19846344 18.37954903

endloop
endfacet
facet normal 0.02120936662 -0.9649627805 -0.2615283132
outer loop
vertex 42.31603241 -18.82744598 17.06768608
vertex 41.61215973 -19.19846344 18.37954903
vertex 40.1046524 -18.93576813 17.2880249

endloop
endfacet
facet normal 0.127434954 -0.9098149538 -0.3949644864
outer loop
vertex 40.1046524 -18.93576813 17.2880249
vertex 41.61215973 -19.19846344 18.37954903
vertex 39.99365997 -19.4679184 18.4780407

endloop
endfacet
facet normal 0.9783691764 -0.206862703 -0.001265021972
outer loop
vertex 40.1046524 -18.93576813 17.2880249
vertex 39.99367523 -19.4679184 18.4780407
vertex 38.79187775 -25.15166473 18.44126701

endloop
endfacet
facet normal -0.03123475239 0 0.9995120764
outer loop
vertex 38.79187775 -25.15166473 18.44126701
vertex 39.99367523 -19.4679184 18.4780407
vertex 38.79187775 -25.15164948 18.44126701

endloop
endfacet
facet normal 0 0.03400252759 0.9994217157
outer loop
vertex 49.29788971 -23.05362701 64.0226593
vertex 49.29790497 -23.05362701 64.0226593
vertex 47.04885101 -10.28643036 63.58829117

endloop
endfacet
facet normal -0.9121689796 -0.1733210385 -0.3713589907
outer loop
vertex 47.04885101 -10.28643036 63.58829117
vertex 49.29790497 -23.05362701 64.0226593
vertex 45.86644745 -11.64060211 67.12464905

endloop
endfacet
facet normal 0.3006334603 -0.9199157357 -0.2517431378
outer loop
vertex 47.04885101 -10.28643036 63.58829117
vertex 45.86644745 -11.64060211 67.12464905
vertex 44.16585541 -10.74013519 61.80331802

endloop
endfacet
facet normal 0.1953538656 -0.9548087716 -0.2240024209
outer loop
vertex 44.16585541 -10.74013519 61.80331802
vertex 45.86644745 -11.64060211 67.12464905
vertex 41.60076141 -11.91721344 64.58357239

endloop
endfacet
facet normal 0.4092092812 -0.9123986959 -0.008741809055
outer loop
vertex 44.16585541 -10.74013519 61.80331802
vertex 41.60076141 -11.91721344 64.58357239
vertex 42.31932831 -11.52805328 57.60275269

endloop
endfacet
facet normal 0.3243939877 -0.9457245469 -0.01933004335
outer loop
vertex 42.31932831 -11.52805328 57.60275269
vertex 41.60076141 -11.91721344 64.58357239
vertex 39.31551361 -12.59412384 59.35079193

endloop
endfacet
facet normal 0.3824830353 -0.9188717008 0.09685824811
outer loop
vertex 42.31931305 -11.52805328 57.60274887
vertex 39.31549835 -12.5941391 59.35078812
vertex 41.23964691 -12.70056915 50.74285126

endloop
endfacet
facet normal 0.3914502859 -0.9148784876 0.09881334752
outer loop
vertex 41.23964691 -12.70056915 50.74285126
vertex 39.31549835 -12.5941391 59.35078812
vertex 38.39225006 -13.79897308 51.85310745

endloop
endfacet
facet normal 0.4139646888 -0.8926016092 0.1785936505
outer loop
vertex 41.23964691 -12.70056915 50.74285126
vertex 38.39225006 -13.79897308 51.85310745
vertex 40.78108978 -14.40666962 43.27874756

endloop
endfacet
facet normal 0.435739547 -0.8810970783 0.1838448048
outer loop
vertex 40.78108978 -14.40666962 43.27874756
vertex 38.39225006 -13.79897308 51.85310745
vertex 38.56244659 -15.33319855 44.09676743

endloop
endfacet
facet normal 0.4501456022 -0.8572740555 0.2499001473
outer loop
vertex 40.78108978 -14.40666962 43.27874756
vertex 38.56244659 -15.33319855 44.09676743
vertex 40.7352829 -15.94327545 38.08998489

endloop
endfacet
facet normal 0.3537529409 -0.9090279937 0.2202883661
outer loop
vertex 40.7352829 -15.94327545 38.08998489
vertex 38.56244659 -15.33319855 44.09676743
vertex 39.32956696 -16.45590973 38.23196793

endloop
endfacet
facet normal 0.347851038 -0.8366964459 0.423011601
outer loop
vertex 40.7352829 -15.94327545 38.08998489
vertex 39.32956696 -16.45590973 38.23196793
vertex 41.97580719 -17.3449173 34.2974968

endloop
endfacet
facet normal 0.2754036188 -0.8811594248 0.3843316436
outer loop
vertex 41.97580719 -17.3449173 34.2974968
vertex 39.32956696 -16.45590973 38.23196793
vertex 40.7004776 -17.81006622 34.14492035

endloop
endfacet
facet normal 0.2653791606 -0.8663743138 0.42304793
outer loop
vertex 41.97580719 -17.3449173 34.2974968
vertex 40.7004776 -17.81006622 34.14492035
vertex 43.98671722 -18.44367218 30.7858696

endloop
endfacet
facet normal 0.3422418833 -0.8038842082 0.4864572883
outer loop
vertex 43.98671722 -18.44367218 30.7858696
vertex 40.7004776 -17.81006622 34.14492035
vertex 42.4285965 -19.05979156 30.86391449

endloop
endfacet
facet normal 0.3660895526 -0.8923916221 0.2638477385
outer loop
vertex 43.98671722 -18.44367218 30.7858696
vertex 42.4285965 -19.05979156 30.86391449
vertex 45.30135345 -18.960289 27.21449471

endloop
endfacet
facet normal 0.3912677765 -0.8753159046 0.2841331065
outer loop
vertex 45.30135345 -18.960289 27.21449471
vertex 42.4285965 -19.05979156 30.86391449
vertex 43.71439362 -19.53348541 27.63401031

endloop
endfacet
facet normal 0.3407449424 -0.9401453137 0.004444560502
outer loop
vertex 45.30135345 -18.960289 27.21449852
vertex 43.71442413 -19.53347015 27.63401413
vertex 45.08687592 -19.0555954 23.49766159

endloop
endfacet
facet normal 0.3955663741 -0.918092072 0.0251822751
outer loop
vertex 45.08687592 -19.0555954 23.49766159
vertex 43.71442413 -19.53347015 27.63401413
vertex 43.70957184 -19.62610626 24.33292007

endloop
endfacet
facet normal 0.3064911664 -0.9418298006 -0.1379125267
outer loop
vertex 45.08687592 -19.0555954 23.49766159
vertex 43.70957184 -19.62610626 24.33292007
vertex 43.37973785 -19.13654327 20.25659561

endloop
endfacet
facet normal 0.5116916299 -0.8471604586 -0.1431465298
outer loop
vertex 43.37973785 -19.13654327 20.25659561
vertex 43.70957184 -19.62610626 24.33292007
vertex 42.58872223 -19.83216095 21.54578972

endloop
endfacet
facet normal 0.3314219117 -0.9002287984 -0.2823964357
outer loop
vertex 43.37973785 -19.13654327 20.25659752
vertex 42.58870697 -19.83217621 21.54579163
vertex 41.61215973 -19.19846344 18.37954903

endloop
endfacet
facet normal 0.502936244 -0.804438293 -0.316123575
outer loop
vertex 41.61215973 -19.19846344 18.37954903
vertex 42.58870697 -19.83217621 21.54579163
vertex 41.41126251 -19.93498993 19.93416786

endloop
endfacet
facet normal 0.1252531111 -0.9027574062 -0.4115103185
outer loop
vertex 41.61215973 -19.19846344 18.37954903
vertex 41.41126251 -19.93498993 19.93416786
vertex 39.99365997 -19.4679184 18.4780407

endloop
endfacet
facet normal 0.2559243143 -0.8198859096 -0.5121423006
outer loop
vertex 39.99365997 -19.4679184 18.4780407
vertex 41.41126251 -19.93498993 19.93416786
vertex 40.20046234 -20.29224396 19.90104103

endloop
endfacet
facet normal 0.9469563961 -0.1985947043 -0.2526531816
outer loop
vertex 39.99367523 -19.4679184 18.4780407
vertex 40.20046234 -20.29224396 19.90103912
vertex 38.79187775 -25.15164948 18.44126701

endloop
endfacet
facet normal -0.3637813628 0.3599113226 -0.8591431975
outer loop
vertex 38.79187775 -25.15164948 18.44126701
vertex 40.20046234 -20.29224396 19.90103912
vertex 38.79189301 -25.15163422 18.44126701

endloop
endfacet
facet normal -0.2003982514 0.2003982514 -0.959000051
outer loop
vertex 49.29790497 -23.05362701 64.0226593
vertex 49.29788971 -23.05364227 64.0226593
vertex 45.86644745 -11.64060211 67.12464905

endloop
endfacet
facet normal -0.8605417609 -0.124481909 -0.4939353466
outer loop
vertex 45.86644745 -11.64060211 67.12464905
vertex 49.29788971 -23.05364227 64.0226593
vertex 44.75354767 -14.4916153 69.78207397

endloop
endfacet
facet normal 0.396615088 -0.7039772272 -0.5891626477
outer loop
vertex 45.86644745 -11.64060211 67.12464905
vertex 44.75354767 -14.4916153 69.78207397
vertex 41.60076141 -11.91721344 64.58357239

endloop
endfacet
facet normal 0.3091202378 -0.7642838359 -0.5659638047
outer loop
vertex 41.60076141 -11.91721344 64.58357239
vertex 44.75354767 -14.4916153 69.78207397
vertex 39.06577301 -14.37398529 66.51665497

endloop
endfacet
facet normal 0.6161298752 -0.7691737413 -0.169574827
outer loop
vertex 41.60076141 -11.91721344 64.58357239
vertex 39.06577301 -14.37398529 66.51665497
vertex 39.31551361 -12.59412384 59.35079193

endloop
endfacet
facet normal 0.5007016659 -0.8440153599 -0.192186892
outer loop
vertex 39.31551361 -12.59412384 59.35079193
vertex 39.06577301 -14.37398529 66.51665497
vertex 36.39162445 -14.58579254 60.47991562

endloop
endfacet
facet normal 0.5776125789 -0.814125061 0.05969922617
outer loop
vertex 39.31549835 -12.5941391 59.35078812
vertex 36.39160919 -14.5858078 60.4799118
vertex 38.39225006 -13.79897308 51.85310745

endloop
endfacet
facet normal 0.5746210217 -0.8163042068 0.05880669132
outer loop
vertex 38.39225006 -13.79897308 51.85310745
vertex 36.39160919 -14.5858078 60.4799118
vertex 35.86989594 -15.50814056 52.77472305

endloop
endfacet
facet normal 0.5943990946 -0.7863026857 0.1685756892
outer loop
vertex 38.39225006 -13.79897308 51.85310745
vertex 35.86989594 -15.50814056 52.77472305
vertex 38.56244659 -15.33319855 44.09676743

endloop
endfacet
facet normal 0.6925290227 -0.6928491592 0.2009068727
outer loop
vertex 38.56244659 -15.33319855 44.09676743
vertex 35.86989594 -15.50814056 52.77472305
vertex 36.74251556 -16.91213226 44.92497253

endloop
endfacet
facet normal 0.6946389079 -0.6842931509 0.2218549848
outer loop
vertex 38.56244659 -15.33319855 44.09676743
vertex 36.74251556 -16.91213226 44.92497253
vertex 39.32956696 -16.45590973 38.23196793

endloop
endfacet
facet normal 0.7538645267 -0.6076194048 0.249973923
outer loop
vertex 39.32956696 -16.45590973 38.23196793
vertex 36.74251556 -16.91213226 44.92497253
vertex 38.07361603 -17.86121368 38.60371399

endloop
endfacet
facet normal 0.728369236 -0.5390819311 0.4229288697
outer loop
vertex 39.32956696 -16.45590973 38.23196793
vertex 38.07361603 -17.86121368 38.60371399
vertex 40.7004776 -17.81006622 34.14492035

endloop
endfacet
facet normal 0.731374383 -0.5335428715 0.4247628152
outer loop
vertex 40.7004776 -17.81006622 34.14492035
vertex 38.07361603 -17.86121368 38.60371399
vertex 39.71398163 -19.03417206 34.30591583

endloop
endfacet
facet normal 0.6864242554 -0.4815110564 0.5449485183
outer loop
vertex 40.7004776 -17.81006622 34.14492035
vertex 39.71398163 -19.03417206 34.30591583
vertex 42.4285965 -19.05979156 30.86391449

endloop
endfacet
facet normal 0.6680122018 -0.5216221213 0.5307260156
outer loop
vertex 42.4285965 -19.05979156 30.86391449
vertex 39.71398163 -19.03417206 34.30591583
vertex 41.36226654 -20.20478058 31.08073044

endloop
endfacet
facet normal 0.7135257721 -0.5942177176 0.3711956739
outer loop
vertex 42.4285965 -19.05979156 30.86391449
vertex 41.36226654 -20.20478058 31.08073044
vertex 43.71439362 -19.53348541 27.63401031

endloop
endfacet
facet normal 0.6444957852 -0.7019642591 0.3031028509
outer loop
vertex 43.71439362 -19.53348541 27.63401031
vertex 41.36226654 -20.20478058 31.08073044
vertex 42.38530731 -20.64121246 27.89466667

endloop
endfacet
facet normal 0.642473042 -0.7660325766 0.02055221796
outer loop
vertex 43.71442413 -19.53347015 27.63401413
vertex 42.38532257 -20.6411972 27.89467049
vertex 43.70957184 -19.62610626 24.33292007

endloop
endfacet
facet normal 0.5756149888 -0.8175007105 -0.01897374913
outer loop
vertex 43.70957184 -19.62610626 24.33292007
vertex 42.38532257 -20.6411972 27.89467049
vertex 42.38182831 -20.57268524 24.83676529

endloop
endfacet
facet normal 0.5343621969 -0.8312114477 -0.1534426361
outer loop
vertex 43.70957184 -19.62610626 24.33292007
vertex 42.38182831 -20.57268524 24.83676529
vertex 42.58872223 -19.83216095 21.54578972

endloop
endfacet
facet normal 0.6404450536 -0.756911993 -0.130054906
outer loop
vertex 42.58872223 -19.83216095 21.54578972
vertex 42.38182831 -20.57268524 24.83676529
vertex 41.79964447 -20.67350006 22.5565834

endloop
endfacet
facet normal 0.4860988259 -0.8197515011 -0.3028452992
outer loop
vertex 42.58870697 -19.83217621 21.54579163
vertex 41.79964447 -20.67350006 22.55658531
vertex 41.41126251 -19.93498993 19.93416786

endloop
endfacet
facet normal 0.6860403419 -0.6674568653 -0.2895684838
outer loop
vertex 41.41126251 -19.93498993 19.93416786
vertex 41.79964447 -20.67350006 22.55658531
vertex 41.25621796 -20.77736664 21.50852203

endloop
endfacet
facet normal 0.2658207417 -0.8606430292 -0.4343187809
outer loop
vertex 41.41126251 -19.93498993 19.93416786
vertex 41.25621796 -20.77736664 21.50852203
vertex 40.20046234 -20.29224396 19.90104103

endloop
endfacet
facet normal 0.5132529736 -0.668097496 -0.5387179852
outer loop
vertex 40.20046234 -20.29224396 19.90104103
vertex 41.25621796 -20.77736664 21.50852203
vertex 40.4418869 -21.31449127 21.39880562

endloop
endfacet
facet normal 0.9411732554 -0.1885767728 -0.2804134786
outer loop
vertex 40.20046234 -20.29224396 19.90103912
vertex 40.4418869 -21.31449127 21.39880753
vertex 38.79189301 -25.15163422 18.44126701

endloop
endfacet
facet normal 0.6230633259 -0.6296916604 0.4639833272
outer loop
vertex 38.79189301 -25.15163422 18.44126701
vertex 40.4418869 -21.31449127 21.39880753
vertex 38.79187775 -25.15164948 18.44126701

endloop
endfacet
facet normal 0 0.5581437349 -0.829744339
outer loop
vertex 49.29788971 -23.05364227 64.0226593
vertex 49.29787445 -23.05364227 64.0226593
vertex 44.75354767 -14.4916153 69.78207397

endloop
endfacet
facet normal -0.762425065 0.03013648465 -0.6463744044
outer loop
vertex 44.75354767 -14.4916153 69.78207397
vertex 49.29787445 -23.05364227 64.0226593
vertex 43.9233017 -18.96218109 70.552948

endloop
endfacet
facet normal 0.4803006351 -0.2349148542 -0.8450599313
outer loop
vertex 44.75354767 -14.4916153 69.78207397
vertex 43.9233017 -18.96218109 70.552948
vertex 39.06577301 -14.37398529 66.51665497

endloop
endfacet
facet normal 0.3903364539 -0.3395739496 -0.8557609916
outer loop
vertex 39.06577301 -14.37398529 66.51665497
vertex 43.9233017 -18.96218109 70.552948
vertex 37.01250458 -18.23406219 67.11181641

endloop
endfacet
facet normal 0.807262063 -0.4819312692 -0.340690881
outer loop
vertex 39.06577301 -14.37398529 66.51665497
vertex 37.01250458 -18.23406219 67.11181641
vertex 36.39162445 -14.58579254 60.47991562

endloop
endfacet
facet normal 0.7049058676 -0.5915338993 -0.3914017379
outer loop
vertex 36.39162445 -14.58579254 60.47991562
vertex 37.01250458 -18.23406219 67.11181641
vertex 33.8274765 -17.76280975 60.66343689

endloop
endfacet
facet normal 0.7786039114 -0.6271176338 0.02234899439
outer loop
vertex 36.39160919 -14.5858078 60.4799118
vertex 33.82746124 -17.76280975 60.66343689
vertex 35.86989594 -15.50814056 52.77472305

endloop
endfacet
facet normal 0.7295470834 -0.6838989258 -0.006580735557
outer loop
vertex 35.86989594 -15.50814056 52.77472305
vertex 33.82746124 -17.76280975 60.66343689
vertex 33.51267242 -18.0263443 53.15329361

endloop
endfacet
facet normal 0.7302689552 -0.6538015604 0.1981182545
outer loop
vertex 35.86989594 -15.50814056 52.77472305
vertex 33.51267242 -18.0263443 53.15329361
vertex 36.74251556 -16.91213226 44.92497253

endloop
endfacet
facet normal 0.7652769685 -0.6055192351 0.2183978409
outer loop
vertex 36.74251556 -16.91213226 44.92497253
vertex 33.51267242 -18.0263443 53.15329361
vertex 34.91501617 -19.03607941 45.43986893

endloop
endfacet
facet normal 0.7630790472 -0.5959284902 0.2501589954
outer loop
vertex 36.74251556 -16.91213226 44.92497253
vertex 34.91501617 -19.03607941 45.43986893
vertex 38.07361603 -17.86121368 38.60371399

endloop
endfacet
facet normal 0.8551498055 -0.40318349 0.3258248866
outer loop
vertex 38.07361603 -17.86121368 38.60371399
vertex 34.91501617 -19.03607941 45.43986893
vertex 36.88990021 -19.84160614 39.25987244

endloop
endfacet
facet normal 0.8343757391 -0.3605987728 0.4168759584
outer loop
vertex 38.07361603 -17.86121368 38.60371399
vertex 36.88990021 -19.84160614 39.25987244
vertex 39.71398163 -19.03417206 34.30591583

endloop
endfacet
facet normal 0.8610975742 -0.2301399559 0.4533723295
outer loop
vertex 39.71398163 -19.03417206 34.30591583
vertex 36.88990021 -19.84160614 39.25987244
vertex 38.91613007 -20.73464203 34.95809937

endloop
endfacet
facet normal 0.8405928612 -0.2015764117 0.5027629137
outer loop
vertex 39.71398163 -19.03417206 34.30591583
vertex 38.91613007 -20.73464203 34.95809937
vertex 41.36226654 -20.20478058 31.08073044

endloop
endfacet
facet normal 0.8150402308 -0.3424189389 0.4673955739
outer loop
vertex 41.36226654 -20.20478058 31.08073044
vertex 38.91613007 -20.73464203 34.95809937
vertex 40.48880768 -21.64562225 31.54828453

endloop
endfacet
facet normal 0.8510257602 -0.4090474844 0.3292951286
outer loop
vertex 41.36226654 -20.20478058 31.08073044
vertex 40.48880768 -21.64562225 31.54828453
vertex 42.38530731 -20.64121246 27.89466667

endloop
endfacet
facet normal 0.7882605791 -0.5599073768 0.2552427649
outer loop
vertex 42.38530731 -20.64121246 27.89466667
vertex 40.48880768 -21.64562225 31.54828453
vertex 41.24793243 -22.10680389 28.19223595

endloop
endfacet
facet normal 0.7884809375 -0.6148839593 -0.01467739604
outer loop
vertex 42.38532257 -20.6411972 27.89467049
vertex 41.24793243 -22.10680389 28.19223976
vertex 42.38182831 -20.57268524 24.83676529

endloop
endfacet
facet normal 0.8261069059 -0.563094914 0.02171524242
outer loop
vertex 42.38182831 -20.57268524 24.83676529
vertex 41.24793243 -22.10680389 28.19223976
vertex 41.31804657 -22.11917877 25.20401573

endloop
endfacet
facet normal 0.7910124063 -0.5859203935 -0.1760584116
outer loop
vertex 42.38182831 -20.57268524 24.83676529
vertex 41.31804657 -22.11917877 25.20401573
vertex 41.79964447 -20.67350006 22.5565834

endloop
endfacet
facet normal 0.8831674457 -0.4602148831 -0.09065058082
outer loop
vertex 41.79964447 -20.67350006 22.5565834
vertex 41.31804657 -22.11917877 25.20401573
vertex 41.08841705 -22.18488312 23.30040741

endloop
endfacet
facet normal 0.7712133527 -0.5336944461 -0.3469873965
outer loop
vertex 41.79964447 -20.67350006 22.55658531
vertex 41.08840179 -22.18488312 23.30040741
vertex 41.25621796 -20.77736664 21.50852203

endloop
endfacet
facet normal -0.1568887979 -0.7694729567 -0.6191100478
outer loop
vertex 41.25621796 -20.77736664 21.50852203
vertex 41.08840179 -22.18488312 23.30040741
vertex 40.94237518 -22.11348724 23.2486763

endloop
endfacet
facet normal 0.5326136351 -0.7149771452 -0.4529131353
outer loop
vertex 41.25621796 -20.77736664 21.50852203
vertex 40.94237518 -22.11348724 23.2486763
vertex 40.4418869 -21.31449127 21.39880562

endloop
endfacet
facet normal 0.6043310165 -0.6588092446 -0.4480564594
outer loop
vertex 40.4418869 -21.31449127 21.39880562
vertex 40.94237518 -22.11348724 23.2486763
vertex 40.58617401 -22.57202911 23.44246483

endloop
endfacet
facet normal 0.9463489056 -0.2410939187 -0.2151682824
outer loop
vertex 40.4418869 -21.31449127 21.39880753
vertex 40.58617401 -22.57202911 23.44246674
vertex 38.79187775 -25.15164948 18.44126701

endloop
endfacet
facet normal -nan(ind) -nan(ind) -nan(ind)
outer loop
vertex 38.79187775 -25.15164948 18.44126701
vertex 40.58617401 -22.57202911 23.44246674
vertex 38.79187775 -25.15164948 18.44126701

endloop
endfacet
facet normal 0 -0.847412765 0.5309346318
outer loop
vertex 49.29787445 -23.05364227 64.0226593
vertex 49.29788971 -23.05364227 64.0226593
vertex 43.9233017 -18.96218109 70.552948

endloop
endfacet
facet normal -0.7775410414 -0.01813928969 -0.628570497
outer loop
vertex 43.9233017 -18.96218109 70.552948
vertex 49.29788971 -23.05364227 64.0226593
vertex 43.55290985 -23.92539215 71.15435028

endloop
endfacet
facet normal 0.4294632077 -0.1401524991 -0.8921427131
outer loop
vertex 43.9233017 -18.96218109 70.552948
vertex 43.55290985 -23.92539215 71.15435028
vertex 37.01250458 -18.23406219 67.11181641

endloop
endfacet
facet normal 0.4649359584 -0.09121242166 -0.8806331754
outer loop
vertex 37.01250458 -18.23406219 67.11181641
vertex 43.55290985 -23.92539215 71.15435028
vertex 36.01883698 -22.91059113 67.07157898

endloop
endfacet
facet normal 0.8762079477 -0.1823380589 -0.4461080432
outer loop
vertex 37.01250458 -18.23406219 67.11181641
vertex 36.01883698 -22.91059113 67.07157898
vertex 33.8274765 -17.76280975 60.66343689

endloop
endfacet
facet normal 0.8227864504 -0.2713844776 -0.4993724823
outer loop
vertex 33.8274765 -17.76280975 60.66343689
vertex 36.01883698 -22.91059113 67.07157898
vertex 32.37996674 -21.94634247 60.55200577

endloop
endfacet
facet normal 0.944888711 -0.3261784315 -0.02815938927
outer loop
vertex 33.82746124 -17.76280975 60.66343689
vertex 32.37996674 -21.94635773 60.55200195
vertex 33.51267242 -18.0263443 53.15329361

endloop
endfacet
facet normal 0.8924986124 -0.4405461252 -0.09677480161
outer loop
vertex 33.51267242 -18.0263443 53.15329361
vertex 32.37996674 -21.94635773 60.55200195
vertex 31.83467865 -21.44513702 53.24142456

endloop
endfacet
facet normal 0.8787934184 -0.4257693589 0.2155054063
outer loop
vertex 33.51267242 -18.0263443 53.15329361
vertex 31.83467865 -21.44513702 53.24142456
vertex 34.91501617 -19.03607941 45.43986893

endloop
endfacet
facet normal 0.8746169209 -0.436748594 0.2104661018
outer loop
vertex 34.91501617 -19.03607941 45.43986893
vertex 31.83467865 -21.44513702 53.24142456
vertex 33.48900604 -21.69013214 45.85826874

endloop
endfacet
facet normal 0.8533084989 -0.4071255624 0.3257503211
outer loop
vertex 34.91501617 -19.03607941 45.43986893
vertex 33.48900604 -21.69013214 45.85826874
vertex 36.88990021 -19.84160614 39.25987244

endloop
endfacet
facet normal 0.8946210146 -0.1680508703 0.4140195251
outer loop
vertex 36.88990021 -19.84160614 39.25987244
vertex 33.48900604 -21.69013214 45.85826874
vertex 36.01920319 -22.0855484 40.23047256

endloop
endfacet
facet normal 0.8822449446 -0.1491875201 0.4465276897
outer loop
vertex 36.88990021 -19.84160614 39.25987244
vertex 36.01920319 -22.0855484 40.23047256
vertex 38.91613007 -20.73464203 34.95809937

endloop
endfacet
facet normal 0.8805306554 -0.0477415286 0.4715786576
outer loop
vertex 38.91613007 -20.73464203 34.95809937
vertex 36.01920319 -22.0855484 40.23047256
vertex 38.25173187 -22.75881195 35.99374008

endloop
endfacet
facet normal 0.8981050253 -0.07289085537 0.433698535
outer loop
vertex 38.91613007 -20.73464203 34.95809937
vertex 38.25173187 -22.75881195 35.99374008
vertex 40.48880768 -21.64562225 31.54828453

endloop
endfacet
facet normal 0.8336240053 -0.4611242115 0.3040321469
outer loop
vertex 40.48880768 -21.64562225 31.54828453
vertex 38.25173187 -22.75881195 35.99374008
vertex 39.21248627 -23.57689667 32.1186676

endloop
endfacet
facet normal 0.839556396 -0.4792989194 0.2557686269
outer loop
vertex 40.48880768 -21.64562225 31.54828453
vertex 39.21248627 -23.57689667 32.1186676
vertex 41.24793243 -22.10680389 28.19223595

endloop
endfacet
facet normal 0.7525322437 -0.6412395835 0.1500235498
outer loop
vertex 41.24793243 -22.10680389 28.19223595
vertex 39.21248627 -23.57689667 32.1186676
vertex 39.42240143 -24.20468903 28.38236618

endloop
endfacet
facet normal 0.7551360726 -0.655249536 0.02043164708
outer loop
vertex 41.24793243 -22.10680389 28.19223976
vertex 39.42241669 -24.20467377 28.38237
vertex 41.31804657 -22.11917877 25.20401573

endloop
endfacet
facet normal 0.885972023 -0.3602264524 0.2920456231
outer loop
vertex 41.31804657 -22.11917877 25.20401573
vertex 39.42241669 -24.20467377 28.38237
vertex 40.20368195 -24.59329987 25.53290939

endloop
endfacet
facet normal 0.902944684 -0.4192493856 -0.09445022792
outer loop
vertex 41.31804657 -22.11917877 25.20401573
vertex 40.20368195 -24.59329987 25.53290939
vertex 41.08841705 -22.18488312 23.30040741

endloop
endfacet
facet normal 0.8622313142 -0.4763500392 -0.1721848994
outer loop
vertex 41.08841705 -22.18488312 23.30040741
vertex 40.20368195 -24.59329987 25.53290939
vertex 39.84673309 -24.7698288 24.23382378

endloop
endfacet
facet normal 0.1310558319 -0.3917928934 -0.9106715918
outer loop
vertex 41.08840179 -22.18488312 23.30040741
vertex 39.84673309 -24.7698288 24.23382378
vertex 40.94237518 -22.11348724 23.2486763

endloop
endfacet
facet normal -0.9208985567 0.3890156746 0.02475087531
outer loop
vertex 40.94237518 -22.11348724 23.2486763
vertex 39.84673309 -24.7698288 24.23382378
vertex 39.85660553 -24.80558014 25.16305733

endloop
endfacet
facet normal 0.47517097 -0.6291040778 -0.6151751876
outer loop
vertex 40.94237518 -22.11348724 23.2486763
vertex 39.85660553 -24.80558014 25.16305733
vertex 40.58617401 -22.57202911 23.44246483

endloop
endfacet
facet normal -0.02314223349 0.6148320436 0.7883183956
outer loop
vertex 40.58617401 -22.57202911 23.44246483
vertex 39.85660553 -24.80558014 25.16305733
vertex 40.44322968 -25.1745224 25.46802711

endloop
endfacet
facet normal 0.9481127262 -0.2260691822 -0.2235508561
outer loop
vertex 40.58617401 -22.57202911 23.44246674
vertex 40.44322968 -25.1745224 25.46802902
vertex 38.79187775 -25.15164948 18.44126701

endloop
endfacet
facet normal -0.6985538602 0.6959325075 0.1664344668
outer loop
vertex 38.79187775 -25.15164948 18.44126701
vertex 40.44322968 -25.1745224 25.46802902
vertex 38.79189301 -25.15163422 18.44126701

endloop
endfacet
facet normal 0.6366809607 -0.6366809607 0.4350571036
outer loop
vertex 49.29788971 -23.05364227 64.0226593
vertex 49.29790497 -23.05362701 64.0226593
vertex 43.55290985 -23.92539215 71.15435028

endloop
endfacet
facet normal -0.775796771 -0.03932148963 -0.629756391
outer loop
vertex 43.55290985 -23.92539215 71.15435028
vertex 49.29790497 -23.05362701 64.0226593
vertex 43.75009918 -28.41385651 71.19168854

endloop
endfacet
facet normal 0.4778265953 0.01368537918 -0.8783476353
outer loop
vertex 43.55290985 -23.92539215 71.15435028
vertex 43.75009918 -28.41385651 71.19168854
vertex 36.01883698 -22.91059113 67.07157898

endloop
endfacet
facet normal 0.5522492528 0.1638537645 -0.8174183369
outer loop
vertex 36.01883698 -22.91059113 67.07157898
vertex 43.75009918 -28.41385651 71.19168854
vertex 36.39066315 -27.28743744 66.44543457

endloop
endfacet
facet normal 0.8732053638 0.1409228593 -0.466533035
outer loop
vertex 36.01883698 -22.91059113 67.07157898
vertex 36.39066315 -27.28743744 66.44543457
vertex 32.37996674 -21.94634247 60.55200577

endloop
endfacet
facet normal 0.8471338749 0.05268166959 -0.5287616253
outer loop
vertex 32.37996674 -21.94634247 60.55200577
vertex 36.39066315 -27.28743744 66.44543457
vertex 32.50693512 -26.30654144 60.32100677

endloop
endfacet
facet normal 0.9968562722 0.03284474835 -0.07210256159
outer loop
vertex 32.37996674 -21.94635773 60.55200195
vertex 32.50691986 -26.3065567 60.32100296
vertex 31.83467865 -21.44513702 53.24142456

endloop
endfacet
facet normal 0.9825888276 -0.09588114917 -0.1591415554
outer loop
vertex 31.83467865 -21.44513702 53.24142456
vertex 32.50691986 -26.3065567 60.32100296
vertex 31.44197845 -25.44054413 53.22396469

endloop
endfacet
facet normal 0.9705763459 -0.09636025876 0.2206724435
outer loop
vertex 31.83467865 -21.44513702 53.24142456
vertex 31.44197845 -25.44054413 53.22396469
vertex 33.48900604 -21.69013214 45.85826874

endloop
endfacet
facet normal 0.9706304669 -0.1005388796 0.2185598165
outer loop
vertex 33.48900604 -21.69013214 45.85826874
vertex 31.44197845 -25.44054413 53.22396469
vertex 33.06745148 -24.80120087 46.29929352

endloop
endfacet
facet normal 0.9084550738 -0.06455483288 0.4129674435
outer loop
vertex 33.48900604 -21.69013214 45.85826874
vertex 33.06745148 -24.80120087 46.29929352
vertex 36.01920319 -22.0855484 40.23047256

endloop
endfacet
facet normal 0.8702197671 0.1212449595 0.4775114655
outer loop
vertex 36.01920319 -22.0855484 40.23047256
vertex 33.06745148 -24.80120087 46.29929352
vertex 35.82741547 -24.6472702 41.23043442

endloop
endfacet
facet normal 0.8864498138 0.1091965586 0.4497585893
outer loop
vertex 36.01920319 -22.0855484 40.23047256
vertex 35.82741547 -24.6472702 41.23043442
vertex 38.25173187 -22.75881195 35.99374008

endloop
endfacet
facet normal 0.881380856 0.1288428307 0.4544967115
outer loop
vertex 38.25173187 -22.75881195 35.99374008
vertex 35.82741547 -24.6472702 41.23043442
vertex 38.10164642 -25.24877167 36.99065781

endloop
endfacet
facet normal 0.9717182517 0.03493402526 0.2335449159
outer loop
vertex 38.25173187 -22.75881195 35.99374008
vertex 38.10164642 -25.24877167 36.99065781
vertex 39.21248627 -23.57689667 32.1186676

endloop
endfacet
facet normal 0.9591189623 -0.2498285025 0.1329529732
outer loop
vertex 39.21248627 -23.57689667 32.1186676
vertex 38.10164642 -25.24877167 36.99065781
vertex 38.41640472 -26.35054779 32.64968109

endloop
endfacet
facet normal 0.9614190459 -0.2573236227 0.09725185484
outer loop
vertex 39.21248627 -23.57689667 32.1186676
vertex 38.41640472 -26.35054779 32.64968109
vertex 39.42240143 -24.20468903 28.38236618

endloop
endfacet
facet normal 0.9114311934 -0.411374718 0.008001463488
outer loop
vertex 39.42240143 -24.20468903 28.38236618
vertex 38.41640472 -26.35054779 32.64968109
vertex 37.97574615 -27.40660858 28.54958916

endloop
endfacet
facet normal 0.8771020174 -0.3810070157 0.2924478352
outer loop
vertex 39.42241669 -24.20467377 28.38237
vertex 37.97576141 -27.40660858 28.54959488
vertex 40.20368195 -24.59329987 25.53290939

endloop
endfacet
facet normal 0.8675915599 -0.1978684962 0.4562159181
outer loop
vertex 40.20368195 -24.59329987 25.53290939
vertex 37.97576141 -27.40660858 28.54959488
vertex 39.31395721 -28.11522675 25.69739151

endloop
endfacet
facet normal 0.9421116114 -0.2485128045 -0.2250936776
outer loop
vertex 40.20368195 -24.59329987 25.53290939
vertex 39.31395721 -28.11522675 25.69739151
vertex 39.84673309 -24.7698288 24.23382378

endloop
endfacet
facet normal 0.9107297063 -0.2784725428 -0.3049989343
outer loop
vertex 39.84673309 -24.7698288 24.23382378
vertex 39.31395721 -28.11522675 25.69739151
vertex 38.85271454 -28.59511566 24.75826836

endloop
endfacet
facet normal -0.9669891596 0.2540278733 0.0200470686
outer loop
vertex 39.84673309 -24.7698288 24.23382378
vertex 38.85269928 -28.59513092 24.75826645
vertex 39.85660553 -24.80558014 25.16305733

endloop
endfacet
facet normal -0.9519091249 0.2306303978 0.20168899
outer loop
vertex 39.85660553 -24.80558014 25.16305733
vertex 38.85269928 -28.59513092 24.75826645
vertex 38.97254181 -29.11484528 25.91817665

endloop
endfacet
facet normal -0.3320654631 0.2284901887 0.915163815
outer loop
vertex 39.85660553 -24.80558014 25.16305733
vertex 38.97254181 -29.11484528 25.91817665
vertex 40.44322968 -25.1745224 25.46802711

endloop
endfacet
facet normal -0.1797154993 0.1776119471 0.9675517678
outer loop
vertex 40.44322968 -25.1745224 25.46802711
vertex 38.97254181 -29.11484528 25.91817665
vertex 40.29773712 -29.33020782 26.20385551

endloop
endfacet
facet normal 0.9707258344 -0.07442221045 -0.2283695489
outer loop
vertex 40.44322968 -25.1745224 25.46802902
vertex 40.29773712 -29.33019257 26.20385742
vertex 38.79189301 -25.15163422 18.44126701

endloop
endfacet
facet normal -nan(ind) -nan(ind) -nan(ind)
outer loop
vertex 38.79189301 -25.15163422 18.44126701
vertex 40.29773712 -29.33019257 26.20385742
vertex 38.79189301 -25.15163422 18.44126701

endloop
endfacet
facet normal -0.7908524275 0 -0.6120069027
outer loop
vertex 49.29790497 -23.05362701 64.0226593
vertex 49.29790497 -23.05364227 64.0226593
vertex 43.75009918 -28.41385651 71.19168854

endloop
endfacet
facet normal -0.8398263454 0.1882063299 -0.5091856718
outer loop
vertex 43.75009918 -28.41385651 71.19168854
vertex 49.29790497 -23.05364227 64.0226593
vertex 44.39705658 -32.25235748 68.70583344

endloop
endfacet
facet normal 0.5165626407 0.5250783563 -0.6763547659
outer loop
vertex 43.75009918 -28.41385651 71.19168854
vertex 44.39705658 -32.25235748 68.70583344
vertex 36.39066315 -27.28743744 66.44543457

endloop
endfacet
facet normal 0.5227855444 0.5443751812 -0.656011343
outer loop
vertex 36.39066315 -27.28743744 66.44543457
vertex 44.39705658 -32.25235748 68.70583344
vertex 37.81002045 -30.74922943 64.70385742

endloop
endfacet
facet normal 0.7598596215 0.5126547217 -0.3997479379
outer loop
vertex 36.39066315 -27.28743744 66.44543457
vertex 37.81002045 -30.74922943 64.70385742
vertex 32.50693512 -26.30654144 60.32100677

endloop
endfacet
facet normal 0.7594166994 0.4012510478 -0.5121366978
outer loop
vertex 32.50693512 -26.30654144 60.32100677
vertex 37.81002045 -30.74922943 64.70385742
vertex 33.95824432 -30.04332733 59.54535294

endloop
endfacet
facet normal 0.9215735197 0.3770781159 -0.09227333218
outer loop
vertex 32.50691986 -26.3065567 60.32100296
vertex 33.95822906 -30.04334259 59.54534912
vertex 31.44197845 -25.44054413 53.22396469

endloop
endfacet
facet normal 0.9459238052 0.2698282301 -0.180058077
outer loop
vertex 31.44197845 -25.44054413 53.22396469
vertex 33.95822906 -30.04334259 59.54534912
vertex 32.51546478 -29.32694244 53.03944778

endloop
endfacet
facet normal 0.9379090667 0.2475279421 0.243015334
outer loop
vertex 31.44197845 -25.44054413 53.22396469
vertex 32.51546478 -29.32694244 53.03944778
vertex 33.06745148 -24.80120087 46.29929352

endloop
endfacet
facet normal 0.9373463988 0.2488369346 0.2438481748
outer loop
vertex 33.06745148 -24.80120087 46.29929352
vertex 32.51546478 -29.32694244 53.03944778
vertex 33.85282135 -28.11547089 46.66242599

endloop
endfacet
facet normal 0.8466758728 0.2519831657 0.4686622918
outer loop
vertex 33.06745148 -24.80120087 46.29929352
vertex 33.85282135 -28.11547089 46.66242599
vertex 35.82741547 -24.6472702 41.23043442

endloop
endfacet
facet normal 0.8110694289 0.3125961125 0.4944187999
outer loop
vertex 35.82741547 -24.6472702 41.23043442
vertex 33.85282135 -28.11547089 46.66242599
vertex 36.5343399 -27.60012054 41.93769836

endloop
endfacet
facet normal 0.8566387892 0.3047859371 0.4162637591
outer loop
vertex 35.82741547 -24.6472702 41.23043442
vertex 36.5343399 -27.60012054 41.93769836
vertex 38.10164642 -25.24877167 36.99065781

endloop
endfacet
facet normal 0.8563581109 0.3053375483 0.416437
outer loop
vertex 38.10164642 -25.24877167 36.99065781
vertex 36.5343399 -27.60012054 41.93769836
vertex 38.87162018 -28.23686981 37.59820557

endloop
endfacet
facet normal 0.9680243134 0.2507709265 0.006542372517
outer loop
vertex 38.10164642 -25.24877167 36.99065781
vertex 38.87162018 -28.23686981 37.59820557
vertex 38.41640472 -26.35054779 32.64968109

endloop
endfacet
facet normal 0.959600389 0.2807416618 0.01874179952
outer loop
vertex 38.41640472 -26.35054779 32.64968109
vertex 38.87162018 -28.23686981 37.59820557
vertex 39.37465668 -29.65361786 33.06428528

endloop
endfacet
facet normal 0.9521865845 0.2551440895 -0.1680539995
outer loop
vertex 38.41640472 -26.35054779 32.64968109
vertex 39.37465668 -29.65361786 33.06428528
vertex 37.97574615 -27.40660858 28.54958916

endloop
endfacet
facet normal 0.9595646858 0.200571239 -0.1975015998
outer loop
vertex 37.97574615 -27.40660858 28.54958916
vertex 39.37465668 -29.65361786 33.06428528
vertex 38.81066132 -31.11841583 28.83654022

endloop
endfacet
facet normal 0.9016270041 0.2310696393 0.3656167686
outer loop
vertex 37.97576141 -27.40660858 28.54959488
vertex 38.81066132 -31.11840057 28.83654594
vertex 39.31395721 -28.11522675 25.69739151

endloop
endfacet
facet normal 0.9849058986 0.01517318096 0.172424376
outer loop
vertex 39.31395721 -28.11522675 25.69739151
vertex 38.81066132 -31.11840057 28.83654594
vertex 39.41675568 -32.17032623 25.46704102

endloop
endfacet
facet normal 0.8864702582 0.04861553758 -0.4602249861
outer loop
vertex 39.31395721 -28.11522675 25.69739151
vertex 39.41675568 -32.17032623 25.46704102
vertex 38.85271454 -28.59511566 24.75826836

endloop
endfacet
facet normal 0.9827824831 0.1287824661 -0.132490024
outer loop
vertex 38.85271454 -28.59511566 24.75826836
vertex 39.41675568 -32.17032623 25.46704102
vertex 39.32743073 -33.13108063 23.87057877

endloop
endfacet
facet normal -0.9921566844 -0.1139116809 0.05147040635
outer loop
vertex 38.85269928 -28.59513092 24.75826645
vertex 39.32743073 -33.13108063 23.87057877
vertex 38.97254181 -29.11484528 25.91817665

endloop
endfacet
facet normal -0.9550008774 -0.1972971559 0.2214656621
outer loop
vertex 38.97254181 -29.11484528 25.91817665
vertex 39.32743073 -33.13108063 23.87057877
vertex 39.59420013 -33.94646454 24.29453659

endloop
endfacet
facet normal -0.2504355907 -0.3371882737 0.9075164199
outer loop
vertex 38.97254181 -29.11484528 25.91817665
vertex 39.59420013 -33.94646454 24.29453659
vertex 40.29773712 -29.33020782 26.20385551

endloop
endfacet
facet normal -0.4650168717 -0.276922375 0.8408765197
outer loop
vertex 40.29773712 -29.33020782 26.20385551
vertex 39.59420013 -33.94646454 24.29453659
vertex 40.58504486 -33.85140228 24.87379456

endloop
endfacet
facet normal 0.9853920341 0.1026043072 -0.1359222382
outer loop
vertex 40.29773712 -29.33019257 26.20385742
vertex 40.58504486 -33.85140228 24.87379646
vertex 38.79189301 -25.15163422 18.44126701

endloop
endfacet
facet normal 0.4667432904 -0.4622553885 -0.7539699078
outer loop
vertex 38.79189301 -25.15163422 18.44126701
vertex 40.58504486 -33.85140228 24.87379646
vertex 38.79187775 -25.15164948 18.44126701

endloop
endfacet
facet normal -0 0.4536978006 0.8911556005
outer loop
vertex 49.29790497 -23.05364227 64.0226593
vertex 49.29788971 -23.05364227 64.0226593
vertex 44.39705658 -32.25235748 68.70583344

endloop
endfacet
facet normal -0.8720428348 0.2505541146 -0.4204328954
outer loop
vertex 44.39705658 -32.25235748 68.70583344
vertex 49.29788971 -23.05364227 64.0226593
vertex 45.15474701 -35.20275116 65.37599945

endloop
endfacet
facet normal 0.4773127437 0.7087903619 -0.5194118023
outer loop
vertex 44.39705658 -32.25235748 68.70583344
vertex 45.15474701 -35.20275116 65.37599945
vertex 37.81002045 -30.74922943 64.70385742

endloop
endfacet
facet normal 0.4738157392 0.7009637952 -0.5330557227
outer loop
vertex 37.81002045 -30.74922943 64.70385742
vertex 45.15474701 -35.20275116 65.37599945
vertex 39.6002121 -33.68631744 62.4328537

endloop
endfacet
facet normal 0.6309756637 0.6772242188 -0.3784668744
outer loop
vertex 37.81002045 -30.74922943 64.70385742
vertex 39.6002121 -33.68631744 62.4328537
vertex 33.95824432 -30.04332733 59.54535294

endloop
endfacet
facet normal 0.6336460114 0.654820919 -0.4119494855
outer loop
vertex 33.95824432 -30.04332733 59.54535294
vertex 39.6002121 -33.68631744 62.4328537
vertex 36.24822235 -33.02533722 58.32761383

endloop
endfacet
facet normal 0.7687369585 0.6315504313 -0.1009335145
outer loop
vertex 33.95822906 -30.04334259 59.54534912
vertex 36.24819183 -33.02535248 58.32761002
vertex 32.51546478 -29.32694244 53.03944778

endloop
endfacet
facet normal 0.7854326963 0.6048383117 -0.1314002723
outer loop
vertex 32.51546478 -29.32694244 53.03944778
vertex 36.24819183 -33.02535248 58.32761002
vertex 34.85756683 -32.43939972 52.71243286

endloop
endfacet
facet normal 0.7826732397 0.5605226159 0.2706232667
outer loop
vertex 32.51546478 -29.32694244 53.03944778
vertex 34.85756683 -32.43939972 52.71243286
vertex 33.85282135 -28.11547089 46.66242599

endloop
endfacet
facet normal 0.8413947225 0.4959371984 0.2147120982
outer loop
vertex 33.85282135 -28.11547089 46.66242599
vertex 34.85756683 -32.43939972 52.71243286
vertex 35.68019867 -31.352211 46.97761154

endloop
endfacet
facet normal 0.7460101247 0.4673710167 0.4743765593
outer loop
vertex 33.85282135 -28.11547089 46.66242599
vertex 35.68019867 -31.352211 46.97761154
vertex 36.5343399 -27.60012054 41.93769836

endloop
endfacet
facet normal 0.8033640981 0.4043375552 0.4371697605
outer loop
vertex 36.5343399 -27.60012054 41.93769836
vertex 35.68019867 -31.352211 46.97761154
vertex 37.85747528 -30.76010895 42.4289093

endloop
endfacet
facet normal 0.8279012442 0.4066943526 0.3862375021
outer loop
vertex 36.5343399 -27.60012054 41.93769836
vertex 37.85747528 -30.76010895 42.4289093
vertex 38.87162018 -28.23686981 37.59820557

endloop
endfacet
facet normal 0.8525419235 0.3679637909 0.3711802661
outer loop
vertex 38.87162018 -28.23686981 37.59820557
vertex 37.85747528 -30.76010895 42.4289093
vertex 40.08934784 -31.42336273 37.9601593

endloop
endfacet
facet normal 0.9343758225 0.3562068641 -0.007638038602
outer loop
vertex 38.87162018 -28.23686981 37.59820557
vertex 40.08934784 -31.42336273 37.9601593
vertex 39.37465668 -29.65361786 33.06428528

endloop
endfacet
facet normal 0.8491421938 0.5240883231 0.06548947841
outer loop
vertex 39.37465668 -29.65361786 33.06428528
vertex 40.08934784 -31.42336273 37.9601593
vertex 41.14044952 -32.54053497 33.27180481

endloop
endfacet
facet normal 0.828002274 0.4863965213 -0.2789813876
outer loop
vertex 39.37465668 -29.65361786 33.06428528
vertex 41.14044952 -32.54053497 33.27180481
vertex 38.81066132 -31.11841583 28.83654022

endloop
endfacet
facet normal 0.7608165741 0.6167651415 -0.201888293
outer loop
vertex 38.81066132 -31.11841583 28.83654022
vertex 41.14044952 -32.54053497 33.27180481
vertex 40.85749054 -33.65218353 28.80940628

endloop
endfacet
facet normal 0.7763598561 0.6277673244 -0.05633384734
outer loop
vertex 38.81066132 -31.11840057 28.83654594
vertex 40.8575058 -33.65216827 28.809412
vertex 39.41675568 -32.17032623 25.46704102

endloop
endfacet
facet normal 0.9160473943 0.3060916662 -0.259162128
outer loop
vertex 39.41675568 -32.17032623 25.46704102
vertex 40.8575058 -33.65216827 28.809412
vertex 40.32253265 -35.46070099 24.782444

endloop
endfacet
facet normal 0.9238069057 0.3029996157 -0.2340345085
outer loop
vertex 39.41675568 -32.17032623 25.46704102
vertex 40.32253265 -35.46070099 24.782444
vertex 39.32743073 -33.13108063 23.87057877

endloop
endfacet
facet normal 0.9254298806 0.3100203276 -0.2178692073
outer loop
vertex 39.32743073 -33.13108063 23.87057877
vertex 40.32253265 -35.46070099 24.782444
vertex 40.14536285 -36.70531464 22.25884819

endloop
endfacet
facet normal -0.9597594142 -0.2634642422 0.09720304608
outer loop
vertex 39.32743073 -33.13108063 23.87057877
vertex 40.14536285 -36.70531464 22.25885201
vertex 39.59420013 -33.94646454 24.29453659

endloop
endfacet
facet normal 0.4659463763 -0.4631891847 0.7538896799
outer loop
vertex 39.59420013 -33.94646454 24.29453659
vertex 40.14536285 -36.70531464 22.25885201
vertex 40.46067047 -37.46317291 21.59834671

endloop
endfacet
facet normal -0.349478513 -0.6227849126 0.7000027299
outer loop
vertex 39.59420013 -33.94646454 24.29453659
vertex 40.46067047 -37.46317291 21.59834671
vertex 40.58504486 -33.85140228 24.87379456

endloop
endfacet
facet normal -0.5869399905 -0.5327069163 0.6096923351
outer loop
vertex 40.58504486 -33.85140228 24.87379456
vertex 40.46067047 -37.46317291 21.59834671
vertex 41.00414276 -37.67681122 21.93487549

endloop
endfacet
facet normal 0.9856607914 0.156484738 -0.06312850863
outer loop
vertex 40.58504486 -33.85140228 24.87379646
vertex 41.00414276 -37.67681122 21.93487549
vertex 38.79187775 -25.15164948 18.44126701

endloop
endfacet
facet normal 0 -0.2696299255 -0.9629640579
outer loop
vertex 38.79187775 -25.15164948 18.44126701
vertex 41.00414276 -37.67681122 21.93487549
vertex 38.79186249 -25.15164948 18.44126701

endloop
endfacet
facet normal -nan(ind) -nan(ind) -nan(ind)
outer loop
vertex 49.29788971 -23.05364227 64.0226593
vertex 49.29788971 -23.05364227 64.0226593
vertex 45.15474701 -35.20275116 65.37599945

endloop
endfacet
facet normal -0.891749382 0.2630939782 -0.3681910634
outer loop
vertex 45.15474701 -35.20275116 65.37599945
vertex 49.29788971 -23.05364227 64.0226593
vertex 46.04387665 -37.0083847 61.93231964

endloop
endfacet
facet normal 0.4103706479 0.8469208479 -0.3381139338
outer loop
vertex 45.15474701 -35.20275116 65.37599945
vertex 46.04387665 -37.0083847 61.93231964
vertex 39.6002121 -33.68631744 62.4328537

endloop
endfacet
facet normal 0.4180317223 0.856466651 -0.3028438687
outer loop
vertex 39.6002121 -33.68631744 62.4328537
vertex 46.04387665 -37.0083847 61.93231964
vertex 41.75476837 -35.7326889 59.6196022

endloop
endfacet
facet normal 0.4738843143 0.8440470099 -0.251034528
outer loop
vertex 39.6002121 -33.68631744 62.4328537
vertex 41.75476837 -35.7326889 59.6196022
vertex 36.24822235 -33.02533722 58.32761383

endloop
endfacet
facet normal 0.4679723382 0.8646666408 -0.1826289296
outer loop
vertex 36.24822235 -33.02533722 58.32761383
vertex 41.75476837 -35.7326889 59.6196022
vertex 39.16446686 -35.00170135 56.44305801

endloop
endfacet
facet normal 0.539879024 0.8404849172 -0.04599765316
outer loop
vertex 36.24819183 -33.02535248 58.32761002
vertex 39.16443634 -35.00171661 56.44305801
vertex 34.85756683 -32.43939972 52.71243286

endloop
endfacet
facet normal 0.5518106222 0.8313500881 -0.06604626775
outer loop
vertex 34.85756683 -32.43939972 52.71243286
vertex 39.16443634 -35.00171661 56.44305801
vertex 38.06496429 -34.62351227 52.01767349

endloop
endfacet
facet normal 0.5813230276 0.7801112533 0.2312788516
outer loop
vertex 34.85756683 -32.43939972 52.71243286
vertex 38.06496429 -34.62351227 52.01767349
vertex 35.68019867 -31.352211 46.97761154

endloop
endfacet
facet normal 0.7112614512 0.6936721802 0.1136928052
outer loop
vertex 35.68019867 -31.352211 46.97761154
vertex 38.06496429 -34.62351227 52.01767349
vertex 38.49066925 -34.26570892 47.17140579

endloop
endfacet
facet normal 0.6479479671 0.6513040662 0.3949258924
outer loop
vertex 35.68019867 -31.352211 46.97761154
vertex 38.49066925 -34.26570892 47.17140579
vertex 37.85747528 -30.76010895 42.4289093

endloop
endfacet
facet normal 0.8123205304 0.5155608654 0.2726398408
outer loop
vertex 37.85747528 -30.76010895 42.4289093
vertex 38.49066925 -34.26570892 47.17140579
vertex 39.89199066 -34.11074066 42.70317459

endloop
endfacet
facet normal 0.7971897721 0.5104454756 0.3223879337
outer loop
vertex 37.85747528 -30.76010895 42.4289093
vertex 39.89199066 -34.11074066 42.70317459
vertex 40.08934784 -31.42336273 37.9601593

endloop
endfacet
facet normal 0.8265658617 0.4742537737 0.303104192
outer loop
vertex 40.08934784 -31.42336273 37.9601593
vertex 39.89199066 -34.11074066 42.70317459
vertex 41.79904938 -34.63985443 38.33050156

endloop
endfacet
facet normal 0.8759509921 0.4751793444 0.08315421641
outer loop
vertex 40.08934784 -31.42336273 37.9601593
vertex 41.79904938 -34.63985443 38.33050156
vertex 41.14044952 -32.54053497 33.27180481

endloop
endfacet
facet normal 0.8161306381 0.5635957718 0.1276344657
outer loop
vertex 41.14044952 -32.54053497 33.27180481
vertex 41.79904938 -34.63985443 38.33050156
vertex 43.10936737 -35.45700836 33.5602684

endloop
endfacet
facet normal 0.8227838874 0.5370698571 -0.185964331
outer loop
vertex 41.14044952 -32.54053497 33.27180481
vertex 43.10936737 -35.45700836 33.5602684
vertex 40.85749054 -33.65218353 28.80940628

endloop
endfacet
facet normal 0.7731013894 0.6206805706 -0.1306519657
outer loop
vertex 40.85749054 -33.65218353 28.80940628
vertex 43.10936737 -35.45700836 33.5602684
vertex 42.77294159 -36.09775543 28.5255909

endloop
endfacet
facet normal 0.7122376561 0.6001058221 -0.3641298115
outer loop
vertex 40.8575058 -33.65216827 28.809412
vertex 42.77295685 -36.09774017 28.52559662
vertex 40.32253265 -35.46070099 24.782444

endloop
endfacet
facet normal 0.6930800676 0.6323391199 -0.3461027741
outer loop
vertex 40.32253265 -35.46070099 24.782444
vertex 42.77295685 -36.09774017 28.52559662
vertex 41.29965973 -36.92491913 24.06400108

endloop
endfacet
facet normal 0.6844355464 0.6336691976 -0.3605706692
outer loop
vertex 40.32253265 -35.46070099 24.782444
vertex 41.29965973 -36.92491913 24.06400108
vertex 40.14536285 -36.70531464 22.25884819

endloop
endfacet
facet normal 0.6197598577 0.7216061354 -0.3085161746
outer loop
vertex 40.14536285 -36.70531464 22.25884819
vertex 41.29965973 -36.92491913 24.06400108
vertex 41.10654449 -38.13407135 20.84790802

endloop
endfacet
facet normal -0.3495386243 0.5287062526 -0.7734937072
outer loop
vertex 40.14536285 -36.70531464 22.25885201
vertex 41.10654449 -38.13405609 20.84790993
vertex 40.46067047 -37.46317291 21.59834671

endloop
endfacet
facet normal 0.2691728473 0.8214726448 -0.5027211905
outer loop
vertex 40.46067047 -37.46317291 21.59834671
vertex 41.10654449 -38.13405609 20.84790993
vertex 41.45516205 -39.35300446 19.04274559

endloop
endfacet
facet normal -0.5269395709 -0.7684028745 0.3631689548
outer loop
vertex 40.46067047 -37.46317291 21.59834671
vertex 41.45516205 -39.35300446 19.04274559
vertex 41.00414276 -37.67681122 21.93487549

endloop
endfacet
facet normal -0.460126996 0.7351530194 -0.4978284836
outer loop
vertex 41.00414276 -37.67681122 21.93487549
vertex 41.45516205 -39.35300446 19.04274559
vertex 41.24063873 -39.90641022 18.42379761

endloop
endfacet
facet normal 0.985804081 0.1636537313 -0.03752152249
outer loop
vertex 41.00414276 -37.67681122 21.93487549
vertex 41.24063873 -39.90639496 18.42379761
vertex 38.79186249 -25.15164948 18.44126701

endloop
endfacet
facet normal -0.06237413362 -0.01153822336 0.9979861379
outer loop
vertex 38.79186249 -25.15164948 18.44126701
vertex 41.24063873 -39.90639496 18.42379761
vertex 38.79189301 -25.15164948 18.44126892

endloop
endfacet
facet normal 0 0.1481414139 -0.988966167
outer loop
vertex 49.29788971 -23.05364227 64.0226593
vertex 49.29790497 -23.05364227 64.0226593
vertex 46.04387665 -37.0083847 61.93231964

endloop
endfacet
facet normal -0.9207710624 0.2584767044 -0.2921821773
outer loop
vertex 46.04387665 -37.0083847 61.93231964
vertex 49.29790497 -23.05364227 64.0226593
vertex 46.95580292 -37.46253204 58.65675354

endloop
endfacet
facet normal 0.307559371 0.9504092336 -0.04614600167
outer loop
vertex 46.04387665 -37.0083847 61.93231964
vertex 46.95580292 -37.46253204 58.65675354
vertex 41.75476837 -35.7326889 59.6196022

endloop
endfacet
facet normal 0.3049454391 0.9504557848 -0.06034988537
outer loop
vertex 41.75476837 -35.7326889 59.6196022
vertex 46.95580292 -37.46253204 58.65675354
vertex 44.11321259 -36.67165375 56.74887848

endloop
endfacet
facet normal 0.3219019175 0.9457093477 -0.04486677796
outer loop
vertex 41.75476837 -35.7326889 59.6196022
vertex 44.11321259 -36.67165375 56.74887848
vertex 39.16446686 -35.00170135 56.44305801

endloop
endfacet
facet normal 0.3207268119 0.9469831586 -0.01889607869
outer loop
vertex 39.16446686 -35.00170135 56.44305801
vertex 44.11321259 -36.67165375 56.74887848
vertex 42.44138336 -36.15691376 54.16895676

endloop
endfacet
facet normal 0.3314181864 0.9434824586 -0.001707407064
outer loop
vertex 39.16443634 -35.00171661 56.44305801
vertex 42.44138336 -36.15692902 54.16895676
vertex 38.06496429 -34.62351227 52.01767349

endloop
endfacet
facet normal 0.3318460584 0.9433296919 -0.002686740831
outer loop
vertex 38.06496429 -34.62351227 52.01767349
vertex 42.44138336 -36.15692902 54.16895676
vertex 41.77973175 -35.93373871 50.81007767

endloop
endfacet
facet normal 0.3597338796 0.9276710153 0.1000902802
outer loop
vertex 38.06496429 -34.62351227 52.01767349
vertex 41.77973175 -35.93373871 50.81007767
vertex 38.49066925 -34.26570892 47.17140579

endloop
endfacet
facet normal 0.4396042526 0.8980773091 0.01432773937
outer loop
vertex 38.49066925 -34.26570892 47.17140579
vertex 41.77973175 -35.93373871 50.81007767
vertex 42.15631866 -36.05701447 46.98267365

endloop
endfacet
facet normal 0.4397653043 0.8821618557 0.1685140282
outer loop
vertex 38.49066925 -34.26570892 47.17140579
vertex 42.15631866 -36.05701447 46.98267365
vertex 39.89199066 -34.11074066 42.70317459

endloop
endfacet
facet normal 0.5886048079 0.8065230846 0.05536171794
outer loop
vertex 39.89199066 -34.11074066 42.70317459
vertex 42.15631866 -36.05701447 46.98267365
vertex 42.98363495 -36.38594818 42.97864914

endloop
endfacet
facet normal 0.5766473413 0.802267909 0.154415682
outer loop
vertex 39.89199066 -34.11074066 42.70317459
vertex 42.98363495 -36.38594818 42.97864914
vertex 41.79904938 -34.63985443 38.33050156

endloop
endfacet
facet normal 0.6551100016 0.7469390631 0.1136349067
outer loop
vertex 41.79904938 -34.63985443 38.33050156
vertex 42.98363495 -36.38594818 42.97864914
vertex 44.17238617 -36.80323029 38.86830521

endloop
endfacet
facet normal 0.6657403111 0.7441240549 0.05539931357
outer loop
vertex 41.79904938 -34.63985443 38.33050156
vertex 44.17238617 -36.80323029 38.86830521
vertex 43.10936737 -35.45700836 33.5602684

endloop
endfacet
facet normal 0.7308446765 0.6820248365 0.02661156468
outer loop
vertex 43.10936737 -35.45700836 33.5602684
vertex 44.17238617 -36.80323029 38.86830521
vertex 45.01668549 -37.51972198 34.04384232

endloop
endfacet
facet normal 0.7430494428 0.655862987 -0.1331214011
outer loop
vertex 43.10936737 -35.45700836 33.5602684
vertex 45.01668549 -37.51972198 34.04384232
vertex 42.77294159 -36.09775543 28.5255909

endloop
endfacet
facet normal 0.7442443967 0.6543266773 -0.1340031475
outer loop
vertex 42.77294159 -36.09775543 28.5255909
vertex 45.01668549 -37.51972198 34.04384232
vertex 44.57569122 -38.14383698 28.54708672

endloop
endfacet
facet normal 0.7053744793 0.617826879 -0.3474719822
outer loop
vertex 42.77295685 -36.09774017 28.52559662
vertex 44.57569122 -38.14383698 28.54709244
vertex 41.29965973 -36.92491913 24.06400108

endloop
endfacet
facet normal 0.4705508947 0.8760223985 -0.1056726426
outer loop
vertex 41.29965973 -36.92491913 24.06400108
vertex 44.57569122 -38.14383698 28.54709244
vertex 43.05547333 -37.91407013 23.68245697

endloop
endfacet
facet normal 0.4033198059 0.848282814 -0.3431462348
outer loop
vertex 41.29965973 -36.92491913 24.06400108
vertex 43.05547333 -37.91407013 23.68245697
vertex 41.10654449 -38.13407135 20.84790802

endloop
endfacet
facet normal 0.029379908 0.9948104024 -0.09741192311
outer loop
vertex 41.10654449 -38.13407135 20.84790802
vertex 43.05547333 -37.91407013 23.68245697
vertex 42.34249115 -38.26378632 19.89597321

endloop
endfacet
facet normal -0.3605030179 0.7392538786 -0.5688069463
outer loop
vertex 41.10654449 -38.13405609 20.84790993
vertex 42.34249115 -38.26378632 19.89597702
vertex 41.45516205 -39.35300446 19.04274559

endloop
endfacet
facet normal -0.6115470529 0.7324946523 -0.2991016805
outer loop
vertex 41.45516205 -39.35300446 19.04274559
vertex 42.34249115 -38.26378632 19.89597702
vertex 42.2657547 -39.48313141 17.06671906

endloop
endfacet
facet normal -0.6973801255 0.6372224092 -0.3280376196
outer loop
vertex 41.45516205 -39.35300446 19.04274559
vertex 42.2657547 -39.48313141 17.06671906
vertex 41.24063873 -39.90641022 18.42379761

endloop
endfacet
facet normal -0.4420942962 0.8952988982 -0.05470345542
outer loop
vertex 41.24063873 -39.90641022 18.42379761
vertex 42.2657547 -39.48313141 17.06671906
vertex 41.36940765 -40.0389328 15.21421432

endloop
endfacet
facet normal 0.9859816432 0.1635978967 0.03280205652
outer loop
vertex 41.24063873 -39.90639496 18.42379761
vertex 41.36940765 -40.0389328 15.21421623
vertex 38.79189301 -25.15164948 18.44126892

endloop
endfacet
facet normal 0.7682212591 0 0.6401844025
outer loop
vertex 38.79189301 -25.15164948 18.44126892
vertex 41.36940765 -40.0389328 15.21421623
vertex 38.79189301 -25.15163422 18.44126892

endloop
endfacet
facet normal 0.1846008301 -0.3692016602 0.9108307958
outer loop
vertex 49.29790497 -23.05364227 64.0226593
vertex 49.29787445 -23.05365753 64.0226593
vertex 46.95580292 -37.46253204 58.65675354

endloop
endfacet
facet normal -0.9410843849 0.2412272692 -0.2370012701
outer loop
vertex 46.95580292 -37.46253204 58.65675354
vertex 49.29787445 -23.05365753 64.0226593
vertex 48.09677887 -36.58281708 55.0215683

endloop
endfacet
facet normal 0.09190585464 0.9608524442 0.2613728344
outer loop
vertex 46.95580292 -37.46253204 58.65675354
vertex 48.09677887 -36.58281708 55.0215683
vertex 44.11321259 -36.67165375 56.74887848

endloop
endfacet
facet normal 0.06884815544 0.9754997492 0.2089499384
outer loop
vertex 44.11321259 -36.67165375 56.74887848
vertex 48.09677887 -36.58281708 55.0215683
vertex 46.72966766 -36.25582123 53.94541931

endloop
endfacet
facet normal 0.03185134381 0.9839333892 0.17567195
outer loop
vertex 44.11321259 -36.67165375 56.74887848
vertex 46.72966766 -36.25582123 53.94541931
vertex 42.44138336 -36.15691376 54.16895676

endloop
endfacet
facet normal 0.02898962982 0.9927222133 0.1168847978
outer loop
vertex 42.44138336 -36.15691376 54.16895676
vertex 46.72966766 -36.25582123 53.94541931
vertex 46.01656342 -36.01331329 52.06262207

endloop
endfacet
facet normal -0.0009099396993 0.9977873564 0.06648007035
outer loop
vertex 42.44138336 -36.15692902 54.16895676
vertex 46.01654816 -36.01332855 52.06261826
vertex 41.77973175 -35.93373871 50.81007767

endloop
endfacet
facet normal 0.00658589229 0.9991288185 0.0412100777
outer loop
vertex 41.77973175 -35.93373871 50.81007767
vertex 46.01654816 -36.01332855 52.06261826
vertex 45.96392059 -35.9081192 49.52025223

endloop
endfacet
facet normal -0.01654199883 0.9992912412 -0.03381348774
outer loop
vertex 41.77973175 -35.93373871 50.81007767
vertex 45.96392059 -35.9081192 49.52025223
vertex 42.15631866 -36.05701447 46.98267365

endloop
endfacet
facet normal 0.01805830374 0.9961704612 -0.08554764837
outer loop
vertex 42.15631866 -36.05701447 46.98267365
vertex 45.96392059 -35.9081192 49.52025223
vertex 46.59290314 -36.17118073 46.58977127

endloop
endfacet
facet normal 0.01874109916 0.9967762232 -0.07801362872
outer loop
vertex 42.15631866 -36.05701447 46.98267365
vertex 46.59290314 -36.17118073 46.58977127
vertex 42.98363495 -36.38594818 42.97864914

endloop
endfacet
facet normal 0.08769077063 0.9853535891 -0.1462485641
outer loop
vertex 42.98363495 -36.38594818 42.97864914
vertex 46.59290314 -36.17118073 46.58977127
vertex 47.00843048 -36.70293427 43.25621796

endloop
endfacet
facet normal 0.08354004472 0.9935478568 -0.07670439035
outer loop
vertex 42.98363495 -36.38594818 42.97864914
vertex 47.00843048 -36.70293427 43.25621796
vertex 44.17238617 -36.80323029 38.86830521

endloop
endfacet
facet normal 0.1693373621 0.9767091274 -0.1317729652
outer loop
vertex 44.17238617 -36.80323029 38.86830521
vertex 47.00843048 -36.70293427 43.25621796
vertex 47.13381195 -37.26079559 39.28244019

endloop
endfacet
facet normal 0.1674993038 0.9790142179 -0.1160825565
outer loop
vertex 44.17238617 -36.80323029 38.86830521
vertex 47.13381195 -37.26079559 39.28244019
vertex 45.01668549 -37.51972198 34.04384232

endloop
endfacet
facet normal 0.2501607239 0.9567654729 -0.1483896673
outer loop
vertex 45.01668549 -37.51972198 34.04384232
vertex 47.13381195 -37.26079559 39.28244019
vertex 47.08443451 -38.00395966 34.40753174

endloop
endfacet
facet normal 0.2475503832 0.9602634311 -0.1288911402
outer loop
vertex 45.01668549 -37.51972198 34.04384232
vertex 47.08443451 -38.00395966 34.40753174
vertex 44.57569122 -38.14383698 28.54708672

endloop
endfacet
facet normal 0.2686363459 0.9533407688 -0.1377523988
outer loop
vertex 44.57569122 -38.14383698 28.54708672
vertex 47.08443451 -38.00395966 34.40753174
vertex 46.73949432 -38.71031952 28.84635735

endloop
endfacet
facet normal 0.2576244771 0.9656146169 -0.03490069509
outer loop
vertex 44.57569122 -38.14383698 28.54709244
vertex 46.73949432 -38.71031952 28.84636497
vertex 43.05547333 -37.91407013 23.68245697

endloop
endfacet
facet normal 0.2180249542 0.9759300947 -0.005059104878
outer loop
vertex 43.05547333 -37.91407013 23.68245697
vertex 46.73949432 -38.71031952 28.84636497
vertex 45.8859787 -38.54743195 23.48557091

endloop
endfacet
facet normal 0.2080111504 0.9696196318 -0.1287209839
outer loop
vertex 43.05547333 -37.91407013 23.68245697
vertex 45.8859787 -38.54743195 23.48557091
vertex 42.34249115 -38.26378632 19.89597321

endloop
endfacet
facet normal -0.1181150526 0.9739527702 0.1935583651
outer loop
vertex 42.34249115 -38.26378632 19.89597321
vertex 45.8859787 -38.54743195 23.48557091
vertex 44.70363617 -37.84339142 19.22145844

endloop
endfacet
facet normal -0.2653816938 0.888010025 -0.3755140901
outer loop
vertex 42.34249115 -38.26378632 19.89597702
vertex 44.70363617 -37.84339142 19.22146225
vertex 42.2657547 -39.48313141 17.06671906

endloop
endfacet
facet normal -0.7102364302 0.6215009093 0.3306066692
outer loop
vertex 42.2657547 -39.48313141 17.06671906
vertex 44.70363617 -37.84339142 19.22146225
vertex 43.66698456 -37.44986725 16.25466347

endloop
endfacet
facet normal -0.7710266113 0.6075517535 0.1907845736
outer loop
vertex 42.2657547 -39.48313141 17.06671906
vertex 43.66698456 -37.44986725 16.25466347
vertex 41.36940765 -40.0389328 15.21421432

endloop
endfacet
facet normal -0.6063289046 0.23245731 0.7604793906
outer loop
vertex 41.36940765 -40.0389328 15.21421432
vertex 43.66698456 -37.44986725 16.25466347
vertex 41.56302643 -36.57543182 14.30989075

endloop
endfacet
facet normal 0.90001899 0.06231825054 0.4313724637
outer loop
vertex 41.36940765 -40.0389328 15.21421623
vertex 41.56302643 -36.57543182 14.30989361
vertex 38.79189301 -25.15163422 18.44126892

endloop
endfacet
facet normal -0.3583474457 0.2388982922 -0.9025046825
outer loop
vertex 38.79189301 -25.15163422 18.44126892
vertex 41.56302643 -36.57543182 14.30989361
vertex 38.79187775 -25.15166473 18.44126701

endloop
endfacet
facet normal -0.5079444051 0.5079444051 -0.6956902146
outer loop
vertex 49.29787445 -23.05365753 64.0226593
vertex 49.29788971 -23.05364227 64.0226593
vertex 48.09677887 -36.58281708 55.0215683

endloop
endfacet
facet normal -0.9946382642 0.1014966369 -0.01983037591
outer loop
vertex 48.09677887 -36.58281708 55.0215683
vertex 49.29788971 -23.05364227 64.0226593
vertex 49.41890717 -24.5510788 50.28850937

endloop
endfacet
facet normal -0.5218494534 0.3613234758 0.7727344632
outer loop
vertex 48.09677887 -36.58281708 55.0215683
vertex 49.41890717 -24.5510788 50.28850937
vertex 46.72966766 -36.25582123 53.94541931

endloop
endfacet
facet normal 0.9541246891 -0.1358559281 0.26681301
outer loop
vertex 46.72966766 -36.25582123 53.94541931
vertex 49.41890717 -24.5510788 50.28850937
vertex 49.13779449 -24.47003937 51.33503342

endloop
endfacet
facet normal -0.8902099133 0.2641034424 0.3711815476
outer loop
vertex 46.72966766 -36.25582123 53.94541931
vertex 49.13779449 -24.47003937 51.33503342
vertex 46.01656342 -36.01331329 52.06262207

endloop
endfacet
facet normal -0.3061035872 0.1421020776 0.9413329363
outer loop
vertex 46.01656342 -36.01331329 52.06262207
vertex 49.13779449 -24.47003937 51.33503342
vertex 48.48413849 -24.33159637 51.10157776

endloop
endfacet
facet normal -0.9775186181 0.2088621408 0.02887807414
outer loop
vertex 46.01654816 -36.01332855 52.06261826
vertex 48.48413849 -24.33161163 51.10157394
vertex 45.96392059 -35.9081192 49.52025223

endloop
endfacet
facet normal -0.9745329022 0.2188407332 -0.04893119633
outer loop
vertex 45.96392059 -35.9081192 49.52025223
vertex 48.48413849 -24.33161163 51.10157394
vertex 48.60187531 -24.43169403 48.30907059

endloop
endfacet
facet normal -0.9550049901 0.1960264444 -0.2225739062
outer loop
vertex 45.96392059 -35.9081192 49.52025223
vertex 48.60187531 -24.43169403 48.30907059
vertex 46.59290314 -36.17118073 46.58977127

endloop
endfacet
facet normal -0.9233671427 0.2055080086 -0.3242830634
outer loop
vertex 46.59290314 -36.17118073 46.58977127
vertex 48.60187531 -24.43169403 48.30907059
vertex 49.78246307 -25.03334808 44.56616592

endloop
endfacet
facet normal -0.9564719796 0.2451402694 -0.1583278626
outer loop
vertex 46.59290314 -36.17118073 46.58977127
vertex 49.78246307 -25.03334808 44.56616592
vertex 47.00843048 -36.70293427 43.25621796

endloop
endfacet
facet normal -0.7001004219 0.2418406606 -0.6718425751
outer loop
vertex 47.00843048 -36.70293427 43.25621796
vertex 49.78246307 -25.03334808 44.56616592
vertex 52.12883759 -26.49549103 41.59477997

endloop
endfacet
facet normal -0.8960201144 0.4349347353 -0.08933003992
outer loop
vertex 47.00843048 -36.70293427 43.25621796
vertex 52.12883759 -26.49549103 41.59477997
vertex 47.13381195 -37.26079559 39.28244019

endloop
endfacet
facet normal -0.6941564083 0.4438135326 -0.5667241812
outer loop
vertex 47.13381195 -37.26079559 39.28244019
vertex 52.12883759 -26.49549103 41.59477997
vertex 53.6442337 -28.45044708 38.2076683

endloop
endfacet
facet normal -0.8062983155 0.5859155059 -0.08115401119
outer loop
vertex 47.13381195 -37.26079559 39.28244019
vertex 53.6442337 -28.45044708 38.2076683
vertex 47.08443451 -38.00395966 34.40753174

endloop
endfacet
facet normal -0.8420352936 0.5171403289 0.1534356177
outer loop
vertex 47.08443451 -38.00395966 34.40753174
vertex 53.6442337 -28.45044708 38.2076683
vertex 52.32308197 -29.14897919 33.31169128

endloop
endfacet
facet normal -0.8612135649 0.5081216097 -0.01112165861
outer loop
vertex 47.08443451 -38.00395966 34.40753174
vertex 52.32308197 -29.14897919 33.31169128
vertex 46.73949432 -38.71031952 28.84635735

endloop
endfacet
facet normal -0.8246059418 0.2429599315 0.5108771324
outer loop
vertex 46.73949432 -38.71031952 28.84635735
vertex 52.32308197 -29.14897919 33.31169128
vertex 48.95023346 -28.52069855 27.56878853

endloop
endfacet
facet normal -0.9603561759 0.2283997685 0.1598424464
outer loop
vertex 46.73949432 -38.71031952 28.84636497
vertex 48.95023346 -28.52069855 27.56879425
vertex 45.8859787 -38.54743195 23.48557091

endloop
endfacet
facet normal -0.9203825593 0.1312839389 0.3683211505
outer loop
vertex 45.8859787 -38.54743195 23.48557091
vertex 48.95023346 -28.52069855 27.56879425
vertex 46.91718292 -28.825737 22.59721565

endloop
endfacet
facet normal -0.9502775073 0.1267886013 0.284424454
outer loop
vertex 45.8859787 -38.54743195 23.48557091
vertex 46.91718292 -28.825737 22.59721565
vertex 44.70363617 -37.84339142 19.22145844

endloop
endfacet
facet normal -0.9616143107 0.2640278637 -0.07474877685
outer loop
vertex 44.70363617 -37.84339142 19.22145844
vertex 46.91718292 -28.825737 22.59721565
vertex 47.22005463 -28.89556122 18.45425415

endloop
endfacet
facet normal -0.8936784267 0.2813054025 0.3495800793
outer loop
vertex 44.70363617 -37.84339142 19.22146225
vertex 47.22005463 -28.89557648 18.45425606
vertex 43.66698456 -37.44986725 16.25466347

endloop
endfacet
facet normal -0.9256160259 0.3774928451 0.02709370106
outer loop
vertex 43.66698456 -37.44986725 16.25466347
vertex 47.22005463 -28.89557648 18.45425606
vertex 47.42670441 -28.06009674 13.87351322

endloop
endfacet
facet normal -0.5264161229 0.4009140134 0.7497692704
outer loop
vertex 43.66698456 -37.44986725 16.25466347
vertex 47.42670441 -28.06009674 13.87351322
vertex 41.56302643 -36.57543182 14.30989075

endloop
endfacet
facet normal -0.4355424941 0.3425744176 0.8324335217
outer loop
vertex 41.56302643 -36.57543182 14.30989075
vertex 47.42670441 -28.06009674 13.87351322
vertex 42.20590973 -27.29009247 10.82502747

endloop
endfacet
facet normal 0.9178385139 0.08220146596 0.3883494437
outer loop
vertex 41.56302643 -36.57543182 14.30989361
vertex 42.20592499 -27.29009247 10.82502842
vertex 38.79187775 -25.15166473 18.44126701

endloop
endfacet
facet normal 0.913038373 0 0.4078736901
outer loop
vertex 38.79187775 -25.15166473 18.44126701
vertex 42.20592499 -27.29009247 10.82502842
vertex 38.79187775 -25.15164948 18.44126701

endloop
endfacet
endsolid
