solid 
facet normal 0.444316 0 0.89587
outer loop
vertex 87.6490097 -64.39833832 63.48136902
vertex 87.6490097 -64.39833069 63.48136902
vertex 81.9753952 -53.84053802 66.29525757

endloop
endfacet
facet normal 0.8831090331 0.4686397016 0.02225374803
outer loop
vertex 81.9753952 -53.84053802 66.29525757
vertex 87.6490097 -64.39833069 63.48136902
vertex 82.22154999 -54.07924652 61.55389023

endloop
endfacet
facet normal 0.8604282737 -0.5047293901 0.07008142024
outer loop
vertex 81.9753952 -53.84053802 66.29525757
vertex 82.22154999 -54.07924652 61.55389023
vertex 85.11064911 -48.246315 68.09185028

endloop
endfacet
facet normal 0.8619219065 -0.5025331378 0.06746195257
outer loop
vertex 85.11064911 -48.246315 68.09185028
vertex 82.22154999 -54.07924652 61.55389023
vertex 85.57427216 -48.07855988 63.41804123

endloop
endfacet
facet normal 0.7934700251 -0.6059379578 0.05696035177
outer loop
vertex 85.11064911 -48.246315 68.09185028
vertex 85.57427216 -48.07855988 63.41804123
vertex 87.88884735 -44.46230316 69.64485168

endloop
endfacet
facet normal 0.7907569408 -0.6091963053 0.05986113474
outer loop
vertex 87.88884735 -44.46230316 69.64485168
vertex 85.57427216 -48.07855988 63.41804123
vertex 88.9250412 -43.64263153 64.29853821

endloop
endfacet
facet normal 0.9371135831 -0.3230615556 0.1320960522
outer loop
vertex 87.88884735 -44.46230316 69.64485168
vertex 88.9250412 -43.64263153 64.29853821
vertex 88.96981049 -41.09181976 70.21934509

endloop
endfacet
facet normal 0.780040741 -0.5767879486 0.2425945699
outer loop
vertex 88.96981049 -41.09181976 70.21934509
vertex 88.9250412 -43.64263153 64.29853821
vertex 91.4963913 -40.03781891 64.60132599

endloop
endfacet
facet normal 0.9088879824 0.035916958 0.4154908359
outer loop
vertex 88.96981049 -41.09181976 70.21934509
vertex 91.4963913 -40.03781891 64.60132599
vertex 88.84725189 -38.26103973 70.24273682

endloop
endfacet
facet normal 0.758320272 -0.4286736846 0.4911102057
outer loop
vertex 88.84725189 -38.26103973 70.24273682
vertex 91.4963913 -40.03781891 64.60132599
vertex 93.25792694 -37.01877594 64.51657104

endloop
endfacet
facet normal 0.7663932443 0.1537890136 0.6236909628
outer loop
vertex 88.84725189 -38.26103973 70.24273682
vertex 93.25792694 -37.01877594 64.51657104
vertex 88.4210434 -36.50449371 70.33333588

endloop
endfacet
facet normal 0.7374933958 -0.2330686599 0.6338631511
outer loop
vertex 88.4210434 -36.50449371 70.33333588
vertex 93.25792694 -37.01877594 64.51657104
vertex 94.24748993 -35.04058075 64.09259796

endloop
endfacet
facet normal 0.7274081111 0.02780528367 0.6856415272
outer loop
vertex 88.4210434 -36.50449371 70.33333588
vertex 94.24748993 -35.04058075 64.09259796
vertex 88.74868011 -35.18230438 69.93212128

endloop
endfacet
facet normal 0.7161806226 -0.1967078745 0.6696202755
outer loop
vertex 88.74868011 -35.18230438 69.93212128
vertex 94.24748993 -35.04058075 64.09259796
vertex 94.73616791 -34.84763336 63.62662125

endloop
endfacet
facet normal 0.7036457658 -0.2793592215 0.6533306837
outer loop
vertex 88.74868011 -35.18230438 69.93212128
vertex 94.73616791 -34.84763336 63.62662125
vertex 99.38869476 -23.57874298 63.4342804

endloop
endfacet
facet normal -0.9247309566 0.380621314 0
outer loop
vertex 99.38869476 -23.57874298 63.4342804
vertex 94.73616791 -34.84763336 63.62662125
vertex 99.38869476 -23.57874298 63.43428421

endloop
endfacet
facet normal -0.4701070786 -0.3947149217 -0.7894298434
outer loop
vertex 87.6490097 -64.39833069 63.48136902
vertex 87.6490097 -64.39833832 63.48137283
vertex 82.22154999 -54.07924652 61.55389023

endloop
endfacet
facet normal 0.831931591 0.4871776402 0.2656083703
outer loop
vertex 82.22154999 -54.07924652 61.55389023
vertex 87.6490097 -64.39833832 63.48137283
vertex 84.03142548 -55.46736908 58.43113327

endloop
endfacet
facet normal 0.6134377122 -0.5257995725 0.589261353
outer loop
vertex 82.22154999 -54.07924652 61.55389023
vertex 84.03142548 -55.46736908 58.43113327
vertex 85.57427216 -48.07855988 63.41804123

endloop
endfacet
facet normal 0.3870642483 -0.5699899197 0.7247709036
outer loop
vertex 85.57427216 -48.07855988 63.41804123
vertex 84.03142548 -55.46736908 58.43113327
vertex 88.30171967 -49.16864777 61.10415649

endloop
endfacet
facet normal 0.4446841478 -0.485326916 0.7528039813
outer loop
vertex 85.57427216 -48.07855988 63.41804123
vertex 88.30171967 -49.16864777 61.10415649
vertex 88.9250412 -43.64263153 64.29853821

endloop
endfacet
facet normal 0.3457050025 -0.4985293448 0.7949569821
outer loop
vertex 88.9250412 -43.64263153 64.29853821
vertex 88.30171967 -49.16864777 61.10415649
vertex 92.55550385 -44.11780548 62.42176056

endloop
endfacet
facet normal 0.3931255639 -0.3517773449 0.8495322466
outer loop
vertex 88.9250412 -43.64263153 64.29853821
vertex 92.55550385 -44.11780548 62.42176056
vertex 91.4963913 -40.03781891 64.60132599

endloop
endfacet
facet normal 0.3863982856 -0.3545545638 0.8514620066
outer loop
vertex 91.4963913 -40.03781891 64.60132599
vertex 92.55550385 -44.11780548 62.42176056
vertex 95.8948288 -39.97205353 62.63267517

endloop
endfacet
facet normal 0.4020634294 -0.209571898 0.8913049698
outer loop
vertex 91.4963913 -40.03781891 64.60132599
vertex 95.8948288 -39.97205353 62.63267517
vertex 93.25792694 -37.01877594 64.51657104

endloop
endfacet
facet normal 0.4783396125 -0.1271850616 0.8689160347
outer loop
vertex 93.25792694 -37.01877594 64.51657104
vertex 95.8948288 -39.97205353 62.63267517
vertex 98.08300018 -36.3716507 61.95508194

endloop
endfacet
facet normal 0.4733929038 -0.04830504209 0.8795258999
outer loop
vertex 93.25792694 -37.01877594 64.51657104
vertex 98.08300018 -36.3716507 61.95508194
vertex 94.24748993 -35.04058075 64.09259796

endloop
endfacet
facet normal 0.5276452303 0.1913627535 0.8276295662
outer loop
vertex 94.24748993 -35.04058075 64.09259796
vertex 98.08300018 -36.3716507 61.95508194
vertex 99.1873703 -33.58289337 60.60619354

endloop
endfacet
facet normal -0.01016716193 0.9276025295 0.3734304309
outer loop
vertex 94.24748993 -35.04058075 64.09259796
vertex 99.1873703 -33.58289337 60.60619354
vertex 94.73616791 -34.84763336 63.62662125

endloop
endfacet
facet normal 0.3608731031 0.5421602726 0.7588365674
outer loop
vertex 94.73616791 -34.84763336 63.62662125
vertex 99.1873703 -33.58289337 60.60619354
vertex 99.70595551 -32.61684418 59.66936874

endloop
endfacet
facet normal 0.6706371903 -0.2650575042 0.6928132772
outer loop
vertex 94.73616791 -34.84763336 63.62662125
vertex 99.70595551 -32.61684418 59.66936874
vertex 99.38869476 -23.57874298 63.43428421

endloop
endfacet
facet normal 0.996545732 0 0.08304548264
outer loop
vertex 99.38869476 -23.57874298 63.43428421
vertex 99.70595551 -32.61684418 59.66936874
vertex 99.38869476 -23.57872772 63.43428421

endloop
endfacet
facet normal 0 0.4922271669 0.8704667687
outer loop
vertex 87.6490097 -64.39833832 63.48137283
vertex 87.64904022 -64.39833832 63.48137283
vertex 84.03142548 -55.46736908 58.43113327

endloop
endfacet
facet normal 0.627165854 0.5601033568 0.5412459373
outer loop
vertex 84.03142548 -55.46736908 58.43113327
vertex 87.64904022 -64.39833832 63.48137283
vertex 86.61074066 -57.38645172 57.42831039

endloop
endfacet
facet normal 0.04411386326 -0.415468514 0.9085372686
outer loop
vertex 84.03142548 -55.46736908 58.43113327
vertex 86.61074066 -57.38645172 57.42831039
vertex 88.30171967 -49.16864777 61.10415649

endloop
endfacet
facet normal 0.1043942645 -0.4239059389 0.8996697068
outer loop
vertex 88.30171967 -49.16864777 61.10415649
vertex 86.61074066 -57.38645172 57.42831039
vertex 91.78054047 -50.53533173 60.05653381

endloop
endfacet
facet normal 0.1378989965 -0.357132405 0.9238183498
outer loop
vertex 88.30171967 -49.16864777 61.10415649
vertex 91.78054047 -50.53533173 60.05653381
vertex 92.55550385 -44.11780548 62.42176056

endloop
endfacet
facet normal 0.321293354 -0.3613991737 0.8753063679
outer loop
vertex 92.55550385 -44.11780548 62.42176056
vertex 91.78054047 -50.53533173 60.05653381
vertex 96.81224823 -44.74210358 60.60150146

endloop
endfacet
facet normal 0.3339389861 -0.3141934574 0.8886885047
outer loop
vertex 92.55550385 -44.11780548 62.42176056
vertex 96.81224823 -44.74210358 60.60150146
vertex 95.8948288 -39.97205353 62.63267517

endloop
endfacet
facet normal 0.5112219453 -0.2516114712 0.8217929602
outer loop
vertex 95.8948288 -39.97205353 62.63267517
vertex 96.81224823 -44.74210358 60.60150146
vertex 99.92101288 -39.87688446 60.15719986

endloop
endfacet
facet normal 0.5198934674 -0.1579764932 0.8394963145
outer loop
vertex 95.8948288 -39.97205353 62.63267517
vertex 99.92101288 -39.87688446 60.15719986
vertex 98.08300018 -36.3716507 61.95508194

endloop
endfacet
facet normal 0.6454855204 -0.05235940591 0.761975646
outer loop
vertex 98.08300018 -36.3716507 61.95508194
vertex 99.92101288 -39.87688446 60.15719986
vertex 101.4048386 -35.7326889 59.18498993

endloop
endfacet
facet normal 0.6204355359 0.1285109967 0.7736566663
outer loop
vertex 98.08300018 -36.3716507 61.95508194
vertex 101.4048386 -35.7326889 59.18498993
vertex 99.1873703 -33.58289337 60.60619354

endloop
endfacet
facet normal 0.6366680264 0.1576924026 0.7548423409
outer loop
vertex 99.1873703 -33.58289337 60.60619354
vertex 101.4048386 -35.7326889 59.18498993
vertex 102.2198715 -32.40389252 57.8021431

endloop
endfacet
facet normal 0.5106444359 0.4414002001 0.7378401756
outer loop
vertex 99.1873703 -33.58289337 60.60619354
vertex 102.2198715 -32.40389252 57.8021431
vertex 99.70595551 -32.61684418 59.66936874

endloop
endfacet
facet normal 0.5868074894 0.1085371748 0.8024193048
outer loop
vertex 99.70595551 -32.61684418 59.66936874
vertex 102.2198715 -32.40389252 57.8021431
vertex 102.7387009 -30.25495148 57.13205338

endloop
endfacet
facet normal 0.7265982628 -0.2423077971 0.642916739
outer loop
vertex 99.70595551 -32.61684418 59.66936874
vertex 102.7387009 -30.25495148 57.13205338
vertex 99.38869476 -23.57872772 63.43428421

endloop
endfacet
facet normal -0.7904931307 0.1537069976 -0.5928698778
outer loop
vertex 99.38869476 -23.57872772 63.43428421
vertex 102.7387009 -30.25495148 57.13205338
vertex 99.38869476 -23.57874298 63.4342804

endloop
endfacet
facet normal -0.9856059551 0 0.169058919
outer loop
vertex 87.6490097 -64.39834595 63.48136902
vertex 87.6490097 -64.39833832 63.48136902
vertex 86.61074066 -57.38646698 57.42830658

endloop
endfacet
facet normal 0.4245330691 0.6268493533 0.6533234715
outer loop
vertex 86.61074066 -57.38646698 57.42830658
vertex 87.6490097 -64.39833832 63.48136902
vertex 89.96633148 -59.67676544 57.44531631

endloop
endfacet
facet normal -0.1684396118 -0.2396853119 0.9561271071
outer loop
vertex 86.61074066 -57.38646698 57.42830658
vertex 89.96633148 -59.67676544 57.44531631
vertex 91.78054047 -50.53534698 60.05652618

endloop
endfacet
facet normal 0.1181004569 -0.2943381369 0.9483761191
outer loop
vertex 91.78054047 -50.53534698 60.05652618
vertex 89.96633148 -59.67676544 57.44531631
vertex 95.80843353 -52.09302521 59.07149506

endloop
endfacet
facet normal 0.1501633674 -0.2210732251 0.9636273384
outer loop
vertex 91.78054047 -50.53534698 60.05652618
vertex 95.80843353 -52.09302521 59.07149506
vertex 96.81224823 -44.74211884 60.60149765

endloop
endfacet
facet normal 0.4186615944 -0.2394982874 0.8759925961
outer loop
vertex 96.81224823 -44.74211884 60.60149765
vertex 95.80843353 -52.09302521 59.07149506
vertex 100.829216 -45.39415741 58.50340652

endloop
endfacet
facet normal 0.4292967319 -0.1937496811 0.8821368814
outer loop
vertex 96.81224823 -44.74211884 60.60149765
vertex 100.829216 -45.39415741 58.50340652
vertex 99.92098236 -39.87689972 60.15719604

endloop
endfacet
facet normal 0.5035672188 -0.1709534228 0.8468737006
outer loop
vertex 99.92098236 -39.87689972 60.15719604
vertex 100.829216 -45.39415741 58.50340652
vertex 103.7589951 -39.71819305 57.90707779

endloop
endfacet
facet normal 0.5049775243 0.02161677368 0.8628617525
outer loop
vertex 99.92098236 -39.87689972 60.15719604
vertex 103.7589951 -39.71819305 57.90707779
vertex 101.404808 -35.73270416 59.18498611

endloop
endfacet
facet normal 0.4098422825 -0.04994574189 0.9107879996
outer loop
vertex 101.404808 -35.73270416 59.18498611
vertex 103.7589951 -39.71819305 57.90707779
vertex 105.0398178 -34.94112396 57.59268951

endloop
endfacet
facet normal 0.329613924 0.2922391593 0.8977476358
outer loop
vertex 101.404808 -35.73270416 59.18498611
vertex 105.0398178 -34.94112396 57.59268951
vertex 102.219841 -32.40390778 57.80213547

endloop
endfacet
facet normal 0.1952311844 0.1368194073 0.9711669087
outer loop
vertex 102.219841 -32.40390778 57.80213547
vertex 105.0398178 -34.94112396 57.59268951
vertex 105.5153732 -30.98287201 56.9394455

endloop
endfacet
facet normal 0.1356726289 0.2649302185 0.9546753168
outer loop
vertex 102.219841 -32.40390778 57.80213547
vertex 105.5153732 -30.98287201 56.9394455
vertex 102.7387009 -30.25496674 57.13204956

endloop
endfacet
facet normal 0.1150174141 0.1802659333 0.97687006
outer loop
vertex 102.7387009 -30.25496674 57.13204956
vertex 105.5153732 -30.98287201 56.9394455
vertex 105.1196823 -27.77085114 56.39330673

endloop
endfacet
facet normal 0.6025599241 -0.3667518795 0.708812058
outer loop
vertex 102.7387009 -30.25496674 57.13204956
vertex 105.1196823 -27.77085114 56.39330673
vertex 99.38869476 -23.57874298 63.4342804

endloop
endfacet
facet normal 0.7139569521 -0.1487410367 0.6842087507
outer loop
vertex 99.38869476 -23.57874298 63.4342804
vertex 105.1196823 -27.77085114 56.39330673
vertex 99.38869476 -23.57872772 63.43428421

endloop
endfacet
facet normal -nan(ind) -nan(ind) -nan(ind)
outer loop
vertex 87.6490097 -64.39833832 63.48136902
vertex 87.6490097 -64.39833832 63.48136902
vertex 89.96633148 -59.67676544 57.44531631

endloop
endfacet
facet normal 0.4742177427 0.5958420634 0.6481432915
outer loop
vertex 89.96633148 -59.67676544 57.44531631
vertex 87.6490097 -64.39833832 63.48136902
vertex 93.71907806 -62.05176544 56.88294983

endloop
endfacet
facet normal 0.009285497479 -0.2164880782 0.9762411118
outer loop
vertex 89.96633148 -59.67676544 57.44531631
vertex 93.71907806 -62.05176544 56.88294983
vertex 95.80843353 -52.09302521 59.07149506

endloop
endfacet
facet normal 0.1001730487 -0.2335624546 0.9671679735
outer loop
vertex 95.80843353 -52.09302521 59.07149506
vertex 93.71907806 -62.05176544 56.88294983
vertex 100.2605515 -53.88600922 58.17738342

endloop
endfacet
facet normal 0.1774097383 -0.04961580038 0.9828855991
outer loop
vertex 95.80843353 -52.09302521 59.07149506
vertex 100.2605515 -53.88600922 58.17738342
vertex 100.829216 -45.39415741 58.50340652

endloop
endfacet
facet normal 0.06466394663 -0.04260745272 0.9969970584
outer loop
vertex 100.829216 -45.39415741 58.50340652
vertex 100.2605515 -53.88600922 58.17738342
vertex 104.6346359 -46.49440765 58.20957184

endloop
endfacet
facet normal 0.0930633992 0.05640136823 0.9940614104
outer loop
vertex 100.829216 -45.39415741 58.50340652
vertex 104.6346359 -46.49440765 58.20957184
vertex 103.7589951 -39.71819305 57.90707779

endloop
endfacet
facet normal -0.1011752933 0.03131534532 0.9943756461
outer loop
vertex 103.7589951 -39.71819305 57.90707779
vertex 104.6346359 -46.49440765 58.20957184
vertex 107.173851 -40.07749176 58.26584625

endloop
endfacet
facet normal -0.09462141246 0.09061450511 0.9913808107
outer loop
vertex 103.7589951 -39.71819305 57.90707779
vertex 107.173851 -40.07749176 58.26584625
vertex 105.0398178 -34.94112396 57.59268951

endloop
endfacet
facet normal -0.2232517153 0.03491170332 0.9741355181
outer loop
vertex 105.0398178 -34.94112396 57.59268951
vertex 107.173851 -40.07749176 58.26584625
vertex 108.3084335 -34.61777496 58.3302002

endloop
endfacet
facet normal -0.2337112874 0.1855914593 0.9544290304
outer loop
vertex 105.0398178 -34.94112396 57.59268951
vertex 108.3084335 -34.61777496 58.3302002
vertex 105.5153732 -30.98287201 56.9394455

endloop
endfacet
facet normal -0.3109235466 0.1217379719 0.9426062107
outer loop
vertex 105.5153732 -30.98287201 56.9394455
vertex 108.3084335 -34.61777496 58.3302002
vertex 108.2677231 -29.98241425 57.71811295

endloop
endfacet
facet normal -0.3109875619 0.1219519526 0.9425574541
outer loop
vertex 105.5153732 -30.98287201 56.9394455
vertex 108.2677231 -29.98241425 57.71811295
vertex 105.1196823 -27.77085114 56.39330673

endloop
endfacet
facet normal -0.336268574 0.08328162134 0.9380765557
outer loop
vertex 105.1196823 -27.77085114 56.39330673
vertex 108.2677231 -29.98241425 57.71811295
vertex 106.6839218 -25.7204361 56.77199936

endloop
endfacet
facet normal 0.494895041 -0.5077844262 0.7051481605
outer loop
vertex 105.1196823 -27.77085114 56.39330673
vertex 106.6839218 -25.7204361 56.77199936
vertex 99.38869476 -23.57872772 63.43428421

endloop
endfacet
facet normal -0.6314831972 0.206198588 -0.747469902
outer loop
vertex 99.38869476 -23.57872772 63.43428421
vertex 106.6839218 -25.7204361 56.77199936
vertex 99.38869476 -23.57874298 63.4342804

endloop
endfacet
facet normal 0.3605756462 -0.9327300191 0
outer loop
vertex 87.6490097 -64.39833832 63.48136902
vertex 87.6490097 -64.39833832 63.4813652
vertex 93.71907806 -62.05176544 56.88294983

endloop
endfacet
facet normal 0.2897236049 0.7860491276 0.5460650325
outer loop
vertex 93.71907806 -62.05176544 56.88294983
vertex 87.6490097 -64.39833832 63.4813652
vertex 96.45479584 -64.13143921 58.42511749

endloop
endfacet
facet normal -0.3859525919 0.1653109044 0.9075862765
outer loop
vertex 93.71907806 -62.05176544 56.88294983
vertex 96.45479584 -64.13143921 58.42511749
vertex 100.2605515 -53.88600922 58.17738342

endloop
endfacet
facet normal -0.2753809988 0.1253393441 0.9531292319
outer loop
vertex 100.2605515 -53.88600922 58.17738342
vertex 96.45479584 -64.13143921 58.42511749
vertex 103.058403 -55.46973419 59.19401169

endloop
endfacet
facet normal -0.2612805068 0.150464341 0.9534636736
outer loop
vertex 100.2605515 -53.88600922 58.17738342
vertex 103.058403 -55.46973419 59.19401169
vertex 104.6346359 -46.49440765 58.20957184

endloop
endfacet
facet normal -0.3183421195 0.1584212929 0.9346448779
outer loop
vertex 104.6346359 -46.49440765 58.20957184
vertex 103.058403 -55.46973419 59.19401169
vertex 107.1780014 -47.65671539 59.27285767

endloop
endfacet
facet normal -0.3339828253 0.1239648238 0.9343919158
outer loop
vertex 104.6346359 -46.49440765 58.20957184
vertex 107.1780014 -47.65671539 59.27285767
vertex 107.173851 -40.07749176 58.26584625

endloop
endfacet
facet normal -0.4586050212 0.1167936176 0.880931735
outer loop
vertex 107.173851 -40.07749176 58.26584625
vertex 107.1780014 -47.65671539 59.27285767
vertex 109.6236496 -40.80652618 59.63784409

endloop
endfacet
facet normal -0.4670333564 0.08668173105 0.8799807429
outer loop
vertex 107.173851 -40.07749176 58.26584625
vertex 109.6236496 -40.80652618 59.63784409
vertex 108.3084335 -34.61777496 58.3302002

endloop
endfacet
facet normal -0.5720912218 0.05138134211 0.8185789585
outer loop
vertex 108.3084335 -34.61777496 58.3302002
vertex 109.6236496 -40.80652618 59.63784409
vertex 110.6977158 -34.83408356 60.01360703

endloop
endfacet
facet normal -0.5666564703 0.1029713079 0.8174945116
outer loop
vertex 108.3084335 -34.61777496 58.3302002
vertex 110.6977158 -34.83408356 60.01360703
vertex 108.2677231 -29.98241425 57.71811295

endloop
endfacet
facet normal -0.6739372611 0.01195469126 0.7386918664
outer loop
vertex 108.2677231 -29.98241425 57.71811295
vertex 110.6977158 -34.83408356 60.01360703
vertex 110.2775192 -29.45413971 59.54317856

endloop
endfacet
facet normal -0.658762157 -0.07870624214 0.7482230663
outer loop
vertex 108.2677231 -29.98241425 57.71811295
vertex 110.2775192 -29.45413971 59.54317856
vertex 106.6839218 -25.7204361 56.77199936

endloop
endfacet
facet normal -0.7118710279 -0.1816330254 0.6784166694
outer loop
vertex 106.6839218 -25.7204361 56.77199936
vertex 110.2775192 -29.45413971 59.54317856
vertex 107.6882858 -23.93115997 58.30493546

endloop
endfacet
facet normal 0.3454279006 -0.714822948 0.6080359221
outer loop
vertex 106.6839218 -25.7204361 56.77199936
vertex 107.6882858 -23.93115997 58.30493546
vertex 99.38869476 -23.57874298 63.4342804

endloop
endfacet
facet normal -nan(ind) -nan(ind) -nan(ind)
outer loop
vertex 99.38869476 -23.57874298 63.4342804
vertex 107.6882858 -23.93115997 58.30493546
vertex 99.38869476 -23.57874298 63.4342804

endloop
endfacet
facet normal -0.1744589657 0.9514445662 -0.2536087334
outer loop
vertex 87.6490097 -64.39833832 63.4813652
vertex 87.64904022 -64.39833069 63.48137283
vertex 96.45479584 -64.13143921 58.42511749

endloop
endfacet
facet normal 0.1803704202 0.91440624 0.3623917401
outer loop
vertex 96.45479584 -64.13143921 58.42511749
vertex 87.64904022 -64.39833069 63.48137283
vertex 98.20211029 -65.52726746 61.07746887

endloop
endfacet
facet normal -0.6352843642 0.427225858 0.6433444023
outer loop
vertex 96.45479584 -64.13143921 58.42511749
vertex 98.20211029 -65.52726746 61.07746887
vertex 103.058403 -55.46973419 59.19401169

endloop
endfacet
facet normal -0.5372333527 0.3986006975 0.743301928
outer loop
vertex 103.058403 -55.46973419 59.19401169
vertex 98.20211029 -65.52726746 61.07746887
vertex 104.5474472 -56.45586395 60.79906082

endloop
endfacet
facet normal -0.5962969661 0.3069259524 0.7417724729
outer loop
vertex 103.058403 -55.46973419 59.19401169
vertex 104.5474472 -56.45586395 60.79906082
vertex 107.1780014 -47.65671539 59.27285767

endloop
endfacet
facet normal -0.6787210107 0.3177476823 0.6620984077
outer loop
vertex 107.1780014 -47.65671539 59.27285767
vertex 104.5474472 -56.45586395 60.79906082
vertex 108.6442795 -48.5358963 61.19787598

endloop
endfacet
facet normal -0.723490119 0.2234989107 0.6531541944
outer loop
vertex 107.1780014 -47.65671539 59.27285767
vertex 108.6442795 -48.5358963 61.19787598
vertex 109.6236496 -40.80652618 59.63784409

endloop
endfacet
facet normal -0.7951535583 0.215179801 0.5669465661
outer loop
vertex 109.6236496 -40.80652618 59.63784409
vertex 108.6442795 -48.5358963 61.19787598
vertex 111.1821823 -41.50336456 62.0881958

endloop
endfacet
facet normal -0.8234877586 0.1131157875 0.5559430122
outer loop
vertex 109.6236496 -40.80652618 59.63784409
vertex 111.1821823 -41.50336456 62.0881958
vertex 110.6977158 -34.83408356 60.01360703

endloop
endfacet
facet normal -0.8765894175 0.08373688906 0.4738978148
outer loop
vertex 110.6977158 -34.83408356 60.01360703
vertex 111.1821823 -41.50336456 62.0881958
vertex 112.2401047 -34.98069 62.89253616

endloop
endfacet
facet normal -0.8817148209 -0.02768356912 0.4709697962
outer loop
vertex 110.6977158 -34.83408356 60.01360703
vertex 112.2401047 -34.98069 62.89253616
vertex 110.2775192 -29.45413971 59.54317856

endloop
endfacet
facet normal -0.9256029725 -0.1090374142 0.3624498546
outer loop
vertex 110.2775192 -29.45413971 59.54317856
vertex 112.2401047 -34.98069 62.89253616
vertex 111.4474411 -28.5775528 62.79456329

endloop
endfacet
facet normal -0.8625205755 -0.3156959116 0.3954673409
outer loop
vertex 110.2775192 -29.45413971 59.54317856
vertex 111.4474411 -28.5775528 62.79456329
vertex 107.6882858 -23.93115997 58.30493546

endloop
endfacet
facet normal -0.8638729453 -0.3845260739 0.3253662586
outer loop
vertex 107.6882858 -23.93115997 58.30493546
vertex 111.4474411 -28.5775528 62.79456329
vertex 107.8807297 -21.83333588 61.29515076

endloop
endfacet
facet normal 0.2973515391 -0.7904942632 0.5354444981
outer loop
vertex 107.6882858 -23.93115997 58.30493546
vertex 107.8807297 -21.83333588 61.29515076
vertex 99.38869476 -23.57874298 63.4342804

endloop
endfacet
facet normal -nan(ind) -nan(ind) -nan(ind)
outer loop
vertex 99.38869476 -23.57874298 63.4342804
vertex 107.8807297 -21.83333588 61.29515076
vertex 99.38869476 -23.57874298 63.4342804

endloop
endfacet
facet normal -0.1063701734 -0.9943266511 0
outer loop
vertex 87.64904022 -64.39833069 63.48137283
vertex 87.64904022 -64.39833069 63.48136902
vertex 98.20211029 -65.52726746 61.07746887

endloop
endfacet
facet normal 0.1305915862 0.9852485657 0.1105947569
outer loop
vertex 98.20211029 -65.52726746 61.07746887
vertex 87.64904022 -64.39833069 63.48136902
vertex 98.82823944 -66.00777435 64.61878967

endloop
endfacet
facet normal -0.7966881394 0.5639452338 0.2173791379
outer loop
vertex 98.20211029 -65.52726746 61.07746887
vertex 98.82823944 -66.00777435 64.61878967
vertex 104.5474472 -56.45586395 60.79906082

endloop
endfacet
facet normal -0.7912350893 0.566164732 0.2310940772
outer loop
vertex 104.5474472 -56.45586395 60.79906082
vertex 98.82823944 -66.00777435 64.61878967
vertex 105.023735 -56.92192841 63.57163239

endloop
endfacet
facet normal -0.8703206778 0.4389543235 0.2232960016
outer loop
vertex 104.5474472 -56.45586395 60.79906082
vertex 105.023735 -56.92192841 63.57163239
vertex 108.6442795 -48.5358963 61.19787598

endloop
endfacet
facet normal -0.8812593818 0.4336652458 0.1879266649
outer loop
vertex 108.6442795 -48.5358963 61.19787598
vertex 105.023735 -56.92192841 63.57163239
vertex 109.076622 -49.08506012 64.49256134

endloop
endfacet
facet normal -0.9329922199 0.3145609498 0.1748627424
outer loop
vertex 108.6442795 -48.5358963 61.19787598
vertex 109.076622 -49.08506012 64.49256134
vertex 111.1821823 -41.50336456 62.0881958

endloop
endfacet
facet normal -0.9309023023 0.3164047897 0.1825070381
outer loop
vertex 111.1821823 -41.50336456 62.0881958
vertex 109.076622 -49.08506012 64.49256134
vertex 111.7343369 -41.93674469 65.65586853

endloop
endfacet
facet normal -0.9761666059 0.1376341879 0.167796433
outer loop
vertex 111.1821823 -41.50336456 62.0881958
vertex 111.7343369 -41.93674469 65.65586853
vertex 112.2401047 -34.98069 62.89253616

endloop
endfacet
facet normal -0.9795661569 0.1316314489 0.1520636678
outer loop
vertex 112.2401047 -34.98069 62.89253616
vertex 111.7343369 -41.93674469 65.65586853
vertex 112.8274155 -34.93199921 66.63373566

endloop
endfacet
facet normal -0.980640769 -0.1190172732 0.1554945111
outer loop
vertex 112.2401047 -34.98069 62.89253616
vertex 112.8274155 -34.93199921 66.63373566
vertex 111.4474411 -28.5775528 62.79456329

endloop
endfacet
facet normal -0.9831106663 -0.1615978926 0.08590454608
outer loop
vertex 111.4474411 -28.5775528 62.79456329
vertex 112.8274155 -34.93199921 66.63373566
vertex 111.666008 -27.64963531 67.04142761

endloop
endfacet
facet normal -0.8877565265 -0.4380569756 0.1414019465
outer loop
vertex 111.4474411 -28.5775528 62.79456329
vertex 111.666008 -27.64963531 67.04142761
vertex 107.8807297 -21.83333588 61.29515076

endloop
endfacet
facet normal -0.8741452098 -0.4765930176 0.09343007207
outer loop
vertex 107.8807297 -21.83333588 61.29515076
vertex 111.666008 -27.64963531 67.04142761
vertex 107.2408371 -19.8993454 65.17363739

endloop
endfacet
facet normal 0.2891133428 -0.8367933631 0.4649627805
outer loop
vertex 107.8807297 -21.83333588 61.29515076
vertex 107.2408371 -19.8993454 65.17363739
vertex 99.38869476 -23.57874298 63.4342804

endloop
endfacet
facet normal -nan(ind) -nan(ind) -nan(ind)
outer loop
vertex 99.38869476 -23.57874298 63.4342804
vertex 107.2408371 -19.8993454 65.17363739
vertex 99.38869476 -23.57874298 63.4342804

endloop
endfacet
facet normal -0.01636561938 0.4987563193 0.8665876985
outer loop
vertex 87.64904022 -64.39833069 63.48136902
vertex 87.6490097 -64.39833832 63.48137283
vertex 98.82823944 -66.00777435 64.61878967

endloop
endfacet
facet normal 0.1497518271 0.985714972 -0.07707366347
outer loop
vertex 98.82823944 -66.00777435 64.61878967
vertex 87.6490097 -64.39833832 63.48137283
vertex 98.34496307 -65.63056183 68.50406647

endloop
endfacet
facet normal -0.8244109154 0.5442444682 -0.1553850919
outer loop
vertex 98.82823944 -66.00777435 64.61878967
vertex 98.34496307 -65.63056183 68.50406647
vertex 105.023735 -56.92192841 63.57163239

endloop
endfacet
facet normal -0.8184924126 0.5630643964 -0.1141430363
outer loop
vertex 105.023735 -56.92192841 63.57163239
vertex 98.34496307 -65.63056183 68.50406647
vertex 104.5717392 -56.87519073 67.04334259

endloop
endfacet
facet normal -0.8759537339 0.4671457112 -0.1203328446
outer loop
vertex 105.023735 -56.92192841 63.57163239
vertex 104.5717392 -56.87519073 67.04334259
vertex 109.076622 -49.08506012 64.49256134

endloop
endfacet
facet normal -0.875084877 0.4739223123 -0.09810259193
outer loop
vertex 109.076622 -49.08506012 64.49256134
vertex 104.5717392 -56.87519073 67.04334259
vertex 108.6147995 -49.20214081 68.04646301

endloop
endfacet
facet normal -0.9258989692 0.3618858159 -0.1083966866
outer loop
vertex 109.076622 -49.08506012 64.49256134
vertex 108.6147995 -49.20214081 68.04646301
vertex 111.7343369 -41.93674469 65.65586853

endloop
endfacet
facet normal -0.9259462357 0.3584913015 -0.1187748238
outer loop
vertex 111.7343369 -41.93674469 65.65586853
vertex 108.6147995 -49.20214081 68.04646301
vertex 111.2654953 -42.00670624 69.09970856

endloop
endfacet
facet normal -0.976806879 0.1705098301 -0.1295177937
outer loop
vertex 111.7343369 -41.93674469 65.65586853
vertex 111.2654953 -42.00670624 69.09970856
vertex 112.8274155 -34.93199921 66.63373566

endloop
endfacet
facet normal -0.9732224345 0.1560254395 -0.1688021421
outer loop
vertex 112.8274155 -34.93199921 66.63373566
vertex 111.2654953 -42.00670624 69.09970856
vertex 112.215538 -34.84722137 70.23985291

endloop
endfacet
facet normal -0.9758262038 -0.1465502828 -0.1621305496
outer loop
vertex 112.8274155 -34.93199921 66.63373566
vertex 112.215538 -34.84722137 70.23985291
vertex 111.666008 -27.64963531 67.04142761

endloop
endfacet
facet normal -0.9609818459 -0.17024903 -0.2180115581
outer loop
vertex 111.666008 -27.64963531 67.04142761
vertex 112.215538 -34.84722137 70.23985291
vertex 110.6140366 -27.2937088 71.40050507

endloop
endfacet
facet normal -0.84002918 -0.5182869434 -0.1604042649
outer loop
vertex 111.666008 -27.64963531 67.04142761
vertex 110.6140366 -27.2937088 71.40050507
vertex 107.2408371 -19.8993454 65.17363739

endloop
endfacet
facet normal -0.8172652721 -0.5406872034 -0.1993359625
outer loop
vertex 107.2408371 -19.8993454 65.17363739
vertex 110.6140366 -27.2937088 71.40050507
vertex 105.6108017 -18.94593048 69.27059937

endloop
endfacet
facet normal 0.3367539942 -0.8786598444 0.3384577036
outer loop
vertex 107.2408371 -19.8993454 65.17363739
vertex 105.6108017 -18.94593048 69.27059937
vertex 99.38869476 -23.57874298 63.4342804

endloop
endfacet
facet normal 0.6401844025 -0.7682212591 0
outer loop
vertex 99.38869476 -23.57874298 63.4342804
vertex 105.6108017 -18.94593048 69.27059937
vertex 99.38869476 -23.57874298 63.43428421

endloop
endfacet
facet normal -nan(ind) -nan(ind) -nan(ind)
outer loop
vertex 87.6490097 -64.39833832 63.48137283
vertex 87.6490097 -64.39833832 63.48137283
vertex 98.34496307 -65.63056183 68.50406647

endloop
endfacet
facet normal 0.2186754197 0.9475177526 -0.2332191616
outer loop
vertex 98.34496307 -65.63056183 68.50406647
vertex 87.6490097 -64.39833832 63.48137283
vertex 96.98155975 -64.5575943 71.58491516

endloop
endfacet
facet normal -0.7477755547 0.4504320025 -0.4877937138
outer loop
vertex 98.34496307 -65.63056183 68.50406647
vertex 96.98155975 -64.5575943 71.58491516
vertex 104.5717392 -56.87519073 67.04334259

endloop
endfacet
facet normal -0.7437819839 0.4346606433 -0.5077977777
outer loop
vertex 104.5717392 -56.87519073 67.04334259
vertex 96.98155975 -64.5575943 71.58491516
vertex 103.2062302 -56.16941071 69.64756012

endloop
endfacet
facet normal -0.7333359718 0.4527167082 -0.5072138906
outer loop
vertex 104.5717392 -56.87519073 67.04334259
vertex 103.2062302 -56.16941071 69.64756012
vertex 108.6147995 -49.20214081 68.04646301

endloop
endfacet
facet normal -0.736512661 0.4571769536 -0.4985362291
outer loop
vertex 108.6147995 -49.20214081 68.04646301
vertex 103.2062302 -56.16941071 69.64756012
vertex 107.3384018 -48.77922821 70.31997681

endloop
endfacet
facet normal -0.7823271155 0.3623555005 -0.5066189766
outer loop
vertex 108.6147995 -49.20214081 68.04646301
vertex 107.3384018 -48.77922821 70.31997681
vertex 111.2654953 -42.00670624 69.09970856

endloop
endfacet
facet normal -0.77257514 0.3528790772 -0.5278295279
outer loop
vertex 111.2654953 -42.00670624 69.09970856
vertex 107.3384018 -48.77922821 70.31997681
vertex 109.7954636 -41.77863312 71.40384674

endloop
endfacet
facet normal -0.8180444837 0.1947355866 -0.5411851406
outer loop
vertex 111.2654953 -42.00670624 69.09970856
vertex 109.7954636 -41.77863312 71.40384674
vertex 112.215538 -34.84722137 70.23985291

endloop
endfacet
facet normal -0.8106900454 0.1900544465 -0.5537697077
outer loop
vertex 112.215538 -34.84722137 70.23985291
vertex 109.7954636 -41.77863312 71.40384674
vertex 110.2418442 -34.88549042 73.11610413

endloop
endfacet
facet normal -0.8208496571 -0.08730814606 -0.5644316673
outer loop
vertex 112.215538 -34.84722137 70.23985291
vertex 110.2418442 -34.88549042 73.11610413
vertex 110.6140366 -27.2937088 71.40050507

endloop
endfacet
facet normal -0.818589747 -0.08812979609 -0.5675772429
outer loop
vertex 110.6140366 -27.2937088 71.40050507
vertex 110.2418442 -34.88549042 73.11610413
vertex 107.9879074 -27.66622162 75.24588776

endloop
endfacet
facet normal -0.6732183099 -0.5339980721 -0.5114911795
outer loop
vertex 110.6140366 -27.2937088 71.40050507
vertex 107.9879074 -27.66622162 75.24588776
vertex 105.6108017 -18.94593048 69.27059937

endloop
endfacet
facet normal -0.6506259441 -0.5418979526 -0.5320080519
outer loop
vertex 105.6108017 -18.94593048 69.27059937
vertex 107.9879074 -27.66622162 75.24588776
vertex 102.6450119 -19.31789398 73.2765274

endloop
endfacet
facet normal 0.4281642139 -0.8723435998 0.2359915227
outer loop
vertex 105.6108017 -18.94593048 69.27059937
vertex 102.6450119 -19.31789398 73.2765274
vertex 99.38869476 -23.57874298 63.43428421

endloop
endfacet
facet normal -0.8000000119 0.6000000238 0
outer loop
vertex 99.38869476 -23.57874298 63.43428421
vertex 102.6450119 -19.31789398 73.2765274
vertex 99.38869476 -23.57874298 63.4342804

endloop
endfacet
facet normal -0.01706208847 -0.9998543859 0
outer loop
vertex 87.6490097 -64.39833832 63.48137283
vertex 87.6490097 -64.39833832 63.48136902
vertex 96.98155975 -64.5575943 71.58491516

endloop
endfacet
facet normal 0.3553266823 0.8483228683 -0.3925446272
outer loop
vertex 96.98155975 -64.5575943 71.58491516
vertex 87.6490097 -64.39833832 63.48136902
vertex 94.54958344 -62.74877167 73.2925415

endloop
endfacet
facet normal -0.4842960835 0.1607548594 -0.8600088358
outer loop
vertex 96.98155975 -64.5575943 71.58491516
vertex 94.54958344 -62.74877167 73.2925415
vertex 103.2062302 -56.16941071 69.64756012

endloop
endfacet
facet normal -0.4999864697 0.1897149235 -0.8449981213
outer loop
vertex 103.2062302 -56.16941071 69.64756012
vertex 94.54958344 -62.74877167 73.2925415
vertex 100.4550095 -54.83281708 71.57554626

endloop
endfacet
facet normal -0.4347033203 0.3196668625 -0.8419300318
outer loop
vertex 103.2062302 -56.16941071 69.64756012
vertex 100.4550095 -54.83281708 71.57554626
vertex 107.3384018 -48.77922821 70.31997681

endloop
endfacet
facet normal -0.4171017706 0.2960519791 -0.8592900038
outer loop
vertex 107.3384018 -48.77922821 70.31997681
vertex 100.4550095 -54.83281708 71.57554626
vertex 104.5147934 -47.91481781 71.98838043

endloop
endfacet
facet normal -0.4227127135 0.2817240953 -0.8613626361
outer loop
vertex 107.3384018 -48.77922821 70.31997681
vertex 104.5147934 -47.91481781 71.98838043
vertex 109.7954636 -41.77863312 71.40384674

endloop
endfacet
facet normal -0.4356278479 0.2938434482 -0.8508139849
outer loop
vertex 109.7954636 -41.77863312 71.40384674
vertex 104.5147934 -47.91481781 71.98838043
vertex 106.8177414 -41.44832611 73.04255676

endloop
endfacet
facet normal -0.4468957782 0.2428129613 -0.8610029817
outer loop
vertex 109.7954636 -41.77863312 71.40384674
vertex 106.8177414 -41.44832611 73.04255676
vertex 110.2418442 -34.88549042 73.11610413

endloop
endfacet
facet normal -0.5175769329 0.2791056037 -0.8088351488
outer loop
vertex 110.2418442 -34.88549042 73.11610413
vertex 106.8177414 -41.44832611 73.04255676
vertex 106.8645554 -35.19730377 75.16964722

endloop
endfacet
facet normal -0.5234156847 0.08665502816 -0.8476597071
outer loop
vertex 110.2418442 -34.88549042 73.11610413
vertex 106.8645554 -35.19730377 75.16964722
vertex 107.9879074 -27.66622162 75.24588776

endloop
endfacet
facet normal -0.5905421376 0.09619794041 -0.8012527823
outer loop
vertex 107.9879074 -27.66622162 75.24588776
vertex 106.8645554 -35.19730377 75.16964722
vertex 104.017662 -28.69016266 78.04911804

endloop
endfacet
facet normal -0.430462718 -0.4588525891 -0.7772749066
outer loop
vertex 107.9879074 -27.66622162 75.24588776
vertex 104.017662 -28.69016266 78.04911804
vertex 102.6450119 -19.31789398 73.2765274

endloop
endfacet
facet normal -0.4454624951 -0.4572176039 -0.7697501183
outer loop
vertex 102.6450119 -19.31789398 73.2765274
vertex 104.017662 -28.69016266 78.04911804
vertex 98.56060028 -20.94368744 76.60591125

endloop
endfacet
facet normal 0.498770386 -0.8433268666 0.2000695467
outer loop
vertex 102.6450119 -19.31789398 73.2765274
vertex 98.56060028 -20.94368744 76.60591125
vertex 99.38869476 -23.57874298 63.4342804

endloop
endfacet
facet normal -nan(ind) -nan(ind) -nan(ind)
outer loop
vertex 99.38869476 -23.57874298 63.4342804
vertex 98.56060028 -20.94368744 76.60591125
vertex 99.38869476 -23.57874298 63.4342804

endloop
endfacet
facet normal 0.2434910238 -0.9698685408 -0.008191173896
outer loop
vertex 87.6490097 -64.39833832 63.48136902
vertex 87.64904022 -64.39833069 63.48137283
vertex 94.54958344 -62.74877167 73.2925415

endloop
endfacet
facet normal 0.6971658468 0.4417765737 -0.564617753
outer loop
vertex 94.54958344 -62.74877167 73.2925415
vertex 87.64904022 -64.39833069 63.48137283
vertex 91.10549164 -60.27892303 70.97241974

endloop
endfacet
facet normal 0.2922797203 -0.4058691859 -0.8659346104
outer loop
vertex 94.54958344 -62.74877167 73.2925415
vertex 91.10549164 -60.27892303 70.97241974
vertex 100.4550095 -54.83281708 71.57554626

endloop
endfacet
facet normal 0.1957607716 -0.2305103391 -0.9531750083
outer loop
vertex 100.4550095 -54.83281708 71.57554626
vertex 91.10549164 -60.27892303 70.97241974
vertex 96.08473969 -52.6667099 70.15415192

endloop
endfacet
facet normal 0.2637757957 -0.09752824157 -0.9596408606
outer loop
vertex 100.4550095 -54.83281708 71.57554626
vertex 96.08473969 -52.6667099 70.15415192
vertex 104.5147934 -47.91481781 71.98838043

endloop
endfacet
facet normal 0.2606056035 -0.09133499861 -0.9611153007
outer loop
vertex 104.5147934 -47.91481781 71.98838043
vertex 96.08473969 -52.6667099 70.15415192
vertex 99.72789764 -46.29128265 70.53613281

endloop
endfacet
facet normal 0.3044579029 0.04666731507 -0.9513819218
outer loop
vertex 104.5147934 -47.91481781 71.98838043
vertex 99.72789764 -46.29128265 70.53613281
vertex 106.8177414 -41.44832611 73.04255676

endloop
endfacet
facet normal 0.2415727675 0.1430729479 -0.9597774148
outer loop
vertex 106.8177414 -41.44832611 73.04255676
vertex 99.72789764 -46.29128265 70.53613281
vertex 102.0035324 -40.7403183 71.93637848

endloop
endfacet
facet normal 0.2559576035 0.3096897304 -0.9157390594
outer loop
vertex 106.8177414 -41.44832611 73.04255676
vertex 102.0035324 -40.7403183 71.93637848
vertex 106.8645554 -35.19730377 75.16964722

endloop
endfacet
facet normal 0.0028835095 0.5019627213 -0.8648844361
outer loop
vertex 106.8645554 -35.19730377 75.16964722
vertex 102.0035324 -40.7403183 71.93637848
vertex 102.1804733 -35.54897308 74.94992828

endloop
endfacet
facet normal 0.01208959334 0.4090490341 -0.9124322534
outer loop
vertex 106.8645554 -35.19730377 75.16964722
vertex 102.1804733 -35.54897308 74.94992828
vertex 104.017662 -28.69016266 78.04911804

endloop
endfacet
facet normal -0.2806216776 0.456638813 -0.8442348838
outer loop
vertex 104.017662 -28.69016266 78.04911804
vertex 102.1804733 -35.54897308 74.94992828
vertex 99.47042084 -30.10282135 78.79651642

endloop
endfacet
facet normal -0.08449620008 -0.2397107482 -0.9671603441
outer loop
vertex 104.017662 -28.69016266 78.04911804
vertex 99.47042084 -30.10282135 78.79651642
vertex 98.56060028 -20.94368744 76.60591125

endloop
endfacet
facet normal -0.1622078717 -0.2447426617 -0.9559234977
outer loop
vertex 98.56060028 -20.94368744 76.60591125
vertex 99.47042084 -30.10282135 78.79651642
vertex 94.59099579 -23.69626617 77.98423767

endloop
endfacet
facet normal 0.6034536362 -0.77375561 0.1927328408
outer loop
vertex 98.56060028 -20.94368744 76.60591125
vertex 94.59099579 -23.69626617 77.98423767
vertex 99.38869476 -23.57874298 63.4342804

endloop
endfacet
facet normal -0.9496984482 0 -0.3131658733
outer loop
vertex 99.38869476 -23.57874298 63.4342804
vertex 94.59099579 -23.69626617 77.98423767
vertex 99.38869476 -23.57872772 63.4342804

endloop
endfacet
facet normal 0.9080033898 0 -0.4189627469
outer loop
vertex 87.64904022 -64.39833069 63.48137283
vertex 87.64904022 -64.39832306 63.48137283
vertex 91.10549164 -60.27892303 70.97241974

endloop
endfacet
facet normal 0.7418346405 0.3810220957 -0.5518183708
outer loop
vertex 91.10549164 -60.27892303 70.97241974
vertex 87.64904022 -64.39832306 63.48137283
vertex 88.41753387 -58.37725067 68.67195129

endloop
endfacet
facet normal 0.4363894463 -0.3734425902 -0.8185993433
outer loop
vertex 91.10549164 -60.27892303 70.97241974
vertex 88.41753387 -58.37725067 68.67195129
vertex 96.08473969 -52.6667099 70.15415192

endloop
endfacet
facet normal 0.3394936919 -0.2183473408 -0.9149144888
outer loop
vertex 96.08473969 -52.6667099 70.15415192
vertex 88.41753387 -58.37725067 68.67195129
vertex 92.51995087 -50.89403534 68.4083252

endloop
endfacet
facet normal 0.3704021871 -0.1568075269 -0.9155400395
outer loop
vertex 96.08473969 -52.6667099 70.15415192
vertex 92.51995087 -50.89403534 68.4083252
vertex 99.72789764 -46.29128265 70.53613281

endloop
endfacet
facet normal 0.3629339337 -0.1426673383 -0.9208284616
outer loop
vertex 99.72789764 -46.29128265 70.53613281
vertex 92.51995087 -50.89403534 68.4083252
vertex 95.77132416 -44.9643631 68.77111053

endloop
endfacet
facet normal 0.4221560955 0.05518459156 -0.9048418999
outer loop
vertex 99.72789764 -46.29128265 70.53613281
vertex 95.77132416 -44.9643631 68.77111053
vertex 102.0035324 -40.7403183 71.93637848

endloop
endfacet
facet normal 0.331207484 0.2019916773 -0.9216837883
outer loop
vertex 102.0035324 -40.7403183 71.93637848
vertex 95.77132416 -44.9643631 68.77111053
vertex 97.88155365 -40.22124481 70.56890106

endloop
endfacet
facet normal 0.3309495747 0.4652853906 -0.8209639192
outer loop
vertex 102.0035324 -40.7403183 71.93637848
vertex 97.88155365 -40.22124481 70.56890106
vertex 102.1804733 -35.54897308 74.94992828

endloop
endfacet
facet normal 0.06236658245 0.651537478 -0.7560484409
outer loop
vertex 102.1804733 -35.54897308 74.94992828
vertex 97.88155365 -40.22124481 70.56890106
vertex 97.99849701 -36.02297211 74.1964798

endloop
endfacet
facet normal 0.07547212392 0.6000465155 -0.7963969111
outer loop
vertex 102.1804733 -35.54897308 74.94992828
vertex 97.99849701 -36.02297211 74.1964798
vertex 99.47042084 -30.10282135 78.79651642

endloop
endfacet
facet normal -0.1674070507 0.6305226684 -0.7579024434
outer loop
vertex 99.47042084 -30.10282135 78.79651642
vertex 97.99849701 -36.02297211 74.1964798
vertex 95.39937592 -31.66254425 78.39815521

endloop
endfacet
facet normal 0.1125400066 -0.04016640037 -0.9928349853
outer loop
vertex 99.47042084 -30.10282135 78.79651642
vertex 95.39937592 -31.66254425 78.39815521
vertex 94.59099579 -23.69626617 77.98423767

endloop
endfacet
facet normal 0.03074004315 -0.04875298589 -0.9983377457
outer loop
vertex 94.59099579 -23.69626617 77.98423767
vertex 95.39937592 -31.66254425 78.39815521
vertex 91.30342865 -26.56531525 78.02311707

endloop
endfacet
facet normal 0.6447156668 -0.7359622717 0.2066430598
outer loop
vertex 94.59099579 -23.69626617 77.98423767
vertex 91.30342865 -26.56531525 78.02311707
vertex 99.38869476 -23.57872772 63.4342804

endloop
endfacet
facet normal -0.3511234522 0.936329186 0
outer loop
vertex 99.38869476 -23.57872772 63.4342804
vertex 91.30342865 -26.56531525 78.02311707
vertex 99.38869476 -23.57872772 63.43428421

endloop
endfacet
facet normal -0.2356897742 0.6516278982 -0.72099334
outer loop
vertex 87.64904022 -64.39832306 63.48137283
vertex 87.6490097 -64.39833832 63.48136902
vertex 88.41753387 -58.37725067 68.67195129

endloop
endfacet
facet normal 0.005037667695 0.6525616646 -0.7577188611
outer loop
vertex 88.41753387 -58.37725067 68.67195129
vertex 87.6490097 -64.39833832 63.48136902
vertex 85.57021332 -56.40808868 70.34889984

endloop
endfacet
facet normal -0.3991596699 0.187205255 -0.8975665569
outer loop
vertex 88.41753387 -58.37725067 68.67195129
vertex 85.57021332 -56.40808868 70.34889984
vertex 92.51995087 -50.89403534 68.4083252

endloop
endfacet
facet normal -0.3860585988 0.1673117429 -0.907174468
outer loop
vertex 92.51995087 -50.89403534 68.4083252
vertex 85.57021332 -56.40808868 70.34889984
vertex 88.64711761 -49.22609711 70.36407471

endloop
endfacet
facet normal -0.3498813212 0.2471318394 -0.9036088586
outer loop
vertex 92.51995087 -50.89403534 68.4083252
vertex 88.64711761 -49.22609711 70.36407471
vertex 95.77132416 -44.9643631 68.77111053

endloop
endfacet
facet normal -0.3723644614 0.2933520079 -0.880505085
outer loop
vertex 95.77132416 -44.9643631 68.77111053
vertex 88.64711761 -49.22609711 70.36407471
vertex 91.5406723 -44.06180573 70.86094666

endloop
endfacet
facet normal -0.3142600358 0.4555159211 -0.832914114
outer loop
vertex 95.77132416 -44.9643631 68.77111053
vertex 91.5406723 -44.06180573 70.86094666
vertex 97.88155365 -40.22124481 70.56890106

endloop
endfacet
facet normal -0.3672186434 0.5492053032 -0.7506822944
outer loop
vertex 97.88155365 -40.22124481 70.56890106
vertex 91.5406723 -44.06180573 70.86094666
vertex 93.45943451 -40.27996063 72.68915558

endloop
endfacet
facet normal -0.3462686539 0.6188617945 -0.7050589323
outer loop
vertex 97.88155365 -40.22124481 70.56890106
vertex 93.45943451 -40.27996063 72.68915558
vertex 97.99849701 -36.02297211 74.1964798

endloop
endfacet
facet normal -0.362690717 0.6299026608 -0.6867882013
outer loop
vertex 97.99849701 -36.02297211 74.1964798
vertex 93.45943451 -40.27996063 72.68915558
vertex 93.67757416 -37.06937408 75.51861572

endloop
endfacet
facet normal -0.3627405763 0.5254109502 -0.7696509361
outer loop
vertex 97.99849701 -36.02297211 74.1964798
vertex 93.67757416 -37.06937408 75.51861572
vertex 95.39937592 -31.66254425 78.39815521

endloop
endfacet
facet normal -0.199960053 0.5094217658 -0.8369620442
outer loop
vertex 95.39937592 -31.66254425 78.39815521
vertex 93.67757416 -37.06937408 75.51861572
vertex 91.72267914 -33.69406891 78.04006195

endloop
endfacet
facet normal 0.09516769648 0.003230749164 -0.9954559803
outer loop
vertex 95.39937592 -31.66254425 78.39815521
vertex 91.72267914 -33.69406891 78.04006195
vertex 91.30342865 -26.56531525 78.02311707

endloop
endfacet
facet normal 0.3253624737 0.01688767038 -0.9454385042
outer loop
vertex 91.30342865 -26.56531525 78.02311707
vertex 91.72267914 -33.69406891 78.04006195
vertex 88.80797577 -29.59471893 77.11022186

endloop
endfacet
facet normal 0.7066257 -0.6594114304 0.2566255331
outer loop
vertex 91.30342865 -26.56531525 78.02311707
vertex 88.80797577 -29.59471893 77.11022186
vertex 99.38869476 -23.57872772 63.43428421

endloop
endfacet
facet normal 0.817489624 -0.1582237929 0.5537832975
outer loop
vertex 99.38869476 -23.57872772 63.43428421
vertex 88.80797577 -29.59471893 77.11022186
vertex 99.38869476 -23.57874298 63.4342804

endloop
endfacet
facet normal -nan(ind) -nan(ind) -nan(ind)
outer loop
vertex 87.6490097 -64.39833832 63.48136902
vertex 87.6490097 -64.39833832 63.48136902
vertex 85.57021332 -56.40808868 70.34889984

endloop
endfacet
facet normal 0.7769004107 0.5142991543 -0.3632107377
outer loop
vertex 85.57021332 -56.40808868 70.34889984
vertex 87.6490097 -64.39833832 63.48136902
vertex 81.9753952 -53.84053802 66.29525757

endloop
endfacet
facet normal 0.6300370693 -0.2683804035 -0.7287147641
outer loop
vertex 85.57021332 -56.40808868 70.34889984
vertex 81.9753952 -53.84053802 66.29525757
vertex 88.64711761 -49.22609711 70.36407471

endloop
endfacet
facet normal 0.5347388983 -0.02846723609 -0.8445376754
outer loop
vertex 88.64711761 -49.22609711 70.36407471
vertex 81.9753952 -53.84053802 66.29525757
vertex 85.11064911 -48.246315 68.09185028

endloop
endfacet
facet normal 0.4917258024 -0.1938388944 -0.8489006162
outer loop
vertex 88.64711761 -49.22609711 70.36407471
vertex 85.11064911 -48.246315 68.09185028
vertex 91.5406723 -44.06180573 70.86094666

endloop
endfacet
facet normal 0.2945660055 0.1696999073 -0.9404429197
outer loop
vertex 91.5406723 -44.06180573 70.86094666
vertex 85.11064911 -48.246315 68.09185028
vertex 87.88884735 -44.46230316 69.64485168

endloop
endfacet
facet normal 0.2707948387 0.3041295409 -0.9133320451
outer loop
vertex 91.5406723 -44.06180573 70.86094666
vertex 87.88884735 -44.46230316 69.64485168
vertex 93.45943451 -40.27996063 72.68915558

endloop
endfacet
facet normal 0.4827605486 -0.005560784135 -0.8757347465
outer loop
vertex 93.45943451 -40.27996063 72.68915558
vertex 87.88884735 -44.46230316 69.64485168
vertex 88.96981049 -41.09181976 70.21934509

endloop
endfacet
facet normal 0.2880300283 0.6220644712 -0.7280620933
outer loop
vertex 93.45943451 -40.27996063 72.68915558
vertex 88.96981049 -41.09181976 70.21934509
vertex 93.67757416 -37.06937408 75.51861572

endloop
endfacet
facet normal 0.7328352928 0.03734205663 -0.6793806553
outer loop
vertex 93.67757416 -37.06937408 75.51861572
vertex 88.96981049 -41.09181976 70.21934509
vertex 88.84725189 -38.26103973 70.24273682

endloop
endfacet
facet normal 0.4520600438 0.6869069338 -0.5690348148
outer loop
vertex 93.67757416 -37.06937408 75.51861572
vertex 88.84725189 -38.26103973 70.24273682
vertex 91.72267914 -33.69406891 78.04006195

endloop
endfacet
facet normal 0.8605613708 0.2321893275 -0.4533456564
outer loop
vertex 91.72267914 -33.69406891 78.04006195
vertex 88.84725189 -38.26103973 70.24273682
vertex 88.4210434 -36.50449371 70.33333588

endloop
endfacet
facet normal 0.7614193559 0.4316831827 -0.4836219847
outer loop
vertex 91.72267914 -33.69406891 78.04006195
vertex 88.4210434 -36.50449371 70.33333588
vertex 88.80797577 -29.59471893 77.11022186

endloop
endfacet
facet normal 0.9697759151 -0.1963583231 0.1448385119
outer loop
vertex 88.80797577 -29.59471893 77.11022186
vertex 88.4210434 -36.50449371 70.33333588
vertex 88.74868011 -35.18230438 69.93212128

endloop
endfacet
facet normal 0.7777109742 -0.4991472661 0.3821224272
outer loop
vertex 88.80797577 -29.59471893 77.11022186
vertex 88.74868011 -35.18230438 69.93212128
vertex 99.38869476 -23.57874298 63.4342804

endloop
endfacet
facet normal -nan(ind) -nan(ind) -nan(ind)
outer loop
vertex 99.38869476 -23.57874298 63.4342804
vertex 88.74868011 -35.18230438 69.93212128
vertex 99.38869476 -23.57874298 63.4342804

endloop
endfacet
endsolid
