solid 
facet normal 0.939113 -0.153666 -0.307332
outer loop
vertex 40.09549713 -77.70354462 -40.46531677
vertex 40.09549713 -77.70353699 -40.46532059
vertex 42.88532257 -89.54933167 -26.01756096

endloop
endfacet
facet normal 0.9730579853 0.2305578589 0.001140594366
outer loop
vertex 42.88532257 -89.54933167 -26.01756096
vertex 40.09549713 -77.70353699 -40.46532059
vertex 40.0789566 -77.691185 -28.85116005

endloop
endfacet
facet normal 0.8469118476 0.07462706417 -0.5264703631
outer loop
vertex 42.88532257 -89.54933167 -26.01756096
vertex 40.0789566 -77.691185 -28.85116005
vertex 45.12821198 -89.05679321 -22.33969688

endloop
endfacet
facet normal 0.7078698277 -0.08710523695 -0.700951457
outer loop
vertex 45.12821198 -89.05679321 -22.33969688
vertex 40.0789566 -77.691185 -28.85116005
vertex 44.54189301 -76.58611298 -24.48149872

endloop
endfacet
facet normal 0.7368116975 -0.08064697683 -0.6712709069
outer loop
vertex 45.12821198 -89.05679321 -22.33969688
vertex 44.54189301 -76.58611298 -24.48149872
vertex 49.51845551 -87.33110046 -17.72813034

endloop
endfacet
facet normal 0.7014091611 -0.1170386374 -0.703083992
outer loop
vertex 49.51845551 -87.33110046 -17.72813034
vertex 44.54189301 -76.58611298 -24.48149872
vertex 49.19896698 -75.35852051 -20.03986931

endloop
endfacet
facet normal 0.7584071159 -0.1039993986 -0.643430531
outer loop
vertex 49.51845551 -87.33110046 -17.72813034
vertex 49.19896698 -75.35852051 -20.03986931
vertex 54.94429779 -84.61295319 -11.77206993

endloop
endfacet
facet normal 0.7716690898 -0.08415360749 -0.6304323673
outer loop
vertex 54.94429779 -84.61295319 -11.77206993
vertex 49.19896698 -75.35852051 -20.03986931
vertex 53.67153168 -74.66996002 -14.65722179

endloop
endfacet
facet normal 0.851862371 -0.04243727401 -0.5220435858
outer loop
vertex 54.94429779 -84.61295319 -11.77206993
vertex 53.67153168 -74.66996002 -14.65722179
vertex 59.12422943 -80.38135529 -5.295313835

endloop
endfacet
facet normal 0.8861231804 0.1067392156 -0.4509905279
outer loop
vertex 59.12422943 -80.38135529 -5.295313835
vertex 53.67153168 -74.66996002 -14.65722179
vertex 56.41753387 -72.82696533 -8.82557869

endloop
endfacet
facet normal 0.8666779995 0.08044968545 -0.4923384786
outer loop
vertex 59.12422943 -80.38135529 -5.295313835
vertex 56.41753387 -72.82696533 -8.82557869
vertex 61.17853546 -74.31676483 -0.6880850196

endloop
endfacet
facet normal 0.8536922336 0.2583672106 -0.4521680474
outer loop
vertex 61.17853546 -74.31676483 -0.6880850196
vertex 56.41753387 -72.82696533 -8.82557869
vertex 57.81400299 -69.08666229 -4.051852226

endloop
endfacet
facet normal 0.7723402977 0.09268178791 -0.6284111738
outer loop
vertex 61.17853546 -74.31676483 -0.6880850196
vertex 57.81400299 -69.08666229 -4.051852226
vertex 61.44152069 -67.09143829 0.7007669806

endloop
endfacet
facet normal 0.7316945195 0.212464571 -0.6476743221
outer loop
vertex 61.44152069 -67.09143829 0.7007669806
vertex 57.81400299 -69.08666229 -4.051852226
vertex 58.5800705 -64.09535217 -1.549044967

endloop
endfacet
facet normal 0.649761498 0.05105463788 -0.7584215999
outer loop
vertex 61.44150543 -67.09144592 0.7007669806
vertex 58.58003998 -64.0953598 -1.549044967
vertex 60.77893829 -59.88816071 0.6180300117

endloop
endfacet
facet normal 0.5424162745 0.1429269314 -0.8278626204
outer loop
vertex 60.77893829 -59.88816071 0.6180300117
vertex 58.58003998 -64.0953598 -1.549044967
vertex 57.85411835 -59.03672028 -1.151317

endloop
endfacet
facet normal 0.510481596 -0.03208128363 -0.8592899442
outer loop
vertex 60.77893829 -59.88816071 0.6180300117
vertex 57.85411835 -59.03672028 -1.151317
vertex 60.04436493 -48.90642548 -0.2283599973

endloop
endfacet
facet normal 0.4031676054 -0.003792742733 -0.9151183367
outer loop
vertex 60.04436493 -48.90642548 -0.2283599973
vertex 57.85411835 -59.03672028 -1.151317
vertex 54.87572479 -52.18267059 -2.49189496

endloop
endfacet
facet normal 0.08856283128 -0.6569785476 0.7486894131
outer loop
vertex 60.04438019 -48.90641022 -0.2283589989
vertex 54.87575531 -52.18267059 -2.491894007
vertex 61.79779816 -56.53594208 -7.130722046

endloop
endfacet
facet normal -0.04213561863 0.674169898 -0.7373733521
outer loop
vertex 61.79779816 -56.53594208 -7.130722046
vertex 54.87575531 -52.18267059 -2.491894007
vertex 61.79781342 -56.53594208 -7.130723

endloop
endfacet
facet normal -0.4472135901 -0.8944271803 0.0003143409849
outer loop
vertex 40.09549713 -77.70353699 -40.46532059
vertex 40.09551239 -77.70354462 -40.46532059
vertex 40.0789566 -77.691185 -28.85116005

endloop
endfacet
facet normal 0.9512606263 0.3083863556 0.001027825405
outer loop
vertex 40.0789566 -77.691185 -28.85116005
vertex 40.09551239 -77.70354462 -40.46532059
vertex 38.88848114 -74.01847076 -29.00931549

endloop
endfacet
facet normal 0.6640107632 0.1840245277 -0.7247239351
outer loop
vertex 40.0789566 -77.691185 -28.85116005
vertex 38.88848114 -74.01847076 -29.00931549
vertex 44.54189301 -76.58611298 -24.48149872

endloop
endfacet
facet normal 0.6767353415 0.3257833719 -0.6602230072
outer loop
vertex 44.54189301 -76.58611298 -24.48149872
vertex 38.88848114 -74.01847076 -29.00931549
vertex 43.35503387 -73.56279755 -24.20620346

endloop
endfacet
facet normal 0.6132183075 0.3070031404 -0.7278134227
outer loop
vertex 44.54189301 -76.58611298 -24.48149872
vertex 43.35503387 -73.56279755 -24.20620346
vertex 49.19896698 -75.35852051 -20.03986931

endloop
endfacet
facet normal 0.6132235527 0.3084754348 -0.7271862626
outer loop
vertex 49.19896698 -75.35852051 -20.03986931
vertex 43.35503387 -73.56279755 -24.20620346
vertex 48.00479889 -72.82918549 -19.97393608

endloop
endfacet
facet normal 0.6992436051 0.3464328051 -0.6253339648
outer loop
vertex 49.19896698 -75.35852051 -20.03986931
vertex 48.00479889 -72.82918549 -19.97393608
vertex 53.67153168 -74.66996002 -14.65722179

endloop
endfacet
facet normal 0.6920925379 0.05097569153 -0.7200064659
outer loop
vertex 53.67153168 -74.66996002 -14.65722179
vertex 48.00479889 -72.82918549 -19.97393608
vertex 52.5845108 -71.58177185 -15.48345947

endloop
endfacet
facet normal 0.8666169047 0.1805943698 -0.4651461244
outer loop
vertex 53.67153168 -74.66996002 -14.65722179
vertex 52.5845108 -71.58177185 -15.48345947
vertex 56.41753387 -72.82696533 -8.82557869

endloop
endfacet
facet normal 0.8288124204 -0.2136744112 -0.5171200037
outer loop
vertex 56.41753387 -72.82696533 -8.82557869
vertex 52.5845108 -71.58177185 -15.48345947
vertex 55.84149933 -69.52822113 -11.11186028

endloop
endfacet
facet normal 0.9632516503 -0.01755710877 -0.2680259049
outer loop
vertex 56.41753387 -72.82696533 -8.82557869
vertex 55.84149933 -69.52822113 -11.11186028
vertex 57.81400299 -69.08666229 -4.051852226

endloop
endfacet
facet normal 0.9315347075 -0.2702183425 -0.2433620989
outer loop
vertex 57.81400299 -69.08666229 -4.051852226
vertex 55.84149933 -69.52822113 -11.11186028
vertex 57.64965057 -66.49822998 -7.555035114

endloop
endfacet
facet normal 0.9888515472 -0.09376631677 -0.1156742051
outer loop
vertex 57.81400299 -69.08666229 -4.051852226
vertex 57.64965057 -66.49822998 -7.555035114
vertex 58.5800705 -64.09535217 -1.549044967

endloop
endfacet
facet normal 0.9891896248 -0.08582299203 -0.1189045385
outer loop
vertex 58.5800705 -64.09535217 -1.549044967
vertex 57.64965057 -66.49822998 -7.555035114
vertex 58.26702118 -62.70661163 -5.155727863

endloop
endfacet
facet normal 0.9890687466 0.1443131566 -0.03027645126
outer loop
vertex 58.58003998 -64.0953598 -1.549044967
vertex 58.26700592 -62.70661163 -5.155728817
vertex 57.85411835 -59.03672028 -1.151317

endloop
endfacet
facet normal 0.9459295869 0.2817687392 -0.1606972814
outer loop
vertex 57.85411835 -59.03672028 -1.151317
vertex 58.26700592 -62.70661163 -5.155728817
vertex 57.31827545 -58.68308258 -3.685434103

endloop
endfacet
facet normal 0.9176891446 0.3709487319 -0.1422806084
outer loop
vertex 57.85411835 -59.03672028 -1.151317
vertex 57.31827545 -58.68308258 -3.685434103
vertex 54.87572479 -52.18267059 -2.49189496

endloop
endfacet
facet normal 0.8093664646 0.3854784369 -0.4430939853
outer loop
vertex 54.87572479 -52.18267059 -2.49189496
vertex 57.31827545 -58.68308258 -3.685434103
vertex 54.84235382 -53.93929291 -4.081059933

endloop
endfacet
facet normal 0.07388797402 -0.6698175073 0.7388403416
outer loop
vertex 54.87575531 -52.18267059 -2.491894007
vertex 54.84236908 -53.93927765 -4.081058979
vertex 61.79781342 -56.53594208 -7.130723

endloop
endfacet
facet normal -0.397377491 0 -0.9176552296
outer loop
vertex 61.79781342 -56.53594208 -7.130723
vertex 54.84236908 -53.93927765 -4.081058979
vertex 61.79781342 -56.53592682 -7.130723

endloop
endfacet
facet normal -0.950320363 -0.3112736344 -0
outer loop
vertex 40.09551239 -77.70354462 -40.46532059
vertex 40.09551239 -77.70354462 -40.46531677
vertex 38.88848114 -74.01847076 -29.00931549

endloop
endfacet
facet normal 0.9829081297 0.1781948954 0.04624119774
outer loop
vertex 38.88848114 -74.01847076 -29.00931549
vertex 40.09551239 -77.70354462 -40.46531677
vertex 38.5560379 -71.87460327 -30.20446587

endloop
endfacet
facet normal 0.7209300399 -0.2487878352 -0.6468110085
outer loop
vertex 38.88848114 -74.01847076 -29.00931549
vertex 38.5560379 -71.87460327 -30.20446587
vertex 43.35503387 -73.56279755 -24.20620346

endloop
endfacet
facet normal 0.6666871309 -0.3809716403 -0.6406159401
outer loop
vertex 43.35503387 -73.56279755 -24.20620346
vertex 38.5560379 -71.87460327 -30.20446587
vertex 43.56160736 -71.7438736 -25.07292938

endloop
endfacet
facet normal 0.6537770033 -0.3847304583 -0.6515812874
outer loop
vertex 43.35503387 -73.56279755 -24.20620346
vertex 43.56160736 -71.7438736 -25.07292938
vertex 48.00479889 -72.82918549 -19.97393608

endloop
endfacet
facet normal 0.5917499065 -0.5100873709 -0.6242138147
outer loop
vertex 48.00479889 -72.82918549 -19.97393608
vertex 43.56160736 -71.7438736 -25.07292938
vertex 48.48992157 -71.24273682 -20.81043816

endloop
endfacet
facet normal 0.6732250452 -0.495343864 -0.5490014553
outer loop
vertex 48.00479889 -72.82918549 -19.97393608
vertex 48.48992157 -71.24273682 -20.81043816
vertex 52.5845108 -71.58177185 -15.48345947

endloop
endfacet
facet normal 0.7234845161 -0.3744838834 -0.5799413323
outer loop
vertex 52.5845108 -71.58177185 -15.48345947
vertex 48.48992157 -71.24273682 -20.81043816
vertex 52.79814911 -69.50861359 -16.55563736

endloop
endfacet
facet normal 0.8252076507 -0.3242296875 -0.4625011683
outer loop
vertex 52.5845108 -71.58177185 -15.48345947
vertex 52.79814911 -69.50861359 -16.55563736
vertex 55.84149933 -69.52822113 -11.11186028

endloop
endfacet
facet normal 0.7483885884 -0.5131437182 -0.4202358425
outer loop
vertex 55.84149933 -69.52822113 -11.11186028
vertex 52.79814911 -69.50861359 -16.55563736
vertex 56.14139557 -67.9028244 -12.56252956

endloop
endfacet
facet normal 0.9240060449 -0.3350093663 -0.1843405664
outer loop
vertex 55.84149933 -69.52822113 -11.11186028
vertex 56.14139557 -67.9028244 -12.56252956
vertex 57.64965057 -66.49822998 -7.555035114

endloop
endfacet
facet normal 0.7144275904 -0.6994515657 -0.01899016276
outer loop
vertex 57.64965057 -66.49822998 -7.555035114
vertex 56.14139557 -67.9028244 -12.56252956
vertex 58.16927338 -65.92066193 -9.279509544

endloop
endfacet
facet normal 0.9421628118 -0.2748113871 0.1918538064
outer loop
vertex 57.64965057 -66.49822998 -7.555035114
vertex 58.16927338 -65.92066193 -9.279509544
vertex 58.26702118 -62.70661163 -5.155727863

endloop
endfacet
facet normal 0.927670598 -0.3048567474 0.2156145275
outer loop
vertex 58.26702118 -62.70661163 -5.155727863
vertex 58.16927338 -65.92066193 -9.279509544
vertex 58.67432404 -62.72556305 -6.934923172

endloop
endfacet
facet normal 0.9644891024 0.1473119706 0.2192256004
outer loop
vertex 58.26700592 -62.70661163 -5.155728817
vertex 58.67430878 -62.72557831 -6.934924126
vertex 57.31827545 -58.68308258 -3.685434103

endloop
endfacet
facet normal 0.9668337703 0.1741169691 0.1868575215
outer loop
vertex 57.31827545 -58.68308258 -3.685434103
vertex 58.67430878 -62.72557831 -6.934924126
vertex 57.72936249 -59.05875397 -5.462413788

endloop
endfacet
facet normal 0.8780727386 0.4669988751 0.104405351
outer loop
vertex 57.31827545 -58.68308258 -3.685434103
vertex 57.72936249 -59.05875397 -5.462413788
vertex 54.84235382 -53.93929291 -4.081059933

endloop
endfacet
facet normal 0.8773647547 0.472977072 0.08076994866
outer loop
vertex 54.84235382 -53.93929291 -4.081059933
vertex 57.72936249 -59.05875397 -5.462413788
vertex 55.80608368 -55.48535919 -5.496048927

endloop
endfacet
facet normal 0.09629434347 -0.6386774778 0.763425529
outer loop
vertex 54.84236908 -53.93927765 -4.081058979
vertex 55.80609894 -55.48534393 -5.496048927
vertex 61.79781342 -56.53592682 -7.130723

endloop
endfacet
facet normal 0.2725741267 0.06001631916 0.9602611065
outer loop
vertex 61.79781342 -56.53592682 -7.130723
vertex 55.80609894 -55.48534393 -5.496048927
vertex 61.79781342 -56.53594208 -7.130722046

endloop
endfacet
facet normal 0.990955174 0.03254659846 0.1301863939
outer loop
vertex 40.09549713 -77.70355225 -40.46531677
vertex 40.09549713 -77.70353699 -40.46532059
vertex 38.5560379 -71.87461853 -30.20446587

endloop
endfacet
facet normal 0.9887833595 -0.001755470759 0.1493466645
outer loop
vertex 38.5560379 -71.87461853 -30.20446587
vertex 40.09549713 -77.70353699 -40.46532059
vertex 38.83956146 -70.5234375 -32.06571579

endloop
endfacet
facet normal 0.4920145869 -0.7384362817 -0.461122036
outer loop
vertex 38.5560379 -71.87461853 -30.20446587
vertex 38.83956146 -70.5234375 -32.06571579
vertex 43.5615921 -71.74388123 -25.07292938

endloop
endfacet
facet normal 0.5051694512 -0.7252930999 -0.4677113295
outer loop
vertex 43.5615921 -71.74388123 -25.07292938
vertex 38.83956146 -70.5234375 -32.06571579
vertex 44.4754715 -70.11395264 -26.61343575

endloop
endfacet
facet normal 0.4892737269 -0.7280899286 -0.4801002145
outer loop
vertex 43.5615921 -71.74388123 -25.07292938
vertex 44.4754715 -70.11395264 -26.61343575
vertex 48.48992157 -71.24273682 -20.81043625

endloop
endfacet
facet normal 0.4617108405 -0.7546411753 -0.4661972225
outer loop
vertex 48.48992157 -71.24273682 -20.81043625
vertex 44.4754715 -70.11395264 -26.61343575
vertex 49.73879242 -69.68744659 -22.09115791

endloop
endfacet
facet normal 0.6013768911 -0.7369794846 -0.3085564077
outer loop
vertex 48.48992157 -71.24273682 -20.81043625
vertex 49.73879242 -69.68744659 -22.09115791
vertex 52.79813385 -69.50861359 -16.55563545

endloop
endfacet
facet normal 0.6050011516 -0.7331089377 -0.3106845021
outer loop
vertex 52.79813385 -69.50861359 -16.55563545
vertex 49.73879242 -69.68744659 -22.09115791
vertex 53.84438324 -68.16222382 -17.69527435

endloop
endfacet
facet normal 0.6479377151 -0.7182126641 -0.2536678314
outer loop
vertex 52.79813385 -69.50861359 -16.55563545
vertex 53.84438324 -68.16222382 -17.69527435
vertex 56.14138031 -67.90283203 -12.56252861

endloop
endfacet
facet normal 0.3871612847 -0.9132080078 -0.1271112561
outer loop
vertex 56.14138031 -67.90283203 -12.56252861
vertex 53.84438324 -68.16222382 -17.69527435
vertex 56.89217377 -67.46248627 -13.43931293

endloop
endfacet
facet normal 0.5964305401 -0.794880569 0.1115141436
outer loop
vertex 56.14138031 -67.90283203 -12.56252861
vertex 56.89217377 -67.46248627 -13.43931293
vertex 58.16924286 -65.92066956 -9.279507637

endloop
endfacet
facet normal -0.1421394348 -0.913130343 0.3820855021
outer loop
vertex 58.16924286 -65.92066956 -9.279507637
vertex 56.89217377 -67.46248627 -13.43931293
vertex 58.72595978 -66.31856537 -10.02331829

endloop
endfacet
facet normal 0.4858541787 -0.5657129884 0.6662691236
outer loop
vertex 58.16924286 -65.92066956 -9.279507637
vertex 58.72595978 -66.31856537 -10.02331829
vertex 58.67430878 -62.72556305 -6.934922218

endloop
endfacet
facet normal 0.7495564818 -0.4252541065 0.5072711706
outer loop
vertex 58.67430878 -62.72556305 -6.934922218
vertex 58.72595978 -66.31856537 -10.02331829
vertex 59.10999298 -63.16863251 -7.950132847

endloop
endfacet
facet normal 0.9292153716 0.09618057311 0.3568025529
outer loop
vertex 58.67429352 -62.72557831 -6.934923172
vertex 59.10997772 -63.16864777 -7.950133801
vertex 57.72933197 -59.05875397 -5.462412834

endloop
endfacet
facet normal 0.9586637616 0.1988552958 0.2035199851
outer loop
vertex 57.72933197 -59.05875397 -5.462412834
vertex 59.10997772 -63.16864777 -7.950133801
vertex 58.12931061 -59.54859161 -6.867867947

endloop
endfacet
facet normal 0.8770554662 0.4728447795 0.08480259776
outer loop
vertex 57.72933197 -59.05875397 -5.462412834
vertex 58.12931061 -59.54859161 -6.867867947
vertex 55.80606842 -55.48535919 -5.496048927

endloop
endfacet
facet normal 0.878916502 0.4601697028 0.1254972517
outer loop
vertex 55.80606842 -55.48535919 -5.496048927
vertex 58.12931061 -59.54859161 -6.867867947
vertex 56.61569977 -56.70121002 -6.708033085

endloop
endfacet
facet normal 0.08129887283 -0.6759671569 0.7324335575
outer loop
vertex 55.80608368 -55.48535919 -5.496048927
vertex 56.61573029 -56.70121002 -6.708034039
vertex 61.79779816 -56.53595734 -7.130722046

endloop
endfacet
facet normal -0.07915429026 -0.06302332133 -0.9948680997
outer loop
vertex 61.79779816 -56.53595734 -7.130722046
vertex 56.61573029 -56.70121002 -6.708034039
vertex 61.79779816 -56.53594208 -7.130723

endloop
endfacet
facet normal -0.4818348289 -0.7003555298 0.5266281962
outer loop
vertex 40.09549713 -77.70353699 -40.46532059
vertex 40.09551239 -77.70354462 -40.46531677
vertex 38.83956146 -70.5234375 -32.06571579

endloop
endfacet
facet normal 0.9445582628 -0.1661084145 0.2832271457
outer loop
vertex 38.83956146 -70.5234375 -32.06571579
vertex 40.09551239 -77.70354462 -40.46531677
vertex 39.54959869 -69.92681122 -34.08376694

endloop
endfacet
facet normal 0.2537308633 -0.9482172132 -0.1910620332
outer loop
vertex 38.83956146 -70.5234375 -32.06571579
vertex 39.54959869 -69.92681122 -34.08376694
vertex 44.4754715 -70.11395264 -26.61343575

endloop
endfacet
facet normal 0.4096239805 -0.8643419743 -0.2917554379
outer loop
vertex 44.4754715 -70.11395264 -26.61343575
vertex 39.54959869 -69.92681122 -34.08376694
vertex 45.61208344 -69.02844238 -28.23352051

endloop
endfacet
facet normal 0.3574125469 -0.8722915053 -0.3337121606
outer loop
vertex 44.4754715 -70.11395264 -26.61343575
vertex 45.61208344 -69.02844238 -28.23352051
vertex 49.73879242 -69.68744659 -22.09115791

endloop
endfacet
facet normal 0.4156964123 -0.8315097094 -0.368494451
outer loop
vertex 49.73879242 -69.68744659 -22.09115791
vertex 45.61208344 -69.02844238 -28.23352051
vertex 50.94484711 -68.56822968 -23.25613403

endloop
endfacet
facet normal 0.5393996239 -0.8122727871 -0.2219479084
outer loop
vertex 49.73879242 -69.68744659 -22.09115791
vertex 50.94484711 -68.56822968 -23.25613403
vertex 53.84438324 -68.16222382 -17.69527435

endloop
endfacet
facet normal 0.388312161 -0.9114480615 -0.1359271705
outer loop
vertex 53.84438324 -68.16222382 -17.69527435
vertex 50.94484711 -68.56822968 -23.25613403
vertex 55.04026031 -67.49946594 -18.72299957

endloop
endfacet
facet normal 0.3920324147 -0.910571754 -0.1310330331
outer loop
vertex 53.84438324 -68.16222382 -17.69527435
vertex 55.04026031 -67.49946594 -18.72299957
vertex 56.89217377 -67.46248627 -13.43931293

endloop
endfacet
facet normal 0.1207802668 -0.9920482039 -0.03538987041
outer loop
vertex 56.89217377 -67.46248627 -13.43931293
vertex 55.04026031 -67.49946594 -18.72299957
vertex 57.78162384 -67.32601929 -14.22919464

endloop
endfacet
facet normal 0.2881482244 -0.9438866377 0.1613964587
outer loop
vertex 56.89217377 -67.46248627 -13.43931293
vertex 57.78162384 -67.32601929 -14.22919464
vertex 58.72595978 -66.31856537 -10.02331829

endloop
endfacet
facet normal 0.08849266917 -0.9729934335 0.2131967843
outer loop
vertex 58.72595978 -66.31856537 -10.02331829
vertex 57.78162384 -67.32601929 -14.22919464
vertex 59.26238251 -66.41518402 -10.68692493

endloop
endfacet
facet normal 0.6512421966 -0.4710117877 0.5950055122
outer loop
vertex 58.72595978 -66.31856537 -10.02331829
vertex 59.26238251 -66.41518402 -10.68692493
vertex 59.10999298 -63.16863251 -7.950132847

endloop
endfacet
facet normal 0.907138586 -0.2455340177 0.3417786956
outer loop
vertex 59.10999298 -63.16863251 -7.950132847
vertex 59.26238251 -66.41518402 -10.68692493
vertex 59.47138214 -63.24951935 -8.967430115

endloop
endfacet
facet normal 0.9344118834 0.157637611 0.3194132745
outer loop
vertex 59.10997772 -63.16864777 -7.950133801
vertex 59.47136688 -63.24951935 -8.967430115
vertex 58.12931061 -59.54859161 -6.867867947

endloop
endfacet
facet normal 0.9431339502 0.3319388926 0.01774523593
outer loop
vertex 58.12931061 -59.54859161 -6.867867947
vertex 59.47136688 -63.24951935 -8.967430115
vertex 58.29265594 -59.92690277 -8.472829819

endloop
endfacet
facet normal 0.8823097944 0.4701989293 -0.02103496343
outer loop
vertex 58.12931061 -59.54859161 -6.867867947
vertex 58.29265594 -59.92690277 -8.472829819
vertex 56.61569977 -56.70121002 -6.708033085

endloop
endfacet
facet normal 0.9070541263 0.4004553854 0.1299549639
outer loop
vertex 56.61569977 -56.70121002 -6.708033085
vertex 58.29265594 -59.92690277 -8.472829819
vertex 57.29759979 -57.80020905 -8.080971718

endloop
endfacet
facet normal 0.07691702247 -0.7593947649 0.6460675001
outer loop
vertex 56.61573029 -56.70121002 -6.708034039
vertex 57.29761505 -57.80019379 -8.080972672
vertex 61.79779816 -56.53594208 -7.130723

endloop
endfacet
facet normal 0 -0.5905100107 0.8070303202
outer loop
vertex 61.79779816 -56.53594208 -7.130723
vertex 57.29761505 -57.80019379 -8.080972672
vertex 61.79781342 -56.53594208 -7.130723

endloop
endfacet
facet normal 0 0.634354651 -0.7730421424
outer loop
vertex 40.09551239 -77.70354462 -40.46531677
vertex 40.09548187 -77.70354462 -40.46531677
vertex 39.54959869 -69.92681122 -34.08376694

endloop
endfacet
facet normal 0.8549413085 -0.2918739319 0.4288180768
outer loop
vertex 39.54959869 -69.92681122 -34.08376694
vertex 40.09548187 -77.70354462 -40.46531677
vertex 40.61884308 -69.78487396 -36.118927

endloop
endfacet
facet normal 0.1415488571 -0.9899169803 0.005328443833
outer loop
vertex 39.54959869 -69.92681122 -34.08376694
vertex 40.61884308 -69.78487396 -36.118927
vertex 45.61208344 -69.02844238 -28.23352051

endloop
endfacet
facet normal 0.1906179786 -0.9813046455 -0.02656952105
outer loop
vertex 45.61208344 -69.02844238 -28.23352051
vertex 40.61884308 -69.78487396 -36.118927
vertex 47.02291107 -68.71175385 -29.80821228

endloop
endfacet
facet normal 0.1472619176 -0.9868574142 -0.06653063744
outer loop
vertex 45.61208344 -69.02844238 -28.23352051
vertex 47.02291107 -68.71175385 -29.80821228
vertex 50.94484711 -68.56822968 -23.25613403

endloop
endfacet
facet normal 0.05197347328 -0.9986057281 -0.009235627949
outer loop
vertex 50.94484711 -68.56822968 -23.25613403
vertex 47.02291107 -68.71175385 -29.80821228
vertex 52.06371307 -68.50106812 -24.22158813

endloop
endfacet
facet normal 0.1457146555 -0.9842188358 0.1004019827
outer loop
vertex 50.94484711 -68.56822968 -23.25613403
vertex 52.06371307 -68.50106812 -24.22158813
vertex 55.04026031 -67.49946594 -18.72299957

endloop
endfacet
facet normal -0.1858920008 -0.944002986 0.2725848556
outer loop
vertex 55.04026031 -67.49946594 -18.72299957
vertex 52.06371307 -68.50106812 -24.22158813
vertex 55.88510895 -67.84467316 -19.34235191

endloop
endfacet
facet normal -0.2495812476 -0.9497485757 0.1889097542
outer loop
vertex 55.04026031 -67.49946594 -18.72299957
vertex 55.88510895 -67.84467316 -19.34235191
vertex 57.78162384 -67.32601929 -14.22919464

endloop
endfacet
facet normal -0.2073435634 -0.9625710845 0.1745440811
outer loop
vertex 57.78162384 -67.32601929 -14.22919464
vertex 55.88510895 -67.84467316 -19.34235191
vertex 58.55648041 -67.59619141 -14.79866886

endloop
endfacet
facet normal -0.1159576327 -0.9491957426 0.292542994
outer loop
vertex 57.78162384 -67.32601929 -14.22919464
vertex 58.55648041 -67.59619141 -14.79866886
vertex 59.26238251 -66.41518402 -10.68692493

endloop
endfacet
facet normal 0.2211026102 -0.9467667937 0.2339790314
outer loop
vertex 59.26238251 -66.41518402 -10.68692493
vertex 58.55648041 -67.59619141 -14.79866886
vertex 60.05008698 -66.40182495 -11.37722397

endloop
endfacet
facet normal 0.6049002409 -0.410546571 0.682310164
outer loop
vertex 59.26238251 -66.41518402 -10.68692493
vertex 60.05008698 -66.40182495 -11.37722397
vertex 59.47138214 -63.24951935 -8.967430115

endloop
endfacet
facet normal 0.8123972416 -0.2526137531 0.5255445242
outer loop
vertex 59.47138214 -63.24951935 -8.967430115
vertex 60.05008698 -66.40182495 -11.37722397
vertex 60.10697174 -63.30721283 -9.977668762

endloop
endfacet
facet normal 0.8314654827 0.2189567685 0.5106104612
outer loop
vertex 59.47136688 -63.24951935 -8.967430115
vertex 60.10695648 -63.30721283 -9.977668762
vertex 58.29265594 -59.92690277 -8.472829819

endloop
endfacet
facet normal 0.8776091337 0.4790396094 -0.01797918417
outer loop
vertex 58.29265594 -59.92690277 -8.472829819
vertex 60.10695648 -63.30721283 -9.977668762
vertex 58.55431366 -60.47013092 -10.1744957

endloop
endfacet
facet normal 0.9060497284 0.4231500328 0.004235787783
outer loop
vertex 58.29265594 -59.92690277 -8.472829819
vertex 58.55431366 -60.47013092 -10.1744957
vertex 57.29759979 -57.80020905 -8.080971718

endloop
endfacet
facet normal 0.9041170478 0.4272791743 -0.002190250438
outer loop
vertex 57.29759979 -57.80020905 -8.080971718
vertex 58.55431366 -60.47013092 -10.1744957
vertex 57.94120026 -59.1700058 -9.631188393

endloop
endfacet
facet normal 0.06372098625 -0.7345708609 0.6755332947
outer loop
vertex 57.29761505 -57.80019379 -8.080972672
vertex 57.94121552 -59.16999054 -9.6311903
vertex 61.79781342 -56.53594208 -7.130723

endloop
endfacet
facet normal -0.02524576336 0.7068814039 -0.7068814039
outer loop
vertex 61.79781342 -56.53594208 -7.130723
vertex 57.94121552 -59.16999054 -9.6311903
vertex 61.7977829 -56.53594208 -7.130722046

endloop
endfacet
facet normal 0 -0.4811638892 0.8766306639
outer loop
vertex 40.09548187 -77.70354462 -40.46531677
vertex 40.09549713 -77.70354462 -40.46531677
vertex 40.61884308 -69.78487396 -36.118927

endloop
endfacet
facet normal 0.7589148283 -0.3511585593 0.5483939052
outer loop
vertex 40.61884308 -69.78487396 -36.118927
vertex 40.09549713 -77.70354462 -40.46531677
vertex 41.99544525 -70.14247131 -38.25297165

endloop
endfacet
facet normal 0.001472990611 -0.9860929847 0.1661877036
outer loop
vertex 40.61884308 -69.78487396 -36.118927
vertex 41.99544525 -70.14247131 -38.25297165
vertex 47.02291107 -68.71175385 -29.80821228

endloop
endfacet
facet normal -0.1140624583 -0.9661049247 0.2315836251
outer loop
vertex 47.02291107 -68.71175385 -29.80821228
vertex 41.99544525 -70.14247131 -38.25297165
vertex 48.47476959 -69.23107147 -31.2595787

endloop
endfacet
facet normal -0.1630850732 -0.969357729 0.1837083399
outer loop
vertex 47.02291107 -68.71175385 -29.80821228
vertex 48.47476959 -69.23107147 -31.2595787
vertex 52.06371307 -68.50106812 -24.22158813

endloop
endfacet
facet normal -0.540821135 -0.7626065612 0.3548856378
outer loop
vertex 52.06371307 -68.50106812 -24.22158813
vertex 48.47476959 -69.23107147 -31.2595787
vertex 53.01451874 -69.52136993 -24.96513176

endloop
endfacet
facet normal -0.4569056332 -0.7611892819 0.4602478147
outer loop
vertex 52.06371307 -68.50106812 -24.22158813
vertex 53.01451874 -69.52136993 -24.96513176
vertex 55.88510895 -67.84467316 -19.34235191

endloop
endfacet
facet normal -0.5776279569 -0.6531318426 0.4896576703
outer loop
vertex 55.88510895 -67.84467316 -19.34235191
vertex 53.01451874 -69.52136993 -24.96513176
vertex 56.62578583 -68.83081818 -19.78398132

endloop
endfacet
facet normal -0.6328300834 -0.6580453515 0.4080470502
outer loop
vertex 55.88510895 -67.84467316 -19.34235191
vertex 56.62578583 -68.83081818 -19.78398132
vertex 58.55648041 -67.59619141 -14.79866886

endloop
endfacet
facet normal -0.2341356874 -0.9186615944 0.3181844056
outer loop
vertex 58.55648041 -67.59619141 -14.79866886
vertex 56.62578583 -68.83081818 -19.78398132
vertex 59.49797821 -68.05233765 -15.42285347

endloop
endfacet
facet normal -0.1771383286 -0.9025756717 0.3924018145
outer loop
vertex 58.55648041 -67.59619141 -14.79866886
vertex 59.49797821 -68.05233765 -15.42285347
vertex 60.05008698 -66.40182495 -11.37722397

endloop
endfacet
facet normal 0.1664174348 -0.9207332134 0.3529243767
outer loop
vertex 60.05008698 -66.40182495 -11.37722397
vertex 59.49797821 -68.05233765 -15.42285347
vertex 61.25605011 -66.48583221 -12.16504574

endloop
endfacet
facet normal 0.4908303618 -0.366495043 0.7904219627
outer loop
vertex 60.05008698 -66.40182495 -11.37722397
vertex 61.25605011 -66.48583221 -12.16504574
vertex 60.10697174 -63.30721283 -9.977668762

endloop
endfacet
facet normal 0.176324442 -0.5139605403 0.8394965529
outer loop
vertex 60.10697174 -63.30721283 -9.977668762
vertex 61.25605011 -66.48583221 -12.16504574
vertex 61.55632782 -63.52542877 -10.41568279

endloop
endfacet
facet normal 0.313464433 0.23537305 0.9199671745
outer loop
vertex 60.10695648 -63.30721283 -9.977668762
vertex 61.55631256 -63.52542877 -10.41568375
vertex 58.55431366 -60.47013092 -10.1744957

endloop
endfacet
facet normal -0.1317332834 -0.2059801817 0.9696486592
outer loop
vertex 58.55431366 -60.47013092 -10.1744957
vertex 61.55631256 -63.52542877 -10.41568375
vertex 60.73844147 -60.8645401 -9.961550713

endloop
endfacet
facet normal -0.166274026 -0.4459378123 0.8794841766
outer loop
vertex 58.55431366 -60.47013092 -10.1744957
vertex 60.73844147 -60.8645401 -9.961550713
vertex 57.94120026 -59.1700058 -9.631188393

endloop
endfacet
facet normal -0.2853839695 -0.6144871712 0.7355008721
outer loop
vertex 57.94120026 -59.1700058 -9.631188393
vertex 60.73844147 -60.8645401 -9.961550713
vertex 60.55692291 -60.30814362 -9.567131042

endloop
endfacet
facet normal -0.2272873372 -0.4745019674 0.8504048586
outer loop
vertex 57.94121552 -59.16999054 -9.6311903
vertex 60.55695343 -60.30812836 -9.567131996
vertex 61.7977829 -56.53594208 -7.130722046

endloop
endfacet
facet normal 0 -0.5418103933 0.8405007124
outer loop
vertex 61.7977829 -56.53594208 -7.130722046
vertex 60.55695343 -60.30812836 -9.567131996
vertex 61.79779816 -56.53594208 -7.130722046

endloop
endfacet
facet normal -nan(ind) -nan(ind) -nan(ind)
outer loop
vertex 40.09549713 -77.70354462 -40.46531677
vertex 40.09549713 -77.70354462 -40.46531677
vertex 41.99544525 -70.14247131 -38.25297165

endloop
endfacet
facet normal 0.723092556 -0.3550648391 0.5925083756
outer loop
vertex 41.99544525 -70.14247131 -38.25297165
vertex 40.09549713 -77.70354462 -40.46531677
vertex 43.67696381 -71.14936829 -40.90847397

endloop
endfacet
facet normal -0.1519295126 -0.9522427917 0.2648606002
outer loop
vertex 41.99544525 -70.14247131 -38.25297165
vertex 43.67696381 -71.14936829 -40.90847397
vertex 48.47476959 -69.23107147 -31.2595787

endloop
endfacet
facet normal -0.3555130661 -0.867010951 0.3491453528
outer loop
vertex 48.47476959 -69.23107147 -31.2595787
vertex 43.67696381 -71.14936829 -40.90847397
vertex 50.01279449 -70.43125153 -32.67383575

endloop
endfacet
facet normal -0.4271441698 -0.8634765744 0.2682462037
outer loop
vertex 48.47476959 -69.23107147 -31.2595787
vertex 50.01279449 -70.43125153 -32.67383575
vertex 53.01451874 -69.52136993 -24.96513176

endloop
endfacet
facet normal -0.5255846381 -0.7965859175 0.2986830473
outer loop
vertex 53.01451874 -69.52136993 -24.96513176
vertex 50.01279449 -70.43125153 -32.67383575
vertex 54.38684845 -70.7858429 -25.92262077

endloop
endfacet
facet normal -0.4430100024 -0.7948294878 0.414714545
outer loop
vertex 53.01451874 -69.52136993 -24.96513176
vertex 54.38684845 -70.7858429 -25.92262077
vertex 56.62578583 -68.83081818 -19.78398132

endloop
endfacet
facet normal -0.1115652397 -0.9344087243 0.3382801116
outer loop
vertex 56.62578583 -68.83081818 -19.78398132
vertex 54.38684845 -70.7858429 -25.92262077
vertex 58.75989532 -69.51164246 -20.96074486

endloop
endfacet
facet normal -0.1537735164 -0.9502466321 0.2708968222
outer loop
vertex 56.62578583 -68.83081818 -19.78398132
vertex 58.75989532 -69.51164246 -20.96074486
vertex 59.49797821 -68.05233765 -15.42285347

endloop
endfacet
facet normal 0.1626715958 -0.9592368007 0.2310904413
outer loop
vertex 59.49797821 -68.05233765 -15.42285347
vertex 58.75989532 -69.51164246 -20.96074486
vertex 62.28762054 -67.98877716 -17.12273407

endloop
endfacet
facet normal 0.2186947316 -0.9202615619 0.3244862258
outer loop
vertex 59.49797821 -68.05233765 -15.42285347
vertex 62.28762054 -67.98877716 -17.12273407
vertex 61.25605011 -66.48583221 -12.16504574

endloop
endfacet
facet normal 0.357194066 -0.8706284761 0.3382579386
outer loop
vertex 61.25605011 -66.48583221 -12.16504574
vertex 62.28762054 -67.98877716 -17.12273407
vertex 64.26625824 -66.07601929 -14.28896809

endloop
endfacet
facet normal 0.5517752171 -0.4650562108 0.6922909617
outer loop
vertex 61.25605011 -66.48583221 -12.16504574
vertex 64.26625824 -66.07601929 -14.28896809
vertex 61.55632782 -63.52542877 -10.41568279

endloop
endfacet
facet normal 0.4813999236 -0.5386081934 0.6914877295
outer loop
vertex 61.55632782 -63.52542877 -10.41568279
vertex 64.26625824 -66.07601929 -14.28896809
vertex 64.85723114 -63.27620697 -12.5195837

endloop
endfacet
facet normal 0.5362473726 0.02081321925 0.8438042402
outer loop
vertex 61.55631256 -63.52542877 -10.41568375
vertex 64.85720062 -63.27620697 -12.5195837
vertex 60.73844147 -60.8645401 -9.961550713

endloop
endfacet
facet normal 0.3010493815 -0.4027158916 0.8644010425
outer loop
vertex 60.73844147 -60.8645401 -9.961550713
vertex 64.85720062 -63.27620697 -12.5195837
vertex 65.03859711 -60.88420868 -11.46835136

endloop
endfacet
facet normal 0.2862336934 -0.4902147055 0.8232616782
outer loop
vertex 60.73844147 -60.8645401 -9.961550713
vertex 65.03859711 -60.88420868 -11.46835136
vertex 60.55692291 -60.30814362 -9.567131042

endloop
endfacet
facet normal -0.2413828671 -0.9266366959 -0.2882339954
outer loop
vertex 60.55692291 -60.30814362 -9.567131042
vertex 65.03859711 -60.88420868 -11.46835136
vertex 65.30269623 -61.29723358 -10.36169815

endloop
endfacet
facet normal 0.02566837333 -0.5483234525 0.8358723521
outer loop
vertex 60.55695343 -60.30812836 -9.567131996
vertex 65.30272675 -61.29721832 -10.36170006
vertex 61.79779816 -56.53594208 -7.130722046

endloop
endfacet
facet normal 0 -0.5646839142 0.82530725
outer loop
vertex 61.79779816 -56.53594208 -7.130722046
vertex 65.30272675 -61.29721832 -10.36170006
vertex 61.79781342 -56.53594208 -7.130722046

endloop
endfacet
facet normal 0.2839463651 -0.09061846137 0.9545484781
outer loop
vertex 40.09549713 -77.70354462 -40.46531677
vertex 40.09551239 -77.70353699 -40.46532059
vertex 43.67696381 -71.14936829 -40.90847397

endloop
endfacet
facet normal 0.6036503315 -0.2793706954 0.7466982603
outer loop
vertex 43.67696381 -71.14936829 -40.90847397
vertex 40.09551239 -77.70353699 -40.46532059
vertex 46.17537689 -73.32315063 -43.74155807

endloop
endfacet
facet normal -0.3567282856 -0.8661642075 0.3500065207
outer loop
vertex 43.67696381 -71.14936829 -40.90847397
vertex 46.17537689 -73.32315063 -43.74155807
vertex 50.01279449 -70.43125153 -32.67383575

endloop
endfacet
facet normal -0.2710845768 -0.9041345119 0.3302332759
outer loop
vertex 50.01279449 -70.43125153 -32.67383575
vertex 46.17537689 -73.32315063 -43.74155807
vertex 52.75431061 -72.02191925 -34.77839279

endloop
endfacet
facet normal -0.3754449189 -0.9059562087 0.195664376
outer loop
vertex 50.01279449 -70.43125153 -32.67383575
vertex 52.75431061 -72.02191925 -34.77839279
vertex 54.38684845 -70.7858429 -25.92262077

endloop
endfacet
facet normal -0.2325589806 -0.956456542 0.1763724983
outer loop
vertex 54.38684845 -70.7858429 -25.92262077
vertex 52.75431061 -72.02191925 -34.77839279
vertex 57.35417938 -71.85232544 -27.79346085

endloop
endfacet
facet normal -0.1182828173 -0.9316747785 0.3434984684
outer loop
vertex 54.38684845 -70.7858429 -25.92262077
vertex 57.35417938 -71.85232544 -27.79346085
vertex 58.75989532 -69.51164246 -20.96074486

endloop
endfacet
facet normal -0.05217498168 -0.9414008856 0.3332297802
outer loop
vertex 58.75989532 -69.51164246 -20.96074486
vertex 57.35417938 -71.85232544 -27.79346085
vertex 62.3786087 -70.32111359 -22.68097115

endloop
endfacet
facet normal -0.02250301279 -0.9220056534 0.3865218163
outer loop
vertex 58.75989532 -69.51164246 -20.96074486
vertex 62.3786087 -70.32111359 -22.68097115
vertex 62.28762054 -67.98877716 -17.12273407

endloop
endfacet
facet normal 0.06276632845 -0.9199225903 0.3870435953
outer loop
vertex 62.28762054 -67.98877716 -17.12273407
vertex 62.3786087 -70.32111359 -22.68097115
vertex 66.27046967 -68.43752289 -18.83520317

endloop
endfacet
facet normal 0.117325522 -0.8591905832 0.4980223775
outer loop
vertex 62.28762054 -67.98877716 -17.12273407
vertex 66.27046967 -68.43752289 -18.83520317
vertex 64.26625824 -66.07601929 -14.28896809

endloop
endfacet
facet normal 0.2270799577 -0.8196823001 0.5258855224
outer loop
vertex 64.26625824 -66.07601929 -14.28896809
vertex 66.27046967 -68.43752289 -18.83520317
vertex 68.34947968 -66.16825867 -16.19589424

endloop
endfacet
facet normal 0.3424125612 -0.5525178313 0.7599194646
outer loop
vertex 64.26625824 -66.07601929 -14.28896809
vertex 68.34947968 -66.16825867 -16.19589424
vertex 64.85723114 -63.27620697 -12.5195837

endloop
endfacet
facet normal 0.395716697 -0.5007584095 0.7698372006
outer loop
vertex 64.85723114 -63.27620697 -12.5195837
vertex 68.34947968 -66.16825867 -16.19589424
vertex 69.18465424 -63.27155304 -14.7409668

endloop
endfacet
facet normal 0.4205389619 -0.3915716112 0.8184245229
outer loop
vertex 64.85720062 -63.27620697 -12.5195837
vertex 69.18462372 -63.2715683 -14.74096584
vertex 65.03859711 -60.88420868 -11.46835136

endloop
endfacet
facet normal 0.3851044178 -0.4418603182 0.8102184534
outer loop
vertex 65.03859711 -60.88420868 -11.46835136
vertex 69.18462372 -63.2715683 -14.74096584
vertex 69.83946991 -60.98165131 -13.80339241

endloop
endfacet
facet normal -0.1692438424 -0.9359114766 -0.3089112341
outer loop
vertex 65.03859711 -60.88420868 -11.46835136
vertex 69.83946991 -60.98165131 -13.80339241
vertex 65.30269623 -61.29723358 -10.36169815

endloop
endfacet
facet normal -0.1175446808 -0.9628200531 -0.2432297915
outer loop
vertex 65.30269623 -61.29723358 -10.36169815
vertex 69.83946991 -60.98165131 -13.80339241
vertex 70.29732513 -61.55060577 -11.7724638

endloop
endfacet
facet normal 0.22550641 -0.4279247522 0.8752298951
outer loop
vertex 65.30272675 -61.29721832 -10.36170006
vertex 70.29735565 -61.55059052 -11.77246666
vertex 61.79781342 -56.53594208 -7.130722046

endloop
endfacet
facet normal 0 0.6689647436 -0.7432941794
outer loop
vertex 61.79781342 -56.53594208 -7.130722046
vertex 70.29735565 -61.55059052 -11.77246666
vertex 61.79779816 -56.53594208 -7.130722046

endloop
endfacet
facet normal 0.2386782616 -0.771946013 -0.589179039
outer loop
vertex 40.09551239 -77.70353699 -40.46532059
vertex 40.09549713 -77.70354462 -40.46531677
vertex 46.17537689 -73.32315063 -43.74155807

endloop
endfacet
facet normal 0.4625954926 0.02084004693 0.8863244653
outer loop
vertex 46.17537689 -73.32315063 -43.74155807
vertex 40.09549713 -77.70354462 -40.46531677
vertex 49.37578583 -77.1299057 -45.32242584

endloop
endfacet
facet normal -0.5491614938 -0.6694417596 0.5002692342
outer loop
vertex 46.17537689 -73.32315063 -43.74155807
vertex 49.37578583 -77.1299057 -45.32242584
vertex 52.75431061 -72.02191925 -34.77839279

endloop
endfacet
facet normal -0.2084730268 -0.8523097634 0.4796947539
outer loop
vertex 52.75431061 -72.02191925 -34.77839279
vertex 49.37578583 -77.1299057 -45.32242584
vertex 56.67938995 -74.39189911 -37.28349304

endloop
endfacet
facet normal -0.369037956 -0.8909358978 0.2646587789
outer loop
vertex 52.75431061 -72.02191925 -34.77839279
vertex 56.67938995 -74.39189911 -37.28349304
vertex 57.35417938 -71.85232544 -27.79346085

endloop
endfacet
facet normal -0.2323533744 -0.9353185296 0.2668167949
outer loop
vertex 57.35417938 -71.85232544 -27.79346085
vertex 56.67938995 -74.39189911 -37.28349304
vertex 61.40259552 -73.50427246 -30.05881119

endloop
endfacet
facet normal -0.1399792433 -0.9022760391 0.4078035951
outer loop
vertex 57.35417938 -71.85232544 -27.79346085
vertex 61.40259552 -73.50427246 -30.05881119
vertex 62.3786087 -70.32111359 -22.68097115

endloop
endfacet
facet normal -0.4292048216 -0.8072764277 0.4050777555
outer loop
vertex 62.3786087 -70.32111359 -22.68097115
vertex 61.40259552 -73.50427246 -30.05881119
vertex 65.49834442 -72.43995667 -23.59804535

endloop
endfacet
facet normal -0.2921721339 -0.708313942 0.6425938606
outer loop
vertex 62.3786087 -70.32111359 -22.68097115
vertex 65.49834442 -72.43995667 -23.59804535
vertex 66.27046967 -68.43752289 -18.83520317

endloop
endfacet
facet normal -0.5780904293 -0.576110065 0.5778483748
outer loop
vertex 66.27046967 -68.43752289 -18.83520317
vertex 65.49834442 -72.43995667 -23.59804535
vertex 68.81890106 -70.72222137 -18.56352997

endloop
endfacet
facet normal -0.4783264995 -0.4434057176 0.7580205202
outer loop
vertex 66.27046967 -68.43752289 -18.83520317
vertex 68.81890106 -70.72222137 -18.56352997
vertex 68.34947968 -66.16825867 -16.19589424

endloop
endfacet
facet normal -0.5278562903 -0.4339869618 0.7300842404
outer loop
vertex 68.34947968 -66.16825867 -16.19589424
vertex 68.81890106 -70.72222137 -18.56352997
vertex 71.1180954 -68.00336456 -15.28501415

endloop
endfacet
facet normal -0.4653958976 -0.2864521444 0.837467432
outer loop
vertex 68.34947968 -66.16825867 -16.19589424
vertex 71.1180954 -68.00336456 -15.28501415
vertex 69.18465424 -63.27155304 -14.7409668

endloop
endfacet
facet normal -0.4202917218 -0.2712897062 0.8658849597
outer loop
vertex 69.18465424 -63.27155304 -14.7409668
vertex 71.1180954 -68.00336456 -15.28501415
vertex 72.48540497 -64.46820068 -13.51373672

endloop
endfacet
facet normal -0.4137949646 -0.2410963327 0.8778646588
outer loop
vertex 69.18462372 -63.2715683 -14.74096584
vertex 72.48540497 -64.46820831 -13.51373672
vertex 69.83946991 -60.98165131 -13.80339241

endloop
endfacet
facet normal -0.3772293329 -0.211368531 0.9016770124
outer loop
vertex 69.83946991 -60.98165131 -13.80339241
vertex 72.48540497 -64.46820831 -13.51373672
vertex 73.3146286 -61.43505096 -12.45579529

endloop
endfacet
facet normal -0.0230646804 -0.964010179 -0.264862895
outer loop
vertex 69.83946991 -60.98165131 -13.80339241
vertex 73.3146286 -61.43505096 -12.45579529
vertex 70.29732513 -61.55060577 -11.7724638

endloop
endfacet
facet normal 0.1599175781 -0.8060594201 0.569819808
outer loop
vertex 70.29732513 -61.55060577 -11.7724638
vertex 73.3146286 -61.43505096 -12.45579529
vertex 73.52281952 -60.34021759 -10.96548653

endloop
endfacet
facet normal 0.04576260597 -0.6357061863 0.7705733776
outer loop
vertex 70.29735565 -61.55059052 -11.77246666
vertex 73.52281952 -60.34021759 -10.96548843
vertex 61.79779816 -56.53594208 -7.130722046

endloop
endfacet
facet normal -nan(ind) -nan(ind) -nan(ind)
outer loop
vertex 61.79779816 -56.53594208 -7.130722046
vertex 73.52281952 -60.34021759 -10.96548843
vertex 61.79779816 -56.53594208 -7.130722046

endloop
endfacet
facet normal 0 -0.9930980206 -0.1172878072
outer loop
vertex 40.09549713 -77.70354462 -40.46531677
vertex 40.09548187 -77.70354462 -40.46531677
vertex 49.37578583 -77.1299057 -45.32242584

endloop
endfacet
facet normal 0.4210226834 0.3329051733 0.84375
outer loop
vertex 49.37578583 -77.1299057 -45.32242584
vertex 40.09548187 -77.70354462 -40.46531677
vertex 51.3628006 -81.85453796 -44.4498024

endloop
endfacet
facet normal -0.7008779049 -0.166671142 0.6935350299
outer loop
vertex 49.37578583 -77.1299057 -45.32242584
vertex 51.3628006 -81.85453796 -44.4498024
vertex 56.67938995 -74.39189911 -37.28349304

endloop
endfacet
facet normal -0.5586063266 -0.3319580257 0.7601071
outer loop
vertex 56.67938995 -74.39189911 -37.28349304
vertex 51.3628006 -81.85453796 -44.4498024
vertex 58.66123199 -78.57144165 -37.65233994

endloop
endfacet
facet normal -0.7438560724 -0.3999724984 0.5354437828
outer loop
vertex 56.67938995 -74.39189911 -37.28349304
vertex 58.66123199 -78.57144165 -37.65233994
vertex 61.40259552 -73.50427246 -30.05881119

endloop
endfacet
facet normal -0.6885458827 -0.4634135365 0.5578103662
outer loop
vertex 61.40259552 -73.50427246 -30.05881119
vertex 58.66123199 -78.57144165 -37.65233994
vertex 63.26865387 -76.80036163 -30.49370003

endloop
endfacet
facet normal -0.708208859 -0.4704086483 0.5264559984
outer loop
vertex 61.40259552 -73.50427246 -30.05881119
vertex 63.26865387 -76.80036163 -30.49370003
vertex 65.49834442 -72.43995667 -23.59804535

endloop
endfacet
facet normal -0.8613845706 -0.2546163797 0.4395306408
outer loop
vertex 65.49834442 -72.43995667 -23.59804535
vertex 63.26865387 -76.80036163 -30.49370003
vertex 66.60848236 -75.41052246 -23.14323997

endloop
endfacet
facet normal -0.784060955 -0.2032223046 0.5864716768
outer loop
vertex 65.49834442 -72.43995667 -23.59804535
vertex 66.60848236 -75.41052246 -23.14323997
vertex 68.81890106 -70.72222137 -18.56352997

endloop
endfacet
facet normal -0.883877635 -0.03859968483 0.4661226571
outer loop
vertex 68.81890106 -70.72222137 -18.56352997
vertex 66.60848236 -75.41052246 -23.14323997
vertex 69.69683075 -73.38012695 -17.11887169

endloop
endfacet
facet normal -0.8295679688 0.0290861018 0.5576477647
outer loop
vertex 68.81890106 -70.72222137 -18.56352997
vertex 69.69683075 -73.38012695 -17.11887169
vertex 71.1180954 -68.00336456 -15.28501415

endloop
endfacet
facet normal -0.82011801 0.02176790498 0.571780324
outer loop
vertex 71.1180954 -68.00336456 -15.28501415
vertex 69.69683075 -73.38012695 -17.11887169
vertex 72.53951263 -69.99900818 -13.17026711

endloop
endfacet
facet normal -0.8173080087 0.02774555981 0.5755326152
outer loop
vertex 71.1180954 -68.00336456 -15.28501415
vertex 72.53951263 -69.99900818 -13.17026711
vertex 72.48540497 -64.46820068 -13.51373672

endloop
endfacet
facet normal -0.7620761991 0.03270304948 0.6466610432
outer loop
vertex 72.48540497 -64.46820068 -13.51373672
vertex 72.53951263 -69.99900818 -13.17026711
vertex 74.47164154 -65.52365112 -11.11962318

endloop
endfacet
facet normal -0.7718872428 -0.01069315895 0.6356695294
outer loop
vertex 72.48540497 -64.46820831 -13.51373672
vertex 74.47164154 -65.52365875 -11.11962414
vertex 73.3146286 -61.43505096 -12.45579529

endloop
endfacet
facet normal -0.8180776834 -0.04410976544 0.5734136701
outer loop
vertex 73.3146286 -61.43505096 -12.45579529
vertex 74.47164154 -65.52365875 -11.11962414
vertex 74.88631439 -61.51898956 -10.21996021

endloop
endfacet
facet normal -0.709153533 -0.5172837377 0.4790811241
outer loop
vertex 73.3146286 -61.43505096 -12.45579529
vertex 74.88631439 -61.51898956 -10.21996021
vertex 73.52281952 -60.34021759 -10.96548653

endloop
endfacet
facet normal -0.6022660136 -0.2094423473 0.7703308463
outer loop
vertex 73.52281952 -60.34021759 -10.96548653
vertex 74.88631439 -61.51898956 -10.21996021
vertex 74.54317474 -58.69765472 -9.721154213

endloop
endfacet
facet normal 0.05275070667 -0.6236177087 0.7799476385
outer loop
vertex 73.52281952 -60.34021759 -10.96548843
vertex 74.54320526 -58.69763947 -9.721155167
vertex 61.79779816 -56.53594208 -7.130722046

endloop
endfacet
facet normal -nan(ind) -nan(ind) -nan(ind)
outer loop
vertex 61.79779816 -56.53594208 -7.130722046
vertex 74.54320526 -58.69763947 -9.721155167
vertex 61.79779816 -56.53594208 -7.130722046

endloop
endfacet
facet normal 0 0.6924895048 -0.7214279771
outer loop
vertex 40.09548187 -77.70354462 -40.46531677
vertex 40.09549713 -77.70354462 -40.46531677
vertex 51.3628006 -81.85453796 -44.4498024

endloop
endfacet
facet normal 0.4483757913 0.5174578428 0.7288323045
outer loop
vertex 51.3628006 -81.85453796 -44.4498024
vertex 40.09549713 -77.70354462 -40.46531677
vertex 51.59397125 -85.43497467 -42.04997253

endloop
endfacet
facet normal -0.7176632285 0.3551614285 0.5990156531
outer loop
vertex 51.3628006 -81.85453796 -44.4498024
vertex 51.59397125 -85.43497467 -42.04997253
vertex 58.66123199 -78.57144165 -37.65233994

endloop
endfacet
facet normal -0.672744751 0.2455198467 0.6979502439
outer loop
vertex 58.66123199 -78.57144165 -37.65233994
vertex 51.59397125 -85.43497467 -42.04997253
vertex 58.5134964 -82.86071014 -36.28589249

endloop
endfacet
facet normal -0.8464122415 0.1878918409 0.498279959
outer loop
vertex 58.66123199 -78.57144165 -37.65233994
vertex 58.5134964 -82.86071014 -36.28589249
vertex 63.26865387 -76.80036163 -30.49370003

endloop
endfacet
facet normal -0.8408163786 0.1678718328 0.5146328211
outer loop
vertex 63.26865387 -76.80036163 -30.49370003
vertex 58.5134964 -82.86071014 -36.28589249
vertex 63.1350174 -80.63711548 -29.46049881

endloop
endfacet
facet normal -0.9113822579 0.1363174617 0.3883295953
outer loop
vertex 63.26865387 -76.80036163 -30.49370003
vertex 63.1350174 -80.63711548 -29.46049881
vertex 66.60848236 -75.41052246 -23.14323997

endloop
endfacet
facet normal -0.9067261219 0.1107585952 0.4069156051
outer loop
vertex 66.60848236 -75.41052246 -23.14323997
vertex 63.1350174 -80.63711548 -29.46049881
vertex 66.73693085 -78.66686249 -21.97067451

endloop
endfacet
facet normal -0.8992121816 0.1163951531 0.4217458367
outer loop
vertex 66.60848236 -75.41052246 -23.14323997
vertex 66.73693085 -78.66686249 -21.97067451
vertex 69.69683075 -73.38012695 -17.11887169

endloop
endfacet
facet normal -0.9010774493 0.1227958873 0.4159092009
outer loop
vertex 69.69683075 -73.38012695 -17.11887169
vertex 66.73693085 -78.66686249 -21.97067451
vertex 70.17839813 -76.25583649 -15.22649956

endloop
endfacet
facet normal -0.8628150821 0.1690258086 0.4764246345
outer loop
vertex 69.69683075 -73.38012695 -17.11887169
vertex 70.17839813 -76.25583649 -15.22649956
vertex 72.53951263 -69.99900818 -13.17026711

endloop
endfacet
facet normal -0.8836224079 0.1933074743 0.4264313281
outer loop
vertex 72.53951263 -69.99900818 -13.17026711
vertex 70.17839813 -76.25583649 -15.22649956
vertex 73.33968353 -72.38170624 -10.43209553

endloop
endfacet
facet normal -0.8861865997 0.1886924803 0.4231648445
outer loop
vertex 72.53951263 -69.99900818 -13.17026711
vertex 73.33968353 -72.38170624 -10.43209553
vertex 74.47164154 -65.52365112 -11.11962318

endloop
endfacet
facet normal -0.9285577536 0.1854955405 0.3215148449
outer loop
vertex 74.47164154 -65.52365112 -11.11962318
vertex 73.33968353 -72.38170624 -10.43209553
vertex 75.23378754 -66.99634552 -8.068831444

endloop
endfacet
facet normal -0.964492023 0.0412654914 0.2608685195
outer loop
vertex 74.47164154 -65.52365875 -11.11962414
vertex 75.23378754 -66.99636078 -8.068832397
vertex 74.88631439 -61.51898956 -10.21996021

endloop
endfacet
facet normal -0.9967670441 -0.07477655262 -0.02939351462
outer loop
vertex 74.88631439 -61.51898956 -10.21996021
vertex 75.23378754 -66.99636078 -8.068832397
vertex 74.83415985 -61.81586456 -7.696095943

endloop
endfacet
facet normal -0.9928135872 -0.1147358492 -0.03401210904
outer loop
vertex 74.88631439 -61.51898956 -10.21996021
vertex 74.83415985 -61.81586456 -7.696095943
vertex 74.54317474 -58.69765472 -9.721154213

endloop
endfacet
facet normal -0.9759620428 -0.1752308458 -0.1295844764
outer loop
vertex 74.54317474 -58.69765472 -9.721154213
vertex 74.83415985 -61.81586456 -7.696095943
vertex 74.12010956 -57.30144501 -8.422877312

endloop
endfacet
facet normal 0.03538495675 -0.6747633219 0.7371854782
outer loop
vertex 74.54320526 -58.69763947 -9.721155167
vertex 74.12014008 -57.30144501 -8.422878265
vertex 61.79779816 -56.53594208 -7.130722046

endloop
endfacet
facet normal 0 -0.8682431579 0.4961389303
outer loop
vertex 61.79779816 -56.53594208 -7.130722046
vertex 74.12014008 -57.30144501 -8.422878265
vertex 61.79781342 -56.53594208 -7.130722046

endloop
endfacet
facet normal -nan(ind) -nan(ind) -nan(ind)
outer loop
vertex 40.09549713 -77.70354462 -40.46531677
vertex 40.09549713 -77.70354462 -40.46531677
vertex 51.59397125 -85.43497467 -42.04997253

endloop
endfacet
facet normal 0.5036141276 0.6272241473 0.5941066742
outer loop
vertex 51.59397125 -85.43497467 -42.04997253
vertex 40.09549713 -77.70354462 -40.46531677
vertex 50.65468597 -87.32925415 -39.25388336

endloop
endfacet
facet normal -0.5576010942 0.7621256113 0.3290068805
outer loop
vertex 51.59397125 -85.43497467 -42.04997253
vertex 50.65468597 -87.32925415 -39.25388336
vertex 58.5134964 -82.86071014 -36.28589249

endloop
endfacet
facet normal -0.55892694 0.6096672416 0.5620555282
outer loop
vertex 58.5134964 -82.86071014 -36.28589249
vertex 50.65468597 -87.32925415 -39.25388336
vertex 57.10474396 -86.10778809 -34.16466522

endloop
endfacet
facet normal -0.763146162 0.5513239503 0.3371198177
outer loop
vertex 58.5134964 -82.86071014 -36.28589249
vertex 57.10474396 -86.10778809 -34.16466522
vertex 63.1350174 -80.63711548 -29.46049881

endloop
endfacet
facet normal -0.7669689059 0.4670471847 0.4400290847
outer loop
vertex 63.1350174 -80.63711548 -29.46049881
vertex 57.10474396 -86.10778809 -34.16466522
vertex 61.92089081 -84.25325775 -27.73854065

endloop
endfacet
facet normal -0.8532348275 0.4282259941 0.2976791263
outer loop
vertex 63.1350174 -80.63711548 -29.46049881
vertex 61.92089081 -84.25325775 -27.73854065
vertex 66.73693085 -78.66686249 -21.97067451

endloop
endfacet
facet normal -0.8575757146 0.3567061424 0.3705733418
outer loop
vertex 66.73693085 -78.66686249 -21.97067451
vertex 61.92089081 -84.25325775 -27.73854065
vertex 66.04647064 -82.164711 -20.20157242

endloop
endfacet
facet normal -0.8813170791 0.3399569988 0.328191191
outer loop
vertex 66.73693085 -78.66686249 -21.97067451
vertex 66.04647064 -82.164711 -20.20157242
vertex 70.17839813 -76.25583649 -15.22649956

endloop
endfacet
facet normal -0.8808139563 0.3304182291 0.3391024172
outer loop
vertex 70.17839813 -76.25583649 -15.22649956
vertex 66.04647064 -82.164711 -20.20157242
vertex 69.9413681 -79.30426788 -12.87181854

endloop
endfacet
facet normal -0.888913095 0.3213060796 0.326490283
outer loop
vertex 70.17839813 -76.25583649 -15.22649956
vertex 69.9413681 -79.30426788 -12.87181854
vertex 73.33968353 -72.38170624 -10.43209553

endloop
endfacet
facet normal -0.9027792811 0.3605085611 0.2345699966
outer loop
vertex 73.33968353 -72.38170624 -10.43209553
vertex 69.9413681 -79.30426788 -12.87181854
vertex 73.24730682 -74.72941589 -7.179447174

endloop
endfacet
facet normal -0.9509538412 0.2630091608 0.1628283113
outer loop
vertex 73.33968353 -72.38170624 -10.43209553
vertex 73.24730682 -74.72941589 -7.179447174
vertex 75.23378754 -66.99634552 -8.068831444

endloop
endfacet
facet normal -0.9686831832 0.2482471764 -0.005124386866
outer loop
vertex 75.23378754 -66.99634552 -8.068831444
vertex 73.24730682 -74.72941589 -7.179447174
vertex 74.84636688 -68.42905426 -4.239686966

endloop
endfacet
facet normal -0.9898257852 -0.06733760238 -0.1253422201
outer loop
vertex 75.23378754 -66.99636078 -8.068832397
vertex 74.84636688 -68.42906189 -4.239686966
vertex 74.83415985 -61.81586456 -7.696095943

endloop
endfacet
facet normal -0.9288841486 -0.1729019284 -0.327535212
outer loop
vertex 74.83415985 -61.81586456 -7.696095943
vertex 74.84636688 -68.42906189 -4.239686966
vertex 73.7413559 -62.05809784 -4.469050884

endloop
endfacet
facet normal -0.9236193895 -0.1988465786 -0.3276998699
outer loop
vertex 74.83415985 -61.81586456 -7.696095943
vertex 73.7413559 -62.05809784 -4.469050884
vertex 74.12010956 -57.30144501 -8.422877312

endloop
endfacet
facet normal -0.8512945175 -0.2936467528 -0.43482095
outer loop
vertex 74.12010956 -57.30144501 -8.422877312
vertex 73.7413559 -62.05809784 -4.469050884
vertex 72.80513763 -55.88904572 -6.802251816

endloop
endfacet
facet normal 0.02379971929 -0.7440192699 0.6677341461
outer loop
vertex 74.12014008 -57.30144501 -8.422878265
vertex 72.80516815 -55.88904572 -6.802250862
vertex 61.79781342 -56.53594208 -7.130722046

endloop
endfacet
facet normal -0.03337976336 0.0621675998 0.9975073934
outer loop
vertex 61.79781342 -56.53594208 -7.130722046
vertex 72.80516815 -55.88904572 -6.802250862
vertex 61.79781342 -56.53592682 -7.130723

endloop
endfacet
facet normal -0.1139802039 0 0.993483007
outer loop
vertex 40.09549713 -77.70354462 -40.46531677
vertex 40.09549713 -77.70355225 -40.46531677
vertex 50.65468597 -87.32925415 -39.25388336

endloop
endfacet
facet normal 0.5652559996 0.6790254116 0.4684123993
outer loop
vertex 50.65468597 -87.32925415 -39.25388336
vertex 40.09549713 -77.70355225 -40.46531677
vertex 49.06391144 -88.15860748 -36.13196182

endloop
endfacet
facet normal -0.2718787789 0.9554027319 0.1152715012
outer loop
vertex 50.65468597 -87.32925415 -39.25388336
vertex 49.06391144 -88.15860748 -36.13196182
vertex 57.10474396 -86.10778809 -34.16466522

endloop
endfacet
facet normal -0.3134810627 0.8748469353 0.369286418
outer loop
vertex 57.10474396 -86.10778809 -34.16466522
vertex 49.06391144 -88.15860748 -36.13196182
vertex 54.87238312 -88.09433746 -31.35350418

endloop
endfacet
facet normal -0.5347899199 0.8294192553 0.1614415944
outer loop
vertex 57.10474396 -86.10778809 -34.16466522
vertex 54.87238312 -88.09433746 -31.35350418
vertex 61.92089081 -84.25325775 -27.73854065

endloop
endfacet
facet normal -0.5757684708 0.7498654127 0.3258719444
outer loop
vertex 61.92089081 -84.25325775 -27.73854065
vertex 54.87238312 -88.09433746 -31.35350418
vertex 59.69730377 -87.00654602 -25.33169174

endloop
endfacet
facet normal -0.6836274266 0.707773149 0.1780745387
outer loop
vertex 61.92089081 -84.25325775 -27.73854065
vertex 59.69730377 -87.00654602 -25.33169174
vertex 66.04647064 -82.164711 -20.20157242

endloop
endfacet
facet normal -0.7055077553 0.6647135019 0.2457941771
outer loop
vertex 66.04647064 -82.164711 -20.20157242
vertex 59.69730377 -87.00654602 -25.33169174
vertex 63.9272995 -85.35041046 -17.66902351

endloop
endfacet
facet normal -0.7598212361 0.6307385564 0.1576088667
outer loop
vertex 66.04647064 -82.164711 -20.20157242
vertex 63.9272995 -85.35041046 -17.66902351
vertex 69.9413681 -79.30426788 -12.87181854

endloop
endfacet
facet normal -0.7510967851 0.6483520269 0.1244722977
outer loop
vertex 69.9413681 -79.30426788 -12.87181854
vertex 63.9272995 -85.35041046 -17.66902351
vertex 67.98299408 -82.16252899 -9.801009178

endloop
endfacet
facet normal -0.8181885481 0.5747978091 0.01322230231
outer loop
vertex 69.9413681 -79.30426788 -12.87181854
vertex 67.98299408 -82.16252899 -9.801009178
vertex 73.24730682 -74.72941589 -7.179447174

endloop
endfacet
facet normal -0.8008710742 0.5939962268 -0.0759870857
outer loop
vertex 73.24730682 -74.72941589 -7.179447174
vertex 67.98299408 -82.16252899 -9.801009178
vertex 71.41008759 -76.70412445 -3.252379894

endloop
endfacet
facet normal -0.9045622945 0.3458864093 -0.2492583841
outer loop
vertex 73.24730682 -74.72941589 -7.179447174
vertex 71.41008759 -76.70412445 -3.252379894
vertex 74.84636688 -68.42905426 -4.239686966

endloop
endfacet
facet normal -0.8919932246 0.3340713084 -0.3045397699
outer loop
vertex 74.84636688 -68.42905426 -4.239686966
vertex 71.41008759 -76.70412445 -3.252379894
vertex 72.91088104 -69.39473724 0.3700009882

endloop
endfacet
facet normal -0.8953591585 -0.170112744 -0.4115746319
outer loop
vertex 74.84636688 -68.42906189 -4.239686966
vertex 72.91088104 -69.39474487 0.3700000048
vertex 73.7413559 -62.05809784 -4.469050884

endloop
endfacet
facet normal -0.8442095518 -0.2252477109 -0.4863883555
outer loop
vertex 73.7413559 -62.05809784 -4.469050884
vertex 72.91088104 -69.39474487 0.3700000048
vertex 71.39421844 -61.89192963 -0.4721480012

endloop
endfacet
facet normal -0.8268730044 -0.3043496013 -0.4729190171
outer loop
vertex 73.7413559 -62.05809784 -4.469050884
vertex 71.39421844 -61.89192963 -0.4721480012
vertex 72.80513763 -55.88904572 -6.802251816

endloop
endfacet
facet normal -0.7498601079 -0.3884774745 -0.5355326533
outer loop
vertex 72.80513763 -55.88904572 -6.802251816
vertex 71.39421844 -61.89192963 -0.4721480012
vertex 70.24474335 -53.93787384 -4.632540226

endloop
endfacet
facet normal 0.02251812071 -0.7300132513 0.6830619574
outer loop
vertex 72.80516815 -55.88904572 -6.802250862
vertex 70.24474335 -53.93785858 -4.632537842
vertex 61.79781342 -56.53592682 -7.130723

endloop
endfacet
facet normal 0.3735226691 -0.4218608737 -0.8261442184
outer loop
vertex 61.79781342 -56.53592682 -7.130723
vertex 70.24474335 -53.93785858 -4.632537842
vertex 61.79779816 -56.53594208 -7.130722046

endloop
endfacet
facet normal 0.4350564778 0 -0.9004032016
outer loop
vertex 40.09549713 -77.70355225 -40.46531677
vertex 40.09549713 -77.70354462 -40.46531677
vertex 49.06391144 -88.15860748 -36.13196182

endloop
endfacet
facet normal 0.5787672997 0.6818677783 0.4473082423
outer loop
vertex 49.06391144 -88.15860748 -36.13196182
vertex 40.09549713 -77.70354462 -40.46531677
vertex 42.88532257 -89.54933167 -26.01756096

endloop
endfacet
facet normal -0.08205869794 0.9928759336 0.08639261872
outer loop
vertex 49.06391144 -88.15860748 -36.13196182
vertex 42.88532257 -89.54933167 -26.01756096
vertex 54.87238312 -88.09433746 -31.35350418

endloop
endfacet
facet normal -0.1407769471 0.9889445305 -0.04658846185
outer loop
vertex 54.87238312 -88.09433746 -31.35350418
vertex 42.88532257 -89.54933167 -26.01756096
vertex 45.12821198 -89.05679321 -22.33969688

endloop
endfacet
facet normal -0.1506978571 0.9869044423 -0.05753102899
outer loop
vertex 54.87238312 -88.09433746 -31.35350418
vertex 45.12821198 -89.05679321 -22.33969688
vertex 59.69730377 -87.00654602 -25.33169174

endloop
endfacet
facet normal -0.1756530553 0.9651579857 -0.1939485073
outer loop
vertex 59.69730377 -87.00654602 -25.33169174
vertex 45.12821198 -89.05679321 -22.33969688
vertex 49.51845551 -87.33110046 -17.72813034

endloop
endfacet
facet normal -0.1343257427 0.9812902212 -0.1379352659
outer loop
vertex 59.69730377 -87.00654602 -25.33169174
vertex 49.51845551 -87.33110046 -17.72813034
vertex 63.9272995 -85.35041046 -17.66902351

endloop
endfacet
facet normal -0.1280887425 0.941136837 -0.3128173649
outer loop
vertex 63.9272995 -85.35041046 -17.66902351
vertex 49.51845551 -87.33110046 -17.72813034
vertex 54.94429779 -84.61295319 -11.77206993

endloop
endfacet
facet normal -0.1292086691 0.9404438734 -0.3144367635
outer loop
vertex 63.9272995 -85.35041046 -17.66902351
vertex 54.94429779 -84.61295319 -11.77206993
vertex 67.98299408 -82.16252899 -9.801009178

endloop
endfacet
facet normal -0.08480858058 0.85832268 -0.5060530901
outer loop
vertex 67.98299408 -82.16252899 -9.801009178
vertex 54.94429779 -84.61295319 -11.77206993
vertex 59.12422943 -80.38135529 -5.295313835

endloop
endfacet
facet normal -0.1400075257 0.7953915 -0.5897034407
outer loop
vertex 67.98299408 -82.16252899 -9.801009178
vertex 59.12422943 -80.38135529 -5.295313835
vertex 71.41008759 -76.70412445 -3.252379894

endloop
endfacet
facet normal -0.05346342549 0.6154831648 -0.7863345742
outer loop
vertex 71.41008759 -76.70412445 -3.252379894
vertex 59.12422943 -80.38135529 -5.295313835
vertex 61.17853546 -74.31676483 -0.6880850196

endloop
endfacet
facet normal -0.1134584621 0.459779799 -0.8807551861
outer loop
vertex 71.41008759 -76.70412445 -3.252379894
vertex 61.17853546 -74.31676483 -0.6880850196
vertex 72.91088104 -69.39473724 0.3700009882

endloop
endfacet
facet normal 0.009517993778 0.1884216517 -0.9820420742
outer loop
vertex 72.91088104 -69.39473724 0.3700009882
vertex 61.17853546 -74.31676483 -0.6880850196
vertex 61.44152069 -67.09143829 0.7007669806

endloop
endfacet
facet normal -0.05307831988 -0.1219762862 -0.9911127687
outer loop
vertex 72.91088104 -69.39474487 0.3700000048
vertex 61.44150543 -67.09144592 0.7007669806
vertex 71.39421844 -61.89192963 -0.4721480012

endloop
endfacet
facet normal -0.1060936227 -0.02117720991 -0.9941305518
outer loop
vertex 71.39421844 -61.89192963 -0.4721480012
vertex 61.44150543 -67.09144592 0.7007669806
vertex 60.77893829 -59.88816071 0.6180300117

endloop
endfacet
facet normal -0.1783147007 -0.4761635065 -0.8610877395
outer loop
vertex 71.39421844 -61.89192963 -0.4721480012
vertex 60.77893829 -59.88816071 0.6180300117
vertex 70.24474335 -53.93787384 -4.632540226

endloop
endfacet
facet normal -0.4348685145 -0.09807900339 -0.8951367736
outer loop
vertex 70.24474335 -53.93787384 -4.632540226
vertex 60.77893829 -59.88816071 0.6180300117
vertex 60.04436493 -48.90642548 -0.2283599973

endloop
endfacet
facet normal -0.01208902989 -0.6723614931 0.7401242256
outer loop
vertex 70.24474335 -53.93785858 -4.632537842
vertex 60.04438019 -48.90641022 -0.2283589989
vertex 61.79779816 -56.53594208 -7.130722046

endloop
endfacet
facet normal -nan(ind) -nan(ind) -nan(ind)
outer loop
vertex 61.79779816 -56.53594208 -7.130722046
vertex 60.04438019 -48.90641022 -0.2283589989
vertex 61.79779816 -56.53594208 -7.130722046

endloop
endfacet
endsolid
