solid 
facet normal 0.981009 0.19396 -0
outer loop
vertex 61.91188812 -58.58214569 -6.441635132
vertex 61.91188812 -58.58214569 -6.441636086
vertex 59.97338104 -48.77759552 -1.143175006

endloop
endfacet
facet normal 0.008249741979 0.4766728282 -0.879042089
outer loop
vertex 59.97338104 -48.77759552 -1.143175006
vertex 61.91188812 -58.58214569 -6.441636086
vertex 55.00980377 -52.12218475 -3.003407955

endloop
endfacet
facet normal 0.5737787485 -0.4840815365 -0.6606383324
outer loop
vertex 59.97338104 -48.77759552 -1.143175006
vertex 55.00980377 -52.12218475 -3.003407955
vertex 59.6840744 -40.71994781 -7.298670769

endloop
endfacet
facet normal 0.5381204486 -0.4812634587 -0.6919623017
outer loop
vertex 59.6840744 -40.71994781 -7.298670769
vertex 55.00980377 -52.12218475 -3.003407955
vertex 53.08385468 -47.86888885 -7.459356785

endloop
endfacet
facet normal 0.7203156948 -0.6691353917 0.182765156
outer loop
vertex 59.6840744 -40.71994781 -7.298670769
vertex 53.08385468 -47.86888885 -7.459356785
vertex 60.04387665 -42.49796295 -15.22635269

endloop
endfacet
facet normal 0.7631672025 -0.5815543532 0.281727314
outer loop
vertex 60.04387665 -42.49796295 -15.22635269
vertex 53.08385468 -47.86888885 -7.459356785
vertex 54.11815643 -49.19773102 -13.00421906

endloop
endfacet
facet normal 0.6317308545 -0.3253819048 0.7035927773
outer loop
vertex 60.04387665 -42.49796295 -15.22635269
vertex 54.11815643 -49.19773102 -13.00421906
vertex 60.93518829 -49.00356293 -19.0351944

endloop
endfacet
facet normal 0.5518262386 -0.5736939907 0.6052792072
outer loop
vertex 60.93518829 -49.00356293 -19.0351944
vertex 54.11815643 -49.19773102 -13.00421906
vertex 55.11966705 -52.67301178 -17.21121597

endloop
endfacet
facet normal 0.5077783465 -0.4351848066 0.7434886098
outer loop
vertex 60.93518829 -49.00356293 -19.0351944
vertex 55.11966705 -52.67301178 -17.21121597
vertex 61.27251434 -53.06529999 -21.64302635

endloop
endfacet
facet normal 0.3919618428 -0.6926421523 0.6054854989
outer loop
vertex 61.27251434 -53.06529999 -21.64302635
vertex 55.11966705 -52.67301178 -17.21121597
vertex 55.37368011 -55.36998749 -20.46084404

endloop
endfacet
facet normal 0.4020504951 -0.8154532909 0.4164029956
outer loop
vertex 61.27251434 -53.06529999 -21.64302635
vertex 55.37368011 -55.36998749 -20.46084404
vertex 61.2687149 -53.96945953 -23.40999794

endloop
endfacet
facet normal 0.4042812884 -0.8109393716 0.4230057895
outer loop
vertex 61.2687149 -53.96945953 -23.40999794
vertex 55.37368011 -55.36998749 -20.46084404
vertex 55.1182785 -56.70227814 -22.77086639

endloop
endfacet
facet normal 0.3663590252 -0.6746571064 0.6407954693
outer loop
vertex 61.2687149 -53.96945953 -23.40999794
vertex 55.1182785 -56.70227814 -22.77086639
vertex 61.42694855 -54.37384796 -23.92622185

endloop
endfacet
facet normal 0.38075158 -0.8422717452 0.3815841675
outer loop
vertex 61.42694855 -54.37384796 -23.92622185
vertex 55.1182785 -56.70227814 -22.77086639
vertex 54.74172211 -57.32605743 -23.77200127

endloop
endfacet
facet normal 0.3041306734 -0.6524389982 0.6941382289
outer loop
vertex 61.42694855 -54.37384796 -23.92622185
vertex 54.74170685 -57.32605743 -23.77200127
vertex 61.3351059 -55.56806183 -25.00845528

endloop
endfacet
facet normal -0.1015088856 0.7982690334 0.5936854482
outer loop
vertex 61.3351059 -55.56806183 -25.00845528
vertex 54.74170685 -57.32605743 -23.77200127
vertex 54.29653168 -57.70381927 -23.34017944

endloop
endfacet
facet normal 0.2870974243 -0.957785666 -0.01489046682
outer loop
vertex 61.3351059 -55.56806183 -25.00845528
vertex 54.29653168 -57.70381927 -23.34017944
vertex 60.76836395 -55.72013092 -26.15419197

endloop
endfacet
facet normal -0.4426658452 0.7525364757 -0.4875816405
outer loop
vertex 60.76836395 -55.72013092 -26.15419197
vertex 54.29653168 -57.70381927 -23.34017944
vertex 53.82622528 -57.38895416 -22.42723274

endloop
endfacet
facet normal 0.09808784723 -0.963585794 -0.2487591207
outer loop
vertex 60.76837921 -55.72011566 -26.15419388
vertex 53.82624054 -57.3889389 -22.42723465
vertex 57.60779572 -54.1342392 -33.54344177

endloop
endfacet
facet normal -nan(ind) -nan(ind) -nan(ind)
outer loop
vertex 57.60779572 -54.1342392 -33.54344177
vertex 53.82624054 -57.3889389 -22.42723465
vertex 57.60779572 -54.1342392 -33.54344177

endloop
endfacet
facet normal -0.6833360791 -0.7301039696 -0
outer loop
vertex 61.91188812 -58.58214569 -6.441636086
vertex 61.91188812 -58.58214569 -6.441635132
vertex 55.00980377 -52.12218475 -3.003407955

endloop
endfacet
facet normal 0.1414088607 0.5786079168 -0.8032535911
outer loop
vertex 55.00980377 -52.12218475 -3.003407955
vertex 61.91188812 -58.58214569 -6.441635132
vertex 54.83092499 -53.86061859 -4.287145138

endloop
endfacet
facet normal 0.9479222894 0.1202507541 -0.2949288785
outer loop
vertex 55.00980377 -52.12218475 -3.003407955
vertex 54.83092499 -53.86061859 -4.287145138
vertex 53.08385468 -47.86888885 -7.459356785

endloop
endfacet
facet normal 0.8901901245 0.01855873317 -0.455211103
outer loop
vertex 53.08385468 -47.86888885 -7.459356785
vertex 54.83092499 -53.86061859 -4.287145138
vertex 52.98897552 -51.53150177 -7.794220924

endloop
endfacet
facet normal 0.9802219272 -0.0430527553 0.1931618005
outer loop
vertex 53.08385468 -47.86888885 -7.459356785
vertex 52.98897552 -51.53150177 -7.794220924
vertex 54.11815643 -49.19773102 -13.00421906

endloop
endfacet
facet normal 0.9695870876 -0.2171703726 0.1128624901
outer loop
vertex 54.11815643 -49.19773102 -13.00421906
vertex 52.98897552 -51.53150177 -7.794220924
vertex 53.19255829 -52.87482452 -12.12800026

endloop
endfacet
facet normal 0.9263202548 -0.1509182453 0.345187515
outer loop
vertex 54.11815643 -49.19773102 -13.00421906
vertex 53.19255829 -52.87482452 -12.12800026
vertex 55.11966705 -52.67301178 -17.21121597

endloop
endfacet
facet normal 0.8892714381 -0.3225001991 0.3243297637
outer loop
vertex 55.11966705 -52.67301178 -17.21121597
vertex 53.19255829 -52.87482452 -12.12800026
vertex 53.59992218 -55.81996918 -16.17347145

endloop
endfacet
facet normal 0.8872747421 -0.3184603453 0.3336564004
outer loop
vertex 55.11966705 -52.67301178 -17.21121597
vertex 53.59992218 -55.81996918 -16.17347145
vertex 55.37368011 -55.36998749 -20.46084404

endloop
endfacet
facet normal 0.8699157834 -0.3748171628 0.3205597997
outer loop
vertex 55.37368011 -55.36998749 -20.46084404
vertex 53.59992218 -55.81996918 -16.17347145
vertex 53.8090744 -58.50399017 -19.87936974

endloop
endfacet
facet normal 0.8958223462 -0.4205959141 0.1435317546
outer loop
vertex 55.37368011 -55.36998749 -20.46084404
vertex 53.8090744 -58.50399017 -19.87936974
vertex 55.1182785 -56.70227814 -22.77086639

endloop
endfacet
facet normal 0.9018229246 -0.4023278952 0.1576316357
outer loop
vertex 55.1182785 -56.70227814 -22.77086639
vertex 53.8090744 -58.50399017 -19.87936974
vertex 53.74892426 -59.93227386 -23.18069649

endloop
endfacet
facet normal 0.9199222922 -0.3758080006 -0.1118544787
outer loop
vertex 55.1182785 -56.70227814 -22.77086639
vertex 53.74892426 -59.93227386 -23.18069649
vertex 54.74172211 -57.32605743 -23.77200127

endloop
endfacet
facet normal 0.9135087729 -0.3805916905 -0.1437072754
outer loop
vertex 54.74172211 -57.32605743 -23.77200127
vertex 53.74892426 -59.93227386 -23.18069649
vertex 53.33641815 -60.02594757 -25.55480385

endloop
endfacet
facet normal -0.7640829682 0.5817795396 -0.2787646055
outer loop
vertex 54.74170685 -57.32605743 -23.77200127
vertex 53.33640289 -60.02596283 -25.55480003
vertex 54.29653168 -57.70381927 -23.34017944

endloop
endfacet
facet normal 0.6629746556 0.3546583354 -0.659304142
outer loop
vertex 54.29653168 -57.70381927 -23.34017944
vertex 53.33640289 -60.02596283 -25.55480003
vertex 52.419487 -59.3771286 -26.12779427

endloop
endfacet
facet normal -0.1919021755 0.8930978179 -0.4068782926
outer loop
vertex 54.29653168 -57.70381927 -23.34017944
vertex 52.419487 -59.3771286 -26.12779427
vertex 53.82622528 -57.38895416 -22.42723274

endloop
endfacet
facet normal 0.6643294096 0.5232996345 -0.5336889029
outer loop
vertex 53.82622528 -57.38895416 -22.42723274
vertex 52.419487 -59.3771286 -26.12779427
vertex 51.38596344 -57.87752533 -25.94390106

endloop
endfacet
facet normal 0.381585747 -0.9140039682 -0.1378006935
outer loop
vertex 53.82624054 -57.3889389 -22.42723465
vertex 51.3859787 -57.87752533 -25.94390297
vertex 57.60779572 -54.1342392 -33.54344177

endloop
endfacet
facet normal 0.1227314919 0.8415873647 0.5259920955
outer loop
vertex 57.60779572 -54.1342392 -33.54344177
vertex 51.3859787 -57.87752533 -25.94390297
vertex 57.60781097 -54.1342392 -33.54344559

endloop
endfacet
facet normal 0 -0.4151345193 0.9097600579
outer loop
vertex 61.91188812 -58.58214569 -6.441635132
vertex 61.91190338 -58.58214569 -6.441635132
vertex 54.83092499 -53.86061859 -4.287145138

endloop
endfacet
facet normal 0.3032787442 0.7327885032 -0.6091330051
outer loop
vertex 54.83092499 -53.86061859 -4.287145138
vertex 61.91190338 -58.58214569 -6.441635132
vertex 55.73943329 -55.35807037 -5.636250019

endloop
endfacet
facet normal 0.8269455433 0.5587111712 -0.06326876581
outer loop
vertex 54.83092499 -53.86061859 -4.287145138
vertex 55.73943329 -55.35807037 -5.636250019
vertex 52.98897552 -51.53150177 -7.794220924

endloop
endfacet
facet normal 0.8475210667 0.4561425745 -0.2713706195
outer loop
vertex 52.98897552 -51.53150177 -7.794220924
vertex 55.73943329 -55.35807037 -5.636250019
vertex 54.25778961 -54.17362213 -8.272669792

endloop
endfacet
facet normal 0.8903686404 0.4449807405 -0.09610296786
outer loop
vertex 52.98897552 -51.53150177 -7.794220924
vertex 54.25778961 -54.17362213 -8.272669792
vertex 53.19255829 -52.87482452 -12.12800026

endloop
endfacet
facet normal 0.9425963163 0.2919609547 -0.1620833576
outer loop
vertex 53.19255829 -52.87482452 -12.12800026
vertex 54.25778961 -54.17362213 -8.272669792
vertex 54.03481293 -55.46099091 -11.88833046

endloop
endfacet
facet normal 0.9471039772 0.2972345054 -0.1210199296
outer loop
vertex 53.19255829 -52.87482452 -12.12800026
vertex 54.03481293 -55.46099091 -11.88833046
vertex 53.59992218 -55.81996918 -16.17347145

endloop
endfacet
facet normal 0.9922554493 0.06457162648 -0.106111452
outer loop
vertex 53.59992218 -55.81996918 -16.17347145
vertex 54.03481293 -55.46099091 -11.88833046
vertex 53.77968597 -58.06047821 -15.85589695

endloop
endfacet
facet normal 0.9968126416 0.07976348698 -0.001511457609
outer loop
vertex 53.59992218 -55.81996918 -16.17347145
vertex 53.77968597 -58.06047821 -15.85589695
vertex 53.8090744 -58.50399017 -19.87936974

endloop
endfacet
facet normal 0.9657928348 -0.256891042 0.03537177667
outer loop
vertex 53.8090744 -58.50399017 -19.87936974
vertex 53.77968597 -58.06047821 -15.85589695
vertex 53.32143402 -60.3615799 -20.05574036

endloop
endfacet
facet normal 0.9605413675 -0.2612227201 0.09551416337
outer loop
vertex 53.8090744 -58.50399017 -19.87936974
vertex 53.32143402 -60.3615799 -20.05574036
vertex 53.74892426 -59.93227386 -23.18069649

endloop
endfacet
facet normal 0.8169395924 -0.5757981539 0.0326532796
outer loop
vertex 53.74892426 -59.93227386 -23.18069649
vertex 53.32143402 -60.3615799 -20.05574036
vertex 52.87827301 -61.2218399 -24.13803673

endloop
endfacet
facet normal 0.8640185595 -0.4861332178 -0.1309439838
outer loop
vertex 53.74892426 -59.93227386 -23.18069649
vertex 52.87827301 -61.2218399 -24.13803673
vertex 53.33641815 -60.02594757 -25.55480385

endloop
endfacet
facet normal 0.7944276333 -0.5658326149 -0.2207220048
outer loop
vertex 53.33641815 -60.02594757 -25.55480385
vertex 52.87827301 -61.2218399 -24.13803673
vertex 52.4288559 -60.60396576 -27.33954239

endloop
endfacet
facet normal 0.6857538819 0.5140975118 -0.5152139068
outer loop
vertex 53.33640289 -60.02596283 -25.55480003
vertex 52.42884064 -60.60398102 -27.33953857
vertex 52.419487 -59.3771286 -26.12779427

endloop
endfacet
facet normal 0.8608539701 0.3608839214 -0.3587384224
outer loop
vertex 52.419487 -59.3771286 -26.12779427
vertex 52.42884064 -60.60398102 -27.33953857
vertex 51.43347931 -59.61423492 -28.73241234

endloop
endfacet
facet normal 0.7553696036 0.5619381666 -0.3371086717
outer loop
vertex 52.419487 -59.3771286 -26.12779427
vertex 51.43347931 -59.61423492 -28.73241234
vertex 51.38596344 -57.87752533 -25.94390106

endloop
endfacet
facet normal 0.8360214829 0.4720315039 -0.2797397077
outer loop
vertex 51.38596344 -57.87752533 -25.94390106
vertex 51.43347931 -59.61423492 -28.73241234
vertex 50.30756378 -57.81549835 -29.06210899

endloop
endfacet
facet normal 0.3720099032 -0.9165332913 -0.146885559
outer loop
vertex 51.3859787 -57.87752533 -25.94390297
vertex 50.3075943 -57.81549835 -29.06210899
vertex 57.60781097 -54.1342392 -33.54344559

endloop
endfacet
facet normal -0.1948961169 -0.5568460822 -0.8074268103
outer loop
vertex 57.60781097 -54.1342392 -33.54344559
vertex 50.3075943 -57.81549835 -29.06210899
vertex 57.60779572 -54.1342392 -33.54344177

endloop
endfacet
facet normal 0 -0.2423561215 0.9701873064
outer loop
vertex 61.91188812 -58.58214569 -6.441635132
vertex 61.91190338 -58.58214569 -6.441635132
vertex 55.73941803 -55.35807037 -5.636250019

endloop
endfacet
facet normal 0.3276937902 0.7656447887 -0.5535384417
outer loop
vertex 55.73941803 -55.35807037 -5.636250019
vertex 61.91190338 -58.58214569 -6.441635132
vertex 56.52657318 -56.55925751 -6.831717014

endloop
endfacet
facet normal 0.7583857775 0.6365427971 -0.1402294487
outer loop
vertex 55.73941803 -55.35807037 -5.636250019
vertex 56.52657318 -56.55925751 -6.831717014
vertex 54.25778961 -54.17363739 -8.272669792

endloop
endfacet
facet normal 0.7755159736 0.5428695679 -0.3222849965
outer loop
vertex 54.25778961 -54.17363739 -8.272669792
vertex 56.52657318 -56.55925751 -6.831717014
vertex 55.56848907 -56.22124481 -8.567797661

endloop
endfacet
facet normal 0.8003365993 0.5475181341 -0.2443056554
outer loop
vertex 54.25778961 -54.17363739 -8.272669792
vertex 55.56848907 -56.22124481 -8.567797661
vertex 54.03479767 -55.46100616 -11.88833046

endloop
endfacet
facet normal 0.8373574615 0.4700077176 -0.2791509926
outer loop
vertex 54.03479767 -55.46100616 -11.88833046
vertex 55.56848907 -56.22124481 -8.567797661
vertex 55.33223724 -57.58414459 -11.57119274

endloop
endfacet
facet normal 0.82218647 0.4504533112 -0.3479959369
outer loop
vertex 54.03479767 -55.46100616 -11.88833046
vertex 55.33223724 -57.58414459 -11.57119274
vertex 53.77968597 -58.06049347 -15.85589695

endloop
endfacet
facet normal 0.8505155444 0.3910973668 -0.3516620696
outer loop
vertex 53.77968597 -58.06049347 -15.85589695
vertex 55.33223724 -57.58414459 -11.57119274
vertex 54.75815582 -59.9441452 -15.58429337

endloop
endfacet
facet normal 0.8603163362 0.4016295671 -0.3139258027
outer loop
vertex 53.77968597 -58.06049347 -15.85589695
vertex 54.75815582 -59.9441452 -15.58429337
vertex 53.32141876 -60.3615799 -20.05574036

endloop
endfacet
facet normal 0.9077142477 0.2745549679 -0.3172922432
outer loop
vertex 53.32141876 -60.3615799 -20.05574036
vertex 54.75815582 -59.9441452 -15.58429337
vertex 53.7261734 -61.98944855 -20.30641747

endloop
endfacet
facet normal 0.9522126913 0.2611513436 -0.1584014297
outer loop
vertex 53.32141876 -60.3615799 -20.05574036
vertex 53.7261734 -61.98944855 -20.30641747
vertex 52.87825775 -61.2218399 -24.13803673

endloop
endfacet
facet normal 0.9754323959 0.1014992222 -0.1955237985
outer loop
vertex 52.87825775 -61.2218399 -24.13803673
vertex 53.7261734 -61.98944855 -20.30641747
vertex 52.81406403 -62.48287201 -25.11290741

endloop
endfacet
facet normal 0.9903429151 0.0496548079 -0.1294429153
outer loop
vertex 52.87825775 -61.2218399 -24.13803673
vertex 52.81406403 -62.48287201 -25.11290741
vertex 52.42882538 -60.60396576 -27.33953857

endloop
endfacet
facet normal 0.9896945357 0.03997008875 -0.137503013
outer loop
vertex 52.42882538 -60.60396576 -27.33953857
vertex 52.81406403 -62.48287201 -25.11290741
vertex 52.2170639 -61.32595062 -29.07358742

endloop
endfacet
facet normal 0.8473652601 0.4455033243 -0.2889616489
outer loop
vertex 52.42881012 -60.60398102 -27.33953667
vertex 52.2170639 -61.32596588 -29.0735836
vertex 51.43346405 -59.61423492 -28.73240852

endloop
endfacet
facet normal 0.8829733729 0.4379117489 -0.1690898985
outer loop
vertex 51.43346405 -59.61423492 -28.73240852
vertex 52.2170639 -61.32596588 -29.0735836
vertex 51.09389496 -59.90184784 -31.25047493

endloop
endfacet
facet normal 0.8489062786 0.4999190569 -0.1715782881
outer loop
vertex 51.43346405 -59.61423492 -28.73240852
vertex 51.09389496 -59.90184784 -31.25047493
vertex 50.30756378 -57.81551361 -29.06210518

endloop
endfacet
facet normal 0.9106630683 0.4084442258 -0.06217797473
outer loop
vertex 50.30756378 -57.81551361 -29.06210518
vertex 51.09389496 -59.90184784 -31.25047493
vertex 49.99514008 -57.5697403 -32.0234108

endloop
endfacet
facet normal 0.3890401125 -0.9137760401 -0.1168806553
outer loop
vertex 50.3075943 -57.81549835 -29.06210709
vertex 49.99515533 -57.5697403 -32.0234108
vertex 57.60778046 -54.1342392 -33.54344177

endloop
endfacet
facet normal -0.3233808279 0.3233808279 -0.8892972469
outer loop
vertex 57.60778046 -54.1342392 -33.54344177
vertex 49.99515533 -57.5697403 -32.0234108
vertex 57.60779572 -54.13422394 -33.54344177

endloop
endfacet
facet normal 0.06235656142 -0.02638601884 -0.9977049828
outer loop
vertex 61.91190338 -58.58214569 -6.441635132
vertex 61.91188812 -58.58214569 -6.441636086
vertex 56.52657318 -56.55925751 -6.831717014

endloop
endfacet
facet normal 0.3363496959 0.7994434834 -0.4977538288
outer loop
vertex 56.52657318 -56.55925751 -6.831717014
vertex 61.91188812 -58.58214569 -6.441636086
vertex 57.15607452 -57.69312286 -8.227444649

endloop
endfacet
facet normal 0.6868296862 0.6839684844 -0.2458702624
outer loop
vertex 56.52657318 -56.55925751 -6.831717014
vertex 57.15607452 -57.69312286 -8.227444649
vertex 55.56848907 -56.22124481 -8.567797661

endloop
endfacet
facet normal 0.6679426432 0.628172636 -0.3990636468
outer loop
vertex 55.56848907 -56.22124481 -8.567797661
vertex 57.15607452 -57.69312286 -8.227444649
vertex 57.04517365 -57.99738312 -8.892008781

endloop
endfacet
facet normal 0.6904805899 0.6367226839 -0.3432503939
outer loop
vertex 55.56848907 -56.22124481 -8.567797661
vertex 57.04517365 -57.99738312 -8.892008781
vertex 55.33223724 -57.58414459 -11.57119274

endloop
endfacet
facet normal 0.7466822863 0.5353333354 -0.3948212862
outer loop
vertex 55.33223724 -57.58414459 -11.57119274
vertex 57.04517365 -57.99738312 -8.892008781
vertex 56.92714691 -59.52835846 -11.19105053

endloop
endfacet
facet normal 0.7413075566 0.526812613 -0.4158502519
outer loop
vertex 55.33223724 -57.58414459 -11.57119274
vertex 56.92714691 -59.52835846 -11.19105053
vertex 54.75815582 -59.9441452 -15.58429337

endloop
endfacet
facet normal 0.783824861 0.4485577345 -0.4294352829
outer loop
vertex 54.75815582 -59.9441452 -15.58429337
vertex 56.92714691 -59.52835846 -11.19105053
vertex 56.17499542 -61.88385773 -15.02429962

endloop
endfacet
facet normal 0.7960817814 0.4722132981 -0.3785080314
outer loop
vertex 54.75815582 -59.9441452 -15.58429337
vertex 56.17499542 -61.88385773 -15.02429962
vertex 53.7261734 -61.98944855 -20.30641747

endloop
endfacet
facet normal 0.8154132962 0.4308231473 -0.3866428137
outer loop
vertex 53.7261734 -61.98944855 -20.30641747
vertex 56.17499542 -61.88385773 -15.02429962
vertex 54.7884903 -63.93456268 -20.23341179

endloop
endfacet
facet normal 0.8612082005 0.4624300003 -0.2109002471
outer loop
vertex 53.7261734 -61.98944855 -20.30641747
vertex 54.7884903 -63.93456268 -20.23341179
vertex 52.81406403 -62.48287201 -25.11290741

endloop
endfacet
facet normal 0.8682155609 0.4453293383 -0.2188232541
outer loop
vertex 52.81406403 -62.48287201 -25.11290741
vertex 54.7884903 -63.93456268 -20.23341179
vertex 53.54279327 -64.33436584 -25.98955345

endloop
endfacet
facet normal 0.9253582954 0.3779771924 -0.02907308191
outer loop
vertex 52.81406403 -62.48287201 -25.11290741
vertex 53.54279327 -64.33436584 -25.98955345
vertex 52.2170639 -61.32595062 -29.07358742

endloop
endfacet
facet normal 0.928388536 0.3696069121 -0.03854073212
outer loop
vertex 52.2170639 -61.32595062 -29.07358742
vertex 53.54279327 -64.33436584 -25.98955345
vertex 52.71628571 -62.77695465 -30.96325684

endloop
endfacet
facet normal 0.8685386777 0.4764791727 -0.1364115328
outer loop
vertex 52.2170639 -61.32596588 -29.0735836
vertex 52.71628571 -62.77695465 -30.96325111
vertex 51.09389496 -59.90184784 -31.25047493

endloop
endfacet
facet normal 0.8718412519 0.4855384231 -0.06438294053
outer loop
vertex 51.09389496 -59.90184784 -31.25047493
vertex 52.71628571 -62.77695465 -30.96325111
vertex 51.27791595 -60.58019257 -33.87423325

endloop
endfacet
facet normal 0.9092316628 0.4140351713 -0.04327413812
outer loop
vertex 51.09389496 -59.90184784 -31.25047493
vertex 51.27791595 -60.58019257 -33.87423325
vertex 49.99514008 -57.5697403 -32.0234108

endloop
endfacet
facet normal 0.924226284 0.3813019991 0.02036048658
outer loop
vertex 49.99514008 -57.5697403 -32.0234108
vertex 51.27791595 -60.58019257 -33.87423325
vertex 49.96590424 -57.3438797 -34.92611694

endloop
endfacet
facet normal 0.3976722658 -0.9144436717 -0.07516322285
outer loop
vertex 49.99515533 -57.5697403 -32.0234108
vertex 49.96591949 -57.34386444 -34.92612076
vertex 57.60779572 -54.13422394 -33.54344177

endloop
endfacet
facet normal -0.1243732125 -0.1300265342 0.9836790562
outer loop
vertex 57.60779572 -54.13422394 -33.54344177
vertex 49.96591949 -57.34386444 -34.92612076
vertex 57.60781097 -54.1342392 -33.54344177

endloop
endfacet
facet normal -0.02452601679 -0.9194606543 -0.3924162686
outer loop
vertex 61.91188812 -58.58214569 -6.441636086
vertex 61.91187286 -58.58214569 -6.441635132
vertex 57.15607452 -57.69312286 -8.227444649

endloop
endfacet
facet normal 0.3451936543 0.7706824541 -0.5356209874
outer loop
vertex 57.15607452 -57.69312286 -8.227444649
vertex 61.91187286 -58.58214569 -6.441635132
vertex 57.74074554 -59.06406403 -9.823228836

endloop
endfacet
facet normal 0.5449606776 0.7242225409 -0.4225156605
outer loop
vertex 57.15607452 -57.69312286 -8.227444649
vertex 57.74074554 -59.06406403 -9.823228836
vertex 57.04517365 -57.99738312 -8.892008781

endloop
endfacet
facet normal -0.6936067939 -0.6740723848 0.2540395558
outer loop
vertex 57.04517365 -57.99738312 -8.892008781
vertex 57.74074554 -59.06406403 -9.823228836
vertex 58.5749588 -59.7498703 -9.365296364

endloop
endfacet
facet normal 0.6014863253 0.6503505707 -0.4639594555
outer loop
vertex 57.04517365 -57.99738312 -8.892008781
vertex 58.5749588 -59.7498703 -9.365296364
vertex 56.92714691 -59.52835846 -11.19105053

endloop
endfacet
facet normal 0.630456984 0.5965562463 -0.4966332912
outer loop
vertex 56.92714691 -59.52835846 -11.19105053
vertex 58.5749588 -59.7498703 -9.365296364
vertex 58.69634247 -61.21776581 -10.97444153

endloop
endfacet
facet normal 0.6320102811 0.5987823009 -0.4919582605
outer loop
vertex 56.92714691 -59.52835846 -11.19105053
vertex 58.69634247 -61.21776581 -10.97444153
vertex 56.17499542 -61.88385773 -15.02429962

endloop
endfacet
facet normal 0.6886542439 0.5124136209 -0.5130181313
outer loop
vertex 56.17499542 -61.88385773 -15.02429962
vertex 58.69634247 -61.21776581 -10.97444153
vertex 57.86370087 -63.80417633 -14.67550755

endloop
endfacet
facet normal 0.7201622128 0.558547318 -0.4115719199
outer loop
vertex 56.17499542 -61.88385773 -15.02429962
vertex 57.86370087 -63.80417633 -14.67550755
vertex 54.7884903 -63.93456268 -20.23341179

endloop
endfacet
facet normal 0.7194733024 0.559694767 -0.4112176895
outer loop
vertex 54.7884903 -63.93456268 -20.23341179
vertex 57.86370087 -63.80417633 -14.67550755
vertex 56.43831635 -66.1255188 -20.32888603

endloop
endfacet
facet normal 0.7767341137 0.5940164328 -0.2093529254
outer loop
vertex 54.7884903 -63.93456268 -20.23341179
vertex 56.43831635 -66.1255188 -20.32888603
vertex 53.54279327 -64.33436584 -25.98955345

endloop
endfacet
facet normal 0.7536087632 0.6304606795 -0.185992226
outer loop
vertex 53.54279327 -64.33436584 -25.98955345
vertex 56.43831635 -66.1255188 -20.32888603
vertex 55.1608963 -66.58111572 -27.04911804

endloop
endfacet
facet normal 0.8201047778 0.5706400871 0.04240270704
outer loop
vertex 53.54279327 -64.33436584 -25.98955345
vertex 55.1608963 -66.58111572 -27.04911804
vertex 52.71628571 -62.77695465 -30.96325684

endloop
endfacet
facet normal 0.8219626546 0.5682125688 0.03888299316
outer loop
vertex 52.71628571 -62.77695465 -30.96325684
vertex 55.1608963 -66.58111572 -27.04911804
vertex 54.11690521 -64.65313721 -33.15409851

endloop
endfacet
facet normal 0.8174998164 0.5751424432 0.03008750081
outer loop
vertex 52.71628571 -62.77695465 -30.96325111
vertex 54.11688995 -64.65314484 -33.1540947
vertex 51.27791595 -60.58019257 -33.87423325

endloop
endfacet
facet normal 0.8103544712 0.5798003078 0.08459987491
outer loop
vertex 51.27791595 -60.58019257 -33.87423325
vertex 54.11688995 -64.65314484 -33.1540947
vertex 52.20926666 -61.4728775 -36.67737198

endloop
endfacet
facet normal 0.8943066597 0.4160656929 0.164636001
outer loop
vertex 51.27791595 -60.58019257 -33.87423325
vertex 52.20926666 -61.4728775 -36.67737198
vertex 49.96590424 -57.3438797 -34.92611694

endloop
endfacet
facet normal 0.892424345 0.4366188347 0.1137659475
outer loop
vertex 49.96590424 -57.3438797 -34.92611694
vertex 52.20926666 -61.4728775 -36.67737198
vertex 50.23851776 -57.16765594 -37.74092865

endloop
endfacet
facet normal 0.3902084529 -0.9205127954 -0.01983795874
outer loop
vertex 49.96591949 -57.34386444 -34.92612076
vertex 50.23853302 -57.16764069 -37.74093246
vertex 57.60781097 -54.1342392 -33.54344177

endloop
endfacet
facet normal 0 0.8071702719 -0.5903185606
outer loop
vertex 57.60781097 -54.1342392 -33.54344177
vertex 50.23853302 -57.16764069 -37.74093246
vertex 57.60778046 -54.1342392 -33.54344177

endloop
endfacet
facet normal 0 0.9899972081 -0.1410866827
outer loop
vertex 61.91187286 -58.58214569 -6.441635132
vertex 61.91190338 -58.58214569 -6.441635132
vertex 57.74074554 -59.06406403 -9.823228836

endloop
endfacet
facet normal 0.3307542503 0.7873995304 -0.520195663
outer loop
vertex 57.74074554 -59.06406403 -9.823228836
vertex 61.91190338 -58.58214569 -6.441635132
vertex 60.43039703 -60.06647491 -9.630386353

endloop
endfacet
facet normal -0.2168847471 -0.710688889 -0.6692400575
outer loop
vertex 57.74074554 -59.06406403 -9.823228836
vertex 60.43039703 -60.06647491 -9.630386353
vertex 58.5749588 -59.7498703 -9.365296364

endloop
endfacet
facet normal -0.1544891298 -0.0809128806 -0.9846756458
outer loop
vertex 58.5749588 -59.7498703 -9.365296364
vertex 60.43039703 -60.06647491 -9.630386353
vertex 61.08191681 -60.9157486 -9.662818909

endloop
endfacet
facet normal 0.2602995038 0.7230164409 -0.6399152279
outer loop
vertex 58.5749588 -59.7498703 -9.365296364
vertex 61.08191681 -60.9157486 -9.662818909
vertex 58.69634247 -61.21776581 -10.97444153

endloop
endfacet
facet normal 0.1874673963 0.8262358308 -0.5312159657
outer loop
vertex 58.69634247 -61.21776581 -10.97444153
vertex 61.08191681 -60.9157486 -9.662818909
vertex 61.1346817 -61.85895538 -11.11123085

endloop
endfacet
facet normal 0.1741944253 0.788320899 -0.5900902152
outer loop
vertex 58.69634247 -61.21776581 -10.97444153
vertex 61.1346817 -61.85895538 -11.11123085
vertex 57.86370087 -63.80417633 -14.67550755

endloop
endfacet
facet normal 0.264395088 0.7236151099 -0.6375550032
outer loop
vertex 57.86370087 -63.80417633 -14.67550755
vertex 61.1346817 -61.85895538 -11.11123085
vertex 60.56673431 -64.8491745 -14.74061203

endloop
endfacet
facet normal 0.3169965744 0.8465923667 -0.4275448322
outer loop
vertex 57.86370087 -63.80417633 -14.67550755
vertex 60.56673431 -64.8491745 -14.74061203
vertex 56.43831635 -66.1255188 -20.32888603

endloop
endfacet
facet normal 0.4538169205 0.7353997827 -0.5032268763
outer loop
vertex 56.43831635 -66.1255188 -20.32888603
vertex 60.56673431 -64.8491745 -14.74061203
vertex 59.23896027 -68.14876556 -20.75993538

endloop
endfacet
facet normal 0.561409533 0.8115791082 -0.1617367864
outer loop
vertex 56.43831635 -66.1255188 -20.32888603
vertex 59.23896027 -68.14876556 -20.75993538
vertex 55.1608963 -66.58111572 -27.04911804

endloop
endfacet
facet normal 0.6133362651 0.7620056272 -0.2077641338
outer loop
vertex 55.1608963 -66.58111572 -27.04911804
vertex 59.23896027 -68.14876556 -20.75993538
vertex 57.88619232 -69.11003876 -28.27902603

endloop
endfacet
facet normal 0.7011515498 0.7055462003 0.1029129922
outer loop
vertex 55.1608963 -66.58111572 -27.04911804
vertex 57.88619232 -69.11003876 -28.27902603
vertex 54.11690521 -64.65313721 -33.15409851

endloop
endfacet
facet normal 0.6638091803 0.731546402 0.1555550545
outer loop
vertex 54.11690521 -64.65313721 -33.15409851
vertex 57.88619232 -69.11003876 -28.27902603
vertex 56.76592255 -66.60850525 -35.26267624

endloop
endfacet
facet normal 0.6926586032 0.6804539561 0.2391790152
outer loop
vertex 54.11688995 -64.65314484 -33.1540947
vertex 56.76590729 -66.60851288 -35.26266861
vertex 52.20926666 -61.4728775 -36.67737198

endloop
endfacet
facet normal 0.6149371862 0.6631532907 0.4267084301
outer loop
vertex 52.20926666 -61.4728775 -36.67737198
vertex 56.76590729 -66.60851288 -35.26266861
vertex 54.76519012 -62.31302643 -39.05507278

endloop
endfacet
facet normal 0.6823159456 0.4539068937 0.5730737448
outer loop
vertex 52.20926666 -61.4728775 -36.67737198
vertex 54.76519012 -62.31302643 -39.05507278
vertex 50.23851776 -57.16765594 -37.74092865

endloop
endfacet
facet normal 0.4103958905 0.1305431128 0.9025152326
outer loop
vertex 50.23851776 -57.16765594 -37.74092865
vertex 54.76519012 -62.31302643 -39.05507278
vertex 53.15497589 -56.98638153 -39.0933342

endloop
endfacet
facet normal 0.2031203508 -0.9275414348 0.3137020767
outer loop
vertex 50.23853302 -57.16764069 -37.74093246
vertex 53.15499115 -56.98636627 -39.09333801
vertex 57.60778046 -54.1342392 -33.54344177

endloop
endfacet
facet normal 0 -0.886225462 0.4632542133
outer loop
vertex 57.60778046 -54.1342392 -33.54344177
vertex 53.15499115 -56.98636627 -39.09333801
vertex 57.60779572 -54.1342392 -33.54344177

endloop
endfacet
facet normal 0 -0.906591773 0.4220086634
outer loop
vertex 61.91190338 -58.58214569 -6.441635132
vertex 61.91188812 -58.58214569 -6.441635132
vertex 60.43039703 -60.06647491 -9.630386353

endloop
endfacet
facet normal 0.1116732806 0.8800612688 -0.4615423083
outer loop
vertex 60.43039703 -60.06647491 -9.630386353
vertex 61.91188812 -58.58214569 -6.441635132
vertex 65.27397919 -61.03142548 -10.29840088

endloop
endfacet
facet normal -0.1515590996 -0.07864074409 -0.9853149652
outer loop
vertex 60.43039703 -60.06647491 -9.630386353
vertex 65.27397919 -61.03142548 -10.29840088
vertex 61.08191681 -60.9157486 -9.662818909

endloop
endfacet
facet normal -0.151245892 -0.2917366624 -0.9444651604
outer loop
vertex 61.08191681 -60.9157486 -9.662818909
vertex 65.27397919 -61.03142548 -10.29840088
vertex 65.52022552 -62.88422394 -9.765522003

endloop
endfacet
facet normal 0.3403010666 0.7935906649 -0.5043896437
outer loop
vertex 61.08191681 -60.9157486 -9.662818909
vertex 65.52022552 -62.88422394 -9.765522003
vertex 61.1346817 -61.85895538 -11.11123085

endloop
endfacet
facet normal 0.3590884507 0.6178691387 -0.6994948983
outer loop
vertex 61.1346817 -61.85895538 -11.11123085
vertex 65.52022552 -62.88422394 -9.765522003
vertex 65.29921722 -63.89664459 -10.7732563

endloop
endfacet
facet normal 0.384252727 0.6821302176 -0.6221320033
outer loop
vertex 61.1346817 -61.85895538 -11.11123085
vertex 65.29921722 -63.89664459 -10.7732563
vertex 60.56673431 -64.8491745 -14.74061203

endloop
endfacet
facet normal 0.3458192647 0.7311610579 -0.5880583525
outer loop
vertex 60.56673431 -64.8491745 -14.74061203
vertex 65.29921722 -63.89664459 -10.7732563
vertex 64.8738327 -66.69543457 -14.50328159

endloop
endfacet
facet normal 0.3628197014 0.7810867429 -0.5081982017
outer loop
vertex 60.56673431 -64.8491745 -14.74061203
vertex 64.8738327 -66.69543457 -14.50328159
vertex 59.23896027 -68.14876556 -20.75993538

endloop
endfacet
facet normal 0.2939848602 0.8381367326 -0.4594560266
outer loop
vertex 59.23896027 -68.14876556 -20.75993538
vertex 64.8738327 -66.69543457 -14.50328159
vertex 63.60834503 -69.86782074 -21.10005569

endloop
endfacet
facet normal 0.3479411304 0.9200314879 -0.1802193075
outer loop
vertex 59.23896027 -68.14876556 -20.75993538
vertex 63.60834503 -69.86782074 -21.10005569
vertex 57.88619232 -69.11003876 -28.27902603

endloop
endfacet
facet normal 0.3187998235 0.9349939227 -0.155412212
outer loop
vertex 57.88619232 -69.11003876 -28.27902603
vertex 63.60834503 -69.86782074 -21.10005569
vertex 62.01590729 -70.68974304 -29.31151581

endloop
endfacet
facet normal 0.4000089467 0.8813226819 0.251521796
outer loop
vertex 57.88619232 -69.11003876 -28.27902603
vertex 62.01590729 -70.68974304 -29.31151581
vertex 56.76592255 -66.60850525 -35.26267624

endloop
endfacet
facet normal 0.3987777531 0.8815293312 0.2527497113
outer loop
vertex 56.76592255 -66.60850525 -35.26267624
vertex 62.01590729 -70.68974304 -29.31151581
vertex 60.52281952 -67.85810089 -36.8318634

endloop
endfacet
facet normal 0.4609954357 0.698243618 0.5476669073
outer loop
vertex 56.76590729 -66.60851288 -35.26266861
vertex 60.52281952 -67.85811615 -36.83185577
vertex 54.76519012 -62.31302643 -39.05507278

endloop
endfacet
facet normal 0.4399734139 0.6881546974 0.5769458413
outer loop
vertex 54.76519012 -62.31302643 -39.05507278
vertex 60.52281952 -67.85811615 -36.83185577
vertex 58.44541168 -62.98535919 -41.05964661

endloop
endfacet
facet normal 0.4942762852 0.1555603296 0.855273068
outer loop
vertex 54.76519012 -62.31302643 -39.05507278
vertex 58.44541168 -62.98535919 -41.05964661
vertex 53.15497589 -56.98638153 -39.0933342

endloop
endfacet
facet normal 0.4447554052 0.1005074456 0.8899948597
outer loop
vertex 53.15497589 -56.98638153 -39.0933342
vertex 58.44541168 -62.98535919 -41.05964661
vertex 57.08545685 -56.6240921 -41.09841919

endloop
endfacet
facet normal 0.2333781272 -0.9282076955 0.2897674739
outer loop
vertex 53.15499115 -56.98636627 -39.09333801
vertex 57.08547211 -56.62407684 -41.098423
vertex 57.60779572 -54.1342392 -33.54344177

endloop
endfacet
facet normal 0.07710805535 -0.9484290481 0.3074683547
outer loop
vertex 57.60779572 -54.1342392 -33.54344177
vertex 57.08547211 -56.62407684 -41.098423
vertex 57.60781097 -54.1342392 -33.54344559

endloop
endfacet
facet normal -0.5888197422 -0.8082643747 0
outer loop
vertex 61.91188812 -58.58214569 -6.441635132
vertex 61.91188812 -58.58214569 -6.441636086
vertex 65.27397919 -61.03142548 -10.29840088

endloop
endfacet
facet normal -0.1080366746 0.7939097285 -0.5983605981
outer loop
vertex 65.27397919 -61.03142548 -10.29840088
vertex 61.91188812 -58.58214569 -6.441636086
vertex 70.30892181 -61.40943146 -11.70902348

endloop
endfacet
facet normal -0.2781780958 -0.2994582057 -0.9126564264
outer loop
vertex 65.27397919 -61.03142548 -10.29840088
vertex 70.30892181 -61.40943146 -11.70902348
vertex 65.52022552 -62.88422394 -9.765522003

endloop
endfacet
facet normal -0.1520098597 -0.5702600479 -0.8072772026
outer loop
vertex 65.52022552 -62.88422394 -9.765522003
vertex 70.30892181 -61.40943146 -11.70902348
vertex 70.60121918 -64.04564667 -9.901842117

endloop
endfacet
facet normal 0.1370310783 0.6836234927 -0.7168551683
outer loop
vertex 65.52022552 -62.88422394 -9.765522003
vertex 70.60121918 -64.04564667 -9.901842117
vertex 65.29921722 -63.89664459 -10.7732563

endloop
endfacet
facet normal 0.163184762 0.2879504263 -0.943639338
outer loop
vertex 65.29921722 -63.89664459 -10.7732563
vertex 70.60121918 -64.04564667 -9.901842117
vertex 70.19625092 -65.73921967 -10.48866558

endloop
endfacet
facet normal 0.3136214912 0.7419993877 -0.5925188661
outer loop
vertex 65.29921722 -63.89664459 -10.7732563
vertex 70.19625092 -65.73921967 -10.48866558
vertex 64.8738327 -66.69543457 -14.50328159

endloop
endfacet
facet normal 0.2457064092 0.8177340031 -0.5205184817
outer loop
vertex 64.8738327 -66.69543457 -14.50328159
vertex 70.19625092 -65.73921967 -10.48866558
vertex 69.60042572 -68.07878113 -14.44536877

endloop
endfacet
facet normal 0.2548155189 0.8514604568 -0.4583493769
outer loop
vertex 64.8738327 -66.69543457 -14.50328159
vertex 69.60042572 -68.07878113 -14.44536877
vertex 63.60834503 -69.86782074 -21.10005569

endloop
endfacet
facet normal 0.0137640778 0.9624426961 -0.2711357474
outer loop
vertex 63.60834503 -69.86782074 -21.10005569
vertex 69.60042572 -68.07878113 -14.44536877
vertex 68.45537567 -70.06188965 -21.5428791

endloop
endfacet
facet normal 0.03017347679 0.9939780831 -0.1053432748
outer loop
vertex 63.60834503 -69.86782074 -21.10005569
vertex 68.45537567 -70.06188965 -21.5428791
vertex 62.01590729 -70.68974304 -29.31151581

endloop
endfacet
facet normal -0.1128460467 0.9935242534 0.01324311364
outer loop
vertex 62.01590729 -70.68974304 -29.31151581
vertex 68.45537567 -70.06188965 -21.5428791
vertex 66.83123016 -70.1335144 -30.00897408

endloop
endfacet
facet normal -0.05516728386 0.930770874 0.3614167571
outer loop
vertex 62.01590729 -70.68974304 -29.31151581
vertex 66.83123016 -70.1335144 -30.00897408
vertex 60.52281952 -67.85810089 -36.8318634

endloop
endfacet
facet normal -0.02305988967 0.9417914748 0.335405767
outer loop
vertex 60.52281952 -67.85810089 -36.8318634
vertex 66.83123016 -70.1335144 -30.00897408
vertex 64.93538666 -67.53340912 -37.44019699

endloop
endfacet
facet normal 0.05331607908 0.6672887206 0.7428883314
outer loop
vertex 60.52281952 -67.85811615 -36.83185577
vertex 64.93538666 -67.53342438 -37.44018936
vertex 58.44541168 -62.98535919 -41.05964661

endloop
endfacet
facet normal 0.1218065247 0.7186511159 0.6846194267
outer loop
vertex 58.44541168 -62.98535919 -41.05964661
vertex 64.93538666 -67.53342438 -37.44018936
vertex 62.78749847 -62.84862518 -41.97571564

endloop
endfacet
facet normal 0.2046759278 0.04971536621 0.977566421
outer loop
vertex 58.44541168 -62.98535919 -41.05964661
vertex 62.78749847 -62.84862518 -41.97571564
vertex 57.08545685 -56.6240921 -41.09841919

endloop
endfacet
facet normal 0.4079585373 0.2499505132 0.8781199455
outer loop
vertex 57.08545685 -56.6240921 -41.09841919
vertex 62.78749847 -62.84862518 -41.97571564
vertex 60.99768829 -55.94515228 -43.10922623

endloop
endfacet
facet normal 0.3018425703 -0.9114617705 0.2795147896
outer loop
vertex 57.08547211 -56.62407684 -41.098423
vertex 60.99770355 -55.94513702 -43.10923004
vertex 57.60781097 -54.1342392 -33.54344559

endloop
endfacet
facet normal -0.04192934558 0.9783514142 -0.2026585042
outer loop
vertex 57.60781097 -54.1342392 -33.54344559
vertex 60.99770355 -55.94513702 -43.10923004
vertex 57.60779572 -54.1342392 -33.54344177

endloop
endfacet
facet normal -nan(ind) -nan(ind) -nan(ind)
outer loop
vertex 61.91188812 -58.58214569 -6.441636086
vertex 61.91188812 -58.58214569 -6.441636086
vertex 70.30892181 -61.40943146 -11.70902348

endloop
endfacet
facet normal -0.1295581758 0.7727698088 -0.6213223934
outer loop
vertex 70.30892181 -61.40943146 -11.70902348
vertex 61.91188812 -58.58214569 -6.441636086
vertex 73.55605316 -60.2410965 -10.93299866

endloop
endfacet
facet normal 0.366949439 -0.4979553819 -0.7857406735
outer loop
vertex 70.30892181 -61.40943146 -11.70902348
vertex 73.55605316 -60.2410965 -10.93299866
vertex 70.60121918 -64.04564667 -9.901842117

endloop
endfacet
facet normal 0.2236064821 -0.4129536748 -0.8828756213
outer loop
vertex 70.60121918 -64.04564667 -9.901842117
vertex 73.55605316 -60.2410965 -10.93299866
vertex 73.93694305 -61.68148041 -10.16280937

endloop
endfacet
facet normal -0.3361396194 0.3791097701 -0.8621402979
outer loop
vertex 70.60121918 -64.04564667 -9.901842117
vertex 73.93694305 -61.68148041 -10.16280937
vertex 70.19625092 -65.73921967 -10.48866558

endloop
endfacet
facet normal -0.5260004997 0.5378108621 -0.6588497162
outer loop
vertex 70.19625092 -65.73921967 -10.48866558
vertex 73.93694305 -61.68148041 -10.16280937
vertex 73.5996933 -63.55335236 -11.42154789

endloop
endfacet
facet normal -0.5722159147 0.7407887578 -0.3518535793
outer loop
vertex 70.19625092 -65.73921967 -10.48866558
vertex 73.5996933 -63.55335236 -11.42154789
vertex 69.60042572 -68.07878113 -14.44536877

endloop
endfacet
facet normal -0.5775333047 0.7403053641 -0.3440974951
outer loop
vertex 69.60042572 -68.07878113 -14.44536877
vertex 73.5996933 -63.55335236 -11.42154789
vertex 72.91512299 -66.03355408 -15.60857201

endloop
endfacet
facet normal -0.5549827218 0.8200650811 -0.13959755
outer loop
vertex 69.60042572 -68.07878113 -14.44536877
vertex 72.91512299 -66.03355408 -15.60857201
vertex 68.45537567 -70.06188965 -21.5428791

endloop
endfacet
facet normal -0.5734006166 0.8105436563 -0.1192927957
outer loop
vertex 68.45537567 -70.06188965 -21.5428791
vertex 72.91512299 -66.03355408 -15.60857201
vertex 72.02675629 -67.6839447 -22.55219078

endloop
endfacet
facet normal -0.532941103 0.840788126 0.09512682259
outer loop
vertex 68.45537567 -70.06188965 -21.5428791
vertex 72.02675629 -67.6839447 -22.55219078
vertex 66.83123016 -70.1335144 -30.00897408

endloop
endfacet
facet normal -0.5249667764 0.8465961814 0.08766274899
outer loop
vertex 66.83123016 -70.1335144 -30.00897408
vertex 72.02675629 -67.6839447 -22.55219078
vertex 70.7889328 -67.63610077 -30.42692375

endloop
endfacet
facet normal -0.4599125981 0.7950212955 0.3955016732
outer loop
vertex 66.83123016 -70.1335144 -30.00897408
vertex 70.7889328 -67.63610077 -30.42692375
vertex 64.93538666 -67.53340912 -37.44019699

endloop
endfacet
facet normal -0.4220211208 0.8301313519 0.364390105
outer loop
vertex 64.93538666 -67.53340912 -37.44019699
vertex 70.7889328 -67.63610077 -30.42692375
vertex 69.13002777 -65.60947418 -36.96513367

endloop
endfacet
facet normal -0.3446443975 0.5665965676 0.7484574914
outer loop
vertex 64.93538666 -67.53342438 -37.44018936
vertex 69.13002777 -65.60948944 -36.96512604
vertex 62.78749847 -62.84862518 -41.97571564

endloop
endfacet
facet normal -0.3484446704 0.5615586042 0.7504920363
outer loop
vertex 62.78749847 -62.84862518 -41.97571564
vertex 69.13002777 -65.60948944 -36.96512604
vertex 67.3899765 -61.47757721 -40.86473083

endloop
endfacet
facet normal -0.2591321468 0.09070165455 0.9615736008
outer loop
vertex 62.78749847 -62.84862518 -41.97571564
vertex 67.3899765 -61.47757721 -40.86473083
vertex 60.99768829 -55.94515228 -43.10922623

endloop
endfacet
facet normal -0.2498987466 0.1019060016 0.9628944993
outer loop
vertex 60.99768829 -55.94515228 -43.10922623
vertex 67.3899765 -61.47757721 -40.86473083
vertex 65.59908295 -55.10871124 -42.0035553

endloop
endfacet
facet normal 0.121389553 -0.9665360451 0.2259925902
outer loop
vertex 60.99770355 -55.94513702 -43.10923004
vertex 65.59911346 -55.10871124 -42.00356293
vertex 57.60779572 -54.1342392 -33.54344177

endloop
endfacet
facet normal -nan(ind) -nan(ind) -nan(ind)
outer loop
vertex 57.60779572 -54.1342392 -33.54344177
vertex 65.59911346 -55.10871124 -42.00356293
vertex 57.60779572 -54.1342392 -33.54344177

endloop
endfacet
facet normal 0.1410462856 0.9900029898 0
outer loop
vertex 61.91188812 -58.58214569 -6.441636086
vertex 61.91188812 -58.58214569 -6.441635132
vertex 73.55605316 -60.2410965 -10.93299866

endloop
endfacet
facet normal -0.1974066794 0.6354320049 -0.7464963198
outer loop
vertex 73.55605316 -60.2410965 -10.93299866
vertex 61.91188812 -58.58214569 -6.441635132
vertex 74.53261566 -58.56324005 -9.763021469

endloop
endfacet
facet normal 0.8212612867 -0.08454156667 -0.5642540455
outer loop
vertex 73.55605316 -60.2410965 -10.93299866
vertex 74.53261566 -58.56324005 -9.763021469
vertex 73.93694305 -61.68148041 -10.16280937

endloop
endfacet
facet normal -0.6275280118 0.2157883644 -0.748093605
outer loop
vertex 73.93694305 -61.68148041 -10.16280937
vertex 74.53261566 -58.56324005 -9.763021469
vertex 75.30522919 -58.42794037 -10.37209034

endloop
endfacet
facet normal -0.888720572 0.3551026285 -0.2899615765
outer loop
vertex 73.93694305 -61.68148041 -10.16280937
vertex 75.30522919 -58.42794037 -10.37209034
vertex 73.5996933 -63.55335236 -11.42154789

endloop
endfacet
facet normal -0.897978425 0.3526916802 -0.2631413639
outer loop
vertex 73.5996933 -63.55335236 -11.42154789
vertex 75.30522919 -58.42794037 -10.37209034
vertex 75.34551239 -59.95787811 -12.56015301

endloop
endfacet
facet normal -0.9069775939 0.4103722572 -0.09479667991
outer loop
vertex 73.5996933 -63.55335236 -11.42154789
vertex 75.34551239 -59.95787811 -12.56015301
vertex 72.91512299 -66.03355408 -15.60857201

endloop
endfacet
facet normal -0.9029672742 0.4157370329 -0.1086863056
outer loop
vertex 72.91512299 -66.03355408 -15.60857201
vertex 75.34551239 -59.95787811 -12.56015301
vertex 74.73696136 -62.46743011 -17.10361481

endloop
endfacet
facet normal -0.8896113038 0.456687957 0.005269234069
outer loop
vertex 72.91512299 -66.03355408 -15.60857201
vertex 74.73696136 -62.46743011 -17.10361481
vertex 72.02675629 -67.6839447 -22.55219078

endloop
endfacet
facet normal -0.8755645156 0.4823837578 -0.02631927654
outer loop
vertex 72.02675629 -67.6839447 -22.55219078
vertex 74.73696136 -62.46743011 -17.10361481
vertex 73.93828583 -64.2661438 -23.50114441

endloop
endfacet
facet normal -0.8479968905 0.5121467113 0.1364076138
outer loop
vertex 72.02675629 -67.6839447 -22.55219078
vertex 73.93828583 -64.2661438 -23.50114441
vertex 70.7889328 -67.63610077 -30.42692375

endloop
endfacet
facet normal -0.8119300008 0.5770161748 0.08844267577
outer loop
vertex 70.7889328 -67.63610077 -30.42692375
vertex 73.93828583 -64.2661438 -23.50114441
vertex 72.96831512 -64.58885956 -30.30030632

endloop
endfacet
facet normal -0.7659973502 0.5329009295 0.359533906
outer loop
vertex 70.7889328 -67.63610077 -30.42692375
vertex 72.96831512 -64.58885956 -30.30030632
vertex 69.13002777 -65.60947418 -36.96513367

endloop
endfacet
facet normal -0.7126458287 0.6271384358 0.3143776655
outer loop
vertex 69.13002777 -65.60947418 -36.96513367
vertex 72.96831512 -64.58885956 -30.30030632
vertex 71.76119232 -63.22753143 -35.75232315

endloop
endfacet
facet normal -0.64182055 0.3658037782 0.6739836335
outer loop
vertex 69.13002777 -65.60948944 -36.96512604
vertex 71.76119232 -63.22754669 -35.75231934
vertex 67.3899765 -61.47757721 -40.86473083

endloop
endfacet
facet normal -0.6468696594 0.3553805649 0.6747328043
outer loop
vertex 67.3899765 -61.47757721 -40.86473083
vertex 71.76119232 -63.22754669 -35.75231934
vertex 70.61800385 -59.88533783 -38.60863495

endloop
endfacet
facet normal -0.5685658455 -0.0127988793 0.822538197
outer loop
vertex 67.3899765 -61.47757721 -40.86473083
vertex 70.61800385 -59.88533783 -38.60863495
vertex 65.59908295 -55.10871124 -42.0035553

endloop
endfacet
facet normal -0.6115213037 -0.08331272006 0.7868294716
outer loop
vertex 65.59908295 -55.10871124 -42.0035553
vertex 70.61800385 -59.88533783 -38.60863495
vertex 69.29033661 -54.57675934 -39.07839966

endloop
endfacet
facet normal 0.02989703044 -0.9893860817 0.1422019601
outer loop
vertex 65.59911346 -55.10871124 -42.00356293
vertex 69.29036713 -54.57674408 -39.07840347
vertex 57.60779572 -54.1342392 -33.54344177

endloop
endfacet
facet normal 0 0.9968512058 -0.07929497957
outer loop
vertex 57.60779572 -54.1342392 -33.54344177
vertex 69.29036713 -54.57674408 -39.07840347
vertex 57.60778046 -54.1342392 -33.54344177

endloop
endfacet
facet normal 0.0004665456945 0.9999719262 0.007464731112
outer loop
vertex 61.91188812 -58.58214569 -6.441635132
vertex 61.91190338 -58.58214569 -6.441636086
vertex 74.53261566 -58.56324005 -9.763021469

endloop
endfacet
facet normal -0.2144547403 0.5431285501 -0.8118008375
outer loop
vertex 74.53261566 -58.56324005 -9.763021469
vertex 61.91190338 -58.58214569 -6.441636086
vertex 74.01604462 -57.03928375 -8.606967926

endloop
endfacet
facet normal -0.619330287 0.3303651512 -0.7122421861
outer loop
vertex 74.53261566 -58.56324005 -9.763021469
vertex 74.01604462 -57.03928375 -8.606967926
vertex 75.30522919 -58.42794037 -10.37209034

endloop
endfacet
facet normal -0.8122720718 -0.01286167838 -0.5831369758
outer loop
vertex 75.30522919 -58.42794037 -10.37209034
vertex 74.01604462 -57.03928375 -8.606967926
vertex 75.3731308 -55.26537323 -10.53642654

endloop
endfacet
facet normal -0.9992848039 0.01978038624 -0.0322281234
outer loop
vertex 75.30522919 -58.42794037 -10.37209034
vertex 75.3731308 -55.26537323 -10.53642654
vertex 75.34551239 -59.95787811 -12.56015301

endloop
endfacet
facet normal -0.992115736 0.05450803041 -0.1128504947
outer loop
vertex 75.34551239 -59.95787811 -12.56015301
vertex 75.3731308 -55.26537323 -10.53642654
vertex 75.68663788 -56.05683136 -13.67488098

endloop
endfacet
facet normal -0.9914796948 0.1076553836 0.07333597541
outer loop
vertex 75.34551239 -59.95787811 -12.56015301
vertex 75.68663788 -56.05683136 -13.67488098
vertex 74.73696136 -62.46743011 -17.10361481

endloop
endfacet
facet normal -0.9909166098 0.09695320576 0.09318953753
outer loop
vertex 74.73696136 -62.46743011 -17.10361481
vertex 75.68663788 -56.05683136 -13.67488098
vertex 74.99965668 -58.47681427 -18.46207047

endloop
endfacet
facet normal -0.9905400872 0.09792835265 0.09612695128
outer loop
vertex 74.73696136 -62.46743011 -17.10361481
vertex 74.99965668 -58.47681427 -18.46207047
vertex 73.93828583 -64.2661438 -23.50114441

endloop
endfacet
facet normal -0.9892638326 0.06943869591 0.1285895705
outer loop
vertex 73.93828583 -64.2661438 -23.50114441
vertex 74.99965668 -58.47681427 -18.46207047
vertex 74.11949921 -60.69193268 -24.03711891

endloop
endfacet
facet normal -0.9879617691 0.07072178274 0.1375862062
outer loop
vertex 73.93828583 -64.2661438 -23.50114441
vertex 74.11949921 -60.69193268 -24.03711891
vertex 72.96831512 -64.58885956 -30.30030632

endloop
endfacet
facet normal -0.9880356193 0.08416277915 0.1292368919
outer loop
vertex 72.96831512 -64.58885956 -30.30030632
vertex 74.11949921 -60.69193268 -24.03711891
vertex 73.32479095 -61.63799286 -29.49668312

endloop
endfacet
facet normal -0.9718839526 0.05506120995 0.2289317101
outer loop
vertex 72.96831512 -64.58885956 -30.30030632
vertex 73.32479095 -61.63799286 -29.49668312
vertex 71.76119232 -63.22753143 -35.75232315

endloop
endfacet
facet normal -0.9640018344 0.1807329804 0.1950287521
outer loop
vertex 71.76119232 -63.22753143 -35.75232315
vertex 73.32479095 -61.63799286 -29.49668312
vertex 72.57826996 -60.94103241 -33.8325119

endloop
endfacet
facet normal -0.9242935181 0.009931933135 0.3815531731
outer loop
vertex 71.76119232 -63.22754669 -35.75231934
vertex 72.57826996 -60.94103241 -33.83250809
vertex 70.61800385 -59.88533783 -38.60863495

endloop
endfacet
facet normal -0.9119100571 0.1034412906 0.3971395195
outer loop
vertex 70.61800385 -59.88533783 -38.60863495
vertex 72.57826996 -60.94103241 -33.83250809
vertex 71.95763397 -58.53025055 -35.88553619

endloop
endfacet
facet normal -0.8488835096 -0.1679536104 0.5011870265
outer loop
vertex 70.61800385 -59.88533783 -38.60863495
vertex 71.95763397 -58.53025055 -35.88553619
vertex 69.29033661 -54.57675934 -39.07839966

endloop
endfacet
facet normal -0.8679079413 -0.2299782634 0.4402792752
outer loop
vertex 69.29033661 -54.57675934 -39.07839966
vertex 71.95763397 -58.53025055 -35.88553619
vertex 70.97240448 -54.47576141 -35.70983887

endloop
endfacet
facet normal -0.01912653446 -0.9990364909 0.03950002417
outer loop
vertex 69.29036713 -54.57674408 -39.07840347
vertex 70.97246552 -54.47576141 -35.7098465
vertex 57.60778046 -54.1342392 -33.54344177

endloop
endfacet
facet normal 0 -0.988529861 0.1510253996
outer loop
vertex 57.60778046 -54.1342392 -33.54344177
vertex 70.97246552 -54.47576141 -35.7098465
vertex 57.60779572 -54.1342392 -33.54344177

endloop
endfacet
facet normal 0 -0.814409554 -0.5802904963
outer loop
vertex 61.91190338 -58.58214569 -6.441636086
vertex 61.91188812 -58.58214569 -6.441636086
vertex 74.01604462 -57.03928375 -8.606967926

endloop
endfacet
facet normal -0.2145355344 0.55988729 -0.8003128767
outer loop
vertex 74.01604462 -57.03928375 -8.606967926
vertex 61.91188812 -58.58214569 -6.441636086
vertex 72.64058685 -55.48636627 -7.151857853

endloop
endfacet
facet normal -0.7716201544 -0.09396070242 -0.6291054487
outer loop
vertex 74.01604462 -57.03928375 -8.606967926
vertex 72.64058685 -55.48636627 -7.151857853
vertex 75.3731308 -55.26537323 -10.53642654

endloop
endfacet
facet normal -0.7476518154 -0.239815563 -0.6192780137
outer loop
vertex 75.3731308 -55.26537323 -10.53642654
vertex 72.64058685 -55.48636627 -7.151857853
vertex 74.46755219 -52.13219452 -10.65644932

endloop
endfacet
facet normal -0.9600987434 -0.2784797847 -0.02567910776
outer loop
vertex 75.3731308 -55.26537323 -10.53642654
vertex 74.46755219 -52.13219452 -10.65644932
vertex 75.68663788 -56.05683136 -13.67488098

endloop
endfacet
facet normal -0.9703221917 -0.2121437192 -0.1160598919
outer loop
vertex 75.68663788 -56.05683136 -13.67488098
vertex 74.46755219 -52.13219452 -10.65644932
vertex 74.98348236 -52.27561188 -14.70774937

endloop
endfacet
facet normal -0.9712027311 -0.1252406687 0.2026822418
outer loop
vertex 75.68663788 -56.05683136 -13.67488098
vertex 74.98348236 -52.27561188 -14.70774937
vertex 74.99965668 -58.47681427 -18.46207047

endloop
endfacet
facet normal -0.9525126219 -0.1595142782 0.2593742013
outer loop
vertex 74.99965668 -58.47681427 -18.46207047
vertex 74.98348236 -52.27561188 -14.70774937
vertex 74.11071014 -54.84616852 -19.49375725

endloop
endfacet
facet normal -0.9600943923 -0.1725243032 0.2201229334
outer loop
vertex 74.99965668 -58.47681427 -18.46207047
vertex 74.11071014 -54.84616852 -19.49375725
vertex 74.11949921 -60.69193268 -24.03711891

endloop
endfacet
facet normal -0.8987581134 -0.2698972523 0.3455275595
outer loop
vertex 74.11949921 -60.69193268 -24.03711891
vertex 74.11071014 -54.84616852 -19.49375725
vertex 73.11077118 -57.5646286 -24.21815109

endloop
endfacet
facet normal -0.9380229712 -0.291733712 0.1870941222
outer loop
vertex 74.11949921 -60.69193268 -24.03711891
vertex 73.11077118 -57.5646286 -24.21815109
vertex 73.32479095 -61.63799286 -29.49668312

endloop
endfacet
facet normal -0.8667280078 -0.4112591147 0.282220751
outer loop
vertex 73.32479095 -61.63799286 -29.49668312
vertex 73.11077118 -57.5646286 -24.21815109
vertex 72.46935272 -59.08042145 -28.39686203

endloop
endfacet
facet normal -0.9291710258 -0.3550363481 0.1029098257
outer loop
vertex 73.32479095 -61.63799286 -29.49668312
vertex 72.46935272 -59.08042145 -28.39686203
vertex 72.57826996 -60.94103241 -33.8325119

endloop
endfacet
facet normal -0.9325606823 -0.346873194 0.1000476778
outer loop
vertex 72.57826996 -60.94103241 -33.8325119
vertex 72.46935272 -59.08042145 -28.39686203
vertex 72.1007309 -59.0096817 -31.58758545

endloop
endfacet
facet normal -0.9694113135 -0.2453927249 0.004901663866
outer loop
vertex 72.57826996 -60.94103241 -33.83250809
vertex 72.1007309 -59.00969696 -31.58758163
vertex 71.95763397 -58.53025055 -35.88553619

endloop
endfacet
facet normal -0.9946974516 -0.1004833579 0.02190850489
outer loop
vertex 71.95763397 -58.53025055 -35.88553619
vertex 72.1007309 -59.00969696 -31.58758163
vertex 71.91768646 -57.50957489 -33.01791763

endloop
endfacet
facet normal -0.96852988 -0.2384431064 0.07137724757
outer loop
vertex 71.95763397 -58.53025055 -35.88553619
vertex 71.91768646 -57.50957489 -33.01791763
vertex 70.97240448 -54.47576141 -35.70983887

endloop
endfacet
facet normal -0.9690389037 -0.2351597548 0.07525634021
outer loop
vertex 70.97240448 -54.47576141 -35.70983887
vertex 71.91768646 -57.50957489 -33.01791763
vertex 71.24861908 -54.59603119 -32.52897644

endloop
endfacet
facet normal -0.03120821528 -0.9988980293 -0.03505422175
outer loop
vertex 70.97246552 -54.47576141 -35.7098465
vertex 71.2486496 -54.59601593 -32.52898026
vertex 57.60779572 -54.1342392 -33.54344177

endloop
endfacet
facet normal 0.03412363306 0.999417603 0
outer loop
vertex 57.60779572 -54.1342392 -33.54344177
vertex 71.2486496 -54.59601593 -32.52898026
vertex 57.60779572 -54.1342392 -33.54344559

endloop
endfacet
facet normal 0.04801462591 0.06230634451 0.9969015121
outer loop
vertex 61.91188812 -58.58214569 -6.441636086
vertex 61.91188812 -58.58216095 -6.441635132
vertex 72.64058685 -55.48636627 -7.151857853

endloop
endfacet
facet normal -0.2080887407 0.5329959393 -0.8201307654
outer loop
vertex 72.64058685 -55.48636627 -7.151857853
vertex 61.91188812 -58.58216095 -6.441635132
vertex 70.08742523 -53.44557953 -5.177763939

endloop
endfacet
facet normal -0.7166959047 -0.2779240608 -0.63961339
outer loop
vertex 72.64058685 -55.48636627 -7.151857853
vertex 70.08742523 -53.44557953 -5.177763939
vertex 74.46755219 -52.13219452 -10.65644932

endloop
endfacet
facet normal -0.6734026074 -0.3855213523 -0.6307949424
outer loop
vertex 74.46755219 -52.13219452 -10.65644932
vertex 70.08742523 -53.44557953 -5.177763939
vertex 72.28151703 -48.4262619 -10.5877018

endloop
endfacet
facet normal -0.8584483266 -0.5046802163 -0.09145698696
outer loop
vertex 74.46755219 -52.13219452 -10.65644932
vertex 72.28151703 -48.4262619 -10.5877018
vertex 74.98348236 -52.27561188 -14.70774937

endloop
endfacet
facet normal -0.884629488 -0.4313305914 -0.1771571189
outer loop
vertex 74.98348236 -52.27561188 -14.70774937
vertex 72.28151703 -48.4262619 -10.5877018
vertex 73.26714325 -48.40196991 -15.56854534

endloop
endfacet
facet normal -0.8872339725 -0.3190797865 0.3331724405
outer loop
vertex 74.98348236 -52.27561188 -14.70774937
vertex 73.26714325 -48.40196991 -15.56854534
vertex 74.11071014 -54.84616852 -19.49375725

endloop
endfacet
facet normal -0.8076342344 -0.3802507818 0.4507063329
outer loop
vertex 74.11071014 -54.84616852 -19.49375725
vertex 73.26714325 -48.40196991 -15.56854534
vertex 72.47173309 -51.85605621 -19.90799904

endloop
endfacet
facet normal -0.8250192404 -0.3964270353 0.4027267992
outer loop
vertex 74.11071014 -54.84616852 -19.49375725
vertex 72.47173309 -51.85605621 -19.90799904
vertex 73.11077118 -57.5646286 -24.21815109

endloop
endfacet
facet normal -0.5699890256 -0.5347879529 0.6237903237
outer loop
vertex 73.11077118 -57.5646286 -24.21815109
vertex 72.47173309 -51.85605621 -19.90799904
vertex 71.42870331 -55.21367645 -23.73962402

endloop
endfacet
facet normal -0.7354272604 -0.5929433703 0.3279709816
outer loop
vertex 73.11077118 -57.5646286 -24.21815109
vertex 71.42870331 -55.21367645 -23.73962402
vertex 72.46935272 -59.08042145 -28.39686203

endloop
endfacet
facet normal -0.4645397663 -0.7295656204 0.5019329786
outer loop
vertex 72.46935272 -59.08042145 -28.39686203
vertex 71.42870331 -55.21367645 -23.73962402
vertex 70.88817596 -56.98303986 -26.81167412

endloop
endfacet
facet normal -0.7683384418 -0.6356729269 0.0746723935
outer loop
vertex 72.46935272 -59.08042145 -28.39686203
vertex 70.88817596 -56.98303986 -26.81167412
vertex 72.1007309 -59.0096817 -31.58758545

endloop
endfacet
facet normal -0.6527850628 -0.7426627874 0.1494109929
outer loop
vertex 72.1007309 -59.0096817 -31.58758545
vertex 70.88817596 -56.98303986 -26.81167412
vertex 70.8002243 -57.30861664 -28.81425285

endloop
endfacet
facet normal -0.9163882136 -0.3290954828 -0.2278790772
outer loop
vertex 72.1007309 -59.00969696 -31.58758163
vertex 70.80019379 -57.3086319 -28.81425095
vertex 71.91768646 -57.50957489 -33.01791763

endloop
endfacet
facet normal -0.9503029585 -0.194186002 -0.2433438003
outer loop
vertex 71.91768646 -57.50957489 -33.01791763
vertex 70.80019379 -57.3086319 -28.81425095
vertex 70.8925705 -56.6687851 -29.68559074

endloop
endfacet
facet normal -0.9523672462 -0.1770319641 -0.2483070344
outer loop
vertex 71.91768646 -57.50957489 -33.01791763
vertex 70.8925705 -56.6687851 -29.68559074
vertex 71.24861908 -54.59603119 -32.52897644

endloop
endfacet
facet normal -0.9791969657 -0.08472494036 -0.1843772531
outer loop
vertex 71.24861908 -54.59603119 -32.52897644
vertex 70.8925705 -56.6687851 -29.68559074
vertex 70.64183807 -54.82276154 -29.20227623

endloop
endfacet
facet normal -0.02831121162 -0.9969220757 -0.07310879976
outer loop
vertex 71.2486496 -54.59601593 -32.52898026
vertex 70.64186859 -54.82274628 -29.20227814
vertex 57.60779572 -54.1342392 -33.54344559

endloop
endfacet
facet normal 0.2555398345 -0.4747106731 -0.842228651
outer loop
vertex 57.60779572 -54.1342392 -33.54344559
vertex 70.64186859 -54.82274628 -29.20227814
vertex 57.60778046 -54.13425446 -33.54344177

endloop
endfacet
facet normal 0.1527770162 0 -0.9882606268
outer loop
vertex 61.91188812 -58.58216095 -6.441635132
vertex 61.91188812 -58.58214569 -6.441635132
vertex 70.08742523 -53.44557953 -5.177763939

endloop
endfacet
facet normal -0.1451185048 0.4480343461 -0.8821597695
outer loop
vertex 70.08742523 -53.44557953 -5.177763939
vertex 61.91188812 -58.58214569 -6.441635132
vertex 59.97338104 -48.77759552 -1.143175006

endloop
endfacet
facet normal -0.5120911598 -0.5161391497 -0.6865589023
outer loop
vertex 70.08742523 -53.44557953 -5.177763939
vertex 59.97338104 -48.77759552 -1.143175006
vertex 72.28151703 -48.4262619 -10.5877018

endloop
endfacet
facet normal -0.50443995 -0.5355300307 -0.6773092747
outer loop
vertex 72.28151703 -48.4262619 -10.5877018
vertex 59.97338104 -48.77759552 -1.143175006
vertex 59.6840744 -40.71994781 -7.298670769

endloop
endfacet
facet normal -0.5395203829 -0.834645927 -0.1108326912
outer loop
vertex 72.28151703 -48.4262619 -10.5877018
vertex 59.6840744 -40.71994781 -7.298670769
vertex 73.26714325 -48.40196991 -15.56854534

endloop
endfacet
facet normal -0.3967896402 -0.899340868 0.1836950332
outer loop
vertex 73.26714325 -48.40196991 -15.56854534
vertex 59.6840744 -40.71994781 -7.298670769
vertex 60.04387665 -42.49796295 -15.22635269

endloop
endfacet
facet normal -0.3040937185 -0.7174096107 0.6267778873
outer loop
vertex 73.26714325 -48.40196991 -15.56854534
vertex 60.04387665 -42.49796295 -15.22635269
vertex 72.47173309 -51.85605621 -19.90799904

endloop
endfacet
facet normal -0.06134809181 -0.5105414987 0.8576618433
outer loop
vertex 72.47173309 -51.85605621 -19.90799904
vertex 60.04387665 -42.49796295 -15.22635269
vertex 60.93518829 -49.00356293 -19.0351944

endloop
endfacet
facet normal -0.1291017085 -0.7281165123 0.6731857657
outer loop
vertex 72.47173309 -51.85605621 -19.90799904
vertex 60.93518829 -49.00356293 -19.0351944
vertex 71.42870331 -55.21367645 -23.73962402

endloop
endfacet
facet normal 0.06054182723 -0.5357197523 0.842222631
outer loop
vertex 71.42870331 -55.21367645 -23.73962402
vertex 60.93518829 -49.00356293 -19.0351944
vertex 61.27251434 -53.06529999 -21.64302635

endloop
endfacet
facet normal -0.07670486718 -0.8580989242 0.5077228546
outer loop
vertex 71.42870331 -55.21367645 -23.73962402
vertex 61.27251434 -53.06529999 -21.64302635
vertex 70.88817596 -56.98303986 -26.81167412

endloop
endfacet
facet normal -0.1168930307 -0.8840172291 0.4526030421
outer loop
vertex 70.88817596 -56.98303986 -26.81167412
vertex 61.27251434 -53.06529999 -21.64302635
vertex 61.2687149 -53.96945953 -23.40999794

endloop
endfacet
facet normal -0.2408566773 -0.9562517405 0.1660444736
outer loop
vertex 70.88817596 -56.98303986 -26.81167412
vertex 61.2687149 -53.96945953 -23.40999794
vertex 70.8002243 -57.30861664 -28.81425285

endloop
endfacet
facet normal 0.08755642176 -0.7709900737 0.6307995915
outer loop
vertex 70.8002243 -57.30861664 -28.81425285
vertex 61.2687149 -53.96945953 -23.40999794
vertex 61.42694855 -54.37384796 -23.92622185

endloop
endfacet
facet normal -0.4964089394 -0.6737570763 -0.5473842621
outer loop
vertex 70.80019379 -57.3086319 -28.81425095
vertex 61.42694855 -54.37384796 -23.92622185
vertex 70.8925705 -56.6687851 -29.68559074

endloop
endfacet
facet normal 0.2684442997 -0.6581180096 0.7034333348
outer loop
vertex 70.8925705 -56.6687851 -29.68559074
vertex 61.42694855 -54.37384796 -23.92622185
vertex 61.3351059 -55.56806183 -25.00845528

endloop
endfacet
facet normal -0.4160967767 0.1770032644 -0.8919266462
outer loop
vertex 70.8925705 -56.6687851 -29.68559074
vertex 61.3351059 -55.56806183 -25.00845528
vertex 70.64183807 -54.82276154 -29.20227623

endloop
endfacet
facet normal 0.1133278236 -0.9906900525 0.07543242723
outer loop
vertex 70.64183807 -54.82276154 -29.20227623
vertex 61.3351059 -55.56806183 -25.00845528
vertex 60.76836395 -55.72013092 -26.15419197

endloop
endfacet
facet normal 0.0212276727 -0.9756141901 -0.2184635103
outer loop
vertex 70.64186859 -54.82274628 -29.20227814
vertex 60.76837921 -55.72011566 -26.15419388
vertex 57.60778046 -54.13425446 -33.54344177

endloop
endfacet
facet normal -0.6435129642 0.6435129642 0.4144659936
outer loop
vertex 57.60778046 -54.13425446 -33.54344177
vertex 60.76837921 -55.72011566 -26.15419388
vertex 57.60779572 -54.1342392 -33.54344177

endloop
endfacet
endsolid
