solid 
facet normal -0.396305 0.79261 -0.46337
outer loop
vertex 17.50849152 -76.30564117 -13.38703918
vertex 17.50850677 -76.30563354 -13.38703918
vertex 18.35845184 -85.44934845 -29.75458717

endloop
endfacet
facet normal 0.7800483108 -0.5281384587 0.3355509043
outer loop
vertex 18.35845184 -85.44934845 -29.75458717
vertex 17.50850677 -76.30563354 -13.38703918
vertex 12.68952179 -89.15637207 -22.4107914

endloop
endfacet
facet normal 0.4353078902 0.6225878596 0.6503009796
outer loop
vertex 18.35845184 -85.44934845 -29.75458717
vertex 12.68952179 -89.15637207 -22.4107914
vertex 24.00814056 -91.59072113 -27.65680504

endloop
endfacet
facet normal 0.4450095296 0.5556542873 0.7022926211
outer loop
vertex 24.00814056 -91.59072113 -27.65680504
vertex 12.68952179 -89.15637207 -22.4107914
vertex 16.46842194 -94.20845795 -20.8080883

endloop
endfacet
facet normal 0.2784542441 0.7541149259 0.594788909
outer loop
vertex 24.00814056 -91.59072113 -27.65680504
vertex 16.46842194 -94.20845795 -20.8080883
vertex 28.48291779 -96.44506073 -23.59703064

endloop
endfacet
facet normal 0.2702394128 0.8175275326 0.5085462928
outer loop
vertex 28.48291779 -96.44506073 -23.59703064
vertex 16.46842194 -94.20845795 -20.8080883
vertex 19.90239716 -97.45397186 -17.41547394

endloop
endfacet
facet normal 0.1795704216 0.9004243016 0.396220237
outer loop
vertex 28.48293304 -96.4450531 -23.59703255
vertex 19.90239716 -97.45396423 -17.41547394
vertex 32.25823212 -99.92178345 -17.40703964

endloop
endfacet
facet normal 0.1876564175 0.94052279 0.2831994593
outer loop
vertex 32.25823212 -99.92178345 -17.40703964
vertex 19.90239716 -97.45396423 -17.41547394
vertex 23.60619354 -99.70333099 -12.39943504

endloop
endfacet
facet normal 0.1362607181 0.9716834426 0.1930396706
outer loop
vertex 32.25823212 -99.92178345 -17.40703964
vertex 23.60619354 -99.70333099 -12.39943504
vertex 35.52857208 -101.9285583 -9.614179611

endloop
endfacet
facet normal 0.09716033936 0.9377899766 0.3333315551
outer loop
vertex 35.52857208 -101.9285583 -9.614179611
vertex 23.60619354 -99.70333099 -12.39943504
vertex 26.92386627 -102.2962418 -6.071622849

endloop
endfacet
facet normal 0.01519762352 0.9900807142 0.1396752
outer loop
vertex 35.52857208 -101.9285583 -9.614179611
vertex 26.92386627 -102.2962418 -6.071622849
vertex 38.9779129 -103.224411 -0.8039050102

endloop
endfacet
facet normal 0.00574630592 0.9869775176 0.1607557237
outer loop
vertex 38.9779129 -103.224411 -0.8039050102
vertex 26.92386627 -102.2962418 -6.071622849
vertex 30.75992584 -103.4948273 1.150102019

endloop
endfacet
facet normal -0.04863900691 0.9965906739 -0.06664276868
outer loop
vertex 38.9779129 -103.224411 -0.8039050102
vertex 30.75992584 -103.4948273 1.150102019
vertex 41.57930756 -102.4926453 8.240463257

endloop
endfacet
facet normal 0.007742955815 0.9884234071 -0.1515232027
outer loop
vertex 41.57930756 -102.4926453 8.240463257
vertex 30.75992584 -103.4948273 1.150102019
vertex 33.70334625 -102.3009872 9.088228226

endloop
endfacet
facet normal -0.03249070421 0.8666921854 -0.4977841973
outer loop
vertex 41.57930756 -102.4926453 8.240463257
vertex 33.70334625 -102.3009872 9.088228226
vertex 41.89641571 -98.08827209 15.88822079

endloop
endfacet
facet normal -0.06538083404 0.881622076 -0.4674053788
outer loop
vertex 41.89641571 -98.08827209 15.88822079
vertex 33.70334625 -102.3009872 9.088228226
vertex 34.68903351 -98.31400299 16.47061729

endloop
endfacet
facet normal -0.08499155194 0.5185227394 -0.8508293033
outer loop
vertex 41.89641571 -98.08827209 15.88822079
vertex 34.68903351 -98.31400299 16.47061729
vertex 40.0699234 -90.27210236 20.83409882

endloop
endfacet
facet normal -0.2283964008 0.5779296756 -0.7834745049
outer loop
vertex 40.0699234 -90.27210236 20.83409882
vertex 34.68903351 -98.31400299 16.47061729
vertex 34.33029938 -91.36122131 21.70391083

endloop
endfacet
facet normal -0.2009151578 0.3191476166 -0.9261630177
outer loop
vertex 40.0699234 -90.27210236 20.83409882
vertex 34.33029938 -91.36122131 21.70391083
vertex 38.48480988 -81.69112396 24.13489151

endloop
endfacet
facet normal -0.2084333301 0.3217340708 -0.9236031175
outer loop
vertex 38.48480988 -81.69112396 24.13489151
vertex 34.33029938 -91.36122131 21.70391083
vertex 33.26638031 -82.28984833 25.10399246

endloop
endfacet
facet normal -0.2062654346 0.2804206014 -0.9374533892
outer loop
vertex 38.48480988 -81.69112396 24.13489151
vertex 33.26638031 -82.28984833 25.10399246
vertex 37.8932724 -73.45346832 26.72917747

endloop
endfacet
facet normal -0.03898755088 0.2004584819 -0.9789261818
outer loop
vertex 37.8932724 -73.45346832 26.72917747
vertex 33.26638031 -82.28984833 25.10399246
vertex 30.85572052 -74.22270203 26.85194206

endloop
endfacet
facet normal -0.0293313507 0.1097865775 -0.993522346
outer loop
vertex 37.8932724 -73.45346832 26.72917747
vertex 30.85572052 -74.22270203 26.85194206
vertex 37.14252472 -64.23239136 27.77029228

endloop
endfacet
facet normal -0.02303289063 0.1058772504 -0.9941123724
outer loop
vertex 37.14252472 -64.23239136 27.77029228
vertex 30.85572052 -74.22270203 26.85194206
vertex 27.53058624 -65.26976776 27.88250923

endloop
endfacet
facet normal 0.1078635901 -0.9913838506 0.07432022691
outer loop
vertex 37.14252472 -64.23239136 27.77029228
vertex 27.53058624 -65.26976776 27.88250923
vertex 27.59749603 -66.12233734 16.41267395

endloop
endfacet
facet normal -nan(ind) -nan(ind) -nan(ind)
outer loop
vertex 27.59749603 -66.12233734 16.41267395
vertex 27.53058624 -65.26976776 27.88250923
vertex 27.59749603 -66.12233734 16.41267395

endloop
endfacet
facet normal -0.9363301992 0.35112077 0
outer loop
vertex 17.50850677 -76.30563354 -13.38703918
vertex 17.50850677 -76.30563354 -13.38704014
vertex 12.68952179 -89.15637207 -22.4107914

endloop
endfacet
facet normal 0.8217155933 -0.5000732541 0.2733314931
outer loop
vertex 12.68952179 -89.15637207 -22.4107914
vertex 17.50850677 -76.30563354 -13.38704014
vertex 10.37772369 -89.93928528 -16.89321899

endloop
endfacet
facet normal 0.681481421 0.6286178827 0.37473014
outer loop
vertex 12.68952179 -89.15637207 -22.4107914
vertex 10.37772369 -89.93928528 -16.89321899
vertex 16.46842194 -94.20845795 -20.8080883

endloop
endfacet
facet normal 0.6771207452 0.6504343748 0.3441548944
outer loop
vertex 16.46842194 -94.20845795 -20.8080883
vertex 10.37772369 -89.93928528 -16.89321899
vertex 13.68480682 -93.96340179 -15.7945013

endloop
endfacet
facet normal 0.5227563977 0.8148738146 0.2504121065
outer loop
vertex 16.46842194 -94.20845795 -20.8080883
vertex 13.68480682 -93.96340179 -15.7945013
vertex 19.90239716 -97.45397186 -17.41547394

endloop
endfacet
facet normal 0.4701330066 0.8782142997 -0.08783251792
outer loop
vertex 19.90239716 -97.45397186 -17.41547394
vertex 13.68480682 -93.96340179 -15.7945013
vertex 17.396492 -95.73226166 -13.61367226

endloop
endfacet
facet normal 0.5418409109 0.8401570916 -0.02333457395
outer loop
vertex 19.90239716 -97.45396423 -17.41547394
vertex 17.39650726 -95.73225403 -13.61367416
vertex 23.60619354 -99.70333099 -12.39943504

endloop
endfacet
facet normal 0.5528752804 0.7602454424 -0.3411097825
outer loop
vertex 23.60619354 -99.70333099 -12.39943504
vertex 17.39650726 -95.73225403 -13.61367416
vertex 21.35797882 -96.884552 -9.761042595

endloop
endfacet
facet normal 0.727878809 0.6777894497 -0.103893131
outer loop
vertex 23.60619354 -99.70333099 -12.39943504
vertex 21.35797882 -96.884552 -9.761042595
vertex 26.92386627 -102.2962418 -6.071622849

endloop
endfacet
facet normal 0.6518568397 0.749435246 0.1158852354
outer loop
vertex 26.92386627 -102.2962418 -6.071622849
vertex 21.35797882 -96.884552 -9.761042595
vertex 24.02739716 -100.0326385 -4.417751789

endloop
endfacet
facet normal 0.5510677099 0.8196179867 -0.1566864401
outer loop
vertex 26.92386627 -102.2962418 -6.071622849
vertex 24.02739716 -100.0326385 -4.417751789
vertex 30.75992584 -103.4948273 1.150102019

endloop
endfacet
facet normal 0.5649613738 0.8046091199 -0.1828190386
outer loop
vertex 30.75992584 -103.4948273 1.150102019
vertex 24.02739716 -100.0326385 -4.417751789
vertex 27.66709137 -101.1869583 1.74960494

endloop
endfacet
facet normal 0.5278306007 0.7890244126 -0.3143810332
outer loop
vertex 30.75992584 -103.4948273 1.150102019
vertex 27.66709137 -101.1869583 1.74960494
vertex 33.70334625 -102.3009872 9.088228226

endloop
endfacet
facet normal 0.6185501814 0.6722895503 -0.4067216218
outer loop
vertex 33.70334625 -102.3009872 9.088228226
vertex 27.66709137 -101.1869583 1.74960494
vertex 30.59799957 -99.71150208 8.645839691

endloop
endfacet
facet normal 0.6118195057 0.6589485407 -0.4375656843
outer loop
vertex 33.70334625 -102.3009872 9.088228226
vertex 30.59799957 -99.71150208 8.645839691
vertex 34.68903351 -98.31400299 16.47061729

endloop
endfacet
facet normal 0.6281553507 0.6398732662 -0.4426997304
outer loop
vertex 34.68903351 -98.31400299 16.47061729
vertex 30.59799957 -99.71150208 8.645839691
vertex 31.30548859 -95.84294128 15.24128437

endloop
endfacet
facet normal 0.5949882865 0.5027171373 -0.6271079779
outer loop
vertex 34.68903351 -98.31400299 16.47061729
vertex 31.30548859 -95.84294128 15.24128437
vertex 34.33029938 -91.36122131 21.70391083

endloop
endfacet
facet normal 0.6311208606 0.4670704007 -0.6192992926
outer loop
vertex 34.33029938 -91.36122131 21.70391083
vertex 31.30548859 -95.84294128 15.24128437
vertex 30.89823151 -89.2494812 19.79898643

endloop
endfacet
facet normal 0.6076590419 0.3402440548 -0.7176242471
outer loop
vertex 34.33029938 -91.36122131 21.70391083
vertex 30.89823151 -89.2494812 19.79898643
vertex 33.26638031 -82.28984833 25.10399246

endloop
endfacet
facet normal 0.7606209517 0.2095486522 -0.6144469976
outer loop
vertex 33.26638031 -82.28984833 25.10399246
vertex 30.89823151 -89.2494812 19.79898643
vertex 30.54524994 -81.32925415 22.06311607

endloop
endfacet
facet normal 0.750813961 0.3462394178 -0.5624914765
outer loop
vertex 33.26638031 -82.28984833 25.10399246
vertex 30.54524994 -81.32925415 22.06311607
vertex 30.85572052 -74.22270203 26.85194206

endloop
endfacet
facet normal 0.7116267681 0.370960623 -0.5966368318
outer loop
vertex 30.85572052 -74.22270203 26.85194206
vertex 30.54524994 -81.32925415 22.06311607
vertex 28.21523285 -74.52986145 23.5115757

endloop
endfacet
facet normal 0.7229977846 0.337885648 -0.6025840044
outer loop
vertex 30.85572052 -74.22270203 26.85194206
vertex 28.21523285 -74.52986145 23.5115757
vertex 27.53058624 -65.26976776 27.88250923

endloop
endfacet
facet normal 0.4539580643 0.4075653851 -0.7923462987
outer loop
vertex 27.53058624 -65.26976776 27.88250923
vertex 28.21523285 -74.52986145 23.5115757
vertex 23.86295319 -66.50978088 25.14338112

endloop
endfacet
facet normal 0.2701195776 -0.9600601196 0.07293842733
outer loop
vertex 27.53058624 -65.26976776 27.88250923
vertex 23.86295319 -66.50978088 25.14338112
vertex 27.59749603 -66.12233734 16.41267395

endloop
endfacet
facet normal 0 0.9989874363 0.04499116167
outer loop
vertex 27.59749603 -66.12233734 16.41267395
vertex 23.86295319 -66.50978088 25.14338112
vertex 27.59751129 -66.12233734 16.41267395

endloop
endfacet
facet normal 0.05992119759 -0.2779003084 0.9587391615
outer loop
vertex 17.50850677 -76.30563354 -13.38704014
vertex 17.50849152 -76.30563354 -13.38703918
vertex 10.37772369 -89.93928528 -16.89321899

endloop
endfacet
facet normal 0.85420084 -0.4908621907 0.171450451
outer loop
vertex 10.37772369 -89.93928528 -16.89321899
vertex 17.50849152 -76.30563354 -13.38703918
vertex 9.904319763 -89.38690186 -12.95315266

endloop
endfacet
facet normal 0.7720825076 0.6355117559 0.00367017067
outer loop
vertex 10.37772369 -89.93928528 -16.89321899
vertex 9.904319763 -89.38690186 -12.95315266
vertex 13.68480682 -93.96340179 -15.7945013

endloop
endfacet
facet normal 0.4773754776 0.7131020427 -0.5134180188
outer loop
vertex 13.68480682 -93.96340179 -15.7945013
vertex 9.904319763 -89.38690186 -12.95315266
vertex 14.14170074 -91.69786835 -12.22301292

endloop
endfacet
facet normal 0.5917130113 0.6443570256 -0.4844373763
outer loop
vertex 13.68480682 -93.96340179 -15.7945013
vertex 14.14170074 -91.69786835 -12.22301292
vertex 17.396492 -95.73226166 -13.61367226

endloop
endfacet
facet normal 0.4216599166 0.5803371072 -0.6967149377
outer loop
vertex 17.396492 -95.73226166 -13.61367226
vertex 14.14170074 -91.69786835 -12.22301292
vertex 17.77823639 -92.93609619 -11.05353642

endloop
endfacet
facet normal 0.6894694567 0.4356654882 -0.5786427259
outer loop
vertex 17.39650726 -95.73225403 -13.61367416
vertex 17.77826691 -92.93608856 -11.05353737
vertex 21.35797882 -96.884552 -9.761042595

endloop
endfacet
facet normal 0.7528044581 0.5815778971 -0.3083059788
outer loop
vertex 21.35797882 -96.884552 -9.761042595
vertex 17.77826691 -92.93608856 -11.05353737
vertex 20.32846832 -94.77877045 -8.302569389

endloop
endfacet
facet normal 0.8530627489 0.5058247447 -0.1281609684
outer loop
vertex 21.35797882 -96.884552 -9.761042595
vertex 20.32846832 -94.77877045 -8.302569389
vertex 24.02739716 -100.0326385 -4.417751789

endloop
endfacet
facet normal 0.8421812654 0.5330861211 -0.08093147725
outer loop
vertex 24.02739716 -100.0326385 -4.417751789
vertex 20.32846832 -94.77877045 -8.302569389
vertex 22.52552032 -97.53362274 -3.585711002

endloop
endfacet
facet normal 0.7525541186 0.5649400949 -0.3383857012
outer loop
vertex 24.02739716 -100.0326385 -4.417751789
vertex 22.52552032 -97.53362274 -3.585711002
vertex 27.66709137 -101.1869583 1.74960494

endloop
endfacet
facet normal 0.7764011025 0.4534343779 -0.4377198219
outer loop
vertex 27.66709137 -101.1869583 1.74960494
vertex 22.52552032 -97.53362274 -3.585711002
vertex 26.00260162 -98.02742767 2.070194006

endloop
endfacet
facet normal 0.7805076241 0.454713285 -0.4290030897
outer loop
vertex 27.66709137 -101.1869583 1.74960494
vertex 26.00260162 -98.02742767 2.070194006
vertex 30.59799957 -99.71150208 8.645839691

endloop
endfacet
facet normal 0.8258808255 0.2092642635 -0.5235735774
outer loop
vertex 30.59799957 -99.71150208 8.645839691
vertex 26.00260162 -98.02742767 2.070194006
vertex 29.08005524 -96.06931305 7.707172871

endloop
endfacet
facet normal 0.9099889398 0.3075979054 -0.2780355811
outer loop
vertex 30.59799957 -99.71150208 8.645839691
vertex 29.08005524 -96.06931305 7.707172871
vertex 31.30548859 -95.84294128 15.24128437

endloop
endfacet
facet normal 0.9187796116 0.2785302103 -0.279758811
outer loop
vertex 31.30548859 -95.84294128 15.24128437
vertex 29.08005524 -96.06931305 7.707172871
vertex 29.72632599 -92.44326782 13.43976593

endloop
endfacet
facet normal 0.915653646 0.2653014064 -0.3019828796
outer loop
vertex 31.30548859 -95.84294128 15.24128437
vertex 29.72632599 -92.44326782 13.43976593
vertex 30.89823151 -89.2494812 19.79898643

endloop
endfacet
facet normal 0.7484361529 0.5270188451 -0.4026094675
outer loop
vertex 30.89823151 -89.2494812 19.79898643
vertex 29.72632599 -92.44326782 13.43976593
vertex 28.75435638 -87.17186737 18.53321457

endloop
endfacet
facet normal 0.6528596878 0.2349540442 -0.7201186419
outer loop
vertex 30.89823151 -89.2494812 19.79898643
vertex 28.75435638 -87.17186737 18.53321457
vertex 30.54524994 -81.32925415 22.06311607

endloop
endfacet
facet normal 0.8823163509 0.01378233358 -0.4704549611
outer loop
vertex 30.54524994 -81.32925415 22.06311607
vertex 28.75435638 -87.17186737 18.53321457
vertex 29.24692535 -80.53086853 19.65155792

endloop
endfacet
facet normal 0.8638404608 0.3690651953 -0.3428857625
outer loop
vertex 30.54524994 -81.32925415 22.06311607
vertex 29.24692535 -80.53086853 19.65155792
vertex 28.21523285 -74.52986145 23.5115757

endloop
endfacet
facet normal 0.9628196955 0.2423274815 -0.1193971336
outer loop
vertex 28.21523285 -74.52986145 23.5115757
vertex 29.24692535 -80.53086853 19.65155792
vertex 27.841362 -74.73233795 20.08573341

endloop
endfacet
facet normal 0.8615157008 0.4925741553 -0.1231318489
outer loop
vertex 28.21523285 -74.52986145 23.5115757
vertex 27.841362 -74.73233795 20.08573341
vertex 23.86295319 -66.50978088 25.14338112

endloop
endfacet
facet normal 0.7169262767 0.5824878812 -0.3830464184
outer loop
vertex 23.86295319 -66.50978088 25.14338112
vertex 27.841362 -74.73233795 20.08573341
vertex 23.07526398 -67.82395935 21.67067337

endloop
endfacet
facet normal 0.5325703621 -0.8245025873 0.1912178248
outer loop
vertex 23.86295319 -66.50978088 25.14338112
vertex 23.07526398 -67.82395935 21.67067337
vertex 27.59751129 -66.12233734 16.41267395

endloop
endfacet
facet normal -0.3704756796 -0.7409513593 -0.5601239204
outer loop
vertex 27.59751129 -66.12233734 16.41267395
vertex 23.07526398 -67.82395935 21.67067337
vertex 27.59749603 -66.12232971 16.41267395

endloop
endfacet
facet normal -0.1548640579 0.1225383505 0.9803068042
outer loop
vertex 17.50849152 -76.3056488 -13.38703823
vertex 17.50849152 -76.30564117 -13.38703918
vertex 9.904305458 -89.38690186 -12.95315361

endloop
endfacet
facet normal 0.8287816644 -0.4906949103 -0.2689599991
outer loop
vertex 9.904305458 -89.38690186 -12.95315361
vertex 17.50849152 -76.30564117 -13.38703918
vertex 12.44249725 -86.23401642 -10.88406467

endloop
endfacet
facet normal 0.3275777698 0.3197456896 -0.8890756965
outer loop
vertex 9.904305458 -89.38690186 -12.95315361
vertex 12.44249725 -86.23401642 -10.88406467
vertex 14.14168453 -91.69786835 -12.22301388

endloop
endfacet
facet normal 0.2826230228 0.3103169501 -0.9076494575
outer loop
vertex 14.14168453 -91.69786835 -12.22301388
vertex 12.44249725 -86.23401642 -10.88406467
vertex 16.94846344 -88.02822113 -10.09442329

endloop
endfacet
facet normal 0.3698635995 0.2380364537 -0.898075521
outer loop
vertex 14.14168453 -91.69786835 -12.22301388
vertex 16.94846344 -88.02822113 -10.09442329
vertex 17.77822113 -92.93609619 -11.05353642

endloop
endfacet
facet normal 0.4205811024 0.2419821918 -0.8743889928
outer loop
vertex 17.77822113 -92.93609619 -11.05353642
vertex 16.94846344 -88.02822113 -10.09442329
vertex 19.77542877 -89.66170502 -9.186710358

endloop
endfacet
facet normal 0.718408525 -0.04232920334 -0.6943323612
outer loop
vertex 17.77825165 -92.93608856 -11.05353737
vertex 19.77544403 -89.66169739 -9.186711311
vertex 20.32845306 -94.77877808 -8.302569389

endloop
endfacet
facet normal 0.9473174214 0.04765202478 -0.3167318106
outer loop
vertex 20.32845306 -94.77877808 -8.302569389
vertex 19.77544403 -89.66169739 -9.186711311
vertex 20.64194489 -92.54545593 -7.028941154

endloop
endfacet
facet normal 0.9214829803 0.08658640087 -0.378644824
outer loop
vertex 20.32845306 -94.77877808 -8.302569389
vertex 20.64194489 -92.54545593 -7.028941154
vertex 22.52550507 -97.53362274 -3.585711002

endloop
endfacet
facet normal 0.812207222 -0.09105788916 -0.5762185454
outer loop
vertex 22.52550507 -97.53362274 -3.585711002
vertex 20.64194489 -92.54545593 -7.028941154
vertex 23.21526337 -94.03630829 -3.166132927

endloop
endfacet
facet normal 0.8433179259 -0.1030453071 -0.527443409
outer loop
vertex 22.52550507 -97.53362274 -3.585711002
vertex 23.21526337 -94.03630829 -3.166132927
vertex 26.00258636 -98.0274353 2.070194006

endloop
endfacet
facet normal 0.8129521012 -0.1649662107 -0.5584756136
outer loop
vertex 26.00258636 -98.0274353 2.070194006
vertex 23.21526337 -94.03630829 -3.166132927
vertex 26.6709671 -93.71569061 1.769500017

endloop
endfacet
facet normal 0.8886253834 -0.167523697 -0.4269435108
outer loop
vertex 26.00258636 -98.0274353 2.070194006
vertex 26.6709671 -93.71569061 1.769500017
vertex 29.08003998 -96.06931305 7.707172871

endloop
endfacet
facet normal 0.8624349833 -0.240647614 -0.445302844
outer loop
vertex 29.08003998 -96.06931305 7.707172871
vertex 26.6709671 -93.71569061 1.769500017
vertex 29.48453522 -91.69355774 6.12585783

endloop
endfacet
facet normal 0.9932184815 -0.1076674536 -0.04387126863
outer loop
vertex 29.08003998 -96.06931305 7.707172871
vertex 29.48453522 -91.69355774 6.12585783
vertex 29.72632599 -92.44326782 13.43976593

endloop
endfacet
facet normal 0.9924041629 -0.1146656126 -0.04456169531
outer loop
vertex 29.72632599 -92.44326782 13.43976593
vertex 29.48453522 -91.69355774 6.12585783
vertex 30.03731537 -88.61080933 10.50396919

endloop
endfacet
facet normal 0.9878201485 0.03583350405 0.1514178365
outer loop
vertex 29.72632599 -92.44326782 13.43976593
vertex 30.03731537 -88.61080933 10.50396919
vertex 28.75435638 -87.17188263 18.53321457

endloop
endfacet
facet normal 0.9741663933 0.1903309822 0.1215485558
outer loop
vertex 28.75435638 -87.17188263 18.53321457
vertex 30.03731537 -88.61080933 10.50396919
vertex 28.68273163 -84.88246918 15.52230358

endloop
endfacet
facet normal 0.9955686927 -0.06192477793 -0.07076887786
outer loop
vertex 28.75435638 -87.17188263 18.53321457
vertex 28.68273163 -84.88246918 15.52230358
vertex 29.24692535 -80.53088379 19.65155792

endloop
endfacet
facet normal 0.9954950213 -0.07821670175 -0.0535896793
outer loop
vertex 29.24692535 -80.53088379 19.65155792
vertex 28.68273163 -84.88246918 15.52230358
vertex 29.17406464 -79.80463409 17.23808289

endloop
endfacet
facet normal 0.9717447162 0.2325111628 0.04062985629
outer loop
vertex 29.24692535 -80.53088379 19.65155792
vertex 29.17406464 -79.80463409 17.23808289
vertex 27.84134674 -74.73235321 20.08573341

endloop
endfacet
facet normal 0.9694071412 0.1425056309 0.1998551637
outer loop
vertex 27.84134674 -74.73235321 20.08573341
vertex 29.17406464 -79.80463409 17.23808289
vertex 28.36566925 -74.98905182 17.72551918

endloop
endfacet
facet normal 0.8298367858 0.543777585 0.1252069324
outer loop
vertex 27.84134674 -74.73235321 20.08573341
vertex 28.36566925 -74.98905182 17.72551918
vertex 23.07526398 -67.82396698 21.67067337

endloop
endfacet
facet normal 0.780608952 0.6199808717 -0.07920522243
outer loop
vertex 23.07526398 -67.82396698 21.67067337
vertex 28.36566925 -74.98905182 17.72551918
vertex 23.76172638 -69.09613037 18.47823334

endloop
endfacet
facet normal 0.6861664653 -0.612924099 0.3917903304
outer loop
vertex 23.07526398 -67.82396698 21.67067337
vertex 23.76172638 -69.09613037 18.47823334
vertex 27.59749603 -66.12233734 16.41267204

endloop
endfacet
facet normal -0.4521528482 0.8239229918 0.3416266143
outer loop
vertex 27.59749603 -66.12233734 16.41267204
vertex 23.76172638 -69.09613037 18.47823334
vertex 27.59751129 -66.12232971 16.41267395

endloop
endfacet
facet normal 0.2399528623 0.1204110086 0.9632880688
outer loop
vertex 17.50849152 -76.30564117 -13.38703918
vertex 17.50849152 -76.30563354 -13.38704014
vertex 12.44249725 -86.23401642 -10.88406467

endloop
endfacet
facet normal 0.3157363832 -0.3802629113 -0.8693162203
outer loop
vertex 12.44249725 -86.23401642 -10.88406467
vertex 17.50849152 -76.30563354 -13.38704014
vertex 17.06186676 -81.57293701 -11.24519062

endloop
endfacet
facet normal 0.1013719141 -0.1763223112 -0.979098618
outer loop
vertex 12.44249725 -86.23401642 -10.88406467
vertex 17.06186676 -81.57293701 -11.24519062
vertex 16.94846344 -88.02822113 -10.09442329

endloop
endfacet
facet normal 0.3393359184 -0.1708618402 -0.9250174761
outer loop
vertex 16.94846344 -88.02822113 -10.09442329
vertex 17.06186676 -81.57293701 -11.24519062
vertex 19.87725067 -85.04200745 -9.571608543

endloop
endfacet
facet normal 0.2592693567 -0.08586361259 -0.9619807005
outer loop
vertex 16.94846344 -88.02822113 -10.09442329
vertex 19.87725067 -85.04200745 -9.571608543
vertex 19.77542877 -89.66170502 -9.186710358

endloop
endfacet
facet normal 0.5364928842 -0.08180502802 -0.839930594
outer loop
vertex 19.77542877 -89.66170502 -9.186710358
vertex 19.87725067 -85.04200745 -9.571608543
vertex 22.00341034 -87.04031372 -8.018931389

endloop
endfacet
facet normal 0.6891415119 -0.2898616195 -0.6641266942
outer loop
vertex 19.77544403 -89.66169739 -9.186711311
vertex 22.0034256 -87.04030609 -8.018931389
vertex 20.64194489 -92.54545593 -7.028941154

endloop
endfacet
facet normal 0.6157000065 -0.2844187915 -0.7348601222
outer loop
vertex 20.64194489 -92.54545593 -7.028941154
vertex 22.0034256 -87.04030609 -8.018931389
vertex 23.66153717 -88.88209534 -5.916845798

endloop
endfacet
facet normal 0.6923247576 -0.3854852617 -0.6099898219
outer loop
vertex 20.64194489 -92.54545593 -7.028941154
vertex 23.66153717 -88.88209534 -5.916845798
vertex 23.21526337 -94.03630829 -3.166132927

endloop
endfacet
facet normal 0.5798792243 -0.4220955968 -0.6968324184
outer loop
vertex 23.21526337 -94.03630829 -3.166132927
vertex 23.66153717 -88.88209534 -5.916845798
vertex 26.63872528 -89.62366486 -2.990140915

endloop
endfacet
facet normal 0.7094783187 -0.5320010781 -0.4621855021
outer loop
vertex 23.21526337 -94.03630829 -3.166132927
vertex 26.63872528 -89.62366486 -2.990140915
vertex 26.6709671 -93.71569061 1.769500017

endloop
endfacet
facet normal 0.7267323732 -0.5184402466 -0.4506437182
outer loop
vertex 26.6709671 -93.71569061 1.769500017
vertex 26.63872528 -89.62366486 -2.990140915
vertex 29.26067352 -89.58120728 1.189309001

endloop
endfacet
facet normal 0.7995440364 -0.5382148027 -0.2665598094
outer loop
vertex 26.6709671 -93.71569061 1.769500017
vertex 29.26067352 -89.58120728 1.189309001
vertex 29.48453522 -91.69355774 6.12585783

endloop
endfacet
facet normal 0.8682640791 -0.440644294 -0.227925688
outer loop
vertex 29.48453522 -91.69355774 6.12585783
vertex 29.26067352 -89.58120728 1.189309001
vertex 30.74571991 -88.76356506 5.265738964

endloop
endfacet
facet normal 0.9238809347 -0.3579328656 0.1353811771
outer loop
vertex 29.48453522 -91.69355774 6.12585783
vertex 30.74571991 -88.76356506 5.265738964
vertex 30.03731537 -88.61080933 10.50396919

endloop
endfacet
facet normal 0.909337163 -0.3937345743 0.1344583482
outer loop
vertex 30.03731537 -88.61080933 10.50396919
vertex 30.74571991 -88.76356506 5.265738964
vertex 31.0552597 -86.82461548 8.850160599

endloop
endfacet
facet normal 0.9111005068 -0.1727191061 0.3742511868
outer loop
vertex 30.03731537 -88.61080933 10.50396919
vertex 31.0552597 -86.82461548 8.850160599
vertex 28.68273163 -84.88246918 15.52230358

endloop
endfacet
facet normal 0.8607131243 -0.3170181811 0.3983370662
outer loop
vertex 28.68273163 -84.88246918 15.52230358
vertex 31.0552597 -86.82461548 8.850160599
vertex 30.56780243 -83.53876495 12.51849937

endloop
endfacet
facet normal 0.8672469258 -0.2326495647 0.4401783943
outer loop
vertex 28.68273163 -84.88246918 15.52230358
vertex 30.56780243 -83.53876495 12.51849937
vertex 29.17406464 -79.80463409 17.23808289

endloop
endfacet
facet normal 0.9052138329 -0.1598121673 0.3937615156
outer loop
vertex 29.17406464 -79.80463409 17.23808289
vertex 30.56780243 -83.53876495 12.51849937
vertex 30.16123199 -79.29703522 15.17470932

endloop
endfacet
facet normal 0.8871029019 0.1033850834 0.4498444796
outer loop
vertex 29.17406464 -79.80463409 17.23808289
vertex 30.16123199 -79.29703522 15.17470932
vertex 28.36566925 -74.98905182 17.72551918

endloop
endfacet
facet normal 0.9305764437 0.2105151266 0.2995176613
outer loop
vertex 28.36566925 -74.98905182 17.72551918
vertex 30.16123199 -79.29703522 15.17470932
vertex 28.78557587 -75.14208221 16.52846146

endloop
endfacet
facet normal 0.7843217254 0.5872105956 0.2000578642
outer loop
vertex 28.36566925 -74.98905182 17.72551918
vertex 28.78557587 -75.14208221 16.52846146
vertex 23.76172638 -69.09613037 18.47823334

endloop
endfacet
facet normal 0.7837564349 0.60196805 0.1528406441
outer loop
vertex 23.76172638 -69.09613037 18.47823334
vertex 28.78557587 -75.14208221 16.52846146
vertex 24.74602509 -69.87405396 16.49469566

endloop
endfacet
facet normal 0.6785234809 -0.5040268302 0.5343806744
outer loop
vertex 23.76172638 -69.09613037 18.47823334
vertex 24.74602509 -69.87405396 16.49469566
vertex 27.59751129 -66.12232971 16.41267395

endloop
endfacet
facet normal 0 -0.02186976746 -0.9997608066
outer loop
vertex 27.59751129 -66.12232971 16.41267395
vertex 24.74602509 -69.87405396 16.49469566
vertex 27.59749603 -66.12232971 16.41267395

endloop
endfacet
facet normal -0.8732464314 -0.1181825101 -0.4727300406
outer loop
vertex 17.50849152 -76.30563354 -13.38704014
vertex 17.50849152 -76.30564117 -13.38703823
vertex 17.06186676 -81.57293701 -11.24519062

endloop
endfacet
facet normal 0.2889592648 -0.3815352321 -0.8780281544
outer loop
vertex 17.06186676 -81.57293701 -11.24519062
vertex 17.50849152 -76.30564117 -13.38703823
vertex 18.75576019 -79.90536499 -11.41235065

endloop
endfacet
facet normal 0.1957552284 -0.2926674187 -0.9359624386
outer loop
vertex 17.06186676 -81.57293701 -11.24519062
vertex 18.75576019 -79.90536499 -11.41235065
vertex 19.87725067 -85.04200745 -9.571608543

endloop
endfacet
facet normal 0.2745390236 -0.2707079947 -0.922683835
outer loop
vertex 19.87725067 -85.04200745 -9.571608543
vertex 18.75576019 -79.90536499 -11.41235065
vertex 21.18112946 -83.86000061 -9.530438423

endloop
endfacet
facet normal 0.3306616247 -0.3340109289 -0.882666111
outer loop
vertex 19.87725067 -85.04200745 -9.571608543
vertex 21.18112946 -83.86000061 -9.530438423
vertex 22.00341034 -87.04031372 -8.018931389

endloop
endfacet
facet normal 0.2985009253 -0.3456340134 -0.8896259665
outer loop
vertex 22.00341034 -87.04031372 -8.018931389
vertex 21.18112946 -83.86000061 -9.530438423
vertex 23.28806305 -85.96642303 -8.005108833

endloop
endfacet
facet normal 0.4197715819 -0.4923423529 -0.7624899149
outer loop
vertex 22.0034256 -87.04030609 -8.018931389
vertex 23.28807831 -85.96641541 -8.005109787
vertex 23.66153717 -88.88209534 -5.916845798

endloop
endfacet
facet normal 0.4309877157 -0.4882860184 -0.7588322163
outer loop
vertex 23.66153717 -88.88209534 -5.916845798
vertex 23.28807831 -85.96641541 -8.005109787
vertex 25.35300446 -87.38938141 -5.916674137

endloop
endfacet
facet normal 0.5009426475 -0.5675675273 -0.6533939838
outer loop
vertex 23.66153717 -88.88209534 -5.916845798
vertex 25.35300446 -87.38938141 -5.916674137
vertex 26.63872528 -89.62366486 -2.990140915

endloop
endfacet
facet normal 0.5511186123 -0.5285694599 -0.6456644535
outer loop
vertex 26.63872528 -89.62366486 -2.990140915
vertex 25.35300446 -87.38938141 -5.916674137
vertex 28.02274323 -88.09520721 -3.060050011

endloop
endfacet
facet normal 0.6661260128 -0.6220014095 -0.411570698
outer loop
vertex 26.63872528 -89.62366486 -2.990140915
vertex 28.02274323 -88.09520721 -3.060050011
vertex 29.26067352 -89.58120728 1.189309001

endloop
endfacet
facet normal 0.7190905809 -0.5635706782 -0.4065671861
outer loop
vertex 29.26067352 -89.58120728 1.189309001
vertex 28.02274323 -88.09520721 -3.060050011
vertex 30.15938568 -88.28696442 0.9848120213

endloop
endfacet
facet normal 0.7958595157 -0.5800657868 -0.1735837758
outer loop
vertex 29.26067352 -89.58120728 1.189309001
vertex 30.15938568 -88.28696442 0.9848120213
vertex 30.74571991 -88.76356506 5.265738964

endloop
endfacet
facet normal 0.8247585893 -0.5384027958 -0.1729035228
outer loop
vertex 30.74571991 -88.76356506 5.265738964
vertex 30.15938568 -88.28696442 0.9848120213
vertex 31.30899811 -87.82066345 5.016510963

endloop
endfacet
facet normal 0.8647188544 -0.4692210853 0.1791449785
outer loop
vertex 30.74571991 -88.76356506 5.265738964
vertex 31.30899811 -87.82066345 5.016510963
vertex 31.0552597 -86.82461548 8.850160599

endloop
endfacet
facet normal 0.8154088855 -0.5448620915 0.1955341399
outer loop
vertex 31.0552597 -86.82461548 8.850160599
vertex 31.30899811 -87.82066345 5.016510963
vertex 31.63895416 -86.1622467 8.261772156

endloop
endfacet
facet normal 0.8320652843 -0.3536346853 0.427328825
outer loop
vertex 31.0552597 -86.82461548 8.850160599
vertex 31.63895416 -86.1622467 8.261772156
vertex 30.56780243 -83.53876495 12.51849937

endloop
endfacet
facet normal 0.856099546 -0.3151096702 0.4096332788
outer loop
vertex 30.56780243 -83.53876495 12.51849937
vertex 31.63895416 -86.1622467 8.261772156
vertex 31.38573456 -83.01616669 11.21109676

endloop
endfacet
facet normal 0.8645175099 -0.2046092004 0.4590692222
outer loop
vertex 30.56780243 -83.53876495 12.51849937
vertex 31.38573456 -83.01616669 11.21109676
vertex 30.16123199 -79.29703522 15.17470932

endloop
endfacet
facet normal 0.9216404557 -0.09698414057 0.3757299483
outer loop
vertex 30.16123199 -79.29703522 15.17470932
vertex 31.38573456 -83.01616669 11.21109676
vertex 30.58217621 -79.09423828 14.1945076

endloop
endfacet
facet normal 0.8945356011 0.1602067351 0.4173008502
outer loop
vertex 30.16123199 -79.29703522 15.17470932
vertex 30.58217621 -79.09423828 14.1945076
vertex 28.78557587 -75.14208221 16.52846146

endloop
endfacet
facet normal 0.9044620991 0.1838552952 0.384896934
outer loop
vertex 28.78557587 -75.14208221 16.52846146
vertex 30.58217621 -79.09423828 14.1945076
vertex 29.06682587 -75.20248413 15.89640999

endloop
endfacet
facet normal 0.7603653073 0.584862411 0.2824547291
outer loop
vertex 28.78557587 -75.14208221 16.52846146
vertex 29.06682587 -75.20248413 15.89640999
vertex 24.74602509 -69.87405396 16.49469566

endloop
endfacet
facet normal 0.7330490947 0.5494019389 0.4009944201
outer loop
vertex 24.74602509 -69.87405396 16.49469566
vertex 29.06682587 -75.20248413 15.89640999
vertex 25.72003937 -70.30444336 15.30379772

endloop
endfacet
facet normal 0.6066457033 -0.4466999769 0.6576017141
outer loop
vertex 24.74602509 -69.87405396 16.49469566
vertex 25.72003937 -70.30444336 15.30379772
vertex 27.59749603 -66.12232971 16.41267395

endloop
endfacet
facet normal -0.3922630548 0.3978668153 -0.8293561935
outer loop
vertex 27.59749603 -66.12232971 16.41267395
vertex 25.72003937 -70.30444336 15.30379772
vertex 27.59748077 -66.12234497 16.41267395

endloop
endfacet
facet normal -0.9448878169 -0.3273942769 0
outer loop
vertex 17.50849152 -76.30564117 -13.38703823
vertex 17.50849152 -76.30564117 -13.38703918
vertex 18.75576019 -79.90536499 -11.41235065

endloop
endfacet
facet normal 0.283203572 -0.38397488 -0.878839612
outer loop
vertex 18.75576019 -79.90536499 -11.41235065
vertex 17.50849152 -76.30564117 -13.38703918
vertex 19.24744415 -79.45881653 -11.44900894

endloop
endfacet
facet normal 0.2128091007 -0.3103767633 -0.9264872074
outer loop
vertex 18.75576019 -79.90536499 -11.41235065
vertex 19.24744415 -79.45881653 -11.44900894
vertex 21.18112946 -83.86000061 -9.530438423

endloop
endfacet
facet normal 0.1238698438 -0.3502924144 -0.9284133911
outer loop
vertex 21.18112946 -83.86000061 -9.530438423
vertex 19.24744415 -79.45881653 -11.44900894
vertex 21.85326385 -83.32316589 -9.643310547

endloop
endfacet
facet normal 0.2002638876 -0.4352852106 -0.8777363896
outer loop
vertex 21.18112946 -83.86000061 -9.530438423
vertex 21.85326385 -83.32316589 -9.643310547
vertex 23.28806305 -85.96642303 -8.005108833

endloop
endfacet
facet normal 0.002144995844 -0.5259535313 -0.8505105972
outer loop
vertex 23.28806305 -85.96642303 -8.005108833
vertex 21.85326385 -83.32316589 -9.643310547
vertex 23.91898346 -85.56278992 -8.253123283

endloop
endfacet
facet normal 0.190958187 -0.7130260468 -0.6746324301
outer loop
vertex 23.28807831 -85.96641541 -8.005109787
vertex 23.91901398 -85.56278229 -8.253124237
vertex 25.35300446 -87.38938141 -5.916674137

endloop
endfacet
facet normal 0.2010094374 -0.7080708742 -0.6769274473
outer loop
vertex 25.35300446 -87.38938141 -5.916674137
vertex 23.91901398 -85.56278229 -8.253124237
vertex 25.9320755 -87.01629639 -6.134972095

endloop
endfacet
facet normal 0.3262544572 -0.8005267978 -0.502707541
outer loop
vertex 25.35300446 -87.38938141 -5.916674137
vertex 25.9320755 -87.01629639 -6.134972095
vertex 28.02274323 -88.09520721 -3.060050011

endloop
endfacet
facet normal 0.4637056291 -0.6889850497 -0.5570248365
outer loop
vertex 28.02274323 -88.09520721 -3.060050011
vertex 25.9320755 -87.01629639 -6.134972095
vertex 28.31079865 -87.82542419 -3.153948069

endloop
endfacet
facet normal 0.5806626081 -0.7389399409 -0.3417583406
outer loop
vertex 28.02274323 -88.09520721 -3.060050011
vertex 28.31079865 -87.82542419 -3.153948069
vertex 30.15938568 -88.28696442 0.9848120213

endloop
endfacet
facet normal 0.6928018332 -0.614161253 -0.3779307306
outer loop
vertex 30.15938568 -88.28696442 0.9848120213
vertex 28.31079865 -87.82542419 -3.153948069
vertex 30.30451202 -88.08848572 0.9283090234

endloop
endfacet
facet normal 0.7770296335 -0.6111128926 -0.1508843601
outer loop
vertex 30.15938568 -88.28696442 0.9848120213
vertex 30.30451202 -88.08848572 0.9283090234
vertex 31.30899811 -87.82066345 5.016510963

endloop
endfacet
facet normal 0.7784113288 -0.6092371941 -0.151346758
outer loop
vertex 31.30899811 -87.82066345 5.016510963
vertex 30.30451202 -88.08848572 0.9283090234
vertex 31.51642609 -87.53554535 4.93563509

endloop
endfacet
facet normal 0.8186706901 -0.5408123732 0.1931329668
outer loop
vertex 31.30899811 -87.82066345 5.016510963
vertex 31.51642609 -87.53554535 4.93563509
vertex 31.63895416 -86.1622467 8.261772156

endloop
endfacet
facet normal 0.7809052467 -0.5869967341 0.2135928124
outer loop
vertex 31.63895416 -86.1622467 8.261772156
vertex 31.51642609 -87.53554535 4.93563509
vertex 31.96889496 -85.80104828 8.048140526

endloop
endfacet
facet normal 0.766417861 -0.4054022133 0.49824965
outer loop
vertex 31.63895416 -86.1622467 8.261772156
vertex 31.96889496 -85.80104828 8.048140526
vertex 31.38573456 -83.01616669 11.21109676

endloop
endfacet
facet normal 0.7960659266 -0.373850584 0.4759356976
outer loop
vertex 31.38573456 -83.01616669 11.21109676
vertex 31.96889496 -85.80104828 8.048140526
vertex 31.75435638 -82.81067657 10.75594139

endloop
endfacet
facet normal 0.8045548201 -0.2462518662 0.5404180288
outer loop
vertex 31.38573456 -83.01616669 11.21109676
vertex 31.75435638 -82.81067657 10.75594139
vertex 30.58217621 -79.09423828 14.1945076

endloop
endfacet
facet normal 0.8571797013 -0.1770949662 0.4836117923
outer loop
vertex 30.58217621 -79.09423828 14.1945076
vertex 31.75435638 -82.81067657 10.75594139
vertex 30.83861542 -79.03237915 13.76263332

endloop
endfacet
facet normal 0.8486332893 0.103586033 0.5187402964
outer loop
vertex 30.58217621 -79.09423828 14.1945076
vertex 30.83861542 -79.03237915 13.76263332
vertex 29.06682587 -75.20248413 15.89640999

endloop
endfacet
facet normal 0.6996099353 -0.07238613069 0.7108488679
outer loop
vertex 29.06682587 -75.20248413 15.89640999
vertex 30.83861542 -79.03237915 13.76263332
vertex 29.44048309 -75.18779755 15.53015614

endloop
endfacet
facet normal 0.6013424993 0.4874837697 0.633045733
outer loop
vertex 29.06682587 -75.20248413 15.89640999
vertex 29.44048309 -75.18779755 15.53015614
vertex 25.72003937 -70.30444336 15.30379772

endloop
endfacet
facet normal 0.6279964447 0.5058590174 0.5913773775
outer loop
vertex 25.72003937 -70.30444336 15.30379772
vertex 29.44048309 -75.18779755 15.53015614
vertex 26.69231415 -70.56349945 14.49291229

endloop
endfacet
facet normal 0.5094420314 -0.4268170595 0.7471920848
outer loop
vertex 25.72003937 -70.30444336 15.30379772
vertex 26.69231415 -70.56349945 14.49291229
vertex 27.59748077 -66.12234497 16.41267395

endloop
endfacet
facet normal 0.2079563439 -0.4263105094 0.8803485036
outer loop
vertex 27.59748077 -66.12234497 16.41267395
vertex 26.69231415 -70.56349945 14.49291229
vertex 27.59749603 -66.12233734 16.41267395

endloop
endfacet
facet normal -nan(ind) -nan(ind) -nan(ind)
outer loop
vertex 17.50849152 -76.30564117 -13.38703918
vertex 17.50849152 -76.30564117 -13.38703918
vertex 19.24744415 -79.45881653 -11.44900894

endloop
endfacet
facet normal 0.1444031149 -0.459120661 -0.8765591383
outer loop
vertex 19.24744415 -79.45881653 -11.44900894
vertex 17.50849152 -76.30564117 -13.38703918
vertex 19.7470932 -79.03152466 -11.59050274

endloop
endfacet
facet normal 0.06797972322 -0.3843644857 -0.9206751585
outer loop
vertex 19.24744415 -79.45881653 -11.44900894
vertex 19.7470932 -79.03152466 -11.59050274
vertex 21.85326385 -83.32316589 -9.643310547

endloop
endfacet
facet normal 0.01689665392 -0.4062304497 -0.9136144519
outer loop
vertex 21.85326385 -83.32316589 -9.643310547
vertex 19.7470932 -79.03152466 -11.59050274
vertex 22.51346588 -82.81079865 -9.858920097

endloop
endfacet
facet normal 0.07940048724 -0.4718274176 -0.8781084418
outer loop
vertex 21.85326385 -83.32316589 -9.643310547
vertex 22.51346588 -82.81079865 -9.858920097
vertex 23.91898346 -85.56278992 -8.253123283

endloop
endfacet
facet normal -0.01828665286 -0.5108473301 -0.8594768643
outer loop
vertex 23.91898346 -85.56278992 -8.253123283
vertex 22.51346588 -82.81079865 -9.858920097
vertex 24.38632965 -85.23753357 -8.456389427

endloop
endfacet
facet normal 0.1994538754 -0.7091892362 -0.6762164831
outer loop
vertex 23.91901398 -85.56278229 -8.253124237
vertex 24.38634491 -85.23753357 -8.456390381
vertex 25.9320755 -87.01629639 -6.134972095

endloop
endfacet
facet normal 0.2760655582 -0.6653349996 -0.6936260462
outer loop
vertex 25.9320755 -87.01629639 -6.134972095
vertex 24.38634491 -85.23753357 -8.456390381
vertex 26.25585175 -86.76296997 -6.249102116

endloop
endfacet
facet normal 0.4021808505 -0.7503690124 -0.5245919824
outer loop
vertex 25.9320755 -87.01629639 -6.134972095
vertex 26.25585175 -86.76296997 -6.249102116
vertex 28.31079865 -87.82542419 -3.153948069

endloop
endfacet
facet normal 0.4796326756 -0.6817257404 -0.5524513125
outer loop
vertex 28.31079865 -87.82542419 -3.153948069
vertex 26.25585175 -86.76296997 -6.249102116
vertex 28.51386261 -87.63043976 -3.218261003

endloop
endfacet
facet normal 0.5942625403 -0.7301335931 -0.3372789025
outer loop
vertex 28.31079865 -87.82542419 -3.153948069
vertex 28.51386261 -87.63043976 -3.218261003
vertex 30.30451202 -88.08848572 0.9283090234

endloop
endfacet
facet normal 0.6155765057 -0.7089639306 -0.3441446424
outer loop
vertex 30.30451202 -88.08848572 0.9283090234
vertex 28.51386261 -87.63043976 -3.218261003
vertex 30.45845795 -87.92227936 0.8612769842

endloop
endfacet
facet normal 0.7047663331 -0.6997954249 -0.1165792495
outer loop
vertex 30.30451202 -88.08848572 0.9283090234
vertex 30.45845795 -87.92227936 0.8612769842
vertex 31.51642609 -87.53554535 4.93563509

endloop
endfacet
facet normal 0.8422345519 -0.5115589499 -0.1701421887
outer loop
vertex 31.51642609 -87.53554535 4.93563509
vertex 30.45845795 -87.92227936 0.8612769842
vertex 31.70540619 -87.18140411 4.806340218

endloop
endfacet
facet normal 0.8931331635 -0.435416609 0.112807475
outer loop
vertex 31.51642609 -87.53554535 4.93563509
vertex 31.70540619 -87.18140411 4.806340218
vertex 31.96889496 -85.80104828 8.048140526

endloop
endfacet
facet normal 0.877007544 -0.4636260569 0.1261297017
outer loop
vertex 31.96889496 -85.80104828 8.048140526
vertex 31.70540619 -87.18140411 4.806340218
vertex 32.26595306 -85.29599762 7.83908987

endloop
endfacet
facet normal 0.8465368152 -0.3226579726 0.4233997166
outer loop
vertex 31.96889496 -85.80104828 8.048140526
vertex 32.26595306 -85.29599762 7.83908987
vertex 31.75435638 -82.81067657 10.75594139

endloop
endfacet
facet normal 0.6663594246 -0.5057986975 0.5478438735
outer loop
vertex 31.75435638 -82.81067657 10.75594139
vertex 32.26595306 -85.29599762 7.83908987
vertex 32.15573883 -82.5520401 10.50651455

endloop
endfacet
facet normal 0.6505709887 -0.3700671196 0.6631800532
outer loop
vertex 31.75435638 -82.81067657 10.75594139
vertex 32.15573883 -82.5520401 10.50651455
vertex 30.83861542 -79.03237915 13.76263332

endloop
endfacet
facet normal 0.5931069851 -0.4158446789 0.6894180179
outer loop
vertex 30.83861542 -79.03237915 13.76263332
vertex 32.15573883 -82.5520401 10.50651455
vertex 31.20162201 -78.96353149 13.49186611

endloop
endfacet
facet normal 0.6088496447 -0.1377514303 0.7812340856
outer loop
vertex 30.83861542 -79.03237915 13.76263332
vertex 31.20162201 -78.96353149 13.49186611
vertex 29.44048309 -75.18779755 15.53015614

endloop
endfacet
facet normal 0.4490534365 -0.2531328201 0.8568983078
outer loop
vertex 29.44048309 -75.18779755 15.53015614
vertex 31.20162201 -78.96353149 13.49186611
vertex 29.93733978 -75.13732147 15.28469181

endloop
endfacet
facet normal 0.370855093 0.4075708389 0.834477365
outer loop
vertex 29.44048309 -75.18779755 15.53015614
vertex 29.93733978 -75.13732147 15.28469181
vertex 26.69231415 -70.56349945 14.49291229

endloop
endfacet
facet normal 0.3402673602 0.3895669878 0.8558362126
outer loop
vertex 26.69231415 -70.56349945 14.49291229
vertex 29.93733978 -75.13732147 15.28469181
vertex 27.79007721 -70.69551086 14.11654854

endloop
endfacet
facet normal 0.2470303774 -0.4264695644 0.8701147437
outer loop
vertex 26.69231415 -70.56349945 14.49291229
vertex 27.79007721 -70.69551086 14.11654854
vertex 27.59749603 -66.12233734 16.41267395

endloop
endfacet
facet normal -0.9989828467 -0.04509297386 0
outer loop
vertex 27.59749603 -66.12233734 16.41267395
vertex 27.79007721 -70.69551086 14.11654854
vertex 27.59749603 -66.12233734 16.41267586

endloop
endfacet
facet normal -nan(ind) -nan(ind) -nan(ind)
outer loop
vertex 17.50849152 -76.30564117 -13.38703918
vertex 17.50849152 -76.30564117 -13.38703918
vertex 19.7470932 -79.03152466 -11.59050274

endloop
endfacet
facet normal -0.1026783735 -0.6048051119 -0.7897265553
outer loop
vertex 19.7470932 -79.03152466 -11.59050274
vertex 17.50849152 -76.30564117 -13.38703918
vertex 20.20058441 -78.69933319 -11.90387058

endloop
endfacet
facet normal -0.1922986507 -0.5216114521 -0.8312296271
outer loop
vertex 19.7470932 -79.03152466 -11.59050274
vertex 20.20058441 -78.69933319 -11.90387058
vertex 22.51346588 -82.81079865 -9.858920097

endloop
endfacet
facet normal -0.1640793532 -0.5117505789 -0.8433204293
outer loop
vertex 22.51346588 -82.81079865 -9.858920097
vertex 20.20058441 -78.69933319 -11.90387058
vertex 23.20774078 -82.34476471 -10.27680302

endloop
endfacet
facet normal -0.115403533 -0.5623093843 -0.8188346624
outer loop
vertex 22.51346588 -82.81079865 -9.858920097
vertex 23.20774078 -82.34476471 -10.27680302
vertex 24.38632965 -85.23753357 -8.456389427

endloop
endfacet
facet normal -0.04910111055 -0.5462235212 -0.8361991048
outer loop
vertex 24.38632965 -85.23753357 -8.456389427
vertex 23.20774078 -82.34476471 -10.27680302
vertex 25.00052643 -84.82666016 -8.760846138

endloop
endfacet
facet normal 0.1695899516 -0.7377143502 -0.6534651518
outer loop
vertex 24.38634491 -85.23753357 -8.456390381
vertex 25.00054169 -84.82665253 -8.760846138
vertex 26.25585175 -86.76296997 -6.249102116

endloop
endfacet
facet normal 0.2576624155 -0.6986994147 -0.6674048305
outer loop
vertex 26.25585175 -86.76296997 -6.249102116
vertex 25.00054169 -84.82665253 -8.760846138
vertex 26.68978119 -86.43228149 -6.427771091

endloop
endfacet
facet normal 0.3814816475 -0.7737958431 -0.5056794882
outer loop
vertex 26.25585175 -86.76296997 -6.249102116
vertex 26.68978119 -86.43228149 -6.427771091
vertex 28.51386261 -87.63043976 -3.218261003

endloop
endfacet
facet normal 0.4559158087 -0.7173031569 -0.5268936157
outer loop
vertex 28.51386261 -87.63043976 -3.218261003
vertex 26.68978119 -86.43228149 -6.427771091
vertex 28.78400421 -87.38921356 -3.312911034

endloop
endfacet
facet normal 0.5646712184 -0.7592810392 -0.3234790862
outer loop
vertex 28.51386261 -87.63043976 -3.218261003
vertex 28.78400421 -87.38921356 -3.312911034
vertex 30.45845795 -87.92227936 0.8612769842

endloop
endfacet
facet normal 0.597219348 -0.7297900319 -0.3327694535
outer loop
vertex 30.45845795 -87.92227936 0.8612769842
vertex 28.78400421 -87.38921356 -3.312911034
vertex 30.666008 -87.71125793 0.7709789872

endloop
endfacet
facet normal 0.6921754479 -0.7168047428 -0.08416698873
outer loop
vertex 30.45845795 -87.92227936 0.8612769842
vertex 30.666008 -87.71125793 0.7709789872
vertex 31.70540619 -87.18140411 4.806340218

endloop
endfacet
facet normal 0.8455881476 -0.5121669173 -0.1505513489
outer loop
vertex 31.70540619 -87.18140411 4.806340218
vertex 30.666008 -87.71125793 0.7709789872
vertex 32.0161972 -86.603508 4.585962772

endloop
endfacet
facet normal 0.8921516538 -0.4386796057 0.1078217924
outer loop
vertex 31.70540619 -87.18140411 4.806340218
vertex 32.0161972 -86.603508 4.585962772
vertex 32.26595306 -85.29599762 7.83908987

endloop
endfacet
facet normal 0.9010294676 -0.4219725132 0.100425221
outer loop
vertex 32.26595306 -85.29599762 7.83908987
vertex 32.0161972 -86.603508 4.585962772
vertex 32.73262787 -84.37789154 7.509768009

endloop
endfacet
facet normal 0.8771281242 -0.3161793053 0.3614926636
outer loop
vertex 32.26595306 -85.29599762 7.83908987
vertex 32.73262787 -84.37789154 7.509768009
vertex 32.15573883 -82.5520401 10.50651455

endloop
endfacet
facet normal 0.759824276 -0.4798586965 0.438637346
outer loop
vertex 32.15573883 -82.5520401 10.50651455
vertex 32.73262787 -84.37789154 7.509768009
vertex 32.66976166 -81.99338531 10.22725964

endloop
endfacet
facet normal 0.7038380504 -0.3342965543 0.6267837286
outer loop
vertex 32.15573883 -82.5520401 10.50651455
vertex 32.66976166 -81.99338531 10.22725964
vertex 31.20162201 -78.96353149 13.49186611

endloop
endfacet
facet normal 0.5842579603 -0.4468528926 0.6774696112
outer loop
vertex 31.20162201 -78.96353149 13.49186611
vertex 32.66976166 -81.99338531 10.22725964
vertex 31.7591629 -78.81454468 13.10930634

endloop
endfacet
facet normal 0.5884422064 -0.1753943264 0.7892861962
outer loop
vertex 31.20162201 -78.96353149 13.49186611
vertex 31.7591629 -78.81454468 13.10930634
vertex 29.93733978 -75.13732147 15.28469181

endloop
endfacet
facet normal 0.6223497391 -0.1465356201 0.7689006329
outer loop
vertex 29.93733978 -75.13732147 15.28469181
vertex 31.7591629 -78.81454468 13.10930634
vertex 30.6448288 -75.12110901 14.71513844

endloop
endfacet
facet normal 0.5532149076 0.451539427 0.7000467777
outer loop
vertex 29.93733978 -75.13732147 15.28469181
vertex 30.6448288 -75.12110901 14.71513844
vertex 27.79007721 -70.69551086 14.11654854

endloop
endfacet
facet normal 0.2145997435 0.2655569315 0.93990767
outer loop
vertex 27.79007721 -70.69551086 14.11654854
vertex 30.6448288 -75.12110901 14.71513844
vertex 29.08472443 -70.77018738 13.84205341

endloop
endfacet
facet normal 0.1623224318 -0.4372858703 0.8845521212
outer loop
vertex 27.79007721 -70.69551086 14.11654854
vertex 29.08472443 -70.77018738 13.84205341
vertex 27.59749603 -66.12233734 16.41267586

endloop
endfacet
facet normal 0.9486833215 0.3162277639 0
outer loop
vertex 27.59749603 -66.12233734 16.41267586
vertex 29.08472443 -70.77018738 13.84205341
vertex 27.59749603 -66.12233734 16.41267395

endloop
endfacet
facet normal -0.6644756198 -0.7473100424 0
outer loop
vertex 17.50849152 -76.30564117 -13.38703918
vertex 17.50849152 -76.30564117 -13.38704014
vertex 20.20058441 -78.69933319 -11.90387058

endloop
endfacet
facet normal -0.2471332252 -0.6957983971 -0.6743810177
outer loop
vertex 20.20058441 -78.69933319 -11.90387058
vertex 17.50849152 -76.30564117 -13.38704014
vertex 20.7735672 -78.30903625 -12.51653767

endloop
endfacet
facet normal -0.3496551216 -0.6069687009 -0.7136737704
outer loop
vertex 20.20058441 -78.69933319 -11.90387058
vertex 20.7735672 -78.30903625 -12.51653767
vertex 23.20774078 -82.34476471 -10.27680302

endloop
endfacet
facet normal -0.3807846308 -0.6135796309 -0.6917536259
outer loop
vertex 23.20774078 -82.34476471 -10.27680302
vertex 20.7735672 -78.30903625 -12.51653767
vertex 23.93412018 -82.00133514 -10.98126698

endloop
endfacet
facet normal -0.3412402272 -0.6570634842 -0.6721775532
outer loop
vertex 23.20774078 -82.34476471 -10.27680302
vertex 23.93412018 -82.00133514 -10.98126698
vertex 25.00052643 -84.82666016 -8.760846138

endloop
endfacet
facet normal -0.1034386307 -0.6384395957 -0.7626895905
outer loop
vertex 25.00052643 -84.82666016 -8.760846138
vertex 23.93412018 -82.00133514 -10.98126698
vertex 25.8348465 -84.37870789 -9.248975754

endloop
endfacet
facet normal 0.07500328869 -0.795262754 -0.6016075015
outer loop
vertex 25.00054169 -84.82665253 -8.760846138
vertex 25.83486176 -84.37870026 -9.248976707
vertex 26.68978119 -86.43228149 -6.427771091

endloop
endfacet
facet normal 0.1430831105 -0.7790400386 -0.610429287
outer loop
vertex 26.68978119 -86.43228149 -6.427771091
vertex 25.83486176 -84.37870026 -9.248976707
vertex 27.34593964 -86.05181885 -6.759521961

endloop
endfacet
facet normal 0.2705731094 -0.8540465236 -0.444291234
outer loop
vertex 26.68978119 -86.43228149 -6.427771091
vertex 27.34593964 -86.05181885 -6.759521961
vertex 28.78400421 -87.38921356 -3.312911034

endloop
endfacet
facet normal 0.309992671 -0.8355711102 -0.4535695612
outer loop
vertex 28.78400421 -87.38921356 -3.312911034
vertex 27.34593964 -86.05181885 -6.759521961
vertex 29.24045563 -87.11418152 -3.507616043

endloop
endfacet
facet normal 0.414635241 -0.8720982671 -0.2598501742
outer loop
vertex 28.78400421 -87.38921356 -3.312911034
vertex 29.24045563 -87.11418152 -3.507616043
vertex 30.666008 -87.71125793 0.7709789872

endloop
endfacet
facet normal 0.4174268246 -0.8705521822 -0.2605645359
outer loop
vertex 30.666008 -87.71125793 0.7709789872
vertex 29.24045563 -87.11418152 -3.507616043
vertex 31.18647003 -87.40520477 0.5822330117

endloop
endfacet
facet normal 0.522529304 -0.8503650427 0.06198675185
outer loop
vertex 30.666008 -87.71125793 0.7709789872
vertex 31.18647003 -87.40520477 0.5822330117
vertex 32.0161972 -86.603508 4.585962772

endloop
endfacet
facet normal 0.572386682 -0.8187305331 0.04531994089
outer loop
vertex 32.0161972 -86.603508 4.585962772
vertex 31.18647003 -87.40520477 0.5822330117
vertex 32.88109589 -86.01081848 4.369646072

endloop
endfacet
facet normal 0.5844069123 -0.7082967162 0.3959599435
outer loop
vertex 32.0161972 -86.603508 4.585962772
vertex 32.88109589 -86.01081848 4.369646072
vertex 32.73262787 -84.37789154 7.509768009

endloop
endfacet
facet normal 0.5678372979 -0.7190028429 0.4007439315
outer loop
vertex 32.73262787 -84.37789154 7.509768009
vertex 32.88109589 -86.01081848 4.369646072
vertex 33.94532013 -83.53302765 7.307263851

endloop
endfacet
facet normal 0.53310287 -0.6297878623 0.5649500489
outer loop
vertex 32.73262787 -84.37789154 7.509768009
vertex 33.94532013 -83.53302765 7.307263851
vertex 32.66976166 -81.99338531 10.22725964

endloop
endfacet
facet normal 0.4370812476 -0.7026736736 0.5614353418
outer loop
vertex 32.66976166 -81.99338531 10.22725964
vertex 33.94532013 -83.53302765 7.307263851
vertex 33.99828339 -81.34519958 10.00424385

endloop
endfacet
facet normal 0.3931941986 -0.5532087684 0.7344102263
outer loop
vertex 32.66976166 -81.99338531 10.22725964
vertex 33.99828339 -81.34519958 10.00424385
vertex 31.7591629 -78.81454468 13.10930634

endloop
endfacet
facet normal 0.2903586328 -0.6284791827 0.7215995789
outer loop
vertex 31.7591629 -78.81454468 13.10930634
vertex 33.99828339 -81.34519958 10.00424385
vertex 33.17395782 -78.60023499 12.72667217

endloop
endfacet
facet normal 0.2914726734 -0.3060947061 0.9062834978
outer loop
vertex 31.7591629 -78.81454468 13.10930634
vertex 33.17395782 -78.60023499 12.72667217
vertex 30.6448288 -75.12110901 14.71513844

endloop
endfacet
facet normal 0.4040285051 -0.2145288885 0.8892346621
outer loop
vertex 30.6448288 -75.12110901 14.71513844
vertex 33.17395782 -78.60023499 12.72667217
vertex 32.1725235 -75.08519745 14.02968597

endloop
endfacet
facet normal 0.3828505576 0.3117796779 0.8696084619
outer loop
vertex 30.6448288 -75.12110901 14.71513844
vertex 32.1725235 -75.08519745 14.02968597
vertex 29.08472443 -70.77018738 13.84205341

endloop
endfacet
facet normal 0.116163075 0.1259662807 0.9852100015
outer loop
vertex 29.08472443 -70.77018738 13.84205341
vertex 32.1725235 -75.08519745 14.02968597
vertex 30.93927765 -70.71929169 13.61688137

endloop
endfacet
facet normal 0.1197676063 -0.4508804381 0.8845126629
outer loop
vertex 29.08472443 -70.77018738 13.84205341
vertex 30.93927765 -70.71929169 13.61688137
vertex 27.59749603 -66.12233734 16.41267395

endloop
endfacet
facet normal -nan(ind) -nan(ind) -nan(ind)
outer loop
vertex 27.59749603 -66.12233734 16.41267395
vertex 30.93927765 -70.71929169 13.61688137
vertex 27.59749603 -66.12233734 16.41267395

endloop
endfacet
facet normal 0.5229831934 0.8523429632 0
outer loop
vertex 17.50849152 -76.30564117 -13.38704014
vertex 17.50849152 -76.30564117 -13.38703823
vertex 20.7735672 -78.30903625 -12.51653767

endloop
endfacet
facet normal -0.1682897806 -0.6105419993 -0.7738972306
outer loop
vertex 20.7735672 -78.30903625 -12.51653767
vertex 17.50849152 -76.30564117 -13.38703823
vertex 21.9079361 -77.36992645 -13.50409603

endloop
endfacet
facet normal -0.2469066978 -0.5446209311 -0.8015142679
outer loop
vertex 20.7735672 -78.30903625 -12.51653767
vertex 21.9079361 -77.36992645 -13.50409603
vertex 23.93412018 -82.00133514 -10.98126698

endloop
endfacet
facet normal -0.5253850222 -0.5726521611 -0.629317224
outer loop
vertex 23.93412018 -82.00133514 -10.98126698
vertex 21.9079361 -77.36992645 -13.50409603
vertex 24.72353363 -81.75561523 -11.86390305

endloop
endfacet
facet normal -0.399120599 -0.7265990376 -0.5592464209
outer loop
vertex 23.93412018 -82.00133514 -10.98126698
vertex 24.72353363 -81.75561523 -11.86390305
vertex 25.8348465 -84.37870789 -9.248975754

endloop
endfacet
facet normal -0.3223941028 -0.7333148718 -0.5985910892
outer loop
vertex 25.8348465 -84.37870789 -9.248975754
vertex 24.72353363 -81.75561523 -11.86390305
vertex 26.75559235 -84.18803406 -9.978466988

endloop
endfacet
facet normal -0.1899208277 -0.8643559813 -0.4656380415
outer loop
vertex 25.83486176 -84.37870026 -9.248976707
vertex 26.7556076 -84.18802643 -9.978467941
vertex 27.34593964 -86.05181885 -6.759521961

endloop
endfacet
facet normal -0.164737314 -0.8663811088 -0.4714291096
outer loop
vertex 27.34593964 -86.05181885 -6.759521961
vertex 26.7556076 -84.18802643 -9.978467941
vertex 28.2591629 -85.90981293 -7.339615822

endloop
endfacet
facet normal -0.03629663959 -0.955984354 -0.2911638618
outer loop
vertex 27.34593964 -86.05181885 -6.759521961
vertex 28.2591629 -85.90981293 -7.339615822
vertex 29.24045563 -87.11418152 -3.507616043

endloop
endfacet
facet normal -0.0285939388 -0.9556729198 -0.2930384874
outer loop
vertex 29.24045563 -87.11418152 -3.507616043
vertex 28.2591629 -85.90981293 -7.339615822
vertex 30.11695099 -87.0163269 -3.912271023

endloop
endfacet
facet normal 0.0641354993 -0.9928005338 -0.1011618376
outer loop
vertex 29.24045563 -87.11418152 -3.507616043
vertex 30.11695099 -87.0163269 -3.912271023
vertex 31.18647003 -87.40520477 0.5822330117

endloop
endfacet
facet normal 0.1425674707 -0.9826121926 -0.1189441159
outer loop
vertex 31.18647003 -87.40520477 0.5822330117
vertex 30.11695099 -87.0163269 -3.912271023
vertex 32.49274445 -87.17250824 0.2256100029

endloop
endfacet
facet normal 0.2338302881 -0.9416632056 0.2420616299
outer loop
vertex 31.18647003 -87.40520477 0.5822330117
vertex 32.49274445 -87.17250824 0.2256100029
vertex 32.88109589 -86.01081848 4.369646072

endloop
endfacet
facet normal -0.07073677331 -0.9587274194 0.2753872275
outer loop
vertex 32.88109589 -86.01081848 4.369646072
vertex 32.49274445 -87.17250824 0.2256100029
vertex 34.83165741 -86.14485931 4.404026031

endloop
endfacet
facet normal -0.06321540475 -0.7514642477 0.6567384601
outer loop
vertex 32.88109589 -86.01081848 4.369646072
vertex 34.83165741 -86.14485931 4.404026031
vertex 33.94532013 -83.53302765 7.307263851

endloop
endfacet
facet normal -0.2929492891 -0.7535639405 0.5884913802
outer loop
vertex 33.94532013 -83.53302765 7.307263851
vertex 34.83165741 -86.14485931 4.404026031
vertex 36.43965912 -84.09221649 7.832896233

endloop
endfacet
facet normal -0.2934470177 -0.7395852804 0.6057246923
outer loop
vertex 33.94532013 -83.53302765 7.307263851
vertex 36.43965912 -84.09221649 7.832896233
vertex 33.99828339 -81.34519958 10.00424385

endloop
endfacet
facet normal -0.143692717 -0.6891199946 0.710257709
outer loop
vertex 33.99828339 -81.34519958 10.00424385
vertex 36.43965912 -84.09221649 7.832896233
vertex 36.87197113 -81.45470428 10.47937584

endloop
endfacet
facet normal -0.1400707066 -0.7181319594 0.6816645265
outer loop
vertex 33.99828339 -81.34519958 10.00424385
vertex 36.87197113 -81.45470428 10.47937584
vertex 33.17395782 -78.60023499 12.72667217

endloop
endfacet
facet normal -0.09232367575 -0.687034905 0.7207353115
outer loop
vertex 33.17395782 -78.60023499 12.72667217
vertex 36.87197113 -81.45470428 10.47937584
vertex 36.13585663 -78.48149109 13.21927261

endloop
endfacet
facet normal -0.1370778382 -0.3784024715 0.9154350162
outer loop
vertex 33.17395782 -78.60023499 12.72667217
vertex 36.13585663 -78.48149109 13.21927261
vertex 32.1725235 -75.08519745 14.02968597

endloop
endfacet
facet normal -0.1691749394 -0.4111562967 0.8957290053
outer loop
vertex 32.1725235 -75.08519745 14.02968597
vertex 36.13585663 -78.48149109 13.21927261
vertex 35.13024139 -74.81629944 14.71173477

endloop
endfacet
facet normal -0.2270243019 0.02791720629 0.9734889269
outer loop
vertex 32.1725235 -75.08519745 14.02968597
vertex 35.13024139 -74.81629944 14.71173477
vertex 30.93927765 -70.71929169 13.61688137

endloop
endfacet
facet normal -0.2967605889 -0.04870411009 0.9537091255
outer loop
vertex 30.93927765 -70.71929169 13.61688137
vertex 35.13024139 -74.81629944 14.71173477
vertex 33.85501862 -70.21639252 14.54983902

endloop
endfacet
facet normal -0.1513384283 -0.5916255713 0.7918812037
outer loop
vertex 30.93927765 -70.71929169 13.61688137
vertex 33.85501862 -70.21639252 14.54983902
vertex 27.59749603 -66.12233734 16.41267395

endloop
endfacet
facet normal -0.2785244584 0 -0.960429132
outer loop
vertex 27.59749603 -66.12233734 16.41267395
vertex 33.85501862 -70.21639252 14.54983902
vertex 27.59749603 -66.12234497 16.41267395

endloop
endfacet
facet normal -0.05631809682 -0.1238378733 -0.9907029867
outer loop
vertex 17.50849152 -76.30564117 -13.38703823
vertex 17.50849152 -76.30563354 -13.38703918
vertex 21.9079361 -77.36992645 -13.50409603

endloop
endfacet
facet normal -0.2047771662 -0.7816918492 -0.5890876651
outer loop
vertex 21.9079361 -77.36992645 -13.50409603
vertex 17.50849152 -76.30563354 -13.38703918
vertex 23.38977814 -76.28816986 -15.45465088

endloop
endfacet
facet normal -0.4796288311 -0.5604306459 -0.6751841903
outer loop
vertex 21.9079361 -77.36992645 -13.50409603
vertex 23.38977814 -76.28816986 -15.45465088
vertex 24.72353363 -81.75561523 -11.86390305

endloop
endfacet
facet normal -0.5255064964 -0.5528849363 -0.6466539502
outer loop
vertex 24.72353363 -81.75561523 -11.86390305
vertex 23.38977814 -76.28816986 -15.45465088
vertex 25.98317719 -81.33157349 -13.25011158

endloop
endfacet
facet normal -0.3675409257 -0.7418204546 -0.5609065294
outer loop
vertex 24.72353363 -81.75561523 -11.86390305
vertex 25.98317719 -81.33157349 -13.25011158
vertex 26.75559235 -84.18803406 -9.978466988

endloop
endfacet
facet normal -0.5014199615 -0.7069259882 -0.4988323152
outer loop
vertex 26.75559235 -84.18803406 -9.978466988
vertex 25.98317719 -81.33157349 -13.25011158
vertex 27.96602631 -84.24037933 -11.12099838

endloop
endfacet
facet normal -0.3688368797 -0.8605398536 -0.3513267338
outer loop
vertex 26.7556076 -84.18802643 -9.978467941
vertex 27.96602631 -84.2403717 -11.12099934
vertex 28.2591629 -85.90981293 -7.339615822

endloop
endfacet
facet normal -0.3794108629 -0.8569190502 -0.3489085436
outer loop
vertex 28.2591629 -85.90981293 -7.339615822
vertex 27.96602631 -84.2403717 -11.12099934
vertex 29.7674942 -86.16931915 -8.342461586

endloop
endfacet
facet normal -0.2698919475 -0.9494640231 -0.1602386683
outer loop
vertex 28.2591629 -85.90981293 -7.339615822
vertex 29.7674942 -86.16931915 -8.342461586
vertex 30.11695099 -87.0163269 -3.912271023

endloop
endfacet
facet normal -0.2656315565 -0.9505721331 -0.160786584
outer loop
vertex 30.11695099 -87.0163269 -3.912271023
vertex 29.7674942 -86.16931915 -8.342461586
vertex 31.9539566 -87.40732574 -4.635552883

endloop
endfacet
facet normal -0.182182163 -0.9809398651 0.06757630408
outer loop
vertex 30.11695099 -87.0163269 -3.912271023
vertex 31.9539566 -87.40732574 -4.635552883
vertex 32.49274445 -87.17250824 0.2256100029

endloop
endfacet
facet normal -0.2976245284 -0.9514133334 0.07894509286
outer loop
vertex 32.49274445 -87.17250824 0.2256100029
vertex 31.9539566 -87.40732574 -4.635552883
vertex 34.58182526 -87.84751129 -0.03337100148

endloop
endfacet
facet normal -0.2463096976 -0.9001470804 0.3592586517
outer loop
vertex 32.49274445 -87.17250824 0.2256100029
vertex 34.58182526 -87.84751129 -0.03337100148
vertex 34.83165741 -86.14485931 4.404026031

endloop
endfacet
facet normal -0.4351212382 -0.8321492672 0.3437978923
outer loop
vertex 34.83165741 -86.14485931 4.404026031
vertex 34.58182526 -87.84751129 -0.03337100148
vertex 37.2478714 -87.27669525 4.722496986

endloop
endfacet
facet normal -0.4024745524 -0.6898798943 0.6017307639
outer loop
vertex 34.83165741 -86.14485931 4.404026031
vertex 37.2478714 -87.27669525 4.722496986
vertex 36.43965912 -84.09221649 7.832896233

endloop
endfacet
facet normal -0.5268905163 -0.6585412025 0.5373172164
outer loop
vertex 36.43965912 -84.09221649 7.832896233
vertex 37.2478714 -87.27669525 4.722496986
vertex 39.03255463 -85.43495178 8.7298069

endloop
endfacet
facet normal -0.5151976943 -0.563519001 0.6457689404
outer loop
vertex 36.43965912 -84.09221649 7.832896233
vertex 39.03255463 -85.43495178 8.7298069
vertex 36.87197113 -81.45470428 10.47937584

endloop
endfacet
facet normal -0.5460113287 -0.5673492551 0.6164304614
outer loop
vertex 36.87197113 -81.45470428 10.47937584
vertex 39.03255463 -85.43495178 8.7298069
vertex 39.28786469 -82.37075806 11.77616882

endloop
endfacet
facet normal -0.5375133157 -0.6395480037 0.5495977998
outer loop
vertex 36.87197113 -81.45470428 10.47937584
vertex 39.28786469 -82.37075806 11.77616882
vertex 36.13585663 -78.48149109 13.21927261

endloop
endfacet
facet normal -0.4139135182 -0.5920312405 0.6915017366
outer loop
vertex 36.13585663 -78.48149109 13.21927261
vertex 39.28786469 -82.37075806 11.77616882
vertex 38.69487762 -78.73911285 14.53046703

endloop
endfacet
facet normal -0.4442223907 -0.4397315979 0.7805783749
outer loop
vertex 36.13585663 -78.48149109 13.21927261
vertex 38.69487762 -78.73911285 14.53046703
vertex 35.13024139 -74.81629944 14.71173477

endloop
endfacet
facet normal -0.3758955002 -0.380614996 0.8448874354
outer loop
vertex 35.13024139 -74.81629944 14.71173477
vertex 38.69487762 -78.73911285 14.53046703
vertex 37.73491669 -74.52020264 16.00395966

endloop
endfacet
facet normal -0.4345381856 -0.08892212063 0.8962529898
outer loop
vertex 35.13024139 -74.81629944 14.71173477
vertex 37.73491669 -74.52020264 16.00395966
vertex 33.85501862 -70.21639252 14.54983902

endloop
endfacet
facet normal -0.4456813633 -0.1012678295 0.8894453049
outer loop
vertex 33.85501862 -70.21639252 14.54983902
vertex 37.73491669 -74.52020264 16.00395966
vertex 36.180336 -69.58547211 15.78683758

endloop
endfacet
facet normal -0.2102181166 -0.6525536776 0.7279986739
outer loop
vertex 33.85501862 -70.21639252 14.54983902
vertex 36.180336 -69.58547211 15.78683758
vertex 27.59749603 -66.12234497 16.41267395

endloop
endfacet
facet normal 0.073331438 0 0.9973075986
outer loop
vertex 27.59749603 -66.12234497 16.41267395
vertex 36.180336 -69.58547211 15.78683758
vertex 27.59749603 -66.12233734 16.41267395

endloop
endfacet
facet normal 0.2902676165 0.4768241644 0.8296887875
outer loop
vertex 17.50849152 -76.30563354 -13.38703918
vertex 17.50850677 -76.30564117 -13.38704014
vertex 23.38977814 -76.28816986 -15.45465088

endloop
endfacet
facet normal -0.1136900038 -0.9366497397 -0.3313032687
outer loop
vertex 23.38977814 -76.28816986 -15.45465088
vertex 17.50850677 -76.30564117 -13.38704014
vertex 25.21895599 -75.27048492 -18.95951653

endloop
endfacet
facet normal -0.6573873162 -0.5589505434 -0.5053871274
outer loop
vertex 23.38977814 -76.28816986 -15.45465088
vertex 25.21895599 -75.27048492 -18.95951653
vertex 25.98317719 -81.33157349 -13.25011158

endloop
endfacet
facet normal -0.6155428886 -0.5801141262 -0.5334553123
outer loop
vertex 25.98317719 -81.33157349 -13.25011158
vertex 25.21895599 -75.27048492 -18.95951653
vertex 28.07514191 -80.91786957 -16.11387444

endloop
endfacet
facet normal -0.519215107 -0.7062288523 -0.4813070893
outer loop
vertex 25.98317719 -81.33157349 -13.25011158
vertex 28.07514191 -80.91786957 -16.11387444
vertex 27.96602631 -84.24037933 -11.12099838

endloop
endfacet
facet normal -0.5877771378 -0.6675423384 -0.457061559
outer loop
vertex 27.96602631 -84.24037933 -11.12099838
vertex 28.07514191 -80.91786957 -16.11387444
vertex 30.09008026 -84.53179169 -13.42690277

endloop
endfacet
facet normal -0.4419558942 -0.8452849388 -0.3002805412
outer loop
vertex 27.96602631 -84.2403717 -11.12099934
vertex 30.09009552 -84.53178406 -13.42690468
vertex 29.7674942 -86.16931915 -8.342461586

endloop
endfacet
facet normal -0.5941265225 -0.7538801432 -0.2804970145
outer loop
vertex 29.7674942 -86.16931915 -8.342461586
vertex 30.09009552 -84.53178406 -13.42690468
vertex 31.88434601 -87.2261734 -9.98574543

endloop
endfacet
facet normal -0.4614198506 -0.8868565559 -0.02402463928
outer loop
vertex 29.7674942 -86.16931915 -8.342461586
vertex 31.88434601 -87.2261734 -9.98574543
vertex 31.9539566 -87.40732574 -4.635552883

endloop
endfacet
facet normal -0.5607346892 -0.8277359605 -0.02073070034
outer loop
vertex 31.9539566 -87.40732574 -4.635552883
vertex 31.88434601 -87.2261734 -9.98574543
vertex 34.2907486 -88.96646118 -5.589108944

endloop
endfacet
facet normal -0.4872956574 -0.8507542014 0.196876049
outer loop
vertex 31.9539566 -87.40732574 -4.635552883
vertex 34.2907486 -88.96646118 -5.589108944
vertex 34.58182526 -87.84751129 -0.03337100148

endloop
endfacet
facet normal -0.546887219 -0.8147180676 0.1927403361
outer loop
vertex 34.58182526 -87.84751129 -0.03337100148
vertex 34.2907486 -88.96646118 -5.589108944
vertex 37.27378082 -89.7154007 -0.2907490134

endloop
endfacet
facet normal -0.5037837029 -0.7778179049 0.375767678
outer loop
vertex 34.58182526 -87.84751129 -0.03337100148
vertex 37.27378082 -89.7154007 -0.2907490134
vertex 37.2478714 -87.27669525 4.722496986

endloop
endfacet
facet normal -0.484603256 -0.7875846624 0.3806179464
outer loop
vertex 37.2478714 -87.27669525 4.722496986
vertex 37.27378082 -89.7154007 -0.2907490134
vertex 40.45059967 -89.11384583 4.998733997

endloop
endfacet
facet normal -0.4555748999 -0.7143374681 0.5312000513
outer loop
vertex 37.2478714 -87.27669525 4.722496986
vertex 40.45059967 -89.11384583 4.998733997
vertex 39.03255463 -85.43495178 8.7298069

endloop
endfacet
facet normal -0.5084018707 -0.7019015551 0.4988604188
outer loop
vertex 39.03255463 -85.43495178 8.7298069
vertex 40.45059967 -89.11384583 4.998733997
vertex 42.05516815 -86.99880981 9.609869003

endloop
endfacet
facet normal -0.4922689795 -0.5927270055 0.6374527216
outer loop
vertex 39.03255463 -85.43495178 8.7298069
vertex 42.05516815 -86.99880981 9.609869003
vertex 39.28786469 -82.37075806 11.77616882

endloop
endfacet
facet normal -0.7372531295 -0.5926613808 0.3243615329
outer loop
vertex 39.28786469 -82.37075806 11.77616882
vertex 42.05516815 -86.99880981 9.609869003
vertex 41.02858734 -83.60340881 13.48046684

endloop
endfacet
facet normal -0.7653694749 -0.4635657966 0.4464485049
outer loop
vertex 39.28786469 -82.37075806 11.77616882
vertex 41.02858734 -83.60340881 13.48046684
vertex 38.69487762 -78.73911285 14.53046703

endloop
endfacet
facet normal -0.7610364556 -0.4631619155 0.454207778
outer loop
vertex 38.69487762 -78.73911285 14.53046703
vertex 41.02858734 -83.60340881 13.48046684
vertex 40.14293671 -79.26759338 16.41782761

endloop
endfacet
facet normal -0.7870303392 -0.3552354872 0.5043718219
outer loop
vertex 38.69487762 -78.73911285 14.53046703
vertex 40.14293671 -79.26759338 16.41782761
vertex 37.73491669 -74.52020264 16.00395966

endloop
endfacet
facet normal -0.7052275538 -0.3017840683 0.6415453553
outer loop
vertex 37.73491669 -74.52020264 16.00395966
vertex 40.14293671 -79.26759338 16.41782761
vertex 39.20020294 -74.35036469 17.69458771

endloop
endfacet
facet normal -0.7301102877 -0.2012736797 0.6530144215
outer loop
vertex 37.73491669 -74.52020264 16.00395966
vertex 39.20020294 -74.35036469 17.69458771
vertex 36.180336 -69.58547211 15.78683758

endloop
endfacet
facet normal -0.7439832687 -0.2187256515 0.631385684
outer loop
vertex 36.180336 -69.58547211 15.78683758
vertex 39.20020294 -74.35036469 17.69458771
vertex 37.33652496 -68.95411682 17.36792946

endloop
endfacet
facet normal -0.2844862938 -0.8004085422 0.527649343
outer loop
vertex 36.180336 -69.58547211 15.78683758
vertex 37.33652496 -68.95411682 17.36792946
vertex 27.59749603 -66.12233734 16.41267395

endloop
endfacet
facet normal -0.2780580819 -0.9605642557 0
outer loop
vertex 27.59749603 -66.12233734 16.41267395
vertex 37.33652496 -68.95411682 17.36792946
vertex 27.59749603 -66.12233734 16.41267586

endloop
endfacet
facet normal -0.02738354728 -0.9753251672 -0.2190683782
outer loop
vertex 17.50850677 -76.30564117 -13.38704014
vertex 17.50849152 -76.30564117 -13.38703823
vertex 25.21895599 -75.27048492 -18.95951653

endloop
endfacet
facet normal 0.2434907854 -0.9567514062 0.1591823101
outer loop
vertex 25.21895599 -75.27048492 -18.95951653
vertex 17.50849152 -76.30564117 -13.38703823
vertex 26.00891876 -75.85623169 -23.68845177

endloop
endfacet
facet normal -0.8710540533 -0.4836709797 -0.08559887856
outer loop
vertex 25.21895599 -75.27048492 -18.95951653
vertex 26.00891876 -75.85623169 -23.68845177
vertex 28.07514191 -80.91786957 -16.11387444

endloop
endfacet
facet normal -0.7723833323 -0.6049464941 -0.1935558617
outer loop
vertex 28.07514191 -80.91786957 -16.11387444
vertex 26.00891876 -75.85623169 -23.68845177
vertex 29.75104523 -81.64044952 -20.54317856

endloop
endfacet
facet normal -0.7843701243 -0.5868068933 -0.2010504752
outer loop
vertex 28.07514191 -80.91786957 -16.11387444
vertex 29.75104523 -81.64044952 -20.54317856
vertex 30.09008026 -84.53179169 -13.42690277

endloop
endfacet
facet normal -0.7888126373 -0.5816190243 -0.1987310052
outer loop
vertex 30.09008026 -84.53179169 -13.42690277
vertex 29.75104523 -81.64044952 -20.54317856
vertex 32.00235748 -86.04155731 -16.59862709

endloop
endfacet
facet normal -0.7393972874 -0.6603057384 -0.1314838678
outer loop
vertex 30.09009552 -84.53178406 -13.42690468
vertex 32.00237274 -86.04154205 -16.598629
vertex 31.88434601 -87.2261734 -9.98574543

endloop
endfacet
facet normal -0.7644053698 -0.632127583 -0.1268823892
outer loop
vertex 31.88434601 -87.2261734 -9.98574543
vertex 32.00237274 -86.04154205 -16.598629
vertex 34.33826447 -89.71762085 -12.35704327

endloop
endfacet
facet normal -0.672752142 -0.735855639 0.07694794983
outer loop
vertex 31.88434601 -87.2261734 -9.98574543
vertex 34.33826447 -89.71762085 -12.35704327
vertex 34.2907486 -88.96646118 -5.589108944

endloop
endfacet
facet normal -0.7336420417 -0.6759346128 0.06986994296
outer loop
vertex 34.2907486 -88.96646118 -5.589108944
vertex 34.33826447 -89.71762085 -12.35704327
vertex 37.13533783 -92.2159729 -7.156982899

endloop
endfacet
facet normal -0.656226635 -0.7046586871 0.2698568106
outer loop
vertex 34.2907486 -88.96646118 -5.589108944
vertex 37.13533783 -92.2159729 -7.156982899
vertex 37.27378082 -89.7154007 -0.2907490134

endloop
endfacet
facet normal -0.5514178872 -0.780228734 0.2952649593
outer loop
vertex 37.27378082 -89.7154007 -0.2907490134
vertex 37.13533783 -92.2159729 -7.156982899
vertex 41.0341568 -92.75307465 -1.295073986

endloop
endfacet
facet normal -0.5115577579 -0.7635538578 0.3940736651
outer loop
vertex 37.27378082 -89.7154007 -0.2907490134
vertex 41.0341568 -92.75307465 -1.295073986
vertex 40.45059967 -89.11384583 4.998733997

endloop
endfacet
facet normal -0.4567908645 -0.7878013253 0.4131720662
outer loop
vertex 40.45059967 -89.11384583 4.998733997
vertex 41.0341568 -92.75307465 -1.295073986
vertex 44.62432098 -91.6397171 4.796960831

endloop
endfacet
facet normal -0.4319480658 -0.7533565164 0.4958576262
outer loop
vertex 40.45059967 -89.11384583 4.998733997
vertex 44.62432098 -91.6397171 4.796960831
vertex 42.05516815 -86.99880981 9.609869003

endloop
endfacet
facet normal -0.5888828039 -0.7155998945 0.375677824
outer loop
vertex 42.05516815 -86.99880981 9.609869003
vertex 44.62432098 -91.6397171 4.796960831
vertex 45.20954132 -89.10074615 10.55059719

endloop
endfacet
facet normal -0.5849997997 -0.6802705526 0.4415962994
outer loop
vertex 42.05516815 -86.99880981 9.609869003
vertex 45.20954132 -89.10074615 10.55059719
vertex 41.02858734 -83.60340881 13.48046684

endloop
endfacet
facet normal -0.7698060274 -0.6322213411 0.08772075921
outer loop
vertex 41.02858734 -83.60340881 13.48046684
vertex 45.20954132 -89.10074615 10.55059719
vertex 42.40680695 -85.02519226 15.32814693

endloop
endfacet
facet normal -0.8551909924 -0.3988948762 0.3309549391
outer loop
vertex 41.02858734 -83.60340881 13.48046684
vertex 42.40680695 -85.02519226 15.32814693
vertex 40.14293671 -79.26759338 16.41782761

endloop
endfacet
facet normal -0.9168686867 -0.3822711408 0.1149808839
outer loop
vertex 40.14293671 -79.26759338 16.41782761
vertex 42.40680695 -85.02519226 15.32814693
vertex 40.69019318 -79.90734863 18.65474129

endloop
endfacet
facet normal -0.9588496685 -0.2278221101 0.1694237441
outer loop
vertex 40.14293671 -79.26759338 16.41782761
vertex 40.69019318 -79.90734863 18.65474129
vertex 39.20020294 -74.35036469 17.69458771

endloop
endfacet
facet normal -0.9460604191 -0.211217761 0.2456763834
outer loop
vertex 39.20020294 -74.35036469 17.69458771
vertex 40.69019318 -79.90734863 18.65474129
vertex 39.75301361 -74.2571106 19.90354729

endloop
endfacet
facet normal -0.9212502241 -0.3034363985 0.2433605641
outer loop
vertex 39.20020294 -74.35036469 17.69458771
vertex 39.75301361 -74.2571106 19.90354729
vertex 37.33652496 -68.95411682 17.36792946

endloop
endfacet
facet normal -0.9104311466 -0.2616849244 0.3203688562
outer loop
vertex 37.33652496 -68.95411682 17.36792946
vertex 39.75301361 -74.2571106 19.90354729
vertex 37.89298248 -68.14644623 19.60900688

endloop
endfacet
facet normal -0.2922281027 -0.8742644787 0.3876395226
outer loop
vertex 37.33652496 -68.95411682 17.36792946
vertex 37.89298248 -68.14644623 19.60900688
vertex 27.59749603 -66.12233734 16.41267586

endloop
endfacet
facet normal 0.3349082172 0.2232721448 -0.9154157639
outer loop
vertex 27.59749603 -66.12233734 16.41267586
vertex 37.89298248 -68.14644623 19.60900688
vertex 27.59749603 -66.12234497 16.41267395

endloop
endfacet
facet normal 0.0527953133 -0.9986053705 0
outer loop
vertex 17.50849152 -76.30564117 -13.38703823
vertex 17.50849152 -76.30564117 -13.38703918
vertex 26.00891876 -75.85623169 -23.68845177

endloop
endfacet
facet normal 0.5555617809 -0.7132683396 0.427316457
outer loop
vertex 26.00891876 -75.85623169 -23.68845177
vertex 17.50849152 -76.30564117 -13.38703918
vertex 18.35845184 -85.44934845 -29.75458717

endloop
endfacet
facet normal -0.6313441992 0.01318167523 0.7753907442
outer loop
vertex 26.00891876 -75.85623169 -23.68845177
vertex 18.35845184 -85.44934845 -29.75458717
vertex 29.75104523 -81.64044952 -20.54317856

endloop
endfacet
facet normal -0.5591911077 -0.2437539995 0.7923946977
outer loop
vertex 29.75104523 -81.64044952 -20.54317856
vertex 18.35845184 -85.44934845 -29.75458717
vertex 24.00814056 -91.59072113 -27.65680504

endloop
endfacet
facet normal -0.8260689974 0.07771851867 0.5581843853
outer loop
vertex 29.75104523 -81.64044952 -20.54317856
vertex 24.00814056 -91.59072113 -27.65680504
vertex 32.00235748 -86.04155731 -16.59862709

endloop
endfacet
facet normal -0.7565268874 -0.1690397561 0.6317378283
outer loop
vertex 32.00235748 -86.04155731 -16.59862709
vertex 24.00814056 -91.59072113 -27.65680504
vertex 28.48291779 -96.44506073 -23.59703064

endloop
endfacet
facet normal -0.8822965026 -0.01792921685 0.4703523815
outer loop
vertex 32.00237274 -86.04154205 -16.598629
vertex 28.48293304 -96.4450531 -23.59703255
vertex 34.33826447 -89.71762085 -12.35704327

endloop
endfacet
facet normal -0.8680304885 -0.06656232476 0.4920289516
outer loop
vertex 34.33826447 -89.71762085 -12.35704327
vertex 28.48293304 -96.4450531 -23.59703255
vertex 32.25823212 -99.92178345 -17.40703964

endloop
endfacet
facet normal -0.88861233 -0.04476843774 0.4564689696
outer loop
vertex 34.33826447 -89.71762085 -12.35704327
vertex 32.25823212 -99.92178345 -17.40703964
vertex 37.13533783 -92.2159729 -7.156982899

endloop
endfacet
facet normal -0.9161446691 0.05097136647 0.3975937665
outer loop
vertex 37.13533783 -92.2159729 -7.156982899
vertex 32.25823212 -99.92178345 -17.40703964
vertex 35.52857208 -101.9285583 -9.614179611

endloop
endfacet
facet normal -0.8327430487 -0.002307964256 0.5536549091
outer loop
vertex 37.13533783 -92.2159729 -7.156982899
vertex 35.52857208 -101.9285583 -9.614179611
vertex 41.0341568 -92.75307465 -1.295073986

endloop
endfacet
facet normal -0.9031576514 0.1952852011 0.382321775
outer loop
vertex 41.0341568 -92.75307465 -1.295073986
vertex 35.52857208 -101.9285583 -9.614179611
vertex 38.9779129 -103.224411 -0.8039050102

endloop
endfacet
facet normal -0.8605240583 0.1911288947 0.47219491
outer loop
vertex 41.0341568 -92.75307465 -1.295073986
vertex 38.9779129 -103.224411 -0.8039050102
vertex 44.62432098 -91.6397171 4.796960831

endloop
endfacet
facet normal -0.9135792255 0.3311947584 0.2359725833
outer loop
vertex 44.62432098 -91.6397171 4.796960831
vertex 38.9779129 -103.224411 -0.8039050102
vertex 41.57930756 -102.4926453 8.240463257

endloop
endfacet
facet normal -0.9641797543 0.2645907402 -0.01868912764
outer loop
vertex 44.62432098 -91.6397171 4.796960831
vertex 41.57930756 -102.4926453 8.240463257
vertex 45.20954132 -89.10074615 10.55059719

endloop
endfacet
facet normal -0.9525648952 0.279135555 -0.1212579012
outer loop
vertex 45.20954132 -89.10074615 10.55059719
vertex 41.57930756 -102.4926453 8.240463257
vertex 41.89641571 -98.08827209 15.88822079

endloop
endfacet
facet normal -0.85815382 0.01152322907 -0.5132632852
outer loop
vertex 45.20954132 -89.10074615 10.55059719
vertex 41.89641571 -98.08827209 15.88822079
vertex 42.40680695 -85.02519226 15.32814693

endloop
endfacet
facet normal -0.9271036386 0.02017681487 -0.3742617667
outer loop
vertex 42.40680695 -85.02519226 15.32814693
vertex 41.89641571 -98.08827209 15.88822079
vertex 40.0699234 -90.27210236 20.83409882

endloop
endfacet
facet normal -0.9081683755 -0.03338948637 -0.4172712266
outer loop
vertex 42.40680695 -85.02519226 15.32814693
vertex 40.0699234 -90.27210236 20.83409882
vertex 40.69019318 -79.90734863 18.65474129

endloop
endfacet
facet normal -0.9246188998 -0.02458898164 -0.3800991178
outer loop
vertex 40.69019318 -79.90734863 18.65474129
vertex 40.0699234 -90.27210236 20.83409882
vertex 38.48480988 -81.69112396 24.13489151

endloop
endfacet
facet normal -0.9180707932 -0.06587935984 -0.3909038901
outer loop
vertex 40.69019318 -79.90734863 18.65474129
vertex 38.48480988 -81.69112396 24.13489151
vertex 39.75301361 -74.2571106 19.90354729

endloop
endfacet
facet normal -0.9643135667 0.01401854213 -0.2643916011
outer loop
vertex 39.75301361 -74.2571106 19.90354729
vertex 38.48480988 -81.69112396 24.13489151
vertex 37.8932724 -73.45346832 26.72917747

endloop
endfacet
facet normal -0.9304647446 -0.2937777042 -0.2189294696
outer loop
vertex 39.75301361 -74.2571106 19.90354729
vertex 37.8932724 -73.45346832 26.72917747
vertex 37.89298248 -68.14644623 19.60900688

endloop
endfacet
facet normal -0.995644033 -0.07477385551 -0.05569218472
outer loop
vertex 37.89298248 -68.14644623 19.60900688
vertex 37.8932724 -73.45346832 26.72917747
vertex 37.14252472 -64.23239136 27.77029228

endloop
endfacet
facet normal -0.2930155694 -0.8723188043 0.3914099038
outer loop
vertex 37.89298248 -68.14644623 19.60900688
vertex 37.14252472 -64.23239136 27.77029228
vertex 27.59749603 -66.12234497 16.41267395

endloop
endfacet
facet normal -0.7709617019 0 0.6368814111
outer loop
vertex 27.59749603 -66.12234497 16.41267395
vertex 37.14252472 -64.23239136 27.77029228
vertex 27.59749603 -66.12233734 16.41267395

endloop
endfacet
endsolid
