solid 
facet normal 0.100161 -0.910743 0.400643
outer loop
vertex 38.66269684 -60.95934296 -63.34333801
vertex 38.6627121 -60.95934296 -63.34334183
vertex 44.42102814 -53.55051422 -47.94116974

endloop
endfacet
facet normal -0.3922813237 0.8776198626 -0.2754972279
outer loop
vertex 44.42102814 -53.55051422 -47.94116974
vertex 38.6627121 -60.95934296 -63.34334183
vertex 36.05719757 -57.47353363 -48.52899933

endloop
endfacet
facet normal 0.02580436319 0.09411136061 -0.9952272177
outer loop
vertex 44.42102814 -53.55051422 -47.94116974
vertex 36.05719757 -57.47353363 -48.52899933
vertex 43.76088715 -50.2440567 -47.64561844

endloop
endfacet
facet normal 0.07103356719 0.04605988786 -0.9964099526
outer loop
vertex 43.76088715 -50.2440567 -47.64561844
vertex 36.05719757 -57.47353363 -48.52899933
vertex 35.28022003 -53.820961 -48.41554642

endloop
endfacet
facet normal -0.007749640383 0.2279502898 -0.973641932
outer loop
vertex 43.76088715 -50.2440567 -47.64561844
vertex 35.28022003 -53.820961 -48.41554642
vertex 42.27771759 -46.9192276 -46.85540009

endloop
endfacet
facet normal 0.03473005071 0.1867248714 -0.981798172
outer loop
vertex 42.27771759 -46.9192276 -46.85540009
vertex 35.28022003 -53.820961 -48.41554642
vertex 33.99030304 -50.76290131 -47.87957382

endloop
endfacet
facet normal -0.0513840355 0.3590972126 -0.9318845868
outer loop
vertex 42.27771759 -46.9192276 -46.85540009
vertex 33.99030304 -50.76290131 -47.87957382
vertex 39.90219879 -43.34027863 -45.34528351

endloop
endfacet
facet normal -0.1090570539 0.3978786469 -0.9109331965
outer loop
vertex 39.90219879 -43.34027863 -45.34528351
vertex 33.99030304 -50.76290131 -47.87957382
vertex 32.23519135 -47.75830841 -46.35710144

endloop
endfacet
facet normal -0.1297388673 0.4297906458 -0.8935590982
outer loop
vertex 39.90219879 -43.34027863 -45.34528351
vertex 32.23519135 -47.75830841 -46.35710144
vertex 36.51517487 -39.78322601 -43.14261246

endloop
endfacet
facet normal -0.1845837235 0.4510245025 -0.8732156754
outer loop
vertex 36.51517487 -39.78322601 -43.14261246
vertex 32.23519135 -47.75830841 -46.35710144
vertex 29.78649139 -44.72403717 -44.27225494

endloop
endfacet
facet normal -0.1139193997 0.3662869632 -0.9235021472
outer loop
vertex 36.51517487 -39.78322601 -43.14261246
vertex 29.78649139 -44.72403717 -44.27225494
vertex 31.8393631 -36.16622162 -41.13121796

endloop
endfacet
facet normal -0.1223161891 0.3677003682 -0.9218649864
outer loop
vertex 31.8393631 -36.16622162 -41.13121796
vertex 29.78649139 -44.72403717 -44.27225494
vertex 26.24036407 -41.56023407 -42.53981018

endloop
endfacet
facet normal -0.06876715273 0.3182875216 -0.9454967976
outer loop
vertex 31.8393631 -36.16622162 -41.13121796
vertex 26.24036407 -41.56023407 -42.53981018
vertex 25.62812042 -32.24810028 -39.36048889

endloop
endfacet
facet normal 0.05538269132 0.3258678019 -0.9437917471
outer loop
vertex 25.62812042 -32.24810028 -39.36048889
vertex 26.24036407 -41.56023407 -42.53981018
vertex 21.29998016 -38.10643768 -41.63720703

endloop
endfacet
facet normal -0.1137481779 0.4317738414 -0.8947808146
outer loop
vertex 25.62812042 -32.24811554 -39.36049271
vertex 21.2999649 -38.10645294 -41.63720322
vertex 17.60626984 -27.98082733 -36.28155518

endloop
endfacet
facet normal 0.2349965274 0.5200563669 -0.8211686611
outer loop
vertex 17.60626984 -27.98082733 -36.28155518
vertex 21.2999649 -38.10645294 -41.63720322
vertex 14.88314056 -34.28566742 -41.05377579

endloop
endfacet
facet normal 0.135550335 0.5600669384 -0.8172827959
outer loop
vertex 17.60626984 -27.98082733 -36.28155518
vertex 14.88314056 -34.28566742 -41.05377579
vertex 6.392967224 -23.79056549 -35.26983643

endloop
endfacet
facet normal 0.3397497535 0.6496500969 -0.6800917983
outer loop
vertex 6.392967224 -23.79056549 -35.26983643
vertex 14.88314056 -34.28566742 -41.05377579
vertex 6.664649963 -30.53804779 -41.57957077

endloop
endfacet
facet normal 0.9989794493 0.04489002004 -0.004988150671
outer loop
vertex 6.392967224 -23.79055023 -35.26983643
vertex 6.664665222 -30.53803253 -41.57956696
vertex 6.414496899 -26.08313751 -51.58982849

endloop
endfacet
facet normal -0.606687963 0.7204419971 0.3359956145
outer loop
vertex 6.414496899 -26.08313751 -51.58982849
vertex 6.664665222 -30.53803253 -41.57956696
vertex 6.414513111 -26.08312225 -51.58983231

endloop
endfacet
facet normal -nan(ind) -nan(ind) -nan(ind)
outer loop
vertex 38.6627121 -60.95934296 -63.34334183
vertex 38.6627121 -60.95934296 -63.34334183
vertex 36.05719757 -57.47353363 -48.52899933

endloop
endfacet
facet normal -0.2318003178 0.9370256066 -0.2612502873
outer loop
vertex 36.05719757 -57.47353363 -48.52899933
vertex 38.6627121 -60.95934296 -63.34334183
vertex 32.42938995 -59.22847748 -51.60459518

endloop
endfacet
facet normal 0.5956524014 0.1512110531 -0.7888810635
outer loop
vertex 36.05719757 -57.47353363 -48.52899933
vertex 32.42938995 -59.22847748 -51.60459518
vertex 35.28022003 -53.820961 -48.41554642

endloop
endfacet
facet normal 0.6482762098 0.103126578 -0.7543891668
outer loop
vertex 35.28022003 -53.820961 -48.41554642
vertex 32.42938995 -59.22847748 -51.60459518
vertex 31.82672882 -55.03653717 -51.54943848

endloop
endfacet
facet normal 0.5522207618 0.3643570542 -0.749864161
outer loop
vertex 35.28022003 -53.820961 -48.41554642
vertex 31.82672882 -55.03653717 -51.54943848
vertex 33.99030304 -50.76290131 -47.87957382

endloop
endfacet
facet normal 0.6329239011 0.2944504917 -0.7160351276
outer loop
vertex 33.99030304 -50.76290131 -47.87957382
vertex 31.82672882 -55.03653717 -51.54943848
vertex 30.67681122 -51.71927643 -51.20174789

endloop
endfacet
facet normal 0.4719649255 0.6020423174 -0.6440451741
outer loop
vertex 33.99030304 -50.76290131 -47.87957382
vertex 30.67681122 -51.71927643 -51.20174789
vertex 32.23519135 -47.75830841 -46.35710144

endloop
endfacet
facet normal 0.5108253956 0.5777024627 -0.6366452575
outer loop
vertex 32.23519135 -47.75830841 -46.35710144
vertex 30.67681122 -51.71927643 -51.20174789
vertex 28.89945221 -48.73860931 -49.92314148

endloop
endfacet
facet normal 0.4006349146 0.7160697579 -0.5716081262
outer loop
vertex 32.23519135 -47.75830841 -46.35710144
vertex 28.89945221 -48.73860931 -49.92314148
vertex 29.78649139 -44.72403717 -44.27225494

endloop
endfacet
facet normal 0.3580924869 0.733699739 -0.5774550438
outer loop
vertex 29.78649139 -44.72403717 -44.27225494
vertex 28.89945221 -48.73860931 -49.92314148
vertex 26.37726593 -46.02690887 -48.04178619

endloop
endfacet
facet normal 0.3648486733 0.7272721529 -0.5813438296
outer loop
vertex 29.78649139 -44.72403717 -44.27225494
vertex 26.37726593 -46.02690887 -48.04178619
vertex 26.24036407 -41.56023407 -42.53981018

endloop
endfacet
facet normal 0.2718253732 0.7504338026 -0.6024617553
outer loop
vertex 26.24036407 -41.56023407 -42.53981018
vertex 26.37726593 -46.02690887 -48.04178619
vertex 23.09447479 -43.33943939 -46.17540741

endloop
endfacet
facet normal 0.357378453 0.6788367033 -0.6414524913
outer loop
vertex 26.24036407 -41.56023407 -42.53981018
vertex 23.09447479 -43.33943939 -46.17540741
vertex 21.29998016 -38.10643768 -41.63720703

endloop
endfacet
facet normal 0.3510089815 0.6792849898 -0.6444879174
outer loop
vertex 21.29998016 -38.10643768 -41.63720703
vertex 23.09447479 -43.33943939 -46.17540741
vertex 19.01390839 -40.18341827 -45.07139587

endloop
endfacet
facet normal 0.3474735618 0.6818552613 -0.6436890364
outer loop
vertex 21.2999649 -38.10645294 -41.63720322
vertex 19.01389313 -40.18343353 -45.07139206
vertex 14.88314056 -34.28566742 -41.05377579

endloop
endfacet
facet normal 0.5640784502 0.6968387961 -0.4429799616
outer loop
vertex 14.88314056 -34.28566742 -41.05377579
vertex 19.01389313 -40.18343353 -45.07139206
vertex 13.88964081 -36.17618561 -45.29278946

endloop
endfacet
facet normal 0.3942205012 0.8014128804 -0.4498082995
outer loop
vertex 14.88314056 -34.28566742 -41.05377579
vertex 13.88964081 -36.17618561 -45.29278946
vertex 6.664649963 -30.53804779 -41.57957077

endloop
endfacet
facet normal 0.5121911168 0.8214641213 -0.2507128417
outer loop
vertex 6.664649963 -30.53804779 -41.57957077
vertex 13.88964081 -36.17618561 -45.29278946
vertex 7.48143816 -32.45105743 -46.17892456

endloop
endfacet
facet normal 0.9704999924 0.2283497304 0.07737106085
outer loop
vertex 6.664665222 -30.53803253 -41.57956696
vertex 7.481452942 -32.45104218 -46.17892456
vertex 6.414513111 -26.08312225 -51.58983231

endloop
endfacet
facet normal 0.9801293612 0 -0.1983595192
outer loop
vertex 6.414513111 -26.08312225 -51.58983231
vertex 7.481452942 -32.45104218 -46.17892456
vertex 6.414513111 -26.08313751 -51.58983231

endloop
endfacet
facet normal -0.041866716 0.9849883318 -0.167466864
outer loop
vertex 38.6627121 -60.95934296 -63.34334183
vertex 38.66269684 -60.95934296 -63.34333801
vertex 32.42938995 -59.22847748 -51.60459518

endloop
endfacet
facet normal -0.1951068491 0.9500273466 -0.2436828613
outer loop
vertex 32.42938995 -59.22847748 -51.60459518
vertex 38.66269684 -60.95934296 -63.34333801
vertex 30.33611298 -60.37194061 -54.3865242

endloop
endfacet
facet normal 0.769307375 0.1188601851 -0.6277247667
outer loop
vertex 32.42938995 -59.22847748 -51.60459518
vertex 30.33611298 -60.37194061 -54.3865242
vertex 31.82672882 -55.03653717 -51.54943848

endloop
endfacet
facet normal 0.8547833562 0.03647528961 -0.5177016258
outer loop
vertex 31.82672882 -55.03653717 -51.54943848
vertex 30.33611298 -60.37194061 -54.3865242
vertex 30.01924896 -55.60634613 -54.57393646

endloop
endfacet
facet normal 0.7828576565 0.3268656135 -0.5294268131
outer loop
vertex 31.82672882 -55.03653717 -51.54943848
vertex 30.01924896 -55.60634613 -54.57393646
vertex 30.67681122 -51.71927643 -51.20174789

endloop
endfacet
facet normal 0.8315467238 0.2770090699 -0.4814520776
outer loop
vertex 30.67681122 -51.71927643 -51.20174789
vertex 30.01924896 -55.60634613 -54.57393646
vertex 28.95223236 -51.96112823 -54.31953049

endloop
endfacet
facet normal 0.6855196953 0.5911016464 -0.4250430167
outer loop
vertex 30.67681122 -51.71927643 -51.20174789
vertex 28.95223236 -51.96112823 -54.31953049
vertex 28.89945221 -48.73860931 -49.92314148

endloop
endfacet
facet normal 0.6821854711 0.5936034322 -0.4269168377
outer loop
vertex 28.89945221 -48.73860931 -49.92314148
vertex 28.95223236 -51.96112823 -54.31953049
vertex 27.06520844 -48.93296051 -53.1243782

endloop
endfacet
facet normal 0.5461243391 0.756940186 -0.3588729799
outer loop
vertex 28.89945221 -48.73860931 -49.92314148
vertex 27.06520844 -48.93296051 -53.1243782
vertex 26.37726593 -46.02690887 -48.04178619

endloop
endfacet
facet normal 0.4442775548 0.8023269176 -0.3986088336
outer loop
vertex 26.37726593 -46.02690887 -48.04178619
vertex 27.06520844 -48.93296051 -53.1243782
vertex 24.40447235 -46.47014618 -51.13275909

endloop
endfacet
facet normal 0.4370836914 0.8081170917 -0.3948477209
outer loop
vertex 26.37726593 -46.02690887 -48.04178619
vertex 24.40447235 -46.47014618 -51.13275909
vertex 23.09447479 -43.33943939 -46.17540741

endloop
endfacet
facet normal 0.3841904998 0.8230723739 -0.4182696939
outer loop
vertex 23.09447479 -43.33943939 -46.17540741
vertex 24.40447235 -46.47014618 -51.13275909
vertex 21.24774933 -44.01638031 -49.20375443

endloop
endfacet
facet normal 0.4651987553 0.7601531148 -0.4536049068
outer loop
vertex 23.09447479 -43.33943939 -46.17540741
vertex 21.24774933 -44.01638031 -49.20375443
vertex 19.01390839 -40.18341827 -45.07139587

endloop
endfacet
facet normal 0.5684506297 0.7333435416 -0.3729225695
outer loop
vertex 19.01390839 -40.18341827 -45.07139587
vertex 21.24774933 -44.01638031 -49.20375443
vertex 17.73674774 -40.80072784 -48.23211288

endloop
endfacet
facet normal 0.5808975101 0.7220606208 -0.3757479489
outer loop
vertex 19.01389313 -40.18343353 -45.07139206
vertex 17.73673248 -40.8007431 -48.23211288
vertex 13.88964081 -36.17618561 -45.29278946

endloop
endfacet
facet normal 0.6724816561 0.7041941881 -0.2277693301
outer loop
vertex 13.88964081 -36.17618561 -45.29278946
vertex 17.73673248 -40.8007431 -48.23211288
vertex 13.44495392 -36.72510529 -48.30280685

endloop
endfacet
facet normal 0.5127187967 0.8280704021 -0.2267573178
outer loop
vertex 13.88964081 -36.17618561 -45.29278946
vertex 13.44495392 -36.72510529 -48.30280685
vertex 7.48143816 -32.45105743 -46.17892456

endloop
endfacet
facet normal 0.3471864462 0.7584837675 -0.5515106916
outer loop
vertex 7.48143816 -32.45105743 -46.17892456
vertex 13.44495392 -36.72510529 -48.30280685
vertex 7.688605785 -34.09459686 -48.30884171

endloop
endfacet
facet normal 0.9885937572 0.1493877172 -0.01912493631
outer loop
vertex 7.481452942 -32.45104218 -46.17892456
vertex 7.688605785 -34.0945816 -48.30884552
vertex 6.414513111 -26.08313751 -51.58983231

endloop
endfacet
facet normal -0.9880119562 -0.1543768644 0
outer loop
vertex 6.414513111 -26.08313751 -51.58983231
vertex 7.688605785 -34.0945816 -48.30884552
vertex 6.414513111 -26.08313751 -51.58982849

endloop
endfacet
facet normal 0.5782704949 -0.5782704949 0.5755054355
outer loop
vertex 38.66269684 -60.95934296 -63.34333801
vertex 38.6627121 -60.9593277 -63.34333801
vertex 30.33611298 -60.37194061 -54.3865242

endloop
endfacet
facet normal -0.1249059215 0.9756851196 -0.1801026911
outer loop
vertex 30.33611298 -60.37194061 -54.3865242
vertex 38.6627121 -60.9593277 -63.34333801
vertex 29.51088715 -61.05173492 -57.49691391

endloop
endfacet
facet normal 0.9622176886 0.05348168686 -0.2669773102
outer loop
vertex 30.33611298 -60.37194061 -54.3865242
vertex 29.51088715 -61.05173492 -57.49691391
vertex 30.0192337 -55.60634613 -54.57393646

endloop
endfacet
facet normal 0.9708131552 0.03660275787 -0.2370274067
outer loop
vertex 30.0192337 -55.60634613 -54.57393646
vertex 29.51088715 -61.05173492 -57.49691391
vertex 29.30545807 -55.7829361 -57.52467728

endloop
endfacet
facet normal 0.9266740084 0.2880984247 -0.2414012551
outer loop
vertex 30.0192337 -55.60634613 -54.57393646
vertex 29.30545807 -55.7829361 -57.52467728
vertex 28.95223236 -51.96114349 -54.31952667

endloop
endfacet
facet normal 0.937292099 0.2707293928 -0.2195204049
outer loop
vertex 28.95223236 -51.96114349 -54.31952667
vertex 29.30545807 -55.7829361 -57.52467728
vertex 28.23168182 -51.79102325 -57.18627548

endloop
endfacet
facet normal 0.8052811027 0.5683932304 -0.1686756015
outer loop
vertex 28.95223236 -51.96114349 -54.31952667
vertex 28.23168182 -51.79102325 -57.18627548
vertex 27.06519318 -48.93297577 -53.12437439

endloop
endfacet
facet normal 0.7981298566 0.57614851 -0.1761861145
outer loop
vertex 27.06519318 -48.93297577 -53.12437439
vertex 28.23168182 -51.79102325 -57.18627548
vertex 26.17498016 -48.600914 -56.0711937

endloop
endfacet
facet normal 0.6323050261 0.7676374316 -0.1045137495
outer loop
vertex 27.06519318 -48.93297577 -53.12437439
vertex 26.17498016 -48.600914 -56.0711937
vertex 24.40445709 -46.47016144 -51.13275528

endloop
endfacet
facet normal 0.5841292739 0.8002126217 -0.1358406991
outer loop
vertex 24.40445709 -46.47016144 -51.13275528
vertex 26.17498016 -48.600914 -56.0711937
vertex 23.29575348 -46.17974091 -54.18948364

endloop
endfacet
facet normal 0.560013175 0.8189516664 -0.1253131479
outer loop
vertex 24.40445709 -46.47016144 -51.13275528
vertex 23.29575348 -46.17974091 -54.18948364
vertex 21.24774933 -44.01638031 -49.2037468

endloop
endfacet
facet normal 0.5303778052 0.8353388906 -0.1445971131
outer loop
vertex 21.24774933 -44.01638031 -49.2037468
vertex 23.29575348 -46.17974091 -54.18948364
vertex 20.13063812 -43.84734344 -52.32474899

endloop
endfacet
facet normal 0.634943068 0.7496691942 -0.186664477
outer loop
vertex 21.24774933 -44.01638031 -49.2037468
vertex 20.13063812 -43.84734344 -52.32474899
vertex 17.73671722 -40.80072784 -48.23210907

endloop
endfacet
facet normal 0.6288098097 0.7532474995 -0.1929157227
outer loop
vertex 17.73671722 -40.80072784 -48.23210907
vertex 20.13063812 -43.84734344 -52.32474899
vertex 16.92395782 -40.91004181 -51.30812454

endloop
endfacet
facet normal 0.6759271622 0.7082387209 -0.203765735
outer loop
vertex 17.73670197 -40.8007431 -48.23210907
vertex 16.92394257 -40.91005707 -51.30812454
vertex 13.44493866 -36.72512054 -48.30280685

endloop
endfacet
facet normal 0.5764245987 0.7352514267 -0.3565669358
outer loop
vertex 13.44493866 -36.72512054 -48.30280685
vertex 16.92394257 -40.91005707 -51.30812454
vertex 13.01570892 -37.74849701 -51.10692978

endloop
endfacet
facet normal 0.3868174851 0.8456226587 -0.3678241074
outer loop
vertex 13.44493866 -36.72512054 -48.30280685
vertex 13.01570892 -37.74849701 -51.10692978
vertex 7.688605785 -34.09459686 -48.30884171

endloop
endfacet
facet normal 0.0855108425 0.6813497543 -0.7269459963
outer loop
vertex 7.688605785 -34.09459686 -48.30884171
vertex 13.01570892 -37.74849701 -51.10692978
vertex 7.826332092 -36.4394455 -50.49041367

endloop
endfacet
facet normal 0.9891371727 0.1269852519 -0.07404338568
outer loop
vertex 7.688605785 -34.0945816 -48.30884552
vertex 7.826332092 -36.43943024 -50.49041748
vertex 6.414496899 -26.08315277 -51.58982849

endloop
endfacet
facet normal -0.08969046921 0.09342757612 0.9915779829
outer loop
vertex 6.414496899 -26.08315277 -51.58982849
vertex 7.826332092 -36.43943024 -50.49041748
vertex 6.414513111 -26.08313751 -51.58982849

endloop
endfacet
facet normal -0.5282890201 0.2059284002 -0.8237136006
outer loop
vertex 38.6627121 -60.9593277 -63.34333801
vertex 38.6627121 -60.95934296 -63.34334183
vertex 29.51088715 -61.05173492 -57.49691391

endloop
endfacet
facet normal -0.04784934595 0.9971020818 -0.05914459378
outer loop
vertex 29.51088715 -61.05173492 -57.49691391
vertex 38.6627121 -60.95934296 -63.34334183
vertex 30.09047699 -61.2582016 -61.44657898

endloop
endfacet
facet normal 0.9889322519 0.0393120721 0.1430649012
outer loop
vertex 29.51088715 -61.05173492 -57.49691391
vertex 30.09047699 -61.2582016 -61.44657898
vertex 29.30545807 -55.7829361 -57.52467728

endloop
endfacet
facet normal 0.9926692843 0.07372146845 0.09577482194
outer loop
vertex 29.30545807 -55.7829361 -57.52467728
vertex 30.09047699 -61.2582016 -61.44657898
vertex 29.57711029 -55.59545135 -60.48456192

endloop
endfacet
facet normal 0.9625992775 0.250095427 0.1041869372
outer loop
vertex 29.30545807 -55.7829361 -57.52467728
vertex 29.57711029 -55.59545135 -60.48456192
vertex 28.23168182 -51.79102325 -57.18627548

endloop
endfacet
facet normal 0.9635577202 0.2420720309 0.1138325632
outer loop
vertex 28.23168182 -51.79102325 -57.18627548
vertex 29.57711029 -55.59545135 -60.48456192
vertex 28.40428925 -51.26360321 -59.76893616

endloop
endfacet
facet normal 0.854148984 0.4953658879 0.1582470238
outer loop
vertex 28.23168182 -51.79102325 -57.18627548
vertex 28.40428925 -51.26360321 -59.76893616
vertex 26.17498016 -48.600914 -56.0711937

endloop
endfacet
facet normal 0.8597701192 0.4807999134 0.1721246094
outer loop
vertex 26.17498016 -48.600914 -56.0711937
vertex 28.40428925 -51.26360321 -59.76893616
vertex 26.23313141 -47.80490875 -58.58516312

endloop
endfacet
facet normal 0.7095397115 0.6669049859 0.2275765538
outer loop
vertex 26.17498016 -48.600914 -56.0711937
vertex 26.23313141 -47.80490875 -58.58516312
vertex 23.29575348 -46.17974091 -54.18948364

endloop
endfacet
facet normal 0.7093626261 0.6671667099 0.2273614854
outer loop
vertex 23.29575348 -46.17974091 -54.18948364
vertex 26.23313141 -47.80490875 -58.58516312
vertex 23.20731354 -45.18895721 -56.82089615

endloop
endfacet
facet normal 0.664300859 0.7066123486 0.2437281013
outer loop
vertex 23.29575348 -46.17974091 -54.18948364
vertex 23.20731354 -45.18895721 -56.82089615
vertex 20.13063812 -43.84734344 -52.32474899

endloop
endfacet
facet normal 0.6677277088 0.7020831704 0.2474245578
outer loop
vertex 20.13063812 -43.84734344 -52.32474899
vertex 23.20731354 -45.18895721 -56.82089615
vertex 20.00063324 -42.76027679 -55.05852509

endloop
endfacet
facet normal 0.6960003972 0.6779776216 0.2364946455
outer loop
vertex 20.13063812 -43.84734344 -52.32474899
vertex 20.00063324 -42.76027679 -55.05852509
vertex 16.92395782 -40.91004181 -51.30812454

endloop
endfacet
facet normal 0.622261405 0.7720043063 0.1296147257
outer loop
vertex 16.92395782 -40.91004181 -51.30812454
vertex 20.00063324 -42.76027679 -55.05852509
vertex 16.7975235 -40.3479538 -54.04901123

endloop
endfacet
facet normal 0.6277042627 0.767773509 0.1284961551
outer loop
vertex 16.92394257 -40.91005707 -51.30812454
vertex 16.79750824 -40.34796906 -54.04900742
vertex 13.01570892 -37.74849701 -51.10692978

endloop
endfacet
facet normal 0.2515741885 0.8626443148 -0.438811183
outer loop
vertex 13.01570892 -37.74849701 -51.10692978
vertex 16.79750824 -40.34796906 -54.04900742
vertex 12.66493988 -39.10321808 -53.97122955

endloop
endfacet
facet normal 0.1705483794 0.8825082183 -0.4382836223
outer loop
vertex 13.01570892 -37.74849701 -51.10692978
vertex 12.66493988 -39.10321808 -53.97122955
vertex 7.826332092 -36.4394455 -50.49041367

endloop
endfacet
facet normal 0.08540923148 0.8449881673 -0.5279206634
outer loop
vertex 7.826332092 -36.4394455 -50.49041367
vertex 12.66493988 -39.10321808 -53.97122955
vertex 8.145698547 -38.27713776 -53.38014984

endloop
endfacet
facet normal 0.9902767539 0.137345314 0.02209985629
outer loop
vertex 7.826332092 -36.43943024 -50.49041748
vertex 8.145698547 -38.2771225 -53.38015366
vertex 6.414513111 -26.08313751 -51.58982849

endloop
endfacet
facet normal 0.2215122283 0.1719027162 -0.9598863125
outer loop
vertex 6.414513111 -26.08313751 -51.58982849
vertex 8.145698547 -38.2771225 -53.38015366
vertex 6.414496899 -26.08313751 -51.58983231

endloop
endfacet
facet normal 0.1894332618 -0.6244643331 0.757733047
outer loop
vertex 38.6627121 -60.95934296 -63.34334183
vertex 38.66269684 -60.95934296 -63.34333801
vertex 30.09047699 -61.2582016 -61.44657898

endloop
endfacet
facet normal -0.044078134 0.9981474876 -0.04193599895
outer loop
vertex 30.09047699 -61.2582016 -61.44657898
vertex 38.66269684 -60.95934296 -63.34333801
vertex 30.75444794 -61.380867 -65.0641098

endloop
endfacet
facet normal 0.9822225571 0.05875676498 0.1782873124
outer loop
vertex 30.09047699 -61.2582016 -61.44657898
vertex 30.75444794 -61.380867 -65.0641098
vertex 29.57711029 -55.59545135 -60.48456192

endloop
endfacet
facet normal 0.9637849331 -0.01464602258 0.2662781775
outer loop
vertex 29.57711029 -55.59545135 -60.48456192
vertex 30.75444794 -61.380867 -65.0641098
vertex 30.38846588 -55.14800262 -63.39662552

endloop
endfacet
facet normal 0.9343124628 0.2047571838 0.2917786539
outer loop
vertex 29.57711029 -55.59545135 -60.48456192
vertex 30.38846588 -55.14800262 -63.39662552
vertex 28.40428925 -51.26360321 -59.76893616

endloop
endfacet
facet normal 0.9206004739 0.1246193275 0.370087564
outer loop
vertex 28.40428925 -51.26360321 -59.76893616
vertex 30.38846588 -55.14800262 -63.39662552
vertex 29.30097198 -50.34577179 -62.30851364

endloop
endfacet
facet normal 0.8248255849 0.372073859 0.4257038534
outer loop
vertex 28.40428925 -51.26360321 -59.76893616
vertex 29.30097198 -50.34577179 -62.30851364
vertex 26.23313141 -47.80490875 -58.58516312

endloop
endfacet
facet normal 0.8226693273 0.2340866327 0.5180914402
outer loop
vertex 26.23313141 -47.80490875 -58.58516312
vertex 29.30097198 -50.34577179 -62.30851364
vertex 27.27028656 -46.36919403 -60.8807373

endloop
endfacet
facet normal 0.6997484565 0.4193010628 0.5783931613
outer loop
vertex 26.23313141 -47.80490875 -58.58516312
vertex 27.27028656 -46.36919403 -60.8807373
vertex 23.20731354 -45.18895721 -56.82089615

endloop
endfacet
facet normal 0.7210226655 0.188648954 0.6667367816
outer loop
vertex 23.20731354 -45.18895721 -56.82089615
vertex 27.27028656 -46.36919403 -60.8807373
vertex 24.61917877 -42.99692535 -58.96793747

endloop
endfacet
facet normal 0.6247737408 0.3026012778 0.7197849154
outer loop
vertex 23.20731354 -45.18895721 -56.82089615
vertex 24.61917877 -42.99692535 -58.96793747
vertex 20.00063324 -42.76027679 -55.05852509

endloop
endfacet
facet normal 0.640783608 0.1811120212 0.7460528612
outer loop
vertex 20.00063324 -42.76027679 -55.05852509
vertex 24.61917877 -42.99692535 -58.96793747
vertex 21.57788849 -40.09409332 -57.06047058

endloop
endfacet
facet normal 0.493562907 0.3163278997 0.8101433516
outer loop
vertex 20.00063324 -42.76027679 -55.05852509
vertex 21.57788849 -40.09409332 -57.06047058
vertex 16.7975235 -40.3479538 -54.04901123

endloop
endfacet
facet normal 0.4699537456 0.4118514061 0.780718863
outer loop
vertex 16.7975235 -40.3479538 -54.04901123
vertex 21.57788849 -40.09409332 -57.06047058
vertex 17.96895599 -38.01580048 -55.98443222

endloop
endfacet
facet normal 0.1867820024 0.5701249838 0.8000437617
outer loop
vertex 16.79750824 -40.34796906 -54.04900742
vertex 17.96894073 -38.01581573 -55.98442841
vertex 12.66493988 -39.10321808 -53.97122955

endloop
endfacet
facet normal 0.03797494248 0.8339673281 0.5505055189
outer loop
vertex 12.66493988 -39.10321808 -53.97122955
vertex 17.96894073 -38.01581573 -55.98442841
vertex 13.35312653 -37.59532928 -56.30302048

endloop
endfacet
facet normal 0.2192861587 0.7884999514 0.5746141076
outer loop
vertex 12.66493988 -39.10321808 -53.97122955
vertex 13.35312653 -37.59532928 -56.30302048
vertex 8.145698547 -38.27713776 -53.38014984

endloop
endfacet
facet normal 0.1290256679 0.8899306655 0.4374651909
outer loop
vertex 8.145698547 -38.27713776 -53.38014984
vertex 13.35312653 -37.59532928 -56.30302048
vertex 9.156654358 -36.99681854 -56.2828598

endloop
endfacet
facet normal 0.9299979806 0.07933980972 0.3588995636
outer loop
vertex 8.145698547 -38.2771225 -53.38015366
vertex 9.156669617 -36.99680328 -56.28286362
vertex 6.414496899 -26.08313751 -51.58983231

endloop
endfacet
facet normal -0.9701425433 -0.2425356358 0
outer loop
vertex 6.414496899 -26.08313751 -51.58983231
vertex 9.156669617 -36.99680328 -56.28286362
vertex 6.414496899 -26.08313751 -51.58982849

endloop
endfacet
facet normal -nan(ind) -nan(ind) -nan(ind)
outer loop
vertex 38.66269684 -60.95934296 -63.34333801
vertex 38.66269684 -60.95934296 -63.34333801
vertex 30.75444794 -61.380867 -65.0641098

endloop
endfacet
facet normal -0.07804001868 0.9901670218 0.1160994321
outer loop
vertex 30.75444794 -61.380867 -65.0641098
vertex 38.66269684 -60.95934296 -63.34333801
vertex 32.5583725 -60.85089874 -68.37143707

endloop
endfacet
facet normal 0.8804331422 -0.07361955196 0.4684202671
outer loop
vertex 30.75444794 -61.380867 -65.0641098
vertex 32.5583725 -60.85089874 -68.37143707
vertex 30.38846588 -55.14800262 -63.39662552

endloop
endfacet
facet normal 0.9096261263 -0.0160154067 0.4151188731
outer loop
vertex 30.38846588 -55.14800262 -63.39662552
vertex 32.5583725 -60.85089874 -68.37143707
vertex 31.82228851 -54.36420441 -66.50823975

endloop
endfacet
facet normal 0.8932443857 0.1031310707 0.4375825226
outer loop
vertex 30.38846588 -55.14800262 -63.39662552
vertex 31.82228851 -54.36420441 -66.50823975
vertex 29.30097198 -50.34577179 -62.30851364

endloop
endfacet
facet normal 0.8932174444 0.1030324176 0.4376606643
outer loop
vertex 29.30097198 -50.34577179 -62.30851364
vertex 31.82228851 -54.36420441 -66.50823975
vertex 30.54483795 -49.21129608 -65.11418152

endloop
endfacet
facet normal 0.8403078914 0.2579093575 0.4768284857
outer loop
vertex 29.30097198 -50.34577179 -62.30851364
vertex 30.54483795 -49.21129608 -65.11418152
vertex 27.27028656 -46.36919403 -60.8807373

endloop
endfacet
facet normal 0.8356478214 0.2019483298 0.5107929707
outer loop
vertex 27.27028656 -46.36919403 -60.8807373
vertex 30.54483795 -49.21129608 -65.11418152
vertex 28.47281647 -44.78290558 -63.4752121

endloop
endfacet
facet normal 0.7802996635 0.3031554818 0.5470184684
outer loop
vertex 27.27028656 -46.36919403 -60.8807373
vertex 28.47281647 -44.78290558 -63.4752121
vertex 24.61917877 -42.99692535 -58.96793747

endloop
endfacet
facet normal 0.7805823088 0.1581724882 0.6047087312
outer loop
vertex 24.61917877 -42.99692535 -58.96793747
vertex 28.47281647 -44.78290558 -63.4752121
vertex 25.97078705 -40.87369537 -61.26801682

endloop
endfacet
facet normal 0.6890633702 0.2837429047 0.6668444872
outer loop
vertex 24.61917877 -42.99692535 -58.96793747
vertex 25.97078705 -40.87369537 -61.26801682
vertex 21.57788849 -40.09409332 -57.06047058

endloop
endfacet
facet normal 0.6977510452 0.1382629573 0.702870369
outer loop
vertex 21.57788849 -40.09409332 -57.06047058
vertex 25.97078705 -40.87369537 -61.26801682
vertex 23.02980804 -37.55651093 -59.00098801

endloop
endfacet
facet normal 0.4523191452 0.3638666868 0.8142532706
outer loop
vertex 21.57788849 -40.09409332 -57.06047058
vertex 23.02980804 -37.55651093 -59.00098801
vertex 17.96895599 -38.01580048 -55.98443222

endloop
endfacet
facet normal 0.4904274642 0.1867966652 0.8512272835
outer loop
vertex 17.96895599 -38.01580048 -55.98443222
vertex 23.02980804 -37.55651093 -59.00098801
vertex 19.34856415 -35.09035492 -57.4212532

endloop
endfacet
facet normal -0.02080016583 0.4486329257 0.8934740424
outer loop
vertex 17.96894073 -38.01581573 -55.98442841
vertex 19.34853363 -35.09035492 -57.42124939
vertex 13.35312653 -37.59532928 -56.30302048

endloop
endfacet
facet normal 0.1363729686 0.1129537448 0.9841970801
outer loop
vertex 13.35312653 -37.59532928 -56.30302048
vertex 19.34853363 -35.09035492 -57.42124939
vertex 14.81865692 -33.75867462 -56.94641113

endloop
endfacet
facet normal 0.02689694986 0.1553249508 0.9874972105
outer loop
vertex 13.35312653 -37.59532928 -56.30302048
vertex 14.81865692 -33.75867462 -56.94641113
vertex 9.156654358 -36.99681854 -56.2828598

endloop
endfacet
facet normal -0.08713074774 0.3439366221 0.934941709
outer loop
vertex 9.156654358 -36.99681854 -56.2828598
vertex 14.81865692 -33.75867462 -56.94641113
vertex 10.82511139 -32.87883759 -57.64225006

endloop
endfacet
facet normal 0.7537395954 -0.09051567316 0.6509097219
outer loop
vertex 9.156669617 -36.99680328 -56.28286362
vertex 10.82512665 -32.87882233 -57.64225388
vertex 6.414496899 -26.08313751 -51.58982849

endloop
endfacet
facet normal -nan(ind) -nan(ind) -nan(ind)
outer loop
vertex 6.414496899 -26.08313751 -51.58982849
vertex 10.82512665 -32.87882233 -57.64225388
vertex 6.414496899 -26.08313751 -51.58982849

endloop
endfacet
facet normal -nan(ind) -nan(ind) -nan(ind)
outer loop
vertex 38.66269684 -60.95934296 -63.34333801
vertex 38.66269684 -60.95934296 -63.34333801
vertex 32.5583725 -60.85089874 -68.37143707

endloop
endfacet
facet normal -0.1775543392 0.9553540945 0.2361631989
outer loop
vertex 32.5583725 -60.85089874 -68.37143707
vertex 38.66269684 -60.95934296 -63.34333801
vertex 35.57262421 -59.60923004 -71.12817383

endloop
endfacet
facet normal 0.6969774961 -0.123790808 0.7063273191
outer loop
vertex 32.5583725 -60.85089874 -68.37143707
vertex 35.57262421 -59.60923004 -71.12817383
vertex 31.82228851 -54.36420441 -66.50823975

endloop
endfacet
facet normal 0.8110381365 0.06814752519 0.5810104012
outer loop
vertex 31.82228851 -54.36420441 -66.50823975
vertex 35.57262421 -59.60923004 -71.12817383
vertex 33.94626617 -53.17215729 -69.61293793

endloop
endfacet
facet normal 0.816052258 0.04644702747 0.5761088133
outer loop
vertex 31.82228851 -54.36420441 -66.50823975
vertex 33.94626617 -53.17215729 -69.61293793
vertex 30.54483795 -49.21129608 -65.11418152

endloop
endfacet
facet normal 0.8470261693 0.1472982764 0.5107346177
outer loop
vertex 30.54483795 -49.21129608 -65.11418152
vertex 33.94626617 -53.17215729 -69.61293793
vertex 32.16930389 -47.81429291 -68.21117401

endloop
endfacet
facet normal 0.8297736049 0.1946632117 0.5230506659
outer loop
vertex 30.54483795 -49.21129608 -65.11418152
vertex 32.16930389 -47.81429291 -68.21117401
vertex 28.47281647 -44.78290558 -63.4752121

endloop
endfacet
facet normal 0.8345707655 0.2536977232 0.4890082777
outer loop
vertex 28.47281647 -44.78290558 -63.4752121
vertex 32.16930389 -47.81429291 -68.21117401
vertex 29.75817108 -43.0524826 -66.56661987

endloop
endfacet
facet normal 0.8331118822 0.2565579116 0.4900026023
outer loop
vertex 28.47281647 -44.78290558 -63.4752121
vertex 29.75817108 -43.0524826 -66.56661987
vertex 25.97078705 -40.87369537 -61.26801682

endloop
endfacet
facet normal 0.8278095126 0.3223313689 0.4591665566
outer loop
vertex 25.97078705 -40.87369537 -61.26801682
vertex 29.75817108 -43.0524826 -66.56661987
vertex 26.95372772 -38.78130341 -64.50895691

endloop
endfacet
facet normal 0.7927176952 0.3736444116 0.4816519022
outer loop
vertex 25.97078705 -40.87369537 -61.26801682
vertex 26.95372772 -38.78130341 -64.50895691
vertex 23.02980804 -37.55651093 -59.00098801

endloop
endfacet
facet normal 0.7813383341 0.4176592827 0.4637576938
outer loop
vertex 23.02980804 -37.55651093 -59.00098801
vertex 26.95372772 -38.78130341 -64.50895691
vertex 23.80036163 -35.16686249 -62.45132828

endloop
endfacet
facet normal 0.6163522005 0.5762216449 0.5367295742
outer loop
vertex 23.02980804 -37.55651093 -59.00098801
vertex 23.80036163 -35.16686249 -62.45132828
vertex 19.34856415 -35.09035492 -57.4212532

endloop
endfacet
facet normal 0.6514250636 0.5019949675 0.5688993335
outer loop
vertex 19.34856415 -35.09035492 -57.4212532
vertex 23.80036163 -35.16686249 -62.45132828
vertex 20.15007782 -32.30098724 -60.80036545

endloop
endfacet
facet normal 0.2762615383 0.7079841495 0.6499522328
outer loop
vertex 19.34853363 -35.09035492 -57.42124939
vertex 20.15007782 -32.30098724 -60.80036545
vertex 14.81865692 -33.75867462 -56.94641113

endloop
endfacet
facet normal 0.4550407529 0.4165451825 0.7870374918
outer loop
vertex 14.81865692 -33.75867462 -56.94641113
vertex 20.15007782 -32.30098724 -60.80036545
vertex 16.00348663 -30.00058746 -59.62043762

endloop
endfacet
facet normal -0.01328262221 0.5824810863 0.8127356768
outer loop
vertex 14.81865692 -33.75867462 -56.94641113
vertex 16.00348663 -30.00058746 -59.62043762
vertex 10.82511139 -32.87883759 -57.64225006

endloop
endfacet
facet normal 0.1483777612 0.3647954166 0.9191889763
outer loop
vertex 10.82511139 -32.87883759 -57.64225006
vertex 16.00348663 -30.00058746 -59.62043762
vertex 12.318367 -28.24414825 -59.72264862

endloop
endfacet
facet normal 0.8095829487 0.0026487906 0.586999476
outer loop
vertex 10.82512665 -32.87882233 -57.64225388
vertex 12.31838226 -28.24414825 -59.72264862
vertex 6.414496899 -26.08313751 -51.58982849

endloop
endfacet
facet normal -nan(ind) -nan(ind) -nan(ind)
outer loop
vertex 6.414496899 -26.08313751 -51.58982849
vertex 12.31838226 -28.24414825 -59.72264862
vertex 6.414496899 -26.08313751 -51.58982849

endloop
endfacet
facet normal -0.9294558764 0 0.3689334393
outer loop
vertex 38.66269684 -60.95934296 -63.34333801
vertex 38.66269684 -60.9593277 -63.34333801
vertex 35.57262421 -59.60923004 -71.12817383

endloop
endfacet
facet normal -0.298969239 0.9131632447 0.2770380974
outer loop
vertex 35.57262421 -59.60923004 -71.12817383
vertex 38.66269684 -60.9593277 -63.34333801
vertex 39.16582489 -57.96298981 -72.67680359

endloop
endfacet
facet normal 0.4326275587 -0.1015666202 0.8958334923
outer loop
vertex 35.57262421 -59.60923004 -71.12817383
vertex 39.16582489 -57.96298981 -72.67680359
vertex 33.94626617 -53.17215729 -69.61293793

endloop
endfacet
facet normal 0.5532566905 0.07202966511 0.8298907876
outer loop
vertex 33.94626617 -53.17215729 -69.61293793
vertex 39.16582489 -57.96298981 -72.67680359
vertex 36.93346405 -51.62213898 -71.73892212

endloop
endfacet
facet normal 0.5858273506 -0.01768917777 0.8102428317
outer loop
vertex 33.94626617 -53.17215729 -69.61293793
vertex 36.93346405 -51.62213898 -71.73892212
vertex 32.16930389 -47.81429291 -68.21117401

endloop
endfacet
facet normal 0.6382597685 0.09028113633 0.764508903
outer loop
vertex 32.16930389 -47.81429291 -68.21117401
vertex 36.93346405 -51.62213898 -71.73892212
vertex 34.71109772 -46.10771942 -70.53475189

endloop
endfacet
facet normal 0.6485304236 0.06650060415 0.7582783699
outer loop
vertex 32.16930389 -47.81429291 -68.21117401
vertex 34.71109772 -46.10771942 -70.53475189
vertex 29.75817108 -43.0524826 -66.56661987

endloop
endfacet
facet normal 0.6693598032 0.1366550326 0.7302621007
outer loop
vertex 29.75817108 -43.0524826 -66.56661987
vertex 34.71109772 -46.10771942 -70.53475189
vertex 31.94062042 -40.99796295 -68.95152283

endloop
endfacet
facet normal 0.687077105 0.1047538519 0.718993485
outer loop
vertex 29.75817108 -43.0524826 -66.56661987
vertex 31.94062042 -40.99796295 -68.95152283
vertex 26.95372772 -38.78130341 -64.50895691

endloop
endfacet
facet normal 0.7007583976 0.2102493644 0.6817131639
outer loop
vertex 26.95372772 -38.78130341 -64.50895691
vertex 31.94062042 -40.99796295 -68.95152283
vertex 28.76595306 -36.24164581 -67.15507507

endloop
endfacet
facet normal 0.6956614256 0.2170858979 0.6847838163
outer loop
vertex 26.95372772 -38.78130341 -64.50895691
vertex 28.76595306 -36.24164581 -67.15507507
vertex 23.80036163 -35.16686249 -62.45132828

endloop
endfacet
facet normal 0.6843547821 0.3408797085 0.6445615888
outer loop
vertex 23.80036163 -35.16686249 -62.45132828
vertex 28.76595306 -36.24164581 -67.15507507
vertex 25.22480011 -32.26583099 -65.49793243

endloop
endfacet
facet normal 0.6203895211 0.4023737013 0.6732103825
outer loop
vertex 23.80036163 -35.16686249 -62.45132828
vertex 25.22480011 -32.26583099 -65.49793243
vertex 20.15007782 -32.30098724 -60.80036545

endloop
endfacet
facet normal 0.5892688632 0.4927673638 0.6402675509
outer loop
vertex 20.15007782 -32.30098724 -60.80036545
vertex 25.22480011 -32.26583099 -65.49793243
vertex 21.27680206 -29.2650528 -64.17388153

endloop
endfacet
facet normal 0.4977129698 0.5554841161 0.6661225557
outer loop
vertex 20.15007782 -32.30098724 -60.80036545
vertex 21.27677155 -29.26506805 -64.17388153
vertex 16.00348663 -30.00058746 -59.62043762

endloop
endfacet
facet normal 0.513902545 0.5233837962 0.6796863079
outer loop
vertex 16.00348663 -30.00058746 -59.62043762
vertex 21.27677155 -29.26506805 -64.17388153
vertex 17.07860565 -26.63480377 -63.02510071

endloop
endfacet
facet normal 0.2831498384 0.6358480453 0.7179996371
outer loop
vertex 16.00348663 -30.00058746 -59.62043762
vertex 17.07860565 -26.63480377 -63.02510071
vertex 12.318367 -28.24414825 -59.72264862

endloop
endfacet
facet normal 0.4796190858 0.2846183479 0.830034852
outer loop
vertex 12.318367 -28.24414825 -59.72264862
vertex 17.07860565 -26.63480377 -63.02510071
vertex 13.25174713 -23.94005585 -61.737854

endloop
endfacet
facet normal 0.8171544671 0.08940980583 0.5694422126
outer loop
vertex 12.31838226 -28.24414825 -59.72264862
vertex 13.25176239 -23.94004059 -61.73785782
vertex 6.414496899 -26.08313751 -51.58982849

endloop
endfacet
facet normal -nan(ind) -nan(ind) -nan(ind)
outer loop
vertex 6.414496899 -26.08313751 -51.58982849
vertex 13.25176239 -23.94004059 -61.73785782
vertex 6.414496899 -26.08313751 -51.58982849

endloop
endfacet
facet normal 0.9985502362 -0 0.05382766202
outer loop
vertex 38.66269684 -60.9593277 -63.34333801
vertex 38.66269684 -60.95934296 -63.34333801
vertex 39.16582489 -57.96298981 -72.67680359

endloop
endfacet
facet normal -0.4332352877 0.8646795154 0.2542369962
outer loop
vertex 39.16582489 -57.96298981 -72.67680359
vertex 38.66269684 -60.95934296 -63.34333801
vertex 42.93326569 -56.14319611 -72.44611359

endloop
endfacet
facet normal 0.008638313971 -0.1433368474 0.9896362424
outer loop
vertex 39.16582489 -57.96298981 -72.67680359
vertex 42.93326569 -56.14319611 -72.44611359
vertex 36.93346405 -51.62213898 -71.73892212

endloop
endfacet
facet normal 0.06880081445 -0.06442122161 0.9955482483
outer loop
vertex 36.93346405 -51.62213898 -71.73892212
vertex 42.93326569 -56.14319611 -72.44611359
vertex 40.72977448 -49.914711 -71.89079285

endloop
endfacet
facet normal 0.1145713702 -0.1676449329 0.9791672826
outer loop
vertex 36.93346405 -51.62213898 -71.73892212
vertex 40.72977448 -49.914711 -71.89079285
vertex 34.71109772 -46.10771942 -70.53475189

endloop
endfacet
facet normal 0.1341059804 -0.1375478804 0.9813746214
outer loop
vertex 34.71109772 -46.10771942 -70.53475189
vertex 40.72977448 -49.914711 -71.89079285
vertex 38.3292923 -44.2988205 -70.77565002

endloop
endfacet
facet normal 0.1679263413 -0.2075493932 0.9637032747
outer loop
vertex 34.71109772 -46.10771942 -70.53475189
vertex 38.3292923 -44.2988205 -70.77565002
vertex 31.94062042 -40.99796295 -68.95152283

endloop
endfacet
facet normal 0.1690690964 -0.2054731846 0.963948369
outer loop
vertex 31.94062042 -40.99796295 -68.95152283
vertex 38.3292923 -44.2988205 -70.77565002
vertex 35.4006424 -38.82607269 -69.09542847

endloop
endfacet
facet normal 0.1873047352 -0.2352014035 0.9537280202
outer loop
vertex 31.94062042 -40.99796295 -68.95152283
vertex 35.4006424 -38.82607269 -69.09542847
vertex 28.76595306 -36.24164581 -67.15507507

endloop
endfacet
facet normal 0.1667114943 -0.2814927995 0.9449703693
outer loop
vertex 28.76595306 -36.24164581 -67.15507507
vertex 35.4006424 -38.82607269 -69.09542847
vertex 32.08181 -33.56131744 -66.9416275

endloop
endfacet
facet normal 0.1510111541 -0.2627079785 0.9529848695
outer loop
vertex 28.76595306 -36.24164581 -67.15507507
vertex 32.08181 -33.56131744 -66.9416275
vertex 25.22480011 -32.26583099 -65.49793243

endloop
endfacet
facet normal 0.1399198771 -0.3080761433 0.9410161972
outer loop
vertex 25.22480011 -32.26583099 -65.49793243
vertex 32.08181 -33.56131744 -66.9416275
vertex 28.24065399 -29.12216949 -64.91716766

endloop
endfacet
facet normal 0.1075710133 -0.2794617414 0.9541119337
outer loop
vertex 25.22480011 -32.26583099 -65.49793243
vertex 28.24065399 -29.12216949 -64.91716766
vertex 21.27680206 -29.2650528 -64.17388153

endloop
endfacet
facet normal 0.1075651273 -0.2800146639 0.9539504647
outer loop
vertex 21.27680206 -29.2650528 -64.17388153
vertex 28.24065399 -29.12216949 -64.91716766
vertex 23.72927094 -25.78543854 -63.429039

endloop
endfacet
facet normal 0.09274490923 -0.2704882324 0.9582455754
outer loop
vertex 21.27677155 -29.26506805 -64.17388153
vertex 23.72927094 -25.78543854 -63.429039
vertex 17.07860565 -26.63480377 -63.02510071

endloop
endfacet
facet normal 0.09269411117 -0.2700261474 0.9583807588
outer loop
vertex 17.07860565 -26.63480377 -63.02510071
vertex 23.72927094 -25.78543854 -63.429039
vertex 18.7904129 -22.78365326 -62.10559464

endloop
endfacet
facet normal 0.1219597682 -0.28146106 0.9517906904
outer loop
vertex 17.07860565 -26.63480377 -63.02510071
vertex 18.7904129 -22.78365326 -62.10559464
vertex 13.25174713 -23.94005585 -61.737854

endloop
endfacet
facet normal 0.1252250075 -0.2989347279 0.9460214972
outer loop
vertex 13.25174713 -23.94005585 -61.737854
vertex 18.7904129 -22.78365326 -62.10559464
vertex 13.81616974 -19.67053986 -60.46343613

endloop
endfacet
facet normal 0.8255134821 -0.2588317394 0.5015312433
outer loop
vertex 13.25176239 -23.94004059 -61.73785782
vertex 13.81616974 -19.6705246 -60.46343994
vertex 6.414496899 -26.08313751 -51.58982849

endloop
endfacet
facet normal -nan(ind) -nan(ind) -nan(ind)
outer loop
vertex 6.414496899 -26.08313751 -51.58982849
vertex 13.81616974 -19.6705246 -60.46343994
vertex 6.414496899 -26.08313751 -51.58982849

endloop
endfacet
facet normal -nan(ind) -nan(ind) -nan(ind)
outer loop
vertex 38.66269684 -60.95934296 -63.34333801
vertex 38.66269684 -60.95934296 -63.34333801
vertex 42.93326569 -56.14319611 -72.44611359

endloop
endfacet
facet normal -0.5268160105 0.8282302618 0.1910488009
outer loop
vertex 42.93326569 -56.14319611 -72.44611359
vertex 38.66269684 -60.95934296 -63.34333801
vertex 46.4981308 -54.35259247 -70.37860107

endloop
endfacet
facet normal -0.4034076631 -0.2218632549 0.8877155185
outer loop
vertex 42.93326569 -56.14319611 -72.44611359
vertex 46.4981308 -54.35259247 -70.37860107
vertex 40.72977448 -49.914711 -71.89079285

endloop
endfacet
facet normal -0.3718491197 -0.1725278646 0.9121196866
outer loop
vertex 40.72977448 -49.914711 -71.89079285
vertex 46.4981308 -54.35259247 -70.37860107
vertex 44.49848175 -48.36400604 -70.06106567

endloop
endfacet
facet normal -0.3087339699 -0.3104890883 0.8990438581
outer loop
vertex 40.72977448 -49.914711 -71.89079285
vertex 44.49848175 -48.36400604 -70.06106567
vertex 38.3292923 -44.2988205 -70.77565002

endloop
endfacet
facet normal -0.3059422672 -0.3058030307 0.9016006589
outer loop
vertex 38.3292923 -44.2988205 -70.77565002
vertex 44.49848175 -48.36400604 -70.06106567
vertex 42.04372406 -42.78891754 -69.00309753

endloop
endfacet
facet normal -0.2541388571 -0.4055662453 0.8780258894
outer loop
vertex 38.3292923 -44.2988205 -70.77565002
vertex 42.04372406 -42.78891754 -69.00309753
vertex 35.4006424 -38.82607269 -69.09542847

endloop
endfacet
facet normal -0.2604985237 -0.4163893163 0.8710685372
outer loop
vertex 35.4006424 -38.82607269 -69.09542847
vertex 42.04372406 -42.78891754 -69.00309753
vertex 39.04380035 -37.11920929 -67.19000244

endloop
endfacet
facet normal -0.2169086784 -0.4836373925 0.8479654789
outer loop
vertex 35.4006424 -38.82607269 -69.09542847
vertex 39.04380035 -37.11920929 -67.19000244
vertex 32.08181 -33.56131744 -66.9416275

endloop
endfacet
facet normal -0.2346900254 -0.5167140365 0.8233633041
outer loop
vertex 32.08181 -33.56131744 -66.9416275
vertex 39.04380035 -37.11920929 -67.19000244
vertex 35.63217926 -31.51174164 -64.64339447

endloop
endfacet
facet normal -0.2074097991 -0.5487872958 0.809823215
outer loop
vertex 32.08181 -33.56131744 -66.9416275
vertex 35.63217926 -31.51174164 -64.64339447
vertex 28.24065399 -29.12216949 -64.91716766

endloop
endfacet
facet normal -0.2170971334 -0.5817251801 0.7838779688
outer loop
vertex 28.24065399 -29.12216949 -64.91716766
vertex 35.63217926 -31.51174164 -64.64339447
vertex 31.49958038 -26.66941071 -62.1943779

endloop
endfacet
facet normal -0.1916332245 -0.6040812135 0.7735390067
outer loop
vertex 28.24065399 -29.12216949 -64.91716766
vertex 31.49958038 -26.66941071 -62.1943779
vertex 23.72927094 -25.78543854 -63.429039

endloop
endfacet
facet normal -0.1913955361 -0.6224944592 0.7588599324
outer loop
vertex 23.72927094 -25.78543854 -63.429039
vertex 31.49958038 -26.66941071 -62.1943779
vertex 26.32750702 -22.97542572 -60.46866608

endloop
endfacet
facet normal -0.1801538765 -0.6296036839 0.7557405233
outer loop
vertex 23.72927094 -25.78543854 -63.429039
vertex 26.32750702 -22.97542572 -60.46866226
vertex 18.7904129 -22.78365326 -62.10559464

endloop
endfacet
facet normal -0.1754757911 -0.6598032117 0.7306627631
outer loop
vertex 18.7904129 -22.78365326 -62.10559464
vertex 26.32750702 -22.97542572 -60.46866226
vertex 20.33322906 -19.77931976 -59.02209854

endloop
endfacet
facet normal -0.172552675 -0.6609525084 0.7303199768
outer loop
vertex 18.7904129 -22.78365326 -62.10559464
vertex 20.33322906 -19.77931976 -59.02209854
vertex 13.81616974 -19.67053986 -60.46343613

endloop
endfacet
facet normal -0.1721092463 -0.6634862423 0.7281238437
outer loop
vertex 13.81616974 -19.67053986 -60.46343613
vertex 20.33322906 -19.77931976 -59.02209854
vertex 13.86824799 -16.58063507 -57.63552094

endloop
endfacet
facet normal 0.8261017203 -0.3879730105 0.4086965621
outer loop
vertex 13.81616974 -19.6705246 -60.46343994
vertex 13.86826324 -16.58063507 -57.63552475
vertex 6.414496899 -26.08313751 -51.58982849

endloop
endfacet
facet normal 0.7808687687 -0.6246950626 0
outer loop
vertex 6.414496899 -26.08313751 -51.58982849
vertex 13.86826324 -16.58063507 -57.63552475
vertex 6.414496899 -26.08313751 -51.58982468

endloop
endfacet
facet normal -nan(ind) -nan(ind) -nan(ind)
outer loop
vertex 38.66269684 -60.95934296 -63.34333801
vertex 38.66269684 -60.95934296 -63.34333801
vertex 46.4981308 -54.35259247 -70.37860107

endloop
endfacet
facet normal -0.5752595663 0.8092312217 0.1192536429
outer loop
vertex 46.4981308 -54.35259247 -70.37860107
vertex 38.66269684 -60.95934296 -63.34333801
vertex 49.15294647 -52.94539642 -67.12116241

endloop
endfacet
facet normal -0.6879763007 -0.2655347884 0.6754109263
outer loop
vertex 46.4981308 -54.35259247 -70.37860107
vertex 49.15294647 -52.94539642 -67.12116241
vertex 44.49848175 -48.36400604 -70.06106567

endloop
endfacet
facet normal -0.6803315878 -0.2488038391 0.6893805265
outer loop
vertex 44.49848175 -48.36400604 -70.06106567
vertex 49.15294647 -52.94539642 -67.12116241
vertex 47.48232269 -47.29036713 -66.72890472

endloop
endfacet
facet normal -0.6150770187 -0.3997883201 0.6795951724
outer loop
vertex 44.49848175 -48.36400604 -70.06106567
vertex 47.48232269 -47.29036713 -66.72890472
vertex 42.04372406 -42.78891754 -69.00309753

endloop
endfacet
facet normal -0.6176392436 -0.4059021771 0.6736209393
outer loop
vertex 42.04372406 -42.78891754 -69.00309753
vertex 47.48232269 -47.29036713 -66.72890472
vertex 45.16704559 -41.89461517 -65.60046387

endloop
endfacet
facet normal -0.5644862652 -0.5069862008 0.6513986588
outer loop
vertex 42.04372406 -42.78891754 -69.00309753
vertex 45.16704559 -41.89461517 -65.60046387
vertex 39.04380035 -37.11920929 -67.19000244

endloop
endfacet
facet normal -0.5654030442 -0.5089330077 0.6490812898
outer loop
vertex 39.04380035 -37.11920929 -67.19000244
vertex 45.16704559 -41.89461517 -65.60046387
vertex 42.18514252 -36.23209381 -63.75806427

endloop
endfacet
facet normal -0.5114334822 -0.5934205651 0.6215205193
outer loop
vertex 39.04380035 -37.11920929 -67.19000244
vertex 42.18514252 -36.23209381 -63.75806427
vertex 35.63217926 -31.51174164 -64.64339447

endloop
endfacet
facet normal -0.5155647993 -0.6012202501 0.6105139256
outer loop
vertex 35.63217926 -31.51174164 -64.64339447
vertex 42.18514252 -36.23209381 -63.75806427
vertex 38.65439606 -30.51868439 -61.11326218

endloop
endfacet
facet normal -0.4525519609 -0.6787351966 0.5783729553
outer loop
vertex 35.63217926 -31.51174164 -64.64339447
vertex 38.65439606 -30.51868439 -61.11326218
vertex 31.49958038 -26.66941071 -62.1943779

endloop
endfacet
facet normal -0.4595528841 -0.7010347843 0.5453084707
outer loop
vertex 31.49958038 -26.66941071 -62.1943779
vertex 38.65439606 -30.51868439 -61.11326218
vertex 34.1419754 -25.51406097 -58.48223877

endloop
endfacet
facet normal -0.3803116381 -0.7710698843 0.5106998682
outer loop
vertex 31.49958038 -26.66941071 -62.1943779
vertex 34.1419754 -25.51406097 -58.48223877
vertex 26.32750702 -22.97542572 -60.46866608

endloop
endfacet
facet normal -0.3793498278 -0.7869589329 0.486610055
outer loop
vertex 26.32750702 -22.97542572 -60.46866608
vertex 34.1419754 -25.51406097 -58.48223877
vertex 28.29863739 -21.52437592 -56.58534241

endloop
endfacet
facet normal -0.3238486946 -0.8205453157 0.4709855616
outer loop
vertex 26.32750702 -22.97542572 -60.46866226
vertex 28.29863739 -21.52439117 -56.58534241
vertex 20.33322906 -19.77931976 -59.02209854

endloop
endfacet
facet normal -0.3308915496 -0.7903279662 0.5156477094
outer loop
vertex 20.33322906 -19.77931976 -59.02209854
vertex 28.29863739 -21.52439117 -56.58534241
vertex 21.46729279 -17.71477509 -55.1300621

endloop
endfacet
facet normal -0.2897399962 -0.807993412 0.5130276084
outer loop
vertex 20.33322906 -19.77931976 -59.02209854
vertex 21.46729279 -17.71477509 -55.1300621
vertex 13.86824799 -16.58063507 -57.63552094

endloop
endfacet
facet normal -0.2912620604 -0.8030502796 0.5198814869
outer loop
vertex 13.86824799 -16.58063507 -57.63552094
vertex 21.46729279 -17.71477509 -55.1300621
vertex 13.53859711 -14.19178009 -54.1301918

endloop
endfacet
facet normal 0.831106782 -0.4200619161 0.3644303977
outer loop
vertex 13.86826324 -16.58063507 -57.63552475
vertex 13.53861237 -14.19176483 -54.13019562
vertex 6.414496899 -26.08313751 -51.58982468

endloop
endfacet
facet normal -0.8479983211 0.5299989581 0
outer loop
vertex 6.414496899 -26.08313751 -51.58982468
vertex 13.53861237 -14.19176483 -54.13019562
vertex 6.414496899 -26.08313751 -51.58982849

endloop
endfacet
facet normal 0.2401980311 0.138504371 0.9607921243
outer loop
vertex 38.66269684 -60.95934296 -63.34333801
vertex 38.6627121 -60.95934296 -63.34334183
vertex 49.15294647 -52.94539642 -67.12116241

endloop
endfacet
facet normal -0.5964981318 0.8014229536 0.04371731356
outer loop
vertex 49.15294647 -52.94539642 -67.12116241
vertex 38.6627121 -60.95934296 -63.34334183
vertex 50.55565643 -52.10391998 -63.40787125

endloop
endfacet
facet normal -0.8734046221 -0.2853951156 0.3946059346
outer loop
vertex 49.15294647 -52.94539642 -67.12116241
vertex 50.55565643 -52.10391998 -63.40787125
vertex 47.48232269 -47.29036713 -66.72890472

endloop
endfacet
facet normal -0.8703464866 -0.2728757262 0.4099217355
outer loop
vertex 47.48232269 -47.29036713 -66.72890472
vertex 50.55565643 -52.10391998 -63.40787125
vertex 49.24616241 -46.83231354 -62.67900085

endloop
endfacet
facet normal -0.8085430861 -0.4307744503 0.400863409
outer loop
vertex 47.48232269 -47.29036713 -66.72890472
vertex 49.24616241 -46.83231354 -62.67900085
vertex 45.16704559 -41.89461517 -65.60046387

endloop
endfacet
facet normal -0.8095047474 -0.4363004565 0.3928663135
outer loop
vertex 45.16704559 -41.89461517 -65.60046387
vertex 49.24616241 -46.83231354 -62.67900085
vertex 47.11035919 -41.75312042 -61.4391098

endloop
endfacet
facet normal -0.7644510269 -0.5245187283 0.3748262525
outer loop
vertex 45.16704559 -41.89461517 -65.60046387
vertex 47.11035919 -41.75312042 -61.4391098
vertex 42.18514252 -36.23209381 -63.75806427

endloop
endfacet
facet normal -0.7671978474 -0.5372077227 0.3504499793
outer loop
vertex 42.18514252 -36.23209381 -63.75806427
vertex 47.11035919 -41.75312042 -61.4391098
vertex 44.17166901 -36.3269577 -59.55461884

endloop
endfacet
facet normal -0.727052629 -0.602067709 0.330013752
outer loop
vertex 42.18514252 -36.23209381 -63.75806427
vertex 44.17166901 -36.3269577 -59.55461884
vertex 38.65439606 -30.51868439 -61.11326218

endloop
endfacet
facet normal -0.7319868803 -0.6188178658 0.2850609422
outer loop
vertex 38.65439606 -30.51868439 -61.11326218
vertex 44.17166901 -36.3269577 -59.55461884
vertex 40.50406647 -30.78601837 -56.94396591

endloop
endfacet
facet normal -0.6530737877 -0.7169917822 0.2437569648
outer loop
vertex 38.65439606 -30.51868439 -61.11326218
vertex 40.50406647 -30.78601837 -56.94396591
vertex 34.1419754 -25.51406097 -58.48223877

endloop
endfacet
facet normal -0.6529193521 -0.7372174263 0.1738010496
outer loop
vertex 34.1419754 -25.51406097 -58.48223877
vertex 40.50406647 -30.78601837 -56.94396591
vertex 35.63410187 -25.86113739 -54.34896469

endloop
endfacet
facet normal -0.5323914289 -0.8376819491 0.1218539178
outer loop
vertex 34.1419754 -25.51406097 -58.48223877
vertex 35.63410187 -25.86113739 -54.34896469
vertex 28.29863739 -21.52437592 -56.58534241

endloop
endfacet
facet normal -0.5293241143 -0.8421220183 0.1031826809
outer loop
vertex 28.29863739 -21.52437592 -56.58534241
vertex 35.63410187 -25.86113739 -54.34896469
vertex 29.29651642 -21.64121246 -52.41981125

endloop
endfacet
facet normal -0.4707655609 -0.87784338 0.08815099299
outer loop
vertex 28.29863739 -21.52439117 -56.58534241
vertex 29.29650116 -21.64122772 -52.41981125
vertex 21.46729279 -17.71477509 -55.1300621

endloop
endfacet
facet normal -0.4949498475 -0.8438361287 0.2072806954
outer loop
vertex 21.46729279 -17.71477509 -55.1300621
vertex 29.29650116 -21.64122772 -52.41981125
vertex 21.97106171 -16.98001862 -50.93597031

endloop
endfacet
facet normal -0.3760062754 -0.9039879441 0.2035318464
outer loop
vertex 21.46729279 -17.71477509 -55.1300621
vertex 21.97106171 -16.98001862 -50.93597031
vertex 13.53859711 -14.19178009 -54.1301918

endloop
endfacet
facet normal -0.3861581385 -0.8899670839 0.2425706834
outer loop
vertex 13.53859711 -14.19178009 -54.1301918
vertex 21.97106171 -16.98001862 -50.93597031
vertex 12.86426544 -12.8599472 -50.31732941

endloop
endfacet
facet normal 0.844568491 -0.441151619 0.3034621775
outer loop
vertex 13.53861237 -14.19176483 -54.13019562
vertex 12.8642807 -12.85993195 -50.31733322
vertex 6.414496899 -26.08313751 -51.58982849

endloop
endfacet
facet normal -0.4968793392 0.3223001063 -0.8057502508
outer loop
vertex 6.414496899 -26.08313751 -51.58982849
vertex 12.8642807 -12.85993195 -50.31733322
vertex 6.414513111 -26.08312225 -51.58983231

endloop
endfacet
facet normal -0.231086567 0.3036164641 -0.9243462682
outer loop
vertex 38.6627121 -60.95934296 -63.34334183
vertex 38.66268158 -60.95934296 -63.3433342
vertex 50.55565643 -52.10391998 -63.40787125

endloop
endfacet
facet normal -0.5971494913 0.8018184304 -0.02235238813
outer loop
vertex 50.55565643 -52.10391998 -63.40787125
vertex 38.66268158 -60.95934296 -63.3433342
vertex 51.01648712 -51.62923431 -58.69128418

endloop
endfacet
facet normal -0.9595740438 -0.2548724711 0.119405292
outer loop
vertex 50.55565643 -52.10391998 -63.40787125
vertex 51.01648712 -51.62923431 -58.69128418
vertex 49.24616241 -46.83231354 -62.67900085

endloop
endfacet
facet normal -0.9469473362 -0.3193374574 0.03625328466
outer loop
vertex 49.24616241 -46.83231354 -62.67900085
vertex 51.01648712 -51.62923431 -58.69128418
vertex 49.5290451 -47.09520721 -57.60571671

endloop
endfacet
facet normal -0.9186692834 -0.3938236237 0.03081670403
outer loop
vertex 49.24616241 -46.83231354 -62.67900085
vertex 49.5290451 -47.09520721 -57.60571671
vertex 47.11035919 -41.75312042 -61.4391098

endloop
endfacet
facet normal -0.9058397412 -0.4232270122 -0.01825374179
outer loop
vertex 47.11035919 -41.75312042 -61.4391098
vertex 49.5290451 -47.09520721 -57.60571671
vertex 47.41065216 -42.61614227 -56.33128738

endloop
endfacet
facet normal -0.8829346895 -0.4687023461 -0.02728389017
outer loop
vertex 47.11035919 -41.75312042 -61.4391098
vertex 47.41065216 -42.61614227 -56.33128738
vertex 44.17166901 -36.3269577 -59.55461884

endloop
endfacet
facet normal -0.872310102 -0.4841793478 -0.06815794855
outer loop
vertex 44.17166901 -36.3269577 -59.55461884
vertex 47.41065216 -42.61614227 -56.33128738
vertex 44.53725433 -37.71805573 -54.35145187

endloop
endfacet
facet normal -0.8481917381 -0.5235550404 -0.08037985861
outer loop
vertex 44.17166901 -36.3269577 -59.55461884
vertex 44.53725433 -37.71805573 -54.35145187
vertex 40.50406647 -30.78601837 -56.94396591

endloop
endfacet
facet normal -0.8503930569 -0.5213333964 -0.07101523131
outer loop
vertex 40.50406647 -30.78601837 -56.94396591
vertex 44.53725433 -37.71805573 -54.35145187
vertex 41.05448151 -32.37126923 -51.89751053

endloop
endfacet
facet normal -0.7380485535 -0.6625661254 -0.1276342571
outer loop
vertex 40.50406647 -30.78601837 -56.94396591
vertex 41.05448151 -32.37126923 -51.89751053
vertex 35.63410187 -25.86113739 -54.34896469

endloop
endfacet
facet normal -0.7318806648 -0.6651418209 -0.1481119245
outer loop
vertex 35.63410187 -25.86113739 -54.34896469
vertex 41.05448151 -32.37126923 -51.89751053
vertex 36.1634903 -27.49729156 -49.61723709

endloop
endfacet
facet normal -0.5850023031 -0.7844833136 -0.205811128
outer loop
vertex 35.63410187 -25.86113739 -54.34896469
vertex 36.1634903 -27.49729156 -49.61723709
vertex 29.29651642 -21.64121246 -52.41981125

endloop
endfacet
facet normal -0.5645392537 -0.7846237421 -0.2562439144
outer loop
vertex 29.29651642 -21.64121246 -52.41981125
vertex 36.1634903 -27.49729156 -49.61723709
vertex 29.43361664 -23.24422455 -47.8134079

endloop
endfacet
facet normal -0.5553219318 -0.7904283404 -0.2585355937
outer loop
vertex 29.29650116 -21.64122772 -52.41981125
vertex 29.43360138 -23.24422455 -47.8134079
vertex 21.97106171 -16.98001862 -50.93597031

endloop
endfacet
facet normal -0.5841027498 -0.7895903587 -0.1880720109
outer loop
vertex 21.97106171 -16.98001862 -50.93597031
vertex 29.43360138 -23.24422455 -47.8134079
vertex 21.72686005 -17.943367 -46.13307953

endloop
endfacet
facet normal -0.4151365161 -0.8876924515 -0.199157998
outer loop
vertex 21.97106171 -16.98001862 -50.93597031
vertex 21.72686005 -17.943367 -46.13307953
vertex 12.86426544 -12.8599472 -50.31732941

endloop
endfacet
facet normal -0.43699646 -0.8866062164 -0.1515371799
outer loop
vertex 12.86426544 -12.8599472 -50.31732941
vertex 21.72686005 -17.943367 -46.13307953
vertex 11.69921112 -13.04372406 -45.88236237

endloop
endfacet
facet normal 0.8705670238 -0.4448633194 0.2102612108
outer loop
vertex 12.8642807 -12.85993195 -50.31733322
vertex 11.69922638 -13.0437088 -45.88236237
vertex 6.414513111 -26.08312225 -51.58983231

endloop
endfacet
facet normal 0.4418554604 -0.5037152171 0.7423171401
outer loop
vertex 6.414513111 -26.08312225 -51.58983231
vertex 11.69922638 -13.0437088 -45.88236237
vertex 6.414482117 -26.08313751 -51.58982468

endloop
endfacet
facet normal 0.1889401525 -0.6269987226 0.7557606101
outer loop
vertex 38.66268158 -60.95934296 -63.3433342
vertex 38.66269684 -60.95934296 -63.34333801
vertex 51.01648712 -51.62923431 -58.69128418

endloop
endfacet
facet normal -0.5455759168 0.8165191412 -0.1887944192
outer loop
vertex 51.01648712 -51.62923431 -58.69128418
vertex 38.66269684 -60.95934296 -63.34333801
vertex 44.42102814 -53.55051422 -47.94116974

endloop
endfacet
facet normal -0.8317005038 -0.1444943398 -0.5360929966
outer loop
vertex 51.01648712 -51.62923431 -58.69128418
vertex 44.42102814 -53.55051422 -47.94116974
vertex 49.5290451 -47.09520721 -57.60571671

endloop
endfacet
facet normal -0.841911912 -0.1210853681 -0.5258542895
outer loop
vertex 49.5290451 -47.09520721 -57.60571671
vertex 44.42102814 -53.55051422 -47.94116974
vertex 43.76088715 -50.2440567 -47.64561844

endloop
endfacet
facet normal -0.8092844486 -0.2288185209 -0.5410183072
outer loop
vertex 49.5290451 -47.09520721 -57.60571671
vertex 43.76088715 -50.2440567 -47.64561844
vertex 47.41065216 -42.61614227 -56.33128738

endloop
endfacet
facet normal -0.8075821996 -0.2313171327 -0.5424973965
outer loop
vertex 47.41065216 -42.61614227 -56.33128738
vertex 43.76088715 -50.2440567 -47.64561844
vertex 42.27771759 -46.9192276 -46.85540009

endloop
endfacet
facet normal -0.7999566793 -0.2485160381 -0.5461768508
outer loop
vertex 47.41065216 -42.61614227 -56.33128738
vertex 42.27771759 -46.9192276 -46.85540009
vertex 44.53725433 -37.71805573 -54.35145187

endloop
endfacet
facet normal -0.774833858 -0.2738909721 -0.5697510242
outer loop
vertex 44.53725433 -37.71805573 -54.35145187
vertex 42.27771759 -46.9192276 -46.85540009
vertex 39.90219879 -43.34027863 -45.34528351

endloop
endfacet
facet normal -0.7864125967 -0.2537855506 -0.5631590486
outer loop
vertex 44.53725433 -37.71805573 -54.35145187
vertex 39.90219879 -43.34027863 -45.34528351
vertex 41.05448151 -32.37126923 -51.89751053

endloop
endfacet
facet normal -0.7204387188 -0.29830423 -0.626085043
outer loop
vertex 41.05448151 -32.37126923 -51.89751053
vertex 39.90219879 -43.34027863 -45.34528351
vertex 36.51517487 -39.78322601 -43.14261246

endloop
endfacet
facet normal -0.6655861735 -0.362769872 -0.6522216797
outer loop
vertex 41.05448151 -32.37126923 -51.89751053
vertex 36.51517487 -39.78322601 -43.14261246
vertex 36.1634903 -27.49729156 -49.61723709

endloop
endfacet
facet normal -0.6001340151 -0.3863041401 -0.7004343271
outer loop
vertex 36.1634903 -27.49729156 -49.61723709
vertex 36.51517487 -39.78322601 -43.14261246
vertex 31.8393631 -36.16622162 -41.13121796

endloop
endfacet
facet normal -0.4933258593 -0.4702562392 -0.7317709327
outer loop
vertex 36.1634903 -27.49729156 -49.61723709
vertex 31.8393631 -36.16622162 -41.13121796
vertex 29.43361664 -23.24422455 -47.8134079

endloop
endfacet
facet normal -0.5028659701 -0.4690597653 -0.7260225415
outer loop
vertex 29.43361664 -23.24422455 -47.8134079
vertex 31.8393631 -36.16622162 -41.13121796
vertex 25.62812042 -32.24810028 -39.36048889

endloop
endfacet
facet normal -0.488319248 -0.4786468148 -0.7296859026
outer loop
vertex 29.43360138 -23.24422455 -47.8134079
vertex 25.62812042 -32.24811554 -39.36049271
vertex 21.72686005 -17.943367 -46.13307953

endloop
endfacet
facet normal -0.5244374275 -0.4769603312 -0.7053184509
outer loop
vertex 21.72686005 -17.943367 -46.13307953
vertex 25.62812042 -32.24811554 -39.36049271
vertex 17.60626984 -27.98082733 -36.28155518

endloop
endfacet
facet normal -0.3105825782 -0.5978249311 -0.7390154004
outer loop
vertex 21.72686005 -17.943367 -46.13307953
vertex 17.60626984 -27.98082733 -36.28155518
vertex 11.69921112 -13.04372406 -45.88236237

endloop
endfacet
facet normal -0.290268451 -0.5960040689 -0.7486810684
outer loop
vertex 11.69921112 -13.04372406 -45.88236237
vertex 17.60626984 -27.98082733 -36.28155518
vertex 6.392967224 -23.79056549 -35.26983643

endloop
endfacet
facet normal 0.9163628221 -0.3962880373 0.05687751248
outer loop
vertex 11.69922638 -13.0437088 -45.88236237
vertex 6.392967224 -23.79055023 -35.26983643
vertex 6.414482117 -26.08313751 -51.58982468

endloop
endfacet
facet normal -0.03131300956 0.989784658 -0.1390890926
outer loop
vertex 6.414482117 -26.08313751 -51.58982468
vertex 6.392967224 -23.79055023 -35.26983643
vertex 6.414496899 -26.08313751 -51.58982849

endloop
endfacet
endsolid
