solid 
facet normal 0 0.880495 -0.474055
outer loop
vertex -11.6765976 -35.84354401 5.41566515
vertex -11.67658234 -35.84354401 5.41566515
vertex -5.67658186 -42.88948822 -7.671258926

endloop
endfacet
facet normal -0.4663550258 -0.8502864242 0.2439794242
outer loop
vertex -5.67658186 -42.88948822 -7.671258926
vertex -11.67658234 -35.84354401 5.41566515
vertex -13.01967621 -38.74433136 -7.261054039

endloop
endfacet
facet normal 0.2627637386 0.3776163757 0.8878970146
outer loop
vertex -5.67658186 -42.88948822 -7.671258926
vertex -13.01967621 -38.74433136 -7.261054039
vertex -11.81104279 -48.13773346 -3.623788118

endloop
endfacet
facet normal 0.2202184647 0.3767368197 0.8997628689
outer loop
vertex -11.81104279 -48.13773346 -3.623788118
vertex -13.01967621 -38.74433136 -7.261054039
vertex -17.32854462 -44.53447723 -3.782078028

endloop
endfacet
facet normal 0.347722441 0.5653111339 0.7480056882
outer loop
vertex -11.81104279 -48.13773346 -3.623788118
vertex -17.32854462 -44.53447723 -3.782078028
vertex -15.76483917 -52.68157196 1.648239017

endloop
endfacet
facet normal 0.5539508462 0.5327537656 0.639774859
outer loop
vertex -15.76483917 -52.68157196 1.648239017
vertex -17.32854462 -44.53447723 -3.782078028
vertex -20.09775543 -48.22374725 1.687783003

endloop
endfacet
facet normal 0.5221902132 0.5014390945 0.6898378134
outer loop
vertex -15.76483917 -52.68157196 1.648239017
vertex -20.09775543 -48.22374725 1.687783003
vertex -18.17563629 -56.81711578 6.479255199

endloop
endfacet
facet normal 0.7218543887 0.4531174004 0.5230782032
outer loop
vertex -18.17563629 -56.81711578 6.479255199
vertex -20.09775543 -48.22374725 1.687783003
vertex -22.24663544 -51.27645111 7.297674179

endloop
endfacet
facet normal 0.6850529909 0.4148919284 0.5988048315
outer loop
vertex -18.17563629 -56.81711578 6.479255199
vertex -22.24663544 -51.27645111 7.297674179
vertex -19.12029266 -60.93456268 10.41281605

endloop
endfacet
facet normal 0.7262991667 0.4124620855 0.5498769283
outer loop
vertex -19.12029266 -60.93456268 10.41281605
vertex -22.24663544 -51.27645111 7.297674179
vertex -24.52004242 -54.25380707 12.53379154

endloop
endfacet
facet normal 0.7405743599 0.4363280535 0.5110455751
outer loop
vertex -19.12029266 -60.93456268 10.41281605
vertex -24.52004242 -54.25380707 12.53379154
vertex -19.60225677 -63.75185394 13.51663589

endloop
endfacet
facet normal 0.710521996 0.4258528352 0.5601855516
outer loop
vertex -19.60225677 -63.75185394 13.51663589
vertex -24.52004242 -54.25380707 12.53379154
vertex -26.54259491 -57.17191315 17.31747818

endloop
endfacet
facet normal 0.7369863391 0.5522081852 0.3897655606
outer loop
vertex -19.60225677 -63.75185394 13.51663589
vertex -26.54259491 -57.17191315 17.31747818
vertex -19.83507538 -65.30027771 16.15061951

endloop
endfacet
facet normal 0.6772006154 0.4785961509 0.5588784218
outer loop
vertex -19.83507538 -65.30027771 16.15061951
vertex -26.54259491 -57.17191315 17.31747818
vertex -27.67438507 -60.37903595 21.43530655

endloop
endfacet
facet normal 0.6621132493 0.6450166106 0.3815226555
outer loop
vertex -19.83507538 -65.30027771 16.15061951
vertex -27.67438507 -60.37903595 21.43530655
vertex -19.43236542 -67.15194702 18.58223915

endloop
endfacet
facet normal 0.6100518107 0.4753249586 0.6339581609
outer loop
vertex -19.43236542 -67.15194702 18.58223915
vertex -27.67438507 -60.37903595 21.43530655
vertex -27.69023895 -64.45770264 24.50863838

endloop
endfacet
facet normal 0.6143081188 0.4355333149 0.6579787731
outer loop
vertex -19.43236542 -67.15194702 18.58223915
vertex -27.69023895 -64.45770264 24.50863838
vertex -19.52518463 -69.79665375 20.41949844

endloop
endfacet
facet normal 0.5884964466 0.3372023404 0.734824121
outer loop
vertex -19.52518463 -69.79665375 20.41949844
vertex -27.69023895 -64.45770264 24.50863838
vertex -27.06613922 -69.30351257 26.23250389

endloop
endfacet
facet normal 0.6042140722 -0.0913355723 0.7915700674
outer loop
vertex -19.52518463 -69.79665375 20.41949654
vertex -27.06615448 -69.30352783 26.23250008
vertex -20.96903229 -73.63456726 21.07876205

endloop
endfacet
facet normal 0.6418014169 -0.0089678308 0.7668184638
outer loop
vertex -20.96903229 -73.63456726 21.07876205
vertex -27.06615448 -69.30352783 26.23250008
vertex -25.78917694 -74.82023621 25.09919548

endloop
endfacet
facet normal 0.5524056554 0.338008672 0.7619698644
outer loop
vertex -20.96903229 -73.63457489 21.07876396
vertex -25.7891922 -74.82023621 25.09919548
vertex -23.0226059 -80.44933319 25.59056091

endloop
endfacet
facet normal 0.8983843327 0.4392101169 0
outer loop
vertex -23.0226059 -80.44933319 25.59056091
vertex -25.7891922 -74.82023621 25.09919548
vertex -23.0226059 -80.44933319 25.59056282

endloop
endfacet
facet normal 0 -0.974804163 0.223062411
outer loop
vertex -11.67658234 -35.84354401 5.41566515
vertex -11.6765976 -35.84354401 5.41566515
vertex -13.01967621 -38.74433136 -7.261054039

endloop
endfacet
facet normal -0.4277435541 -0.8702185154 0.2444490492
outer loop
vertex -13.01967621 -38.74433136 -7.261054039
vertex -11.6765976 -35.84354401 5.41566515
vertex -15.94487762 -36.09850311 -2.960719109

endloop
endfacet
facet normal 0.7558405995 -0.1851212978 0.6280406713
outer loop
vertex -13.01967621 -38.74433136 -7.261054039
vertex -15.94487762 -36.09850311 -2.960719109
vertex -17.32854462 -44.53447723 -3.782078028

endloop
endfacet
facet normal 0.8899834752 -0.1864894331 0.4161143601
outer loop
vertex -17.32854462 -44.53447723 -3.782078028
vertex -15.94487762 -36.09850311 -2.960719109
vertex -18.33786774 -40.66678619 0.1100360006

endloop
endfacet
facet normal 0.9178197384 -0.1358641386 0.3730253279
outer loop
vertex -17.32854462 -44.53447723 -3.782078028
vertex -18.33786774 -40.66678619 0.1100360006
vertex -20.09775543 -48.22374725 1.687783003

endloop
endfacet
facet normal 0.9530547261 -0.1695755571 0.250859797
outer loop
vertex -20.09775543 -48.22374725 1.687783003
vertex -18.33786774 -40.66678619 0.1100360006
vertex -20.10385895 -43.6180954 4.824287891

endloop
endfacet
facet normal 0.9473408461 -0.1793914586 0.2652623355
outer loop
vertex -20.09775543 -48.22374725 1.687783003
vertex -20.10385895 -43.6180954 4.824287891
vertex -22.24663544 -51.27645111 7.297674179

endloop
endfacet
facet normal 0.9371873736 -0.162539959 0.3086432815
outer loop
vertex -22.24663544 -51.27645111 7.297674179
vertex -20.10385895 -43.6180954 4.824287891
vertex -22.25141144 -46.25746918 9.955308914

endloop
endfacet
facet normal 0.9355194569 -0.1646230221 0.3125742078
outer loop
vertex -22.24663544 -51.27645111 7.297674179
vertex -22.25141144 -46.25746918 9.955308914
vertex -24.52004242 -54.25380707 12.53379154

endloop
endfacet
facet normal 0.9236830473 -0.1481085271 0.3533744514
outer loop
vertex -24.52004242 -54.25380707 12.53379154
vertex -22.25141144 -46.25746918 9.955308914
vertex -24.80872345 -49.34107208 15.34742928

endloop
endfacet
facet normal 0.9390598536 -0.1276235878 0.3191845119
outer loop
vertex -24.52004242 -54.25380707 12.53379154
vertex -24.80872345 -49.34107208 15.34742928
vertex -26.54259491 -57.17191315 17.31747818

endloop
endfacet
facet normal 0.9403681755 -0.1290326118 0.3147351444
outer loop
vertex -26.54259491 -57.17191315 17.31747818
vertex -24.80872345 -49.34107208 15.34742928
vertex -27.09305573 -52.92032623 20.70518112

endloop
endfacet
facet normal 0.9727579951 -0.0537417233 0.2255075872
outer loop
vertex -26.54259491 -57.17191315 17.31747818
vertex -27.09305573 -52.92032623 20.70518112
vertex -27.67438507 -60.37903595 21.43530655

endloop
endfacet
facet normal 0.9635455012 -0.04935831577 0.2629519999
outer loop
vertex -27.67438507 -60.37903595 21.43530655
vertex -27.09305573 -52.92032623 20.70518112
vertex -28.56732941 -57.2955246 25.28615952

endloop
endfacet
facet normal 0.9839766026 0.1048432887 0.1442150474
outer loop
vertex -27.67438507 -60.37903595 21.43530655
vertex -28.56732941 -57.2955246 25.28615952
vertex -27.69023895 -64.45770264 24.50863838

endloop
endfacet
facet normal 0.944703877 0.0811991021 0.3177126944
outer loop
vertex -27.69023895 -64.45770264 24.50863838
vertex -28.56732941 -57.2955246 25.28615952
vertex -29.08513641 -62.87514496 28.25184059

endloop
endfacet
facet normal 0.9415041208 0.2138995081 0.2604169846
outer loop
vertex -27.69023895 -64.45770264 24.50863838
vertex -29.08513641 -62.87514496 28.25184059
vertex -27.06613922 -69.30351257 26.23250389

endloop
endfacet
facet normal 0.893568933 0.1474519223 0.4240194559
outer loop
vertex -27.06613922 -69.30351257 26.23250389
vertex -29.08513641 -62.87514496 28.25184059
vertex -28.5651474 -69.07665253 29.31258965

endloop
endfacet
facet normal 0.8961474895 0.1196502 0.4273212254
outer loop
vertex -27.06615448 -69.30352783 26.23250008
vertex -28.56516266 -69.07665253 29.31258774
vertex -25.78917694 -74.82023621 25.09919548

endloop
endfacet
facet normal 0.852621913 0.02937745117 0.5217018127
outer loop
vertex -25.78917694 -74.82023621 25.09919548
vertex -28.56516266 -69.07665253 29.31258774
vertex -26.89170074 -75.4045639 26.93396378

endloop
endfacet
facet normal 0.7216886282 0.4037748575 0.5622556806
outer loop
vertex -25.7891922 -74.82023621 25.09919548
vertex -26.89170074 -75.40457153 26.93396187
vertex -23.0226059 -80.44933319 25.59056282

endloop
endfacet
facet normal 0 0.2595405281 -0.9657322168
outer loop
vertex -23.0226059 -80.44933319 25.59056282
vertex -26.89170074 -75.40457153 26.93396187
vertex -23.02259064 -80.44933319 25.59056282

endloop
endfacet
facet normal -nan(ind) -nan(ind) -nan(ind)
outer loop
vertex -11.6765976 -35.84354401 5.41566515
vertex -11.6765976 -35.84354401 5.41566515
vertex -15.94487762 -36.09850311 -2.960719109

endloop
endfacet
facet normal -0.3316620588 -0.9225824475 0.1970835179
outer loop
vertex -15.94487762 -36.09850311 -2.960719109
vertex -11.6765976 -35.84354401 5.41566515
vertex -16.44287872 -35.16815948 0.5563200116

endloop
endfacet
facet normal 0.9170725346 -0.3337551951 0.2181409299
outer loop
vertex -15.94487762 -36.09850311 -2.960719109
vertex -16.44287872 -35.16815948 0.5563200116
vertex -18.33786774 -40.66678619 0.1100360006

endloop
endfacet
facet normal 0.9277288914 -0.3333513439 0.1679167151
outer loop
vertex -18.33786774 -40.66678619 0.1100360006
vertex -16.44287872 -35.16815948 0.5563200116
vertex -18.19280243 -38.85009003 2.915097952

endloop
endfacet
facet normal 0.9368819594 -0.3135881722 0.1546437889
outer loop
vertex -18.33786774 -40.66678619 0.1100360006
vertex -18.19280243 -38.85009003 2.915097952
vertex -20.10385895 -43.6180954 4.824287891

endloop
endfacet
facet normal 0.9372233152 -0.3235729039 0.1300496459
outer loop
vertex -20.10385895 -43.6180954 4.824287891
vertex -18.19280243 -38.85009003 2.915097952
vertex -19.66112518 -41.58359528 6.695640087

endloop
endfacet
facet normal 0.908850193 -0.3717666864 0.1891577095
outer loop
vertex -20.10385895 -43.6180954 4.824287891
vertex -19.66112518 -41.58359528 6.695640087
vertex -22.25141144 -46.25746918 9.955308914

endloop
endfacet
facet normal 0.9088565111 -0.3717009127 0.18925713
outer loop
vertex -22.25141144 -46.25746918 9.955308914
vertex -19.66112518 -41.58359528 6.695640087
vertex -21.66121674 -44.07674408 11.40400028

endloop
endfacet
facet normal 0.9002910852 -0.382132113 0.2084488869
outer loop
vertex -22.25141144 -46.25746918 9.955308914
vertex -21.66121674 -44.07674408 11.40400028
vertex -24.80872345 -49.34107208 15.34742928

endloop
endfacet
facet normal 0.9020110369 -0.3405260444 0.2653641701
outer loop
vertex -24.80872345 -49.34107208 15.34742928
vertex -21.66121674 -44.07674408 11.40400028
vertex -24.36019135 -46.99228668 16.83686066

endloop
endfacet
facet normal 0.9328868985 -0.3023040593 0.1957912147
outer loop
vertex -24.80872345 -49.34107208 15.34742928
vertex -24.36019135 -46.99228668 16.83686066
vertex -27.09305573 -52.92032623 20.70518112

endloop
endfacet
facet normal 0.9321264625 -0.2793109119 0.2304899246
outer loop
vertex -27.09305573 -52.92032623 20.70518112
vertex -24.36019135 -46.99228668 16.83686066
vertex -26.86707306 -50.65573883 22.53554153

endloop
endfacet
facet normal 0.9723886847 -0.1975051612 0.1243059486
outer loop
vertex -27.09305573 -52.92032623 20.70518112
vertex -26.86707306 -50.65573883 22.53554153
vertex -28.56732941 -57.2955246 25.28615952

endloop
endfacet
facet normal 0.9716764688 -0.1913996637 0.1386038065
outer loop
vertex -28.56732941 -57.2955246 25.28615952
vertex -26.86707306 -50.65573883 22.53554153
vertex -28.53128815 -55.55994415 27.43017769

endloop
endfacet
facet normal 0.9966558218 -0.07089453191 0.0406351164
outer loop
vertex -28.56732941 -57.2955246 25.28615952
vertex -28.53128815 -55.55994415 27.43017769
vertex -29.08513641 -62.87514496 28.25184059

endloop
endfacet
facet normal 0.9916688204 -0.06242500618 0.1126771122
outer loop
vertex -29.08513641 -62.87514496 28.25184059
vertex -28.53128815 -55.55994415 27.43017769
vertex -29.26848602 -61.9956131 30.35277176

endloop
endfacet
facet normal 0.9946107268 0.09167899936 0.04841990769
outer loop
vertex -29.08513641 -62.87514496 28.25184059
vertex -29.26848602 -61.9956131 30.35277176
vertex -28.5651474 -69.07665253 29.31258965

endloop
endfacet
facet normal 0.980741322 0.07066731155 0.1820788682
outer loop
vertex -28.5651474 -69.07665253 29.31258965
vertex -29.26848602 -61.9956131 30.35277176
vertex -28.90175629 -68.97966766 31.08804321

endloop
endfacet
facet normal 0.966339469 0.1906020492 0.1727971286
outer loop
vertex -28.56516266 -69.07665253 29.31258774
vertex -28.90177155 -68.97966766 31.0880394
vertex -26.89170074 -75.4045639 26.93396378

endloop
endfacet
facet normal 0.9328104854 0.06235133857 0.3549320698
outer loop
vertex -26.89170074 -75.4045639 26.93396378
vertex -28.90177155 -68.97966766 31.0880394
vertex -27.31978607 -75.87802124 28.14220428

endloop
endfacet
facet normal 0.7619279027 0.464053601 0.4517965317
outer loop
vertex -26.89170074 -75.40457153 26.93396187
vertex -27.31978607 -75.87802887 28.14220428
vertex -23.02259064 -80.44933319 25.59056282

endloop
endfacet
facet normal -0.7071067691 -0.7071067691 0
outer loop
vertex -23.02259064 -80.44933319 25.59056282
vertex -27.31978607 -75.87802887 28.14220428
vertex -23.02259064 -80.44933319 25.59056091

endloop
endfacet
facet normal -0.1402985454 -0.9901092649 -0
outer loop
vertex -11.6765976 -35.84354401 5.415664196
vertex -11.6765976 -35.84354401 5.41566515
vertex -16.44289398 -35.16815948 0.5563189983

endloop
endfacet
facet normal -0.2231676131 -0.9711613655 0.08391572535
outer loop
vertex -16.44289398 -35.16815948 0.5563189983
vertex -11.6765976 -35.84354401 5.41566515
vertex -16.28968048 -34.98719025 3.058146

endloop
endfacet
facet normal 0.8971429467 -0.441139549 -0.02303186059
outer loop
vertex -16.44289398 -35.16815948 0.5563189983
vertex -16.28968048 -34.98719025 3.058146
vertex -18.19280243 -38.85009003 2.915096998

endloop
endfacet
facet normal 0.8971248865 -0.4417194426 -0.007130614482
outer loop
vertex -18.19280243 -38.85009003 2.915096998
vertex -16.28968048 -34.98719025 3.058146
vertex -17.77475739 -38.02941132 4.672142029

endloop
endfacet
facet normal 0.8849166632 -0.4656972587 0.006973528303
outer loop
vertex -18.19280243 -38.85009003 2.915096998
vertex -17.77475739 -38.02941132 4.672142029
vertex -19.66114044 -41.58361053 6.695640087

endloop
endfacet
facet normal 0.8866781592 -0.4621485174 0.01484899595
outer loop
vertex -19.66114044 -41.58361053 6.695640087
vertex -17.77475739 -38.02941132 4.672142029
vertex -19.09134674 -40.45201874 7.890325069

endloop
endfacet
facet normal 0.8502783179 -0.5192162395 0.08626338094
outer loop
vertex -19.66114044 -41.58361053 6.695640087
vertex -19.09134674 -40.45201874 7.890325069
vertex -21.66123199 -44.07674408 11.40400028

endloop
endfacet
facet normal 0.8514228463 -0.5167645812 0.08962962776
outer loop
vertex -21.66123199 -44.07674408 11.40400028
vertex -19.09134674 -40.45201874 7.890325069
vertex -20.8972702 -42.62918854 12.49282455

endloop
endfacet
facet normal 0.834618032 -0.5359925032 0.1269833893
outer loop
vertex -21.66123199 -44.07674408 11.40400028
vertex -20.8972702 -42.62918854 12.49282455
vertex -24.36019135 -46.99230194 16.83686066

endloop
endfacet
facet normal 0.8624896407 -0.4454937577 0.2400978655
outer loop
vertex -24.36019135 -46.99230194 16.83686066
vertex -20.8972702 -42.62918854 12.49282455
vertex -23.77700043 -45.2228775 18.02500725

endloop
endfacet
facet normal 0.9068689942 -0.3958866894 0.1444382668
outer loop
vertex -24.36019135 -46.99230194 16.83686066
vertex -23.77700043 -45.2228775 18.02500725
vertex -26.86707306 -50.65573883 22.53553963

endloop
endfacet
facet normal 0.9152629972 -0.3357864022 0.2225785702
outer loop
vertex -26.86707306 -50.65573883 22.53553963
vertex -23.77700043 -45.2228775 18.02500725
vertex -26.55849457 -48.83927155 24.00699615

endloop
endfacet
facet normal 0.9670962691 -0.2377155423 0.09064313024
outer loop
vertex -26.86707306 -50.65573883 22.53553963
vertex -26.55849457 -48.83927155 24.00699615
vertex -28.53130341 -55.55994415 27.43017578

endloop
endfacet
facet normal 0.9672724009 -0.2341963649 0.09765382856
outer loop
vertex -28.53130341 -55.55994415 27.43017578
vertex -26.55849457 -48.83927155 24.00699615
vertex -28.36663055 -54.14720917 29.1871357

endloop
endfacet
facet normal 0.993441999 -0.1143310964 -0.001180096646
outer loop
vertex -28.53130341 -55.55994415 27.43017578
vertex -28.36663055 -54.14720917 29.1871357
vertex -29.26848602 -61.9956131 30.35276985

endloop
endfacet
facet normal 0.9935538173 -0.1102526411 0.02636731043
outer loop
vertex -29.26848602 -61.9956131 30.35276985
vertex -28.36663055 -54.14720917 29.1871357
vertex -29.23990631 -61.31749725 32.11133194

endloop
endfacet
facet normal 0.9981982112 0.04872887954 -0.03501271829
outer loop
vertex -29.26848602 -61.9956131 30.35276985
vertex -29.23990631 -61.31749725 32.11133194
vertex -28.90175629 -68.97966766 31.08804131

endloop
endfacet
facet normal 0.9909115434 0.02610827237 0.1319573373
outer loop
vertex -28.90175629 -68.97966766 31.08804131
vertex -29.23990631 -61.31749725 32.11133194
vertex -29.11443329 -68.99775696 32.68868256

endloop
endfacet
facet normal 0.9769822359 0.1678058803 0.1317076087
outer loop
vertex -28.90177155 -68.97967529 31.08803749
vertex -29.11444855 -68.99776459 32.68868256
vertex -27.31978607 -75.87802124 28.14220428

endloop
endfacet
facet normal 0.9439027309 0.02883099765 0.3289627433
outer loop
vertex -27.31978607 -75.87802124 28.14220428
vertex -29.11444855 -68.99776459 32.68868256
vertex -27.71530914 -76.41664886 29.32429695

endloop
endfacet
facet normal 0.760158658 0.4564948678 0.4623541236
outer loop
vertex -27.31978607 -75.87802887 28.14220238
vertex -27.71530914 -76.41666412 29.32429314
vertex -23.0226059 -80.44933319 25.59056091

endloop
endfacet
facet normal -0.245736599 0.4914731979 -0.8355044127
outer loop
vertex -23.0226059 -80.44933319 25.59056091
vertex -27.71530914 -76.41666412 29.32429314
vertex -23.02259064 -80.44932556 25.59056091

endloop
endfacet
facet normal -0.4550683796 0 0.8904564977
outer loop
vertex -11.6765976 -35.84354401 5.41566515
vertex -11.6765976 -35.84352875 5.41566515
vertex -16.28968048 -34.98719025 3.058146

endloop
endfacet
facet normal -0.1866516024 -0.9823904037 0.008390467614
outer loop
vertex -16.28968048 -34.98719025 3.058146
vertex -11.6765976 -35.84352875 5.41566515
vertex -15.90100861 -35.04709625 4.69037199

endloop
endfacet
facet normal 0.8273432255 -0.5184881687 -0.2160397023
outer loop
vertex -16.28968048 -34.98719025 3.058146
vertex -15.90100861 -35.04709625 4.69037199
vertex -17.77475739 -38.02941132 4.672142029

endloop
endfacet
facet normal 0.8300662041 -0.5202926397 -0.2007126063
outer loop
vertex -17.77475739 -38.02941132 4.672142029
vertex -15.90100861 -35.04709625 4.69037199
vertex -17.18592072 -37.58837128 5.964056969

endloop
endfacet
facet normal 0.7762922645 -0.613625288 -0.1443407834
outer loop
vertex -17.77475739 -38.02941132 4.672142029
vertex -17.18592072 -37.58837128 5.964056969
vertex -19.09134674 -40.45201874 7.890325069

endloop
endfacet
facet normal 0.7910650373 -0.6014586687 -0.1116405427
outer loop
vertex -19.09134674 -40.45201874 7.890325069
vertex -17.18592072 -37.58837128 5.964056969
vertex -18.40544891 -39.72501373 8.833766937

endloop
endfacet
facet normal 0.7430266738 -0.6688013673 -0.02482234314
outer loop
vertex -19.09134674 -40.45201874 7.890325069
vertex -18.40544891 -39.72501373 8.833766937
vertex -20.8972702 -42.62918854 12.49282455

endloop
endfacet
facet normal 0.8004177213 -0.5950011611 0.07283581793
outer loop
vertex -20.8972702 -42.62918854 12.49282455
vertex -18.40544891 -39.72501373 8.833766937
vertex -20.18460846 -41.56453705 13.35835838

endloop
endfacet
facet normal 0.778930366 -0.6161792874 0.1165781766
outer loop
vertex -20.8972702 -42.62918854 12.49282455
vertex -20.18460846 -41.56453705 13.35835838
vertex -23.77700043 -45.2228775 18.02500725

endloop
endfacet
facet normal 0.8232808709 -0.5209889412 0.2253422141
outer loop
vertex -23.77700043 -45.2228775 18.02500725
vertex -20.18460846 -41.56453705 13.35835838
vertex -23.0873642 -43.65589142 19.12829781

endloop
endfacet
facet normal 0.8739446402 -0.4704805613 0.1219375283
outer loop
vertex -23.77700043 -45.2228775 18.02500725
vertex -23.0873642 -43.65589142 19.12829781
vertex -26.55849457 -48.83927155 24.00699615

endloop
endfacet
facet normal 0.8884823918 -0.4191765487 0.186789006
outer loop
vertex -26.55849457 -48.83927155 24.00699615
vertex -23.0873642 -43.65589142 19.12829781
vertex -26.03322601 -47.05040741 25.52292061

endloop
endfacet
facet normal 0.9533782601 -0.3007749319 0.02458293736
outer loop
vertex -26.55849457 -48.83927155 24.00699615
vertex -26.03322601 -47.05040741 25.52292061
vertex -28.36663055 -54.14720917 29.1871357

endloop
endfacet
facet normal 0.9570553899 -0.2835800648 0.06022733077
outer loop
vertex -28.36663055 -54.14720917 29.1871357
vertex -26.03322601 -47.05040741 25.52292061
vertex -28.05820465 -52.71547699 31.0273304

endloop
endfacet
facet normal 0.988263309 -0.1426496208 -0.05465179309
outer loop
vertex -28.36663055 -54.14720917 29.1871357
vertex -28.05820465 -52.71547699 31.0273304
vertex -29.23990631 -61.31749725 32.11133194

endloop
endfacet
facet normal 0.9890967607 -0.1411641836 -0.04195570573
outer loop
vertex -29.23990631 -61.31749725 32.11133194
vertex -28.05820465 -52.71547699 31.0273304
vertex -29.06690216 -60.67057037 34.01321793

endloop
endfacet
facet normal 0.9955580831 0.009220998734 -0.09369698167
outer loop
vertex -29.23990631 -61.31749725 32.11133194
vertex -29.06690216 -60.67057037 34.01321793
vertex -29.11443329 -68.99775696 32.68868256

endloop
endfacet
facet normal 0.9959457517 -0.01964789443 0.08778417856
outer loop
vertex -29.11443329 -68.99775696 32.68868256
vertex -29.06690216 -60.67057037 34.01321793
vertex -29.28447723 -69.16320038 34.58086777

endloop
endfacet
facet normal 0.9850013256 0.1400671452 0.1007649824
outer loop
vertex -29.11444855 -68.99776459 32.68868256
vertex -29.28449249 -69.16320038 34.58086395
vertex -27.71530914 -76.41664886 29.32429695

endloop
endfacet
facet normal 0.9531367421 -0.01285432652 0.3022665977
outer loop
vertex -27.71530914 -76.41664886 29.32429695
vertex -29.28449249 -69.16320038 34.58086395
vertex -28.23389435 -77.3059082 30.92173386

endloop
endfacet
facet normal 0.7589363456 0.4322558641 0.4870014787
outer loop
vertex -27.71530914 -76.41666412 29.32429314
vertex -28.23389435 -77.3059082 30.92173004
vertex -23.02259064 -80.44932556 25.59056091

endloop
endfacet
facet normal -nan(ind) -nan(ind) -nan(ind)
outer loop
vertex -23.02259064 -80.44932556 25.59056091
vertex -28.23389435 -77.3059082 30.92173004
vertex -23.02259064 -80.44932556 25.59056091

endloop
endfacet
facet normal 0.1692150235 0 -0.985579133
outer loop
vertex -11.6765976 -35.84352875 5.41566515
vertex -11.6765976 -35.84355927 5.41566515
vertex -15.90100861 -35.04709625 4.69037199

endloop
endfacet
facet normal -0.1765789241 -0.9829668403 -0.05095149204
outer loop
vertex -15.90100861 -35.04709625 4.69037199
vertex -11.6765976 -35.84355927 5.41566515
vertex -15.37978363 -35.20665741 5.962286949

endloop
endfacet
facet normal 0.739091754 -0.5607566237 -0.3732230961
outer loop
vertex -15.90100861 -35.04709625 4.69037199
vertex -15.37978363 -35.20665741 5.962286949
vertex -17.18592072 -37.58837128 5.964056969

endloop
endfacet
facet normal 0.7694690824 -0.5837080479 -0.2592340112
outer loop
vertex -17.18592072 -37.58837128 5.964056969
vertex -15.37978363 -35.20665741 5.962286949
vertex -16.5876236 -37.28307343 7.052518845

endloop
endfacet
facet normal 0.7099238038 -0.6750190258 -0.2008921653
outer loop
vertex -17.18592072 -37.58837128 5.964056969
vertex -16.5876236 -37.28307343 7.052518845
vertex -18.40544891 -39.72501373 8.833766937

endloop
endfacet
facet normal 0.735075593 -0.6600872278 -0.154753536
outer loop
vertex -18.40544891 -39.72501373 8.833766937
vertex -16.5876236 -37.28307343 7.052518845
vertex -17.73107147 -39.16391754 9.643738747

endloop
endfacet
facet normal 0.6671057343 -0.7438822985 -0.04011441022
outer loop
vertex -18.40544891 -39.72501373 8.833766937
vertex -17.73107147 -39.16391754 9.643738747
vertex -20.18460846 -41.56453705 13.35835838

endloop
endfacet
facet normal 0.7418551445 -0.6680225134 0.05828353018
outer loop
vertex -20.18460846 -41.56453705 13.35835838
vertex -17.73107147 -39.16391754 9.643738747
vertex -19.44329071 -40.67363739 14.13371658

endloop
endfacet
facet normal 0.7151142955 -0.6903727055 0.1095311642
outer loop
vertex -20.18460846 -41.56453705 13.35835838
vertex -19.44329071 -40.67363739 14.13371658
vertex -23.0873642 -43.65589142 19.12829781

endloop
endfacet
facet normal 0.7461699843 -0.6466647387 0.1582874507
outer loop
vertex -23.0873642 -43.65589142 19.12829781
vertex -19.44329071 -40.67363739 14.13371658
vertex -22.12474823 -42.27976227 20.21252251

endloop
endfacet
facet normal 0.7993120551 -0.5988024473 0.05035765842
outer loop
vertex -23.0873642 -43.65589142 19.12829781
vertex -22.12474823 -42.27976227 20.21252251
vertex -26.03322601 -47.05040741 25.52292061

endloop
endfacet
facet normal 0.8206930757 -0.5628308654 0.0984095633
outer loop
vertex -26.03322601 -47.05040741 25.52292061
vertex -22.12474823 -42.27976227 20.21252251
vertex -25.03214264 -45.29955292 27.18792915

endloop
endfacet
facet normal 0.9019044042 -0.4200721979 -0.1005377546
outer loop
vertex -26.03322601 -47.05040741 25.52292061
vertex -25.03214264 -45.29955292 27.18792915
vertex -28.05820465 -52.71547699 31.0273304

endloop
endfacet
facet normal 0.9106545448 -0.40735358 -0.06907491386
outer loop
vertex -28.05820465 -52.71547699 31.0273304
vertex -25.03214264 -45.29955292 27.18792915
vertex -27.19187164 -51.14307404 33.17581177

endloop
endfacet
facet normal 0.9504767656 -0.2074006051 -0.2314714342
outer loop
vertex -28.05820465 -52.71547699 31.0273304
vertex -27.19187164 -51.14307404 33.17581177
vertex -29.06690216 -60.67057037 34.01321793

endloop
endfacet
facet normal 0.9347077012 -0.2092062086 -0.2873226404
outer loop
vertex -29.06690216 -60.67057037 34.01321793
vertex -27.19187164 -51.14307404 33.17581177
vertex -28.23656464 -60.0122757 36.23512268

endloop
endfacet
facet normal 0.9401608706 -0.04664637521 -0.3375228941
outer loop
vertex -29.06690216 -60.67057037 34.01321793
vertex -28.23656464 -60.0122757 36.23512268
vertex -29.28447723 -69.16320038 34.58086777

endloop
endfacet
facet normal 0.9763150811 -0.07512441278 -0.2028920054
outer loop
vertex -29.28447723 -69.16320038 34.58086777
vertex -28.23656464 -60.0122757 36.23512268
vertex -28.82964325 -69.55876923 36.91599274

endloop
endfacet
facet normal 0.9684050679 0.194875136 -0.1556126177
outer loop
vertex -29.28449249 -69.16320038 34.58086395
vertex -28.82965851 -69.55877686 36.91599274
vertex -28.23389435 -77.3059082 30.92173386

endloop
endfacet
facet normal 0.9929003119 -0.01495072246 0.1180061847
outer loop
vertex -28.23389435 -77.3059082 30.92173386
vertex -28.82965851 -69.55877686 36.91599274
vertex -28.54843903 -78.956604 33.35916901

endloop
endfacet
facet normal 0.747854054 0.5008682609 0.4357123673
outer loop
vertex -28.23389435 -77.3059082 30.92173004
vertex -28.54843903 -78.95661926 33.35916901
vertex -23.02259064 -80.44932556 25.59056091

endloop
endfacet
facet normal 0.4015153348 -0.8030306697 0.4403716624
outer loop
vertex -23.02259064 -80.44932556 25.59056091
vertex -28.54843903 -78.95661926 33.35916901
vertex -23.02262115 -80.44934082 25.59056091

endloop
endfacet
facet normal 0.1460262537 0 0.9892807007
outer loop
vertex -11.6765976 -35.84355927 5.41566515
vertex -11.6765976 -35.84352875 5.41566515
vertex -15.37978363 -35.20665741 5.962286949

endloop
endfacet
facet normal -0.1736491323 -0.9843648076 -0.02952906676
outer loop
vertex -15.37978363 -35.20665741 5.962286949
vertex -11.6765976 -35.84352875 5.41566515
vertex -14.85147858 -35.33840179 7.247286797

endloop
endfacet
facet normal 0.714631319 -0.6023898125 -0.3555679917
outer loop
vertex -15.37978363 -35.20665741 5.962286949
vertex -14.85147858 -35.33840179 7.247286797
vertex -16.5876236 -37.28307343 7.052518845

endloop
endfacet
facet normal 0.726156652 -0.6181460023 -0.3009850979
outer loop
vertex -16.5876236 -37.28307343 7.052518845
vertex -14.85147858 -35.33840179 7.247286797
vertex -15.90155792 -37.01944733 8.166300774

endloop
endfacet
facet normal 0.6546720862 -0.7190880179 -0.2330597192
outer loop
vertex -16.5876236 -37.28307343 7.052518845
vertex -15.90155792 -37.01944733 8.166300774
vertex -17.73107147 -39.16391754 9.643738747

endloop
endfacet
facet normal 0.6761018038 -0.7107103467 -0.1943634003
outer loop
vertex -17.73107147 -39.16391754 9.643738747
vertex -15.90155792 -37.01944733 8.166300774
vertex -16.92597198 -38.63275909 10.50207615

endloop
endfacet
facet normal 0.5856918693 -0.8090696931 -0.04869414866
outer loop
vertex -17.73107147 -39.16391754 9.643738747
vertex -16.92597198 -38.63275909 10.50207615
vertex -19.44329071 -40.67363739 14.13371658

endloop
endfacet
facet normal 0.6462643743 -0.7628706098 0.01925502904
outer loop
vertex -19.44329071 -40.67363739 14.13371658
vertex -16.92597198 -38.63275909 10.50207615
vertex -18.4123764 -39.7780838 15.01392078

endloop
endfacet
facet normal 0.6208408475 -0.7810249925 0.06750250608
outer loop
vertex -19.44329071 -40.67363739 14.13371658
vertex -18.4123764 -39.7780838 15.01392078
vertex -22.12474823 -42.27976227 20.21252251

endloop
endfacet
facet normal 0.6083402038 -0.7918812633 0.05335145071
outer loop
vertex -22.12474823 -42.27976227 20.21252251
vertex -18.4123764 -39.7780838 15.01392078
vertex -20.5296402 -40.97304535 21.41954231

endloop
endfacet
facet normal 0.6562461853 -0.7527291179 -0.05234357715
outer loop
vertex -22.12474823 -42.27976227 20.21252251
vertex -20.5296402 -40.97304535 21.41954231
vertex -25.03214264 -45.29955292 27.18792915

endloop
endfacet
facet normal 0.5987381935 -0.7909840345 -0.1259240061
outer loop
vertex -25.03214264 -45.29955292 27.18792915
vertex -20.5296402 -40.97304535 21.41954231
vertex -22.73949432 -43.83071136 28.86247826

endloop
endfacet
facet normal 0.678183794 -0.6330762506 -0.3732039034
outer loop
vertex -25.03214264 -45.29955292 27.18792915
vertex -22.73949432 -43.83071136 28.86247826
vertex -27.19187164 -51.14307404 33.17581177

endloop
endfacet
facet normal 0.5958348513 -0.6450235248 -0.4784614742
outer loop
vertex -27.19187164 -51.14307404 33.17581177
vertex -22.73949432 -43.83071136 28.86247826
vertex -24.37448883 -50.00125885 35.14503479

endloop
endfacet
facet normal 0.6264100075 -0.3190983534 -0.7111868262
outer loop
vertex -27.19187164 -51.14307404 33.17581177
vertex -24.37448883 -50.00125885 35.14503479
vertex -28.23656464 -60.0122757 36.23512268

endloop
endfacet
facet normal 0.5459343195 -0.2959604263 -0.7838132977
outer loop
vertex -28.23656464 -60.0122757 36.23512268
vertex -24.37448883 -50.00125885 35.14503479
vertex -25.26544952 -59.64891815 38.16733551

endloop
endfacet
facet normal 0.5508024693 -0.09337252378 -0.8293961883
outer loop
vertex -28.23656464 -60.0122757 36.23512268
vertex -25.26544952 -59.64891815 38.16733551
vertex -28.82964325 -69.55876923 36.91599274

endloop
endfacet
facet normal 0.5850320458 -0.1089332327 -0.803661108
outer loop
vertex -28.82964325 -69.55876923 36.91599274
vertex -25.26544952 -59.64891815 38.16733551
vertex -26.13913727 -70.06435394 38.94309998

endloop
endfacet
facet normal 0.609608233 0.2964838445 -0.7351700664
outer loop
vertex -28.82965851 -69.55877686 36.91599274
vertex -26.13913727 -70.06435394 38.94309998
vertex -28.54843903 -78.956604 33.35916901

endloop
endfacet
facet normal 0.7895316482 0.158404693 -0.5929145813
outer loop
vertex -28.54843903 -78.956604 33.35916901
vertex -26.13913727 -70.06435394 38.94309998
vertex -26.5265274 -80.57727051 35.61858749

endloop
endfacet
facet normal 0.4846429229 0.8559364676 0.180260554
outer loop
vertex -28.54843903 -78.95661926 33.35916901
vertex -26.52654266 -80.57727814 35.61858368
vertex -23.02262115 -80.44934082 25.59056091

endloop
endfacet
facet normal -0.4436745644 0.8845847845 -0.14374502
outer loop
vertex -23.02262115 -80.44934082 25.59056091
vertex -26.52654266 -80.57727814 35.61858368
vertex -23.0226059 -80.44933319 25.59056091

endloop
endfacet
facet normal -0.4997141659 0 -0.8661903143
outer loop
vertex -11.6765976 -35.84352875 5.41566515
vertex -11.6765976 -35.84354401 5.41566515
vertex -14.85147858 -35.33840179 7.247286797

endloop
endfacet
facet normal -0.2002556473 -0.976652503 -0.07776681334
outer loop
vertex -14.85147858 -35.33840179 7.247286797
vertex -11.6765976 -35.84354401 5.41566515
vertex -14.02626801 -35.61876678 8.643333435

endloop
endfacet
facet normal 0.5995975733 -0.6383951306 -0.4826328158
outer loop
vertex -14.85147858 -35.33840179 7.247286797
vertex -14.02626801 -35.61876678 8.643333435
vertex -15.90155792 -37.01944733 8.166300774

endloop
endfacet
facet normal 0.6086400747 -0.670252502 -0.4246395826
outer loop
vertex -15.90155792 -37.01944733 8.166300774
vertex -14.02626801 -35.61876678 8.643333435
vertex -14.82471466 -36.85756683 9.454237938

endloop
endfacet
facet normal 0.5098284483 -0.7960269451 -0.3262147009
outer loop
vertex -15.90155792 -37.01944733 8.166300774
vertex -14.82471466 -36.85756683 9.454237938
vertex -16.92597198 -38.63275909 10.50207615

endloop
endfacet
facet normal 0.5448315144 -0.7976299524 -0.2587378323
outer loop
vertex -16.92597198 -38.63275909 10.50207615
vertex -14.82471466 -36.85756683 9.454237938
vertex -15.68453217 -38.14311981 11.60676384

endloop
endfacet
facet normal 0.4308899939 -0.8982899785 -0.08607495576
outer loop
vertex -16.92597198 -38.63275909 10.50207615
vertex -15.68453217 -38.14311981 11.60676384
vertex -18.4123764 -39.7780838 15.01392078

endloop
endfacet
facet normal 0.4132822156 -0.9047290683 -0.1032620594
outer loop
vertex -18.4123764 -39.7780838 15.01392078
vertex -15.68453217 -38.14311981 11.60676384
vertex -16.76985931 -39.14163971 16.01151466

endloop
endfacet
facet normal 0.3845348358 -0.9220178723 -0.04490028322
outer loop
vertex -18.4123764 -39.7780838 15.01392078
vertex -16.76985931 -39.14163971 16.01151466
vertex -20.5296402 -40.97304535 21.41954231

endloop
endfacet
facet normal 0.2919821441 -0.9490662813 -0.1184048057
outer loop
vertex -20.5296402 -40.97304535 21.41954231
vertex -16.76985931 -39.14163971 16.01151466
vertex -18.01213837 -40.33246613 22.49309158

endloop
endfacet
facet normal 0.3370606303 -0.9080754519 -0.2485741377
outer loop
vertex -20.5296402 -40.97304535 21.41954231
vertex -18.01213837 -40.33246613 22.49309158
vertex -22.73949432 -43.83071136 28.86247826

endloop
endfacet
facet normal 0.1990612745 -0.9137675762 -0.3541234434
outer loop
vertex -22.73949432 -43.83071136 28.86247826
vertex -18.01213837 -40.33246613 22.49309158
vertex -19.29343414 -43.46677399 29.86050034

endloop
endfacet
facet normal 0.2617906928 -0.7217419744 -0.6407450438
outer loop
vertex -22.73949432 -43.83071136 28.86247826
vertex -19.29343414 -43.46677399 29.86050034
vertex -24.37448883 -50.00125885 35.14503479

endloop
endfacet
facet normal 0.1082376167 -0.6746518612 -0.7301571965
outer loop
vertex -24.37448883 -50.00125885 35.14503479
vertex -19.29343414 -43.46677399 29.86050034
vertex -20.21704865 -50.054039 35.81009674

endloop
endfacet
facet normal 0.1464671642 -0.3080106974 -0.9400408268
outer loop
vertex -24.37448883 -50.00125885 35.14503479
vertex -20.21704865 -50.054039 35.81009674
vertex -25.26544952 -59.64891815 38.16733551

endloop
endfacet
facet normal 0.0621544458 -0.2688417137 -0.9611768723
outer loop
vertex -25.26544952 -59.64891815 38.16733551
vertex -20.21704865 -50.054039 35.81009674
vertex -20.552742 -59.92974091 38.55062866

endloop
endfacet
facet normal 0.07604116201 -0.08040332794 -0.9938576818
outer loop
vertex -25.26544952 -59.64891815 38.16733551
vertex -20.552742 -59.92974091 38.55062866
vertex -26.13913727 -70.06435394 38.94309998

endloop
endfacet
facet normal 0.08722905815 -0.08651480824 -0.9924244285
outer loop
vertex -26.13913727 -70.06435394 38.94309998
vertex -20.552742 -59.92974091 38.55062866
vertex -21.15300751 -70.50172424 39.41948318

endloop
endfacet
facet normal 0.1165173054 0.2955548763 -0.9481935501
outer loop
vertex -26.13913727 -70.06435394 38.94309998
vertex -21.15300751 -70.50172424 39.41948318
vertex -26.5265274 -80.57727051 35.61858749

endloop
endfacet
facet normal 0.2099424899 0.2450888902 -0.9464964867
outer loop
vertex -26.5265274 -80.57727051 35.61858749
vertex -21.15300751 -70.50172424 39.41948318
vertex -22.01877594 -81.30091858 36.43106842

endloop
endfacet
facet normal 0.1469358802 0.9870775342 0.06393539906
outer loop
vertex -26.52654266 -80.57727814 35.61858368
vertex -22.0187912 -81.30092621 36.43106461
vertex -23.0226059 -80.44933319 25.59056091

endloop
endfacet
facet normal -0.9957988262 0 0.09156771004
outer loop
vertex -23.0226059 -80.44933319 25.59056091
vertex -22.0187912 -81.30092621 36.43106461
vertex -23.0226059 -80.44932556 25.59056091

endloop
endfacet
facet normal -nan(ind) -nan(ind) -nan(ind)
outer loop
vertex -11.6765976 -35.84354401 5.41566515
vertex -11.6765976 -35.84354401 5.41566515
vertex -14.02626801 -35.61876678 8.643333435

endloop
endfacet
facet normal -0.3471235931 -0.918634057 -0.1887238473
outer loop
vertex -14.02626801 -35.61876678 8.643333435
vertex -11.6765976 -35.84354401 5.41566515
vertex -12.54280853 -36.40792084 9.756070137

endloop
endfacet
facet normal 0.2225792557 -0.6303109527 -0.7437516451
outer loop
vertex -14.02626801 -35.61876678 8.643333435
vertex -12.54280853 -36.40792084 9.756070137
vertex -14.82471466 -36.85756683 9.454237938

endloop
endfacet
facet normal 0.2276086211 -0.7023374438 -0.674474895
outer loop
vertex -14.82471466 -36.85756683 9.454237938
vertex -12.54280853 -36.40792084 9.756070137
vertex -13.04294586 -37.34183502 10.55978775

endloop
endfacet
facet normal 0.0687379539 -0.8683574796 -0.4911520481
outer loop
vertex -14.82471466 -36.85756683 9.454237938
vertex -13.04294586 -37.34183502 10.55978775
vertex -15.68453217 -38.14311981 11.60676384

endloop
endfacet
facet normal 0.1022843868 -0.8975605369 -0.4288623333
outer loop
vertex -15.68453217 -38.14311981 11.60676384
vertex -13.04294586 -37.34183502 10.55978775
vertex -13.73888397 -38.40132904 12.61120701

endloop
endfacet
facet normal -0.01355616096 -0.974440217 -0.2242376357
outer loop
vertex -15.68453217 -38.14311981 11.60676384
vertex -13.73888397 -38.40132904 12.61120701
vertex -16.76985931 -39.14163971 16.01151466

endloop
endfacet
facet normal -0.06323631853 -0.9619511962 -0.2658025622
outer loop
vertex -16.76985931 -39.14163971 16.01151466
vertex -13.73888397 -38.40132904 12.61120701
vertex -14.57714081 -39.48627472 16.7371006

endloop
endfacet
facet normal -0.08850138634 -0.9765267372 -0.196374625
outer loop
vertex -16.76985931 -39.14163971 16.01151466
vertex -14.57714081 -39.48627472 16.7371006
vertex -18.01213837 -40.33246613 22.49309158

endloop
endfacet
facet normal -0.1760180742 -0.9533606768 -0.2451962233
outer loop
vertex -18.01213837 -40.33246613 22.49309158
vertex -14.57714081 -39.48627472 16.7371006
vertex -15.18083954 -40.97818756 22.97126198

endloop
endfacet
facet normal -0.1369935125 -0.9027073383 -0.4078628123
outer loop
vertex -18.01213837 -40.33246613 22.49309158
vertex -15.18083954 -40.97818756 22.97126198
vertex -19.29343414 -43.46677399 29.86050034

endloop
endfacet
facet normal -0.2597578168 -0.8482682705 -0.4614832103
outer loop
vertex -19.29343414 -43.46677399 29.86050034
vertex -15.18083954 -40.97818756 22.97126198
vertex -15.93566132 -44.47559357 29.82483673

endloop
endfacet
facet normal -0.2004648447 -0.6410397887 -0.7408655286
outer loop
vertex -19.29343414 -43.46677399 29.86050034
vertex -15.93566132 -44.47559357 29.82483673
vertex -20.21704865 -50.054039 35.81009674

endloop
endfacet
facet normal -0.3132220209 -0.5725445747 -0.7576836944
outer loop
vertex -20.21704865 -50.054039 35.81009674
vertex -15.93566132 -44.47559357 29.82483673
vertex -16.45511627 -51.17195892 35.0996933

endloop
endfacet
facet normal -0.2511005402 -0.2508960366 -0.9348794818
outer loop
vertex -20.21704865 -50.054039 35.81009674
vertex -16.45511627 -51.17195892 35.0996933
vertex -20.552742 -59.92974091 38.55062866

endloop
endfacet
facet normal -0.2559662163 -0.2483656406 -0.934235394
outer loop
vertex -20.552742 -59.92974091 38.55062866
vertex -16.45511627 -51.17195892 35.0996933
vertex -16.02085114 -60.6554184 37.50188065

endloop
endfacet
facet normal -0.2350325435 -0.06635121256 -0.9697201848
outer loop
vertex -20.552742 -59.92974091 38.55062866
vertex -16.02085114 -60.6554184 37.50188065
vertex -21.15300751 -70.50172424 39.41948318

endloop
endfacet
facet normal -0.2087600231 -0.08099684864 -0.9746069312
outer loop
vertex -21.15300751 -70.50172424 39.41948318
vertex -16.02085114 -60.6554184 37.50188065
vertex -15.86411285 -70.67219543 38.30077362

endloop
endfacet
facet normal -0.1903835982 0.2759723067 -0.9421217442
outer loop
vertex -21.15300751 -70.50172424 39.41948318
vertex -15.86411285 -70.67219543 38.30076981
vertex -22.01877594 -81.30091858 36.43106842

endloop
endfacet
facet normal -0.1864275038 0.2739255428 -0.9435091019
outer loop
vertex -22.01877594 -81.30091858 36.43106842
vertex -15.86411285 -70.67219543 38.30076981
vertex -16.90723419 -80.89831543 35.53796768

endloop
endfacet
facet normal -0.06364564598 0.9944300056 0.0840132162
outer loop
vertex -22.0187912 -81.30092621 36.43106461
vertex -16.90723419 -80.89832306 35.53796387
vertex -23.0226059 -80.44932556 25.59056091

endloop
endfacet
facet normal 0.4546672702 0.8572070599 -0.2418134809
outer loop
vertex -23.0226059 -80.44932556 25.59056091
vertex -16.90723419 -80.89832306 35.53796387
vertex -23.02259064 -80.44933319 25.59056282

endloop
endfacet
facet normal -nan(ind) -nan(ind) -nan(ind)
outer loop
vertex -11.6765976 -35.84354401 5.41566515
vertex -11.6765976 -35.84354401 5.41566515
vertex -12.54280853 -36.40792084 9.756070137

endloop
endfacet
facet normal -0.5165386796 -0.8298617601 -0.2109909803
outer loop
vertex -12.54280853 -36.40792084 9.756070137
vertex -11.6765976 -35.84354401 5.41566515
vertex -10.23567963 -38.00547028 10.39128113

endloop
endfacet
facet normal -0.1851482391 -0.582177639 -0.7917003036
outer loop
vertex -12.54280853 -36.40792084 9.756070137
vertex -10.23567963 -38.00547028 10.39128113
vertex -13.04294586 -37.34183502 10.55978775

endloop
endfacet
facet normal -0.1726198643 -0.5173835754 -0.8381626606
outer loop
vertex -13.04294586 -37.34183502 10.55978775
vertex -10.23567963 -38.00547028 10.39128113
vertex -10.79042816 -38.77210236 10.97876072

endloop
endfacet
facet normal -0.3852978349 -0.7600866556 -0.5232722759
outer loop
vertex -13.04294586 -37.34183502 10.55978775
vertex -10.79042816 -38.77210236 10.97876072
vertex -13.73888397 -38.40132904 12.61120701

endloop
endfacet
facet normal -0.3910009861 -0.7479816675 -0.5363223553
outer loop
vertex -13.73888397 -38.40132904 12.61120701
vertex -10.79042816 -38.77210236 10.97876072
vertex -11.48090363 -39.81829071 12.9412117

endloop
endfacet
facet normal -0.4716953337 -0.8244760036 -0.3126386106
outer loop
vertex -13.73888397 -38.40132904 12.61120701
vertex -11.48090363 -39.81829071 12.9412117
vertex -14.57714081 -39.48627472 16.7371006

endloop
endfacet
facet normal -0.5241813064 -0.7717440128 -0.3600627482
outer loop
vertex -14.57714081 -39.48627472 16.7371006
vertex -11.48090363 -39.81829071 12.9412117
vertex -12.41233063 -40.99874115 16.82731819

endloop
endfacet
facet normal -0.5484790206 -0.7996268868 -0.2444739044
outer loop
vertex -14.57714081 -39.48627472 16.7371006
vertex -12.41233063 -40.99874115 16.82731819
vertex -15.18083954 -40.97818756 22.97126198

endloop
endfacet
facet normal -0.6205133796 -0.7335861325 -0.2771540582
outer loop
vertex -15.18083954 -40.97818756 22.97126198
vertex -12.41233063 -40.99874115 16.82731819
vertex -12.96703339 -42.74443817 22.68983269

endloop
endfacet
facet normal -0.5990052223 -0.6846112013 -0.4153315127
outer loop
vertex -15.18083954 -40.97818756 22.97126198
vertex -12.96703339 -42.74443817 22.68983269
vertex -15.93566132 -44.47559357 29.82483673

endloop
endfacet
facet normal -0.6603928804 -0.6190932393 -0.4249762595
outer loop
vertex -15.93566132 -44.47559357 29.82483673
vertex -12.96703339 -42.74443817 22.68983269
vertex -13.68175507 -46.31398773 29.000494

endloop
endfacet
facet normal -0.6109198928 -0.4601088762 -0.6442644596
outer loop
vertex -15.93566132 -44.47559357 29.82483673
vertex -13.68175507 -46.31398773 29.000494
vertex -16.45511627 -51.17195892 35.0996933

endloop
endfacet
facet normal -0.6226989627 -0.4490289986 -0.6407955289
outer loop
vertex -16.45511627 -51.17195892 35.0996933
vertex -13.68175507 -46.31398773 29.000494
vertex -14.06917572 -52.64225006 33.81142044

endloop
endfacet
facet normal -0.5671544671 -0.2265466452 -0.7918411493
outer loop
vertex -16.45511627 -51.17195892 35.0996933
vertex -14.06917572 -52.64225006 33.81142044
vertex -16.02085114 -60.6554184 37.50188065

endloop
endfacet
facet normal -0.4757493734 -0.2697042227 -0.8372109532
outer loop
vertex -16.02085114 -60.6554184 37.50188065
vertex -14.06917572 -52.64225006 33.81142044
vertex -13.10866547 -61.37645721 36.07929611

endloop
endfacet
facet normal -0.4530981183 -0.07791668922 -0.8880490661
outer loop
vertex -16.02085114 -60.6554184 37.50188065
vertex -13.10866547 -61.37645721 36.07929611
vertex -15.86411285 -70.67219543 38.30077362

endloop
endfacet
facet normal -0.4413886666 -0.08268976957 -0.8934979439
outer loop
vertex -15.86411285 -70.67219543 38.30077362
vertex -13.10866547 -61.37645721 36.07929611
vertex -12.33557892 -70.51683044 36.54329681

endloop
endfacet
facet normal -0.4382440448 0.2758314013 -0.8554877043
outer loop
vertex -15.86411285 -70.67219543 38.30076981
vertex -12.33559418 -70.51683807 36.543293
vertex -16.90723419 -80.89831543 35.53796768

endloop
endfacet
facet normal -0.5209377408 0.3065490723 -0.7966501713
outer loop
vertex -16.90723419 -80.89831543 35.53796768
vertex -12.33559418 -70.51683807 36.543293
vertex -13.24643707 -79.69670868 33.60651016

endloop
endfacet
facet normal -0.2204135209 0.9588816762 0.1787839383
outer loop
vertex -16.90723419 -80.89832306 35.53796387
vertex -13.24645233 -79.69671631 33.60651016
vertex -23.02259064 -80.44933319 25.59056282

endloop
endfacet
facet normal -0.4166692495 -0.707075119 0.5713419318
outer loop
vertex -23.02259064 -80.44933319 25.59056282
vertex -13.24645233 -79.69671631 33.60651016
vertex -23.0226059 -80.44932556 25.59056091

endloop
endfacet
facet normal -0.9605329633 0 0.2781664133
outer loop
vertex -11.6765976 -35.84354401 5.41566515
vertex -11.6765976 -35.84355927 5.41566515
vertex -10.23567963 -38.00547028 10.39128113

endloop
endfacet
facet normal -0.5821662545 -0.7937296033 -0.1762834936
outer loop
vertex -10.23567963 -38.00547028 10.39128113
vertex -11.6765976 -35.84355927 5.41566515
vertex -7.26146698 -40.30478668 10.92195702

endloop
endfacet
facet normal -0.22435835 -0.4852580428 -0.8450964093
outer loop
vertex -10.23567963 -38.00547028 10.39128113
vertex -7.26146698 -40.30478668 10.92195702
vertex -10.79042816 -38.77210236 10.97876072

endloop
endfacet
facet normal 0.06205612794 0.1792709976 -0.9818405509
outer loop
vertex -10.79042816 -38.77210236 10.97876072
vertex -7.26146698 -40.30478668 10.92195702
vertex -8.891272545 -40.40763092 10.80016899

endloop
endfacet
facet normal -0.5805053115 -0.6159188151 -0.532595098
outer loop
vertex -10.79042816 -38.77210236 10.97876072
vertex -8.891272545 -40.40763092 10.80016899
vertex -11.48090363 -39.81829071 12.9412117

endloop
endfacet
facet normal -0.6171514392 -0.4976654351 -0.609469533
outer loop
vertex -11.48090363 -39.81829071 12.9412117
vertex -8.891272545 -40.40763092 10.80016899
vertex -9.953453064 -41.37673187 12.66706181

endloop
endfacet
facet normal -0.6979179382 -0.6214078069 -0.3560377657
outer loop
vertex -11.48090363 -39.81829071 12.9412117
vertex -9.953453064 -41.37673187 12.66706181
vertex -12.41233063 -40.99874115 16.82731819

endloop
endfacet
facet normal -0.7183551192 -0.5884218812 -0.3711139858
outer loop
vertex -12.41233063 -40.99874115 16.82731819
vertex -9.953453064 -41.37673187 12.66706181
vertex -10.8307724 -42.72414398 16.5016613

endloop
endfacet
facet normal -0.7361661792 -0.6264386773 -0.2561913729
outer loop
vertex -12.41233063 -40.99874115 16.82731819
vertex -10.8307724 -42.72414398 16.5016613
vertex -12.96703339 -42.74443817 22.68983269

endloop
endfacet
facet normal -0.797636807 -0.535707891 -0.2771145403
outer loop
vertex -12.96703339 -42.74443817 22.68983269
vertex -10.8307724 -42.72414398 16.5016613
vertex -11.29608917 -44.86396027 21.97762871

endloop
endfacet
facet normal -0.7860925794 -0.495608747 -0.3693649769
outer loop
vertex -12.96703339 -42.74443817 22.68983269
vertex -11.29608917 -44.86396027 21.97762871
vertex -13.68175507 -46.31398773 29.000494

endloop
endfacet
facet normal -0.8509676456 -0.3760043979 -0.36670807
outer loop
vertex -13.68175507 -46.31398773 29.000494
vertex -11.29608917 -44.86396027 21.97762871
vertex -12.14502716 -48.51120758 27.68734741

endloop
endfacet
facet normal -0.831394136 -0.3031473458 -0.4657096863
outer loop
vertex -13.68175507 -46.31398773 29.000494
vertex -12.14502716 -48.51120758 27.68734741
vertex -14.06917572 -52.64225006 33.81142044

endloop
endfacet
facet normal -0.8611931205 -0.2526730597 -0.4410245717
outer loop
vertex -14.06917572 -52.64225006 33.81142044
vertex -12.14502716 -48.51120758 27.68734741
vertex -12.67371368 -54.30956268 32.04172897

endloop
endfacet
facet normal -0.8553662896 -0.216287598 -0.470710367
outer loop
vertex -14.06917572 -52.64225006 33.81142044
vertex -12.67371368 -54.30956268 32.04172897
vertex -13.10866547 -61.37645721 36.07929611

endloop
endfacet
facet normal -0.7814280391 -0.2725971341 -0.5613030791
outer loop
vertex -13.10866547 -61.37645721 36.07929611
vertex -12.67371368 -54.30956268 32.04172897
vertex -11.48911285 -62.12714386 34.18917847

endloop
endfacet
facet normal -0.774520278 -0.09723737836 -0.6250306964
outer loop
vertex -13.10866547 -61.37645721 36.07929611
vertex -11.48911285 -62.12714386 34.18917847
vertex -12.33557892 -70.51683044 36.54329681

endloop
endfacet
facet normal -0.735473752 -0.1132404655 -0.668023169
outer loop
vertex -12.33557892 -70.51683044 36.54329681
vertex -11.48911285 -62.12714386 34.18917847
vertex -10.49280453 -70.25030518 34.46927643

endloop
endfacet
facet normal -0.7365632057 0.271294862 -0.6195755005
outer loop
vertex -12.33559418 -70.51683807 36.543293
vertex -10.49282074 -70.25031281 34.46927261
vertex -13.24643707 -79.69670868 33.60651016

endloop
endfacet
facet normal -0.8647410274 0.2895492315 -0.4103464186
outer loop
vertex -13.24643707 -79.69670868 33.60651016
vertex -10.49282074 -70.25031281 34.46927261
vertex -11.60326385 -78.11857605 31.25734329

endloop
endfacet
facet normal -0.348141104 0.8725704551 0.3426638544
outer loop
vertex -13.24645233 -79.69671631 33.60651016
vertex -11.60327911 -78.11858368 31.25733948
vertex -23.0226059 -80.44932556 25.59056091

endloop
endfacet
facet normal 0.4472135901 0 -0.8944271803
outer loop
vertex -23.0226059 -80.44932556 25.59056091
vertex -11.60327911 -78.11858368 31.25733948
vertex -23.0226059 -80.44934082 25.59056091

endloop
endfacet
facet normal 0.607827425 -0.3039137125 -0.7336090803
outer loop
vertex -11.6765976 -35.84355927 5.41566515
vertex -11.67658234 -35.84352875 5.41566515
vertex -7.26146698 -40.30478668 10.92195702

endloop
endfacet
facet normal -0.6314355135 -0.7668522596 -0.1150074452
outer loop
vertex -7.26146698 -40.30478668 10.92195702
vertex -11.67658234 -35.84352875 5.41566515
vertex -4.668128967 -42.2889328 9.913510323

endloop
endfacet
facet normal 0.03436338156 0.4881516993 -0.8720820546
outer loop
vertex -7.26146698 -40.30478668 10.92195702
vertex -4.668128967 -42.2889328 9.913510323
vertex -8.891272545 -40.40763092 10.80016899

endloop
endfacet
facet normal -0.06942143291 0.2935151756 -0.9534303546
outer loop
vertex -8.891272545 -40.40763092 10.80016899
vertex -4.668128967 -42.2889328 9.913510323
vertex -7.046744823 -42.32085419 10.07687569

endloop
endfacet
facet normal -0.6755476594 -0.4229782224 -0.6039244533
outer loop
vertex -8.891272545 -40.40763092 10.80016899
vertex -7.046744823 -42.32085419 10.07687569
vertex -9.953453064 -41.37673187 12.66706181

endloop
endfacet
facet normal -0.6879945993 -0.2690646052 -0.6739938855
outer loop
vertex -9.953453064 -41.37673187 12.66706181
vertex -7.046744823 -42.32085419 10.07687569
vertex -8.572502136 -43.30370331 12.02668953

endloop
endfacet
facet normal -0.8126448989 -0.4661557972 -0.3497243524
outer loop
vertex -9.953453064 -41.37673187 12.66706181
vertex -8.572502136 -43.30370331 12.02668953
vertex -10.8307724 -42.72414398 16.5016613

endloop
endfacet
facet normal -0.8348243237 -0.4091772139 -0.368296504
outer loop
vertex -10.8307724 -42.72414398 16.5016613
vertex -8.572502136 -43.30370331 12.02668953
vertex -9.484367371 -44.87752533 15.84214592

endloop
endfacet
facet normal -0.85345155 -0.4567475021 -0.2510024011
outer loop
vertex -10.8307724 -42.72414398 16.5016613
vertex -9.484367371 -44.87752533 15.84214592
vertex -11.29608917 -44.86396027 21.97762871

endloop
endfacet
facet normal -0.8970865011 -0.3542312682 -0.2641138434
outer loop
vertex -11.29608917 -44.86396027 21.97762871
vertex -9.484367371 -44.87752533 15.84214592
vertex -10.0533371 -47.26847076 20.98145485

endloop
endfacet
facet normal -0.8863296509 -0.3190593719 -0.3355905116
outer loop
vertex -11.29608917 -44.86396027 21.97762871
vertex -10.0533371 -47.26847076 20.98145485
vertex -12.14502716 -48.51120758 27.68734741

endloop
endfacet
facet normal -0.9208534956 -0.2128615528 -0.3266784847
outer loop
vertex -12.14502716 -48.51120758 27.68734741
vertex -10.0533371 -47.26847076 20.98145485
vertex -11.11896515 -50.7392807 26.24684334

endloop
endfacet
facet normal -0.9136371613 -0.1875552833 -0.3606803417
outer loop
vertex -12.14502716 -48.51120758 27.68734741
vertex -11.11896515 -50.7392807 26.24684334
vertex -12.67371368 -54.30956268 32.04172897

endloop
endfacet
facet normal -0.9319349527 -0.1382746547 -0.3352273107
outer loop
vertex -12.67371368 -54.30956268 32.04172897
vertex -11.11896515 -50.7392807 26.24684334
vertex -11.80446625 -55.85381317 30.26218605

endloop
endfacet
facet normal -0.9381005168 -0.2164324075 -0.2704153061
outer loop
vertex -12.67371368 -54.30956268 32.04172897
vertex -11.80446625 -55.85381317 30.26218605
vertex -11.48911285 -62.12714386 34.18917847

endloop
endfacet
facet normal -0.9155290723 -0.2454933822 -0.3186525106
outer loop
vertex -11.48911285 -62.12714386 34.18917847
vertex -11.80446625 -55.85381317 30.26218605
vertex -10.61934662 -62.8000412 32.20863724

endloop
endfacet
facet normal -0.9233543277 -0.1257584989 -0.3627694547
outer loop
vertex -11.48911285 -62.12714386 34.18917847
vertex -10.61934662 -62.8000412 32.20863724
vertex -10.49280453 -70.25030518 34.46927643

endloop
endfacet
facet normal -0.9114547968 -0.1335518509 -0.3891196549
outer loop
vertex -10.49280453 -70.25030518 34.46927643
vertex -10.61934662 -62.8000412 32.20863724
vertex -9.650276184 -69.97817993 32.4023819

endloop
endfacet
facet normal -0.9048067927 0.2640623152 -0.3340593874
outer loop
vertex -10.49282074 -70.25031281 34.46927261
vertex -9.650291443 -69.9781723 32.4023819
vertex -11.60326385 -78.11857605 31.25734329

endloop
endfacet
facet normal -0.9682318568 0.2414412647 -0.06506281346
outer loop
vertex -11.60326385 -78.11857605 31.25734329
vertex -9.650291443 -69.9781723 32.4023819
vertex -11.07759857 -76.6089859 29.03659058

endloop
endfacet
facet normal -0.3886668682 0.8021672964 0.4532833099
outer loop
vertex -11.60327911 -78.11858368 31.25733948
vertex -11.07759857 -76.60899353 29.03658867
vertex -23.0226059 -80.44934082 25.59056091

endloop
endfacet
facet normal -0.2753823698 0 0.961334765
outer loop
vertex -23.0226059 -80.44934082 25.59056091
vertex -11.07759857 -76.60899353 29.03658867
vertex -23.0226059 -80.44932556 25.59056091

endloop
endfacet
facet normal -0.5401126146 0 0.8415927887
outer loop
vertex -11.67658234 -35.84352875 5.41566515
vertex -11.67658234 -35.84354401 5.41566515
vertex -4.668128967 -42.2889328 9.913510323

endloop
endfacet
facet normal -0.6572560072 -0.7517883778 -0.05318545923
outer loop
vertex -4.668128967 -42.2889328 9.913510323
vertex -11.67658234 -35.84354401 5.41566515
vertex -3.006125927 -43.58481598 7.692389965

endloop
endfacet
facet normal -0.04774971306 0.846790731 -0.5297785997
outer loop
vertex -4.668128967 -42.2889328 9.913510323
vertex -3.006125927 -43.58481598 7.692389965
vertex -7.046744823 -42.32085419 10.07687569

endloop
endfacet
facet normal -0.4010351002 0.3300667405 -0.8545330763
outer loop
vertex -7.046744823 -42.32085419 10.07687569
vertex -3.006125927 -43.58481598 7.692389965
vertex -5.734673023 -44.29129791 8.700024605

endloop
endfacet
facet normal -0.7688815594 -0.06771701574 -0.6357952356
outer loop
vertex -7.046744823 -42.32085419 10.07687569
vertex -5.734673023 -44.29129791 8.700024605
vertex -8.572502136 -43.30370331 12.02668953

endloop
endfacet
facet normal -0.768922627 -0.06816285849 -0.6356979012
outer loop
vertex -8.572502136 -43.30370331 12.02668953
vertex -5.734673023 -44.29129791 8.700024605
vertex -7.496529102 -45.61511993 10.97306442

endloop
endfacet
facet normal -0.9047287703 -0.2715365589 -0.3282283247
outer loop
vertex -8.572502136 -43.30370331 12.02668953
vertex -7.496529102 -45.61511993 10.97306442
vertex -9.484367371 -44.87752533 15.84214592

endloop
endfacet
facet normal -0.9228184223 -0.1529262215 -0.3535813391
outer loop
vertex -9.484367371 -44.87752533 15.84214592
vertex -7.496529102 -45.61511993 10.97306442
vertex -8.682655334 -47.39493561 14.83853912

endloop
endfacet
facet normal -0.9529275298 -0.2205178887 -0.2080889046
outer loop
vertex -9.484367371 -44.87752533 15.84214592
vertex -8.682655334 -47.39493561 14.83853912
vertex -10.0533371 -47.26847076 20.98145485

endloop
endfacet
facet normal -0.9748486876 -0.05320113152 -0.216424793
outer loop
vertex -10.0533371 -47.26847076 20.98145485
vertex -8.682655334 -47.39493561 14.83853912
vertex -9.623100281 -49.87146759 19.68338966

endloop
endfacet
facet normal -0.9725489616 -0.04710825905 -0.2278804928
outer loop
vertex -10.0533371 -47.26847076 20.98145485
vertex -9.623100281 -49.87146759 19.68338966
vertex -11.11896515 -50.7392807 26.24684334

endloop
endfacet
facet normal -0.9748086929 0.06375321001 -0.2137375176
outer loop
vertex -11.11896515 -50.7392807 26.24684334
vertex -9.623100281 -49.87146759 19.68338966
vertex -10.9136734 -52.97342682 24.64415741

endloop
endfacet
facet normal -0.9887595773 0.01579945348 -0.1486769766
outer loop
vertex -11.11896515 -50.7392807 26.24684334
vertex -10.9136734 -52.97342682 24.64415741
vertex -11.80446625 -55.85381317 30.26218605

endloop
endfacet
facet normal -0.9896764159 0.03499156609 -0.1389824599
outer loop
vertex -11.80446625 -55.85381317 30.26218605
vertex -10.9136734 -52.97342682 24.64415741
vertex -11.60309601 -57.29459381 28.46550941

endloop
endfacet
facet normal -0.9864708185 -0.1627215892 0.01992582157
outer loop
vertex -11.80446625 -55.85381317 30.26218605
vertex -11.60309601 -57.29459381 28.46550941
vertex -10.61934662 -62.8000412 32.20863724

endloop
endfacet
facet normal -0.9766290784 -0.208896637 -0.05057567358
outer loop
vertex -10.61934662 -62.8000412 32.20863724
vertex -11.60309601 -57.29459381 28.46550941
vertex -10.38455963 -63.41004181 30.19437408

endloop
endfacet
facet normal -0.9880132079 -0.1353865415 -0.07416446507
outer loop
vertex -10.61934662 -62.8000412 32.20863724
vertex -10.38455963 -63.41004181 30.19437408
vertex -9.650276184 -69.97817993 32.4023819

endloop
endfacet
facet normal -0.9850040674 -0.1427116543 -0.09695512801
outer loop
vertex -9.650276184 -69.97817993 32.4023819
vertex -10.38455963 -63.41004181 30.19437408
vertex -9.480613708 -69.73846436 30.32587051

endloop
endfacet
facet normal -0.9705070257 0.235368073 -0.05213341862
outer loop
vertex -9.650291443 -69.9781723 32.4023819
vertex -9.480613708 -69.73847198 30.32587051
vertex -11.07759857 -76.6089859 29.03659058

endloop
endfacet
facet normal -0.9670764804 0.1938466132 0.1648831964
outer loop
vertex -11.07759857 -76.6089859 29.03659058
vertex -9.480613708 -69.73847198 30.32587051
vertex -11.17177582 -75.38064575 27.04010963

endloop
endfacet
facet normal -0.3921217918 0.7751276493 0.4953964055
outer loop
vertex -11.07759857 -76.60899353 29.03658867
vertex -11.17177582 -75.38065338 27.04010773
vertex -23.0226059 -80.44932556 25.59056091

endloop
endfacet
facet normal 0.1212576851 0 -0.9926210642
outer loop
vertex -23.0226059 -80.44932556 25.59056091
vertex -11.17177582 -75.38065338 27.04010773
vertex -23.02259064 -80.44933319 25.59056282

endloop
endfacet
facet normal -0 0.2821526527 0.9593695402
outer loop
vertex -11.67658234 -35.84354401 5.41566515
vertex -11.67661285 -35.84354401 5.41566515
vertex -3.006125927 -43.58481598 7.692389965

endloop
endfacet
facet normal -0.6579383612 -0.7514483333 -0.04942176118
outer loop
vertex -3.006125927 -43.58481598 7.692389965
vertex -11.67661285 -35.84354401 5.41566515
vertex -1.85077703 -44.39002228 4.554549217

endloop
endfacet
facet normal -0.354485333 0.8659759164 -0.3527404964
outer loop
vertex -3.006125927 -43.58481598 7.692389965
vertex -1.85077703 -44.39002228 4.554549217
vertex -5.734673023 -44.29129791 8.700024605

endloop
endfacet
facet normal -0.6169087291 0.520460546 -0.5903765559
outer loop
vertex -5.734673023 -44.29129791 8.700024605
vertex -1.85077703 -44.39002228 4.554549217
vertex -5.119850159 -46.35837555 6.235289097

endloop
endfacet
facet normal -0.830435276 0.3071845472 -0.464773953
outer loop
vertex -5.734673023 -44.29129791 8.700024605
vertex -5.119850159 -46.35837555 6.235289097
vertex -7.496529102 -45.61511993 10.97306442

endloop
endfacet
facet normal -0.8375849128 0.2865510881 -0.4651235938
outer loop
vertex -7.496529102 -45.61511993 10.97306442
vertex -5.119850159 -46.35837555 6.235289097
vertex -7.393013 -48.26929474 9.151483536

endloop
endfacet
facet normal -0.9631788731 0.1255886257 -0.2377268672
outer loop
vertex -7.496529102 -45.61511993 10.97306442
vertex -7.393013 -48.26929474 9.151483536
vertex -8.682655334 -47.39493561 14.83853912

endloop
endfacet
facet normal -0.9461981654 0.2093378007 -0.2467522323
outer loop
vertex -8.682655334 -47.39493561 14.83853912
vertex -7.393013 -48.26929474 9.151483536
vertex -8.934745789 -50.42751312 13.23245239

endloop
endfacet
facet normal -0.9826396108 0.1437795907 -0.1172468886
outer loop
vertex -8.682655334 -47.39493561 14.83853912
vertex -8.934745789 -50.42751312 13.23245239
vertex -9.623100281 -49.87146759 19.68338966

endloop
endfacet
facet normal -0.9677851796 0.2201111615 -0.1222413182
outer loop
vertex -9.623100281 -49.87146759 19.68338966
vertex -8.934745789 -50.42751312 13.23245239
vertex -10.10500336 -53.05658722 17.76340294

endloop
endfacet
facet normal -0.9692171216 0.2168849111 -0.1165298149
outer loop
vertex -9.623100281 -49.87146759 19.68338966
vertex -10.10500336 -53.05658722 17.76340294
vertex -10.9136734 -52.97342682 24.64415741

endloop
endfacet
facet normal -0.9676728845 0.2237255126 -0.1164310053
outer loop
vertex -10.9136734 -52.97342682 24.64415741
vertex -10.10500336 -53.05658722 17.76340294
vertex -11.2906723 -55.85691071 22.23674583

endloop
endfacet
facet normal -0.9895521998 0.1432186514 -0.01657737419
outer loop
vertex -10.9136734 -52.97342682 24.64415741
vertex -11.2906723 -55.85691071 22.23674583
vertex -11.60309601 -57.29459381 28.46550941

endloop
endfacet
facet normal -0.9904625416 0.1365811378 -0.01815505698
outer loop
vertex -11.60309601 -57.29459381 28.46550941
vertex -11.2906723 -55.85691071 22.23674583
vertex -11.83452606 -59.34471893 25.66818237

endloop
endfacet
facet normal -0.9726015329 -0.1416910589 0.1843093783
outer loop
vertex -11.60309601 -57.29459381 28.46550941
vertex -11.83452606 -59.34471893 25.66818237
vertex -10.38455963 -63.41004181 30.19437408

endloop
endfacet
facet normal -0.9708439708 -0.1080055162 0.2140019387
outer loop
vertex -10.38455963 -63.41004181 30.19437408
vertex -11.83452606 -59.34471893 25.66818237
vertex -10.95838165 -64.28248596 27.15084839

endloop
endfacet
facet normal -0.9662342668 -0.1334359199 0.2204226255
outer loop
vertex -10.38455963 -63.41004181 30.19437408
vertex -10.95838165 -64.28248596 27.15084839
vertex -9.480613708 -69.73846436 30.32587051

endloop
endfacet
facet normal -0.95211941 -0.08739583939 0.2929685712
outer loop
vertex -9.480613708 -69.73846436 30.32587051
vertex -10.95838165 -64.28248596 27.15084839
vertex -10.44124603 -69.42072296 27.29869461

endloop
endfacet
facet normal -0.9450045824 0.1023552641 0.3106281161
outer loop
vertex -9.480613708 -69.73847198 30.32587051
vertex -10.44124603 -69.42071533 27.29869461
vertex -11.17177582 -75.38064575 27.04010963

endloop
endfacet
facet normal -0.9016007185 0.09217544645 0.4226342738
outer loop
vertex -11.17177582 -75.38064575 27.04010963
vertex -10.44124603 -69.42071533 27.29869461
vertex -12.18228912 -74.1056366 24.60631752

endloop
endfacet
facet normal -0.3846176267 0.742364645 0.5486018658
outer loop
vertex -11.17177582 -75.38065338 27.04010773
vertex -12.18228912 -74.10564423 24.60631561
vertex -23.02259064 -80.44933319 25.59056282

endloop
endfacet
facet normal -0.4805738926 0.8463838696 0.2295278311
outer loop
vertex -23.02259064 -80.44933319 25.59056282
vertex -12.18228912 -74.10564423 24.60631561
vertex -23.0226059 -80.44934082 25.59055901

endloop
endfacet
facet normal 0 0.1002492383 -0.9949623942
outer loop
vertex -11.67661285 -35.84354401 5.41566515
vertex -11.6765976 -35.84354401 5.41566515
vertex -1.85077703 -44.39002228 4.554549217

endloop
endfacet
facet normal -0.646817565 -0.75470227 0.1097793803
outer loop
vertex -1.85077703 -44.39002228 4.554549217
vertex -11.6765976 -35.84354401 5.41566515
vertex -5.67658186 -42.88948822 -7.671258926

endloop
endfacet
facet normal -0.4092108607 0.8813311458 0.2362239212
outer loop
vertex -1.85077703 -44.39002228 4.554549217
vertex -5.67658186 -42.88948822 -7.671258926
vertex -5.119850159 -46.35837555 6.235289097

endloop
endfacet
facet normal -0.5443074703 0.8085697293 0.2234825194
outer loop
vertex -5.119850159 -46.35837555 6.235289097
vertex -5.67658186 -42.88948822 -7.671258926
vertex -11.81104279 -48.13773346 -3.623788118

endloop
endfacet
facet normal -0.4893229902 0.853741467 0.1780128628
outer loop
vertex -5.119850159 -46.35837555 6.235289097
vertex -11.81104279 -48.13773346 -3.623788118
vertex -7.393013 -48.26929474 9.151483536

endloop
endfacet
facet normal -0.5992528796 0.771099329 0.2151785195
outer loop
vertex -7.393013 -48.26929474 9.151483536
vertex -11.81104279 -48.13773346 -3.623788118
vertex -15.76483917 -52.68157196 1.648239017

endloop
endfacet
facet normal -0.5875563025 0.7856959701 0.1935444027
outer loop
vertex -7.393013 -48.26929474 9.151483536
vertex -15.76483917 -52.68157196 1.648239017
vertex -8.934745789 -50.42751312 13.23245239

endloop
endfacet
facet normal -0.6705229878 0.6947803497 0.2601522207
outer loop
vertex -8.934745789 -50.42751312 13.23245239
vertex -15.76483917 -52.68157196 1.648239017
vertex -18.17563629 -56.81711578 6.479255199

endloop
endfacet
facet normal -0.6644092202 0.7080438733 0.2392368019
outer loop
vertex -8.934745789 -50.42751312 13.23245239
vertex -18.17563629 -56.81711578 6.479255199
vertex -10.10500336 -53.05658722 17.76340294

endloop
endfacet
facet normal -0.7638220191 0.5287905335 0.3700763285
outer loop
vertex -10.10500336 -53.05658722 17.76340294
vertex -18.17563629 -56.81711578 6.479255199
vertex -19.12029266 -60.93456268 10.41281605

endloop
endfacet
facet normal -0.7346215844 0.6453869343 0.2093008012
outer loop
vertex -10.10500336 -53.05658722 17.76340294
vertex -19.12029266 -60.93456268 10.41281605
vertex -11.2906723 -55.85691071 22.23674583

endloop
endfacet
facet normal -0.8075352907 0.4936954975 0.3227252364
outer loop
vertex -11.2906723 -55.85691071 22.23674583
vertex -19.12029266 -60.93456268 10.41281605
vertex -19.60225677 -63.75185394 13.51663589

endloop
endfacet
facet normal -0.8113693595 0.4693271816 0.3484421074
outer loop
vertex -11.2906723 -55.85691071 22.23674583
vertex -19.60225677 -63.75185394 13.51663589
vertex -11.83452606 -59.34471893 25.66818237

endloop
endfacet
facet normal -0.7632185817 0.5842327476 0.2759882212
outer loop
vertex -11.83452606 -59.34471893 25.66818237
vertex -19.60225677 -63.75185394 13.51663589
vertex -19.83507538 -65.30027771 16.15061951

endloop
endfacet
facet normal -0.7794988155 0.04919737577 0.6244688034
outer loop
vertex -11.83452606 -59.34471893 25.66818237
vertex -19.83507538 -65.30027771 16.15061951
vertex -10.95838165 -64.28248596 27.15084839

endloop
endfacet
facet normal -0.6887847781 0.5172546506 0.5079597235
outer loop
vertex -10.95838165 -64.28248596 27.15084839
vertex -19.83507538 -65.30027771 16.15061951
vertex -19.43236542 -67.15194702 18.58223915

endloop
endfacet
facet normal -0.7016758323 -0.05016952381 0.7107278705
outer loop
vertex -10.95838165 -64.28248596 27.15084839
vertex -19.43236542 -67.15194702 18.58223915
vertex -10.44124603 -69.42072296 27.29869461

endloop
endfacet
facet normal -0.5379317403 0.4936057627 0.6833613515
outer loop
vertex -10.44124603 -69.42072296 27.29869461
vertex -19.43236542 -67.15194702 18.58223915
vertex -19.52518463 -69.79665375 20.41949844

endloop
endfacet
facet normal -0.5810687542 -0.232313484 0.7799932957
outer loop
vertex -10.44124603 -69.42071533 27.29869461
vertex -19.52518463 -69.79665375 20.41949654
vertex -12.18228912 -74.1056366 24.60631752

endloop
endfacet
facet normal -0.3441866636 0.2832524478 0.8951556683
outer loop
vertex -12.18228912 -74.1056366 24.60631752
vertex -19.52518463 -69.79665375 20.41949654
vertex -20.96903229 -73.63456726 21.07876205

endloop
endfacet
facet normal -0.2743318379 0.5869694948 0.7617143393
outer loop
vertex -12.18228912 -74.10564423 24.60631561
vertex -20.96903229 -73.63457489 21.07876396
vertex -23.0226059 -80.44934082 25.59055901

endloop
endfacet
facet normal 0.9496714473 -0.07597371191 0.3038948476
outer loop
vertex -23.0226059 -80.44934082 25.59055901
vertex -20.96903229 -73.63457489 21.07876396
vertex -23.0226059 -80.44933319 25.59056091

endloop
endfacet
endsolid
