solid 
facet normal -nan(ind) -nan(ind) -nan(ind)
outer loop
vertex 80.76711273 -70.514534 65.37806702
vertex 80.76711273 -70.514534 65.37806702
vertex 76.39839935 -61.7962265 65.77861786

endloop
endfacet
facet normal 0.891772151 0.449318856 -0.05343302339
outer loop
vertex 76.39839935 -61.7962265 65.77861786
vertex 80.76711273 -70.514534 65.37806702
vertex 76.56868744 -62.76111603 60.50688171

endloop
endfacet
facet normal 0.9552326798 -0.2840210497 0.08284058422
outer loop
vertex 76.39839935 -61.7962265 65.77861786
vertex 76.56868744 -62.76111603 60.50688171
vertex 77.68801117 -57.40692902 65.95695496

endloop
endfacet
facet normal 0.9593422413 -0.2730996907 0.07126734406
outer loop
vertex 77.68801117 -57.40692902 65.95695496
vertex 76.56868744 -62.76111603 60.50688171
vertex 77.90157318 -58.22484589 59.94786453

endloop
endfacet
facet normal 0.72907269 -0.6742427349 0.117684491
outer loop
vertex 77.68801117 -57.40692902 65.95695496
vertex 77.90157318 -58.22484589 59.94786453
vertex 80.75051117 -54.02719879 66.34760284

endloop
endfacet
facet normal 0.74778229 -0.656694591 0.09784568846
outer loop
vertex 80.75051117 -54.02719879 66.34760284
vertex 77.90157318 -58.22484589 59.94786453
vertex 80.99938202 -54.49800873 61.28575897

endloop
endfacet
facet normal 0.4067933857 -0.9075336456 0.1044115275
outer loop
vertex 80.75051117 -54.02719879 66.34760284
vertex 80.99938202 -54.49800873 61.28575897
vertex 85.27419281 -51.9500351 66.77755737

endloop
endfacet
facet normal 0.4095094204 -0.9066010714 0.101864621
outer loop
vertex 85.27419281 -51.9500351 66.77755737
vertex 80.99938202 -54.49800873 61.28575897
vertex 85.51506805 -52.2206955 63.40031433

endloop
endfacet
facet normal -0.3186507821 -0.9463826418 0.05311823636
outer loop
vertex 85.27419281 -51.9500351 66.77755737
vertex 85.51506805 -52.2206955 63.40031433
vertex 94.52098846 -55.08094025 66.46626282

endloop
endfacet
facet normal -nan(ind) -nan(ind) -nan(ind)
outer loop
vertex 94.52098846 -55.08094025 66.46626282
vertex 85.51506805 -52.2206955 63.40031433
vertex 94.52098846 -55.08094025 66.46626282

endloop
endfacet
facet normal -nan(ind) -nan(ind) -nan(ind)
outer loop
vertex 80.76711273 -70.514534 65.37806702
vertex 80.76711273 -70.514534 65.37806702
vertex 76.56868744 -62.76111603 60.50688171

endloop
endfacet
facet normal 0.8779320121 0.4787554145 0.005349609535
outer loop
vertex 76.56868744 -62.76111603 60.50688171
vertex 80.76711273 -70.514534 65.37806702
vertex 77.41197968 -64.26992035 57.14118576

endloop
endfacet
facet normal 0.9154193997 -0.2281096727 0.3316220641
outer loop
vertex 76.56868744 -62.76111603 60.50688171
vertex 77.41197968 -64.26992035 57.14118576
vertex 77.90157318 -58.22484589 59.94786453

endloop
endfacet
facet normal 0.8723025322 -0.262255311 0.4126867652
outer loop
vertex 77.90157318 -58.22484589 59.94786453
vertex 77.41197968 -64.26992035 57.14118576
vertex 79.24910736 -59.96088409 55.99633789

endloop
endfacet
facet normal 0.5788131952 -0.6553348899 0.4852952361
outer loop
vertex 77.90157318 -58.22484589 59.94786453
vertex 79.24910736 -59.96088409 55.99633789
vertex 80.99938202 -54.49800873 61.28575897

endloop
endfacet
facet normal 0.4582270086 -0.6896879673 0.5606768727
outer loop
vertex 80.99938202 -54.49800873 61.28575897
vertex 79.24910736 -59.96088409 55.99633789
vertex 82.7498703 -56.06577301 57.9266243

endloop
endfacet
facet normal 0.1943717599 -0.8461655378 0.4962092042
outer loop
vertex 80.99938202 -54.49800873 61.28575897
vertex 82.7498703 -56.06577301 57.9266243
vertex 85.51506805 -52.2206955 63.40031433

endloop
endfacet
facet normal 0.1096626818 -0.8385592699 0.5336594582
outer loop
vertex 85.51506805 -52.2206955 63.40031433
vertex 82.7498703 -56.06577301 57.9266243
vertex 87.16426849 -53.39295197 61.21940613

endloop
endfacet
facet normal -0.3612513542 -0.907442987 0.2145803124
outer loop
vertex 85.51506805 -52.2206955 63.40031433
vertex 87.16426849 -53.39295197 61.21940613
vertex 94.52098846 -55.08094025 66.46626282

endloop
endfacet
facet normal 0.3298203349 -0.6596406698 -0.6753464341
outer loop
vertex 94.52098846 -55.08094025 66.46626282
vertex 87.16426849 -53.39295197 61.21940613
vertex 94.52101898 -55.08092499 66.46626282

endloop
endfacet
facet normal -nan(ind) -nan(ind) -nan(ind)
outer loop
vertex 80.76711273 -70.514534 65.37806702
vertex 80.76711273 -70.514534 65.37806702
vertex 77.41197968 -64.26992035 57.14118576

endloop
endfacet
facet normal 0.8309633732 0.5506873727 0.0790149644
outer loop
vertex 77.41197968 -64.26992035 57.14118576
vertex 80.76711273 -70.514534 65.37806702
vertex 79.00826263 -66.48010254 55.75748062

endloop
endfacet
facet normal 0.6124409437 -0.05152799189 0.7888351679
outer loop
vertex 77.41197968 -64.26992035 57.14118576
vertex 79.00826263 -66.48010254 55.75748062
vertex 79.24910736 -59.96088409 55.99633789

endloop
endfacet
facet normal 0.5088427663 -0.05028571188 0.8593895435
outer loop
vertex 79.24910736 -59.96088409 55.99633789
vertex 79.00826263 -66.48010254 55.75748062
vertex 81.50371552 -62.47913361 54.51403809

endloop
endfacet
facet normal 0.04555089772 -0.4761401415 0.8781888485
outer loop
vertex 79.24910736 -59.96088409 55.99633789
vertex 81.50371552 -62.47913361 54.51403809
vertex 82.7498703 -56.06577301 57.9266243

endloop
endfacet
facet normal -0.03126516938 -0.4647734463 0.8848775029
outer loop
vertex 82.7498703 -56.06577301 57.9266243
vertex 81.50371552 -62.47913361 54.51403809
vertex 85.28710175 -58.21015167 56.88995743

endloop
endfacet
facet normal -0.2023295611 -0.6098358631 0.7662655711
outer loop
vertex 82.7498703 -56.06577301 57.9266243
vertex 85.28710175 -58.21015167 56.88995743
vertex 87.16426849 -53.39295197 61.21940613

endloop
endfacet
facet normal -0.2307037413 -0.5991497636 0.7666780949
outer loop
vertex 87.16426849 -53.39295197 61.21940613
vertex 85.28710175 -58.21015167 56.88995743
vertex 89.32582855 -54.85540009 60.72696304

endloop
endfacet
facet normal -0.4566710889 -0.8035414219 0.3818017542
outer loop
vertex 87.16426849 -53.39295197 61.21940613
vertex 89.32582855 -54.85540009 60.72696304
vertex 94.52101898 -55.08092499 66.46626282

endloop
endfacet
facet normal -0.4089815319 0.819075942 0.4023042619
outer loop
vertex 94.52101898 -55.08092499 66.46626282
vertex 89.32582855 -54.85540009 60.72696304
vertex 94.52098846 -55.08094025 66.46626282

endloop
endfacet
facet normal -0.9166721702 -0.3996399641 -0
outer loop
vertex 80.76711273 -70.514534 65.37806702
vertex 80.76711273 -70.514534 65.37807465
vertex 79.00823212 -66.48011017 55.75748062

endloop
endfacet
facet normal 0.7743834853 0.6214216352 0.1190186366
outer loop
vertex 79.00823212 -66.48011017 55.75748062
vertex 80.76711273 -70.514534 65.37807465
vertex 81.25273895 -69.31324005 55.94618225

endloop
endfacet
facet normal 0.1666323543 0.1963706911 0.9662672281
outer loop
vertex 79.00823212 -66.48011017 55.75748062
vertex 81.25273895 -69.31324005 55.94618225
vertex 81.503685 -62.47913361 54.51403809

endloop
endfacet
facet normal 0.1303993315 0.1987628788 0.9713337421
outer loop
vertex 81.503685 -62.47913361 54.51403809
vertex 81.25273895 -69.31324005 55.94618225
vertex 84.56502533 -65.63171387 54.74816895

endloop
endfacet
facet normal -0.3125781417 -0.2351830453 0.9203172326
outer loop
vertex 81.503685 -62.47913361 54.51403809
vertex 84.56502533 -65.63171387 54.74816895
vertex 85.28707123 -58.21015167 56.88995361

endloop
endfacet
facet normal -0.2164217681 -0.2512076497 0.9434279799
outer loop
vertex 85.28707123 -58.21015167 56.88995361
vertex 84.56502533 -65.63171387 54.74816895
vertex 88.76683807 -60.80571747 56.99708557

endloop
endfacet
facet normal -0.37324211 -0.4673105478 0.8014432192
outer loop
vertex 85.28707123 -58.21015167 56.88995361
vertex 88.76683807 -60.80571747 56.99708557
vertex 89.32582855 -54.85540009 60.72696304

endloop
endfacet
facet normal -0.2588351369 -0.495444566 0.8291797042
outer loop
vertex 89.32582855 -54.85540009 60.72696304
vertex 88.76683807 -60.80571747 56.99708557
vertex 92.40718842 -56.57450104 60.66165161

endloop
endfacet
facet normal -0.4462313354 -0.8139666319 0.3719353378
outer loop
vertex 89.32582855 -54.85540009 60.72696304
vertex 92.40718842 -56.57450104 60.66165161
vertex 94.52098846 -55.08095551 66.46626282

endloop
endfacet
facet normal 0.906227231 0.1901958436 -0.3775946796
outer loop
vertex 94.52098846 -55.08095551 66.46626282
vertex 92.40718842 -56.57450104 60.66165161
vertex 94.52098846 -55.08094025 66.46627045

endloop
endfacet
facet normal -0.9965367913 -0.05879820138 -0.05879820138
outer loop
vertex 80.76711273 -70.514534 65.37807465
vertex 80.76711273 -70.51452637 65.37806702
vertex 81.25273895 -69.31324005 55.94618225

endloop
endfacet
facet normal 0.7539542317 0.6456768513 0.1210556179
outer loop
vertex 81.25273895 -69.31324005 55.94618225
vertex 80.76711273 -70.51452637 65.37806702
vertex 83.61003876 -72.18190765 56.56520462

endloop
endfacet
facet normal 0.06139328331 0.258482039 0.9640632272
outer loop
vertex 81.25273895 -69.31324005 55.94618225
vertex 83.61003876 -72.18190765 56.56520462
vertex 84.56502533 -65.63171387 54.74816895

endloop
endfacet
facet normal 0.1623728126 0.2417080551 0.9566672444
outer loop
vertex 84.56502533 -65.63171387 54.74816895
vertex 83.61003876 -72.18190765 56.56520462
vertex 87.84978485 -68.83776093 55.00068283

endloop
endfacet
facet normal -0.2705018818 -0.2030227929 0.9410688281
outer loop
vertex 84.56502533 -65.63171387 54.74816895
vertex 87.84978485 -68.83776093 55.00068283
vertex 88.76683807 -60.80571747 56.99708557

endloop
endfacet
facet normal -0.03592976555 -0.2371941209 0.9707975984
outer loop
vertex 88.76683807 -60.80571747 56.99708557
vertex 87.84978485 -68.83776093 55.00068283
vertex 92.74532318 -63.46642303 56.49424362

endloop
endfacet
facet normal -0.2374352068 -0.5111442208 0.8260484934
outer loop
vertex 88.76683807 -60.80571747 56.99708557
vertex 92.74532318 -63.46642303 56.49424362
vertex 92.40718842 -56.57450104 60.66165161

endloop
endfacet
facet normal -0.04283479974 -0.5185006261 0.8540037274
outer loop
vertex 92.40718842 -56.57450104 60.66165161
vertex 92.74532318 -63.46642303 56.49424362
vertex 96.15193939 -58.35251617 59.76997375

endloop
endfacet
facet normal -0.3335568011 -0.8765422106 0.3470066488
outer loop
vertex 92.40718842 -56.57450104 60.66165161
vertex 96.15193939 -58.35251617 59.76997375
vertex 94.52098846 -55.08094025 66.46627045

endloop
endfacet
facet normal 0.9070089459 0.4211112857 0
outer loop
vertex 94.52098846 -55.08094025 66.46627045
vertex 96.15193939 -58.35251617 59.76997375
vertex 94.52098846 -55.08094025 66.46626282

endloop
endfacet
facet normal 0.9517065287 -0 0.3070093691
outer loop
vertex 80.76711273 -70.51452637 65.37806702
vertex 80.76711273 -70.51454163 65.37806702
vertex 83.61003876 -72.18190765 56.56520462

endloop
endfacet
facet normal 0.6973090768 0.7110449672 0.09041622281
outer loop
vertex 83.61003876 -72.18190765 56.56520462
vertex 80.76711273 -70.51454163 65.37806702
vertex 85.61333466 -74.4254837 58.7591362

endloop
endfacet
facet normal -0.1840893328 0.5982479453 0.7798784971
outer loop
vertex 83.61003876 -72.18190765 56.56520462
vertex 85.61333466 -74.4254837 58.7591362
vertex 87.84978485 -68.83776093 55.00068283

endloop
endfacet
facet normal -0.127017498 0.5881000757 0.7987520695
outer loop
vertex 87.84978485 -68.83776093 55.00068283
vertex 85.61333466 -74.4254837 58.7591362
vertex 90.53035736 -71.46296692 57.3598175

endloop
endfacet
facet normal -0.5061130524 0.2301593423 0.8311897516
outer loop
vertex 87.84978485 -68.83776093 55.00068283
vertex 90.53035736 -71.46296692 57.3598175
vertex 92.74532318 -63.46642303 56.49424362

endloop
endfacet
facet normal -0.3815051913 0.2032805383 0.90173769
outer loop
vertex 92.74532318 -63.46642303 56.49424362
vertex 90.53035736 -71.46296692 57.3598175
vertex 95.58855438 -65.71328735 58.20366669

endloop
endfacet
facet normal -0.5825334191 -0.1262717694 0.8029384613
outer loop
vertex 92.74532318 -63.46642303 56.49424362
vertex 95.58855438 -65.71328735 58.20366669
vertex 96.15193939 -58.35251617 59.76997375

endloop
endfacet
facet normal -0.4388342202 -0.1547621489 0.8851401806
outer loop
vertex 96.15193939 -58.35251617 59.76997375
vertex 95.58855438 -65.71328735 58.20366669
vertex 98.48055267 -59.83937836 60.66448212

endloop
endfacet
facet normal -0.585763216 -0.7753227353 0.2361272722
outer loop
vertex 96.15193939 -58.35251617 59.76997375
vertex 98.48055267 -59.83937836 60.66448212
vertex 94.52098846 -55.08094025 66.46626282

endloop
endfacet
facet normal -nan(ind) -nan(ind) -nan(ind)
outer loop
vertex 94.52098846 -55.08094025 66.46626282
vertex 98.48055267 -59.83937836 60.66448212
vertex 94.52098846 -55.08094025 66.46626282

endloop
endfacet
facet normal -0.8068501353 -0 -0.5907562375
outer loop
vertex 80.76711273 -70.51454163 65.37806702
vertex 80.76711273 -70.51452637 65.37806702
vertex 85.61333466 -74.4254837 58.7591362

endloop
endfacet
facet normal 0.6565532088 0.7534427643 0.03552231938
outer loop
vertex 85.61333466 -74.4254837 58.7591362
vertex 80.76711273 -70.51452637 65.37806702
vertex 87.10375214 -75.8804245 62.07188416

endloop
endfacet
facet normal -0.3372351229 0.7966554165 0.5016100407
outer loop
vertex 85.61333466 -74.4254837 58.7591362
vertex 87.10375214 -75.8804245 62.07188416
vertex 90.53035736 -71.46296692 57.3598175

endloop
endfacet
facet normal -0.3053828776 0.7953717709 0.5235695839
outer loop
vertex 90.53035736 -71.46296692 57.3598175
vertex 87.10375214 -75.8804245 62.07188416
vertex 92.44695282 -73.2116394 61.13417816

endloop
endfacet
facet normal -0.6589440107 0.4968068004 0.56477952
outer loop
vertex 90.53035736 -71.46296692 57.3598175
vertex 92.44695282 -73.2116394 61.13417816
vertex 95.58855438 -65.71328735 58.20366669

endloop
endfacet
facet normal -0.5865250826 0.4959821105 0.6403046846
outer loop
vertex 95.58855438 -65.71328735 58.20366669
vertex 92.44695282 -73.2116394 61.13417816
vertex 97.37404633 -67.16530609 60.96393204

endloop
endfacet
facet normal -0.7945867181 0.1441223621 0.5897971392
outer loop
vertex 95.58855438 -65.71328735 58.20366669
vertex 97.37404633 -67.16530609 60.96393204
vertex 98.48055267 -59.83937836 60.66448212

endloop
endfacet
facet normal -0.6711128354 0.1311896443 0.7296552658
outer loop
vertex 98.48055267 -59.83937836 60.66448212
vertex 97.37404633 -67.16530609 60.96393204
vertex 99.7087326 -60.70102692 61.94904327

endloop
endfacet
facet normal -0.6658120751 -0.7317444682 0.1457544118
outer loop
vertex 98.48055267 -59.83937836 60.66448212
vertex 99.7087326 -60.70102692 61.94904327
vertex 94.52098846 -55.08094025 66.46626282

endloop
endfacet
facet normal -nan(ind) -nan(ind) -nan(ind)
outer loop
vertex 94.52098846 -55.08094025 66.46626282
vertex 99.7087326 -60.70102692 61.94904327
vertex 94.52098846 -55.08094025 66.46626282

endloop
endfacet
facet normal 0.4625781178 -0 0.8865785003
outer loop
vertex 80.76711273 -70.51452637 65.37806702
vertex 80.76711273 -70.514534 65.37806702
vertex 87.10375214 -75.8804245 62.07188416

endloop
endfacet
facet normal 0.6363044977 0.7707967162 -0.03144969419
outer loop
vertex 87.10375214 -75.8804245 62.07188416
vertex 80.76711273 -70.514534 65.37806702
vertex 87.81737518 -76.31609344 65.83247375

endloop
endfacet
facet normal -0.4136597216 0.8920859694 0.1818468273
outer loop
vertex 87.10375214 -75.8804245 62.07188416
vertex 87.81737518 -76.31609344 65.83247375
vertex 92.44695282 -73.2116394 61.13417816

endloop
endfacet
facet normal -0.4122005999 0.892421484 0.1835063249
outer loop
vertex 92.44695282 -73.2116394 61.13417816
vertex 87.81737518 -76.31609344 65.83247375
vertex 93.26528168 -73.75562286 65.61782837

endloop
endfacet
facet normal -0.7544679642 0.6208060384 0.213020876
outer loop
vertex 92.44695282 -73.2116394 61.13417816
vertex 93.26528168 -73.75562286 65.61782837
vertex 97.37404633 -67.16530609 60.96393204

endloop
endfacet
facet normal -0.7478926778 0.6247413158 0.224398762
outer loop
vertex 97.37404633 -67.16530609 60.96393204
vertex 93.26528168 -73.75562286 65.61782837
vertex 98.05593109 -67.64562988 64.57382202

endloop
endfacet
facet normal -0.9284505844 0.3024664521 0.215623796
outer loop
vertex 97.37404633 -67.16530609 60.96393204
vertex 98.05593109 -67.64562988 64.57382202
vertex 99.7087326 -60.70102692 61.94904327

endloop
endfacet
facet normal -0.9169356227 0.3121714592 0.2485520393
outer loop
vertex 99.7087326 -60.70102692 61.94904327
vertex 98.05593109 -67.64562988 64.57382202
vertex 100.149437 -61.00936127 63.9621048

endloop
endfacet
facet normal -0.7138576508 -0.6985545754 0.04928402975
outer loop
vertex 99.7087326 -60.70102692 61.94904327
vertex 100.149437 -61.00936127 63.9621048
vertex 94.52098846 -55.08094025 66.46626282

endloop
endfacet
facet normal 0 -0.3846153915 0.9230769277
outer loop
vertex 94.52098846 -55.08094025 66.46626282
vertex 100.149437 -61.00936127 63.9621048
vertex 94.52101898 -55.08094025 66.46626282

endloop
endfacet
facet normal -nan(ind) -nan(ind) -nan(ind)
outer loop
vertex 80.76711273 -70.514534 65.37806702
vertex 80.76711273 -70.514534 65.37806702
vertex 87.81737518 -76.31609344 65.83247375

endloop
endfacet
facet normal 0.6359938979 0.7648510337 -0.1025408506
outer loop
vertex 87.81737518 -76.31609344 65.83247375
vertex 80.76711273 -70.514534 65.37806702
vertex 87.69075775 -75.71379852 69.53965759

endloop
endfacet
facet normal -0.4250577092 0.8910415173 -0.1592825055
outer loop
vertex 87.81737518 -76.31609344 65.83247375
vertex 87.69075775 -75.71379852 69.53965759
vertex 93.26528168 -73.75562286 65.61782837

endloop
endfacet
facet normal -0.4240832031 0.8918209672 -0.1575080603
outer loop
vertex 93.26528168 -73.75562286 65.61782837
vertex 87.69075775 -75.71379852 69.53965759
vertex 92.94078827 -73.11032867 70.14521027

endloop
endfacet
facet normal -0.7906228304 0.59571141 -0.1415743232
outer loop
vertex 93.26528168 -73.75562286 65.61782837
vertex 92.94078827 -73.11032867 70.14521027
vertex 98.05593109 -67.64562988 64.57382202

endloop
endfacet
facet normal -0.7930250764 0.5907837152 -0.1486130655
outer loop
vertex 98.05593109 -67.64562988 64.57382202
vertex 92.94078827 -73.11032867 70.14521027
vertex 97.62233734 -67.21343231 68.60567474

endloop
endfacet
facet normal -0.9486723542 0.287031889 -0.132790789
outer loop
vertex 98.05593109 -67.64562988 64.57382202
vertex 97.62233734 -67.21343231 68.60567474
vertex 100.149437 -61.00936127 63.9621048

endloop
endfacet
facet normal -0.9491091967 0.282712996 -0.1387988478
outer loop
vertex 100.149437 -61.00936127 63.9621048
vertex 97.62233734 -67.21343231 68.60567474
vertex 99.80467987 -60.83327484 66.67822266

endloop
endfacet
facet normal -0.7346662879 -0.6766287684 -0.04938529059
outer loop
vertex 100.149437 -61.00936127 63.9621048
vertex 99.80467987 -60.83327484 66.67822266
vertex 94.52101898 -55.08094025 66.46626282

endloop
endfacet
facet normal 0 -0.03666012362 -0.9993278384
outer loop
vertex 94.52101898 -55.08094025 66.46626282
vertex 99.80467987 -60.83327484 66.67822266
vertex 94.52098846 -55.08094025 66.46626282

endloop
endfacet
facet normal -nan(ind) -nan(ind) -nan(ind)
outer loop
vertex 80.76711273 -70.514534 65.37806702
vertex 80.76711273 -70.514534 65.37806702
vertex 87.69075775 -75.71379852 69.53965759

endloop
endfacet
facet normal 0.6526374221 0.7404208183 -0.1607525498
outer loop
vertex 87.69075775 -75.71379852 69.53965759
vertex 80.76711273 -70.514534 65.37806702
vertex 86.91399384 -74.349617 72.66945648

endloop
endfacet
facet normal -0.3557507396 0.8211771846 -0.4462168515
outer loop
vertex 87.69075775 -75.71379852 69.53965759
vertex 86.91399384 -74.349617 72.66945648
vertex 92.94078827 -73.11032867 70.14521027

endloop
endfacet
facet normal -0.3560068607 0.8205715418 -0.4471257925
outer loop
vertex 92.94078827 -73.11032867 70.14521027
vertex 86.91399384 -74.349617 72.66945648
vertex 91.75704193 -71.59732819 73.86440277

endloop
endfacet
facet normal -0.7561639547 0.485880971 -0.4383329451
outer loop
vertex 92.94078827 -73.11032867 70.14521027
vertex 91.75704193 -71.59732819 73.86440277
vertex 97.62233734 -67.21343231 68.60567474

endloop
endfacet
facet normal -0.7588999867 0.4447855353 -0.475643307
outer loop
vertex 97.62233734 -67.21343231 68.60567474
vertex 91.75704193 -71.59732819 73.86440277
vertex 96.25414276 -66.01328278 71.91094971

endloop
endfacet
facet normal -0.8861666918 0.1732886583 -0.4297436178
outer loop
vertex 97.62233734 -67.21343231 68.60567474
vertex 96.25414276 -66.01328278 71.91094971
vertex 99.80467987 -60.83327484 66.67822266

endloop
endfacet
facet normal -0.8727908731 0.1204165965 -0.473007232
outer loop
vertex 99.80467987 -60.83327484 66.67822266
vertex 96.25414276 -66.01328278 71.91094971
vertex 98.65901947 -60.09477997 68.98019409

endloop
endfacet
facet normal -0.7259366512 -0.6721615195 -0.1456530243
outer loop
vertex 99.80467987 -60.83327484 66.67822266
vertex 98.65901947 -60.09477997 68.98019409
vertex 94.52098846 -55.08094025 66.46626282

endloop
endfacet
facet normal -nan(ind) -nan(ind) -nan(ind)
outer loop
vertex 94.52098846 -55.08094025 66.46626282
vertex 98.65901947 -60.09477997 68.98019409
vertex 94.52098846 -55.08094025 66.46626282

endloop
endfacet
facet normal -0.7645616531 0 0.6445506215
outer loop
vertex 80.76711273 -70.514534 65.37806702
vertex 80.76711273 -70.51454163 65.37806702
vertex 86.91399384 -74.349617 72.66945648

endloop
endfacet
facet normal 0.6963383555 0.6800895929 -0.2293273807
outer loop
vertex 86.91399384 -74.349617 72.66945648
vertex 80.76711273 -70.51454163 65.37806702
vertex 85.48683929 -72.34322357 74.28611755

endloop
endfacet
facet normal -0.1223433465 0.5684915185 -0.8135412335
outer loop
vertex 86.91399384 -74.349617 72.66945648
vertex 85.48683929 -72.34322357 74.28611755
vertex 91.75704193 -71.59732819 73.86440277

endloop
endfacet
facet normal -0.1216132119 0.5583310723 -0.8206561804
outer loop
vertex 91.75704193 -71.59732819 73.86440277
vertex 85.48683929 -72.34322357 74.28611755
vertex 89.64962006 -69.27309418 75.75798798

endloop
endfacet
facet normal -0.5550346375 0.1615399569 -0.8159911036
outer loop
vertex 91.75704193 -71.59732819 73.86440277
vertex 89.64962006 -69.27309418 75.75798798
vertex 96.25414276 -66.01328278 71.91094971

endloop
endfacet
facet normal -0.5450918078 0.1262625307 -0.8288139701
outer loop
vertex 96.25414276 -66.01328278 71.91094971
vertex 89.64962006 -69.27309418 75.75798798
vertex 93.80840302 -64.04035187 73.82001495

endloop
endfacet
facet normal -0.6609823108 -0.09971431643 -0.7437468767
outer loop
vertex 96.25414276 -66.01328278 71.91094971
vertex 93.80840302 -64.04035187 73.82001495
vertex 98.65901947 -60.09477997 68.98019409

endloop
endfacet
facet normal -0.6547806263 -0.1119250506 -0.7474858761
outer loop
vertex 98.65901947 -60.09477997 68.98019409
vertex 93.80840302 -64.04035187 73.82001495
vertex 96.55522919 -58.791008 70.62784576

endloop
endfacet
facet normal -0.6593310237 -0.6917964816 -0.2944489717
outer loop
vertex 98.65901947 -60.09477997 68.98019409
vertex 96.55522919 -58.791008 70.62784576
vertex 94.52098846 -55.08094025 66.46626282

endloop
endfacet
facet normal -nan(ind) -nan(ind) -nan(ind)
outer loop
vertex 94.52098846 -55.08094025 66.46626282
vertex 96.55522919 -58.791008 70.62784576
vertex 94.52098846 -55.08094025 66.46626282

endloop
endfacet
facet normal 0.883636117 0 -0.4681743681
outer loop
vertex 80.76711273 -70.51454163 65.37806702
vertex 80.76711273 -70.51452637 65.37806702
vertex 85.48683929 -72.34322357 74.28611755

endloop
endfacet
facet normal 0.8072581291 0.4914503098 -0.3268193901
outer loop
vertex 85.48683929 -72.34322357 74.28611755
vertex 80.76711273 -70.51452637 65.37806702
vertex 83.15718842 -69.52510071 72.7694931

endloop
endfacet
facet normal 0.4185708463 -0.1371329874 -0.8977711201
outer loop
vertex 85.48683929 -72.34322357 74.28611755
vertex 83.15718842 -69.52510071 72.7694931
vertex 89.64962006 -69.27309418 75.75798798

endloop
endfacet
facet normal 0.4140528142 -0.233304888 -0.8798460364
outer loop
vertex 89.64962006 -69.27309418 75.75798798
vertex 83.15718842 -69.52510071 72.7694931
vertex 86.50289154 -66.09053802 73.4332428

endloop
endfacet
facet normal 0.1755720526 -0.4615803957 -0.8695504069
outer loop
vertex 89.64962006 -69.27309418 75.75798798
vertex 86.50289154 -66.09053802 73.4332428
vertex 93.80840302 -64.04035187 73.82001495

endloop
endfacet
facet normal 0.1737731546 -0.4543894827 -0.8736892939
outer loop
vertex 93.80840302 -64.04035187 73.82001495
vertex 86.50289154 -66.09053802 73.4332428
vertex 90.27028656 -61.30129242 71.69176483

endloop
endfacet
facet normal 0.07754346728 -0.5473249555 -0.8333200812
outer loop
vertex 93.80840302 -64.04035187 73.82001495
vertex 90.27028656 -61.30129242 71.69176483
vertex 96.55522919 -58.791008 70.62784576

endloop
endfacet
facet normal 0.03405307233 -0.4610675573 -0.8867114186
outer loop
vertex 96.55522919 -58.791008 70.62784576
vertex 90.27028656 -61.30129242 71.69176483
vertex 93.44277191 -56.85988617 69.50418091

endloop
endfacet
facet normal -0.282987684 -0.780477345 -0.5574702621
outer loop
vertex 96.55522919 -58.791008 70.62784576
vertex 93.44277191 -56.85988617 69.50418091
vertex 94.52098846 -55.08094025 66.46626282

endloop
endfacet
facet normal -nan(ind) -nan(ind) -nan(ind)
outer loop
vertex 94.52098846 -55.08094025 66.46626282
vertex 93.44277191 -56.85988617 69.50418091
vertex 94.52098846 -55.08094025 66.46626282

endloop
endfacet
facet normal 0 -0.9911592007 0.1326778233
outer loop
vertex 80.76711273 -70.51452637 65.37806702
vertex 80.76714325 -70.51452637 65.37806702
vertex 83.15718842 -69.52510071 72.7694931

endloop
endfacet
facet normal 0.8286466002 0.4531686902 -0.3286076784
outer loop
vertex 83.15718842 -69.52510071 72.7694931
vertex 80.76714325 -70.51452637 65.37806702
vertex 81.1255722 -67.11415863 70.97121429

endloop
endfacet
facet normal 0.4426887631 -0.2657318711 -0.8563954234
outer loop
vertex 83.15718842 -69.52510071 72.7694931
vertex 81.1255722 -67.11415863 70.97121429
vertex 86.50289154 -66.09053802 73.4332428

endloop
endfacet
facet normal 0.444234699 -0.3412575722 -0.8283712268
outer loop
vertex 86.50289154 -66.09053802 73.4332428
vertex 81.1255722 -67.11415863 70.97121429
vertex 83.92064667 -63.48833466 70.97644043

endloop
endfacet
facet normal 0.2672128975 -0.5079638958 -0.8188832998
outer loop
vertex 86.50289154 -66.09053802 73.4332428
vertex 83.92064667 -63.48833466 70.97644043
vertex 90.27028656 -61.30129242 71.69176483

endloop
endfacet
facet normal 0.2651224732 -0.5000942349 -0.8243881464
outer loop
vertex 90.27028656 -61.30129242 71.69176483
vertex 83.92064667 -63.48833466 70.97644043
vertex 87.4406662 -59.12047577 69.45882416

endloop
endfacet
facet normal 0.2132641673 -0.5500382185 -0.8074505925
outer loop
vertex 90.27028656 -61.30129242 71.69176483
vertex 87.4406662 -59.12047577 69.45882416
vertex 93.44277191 -56.85988617 69.50418091

endloop
endfacet
facet normal 0.1796738654 -0.4596022367 -0.8697603345
outer loop
vertex 93.44277191 -56.85988617 69.50418091
vertex 87.4406662 -59.12047577 69.45882416
vertex 90.91640472 -55.2917099 68.15362549

endloop
endfacet
facet normal -0.2093707919 -0.8095883727 -0.5483890176
outer loop
vertex 93.44277191 -56.85988617 69.50418091
vertex 90.91640472 -55.2917099 68.15362549
vertex 94.52098846 -55.08094025 66.46626282

endloop
endfacet
facet normal 0 0.9922779202 0.12403474
outer loop
vertex 94.52098846 -55.08094025 66.46626282
vertex 90.91640472 -55.2917099 68.15362549
vertex 94.52101898 -55.08094025 66.46626282

endloop
endfacet
facet normal -0.3975681961 0.7951363921 -0.457927525
outer loop
vertex 80.76714325 -70.51452637 65.37806702
vertex 80.76711273 -70.51454163 65.37806702
vertex 81.1255722 -67.11415863 70.97121429

endloop
endfacet
facet normal 0.7719666958 0.5199971795 -0.365609616
outer loop
vertex 81.1255722 -67.11415863 70.97121429
vertex 80.76711273 -70.51454163 65.37806702
vertex 79.87670135 -65.75723267 70.26420593

endloop
endfacet
facet normal 0.2878956199 -0.2205896825 -0.931910038
outer loop
vertex 81.1255722 -67.11415863 70.97121429
vertex 79.87670135 -65.75723267 70.26420593
vertex 83.92064667 -63.48833466 70.97644043

endloop
endfacet
facet normal 0.06024729833 0.1996303499 -0.9780173898
outer loop
vertex 83.92064667 -63.48833466 70.97644043
vertex 79.87670135 -65.75723267 70.26420593
vertex 81.84069061 -61.58525848 71.236763

endloop
endfacet
facet normal -0.2448068559 -0.1362481266 -0.9599511027
outer loop
vertex 83.92064667 -63.48833466 70.97644043
vertex 81.84069061 -61.58525848 71.236763
vertex 87.4406662 -59.12047577 69.45882416

endloop
endfacet
facet normal -0.3470308781 0.1172519997 -0.9304953218
outer loop
vertex 87.4406662 -59.12047577 69.45882416
vertex 81.84069061 -61.58525848 71.236763
vertex 84.60558319 -57.07985687 70.77331543

endloop
endfacet
facet normal -0.3937245905 0.04442949593 -0.9181541204
outer loop
vertex 87.4406662 -59.12047577 69.45882416
vertex 84.60558319 -57.07985687 70.77331543
vertex 90.91640472 -55.2917099 68.15362549

endloop
endfacet
facet normal -0.4047884047 0.09643116593 -0.9093114734
outer loop
vertex 90.91640472 -55.2917099 68.15362549
vertex 84.60558319 -57.07985687 70.77331543
vertex 88.15724945 -53.65969086 69.55496216

endloop
endfacet
facet normal -0.425960809 0.05526180938 -0.9030522704
outer loop
vertex 90.91640472 -55.2917099 68.15362549
vertex 88.15724945 -53.65969086 69.55496216
vertex 94.52101898 -55.08094025 66.46626282

endloop
endfacet
facet normal 0 -0.9119215012 0.4103646874
outer loop
vertex 94.52101898 -55.08094025 66.46626282
vertex 88.15724945 -53.65969086 69.55496216
vertex 94.52098846 -55.08094025 66.46626282

endloop
endfacet
facet normal 0.9837981462 0 0.1792796105
outer loop
vertex 80.76711273 -70.51454163 65.37806702
vertex 80.76711273 -70.514534 65.37806702
vertex 79.87670135 -65.75723267 70.26420593

endloop
endfacet
facet normal 0.8548496962 0.4409287274 -0.2735212743
outer loop
vertex 79.87670135 -65.75723267 70.26420593
vertex 80.76711273 -70.514534 65.37806702
vertex 76.39839935 -61.7962265 65.77861786

endloop
endfacet
facet normal 0.701243937 -0.1686386615 -0.6926888824
outer loop
vertex 79.87670135 -65.75723267 70.26420593
vertex 76.39839935 -61.7962265 65.77861786
vertex 81.84069061 -61.58525848 71.236763

endloop
endfacet
facet normal 0.7002941966 -0.1776609272 -0.6913931966
outer loop
vertex 81.84069061 -61.58525848 71.236763
vertex 76.39839935 -61.7962265 65.77861786
vertex 77.68801117 -57.40692902 65.95695496

endloop
endfacet
facet normal 0.535307169 -0.4047688842 -0.7413558364
outer loop
vertex 81.84069061 -61.58525848 71.236763
vertex 77.68801117 -57.40692902 65.95695496
vertex 84.60558319 -57.07985687 70.77331543

endloop
endfacet
facet normal 0.5363342166 -0.400095284 -0.7431483269
outer loop
vertex 84.60558319 -57.07985687 70.77331543
vertex 77.68801117 -57.40692902 65.95695496
vertex 80.75051117 -54.02719879 66.34760284

endloop
endfacet
facet normal 0.3404863477 -0.6088218093 -0.7165228128
outer loop
vertex 84.60558319 -57.07985687 70.77331543
vertex 80.75051117 -54.02719879 66.34760284
vertex 88.15724945 -53.65969086 69.55496216

endloop
endfacet
facet normal 0.3433469832 -0.5978041887 -0.7243914008
outer loop
vertex 88.15724945 -53.65969086 69.55496216
vertex 80.75051117 -54.02719879 66.34760284
vertex 85.27419281 -51.9500351 66.77755737

endloop
endfacet
facet normal -0.3188465238 -0.9183796048 -0.234341234
outer loop
vertex 88.15724945 -53.65969086 69.55496216
vertex 85.27419281 -51.9500351 66.77755737
vertex 94.52098846 -55.08094025 66.46626282

endloop
endfacet
facet normal -nan(ind) -nan(ind) -nan(ind)
outer loop
vertex 94.52098846 -55.08094025 66.46626282
vertex 85.27419281 -51.9500351 66.77755737
vertex 94.52098846 -55.08094025 66.46626282

endloop
endfacet
endsolid
