solid 
facet normal 0 0.958804 0.28407
outer loop
vertex 27.76439667 -32.21923065 25.93577576
vertex 27.76441193 -32.21923065 25.93577576
vertex 25.45868683 -30.18952179 19.08502579

endloop
endfacet
facet normal -0.5854678154 -0.8095647097 -0.04280596972
outer loop
vertex 25.45868683 -30.18952179 19.08502579
vertex 27.76441193 -32.21923065 25.93577576
vertex 22.87874603 -28.46350861 21.72841454

endloop
endfacet
facet normal -0.08035263419 -0.8686918616 0.4887924194
outer loop
vertex 25.45868683 -30.18952179 19.08502579
vertex 22.87874603 -28.46350861 21.72841454
vertex 25.13930511 -30.52146149 18.44259262

endloop
endfacet
facet normal -0.1684667766 -0.8833647966 0.4373620749
outer loop
vertex 25.13930511 -30.52146149 18.44259262
vertex 22.87874603 -28.46350861 21.72841454
vertex 21.56380463 -29.05823517 20.0207119

endloop
endfacet
facet normal -0.4130605757 -0.9056103826 -0.0961811617
outer loop
vertex 25.13930511 -30.52146149 18.44259262
vertex 21.56380463 -29.05823517 20.0207119
vertex 25.17945099 -30.41165924 17.2363205

endloop
endfacet
facet normal -0.05320586637 -0.923530817 0.3798155785
outer loop
vertex 25.17945099 -30.41165924 17.2363205
vertex 21.56380463 -29.05823517 20.0207119
vertex 21.24449921 -29.80913544 18.1501503

endloop
endfacet
facet normal -0.1952886581 -0.9581862688 -0.2091442645
outer loop
vertex 25.17946625 -30.41164398 17.2363224
vertex 21.24451447 -29.80912018 18.15014839
vertex 25.55005646 -30.18314362 15.84341812

endloop
endfacet
facet normal 0.07771933079 -0.9509999752 0.2992634773
outer loop
vertex 25.55005646 -30.18314362 15.84341812
vertex 21.24451447 -29.80912018 18.15014839
vertex 21.57169342 -30.52266693 15.79766941

endloop
endfacet
facet normal 0.08441326022 -0.9475944042 -0.3081221282
outer loop
vertex 25.55005646 -30.18314362 15.84341812
vertex 21.57169342 -30.52266693 15.79766941
vertex 26.54143524 -29.54572296 14.15470219

endloop
endfacet
facet normal 0.1737303436 -0.9830232263 -0.05901735276
outer loop
vertex 26.54143524 -29.54572296 14.15470219
vertex 21.57169342 -30.52266693 15.79766941
vertex 22.36582184 -30.20487213 12.84200573

endloop
endfacet
facet normal 0.276642859 -0.8464562893 -0.4549510777
outer loop
vertex 26.54143524 -29.54572296 14.15470219
vertex 22.36582184 -30.20487213 12.84200573
vertex 28.719841 -27.77899933 12.19226265

endloop
endfacet
facet normal 0.3606947362 -0.9313369989 0.05010616034
outer loop
vertex 28.719841 -27.77899933 12.19226265
vertex 22.36582184 -30.20487213 12.84200573
vertex 24.05918121 -29.67646027 10.47390842

endloop
endfacet
facet normal 0.1801285297 -0.8655836582 0.4672456384
outer loop
vertex 28.719841 -27.77899933 12.19226265
vertex 24.05918121 -29.67646027 10.47390842
vertex 32.6657486 -27.11826324 11.89509964

endloop
endfacet
facet normal 0.21294339 -0.9116618633 0.351465106
outer loop
vertex 32.6657486 -27.11826324 11.89509964
vertex 24.05918121 -29.67646027 10.47390842
vertex 27.84781647 -29.73635101 8.023124695

endloop
endfacet
facet normal -0.2001838982 -0.6778463721 0.7074254751
outer loop
vertex 32.6657486 -27.11826324 11.89509964
vertex 27.84781647 -29.73635101 8.023124695
vertex 38.28630829 -28.45076752 12.20878983

endloop
endfacet
facet normal -0.08062205464 -0.8785035014 0.4708839059
outer loop
vertex 38.28630829 -28.45076752 12.20878983
vertex 27.84781647 -29.73635101 8.023124695
vertex 33.53633881 -31.56517792 5.585134029

endloop
endfacet
facet normal -0.1427868456 -0.8523201346 0.5031523108
outer loop
vertex 38.28630829 -28.45076752 12.20878983
vertex 33.53633881 -31.56517792 5.585134029
vertex 44.66646576 -30.54431915 10.47298622

endloop
endfacet
facet normal -0.2439591885 -0.6748478413 0.6964656115
outer loop
vertex 44.66646576 -30.54431915 10.47298622
vertex 33.53633881 -31.56517792 5.585134029
vertex 39.68978119 -35.39139557 4.033117771

endloop
endfacet
facet normal -0.1430109441 -0.7345089316 0.6633584499
outer loop
vertex 44.66646576 -30.54431915 10.47298622
vertex 39.68978119 -35.39139557 4.033117771
vertex 50.54898834 -33.37697601 8.60469532

endloop
endfacet
facet normal -0.1585665047 -0.7076956034 0.688493669
outer loop
vertex 50.54898834 -33.37697601 8.60469532
vertex 39.68978119 -35.39139557 4.033117771
vertex 45.76210785 -38.44225311 2.295686007

endloop
endfacet
facet normal -0.1777146459 -0.6971468925 0.694552958
outer loop
vertex 50.54898834 -33.37697601 8.60469532
vertex 45.76210785 -38.44225311 2.295686007
vertex 54.90572357 -36.33916473 6.746198177

endloop
endfacet
facet normal -0.0296770744 -0.8788077831 0.476252228
outer loop
vertex 54.90572357 -36.33916473 6.746198177
vertex 45.76210785 -38.44225311 2.295686007
vertex 50.86891937 -39.78488922 0.136401996

endloop
endfacet
facet normal -0.4835754335 -0.619553268 0.6183109879
outer loop
vertex 54.90572357 -36.33916473 6.746198177
vertex 50.86891937 -39.78488922 0.136401996
vertex 58.59911346 -40.70650482 5.258649826

endloop
endfacet
facet normal -0.4099082649 -0.7762678266 0.4789400697
outer loop
vertex 58.59911346 -40.70650482 5.258649826
vertex 50.86891937 -39.78488922 0.136401996
vertex 56.17206573 -43.22658539 -0.9031320214

endloop
endfacet
facet normal -0.9103832245 0.3543236554 0.2136751115
outer loop
vertex 58.59911346 -40.70650482 5.258649826
vertex 56.17206573 -43.22658539 -0.9031320214
vertex 54.21759796 -53.32424164 7.513961792

endloop
endfacet
facet normal 0 -0.6373730302 -0.7705554366
outer loop
vertex 54.21759796 -53.32424164 7.513961792
vertex 56.17206573 -43.22658539 -0.9031320214
vertex 54.21761322 -53.32424164 7.513961792

endloop
endfacet
facet normal 0 -0.7460125685 -0.6659318209
outer loop
vertex 27.76441193 -32.21923065 25.93577576
vertex 27.76439667 -32.21923065 25.93577576
vertex 22.87874603 -28.46350861 21.72841454

endloop
endfacet
facet normal -0.4878517389 -0.8512409329 -0.1933637708
outer loop
vertex 22.87874603 -28.46350861 21.72841454
vertex 27.76439667 -32.21923065 25.93577576
vertex 21.77944183 -28.23542023 23.49782181

endloop
endfacet
facet normal 0.1519699395 -0.9638927579 0.2186686695
outer loop
vertex 22.87874603 -28.46350861 21.72841454
vertex 21.77944183 -28.23542023 23.49782181
vertex 21.56380463 -29.05823517 20.0207119

endloop
endfacet
facet normal 0.3673878908 -0.9099205732 0.192537412
outer loop
vertex 21.56380463 -29.05823517 20.0207119
vertex 21.77944183 -28.23542023 23.49782181
vertex 19.73537445 -29.43816376 21.71408844

endloop
endfacet
facet normal 0.4306707978 -0.8605642915 0.2719410062
outer loop
vertex 21.56380463 -29.05823517 20.0207119
vertex 19.73537445 -29.43816376 21.71408844
vertex 21.24449921 -29.80913544 18.1501503

endloop
endfacet
facet normal 0.3693837225 -0.895132184 0.2495876253
outer loop
vertex 21.24449921 -29.80913544 18.1501503
vertex 19.73537445 -29.43816376 21.71408844
vertex 18.90546417 -30.47420502 19.22663116

endloop
endfacet
facet normal 0.3913602829 -0.8640893698 0.3165227175
outer loop
vertex 21.24451447 -29.80912018 18.15014839
vertex 18.90546417 -30.47418976 19.22663307
vertex 21.57169342 -30.52266693 15.79766941

endloop
endfacet
facet normal 0.3010459542 -0.92103827 0.2471028864
outer loop
vertex 21.57169342 -30.52266693 15.79766941
vertex 18.90546417 -30.47418976 19.22663307
vertex 19.09725189 -31.3555069 15.70800304

endloop
endfacet
facet normal 0.3194740415 -0.9474593997 -0.01603506878
outer loop
vertex 21.57169342 -30.52266693 15.79766941
vertex 19.09725189 -31.3555069 15.70800304
vertex 22.36582184 -30.20487213 12.84200573

endloop
endfacet
facet normal 0.3755519092 -0.9250520468 0.05691585317
outer loop
vertex 22.36582184 -30.20487213 12.84200573
vertex 19.09725189 -31.3555069 15.70800304
vertex 19.74767303 -31.34029388 11.66353989

endloop
endfacet
facet normal 0.3739375472 -0.9254529476 0.06088868156
outer loop
vertex 22.36582184 -30.20487213 12.84200573
vertex 19.74767303 -31.34029388 11.66353989
vertex 24.05918121 -29.67646027 10.47390842

endloop
endfacet
facet normal 0.3929617405 -0.9060599804 0.1569601148
outer loop
vertex 24.05918121 -29.67646027 10.47390842
vertex 19.74767303 -31.34029388 11.66353989
vertex 21.40494537 -31.15589142 8.578903198

endloop
endfacet
facet normal 0.2301837951 -0.8968371749 0.3777545094
outer loop
vertex 24.05918121 -29.67646027 10.47390842
vertex 21.40494537 -31.15589142 8.578903198
vertex 27.84781647 -29.73635101 8.023124695

endloop
endfacet
facet normal 0.2111499012 -0.6855689287 0.6967144012
outer loop
vertex 27.84781647 -29.73635101 8.023124695
vertex 21.40494537 -31.15589142 8.578903198
vertex 25.2730484 -32.49329376 6.09060812

endloop
endfacet
facet normal 0.1184296459 -0.6417402029 0.7577229142
outer loop
vertex 27.84781647 -29.73635101 8.023124695
vertex 25.2730484 -32.49329376 6.09060812
vertex 33.53633881 -31.56517792 5.585134029

endloop
endfacet
facet normal 0.1103784367 -0.5221559405 0.8456770778
outer loop
vertex 33.53633881 -31.56517792 5.585134029
vertex 25.2730484 -32.49329376 6.09060812
vertex 31.09145355 -35.38388824 3.546412945

endloop
endfacet
facet normal -0.05100447312 -0.4447408319 0.8942059278
outer loop
vertex 33.53633881 -31.56517792 5.585134029
vertex 31.09145355 -35.38388824 3.546412945
vertex 39.68978119 -35.39139557 4.033117771

endloop
endfacet
facet normal -0.0427069515 -0.6665941477 0.7441964746
outer loop
vertex 39.68978119 -35.39139557 4.033117771
vertex 31.09145355 -35.38388824 3.546412945
vertex 37.28517914 -38.53974152 1.075078964

endloop
endfacet
facet normal -0.1024981663 -0.6384297609 0.7628246546
outer loop
vertex 39.68978119 -35.39139557 4.033117771
vertex 37.28517914 -38.53974152 1.075078964
vertex 45.76210785 -38.44225311 2.295686007

endloop
endfacet
facet normal -0.0992628336 -0.6626826525 0.7422928214
outer loop
vertex 45.76210785 -38.44225311 2.295686007
vertex 37.28517914 -38.53974152 1.075078964
vertex 43.06587982 -41.7536087 -1.021082044

endloop
endfacet
facet normal 0.08764842153 -0.7396817803 0.6672245264
outer loop
vertex 45.76210785 -38.44225311 2.295686007
vertex 43.06587982 -41.7536087 -1.021082044
vertex 50.86891937 -39.78488922 0.136401996

endloop
endfacet
facet normal 0.06649305671 -0.6882716417 0.7223994136
outer loop
vertex 50.86891937 -39.78488922 0.136401996
vertex 43.06587982 -41.7536087 -1.021082044
vertex 47.8861618 -43.36737823 -3.002295017

endloop
endfacet
facet normal -0.1965906918 -0.5484082699 0.8127732873
outer loop
vertex 50.86891937 -39.78488922 0.136401996
vertex 47.8861618 -43.36737823 -3.002295017
vertex 56.17206573 -43.22658539 -0.9031320214

endloop
endfacet
facet normal -0.2349272072 -0.2353212833 0.9430975914
outer loop
vertex 56.17206573 -43.22658539 -0.9031320214
vertex 47.8861618 -43.36737823 -3.002295017
vertex 53.20360565 -46.74286652 -2.519961119

endloop
endfacet
facet normal -0.7835716009 0.4802440107 0.3941841424
outer loop
vertex 56.17206573 -43.22658539 -0.9031320214
vertex 53.20360565 -46.74286652 -2.519961119
vertex 54.21761322 -53.32424164 7.513961792

endloop
endfacet
facet normal 0 0.8360479474 0.5486564636
outer loop
vertex 54.21761322 -53.32424164 7.513961792
vertex 53.20360565 -46.74286652 -2.519961119
vertex 54.21759796 -53.32424164 7.513961792

endloop
endfacet
facet normal -0.1143210456 0.3879374564 0.9145683646
outer loop
vertex 27.76439667 -32.21923065 25.93577576
vertex 27.76441193 -32.21923065 25.93577766
vertex 21.77944183 -28.23542023 23.49782181

endloop
endfacet
facet normal -0.4637884796 -0.8498796821 -0.2502092123
outer loop
vertex 21.77944183 -28.23542023 23.49782181
vertex 27.76441193 -32.21923065 25.93577766
vertex 20.78035736 -28.26428986 25.44778824

endloop
endfacet
facet normal 0.3774628341 -0.9083724022 0.179948166
outer loop
vertex 21.77944183 -28.23542023 23.49782181
vertex 20.78035736 -28.26428986 25.44778824
vertex 19.73537445 -29.43816376 21.71408844

endloop
endfacet
facet normal 0.537863791 -0.8355379105 0.1121562123
outer loop
vertex 19.73537445 -29.43816376 21.71408844
vertex 20.78035736 -28.26428986 25.44778824
vertex 18.18622589 -30.180336 23.61427689

endloop
endfacet
facet normal 0.5685472488 -0.8093367219 0.147404775
outer loop
vertex 19.73537445 -29.43816376 21.71408844
vertex 18.18622589 -30.180336 23.61427689
vertex 18.90546417 -30.47420502 19.22663116

endloop
endfacet
facet normal 0.5351417065 -0.8324884772 0.1434794515
outer loop
vertex 18.90546417 -30.47420502 19.22663116
vertex 18.18622589 -30.180336 23.61427689
vertex 16.93781281 -31.53038788 20.4373436

endloop
endfacet
facet normal 0.5660779476 -0.7918505073 0.2291909754
outer loop
vertex 18.90546417 -30.47418976 19.22663307
vertex 16.93782806 -31.53038788 20.4373455
vertex 19.09725189 -31.3555069 15.70800304

endloop
endfacet
facet normal 0.542691946 -0.8112027049 0.2177972943
outer loop
vertex 19.09725189 -31.3555069 15.70800304
vertex 16.93782806 -31.53038788 20.4373455
vertex 16.97800446 -32.73004913 15.86900616

endloop
endfacet
facet normal 0.5467285514 -0.8330057263 0.0847903043
outer loop
vertex 19.09725189 -31.3555069 15.70800304
vertex 16.97800446 -32.73004913 15.86900616
vertex 19.74767303 -31.34029388 11.66353989

endloop
endfacet
facet normal 0.7012563944 -0.671297133 0.2399993092
outer loop
vertex 19.74767303 -31.34029388 11.66353989
vertex 16.97800446 -32.73004913 15.86900616
vertex 17.76857758 -33.61948395 11.07120323

endloop
endfacet
facet normal 0.6721319556 -0.6671191454 0.3212330341
outer loop
vertex 19.74767303 -31.34029388 11.66353989
vertex 17.76857758 -33.61948395 11.07120323
vertex 21.40494537 -31.15589142 8.578903198

endloop
endfacet
facet normal 0.6909841299 -0.4386933744 0.5745338202
outer loop
vertex 21.40494537 -31.15589142 8.578903198
vertex 17.76857758 -33.61948395 11.07120323
vertex 19.85977936 -34.78836823 7.663624763

endloop
endfacet
facet normal 0.4033406377 -0.3811798096 0.8318763971
outer loop
vertex 21.40494537 -31.15589142 8.578903198
vertex 19.85977936 -34.78836823 7.663624763
vertex 25.2730484 -32.49329376 6.09060812

endloop
endfacet
facet normal 0.3818108141 -0.3018224239 0.8735696077
outer loop
vertex 25.2730484 -32.49329376 6.09060812
vertex 19.85977936 -34.78836823 7.663624763
vertex 23.79547882 -36.88404083 5.219385147

endloop
endfacet
facet normal 0.2680557966 -0.273501724 0.9237655401
outer loop
vertex 25.2730484 -32.49329376 6.09060812
vertex 23.79547882 -36.88404083 5.219385147
vertex 31.09145355 -35.38388824 3.546412945

endloop
endfacet
facet normal 0.2834228873 -0.4134474695 0.8652934432
outer loop
vertex 31.09145355 -35.38388824 3.546412945
vertex 23.79547882 -36.88404083 5.219385147
vertex 29.38906097 -39.15956879 2.299958944

endloop
endfacet
facet normal 0.1708141118 -0.3774754107 0.9101290703
outer loop
vertex 31.09145355 -35.38388824 3.546412945
vertex 29.38906097 -39.15956879 2.299958944
vertex 37.28517914 -38.53974152 1.075078964

endloop
endfacet
facet normal 0.1590134948 -0.7446213365 0.6482697725
outer loop
vertex 37.28517914 -38.53974152 1.075078964
vertex 29.38906097 -39.15956879 2.299958944
vertex 35.62216949 -41.01581573 -1.361093044

endloop
endfacet
facet normal -0.09960850328 -0.6630564332 0.741912663
outer loop
vertex 37.28517914 -38.53974152 1.075078964
vertex 35.62216949 -41.01581573 -1.361093044
vertex 43.06587982 -41.7536087 -1.021082044

endloop
endfacet
facet normal -0.1017326638 -0.7011818886 0.7056871653
outer loop
vertex 43.06587982 -41.7536087 -1.021082044
vertex 35.62216949 -41.01581573 -1.361093044
vertex 41.21401215 -44.24843597 -3.766948938

endloop
endfacet
facet normal 0.02262109146 -0.7474864125 0.6638917923
outer loop
vertex 43.06587982 -41.7536087 -1.021082044
vertex 41.21401215 -44.24843597 -3.766948938
vertex 47.8861618 -43.36737823 -3.002295017

endloop
endfacet
facet normal -0.03015071899 -0.5150995255 0.8565999866
outer loop
vertex 47.8861618 -43.36737823 -3.002295017
vertex 41.21401215 -44.24843597 -3.766948938
vertex 45.93767548 -46.32653046 -4.850306034

endloop
endfacet
facet normal -0.3040498793 -0.352507323 0.8850380182
outer loop
vertex 47.8861618 -43.36737823 -3.002295017
vertex 45.93767548 -46.32653046 -4.850306034
vertex 53.20360565 -46.74286652 -2.519961119

endloop
endfacet
facet normal -0.2919869125 0.1711566299 0.940983057
outer loop
vertex 53.20360565 -46.74286652 -2.519961119
vertex 45.93767548 -46.32653046 -4.850306034
vertex 51.11894989 -49.65001678 -2.638044119

endloop
endfacet
facet normal -0.7470052242 0.5187742114 0.4157601893
outer loop
vertex 53.20360565 -46.74286652 -2.519961119
vertex 51.11894989 -49.65001678 -2.638044119
vertex 54.21759796 -53.32424164 7.513961792

endloop
endfacet
facet normal 0.6431570649 -0.6353136301 -0.4274641275
outer loop
vertex 54.21759796 -53.32424164 7.513961792
vertex 51.11894989 -49.65001678 -2.638044119
vertex 54.21761322 -53.32422638 7.513961792

endloop
endfacet
facet normal -0.06237302348 0.0129914619 0.9979683757
outer loop
vertex 27.76438141 -32.21923065 25.93577385
vertex 27.76441193 -32.21923065 25.93577576
vertex 20.7803421 -28.26428986 25.44778633

endloop
endfacet
facet normal -0.4525050223 -0.837035656 -0.307588309
outer loop
vertex 20.7803421 -28.26428986 25.44778633
vertex 27.76441193 -32.21923065 25.93577576
vertex 19.84552765 -28.70127106 28.01217842

endloop
endfacet
facet normal 0.5628516674 -0.8240166903 0.06476469338
outer loop
vertex 20.7803421 -28.26428986 25.44778633
vertex 19.84552765 -28.70127106 28.01217842
vertex 18.18619537 -30.18035126 23.61427498

endloop
endfacet
facet normal 0.6922383308 -0.7214303613 -0.01855429634
outer loop
vertex 18.18619537 -30.18035126 23.61427498
vertex 19.84552765 -28.70127106 28.01217842
vertex 16.84947968 -31.52025604 25.84137535

endloop
endfacet
facet normal 0.7186506987 -0.6952487826 0.01305034012
outer loop
vertex 18.18619537 -30.18035126 23.61427498
vertex 16.84947968 -31.52025604 25.84137535
vertex 16.93779755 -31.53040314 20.4373436

endloop
endfacet
facet normal 0.7785601616 -0.6274159551 0.01390207
outer loop
vertex 16.93779755 -31.53040314 20.4373436
vertex 16.84947968 -31.52025604 25.84137535
vertex 15.40885162 -33.39626312 21.8548317

endloop
endfacet
facet normal 0.8181390166 -0.5543556809 0.152769044
outer loop
vertex 16.93781281 -31.53040314 20.4373436
vertex 15.40886688 -33.39624786 21.8548336
vertex 16.9779892 -32.73004913 15.86900616

endloop
endfacet
facet normal 0.8471933007 -0.5047149658 0.1659101248
outer loop
vertex 16.9779892 -32.73004913 15.86900616
vertex 15.40886688 -33.39624786 21.8548336
vertex 15.45282745 -35.10112762 16.44394302

endloop
endfacet
facet normal 0.8429934978 -0.4866840243 0.2291301638
outer loop
vertex 16.9779892 -32.73004913 15.86900616
vertex 15.45282745 -35.10112762 16.44394302
vertex 17.76856232 -33.61948395 11.07120228

endloop
endfacet
facet normal 0.9004896879 -0.3131321371 0.3017724752
outer loop
vertex 17.76856232 -33.61948395 11.07120228
vertex 15.45282745 -35.10112762 16.44394302
vertex 16.56673431 -36.88883209 11.26504326

endloop
endfacet
facet normal 0.7830049992 -0.2541764677 0.5677124858
outer loop
vertex 17.76856232 -33.61948395 11.07120228
vertex 16.56673431 -36.88883209 11.26504326
vertex 19.8597641 -34.78836823 7.663624763

endloop
endfacet
facet normal 0.7632650137 -0.103026785 0.6378182173
outer loop
vertex 19.8597641 -34.78836823 7.663624763
vertex 16.56673431 -36.88883209 11.26504326
vertex 19.03911591 -39.02518463 7.961306095

endloop
endfacet
facet normal 0.5121446848 -0.03891481832 0.8580171466
outer loop
vertex 19.8597641 -34.78836823 7.663624763
vertex 19.03911591 -39.02518463 7.961306095
vertex 23.79546356 -36.88404083 5.219384193

endloop
endfacet
facet normal 0.5383334756 -0.1294784397 0.8327258229
outer loop
vertex 23.79546356 -36.88404083 5.219384193
vertex 19.03911591 -39.02518463 7.961306095
vertex 22.92519379 -40.89426422 5.158449173

endloop
endfacet
facet normal 0.425832659 -0.1060647368 0.8985638022
outer loop
vertex 23.79546356 -36.88404083 5.219384193
vertex 22.92519379 -40.89426422 5.158449173
vertex 29.38906097 -39.15956879 2.299958944

endloop
endfacet
facet normal 0.4545862079 -0.3317960501 0.8265971541
outer loop
vertex 29.38906097 -39.15956879 2.299958944
vertex 22.92519379 -40.89426422 5.158449173
vertex 28.2483902 -42.15381622 1.72537899

endloop
endfacet
facet normal 0.4074130058 -0.3193857372 0.8555742502
outer loop
vertex 29.38906097 -39.15956879 2.299958944
vertex 28.2483902 -42.15381622 1.72537899
vertex 35.62215424 -41.01581573 -1.361093044

endloop
endfacet
facet normal 0.4070141017 -0.2739647925 0.8713683486
outer loop
vertex 35.62215424 -41.01581573 -1.361093044
vertex 28.2483902 -42.15381622 1.72537899
vertex 34.42752838 -43.6236496 -1.623008966

endloop
endfacet
facet normal 0.2753655612 -0.2201286852 0.9357976317
outer loop
vertex 35.62215424 -41.01581573 -1.361093044
vertex 34.42752838 -43.6236496 -1.623008966
vertex 41.21399689 -44.24843597 -3.766947985

endloop
endfacet
facet normal 0.2770241499 -0.2091027349 0.9378346205
outer loop
vertex 41.21399689 -44.24843597 -3.766947985
vertex 34.42752838 -43.6236496 -1.623008966
vertex 39.71956635 -46.47240448 -3.821376085

endloop
endfacet
facet normal 0.1648403257 -0.1346795708 0.9770818949
outer loop
vertex 41.21399689 -44.24843597 -3.766947985
vertex 39.71956635 -46.47240448 -3.821376085
vertex 45.93767548 -46.32653046 -4.850306034

endloop
endfacet
facet normal 0.1610981673 0.07449775934 0.9841226935
outer loop
vertex 45.93767548 -46.32653046 -4.850306034
vertex 39.71956635 -46.47240448 -3.821376085
vertex 44.83293915 -48.43991852 -4.509480953

endloop
endfacet
facet normal -0.2267635018 0.2694733739 0.9359286427
outer loop
vertex 45.93767548 -46.32653046 -4.850306034
vertex 44.83293915 -48.43991852 -4.509480953
vertex 51.11894989 -49.65003204 -2.638044119

endloop
endfacet
facet normal -0.1669636816 0.4716808498 0.8658176661
outer loop
vertex 51.11894989 -49.65003204 -2.638044119
vertex 44.83293915 -48.43991852 -4.509480953
vertex 50.59867096 -51.29593658 -1.841717005

endloop
endfacet
facet normal -0.7968477607 0.4480117857 0.4053629637
outer loop
vertex 51.11894989 -49.65003204 -2.638044119
vertex 50.59867096 -51.29593658 -1.841717005
vertex 54.21759796 -53.3242569 7.513960838

endloop
endfacet
facet normal 0.821903348 -0.4027870893 -0.4027870893
outer loop
vertex 54.21759796 -53.3242569 7.513960838
vertex 50.59867096 -51.29593658 -1.841717005
vertex 54.21761322 -53.32422638 7.513961792

endloop
endfacet
facet normal -0.1185904443 0.2930187583 -0.9487235546
outer loop
vertex 27.76441193 -32.21923065 25.93577576
vertex 27.76439667 -32.21923065 25.93577766
vertex 19.84552765 -28.70127106 28.01217842

endloop
endfacet
facet normal -0.4572027028 -0.8007949591 -0.3869020641
outer loop
vertex 19.84552765 -28.70127106 28.01217842
vertex 27.76439667 -32.21923065 25.93577766
vertex 19.66269684 -30.05704498 31.03435898

endloop
endfacet
facet normal 0.7504569888 -0.6187893748 -0.2321938872
outer loop
vertex 19.84552765 -28.70127106 28.01217842
vertex 19.66269684 -30.05704498 31.03435898
vertex 16.84947968 -31.52025604 25.84137535

endloop
endfacet
facet normal 0.8156198859 -0.4929310083 -0.3029575944
outer loop
vertex 16.84947968 -31.52025604 25.84137535
vertex 19.66269684 -30.05704498 31.03435898
vertex 16.30150604 -33.8095932 28.09102058

endloop
endfacet
facet normal 0.9150984287 -0.3719813824 -0.1556427777
outer loop
vertex 16.84947968 -31.52025604 25.84137535
vertex 16.30150604 -33.8095932 28.09102058
vertex 15.40885162 -33.39626312 21.8548317

endloop
endfacet
facet normal 0.9476002455 -0.2797873914 -0.15418455
outer loop
vertex 15.40885162 -33.39626312 21.8548317
vertex 16.30150604 -33.8095932 28.09102058
vertex 14.78290558 -36.3106308 23.2963295

endloop
endfacet
facet normal 0.9817379713 -0.1790134907 0.06438020617
outer loop
vertex 15.40886688 -33.39624786 21.8548336
vertex 14.78292084 -36.31061554 23.29633141
vertex 15.45282745 -35.10112762 16.44394302

endloop
endfacet
facet normal 0.991322875 -0.1056031287 0.07827461511
outer loop
vertex 15.45282745 -35.10112762 16.44394302
vertex 14.78292084 -36.31061554 23.29633141
vertex 15.00388336 -38.58020782 17.43592262

endloop
endfacet
facet normal 0.971437633 -0.05988607183 0.2296143472
outer loop
vertex 15.45282745 -35.10112762 16.44394302
vertex 15.00388336 -38.58020782 17.43592262
vertex 16.56673431 -36.88883209 11.26504326

endloop
endfacet
facet normal 0.9701420665 -0.0127656227 0.2422014475
outer loop
vertex 16.56673431 -36.88883209 11.26504326
vertex 15.00388336 -38.58020782 17.43592262
vertex 16.34050751 -40.49979401 11.98087692

endloop
endfacet
facet normal 0.8179424405 0.06213570014 0.5719347596
outer loop
vertex 16.56673431 -36.88883209 11.26504326
vertex 16.34050751 -40.49979401 11.98087692
vertex 19.03911591 -39.02518463 7.961306095

endloop
endfacet
facet normal 0.8303253651 -0.000475900888 0.5572787523
outer loop
vertex 19.03911591 -39.02518463 7.961306095
vertex 16.34050751 -40.49979401 11.98087692
vertex 18.86644745 -42.39702606 8.215696335

endloop
endfacet
facet normal 0.5942251682 0.0302082561 0.8037312031
outer loop
vertex 19.03911591 -39.02518463 7.961306095
vertex 18.86644745 -42.39702606 8.215696335
vertex 22.92519379 -40.89426422 5.158449173

endloop
endfacet
facet normal 0.6066175699 -0.02163662016 0.7946993113
outer loop
vertex 22.92519379 -40.89426422 5.158449173
vertex 18.86644745 -42.39702606 8.215696335
vertex 22.73386383 -43.71857452 5.227602005

endloop
endfacet
facet normal 0.5392565131 -0.01591533981 0.8419911265
outer loop
vertex 22.92519379 -40.89426422 5.158449173
vertex 22.73386383 -43.71857452 5.227602005
vertex 28.2483902 -42.15381622 1.72537899

endloop
endfacet
facet normal 0.5228013396 0.0606585294 0.8502936363
outer loop
vertex 28.2483902 -42.15381622 1.72537899
vertex 22.73386383 -43.71857452 5.227602005
vertex 27.95381927 -44.17931366 2.050991058

endloop
endfacet
facet normal 0.4879232049 0.06892478466 0.8701611161
outer loop
vertex 28.2483902 -42.15381622 1.72537899
vertex 27.95381927 -44.17931366 2.050991058
vertex 34.42752838 -43.6236496 -1.623008966

endloop
endfacet
facet normal 0.4567307532 0.2743000984 0.8462603092
outer loop
vertex 34.42752838 -43.6236496 -1.623008966
vertex 27.95381927 -44.17931366 2.050991058
vertex 33.85175323 -44.73653412 -0.95153898

endloop
endfacet
facet normal 0.4845743477 0.254290849 0.8369730115
outer loop
vertex 34.42752838 -43.6236496 -1.623008966
vertex 33.85175323 -44.73653412 -0.95153898
vertex 39.71956635 -46.47240448 -3.821376085

endloop
endfacet
facet normal 0.4717353284 0.6927223206 0.5455287099
outer loop
vertex 39.71956635 -46.47240448 -3.821376085
vertex 33.85175323 -44.73653412 -0.95153898
vertex 39.02272797 -46.88422394 -2.695863008

endloop
endfacet
facet normal 0.367646426 0.7765040994 0.5117396116
outer loop
vertex 39.71956635 -46.47240448 -3.821376085
vertex 39.02272797 -46.88422394 -2.695863008
vertex 44.83293915 -48.43991852 -4.509480953

endloop
endfacet
facet normal 0.3394956291 0.8796652555 0.3330640197
outer loop
vertex 44.83293915 -48.43991852 -4.509480953
vertex 39.02272797 -46.88422394 -2.695863008
vertex 44.73067474 -49.049263 -2.795883894

endloop
endfacet
facet normal 0.2886175513 0.896540463 0.3360284269
outer loop
vertex 44.83293915 -48.43991852 -4.509480953
vertex 44.73067474 -49.049263 -2.795883894
vertex 50.59867096 -51.29593658 -1.841717005

endloop
endfacet
facet normal 0.3055129945 0.9129088521 0.2706643045
outer loop
vertex 50.59867096 -51.29593658 -1.841717005
vertex 44.73067474 -49.049263 -2.795883894
vertex 50.95708466 -51.95610809 -0.01962099969

endloop
endfacet
facet normal -0.5629135966 0.7354317904 0.3771848381
outer loop
vertex 50.59867096 -51.29593658 -1.841717005
vertex 50.95708466 -51.95610809 -0.01962099969
vertex 54.21761322 -53.32422638 7.513961792

endloop
endfacet
facet normal -0.9175556302 0 0.3976074457
outer loop
vertex 54.21761322 -53.32422638 7.513961792
vertex 50.95708466 -51.95610809 -0.01962099969
vertex 54.21761322 -53.32424164 7.513961792

endloop
endfacet
facet normal 0.2578555048 0.966183424 -0
outer loop
vertex 27.76439667 -32.21923065 25.93577766
vertex 27.76439667 -32.21923065 25.93577385
vertex 19.66269684 -30.05704498 31.03435898

endloop
endfacet
facet normal -0.4899992347 -0.736546278 -0.4662620425
outer loop
vertex 19.66269684 -30.05704498 31.03435898
vertex 27.76439667 -32.21923065 25.93577385
vertex 21.227211 -32.837883 33.78303909

endloop
endfacet
facet normal 0.7582223415 -0.1899272501 -0.623719871
outer loop
vertex 19.66269684 -30.05704498 31.03435898
vertex 21.227211 -32.837883 33.78303909
vertex 16.30150604 -33.8095932 28.09102058

endloop
endfacet
facet normal 0.7606193423 -0.08766385168 -0.6432520747
outer loop
vertex 16.30150604 -33.8095932 28.09102058
vertex 21.227211 -32.837883 33.78303909
vertex 17.42337799 -37.21073151 29.88110352

endloop
endfacet
facet normal 0.9270960689 0.1186770573 -0.3555399776
outer loop
vertex 16.30150604 -33.8095932 28.09102058
vertex 17.42337799 -37.21073151 29.88110352
vertex 14.78290558 -36.3106308 23.2963295

endloop
endfacet
facet normal 0.928776741 0.08442890644 -0.3608954251
outer loop
vertex 14.78290558 -36.3106308 23.2963295
vertex 17.42337799 -37.21073151 29.88110352
vertex 15.57523346 -39.99536896 24.47339439

endloop
endfacet
facet normal 0.979414165 0.1979149431 -0.0397194773
outer loop
vertex 14.78292084 -36.31061554 23.29633141
vertex 15.57524872 -39.9953537 24.4733963
vertex 15.00388336 -38.58020782 17.43592262

endloop
endfacet
facet normal 0.9913727045 0.1181616262 -0.05672775209
outer loop
vertex 15.00388336 -38.58020782 17.43592262
vertex 15.57524872 -39.9953537 24.4733963
vertex 15.50888824 -42.28751373 18.53920555

endloop
endfacet
facet normal 0.9677913785 0.1832149625 0.1726615131
outer loop
vertex 15.00388336 -38.58020782 17.43592262
vertex 15.50888824 -42.28751373 18.53920555
vertex 16.34050751 -40.49979401 11.98087692

endloop
endfacet
facet normal 0.9535290599 0.2373436838 0.1856078058
outer loop
vertex 16.34050751 -40.49979401 11.98087692
vertex 15.50888824 -42.28751373 18.53920555
vertex 16.9540329 -43.85469818 13.11903477

endloop
endfacet
facet normal 0.8552485704 0.2998020649 0.4226922393
outer loop
vertex 16.34050751 -40.49979401 11.98087692
vertex 16.9540329 -43.85469818 13.11903477
vertex 18.86644745 -42.39702606 8.215696335

endloop
endfacet
facet normal 0.855483532 0.2992381454 0.422616154
outer loop
vertex 18.86644745 -42.39702606 8.215696335
vertex 16.9540329 -43.85469818 13.11903477
vertex 19.52410126 -44.96920013 8.705693245

endloop
endfacet
facet normal 0.6453118324 0.2989160419 0.703009069
outer loop
vertex 18.86644745 -42.39702606 8.215696335
vertex 19.52410126 -44.96920013 8.705693245
vertex 22.73386383 -43.71857452 5.227602005

endloop
endfacet
facet normal 0.6717386246 0.2322696447 0.7034329176
outer loop
vertex 22.73386383 -43.71857452 5.227602005
vertex 19.52410126 -44.96920013 8.705693245
vertex 23.25661469 -45.45000458 5.300113201

endloop
endfacet
facet normal 0.5224762559 0.1925316304 0.8306323886
outer loop
vertex 22.73386383 -43.71857452 5.227602005
vertex 23.25661469 -45.45000458 5.300113201
vertex 27.95381927 -44.17931366 2.050991058

endloop
endfacet
facet normal 0.4955118299 0.2750229239 0.8239116073
outer loop
vertex 27.95381927 -44.17931366 2.050991058
vertex 23.25661469 -45.45000458 5.300113201
vertex 28.05799103 -45.41370392 2.400382042

endloop
endfacet
facet normal 0.4565357566 0.2777687907 0.8452335
outer loop
vertex 27.95381927 -44.17931366 2.050991058
vertex 28.05799103 -45.41370392 2.400382042
vertex 33.85175323 -44.73653412 -0.95153898

endloop
endfacet
facet normal 0.3907811046 0.4957067668 0.7756061554
outer loop
vertex 33.85175323 -44.73653412 -0.95153898
vertex 28.05799103 -45.41370392 2.400382042
vertex 33.37610626 -45.65441132 -0.1252540052

endloop
endfacet
facet normal 0.4490229487 0.4579799473 0.7672240734
outer loop
vertex 33.85175323 -44.73653412 -0.95153898
vertex 33.37610626 -45.65441132 -0.1252540052
vertex 39.02272797 -46.88422394 -2.695863008

endloop
endfacet
facet normal 0.2725165188 0.951397121 0.1434514523
outer loop
vertex 39.02272797 -46.88422394 -2.695863008
vertex 33.37610626 -45.65441132 -0.1252540052
vertex 38.64717865 -47.01819611 -1.093899012

endloop
endfacet
facet normal 0.3525390327 0.922059536 0.1597577184
outer loop
vertex 39.02272797 -46.88422394 -2.695863008
vertex 38.64717865 -47.01819611 -1.093899012
vertex 44.73067474 -49.049263 -2.795883894

endloop
endfacet
facet normal 0.3390808403 0.9359390736 0.09509021789
outer loop
vertex 44.73067474 -49.049263 -2.795883894
vertex 38.64717865 -47.01819611 -1.093899012
vertex 44.6122818 -49.24993134 -0.3986009955

endloop
endfacet
facet normal 0.385666877 0.9176447988 0.09585956484
outer loop
vertex 44.73067474 -49.049263 -2.795883894
vertex 44.6122818 -49.24993134 -0.3986009955
vertex 50.95708466 -51.95610809 -0.01962099969

endloop
endfacet
facet normal 0.381257385 0.9136399627 0.1410842687
outer loop
vertex 50.95708466 -51.95610809 -0.01962099969
vertex 44.6122818 -49.24993134 -0.3986009955
vertex 50.96485138 -52.31543732 2.286351919

endloop
endfacet
facet normal 0.05921299011 0.9863725305 0.1535024792
outer loop
vertex 50.95708466 -51.95610809 -0.01962099969
vertex 50.96485138 -52.31543732 2.286351919
vertex 54.21761322 -53.32424164 7.513961792

endloop
endfacet
facet normal -0.01224892307 0.9799138308 0.1990450025
outer loop
vertex 54.21761322 -53.32424164 7.513961792
vertex 50.96485138 -52.31543732 2.286351919
vertex 54.21759796 -53.32424164 7.513960838

endloop
endfacet
facet normal -0.7522204518 -0.1598095298 -0.6392381191
outer loop
vertex 27.76439667 -32.21923065 25.93577385
vertex 27.76439667 -32.21924591 25.93577766
vertex 21.227211 -32.837883 33.78303909

endloop
endfacet
facet normal -0.57007128 -0.6321932673 -0.524738431
outer loop
vertex 21.227211 -32.837883 33.78303909
vertex 27.76439667 -32.21924591 25.93577766
vertex 24.30744171 -36.35836029 34.67809677

endloop
endfacet
facet normal 0.5304422379 0.2588770092 -0.807225883
outer loop
vertex 21.227211 -32.837883 33.78303909
vertex 24.30744171 -36.35836029 34.67809677
vertex 17.42337799 -37.21073151 29.88110352

endloop
endfacet
facet normal 0.548243165 0.1748393178 -0.8178390861
outer loop
vertex 17.42337799 -37.21073151 29.88110352
vertex 24.30744171 -36.35836029 34.67809677
vertex 20.05356598 -40.8401413 30.86836243

endloop
endfacet
facet normal 0.7669016719 0.4249463677 -0.4809184074
outer loop
vertex 17.42337799 -37.21073151 29.88110352
vertex 20.05356598 -40.8401413 30.86836243
vertex 15.57523346 -39.99536896 24.47339439

endloop
endfacet
facet normal 0.8002905846 0.2962854207 -0.5212964416
outer loop
vertex 15.57523346 -39.99536896 24.47339439
vertex 20.05356598 -40.8401413 30.86836243
vertex 17.71437836 -43.5114975 25.75895882

endloop
endfacet
facet normal 0.8681173921 0.4596782625 -0.1872647703
outer loop
vertex 15.57524872 -39.9953537 24.4733963
vertex 17.71439362 -43.51148224 25.75896072
vertex 15.50888824 -42.28751373 18.53920555

endloop
endfacet
facet normal 0.891354382 0.4049944282 -0.2036338598
outer loop
vertex 15.50888824 -42.28751373 18.53920555
vertex 17.71439362 -43.51148224 25.75896072
vertex 17.18470001 -45.15340424 20.17485046

endloop
endfacet
facet normal 0.8430165648 0.5332356095 0.07058859617
outer loop
vertex 15.50888824 -42.28751373 18.53920555
vertex 17.18470001 -45.15340424 20.17485046
vertex 16.9540329 -43.85469818 13.11903477

endloop
endfacet
facet normal 0.7402936816 0.6650711298 0.09821265936
outer loop
vertex 16.9540329 -43.85469818 13.11903477
vertex 17.18470001 -45.15340424 20.17485046
vertex 18.38648224 -45.74817657 15.14387035

endloop
endfacet
facet normal 0.6630968451 0.7201147079 0.2042975724
outer loop
vertex 16.9540329 -43.85469818 13.11903477
vertex 18.38648224 -45.74817657 15.14387035
vertex 19.52410126 -44.96920013 8.705693245

endloop
endfacet
facet normal 0.4327175915 0.8827062845 0.1832622886
outer loop
vertex 19.52410126 -44.96920013 8.705693245
vertex 18.38648224 -45.74817657 15.14387035
vertex 20.86429596 -46.01308441 10.56923771

endloop
endfacet
facet normal 0.3485316038 0.9020448327 0.2546384931
outer loop
vertex 19.52410126 -44.96920013 8.705693245
vertex 20.86429596 -46.01308441 10.56923771
vertex 23.25661469 -45.45000458 5.300113201

endloop
endfacet
facet normal 0.2061177492 0.9586901665 0.1960322857
outer loop
vertex 23.25661469 -45.45000458 5.300113201
vertex 20.86429596 -46.01308441 10.56923771
vertex 24.55796051 -46.04956818 6.863964081

endloop
endfacet
facet normal 0.142814517 0.9580546618 0.2484658808
outer loop
vertex 23.25661469 -45.45000458 5.300113201
vertex 24.55796051 -46.04956818 6.863964081
vertex 28.05799103 -45.41370392 2.400382042

endloop
endfacet
facet normal 0.1872124225 0.9413024783 0.2808932066
outer loop
vertex 28.05799103 -45.41370392 2.400382042
vertex 24.55796051 -46.04956818 6.863964081
vertex 29.02867889 -46.10222626 4.06073904

endloop
endfacet
facet normal 0.1784669459 0.9414439201 0.2860646546
outer loop
vertex 28.05799103 -45.41370392 2.400382042
vertex 29.02867889 -46.10222626 4.06073904
vertex 33.37610626 -45.65441132 -0.1252540052

endloop
endfacet
facet normal 0.3228133619 0.8453255296 0.4256951511
outer loop
vertex 33.37610626 -45.65441132 -0.1252540052
vertex 29.02867889 -46.10222626 4.06073904
vertex 33.56325531 -46.74214935 1.892806053

endloop
endfacet
facet normal 0.2994408309 0.8512035608 0.4310309589
outer loop
vertex 33.37610626 -45.65441132 -0.1252540052
vertex 33.56325531 -46.74214935 1.892806053
vertex 38.64717865 -47.01819611 -1.093899012

endloop
endfacet
facet normal 0.32496804 0.8161992431 0.4777182043
outer loop
vertex 38.64717865 -47.01819611 -1.093899012
vertex 33.56325531 -46.74214935 1.892806053
vertex 38.30437469 -48.10218048 0.9913210273

endloop
endfacet
facet normal 0.2581668198 0.8391752839 0.4786801934
outer loop
vertex 38.64717865 -47.01819611 -1.093899012
vertex 38.30437469 -48.10218048 0.9913210273
vertex 44.6122818 -49.24993134 -0.3986009955

endloop
endfacet
facet normal 0.2383351922 0.9147315025 0.3262861073
outer loop
vertex 44.6122818 -49.24993134 -0.3986009955
vertex 38.30437469 -48.10218048 0.9913210273
vertex 44.16466522 -49.95372772 1.901427984

endloop
endfacet
facet normal 0.2927401066 0.8969180584 0.3314231932
outer loop
vertex 44.6122818 -49.24993134 -0.3986009955
vertex 44.16466522 -49.95372772 1.901427984
vertex 50.96485138 -52.31543732 2.286351919

endloop
endfacet
facet normal 0.3208756447 0.9411785007 0.1059331819
outer loop
vertex 50.96485138 -52.31543732 2.286351919
vertex 44.16466522 -49.95372772 1.901427984
vertex 50.75615692 -52.47389984 4.326378822

endloop
endfacet
facet normal 0.1564884335 0.983348906 0.09239202738
outer loop
vertex 50.96485138 -52.31543732 2.286351919
vertex 50.75615692 -52.47389984 4.326378822
vertex 54.21759796 -53.32424164 7.513960838

endloop
endfacet
facet normal 0.2425356209 0.9701424837 0
outer loop
vertex 54.21759796 -53.32424164 7.513960838
vertex 50.75615692 -52.47389984 4.326378822
vertex 54.21759796 -53.32424164 7.513961792

endloop
endfacet
facet normal 0.7022567391 -0.7095372081 -0.05824378505
outer loop
vertex 27.76439667 -32.21924591 25.93577766
vertex 27.76441193 -32.21923065 25.93577576
vertex 24.30744171 -36.35836029 34.67809677

endloop
endfacet
facet normal -0.6310703158 -0.5743112564 -0.52145648
outer loop
vertex 24.30744171 -36.35836029 34.67809677
vertex 27.76441193 -32.21923065 25.93577576
vertex 27.85439301 -39.31908417 33.64637375

endloop
endfacet
facet normal 0.1940388232 0.5219108462 -0.830637157
outer loop
vertex 24.30744171 -36.35836029 34.67809677
vertex 27.85439301 -39.31908417 33.64637375
vertex 20.05356598 -40.8401413 30.86836243

endloop
endfacet
facet normal 0.2188981622 0.4544042647 -0.8634815216
outer loop
vertex 20.05356598 -40.8401413 30.86836243
vertex 27.85439301 -39.31908417 33.64637375
vertex 23.33863068 -42.54740143 30.80270767

endloop
endfacet
facet normal 0.3737570047 0.7406452298 -0.5583459735
outer loop
vertex 20.05356598 -40.8401413 30.86836243
vertex 23.33863068 -42.54740143 30.80270767
vertex 17.71437836 -43.5114975 25.75895882

endloop
endfacet
facet normal 0.3917793334 0.7188319564 -0.5742729902
outer loop
vertex 17.71437836 -43.5114975 25.75895882
vertex 23.33863068 -42.54740143 30.80270767
vertex 20.6558609 -44.32144928 26.75185394

endloop
endfacet
facet normal 0.3448841572 0.891166687 -0.2947486937
outer loop
vertex 17.71439362 -43.51148224 25.75896072
vertex 20.65587616 -44.32144928 26.75185776
vertex 17.18470001 -45.15340424 20.17485046

endloop
endfacet
facet normal 0.3027620316 0.9124656916 -0.2752119005
outer loop
vertex 17.18470001 -45.15340424 20.17485046
vertex 20.65587616 -44.32144928 26.75185776
vertex 19.86649323 -45.50894928 21.94629478

endloop
endfacet
facet normal 0.1785358489 0.9811955094 -0.07335087657
outer loop
vertex 17.18470001 -45.15340424 20.17485046
vertex 19.86649323 -45.50894928 21.94629478
vertex 18.38648224 -45.74817657 15.14387035

endloop
endfacet
facet normal 0.007029285654 0.9993025661 -0.03667278588
outer loop
vertex 18.38648224 -45.74817657 15.14387035
vertex 19.86649323 -45.50894928 21.94629478
vertex 20.77307892 -45.6813736 17.42164803

endloop
endfacet
facet normal 0.01795763895 0.9986807704 -0.04810500145
outer loop
vertex 18.38648224 -45.74817657 15.14387035
vertex 20.77307892 -45.6813736 17.42164803
vertex 20.86429596 -46.01308441 10.56923771

endloop
endfacet
facet normal -0.209784314 0.9764652848 -0.05006121844
outer loop
vertex 20.86429596 -46.01308441 10.56923771
vertex 20.77307892 -45.6813736 17.42164803
vertex 23.09290314 -45.40088654 13.17131519

endloop
endfacet
facet normal -0.119732976 0.9843830466 -0.1290505081
outer loop
vertex 20.86429596 -46.01308441 10.56923771
vertex 23.09290314 -45.40088654 13.17131519
vertex 24.55796051 -46.04956818 6.863964081

endloop
endfacet
facet normal -0.2628054321 0.9516712427 -0.1589188129
outer loop
vertex 24.55796051 -46.04956818 6.863964081
vertex 23.09290314 -45.40088654 13.17131519
vertex 26.82642365 -44.97785187 9.530465126

endloop
endfacet
facet normal -0.149597168 0.9548911452 -0.2565222383
outer loop
vertex 24.55796051 -46.04956818 6.863964081
vertex 26.82642365 -44.97785187 9.530465126
vertex 29.02867889 -46.10222626 4.06073904

endloop
endfacet
facet normal -0.1767136455 0.9476507902 -0.2659516633
outer loop
vertex 29.02867889 -46.10222626 4.06073904
vertex 26.82642365 -44.97785187 9.530465126
vertex 31.26522064 -44.92328644 6.775502205

endloop
endfacet
facet normal -0.04432890564 0.9291682243 -0.3669896424
outer loop
vertex 29.02867889 -46.10222626 4.06073904
vertex 31.26522064 -44.92328644 6.775502205
vertex 33.56325531 -46.74214935 1.892806053

endloop
endfacet
facet normal 0.075703457 0.945535481 -0.3165936172
outer loop
vertex 33.56325531 -46.74214935 1.892806053
vertex 31.26522064 -44.92328644 6.775502205
vertex 35.43482208 -45.87213898 4.938697815

endloop
endfacet
facet normal 0.1889480501 0.9074420929 -0.3752966225
outer loop
vertex 33.56325531 -46.74214935 1.892806053
vertex 35.43482208 -45.87213898 4.938697815
vertex 38.30437469 -48.10218048 0.9913210273

endloop
endfacet
facet normal 0.3441213369 0.9023234248 -0.2596013844
outer loop
vertex 38.30437469 -48.10218048 0.9913210273
vertex 35.43482208 -45.87213898 4.938697815
vertex 39.70767975 -47.71309662 4.203887939

endloop
endfacet
facet normal 0.3269800544 0.9105064273 -0.2531048357
outer loop
vertex 38.30437469 -48.10218048 0.9913210273
vertex 39.70767975 -47.71309662 4.203887939
vertex 44.16466522 -49.95372772 1.901427984

endloop
endfacet
facet normal 0.3784240484 0.912486136 -0.1554487199
outer loop
vertex 44.16466522 -49.95372772 1.901427984
vertex 39.70767975 -47.71309662 4.203887939
vertex 44.84667206 -49.74956512 4.76014185

endloop
endfacet
facet normal 0.4034832716 0.9007839561 -0.1605913639
outer loop
vertex 44.16466522 -49.95372772 1.901427984
vertex 44.84667206 -49.74956512 4.76014185
vertex 50.75615692 -52.47389984 4.326378822

endloop
endfacet
facet normal 0.4072873294 0.904078424 -0.1294576824
outer loop
vertex 50.75615692 -52.47389984 4.326378822
vertex 44.84667206 -49.74956512 4.76014185
vertex 50.84104156 -52.24530792 6.189826012

endloop
endfacet
facet normal 0.3476097286 0.9286186099 -0.1297495514
outer loop
vertex 50.75615692 -52.47389984 4.326378822
vertex 50.84104156 -52.24530792 6.189826012
vertex 54.21759796 -53.32424164 7.513961792

endloop
endfacet
facet normal -nan(ind) -nan(ind) -nan(ind)
outer loop
vertex 54.21759796 -53.32424164 7.513961792
vertex 50.84104156 -52.24530792 6.189826012
vertex 54.21759796 -53.32424164 7.513961792

endloop
endfacet
facet normal 0.08430348337 0.7335119843 0.6744278669
outer loop
vertex 27.76441193 -32.21923065 25.93577576
vertex 27.76439667 -32.21923065 25.93577766
vertex 27.85439301 -39.31908417 33.64637375

endloop
endfacet
facet normal -0.662818253 -0.5546723604 -0.5030014515
outer loop
vertex 27.85439301 -39.31908417 33.64637375
vertex 27.76439667 -32.21923065 25.93577766
vertex 31.02362823 -40.94400787 31.26203346

endloop
endfacet
facet normal -0.1155172288 0.7426403761 -0.6596521735
outer loop
vertex 27.85439301 -39.31908417 33.64637375
vertex 31.02362823 -40.94400787 31.26203346
vertex 23.33863068 -42.54740143 30.80270767

endloop
endfacet
facet normal -0.1776451319 0.9373233914 -0.2997782528
outer loop
vertex 23.33863068 -42.54740143 30.80270767
vertex 31.02362823 -40.94400787 31.26203346
vertex 26.62207794 -42.3531723 29.46427536

endloop
endfacet
facet normal -0.1757744104 0.9392172694 -0.294914186
outer loop
vertex 23.33863068 -42.54740143 30.80270767
vertex 26.62207794 -42.3531723 29.46427536
vertex 20.6558609 -44.32144928 26.75185394

endloop
endfacet
facet normal -0.3786754012 0.909183085 0.1731794029
outer loop
vertex 20.6558609 -44.32144928 26.75185394
vertex 26.62207794 -42.3531723 29.46427536
vertex 23.90233612 -42.95246124 26.66350365

endloop
endfacet
facet normal -0.3872136772 0.9078705311 -0.1607379466
outer loop
vertex 20.65587616 -44.32144928 26.75185776
vertex 23.90235138 -42.95244598 26.66350365
vertex 19.86649323 -45.50894928 21.94629478

endloop
endfacet
facet normal -0.3957252502 0.9056595564 -0.1522575468
outer loop
vertex 19.86649323 -45.50894928 21.94629478
vertex 23.90235138 -42.95244598 26.66350365
vertex 23.07781219 -43.93227386 22.97830391

endloop
endfacet
facet normal -0.4074116349 0.9058282971 -0.1161505952
outer loop
vertex 19.86649323 -45.50894928 21.94629478
vertex 23.07781219 -43.93227386 22.97830391
vertex 20.77307892 -45.6813736 17.42164803

endloop
endfacet
facet normal -0.268758595 0.9450755119 -0.1860137582
outer loop
vertex 20.77307892 -45.6813736 17.42164803
vertex 23.07781219 -43.93227386 22.97830391
vertex 23.83507538 -44.47519684 19.12577057

endloop
endfacet
facet normal -0.3118127286 0.9439980388 -0.1078907177
outer loop
vertex 20.77307892 -45.6813736 17.42164803
vertex 23.83507538 -44.47519684 19.12577057
vertex 23.09290314 -45.40088654 13.17131519

endloop
endfacet
facet normal -0.3851800859 0.9179697037 -0.09469970316
outer loop
vertex 23.09290314 -45.40088654 13.17131519
vertex 23.83507538 -44.47519684 19.12577057
vertex 25.89539337 -44.01720428 15.18520737

endloop
endfacet
facet normal -0.3084451556 0.9281203747 -0.2084565908
outer loop
vertex 23.09290314 -45.40088654 13.17131519
vertex 25.89539337 -44.01720428 15.18520737
vertex 26.82642365 -44.97785187 9.530465126

endloop
endfacet
facet normal -0.4259901047 0.877758503 -0.2192542702
outer loop
vertex 26.82642365 -44.97785187 9.530465126
vertex 25.89539337 -44.01720428 15.18520737
vertex 29.44068146 -43.16381073 11.71351147

endloop
endfacet
facet normal -0.2645480633 0.8733733892 -0.4089416564
outer loop
vertex 26.82642365 -44.97785187 9.530465126
vertex 29.44068146 -43.16381073 11.71351147
vertex 31.26522064 -44.92328644 6.775502205

endloop
endfacet
facet normal -0.2946486771 0.8605502248 -0.4154944122
outer loop
vertex 31.26522064 -44.92328644 6.775502205
vertex 29.44068146 -43.16381073 11.71351147
vertex 33.79676056 -42.89711761 9.176750183

endloop
endfacet
facet normal -0.07887724787 0.8013282418 -0.5930022001
outer loop
vertex 31.26522064 -44.92328644 6.775502205
vertex 33.79676056 -42.89711761 9.176750183
vertex 35.43482208 -45.87213898 4.938697815

endloop
endfacet
facet normal -0.01858337969 0.8149372935 -0.5792511106
outer loop
vertex 35.43482208 -45.87213898 4.938697815
vertex 33.79676056 -42.89711761 9.176750183
vertex 37.91658783 -43.81760406 7.749564171

endloop
endfacet
facet normal 0.1872795671 0.7069143653 -0.6820545793
outer loop
vertex 35.43482208 -45.87213898 4.938697815
vertex 37.91658783 -43.81760406 7.749564171
vertex 39.70767975 -47.71309662 4.203887939

endloop
endfacet
facet normal 0.317841053 0.7139809728 -0.6238654852
outer loop
vertex 39.70767975 -47.71309662 4.203887939
vertex 37.91658783 -43.81760406 7.749564171
vertex 42.16417694 -45.86676788 7.568426132

endloop
endfacet
facet normal 0.343652755 0.6945587397 -0.6320528388
outer loop
vertex 39.70767975 -47.71309662 4.203887939
vertex 42.16417694 -45.86676788 7.568426132
vertex 44.84667206 -49.74956512 4.76014185

endloop
endfacet
facet normal 0.4516138434 0.7062947154 -0.5451538563
outer loop
vertex 44.84667206 -49.74956512 4.76014185
vertex 42.16417694 -45.86676788 7.568426132
vertex 46.45497894 -48.49417877 7.718951225

endloop
endfacet
facet normal 0.4299954474 0.723128438 -0.5405451655
outer loop
vertex 44.84667206 -49.74956512 4.76014185
vertex 46.45497894 -48.49417877 7.718951225
vertex 50.84104156 -52.24530792 6.189826012

endloop
endfacet
facet normal 0.5272081494 0.7662096024 -0.3673885763
outer loop
vertex 50.84104156 -52.24530792 6.189826012
vertex 46.45497894 -48.49417877 7.718951225
vertex 51.25237274 -51.70272064 7.911688805

endloop
endfacet
facet normal 0.4094825983 0.8375362158 -0.3617416322
outer loop
vertex 50.84104156 -52.24530792 6.189826012
vertex 51.25237274 -51.70272064 7.911688805
vertex 54.21759796 -53.32424164 7.513961792

endloop
endfacet
facet normal -0.08525161445 0.08609569073 -0.9926326871
outer loop
vertex 54.21759796 -53.32424164 7.513961792
vertex 51.25237274 -51.70272064 7.911688805
vertex 54.21761322 -53.32422638 7.513961792

endloop
endfacet
facet normal 0.8529754877 0 -0.5219510198
outer loop
vertex 27.76439667 -32.21923065 25.93577766
vertex 27.76439667 -32.21921539 25.93577766
vertex 31.02362823 -40.94400787 31.26203346

endloop
endfacet
facet normal -0.7083145976 -0.541238308 -0.4531572163
outer loop
vertex 31.02362823 -40.94400787 31.26203346
vertex 27.76439667 -32.21921539 25.93577766
vertex 33.52490997 -41.48645782 28.00025177

endloop
endfacet
facet normal -0.1802666634 0.9385511875 -0.2943221927
outer loop
vertex 31.02362823 -40.94400787 31.26203346
vertex 33.52490997 -41.48645782 28.00025177
vertex 26.62207794 -42.3531723 29.46427536

endloop
endfacet
facet normal -0.1396454871 0.9874438643 -0.07384951413
outer loop
vertex 26.62207794 -42.3531723 29.46427536
vertex 33.52490997 -41.48645782 28.00025177
vertex 29.70392609 -42.11174774 26.86475945

endloop
endfacet
facet normal -0.1404673904 0.987252593 -0.07484169304
outer loop
vertex 26.62207794 -42.3531723 29.46427536
vertex 29.70392609 -42.11174774 26.86475945
vertex 23.90233612 -42.95246124 26.66350365

endloop
endfacet
facet normal -0.1468579024 0.9780506492 0.1478169113
outer loop
vertex 23.90233612 -42.95246124 26.66350365
vertex 29.70392609 -42.11174774 26.86475945
vertex 27.2301712 -42.21035004 25.05946922

endloop
endfacet
facet normal -0.2970716655 0.9372096658 -0.1827192158
outer loop
vertex 23.90235138 -42.95244598 26.66350365
vertex 27.2301712 -42.21033478 25.05947304
vertex 23.07781219 -43.93227386 22.97830391

endloop
endfacet
facet normal -0.3575356007 0.9321054816 -0.05785816908
outer loop
vertex 23.07781219 -43.93227386 22.97830391
vertex 27.2301712 -42.21033478 25.05947304
vertex 26.46121979 -42.65778351 22.60274315

endloop
endfacet
facet normal -0.3647464514 0.9094054103 -0.1998545229
outer loop
vertex 23.07781219 -43.93227386 22.97830391
vertex 26.46121979 -42.65778351 22.60274315
vertex 23.83507538 -44.47519684 19.12577057

endloop
endfacet
facet normal -0.2990562618 0.9195899367 -0.2547935247
outer loop
vertex 23.83507538 -44.47519684 19.12577057
vertex 26.46121979 -42.65778351 22.60274315
vertex 27.03014374 -43.27567291 19.70492554

endloop
endfacet
facet normal -0.3397250772 0.9380194545 -0.06860332936
outer loop
vertex 23.83507538 -44.47519684 19.12577057
vertex 27.03014374 -43.27567291 19.70492554
vertex 25.89539337 -44.01720428 15.18520737

endloop
endfacet
facet normal -0.3727611005 0.9260908365 -0.05835201219
outer loop
vertex 25.89539337 -44.01720428 15.18520737
vertex 27.03014374 -43.27567291 19.70492554
vertex 28.63254547 -42.86638641 15.96424007

endloop
endfacet
facet normal -0.3520948589 0.926641345 -0.1317765266
outer loop
vertex 25.89539337 -44.01720428 15.18520737
vertex 28.63254547 -42.86638641 15.96424007
vertex 29.44068146 -43.16381073 11.71351147

endloop
endfacet
facet normal -0.3364047408 0.9328090549 -0.1292251199
outer loop
vertex 29.44068146 -43.16381073 11.71351147
vertex 28.63254547 -42.86638641 15.96424007
vertex 31.63451385 -42.24188995 12.65729332

endloop
endfacet
facet normal -0.2446445376 0.9138700962 -0.3240226507
outer loop
vertex 29.44068146 -43.16381073 11.71351147
vertex 31.63451385 -42.24188995 12.65729332
vertex 33.79676056 -42.89711761 9.176750183

endloop
endfacet
facet normal -0.1146751121 0.9608747363 -0.2521294951
outer loop
vertex 33.79676056 -42.89711761 9.176750183
vertex 31.63451385 -42.24188995 12.65729332
vertex 35.5056839 -42.31615448 10.61355877

endloop
endfacet
facet normal 0.05325685069 0.9021507502 -0.4281211495
outer loop
vertex 33.79676056 -42.89711761 9.176750183
vertex 35.5056839 -42.31615448 10.61355877
vertex 37.91658783 -43.81760406 7.749564171

endloop
endfacet
facet normal 0.1010900512 0.9135965109 -0.3938557506
outer loop
vertex 37.91658783 -43.81760406 7.749564171
vertex 35.5056839 -42.31615448 10.61355877
vertex 39.25946808 -43.1707077 9.59479332

endloop
endfacet
facet normal 0.3509914875 0.7741186023 -0.5268256664
outer loop
vertex 37.91658783 -43.81760406 7.749564171
vertex 39.25946808 -43.1707077 9.59479332
vertex 42.16417694 -45.86676788 7.568426132

endloop
endfacet
facet normal 0.338848114 0.770681262 -0.5396594405
outer loop
vertex 42.16417694 -45.86676788 7.568426132
vertex 39.25946808 -43.1707077 9.59479332
vertex 43.34755707 -44.97089386 9.590848923

endloop
endfacet
facet normal 0.4444615841 0.6933511496 -0.5672020316
outer loop
vertex 42.16417694 -45.86676788 7.568426132
vertex 43.34755707 -44.97089386 9.590848923
vertex 46.45497894 -48.49417877 7.718951225

endloop
endfacet
facet normal 0.4375292361 0.6913622022 -0.5749663711
outer loop
vertex 46.45497894 -48.49417877 7.718951225
vertex 43.34755707 -44.97089386 9.590848923
vertex 47.35509491 -47.55796051 9.529653549

endloop
endfacet
facet normal 0.4694554806 0.6671863794 -0.5783371925
outer loop
vertex 46.45497894 -48.49417877 7.718951225
vertex 47.35509491 -47.55796051 9.529653549
vertex 51.25237274 -51.70272064 7.911688805

endloop
endfacet
facet normal 0.5531978011 0.697794795 -0.455032438
outer loop
vertex 51.25237274 -51.70272064 7.911688805
vertex 47.35509491 -47.55796051 9.529653549
vertex 51.63748932 -51.10355377 9.298713684

endloop
endfacet
facet normal 0.3799464703 0.8060937524 -0.4537109137
outer loop
vertex 51.25237274 -51.70272064 7.911688805
vertex 51.63748932 -51.10355377 9.298713684
vertex 54.21761322 -53.32422638 7.513961792

endloop
endfacet
facet normal 0.3279221356 -0.3279221356 0.8859651089
outer loop
vertex 54.21761322 -53.32422638 7.513961792
vertex 51.63748932 -51.10355377 9.298713684
vertex 54.21759796 -53.32424164 7.513961792

endloop
endfacet
facet normal -0.4853769243 -0.1084441841 0.8675534725
outer loop
vertex 27.76439667 -32.21921539 25.93577766
vertex 27.76439667 -32.21923065 25.93577576
vertex 33.52490997 -41.48645782 28.00025177

endloop
endfacet
facet normal -0.759327352 -0.5496039391 -0.3483638763
outer loop
vertex 33.52490997 -41.48645782 28.00025177
vertex 27.76439667 -32.21923065 25.93577576
vertex 35.27742767 -41.6727066 24.47413635

endloop
endfacet
facet normal -0.1270014346 0.9851949215 -0.115158923
outer loop
vertex 33.52490997 -41.48645782 28.00025177
vertex 35.27742767 -41.6727066 24.47413635
vertex 29.70392609 -42.11174774 26.86475945

endloop
endfacet
facet normal -0.09256523103 0.9951581359 -0.03304456547
outer loop
vertex 29.70392609 -42.11174774 26.86475945
vertex 35.27742767 -41.6727066 24.47413635
vertex 32.53083038 -41.95890045 23.54906082

endloop
endfacet
facet normal -0.04526171461 0.9989473224 0.007460230496
outer loop
vertex 29.70392609 -42.11174774 26.86475945
vertex 32.53083038 -41.95890045 23.54906082
vertex 27.2301712 -42.21035004 25.05946922

endloop
endfacet
facet normal -0.02655749954 0.9969946146 0.07277608663
outer loop
vertex 27.2301712 -42.21035004 25.05946922
vertex 32.53083038 -41.95890045 23.54906082
vertex 30.64957428 -41.91934967 22.32072639

endloop
endfacet
facet normal -0.1802633256 0.9761032462 -0.1213574037
outer loop
vertex 27.2301712 -42.21033478 25.05947304
vertex 30.6496048 -41.91934967 22.3207283
vertex 26.46121979 -42.65778351 22.60274315

endloop
endfacet
facet normal -0.1748350859 0.9844148755 -0.01897549629
outer loop
vertex 26.46121979 -42.65778351 22.60274315
vertex 30.6496048 -41.91934967 22.3207283
vertex 30.09836578 -42.04405975 20.92995834

endloop
endfacet
facet normal -0.2723852694 0.9287358522 -0.2515074015
outer loop
vertex 26.46121979 -42.65778351 22.60274315
vertex 30.09836578 -42.04405975 20.92995834
vertex 27.03014374 -43.27567291 19.70492554

endloop
endfacet
facet normal -0.3198508322 0.9369370341 -0.1408702284
outer loop
vertex 27.03014374 -43.27567291 19.70492554
vertex 30.09836578 -42.04405975 20.92995834
vertex 30.37175751 -42.25455475 18.90919685

endloop
endfacet
facet normal -0.2971306145 0.9545636773 -0.02283875272
outer loop
vertex 27.03014374 -43.27567291 19.70492554
vertex 30.37175751 -42.25455475 18.90919685
vertex 28.63254547 -42.86638641 15.96424007

endloop
endfacet
facet normal -0.2828594744 0.9586237669 -0.03211039677
outer loop
vertex 28.63254547 -42.86638641 15.96424007
vertex 30.37175751 -42.25455475 18.90919685
vertex 31.44045258 -42.04445648 15.76736927

endloop
endfacet
facet normal -0.2851271629 0.9552751184 -0.07843391597
outer loop
vertex 28.63254547 -42.86638641 15.96424007
vertex 31.44045258 -42.04445648 15.76736927
vertex 31.63451385 -42.24188995 12.65729332

endloop
endfacet
facet normal -0.1566073596 0.985010922 -0.07230226696
outer loop
vertex 31.63451385 -42.24188995 12.65729332
vertex 31.44045258 -42.04445648 15.76736927
vertex 33.82753754 -41.86483002 13.04406548

endloop
endfacet
facet normal -0.1188975647 0.9582518339 -0.2600322068
outer loop
vertex 31.63451385 -42.24188995 12.65729332
vertex 33.82753754 -41.86483002 13.04406548
vertex 35.5056839 -42.31615448 10.61355877

endloop
endfacet
facet normal -0.02795916982 0.9791660309 -0.201127246
outer loop
vertex 35.5056839 -42.31615448 10.61355877
vertex 33.82753754 -41.86483002 13.04406548
vertex 37.10764313 -42.06850433 11.59652424

endloop
endfacet
facet normal 0.1008621156 0.9133488536 -0.3944878578
outer loop
vertex 35.5056839 -42.31615448 10.61355877
vertex 37.10764313 -42.06850433 11.59652424
vertex 39.25946808 -43.1707077 9.59479332

endloop
endfacet
facet normal 0.08954946697 0.9100061059 -0.4048081636
outer loop
vertex 39.25946808 -43.1707077 9.59479332
vertex 37.10764313 -42.06850433 11.59652424
vertex 40.40532684 -42.66944122 10.97511768

endloop
endfacet
facet normal 0.3348921239 0.7617303133 -0.5546297431
outer loop
vertex 39.25946808 -43.1707077 9.59479332
vertex 40.40532684 -42.66944122 10.97511768
vertex 43.34755707 -44.97089386 9.590848923

endloop
endfacet
facet normal 0.3215062916 0.7548678517 -0.5716714859
outer loop
vertex 43.34755707 -44.97089386 9.590848923
vertex 40.40532684 -42.66944122 10.97511768
vertex 44.18225861 -44.13289642 11.16682243

endloop
endfacet
facet normal 0.4311481118 0.6818548441 -0.5909188986
outer loop
vertex 43.34755707 -44.97089386 9.590848923
vertex 44.18225861 -44.13289642 11.16682243
vertex 47.35509491 -47.55796051 9.529653549

endloop
endfacet
facet normal 0.4448845983 0.6868446469 -0.5747365355
outer loop
vertex 47.35509491 -47.55796051 9.529653549
vertex 44.18225861 -44.13289642 11.16682243
vertex 47.89376068 -46.63301849 11.05197811

endloop
endfacet
facet normal 0.5047541261 0.6468791366 -0.5716385245
outer loop
vertex 47.35509491 -47.55796051 9.529653549
vertex 47.89376068 -46.63301849 11.05197811
vertex 51.63748932 -51.10355377 9.298713684

endloop
endfacet
facet normal 0.6149994135 0.6749238372 -0.4077420533
outer loop
vertex 51.63748932 -51.10355377 9.298713684
vertex 47.89376068 -46.63301849 11.05197811
vertex 51.8892746 -50.42578888 10.80036736

endloop
endfacet
facet normal 0.3978002667 0.8093930483 -0.4320160449
outer loop
vertex 51.63748932 -51.10355377 9.298713684
vertex 51.8892746 -50.42578888 10.80036736
vertex 54.21759796 -53.32424164 7.513961792

endloop
endfacet
facet normal -0.7071067691 -0.7071067691 0
outer loop
vertex 54.21759796 -53.32424164 7.513961792
vertex 51.8892746 -50.42578888 10.80036736
vertex 54.21759796 -53.32424164 7.513960838

endloop
endfacet
facet normal 0.1202746928 0.2443559766 -0.9621975422
outer loop
vertex 27.76439667 -32.21923065 25.93577576
vertex 27.76441193 -32.21923065 25.93577766
vertex 35.27742767 -41.6727066 24.47413635

endloop
endfacet
facet normal -0.7768412828 -0.5791727901 -0.2471364737
outer loop
vertex 35.27742767 -41.6727066 24.47413635
vertex 27.76441193 -32.21923065 25.93577766
vertex 36.3262558 -41.4774704 20.71973991

endloop
endfacet
facet normal -0.1105408594 0.9936541319 0.02079132572
outer loop
vertex 35.27742767 -41.6727066 24.47413635
vertex 36.3262558 -41.4774704 20.71973991
vertex 32.53083038 -41.95890045 23.54906082

endloop
endfacet
facet normal -0.1541694254 0.9872815609 -0.03881905973
outer loop
vertex 32.53083038 -41.95890045 23.54906082
vertex 36.3262558 -41.4774704 20.71973991
vertex 35.18080902 -41.67079926 20.35195351

endloop
endfacet
facet normal -0.02446879819 0.9972758293 0.06958619505
outer loop
vertex 32.53083038 -41.95890045 23.54906082
vertex 35.18080902 -41.67079926 20.35195351
vertex 30.64957428 -41.91934967 22.32072639

endloop
endfacet
facet normal -0.007480176166 0.9940918088 0.1082844511
outer loop
vertex 30.64957428 -41.91934967 22.32072639
vertex 35.18080902 -41.67079926 20.35195351
vertex 34.40935516 -41.63855743 20.00267029

endloop
endfacet
facet normal -0.1037640199 0.9934452176 -0.04795462266
outer loop
vertex 30.6496048 -41.91934967 22.3207283
vertex 34.40937042 -41.63854218 20.0026722
vertex 30.09836578 -42.04405975 20.92995834

endloop
endfacet
facet normal -0.08423336595 0.9954857826 0.0437368378
outer loop
vertex 30.09836578 -42.04405975 20.92995834
vertex 34.40937042 -41.63854218 20.0026722
vertex 34.22516632 -41.64189911 19.72431755

endloop
endfacet
facet normal -0.1310234517 0.98406142 -0.1202322692
outer loop
vertex 30.09836578 -42.04405975 20.92995834
vertex 34.22516632 -41.64189911 19.72431755
vertex 30.37175751 -42.25455475 18.90919685

endloop
endfacet
facet normal -0.170247376 0.9831991196 0.06584326923
outer loop
vertex 30.37175751 -42.25455475 18.90919685
vertex 34.22516632 -41.64189911 19.72431755
vertex 34.21863556 -41.57633209 18.72835732

endloop
endfacet
facet normal -0.1733078212 0.9848434925 0.006907023955
outer loop
vertex 30.37175751 -42.25455475 18.90919685
vertex 34.21863556 -41.57633209 18.72835732
vertex 31.44045258 -42.04445648 15.76736927

endloop
endfacet
facet normal -0.2573850453 0.9621664882 0.08937865496
outer loop
vertex 31.44045258 -42.04445648 15.76736927
vertex 34.21863556 -41.57633209 18.72835732
vertex 34.24874115 -41.29447174 15.7808094

endloop
endfacet
facet normal -0.2539927661 0.953928113 -0.1597146541
outer loop
vertex 31.44045258 -42.04445648 15.76736927
vertex 34.24874115 -41.29447174 15.7808094
vertex 33.82753754 -41.86483002 13.04406548

endloop
endfacet
facet normal -0.2528057694 0.9542031884 -0.159954682
outer loop
vertex 33.82753754 -41.86483002 13.04406548
vertex 34.24874115 -41.29447174 15.7808094
vertex 35.75469208 -41.32662201 13.2088871

endloop
endfacet
facet normal -0.1846372187 0.8247948289 -0.5344366431
outer loop
vertex 33.82753754 -41.86483002 13.04406548
vertex 35.75469208 -41.32662201 13.2088871
vertex 37.10764313 -42.06850433 11.59652424

endloop
endfacet
facet normal -0.0105609782 0.9050034881 -0.4252730608
outer loop
vertex 37.10764313 -42.06850433 11.59652424
vertex 35.75469208 -41.32662201 13.2088871
vertex 38.65697479 -41.80290985 12.1232481

endloop
endfacet
facet normal 0.04658036307 0.8301417828 -0.5556032658
outer loop
vertex 37.10764313 -42.06850433 11.59652424
vertex 38.65697479 -41.80290985 12.1232481
vertex 40.40532684 -42.66944122 10.97511768

endloop
endfacet
facet normal 0.09479740262 0.8586599827 -0.5037028193
outer loop
vertex 40.40532684 -42.66944122 10.97511768
vertex 38.65697479 -41.80290985 12.1232481
vertex 41.58112335 -42.41078949 11.63732624

endloop
endfacet
facet normal 0.2773175836 0.6195113659 -0.7343708873
outer loop
vertex 40.40532684 -42.66944122 10.97511768
vertex 41.58112335 -42.41078949 11.63732624
vertex 44.18225861 -44.13289642 11.16682243

endloop
endfacet
facet normal 0.3620117009 0.7113803029 -0.6023998857
outer loop
vertex 44.18225861 -44.13289642 11.16682243
vertex 41.58112335 -42.41078949 11.63732624
vertex 44.97289276 -43.49829865 12.39135647

endloop
endfacet
facet normal 0.4261299968 0.660975337 -0.6176769733
outer loop
vertex 44.18225861 -44.13289642 11.16682243
vertex 44.97289276 -43.49829865 12.39135647
vertex 47.89376068 -46.63301849 11.05197811

endloop
endfacet
facet normal 0.5528326035 0.7049585581 -0.4443079233
outer loop
vertex 47.89376068 -46.63301849 11.05197811
vertex 44.97289276 -43.49829865 12.39135647
vertex 48.33693695 -45.76891327 12.97443008

endloop
endfacet
facet normal 0.6041094065 0.6654846072 -0.4383858442
outer loop
vertex 47.89376068 -46.63301849 11.05197811
vertex 48.33693695 -45.76891327 12.97443008
vertex 51.8892746 -50.42578888 10.80036736

endloop
endfacet
facet normal 0.677752316 0.6642273664 -0.3153630793
outer loop
vertex 51.8892746 -50.42578888 10.80036736
vertex 48.33693695 -45.76891327 12.97443008
vertex 52.15244293 -49.65007782 12.99977398

endloop
endfacet
facet normal 0.5064250231 0.7923942208 -0.3400662839
outer loop
vertex 51.8892746 -50.42578888 10.80036736
vertex 52.15244293 -49.65007782 12.99977398
vertex 54.21759796 -53.32424164 7.513960838

endloop
endfacet
facet normal 0.03723831475 0.8378620744 -0.5446103811
outer loop
vertex 54.21759796 -53.32424164 7.513960838
vertex 52.15244293 -49.65007782 12.99977398
vertex 54.21761322 -53.32424164 7.513961792

endloop
endfacet
facet normal -0.5941348076 -0.09976925701 -0.7981540561
outer loop
vertex 27.76441193 -32.21923065 25.93577766
vertex 27.76441193 -32.21921539 25.93577576
vertex 36.3262558 -41.4774704 20.71973991

endloop
endfacet
facet normal -0.773393333 -0.6000829339 -0.2043604851
outer loop
vertex 36.3262558 -41.4774704 20.71973991
vertex 27.76441193 -32.21921539 25.93577576
vertex 36.48822784 -40.41405487 16.98415565

endloop
endfacet
facet normal -0.2402676493 0.9363079071 0.2561226785
outer loop
vertex 36.3262558 -41.4774704 20.71973991
vertex 36.48822784 -40.41405487 16.98415565
vertex 35.18080902 -41.67079926 20.35195351

endloop
endfacet
facet normal 0.54569906 -0.8321503401 -0.09868261218
outer loop
vertex 35.18080902 -41.67079926 20.35195351
vertex 36.48822784 -40.41405487 16.98415565
vertex 36.59925079 -40.38564301 17.35850906

endloop
endfacet
facet normal -0.1170251742 0.9314807057 0.3444543183
outer loop
vertex 35.18080902 -41.67079926 20.35195351
vertex 36.59925079 -40.38564301 17.35850906
vertex 34.40935516 -41.63855743 20.00267029

endloop
endfacet
facet normal 0.661549449 -0.7209758162 0.2062669992
outer loop
vertex 34.40935516 -41.63855743 20.00267029
vertex 36.59925079 -40.38564301 17.35850906
vertex 36.68549347 -40.1291275 17.97851944

endloop
endfacet
facet normal -0.37910676 0.8936609626 0.2401004434
outer loop
vertex 34.40937042 -41.63854218 20.0026722
vertex 36.68552399 -40.1291275 17.97851944
vertex 34.22516632 -41.64189911 19.72431755

endloop
endfacet
facet normal 0.6083194613 -0.7707552314 0.1894301474
outer loop
vertex 34.22516632 -41.64189911 19.72431755
vertex 36.68552399 -40.1291275 17.97851944
vertex 36.76493073 -39.90276337 18.64455223

endloop
endfacet
facet normal -0.5469546914 0.8351112604 0.05856437236
outer loop
vertex 34.22516632 -41.64189911 19.72431755
vertex 36.76493073 -39.90276337 18.64455223
vertex 34.21863556 -41.57633209 18.72835732

endloop
endfacet
facet normal 0.1879083663 -0.2381825745 0.9528690577
outer loop
vertex 34.21863556 -41.57633209 18.72835732
vertex 36.76493073 -39.90276337 18.64455223
vertex 36.73777008 -39.73686981 18.69137573

endloop
endfacet
facet normal -0.5875424743 0.8060654998 0.07107929885
outer loop
vertex 34.21863556 -41.57633209 18.72835732
vertex 36.73777008 -39.73686981 18.69137573
vertex 34.24874115 -41.29447174 15.7808094

endloop
endfacet
facet normal -0.6532458067 0.7394054532 0.1629402041
outer loop
vertex 34.24874115 -41.29447174 15.7808094
vertex 36.73777008 -39.73686981 18.69137573
vertex 36.52655792 -39.51763153 16.84972191

endloop
endfacet
facet normal -0.4951590896 0.8153175116 -0.3001248837
outer loop
vertex 34.24874115 -41.29447174 15.7808094
vertex 36.52655792 -39.51763153 16.84972191
vertex 35.75469208 -41.32662201 13.2088871

endloop
endfacet
facet normal -0.3429443538 0.8681874275 -0.358663857
outer loop
vertex 35.75469208 -41.32662201 13.2088871
vertex 36.52655792 -39.51763153 16.84972191
vertex 37.58885956 -39.87381744 14.97178936

endloop
endfacet
facet normal -0.08406962454 0.8101446629 -0.5801705718
outer loop
vertex 35.75469208 -41.32662201 13.2088871
vertex 37.58885956 -39.87381744 14.97178936
vertex 38.65697479 -41.80290985 12.1232481

endloop
endfacet
facet normal 0.05277124792 0.835916996 -0.5463130474
outer loop
vertex 38.65697479 -41.80290985 12.1232481
vertex 37.58885956 -39.87381744 14.97178936
vertex 39.99820709 -40.93039703 13.58784199

endloop
endfacet
facet normal 0.07782834023 0.8235436678 -0.5618883371
outer loop
vertex 38.65697479 -41.80290985 12.1232481
vertex 39.99820709 -40.93039703 13.58784199
vertex 41.58112335 -42.41078949 11.63732624

endloop
endfacet
facet normal 0.007208289113 0.7993431687 -0.6008315086
outer loop
vertex 41.58112335 -42.41078949 11.63732624
vertex 39.99820709 -40.93039703 13.58784199
vertex 42.51764679 -42.08545685 12.08138275

endloop
endfacet
facet normal 0.3057492077 0.3358713686 -0.8909028172
outer loop
vertex 41.58112335 -42.41078949 11.63732624
vertex 42.51764679 -42.08545685 12.08138275
vertex 44.97289276 -43.49829865 12.39135647

endloop
endfacet
facet normal 0.3303441405 0.3850047588 -0.8617680073
outer loop
vertex 44.97289276 -43.49829865 12.39135647
vertex 42.51764679 -42.08545685 12.08138275
vertex 45.4814682 -43.2490921 12.69764614

endloop
endfacet
facet normal 0.3680683076 0.3212542534 -0.8725373149
outer loop
vertex 44.97289276 -43.49829865 12.39135647
vertex 45.4814682 -43.2490921 12.69764614
vertex 48.33693695 -45.76891327 12.97443008

endloop
endfacet
facet normal 0.6119040251 0.6427887678 -0.4608645439
outer loop
vertex 48.33693695 -45.76891327 12.97443008
vertex 45.4814682 -43.2490921 12.69764614
vertex 48.65320587 -45.49863434 13.77132034

endloop
endfacet
facet normal 0.6339643598 0.6202228665 -0.4619662464
outer loop
vertex 48.33693695 -45.76891327 12.97443008
vertex 48.65320587 -45.49863434 13.77132034
vertex 52.15244293 -49.65007782 12.99977398

endloop
endfacet
facet normal 0.6272867322 0.6170443892 -0.4751499593
outer loop
vertex 52.15244293 -49.65007782 12.99977398
vertex 48.65320587 -45.49863434 13.77132034
vertex 52.68012238 -49.18694305 14.29785061

endloop
endfacet
facet normal 0.3343347609 0.8364084363 -0.4343283176
outer loop
vertex 52.15244293 -49.65007782 12.99977398
vertex 52.68012238 -49.18694305 14.29785061
vertex 54.21761322 -53.32424164 7.513961792

endloop
endfacet
facet normal -nan(ind) -nan(ind) -nan(ind)
outer loop
vertex 54.21761322 -53.32424164 7.513961792
vertex 52.68012238 -49.18694305 14.29785061
vertex 54.21761322 -53.32424164 7.513961792

endloop
endfacet
facet normal 0.3737255335 -0.4734278619 0.7976185679
outer loop
vertex 27.76441193 -32.21921539 25.93577576
vertex 27.76439667 -32.21923065 25.93577385
vertex 36.48822784 -40.41405487 16.98415565

endloop
endfacet
facet normal -0.7797399163 -0.5842677951 -0.225026086
outer loop
vertex 36.48822784 -40.41405487 16.98415565
vertex 27.76439667 -32.21923065 25.93577385
vertex 34.47164154 -37.04026031 15.21197701

endloop
endfacet
facet normal 0.8808785081 0.3743685484 -0.2896571755
outer loop
vertex 36.48822784 -40.41405487 16.98415565
vertex 34.47164154 -37.04026031 15.21197701
vertex 36.59925079 -40.38564301 17.35850906

endloop
endfacet
facet normal 0.08754745126 -0.4979226887 -0.862791121
outer loop
vertex 36.59925079 -40.38564301 17.35850906
vertex 34.47164154 -37.04026031 15.21197701
vertex 35.75562286 -36.79637909 15.20151711

endloop
endfacet
facet normal 0.9756497145 0.1183389723 -0.1846718192
outer loop
vertex 36.59925079 -40.38564301 17.35850906
vertex 35.75562286 -36.79637909 15.20151711
vertex 36.68549347 -40.1291275 17.97851944

endloop
endfacet
facet normal 0.95076859 0.3060196936 0.04889981076
outer loop
vertex 36.68549347 -40.1291275 17.97851944
vertex 35.75562286 -36.79637909 15.20151711
vertex 35.5716629 -36.38565826 16.20795631

endloop
endfacet
facet normal 0.9626063704 0.1999911666 -0.1827361286
outer loop
vertex 36.68552399 -40.1291275 17.97851944
vertex 35.5716629 -36.38564301 16.20795631
vertex 36.76493073 -39.90276337 18.64455223

endloop
endfacet
facet normal 0.528007865 0.5973379612 0.6036514044
outer loop
vertex 36.76493073 -39.90276337 18.64455223
vertex 35.5716629 -36.38564301 16.20795631
vertex 34.6508255 -36.37749481 17.00534058

endloop
endfacet
facet normal 0.8309528828 0.2728869021 -0.4848197401
outer loop
vertex 36.76493073 -39.90276337 18.64455223
vertex 34.6508255 -36.37749481 17.00534058
vertex 36.73777008 -39.73686981 18.69137573

endloop
endfacet
facet normal -0.8585433364 -0.3413128257 0.3826341331
outer loop
vertex 36.73777008 -39.73686981 18.69137573
vertex 34.6508255 -36.37749481 17.00534058
vertex 34.68598175 -36.48236847 16.99067497

endloop
endfacet
facet normal -0.8537694812 -0.5193994045 0.03608402237
outer loop
vertex 36.73777008 -39.73686981 18.69137573
vertex 34.68598175 -36.48236847 16.99067497
vertex 36.52655792 -39.51763153 16.84972191

endloop
endfacet
facet normal -0.5999746919 -0.3299790025 -0.7287965417
outer loop
vertex 36.52655792 -39.51763153 16.84972191
vertex 34.68598175 -36.48236847 16.99067497
vertex 35.50632477 -36.57964325 16.35937881

endloop
endfacet
facet normal -0.8397734165 -0.3595184088 -0.4068502486
outer loop
vertex 36.52655792 -39.51763153 16.84972191
vertex 35.50632477 -36.57964325 16.35937881
vertex 37.58885956 -39.87381744 14.97178936

endloop
endfacet
facet normal -0.2101677507 0.2636902034 -0.9414334893
outer loop
vertex 37.58885956 -39.87381744 14.97178936
vertex 35.50632477 -36.57964325 16.35937881
vertex 37.50621796 -36.93367767 15.81375504

endloop
endfacet
facet normal -0.4014470577 0.2416989654 -0.8834148645
outer loop
vertex 37.58885956 -39.87381744 14.97178936
vertex 37.50621796 -36.93367767 15.81375504
vertex 39.99820709 -40.93039703 13.58784199

endloop
endfacet
facet normal -0.229813531 0.3602392972 -0.9041091204
outer loop
vertex 39.99820709 -40.93039703 13.58784199
vertex 37.50621796 -36.93367767 15.81375504
vertex 40.30844879 -38.28993988 14.56106377

endloop
endfacet
facet normal -0.351742655 0.3598445058 -0.8641696572
outer loop
vertex 39.99820709 -40.93039703 13.58784199
vertex 40.30844879 -38.28993988 14.56106377
vertex 42.51764679 -42.08545685 12.08138275

endloop
endfacet
facet normal -0.5278611183 0.2273840904 -0.8183270097
outer loop
vertex 42.51764679 -42.08545685 12.08138275
vertex 40.30844879 -38.28993988 14.56106377
vertex 42.9575882 -40.74765778 12.16932583

endloop
endfacet
facet normal 0.2027118653 -0.00229057949 -0.9792357683
outer loop
vertex 42.51764679 -42.08545685 12.08138275
vertex 42.9575882 -40.74765778 12.16932583
vertex 45.4814682 -43.2490921 12.69764614

endloop
endfacet
facet normal -0.5261778831 -0.6473621726 -0.5514156222
outer loop
vertex 45.4814682 -43.2490921 12.69764614
vertex 42.9575882 -40.74765778 12.16932583
vertex 45.80968475 -42.77555084 11.8285141

endloop
endfacet
facet normal -0.3531937301 -0.7590267062 -0.5469301343
outer loop
vertex 45.4814682 -43.2490921 12.69764614
vertex 45.80968475 -42.77555084 11.8285141
vertex 48.65320587 -45.49863434 13.77132034

endloop
endfacet
facet normal -0.5708041191 -0.7796962857 -0.2574031949
outer loop
vertex 48.65320587 -45.49863434 13.77132034
vertex 45.80968475 -42.77555084 11.8285141
vertex 49.06674957 -45.39818573 12.54999924

endloop
endfacet
facet normal -0.6300768256 -0.7269127965 -0.2731318176
outer loop
vertex 48.65320587 -45.49863434 13.77132034
vertex 49.06674957 -45.39818573 12.54999924
vertex 52.68012238 -49.18694305 14.29785061

endloop
endfacet
facet normal -0.432082057 -0.6834952235 -0.5883361101
outer loop
vertex 52.68012238 -49.18694305 14.29785061
vertex 49.06674957 -45.39818573 12.54999924
vertex 53.74889374 -49.211586 13.54155922

endloop
endfacet
facet normal -0.367226541 0.7547841668 -0.543548882
outer loop
vertex 52.68012238 -49.18694305 14.29785061
vertex 53.74889374 -49.211586 13.54155922
vertex 54.21761322 -53.32424164 7.513961792

endloop
endfacet
facet normal -0.034114521 -0.8272770643 0.5607573986
outer loop
vertex 54.21761322 -53.32424164 7.513961792
vertex 53.74889374 -49.211586 13.54155922
vertex 54.21759796 -53.32424164 7.513960838

endloop
endfacet
facet normal 0.5836517811 0.8120040298 0
outer loop
vertex 27.76439667 -32.21923065 25.93577385
vertex 27.76439667 -32.21923065 25.93577576
vertex 34.47164154 -37.04026031 15.21197701

endloop
endfacet
facet normal -0.6124742627 -0.7899973392 -0.02792054415
outer loop
vertex 34.47164154 -37.04026031 15.21197701
vertex 27.76439667 -32.21923065 25.93577576
vertex 25.45868683 -30.18952179 19.08502579

endloop
endfacet
facet normal -0.0841871351 0.4041629434 -0.9108045697
outer loop
vertex 34.47164154 -37.04026031 15.21197701
vertex 25.45868683 -30.18952179 19.08502579
vertex 35.75562286 -36.79637909 15.20151711

endloop
endfacet
facet normal -0.2940687239 -0.7816378474 0.5500600338
outer loop
vertex 35.75562286 -36.79637909 15.20151711
vertex 25.45868683 -30.18952179 19.08502579
vertex 25.13930511 -30.52146149 18.44259262

endloop
endfacet
facet normal 0.4259844422 0.8622384667 -0.2740111947
outer loop
vertex 35.75562286 -36.79637909 15.20151711
vertex 25.13930511 -30.52146149 18.44259262
vertex 35.5716629 -36.38565826 16.20795631

endloop
endfacet
facet normal -0.5031690598 -0.8589578271 -0.09493351728
outer loop
vertex 35.5716629 -36.38565826 16.20795631
vertex 25.13930511 -30.52146149 18.44259262
vertex 25.17945099 -30.41165924 17.2363205

endloop
endfacet
facet normal 0.4622595012 0.7134950757 0.5265368223
outer loop
vertex 35.5716629 -36.38564301 16.20795631
vertex 25.17946625 -30.41164398 17.2363224
vertex 34.6508255 -36.37749481 17.00534058

endloop
endfacet
facet normal -0.5177621245 -0.8115092516 -0.270878464
outer loop
vertex 34.6508255 -36.37749481 17.00534058
vertex 25.17946625 -30.41164398 17.2363224
vertex 25.55005646 -30.18314362 15.84341812

endloop
endfacet
facet normal -0.2705001235 -0.2216870934 0.9368482232
outer loop
vertex 34.6508255 -36.37749481 17.00534058
vertex 25.55005646 -30.18314362 15.84341812
vertex 34.68598175 -36.48236847 16.99067497

endloop
endfacet
facet normal -0.4351784289 -0.7277055383 -0.5301550627
outer loop
vertex 34.68598175 -36.48236847 16.99067497
vertex 25.55005646 -30.18314362 15.84341812
vertex 26.54143524 -29.54572296 14.15470219

endloop
endfacet
facet normal -0.4621947408 -0.7415152192 -0.4863448441
outer loop
vertex 34.68598175 -36.48236847 16.99067497
vertex 26.54143524 -29.54572296 14.15470219
vertex 35.50632477 -36.57964325 16.35937881

endloop
endfacet
facet normal -0.2500088811 -0.5650787354 -0.7862452269
outer loop
vertex 35.50632477 -36.57964325 16.35937881
vertex 26.54143524 -29.54572296 14.15470219
vertex 28.719841 -27.77899933 12.19226265

endloop
endfacet
facet normal -0.3080387414 -0.5906755924 -0.7457978725
outer loop
vertex 35.50632477 -36.57964325 16.35937881
vertex 28.719841 -27.77899933 12.19226265
vertex 37.50621796 -36.93367767 15.81375504

endloop
endfacet
facet normal -0.007246034686 -0.3738483191 -0.9274615645
outer loop
vertex 37.50621796 -36.93367767 15.81375504
vertex 28.719841 -27.77899933 12.19226265
vertex 32.6657486 -27.11826324 11.89509964

endloop
endfacet
facet normal -0.5463033319 -0.5287507772 -0.6495963335
outer loop
vertex 37.50621796 -36.93367767 15.81375504
vertex 32.6657486 -27.11826324 11.89509964
vertex 40.30844879 -38.28993988 14.56106377

endloop
endfacet
facet normal -0.0008867005818 -0.232692048 -0.9725500345
outer loop
vertex 40.30844879 -38.28993988 14.56106377
vertex 32.6657486 -27.11826324 11.89509964
vertex 38.28630829 -28.45076752 12.20878983

endloop
endfacet
facet normal -0.7760483027 -0.2930089533 -0.5584754348
outer loop
vertex 40.30844879 -38.28993988 14.56106377
vertex 38.28630829 -28.45076752 12.20878983
vertex 42.9575882 -40.74765778 12.16932583

endloop
endfacet
facet normal -0.2940011919 -0.108636111 -0.9496112466
outer loop
vertex 42.9575882 -40.74765778 12.16932583
vertex 38.28630829 -28.45076752 12.20878983
vertex 44.66646576 -30.54431915 10.47298622

endloop
endfacet
facet normal -0.2060975432 -0.1267949641 -0.9702817798
outer loop
vertex 42.9575882 -40.74765778 12.16932583
vertex 44.66646576 -30.54431915 10.47298622
vertex 45.80968475 -42.77555084 11.8285141

endloop
endfacet
facet normal -0.358732909 -0.1358765364 -0.9234977961
outer loop
vertex 45.80968475 -42.77555084 11.8285141
vertex 44.66646576 -30.54431915 10.47298622
vertex 50.54898834 -33.37697601 8.60469532

endloop
endfacet
facet normal -0.03697980568 -0.3074981272 -0.9508298635
outer loop
vertex 45.80968475 -42.77555084 11.8285141
vertex 50.54898834 -33.37697601 8.60469532
vertex 49.06674957 -45.39818573 12.54999924

endloop
endfacet
facet normal -0.5023515224 -0.2130854279 -0.8379960656
outer loop
vertex 49.06674957 -45.39818573 12.54999924
vertex 50.54898834 -33.37697601 8.60469532
vertex 54.90572357 -36.33916473 6.746198177

endloop
endfacet
facet normal -0.1782310456 -0.4467947781 -0.8767030239
outer loop
vertex 49.06674957 -45.39818573 12.54999924
vertex 54.90572357 -36.33916473 6.746198177
vertex 53.74889374 -49.211586 13.54155922

endloop
endfacet
facet normal -0.6469026804 -0.3097262084 -0.6968404651
outer loop
vertex 53.74889374 -49.211586 13.54155922
vertex 54.90572357 -36.33916473 6.746198177
vertex 58.59911346 -40.70650482 5.258649826

endloop
endfacet
facet normal -0.9257079959 0.2750431001 -0.2596458495
outer loop
vertex 53.74889374 -49.211586 13.54155922
vertex 58.59911346 -40.70650482 5.258649826
vertex 54.21759796 -53.32424164 7.513960838

endloop
endfacet
facet normal 0.9486832619 -0.3162277639 0
outer loop
vertex 54.21759796 -53.32424164 7.513960838
vertex 58.59911346 -40.70650482 5.258649826
vertex 54.21759796 -53.32424164 7.513961792

endloop
endfacet
endsolid
