solid 
facet normal -0 -0.418075 -0.908413
outer loop
vertex 45.23558807 -81.96094513 63.27626038
vertex 45.23560333 -81.96094513 63.27626038
vertex 57.15892792 -90.5165329 67.21376038

endloop
endfacet
facet normal -0.4662511349 -0.8116913438 -0.3518052697
outer loop
vertex 57.15892792 -90.5165329 67.21376038
vertex 45.23560333 -81.96094513 63.27626038
vertex 57.53253937 -87.78778839 60.42280197

endloop
endfacet
facet normal -0.9985346198 0.002141250065 -0.05407499149
outer loop
vertex 57.15892792 -90.5165329 67.21376038
vertex 57.53253937 -87.78778839 60.42280197
vertex 57.36928558 -97.02118683 63.07178116

endloop
endfacet
facet normal -0.9257024527 0.119341664 0.3589324951
outer loop
vertex 57.36928558 -97.02118683 63.07178116
vertex 57.53253937 -87.78778839 60.42280197
vertex 55.97835541 -91.77033997 57.73865509

endloop
endfacet
facet normal -0.9730205536 -0.02477029338 0.2293848991
outer loop
vertex 57.36928558 -97.02118683 63.07178116
vertex 55.97835541 -91.77033997 57.73865509
vertex 56.03792572 -101.7862701 56.90976715

endloop
endfacet
facet normal -0.9431193471 -0.03298638761 0.3308136165
outer loop
vertex 56.03792572 -101.7862701 56.90976715
vertex 55.97835541 -91.77033997 57.73865509
vertex 54.66866302 -95.43317413 53.63961029

endloop
endfacet
facet normal -0.9143825173 0.01123666577 0.4046954215
outer loop
vertex 56.03792572 -101.7862701 56.90976715
vertex 54.66866302 -95.43317413 53.63961029
vertex 52.82382965 -104.5496445 49.72445679

endloop
endfacet
facet normal -0.8839969635 -0.02166536078 0.4669903517
outer loop
vertex 52.82382965 -104.5496445 49.72445679
vertex 54.66866302 -95.43317413 53.63961029
vertex 51.96050262 -98.41794586 48.37467957

endloop
endfacet
facet normal -0.8447065353 -0.001112039434 0.5352284908
outer loop
vertex 52.82382965 -104.5496445 49.72445679
vertex 51.96050262 -98.41794586 48.37467957
vertex 48.25330353 -105.678688 42.50883102

endloop
endfacet
facet normal -0.8398189545 -0.009708090685 0.5427798033
outer loop
vertex 48.25330353 -105.678688 42.50883102
vertex 51.96050262 -98.41794586 48.37467957
vertex 48.02741241 -99.43444824 42.27100372

endloop
endfacet
facet normal -0.8731868863 -0.01303167176 0.4872113764
outer loop
vertex 48.25331879 -105.678688 42.50883484
vertex 48.02742767 -99.43444061 42.27100754
vertex 44.11908722 -105.9581451 35.0919342

endloop
endfacet
facet normal -0.8603979349 -0.04332586005 0.5077776909
outer loop
vertex 44.11908722 -105.9581451 35.0919342
vertex 48.02742767 -99.43444061 42.27100754
vertex 44.18740082 -98.96051788 35.80475616

endloop
endfacet
facet normal -0.8174320459 -0.05047173798 0.5738096833
outer loop
vertex 44.11908722 -105.9581451 35.0919342
vertex 44.18740082 -98.96051788 35.80475616
vertex 39.83509064 -105.3746643 29.04040337

endloop
endfacet
facet normal -0.8600785136 0.04797298461 0.5079011321
outer loop
vertex 39.83509064 -105.3746643 29.04040337
vertex 44.18740082 -98.96051788 35.80475616
vertex 41.09087372 -98.06188965 30.47622681

endloop
endfacet
facet normal -0.6386322975 -0.04120387509 0.7684080601
outer loop
vertex 39.83509064 -105.3746643 29.04040337
vertex 41.09087372 -98.06188965 30.47622681
vertex 35.10128021 -103.2868652 25.21803474

endloop
endfacet
facet normal -0.7497930527 0.2383355647 0.6172573566
outer loop
vertex 35.10128021 -103.2868652 25.21803474
vertex 41.09087372 -98.06188965 30.47622681
vertex 38.43790436 -96.66667938 26.71490097

endloop
endfacet
facet normal -0.6035290956 0.1261708289 0.7872951031
outer loop
vertex 35.10128021 -103.2868576 25.21803284
vertex 38.43790436 -96.66667175 26.71489906
vertex 31.691185 -99.26922607 21.96004295

endloop
endfacet
facet normal -0.6201912761 0.2481756657 0.7441583276
outer loop
vertex 31.691185 -99.26922607 21.96004295
vertex 38.43790436 -96.66667175 26.71489906
vertex 35.3666153 -93.23632812 23.01123238

endloop
endfacet
facet normal -0.3607055545 0.05754998699 0.9309025407
outer loop
vertex 31.691185 -99.26922607 21.96004295
vertex 35.3666153 -93.23632812 23.01123238
vertex 27.27420807 -94.00010681 19.9228096

endloop
endfacet
facet normal -0.3640637398 0.1256588548 0.9228582382
outer loop
vertex 27.27420807 -94.00010681 19.9228096
vertex 35.3666153 -93.23632812 23.01123238
vertex 30.85884857 -87.87411499 20.5028038

endloop
endfacet
facet normal -0.02347390354 -0.08060751855 0.9964694381
outer loop
vertex 27.27420807 -94.00010681 19.9228096
vertex 30.85884857 -87.87411499 20.5028038
vertex 19.50292206 -87.91100311 20.23230743

endloop
endfacet
facet normal -0.02397963218 0.06855989248 0.9973587394
outer loop
vertex 19.50292206 -87.91100311 20.23230743
vertex 30.85884857 -87.87411499 20.5028038
vertex 23.08625031 -81.96086884 19.90944099

endloop
endfacet
facet normal 0.8016369939 -0.4621892869 0.379155755
outer loop
vertex 19.5029068 -87.91101074 20.23230743
vertex 23.08620453 -81.96087646 19.9094429
vertex 17.67139435 -82.04244232 31.25837708

endloop
endfacet
facet normal 0.419909209 -0.8865712285 0.1940817535
outer loop
vertex 17.67139435 -82.04244232 31.25837708
vertex 23.08620453 -81.96087646 19.9094429
vertex 17.67140961 -82.04243469 31.25837898

endloop
endfacet
facet normal 0.004361430649 0.4472093582 -0.8944187164
outer loop
vertex 45.23560333 -81.96094513 63.27626038
vertex 45.23560333 -81.9609375 63.27626419
vertex 57.53253937 -87.78778839 60.42280197

endloop
endfacet
facet normal -0.4666231871 -0.7900677919 -0.3975621164
outer loop
vertex 57.53253937 -87.78778839 60.42280197
vertex 45.23560333 -81.9609375 63.27626419
vertex 57.31346893 -85.69065094 56.51232529

endloop
endfacet
facet normal -0.9512991309 0.246300444 0.1853808463
outer loop
vertex 57.53253937 -87.78778839 60.42280197
vertex 57.31346893 -85.69065094 56.51232529
vertex 55.97835541 -91.77033997 57.73865509

endloop
endfacet
facet normal -0.6380505562 0.2844462097 0.7155290246
outer loop
vertex 55.97835541 -91.77033997 57.73865509
vertex 57.31346893 -85.69065094 56.51232529
vertex 54.24889374 -88.79512787 55.01371765

endloop
endfacet
facet normal -0.8987330794 -0.1426652968 0.4146388769
outer loop
vertex 55.97835541 -91.77033997 57.73865509
vertex 54.24889374 -88.79512787 55.01371765
vertex 54.66866302 -95.43317413 53.63961029

endloop
endfacet
facet normal -0.5599084496 -0.2017588913 0.8036142588
outer loop
vertex 54.66866302 -95.43317413 53.63961029
vertex 54.24889374 -88.79512787 55.01371765
vertex 51.66126251 -91.9886322 52.40904236

endloop
endfacet
facet normal -0.7013261318 -0.4020225704 0.5886591077
outer loop
vertex 54.66866302 -95.43317413 53.63961029
vertex 51.66126251 -91.9886322 52.40904236
vertex 51.96050262 -98.41794586 48.37467957

endloop
endfacet
facet normal -0.7184002995 -0.3934235573 0.5736889243
outer loop
vertex 51.96050262 -98.41794586 48.37467957
vertex 51.66126251 -91.9886322 52.40904236
vertex 49.46138763 -94.44498444 47.96974182

endloop
endfacet
facet normal -0.7353155613 -0.4073283672 0.5416592956
outer loop
vertex 51.96050262 -98.41794586 48.37467957
vertex 49.46138763 -94.44498444 47.96974182
vertex 48.02741241 -99.43444824 42.27100372

endloop
endfacet
facet normal -0.7440763712 -0.3985623717 0.5361887813
outer loop
vertex 48.02741241 -99.43444824 42.27100372
vertex 49.46138763 -94.44498444 47.96974182
vertex 46.03084564 -95.22052765 42.63265228

endloop
endfacet
facet normal -0.7953857183 -0.4147846401 0.4419448972
outer loop
vertex 48.02742767 -99.43444061 42.27100754
vertex 46.0308609 -95.22052002 42.6326561
vertex 44.18740082 -98.96051788 35.80475616

endloop
endfacet
facet normal -0.8007239699 -0.4072808921 0.4392759502
outer loop
vertex 44.18740082 -98.96051788 35.80475616
vertex 46.0308609 -95.22052002 42.6326561
vertex 42.61719513 -94.69094849 36.90113449

endloop
endfacet
facet normal -0.8183777332 -0.4055331349 0.4071865082
outer loop
vertex 44.18740082 -98.96051788 35.80475616
vertex 42.61719513 -94.69094849 36.90113449
vertex 41.09087372 -98.06188965 30.47622681

endloop
endfacet
facet normal -0.8223141432 -0.3996711969 0.4050461054
outer loop
vertex 41.09087372 -98.06188965 30.47622681
vertex 42.61719513 -94.69094849 36.90113449
vertex 40.00447845 -93.8968277 32.38044739

endloop
endfacet
facet normal -0.811247468 -0.4045901 0.4221188426
outer loop
vertex 41.09087372 -98.06188965 30.47622681
vertex 40.00447845 -93.8968277 32.38044739
vertex 38.43790436 -96.66667938 26.71490097

endloop
endfacet
facet normal -0.8223846555 -0.3873046637 0.4167475998
outer loop
vertex 38.43790436 -96.66667938 26.71490097
vertex 40.00447845 -93.8968277 32.38044739
vertex 37.82511139 -92.68655396 29.20458412

endloop
endfacet
facet normal -0.8542231321 -0.3638324738 0.3713876605
outer loop
vertex 38.43790436 -96.66667175 26.71489906
vertex 37.82511139 -92.68654633 29.20458031
vertex 35.3666153 -93.23632812 23.01123238

endloop
endfacet
facet normal -0.8890981674 -0.2608808577 0.3760925829
outer loop
vertex 35.3666153 -93.23632812 23.01123238
vertex 37.82511139 -92.68654633 29.20458031
vertex 35.210289 -89.42922974 25.28250694

endloop
endfacet
facet normal -0.7445939183 -0.3642805219 0.5593565106
outer loop
vertex 35.3666153 -93.23632812 23.01123238
vertex 35.210289 -89.42922974 25.28250694
vertex 30.85884857 -87.87411499 20.5028038

endloop
endfacet
facet normal -0.739505291 -0.3958646059 0.5444476008
outer loop
vertex 30.85884857 -87.87411499 20.5028038
vertex 35.210289 -89.42922974 25.28250694
vertex 31.35842133 -85.06027985 23.22727966

endloop
endfacet
facet normal -0.4806533754 -0.5644483566 0.6710964441
outer loop
vertex 30.85884857 -87.87411499 20.5028038
vertex 31.35842133 -85.06027985 23.22727966
vertex 23.08625031 -81.96086884 19.90944099

endloop
endfacet
facet normal -0.4783246219 -0.5157641172 0.7107692957
outer loop
vertex 23.08625031 -81.96086884 19.90944099
vertex 31.35842133 -85.06027985 23.22727966
vertex 24.53049469 -79.85157776 22.4119606

endloop
endfacet
facet normal 0.6022208929 -0.7468777299 0.2819637358
outer loop
vertex 23.08620453 -81.96087646 19.9094429
vertex 24.53046417 -79.85158539 22.4119606
vertex 17.67140961 -82.04243469 31.25837898

endloop
endfacet
facet normal -0.03843864053 0.9737789035 0.2242254019
outer loop
vertex 17.67140961 -82.04243469 31.25837898
vertex 24.53046417 -79.85158539 22.4119606
vertex 17.67139435 -82.04243469 31.25837708

endloop
endfacet
facet normal 0.1744598448 -0.6967881918 0.6957370639
outer loop
vertex 45.23560333 -81.9609375 63.27626419
vertex 45.23558807 -81.96094513 63.27626038
vertex 57.31346893 -85.69065094 56.51232529

endloop
endfacet
facet normal -0.3306200504 -0.941054821 -0.07145728916
outer loop
vertex 57.31346893 -85.69065094 56.51232529
vertex 45.23558807 -81.96094513 63.27626038
vertex 53.82659149 -84.45341492 56.35173798

endloop
endfacet
facet normal -0.1513660401 -0.3045327365 0.9403978586
outer loop
vertex 57.31346893 -85.69065094 56.51232529
vertex 53.82659149 -84.45341492 56.35173798
vertex 54.24889374 -88.79512787 55.01371765

endloop
endfacet
facet normal -0.2755503356 -0.307484895 0.9107826352
outer loop
vertex 54.24889374 -88.79512787 55.01371765
vertex 53.82659149 -84.45341492 56.35173798
vertex 51.35581207 -87.1049881 54.70903778

endloop
endfacet
facet normal -0.3335403502 -0.4186667502 0.8446709514
outer loop
vertex 54.24889374 -88.79512787 55.01371765
vertex 51.35581207 -87.1049881 54.70903778
vertex 51.66126251 -91.9886322 52.40904236

endloop
endfacet
facet normal -0.3643158078 -0.4153424799 0.8335253596
outer loop
vertex 51.66126251 -91.9886322 52.40904236
vertex 51.35581207 -87.1049881 54.70903778
vertex 48.63222504 -89.67887115 52.2360611

endloop
endfacet
facet normal -0.5081891418 -0.6218156219 0.5958935618
outer loop
vertex 51.66126251 -91.9886322 52.40904236
vertex 48.63222504 -89.67887115 52.2360611
vertex 49.46138763 -94.44498444 47.96974182

endloop
endfacet
facet normal -0.5856826305 -0.5947880149 0.5506387949
outer loop
vertex 49.46138763 -94.44498444 47.96974182
vertex 48.63222504 -89.67887115 52.2360611
vertex 46.6468277 -91.55147552 48.1015625

endloop
endfacet
facet normal -0.6153998375 -0.6207388043 0.4857637584
outer loop
vertex 49.46138763 -94.44498444 47.96974182
vertex 46.6468277 -91.55147552 48.1015625
vertex 46.03084564 -95.22052765 42.63265228

endloop
endfacet
facet normal -0.7091619968 -0.5459374785 0.4461408257
outer loop
vertex 46.03084564 -95.22052765 42.63265228
vertex 46.6468277 -91.55147552 48.1015625
vertex 43.8814621 -91.93896484 43.23171616

endloop
endfacet
facet normal -0.7370175719 -0.553535223 0.3878193498
outer loop
vertex 46.0308609 -95.22052002 42.6326561
vertex 43.88147736 -91.93895721 43.23171616
vertex 42.61719513 -94.69094849 36.90113449

endloop
endfacet
facet normal -0.7771922946 -0.5053848028 0.3749110401
outer loop
vertex 42.61719513 -94.69094849 36.90113449
vertex 43.88147736 -91.93895721 43.23171616
vertex 41.09706879 -91.45553589 38.11128235

endloop
endfacet
facet normal -0.7831466794 -0.5041240454 0.3640607893
outer loop
vertex 42.61719513 -94.69094849 36.90113449
vertex 41.09706879 -91.45553589 38.11128235
vertex 40.00447845 -93.8968277 32.38044739

endloop
endfacet
facet normal -0.7019808292 -0.5971002579 0.3881935775
outer loop
vertex 40.00447845 -93.8968277 32.38044739
vertex 41.09706879 -91.45553589 38.11128235
vertex 38.52265167 -90.9888916 34.17366409

endloop
endfacet
facet normal -0.7604721189 -0.5743572116 0.3029785454
outer loop
vertex 40.00447845 -93.8968277 32.38044739
vertex 38.52265167 -90.9888916 34.17366409
vertex 37.82511139 -92.68655396 29.20458412

endloop
endfacet
facet normal -0.6129338145 -0.7173983455 0.3311369717
outer loop
vertex 37.82511139 -92.68655396 29.20458412
vertex 38.52265167 -90.9888916 34.17366409
vertex 36.05843353 -90.11392975 31.50798035

endloop
endfacet
facet normal -0.8045033813 -0.5922814608 0.04446249455
outer loop
vertex 37.82511139 -92.68654633 29.20458031
vertex 36.05843353 -90.11392975 31.50797844
vertex 35.210289 -89.42922974 25.28250694

endloop
endfacet
facet normal -0.8312060833 -0.5534927845 0.05236653611
outer loop
vertex 35.210289 -89.42922974 25.28250694
vertex 36.05843353 -90.11392975 31.50797844
vertex 33.93067169 -87.23265076 28.18827438

endloop
endfacet
facet normal -0.7731460929 -0.6209805608 0.1289510131
outer loop
vertex 35.210289 -89.42922974 25.28250694
vertex 33.93067169 -87.23265076 28.18827438
vertex 31.35842133 -85.06027985 23.22727966

endloop
endfacet
facet normal -0.8034463525 -0.5716968775 0.1662423462
outer loop
vertex 31.35842133 -85.06027985 23.22727966
vertex 33.93067169 -87.23265076 28.18827438
vertex 30.96994781 -83.56217194 26.50169182

endloop
endfacet
facet normal -0.6040520668 -0.7493832707 0.2711933255
outer loop
vertex 31.35842133 -85.06027985 23.22727966
vertex 30.96994781 -83.56217194 26.50169182
vertex 24.53049469 -79.85157776 22.4119606

endloop
endfacet
facet normal -0.6116743684 -0.7327036858 0.2983283401
outer loop
vertex 24.53049469 -79.85157776 22.4119606
vertex 30.96994781 -83.56217194 26.50169182
vertex 25.17095184 -79.00055695 25.81524849

endloop
endfacet
facet normal 0.4547586143 -0.8803902268 0.1345650554
outer loop
vertex 24.53046417 -79.85158539 22.4119606
vertex 25.17093658 -79.0005722 25.81524658
vertex 17.67139435 -82.04243469 31.25837708

endloop
endfacet
facet normal -0.5219700933 -0.2197768986 -0.8241633773
outer loop
vertex 17.67139435 -82.04243469 31.25837708
vertex 25.17093658 -79.0005722 25.81524658
vertex 17.67139435 -82.04244232 31.25837898

endloop
endfacet
facet normal -0.2430588007 0.7766759992 -0.5811168551
outer loop
vertex 45.23558807 -81.96094513 63.27626038
vertex 45.23560333 -81.9609375 63.27626419
vertex 53.82657623 -84.45341492 56.35173798

endloop
endfacet
facet normal 0.1041206121 -0.8876100779 0.448672682
outer loop
vertex 53.82657623 -84.45341492 56.35173798
vertex 45.23560333 -81.9609375 63.27626419
vertex 48.59267426 -84.09463501 58.2761116

endloop
endfacet
facet normal 0.2211086154 -0.6541454792 0.7233288884
outer loop
vertex 53.82657623 -84.45341492 56.35173798
vertex 48.59267426 -84.09463501 58.2761116
vertex 51.35581207 -87.10499573 54.70903778

endloop
endfacet
facet normal 0.04557109252 -0.7457521558 0.6646630168
outer loop
vertex 51.35581207 -87.10499573 54.70903778
vertex 48.59267426 -84.09463501 58.2761116
vertex 47.6095047 -86.45388794 55.69643784

endloop
endfacet
facet normal 0.05625198781 -0.7220454812 0.6895550489
outer loop
vertex 51.35581207 -87.10499573 54.70903778
vertex 47.6095047 -86.45388794 55.69643784
vertex 48.63222504 -89.67887878 52.2360611

endloop
endfacet
facet normal -0.3703150451 -0.731600523 0.5723874569
outer loop
vertex 48.63222504 -89.67887878 52.2360611
vertex 47.6095047 -86.45388794 55.69643784
vertex 46.27820587 -88.28923798 52.48926926

endloop
endfacet
facet normal -0.3886925578 -0.7547321916 0.5284858346
outer loop
vertex 48.63222504 -89.67887878 52.2360611
vertex 46.27820587 -88.28923798 52.48926926
vertex 46.6468277 -91.55148315 48.1015625

endloop
endfacet
facet normal -0.5724583864 -0.6802938581 0.4577025771
outer loop
vertex 46.6468277 -91.55148315 48.1015625
vertex 46.27820587 -88.28923798 52.48926926
vertex 44.59758759 -89.60453796 48.43232346

endloop
endfacet
facet normal -0.5983664393 -0.6969518065 0.3952415287
outer loop
vertex 46.6468277 -91.55148315 48.1015625
vertex 44.59758759 -89.60453796 48.43232346
vertex 43.88144684 -91.93896484 43.23171234

endloop
endfacet
facet normal -0.7109193802 -0.5998315215 0.3671455085
outer loop
vertex 43.88144684 -91.93896484 43.23171234
vertex 44.59758759 -89.60453796 48.43232346
vertex 42.27007294 -89.64963531 43.85177994

endloop
endfacet
facet normal -0.7244471908 -0.601236999 0.3371796906
outer loop
vertex 43.8814621 -91.93895721 43.23171616
vertex 42.2700882 -89.64962769 43.85178375
vertex 41.09705353 -91.45553589 38.11128235

endloop
endfacet
facet normal -0.7100991011 -0.6170062423 0.3392086029
outer loop
vertex 41.09705353 -91.45553589 38.11128235
vertex 42.2700882 -89.64962769 43.85178375
vertex 39.73174286 -89.23116302 39.29918289

endloop
endfacet
facet normal -0.6869962215 -0.6221670508 0.375425607
outer loop
vertex 41.09705353 -91.45553589 38.11128235
vertex 39.73174286 -89.23116302 39.29918289
vertex 38.52263641 -90.9888916 34.17366028

endloop
endfacet
facet normal -0.5599716902 -0.7342101336 0.3838842511
outer loop
vertex 38.52263641 -90.9888916 34.17366028
vertex 39.73174286 -89.23116302 39.29918289
vertex 37.01140594 -89.03172302 35.71247482

endloop
endfacet
facet normal -0.6081213951 -0.7245665789 0.3243324161
outer loop
vertex 38.52263641 -90.9888916 34.17366028
vertex 37.01140594 -89.03172302 35.71247482
vertex 36.05843353 -90.11392975 31.50798035

endloop
endfacet
facet normal -0.4285295904 -0.8468059897 0.3150904477
outer loop
vertex 36.05843353 -90.11392975 31.50798035
vertex 37.01140594 -89.03172302 35.71247482
vertex 34.31200409 -88.54504395 33.34918213

endloop
endfacet
facet normal -0.7293419838 -0.6739837527 -0.1174996048
outer loop
vertex 36.05843353 -90.11392975 31.50797844
vertex 34.31200409 -88.54504395 33.34918213
vertex 33.93067169 -87.23265839 28.18827248

endloop
endfacet
facet normal -0.6478953362 -0.7482978106 -0.1424151659
outer loop
vertex 33.93067169 -87.23265839 28.18827248
vertex 34.31200409 -88.54504395 33.34918213
vertex 32.31931305 -86.44228363 31.36599731

endloop
endfacet
facet normal -0.7168253064 -0.6688027978 -0.1971403658
outer loop
vertex 33.93067169 -87.23265839 28.18827248
vertex 32.31931305 -86.44228363 31.36599731
vertex 30.96993256 -83.56217957 26.50168991

endloop
endfacet
facet normal -0.7906842232 -0.5973078012 -0.1343201846
outer loop
vertex 30.96993256 -83.56217957 26.50168991
vertex 32.31931305 -86.44228363 31.36599731
vertex 30.08739471 -83.18383789 30.01435852

endloop
endfacet
facet normal -0.611751318 -0.7880508304 -0.06881982088
outer loop
vertex 30.96993256 -83.56217957 26.50168991
vertex 30.08739471 -83.18383789 30.01435852
vertex 25.17093658 -79.00056458 25.81524658

endloop
endfacet
facet normal -0.6296519041 -0.7760472894 -0.03590300679
outer loop
vertex 25.17093658 -79.00056458 25.81524658
vertex 30.08739471 -83.18383789 30.01435852
vertex 25.21839142 -79.20817566 29.470541

endloop
endfacet
facet normal 0.3389720023 -0.9390233159 -0.05773472041
outer loop
vertex 25.17092133 -79.0005722 25.81524467
vertex 25.21837616 -79.20818329 29.470541
vertex 17.67139435 -82.04244232 31.25837517

endloop
endfacet
facet normal 0.3076923192 -0.2307692319 0.9230769277
outer loop
vertex 17.67139435 -82.04244232 31.25837517
vertex 25.21837616 -79.20818329 29.470541
vertex 17.67139435 -82.04243469 31.25837708

endloop
endfacet
facet normal -0.0854863897 -0.9358233213 0.3419455588
outer loop
vertex 45.23560333 -81.9609375 63.27626419
vertex 45.23558807 -81.9609375 63.27626038
vertex 48.59267426 -84.09463501 58.2761116

endloop
endfacet
facet normal -0.2606843114 -0.9387072921 0.2255488336
outer loop
vertex 48.59267426 -84.09463501 58.2761116
vertex 45.23558807 -81.9609375 63.27626038
vertex 45.73712921 -83.3015213 58.27658081

endloop
endfacet
facet normal -0.1907240003 -0.6871019602 0.7010814548
outer loop
vertex 48.59267426 -84.09463501 58.2761116
vertex 45.73712921 -83.3015213 58.27658081
vertex 47.6095047 -86.45388794 55.69643784

endloop
endfacet
facet normal -0.2111497819 -0.6911381483 0.6911900043
outer loop
vertex 47.6095047 -86.45388794 55.69643784
vertex 45.73712921 -83.3015213 58.27658081
vertex 45.32802582 -85.67263031 55.78067398

endloop
endfacet
facet normal -0.2505536079 -0.791749537 0.5570955276
outer loop
vertex 47.6095047 -86.45388794 55.69643784
vertex 45.32802582 -85.67263031 55.78067398
vertex 46.27820587 -88.28923798 52.48926926

endloop
endfacet
facet normal -0.2246827185 -0.7933269739 0.5658180714
outer loop
vertex 46.27820587 -88.28923798 52.48926926
vertex 45.32802582 -85.67263031 55.78067398
vertex 44.39914703 -87.47063446 52.89086151

endloop
endfacet
facet normal -0.2920279801 -0.8676891327 0.4022876024
outer loop
vertex 46.27820587 -88.28923798 52.48926926
vertex 44.39914703 -87.47063446 52.89086151
vertex 44.59758759 -89.60453796 48.43232346

endloop
endfacet
facet normal -0.2815688252 -0.8703370094 0.4040204585
outer loop
vertex 44.59758759 -89.60453796 48.43232346
vertex 44.39914703 -87.47063446 52.89086151
vertex 42.79114532 -88.71144867 49.09726715

endloop
endfacet
facet normal -0.3744165301 -0.9056181312 0.199168697
outer loop
vertex 44.59758759 -89.60453796 48.43232346
vertex 42.79114532 -88.71144867 49.09726715
vertex 42.27007294 -89.64963531 43.85177994

endloop
endfacet
facet normal -0.2219669223 -0.9557635784 0.1929936111
outer loop
vertex 42.27007294 -89.64963531 43.85177994
vertex 42.79114532 -88.71144867 49.09726715
vertex 40.62555695 -89.09343719 44.71484375

endloop
endfacet
facet normal -0.285710454 -0.9556479454 0.07145957649
outer loop
vertex 42.2700882 -89.64962769 43.85178375
vertex 40.6255722 -89.09342957 44.71484756
vertex 39.73174286 -89.23116302 39.29918289

endloop
endfacet
facet normal -0.142172277 -0.9886476398 0.04860855639
outer loop
vertex 39.73174286 -89.23116302 39.29918289
vertex 40.6255722 -89.09342957 44.71484756
vertex 38.14702606 -88.94858551 40.41147232

endloop
endfacet
facet normal -0.1402456462 -0.9887823462 0.05138770491
outer loop
vertex 39.73174286 -89.23116302 39.29918289
vertex 38.14702606 -88.94858551 40.41147232
vertex 37.01140594 -89.03172302 35.71247482

endloop
endfacet
facet normal -0.1820978522 -0.9813632965 0.06137097999
outer loop
vertex 37.01140594 -89.03172302 35.71247482
vertex 38.14702606 -88.94858551 40.41147232
vertex 35.51561737 -88.67391968 36.99573898

endloop
endfacet
facet normal -0.2054484785 -0.9781031013 0.03324417397
outer loop
vertex 37.01140594 -89.03172302 35.71247482
vertex 35.51561737 -88.67391968 36.99573898
vertex 34.31200409 -88.54504395 33.34918213

endloop
endfacet
facet normal -0.2527339458 -0.96628052 0.04926944524
outer loop
vertex 34.31200409 -88.54504395 33.34918213
vertex 35.51561737 -88.67391968 36.99573898
vertex 32.98334503 -88.12133789 34.84344864

endloop
endfacet
facet normal -0.5567645431 -0.7846810818 -0.272559911
outer loop
vertex 34.31200409 -88.54504395 33.34918213
vertex 32.98334503 -88.12133789 34.84344482
vertex 32.31931305 -86.44228363 31.36599731

endloop
endfacet
facet normal -0.4281167984 -0.8431284428 -0.3253464699
outer loop
vertex 32.31931305 -86.44228363 31.36599731
vertex 32.98334503 -88.12133789 34.84344482
vertex 30.89395905 -86.56009674 33.5469017

endloop
endfacet
facet normal -0.638168335 -0.6241179109 -0.450796932
outer loop
vertex 32.31931305 -86.44228363 31.36599731
vertex 30.89395905 -86.56009674 33.5469017
vertex 30.08739471 -83.18383789 30.01435852

endloop
endfacet
facet normal -0.5990678072 -0.6427286267 -0.4775119424
outer loop
vertex 30.08739471 -83.18383789 30.01435852
vertex 30.89395905 -86.56009674 33.5469017
vertex 28.80869293 -83.88457489 32.56175613

endloop
endfacet
facet normal -0.5295578241 -0.7116901875 -0.4615903497
outer loop
vertex 30.08739471 -83.18383789 30.01435852
vertex 28.80869293 -83.88457489 32.56175613
vertex 25.21839142 -79.20817566 29.470541

endloop
endfacet
facet normal -0.4835488796 -0.7098162174 -0.5121927261
outer loop
vertex 25.21839142 -79.20817566 29.470541
vertex 28.80869293 -83.88457489 32.56175613
vertex 24.45845795 -80.59000397 32.10296631

endloop
endfacet
facet normal 0.2390193492 -0.8864533305 -0.3963209689
outer loop
vertex 25.21837616 -79.20818329 29.470541
vertex 24.45842743 -80.5900116 32.10296249
vertex 17.67139435 -82.04243469 31.25837708

endloop
endfacet
facet normal 0.1293391883 0 -0.9916004539
outer loop
vertex 17.67139435 -82.04243469 31.25837708
vertex 24.45842743 -80.5900116 32.10296249
vertex 17.67140961 -82.04243469 31.25837898

endloop
endfacet
facet normal 0.9939142466 -0.02671697363 0.1068678945
outer loop
vertex 45.23558807 -81.9609375 63.27626038
vertex 45.23558807 -81.96095276 63.27625656
vertex 45.73712921 -83.3015213 58.27658081

endloop
endfacet
facet normal -0.1064179614 -0.9630158544 0.2475392222
outer loop
vertex 45.73712921 -83.3015213 58.27658081
vertex 45.23558807 -81.96095276 63.27625656
vertex 44.6211319 -83.07774353 58.6673851

endloop
endfacet
facet normal 0.09116208553 -0.7293996215 0.6779865623
outer loop
vertex 45.73712921 -83.3015213 58.27658081
vertex 44.6211319 -83.07774353 58.6673851
vertex 45.32802582 -85.67263031 55.78067398

endloop
endfacet
facet normal 0.6955114603 -0.4413131177 0.5670155883
outer loop
vertex 45.32802582 -85.67263031 55.78067398
vertex 44.6211319 -83.07774353 58.6673851
vertex 44.49292755 -85.96757507 56.57546234

endloop
endfacet
facet normal 0.5592041612 -0.7724987864 0.3008925915
outer loop
vertex 45.32802582 -85.67263031 55.78067398
vertex 44.49292755 -85.96757507 56.57546234
vertex 44.39914703 -87.47063446 52.89086151

endloop
endfacet
facet normal 0.700050652 -0.6672502756 0.254373759
outer loop
vertex 44.39914703 -87.47063446 52.89086151
vertex 44.49292755 -85.96757507 56.57546234
vertex 43.50258636 -88.01032257 53.94258499

endloop
endfacet
facet normal 0.5494163036 -0.8345862031 0.04009496421
outer loop
vertex 44.39914703 -87.47063446 52.89086151
vertex 43.50258636 -88.01032257 53.94258499
vertex 42.79114532 -88.71144867 49.09726715

endloop
endfacet
facet normal 0.2776944041 -0.9557070732 0.09751846641
outer loop
vertex 42.79114532 -88.71144867 49.09726715
vertex 43.50258636 -88.01032257 53.94258499
vertex 41.47327423 -89.00504303 49.97274399

endloop
endfacet
facet normal 0.206719473 -0.9782546163 -0.0168827232
outer loop
vertex 42.79114532 -88.71144867 49.09726715
vertex 41.47327423 -89.00504303 49.97274399
vertex 40.62555695 -89.09343719 44.71484375

endloop
endfacet
facet normal 0.2791575789 -0.9598112106 -0.02887178771
outer loop
vertex 40.62555695 -89.09343719 44.71484375
vertex 41.47327423 -89.00504303 49.97274399
vertex 39.19103241 -89.53552246 45.54125595

endloop
endfacet
facet normal 0.2094162554 -0.9657634497 -0.1531200409
outer loop
vertex 40.6255722 -89.09342957 44.71484756
vertex 39.19106293 -89.53551483 45.54125977
vertex 38.14702606 -88.94858551 40.41147232

endloop
endfacet
facet normal 0.2389719039 -0.9580441713 -0.1582521051
outer loop
vertex 38.14702606 -88.94858551 40.41147232
vertex 39.19106293 -89.53551483 45.54125977
vertex 36.76180267 -89.44007874 41.29514313

endloop
endfacet
facet normal 0.1942388564 -0.9544734359 -0.2263886034
outer loop
vertex 38.14702606 -88.94858551 40.41147232
vertex 36.76180267 -89.44007874 41.29514313
vertex 35.51561737 -88.67391968 36.99573898

endloop
endfacet
facet normal 0.1010516435 -0.9739807844 -0.2028544545
outer loop
vertex 35.51561737 -88.67391968 36.99573898
vertex 36.76180267 -89.44007874 41.29514313
vertex 34.24169159 -89.00489807 37.95028687

endloop
endfacet
facet normal 0.03431785107 -0.9575493932 -0.2862190604
outer loop
vertex 35.51561737 -88.67391968 36.99573898
vertex 34.24169159 -89.00489807 37.95028687
vertex 32.98334503 -88.12133789 34.84344864

endloop
endfacet
facet normal 0.02070291713 -0.9594154954 -0.2812353075
outer loop
vertex 32.98334503 -88.12133789 34.84344864
vertex 34.24169159 -89.00489807 37.95028687
vertex 31.8154068 -88.43195343 35.81711578

endloop
endfacet
facet normal -0.2501450777 -0.7944084406 -0.5534822941
outer loop
vertex 32.98334503 -88.12133789 34.84344482
vertex 31.8154068 -88.43195343 35.81711578
vertex 30.89395905 -86.56009674 33.5469017

endloop
endfacet
facet normal -0.06949493289 -0.7833482027 -0.6176860929
outer loop
vertex 30.89395905 -86.56009674 33.5469017
vertex 31.8154068 -88.43195343 35.81711578
vertex 29.64267731 -87.20739746 34.50858688

endloop
endfacet
facet normal -0.3212262094 -0.5374557376 -0.779714644
outer loop
vertex 30.89395905 -86.56009674 33.5469017
vertex 29.64267731 -87.20739746 34.50858688
vertex 28.80869293 -83.88457489 32.56175613

endloop
endfacet
facet normal -0.3058714867 -0.5372770429 -0.7859873176
outer loop
vertex 28.80869293 -83.88457489 32.56175613
vertex 29.64267731 -87.20739746 34.50858688
vertex 27.43463898 -85.12412262 33.94379425

endloop
endfacet
facet normal -0.3165998757 -0.5278021693 -0.7881557345
outer loop
vertex 28.80869293 -83.88457489 32.56175613
vertex 27.43463898 -85.12412262 33.94379425
vertex 24.45845795 -80.59000397 32.10296631

endloop
endfacet
facet normal -0.2493510842 -0.5003097653 -0.8291647434
outer loop
vertex 24.45845795 -80.59000397 32.10296631
vertex 27.43463898 -85.12412262 33.94379425
vertex 23.26064301 -82.47592163 33.60112381

endloop
endfacet
facet normal 0.2330522537 -0.6913245916 -0.6839275956
outer loop
vertex 24.45842743 -80.5900116 32.10296249
vertex 23.26062775 -82.47592926 33.60112
vertex 17.67140961 -82.04243469 31.25837898

endloop
endfacet
facet normal 0.3539583087 -0.2762601376 -0.8935288787
outer loop
vertex 17.67140961 -82.04243469 31.25837898
vertex 23.26062775 -82.47592926 33.60112
vertex 17.67139435 -82.04244232 31.25837517

endloop
endfacet
facet normal -0.985920012 -0.07478190213 0.1495638043
outer loop
vertex 45.23558807 -81.96095276 63.27625656
vertex 45.23558807 -81.96094513 63.27626038
vertex 44.6211319 -83.07774353 58.6673851

endloop
endfacet
facet normal 0.7304859757 -0.6796045303 0.06728964299
outer loop
vertex 44.6211319 -83.07774353 58.6673851
vertex 45.23558807 -81.96094513 63.27626038
vertex 44.26195526 -83.37078094 59.60696411

endloop
endfacet
facet normal 0.9288916588 -0.2433221638 0.2792034745
outer loop
vertex 44.6211319 -83.07774353 58.6673851
vertex 44.26195526 -83.37078094 59.60696411
vertex 44.49292755 -85.96757507 56.57546234

endloop
endfacet
facet normal 0.9814491272 -0.1021258682 0.1622586399
outer loop
vertex 44.49292755 -85.96757507 56.57546234
vertex 44.26195526 -83.37078094 59.60696411
vertex 44.19330597 -86.78960419 57.87038803

endloop
endfacet
facet normal 0.9177647233 -0.3952488601 -0.03855351359
outer loop
vertex 44.49292755 -85.96757507 56.57546234
vertex 44.19330597 -86.78960419 57.87038803
vertex 43.50258636 -88.01032257 53.94258499

endloop
endfacet
facet normal 0.849265039 -0.5277626514 0.01467627846
outer loop
vertex 43.50258636 -88.01032257 53.94258499
vertex 44.19330597 -86.78960419 57.87038803
vertex 42.94631195 -88.87541962 55.02313614

endloop
endfacet
facet normal 0.7029479146 -0.6861039996 -0.1874178648
outer loop
vertex 43.50258636 -88.01032257 53.94258499
vertex 42.94631195 -88.87541962 55.02313614
vertex 41.47327423 -89.00504303 49.97274399

endloop
endfacet
facet normal 0.5147928596 -0.8476458788 -0.1283928901
outer loop
vertex 41.47327423 -89.00504303 49.97274399
vertex 42.94631195 -88.87541962 55.02313614
vertex 40.5223465 -89.69571686 50.71979523

endloop
endfacet
facet normal 0.498281002 -0.8531404734 -0.1544908285
outer loop
vertex 41.47327423 -89.00504303 49.97274399
vertex 40.5223465 -89.69571686 50.71979523
vertex 39.19103241 -89.53552246 45.54125595

endloop
endfacet
facet normal 0.5430486202 -0.823315084 -0.1650772095
outer loop
vertex 39.19103241 -89.53552246 45.54125595
vertex 40.5223465 -89.69571686 50.71979523
vertex 38.2687912 -90.25970459 46.11921692

endloop
endfacet
facet normal 0.4725741148 -0.8325308561 -0.289078027
outer loop
vertex 39.19106293 -89.53551483 45.54125977
vertex 38.26880646 -90.25970459 46.11922073
vertex 36.76180267 -89.44007874 41.29514313

endloop
endfacet
facet normal 0.5163324475 -0.8029697537 -0.2977252305
outer loop
vertex 36.76180267 -89.44007874 41.29514313
vertex 38.26880646 -90.25970459 46.11922073
vertex 35.85540009 -90.24903107 41.90496445

endloop
endfacet
facet normal 0.4264594018 -0.7983472347 -0.4251753092
outer loop
vertex 36.76180267 -89.44007874 41.29514313
vertex 35.85540009 -90.24903107 41.90496445
vertex 34.24169159 -89.00489807 37.95028687

endloop
endfacet
facet normal 0.4613095522 -0.7749453783 -0.432033807
outer loop
vertex 34.24169159 -89.00489807 37.95028687
vertex 35.85540009 -90.24903107 41.90496445
vertex 33.26616669 -89.86808777 38.45697403

endloop
endfacet
facet normal 0.3433714509 -0.7328512073 -0.5873884559
outer loop
vertex 34.24169159 -89.00489807 37.95028687
vertex 33.26616669 -89.86808777 38.45697403
vertex 31.8154068 -88.43195343 35.81711578

endloop
endfacet
facet normal 0.4824889898 -0.6304035783 -0.6081083417
outer loop
vertex 31.8154068 -88.43195343 35.81711578
vertex 33.26616669 -89.86808777 38.45697403
vertex 30.81014252 -89.34598541 35.96705627

endloop
endfacet
facet normal 0.2699331343 -0.437580198 -0.8577059507
outer loop
vertex 31.8154068 -88.43195343 35.81711578
vertex 30.81014252 -89.34597778 35.96705627
vertex 29.64267731 -87.20739746 34.50858688

endloop
endfacet
facet normal 0.3066534996 -0.4163298309 -0.8559398651
outer loop
vertex 29.64267731 -87.20739746 34.50858688
vertex 30.81014252 -89.34597778 35.96705627
vertex 28.49614716 -88.21729279 34.58903885

endloop
endfacet
facet normal 0.08553683758 -0.1752439141 -0.980802238
outer loop
vertex 29.64267731 -87.20739746 34.50858688
vertex 28.49614716 -88.21729279 34.58903885
vertex 27.43463898 -85.12412262 33.94379425

endloop
endfacet
facet normal -0.2381114513 -0.2759670615 -0.931206286
outer loop
vertex 27.43463898 -85.12412262 33.94379425
vertex 28.49614716 -88.21729279 34.58903885
vertex 26.12226105 -86.57746124 34.71007538

endloop
endfacet
facet normal -0.1482413709 -0.353181541 -0.9237354994
outer loop
vertex 27.43463898 -85.12412262 33.94379425
vertex 26.12226105 -86.57746124 34.71007538
vertex 23.26064301 -82.47592163 33.60112381

endloop
endfacet
facet normal -0.2855136395 -0.4306824505 -0.8561510444
outer loop
vertex 23.26064301 -82.47592163 33.60112381
vertex 26.12226105 -86.57746124 34.71007538
vertex 22.27194977 -84.27284241 34.8347702

endloop
endfacet
facet normal 0.254802078 -0.6386666894 -0.7260721922
outer loop
vertex 23.26062775 -82.47592926 33.60112
vertex 22.27194977 -84.27285004 34.83476639
vertex 17.67139435 -82.04244232 31.25837517

endloop
endfacet
facet normal -nan(ind) -nan(ind) -nan(ind)
outer loop
vertex 17.67139435 -82.04244232 31.25837517
vertex 22.27194977 -84.27285004 34.83476639
vertex 17.67139435 -82.04244232 31.25837517

endloop
endfacet
facet normal -nan(ind) -nan(ind) -nan(ind)
outer loop
vertex 45.23558807 -81.96094513 63.27626038
vertex 45.23558807 -81.96094513 63.27626038
vertex 44.26195526 -83.37078094 59.60696411

endloop
endfacet
facet normal 0.4809488058 -0.8535529375 0.2003387064
outer loop
vertex 44.26195526 -83.37078094 59.60696411
vertex 45.23558807 -81.96094513 63.27626038
vertex 43.5286026 -83.56332397 60.54716873

endloop
endfacet
facet normal 0.7818077207 -0.2947822511 0.5494362712
outer loop
vertex 44.26195526 -83.37078094 59.60696411
vertex 43.5286026 -83.56332397 60.54716873
vertex 44.19330597 -86.78960419 57.87038803

endloop
endfacet
facet normal 0.7635321021 -0.3118563294 0.5654771328
outer loop
vertex 44.19330597 -86.78960419 57.87038803
vertex 43.5286026 -83.56332397 60.54716873
vertex 43.11759186 -87.19705963 59.09815598

endloop
endfacet
facet normal 0.6039325595 -0.7455940247 0.2817001641
outer loop
vertex 44.19330597 -86.78960419 57.87038803
vertex 43.11759186 -87.19705963 59.09815598
vertex 42.94631195 -88.87541962 55.02313614

endloop
endfacet
facet normal 0.3428496718 -0.8735898137 0.3453909457
outer loop
vertex 42.94631195 -88.87541962 55.02313614
vertex 43.11759186 -87.19705963 59.09815598
vertex 41.39002228 -89.13890076 55.90155792

endloop
endfacet
facet normal 0.2050950229 -0.9761956334 0.07055620104
outer loop
vertex 42.94631195 -88.87541962 55.02313614
vertex 41.39002228 -89.13890076 55.90155792
vertex 40.5223465 -89.69571686 50.71979523

endloop
endfacet
facet normal 0.5798582435 -0.814661324 -0.009555137716
outer loop
vertex 40.5223465 -89.69571686 50.71979523
vertex 41.39002228 -89.13890076 55.90155792
vertex 39.57700348 -90.37572479 51.32797623

endloop
endfacet
facet normal 0.5131516457 -0.8454915881 -0.1477137506
outer loop
vertex 40.5223465 -89.69571686 50.71979523
vertex 39.57700348 -90.37572479 51.32797623
vertex 38.2687912 -90.25970459 46.11921692

endloop
endfacet
facet normal 0.8022629619 -0.5573309064 -0.2139073461
outer loop
vertex 38.2687912 -90.25970459 46.11921692
vertex 39.57700348 -90.37572479 51.32797623
vertex 37.76506805 -91.1374588 46.51696396

endloop
endfacet
facet normal 0.7024654746 -0.5860990286 -0.4037700295
outer loop
vertex 38.26880646 -90.25970459 46.11922073
vertex 37.76508331 -91.13745117 46.51696777
vertex 35.85540009 -90.24903107 41.90496445

endloop
endfacet
facet normal 0.701146245 -0.5878235102 -0.4035559595
outer loop
vertex 35.85540009 -90.24903107 41.90496445
vertex 37.76508331 -91.13745117 46.51696777
vertex 35.28423309 -91.20657349 42.30737305

endloop
endfacet
facet normal 0.6144509912 -0.5877140164 -0.5263479352
outer loop
vertex 35.85540009 -90.24903107 41.90496445
vertex 35.28423309 -91.20657349 42.30737305
vertex 33.26616669 -89.86808777 38.45697403

endloop
endfacet
facet normal 0.6253867149 -0.5748954415 -0.5276235938
outer loop
vertex 33.26616669 -89.86808777 38.45697403
vertex 35.28423309 -91.20657349 42.30737305
vertex 32.50536346 -90.89527893 38.67442322

endloop
endfacet
facet normal 0.5411675572 -0.5376928449 -0.6465479732
outer loop
vertex 33.26616669 -89.86808777 38.45697403
vertex 32.50536346 -90.89527893 38.67442322
vertex 30.81014252 -89.34598541 35.96705627

endloop
endfacet
facet normal 0.6878013611 -0.3544287682 -0.6334899068
outer loop
vertex 30.81014252 -89.34598541 35.96705627
vertex 32.50536346 -90.89527893 38.67442322
vertex 30.02825165 -90.3864975 35.70028305

endloop
endfacet
facet normal 0.4628992081 -0.1227713674 -0.8778675795
outer loop
vertex 30.81014252 -89.34597778 35.96705627
vertex 30.02825165 -90.38648987 35.70028305
vertex 28.49614716 -88.21729279 34.58903885

endloop
endfacet
facet normal 0.4442082644 -0.1396155059 -0.8849782944
outer loop
vertex 28.49614716 -88.21729279 34.58903885
vertex 30.02825165 -90.38648987 35.70028305
vertex 27.62348175 -89.26577759 34.31642151

endloop
endfacet
facet normal 0.07994640619 0.1879874766 -0.9789123535
outer loop
vertex 28.49614716 -88.21729279 34.58903885
vertex 27.62348175 -89.26577759 34.31642151
vertex 26.12226105 -86.57746124 34.71007538

endloop
endfacet
facet normal -0.2261694074 0.01631857641 -0.9739512205
outer loop
vertex 26.12226105 -86.57746124 34.71007538
vertex 27.62348175 -89.26577759 34.31642151
vertex 25.10004425 -87.92873383 34.92481232

endloop
endfacet
facet normal -0.08705985546 -0.09177850187 -0.9919663668
outer loop
vertex 26.12226105 -86.57746124 34.71007538
vertex 25.10004425 -87.92873383 34.92481232
vertex 22.27194977 -84.27284241 34.8347702

endloop
endfacet
facet normal -0.3380862474 -0.2836352587 -0.8973565698
outer loop
vertex 22.27194977 -84.27284241 34.8347702
vertex 25.10004425 -87.92873383 34.92481232
vertex 21.50577545 -85.88912201 35.63430405

endloop
endfacet
facet normal 0.3368608952 -0.5409186482 -0.7706696987
outer loop
vertex 22.27194977 -84.27285004 34.83476639
vertex 21.50576019 -85.88912964 35.63430023
vertex 17.67139435 -82.04244232 31.25837517

endloop
endfacet
facet normal -0.7071067691 -0.7071067691 0
outer loop
vertex 17.67139435 -82.04244232 31.25837517
vertex 21.50576019 -85.88912964 35.63430023
vertex 17.67139435 -82.04244232 31.25837708

endloop
endfacet
facet normal -nan(ind) -nan(ind) -nan(ind)
outer loop
vertex 45.23558807 -81.96094513 63.27626038
vertex 45.23558807 -81.96094513 63.27626038
vertex 43.5286026 -83.56332397 60.54716873

endloop
endfacet
facet normal 0.5811619163 -0.8063288331 0.1099301055
outer loop
vertex 43.5286026 -83.56332397 60.54716873
vertex 45.23558807 -81.96094513 63.27626038
vertex 42.83602142 -83.88310242 61.86305237

endloop
endfacet
facet normal 0.8792530298 -0.2589010298 0.3998553455
outer loop
vertex 43.5286026 -83.56332397 60.54716873
vertex 42.83602142 -83.88310242 61.86305237
vertex 43.11759186 -87.19705963 59.09815598

endloop
endfacet
facet normal 0.8549124002 -0.2875886261 0.4317610264
outer loop
vertex 43.11759186 -87.19705963 59.09815598
vertex 42.83602142 -83.88310242 61.86305237
vertex 42.40294647 -87.7285614 60.15917206

endloop
endfacet
facet normal 0.6718857884 -0.7358856201 0.08391533792
outer loop
vertex 43.11759186 -87.19705963 59.09815598
vertex 42.40294647 -87.7285614 60.15917206
vertex 41.39002228 -89.13890076 55.90155792

endloop
endfacet
facet normal 0.5610057712 -0.8164023161 0.1369659305
outer loop
vertex 41.39002228 -89.13890076 55.90155792
vertex 42.40294647 -87.7285614 60.15917206
vertex 40.34052277 -89.72161865 56.72689438

endloop
endfacet
facet normal 0.5049281716 -0.8625267148 0.0330921188
outer loop
vertex 41.39002228 -89.13890076 55.90155792
vertex 40.34052277 -89.72161865 56.72689438
vertex 39.57700348 -90.37572479 51.32797623

endloop
endfacet
facet normal 0.8241541982 -0.56431216 -0.0481832847
outer loop
vertex 39.57700348 -90.37572479 51.32797623
vertex 40.34052277 -89.72161865 56.72689438
vertex 38.91405487 -91.39831543 51.96488571

endloop
endfacet
facet normal 0.7651643753 -0.6149078608 -0.1908189207
outer loop
vertex 39.57700348 -90.37572479 51.32797623
vertex 38.91405487 -91.39831543 51.96488571
vertex 37.76506805 -91.1374588 46.51696396

endloop
endfacet
facet normal 0.917362988 -0.3383505642 -0.2096761018
outer loop
vertex 37.76506805 -91.1374588 46.51696396
vertex 38.91405487 -91.39831543 51.96488571
vertex 37.40131378 -92.3794632 46.9296875

endloop
endfacet
facet normal 0.7970187068 -0.3873886466 -0.463347882
outer loop
vertex 37.76508331 -91.13745117 46.51696777
vertex 37.4013443 -92.3794632 46.92969131
vertex 35.28423309 -91.20657349 42.30737305

endloop
endfacet
facet normal 0.7609138489 -0.4538809657 -0.4636832476
outer loop
vertex 35.28423309 -91.20657349 42.30737305
vertex 37.4013443 -92.3794632 46.92969131
vertex 34.78379059 -92.37151337 42.62644958

endloop
endfacet
facet normal 0.6896836758 -0.4513662159 -0.5662199855
outer loop
vertex 35.28423309 -91.20657349 42.30737305
vertex 34.78379059 -92.37151337 42.62644958
vertex 32.50536346 -90.89527893 38.67442322

endloop
endfacet
facet normal 0.6483394504 -0.5107883215 -0.5645806193
outer loop
vertex 32.50536346 -90.89527893 38.67442322
vertex 34.78379059 -92.37151337 42.62644958
vertex 31.8115921 -91.89260101 38.78002548

endloop
endfacet
facet normal 0.6229252815 -0.4972716868 -0.6038915515
outer loop
vertex 32.50536346 -90.89527893 38.67442322
vertex 31.8115921 -91.89260101 38.78002548
vertex 30.02825165 -90.3864975 35.70028305

endloop
endfacet
facet normal 0.7450742722 -0.3173609376 -0.5866398811
outer loop
vertex 30.02825165 -90.3864975 35.70028305
vertex 31.8115921 -91.89260101 38.78002548
vertex 29.41234589 -91.27728271 35.39993668

endloop
endfacet
facet normal 0.4842532873 -0.04014075175 -0.8740065694
outer loop
vertex 30.02825165 -90.38648987 35.70028305
vertex 29.41233063 -91.27728271 35.39993668
vertex 27.62348175 -89.26577759 34.31642151

endloop
endfacet
facet normal 0.5559132695 0.0473504886 -0.8298905492
outer loop
vertex 27.62348175 -89.26577759 34.31642151
vertex 29.41233063 -91.27728271 35.39993668
vertex 27.07112885 -90.10321045 33.89863968

endloop
endfacet
facet normal 0.01547643077 0.4381687939 -0.8987594843
outer loop
vertex 27.62348175 -89.26577759 34.31642151
vertex 27.07112885 -90.10321045 33.89863968
vertex 25.10004425 -87.92873383 34.92481232

endloop
endfacet
facet normal 0.02415536344 0.4444802701 -0.8954629302
outer loop
vertex 25.10004425 -87.92873383 34.92481232
vertex 27.07112885 -90.10321045 33.89863968
vertex 24.47188568 -88.90789795 34.42184067

endloop
endfacet
facet normal 0.06232373416 0.4241051078 -0.903465867
outer loop
vertex 25.10004425 -87.92873383 34.92481232
vertex 24.47188568 -88.90789795 34.42184067
vertex 21.50577545 -85.88912201 35.63430405

endloop
endfacet
facet normal -0.1184213981 0.2676931322 -0.9561991692
outer loop
vertex 21.50577545 -85.88912201 35.63430405
vertex 24.47188568 -88.90789795 34.42184067
vertex 20.87004852 -87.08995056 35.37685776

endloop
endfacet
facet normal 0.6513655186 -0.1871962696 -0.7353098392
outer loop
vertex 21.50576019 -85.88912964 35.63430023
vertex 20.87003326 -87.08995819 35.37685776
vertex 17.67139435 -82.04244232 31.25837708

endloop
endfacet
facet normal -0.346762538 -0.715197742 -0.6068344116
outer loop
vertex 17.67139435 -82.04244232 31.25837708
vertex 20.87003326 -87.08995819 35.37685776
vertex 17.67137909 -82.04243469 31.25837708

endloop
endfacet
facet normal -nan(ind) -nan(ind) -nan(ind)
outer loop
vertex 45.23558807 -81.96094513 63.27626038
vertex 45.23558807 -81.96094513 63.27626038
vertex 42.83602142 -83.88310242 61.86305237

endloop
endfacet
facet normal 0.7039141059 -0.604221046 -0.3733924031
outer loop
vertex 42.83602142 -83.88310242 61.86305237
vertex 45.23558807 -81.96094513 63.27626038
vertex 43.14037323 -84.84697723 63.9965477

endloop
endfacet
facet normal 0.9864323139 -0.04061141238 -0.1590660959
outer loop
vertex 42.83602142 -83.88310242 61.86305237
vertex 43.14037323 -84.84697723 63.9965477
vertex 42.40294647 -87.7285614 60.15917206

endloop
endfacet
facet normal 0.8819009066 0.2796929777 -0.3795031607
outer loop
vertex 42.40294647 -87.7285614 60.15917206
vertex 43.14037323 -84.84697723 63.9965477
vertex 43.33254242 -89.15750122 61.26626968

endloop
endfacet
facet normal 0.8242588639 0.1051707789 -0.5563600659
outer loop
vertex 42.40294647 -87.7285614 60.15917206
vertex 43.33254242 -89.15750122 61.26626968
vertex 40.34052277 -89.72161865 56.72689438

endloop
endfacet
facet normal 0.8141004443 0.1642635763 -0.5570080876
outer loop
vertex 40.34052277 -89.72161865 56.72689438
vertex 43.33254242 -89.15750122 61.26626968
vertex 41.31822968 -91.53691864 57.62053299

endloop
endfacet
facet normal 0.882180512 0.2940738201 -0.3678016961
outer loop
vertex 40.34052277 -89.72161865 56.72689438
vertex 41.31822968 -91.53691864 57.62053299
vertex 38.91405487 -91.39831543 51.96488571

endloop
endfacet
facet normal 0.8827439547 -0.2736318409 -0.3819539547
outer loop
vertex 38.91405487 -91.39831543 51.96488571
vertex 41.31822968 -91.53691864 57.62053299
vertex 38.73383331 -93.04864502 52.73066711

endloop
endfacet
facet normal 0.9459586143 -0.2156737447 -0.2421717346
outer loop
vertex 38.91405487 -91.39831543 51.96488571
vertex 38.73383331 -93.04864502 52.73066711
vertex 37.40131378 -92.3794632 46.9296875

endloop
endfacet
facet normal 0.9155156016 -0.3175765872 -0.2469339669
outer loop
vertex 37.40131378 -92.3794632 46.9296875
vertex 38.73383331 -93.04864502 52.73066711
vertex 36.94814301 -94.1140976 47.48041916

endloop
endfacet
facet normal 0.7961304784 -0.3619592488 -0.4849348366
outer loop
vertex 37.4013443 -92.3794632 46.92969131
vertex 36.94815826 -94.11408997 47.48042297
vertex 34.78379059 -92.37151337 42.62644958

endloop
endfacet
facet normal 0.809491694 -0.3359160423 -0.4815430045
outer loop
vertex 34.78379059 -92.37151337 42.62644958
vertex 36.94815826 -94.11408997 47.48042297
vertex 34.24036407 -94.04470062 42.88011551

endloop
endfacet
facet normal 0.7274308205 -0.3276615441 -0.6028949618
outer loop
vertex 34.78379059 -92.37151337 42.62644958
vertex 34.24036407 -94.04470062 42.88011551
vertex 31.8115921 -91.89260101 38.78002548

endloop
endfacet
facet normal 0.7129845619 -0.3513759673 -0.6067849994
outer loop
vertex 31.8115921 -91.89260101 38.78002548
vertex 34.24036407 -94.04470062 42.88011551
vertex 31.06746674 -93.30176544 38.72167969

endloop
endfacet
facet normal 0.7283889055 -0.3605096936 -0.5826510787
outer loop
vertex 31.8115921 -91.89260101 38.78002548
vertex 31.06746674 -93.30176544 38.72167969
vertex 29.41234589 -91.27728271 35.39993668

endloop
endfacet
facet normal 0.7487363219 -0.3305835426 -0.5745506883
outer loop
vertex 29.41234589 -91.27728271 35.39993668
vertex 31.06746674 -93.30176544 38.72167969
vertex 28.64833832 -92.46173859 35.08581543

endloop
endfacet
facet normal 0.5026043653 -0.09634270519 -0.8591314554
outer loop
vertex 29.41233063 -91.27728271 35.39993668
vertex 28.64833832 -92.46174622 35.08581543
vertex 27.07112885 -90.10321045 33.89863968

endloop
endfacet
facet normal 0.6252087951 0.02545558102 -0.7800422907
outer loop
vertex 27.07112885 -90.10321045 33.89863968
vertex 28.64833832 -92.46174622 35.08581543
vertex 26.43642426 -91.12384033 33.35661316

endloop
endfacet
facet normal 0.02972430177 0.4543434978 -0.8903304935
outer loop
vertex 27.07112885 -90.10321045 33.89863968
vertex 26.43642426 -91.12384033 33.35661316
vertex 24.47188568 -88.90789795 34.42184067

endloop
endfacet
facet normal 0.3088054657 0.6203509569 -0.7209742665
outer loop
vertex 24.47188568 -88.90789795 34.42184067
vertex 26.43642426 -91.12384033 33.35661316
vertex 23.95157623 -89.81161499 33.42139435

endloop
endfacet
facet normal 0.160685271 0.6894110441 -0.7063233256
outer loop
vertex 24.47188568 -88.90789795 34.42184067
vertex 23.95157623 -89.81161499 33.42139435
vertex 20.87004852 -87.08995056 35.37685776

endloop
endfacet
facet normal 0.3102519214 0.7608128786 -0.5700066686
outer loop
vertex 20.87004852 -87.08995056 35.37685776
vertex 23.95157623 -89.81161499 33.42139435
vertex 20.34975433 -87.77009583 34.18584442

endloop
endfacet
facet normal 0.8662474155 0.16383183 -0.4719898105
outer loop
vertex 20.87003326 -87.08995819 35.37685776
vertex 20.34972382 -87.77010345 34.18584442
vertex 17.67137909 -82.04243469 31.25837708

endloop
endfacet
facet normal 0 0.4569086432 0.8895136118
outer loop
vertex 17.67137909 -82.04243469 31.25837708
vertex 20.34972382 -87.77010345 34.18584442
vertex 17.67140961 -82.04243469 31.25837708

endloop
endfacet
facet normal -0.6784453392 0.3285458684 -0.6570917368
outer loop
vertex 45.23558807 -81.96094513 63.27626038
vertex 45.23558807 -81.96095276 63.27625656
vertex 43.14037323 -84.84697723 63.9965477

endloop
endfacet
facet normal 0.6886758208 -0.6011479497 -0.4053970575
outer loop
vertex 43.14037323 -84.84697723 63.9965477
vertex 45.23558807 -81.96095276 63.27625656
vertex 43.48731232 -85.85745239 66.08431244

endloop
endfacet
facet normal 0.9875369072 0.1132515296 -0.1092926338
outer loop
vertex 43.14037323 -84.84697723 63.9965477
vertex 43.48731232 -85.85745239 66.08431244
vertex 43.33254242 -89.15750122 61.26626968

endloop
endfacet
facet normal 0.9994058609 -0.03316034004 -0.009391205385
outer loop
vertex 43.33254242 -89.15750122 61.26626968
vertex 43.48731232 -85.85745239 66.08431244
vertex 43.30292511 -90.42658997 62.5955658

endloop
endfacet
facet normal 0.9017737508 -0.322473526 -0.2877759337
outer loop
vertex 43.33254242 -89.15750122 61.26626968
vertex 43.30292511 -90.42658997 62.5955658
vertex 41.31822968 -91.53691864 57.62053299

endloop
endfacet
facet normal 0.8999328613 -0.3296042085 -0.2854501009
outer loop
vertex 41.31822968 -91.53691864 57.62053299
vertex 43.30292511 -90.42658997 62.5955658
vertex 41.05129242 -93.21303558 58.71434784

endloop
endfacet
facet normal 0.865464747 -0.3630851209 -0.3451666236
outer loop
vertex 41.31822968 -91.53691864 57.62053299
vertex 41.05129242 -93.21303558 58.71434784
vertex 38.73383331 -93.04864502 52.73066711

endloop
endfacet
facet normal 0.8426721692 -0.4192135036 -0.3378811777
outer loop
vertex 38.73383331 -93.04864502 52.73066711
vertex 41.05129242 -93.21303558 58.71434784
vertex 38.12360382 -95.06293488 53.70791626

endloop
endfacet
facet normal 0.8959212303 -0.3816772103 -0.2272614241
outer loop
vertex 38.73383331 -93.04864502 52.73066711
vertex 38.12360382 -95.06293488 53.70791626
vertex 36.94814301 -94.1140976 47.48041916

endloop
endfacet
facet normal 0.911786139 -0.3438715339 -0.2244958133
outer loop
vertex 36.94814301 -94.1140976 47.48041916
vertex 38.12360382 -95.06293488 53.70791626
vertex 36.26526642 -96.4053421 48.21654129

endloop
endfacet
facet normal 0.7918481827 -0.3876226842 -0.471937716
outer loop
vertex 36.94815826 -94.11408997 47.48042297
vertex 36.26528168 -96.40533447 48.2165451
vertex 34.24036407 -94.04470062 42.88011551

endloop
endfacet
facet normal 0.8697274327 -0.2350175977 -0.4339824915
outer loop
vertex 34.24036407 -94.04470062 42.88011551
vertex 36.26528168 -96.40533447 48.2165451
vertex 33.61431122 -96.56075287 42.98800278

endloop
endfacet
facet normal 0.7575354576 -0.2149235457 -0.616399169
outer loop
vertex 34.24036407 -94.04470062 42.88011551
vertex 33.61431122 -96.56075287 42.98800278
vertex 31.06746674 -93.30176544 38.72167969

endloop
endfacet
facet normal 0.7800188065 -0.1763854921 -0.6003822088
outer loop
vertex 31.06746674 -93.30176544 38.72167969
vertex 33.61431122 -96.56075287 42.98800278
vertex 30.23778534 -95.78598022 38.37358856

endloop
endfacet
facet normal 0.7976613641 -0.1860161424 -0.5737023354
outer loop
vertex 31.06746674 -93.30176544 38.72167969
vertex 30.23778534 -95.78598022 38.37358856
vertex 28.64833832 -92.46173859 35.08581543

endloop
endfacet
facet normal 0.7028912306 -0.3012200594 -0.6443682313
outer loop
vertex 28.64833832 -92.46173859 35.08581543
vertex 30.23778534 -95.78598022 38.37358856
vertex 27.42586517 -94.67459106 34.78674698

endloop
endfacet
facet normal 0.5341274142 -0.1835421026 -0.8252395391
outer loop
vertex 28.64833832 -92.46174622 35.08581543
vertex 27.42586517 -94.67459106 34.78674316
vertex 26.43642426 -91.12384033 33.35661316

endloop
endfacet
facet normal 0.5901561975 -0.1546755135 -0.7923327684
outer loop
vertex 26.43642426 -91.12384033 33.35661316
vertex 27.42586517 -94.67459106 34.78674316
vertex 25.28983307 -93.19151306 32.90623474

endloop
endfacet
facet normal 0.06756869704 0.176427424 -0.9819917679
outer loop
vertex 26.43642426 -91.12384033 33.35661316
vertex 25.28983307 -93.19151306 32.90623474
vertex 23.95157623 -89.81161499 33.42139435

endloop
endfacet
facet normal 0.3857255578 0.2864028513 -0.8770343065
outer loop
vertex 23.95157623 -89.81161499 33.42139435
vertex 25.28983307 -93.19151306 32.90623474
vertex 23.12108612 -91.46424103 32.51646042

endloop
endfacet
facet normal 0.06790027022 0.4527088702 -0.8890693188
outer loop
vertex 23.95157623 -89.81161499 33.42139435
vertex 23.12108612 -91.46424103 32.51646042
vertex 20.34975433 -87.77009583 34.18584442

endloop
endfacet
facet normal 0.4247611761 0.6177259088 -0.6618101597
outer loop
vertex 20.34975433 -87.77009583 34.18584442
vertex 23.12108612 -91.46424103 32.51646042
vertex 19.69747162 -88.57520294 33.01572037

endloop
endfacet
facet normal 0.8329468966 0.1125859544 -0.5417783856
outer loop
vertex 20.34972382 -87.77010345 34.18584442
vertex 19.69745636 -88.57521057 33.01572037
vertex 17.67140961 -82.04243469 31.25837708

endloop
endfacet
facet normal 0.2137340307 -0.19196482 -0.9578450918
outer loop
vertex 17.67140961 -82.04243469 31.25837708
vertex 19.69745636 -88.57521057 33.01572037
vertex 17.67139435 -82.04244232 31.25837517

endloop
endfacet
facet normal 0.9249412417 -0.1699903756 0.3399807513
outer loop
vertex 45.23558807 -81.96095276 63.27625656
vertex 45.23558807 -81.96094513 63.27626038
vertex 43.48731232 -85.85745239 66.08431244

endloop
endfacet
facet normal 0.7000671625 -0.5967373848 -0.3921869099
outer loop
vertex 43.48731232 -85.85745239 66.08431244
vertex 45.23558807 -81.96094513 63.27626038
vertex 43.78585052 -86.96330261 68.29983521

endloop
endfacet
facet normal 0.9927654862 0.04494871199 -0.1113380045
outer loop
vertex 43.48731232 -85.85745239 66.08431244
vertex 43.78585052 -86.96330261 68.29983521
vertex 43.30292511 -90.42658997 62.5955658

endloop
endfacet
facet normal 0.9560428858 -0.2794761658 0.08874210715
outer loop
vertex 43.30292511 -90.42658997 62.5955658
vertex 43.78585052 -86.96330261 68.29983521
vertex 42.66226959 -92.05031586 64.38391113

endloop
endfacet
facet normal 0.8573085666 -0.4947949052 -0.1421267837
outer loop
vertex 43.30292511 -90.42658997 62.5955658
vertex 42.66226959 -92.05031586 64.38391113
vertex 41.05129242 -93.21303558 58.71434784

endloop
endfacet
facet normal 0.8904156685 -0.4237567484 -0.1661025882
outer loop
vertex 41.05129242 -93.21303558 58.71434784
vertex 42.66226959 -92.05031586 64.38391113
vertex 40.15354156 -95.7481842 60.36943817

endloop
endfacet
facet normal 0.8205399513 -0.4864819646 -0.3000825346
outer loop
vertex 41.05129242 -93.21303558 58.71434784
vertex 40.15354156 -95.7481842 60.36943817
vertex 38.12360382 -95.06293488 53.70791626

endloop
endfacet
facet normal 0.9149856567 -0.2631247342 -0.3058865666
outer loop
vertex 38.12360382 -95.06293488 53.70791626
vertex 40.15354156 -95.7481842 60.36943817
vertex 37.60738373 -98.53295135 55.14868927

endloop
endfacet
facet normal 0.9348812699 -0.2455184907 -0.2563545704
outer loop
vertex 38.12360382 -95.06293488 53.70791626
vertex 37.60738373 -98.53295135 55.14868927
vertex 36.26526642 -96.4053421 48.21654129

endloop
endfacet
facet normal 0.9121620655 -0.3074669838 -0.2709691226
outer loop
vertex 36.26526642 -96.4053421 48.21654129
vertex 37.60738373 -98.53295135 55.14868927
vertex 35.39980316 -99.92512512 49.29701233

endloop
endfacet
facet normal 0.8440884352 -0.3358613551 -0.4179854691
outer loop
vertex 36.26528168 -96.40533447 48.2165451
vertex 35.39980316 -99.92512512 49.29701614
vertex 33.61431122 -96.56075287 42.98800278

endloop
endfacet
facet normal 0.8784582615 -0.2713364959 -0.3933035433
outer loop
vertex 33.61431122 -96.56075287 42.98800278
vertex 35.39980316 -99.92512512 49.29701614
vertex 32.67220306 -100.0368423 43.28189087

endloop
endfacet
facet normal 0.7590461373 -0.2563175857 -0.5984566212
outer loop
vertex 33.61431122 -96.56075287 42.98800278
vertex 32.67220306 -100.0368423 43.28189087
vertex 30.23778534 -95.78598022 38.37358856

endloop
endfacet
facet normal 0.8362303376 -0.1348488331 -0.5315397978
outer loop
vertex 30.23778534 -95.78598022 38.37358856
vertex 32.67220306 -100.0368423 43.28189087
vertex 29.43926239 -99.17246246 37.97646713

endloop
endfacet
facet normal 0.766255796 -0.1063726768 -0.6336693764
outer loop
vertex 30.23778534 -95.78598022 38.37358856
vertex 29.43926239 -99.17246246 37.97646713
vertex 27.42586517 -94.67459106 34.78674698

endloop
endfacet
facet normal 0.760399282 -0.113146089 -0.6395239234
outer loop
vertex 27.42586517 -94.67459106 34.78674698
vertex 29.43926239 -99.17246246 37.97646713
vertex 26.51686859 -97.65065765 34.23247528

endloop
endfacet
facet normal 0.6391687393 -0.05232359469 -0.7672844529
outer loop
vertex 27.42586517 -94.67459106 34.78674316
vertex 26.51686859 -97.65065002 34.23247147
vertex 25.28983307 -93.19151306 32.90623474

endloop
endfacet
facet normal 0.674043119 -0.03399041295 -0.7379094958
outer loop
vertex 25.28983307 -93.19151306 32.90623474
vertex 26.51686859 -97.65065002 34.23247147
vertex 24.44263458 -95.73592377 32.24956512

endloop
endfacet
facet normal 0.2880912423 0.1482379436 -0.9460597634
outer loop
vertex 25.28983307 -93.19151306 32.90623474
vertex 24.44263458 -95.73592377 32.24956512
vertex 23.12108612 -91.46424103 32.51646042

endloop
endfacet
facet normal 0.4751997292 0.2005424798 -0.8567192554
outer loop
vertex 23.12108612 -91.46424103 32.51646042
vertex 24.44263458 -95.73592377 32.24956512
vertex 22.37230682 -93.37692261 31.65340805

endloop
endfacet
facet normal 0.1627689004 0.3521636128 -0.9216762185
outer loop
vertex 23.12108612 -91.46424103 32.51646042
vertex 22.37230682 -93.37692261 31.65340805
vertex 19.69747162 -88.57520294 33.01572037

endloop
endfacet
facet normal 0.4809862971 0.4766957462 -0.7358079553
outer loop
vertex 19.69747162 -88.57520294 33.01572037
vertex 22.37230682 -93.37692261 31.65340805
vertex 18.9537735 -89.44123077 31.9685173

endloop
endfacet
facet normal 0.7821219563 0.07620047033 -0.6184486151
outer loop
vertex 19.69745636 -88.57521057 33.01572037
vertex 18.9537735 -89.4412384 31.9685154
vertex 17.67139435 -82.04244232 31.25837517

endloop
endfacet
facet normal -0.9852423668 -0.1711649895 0
outer loop
vertex 17.67139435 -82.04244232 31.25837517
vertex 18.9537735 -89.4412384 31.9685154
vertex 17.67139435 -82.04244232 31.25837898

endloop
endfacet
facet normal 0.4799110591 -0.6870139837 -0.5456163287
outer loop
vertex 45.23558807 -81.96094513 63.27626038
vertex 45.23560333 -81.9609375 63.27626419
vertex 43.78585052 -86.96330261 68.29983521

endloop
endfacet
facet normal 0.398644954 -0.7048110366 -0.5867909193
outer loop
vertex 43.78585052 -86.96330261 68.29983521
vertex 45.23560333 -81.9609375 63.27626419
vertex 44.5162735 -88.31322479 70.4174881

endloop
endfacet
facet normal 0.9504165053 0.02846305445 -0.3096745014
outer loop
vertex 43.78585052 -86.96330261 68.29983521
vertex 44.5162735 -88.31322479 70.4174881
vertex 42.66226959 -92.05031586 64.38391113

endloop
endfacet
facet normal 0.9669765234 -0.1618080288 -0.1969125122
outer loop
vertex 42.66226959 -92.05031586 64.38391113
vertex 44.5162735 -88.31322479 70.4174881
vertex 42.66144562 -94.53814697 66.42417908

endloop
endfacet
facet normal 0.9083576798 -0.2653673291 -0.3232127428
outer loop
vertex 42.66226959 -92.05031586 64.38391113
vertex 42.66144562 -94.53814697 66.42417908
vertex 40.15354156 -95.7481842 60.36943817

endloop
endfacet
facet normal 0.9227138162 -0.1619088501 -0.3498352766
outer loop
vertex 40.15354156 -95.7481842 60.36943817
vertex 42.66144562 -94.53814697 66.42417908
vertex 40.19190216 -99.38026428 62.15159607

endloop
endfacet
facet normal 0.918341279 -0.1664863974 -0.3590703309
outer loop
vertex 40.15354156 -95.7481842 60.36943817
vertex 40.19190216 -99.38026428 62.15159607
vertex 37.60738373 -98.53295135 55.14868927

endloop
endfacet
facet normal 0.9360923767 -0.03632824495 -0.3498731554
outer loop
vertex 37.60738373 -98.53295135 55.14868927
vertex 40.19190216 -99.38026428 62.15159607
vertex 37.88269806 -102.6227417 56.30995178

endloop
endfacet
facet normal 0.9377800226 -0.03496301919 -0.3454651535
outer loop
vertex 37.60738373 -98.53295135 55.14868927
vertex 37.88269806 -102.6227417 56.30995178
vertex 35.39980316 -99.92512512 49.29701233

endloop
endfacet
facet normal 0.9144816995 -0.142660439 -0.3786436915
outer loop
vertex 35.39980316 -99.92512512 49.29701233
vertex 37.88269806 -102.6227417 56.30995178
vertex 35.05844879 -103.913002 49.97509003

endloop
endfacet
facet normal 0.9019613266 -0.1462849975 -0.4062836766
outer loop
vertex 35.39980316 -99.92512512 49.29701614
vertex 35.05846405 -103.913002 49.97509384
vertex 32.67220306 -100.0368423 43.28189087

endloop
endfacet
facet normal 0.9152588844 -0.1071439832 -0.3883571923
outer loop
vertex 32.67220306 -100.0368423 43.28189087
vertex 35.05846405 -103.913002 49.97509384
vertex 32.20716095 -103.8342667 43.23357773

endloop
endfacet
facet normal 0.842897296 -0.09648857266 -0.5293526053
outer loop
vertex 32.67220306 -100.0368423 43.28189087
vertex 32.20716095 -103.8342667 43.23357773
vertex 29.43926239 -99.17246246 37.97646713

endloop
endfacet
facet normal 0.9001751542 0.04608209431 -0.4330835044
outer loop
vertex 29.43926239 -99.17246246 37.97646713
vertex 32.20716095 -103.8342667 43.23357773
vertex 29.2685318 -102.8199844 37.23348618

endloop
endfacet
facet normal 0.8016610742 0.08305965364 -0.5919801593
outer loop
vertex 29.43926239 -99.17246246 37.97646713
vertex 29.2685318 -102.8199844 37.23348618
vertex 26.51686859 -97.65065765 34.23247528

endloop
endfacet
facet normal 0.8069378138 0.09071724117 -0.5836279988
outer loop
vertex 26.51686859 -97.65065765 34.23247528
vertex 29.2685318 -102.8199844 37.23348618
vertex 26.20812225 -101.1745148 33.25785828

endloop
endfacet
facet normal 0.7409195304 0.1179433689 -0.6611564159
outer loop
vertex 26.51686859 -97.65065002 34.23247147
vertex 26.20812225 -101.1745071 33.25785828
vertex 24.44263458 -95.73592377 32.24956512

endloop
endfacet
facet normal 0.6383334994 0.06501688808 -0.7670091987
outer loop
vertex 24.44263458 -95.73592377 32.24956512
vertex 26.20812225 -101.1745071 33.25785828
vertex 23.57331085 -99.29005432 31.22480965

endloop
endfacet
facet normal 0.4292532504 0.1517194957 -0.890349865
outer loop
vertex 24.44263458 -95.73592377 32.24956512
vertex 23.57331085 -99.29005432 31.22480965
vertex 22.37230682 -93.37692261 31.65340805

endloop
endfacet
facet normal 0.3971806169 0.1463395059 -0.9059978724
outer loop
vertex 22.37230682 -93.37692261 31.65340805
vertex 23.57331085 -99.29005432 31.22480965
vertex 20.63593292 -96.93547058 30.31741142

endloop
endfacet
facet normal 0.2057532519 0.2543749809 -0.9449650645
outer loop
vertex 22.37230682 -93.37692261 31.65340805
vertex 20.63593292 -96.93547058 30.31741142
vertex 18.9537735 -89.44123077 31.9685173

endloop
endfacet
facet normal 0.4608854651 0.2883631587 -0.8393040299
outer loop
vertex 18.9537735 -89.44123077 31.9685173
vertex 20.63593292 -96.93547058 30.31741142
vertex 17.19950104 -91.52890015 30.28792763

endloop
endfacet
facet normal 0.6637284756 0.0433694683 -0.7467152476
outer loop
vertex 18.9537735 -89.4412384 31.9685154
vertex 17.19947052 -91.52890778 30.28792572
vertex 17.67139435 -82.04244232 31.25837898

endloop
endfacet
facet normal 0.05368134007 -0.1042172909 0.9931048155
outer loop
vertex 17.67139435 -82.04244232 31.25837898
vertex 17.19947052 -91.52890778 30.28792572
vertex 17.67140961 -82.04243469 31.25837898

endloop
endfacet
facet normal -0.4787212908 0.6793875694 0.5561100841
outer loop
vertex 45.23560333 -81.9609375 63.27626419
vertex 45.23558807 -81.96094513 63.27626038
vertex 44.5162735 -88.31322479 70.4174881

endloop
endfacet
facet normal -0.1054774597 -0.7377066612 -0.6668307781
outer loop
vertex 44.5162735 -88.31322479 70.4174881
vertex 45.23558807 -81.96094513 63.27626038
vertex 46.87322235 -89.93321991 71.83685303

endloop
endfacet
facet normal 0.628667593 0.2784759104 -0.7261048555
outer loop
vertex 44.5162735 -88.31322479 70.4174881
vertex 46.87322235 -89.93321991 71.83685303
vertex 42.66144562 -94.53814697 66.42417908

endloop
endfacet
facet normal 0.7078394294 0.1610133201 -0.6877776384
outer loop
vertex 42.66144562 -94.53814697 66.42417908
vertex 46.87322235 -89.93321991 71.83685303
vertex 44.85604095 -97.40195465 68.01235199

endloop
endfacet
facet normal 0.7324719429 0.2005065978 -0.6506012082
outer loop
vertex 42.66144562 -94.53814697 66.42417908
vertex 44.85604095 -97.40195465 68.01235199
vertex 40.19190216 -99.38026428 62.15159607

endloop
endfacet
facet normal 0.6914876699 0.3069705665 -0.6539219618
outer loop
vertex 40.19190216 -99.38026428 62.15159607
vertex 44.85604095 -97.40195465 68.01235199
vertex 42.66796112 -102.9870911 63.07674408

endloop
endfacet
facet normal 0.7615702152 0.3900593519 -0.5175562501
outer loop
vertex 40.19190216 -99.38026428 62.15159607
vertex 42.66796112 -102.9870911 63.07674408
vertex 37.88269806 -102.6227417 56.30995178

endloop
endfacet
facet normal 0.7245034575 0.4887424409 -0.4860303402
outer loop
vertex 37.88269806 -102.6227417 56.30995178
vertex 42.66796112 -102.9870911 63.07674408
vertex 40.03942108 -105.9127045 56.21656036

endloop
endfacet
facet normal 0.7471725345 0.5021654963 -0.4353884459
outer loop
vertex 37.88269806 -102.6227417 56.30995178
vertex 40.03942108 -105.9127045 56.21656036
vertex 35.05844879 -103.913002 49.97509003

endloop
endfacet
facet normal 0.7516486049 0.4882731736 -0.4434115291
outer loop
vertex 35.05844879 -103.913002 49.97509003
vertex 40.03942108 -105.9127045 56.21656036
vertex 36.75972748 -107.155304 49.2886734

endloop
endfacet
facet normal 0.8036522269 0.492428869 -0.3341510296
outer loop
vertex 35.05846405 -103.913002 49.97509384
vertex 36.75974274 -107.155304 49.28867722
vertex 32.20716095 -103.8342667 43.23357773

endloop
endfacet
facet normal 0.822314918 0.4124018252 -0.392075181
outer loop
vertex 32.20716095 -103.8342667 43.23357773
vertex 36.75974274 -107.155304 49.28867722
vertex 33.43531036 -107.2794495 42.1856308

endloop
endfacet
facet normal 0.8457645774 0.406591922 -0.3454930186
outer loop
vertex 32.20716095 -103.8342667 43.23357773
vertex 33.43531036 -107.2794495 42.1856308
vertex 29.2685318 -102.8199844 37.23348618

endloop
endfacet
facet normal 0.8472834826 0.3828626275 -0.3681395948
outer loop
vertex 29.2685318 -102.8199844 37.23348618
vertex 33.43531036 -107.2794495 42.1856308
vertex 30.32813263 -106.4247055 35.9233017

endloop
endfacet
facet normal 0.7990763783 0.398512125 -0.4501832724
outer loop
vertex 29.2685318 -102.8199844 37.23348618
vertex 30.32813263 -106.4247055 35.9233017
vertex 26.20812225 -101.1745148 33.25785828

endloop
endfacet
facet normal 0.8040972948 0.4147876501 -0.4258858562
outer loop
vertex 26.20812225 -101.1745148 33.25785828
vertex 30.32813263 -106.4247055 35.9233017
vertex 27.24462128 -104.7789841 31.70428848

endloop
endfacet
facet normal 0.7242157459 0.4378621876 -0.5327177644
outer loop
vertex 26.20812225 -101.1745071 33.25785828
vertex 27.24462128 -104.7789841 31.70428658
vertex 23.57331085 -99.29005432 31.22480965

endloop
endfacet
facet normal 0.6964986324 0.4147053361 -0.5855845213
outer loop
vertex 23.57331085 -99.29005432 31.22480965
vertex 27.24462128 -104.7789841 31.70428658
vertex 23.92209625 -102.6553955 29.25635529

endloop
endfacet
facet normal 0.575535059 0.4565135241 -0.678494513
outer loop
vertex 23.57331085 -99.29005432 31.22480965
vertex 23.92209625 -102.6553955 29.25635529
vertex 20.63593292 -96.93547058 30.31741142

endloop
endfacet
facet normal 0.6525864601 0.4831885993 -0.5836606622
outer loop
vertex 20.63593292 -96.93547058 30.31741142
vertex 23.92209625 -102.6553955 29.25635529
vertex 20.38170624 -99.3240509 28.05575562

endloop
endfacet
facet normal 0.7060927153 0.4457942843 -0.5501823425
outer loop
vertex 20.63593292 -96.93547058 30.31741142
vertex 20.38170624 -99.3240509 28.05575562
vertex 17.19950104 -91.52890015 30.28792763

endloop
endfacet
facet normal 0.7929763794 0.443372488 -0.4178628623
outer loop
vertex 17.19950104 -91.52890015 30.28792763
vertex 20.38170624 -99.3240509 28.05575562
vertex 16.48291779 -92.43825531 27.96320152

endloop
endfacet
facet normal 0.9574548602 -0.01816899702 -0.2880104482
outer loop
vertex 17.19947052 -91.52890778 30.28792572
vertex 16.48291779 -92.43826294 27.96320152
vertex 17.67140961 -82.04243469 31.25837898

endloop
endfacet
facet normal -0.04847322032 0.3044724166 -0.9512869716
outer loop
vertex 17.67140961 -82.04243469 31.25837898
vertex 16.48291779 -92.43826294 27.96320152
vertex 17.67139435 -82.04244232 31.25837708

endloop
endfacet
facet normal -nan(ind) -nan(ind) -nan(ind)
outer loop
vertex 45.23558807 -81.96094513 63.27626038
vertex 45.23558807 -81.96094513 63.27626038
vertex 46.87322235 -89.93321991 71.83685303

endloop
endfacet
facet normal -0.3166876733 -0.7235955 -0.6132851243
outer loop
vertex 46.87322235 -89.93321991 71.83685303
vertex 45.23558807 -81.96094513 63.27626038
vertex 57.15892792 -90.5165329 67.21376038

endloop
endfacet
facet normal -0.3314566314 0.4994083643 -0.8004547358
outer loop
vertex 46.87322235 -89.93321991 71.83685303
vertex 57.15892792 -90.5165329 67.21376038
vertex 44.85604095 -97.40195465 68.01235199

endloop
endfacet
facet normal -0.3313191533 0.4991363883 -0.800681293
outer loop
vertex 44.85604095 -97.40195465 68.01235199
vertex 57.15892792 -90.5165329 67.21376038
vertex 57.36928558 -97.02118683 63.07178116

endloop
endfacet
facet normal -0.2822519243 0.694981873 -0.6613123417
outer loop
vertex 44.85604095 -97.40195465 68.01235199
vertex 57.36928558 -97.02118683 63.07178116
vertex 42.66796112 -102.9870911 63.07674408

endloop
endfacet
facet normal -0.3175594807 0.7820916772 -0.5361796021
outer loop
vertex 42.66796112 -102.9870911 63.07674408
vertex 57.36928558 -97.02118683 63.07178116
vertex 56.03792572 -101.7862701 56.90976715

endloop
endfacet
facet normal -0.2250791639 0.9243866205 -0.3079754412
outer loop
vertex 42.66796112 -102.9870911 63.07674408
vertex 56.03792572 -101.7862701 56.90976715
vertex 40.03942108 -105.9127045 56.21656036

endloop
endfacet
facet normal -0.2308445275 0.9382746816 -0.2575877309
outer loop
vertex 40.03942108 -105.9127045 56.21656036
vertex 56.03792572 -101.7862701 56.90976715
vertex 52.82382965 -104.5496445 49.72445679

endloop
endfacet
facet normal -0.1565761864 0.9823767543 -0.1020771563
outer loop
vertex 40.03942108 -105.9127045 56.21656036
vertex 52.82382965 -104.5496445 49.72445679
vertex 36.75972748 -107.155304 49.2886734

endloop
endfacet
facet normal -0.1584537774 0.9858943224 -0.05389699712
outer loop
vertex 36.75972748 -107.155304 49.2886734
vertex 52.82382965 -104.5496445 49.72445679
vertex 48.25330353 -105.678688 42.50883102

endloop
endfacet
facet normal -0.1080599502 0.9935895205 0.03320944682
outer loop
vertex 36.75974274 -107.155304 49.28867722
vertex 48.25331879 -105.678688 42.50883484
vertex 33.43531036 -107.2794495 42.1856308

endloop
endfacet
facet normal -0.1078644842 0.9939069748 0.02267556265
outer loop
vertex 33.43531036 -107.2794495 42.1856308
vertex 48.25331879 -105.678688 42.50883484
vertex 44.11908722 -105.9581451 35.0919342

endloop
endfacet
facet normal -0.02458100952 0.9888073802 0.1471584588
outer loop
vertex 33.43531036 -107.2794495 42.1856308
vertex 44.11908722 -105.9581451 35.0919342
vertex 30.32813263 -106.4247055 35.9233017

endloop
endfacet
facet normal -0.02668486908 0.9930486679 0.1146392152
outer loop
vertex 30.32813263 -106.4247055 35.9233017
vertex 44.11908722 -105.9581451 35.0919342
vertex 39.83509064 -105.3746643 29.04040337

endloop
endfacet
facet normal 0.1068599969 0.9502550364 0.2925686538
outer loop
vertex 30.32813263 -106.4247055 35.9233017
vertex 39.83509064 -105.3746643 29.04040337
vertex 27.24462128 -104.7789841 31.70428848

endloop
endfacet
facet normal 0.1195238009 0.9261089563 0.357821703
outer loop
vertex 27.24462128 -104.7789841 31.70428848
vertex 39.83509064 -105.3746643 29.04040337
vertex 35.10128021 -103.2868652 25.21803474

endloop
endfacet
facet normal 0.2141383439 0.8628423214 0.4578731656
outer loop
vertex 27.24462128 -104.7789841 31.70428658
vertex 35.10128021 -103.2868576 25.21803284
vertex 23.92209625 -102.6553955 29.25635529

endloop
endfacet
facet normal 0.2671795487 0.7335426807 0.6249240637
outer loop
vertex 23.92209625 -102.6553955 29.25635529
vertex 35.10128021 -103.2868576 25.21803284
vertex 31.691185 -99.26922607 21.96004295

endloop
endfacet
facet normal 0.3647186458 0.6335265636 0.6823666692
outer loop
vertex 23.92209625 -102.6553955 29.25635529
vertex 31.691185 -99.26922607 21.96004295
vertex 20.38170624 -99.3240509 28.05575562

endloop
endfacet
facet normal 0.3798320889 0.5929321051 0.7100417018
outer loop
vertex 20.38170624 -99.3240509 28.05575562
vertex 31.691185 -99.26922607 21.96004295
vertex 27.27420807 -94.00010681 19.9228096

endloop
endfacet
facet normal 0.5923631191 0.3451853991 0.7279785872
outer loop
vertex 20.38170624 -99.3240509 28.05575562
vertex 27.27420807 -94.00010681 19.9228096
vertex 16.48291779 -92.43825531 27.96320152

endloop
endfacet
facet normal 0.5191787481 0.6334444284 0.5737608671
outer loop
vertex 16.48291779 -92.43825531 27.96320152
vertex 27.27420807 -94.00010681 19.9228096
vertex 19.50292206 -87.91100311 20.23230743

endloop
endfacet
facet normal 0.9470776916 -0.1902302206 0.2585657239
outer loop
vertex 16.48291779 -92.43826294 27.96320152
vertex 19.5029068 -87.91101074 20.23230743
vertex 17.67139435 -82.04244232 31.25837708

endloop
endfacet
facet normal -nan(ind) -nan(ind) -nan(ind)
outer loop
vertex 17.67139435 -82.04244232 31.25837708
vertex 19.5029068 -87.91101074 20.23230743
vertex 17.67139435 -82.04244232 31.25837708

endloop
endfacet
endsolid
