solid 
facet normal -0.941779 0 0.336232
outer loop
vertex 66.11049652 -31.00763702 7.47996521
vertex 66.11049652 -31.00762177 7.47996521
vertex 64.28258514 -40.56578827 2.360029936

endloop
endfacet
facet normal -0.9002975225 0.3264176548 -0.2879509628
outer loop
vertex 64.28258514 -40.56578827 2.360029936
vertex 66.11049652 -31.00762177 7.47996521
vertex 67.73442841 -35.37393951 -2.546967983

endloop
endfacet
facet normal 0.4856102467 0.4078954458 0.7731778622
outer loop
vertex 64.28258514 -40.56578827 2.360029936
vertex 67.73442841 -35.37393951 -2.546967983
vertex 56.82559967 -38.82593536 6.12567091

endloop
endfacet
facet normal 0.5556548834 0.2422319651 0.7953435779
outer loop
vertex 56.82559967 -38.82593536 6.12567091
vertex 67.73442841 -35.37393951 -2.546967983
vertex 59.96668243 -33.26235199 2.236741066

endloop
endfacet
facet normal 0.6622482538 0.1405584961 0.7359827757
outer loop
vertex 56.82559967 -38.82593536 6.12567091
vertex 59.96668243 -33.26235199 2.236741066
vertex 50.67520905 -36.7372818 11.2609911

endloop
endfacet
facet normal 0.690726757 0.02943911217 0.7225163579
outer loop
vertex 50.67520905 -36.7372818 11.2609911
vertex 59.96668243 -33.26235199 2.236741066
vertex 53.69371796 -29.29940033 8.0722332

endloop
endfacet
facet normal 0.8252196312 -0.09629815072 0.5565422773
outer loop
vertex 50.67520905 -36.7372818 11.2609911
vertex 53.69371796 -29.29940033 8.0722332
vertex 46.64139557 -33.0603714 17.87838936

endloop
endfacet
facet normal 0.8301788568 -0.1927557886 0.5231142044
outer loop
vertex 46.64139557 -33.0603714 17.87838936
vertex 53.69371796 -29.29940033 8.0722332
vertex 50.23145294 -25.13852692 15.10001278

endloop
endfacet
facet normal 0.9041205049 -0.4250423014 -0.04364948347
outer loop
vertex 46.64139557 -33.0603714 17.87838936
vertex 50.23145294 -25.13852692 15.10001278
vertex 49.24983978 -28.33402252 25.88420105

endloop
endfacet
facet normal 0.9876948595 -0.1496058851 0.04557314888
outer loop
vertex 49.24983978 -28.33402252 25.88420105
vertex 50.23145294 -25.13852692 15.10001278
vertex 50.25701141 -22.2508316 24.02571297

endloop
endfacet
facet normal 0.9653628469 -0.2079675347 -0.1575568318
outer loop
vertex 49.24985504 -28.33400726 25.88419724
vertex 50.25702667 -22.2508316 24.02571297
vertex 51.34217072 -25.06841278 34.39354706

endloop
endfacet
facet normal 0.941690743 0.3364038765 -0.007139853202
outer loop
vertex 51.34217072 -25.06841278 34.39354706
vertex 50.25702667 -22.2508316 24.02571297
vertex 49.28733063 -19.34157562 33.20394516

endloop
endfacet
facet normal 0.9431397915 0.3298093379 -0.04138950258
outer loop
vertex 51.34217072 -25.06841278 34.39354706
vertex 49.28733063 -19.34157562 33.20394516
vertex 51.23484039 -23.82241058 41.87649918

endloop
endfacet
facet normal 0.9035585523 0.4280749261 0.01826958917
outer loop
vertex 51.23484039 -23.82241058 41.87649918
vertex 49.28733063 -19.34157562 33.20394516
vertex 47.94019318 -16.83971405 41.20814133

endloop
endfacet
facet normal 0.9039574862 0.4274986684 0.01028233487
outer loop
vertex 51.23484039 -23.82241058 41.87649918
vertex 47.94019318 -16.83971405 41.20814133
vertex 51.11278534 -23.69348907 47.24676132

endloop
endfacet
facet normal 0.936095953 0.3326847851 -0.1142154783
outer loop
vertex 51.11278534 -23.69348907 47.24676132
vertex 47.94019318 -16.83971405 41.20814133
vertex 48.25102997 -15.67092133 47.16016006

endloop
endfacet
facet normal 0.9259046316 0.3322197795 0.1798071861
outer loop
vertex 51.11277008 -23.69348907 47.24676514
vertex 48.25104523 -15.67092133 47.16016388
vertex 50.61724091 -24.00669098 50.37714386

endloop
endfacet
facet normal 0.9666184783 0.2348516732 -0.1024373397
outer loop
vertex 50.61724091 -24.00669098 50.37714386
vertex 48.25104523 -15.67092133 47.16016388
vertex 48.48279572 -15.17737579 50.47852707

endloop
endfacet
facet normal 0.3173395693 0.06585256755 0.9460227489
outer loop
vertex 50.61724091 -24.00669098 50.37714386
vertex 48.48279572 -15.17737579 50.47852707
vertex 49.76303864 -24.33388519 50.68645859

endloop
endfacet
facet normal 0.9677615762 0.1304171979 -0.2154733837
outer loop
vertex 49.76303864 -24.33388519 50.68645859
vertex 48.48279572 -15.17737579 50.47852707
vertex 48.74547577 -15.03276825 51.74583435

endloop
endfacet
facet normal -0.7651546597 -0.1548886448 0.62493819
outer loop
vertex 49.76303864 -24.33388519 50.68645859
vertex 48.74547577 -15.03276825 51.74583435
vertex 49.4645462 -24.52770233 50.27295685

endloop
endfacet
facet normal 0.6759254932 0.1626894325 -0.7187885046
outer loop
vertex 49.4645462 -24.52770233 50.27295685
vertex 48.74547577 -15.03276825 51.74583435
vertex 49.41254425 -15.12543488 52.35214996

endloop
endfacet
facet normal 0.9299705029 -0.07446896285 0.3600128293
outer loop
vertex 49.46453094 -24.52771759 50.27295303
vertex 49.41252899 -15.12546539 52.35214615
vertex 44.52619171 -22.90914154 63.36427307

endloop
endfacet
facet normal 0.7177365422 -0.6763286591 -0.1656315178
outer loop
vertex 44.52619171 -22.90914154 63.36427307
vertex 49.41252899 -15.12546539 52.35214615
vertex 44.52620697 -22.90912628 63.36427689

endloop
endfacet
facet normal 0.01242265198 0.9175073504 -0.3975248635
outer loop
vertex 66.11049652 -31.00762177 7.47996521
vertex 66.11052704 -31.00762177 7.479966164
vertex 67.73442841 -35.37393951 -2.546967983

endloop
endfacet
facet normal -0.9320093393 0.251865238 -0.2606195509
outer loop
vertex 67.73442841 -35.37393951 -2.546967983
vertex 66.11052704 -31.00762177 7.479966164
vertex 68.97457123 -31.43325043 -3.17355895

endloop
endfacet
facet normal 0.5187739134 -0.02739344724 0.8544723988
outer loop
vertex 67.73442841 -35.37393951 -2.546967983
vertex 68.97457123 -31.43325043 -3.17355895
vertex 59.96668243 -33.26235199 2.236741066

endloop
endfacet
facet normal 0.5270186663 -0.09865231067 0.8441084623
outer loop
vertex 59.96668243 -33.26235199 2.236741066
vertex 68.97457123 -31.43325043 -3.17355895
vertex 62.29421234 -29.16477203 1.262439966

endloop
endfacet
facet normal 0.6138298512 -0.1651141047 0.7719781399
outer loop
vertex 59.96668243 -33.26235199 2.236741066
vertex 62.29421234 -29.16477203 1.262439966
vertex 53.69371796 -29.29940033 8.0722332

endloop
endfacet
facet normal 0.6207591295 -0.03137029335 0.7833735347
outer loop
vertex 53.69371796 -29.29940033 8.0722332
vertex 62.29421234 -29.16477203 1.262439966
vertex 56.05651093 -25.00211334 6.372000217

endloop
endfacet
facet normal 0.8105397224 -0.2330739796 0.5373098254
outer loop
vertex 53.69371796 -29.29940033 8.0722332
vertex 56.05651093 -25.00211334 6.372000217
vertex 50.23145294 -25.13852692 15.10001278

endloop
endfacet
facet normal 0.8180510402 -0.1895805299 0.5430026054
outer loop
vertex 50.23145294 -25.13852692 15.10001278
vertex 56.05651093 -25.00211334 6.372000217
vertex 52.28672028 -21.26639557 13.35557747

endloop
endfacet
facet normal 0.8989776373 -0.4174753726 0.1324898899
outer loop
vertex 50.23145294 -25.13852692 15.10001278
vertex 52.28672028 -21.26639557 13.35557747
vertex 50.25701141 -22.2508316 24.02571297

endloop
endfacet
facet normal 0.8808118701 -0.4565501511 0.1254292578
outer loop
vertex 50.25701141 -22.2508316 24.02571297
vertex 52.28672028 -21.26639557 13.35557747
vertex 52.14244843 -18.92606354 22.88728714

endloop
endfacet
facet normal 0.8785268068 -0.4207507372 0.2261846811
outer loop
vertex 50.25702667 -22.2508316 24.02571297
vertex 52.14246368 -18.92603302 22.88728333
vertex 49.28733063 -19.34157562 33.20394516

endloop
endfacet
facet normal 0.7687733769 -0.6112211943 0.1881385595
outer loop
vertex 49.28733063 -19.34157562 33.20394516
vertex 52.14246368 -18.92603302 22.88728333
vertex 51.87166595 -16.14812469 33.01863861

endloop
endfacet
facet normal 0.747892797 -0.5872846246 0.3094400764
outer loop
vertex 49.28733063 -19.34157562 33.20394516
vertex 51.87166595 -16.14812469 33.01863861
vertex 47.94019318 -16.83971405 41.20814133

endloop
endfacet
facet normal 0.674454093 -0.6888872981 0.2656047642
outer loop
vertex 47.94019318 -16.83971405 41.20814133
vertex 51.87166595 -16.14812469 33.01863861
vertex 50.86710358 -13.58106232 42.22761536

endloop
endfacet
facet normal 0.7254168987 -0.6815879941 0.09595884383
outer loop
vertex 47.94019318 -16.83971405 41.20814133
vertex 50.86710358 -13.58106232 42.22761536
vertex 48.25102997 -15.67092133 47.16016006

endloop
endfacet
facet normal 0.7680843472 -0.6241995692 0.1429031342
outer loop
vertex 48.25102997 -15.67092133 47.16016006
vertex 50.86710358 -13.58106232 42.22761536
vertex 50.34091949 -12.56027985 49.51454926

endloop
endfacet
facet normal 0.8198723793 -0.5718711615 0.02779644169
outer loop
vertex 48.25104523 -15.67092133 47.16016388
vertex 50.34093475 -12.56027985 49.51455307
vertex 48.48279572 -15.17737579 50.47852707

endloop
endfacet
facet normal 0.8288128376 -0.5493716598 0.106113866
outer loop
vertex 48.48279572 -15.17737579 50.47852707
vertex 50.34093475 -12.56027985 49.51455307
vertex 49.93732452 -12.3168869 53.92708206

endloop
endfacet
facet normal 0.9449697733 -0.2833516598 -0.1635356992
outer loop
vertex 48.48279572 -15.17737579 50.47852707
vertex 49.93732452 -12.3168869 53.92708206
vertex 48.74547577 -15.03276825 51.74583435

endloop
endfacet
facet normal 0.7929547429 -0.5531449914 0.2554473579
outer loop
vertex 48.74547577 -15.03276825 51.74583435
vertex 49.93732452 -12.3168869 53.92708206
vertex 49.43596649 -12.15259647 55.83914185

endloop
endfacet
facet normal 0.5721080303 0.6222385168 -0.5343329906
outer loop
vertex 48.74547577 -15.03276825 51.74583435
vertex 49.43596649 -12.15259647 55.83914185
vertex 49.41254425 -15.12543488 52.35214996

endloop
endfacet
facet normal 0.2898960412 -0.7292631269 0.6197867393
outer loop
vertex 49.41254425 -15.12543488 52.35214996
vertex 49.43596649 -12.15259647 55.83914185
vertex 48.90409088 -11.9516983 56.32430267

endloop
endfacet
facet normal 0.940182507 -0.1971199811 0.2778498828
outer loop
vertex 49.41252899 -15.12546539 52.35214615
vertex 48.90406036 -11.95171356 56.32430267
vertex 44.52620697 -22.90912628 63.36427689

endloop
endfacet
facet normal -0.5910804868 0.5910804868 0.5488604307
outer loop
vertex 44.52620697 -22.90912628 63.36427689
vertex 48.90406036 -11.95171356 56.32430267
vertex 44.52619171 -22.90914154 63.36427689

endloop
endfacet
facet normal -0.001237124321 -0.9992153645 0.03958797827
outer loop
vertex 66.11052704 -31.00762177 7.479966164
vertex 66.11049652 -31.00762177 7.47996521
vertex 68.97457123 -31.43325043 -3.17355895

endloop
endfacet
facet normal -0.9657626748 -0.0107990969 -0.2592024803
outer loop
vertex 68.97457123 -31.43325043 -3.17355895
vertex 66.11049652 -31.00762177 7.47996521
vertex 68.82033539 -27.80486298 -2.750061035

endloop
endfacet
facet normal 0.5336478949 -0.07562929392 0.8423182964
outer loop
vertex 68.97457123 -31.43325043 -3.17355895
vertex 68.82033539 -27.80486298 -2.750061035
vertex 62.29421234 -29.16477203 1.262439966

endloop
endfacet
facet normal 0.5371093154 -0.1099505126 0.8363160491
outer loop
vertex 62.29421234 -29.16477203 1.262439966
vertex 68.82033539 -27.80486298 -2.750061035
vertex 63.61785126 -25.68984222 0.869204998

endloop
endfacet
facet normal 0.5759463906 -0.1280159354 0.8074017763
outer loop
vertex 62.29421234 -29.16477203 1.262439966
vertex 63.61785126 -25.68984222 0.869204998
vertex 56.05651093 -25.00211334 6.372000217

endloop
endfacet
facet normal 0.5210841298 -0.38118276 0.7636563778
outer loop
vertex 56.05651093 -25.00211334 6.372000217
vertex 63.61785126 -25.68984222 0.869204998
vertex 58.83917999 -22.4444046 5.749927044

endloop
endfacet
facet normal 0.6083613634 -0.5149954557 0.6038842797
outer loop
vertex 56.05651093 -25.00211334 6.372000217
vertex 58.83917999 -22.4444046 5.749927044
vertex 52.28672028 -21.26639557 13.35557747

endloop
endfacet
facet normal 0.3915257156 -0.7965419888 0.4606825411
outer loop
vertex 52.28672028 -21.26639557 13.35557747
vertex 58.83917999 -22.4444046 5.749927044
vertex 55.87598419 -19.78174591 12.8721571

endloop
endfacet
facet normal 0.3981352448 -0.8894528747 0.2244146019
outer loop
vertex 52.28672028 -21.26639557 13.35557747
vertex 55.87598419 -19.78174591 12.8721571
vertex 52.14244843 -18.92606354 22.88728714

endloop
endfacet
facet normal 0.4512342811 -0.8590752482 0.2416139245
outer loop
vertex 52.14244843 -18.92606354 22.88728714
vertex 55.87598419 -19.78174591 12.8721571
vertex 55.09551239 -17.48088837 22.5106144

endloop
endfacet
facet normal 0.4511818886 -0.8575174212 0.2471815199
outer loop
vertex 52.14246368 -18.92603302 22.88728333
vertex 55.09552765 -17.48085785 22.51061249
vertex 51.87166595 -16.14812469 33.01863861

endloop
endfacet
facet normal 0.6003124714 -0.7494379282 0.2792270482
outer loop
vertex 51.87166595 -16.14812469 33.01863861
vertex 55.09552765 -17.48085785 22.51061249
vertex 54.38408661 -14.14528656 32.99272919

endloop
endfacet
facet normal 0.6010859013 -0.7504658103 0.274766773
outer loop
vertex 51.87166595 -16.14812469 33.01863861
vertex 54.38408661 -14.14528656 32.99272919
vertex 50.86710358 -13.58106232 42.22761536

endloop
endfacet
facet normal 0.6346250772 -0.7181255221 0.2855637968
outer loop
vertex 50.86710358 -13.58106232 42.22761536
vertex 54.38408661 -14.14528656 32.99272919
vertex 53.28191376 -11.18077946 42.89718628

endloop
endfacet
facet normal 0.6757887602 -0.7216930389 0.1498958021
outer loop
vertex 50.86710358 -13.58106232 42.22761536
vertex 53.28191376 -11.18077946 42.89718628
vertex 50.34091949 -12.56027985 49.51454926

endloop
endfacet
facet normal 0.6900758147 -0.7059358358 0.1595303565
outer loop
vertex 50.34091949 -12.56027985 49.51454926
vertex 53.28191376 -11.18077946 42.89718628
vertex 52.34731293 -10.24114227 51.09793854

endloop
endfacet
facet normal 0.7161116004 -0.6902580261 0.1035763845
outer loop
vertex 50.34093475 -12.56027985 49.51455307
vertex 52.34732819 -10.24114227 51.09794235
vertex 49.93732452 -12.3168869 53.92708206

endloop
endfacet
facet normal 0.72605443 -0.6767337322 0.1219689846
outer loop
vertex 49.93732452 -12.3168869 53.92708206
vertex 52.34732819 -10.24114227 51.09794235
vertex 51.39225006 -10.29538727 56.48233795

endloop
endfacet
facet normal 0.6295939088 -0.7424461842 0.2288782299
outer loop
vertex 49.93732452 -12.3168869 53.92708206
vertex 51.39225006 -10.29538727 56.48233795
vertex 49.43596649 -12.15259647 55.83914185

endloop
endfacet
facet normal 0.6101916432 -0.7403872013 0.2819450796
outer loop
vertex 49.43596649 -12.15259647 55.83914185
vertex 51.39225006 -10.29538727 56.48233795
vertex 50.10459137 -10.35031891 59.12486649

endloop
endfacet
facet normal 0.09109994769 -0.8808189034 0.4646062851
outer loop
vertex 49.43596649 -12.15259647 55.83914185
vertex 50.10459137 -10.35031891 59.12486649
vertex 48.90409088 -11.9516983 56.32430267

endloop
endfacet
facet normal 0.1796134859 -0.8851884604 0.4291623235
outer loop
vertex 48.90409088 -11.9516983 56.32430267
vertex 50.10459137 -10.35031891 59.12486649
vertex 48.46465302 -10.34947968 59.81294632

endloop
endfacet
facet normal 0.9459171295 -0.2327091694 0.226024583
outer loop
vertex 48.90406036 -11.95171356 56.32430267
vertex 48.4646225 -10.34951019 59.81294632
vertex 44.52619171 -22.90914154 63.36427689

endloop
endfacet
facet normal 0 -0.2691045403 -0.9631109834
outer loop
vertex 44.52619171 -22.90914154 63.36427689
vertex 48.4646225 -10.34951019 59.81294632
vertex 44.52620697 -22.90914154 63.36427689

endloop
endfacet
facet normal -0.7634118795 0.6459118724 0
outer loop
vertex 66.11049652 -31.00763702 7.47996521
vertex 66.11049652 -31.00763702 7.479966164
vertex 68.82030487 -27.80487823 -2.750061035

endloop
endfacet
facet normal -0.949973762 -0.1188330278 -0.2888399661
outer loop
vertex 68.82030487 -27.80487823 -2.750061035
vertex 66.11049652 -31.00763702 7.479966164
vertex 68.10173798 -24.85102081 -1.602007031

endloop
endfacet
facet normal 0.5015523434 -0.2046864629 0.8405646086
outer loop
vertex 68.82030487 -27.80487823 -2.750061035
vertex 68.10173798 -24.85102081 -1.602007031
vertex 63.617836 -25.68985748 0.869204998

endloop
endfacet
facet normal 0.4971154034 -0.1298673898 0.8579106927
outer loop
vertex 63.617836 -25.68985748 0.869204998
vertex 68.10173798 -24.85102081 -1.602007031
vertex 64.19231415 -23.08435822 0.930734992

endloop
endfacet
facet normal 0.649677217 -0.1607917547 0.743011117
outer loop
vertex 63.617836 -25.68985748 0.869204998
vertex 64.19231415 -23.08435822 0.930734992
vertex 58.83916473 -22.44443512 5.749927044

endloop
endfacet
facet normal 0.4893001616 -0.6088939905 0.6243664622
outer loop
vertex 58.83916473 -22.44443512 5.749927044
vertex 64.19231415 -23.08435822 0.930734992
vertex 60.81143951 -20.96172333 5.6502738

endloop
endfacet
facet normal 0.5417319536 -0.68816185 0.4826590121
outer loop
vertex 58.83916473 -22.44443512 5.749927044
vertex 60.81143951 -20.96172333 5.6502738
vertex 55.87596893 -19.78176117 12.8721571

endloop
endfacet
facet normal 0.2483282238 -0.9145938158 0.3191414773
outer loop
vertex 55.87596893 -19.78176117 12.8721571
vertex 60.81143951 -20.96172333 5.6502738
vertex 58.64363861 -19.06194305 12.78144741

endloop
endfacet
facet normal 0.2515836656 -0.9365862608 0.2439504713
outer loop
vertex 55.87596893 -19.78176117 12.8721571
vertex 58.64363861 -19.06194305 12.78144741
vertex 55.09549713 -17.48090363 22.51061249

endloop
endfacet
facet normal 0.3184846044 -0.9103969336 0.2640927136
outer loop
vertex 55.09549713 -17.48090363 22.51061249
vertex 58.64363861 -19.06194305 12.78144741
vertex 57.89664459 -16.55226898 22.33379555

endloop
endfacet
facet normal 0.3168784082 -0.8973833919 0.3070684969
outer loop
vertex 55.09551239 -17.48087311 22.51061249
vertex 57.89665985 -16.55225372 22.33379364
vertex 54.38407135 -14.14530182 32.99272537

endloop
endfacet
facet normal 0.3879325092 -0.8633159399 0.3227909803
outer loop
vertex 54.38407135 -14.14530182 32.99272537
vertex 57.89665985 -16.55225372 22.33379364
vertex 57.36188507 -12.80442047 33.00020218

endloop
endfacet
facet normal 0.390573144 -0.8690730333 0.3035865426
outer loop
vertex 54.38407135 -14.14530182 32.99272537
vertex 57.36188507 -12.80442047 33.00020218
vertex 53.28191376 -11.18077946 42.89718246

endloop
endfacet
facet normal 0.3530986309 -0.8890439868 0.2914141715
outer loop
vertex 53.28191376 -11.18077946 42.89718246
vertex 57.36188507 -12.80442047 33.00020218
vertex 56.4353714 -9.701087952 43.5904541

endloop
endfacet
facet normal 0.3930699527 -0.907394588 0.1487650424
outer loop
vertex 53.28191376 -11.18077946 42.89718246
vertex 56.4353714 -9.701087952 43.5904541
vertex 52.34731293 -10.24114227 51.09793472

endloop
endfacet
facet normal 0.3615433574 -0.9231826067 0.1304620802
outer loop
vertex 52.34731293 -10.24114227 51.09793472
vertex 56.4353714 -9.701087952 43.5904541
vertex 55.1299057 -8.905738831 52.83631897

endloop
endfacet
facet normal 0.4002124965 -0.9143376946 0.06177775934
outer loop
vertex 52.34732819 -10.24114227 51.09793854
vertex 55.12989044 -8.905738831 52.83632278
vertex 51.39225006 -10.29538727 56.48233414

endloop
endfacet
facet normal 0.3894995451 -0.9197362661 0.04873792082
outer loop
vertex 51.39225006 -10.29538727 56.48233414
vertex 55.12989044 -8.905738831 52.83632278
vertex 53.399086 -9.299415588 59.23931885

endloop
endfacet
facet normal 0.2975536883 -0.9464449883 0.125314787
outer loop
vertex 51.39225006 -10.29538727 56.48233414
vertex 53.399086 -9.299415588 59.23931885
vertex 50.10457611 -10.35033417 59.12486267

endloop
endfacet
facet normal 0.300309211 -0.9503350258 0.08171673864
outer loop
vertex 50.10457611 -10.35033417 59.12486267
vertex 53.399086 -9.299415588 59.23931885
vertex 51.01946259 -9.756538391 62.66827393

endloop
endfacet
facet normal 0.06214901432 -0.9868331552 0.1493244916
outer loop
vertex 50.10457611 -10.35033417 59.12486267
vertex 51.01946259 -9.756538391 62.66827393
vertex 48.46465302 -10.34949493 59.81294632

endloop
endfacet
facet normal 0.1654361635 -0.9846038818 0.05644515157
outer loop
vertex 48.46465302 -10.34949493 59.81294632
vertex 51.01946259 -9.756538391 62.66827393
vertex 47.83408356 -10.23387909 63.677845

endloop
endfacet
facet normal 0.9536346197 -0.2529064417 0.163154617
outer loop
vertex 48.4646225 -10.34952545 59.81293869
vertex 47.83405304 -10.23389435 63.67784119
vertex 44.52619171 -22.90914154 63.36426926

endloop
endfacet
facet normal 0.9678573608 -0.2514998913 0
outer loop
vertex 44.52619171 -22.90914154 63.36426926
vertex 47.83405304 -10.23389435 63.67784119
vertex 44.52619171 -22.90914154 63.36427689

endloop
endfacet
facet normal -0.9746829271 -0.01394725125 -0.22315602
outer loop
vertex 66.11049652 -31.00763702 7.479966164
vertex 66.11049652 -31.00762177 7.47996521
vertex 68.10173798 -24.85102081 -1.602007031

endloop
endfacet
facet normal -0.9780745506 0.009447632357 -0.2080404609
outer loop
vertex 68.10173798 -24.85102081 -1.602007031
vertex 66.11049652 -31.00762177 7.47996521
vertex 67.58000946 -23.42575836 0.9155550003

endloop
endfacet
facet normal -0.0859939307 -0.8745347261 0.4772776663
outer loop
vertex 68.10173798 -24.85102081 -1.602007031
vertex 67.58000946 -23.42575836 0.9155550003
vertex 64.19231415 -23.08435822 0.930734992

endloop
endfacet
facet normal -0.07235984504 -0.7473883629 0.6604351997
outer loop
vertex 64.19231415 -23.08435822 0.930734992
vertex 67.58000946 -23.42575836 0.9155550003
vertex 64.89684296 -21.87108612 2.380938053

endloop
endfacet
facet normal 0.2571296394 -0.7990172505 0.5435584188
outer loop
vertex 64.19231415 -23.08435822 0.930734992
vertex 64.89684296 -21.87108612 2.380938053
vertex 60.81143951 -20.96172333 5.6502738

endloop
endfacet
facet normal 0.07300842553 -0.9335618615 0.3509016335
outer loop
vertex 60.81143951 -20.96172333 5.6502738
vertex 64.89684296 -21.87108612 2.380938053
vertex 62.76198578 -20.50356293 6.463364124

endloop
endfacet
facet normal 0.1047005057 -0.9526101351 0.285607934
outer loop
vertex 60.81143951 -20.96172333 5.6502738
vertex 62.76198578 -20.50356293 6.463364124
vertex 58.64363861 -19.06194305 12.78144741

endloop
endfacet
facet normal 0.008974534459 -0.9736188054 0.2280040532
outer loop
vertex 58.64363861 -19.06194305 12.78144741
vertex 62.76198578 -20.50356293 6.463364124
vertex 61.37615204 -18.93709564 13.20701313

endloop
endfacet
facet normal 0.004559239838 -0.9670789242 0.2544357181
outer loop
vertex 58.64363861 -19.06194305 12.78144741
vertex 61.37615204 -18.93709564 13.20701313
vertex 57.89664459 -16.55226898 22.33379555

endloop
endfacet
facet normal 0.09068556875 -0.954528749 0.2839912772
outer loop
vertex 57.89664459 -16.55226898 22.33379555
vertex 61.37615204 -18.93709564 13.20701313
vertex 60.98009491 -16.23569489 22.41321564

endloop
endfacet
facet normal 0.08774652332 -0.9384322166 0.3341342509
outer loop
vertex 57.89665985 -16.55225372 22.33379364
vertex 60.98009491 -16.23566437 22.41321373
vertex 57.36188507 -12.80442047 33.00020218

endloop
endfacet
facet normal 0.05027673766 -0.9449155331 0.3234298229
outer loop
vertex 57.36188507 -12.80442047 33.00020218
vertex 60.98009491 -16.23566437 22.41321373
vertex 60.94121552 -12.56609344 33.14008331

endloop
endfacet
facet normal 0.05258552358 -0.9570671916 0.2850563824
outer loop
vertex 57.36188507 -12.80442047 33.00020218
vertex 60.94121552 -12.56609344 33.14008331
vertex 56.4353714 -9.701087952 43.5904541

endloop
endfacet
facet normal -0.08861004561 -0.9697046876 0.2276422977
outer loop
vertex 56.4353714 -9.701087952 43.5904541
vertex 60.94121552 -12.56609344 33.14008331
vertex 60.34822845 -9.86315155 44.42318344

endloop
endfacet
facet normal -0.05771183595 -0.9953229427 0.07747121155
outer loop
vertex 56.4353714 -9.701087952 43.5904541
vertex 60.34822845 -9.86315155 44.42318344
vertex 55.1299057 -8.905738831 52.83631897

endloop
endfacet
facet normal -0.1576764435 -0.9873834848 0.01456376165
outer loop
vertex 55.1299057 -8.905738831 52.83631897
vertex 60.34822845 -9.86315155 44.42318344
vertex 58.64818573 -9.438941956 54.77770996

endloop
endfacet
facet normal -0.1014276072 -0.9909127951 -0.08834156394
outer loop
vertex 55.12989044 -8.905738831 52.83632278
vertex 58.64818573 -9.438941956 54.77771378
vertex 53.399086 -9.299415588 59.23931885

endloop
endfacet
facet normal -0.1575354785 -0.9752983451 -0.1548410356
outer loop
vertex 53.399086 -9.299415588 59.23931885
vertex 58.64818573 -9.438941956 54.77771378
vertex 55.8922348 -10.16570282 62.15927505

endloop
endfacet
facet normal -0.1028164104 -0.9741357565 -0.2012170106
outer loop
vertex 53.399086 -9.299415588 59.23931885
vertex 55.8922348 -10.16570282 62.15927505
vertex 51.01946259 -9.756538391 62.66827393

endloop
endfacet
facet normal -0.1097777337 -0.9520323873 -0.2856274843
outer loop
vertex 51.01946259 -9.756538391 62.66827393
vertex 55.8922348 -10.16570282 62.15927505
vertex 52.11101532 -10.93102264 66.16345215

endloop
endfacet
facet normal 0.03722669557 -0.9436886907 -0.3287335932
outer loop
vertex 51.01946259 -9.756538391 62.66827393
vertex 52.11101532 -10.93102264 66.16345215
vertex 47.83408356 -10.23387909 63.677845

endloop
endfacet
facet normal 0.04527772591 -0.9388852715 -0.3412396312
outer loop
vertex 47.83408356 -10.23387909 63.677845
vertex 52.11101532 -10.93102264 66.16345215
vertex 47.10202789 -11.58364105 67.29444122

endloop
endfacet
facet normal 0.9621241093 -0.2535623908 0.100116007
outer loop
vertex 47.83405304 -10.23389435 63.67784119
vertex 47.10199738 -11.58365631 67.29444122
vertex 44.52619171 -22.90914154 63.36427689

endloop
endfacet
facet normal -0.2377607226 0.3615944386 -0.9015094042
outer loop
vertex 44.52619171 -22.90914154 63.36427689
vertex 47.10199738 -11.58365631 67.29444122
vertex 44.52620697 -22.90914154 63.36427307

endloop
endfacet
facet normal 0.9758473039 -0 0.2184537798
outer loop
vertex 66.11049652 -31.00762177 7.47996521
vertex 66.11049652 -31.00763702 7.47996521
vertex 67.58000946 -23.42575836 0.9155550003

endloop
endfacet
facet normal -0.9893672466 0.1172258109 -0.08608482778
outer loop
vertex 67.58000946 -23.42575836 0.9155550003
vertex 66.11049652 -31.00763702 7.47996521
vertex 67.23751068 -23.51665497 4.728092194

endloop
endfacet
facet normal -0.5275710225 -0.8468183279 -0.06758369505
outer loop
vertex 67.58000946 -23.42575836 0.9155550003
vertex 67.23751068 -23.51665497 4.728092194
vertex 64.89684296 -21.87108612 2.380938053

endloop
endfacet
facet normal -0.6707669497 -0.7238939404 0.1613976955
outer loop
vertex 64.89684296 -21.87108612 2.380938053
vertex 67.23751068 -23.51665497 4.728092194
vertex 65.88884735 -22.09549713 5.497178078

endloop
endfacet
facet normal -0.4343139231 -0.8977490067 0.07360683382
outer loop
vertex 64.89684296 -21.87108612 2.380938053
vertex 65.88884735 -22.09549713 5.497178078
vertex 62.76198578 -20.50356293 6.463364124

endloop
endfacet
facet normal -0.4040724337 -0.8983279467 0.1724309176
outer loop
vertex 62.76198578 -20.50356293 6.463364124
vertex 65.88884735 -22.09549713 5.497178078
vertex 64.83492279 -21.0561142 8.442385674

endloop
endfacet
facet normal -0.374430865 -0.9172106385 0.1361105293
outer loop
vertex 62.76198578 -20.50356293 6.463364124
vertex 64.83492279 -21.0561142 8.442385674
vertex 61.37615204 -18.93709564 13.20701313

endloop
endfacet
facet normal -0.3106332421 -0.9315873981 0.1888167858
outer loop
vertex 61.37615204 -18.93709564 13.20701313
vertex 64.83492279 -21.0561142 8.442385674
vertex 64.17095184 -19.66454315 14.21580505

endloop
endfacet
facet normal -0.3281899989 -0.9101170897 0.2529391646
outer loop
vertex 61.37615204 -18.93709564 13.20701313
vertex 64.17095184 -19.66454315 14.21580505
vertex 60.98009491 -16.23569489 22.41321564

endloop
endfacet
facet normal -0.287027806 -0.918371141 0.2724141181
outer loop
vertex 60.98009491 -16.23569489 22.41321564
vertex 64.17095184 -19.66454315 14.21580505
vertex 64.18645477 -17.10440826 22.86294746

endloop
endfacet
facet normal -0.2888481319 -0.9061576128 0.3089419007
outer loop
vertex 60.98009491 -16.23566437 22.41321373
vertex 64.18648529 -17.10440826 22.86294556
vertex 60.94121552 -12.56609344 33.14008331

endloop
endfacet
facet normal -0.3638169765 -0.889100492 0.2777362466
outer loop
vertex 60.94121552 -12.56609344 33.14008331
vertex 64.18648529 -17.10440826 22.86294556
vertex 64.42128754 -13.87737274 33.5010376

endloop
endfacet
facet normal -0.3635503054 -0.9100908041 0.198911801
outer loop
vertex 60.94121552 -12.56609344 33.14008331
vertex 64.42128754 -13.87737274 33.5010376
vertex 60.34822845 -9.86315155 44.42318344

endloop
endfacet
facet normal -0.5265197158 -0.8425762057 0.1133240238
outer loop
vertex 60.34822845 -9.86315155 44.42318344
vertex 64.42128754 -13.87737274 33.5010376
vertex 63.9054184 -11.9834671 45.18562698

endloop
endfacet
facet normal -0.503916502 -0.8624506593 -0.0474014543
outer loop
vertex 60.34822845 -9.86315155 44.42318344
vertex 63.9054184 -11.9834671 45.18562698
vertex 58.64818573 -9.438941956 54.77770996

endloop
endfacet
facet normal -0.616456151 -0.7762548923 -0.131947726
outer loop
vertex 58.64818573 -9.438941956 54.77770996
vertex 63.9054184 -11.9834671 45.18562698
vertex 61.90633392 -12.28528595 56.30091095

endloop
endfacet
facet normal -0.5523674488 -0.7839431763 -0.283413887
outer loop
vertex 58.64818573 -9.438941956 54.77771378
vertex 61.90631866 -12.28530121 56.30091858
vertex 55.8922348 -10.16570282 62.15927505

endloop
endfacet
facet normal -0.5781277418 -0.7496005893 -0.3222843409
outer loop
vertex 55.8922348 -10.16570282 62.15927505
vertex 61.90631866 -12.28530121 56.30091858
vertex 58.37516022 -13.05750275 64.43132782

endloop
endfacet
facet normal -0.4000556171 -0.75345397 -0.5217880011
outer loop
vertex 55.8922348 -10.16570282 62.15927505
vertex 58.37516022 -13.05750275 64.43132782
vertex 52.11101532 -10.93102264 66.16345215

endloop
endfacet
facet normal -0.4010367692 -0.7013528943 -0.5892992616
outer loop
vertex 52.11101532 -10.93102264 66.16345215
vertex 58.37516022 -13.05750275 64.43132782
vertex 53.27028656 -13.82178497 68.81496429

endloop
endfacet
facet normal -0.07275484502 -0.6898501515 -0.7202871442
outer loop
vertex 52.11101532 -10.93102264 66.16345215
vertex 53.27028656 -13.82178497 68.81496429
vertex 47.10202789 -11.58364105 67.29444122

endloop
endfacet
facet normal -0.06707765162 -0.6805486083 -0.7296260595
outer loop
vertex 47.10202789 -11.58364105 67.29444122
vertex 53.27028656 -13.82178497 68.81496429
vertex 46.45343781 -14.47296906 70.04904938

endloop
endfacet
facet normal 0.9752627015 -0.2210379094 -0.0022163908
outer loop
vertex 47.10199738 -11.58365631 67.29444122
vertex 46.45340729 -14.47298431 70.04904938
vertex 44.52620697 -22.90914154 63.36427307

endloop
endfacet
facet normal 0 -0.6239836216 0.781437397
outer loop
vertex 44.52620697 -22.90914154 63.36427307
vertex 46.45340729 -14.47298431 70.04904938
vertex 44.52619171 -22.90914154 63.36427307

endloop
endfacet
facet normal -nan(ind) -nan(ind) -nan(ind)
outer loop
vertex 66.11049652 -31.00763702 7.47996521
vertex 66.11049652 -31.00763702 7.47996521
vertex 67.23751068 -23.51665497 4.728092194

endloop
endfacet
facet normal -0.988340795 0.11003647 -0.1052348092
outer loop
vertex 67.23751068 -23.51665497 4.728092194
vertex 66.11049652 -31.00763702 7.47996521
vertex 66.86104584 -23.55071259 8.228150368

endloop
endfacet
facet normal -0.7456256747 -0.6607100964 -0.08662828058
outer loop
vertex 67.23751068 -23.51665497 4.728092194
vertex 66.86104584 -23.55071259 8.228150368
vertex 65.88884735 -22.09549713 5.497178078

endloop
endfacet
facet normal -0.8640257716 -0.5018419623 0.04017484933
outer loop
vertex 65.88884735 -22.09549713 5.497178078
vertex 66.86104584 -23.55071259 8.228150368
vertex 66.55590057 -22.98453522 8.737876892

endloop
endfacet
facet normal -0.7434471846 -0.6681098342 -0.03025773726
outer loop
vertex 65.88884735 -22.09549713 5.497178078
vertex 66.55590057 -22.98453522 8.737876892
vertex 64.83492279 -21.0561142 8.442385674

endloop
endfacet
facet normal -0.7491618395 -0.6600440741 0.05566325411
outer loop
vertex 64.83492279 -21.0561142 8.442385674
vertex 66.55590057 -22.98453522 8.737876892
vertex 66.22356415 -22.43517303 10.77925014

endloop
endfacet
facet normal -0.7588934302 -0.6475694776 0.06880770624
outer loop
vertex 64.83492279 -21.0561142 8.442385674
vertex 66.22356415 -22.43517303 10.77925014
vertex 64.17095184 -19.66454315 14.21580505

endloop
endfacet
facet normal -0.6645980477 -0.7235756516 0.1864070147
outer loop
vertex 64.17095184 -19.66454315 14.21580505
vertex 66.22356415 -22.43517303 10.77925014
vertex 66.26912689 -21.24373627 15.56649208

endloop
endfacet
facet normal -0.6710357666 -0.7105929852 0.2115863115
outer loop
vertex 64.17095184 -19.66454315 14.21580505
vertex 66.26912689 -21.24373627 15.56649208
vertex 64.18645477 -17.10440826 22.86294746

endloop
endfacet
facet normal -0.5876772404 -0.7641938329 0.2657879889
outer loop
vertex 64.18645477 -17.10440826 22.86294746
vertex 66.26912689 -21.24373627 15.56649208
vertex 66.95623016 -18.99147797 23.56142426

endloop
endfacet
facet normal -0.5873690248 -0.7707778215 0.2467776239
outer loop
vertex 64.18648529 -17.10440826 22.86294556
vertex 66.95626068 -18.99147797 23.56142426
vertex 64.42128754 -13.87737274 33.5010376

endloop
endfacet
facet normal -0.8530143499 -0.519511044 0.04974696413
outer loop
vertex 64.42128754 -13.87737274 33.5010376
vertex 66.95626068 -18.99147797 23.56142426
vertex 66.43199921 -17.13721466 33.93608093

endloop
endfacet
facet normal -0.8529577255 -0.5198947787 0.04660986736
outer loop
vertex 64.42128754 -13.87737274 33.5010376
vertex 66.43199921 -17.13721466 33.93608093
vertex 63.9054184 -11.9834671 45.18562698

endloop
endfacet
facet normal -0.9678462148 -0.2237949818 -0.1148454249
outer loop
vertex 63.9054184 -11.9834671 45.18562698
vertex 66.43199921 -17.13721466 33.93608093
vertex 64.9318161 -16.67034149 45.66891861

endloop
endfacet
facet normal -0.9571868777 -0.2280081064 -0.1783413142
outer loop
vertex 63.9054184 -11.9834671 45.18562698
vertex 64.9318161 -16.67034149 45.66891861
vertex 61.90633392 -12.28528595 56.30091095

endloop
endfacet
facet normal -0.9509369135 -0.2636702657 -0.1618543267
outer loop
vertex 61.90633392 -12.28528595 56.30091095
vertex 64.9318161 -16.67034149 45.66891861
vertex 63.15407562 -17.2481308 57.05486679

endloop
endfacet
facet normal -0.8704379201 -0.2803233862 -0.4046684504
outer loop
vertex 61.90631866 -12.28530121 56.30091858
vertex 63.15407562 -17.2481308 57.05487442
vertex 58.37516022 -13.05750275 64.43132782

endloop
endfacet
facet normal -0.8632608056 -0.3578686118 -0.3559646308
outer loop
vertex 58.37516022 -13.05750275 64.43132782
vertex 63.15407562 -17.2481308 57.05487442
vertex 59.90427399 -17.78946686 65.4803009

endloop
endfacet
facet normal -0.5794399977 -0.3503678739 -0.7358611822
outer loop
vertex 58.37516022 -13.05750275 64.43132782
vertex 59.90427399 -17.78946686 65.4803009
vertex 53.27028656 -13.82178497 68.81496429

endloop
endfacet
facet normal -0.5457004905 -0.2368445098 -0.8038132191
outer loop
vertex 53.27028656 -13.82178497 68.81496429
vertex 59.90427399 -17.78946686 65.4803009
vertex 54.16266632 -18.54070282 69.59957123

endloop
endfacet
facet normal -0.1571852267 -0.1908316165 -0.9689562321
outer loop
vertex 53.27028656 -13.82178497 68.81496429
vertex 54.16266632 -18.54070282 69.59957123
vertex 46.45343781 -14.47296906 70.04904938

endloop
endfacet
facet normal -0.1445923895 -0.1662507057 -0.9754248261
outer loop
vertex 46.45343781 -14.47296906 70.04904938
vertex 54.16266632 -18.54070282 69.59957123
vertex 46.0054245 -19.01371002 70.88938141

endloop
endfacet
facet normal 0.9839848876 -0.1212634891 -0.1306480914
outer loop
vertex 46.45340729 -14.47298431 70.04904938
vertex 46.00539398 -19.01372528 70.88938141
vertex 44.52619171 -22.90914154 63.36427307

endloop
endfacet
facet normal 0.9544799924 -0.2982749939 0
outer loop
vertex 44.52619171 -22.90914154 63.36427307
vertex 46.00539398 -19.01372528 70.88938141
vertex 44.52619171 -22.90914154 63.36427689

endloop
endfacet
facet normal -nan(ind) -nan(ind) -nan(ind)
outer loop
vertex 66.11049652 -31.00763702 7.47996521
vertex 66.11049652 -31.00763702 7.47996521
vertex 66.86104584 -23.55071259 8.228150368

endloop
endfacet
facet normal -0.9778453708 0.1159104556 -0.1743076146
outer loop
vertex 66.86104584 -23.55071259 8.228150368
vertex 66.11049652 -31.00763702 7.47996521
vertex 66.16725922 -24.36261749 11.58031464

endloop
endfacet
facet normal -0.928242445 -0.2687255442 -0.2572015226
outer loop
vertex 66.86104584 -23.55071259 8.228150368
vertex 66.16725922 -24.36261749 11.58031464
vertex 66.55590057 -22.98453522 8.737876892

endloop
endfacet
facet normal 0.8532966375 0.4137837589 0.317282021
outer loop
vertex 66.55590057 -22.98453522 8.737876892
vertex 66.16725922 -24.36261749 11.58031464
vertex 66.24669647 -24.6931076 11.79768562

endloop
endfacet
facet normal -0.9872786403 -0.07366896421 -0.1409040242
outer loop
vertex 66.55590057 -22.98453522 8.737876892
vertex 66.24669647 -24.6931076 11.79768562
vertex 66.22356415 -22.43517303 10.77925014

endloop
endfacet
facet normal -0.9774243832 -0.09511155635 -0.1886674017
outer loop
vertex 66.22356415 -22.43517303 10.77925014
vertex 66.24669647 -24.6931076 11.79768562
vertex 66.03456879 -25.03824615 13.07064247

endloop
endfacet
facet normal -0.9977763891 0.06628171355 -0.006999655161
outer loop
vertex 66.22356415 -22.43517303 10.77925014
vertex 66.03456879 -25.03824615 13.07064247
vertex 66.26912689 -21.24373627 15.56649208

endloop
endfacet
facet normal -0.9985607862 0.03499362618 0.04064222798
outer loop
vertex 66.26912689 -21.24373627 15.56649208
vertex 66.03456879 -25.03824615 13.07064247
vertex 66.2309494 -24.1832962 17.15949821

endloop
endfacet
facet normal -0.9961394668 0.0514732711 0.07110999525
outer loop
vertex 66.26912689 -21.24373627 15.56649208
vertex 66.2309494 -24.1832962 17.15949821
vertex 66.95623016 -18.99147797 23.56142426

endloop
endfacet
facet normal -0.9942215085 0.006785210688 0.1071337163
outer loop
vertex 66.95623016 -18.99147797 23.56142426
vertex 66.2309494 -24.1832962 17.15949821
vertex 67.04921722 -22.33034515 24.63582611

endloop
endfacet
facet normal -0.9982073903 -0.04162829369 -0.0430020839
outer loop
vertex 66.95626068 -18.99147797 23.56142426
vertex 67.04921722 -22.33034515 24.6358242
vertex 66.43199921 -17.13721466 33.93608093

endloop
endfacet
facet normal -0.9982942343 -0.0351048559 -0.04665043578
outer loop
vertex 66.43199921 -17.13721466 33.93608093
vertex 67.04921722 -22.33034515 24.6358242
vertex 66.55800629 -21.37059784 34.42525482

endloop
endfacet
facet normal -0.9911848307 -0.04394505545 -0.1249861345
outer loop
vertex 66.43199921 -17.13721466 33.93608093
vertex 66.55800629 -21.37059784 34.42525482
vertex 64.9318161 -16.67034149 45.66891861

endloop
endfacet
facet normal -0.9911940694 -0.04518222436 -0.1244702861
outer loop
vertex 64.9318161 -16.67034149 45.66891861
vertex 66.55800629 -21.37059784 34.42525482
vertex 65.16756439 -21.72940826 45.62800598

endloop
endfacet
facet normal -0.9866928458 -0.04471485317 -0.1563259661
outer loop
vertex 64.9318161 -16.67034149 45.66891861
vertex 65.16756439 -21.72940826 45.62800598
vertex 63.15407562 -17.2481308 57.05486679

endloop
endfacet
facet normal -0.9854404926 -0.1080598831 -0.1312632561
outer loop
vertex 63.15407562 -17.2481308 57.05486679
vertex 65.16756439 -21.72940826 45.62800598
vertex 63.74677277 -22.48641205 56.91758728

endloop
endfacet
facet normal -0.9266812801 -0.09532637894 -0.363558352
outer loop
vertex 63.15407562 -17.2481308 57.05487442
vertex 63.74678802 -22.48641205 56.91759491
vertex 59.90427399 -17.78946686 65.4803009

endloop
endfacet
facet normal -0.930290401 -0.1973366141 -0.3092217147
outer loop
vertex 59.90427399 -17.78946686 65.4803009
vertex 63.74678802 -22.48641205 56.91759491
vertex 60.8735733 -22.91201019 65.83323669

endloop
endfacet
facet normal -0.5611348152 -0.1621038765 -0.8116956949
outer loop
vertex 59.90427399 -17.78946686 65.4803009
vertex 60.8735733 -22.91201019 65.83323669
vertex 54.16266632 -18.54070282 69.59957123

endloop
endfacet
facet normal -0.5800806284 -0.2131856382 -0.7861669064
outer loop
vertex 54.16266632 -18.54070282 69.59957123
vertex 60.8735733 -22.91201019 65.83323669
vertex 54.82857513 -23.66152191 70.49684143

endloop
endfacet
facet normal -0.1426795572 -0.1887970269 -0.9715957046
outer loop
vertex 54.16266632 -18.54070282 69.59957123
vertex 54.82857513 -23.66152191 70.49684143
vertex 46.0054245 -19.01371002 70.88938141

endloop
endfacet
facet normal -0.1145715043 -0.1343664676 -0.9842860699
outer loop
vertex 46.0054245 -19.01371002 70.88938141
vertex 54.82857513 -23.66152191 70.49684143
vertex 45.84662628 -23.99448395 71.58779907

endloop
endfacet
facet normal 0.984729588 -0.05457919091 -0.1653140783
outer loop
vertex 46.00539398 -19.01372528 70.88938141
vertex 45.84658051 -23.99449921 71.58779907
vertex 44.52619171 -22.90914154 63.36427689

endloop
endfacet
facet normal 0.6246950626 0.7808687687 0
outer loop
vertex 44.52619171 -22.90914154 63.36427689
vertex 45.84658051 -23.99449921 71.58779907
vertex 44.52619171 -22.90914154 63.36427307

endloop
endfacet
facet normal -0.9999634624 0.008541828953 0
outer loop
vertex 66.11049652 -31.00763702 7.47996521
vertex 66.11049652 -31.00763702 7.479966164
vertex 66.16725922 -24.36261749 11.58031464

endloop
endfacet
facet normal -0.9860662222 0.09337587655 -0.1376743317
outer loop
vertex 66.16725922 -24.36261749 11.58031464
vertex 66.11049652 -31.00763702 7.479966164
vertex 65.45137787 -27.06027985 14.87802315

endloop
endfacet
facet normal 0.6337329745 0.5256150365 0.5675486326
outer loop
vertex 66.16725922 -24.36261749 11.58031464
vertex 65.45137787 -27.06027985 14.87802315
vertex 66.24669647 -24.6931076 11.79768562

endloop
endfacet
facet normal 0.7564456463 0.4094997942 0.5099998713
outer loop
vertex 66.24669647 -24.6931076 11.79768562
vertex 65.45137787 -27.06027985 14.87802315
vertex 65.57649994 -27.37450409 14.9447422

endloop
endfacet
facet normal -0.9865804315 0.07866483182 -0.1430769116
outer loop
vertex 66.24669647 -24.6931076 11.79768562
vertex 65.57649994 -27.37450409 14.9447422
vertex 66.03456879 -25.03824615 13.07064247

endloop
endfacet
facet normal -0.1708313078 -0.595936358 -0.7846506238
outer loop
vertex 66.03456879 -25.03824615 13.07064247
vertex 65.57649994 -27.37450409 14.9447422
vertex 65.21773529 -28.01213837 15.50712967

endloop
endfacet
facet normal -0.9658625126 0.2589392066 -0.007753607351
outer loop
vertex 66.03456879 -25.03824615 13.07064247
vertex 65.21773529 -28.01213837 15.50712967
vertex 66.2309494 -24.1832962 17.15949821

endloop
endfacet
facet normal -0.9664065838 0.2570014 -0.002929799724
outer loop
vertex 66.2309494 -24.1832962 17.15949821
vertex 65.21773529 -28.01213837 15.50712967
vertex 65.32506561 -27.56900787 18.97509384

endloop
endfacet
facet normal -0.9603046775 0.2765469849 0.03656317294
outer loop
vertex 66.2309494 -24.1832962 17.15949821
vertex 65.32506561 -27.56900787 18.97509384
vertex 67.04921722 -22.33034515 24.63582611

endloop
endfacet
facet normal -0.9669106603 0.2462705672 0.0665942505
outer loop
vertex 67.04921722 -22.33034515 24.63582611
vertex 65.32506561 -27.56900787 18.97509384
vertex 66.07405853 -26.53746796 26.03533363

endloop
endfacet
facet normal -0.9766565561 0.2034399509 -0.06895144284
outer loop
vertex 67.04921722 -22.33034515 24.6358242
vertex 66.07405853 -26.53746796 26.03533363
vertex 66.55800629 -21.37059784 34.42525482

endloop
endfacet
facet normal -0.9975224137 0.06867893785 0.01524371374
outer loop
vertex 66.55800629 -21.37059784 34.42525482
vertex 66.07405853 -26.53746796 26.03533363
vertex 66.27117157 -25.68375397 35.0877533

endloop
endfacet
facet normal -0.9914602041 0.04726553336 -0.1215423346
outer loop
vertex 66.55800629 -21.37059784 34.42525482
vertex 66.27117157 -25.68375397 35.0877533
vertex 65.16756439 -21.72940826 45.62800598

endloop
endfacet
facet normal -0.9911493659 -0.1188200042 -0.05920011923
outer loop
vertex 65.16756439 -21.72940826 45.62800598
vertex 66.27117157 -25.68375397 35.0877533
vertex 65.67321014 -25.833992 45.40057755

endloop
endfacet
facet normal -0.9847275615 -0.1140188277 -0.1315731257
outer loop
vertex 65.16756439 -21.72940826 45.62800598
vertex 65.67321014 -25.833992 45.40057755
vertex 63.74677277 -22.48641205 56.91758728

endloop
endfacet
facet normal -0.984611094 -0.1155481935 -0.1311091036
outer loop
vertex 63.74677277 -22.48641205 56.91758728
vertex 65.67321014 -25.833992 45.40057755
vertex 64.35634613 -26.87841034 56.21050262

endloop
endfacet
facet normal -0.9474676847 -0.08171205968 -0.3092379272
outer loop
vertex 63.74678802 -22.48641205 56.91759491
vertex 64.35634613 -26.87841034 56.21051025
vertex 60.8735733 -22.91201019 65.83323669

endloop
endfacet
facet normal -0.9469210505 -0.07061312348 -0.3136149645
outer loop
vertex 60.8735733 -22.91201019 65.83323669
vertex 64.35634613 -26.87841034 56.21051025
vertex 61.38739777 -27.64916229 65.34841919

endloop
endfacet
facet normal -0.6118962765 0.01456323732 -0.7908039093
outer loop
vertex 60.8735733 -22.91201019 65.83323669
vertex 61.38739777 -27.64916229 65.34841919
vertex 54.82857513 -23.66152191 70.49684143

endloop
endfacet
facet normal -0.654479444 -0.1108590513 -0.7479084134
outer loop
vertex 54.82857513 -23.66152191 70.49684143
vertex 61.38739777 -27.64916229 65.34841919
vertex 55.14620209 -28.47618866 70.93254852

endloop
endfacet
facet normal -0.1164557263 -0.09713187069 -0.9884348512
outer loop
vertex 54.82857513 -23.66152191 70.49684143
vertex 55.14620209 -28.47618866 70.93254852
vertex 45.84662628 -23.99448395 71.58779907

endloop
endfacet
facet normal -0.08197700977 -0.02443324216 -0.996334672
outer loop
vertex 45.84662628 -23.99448395 71.58779907
vertex 55.14620209 -28.47618866 70.93254852
vertex 46.03121185 -28.50702667 71.68327332

endloop
endfacet
facet normal 0.9874282479 0.03714367747 -0.153641507
outer loop
vertex 45.84658051 -23.99449921 71.58779907
vertex 46.03118134 -28.50704193 71.68326569
vertex 44.52619171 -22.90914154 63.36427307

endloop
endfacet
facet normal -0.1529376209 0.8092948794 0.5671436787
outer loop
vertex 44.52619171 -22.90914154 63.36427307
vertex 46.03118134 -28.50704193 71.68326569
vertex 44.52620697 -22.90914154 63.36427689

endloop
endfacet
facet normal -nan(ind) -nan(ind) -nan(ind)
outer loop
vertex 66.11049652 -31.00763702 7.479966164
vertex 66.11049652 -31.00763702 7.479966164
vertex 65.45137787 -27.06027985 14.87802315

endloop
endfacet
facet normal -0.981684804 0.1173529997 -0.1500773728
outer loop
vertex 65.45137787 -27.06027985 14.87802315
vertex 66.11049652 -31.00763702 7.479966164
vertex 64.67235565 -30.82506561 17.02988243

endloop
endfacet
facet normal 0.4762700498 0.3599853218 0.8022328019
outer loop
vertex 65.45137787 -27.06027985 14.87802315
vertex 64.67235565 -30.82506561 17.02988243
vertex 65.57649994 -27.37450409 14.9447422

endloop
endfacet
facet normal -0.8440805078 0.4214836061 0.3314810991
outer loop
vertex 65.57649994 -27.37450409 14.9447422
vertex 64.67235565 -30.82506561 17.02988243
vertex 64.92613983 -30.67865753 17.4899559

endloop
endfacet
facet normal -0.2415384352 -0.5618940592 -0.7911601067
outer loop
vertex 65.57649994 -27.37450409 14.9447422
vertex 64.92613983 -30.67865753 17.4899559
vertex 65.21773529 -28.01213837 15.50712967

endloop
endfacet
facet normal -0.9224637747 -0.1603011489 -0.3512321711
outer loop
vertex 65.21773529 -28.01213837 15.50712967
vertex 64.92613983 -30.67865753 17.4899559
vertex 64.78102875 -30.60923004 17.83938408

endloop
endfacet
facet normal -0.9848661423 0.173115164 0.008360347711
outer loop
vertex 65.21773529 -28.01213837 15.50712967
vertex 64.78102875 -30.60923004 17.83938408
vertex 65.32506561 -27.56900787 18.97509384

endloop
endfacet
facet normal -0.9746863246 0.09965199232 0.2001401633
outer loop
vertex 65.32506561 -27.56900787 18.97509384
vertex 64.78102875 -30.60923004 17.83938408
vertex 65.397789 -30.5291214 20.8031311

endloop
endfacet
facet normal -0.9942840338 0.03734290972 0.1000236571
outer loop
vertex 65.32506561 -27.56900787 18.97509384
vertex 65.397789 -30.5291214 20.8031311
vertex 66.07405853 -26.53746796 26.03533363

endloop
endfacet
facet normal -0.9755750895 -0.09459017217 0.1982574016
outer loop
vertex 66.07405853 -26.53746796 26.03533363
vertex 65.397789 -30.5291214 20.8031311
vertex 66.73848724 -30.44870758 27.43873787

endloop
endfacet
facet normal -0.987290144 -0.1547754109 0.03609440476
outer loop
vertex 66.07405853 -26.53746796 26.03533363
vertex 66.73851776 -30.44867706 27.43873787
vertex 66.27117157 -25.68375397 35.0877533

endloop
endfacet
facet normal -0.9961619377 -0.08728855848 -0.006488314364
outer loop
vertex 66.27117157 -25.68375397 35.0877533
vertex 66.73851776 -30.44867706 27.43873787
vertex 66.62908173 -29.83264923 35.95309448

endloop
endfacet
facet normal -0.9934331179 -0.09801172465 -0.05902939662
outer loop
vertex 66.27117157 -25.68375397 35.0877533
vertex 66.62908173 -29.83264923 35.95309448
vertex 65.67321014 -25.833992 45.40057755

endloop
endfacet
facet normal -0.9911960959 0.05137092993 -0.1220294386
outer loop
vertex 65.67321014 -25.833992 45.40057755
vertex 66.62908173 -29.83264923 35.95309448
vertex 65.46712494 -29.64060211 45.47204971

endloop
endfacet
facet normal -0.9919283986 0.05152645707 -0.1158583164
outer loop
vertex 65.67321014 -25.833992 45.40057755
vertex 65.46712494 -29.64060211 45.47204971
vertex 64.35634613 -26.87841034 56.21050262

endloop
endfacet
facet normal -0.9857962132 0.1069585085 -0.1294824779
outer loop
vertex 64.35634613 -26.87841034 56.21050262
vertex 65.46712494 -29.64060211 45.47204971
vertex 64.0679245 -30.68665314 55.26057434

endloop
endfacet
facet normal -0.944535017 0.1450331062 -0.2946506739
outer loop
vertex 64.35634613 -26.87841034 56.21051025
vertex 64.0679245 -30.68665314 55.26058197
vertex 61.38739777 -27.64916229 65.34841919

endloop
endfacet
facet normal -0.9136397243 0.2523176074 -0.3187450469
outer loop
vertex 61.38739777 -27.64916229 65.34841919
vertex 64.0679245 -30.68665314 55.26058197
vertex 60.87401581 -32.02579498 63.3554306

endloop
endfacet
facet normal -0.6445979476 0.3781764805 -0.6644366384
outer loop
vertex 61.38739777 -27.64916229 65.34841919
vertex 60.87401581 -32.02579498 63.3554306
vertex 55.14620209 -28.47618866 70.93254852

endloop
endfacet
facet normal -0.6242010593 0.4110221267 -0.6644049287
outer loop
vertex 55.14620209 -28.47618866 70.93254852
vertex 60.87401581 -32.02579498 63.3554306
vertex 54.77295685 -33.0538559 68.45131683

endloop
endfacet
facet normal -0.07362768054 0.4798699021 -0.8742446899
outer loop
vertex 55.14620209 -28.47618866 70.93254852
vertex 54.77295685 -33.0538559 68.45131683
vertex 46.03121185 -28.50702667 71.68327332

endloop
endfacet
facet normal -0.02517149225 0.5465786457 -0.8370293379
outer loop
vertex 46.03121185 -28.50702667 71.68327332
vertex 54.77295685 -33.0538559 68.45131683
vertex 46.45566559 -32.45371246 69.09333038

endloop
endfacet
facet normal 0.9851841331 0.1546281278 -0.07417776436
outer loop
vertex 46.03118134 -28.50704193 71.68326569
vertex 46.45561981 -32.45371246 69.09332275
vertex 44.52620697 -22.90914154 63.36427689

endloop
endfacet
facet normal 0 -0.5178026557 -0.855500102
outer loop
vertex 44.52620697 -22.90914154 63.36427689
vertex 46.45561981 -32.45371246 69.09332275
vertex 44.52619171 -22.90914154 63.36427689

endloop
endfacet
facet normal 0.1259388179 0.9920379519 -0
outer loop
vertex 66.11049652 -31.00763702 7.479966164
vertex 66.11049652 -31.00763702 7.47996521
vertex 64.67235565 -30.82506561 17.02988243

endloop
endfacet
facet normal -0.8661789298 0.4798356891 -0.1396128982
outer loop
vertex 64.67235565 -30.82506561 17.02988243
vertex 66.11049652 -31.00763702 7.47996521
vertex 62.85123444 -34.01052094 17.38029289

endloop
endfacet
facet normal -0.8162548542 0.4987236559 0.291552186
outer loop
vertex 64.67235565 -30.82506561 17.02988243
vertex 62.85123444 -34.01052094 17.38029289
vertex 64.92613983 -30.67865753 17.4899559

endloop
endfacet
facet normal -0.8046594858 0.4900661707 0.3351987302
outer loop
vertex 64.92613983 -30.67865753 17.4899559
vertex 62.85123444 -34.01052094 17.38029289
vertex 62.90610504 -34.45211029 18.15762329

endloop
endfacet
facet normal -0.8295951486 0.3701352477 -0.4180572629
outer loop
vertex 64.92613983 -30.67865753 17.4899559
vertex 62.90610504 -34.45211029 18.15762329
vertex 64.78102875 -30.60923004 17.83938408

endloop
endfacet
facet normal -0.8193063736 0.4310448766 0.3780707121
outer loop
vertex 64.78102875 -30.60923004 17.83938408
vertex 62.90610504 -34.45211029 18.15762329
vertex 63.2123642 -34.64800262 19.04464912

endloop
endfacet
facet normal -0.8986995816 0.4016278982 0.1761649698
outer loop
vertex 64.78102875 -30.60923004 17.83938408
vertex 63.2123642 -34.64800262 19.04464912
vertex 65.397789 -30.5291214 20.8031311

endloop
endfacet
facet normal -0.8852205873 0.3295054436 0.3283453584
outer loop
vertex 65.397789 -30.5291214 20.8031311
vertex 63.2123642 -34.64800262 19.04464912
vertex 64.36025238 -34.78447723 22.2763176

endloop
endfacet
facet normal -0.9378472567 0.2930356562 0.1859371811
outer loop
vertex 65.397789 -30.5291214 20.8031311
vertex 64.36025238 -34.78447723 22.2763176
vertex 66.73848724 -30.44870758 27.43873787

endloop
endfacet
facet normal -0.9377368093 0.2938570976 0.1851964146
outer loop
vertex 66.73848724 -30.44870758 27.43873787
vertex 64.36025238 -34.78447723 22.2763176
vertex 65.76134491 -34.34975433 28.68092155

endloop
endfacet
facet normal -0.9717808962 0.2340426594 -0.02942379005
outer loop
vertex 66.73851776 -30.44867706 27.43873787
vertex 65.76137543 -34.34975433 28.68092155
vertex 66.62908173 -29.83264923 35.95309448

endloop
endfacet
facet normal -0.9722802639 0.2321156263 -0.02816722728
outer loop
vertex 66.62908173 -29.83264923 35.95309448
vertex 65.76137543 -34.34975433 28.68092155
vertex 65.75222015 -33.40470123 36.78477478

endloop
endfacet
facet normal -0.9700703621 0.2095764875 -0.1226424947
outer loop
vertex 66.62908173 -29.83264923 35.95309448
vertex 65.75222015 -33.40470123 36.78477478
vertex 65.46712494 -29.64060211 45.47204971

endloop
endfacet
facet normal -0.971742332 0.2032830268 -0.1199704856
outer loop
vertex 65.46712494 -29.64060211 45.47204971
vertex 65.75222015 -33.40470123 36.78477478
vertex 64.76174164 -33.01563263 45.4667511

endloop
endfacet
facet normal -0.9720647335 0.2033461332 -0.1172192022
outer loop
vertex 65.46712494 -29.64060211 45.47204971
vertex 64.76174164 -33.01563263 45.4667511
vertex 64.0679245 -30.68665314 55.26057434

endloop
endfacet
facet normal -0.9350562692 0.3242262602 -0.1433428377
outer loop
vertex 64.0679245 -30.68665314 55.26057434
vertex 64.76174164 -33.01563263 45.4667511
vertex 63.18230438 -33.88040924 53.81372833

endloop
endfacet
facet normal -0.8820902109 0.3742285967 -0.2861289382
outer loop
vertex 64.0679245 -30.68665314 55.26058197
vertex 63.18228912 -33.88040924 53.81373596
vertex 60.87401581 -32.02579498 63.3554306

endloop
endfacet
facet normal -0.7488589287 0.5927662849 -0.2963754833
outer loop
vertex 60.87401581 -32.02579498 63.3554306
vertex 63.18228912 -33.88040924 53.81373596
vertex 59.45298004 -35.25339508 60.49062729

endloop
endfacet
facet normal -0.5338654518 0.6805163026 -0.5018817782
outer loop
vertex 60.87401581 -32.02579498 63.3554306
vertex 59.45298004 -35.25339508 60.49062729
vertex 54.77295685 -33.0538559 68.45131683

endloop
endfacet
facet normal -0.4943181872 0.7185947895 -0.4891533852
outer loop
vertex 54.77295685 -33.0538559 68.45131683
vertex 59.45298004 -35.25339508 60.49062729
vertex 53.77959442 -36.22606659 64.7950058

endloop
endfacet
facet normal 0.003834079485 0.7548191547 -0.6559217572
outer loop
vertex 54.77295685 -33.0538559 68.45131683
vertex 53.77959442 -36.22606659 64.7950058
vertex 46.45566559 -32.45371246 69.09333038

endloop
endfacet
facet normal 0.01269983593 0.762163043 -0.6472605467
outer loop
vertex 46.45566559 -32.45371246 69.09333038
vertex 53.77959442 -36.22606659 64.7950058
vertex 46.86309052 -35.41785431 65.6109848

endloop
endfacet
facet normal 0.9835040569 0.177299127 -0.0358447209
outer loop
vertex 46.45561981 -32.45371246 69.09332275
vertex 46.86306 -35.41786957 65.6109848
vertex 44.52619171 -22.90914154 63.36427689

endloop
endfacet
facet normal 0.9824244976 0.1866606474 0
outer loop
vertex 44.52619171 -22.90914154 63.36427689
vertex 46.86306 -35.41786957 65.6109848
vertex 44.52619171 -22.90914154 63.36427307

endloop
endfacet
facet normal -nan(ind) -nan(ind) -nan(ind)
outer loop
vertex 66.11049652 -31.00763702 7.47996521
vertex 66.11049652 -31.00763702 7.47996521
vertex 62.85123444 -34.01052094 17.38029289

endloop
endfacet
facet normal -0.9331245422 0.2834436893 -0.2212198377
outer loop
vertex 62.85123444 -34.01052094 17.38029289
vertex 66.11049652 -31.00763702 7.47996521
vertex 62.04325104 -37.12342072 16.79995346

endloop
endfacet
facet normal -0.9584802389 0.2135524452 0.1889734715
outer loop
vertex 62.85123444 -34.01052094 17.38029289
vertex 62.04325104 -37.12342072 16.79995346
vertex 62.90610504 -34.45211029 18.15762329

endloop
endfacet
facet normal -0.9462496042 0.3218600452 -0.03190227225
outer loop
vertex 62.90610504 -34.45211029 18.15762329
vertex 62.04325104 -37.12342072 16.79995346
vertex 61.52097321 -38.53702545 18.02940559

endloop
endfacet
facet normal -0.8837552667 0.2880933583 0.3687529564
outer loop
vertex 62.90610504 -34.45211029 18.15762329
vertex 61.52097321 -38.53702545 18.02940559
vertex 63.2123642 -34.64800262 19.04464912

endloop
endfacet
facet normal -0.9162604809 0.3456318974 0.2024977803
outer loop
vertex 63.2123642 -34.64800262 19.04464912
vertex 61.52097321 -38.53702545 18.02940559
vertex 61.64321136 -39.33072662 19.93723106

endloop
endfacet
facet normal -0.8758682013 0.3556620181 0.3261280358
outer loop
vertex 63.2123642 -34.64800262 19.04464912
vertex 61.64321136 -39.33072662 19.93723106
vertex 64.36025238 -34.78447723 22.2763176

endloop
endfacet
facet normal -0.8801399469 0.453022629 0.1418599784
outer loop
vertex 64.36025238 -34.78447723 22.2763176
vertex 61.64321136 -39.33072662 19.93723106
vertex 62.38787079 -38.99428558 23.48290443

endloop
endfacet
facet normal -0.8753220439 0.4561159909 0.1605287641
outer loop
vertex 64.36025238 -34.78447723 22.2763176
vertex 62.38787079 -38.99428558 23.48290443
vertex 65.76134491 -34.34975433 28.68092155

endloop
endfacet
facet normal -0.7951524854 0.6058807373 -0.02531845681
outer loop
vertex 65.76134491 -34.34975433 28.68092155
vertex 62.38787079 -38.99428558 23.48290443
vertex 63.14373016 -37.74442291 29.65406418

endloop
endfacet
facet normal -0.7996050119 0.5963793397 -0.07045178115
outer loop
vertex 65.76137543 -34.34975433 28.68092155
vertex 63.14374542 -37.74442291 29.65406418
vertex 65.75222015 -33.40470123 36.78477478

endloop
endfacet
facet normal -0.7507346272 0.649492383 -0.1206533536
outer loop
vertex 65.75222015 -33.40470123 36.78477478
vertex 63.14374542 -37.74442291 29.65406418
vertex 63.1574173 -36.30936432 37.2940979

endloop
endfacet
facet normal -0.7507510185 0.6505332589 -0.1148015931
outer loop
vertex 65.75222015 -33.40470123 36.78477478
vertex 63.1574173 -36.30936432 37.2940979
vertex 64.76174164 -33.01563263 45.4667511

endloop
endfacet
facet normal -0.7386327386 0.6629428864 -0.1221817955
outer loop
vertex 64.76174164 -33.01563263 45.4667511
vertex 63.1574173 -36.30936432 37.2940979
vertex 62.4699173 -35.63796234 45.09322357

endloop
endfacet
facet normal -0.7458381653 0.6621671915 -0.07252658159
outer loop
vertex 64.76174164 -33.01563263 45.4667511
vertex 62.4699173 -35.63796234 45.09322357
vertex 63.18230438 -33.88040924 53.81372833

endloop
endfacet
facet normal -0.6450484991 0.757571578 -0.09998825938
outer loop
vertex 63.18230438 -33.88040924 53.81372833
vertex 62.4699173 -35.63796234 45.09322357
vertex 60.83403778 -36.11193085 52.05560684

endloop
endfacet
facet normal -0.6045517921 0.7764213681 -0.1780087054
outer loop
vertex 63.18228912 -33.88040924 53.81373596
vertex 60.83403778 -36.11193085 52.05561066
vertex 59.45298004 -35.25339508 60.49062729

endloop
endfacet
facet normal -0.4868092835 0.8574011326 -0.1669731438
outer loop
vertex 59.45298004 -35.25339508 60.49062729
vertex 60.83403778 -36.11193085 52.05561066
vertex 57.24025726 -37.1036911 57.44060516

endloop
endfacet
facet normal -0.3625817299 0.8898938894 -0.2768091857
outer loop
vertex 59.45298004 -35.25339508 60.49062729
vertex 57.24025726 -37.1036911 57.44060516
vertex 53.77959442 -36.22606659 64.7950058

endloop
endfacet
facet normal -0.3572882116 0.892698586 -0.2746529877
outer loop
vertex 53.77959442 -36.22606659 64.7950058
vertex 57.24025726 -37.1036911 57.44060516
vertex 52.57975006 -37.84166718 61.10469818

endloop
endfacet
facet normal 0.05699438974 0.9076286554 -0.4158867002
outer loop
vertex 53.77959442 -36.22606659 64.7950058
vertex 52.57975006 -37.84166718 61.10469818
vertex 46.86309052 -35.41785431 65.6109848

endloop
endfacet
facet normal 0.03263883665 0.8969054222 -0.441016227
outer loop
vertex 46.86309052 -35.41785431 65.6109848
vertex 52.57975006 -37.84166718 61.10469818
vertex 47.32862091 -37.16985321 62.0823555

endloop
endfacet
facet normal 0.9812176228 0.1896485984 0.035290014
outer loop
vertex 46.86306 -35.41786957 65.6109848
vertex 47.32859039 -37.16985321 62.0823555
vertex 44.52619171 -22.90914154 63.36427307

endloop
endfacet
facet normal -0.2363730669 -0.1340150833 0.9623760581
outer loop
vertex 44.52619171 -22.90914154 63.36427307
vertex 47.32859039 -37.16985321 62.0823555
vertex 44.52620697 -22.90914154 63.36427689

endloop
endfacet
facet normal -nan(ind) -nan(ind) -nan(ind)
outer loop
vertex 66.11049652 -31.00763702 7.47996521
vertex 66.11049652 -31.00763702 7.47996521
vertex 62.04325104 -37.12342072 16.79995346

endloop
endfacet
facet normal -0.9325281382 0.08555184305 -0.3508163095
outer loop
vertex 62.04325104 -37.12342072 16.79995346
vertex 66.11049652 -31.00763702 7.47996521
vertex 62.19857025 -40.18508148 15.64045715

endloop
endfacet
facet normal -0.9452608228 0.07253537327 -0.3181518316
outer loop
vertex 62.04325104 -37.12342072 16.79995346
vertex 62.19857025 -40.18508148 15.64045715
vertex 61.52097321 -38.53702545 18.02940559

endloop
endfacet
facet normal -0.7766188383 0.3936442733 -0.4918408692
outer loop
vertex 61.52097321 -38.53702545 18.02940559
vertex 62.19857025 -40.18508148 15.64045715
vertex 60.37827301 -41.91698456 17.12858772

endloop
endfacet
facet normal -0.9459832311 0.2733560503 0.1743336767
outer loop
vertex 61.52097321 -38.53702545 18.02940559
vertex 60.37827301 -41.91698456 17.12858772
vertex 61.64321136 -39.33072662 19.93723106

endloop
endfacet
facet normal -0.818303287 0.5564867854 -0.1438826472
outer loop
vertex 61.64321136 -39.33072662 19.93723106
vertex 60.37827301 -41.91698456 17.12858772
vertex 59.36650848 -42.70372772 19.83995056

endloop
endfacet
facet normal -0.8244105577 0.5529789925 0.120671086
outer loop
vertex 61.64321136 -39.33072662 19.93723106
vertex 59.36650848 -42.70372772 19.83995056
vertex 62.38787079 -38.99428558 23.48290443

endloop
endfacet
facet normal -0.6094774008 0.7496876717 -0.2578871548
outer loop
vertex 62.38787079 -38.99428558 23.48290443
vertex 59.36650848 -42.70372772 19.83995056
vertex 59.11780548 -41.53546906 23.8238945

endloop
endfacet
facet normal -0.6168735027 0.7826776505 -0.08296170831
outer loop
vertex 62.38787079 -38.99428558 23.48290443
vertex 59.11780548 -41.53546906 23.8238945
vertex 63.14373016 -37.74442291 29.65406418

endloop
endfacet
facet normal -0.4218318462 0.8651428223 -0.2712670565
outer loop
vertex 63.14373016 -37.74442291 29.65406418
vertex 59.11780548 -41.53546906 23.8238945
vertex 59.22241974 -39.53691864 30.03512383

endloop
endfacet
facet normal -0.4232719243 0.8905681372 -0.166521579
outer loop
vertex 63.14374542 -37.74442291 29.65406418
vertex 59.222435 -39.53690338 30.03512383
vertex 63.1574173 -36.30936432 37.2940979

endloop
endfacet
facet normal -0.2720733583 0.9253664613 -0.2639563978
outer loop
vertex 63.1574173 -36.30936432 37.2940979
vertex 59.222435 -39.53690338 30.03512383
vertex 59.20874786 -37.45355988 37.35292435

endloop
endfacet
facet normal -0.2781955898 0.9545795918 -0.1066999361
outer loop
vertex 63.1574173 -36.30936432 37.2940979
vertex 59.20874786 -37.45355988 37.35292435
vertex 62.4699173 -35.63796234 45.09322357

endloop
endfacet
facet normal -0.1257634908 0.9763193727 -0.1760225147
outer loop
vertex 62.4699173 -35.63796234 45.09322357
vertex 59.20874786 -37.45355988 37.35292435
vertex 58.78580475 -36.2390213 44.39161682

endloop
endfacet
facet normal -0.1661597937 0.9856994748 0.02806123346
outer loop
vertex 62.4699173 -35.63796234 45.09322357
vertex 58.78580475 -36.2390213 44.39161682
vertex 60.83403778 -36.11193085 52.05560684

endloop
endfacet
facet normal -0.1021326929 0.9947121143 0.01080026664
outer loop
vertex 60.83403778 -36.11193085 52.05560684
vertex 58.78580475 -36.2390213 44.39161682
vertex 57.50287628 -36.43431854 50.24662018

endloop
endfacet
facet normal -0.142424494 0.9860147834 0.08654566109
outer loop
vertex 60.83403778 -36.11193085 52.05561066
vertex 57.50287628 -36.43431854 50.24662399
vertex 57.24025726 -37.1036911 57.44060516

endloop
endfacet
facet normal -0.2319344878 0.9692925215 0.08172212541
outer loop
vertex 57.24025726 -37.1036911 57.44060516
vertex 57.50287628 -36.43431854 50.24662399
vertex 54.81630707 -37.44489288 54.60816193

endloop
endfacet
facet normal -0.1495666951 0.9887116551 0.008894109167
outer loop
vertex 57.24025726 -37.1036911 57.44060516
vertex 54.81630707 -37.44489288 54.60816193
vertex 52.57975006 -37.84166718 61.10469818

endloop
endfacet
facet normal -0.2133571655 0.9768769145 -0.01378979161
outer loop
vertex 52.57975006 -37.84166718 61.10469818
vertex 54.81630707 -37.44489288 54.60816193
vertex 51.47536469 -38.13152313 57.65830612

endloop
endfacet
facet normal 0.104648456 0.9876502752 -0.1165997833
outer loop
vertex 52.57975006 -37.84166718 61.10469818
vertex 51.47536469 -38.13152313 57.65830612
vertex 47.32862091 -37.16985321 62.0823555

endloop
endfacet
facet normal 0.1294262111 0.9871922135 -0.09327559173
outer loop
vertex 47.32862091 -37.16985321 62.0823555
vertex 51.47536469 -38.13152313 57.65830612
vertex 47.80440521 -37.54517365 58.77029419

endloop
endfacet
facet normal 0.9761584401 0.1810648143 0.1197088659
outer loop
vertex 47.32859039 -37.16985321 62.0823555
vertex 47.80437469 -37.54517365 58.77029037
vertex 44.52620697 -22.90914154 63.36427689

endloop
endfacet
facet normal 0.04212627187 0.3159470558 -0.9478411078
outer loop
vertex 44.52620697 -22.90914154 63.36427689
vertex 47.80437469 -37.54517365 58.77029037
vertex 44.52619171 -22.90912628 63.3642807

endloop
endfacet
facet normal -nan(ind) -nan(ind) -nan(ind)
outer loop
vertex 66.11049652 -31.00763702 7.47996521
vertex 66.11049652 -31.00763702 7.47996521
vertex 62.19857025 -40.18508148 15.64045715

endloop
endfacet
facet normal -0.9353501797 0.0959668532 -0.3404562473
outer loop
vertex 62.19857025 -40.18508148 15.64045715
vertex 66.11049652 -31.00763702 7.47996521
vertex 62.51430511 -43.49037933 13.8413372

endloop
endfacet
facet normal -0.7476007938 0.2610054612 -0.610712111
outer loop
vertex 62.19857025 -40.18508148 15.64045715
vertex 62.51430511 -43.49037933 13.8413372
vertex 60.37827301 -41.91698456 17.12858772

endloop
endfacet
facet normal -0.3774934709 0.7155506611 -0.5877805352
outer loop
vertex 60.37827301 -41.91698456 17.12858772
vertex 62.51430511 -43.49037933 13.8413372
vertex 58.49097443 -44.50296783 15.1925602

endloop
endfacet
facet normal -0.7658497691 0.6349515915 -0.101541467
outer loop
vertex 60.37827301 -41.91698456 17.12858772
vertex 58.49097443 -44.50296783 15.1925602
vertex 59.36650848 -42.70372772 19.83995056

endloop
endfacet
facet normal -0.1613298357 0.9301886559 -0.3297297657
outer loop
vertex 59.36650848 -42.70372772 19.83995056
vertex 58.49097443 -44.50296783 15.1925602
vertex 55.64435577 -43.96172333 18.11223602

endloop
endfacet
facet normal -0.1843998432 0.9399690628 -0.2871495485
outer loop
vertex 59.36650848 -42.70372772 19.83995056
vertex 55.64435577 -43.96172333 18.11223602
vertex 59.11780548 -41.53546906 23.8238945

endloop
endfacet
facet normal 0.05414590612 0.9067776203 -0.4181178212
outer loop
vertex 59.11780548 -41.53546906 23.8238945
vertex 55.64435577 -43.96172333 18.11223602
vertex 54.37174225 -41.70737457 22.83646965

endloop
endfacet
facet normal 0.02933188528 0.9513818026 -0.3066144884
outer loop
vertex 59.11780548 -41.53546906 23.8238945
vertex 54.37174225 -41.70737457 22.83646965
vertex 59.22241974 -39.53691864 30.03512383

endloop
endfacet
facet normal 0.1413943321 0.9174437523 -0.3718930781
outer loop
vertex 59.22241974 -39.53691864 30.03512383
vertex 54.37174225 -41.70737457 22.83646965
vertex 54.20554352 -38.96666718 29.53448486

endloop
endfacet
facet normal 0.1353730559 0.9529955387 -0.2710601687
outer loop
vertex 59.222435 -39.53690338 30.03512383
vertex 54.20555878 -38.96665192 29.53448677
vertex 59.20874786 -37.45355988 37.35292435

endloop
endfacet
facet normal 0.3005659878 0.8819708824 -0.3630254269
outer loop
vertex 59.20874786 -37.45355988 37.35292435
vertex 54.20555878 -38.96665192 29.53448677
vertex 54.53882599 -36.08113861 36.82077408

endloop
endfacet
facet normal 0.294175297 0.9446386695 -0.1453225464
outer loop
vertex 59.20874786 -37.45355988 37.35292435
vertex 54.53882599 -36.08113861 36.82077408
vertex 58.78580475 -36.2390213 44.39161682

endloop
endfacet
facet normal 0.5327088833 0.7978650331 -0.2821923792
outer loop
vertex 58.78580475 -36.2390213 44.39161682
vertex 54.53882599 -36.08113861 36.82077408
vertex 54.85189056 -33.98688507 43.33301163

endloop
endfacet
facet normal 0.4657047093 0.8751550913 0.1312349886
outer loop
vertex 58.78580475 -36.2390213 44.39161682
vertex 54.85189056 -33.98688507 43.33301163
vertex 57.50287628 -36.43431854 50.24662018

endloop
endfacet
facet normal 0.6534715295 0.7567528486 0.01732213609
outer loop
vertex 57.50287628 -36.43431854 50.24662018
vertex 54.85189056 -33.98688507 43.33301163
vertex 54.47875214 -33.78037262 48.38761139

endloop
endfacet
facet normal 0.4218119681 0.7910320163 0.4431060255
outer loop
vertex 57.50287628 -36.43431854 50.24662399
vertex 54.47873688 -33.78037262 48.3876152
vertex 54.81630707 -37.44489288 54.60816193

endloop
endfacet
facet normal 0.2188396156 0.8458713889 0.4864265919
outer loop
vertex 54.81630707 -37.44489288 54.60816193
vertex 54.47873688 -33.78037262 48.3876152
vertex 52.80442047 -35.39467621 51.94807053

endloop
endfacet
facet normal 0.2502017021 0.849108994 0.4652020931
outer loop
vertex 54.81630707 -37.44489288 54.60816193
vertex 52.80442047 -35.39467621 51.94807053
vertex 51.47536469 -38.13152313 57.65830612

endloop
endfacet
facet normal -0.1514325589 0.9046501517 0.3983420134
outer loop
vertex 51.47536469 -38.13152313 57.65830612
vertex 52.80442047 -35.39467621 51.94807053
vertex 50.66725922 -36.69667816 54.09251022

endloop
endfacet
facet normal 0.2418924719 0.9179071784 0.314538449
outer loop
vertex 51.47536469 -38.13152313 57.65830612
vertex 50.66725922 -36.69667816 54.09251022
vertex 47.80440521 -37.54517365 58.77029419

endloop
endfacet
facet normal 0.1997423023 0.935357213 0.2919073403
outer loop
vertex 47.80440521 -37.54517365 58.77029419
vertex 50.66725922 -36.69667816 54.09251022
vertex 48.51598358 -36.54676056 55.08417511

endloop
endfacet
facet normal 0.9634329081 0.1450800002 0.2252750993
outer loop
vertex 47.80437469 -37.54517365 58.77029037
vertex 48.51593781 -36.54677582 55.0841713
vertex 44.52619171 -22.90912628 63.3642807

endloop
endfacet
facet normal 0.3713906705 0.5570860505 -0.7427813411
outer loop
vertex 44.52619171 -22.90912628 63.3642807
vertex 48.51593781 -36.54677582 55.0841713
vertex 44.52619171 -22.90914154 63.36426926

endloop
endfacet
facet normal -nan(ind) -nan(ind) -nan(ind)
outer loop
vertex 66.11049652 -31.00763702 7.47996521
vertex 66.11049652 -31.00763702 7.47996521
vertex 62.51430511 -43.49037933 13.8413372

endloop
endfacet
facet normal -0.9682735801 0.2332317829 -0.08971723169
outer loop
vertex 62.51430511 -43.49037933 13.8413372
vertex 66.11049652 -31.00763702 7.47996521
vertex 64.28258514 -40.56578827 2.360029936

endloop
endfacet
facet normal -0.1683790982 0.9611122012 0.2188878506
outer loop
vertex 62.51430511 -43.49037933 13.8413372
vertex 64.28258514 -40.56578827 2.360029936
vertex 58.49097443 -44.50296783 15.1925602

endloop
endfacet
facet normal 0.4055093527 0.8064064384 0.4304310381
outer loop
vertex 58.49097443 -44.50296783 15.1925602
vertex 64.28258514 -40.56578827 2.360029936
vertex 56.82559967 -38.82593536 6.12567091

endloop
endfacet
facet normal 0.5312625766 0.7585271597 0.3773546219
outer loop
vertex 58.49097443 -44.50296783 15.1925602
vertex 56.82559967 -38.82593536 6.12567091
vertex 55.64435577 -43.96172333 18.11223602

endloop
endfacet
facet normal 0.5615952015 0.7390683293 0.3720064461
outer loop
vertex 55.64435577 -43.96172333 18.11223602
vertex 56.82559967 -38.82593536 6.12567091
vertex 50.67520905 -36.7372818 11.2609911

endloop
endfacet
facet normal 0.8381870389 0.5443248153 -0.03395464271
outer loop
vertex 55.64435577 -43.96172333 18.11223602
vertex 50.67520905 -36.7372818 11.2609911
vertex 54.37174225 -41.70737457 22.83646965

endloop
endfacet
facet normal 0.7261106372 0.684764564 0.06213576347
outer loop
vertex 54.37174225 -41.70737457 22.83646965
vertex 50.67520905 -36.7372818 11.2609911
vertex 46.64139557 -33.0603714 17.87838936

endloop
endfacet
facet normal 0.7862985134 0.5784219503 -0.2171693444
outer loop
vertex 54.37174225 -41.70737457 22.83646965
vertex 46.64139557 -33.0603714 17.87838936
vertex 54.20554352 -38.96666718 29.53448486

endloop
endfacet
facet normal 0.8650151491 0.2547748089 -0.4322482646
outer loop
vertex 54.20554352 -38.96666718 29.53448486
vertex 46.64139557 -33.0603714 17.87838936
vertex 49.24983978 -28.33402252 25.88420105

endloop
endfacet
facet normal 0.9135173559 0.3621887863 -0.1852172464
outer loop
vertex 54.20555878 -38.96665192 29.53448677
vertex 49.24985504 -28.33400726 25.88419724
vertex 54.53882599 -36.08113861 36.82077408

endloop
endfacet
facet normal 0.9301245213 0.2024556696 -0.3063985407
outer loop
vertex 54.53882599 -36.08113861 36.82077408
vertex 49.24985504 -28.33400726 25.88419724
vertex 51.34217072 -25.06841278 34.39354706

endloop
endfacet
facet normal 0.9597451091 0.2506498396 -0.1267438978
outer loop
vertex 54.53882599 -36.08113861 36.82077408
vertex 51.34217072 -25.06841278 34.39354706
vertex 54.85189056 -33.98688507 43.33301163

endloop
endfacet
facet normal 0.9431775808 0.32970348 -0.04137133434
outer loop
vertex 54.85189056 -33.98688507 43.33301163
vertex 51.34217072 -25.06841278 34.39354706
vertex 51.23484039 -23.82241058 41.87649918

endloop
endfacet
facet normal 0.9381563663 0.341768086 0.05529279262
outer loop
vertex 54.85189056 -33.98688507 43.33301163
vertex 51.23484039 -23.82241058 41.87649918
vertex 54.47875214 -33.78037262 48.38761139

endloop
endfacet
facet normal 0.9480141997 0.3179235756 0.01391416881
outer loop
vertex 54.47875214 -33.78037262 48.38761139
vertex 51.23484039 -23.82241058 41.87649918
vertex 51.11278534 -23.69348907 47.24676132

endloop
endfacet
facet normal 0.7916795611 0.3228438497 0.5186668038
outer loop
vertex 54.47873688 -33.78037262 48.3876152
vertex 51.11277008 -23.69348907 47.24676514
vertex 52.80442047 -35.39467621 51.94807053

endloop
endfacet
facet normal 0.9624998569 0.2087567598 0.1732473373
outer loop
vertex 52.80442047 -35.39467621 51.94807053
vertex 51.11277008 -23.69348907 47.24676514
vertex 50.61724091 -24.00669098 50.37714386

endloop
endfacet
facet normal 0.6195163131 0.2228159755 0.7526969314
outer loop
vertex 52.80442047 -35.39467621 51.94807053
vertex 50.61724091 -24.00669098 50.37714386
vertex 50.66725922 -36.69667816 54.09251022

endloop
endfacet
facet normal 0.2328831851 0.2741036117 0.9330769777
outer loop
vertex 50.66725922 -36.69667816 54.09251022
vertex 50.61724091 -24.00669098 50.37714386
vertex 49.76303864 -24.33388519 50.68645859

endloop
endfacet
facet normal 0.4185635149 0.269552201 0.8672636151
outer loop
vertex 50.66725922 -36.69667816 54.09251022
vertex 49.76303864 -24.33388519 50.68645859
vertex 48.51598358 -36.54676056 55.08417511

endloop
endfacet
facet normal -0.8366797566 0.2591724396 0.4824901223
outer loop
vertex 48.51598358 -36.54676056 55.08417511
vertex 49.76303864 -24.33388519 50.68645859
vertex 49.4645462 -24.52770233 50.27295685

endloop
endfacet
facet normal 0.9363068342 0.06430434436 0.3452455997
outer loop
vertex 48.51593781 -36.54677582 55.0841713
vertex 49.46453094 -24.52771759 50.27295303
vertex 44.52619171 -22.90914154 63.36426926

endloop
endfacet
facet normal -0.3511234522 -0.936329186 0
outer loop
vertex 44.52619171 -22.90914154 63.36426926
vertex 49.46453094 -24.52771759 50.27295303
vertex 44.52619171 -22.90914154 63.36427307

endloop
endfacet
endsolid
