solid 
facet normal -0.4292 0.402375 -0.80863
outer loop
vertex -13.82399654 -51.73323822 -17.85173035
vertex -13.82398224 -51.73322296 -17.85173035
vertex -8.176780701 -55.4734726 -22.71026802

endloop
endfacet
facet normal -0.4415575862 -0.8818155527 0.1656148136
outer loop
vertex -8.176780701 -55.4734726 -22.71026802
vertex -13.82398224 -51.73322296 -17.85173035
vertex -8.860923767 -55.93619537 -26.99807739

endloop
endfacet
facet normal -0.9749832153 -0.1421281248 0.1709017158
outer loop
vertex -8.176780701 -55.4734726 -22.71026802
vertex -8.860923767 -55.93619537 -26.99807739
vertex -7.88902998 -59.69773102 -24.58171654

endloop
endfacet
facet normal -0.9754211307 -0.2107929289 0.06418767571
outer loop
vertex -7.88902998 -59.69773102 -24.58171654
vertex -8.860923767 -55.93619537 -26.99807739
vertex -8.205055237 -59.7959671 -29.70676804

endloop
endfacet
facet normal -0.9837366939 0.1701985598 0.05739766732
outer loop
vertex -7.88902998 -59.69773102 -24.58171654
vertex -8.205055237 -59.7959671 -29.70676804
vertex -8.767997742 -64.76096344 -24.63255501

endloop
endfacet
facet normal -0.9954196811 0.09375596792 -0.01869569905
outer loop
vertex -8.767997742 -64.76096344 -24.63255501
vertex -8.205055237 -59.7959671 -29.70676804
vertex -8.603951454 -64.01380157 -29.62001228

endloop
endfacet
facet normal -0.9817591906 0.1900904477 -0.003814689815
outer loop
vertex -8.767997742 -64.76096344 -24.63255501
vertex -8.603951454 -64.01380157 -29.62001228
vertex -9.793708801 -70.03142548 -23.28598976

endloop
endfacet
facet normal -0.9832654595 0.1817833632 -0.01198973134
outer loop
vertex -9.793708801 -70.03142548 -23.28598976
vertex -8.603951454 -64.01380157 -29.62001228
vertex -9.517738342 -68.80335999 -27.2986145

endloop
endfacet
facet normal -0.6737726927 0.7182832956 0.1734918207
outer loop
vertex -9.793708801 -70.03142548 -23.28598976
vertex -9.517738342 -68.80335999 -27.2986145
vertex -13.11910152 -73.89083099 -20.22193909

endloop
endfacet
facet normal 0.4336527288 -0.8208426237 -0.3717023432
outer loop
vertex -13.11910152 -73.89083099 -20.22193909
vertex -9.517738342 -68.80335999 -27.2986145
vertex -13.11908722 -73.89082336 -20.22193909

endloop
endfacet
facet normal -nan(ind) -nan(ind) -nan(ind)
outer loop
vertex -13.82398224 -51.73322296 -17.85173035
vertex -13.82398224 -51.73322296 -17.85173035
vertex -8.860923767 -55.93619537 -26.99807739

endloop
endfacet
facet normal -0.1952670962 -0.927059412 0.3200493455
outer loop
vertex -8.860923767 -55.93619537 -26.99807739
vertex -13.82398224 -51.73322296 -17.85173035
vertex -10.82946014 -55.66127777 -27.40278244

endloop
endfacet
facet normal -0.2409162372 -0.5846140981 0.7747164965
outer loop
vertex -8.860923767 -55.93619537 -26.99807739
vertex -10.82946014 -55.66127777 -27.40278244
vertex -8.205055237 -59.7959671 -29.70676804

endloop
endfacet
facet normal -0.2365644276 -0.5831936002 0.7771245241
outer loop
vertex -8.205055237 -59.7959671 -29.70676804
vertex -10.82946014 -55.66127777 -27.40278244
vertex -10.54698944 -59.9648819 -30.54643822

endloop
endfacet
facet normal -0.3403414786 0.0514991954 0.9388905764
outer loop
vertex -8.205055237 -59.7959671 -29.70676804
vertex -10.54698944 -59.9648819 -30.54643822
vertex -8.603951454 -64.01380157 -29.62001228

endloop
endfacet
facet normal -0.5214417577 -0.05540795252 0.8514860272
outer loop
vertex -8.603951454 -64.01380157 -29.62001228
vertex -10.54698944 -59.9648819 -30.54643822
vertex -10.70032501 -64.42242432 -30.93040085

endloop
endfacet
facet normal -0.5349101424 0.4489643574 0.7157528996
outer loop
vertex -8.603951454 -64.01380157 -29.62001228
vertex -10.70032501 -64.42242432 -30.93040085
vertex -9.517738342 -68.80335999 -27.2986145

endloop
endfacet
facet normal -0.6529660225 0.3710852861 0.6602508426
outer loop
vertex -9.517738342 -68.80335999 -27.2986145
vertex -10.70032501 -64.42242432 -30.93040085
vertex -10.99512482 -69.00787354 -28.64475632

endloop
endfacet
facet normal -0.4440844059 0.819191277 0.3629250526
outer loop
vertex -9.517738342 -68.80335999 -27.2986145
vertex -10.99512482 -69.00787354 -28.64475632
vertex -13.11908722 -73.89082336 -20.22193909

endloop
endfacet
facet normal 0 0.862285912 0.506421864
outer loop
vertex -13.11908722 -73.89082336 -20.22193909
vertex -10.99512482 -69.00787354 -28.64475632
vertex -13.11910152 -73.89082336 -20.22193909

endloop
endfacet
facet normal 0.6498938203 -0.6092754602 0.4543361962
outer loop
vertex -13.82398224 -51.73322296 -17.85173035
vertex -13.82399654 -51.73323822 -17.85173035
vertex -10.82946014 -55.66127777 -27.40278244

endloop
endfacet
facet normal 0.09454135597 -0.9099212885 0.4038627744
outer loop
vertex -10.82946014 -55.66127777 -27.40278244
vertex -13.82399654 -51.73323822 -17.85173035
vertex -13.00992584 -55.17157745 -25.78903389

endloop
endfacet
facet normal 0.4332801402 -0.5128996372 0.7410818338
outer loop
vertex -10.82946014 -55.66127777 -27.40278244
vertex -13.00992584 -55.17157745 -25.78903389
vertex -10.54698944 -59.9648819 -30.54643822

endloop
endfacet
facet normal 0.4953706861 -0.4703331292 0.7303386927
outer loop
vertex -10.54698944 -59.9648819 -30.54643822
vertex -13.00992584 -55.17157745 -25.78903389
vertex -13.46547699 -60.25681305 -28.75490189

endloop
endfacet
facet normal 0.5275757909 -0.09090271592 0.8446304202
outer loop
vertex -10.54698944 -59.9648819 -30.54643822
vertex -13.46547699 -60.25681305 -28.75490189
vertex -10.70032501 -64.42242432 -30.93040085

endloop
endfacet
facet normal 0.4702291191 -0.1427049637 0.8709304929
outer loop
vertex -10.70032501 -64.42242432 -30.93040085
vertex -13.46547699 -60.25681305 -28.75490189
vertex -13.66513824 -65.2678299 -29.46817398

endloop
endfacet
facet normal 0.3073373735 0.4086165428 0.8594046235
outer loop
vertex -10.70032501 -64.42242432 -30.93040085
vertex -13.66513824 -65.2678299 -29.46817398
vertex -10.99512482 -69.00787354 -28.64475632

endloop
endfacet
facet normal 0.2667321563 0.3849457204 0.8835557699
outer loop
vertex -10.99512482 -69.00787354 -28.64475632
vertex -13.66513824 -65.2678299 -29.46817398
vertex -13.2682724 -69.62509155 -27.68961906

endloop
endfacet
facet normal -0.02711271495 0.8677664399 0.496232152
outer loop
vertex -10.99512482 -69.00787354 -28.64475632
vertex -13.2682724 -69.62509155 -27.68961906
vertex -13.11910152 -73.89082336 -20.22193909

endloop
endfacet
facet normal -nan(ind) -nan(ind) -nan(ind)
outer loop
vertex -13.11910152 -73.89082336 -20.22193909
vertex -13.2682724 -69.62509155 -27.68961906
vertex -13.11910152 -73.89082336 -20.22193909

endloop
endfacet
facet normal -0.9952273369 -0.01210374013 -0.09682992101
outer loop
vertex -13.82399654 -51.73323822 -17.85172844
vertex -13.82399654 -51.73322296 -17.85173035
vertex -13.00992584 -55.17159271 -25.78903198

endloop
endfacet
facet normal 0.3411736786 -0.8492808342 0.4028927386
outer loop
vertex -13.00992584 -55.17159271 -25.78903198
vertex -13.82399654 -51.73322296 -17.85173035
vertex -14.70833588 -54.73934174 -23.43963432

endloop
endfacet
facet normal 0.7046490908 -0.40352422 0.5836418867
outer loop
vertex -13.00992584 -55.17159271 -25.78903198
vertex -14.70833588 -54.73934174 -23.43963432
vertex -13.46547699 -60.25681305 -28.75490189

endloop
endfacet
facet normal 0.6850152612 -0.4194968343 0.5956311822
outer loop
vertex -13.46547699 -60.25681305 -28.75490189
vertex -14.70833588 -54.73934174 -23.43963432
vertex -16.00165558 -60.42784882 -25.95858765

endloop
endfacet
facet normal 0.7387828827 -0.1237374842 0.6624869704
outer loop
vertex -13.46547699 -60.25681305 -28.75490189
vertex -16.00165558 -60.42784882 -25.95858765
vertex -13.66515446 -65.2678299 -29.46817207

endloop
endfacet
facet normal 0.7106223702 -0.1546480507 0.6863671541
outer loop
vertex -13.66515446 -65.2678299 -29.46817207
vertex -16.00165558 -60.42784882 -25.95858765
vertex -16.52098846 -65.99093628 -26.67434311

endloop
endfacet
facet normal 0.6096764207 0.3465200365 0.7128944993
outer loop
vertex -13.66515446 -65.2678299 -29.46817207
vertex -16.52098846 -65.99093628 -26.67434311
vertex -13.26828766 -69.62509918 -27.68961906

endloop
endfacet
facet normal 0.6116408706 0.3491019309 0.7099460959
outer loop
vertex -13.26828766 -69.62509918 -27.68961906
vertex -16.52098846 -65.99093628 -26.67434311
vertex -15.60601044 -70.29702759 -25.34519005

endloop
endfacet
facet normal 0.2366472632 0.8456835747 0.4783486426
outer loop
vertex -13.26828766 -69.62509918 -27.68961906
vertex -15.60601044 -70.29702759 -25.34519005
vertex -13.11910152 -73.89083099 -20.22193909

endloop
endfacet
facet normal 0 -0.8187320828 -0.5741757751
outer loop
vertex -13.11910152 -73.89083099 -20.22193909
vertex -15.60601044 -70.29702759 -25.34519005
vertex -13.11908722 -73.89083099 -20.22193909

endloop
endfacet
facet normal 0.9877073765 0 -0.1563141495
outer loop
vertex -13.82399654 -51.73322296 -17.85173035
vertex -13.82399654 -51.73323822 -17.85173035
vertex -14.70833588 -54.73934174 -23.43963432

endloop
endfacet
facet normal 0.5576488376 -0.7646195292 0.3230862021
outer loop
vertex -14.70833588 -54.73934174 -23.43963432
vertex -13.82399654 -51.73323822 -17.85173035
vertex -15.88396454 -54.5905838 -21.05843925

endloop
endfacet
facet normal 0.8210953474 -0.3766106367 0.4289136529
outer loop
vertex -14.70833588 -54.73934174 -23.43963432
vertex -15.88396454 -54.5905838 -21.05843925
vertex -16.00165558 -60.42784882 -25.95858765

endloop
endfacet
facet normal 0.7599468827 -0.4268276691 0.4902029634
outer loop
vertex -16.00165558 -60.42784882 -25.95858765
vertex -15.88396454 -54.5905838 -21.05843925
vertex -18.03488922 -60.53038788 -22.89580917

endloop
endfacet
facet normal 0.8263313174 -0.1470861286 0.543637991
outer loop
vertex -16.00165558 -60.42784882 -25.95858765
vertex -18.03488922 -60.53038788 -22.89580917
vertex -16.52098846 -65.99093628 -26.67434311

endloop
endfacet
facet normal 0.7975159287 -0.1778136194 0.5764986873
outer loop
vertex -16.52098846 -65.99093628 -26.67434311
vertex -18.03488922 -60.53038788 -22.89580917
vertex -19.02077484 -66.66506958 -23.42411995

endloop
endfacet
facet normal 0.7096205354 0.3410843015 0.6165226102
outer loop
vertex -16.52098846 -65.99093628 -26.67434311
vertex -19.02077484 -66.66506958 -23.42411995
vertex -15.60601044 -70.29702759 -25.34519005

endloop
endfacet
facet normal 0.6963580251 0.313141048 0.6457772851
outer loop
vertex -15.60601044 -70.29702759 -25.34519005
vertex -19.02077484 -66.66506958 -23.42411995
vertex -17.71471405 -71.29148865 -22.58910179

endloop
endfacet
facet normal 0.2303668261 0.8456868529 0.4813989699
outer loop
vertex -15.60601044 -70.29702759 -25.34519005
vertex -17.71471405 -71.29148865 -22.58910179
vertex -13.11908722 -73.89083099 -20.22193909

endloop
endfacet
facet normal -0.1060713157 0.5515708327 0.8273562789
outer loop
vertex -13.11908722 -73.89083099 -20.22193909
vertex -17.71471405 -71.29148865 -22.58910179
vertex -13.11910152 -73.89083099 -20.22194099

endloop
endfacet
facet normal -nan(ind) -nan(ind) -nan(ind)
outer loop
vertex -13.82399654 -51.73323822 -17.85173035
vertex -13.82399654 -51.73323822 -17.85173035
vertex -15.88396454 -54.5905838 -21.05843925

endloop
endfacet
facet normal 0.5565091968 -0.7649974227 0.3241550624
outer loop
vertex -15.88396454 -54.5905838 -21.05843925
vertex -13.82399654 -51.73323822 -17.85173035
vertex -16.87772369 -54.33737946 -18.75479889

endloop
endfacet
facet normal 0.8161984086 -0.418713212 0.3981197178
outer loop
vertex -15.88396454 -54.5905838 -21.05843925
vertex -16.87772369 -54.33737946 -18.75479889
vertex -18.03488922 -60.53038788 -22.89580917

endloop
endfacet
facet normal 0.826284349 -0.4115360379 0.3845675886
outer loop
vertex -18.03488922 -60.53038788 -22.89580917
vertex -16.87772369 -54.33737946 -18.75479889
vertex -19.49219513 -60.49575043 -19.72756577

endloop
endfacet
facet normal 0.8930707574 -0.1790677607 0.4127459824
outer loop
vertex -18.03488922 -60.53038788 -22.89580917
vertex -19.49219513 -60.49575043 -19.72756577
vertex -19.02077484 -66.66506958 -23.42411995

endloop
endfacet
facet normal 0.8930025697 -0.179142192 0.4128614664
outer loop
vertex -19.02077484 -66.66506958 -23.42411995
vertex -19.49219513 -60.49575043 -19.72756577
vertex -20.68727875 -67.25326538 -20.07476044

endloop
endfacet
facet normal 0.8256416321 0.3172854483 0.4665253162
outer loop
vertex -19.02077484 -66.66506958 -23.42411995
vertex -20.68727875 -67.25326538 -20.07476044
vertex -17.71471405 -71.29148865 -22.58910179

endloop
endfacet
facet normal 0.8072496057 0.2662540674 0.5267417431
outer loop
vertex -17.71471405 -71.29148865 -22.58910179
vertex -20.68727875 -67.25326538 -20.07476044
vertex -19.12689972 -72.28392029 -19.92323112

endloop
endfacet
facet normal 0.2514064312 0.8559496999 0.4518239498
outer loop
vertex -17.71471405 -71.29148865 -22.58910179
vertex -19.12689972 -72.28392029 -19.92323112
vertex -13.11910152 -73.89083099 -20.22194099

endloop
endfacet
facet normal 0.1620410383 0.4413032532 0.8826065063
outer loop
vertex -13.11910152 -73.89083099 -20.22194099
vertex -19.12689972 -72.28392029 -19.92323112
vertex -13.11910152 -73.89083862 -20.22193718

endloop
endfacet
facet normal -nan(ind) -nan(ind) -nan(ind)
outer loop
vertex -13.82399654 -51.73323822 -17.85173035
vertex -13.82399654 -51.73323822 -17.85173035
vertex -16.87772369 -54.33737946 -18.75479889

endloop
endfacet
facet normal 0.5271866322 -0.7540558577 0.3917576671
outer loop
vertex -16.87772369 -54.33737946 -18.75479889
vertex -13.82399654 -51.73323822 -17.85173035
vertex -17.9436264 -53.75411224 -16.19774437

endloop
endfacet
facet normal 0.8051027656 -0.409566462 0.4290279746
outer loop
vertex -16.87772369 -54.33737946 -18.75479889
vertex -17.9436264 -53.75411224 -16.19774437
vertex -19.49219513 -60.49575043 -19.72756577

endloop
endfacet
facet normal 0.8823711276 -0.3608248532 0.3020374179
outer loop
vertex -19.49219513 -60.49575043 -19.72756577
vertex -17.9436264 -53.75411224 -16.19774437
vertex -20.4419632 -60.04756927 -16.41750336

endloop
endfacet
facet normal 0.9385516047 -0.181081444 0.2938203514
outer loop
vertex -19.49219513 -60.49575043 -19.72756577
vertex -20.4419632 -60.04756927 -16.41750336
vertex -20.68727875 -67.25326538 -20.07476044

endloop
endfacet
facet normal 0.9714196324 -0.1328961402 0.1966787726
outer loop
vertex -20.68727875 -67.25326538 -20.07476044
vertex -20.4419632 -60.04756927 -16.41750336
vertex -21.37114716 -67.39900208 -16.79552841

endloop
endfacet
facet normal 0.9325144887 0.2954951525 0.2076040059
outer loop
vertex -20.68727875 -67.25326538 -20.07476044
vertex -21.37114716 -67.39900208 -16.79552841
vertex -19.12689972 -72.28392029 -19.92323112

endloop
endfacet
facet normal 0.9295914769 0.2594341338 0.2618275285
outer loop
vertex -19.12689972 -72.28392029 -19.92323112
vertex -21.37114716 -67.39900208 -16.79552841
vertex -19.66101837 -72.88850403 -17.42784119

endloop
endfacet
facet normal 0.2610293627 0.9239163995 0.2797180414
outer loop
vertex -19.12689972 -72.28392029 -19.92323112
vertex -19.66101837 -72.88850403 -17.42784119
vertex -13.11910152 -73.89083862 -20.22193718

endloop
endfacet
facet normal -0.4172215164 -0.204353407 -0.8855314255
outer loop
vertex -13.11910152 -73.89083862 -20.22193718
vertex -19.66101837 -72.88850403 -17.42784119
vertex -13.11910152 -73.89083099 -20.22193909

endloop
endfacet
facet normal -0 0.6333624721 0.773855269
outer loop
vertex -13.82399654 -51.73323822 -17.85173035
vertex -13.82401276 -51.73323822 -17.85173035
vertex -17.9436264 -53.75411224 -16.19774437

endloop
endfacet
facet normal 0.4723075032 -0.8748582006 0.1074653417
outer loop
vertex -17.9436264 -53.75411224 -16.19774437
vertex -13.82401276 -51.73323822 -17.85173035
vertex -18.31125641 -53.65259552 -13.75558758

endloop
endfacet
facet normal 0.9166051745 -0.3692221642 0.1533291489
outer loop
vertex -17.9436264 -53.75411224 -16.19774437
vertex -18.31125641 -53.65259552 -13.75558758
vertex -20.4419632 -60.04756927 -16.41750336

endloop
endfacet
facet normal 0.9268978238 -0.3570144475 0.115762718
outer loop
vertex -20.4419632 -60.04756927 -16.41750336
vertex -18.31125641 -53.65259552 -13.75558758
vertex -20.68079376 -59.67740631 -13.36362553

endloop
endfacet
facet normal 0.9872097373 -0.129555881 0.09290897101
outer loop
vertex -20.4419632 -60.04756927 -16.41750336
vertex -20.68079376 -59.67740631 -13.36362553
vertex -21.37114716 -67.39900208 -16.79552841

endloop
endfacet
facet normal 0.9945967793 -0.1004951 0.02603784949
outer loop
vertex -21.37114716 -67.39900208 -16.79552841
vertex -20.68079376 -59.67740631 -13.36362553
vertex -21.41280365 -67.07641602 -13.95928288

endloop
endfacet
facet normal 0.9538938999 0.2994734645 -0.02005118504
outer loop
vertex -21.37114716 -67.39900208 -16.79552841
vertex -21.41280365 -67.07641602 -13.95928288
vertex -19.66101837 -72.88850403 -17.42784119

endloop
endfacet
facet normal 0.955080986 0.2960290015 -0.01368004549
outer loop
vertex -19.66101837 -72.88850403 -17.42784119
vertex -21.41280365 -67.07641602 -13.95928288
vertex -19.63425446 -72.8821106 -15.42094421

endloop
endfacet
facet normal 0.1493009776 0.9887783527 -0.00514105428
outer loop
vertex -19.66101837 -72.88850403 -17.42784119
vertex -19.63425446 -72.8821106 -15.42094421
vertex -13.11910152 -73.89083099 -20.22193909

endloop
endfacet
facet normal -nan(ind) -nan(ind) -nan(ind)
outer loop
vertex -13.11910152 -73.89083099 -20.22193909
vertex -19.63425446 -72.8821106 -15.42094421
vertex -13.11910152 -73.89083099 -20.22193909

endloop
endfacet
facet normal 0.634227097 -0.6738663316 0.3790252209
outer loop
vertex -13.82401276 -51.73323822 -17.85173035
vertex -13.82399654 -51.73322296 -17.85173035
vertex -18.31125641 -53.65259552 -13.75558758

endloop
endfacet
facet normal 0.1379440278 -0.9463217258 -0.2923124433
outer loop
vertex -18.31125641 -53.65259552 -13.75558758
vertex -13.82399654 -51.73322296 -17.85173035
vertex -17.67710114 -54.12563324 -11.92493057

endloop
endfacet
facet normal 0.8492465615 -0.3591831028 -0.3869983852
outer loop
vertex -18.31125641 -53.65259552 -13.75558758
vertex -17.67710114 -54.12563324 -11.92493057
vertex -20.68079376 -59.67740631 -13.36362553

endloop
endfacet
facet normal 0.8763746619 -0.4077002108 -0.256413728
outer loop
vertex -20.68079376 -59.67740631 -13.36362553
vertex -17.67710114 -54.12563324 -11.92493057
vertex -19.95114899 -59.54233551 -11.08459854

endloop
endfacet
facet normal 0.9512457252 -0.06992612779 -0.3004029989
outer loop
vertex -20.68079376 -59.67740631 -13.36362553
vertex -19.95114899 -59.54233551 -11.08459854
vertex -21.41280365 -67.07641602 -13.95928288

endloop
endfacet
facet normal 0.9280939102 -0.03875571489 -0.370323807
outer loop
vertex -21.41280365 -67.07641602 -13.95928288
vertex -19.95114899 -59.54233551 -11.08459854
vertex -20.56121063 -66.49507141 -11.88588715

endloop
endfacet
facet normal 0.8220271468 0.3624088168 -0.4392393231
outer loop
vertex -21.41280365 -67.07641602 -13.95928288
vertex -20.56121063 -66.49507141 -11.88588715
vertex -19.63425446 -72.8821106 -15.42094421

endloop
endfacet
facet normal 0.7133744955 0.4157618284 -0.5641267896
outer loop
vertex -19.63425446 -72.8821106 -15.42094421
vertex -20.56121063 -66.49507141 -11.88588715
vertex -18.75629425 -72.46263123 -14.00155067

endloop
endfacet
facet normal -0.04172309861 0.964882195 -0.2593480647
outer loop
vertex -19.63425446 -72.8821106 -15.42094421
vertex -18.75629425 -72.46263123 -14.00155067
vertex -13.11910152 -73.89083099 -20.22193909

endloop
endfacet
facet normal -nan(ind) -nan(ind) -nan(ind)
outer loop
vertex -13.11910152 -73.89083099 -20.22193909
vertex -18.75629425 -72.46263123 -14.00155067
vertex -13.11910152 -73.89083099 -20.22193909

endloop
endfacet
facet normal -0.8383993506 0 -0.5450564027
outer loop
vertex -13.82399654 -51.73322296 -17.85173035
vertex -13.82399654 -51.73323822 -17.85173035
vertex -17.67710114 -54.12563324 -11.92493057

endloop
endfacet
facet normal 0.1524462551 -0.9468936324 -0.2831126153
outer loop
vertex -17.67710114 -54.12563324 -11.92493057
vertex -13.82399654 -51.73323822 -17.85173035
vertex -16.57840729 -54.24094391 -10.94765568

endloop
endfacet
facet normal 0.5980396867 -0.3620015085 -0.7150548697
outer loop
vertex -17.67710114 -54.12563324 -11.92493057
vertex -16.57840729 -54.24094391 -10.94765568
vertex -19.95114899 -59.54233551 -11.08459854

endloop
endfacet
facet normal 0.5750528574 -0.3467066288 -0.7410187125
outer loop
vertex -19.95114899 -59.54233551 -11.08459854
vertex -16.57840729 -54.24094391 -10.94765568
vertex -18.22592926 -59.1873703 -9.911856651

endloop
endfacet
facet normal 0.5549178123 0.04703125358 -0.8305746317
outer loop
vertex -19.95114899 -59.54233551 -11.08459854
vertex -18.22592926 -59.1873703 -9.911856651
vertex -20.56121063 -66.49507141 -11.88588715

endloop
endfacet
facet normal 0.3664679527 0.1316968054 -0.9210631251
outer loop
vertex -20.56121063 -66.49507141 -11.88588715
vertex -18.22592926 -59.1873703 -9.911856651
vertex -18.27022552 -65.84034729 -10.88074684

endloop
endfacet
facet normal 0.2726462483 0.3936946988 -0.877877295
outer loop
vertex -20.56121063 -66.49507141 -11.88588715
vertex -18.27022552 -65.84034729 -10.88074684
vertex -18.75629425 -72.46263123 -14.00155067

endloop
endfacet
facet normal 0.169021666 0.4099808037 -0.8962964416
outer loop
vertex -18.75629425 -72.46263123 -14.00155067
vertex -18.27022552 -65.84034729 -10.88074684
vertex -16.52599335 -71.97842407 -13.35948086

endloop
endfacet
facet normal -0.1127275229 0.9412724376 -0.318274647
outer loop
vertex -18.75629425 -72.46263123 -14.00155067
vertex -16.52599335 -71.97842407 -13.35948086
vertex -13.11910152 -73.89083099 -20.22193909

endloop
endfacet
facet normal -nan(ind) -nan(ind) -nan(ind)
outer loop
vertex -13.11910152 -73.89083099 -20.22193909
vertex -16.52599335 -71.97842407 -13.35948086
vertex -13.11910152 -73.89083099 -20.22193909

endloop
endfacet
facet normal -nan(ind) -nan(ind) -nan(ind)
outer loop
vertex -13.82399654 -51.73323822 -17.85173035
vertex -13.82399654 -51.73323822 -17.85173035
vertex -16.57840729 -54.24094391 -10.94765568

endloop
endfacet
facet normal 0.2807912529 -0.9326063395 -0.2267194092
outer loop
vertex -16.57840729 -54.24094391 -10.94765568
vertex -13.82399654 -51.73323822 -17.85173035
vertex -15.18781281 -53.80104828 -11.03491211

endloop
endfacet
facet normal 0.003821966005 -0.2061759084 -0.9785074592
outer loop
vertex -16.57840729 -54.24094391 -10.94765568
vertex -15.18781281 -53.80104828 -11.03491211
vertex -18.22592926 -59.1873703 -9.911856651

endloop
endfacet
facet normal -0.0170020964 -0.1948830187 -0.9806791544
outer loop
vertex -18.22592926 -59.1873703 -9.911856651
vertex -15.18781281 -53.80104828 -11.03491211
vertex -15.8208847 -58.62310028 -10.06568623

endloop
endfacet
facet normal -0.09679131955 0.1440667361 -0.9848229885
outer loop
vertex -18.22592926 -59.1873703 -9.911856651
vertex -15.8208847 -58.62310028 -10.06568623
vertex -18.27022552 -65.84034729 -10.88074684

endloop
endfacet
facet normal -0.153918758 0.1623067558 -0.9746617675
outer loop
vertex -18.27022552 -65.84034729 -10.88074684
vertex -15.8208847 -58.62310028 -10.06568623
vertex -15.13535309 -65.22689819 -11.27365112

endloop
endfacet
facet normal -0.1798113137 0.3239869475 -0.9288166761
outer loop
vertex -18.27022552 -65.84034729 -10.88074684
vertex -15.13535309 -65.22689819 -11.27365112
vertex -16.52599335 -71.97842407 -13.35948086

endloop
endfacet
facet normal -0.2434463352 0.3317210376 -0.9114247561
outer loop
vertex -16.52599335 -71.97842407 -13.35948086
vertex -15.13535309 -65.22689819 -11.27365112
vertex -13.67575836 -71.4401474 -13.92488289

endloop
endfacet
facet normal -0.2427975982 0.8965811133 -0.3703939617
outer loop
vertex -16.52599335 -71.97842407 -13.35948086
vertex -13.67575836 -71.4401474 -13.92488289
vertex -13.11910152 -73.89083099 -20.22193909

endloop
endfacet
facet normal 0.9805806875 0.1961161345 0
outer loop
vertex -13.11910152 -73.89083099 -20.22193909
vertex -13.67575836 -71.4401474 -13.92488289
vertex -13.11910152 -73.89083099 -20.22193718

endloop
endfacet
facet normal -nan(ind) -nan(ind) -nan(ind)
outer loop
vertex -13.82399654 -51.73323822 -17.85173035
vertex -13.82399654 -51.73323822 -17.85173035
vertex -15.18781281 -53.80104828 -11.03491211

endloop
endfacet
facet normal -0.1800877452 -0.9307100773 -0.3183506131
outer loop
vertex -15.18781281 -53.80104828 -11.03491211
vertex -13.82399654 -51.73323822 -17.85173035
vertex -13.36035919 -53.8259964 -11.99574757

endloop
endfacet
facet normal -0.4634841383 -0.1157309785 -0.8785150647
outer loop
vertex -15.18781281 -53.80104828 -11.03491211
vertex -13.36035919 -53.8259964 -11.99574757
vertex -15.8208847 -58.62310028 -10.06568623

endloop
endfacet
facet normal -0.5444959998 -0.05739388615 -0.8367975354
outer loop
vertex -15.8208847 -58.62310028 -10.06568623
vertex -13.36035919 -53.8259964 -11.99574757
vertex -13.40027618 -58.4681015 -11.6513834

endloop
endfacet
facet normal -0.5497463346 0.09474417567 -0.8299412727
outer loop
vertex -15.8208847 -58.62310028 -10.06568623
vertex -13.40027618 -58.4681015 -11.6513834
vertex -15.13535309 -65.22689819 -11.27365112

endloop
endfacet
facet normal -0.353464365 0.03850365803 -0.9346552491
outer loop
vertex -15.13535309 -65.22689819 -11.27365112
vertex -13.40027618 -58.4681015 -11.6513834
vertex -12.32886505 -64.78413391 -12.31675816

endloop
endfacet
facet normal -0.3732385635 0.2885551751 -0.8817192912
outer loop
vertex -15.13535309 -65.22689819 -11.27365112
vertex -12.32886505 -64.78413391 -12.31675816
vertex -13.67575836 -71.4401474 -13.92488289

endloop
endfacet
facet normal -0.003391440725 0.2354946584 -0.9718697071
outer loop
vertex -13.67575836 -71.4401474 -13.92488289
vertex -12.32886505 -64.78413391 -12.31675816
vertex -11.07653046 -70.88956451 -13.80054092

endloop
endfacet
facet normal -0.1754847914 0.9121098518 -0.3704871237
outer loop
vertex -13.67575836 -71.4401474 -13.92488289
vertex -11.07653046 -70.88956451 -13.80054092
vertex -13.11910152 -73.89083099 -20.22193718

endloop
endfacet
facet normal -0.8320503235 0.5547001958 0
outer loop
vertex -13.11910152 -73.89083099 -20.22193718
vertex -11.07653046 -70.88956451 -13.80054092
vertex -13.11910152 -73.89083099 -20.22194099

endloop
endfacet
facet normal 0.9968805313 0 -0.07892629504
outer loop
vertex -13.82399654 -51.73323822 -17.85173035
vertex -13.82399654 -51.73322296 -17.85173035
vertex -13.36035919 -53.8259964 -11.99574757

endloop
endfacet
facet normal -0.4121690392 -0.8678185344 -0.2775026262
outer loop
vertex -13.36035919 -53.8259964 -11.99574757
vertex -13.82399654 -51.73322296 -17.85173035
vertex -11.02788544 -54.45391083 -13.4964819

endloop
endfacet
facet normal -0.551016748 -0.05702224374 -0.8325437307
outer loop
vertex -13.36035919 -53.8259964 -11.99574757
vertex -11.02788544 -54.45391083 -13.4964819
vertex -13.40027618 -58.4681015 -11.6513834

endloop
endfacet
facet normal -0.642641902 0.02787117846 -0.7656596303
outer loop
vertex -13.40027618 -58.4681015 -11.6513834
vertex -11.02788544 -54.45391083 -13.4964819
vertex -10.99277496 -58.71338654 -13.68100262

endloop
endfacet
facet normal -0.6460175514 -0.02923153341 -0.7627627254
outer loop
vertex -13.40027618 -58.4681015 -11.6513834
vertex -10.99277496 -58.71338654 -13.68100262
vertex -12.32886505 -64.78413391 -12.31675816

endloop
endfacet
facet normal -0.4643409848 -0.09566874802 -0.8804742694
outer loop
vertex -12.32886505 -64.78413391 -12.31675816
vertex -10.99277496 -58.71338654 -13.68100262
vertex -9.972511292 -64.3234024 -13.60950375

endloop
endfacet
facet normal -0.4943460524 0.1082120314 -0.8625033498
outer loop
vertex -12.32886505 -64.78413391 -12.31675816
vertex -9.972511292 -64.3234024 -13.60950375
vertex -11.07653046 -70.88956451 -13.80054092

endloop
endfacet
facet normal -0.02371446788 0.03305739909 -0.9991720915
outer loop
vertex -11.07653046 -70.88956451 -13.80054092
vertex -9.972511292 -64.3234024 -13.60950375
vertex -8.846351624 -70.10547638 -13.82753086

endloop
endfacet
facet normal -0.3180314898 0.8936800957 -0.3165306747
outer loop
vertex -11.07653046 -70.88956451 -13.80054092
vertex -8.846351624 -70.10547638 -13.82753086
vertex -13.11910152 -73.89083099 -20.22194099

endloop
endfacet
facet normal 0.07568755746 0.8325631618 -0.5487348437
outer loop
vertex -13.11910152 -73.89083099 -20.22194099
vertex -8.846351624 -70.10547638 -13.82753086
vertex -13.11908722 -73.89083099 -20.22193909

endloop
endfacet
facet normal -0.4691946208 0.5815867782 0.6645398736
outer loop
vertex -13.82399654 -51.73322296 -17.85173035
vertex -13.82401276 -51.73323822 -17.85172844
vertex -11.02788544 -54.45391083 -13.4964819

endloop
endfacet
facet normal -0.5182255507 -0.8342291117 -0.1884254962
outer loop
vertex -11.02788544 -54.45391083 -13.4964819
vertex -13.82401276 -51.73323822 -17.85172844
vertex -8.660163879 -55.38523102 -15.88511467

endloop
endfacet
facet normal -0.7051205039 0.02488652058 -0.7086507082
outer loop
vertex -11.02788544 -54.45391083 -13.4964819
vertex -8.660163879 -55.38523102 -15.88511467
vertex -10.99277496 -58.71338654 -13.68100262

endloop
endfacet
facet normal -0.7616422176 0.1110136881 -0.6384177208
outer loop
vertex -10.99277496 -58.71338654 -13.68100262
vertex -8.660163879 -55.38523102 -15.88511467
vertex -8.850563049 -59.29843903 -16.3384285

endloop
endfacet
facet normal -0.7855976224 -0.1505212933 -0.6001498699
outer loop
vertex -10.99277496 -58.71338654 -13.68100262
vertex -8.850563049 -59.29843903 -16.3384285
vertex -9.972511292 -64.3234024 -13.60950375

endloop
endfacet
facet normal -0.9212465882 -0.005531700794 -0.3889398873
outer loop
vertex -9.972511292 -64.3234024 -13.60950375
vertex -8.850563049 -59.29843903 -16.3384285
vertex -8.819526672 -64.27303314 -16.34119034

endloop
endfacet
facet normal -0.9080086946 -0.1622862816 -0.3862427473
outer loop
vertex -9.972511292 -64.3234024 -13.60950375
vertex -8.819526672 -64.27303314 -16.34119034
vertex -8.846351624 -70.10547638 -13.82753086

endloop
endfacet
facet normal -0.9850615263 -0.06431462616 -0.1597414762
outer loop
vertex -8.846351624 -70.10547638 -13.82753086
vertex -8.819526672 -64.27303314 -16.34119034
vertex -8.457084656 -69.76594543 -16.36468506

endloop
endfacet
facet normal -0.6620512009 0.7494575381 -0.001281220815
outer loop
vertex -8.846351624 -70.10547638 -13.82753086
vertex -8.457084656 -69.76594543 -16.36468506
vertex -13.11908722 -73.89083099 -20.22193909

endloop
endfacet
facet normal 0 -0.683157146 0.730271399
outer loop
vertex -13.11908722 -73.89083099 -20.22193909
vertex -8.457084656 -69.76594543 -16.36468506
vertex -13.11910152 -73.89083099 -20.22193909

endloop
endfacet
facet normal -0.09571886063 -0.5734773278 -0.8136103153
outer loop
vertex -13.82401276 -51.73323822 -17.85172844
vertex -13.82399654 -51.73323822 -17.85173035
vertex -8.660163879 -55.38523102 -15.88511467

endloop
endfacet
facet normal -0.5695898533 -0.8213915825 -0.02972086519
outer loop
vertex -8.660163879 -55.38523102 -15.88511467
vertex -13.82399654 -51.73323822 -17.85173035
vertex -8.176780701 -55.4734726 -22.71026802

endloop
endfacet
facet normal -0.9958443046 0.05670852214 -0.07126263529
outer loop
vertex -8.660163879 -55.38523102 -15.88511467
vertex -8.176780701 -55.4734726 -22.71026802
vertex -8.850563049 -59.29843903 -16.3384285

endloop
endfacet
facet normal -0.9932201505 -0.01668902673 -0.1150451377
outer loop
vertex -8.850563049 -59.29843903 -16.3384285
vertex -8.176780701 -55.4734726 -22.71026802
vertex -7.88902998 -59.69773102 -24.58171654

endloop
endfacet
facet normal -0.993281126 -0.006132898852 -0.1155635789
outer loop
vertex -8.850563049 -59.29843903 -16.3384285
vertex -7.88902998 -59.69773102 -24.58171654
vertex -8.819526672 -64.27303314 -16.34119034

endloop
endfacet
facet normal -0.9851073623 0.1711754352 -0.0161955487
outer loop
vertex -8.819526672 -64.27303314 -16.34119034
vertex -7.88902998 -59.69773102 -24.58171654
vertex -8.767997742 -64.76096344 -24.63255501

endloop
endfacet
facet normal -0.997828126 -0.06583031267 -0.002327290131
outer loop
vertex -8.819526672 -64.27303314 -16.34119034
vertex -8.767997742 -64.76096344 -24.63255501
vertex -8.457084656 -69.76594543 -16.36468506

endloop
endfacet
facet normal -0.9568760991 0.2311694175 0.1759224683
outer loop
vertex -8.457084656 -69.76594543 -16.36468506
vertex -8.767997742 -64.76096344 -24.63255501
vertex -9.793708801 -70.03142548 -23.28598976

endloop
endfacet
facet normal -0.7081213593 0.6974701881 0.1099977195
outer loop
vertex -8.457084656 -69.76594543 -16.36468506
vertex -9.793708801 -70.03142548 -23.28598976
vertex -13.11910152 -73.89083099 -20.22193909

endloop
endfacet
facet normal -nan(ind) -nan(ind) -nan(ind)
outer loop
vertex -13.11910152 -73.89083099 -20.22193909
vertex -9.793708801 -70.03142548 -23.28598976
vertex -13.11910152 -73.89083099 -20.22193909

endloop
endfacet
endsolid
