solid 
facet normal -nan(ind) -nan(ind) -nan(ind)
outer loop
vertex 87.67589569 -37.85424042 273.6242981
vertex 87.67589569 -37.85424042 273.6242981
vertex 87.16851044 -38.48352814 273.1237488

endloop
endfacet
facet normal -0.5595463514 0.7430987358 -0.367031455
outer loop
vertex 87.16851044 -38.48352814 273.1237488
vertex 87.67589569 -37.85424042 273.6242981
vertex 87.4217453 -38.40114594 272.90448

endloop
endfacet
facet normal -0.6571989059 0.4853482246 -0.5766513348
outer loop
vertex 87.16851044 -38.48352814 273.1237488
vertex 87.4217453 -38.40114594 272.90448
vertex 86.97887421 -39.42613983 272.5465088

endloop
endfacet
facet normal -0.6258625984 0.4840079248 -0.611581862
outer loop
vertex 86.97887421 -39.42613983 272.5465088
vertex 87.4217453 -38.40114594 272.90448
vertex 87.27025604 -39.34076691 272.3158875

endloop
endfacet
facet normal -0.6246314049 0.4905746579 -0.6075953245
outer loop
vertex 86.97887421 -39.42613983 272.5465088
vertex 87.27025604 -39.34076691 272.3158875
vertex 86.88509369 -39.96596527 272.2070618

endloop
endfacet
facet normal -0.5996397138 0.4807760715 -0.6397550702
outer loop
vertex 86.88509369 -39.96596527 272.2070618
vertex 87.27025604 -39.34076691 272.3158875
vertex 87.18874359 -39.88271332 271.9850159

endloop
endfacet
facet normal -0.6005443335 0.4751488268 -0.6431019306
outer loop
vertex 86.88509369 -39.96596527 272.2070618
vertex 87.18874359 -39.88271332 271.9850159
vertex 86.81047821 -40.48459625 271.8935547

endloop
endfacet
facet normal -0.581035316 0.4665060043 -0.6669108868
outer loop
vertex 86.81047821 -40.48459625 271.8935547
vertex 87.18874359 -39.88271332 271.9850159
vertex 87.12047577 -40.40436554 271.6795959

endloop
endfacet
facet normal -0.5830181837 0.4516458511 -0.6753560901
outer loop
vertex 86.81047821 -40.48459625 271.8935547
vertex 87.12047577 -40.40436554 271.6795959
vertex 86.74904633 -41.03246307 271.5802002

endloop
endfacet
facet normal -0.5583841205 0.4413625598 -0.7024288774
outer loop
vertex 86.74904633 -41.03246307 271.5802002
vertex 87.12047577 -40.40436554 271.6795959
vertex 87.06587982 -40.95761871 271.3753662

endloop
endfacet
facet normal -0.5607653856 0.4183039963 -0.7145375013
outer loop
vertex 86.74904633 -41.03246307 271.5802002
vertex 87.06587982 -40.95761871 271.3753662
vertex 86.7029953 -41.59641266 271.2861938

endloop
endfacet
facet normal -0.533116281 0.4064340293 -0.74202317
outer loop
vertex 86.7029953 -41.59641266 271.2861938
vertex 87.06587982 -40.95761871 271.3753662
vertex 87.02706146 -41.52841949 271.0906067

endloop
endfacet
facet normal -0.5352408886 0.3778326213 -0.7554863691
outer loop
vertex 86.7029953 -41.59641266 271.2861938
vertex 87.02706146 -41.52841949 271.0906067
vertex 86.6727829 -42.14745331 271.0320129

endloop
endfacet
facet normal -0.5096641183 0.3654128313 -0.7789197564
outer loop
vertex 86.6727829 -42.14745331 271.0320129
vertex 87.02706146 -41.52841949 271.0906067
vertex 87.00283051 -42.08640289 270.844696

endloop
endfacet
facet normal -0.5107275248 0.3460761011 -0.7870125175
outer loop
vertex 86.6727829 -42.14745331 271.0320129
vertex 87.00279999 -42.08640289 270.844696
vertex 86.65285492 -42.66585541 270.8169861

endloop
endfacet
facet normal -0.4858175516 0.3320612311 -0.8085274696
outer loop
vertex 86.65285492 -42.66585541 270.8169861
vertex 87.00279999 -42.08640289 270.844696
vertex 86.98491669 -42.61212921 270.6395264

endloop
endfacet
facet normal -0.4863710701 0.3181094229 -0.8137871623
outer loop
vertex 86.65285492 -42.66585541 270.8169861
vertex 86.98491669 -42.61212921 270.6395264
vertex 86.61986542 -43.31821442 270.5816956

endloop
endfacet
facet normal -0.4884924889 0.3190711439 -0.812138319
outer loop
vertex 86.61986542 -43.31821442 270.5816956
vertex 86.98491669 -42.61212921 270.6395264
vertex 86.91976166 -43.2712326 270.4197693

endloop
endfacet
facet normal -0.4212777019 -0.2818795443 -0.8620145321
outer loop
vertex 86.61989594 -43.31819916 270.5817261
vertex 86.91979218 -43.27121735 270.4197998
vertex 86.91799164 -43.82624054 270.6021729

endloop
endfacet
facet normal -nan(ind) -nan(ind) -nan(ind)
outer loop
vertex 86.91799164 -43.82624054 270.6021729
vertex 86.91979218 -43.27121735 270.4197998
vertex 86.91799164 -43.82624054 270.6021729

endloop
endfacet
facet normal -0.6057844162 -0.5158007145 0.6057844162
outer loop
vertex 87.67589569 -37.85424042 273.6242981
vertex 87.67586517 -37.85424042 273.6242676
vertex 87.4217453 -38.40114594 272.90448

endloop
endfacet
facet normal 0.01822189614 0.792991519 -0.6089601517
outer loop
vertex 87.4217453 -38.40114594 272.90448
vertex 87.67586517 -37.85424042 273.6242676
vertex 87.62947845 -38.42792511 272.875824

endloop
endfacet
facet normal -0.04723691568 0.5357267261 -0.8430690765
outer loop
vertex 87.4217453 -38.40114594 272.90448
vertex 87.62947845 -38.42792511 272.875824
vertex 87.27025604 -39.34076691 272.3158875

endloop
endfacet
facet normal 0.03641533479 0.5120711327 -0.8581707478
outer loop
vertex 87.27025604 -39.34076691 272.3158875
vertex 87.62947845 -38.42792511 272.875824
vertex 87.49620819 -39.37703705 272.303833

endloop
endfacet
facet normal 0.03729527444 0.5166306496 -0.8553957939
outer loop
vertex 87.27025604 -39.34076691 272.3158875
vertex 87.49620819 -39.37703705 272.303833
vertex 87.18874359 -39.88271332 271.9850159

endloop
endfacet
facet normal 0.07577142119 0.4984200299 -0.8636180758
outer loop
vertex 87.18874359 -39.88271332 271.9850159
vertex 87.49620819 -39.37703705 272.303833
vertex 87.41704559 -39.91905975 271.9840698

endloop
endfacet
facet normal 0.07545202225 0.4964440167 -0.8647833467
outer loop
vertex 87.18874359 -39.88271332 271.9850159
vertex 87.41704559 -39.91905975 271.9840698
vertex 87.12047577 -40.40436554 271.6795959

endloop
endfacet
facet normal 0.1008217633 0.4838050008 -0.8693490624
outer loop
vertex 87.12047577 -40.40436554 271.6795959
vertex 87.41704559 -39.91905975 271.9840698
vertex 87.34877777 -40.43938446 271.6865845

endloop
endfacet
facet normal 0.09920558333 0.4719347656 -0.876034081
outer loop
vertex 87.12047577 -40.40436554 271.6795959
vertex 87.34877777 -40.43938446 271.6865845
vertex 87.06587982 -40.95761871 271.3753662

endloop
endfacet
facet normal 0.1298392415 0.4574247599 -0.8797183037
outer loop
vertex 87.06587982 -40.95761871 271.3753662
vertex 87.34877777 -40.43938446 271.6865845
vertex 87.29366302 -40.99028778 271.3919983

endloop
endfacet
facet normal 0.1275588125 0.4358032644 -0.8909569383
outer loop
vertex 87.06587982 -40.95761871 271.3753662
vertex 87.29366302 -40.99028778 271.3919983
vertex 87.02706146 -41.52841949 271.0906067

endloop
endfacet
facet normal 0.1615344137 0.4201055169 -0.8929826021
outer loop
vertex 87.02706146 -41.52841949 271.0906067
vertex 87.29366302 -40.99028778 271.3919983
vertex 87.25426483 -41.5581131 271.1177368

endloop
endfacet
facet normal 0.1594460458 0.3923197687 -0.9059040546
outer loop
vertex 87.02706146 -41.52841949 271.0906067
vertex 87.25426483 -41.5581131 271.1177368
vertex 87.00283051 -42.08640289 270.844696

endloop
endfacet
facet normal 0.1896691173 0.3780593574 -0.9061439037
outer loop
vertex 87.00283051 -42.08640289 270.844696
vertex 87.25426483 -41.5581131 271.1177368
vertex 87.22902679 -42.11306 270.8809204

endloop
endfacet
facet normal 0.1881655753 0.3514996767 -0.9170832038
outer loop
vertex 87.00279999 -42.08640289 270.844696
vertex 87.22902679 -42.11307526 270.8808899
vertex 86.98491669 -42.61212921 270.6395264

endloop
endfacet
facet normal 0.2124786973 0.339266628 -0.9163793325
outer loop
vertex 86.98491669 -42.61212921 270.6395264
vertex 87.22902679 -42.11307526 270.8808899
vertex 87.20827484 -42.63504791 270.6828308

endloop
endfacet
facet normal 0.2107647508 0.2903814018 -0.9334113598
outer loop
vertex 86.98491669 -42.61212921 270.6395264
vertex 87.20827484 -42.63504791 270.6828308
vertex 86.91976166 -43.2712326 270.4197693

endloop
endfacet
facet normal 0.167907998 0.3107049167 -0.9355583191
outer loop
vertex 86.91976166 -43.2712326 270.4197693
vertex 87.20827484 -42.63504791 270.6828308
vertex 87.12758636 -43.28659821 270.4519653

endloop
endfacet
facet normal 0.1231084242 -0.3101519346 -0.9426823854
outer loop
vertex 86.91979218 -43.27121735 270.4197998
vertex 87.12761688 -43.28658295 270.4519958
vertex 86.91799164 -43.82624054 270.6021729

endloop
endfacet
facet normal -0.7365053296 0.4311393201 0.5212281346
outer loop
vertex 86.91799164 -43.82624054 270.6021729
vertex 87.12761688 -43.28658295 270.4519958
vertex 86.91796112 -43.8262558 270.6021423

endloop
endfacet
facet normal 0.6702272892 0.5683882833 -0.4772107303
outer loop
vertex 87.67586517 -37.85424042 273.6242676
vertex 87.67589569 -37.85422516 273.6243286
vertex 87.62947845 -38.42792511 272.875824

endloop
endfacet
facet normal 0.4935898781 0.6752155423 -0.5481358171
outer loop
vertex 87.62947845 -38.42792511 272.875824
vertex 87.67589569 -37.85422516 273.6243286
vertex 87.77312469 -38.49098969 272.9274902

endloop
endfacet
facet normal 0.4625207186 0.4090968072 -0.7865839601
outer loop
vertex 87.62947845 -38.42792511 272.875824
vertex 87.77312469 -38.49098969 272.9274902
vertex 87.49620819 -39.37703705 272.303833

endloop
endfacet
facet normal 0.5546327233 0.3560249805 -0.7520829439
outer loop
vertex 87.49620819 -39.37703705 272.303833
vertex 87.77312469 -38.49098969 272.9274902
vertex 87.63182831 -39.44493866 272.3717041

endloop
endfacet
facet normal 0.5555457473 0.3608046174 -0.7491254807
outer loop
vertex 87.49620819 -39.37703705 272.303833
vertex 87.63182831 -39.44493866 272.3717041
vertex 87.41704559 -39.91905975 271.9840698

endloop
endfacet
facet normal 0.5900060534 0.333786428 -0.7351731062
outer loop
vertex 87.41704559 -39.91905975 271.9840698
vertex 87.63182831 -39.44493866 272.3717041
vertex 87.54918671 -39.98560333 272.059906

endloop
endfacet
facet normal 0.5911058187 0.340495795 -0.7312020659
outer loop
vertex 87.41704559 -39.91905975 271.9840698
vertex 87.54918671 -39.98560333 272.059906
vertex 87.34877777 -40.43938446 271.6865845

endloop
endfacet
facet normal 0.6115285754 0.323836714 -0.7219159007
outer loop
vertex 87.34877777 -40.43938446 271.6865845
vertex 87.54918671 -39.98560333 272.059906
vertex 87.47872162 -40.50353241 271.7678833

endloop
endfacet
facet normal 0.611635685 0.3246077597 -0.7214787006
outer loop
vertex 87.34877777 -40.43938446 271.6865845
vertex 87.47872162 -40.50353241 271.7678833
vertex 87.29366302 -40.99028778 271.3919983

endloop
endfacet
facet normal 0.6360704303 0.3053923547 -0.7086253762
outer loop
vertex 87.29366302 -40.99028778 271.3919983
vertex 87.47872162 -40.50353241 271.7678833
vertex 87.42076874 -41.05016327 271.4802856

endloop
endfacet
facet normal 0.635448277 0.2996323705 -0.7116360664
outer loop
vertex 87.29366302 -40.99028778 271.3919983
vertex 87.42076874 -41.05016327 271.4802856
vertex 87.25426483 -41.5581131 271.1177368

endloop
endfacet
facet normal 0.6612150073 0.2800116241 -0.6959799528
outer loop
vertex 87.25426483 -41.5581131 271.1177368
vertex 87.42076874 -41.05016327 271.4802856
vertex 87.37819672 -41.61251068 271.2135925

endloop
endfacet
facet normal 0.6603676677 0.2691346705 -0.7010571361
outer loop
vertex 87.25426483 -41.5581131 271.1177368
vertex 87.37819672 -41.61251068 271.2135925
vertex 87.22902679 -42.11306 270.8809204

endloop
endfacet
facet normal 0.6831649542 0.2519509494 -0.6854242086
outer loop
vertex 87.22902679 -42.11306 270.8809204
vertex 87.37819672 -41.61251068 271.2135925
vertex 87.34984589 -42.16187286 270.9833984

endloop
endfacet
facet normal 0.6823302507 0.2354781479 -0.6920805573
outer loop
vertex 87.22902679 -42.11307526 270.8808899
vertex 87.34984589 -42.16188812 270.9833984
vertex 87.20827484 -42.63504791 270.6828308

endloop
endfacet
facet normal 0.6979459524 0.2233960032 -0.6804157495
outer loop
vertex 87.20827484 -42.63504791 270.6828308
vertex 87.34984589 -42.16188812 270.9833984
vertex 87.32689667 -42.6778183 270.7904663

endloop
endfacet
facet normal 0.6945288181 0.1623441279 -0.7009094954
outer loop
vertex 87.20827484 -42.63504791 270.6828308
vertex 87.32689667 -42.6778183 270.7904663
vertex 87.12758636 -43.28659821 270.4519653

endloop
endfacet
facet normal 0.6459292769 0.1984127462 -0.737161994
outer loop
vertex 87.12758636 -43.28659821 270.4519653
vertex 87.32689667 -42.6778183 270.7904663
vertex 87.25322723 -43.32259369 270.5523682

endloop
endfacet
facet normal 0.4965543747 -0.4063083231 -0.7670379877
outer loop
vertex 87.12761688 -43.28658295 270.4519958
vertex 87.25325775 -43.32257843 270.5523987
vertex 86.91796112 -43.8262558 270.6021423

endloop
endfacet
facet normal 0.7189587355 -0.523735702 -0.4569455981
outer loop
vertex 86.91796112 -43.8262558 270.6021423
vertex 87.25325775 -43.32257843 270.5523987
vertex 86.91802216 -43.82622528 270.6022034

endloop
endfacet
facet normal -0.3247027397 0.6752139926 -0.6623097658
outer loop
vertex 87.67589569 -37.85422516 273.6243286
vertex 87.67592621 -37.85424042 273.6242981
vertex 87.77312469 -38.49098969 272.9274902

endloop
endfacet
facet normal 0.8167091608 0.4781632721 -0.3230262399
outer loop
vertex 87.77312469 -38.49098969 272.9274902
vertex 87.67592621 -37.85424042 273.6242981
vertex 87.86003876 -38.57198334 273.0273438

endloop
endfacet
facet normal 0.8132716417 0.1982686073 -0.5470637679
outer loop
vertex 87.77312469 -38.49098969 272.9274902
vertex 87.86003876 -38.57198334 273.0273438
vertex 87.63182831 -39.44493866 272.3717041

endloop
endfacet
facet normal 0.8634648323 0.1385411769 -0.4850102067
outer loop
vertex 87.63182831 -39.44493866 272.3717041
vertex 87.86003876 -38.57198334 273.0273438
vertex 87.70207977 -39.52188873 272.4747925

endloop
endfacet
facet normal 0.8646780252 0.1451616883 -0.4808950722
outer loop
vertex 87.63182831 -39.44493866 272.3717041
vertex 87.70207977 -39.52188873 272.4747925
vertex 87.54918671 -39.98560333 272.059906

endloop
endfacet
facet normal 0.8837125301 0.1146232635 -0.4537771344
outer loop
vertex 87.54918671 -39.98560333 272.059906
vertex 87.70207977 -39.52188873 272.4747925
vertex 87.6137619 -40.05988312 272.1669006

endloop
endfacet
facet normal 0.8862469196 0.130086422 -0.4445716441
outer loop
vertex 87.54918671 -39.98560333 272.059906
vertex 87.6137619 -40.05988312 272.1669006
vertex 87.47872162 -40.50353241 271.7678833

endloop
endfacet
facet normal 0.8972652555 0.1111685485 -0.4272665381
outer loop
vertex 87.47872162 -40.50353241 271.7678833
vertex 87.6137619 -40.05988312 272.1669006
vertex 87.54021454 -40.57514191 271.8783875

endloop
endfacet
facet normal 0.8992016315 0.125235796 -0.4192282856
outer loop
vertex 87.47872162 -40.50353241 271.7678833
vertex 87.54021454 -40.57514191 271.8783875
vertex 87.42076874 -41.05016327 271.4802856

endloop
endfacet
facet normal 0.9118954539 0.1035388336 -0.3971477449
outer loop
vertex 87.42076874 -41.05016327 271.4802856
vertex 87.54021454 -40.57514191 271.8783875
vertex 87.47847748 -41.11699677 271.5953674

endloop
endfacet
facet normal 0.9132387042 0.1160773784 -0.3905396461
outer loop
vertex 87.42076874 -41.05016327 271.4802856
vertex 87.47847748 -41.11699677 271.5953674
vertex 87.37819672 -41.61251068 271.2135925

endloop
endfacet
facet normal 0.9261766672 0.09393738955 -0.3652020395
outer loop
vertex 87.37819672 -41.61251068 271.2135925
vertex 87.47847748 -41.11699677 271.5953674
vertex 87.4318161 -41.67324066 271.3339539

endloop
endfacet
facet normal 0.9269069433 0.103340745 -0.3607828021
outer loop
vertex 87.37819672 -41.61251068 271.2135925
vertex 87.4318161 -41.67324066 271.3339539
vertex 87.34984589 -42.16187286 270.9833984

endloop
endfacet
facet normal 0.9376251101 0.08461856842 -0.3371926248
outer loop
vertex 87.34984589 -42.16187286 270.9833984
vertex 87.4318161 -41.67324066 271.3339539
vertex 87.39965057 -42.216362 271.1082153

endloop
endfacet
facet normal 0.9376570582 0.08437471092 -0.3371649981
outer loop
vertex 87.34984589 -42.16188812 270.9833984
vertex 87.39962006 -42.21637726 271.1081848
vertex 87.32689667 -42.6778183 270.7904663

endloop
endfacet
facet normal 0.9450536966 0.07080823928 -0.31915465
outer loop
vertex 87.32689667 -42.6778183 270.7904663
vertex 87.39962006 -42.21637726 271.1081848
vertex 87.37425995 -42.72618866 270.9199829

endloop
endfacet
facet normal 0.9410865307 0.01718938723 -0.3377288282
outer loop
vertex 87.32689667 -42.6778183 270.7904663
vertex 87.37425995 -42.72618866 270.9199829
vertex 87.25322723 -43.32259369 270.5523682

endloop
endfacet
facet normal 0.9229546189 0.04809099063 -0.3818927407
outer loop
vertex 87.25322723 -43.32259369 270.5523682
vertex 87.37425995 -42.72618866 270.9199829
vertex 87.31175995 -43.36873627 270.6880188

endloop
endfacet
facet normal 0.7069820762 -0.5181758404 -0.4813213646
outer loop
vertex 87.25325775 -43.32257843 270.5523987
vertex 87.31179047 -43.36872101 270.6880493
vertex 86.91802216 -43.82622528 270.6022034

endloop
endfacet
facet normal -0.6385139227 0.4296510518 0.6385139227
outer loop
vertex 86.91802216 -43.82622528 270.6022034
vertex 87.31179047 -43.36872101 270.6880493
vertex 86.91799164 -43.82622528 270.6021729

endloop
endfacet
facet normal 0 -0.6394477487 0.7688344717
outer loop
vertex 87.67592621 -37.85424042 273.6242981
vertex 87.67589569 -37.85424042 273.6242981
vertex 87.86003876 -38.57198334 273.0273438

endloop
endfacet
facet normal 0.9720267653 0.2341554761 0.0183072295
outer loop
vertex 87.86003876 -38.57198334 273.0273438
vertex 87.67589569 -37.85424042 273.6242981
vertex 87.87880707 -38.66046906 273.1625977

endloop
endfacet
facet normal 0.9824739695 -0.06089729443 -0.1761717498
outer loop
vertex 87.86003876 -38.57198334 273.0273438
vertex 87.87880707 -38.66046906 273.1625977
vertex 87.70207977 -39.52188873 272.4747925

endloop
endfacet
facet normal 0.9872277379 -0.11234124 -0.1129638478
outer loop
vertex 87.70207977 -39.52188873 272.4747925
vertex 87.87880707 -38.66046906 273.1625977
vertex 87.70769501 -39.60237885 272.6039124

endloop
endfacet
facet normal 0.9891351461 -0.1015362889 -0.1063112393
outer loop
vertex 87.70207977 -39.52188873 272.4747925
vertex 87.70769501 -39.60237885 272.6039124
vertex 87.6137619 -40.05988312 272.1669006

endloop
endfacet
facet normal 0.9885157943 -0.1310047507 -0.07532777637
outer loop
vertex 87.6137619 -40.05988312 272.1669006
vertex 87.70769501 -39.60237885 272.6039124
vertex 87.61339569 -40.13715363 272.2964783

endloop
endfacet
facet normal 0.9923331141 -0.1073649153 -0.0612199679
outer loop
vertex 87.6137619 -40.05988312 272.1669006
vertex 87.61339569 -40.13715363 272.2964783
vertex 87.54021454 -40.57514191 271.8783875

endloop
endfacet
facet normal 0.9911209941 -0.1264936328 -0.04096876085
outer loop
vertex 87.54021454 -40.57514191 271.8783875
vertex 87.61339569 -40.13715363 272.2964783
vertex 87.53612518 -40.64963531 272.0094604

endloop
endfacet
facet normal 0.9946659803 -0.09988630563 -0.02573625743
outer loop
vertex 87.54021454 -40.57514191 271.8783875
vertex 87.53612518 -40.64963531 272.0094604
vertex 87.47847748 -41.11699677 271.5953674

endloop
endfacet
facet normal 0.9925448298 -0.1218788624 -0.0006192906876
outer loop
vertex 87.47847748 -41.11699677 271.5953674
vertex 87.53612518 -40.64963531 272.0094604
vertex 87.47002411 -41.18651581 271.7286682

endloop
endfacet
facet normal 0.9957339764 -0.0909204334 0.01572838612
outer loop
vertex 87.47847748 -41.11699677 271.5953674
vertex 87.47002411 -41.18651581 271.7286682
vertex 87.4318161 -41.67324066 271.3339539

endloop
endfacet
facet normal 0.9926029444 -0.1132974774 0.04362476617
outer loop
vertex 87.4318161 -41.67324066 271.3339539
vertex 87.47002411 -41.18651581 271.7286682
vertex 87.41863251 -41.73638153 271.4699402

endloop
endfacet
facet normal 0.9948658943 -0.08299111575 0.05791594461
outer loop
vertex 87.4318161 -41.67324066 271.3339539
vertex 87.41863251 -41.73638153 271.4699402
vertex 87.39965057 -42.216362 271.1082153

endloop
endfacet
facet normal 0.9912879467 -0.1020020097 0.08332966268
outer loop
vertex 87.39965057 -42.216362 271.1082153
vertex 87.41863251 -41.73638153 271.4699402
vertex 87.38219452 -42.27301788 271.246521

endloop
endfacet
facet normal 0.9923611879 -0.08304311335 0.09123148024
outer loop
vertex 87.39962006 -42.21637726 271.1081848
vertex 87.382164 -42.27303314 271.2464905
vertex 87.37425995 -42.72618866 270.9199829

endloop
endfacet
facet normal 0.9888296127 -0.09810080379 0.1122153327
outer loop
vertex 87.37425995 -42.72618866 270.9199829
vertex 87.382164 -42.27303314 271.2464905
vertex 87.3531723 -42.77677155 271.0615845

endloop
endfacet
facet normal 0.9862273932 -0.1319365948 0.09974098951
outer loop
vertex 87.37425995 -42.72618866 270.9199829
vertex 87.3531723 -42.77677155 271.0615845
vertex 87.31175995 -43.36873627 270.6880188

endloop
endfacet
facet normal 0.9913231134 -0.1123796105 0.06818546355
outer loop
vertex 87.31175995 -43.36873627 270.6880188
vertex 87.3531723 -42.77677155 271.0615845
vertex 87.29549408 -43.41912079 270.8414612

endloop
endfacet
facet normal 0.7634271383 -0.6332769394 -0.1270406842
outer loop
vertex 87.31179047 -43.36872101 270.6880493
vertex 87.2955246 -43.41910553 270.8414612
vertex 86.91799164 -43.82622528 270.6021729

endloop
endfacet
facet normal 0.5358844399 0 -0.844291389
outer loop
vertex 86.91799164 -43.82622528 270.6021729
vertex 87.2955246 -43.41910553 270.8414612
vertex 86.91799164 -43.82624054 270.6021729

endloop
endfacet
facet normal -0.9154880643 -0 -0.4023451805
outer loop
vertex 87.67589569 -37.85424042 273.6242981
vertex 87.67589569 -37.85422516 273.6242981
vertex 87.87880707 -38.66046906 273.1625977

endloop
endfacet
facet normal 0.9181007743 0.004104610533 0.3963258564
outer loop
vertex 87.87880707 -38.66046906 273.1625977
vertex 87.67589569 -37.85422516 273.6242981
vertex 87.81737518 -38.73656464 273.3056946

endloop
endfacet
facet normal 0.9229308367 -0.3061205149 0.2334289253
outer loop
vertex 87.87880707 -38.66046906 273.1625977
vertex 87.81737518 -38.73656464 273.3056946
vertex 87.70769501 -39.60237885 272.6039124

endloop
endfacet
facet normal 0.9102926254 -0.3240812719 0.2575629354
outer loop
vertex 87.70769501 -39.60237885 272.6039124
vertex 87.81737518 -38.73656464 273.3056946
vertex 87.64537811 -39.67191315 272.7366638

endloop
endfacet
facet normal 0.9122676253 -0.3128487766 0.2643734813
outer loop
vertex 87.70769501 -39.60237885 272.6039124
vertex 87.64537811 -39.67191315 272.7366638
vertex 87.61339569 -40.13715363 272.2964783

endloop
endfacet
facet normal 0.8969295025 -0.3348665833 0.2887589335
outer loop
vertex 87.61339569 -40.13715363 272.2964783
vertex 87.64537811 -39.67191315 272.7366638
vertex 87.54659271 -40.20392609 272.4265442

endloop
endfacet
facet normal 0.9014001489 -0.3069452047 0.3053891957
outer loop
vertex 87.61339569 -40.13715363 272.2964783
vertex 87.54659271 -40.20392609 272.4265442
vertex 87.53612518 -40.64963531 272.0094604

endloop
endfacet
facet normal 0.8887271881 -0.3241907656 0.324136436
outer loop
vertex 87.53612518 -40.64963531 272.0094604
vertex 87.54659271 -40.20392609 272.4265442
vertex 87.46553802 -40.71398163 272.1386414

endloop
endfacet
facet normal 0.8932378888 -0.289760381 0.3437513411
outer loop
vertex 87.53612518 -40.64963531 272.0094604
vertex 87.46553802 -40.71398163 272.1386414
vertex 87.47002411 -41.18651581 271.7286682

endloop
endfacet
facet normal 0.8774340153 -0.3095829487 0.3664258718
outer loop
vertex 87.47002411 -41.18651581 271.7286682
vertex 87.46553802 -40.71398163 272.1386414
vertex 87.39513397 -41.24655914 271.8572693

endloop
endfacet
facet normal 0.8818705678 -0.2656933367 0.389501363
outer loop
vertex 87.47002411 -41.18651581 271.7286682
vertex 87.39513397 -41.24655914 271.8572693
vertex 87.41863251 -41.73638153 271.4699402

endloop
endfacet
facet normal 0.8644635081 -0.2856335044 0.4136619568
outer loop
vertex 87.41863251 -41.73638153 271.4699402
vertex 87.39513397 -41.24655914 271.8572693
vertex 87.33922577 -41.79094696 271.5982056

endloop
endfacet
facet normal 0.8677859902 -0.2400703728 0.4351018965
outer loop
vertex 87.41863251 -41.73638153 271.4699402
vertex 87.33922577 -41.79094696 271.5982056
vertex 87.38219452 -42.27301788 271.246521

endloop
endfacet
facet normal 0.8516721725 -0.2572039068 0.4566188455
outer loop
vertex 87.38219452 -42.27301788 271.246521
vertex 87.33922577 -41.79094696 271.5982056
vertex 87.29885101 -42.32198334 271.3743896

endloop
endfacet
facet normal 0.8535555005 -0.2221171856 0.4712823033
outer loop
vertex 87.382164 -42.27303314 271.2464905
vertex 87.2988205 -42.3219986 271.3743591
vertex 87.3531723 -42.77677155 271.0615845

endloop
endfacet
facet normal 0.8362858295 -0.2393267006 0.493303895
outer loop
vertex 87.3531723 -42.77677155 271.0615845
vertex 87.2988205 -42.3219986 271.3743591
vertex 87.26491547 -42.82047272 271.1900024

endloop
endfacet
facet normal 0.8360196948 -0.2435597926 0.4916804731
outer loop
vertex 87.3531723 -42.77677155 271.0615845
vertex 87.26491547 -42.82047272 271.1900024
vertex 87.29549408 -43.41912079 270.8414612

endloop
endfacet
facet normal 0.8299230337 -0.2484297901 0.4995101988
outer loop
vertex 87.29549408 -43.41912079 270.8414612
vertex 87.26491547 -42.82047272 271.1900024
vertex 87.19991302 -43.46242523 270.9787292

endloop
endfacet
facet normal 0.6472082138 -0.7297337055 0.2204776406
outer loop
vertex 87.2955246 -43.41910553 270.8414612
vertex 87.19994354 -43.46239471 270.9787598
vertex 86.91799164 -43.82624054 270.6021729

endloop
endfacet
facet normal -nan(ind) -nan(ind) -nan(ind)
outer loop
vertex 86.91799164 -43.82624054 270.6021729
vertex 87.19994354 -43.46239471 270.9787598
vertex 86.91799164 -43.82624054 270.6021729

endloop
endfacet
facet normal 0.663446486 0.3459444642 -0.663446486
outer loop
vertex 87.67589569 -37.85422516 273.6242981
vertex 87.67592621 -37.85422516 273.6243286
vertex 87.81737518 -38.73656464 273.3056946

endloop
endfacet
facet normal 0.6715344191 -0.1540796757 0.7247764468
outer loop
vertex 87.81737518 -38.73656464 273.3056946
vertex 87.67592621 -37.85422516 273.6243286
vertex 87.68627167 -38.77854156 273.4182434

endloop
endfacet
facet normal 0.6554555297 -0.476829499 0.5856719017
outer loop
vertex 87.81737518 -38.73656464 273.3056946
vertex 87.68627167 -38.77854156 273.4182434
vertex 87.64537811 -39.67191315 272.7366638

endloop
endfacet
facet normal 0.6639713049 -0.4725331068 0.5795295238
outer loop
vertex 87.64537811 -39.67191315 272.7366638
vertex 87.68627167 -38.77854156 273.4182434
vertex 87.52333832 -39.71337128 272.8426819

endloop
endfacet
facet normal 0.6654627323 -0.4642673731 0.5844784379
outer loop
vertex 87.64537811 -39.67191315 272.7366638
vertex 87.52333832 -39.71337128 272.8426819
vertex 87.54659271 -40.20392609 272.4265442

endloop
endfacet
facet normal 0.641951561 -0.4780802727 0.599447608
outer loop
vertex 87.54659271 -40.20392609 272.4265442
vertex 87.52333832 -39.71337128 272.8426819
vertex 87.42214203 -40.24414825 272.5277405

endloop
endfacet
facet normal 0.6463856697 -0.450373888 0.6159130335
outer loop
vertex 87.54659271 -40.20392609 272.4265442
vertex 87.42214203 -40.24414825 272.5277405
vertex 87.46553802 -40.71398163 272.1386414

endloop
endfacet
facet normal 0.6248511076 -0.4629413188 0.6286863685
outer loop
vertex 87.46553802 -40.71398163 272.1386414
vertex 87.42214203 -40.24414825 272.5277405
vertex 87.33821869 -40.75275421 272.2366333

endloop
endfacet
facet normal 0.6296666265 -0.4263432026 0.6494238973
outer loop
vertex 87.46553802 -40.71398163 272.1386414
vertex 87.33821869 -40.75275421 272.2366333
vertex 87.39513397 -41.24655914 271.8572693

endloop
endfacet
facet normal 0.6033727527 -0.4409326315 0.6644695997
outer loop
vertex 87.39513397 -41.24655914 271.8572693
vertex 87.33821869 -40.75275421 272.2366333
vertex 87.26470184 -41.28275299 271.9516907

endloop
endfacet
facet normal 0.6084245443 -0.3911036551 0.6905486584
outer loop
vertex 87.39513397 -41.24655914 271.8572693
vertex 87.26470184 -41.28275299 271.9516907
vertex 87.33922577 -41.79094696 271.5982056

endloop
endfacet
facet normal 0.5797543526 -0.4062552452 0.7062872052
outer loop
vertex 87.33922577 -41.79094696 271.5982056
vertex 87.26470184 -41.28275299 271.9516907
vertex 87.20546722 -41.82382965 271.6890869

endloop
endfacet
facet normal 0.583656311 -0.3526494801 0.7314257622
outer loop
vertex 87.33922577 -41.79094696 271.5982056
vertex 87.20546722 -41.82382965 271.6890869
vertex 87.29885101 -42.32198334 271.3743896

endloop
endfacet
facet normal 0.5575028658 -0.3661650717 0.7450596094
outer loop
vertex 87.29885101 -42.32198334 271.3743896
vertex 87.20546722 -41.82382965 271.6890869
vertex 87.16225433 -42.35149384 271.4620972

endloop
endfacet
facet normal 0.5598285794 -0.3206558824 0.7640495896
outer loop
vertex 87.2988205 -42.3219986 271.3743591
vertex 87.16222382 -42.35149384 271.4620667
vertex 87.26491547 -42.82047272 271.1900024

endloop
endfacet
facet normal 0.5284778476 -0.3364449441 0.7794331312
outer loop
vertex 87.26491547 -42.82047272 271.1900024
vertex 87.16222382 -42.35149384 271.4620667
vertex 87.12386322 -42.84654999 271.2743835

endloop
endfacet
facet normal 0.5295253992 -0.3130895793 0.7884019613
outer loop
vertex 87.26491547 -42.82047272 271.1900024
vertex 87.12386322 -42.84654999 271.2743835
vertex 87.19991302 -43.46242523 270.9787292

endloop
endfacet
facet normal 0.4827089906 -0.3298566937 0.8112870455
outer loop
vertex 87.19991302 -43.46242523 270.9787292
vertex 87.12386322 -42.84654999 271.2743835
vertex 87.04485321 -43.48630524 271.0612793

endloop
endfacet
facet normal 0.3780388236 -0.7909414768 0.4811425805
outer loop
vertex 87.19994354 -43.46239471 270.9787598
vertex 87.04485321 -43.48630524 271.0613098
vertex 86.91799164 -43.82624054 270.6021729

endloop
endfacet
facet normal -0.9638111591 0 0.2665860653
outer loop
vertex 86.91799164 -43.82624054 270.6021729
vertex 87.04485321 -43.48630524 271.0613098
vertex 86.91799164 -43.82622528 270.6021729

endloop
endfacet
facet normal -0.6522807479 -0.1718958467 0.7382286191
outer loop
vertex 87.67592621 -37.85422516 273.6243286
vertex 87.67589569 -37.85424042 273.6242981
vertex 87.68627167 -38.77854156 273.4182434

endloop
endfacet
facet normal 0.2744157314 -0.2063002288 0.9392209649
outer loop
vertex 87.68627167 -38.77854156 273.4182434
vertex 87.67589569 -37.85424042 273.6242981
vertex 87.5212326 -38.77368927 273.4675293

endloop
endfacet
facet normal 0.2264370024 -0.5389796495 0.8113120794
outer loop
vertex 87.68627167 -38.77854156 273.4182434
vertex 87.5212326 -38.77368927 273.4675293
vertex 87.52333832 -39.71337128 272.8426819

endloop
endfacet
facet normal 0.2728856206 -0.5322743058 0.8013846874
outer loop
vertex 87.52333832 -39.71337128 272.8426819
vertex 87.5212326 -38.77368927 273.4675293
vertex 87.36534882 -39.71511078 272.8953247

endloop
endfacet
facet normal 0.2735261917 -0.5288663507 0.8034201264
outer loop
vertex 87.52333832 -39.71337128 272.8426819
vertex 87.36534882 -39.71511078 272.8953247
vertex 87.42214203 -40.24414825 272.5277405

endloop
endfacet
facet normal 0.2483913898 -0.5345947146 0.8077809811
outer loop
vertex 87.42214203 -40.24414825 272.5277405
vertex 87.36534882 -39.71511078 272.8953247
vertex 87.26338959 -40.24662018 272.5749207

endloop
endfacet
facet normal 0.2520682812 -0.5117046833 0.8213525414
outer loop
vertex 87.42214203 -40.24414825 272.5277405
vertex 87.26338959 -40.24662018 272.5749207
vertex 87.33821869 -40.75275421 272.2366333

endloop
endfacet
facet normal 0.2248300463 -0.5182628036 0.8251394629
outer loop
vertex 87.33821869 -40.75275421 272.2366333
vertex 87.26338959 -40.24662018 272.5749207
vertex 87.17809296 -40.75511932 272.2787781

endloop
endfacet
facet normal 0.2292315066 -0.4853981733 0.8437069654
outer loop
vertex 87.33821869 -40.75275421 272.2366333
vertex 87.17809296 -40.75511932 272.2787781
vertex 87.26470184 -41.28275299 271.9516907

endloop
endfacet
facet normal 0.1968179196 -0.4930401146 0.8474515676
outer loop
vertex 87.26470184 -41.28275299 271.9516907
vertex 87.17809296 -40.75511932 272.2787781
vertex 87.10335541 -41.28495026 271.9878845

endloop
endfacet
facet normal 0.2017409801 -0.4454378784 0.8722875714
outer loop
vertex 87.26470184 -41.28275299 271.9516907
vertex 87.10335541 -41.28495026 271.9878845
vertex 87.20546722 -41.82382965 271.6890869

endloop
endfacet
facet normal 0.1666390598 -0.4538048208 0.8753814101
outer loop
vertex 87.20546722 -41.82382965 271.6890869
vertex 87.10335541 -41.28495026 271.9878845
vertex 87.04283905 -41.82579803 271.7190247

endloop
endfacet
facet normal 0.1705347896 -0.4011295736 0.9000071287
outer loop
vertex 87.20546722 -41.82382965 271.6890869
vertex 87.04283905 -41.82579803 271.7190247
vertex 87.16225433 -42.35149384 271.4620972

endloop
endfacet
facet normal 0.1394106448 -0.4090710878 0.9017902017
outer loop
vertex 87.16225433 -42.35149384 271.4620972
vertex 87.04283905 -41.82579803 271.7190247
vertex 86.99874115 -42.35326385 271.4865723

endloop
endfacet
facet normal 0.1419540048 -0.3605028987 0.9218930006
outer loop
vertex 87.16222382 -42.35149384 271.4620667
vertex 86.99874115 -42.35327911 271.4865417
vertex 87.12386322 -42.84654999 271.2743835

endloop
endfacet
facet normal 0.1003792956 -0.3715177178 0.9229834676
outer loop
vertex 87.12386322 -42.84654999 271.2743835
vertex 86.99874115 -42.35327911 271.4865417
vertex 86.95867157 -42.84766388 271.2919006

endloop
endfacet
facet normal 0.101871796 -0.3256887794 0.9399728775
outer loop
vertex 87.12386322 -42.84654999 271.2743835
vertex 86.95867157 -42.84766388 271.2919006
vertex 87.04485321 -43.48630524 271.0612793

endloop
endfacet
facet normal 0.01151406672 -0.3382481635 0.9409865141
outer loop
vertex 87.04485321 -43.48630524 271.0612793
vertex 86.95867157 -42.84766388 271.2919006
vertex 86.87319183 -43.48357391 271.0643616

endloop
endfacet
facet normal -0.002093203133 -0.8034306169 0.5953947306
outer loop
vertex 87.04485321 -43.48630524 271.0613098
vertex 86.87322235 -43.48357391 271.0643921
vertex 86.91799164 -43.82622528 270.6021729

endloop
endfacet
facet normal 0.9953296185 0 0.09653434902
outer loop
vertex 86.91799164 -43.82622528 270.6021729
vertex 86.87322235 -43.48357391 271.0643921
vertex 86.91799164 -43.82624054 270.6021729

endloop
endfacet
facet normal -0.986145556 0.1658823341 0
outer loop
vertex 87.67589569 -37.85424042 273.6242981
vertex 87.67589569 -37.85424042 273.6242676
vertex 87.5212326 -38.77368927 273.4675293

endloop
endfacet
facet normal -0.1602167487 -0.1396252215 0.9771568179
outer loop
vertex 87.5212326 -38.77368927 273.4675293
vertex 87.67589569 -37.85424042 273.6242676
vertex 87.36406708 -38.72789764 273.4483032

endloop
endfacet
facet normal -0.241776228 -0.4744372666 0.8464357257
outer loop
vertex 87.5212326 -38.77368927 273.4675293
vertex 87.36406708 -38.72789764 273.4483032
vertex 87.36534882 -39.71511078 272.8953247

endloop
endfacet
facet normal -0.1844346821 -0.4804955423 0.8573842645
outer loop
vertex 87.36534882 -39.71511078 272.8953247
vertex 87.36406708 -38.72789764 273.4483032
vertex 87.20311737 -39.6758194 272.8824463

endloop
endfacet
facet normal -0.184569478 -0.4811896682 0.8569659591
outer loop
vertex 87.36534882 -39.71511078 272.8953247
vertex 87.20311737 -39.6758194 272.8824463
vertex 87.26338959 -40.24662018 272.5749207

endloop
endfacet
facet normal -0.2090455592 -0.4808416367 0.8515228629
outer loop
vertex 87.26338959 -40.24662018 272.5749207
vertex 87.20311737 -39.6758194 272.8824463
vertex 87.10112762 -40.20920563 272.5562134

endloop
endfacet
facet normal -0.206682086 -0.4662741125 0.8601575494
outer loop
vertex 87.26338959 -40.24662018 272.5749207
vertex 87.10112762 -40.20920563 272.5562134
vertex 87.17809296 -40.75511932 272.2787781

endloop
endfacet
facet normal -0.2336140126 -0.4664930999 0.8531170487
outer loop
vertex 87.17809296 -40.75511932 272.2787781
vertex 87.10112762 -40.20920563 272.5562134
vertex 87.01641083 -40.71907806 272.2542114

endloop
endfacet
facet normal -0.2304168493 -0.4431414306 0.8663334846
outer loop
vertex 87.17809296 -40.75511932 272.2787781
vertex 87.01641083 -40.71907806 272.2542114
vertex 87.10335541 -41.28495026 271.9878845

endloop
endfacet
facet normal -0.2624812722 -0.4436325729 0.8569093943
outer loop
vertex 87.10335541 -41.28495026 271.9878845
vertex 87.01641083 -40.71907806 272.2542114
vertex 86.94264984 -41.25128937 271.9560852

endloop
endfacet
facet normal -0.2585586905 -0.4066514671 0.87623173
outer loop
vertex 87.10335541 -41.28495026 271.9878845
vertex 86.94264984 -41.25128937 271.9560852
vertex 87.04283905 -41.82579803 271.7190247

endloop
endfacet
facet normal -0.2932907939 -0.407920301 0.8646280169
outer loop
vertex 87.04283905 -41.82579803 271.7190247
vertex 86.94264984 -41.25128937 271.9560852
vertex 86.88326263 -41.79521942 271.6793213

endloop
endfacet
facet normal -0.2900957465 -0.3655183613 0.8844437599
outer loop
vertex 87.04283905 -41.82579803 271.7190247
vertex 86.88326263 -41.79521942 271.6793213
vertex 86.99874115 -42.35326385 271.4865723

endloop
endfacet
facet normal -0.3205143213 -0.367829293 0.8729101419
outer loop
vertex 86.99874115 -42.35326385 271.4865723
vertex 86.88326263 -41.79521942 271.6793213
vertex 86.84050751 -42.32582855 271.440033

endloop
endfacet
facet normal -0.318112731 -0.3248707056 0.8906533718
outer loop
vertex 86.99874115 -42.35327911 271.4865417
vertex 86.84050751 -42.32584381 271.440033
vertex 86.95867157 -42.84766388 271.2919006

endloop
endfacet
facet normal -0.3583568931 -0.3291528225 0.8736353517
outer loop
vertex 86.95867157 -42.84766388 271.2919006
vertex 86.84050751 -42.32584381 271.440033
vertex 86.80290985 -42.82299042 271.2373047

endloop
endfacet
facet normal -0.3563923836 -0.271940589 0.8938863873
outer loop
vertex 86.95867157 -42.84766388 271.2919006
vertex 86.80290985 -42.82299042 271.2373047
vertex 86.87319183 -43.48357391 271.0643616

endloop
endfacet
facet normal -0.4488663673 -0.2707104087 0.8516072035
outer loop
vertex 86.87319183 -43.48357391 271.0643616
vertex 86.80290985 -42.82299042 271.2373047
vertex 86.72652435 -43.45754242 270.9953308

endloop
endfacet
facet normal -0.3825170398 -0.759568572 0.526057303
outer loop
vertex 86.87322235 -43.48357391 271.0643921
vertex 86.72652435 -43.45752716 270.9953308
vertex 86.91799164 -43.82624054 270.6021729

endloop
endfacet
facet normal 0.8988434672 0 0.4382698238
outer loop
vertex 86.91799164 -43.82624054 270.6021729
vertex 86.72652435 -43.45752716 270.9953308
vertex 86.91799164 -43.8262558 270.6021729

endloop
endfacet
facet normal 0.8452769518 -0.3778271973 0.3778271973
outer loop
vertex 87.67589569 -37.85425568 273.6242676
vertex 87.67589569 -37.85422516 273.6242981
vertex 87.36403656 -38.7279129 273.4483032

endloop
endfacet
facet normal -0.5564205647 0.0313552767 0.8303089738
outer loop
vertex 87.36403656 -38.7279129 273.4483032
vertex 87.67589569 -37.85422516 273.6242981
vertex 87.23152924 -38.64203644 273.3562622

endloop
endfacet
facet normal -0.6667178273 -0.2953160703 0.6843068004
outer loop
vertex 87.36403656 -38.7279129 273.4483032
vertex 87.23152924 -38.64203644 273.3562622
vertex 87.20311737 -39.6758194 272.8824463

endloop
endfacet
facet normal -0.6215808988 -0.3122040331 0.7184467912
outer loop
vertex 87.20311737 -39.6758194 272.8824463
vertex 87.23152924 -38.64203644 273.3562622
vertex 87.05458832 -39.59085846 272.790863

endloop
endfacet
facet normal -0.6227428317 -0.3181332052 0.7148305178
outer loop
vertex 87.20311737 -39.6758194 272.8824463
vertex 87.05458832 -39.59085846 272.790863
vertex 87.10112762 -40.20920563 272.5562134

endloop
endfacet
facet normal -0.6423223019 -0.3137099445 0.6992911696
outer loop
vertex 87.10112762 -40.20920563 272.5562134
vertex 87.05458832 -39.59085846 272.790863
vertex 86.95388031 -40.12676239 272.4579468

endloop
endfacet
facet normal -0.6415839195 -0.3091897666 0.7019770145
outer loop
vertex 87.10112762 -40.20920563 272.5562134
vertex 86.95388031 -40.12676239 272.4579468
vertex 87.01638031 -40.71907806 272.2541809

endloop
endfacet
facet normal -0.6628946066 -0.305152595 0.6837050915
outer loop
vertex 87.01638031 -40.71907806 272.2541809
vertex 86.95388031 -40.12676239 272.4579468
vertex 86.87200165 -40.63962555 272.1496582

endloop
endfacet
facet normal -0.6614474058 -0.2946565449 0.6896846294
outer loop
vertex 87.01638031 -40.71907806 272.2541809
vertex 86.87200165 -40.63962555 272.1496582
vertex 86.94261932 -41.25130463 271.9560547

endloop
endfacet
facet normal -0.6860705018 -0.2903470397 0.6670876741
outer loop
vertex 86.94261932 -41.25130463 271.9560547
vertex 86.87200165 -40.63962555 272.1496582
vertex 86.80190277 -41.17717743 271.8435974

endloop
endfacet
facet normal -0.6839177012 -0.2701815367 0.6776861548
outer loop
vertex 86.94261932 -41.25130463 271.9560547
vertex 86.80190277 -41.17717743 271.8435974
vertex 86.88326263 -41.79524994 271.6792908

endloop
endfacet
facet normal -0.7097581029 -0.2667512596 0.6519870758
outer loop
vertex 86.88326263 -41.79524994 271.6792908
vertex 86.80190277 -41.17717743 271.8435974
vertex 86.74654388 -41.72789764 271.5580139

endloop
endfacet
facet normal -0.7078787684 -0.2421593517 0.6635257602
outer loop
vertex 86.88326263 -41.79524994 271.6792908
vertex 86.74654388 -41.72789764 271.5580139
vertex 86.84050751 -42.32584381 271.440033

endloop
endfacet
facet normal -0.7301670313 -0.240900144 0.6393929124
outer loop
vertex 86.84050751 -42.32584381 271.440033
vertex 86.74654388 -41.72789764 271.5580139
vertex 86.70766449 -42.26541901 271.3110962

endloop
endfacet
facet normal -0.7284334898 -0.2107090056 0.6519097686
outer loop
vertex 86.84050751 -42.32585907 271.4400024
vertex 86.70766449 -42.26543427 271.3110962
vertex 86.80290985 -42.82300568 271.2373047

endloop
endfacet
facet normal -0.7570050359 -0.2111485153 0.6183524728
outer loop
vertex 86.80290985 -42.82300568 271.2373047
vertex 86.70766449 -42.26543427 271.3110962
vertex 86.6765976 -42.76955414 271.1009216

endloop
endfacet
facet normal -0.7541920543 -0.1527127028 0.6386495233
outer loop
vertex 86.80290985 -42.82300568 271.2373047
vertex 86.6765976 -42.76955414 271.1009216
vertex 86.72649384 -43.45755768 270.9953308

endloop
endfacet
facet normal -0.8178949952 -0.1447791755 0.556854248
outer loop
vertex 86.72649384 -43.45755768 270.9953308
vertex 86.6765976 -42.76955414 271.1009216
vertex 86.62194061 -43.40860748 270.8544922

endloop
endfacet
facet normal -0.6928451061 -0.6627492905 0.2841284573
outer loop
vertex 86.72652435 -43.45754242 270.9953308
vertex 86.62197113 -43.40860748 270.8545227
vertex 86.91799164 -43.8262558 270.6021729

endloop
endfacet
facet normal -0.6484126449 0 -0.7612891197
outer loop
vertex 86.91799164 -43.8262558 270.6021729
vertex 86.62197113 -43.40860748 270.8545227
vertex 86.91799164 -43.82624054 270.6021729

endloop
endfacet
facet normal 0.5165007114 0 -0.8562868237
outer loop
vertex 87.67589569 -37.85422516 273.6242981
vertex 87.67589569 -37.85424042 273.6242981
vertex 87.23152924 -38.64203644 273.3562622

endloop
endfacet
facet normal -0.8362806439 0.320304513 0.4450165331
outer loop
vertex 87.23152924 -38.64203644 273.3562622
vertex 87.67589569 -37.85424042 273.6242981
vertex 87.16851044 -38.48352814 273.1237488

endloop
endfacet
facet normal -0.9620347023 0.01708760299 0.2723920047
outer loop
vertex 87.23152924 -38.64203644 273.3562622
vertex 87.16851044 -38.48352814 273.1237488
vertex 87.05458832 -39.59085846 272.790863

endloop
endfacet
facet normal -0.9536858201 0.007717114408 0.3007053733
outer loop
vertex 87.05458832 -39.59085846 272.790863
vertex 87.16851044 -38.48352814 273.1237488
vertex 86.97887421 -39.42613983 272.5465088

endloop
endfacet
facet normal -0.955776751 -0.003076469991 0.2940772772
outer loop
vertex 87.05458832 -39.59085846 272.790863
vertex 86.97887421 -39.42613983 272.5465088
vertex 86.95388031 -40.12677765 272.4579468

endloop
endfacet
facet normal -0.9642594457 0.000906872272 0.2649579644
outer loop
vertex 86.95388031 -40.12677765 272.4579468
vertex 86.97887421 -39.42613983 272.5465088
vertex 86.88509369 -39.96596527 272.2070618

endloop
endfacet
facet normal -0.9649938345 -0.003636386944 0.2622472048
outer loop
vertex 86.95388031 -40.12677765 272.4579468
vertex 86.88509369 -39.96596527 272.2070618
vertex 86.87203217 -40.63961029 272.1496582

endloop
endfacet
facet normal -0.9724485874 -0.001009396976 0.2331150323
outer loop
vertex 86.87203217 -40.63961029 272.1496582
vertex 86.88509369 -39.96596527 272.2070618
vertex 86.81047821 -40.48459625 271.8935547

endloop
endfacet
facet normal -0.9729372263 -0.004660336766 0.2310226858
outer loop
vertex 86.87203217 -40.63961029 272.1496582
vertex 86.81047821 -40.48459625 271.8935547
vertex 86.80193329 -41.17716217 271.8435974

endloop
endfacet
facet normal -0.9806438684 -0.002023764653 0.1957896352
outer loop
vertex 86.80193329 -41.17716217 271.8435974
vertex 86.81047821 -40.48459625 271.8935547
vertex 86.74904633 -41.03246307 271.5802002

endloop
endfacet
facet normal -0.9807140827 -0.002705738647 0.1954290569
outer loop
vertex 86.80193329 -41.17716217 271.8435974
vertex 86.74904633 -41.03246307 271.5802002
vertex 86.74654388 -41.72789764 271.5580139

endloop
endfacet
facet normal -0.9875178933 -0.00147120317 0.1574996561
outer loop
vertex 86.74654388 -41.72789764 271.5580139
vertex 86.74904633 -41.03246307 271.5802002
vertex 86.7029953 -41.59641266 271.2861938

endloop
endfacet
facet normal -0.9874840975 -0.001014148351 0.1577153206
outer loop
vertex 86.74654388 -41.72789764 271.5580139
vertex 86.7029953 -41.59641266 271.2861938
vertex 86.70766449 -42.26540375 271.3111267

endloop
endfacet
facet normal -0.9923997521 -0.002341023646 0.1230335385
outer loop
vertex 86.70766449 -42.26540375 271.3111267
vertex 86.7029953 -41.59641266 271.2861938
vertex 86.6727829 -42.14745331 271.0320129

endloop
endfacet
facet normal -0.9918241501 0.008031731471 0.1273593903
outer loop
vertex 86.70766449 -42.26541901 271.3110962
vertex 86.6727829 -42.14745331 271.0320129
vertex 86.6765976 -42.76955414 271.1009521

endloop
endfacet
facet normal -0.9964181781 0.003253996838 0.08449978381
outer loop
vertex 86.6765976 -42.76955414 271.1009521
vertex 86.6727829 -42.14745331 271.0320129
vertex 86.65285492 -42.66585541 270.8169861

endloop
endfacet
facet normal -0.9938987494 0.04641961306 0.1000523418
outer loop
vertex 86.6765976 -42.76955414 271.1009521
vertex 86.65285492 -42.66585541 270.8169861
vertex 86.62194061 -43.40860748 270.8544922

endloop
endfacet
facet normal -0.9988527298 0.04267122224 0.02173779532
outer loop
vertex 86.62194061 -43.40860748 270.8544922
vertex 86.65285492 -42.66585541 270.8169861
vertex 86.61986542 -43.31821442 270.5816956

endloop
endfacet
facet normal -0.8484492898 -0.5042983294 -0.1606767178
outer loop
vertex 86.62197113 -43.40860748 270.8545227
vertex 86.61989594 -43.31819916 270.5817261
vertex 86.91799164 -43.82624054 270.6021729

endloop
endfacet
facet normal -nan(ind) -nan(ind) -nan(ind)
outer loop
vertex 86.91799164 -43.82624054 270.6021729
vertex 86.61989594 -43.31819916 270.5817261
vertex 86.91799164 -43.82624054 270.6021729

endloop
endfacet
endsolid
