solid 
facet normal -0.725101 0.688642 0
outer loop
vertex 81.37160492 61.54866791 291.8564758
vertex 81.37160492 61.54866791 291.8564453
vertex 81.27101898 61.44275665 291.6452637

endloop
endfacet
facet normal 0.7933322191 -0.6041683555 -0.07486372441
outer loop
vertex 81.27101898 61.44275665 291.6452637
vertex 81.37160492 61.54866791 291.8564453
vertex 81.23073578 61.36452484 291.8497314

endloop
endfacet
facet normal 0.3804329634 -0.8862816095 -0.2641509473
outer loop
vertex 81.27101898 61.44275665 291.6452637
vertex 81.23073578 61.36452484 291.8497314
vertex 81.20034027 61.42853546 291.5911865

endloop
endfacet
facet normal 0.4344215393 -0.8610727191 -0.264256835
outer loop
vertex 81.20034027 61.42853546 291.5911865
vertex 81.23073578 61.36452484 291.8497314
vertex 81.1654892 61.32718658 291.8641357

endloop
endfacet
facet normal 0.2253392041 -0.9223891497 -0.3137205541
outer loop
vertex 81.20034027 61.42853546 291.5911865
vertex 81.1654892 61.32718658 291.8641357
vertex 81.08022308 61.41713715 291.5384216

endloop
endfacet
facet normal 0.2756357491 -0.905634284 -0.3222601712
outer loop
vertex 81.08022308 61.41713715 291.5384216
vertex 81.1654892 61.32718658 291.8641357
vertex 81.05065155 61.29157257 291.8659973

endloop
endfacet
facet normal -0.06139229238 -0.9301258326 -0.362073034
outer loop
vertex 81.08022308 61.41713715 291.5384216
vertex 81.05065155 61.29157257 291.8659973
vertex 80.91817474 61.43523407 291.5194092

endloop
endfacet
facet normal -0.05563127995 -0.9296978712 -0.3640976846
outer loop
vertex 80.91817474 61.43523407 291.5194092
vertex 81.05065155 61.29157257 291.8659973
vertex 80.89196014 61.30086517 291.8665161

endloop
endfacet
facet normal -0.1613564491 -0.9161798358 -0.3668494225
outer loop
vertex 80.91817474 61.43523407 291.5194092
vertex 80.89196014 61.30086517 291.8665161
vertex 80.74434662 61.46666718 291.5173645

endloop
endfacet
facet normal -0.1612849385 -0.9161803126 -0.3668798506
outer loop
vertex 80.74434662 61.46666718 291.5173645
vertex 80.89196014 61.30086517 291.8665161
vertex 80.71822357 61.3314743 291.8664551

endloop
endfacet
facet normal -0.1835385412 -0.9119690061 -0.3669142127
outer loop
vertex 80.74434662 61.46666718 291.5173645
vertex 80.71822357 61.3314743 291.8664551
vertex 80.57195282 61.50141144 291.5172424

endloop
endfacet
facet normal -0.1833169162 -0.9119751453 -0.3670100272
outer loop
vertex 80.57195282 61.50141144 291.5172424
vertex 80.71822357 61.3314743 291.8664551
vertex 80.54341888 61.36666107 291.866333

endloop
endfacet
facet normal -0.2044494748 -0.9074751735 -0.3670003414
outer loop
vertex 80.57195282 61.50141144 291.5172424
vertex 80.54341888 61.36666107 291.866333
vertex 80.4016037 61.53980255 291.5172119

endloop
endfacet
facet normal -0.2049899101 -0.9074475169 -0.3667670786
outer loop
vertex 80.4016037 61.53980255 291.5172119
vertex 80.54341888 61.36666107 291.866333
vertex 80.36995697 61.40584564 291.866333

endloop
endfacet
facet normal -0.2264954597 -0.9023082256 -0.3667964041
outer loop
vertex 80.40163422 61.53980255 291.5172119
vertex 80.36995697 61.40584564 291.8663025
vertex 80.22924042 61.58307648 291.5172119

endloop
endfacet
facet normal -0.2263507098 -0.9023186564 -0.3668600917
outer loop
vertex 80.22924042 61.58307648 291.5172119
vertex 80.36995697 61.40584564 291.8663025
vertex 80.19472504 61.44979095 291.866333

endloop
endfacet
facet normal -0.2390474081 -0.8990373015 -0.3668625951
outer loop
vertex 80.22924042 61.58307648 291.5172119
vertex 80.19472504 61.44979095 291.866333
vertex 80.05348969 61.62984467 291.5171204

endloop
endfacet
facet normal -0.2391242385 -0.8990309834 -0.3668282628
outer loop
vertex 80.05348969 61.62984467 291.5171204
vertex 80.19472504 61.44979095 291.866333
vertex 80.01772308 61.49689484 291.866272

endloop
endfacet
facet normal -0.2380379289 -0.8993189335 -0.3668289185
outer loop
vertex 80.05355072 61.62985992 291.5171509
vertex 80.01772308 61.49692535 291.8663025
vertex 79.87706757 61.6765976 291.5170898

endloop
endfacet
facet normal -0.2379575223 -0.8993256688 -0.3668647707
outer loop
vertex 79.87706757 61.6765976 291.5170898
vertex 80.01772308 61.49692535 291.8663025
vertex 79.84203339 61.5434494 291.8662109

endloop
endfacet
facet normal -0.230200246 -0.9013456702 -0.366856724
outer loop
vertex 79.87706757 61.6765976 291.5170898
vertex 79.84203339 61.5434494 291.8662109
vertex 79.70122528 61.72151947 291.5170593

endloop
endfacet
facet normal -0.230271399 -0.9013402462 -0.3668252528
outer loop
vertex 79.70122528 61.72151947 291.5170593
vertex 79.84203339 61.5434494 291.8662109
vertex 79.66738129 61.58808136 291.8661804

endloop
endfacet
facet normal -0.2299230099 -0.9014291763 -0.3668254912
outer loop
vertex 79.70122528 61.72151947 291.5170593
vertex 79.66738129 61.58808136 291.8661804
vertex 79.52687836 61.7660141 291.5169983

endloop
endfacet
facet normal -0.2297485471 -0.9014422894 -0.3669023514
outer loop
vertex 79.52687836 61.7660141 291.5169983
vertex 79.66738129 61.58808136 291.8661804
vertex 79.49224091 61.63274384 291.8661194

endloop
endfacet
facet normal -0.2443753034 -0.8975946903 -0.3668847978
outer loop
vertex 79.52687836 61.7660141 291.5169983
vertex 79.49224091 61.63274384 291.8661194
vertex 79.35634613 61.81249237 291.5168762

endloop
endfacet
facet normal -0.2441508025 -0.8976156712 -0.3669829369
outer loop
vertex 79.35634613 61.81249237 291.5168762
vertex 79.49224091 61.63274384 291.8661194
vertex 79.31890106 61.67995453 291.8659668

endloop
endfacet
facet normal -0.2659463882 -0.8913949132 -0.366997987
outer loop
vertex 79.35637665 61.81252289 291.5169067
vertex 79.31893158 61.67996979 291.8659973
vertex 79.18941498 61.86237335 291.5168152

endloop
endfacet
facet normal -0.2662842572 -0.8913544416 -0.3668515086
outer loop
vertex 79.18941498 61.86237335 291.5168152
vertex 79.31893158 61.67996979 291.8659973
vertex 79.14867401 61.73085785 291.8659363

endloop
endfacet
facet normal -0.287768364 -0.8846584558 -0.36683622
outer loop
vertex 79.18941498 61.86237335 291.5168152
vertex 79.14867401 61.73085785 291.8659363
vertex 79.02159882 61.91699982 291.5167236

endloop
endfacet
facet normal -0.2880297005 -0.8846210837 -0.3667212129
outer loop
vertex 79.02159882 61.91699982 291.5167236
vertex 79.14867401 61.73085785 291.8659363
vertex 78.97808075 61.7864151 291.8659058

endloop
endfacet
facet normal -0.3089336753 -0.8775550127 -0.3666839004
outer loop
vertex 79.02159882 61.91699982 291.5167236
vertex 78.97808075 61.7864151 291.8659058
vertex 78.85344696 61.97545624 291.5184937

endloop
endfacet
facet normal -0.3084878325 -0.877628386 -0.3668837547
outer loop
vertex 78.85344696 61.97545624 291.5184937
vertex 78.97808075 61.7864151 291.8659058
vertex 78.80928802 61.84584808 291.8656616

endloop
endfacet
facet normal -0.4006347954 -0.8405070305 -0.3647461236
outer loop
vertex 78.85344696 61.97545624 291.5184937
vertex 78.80928802 61.84584808 291.8656616
vertex 78.70046234 62.0401535 291.5374451

endloop
endfacet
facet normal -0.4028503001 -0.8399173617 -0.3636624813
outer loop
vertex 78.70046234 62.0401535 291.5374451
vertex 78.80928802 61.84584808 291.8656616
vertex 78.6616745 61.91693878 291.8649902

endloop
endfacet
facet normal -0.6327708364 -0.6970832348 -0.3371587694
outer loop
vertex 78.70046234 62.0401535 291.5374451
vertex 78.6616745 61.91693878 291.8649902
vertex 78.59606171 62.1095047 291.5899963

endloop
endfacet
facet normal -0.6568243504 -0.6822801232 -0.3210537434
outer loop
vertex 78.59606171 62.1095047 291.5899963
vertex 78.6616745 61.91693878 291.8649902
vertex 78.5712204 62.00495148 291.8630066

endloop
endfacet
facet normal -0.718131721 -0.6255067587 -0.3050051928
outer loop
vertex 78.59606171 62.10951996 291.5899963
vertex 78.57118988 62.00495148 291.8630066
vertex 78.53481293 62.15724945 291.636322

endloop
endfacet
facet normal -0.7145836949 -0.6283496618 -0.3074845374
outer loop
vertex 78.53481293 62.15724945 291.636322
vertex 78.57118988 62.00495148 291.8630066
vertex 78.52355194 62.06996918 291.8408508

endloop
endfacet
facet normal -0.9939681888 -0.0698607862 -0.08453836292
outer loop
vertex 78.53481293 62.15724945 291.636322
vertex 78.52355194 62.06996918 291.8408508
vertex 78.50798798 62.29946136 291.834198

endloop
endfacet
facet normal -nan(ind) -nan(ind) -nan(ind)
outer loop
vertex 78.50798798 62.29946136 291.834198
vertex 78.52355194 62.06996918 291.8408508
vertex 78.50798798 62.29946136 291.834198

endloop
endfacet
facet normal 0.7657119036 -0.5752809644 -0.2876404822
outer loop
vertex 81.37160492 61.54866791 291.8564453
vertex 81.37160492 61.54865265 291.8564758
vertex 81.23073578 61.36452484 291.8497314

endloop
endfacet
facet normal 0.7924749255 -0.6080384254 0.04767323658
outer loop
vertex 81.23073578 61.36452484 291.8497314
vertex 81.37160492 61.54865265 291.8564758
vertex 81.24425507 61.39215851 291.9774475

endloop
endfacet
facet normal 0.5138466358 -0.8481108546 0.1291111857
outer loop
vertex 81.23073578 61.36452484 291.8497314
vertex 81.24425507 61.39215851 291.9774475
vertex 81.1654892 61.32718658 291.8641357

endloop
endfacet
facet normal 0.4316248298 -0.8787250519 0.2038195431
outer loop
vertex 81.1654892 61.32718658 291.8641357
vertex 81.24425507 61.39215851 291.9774475
vertex 81.18074799 61.37216949 292.0257568

endloop
endfacet
facet normal 0.2916201055 -0.9282656908 0.2308258265
outer loop
vertex 81.1654892 61.32718658 291.8641357
vertex 81.18074799 61.37216949 292.0257568
vertex 81.05065155 61.29157257 291.8659973

endloop
endfacet
facet normal 0.2689866126 -0.9300854206 0.2501749098
outer loop
vertex 81.05065155 61.29157257 291.8659973
vertex 81.18074799 61.37216949 292.0257568
vertex 81.06371307 61.34745026 292.0596924

endloop
endfacet
facet normal -0.05520306528 -0.958355546 0.2801915705
outer loop
vertex 81.05065155 61.29157257 291.8659973
vertex 81.06371307 61.34745026 292.0596924
vertex 80.89196014 61.30086517 291.8665161

endloop
endfacet
facet normal -0.05764699727 -0.9576255083 0.2821884155
outer loop
vertex 80.89196014 61.30086517 291.8665161
vertex 81.06371307 61.34745026 292.0596924
vertex 80.90340424 61.36067963 292.0718384

endloop
endfacet
facet normal -0.1664444655 -0.9441671371 0.2843317986
outer loop
vertex 80.89196014 61.30086517 291.8665161
vertex 80.90340424 61.36067963 292.0718384
vertex 80.71822357 61.3314743 291.8664551

endloop
endfacet
facet normal -0.1664217114 -0.9441770315 0.2843126953
outer loop
vertex 80.71822357 61.3314743 291.8664551
vertex 80.90340424 61.36067963 292.0718384
vertex 80.72954559 61.39165497 292.072937

endloop
endfacet
facet normal -0.1893811971 -0.9398422837 0.2843082547
outer loop
vertex 80.71822357 61.3314743 291.8664551
vertex 80.72954559 61.39165497 292.072937
vertex 80.54341888 61.36666107 291.866333

endloop
endfacet
facet normal -0.1893580556 -0.9398528934 0.2842886448
outer loop
vertex 80.54341888 61.36666107 291.866333
vertex 80.72954559 61.39165497 292.072937
vertex 80.55574799 61.42664337 292.0728455

endloop
endfacet
facet normal -0.2112565339 -0.9351885319 0.2842412889
outer loop
vertex 80.54341888 61.36666107 291.866333
vertex 80.55574799 61.42664337 292.0728455
vertex 80.36995697 61.40584564 291.866333

endloop
endfacet
facet normal -0.2113389671 -0.9351485968 0.2843114138
outer loop
vertex 80.36995697 61.40584564 291.866333
vertex 80.55574799 61.42664337 292.0728455
vertex 80.38387299 61.46547699 292.0728149

endloop
endfacet
facet normal -0.2331708223 -0.9299659729 0.2842440605
outer loop
vertex 80.36995697 61.40584564 291.8663025
vertex 80.38387299 61.46547699 292.0728149
vertex 80.19472504 61.44979095 291.866333

endloop
endfacet
facet normal -0.2332836241 -0.9299074411 0.2843429446
outer loop
vertex 80.19472504 61.44979095 291.866333
vertex 80.38387299 61.46547699 292.0728149
vertex 80.20995331 61.50911713 292.0728455

endloop
endfacet
facet normal -0.2466467917 -0.9264546037 0.2843364179
outer loop
vertex 80.19472504 61.44979095 291.866333
vertex 80.20995331 61.50911713 292.0728455
vertex 80.01772308 61.49689484 291.866272

endloop
endfacet
facet normal -0.2466503978 -0.9264525771 0.2843396366
outer loop
vertex 80.01772308 61.49689484 291.866272
vertex 80.20995331 61.50911713 292.0728455
vertex 80.03347015 61.55608368 292.0727844

endloop
endfacet
facet normal -0.245551765 -0.9267223477 0.2844115198
outer loop
vertex 80.01772308 61.49692535 291.8663025
vertex 80.03350067 61.5561142 292.0727844
vertex 79.84203339 61.5434494 291.8662109

endloop
endfacet
facet normal -0.245601058 -0.9266957641 0.2844555676
outer loop
vertex 79.84203339 61.5434494 291.8662109
vertex 80.03350067 61.5561142 292.0727844
vertex 79.8575058 61.6027298 292.0726929

endloop
endfacet
facet normal -0.2374097854 -0.9288285375 0.2844540477
outer loop
vertex 79.84203339 61.5434494 291.8662109
vertex 79.8575058 61.6027298 292.0726929
vertex 79.66738129 61.58808136 291.8661804

endloop
endfacet
facet normal -0.2373240888 -0.9288737178 0.2843783498
outer loop
vertex 79.66738129 61.58808136 291.8661804
vertex 79.8575058 61.6027298 292.0726929
vertex 79.68230438 61.64748383 292.0726624

endloop
endfacet
facet normal -0.2369923443 -0.9289581776 0.2843787074
outer loop
vertex 79.66738129 61.58808136 291.8661804
vertex 79.68230438 61.64748383 292.0726624
vertex 79.49224091 61.63274384 291.8661194

endloop
endfacet
facet normal -0.2370638996 -0.9289206862 0.2844418883
outer loop
vertex 79.49224091 61.63274384 291.8661194
vertex 79.68230438 61.64748383 292.0726624
vertex 79.50749969 61.69208527 292.0726318

endloop
endfacet
facet normal -0.2521671057 -0.9249431491 0.2844148874
outer loop
vertex 79.49224091 61.63274384 291.8661194
vertex 79.50749969 61.69208527 292.0726318
vertex 79.31890106 61.67995453 291.8659668

endloop
endfacet
facet normal -0.2519927919 -0.9250379205 0.2842613459
outer loop
vertex 79.31890106 61.67995453 291.8659668
vertex 79.50749969 61.69208527 292.0726318
vertex 79.335289 61.73896027 292.0725098

endloop
endfacet
facet normal -0.2746462822 -0.9185504913 0.2843138874
outer loop
vertex 79.31893158 61.67996979 291.8659973
vertex 79.33535004 61.73899078 292.0725403
vertex 79.14867401 61.73085785 291.8659363

endloop
endfacet
facet normal -0.2745820582 -0.9185871482 0.2842573225
outer loop
vertex 79.14867401 61.73085785 291.8659363
vertex 79.33535004 61.73899078 292.0725403
vertex 79.16667938 61.78939056 292.0724792

endloop
endfacet
facet normal -0.2969372272 -0.9116147757 0.2842302322
outer loop
vertex 79.14867401 61.73085785 291.8659363
vertex 79.16667938 61.78939056 292.0724792
vertex 78.97808075 61.7864151 291.8659058

endloop
endfacet
facet normal -0.2971161008 -0.9115059376 0.2843919694
outer loop
vertex 78.97808075 61.7864151 291.8659058
vertex 79.16667938 61.78939056 292.0724792
vertex 78.99736786 61.84455109 292.0723877

endloop
endfacet
facet normal -0.3187759221 -0.9041718841 0.284350276
outer loop
vertex 78.97808075 61.7864151 291.8659058
vertex 78.99736786 61.84455109 292.0723877
vertex 78.80928802 61.84584808 291.8656616

endloop
endfacet
facet normal -0.3186002374 -0.9042842984 0.2841897309
outer loop
vertex 78.80928802 61.84584808 291.8656616
vertex 78.99736786 61.84455109 292.0723877
vertex 78.82866669 61.90355682 292.0710144

endloop
endfacet
facet normal -0.4173153341 -0.8638536334 0.2821433246
outer loop
vertex 78.80928802 61.84584808 291.8656616
vertex 78.82866669 61.90355682 292.0710144
vertex 78.6616745 61.91693878 291.8649902

endloop
endfacet
facet normal -0.4160577953 -0.8648122549 0.2810617983
outer loop
vertex 78.6616745 61.91693878 291.8649902
vertex 78.82866669 61.90355682 292.0710144
vertex 78.67848969 61.97180939 292.0587158

endloop
endfacet
facet normal -0.6772975326 -0.6903532743 0.2543236017
outer loop
vertex 78.6616745 61.91693878 291.8649902
vertex 78.67848969 61.97180939 292.0587158
vertex 78.5712204 62.00495148 291.8630066

endloop
endfacet
facet normal -0.6666494012 -0.7035165429 0.2462581992
outer loop
vertex 78.5712204 62.00495148 291.8630066
vertex 78.67848969 61.97180939 292.0587158
vertex 78.58193207 62.05135345 292.0245667

endloop
endfacet
facet normal -0.821470201 -0.5312873125 0.2071727812
outer loop
vertex 78.57118988 62.00495148 291.8630066
vertex 78.58193207 62.05135345 292.0245972
vertex 78.52355194 62.06996918 291.8408508

endloop
endfacet
facet normal -0.7551757693 -0.6314644814 0.1759604663
outer loop
vertex 78.52355194 62.06996918 291.8408508
vertex 78.58193207 62.05135345 292.0245972
vertex 78.52767181 62.10063934 291.9685974

endloop
endfacet
facet normal -0.9966494441 -0.06619939208 0.04803584889
outer loop
vertex 78.52355194 62.06996918 291.8408508
vertex 78.52767181 62.10063934 291.9685974
vertex 78.50798798 62.29946136 291.834198

endloop
endfacet
facet normal 0.9965294003 0.058860939 -0.058860939
outer loop
vertex 78.50798798 62.29946136 291.834198
vertex 78.52767181 62.10063934 291.9685974
vertex 78.50798798 62.29943085 291.8341675

endloop
endfacet
facet normal 0.6970644593 -0.6970644593 -0.1679355651
outer loop
vertex 81.37160492 61.54865265 291.8564758
vertex 81.37163544 61.54868317 291.8564758
vertex 81.24425507 61.39215851 291.9774475

endloop
endfacet
facet normal 0.8149283528 -0.5656538606 0.1262039095
outer loop
vertex 81.24425507 61.39215851 291.9774475
vertex 81.37163544 61.54868317 291.8564758
vertex 81.27742767 61.45806122 292.0586243

endloop
endfacet
facet normal 0.5334624052 -0.7500597835 0.3909325004
outer loop
vertex 81.24425507 61.39215851 291.9774475
vertex 81.27742767 61.45806122 292.0586243
vertex 81.18074799 61.37216949 292.0257568

endloop
endfacet
facet normal 0.4552302659 -0.7152958512 0.5302049518
outer loop
vertex 81.18074799 61.37216949 292.0257568
vertex 81.27742767 61.45806122 292.0586243
vertex 81.21215057 61.46413422 292.1228638

endloop
endfacet
facet normal 0.3272016346 -0.736658752 0.5918386579
outer loop
vertex 81.18074799 61.37216949 292.0257568
vertex 81.21215057 61.46413422 292.1228638
vertex 81.06371307 61.34745026 292.0596924

endloop
endfacet
facet normal 0.2924741209 -0.7155289054 0.6344109178
outer loop
vertex 81.06371307 61.34745026 292.0596924
vertex 81.21215057 61.46413422 292.1228638
vertex 81.09041595 61.4615097 292.1760254

endloop
endfacet
facet normal -0.005776873324 -0.7133747339 0.7007588744
outer loop
vertex 81.06371307 61.34745026 292.0596924
vertex 81.09041595 61.4615097 292.1760254
vertex 80.90340424 61.36067963 292.0718384

endloop
endfacet
facet normal -0.00987292733 -0.7096392512 0.704496026
outer loop
vertex 80.90340424 61.36067963 292.0718384
vertex 81.09041595 61.4615097 292.1760254
vertex 80.92693329 61.48271942 292.1950989

endloop
endfacet
facet normal -0.1191745847 -0.6940849423 0.7099601626
outer loop
vertex 80.90340424 61.36067963 292.0718384
vertex 80.92693329 61.48271942 292.1950989
vertex 80.72954559 61.39165497 292.072937

endloop
endfacet
facet normal -0.1191157401 -0.6941458583 0.7099105716
outer loop
vertex 80.72954559 61.39165497 292.072937
vertex 80.92693329 61.48271942 292.1950989
vertex 80.75289154 61.5144577 292.1969299

endloop
endfacet
facet normal -0.1393498331 -0.6903335452 0.7099445462
outer loop
vertex 80.72954559 61.39165497 292.072937
vertex 80.75289154 61.5144577 292.1969299
vertex 80.55574799 61.42664337 292.0728455

endloop
endfacet
facet normal -0.1392492056 -0.6904404163 0.7098603249
outer loop
vertex 80.55574799 61.42664337 292.0728455
vertex 80.75289154 61.5144577 292.1969299
vertex 80.5812912 61.5490036 292.1968689

endloop
endfacet
facet normal -0.1553559303 -0.6870371699 0.7098199725
outer loop
vertex 80.55574799 61.42664337 292.0728455
vertex 80.5812912 61.5490036 292.1968689
vertex 80.38387299 61.46547699 292.0728149

endloop
endfacet
facet normal -0.1554120928 -0.6869751811 0.7098676562
outer loop
vertex 80.38387299 61.46547699 292.0728149
vertex 80.5812912 61.5490036 292.1968689
vertex 80.41252899 61.58715057 292.1968384

endloop
endfacet
facet normal -0.1713069677 -0.6832085848 0.7098449469
outer loop
vertex 80.38387299 61.46547699 292.0728149
vertex 80.41252899 61.58715057 292.1968384
vertex 80.20995331 61.50911713 292.0728455

endloop
endfacet
facet normal -0.1714103967 -0.6830868125 0.7099372745
outer loop
vertex 80.20995331 61.50911713 292.0728455
vertex 80.41252899 61.58715057 292.1968384
vertex 80.24117279 61.63014984 292.1968384

endloop
endfacet
facet normal -0.1813486814 -0.6805195212 0.709933579
outer loop
vertex 80.20995331 61.50911713 292.0728455
vertex 80.24117279 61.63014984 292.1968384
vertex 80.03347015 61.55608368 292.0727844

endloop
endfacet
facet normal -0.1814252734 -0.680424571 0.7100051045
outer loop
vertex 80.03347015 61.55608368 292.0727844
vertex 80.24117279 61.63014984 292.1968384
vertex 80.06581879 61.67684174 292.1967773

endloop
endfacet
facet normal -0.1806477606 -0.6806320548 0.7100043893
outer loop
vertex 80.03350067 61.5561142 292.0727844
vertex 80.0658493 61.67687225 292.1967773
vertex 79.8575058 61.6027298 292.0726929

endloop
endfacet
facet normal -0.1806177348 -0.6806693673 0.7099763155
outer loop
vertex 79.8575058 61.6027298 292.0726929
vertex 80.0658493 61.67687225 292.1967773
vertex 79.88918304 61.7236557 292.1966858

endloop
endfacet
facet normal -0.1744103134 -0.6822909117 0.7099719048
outer loop
vertex 79.8575058 61.6027298 292.0726929
vertex 79.88918304 61.7236557 292.1966858
vertex 79.68230438 61.64748383 292.0726624

endloop
endfacet
facet normal -0.1745781451 -0.6820870042 0.7101265788
outer loop
vertex 79.68230438 61.64748383 292.0726624
vertex 79.88918304 61.7236557 292.1966858
vertex 79.71300507 61.76868439 292.1966248

endloop
endfacet
facet normal -0.1741841286 -0.6821872592 0.710126996
outer loop
vertex 79.68230438 61.64748383 292.0726624
vertex 79.71300507 61.76868439 292.1966248
vertex 79.50749969 61.69208527 292.0726318

endloop
endfacet
facet normal -0.1741472334 -0.6822317839 0.710093379
outer loop
vertex 79.50749969 61.69208527 292.0726318
vertex 79.71300507 61.76868439 292.1966248
vertex 79.53874969 61.81313324 292.1965942

endloop
endfacet
facet normal -0.1854038537 -0.6792927384 0.7100611329
outer loop
vertex 79.50749969 61.69208527 292.0726318
vertex 79.53874969 61.81313324 292.1965942
vertex 79.335289 61.73896027 292.0725098

endloop
endfacet
facet normal -0.1853678972 -0.6793367267 0.71002841
outer loop
vertex 79.335289 61.73896027 292.0725098
vertex 79.53874969 61.81313324 292.1965942
vertex 79.36901093 61.85932159 292.1964722

endloop
endfacet
facet normal -0.2018595934 -0.6746945381 0.7099577188
outer loop
vertex 79.33535004 61.73899078 292.0725403
vertex 79.36904144 61.85935211 292.1965027
vertex 79.16667938 61.78939056 292.0724792

endloop
endfacet
facet normal -0.2019602954 -0.6745671034 0.7100501657
outer loop
vertex 79.16667938 61.78939056 292.0724792
vertex 79.36904144 61.85935211 292.1965027
vertex 79.20354462 61.90883636 292.1964417

endloop
endfacet
facet normal -0.218480885 -0.6694339514 0.7100170851
outer loop
vertex 79.16667938 61.78939056 292.0724792
vertex 79.20354462 61.90883636 292.1964417
vertex 78.99736786 61.84455109 292.0723877

endloop
endfacet
facet normal -0.2184536755 -0.6694706678 0.709990859
outer loop
vertex 78.99736786 61.84455109 292.0723877
vertex 79.20354462 61.90883636 292.1964417
vertex 79.03682709 61.96317291 292.1963806

endloop
endfacet
facet normal -0.237668395 -0.6629869342 0.7099028826
outer loop
vertex 78.99736786 61.84455109 292.0723877
vertex 79.03682709 61.96317291 292.1963806
vertex 78.82866669 61.90355682 292.0710144

endloop
endfacet
facet normal -0.2375578731 -0.6631433368 0.7097937465
outer loop
vertex 78.82866669 61.90355682 292.0710144
vertex 79.03682709 61.96317291 292.1963806
vertex 78.86843109 62.0213089 292.1943359

endloop
endfacet
facet normal -0.3406849205 -0.6226835251 0.7044139504
outer loop
vertex 78.82866669 61.90355682 292.0710144
vertex 78.86843109 62.0213089 292.1943359
vertex 78.67848969 61.97180939 292.0587158

endloop
endfacet
facet normal -0.3386038542 -0.6258131862 0.7026416659
outer loop
vertex 78.67848969 61.97180939 292.0587158
vertex 78.86843109 62.0213089 292.1943359
vertex 78.71321869 62.08370209 292.1751099

endloop
endfacet
facet normal -0.612380445 -0.4706691802 0.6351855397
outer loop
vertex 78.67848969 61.97180939 292.0587158
vertex 78.71321869 62.08370209 292.1751099
vertex 78.58193207 62.05135345 292.0245667

endloop
endfacet
facet normal -0.5954471231 -0.5020949841 0.6271709204
outer loop
vertex 78.58193207 62.05135345 292.0245667
vertex 78.71321869 62.08370209 292.1751099
vertex 78.60424042 62.1462326 292.1217041

endloop
endfacet
facet normal -0.8055359721 -0.3207114637 0.4982528389
outer loop
vertex 78.58193207 62.05135345 292.0245972
vertex 78.60424042 62.1462326 292.1217346
vertex 78.52767181 62.10063934 291.9685974

endloop
endfacet
facet normal -0.7319402099 -0.4597783387 0.5028591156
outer loop
vertex 78.52767181 62.10063934 291.9685974
vertex 78.60424042 62.1462326 292.1217346
vertex 78.53734589 62.17398834 292.0497437

endloop
endfacet
facet normal -0.9916504025 -0.01132319029 0.1284574866
outer loop
vertex 78.52767181 62.10063934 291.9685974
vertex 78.53734589 62.17398834 292.0497437
vertex 78.50798798 62.29943085 291.8341675

endloop
endfacet
facet normal -0.9277831316 0.253444165 0.273833096
outer loop
vertex 78.50798798 62.29943085 291.8341675
vertex 78.53734589 62.17398834 292.0497437
vertex 78.50801849 62.29947662 291.8342285

endloop
endfacet
facet normal -0 0.9125031233 0.4090697467
outer loop
vertex 81.37163544 61.54868317 291.8564758
vertex 81.37160492 61.54868317 291.8564758
vertex 81.27742767 61.45806122 292.0586243

endloop
endfacet
facet normal 0.8469985723 -0.5041527748 0.1685924083
outer loop
vertex 81.27742767 61.45806122 292.0586243
vertex 81.37160492 61.54868317 291.8564758
vertex 81.32186127 61.54560089 292.097168

endloop
endfacet
facet normal 0.5567731261 -0.5548086166 0.6182160378
outer loop
vertex 81.27742767 61.45806122 292.0586243
vertex 81.32186127 61.54560089 292.097168
vertex 81.21215057 61.46413422 292.1228638

endloop
endfacet
facet normal 0.5054399967 -0.4480886757 0.7373920083
outer loop
vertex 81.21215057 61.46413422 292.1228638
vertex 81.32186127 61.54560089 292.097168
vertex 81.25106049 61.57813263 292.1654663

endloop
endfacet
facet normal 0.3685349524 -0.4331742525 0.8225218058
outer loop
vertex 81.21215057 61.46413422 292.1228638
vertex 81.25106049 61.57813263 292.1654663
vertex 81.09041595 61.4615097 292.1760254

endloop
endfacet
facet normal 0.3383667469 -0.3884896934 0.8570785522
outer loop
vertex 81.09041595 61.4615097 292.1760254
vertex 81.25106049 61.57813263 292.1654663
vertex 81.12355804 61.60274506 292.2269592

endloop
endfacet
facet normal 0.06334026158 -0.3516831398 0.9339737296
outer loop
vertex 81.09041595 61.4615097 292.1760254
vertex 81.12355804 61.60274506 292.2269592
vertex 80.92693329 61.48271942 292.1950989

endloop
endfacet
facet normal 0.05957238004 -0.3461267054 0.9362945557
outer loop
vertex 80.92693329 61.48271942 292.1950989
vertex 81.12355804 61.60274506 292.2269592
vertex 80.95610809 61.63385773 292.249115

endloop
endfacet
facet normal -0.04981278256 -0.3275890946 0.9435063004
outer loop
vertex 80.92693329 61.48271942 292.1950989
vertex 80.95610809 61.63385773 292.249115
vertex 80.75289154 61.5144577 292.1969299

endloop
endfacet
facet normal -0.04984105378 -0.3275467455 0.9435194731
outer loop
vertex 80.75289154 61.5144577 292.1969299
vertex 80.95610809 61.63385773 292.249115
vertex 80.78185272 61.66652679 292.2512512

endloop
endfacet
facet normal -0.06567366421 -0.324554652 0.9435842633
outer loop
vertex 80.75289154 61.5144577 292.1969299
vertex 80.78185272 61.66652679 292.2512512
vertex 80.5812912 61.5490036 292.1968689

endloop
endfacet
facet normal -0.06571000069 -0.3245001137 0.9436004758
outer loop
vertex 80.5812912 61.5490036 292.1968689
vertex 80.78185272 61.66652679 292.2512512
vertex 80.61293793 61.70055389 292.2511902

endloop
endfacet
facet normal -0.07316751033 -0.3229382038 0.9435875416
outer loop
vertex 80.5812912 61.5490036 292.1968689
vertex 80.61293793 61.70055389 292.2511902
vertex 80.41252899 61.58715057 292.1968384

endloop
endfacet
facet normal -0.07331302017 -0.32271263 0.9436534047
outer loop
vertex 80.41252899 61.58715057 292.1968384
vertex 80.61293793 61.70055389 292.2511902
vertex 80.44792938 61.73786163 292.2511292

endloop
endfacet
facet normal -0.08054551482 -0.3209815919 0.9436541796
outer loop
vertex 80.41252899 61.58715057 292.1968384
vertex 80.44792938 61.73787689 292.2511292
vertex 80.24117279 61.63014984 292.1968384

endloop
endfacet
facet normal -0.08047001809 -0.3211080432 0.9436175823
outer loop
vertex 80.24117279 61.63014984 292.1968384
vertex 80.44792938 61.73787689 292.2511292
vertex 80.27980804 61.78009796 292.2511597

endloop
endfacet
facet normal -0.08548624814 -0.3198148608 0.9436157346
outer loop
vertex 80.24117279 61.63014984 292.1968384
vertex 80.27980804 61.78009796 292.2511597
vertex 80.06581879 61.67684174 292.1967773

endloop
endfacet
facet normal -0.0854595229 -0.319862932 0.9436018467
outer loop
vertex 80.06581879 61.67684174 292.1967773
vertex 80.27980804 61.78009796 292.2511597
vertex 80.10585785 61.82639313 292.2510986

endloop
endfacet
facet normal -0.08521039039 -0.3199295998 0.9436017275
outer loop
vertex 80.0658493 61.67687225 292.1967773
vertex 80.10588837 61.82642365 292.2510986
vertex 79.88918304 61.7236557 292.1966858

endloop
endfacet
facet normal -0.0853311643 -0.3197087944 0.9436656833
outer loop
vertex 79.88918304 61.7236557 292.1966858
vertex 80.10588837 61.82642365 292.2510986
vertex 79.92839813 61.87343597 292.2509766

endloop
endfacet
facet normal -0.08224653453 -0.3205163777 0.9436656237
outer loop
vertex 79.88918304 61.7236557 292.1966858
vertex 79.92839813 61.87343597 292.2509766
vertex 79.71300507 61.76868439 292.1966248

endloop
endfacet
facet normal -0.08215323836 -0.3206830323 0.9436171055
outer loop
vertex 79.71300507 61.76868439 292.1966248
vertex 79.92839813 61.87343597 292.2509766
vertex 79.75096893 61.91880035 292.250946

endloop
endfacet
facet normal -0.08197613806 -0.320727855 0.9436172843
outer loop
vertex 79.71300507 61.76868439 292.1966248
vertex 79.75096893 61.91880035 292.250946
vertex 79.53874969 61.81313324 292.1965942

endloop
endfacet
facet normal -0.08182753623 -0.3209874928 0.9435418248
outer loop
vertex 79.53874969 61.81313324 292.1965942
vertex 79.75096893 61.91880035 292.250946
vertex 79.57744598 61.96303558 292.250946

endloop
endfacet
facet normal -0.08761614561 -0.319489181 0.9435306787
outer loop
vertex 79.53874969 61.81313324 292.1965942
vertex 79.57744598 61.96303558 292.250946
vertex 79.36901093 61.85932159 292.1964722

endloop
endfacet
facet normal -0.08760416508 -0.3195101023 0.9435245991
outer loop
vertex 79.36901093 61.85932159 292.1964722
vertex 79.57744598 61.96303558 292.250946
vertex 79.41078949 62.00836945 292.250824

endloop
endfacet
facet normal -0.09528850019 -0.3175224364 0.9434509277
outer loop
vertex 79.36904144 61.85935211 292.1965027
vertex 79.41082001 62.00839996 292.250885
vertex 79.20354462 61.90883636 292.1964417

endloop
endfacet
facet normal -0.09535127878 -0.3174090981 0.9434826374
outer loop
vertex 79.20354462 61.90883636 292.1964417
vertex 79.41082001 62.00839996 292.250885
vertex 79.24919891 62.05677032 292.250824

endloop
endfacet
facet normal -0.1030223593 -0.3150374591 0.9434711337
outer loop
vertex 79.20354462 61.90883636 292.1964417
vertex 79.24919891 62.05677032 292.250824
vertex 79.03682709 61.96317291 292.1963806

endloop
endfacet
facet normal -0.1031600088 -0.3147685826 0.9435458183
outer loop
vertex 79.03682709 61.96317291 292.1963806
vertex 79.24919891 62.05677032 292.250824
vertex 79.08568573 62.11008453 292.2507324

endloop
endfacet
facet normal -0.1183656231 -0.309674859 0.9434463978
outer loop
vertex 79.03682709 61.96317291 292.1963806
vertex 79.08568573 62.11008453 292.2507324
vertex 78.86843109 62.0213089 292.1943359

endloop
endfacet
facet normal -0.1183926165 -0.3096183836 0.9434615374
outer loop
vertex 78.86843109 62.0213089 292.1943359
vertex 79.08568573 62.11008453 292.2507324
vertex 78.91771698 62.1671524 292.2483826

endloop
endfacet
facet normal -0.2248303592 -0.2708799839 0.9359889627
outer loop
vertex 78.86843109 62.0213089 292.1943359
vertex 78.91771698 62.1671524 292.2483826
vertex 78.71321869 62.08370209 292.1751099

endloop
endfacet
facet normal -0.222893551 -0.2749823034 0.9352556467
outer loop
vertex 78.71321869 62.08370209 292.1751099
vertex 78.91771698 62.1671524 292.2483826
vertex 78.75627899 62.22234344 292.2261353

endloop
endfacet
facet normal -0.5052188635 -0.1555007845 0.8488659859
outer loop
vertex 78.71321869 62.08370209 292.1751099
vertex 78.75627899 62.22234344 292.2261353
vertex 78.60424042 62.1462326 292.1217041

endloop
endfacet
facet normal -0.4876157939 -0.19393152 0.851246953
outer loop
vertex 78.60424042 62.1462326 292.1217041
vertex 78.75627899 62.22234344 292.2261353
vertex 78.63188934 62.26384735 292.1643372

endloop
endfacet
facet normal -0.7435321212 -0.06605006754 0.6654301882
outer loop
vertex 78.60424042 62.1462326 292.1217346
vertex 78.63191986 62.26384735 292.1643372
vertex 78.53734589 62.17398834 292.0497437

endloop
endfacet
facet normal -0.6776525378 -0.1920487136 0.7098622322
outer loop
vertex 78.53734589 62.17398834 292.0497437
vertex 78.63191986 62.26384735 292.1643372
vertex 78.54994965 62.27164459 292.0881958

endloop
endfacet
facet normal -0.9837560058 0.06040557474 0.1690423638
outer loop
vertex 78.53734589 62.17398834 292.0497437
vertex 78.54994965 62.27164459 292.0881958
vertex 78.50801849 62.29947662 291.8342285

endloop
endfacet
facet normal 0.1290560663 -0.9832034707 -0.1290560663
outer loop
vertex 78.50801849 62.29947662 291.8342285
vertex 78.54994965 62.27164459 292.0881958
vertex 78.50798798 62.29947662 291.834198

endloop
endfacet
facet normal -0.9117214084 0.3674387336 -0.1837193668
outer loop
vertex 81.37160492 61.54868317 291.8564758
vertex 81.37160492 61.54866791 291.8564453
vertex 81.32186127 61.54560089 292.097168

endloop
endfacet
facet normal 0.8841682076 -0.4322579205 0.1771998256
outer loop
vertex 81.32186127 61.54560089 292.097168
vertex 81.37160492 61.54866791 291.8564453
vertex 81.36882782 61.63742828 292.0868225

endloop
endfacet
facet normal 0.6181951761 -0.2315603644 0.7511421442
outer loop
vertex 81.32186127 61.54560089 292.097168
vertex 81.36882782 61.63742828 292.0868225
vertex 81.25106049 61.57813263 292.1654663

endloop
endfacet
facet normal 0.5868211389 -0.09973956645 0.8035501838
outer loop
vertex 81.25106049 61.57813263 292.1654663
vertex 81.36882782 61.63742828 292.0868225
vertex 81.28975677 61.69123077 292.1512451

endloop
endfacet
facet normal 0.4289498925 -0.03325494006 0.902715981
outer loop
vertex 81.25106049 61.57813263 292.1654663
vertex 81.28975677 61.69123077 292.1512451
vertex 81.12355804 61.60274506 292.2269592

endloop
endfacet
facet normal 0.4076079726 0.01564983092 0.9130228758
outer loop
vertex 81.12355804 61.60274506 292.2269592
vertex 81.28975677 61.69123077 292.1512451
vertex 81.15639496 61.74274445 292.2098999

endloop
endfacet
facet normal 0.1463310719 0.08576530218 0.9855108261
outer loop
vertex 81.12355804 61.60274506 292.2269592
vertex 81.15639496 61.74274445 292.2098999
vertex 80.95610809 61.63385773 292.249115

endloop
endfacet
facet normal 0.1432947367 0.09133093804 0.9854568839
outer loop
vertex 80.95610809 61.63385773 292.249115
vertex 81.15639496 61.74274445 292.2098999
vertex 80.98506927 61.78368378 292.2310181

endloop
endfacet
facet normal 0.03344678506 0.1134728566 0.9929779768
outer loop
vertex 80.95610809 61.63385773 292.249115
vertex 80.98506927 61.78368378 292.2310181
vertex 80.78185272 61.66652679 292.2512512

endloop
endfacet
facet normal 0.03334545717 0.1136457697 0.9929615259
outer loop
vertex 80.78185272 61.66652679 292.2512512
vertex 80.98506927 61.78368378 292.2310181
vertex 80.8106308 61.81726837 292.2330322

endloop
endfacet
facet normal 0.02293647826 0.1156407744 0.9930262566
outer loop
vertex 80.78185272 61.66652679 292.2512512
vertex 80.8106308 61.81726837 292.2330322
vertex 80.61293793 61.70055389 292.2511902

endloop
endfacet
facet normal 0.02306904085 0.1154197603 0.9930489063
outer loop
vertex 80.61293793 61.70055389 292.2511902
vertex 80.8106308 61.81726837 292.2330322
vertex 80.64437103 61.85076141 292.2330017

endloop
endfacet
facet normal 0.02560843714 0.1148882806 0.9930482507
outer loop
vertex 80.61293793 61.70055389 292.2511902
vertex 80.64437103 61.85076141 292.2330017
vertex 80.44792938 61.73786163 292.2511292

endloop
endfacet
facet normal 0.02534847707 0.1153333783 0.9930033088
outer loop
vertex 80.44792938 61.73786163 292.2511292
vertex 80.64437103 61.85076141 292.2330017
vertex 80.48308563 61.88726044 292.2328796

endloop
endfacet
facet normal 0.02888792381 0.1143119261 0.9930247664
outer loop
vertex 80.44792938 61.73787689 292.2511292
vertex 80.48308563 61.88726044 292.2329102
vertex 80.27980804 61.78009796 292.2511597

endloop
endfacet
facet normal 0.02889198624 0.1143043563 0.9930255413
outer loop
vertex 80.27980804 61.78009796 292.2511597
vertex 80.48308563 61.88726044 292.2329102
vertex 80.31813812 61.92868805 292.2329407

endloop
endfacet
facet normal 0.02999673039 0.1140193865 0.9930256009
outer loop
vertex 80.27980804 61.78009796 292.2511597
vertex 80.31813812 61.92868805 292.2329407
vertex 80.10585785 61.82639313 292.2510986

endloop
endfacet
facet normal 0.02990417182 0.1142080948 0.9930066466
outer loop
vertex 80.10585785 61.82639313 292.2510986
vertex 80.31813812 61.92868805 292.2329407
vertex 80.14565277 61.97464752 292.2328491

endloop
endfacet
facet normal 0.02954448387 0.1141206324 0.9930275083
outer loop
vertex 80.10588837 61.82642365 292.2510986
vertex 80.14565277 61.97466278 292.2328796
vertex 79.92839813 61.87343597 292.2509766

endloop
endfacet
facet normal 0.02943233214 0.1143570691 0.9930036664
outer loop
vertex 79.92839813 61.87343597 292.2509766
vertex 80.14565277 61.97466278 292.2328796
vertex 79.96730804 62.02188873 292.2327271

endloop
endfacet
facet normal 0.02909046039 0.11444664 0.9930033684
outer loop
vertex 79.92839813 61.87343597 292.2509766
vertex 79.96730804 62.02188873 292.2327271
vertex 79.75096893 61.91880035 292.250946

endloop
endfacet
facet normal 0.02909786068 0.1144313738 0.9930049181
outer loop
vertex 79.75096893 61.91880035 292.250946
vertex 79.96730804 62.02188873 292.2327271
vertex 79.78862762 62.06758881 292.2326965

endloop
endfacet
facet normal 0.02916689403 0.1144139096 0.9930049181
outer loop
vertex 79.75096893 61.91880035 292.250946
vertex 79.78862762 62.06758881 292.2326965
vertex 79.57744598 61.96303558 292.250946

endloop
endfacet
facet normal 0.02916847914 0.114410758 0.9930052161
outer loop
vertex 79.57744598 61.96303558 292.250946
vertex 79.78862762 62.06758881 292.2326965
vertex 79.6158371 62.11164093 292.2326965

endloop
endfacet
facet normal 0.03031412698 0.1141147539 0.9930049181
outer loop
vertex 79.57744598 61.96303558 292.250946
vertex 79.6158371 62.11164093 292.2326965
vertex 79.41078949 62.00836945 292.250824

endloop
endfacet
facet normal 0.0304082334 0.1139310971 0.9930231571
outer loop
vertex 79.41078949 62.00836945 292.250824
vertex 79.6158371 62.11164093 292.2326965
vertex 79.45223236 62.15610504 292.232605

endloop
endfacet
facet normal 0.03357945383 0.1134528369 0.9929757714
outer loop
vertex 79.41082001 62.00839996 292.250885
vertex 79.45223236 62.15613556 292.232605
vertex 79.24919891 62.05677032 292.250824

endloop
endfacet
facet normal 0.03359438106 0.1134228706 0.9929786921
outer loop
vertex 79.24919891 62.05677032 292.250824
vertex 79.45223236 62.15613556 292.232605
vertex 79.294487 62.20339203 292.2325439

endloop
endfacet
facet normal 0.03616697341 0.1126282662 0.9929787517
outer loop
vertex 79.24919891 62.05677032 292.250824
vertex 79.294487 62.20339203 292.2325439
vertex 79.08568573 62.11008453 292.2507324

endloop
endfacet
facet normal 0.03617816418 0.1126036867 0.9929811358
outer loop
vertex 79.08568573 62.11008453 292.2507324
vertex 79.294487 62.20339203 292.2325439
vertex 79.13414764 62.25571442 292.2324524

endloop
endfacet
facet normal 0.02556370758 0.1161263958 0.9929053783
outer loop
vertex 79.08568573 62.11008453 292.2507324
vertex 79.13414764 62.25571442 292.2324524
vertex 78.91771698 62.1671524 292.2483826

endloop
endfacet
facet normal 0.02569585107 0.1158095077 0.9929389954
outer loop
vertex 78.91771698 62.1671524 292.2483826
vertex 79.13414764 62.25571442 292.2324524
vertex 78.96666718 62.31171417 292.2302551

endloop
endfacet
facet normal -0.08379823714 0.1518700421 0.9848418236
outer loop
vertex 78.91771698 62.1671524 292.2483826
vertex 78.96666718 62.31171417 292.2302551
vertex 78.75627899 62.22234344 292.2261353

endloop
endfacet
facet normal -0.08234170079 0.1484112293 0.985491693
outer loop
vertex 78.75627899 62.22234344 292.2261353
vertex 78.96666718 62.31171417 292.2302551
vertex 78.79903412 62.35974884 292.2090149

endloop
endfacet
facet normal -0.3712534904 0.2276801318 0.9001848102
outer loop
vertex 78.75627899 62.22234344 292.2261353
vertex 78.79903412 62.35974884 292.2090149
vertex 78.63188934 62.26384735 292.1643372

endloop
endfacet
facet normal -0.3562963009 0.1952989995 0.9137347937
outer loop
vertex 78.63188934 62.26384735 292.1643372
vertex 78.79903412 62.35974884 292.2090149
vertex 78.65938568 62.38054657 292.150116

endloop
endfacet
facet normal -0.6482416987 0.2404099107 0.7224857807
outer loop
vertex 78.63191986 62.26384735 292.1643372
vertex 78.65935516 62.38056183 292.150116
vertex 78.54994965 62.27164459 292.0881958

endloop
endfacet
facet normal -0.5999113917 0.156550169 0.7846007347
outer loop
vertex 78.54994965 62.27164459 292.0881958
vertex 78.65935516 62.38056183 292.150116
vertex 78.56304169 62.37412262 292.0777588

endloop
endfacet
facet normal -0.9739445448 0.1424022168 0.1765042096
outer loop
vertex 78.54994965 62.27164459 292.0881958
vertex 78.56304169 62.37412262 292.0777588
vertex 78.50798798 62.29947662 291.834198

endloop
endfacet
facet normal 0.9753867388 0 -0.2205009609
outer loop
vertex 78.50798798 62.29947662 291.834198
vertex 78.56304169 62.37412262 292.0777588
vertex 78.50798798 62.29946136 291.834198

endloop
endfacet
facet normal -0.9995109439 -0.03127230331 -0
outer loop
vertex 81.37160492 61.54866791 291.8564453
vertex 81.37160492 61.54866791 291.8565063
vertex 81.36882782 61.63742828 292.0868225

endloop
endfacet
facet normal 0.9211767316 -0.3592567146 0.1495594531
outer loop
vertex 81.36882782 61.63742828 292.0868225
vertex 81.37160492 61.54866791 291.8565063
vertex 81.41130829 61.72028351 292.0242004

endloop
endfacet
facet normal 0.6909213066 0.1757573783 0.7012396455
outer loop
vertex 81.36882782 61.63742828 292.0868225
vertex 81.41130829 61.72028351 292.0242004
vertex 81.28975677 61.69123077 292.1512451

endloop
endfacet
facet normal 0.6690197587 0.2545368075 0.6983004212
outer loop
vertex 81.28975677 61.69123077 292.1512451
vertex 81.41130829 61.72028351 292.0242004
vertex 81.32540131 61.79529572 292.0791626

endloop
endfacet
facet normal 0.4909145832 0.3761607111 0.785815537
outer loop
vertex 81.28975677 61.69123077 292.1512451
vertex 81.32540131 61.79529572 292.0791626
vertex 81.15639496 61.74274445 292.2098999

endloop
endfacet
facet normal 0.4746506214 0.4104918838 0.7785906196
outer loop
vertex 81.15639496 61.74274445 292.2098999
vertex 81.32540131 61.79529572 292.0791626
vertex 81.18660736 61.87162018 292.1235352

endloop
endfacet
facet normal 0.2235788554 0.5058918595 0.8331182003
outer loop
vertex 81.15639496 61.74274445 292.2098999
vertex 81.18660736 61.87162018 292.1235352
vertex 80.98506927 61.78368378 292.2310181

endloop
endfacet
facet normal 0.2215444148 0.5089448094 0.8318011761
outer loop
vertex 80.98506927 61.78368378 292.2310181
vertex 81.18660736 61.87162018 292.1235352
vertex 81.01180267 61.92157745 292.1395264

endloop
endfacet
facet normal 0.1125090271 0.5341217518 0.8378876448
outer loop
vertex 80.98506927 61.78368378 292.2310181
vertex 81.01180267 61.92157745 292.1395264
vertex 80.8106308 61.81726837 292.2330322

endloop
endfacet
facet normal 0.1126684248 0.5339139104 0.8379986882
outer loop
vertex 80.8106308 61.81726837 292.2330322
vertex 81.01180267 61.92157745 292.1395264
vertex 80.83718109 61.9560318 292.1410522

endloop
endfacet
facet normal 0.1076028943 0.5349053144 0.838032186
outer loop
vertex 80.8106308 61.81726837 292.2330322
vertex 80.83718109 61.9560318 292.1410522
vertex 80.64437103 61.85076141 292.2330017

endloop
endfacet
facet normal 0.1074457467 0.5351014137 0.837927103
outer loop
vertex 80.64437103 61.85076141 292.2330017
vertex 80.83718109 61.9560318 292.1410522
vertex 80.67336273 61.9890213 292.1409912

endloop
endfacet
facet normal 0.1198675707 0.5324847102 0.837909162
outer loop
vertex 80.64437103 61.85076141 292.2330017
vertex 80.67336273 61.9890213 292.1409912
vertex 80.48308563 61.88726044 292.2328796

endloop
endfacet
facet normal 0.1200103015 0.5323033929 0.8380039334
outer loop
vertex 80.48308563 61.88726044 292.2328796
vertex 80.67336273 61.9890213 292.1409912
vertex 80.5154953 62.02475739 292.1408997

endloop
endfacet
facet normal 0.1331015527 0.5293377042 0.8379054666
outer loop
vertex 80.48308563 61.88726044 292.2329102
vertex 80.5154953 62.02475739 292.1408997
vertex 80.31813812 61.92868805 292.2329407

endloop
endfacet
facet normal 0.1332046092 0.5291960239 0.8379785419
outer loop
vertex 80.31813812 61.92868805 292.2329407
vertex 80.5154953 62.02475739 292.1408997
vertex 80.353508 62.06548309 292.1409302

endloop
endfacet
facet normal 0.1400875449 0.5274161696 0.8379783034
outer loop
vertex 80.31813812 61.92868805 292.2329407
vertex 80.353508 62.06548309 292.1409302
vertex 80.14565277 61.97464752 292.2328491

endloop
endfacet
facet normal 0.1400308609 0.5275012851 0.8379342556
outer loop
vertex 80.14565277 61.97464752 292.2328491
vertex 80.353508 62.06548309 292.1409302
vertex 80.18230438 62.11107635 292.1408386

endloop
endfacet
facet normal 0.1390263587 0.527728498 0.8379583955
outer loop
vertex 80.14565277 61.97466278 292.2328796
vertex 80.18230438 62.11110687 292.1408691
vertex 79.96730804 62.02188873 292.2327271

endloop
endfacet
facet normal 0.1391909271 0.5274707675 0.8380933404
outer loop
vertex 79.96730804 62.02188873 292.2327271
vertex 80.18230438 62.11110687 292.1408691
vertex 80.00319672 62.15851593 292.1407776

endloop
endfacet
facet normal 0.1350427717 0.5285567045 0.8380877972
outer loop
vertex 79.96730804 62.02188873 292.2327271
vertex 80.00319672 62.15851593 292.1407776
vertex 79.78862762 62.06758881 292.2326965

endloop
endfacet
facet normal 0.134910956 0.5287598372 0.8379809856
outer loop
vertex 79.78862762 62.06758881 292.2326965
vertex 80.00319672 62.15851593 292.1407776
vertex 79.82332611 62.20450592 292.1407166

endloop
endfacet
facet normal 0.1348112524 0.5287851095 0.8379810452
outer loop
vertex 79.78862762 62.06758881 292.2326965
vertex 79.82332611 62.20450592 292.1407166
vertex 79.6158371 62.11164093 292.2326965

endloop
endfacet
facet normal 0.1348360479 0.5287486315 0.8380000591
outer loop
vertex 79.6158371 62.11164093 292.2326965
vertex 79.82332611 62.20450592 292.1407166
vertex 79.65123749 62.2483902 292.1407166

endloop
endfacet
facet normal 0.1426787674 0.5267089009 0.8379859924
outer loop
vertex 79.6158371 62.11164093 292.2326965
vertex 79.65123749 62.2483902 292.1407166
vertex 79.45223236 62.15610504 292.232605

endloop
endfacet
facet normal 0.1426731348 0.5267169476 0.8379818797
outer loop
vertex 79.45223236 62.15610504 292.232605
vertex 79.65123749 62.2483902 292.1407166
vertex 79.49044037 62.29209137 292.140625

endloop
endfacet
facet normal 0.1562818438 0.5227620006 0.8380308747
outer loop
vertex 79.45223236 62.15613556 292.232605
vertex 79.49047089 62.29210663 292.1406555
vertex 79.294487 62.20339203 292.2325439

endloop
endfacet
facet normal 0.1563451439 0.522669673 0.8380767703
outer loop
vertex 79.294487 62.20339203 292.2325439
vertex 79.49047089 62.29210663 292.1406555
vertex 79.33623505 62.33834076 292.1405945

endloop
endfacet
facet normal 0.1688178927 0.5188004375 0.8380612135
outer loop
vertex 79.294487 62.20339203 292.2325439
vertex 79.33623505 62.33834076 292.1405945
vertex 79.13414764 62.25571442 292.2324524

endloop
endfacet
facet normal 0.1687166095 0.5189605951 0.8379824758
outer loop
vertex 79.13414764 62.25571442 292.2324524
vertex 79.33623505 62.33834076 292.1405945
vertex 79.17876434 62.38973236 292.1404724

endloop
endfacet
facet normal 0.1631421 0.5207935572 0.8379490972
outer loop
vertex 79.13414764 62.25571442 292.2324524
vertex 79.17876434 62.38973236 292.1404724
vertex 78.96666718 62.31171417 292.2302551

endloop
endfacet
facet normal 0.1632614583 0.5205887556 0.8380531073
outer loop
vertex 78.96666718 62.31171417 292.2302551
vertex 79.17876434 62.38973236 292.1404724
vertex 79.01177216 62.44475555 292.1388245

endloop
endfacet
facet normal 0.05320395157 0.5532640815 0.8313051462
outer loop
vertex 78.96666718 62.31171417 292.2302551
vertex 79.01177216 62.44475555 292.1388245
vertex 78.79903412 62.35974884 292.2090149

endloop
endfacet
facet normal 0.05465785041 0.5508630276 0.832803905
outer loop
vertex 78.79903412 62.35974884 292.2090149
vertex 79.01177216 62.44475555 292.1388245
vertex 78.83852386 62.48621368 292.1227722

endloop
endfacet
facet normal -0.2348017842 0.5966407061 0.76739043
outer loop
vertex 78.79903412 62.35974884 292.2090149
vertex 78.83852386 62.48621368 292.1227722
vertex 78.65938568 62.38054657 292.150116

endloop
endfacet
facet normal -0.2217081636 0.5789139867 0.7846681476
outer loop
vertex 78.65938568 62.38054657 292.150116
vertex 78.83852386 62.48621368 292.1227722
vertex 78.68471527 62.48790741 292.078064

endloop
endfacet
facet normal -0.5223616362 0.5569108725 0.6457465291
outer loop
vertex 78.65935516 62.38056183 292.150116
vertex 78.68474579 62.48792267 292.078064
vertex 78.56304169 62.37412262 292.0777588

endloop
endfacet
facet normal -0.4972791672 0.5299759507 0.6869053245
outer loop
vertex 78.56304169 62.37412262 292.0777588
vertex 78.68474579 62.48792267 292.078064
vertex 78.57491302 62.4665451 292.0150452

endloop
endfacet
facet normal -0.963006556 0.2246671766 0.148805365
outer loop
vertex 78.56304169 62.37412262 292.0777588
vertex 78.57491302 62.4665451 292.0150452
vertex 78.50798798 62.29946136 291.834198

endloop
endfacet
facet normal -nan(ind) -nan(ind) -nan(ind)
outer loop
vertex 78.50798798 62.29946136 291.834198
vertex 78.57491302 62.4665451 292.0150452
vertex 78.50798798 62.29946136 291.834198

endloop
endfacet
facet normal 0.3476052284 -0.6952104568 0.6291686296
outer loop
vertex 81.37160492 61.54866791 291.8565063
vertex 81.37163544 61.54868317 291.8565063
vertex 81.41130829 61.72028351 292.0242004

endloop
endfacet
facet normal 0.9487271309 -0.303994447 0.08662699908
outer loop
vertex 81.41130829 61.72028351 292.0242004
vertex 81.37163544 61.54868317 291.8565063
vertex 81.43782806 61.77207184 291.9154968

endloop
endfacet
facet normal 0.7340687513 0.5258908272 0.4296301007
outer loop
vertex 81.41130829 61.72028351 292.0242004
vertex 81.43782806 61.77207184 291.9154968
vertex 81.32540131 61.79529572 292.0791626

endloop
endfacet
facet normal 0.7333542109 0.5274686813 0.4289153814
outer loop
vertex 81.32540131 61.79529572 292.0791626
vertex 81.43782806 61.77207184 291.9154968
vertex 81.3498764 61.86658478 291.949646

endloop
endfacet
facet normal 0.5354351401 0.6930687428 0.4826643765
outer loop
vertex 81.32540131 61.79529572 292.0791626
vertex 81.3498764 61.86658478 291.949646
vertex 81.18660736 61.87162018 292.1235352

endloop
endfacet
facet normal 0.5257504582 0.7068917155 0.4731708169
outer loop
vertex 81.18660736 61.87162018 292.1235352
vertex 81.3498764 61.86658478 291.949646
vertex 81.20742035 61.96001434 291.9683533

endloop
endfacet
facet normal 0.2797051072 0.8176237941 0.5032460093
outer loop
vertex 81.18660736 61.87162018 292.1235352
vertex 81.20742035 61.96001434 291.9683533
vertex 81.01180267 61.92157745 292.1395264

endloop
endfacet
facet normal 0.278588295 0.8186477423 0.5021996498
outer loop
vertex 81.01180267 61.92157745 292.1395264
vertex 81.20742035 61.96001434 291.9683533
vertex 81.03026581 62.01618195 291.9750671

endloop
endfacet
facet normal 0.1712578088 0.8455758691 0.5056403875
outer loop
vertex 81.01180267 61.92157745 292.1395264
vertex 81.03026581 62.01618195 291.9750671
vertex 80.83718109 61.9560318 292.1410522

endloop
endfacet
facet normal 0.1713157892 0.8455330133 0.5056923032
outer loop
vertex 80.83718109 61.9560318 292.1410522
vertex 81.03026581 62.01618195 291.9750671
vertex 80.85549164 62.05124664 291.975647

endloop
endfacet
facet normal 0.1701313704 0.8457692862 0.5056972504
outer loop
vertex 80.83718109 61.9560318 292.1410522
vertex 80.85549164 62.05124664 291.975647
vertex 80.67336273 61.9890213 292.1409912

endloop
endfacet
facet normal 0.1702652574 0.8456752896 0.5058093667
outer loop
vertex 80.67336273 61.9890213 292.1409912
vertex 80.85549164 62.05124664 291.975647
vertex 80.69332123 62.08391571 291.9756165

endloop
endfacet
facet normal 0.1901808828 0.8414373398 0.5057810545
outer loop
vertex 80.67336273 61.9890213 292.1409912
vertex 80.69332123 62.08391571 291.9756165
vertex 80.5154953 62.02475739 292.1408997

endloop
endfacet
facet normal 0.1899467707 0.8416053653 0.505589366
outer loop
vertex 80.5154953 62.02475739 292.1408997
vertex 80.69332123 62.08391571 291.9756165
vertex 80.53774261 62.11910248 291.9754944

endloop
endfacet
facet normal 0.2104508728 0.8366935849 0.5056227446
outer loop
vertex 80.5154953 62.02475739 292.1408997
vertex 80.53774261 62.11911774 291.9754944
vertex 80.353508 62.06548309 292.1409302

endloop
endfacet
facet normal 0.2105171978 0.8366422653 0.505679965
outer loop
vertex 80.353508 62.06548309 292.1409302
vertex 80.53774261 62.11911774 291.9754944
vertex 80.37776947 62.15937042 291.9754944

endloop
endfacet
facet normal 0.2217613012 0.8337334991 0.5056781173
outer loop
vertex 80.353508 62.06548309 292.1409302
vertex 80.37776947 62.15937042 291.9754944
vertex 80.18230438 62.11107635 292.1408386

endloop
endfacet
facet normal 0.2219225317 0.8335987329 0.5058294535
outer loop
vertex 80.18230438 62.11107635 292.1408386
vertex 80.37776947 62.15937042 291.9754944
vertex 80.20745087 62.20475006 291.9754333

endloop
endfacet
facet normal 0.2205009609 0.8340118527 0.5057703257
outer loop
vertex 80.18230438 62.11110687 292.1408691
vertex 80.20745087 62.20476532 291.9754639
vertex 80.00319672 62.15851593 292.1407776

endloop
endfacet
facet normal 0.2204440087 0.8340612054 0.5057137609
outer loop
vertex 80.00319672 62.15851593 292.1407776
vertex 80.20745087 62.20476532 291.9754639
vertex 80.0278244 62.25229645 291.9753723

endloop
endfacet
facet normal 0.2135440111 0.8358592391 0.5057057738
outer loop
vertex 80.00319672 62.15851593 292.1407776
vertex 80.0278244 62.25229645 291.9753723
vertex 79.82332611 62.20450592 292.1407166

endloop
endfacet
facet normal 0.2135571092 0.8358479738 0.5057187676
outer loop
vertex 79.82332611 62.20450592 292.1407166
vertex 80.0278244 62.25229645 291.9753723
vertex 79.84719086 62.2984848 291.9753113

endloop
endfacet
facet normal 0.2131742984 0.8359456658 0.5057189465
outer loop
vertex 79.82332611 62.20450592 292.1407166
vertex 79.84719086 62.2984848 291.9753113
vertex 79.65123749 62.2483902 292.1407166

endloop
endfacet
facet normal 0.2132456005 0.8358870745 0.5057857037
outer loop
vertex 79.65123749 62.2483902 292.1407166
vertex 79.84719086 62.2984848 291.9753113
vertex 79.67559052 62.34226227 291.9753113

endloop
endfacet
facet normal 0.2259802818 0.8325470686 0.5057651401
outer loop
vertex 79.65123749 62.2483902 292.1407166
vertex 79.67559052 62.34226227 291.9753113
vertex 79.49044037 62.29209137 292.140625

endloop
endfacet
facet normal 0.225949347 0.8325719237 0.5057380199
outer loop
vertex 79.49044037 62.29209137 292.140625
vertex 79.67559052 62.34226227 291.9753113
vertex 79.51674652 62.38544464 291.9751892

endloop
endfacet
facet normal 0.2475331873 0.8264317513 0.505705297
outer loop
vertex 79.49047089 62.29210663 292.1406555
vertex 79.51677704 62.3854599 291.9752197
vertex 79.33623505 62.33834076 292.1405945

endloop
endfacet
facet normal 0.2472603917 0.8266564012 0.505471468
outer loop
vertex 79.33623505 62.33834076 292.1405945
vertex 79.51677704 62.3854599 291.9752197
vertex 79.36489105 62.43094635 291.9751282

endloop
endfacet
facet normal 0.2673495412 0.820395112 0.5054463744
outer loop
vertex 79.33623505 62.33834076 292.1405945
vertex 79.36489105 62.43094635 291.9751282
vertex 79.17876434 62.38973236 292.1404724

endloop
endfacet
facet normal 0.2674130201 0.8203390837 0.5055038333
outer loop
vertex 79.17876434 62.38973236 292.1404724
vertex 79.36489105 62.43094635 291.9751282
vertex 79.20943451 62.48169708 291.9750061

endloop
endfacet
facet normal 0.265514195 0.820959866 0.5054969192
outer loop
vertex 79.17876434 62.38973236 292.1404724
vertex 79.20943451 62.48169708 291.9750061
vertex 79.01177216 62.44475555 292.1388245

endloop
endfacet
facet normal 0.2656590044 0.8208242059 0.5056410432
outer loop
vertex 79.01177216 62.44475555 292.1388245
vertex 79.20943451 62.48169708 291.9750061
vertex 79.04277802 62.53604889 291.9743347

endloop
endfacet
facet normal 0.1570718735 0.8506472707 0.50172472
outer loop
vertex 79.01177216 62.44475555 292.1388245
vertex 79.04277802 62.53604889 291.9743347
vertex 78.83852386 62.48621368 292.1227722

endloop
endfacet
facet normal 0.1582174301 0.8496927619 0.5029805899
outer loop
vertex 78.83852386 62.48621368 292.1227722
vertex 79.04277802 62.53604889 291.9743347
vertex 78.86574554 62.57300568 291.9675903

endloop
endfacet
facet normal -0.1261896193 0.8750588298 0.4672774971
outer loop
vertex 78.83852386 62.48621368 292.1227722
vertex 78.86574554 62.57300568 291.9675903
vertex 78.68471527 62.48790741 292.078064

endloop
endfacet
facet normal -0.117031619 0.8702214956 0.4785583317
outer loop
vertex 78.68471527 62.48790741 292.078064
vertex 78.86574554 62.57300568 291.9675903
vertex 78.70220184 62.56150055 291.9485168

endloop
endfacet
facet normal -0.3962840736 0.8202947974 0.4124019146
outer loop
vertex 78.68474579 62.48792267 292.078064
vertex 78.70220184 62.56148529 291.9485168
vertex 78.57491302 62.4665451 292.0150452

endloop
endfacet
facet normal -0.399110049 0.8210731149 0.4081056714
outer loop
vertex 78.57491302 62.4665451 292.0150452
vertex 78.70220184 62.56148529 291.9485168
vertex 78.58248138 62.5242691 291.906311

endloop
endfacet
facet normal -0.9536393285 0.2882144749 0.08662787825
outer loop
vertex 78.57491302 62.4665451 292.0150452
vertex 78.58248138 62.5242691 291.906311
vertex 78.50798798 62.29946136 291.834198

endloop
endfacet
facet normal -0.6958332062 0 0.718203485
outer loop
vertex 78.50798798 62.29946136 291.834198
vertex 78.58248138 62.5242691 291.906311
vertex 78.50798798 62.29947662 291.834198

endloop
endfacet
facet normal 0.7134526372 -0.02650111355 -0.7002021074
outer loop
vertex 81.37163544 61.54868317 291.8565063
vertex 81.37160492 61.54866791 291.8564758
vertex 81.43782806 61.77207184 291.9154968

endloop
endfacet
facet normal 0.9589765072 -0.2834694982 -0.003019905882
outer loop
vertex 81.43782806 61.77207184 291.9154968
vertex 81.37160492 61.54866791 291.8564758
vertex 81.43675995 61.76984406 291.7854309

endloop
endfacet
facet normal 0.7287466526 0.6845543981 -0.01770966873
outer loop
vertex 81.43782806 61.77207184 291.9154968
vertex 81.43675995 61.76984406 291.7854309
vertex 81.3498764 61.86658478 291.949646

endloop
endfacet
facet normal 0.7639375329 0.6448321342 0.02431006171
outer loop
vertex 81.3498764 61.86658478 291.949646
vertex 81.43675995 61.76984406 291.7854309
vertex 81.35146332 61.87099457 291.7828064

endloop
endfacet
facet normal 0.5507206917 0.8342434168 0.02728839405
outer loop
vertex 81.3498764 61.86658478 291.949646
vertex 81.35146332 61.87099457 291.7828064
vertex 81.20742035 61.96001434 291.9683533

endloop
endfacet
facet normal 0.5504701734 0.8344177604 0.02701028064
outer loop
vertex 81.20742035 61.96001434 291.9683533
vertex 81.35146332 61.87099457 291.7828064
vertex 81.20879364 61.9655838 291.7683105

endloop
endfacet
facet normal 0.3030886054 0.9525331259 0.0286005009
outer loop
vertex 81.20742035 61.96001434 291.9683533
vertex 81.20879364 61.9655838 291.7683105
vertex 81.03026581 62.01618195 291.9750671

endloop
endfacet
facet normal 0.3031457663 0.9525132775 0.02865470946
outer loop
vertex 81.03026581 62.01618195 291.9750671
vertex 81.20879364 61.9655838 291.7683105
vertex 81.03151703 62.02216339 291.7630005

endloop
endfacet
facet normal 0.196718961 0.9800367355 0.0288030915
outer loop
vertex 81.03026581 62.01618195 291.9750671
vertex 81.03151703 62.02216339 291.7630005
vertex 80.85549164 62.05124664 291.975647

endloop
endfacet
facet normal 0.1968750656 0.98000139 0.02893714607
outer loop
vertex 80.85549164 62.05124664 291.975647
vertex 81.03151703 62.02216339 291.7630005
vertex 80.85683441 62.05727386 291.7623901

endloop
endfacet
facet normal 0.1973938346 0.9798970222 0.02893746272
outer loop
vertex 80.85549164 62.05124664 291.975647
vertex 80.85683441 62.05727386 291.7623901
vertex 80.69332123 62.08391571 291.9756165

endloop
endfacet
facet normal 0.1971371472 0.9799547195 0.02873341739
outer loop
vertex 80.69332123 62.08391571 291.9756165
vertex 80.85683441 62.05727386 291.7623901
vertex 80.69475555 62.0898819 291.7622986

endloop
endfacet
facet normal 0.2204829305 0.9749670029 0.02875089459
outer loop
vertex 80.69332123 62.08391571 291.9756165
vertex 80.69475555 62.0898819 291.7622986
vertex 80.53774261 62.11910248 291.9754944

endloop
endfacet
facet normal 0.2204796076 0.9749677777 0.02874835022
outer loop
vertex 80.53774261 62.11910248 291.9754944
vertex 80.69475555 62.0898819 291.7622986
vertex 80.53923798 62.12505341 291.762207

endloop
endfacet
facet normal 0.2439148873 0.9693721533 0.02869128622
outer loop
vertex 80.53774261 62.11911774 291.9754944
vertex 80.53923798 62.12505341 291.7622375
vertex 80.37776947 62.15937042 291.9754944

endloop
endfacet
facet normal 0.2440025359 0.9693479538 0.02876153961
outer loop
vertex 80.37776947 62.15937042 291.9754944
vertex 80.53923798 62.12505341 291.7622375
vertex 80.3793869 62.16529083 291.7622375

endloop
endfacet
facet normal 0.2573416829 0.9658921361 0.02876676805
outer loop
vertex 80.37776947 62.15937042 291.9754944
vertex 80.3793869 62.16529083 291.7622375
vertex 80.20745087 62.20475006 291.9754333

endloop
endfacet
facet normal 0.2573570907 0.9658876657 0.02877997607
outer loop
vertex 80.20745087 62.20475006 291.9754333
vertex 80.3793869 62.16529083 291.7622375
vertex 80.20919037 62.21063995 291.762207

endloop
endfacet
facet normal 0.2556871474 0.9663311839 0.02877860144
outer loop
vertex 80.20745087 62.20476532 291.9754639
vertex 80.20919037 62.21065521 291.7622375
vertex 80.0278244 62.25229645 291.9753723

endloop
endfacet
facet normal 0.2556333244 0.9663468599 0.02872976288
outer loop
vertex 80.0278244 62.25229645 291.9753723
vertex 80.20919037 62.21065521 291.7622375
vertex 80.02947235 62.2582016 291.762085

endloop
endfacet
facet normal 0.2476200759 0.968431294 0.02872556075
outer loop
vertex 80.0278244 62.25229645 291.9753723
vertex 80.02947235 62.2582016 291.762085
vertex 79.84719086 62.2984848 291.9753113

endloop
endfacet
facet normal 0.2476556152 0.9684212208 0.02875780314
outer loop
vertex 79.84719086 62.2984848 291.9753113
vertex 80.02947235 62.2582016 291.762085
vertex 79.84874725 62.30442047 291.7620239

endloop
endfacet
facet normal 0.2470934093 0.9685648084 0.02875770815
outer loop
vertex 79.84719086 62.2984848 291.9753113
vertex 79.84874725 62.30442047 291.7620239
vertex 79.67559052 62.34226227 291.9753113

endloop
endfacet
facet normal 0.2470099181 0.968588233 0.02868574671
outer loop
vertex 79.67559052 62.34226227 291.9753113
vertex 79.84874725 62.30442047 291.7620239
vertex 79.67720795 62.34816742 291.7619934

endloop
endfacet
facet normal 0.2622044384 0.9645857811 0.0286901556
outer loop
vertex 79.67559052 62.34226227 291.9753113
vertex 79.67720795 62.34816742 291.7619934
vertex 79.51674652 62.38544464 291.9751892

endloop
endfacet
facet normal 0.2623229623 0.964550674 0.02878549695
outer loop
vertex 79.51674652 62.38544464 291.9751892
vertex 79.67720795 62.34816742 291.7619934
vertex 79.51854706 62.39131927 291.7619324

endloop
endfacet
facet normal 0.2867532074 0.9575694799 0.02886383422
outer loop
vertex 79.51677704 62.3854599 291.9752197
vertex 79.51857758 62.39134979 291.7619324
vertex 79.36489105 62.43094635 291.9751282

endloop
endfacet
facet normal 0.2866775692 0.9575939775 0.02880477346
outer loop
vertex 79.36489105 62.43094635 291.9751282
vertex 79.51857758 62.39134979 291.7619324
vertex 79.36675262 62.43680573 291.7618103

endloop
endfacet
facet normal 0.3101940453 0.9502366781 0.0288079083
outer loop
vertex 79.36489105 62.43094635 291.9751282
vertex 79.36675262 62.43680573 291.7618103
vertex 79.20943451 62.48169708 291.9750061

endloop
endfacet
facet normal 0.3100042045 0.9503033161 0.02865381539
outer loop
vertex 79.20943451 62.48169708 291.9750061
vertex 79.36675262 62.43680573 291.7618103
vertex 79.21141815 62.48748016 291.7617493

endloop
endfacet
facet normal 0.3098266125 0.9503612518 0.02865372039
outer loop
vertex 79.20943451 62.48169708 291.9750061
vertex 79.21141815 62.48748016 291.7617493
vertex 79.04277802 62.53604889 291.9743347

endloop
endfacet
facet normal 0.3100535274 0.9502812624 0.02885203063
outer loop
vertex 79.04277802 62.53604889 291.9743347
vertex 79.21141815 62.48748016 291.7617493
vertex 79.04488373 62.54180145 291.7622375

endloop
endfacet
facet normal 0.2032256275 0.9787153006 0.02856264636
outer loop
vertex 79.04277802 62.53604889 291.9743347
vertex 79.04488373 62.54180145 291.7622375
vertex 78.86574554 62.57300568 291.9675903

endloop
endfacet
facet normal 0.2034371346 0.9786657095 0.02875469439
outer loop
vertex 78.86574554 62.57300568 291.9675903
vertex 79.04488373 62.54180145 291.7622375
vertex 78.86766815 62.57848358 291.7675476

endloop
endfacet
facet normal -0.07323694229 0.9969598651 0.0265965499
outer loop
vertex 78.86574554 62.57300568 291.9675903
vertex 78.86766815 62.57848358 291.7675476
vertex 78.70220184 62.56150055 291.9485168

endloop
endfacet
facet normal -0.07329404354 0.9969570041 0.02654405497
outer loop
vertex 78.70220184 62.56150055 291.9485168
vertex 78.86766815 62.57848358 291.7675476
vertex 78.70342255 62.56603241 291.7816772

endloop
endfacet
facet normal -0.3043625653 0.9522621632 0.0236664582
outer loop
vertex 78.70220184 62.56148529 291.9485168
vertex 78.70345306 62.56603241 291.7816467
vertex 78.58248138 62.5242691 291.906311

endloop
endfacet
facet normal -0.342921108 0.9391892552 -0.01812944748
outer loop
vertex 78.58248138 62.5242691 291.906311
vertex 78.70345306 62.56603241 291.7816467
vertex 78.58229828 62.52169037 291.7761841

endloop
endfacet
facet normal -0.94875139 0.3159848452 -0.004926878959
outer loop
vertex 78.58248138 62.5242691 291.906311
vertex 78.58229828 62.52169037 291.7761841
vertex 78.50798798 62.29947662 291.834198

endloop
endfacet
facet normal -0.6150156856 0 -0.7885148525
outer loop
vertex 78.50798798 62.29947662 291.834198
vertex 78.58229828 62.52169037 291.7761841
vertex 78.50798798 62.29946136 291.834198

endloop
endfacet
facet normal 0 -0.3058241904 -0.9520879984
outer loop
vertex 81.37160492 61.54866791 291.8564758
vertex 81.3715744 61.54866791 291.8564758
vertex 81.43675995 61.76984406 291.7854309

endloop
endfacet
facet normal 0.9474301934 -0.3075631261 -0.08820994198
outer loop
vertex 81.43675995 61.76984406 291.7854309
vertex 81.3715744 61.54866791 291.8564758
vertex 81.41002655 61.71709442 291.6822205

endloop
endfacet
facet normal 0.6827364564 0.5636641979 -0.4649233222
outer loop
vertex 81.43675995 61.76984406 291.7854309
vertex 81.41002655 61.71709442 291.6822205
vertex 81.35146332 61.87099457 291.7828064

endloop
endfacet
facet normal 0.7508448958 0.53701967 -0.3845020533
outer loop
vertex 81.35146332 61.87099457 291.7828064
vertex 81.41002655 61.71709442 291.6822205
vertex 81.32881927 61.80463409 291.6459045

endloop
endfacet
facet normal 0.5269005895 0.7273416519 -0.4397156835
outer loop
vertex 81.35146332 61.87099457 291.7828064
vertex 81.32881927 61.80463409 291.6459045
vertex 81.20879364 61.9655838 291.7683105

endloop
endfacet
facet normal 0.5389770269 0.7263334394 -0.4265484512
outer loop
vertex 81.20879364 61.9655838 291.7683105
vertex 81.32881927 61.80463409 291.6459045
vertex 81.18953705 61.88339996 291.6040344

endloop
endfacet
facet normal 0.2830361128 0.8440716267 -0.4554488063
outer loop
vertex 81.20879364 61.9655838 291.7683105
vertex 81.18953705 61.88339996 291.6040344
vertex 81.03151703 62.02216339 291.7630005

endloop
endfacet
facet normal 0.2844664156 0.8442656994 -0.4541963935
outer loop
vertex 81.03151703 62.02216339 291.7630005
vertex 81.18953705 61.88339996 291.6040344
vertex 81.01461029 61.93419647 291.5888977

endloop
endfacet
facet normal 0.1767607629 0.8714724183 -0.4574837685
outer loop
vertex 81.03151703 62.02216339 291.7630005
vertex 81.01461029 61.93419647 291.5888977
vertex 80.85683441 62.05727386 291.7623901

endloop
endfacet
facet normal 0.1767632365 0.8714729548 -0.4574818611
outer loop
vertex 80.85683441 62.05727386 291.7623901
vertex 81.01461029 61.93419647 291.5888977
vertex 80.84011078 61.96875763 291.5873108

endloop
endfacet
facet normal 0.1756321043 0.8716984987 -0.4574878812
outer loop
vertex 80.85683441 62.05727386 291.7623901
vertex 80.84011078 61.96875763 291.5873108
vertex 80.69475555 62.0898819 291.7622986

endloop
endfacet
facet normal 0.1756740808 0.8717057109 -0.4574579895
outer loop
vertex 80.69475555 62.0898819 291.7622986
vertex 80.84011078 61.96875763 291.5873108
vertex 80.67647552 62.00167084 291.5871887

endloop
endfacet
facet normal 0.1964152008 0.8672969937 -0.4574023187
outer loop
vertex 80.69475555 62.0898819 291.7622986
vertex 80.67647552 62.00167084 291.5871887
vertex 80.53923798 62.12505341 291.762207

endloop
endfacet
facet normal 0.1960279197 0.8672440648 -0.4576687217
outer loop
vertex 80.53923798 62.12505341 291.762207
vertex 80.67647552 62.00167084 291.5871887
vertex 80.51863861 62.03731537 291.5871277

endloop
endfacet
facet normal 0.2170502096 0.8622744083 -0.4575719535
outer loop
vertex 80.53923798 62.12505341 291.7622375
vertex 80.51863861 62.03731537 291.5871277
vertex 80.3793869 62.16529083 291.7622375

endloop
endfacet
facet normal 0.2169905901 0.862267077 -0.4576139748
outer loop
vertex 80.3793869 62.16529083 291.7622375
vertex 80.51863861 62.03731537 291.5871277
vertex 80.35692596 62.07801056 291.5871277

endloop
endfacet
facet normal 0.2290060967 0.8591583967 -0.4576056898
outer loop
vertex 80.3793869 62.16529083 291.7622375
vertex 80.35692596 62.07801056 291.5871277
vertex 80.20919037 62.21063995 291.762207

endloop
endfacet
facet normal 0.2291388363 0.8591756821 -0.4575068057
outer loop
vertex 80.20919037 62.21063995 291.762207
vertex 80.35692596 62.07801056 291.5871277
vertex 80.18590546 62.12358856 291.5870667

endloop
endfacet
facet normal 0.2277998477 0.859580338 -0.4574153423
outer loop
vertex 80.20919037 62.21065521 291.7622375
vertex 80.18593597 62.12361908 291.5870972
vertex 80.02947235 62.2582016 291.762085

endloop
endfacet
facet normal 0.2277150452 0.8595677018 -0.4574814439
outer loop
vertex 80.02947235 62.2582016 291.762085
vertex 80.18593597 62.12361908 291.5870972
vertex 80.00667572 62.1710434 291.5869751

endloop
endfacet
facet normal 0.2204647362 0.8614575267 -0.4574781656
outer loop
vertex 80.02947235 62.2582016 291.762085
vertex 80.00667572 62.1710434 291.5869751
vertex 79.84874725 62.30442047 291.7620239

endloop
endfacet
facet normal 0.2203341722 0.8614367247 -0.4575801194
outer loop
vertex 79.84874725 62.30442047 291.7620239
vertex 80.00667572 62.1710434 291.5869751
vertex 79.82668304 62.21704865 291.5869141

endloop
endfacet
facet normal 0.2198043913 0.8615717292 -0.457580775
outer loop
vertex 79.84874725 62.30442047 291.7620239
vertex 79.82668304 62.21704865 291.5869141
vertex 79.67720795 62.34816742 291.7619934

endloop
endfacet
facet normal 0.2199128568 0.8615871072 -0.4574996829
outer loop
vertex 79.67720795 62.34816742 291.7619934
vertex 79.82668304 62.21704865 291.5869141
vertex 79.65474701 62.26091766 291.5868835

endloop
endfacet
facet normal 0.2335344106 0.8580130935 -0.4574661553
outer loop
vertex 79.67720795 62.34816742 291.7619934
vertex 79.65474701 62.26091766 291.5868835
vertex 79.51854706 62.39131927 291.7619324

endloop
endfacet
facet normal 0.2337893248 0.8580390215 -0.4572871327
outer loop
vertex 79.51854706 62.39131927 291.7619324
vertex 79.65474701 62.26091766 291.5868835
vertex 79.49434662 62.30457306 291.586792

endloop
endfacet
facet normal 0.2554009557 0.8518230915 -0.4573485553
outer loop
vertex 79.51857758 62.39134979 291.7619324
vertex 79.49437714 62.30458832 291.5868225
vertex 79.36675262 62.43680573 291.7618103

endloop
endfacet
facet normal 0.2553516626 0.8518199325 -0.4573821425
outer loop
vertex 79.36675262 62.43680573 291.7618103
vertex 79.49437714 62.30458832 291.5868225
vertex 79.34023285 62.3507309 291.5867004

endloop
endfacet
facet normal 0.2759685218 0.845386982 -0.4573423862
outer loop
vertex 79.36675262 62.43680573 291.7618103
vertex 79.34023285 62.3507309 291.5867004
vertex 79.21141815 62.48748016 291.7617493

endloop
endfacet
facet normal 0.2759286165 0.845385015 -0.4573702216
outer loop
vertex 79.21141815 62.48748016 291.7617493
vertex 79.34023285 62.3507309 291.5867004
vertex 79.18300629 62.40201569 291.5866394

endloop
endfacet
facet normal 0.2745583355 0.8458330035 -0.4573665261
outer loop
vertex 79.21141815 62.48748016 291.7617493
vertex 79.18300629 62.40201569 291.5866394
vertex 79.04488373 62.54180145 291.7622375

endloop
endfacet
facet normal 0.2748613358 0.845854342 -0.4571451843
outer loop
vertex 79.04488373 62.54180145 291.7622375
vertex 79.18300629 62.40201569 291.5866394
vertex 79.01634979 62.45696259 291.5881042

endloop
endfacet
facet normal 0.1675562859 0.8751825094 -0.453850776
outer loop
vertex 79.04488373 62.54180145 291.7622375
vertex 79.01634979 62.45696259 291.5881042
vertex 78.86766815 62.57848358 291.7675476

endloop
endfacet
facet normal 0.1664424986 0.8749852777 -0.4546400607
outer loop
vertex 78.86766815 62.57848358 291.7675476
vertex 79.01634979 62.45696259 291.5881042
vertex 78.84279633 62.49782562 291.6032104

endloop
endfacet
facet normal -0.1047398001 0.8989444375 -0.4253569543
outer loop
vertex 78.86766815 62.57848358 291.7675476
vertex 78.84279633 62.49782562 291.6032104
vertex 78.70342255 62.56603241 291.7816772

endloop
endfacet
facet normal -0.1173426211 0.8936401606 -0.4331719279
outer loop
vertex 78.70342255 62.56603241 291.7816772
vertex 78.84279633 62.49782562 291.6032104
vertex 78.68749237 62.49755096 291.6447144

endloop
endfacet
facet normal -0.2993161082 0.8669171333 -0.3985783458
outer loop
vertex 78.70345306 62.56603241 291.7816467
vertex 78.68749237 62.49755096 291.6446838
vertex 78.58229828 62.52169037 291.7761841

endloop
endfacet
facet normal -0.3634968698 0.8203982115 -0.4413805306
outer loop
vertex 78.58229828 62.52169037 291.7761841
vertex 78.68749237 62.49755096 291.6446838
vertex 78.57479095 62.46285248 291.6730042

endloop
endfacet
facet normal -0.9512394071 0.2925924957 -0.09763780236
outer loop
vertex 78.58229828 62.52169037 291.7761841
vertex 78.57479095 62.46285248 291.6730042
vertex 78.50798798 62.29946136 291.834198

endloop
endfacet
facet normal 0 0.702303946 0.7118772268
outer loop
vertex 78.50798798 62.29946136 291.834198
vertex 78.57479095 62.46285248 291.6730042
vertex 78.50795746 62.29946136 291.834198

endloop
endfacet
facet normal -0.2756199241 0.7207805514 0.63601017
outer loop
vertex 81.3715744 61.54866791 291.8564453
vertex 81.37160492 61.54865265 291.8564758
vertex 81.40999603 61.71709442 291.6822205

endloop
endfacet
facet normal 0.9176327586 -0.3669788539 -0.152567029
outer loop
vertex 81.40999603 61.71709442 291.6822205
vertex 81.37160492 61.54865265 291.8564758
vertex 81.36162567 61.62162018 291.6209412

endloop
endfacet
facet normal 0.579723835 0.2113705128 -0.7869197726
outer loop
vertex 81.40999603 61.71709442 291.6822205
vertex 81.36162567 61.62162018 291.6209412
vertex 81.32878876 61.80461884 291.6459045

endloop
endfacet
facet normal 0.6952483654 0.2181772441 -0.684856534
outer loop
vertex 81.32878876 61.80461884 291.6459045
vertex 81.36162567 61.62162018 291.6209412
vertex 81.28536224 61.67726898 291.5612488

endloop
endfacet
facet normal 0.4564656019 0.379347831 -0.8048194647
outer loop
vertex 81.32878876 61.80461884 291.6459045
vertex 81.28536224 61.67726898 291.5612488
vertex 81.18950653 61.8833847 291.6040344

endloop
endfacet
facet normal 0.487569809 0.3890005648 -0.7816355824
outer loop
vertex 81.18950653 61.8833847 291.6040344
vertex 81.28536224 61.67726898 291.5612488
vertex 81.15258026 61.72553253 291.5024414

endloop
endfacet
facet normal 0.216073215 0.4921703041 -0.8432561159
outer loop
vertex 81.18950653 61.8833847 291.6040344
vertex 81.15258026 61.72553253 291.5024414
vertex 81.01461029 61.93418121 291.5888672

endloop
endfacet
facet normal 0.2197152227 0.4937945604 -0.8413633108
outer loop
vertex 81.01461029 61.93418121 291.5888672
vertex 81.15258026 61.72553253 291.5024414
vertex 80.98204803 61.76522064 291.4812012

endloop
endfacet
facet normal 0.1104763821 0.5188736916 -0.8476821184
outer loop
vertex 81.01461029 61.93418121 291.5888672
vertex 80.98204803 61.76522064 291.4812012
vertex 80.84011078 61.96874237 291.5872803

endloop
endfacet
facet normal 0.1104853526 0.5188779831 -0.8476783037
outer loop
vertex 80.84011078 61.96874237 291.5872803
vertex 80.98204803 61.76522064 291.4812012
vertex 80.80782318 61.79872894 291.4790039

endloop
endfacet
facet normal 0.1050530449 0.5199364424 -0.8477203846
outer loop
vertex 80.84011078 61.96874237 291.5872803
vertex 80.80782318 61.79872894 291.4790039
vertex 80.67647552 62.00165558 291.5871887

endloop
endfacet
facet normal 0.105126068 0.5199683905 -0.8476917744
outer loop
vertex 80.67647552 62.00165558 291.5871887
vertex 80.80782318 61.79872894 291.4790039
vertex 80.6411972 61.83226776 291.4789124

endloop
endfacet
facet normal 0.117337741 0.5174039006 -0.8476585746
outer loop
vertex 80.67647552 62.00165558 291.5871887
vertex 80.6411972 61.83226776 291.4789124
vertex 80.51863861 62.03730011 291.5870972

endloop
endfacet
facet normal 0.1172575653 0.5173720717 -0.8476890922
outer loop
vertex 80.51863861 62.03730011 291.5870972
vertex 80.6411972 61.83226776 291.4789124
vertex 80.47908783 61.86885834 291.4788208

endloop
endfacet
facet normal 0.129444316 0.5145728588 -0.8476195931
outer loop
vertex 80.51863861 62.03730011 291.5871277
vertex 80.47908783 61.86884308 291.4788208
vertex 80.35692596 62.07798004 291.5871277

endloop
endfacet
facet normal 0.1295456588 0.5146117806 -0.8475804925
outer loop
vertex 80.35692596 62.07798004 291.5871277
vertex 80.47908783 61.86884308 291.4788208
vertex 80.31377411 61.91040802 291.4787903

endloop
endfacet
facet normal 0.1369838417 0.5126922727 -0.847574234
outer loop
vertex 80.35692596 62.07798004 291.5871277
vertex 80.31377411 61.91040802 291.4787903
vertex 80.18590546 62.1235733 291.5870667

endloop
endfacet
facet normal 0.1367493868 0.5125994086 -0.8476682305
outer loop
vertex 80.18590546 62.1235733 291.5870667
vertex 80.31377411 61.91040802 291.4787903
vertex 80.14113617 61.95641327 291.4787598

endloop
endfacet
facet normal 0.1362922192 0.5127395391 -0.8476572037
outer loop
vertex 80.18590546 62.12358856 291.5870972
vertex 80.14116669 61.95642853 291.4787903
vertex 80.00667572 62.17102814 291.5869751

endloop
endfacet
facet normal 0.1361759156 0.5126908422 -0.8477051854
outer loop
vertex 80.00667572 62.17102814 291.5869751
vertex 80.14116669 61.95642853 291.4787903
vertex 79.96285248 62.00363922 291.4786987

endloop
endfacet
facet normal 0.131632477 0.5138792396 -0.8477034569
outer loop
vertex 80.00667572 62.17102814 291.5869751
vertex 79.96285248 62.00363922 291.4786987
vertex 79.82668304 62.21703339 291.5869141

endloop
endfacet
facet normal 0.1314232349 0.5137896538 -0.847790122
outer loop
vertex 79.82668304 62.21703339 291.5869141
vertex 79.96285248 62.00363922 291.4786987
vertex 79.78423309 62.04927826 291.4786682

endloop
endfacet
facet normal 0.1312963217 0.5138218999 -0.8477902412
outer loop
vertex 79.82668304 62.21703339 291.5869141
vertex 79.78423309 62.04927826 291.4786682
vertex 79.65474701 62.26091766 291.5868835

endloop
endfacet
facet normal 0.1313982457 0.5138632655 -0.8477493525
outer loop
vertex 79.65474701 62.26091766 291.5868835
vertex 79.78423309 62.04927826 291.4786682
vertex 79.6115036 62.09334564 291.4786072

endloop
endfacet
facet normal 0.1397035271 0.511705339 -0.8477266431
outer loop
vertex 79.65474701 62.26091766 291.5868835
vertex 79.6115036 62.09334564 291.4786072
vertex 79.49434662 62.3045578 291.586792

endloop
endfacet
facet normal 0.1399231404 0.5117842555 -0.8476428986
outer loop
vertex 79.49434662 62.3045578 291.586792
vertex 79.6115036 62.09334564 291.4786072
vertex 79.44768524 62.13793182 291.4784851

endloop
endfacet
facet normal 0.1527000219 0.5080364347 -0.8476920128
outer loop
vertex 79.49437714 62.30458832 291.5868225
vertex 79.44771576 62.13794708 291.4785461
vertex 79.34023285 62.35071564 291.5867004

endloop
endfacet
facet normal 0.1526804715 0.5080301762 -0.8476991653
outer loop
vertex 79.34023285 62.35071564 291.5867004
vertex 79.44771576 62.13794708 291.4785461
vertex 79.28923798 62.1853714 291.4784241

endloop
endfacet
facet normal 0.1648583561 0.5042563081 -0.8476716876
outer loop
vertex 79.34023285 62.35071564 291.5867004
vertex 79.28923798 62.1853714 291.4784241
vertex 79.18300629 62.40201569 291.5866394

endloop
endfacet
facet normal 0.1647438854 0.5042216182 -0.8477145433
outer loop
vertex 79.18300629 62.40201569 291.5866394
vertex 79.28923798 62.1853714 291.4784241
vertex 79.12841034 62.23781586 291.478363

endloop
endfacet
facet normal 0.1592646539 0.5060253143 -0.847687006
outer loop
vertex 79.18300629 62.40201569 291.5866394
vertex 79.12841034 62.23781586 291.478363
vertex 79.01631927 62.45693207 291.5881042

endloop
endfacet
facet normal 0.1596238613 0.5061406493 -0.8475505114
outer loop
vertex 79.01631927 62.45693207 291.5881042
vertex 79.12841034 62.23781586 291.478363
vertex 78.96126556 62.29395294 291.4804077

endloop
endfacet
facet normal 0.0534716025 0.5378828049 -0.841322124
outer loop
vertex 79.01631927 62.45693207 291.5881042
vertex 78.96126556 62.29395294 291.4804077
vertex 78.84279633 62.49781036 291.6032104

endloop
endfacet
facet normal 0.0506795831 0.5367859602 -0.8421949148
outer loop
vertex 78.84279633 62.49781036 291.6032104
vertex 78.96126556 62.29395294 291.4804077
vertex 78.79473114 62.34285736 291.5015564

endloop
endfacet
facet normal -0.2108815759 0.5810850263 -0.786046505
outer loop
vertex 78.84279633 62.49781036 291.6032104
vertex 78.79473114 62.34285736 291.5015564
vertex 78.68749237 62.49755096 291.6446838

endloop
endfacet
facet normal -0.2392252982 0.5648614764 -0.7897484899
outer loop
vertex 78.68749237 62.49755096 291.6446838
vertex 78.79473114 62.34285736 291.5015564
vertex 78.65660858 62.36611176 291.5600281

endloop
endfacet
facet normal -0.360270679 0.5634196997 -0.7434805632
outer loop
vertex 78.68749237 62.49755096 291.6446838
vertex 78.6566391 62.36611176 291.5600281
vertex 78.57476044 62.46283722 291.6730042

endloop
endfacet
facet normal -0.4531921148 0.4878130555 -0.7460933924
outer loop
vertex 78.57476044 62.46283722 291.6730042
vertex 78.6566391 62.36611176 291.5600281
vertex 78.56096649 62.35643768 291.6118164

endloop
endfacet
facet normal -0.9595798254 0.2230787575 -0.1715880483
outer loop
vertex 78.57476044 62.46283722 291.6730042
vertex 78.56096649 62.35643768 291.6118164
vertex 78.50795746 62.29944611 291.8341675

endloop
endfacet
facet normal 0.7121093273 -0.7019952536 -0.01015298441
outer loop
vertex 78.50795746 62.29944611 291.8341675
vertex 78.56096649 62.35643768 291.6118164
vertex 78.50798798 62.29947662 291.834198

endloop
endfacet
facet normal -nan(ind) -nan(ind) -nan(ind)
outer loop
vertex 81.37160492 61.54866791 291.8564758
vertex 81.37160492 61.54866791 291.8564758
vertex 81.36165619 61.62162018 291.6209717

endloop
endfacet
facet normal 0.8672866225 -0.463984549 -0.1803667843
outer loop
vertex 81.36165619 61.62162018 291.6209717
vertex 81.37160492 61.54866791 291.8564758
vertex 81.27101898 61.44275665 291.6452637

endloop
endfacet
facet normal 0.4218244255 -0.3285259008 -0.8450650573
outer loop
vertex 81.36165619 61.62162018 291.6209717
vertex 81.27101898 61.44275665 291.6452637
vertex 81.28536224 61.67728424 291.5612488

endloop
endfacet
facet normal 0.6171063185 -0.298548609 -0.7280443311
outer loop
vertex 81.28536224 61.67728424 291.5612488
vertex 81.27101898 61.44275665 291.6452637
vertex 81.20034027 61.42853546 291.5911865

endloop
endfacet
facet normal 0.3262366056 -0.2220912278 -0.9188281298
outer loop
vertex 81.28536224 61.67728424 291.5612488
vertex 81.20034027 61.42853546 291.5911865
vertex 81.15258026 61.72553253 291.5024414

endloop
endfacet
facet normal 0.4099061191 -0.2000015378 -0.8899305463
outer loop
vertex 81.15258026 61.72553253 291.5024414
vertex 81.20034027 61.42853546 291.5911865
vertex 81.08022308 61.41713715 291.5384216

endloop
endfacet
facet normal 0.09110910445 -0.1364643127 -0.9864464998
outer loop
vertex 81.15258026 61.72553253 291.5024414
vertex 81.08022308 61.41713715 291.5384216
vertex 80.98207855 61.7652359 291.4812012

endloop
endfacet
facet normal 0.1007444933 -0.1336567998 -0.9858936667
outer loop
vertex 80.98207855 61.7652359 291.4812012
vertex 81.08022308 61.41713715 291.5384216
vertex 80.91817474 61.43523407 291.5194092

endloop
endfacet
facet normal -0.00942505803 -0.1132065952 -0.9935268164
outer loop
vertex 80.98207855 61.7652359 291.4812012
vertex 80.91817474 61.43523407 291.5194092
vertex 80.80782318 61.79875946 291.4790344

endloop
endfacet
facet normal -0.008747550659 -0.1130041704 -0.993555963
outer loop
vertex 80.80782318 61.79875946 291.4790344
vertex 80.91817474 61.43523407 291.5194092
vertex 80.74434662 61.46666718 291.5173645

endloop
endfacet
facet normal -0.02151436545 -0.1105730385 -0.993635118
outer loop
vertex 80.80782318 61.79875946 291.4790344
vertex 80.74434662 61.46666718 291.5173645
vertex 80.64116669 61.83228302 291.4789124

endloop
endfacet
facet normal -0.02158527449 -0.1105926558 -0.9936314225
outer loop
vertex 80.64116669 61.83228302 291.4789124
vertex 80.74434662 61.46666718 291.5173645
vertex 80.57195282 61.50141144 291.5172424

endloop
endfacet
facet normal -0.02427870594 -0.1100292802 -0.9936317801
outer loop
vertex 80.64116669 61.83228302 291.4789124
vertex 80.57195282 61.50141144 291.5172424
vertex 80.47908783 61.8688736 291.4788208

endloop
endfacet
facet normal -0.02463907562 -0.1101183891 -0.9936130047
outer loop
vertex 80.47908783 61.8688736 291.4788208
vertex 80.57195282 61.50141144 291.5172424
vertex 80.4016037 61.53980255 291.5172119

endloop
endfacet
facet normal -0.02733582631 -0.1094908789 -0.9936118126
outer loop
vertex 80.47908783 61.86885834 291.4788208
vertex 80.40163422 61.53980255 291.5172119
vertex 80.31377411 61.91040802 291.4787903

endloop
endfacet
facet normal -0.02749332227 -0.1095273495 -0.9936035275
outer loop
vertex 80.31377411 61.91040802 291.4787903
vertex 80.40163422 61.53980255 291.5172119
vertex 80.22924042 61.58307648 291.5172119

endloop
endfacet
facet normal -0.02892290801 -0.1091581509 -0.9936035275
outer loop
vertex 80.31377411 61.91040802 291.4787903
vertex 80.22924042 61.58307648 291.5172119
vertex 80.14113617 61.95642853 291.4787598

endloop
endfacet
facet normal -0.02850428596 -0.1090617031 -0.9936262369
outer loop
vertex 80.14113617 61.95642853 291.4787598
vertex 80.22924042 61.58307648 291.5172119
vertex 80.05348969 61.62984467 291.5171204

endloop
endfacet
facet normal -0.02836631052 -0.1091013476 -0.9936258793
outer loop
vertex 80.14116669 61.95644379 291.4787903
vertex 80.05355072 61.62985992 291.5171509
vertex 79.96285248 62.00363922 291.4786987

endloop
endfacet
facet normal -0.02856171504 -0.109147653 -0.9936150908
outer loop
vertex 79.96285248 62.00363922 291.4786987
vertex 80.05355072 61.62985992 291.5171509
vertex 79.87706757 61.6765976 291.5170898

endloop
endfacet
facet normal -0.02777149901 -0.1093548983 -0.9936147928
outer loop
vertex 79.96285248 62.00363922 291.4786987
vertex 79.87706757 61.6765976 291.5170898
vertex 79.78423309 62.04927826 291.4786682

endloop
endfacet
facet normal -0.02776361629 -0.1093529686 -0.9936152101
outer loop
vertex 79.78423309 62.04927826 291.4786682
vertex 79.87706757 61.6765976 291.5170898
vertex 79.70122528 61.72151947 291.5170593

endloop
endfacet
facet normal -0.02756055072 -0.1094043925 -0.9936151505
outer loop
vertex 79.78423309 62.04927826 291.4786682
vertex 79.70122528 61.72151947 291.5170593
vertex 79.6115036 62.09334564 291.4786072

endloop
endfacet
facet normal -0.02757376432 -0.1094075069 -0.9936144948
outer loop
vertex 79.6115036 62.09334564 291.4786072
vertex 79.70122528 61.72151947 291.5170593
vertex 79.52687836 61.7660141 291.5169983

endloop
endfacet
facet normal -0.02893119678 -0.1090565696 -0.9936144352
outer loop
vertex 79.6115036 62.09334564 291.4786072
vertex 79.52687836 61.7660141 291.5169983
vertex 79.44768524 62.13791656 291.4784851

endloop
endfacet
facet normal -0.0290167816 -0.1090743393 -0.9936100245
outer loop
vertex 79.44768524 62.13791656 291.4784851
vertex 79.52687836 61.7660141 291.5169983
vertex 79.35634613 61.81249237 291.5168762

endloop
endfacet
facet normal -0.03162256256 -0.1082510129 -0.9936205149
outer loop
vertex 79.44771576 62.13794708 291.4785461
vertex 79.35637665 61.81252289 291.5169067
vertex 79.28920746 62.1853714 291.4784241

endloop
endfacet
facet normal -0.03178458661 -0.10827934 -0.9936122894
outer loop
vertex 79.28920746 62.1853714 291.4784241
vertex 79.35637665 61.81252289 291.5169067
vertex 79.18941498 61.86237335 291.5168152

endloop
endfacet
facet normal -0.03464379907 -0.1073960066 -0.9936125278
outer loop
vertex 79.28920746 62.1853714 291.4784241
vertex 79.18941498 61.86237335 291.5168152
vertex 79.12837982 62.23781586 291.478363

endloop
endfacet
facet normal -0.03440455347 -0.1073583812 -0.9936249256
outer loop
vertex 79.12837982 62.23781586 291.478363
vertex 79.18941498 61.86237335 291.5168152
vertex 79.02159882 61.91699982 291.5167236

endloop
endfacet
facet normal -0.04683607072 -0.1032124162 -0.9935560226
outer loop
vertex 79.12837982 62.23781586 291.478363
vertex 79.02159882 61.91699982 291.5167236
vertex 78.96129608 62.29395294 291.4804077

endloop
endfacet
facet normal -0.04631159827 -0.1031316891 -0.993588984
outer loop
vertex 78.96129608 62.29395294 291.4804077
vertex 79.02159882 61.91699982 291.5167236
vertex 78.85344696 61.97545624 291.5184937

endloop
endfacet
facet normal -0.145524621 -0.06874395907 -0.9869634509
outer loop
vertex 78.96129608 62.29395294 291.4804077
vertex 78.85344696 61.97545624 291.5184937
vertex 78.79476166 62.34285736 291.5015564

endloop
endfacet
facet normal -0.1516049504 -0.06966996938 -0.9859827161
outer loop
vertex 78.79476166 62.34285736 291.5015564
vertex 78.85344696 61.97545624 291.5184937
vertex 78.70046234 62.0401535 291.5374451

endloop
endfacet
facet normal -0.3880780637 0.01163572166 -0.9215530753
outer loop
vertex 78.79476166 62.34285736 291.5015564
vertex 78.70046234 62.0401535 291.5374451
vertex 78.65660858 62.36611176 291.5600281

endloop
endfacet
facet normal -0.4488016963 0.001531525049 -0.8936300278
outer loop
vertex 78.65660858 62.36611176 291.5600281
vertex 78.70046234 62.0401535 291.5374451
vertex 78.59606171 62.1095047 291.5899963

endloop
endfacet
facet normal -0.4766713083 0.009870223701 -0.8790261745
outer loop
vertex 78.6566391 62.36611176 291.5600281
vertex 78.59606171 62.10951996 291.5899963
vertex 78.56093597 62.35642242 291.6118164

endloop
endfacet
facet normal -0.6115944386 -0.01710523106 -0.7909864783
outer loop
vertex 78.56093597 62.35642242 291.6118164
vertex 78.59606171 62.10951996 291.5899963
vertex 78.53481293 62.15724945 291.636322

endloop
endfacet
facet normal -0.9732855558 0.1023679897 -0.2055140287
outer loop
vertex 78.56093597 62.35642242 291.6118164
vertex 78.53481293 62.15724945 291.636322
vertex 78.50798798 62.29946136 291.834198

endloop
endfacet
facet normal -nan(ind) -nan(ind) -nan(ind)
outer loop
vertex 78.50798798 62.29946136 291.834198
vertex 78.53481293 62.15724945 291.636322
vertex 78.50798798 62.29946136 291.834198

endloop
endfacet
endsolid
