solid 
facet normal -nan(ind) -nan(ind) -nan(ind)
outer loop
vertex 41.22409821 30.24947357 328.4828796
vertex 41.22409821 30.24947357 328.4828796
vertex 40.64295197 30.25710297 327.9170532

endloop
endfacet
facet normal 0.1360471845 0.9825953245 -0.1264817119
outer loop
vertex 40.64295197 30.25710297 327.9170532
vertex 41.22409821 30.24947357 328.4828796
vertex 41.35875702 30.13617706 327.7475586

endloop
endfacet
facet normal -0.1753358245 0.283569634 -0.9427860975
outer loop
vertex 40.64295197 30.25710297 327.9170532
vertex 41.35875702 30.13617706 327.7475586
vertex 40.41983795 29.95041656 327.8663025

endloop
endfacet
facet normal -0.1965416372 0.4301986098 -0.8810791969
outer loop
vertex 40.41983795 29.95041656 327.8663025
vertex 41.35875702 30.13617706 327.7475586
vertex 41.26128387 29.76625824 327.5886841

endloop
endfacet
facet normal -0.2403275371 0.2956837118 -0.9245613813
outer loop
vertex 40.41983795 29.95041656 327.8663025
vertex 41.26128387 29.76625824 327.5886841
vertex 40.19986725 29.54375458 327.7934265

endloop
endfacet
facet normal -0.254668802 0.4081691504 -0.876665175
outer loop
vertex 40.19986725 29.54375458 327.7934265
vertex 41.26128387 29.76625824 327.5886841
vertex 41.08156586 29.33341217 327.4393616

endloop
endfacet
facet normal -0.2896088064 0.310213685 -0.9054800868
outer loop
vertex 40.19986725 29.54375458 327.7934265
vertex 41.08156586 29.33341217 327.4393616
vertex 40.06925201 29.02675629 327.6580811

endloop
endfacet
facet normal -0.2719894946 0.2317189574 -0.9339850545
outer loop
vertex 40.06925201 29.02675629 327.6580811
vertex 41.08156586 29.33341217 327.4393616
vertex 40.96825409 28.82868195 327.3471375

endloop
endfacet
facet normal -0.2487094998 0.3111127615 -0.9172526002
outer loop
vertex 40.06925201 29.02675629 327.6580811
vertex 40.96825409 28.82868195 327.3471375
vertex 39.96378326 28.48339081 327.5023804

endloop
endfacet
facet normal -0.2168916613 0.2015042454 -0.9551722407
outer loop
vertex 39.96378326 28.48339081 327.5023804
vertex 40.96825409 28.82868195 327.3471375
vertex 40.88625336 28.30181122 327.2546082

endloop
endfacet
facet normal -0.1982354373 0.2761798203 -0.9404399395
outer loop
vertex 39.96378326 28.48339081 327.5023804
vertex 40.88625336 28.30181122 327.2546082
vertex 39.85727692 27.9417038 327.3657532

endloop
endfacet
facet normal -0.1766747683 0.2078982741 -0.9620625377
outer loop
vertex 39.85727692 27.9417038 327.3657532
vertex 40.88625336 28.30181122 327.2546082
vertex 40.78995514 27.76340485 327.1559448

endloop
endfacet
facet normal -0.1576210409 0.2872516513 -0.9447974563
outer loop
vertex 39.85727692 27.9417038 327.3657532
vertex 40.78995514 27.76340485 327.1559448
vertex 39.76006317 27.39461517 327.2156372

endloop
endfacet
facet normal -0.1306588054 0.2079792917 -0.9693673253
outer loop
vertex 39.76006317 27.39461517 327.2156372
vertex 40.78995514 27.76340485 327.1559448
vertex 40.70015717 27.20929718 327.0491638

endloop
endfacet
facet normal -0.1116409972 0.2881728709 -0.9510481954
outer loop
vertex 39.76007843 27.39463043 327.2156372
vertex 40.70014191 27.20931244 327.0491333
vertex 39.63866425 26.86586761 327.0696716

endloop
endfacet
facet normal -0.1001605988 0.2520041168 -0.9625287652
outer loop
vertex 39.63866425 26.86586761 327.0696716
vertex 40.70014191 27.20931244 327.0491333
vertex 40.5750351 26.65242767 326.9163513

endloop
endfacet
facet normal -0.08096223325 0.3223172724 -0.9431631565
outer loop
vertex 39.63866425 26.86586761 327.0696716
vertex 40.5750351 26.65242767 326.9163513
vertex 39.48358917 26.36058807 326.9103088

endloop
endfacet
facet normal -0.07863773406 0.3136881292 -0.9462640882
outer loop
vertex 39.48358917 26.36058807 326.9103088
vertex 40.5750351 26.65242767 326.9163513
vertex 40.40683746 26.10301971 326.7481995

endloop
endfacet
facet normal -0.05751551688 0.3759297431 -0.9248614311
outer loop
vertex 39.48360443 26.36061859 326.9103394
vertex 40.40685272 26.10305023 326.74823
vertex 39.29235077 25.87615204 326.7253113

endloop
endfacet
facet normal -0.05813877657 0.3788660765 -0.9236235023
outer loop
vertex 39.29235077 25.87615204 326.7253113
vertex 40.40685272 26.10305023 326.74823
vertex 40.1974411 25.57222748 326.5436707

endloop
endfacet
facet normal -0.04340733215 0.4141108096 -0.9091908932
outer loop
vertex 39.29235077 25.87615204 326.7253113
vertex 40.1974411 25.57222748 326.5436707
vertex 39.05998993 25.40549469 326.5220337

endloop
endfacet
facet normal -0.04715883359 0.4382042587 -0.8976375461
outer loop
vertex 39.05998993 25.40549469 326.5220337
vertex 40.1974411 25.57222748 326.5436707
vertex 39.9449234 25.06501007 326.3093262

endloop
endfacet
facet normal -0.0506240055 0.4311966598 -0.9008366466
outer loop
vertex 39.05998993 25.40549469 326.5220337
vertex 39.9449234 25.06501007 326.3093262
vertex 38.78534698 24.93779755 326.3135986

endloop
endfacet
facet normal -0.0560602881 0.4816316962 -0.874578774
outer loop
vertex 38.78534698 24.93779755 326.3135986
vertex 39.9449234 25.06501007 326.3093262
vertex 39.64989471 24.57509613 326.0584412

endloop
endfacet
facet normal -0.08393851668 0.4317221045 -0.8980926871
outer loop
vertex 38.78534698 24.93779755 326.3135986
vertex 39.64989471 24.57509613 326.0584412
vertex 38.47232819 24.46619415 326.1161499

endloop
endfacet
facet normal -0.08900793642 0.5086541772 -0.8563576937
outer loop
vertex 38.47232819 24.46619415 326.1161499
vertex 39.64989471 24.57509613 326.0584412
vertex 39.31391144 24.09299469 325.8070068

endloop
endfacet
facet normal -0.1442783177 0.4177745283 -0.8970218301
outer loop
vertex 38.4723587 24.46622467 326.1162109
vertex 39.31394196 24.09302521 325.8070374
vertex 38.12657928 23.99277496 325.9513245

endloop
endfacet
facet normal -0.1462348849 0.5276748538 -0.836764276
outer loop
vertex 38.12657928 23.99277496 325.9513245
vertex 39.31394196 24.09302521 325.8070374
vertex 38.93701935 23.61603546 325.572113

endloop
endfacet
facet normal -0.2214230299 0.4129159451 -0.8834434152
outer loop
vertex 38.12657928 23.99277496 325.9513245
vertex 38.93701935 23.61603546 325.572113
vertex 37.7614212 23.51894379 325.8213806

endloop
endfacet
facet normal -0.2175363451 0.5304378867 -0.8193372488
outer loop
vertex 37.7614212 23.51894379 325.8213806
vertex 38.93701935 23.61603546 325.572113
vertex 38.53447723 23.14105988 325.3714905

endloop
endfacet
facet normal -0.2957955301 0.4176772833 -0.8590986729
outer loop
vertex 37.7614212 23.51894379 325.8213806
vertex 38.53447723 23.14105988 325.3714905
vertex 37.38275909 23.04125214 325.7195129

endloop
endfacet
facet normal -0.2865475118 0.5348090529 -0.7949023247
outer loop
vertex 37.38275909 23.04125214 325.7195129
vertex 38.53447723 23.14105988 325.3714905
vertex 38.1115036 22.66191864 325.2015991

endloop
endfacet
facet normal -0.3839375377 0.3991927803 -0.8326086998
outer loop
vertex 37.38275909 23.04125214 325.7195129
vertex 38.1115036 22.66191864 325.2015991
vertex 37.00470734 22.58713531 325.6761169

endloop
endfacet
facet normal -0.3610238135 0.5459643006 -0.7560322881
outer loop
vertex 37.00470734 22.58713531 325.6761169
vertex 38.1115036 22.66191864 325.2015991
vertex 37.66733551 22.20178986 325.0814209

endloop
endfacet
facet normal -0.5005663633 0.3566257656 -0.7888290882
outer loop
vertex 37.00470734 22.58713531 325.6761169
vertex 37.66733551 22.20178986 325.0814209
vertex 36.72052765 22.17009735 325.6679077

endloop
endfacet
facet normal -0.4717121422 0.4867721796 -0.7352146506
outer loop
vertex 36.72052765 22.17009735 325.6679077
vertex 37.66733551 22.20178986 325.0814209
vertex 37.28540802 21.7975235 325.0588074

endloop
endfacet
facet normal -0.5375743508 0.3991743326 -0.7427473664
outer loop
vertex 36.72052765 22.17011261 325.6679077
vertex 37.28539276 21.7975235 325.0588379
vertex 36.49770355 21.81273651 325.6371155

endloop
endfacet
facet normal -0.4963645935 0.5268393159 -0.6899728179
outer loop
vertex 36.49770355 21.81273651 325.6371155
vertex 37.28539276 21.7975235 325.0588379
vertex 36.92818451 21.51621246 325.1010132

endloop
endfacet
facet normal -0.8027841449 -0.4421268106 -0.4000767469
outer loop
vertex 36.49770355 21.81273651 325.6371155
vertex 36.92818451 21.51621246 325.1010132
vertex 36.8456955 21.10805511 325.7175903

endloop
endfacet
facet normal -nan(ind) -nan(ind) -nan(ind)
outer loop
vertex 36.8456955 21.10805511 325.7175903
vertex 36.92818451 21.51621246 325.1010132
vertex 36.8456955 21.10805511 325.7175903

endloop
endfacet
facet normal 0.4411920011 -0.8712681532 0.2150380909
outer loop
vertex 41.22409821 30.24947357 328.4828796
vertex 41.22408295 30.24945831 328.4828491
vertex 41.35875702 30.13617706 327.7475586

endloop
endfacet
facet normal 0.3112791479 0.9461646676 -0.08875605464
outer loop
vertex 41.35875702 30.13617706 327.7475586
vertex 41.22408295 30.24945831 328.4828491
vertex 41.68195343 30.04187775 327.8757935

endloop
endfacet
facet normal 0.4210027754 0.2620260715 -0.868388772
outer loop
vertex 41.35875702 30.13617706 327.7475586
vertex 41.68195343 30.04187775 327.8757935
vertex 41.26128387 29.76625824 327.5886841

endloop
endfacet
facet normal 0.3871421218 0.3126641214 -0.8673880696
outer loop
vertex 41.26128387 29.76625824 327.5886841
vertex 41.68195343 30.04187775 327.8757935
vertex 41.62502289 29.63936615 327.7052917

endloop
endfacet
facet normal 0.3541644216 0.1701817513 -0.919568181
outer loop
vertex 41.26128387 29.76625824 327.5886841
vertex 41.62502289 29.63936615 327.7052917
vertex 41.08156586 29.33341217 327.4393616

endloop
endfacet
facet normal 0.3182324469 0.2333729565 -0.9188390374
outer loop
vertex 41.08156586 29.33341217 327.4393616
vertex 41.62502289 29.63936615 327.7052917
vertex 41.47634125 29.18871307 327.5393372

endloop
endfacet
facet normal 0.2819676101 0.1108303443 -0.9530009627
outer loop
vertex 41.08156586 29.33341217 327.4393616
vertex 41.47634125 29.18871307 327.5393372
vertex 40.96825409 28.82868195 327.3471375

endloop
endfacet
facet normal 0.3116400242 0.06622700393 -0.9478895068
outer loop
vertex 40.96825409 28.82868195 327.3471375
vertex 41.47634125 29.18871307 327.5393372
vertex 41.35996246 28.69242096 327.4664001

endloop
endfacet
facet normal 0.3255001605 0.1141813993 -0.9386225343
outer loop
vertex 40.96825409 28.82868195 327.3471375
vertex 41.35996246 28.69242096 327.4664001
vertex 40.88625336 28.30181122 327.2546082

endloop
endfacet
facet normal 0.370487839 0.05348171294 -0.9272962809
outer loop
vertex 40.88625336 28.30181122 327.2546082
vertex 41.35996246 28.69242096 327.4664001
vertex 41.2725296 28.17687225 327.4017334

endloop
endfacet
facet normal 0.3822304606 0.09997695684 -0.9186426997
outer loop
vertex 40.88625336 28.30181122 327.2546082
vertex 41.2725296 28.17687225 327.4017334
vertex 40.78995514 27.76340485 327.1559448

endloop
endfacet
facet normal 0.4098394513 0.06261913478 -0.9100057483
outer loop
vertex 40.78995514 27.76340485 327.1559448
vertex 41.2725296 28.17687225 327.4017334
vertex 41.17061615 27.64069366 327.3189392

endloop
endfacet
facet normal 0.4200014472 0.1056334451 -0.9013547301
outer loop
vertex 40.78995514 27.76340485 327.1559448
vertex 41.17061615 27.64069366 327.3189392
vertex 40.70015717 27.20929718 327.0491638

endloop
endfacet
facet normal 0.4526447952 0.06261436641 -0.8894897699
outer loop
vertex 40.70015717 27.20929718 327.0491638
vertex 41.17061615 27.64069366 327.3189392
vertex 41.07137299 27.08182526 327.2290955

endloop
endfacet
facet normal 0.4629464149 0.1058323681 -0.8800455928
outer loop
vertex 40.70014191 27.20931244 327.0491333
vertex 41.07138824 27.08182526 327.2290955
vertex 40.5750351 26.65242767 326.9163513

endloop
endfacet
facet normal 0.4768621325 0.08590457588 -0.8747701645
outer loop
vertex 40.5750351 26.65242767 326.9163513
vertex 41.07138824 27.08182526 327.2290955
vertex 40.93726349 26.50562286 327.0993958

endloop
endfacet
facet normal 0.4851998091 0.1166856587 -0.8665827513
outer loop
vertex 40.5750351 26.65242767 326.9163513
vertex 40.93726349 26.50562286 327.0993958
vertex 40.40683746 26.10301971 326.7481995

endloop
endfacet
facet normal 0.4882415235 0.1117544547 -0.8655236363
outer loop
vertex 40.40683746 26.10301971 326.7481995
vertex 40.93726349 26.50562286 327.0993958
vertex 40.75862885 25.92583466 326.9237671

endloop
endfacet
facet normal 0.4960075319 0.1348790228 -0.8577786088
outer loop
vertex 40.40685272 26.10305023 326.74823
vertex 40.75865936 25.92584991 326.9237976
vertex 40.1974411 25.57222748 326.5436707

endloop
endfacet
facet normal 0.4949212372 0.1369284689 -0.8580812812
outer loop
vertex 40.1974411 25.57222748 326.5436707
vertex 40.75865936 25.92584991 326.9237976
vertex 40.53762054 25.36313629 326.7065125

endloop
endfacet
facet normal 0.4988573492 0.1463215798 -0.8542430997
outer loop
vertex 40.1974411 25.57222748 326.5436707
vertex 40.53762054 25.36313629 326.7065125
vertex 39.9449234 25.06501007 326.3093262

endloop
endfacet
facet normal 0.4918585718 0.1618977338 -0.8554906249
outer loop
vertex 39.9449234 25.06501007 326.3093262
vertex 40.53762054 25.36313629 326.7065125
vertex 40.27637482 24.83078766 326.4555664

endloop
endfacet
facet normal 0.4853537679 0.1489137709 -0.8615429997
outer loop
vertex 39.9449234 25.06501007 326.3093262
vertex 40.27637482 24.83078766 326.4555664
vertex 39.64989471 24.57509613 326.0584412

endloop
endfacet
facet normal 0.4720594585 0.1828201413 -0.8624016047
outer loop
vertex 39.64989471 24.57509613 326.0584412
vertex 40.27637482 24.83078766 326.4555664
vertex 39.97829437 24.32556915 326.1853027

endloop
endfacet
facet normal 0.4506553113 0.1452995986 -0.8807938099
outer loop
vertex 39.64989471 24.57509613 326.0584412
vertex 39.97829437 24.32556915 326.1853027
vertex 39.31391144 24.09299469 325.8070068

endloop
endfacet
facet normal 0.4316254258 0.1983354837 -0.8799786568
outer loop
vertex 39.31391144 24.09299469 325.8070068
vertex 39.97829437 24.32556915 326.1853027
vertex 39.6445694 23.83620453 325.9113159

endloop
endfacet
facet normal 0.393242687 0.1370324492 -0.90916574
outer loop
vertex 39.31394196 24.09302521 325.8070374
vertex 39.64458466 23.83623505 325.9113464
vertex 38.93701935 23.61603546 325.572113

endloop
endfacet
facet normal 0.3675305843 0.2135018408 -0.9051730037
outer loop
vertex 38.93701935 23.61603546 325.572113
vertex 39.64458466 23.83623505 325.9113464
vertex 39.27344513 23.35686493 325.647583

endloop
endfacet
facet normal 0.3128171563 0.132170856 -0.9405722618
outer loop
vertex 38.93701935 23.61603546 325.572113
vertex 39.27344513 23.35686493 325.647583
vertex 38.53447723 23.14105988 325.3714905

endloop
endfacet
facet normal 0.2863824368 0.2141291499 -0.9338810444
outer loop
vertex 38.53447723 23.14105988 325.3714905
vertex 39.27344513 23.35686493 325.647583
vertex 38.87581635 22.8811264 325.4165649

endloop
endfacet
facet normal 0.2315654755 0.1370755732 -0.9631135464
outer loop
vertex 38.53447723 23.14105988 325.3714905
vertex 38.87581635 22.8811264 325.4165649
vertex 38.1115036 22.66191864 325.2015991

endloop
endfacet
facet normal 0.2053653002 0.2192948312 -0.9538002014
outer loop
vertex 38.1115036 22.66191864 325.2015991
vertex 38.87581635 22.8811264 325.4165649
vertex 38.45500946 22.40102386 325.2155762

endloop
endfacet
facet normal 0.1355533749 0.1258264631 -0.9827476144
outer loop
vertex 38.1115036 22.66191864 325.2015991
vertex 38.45500946 22.40102386 325.2155762
vertex 37.66733551 22.20178986 325.0814209

endloop
endfacet
facet normal 0.1076659784 0.2262215614 -0.9681074023
outer loop
vertex 37.66733551 22.20178986 325.0814209
vertex 38.45500946 22.40102386 325.2155762
vertex 38.00666046 21.93672943 325.0572205

endloop
endfacet
facet normal -0.01585282013 0.07076673955 -0.9973669648
outer loop
vertex 37.66733551 22.20178986 325.0814209
vertex 38.00666046 21.93672943 325.0572205
vertex 37.28540802 21.7975235 325.0588074

endloop
endfacet
facet normal -0.03201510012 0.1546195745 -0.9874551892
outer loop
vertex 37.28540802 21.7975235 325.0588074
vertex 38.00666046 21.93672943 325.0572205
vertex 37.5943222 21.54068756 325.0085754

endloop
endfacet
facet normal -0.1383325309 0.02722785622 -0.9900114536
outer loop
vertex 37.28539276 21.7975235 325.0588379
vertex 37.59433746 21.54068756 325.008606
vertex 36.92818451 21.51621246 325.1010132

endloop
endfacet
facet normal -0.1412035972 0.1468243003 -0.9790322781
outer loop
vertex 36.92818451 21.51621246 325.1010132
vertex 37.59433746 21.54068756 325.008606
vertex 37.19510651 21.28351593 325.0276184

endloop
endfacet
facet normal -0.6480165124 -0.5923128724 -0.4787901938
outer loop
vertex 36.92818451 21.51621246 325.1010132
vertex 37.19510651 21.28351593 325.0276184
vertex 36.8456955 21.10805511 325.7175903

endloop
endfacet
facet normal -0.6959070563 0.6963995695 -0.1753311455
outer loop
vertex 36.8456955 21.10805511 325.7175903
vertex 37.19510651 21.28351593 325.0276184
vertex 36.84568024 21.10803986 325.7175903

endloop
endfacet
facet normal -0.1415087283 0.8991250396 -0.4141853452
outer loop
vertex 41.22408295 30.24945831 328.4828491
vertex 41.22409821 30.24948883 328.4829102
vertex 41.68195343 30.04187775 327.8757935

endloop
endfacet
facet normal 0.4186703563 0.9081234336 0.005194927566
outer loop
vertex 41.68195343 30.04187775 327.8757935
vertex 41.22409821 30.24948883 328.4829102
vertex 41.8613205 29.9578476 328.1094971

endloop
endfacet
facet normal 0.8085123897 0.1288712174 -0.5741949677
outer loop
vertex 41.68195343 30.04187775 327.8757935
vertex 41.8613205 29.9578476 328.1094971
vertex 41.62502289 29.63936615 327.7052917

endloop
endfacet
facet normal 0.7876167297 0.1680099219 -0.5928175449
outer loop
vertex 41.62502289 29.63936615 327.7052917
vertex 41.8613205 29.9578476 328.1094971
vertex 41.8322525 29.53148651 327.9500427

endloop
endfacet
facet normal 0.7605444193 -0.01186053269 -0.6491775513
outer loop
vertex 41.62502289 29.63936615 327.7052917
vertex 41.8322525 29.53148651 327.9500427
vertex 41.47634125 29.18871307 327.5393372

endloop
endfacet
facet normal 0.7350723147 0.04714263976 -0.6763477325
outer loop
vertex 41.47634125 29.18871307 327.5393372
vertex 41.8322525 29.53148651 327.9500427
vertex 41.71178436 29.06574249 327.7866516

endloop
endfacet
facet normal 0.707205534 -0.06233726814 -0.704254508
outer loop
vertex 41.47634125 29.18871307 327.5393372
vertex 41.71178436 29.06574249 327.7866516
vertex 41.35996246 28.69242096 327.4664001

endloop
endfacet
facet normal 0.7266743779 -0.1020390093 -0.679361701
outer loop
vertex 41.35996246 28.69242096 327.4664001
vertex 41.71178436 29.06574249 327.7866516
vertex 41.58570099 28.57663727 327.7252502

endloop
endfacet
facet normal 0.7435199022 -0.0423849076 -0.6673691869
outer loop
vertex 41.35996246 28.69242096 327.4664001
vertex 41.58570099 28.57663727 327.7252502
vertex 41.2725296 28.17687225 327.4017334

endloop
endfacet
facet normal 0.7718562484 -0.09603721648 -0.6285019517
outer loop
vertex 41.2725296 28.17687225 327.4017334
vertex 41.58570099 28.57663727 327.7252502
vertex 41.4834671 28.07073212 327.677002

endloop
endfacet
facet normal 0.7826619744 -0.05299713463 -0.6201866865
outer loop
vertex 41.2725296 28.17687225 327.4017334
vertex 41.4834671 28.07073212 327.677002
vertex 41.17061615 27.64069366 327.3189392

endloop
endfacet
facet normal 0.7991089225 -0.08592107147 -0.595014751
outer loop
vertex 41.17061615 27.64069366 327.3189392
vertex 41.4834671 28.07073212 327.677002
vertex 41.37082672 27.53646088 327.6028748

endloop
endfacet
facet normal 0.8077206016 -0.04898309708 -0.5875271559
outer loop
vertex 41.17061615 27.64069366 327.3189392
vertex 41.37082672 27.53646088 327.6028748
vertex 41.07137299 27.08182526 327.2290955

endloop
endfacet
facet normal 0.8263807893 -0.08689206839 -0.5563673377
outer loop
vertex 41.07137299 27.08182526 327.2290955
vertex 41.37082672 27.53646088 327.6028748
vertex 41.25673676 26.97353363 327.5213318

endloop
endfacet
facet normal 0.8306762576 -0.06900347024 -0.5524631143
outer loop
vertex 41.07138824 27.08182526 327.2290955
vertex 41.25675201 26.97353363 327.5213318
vertex 40.93726349 26.50562286 327.0993958

endloop
endfacet
facet normal 0.8382238746 -0.086872302 -0.5383622646
outer loop
vertex 40.93726349 26.50562286 327.0993958
vertex 41.25675201 26.97353363 327.5213318
vertex 41.11193085 26.38088226 327.3914795

endloop
endfacet
facet normal 0.8362508416 -0.09400616586 -0.5402290225
outer loop
vertex 40.93726349 26.50562286 327.0993958
vertex 41.11193085 26.38088226 327.3914795
vertex 40.75862885 25.92583466 326.9237671

endloop
endfacet
facet normal 0.8377280831 -0.09830014408 -0.5371672511
outer loop
vertex 40.75862885 25.92583466 326.9237671
vertex 41.11193085 26.38088226 327.3914795
vertex 40.92371368 25.77529144 327.2087708

endloop
endfacet
facet normal 0.8313885331 -0.116796121 -0.5432786345
outer loop
vertex 40.75865936 25.92584991 326.9237976
vertex 40.92372894 25.7753067 327.2087708
vertex 40.53762054 25.36313629 326.7065125

endloop
endfacet
facet normal 0.8306991458 -0.1141940132 -0.5448840261
outer loop
vertex 40.53762054 25.36313629 326.7065125
vertex 40.92372894 25.7753067 327.2087708
vertex 40.69326019 25.18550873 326.9810181

endloop
endfacet
facet normal 0.8195850253 -0.1403435618 -0.555503428
outer loop
vertex 40.53762054 25.36313629 326.7065125
vertex 40.69326019 25.18550873 326.9810181
vertex 40.27637482 24.83078766 326.4555664

endloop
endfacet
facet normal 0.8166433573 -0.1251856387 -0.5634023547
outer loop
vertex 40.27637482 24.83078766 326.4555664
vertex 40.69326019 25.18550873 326.9810181
vertex 40.42708588 24.63181305 326.7182312

endloop
endfacet
facet normal 0.7985476255 -0.1608561873 -0.5800405741
outer loop
vertex 40.27637482 24.83078766 326.4555664
vertex 40.42708588 24.63181305 326.7182312
vertex 39.97829437 24.32556915 326.1853027

endloop
endfacet
facet normal 0.7937896252 -0.1289593428 -0.5943630934
outer loop
vertex 39.97829437 24.32556915 326.1853027
vertex 40.42708588 24.63181305 326.7182312
vertex 40.13166046 24.11356354 326.4361267

endloop
endfacet
facet normal 0.7662316561 -0.1766348928 -0.6178099513
outer loop
vertex 39.97829437 24.32556915 326.1853027
vertex 40.13166046 24.11356354 326.4361267
vertex 39.6445694 23.83620453 325.9113159

endloop
endfacet
facet normal 0.7596164346 -0.1271546036 -0.6378201842
outer loop
vertex 39.6445694 23.83620453 325.9113159
vertex 40.13166046 24.11356354 326.4361267
vertex 39.80828094 23.61804962 326.1497803

endloop
endfacet
facet normal 0.7197357416 -0.1897919625 -0.6678020358
outer loop
vertex 39.64458466 23.83623505 325.9113464
vertex 39.80831146 23.61806488 326.1498108
vertex 39.27344513 23.35686493 325.647583

endloop
endfacet
facet normal 0.7098165751 -0.1184106395 -0.6943625212
outer loop
vertex 39.27344513 23.35686493 325.647583
vertex 39.80831146 23.61806488 326.1498108
vertex 39.45493317 23.13663483 325.8706665

endloop
endfacet
facet normal 0.657143414 -0.1957845688 -0.7278948426
outer loop
vertex 39.27344513 23.35686493 325.647583
vertex 39.45493317 23.13663483 325.8706665
vertex 38.87581635 22.8811264 325.4165649

endloop
endfacet
facet normal 0.6447761059 -0.119681038 -0.7549438477
outer loop
vertex 38.87581635 22.8811264 325.4165649
vertex 39.45493317 23.13663483 325.8706665
vertex 39.07590485 22.66027069 325.622467

endloop
endfacet
facet normal 0.5927683711 -0.19213368 -0.7821190953
outer loop
vertex 38.87581635 22.8811264 325.4165649
vertex 39.07590485 22.66027069 325.622467
vertex 38.45500946 22.40102386 325.2155762

endloop
endfacet
facet normal 0.5776882768 -0.1152762398 -0.8080765605
outer loop
vertex 38.45500946 22.40102386 325.2155762
vertex 39.07590485 22.66027069 325.622467
vertex 38.67232513 22.17934418 325.4025574

endloop
endfacet
facet normal 0.5087814331 -0.2062343955 -0.8358281851
outer loop
vertex 38.45500946 22.40102386 325.2155762
vertex 38.67232513 22.17934418 325.4025574
vertex 38.00666046 21.93672943 325.0572205

endloop
endfacet
facet normal 0.4896163642 -0.1126550213 -0.8646298051
outer loop
vertex 38.00666046 21.93672943 325.0572205
vertex 38.67232513 22.17934418 325.4025574
vertex 38.2399826 21.7115097 325.218689

endloop
endfacet
facet normal 0.3612756729 -0.2663824856 -0.8935996294
outer loop
vertex 38.00666046 21.93672943 325.0572205
vertex 38.2399826 21.7115097 325.218689
vertex 37.5943222 21.54068756 325.0085754

endloop
endfacet
facet normal 0.3496031463 -0.1939761043 -0.9165974259
outer loop
vertex 37.5943222 21.54068756 325.0085754
vertex 38.2399826 21.7115097 325.218689
vertex 37.81911469 21.32228851 325.1405334

endloop
endfacet
facet normal 0.1877767146 -0.3590901494 -0.9142177701
outer loop
vertex 37.59433746 21.54068756 325.008606
vertex 37.81911469 21.32227325 325.140564
vertex 37.19510651 21.28351593 325.0276184

endloop
endfacet
facet normal 0.1873484105 -0.2421558499 -0.9519774914
outer loop
vertex 37.19510651 21.28351593 325.0276184
vertex 37.81911469 21.32227325 325.140564
vertex 37.40119171 21.07572174 325.1210327

endloop
endfacet
facet normal -0.524898231 -0.7227134109 -0.4496300817
outer loop
vertex 37.19510651 21.28351593 325.0276184
vertex 37.40119171 21.07572174 325.1210327
vertex 36.84568024 21.10803986 325.7175903

endloop
endfacet
facet normal 0.4000051916 -0.816280663 0.4167514145
outer loop
vertex 36.84568024 21.10803986 325.7175903
vertex 37.40119171 21.07572174 325.1210327
vertex 36.84571075 21.10807037 325.7176208

endloop
endfacet
facet normal -0.5244101882 -0.8100879192 -0.2622050941
outer loop
vertex 41.22409821 30.24948883 328.4829102
vertex 41.22411346 30.24948883 328.4828796
vertex 41.8613205 29.9578476 328.1094971

endloop
endfacet
facet normal 0.4694634974 0.8750753999 0.1176739633
outer loop
vertex 41.8613205 29.9578476 328.1094971
vertex 41.22411346 30.24948883 328.4828796
vertex 41.92153168 29.88286591 328.4268799

endloop
endfacet
facet normal 0.9825814962 0.002503573429 -0.1858155727
outer loop
vertex 41.8613205 29.9578476 328.1094971
vertex 41.92153168 29.88286591 328.4268799
vertex 41.8322525 29.53148651 327.9500427

endloop
endfacet
facet normal 0.9714426398 0.06344237924 -0.2286355942
outer loop
vertex 41.8322525 29.53148651 327.9500427
vertex 41.92153168 29.88286591 328.4268799
vertex 41.91820526 29.4391098 328.2896118

endloop
endfacet
facet normal 0.9486245513 -0.1470928639 -0.2801340222
outer loop
vertex 41.8322525 29.53148651 327.9500427
vertex 41.91820526 29.4391098 328.2896118
vertex 41.71178436 29.06574249 327.7866516

endloop
endfacet
facet normal 0.9427600503 -0.08787851036 -0.3216843307
outer loop
vertex 41.71178436 29.06574249 327.7866516
vertex 41.91820526 29.4391098 328.2896118
vertex 41.82370758 28.9605484 328.1434021

endloop
endfacet
facet normal 0.918397367 -0.1934170723 -0.3451609313
outer loop
vertex 41.71178436 29.06574249 327.7866516
vertex 41.82370758 28.9605484 328.1434021
vertex 41.58570099 28.57663727 327.7252502

endloop
endfacet
facet normal 0.9215161204 -0.2325230688 -0.3110322356
outer loop
vertex 41.58570099 28.57663727 327.7252502
vertex 41.82370758 28.9605484 328.1434021
vertex 41.68296051 28.47757721 328.0874634

endloop
endfacet
facet normal 0.9410741925 -0.1618525386 -0.2969565094
outer loop
vertex 41.58570099 28.57663727 327.7252502
vertex 41.68296051 28.47757721 328.0874634
vertex 41.4834671 28.07073212 327.677002

endloop
endfacet
facet normal 0.9450759292 -0.2153306901 -0.2458944321
outer loop
vertex 41.4834671 28.07073212 327.677002
vertex 41.68296051 28.47757721 328.0874634
vertex 41.55893707 27.97994232 328.0465698

endloop
endfacet
facet normal 0.9567582011 -0.1688500643 -0.2368614376
outer loop
vertex 41.4834671 28.07073212 327.677002
vertex 41.55893707 27.97994232 328.0465698
vertex 41.37082672 27.53646088 327.6028748

endloop
endfacet
facet normal 0.9578604102 -0.2012974769 -0.2048969269
outer loop
vertex 41.37082672 27.53646088 327.6028748
vertex 41.55893707 27.97994232 328.0465698
vertex 41.43180084 27.44728851 327.9755249

endloop
endfacet
facet normal 0.9658561349 -0.1670691818 -0.1980146319
outer loop
vertex 41.37082672 27.53646088 327.6028748
vertex 41.43180084 27.44728851 327.9755249
vertex 41.25673676 26.97353363 327.5213318

endloop
endfacet
facet normal 0.965882957 -0.2041675448 -0.1593288183
outer loop
vertex 41.25673676 26.97353363 327.5213318
vertex 41.43180084 27.44728851 327.9755249
vertex 41.29891205 26.880867 327.895752

endloop
endfacet
facet normal 0.96656847 -0.201430276 -0.1586544961
outer loop
vertex 41.25675201 26.97353363 327.5213318
vertex 41.29889679 26.88088226 327.8957214
vertex 41.11193085 26.38088226 327.3914795

endloop
endfacet
facet normal 0.9655481577 -0.2184662819 -0.141383484
outer loop
vertex 41.11193085 26.38088226 327.3914795
vertex 41.29889679 26.88088226 327.8957214
vertex 41.14220428 26.27414703 327.7631531

endloop
endfacet
facet normal 0.9560474753 -0.2518261075 -0.1501897424
outer loop
vertex 41.11193085 26.38088226 327.3914795
vertex 41.14220428 26.27414703 327.7631531
vertex 40.92371368 25.77529144 327.2087708

endloop
endfacet
facet normal 0.955586791 -0.2557106912 -0.1465126723
outer loop
vertex 40.92371368 25.77529144 327.2087708
vertex 41.14220428 26.27414703 327.7631531
vertex 40.94521332 25.646492 327.5737915

endloop
endfacet
facet normal 0.9386928082 -0.3040448725 -0.1625197381
outer loop
vertex 40.92372894 25.7753067 327.2087708
vertex 40.94521332 25.64650726 327.573822
vertex 40.69326019 25.18550873 326.9810181

endloop
endfacet
facet normal 0.93915838 -0.3013679683 -0.1647993624
outer loop
vertex 40.69326019 25.18550873 326.9810181
vertex 40.94521332 25.64650726 327.573822
vertex 40.70703888 25.03354645 327.3374329

endloop
endfacet
facet normal 0.9171069264 -0.352681011 -0.1858249009
outer loop
vertex 40.69326019 25.18550873 326.9810181
vertex 40.70703888 25.03354645 327.3374329
vertex 40.42708588 24.63181305 326.7182312

endloop
endfacet
facet normal 0.9202228785 -0.3385500014 -0.1964018196
outer loop
vertex 40.42708588 24.63181305 326.7182312
vertex 40.70703888 25.03354645 327.3374329
vertex 40.43878937 24.461586 327.0664978

endloop
endfacet
facet normal 0.8941616416 -0.3896763623 -0.2205157429
outer loop
vertex 40.42708588 24.63181305 326.7182312
vertex 40.43878937 24.461586 327.0664978
vertex 40.13166046 24.11356354 326.4361267

endloop
endfacet
facet normal 0.9013066888 -0.3605782092 -0.2400617599
outer loop
vertex 40.13166046 24.11356354 326.4361267
vertex 40.43878937 24.461586 327.0664978
vertex 40.15027618 23.93221283 326.7784119

endloop
endfacet
facet normal 0.8703788519 -0.413931936 -0.2666477859
outer loop
vertex 40.13166046 24.11356354 326.4361267
vertex 40.15027618 23.93221283 326.7784119
vertex 39.80828094 23.61804962 326.1497803

endloop
endfacet
facet normal 0.8814294338 -0.3686122894 -0.2953085005
outer loop
vertex 39.80828094 23.61804962 326.1497803
vertex 40.15027618 23.93221283 326.7784119
vertex 39.84343719 23.43141937 326.4876709

endloop
endfacet
facet normal 0.8423679471 -0.4298609495 -0.3250168264
outer loop
vertex 39.80831146 23.61806488 326.1498108
vertex 39.84345245 23.43144989 326.4877014
vertex 39.45493317 23.13663483 325.8706665

endloop
endfacet
facet normal 0.8566403985 -0.3642688096 -0.3653430045
outer loop
vertex 39.45493317 23.13663483 325.8706665
vertex 39.84345245 23.43144989 326.4877014
vertex 39.51677704 22.94826508 326.2034912

endloop
endfacet
facet normal 0.8077589869 -0.4359495044 -0.3968294263
outer loop
vertex 39.45493317 23.13663483 325.8706665
vertex 39.51677704 22.94826508 326.2034912
vertex 39.07590485 22.66027069 325.622467

endloop
endfacet
facet normal 0.819675386 -0.3663315177 -0.4403786957
outer loop
vertex 39.07590485 22.66027069 325.622467
vertex 39.51677704 22.94826508 326.2034912
vertex 39.16655731 22.47133636 325.9483643

endloop
endfacet
facet normal 0.7710425854 -0.4339332581 -0.4660420418
outer loop
vertex 39.07590485 22.66027069 325.622467
vertex 39.16655731 22.47133636 325.9483643
vertex 38.67232513 22.17934418 325.4025574

endloop
endfacet
facet normal 0.7790194154 -0.3631204367 -0.5111480951
outer loop
vertex 38.67232513 22.17934418 325.4025574
vertex 39.16655731 22.47133636 325.9483643
vertex 38.79151154 21.98969269 325.7189331

endloop
endfacet
facet normal 0.7139444947 -0.4484270811 -0.5377698541
outer loop
vertex 38.67232513 22.17934418 325.4025574
vertex 38.79151154 21.98969269 325.7189331
vertex 38.2399826 21.7115097 325.218689

endloop
endfacet
facet normal 0.7198061347 -0.3623460531 -0.5921016932
outer loop
vertex 38.2399826 21.7115097 325.218689
vertex 38.79151154 21.98969269 325.7189331
vertex 38.39032745 21.51882172 325.5193787

endloop
endfacet
facet normal 0.590036571 -0.5127877593 -0.6236229539
outer loop
vertex 38.2399826 21.7115097 325.218689
vertex 38.39032745 21.51882172 325.5193787
vertex 37.81911469 21.32228851 325.1405334

endloop
endfacet
facet normal 0.5958639383 -0.4511599839 -0.6643799543
outer loop
vertex 37.81911469 21.32228851 325.1405334
vertex 38.39032745 21.51882172 325.5193787
vertex 37.97753143 21.13527679 325.4096069

endloop
endfacet
facet normal 0.4001490176 -0.625199914 -0.6700789332
outer loop
vertex 37.81911469 21.32227325 325.140564
vertex 37.97753143 21.13527679 325.4096375
vertex 37.40119171 21.07572174 325.1210327

endloop
endfacet
facet normal 0.4199517667 -0.5440958142 -0.7263609767
outer loop
vertex 37.40119171 21.07572174 325.1210327
vertex 37.97753143 21.13527679 325.4096375
vertex 37.55582428 20.89000702 325.3495483

endloop
endfacet
facet normal -0.4415425956 -0.8188764453 -0.3667169511
outer loop
vertex 37.40119171 21.07572174 325.1210327
vertex 37.55582428 20.89000702 325.3495483
vertex 36.84571075 21.10807037 325.7176208

endloop
endfacet
facet normal 0.04297338426 0.893846333 -0.4463092685
outer loop
vertex 36.84571075 21.10807037 325.7176208
vertex 37.55582428 20.89000702 325.3495483
vertex 36.84571075 21.10805511 325.7175903

endloop
endfacet
facet normal 0.05248414353 -0.05248414353 0.9972416162
outer loop
vertex 41.22411346 30.24948883 328.4828796
vertex 41.22409821 30.24947357 328.4828796
vertex 41.92153168 29.88286591 328.4268799

endloop
endfacet
facet normal 0.4663102925 0.849311173 0.2474374473
outer loop
vertex 41.92153168 29.88286591 328.4268799
vertex 41.22409821 30.24947357 328.4828796
vertex 41.82624054 29.83734894 328.7626953

endloop
endfacet
facet normal 0.9613603354 -0.0879053697 0.2608811855
outer loop
vertex 41.92153168 29.88286591 328.4268799
vertex 41.82624054 29.83734894 328.7626953
vertex 41.91820526 29.4391098 328.2896118

endloop
endfacet
facet normal 0.9830206037 0.009307138622 0.1832588613
outer loop
vertex 41.91820526 29.4391098 328.2896118
vertex 41.82624054 29.83734894 328.7626953
vertex 41.85167694 29.38608551 328.6491699

endloop
endfacet
facet normal 0.9616603851 -0.2337232381 0.1434667856
outer loop
vertex 41.91820526 29.4391098 328.2896118
vertex 41.85167694 29.38608551 328.6491699
vertex 41.82370758 28.9605484 328.1434021

endloop
endfacet
facet normal 0.9791775942 -0.1787432879 0.09623969346
outer loop
vertex 41.82370758 28.9605484 328.1434021
vertex 41.85167694 29.38608551 328.6491699
vertex 41.77454376 28.90023041 328.5315857

endloop
endfacet
facet normal 0.9548544288 -0.2871026397 0.07632171363
outer loop
vertex 41.82370758 28.9605484 328.1434021
vertex 41.77454376 28.90023041 328.5315857
vertex 41.68296051 28.47757721 328.0874634

endloop
endfacet
facet normal 0.9400891066 -0.3218541145 0.1124380678
outer loop
vertex 41.68296051 28.47757721 328.0874634
vertex 41.77454376 28.90023041 328.5315857
vertex 41.61737823 28.42079926 328.4732666

endloop
endfacet
facet normal 0.9600414634 -0.2496585995 0.1264546216
outer loop
vertex 41.68296051 28.47757721 328.0874634
vertex 41.61737823 28.42079926 328.4732666
vertex 41.55893707 27.97994232 328.0465698

endloop
endfacet
facet normal 0.9375687242 -0.2979467511 0.1794231683
outer loop
vertex 41.55893707 27.97994232 328.0465698
vertex 41.61737823 28.42079926 328.4732666
vertex 41.46933746 27.92787933 328.4283142

endloop
endfacet
facet normal 0.9492716193 -0.2517151237 0.1884751469
outer loop
vertex 41.55893707 27.97994232 328.0465698
vertex 41.46933746 27.92787933 328.4283142
vertex 41.43180084 27.44728851 327.9755249

endloop
endfacet
facet normal 0.9340602756 -0.2808149755 0.2206227928
outer loop
vertex 41.43180084 27.44728851 327.9755249
vertex 41.46933746 27.92787933 328.4283142
vertex 41.32714081 27.39615631 328.3535461

endloop
endfacet
facet normal 0.9407421947 -0.2525788248 0.2262920588
outer loop
vertex 41.43180084 27.44728851 327.9755249
vertex 41.32714081 27.39615631 328.3535461
vertex 41.29891205 26.880867 327.895752

endloop
endfacet
facet normal 0.9212937355 -0.2852620482 0.2642792463
outer loop
vertex 41.29891205 26.880867 327.895752
vertex 41.32714081 27.39615631 328.3535461
vertex 41.17571259 26.8277359 328.2678833

endloop
endfacet
facet normal 0.9189778566 -0.2945965528 0.2620923817
outer loop
vertex 41.29889679 26.88088226 327.8957214
vertex 41.17572784 26.8277359 328.2678528
vertex 41.14220428 26.27414703 327.7631531

endloop
endfacet
facet normal 0.9092405438 -0.3091767728 0.2787317932
outer loop
vertex 41.14220428 26.27414703 327.7631531
vertex 41.17572784 26.8277359 328.2678528
vertex 41.00875092 26.21295929 328.1306152

endloop
endfacet
facet normal 0.8943608999 -0.3605771661 0.2647689581
outer loop
vertex 41.14220428 26.27414703 327.7631531
vertex 41.00875092 26.21295929 328.1306152
vertex 40.94521332 25.646492 327.5737915

endloop
endfacet
facet normal 0.892008841 -0.3637815416 0.2682971656
outer loop
vertex 40.94521332 25.646492 327.5737915
vertex 41.00875092 26.21295929 328.1306152
vertex 40.80594635 25.57259369 327.936615

endloop
endfacet
facet normal 0.8679867387 -0.4318293929 0.2451984435
outer loop
vertex 40.94521332 25.64650726 327.573822
vertex 40.80596161 25.57262421 327.9366455
vertex 40.70703888 25.03354645 327.3374329

endloop
endfacet
facet normal 0.869617641 -0.4297521114 0.2430603951
outer loop
vertex 40.70703888 25.03354645 327.3374329
vertex 40.80596161 25.57262421 327.9366455
vertex 40.56381989 24.94637299 327.6957092

endloop
endfacet
facet normal 0.8409391046 -0.4964224398 0.2153744698
outer loop
vertex 40.70703888 25.03354645 327.3374329
vertex 40.56381989 24.94637299 327.6957092
vertex 40.43878937 24.461586 327.0664978

endloop
endfacet
facet normal 0.8499438167 -0.485337317 0.2050443739
outer loop
vertex 40.43878937 24.461586 327.0664978
vertex 40.56381989 24.94637299 327.6957092
vertex 40.29714203 24.36397552 327.4226074

endloop
endfacet
facet normal 0.8203908801 -0.5436157584 0.1773150861
outer loop
vertex 40.43878937 24.461586 327.0664978
vertex 40.29714203 24.36397552 327.4226074
vertex 40.15027618 23.93221283 326.7784119

endloop
endfacet
facet normal 0.8390445709 -0.5207043886 0.1577063948
outer loop
vertex 40.15027618 23.93221283 326.7784119
vertex 40.29714203 24.36397552 327.4226074
vertex 40.01847076 23.8282547 327.1364136

endloop
endfacet
facet normal 0.8093336225 -0.5723791718 0.1317621619
outer loop
vertex 40.15027618 23.93221283 326.7784119
vertex 40.01847076 23.8282547 327.1364136
vertex 39.84343719 23.43141937 326.4876709

endloop
endfacet
facet normal 0.8378766179 -0.5362522006 0.1019622907
outer loop
vertex 39.84343719 23.43141937 326.4876709
vertex 40.01847076 23.8282547 327.1364136
vertex 39.73075104 23.32442474 326.8509521

endloop
endfacet
facet normal 0.8046799302 -0.5888088346 0.07612095773
outer loop
vertex 39.84345245 23.43144989 326.4877014
vertex 39.73078156 23.32444 326.8510132
vertex 39.51677704 22.94826508 326.2034912

endloop
endfacet
facet normal 0.8437908888 -0.5356968641 0.03233966976
outer loop
vertex 39.51677704 22.94826508 326.2034912
vertex 39.73078156 23.32444 326.8510132
vertex 39.43401337 22.84027863 326.5741577

endloop
endfacet
facet normal 0.8043432236 -0.594129324 0.006508484483
outer loop
vertex 39.51677704 22.94826508 326.2034912
vertex 39.43401337 22.84027863 326.5741577
vertex 39.16655731 22.47133636 325.9483643

endloop
endfacet
facet normal 0.8421471119 -0.5375292897 -0.0430175662
outer loop
vertex 39.16655731 22.47133636 325.9483643
vertex 39.43401337 22.84027863 326.5741577
vertex 39.11667633 22.36306 326.3248291

endloop
endfacet
facet normal 0.802028656 -0.5937911272 -0.06451484561
outer loop
vertex 39.16655731 22.47133636 325.9483643
vertex 39.11667633 22.36306 326.3248291
vertex 38.79151154 21.98969269 325.7189331

endloop
endfacet
facet normal 0.8357875943 -0.536195755 -0.1181238219
outer loop
vertex 38.79151154 21.98969269 325.7189331
vertex 39.11667633 22.36306 326.3248291
vertex 38.77539825 21.88098907 326.0983582

endloop
endfacet
facet normal 0.7822526097 -0.6068766117 -0.1406470686
outer loop
vertex 38.79151154 21.98969269 325.7189331
vertex 38.77539825 21.88098907 326.0983582
vertex 38.39032745 21.51882172 325.5193787

endloop
endfacet
facet normal 0.817779839 -0.5365194082 -0.2082859576
outer loop
vertex 38.39032745 21.51882172 325.5193787
vertex 38.77539825 21.88098907 326.0983582
vertex 38.4141922 21.40834808 325.897644

endloop
endfacet
facet normal 0.6942062974 -0.6779477596 -0.2417942733
outer loop
vertex 38.39032745 21.51882172 325.5193787
vertex 38.4141922 21.40834808 325.897644
vertex 37.97753143 21.13527679 325.4096069

endloop
endfacet
facet normal 0.7191520333 -0.6313599348 -0.2901811898
outer loop
vertex 37.97753143 21.13527679 325.4096069
vertex 38.4141922 21.40834808 325.897644
vertex 38.02544403 21.02794647 325.7618713

endloop
endfacet
facet normal 0.5104055405 -0.800789535 -0.3134043515
outer loop
vertex 37.97753143 21.13527679 325.4096375
vertex 38.02544403 21.02796173 325.7618713
vertex 37.55582428 20.89000702 325.3495483

endloop
endfacet
facet normal 0.5350347161 -0.7677764297 -0.3525015116
outer loop
vertex 37.55582428 20.89000702 325.3495483
vertex 38.02544403 21.02796173 325.7618713
vertex 37.61116791 20.77700043 325.6796875

endloop
endfacet
facet normal -0.3954881728 -0.8872574568 -0.237409547
outer loop
vertex 37.55582428 20.89000702 325.3495483
vertex 37.61116791 20.77700043 325.6796875
vertex 36.84571075 21.10805511 325.7175903

endloop
endfacet
facet normal 0 0.1142615303 -0.9934507608
outer loop
vertex 36.84571075 21.10805511 325.7175903
vertex 37.61116791 20.77700043 325.6796875
vertex 36.8456955 21.10805511 325.7175903

endloop
endfacet
facet normal -0 -0.5617208481 -0.8273268342
outer loop
vertex 41.22409821 30.24947357 328.4828796
vertex 41.22411346 30.24947357 328.4828796
vertex 41.82624054 29.83734894 328.7626953

endloop
endfacet
facet normal 0.4013571143 0.8377627134 0.3702245355
outer loop
vertex 41.82624054 29.83734894 328.7626953
vertex 41.22411346 30.24947357 328.4828796
vertex 41.58431244 29.8373642 329.0249329

endloop
endfacet
facet normal 0.728936851 -0.1280919462 0.6724904776
outer loop
vertex 41.82624054 29.83734894 328.7626953
vertex 41.58431244 29.8373642 329.0249329
vertex 41.85167694 29.38608551 328.6491699

endloop
endfacet
facet normal 0.8181344271 0.00593370758 0.5749964118
outer loop
vertex 41.85167694 29.38608551 328.6491699
vertex 41.58431244 29.8373642 329.0249329
vertex 41.63906097 29.38610077 328.9516907

endloop
endfacet
facet normal 0.7900472283 -0.2598095536 0.5552697182
outer loop
vertex 41.85167694 29.38608551 328.6491699
vertex 41.63906097 29.38610077 328.9516907
vertex 41.77454376 28.90023041 328.5315857

endloop
endfacet
facet normal 0.8321152925 -0.2113256752 0.512762785
outer loop
vertex 41.77454376 28.90023041 328.5315857
vertex 41.63906097 29.38610077 328.9516907
vertex 41.56661224 28.90023041 328.8690186

endloop
endfacet
facet normal 0.8053134084 -0.3243597746 0.4962469935
outer loop
vertex 41.77454376 28.90023041 328.5315857
vertex 41.56661224 28.90023041 328.8690186
vertex 41.61737823 28.42079926 328.4732666

endloop
endfacet
facet normal 0.7737401128 -0.3525463343 0.526343286
outer loop
vertex 41.61737823 28.42079926 328.4732666
vertex 41.56661224 28.90023041 328.8690186
vertex 41.39472198 28.420784 328.8005676

endloop
endfacet
facet normal 0.7920383811 -0.287012279 0.5387942791
outer loop
vertex 41.61737823 28.42079926 328.4732666
vertex 41.39472198 28.420784 328.8005676
vertex 41.46933746 27.92787933 328.4283142

endloop
endfacet
facet normal 0.7445682883 -0.3268634677 0.5820466876
outer loop
vertex 41.46933746 27.92787933 328.4283142
vertex 41.39472198 28.420784 328.8005676
vertex 41.22544098 27.92784882 328.7402954

endloop
endfacet
facet normal 0.7551755309 -0.2849645913 0.5903431177
outer loop
vertex 41.46933746 27.92787933 328.4283142
vertex 41.22544098 27.92784882 328.7402954
vertex 41.32714081 27.39615631 328.3535461

endloop
endfacet
facet normal 0.7250324488 -0.3090243042 0.6154932976
outer loop
vertex 41.32714081 27.39615631 328.3535461
vertex 41.22544098 27.92784882 328.7402954
vertex 41.07086945 27.39615631 328.655426

endloop
endfacet
facet normal 0.7300702333 -0.2878934443 0.61977005
outer loop
vertex 41.32714081 27.39615631 328.3535461
vertex 41.07086945 27.39615631 328.655426
vertex 41.17571259 26.8277359 328.2678833

endloop
endfacet
facet normal 0.6933940649 -0.314207226 0.6484431028
outer loop
vertex 41.17571259 26.8277359 328.2678833
vertex 41.07086945 27.39615631 328.655426
vertex 40.90518951 26.8277359 328.5571594

endloop
endfacet
facet normal 0.6892302036 -0.3310675025 0.6444811821
outer loop
vertex 41.17572784 26.8277359 328.2678528
vertex 40.90520477 26.8277359 328.5571594
vertex 41.00875092 26.21295929 328.1306152

endloop
endfacet
facet normal 0.6721386313 -0.3423154652 0.6565436721
outer loop
vertex 41.00875092 26.21295929 328.1306152
vertex 40.90520477 26.8277359 328.5571594
vertex 40.73188019 26.21295929 328.4140625

endloop
endfacet
facet normal 0.6552001238 -0.4013915956 0.639998138
outer loop
vertex 41.00875092 26.21295929 328.1306152
vertex 40.73188019 26.21295929 328.4140625
vertex 40.80594635 25.57259369 327.936615

endloop
endfacet
facet normal 0.6512482762 -0.4037473798 0.642544806
outer loop
vertex 40.80594635 25.57259369 327.936615
vertex 40.73188019 26.21295929 328.4140625
vertex 40.52770233 25.57259369 328.2186279

endloop
endfacet
facet normal 0.6249471307 -0.4788457751 0.6165612936
outer loop
vertex 40.80596161 25.57262421 327.9366455
vertex 40.52773285 25.57262421 328.2186584
vertex 40.56381989 24.94637299 327.6957092

endloop
endfacet
facet normal 0.62714082 -0.4776395857 0.6152681708
outer loop
vertex 40.56381989 24.94637299 327.6957092
vertex 40.52773285 25.57262421 328.2186584
vertex 40.28644562 24.94635773 327.9784241

endloop
endfacet
facet normal 0.5970711708 -0.5480767488 0.5857627988
outer loop
vertex 40.56381989 24.94637299 327.6957092
vertex 40.28644562 24.94635773 327.9784241
vertex 40.29714203 24.36397552 327.4226074

endloop
endfacet
facet normal 0.6106356382 -0.5408496261 0.5784511566
outer loop
vertex 40.29714203 24.36397552 327.4226074
vertex 40.28644562 24.94635773 327.9784241
vertex 40.02483368 24.36396027 327.7100525

endloop
endfacet
facet normal 0.5821710229 -0.5974478722 0.5514824986
outer loop
vertex 40.29714203 24.36397552 327.4226074
vertex 40.02483368 24.36396027 327.7100525
vertex 40.01847076 23.8282547 327.1364136

endloop
endfacet
facet normal 0.6101719737 -0.5824015737 0.5371205807
outer loop
vertex 40.01847076 23.8282547 327.1364136
vertex 40.02483368 24.36396027 327.7100525
vertex 39.75695038 23.8282547 327.4335022

endloop
endfacet
facet normal 0.5852666497 -0.6261271834 0.5151969194
outer loop
vertex 40.01847076 23.8282547 327.1364136
vertex 39.75695038 23.8282547 327.4335022
vertex 39.73075104 23.32442474 326.8509521

endloop
endfacet
facet normal 0.628734529 -0.6019296646 0.4923144281
outer loop
vertex 39.73075104 23.32442474 326.8509521
vertex 39.75695038 23.8282547 327.4335022
vertex 39.48693085 23.32444 327.1623535

endloop
endfacet
facet normal 0.6043165326 -0.6410036683 0.47319749
outer loop
vertex 39.73078156 23.32444 326.8510132
vertex 39.48696136 23.32445526 327.1624146
vertex 39.43401337 22.84027863 326.5741577

endloop
endfacet
facet normal 0.6657972336 -0.604387939 0.4375263751
outer loop
vertex 39.43401337 22.84027863 326.5741577
vertex 39.48696136 23.32445526 327.1624146
vertex 39.21695709 22.84029388 326.90448

endloop
endfacet
facet normal 0.6390678287 -0.6443775892 0.4199641347
outer loop
vertex 39.43401337 22.84027863 326.5741577
vertex 39.21695709 22.84029388 326.90448
vertex 39.11667633 22.36306 326.3248291

endloop
endfacet
facet normal 0.7015191317 -0.6049524546 0.3767007887
outer loop
vertex 39.11667633 22.36306 326.3248291
vertex 39.21695709 22.84029388 326.90448
vertex 38.92966461 22.36306 326.6730957

endloop
endfacet
facet normal 0.6726203561 -0.6458551288 0.3611827493
outer loop
vertex 39.11667633 22.36306 326.3248291
vertex 38.92966461 22.36306 326.6730957
vertex 38.77539825 21.88098907 326.0983582

endloop
endfacet
facet normal 0.7318355441 -0.6059564352 0.3118229806
outer loop
vertex 38.77539825 21.88098907 326.0983582
vertex 38.92966461 22.36306 326.6730957
vertex 38.62041473 21.88100433 326.4621277

endloop
endfacet
facet normal 0.6942260265 -0.6561644077 0.29580158
outer loop
vertex 38.77539825 21.88098907 326.0983582
vertex 38.62041473 21.88100433 326.4621277
vertex 38.4141922 21.40834808 325.897644

endloop
endfacet
facet normal 0.7608010769 -0.6068052649 0.2301500887
outer loop
vertex 38.4141922 21.40834808 325.897644
vertex 38.62041473 21.88100433 326.4621277
vertex 38.29979706 21.40833282 326.2757568

endloop
endfacet
facet normal 0.6498169899 -0.7342336774 0.1965675503
outer loop
vertex 38.4141922 21.40834808 325.897644
vertex 38.29979706 21.40833282 326.2757568
vertex 38.02544403 21.02794647 325.7618713

endloop
endfacet
facet normal 0.6938736439 -0.7041365504 0.1507681608
outer loop
vertex 38.02544403 21.02794647 325.7618713
vertex 38.29979706 21.40833282 326.2757568
vertex 37.9464798 21.02793121 326.1252136

endloop
endfacet
facet normal 0.4992423654 -0.8596469164 0.1084629446
outer loop
vertex 38.02544403 21.02796173 325.7618713
vertex 37.9464798 21.02794647 326.1252136
vertex 37.61116791 20.77700043 325.6796875

endloop
endfacet
facet normal 0.5053421855 -0.8568351269 0.1022883281
outer loop
vertex 37.61116791 20.77700043 325.6796875
vertex 37.9464798 21.02794647 326.1252136
vertex 37.54003143 20.77700043 326.0311279

endloop
endfacet
facet normal -0.3990206718 -0.9133778214 -0.08076737821
outer loop
vertex 37.61116791 20.77700043 325.6796875
vertex 37.54003143 20.77700043 326.0311279
vertex 36.8456955 21.10805511 325.7175903

endloop
endfacet
facet normal -0.5488760471 -0.6049174666 0.5768967867
outer loop
vertex 36.8456955 21.10805511 325.7175903
vertex 37.54003143 20.77700043 326.0311279
vertex 36.84571075 21.10807037 325.7176208

endloop
endfacet
facet normal -nan(ind) -nan(ind) -nan(ind)
outer loop
vertex 41.22411346 30.24947357 328.4828796
vertex 41.22411346 30.24947357 328.4828796
vertex 41.58431244 29.8373642 329.0249329

endloop
endfacet
facet normal 0.2865765095 0.8448086381 0.4518541396
outer loop
vertex 41.58431244 29.8373642 329.0249329
vertex 41.22411346 30.24947357 328.4828796
vertex 41.25814056 29.88288116 329.146698

endloop
endfacet
facet normal 0.3338794708 -0.111411415 0.936008513
outer loop
vertex 41.58431244 29.8373642 329.0249329
vertex 41.25814056 29.88288116 329.146698
vertex 41.63906097 29.38610077 328.9516907

endloop
endfacet
facet normal 0.5100212693 0.05409165472 0.8584593534
outer loop
vertex 41.63906097 29.38610077 328.9516907
vertex 41.25814056 29.88288116 329.146698
vertex 41.32364655 29.4391098 329.1357422

endloop
endfacet
facet normal 0.4648951292 -0.2154402882 0.8587536812
outer loop
vertex 41.63906097 29.38610077 328.9516907
vertex 41.32364655 29.4391098 329.1357422
vertex 41.56661224 28.90023041 328.8690186

endloop
endfacet
facet normal 0.5270057917 -0.1741127074 0.8318350911
outer loop
vertex 41.56661224 28.90023041 328.8690186
vertex 41.32364655 29.4391098 329.1357422
vertex 41.24193573 28.9605484 329.0873413

endloop
endfacet
facet normal 0.4950708151 -0.2942103446 0.8175237775
outer loop
vertex 41.56661224 28.90023041 328.8690186
vertex 41.24193573 28.9605484 329.0873413
vertex 41.39472198 28.420784 328.8005676

endloop
endfacet
facet normal 0.4512513578 -0.3157280684 0.8346782923
outer loop
vertex 41.39472198 28.420784 328.8005676
vertex 41.24193573 28.9605484 329.0873413
vertex 41.05995941 28.47754669 329.0030212

endloop
endfacet
facet normal 0.4661376476 -0.2633503079 0.8446077108
outer loop
vertex 41.39472198 28.420784 328.8005676
vertex 41.05995941 28.47754669 329.0030212
vertex 41.22544098 27.92784882 328.7402954

endloop
endfacet
facet normal 0.4016043544 -0.2936919034 0.8674439192
outer loop
vertex 41.22544098 27.92784882 328.7402954
vertex 41.05995941 28.47754669 329.0030212
vertex 40.87664032 27.97989655 328.9194031

endloop
endfacet
facet normal 0.4103724957 -0.2588748932 0.874401629
outer loop
vertex 41.22544098 27.92784882 328.7402954
vertex 40.87664032 27.97989655 328.9194031
vertex 41.07086945 27.39615631 328.655426

endloop
endfacet
facet normal 0.3702206016 -0.2776910365 0.8864673972
outer loop
vertex 41.07086945 27.39615631 328.655426
vertex 40.87664032 27.97989655 328.9194031
vertex 40.71485138 27.44728851 328.8201294

endloop
endfacet
facet normal 0.3737853169 -0.2627272904 0.8895273209
outer loop
vertex 41.07086945 27.39615631 328.655426
vertex 40.71485138 27.44728851 328.8201294
vertex 40.90518951 26.8277359 328.5571594

endloop
endfacet
facet normal 0.3260587454 -0.2827194333 0.9020839334
outer loop
vertex 40.90518951 26.8277359 328.5571594
vertex 40.71485138 27.44728851 328.8201294
vertex 40.54210663 26.880867 328.7050476

endloop
endfacet
facet normal 0.3219588995 -0.299798578 0.8980330825
outer loop
vertex 40.90520477 26.8277359 328.5571594
vertex 40.54210663 26.88088226 328.7050781
vertex 40.73188019 26.21295929 328.4140625

endloop
endfacet
facet normal 0.3005645275 -0.3079074323 0.902692616
outer loop
vertex 40.73188019 26.21295929 328.4140625
vertex 40.54210663 26.88088226 328.7050781
vertex 40.36763763 26.27414703 328.5562134

endloop
endfacet
facet normal 0.2855380177 -0.3618761599 0.8874197006
outer loop
vertex 40.73188019 26.21295929 328.4140625
vertex 40.36763763 26.27414703 328.5562134
vertex 40.52770233 25.57259369 328.2186279

endloop
endfacet
facet normal 0.2803883553 -0.3635180295 0.8883901238
outer loop
vertex 40.52770233 25.57259369 328.2186279
vertex 40.36763763 26.27414703 328.5562134
vertex 40.16677094 25.64644623 328.3627625

endloop
endfacet
facet normal 0.2572536767 -0.4309074283 0.8649504781
outer loop
vertex 40.52773285 25.57262421 328.2186584
vertex 40.16677094 25.64644623 328.362793
vertex 40.28644562 24.94635773 327.9784241

endloop
endfacet
facet normal 0.2593033314 -0.4303683043 0.8646067381
outer loop
vertex 40.28644562 24.94635773 327.9784241
vertex 40.16677094 25.64644623 328.362793
vertex 39.93102264 25.03348541 328.1283875

endloop
endfacet
facet normal 0.2335079908 -0.4915010929 0.8389878869
outer loop
vertex 40.28644562 24.94635773 327.9784241
vertex 39.93102264 25.03348541 328.1283875
vertex 40.02483368 24.36396027 327.7100525

endloop
endfacet
facet normal 0.2490042448 -0.4878683686 0.8366488814
outer loop
vertex 40.02483368 24.36396027 327.7100525
vertex 39.93102264 25.03348541 328.1283875
vertex 39.67690277 24.46155548 327.8705139

endloop
endfacet
facet normal 0.2260972261 -0.533727169 0.8148714304
outer loop
vertex 40.02483368 24.36396027 327.7100525
vertex 39.67690277 24.46155548 327.8705139
vertex 39.75695038 23.8282547 327.4335022

endloop
endfacet
facet normal 0.2597405612 -0.5260071754 0.8098464608
outer loop
vertex 39.75695038 23.8282547 327.4335022
vertex 39.67690277 24.46155548 327.8705139
vertex 39.41861725 23.93219757 327.6095276

endloop
endfacet
facet normal 0.2420631945 -0.5572190881 0.7942999005
outer loop
vertex 39.75695038 23.8282547 327.4335022
vertex 39.41861725 23.93219757 327.6095276
vertex 39.48693085 23.32444 327.1623535

endloop
endfacet
facet normal 0.2948940396 -0.5445621014 0.7851685286
outer loop
vertex 39.48693085 23.32444 327.1623535
vertex 39.41861725 23.93219757 327.6095276
vertex 39.16133881 23.43140411 327.3588257

endloop
endfacet
facet normal 0.2799646854 -0.5683206916 0.7737127542
outer loop
vertex 39.48696136 23.32445526 327.1624146
vertex 39.16135406 23.43144989 327.3588257
vertex 39.21695709 22.84029388 326.90448

endloop
endfacet
facet normal 0.3566264808 -0.5479956269 0.7566494346
outer loop
vertex 39.21695709 22.84029388 326.90448
vertex 39.16135406 23.43144989 327.3588257
vertex 38.90955353 22.94826508 327.1275635

endloop
endfacet
facet normal 0.3427640498 -0.5688262582 0.7476292253
outer loop
vertex 39.21695709 22.84029388 326.90448
vertex 38.90955353 22.94826508 327.1275635
vertex 38.92966461 22.36306 326.6730957

endloop
endfacet
facet normal 0.4231351614 -0.5466284156 0.7226021886
outer loop
vertex 38.92966461 22.36306 326.6730957
vertex 38.90955353 22.94826508 327.1275635
vertex 38.64340973 22.47135162 326.9226379

endloop
endfacet
facet normal 0.405240953 -0.5720592737 0.7131114006
outer loop
vertex 38.92966461 22.36306 326.6730957
vertex 38.64340973 22.47135162 326.9226379
vertex 38.62041473 21.88100433 326.4621277

endloop
endfacet
facet normal 0.4840624332 -0.5498464108 0.6807000041
outer loop
vertex 38.62041473 21.88100433 326.4621277
vertex 38.64340973 22.47135162 326.9226379
vertex 38.35791779 21.98970795 326.7366028

endloop
endfacet
facet normal 0.4626629651 -0.5786525607 0.6716428995
outer loop
vertex 38.62041473 21.88100433 326.4621277
vertex 38.35791779 21.98970795 326.7366028
vertex 38.29979706 21.40833282 326.2757568

endloop
endfacet
facet normal 0.5547958016 -0.5501791835 0.6241029501
outer loop
vertex 38.29979706 21.40833282 326.2757568
vertex 38.35791779 21.98970795 326.7366028
vertex 38.07028961 21.51882172 326.577179

endloop
endfacet
facet normal 0.4597314894 -0.6614878774 0.5925207138
outer loop
vertex 38.29979706 21.40833282 326.2757568
vertex 38.07028961 21.51882172 326.577179
vertex 37.9464798 21.02793121 326.1252136

endloop
endfacet
facet normal 0.519960463 -0.6458485723 0.5590356588
outer loop
vertex 37.9464798 21.02793121 326.1252136
vertex 38.07028961 21.51882172 326.577179
vertex 37.75670624 21.13526154 326.4257202

endloop
endfacet
facet normal 0.3640516102 -0.780299902 0.5085257292
outer loop
vertex 37.9464798 21.02794647 326.1252136
vertex 37.75669098 21.13526154 326.4257507
vertex 37.54003143 20.77700043 326.0311279

endloop
endfacet
facet normal 0.3355792463 -0.7818017006 0.5255212784
outer loop
vertex 37.54003143 20.77700043 326.0311279
vertex 37.75669098 21.13526154 326.4257507
vertex 37.36066437 20.89000702 326.3137817

endloop
endfacet
facet normal -0.4539684653 -0.8884845972 0.06714089215
outer loop
vertex 37.54003143 20.77700043 326.0311279
vertex 37.36066437 20.89000702 326.3137817
vertex 36.84571075 21.10807037 325.7176208

endloop
endfacet
facet normal 0.6688245535 0.6643357873 -0.333664149
outer loop
vertex 36.84571075 21.10807037 325.7176208
vertex 37.36066437 20.89000702 326.3137817
vertex 36.8456955 21.10807037 325.7175903

endloop
endfacet
facet normal -0.998688817 0 0.05119244382
outer loop
vertex 41.22411346 30.24947357 328.4828796
vertex 41.22411346 30.24945831 328.4828796
vertex 41.25814056 29.88288116 329.146698

endloop
endfacet
facet normal 0.1537633538 0.8682960272 0.4716129601
outer loop
vertex 41.25814056 29.88288116 329.146698
vertex 41.22411346 30.24945831 328.4828796
vertex 40.93831635 29.95781708 329.1130066

endloop
endfacet
facet normal -0.1142561287 -0.04137058929 0.9925895333
outer loop
vertex 41.25814056 29.88288116 329.146698
vertex 40.93831635 29.95781708 329.1130066
vertex 41.32364655 29.4391098 329.1357422

endloop
endfacet
facet normal 0.1322383136 0.1412384212 0.9811038375
outer loop
vertex 41.32364655 29.4391098 329.1357422
vertex 40.93831635 29.95781708 329.1130066
vertex 40.9757309 29.53145599 329.169342

endloop
endfacet
facet normal 0.06614322215 -0.1115773395 0.9915520549
outer loop
vertex 41.32364655 29.4391098 329.1357422
vertex 40.9757309 29.53145599 329.169342
vertex 41.24193573 28.9605484 329.0873413

endloop
endfacet
facet normal 0.1392397881 -0.07687856257 0.9872699976
outer loop
vertex 41.24193573 28.9605484 329.0873413
vertex 40.9757309 29.53145599 329.169342
vertex 40.87308502 29.06572723 329.1475525

endloop
endfacet
facet normal 0.09970173985 -0.207451731 0.973151207
outer loop
vertex 41.24193573 28.9605484 329.0873413
vertex 40.87308502 29.06572723 329.1475525
vertex 41.05995941 28.47754669 329.0030212

endloop
endfacet
facet normal 0.05094118416 -0.2230247259 0.9734808207
outer loop
vertex 41.05995941 28.47754669 329.0030212
vertex 40.87308502 29.06572723 329.1475525
vertex 40.68755341 28.57657623 329.0451965

endloop
endfacet
facet normal 0.06122774258 -0.1872863322 0.9803953171
outer loop
vertex 41.05995941 28.47754669 329.0030212
vertex 40.68755341 28.57657623 329.0451965
vertex 40.87664032 27.97989655 328.9194031

endloop
endfacet
facet normal -0.009096357971 -0.2090385109 0.9778650999
outer loop
vertex 40.87664032 27.97989655 328.9194031
vertex 40.68755341 28.57657623 329.0451965
vertex 40.49982452 28.07067108 328.9353027

endloop
endfacet
facet normal -0.002479837975 -0.182507202 0.9832013845
outer loop
vertex 40.87664032 27.97989655 328.9194031
vertex 40.49982452 28.07067108 328.9353027
vertex 40.71485138 27.44728851 328.8201294

endloop
endfacet
facet normal -0.04520710558 -0.1965523958 0.9794505835
outer loop
vertex 40.71485138 27.44728851 328.8201294
vertex 40.49982452 28.07067108 328.9353027
vertex 40.33719635 27.53643036 328.8205872

endloop
endfacet
facet normal -0.0428012982 -0.1863708496 0.9815467596
outer loop
vertex 40.71485138 27.44728851 328.8201294
vertex 40.33719635 27.53643036 328.8205872
vertex 40.54210663 26.880867 328.7050476

endloop
endfacet
facet normal -0.09303581715 -0.2009494901 0.9751735926
outer loop
vertex 40.54210663 26.880867 328.7050476
vertex 40.33719635 27.53643036 328.8205872
vertex 40.16570282 26.97353363 328.6882324

endloop
endfacet
facet normal -0.0955227986 -0.2112031728 0.9727633595
outer loop
vertex 40.54210663 26.88088226 328.7050781
vertex 40.16570282 26.97353363 328.6882324
vertex 40.36763763 26.27414703 328.5562134

endloop
endfacet
facet normal -0.1179371551 -0.2169697583 0.9690278172
outer loop
vertex 40.36763763 26.27414703 328.5562134
vertex 40.16570282 26.97353363 328.6882324
vertex 39.99530792 26.38085175 328.53479

endloop
endfacet
facet normal -0.1280733347 -0.2544377744 0.958571136
outer loop
vertex 40.36763763 26.27414703 328.5562134
vertex 39.99530792 26.38085175 328.53479
vertex 40.16677094 25.64644623 328.3627625

endloop
endfacet
facet normal -0.1335025877 -0.2554675341 0.9575559497
outer loop
vertex 40.16677094 25.64644623 328.3627625
vertex 39.99530792 26.38085175 328.53479
vertex 39.80147552 25.77523041 328.3461914

endloop
endfacet
facet normal -0.1493644565 -0.3025436699 0.9413594604
outer loop
vertex 40.16677094 25.64644623 328.362793
vertex 39.80147552 25.77523041 328.3462219
vertex 39.93102264 25.03348541 328.1283875

endloop
endfacet
facet normal -0.1474685222 -0.3023213148 0.941729784
outer loop
vertex 39.93102264 25.03348541 328.1283875
vertex 39.80147552 25.77523041 328.3462219
vertex 39.57447052 25.18544769 328.1213379

endloop
endfacet
facet normal -0.1647454053 -0.3436561823 0.9245319963
outer loop
vertex 39.93102264 25.03348541 328.1283875
vertex 39.57447052 25.18544769 328.1213379
vertex 39.67690277 24.46155548 327.8705139

endloop
endfacet
facet normal -0.1491383463 -0.3425111771 0.9276011586
outer loop
vertex 39.67690277 24.46155548 327.8705139
vertex 39.57447052 25.18544769 328.1213379
vertex 39.32866669 24.63178253 327.8773804

endloop
endfacet
facet normal -0.1633326262 -0.37100631 0.9141535759
outer loop
vertex 39.67690277 24.46155548 327.8705139
vertex 39.32866669 24.63178253 327.8773804
vertex 39.41861725 23.93219757 327.6095276

endloop
endfacet
facet normal -0.1291404963 -0.3690059781 0.9204114676
outer loop
vertex 39.41861725 23.93219757 327.6095276
vertex 39.32866669 24.63178253 327.8773804
vertex 39.07686615 24.11353302 327.6342773

endloop
endfacet
facet normal -0.1384975165 -0.385525763 0.9122435451
outer loop
vertex 39.41861725 23.93219757 327.6095276
vertex 39.07686615 24.11353302 327.6342773
vertex 39.16133881 23.43140411 327.3588257

endloop
endfacet
facet normal -0.0839324072 -0.3820336461 0.9203291535
outer loop
vertex 39.16133881 23.43140411 327.3588257
vertex 39.07686615 24.11353302 327.6342773
vertex 38.82491302 23.6180191 327.4056091

endloop
endfacet
facet normal -0.08966375887 -0.3915781677 0.9157657623
outer loop
vertex 39.16135406 23.43144989 327.3588257
vertex 38.82494354 23.61803436 327.4056702
vertex 38.90955353 22.94826508 327.1275635

endloop
endfacet
facet normal -0.008882883005 -0.384424448 0.9231137037
outer loop
vertex 38.90955353 22.94826508 327.1275635
vertex 38.82494354 23.61803436 327.4056702
vertex 38.5794754 23.13660431 327.2028198

endloop
endfacet
facet normal -0.01200417988 -0.3890975118 0.9211183786
outer loop
vertex 38.90955353 22.94826508 327.1275635
vertex 38.5794754 23.13660431 327.2028198
vertex 38.64340973 22.47135162 326.9226379

endloop
endfacet
facet normal 0.07559967041 -0.3808554113 0.9215388298
outer loop
vertex 38.64340973 22.47135162 326.9226379
vertex 38.5794754 23.13660431 327.2028198
vertex 38.32163239 22.66024017 327.0270996

endloop
endfacet
facet normal 0.06659339368 -0.3936113119 0.9168617725
outer loop
vertex 38.64340973 22.47135162 326.9226379
vertex 38.32163239 22.66024017 327.0270996
vertex 38.35791779 21.98970795 326.7366028

endloop
endfacet
facet normal 0.154232204 -0.3857344389 0.9096270204
outer loop
vertex 38.35791779 21.98970795 326.7366028
vertex 38.32163239 22.66024017 327.0270996
vertex 38.04720306 22.17931366 326.8696899

endloop
endfacet
facet normal 0.1464000344 -0.39628914 0.906378448
outer loop
vertex 38.35791779 21.98970795 326.7366028
vertex 38.04720306 22.17931366 326.8696899
vertex 38.07028961 21.51882172 326.577179

endloop
endfacet
facet normal 0.2529401481 -0.3843619227 0.8878554106
outer loop
vertex 38.07028961 21.51882172 326.577179
vertex 38.04720306 22.17931366 326.8696899
vertex 37.77857208 21.71146393 326.7436829

endloop
endfacet
facet normal 0.1730394959 -0.4808821082 0.8595404625
outer loop
vertex 38.07028961 21.51882172 326.577179
vertex 37.77857208 21.71146393 326.7436829
vertex 37.75670624 21.13526154 326.4257202

endloop
endfacet
facet normal 0.2432378083 -0.4756938219 0.8453110456
outer loop
vertex 37.75670624 21.13526154 326.4257202
vertex 37.77857208 21.71146393 326.7436829
vertex 37.50086212 21.32222748 326.6045532

endloop
endfacet
facet normal 0.1343208998 -0.5827891827 0.801445365
outer loop
vertex 37.75669098 21.13526154 326.4257507
vertex 37.50086212 21.32222748 326.6045837
vertex 37.36066437 20.89000702 326.3137817

endloop
endfacet
facet normal 0.07127702236 -0.5726162791 0.8167191744
outer loop
vertex 37.36066437 20.89000702 326.3137817
vertex 37.50086212 21.32222748 326.6045837
vertex 37.12928009 21.07570648 326.4641724

endloop
endfacet
facet normal -0.5462025404 -0.8198181391 0.17193304
outer loop
vertex 37.36066437 20.89000702 326.3137817
vertex 37.12928009 21.07570648 326.4641724
vertex 36.8456955 21.10807037 325.7175903

endloop
endfacet
facet normal 0.9348384142 0 -0.3550735116
outer loop
vertex 36.8456955 21.10807037 325.7175903
vertex 37.12928009 21.07570648 326.4641724
vertex 36.8456955 21.10805511 325.7175903

endloop
endfacet
facet normal 0.593415916 0.593415916 0.5437969565
outer loop
vertex 41.22411346 30.24945831 328.4828796
vertex 41.22409821 30.24947357 328.4828796
vertex 40.93831635 29.95781708 329.1130066

endloop
endfacet
facet normal 0.02992112376 0.9018567801 0.4309977591
outer loop
vertex 40.93831635 29.95781708 329.1130066
vertex 41.22409821 30.24947357 328.4828796
vertex 40.69185638 30.04184723 328.9542847

endloop
endfacet
facet normal -0.524207592 0.06618016958 0.8490150571
outer loop
vertex 40.93831635 29.95781708 329.1130066
vertex 40.69185638 30.04184723 328.9542847
vertex 40.9757309 29.53145599 329.169342

endloop
endfacet
facet normal -0.2614532709 0.2476672381 0.9329003692
outer loop
vertex 40.9757309 29.53145599 329.169342
vertex 40.69185638 30.04184723 328.9542847
vertex 40.67592621 29.63936615 329.0566711

endloop
endfacet
facet normal -0.3417062759 0.03136628121 0.9392831922
outer loop
vertex 40.9757309 29.53145599 329.169342
vertex 40.67592621 29.63936615 329.0566711
vertex 40.87308502 29.06572723 329.1475525

endloop
endfacet
facet normal -0.2696382403 0.05959488824 0.9611157775
outer loop
vertex 40.87308502 29.06572723 329.1475525
vertex 40.67592621 29.63936615 329.0566711
vertex 40.54640961 29.18871307 329.0482788

endloop
endfacet
facet normal -0.3165640533 -0.0777521804 0.9453791976
outer loop
vertex 40.87308502 29.06572723 329.1475525
vertex 40.54640961 29.18871307 329.0482788
vertex 40.68755341 28.57657623 329.0451965

endloop
endfacet
facet normal -0.3623751998 -0.088226825 0.9278470874
outer loop
vertex 40.68755341 28.57657623 329.0451965
vertex 40.54640961 29.18871307 329.0482788
vertex 40.36414337 28.6924057 328.9299011

endloop
endfacet
facet normal -0.3570756614 -0.06983211637 0.9314614534
outer loop
vertex 40.68755341 28.57657623 329.0451965
vertex 40.36414337 28.6924057 328.9299011
vertex 40.49982452 28.07067108 328.9353027

endloop
endfacet
facet normal -0.4209950268 -0.08402710408 0.903162539
outer loop
vertex 40.49982452 28.07067108 328.9353027
vertex 40.36414337 28.6924057 328.9299011
vertex 40.18192291 28.17685699 328.7969971

endloop
endfacet
facet normal -0.4169526398 -0.06770414859 0.9064031243
outer loop
vertex 40.49982452 28.07067108 328.9353027
vertex 40.18192291 28.17685699 328.7969971
vertex 40.33719635 27.53643036 328.8205872

endloop
endfacet
facet normal -0.4553353786 -0.0777278021 0.8869205713
outer loop
vertex 40.33719635 27.53643036 328.8205872
vertex 40.18192291 28.17685699 328.7969971
vertex 40.02455902 27.64069366 328.66922

endloop
endfacet
facet normal -0.453676492 -0.07066327333 0.8883604407
outer loop
vertex 40.33719635 27.53643036 328.8205872
vertex 40.02455902 27.64069366 328.66922
vertex 40.16570282 26.97353363 328.6882324

endloop
endfacet
facet normal -0.4980702698 -0.08076743782 0.8633670807
outer loop
vertex 40.16570282 26.97353363 328.6882324
vertex 40.02455902 27.64069366 328.66922
vertex 39.86168671 27.08184052 328.5229797

endloop
endfacet
facet normal -0.497961998 -0.08038373291 0.8634652495
outer loop
vertex 40.16570282 26.97353363 328.6882324
vertex 39.86167145 27.08184052 328.5229797
vertex 39.99530792 26.38085175 328.53479

endloop
endfacet
facet normal -0.5176335573 -0.08433659375 0.8514357209
outer loop
vertex 39.99530792 26.38085175 328.53479
vertex 39.86167145 27.08184052 328.5229797
vertex 39.69919586 26.50562286 328.3671265

endloop
endfacet
facet normal -0.5211022496 -0.09727603197 0.8479326367
outer loop
vertex 39.99530792 26.38085175 328.53479
vertex 39.69919586 26.50562286 328.3671265
vertex 39.80147552 25.77523041 328.3461914

endloop
endfacet
facet normal -0.5256474614 -0.0978301391 0.84505862
outer loop
vertex 39.80147552 25.77523041 328.3461914
vertex 39.69919586 26.50562286 328.3671265
vertex 39.51430511 25.9258194 328.1849976

endloop
endfacet
facet normal -0.5315694809 -0.1153582335 0.839122355
outer loop
vertex 39.80147552 25.77523041 328.3462219
vertex 39.51433563 25.92583466 328.1850281
vertex 39.57447052 25.18544769 328.1213379

endloop
endfacet
facet normal -0.5296164751 -0.1153063774 0.8403635025
outer loop
vertex 39.57447052 25.18544769 328.1213379
vertex 39.51433563 25.92583466 328.1850281
vertex 39.29715729 25.36312103 327.9709473

endloop
endfacet
facet normal -0.5356777906 -0.1298296601 0.8343821764
outer loop
vertex 39.57447052 25.18544769 328.1213379
vertex 39.29715729 25.36312103 327.9709473
vertex 39.32866669 24.63178253 327.8773804

endloop
endfacet
facet normal -0.5219868422 -0.1303342879 0.842936933
outer loop
vertex 39.32866669 24.63178253 327.8773804
vertex 39.29715729 25.36312103 327.9709473
vertex 39.05854034 24.83078766 327.7408752

endloop
endfacet
facet normal -0.5258945823 -0.1381657422 0.8392527103
outer loop
vertex 39.32866669 24.63178253 327.8773804
vertex 39.05854034 24.83078766 327.7408752
vertex 39.07686615 24.11353302 327.6342773

endloop
endfacet
facet normal -0.4958522916 -0.1400417984 0.8570407033
outer loop
vertex 39.07686615 24.11353302 327.6342773
vertex 39.05854034 24.83078766 327.7408752
vertex 38.80884552 24.32555389 327.513855

endloop
endfacet
facet normal -0.4971034825 -0.142241165 0.8559530377
outer loop
vertex 39.07686615 24.11353302 327.6342773
vertex 38.80884552 24.32555389 327.513855
vertex 38.82491302 23.6180191 327.4056091

endloop
endfacet
facet normal -0.4486874342 -0.1451007128 0.8818306923
outer loop
vertex 38.82491302 23.6180191 327.4056091
vertex 38.80884552 24.32555389 327.513855
vertex 38.55426788 23.83620453 327.3038025

endloop
endfacet
facet normal -0.4478434622 -0.1435063481 0.8825203776
outer loop
vertex 38.82494354 23.61803436 327.4056702
vertex 38.55428314 23.83623505 327.3038025
vertex 38.5794754 23.13660431 327.2028198

endloop
endfacet
facet normal -0.3743772507 -0.1456593722 0.9157646894
outer loop
vertex 38.5794754 23.13660431 327.2028198
vertex 38.55428314 23.83623505 327.3038025
vertex 38.30275726 23.35684967 327.1247253

endloop
endfacet
facet normal -0.3697282374 -0.1387710422 0.9187184572
outer loop
vertex 38.5794754 23.13660431 327.2028198
vertex 38.30275726 23.35684967 327.1247253
vertex 38.32163239 22.66024017 327.0270996

endloop
endfacet
facet normal -0.2882908285 -0.1405519396 0.9471713305
outer loop
vertex 38.32163239 22.66024017 327.0270996
vertex 38.30275726 23.35684967 327.1247253
vertex 38.03948212 22.8811264 326.973999

endloop
endfacet
facet normal -0.290605396 -0.1437957287 0.9459763765
outer loop
vertex 38.32163239 22.66024017 327.0270996
vertex 38.03948212 22.8811264 326.973999
vertex 38.04720306 22.17931366 326.8696899

endloop
endfacet
facet normal -0.2064356208 -0.1460681558 0.9674959779
outer loop
vertex 38.04720306 22.17931366 326.8696899
vertex 38.03948212 22.8811264 326.973999
vertex 37.76187897 22.40103912 326.8422852

endloop
endfacet
facet normal -0.2044475675 -0.1434085965 0.9683156013
outer loop
vertex 38.04720306 22.17931366 326.8696899
vertex 37.76187897 22.40103912 326.8422852
vertex 37.77857208 21.71146393 326.7436829

endloop
endfacet
facet normal -0.09841393679 -0.1431972682 0.9847889543
outer loop
vertex 37.77857208 21.71146393 326.7436829
vertex 37.76187897 22.40103912 326.8422852
vertex 37.49507904 21.93672943 326.7481079

endloop
endfacet
facet normal -0.1644791365 -0.2258557677 0.9601748586
outer loop
vertex 37.77857208 21.71146393 326.7436829
vertex 37.49507904 21.93672943 326.7481079
vertex 37.50086212 21.32222748 326.6045532

endloop
endfacet
facet normal -0.09249639511 -0.2273365706 0.9694134593
outer loop
vertex 37.50086212 21.32222748 326.6045532
vertex 37.49507904 21.93672943 326.7481079
vertex 37.24163055 21.54065704 326.6310425

endloop
endfacet
facet normal -0.1565855294 -0.2999534011 0.9410148263
outer loop
vertex 37.50086212 21.32222748 326.6045837
vertex 37.24163055 21.54065704 326.631073
vertex 37.12928009 21.07570648 326.4641724

endloop
endfacet
facet normal -0.2317493707 -0.2785679996 0.9320365787
outer loop
vertex 37.12928009 21.07570648 326.4641724
vertex 37.24163055 21.54065704 326.631073
vertex 36.90305328 21.28351593 326.4700317

endloop
endfacet
facet normal -0.657099545 -0.7214918733 0.2183337212
outer loop
vertex 37.12928009 21.07570648 326.4641724
vertex 36.90305328 21.28351593 326.4700317
vertex 36.8456955 21.10805511 325.7175903

endloop
endfacet
facet normal -nan(ind) -nan(ind) -nan(ind)
outer loop
vertex 36.8456955 21.10805511 325.7175903
vertex 36.90305328 21.28351593 326.4700317
vertex 36.8456955 21.10805511 325.7175903

endloop
endfacet
facet normal 0.4917706251 -0.8519025445 0.1800659448
outer loop
vertex 41.22408295 30.24945831 328.4828491
vertex 41.22409821 30.24947357 328.4828796
vertex 40.69182587 30.04184723 328.9542542

endloop
endfacet
facet normal -0.07925072312 0.9422065616 0.3255244493
outer loop
vertex 40.69182587 30.04184723 328.9542542
vertex 41.22409821 30.24947357 328.4828796
vertex 40.53772736 30.13617706 328.6437073

endloop
endfacet
facet normal -0.865267694 0.1554832757 0.4765887856
outer loop
vertex 40.69182587 30.04184723 328.9542542
vertex 40.53772736 30.13617706 328.6437073
vertex 40.67591095 29.63935089 329.0566711

endloop
endfacet
facet normal -0.6602942944 0.3628813028 0.6575170159
outer loop
vertex 40.67591095 29.63935089 329.0566711
vertex 40.53772736 30.13617706 328.6437073
vertex 40.44353485 29.7662735 328.7532654

endloop
endfacet
facet normal -0.7358955145 0.1994515061 0.6470524073
outer loop
vertex 40.67591095 29.63935089 329.0566711
vertex 40.44353485 29.7662735 328.7532654
vertex 40.54639435 29.18871307 329.0482788

endloop
endfacet
facet normal -0.6770835519 0.2355376035 0.6971942782
outer loop
vertex 40.54639435 29.18871307 329.0482788
vertex 40.44353485 29.7662735 328.7532654
vertex 40.27976227 29.33342743 328.740448

endloop
endfacet
facet normal -0.7267484069 0.1049777269 0.6788346767
outer loop
vertex 40.54639435 29.18871307 329.0482788
vertex 40.27976227 29.33342743 328.740448
vertex 40.36412811 28.69239044 328.9299011

endloop
endfacet
facet normal -0.7616000175 0.08945842832 0.6418431997
outer loop
vertex 40.36412811 28.69239044 328.9299011
vertex 40.27976227 29.33342743 328.740448
vertex 40.10970306 28.82868195 328.6090088

endloop
endfacet
facet normal -0.7580159307 0.1017989591 0.6442427635
outer loop
vertex 40.36412811 28.69239044 328.9299011
vertex 40.10970306 28.82868195 328.6090088
vertex 40.18190765 28.17682648 328.7969666

endloop
endfacet
facet normal -0.8042042255 0.08070997894 0.5888476372
outer loop
vertex 40.18190765 28.17682648 328.7969666
vertex 40.10970306 28.82868195 328.6090088
vertex 39.94594574 28.3017807 328.4575806

endloop
endfacet
facet normal -0.8008458614 0.09407882392 0.5914347172
outer loop
vertex 40.18190765 28.17682648 328.7969666
vertex 39.94594574 28.3017807 328.4575806
vertex 40.02455902 27.64067841 328.6691895

endloop
endfacet
facet normal -0.8273673654 0.07958124578 0.5559946895
outer loop
vertex 40.02455902 27.64067841 328.6691895
vertex 39.94594574 28.3017807 328.4575806
vertex 39.80181122 27.76337433 328.3201599

endloop
endfacet
facet normal -0.8239432573 0.09389095753 0.558839798
outer loop
vertex 40.02455902 27.64067841 328.6691895
vertex 39.80181122 27.76337433 328.3201599
vertex 39.86168671 27.08181 328.5229492

endloop
endfacet
facet normal -0.8534607887 0.07832469791 0.515237689
outer loop
vertex 39.86168671 27.08181 328.5229492
vertex 39.80181122 27.76337433 328.3201599
vertex 39.65711212 27.20929718 328.1647034

endloop
endfacet
facet normal -0.8486415148 0.09873423725 0.519672215
outer loop
vertex 39.86167145 27.08182526 328.5229492
vertex 39.65712738 27.20929718 328.1647034
vertex 39.69919586 26.50562286 328.3670959

endloop
endfacet
facet normal -0.8615114093 0.09210917354 0.4993134439
outer loop
vertex 39.69919586 26.50562286 328.3670959
vertex 39.65712738 27.20929718 328.1647034
vertex 39.50756073 26.65242767 328.0093689

endloop
endfacet
facet normal -0.8554724455 0.1141298115 0.5051152706
outer loop
vertex 39.69919586 26.50562286 328.3670959
vertex 39.50756073 26.65242767 328.0093689
vertex 39.51430511 25.9258194 328.184967

endloop
endfacet
facet normal -0.8583862185 0.1129660681 0.5004116297
outer loop
vertex 39.51430511 25.9258194 328.184967
vertex 39.50756073 26.65242767 328.0093689
vertex 39.333992 26.10301971 327.8356628

endloop
endfacet
facet normal -0.850812912 0.1351876706 0.507781148
outer loop
vertex 39.51432037 25.9258194 328.1849976
vertex 39.33400726 26.10303497 327.8356934
vertex 39.29714203 25.36310577 327.9709167

endloop
endfacet
facet normal -0.8491450548 0.1355936974 0.5104575753
outer loop
vertex 39.29714203 25.36310577 327.9709167
vertex 39.33400726 26.10303497 327.8356934
vertex 39.12789154 25.57222748 327.6338196

endloop
endfacet
facet normal -0.8416336179 0.1534784436 0.517781198
outer loop
vertex 39.29714203 25.36310577 327.9709167
vertex 39.12789154 25.57222748 327.6338196
vertex 39.05854034 24.83075714 327.7408752

endloop
endfacet
facet normal -0.8317697048 0.1547689885 0.5331093669
outer loop
vertex 39.05854034 24.83075714 327.7408752
vertex 39.12789154 25.57222748 327.6338196
vertex 38.89488983 25.06499481 327.4175415

endloop
endfacet
facet normal -0.8260371685 0.1662626266 0.5385344625
outer loop
vertex 39.05854034 24.83075714 327.7408752
vertex 38.89488983 25.06499481 327.4175415
vertex 38.80884552 24.32553864 327.513855

endloop
endfacet
facet normal -0.8047427535 0.1678065509 0.5694120526
outer loop
vertex 38.80884552 24.32553864 327.513855
vertex 38.89488983 25.06499481 327.4175415
vertex 38.64157867 24.57508087 327.2039185

endloop
endfacet
facet normal -0.8023431301 0.1720447838 0.571529448
outer loop
vertex 38.80884552 24.32553864 327.513855
vertex 38.64157867 24.57508087 327.2039185
vertex 38.55426788 23.83618927 327.303772

endloop
endfacet
facet normal -0.7666133046 0.1741099656 0.6180531383
outer loop
vertex 38.55426788 23.83618927 327.303772
vertex 38.64157867 24.57508087 327.2039185
vertex 38.37386322 24.09299469 327.0076599

endloop
endfacet
facet normal -0.767770946 0.1722978652 0.6171233058
outer loop
vertex 38.55428314 23.83621979 327.3038025
vertex 38.37387848 24.09302521 327.0076599
vertex 38.302742 23.35684967 327.1246948

endloop
endfacet
facet normal -0.7107387185 0.1769172549 0.6808456182
outer loop
vertex 38.302742 23.35684967 327.1246948
vertex 38.37387848 24.09302521 327.0076599
vertex 38.10005951 23.61603546 326.8457642

endloop
endfacet
facet normal -0.7104452252 0.1773539633 0.6810382009
outer loop
vertex 38.302742 23.35684967 327.1246948
vertex 38.10005951 23.61603546 326.8457642
vertex 38.03946686 22.8811264 326.973938

endloop
endfacet
facet normal -0.643496871 0.1826975793 0.7433258891
outer loop
vertex 38.03946686 22.8811264 326.973938
vertex 38.10005951 23.61603546 326.8457642
vertex 37.81337738 23.14105988 326.714325

endloop
endfacet
facet normal -0.6503142715 0.1731221527 0.7396756411
outer loop
vertex 38.03946686 22.8811264 326.973938
vertex 37.81337738 23.14105988 326.714325
vertex 37.76187897 22.40102386 326.8422546

endloop
endfacet
facet normal -0.5777131319 0.1779128909 0.7966144085
outer loop
vertex 37.76187897 22.40102386 326.8422546
vertex 37.81337738 23.14105988 326.714325
vertex 37.51390839 22.66191864 326.6041565

endloop
endfacet
facet normal -0.5814320445 0.1729122996 0.7950081825
outer loop
vertex 37.76187897 22.40102386 326.8422546
vertex 37.51390839 22.66191864 326.6041565
vertex 37.49506378 21.93669891 326.7481079

endloop
endfacet
facet normal -0.4845546484 0.1824084222 0.8555313945
outer loop
vertex 37.49506378 21.93669891 326.7481079
vertex 37.51390839 22.66191864 326.6041565
vertex 37.22624969 22.20178986 326.5393372

endloop
endfacet
facet normal -0.5449430943 0.1027597487 0.8321522474
outer loop
vertex 37.49506378 21.93669891 326.7481079
vertex 37.22624969 22.20178986 326.5393372
vertex 37.2416153 21.54064178 326.6310425

endloop
endfacet
facet normal -0.4754778743 0.1100152731 0.872821629
outer loop
vertex 37.2416153 21.54064178 326.6310425
vertex 37.22624969 22.20178986 326.5393372
vertex 36.98145294 21.79750824 326.4569397

endloop
endfacet
facet normal -0.4862799942 0.09623973072 0.8684870005
outer loop
vertex 37.2416153 21.54064178 326.631073
vertex 36.98145294 21.79750824 326.4569397
vertex 36.90305328 21.28350067 326.4700012

endloop
endfacet
facet normal -0.5446077585 0.1042139083 0.8321909904
outer loop
vertex 36.90305328 21.28350067 326.4700012
vertex 36.98145294 21.79750824 326.4569397
vertex 36.68564606 21.5161972 326.298584

endloop
endfacet
facet normal -0.7845639586 -0.5879431963 0.1969320327
outer loop
vertex 36.90305328 21.28350067 326.4700012
vertex 36.68564606 21.5161972 326.298584
vertex 36.84568024 21.10803986 325.7175903

endloop
endfacet
facet normal -0.5815545917 0.5815545917 -0.5688483715
outer loop
vertex 36.84568024 21.10803986 325.7175903
vertex 36.68564606 21.5161972 326.298584
vertex 36.8456955 21.10805511 325.7175903

endloop
endfacet
facet normal -nan(ind) -nan(ind) -nan(ind)
outer loop
vertex 41.22409821 30.24947357 328.4828796
vertex 41.22409821 30.24947357 328.4828796
vertex 40.53772736 30.1361618 328.6437073

endloop
endfacet
facet normal -0.1280574948 0.9811460376 0.144754082
outer loop
vertex 40.53772736 30.1361618 328.6437073
vertex 41.22409821 30.24947357 328.4828796
vertex 40.64295197 30.25710297 327.9170532

endloop
endfacet
facet normal -0.9707289934 0.2162116617 -0.104583025
outer loop
vertex 40.53772736 30.1361618 328.6437073
vertex 40.64295197 30.25710297 327.9170532
vertex 40.44353485 29.76625824 328.7532654

endloop
endfacet
facet normal -0.8115824461 0.5673441887 0.1394795179
outer loop
vertex 40.44353485 29.76625824 328.7532654
vertex 40.64295197 30.25710297 327.9170532
vertex 40.41983795 29.95041656 327.8663025

endloop
endfacet
facet normal -0.9317834377 0.3496768773 0.0974970758
outer loop
vertex 40.44353485 29.76625824 328.7532654
vertex 40.41983795 29.95041656 327.8663025
vertex 40.27976227 29.33342743 328.740448

endloop
endfacet
facet normal -0.8789582849 0.4444657266 0.1728657782
outer loop
vertex 40.27976227 29.33342743 328.740448
vertex 40.41983795 29.95041656 327.8663025
vertex 40.19986725 29.54375458 327.7934265

endloop
endfacet
facet normal -0.948598206 0.2824554741 0.1427595168
outer loop
vertex 40.27976227 29.33342743 328.740448
vertex 40.19986725 29.54375458 327.7934265
vertex 40.10968781 28.82868195 328.6090088

endloop
endfacet
facet normal -0.9710150957 0.2223828584 0.08761137724
outer loop
vertex 40.10968781 28.82868195 328.6090088
vertex 40.19986725 29.54375458 327.7934265
vertex 40.06925201 29.02675629 327.6580811

endloop
endfacet
facet normal -0.9580087662 0.2698531449 0.09694620222
outer loop
vertex 40.10968781 28.82868195 328.6090088
vertex 40.06925201 29.02675629 327.6580811
vertex 39.94594574 28.3017807 328.4575806

endloop
endfacet
facet normal -0.9824357629 0.1858265847 0.01698467135
outer loop
vertex 39.94594574 28.3017807 328.4575806
vertex 40.06925201 29.02675629 327.6580811
vertex 39.96378326 28.48339081 327.5023804

endloop
endfacet
facet normal -0.9674324393 0.251377672 0.0297279302
outer loop
vertex 39.94594574 28.3017807 328.4575806
vertex 39.96378326 28.48339081 327.5023804
vertex 39.80182648 27.76338959 328.3201294

endloop
endfacet
facet normal -0.9800503254 0.1977408677 -0.0199965369
outer loop
vertex 39.80182648 27.76338959 328.3201294
vertex 39.96378326 28.48339081 327.5023804
vertex 39.85727692 27.9417038 327.3657532

endloop
endfacet
facet normal -0.9669272304 0.2549088895 -0.008552871644
outer loop
vertex 39.80182648 27.76338959 328.3201294
vertex 39.85727692 27.9417038 327.3657532
vertex 39.65712738 27.20929718 328.1646729

endloop
endfacet
facet normal -0.9788536429 0.1927402914 -0.06853359938
outer loop
vertex 39.65712738 27.20929718 328.1646729
vertex 39.85727692 27.9417038 327.3657532
vertex 39.76006317 27.39461517 327.2156372

endloop
endfacet
facet normal -0.9608554244 0.2723082602 -0.05103984848
outer loop
vertex 39.65714264 27.20929718 328.1646729
vertex 39.76007843 27.39463043 327.2156372
vertex 39.50757599 26.65242767 328.0093384

endloop
endfacet
facet normal -0.9665486813 0.2438691556 -0.07944491506
outer loop
vertex 39.50757599 26.65242767 328.0093384
vertex 39.76007843 27.39463043 327.2156372
vertex 39.63866425 26.86586761 327.0696716

endloop
endfacet
facet normal -0.9462457299 0.317871809 -0.05980329588
outer loop
vertex 39.50757599 26.65242767 328.0093384
vertex 39.63866425 26.86586761 327.0696716
vertex 39.333992 26.10301971 327.8356323

endloop
endfacet
facet normal -0.9478085637 0.3118429482 -0.06642933935
outer loop
vertex 39.333992 26.10301971 327.8356323
vertex 39.63866425 26.86586761 327.0696716
vertex 39.48358917 26.36058807 326.9103088

endloop
endfacet
facet normal -0.9253827333 0.3763722181 -0.0448416993
outer loop
vertex 39.33400726 26.10305023 327.8356628
vertex 39.48360443 26.36061859 326.9103394
vertex 39.12789154 25.57222748 327.6338196

endloop
endfacet
facet normal -0.9240682721 0.3801167309 -0.04011494666
outer loop
vertex 39.12789154 25.57222748 327.6338196
vertex 39.48360443 26.36061859 326.9103394
vertex 39.29235077 25.87615204 326.7253113

endloop
endfacet
facet normal -0.9049585462 0.4249480665 -0.02165816352
outer loop
vertex 39.12789154 25.57222748 327.6338196
vertex 39.29235077 25.87615204 326.7253113
vertex 38.89488983 25.06501007 327.4175415

endloop
endfacet
facet normal -0.8971158862 0.4417878091 0.002577361418
outer loop
vertex 38.89488983 25.06501007 327.4175415
vertex 39.29235077 25.87615204 326.7253113
vertex 39.05998993 25.40549469 326.5220337

endloop
endfacet
facet normal -0.8898919225 0.4560756981 0.009341651574
outer loop
vertex 38.89488983 25.06501007 327.4175415
vertex 39.05998993 25.40549469 326.5220337
vertex 38.64156342 24.57509613 327.203949

endloop
endfacet
facet normal -0.8718466759 0.4864092469 0.0573527962
outer loop
vertex 38.64156342 24.57509613 327.203949
vertex 39.05998993 25.40549469 326.5220337
vertex 38.78534698 24.93779755 326.3135986

endloop
endfacet
facet normal -0.8815253377 0.4695934057 0.04893955216
outer loop
vertex 38.64156342 24.57509613 327.203949
vertex 38.78534698 24.93779755 326.3135986
vertex 38.37384796 24.09299469 327.0076599

endloop
endfacet
facet normal -0.8496491909 0.5132766962 0.1210092306
outer loop
vertex 38.37384796 24.09299469 327.0076599
vertex 38.78534698 24.93779755 326.3135986
vertex 38.47232819 24.46619415 326.1161499

endloop
endfacet
facet normal -0.8771891594 0.4696758986 0.09971851856
outer loop
vertex 38.37387848 24.09302521 327.0076904
vertex 38.4723587 24.46622467 326.1162109
vertex 38.10007477 23.61603546 326.8457642

endloop
endfacet
facet normal -0.823115766 0.5316599011 0.1995450109
outer loop
vertex 38.10007477 23.61603546 326.8457642
vertex 38.4723587 24.46622467 326.1162109
vertex 38.12657928 23.99277496 325.9513245

endloop
endfacet
facet normal -0.8636425734 0.4732224345 0.1737301648
outer loop
vertex 38.10007477 23.61603546 326.8457642
vertex 38.12657928 23.99277496 325.9513245
vertex 37.81337738 23.14105988 326.714325

endloop
endfacet
facet normal -0.7966054678 0.5386765003 0.2743124664
outer loop
vertex 37.81337738 23.14105988 326.714325
vertex 38.12657928 23.99277496 325.9513245
vertex 37.7614212 23.51894379 325.8213806

endloop
endfacet
facet normal -0.8459983468 0.4715813994 0.2487924993
outer loop
vertex 37.81337738 23.14105988 326.714325
vertex 37.7614212 23.51894379 325.8213806
vertex 37.51389313 22.66191864 326.6041565

endloop
endfacet
facet normal -0.7700794935 0.5369896889 0.3444119394
outer loop
vertex 37.51389313 22.66191864 326.6041565
vertex 37.7614212 23.51894379 325.8213806
vertex 37.38275909 23.04125214 325.7195129

endloop
endfacet
facet normal -0.8222978711 0.4686188698 0.322835207
outer loop
vertex 37.51389313 22.66191864 326.6041565
vertex 37.38275909 23.04125214 325.7195129
vertex 37.22623444 22.20178986 326.5393677

endloop
endfacet
facet normal -0.713639915 0.5530136824 0.4299931526
outer loop
vertex 37.22623444 22.20178986 326.5393677
vertex 37.38275909 23.04125214 325.7195129
vertex 37.00470734 22.58713531 325.6761169

endloop
endfacet
facet normal -0.819152534 0.4153159559 0.3956030309
outer loop
vertex 37.22623444 22.20178986 326.5393677
vertex 37.00470734 22.58713531 325.6761169
vertex 36.98145294 21.79750824 326.4569397

endloop
endfacet
facet normal -0.732239306 0.4896475375 0.4733611643
outer loop
vertex 36.98145294 21.79750824 326.4569397
vertex 37.00470734 22.58713531 325.6761169
vertex 36.72052765 22.17009735 325.6679077

endloop
endfacet
facet normal -0.7265453935 0.4966781437 0.4748078287
outer loop
vertex 36.98145294 21.79750824 326.4569397
vertex 36.72052765 22.17011261 325.6679077
vertex 36.68564606 21.51618195 326.298584

endloop
endfacet
facet normal -0.7839460373 0.4521332979 0.4254457951
outer loop
vertex 36.68564606 21.51618195 326.298584
vertex 36.72052765 22.17011261 325.6679077
vertex 36.49770355 21.81273651 325.6371155

endloop
endfacet
facet normal -0.8977232575 -0.4365431964 0.05935500562
outer loop
vertex 36.68564606 21.51618195 326.298584
vertex 36.49770355 21.81273651 325.6371155
vertex 36.8456955 21.10805511 325.7175903

endloop
endfacet
facet normal -nan(ind) -nan(ind) -nan(ind)
outer loop
vertex 36.8456955 21.10805511 325.7175903
vertex 36.49770355 21.81273651 325.6371155
vertex 36.8456955 21.10805511 325.7175903

endloop
endfacet
endsolid
