solid 
facet normal -nan(ind) -nan(ind) -nan(ind)
outer loop
vertex 82.62871552 35.13207245 256.2352905
vertex 82.62871552 35.13207245 256.2352905
vertex 82.50978851 34.94283295 255.7585754

endloop
endfacet
facet normal 0.009821653366 0.9285585284 -0.3710560501
outer loop
vertex 82.50978851 34.94283295 255.7585754
vertex 82.62871552 35.13207245 256.2352905
vertex 82.89061737 34.98213959 255.8670197

endloop
endfacet
facet normal 0.2641073763 0.09040509164 -0.9602469206
outer loop
vertex 82.50978851 34.94283295 255.7585754
vertex 82.89061737 34.98213959 255.8670197
vertex 82.49745941 34.6556778 255.7281494

endloop
endfacet
facet normal 0.237184301 0.1242087334 -0.9634914398
outer loop
vertex 82.49745941 34.6556778 255.7281494
vertex 82.89061737 34.98213959 255.8670197
vertex 82.92028046 34.7183609 255.8403168

endloop
endfacet
facet normal 0.2427825481 0.09064297378 -0.9658367038
outer loop
vertex 82.49745941 34.6556778 255.7281494
vertex 82.92028046 34.7183609 255.8403168
vertex 82.53176117 34.3212204 255.7053833

endloop
endfacet
facet normal 0.2151335925 0.1188760549 -0.969322443
outer loop
vertex 82.53176117 34.3212204 255.7053833
vertex 82.92028046 34.7183609 255.8403168
vertex 82.97267914 34.39870453 255.8127441

endloop
endfacet
facet normal 0.2287640721 0.04559572786 -0.9724135399
outer loop
vertex 82.53176117 34.3212204 255.7053833
vertex 82.97267914 34.39870453 255.8127441
vertex 82.60253143 33.95508575 255.7048645

endloop
endfacet
facet normal 0.2433085293 0.03272645548 -0.9693967104
outer loop
vertex 82.60253143 33.95508575 255.7048645
vertex 82.97267914 34.39870453 255.8127441
vertex 83.04204559 34.03124237 255.817749

endloop
endfacet
facet normal 0.2388741672 0.0581833683 -0.9693058133
outer loop
vertex 82.60253143 33.95508575 255.7048645
vertex 83.04204559 34.03124237 255.817749
vertex 82.68398285 33.58382416 255.702652

endloop
endfacet
facet normal 0.2810086608 0.02192954347 -0.9594547153
outer loop
vertex 82.68398285 33.58382416 255.702652
vertex 83.04204559 34.03124237 255.817749
vertex 83.11971283 33.65419769 255.8318787

endloop
endfacet
facet normal 0.2735564411 0.06805416942 -0.9594454169
outer loop
vertex 82.68398285 33.58382416 255.702652
vertex 83.11971283 33.65419769 255.8318787
vertex 82.77150726 33.21651459 255.7015533

endloop
endfacet
facet normal 0.3374125659 0.01184415072 -0.9412823319
outer loop
vertex 82.77150726 33.21651459 255.7015533
vertex 83.11971283 33.65419769 255.8318787
vertex 83.19933319 33.280159 255.8557129

endloop
endfacet
facet normal 0.3241833448 0.09948094934 -0.9407489896
outer loop
vertex 82.77150726 33.21651459 255.7015533
vertex 83.19933319 33.280159 255.8557129
vertex 82.8911972 32.85764313 255.7048492

endloop
endfacet
facet normal 0.4582291543 -0.01687109657 -0.8886739612
outer loop
vertex 82.8911972 32.85764313 255.7048492
vertex 83.19933319 33.280159 255.8557129
vertex 83.2939682 32.91120148 255.9115143

endloop
endfacet
facet normal 0.4379631281 0.1357748508 -0.8886807561
outer loop
vertex 82.8911972 32.85762787 255.704834
vertex 83.2939682 32.91120148 255.9115143
vertex 83.03951263 32.50255585 255.7236786

endloop
endfacet
facet normal 0.6248465776 -0.03047925793 -0.7801523805
outer loop
vertex 83.03951263 32.50255585 255.7236786
vertex 83.2939682 32.91120148 255.9115143
vertex 83.39659882 32.54486847 256.0080261

endloop
endfacet
facet normal 0.6210354567 0.02367499284 -0.7834248543
outer loop
vertex 83.03951263 32.50255585 255.7236786
vertex 83.39659882 32.54486847 256.0080261
vertex 83.07701874 32.1387558 255.7424164

endloop
endfacet
facet normal 0.6416227221 -0.003259192687 -0.7670134306
outer loop
vertex 83.07701874 32.1387558 255.7424164
vertex 83.39659882 32.54486847 256.0080261
vertex 83.44811249 32.1717453 256.0527039

endloop
endfacet
facet normal 0.6432465315 -0.1120719016 -0.7574124932
outer loop
vertex 83.07701874 32.13877106 255.7424316
vertex 83.44814301 32.17176056 256.0527344
vertex 83.03984833 31.77115631 255.7652588

endloop
endfacet
facet normal 0.5981671214 -0.03513509408 -0.8006007671
outer loop
vertex 83.03984833 31.77115631 255.7652588
vertex 83.44814301 32.17176056 256.0527344
vertex 83.44768524 31.79332733 256.0690002

endloop
endfacet
facet normal 0.5982948542 -0.06894090772 -0.7983047366
outer loop
vertex 83.03984833 31.77115631 255.7652588
vertex 83.44768524 31.79332733 256.0690002
vertex 83.05632782 31.40300751 255.8094025

endloop
endfacet
facet normal 0.6488230228 -0.1550758779 -0.7449699044
outer loop
vertex 83.05632782 31.40300751 255.8094025
vertex 83.44768524 31.79332733 256.0690002
vertex 83.44603729 31.41977692 256.1453247

endloop
endfacet
facet normal 0.6533139348 -0.02494134381 -0.7566761971
outer loop
vertex 83.05632782 31.40300751 255.8094025
vertex 83.44603729 31.41977692 256.1453247
vertex 83.11742401 31.03269196 255.8743591

endloop
endfacet
facet normal 0.756930232 -0.2092093825 -0.6191027164
outer loop
vertex 83.11742401 31.03269196 255.8743591
vertex 83.44603729 31.41977692 256.1453247
vertex 83.44853973 31.0535965 256.2721252

endloop
endfacet
facet normal 0.7667210698 -0.1101594195 -0.632458508
outer loop
vertex 83.11742401 31.03269196 255.8743591
vertex 83.44853973 31.0535965 256.2721252
vertex 83.12221527 30.66287994 255.9445801

endloop
endfacet
facet normal 0.8095253706 -0.2197120339 -0.5444220304
outer loop
vertex 83.12221527 30.66287994 255.9445801
vertex 83.44853973 31.0535965 256.2721252
vertex 83.41677094 30.68843842 256.3722534

endloop
endfacet
facet normal 0.8153533936 -0.1779977828 -0.5509225726
outer loop
vertex 83.12221527 30.6628952 255.9446106
vertex 83.41677094 30.68846893 256.3722839
vertex 83.0896225 30.29380035 256.015625

endloop
endfacet
facet normal 0.8317548037 -0.2349055707 -0.5029943585
outer loop
vertex 83.0896225 30.29380035 256.015625
vertex 83.41677094 30.68846893 256.3722839
vertex 83.36449432 30.32314301 256.4564514

endloop
endfacet
facet normal 0.8344025612 -0.2192015797 -0.5056906343
outer loop
vertex 83.0896225 30.29380035 256.015625
vertex 83.36449432 30.32314301 256.4564514
vertex 83.03575897 29.92571259 256.0863037

endloop
endfacet
facet normal 0.8407995105 -0.2466646433 -0.4818845689
outer loop
vertex 83.03575897 29.92571259 256.0863037
vertex 83.36449432 30.32314301 256.4564514
vertex 83.30104828 29.95764923 256.5328369

endloop
endfacet
facet normal 0.8420646787 -0.2398271114 -0.4831252694
outer loop
vertex 83.03575897 29.92571259 256.0863037
vertex 83.30104828 29.95764923 256.5328369
vertex 82.97274017 29.55997467 256.15802

endloop
endfacet
facet normal 0.845713079 -0.257833451 -0.4672165215
outer loop
vertex 82.97274017 29.55997467 256.15802
vertex 83.30104828 29.95764923 256.5328369
vertex 83.23183441 29.59386444 256.6083069

endloop
endfacet
facet normal 0.845533967 -0.2587280571 -0.4670461714
outer loop
vertex 82.97274017 29.55997467 256.15802
vertex 83.23183441 29.59386444 256.6083069
vertex 82.90340424 29.2062912 256.2284241

endloop
endfacet
facet normal 0.8469710946 -0.2672733366 -0.4595702887
outer loop
vertex 82.90340424 29.2062912 256.2284241
vertex 83.23183441 29.59386444 256.6083069
vertex 83.15962982 29.24137115 256.6802368

endloop
endfacet
facet normal 0.8225831389 -0.3622007966 -0.4383693337
outer loop
vertex 82.90340424 29.2062912 256.2284241
vertex 83.15962982 29.24137115 256.6802368
vertex 82.81182098 28.90529633 256.3052673

endloop
endfacet
facet normal 0.8199903965 -0.3165617287 -0.4768694341
outer loop
vertex 82.81182098 28.90529633 256.3052673
vertex 83.15962982 29.24137115 256.6802368
vertex 83.06856537 28.93698883 256.725708

endloop
endfacet
facet normal 0.8022283912 -0.3790431917 -0.4612548947
outer loop
vertex 82.8118515 28.90529633 256.3052673
vertex 83.06856537 28.93698883 256.725708
vertex 82.72896576 28.6689682 256.3553162

endloop
endfacet
facet normal 0.7925935388 -0.2165555507 -0.569999218
outer loop
vertex 82.72896576 28.6689682 256.3553162
vertex 83.06856537 28.93698883 256.725708
vertex 82.98729706 28.69127655 256.7060547

endloop
endfacet
facet normal 0.116042234 -0.9929937124 -0.02231089212
outer loop
vertex 82.72896576 28.6689682 256.3553162
vertex 82.98729706 28.69127655 256.7060547
vertex 82.54320526 28.63735199 256.7962952

endloop
endfacet
facet normal -nan(ind) -nan(ind) -nan(ind)
outer loop
vertex 82.54320526 28.63735199 256.7962952
vertex 82.98729706 28.69127655 256.7060547
vertex 82.54320526 28.63735199 256.7962952

endloop
endfacet
facet normal 0.04951265454 -0.9122565985 0.4066156447
outer loop
vertex 82.62871552 35.13207245 256.2352905
vertex 82.628685 35.13205719 256.23526
vertex 82.89061737 34.98213959 255.8670197

endloop
endfacet
facet normal 0.1903060675 0.9490888715 -0.2510257661
outer loop
vertex 82.89061737 34.98213959 255.8670197
vertex 82.628685 35.13205719 256.23526
vertex 83.04088593 35.0030899 256.0601501

endloop
endfacet
facet normal 0.7724719048 0.1493520588 -0.6172366142
outer loop
vertex 82.89061737 34.98213959 255.8670197
vertex 83.04088593 35.0030899 256.0601501
vertex 82.92028046 34.7183609 255.8403168

endloop
endfacet
facet normal 0.7672912478 0.1553728431 -0.622192502
outer loop
vertex 82.92028046 34.7183609 255.8403168
vertex 83.04088593 35.0030899 256.0601501
vertex 83.10057831 34.74851227 256.0701904

endloop
endfacet
facet normal 0.7626748085 0.1786385328 -0.6216232777
outer loop
vertex 82.92028046 34.7183609 255.8403168
vertex 83.10057831 34.74851227 256.0701904
vertex 82.97267914 34.39870453 255.8127441

endloop
endfacet
facet normal 0.7410031557 0.2006844133 -0.6408120394
outer loop
vertex 82.97267914 34.39870453 255.8127441
vertex 83.10057831 34.74851227 256.0701904
vertex 83.17513275 34.43512726 256.0582581

endloop
endfacet
facet normal 0.7547611594 0.1337303668 -0.6422240734
outer loop
vertex 82.97267914 34.39870453 255.8127441
vertex 83.17513275 34.43512726 256.0582581
vertex 83.04204559 34.03124237 255.817749

endloop
endfacet
facet normal 0.7643267512 0.12486206 -0.632624805
outer loop
vertex 83.04204559 34.03124237 255.817749
vertex 83.17513275 34.43512726 256.0582581
vertex 83.24184418 34.0669632 256.0661926

endloop
endfacet
facet normal 0.7628447413 0.1334290504 -0.6326646209
outer loop
vertex 83.04204559 34.03124237 255.817749
vertex 83.24184418 34.0669632 256.0661926
vertex 83.11971283 33.65419769 255.8318787

endloop
endfacet
facet normal 0.7899361849 0.1088310555 -0.6034539342
outer loop
vertex 83.11971283 33.65419769 255.8318787
vertex 83.24184418 34.0669632 256.0661926
vertex 83.31044769 33.68712616 256.0874939

endloop
endfacet
facet normal 0.7867335081 0.1290031672 -0.6036627293
outer loop
vertex 83.11971283 33.65419769 255.8318787
vertex 83.31044769 33.68712616 256.0874939
vertex 83.19933319 33.280159 255.8557129

endloop
endfacet
facet normal 0.8257148266 0.09156045318 -0.556607306
outer loop
vertex 83.19933319 33.280159 255.8557129
vertex 83.31044769 33.68712616 256.0874939
vertex 83.37520599 33.30997467 256.121521

endloop
endfacet
facet normal 0.8207278848 0.1262399852 -0.5571976304
outer loop
vertex 83.19933319 33.280159 255.8557129
vertex 83.37520599 33.30997467 256.121521
vertex 83.2939682 32.91120148 255.9115143

endloop
endfacet
facet normal 0.8943379521 0.0518306382 -0.4443796277
outer loop
vertex 83.2939682 32.91120148 255.9115143
vertex 83.37520599 33.30997467 256.121521
vertex 83.43376923 32.93631744 256.1958008

endloop
endfacet
facet normal 0.8851128817 0.1302662194 -0.4467727244
outer loop
vertex 83.2939682 32.91120148 255.9115143
vertex 83.43376923 32.93631744 256.1958008
vertex 83.39659882 32.54486847 256.0080261

endloop
endfacet
facet normal 0.9658183455 0.03170191869 -0.2572740614
outer loop
vertex 83.39659882 32.54486847 256.0080261
vertex 83.43376923 32.93631744 256.1958008
vertex 83.47624969 32.56516266 256.3095398

endloop
endfacet
facet normal 0.9601468444 0.1013705507 -0.2604650557
outer loop
vertex 83.39659882 32.54486847 256.0080261
vertex 83.47624969 32.56516266 256.3095398
vertex 83.44811249 32.1717453 256.0527039

endloop
endfacet
facet normal 0.9711440802 0.07773712277 -0.2254685014
outer loop
vertex 83.44811249 32.1717453 256.0527039
vertex 83.47624969 32.56516266 256.3095398
vertex 83.51161957 32.19083405 256.3328247

endloop
endfacet
facet normal 0.975346446 -0.01065401919 -0.2204218656
outer loop
vertex 83.44814301 32.17176056 256.0527344
vertex 83.51165009 32.1908493 256.3328247
vertex 83.44768524 31.79332733 256.0690002

endloop
endfacet
facet normal 0.9574993253 0.03587047383 -0.2861963212
outer loop
vertex 83.44768524 31.79332733 256.0690002
vertex 83.51165009 32.1908493 256.3328247
vertex 83.52663422 31.81497955 256.3358459

endloop
endfacet
facet normal 0.9584562778 -0.06115373224 -0.2786068022
outer loop
vertex 83.44768524 31.79332733 256.0690002
vertex 83.52663422 31.81497955 256.3358459
vertex 83.44603729 31.41977692 256.1453247

endloop
endfacet
facet normal 0.972812593 -0.09701360762 -0.2102950215
outer loop
vertex 83.44603729 31.41977692 256.1453247
vertex 83.52663422 31.81497955 256.3358459
vertex 83.50905609 31.44773102 256.4239502

endloop
endfacet
facet normal 0.9745820761 -0.06733035296 -0.2136733383
outer loop
vertex 83.44603729 31.41977692 256.1453247
vertex 83.50905609 31.44773102 256.4239502
vertex 83.44853973 31.0535965 256.2721252

endloop
endfacet
facet normal 0.9898377657 -0.1360683143 -0.04131176695
outer loop
vertex 83.44853973 31.0535965 256.2721252
vertex 83.50905609 31.44773102 256.4239502
vertex 83.46556854 31.09046173 256.5587158

endloop
endfacet
facet normal 0.9939921498 -0.0991743505 -0.04630444199
outer loop
vertex 83.44853973 31.0535965 256.2721252
vertex 83.46556854 31.09046173 256.5587158
vertex 83.41677094 30.68843842 256.3722534

endloop
endfacet
facet normal 0.9881516695 -0.1442528516 0.05241578817
outer loop
vertex 83.41677094 30.68843842 256.3722534
vertex 83.46556854 31.09046173 256.5587158
vertex 83.40813446 30.73351288 256.6591187

endloop
endfacet
facet normal 0.9902281165 -0.1301670671 0.05004742369
outer loop
vertex 83.41677094 30.68846893 256.3722839
vertex 83.4081955 30.73352814 256.6591492
vertex 83.36449432 30.32314301 256.4564514

endloop
endfacet
facet normal 0.9828531742 -0.1544276774 0.1007558629
outer loop
vertex 83.36449432 30.32314301 256.4564514
vertex 83.4081955 30.73352814 256.6591492
vertex 83.34337616 30.37488556 256.7417603

endloop
endfacet
facet normal 0.9836396575 -0.149853915 0.09998458624
outer loop
vertex 83.36449432 30.32314301 256.4564514
vertex 83.34337616 30.37488556 256.7417603
vertex 83.30104828 29.95764923 256.5328369

endloop
endfacet
facet normal 0.9790171981 -0.1615276337 0.1242344454
outer loop
vertex 83.30104828 29.95764923 256.5328369
vertex 83.34337616 30.37488556 256.7417603
vertex 83.27428436 30.01390839 256.8168945

endloop
endfacet
facet normal 0.9791975021 -0.1605652124 0.1240608245
outer loop
vertex 83.30104828 29.95764923 256.5328369
vertex 83.27428436 30.01390839 256.8168945
vertex 83.23183441 29.59386444 256.6083069

endloop
endfacet
facet normal 0.9757139087 -0.1682564169 0.1402579397
outer loop
vertex 83.23183441 29.59386444 256.6083069
vertex 83.27428436 30.01390839 256.8168945
vertex 83.2014389 29.6536026 256.8914185

endloop
endfacet
facet normal 0.9751572013 -0.1710228324 0.1407819092
outer loop
vertex 83.23183441 29.59386444 256.6083069
vertex 83.2014389 29.6536026 256.8914185
vertex 83.15962982 29.24137115 256.6802368

endloop
endfacet
facet normal 0.9734045863 -0.1746661067 0.1482406706
outer loop
vertex 83.15962982 29.24137115 256.6802368
vertex 83.2014389 29.6536026 256.8914185
vertex 83.12770844 29.30318451 256.962677

endloop
endfacet
facet normal 0.9514754415 -0.2600922585 0.1644581407
outer loop
vertex 83.15962982 29.24137115 256.6802368
vertex 83.12770844 29.30318451 256.962677
vertex 83.06856537 28.93698883 256.725708

endloop
endfacet
facet normal 0.9630049467 -0.2376964688 0.1269717067
outer loop
vertex 83.06856537 28.93698883 256.725708
vertex 83.12770844 29.30318451 256.962677
vertex 83.04683685 28.99282074 256.9950256

endloop
endfacet
facet normal 0.9363585114 -0.3210527897 0.1419780701
outer loop
vertex 83.06856537 28.93698883 256.725708
vertex 83.04686737 28.99280548 256.9950256
vertex 82.98729706 28.69127655 256.7060547

endloop
endfacet
facet normal 0.9769929051 -0.2123183161 0.02014162205
outer loop
vertex 82.98729706 28.69127655 256.7060547
vertex 83.04686737 28.99280548 256.9950256
vertex 82.99156952 28.73406219 256.9498291

endloop
endfacet
facet normal 0.1524457633 -0.9738838077 0.1682577133
outer loop
vertex 82.98729706 28.69127655 256.7060547
vertex 82.99156952 28.73406219 256.9498291
vertex 82.54320526 28.63735199 256.7962952

endloop
endfacet
facet normal 0.3238272071 0 -0.9461162686
outer loop
vertex 82.54320526 28.63735199 256.7962952
vertex 82.99156952 28.73406219 256.9498291
vertex 82.54320526 28.63733673 256.7962952

endloop
endfacet
facet normal 0.07267711312 0.8770526648 -0.4748649001
outer loop
vertex 82.628685 35.13205719 256.23526
vertex 82.62871552 35.13208771 256.235321
vertex 83.04088593 35.0030899 256.0601501

endloop
endfacet
facet normal 0.2668240666 0.9604632258 -0.07946905494
outer loop
vertex 83.04088593 35.0030899 256.0601501
vertex 82.62871552 35.13208771 256.235321
vertex 83.07061005 35.01363373 256.287384

endloop
endfacet
facet normal 0.9656555653 0.2210369259 -0.1365722269
outer loop
vertex 83.04088593 35.0030899 256.0601501
vertex 83.07061005 35.01363373 256.287384
vertex 83.10057831 34.74851227 256.0701904

endloop
endfacet
facet normal 0.9685215354 0.2138531506 -0.1274077594
outer loop
vertex 83.10057831 34.74851227 256.0701904
vertex 83.07061005 35.01363373 256.287384
vertex 83.13347626 34.75749969 256.3353577

endloop
endfacet
facet normal 0.9638036489 0.2341443896 -0.1275101751
outer loop
vertex 83.10057831 34.74851227 256.0701904
vertex 83.13347626 34.75749969 256.3353577
vertex 83.17513275 34.43512726 256.0582581

endloop
endfacet
facet normal 0.9558483362 0.2525930703 -0.1501689404
outer loop
vertex 83.17513275 34.43512726 256.0582581
vertex 83.13347626 34.75749969 256.3353577
vertex 83.21767426 34.44367218 256.3434143

endloop
endfacet
facet normal 0.9733480811 0.1731295884 -0.1503984928
outer loop
vertex 83.17513275 34.43512726 256.0582581
vertex 83.21767426 34.44367218 256.3434143
vertex 83.24184418 34.0669632 256.0661926

endloop
endfacet
facet normal 0.976662755 0.1643862277 -0.1382283866
outer loop
vertex 83.24184418 34.0669632 256.0661926
vertex 83.21767426 34.44367218 256.3434143
vertex 83.28090668 34.07527924 256.3520813

endloop
endfacet
facet normal 0.9759550691 0.1685170382 -0.138251856
outer loop
vertex 83.24184418 34.0669632 256.0661926
vertex 83.28090668 34.07527924 256.3520813
vertex 83.31044769 33.68712616 256.0874939

endloop
endfacet
facet normal 0.9843413234 0.1441102624 -0.1015105098
outer loop
vertex 83.31044769 33.68712616 256.0874939
vertex 83.28090668 34.07527924 256.3520813
vertex 83.33892059 33.69481659 256.3745117

endloop
endfacet
facet normal 0.9819581509 0.1594317257 -0.1016846076
outer loop
vertex 83.31044769 33.68712616 256.0874939
vertex 83.33892059 33.69481659 256.3745117
vertex 83.37520599 33.30997467 256.121521

endloop
endfacet
facet normal 0.9915088415 0.1223838702 -0.043958731
outer loop
vertex 83.37520599 33.30997467 256.121521
vertex 83.33892059 33.69481659 256.3745117
vertex 83.38710785 33.31691742 256.4093018

endloop
endfacet
facet normal 0.9882779717 0.1460670084 -0.04439646378
outer loop
vertex 83.37520599 33.30997467 256.121521
vertex 83.38710785 33.31691742 256.4093018
vertex 83.43376923 32.93631744 256.1958008

endloop
endfacet
facet normal 0.9936125875 0.07405076921 0.08515001833
outer loop
vertex 83.43376923 32.93631744 256.1958008
vertex 83.38710785 33.31691742 256.4093018
vertex 83.40892792 32.94216156 256.4805908

endloop
endfacet
facet normal 0.9868637323 0.1384598166 0.08323960751
outer loop
vertex 83.43376923 32.93631744 256.1958008
vertex 83.40892792 32.94216156 256.4805908
vertex 83.47624969 32.56516266 256.3095398

endloop
endfacet
facet normal 0.9588162303 0.04389889538 0.2806143761
outer loop
vertex 83.47624969 32.56516266 256.3095398
vertex 83.40892792 32.94216156 256.4805908
vertex 83.39699554 32.57073212 256.5794678

endloop
endfacet
facet normal 0.9545350075 0.1074885577 0.2780452967
outer loop
vertex 83.47624969 32.56516266 256.3095398
vertex 83.39699554 32.57073212 256.5794678
vertex 83.51161957 32.19083405 256.3328247

endloop
endfacet
facet normal 0.9487763047 0.08955566585 0.3029906452
outer loop
vertex 83.51161957 32.19083405 256.3328247
vertex 83.39699554 32.57073212 256.5794678
vertex 83.43212128 32.2016983 256.5785522

endloop
endfacet
facet normal 0.9512031674 0.04037884623 0.3059120178
outer loop
vertex 83.51165009 32.1908493 256.3328247
vertex 83.43215179 32.20171356 256.5785828
vertex 83.52663422 31.81497955 256.3358459

endloop
endfacet
facet normal 0.9707400799 0.1001820043 0.2182366848
outer loop
vertex 83.52663422 31.81497955 256.3358459
vertex 83.43215179 32.20171356 256.5785828
vertex 83.47368622 31.83382416 256.5627136

endloop
endfacet
facet normal 0.9739428163 0.007759660948 0.2266611904
outer loop
vertex 83.52663422 31.81497955 256.3358459
vertex 83.47368622 31.83382416 256.5627136
vertex 83.50905609 31.44773102 256.4239502

endloop
endfacet
facet normal 0.9617928267 -0.01021886244 0.2735874057
outer loop
vertex 83.50905609 31.44773102 256.4239502
vertex 83.47368622 31.83382416 256.5627136
vertex 83.44863129 31.47496796 256.6373901

endloop
endfacet
facet normal 0.9616357088 -0.0137014538 0.2739872932
outer loop
vertex 83.50905609 31.44773102 256.4239502
vertex 83.44863129 31.47496796 256.6373901
vertex 83.46556854 31.09046173 256.5587158

endloop
endfacet
facet normal 0.9004731178 -0.04876150563 0.4321695864
outer loop
vertex 83.46556854 31.09046173 256.5587158
vertex 83.44863129 31.47496796 256.6373901
vertex 83.37163544 31.1266098 256.7585144

endloop
endfacet
facet normal 0.9029778242 -0.02462766692 0.4289808273
outer loop
vertex 83.46556854 31.09046173 256.5587158
vertex 83.37163544 31.1266098 256.7585144
vertex 83.40813446 30.73351288 256.6591187

endloop
endfacet
facet normal 0.8560311198 -0.05059582368 0.5144421458
outer loop
vertex 83.40813446 30.73351288 256.6591187
vertex 83.37163544 31.1266098 256.7585144
vertex 83.29665375 30.77770233 256.8489685

endloop
endfacet
facet normal 0.857853055 -0.03697860986 0.5125626922
outer loop
vertex 83.4081955 30.73352814 256.6591492
vertex 83.29668427 30.77771759 256.8489685
vertex 83.34337616 30.37488556 256.7417603

endloop
endfacet
facet normal 0.8304042816 -0.05139722303 0.5547856688
outer loop
vertex 83.34337616 30.37488556 256.7417603
vertex 83.29668427 30.77771759 256.8489685
vertex 83.22389984 30.42562103 256.925293

endloop
endfacet
facet normal 0.8316569328 -0.04396498576 0.5535464883
outer loop
vertex 83.34337616 30.37488556 256.7417603
vertex 83.22389984 30.42562103 256.925293
vertex 83.27428436 30.01390839 256.8168945

endloop
endfacet
facet normal 0.8176833391 -0.05090561509 0.5734130144
outer loop
vertex 83.27428436 30.01390839 256.8168945
vertex 83.22389984 30.42562103 256.925293
vertex 83.15145111 30.06903839 256.9969482

endloop
endfacet
facet normal 0.8184072971 -0.04700577259 0.572712779
outer loop
vertex 83.27428436 30.01390839 256.8168945
vertex 83.15145111 30.06903839 256.9969482
vertex 83.2014389 29.6536026 256.8914185

endloop
endfacet
facet normal 0.8088667989 -0.05146184191 0.5857356191
outer loop
vertex 83.2014389 29.6536026 256.8914185
vertex 83.15145111 30.06903839 256.9969482
vertex 83.07649994 29.7121048 257.0690918

endloop
endfacet
facet normal 0.8089374304 -0.05110869184 0.5856689811
outer loop
vertex 83.2014389 29.6536026 256.8914185
vertex 83.07649994 29.7121048 257.0690918
vertex 83.12770844 29.30318451 256.962677

endloop
endfacet
facet normal 0.8044272661 -0.05323282257 0.5916610956
outer loop
vertex 83.12770844 29.30318451 256.962677
vertex 83.07649994 29.7121048 257.0690918
vertex 83.00197601 29.36370087 257.1390686

endloop
endfacet
facet normal 0.7827322483 -0.1407706439 0.6062293053
outer loop
vertex 83.12770844 29.30318451 256.962677
vertex 83.00197601 29.36370087 257.1390686
vertex 83.04683685 28.99282074 256.9950256

endloop
endfacet
facet normal 0.8076557517 -0.1260267794 0.5760291219
outer loop
vertex 83.04683685 28.99282074 256.9950256
vertex 83.00197601 29.36370087 257.1390686
vertex 82.93282318 29.04759979 257.1668701

endloop
endfacet
facet normal 0.7618880868 -0.2659881413 0.5905734897
outer loop
vertex 83.04686737 28.99280548 256.9950256
vertex 82.93279266 29.04759979 257.1668701
vertex 82.99156952 28.73406219 256.9498291

endloop
endfacet
facet normal 0.8506070375 -0.1820158362 0.4932929873
outer loop
vertex 82.99156952 28.73406219 256.9498291
vertex 82.93279266 29.04759979 257.1668701
vertex 82.90166473 28.77864838 257.1213074

endloop
endfacet
facet normal 0.1018758118 -0.9484753013 0.3000264168
outer loop
vertex 82.99156952 28.73406219 256.9498291
vertex 82.90166473 28.77864838 257.1213074
vertex 82.54320526 28.63733673 256.7962952

endloop
endfacet
facet normal -0.6716925502 0 0.7408300042
outer loop
vertex 82.54320526 28.63733673 256.7962952
vertex 82.90166473 28.77864838 257.1213074
vertex 82.54320526 28.63735199 256.7962952

endloop
endfacet
facet normal -0.2753353417 -0.9412985444 0.1953139305
outer loop
vertex 82.62871552 35.13208771 256.235321
vertex 82.62874603 35.13207245 256.2352905
vertex 83.07061005 35.01363373 256.287384

endloop
endfacet
facet normal 0.2461180687 0.9637032747 0.1034499705
outer loop
vertex 83.07061005 35.01363373 256.287384
vertex 82.62874603 35.13207245 256.2352905
vertex 82.97841644 35.01259613 256.5163879

endloop
endfacet
facet normal 0.8886288404 0.2853555381 0.35904181
outer loop
vertex 83.07061005 35.01363373 256.287384
vertex 82.97841644 35.01259613 256.5163879
vertex 83.13347626 34.75749969 256.3353577

endloop
endfacet
facet normal 0.8746324778 0.2280575782 0.4277940392
outer loop
vertex 83.13347626 34.75749969 256.3353577
vertex 82.97841644 35.01259613 256.5163879
vertex 83.01696014 34.74410248 256.580719

endloop
endfacet
facet normal 0.8706519008 0.2445475757 0.4268041849
outer loop
vertex 83.13347626 34.75749969 256.3353577
vertex 83.01696014 34.74410248 256.580719
vertex 83.21767426 34.44367218 256.3434143

endloop
endfacet
facet normal 0.8692271113 0.2387392521 0.4329524636
outer loop
vertex 83.21767426 34.44367218 256.3434143
vertex 83.01696014 34.74410248 256.580719
vertex 83.09481049 34.42313385 256.6014099

endloop
endfacet
facet normal 0.8858056068 0.1622715592 0.4347600937
outer loop
vertex 83.21767426 34.44367218 256.3434143
vertex 83.09481049 34.42313385 256.6014099
vertex 83.28090668 34.07527924 256.3520813

endloop
endfacet
facet normal 0.8816068769 0.151164338 0.4471226335
outer loop
vertex 83.28090668 34.07527924 256.3520813
vertex 83.09481049 34.42313385 256.6014099
vertex 83.15441132 34.05495453 256.6083679

endloop
endfacet
facet normal 0.879978776 0.1605382562 0.4470624328
outer loop
vertex 83.28090668 34.07527924 256.3520813
vertex 83.15441132 34.05495453 256.6083679
vertex 83.33892059 33.69481659 256.3745117

endloop
endfacet
facet normal 0.8672401905 0.1327019483 0.4798797667
outer loop
vertex 83.33892059 33.69481659 256.3745117
vertex 83.15441132 34.05495453 256.6083679
vertex 83.20278168 33.67604828 256.6257324

endloop
endfacet
facet normal 0.8637984395 0.1543013752 0.4796282947
outer loop
vertex 83.33892059 33.69481659 256.3745117
vertex 83.20278168 33.67604828 256.6257324
vertex 83.38710785 33.31691742 256.4093018

endloop
endfacet
facet normal 0.8408278823 0.1124616787 0.5294912457
outer loop
vertex 83.38710785 33.31691742 256.4093018
vertex 83.20278168 33.67604828 256.6257324
vertex 83.23665619 33.29993439 256.651825

endloop
endfacet
facet normal 0.8355340958 0.1492380053 0.5287824869
outer loop
vertex 83.38710785 33.31691742 256.4093018
vertex 83.23665619 33.29993439 256.651825
vertex 83.40892792 32.94216156 256.4805908

endloop
endfacet
facet normal 0.7705001831 0.06764131784 0.6338407993
outer loop
vertex 83.40892792 32.94216156 256.4805908
vertex 83.23665619 33.29993439 256.651825
vertex 83.22960663 32.92783356 256.7001038

endloop
endfacet
facet normal 0.7617896795 0.1436867565 0.6316887736
outer loop
vertex 83.40892792 32.94216156 256.4805908
vertex 83.22960663 32.92783356 256.7001038
vertex 83.39699554 32.57073212 256.5794678

endloop
endfacet
facet normal 0.6409205794 0.04149334505 0.7664849162
outer loop
vertex 83.39699554 32.57073212 256.5794678
vertex 83.22960663 32.92783356 256.7001038
vertex 83.18138885 32.56093597 256.7602844

endloop
endfacet
facet normal 0.6398865581 0.05900544301 0.7662007213
outer loop
vertex 83.39699554 32.57073212 256.5794678
vertex 83.18138885 32.56093597 256.7602844
vertex 83.43212128 32.2016983 256.5785522

endloop
endfacet
facet normal 0.6761803627 0.1028955355 0.7295153141
outer loop
vertex 83.43212128 32.2016983 256.5785522
vertex 83.18138885 32.56093597 256.7602844
vertex 83.23253632 32.20404816 256.7632141

endloop
endfacet
facet normal 0.6786760688 0.04500105977 0.7330577374
outer loop
vertex 83.43215179 32.20171356 256.5785828
vertex 83.23253632 32.20407867 256.7632446
vertex 83.47368622 31.83382416 256.5627136

endloop
endfacet
facet normal 0.7588944435 0.1512154192 0.6334139109
outer loop
vertex 83.47368622 31.83382416 256.5627136
vertex 83.23253632 32.20407867 256.7632446
vertex 83.31603241 31.84934235 256.7478943

endloop
endfacet
facet normal 0.7622814178 0.08042377979 0.6422297359
outer loop
vertex 83.47368622 31.83382416 256.5627136
vertex 83.31603241 31.84934235 256.7478943
vertex 83.44863129 31.47496796 256.6373901

endloop
endfacet
facet normal 0.7252611518 0.05429470912 0.6863296032
outer loop
vertex 83.44863129 31.47496796 256.6373901
vertex 83.31603241 31.84934235 256.7478943
vertex 83.29918671 31.50034332 256.7933044

endloop
endfacet
facet normal 0.7260169387 0.07712891698 0.6833377481
outer loop
vertex 83.44863129 31.47496796 256.6373901
vertex 83.29918671 31.50034332 256.7933044
vertex 83.37163544 31.1266098 256.7585144

endloop
endfacet
facet normal 0.6007197499 0.04213378578 0.7983486056
outer loop
vertex 83.37163544 31.1266098 256.7585144
vertex 83.29918671 31.50034332 256.7933044
vertex 83.20037079 31.16059113 256.8855896

endloop
endfacet
facet normal 0.6038245559 0.07594767958 0.7934908271
outer loop
vertex 83.37163544 31.1266098 256.7585144
vertex 83.20037079 31.16059113 256.8855896
vertex 83.29665375 30.77770233 256.8489685

endloop
endfacet
facet normal 0.5252321959 0.05083333328 0.8494392633
outer loop
vertex 83.29665375 30.77770233 256.8489685
vertex 83.20037079 31.16059113 256.8855896
vertex 83.11461639 30.81917572 256.9590454

endloop
endfacet
facet normal 0.528380692 0.07411262393 0.8457666636
outer loop
vertex 83.29668427 30.77771759 256.8489685
vertex 83.11461639 30.8192215 256.9590759
vertex 83.22389984 30.42562103 256.925293

endloop
endfacet
facet normal 0.48572734 0.06001416966 0.8720477223
outer loop
vertex 83.22389984 30.42562103 256.925293
vertex 83.11461639 30.8192215 256.9590759
vertex 83.03759003 30.47327423 257.0257874

endloop
endfacet
facet normal 0.4882717431 0.07550510019 0.8694192171
outer loop
vertex 83.22389984 30.42562103 256.925293
vertex 83.03759003 30.47327423 257.0257874
vertex 83.15145111 30.06903839 256.9969482

endloop
endfacet
facet normal 0.4673776031 0.06876660883 0.8813791871
outer loop
vertex 83.15145111 30.06903839 256.9969482
vertex 83.03759003 30.47327423 257.0257874
vertex 82.9635849 30.12082672 257.0925293

endloop
endfacet
facet normal 0.4692930281 0.07921615243 0.8794822097
outer loop
vertex 83.15145111 30.06903839 256.9969482
vertex 82.9635849 30.12082672 257.0925293
vertex 83.07649994 29.7121048 257.0690918

endloop
endfacet
facet normal 0.4553495944 0.07492412627 0.8871545196
outer loop
vertex 83.07649994 29.7121048 257.0690918
vertex 82.9635849 30.12082672 257.0925293
vertex 82.88777924 29.7670517 257.1613159

endloop
endfacet
facet normal 0.4564262033 0.08034810424 0.8861259818
outer loop
vertex 83.07649994 29.7121048 257.0690918
vertex 82.88777924 29.7670517 257.1613159
vertex 83.00197601 29.36370087 257.1390686

endloop
endfacet
facet normal 0.4499267638 0.07831498981 0.8896250129
outer loop
vertex 83.00197601 29.36370087 257.1390686
vertex 82.88777924 29.7670517 257.1613159
vertex 82.81304169 29.42058563 257.2296143

endloop
endfacet
facet normal 0.4286239445 -0.01431669295 0.9033694863
outer loop
vertex 83.00197601 29.36370087 257.1390686
vertex 82.81304169 29.42058563 257.2296143
vertex 82.93282318 29.04759979 257.1668701

endloop
endfacet
facet normal 0.4632118046 -0.0003287971194 0.8862475157
outer loop
vertex 82.93282318 29.04759979 257.1668701
vertex 82.81304169 29.42058563 257.2296143
vertex 82.7559433 29.09905243 257.2593384

endloop
endfacet
facet normal 0.4082527757 -0.1982090473 0.8910908699
outer loop
vertex 82.93279266 29.04759979 257.1668701
vertex 82.7559433 29.09905243 257.2593384
vertex 82.90166473 28.77864838 257.1213074

endloop
endfacet
facet normal 0.5307471752 -0.1200505048 0.8389847279
outer loop
vertex 82.90166473 28.77864838 257.1213074
vertex 82.7559433 29.09905243 257.2593384
vertex 82.74074554 28.82285309 257.2294312

endloop
endfacet
facet normal 0.009205579758 -0.9207173586 0.3901214004
outer loop
vertex 82.90166473 28.77864838 257.1213074
vertex 82.74074554 28.82285309 257.2294312
vertex 82.54320526 28.63735199 256.7962952

endloop
endfacet
facet normal -nan(ind) -nan(ind) -nan(ind)
outer loop
vertex 82.54320526 28.63735199 256.7962952
vertex 82.74074554 28.82285309 257.2294312
vertex 82.54320526 28.63735199 256.7962952

endloop
endfacet
facet normal -0 0.9203192592 0.3911681473
outer loop
vertex 82.62874603 35.13207245 256.2352905
vertex 82.62871552 35.13207245 256.2352905
vertex 82.97841644 35.01259613 256.5163879

endloop
endfacet
facet normal 0.137200579 0.9615265131 0.2379974276
outer loop
vertex 82.97841644 35.01259613 256.5163879
vertex 82.62871552 35.13207245 256.2352905
vertex 82.79372406 35.00106049 256.6694641

endloop
endfacet
facet normal 0.6051071286 0.2666086555 0.7501767278
outer loop
vertex 82.97841644 35.01259613 256.5163879
vertex 82.79372406 35.00106049 256.6694641
vertex 83.01696014 34.74410248 256.580719

endloop
endfacet
facet normal 0.5911588669 0.2485792339 0.767293632
outer loop
vertex 83.01696014 34.74410248 256.580719
vertex 82.79372406 35.00106049 256.6694641
vertex 82.83040619 34.71996307 256.7322693

endloop
endfacet
facet normal 0.6028805971 0.1960814893 0.7733607888
outer loop
vertex 83.01696014 34.74410248 256.580719
vertex 82.83040619 34.71996307 256.7322693
vertex 83.09481049 34.42313385 256.6014099

endloop
endfacet
facet normal 0.6103429794 0.2065292746 0.764739871
outer loop
vertex 83.09481049 34.42313385 256.6014099
vertex 82.83040619 34.71996307 256.7322693
vertex 82.90694427 34.39083099 256.7600708

endloop
endfacet
facet normal 0.6290870309 0.1163614318 0.768576324
outer loop
vertex 83.09481049 34.42313385 256.6014099
vertex 82.90694427 34.39083099 256.7600708
vertex 83.15441132 34.05495453 256.6083679

endloop
endfacet
facet normal 0.6207879782 0.1065774858 0.7767004371
outer loop
vertex 83.15441132 34.05495453 256.6083679
vertex 82.90694427 34.39083099 256.7600708
vertex 82.96468353 34.02315521 256.7643738

endloop
endfacet
facet normal 0.6193981171 0.1146636978 0.7766583562
outer loop
vertex 83.15441132 34.05495453 256.6083679
vertex 82.96468353 34.02315521 256.7643738
vertex 83.20278168 33.67604828 256.6257324

endloop
endfacet
facet normal 0.5941947699 0.08826676756 0.7994633317
outer loop
vertex 83.20278168 33.67604828 256.6257324
vertex 82.96468353 34.02315521 256.7643738
vertex 83.00701141 33.64672089 256.7744751

endloop
endfacet
facet normal 0.5910162926 0.1086805537 0.7993048429
outer loop
vertex 83.20278168 33.67604828 256.6257324
vertex 83.00701141 33.64672089 256.7744751
vertex 83.23665619 33.29993439 256.651825

endloop
endfacet
facet normal 0.549497962 0.06940857321 0.8326069713
outer loop
vertex 83.23665619 33.29993439 256.651825
vertex 83.00701141 33.64672089 256.7744751
vertex 83.03252411 33.27341461 256.7887573

endloop
endfacet
facet normal 0.5456328392 0.09765288979 0.8323152661
outer loop
vertex 83.23665619 33.29993439 256.651825
vertex 83.03252411 33.27341461 256.7887573
vertex 83.22960663 32.92783356 256.7001038

endloop
endfacet
facet normal 0.4425207973 0.02238861099 0.8964787722
outer loop
vertex 83.22960663 32.92783356 256.7001038
vertex 83.03252411 33.27341461 256.7887573
vertex 83.01070404 32.90552521 256.8087158

endloop
endfacet
facet normal 0.4353138208 0.08972467482 0.8957964778
outer loop
vertex 83.22960663 32.92783356 256.7001038
vertex 83.01070404 32.90550995 256.8087158
vertex 83.18138885 32.56093597 256.7602844

endloop
endfacet
facet normal 0.2605477571 -0.006634197198 0.9654381871
outer loop
vertex 83.18138885 32.56093597 256.7602844
vertex 83.01070404 32.90550995 256.8087158
vertex 82.94225311 32.54431915 256.824707

endloop
endfacet
facet normal 0.2569626868 0.04475149512 0.9653846025
outer loop
vertex 83.18138885 32.56093597 256.7602844
vertex 82.94225311 32.54431915 256.824707
vertex 83.23253632 32.20404816 256.7632141

endloop
endfacet
facet normal 0.2554139793 0.0433444716 0.9658596516
outer loop
vertex 83.23253632 32.20404816 256.7632141
vertex 82.94225311 32.54431915 256.824707
vertex 82.97258759 32.19828033 256.8322144

endloop
endfacet
facet normal 0.2561540902 0.0184711311 0.9664594531
outer loop
vertex 83.23253632 32.20407867 256.7632446
vertex 82.9726181 32.19829559 256.8322449
vertex 83.31603241 31.84934235 256.7478943

endloop
endfacet
facet normal 0.3633862436 0.1347876191 0.9218366146
outer loop
vertex 83.31603241 31.84934235 256.7478943
vertex 82.9726181 32.19829559 256.8322449
vertex 83.06954193 31.85851288 256.8437195

endloop
endfacet
facet normal 0.3637404144 0.1029034778 0.9257990122
outer loop
vertex 83.31603241 31.84934235 256.7478943
vertex 83.06954193 31.85851288 256.8437195
vertex 83.29918671 31.50034332 256.7933044

endloop
endfacet
facet normal 0.3564204276 0.09773142636 0.9292001724
outer loop
vertex 83.29918671 31.50034332 256.7933044
vertex 83.06954193 31.85851288 256.8437195
vertex 83.06987762 31.52216339 256.8789673

endloop
endfacet
facet normal 0.3583668172 0.1462241113 0.9220584035
outer loop
vertex 83.29918671 31.50034332 256.7933044
vertex 83.06987762 31.52216339 256.8789673
vertex 83.20037079 31.16059113 256.8855896

endloop
endfacet
facet normal 0.2027463764 0.0910294205 0.9749910235
outer loop
vertex 83.20037079 31.16059113 256.8855896
vertex 83.06987762 31.52216339 256.8789673
vertex 82.96175385 31.19031525 256.9324341

endloop
endfacet
facet normal 0.2088918537 0.1552674472 0.965534091
outer loop
vertex 83.20037079 31.16059113 256.8855896
vertex 82.96175385 31.19031525 256.9324341
vertex 83.11461639 30.81917572 256.9590454

endloop
endfacet
facet normal 0.114434056 0.1178599447 0.9864146709
outer loop
vertex 83.11461639 30.81917572 256.9590454
vertex 82.96175385 31.19031525 256.9324341
vertex 82.87248993 30.85555267 256.9827881

endloop
endfacet
facet normal 0.1203683764 0.1620662361 0.9794110656
outer loop
vertex 83.11461639 30.8192215 256.9590759
vertex 82.87248993 30.85556793 256.9828186
vertex 83.03759003 30.47327423 257.0257874

endloop
endfacet
facet normal 0.07100994885 0.1416442245 0.9873675108
outer loop
vertex 83.03759003 30.47327423 257.0257874
vertex 82.87248993 30.85556793 256.9828186
vertex 82.7951889 30.51502228 257.0372314

endloop
endfacet
facet normal 0.07569170743 0.1701607257 0.9825050235
outer loop
vertex 83.03759003 30.47327423 257.0257874
vertex 82.7951889 30.51502228 257.0372314
vertex 82.9635849 30.12082672 257.0925293

endloop
endfacet
facet normal 0.05184350163 0.1604193151 0.985686481
outer loop
vertex 82.9635849 30.12082672 257.0925293
vertex 82.7951889 30.51502228 257.0372314
vertex 82.72158051 30.16622162 257.0978699

endloop
endfacet
facet normal 0.05528027192 0.1791432053 0.9822687507
outer loop
vertex 82.9635849 30.12082672 257.0925293
vertex 82.72158051 30.16622162 257.0978699
vertex 82.88777924 29.7670517 257.1613159

endloop
endfacet
facet normal 0.03943566233 0.1728465706 0.9841589928
outer loop
vertex 82.88777924 29.7670517 257.1613159
vertex 82.72158051 30.16622162 257.0978699
vertex 82.64611053 29.81523895 257.1625366

endloop
endfacet
facet normal 0.04175981507 0.1845589727 0.9819338322
outer loop
vertex 82.88777924 29.7670517 257.1613159
vertex 82.64611053 29.81523895 257.1625366
vertex 82.81304169 29.42058563 257.2296143

endloop
endfacet
facet normal 0.0343824923 0.1815814078 0.9827746749
outer loop
vertex 82.81304169 29.42058563 257.2296143
vertex 82.64611053 29.81523895 257.1625366
vertex 82.5717392 29.47040558 257.2288513

endloop
endfacet
facet normal 0.0152982166 0.08934767544 0.995882988
outer loop
vertex 82.81304169 29.42058563 257.2296143
vertex 82.5717392 29.47040558 257.2288513
vertex 82.7559433 29.09905243 257.2593384

endloop
endfacet
facet normal 0.05288754031 0.1077378467 0.9927715659
outer loop
vertex 82.7559433 29.09905243 257.2593384
vertex 82.5717392 29.47040558 257.2288513
vertex 82.52654266 29.14417267 257.2666626

endloop
endfacet
facet normal 0.01045527682 -0.1082147658 0.9940725565
outer loop
vertex 82.7559433 29.09905243 257.2593384
vertex 82.52657318 29.14417267 257.2666626
vertex 82.74074554 28.82285309 257.2294312

endloop
endfacet
facet normal 0.106156826 -0.04434332624 0.9933601618
outer loop
vertex 82.74074554 28.82285309 257.2294312
vertex 82.52657318 29.14417267 257.2666626
vertex 82.51992035 28.86162567 257.2547607

endloop
endfacet
facet normal -0.1075769141 -0.8952128291 0.4324593842
outer loop
vertex 82.74074554 28.82285309 257.2294312
vertex 82.51992035 28.86162567 257.2547607
vertex 82.54320526 28.63735199 256.7962952

endloop
endfacet
facet normal -nan(ind) -nan(ind) -nan(ind)
outer loop
vertex 82.54320526 28.63735199 256.7962952
vertex 82.51992035 28.86162567 257.2547607
vertex 82.54320526 28.63735199 256.7962952

endloop
endfacet
facet normal -0 -0.9573639035 -0.2888847589
outer loop
vertex 82.62871552 35.13207245 256.2352905
vertex 82.62874603 35.13207245 256.2352905
vertex 82.79372406 35.00106049 256.6694641

endloop
endfacet
facet normal -0.01827082224 0.9552627802 0.2951933146
outer loop
vertex 82.79372406 35.00106049 256.6694641
vertex 82.62874603 35.13207245 256.2352905
vertex 82.57701874 34.9830246 256.7144165

endloop
endfacet
facet normal 0.1784172654 0.2366720438 0.9550673366
outer loop
vertex 82.79372406 35.00106049 256.6694641
vertex 82.57701874 34.9830246 256.7144165
vertex 82.83040619 34.71996307 256.7322693

endloop
endfacet
facet normal 0.1837531626 0.2416581064 0.952804327
outer loop
vertex 82.83040619 34.71996307 256.7322693
vertex 82.57701874 34.9830246 256.7144165
vertex 82.62392426 34.69142914 256.7793274

endloop
endfacet
facet normal 0.2033272535 0.1292635351 0.9705405831
outer loop
vertex 82.83040619 34.71996307 256.7322693
vertex 82.62392426 34.69142914 256.7793274
vertex 82.90694427 34.39083099 256.7600708

endloop
endfacet
facet normal 0.2176676989 0.1430897564 0.9654771686
outer loop
vertex 82.90694427 34.39083099 256.7600708
vertex 82.62392426 34.69142914 256.7793274
vertex 82.69860077 34.35462189 256.8124084

endloop
endfacet
facet normal 0.2354441136 0.04833390191 0.9706852436
outer loop
vertex 82.90694427 34.39083099 256.7600708
vertex 82.69860077 34.35462189 256.8124084
vertex 82.96468353 34.02315521 256.7643738

endloop
endfacet
facet normal 0.2248050123 0.03936984763 0.9736081362
outer loop
vertex 82.96468353 34.02315521 256.7643738
vertex 82.69860077 34.35462189 256.8124084
vertex 82.75588226 33.9875412 256.8140259

endloop
endfacet
facet normal 0.2227723598 0.0511732921 0.9735264778
outer loop
vertex 82.96468353 34.02315521 256.7643738
vertex 82.75588226 33.9875412 256.8140259
vertex 83.00701141 33.64672089 256.7744751

endloop
endfacet
facet normal 0.1902199984 0.02627499774 0.9813898206
outer loop
vertex 83.00701141 33.64672089 256.7744751
vertex 82.75588226 33.9875412 256.8140259
vertex 82.79616547 33.6138382 256.8162231

endloop
endfacet
facet normal 0.1864346862 0.05028012022 0.9811799526
outer loop
vertex 83.00701141 33.64672089 256.7744751
vertex 82.79616547 33.6138382 256.8162231
vertex 83.03252411 33.27341461 256.7887573

endloop
endfacet
facet normal 0.1347693205 0.01363365911 0.9907832742
outer loop
vertex 83.03252411 33.27341461 256.7887573
vertex 82.79616547 33.6138382 256.8162231
vertex 82.8194809 33.24364471 256.8181458

endloop
endfacet
facet normal 0.1301951557 0.04600956663 0.9904202819
outer loop
vertex 83.03252411 33.27341461 256.7887573
vertex 82.8194809 33.24364471 256.8181458
vertex 83.01070404 32.90552521 256.8087158

endloop
endfacet
facet normal 0.01014447305 -0.02214387618 0.9997033477
outer loop
vertex 83.01070404 32.90552521 256.8087158
vertex 82.8194809 33.24364471 256.8181458
vertex 82.79665375 32.88048553 256.8103333

endloop
endfacet
facet normal 0.002428736305 0.04377074167 0.9990386367
outer loop
vertex 83.01070404 32.90550995 256.8087158
vertex 82.79665375 32.88047028 256.8103333
vertex 82.94225311 32.54431915 256.824707

endloop
endfacet
facet normal -0.1865825653 -0.03883960843 0.9816712737
outer loop
vertex 82.94225311 32.54431915 256.824707
vertex 82.79665375 32.88047028 256.8103333
vertex 82.72743988 32.52494049 256.7831116

endloop
endfacet
facet normal -0.1905020624 0.004597694613 0.9816759825
outer loop
vertex 82.94225311 32.54431915 256.824707
vertex 82.72743988 32.52494049 256.7831116
vertex 82.97258759 32.19828033 256.8322144

endloop
endfacet
facet normal -0.2011933476 -0.00374619686 0.9795444012
outer loop
vertex 82.97258759 32.19828033 256.8322144
vertex 82.72743988 32.52494049 256.7831116
vertex 82.7276535 32.18630219 256.7818604

endloop
endfacet
facet normal -0.2002753317 -0.02405273728 0.979444325
outer loop
vertex 82.9726181 32.19829559 256.8322449
vertex 82.7276535 32.18630219 256.7818604
vertex 83.06954193 31.85851288 256.8437195

endloop
endfacet
facet normal -0.1050762907 0.07750468701 0.9914394021
outer loop
vertex 83.06954193 31.85851288 256.8437195
vertex 82.7276535 32.18630219 256.7818604
vertex 82.79747772 31.85857391 256.8148804

endloop
endfacet
facet normal -0.1048209667 0.1035467908 0.9890857339
outer loop
vertex 83.06954193 31.85851288 256.8437195
vertex 82.79747772 31.85857391 256.8148804
vertex 83.06987762 31.52216339 256.8789673

endloop
endfacet
facet normal -0.1341446489 0.07955080271 0.9877635837
outer loop
vertex 83.06987762 31.52216339 256.8789673
vertex 82.79747772 31.85857391 256.8148804
vertex 82.79592133 31.53272247 256.8409119

endloop
endfacet
facet normal -0.1273687184 0.1980863214 0.9718739986
outer loop
vertex 83.06987762 31.52216339 256.8789673
vertex 82.79592133 31.53272247 256.8409119
vertex 82.96175385 31.19031525 256.9324341

endloop
endfacet
facet normal -0.2897924781 0.1136601865 0.950316608
outer loop
vertex 82.96175385 31.19031525 256.9324341
vertex 82.79592133 31.53272247 256.8409119
vertex 82.69631195 31.20526886 256.8497009

endloop
endfacet
facet normal -0.2795113921 0.2152760923 0.9356973171
outer loop
vertex 82.96175385 31.19031525 256.9324341
vertex 82.69631195 31.20526886 256.8497009
vertex 82.87248993 30.85555267 256.9827881

endloop
endfacet
facet normal -0.3718133271 0.1606352925 0.9143036604
outer loop
vertex 82.87248993 30.85555267 256.9827881
vertex 82.69631195 31.20526886 256.8497009
vertex 82.61525726 30.8738327 256.8749695

endloop
endfacet
facet normal -0.3627800941 0.2267683446 0.9038621187
outer loop
vertex 82.87248993 30.85556793 256.9828186
vertex 82.61528778 30.87384796 256.875
vertex 82.7951889 30.51502228 257.0372314

endloop
endfacet
facet normal -0.4093977511 0.1974596679 0.8907318115
outer loop
vertex 82.7951889 30.51502228 257.0372314
vertex 82.61528778 30.87384796 256.875
vertex 82.54351044 30.53601837 256.9169006

endloop
endfacet
facet normal -0.402615875 0.2385994345 0.8837254643
outer loop
vertex 82.7951889 30.51502228 257.0372314
vertex 82.54351044 30.53601837 256.9169006
vertex 82.72158051 30.16622162 257.0978699

endloop
endfacet
facet normal -0.4247966707 0.2246177197 0.8769804239
outer loop
vertex 82.72158051 30.16622162 257.0978699
vertex 82.54351044 30.53601837 256.9169006
vertex 82.4729538 30.18906403 256.9715881

endloop
endfacet
facet normal -0.4199269712 0.250986129 0.8721624017
outer loop
vertex 82.72158051 30.16622162 257.0978699
vertex 82.4729538 30.18906403 256.9715881
vertex 82.64611053 29.81523895 257.1625366

endloop
endfacet
facet normal -0.434756428 0.2417341322 0.8674972057
outer loop
vertex 82.64611053 29.81523895 257.1625366
vertex 82.4729538 30.18906403 256.9715881
vertex 82.39955902 29.83945465 257.0322266

endloop
endfacet
facet normal -0.4312862158 0.2592065036 0.8641782999
outer loop
vertex 82.64611053 29.81523895 257.1625366
vertex 82.39955902 29.83945465 257.0322266
vertex 82.5717392 29.47040558 257.2288513

endloop
endfacet
facet normal -0.4381019771 0.2548836172 0.8620330691
outer loop
vertex 82.5717392 29.47040558 257.2288513
vertex 82.39955902 29.83945465 257.0322266
vertex 82.32631683 29.49547577 257.0967102

endloop
endfacet
facet normal -0.4545457661 0.1644358784 0.875413537
outer loop
vertex 82.5717392 29.47040558 257.2288513
vertex 82.32631683 29.49547577 257.0967102
vertex 82.52654266 29.14417267 257.2666626

endloop
endfacet
facet normal -0.4214147627 0.1889114082 0.8869736195
outer loop
vertex 82.52654266 29.14417267 257.2666626
vertex 82.32631683 29.49547577 257.0967102
vertex 82.28942108 29.16686249 257.1491699

endloop
endfacet
facet normal -0.4459068179 -0.02718714997 0.8946664333
outer loop
vertex 82.52657318 29.14417267 257.2666626
vertex 82.28939056 29.16687775 257.1491394
vertex 82.51992035 28.86162567 257.2547607

endloop
endfacet
facet normal -0.3858766556 0.02765309252 0.9221358895
outer loop
vertex 82.51992035 28.86162567 257.2547607
vertex 82.28939056 29.16687775 257.1491394
vertex 82.28984833 28.88018036 257.1579285

endloop
endfacet
facet normal -0.2456447184 -0.8756230474 0.41586411
outer loop
vertex 82.51992035 28.86162567 257.2547607
vertex 82.28984833 28.88018036 257.1579285
vertex 82.54320526 28.63735199 256.7962952

endloop
endfacet
facet normal -nan(ind) -nan(ind) -nan(ind)
outer loop
vertex 82.54320526 28.63735199 256.7962952
vertex 82.28984833 28.88018036 257.1579285
vertex 82.54320526 28.63735199 256.7962952

endloop
endfacet
facet normal -0 0.9548643827 0.297041893
outer loop
vertex 82.62874603 35.13207245 256.2352905
vertex 82.62871552 35.13207245 256.2352905
vertex 82.57701874 34.9830246 256.7144165

endloop
endfacet
facet normal -0.1804676354 0.9445415735 0.2743585408
outer loop
vertex 82.57701874 34.9830246 256.7144165
vertex 82.62871552 35.13207245 256.2352905
vertex 82.37905121 34.96265411 256.6543274

endloop
endfacet
facet normal -0.3017722666 0.1606508046 0.9397472143
outer loop
vertex 82.57701874 34.9830246 256.7144165
vertex 82.37905121 34.96265411 256.6543274
vertex 82.62392426 34.69142914 256.7793274

endloop
endfacet
facet normal -0.2643991113 0.19644247 0.9441946149
outer loop
vertex 82.62392426 34.69142914 256.7793274
vertex 82.37905121 34.96265411 256.6543274
vertex 82.42308807 34.6616745 256.7292786

endloop
endfacet
facet normal -0.2472246587 0.04027402773 0.968120873
outer loop
vertex 82.62392426 34.69142914 256.7793274
vertex 82.42308807 34.6616745 256.7292786
vertex 82.69860077 34.35462189 256.8124084

endloop
endfacet
facet normal -0.228824228 0.05776749924 0.9717522264
outer loop
vertex 82.69860077 34.35462189 256.8124084
vertex 82.42308807 34.6616745 256.7292786
vertex 82.4877243 34.31758881 256.7649536

endloop
endfacet
facet normal -0.2145718485 -0.02918143943 0.9762721062
outer loop
vertex 82.69860077 34.35462189 256.8124084
vertex 82.4877243 34.31758881 256.7649536
vertex 82.75588226 33.9875412 256.8140259

endloop
endfacet
facet normal -0.2252827585 -0.03828996792 0.9735407829
outer loop
vertex 82.75588226 33.9875412 256.8140259
vertex 82.4877243 34.31758881 256.7649536
vertex 82.5455246 33.95113373 256.763916

endloop
endfacet
facet normal -0.2285876572 -0.01891758479 0.9733395576
outer loop
vertex 82.75588226 33.9875412 256.8140259
vertex 82.5455246 33.95113373 256.763916
vertex 82.79616547 33.6138382 256.8162231

endloop
endfacet
facet normal -0.2606531382 -0.04412778839 0.9644234776
outer loop
vertex 82.79616547 33.6138382 256.8162231
vertex 82.5455246 33.95113373 256.763916
vertex 82.5875473 33.58019257 256.7583008

endloop
endfacet
facet normal -0.2657521069 -0.01173113286 0.9639700055
outer loop
vertex 82.79616547 33.6138382 256.8162231
vertex 82.5875473 33.58019257 256.7583008
vertex 82.8194809 33.24364471 256.8181458

endloop
endfacet
facet normal -0.3154951334 -0.04891099036 0.9476658106
outer loop
vertex 82.8194809 33.24364471 256.8181458
vertex 82.5875473 33.58019257 256.7583008
vertex 82.61437225 33.21321869 256.748291

endloop
endfacet
facet normal -0.3223766685 -0.0001004027072 0.946611464
outer loop
vertex 82.8194809 33.24364471 256.8181458
vertex 82.61437225 33.21321869 256.748291
vertex 82.79665375 32.88048553 256.8103333

endloop
endfacet
facet normal -0.4325125515 -0.06932164729 0.8989591002
outer loop
vertex 82.79665375 32.88048553 256.8103333
vertex 82.61437225 33.21321869 256.748291
vertex 82.60305023 32.85486603 256.71521

endloop
endfacet
facet normal -0.4427809119 0.01756107993 0.8964579105
outer loop
vertex 82.79665375 32.88047028 256.8103333
vertex 82.60305023 32.85485077 256.71521
vertex 82.72743988 32.52494049 256.7831116

endloop
endfacet
facet normal -0.6031467319 -0.06376947463 0.7950770259
outer loop
vertex 82.72743988 32.52494049 256.7831116
vertex 82.60305023 32.85485077 256.71521
vertex 82.55510712 32.50470734 256.6507568

endloop
endfacet
facet normal -0.6088582873 -0.003315113951 0.793272078
outer loop
vertex 82.72743988 32.52494049 256.7831116
vertex 82.55510712 32.50470734 256.6507568
vertex 82.7276535 32.18630219 256.7818604

endloop
endfacet
facet normal -0.6225522161 -0.01519990992 0.7824306488
outer loop
vertex 82.7276535 32.18630219 256.7818604
vertex 82.55510712 32.50470734 256.6507568
vertex 82.54711151 32.17082977 256.6379089

endloop
endfacet
facet normal -0.6197399497 -0.05314770341 0.7830055952
outer loop
vertex 82.7276535 32.18630219 256.7818604
vertex 82.54714203 32.17086029 256.6379395
vertex 82.79747772 31.85857391 256.8148804

endloop
endfacet
facet normal -0.5429595113 0.04001700506 0.8388049006
outer loop
vertex 82.79747772 31.85857391 256.8148804
vertex 82.54714203 32.17086029 256.6379395
vertex 82.57689667 31.8491745 256.6725464

endloop
endfacet
facet normal -0.5429689884 0.069449462 0.8368759751
outer loop
vertex 82.79747772 31.85857391 256.8148804
vertex 82.57689667 31.8491745 256.6725464
vertex 82.79592133 31.53272247 256.8409119

endloop
endfacet
facet normal -0.5749368072 0.0369422324 0.817363441
outer loop
vertex 82.79592133 31.53272247 256.8409119
vertex 82.57689667 31.8491745 256.6725464
vertex 82.56127167 31.52700043 256.6761169

endloop
endfacet
facet normal -0.5669748783 0.1939581931 0.8005745411
outer loop
vertex 82.79592133 31.53272247 256.8409119
vertex 82.56127167 31.52700043 256.6761169
vertex 82.69631195 31.20526886 256.8497009

endloop
endfacet
facet normal -0.6980240345 0.09027976543 0.710360527
outer loop
vertex 82.69631195 31.20526886 256.8497009
vertex 82.56127167 31.52700043 256.6761169
vertex 82.4885788 31.19835663 256.6464539

endloop
endfacet
facet normal -0.685857892 0.2206023186 0.6934937239
outer loop
vertex 82.69631195 31.20526886 256.8497009
vertex 82.4885788 31.19835663 256.6464539
vertex 82.61525726 30.8738327 256.8749695

endloop
endfacet
facet normal -0.7557406425 0.1533121467 0.6366721392
outer loop
vertex 82.61525726 30.8738327 256.8749695
vertex 82.4885788 31.19835663 256.6464539
vertex 82.42632294 30.86536407 256.6527405

endloop
endfacet
facet normal -0.7448174357 0.2356751263 0.6242629886
outer loop
vertex 82.61528778 30.87384796 256.875
vertex 82.42635345 30.86539459 256.652771
vertex 82.54351044 30.53601837 256.9169006

endloop
endfacet
facet normal -0.7792154551 0.1993409395 0.5942108035
outer loop
vertex 82.54351044 30.53601837 256.9169006
vertex 82.42635345 30.86539459 256.652771
vertex 82.36495209 30.52631378 256.6860046

endloop
endfacet
facet normal -0.771145463 0.2491668314 0.5858758688
outer loop
vertex 82.54351044 30.53601837 256.9169006
vertex 82.36495209 30.52631378 256.6860046
vertex 82.4729538 30.18906403 256.9715881

endloop
endfacet
facet normal -0.7872184515 0.2318031788 0.571449399
outer loop
vertex 82.4729538 30.18906403 256.9715881
vertex 82.36495209 30.52631378 256.6860046
vertex 82.29946136 30.17848969 256.7368774

endloop
endfacet
facet normal -0.7816232443 0.2622495294 0.5659418702
outer loop
vertex 82.4729538 30.18906403 256.9715881
vertex 82.29946136 30.17848969 256.7368774
vertex 82.39955902 29.83945465 257.0322266

endloop
endfacet
facet normal -0.792196691 0.2507788837 0.5563580394
outer loop
vertex 82.39955902 29.83945465 257.0322266
vertex 82.29946136 30.17848969 256.7368774
vertex 82.22939301 29.82823944 256.7949829

endloop
endfacet
facet normal -0.7881234288 0.2713791132 0.5524626374
outer loop
vertex 82.39955902 29.83945465 257.0322266
vertex 82.22939301 29.82823944 256.7949829
vertex 82.32631683 29.49547577 257.0967102

endloop
endfacet
facet normal -0.7930747271 0.2659082711 0.5480195284
outer loop
vertex 82.32631683 29.49547577 257.0967102
vertex 82.22939301 29.82823944 256.7949829
vertex 82.15773773 29.48389435 256.8583679

endloop
endfacet
facet normal -0.8071443439 0.1803617179 0.562127769
outer loop
vertex 82.32631683 29.49547577 257.0967102
vertex 82.15773773 29.48389435 256.8583679
vertex 82.28942108 29.16686249 257.1491699

endloop
endfacet
facet normal -0.7846642137 0.209316209 0.5835142732
outer loop
vertex 82.28942108 29.16686249 257.1491699
vertex 82.15773773 29.48389435 256.8583679
vertex 82.12227631 29.15639496 256.9281616

endloop
endfacet
facet normal -0.7979160547 0.01719705202 0.6025231481
outer loop
vertex 82.28939056 29.16687775 257.1491394
vertex 82.12227631 29.1563797 256.9281311
vertex 82.28984833 28.88018036 257.1579285

endloop
endfacet
facet normal -0.7745085955 0.05443935841 0.6302164197
outer loop
vertex 82.28984833 28.88018036 257.1579285
vertex 82.12227631 29.1563797 256.9281311
vertex 82.12743378 28.87010956 256.959198

endloop
endfacet
facet normal -0.356603086 -0.8718901873 0.3356212378
outer loop
vertex 82.28984833 28.88018036 257.1579285
vertex 82.12743378 28.87010956 256.959198
vertex 82.54320526 28.63735199 256.7962952

endloop
endfacet
facet normal 0.4885331392 0.8725453019 0
outer loop
vertex 82.54320526 28.63735199 256.7962952
vertex 82.12743378 28.87010956 256.959198
vertex 82.54320526 28.63735199 256.7963257

endloop
endfacet
facet normal -nan(ind) -nan(ind) -nan(ind)
outer loop
vertex 82.62871552 35.13207245 256.2352905
vertex 82.62871552 35.13207245 256.2352905
vertex 82.37905121 34.96265411 256.6543274

endloop
endfacet
facet normal -0.3065652549 0.9318497181 0.1940975487
outer loop
vertex 82.37905121 34.96265411 256.6543274
vertex 82.62871552 35.13207245 256.2352905
vertex 82.23030853 34.94351959 256.511261

endloop
endfacet
facet normal -0.6962755322 0.07586853951 0.7137537003
outer loop
vertex 82.37905121 34.96265411 256.6543274
vertex 82.23030853 34.94351959 256.511261
vertex 82.42308807 34.6616745 256.7292786

endloop
endfacet
facet normal -0.6395604014 0.1463241428 0.7546864748
outer loop
vertex 82.42308807 34.6616745 256.7292786
vertex 82.23030853 34.94351959 256.511261
vertex 82.2514267 34.63430023 256.5891113

endloop
endfacet
facet normal -0.6284336448 -0.03749513254 0.776959002
outer loop
vertex 82.42308807 34.6616745 256.7292786
vertex 82.2514267 34.63430023 256.5891113
vertex 82.4877243 34.31758881 256.7649536

endloop
endfacet
facet normal -0.6092151999 -0.01431908365 0.7928756475
outer loop
vertex 82.4877243 34.31758881 256.7649536
vertex 82.2514267 34.63430023 256.5891113
vertex 82.30068207 34.28427887 256.620636

endloop
endfacet
facet normal -0.5972057581 -0.09645077586 0.7962678075
outer loop
vertex 82.4877243 34.31758881 256.7649536
vertex 82.30068207 34.28427887 256.620636
vertex 82.5455246 33.95113373 256.763916

endloop
endfacet
facet normal -0.6056310534 -0.1059123427 0.7886657715
outer loop
vertex 82.5455246 33.95113373 256.763916
vertex 82.30068207 34.28427887 256.620636
vertex 82.36013031 33.91843414 256.617157

endloop
endfacet
facet normal -0.6098088622 -0.08101782203 0.7883965969
outer loop
vertex 82.5455246 33.95113373 256.763916
vertex 82.36013031 33.91843414 256.617157
vertex 82.5875473 33.58019257 256.7583008

endloop
endfacet
facet normal -0.6344053149 -0.107090272 0.7655466199
outer loop
vertex 82.5875473 33.58019257 256.7583008
vertex 82.36013031 33.91843414 256.617157
vertex 82.40740204 33.5500412 256.6047974

endloop
endfacet
facet normal -0.6405051947 -0.06768503785 0.7649652362
outer loop
vertex 82.5875473 33.58019257 256.7583008
vertex 82.40740204 33.5500412 256.6047974
vertex 82.61437225 33.21321869 256.748291

endloop
endfacet
facet normal -0.6779145598 -0.1066941917 0.7273570299
outer loop
vertex 82.61437225 33.21321869 256.748291
vertex 82.40740204 33.5500412 256.6047974
vertex 82.44326019 33.18593597 256.5848083

endloop
endfacet
facet normal -0.686306119 -0.04532721266 0.7258989215
outer loop
vertex 82.61437225 33.21321869 256.748291
vertex 82.44326019 33.18593597 256.5848083
vertex 82.60305023 32.85486603 256.71521

endloop
endfacet
facet normal -0.7641615272 -0.1191291735 0.633928597
outer loop
vertex 82.60305023 32.85486603 256.71521
vertex 82.44326019 33.18593597 256.5848083
vertex 82.45488739 32.83187103 256.5322876

endloop
endfacet
facet normal -0.7764415741 -0.009675622918 0.6301150322
outer loop
vertex 82.60305023 32.85485077 256.71521
vertex 82.45488739 32.83187103 256.5322876
vertex 82.55510712 32.50470734 256.6507568

endloop
endfacet
facet normal -0.8783322573 -0.09976308793 0.467525214
outer loop
vertex 82.55510712 32.50470734 256.6507568
vertex 82.45488739 32.83187103 256.5322876
vertex 82.44707489 32.48633575 256.4438782

endloop
endfacet
facet normal -0.8865365982 0.003427511314 0.4626458287
outer loop
vertex 82.55510712 32.50470734 256.6507568
vertex 82.44707489 32.48633575 256.4438782
vertex 82.54711151 32.17082977 256.6379089

endloop
endfacet
facet normal -0.9017082453 -0.02031086199 0.4318678081
outer loop
vertex 82.54711151 32.17082977 256.6379089
vertex 82.44707489 32.48633575 256.4438782
vertex 82.44982147 32.15480804 256.434021

endloop
endfacet
facet normal -0.9007772803 -0.0367660597 0.4327222109
outer loop
vertex 82.54714203 32.17086029 256.6379395
vertex 82.44985199 32.15480804 256.4340515
vertex 82.57689667 31.8491745 256.6725464

endloop
endfacet
facet normal -0.8717956543 0.01956967078 0.4894786477
outer loop
vertex 82.57689667 31.8491745 256.6725464
vertex 82.44985199 32.15480804 256.4340515
vertex 82.4608078 31.83300018 256.4664307

endloop
endfacet
facet normal -0.8719108701 0.04768748209 0.487337023
outer loop
vertex 82.57689667 31.8491745 256.6725464
vertex 82.4608078 31.83300018 256.4664307
vertex 82.56127167 31.52700043 256.6761169

endloop
endfacet
facet normal -0.8997668028 0.00360732805 0.4363561273
outer loop
vertex 82.56127167 31.52700043 256.6761169
vertex 82.4608078 31.83300018 256.4664307
vertex 82.45085907 31.50736237 256.4486084

endloop
endfacet
facet normal -0.8934451938 0.1597297192 0.4198120534
outer loop
vertex 82.56127167 31.52700043 256.6761169
vertex 82.45085907 31.50736237 256.4486084
vertex 82.4885788 31.19835663 256.6464539

endloop
endfacet
facet normal -0.9582986236 0.06167750806 0.2790332735
outer loop
vertex 82.4885788 31.19835663 256.6464539
vertex 82.45085907 31.50736237 256.4486084
vertex 82.4156723 31.17258453 256.4017639

endloop
endfacet
facet normal -0.947424829 0.1820966154 0.2631101608
outer loop
vertex 82.4885788 31.19835663 256.6464539
vertex 82.4156723 31.17258453 256.4017639
vertex 82.42632294 30.86536407 256.6527405

endloop
endfacet
facet normal -0.9762023687 0.1158960387 0.1832952499
outer loop
vertex 82.42632294 30.86536407 256.6527405
vertex 82.4156723 31.17258453 256.4017639
vertex 82.37554169 30.83388519 256.4021912

endloop
endfacet
facet normal -0.966266036 0.1918173879 0.1718603373
outer loop
vertex 82.42635345 30.86539459 256.652771
vertex 82.37554169 30.83391571 256.4022217
vertex 82.36495209 30.52631378 256.6860046

endloop
endfacet
facet normal -0.9790640473 0.1552061886 0.1316986382
outer loop
vertex 82.36495209 30.52631378 256.6860046
vertex 82.37554169 30.83391571 256.4022217
vertex 82.32530975 30.49016571 256.4338989

endloop
endfacet
facet normal -0.9716979265 0.2010886222 0.1239615232
outer loop
vertex 82.36495209 30.52631378 256.6860046
vertex 82.32530975 30.49016571 256.4338989
vertex 82.29946136 30.17848969 256.7368774

endloop
endfacet
facet normal -0.9774392843 0.183218047 0.1050881147
outer loop
vertex 82.29946136 30.17848969 256.7368774
vertex 82.32530975 30.49016571 256.4338989
vertex 82.26494598 30.13918304 256.484375

endloop
endfacet
facet normal -0.972327888 0.211113885 0.1000469103
outer loop
vertex 82.29946136 30.17848969 256.7368774
vertex 82.26494598 30.13918304 256.484375
vertex 82.22939301 29.82823944 256.7949829

endloop
endfacet
facet normal -0.9760203958 0.1992222071 0.08771973103
outer loop
vertex 82.22939301 29.82823944 256.7949829
vertex 82.26494598 30.13918304 256.484375
vertex 82.19817352 29.78653717 256.5423279

endloop
endfacet
facet normal -0.9723473191 0.2178350836 0.08419371396
outer loop
vertex 82.22939301 29.82823944 256.7949829
vertex 82.19817352 29.78653717 256.5423279
vertex 82.15773773 29.48389435 256.8583679

endloop
endfacet
facet normal -0.974111557 0.2120335996 0.0784124583
outer loop
vertex 82.15773773 29.48389435 256.8583679
vertex 82.19817352 29.78653717 256.5423279
vertex 82.12801361 29.44072723 256.605835

endloop
endfacet
facet normal -0.9873840809 0.1270525157 0.09450105578
outer loop
vertex 82.15773773 29.48389435 256.8583679
vertex 82.12801361 29.44072723 256.605835
vertex 82.12227631 29.15639496 256.9281616

endloop
endfacet
facet normal -0.9802954197 0.1564685553 0.1205758378
outer loop
vertex 82.12227631 29.15639496 256.9281616
vertex 82.12801361 29.44072723 256.605835
vertex 82.08663177 29.11728668 256.6891174

endloop
endfacet
facet normal -0.9890179038 -0.001780154882 0.1477851421
outer loop
vertex 82.12227631 29.1563797 256.9281311
vertex 82.08663177 29.11728668 256.6891174
vertex 82.12743378 28.87010956 256.959198

endloop
endfacet
facet normal -0.9854407907 0.02159887552 0.1686411798
outer loop
vertex 82.12743378 28.87010956 256.959198
vertex 82.08663177 29.11728668 256.6891174
vertex 82.08882904 28.8367691 256.7378845

endloop
endfacet
facet normal -0.4153542817 -0.8860431314 0.2059328854
outer loop
vertex 82.12743378 28.87010956 256.959198
vertex 82.08882904 28.8367691 256.7378845
vertex 82.54320526 28.63735199 256.7963257

endloop
endfacet
facet normal -0.4018831849 -0.9156909585 0
outer loop
vertex 82.54320526 28.63735199 256.7963257
vertex 82.08882904 28.8367691 256.7378845
vertex 82.54320526 28.63735199 256.7962952

endloop
endfacet
facet normal -nan(ind) -nan(ind) -nan(ind)
outer loop
vertex 82.62871552 35.13207245 256.2352905
vertex 82.62871552 35.13207245 256.2352905
vertex 82.23030853 34.94351959 256.511261

endloop
endfacet
facet normal -0.3852776587 0.9199608564 0.07234078646
outer loop
vertex 82.23030853 34.94351959 256.511261
vertex 82.62871552 35.13207245 256.2352905
vertex 82.15953827 34.92957306 256.3117065

endloop
endfacet
facet normal -0.9427354932 0.01944669709 0.3329739273
outer loop
vertex 82.23030853 34.94351959 256.511261
vertex 82.15953827 34.92957306 256.3117065
vertex 82.2514267 34.63430023 256.5891113

endloop
endfacet
facet normal -0.904294312 0.1068864688 0.413312465
outer loop
vertex 82.2514267 34.63430023 256.5891113
vertex 82.15953827 34.92957306 256.3117065
vertex 82.15294647 34.61643219 256.3782654

endloop
endfacet
facet normal -0.8996380568 -0.08808081597 0.4276600778
outer loop
vertex 82.2514267 34.63430023 256.5891113
vertex 82.15294647 34.61643219 256.3782654
vertex 82.30068207 34.28427887 256.620636

endloop
endfacet
facet normal -0.8886611462 -0.06391381472 0.4540885389
outer loop
vertex 82.30068207 34.28427887 256.620636
vertex 82.15294647 34.61643219 256.3782654
vertex 82.18938446 34.26395416 256.3999634

endloop
endfacet
facet normal -0.8776642084 -0.146954909 0.4561905265
outer loop
vertex 82.30068207 34.28427887 256.620636
vertex 82.18938446 34.26395416 256.3999634
vertex 82.36013031 33.91843414 256.617157

endloop
endfacet
facet normal -0.881595552 -0.1555252969 0.4456469417
outer loop
vertex 82.36013031 33.91843414 256.617157
vertex 82.18938446 34.26395416 256.3999634
vertex 82.25139618 33.89853668 256.3951111

endloop
endfacet
facet normal -0.8860362172 -0.1286386997 0.4454122484
outer loop
vertex 82.36013031 33.91843414 256.617157
vertex 82.25139618 33.89853668 256.3951111
vertex 82.40740204 33.5500412 256.6047974

endloop
endfacet
facet normal -0.8978871107 -0.1537426114 0.4125069082
outer loop
vertex 82.40740204 33.5500412 256.6047974
vertex 82.25139618 33.89853668 256.3951111
vertex 82.30678558 33.53165436 256.3789368

endloop
endfacet
facet normal -0.9043347836 -0.1116774604 0.4119547904
outer loop
vertex 82.40740204 33.5500412 256.6047974
vertex 82.30678558 33.53165436 256.3789368
vertex 82.44326019 33.18593597 256.5848083

endloop
endfacet
facet normal -0.9210785031 -0.1495048851 0.3595311344
outer loop
vertex 82.44326019 33.18593597 256.5848083
vertex 82.30678558 33.53165436 256.3789368
vertex 82.35579681 33.16930389 256.3538208

endloop
endfacet
facet normal -0.9299137592 -0.08366218954 0.3581356406
outer loop
vertex 82.44326019 33.18593597 256.5848083
vertex 82.35579681 33.16930389 256.3538208
vertex 82.45488739 32.83187103 256.5322876

endloop
endfacet
facet normal -0.958727777 -0.155720681 0.2378907949
outer loop
vertex 82.45488739 32.83187103 256.5322876
vertex 82.35579681 33.16930389 256.3538208
vertex 82.39794159 32.81789398 256.2936401

endloop
endfacet
facet normal -0.9714877605 -0.03791641444 0.2340384573
outer loop
vertex 82.45488739 32.83187103 256.5322876
vertex 82.39794159 32.81787872 256.2936401
vertex 82.44707489 32.48633575 256.4438782

endloop
endfacet
facet normal -0.9908419847 -0.1294756532 0.03831646219
outer loop
vertex 82.44707489 32.48633575 256.4438782
vertex 82.39794159 32.81787872 256.2936401
vertex 82.43920135 32.47460175 256.2006226

endloop
endfacet
facet normal -0.9994192123 -0.009254890494 0.03279496357
outer loop
vertex 82.44707489 32.48633575 256.4438782
vertex 82.43920135 32.47460175 256.2006226
vertex 82.44982147 32.15480804 256.434021

endloop
endfacet
facet normal -0.9988363981 -0.04528135061 -0.01659364626
outer loop
vertex 82.44982147 32.15480804 256.434021
vertex 82.43920135 32.47460175 256.2006226
vertex 82.45436859 32.14095306 256.1981201

endloop
endfacet
facet normal -0.9992162585 -0.03573164716 -0.01703258045
outer loop
vertex 82.44985199 32.15480804 256.4340515
vertex 82.45436859 32.14095306 256.1981506
vertex 82.4608078 31.83300018 256.4664307

endloop
endfacet
facet normal -0.9990689754 0.01450517401 0.0406296514
outer loop
vertex 82.4608078 31.83300018 256.4664307
vertex 82.45436859 32.14095306 256.1981506
vertex 82.4512558 31.81423187 256.2382507

endloop
endfacet
facet normal -0.9988179803 0.02835465595 0.03947999328
outer loop
vertex 82.4608078 31.83300018 256.4664307
vertex 82.4512558 31.81423187 256.2382507
vertex 82.45085907 31.50736237 256.4486084

endloop
endfacet
facet normal -0.9999613166 -0.00405376358 -0.007799523883
outer loop
vertex 82.45085907 31.50736237 256.4486084
vertex 82.4512558 31.81423187 256.2382507
vertex 82.45272064 31.48195648 256.2231445

endloop
endfacet
facet normal -0.9940176606 0.1073165759 -0.02029996365
outer loop
vertex 82.45085907 31.50736237 256.4486084
vertex 82.45272064 31.48195648 256.2231445
vertex 82.4156723 31.17258453 256.4017639

endloop
endfacet
facet normal -0.9848639965 0.01843509823 -0.1723456532
outer loop
vertex 82.4156723 31.17258453 256.4017639
vertex 82.45272064 31.48195648 256.2231445
vertex 82.45391083 31.13898468 256.179657

endloop
endfacet
facet normal -0.9758531451 0.1153894961 -0.1854613572
outer loop
vertex 82.4156723 31.17258453 256.4017639
vertex 82.45391083 31.13898468 256.179657
vertex 82.37554169 30.83388519 256.4021912

endloop
endfacet
facet normal -0.9623750448 0.05278404802 -0.2665483356
outer loop
vertex 82.37554169 30.83388519 256.4021912
vertex 82.45391083 31.13898468 256.179657
vertex 82.43349457 30.79279327 256.1848145

endloop
endfacet
facet normal -0.9543385506 0.1140123308 -0.276114136
outer loop
vertex 82.37554169 30.83391571 256.4022217
vertex 82.43352509 30.79282379 256.184845
vertex 82.32530975 30.49016571 256.4338989

endloop
endfacet
facet normal -0.9457075596 0.07862751931 -0.3153645992
outer loop
vertex 82.32530975 30.49016571 256.4338989
vertex 82.43352509 30.79282379 256.184845
vertex 82.39263153 30.44295502 256.2202454

endloop
endfacet
facet normal -0.9398103952 0.1153789535 -0.3216273487
outer loop
vertex 82.32530975 30.49016571 256.4338989
vertex 82.39263153 30.44295502 256.2202454
vertex 82.26494598 30.13918304 256.484375

endloop
endfacet
facet normal -0.9353988767 0.09769786894 -0.3398294747
outer loop
vertex 82.26494598 30.13918304 256.484375
vertex 82.39263153 30.44295502 256.2202454
vertex 82.33638763 30.087883 256.2729797

endloop
endfacet
facet normal -0.9313509464 0.11984355 -0.3438356519
outer loop
vertex 82.26494598 30.13918304 256.484375
vertex 82.33638763 30.087883 256.2729797
vertex 82.19817352 29.78653717 256.5423279

endloop
endfacet
facet normal -0.9284114242 0.1080817655 -0.3554862738
outer loop
vertex 82.19817352 29.78653717 256.5423279
vertex 82.33638763 30.087883 256.2729797
vertex 82.27217865 29.73206329 256.332489

endloop
endfacet
facet normal -0.9256596565 0.1220321953 -0.3581372797
outer loop
vertex 82.19817352 29.78653717 256.5423279
vertex 82.27217865 29.73206329 256.332489
vertex 82.12801361 29.44072723 256.605835

endloop
endfacet
facet normal -0.9243145585 0.1163784787 -0.3634537458
outer loop
vertex 82.12801361 29.44072723 256.605835
vertex 82.27217865 29.73206329 256.332489
vertex 82.20305634 29.38436127 256.3969421

endloop
endfacet
facet normal -0.937962234 0.03108371049 -0.3453412354
outer loop
vertex 82.12801361 29.44072723 256.605835
vertex 82.20305634 29.38436127 256.3969421
vertex 82.08663177 29.11728668 256.6891174

endloop
endfacet
facet normal -0.944814384 0.05941632017 -0.3221730292
outer loop
vertex 82.08663177 29.11728668 256.6891174
vertex 82.20305634 29.38436127 256.3969421
vertex 82.15193939 29.06629181 256.4881897

endloop
endfacet
facet normal -0.9537122846 -0.05874253437 -0.2949274778
outer loop
vertex 82.08663177 29.11728668 256.6891174
vertex 82.15190887 29.06627655 256.4881897
vertex 82.08882904 28.8367691 256.7378845

endloop
endfacet
facet normal -0.9568101168 -0.04881574214 -0.2865858376
outer loop
vertex 82.08882904 28.8367691 256.7378845
vertex 82.15190887 29.06627655 256.4881897
vertex 82.14736176 28.79421234 256.5497131

endloop
endfacet
facet normal -0.4090736508 -0.9091304541 0.07836185396
outer loop
vertex 82.08882904 28.8367691 256.7378845
vertex 82.14736176 28.79421234 256.5497131
vertex 82.54320526 28.63735199 256.7962952

endloop
endfacet
facet normal -0.528821826 0 0.8487328887
outer loop
vertex 82.54320526 28.63735199 256.7962952
vertex 82.14736176 28.79421234 256.5497131
vertex 82.54320526 28.63733673 256.7962952

endloop
endfacet
facet normal 0.4170202613 -0.8129423261 0.406471163
outer loop
vertex 82.62871552 35.13204193 256.23526
vertex 82.62871552 35.13205719 256.2352905
vertex 82.15953827 34.92957306 256.311676

endloop
endfacet
facet normal -0.4064296484 0.9097343683 -0.0848429203
outer loop
vertex 82.15953827 34.92957306 256.311676
vertex 82.62871552 35.13205719 256.2352905
vertex 82.20037079 34.92440033 256.0606079

endloop
endfacet
facet normal -0.9869887829 -0.01318681892 -0.16024746
outer loop
vertex 82.15953827 34.92957306 256.311676
vertex 82.20037079 34.92440033 256.0606079
vertex 82.15291595 34.61640167 256.3782349

endloop
endfacet
facet normal -0.9942669868 0.0798183158 -0.07114902139
outer loop
vertex 82.15291595 34.61640167 256.3782349
vertex 82.20037079 34.92440033 256.0606079
vertex 82.17299652 34.61469269 256.0957031

endloop
endfacet
facet normal -0.9918209314 -0.1068307161 -0.06984614581
outer loop
vertex 82.15291595 34.61640167 256.3782349
vertex 82.17299652 34.61469269 256.0957031
vertex 82.18935394 34.26392365 256.3999329

endloop
endfacet
facet normal -0.9955200553 -0.08402555436 -0.04335349426
outer loop
vertex 82.18935394 34.26392365 256.3999329
vertex 82.17299652 34.61469269 256.0957031
vertex 82.20226288 34.2650528 256.1013184

endloop
endfacet
facet normal -0.9850779772 -0.1665949076 -0.04321430624
outer loop
vertex 82.18935394 34.26392365 256.3999329
vertex 82.20226288 34.2650528 256.1013184
vertex 82.25136566 33.89850616 256.3950806

endloop
endfacet
facet normal -0.98279953 -0.1761378646 -0.05550254509
outer loop
vertex 82.25136566 33.89850616 256.3950806
vertex 82.20226288 34.2650528 256.1013184
vertex 82.26799774 33.89974213 256.0966492

endloop
endfacet
facet normal -0.9876199365 -0.146663025 -0.05564911664
outer loop
vertex 82.25136566 33.89850616 256.3950806
vertex 82.26799774 33.89974213 256.0966492
vertex 82.30675507 33.53165436 256.3789062

endloop
endfacet
facet normal -0.9804345965 -0.1739241928 -0.09218669683
outer loop
vertex 82.30675507 33.53165436 256.3789062
vertex 82.26799774 33.89974213 256.0966492
vertex 82.33452606 33.53276825 256.0814514

endloop
endfacet
facet normal -0.9875444174 -0.1271507591 -0.09267533571
outer loop
vertex 82.30675507 33.53165436 256.3789062
vertex 82.33452606 33.53276825 256.0814514
vertex 82.3557663 33.16930389 256.3537903

endloop
endfacet
facet normal -0.9744685292 -0.1683004797 -0.1486136913
outer loop
vertex 82.3557663 33.16930389 256.3537903
vertex 82.33452606 33.53276825 256.0814514
vertex 82.4005661 33.17028046 256.0589294

endloop
endfacet
facet normal -0.984380424 -0.09238357842 -0.1498682201
outer loop
vertex 82.3557663 33.16930389 256.3537903
vertex 82.4005661 33.17028046 256.0589294
vertex 82.39791107 32.81786346 256.2936096

endloop
endfacet
facet normal -0.9463053942 -0.174211055 -0.2723169923
outer loop
vertex 82.39791107 32.81786346 256.2936096
vertex 82.4005661 33.17028046 256.0589294
vertex 82.47963715 32.81871796 256.0090637

endloop
endfacet
facet normal -0.9603139758 -0.04067533836 -0.2759394944
outer loop
vertex 82.39791107 32.81786346 256.2936096
vertex 82.47963715 32.81871796 256.0090637
vertex 82.43917084 32.47457123 256.2006226

endloop
endfacet
facet normal -0.8763475418 -0.1514665186 -0.4572446644
outer loop
vertex 82.43917084 32.47457123 256.2006226
vertex 82.47963715 32.81871796 256.0090637
vertex 82.57570648 32.47399139 255.9391327

endloop
endfacet
facet normal -0.8858701587 -0.03680354729 -0.4624711275
outer loop
vertex 82.43917084 32.47457123 256.2006226
vertex 82.57570648 32.47399139 255.9391327
vertex 82.45433807 32.14093781 256.1981201

endloop
endfacet
facet normal -0.8655890822 -0.07012697309 -0.4958202541
outer loop
vertex 82.45433807 32.14093781 256.1981201
vertex 82.57570648 32.47399139 255.9391327
vertex 82.60076141 32.1317215 255.9438019

endloop
endfacet
facet normal -0.8662132025 -0.0527347289 -0.4968839884
outer loop
vertex 82.45433807 32.14093781 256.1981506
vertex 82.60079193 32.1317215 255.9438171
vertex 82.45122528 31.81423187 256.2382507

endloop
endfacet
facet normal -0.8891957998 -0.005379380193 -0.457495153
outer loop
vertex 82.45122528 31.81423187 256.2382507
vertex 82.60079193 32.1317215 255.9438171
vertex 82.57888031 31.79306793 255.990387

endloop
endfacet
facet normal -0.8883043528 0.01694799215 -0.4589424133
outer loop
vertex 82.45122528 31.81423187 256.2382507
vertex 82.57888031 31.79306793 255.990387
vertex 82.45269012 31.48194122 256.2231445

endloop
endfacet
facet normal -0.8558370471 -0.03875019774 -0.515791893
outer loop
vertex 82.45269012 31.48194122 256.2231445
vertex 82.57888031 31.79306793 255.990387
vertex 82.58974457 31.44933319 255.9981842

endloop
endfacet
facet normal -0.8481237292 0.06374524534 -0.5259493589
outer loop
vertex 82.45269012 31.48194122 256.2231445
vertex 82.58974457 31.44933319 255.9981842
vertex 82.45388031 31.13896942 256.179657

endloop
endfacet
facet normal -0.7595254183 -0.04686391354 -0.6487872601
outer loop
vertex 82.45388031 31.13896942 256.179657
vertex 82.58974457 31.44933319 255.9981842
vertex 82.62551117 31.09548187 255.9818726

endloop
endfacet
facet normal -0.7510733604 0.03440511599 -0.6593217254
outer loop
vertex 82.45388031 31.13896942 256.179657
vertex 82.62551117 31.09548187 255.9818726
vertex 82.43349457 30.79277802 256.1848145

endloop
endfacet
facet normal -0.6961586475 -0.03898381442 -0.7168287039
outer loop
vertex 82.43349457 30.79277802 256.1848145
vertex 82.62551117 31.09548187 255.9818726
vertex 82.62221527 30.73964691 256.004425

endloop
endfacet
facet normal -0.6899108887 0.007460897323 -0.7238558531
outer loop
vertex 82.43352509 30.79280853 256.184845
vertex 82.62221527 30.73966217 256.0044556
vertex 82.39263153 30.44295502 256.2202148

endloop
endfacet
facet normal -0.6611273289 -0.0334781222 -0.7495264411
outer loop
vertex 82.39263153 30.44295502 256.2202148
vertex 82.62221527 30.73966217 256.0044556
vertex 82.58867645 30.3819046 256.0500183

endloop
endfacet
facet normal -0.6569521427 -0.0079034511 -0.7538909316
outer loop
vertex 82.39263153 30.44295502 256.2202148
vertex 82.58867645 30.3819046 256.0500183
vertex 82.33638763 30.08786774 256.2729492

endloop
endfacet
facet normal -0.6433352828 -0.02806268446 -0.7650700212
outer loop
vertex 82.33638763 30.08786774 256.2729492
vertex 82.58867645 30.3819046 256.0500183
vertex 82.53533173 30.02153778 256.1080933

endloop
endfacet
facet normal -0.6405376792 -0.01283849776 -0.7678194642
outer loop
vertex 82.33638763 30.08786774 256.2729492
vertex 82.53533173 30.02153778 256.1080933
vertex 82.27214813 29.73206329 256.332489

endloop
endfacet
facet normal -0.6315834522 -0.02643498778 -0.7748571038
outer loop
vertex 82.27214813 29.73206329 256.332489
vertex 82.53533173 30.02153778 256.1080933
vertex 82.47289276 29.66165924 256.1712646

endloop
endfacet
facet normal -0.630043149 -0.01865667664 -0.7763360143
outer loop
vertex 82.27214813 29.73206329 256.332489
vertex 82.47289276 29.66165924 256.1712646
vertex 82.20302582 29.38434601 256.3969421

endloop
endfacet
facet normal -0.6260114908 -0.02508194 -0.7794103026
outer loop
vertex 82.20302582 29.38434601 256.3969421
vertex 82.47289276 29.66165924 256.1712646
vertex 82.40431976 29.31150055 256.2376099

endloop
endfacet
facet normal -0.6416952014 -0.1144298688 -0.7583753467
outer loop
vertex 82.20302582 29.38434601 256.3969421
vertex 82.40431976 29.31150055 256.2376099
vertex 82.15190887 29.06626129 256.4881897

endloop
endfacet
facet normal -0.6606884003 -0.08236698806 -0.7461277246
outer loop
vertex 82.15190887 29.06626129 256.4881897
vertex 82.40431976 29.31150055 256.2376099
vertex 82.33840179 29.00040436 256.3303223

endloop
endfacet
facet normal -0.6694358587 -0.1531820446 -0.7269049883
outer loop
vertex 82.15190887 29.06626129 256.4881897
vertex 82.33840179 29.0003891 256.3303223
vertex 82.14736176 28.79418182 256.5497131

endloop
endfacet
facet normal -0.6857414246 -0.1271656007 -0.7166502476
outer loop
vertex 82.14736176 28.79418182 256.5497131
vertex 82.33840179 29.0003891 256.3303223
vertex 82.31356049 28.74170685 256.3999939

endloop
endfacet
facet normal -0.341078788 -0.9387248755 -0.04960817471
outer loop
vertex 82.14736176 28.79418182 256.5497131
vertex 82.31356049 28.74170685 256.3999939
vertex 82.54317474 28.63733673 256.7962646

endloop
endfacet
facet normal 0.4222735167 -0.785926342 -0.4516690671
outer loop
vertex 82.54317474 28.63733673 256.7962646
vertex 82.31356049 28.74170685 256.3999939
vertex 82.54323578 28.63735199 256.7962952

endloop
endfacet
facet normal -nan(ind) -nan(ind) -nan(ind)
outer loop
vertex 82.62871552 35.13207245 256.2352905
vertex 82.62871552 35.13207245 256.2352905
vertex 82.20037079 34.92441559 256.0606079

endloop
endfacet
facet normal -0.3249679506 0.9040070772 -0.2777893841
outer loop
vertex 82.20037079 34.92441559 256.0606079
vertex 82.62871552 35.13207245 256.2352905
vertex 82.50978851 34.94283295 255.7585754

endloop
endfacet
facet normal -0.6977863312 -0.01953364722 -0.716039598
outer loop
vertex 82.20037079 34.92441559 256.0606079
vertex 82.50978851 34.94283295 255.7585754
vertex 82.17299652 34.61469269 256.0957336

endloop
endfacet
facet normal -0.7514317036 0.101344794 -0.6519813538
outer loop
vertex 82.17299652 34.61469269 256.0957336
vertex 82.50978851 34.94283295 255.7585754
vertex 82.49745941 34.6556778 255.7281494

endloop
endfacet
facet normal -0.743668735 -0.07292110473 -0.6645594835
outer loop
vertex 82.17299652 34.61469269 256.0957336
vertex 82.49745941 34.6556778 255.7281494
vertex 82.20226288 34.2650528 256.1013489

endloop
endfacet
facet normal -0.7657720447 -0.03482549638 -0.6421685219
outer loop
vertex 82.20226288 34.2650528 256.1013489
vertex 82.49745941 34.6556778 255.7281494
vertex 82.53176117 34.3212204 255.7053833

endloop
endfacet
facet normal -0.7534697056 -0.1272772998 -0.6450456381
outer loop
vertex 82.20226288 34.2650528 256.1013489
vertex 82.53176117 34.3212204 255.7053833
vertex 82.26799774 33.89972687 256.0966492

endloop
endfacet
facet normal -0.7426680923 -0.1426233947 -0.6542955041
outer loop
vertex 82.26799774 33.89972687 256.0966492
vertex 82.53176117 34.3212204 255.7053833
vertex 82.60253143 33.95508575 255.7048645

endloop
endfacet
facet normal -0.7483531833 -0.108623758 -0.6543458104
outer loop
vertex 82.26799774 33.89972687 256.0966492
vertex 82.60253143 33.95508575 255.7048645
vertex 82.33452606 33.53275299 256.0814819

endloop
endfacet
facet normal -0.7160041928 -0.1530256867 -0.6811175346
outer loop
vertex 82.33452606 33.53275299 256.0814819
vertex 82.60253143 33.95508575 255.7048645
vertex 82.68398285 33.58382416 255.702652

endloop
endfacet
facet normal -0.7259892821 -0.08984903246 -0.6818113923
outer loop
vertex 82.33452606 33.53275299 256.0814819
vertex 82.68398285 33.58382416 255.702652
vertex 82.4005661 33.17028046 256.0589294

endloop
endfacet
facet normal -0.6747084856 -0.15861696 -0.7208391428
outer loop
vertex 82.4005661 33.17028046 256.0589294
vertex 82.68398285 33.58382416 255.702652
vertex 82.77150726 33.21651459 255.7015533

endloop
endfacet
facet normal -0.6894543171 -0.05253852531 -0.7224212289
outer loop
vertex 82.4005661 33.17028046 256.0589294
vertex 82.77150726 33.21651459 255.7015533
vertex 82.47963715 32.81873322 256.0090332

endloop
endfacet
facet normal -0.5705063939 -0.1975951791 -0.7971691489
outer loop
vertex 82.47963715 32.81873322 256.0090332
vertex 82.77150726 33.21651459 255.7015533
vertex 82.8911972 32.85764313 255.7048492

endloop
endfacet
facet normal -0.5942461491 -0.002397827804 -0.8042796254
outer loop
vertex 82.47963715 32.81873322 256.0090332
vertex 82.8911972 32.85762787 255.704834
vertex 82.57567596 32.47400665 255.9391022

endloop
endfacet
facet normal -0.4005189538 -0.214576453 -0.8908094764
outer loop
vertex 82.57567596 32.47400665 255.9391022
vertex 82.8911972 32.85762787 255.704834
vertex 83.03951263 32.50255585 255.7236786

endloop
endfacet
facet normal -0.4186506867 -0.04309685901 -0.9071241617
outer loop
vertex 82.57567596 32.47400665 255.9391022
vertex 83.03951263 32.50255585 255.7236786
vertex 82.60076141 32.1317215 255.9437866

endloop
endfacet
facet normal -0.3868630528 -0.08716648072 -0.9180081487
outer loop
vertex 82.60076141 32.1317215 255.9437866
vertex 83.03951263 32.50255585 255.7236786
vertex 83.07701874 32.1387558 255.7424164

endloop
endfacet
facet normal -0.3861717582 -0.1011674181 -0.916862309
outer loop
vertex 82.60076141 32.13173676 255.9438019
vertex 83.07701874 32.13877106 255.7424316
vertex 82.57888031 31.79306793 255.990387

endloop
endfacet
facet normal -0.4392498434 -0.01136617176 -0.8982930779
outer loop
vertex 82.57888031 31.79306793 255.990387
vertex 83.07701874 32.13877106 255.7424316
vertex 83.03984833 31.77115631 255.7652588

endloop
endfacet
facet normal -0.4398997426 -0.03429984674 -0.8973916173
outer loop
vertex 82.57888031 31.79306793 255.990387
vertex 83.03984833 31.77115631 255.7652588
vertex 82.58974457 31.44933319 255.9981995

endloop
endfacet
facet normal -0.3828606308 -0.1268595904 -0.9150542617
outer loop
vertex 82.58974457 31.44933319 255.9981995
vertex 83.03984833 31.77115631 255.7652588
vertex 83.05632782 31.40300751 255.8094025

endloop
endfacet
facet normal -0.3746702075 0.004908093251 -0.9271451235
outer loop
vertex 82.58974457 31.44933319 255.9981995
vertex 83.05632782 31.40300751 255.8094025
vertex 82.62551117 31.09548187 255.9818726

endloop
endfacet
facet normal -0.2339116782 -0.2052894384 -0.9503375888
outer loop
vertex 82.62551117 31.09548187 255.9818726
vertex 83.05632782 31.40300751 255.8094025
vertex 83.11742401 31.03269196 255.8743591

endloop
endfacet
facet normal -0.2204034477 -0.0596607253 -0.9735825658
outer loop
vertex 82.62551117 31.09548187 255.9818726
vertex 83.11742401 31.03269196 255.8743591
vertex 82.62221527 30.73963165 256.004425

endloop
endfacet
facet normal -0.1449179798 -0.1863921583 -0.9717287421
outer loop
vertex 82.62221527 30.73963165 256.004425
vertex 83.11742401 31.03269196 255.8743591
vertex 83.12221527 30.66287994 255.9445801

endloop
endfacet
facet normal -0.1351240277 -0.1127114445 -0.9843971133
outer loop
vertex 82.62221527 30.73964691 256.0044556
vertex 83.12221527 30.6628952 255.9446106
vertex 82.58867645 30.38191986 256.0500183

endloop
endfacet
facet normal -0.09879048914 -0.1795927882 -0.9787680507
outer loop
vertex 82.58867645 30.38191986 256.0500183
vertex 83.12221527 30.6628952 255.9446106
vertex 83.0896225 30.29380035 256.015625

endloop
endfacet
facet normal -0.0931282267 -0.144953385 -0.9850460291
outer loop
vertex 82.58867645 30.38191986 256.0500183
vertex 83.0896225 30.29380035 256.015625
vertex 82.53533173 30.02153778 256.1080933

endloop
endfacet
facet normal -0.07665172219 -0.177186951 -0.9811877012
outer loop
vertex 82.53533173 30.02153778 256.1080933
vertex 83.0896225 30.29380035 256.015625
vertex 83.03575897 29.92571259 256.0863037

endloop
endfacet
facet normal -0.07352099568 -0.1601168662 -0.9843562841
outer loop
vertex 82.53533173 30.02153778 256.1080933
vertex 83.03575897 29.92571259 256.0863037
vertex 82.47289276 29.66165924 256.1712952

endloop
endfacet
facet normal -0.06300136447 -0.1815754175 -0.98135674
outer loop
vertex 82.47289276 29.66165924 256.1712952
vertex 83.03575897 29.92571259 256.0863037
vertex 82.97274017 29.55997467 256.15802

endloop
endfacet
facet normal -0.06152991951 -0.1741545945 -0.982794106
outer loop
vertex 82.47289276 29.66165924 256.1712952
vertex 82.97274017 29.55997467 256.15802
vertex 82.40431976 29.31148529 256.2376404

endloop
endfacet
facet normal -0.05693713576 -0.1841641963 -0.9812449217
outer loop
vertex 82.40431976 29.31148529 256.2376404
vertex 82.97274017 29.55997467 256.15802
vertex 82.90340424 29.2062912 256.2284241

endloop
endfacet
facet normal -0.07468786091 -0.2702521086 -0.9598882794
outer loop
vertex 82.40431976 29.31148529 256.2376404
vertex 82.90340424 29.2062912 256.2284241
vertex 82.33840179 29.00040436 256.3303528

endloop
endfacet
facet normal -0.09542678297 -0.2188776731 -0.9710748196
outer loop
vertex 82.33840179 29.00040436 256.3303528
vertex 82.90340424 29.2062912 256.2284241
vertex 82.81182098 28.90529633 256.3052673

endloop
endfacet
facet normal -0.1011538953 -0.2495293915 -0.9630695581
outer loop
vertex 82.33840179 29.00040436 256.3303528
vertex 82.8118515 28.90529633 256.3052673
vertex 82.31356049 28.74169159 256.3999939

endloop
endfacet
facet normal -0.1332653612 -0.1603821963 -0.9780173302
outer loop
vertex 82.31356049 28.74169159 256.3999939
vertex 82.8118515 28.90529633 256.3052673
vertex 82.72896576 28.6689682 256.3553162

endloop
endfacet
facet normal -0.1859620214 -0.9713570476 -0.1479311436
outer loop
vertex 82.31356049 28.74169159 256.3999939
vertex 82.72896576 28.6689682 256.3553162
vertex 82.54323578 28.63736725 256.7962952

endloop
endfacet
facet normal -0.4438488483 0.8875747919 -0.1233254746
outer loop
vertex 82.54323578 28.63736725 256.7962952
vertex 82.72896576 28.6689682 256.3553162
vertex 82.54320526 28.63735199 256.7962952

endloop
endfacet
endsolid
