solid 
facet normal 0.762719 0 -0.64673
outer loop
vertex 73.85900116 28.45095062 297.26297
vertex 73.85900116 28.45093536 297.26297
vertex 73.25936127 28.19428253 296.5557861

endloop
endfacet
facet normal 0.4507843256 0.6455305219 -0.6165094376
outer loop
vertex 73.25936127 28.19428253 296.5557861
vertex 73.85900116 28.45093536 297.26297
vertex 73.80962372 27.84838104 296.5959473

endloop
endfacet
facet normal 0.03574632853 -0.05896386132 -0.9976199269
outer loop
vertex 73.25936127 28.19428253 296.5557861
vertex 73.80962372 27.84838104 296.5959473
vertex 72.89281464 27.64264679 296.5752563

endloop
endfacet
facet normal 0.0457990393 -0.1041754931 -0.993503809
outer loop
vertex 72.89281464 27.64264679 296.5752563
vertex 73.80962372 27.84838104 296.5959473
vertex 73.49752045 27.26966095 296.6422424

endloop
endfacet
facet normal 0.01641680859 -0.1508973688 -0.9884131551
outer loop
vertex 72.89281464 27.64264679 296.5752563
vertex 73.49752045 27.26966095 296.6422424
vertex 72.55153656 27.0490036 296.6602173

endloop
endfacet
facet normal 0.02994000725 -0.2079978585 -0.9776709676
outer loop
vertex 72.55153656 27.0490036 296.6602173
vertex 73.49752045 27.26966095 296.6422424
vertex 73.1812973 26.68837738 296.7562256

endloop
endfacet
facet normal 0.02201513387 -0.2211251557 -0.9749969244
outer loop
vertex 72.55153656 27.0490036 296.6602173
vertex 73.1812973 26.68837738 296.7562256
vertex 72.22664642 26.41773224 296.796051

endloop
endfacet
facet normal 0.0474540107 -0.3072435856 -0.9504470229
outer loop
vertex 72.22664642 26.41773224 296.796051
vertex 73.1812973 26.68837738 296.7562256
vertex 72.86083221 26.07717133 296.9378052

endloop
endfacet
facet normal 0.07595260441 -0.2593163252 -0.9628012776
outer loop
vertex 72.22664642 26.41773224 296.796051
vertex 72.86083221 26.07717133 296.9378052
vertex 71.92684174 25.82627106 296.9317017

endloop
endfacet
facet normal 0.09861283749 -0.3443797827 -0.933637023
outer loop
vertex 71.92684174 25.82627106 296.9317017
vertex 72.86083221 26.07717133 296.9378052
vertex 72.54955292 25.48914337 297.1218262

endloop
endfacet
facet normal 0.1601437926 -0.2436478883 -0.9565509558
outer loop
vertex 71.92684174 25.82627106 296.9317017
vertex 72.54955292 25.48914337 297.1218262
vertex 71.63784027 25.23842621 297.0330505

endloop
endfacet
facet normal 0.1857766658 -0.3505311608 -0.9179406166
outer loop
vertex 71.63784027 25.23842621 297.0330505
vertex 72.54955292 25.48914337 297.1218262
vertex 72.24062347 24.90369415 297.2828674

endloop
endfacet
facet normal 0.2510026991 -0.2465887517 -0.9360510707
outer loop
vertex 71.63784027 25.23842621 297.0330505
vertex 72.24062347 24.90369415 297.2828674
vertex 71.33629608 24.64847565 297.107605

endloop
endfacet
facet normal 0.2714333832 -0.3446875215 -0.8986181021
outer loop
vertex 71.33629608 24.64847565 297.107605
vertex 72.24062347 24.90369415 297.2828674
vertex 71.91674042 24.31679535 297.4101562

endloop
endfacet
facet normal 0.3300189078 -0.2521611154 -0.9096714854
outer loop
vertex 71.33629608 24.64847565 297.107605
vertex 71.91674042 24.31679535 297.4101257
vertex 71.02129364 24.05191803 297.1586914

endloop
endfacet
facet normal 0.3454523683 -0.3361359835 -0.876170814
outer loop
vertex 71.02129364 24.05191803 297.1586914
vertex 71.91674042 24.31679535 297.4101257
vertex 71.58046722 23.72524261 297.5044861

endloop
endfacet
facet normal 0.3957219422 -0.2561728656 -0.8819182515
outer loop
vertex 71.02129364 24.05191803 297.1586914
vertex 71.58046722 23.72524261 297.5044861
vertex 70.69579315 23.44509125 297.1889038

endloop
endfacet
facet normal 0.40745157 -0.3255153596 -0.8532426953
outer loop
vertex 70.69579315 23.44509125 297.1889038
vertex 71.58046722 23.72524261 297.5044861
vertex 71.23656464 23.12519073 297.5691833

endloop
endfacet
facet normal 0.4497816265 -0.2566082478 -0.8554815054
outer loop
vertex 70.69579315 23.44510651 297.1889343
vertex 71.23656464 23.12519073 297.5692139
vertex 70.36656952 22.82816315 297.2008972

endloop
endfacet
facet normal 0.4592143595 -0.3151690662 -0.8305363059
outer loop
vertex 70.36656952 22.82816315 297.2008972
vertex 71.23656464 23.12519073 297.5692139
vertex 70.89116669 22.51593781 297.609436

endloop
endfacet
facet normal 0.4979588687 -0.2499077171 -0.8304114342
outer loop
vertex 70.36656952 22.82816315 297.2008972
vertex 70.89116669 22.51593781 297.609436
vertex 70.04698944 22.20557404 297.1966248

endloop
endfacet
facet normal 0.5069947243 -0.3084665239 -0.8048632145
outer loop
vertex 70.04698944 22.20557404 297.1966248
vertex 70.89116669 22.51593781 297.609436
vertex 70.55452728 21.90251923 297.6324768

endloop
endfacet
facet normal 0.5523427129 -0.2281136513 -0.8017991185
outer loop
vertex 70.04698944 22.20557404 297.1966248
vertex 70.55452728 21.90251923 297.6324768
vertex 69.7604599 21.58043671 297.1770935

endloop
endfacet
facet normal 0.5641151071 -0.3070999682 -0.7664617896
outer loop
vertex 69.7604599 21.58043671 297.1770935
vertex 70.55452728 21.90251923 297.6324768
vertex 70.24318695 21.29138947 297.6481934

endloop
endfacet
facet normal 0.6289525032 -0.1816454679 -0.755925715
outer loop
vertex 69.7604599 21.58043671 297.1770935
vertex 70.24318695 21.29138947 297.6481934
vertex 69.54134369 20.95102692 297.1460266

endloop
endfacet
facet normal 0.6481848955 -0.3112224042 -0.6949798465
outer loop
vertex 69.54134369 20.95102692 297.1460266
vertex 70.24318695 21.29138947 297.6481934
vertex 69.97612762 20.68482208 297.6707458

endloop
endfacet
facet normal 0.7375346422 -0.1090544537 -0.6664456725
outer loop
vertex 69.54137421 20.95105743 297.1460876
vertex 69.97612762 20.6848526 297.6707764
vertex 69.42568207 20.31465912 297.1221924

endloop
endfacet
facet normal 0.76801157 -0.3191595674 -0.5552435517
outer loop
vertex 69.42568207 20.31465912 297.1221924
vertex 69.97612762 20.6848526 297.6707764
vertex 69.76024628 20.07866669 297.7206116

endloop
endfacet
facet normal 0.8697716594 -0.01743199676 -0.4931463897
outer loop
vertex 69.42568207 20.31465912 297.1221924
vertex 69.76024628 20.07866669 297.7206116
vertex 69.42259979 19.67049408 297.1395264

endloop
endfacet
facet normal 0.8998948336 -0.3149244487 -0.3016817272
outer loop
vertex 69.42259979 19.67049408 297.1395264
vertex 69.76024628 20.07866669 297.7206116
vertex 69.57369232 19.46086884 297.8090515

endloop
endfacet
facet normal 0.9771237373 0.03352152929 -0.2100132555
outer loop
vertex 69.42259979 19.67049408 297.1395264
vertex 69.57369232 19.46086884 297.8090515
vertex 69.4512558 19.02352142 297.1695862

endloop
endfacet
facet normal 0.9608008265 -0.2771828771 0.005611116067
outer loop
vertex 69.4512558 19.02352142 297.1695862
vertex 69.57369232 19.46086884 297.8090515
vertex 69.38954926 18.82357025 297.8583374

endloop
endfacet
facet normal 0.9959456325 0.002401010599 0.08992571384
outer loop
vertex 69.4512558 19.02352142 297.1695862
vertex 69.38954926 18.82357025 297.8583374
vertex 69.45375824 18.39354706 297.1586914

endloop
endfacet
facet normal 0.9314154983 -0.2656688988 0.2487672567
outer loop
vertex 69.45375824 18.39354706 297.1586914
vertex 69.38954926 18.82357025 297.8583374
vertex 69.219841 18.18503571 297.8118286

endloop
endfacet
facet normal 0.9457750916 -0.06264869869 0.3187234402
outer loop
vertex 69.45375824 18.39354706 297.1586914
vertex 69.219841 18.18503571 297.8118286
vertex 69.43883514 17.8091507 297.0881042

endloop
endfacet
facet normal 0.8713365793 -0.2749117911 0.4064431787
outer loop
vertex 69.43883514 17.8091507 297.0881042
vertex 69.219841 18.18503571 297.8118286
vertex 69.09194183 17.58614349 297.6809387

endloop
endfacet
facet normal 0.8712338805 -0.06015556306 0.4871681929
outer loop
vertex 69.43883514 17.8091507 297.0881042
vertex 69.09194183 17.58614349 297.6809387
vertex 69.47383881 17.25189972 296.9566956

endloop
endfacet
facet normal 0.8450682163 -0.1478058547 0.5138221979
outer loop
vertex 69.47383881 17.25189972 296.9566956
vertex 69.09194183 17.58614349 297.6809387
vertex 69.10903168 17.02610016 297.4917297

endloop
endfacet
facet normal 0.4264657199 -0.9001055956 -0.0890891403
outer loop
vertex 69.47383881 17.25189972 296.9566956
vertex 69.10903168 17.02610016 297.4917297
vertex 68.70281219 16.90006256 296.8205872

endloop
endfacet
facet normal 0.8555364013 0 -0.517742753
outer loop
vertex 68.70281219 16.90006256 296.8205872
vertex 69.10903168 17.02610016 297.4917297
vertex 68.70281219 16.9000473 296.8205872

endloop
endfacet
facet normal -0.7284748554 -0.4806703925 0.4881396592
outer loop
vertex 73.85900116 28.45093536 297.26297
vertex 73.85897064 28.45095062 297.2629395
vertex 73.80962372 27.84838104 296.5959473

endloop
endfacet
facet normal 0.7125114202 0.4936240017 -0.4986611009
outer loop
vertex 73.80962372 27.84838104 296.5959473
vertex 73.85897064 28.45095062 297.2629395
vertex 74.0868454 27.70084381 296.8460083

endloop
endfacet
facet normal 0.5215086937 -0.343721956 -0.7809506059
outer loop
vertex 73.80962372 27.84838104 296.5959473
vertex 74.0868454 27.70084381 296.8460083
vertex 73.49752045 27.26966095 296.6422424

endloop
endfacet
facet normal 0.5410469174 -0.3865121603 -0.7469112873
outer loop
vertex 73.49752045 27.26966095 296.6422424
vertex 74.0868454 27.70084381 296.8460083
vertex 73.78395844 27.12741852 296.9233398

endloop
endfacet
facet normal 0.5166438222 -0.4266234934 -0.7423419356
outer loop
vertex 73.49752045 27.26966095 296.6422424
vertex 73.78395844 27.12741852 296.9233398
vertex 73.1812973 26.68837738 296.7562256

endloop
endfacet
facet normal 0.5320154428 -0.4595977068 -0.7111465335
outer loop
vertex 73.1812973 26.68837738 296.7562256
vertex 73.78395844 27.12741852 296.9233398
vertex 73.48030853 26.57566071 297.0527649

endloop
endfacet
facet normal 0.5187622905 -0.4818031192 -0.7062233686
outer loop
vertex 73.1812973 26.68837738 296.7562256
vertex 73.48030853 26.57566071 297.0527649
vertex 72.86083221 26.07717133 296.9378052

endloop
endfacet
facet normal 0.545788765 -0.5282555819 -0.6504311562
outer loop
vertex 72.86083221 26.07717133 296.9378052
vertex 73.48030853 26.57566071 297.0527649
vertex 73.15413666 25.99378204 297.2516479

endloop
endfacet
facet normal 0.560882628 -0.502753377 -0.6577612162
outer loop
vertex 72.86083221 26.07717133 296.9378052
vertex 73.15413666 25.99378204 297.2516479
vertex 72.54955292 25.48914337 297.1218262

endloop
endfacet
facet normal 0.5843194127 -0.5454699397 -0.6008604765
outer loop
vertex 72.54955292 25.48914337 297.1218262
vertex 73.15413666 25.99378204 297.2516479
vertex 72.81893158 25.40869904 297.4568176

endloop
endfacet
facet normal 0.6158846617 -0.4938418865 -0.6138454676
outer loop
vertex 72.54955292 25.48914337 297.1218262
vertex 72.81893158 25.40869904 297.4568176
vertex 72.24062347 24.90369415 297.2828674

endloop
endfacet
facet normal 0.6397879124 -0.5465314388 -0.5403469205
outer loop
vertex 72.24062347 24.90369415 297.2828674
vertex 72.81893158 25.40869904 297.4568176
vertex 72.47618866 24.82381439 297.6425781

endloop
endfacet
facet normal 0.6744247079 -0.4916535914 -0.5508431196
outer loop
vertex 72.24062347 24.90369415 297.2828674
vertex 72.47618866 24.82381439 297.6425781
vertex 71.91674042 24.31679535 297.4101562

endloop
endfacet
facet normal 0.6898533702 -0.5403108001 -0.481836617
outer loop
vertex 71.91674042 24.31679535 297.4101562
vertex 72.47618866 24.82381439 297.6425781
vertex 72.11980438 24.23761749 297.7896729

endloop
endfacet
facet normal 0.7227149606 -0.4887793362 -0.4886489809
outer loop
vertex 71.91674042 24.31679535 297.4101257
vertex 72.11980438 24.23763275 297.7896423
vertex 71.58046722 23.72524261 297.5044861

endloop
endfacet
facet normal 0.73103863 -0.5310288072 -0.4284751713
outer loop
vertex 71.58046722 23.72524261 297.5044861
vertex 72.11980438 24.23763275 297.7896423
vertex 71.75478363 23.6472702 297.8985291

endloop
endfacet
facet normal 0.76140517 -0.4829992354 -0.4324046969
outer loop
vertex 71.58046722 23.72524261 297.5044861
vertex 71.75478363 23.6472702 297.8985291
vertex 71.23656464 23.12519073 297.5691833

endloop
endfacet
facet normal 0.7650530934 -0.5183400512 -0.3821222782
outer loop
vertex 71.23656464 23.12519073 297.5691833
vertex 71.75478363 23.6472702 297.8985291
vertex 71.38680267 23.0488205 297.9735718

endloop
endfacet
facet normal 0.7921611071 -0.4744378328 -0.3839133978
outer loop
vertex 71.23656464 23.12519073 297.5692139
vertex 71.38680267 23.04883575 297.9735718
vertex 70.89116669 22.51593781 297.609436

endloop
endfacet
facet normal 0.7931215763 -0.5047588348 -0.3408471942
outer loop
vertex 70.89116669 22.51593781 297.609436
vertex 71.38680267 23.04883575 297.9735718
vertex 71.02077484 22.44142914 298.0213623

endloop
endfacet
facet normal 0.8186094761 -0.4620603919 -0.3411434889
outer loop
vertex 70.89116669 22.51593781 297.609436
vertex 71.02077484 22.44142914 298.0213623
vertex 70.55452728 21.90251923 297.6324768

endloop
endfacet
facet normal 0.8177468777 -0.492333889 -0.2981568575
outer loop
vertex 70.55452728 21.90251923 297.6324768
vertex 71.02077484 22.44142914 298.0213623
vertex 70.66347504 21.83020782 298.0506897

endloop
endfacet
facet normal 0.8477614522 -0.4395264685 -0.2968451679
outer loop
vertex 70.55452728 21.90251923 297.6324768
vertex 70.66347504 21.83020782 298.0506897
vertex 70.24318695 21.29138947 297.6481934

endloop
endfacet
facet normal 0.8441292048 -0.4799585342 -0.2389263809
outer loop
vertex 70.24318695 21.29138947 297.6481934
vertex 70.66347504 21.83020782 298.0506897
vertex 70.32415009 21.22240448 298.0728149

endloop
endfacet
facet normal 0.886600852 -0.3990481496 -0.2338795662
outer loop
vertex 70.24318695 21.29138947 297.6481934
vertex 70.32415009 21.22240448 298.0728149
vertex 69.97612762 20.68482208 297.6707458

endloop
endfacet
facet normal 0.8752453327 -0.4636853635 -0.1376279444
outer loop
vertex 69.97612762 20.68482208 297.6707458
vertex 70.32415009 21.22240448 298.0728149
vertex 70.01012421 20.62128448 298.1010132

endloop
endfacet
facet normal 0.9314857721 -0.3419370949 -0.1241503358
outer loop
vertex 69.97612762 20.6848526 297.6707764
vertex 70.01015472 20.621315 298.1010742
vertex 69.76024628 20.07866669 297.7206116

endloop
endfacet
facet normal 0.8971053362 -0.4401367009 0.03849316761
outer loop
vertex 69.76024628 20.07866669 297.7206116
vertex 70.01015472 20.621315 298.1010742
vertex 69.71431732 20.02230072 298.1465149

endloop
endfacet
facet normal 0.9577881694 -0.2797333002 0.06626567245
outer loop
vertex 69.76024628 20.07866669 297.7206116
vertex 69.71431732 20.02230072 298.1465149
vertex 69.57369232 19.46086884 297.8090515

endloop
endfacet
facet normal 0.8607513309 -0.4027243853 0.3113201559
outer loop
vertex 69.57369232 19.46086884 297.8090515
vertex 69.71431732 20.02230072 298.1465149
vertex 69.40880585 19.41077423 298.2001343

endloop
endfacet
facet normal 0.9061283469 -0.2345984131 0.3519873619
outer loop
vertex 69.57369232 19.46086884 297.8090515
vertex 69.40880585 19.41077423 298.2001343
vertex 69.38954926 18.82357025 297.8583374

endloop
endfacet
facet normal 0.7314501405 -0.360791713 0.5786275864
outer loop
vertex 69.38954926 18.82357025 297.8583374
vertex 69.40880585 19.41077423 298.2001343
vertex 69.11083221 18.77579498 298.1808777

endloop
endfacet
facet normal 0.7513166666 -0.2443353832 0.61304456
outer loop
vertex 69.38954926 18.82357025 297.8583374
vertex 69.11083221 18.77579498 298.1808777
vertex 69.219841 18.18503571 297.8118286

endloop
endfacet
facet normal 0.5636729598 -0.3603114188 0.7432687283
outer loop
vertex 69.219841 18.18503571 297.8118286
vertex 69.11083221 18.77579498 298.1808777
vertex 68.86660004 18.13523102 298.0555725

endloop
endfacet
facet normal 0.5709096789 -0.2898077071 0.7681624293
outer loop
vertex 69.219841 18.18503571 297.8118286
vertex 68.86660004 18.13523102 298.0555725
vertex 69.09194183 17.58614349 297.6809387

endloop
endfacet
facet normal 0.4202357233 -0.3873963356 0.8205644488
outer loop
vertex 69.09194183 17.58614349 297.6809387
vertex 68.86660004 18.13523102 298.0555725
vertex 68.70149994 17.53273773 297.8556824

endloop
endfacet
facet normal 0.4238532186 -0.2782652378 0.8619262576
outer loop
vertex 69.09194183 17.58614349 297.6809387
vertex 68.70153046 17.53273773 297.8556824
vertex 69.10903168 17.02610016 297.4917297

endloop
endfacet
facet normal 0.3844147027 -0.314345032 0.8679933548
outer loop
vertex 69.10903168 17.02610016 297.4917297
vertex 68.70153046 17.53273773 297.8556824
vertex 68.7186203 16.96266937 297.6416626

endloop
endfacet
facet normal 0.1865226328 -0.9798715711 0.07114207745
outer loop
vertex 69.10903168 17.02610016 297.4917297
vertex 68.7186203 16.96266937 297.6416626
vertex 68.70281219 16.9000473 296.8205872

endloop
endfacet
facet normal -0.9998146892 0 0.0192500744
outer loop
vertex 68.70281219 16.9000473 296.8205872
vertex 68.7186203 16.96266937 297.6416626
vertex 68.70281219 16.90006256 296.8205872

endloop
endfacet
facet normal 0.5301358104 0.5292591453 -0.6624506116
outer loop
vertex 73.85897064 28.45095062 297.2629395
vertex 73.85903168 28.45096588 297.2630005
vertex 74.0868454 27.70084381 296.8460083

endloop
endfacet
facet normal 0.8636372089 0.4185127318 -0.2810297608
outer loop
vertex 74.0868454 27.70084381 296.8460083
vertex 73.85903168 28.45096588 297.2630005
vertex 74.21138763 27.65880585 297.1661377

endloop
endfacet
facet normal 0.7987940907 -0.4721993208 -0.3727677166
outer loop
vertex 74.0868454 27.70084381 296.8460083
vertex 74.21138763 27.65880585 297.1661377
vertex 73.78395844 27.12741852 296.9233398

endloop
endfacet
facet normal 0.8043044806 -0.5008627772 -0.3197354078
outer loop
vertex 73.78395844 27.12741852 296.9233398
vertex 74.21138763 27.65880585 297.1661377
vertex 73.89980316 27.10031891 297.2572021

endloop
endfacet
facet normal 0.7970413566 -0.5132824779 -0.318223387
outer loop
vertex 73.78395844 27.12741852 296.9233398
vertex 73.89980316 27.10031891 297.2572021
vertex 73.48030853 26.57566071 297.0527649

endloop
endfacet
facet normal 0.8002607822 -0.5321573019 -0.2763898969
outer loop
vertex 73.48030853 26.57566071 297.0527649
vertex 73.89980316 27.10031891 297.2572021
vertex 73.6019516 26.58135223 297.3940125

endloop
endfacet
facet normal 0.795678854 -0.539883852 -0.2746277153
outer loop
vertex 73.48030853 26.57566071 297.0527649
vertex 73.6019516 26.58135223 297.3940125
vertex 73.15413666 25.99378204 297.2516479

endloop
endfacet
facet normal 0.8017836809 -0.5615126491 -0.2045640647
outer loop
vertex 73.15413666 25.99378204 297.2516479
vertex 73.6019516 26.58135223 297.3940125
vertex 73.2665329 26.02878571 297.5960999

endloop
endfacet
facet normal 0.8144640923 -0.5405536294 -0.2108316123
outer loop
vertex 73.15413666 25.99378204 297.2516479
vertex 73.2665329 26.02878571 297.5960999
vertex 72.81893158 25.40869904 297.4568176

endloop
endfacet
facet normal 0.8174796104 -0.5582885146 -0.1415665448
outer loop
vertex 72.81893158 25.40869904 297.4568176
vertex 73.2665329 26.02878571 297.5960999
vertex 72.90526581 25.44599152 297.8082886

endloop
endfacet
facet normal 0.8321390748 -0.5345399976 -0.1476872116
outer loop
vertex 72.81893158 25.40869904 297.4568176
vertex 72.90526581 25.44599152 297.8082886
vertex 72.47618866 24.82381439 297.6425781

endloop
endfacet
facet normal 0.8292322755 -0.5555242896 -0.06137280166
outer loop
vertex 72.47618866 24.82381439 297.6425781
vertex 72.90526581 25.44599152 297.8082886
vertex 72.52751923 24.86084747 298.0009155

endloop
endfacet
facet normal 0.8451356888 -0.5304313898 -0.06624422222
outer loop
vertex 72.47618866 24.82381439 297.6425781
vertex 72.52751923 24.86084747 298.0009155
vertex 72.11980438 24.23761749 297.7896729

endloop
endfacet
facet normal 0.8348568678 -0.550329566 0.01230033766
outer loop
vertex 72.11980438 24.23761749 297.7896729
vertex 72.52751923 24.86084747 298.0009155
vertex 72.13869476 24.27436066 298.1514587

endloop
endfacet
facet normal 0.851241827 -0.5246997476 0.008796819486
outer loop
vertex 72.11980438 24.23763275 297.7896423
vertex 72.13869476 24.2743454 298.1514587
vertex 71.75478363 23.6472702 297.8985291

endloop
endfacet
facet normal 0.8366415501 -0.5425592661 0.07523605227
outer loop
vertex 71.75478363 23.6472702 297.8985291
vertex 72.13869476 24.2743454 298.1514587
vertex 71.74562836 23.68341827 298.2610168

endloop
endfacet
facet normal 0.8536319137 -0.5157373548 0.07299043983
outer loop
vertex 71.75478363 23.6472702 297.8985291
vertex 71.74562836 23.68341827 298.2610168
vertex 71.38680267 23.0488205 297.9735718

endloop
endfacet
facet normal 0.8375387788 -0.5313053727 0.1274496168
outer loop
vertex 71.38680267 23.0488205 297.9735718
vertex 71.74562836 23.68341827 298.2610168
vertex 71.35427094 23.08422089 298.3349304

endloop
endfacet
facet normal 0.8540130854 -0.5047019124 0.1262437254
outer loop
vertex 71.38680267 23.04883575 297.9735718
vertex 71.35430145 23.08423615 298.3349609
vertex 71.02077484 22.44142914 298.0213623

endloop
endfacet
facet normal 0.8376520872 -0.5184643269 0.1718542129
outer loop
vertex 71.02077484 22.44142914 298.0213623
vertex 71.35430145 23.08423615 298.3349609
vertex 70.96846771 22.4759903 298.3805847

endloop
endfacet
facet normal 0.8540735841 -0.4910292625 0.1716058552
outer loop
vertex 71.02077484 22.44142914 298.0213623
vertex 70.96846771 22.4759903 298.3805847
vertex 70.66347504 21.83020782 298.0506897

endloop
endfacet
facet normal 0.8356282711 -0.5050222278 0.2160505354
outer loop
vertex 70.66347504 21.83020782 298.0506897
vertex 70.96846771 22.4759903 298.3805847
vertex 70.59172821 21.86374664 298.4065857

endloop
endfacet
facet normal 0.8557187319 -0.4698399305 0.2167851776
outer loop
vertex 70.66347504 21.83020782 298.0506897
vertex 70.59172821 21.86374664 298.4065857
vertex 70.32415009 21.22240448 298.0728149

endloop
endfacet
facet normal 0.8278312087 -0.4887160659 0.2754127085
outer loop
vertex 70.32415009 21.22240448 298.0728149
vertex 70.59172821 21.86374664 298.4065857
vertex 70.22679901 21.25440216 298.4222107

endloop
endfacet
facet normal 0.8565878868 -0.4344205856 0.2784527242
outer loop
vertex 70.32415009 21.22240448 298.0728149
vertex 70.22679901 21.25440216 298.4222107
vertex 70.01012421 20.62128448 298.1010132

endloop
endfacet
facet normal 0.804013133 -0.4638817608 0.3719902337
outer loop
vertex 70.01012421 20.62128448 298.1010132
vertex 70.22679901 21.25440216 298.4222107
vertex 69.87245941 20.65074921 298.4353027

endloop
endfacet
facet normal 0.8404233456 -0.3862246573 0.3801567256
outer loop
vertex 70.01015472 20.621315 298.1010742
vertex 69.87248993 20.65076447 298.4353333
vertex 69.71431732 20.02230072 298.1465149

endloop
endfacet
facet normal 0.7344327569 -0.4271984994 0.5273612738
outer loop
vertex 69.71431732 20.02230072 298.1465149
vertex 69.87248993 20.65076447 298.4353333
vertex 69.51561737 20.04842377 298.444397

endloop
endfacet
facet normal 0.7694029808 -0.3367948532 0.5427598953
outer loop
vertex 69.71431732 20.02230072 298.1465149
vertex 69.51561737 20.04842377 298.444397
vertex 69.40880585 19.41077423 298.2001343

endloop
endfacet
facet normal 0.5648357868 -0.3760017753 0.7345632315
outer loop
vertex 69.40880585 19.41077423 298.2001343
vertex 69.51561737 20.04842377 298.444397
vertex 69.13375092 19.43399811 298.4235229

endloop
endfacet
facet normal 0.586489141 -0.2980583012 0.753121376
outer loop
vertex 69.40880585 19.41077423 298.2001343
vertex 69.13375092 19.43399811 298.4235229
vertex 69.11083221 18.77579498 298.1808777

endloop
endfacet
facet normal 0.3164823949 -0.3377954066 0.8864158988
outer loop
vertex 69.11083221 18.77579498 298.1808777
vertex 69.13375092 19.43399811 298.4235229
vertex 68.77822113 18.79795074 298.308075

endloop
endfacet
facet normal 0.3234221637 -0.2989371717 0.8977943063
outer loop
vertex 69.11083221 18.77579498 298.1808777
vertex 68.77822113 18.79795074 298.308075
vertex 68.86660004 18.13523102 298.0555725

endloop
endfacet
facet normal 0.08480925113 -0.3448628485 0.9348138571
outer loop
vertex 68.86660004 18.13523102 298.0555725
vertex 68.77822113 18.79795074 298.308075
vertex 68.51006317 18.15831757 298.0964355

endloop
endfacet
facet normal 0.08586332202 -0.3348474801 0.9383520484
outer loop
vertex 68.86660004 18.13523102 298.0555725
vertex 68.51006317 18.15831757 298.0964355
vertex 68.70149994 17.53273773 297.8556824

endloop
endfacet
facet normal -0.08510127664 -0.3804415762 0.9208811522
outer loop
vertex 68.70149994 17.53273773 297.8556824
vertex 68.51006317 18.15831757 298.0964355
vertex 68.3441391 17.55727386 297.8327942

endloop
endfacet
facet normal -0.08396705985 -0.3524389565 0.9320602417
outer loop
vertex 68.70153046 17.53273773 297.8556824
vertex 68.3441391 17.55727386 297.8327637
vertex 68.7186203 16.96266937 297.6416626

endloop
endfacet
facet normal -0.1218451634 -0.3724274933 0.9200279713
outer loop
vertex 68.7186203 16.96266937 297.6416626
vertex 68.3441391 17.55727386 297.8327637
vertex 68.35659027 16.97978973 297.600647

endloop
endfacet
facet normal -0.05579685047 -0.9954702854 0.07697863132
outer loop
vertex 68.7186203 16.96266937 297.6416626
vertex 68.35659027 16.97978973 297.600647
vertex 68.70281219 16.90006256 296.8205872

endloop
endfacet
facet normal 0 0.9948223233 -0.1016300023
outer loop
vertex 68.70281219 16.90006256 296.8205872
vertex 68.35659027 16.97978973 297.600647
vertex 68.70284271 16.90006256 296.8205872

endloop
endfacet
facet normal -0.6563085914 -0.3721800148 0.6563085914
outer loop
vertex 73.85903168 28.45096588 297.2630005
vertex 73.85900116 28.45096588 297.26297
vertex 74.21138763 27.65880585 297.1661377

endloop
endfacet
facet normal 0.9119076133 0.4093069136 -0.02987298742
outer loop
vertex 74.21138763 27.65880585 297.1661377
vertex 73.85900116 28.45096588 297.26297
vertex 74.2019577 27.7050705 297.5121765

endloop
endfacet
facet normal 0.8759382367 -0.4744577408 0.08730424196
outer loop
vertex 74.21138763 27.65880585 297.1661377
vertex 74.2019577 27.7050705 297.5121765
vertex 73.89980316 27.10031891 297.2572021

endloop
endfacet
facet normal 0.8634761572 -0.4869144857 0.1316174269
outer loop
vertex 73.89980316 27.10031891 297.2572021
vertex 74.2019577 27.7050705 297.5121765
vertex 73.88097382 27.15940094 297.5993042

endloop
endfacet
facet normal 0.8743610978 -0.4678373635 0.1289218515
outer loop
vertex 73.89980316 27.10031891 297.2572021
vertex 73.88097382 27.15940094 297.5993042
vertex 73.6019516 26.58135223 297.3940125

endloop
endfacet
facet normal 0.8616225123 -0.4772500992 0.1727395356
outer loop
vertex 73.6019516 26.58135223 297.3940125
vertex 73.88097382 27.15940094 297.5993042
vertex 73.58367157 26.67249298 297.7369995

endloop
endfacet
facet normal 0.8687437177 -0.4652014375 0.1699174047
outer loop
vertex 73.6019516 26.58135223 297.3940125
vertex 73.58367157 26.67249298 297.7369995
vertex 73.2665329 26.02878571 297.5960999

endloop
endfacet
facet normal 0.8492113948 -0.4707510769 0.2392350435
outer loop
vertex 73.2665329 26.02878571 297.5960999
vertex 73.58367157 26.67249298 297.7369995
vertex 73.23729706 26.14664459 297.9317932

endloop
endfacet
facet normal 0.8622675538 -0.4496853352 0.2329760939
outer loop
vertex 73.2665329 26.02878571 297.5960999
vertex 73.23729706 26.14664459 297.9317932
vertex 72.90526581 25.44599152 297.8082886

endloop
endfacet
facet normal 0.8403715491 -0.4511845112 0.3003468215
outer loop
vertex 72.90526581 25.44599152 297.8082886
vertex 73.23729706 26.14664459 297.9317932
vertex 72.85085297 25.56546783 298.1400146

endloop
endfacet
facet normal 0.8435387611 -0.446113646 0.2990399897
outer loop
vertex 72.90526581 25.44599152 297.8082886
vertex 72.85085297 25.56546783 298.1400146
vertex 72.52751923 24.86084747 298.0009155

endloop
endfacet
facet normal 0.8097835779 -0.4466893077 0.3804197311
outer loop
vertex 72.52751923 24.86084747 298.0009155
vertex 72.85085297 25.56546783 298.1400146
vertex 72.44029999 24.97949982 298.3258972

endloop
endfacet
facet normal 0.8130218983 -0.4416148365 0.3794361055
outer loop
vertex 72.52751923 24.86084747 298.0009155
vertex 72.44029999 24.97949982 298.3258972
vertex 72.13869476 24.27436066 298.1514587

endloop
endfacet
facet normal 0.7749627233 -0.4429839253 0.4507750571
outer loop
vertex 72.13869476 24.27436066 298.1514587
vertex 72.44029999 24.97949982 298.3258972
vertex 72.02193451 24.39191437 298.4677124

endloop
endfacet
facet normal 0.7798384428 -0.4353266358 0.4498251081
outer loop
vertex 72.13869476 24.2743454 298.1514587
vertex 72.02190399 24.39191437 298.4677124
vertex 71.74562836 23.68341827 298.2610168

endloop
endfacet
facet normal 0.7418177128 -0.4375321269 0.5082047582
outer loop
vertex 71.74562836 23.68341827 298.2610168
vertex 72.02190399 24.39191437 298.4677124
vertex 71.60378265 23.79920197 298.567749

endloop
endfacet
facet normal 0.7488301992 -0.4265119135 0.5072877407
outer loop
vertex 71.74562836 23.68341827 298.2610168
vertex 71.60378265 23.79920197 298.567749
vertex 71.35427094 23.08422089 298.3349304

endloop
endfacet
facet normal 0.7136897445 -0.4292941391 0.5534920692
outer loop
vertex 71.35427094 23.08422089 298.3349304
vertex 71.60378265 23.79920197 298.567749
vertex 71.19176483 23.19760895 298.6324158

endloop
endfacet
facet normal 0.7217130065 -0.416331172 0.5529907346
outer loop
vertex 71.35430145 23.08423615 298.3349609
vertex 71.19179535 23.19762421 298.6324158
vertex 70.96846771 22.4759903 298.3805847

endloop
endfacet
facet normal 0.6893582344 -0.4194533825 0.5906302333
outer loop
vertex 70.96846771 22.4759903 298.3805847
vertex 71.19179535 23.19762421 298.6324158
vertex 70.78865814 22.58664703 298.6690369

endloop
endfacet
facet normal 0.6982856393 -0.4046072662 0.5904998779
outer loop
vertex 70.96846771 22.4759903 298.3805847
vertex 70.78865814 22.58664703 298.6690369
vertex 70.59172821 21.86374664 298.4065857

endloop
endfacet
facet normal 0.6639558673 -0.4083090127 0.6264554262
outer loop
vertex 70.59172821 21.86374664 298.4065857
vertex 70.78865814 22.58664703 298.6690369
vertex 70.39507294 21.97116852 298.6850281

endloop
endfacet
facet normal 0.675403893 -0.3884170949 0.6268665791
outer loop
vertex 70.59172821 21.86374664 298.4065857
vertex 70.39507294 21.97116852 298.6850281
vertex 70.22679901 21.25440216 298.4222107

endloop
endfacet
facet normal 0.626494348 -0.3937287629 0.6726680994
outer loop
vertex 70.22679901 21.25440216 298.4222107
vertex 70.39507294 21.97116852 298.6850281
vertex 70.00853729 21.35684967 298.6854553

endloop
endfacet
facet normal 0.6430675983 -0.3628494442 0.6743918657
outer loop
vertex 70.22679901 21.25440216 298.4222107
vertex 70.00853729 21.35684967 298.6854553
vertex 69.87245941 20.65074921 298.4353027

endloop
endfacet
facet normal 0.5567423701 -0.3706618249 0.7434028387
outer loop
vertex 69.87245941 20.65074921 298.4353027
vertex 70.00853729 21.35684967 298.6854553
vertex 69.62236786 20.74510956 298.6696472

endloop
endfacet
facet normal 0.5761130452 -0.3300814033 0.74775666
outer loop
vertex 69.87248993 20.65076447 298.4353333
vertex 69.62239838 20.74514008 298.6696777
vertex 69.51561737 20.04842377 298.444397

endloop
endfacet
facet normal 0.4178580046 -0.3368661702 0.8437510133
outer loop
vertex 69.51561737 20.04842377 298.444397
vertex 69.62239838 20.74514008 298.6696777
vertex 69.22374725 20.13208771 298.622345

endloop
endfacet
facet normal 0.4331465364 -0.2980988324 0.850600481
outer loop
vertex 69.51561737 20.04842377 298.444397
vertex 69.22374725 20.13208771 298.622345
vertex 69.13375092 19.43399811 298.4235229

endloop
endfacet
facet normal 0.1665514708 -0.289891243 0.9424561262
outer loop
vertex 69.13375092 19.43399811 298.4235229
vertex 69.22374725 20.13208771 298.622345
vertex 68.80327606 19.50833893 298.5047913

endloop
endfacet
facet normal 0.1726444066 -0.2685142457 0.9476782084
outer loop
vertex 69.13375092 19.43399811 298.4235229
vertex 68.80327606 19.50833893 298.5047913
vertex 68.77822113 18.79795074 298.308075

endloop
endfacet
facet normal -0.1275184304 -0.2605124116 0.9570122361
outer loop
vertex 68.77822113 18.79795074 298.308075
vertex 68.80327606 19.50833893 298.5047913
vertex 68.43636322 18.8688736 298.2818298

endloop
endfacet
facet normal -0.1279390007 -0.2627910674 0.9563328624
outer loop
vertex 68.77822113 18.79795074 298.308075
vertex 68.43636322 18.8688736 298.2818298
vertex 68.51006317 18.15831757 298.0964355

endloop
endfacet
facet normal -0.3623394072 -0.2703145444 0.8919866681
outer loop
vertex 68.51006317 18.15831757 298.0964355
vertex 68.43636322 18.8688736 298.2818298
vertex 68.18318939 18.23223114 297.9860535

endloop
endfacet
facet normal -0.3642007411 -0.2879553735 0.8856858611
outer loop
vertex 68.51006317 18.15831757 298.0964355
vertex 68.18318939 18.23223114 297.9860535
vertex 68.3441391 17.55727386 297.8327942

endloop
endfacet
facet normal -0.51751405 -0.3049429357 0.7994929552
outer loop
vertex 68.3441391 17.55727386 297.8327942
vertex 68.18318939 18.23223114 297.9860535
vertex 68.0429306 17.63631439 297.6679688

endloop
endfacet
facet normal -0.518225491 -0.3285554945 0.7896161079
outer loop
vertex 68.3441391 17.55727386 297.8327637
vertex 68.0429306 17.63631439 297.6679688
vertex 68.35659027 16.97978973 297.600647

endloop
endfacet
facet normal -0.5596920848 -0.3446754217 0.7536203861
outer loop
vertex 68.35659027 16.97978973 297.600647
vertex 68.0429306 17.63631439 297.6679688
vertex 68.05144501 17.05979156 297.410614

endloop
endfacet
facet normal -0.2473185062 -0.9688745737 -0.01075429562
outer loop
vertex 68.35659027 16.97978973 297.600647
vertex 68.05144501 17.05979156 297.410614
vertex 68.70284271 16.90006256 296.8205872

endloop
endfacet
facet normal -0.4339739084 -0.8672298789 -0.2440878898
outer loop
vertex 68.70284271 16.90006256 296.8205872
vertex 68.05144501 17.05979156 297.410614
vertex 68.70281219 16.90007782 296.8205872

endloop
endfacet
facet normal -0.5878378153 0 0.8089788556
outer loop
vertex 73.85900116 28.45096588 297.26297
vertex 73.85900116 28.45095062 297.26297
vertex 74.2019577 27.7050705 297.5121765

endloop
endfacet
facet normal 0.8590354323 0.4658754468 0.2121751308
outer loop
vertex 74.2019577 27.7050705 297.5121765
vertex 73.85900116 28.45095062 297.26297
vertex 74.06487274 27.82604218 297.8015747

endloop
endfacet
facet normal 0.77015692 -0.3700844944 0.5195149183
outer loop
vertex 74.2019577 27.7050705 297.5121765
vertex 74.06487274 27.82604218 297.8015747
vertex 73.88097382 27.15940094 297.5993042

endloop
endfacet
facet normal 0.7632960677 -0.3710332215 0.5288795233
outer loop
vertex 73.88097382 27.15940094 297.5993042
vertex 74.06487274 27.82604218 297.8015747
vertex 73.74736786 27.28235626 297.8783875

endloop
endfacet
facet normal 0.7855168581 -0.3319295049 0.5222893953
outer loop
vertex 73.88097382 27.15940094 297.5993042
vertex 73.74736786 27.28235626 297.8783875
vertex 73.58367157 26.67249298 297.7369995

endloop
endfacet
facet normal 0.7583793998 -0.3334086239 0.5600886941
outer loop
vertex 73.58367157 26.67249298 297.7369995
vertex 73.74736786 27.28235626 297.8783875
vertex 73.44606781 26.82012177 298.0112

endloop
endfacet
facet normal 0.7749227881 -0.3054600656 0.5533432961
outer loop
vertex 73.58367157 26.67249298 297.7369995
vertex 73.44606781 26.82012177 298.0112
vertex 73.23729706 26.14664459 297.9317932

endloop
endfacet
facet normal 0.7331856489 -0.2992767692 0.6106325984
outer loop
vertex 73.23729706 26.14664459 297.9317932
vertex 73.44606781 26.82012177 298.0112
vertex 73.08950043 26.31320953 298.1908875

endloop
endfacet
facet normal 0.7457711101 -0.2791721821 0.6048870087
outer loop
vertex 73.23729706 26.14664459 297.9317932
vertex 73.08950043 26.31320953 298.1908875
vertex 72.85085297 25.56546783 298.1400146

endloop
endfacet
facet normal 0.702298224 -0.2689864039 0.6591081023
outer loop
vertex 72.85085297 25.56546783 298.1400146
vertex 73.08950043 26.31320953 298.1908875
vertex 72.68367767 25.73274994 298.3864136

endloop
endfacet
facet normal 0.696511507 -0.2781844437 0.6614265442
outer loop
vertex 72.85085297 25.56546783 298.1400146
vertex 72.68367767 25.73274994 298.3864136
vertex 72.44029999 24.97949982 298.3258972

endloop
endfacet
facet normal 0.6375039816 -0.2641266882 0.7237581015
outer loop
vertex 72.44029999 24.97949982 298.3258972
vertex 72.68367767 25.73274994 298.3864136
vertex 72.24901581 25.14557648 298.5549927

endloop
endfacet
facet normal 0.6310599446 -0.2741787434 0.7256647348
outer loop
vertex 72.44029999 24.97949982 298.3258972
vertex 72.24901581 25.14557648 298.5549927
vertex 72.02193451 24.39191437 298.4677124

endloop
endfacet
facet normal 0.5713759661 -0.2622184157 0.7776702046
outer loop
vertex 72.02193451 24.39191437 298.4677124
vertex 72.24901581 25.14557648 298.5549927
vertex 71.80974579 24.55649567 298.6791077

endloop
endfacet
facet normal 0.5672138929 -0.2687421143 0.7784895897
outer loop
vertex 72.02190399 24.39191437 298.4677124
vertex 71.80974579 24.55649567 298.6791077
vertex 71.60378265 23.79920197 298.567749

endloop
endfacet
facet normal 0.5120190978 -0.2596565485 0.8187888265
outer loop
vertex 71.60378265 23.79920197 298.567749
vertex 71.80974579 24.55649567 298.6791077
vertex 71.3743515 23.9613266 298.7626343

endloop
endfacet
facet normal 0.510694325 -0.2617316842 0.8189554214
outer loop
vertex 71.60378265 23.79920197 298.567749
vertex 71.3743515 23.9613266 298.7626343
vertex 71.19176483 23.19760895 298.6324158

endloop
endfacet
facet normal 0.4620648921 -0.2552812397 0.8493100405
outer loop
vertex 71.19176483 23.19760895 298.6324158
vertex 71.3743515 23.9613266 298.7626343
vertex 70.94829559 23.35636139 298.8125916

endloop
endfacet
facet normal 0.4626647234 -0.2543739676 0.849255681
outer loop
vertex 71.19179535 23.19762421 298.6324158
vertex 70.94829559 23.35637665 298.8126221
vertex 70.78865814 22.58664703 298.6690369

endloop
endfacet
facet normal 0.4197423458 -0.2498239428 0.8725848794
outer loop
vertex 70.78865814 22.58664703 298.6690369
vertex 70.94829559 23.35637665 298.8126221
vertex 70.53353119 22.74158478 298.8361206

endloop
endfacet
facet normal 0.4215178192 -0.2468807399 0.8725667
outer loop
vertex 70.78865814 22.58664703 298.6690369
vertex 70.53353119 22.74158478 298.8361206
vertex 70.39507294 21.97116852 298.6850281

endloop
endfacet
facet normal 0.377048552 -0.2430406213 0.8937368393
outer loop
vertex 70.39507294 21.97116852 298.6850281
vertex 70.53353119 22.74158478 298.8361206
vertex 70.12880707 22.12155914 298.8382568

endloop
endfacet
facet normal 0.3797721267 -0.2383348197 0.8938510418
outer loop
vertex 70.39507294 21.97116852 298.6850281
vertex 70.12880707 22.12155914 298.8382568
vertex 70.00853729 21.35684967 298.6854553

endloop
endfacet
facet normal 0.3183676898 -0.2336471677 0.9187224507
outer loop
vertex 70.00853729 21.35684967 298.6854553
vertex 70.12880707 22.12155914 298.8382568
vertex 69.7286911 21.50028229 298.8189087

endloop
endfacet
facet normal 0.321970582 -0.2269999236 0.9191333055
outer loop
vertex 70.00853729 21.35684967 298.6854553
vertex 69.7286911 21.50028229 298.8189087
vertex 69.62236786 20.74510956 298.6696472

endloop
endfacet
facet normal 0.2173764706 -0.2186291814 0.9512879252
outer loop
vertex 69.62236786 20.74510956 298.6696472
vertex 69.7286911 21.50028229 298.8189087
vertex 69.32463837 20.87718964 298.7680359

endloop
endfacet
facet normal 0.2188424766 -0.2157789171 0.9516025186
outer loop
vertex 69.62239838 20.74514008 298.6696777
vertex 69.32466888 20.87722015 298.7680969
vertex 69.22374725 20.13208771 298.622345

endloop
endfacet
facet normal 0.03873819113 -0.1968742013 0.9796631336
outer loop
vertex 69.22374725 20.13208771 298.622345
vertex 69.32466888 20.87722015 298.7680969
vertex 68.90978241 20.24919891 298.6582947

endloop
endfacet
facet normal 0.03453196958 -0.2075235993 0.9776203036
outer loop
vertex 69.22374725 20.13208771 298.622345
vertex 68.90978241 20.24919891 298.6582947
vertex 68.80327606 19.50833893 298.5047913

endloop
endfacet
facet normal -0.2399256229 -0.1637697369 0.9568778872
outer loop
vertex 68.80327606 19.50833893 298.5047913
vertex 68.90978241 20.24919891 298.6582947
vertex 68.49190521 19.61234283 298.444519

endloop
endfacet
facet normal -0.2472272366 -0.1894689947 0.9502527118
outer loop
vertex 68.80327606 19.50833893 298.5047913
vertex 68.49190521 19.61234283 298.444519
vertex 68.43636322 18.8688736 298.2818298

endloop
endfacet
facet normal -0.5200592875 -0.1453274041 0.8416759372
outer loop
vertex 68.43636322 18.8688736 298.2818298
vertex 68.49190521 19.61234283 298.444519
vertex 68.15645599 18.96807098 298.1260071

endloop
endfacet
facet normal -0.5259232521 -0.1773199886 0.8318427205
outer loop
vertex 68.43636322 18.8688736 298.2818298
vertex 68.15645599 18.96807098 298.1260071
vertex 68.18318939 18.23223114 297.9860535

endloop
endfacet
facet normal -0.7138359547 -0.1557928324 0.6827641726
outer loop
vertex 68.18318939 18.23223114 297.9860535
vertex 68.15645599 18.96807098 298.1260071
vertex 67.94939423 18.33570099 297.7652283

endloop
endfacet
facet normal -0.7172080278 -0.1891882271 0.6706866026
outer loop
vertex 68.18318939 18.23223114 297.9860535
vertex 67.94939423 18.33570099 297.7652283
vertex 68.0429306 17.63631439 297.6679688

endloop
endfacet
facet normal -0.8261621594 -0.1845235527 0.5323600173
outer loop
vertex 68.0429306 17.63631439 297.6679688
vertex 67.94939423 18.33570099 297.7652283
vertex 67.85320282 17.74716949 297.4119568

endloop
endfacet
facet normal -0.8267567158 -0.2394480854 0.5090558529
outer loop
vertex 68.0429306 17.63631439 297.6679688
vertex 67.8531723 17.74716949 297.4119263
vertex 68.05144501 17.05979156 297.410614

endloop
endfacet
facet normal -0.8687500954 -0.2514037192 0.4266959429
outer loop
vertex 68.05144501 17.05979156 297.410614
vertex 67.8531723 17.74716949 297.4119263
vertex 67.87395477 17.1818924 297.1211853

endloop
endfacet
facet normal -0.3692252338 -0.9154989123 -0.1597951651
outer loop
vertex 68.05144501 17.05979156 297.410614
vertex 67.87395477 17.1818924 297.1211853
vertex 68.70281219 16.90007782 296.8205872

endloop
endfacet
facet normal 0.3409645557 0 0.9400761127
outer loop
vertex 68.70281219 16.90007782 296.8205872
vertex 67.87395477 17.1818924 297.1211853
vertex 68.70281219 16.9000473 296.8205872

endloop
endfacet
facet normal 0.2850796282 -0.5701592565 -0.7704855204
outer loop
vertex 73.85900116 28.45095062 297.26297
vertex 73.85903168 28.45096588 297.26297
vertex 74.06487274 27.82604218 297.8015747

endloop
endfacet
facet normal 0.7119498849 0.5780992508 0.3986585736
outer loop
vertex 74.06487274 27.82604218 297.8015747
vertex 73.85903168 28.45096588 297.26297
vertex 73.83663177 27.99106598 297.9698792

endloop
endfacet
facet normal 0.5007148385 -0.1725703776 0.8482359052
outer loop
vertex 74.06487274 27.82604218 297.8015747
vertex 73.83663177 27.99106598 297.9698792
vertex 73.74736786 27.28235626 297.8783875

endloop
endfacet
facet normal 0.523422122 -0.1736181676 0.8341978192
outer loop
vertex 73.74736786 27.28235626 297.8783875
vertex 73.83663177 27.99106598 297.9698792
vertex 73.53582001 27.43888092 298.0437012

endloop
endfacet
facet normal 0.5527049899 -0.1234622151 0.8241809607
outer loop
vertex 73.74736786 27.28235626 297.8783875
vertex 73.53582001 27.43888092 298.0437012
vertex 73.44606781 26.82012177 298.0112

endloop
endfacet
facet normal 0.5143877268 -0.1192199588 0.8492301702
outer loop
vertex 73.44606781 26.82012177 298.0112
vertex 73.53582001 27.43888092 298.0437012
vertex 73.22725677 26.98969269 298.1675415

endloop
endfacet
facet normal 0.5374343991 -0.08047070354 0.8394573927
outer loop
vertex 73.44606781 26.82012177 298.0112
vertex 73.22725677 26.98969269 298.1675415
vertex 73.08950043 26.31320953 298.1908875

endloop
endfacet
facet normal 0.4780834615 -0.06713238358 0.8757451177
outer loop
vertex 73.08950043 26.31320953 298.1908875
vertex 73.22725677 26.98969269 298.1675415
vertex 72.86321259 26.49077606 298.3280334

endloop
endfacet
facet normal 0.4893756509 -0.04884819314 0.8707039952
outer loop
vertex 73.08950043 26.31320953 298.1908875
vertex 72.86321259 26.49077606 298.3280334
vertex 72.68367767 25.73274994 298.3864136

endloop
endfacet
facet normal 0.430033356 -0.03236503154 0.9022327065
outer loop
vertex 72.68367767 25.73274994 298.3864136
vertex 72.86321259 26.49077606 298.3280334
vertex 72.44738007 25.91007233 298.5054016

endloop
endfacet
facet normal 0.4190511107 -0.04992314801 0.9065891504
outer loop
vertex 72.68367767 25.73274994 298.3864136
vertex 72.44738007 25.91007233 298.5054016
vertex 72.24901581 25.14557648 298.5549927

endloop
endfacet
facet normal 0.3422042429 -0.02786745317 0.9392122626
outer loop
vertex 72.24901581 25.14557648 298.5549927
vertex 72.44738007 25.91007233 298.5054016
vertex 72.00127411 25.32164764 298.6504822

endloop
endfacet
facet normal 0.3298122883 -0.04728278518 0.9428616762
outer loop
vertex 72.24901581 25.14557648 298.5549927
vertex 72.00127411 25.32164764 298.6504822
vertex 71.80974579 24.55649567 298.6791077

endloop
endfacet
facet normal 0.2565220594 -0.02806667984 0.9661307931
outer loop
vertex 71.80974579 24.55649567 298.6791077
vertex 72.00127411 25.32164764 298.6504822
vertex 71.55321503 24.73096466 298.7522888

endloop
endfacet
facet normal 0.2461526692 -0.04419093207 0.9682230949
outer loop
vertex 71.80974579 24.55649567 298.6791077
vertex 71.55321503 24.73096466 298.7522888
vertex 71.3743515 23.9613266 298.7626343

endloop
endfacet
facet normal 0.1812762022 -0.02891494334 0.9830070734
outer loop
vertex 71.3743515 23.9613266 298.7626343
vertex 71.55321503 24.73096466 298.7522888
vertex 71.11116791 24.13318634 298.8162231

endloop
endfacet
facet normal 0.1735835671 -0.04099420086 0.9839655757
outer loop
vertex 71.3743515 23.9613266 298.7626343
vertex 71.11116791 24.13318634 298.8162231
vertex 70.94829559 23.35636139 298.8125916

endloop
endfacet
facet normal 0.1186972708 -0.02952637151 0.9924914241
outer loop
vertex 70.94829559 23.35636139 298.8125916
vertex 71.11116791 24.13318634 298.8162231
vertex 70.67986298 23.52463531 298.8497009

endloop
endfacet
facet normal 0.113177672 -0.03840643913 0.9928321838
outer loop
vertex 70.94829559 23.35637665 298.8126221
vertex 70.67986298 23.52465057 298.8497314
vertex 70.53353119 22.74158478 298.8361206

endloop
endfacet
facet normal 0.0655791834 -0.02959123626 0.9974085093
outer loop
vertex 70.53353119 22.74158478 298.8361206
vertex 70.67986298 23.52465057 298.8497314
vertex 70.26091766 22.90581512 298.8589172

endloop
endfacet
facet normal 0.06135284901 -0.03661172464 0.9974444509
outer loop
vertex 70.53353119 22.74158478 298.8361206
vertex 70.26091766 22.90581512 298.8589172
vertex 70.12880707 22.12155914 298.8382568

endloop
endfacet
facet normal 0.01332748774 -0.02857591212 0.9995027781
outer loop
vertex 70.12880707 22.12155914 298.8382568
vertex 70.26091766 22.90581512 298.8589172
vertex 69.85262299 22.28095245 298.8464966

endloop
endfacet
facet normal 0.008640934713 -0.03668537363 0.9992895126
outer loop
vertex 70.12880707 22.12155914 298.8382568
vertex 69.85262299 22.28095245 298.8464966
vertex 69.7286911 21.50028229 298.8189087

endloop
endfacet
facet normal -0.05663264915 -0.02627931722 0.9980491996
outer loop
vertex 69.7286911 21.50028229 298.8189087
vertex 69.85262299 22.28095245 298.8464966
vertex 69.44893646 21.6523056 298.8070374

endloop
endfacet
facet normal -0.06400182098 -0.03991023451 0.9971513748
outer loop
vertex 69.7286911 21.50028229 298.8189087
vertex 69.44893646 21.6523056 298.8070374
vertex 69.32463837 20.87718964 298.7680359

endloop
endfacet
facet normal -0.1702197045 -0.02227341197 0.9851543307
outer loop
vertex 69.32463837 20.87718964 298.7680359
vertex 69.44893646 21.6523056 298.8070374
vertex 69.04332733 21.01720428 298.7225952

endloop
endfacet
facet normal -0.1837035865 -0.05027883872 0.9816949964
outer loop
vertex 69.32466888 20.87722015 298.7680969
vertex 69.04335785 21.01721954 298.7226257
vertex 68.90978241 20.24919891 298.6582947

endloop
endfacet
facet normal -0.3552095592 -0.01650888473 0.9346408844
outer loop
vertex 68.90978241 20.24919891 298.6582947
vertex 69.04335785 21.01721954 298.7226257
vertex 68.63878632 20.3733139 298.5574951

endloop
endfacet
facet normal -0.373965323 -0.0651685819 0.9251502156
outer loop
vertex 68.90978241 20.24919891 298.6582947
vertex 68.63878632 20.3733139 298.5574951
vertex 68.49190521 19.61234283 298.444519

endloop
endfacet
facet normal -0.608577013 -0.0003383456497 0.793494761
outer loop
vertex 68.49190521 19.61234283 298.444519
vertex 68.63878632 20.3733139 298.5574951
vertex 68.26058197 19.72258759 298.2671509

endloop
endfacet
facet normal -0.6250585318 -0.05933615938 0.7783193588
outer loop
vertex 68.49190521 19.61234283 298.444519
vertex 68.26058197 19.72258759 298.2671509
vertex 68.15645599 18.96807098 298.1260071

endloop
endfacet
facet normal -0.8222932816 0.007035496179 0.5690203905
outer loop
vertex 68.15645599 18.96807098 298.1260071
vertex 68.26058197 19.72258759 298.2671509
vertex 67.98934174 19.07324982 297.8832092

endloop
endfacet
facet normal -0.8316625357 -0.0435067974 0.5535743833
outer loop
vertex 68.15645599 18.96807098 298.1260071
vertex 67.98934174 19.07324982 297.8832092
vertex 67.94939423 18.33570099 297.7652283

endloop
endfacet
facet normal -0.9392206073 -0.004043388646 0.343290329
outer loop
vertex 67.94939423 18.33570099 297.7652283
vertex 67.98934174 19.07324982 297.8832092
vertex 67.8476181 18.44542694 297.4880676

endloop
endfacet
facet normal -0.9432664514 -0.04342582449 0.3291847408
outer loop
vertex 67.94939423 18.33570099 297.7652283
vertex 67.8476181 18.44542694 297.4880676
vertex 67.85320282 17.74716949 297.4119568

endloop
endfacet
facet normal -0.9867962599 -0.02532975376 0.1599734128
outer loop
vertex 67.85320282 17.74716949 297.4119568
vertex 67.8476181 18.44542694 297.4880676
vertex 67.80355072 17.86476898 297.1242981

endloop
endfacet
facet normal -0.9864387512 -0.1022861972 0.1283596307
outer loop
vertex 67.8531723 17.74716949 297.4119263
vertex 67.80355072 17.86476898 297.1242981
vertex 67.87395477 17.1818924 297.1211853

endloop
endfacet
facet normal -0.9947272539 -0.1025558263 4.63687029e-05
outer loop
vertex 67.87395477 17.1818924 297.1211853
vertex 67.80355072 17.86476898 297.1242981
vertex 67.86006927 17.31642914 296.803009

endloop
endfacet
facet normal -0.4109009206 -0.8459941745 -0.3397856653
outer loop
vertex 67.87395477 17.1818924 297.1211853
vertex 67.86006927 17.31642914 296.803009
vertex 68.70281219 16.9000473 296.8205872

endloop
endfacet
facet normal 0.01048662607 -0.02097325213 -0.9997250438
outer loop
vertex 68.70281219 16.9000473 296.8205872
vertex 67.86006927 17.31642914 296.803009
vertex 68.70284271 16.90006256 296.8205872

endloop
endfacet
facet normal 0.1289687157 0.829348743 0.5436430573
outer loop
vertex 73.85903168 28.45096588 297.26297
vertex 73.85900116 28.45095062 297.2630005
vertex 73.83663177 27.99106598 297.9698792

endloop
endfacet
facet normal 0.4909161329 0.7230798006 0.4859600067
outer loop
vertex 73.83663177 27.99106598 297.9698792
vertex 73.85900116 28.45095062 297.2630005
vertex 73.55751801 28.17067719 297.9845886

endloop
endfacet
facet normal 0.1018795222 0.0770945847 0.9918048978
outer loop
vertex 73.83663177 27.99106598 297.9698792
vertex 73.55751801 28.17067719 297.9845886
vertex 73.53582001 27.43888092 298.0437012

endloop
endfacet
facet normal 0.1564308107 0.07491482794 0.9848437905
outer loop
vertex 73.53582001 27.43888092 298.0437012
vertex 73.55751801 28.17067719 297.9845886
vertex 73.27019501 27.6108017 298.0728149

endloop
endfacet
facet normal 0.1937593222 0.1348075569 0.9717429876
outer loop
vertex 73.53582001 27.43888092 298.0437012
vertex 73.27019501 27.6108017 298.0728149
vertex 73.22725677 26.98969269 298.1675415

endloop
endfacet
facet normal 0.14767012 0.1391313374 0.9792017341
outer loop
vertex 73.22725677 26.98969269 298.1675415
vertex 73.27019501 27.6108017 298.0728149
vertex 72.95159149 27.16135406 298.1847229

endloop
endfacet
facet normal 0.1746889353 0.1837077439 0.9673341513
outer loop
vertex 73.22725677 26.98969269 298.1675415
vertex 72.95159149 27.16135406 298.1847229
vertex 72.86321259 26.49077606 298.3280334

endloop
endfacet
facet normal 0.1034810916 0.1948093176 0.9753671288
outer loop
vertex 72.86321259 26.49077606 298.3280334
vertex 72.95159149 27.16135406 298.1847229
vertex 72.5837326 26.65833282 298.3242188

endloop
endfacet
facet normal 0.1150163114 0.2139288187 0.9700545073
outer loop
vertex 72.86321259 26.49077606 298.3280334
vertex 72.5837326 26.65833282 298.3242188
vertex 72.44738007 25.91007233 298.5054016

endloop
endfacet
facet normal 0.04665391892 0.2270429581 0.9727666378
outer loop
vertex 72.44738007 25.91007233 298.5054016
vertex 72.5837326 26.65833282 298.3242188
vertex 72.16851044 26.07642365 298.47995

endloop
endfacet
facet normal 0.03752592206 0.2123092264 0.9764817357
outer loop
vertex 72.44738007 25.91007233 298.5054016
vertex 72.16851044 26.07642365 298.47995
vertex 72.00127411 25.32164764 298.6504822

endloop
endfacet
facet normal -0.04699409753 0.2300344557 0.9720472097
outer loop
vertex 72.00127411 25.32164764 298.6504822
vertex 72.16851044 26.07642365 298.47995
vertex 71.72548676 25.48685455 298.598053

endloop
endfacet
facet normal -0.05825751275 0.2123159468 0.9754629731
outer loop
vertex 72.00127411 25.32164764 298.6504822
vertex 71.72548676 25.48685455 298.598053
vertex 71.55321503 24.73096466 298.7522888

endloop
endfacet
facet normal -0.1354008466 0.2276177257 0.9642908573
outer loop
vertex 71.55321503 24.73096466 298.7522888
vertex 71.72548676 25.48685455 298.598053
vertex 71.28203583 24.89467621 298.6755676

endloop
endfacet
facet normal -0.1458973885 0.2112569213 0.9664804935
outer loop
vertex 71.55321503 24.73096466 298.7522888
vertex 71.28203583 24.89467621 298.6755676
vertex 71.11116791 24.13318634 298.8162231

endloop
endfacet
facet normal -0.2117161453 0.2232567817 0.9514897466
outer loop
vertex 71.11116791 24.13318634 298.8162231
vertex 71.28203583 24.89467621 298.6755676
vertex 70.84490204 24.29441071 298.7191467

endloop
endfacet
facet normal -0.2208291292 0.2089193761 0.9526736736
outer loop
vertex 71.11116791 24.13318634 298.8162231
vertex 70.84490204 24.29441071 298.7191467
vertex 70.67986298 23.52463531 298.8497009

endloop
endfacet
facet normal -0.2749325037 0.2177719474 0.9364760518
outer loop
vertex 70.67986298 23.52463531 298.8497009
vertex 70.84490204 24.29441071 298.7191467
vertex 70.41802216 23.68251801 298.7361145

endloop
endfacet
facet normal -0.2827609181 0.2053341269 0.9369546771
outer loop
vertex 70.67986298 23.52465057 298.8497314
vertex 70.41802216 23.68251801 298.7361145
vertex 70.26091766 22.90581512 298.8589172

endloop
endfacet
facet normal -0.3282810748 0.2119393349 0.9204962254
outer loop
vertex 70.26091766 22.90581512 298.8589172
vertex 70.41802216 23.68251801 298.7361145
vertex 70.00313568 23.05989838 298.7315063

endloop
endfacet
facet normal -0.3350740969 0.2006437182 0.9205799103
outer loop
vertex 70.26091766 22.90581512 298.8589172
vertex 70.00313568 23.05989838 298.7315063
vertex 69.85262299 22.28095245 298.8464966

endloop
endfacet
facet normal -0.3798255324 0.2065058202 0.9017139077
outer loop
vertex 69.85262299 22.28095245 298.8464966
vertex 70.00313568 23.05989838 298.7315063
vertex 69.59929657 22.4305191 298.7055359

endloop
endfacet
facet normal -0.3878983557 0.1925116479 0.9013735056
outer loop
vertex 69.85262299 22.28095245 298.8464966
vertex 69.59929657 22.4305191 298.7055359
vertex 69.44893646 21.6523056 298.8070374

endloop
endfacet
facet normal -0.4464731812 0.2000181079 0.8721550703
outer loop
vertex 69.44893646 21.6523056 298.8070374
vertex 69.59929657 22.4305191 298.7055359
vertex 69.20265961 21.7949295 298.6482544

endloop
endfacet
facet normal -0.4587507546 0.1772135049 0.8707141876
outer loop
vertex 69.44893646 21.6523056 298.8070374
vertex 69.20265961 21.7949295 298.6482544
vertex 69.04332733 21.01720428 298.7225952

endloop
endfacet
facet normal -0.55001688 0.1904094815 0.8131577969
outer loop
vertex 69.04332733 21.01720428 298.7225952
vertex 69.20265961 21.7949295 298.6482544
vertex 68.81240082 21.14853668 298.5356445

endloop
endfacet
facet normal -0.5690167546 0.1501780003 0.8084964752
outer loop
vertex 69.04335785 21.01721954 298.7226257
vertex 68.81243134 21.14855194 298.5357056
vertex 68.63878632 20.3733139 298.5574951

endloop
endfacet
facet normal -0.7027924061 0.1767858565 0.6890788078
outer loop
vertex 68.63878632 20.3733139 298.5574951
vertex 68.81243134 21.14855194 298.5357056
vertex 68.44405365 20.48976898 298.32901

endloop
endfacet
facet normal -0.7250264287 0.1186883897 0.678417027
outer loop
vertex 68.63878632 20.3733139 298.5574951
vertex 68.44405365 20.48976898 298.32901
vertex 68.26058197 19.72258759 298.2671509

endloop
endfacet
facet normal -0.8751683831 0.1728605777 0.4518844485
outer loop
vertex 68.26058197 19.72258759 298.2671509
vertex 68.44405365 20.48976898 298.32901
vertex 68.13860321 19.82605743 297.991333

endloop
endfacet
facet normal -0.8920551538 0.1140629277 0.4372953176
outer loop
vertex 68.26058197 19.72258759 298.2671509
vertex 68.13860321 19.82605743 297.991333
vertex 67.98934174 19.07324982 297.8832092

endloop
endfacet
facet normal -0.9726853371 0.1701838225 0.157863155
outer loop
vertex 67.98934174 19.07324982 297.8832092
vertex 68.13860321 19.82605743 297.991333
vertex 67.9575119 19.17197418 297.580658

endloop
endfacet
facet normal -0.9808002114 0.129803285 0.1455404609
outer loop
vertex 67.98934174 19.07324982 297.8832092
vertex 67.9575119 19.17197418 297.580658
vertex 67.8476181 18.44542694 297.4880676

endloop
endfacet
facet normal -0.9826914072 0.1604391634 -0.09261155128
outer loop
vertex 67.8476181 18.44542694 297.4880676
vertex 67.9575119 19.17197418 297.580658
vertex 67.89284515 18.54836273 297.1864929

endloop
endfacet
facet normal -0.9853169918 0.1378697455 -0.1007088795
outer loop
vertex 67.8476181 18.44542694 297.4880676
vertex 67.89284515 18.54836273 297.1864929
vertex 67.80355072 17.86476898 297.1242981

endloop
endfacet
facet normal -0.9502500296 0.149012953 -0.2735321522
outer loop
vertex 67.80355072 17.86476898 297.1242981
vertex 67.89284515 18.54836273 297.1864929
vertex 67.90294647 17.97505951 296.8390808

endloop
endfacet
facet normal -0.9504347444 0.07833915949 -0.3008931577
outer loop
vertex 67.80355072 17.86476898 297.1242981
vertex 67.90294647 17.97505951 296.8390503
vertex 67.86006927 17.31642914 296.803009

endloop
endfacet
facet normal -0.8931722641 0.08233907819 -0.4421125054
outer loop
vertex 67.86006927 17.31642914 296.803009
vertex 67.90294647 17.97505951 296.8390503
vertex 68.0144577 17.43889618 296.513916

endloop
endfacet
facet normal -0.3688498437 -0.7686574459 -0.5226045847
outer loop
vertex 67.86006927 17.31642914 296.803009
vertex 68.0144577 17.43889618 296.513916
vertex 68.70284271 16.90006256 296.8205872

endloop
endfacet
facet normal -nan(ind) -nan(ind) -nan(ind)
outer loop
vertex 68.70284271 16.90006256 296.8205872
vertex 68.0144577 17.43889618 296.513916
vertex 68.70284271 16.90006256 296.8205872

endloop
endfacet
facet normal -0.6808746457 0.7323999405 0
outer loop
vertex 73.85900116 28.45095062 297.2630005
vertex 73.85900116 28.45095062 297.26297
vertex 73.55751801 28.17067719 297.9845886

endloop
endfacet
facet normal 0.2646233141 0.8564713001 0.443205893
outer loop
vertex 73.55751801 28.17067719 297.9845886
vertex 73.85900116 28.45095062 297.26297
vertex 73.27309418 28.33481598 297.8372192

endloop
endfacet
facet normal -0.2989591658 0.2963625193 0.9070792198
outer loop
vertex 73.55751801 28.17067719 297.9845886
vertex 73.27309418 28.33481598 297.8372192
vertex 73.27019501 27.6108017 298.0728149

endloop
endfacet
facet normal -0.2114562392 0.3032003343 0.9291694164
outer loop
vertex 73.27019501 27.6108017 298.0728149
vertex 73.27309418 28.33481598 297.8372192
vertex 72.97444916 27.78078461 297.9500427

endloop
endfacet
facet normal -0.1774448156 0.3543865681 0.9181086421
outer loop
vertex 73.27019501 27.6108017 298.0728149
vertex 72.97444916 27.78078461 297.9500427
vertex 72.95159149 27.16135406 298.1847229

endloop
endfacet
facet normal -0.2253369987 0.3524380624 0.9083009958
outer loop
vertex 72.95159149 27.16135406 298.1847229
vertex 72.97444916 27.78078461 297.9500427
vertex 72.64351654 27.31681061 298.0479736

endloop
endfacet
facet normal -0.1991693228 0.3944278359 0.8970831633
outer loop
vertex 72.95159149 27.16135406 298.1847229
vertex 72.64351654 27.31681061 298.0479736
vertex 72.5837326 26.65833282 298.3242188

endloop
endfacet
facet normal -0.272783339 0.3931404054 0.8780830503
outer loop
vertex 72.5837326 26.65833282 298.3242188
vertex 72.64351654 27.31681061 298.0479736
vertex 72.27626801 26.79691315 298.1666565

endloop
endfacet
facet normal -0.2582982779 0.4174632728 0.8712097406
outer loop
vertex 72.5837326 26.65833282 298.3242188
vertex 72.27626801 26.79691315 298.1666565
vertex 72.16851044 26.07642365 298.47995

endloop
endfacet
facet normal -0.3257832527 0.4175664485 0.8482355475
outer loop
vertex 72.16851044 26.07642365 298.47995
vertex 72.27626801 26.79691315 298.1666565
vertex 71.87322235 26.21285248 298.2993774

endloop
endfacet
facet normal -0.3269411623 0.4156901538 0.8487115502
outer loop
vertex 72.16851044 26.07642365 298.47995
vertex 71.87322235 26.21285248 298.2993774
vertex 71.72548676 25.48685455 298.598053

endloop
endfacet
facet normal -0.4076132178 0.41713202 0.8123129606
outer loop
vertex 71.72548676 25.48685455 298.598053
vertex 71.87322235 26.21285248 298.2993774
vertex 71.44869232 25.62233734 298.3895874

endloop
endfacet
facet normal -0.4099646807 0.413423717 0.8130251169
outer loop
vertex 71.72548676 25.48685455 298.598053
vertex 71.44869232 25.62233734 298.3895874
vertex 71.28203583 24.89467621 298.6755676

endloop
endfacet
facet normal -0.480825454 0.4139112234 0.7729711533
outer loop
vertex 71.28203583 24.89467621 298.6755676
vertex 71.44869232 25.62233734 298.3895874
vertex 71.0240097 25.02892303 298.4431763

endloop
endfacet
facet normal -0.4841383398 0.4087334275 0.7736582756
outer loop
vertex 71.28203583 24.89467621 298.6755676
vertex 71.0240097 25.02892303 298.4431763
vertex 70.84490204 24.29441071 298.7191467

endloop
endfacet
facet normal -0.5423804522 0.4081567824 0.7343238592
outer loop
vertex 70.84490204 24.29441071 298.7191467
vertex 71.0240097 25.02892303 298.4431763
vertex 70.60399628 24.42664337 298.4677124

endloop
endfacet
facet normal -0.5465090871 0.4016432464 0.7348540425
outer loop
vertex 70.84490204 24.29441071 298.7191467
vertex 70.60399628 24.42664337 298.4677124
vertex 70.41802216 23.68251801 298.7361145

endloop
endfacet
facet normal -0.5927164555 0.4002332389 0.698928237
outer loop
vertex 70.41802216 23.68251801 298.7361145
vertex 70.60399628 24.42664337 298.4677124
vertex 70.19161224 23.81198883 298.4699707

endloop
endfacet
facet normal -0.5972866416 0.3928304613 0.6992373466
outer loop
vertex 70.41802216 23.68251801 298.7361145
vertex 70.19161224 23.81200409 298.4699707
vertex 70.00313568 23.05989838 298.7315063

endloop
endfacet
facet normal -0.6348881125 0.3908511102 0.6664476991
outer loop
vertex 70.00313568 23.05989838 298.7315063
vertex 70.19161224 23.81200409 298.4699707
vertex 69.78926849 23.18628693 298.4536438

endloop
endfacet
facet normal -0.639644146 0.3829232156 0.6665021777
outer loop
vertex 70.00313568 23.05989838 298.7315063
vertex 69.78926849 23.18628693 298.4536438
vertex 69.59929657 22.4305191 298.7055359

endloop
endfacet
facet normal -0.6753585935 0.3803488314 0.6318430305
outer loop
vertex 69.59929657 22.4305191 298.7055359
vertex 69.78926849 23.18628693 298.4536438
vertex 69.39821625 22.55321503 298.416748

endloop
endfacet
facet normal -0.6820477843 0.3687109947 0.6315560937
outer loop
vertex 69.59929657 22.4305191 298.7055359
vertex 69.39821625 22.55321503 298.416748
vertex 69.20265961 21.7949295 298.6482544

endloop
endfacet
facet normal -0.7270200253 0.3650389314 0.5815397501
outer loop
vertex 69.20265961 21.7949295 298.6482544
vertex 69.39821625 22.55321503 298.416748
vertex 69.01955414 21.91190338 298.3459167

endloop
endfacet
facet normal -0.7380052805 0.3444844484 0.5802402496
outer loop
vertex 69.20265961 21.7949295 298.6482544
vertex 69.01955414 21.91190338 298.3459167
vertex 68.81240082 21.14853668 298.5356445

endloop
endfacet
facet normal -0.8023763895 0.3397006094 0.4907092452
outer loop
vertex 68.81240082 21.14853668 298.5356445
vertex 69.01955414 21.91190338 298.3459167
vertex 68.66139984 21.25624847 298.2141724

endloop
endfacet
facet normal -0.8185911775 0.3050411642 0.4866809845
outer loop
vertex 68.81243134 21.14855194 298.5357056
vertex 68.66143036 21.25627899 298.2142029
vertex 68.44405365 20.48976898 298.32901

endloop
endfacet
facet normal -0.8976843357 0.3025578856 0.3203459382
outer loop
vertex 68.44405365 20.48976898 298.32901
vertex 68.66143036 21.25627899 298.2142029
vertex 68.35366058 20.58524323 297.9855347

endloop
endfacet
facet normal -0.9132000208 0.2610753477 0.3128984869
outer loop
vertex 68.44405365 20.48976898 298.32901
vertex 68.35366058 20.58524323 297.9855347
vertex 68.13860321 19.82605743 297.991333

endloop
endfacet
facet normal -0.9614399672 0.2726268768 0.03616628051
outer loop
vertex 68.13860321 19.82605743 297.991333
vertex 68.35366058 20.58524323 297.9855347
vertex 68.1493454 19.91086578 297.6376038

endloop
endfacet
facet normal -0.9680323601 0.2489887029 0.03029869869
outer loop
vertex 68.13860321 19.82605743 297.991333
vertex 68.1493454 19.91086578 297.6376038
vertex 67.9575119 19.17197418 297.580658

endloop
endfacet
facet normal -0.9275106788 0.2613962889 -0.2672002017
outer loop
vertex 67.9575119 19.17197418 297.580658
vertex 68.1493454 19.91086578 297.6376038
vertex 68.07692719 19.25292206 297.2453308

endloop
endfacet
facet normal -0.9269242883 0.2644155324 -0.2662625313
outer loop
vertex 67.9575119 19.17197418 297.580658
vertex 68.07692719 19.25292206 297.2453308
vertex 67.89284515 18.54836273 297.1864929

endloop
endfacet
facet normal -0.8316453695 0.2583361566 -0.4915569723
outer loop
vertex 67.89284515 18.54836273 297.1864929
vertex 68.07692719 19.25292206 297.2453308
vertex 68.09392548 18.63277435 296.8906555

endloop
endfacet
facet normal -0.8293688297 0.2787882388 -0.4841740131
outer loop
vertex 67.89284515 18.54836273 297.1864929
vertex 68.09392548 18.63277435 296.8906555
vertex 67.90294647 17.97505951 296.8390808

endloop
endfacet
facet normal -0.7282226086 0.2611389458 -0.6336389184
outer loop
vertex 67.90294647 17.97505951 296.8390808
vertex 68.09392548 18.63277435 296.8906555
vertex 68.15425873 18.06526947 296.5874329

endloop
endfacet
facet normal -0.7285447717 0.2379898429 -0.6423264742
outer loop
vertex 67.90294647 17.97505951 296.8390503
vertex 68.15422821 18.06526947 296.5874634
vertex 68.0144577 17.43889618 296.513916

endloop
endfacet
facet normal -0.5992709994 0.2239676118 -0.7685784101
outer loop
vertex 68.0144577 17.43889618 296.513916
vertex 68.15422821 18.06526947 296.5874634
vertex 68.31697845 17.52783966 296.3039551

endloop
endfacet
facet normal -0.2543235123 -0.7029439807 -0.6642208099
outer loop
vertex 68.0144577 17.43889618 296.513916
vertex 68.31697845 17.52783966 296.3039551
vertex 68.70284271 16.90006256 296.8205872

endloop
endfacet
facet normal 0 0.6353282928 0.7722421288
outer loop
vertex 68.70284271 16.90006256 296.8205872
vertex 68.31697845 17.52783966 296.3039551
vertex 68.70281219 16.90006256 296.8205872

endloop
endfacet
facet normal -0.1944307834 0.9809162021 0
outer loop
vertex 73.85900116 28.45095062 297.26297
vertex 73.85900116 28.45095062 297.2629395
vertex 73.27309418 28.33481598 297.8372192

endloop
endfacet
facet normal 0.06382354349 0.9635071158 0.2599625289
outer loop
vertex 73.27309418 28.33481598 297.8372192
vertex 73.85900116 28.45095062 297.2629395
vertex 73.06313324 28.43248749 297.5267639

endloop
endfacet
facet normal -0.6537635922 0.4727288485 0.5908643007
outer loop
vertex 73.27309418 28.33481598 297.8372192
vertex 73.06313324 28.43248749 297.5267639
vertex 72.97444916 27.78078461 297.9500427

endloop
endfacet
facet normal -0.5944275856 0.4933427274 0.6350344419
outer loop
vertex 72.97444916 27.78078461 297.9500427
vertex 73.06313324 28.43248749 297.5267639
vertex 72.72914886 27.89218903 297.6338806

endloop
endfacet
facet normal -0.56530267 0.5356171727 0.6273332834
outer loop
vertex 72.97444916 27.78078461 297.9500427
vertex 72.72914886 27.89218903 297.6338806
vertex 72.64351654 27.31681061 298.0479736

endloop
endfacet
facet normal -0.6070874929 0.5217176676 0.5993792415
outer loop
vertex 72.64351654 27.31681061 298.0479736
vertex 72.72914886 27.89218903 297.6338806
vertex 72.38658905 27.39624786 297.7185974

endloop
endfacet
facet normal -0.5884732604 0.5508033633 0.5918741226
outer loop
vertex 72.64351654 27.31681061 298.0479736
vertex 72.38658905 27.39624786 297.7185974
vertex 72.27626801 26.79691315 298.1666565

endloop
endfacet
facet normal -0.6491863132 0.5284743309 0.547057569
outer loop
vertex 72.27626801 26.79691315 298.1666565
vertex 72.38658905 27.39624786 297.7185974
vertex 72.0266037 26.84523773 297.8237

endloop
endfacet
facet normal -0.6314624548 0.5580850244 0.5383273363
outer loop
vertex 72.27626801 26.79691315 298.1666565
vertex 72.0266037 26.84523773 297.8237
vertex 71.87322235 26.21285248 298.2993774

endloop
endfacet
facet normal -0.6852235198 0.5366179347 0.4924528599
outer loop
vertex 71.87322235 26.21285248 298.2993774
vertex 72.0266037 26.84523773 297.8237
vertex 71.64968109 26.25832367 297.9387817

endloop
endfacet
facet normal -0.6721888781 0.5576466322 0.487024039
outer loop
vertex 71.87322235 26.21285248 298.2993774
vertex 71.64968109 26.25832367 297.9387817
vertex 71.44869232 25.62233734 298.3895874

endloop
endfacet
facet normal -0.7329649329 0.532078743 0.4238568842
outer loop
vertex 71.44869232 25.62233734 298.3895874
vertex 71.64968109 26.25832367 297.9387817
vertex 71.26131439 25.6674881 298.0088806

endloop
endfacet
facet normal -0.7197064161 0.5529760718 0.4198096693
outer loop
vertex 71.44869232 25.62233734 298.3895874
vertex 71.26131439 25.6674881 298.0088806
vertex 71.0240097 25.02892303 298.4431763

endloop
endfacet
facet normal -0.7700259686 0.5288701057 0.356870234
outer loop
vertex 71.0240097 25.02892303 298.4431763
vertex 71.26131439 25.6674881 298.0088806
vertex 70.87111664 25.07364655 298.0469971

endloop
endfacet
facet normal -0.7600368857 0.544483006 0.3547986746
outer loop
vertex 71.0240097 25.02892303 298.4431763
vertex 70.87111664 25.0736618 298.0469971
vertex 70.60399628 24.42664337 298.4677124

endloop
endfacet
facet normal -0.7986090779 0.5231659412 0.29752478
outer loop
vertex 70.60399628 24.42664337 298.4677124
vertex 70.87111664 25.0736618 298.0469971
vertex 70.48125458 24.4706955 298.060791

endloop
endfacet
facet normal -0.7925112844 0.5328019261 0.2967286706
outer loop
vertex 70.60399628 24.42664337 298.4677124
vertex 70.48125458 24.4706955 298.060791
vertex 70.19161224 23.81198883 298.4699707

endloop
endfacet
facet normal -0.8211839199 0.5144740939 0.246927917
outer loop
vertex 70.19161224 23.81198883 298.4699707
vertex 70.48125458 24.4706955 298.060791
vertex 70.0941391 23.85512543 298.0559387

endloop
endfacet
facet normal -0.8180383444 0.5195715427 0.2466954589
outer loop
vertex 70.19161224 23.81200409 298.4699707
vertex 70.09416962 23.85515594 298.0559692
vertex 69.78926849 23.18628693 298.4536438

endloop
endfacet
facet normal -0.8398492336 0.5034738183 0.2028972656
outer loop
vertex 69.78926849 23.18628693 298.4536438
vertex 70.09416962 23.85515594 298.0559692
vertex 69.71337128 23.22841644 298.0349426

endloop
endfacet
facet normal -0.8383256197 0.5060148239 0.2028767616
outer loop
vertex 69.78926849 23.18628693 298.4536438
vertex 69.71337128 23.22841644 298.0349426
vertex 69.39821625 22.55321503 298.416748

endloop
endfacet
facet normal -0.8575325608 0.4895789921 0.1579567939
outer loop
vertex 69.39821625 22.55321503 298.416748
vertex 69.71337128 23.22841644 298.0349426
vertex 69.34380341 22.59410858 297.9945984

endloop
endfacet
facet normal -0.8578303456 0.4890608788 0.1579449922
outer loop
vertex 69.39821625 22.55321503 298.416748
vertex 69.34380341 22.59410858 297.9945984
vertex 69.01955414 21.91190338 298.3459167

endloop
endfacet
facet normal -0.8789755106 0.4671343267 0.0958513096
outer loop
vertex 69.01955414 21.91190338 298.3459167
vertex 69.34380341 22.59410858 297.9945984
vertex 68.99398041 21.95090485 297.9213257

endloop
endfacet
facet normal -0.8815373182 0.4623410404 0.09556531161
outer loop
vertex 69.01955414 21.91190338 298.3459167
vertex 68.99398041 21.95090485 297.9213257
vertex 68.66139984 21.25624847 298.2141724

endloop
endfacet
facet normal -0.9036170244 0.4282133877 -0.010463899
outer loop
vertex 68.66139984 21.25624847 298.2141724
vertex 68.99398041 21.95090485 297.9213257
vertex 68.68331146 21.29213715 297.7906494

endloop
endfacet
facet normal -0.9074261189 0.4200583696 -0.01135202032
outer loop
vertex 68.66143036 21.25627899 298.2142029
vertex 68.68334198 21.29216766 297.7906799
vertex 68.35366058 20.58524323 297.9855347

endloop
endfacet
facet normal -0.9084430933 0.3701044023 -0.1943034977
outer loop
vertex 68.35366058 20.58524323 297.9855347
vertex 68.68334198 21.29216766 297.7906799
vertex 68.45391083 20.61708832 297.5774841

endloop
endfacet
facet normal -0.9067704082 0.3745776117 -0.1935434043
outer loop
vertex 68.35366058 20.58524323 297.9855347
vertex 68.45391083 20.61708832 297.5774841
vertex 68.1493454 19.91086578 297.6376038

endloop
endfacet
facet normal -0.8267263174 0.3169645071 -0.4648195505
outer loop
vertex 68.1493454 19.91086578 297.6376038
vertex 68.45391083 20.61708832 297.5774841
vertex 68.3613205 19.93915558 297.2798767

endloop
endfacet
facet normal -0.8146836162 0.3604935408 -0.4542411566
outer loop
vertex 68.1493454 19.91086578 297.6376038
vertex 68.3613205 19.93915558 297.2798767
vertex 68.07692719 19.25292206 297.2453308

endloop
endfacet
facet normal -0.6440238357 0.302278012 -0.7027526498
outer loop
vertex 68.07692719 19.25292206 297.2453308
vertex 68.3613205 19.93915558 297.2798767
vertex 68.39052582 19.2798996 296.9695435

endloop
endfacet
facet normal -0.6308046579 0.3721239269 -0.6808886528
outer loop
vertex 68.07692719 19.25292206 297.2453308
vertex 68.39052582 19.2798996 296.9695435
vertex 68.09392548 18.63277435 296.8906555

endloop
endfacet
facet normal -0.4474442005 0.3074555099 -0.839800477
outer loop
vertex 68.09392548 18.63277435 296.8906555
vertex 68.39052582 19.2798996 296.9695435
vertex 68.46941376 18.66091156 296.7008972

endloop
endfacet
facet normal -0.4388686419 0.3867092133 -0.8110796809
outer loop
vertex 68.09392548 18.63277435 296.8906555
vertex 68.46941376 18.66091156 296.7008972
vertex 68.15425873 18.06526947 296.5874329

endloop
endfacet
facet normal -0.2874320447 0.3237912357 -0.9014111757
outer loop
vertex 68.15425873 18.06526947 296.5874329
vertex 68.46941376 18.66091156 296.7008972
vertex 68.5568161 18.09519196 296.4698181

endloop
endfacet
facet normal -0.2854494452 0.3781223297 -0.8806486726
outer loop
vertex 68.15422821 18.06526947 296.5874634
vertex 68.5568161 18.09519196 296.4698181
vertex 68.31697845 17.52783966 296.3039551

endloop
endfacet
facet normal -0.1335060447 0.3296665251 -0.934610188
outer loop
vertex 68.31697845 17.52783966 296.3039551
vertex 68.5568161 18.09519196 296.4698181
vertex 68.72078705 17.54904938 296.2537537

endloop
endfacet
facet normal -0.05912820995 -0.6557468772 -0.7526618242
outer loop
vertex 68.31697845 17.52783966 296.3039551
vertex 68.72078705 17.54904938 296.2537537
vertex 68.70281219 16.90006256 296.8205872

endloop
endfacet
facet normal -nan(ind) -nan(ind) -nan(ind)
outer loop
vertex 68.70281219 16.90006256 296.8205872
vertex 68.72078705 17.54904938 296.2537537
vertex 68.70281219 16.90006256 296.8205872

endloop
endfacet
facet normal 0.1478355378 -0.9121875763 0.3821760416
outer loop
vertex 73.85897064 28.4509201 297.2629395
vertex 73.85900116 28.45095062 297.2630005
vertex 73.06310272 28.43245697 297.5267334

endloop
endfacet
facet normal -0.03244546056 0.9990852475 -0.02785605192
outer loop
vertex 73.06310272 28.43245697 297.5267334
vertex 73.85900116 28.45095062 297.2630005
vertex 73.00557709 28.41846466 297.0918884

endloop
endfacet
facet normal -0.8384504914 0.5368721485 0.09364329278
outer loop
vertex 73.06310272 28.43245697 297.5267334
vertex 73.00557709 28.41846466 297.0918884
vertex 72.72911835 27.89217377 297.6338806

endloop
endfacet
facet normal -0.8090273142 0.5705264211 0.1413308382
outer loop
vertex 72.72911835 27.89217377 297.6338806
vertex 73.00557709 28.41846466 297.0918884
vertex 72.64031219 27.88317108 297.1618652

endloop
endfacet
facet normal -0.8033330441 0.5788157582 0.1401014179
outer loop
vertex 72.72911835 27.89217377 297.6338806
vertex 72.64031219 27.88317108 297.1618652
vertex 72.38655853 27.3962326 297.7185974

endloop
endfacet
facet normal -0.8295231462 0.5490537882 0.1021332368
outer loop
vertex 72.38655853 27.3962326 297.7185974
vertex 72.64031219 27.88317108 297.1618652
vertex 72.2917099 27.34210968 297.2391968

endloop
endfacet
facet normal -0.8241084218 0.5575159192 0.1001066044
outer loop
vertex 72.38655853 27.3962326 297.7185974
vertex 72.2917099 27.34210968 297.2391968
vertex 72.02657318 26.84523773 297.8237

endloop
endfacet
facet normal -0.858365953 0.5110543966 0.04507116601
outer loop
vertex 72.02657318 26.84523773 297.8237
vertex 72.2917099 27.34210968 297.2391968
vertex 71.94557953 26.75138092 297.3454285

endloop
endfacet
facet normal -0.8377821445 0.5448850989 0.03494638205
outer loop
vertex 72.02657318 26.84523773 297.8237
vertex 71.94557953 26.75138092 297.3454285
vertex 71.64965057 26.25832367 297.9387817

endloop
endfacet
facet normal -0.867186904 0.4976204336 -0.01899426617
outer loop
vertex 71.64965057 26.25832367 297.9387817
vertex 71.94557953 26.75138092 297.3454285
vertex 71.60469818 26.16158295 297.4566345

endloop
endfacet
facet normal -0.8369370699 0.5463861227 -0.03159919754
outer loop
vertex 71.64965057 26.25832367 297.9387817
vertex 71.60469818 26.16158295 297.4566345
vertex 71.26128387 25.6674881 298.0088501

endloop
endfacet
facet normal -0.8667340875 0.4881869256 -0.1022032946
outer loop
vertex 71.26128387 25.6674881 298.0088501
vertex 71.60469818 26.16158295 297.4566345
vertex 71.26430511 25.57143402 297.5244141

endloop
endfacet
facet normal -0.8337584734 0.5405706167 -0.1123842895
outer loop
vertex 71.26128387 25.6674881 298.0088501
vertex 71.26430511 25.57143402 297.5244141
vertex 70.87111664 25.07363129 298.0469666

endloop
endfacet
facet normal -0.8547796011 0.4870912135 -0.1791478097
outer loop
vertex 70.87111664 25.07363129 298.0469666
vertex 71.26430511 25.57143402 297.5244141
vertex 70.91805267 24.97847748 297.5643005

endloop
endfacet
facet normal -0.827178061 0.5305981636 -0.1850458533
outer loop
vertex 70.87111664 25.07364655 298.0469971
vertex 70.91805267 24.97847748 297.5643005
vertex 70.48125458 24.47068024 298.060791

endloop
endfacet
facet normal -0.8401988745 0.4844160974 -0.2437350899
outer loop
vertex 70.48125458 24.47068024 298.060791
vertex 70.91805267 24.97847748 297.5643005
vertex 70.56591034 24.37696075 297.5827026

endloop
endfacet
facet normal -0.8194935918 0.51735425 -0.2465256006
outer loop
vertex 70.48125458 24.47068024 298.060791
vertex 70.56591034 24.37696075 297.5827026
vertex 70.09410858 23.85512543 298.0559387

endloop
endfacet
facet normal -0.8265063763 0.4788118303 -0.2960176468
outer loop
vertex 70.09410858 23.85512543 298.0559387
vertex 70.56591034 24.37696075 297.5827026
vertex 70.21001434 23.76334381 297.5838623

endloop
endfacet
facet normal -0.8115810752 0.5030859709 -0.2970533967
outer loop
vertex 70.0941391 23.85514069 298.0559692
vertex 70.21004486 23.76335907 297.5838623
vertex 69.71334076 23.22840118 298.0349121

endloop
endfacet
facet normal -0.8146730661 0.4700908959 -0.3395912647
outer loop
vertex 69.71334076 23.22840118 298.0349121
vertex 70.21004486 23.76335907 297.5838623
vertex 69.85561371 23.13878632 297.5695496

endloop
endfacet
facet normal -0.8030917645 0.4894795716 -0.3397842646
outer loop
vertex 69.71334076 23.22840118 298.0349121
vertex 69.85561371 23.13878632 297.5695496
vertex 69.34380341 22.59409332 297.9945679

endloop
endfacet
facet normal -0.8033635616 0.4564686418 -0.3824176192
outer loop
vertex 69.34380341 22.59409332 297.9945679
vertex 69.85561371 23.13878632 297.5695496
vertex 69.51195526 22.50711823 297.5375061

endloop
endfacet
facet normal -0.792871356 0.4747643173 -0.3820390999
outer loop
vertex 69.34380341 22.59409332 297.9945679
vertex 69.51195526 22.50711823 297.5375061
vertex 68.99394989 21.95088959 297.9213257

endloop
endfacet
facet normal -0.788207233 0.4307561219 -0.4395208657
outer loop
vertex 68.99394989 21.95088959 297.9213257
vertex 69.51195526 22.50711823 297.5375061
vertex 69.19585419 21.86795807 297.4779663

endloop
endfacet
facet normal -0.7763169408 0.4530423284 -0.4382747114
outer loop
vertex 68.99394989 21.95088959 297.9213257
vertex 69.19585419 21.86795807 297.4779663
vertex 68.68328094 21.29212189 297.7906494

endloop
endfacet
facet normal -0.7549095154 0.3828193247 -0.5325045586
outer loop
vertex 68.68328094 21.29212189 297.7906494
vertex 69.19585419 21.86795807 297.4779663
vertex 68.93709564 21.21578217 297.375946

endloop
endfacet
facet normal -0.7385578156 0.4180119336 -0.5289596319
outer loop
vertex 68.68331146 21.29213715 297.7906799
vertex 68.93712616 21.21581268 297.3759766
vertex 68.45391083 20.61704254 297.5774841

endloop
endfacet
facet normal -0.6655086875 0.3083197474 -0.6797330976
outer loop
vertex 68.45391083 20.61704254 297.5774841
vertex 68.93712616 21.21581268 297.3759766
vertex 68.78292084 20.54938507 297.2246704

endloop
endfacet
facet normal -0.6387073994 0.3807663918 -0.6686328053
outer loop
vertex 68.45391083 20.61704254 297.5774841
vertex 68.78292084 20.54938507 297.2246704
vertex 68.3613205 19.93912506 297.2798767

endloop
endfacet
facet normal -0.4543614686 0.2361950427 -0.8589340448
outer loop
vertex 68.3613205 19.93912506 297.2798767
vertex 68.78292084 20.54938507 297.2246704
vertex 68.77700043 19.87900543 297.043457

endloop
endfacet
facet normal -0.4177412987 0.3717699349 -0.8290230632
outer loop
vertex 68.3613205 19.93912506 297.2798767
vertex 68.77700043 19.87900543 297.043457
vertex 68.3904953 19.27988434 296.9695435

endloop
endfacet
facet normal -0.166770339 0.2259910107 -0.9597477317
outer loop
vertex 68.3904953 19.27988434 296.9695435
vertex 68.77700043 19.87900543 297.043457
vertex 68.86193085 19.22251129 296.874115

endloop
endfacet
facet normal -0.1390004307 0.3793420792 -0.9147558808
outer loop
vertex 68.3904953 19.27988434 296.9695435
vertex 68.86193085 19.22251129 296.874115
vertex 68.46938324 18.6608963 296.7008667

endloop
endfacet
facet normal 0.07915795594 0.2429160625 -0.9668121338
outer loop
vertex 68.46938324 18.6608963 296.7008667
vertex 68.86193085 19.22251129 296.874115
vertex 68.95336151 18.60108185 296.7254639

endloop
endfacet
facet normal 0.0946412459 0.3889298737 -0.9163932204
outer loop
vertex 68.46938324 18.6608963 296.7008667
vertex 68.95336151 18.60108185 296.7254639
vertex 68.55678558 18.09516144 296.4697876

endloop
endfacet
facet normal 0.2532863021 0.2708002627 -0.9287159443
outer loop
vertex 68.55678558 18.09516144 296.4697876
vertex 68.95336151 18.60108185 296.7254639
vertex 69.02666473 18.03108978 296.5792542

endloop
endfacet
facet normal 0.2598432899 0.4217208028 -0.8686961532
outer loop
vertex 68.5568161 18.09516144 296.4698181
vertex 69.02666473 18.03108978 296.5792542
vertex 68.72075653 17.54901886 296.2537231

endloop
endfacet
facet normal 0.3950246572 0.328633666 -0.857878387
outer loop
vertex 68.72075653 17.54901886 296.2537231
vertex 69.02666473 18.03108978 296.5792542
vertex 69.14488983 17.4779129 296.4217834

endloop
endfacet
facet normal 0.1834755689 -0.6495417356 -0.7378564477
outer loop
vertex 68.72075653 17.54901886 296.2537231
vertex 69.14488983 17.4779129 296.4217834
vertex 68.70281219 16.9000473 296.8205566

endloop
endfacet
facet normal 0.8440199494 -0.4797977805 0.2396338135
outer loop
vertex 68.70281219 16.9000473 296.8205566
vertex 69.14488983 17.4779129 296.4217834
vertex 68.70281219 16.90006256 296.8205872

endloop
endfacet
facet normal -nan(ind) -nan(ind) -nan(ind)
outer loop
vertex 73.85900116 28.45095062 297.26297
vertex 73.85900116 28.45095062 297.26297
vertex 73.00557709 28.4184494 297.0919189

endloop
endfacet
facet normal 0.0387641266 0.9283055663 -0.3697920144
outer loop
vertex 73.00557709 28.4184494 297.0919189
vertex 73.85900116 28.45095062 297.26297
vertex 73.25936127 28.19428253 296.5557861

endloop
endfacet
facet normal -0.7325093746 0.4309943318 -0.5269476771
outer loop
vertex 73.00557709 28.4184494 297.0919189
vertex 73.25936127 28.19428253 296.5557861
vertex 72.64031219 27.88317108 297.1618652

endloop
endfacet
facet normal -0.7274532318 0.4655825794 -0.5040284991
outer loop
vertex 72.64031219 27.88317108 297.1618652
vertex 73.25936127 28.19428253 296.5557861
vertex 72.89281464 27.64264679 296.5752563

endloop
endfacet
facet normal -0.7594923973 0.4181083441 -0.4983539879
outer loop
vertex 72.64031219 27.88317108 297.1618652
vertex 72.89281464 27.64264679 296.5752563
vertex 72.2917099 27.34210968 297.2391968

endloop
endfacet
facet normal -0.7663827538 0.3649221659 -0.52866745
outer loop
vertex 72.2917099 27.34210968 297.2391968
vertex 72.89281464 27.64264679 296.5752563
vertex 72.55153656 27.0490036 296.6602173

endloop
endfacet
facet normal -0.7712414265 0.3571444452 -0.526910305
outer loop
vertex 72.2917099 27.34210968 297.2391968
vertex 72.55153656 27.0490036 296.6602173
vertex 71.94557953 26.75138092 297.3454285

endloop
endfacet
facet normal -0.7763016224 0.2777724266 -0.5658606887
outer loop
vertex 71.94557953 26.75138092 297.3454285
vertex 72.55153656 27.0490036 296.6602173
vertex 72.22664642 26.41773224 296.796051

endloop
endfacet
facet normal -0.7483504415 0.3232733011 -0.5791942477
outer loop
vertex 71.94557953 26.75138092 297.3454285
vertex 72.22664642 26.41773224 296.796051
vertex 71.6047287 26.16158295 297.4566345

endloop
endfacet
facet normal -0.751537323 0.2400157303 -0.6144787669
outer loop
vertex 71.6047287 26.16158295 297.4566345
vertex 72.22664642 26.41773224 296.796051
vertex 71.92684174 25.82627106 296.9317017

endloop
endfacet
facet normal -0.6967920065 0.3286911845 -0.6375288367
outer loop
vertex 71.6047287 26.16158295 297.4566345
vertex 71.92684174 25.82627106 296.9317017
vertex 71.26433563 25.57144928 297.5244141

endloop
endfacet
facet normal -0.6962973475 0.2247996777 -0.6816413999
outer loop
vertex 71.26433563 25.57144928 297.5244141
vertex 71.92684174 25.82627106 296.9317017
vertex 71.63784027 25.23842621 297.0330505

endloop
endfacet
facet normal -0.6347723603 0.3234581053 -0.7017399669
outer loop
vertex 71.26433563 25.57144928 297.5244141
vertex 71.63784027 25.23842621 297.0330505
vertex 70.91808319 24.97847748 297.5643005

endloop
endfacet
facet normal -0.6302042007 0.2283376753 -0.7420947552
outer loop
vertex 70.91808319 24.97847748 297.5643005
vertex 71.63784027 25.23842621 297.0330505
vertex 71.33629608 24.64847565 297.107605

endloop
endfacet
facet normal -0.5760857463 0.3141986132 -0.754588902
outer loop
vertex 70.91808319 24.97849274 297.5643005
vertex 71.33629608 24.64847565 297.107605
vertex 70.56591034 24.37697601 297.5827026

endloop
endfacet
facet normal -0.5685923696 0.2326669544 -0.7890303135
outer loop
vertex 70.56591034 24.37697601 297.5827026
vertex 71.33629608 24.64847565 297.107605
vertex 71.02129364 24.05191803 297.1586914

endloop
endfacet
facet normal -0.5246886611 0.3027805388 -0.7956291437
outer loop
vertex 70.56591034 24.37697601 297.5827026
vertex 71.02129364 24.05191803 297.1586914
vertex 70.21004486 23.76334381 297.5838623

endloop
endfacet
facet normal -0.5155556798 0.2355254292 -0.8238508105
outer loop
vertex 70.21004486 23.76334381 297.5838623
vertex 71.02129364 24.05191803 297.1586914
vertex 70.69579315 23.44509125 297.1889038

endloop
endfacet
facet normal -0.4809682667 0.2918277681 -0.826744318
outer loop
vertex 70.21004486 23.76335907 297.5838623
vertex 70.69579315 23.44510651 297.1889343
vertex 69.85564423 23.13880157 297.5695801

endloop
endfacet
facet normal -0.4708814621 0.2347902656 -0.850378871
outer loop
vertex 69.85564423 23.13880157 297.5695801
vertex 70.69579315 23.44510651 297.1889343
vertex 70.36656952 22.82816315 297.2008972

endloop
endfacet
facet normal -0.4417657554 0.2835744321 -0.8511337042
outer loop
vertex 69.85564423 23.13880157 297.5695801
vertex 70.36656952 22.82816315 297.2008972
vertex 69.51195526 22.50711823 297.5375061

endloop
endfacet
facet normal -0.4294062257 0.226417318 -0.8742685914
outer loop
vertex 69.51195526 22.50711823 297.5375061
vertex 70.36656952 22.82816315 297.2008972
vertex 70.04698944 22.20557404 297.1966248

endloop
endfacet
facet normal -0.3993023038 0.2788366377 -0.8733887672
outer loop
vertex 69.51195526 22.50711823 297.5375061
vertex 70.04698944 22.20557404 297.1966248
vertex 69.19585419 21.86795807 297.4779663

endloop
endfacet
facet normal -0.3786140084 0.2017582506 -0.9032967687
outer loop
vertex 69.19585419 21.86795807 297.4779663
vertex 70.04698944 22.20557404 297.1966248
vertex 69.7604599 21.58043671 297.1770935

endloop
endfacet
facet normal -0.3391679525 0.2752915919 -0.8995441794
outer loop
vertex 69.19585419 21.86795807 297.4779663
vertex 69.7604599 21.58043671 297.1770935
vertex 68.93709564 21.21579742 297.375946

endloop
endfacet
facet normal -0.2939826846 0.1489453912 -0.9441342354
outer loop
vertex 68.93709564 21.21579742 297.375946
vertex 69.7604599 21.58043671 297.1770935
vertex 69.54134369 20.95102692 297.1460266

endloop
endfacet
facet normal -0.2382056564 0.2671197653 -0.9337586164
outer loop
vertex 68.93712616 21.21582794 297.3759766
vertex 69.54137421 20.95105743 297.1460876
vertex 68.78292084 20.54940033 297.2246704

endloop
endfacet
facet normal -0.1351328343 0.06169712916 -0.9889047146
outer loop
vertex 68.78292084 20.54940033 297.2246704
vertex 69.54137421 20.95105743 297.1460876
vertex 69.42568207 20.31465912 297.1221924

endloop
endfacet
facet normal -0.05833372474 0.2609356642 -0.9635920525
outer loop
vertex 68.78292084 20.54940033 297.2246704
vertex 69.42568207 20.31465912 297.1221924
vertex 68.77703094 19.87900543 297.0434875

endloop
endfacet
facet normal 0.1384589374 -0.02730242908 -0.9899917245
outer loop
vertex 68.77703094 19.87900543 297.0434875
vertex 69.42568207 20.31465912 297.1221924
vertex 69.42259979 19.67049408 297.1395264

endloop
endfacet
facet normal 0.226620242 0.2707007527 -0.9356090426
outer loop
vertex 68.77703094 19.87900543 297.0434875
vertex 69.42259979 19.67049408 297.1395264
vertex 68.86196136 19.22251129 296.874115

endloop
endfacet
facet normal 0.4421364963 -0.02207828872 -0.8966760635
outer loop
vertex 68.86196136 19.22251129 296.874115
vertex 69.42259979 19.67049408 297.1395264
vertex 69.4512558 19.02352142 297.1695862

endloop
endfacet
facet normal 0.5029205084 0.2703511715 -0.8209636211
outer loop
vertex 68.86196136 19.22251129 296.874115
vertex 69.4512558 19.02352142 297.1695862
vertex 68.95336151 18.60108185 296.7254639

endloop
endfacet
facet normal 0.6581602693 0.01563186571 -0.752715528
outer loop
vertex 68.95336151 18.60108185 296.7254639
vertex 69.4512558 19.02352142 297.1695862
vertex 69.45375824 18.39354706 297.1586914

endloop
endfacet
facet normal 0.6914787889 0.261642158 -0.673350215
outer loop
vertex 68.95336151 18.60108185 296.7254639
vertex 69.45375824 18.39354706 297.1586914
vertex 69.02666473 18.03107452 296.5792542

endloop
endfacet
facet normal 0.7873299122 0.05407650769 -0.614155829
outer loop
vertex 69.02666473 18.03107452 296.5792542
vertex 69.45375824 18.39354706 297.1586914
vertex 69.43883514 17.8091507 297.0881042

endloop
endfacet
facet normal 0.7999125719 0.3161854446 -0.5100653172
outer loop
vertex 69.02666473 18.03107452 296.5792847
vertex 69.43883514 17.8091507 297.0881042
vertex 69.14485931 17.47792816 296.4217529

endloop
endfacet
facet normal 0.8697041869 0.1643784046 -0.4653968811
outer loop
vertex 69.14485931 17.47792816 296.4217529
vertex 69.43883514 17.8091507 297.0881042
vertex 69.47383881 17.25189972 296.9566956

endloop
endfacet
facet normal 0.4235671163 -0.7112411857 -0.5610052943
outer loop
vertex 69.14485931 17.47792816 296.4217529
vertex 69.47383881 17.25189972 296.9566956
vertex 68.70281219 16.90006256 296.8206177

endloop
endfacet
facet normal -0.415017724 0.9098133445 0
outer loop
vertex 68.70281219 16.90006256 296.8206177
vertex 69.47383881 17.25189972 296.9566956
vertex 68.70281219 16.90006256 296.8205872

endloop
endfacet
endsolid
