solid 
facet normal -nan(ind) -nan(ind) -nan(ind)
outer loop
vertex 100.9757004 -19.67594147 273.8547974
vertex 100.9757004 -19.67594147 273.8547974
vertex 100.1576157 -19.43852997 273.7428284

endloop
endfacet
facet normal -0.2344243675 -0.9343585372 -0.2683642805
outer loop
vertex 100.1576157 -19.43852997 273.7428284
vertex 100.9757004 -19.67594147 273.8547974
vertex 100.2042465 -19.56595612 274.145752

endloop
endfacet
facet normal -0.7079507709 -0.6928126216 -0.1371726394
outer loop
vertex 100.1576157 -19.43852997 273.7428284
vertex 100.2042465 -19.56595612 274.145752
vertex 99.45433807 -18.77518463 274.0221252

endloop
endfacet
facet normal -0.7145047188 -0.6928140521 -0.0974259302
outer loop
vertex 99.45433807 -18.77518463 274.0221252
vertex 100.2042465 -19.56595612 274.145752
vertex 99.51543427 -18.89933014 274.4568787

endloop
endfacet
facet normal -0.7114970684 -0.6957256794 -0.09867997468
outer loop
vertex 99.45433807 -18.77518463 274.0221252
vertex 99.51543427 -18.89933014 274.4568787
vertex 98.86186981 -18.20192719 274.2522583

endloop
endfacet
facet normal -0.7111801505 -0.6958463192 -0.1001037136
outer loop
vertex 98.86186981 -18.20192719 274.2522583
vertex 99.51543427 -18.89933014 274.4568787
vertex 98.92314911 -18.32982635 274.7059631

endloop
endfacet
facet normal -0.69465518 -0.7113831043 -0.1067154855
outer loop
vertex 98.86186981 -18.20192719 274.2522583
vertex 98.92314911 -18.32982635 274.7059631
vertex 98.1583786 -17.5515976 274.4963684

endloop
endfacet
facet normal -0.6935949326 -0.711664021 -0.1116269529
outer loop
vertex 98.1583786 -17.5515976 274.4963684
vertex 98.92314911 -18.32982635 274.7059631
vertex 98.22231293 -17.69202423 274.9943848

endloop
endfacet
facet normal -0.7004067302 -0.7053750157 -0.1089791581
outer loop
vertex 98.1583786 -17.5515976 274.4963684
vertex 98.22231293 -17.69202423 274.9943848
vertex 97.42977142 -16.867836 274.753418

endloop
endfacet
facet normal -0.6990967989 -0.7057747245 -0.1146546453
outer loop
vertex 97.42977142 -16.867836 274.753418
vertex 98.22231293 -17.69202423 274.9943848
vertex 97.49391937 -17.01816559 275.2876587

endloop
endfacet
facet normal -0.7204050422 -0.6853512526 -0.1063491926
outer loop
vertex 97.42977142 -16.867836 274.753418
vertex 97.49391937 -17.01816559 275.2876587
vertex 96.72676849 -16.17053986 275.0219116

endloop
endfacet
facet normal -0.7188286185 -0.6859652996 -0.1128587052
outer loop
vertex 96.72676849 -16.17053986 275.0219116
vertex 97.49391937 -17.01816559 275.2876587
vertex 96.78646088 -16.32228851 275.5640564

endloop
endfacet
facet normal -0.742949903 -0.6613268852 -0.1033063829
outer loop
vertex 96.72676849 -16.17053986 275.0219116
vertex 96.78646088 -16.32228851 275.5640564
vertex 96.06679535 -15.47182465 275.2953491

endloop
endfacet
facet normal -0.741235137 -0.6621088386 -0.1103740036
outer loop
vertex 96.06679535 -15.47182465 275.2953491
vertex 96.78646088 -16.32228851 275.5640564
vertex 96.11840057 -15.616539 275.8168945

endloop
endfacet
facet normal -0.757184267 -0.6448768973 -0.1039513126
outer loop
vertex 96.06676483 -15.4718399 275.2953491
vertex 96.11840057 -15.616539 275.8168945
vertex 95.45464325 -14.79477692 275.5538025

endloop
endfacet
facet normal -0.7534690499 -0.6466499567 -0.118862696
outer loop
vertex 95.45464325 -14.79477692 275.5538025
vertex 96.11840057 -15.616539 275.8168945
vertex 95.4936142 -14.92891693 276.0365295

endloop
endfacet
facet normal -0.7500858903 -0.6503329277 -0.120159246
outer loop
vertex 95.45464325 -14.79477692 275.5538025
vertex 95.4936142 -14.92891693 276.0365295
vertex 94.67482758 -13.94675446 275.8320312

endloop
endfacet
facet normal -0.7391411662 -0.65165627 -0.1703358889
outer loop
vertex 94.67482758 -13.94675446 275.8320312
vertex 95.4936142 -14.92891693 276.0365295
vertex 94.69145966 -14.0765152 276.2562866

endloop
endfacet
facet normal -0.9701659679 -0.2398541123 -0.03532723337
outer loop
vertex 94.67485809 -13.9467392 275.8320618
vertex 94.69149017 -14.07649994 276.2563171
vertex 94.46489716 -13.1710434 276.3314819

endloop
endfacet
facet normal -nan(ind) -nan(ind) -nan(ind)
outer loop
vertex 94.46489716 -13.1710434 276.3314819
vertex 94.69149017 -14.07649994 276.2563171
vertex 94.46489716 -13.1710434 276.3314819

endloop
endfacet
facet normal -0.0411147289 0.8936709166 -0.4468354583
outer loop
vertex 100.9757004 -19.67594147 273.8547974
vertex 100.9757004 -19.67595673 273.8547668
vertex 100.2042465 -19.56595612 274.145752

endloop
endfacet
facet normal -0.05652078614 -0.9742136002 0.2184336185
outer loop
vertex 100.2042465 -19.56595612 274.145752
vertex 100.9757004 -19.67595673 273.8547668
vertex 100.3373032 -19.52596283 274.358551

endloop
endfacet
facet normal -0.5052921176 -0.733943224 0.453880161
outer loop
vertex 100.2042465 -19.56595612 274.145752
vertex 100.3373032 -19.52596283 274.358551
vertex 99.51543427 -18.89933014 274.4568787

endloop
endfacet
facet normal -0.4827152193 -0.7129260898 0.5086476207
outer loop
vertex 99.51543427 -18.89933014 274.4568787
vertex 100.3373032 -19.52596283 274.358551
vertex 99.66048431 -18.84584808 274.6694946

endloop
endfacet
facet normal -0.4774828851 -0.718053937 0.506368041
outer loop
vertex 99.51543427 -18.89933014 274.4568787
vertex 99.66048431 -18.84584808 274.6694946
vertex 98.92314911 -18.32982635 274.7059631

endloop
endfacet
facet normal -0.4768966138 -0.7173278332 0.5079472065
outer loop
vertex 98.92314911 -18.32982635 274.7059631
vertex 99.66048431 -18.84584808 274.6694946
vertex 99.07271576 -18.27285004 274.9268494

endloop
endfacet
facet normal -0.4606618583 -0.7327122688 0.5009225011
outer loop
vertex 98.92314911 -18.32982635 274.7059631
vertex 99.07271576 -18.27285004 274.9268494
vertex 98.22231293 -17.69202423 274.9943848

endloop
endfacet
facet normal -0.4621905088 -0.7344831228 0.4969048202
outer loop
vertex 98.22231293 -17.69202423 274.9943848
vertex 99.07271576 -18.27285004 274.9268494
vertex 98.38466644 -17.62949371 275.2378235

endloop
endfacet
facet normal -0.4706661403 -0.7265959978 0.500531435
outer loop
vertex 98.22231293 -17.69202423 274.9943848
vertex 98.38466644 -17.62949371 275.2378235
vertex 97.49391937 -17.01816559 275.2876587

endloop
endfacet
facet normal -0.4723816514 -0.7287113667 0.4958177507
outer loop
vertex 97.49391937 -17.01816559 275.2876587
vertex 98.38466644 -17.62949371 275.2378235
vertex 97.66588593 -16.9512558 275.5498352

endloop
endfacet
facet normal -0.4964431226 -0.7055630684 0.505692482
outer loop
vertex 97.49391937 -17.01816559 275.2876587
vertex 97.66588593 -16.9512558 275.5498352
vertex 96.78646088 -16.32228851 275.5640564

endloop
endfacet
facet normal -0.4982707202 -0.7080001235 0.500461936
outer loop
vertex 96.78646088 -16.32228851 275.5640564
vertex 97.66588593 -16.9512558 275.5498352
vertex 96.9587326 -16.25475311 275.8311157

endloop
endfacet
facet normal -0.5253738761 -0.6803705096 0.5109582543
outer loop
vertex 96.78646088 -16.32228851 275.5640564
vertex 96.9587326 -16.25475311 275.8311157
vertex 96.11840057 -15.616539 275.8168945

endloop
endfacet
facet normal -0.5272794962 -0.6830022931 0.5054545403
outer loop
vertex 96.11840057 -15.616539 275.8168945
vertex 96.9587326 -16.25475311 275.8311157
vertex 96.28200531 -15.55211639 276.0746155

endloop
endfacet
facet normal -0.5474970937 -0.661264658 0.5128118396
outer loop
vertex 96.11840057 -15.616539 275.8168945
vertex 96.28197479 -15.55213165 276.074585
vertex 95.4936142 -14.92891693 276.0365295

endloop
endfacet
facet normal -0.552392602 -0.6683517694 0.4981648922
outer loop
vertex 95.4936142 -14.92891693 276.0365295
vertex 96.28197479 -15.55213165 276.074585
vertex 95.641716 -14.8710556 276.2783813

endloop
endfacet
facet normal -0.5618083477 -0.6579685807 0.5014466047
outer loop
vertex 95.4936142 -14.92891693 276.0365295
vertex 95.641716 -14.8710556 276.2783813
vertex 94.69145966 -14.0765152 276.2562866

endloop
endfacet
facet normal -0.5832059383 -0.6853786707 0.4360353351
outer loop
vertex 94.69145966 -14.0765152 276.2562866
vertex 95.641716 -14.8710556 276.2783813
vertex 94.8158493 -14.03562164 276.4869385

endloop
endfacet
facet normal -0.8331668377 -0.2494738251 0.4935542345
outer loop
vertex 94.69149017 -14.07649994 276.2563171
vertex 94.81587982 -14.03560638 276.486969
vertex 94.46489716 -13.1710434 276.3314819

endloop
endfacet
facet normal 0 -0.1769644916 -0.9842172861
outer loop
vertex 94.46489716 -13.1710434 276.3314819
vertex 94.81587982 -14.03560638 276.486969
vertex 94.46486664 -13.1710434 276.3314819

endloop
endfacet
facet normal 0.1413315535 -0.8854491711 0.4427245855
outer loop
vertex 100.9757004 -19.67595673 273.8547668
vertex 100.9757004 -19.67594147 273.8547974
vertex 100.3373032 -19.52596283 274.358551

endloop
endfacet
facet normal 0.2042673677 -0.8367891908 0.507994771
outer loop
vertex 100.3373032 -19.52596283 274.358551
vertex 100.9757004 -19.67594147 273.8547974
vertex 100.4897995 -19.4222641 274.4680481

endloop
endfacet
facet normal -0.1952043176 -0.5618012547 0.8039120436
outer loop
vertex 100.3373032 -19.52596283 274.358551
vertex 100.4897995 -19.4222641 274.4680481
vertex 99.66048431 -18.84584808 274.6694946

endloop
endfacet
facet normal -0.161535129 -0.5245452523 0.8359178305
outer loop
vertex 99.66048431 -18.84584808 274.6694946
vertex 100.4897995 -19.4222641 274.4680481
vertex 99.81572723 -18.73438263 274.7694397

endloop
endfacet
facet normal -0.1540622562 -0.5319922566 0.8326157928
outer loop
vertex 99.66048431 -18.84584808 274.6694946
vertex 99.81572723 -18.73438263 274.7694397
vertex 99.07271576 -18.27285004 274.9268494

endloop
endfacet
facet normal -0.1530728489 -0.5307351351 0.833599925
outer loop
vertex 99.07271576 -18.27285004 274.9268494
vertex 99.81572723 -18.73438263 274.7694397
vertex 99.23256683 -18.15665436 275.0301819

endloop
endfacet
facet normal -0.1371900439 -0.5461574793 0.8263722062
outer loop
vertex 99.07271576 -18.27285004 274.9268494
vertex 99.23256683 -18.15665436 275.0301819
vertex 98.38466644 -17.62949371 275.2378235

endloop
endfacet
facet normal -0.1396941543 -0.5492191911 0.8239198327
outer loop
vertex 98.38466644 -17.62949371 275.2378235
vertex 99.23256683 -18.15665436 275.0301819
vertex 98.55913544 -17.50196075 275.352417

endloop
endfacet
facet normal -0.149634555 -0.5396957397 0.8284550905
outer loop
vertex 98.38466644 -17.62949371 275.2378235
vertex 98.55913544 -17.50196075 275.352417
vertex 97.66588593 -16.9512558 275.5498352

endloop
endfacet
facet normal -0.1524159163 -0.5432021022 0.8256518245
outer loop
vertex 97.66588593 -16.9512558 275.5498352
vertex 98.55913544 -17.50196075 275.352417
vertex 97.8519516 -16.81476593 275.6739807

endloop
endfacet
facet normal -0.1778455377 -0.5183671713 0.8364605904
outer loop
vertex 97.66588593 -16.9512558 275.5498352
vertex 97.8519516 -16.81476593 275.6739807
vertex 96.9587326 -16.25475311 275.8311157

endloop
endfacet
facet normal -0.1809741259 -0.5224538445 0.8332409263
outer loop
vertex 96.9587326 -16.25475311 275.8311157
vertex 97.8519516 -16.81476593 275.6739807
vertex 97.14678192 -16.11698151 275.9583435

endloop
endfacet
facet normal -0.209147051 -0.493917495 0.8439804316
outer loop
vertex 96.9587326 -16.25475311 275.8311157
vertex 97.14678192 -16.11698151 275.9583435
vertex 96.28200531 -15.55211639 276.0746155

endloop
endfacet
facet normal -0.2124471217 -0.4982717931 0.8405898809
outer loop
vertex 96.28200531 -15.55211639 276.0746155
vertex 97.14678192 -16.11698151 275.9583435
vertex 96.46245575 -15.42075253 276.1980896

endloop
endfacet
facet normal -0.2348567098 -0.4746112525 0.8482844234
outer loop
vertex 96.28197479 -15.55213165 276.074585
vertex 96.46245575 -15.42075253 276.1980591
vertex 95.641716 -14.8710556 276.2783813

endloop
endfacet
facet normal -0.2431770265 -0.4857626557 0.8395829797
outer loop
vertex 95.641716 -14.8710556 276.2783813
vertex 96.46245575 -15.42075253 276.1980591
vertex 95.80886078 -14.75060272 276.3964844

endloop
endfacet
facet normal -0.2598383725 -0.4677579105 0.844799757
outer loop
vertex 95.641716 -14.8710556 276.2783813
vertex 95.80886078 -14.75060272 276.3964844
vertex 94.8158493 -14.03562164 276.4869385

endloop
endfacet
facet normal -0.2963829935 -0.5135126114 0.8052712679
outer loop
vertex 94.8158493 -14.03562164 276.4869385
vertex 95.80886078 -14.75060272 276.3964844
vertex 94.96941376 -13.92990875 276.6108704

endloop
endfacet
facet normal -0.5857458711 -0.09301309288 0.8051399589
outer loop
vertex 94.81587982 -14.03560638 276.486969
vertex 94.96944427 -13.92989254 276.6109009
vertex 94.46486664 -13.1710434 276.3314819

endloop
endfacet
facet normal -0.6922770143 -0.2052345276 0.6918318272
outer loop
vertex 94.46486664 -13.1710434 276.3314819
vertex 94.96944427 -13.92989254 276.6109009
vertex 94.46489716 -13.1710434 276.3315125

endloop
endfacet
facet normal 0.3621836603 -0.7243673205 0.5866131186
outer loop
vertex 100.9757004 -19.67594147 273.8547974
vertex 100.9757309 -19.67592621 273.8547974
vertex 100.4897995 -19.4222641 274.4680481

endloop
endfacet
facet normal 0.4833894968 -0.6045761704 0.6331052184
outer loop
vertex 100.4897995 -19.4222641 274.4680481
vertex 100.9757309 -19.67592621 273.8547974
vertex 100.6421738 -19.27988434 274.4876709

endloop
endfacet
facet normal 0.1391532123 -0.2798378468 0.9499090314
outer loop
vertex 100.4897995 -19.4222641 274.4680481
vertex 100.6421738 -19.27988434 274.4876709
vertex 99.81572723 -18.73438263 274.7694397

endloop
endfacet
facet normal 0.1621858329 -0.2476630062 0.9551747441
outer loop
vertex 99.81572723 -18.73438263 274.7694397
vertex 100.6421738 -19.27988434 274.4876709
vertex 99.9613266 -18.59477997 274.7809143

endloop
endfacet
facet normal 0.1710874736 -0.2566242516 0.9512481689
outer loop
vertex 99.81572723 -18.73438263 274.7694397
vertex 99.9613266 -18.59477997 274.7809143
vertex 99.23256683 -18.15665436 275.0301819

endloop
endfacet
facet normal 0.1708156019 -0.2570403218 0.95118469
outer loop
vertex 99.23256683 -18.15665436 275.0301819
vertex 99.9613266 -18.59477997 274.7809143
vertex 99.38201141 -18.01273346 275.0422363

endloop
endfacet
facet normal 0.186501801 -0.2727138102 0.9438454509
outer loop
vertex 99.23256683 -18.15665436 275.0301819
vertex 99.38201141 -18.01273346 275.0422363
vertex 98.55913544 -17.50196075 275.352417

endloop
endfacet
facet normal 0.1839839816 -0.2764160037 0.9432624578
outer loop
vertex 98.55913544 -17.50196075 275.352417
vertex 99.38201141 -18.01273346 275.0422363
vertex 98.72289276 -17.34401703 275.3667603

endloop
endfacet
facet normal 0.1731286645 -0.26562801 0.9484030008
outer loop
vertex 98.55913544 -17.50196075 275.352417
vertex 98.72289276 -17.34401703 275.3667603
vertex 97.8519516 -16.81476593 275.6739807

endloop
endfacet
facet normal 0.1701234132 -0.2701480389 0.9476698637
outer loop
vertex 97.8519516 -16.81476593 275.6739807
vertex 98.72289276 -17.34401703 275.3667603
vertex 98.02745819 -16.64568329 275.6906738

endloop
endfacet
facet normal 0.144522205 -0.2446705401 0.9587751031
outer loop
vertex 97.8519516 -16.81476593 275.6739807
vertex 98.02745819 -16.64568329 275.6906738
vertex 97.14678192 -16.11698151 275.9583435

endloop
endfacet
facet normal 0.1412855238 -0.2496554404 0.9579721093
outer loop
vertex 97.14678192 -16.11698151 275.9583435
vertex 98.02745819 -16.64568329 275.6906738
vertex 97.32518768 -15.94634247 275.9765015

endloop
endfacet
facet normal 0.1136008427 -0.2218252867 0.9684463739
outer loop
vertex 97.14678192 -16.11698151 275.9583435
vertex 97.32518768 -15.94634247 275.9765015
vertex 96.46245575 -15.42075253 276.1980896

endloop
endfacet
facet normal 0.1102135777 -0.2270406634 0.9676288366
outer loop
vertex 96.46245575 -15.42075253 276.1980896
vertex 97.32518768 -15.94634247 275.9765015
vertex 96.63478851 -15.25801754 276.2166443

endloop
endfacet
facet normal 0.08718618751 -0.2036988139 0.9751437306
outer loop
vertex 96.46245575 -15.42075253 276.1980591
vertex 96.634758 -15.25803375 276.2166443
vertex 95.80886078 -14.75060272 276.3964844

endloop
endfacet
facet normal 0.07960229367 -0.2153819203 0.9732800126
outer loop
vertex 95.80886078 -14.75060272 276.3964844
vertex 96.634758 -15.25803375 276.2166443
vertex 95.97112274 -14.59989166 276.4165649

endloop
endfacet
facet normal 0.05968317017 -0.1947042048 0.979044497
outer loop
vertex 95.80886078 -14.75060272 276.3964844
vertex 95.97112274 -14.59989166 276.4165649
vertex 94.96941376 -13.92990875 276.6108704

endloop
endfacet
facet normal 0.0310318321 -0.2353302836 0.9714198709
outer loop
vertex 94.96941376 -13.92990875 276.6108704
vertex 95.97112274 -14.59989166 276.4165649
vertex 95.13011932 -13.78501129 276.6408386

endloop
endfacet
facet normal -0.3050376177 0.1437922269 0.941422224
outer loop
vertex 94.96944427 -13.92989254 276.6109009
vertex 95.13014984 -13.78498077 276.6408386
vertex 94.46489716 -13.1710434 276.3315125

endloop
endfacet
facet normal 0.4706590176 0.746769011 0.4699107707
outer loop
vertex 94.46489716 -13.1710434 276.3315125
vertex 95.13014984 -13.78498077 276.6408386
vertex 94.46492767 -13.1710434 276.3314819

endloop
endfacet
facet normal -0.3499952853 0.6999905705 -0.6225082278
outer loop
vertex 100.9757309 -19.67592621 273.8547974
vertex 100.9757004 -19.67594147 273.8547974
vertex 100.6421738 -19.27988434 274.4876709

endloop
endfacet
facet normal 0.7475358248 -0.3095571399 0.5876772404
outer loop
vertex 100.6421738 -19.27988434 274.4876709
vertex 100.9757004 -19.67594147 273.8547974
vertex 100.7639999 -19.12711334 274.4131775

endloop
endfacet
facet normal 0.4540106356 0.07103253901 0.8881602287
outer loop
vertex 100.6421738 -19.27988434 274.4876709
vertex 100.7639999 -19.12711334 274.4131775
vertex 99.9613266 -18.59477997 274.7809143

endloop
endfacet
facet normal 0.4615606964 0.08603167534 0.8829271197
outer loop
vertex 99.9613266 -18.59477997 274.7809143
vertex 100.7639999 -19.12711334 274.4131775
vertex 100.0715561 -18.45516205 274.7096863

endloop
endfacet
facet normal 0.4720161557 0.07544482499 0.8783558011
outer loop
vertex 99.9613266 -18.59477997 274.7809143
vertex 100.0715561 -18.45516205 274.7096863
vertex 99.38201141 -18.01273346 275.0422363

endloop
endfacet
facet normal 0.4708399475 0.0729809925 0.8791947365
outer loop
vertex 99.38201141 -18.01273346 275.0422363
vertex 100.0715561 -18.45516205 274.7096863
vertex 99.49495697 -17.8700943 274.9699097

endloop
endfacet
facet normal 0.4866863787 0.056652233 0.8717378974
outer loop
vertex 99.38201141 -18.01273346 275.0422363
vertex 99.49495697 -17.8700943 274.9699097
vertex 98.72289276 -17.34401703 275.3667603

endloop
endfacet
facet normal 0.4846241176 0.05256677419 0.8731415272
outer loop
vertex 98.72289276 -17.34401703 275.3667603
vertex 99.49495697 -17.8700943 274.9699097
vertex 98.84722137 -17.18749237 275.2883301

endloop
endfacet
facet normal 0.4734986424 0.0640694052 0.8784612417
outer loop
vertex 98.72289276 -17.34401703 275.3667603
vertex 98.84722137 -17.18749237 275.2883301
vertex 98.02745819 -16.64568329 275.6906738

endloop
endfacet
facet normal 0.4710508585 0.05913263187 0.8801218867
outer loop
vertex 98.02745819 -16.64568329 275.6906738
vertex 98.84722137 -17.18749237 275.2883301
vertex 98.16146088 -16.47812653 275.6076965

endloop
endfacet
facet normal 0.4464017153 0.08416604996 0.8908656836
outer loop
vertex 98.02745819 -16.64568329 275.6906738
vertex 98.16146088 -16.47812653 275.6076965
vertex 97.32518768 -15.94634247 275.9765015

endloop
endfacet
facet normal 0.4439099133 0.07906068861 0.8925768137
outer loop
vertex 97.32518768 -15.94634247 275.9765015
vertex 98.16146088 -16.47812653 275.6076965
vertex 97.46233368 -15.77718353 275.8933105

endloop
endfacet
facet normal 0.4182108343 0.1046772376 0.9022983909
outer loop
vertex 97.32518768 -15.94634247 275.9765015
vertex 97.46233368 -15.77718353 275.8933105
vertex 96.63478851 -15.25801754 276.2166443

endloop
endfacet
facet normal 0.4157111049 0.09961762279 0.9040246606
outer loop
vertex 96.63478851 -15.25801754 276.2166443
vertex 97.46233368 -15.77718353 275.8933105
vertex 96.76836395 -15.09676361 276.1374512

endloop
endfacet
facet normal 0.3942317963 0.1207800135 0.9110398293
outer loop
vertex 96.634758 -15.25803375 276.2166443
vertex 96.76836395 -15.09677887 276.1374512
vertex 95.97112274 -14.59989166 276.4165649

endloop
endfacet
facet normal 0.389306426 0.1109919026 0.9143967032
outer loop
vertex 95.97112274 -14.59989166 276.4165649
vertex 96.76836395 -15.09677887 276.1374512
vertex 96.09926605 -14.44922638 276.3437195

endloop
endfacet
facet normal 0.3706604242 0.1294184029 0.9197074771
outer loop
vertex 95.97112274 -14.59989166 276.4165649
vertex 96.09926605 -14.44922638 276.3437195
vertex 95.13011932 -13.78501129 276.6408386

endloop
endfacet
facet normal 0.3572437465 0.1061508507 0.9279595017
outer loop
vertex 95.13011932 -13.78501129 276.6408386
vertex 96.09926605 -14.44922638 276.3437195
vertex 95.26610565 -13.62960052 276.5707092

endloop
endfacet
facet normal -0.02434127219 0.4286981523 0.9031198025
outer loop
vertex 95.13014984 -13.78498077 276.6408386
vertex 95.26613617 -13.62958527 276.5707397
vertex 94.46492767 -13.1710434 276.3314819

endloop
endfacet
facet normal 0 -0.4630180597 -0.8863488436
outer loop
vertex 94.46492767 -13.1710434 276.3314819
vertex 95.26613617 -13.62958527 276.5707397
vertex 94.46489716 -13.1710434 276.3314819

endloop
endfacet
facet normal 0 -0.713180542 0.7009804249
outer loop
vertex 100.9757004 -19.67594147 273.8547974
vertex 100.9757309 -19.67594147 273.8547974
vertex 100.7639999 -19.12711334 274.4131775

endloop
endfacet
facet normal 0.9326990843 -0.007039317861 0.3605870306
outer loop
vertex 100.7639999 -19.12711334 274.4131775
vertex 100.9757309 -19.67594147 273.8547974
vertex 100.8295212 -18.99039459 274.2463684

endloop
endfacet
facet normal 0.6708419323 0.4222963154 0.6096204519
outer loop
vertex 100.7639999 -19.12711334 274.4131775
vertex 100.8295212 -18.99039459 274.2463684
vertex 100.0715561 -18.45516205 274.7096863

endloop
endfacet
facet normal 0.6679186225 0.4058533013 0.6238331795
outer loop
vertex 100.0715561 -18.45516205 274.7096863
vertex 100.8295212 -18.99039459 274.2463684
vertex 100.1355515 -18.32706451 274.5578308

endloop
endfacet
facet normal 0.6793646812 0.3942672908 0.6188835502
outer loop
vertex 100.0715561 -18.45516205 274.7096863
vertex 100.1355515 -18.32706451 274.5578308
vertex 99.49495697 -17.8700943 274.9699097

endloop
endfacet
facet normal 0.6781603694 0.3876278698 0.6243742704
outer loop
vertex 99.49495697 -17.8700943 274.9699097
vertex 100.1355515 -18.32706451 274.5578308
vertex 99.56209564 -17.73882294 274.8154907

endloop
endfacet
facet normal 0.6941028833 0.370821774 0.6170190573
outer loop
vertex 99.49495697 -17.8700943 274.9699097
vertex 99.56209564 -17.73882294 274.8154907
vertex 98.84722137 -17.18749237 275.2883301

endloop
endfacet
facet normal 0.6932613254 0.3669323921 0.6202816963
outer loop
vertex 98.84722137 -17.18749237 275.2883301
vertex 99.56209564 -17.73882294 274.8154907
vertex 98.92198944 -17.04341888 275.1195374

endloop
endfacet
facet normal 0.6825602651 0.3783383667 0.6252772212
outer loop
vertex 98.84722137 -17.18749237 275.2883301
vertex 98.92198944 -17.04341888 275.1195374
vertex 98.16146088 -16.47812653 275.6076965

endloop
endfacet
facet normal 0.6816704273 0.374119103 0.6287769079
outer loop
vertex 98.16146088 -16.47812653 275.6076965
vertex 98.92198944 -17.04341888 275.1195374
vertex 98.24315643 -16.32390594 275.4273682

endloop
endfacet
facet normal 0.6591835618 0.3973301351 0.6384400725
outer loop
vertex 98.16146088 -16.47812653 275.6076965
vertex 98.24315643 -16.32390594 275.4273682
vertex 97.46233368 -15.77718353 275.8933105

endloop
endfacet
facet normal 0.6582399607 0.3927432001 0.6422406435
outer loop
vertex 97.46233368 -15.77718353 275.8933105
vertex 98.24315643 -16.32390594 275.4273682
vertex 97.5472641 -15.62149811 275.7110596

endloop
endfacet
facet normal 0.6358230114 0.4149766862 0.6507868171
outer loop
vertex 97.46233368 -15.77718353 275.8933105
vertex 97.5472641 -15.62149811 275.7110596
vertex 96.76836395 -15.09676361 276.1374512

endloop
endfacet
facet normal 0.6348321438 0.4103408456 0.6546819806
outer loop
vertex 96.76836395 -15.09676361 276.1374512
vertex 97.5472641 -15.62149811 275.7110596
vertex 96.85256195 -14.94832611 275.9627686

endloop
endfacet
facet normal 0.6172522306 0.427375257 0.6605679989
outer loop
vertex 96.76836395 -15.09677887 276.1374512
vertex 96.85256195 -14.94834137 275.962738
vertex 96.09926605 -14.44922638 276.3437195

endloop
endfacet
facet normal 0.6161583066 0.4226179123 0.6646375656
outer loop
vertex 96.09926605 -14.44922638 276.3437195
vertex 96.85256195 -14.94834137 275.962738
vertex 96.18132782 -14.31099701 276.1797485

endloop
endfacet
facet normal 0.6066041589 0.4317471087 0.6675521135
outer loop
vertex 96.09926605 -14.44922638 276.3437195
vertex 96.18132782 -14.31099701 276.1797485
vertex 95.26610565 -13.62960052 276.5707092

endloop
endfacet
facet normal 0.6093216538 0.4398962557 0.6597107053
outer loop
vertex 95.26610565 -13.62960052 276.5707092
vertex 96.18132782 -14.31099701 276.1797485
vertex 95.34972382 -13.4905014 276.4007263

endloop
endfacet
facet normal 0.2021157891 0.7068630457 0.6778597832
outer loop
vertex 95.26613617 -13.62958527 276.5707397
vertex 95.34975433 -13.49048615 276.4007568
vertex 94.46489716 -13.1710434 276.3314819

endloop
endfacet
facet normal -nan(ind) -nan(ind) -nan(ind)
outer loop
vertex 94.46489716 -13.1710434 276.3314819
vertex 95.34975433 -13.49048615 276.4007568
vertex 94.46489716 -13.1710434 276.3314819

endloop
endfacet
facet normal -0.6854950786 0.2453427911 -0.6854950786
outer loop
vertex 100.9757309 -19.67594147 273.8547974
vertex 100.9757004 -19.67594147 273.8548279
vertex 100.8295212 -18.99039459 274.2463684

endloop
endfacet
facet normal 0.9783311486 0.2070276886 0.002769811777
outer loop
vertex 100.8295212 -18.99039459 274.2463684
vertex 100.9757004 -19.67594147 273.8548279
vertex 100.8127975 -18.90830231 274.0174255

endloop
endfacet
facet normal 0.7212966084 0.6670463681 0.1864948273
outer loop
vertex 100.8295212 -18.99039459 274.2463684
vertex 100.8127975 -18.90830231 274.0174255
vertex 100.1355515 -18.32706451 274.5578308

endloop
endfacet
facet normal 0.7330226898 0.6400622725 0.2302130908
outer loop
vertex 100.1355515 -18.32706451 274.5578308
vertex 100.8127975 -18.90830231 274.0174255
vertex 100.1288376 -18.24045563 274.3384094

endloop
endfacet
facet normal 0.7451174259 0.6278284788 0.2250141054
outer loop
vertex 100.1355515 -18.32706451 274.5578308
vertex 100.1288376 -18.24045563 274.3384094
vertex 99.56209564 -17.73882294 274.8154907

endloop
endfacet
facet normal 0.7477141023 0.6209018826 0.2353817523
outer loop
vertex 99.56209564 -17.73882294 274.8154907
vertex 100.1288376 -18.24045563 274.3384094
vertex 99.55825043 -17.64871979 274.5900269

endloop
endfacet
facet normal 0.7640172243 0.6035094857 0.2281531692
outer loop
vertex 99.56209564 -17.73882294 274.8154907
vertex 99.55825043 -17.64871979 274.5900269
vertex 98.92198944 -17.04341888 275.1195374

endloop
endfacet
facet normal 0.7648570538 0.6009319425 0.2321087718
outer loop
vertex 98.92198944 -17.04341888 275.1195374
vertex 99.55825043 -17.64871979 274.5900269
vertex 98.91933441 -16.94452667 274.8722534

endloop
endfacet
facet normal 0.7552086115 0.6113756895 0.2363889813
outer loop
vertex 98.92198944 -17.04341888 275.1195374
vertex 98.91933441 -16.94452667 274.8722534
vertex 98.24315643 -16.32390594 275.4273682

endloop
endfacet
facet normal 0.7562403679 0.6082259417 0.241167143
outer loop
vertex 98.24315643 -16.32390594 275.4273682
vertex 98.91933441 -16.94452667 274.8722534
vertex 98.24251556 -16.21804047 275.162384

endloop
endfacet
facet normal 0.7364275455 0.6288462281 0.2494532764
outer loop
vertex 98.24315643 -16.32390594 275.4273682
vertex 98.24251556 -16.21804047 275.162384
vertex 97.5472641 -15.62149811 275.7110596

endloop
endfacet
facet normal 0.7375170588 0.6255892515 0.2543750405
outer loop
vertex 97.5472641 -15.62149811 275.7110596
vertex 98.24251556 -16.21804047 275.162384
vertex 97.54933929 -15.51467133 275.4423218

endloop
endfacet
facet normal 0.7188692093 0.6440554261 0.2615715563
outer loop
vertex 97.5472641 -15.62149811 275.7110596
vertex 97.54933929 -15.51467133 275.4423218
vertex 96.85256195 -14.94832611 275.9627686

endloop
endfacet
facet normal 0.7199797034 0.6406980753 0.2667116225
outer loop
vertex 96.85256195 -14.94832611 275.9627686
vertex 97.54933929 -15.51467133 275.4423218
vertex 96.85759735 -14.84645844 275.7044678

endloop
endfacet
facet normal 0.7074207067 0.6527112722 0.2711529434
outer loop
vertex 96.85256195 -14.94834137 275.962738
vertex 96.85756683 -14.84647369 275.7044678
vertex 96.18132782 -14.31099701 276.1797485

endloop
endfacet
facet normal 0.7078928947 0.6512129307 0.2735129595
outer loop
vertex 96.18132782 -14.31099701 276.1797485
vertex 96.85756683 -14.84647369 275.7044678
vertex 96.18880463 -14.21743011 275.9376221

endloop
endfacet
facet normal 0.7114927769 0.6477887034 0.2723009586
outer loop
vertex 96.18132782 -14.31099701 276.1797485
vertex 96.18880463 -14.21743011 275.9376221
vertex 95.34972382 -13.4905014 276.4007263

endloop
endfacet
facet normal 0.7073588371 0.6664817333 0.235468626
outer loop
vertex 95.34972382 -13.4905014 276.4007263
vertex 96.18880463 -14.21743011 275.9376221
vertex 95.35088348 -13.40686798 276.1605225

endloop
endfacet
facet normal 0.300380677 0.9003425241 0.3148885965
outer loop
vertex 95.34975433 -13.49048615 276.4007568
vertex 95.350914 -13.40685272 276.1605225
vertex 94.46489716 -13.1710434 276.3314819

endloop
endfacet
facet normal 0.1892484725 0 0.9819292426
outer loop
vertex 94.46489716 -13.1710434 276.3314819
vertex 95.350914 -13.40685272 276.1605225
vertex 94.46489716 -13.17102814 276.3314819

endloop
endfacet
facet normal 0.9777514935 0.1876208782 0.09381043911
outer loop
vertex 100.9757004 -19.67594147 273.8548279
vertex 100.9757004 -19.67592621 273.8547974
vertex 100.8127975 -18.90830231 274.0174255

endloop
endfacet
facet normal 0.8677675724 0.2722397745 -0.4157702923
outer loop
vertex 100.8127975 -18.90830231 274.0174255
vertex 100.9757004 -19.67592621 273.8547974
vertex 100.7061081 -18.91587067 273.7897949

endloop
endfacet
facet normal 0.5899600983 0.749062717 -0.3014168143
outer loop
vertex 100.8127975 -18.90830231 274.0174255
vertex 100.7061081 -18.91587067 273.7897949
vertex 100.1288376 -18.24045563 274.3384094

endloop
endfacet
facet normal 0.6288381815 0.7375028133 -0.2462763786
outer loop
vertex 100.1288376 -18.24045563 274.3384094
vertex 100.7061081 -18.91587067 273.7897949
vertex 100.0297775 -18.23639679 274.0976257

endloop
endfacet
facet normal 0.6410655975 0.7251031995 -0.2515158653
outer loop
vertex 100.1288376 -18.24045563 274.3384094
vertex 100.0297775 -18.23639679 274.0976257
vertex 99.55825043 -17.64871979 274.5900269

endloop
endfacet
facet normal 0.6488469243 0.721970439 -0.2403254807
outer loop
vertex 99.55825043 -17.64871979 274.5900269
vertex 100.0297775 -18.23639679 274.0976257
vertex 99.45888519 -17.64304352 274.3388062

endloop
endfacet
facet normal 0.6661022902 0.7035756707 -0.247566089
outer loop
vertex 99.55825043 -17.64871979 274.5900269
vertex 99.45888519 -17.64304352 274.3388062
vertex 98.91933441 -16.94452667 274.8722534

endloop
endfacet
facet normal 0.6687710881 0.702483952 -0.2434372306
outer loop
vertex 98.91933441 -16.94452667 274.8722534
vertex 99.45888519 -17.64304352 274.3388062
vertex 98.81221771 -16.93830109 274.5959473

endloop
endfacet
facet normal 0.6606029868 0.711315155 -0.2400715798
outer loop
vertex 98.91933441 -16.94452667 274.8722534
vertex 98.81221771 -16.93830109 274.5959473
vertex 98.24251556 -16.21804047 275.162384

endloop
endfacet
facet normal 0.663662672 0.7100374103 -0.2353695035
outer loop
vertex 98.24251556 -16.21804047 275.162384
vertex 98.81221771 -16.93830109 274.5959473
vertex 98.13008881 -16.21138763 274.865448

endloop
endfacet
facet normal 0.6464251876 0.7279760242 -0.2284410745
outer loop
vertex 98.24251556 -16.21804047 275.162384
vertex 98.13008881 -16.21138763 274.865448
vertex 97.54933929 -15.51467133 275.4423218

endloop
endfacet
facet normal 0.6497491598 0.7265779972 -0.2234062552
outer loop
vertex 97.54933929 -15.51467133 275.4423218
vertex 98.13008881 -16.21138763 274.865448
vertex 97.43801117 -15.50792694 275.1404724

endloop
endfacet
facet normal 0.6342955828 0.7419042587 -0.2173642069
outer loop
vertex 97.54933929 -15.51467133 275.4423218
vertex 97.43801117 -15.50792694 275.1404724
vertex 96.85759735 -14.84645844 275.7044678

endloop
endfacet
facet normal 0.6376952529 0.7404837012 -0.2121993303
outer loop
vertex 96.85759735 -14.84645844 275.7044678
vertex 97.43801117 -15.50792694 275.1404724
vertex 96.7533493 -14.84003353 275.4136047

endloop
endfacet
facet normal 0.6302598119 0.747636795 -0.2093127519
outer loop
vertex 96.85756683 -14.84647369 275.7044678
vertex 96.7533493 -14.84004974 275.4136047
vertex 96.18880463 -14.21743011 275.9376221

endloop
endfacet
facet normal 0.6310312748 0.7473223209 -0.2081080377
outer loop
vertex 96.18880463 -14.21743011 275.9376221
vertex 96.7533493 -14.84004974 275.4136047
vertex 96.09423065 -14.21294403 275.6669617

endloop
endfacet
facet normal 0.6489678621 0.7299041152 -0.2146640867
outer loop
vertex 96.18880463 -14.21743011 275.9376221
vertex 96.09423065 -14.21294403 275.6669617
vertex 95.35088348 -13.40686798 276.1605225

endloop
endfacet
facet normal 0.6228282452 0.7362993956 -0.2644772232
outer loop
vertex 95.35088348 -13.40686798 276.1605225
vertex 96.09423065 -14.21294403 275.6669617
vertex 95.25591278 -13.41443634 275.915802

endloop
endfacet
facet normal 0.2335571647 0.9648484588 -0.1204929277
outer loop
vertex 95.350914 -13.40685272 276.1605225
vertex 95.2559433 -13.41442108 275.9158325
vertex 94.46489716 -13.17102814 276.3314819

endloop
endfacet
facet normal -0.4650480747 0 -0.8852854371
outer loop
vertex 94.46489716 -13.17102814 276.3314819
vertex 95.2559433 -13.41442108 275.9158325
vertex 94.46489716 -13.1710434 276.3314819

endloop
endfacet
facet normal 0.234396711 0 -0.9721410871
outer loop
vertex 100.9757004 -19.67592621 273.8547974
vertex 100.9757004 -19.67594147 273.8547974
vertex 100.7061081 -18.91587067 273.7897949

endloop
endfacet
facet normal 0.6382572055 0.1620240211 -0.7525795102
outer loop
vertex 100.7061081 -18.91587067 273.7897949
vertex 100.9757004 -19.67594147 273.8547974
vertex 100.553978 -19.00279999 273.6420593

endloop
endfacet
facet normal 0.3190408349 0.635925889 -0.7027170658
outer loop
vertex 100.7061081 -18.91587067 273.7897949
vertex 100.553978 -19.00279999 273.6420593
vertex 100.0297775 -18.23639679 274.0976257

endloop
endfacet
facet normal 0.3716965318 0.6488814354 -0.6639235616
outer loop
vertex 100.0297775 -18.23639679 274.0976257
vertex 100.553978 -19.00279999 273.6420593
vertex 99.87648773 -18.31804657 273.9320068

endloop
endfacet
facet normal 0.3816213608 0.6387428045 -0.6681113839
outer loop
vertex 100.0297775 -18.23639679 274.0976257
vertex 99.87648773 -18.31804657 273.9320068
vertex 99.45888519 -17.64304352 274.3388062

endloop
endfacet
facet normal 0.3925190568 0.6405863166 -0.6599832177
outer loop
vertex 99.45888519 -17.64304352 274.3388062
vertex 99.87648773 -18.31804657 273.9320068
vertex 99.30181122 -17.72676849 274.1641235

endloop
endfacet
facet normal 0.4112517238 0.6208698153 -0.6673775315
outer loop
vertex 99.45888519 -17.64304352 274.3388062
vertex 99.30181122 -17.72676849 274.1641235
vertex 98.81221771 -16.93830109 274.5959473

endloop
endfacet
facet normal 0.4150306582 0.6215729117 -0.6643768549
outer loop
vertex 98.81221771 -16.93830109 274.5959473
vertex 99.30181122 -17.72676849 274.1641235
vertex 98.64125824 -17.03020477 274.4031677

endloop
endfacet
facet normal 0.4083985984 0.6286175847 -0.6618538499
outer loop
vertex 98.81221771 -16.93830109 274.5959473
vertex 98.64125824 -17.03020477 274.4031677
vertex 98.13008881 -16.21138763 274.865448

endloop
endfacet
facet normal 0.412879318 0.6294130683 -0.6583083272
outer loop
vertex 98.13008881 -16.21138763 274.865448
vertex 98.64125824 -17.03020477 274.4031677
vertex 97.94844818 -16.30976105 274.6574707

endloop
endfacet
facet normal 0.3971095979 0.6456787586 -0.6522291899
outer loop
vertex 98.13008881 -16.21138763 274.865448
vertex 97.94844818 -16.30976105 274.6574707
vertex 97.43801117 -15.50792694 275.1404724

endloop
endfacet
facet normal 0.4018761516 0.6464737654 -0.6485115886
outer loop
vertex 97.43801117 -15.50792694 275.1404724
vertex 97.94844818 -16.30976105 274.6574707
vertex 97.25539398 -15.60723114 274.9283142

endloop
endfacet
facet normal 0.3878035247 0.6604719162 -0.6429505348
outer loop
vertex 97.43801117 -15.50792694 275.1404724
vertex 97.25539398 -15.60723114 274.9283142
vertex 96.7533493 -14.84003353 275.4136047

endloop
endfacet
facet normal 0.392770499 0.6612813473 -0.6390917897
outer loop
vertex 96.7533493 -14.84003353 275.4136047
vertex 97.25539398 -15.60723114 274.9283142
vertex 96.57909393 -14.93473053 275.2085266

endloop
endfacet
facet normal 0.388358295 0.6656422019 -0.6372584105
outer loop
vertex 96.7533493 -14.84004974 275.4136047
vertex 96.57909393 -14.93474579 275.2084961
vertex 96.09423065 -14.21294403 275.6669617

endloop
endfacet
facet normal 0.3900170624 0.6659246683 -0.6359488964
outer loop
vertex 96.09423065 -14.21294403 275.6669617
vertex 96.57909393 -14.93474579 275.2084961
vertex 95.93370819 -14.3010788 275.4762268

endloop
endfacet
facet normal 0.416962266 0.6391423345 -0.6462503672
outer loop
vertex 96.09423065 -14.21294403 275.6669617
vertex 95.93370819 -14.3010788 275.4762268
vertex 95.25591278 -13.41443634 275.915802

endloop
endfacet
facet normal 0.3769368529 0.6264140606 -0.682293117
outer loop
vertex 95.25591278 -13.41443634 275.915802
vertex 95.93370819 -14.3010788 275.4762268
vertex 95.10585785 -13.5029068 275.7516785

endloop
endfacet
facet normal 0.01443089265 0.8745936751 -0.4846417904
outer loop
vertex 95.2559433 -13.41442108 275.9158325
vertex 95.10588837 -13.50289154 275.751709
vertex 94.46489716 -13.1710434 276.3314819

endloop
endfacet
facet normal 0.4601591527 0.8878364563 0
outer loop
vertex 94.46489716 -13.1710434 276.3314819
vertex 95.10588837 -13.50289154 275.751709
vertex 94.46489716 -13.1710434 276.3314514

endloop
endfacet
facet normal -0.4503895044 0 0.8928321004
outer loop
vertex 100.9757004 -19.67595673 273.8547974
vertex 100.9757004 -19.67594147 273.8547974
vertex 100.553978 -19.00281525 273.6420593

endloop
endfacet
facet normal 0.3326130807 -0.08835287392 -0.9389155507
outer loop
vertex 100.553978 -19.00281525 273.6420593
vertex 100.9757004 -19.67594147 273.8547974
vertex 100.3779526 -19.15631866 273.5941467

endloop
endfacet
facet normal -0.0487800017 0.3481417596 -0.9361719489
outer loop
vertex 100.553978 -19.00281525 273.6420593
vertex 100.3779526 -19.15631866 273.5941467
vertex 99.87645721 -18.31806183 273.9320068

endloop
endfacet
facet normal 0.002520736307 0.3751244247 -0.9269710183
outer loop
vertex 99.87645721 -18.31806183 273.9320068
vertex 100.3779526 -19.15631866 273.5941467
vertex 99.69261932 -18.47345734 273.8686218

endloop
endfacet
facet normal 0.006622624584 0.3709484637 -0.9286298156
outer loop
vertex 99.87645721 -18.31806183 273.9320068
vertex 99.69261932 -18.47345734 273.8686218
vertex 99.3017807 -17.72679901 274.164093

endloop
endfacet
facet normal 0.01805829443 0.376059711 -0.9264194369
outer loop
vertex 99.3017807 -17.72679901 274.164093
vertex 99.69261932 -18.47345734 273.8686218
vertex 99.11147308 -17.88764191 274.0950928

endloop
endfacet
facet normal 0.03759514168 0.3560686111 -0.9337032437
outer loop
vertex 99.3017807 -17.72679901 274.164093
vertex 99.11147308 -17.88764191 274.0950928
vertex 98.64122772 -17.03022003 274.4031372

endloop
endfacet
facet normal 0.04219372943 0.3582237363 -0.9326818585
outer loop
vertex 98.64122772 -17.03022003 274.4031372
vertex 99.11147308 -17.88764191 274.0950928
vertex 98.43312836 -17.2067337 274.3259277

endloop
endfacet
facet normal 0.03671174869 0.3638368547 -0.9307389855
outer loop
vertex 98.64122772 -17.03022003 274.4031372
vertex 98.43312836 -17.2067337 274.3259277
vertex 97.94841766 -16.30977631 274.6574402

endloop
endfacet
facet normal 0.04176119715 0.3661512136 -0.9296178222
outer loop
vertex 97.94841766 -16.30977631 274.6574402
vertex 98.43312836 -17.2067337 274.3259277
vertex 97.725914 -16.49871063 274.5730286

endloop
endfacet
facet normal 0.02614997886 0.3819438219 -0.9238155484
outer loop
vertex 97.94841766 -16.30977631 274.6574402
vertex 97.725914 -16.49871063 274.5730286
vertex 97.25536346 -15.60723114 274.9282837

endloop
endfacet
facet normal 0.03155921772 0.3843360543 -0.9226537347
outer loop
vertex 97.25536346 -15.60723114 274.9282837
vertex 97.725914 -16.49871063 274.5730286
vertex 97.02986908 -15.79795074 274.8411255

endloop
endfacet
facet normal 0.01689678803 0.3989955187 -0.9167971611
outer loop
vertex 97.25536346 -15.60723114 274.9282837
vertex 97.02986908 -15.79795074 274.8411255
vertex 96.57909393 -14.93473053 275.2084961

endloop
endfacet
facet normal 0.02273822762 0.4015223682 -0.9155668616
outer loop
vertex 96.57909393 -14.93473053 275.2084961
vertex 97.02986908 -15.79795074 274.8411255
vertex 96.36199188 -15.11658478 275.1233521

endloop
endfacet
facet normal 0.0188551005 0.4053989649 -0.9139453769
outer loop
vertex 96.57909393 -14.93474579 275.2084656
vertex 96.36199188 -15.11660004 275.1233215
vertex 95.93370819 -14.3010788 275.4762268

endloop
endfacet
facet normal 0.02167592011 0.4066187143 -0.9133407474
outer loop
vertex 95.93370819 -14.3010788 275.4762268
vertex 96.36199188 -15.11660004 275.1233215
vertex 95.73201752 -14.46889496 275.3967285

endloop
endfacet
facet normal 0.05317369476 0.3745993078 -0.925660789
outer loop
vertex 95.93370819 -14.3010788 275.4762268
vertex 95.73201752 -14.46889496 275.3967285
vertex 95.10585785 -13.5029068 275.7516785

endloop
endfacet
facet normal 0.01275934093 0.3521490395 -0.935856998
outer loop
vertex 95.10585785 -13.5029068 275.7516785
vertex 95.73201752 -14.46889496 275.3967285
vertex 94.92208099 -13.65926361 275.6903381

endloop
endfacet
facet normal -0.3076161742 0.6384157538 -0.70554775
outer loop
vertex 95.10588837 -13.50289154 275.751709
vertex 94.92208099 -13.65924835 275.6903687
vertex 94.46486664 -13.17105865 276.3314514

endloop
endfacet
facet normal -0.1262819171 -0.8308021426 0.5420522094
outer loop
vertex 94.46486664 -13.17105865 276.3314514
vertex 94.92208099 -13.65924835 275.6903687
vertex 94.46489716 -13.1710434 276.3314819

endloop
endfacet
facet normal -nan(ind) -nan(ind) -nan(ind)
outer loop
vertex 100.9757004 -19.67594147 273.8547974
vertex 100.9757004 -19.67594147 273.8547974
vertex 100.3779526 -19.15631866 273.5941467

endloop
endfacet
facet normal -0.01160668209 -0.4589736164 -0.8883740902
outer loop
vertex 100.3779526 -19.15631866 273.5941467
vertex 100.9757004 -19.67594147 273.8547974
vertex 100.1576157 -19.43852997 273.7428284

endloop
endfacet
facet normal -0.4590998292 -0.1062393934 -0.8820093274
outer loop
vertex 100.3779526 -19.15631866 273.5941467
vertex 100.1576157 -19.43852997 273.7428284
vertex 99.69261932 -18.47345734 273.8686218

endloop
endfacet
facet normal -0.4468542337 -0.0994194597 -0.8890653253
outer loop
vertex 99.69261932 -18.47345734 273.8686218
vertex 100.1576157 -19.43852997 273.7428284
vertex 99.45433807 -18.77518463 274.0221252

endloop
endfacet
facet normal -0.4467740059 -0.09949885309 -0.8890967369
outer loop
vertex 99.69261932 -18.47345734 273.8686218
vertex 99.45433807 -18.77518463 274.0221252
vertex 99.11147308 -17.88765717 274.0950928

endloop
endfacet
facet normal -0.4402949214 -0.09670541435 -0.8926301003
outer loop
vertex 99.11147308 -17.88765717 274.0950928
vertex 99.45433807 -18.77518463 274.0221252
vertex 98.86186981 -18.20192719 274.2522583

endloop
endfacet
facet normal -0.421566993 -0.1150029823 -0.8994751573
outer loop
vertex 99.11147308 -17.88765717 274.0950928
vertex 98.86186981 -18.20192719 274.2522583
vertex 98.43312836 -17.20671844 274.3259583

endloop
endfacet
facet normal -0.4173715413 -0.1130323559 -0.9016788602
outer loop
vertex 98.43312836 -17.20671844 274.3259583
vertex 98.86186981 -18.20192719 274.2522583
vertex 98.1583786 -17.5515976 274.4963684

endloop
endfacet
facet normal -0.4225546122 -0.1080134958 -0.8998781443
outer loop
vertex 98.43312836 -17.20671844 274.3259583
vertex 98.1583786 -17.5515976 274.4963684
vertex 97.725914 -16.49869537 274.5730591

endloop
endfacet
facet normal -0.4176797271 -0.1058267802 -0.9024102688
outer loop
vertex 97.725914 -16.49869537 274.5730591
vertex 98.1583786 -17.5515976 274.4963684
vertex 97.42977142 -16.867836 274.753418

endloop
endfacet
facet normal -0.4347700775 -0.08904669434 -0.8961281776
outer loop
vertex 97.725914 -16.49869537 274.5730591
vertex 97.42977142 -16.867836 274.753418
vertex 97.02986908 -15.797966 274.8411255

endloop
endfacet
facet normal -0.4294365644 -0.08682476729 -0.8989136219
outer loop
vertex 97.02986908 -15.797966 274.8411255
vertex 97.42977142 -16.867836 274.753418
vertex 96.72676849 -16.17053986 275.0219116

endloop
endfacet
facet normal -0.447173655 -0.0689368248 -0.8917866349
outer loop
vertex 97.02986908 -15.797966 274.8411255
vertex 96.72676849 -16.17053986 275.0219116
vertex 96.36199188 -15.11660004 275.1233521

endloop
endfacet
facet normal -0.4412757754 -0.06659615785 -0.8948969841
outer loop
vertex 96.36199188 -15.11660004 275.1233521
vertex 96.72676849 -16.17053986 275.0219116
vertex 96.06679535 -15.47182465 275.2953491

endloop
endfacet
facet normal -0.4482138753 -0.05943819135 -0.8919481039
outer loop
vertex 96.36199188 -15.11660004 275.1233215
vertex 96.06676483 -15.4718399 275.2953491
vertex 95.73201752 -14.46889496 275.3967285

endloop
endfacet
facet normal -0.440815866 -0.0565783754 -0.8958126307
outer loop
vertex 95.73201752 -14.46889496 275.3967285
vertex 96.06676483 -15.4718399 275.2953491
vertex 95.45464325 -14.79477692 275.5538025

endloop
endfacet
facet normal -0.4135400355 -0.08495220542 -0.9065140486
outer loop
vertex 95.73201752 -14.46889496 275.3967285
vertex 95.45464325 -14.79477692 275.5538025
vertex 94.92208099 -13.65926361 275.6903381

endloop
endfacet
facet normal -0.4173012972 -0.08694648743 -0.9045993686
outer loop
vertex 94.92208099 -13.65926361 275.6903381
vertex 95.45464325 -14.79477692 275.5538025
vertex 94.67482758 -13.94675446 275.8320312

endloop
endfacet
facet normal -0.6858326793 0.2535604835 -0.6821588278
outer loop
vertex 94.92208099 -13.65924835 275.6903687
vertex 94.67485809 -13.9467392 275.8320618
vertex 94.46489716 -13.1710434 276.3314819

endloop
endfacet
facet normal -nan(ind) -nan(ind) -nan(ind)
outer loop
vertex 94.46489716 -13.1710434 276.3314819
vertex 94.67485809 -13.9467392 275.8320618
vertex 94.46489716 -13.1710434 276.3314819

endloop
endfacet
endsolid
