solid 
facet normal -nan(ind) -nan(ind) -nan(ind)
outer loop
vertex 72.20198822 74.35625458 213.3141632
vertex 72.20198822 74.35625458 213.3141632
vertex 72.32552338 74.33687592 212.4359283

endloop
endfacet
facet normal -0.7685555816 -0.6328184009 -0.0941439122
outer loop
vertex 72.32552338 74.33687592 212.4359283
vertex 72.20198822 74.35625458 213.3141632
vertex 72.02281952 74.68694305 212.5540009

endloop
endfacet
facet normal -0.661352098 -0.3477079272 -0.6646146178
outer loop
vertex 72.32552338 74.33687592 212.4359283
vertex 72.02281952 74.68694305 212.5540009
vertex 72.62197113 74.7236557 211.9385834

endloop
endfacet
facet normal -0.6644358635 -0.3371276259 -0.6669857502
outer loop
vertex 72.62197113 74.7236557 211.9385834
vertex 72.02281952 74.68694305 212.5540009
vertex 72.3010788 75.10054779 212.067749

endloop
endfacet
facet normal -0.6681694984 -0.34254089 -0.6604658961
outer loop
vertex 72.62197113 74.7236557 211.9385834
vertex 72.3010788 75.10054779 212.067749
vertex 72.82967377 74.99568939 211.5873718

endloop
endfacet
facet normal -0.6673722863 -0.3480574489 -0.6583845019
outer loop
vertex 72.82967377 74.99568939 211.5873718
vertex 72.3010788 75.10054779 212.067749
vertex 72.5082016 75.38848114 211.7055817

endloop
endfacet
facet normal -0.6617071629 -0.3405375779 -0.6679654121
outer loop
vertex 72.82967377 74.99568939 211.5873718
vertex 72.5082016 75.38848114 211.7055817
vertex 73.06050873 75.26894379 211.2193909

endloop
endfacet
facet normal -0.6607922316 -0.3477373123 -0.6651559472
outer loop
vertex 73.06050873 75.26894379 211.2193909
vertex 72.5082016 75.38848114 211.7055817
vertex 72.74651337 75.6740036 211.3195648

endloop
endfacet
facet normal -0.6633831263 -0.3507821858 -0.6609649062
outer loop
vertex 73.06050873 75.26894379 211.2193909
vertex 72.74651337 75.6740036 211.3195648
vertex 73.30522919 75.53639984 210.8318329

endloop
endfacet
facet normal -0.6630187631 -0.3538974822 -0.6596686244
outer loop
vertex 73.30522919 75.53639984 210.8318329
vertex 72.74651337 75.6740036 211.3195648
vertex 72.99950409 75.9512558 210.9165497

endloop
endfacet
facet normal -0.6701100469 -0.3614417911 -0.6483150125
outer loop
vertex 73.30522919 75.53639984 210.8318329
vertex 72.99950409 75.9512558 210.9165497
vertex 73.54509735 75.76869965 210.4543915

endloop
endfacet
facet normal -0.6699329615 -0.3638210893 -0.6471661329
outer loop
vertex 73.54509735 75.76869965 210.4543915
vertex 72.99950409 75.9512558 210.9165497
vertex 73.25273895 76.19646454 210.5165558

endloop
endfacet
facet normal -0.6835862398 -0.3763192892 -0.625374794
outer loop
vertex 73.54509735 75.76869965 210.4543915
vertex 73.25273895 76.19646454 210.5165558
vertex 73.78292084 75.95543671 210.0820618

endloop
endfacet
facet normal -0.6835674644 -0.377222091 -0.6248511672
outer loop
vertex 73.78292084 75.95543671 210.0820618
vertex 73.25273895 76.19646454 210.5165558
vertex 73.51070404 76.39928436 210.111908

endloop
endfacet
facet normal -0.7064373493 -0.3936943412 -0.5881760716
outer loop
vertex 73.78292084 75.95543671 210.0820618
vertex 73.51070404 76.39928436 210.1119232
vertex 74.01448822 76.09380341 209.711319

endloop
endfacet
facet normal -0.7063037157 -0.3903259933 -0.5905765295
outer loop
vertex 74.01448822 76.09380341 209.711319
vertex 73.51070404 76.39928436 210.1119232
vertex 73.76665497 76.55242157 209.7046051

endloop
endfacet
facet normal -0.7394690514 -0.4074476659 -0.5358842611
outer loop
vertex 74.01448822 76.09380341 209.711319
vertex 73.76665497 76.55242157 209.7046051
vertex 74.23784637 76.17943573 209.3379974

endloop
endfacet
facet normal -0.7389637828 -0.4023773372 -0.5403932929
outer loop
vertex 74.23784637 76.17943573 209.3379974
vertex 73.76665497 76.55242157 209.7046051
vertex 74.01702118 76.64910126 209.2902527

endloop
endfacet
facet normal -0.7805407643 -0.4145285189 -0.4678912461
outer loop
vertex 74.23787689 76.17946625 209.3380127
vertex 74.0170517 76.64916229 209.2902679
vertex 74.45241547 76.21077728 208.9523773

endloop
endfacet
facet normal -0.7799332738 -0.4102695584 -0.4726342261
outer loop
vertex 74.45241547 76.21077728 208.9523773
vertex 74.0170517 76.64916229 209.2902679
vertex 74.25649261 76.68578339 208.8633575

endloop
endfacet
facet normal -0.8235787749 -0.4126302004 -0.3891713321
outer loop
vertex 74.45241547 76.21077728 208.9523773
vertex 74.25649261 76.68578339 208.8633575
vertex 74.65880585 76.18996429 208.537674

endloop
endfacet
facet normal -0.8234885931 -0.4119794667 -0.3900506794
outer loop
vertex 74.65880585 76.18996429 208.537674
vertex 74.25649261 76.68578339 208.8633575
vertex 74.47924042 76.66466522 208.41539

endloop
endfacet
facet normal -0.8620357513 -0.4046912491 -0.3051545024
outer loop
vertex 74.65880585 76.18996429 208.537674
vertex 74.47924042 76.66466522 208.41539
vertex 74.85549164 76.12343597 208.070282

endloop
endfacet
facet normal -0.8622855544 -0.4091773629 -0.2983913422
outer loop
vertex 74.85549164 76.12343597 208.070282
vertex 74.47924042 76.66466522 208.41539
vertex 74.67983246 76.59520721 207.9309692

endloop
endfacet
facet normal -0.889729917 -0.3975387514 -0.2243736982
outer loop
vertex 74.85549164 76.12343597 208.070282
vertex 74.67983246 76.59520721 207.9309692
vertex 75.03725433 76.02828217 207.5181122

endloop
endfacet
facet normal -0.8889982104 -0.4053440392 -0.2130222023
outer loop
vertex 75.03725433 76.02828217 207.5181122
vertex 74.67983246 76.59520721 207.9309692
vertex 74.8536911 76.49913788 207.3882141

endloop
endfacet
facet normal -0.8995907307 -0.3994688392 -0.1765249074
outer loop
vertex 75.03731537 76.02831268 207.5181427
vertex 74.85372162 76.4991684 207.3882294
vertex 75.20204926 75.95104218 206.8535004

endloop
endfacet
facet normal -0.8978388906 -0.4072659314 -0.1673911959
outer loop
vertex 75.20204926 75.95104218 206.8535004
vertex 74.85372162 76.4991684 207.3882294
vertex 75.00270844 76.42406464 206.7718353

endloop
endfacet
facet normal -0.8896754384 -0.4097175002 -0.2015173584
outer loop
vertex 75.20204926 75.95104218 206.8535004
vertex 75.00270844 76.42406464 206.7718353
vertex 75.35982513 75.97640228 206.1053772

endloop
endfacet
facet normal -0.8886531591 -0.4133915007 -0.1985017508
outer loop
vertex 75.35982513 75.97640228 206.1053772
vertex 75.00270844 76.42406464 206.7718353
vertex 75.14076996 76.44603729 206.1080017

endloop
endfacet
facet normal -0.8682160378 -0.4033532143 -0.2889759243
outer loop
vertex 75.35982513 75.97640228 206.1053772
vertex 75.14076996 76.44603729 206.1080017
vertex 75.52553558 76.13857269 205.3811493

endloop
endfacet
facet normal -0.8674712777 -0.4060404897 -0.287444979
outer loop
vertex 75.52553558 76.13857269 205.3811493
vertex 75.14076996 76.44603729 206.1080017
vertex 75.28621674 76.59307098 205.4613647

endloop
endfacet
facet normal -0.8433110714 -0.376337111 -0.3836623132
outer loop
vertex 75.52553558 76.13857269 205.3811493
vertex 75.28621674 76.59307098 205.4613647
vertex 75.71553802 76.38167572 204.7250519

endloop
endfacet
facet normal -0.8384261727 -0.3950857818 -0.3754313588
outer loop
vertex 75.71553802 76.38167572 204.7250519
vertex 75.28621674 76.59307098 205.4613647
vertex 75.45949554 76.8214035 204.8341064

endloop
endfacet
facet normal -0.8031999469 -0.3477256298 -0.4836907089
outer loop
vertex 75.71553802 76.38167572 204.7250519
vertex 75.45949554 76.8214035 204.8341064
vertex 75.95708466 76.64748383 204.1328583

endloop
endfacet
facet normal -0.792478621 -0.395578146 -0.4642149806
outer loop
vertex 75.95708466 76.64748383 204.1328583
vertex 75.45949554 76.8214035 204.8341064
vertex 75.6838913 77.07787323 204.2324829

endloop
endfacet
facet normal -0.7641451955 -0.3614076674 -0.5342908502
outer loop
vertex 75.95708466 76.64748383 204.1328583
vertex 75.68386078 77.07787323 204.2324982
vertex 76.21376801 76.92910004 203.5752563

endloop
endfacet
facet normal -0.7516185045 -0.4160666168 -0.5118185282
outer loop
vertex 76.21376801 76.92910004 203.5752563
vertex 75.68386078 77.07787323 204.2324982
vertex 75.93264008 77.33461761 203.6584473

endloop
endfacet
facet normal -0.1193024963 0.119494468 -0.9856409431
outer loop
vertex 76.21376801 76.92910004 203.5752563
vertex 75.93264008 77.33461761 203.6584473
vertex 76.55861664 77.54814911 203.6085663

endloop
endfacet
facet normal 0.322891891 -0.9464359283 0
outer loop
vertex 76.55861664 77.54814911 203.6085663
vertex 75.93264008 77.33461761 203.6584473
vertex 76.55861664 77.54814911 203.608551

endloop
endfacet
facet normal 0.8792409897 0.476377219 -0
outer loop
vertex 72.20198822 74.35625458 213.3141632
vertex 72.20198822 74.35625458 213.3141479
vertex 72.02281952 74.68694305 212.5540009

endloop
endfacet
facet normal -0.9620681405 -0.2448877394 0.1202279851
outer loop
vertex 72.02281952 74.68694305 212.5540009
vertex 72.20198822 74.35625458 213.3141479
vertex 71.98891449 74.89910126 212.7148285

endloop
endfacet
facet normal -0.9079167247 0.1512400955 -0.3909139335
outer loop
vertex 72.02281952 74.68694305 212.5540009
vertex 71.98891449 74.89910126 212.7148285
vertex 72.3010788 75.10054779 212.067749

endloop
endfacet
facet normal -0.9060267806 0.1912328005 -0.3775518239
outer loop
vertex 72.3010788 75.10054779 212.067749
vertex 71.98891449 74.89910126 212.7148285
vertex 72.27623749 75.31679535 212.2368927

endloop
endfacet
facet normal -0.9093755484 0.1864056736 -0.3718723357
outer loop
vertex 72.3010788 75.10054779 212.067749
vertex 72.27623749 75.31679535 212.2368927
vertex 72.5082016 75.38848114 211.7055817

endloop
endfacet
facet normal -0.9098463655 0.1826473773 -0.372584939
outer loop
vertex 72.5082016 75.38848114 211.7055817
vertex 72.27623749 75.31679535 212.2368927
vertex 72.48540497 75.6135788 211.8715973

endloop
endfacet
facet normal -0.893316865 0.2046398669 -0.4001344442
outer loop
vertex 72.5082016 75.38848114 211.7055817
vertex 72.48540497 75.6135788 211.8715973
vertex 72.74651337 75.6740036 211.3195648

endloop
endfacet
facet normal -0.8942629099 0.1981333792 -0.4012940824
outer loop
vertex 72.74651337 75.6740036 211.3195648
vertex 72.48540497 75.6135788 211.8715973
vertex 72.72725677 75.90615082 211.4770966

endloop
endfacet
facet normal -0.886431694 0.2072984725 -0.4138430655
outer loop
vertex 72.74651337 75.6740036 211.3195648
vertex 72.72725677 75.90615082 211.4770966
vertex 72.99950409 75.9512558 210.9165497

endloop
endfacet
facet normal -0.8868549466 0.2046319842 -0.4142632186
outer loop
vertex 72.99950409 75.9512558 210.9165497
vertex 72.72725677 75.90615082 211.4770966
vertex 72.98455048 76.1889267 211.0659637

endloop
endfacet
facet normal -0.8792404532 0.212662667 -0.4262755215
outer loop
vertex 72.99950409 75.9512558 210.9165497
vertex 72.98455048 76.1889267 211.0659637
vertex 73.25273895 76.19646454 210.5165558

endloop
endfacet
facet normal -0.8796215057 0.2106494159 -0.4264891148
outer loop
vertex 73.25273895 76.19646454 210.5165558
vertex 72.98455048 76.1889267 211.0659637
vertex 73.24498749 76.44155121 210.653595

endloop
endfacet
facet normal -0.8688052297 0.2204358429 -0.44337973
outer loop
vertex 73.25273895 76.19646454 210.5165558
vertex 73.24498749 76.44155121 210.653595
vertex 73.51070404 76.39928436 210.111908

endloop
endfacet
facet normal -0.8690103292 0.2195604891 -0.4434120953
outer loop
vertex 73.51070404 76.39928436 210.111908
vertex 73.24498749 76.44155121 210.653595
vertex 73.51436615 76.65358734 210.2306519

endloop
endfacet
facet normal -0.8608567119 0.2253902406 -0.456207186
outer loop
vertex 73.51070404 76.39928436 210.1119232
vertex 73.51436615 76.65358734 210.2306519
vertex 73.76665497 76.55242157 209.7046051

endloop
endfacet
facet normal -0.8600894809 0.2280236781 -0.4563456774
outer loop
vertex 73.76665497 76.55242157 209.7046051
vertex 73.51436615 76.65358734 210.2306519
vertex 73.78527069 76.81517792 209.8008118

endloop
endfacet
facet normal -0.8557398319 0.2302758694 -0.4633383155
outer loop
vertex 73.76665497 76.55242157 209.7046051
vertex 73.78527069 76.81517792 209.8008118
vertex 74.01702118 76.64910126 209.2902527

endloop
endfacet
facet normal -0.854286015 0.2343189716 -0.4639935195
outer loop
vertex 74.01702118 76.64910126 209.2902527
vertex 73.78527069 76.81517792 209.8008118
vertex 74.05330658 76.91823578 209.3593597

endloop
endfacet
facet normal -0.8564684987 0.2335759103 -0.4603303373
outer loop
vertex 74.0170517 76.64916229 209.2902679
vertex 74.05330658 76.9182663 209.3593597
vertex 74.25649261 76.68578339 208.8633575

endloop
endfacet
facet normal -0.8553429246 0.2361841649 -0.4610917568
outer loop
vertex 74.25649261 76.68578339 208.8633575
vertex 74.05330658 76.9182663 209.3593597
vertex 74.31047821 76.95796967 208.9026337

endloop
endfacet
facet normal -0.8657718301 0.2354395092 -0.4415963888
outer loop
vertex 74.25649261 76.68578339 208.8633575
vertex 74.31047821 76.95796967 208.9026337
vertex 74.47924042 76.66466522 208.41539

endloop
endfacet
facet normal -0.866440177 0.2340784371 -0.4410085678
outer loop
vertex 74.47924042 76.66466522 208.41539
vertex 74.31047821 76.95796967 208.9026337
vertex 74.54720306 76.9366684 208.426239

endloop
endfacet
facet normal -0.8850836754 0.2371210009 -0.400500387
outer loop
vertex 74.47924042 76.66466522 208.41539
vertex 74.54720306 76.9366684 208.426239
vertex 74.67983246 76.59520721 207.9309692

endloop
endfacet
facet normal -0.8881220222 0.2311928272 -0.3972268701
outer loop
vertex 74.67983246 76.59520721 207.9309692
vertex 74.54720306 76.9366684 208.426239
vertex 74.7554245 76.86556244 207.9193115

endloop
endfacet
facet normal -0.9112478495 0.2403661758 -0.3344420195
outer loop
vertex 74.67983246 76.59520721 207.9309692
vertex 74.7554245 76.86556244 207.9193115
vertex 74.8536911 76.49913788 207.3882141

endloop
endfacet
facet normal -0.9150807858 0.2323400974 -0.3296137154
outer loop
vertex 74.8536911 76.49913788 207.3882141
vertex 74.7554245 76.86556244 207.9193115
vertex 74.92980194 76.76894379 207.3670959

endloop
endfacet
facet normal -0.9354638457 0.2438515127 -0.2558200359
outer loop
vertex 74.85372162 76.4991684 207.3882294
vertex 74.92983246 76.7689743 207.3670959
vertex 75.00270844 76.42406464 206.7718353

endloop
endfacet
facet normal -0.9377151728 0.238242358 -0.2528455555
outer loop
vertex 75.00270844 76.42406464 206.7718353
vertex 74.92983246 76.7689743 207.3670959
vertex 75.07299042 76.69512177 206.7665863

endloop
endfacet
facet normal -0.9512811303 0.2429807335 -0.1898011714
outer loop
vertex 75.00270844 76.42406464 206.7718353
vertex 75.07299042 76.69512177 206.7665863
vertex 75.14076996 76.44603729 206.1080017

endloop
endfacet
facet normal -0.9524139166 0.2394628376 -0.1885872483
outer loop
vertex 75.14076996 76.44603729 206.1080017
vertex 75.07299042 76.69512177 206.7665863
vertex 75.20049286 76.7151413 206.1480865

endloop
endfacet
facet normal -0.9580376744 0.236701116 -0.1616679132
outer loop
vertex 75.14076996 76.44603729 206.1080017
vertex 75.20049286 76.7151413 206.1480865
vertex 75.28621674 76.59307098 205.4613647

endloop
endfacet
facet normal -0.9604278803 0.2277267724 -0.1603710204
outer loop
vertex 75.28621674 76.59307098 205.4613647
vertex 75.20049286 76.7151413 206.1480865
vertex 75.33309174 76.853508 205.5504608

endloop
endfacet
facet normal -0.9557687044 0.2332971543 -0.1791050583
outer loop
vertex 75.28621674 76.59307098 205.4613647
vertex 75.33309174 76.853508 205.5504608
vertex 75.45949554 76.8214035 204.8341064

endloop
endfacet
facet normal -0.9610261917 0.2106681466 -0.1790186167
outer loop
vertex 75.45949554 76.8214035 204.8341064
vertex 75.33309174 76.853508 205.5504608
vertex 75.49291229 77.07338715 204.9512482

endloop
endfacet
facet normal -0.9386546016 0.2397266477 -0.247908324
outer loop
vertex 75.45949554 76.8214035 204.8341064
vertex 75.49291229 77.07338715 204.9512482
vertex 75.6838913 77.07787323 204.2324829

endloop
endfacet
facet normal -0.9483615756 0.1942267269 -0.2507714927
outer loop
vertex 75.6838913 77.07787323 204.2324829
vertex 75.49291229 77.07338715 204.9512482
vertex 75.70006561 77.32476044 204.3625336

endloop
endfacet
facet normal -0.927087009 0.2204113901 -0.3031972945
outer loop
vertex 75.68386078 77.07787323 204.2324982
vertex 75.7000351 77.32476044 204.3625183
vertex 75.93264008 77.33461761 203.6584473

endloop
endfacet
facet normal -0.941460669 0.1344564706 -0.3091493249
outer loop
vertex 75.93264008 77.33461761 203.6584473
vertex 75.7000351 77.32476044 204.3625183
vertex 75.92308807 77.58043671 203.7944489

endloop
endfacet
facet normal -0.2267544717 0.464735508 -0.8559225202
outer loop
vertex 75.93264008 77.33461761 203.6584473
vertex 75.92308807 77.58043671 203.7944489
vertex 76.55861664 77.54814911 203.608551

endloop
endfacet
facet normal 0 -0.985270977 0.1710001081
outer loop
vertex 76.55861664 77.54814911 203.608551
vertex 75.92308807 77.58043671 203.7944489
vertex 76.55858612 77.54814911 203.608551

endloop
endfacet
facet normal -0.6316652894 0.4494418502 0.6316652894
outer loop
vertex 72.20198822 74.35625458 213.3141479
vertex 72.20201874 74.35625458 213.3141785
vertex 71.98891449 74.89910126 212.7148285

endloop
endfacet
facet normal -0.9237359166 0.05576348677 0.3789490163
outer loop
vertex 71.98891449 74.89910126 212.7148285
vertex 72.20201874 74.35625458 213.3141785
vertex 72.07424164 75.0561142 212.8997192

endloop
endfacet
facet normal -0.8499688506 0.5241726041 -0.05287698284
outer loop
vertex 71.98891449 74.89910126 212.7148285
vertex 72.07424164 75.0561142 212.8997192
vertex 72.27623749 75.31679535 212.2368927

endloop
endfacet
facet normal -0.8289201856 0.5583924055 -0.03300419077
outer loop
vertex 72.27623749 75.31679535 212.2368927
vertex 72.07424164 75.0561142 212.8997192
vertex 72.37425995 75.4736557 212.428894

endloop
endfacet
facet normal -0.8324879408 0.5533806682 -0.02708817832
outer loop
vertex 72.27623749 75.31679535 212.2368927
vertex 72.37425995 75.4736557 212.428894
vertex 72.48540497 75.6135788 211.8715973

endloop
endfacet
facet normal -0.8347569704 0.5498846769 -0.0284184739
outer loop
vertex 72.48540497 75.6135788 211.8715973
vertex 72.37425995 75.4736557 212.428894
vertex 72.58641815 75.77684784 212.0636444

endloop
endfacet
facet normal -0.8114181161 0.5806322694 -0.06683433056
outer loop
vertex 72.48540497 75.6135788 211.8715973
vertex 72.58641815 75.77684784 212.0636444
vertex 72.72725677 75.90615082 211.4770966

endloop
endfacet
facet normal -0.8149356246 0.5754508376 -0.06882117689
outer loop
vertex 72.72725677 75.90615082 211.4770966
vertex 72.58641815 75.77684784 212.0636444
vertex 72.83031464 76.07448578 211.6642914

endloop
endfacet
facet normal -0.7999058962 0.5929080248 -0.0927940011
outer loop
vertex 72.72725677 75.90615082 211.4770966
vertex 72.83031464 76.07448578 211.6642914
vertex 72.98455048 76.1889267 211.0659637

endloop
endfacet
facet normal -0.8014045358 0.590754807 -0.093592152
outer loop
vertex 72.98455048 76.1889267 211.0659637
vertex 72.83031464 76.07448578 211.6642914
vertex 73.09038544 76.3613205 211.247879

endloop
endfacet
facet normal -0.7835465074 0.6093223691 -0.1215774193
outer loop
vertex 72.98455048 76.1889267 211.0659637
vertex 73.09038544 76.3613205 211.247879
vertex 73.24498749 76.44155121 210.653595

endloop
endfacet
facet normal -0.7843535542 0.6082112193 -0.1219373792
outer loop
vertex 73.24498749 76.44155121 210.653595
vertex 73.09038544 76.3613205 211.247879
vertex 73.35585785 76.61928558 210.8269501

endloop
endfacet
facet normal -0.7566735744 0.6326962113 -0.1647438407
outer loop
vertex 73.24498749 76.44155121 210.653595
vertex 73.35585785 76.61928558 210.8269501
vertex 73.51436615 76.65358734 210.2306519

endloop
endfacet
facet normal -0.7572773099 0.63191998 -0.1649489552
outer loop
vertex 73.51436615 76.65358734 210.2306519
vertex 73.35585785 76.61928558 210.8269501
vertex 73.63341522 76.8380661 210.3908386

endloop
endfacet
facet normal -0.7266731858 0.6533325315 -0.2123736143
outer loop
vertex 73.51436615 76.65358734 210.2306519
vertex 73.63341522 76.8380661 210.3908234
vertex 73.78527069 76.81517792 209.8008118

endloop
endfacet
facet normal -0.72483325 0.6554993391 -0.2119841278
outer loop
vertex 73.78527069 76.81517792 209.8008118
vertex 73.63341522 76.8380661 210.3908234
vertex 73.91591644 77.00579071 209.943512

endloop
endfacet
facet normal -0.6922978163 0.6717768312 -0.2635139525
outer loop
vertex 73.78527069 76.81517792 209.8008118
vertex 73.91591644 77.00579071 209.943512
vertex 74.05330658 76.91823578 209.3593597

endloop
endfacet
facet normal -0.689638555 0.6745863557 -0.263309598
outer loop
vertex 74.05330658 76.91823578 209.3593597
vertex 73.91591644 77.00579071 209.943512
vertex 74.19826508 77.11345673 209.4798431

endloop
endfacet
facet normal -0.6601791978 0.6830814481 -0.31235075
outer loop
vertex 74.05330658 76.9182663 209.3593597
vertex 74.19829559 77.11348724 209.4798431
vertex 74.31047821 76.95796967 208.9026337

endloop
endfacet
facet normal -0.6588855386 0.6842950583 -0.3124262691
outer loop
vertex 74.31047821 76.95796967 208.9026337
vertex 74.19829559 77.11348724 209.4798431
vertex 74.47075653 77.15535736 208.9969482

endloop
endfacet
facet normal -0.6392970681 0.6855424643 -0.3483255804
outer loop
vertex 74.31047821 76.95796967 208.9026337
vertex 74.47075653 77.15535736 208.9969482
vertex 74.54720306 76.9366684 208.426239

endloop
endfacet
facet normal -0.6415920854 0.6836147308 -0.3478942811
outer loop
vertex 74.54720306 76.9366684 208.426239
vertex 74.47075653 77.15535736 208.9969482
vertex 74.72109222 77.1339035 208.4931183

endloop
endfacet
facet normal -0.6370849013 0.6828885674 -0.3574715853
outer loop
vertex 74.54720306 76.9366684 208.426239
vertex 74.72109222 77.1339035 208.4931183
vertex 74.7554245 76.86556244 207.9193115

endloop
endfacet
facet normal -0.6444278955 0.677146554 -0.3552256823
outer loop
vertex 74.7554245 76.86556244 207.9193115
vertex 74.72109222 77.1339035 208.4931183
vertex 74.93874359 77.0616684 207.9605713

endloop
endfacet
facet normal -0.6553720236 0.6812593937 -0.3261488378
outer loop
vertex 74.7554245 76.86556244 207.9193115
vertex 74.93874359 77.0616684 207.9605713
vertex 74.92980194 76.76894379 207.3670959

endloop
endfacet
facet normal -0.6639944315 0.674521327 -0.3226954639
outer loop
vertex 74.92980194 76.76894379 207.3670959
vertex 74.93874359 77.0616684 207.9605713
vertex 75.11714935 76.96465302 207.390686

endloop
endfacet
facet normal -0.6847900152 0.685408473 -0.2475435734
outer loop
vertex 74.92983246 76.7689743 207.3670959
vertex 75.11717987 76.96468353 207.3907166
vertex 75.07299042 76.69512177 206.7665863

endloop
endfacet
facet normal -0.6882994771 0.6824381948 -0.2460122257
outer loop
vertex 75.07299042 76.69512177 206.7665863
vertex 75.11717987 76.96468353 207.3907166
vertex 75.25844574 76.89174652 206.7931519

endloop
endfacet
facet normal -0.713319838 0.6896506548 -0.1247268766
outer loop
vertex 75.07299042 76.69512177 206.7665863
vertex 75.25844574 76.89174652 206.7931519
vertex 75.20049286 76.7151413 206.1480865

endloop
endfacet
facet normal -0.713935554 0.6890528202 -0.1245078519
outer loop
vertex 75.20049286 76.7151413 206.1480865
vertex 75.25844574 76.89174652 206.7931519
vertex 75.37889862 76.91033173 206.2053223

endloop
endfacet
facet normal -0.7370773554 0.6757713556 -0.007080322132
outer loop
vertex 75.20049286 76.7151413 206.1480865
vertex 75.37889862 76.91033173 206.2053223
vertex 75.33309174 76.853508 205.5504608

endloop
endfacet
facet normal -0.745185554 0.6668324471 -0.00573752122
outer loop
vertex 75.33309174 76.853508 205.5504608
vertex 75.37889862 76.91033173 206.2053223
vertex 75.50136566 77.04238129 205.6465912

endloop
endfacet
facet normal -0.7557139397 0.6537786126 0.03833977878
outer loop
vertex 75.33309174 76.853508 205.5504608
vertex 75.50136566 77.04238129 205.6465912
vertex 75.49291229 77.07338715 204.9512482

endloop
endfacet
facet normal -0.7736033201 0.632553041 0.03761079907
outer loop
vertex 75.49291229 77.07338715 204.9512482
vertex 75.50136566 77.04238129 205.6465912
vertex 75.64842987 77.25615692 205.0761414

endloop
endfacet
facet normal -0.7638640404 0.645341754 0.006768453401
outer loop
vertex 75.49291229 77.07338715 204.9512482
vertex 75.64842987 77.25615692 205.0761414
vertex 75.70006561 77.32476044 204.3625336

endloop
endfacet
facet normal -0.7931261659 0.609056294 0.001162746106
outer loop
vertex 75.70006561 77.32476044 204.3625336
vertex 75.64842987 77.25615692 205.0761414
vertex 75.83782196 77.5038681 204.5100403

endloop
endfacet
facet normal -0.7817521691 0.6230239272 -0.02654554881
outer loop
vertex 75.7000351 77.32476044 204.3625183
vertex 75.83779144 77.50389862 204.5100403
vertex 75.92308807 77.58043671 203.7944489

endloop
endfacet
facet normal -0.8346691132 0.5492424369 -0.04074461758
outer loop
vertex 75.92308807 77.58043671 203.7944489
vertex 75.83779144 77.50389862 204.5100403
vertex 76.03481293 77.76238251 203.958374

endloop
endfacet
facet normal -0.1629879475 0.713770628 -0.681150794
outer loop
vertex 75.92308807 77.58043671 203.7944489
vertex 76.03481293 77.76238251 203.958374
vertex 76.55858612 77.54814911 203.608551

endloop
endfacet
facet normal 0.1629312187 0.9311416745 -0.326233983
outer loop
vertex 76.55858612 77.54814911 203.608551
vertex 76.03481293 77.76238251 203.958374
vertex 76.55864716 77.54814911 203.6085815

endloop
endfacet
facet normal 0 -0.5095545053 -0.8604383469
outer loop
vertex 72.20201874 74.35625458 213.3141785
vertex 72.20198822 74.35625458 213.3141785
vertex 72.07424164 75.0561142 212.8997192

endloop
endfacet
facet normal -0.7351290584 0.2410501987 0.6336244941
outer loop
vertex 72.07424164 75.0561142 212.8997192
vertex 72.20198822 74.35625458 213.3141785
vertex 72.26873016 75.14495087 213.091568

endloop
endfacet
facet normal -0.6090278029 0.7448719144 0.2724905908
outer loop
vertex 72.07424164 75.0561142 212.8997192
vertex 72.26873016 75.14495087 213.091568
vertex 72.37425995 75.4736557 212.428894

endloop
endfacet
facet normal -0.5901762247 0.7566631436 0.2813414335
outer loop
vertex 72.37425995 75.4736557 212.428894
vertex 72.26873016 75.14495087 213.091568
vertex 72.58013153 75.56090546 212.6260986

endloop
endfacet
facet normal -0.5913350582 0.7550366521 0.2832709253
outer loop
vertex 72.37425995 75.4736557 212.428894
vertex 72.58013153 75.56090546 212.6260986
vertex 72.58641815 75.77684784 212.0636444

endloop
endfacet
facet normal -0.5953851342 0.7522642612 0.2821612358
outer loop
vertex 72.58641815 75.77684784 212.0636444
vertex 72.58013153 75.56090546 212.6260986
vertex 72.79601288 75.86763763 212.263855

endloop
endfacet
facet normal -0.5690407753 0.7868404984 0.2389027625
outer loop
vertex 72.58641815 75.77684784 212.0636444
vertex 72.79601288 75.86763763 212.263855
vertex 72.83031464 76.07448578 211.6642914

endloop
endfacet
facet normal -0.5745189786 0.7833148241 0.2373730093
outer loop
vertex 72.83031464 76.07448578 211.6642914
vertex 72.79601288 75.86763763 212.263855
vertex 73.04024506 76.16808319 211.8635254

endloop
endfacet
facet normal -0.5557773709 0.8050396442 0.2074190974
outer loop
vertex 72.83031464 76.07448578 211.6642914
vertex 73.04024506 76.16808319 211.8635254
vertex 73.09038544 76.3613205 211.247879

endloop
endfacet
facet normal -0.5580411553 0.8036333919 0.2067933232
outer loop
vertex 73.09038544 76.3613205 211.247879
vertex 73.04024506 76.16808319 211.8635254
vertex 73.30147552 76.45720673 211.4448853

endloop
endfacet
facet normal -0.534707427 0.8277497888 0.1700536162
outer loop
vertex 73.09038544 76.3613205 211.247879
vertex 73.30147552 76.45720673 211.4448853
vertex 73.35585785 76.61928558 210.8269501

endloop
endfacet
facet normal -0.5361678004 0.8268780112 0.1696964204
outer loop
vertex 73.35585785 76.61928558 210.8269501
vertex 73.30147552 76.45720673 211.4448853
vertex 73.56938934 76.71816254 211.0198212

endloop
endfacet
facet normal -0.4996387362 0.8588497639 0.1128637642
outer loop
vertex 73.35585785 76.61928558 210.8269501
vertex 73.56938934 76.71816254 211.0198212
vertex 73.63341522 76.8380661 210.3908386

endloop
endfacet
facet normal -0.5000426769 0.8586256504 0.1127799377
outer loop
vertex 73.63341522 76.8380661 210.3908386
vertex 73.56938934 76.71816254 211.0198212
vertex 73.85137177 76.94060516 210.5765533

endloop
endfacet
facet normal -0.4563900828 0.8886425495 0.04497193545
outer loop
vertex 73.63341522 76.8380661 210.3908234
vertex 73.85137177 76.94060516 210.5765533
vertex 73.91591644 77.00579071 209.943512

endloop
endfacet
facet normal -0.453776598 0.8899595141 0.04537402466
outer loop
vertex 73.91591644 77.00579071 209.943512
vertex 73.85137177 76.94060516 210.5765533
vertex 74.14122772 77.11177826 210.117981

endloop
endfacet
facet normal -0.4039337635 0.914167285 -0.03369948268
outer loop
vertex 73.91591644 77.00579071 209.943512
vertex 74.14122772 77.11177826 210.117981
vertex 74.19826508 77.11345673 209.4798431

endloop
endfacet
facet normal -0.4000120759 0.9159030914 -0.03334439173
outer loop
vertex 74.19826508 77.11345673 209.4798431
vertex 74.14122772 77.11177826 210.117981
vertex 74.43358612 77.22200775 209.6385193

endloop
endfacet
facet normal -0.3498685956 0.9294874668 -0.1168117002
outer loop
vertex 74.19829559 77.11348724 209.4798431
vertex 74.43361664 77.22200775 209.6385345
vertex 74.47075653 77.15535736 208.9969482

endloop
endfacet
facet normal -0.3478682041 0.9302426577 -0.116774343
outer loop
vertex 74.47075653 77.15535736 208.9969482
vertex 74.43361664 77.22200775 209.6385345
vertex 74.71788788 77.26512909 209.1352081

endloop
endfacet
facet normal -0.3066416085 0.9322474599 -0.1920561492
outer loop
vertex 74.47075653 77.15535736 208.9969482
vertex 74.71788788 77.26512909 209.1352081
vertex 74.72109222 77.1339035 208.4931183

endloop
endfacet
facet normal -0.3097452223 0.9312592745 -0.1918696612
outer loop
vertex 74.72109222 77.1339035 208.4931183
vertex 74.71788788 77.26512909 209.1352081
vertex 74.98018646 77.24358368 208.607193

endloop
endfacet
facet normal -0.2856952846 0.9271259308 -0.2425194383
outer loop
vertex 74.72109222 77.1339035 208.4931183
vertex 74.98018646 77.24358368 208.607193
vertex 74.93874359 77.0616684 207.9605713

endloop
endfacet
facet normal -0.2956011891 0.9243832231 -0.2411129773
outer loop
vertex 74.93874359 77.0616684 207.9605713
vertex 74.98018646 77.24358368 208.607193
vertex 75.20818329 77.1707077 208.0482788

endloop
endfacet
facet normal -0.2926559746 0.9232842922 -0.2487944216
outer loop
vertex 74.93874359 77.0616684 207.9605713
vertex 75.20818329 77.1707077 208.0482788
vertex 75.11714935 76.96465302 207.390686

endloop
endfacet
facet normal -0.3053545058 0.919919312 -0.2459821105
outer loop
vertex 75.11714935 76.96465302 207.390686
vertex 75.20818329 77.1707077 208.0482788
vertex 75.39360809 77.0734787 207.454483

endloop
endfacet
facet normal -0.3215425611 0.9277889132 -0.1892567277
outer loop
vertex 75.11717987 76.96468353 207.3907166
vertex 75.39363861 77.07350922 207.4545135
vertex 75.25844574 76.89174652 206.7931519

endloop
endfacet
facet normal -0.3268533051 0.9262390137 -0.1877451688
outer loop
vertex 75.25844574 76.89174652 206.7931519
vertex 75.39363861 77.07350922 207.4545135
vertex 75.53694916 77.00102997 206.8474426

endloop
endfacet
facet normal -0.3575250804 0.9328774214 -0.04376642779
outer loop
vertex 75.25844574 76.89174652 206.7931519
vertex 75.53694916 77.00102997 206.8474426
vertex 75.37889862 76.91033173 206.2053223

endloop
endfacet
facet normal -0.3568488955 0.9331268668 -0.04396809265
outer loop
vertex 75.37889862 76.91033173 206.2053223
vertex 75.53694916 77.00102997 206.8474426
vertex 75.65422821 77.01885223 206.2738342

endloop
endfacet
facet normal -0.3913373947 0.9110832214 0.1295474768
outer loop
vertex 75.37889862 76.91033173 206.2053223
vertex 75.65422821 77.01885223 206.2738342
vertex 75.50136566 77.04238129 205.6465912

endloop
endfacet
facet normal -0.4009080529 0.9066006541 0.1317117512
outer loop
vertex 75.50136566 77.04238129 205.6465912
vertex 75.65422821 77.01885223 206.2738342
vertex 75.76988983 77.14739227 205.7411194

endloop
endfacet
facet normal -0.4216697216 0.8794401288 0.2208614051
outer loop
vertex 75.50136566 77.04238129 205.6465912
vertex 75.76988983 77.14739227 205.7411194
vertex 75.64842987 77.25615692 205.0761414

endloop
endfacet
facet normal -0.4467375875 0.8663503528 0.2232991457
outer loop
vertex 75.64842987 77.25615692 205.0761414
vertex 75.76988983 77.14739227 205.7411194
vertex 75.90618134 77.35774994 205.1976471

endloop
endfacet
facet normal -0.4482459426 0.8642849922 0.2282256931
outer loop
vertex 75.64842987 77.25615692 205.0761414
vertex 75.90618134 77.35774994 205.1976471
vertex 75.83782196 77.5038681 204.5100403

endloop
endfacet
facet normal -0.4906588197 0.8411232829 0.2275203019
outer loop
vertex 75.83782196 77.5038681 204.5100403
vertex 75.90618134 77.35774994 205.1976471
vertex 76.07884979 77.603508 204.6614685

endloop
endfacet
facet normal -0.4879767895 0.8443278074 0.221335277
outer loop
vertex 75.83779144 77.50389862 204.5100403
vertex 76.07881927 77.603508 204.6614532
vertex 76.03481293 77.76238251 203.958374

endloop
endfacet
facet normal -0.5497955084 0.8067002296 0.216701895
outer loop
vertex 76.03481293 77.76238251 203.958374
vertex 76.07881927 77.603508 204.6614532
vertex 76.25539398 77.86528778 204.1349335

endloop
endfacet
facet normal 0.009261777624 0.8588514924 -0.5121409893
outer loop
vertex 76.03481293 77.76238251 203.958374
vertex 76.25539398 77.86528778 204.1349335
vertex 76.55864716 77.54814911 203.6085815

endloop
endfacet
facet normal -0.7073110938 -0.7066549659 0.01869978383
outer loop
vertex 76.55864716 77.54814911 203.6085815
vertex 76.25539398 77.86528778 204.1349335
vertex 76.55861664 77.54817963 203.6085815

endloop
endfacet
facet normal 0.9964385629 -0.08432174474 0
outer loop
vertex 72.20198822 74.35625458 213.3141785
vertex 72.20198822 74.35625458 213.3141632
vertex 72.26873016 75.14495087 213.091568

endloop
endfacet
facet normal -0.3589190543 0.2815303206 0.8898975849
outer loop
vertex 72.26873016 75.14495087 213.091568
vertex 72.20198822 74.35625458 213.3141632
vertex 72.53423309 75.10100555 213.2125549

endloop
endfacet
facet normal -0.1452273577 0.7840412259 0.6034802198
outer loop
vertex 72.26873016 75.14495087 213.091568
vertex 72.53423309 75.10100555 213.2125549
vertex 72.58013153 75.56090546 212.6260986

endloop
endfacet
facet normal -0.09534150362 0.7869214416 0.6096431017
outer loop
vertex 72.58013153 75.56090546 212.6260986
vertex 72.53423309 75.10100555 213.2125549
vertex 72.84944916 75.50545502 212.7397919

endloop
endfacet
facet normal -0.09530364722 0.7869752049 0.6095796227
outer loop
vertex 72.58013153 75.56090546 212.6260986
vertex 72.84944916 75.50545502 212.7397919
vertex 72.79601288 75.86763763 212.263855

endloop
endfacet
facet normal -0.1003892198 0.7862989902 0.6096359491
outer loop
vertex 72.79601288 75.86763763 212.263855
vertex 72.84944916 75.50545502 212.7397919
vertex 73.06819916 75.80968475 212.3834229

endloop
endfacet
facet normal -0.07542683929 0.8190798163 0.5686994791
outer loop
vertex 72.79601288 75.86763763 212.263855
vertex 73.06819916 75.80968475 212.3834229
vertex 73.04024506 76.16808319 211.8635254

endloop
endfacet
facet normal -0.08150286227 0.8185325861 0.5686489344
outer loop
vertex 73.04024506 76.16808319 211.8635254
vertex 73.06819916 75.80968475 212.3834229
vertex 73.31035614 76.10832977 211.9882507

endloop
endfacet
facet normal -0.06364623457 0.8393015265 0.5399278998
outer loop
vertex 73.04024506 76.16808319 211.8635254
vertex 73.31035614 76.10832977 211.9882507
vertex 73.30147552 76.45720673 211.4448853

endloop
endfacet
facet normal -0.06630332023 0.8391361833 0.5398651361
outer loop
vertex 73.30147552 76.45720673 211.4448853
vertex 73.31035614 76.10832977 211.9882507
vertex 73.56972504 76.39601898 211.572937

endloop
endfacet
facet normal -0.04311092943 0.8633089662 0.502831161
outer loop
vertex 73.30147552 76.45720673 211.4448853
vertex 73.56972504 76.39601898 211.572937
vertex 73.56938934 76.71816254 211.0198212

endloop
endfacet
facet normal -0.04524856061 0.8632266521 0.5027844906
outer loop
vertex 73.56938934 76.71816254 211.0198212
vertex 73.56972504 76.39601898 211.572937
vertex 73.83513641 76.6550827 211.1520386

endloop
endfacet
facet normal -0.008373649791 0.8958678842 0.4442415833
outer loop
vertex 73.56938934 76.71816254 211.0198212
vertex 73.83513641 76.6550827 211.1520386
vertex 73.85137177 76.94060516 210.5765533

endloop
endfacet
facet normal -0.008992338553 0.8958700299 0.4442251623
outer loop
vertex 73.85137177 76.94060516 210.5765533
vertex 73.83513641 76.6550827 211.1520386
vertex 74.11397552 76.87517548 210.7138214

endloop
endfacet
facet normal 0.03770091012 0.9281526804 0.3702852428
outer loop
vertex 73.85137177 76.94060516 210.5765533
vertex 74.11397552 76.87517548 210.7138214
vertex 74.14122772 77.11177826 210.117981

endloop
endfacet
facet normal 0.04116171226 0.9279712439 0.3703715205
outer loop
vertex 74.14122772 77.11177826 210.117981
vertex 74.11397552 76.87517548 210.7138214
vertex 74.4016037 77.04418182 210.2584076

endloop
endfacet
facet normal 0.09749559313 0.9553065896 0.279076755
outer loop
vertex 74.14122772 77.11177826 210.117981
vertex 74.4016037 77.04418182 210.2584076
vertex 74.43358612 77.22200775 209.6385193

endloop
endfacet
facet normal 0.1025616378 0.9547465444 0.2791774869
outer loop
vertex 74.43358612 77.22200775 209.6385193
vertex 74.4016037 77.04418182 210.2584076
vertex 74.69298553 77.15276337 209.7800293

endloop
endfacet
facet normal 0.1634343117 0.9708226919 0.1754782647
outer loop
vertex 74.43361664 77.22200775 209.6385345
vertex 74.69301605 77.15276337 209.7800293
vertex 74.71788788 77.26512909 209.1352081

endloop
endfacet
facet normal 0.1670991778 0.97019279 0.1755098552
outer loop
vertex 74.71788788 77.26512909 209.1352081
vertex 74.69301605 77.15276337 209.7800293
vertex 74.97841644 77.19512177 209.2741547

endloop
endfacet
facet normal 0.2232420743 0.9721570015 0.07123007625
outer loop
vertex 74.71788788 77.26512909 209.1352081
vertex 74.97841644 77.19512177 209.2741547
vertex 74.98018646 77.24358368 208.607193

endloop
endfacet
facet normal 0.2218323499 0.9724782109 0.07124967873
outer loop
vertex 74.98018646 77.24358368 208.607193
vertex 74.97841644 77.19512177 209.2741547
vertex 75.24480438 77.17363739 208.7380066

endloop
endfacet
facet normal 0.2638672292 0.9643890858 -0.01810636744
outer loop
vertex 74.98018646 77.24358368 208.607193
vertex 75.24480438 77.17363739 208.7380066
vertex 75.20818329 77.1707077 208.0482788

endloop
endfacet
facet normal 0.2553034127 0.9666996598 -0.01766148768
outer loop
vertex 75.20818329 77.1707077 208.0482788
vertex 75.24480438 77.17363739 208.7380066
vertex 75.47963715 77.10112762 208.1637878

endloop
endfacet
facet normal 0.2758455873 0.9585892558 -0.07082244009
outer loop
vertex 75.20818329 77.1707077 208.0482788
vertex 75.47963715 77.10112762 208.1637878
vertex 75.39360809 77.0734787 207.454483

endloop
endfacet
facet normal 0.2621923983 0.9625226855 -0.06931982189
outer loop
vertex 75.39360809 77.0734787 207.454483
vertex 75.47963715 77.10112762 208.1637878
vertex 75.6733017 77.00402069 207.5479431

endloop
endfacet
facet normal 0.2576076984 0.9647189379 -0.05436629802
outer loop
vertex 75.39363861 77.07350922 207.4545135
vertex 75.67336273 77.00408173 207.5479736
vertex 75.53694916 77.00102997 206.8474426

endloop
endfacet
facet normal 0.2482367903 0.9672728181 -0.05255263671
outer loop
vertex 75.53694916 77.00102997 206.8474426
vertex 75.67336273 77.00408173 207.5479736
vertex 75.8234787 76.9312973 206.9174042

endloop
endfacet
facet normal 0.218499437 0.9729580879 0.07490427792
outer loop
vertex 75.53694916 77.00102997 206.8474426
vertex 75.8234787 76.9312973 206.9174042
vertex 75.65422821 77.01885223 206.2738342

endloop
endfacet
facet normal 0.2181200534 0.9730346799 0.07501447946
outer loop
vertex 75.65422821 77.01885223 206.2738342
vertex 75.8234787 76.9312973 206.9174042
vertex 75.94475555 76.94960785 206.3272552

endloop
endfacet
facet normal 0.1767086685 0.9473683238 0.2669592798
outer loop
vertex 75.65422821 77.01885223 206.2738342
vertex 75.94475555 76.94960785 206.3272552
vertex 75.76988983 77.14739227 205.7411194

endloop
endfacet
facet normal 0.1733097881 0.9476801753 0.2680785358
outer loop
vertex 75.76988983 77.14739227 205.7411194
vertex 75.94475555 76.94960785 206.3272552
vertex 76.0616684 77.08034515 205.789505

endloop
endfacet
facet normal 0.1446823031 0.9100127816 0.3885150254
outer loop
vertex 75.76988983 77.14739227 205.7411194
vertex 76.0616684 77.08034515 205.789505
vertex 75.90618134 77.35774994 205.1976471

endloop
endfacet
facet normal 0.1223107204 0.9106388688 0.3946857154
outer loop
vertex 75.90618134 77.35774994 205.1976471
vertex 76.0616684 77.08034515 205.789505
vertex 76.19493866 77.29286957 205.2578583

endloop
endfacet
facet normal 0.1077020168 0.8901788592 0.4426983297
outer loop
vertex 75.90618134 77.35774994 205.1976471
vertex 76.19493866 77.29286957 205.2578583
vertex 76.07884979 77.603508 204.6614685

endloop
endfacet
facet normal 0.06032313406 0.8900502324 0.4518537521
outer loop
vertex 76.07884979 77.603508 204.6614685
vertex 76.19493866 77.29286957 205.2578583
vertex 76.36031342 77.54018402 204.7486267

endloop
endfacet
facet normal 0.0569108054 0.886241138 0.4597149491
outer loop
vertex 76.07881927 77.603508 204.6614532
vertex 76.3602829 77.54021454 204.7486267
vertex 76.25539398 77.86528778 204.1349335

endloop
endfacet
facet normal -0.04347362742 0.8797546625 0.4734361768
outer loop
vertex 76.25539398 77.86528778 204.1349335
vertex 76.3602829 77.54021454 204.7486267
vertex 76.5354538 77.8144455 204.255127

endloop
endfacet
facet normal 0.3114180267 0.8825534582 -0.3523040116
outer loop
vertex 76.25539398 77.86528778 204.1349335
vertex 76.5354538 77.8144455 204.255127
vertex 76.55861664 77.54817963 203.6085815

endloop
endfacet
facet normal 0.9987308979 -0.02254739404 0.04503545165
outer loop
vertex 76.55861664 77.54817963 203.6085815
vertex 76.5354538 77.8144455 204.255127
vertex 76.55861664 77.54814911 203.6085663

endloop
endfacet
facet normal -nan(ind) -nan(ind) -nan(ind)
outer loop
vertex 72.20198822 74.35625458 213.3141632
vertex 72.20198822 74.35625458 213.3141632
vertex 72.53423309 75.10100555 213.2125549

endloop
endfacet
facet normal -0.01152160764 0.140215531 0.9900539517
outer loop
vertex 72.53423309 75.10100555 213.2125549
vertex 72.20198822 74.35625458 213.3141632
vertex 72.77574921 74.95891571 213.2354889

endloop
endfacet
facet normal 0.2955033481 0.6196420789 0.7271323204
outer loop
vertex 72.53423309 75.10100555 213.2125549
vertex 72.77574921 74.95891571 213.2354889
vertex 72.84944916 75.50545502 212.7397919

endloop
endfacet
facet normal 0.3177233636 0.6131386161 0.7232654691
outer loop
vertex 72.84944916 75.50545502 212.7397919
vertex 72.77574921 74.95891571 213.2354889
vertex 73.08531952 75.3615036 212.7582092

endloop
endfacet
facet normal 0.3191016614 0.6151052117 0.7209851742
outer loop
vertex 72.84944916 75.50545502 212.7397919
vertex 73.08531952 75.3615036 212.7582092
vertex 73.06819916 75.80968475 212.3834229

endloop
endfacet
facet normal 0.3135279119 0.6161732078 0.7225170135
outer loop
vertex 73.06819916 75.80968475 212.3834229
vertex 73.08531952 75.3615036 212.7582092
vertex 73.30556488 75.65981293 212.4082336

endloop
endfacet
facet normal 0.3335363567 0.6424661279 0.689920783
outer loop
vertex 73.06819916 75.80968475 212.3834229
vertex 73.30556488 75.65981293 212.4082336
vertex 73.31035614 76.10832977 211.9882507

endloop
endfacet
facet normal 0.3277220726 0.643891573 0.6913768053
outer loop
vertex 73.31035614 76.10832977 211.9882507
vertex 73.30556488 75.65981293 212.4082336
vertex 73.54433441 75.95381927 212.0212402

endloop
endfacet
facet normal 0.3410746753 0.6595166326 0.6698550582
outer loop
vertex 73.31035614 76.10832977 211.9882507
vertex 73.54433441 75.95381927 212.0212402
vertex 73.56972504 76.39601898 211.572937

endloop
endfacet
facet normal 0.3385609388 0.6602355838 0.6704218388
outer loop
vertex 73.56972504 76.39601898 211.572937
vertex 73.54433441 75.95381927 212.0212402
vertex 73.80019379 76.23781586 211.6123505

endloop
endfacet
facet normal 0.3560682833 0.6787320375 0.6422913671
outer loop
vertex 73.56972504 76.39601898 211.572937
vertex 73.80019379 76.23781586 211.6123505
vertex 73.83513641 76.6550827 211.1520386

endloop
endfacet
facet normal 0.3540277183 0.6793852448 0.6427285671
outer loop
vertex 73.83513641 76.6550827 211.1520386
vertex 73.80019379 76.23781586 211.6123505
vertex 74.06026459 76.49193573 211.2004852

endloop
endfacet
facet normal 0.3823364675 0.7049744129 0.5973525643
outer loop
vertex 73.83513641 76.6550827 211.1520386
vertex 74.06026459 76.49193573 211.2004852
vertex 74.11397552 76.87517548 210.7138214

endloop
endfacet
facet normal 0.3818190694 0.7051715255 0.5974506736
outer loop
vertex 74.11397552 76.87517548 210.7138214
vertex 74.06026459 76.49193573 211.2004852
vertex 74.33138275 76.70586395 210.7747192

endloop
endfacet
facet normal 0.4197048247 0.7319737673 0.5367143154
outer loop
vertex 74.11397552 76.87517548 210.7138214
vertex 74.33138275 76.70586395 210.7747192
vertex 74.4016037 77.04418182 210.2584076

endloop
endfacet
facet normal 0.4227858484 0.7305674553 0.5362119079
outer loop
vertex 74.4016037 77.04418182 210.2584076
vertex 74.33138275 76.70586395 210.7747192
vertex 74.61043549 76.86922455 210.3321228

endloop
endfacet
facet normal 0.4704403281 0.7544026375 0.4577799141
outer loop
vertex 74.4016037 77.04418182 210.2584076
vertex 74.61043549 76.86922455 210.3321228
vertex 74.69298553 77.15276337 209.7800293

endloop
endfacet
facet normal 0.4751451015 0.7518257499 0.4571599364
outer loop
vertex 74.69298553 77.15276337 209.7800293
vertex 74.61043549 76.86922455 210.3321228
vertex 74.89299774 76.97356415 209.8668518

endloop
endfacet
facet normal 0.5293907523 0.7668537498 0.3628785014
outer loop
vertex 74.69301605 77.15276337 209.7800293
vertex 74.89302826 76.97359467 209.8668671
vertex 74.97841644 77.19512177 209.2741547

endloop
endfacet
facet normal 0.5332804322 0.7643347979 0.3624974191
outer loop
vertex 74.97841644 77.19512177 209.2741547
vertex 74.89302826 76.97359467 209.8668671
vertex 75.17140961 77.01390839 209.3723297

endloop
endfacet
facet normal 0.586935997 0.7664414048 0.2609095275
outer loop
vertex 74.97841644 77.19512177 209.2741547
vertex 75.17140961 77.01390839 209.3723297
vertex 75.24480438 77.17363739 208.7380066

endloop
endfacet
facet normal 0.5871437788 0.7662872672 0.2608947754
outer loop
vertex 75.24480438 77.17363739 208.7380066
vertex 75.17140961 77.01390839 209.3723297
vertex 75.43480682 76.9925766 208.8422089

endloop
endfacet
facet normal 0.6323395967 0.757356286 0.1629663408
outer loop
vertex 75.24480438 77.17363739 208.7380066
vertex 75.43480682 76.9925766 208.8422089
vertex 75.47963715 77.10112762 208.1637878

endloop
endfacet
facet normal 0.6265687943 0.7620580792 0.1633373201
outer loop
vertex 75.47963715 77.10112762 208.1637878
vertex 75.43480682 76.9925766 208.8422089
vertex 75.67198944 76.92119598 208.2653961

endloop
endfacet
facet normal 0.6553671956 0.750189662 0.08780261129
outer loop
vertex 75.47963715 77.10112762 208.1637878
vertex 75.67198944 76.92119598 208.2653961
vertex 75.6733017 77.00402069 207.5479431

endloop
endfacet
facet normal 0.6457392573 0.758384943 0.08873108029
outer loop
vertex 75.6733017 77.00402069 207.5479431
vertex 75.67198944 76.92119598 208.2653961
vertex 75.87227631 76.82436371 207.635437

endloop
endfacet
facet normal 0.6520205736 0.7551404834 0.06805949658
outer loop
vertex 75.67336273 77.00408173 207.5479736
vertex 75.87233734 76.82439423 207.6354523
vertex 75.8234787 76.9312973 206.9174042

endloop
endfacet
facet normal 0.6433193684 0.7624154091 0.06973465532
outer loop
vertex 75.8234787 76.9312973 206.9174042
vertex 75.87233734 76.82439423 207.6354523
vertex 76.03075409 76.75084686 206.9781189

endloop
endfacet
facet normal 0.6233133674 0.7670783401 0.151892364
outer loop
vertex 75.8234787 76.9312973 206.9174042
vertex 76.03075409 76.75084686 206.9781189
vertex 75.94475555 76.94960785 206.3272552

endloop
endfacet
facet normal 0.6209299564 0.7688400149 0.1527452469
outer loop
vertex 75.94475555 76.94960785 206.3272552
vertex 76.03075409 76.75084686 206.9781189
vertex 76.16005707 76.77046967 206.353714

endloop
endfacet
facet normal 0.5854392052 0.7493310571 0.3094575703
outer loop
vertex 75.94475555 76.94960785 206.3272552
vertex 76.16005707 76.77046967 206.353714
vertex 76.0616684 77.08034515 205.789505

endloop
endfacet
facet normal 0.5846725702 0.7497738004 0.3098344207
outer loop
vertex 76.0616684 77.08034515 205.789505
vertex 76.16005707 76.77046967 206.353714
vertex 76.28383636 76.90703583 205.7896576

endloop
endfacet
facet normal 0.5566053391 0.7138953209 0.4249045849
outer loop
vertex 76.0616684 77.08034515 205.789505
vertex 76.28383636 76.90703583 205.7896576
vertex 76.19493866 77.29286957 205.2578583

endloop
endfacet
facet normal 0.5408491492 0.7212018371 0.4328395128
outer loop
vertex 76.19493866 77.29286957 205.2578583
vertex 76.28383636 76.90703583 205.7896576
vertex 76.42067719 77.12517548 205.2552032

endloop
endfacet
facet normal 0.5189042091 0.690536201 0.503883183
outer loop
vertex 76.19493866 77.29286957 205.2578583
vertex 76.42067719 77.12517548 205.2552032
vertex 76.36031342 77.54018402 204.7486267

endloop
endfacet
facet normal 0.4783088863 0.7064137459 0.5217280388
outer loop
vertex 76.36031342 77.54018402 204.7486267
vertex 76.42067719 77.12517548 205.2552032
vertex 76.58782196 77.37581635 204.7626038

endloop
endfacet
facet normal 0.4664691091 0.6924610734 0.5503672361
outer loop
vertex 76.3602829 77.54021454 204.7486267
vertex 76.58779144 77.37584686 204.7626038
vertex 76.5354538 77.8144455 204.255127

endloop
endfacet
facet normal 0.4029869139 0.7125832438 0.5743054152
outer loop
vertex 76.5354538 77.8144455 204.255127
vertex 76.58779144 77.37584686 204.7626038
vertex 76.77742767 77.64983368 204.2895813

endloop
endfacet
facet normal 0.5656713247 0.7694299221 -0.2966370583
outer loop
vertex 76.5354538 77.8144455 204.255127
vertex 76.77742767 77.64983368 204.2895813
vertex 76.55861664 77.54814911 203.6085663

endloop
endfacet
facet normal 0 0.9890246987 -0.1477506459
outer loop
vertex 76.55861664 77.54814911 203.6085663
vertex 76.77742767 77.64983368 204.2895813
vertex 76.55864716 77.54814911 203.6085663

endloop
endfacet
facet normal -0.7242591381 0.6895278096 0
outer loop
vertex 72.20198822 74.35625458 213.3141632
vertex 72.20198822 74.35625458 213.3141785
vertex 72.77574921 74.95891571 213.2354889

endloop
endfacet
facet normal 0.2567048669 -0.1191628873 0.9591156244
outer loop
vertex 72.77574921 74.95891571 213.2354889
vertex 72.20198822 74.35625458 213.3141785
vertex 72.92971039 74.77635956 213.1716003

endloop
endfacet
facet normal 0.6552582383 0.311829865 0.6880398393
outer loop
vertex 72.77574921 74.95891571 213.2354889
vertex 72.92971039 74.77635956 213.1716003
vertex 73.08531952 75.3615036 212.7582092

endloop
endfacet
facet normal 0.6410121918 0.3218121827 0.6968070865
outer loop
vertex 73.08531952 75.3615036 212.7582092
vertex 72.92971039 74.77635956 213.1716003
vertex 73.23339081 75.19036102 212.7010345

endloop
endfacet
facet normal 0.6466232538 0.3296402693 0.6879066825
outer loop
vertex 73.08531952 75.3615036 212.7582092
vertex 73.23339081 75.19036102 212.7010345
vertex 73.30556488 75.65981293 212.4082336

endloop
endfacet
facet normal 0.6416208148 0.3324750066 0.691218555
outer loop
vertex 73.30556488 75.65981293 212.4082336
vertex 73.23339081 75.19036102 212.7010345
vertex 73.45366669 75.481987 212.3562927

endloop
endfacet
facet normal 0.6549373865 0.349808991 0.6698437929
outer loop
vertex 73.30556488 75.65981293 212.4082336
vertex 73.45366669 75.481987 212.3562927
vertex 73.54433441 75.95381927 212.0212402

endloop
endfacet
facet normal 0.6502690911 0.352812469 0.6728101969
outer loop
vertex 73.54433441 75.95381927 212.0212402
vertex 73.45366669 75.481987 212.3562927
vertex 73.6891098 75.77040863 211.9774933

endloop
endfacet
facet normal 0.6571164131 0.3608413339 0.6618093848
outer loop
vertex 73.54433441 75.95381927 212.0212402
vertex 73.6891098 75.77040863 211.9774933
vertex 73.80019379 76.23781586 211.6123505

endloop
endfacet
facet normal 0.65508461 0.3622820377 0.663035512
outer loop
vertex 73.80019379 76.23781586 211.6123505
vertex 73.6891098 75.77040863 211.9774933
vertex 73.94121552 76.04998016 211.5756531

endloop
endfacet
facet normal 0.6640366912 0.3718027174 0.6487048864
outer loop
vertex 73.80019379 76.23781586 211.6123505
vertex 73.94121552 76.04998016 211.5756531
vertex 74.06026459 76.49193573 211.2004852

endloop
endfacet
facet normal 0.6626220942 0.3728841543 0.6495300531
outer loop
vertex 74.06026459 76.49193573 211.2004852
vertex 73.94121552 76.04998016 211.5756531
vertex 74.19521332 76.29827118 211.173996

endloop
endfacet
facet normal 0.6775634885 0.386557132 0.6256846189
outer loop
vertex 74.06026459 76.49193573 211.2004852
vertex 74.19521332 76.29827118 211.173996
vertex 74.33138275 76.70586395 210.7747192

endloop
endfacet
facet normal 0.6769877076 0.387057066 0.6259986758
outer loop
vertex 74.33138275 76.70586395 210.7747192
vertex 74.19521332 76.29827118 211.173996
vertex 74.45723724 76.50493622 210.7628479

endloop
endfacet
facet normal 0.6995524168 0.403278321 0.5899094343
outer loop
vertex 74.33138275 76.70586395 210.7747192
vertex 74.45723724 76.50493622 210.7628326
vertex 74.61043549 76.86922455 210.3321228

endloop
endfacet
facet normal 0.7015907168 0.4012186229 0.5888922811
outer loop
vertex 74.61043549 76.86922455 210.3321228
vertex 74.45723724 76.50493622 210.7628326
vertex 74.72527313 76.66158295 210.3367767

endloop
endfacet
facet normal 0.7323244214 0.4170817733 0.5382785201
outer loop
vertex 74.61043549 76.86922455 210.3321228
vertex 74.72527313 76.66158295 210.3367767
vertex 74.89299774 76.97356415 209.8668518

endloop
endfacet
facet normal 0.73526299 0.4135592878 0.5369887948
outer loop
vertex 74.89299774 76.97356415 209.8668518
vertex 74.72527313 76.66158295 210.3367767
vertex 74.99565887 76.76094818 209.8900299

endloop
endfacet
facet normal 0.7736571431 0.424775362 0.470128268
outer loop
vertex 74.89302826 76.97359467 209.8668671
vertex 74.99568939 76.7609787 209.8900299
vertex 75.17140961 77.01390839 209.3723297

endloop
endfacet
facet normal 0.7762801647 0.4210182428 0.4691829979
outer loop
vertex 75.17140961 77.01390839 209.3723297
vertex 74.99568939 76.7609787 209.8900299
vertex 75.26277924 76.79888153 209.4141083

endloop
endfacet
facet normal 0.8180431128 0.4232672453 0.3894229829
outer loop
vertex 75.17140961 77.01390839 209.3723297
vertex 75.26277924 76.79888153 209.4141083
vertex 75.43480682 76.9925766 208.8422089

endloop
endfacet
facet normal 0.8182970881 0.4228392839 0.3893544376
outer loop
vertex 75.43480682 76.9925766 208.8422089
vertex 75.26277924 76.79888153 209.4141083
vertex 75.51888275 76.77767181 208.8988953

endloop
endfacet
facet normal 0.8582593203 0.4153045118 0.3015181124
outer loop
vertex 75.43480682 76.9925766 208.8422089
vertex 75.51888275 76.77767181 208.8988953
vertex 75.67198944 76.92119598 208.2653961

endloop
endfacet
facet normal 0.8554182053 0.4207355082 0.3020618856
outer loop
vertex 75.67198944 76.92119598 208.2653961
vertex 75.51888275 76.77767181 208.8988953
vertex 75.75441742 76.70754242 208.3295593

endloop
endfacet
facet normal 0.8863934875 0.4077819586 0.2191356719
outer loop
vertex 75.67198944 76.92119598 208.2653961
vertex 75.75441742 76.70754242 208.3295593
vertex 75.87227631 76.82436371 207.635437

endloop
endfacet
facet normal 0.8816266656 0.4175494015 0.2199701518
outer loop
vertex 75.87227631 76.82436371 207.635437
vertex 75.75441742 76.70754242 208.3295593
vertex 75.95836639 76.61116791 207.6950836

endloop
endfacet
facet normal 0.8963195086 0.4094422162 0.1702007353
outer loop
vertex 75.87233734 76.82439423 207.6354523
vertex 75.95839691 76.61119843 207.6951141
vertex 76.03075409 76.75084686 206.9781189

endloop
endfacet
facet normal 0.8918983936 0.4184516668 0.1715093255
outer loop
vertex 76.03075409 76.75084686 206.9781189
vertex 75.95839691 76.61119843 207.6951141
vertex 76.12401581 76.53664398 207.0157471

endloop
endfacet
facet normal 0.8858505487 0.4202349782 0.1966501474
outer loop
vertex 76.03075409 76.75084686 206.9781189
vertex 76.12401581 76.53664398 207.0157471
vertex 76.16005707 76.77046967 206.353714

endloop
endfacet
facet normal 0.8836870193 0.4241738319 0.1979235411
outer loop
vertex 76.16005707 76.77046967 206.353714
vertex 76.12401581 76.53664398 207.0157471
vertex 76.26222992 76.5578537 206.3531952

endloop
endfacet
facet normal 0.8629778624 0.4139983356 0.2896110415
outer loop
vertex 76.16005707 76.77046967 206.353714
vertex 76.26222992 76.5578537 206.3531952
vertex 76.28383636 76.90703583 205.7896576

endloop
endfacet
facet normal 0.8615949154 0.4160290658 0.2908163071
outer loop
vertex 76.28383636 76.90703583 205.7896576
vertex 76.26222992 76.5578537 206.3531952
vertex 76.39519501 76.70128632 205.7540741

endloop
endfacet
facet normal 0.840978384 0.390371263 0.3746542633
outer loop
vertex 76.28383636 76.90703583 205.7896576
vertex 76.39519501 76.70128632 205.7540741
vertex 76.42067719 77.12517548 205.2552032

endloop
endfacet
facet normal 0.8308065534 0.402472347 0.3844169378
outer loop
vertex 76.42067719 77.12517548 205.2552032
vertex 76.39519501 76.70128632 205.7540741
vertex 76.53954315 76.9260788 205.2067566

endloop
endfacet
facet normal 0.8066036701 0.3692491055 0.4615687132
outer loop
vertex 76.42067719 77.12517548 205.2552032
vertex 76.53954315 76.9260788 205.2067566
vertex 76.58782196 77.37581635 204.7626038

endloop
endfacet
facet normal 0.7794260383 0.3958719969 0.4855721593
outer loop
vertex 76.58782196 77.37581635 204.7626038
vertex 76.53954315 76.9260788 205.2067566
vertex 76.71453094 77.18041229 204.7185211

endloop
endfacet
facet normal 0.7635239959 0.3768796623 0.5243976116
outer loop
vertex 76.58779144 77.37584686 204.7626038
vertex 76.71453094 77.18044281 204.7185059
vertex 76.77742767 77.64983368 204.2895813

endloop
endfacet
facet normal 0.7488652468 0.3895671964 0.5361326337
outer loop
vertex 76.77742767 77.64983368 204.2895813
vertex 76.71453094 77.18044281 204.7185059
vertex 76.9201889 77.43825531 204.2439117

endloop
endfacet
facet normal 0.7492570877 0.5760797858 -0.3267200291
outer loop
vertex 76.77742767 77.64983368 204.2895813
vertex 76.9201889 77.43825531 204.2439117
vertex 76.55864716 77.54814911 203.6085663

endloop
endfacet
facet normal -0.2909043729 -0.9567521214 0
outer loop
vertex 76.55864716 77.54814911 203.6085663
vertex 76.9201889 77.43825531 204.2439117
vertex 76.55864716 77.54814911 203.6085815

endloop
endfacet
facet normal 0.49995929 -0.8660488725 0
outer loop
vertex 72.20198822 74.35625458 213.3141785
vertex 72.20198822 74.35625458 213.3141632
vertex 72.92971039 74.77635956 213.1716003

endloop
endfacet
facet normal 0.4023421705 -0.4210962057 0.8128952384
outer loop
vertex 72.92971039 74.77635956 213.1716003
vertex 72.20198822 74.35625458 213.3141632
vertex 72.98686981 74.5901413 213.0468445

endloop
endfacet
facet normal 0.8645367026 -0.06820996851 0.4979193807
outer loop
vertex 72.92971039 74.77635956 213.1716003
vertex 72.98686981 74.5901413 213.0468445
vertex 73.23339081 75.19036102 212.7010345

endloop
endfacet
facet normal 0.8487833738 -0.04509223625 0.5268144608
outer loop
vertex 73.23339081 75.19036102 212.7010345
vertex 72.98686981 74.5901413 213.0468445
vertex 73.29595184 75.00991058 212.5847931

endloop
endfacet
facet normal 0.855645299 -0.03594826907 0.5163126588
outer loop
vertex 73.23339081 75.19036102 212.7010345
vertex 73.29595184 75.00991058 212.5847931
vertex 73.45366669 75.481987 212.3562927

endloop
endfacet
facet normal 0.8526417017 -0.03243981674 0.5214880109
outer loop
vertex 73.45366669 75.481987 212.3562927
vertex 73.29595184 75.00991058 212.5847931
vertex 73.51534271 75.29427338 212.2437744

endloop
endfacet
facet normal 0.8577545285 -0.02591536567 0.5134057999
outer loop
vertex 73.45366669 75.481987 212.3562927
vertex 73.51534271 75.29427338 212.2437744
vertex 73.6891098 75.77040863 211.9774933

endloop
endfacet
facet normal 0.8550736308 -0.02235403098 0.5180244446
outer loop
vertex 73.6891098 75.77040863 211.9774933
vertex 73.51534271 75.29427338 212.2437744
vertex 73.747612 75.57683563 211.8725739

endloop
endfacet
facet normal 0.8541256189 -0.02346063033 0.5195373893
outer loop
vertex 73.6891098 75.77040863 211.9774933
vertex 73.747612 75.57683563 211.8725739
vertex 73.94121552 76.04998016 211.5756531

endloop
endfacet
facet normal 0.8530485034 -0.0218678955 0.5213731527
outer loop
vertex 73.94121552 76.04998016 211.5756531
vertex 73.747612 75.57683563 211.8725739
vertex 73.99602509 75.85173798 211.4776611

endloop
endfacet
facet normal 0.851462543 -0.02354869992 0.5238863826
outer loop
vertex 73.94121552 76.04998016 211.5756531
vertex 73.99602509 75.85173798 211.4776611
vertex 74.19521332 76.29827118 211.173996

endloop
endfacet
facet normal 0.8506698608 -0.02228283323 0.5252279043
outer loop
vertex 74.19521332 76.29827118 211.173996
vertex 73.99602509 75.85173798 211.4776611
vertex 74.24388885 76.09383392 211.0864868

endloop
endfacet
facet normal 0.8485322595 -0.02423031069 0.528588593
outer loop
vertex 74.19521332 76.29827118 211.173996
vertex 74.24388885 76.09383392 211.0864868
vertex 74.45723724 76.50493622 210.7628479

endloop
endfacet
facet normal 0.8481804729 -0.02358042635 0.5291822553
outer loop
vertex 74.45723724 76.50493622 210.7628479
vertex 74.24388885 76.09383392 211.0864868
vertex 74.49636078 76.29283905 210.6906891

endloop
endfacet
facet normal 0.8499014974 -0.02233946323 0.5264678001
outer loop
vertex 74.45723724 76.50493622 210.7628326
vertex 74.49636078 76.29283905 210.6906738
vertex 74.72527313 76.66158295 210.3367767

endloop
endfacet
facet normal 0.8507843614 -0.02434337139 0.5249508619
outer loop
vertex 74.72527313 76.66158295 210.3367767
vertex 74.49636078 76.29283905 210.6906738
vertex 74.75218964 76.4424057 210.2829895

endloop
endfacet
facet normal 0.8573780656 -0.02091057226 0.5142621994
outer loop
vertex 74.72527313 76.66158295 210.3367767
vertex 74.75218964 76.4424057 210.2829895
vertex 74.99565887 76.76094818 209.8900299

endloop
endfacet
facet normal 0.8586398363 -0.02468449809 0.5119847655
outer loop
vertex 74.99565887 76.76094818 209.8900299
vertex 74.75218964 76.4424057 210.2829895
vertex 75.0083847 76.53646088 209.8578644

endloop
endfacet
facet normal 0.8725690842 -0.02043410018 0.4880631864
outer loop
vertex 74.99568939 76.7609787 209.8900299
vertex 75.00841522 76.53649139 209.8578796
vertex 75.26277924 76.79888153 209.4141083

endloop
endfacet
facet normal 0.873246789 -0.02336672693 0.4867176414
outer loop
vertex 75.26277924 76.79888153 209.4141083
vertex 75.00841522 76.53649139 209.8578796
vertex 75.2616806 76.57189178 209.4051819

endloop
endfacet
facet normal 0.8948966861 -0.02185998298 0.4457376599
outer loop
vertex 75.26277924 76.79888153 209.4141083
vertex 75.2616806 76.57189178 209.4051819
vertex 75.51888275 76.77767181 208.8988953

endloop
endfacet
facet normal 0.8948343396 -0.02142176591 0.4458840787
outer loop
vertex 75.51888275 76.77767181 208.8988953
vertex 75.2616806 76.57189178 209.4051819
vertex 75.50731659 76.55083466 208.9112091

endloop
endfacet
facet normal 0.9225893021 -0.02614765801 0.3848966062
outer loop
vertex 75.51888275 76.77767181 208.8988953
vertex 75.50731659 76.55083466 208.9112091
vertex 75.75441742 76.70754242 208.3295593

endloop
endfacet
facet normal 0.9221448302 -0.02016841993 0.3863186836
outer loop
vertex 75.75441742 76.70754242 208.3295593
vertex 75.50731659 76.55083466 208.9112091
vertex 75.73787689 76.48204803 208.3572693

endloop
endfacet
facet normal 0.9501422048 -0.03157428652 0.3102143407
outer loop
vertex 75.75441742 76.70754242 208.3295593
vertex 75.73787689 76.48204803 208.3572693
vertex 75.95836639 76.61116791 207.6950836

endloop
endfacet
facet normal 0.9498300552 -0.02188404649 0.311999917
outer loop
vertex 75.95836639 76.61116791 207.6950836
vertex 75.73787689 76.48204803 208.3572693
vertex 75.94277191 76.3861618 207.7267761

endloop
endfacet
facet normal 0.9701546431 -0.03340941668 0.2401746511
outer loop
vertex 75.95839691 76.61119843 207.6951141
vertex 75.94280243 76.38619232 207.7268066
vertex 76.12401581 76.53664398 207.0157471

endloop
endfacet
facet normal 0.9700024724 -0.02602966502 0.2416973561
outer loop
vertex 76.12401581 76.53664398 207.0157471
vertex 75.94280243 76.38619232 207.7268066
vertex 76.11412811 76.31056976 207.0310822

endloop
endfacet
facet normal 0.9786995649 -0.02901895344 0.2032363266
outer loop
vertex 76.12401581 76.53664398 207.0157471
vertex 76.11412811 76.31056976 207.0310822
vertex 76.26222992 76.5578537 206.3531952

endloop
endfacet
facet normal 0.9785218239 -0.02517451905 0.204599902
outer loop
vertex 76.26222992 76.5578537 206.3531952
vertex 76.11412811 76.31056976 207.0310822
vertex 76.26131439 76.33339691 206.3299561

endloop
endfacet
facet normal 0.9772104621 -0.02580062672 0.2106990069
outer loop
vertex 76.26222992 76.5578537 206.3531952
vertex 76.26131439 76.33339691 206.3299561
vertex 76.39519501 76.70128632 205.7540741

endloop
endfacet
facet normal 0.9765264988 -0.01959506795 0.2145042866
outer loop
vertex 76.39519501 76.70128632 205.7540741
vertex 76.26131439 76.33339691 206.3299561
vertex 76.40465546 76.48406219 205.6911621

endloop
endfacet
facet normal 0.9693641067 -0.02844245173 0.2439758629
outer loop
vertex 76.39519501 76.70128632 205.7540741
vertex 76.40465546 76.48406219 205.6911621
vertex 76.53954315 76.9260788 205.2067566

endloop
endfacet
facet normal 0.9660174251 -0.01182611752 0.2582062185
outer loop
vertex 76.53954315 76.9260788 205.2067566
vertex 76.40465546 76.48406219 205.6911621
vertex 76.55922699 76.71593475 205.1234894

endloop
endfacet
facet normal 0.9468006492 -0.03794316947 0.319576025
outer loop
vertex 76.53954315 76.9260788 205.2067566
vertex 76.55922699 76.71593475 205.1234894
vertex 76.71453094 77.18041229 204.7185211

endloop
endfacet
facet normal 0.9364067316 -0.007207166404 0.3508425653
outer loop
vertex 76.71453094 77.18041229 204.7185211
vertex 76.55922699 76.71593475 205.1234894
vertex 76.74645233 76.9743576 204.6290894

endloop
endfacet
facet normal 0.9220847487 -0.02460502274 0.3862049282
outer loop
vertex 76.71453094 77.18044281 204.7185059
vertex 76.74648285 76.9743576 204.6290894
vertex 76.9201889 77.43825531 204.2439117

endloop
endfacet
facet normal 0.9218210578 -0.02394955978 0.3868753612
outer loop
vertex 76.9201889 77.43825531 204.2439117
vertex 76.74648285 76.9743576 204.6290894
vertex 76.95824432 77.22246552 204.1398773

endloop
endfacet
facet normal 0.8391287923 0.3490880728 -0.4171334505
outer loop
vertex 76.9201889 77.43825531 204.2439117
vertex 76.95824432 77.22246552 204.1398773
vertex 76.55864716 77.54814911 203.6085815

endloop
endfacet
facet normal 0.3311175704 -0.6731402278 -0.6612437963
outer loop
vertex 76.55864716 77.54814911 203.6085815
vertex 76.95824432 77.22246552 204.1398773
vertex 76.55861664 77.54814911 203.6085663

endloop
endfacet
facet normal -nan(ind) -nan(ind) -nan(ind)
outer loop
vertex 72.20198822 74.35625458 213.3141632
vertex 72.20198822 74.35625458 213.3141632
vertex 72.98686981 74.5901413 213.0468445

endloop
endfacet
facet normal 0.4084611237 -0.6966782212 0.5897448063
outer loop
vertex 72.98686981 74.5901413 213.0468445
vertex 72.20198822 74.35625458 213.3141632
vertex 72.94429779 74.42281342 212.8786621

endloop
endfacet
facet normal 0.8814640045 -0.4270055592 0.2017110139
outer loop
vertex 72.98686981 74.5901413 213.0468445
vertex 72.94429779 74.42281342 212.8786621
vertex 73.29595184 75.00991058 212.5847931

endloop
endfacet
facet normal 0.880913198 -0.4053919613 0.2442320287
outer loop
vertex 73.29595184 75.00991058 212.5847931
vertex 72.94429779 74.42281342 212.8786621
vertex 73.26244354 74.83574677 212.4165649

endloop
endfacet
facet normal 0.8857119679 -0.3992373943 0.236904487
outer loop
vertex 73.29595184 75.00991058 212.5847931
vertex 73.26244354 74.83574677 212.4165649
vertex 73.51534271 75.29427338 212.2437744

endloop
endfacet
facet normal 0.8851951361 -0.3965646029 0.243240729
outer loop
vertex 73.51534271 75.29427338 212.2437744
vertex 73.26244354 74.83574677 212.4165649
vertex 73.47985077 75.11284637 212.0771484

endloop
endfacet
facet normal 0.8824086785 -0.4000460505 0.2476249784
outer loop
vertex 73.51534271 75.29427338 212.2437744
vertex 73.47985077 75.11284637 212.0771484
vertex 73.747612 75.57683563 211.8725739

endloop
endfacet
facet normal 0.8820040226 -0.397162348 0.2536356151
outer loop
vertex 73.747612 75.57683563 211.8725739
vertex 73.47985077 75.11284637 212.0771484
vertex 73.70949554 75.38976288 211.7121887

endloop
endfacet
facet normal 0.8738281131 -0.4066224694 0.2666129768
outer loop
vertex 73.747612 75.57683563 211.8725739
vertex 73.70949554 75.38976288 211.7121887
vertex 73.99602509 75.85173798 211.4776611

endloop
endfacet
facet normal 0.8736932874 -0.4052906036 0.2690718174
outer loop
vertex 73.99602509 75.85173798 211.4776611
vertex 73.70949554 75.38976288 211.7121887
vertex 73.95461273 75.66014862 211.3235474

endloop
endfacet
facet normal 0.8618744016 -0.4176629782 0.2876285911
outer loop
vertex 73.99602509 75.85173798 211.4776611
vertex 73.95461273 75.66014862 211.3235474
vertex 74.24388885 76.09383392 211.0864868

endloop
endfacet
facet normal 0.8618043661 -0.4168910086 0.2889553308
outer loop
vertex 74.24388885 76.09383392 211.0864868
vertex 73.95461273 75.66014862 211.3235474
vertex 74.1967392 75.89629364 210.9421082

endloop
endfacet
facet normal 0.8424122334 -0.434239924 0.3190252185
outer loop
vertex 74.24388885 76.09383392 211.0864868
vertex 74.1967392 75.89629364 210.9421082
vertex 74.49636078 76.29283905 210.6906891

endloop
endfacet
facet normal 0.8423815966 -0.4337024093 0.3198364973
outer loop
vertex 74.49636078 76.29283905 210.6906891
vertex 74.1967392 75.89629364 210.9421082
vertex 74.44005585 76.08785248 210.5610199

endloop
endfacet
facet normal 0.8220179081 -0.4480773211 0.351444602
outer loop
vertex 74.49636078 76.29283905 210.6906738
vertex 74.44005585 76.08785248 210.5610199
vertex 74.75218964 76.4424057 210.2829895

endloop
endfacet
facet normal 0.8220151067 -0.4496940672 0.3493799567
outer loop
vertex 74.75218964 76.4424057 210.2829895
vertex 74.44005585 76.08785248 210.5610199
vertex 74.68349457 76.23061371 210.1720123

endloop
endfacet
facet normal 0.80183357 -0.4599535465 0.3814519644
outer loop
vertex 74.75218964 76.4424057 210.2829895
vertex 74.68349457 76.23061371 210.1720123
vertex 75.0083847 76.53646088 209.8578644

endloop
endfacet
facet normal 0.8016358018 -0.4625455737 0.3787237704
outer loop
vertex 75.0083847 76.53646088 209.8578644
vertex 74.68349457 76.23061371 210.1720123
vertex 74.92476654 76.31954193 209.769928

endloop
endfacet
facet normal 0.7867962122 -0.4669089019 0.4036678076
outer loop
vertex 75.00841522 76.53649139 209.8578796
vertex 74.92479706 76.31957245 209.7699585
vertex 75.2616806 76.57189178 209.4051819

endloop
endfacet
facet normal 0.7865580916 -0.4683703482 0.4024369419
outer loop
vertex 75.2616806 76.57189178 209.4051819
vertex 74.92479706 76.31957245 209.7699585
vertex 75.16265106 76.35250092 209.343399

endloop
endfacet
facet normal 0.7828688025 -0.4686296284 0.4092710316
outer loop
vertex 75.2616806 76.57189178 209.4051819
vertex 75.16265106 76.35250092 209.343399
vertex 75.50731659 76.55083466 208.9112091

endloop
endfacet
facet normal 0.7833148837 -0.4668592513 0.4104391634
outer loop
vertex 75.50731659 76.55083466 208.9112091
vertex 75.16265106 76.35250092 209.343399
vertex 75.39540863 76.33162689 208.8754425

endloop
endfacet
facet normal 0.7935022712 -0.4684712887 0.3884440958
outer loop
vertex 75.50731659 76.55083466 208.9112091
vertex 75.39540863 76.33162689 208.8754425
vertex 75.73787689 76.48204803 208.3572693

endloop
endfacet
facet normal 0.7957600951 -0.4617168903 0.3918971419
outer loop
vertex 75.73787689 76.48204803 208.3572693
vertex 75.39540863 76.33162689 208.8754425
vertex 75.61806488 76.26418304 208.3438721

endloop
endfacet
facet normal 0.8161969781 -0.4695589244 0.3366554081
outer loop
vertex 75.73787689 76.48204803 208.3572693
vertex 75.61806488 76.26418304 208.3438721
vertex 75.94277191 76.3861618 207.7267761

endloop
endfacet
facet normal 0.819647491 -0.4609315991 0.3401763439
outer loop
vertex 75.94277191 76.3861618 207.7267761
vertex 75.61806488 76.26418304 208.3438721
vertex 75.82085419 76.16875458 207.7259521

endloop
endfacet
facet normal 0.8421089053 -0.4731526375 0.2588034868
outer loop
vertex 75.94280243 76.38619232 207.7268066
vertex 75.8208847 76.16875458 207.7259827
vertex 76.11412811 76.31056976 207.0310822

endloop
endfacet
facet normal 0.844052732 -0.4687217474 0.2605279982
outer loop
vertex 76.11412811 76.31056976 207.0310822
vertex 75.8208847 76.16875458 207.7259827
vertex 75.99581146 76.09212494 207.0213928

endloop
endfacet
facet normal 0.8640186191 -0.4753388464 0.1659060419
outer loop
vertex 76.11412811 76.31056976 207.0310822
vertex 75.99581146 76.09212494 207.0213928
vertex 76.26131439 76.33339691 206.3299561

endloop
endfacet
facet normal 0.8647671342 -0.4736705124 0.1667755991
outer loop
vertex 76.26131439 76.33339691 206.3299561
vertex 75.99581146 76.09212494 207.0213928
vertex 76.15123749 76.11650848 206.284729

endloop
endfacet
facet normal 0.8807603121 -0.4653363228 0.08788295835
outer loop
vertex 76.26131439 76.33339691 206.3299561
vertex 76.15123749 76.11650848 206.284729
vertex 76.40465546 76.48406219 205.6911621

endloop
endfacet
facet normal 0.8842796087 -0.4573276639 0.09434463829
outer loop
vertex 76.40465546 76.48406219 205.6911621
vertex 76.15123749 76.11650848 206.284729
vertex 76.30532074 76.27419281 205.6048889

endloop
endfacet
facet normal 0.8924018741 -0.4471901357 0.06033195928
outer loop
vertex 76.40465546 76.48406219 205.6911621
vertex 76.30532074 76.27419281 205.6048889
vertex 76.55922699 76.71593475 205.1234894

endloop
endfacet
facet normal 0.8992865086 -0.4300360978 0.0797040686
outer loop
vertex 76.55922699 76.71593475 205.1234894
vertex 76.30532074 76.27419281 205.6048889
vertex 76.4720993 76.51284027 205.0107574

endloop
endfacet
facet normal 0.8909392357 -0.4414187074 0.1066620722
outer loop
vertex 76.55922699 76.71593475 205.1234894
vertex 76.4720993 76.51284027 205.0107574
vertex 76.74645233 76.9743576 204.6290894

endloop
endfacet
facet normal 0.8983720541 -0.414960593 0.1439983696
outer loop
vertex 76.74645233 76.9743576 204.6290894
vertex 76.4720993 76.51284027 205.0107574
vertex 76.67531586 76.77547455 204.4997711

endloop
endfacet
facet normal 0.8884385824 -0.4271736145 0.167926982
outer loop
vertex 76.74648285 76.9743576 204.6290894
vertex 76.67528534 76.77544403 204.4997711
vertex 76.95824432 77.22246552 204.1398773

endloop
endfacet
facet normal 0.8876234889 -0.430883199 0.1626784652
outer loop
vertex 76.95824432 77.22246552 204.1398773
vertex 76.67528534 76.77544403 204.4997711
vertex 76.89113617 77.02861786 203.9925995

endloop
endfacet
facet normal 0.8285962343 0.1273472309 -0.545170486
outer loop
vertex 76.95824432 77.22246552 204.1398773
vertex 76.89113617 77.02861786 203.9925995
vertex 76.55861664 77.54814911 203.6085663

endloop
endfacet
facet normal 0.7557842135 0 -0.6548206806
outer loop
vertex 76.55861664 77.54814911 203.6085663
vertex 76.89113617 77.02861786 203.9925995
vertex 76.55861664 77.54811859 203.6085663

endloop
endfacet
facet normal -0.476323545 0.476323545 -0.7390750051
outer loop
vertex 72.2019577 74.35625458 213.3141632
vertex 72.20198822 74.3562851 213.3141632
vertex 72.94426727 74.4227829 212.8786316

endloop
endfacet
facet normal 0.2695628405 -0.9079828262 0.3207849562
outer loop
vertex 72.94426727 74.4227829 212.8786316
vertex 72.20198822 74.3562851 213.3141632
vertex 72.77391815 74.29894257 212.6712494

endloop
endfacet
facet normal 0.6945735216 -0.7035192847 -0.1504272968
outer loop
vertex 72.94426727 74.4227829 212.8786316
vertex 72.77391815 74.29894257 212.6712494
vertex 73.26244354 74.83571625 212.4165497

endloop
endfacet
facet normal 0.7114224434 -0.6954529285 -0.1011106446
outer loop
vertex 73.26244354 74.83571625 212.4165497
vertex 72.77391815 74.29894257 212.6712494
vertex 73.09499359 74.6962204 212.1978302

endloop
endfacet
facet normal 0.7148036361 -0.6911799312 -0.1064244732
outer loop
vertex 73.26244354 74.83571625 212.4165497
vertex 73.09499359 74.6962204 212.1978302
vertex 73.47985077 75.11281586 212.0771332

endloop
endfacet
facet normal 0.7162970901 -0.6906279922 -0.09975726157
outer loop
vertex 73.47985077 75.11281586 212.0771332
vertex 73.09499359 74.6962204 212.1978302
vertex 73.30892181 74.96736908 211.8567352

endloop
endfacet
facet normal 0.7079220414 -0.7009824514 -0.08642878383
outer loop
vertex 73.47985077 75.11281586 212.0771332
vertex 73.30892181 74.96736908 211.8567352
vertex 73.70949554 75.38973236 211.7121735

endloop
endfacet
facet normal 0.7095432878 -0.7001593113 -0.07953137159
outer loop
vertex 73.70949554 75.38973236 211.7121735
vertex 73.30892181 74.96736908 211.8567352
vertex 73.53716278 75.23973846 211.4951782

endloop
endfacet
facet normal 0.6963474154 -0.7153103352 -0.0585786514
outer loop
vertex 73.70949554 75.38973236 211.7121735
vertex 73.53716278 75.23973846 211.4951782
vertex 73.95458221 75.66014862 211.3235321

endloop
endfacet
facet normal 0.6970278025 -0.7148666978 -0.05583738536
outer loop
vertex 73.95458221 75.66014862 211.3235321
vertex 73.53716278 75.23973846 211.4951782
vertex 73.78002167 75.50655365 211.1108856

endloop
endfacet
facet normal 0.6774387956 -0.7351505756 -0.02510570548
outer loop
vertex 73.95458221 75.66014862 211.3235321
vertex 73.78002167 75.50655365 211.1108856
vertex 74.19670868 75.89629364 210.9420929

endloop
endfacet
facet normal 0.6778348684 -0.7348412871 -0.02341371402
outer loop
vertex 74.19670868 75.89629364 210.9420929
vertex 73.78002167 75.50655365 211.1108856
vertex 74.01787567 75.73787689 210.7367401

endloop
endfacet
facet normal 0.6448196769 -0.7638326287 0.02770279162
outer loop
vertex 74.19670868 75.89629364 210.9420929
vertex 74.01787567 75.73787689 210.7367401
vertex 74.43999481 76.08785248 210.5610199

endloop
endfacet
facet normal 0.6450076699 -0.7636432052 0.02853176557
outer loop
vertex 74.43999481 76.08785248 210.5610199
vertex 74.01787567 75.73787689 210.7367401
vertex 74.25392914 75.92345428 210.3672791

endloop
endfacet
facet normal 0.6058160067 -0.7906153798 0.08896261454
outer loop
vertex 74.44002533 76.08785248 210.5610199
vertex 74.25392914 75.92345428 210.3672791
vertex 74.68346405 76.23061371 210.1719818

endloop
endfacet
facet normal 0.6051406264 -0.7914404273 0.08617966622
outer loop
vertex 74.68346405 76.23061371 210.1719818
vertex 74.25392914 75.92345428 210.3672791
vertex 74.48656464 76.06075287 209.9946442

endloop
endfacet
facet normal 0.5605358481 -0.8131992221 0.1565460712
outer loop
vertex 74.68346405 76.23061371 210.1719818
vertex 74.48656464 76.06075287 209.9946442
vertex 74.92476654 76.31954193 209.7699127

endloop
endfacet
facet normal 0.5594576597 -0.8146601319 0.1527613848
outer loop
vertex 74.92476654 76.31954193 209.7699127
vertex 74.48656464 76.06075287 209.9946442
vertex 74.71398163 76.14559174 209.614212

endloop
endfacet
facet normal 0.5164637566 -0.8264490366 0.2241584957
outer loop
vertex 74.92479706 76.31957245 209.7699127
vertex 74.71401215 76.14562225 209.6142273
vertex 75.16262054 76.35250092 209.3433685

endloop
endfacet
facet normal 0.5159599185 -0.8271299005 0.2228040248
outer loop
vertex 75.16262054 76.35250092 209.3433685
vertex 74.71401215 76.14562225 209.6142273
vertex 74.93645477 76.1765976 209.2140961

endloop
endfacet
facet normal 0.4854170978 -0.8287552595 0.2784511447
outer loop
vertex 75.16262054 76.35250092 209.3433685
vertex 74.93645477 76.1765976 209.2140961
vertex 75.39540863 76.33162689 208.8754272

endloop
endfacet
facet normal 0.486958921 -0.8268477917 0.2814137042
outer loop
vertex 75.39540863 76.33162689 208.8754272
vertex 74.93645477 76.1765976 209.2140961
vertex 75.15480804 76.15584564 208.7752838

endloop
endfacet
facet normal 0.4761884511 -0.8250643611 0.3041600585
outer loop
vertex 75.39540863 76.33162689 208.8754272
vertex 75.15480804 76.15584564 208.7752838
vertex 75.61803436 76.26415253 208.3438568

endloop
endfacet
facet normal 0.4813568592 -0.8194515705 0.3111185133
outer loop
vertex 75.61803436 76.26415253 208.3438568
vertex 75.15480804 76.15584564 208.7752838
vertex 75.36641693 76.08943939 208.2729797

endloop
endfacet
facet normal 0.4901534617 -0.8227095604 0.2879210711
outer loop
vertex 75.61803436 76.26415253 208.3438568
vertex 75.36641693 76.08943939 208.2729797
vertex 75.82082367 76.16872406 207.7259521

endloop
endfacet
facet normal 0.4973838329 -0.815862596 0.2949195802
outer loop
vertex 75.82082367 76.16872406 207.7259521
vertex 75.36641693 76.08943939 208.2729797
vertex 75.56304169 75.9943161 207.6782227

endloop
endfacet
facet normal 0.5186514258 -0.8265525699 0.218658343
outer loop
vertex 75.82085419 76.16872406 207.7259674
vertex 75.5630722 75.99434662 207.6782532
vertex 75.99578094 76.09209442 207.0213776

endloop
endfacet
facet normal 0.5218244791 -0.8238896728 0.2211447954
outer loop
vertex 75.99578094 76.09209442 207.0213776
vertex 75.5630722 75.99434662 207.6782532
vertex 75.73806 75.91692352 206.9768982

endloop
endfacet
facet normal 0.549452126 -0.8308340907 0.08841466159
outer loop
vertex 75.99578094 76.09209442 207.0213776
vertex 75.73806 75.91692352 206.9768982
vertex 76.15123749 76.11650848 206.2847137

endloop
endfacet
facet normal 0.5492273569 -0.8310020566 0.08823206276
outer loop
vertex 76.15123749 76.11650848 206.2847137
vertex 75.73806 75.91692352 206.9768982
vertex 75.89943695 75.94261932 206.2143707

endloop
endfacet
facet normal 0.5781760216 -0.8138653636 -0.05775505677
outer loop
vertex 76.15123749 76.11650848 206.2847137
vertex 75.89943695 75.94261932 206.2143707
vertex 76.30529022 76.27419281 205.6048737

endloop
endfacet
facet normal 0.5851424932 -0.8093467355 -0.05065801367
outer loop
vertex 76.30529022 76.27419281 205.6048737
vertex 75.89943695 75.94261932 206.2143707
vertex 76.06316376 76.10585785 205.4975433

endloop
endfacet
facet normal 0.6070324183 -0.7816041112 -0.1435504705
outer loop
vertex 76.30529022 76.27419281 205.6048737
vertex 76.06316376 76.10585785 205.4975433
vertex 76.47206879 76.51284027 205.0107422

endloop
endfacet
facet normal 0.6234681606 -0.7722796202 -0.1219492033
outer loop
vertex 76.47206879 76.51284027 205.0107422
vertex 76.06316376 76.10585785 205.4975433
vertex 76.24321747 76.34999847 204.8719788

endloop
endfacet
facet normal 0.6296426654 -0.7637765408 -0.1421110183
outer loop
vertex 76.47206879 76.51284027 205.0107422
vertex 76.24321747 76.34999847 204.8719788
vertex 76.67528534 76.77544403 204.4997559

endloop
endfacet
facet normal 0.6520266533 -0.7513186932 -0.1018890515
outer loop
vertex 76.67528534 76.77544403 204.4997559
vertex 76.24321747 76.34999847 204.8719788
vertex 76.46550751 76.61617279 204.3317566

endloop
endfacet
facet normal 0.6508195996 -0.7527832985 -0.09874785691
outer loop
vertex 76.67525482 76.77544403 204.4997559
vertex 76.46553802 76.61617279 204.3317413
vertex 76.89110565 77.02858734 203.9925842

endloop
endfacet
facet normal 0.6460771561 -0.7555786967 -0.1080975905
outer loop
vertex 76.89110565 77.02858734 203.9925842
vertex 76.46553802 76.61617279 204.3317413
vertex 76.69182587 76.88515472 203.8040924

endloop
endfacet
facet normal 0.7097710371 -0.06425938755 -0.7014953494
outer loop
vertex 76.89110565 77.02858734 203.9925842
vertex 76.69182587 76.88515472 203.8040924
vertex 76.55858612 77.54811859 203.608551

endloop
endfacet
facet normal -0.5472564101 0.1337737888 0.826205194
outer loop
vertex 76.55858612 77.54811859 203.608551
vertex 76.69182587 76.88515472 203.8040924
vertex 76.55861664 77.54814911 203.6085663

endloop
endfacet
facet normal 0 -0.9960542917 0.08874514699
outer loop
vertex 72.20201874 74.35625458 213.3141632
vertex 72.20198822 74.35625458 213.3141632
vertex 72.77391815 74.29897308 212.6712494

endloop
endfacet
facet normal -0.08914265037 -0.9959741831 0.009437561966
outer loop
vertex 72.77391815 74.29897308 212.6712494
vertex 72.20198822 74.35625458 213.3141632
vertex 72.32552338 74.33687592 212.4359283

endloop
endfacet
facet normal 0.2138503492 -0.8148818612 -0.5387351513
outer loop
vertex 72.77391815 74.29897308 212.6712494
vertex 72.32552338 74.33687592 212.4359283
vertex 73.09499359 74.6962204 212.1978302

endloop
endfacet
facet normal 0.2303453535 -0.8299149871 -0.5081161261
outer loop
vertex 73.09499359 74.6962204 212.1978302
vertex 72.32552338 74.33687592 212.4359283
vertex 72.62197113 74.7236557 211.9385834

endloop
endfacet
facet normal 0.2324786782 -0.8271065354 -0.5117114186
outer loop
vertex 73.09499359 74.6962204 212.1978302
vertex 72.62197113 74.7236557 211.9385834
vertex 73.3088913 74.96736908 211.8567352

endloop
endfacet
facet normal 0.234612599 -0.8307796717 -0.5047397017
outer loop
vertex 73.3088913 74.96736908 211.8567352
vertex 72.62197113 74.7236557 211.9385834
vertex 72.82967377 74.99568939 211.5873718

endloop
endfacet
facet normal 0.2262402326 -0.8412983418 -0.4909506142
outer loop
vertex 73.3088913 74.96736908 211.8567352
vertex 72.82967377 74.99568939 211.5873718
vertex 73.53713226 75.23973846 211.4951782

endloop
endfacet
facet normal 0.2283227742 -0.844727993 -0.4840488732
outer loop
vertex 73.53713226 75.23973846 211.4951782
vertex 72.82967377 74.99568939 211.5873718
vertex 73.06050873 75.26894379 211.2193909

endloop
endfacet
facet normal 0.2145404667 -0.8605881929 -0.4619094729
outer loop
vertex 73.53713226 75.23973846 211.4951782
vertex 73.06050873 75.26894379 211.2193909
vertex 73.78002167 75.50655365 211.1108856

endloop
endfacet
facet normal 0.2154757828 -0.862007916 -0.4588162899
outer loop
vertex 73.78002167 75.50655365 211.1108856
vertex 73.06050873 75.26894379 211.2193909
vertex 73.30522919 75.53639984 210.8318329

endloop
endfacet
facet normal 0.1935876906 -0.8847280145 -0.4240049422
outer loop
vertex 73.78002167 75.50655365 211.1108856
vertex 73.30522919 75.53639984 210.8318329
vertex 74.01787567 75.73790741 210.7367401

endloop
endfacet
facet normal 0.1941668838 -0.8856953979 -0.4217142165
outer loop
vertex 74.01787567 75.73790741 210.7367401
vertex 73.30522919 75.53639984 210.8318329
vertex 73.54509735 75.76869965 210.4543915

endloop
endfacet
facet normal 0.156221211 -0.919067204 -0.3618156016
outer loop
vertex 74.01787567 75.73790741 210.7367401
vertex 73.54509735 75.76869965 210.4543915
vertex 74.25395966 75.9234848 210.3672791

endloop
endfacet
facet normal 0.1563465744 -0.919290781 -0.3611926734
outer loop
vertex 74.25395966 75.9234848 210.3672791
vertex 73.54509735 75.76869965 210.4543915
vertex 73.78292084 75.95543671 210.0820618

endloop
endfacet
facet normal 0.1072944328 -0.9528204203 -0.2839388549
outer loop
vertex 74.25395966 75.9234848 210.3672791
vertex 73.78292084 75.95543671 210.0820618
vertex 74.48656464 76.06072235 209.9946442

endloop
endfacet
facet normal 0.1065213084 -0.9515105486 -0.2885842025
outer loop
vertex 74.48656464 76.06072235 209.9946442
vertex 73.78292084 75.95543671 210.0820618
vertex 74.01448822 76.09380341 209.711319

endloop
endfacet
facet normal 0.04604719207 -0.9804697633 -0.1912034899
outer loop
vertex 74.48656464 76.06072235 209.9946442
vertex 74.01448822 76.09380341 209.711319
vertex 74.71398163 76.14559174 209.614212

endloop
endfacet
facet normal 0.0450598374 -0.9792350531 -0.1976571977
outer loop
vertex 74.71398163 76.14559174 209.614212
vertex 74.01448822 76.09380341 209.711319
vertex 74.23784637 76.17943573 209.3379974

endloop
endfacet
facet normal -0.0197090283 -0.9959207177 -0.08805389702
outer loop
vertex 74.71401215 76.14562225 209.6142273
vertex 74.23787689 76.17946625 209.3380127
vertex 74.93645477 76.1765976 209.2140961

endloop
endfacet
facet normal -0.02044353634 -0.9955303073 -0.0922037065
outer loop
vertex 74.93645477 76.1765976 209.2140961
vertex 74.23787689 76.17946625 209.3380127
vertex 74.45241547 76.21077728 208.9523773

endloop
endfacet
facet normal -0.07557158917 -0.9970946908 0.009549318813
outer loop
vertex 74.93645477 76.1765976 209.2140961
vertex 74.45241547 76.21077728 208.9523773
vertex 75.15480804 76.15584564 208.7752838

endloop
endfacet
facet normal -0.07474263012 -0.9971200824 0.01284506079
outer loop
vertex 75.15480804 76.15584564 208.7752838
vertex 74.45241547 76.21077728 208.9523773
vertex 74.65880585 76.18996429 208.537674

endloop
endfacet
facet normal -0.1088814884 -0.9904077053 0.08507256955
outer loop
vertex 75.15480804 76.15584564 208.7752838
vertex 74.65880585 76.18996429 208.537674
vertex 75.36638641 76.08943939 208.2729797

endloop
endfacet
facet normal -0.1043412536 -0.9898020029 0.09697946161
outer loop
vertex 75.36638641 76.08943939 208.2729797
vertex 74.65880585 76.18996429 208.537674
vertex 74.85549164 76.12343597 208.070282

endloop
endfacet
facet normal -0.1133429855 -0.9862504601 0.1202637628
outer loop
vertex 75.36638641 76.08943939 208.2729797
vertex 74.85549164 76.12343597 208.070282
vertex 75.56304169 75.9943161 207.6782379

endloop
endfacet
facet normal -0.1048436761 -0.9852457643 0.13527219
outer loop
vertex 75.56304169 75.9943161 207.6782379
vertex 74.85549164 76.12343597 208.070282
vertex 75.03725433 76.02828217 207.5181122

endloop
endfacet
facet normal -0.09056608379 -0.9920899868 0.08692134172
outer loop
vertex 75.5630722 75.99434662 207.6782684
vertex 75.03731537 76.02831268 207.5181427
vertex 75.73806 75.91692352 206.9769135

endloop
endfacet
facet normal -0.08484838903 -0.9919224381 0.09428973496
outer loop
vertex 75.73806 75.91692352 206.9769135
vertex 75.03731537 76.02831268 207.5181427
vertex 75.20204926 75.95104218 206.8535004

endloop
endfacet
facet normal -0.05316796526 -0.9975770712 -0.04486871138
outer loop
vertex 75.73806 75.91692352 206.9769135
vertex 75.20204926 75.95104218 206.8535004
vertex 75.89943695 75.94261932 206.214386

endloop
endfacet
facet normal -0.05334912241 -0.9975584745 -0.04506663606
outer loop
vertex 75.89943695 75.94261932 206.214386
vertex 75.20204926 75.95104218 206.8535004
vertex 75.35982513 75.97640228 206.1053772

endloop
endfacet
facet normal -0.01545216981 -0.974142313 -0.2254060656
outer loop
vertex 75.89943695 75.94261932 206.214386
vertex 75.35982513 75.97640228 206.1053772
vertex 76.06316376 76.10588837 205.4975586

endloop
endfacet
facet normal -0.01143736392 -0.9752095342 -0.2209876478
outer loop
vertex 76.06316376 76.10588837 205.4975586
vertex 75.35982513 75.97640228 206.1053772
vertex 75.52553558 76.13857269 205.3811493

endloop
endfacet
facet normal 0.02083197795 -0.9333827496 -0.3582775891
outer loop
vertex 76.06316376 76.10588837 205.4975586
vertex 75.52553558 76.13857269 205.3811493
vertex 76.24321747 76.35002899 204.871994

endloop
endfacet
facet normal 0.03760537878 -0.9405361414 -0.3376054764
outer loop
vertex 76.24321747 76.35002899 204.871994
vertex 75.52553558 76.13857269 205.3811493
vertex 75.71553802 76.38167572 204.7250519

endloop
endfacet
facet normal 0.0627124235 -0.9052746892 -0.4201724529
outer loop
vertex 76.24321747 76.35002899 204.871994
vertex 75.71553802 76.38167572 204.7250519
vertex 76.46550751 76.61617279 204.3317566

endloop
endfacet
facet normal 0.09063689411 -0.9218475819 -0.3768049777
outer loop
vertex 76.46550751 76.61617279 204.3317566
vertex 75.71553802 76.38167572 204.7250519
vertex 75.95708466 76.64748383 204.1328583

endloop
endfacet
facet normal 0.1066540927 -0.9035983086 -0.4148915708
outer loop
vertex 76.46553802 76.61617279 204.3317566
vertex 75.95708466 76.64748383 204.1328583
vertex 76.69182587 76.88515472 203.8041077

endloop
endfacet
facet normal 0.1113390252 -0.9067514539 -0.4067006111
outer loop
vertex 76.69182587 76.88515472 203.8041077
vertex 75.95708466 76.64748383 204.1328583
vertex 76.21376801 76.92910004 203.5752563

endloop
endfacet
facet normal 0.4110801816 -0.1809212863 -0.8934654593
outer loop
vertex 76.69182587 76.88515472 203.8041077
vertex 76.21376801 76.92910004 203.5752563
vertex 76.55861664 77.54814911 203.6085663

endloop
endfacet
facet normal -nan(ind) -nan(ind) -nan(ind)
outer loop
vertex 76.55861664 77.54814911 203.6085663
vertex 76.21376801 76.92910004 203.5752563
vertex 76.55861664 77.54814911 203.6085663

endloop
endfacet
endsolid
