solid 
facet normal -0.893726 0 0.448613
outer loop
vertex 28.10079193 56.13506317 238.1472626
vertex 28.10079193 56.13507843 238.1472626
vertex 28.04799652 55.38483429 238.0420837

endloop
endfacet
facet normal -0.03833907098 0.1413784921 -0.9892129302
outer loop
vertex 28.04799652 55.38483429 238.0420837
vertex 28.10079193 56.13507843 238.1472626
vertex 28.48267365 55.50666046 238.0426483

endloop
endfacet
facet normal 0.1385858655 -0.4904887378 -0.8603572845
outer loop
vertex 28.04799652 55.38483429 238.0420837
vertex 28.48267365 55.50666046 238.0426483
vertex 28.22827911 54.79779816 238.4057922

endloop
endfacet
facet normal 0.1593129188 -0.4948102534 -0.8542729616
outer loop
vertex 28.22827911 54.79779816 238.4057922
vertex 28.48267365 55.50666046 238.0426483
vertex 28.66790009 54.92838287 238.4121399

endloop
endfacet
facet normal 0.1561633795 -0.4838758707 -0.8610907197
outer loop
vertex 28.22827911 54.79779816 238.4057922
vertex 28.66790009 54.92838287 238.4121399
vertex 28.39434052 54.2521286 238.7425385

endloop
endfacet
facet normal 0.1404623538 -0.4799203873 -0.8659946322
outer loop
vertex 28.39434052 54.2521286 238.7425385
vertex 28.66790009 54.92838287 238.4121399
vertex 28.82765961 54.38831329 238.7373505

endloop
endfacet
facet normal 0.1502057314 -0.5101925731 -0.8468421698
outer loop
vertex 28.39434052 54.2521286 238.7425385
vertex 28.82765961 54.38831329 238.7373505
vertex 28.59308624 53.66565704 239.1311188

endloop
endfacet
facet normal 0.1130356416 -0.5034449697 -0.8566014767
outer loop
vertex 28.59308624 53.66565704 239.1311188
vertex 28.82765961 54.38831329 238.7373505
vertex 29.02246857 53.81269073 239.1013641

endloop
endfacet
facet normal 0.1316694915 -0.5512418747 -0.8238905668
outer loop
vertex 28.59308624 53.66565704 239.1311188
vertex 29.02246857 53.81269073 239.1013641
vertex 28.83181 53.0943985 239.5514832

endloop
endfacet
facet normal 0.07747417688 -0.5440939069 -0.8354397416
outer loop
vertex 28.83181 53.0943985 239.5514832
vertex 29.02246857 53.81269073 239.1013641
vertex 29.25272369 53.25383759 239.4866791

endloop
endfacet
facet normal 0.101955995 -0.5936151743 -0.7982643843
outer loop
vertex 28.83181 53.0943985 239.5514832
vertex 29.25272369 53.25383759 239.4866791
vertex 29.12223053 52.55539703 239.9893951

endloop
endfacet
facet normal 0.04393705353 -0.5890117884 -0.8069291711
outer loop
vertex 29.12223053 52.55539703 239.9893951
vertex 29.25272369 53.25383759 239.4866791
vertex 29.53044891 52.72718048 239.8862305

endloop
endfacet
facet normal 0.07110697776 -0.6322814822 -0.7714686394
outer loop
vertex 29.12223053 52.55539703 239.9893951
vertex 29.53044891 52.72718048 239.8862305
vertex 29.46949005 52.04984283 240.4357452

endloop
endfacet
facet normal 0.02137937397 -0.6310403943 -0.7754553556
outer loop
vertex 29.46949005 52.04984283 240.4357452
vertex 29.53044891 52.72718048 239.8862305
vertex 29.86284637 52.23241425 240.2980194

endloop
endfacet
facet normal 0.04717031866 -0.6644099355 -0.7458783388
outer loop
vertex 29.46949005 52.04984283 240.4357605
vertex 29.86283112 52.23239899 240.2980194
vertex 29.86719513 51.57607269 240.8829346

endloop
endfacet
facet normal 0.01014770474 -0.6652534604 -0.746548593
outer loop
vertex 29.86719513 51.57607269 240.8829346
vertex 29.86283112 52.23239899 240.2980194
vertex 30.24619293 51.7669754 240.7179718

endloop
endfacet
facet normal 0.03047233634 -0.6874747276 -0.7255687714
outer loop
vertex 29.86719513 51.57607269 240.8829346
vertex 30.24619293 51.7669754 240.7179718
vertex 30.30197906 51.12888336 241.3249054

endloop
endfacet
facet normal 0.00500924373 -0.6889560819 -0.7247857451
outer loop
vertex 30.30197906 51.12888336 241.3249054
vertex 30.24619293 51.7669754 240.7179718
vertex 30.66930389 51.32538605 241.1406555

endloop
endfacet
facet normal 0.01793178357 -0.7015483379 -0.7123962045
outer loop
vertex 30.30200958 51.12891388 241.3249207
vertex 30.66931915 51.32540131 241.1406708
vertex 30.76152802 50.6989975 241.7598572

endloop
endfacet
facet normal 0.001794543234 -0.7028630376 -0.7113230228
outer loop
vertex 30.76152802 50.6989975 241.7598572
vertex 30.66931915 51.32540131 241.1406708
vertex 31.12107086 50.8985672 241.5635681

endloop
endfacet
facet normal 0.007944367826 -0.7084388733 -0.7057275176
outer loop
vertex 30.76152802 50.6989975 241.7598572
vertex 31.12107086 50.8985672 241.5635681
vertex 31.23560333 50.27698517 242.1888275

endloop
endfacet
facet normal -0.0004704236053 -0.7092322111 -0.7049747705
outer loop
vertex 31.23560333 50.27698517 242.1888275
vertex 31.12107086 50.8985672 241.5635681
vertex 31.59128571 50.47771454 241.9866486

endloop
endfacet
facet normal 0.0003098541929 -0.7099186778 -0.7042835951
outer loop
vertex 31.23560333 50.27698517 242.1888275
vertex 31.59128571 50.47771454 241.9866486
vertex 31.71430206 49.85704803 242.6123352

endloop
endfacet
facet normal -0.004023258109 -0.7103388309 -0.7038484216
outer loop
vertex 31.71430206 49.85704803 242.6123352
vertex 31.59128571 50.47771454 241.9866486
vertex 32.06884003 50.05757904 242.4079285

endloop
endfacet
facet normal -0.007869170979 -0.7069627643 -0.7072070241
outer loop
vertex 31.71430206 49.85704803 242.6123352
vertex 32.06884003 50.05757904 242.4079285
vertex 32.19077301 49.43531036 243.0286255

endloop
endfacet
facet normal -0.01432419382 -0.7075452209 -0.7065229416
outer loop
vertex 32.19077301 49.43531036 243.0286255
vertex 32.06884003 50.05757904 242.4079285
vertex 32.54457855 49.63463593 242.8218384

endloop
endfacet
facet normal -0.02292015776 -0.6999341249 -0.7138394713
outer loop
vertex 32.19080353 49.43534088 243.028656
vertex 32.54459381 49.63466644 242.8218536
vertex 32.66719818 49.00565338 243.4346771

endloop
endfacet
facet normal -0.03887974843 -0.7011790872 -0.7119243145
outer loop
vertex 32.66719818 49.00565338 243.4346771
vertex 32.54459381 49.63466644 242.8218536
vertex 33.01815033 49.20287323 243.2212677

endloop
endfacet
facet normal -0.04994132742 -0.6912226677 -0.7209140658
outer loop
vertex 32.66719818 49.00565338 243.4346771
vertex 33.01815033 49.20287323 243.2212677
vertex 33.15129852 48.56322479 243.8253479

endloop
endfacet
facet normal -0.07964630425 -0.6931361556 -0.7163928151
outer loop
vertex 33.15129852 48.56322479 243.8253479
vertex 33.01815033 49.20287323 243.2212677
vertex 33.49491119 48.75809479 243.5986023

endloop
endfacet
facet normal -0.09174275398 -0.6822344661 -0.7253547311
outer loop
vertex 33.15129852 48.56322479 243.8253479
vertex 33.49491119 48.75809479 243.5986023
vertex 33.64664459 48.11067963 244.1883392

endloop
endfacet
facet normal -0.1390340477 -0.684479475 -0.715651691
outer loop
vertex 33.64664459 48.11067963 244.1883392
vertex 33.49491119 48.75809479 243.5986023
vertex 33.97612762 48.3030014 243.9403839

endloop
endfacet
facet normal -0.1504662484 -0.6743107438 -0.7229557037
outer loop
vertex 33.64664459 48.11067963 244.1883392
vertex 33.97612762 48.3030014 243.9403839
vertex 34.14414215 47.6629715 244.5023804

endloop
endfacet
facet normal -0.2122669071 -0.6756489873 -0.7060036659
outer loop
vertex 34.14414215 47.6629715 244.5023804
vertex 33.97612762 48.3030014 243.9403839
vertex 34.45212555 47.85266876 244.228241

endloop
endfacet
facet normal -0.2255050689 -0.6640629172 -0.7128589749
outer loop
vertex 34.14414215 47.6629715 244.5023804
vertex 34.45212555 47.85266876 244.228241
vertex 34.61960602 47.23477936 244.7508545

endloop
endfacet
facet normal -0.2964893281 -0.6623244882 -0.6880555153
outer loop
vertex 34.61960602 47.23477936 244.7508545
vertex 34.45212555 47.85266876 244.228241
vertex 34.90409088 47.42404938 244.4460754

endloop
endfacet
facet normal -0.3532606363 -0.610484004 -0.7088837624
outer loop
vertex 34.61960602 47.23477936 244.7508545
vertex 34.90409088 47.42406464 244.4460754
vertex 35.13965607 46.70891571 244.9445648

endloop
endfacet
facet normal -0.4253964722 -0.6076248288 -0.6706936359
outer loop
vertex 35.13965607 46.70891571 244.9445648
vertex 34.90409088 47.42406464 244.4460754
vertex 35.39655304 46.88732147 244.6199951

endloop
endfacet
facet normal 0.07849399745 -0.8985568285 -0.4317804575
outer loop
vertex 35.13965607 46.70891571 244.9445648
vertex 35.39655304 46.88732147 244.6199951
vertex 35.85540009 46.6724472 245.1505737

endloop
endfacet
facet normal -nan(ind) -nan(ind) -nan(ind)
outer loop
vertex 35.85540009 46.6724472 245.1505737
vertex 35.39655304 46.88732147 244.6199951
vertex 35.85540009 46.6724472 245.1505737

endloop
endfacet
facet normal -0.4232276678 -0.3930834234 0.816311121
outer loop
vertex 28.10079193 56.13507843 238.1472626
vertex 28.10076141 56.13504791 238.1472321
vertex 28.48267365 55.50666046 238.0426483

endloop
endfacet
facet normal 0.3629316092 0.3633826375 -0.8580405712
outer loop
vertex 28.48267365 55.50666046 238.0426483
vertex 28.10076141 56.13504791 238.1472321
vertex 28.659935 55.6266861 238.168457

endloop
endfacet
facet normal 0.6645254493 -0.239440158 -0.7078660727
outer loop
vertex 28.48267365 55.50666046 238.0426483
vertex 28.659935 55.6266861 238.168457
vertex 28.66790009 54.92838287 238.4121399

endloop
endfacet
facet normal 0.6891136765 -0.2317385972 -0.6866000295
outer loop
vertex 28.66790009 54.92838287 238.4121399
vertex 28.659935 55.6266861 238.168457
vertex 28.83760834 55.05138397 238.5409546

endloop
endfacet
facet normal 0.684915781 -0.2163544893 -0.6957592964
outer loop
vertex 28.66790009 54.92838287 238.4121399
vertex 28.83760834 55.05138397 238.5409546
vertex 28.82765961 54.38831329 238.7373505

endloop
endfacet
facet normal 0.6743705869 -0.2189847082 -0.7051736712
outer loop
vertex 28.82765961 54.38831329 238.7373505
vertex 28.83760834 55.05138397 238.5409546
vertex 28.99573517 54.51650238 238.8582764

endloop
endfacet
facet normal 0.6740986109 -0.2181342244 -0.7056972384
outer loop
vertex 28.82765961 54.38831329 238.7373505
vertex 28.99573517 54.51650238 238.8582764
vertex 29.02246857 53.81269073 239.1013641

endloop
endfacet
facet normal 0.6479567885 -0.2265551537 -0.7272034287
outer loop
vertex 29.02246857 53.81269073 239.1013641
vertex 28.99573517 54.51650238 238.8582764
vertex 29.19184113 53.95107269 239.2091675

endloop
endfacet
facet normal 0.6498616338 -0.2314062417 -0.7239689827
outer loop
vertex 29.02246857 53.81269073 239.1013641
vertex 29.19184113 53.95107269 239.2091675
vertex 29.25272369 53.25383759 239.4866791

endloop
endfacet
facet normal 0.6106820703 -0.2462311387 -0.7526204586
outer loop
vertex 29.25272369 53.25383759 239.4866791
vertex 29.19184113 53.95107269 239.2091675
vertex 29.42298126 53.403862 239.5757446

endloop
endfacet
facet normal 0.6114250422 -0.247723639 -0.751526773
outer loop
vertex 29.25272369 53.25383759 239.4866791
vertex 29.42298126 53.403862 239.5757446
vertex 29.53044891 52.72718048 239.8862305

endloop
endfacet
facet normal 0.5684940219 -0.2667924762 -0.778226316
outer loop
vertex 29.53044891 52.72718048 239.8862305
vertex 29.42298126 53.403862 239.5757446
vertex 29.69972992 52.88880157 239.954483

endloop
endfacet
facet normal 0.5681887269 -0.2663086653 -0.7786149383
outer loop
vertex 29.53044891 52.72718048 239.8862305
vertex 29.69972992 52.88880157 239.954483
vertex 29.86284637 52.23241425 240.2980194

endloop
endfacet
facet normal 0.5311544538 -0.2855113745 -0.7977206707
outer loop
vertex 29.86284637 52.23241425 240.2980194
vertex 29.69972992 52.88880157 239.954483
vertex 30.02890778 52.40419769 240.3471069

endloop
endfacet
facet normal 0.5300774574 -0.2842275798 -0.7988946438
outer loop
vertex 29.86283112 52.23239899 240.2980194
vertex 30.02890778 52.40419769 240.3470917
vertex 30.24619293 51.7669754 240.7179718

endloop
endfacet
facet normal 0.502551496 -0.300459981 -0.8106576204
outer loop
vertex 30.24619293 51.7669754 240.7179718
vertex 30.02890778 52.40419769 240.3470917
vertex 30.40795135 51.94663239 240.7516632

endloop
endfacet
facet normal 0.5005589724 -0.2982846797 -0.8126911521
outer loop
vertex 30.24619293 51.7669754 240.7179718
vertex 30.40795135 51.94663239 240.7516632
vertex 30.66930389 51.32538605 241.1406555

endloop
endfacet
facet normal 0.4814424813 -0.310641557 -0.8195821643
outer loop
vertex 30.66930389 51.32538605 241.1406555
vertex 30.40795135 51.94663239 240.7516632
vertex 30.82726288 51.51029205 241.1633606

endloop
endfacet
facet normal 0.4786625803 -0.3080103099 -0.8221994042
outer loop
vertex 30.66931915 51.32540131 241.1406708
vertex 30.8272934 51.51029205 241.1633759
vertex 31.12107086 50.8985672 241.5635681

endloop
endfacet
facet normal 0.4666944742 -0.3162156343 -0.8259563446
outer loop
vertex 31.12107086 50.8985672 241.5635681
vertex 30.8272934 51.51029205 241.1633759
vertex 31.27655792 51.08635712 241.5795288

endloop
endfacet
facet normal 0.4642000496 -0.3139579296 -0.8282202482
outer loop
vertex 31.12107086 50.8985672 241.5635681
vertex 31.27655792 51.08635712 241.5795288
vertex 31.59128571 50.47771454 241.9866486

endloop
endfacet
facet normal 0.4578919709 -0.3184262812 -0.8300238848
outer loop
vertex 31.59128571 50.47771454 241.9866486
vertex 31.27655792 51.08635712 241.5795288
vertex 31.74576569 50.66660309 241.9994049

endloop
endfacet
facet normal 0.4556130767 -0.3164262772 -0.8320403695
outer loop
vertex 31.59128571 50.47771454 241.9866486
vertex 31.74576569 50.66660309 241.9994049
vertex 32.06884003 50.05757904 242.4079285

endloop
endfacet
facet normal 0.4526180029 -0.3185641468 -0.8328588605
outer loop
vertex 32.06884003 50.05757904 242.4079285
vertex 31.74576569 50.66660309 241.9994049
vertex 32.22360992 50.24636078 242.4198303

endloop
endfacet
facet normal 0.4481966794 -0.3146964312 -0.8367113471
outer loop
vertex 32.06884003 50.05757904 242.4079285
vertex 32.22360992 50.24636078 242.4198303
vertex 32.54457855 49.63463593 242.8218384

endloop
endfacet
facet normal 0.4433224797 -0.3181112409 -0.8380157948
outer loop
vertex 32.54457855 49.63463593 242.8218384
vertex 32.22360992 50.24636078 242.4198303
vertex 32.70079803 49.82219696 242.8332825

endloop
endfacet
facet normal 0.4327741861 -0.3088151515 -0.8469590545
outer loop
vertex 32.54459381 49.63466644 242.8218536
vertex 32.70082855 49.82222748 242.8332977
vertex 33.01815033 49.20287323 243.2212677

endloop
endfacet
facet normal 0.4210626185 -0.3166888654 -0.8499497175
outer loop
vertex 33.01815033 49.20287323 243.2212677
vertex 32.70082855 49.82222748 242.8332977
vertex 33.17679596 49.3884964 243.2306976

endloop
endfacet
facet normal 0.4033354223 -0.3008143306 -0.8641939759
outer loop
vertex 33.01815033 49.20287323 243.2212677
vertex 33.17679596 49.3884964 243.2306976
vertex 33.49491119 48.75809479 243.5986023

endloop
endfacet
facet normal 0.3808714449 -0.3151155412 -0.8692751527
outer loop
vertex 33.49491119 48.75809479 243.5986023
vertex 33.17679596 49.3884964 243.2306976
vertex 33.65630341 48.94150543 243.602829

endloop
endfacet
facet normal 0.354878366 -0.2918066084 -0.8882061839
outer loop
vertex 33.49491119 48.75809479 243.5986023
vertex 33.65630341 48.94150543 243.602829
vertex 33.97612762 48.3030014 243.9403839

endloop
endfacet
facet normal 0.3177990913 -0.3138218522 -0.8947176337
outer loop
vertex 33.97612762 48.3030014 243.9403839
vertex 33.65630341 48.94150543 243.602829
vertex 34.13985443 48.4839859 243.9350586

endloop
endfacet
facet normal 0.2845870256 -0.2843880951 -0.9154963493
outer loop
vertex 33.97612762 48.3030014 243.9403839
vertex 34.13985443 48.4839859 243.9350586
vertex 34.45212555 47.85266876 244.228241

endloop
endfacet
facet normal 0.2346079201 -0.3115744889 -0.9208042622
outer loop
vertex 34.45212555 47.85266876 244.228241
vertex 34.13985443 48.4839859 243.9350586
vertex 34.61673737 48.03122711 244.2097626

endloop
endfacet
facet normal 0.1928741634 -0.2752751112 -0.9418190718
outer loop
vertex 34.45212555 47.85266876 244.228241
vertex 34.61673737 48.03122711 244.2097626
vertex 34.90409088 47.42404938 244.4460754

endloop
endfacet
facet normal 0.1331680715 -0.3041024506 -0.9432857037
outer loop
vertex 34.90409088 47.42404938 244.4460754
vertex 34.61673737 48.03122711 244.2097626
vertex 35.06983185 47.60231781 244.4120026

endloop
endfacet
facet normal 0.06952682883 -0.2492043376 -0.9659519792
outer loop
vertex 34.90409088 47.42406464 244.4460754
vertex 35.06983185 47.60231781 244.4120178
vertex 35.39655304 46.88732147 244.6199951

endloop
endfacet
facet normal -0.009457827546 -0.2832725346 -0.9589928389
outer loop
vertex 35.39655304 46.88732147 244.6199951
vertex 35.06983185 47.60231781 244.4120178
vertex 35.56308746 47.06302643 244.566452

endloop
endfacet
facet normal 0.4499837756 -0.6218241453 -0.6409751773
outer loop
vertex 35.39655304 46.88732147 244.6199951
vertex 35.56308746 47.06302643 244.566452
vertex 35.85540009 46.6724472 245.1505737

endloop
endfacet
facet normal -0.7952998877 0.2382712066 0.5574271083
outer loop
vertex 35.85540009 46.6724472 245.1505737
vertex 35.56308746 47.06302643 244.566452
vertex 35.85538483 46.67243195 245.1505585

endloop
endfacet
facet normal 0.5628350973 0.5951426625 -0.5736042857
outer loop
vertex 28.10076141 56.13504791 238.1472321
vertex 28.10079193 56.13506317 238.1472778
vertex 28.659935 55.6266861 238.168457

endloop
endfacet
facet normal 0.5523015261 0.582613349 -0.5962589383
outer loop
vertex 28.659935 55.6266861 238.168457
vertex 28.10079193 56.13506317 238.1472778
vertex 28.72119904 55.73470306 238.3307495

endloop
endfacet
facet normal 0.9252738953 0.04165253788 -0.3770057261
outer loop
vertex 28.659935 55.6266861 238.168457
vertex 28.72119904 55.73470306 238.3307495
vertex 28.83760834 55.05138397 238.5409546

endloop
endfacet
facet normal 0.9392879605 0.05586957186 -0.3385509253
outer loop
vertex 28.83760834 55.05138397 238.5409546
vertex 28.72119904 55.73470306 238.3307495
vertex 28.88756561 55.15526581 238.696701

endloop
endfacet
facet normal 0.9351876974 0.07058082521 -0.3470479846
outer loop
vertex 28.83760834 55.05138397 238.5409546
vertex 28.88756561 55.15526581 238.696701
vertex 28.99573517 54.51650238 238.8582764

endloop
endfacet
facet normal 0.930721879 0.06664860994 -0.3596035838
outer loop
vertex 28.99573517 54.51650238 238.8582764
vertex 28.88756561 55.15526581 238.696701
vertex 29.0459671 54.62465668 239.0083313

endloop
endfacet
facet normal 0.9235261679 0.08875117451 -0.3731255233
outer loop
vertex 28.99573517 54.51650238 238.8582764
vertex 29.0459671 54.62465668 239.0083313
vertex 29.19184113 53.95107269 239.2091675

endloop
endfacet
facet normal 0.9118763208 0.07728393376 -0.4031238258
outer loop
vertex 29.19184113 53.95107269 239.2091675
vertex 29.0459671 54.62465668 239.0083313
vertex 29.24507904 54.06781769 239.3519745

endloop
endfacet
facet normal 0.9024985433 0.1006856263 -0.41875875
outer loop
vertex 29.19184113 53.95107269 239.2091675
vertex 29.24507904 54.06781769 239.3519745
vertex 29.42298126 53.403862 239.5757446

endloop
endfacet
facet normal 0.8838692904 0.08160592616 -0.4605602026
outer loop
vertex 29.42298126 53.403862 239.5757446
vertex 29.24507904 54.06781769 239.3519745
vertex 29.48032379 53.53044891 239.7082214

endloop
endfacet
facet normal 0.868604064 0.1117369756 -0.4827440679
outer loop
vertex 29.42298126 53.403862 239.5757446
vertex 29.48032379 53.53044891 239.7082214
vertex 29.69972992 52.88880157 239.954483

endloop
endfacet
facet normal 0.8466279507 0.08806288987 -0.5248485804
outer loop
vertex 29.69972992 52.88880157 239.954483
vertex 29.48032379 53.53044891 239.7082214
vertex 29.76044464 53.02516937 240.0753021

endloop
endfacet
facet normal 0.8276843429 0.1176496595 -0.5487232804
outer loop
vertex 29.69972992 52.88880157 239.954483
vertex 29.76044464 53.02516937 240.0753021
vertex 30.02890778 52.40419769 240.3471069

endloop
endfacet
facet normal 0.8076278567 0.0943729803 -0.5820919871
outer loop
vertex 30.02890778 52.40419769 240.3471069
vertex 29.76044464 53.02516937 240.0753021
vertex 30.09105682 52.54912567 240.4568329

endloop
endfacet
facet normal 0.788207829 0.1190977171 -0.6037748456
outer loop
vertex 30.02890778 52.40419769 240.3470917
vertex 30.09107208 52.54912567 240.4568329
vertex 30.40795135 51.94663239 240.7516632

endloop
endfacet
facet normal 0.7726868391 0.09960658103 -0.6269239187
outer loop
vertex 30.40795135 51.94663239 240.7516632
vertex 30.09107208 52.54912567 240.4568329
vertex 30.47002411 52.09819794 240.8522491

endloop
endfacet
facet normal 0.7555747032 0.1181582212 -0.6443178654
outer loop
vertex 30.40795135 51.94663239 240.7516632
vertex 30.47002411 52.09819794 240.8522491
vertex 30.82726288 51.51029205 241.1633606

endloop
endfacet
facet normal 0.7446669936 0.1035750285 -0.6593506336
outer loop
vertex 30.82726288 51.51029205 241.1633606
vertex 30.47002411 52.09819794 240.8522491
vertex 30.88883209 51.66628265 241.2574005

endloop
endfacet
facet normal 0.7317265272 0.116145283 -0.6716297269
outer loop
vertex 30.8272934 51.51029205 241.1633759
vertex 30.88884735 51.66629791 241.2574158
vertex 31.27655792 51.08635712 241.5795288

endloop
endfacet
facet normal 0.7248308063 0.1065303981 -0.6806405783
outer loop
vertex 31.27655792 51.08635712 241.5795288
vertex 30.88884735 51.66629791 241.2574158
vertex 31.33791351 51.24477386 241.6696625

endloop
endfacet
facet normal 0.717030406 0.1135826409 -0.6877254844
outer loop
vertex 31.27655792 51.08635712 241.5795288
vertex 31.33791351 51.24477386 241.6696625
vertex 31.74576569 50.66660309 241.9994049

endloop
endfacet
facet normal 0.7135070562 0.1085520834 -0.6921879649
outer loop
vertex 31.74576569 50.66660309 241.9994049
vertex 31.33791351 51.24477386 241.6696625
vertex 31.80725861 50.82596588 242.0877838

endloop
endfacet
facet normal 0.7099695802 0.1116565913 -0.6953243613
outer loop
vertex 31.74576569 50.66660309 241.9994049
vertex 31.80725861 50.82596588 242.0877838
vertex 32.22360992 50.24636078 242.4198303

endloop
endfacet
facet normal 0.7082304358 0.1091666967 -0.6974899769
outer loop
vertex 32.22360992 50.24636078 242.4198303
vertex 31.80725861 50.82596588 242.0877838
vertex 32.28582001 50.40558624 242.5079193

endloop
endfacet
facet normal 0.7055212259 0.1115346774 -0.6998569965
outer loop
vertex 32.22360992 50.24636078 242.4198303
vertex 32.28582001 50.40558624 242.5079193
vertex 32.70079803 49.82219696 242.8332825

endloop
endfacet
facet normal 0.702652812 0.1075411364 -0.7033590674
outer loop
vertex 32.70079803 49.82219696 242.8332825
vertex 32.28582001 50.40558624 242.5079193
vertex 32.76508331 49.98040009 242.9216919

endloop
endfacet
facet normal 0.6957550645 0.1136902049 -0.7092245221
outer loop
vertex 32.70082855 49.82222748 242.8332977
vertex 32.76511383 49.9804306 242.9217224
vertex 33.17679596 49.3884964 243.2306976

endloop
endfacet
facet normal 0.6886575222 0.1044192836 -0.7175287604
outer loop
vertex 33.17679596 49.3884964 243.2306976
vertex 32.76511383 49.9804306 242.9217224
vertex 33.2450943 49.54505157 243.3190308

endloop
endfacet
facet normal 0.6746259332 0.1169233322 -0.7288407087
outer loop
vertex 33.17679596 49.3884964 243.2306976
vertex 33.2450943 49.54505157 243.3190308
vertex 33.65630341 48.94150543 243.602829

endloop
endfacet
facet normal 0.660574019 0.1002004817 -0.7440442443
outer loop
vertex 33.65630341 48.94150543 243.602829
vertex 33.2450943 49.54505157 243.3190308
vertex 33.7305069 49.09622955 243.6895447

endloop
endfacet
facet normal 0.6373001337 0.1209053472 -0.7610718012
outer loop
vertex 33.65630341 48.94150543 243.602829
vertex 33.7305069 49.09622955 243.6895447
vertex 34.13985443 48.4839859 243.9350586

endloop
endfacet
facet normal 0.6126271486 0.09495490789 -0.7846474648
outer loop
vertex 34.13985443 48.4839859 243.9350586
vertex 33.7305069 49.09622955 243.6895447
vertex 34.22205353 48.6366806 244.0177155

endloop
endfacet
facet normal 0.5805552006 0.1231574491 -0.8048527241
outer loop
vertex 34.13985443 48.4839859 243.9350586
vertex 34.22205353 48.6366806 244.0177155
vertex 34.61673737 48.03122711 244.2097626

endloop
endfacet
facet normal 0.5449233055 0.09082629532 -0.8335521221
outer loop
vertex 34.61673737 48.03122711 244.2097626
vertex 34.22205353 48.6366806 244.0177155
vertex 34.70775604 48.18183136 244.285675

endloop
endfacet
facet normal 0.5023745894 0.1274548024 -0.8552046418
outer loop
vertex 34.61673737 48.03122711 244.2097626
vertex 34.70775604 48.18183136 244.285675
vertex 35.06983185 47.60231781 244.4120026

endloop
endfacet
facet normal 0.4568282366 0.09256249666 -0.8847261071
outer loop
vertex 35.06983185 47.60231781 244.4120026
vertex 34.70775604 48.18183136 244.285675
vertex 35.17079926 47.75287628 244.4798889

endloop
endfacet
facet normal 0.4183444381 0.1250062138 -0.8996451497
outer loop
vertex 35.06983185 47.60231781 244.4120178
vertex 35.17079926 47.75287628 244.4798889
vertex 35.56308746 47.06302643 244.566452

endloop
endfacet
facet normal 0.3447490931 0.07867005467 -0.935392499
outer loop
vertex 35.56308746 47.06302643 244.566452
vertex 35.17079926 47.75287628 244.4798889
vertex 35.67917633 47.22122955 244.6225433

endloop
endfacet
facet normal 0.7363839746 -0.3311828971 -0.5899631977
outer loop
vertex 35.56308746 47.06302643 244.566452
vertex 35.67917633 47.22122955 244.6225433
vertex 35.85538483 46.67243195 245.1505585

endloop
endfacet
facet normal 0.686963737 -0.3769514859 -0.6212796569
outer loop
vertex 35.85538483 46.67243195 245.1505585
vertex 35.67917633 47.22122955 244.6225433
vertex 35.85541534 46.67246246 245.1505737

endloop
endfacet
facet normal 0.2835872173 0 -0.9589464664
outer loop
vertex 28.10079193 56.13506317 238.1472778
vertex 28.10079193 56.13507843 238.1472778
vertex 28.72119904 55.73470306 238.3307495

endloop
endfacet
facet normal 0.5778938532 0.7640598416 -0.2867949009
outer loop
vertex 28.72119904 55.73470306 238.3307495
vertex 28.10079193 56.13507843 238.1472778
vertex 28.68624115 55.8347702 238.5269012

endloop
endfacet
facet normal 0.9569705129 0.2892739773 0.02297632024
outer loop
vertex 28.72119904 55.73470306 238.3307495
vertex 28.68624115 55.8347702 238.5269012
vertex 28.88756561 55.15526581 238.696701

endloop
endfacet
facet normal 0.952857852 0.2973725796 0.06026143208
outer loop
vertex 28.88756561 55.15526581 238.696701
vertex 28.68624115 55.8347702 238.5269012
vertex 28.84682465 55.24869537 238.8798523

endloop
endfacet
facet normal 0.9483175278 0.3131660521 0.05119486898
outer loop
vertex 28.88756561 55.15526581 238.696701
vertex 28.84682465 55.24869537 238.8798523
vertex 29.0459671 54.62465668 239.0083313

endloop
endfacet
facet normal 0.9497381449 0.3107945025 0.03747402877
outer loop
vertex 29.0459671 54.62465668 239.0083313
vertex 28.84682465 55.24869537 238.8798523
vertex 29.00710297 54.7218399 239.1873016

endloop
endfacet
facet normal 0.9382878542 0.3454778492 0.01615402848
outer loop
vertex 29.0459671 54.62465668 239.0083313
vertex 29.00710297 54.7218399 239.1873016
vertex 29.24507904 54.06781769 239.3519745

endloop
endfacet
facet normal 0.9409850836 0.3379976451 -0.01745250635
outer loop
vertex 29.24507904 54.06781769 239.3519745
vertex 29.00710297 54.7218399 239.1873016
vertex 29.21065521 54.17273712 239.5278931

endloop
endfacet
facet normal 0.9254506826 0.3763762414 -0.0433816053
outer loop
vertex 29.24507904 54.06781769 239.3519745
vertex 29.21065521 54.17273712 239.5278931
vertex 29.48032379 53.53044891 239.7082214

endloop
endfacet
facet normal 0.9270754457 0.3634278476 -0.09193076938
outer loop
vertex 29.48032379 53.53044891 239.7082214
vertex 29.21065521 54.17273712 239.5278931
vertex 29.45275116 53.64420319 239.8798676

endloop
endfacet
facet normal 0.9036257863 0.4093337357 -0.1261206716
outer loop
vertex 29.48032379 53.53044891 239.7082214
vertex 29.45275116 53.64420319 239.8798676
vertex 29.76044464 53.02516937 240.0753021

endloop
endfacet
facet normal 0.9024839997 0.3927689493 -0.176791355
outer loop
vertex 29.76044464 53.02516937 240.0753021
vertex 29.45275116 53.64420319 239.8798676
vertex 29.73972321 53.14772797 240.241806

endloop
endfacet
facet normal 0.8741328716 0.4366681576 -0.2126325369
outer loop
vertex 29.76044464 53.02516937 240.0753021
vertex 29.73972321 53.14772797 240.241806
vertex 30.09105682 52.54912567 240.4568329

endloop
endfacet
facet normal 0.8711462021 0.4198097587 -0.2546839416
outer loop
vertex 30.09105682 52.54912567 240.4568329
vertex 29.73972321 53.14772797 240.241806
vertex 30.07541656 52.67938995 240.6180573

endloop
endfacet
facet normal 0.8423165679 0.4562599361 -0.2869313359
outer loop
vertex 30.09107208 52.54912567 240.4568329
vertex 30.07543182 52.67938995 240.6180573
vertex 30.47002411 52.09819794 240.8522491

endloop
endfacet
facet normal 0.8390827775 0.4417561889 -0.3174767494
outer loop
vertex 30.47002411 52.09819794 240.8522491
vertex 30.07543182 52.67938995 240.6180573
vertex 30.45754242 52.23442841 241.0088196

endloop
endfacet
facet normal 0.8144220114 0.468351841 -0.3425833881
outer loop
vertex 30.47002411 52.09819794 240.8522491
vertex 30.45754242 52.23442841 241.0088196
vertex 30.88883209 51.66628265 241.2574005

endloop
endfacet
facet normal 0.8118054271 0.4574886858 -0.3628719449
outer loop
vertex 30.88883209 51.66628265 241.2574005
vertex 30.45754242 52.23442841 241.0088196
vertex 30.8783493 51.80643463 241.4106445

endloop
endfacet
facet normal 0.7940832376 0.4745714068 -0.3797548115
outer loop
vertex 30.88884735 51.66629791 241.2574158
vertex 30.87836456 51.80646515 241.4106598
vertex 31.33791351 51.24477386 241.6696625

endloop
endfacet
facet normal 0.7922648191 0.4672355056 -0.3924376369
outer loop
vertex 31.33791351 51.24477386 241.6696625
vertex 30.87836456 51.80646515 241.4106598
vertex 31.32892609 51.38712311 241.8209991

endloop
endfacet
facet normal 0.7824317217 0.4761233926 -0.4013816118
outer loop
vertex 31.33791351 51.24477386 241.6696625
vertex 31.32892609 51.38712311 241.8209991
vertex 31.80725861 50.82596588 242.0877838

endloop
endfacet
facet normal 0.7814272642 0.4721085131 -0.4080257118
outer loop
vertex 31.80725861 50.82596588 242.0877838
vertex 31.32892609 51.38712311 241.8209991
vertex 31.79936981 50.96918488 242.2383881

endloop
endfacet
facet normal 0.7780939341 0.4750375152 -0.4109855294
outer loop
vertex 31.80725861 50.82596588 242.0877838
vertex 31.79936981 50.96918488 242.2383881
vertex 32.28582001 50.40558624 242.5079193

endloop
endfacet
facet normal 0.7775942087 0.4730799198 -0.4141769707
outer loop
vertex 32.28582001 50.40558624 242.5079193
vertex 31.79936981 50.96918488 242.2383881
vertex 32.27906036 50.54868317 242.6586761

endloop
endfacet
facet normal 0.7774704695 0.4731883109 -0.414285481
outer loop
vertex 32.28582001 50.40558624 242.5079193
vertex 32.27906036 50.54868317 242.6586761
vertex 32.76508331 49.98040009 242.9216919

endloop
endfacet
facet normal 0.7766180038 0.4701130986 -0.4193544686
outer loop
vertex 32.76508331 49.98040009 242.9216919
vertex 32.27906036 50.54868317 242.6586761
vertex 32.76093292 50.12256622 243.0733795

endloop
endfacet
facet normal 0.7753977776 0.4711719453 -0.4204226434
outer loop
vertex 32.76511383 49.9804306 242.9217224
vertex 32.76096344 50.12259674 243.0733948
vertex 33.2450943 49.54505157 243.3190308

endloop
endfacet
facet normal 0.7730285525 0.4640232027 -0.4325614572
outer loop
vertex 33.2450943 49.54505157 243.3190308
vertex 32.76096344 50.12259674 243.0733948
vertex 33.24628448 49.68573761 243.4720764

endloop
endfacet
facet normal 0.7673829794 0.4690647125 -0.4371517599
outer loop
vertex 33.2450943 49.54505157 243.3190308
vertex 33.24628448 49.68573761 243.4720764
vertex 33.7305069 49.09622955 243.6895447

endloop
endfacet
facet normal 0.7617928386 0.4559839368 -0.4601634145
outer loop
vertex 33.7305069 49.09622955 243.6895447
vertex 33.24628448 49.68573761 243.4720764
vertex 33.74039459 49.23525238 243.8436737

endloop
endfacet
facet normal 0.7496502995 0.4668164849 -0.4691553414
outer loop
vertex 33.7305069 49.09622955 243.6895447
vertex 33.74039459 49.23525238 243.8436737
vertex 34.22205353 48.6366806 244.0177155

endloop
endfacet
facet normal 0.7379534841 0.4467471242 -0.5058078766
outer loop
vertex 34.22205353 48.6366806 244.0177155
vertex 33.74039459 49.23525238 243.8436737
vertex 34.24465179 48.77385712 244.1718445

endloop
endfacet
facet normal 0.7193537951 0.4631662965 -0.517694056
outer loop
vertex 34.22205353 48.6366806 244.0177155
vertex 34.24465179 48.77385712 244.1718445
vertex 34.70775604 48.18183136 244.285675

endloop
endfacet
facet normal 0.6993023157 0.4384719133 -0.5645515919
outer loop
vertex 34.70775604 48.18183136 244.285675
vertex 34.24465179 48.77385712 244.1718445
vertex 34.74567413 48.31719208 244.4377747

endloop
endfacet
facet normal 0.6713789105 0.4625680447 -0.5790346265
outer loop
vertex 34.70775604 48.18183136 244.285675
vertex 34.74567413 48.31719208 244.4377747
vertex 35.17079926 47.75287628 244.4798889

endloop
endfacet
facet normal 0.6419173479 0.4365417361 -0.6303756237
outer loop
vertex 35.17079926 47.75287628 244.4798889
vertex 34.74567413 48.31719208 244.4377747
vertex 35.22577667 47.88829803 244.6296539

endloop
endfacet
facet normal 0.6377391219 0.4402311444 -0.6320484877
outer loop
vertex 35.17079926 47.75287628 244.4798889
vertex 35.22576141 47.88829803 244.6296692
vertex 35.67917633 47.22122955 244.6225433

endloop
endfacet
facet normal 0.5879026055 0.4070723057 -0.6990440488
outer loop
vertex 35.67917633 47.22122955 244.6225433
vertex 35.22576141 47.88829803 244.6296692
vertex 35.75521088 47.36779022 244.7718353

endloop
endfacet
facet normal 0.9177214503 -0.07970967889 -0.3891449869
outer loop
vertex 35.67917633 47.22122955 244.6225433
vertex 35.75521088 47.36779022 244.7718353
vertex 35.85541534 46.67246246 245.1505737

endloop
endfacet
facet normal 0.6356944442 0.4379327893 0.6356944442
outer loop
vertex 35.85541534 46.67246246 245.1505737
vertex 35.75521088 47.36779022 244.7718353
vertex 35.85540009 46.67246246 245.150589

endloop
endfacet
facet normal -0.6346444488 -0.5464550853 0.5464550853
outer loop
vertex 28.10079193 56.13507843 238.1472778
vertex 28.10079193 56.13506317 238.1472626
vertex 28.68624115 55.8347702 238.5269012

endloop
endfacet
facet normal 0.4490417838 0.8933979273 0.01419757213
outer loop
vertex 28.68624115 55.8347702 238.5269012
vertex 28.10079193 56.13506317 238.1472626
vertex 28.53813934 55.90601349 238.7280121

endloop
endfacet
facet normal 0.7838997245 0.4635480046 0.4130671024
outer loop
vertex 28.68624115 55.8347702 238.5269012
vertex 28.53813934 55.90601349 238.7280121
vertex 28.84682465 55.24869537 238.8798523

endloop
endfacet
facet normal 0.7853624225 0.4635820687 0.4102409184
outer loop
vertex 28.84682465 55.24869537 238.8798523
vertex 28.53813934 55.90601349 238.7280121
vertex 28.70487213 55.31847382 239.0727539

endloop
endfacet
facet normal 0.7823025584 0.4738966525 0.404258132
outer loop
vertex 28.84682465 55.24869537 238.8798523
vertex 28.70487213 55.31847382 239.0727539
vertex 29.00710297 54.7218399 239.1873016

endloop
endfacet
facet normal 0.7889991999 0.4745876193 0.390188247
outer loop
vertex 29.00710297 54.7218399 239.1873016
vertex 28.70487213 55.31847382 239.0727539
vertex 28.86882782 54.79451752 239.3785095

endloop
endfacet
facet normal 0.7757951617 0.5143188238 0.365537852
outer loop
vertex 29.00710297 54.7218399 239.1873016
vertex 28.86882782 54.79451752 239.3785095
vertex 29.21065521 54.17273712 239.5278931

endloop
endfacet
facet normal 0.7900756001 0.5144399405 0.3333648741
outer loop
vertex 29.21065521 54.17273712 239.5278931
vertex 28.86882782 54.79451752 239.3785095
vertex 29.07794952 54.2511673 239.7213745

endloop
endfacet
facet normal 0.7728866935 0.5567516088 0.3044237196
outer loop
vertex 29.21065521 54.17273712 239.5278931
vertex 29.07794952 54.2511673 239.7213745
vertex 29.45275116 53.64420319 239.8798676

endloop
endfacet
facet normal 0.7909690142 0.55543679 0.2566281259
outer loop
vertex 29.45275116 53.64420319 239.8798676
vertex 29.07794952 54.2511673 239.7213745
vertex 29.32915497 53.72928619 240.0766602

endloop
endfacet
facet normal 0.7662829757 0.6035459042 0.220324114
outer loop
vertex 29.45275116 53.64420319 239.8798676
vertex 29.32915497 53.72928619 240.0766602
vertex 29.73972321 53.14772797 240.241806

endloop
endfacet
facet normal 0.7819476724 0.6000137329 0.168941766
outer loop
vertex 29.73972321 53.14772797 240.241806
vertex 29.32915497 53.72928619 240.0766602
vertex 29.62622833 53.23934174 240.4417419

endloop
endfacet
facet normal 0.7526147366 0.6451771259 0.1315961629
outer loop
vertex 29.73972321 53.14772797 240.241806
vertex 29.62622833 53.23934174 240.4417419
vertex 30.07541656 52.67938995 240.6180573

endloop
endfacet
facet normal 0.7634701729 0.6399222016 0.087251544
outer loop
vertex 30.07541656 52.67938995 240.6180573
vertex 29.62622833 53.23934174 240.4417419
vertex 29.97071075 52.77677155 240.8200378

endloop
endfacet
facet normal 0.7337168455 0.6773223877 0.05379589647
outer loop
vertex 30.07543182 52.67938995 240.6180573
vertex 29.97071075 52.7767868 240.8200531
vertex 30.45754242 52.23442841 241.0088196

endloop
endfacet
facet normal 0.7403864264 0.6718566418 0.02089126967
outer loop
vertex 30.45754242 52.23442841 241.0088196
vertex 29.97071075 52.7767868 240.8200531
vertex 30.35941315 52.33625031 241.2119598

endloop
endfacet
facet normal 0.7152850628 0.6988166571 -0.004747630097
outer loop
vertex 30.45754242 52.23442841 241.0088196
vertex 30.35941315 52.33625031 241.2119598
vertex 30.8783493 51.80643463 241.4106445

endloop
endfacet
facet normal 0.7192735076 0.6941815019 -0.02752504684
outer loop
vertex 30.8783493 51.80643463 241.4106445
vertex 30.35941315 52.33625031 241.2119598
vertex 30.78499603 51.91124725 241.6145477

endloop
endfacet
facet normal 0.7018290162 0.7109826207 -0.04404225945
outer loop
vertex 30.87836456 51.80646515 241.4106598
vertex 30.78499603 51.91126251 241.614563
vertex 31.32892609 51.38712311 241.8209991

endloop
endfacet
facet normal 0.7041020393 0.7076950073 -0.05837860703
outer loop
vertex 31.32892609 51.38712311 241.8209991
vertex 30.78499603 51.91126251 241.614563
vertex 31.23888397 51.49358368 242.0255737

endloop
endfacet
facet normal 0.6950597167 0.7158599496 -0.06660754979
outer loop
vertex 31.32892609 51.38712311 241.8209991
vertex 31.23888397 51.49358368 242.0255737
vertex 31.79936981 50.96918488 242.2383881

endloop
endfacet
facet normal 0.6961873174 0.7140257955 -0.07409670949
outer loop
vertex 31.79936981 50.96918488 242.2383881
vertex 31.23888397 51.49358368 242.0255737
vertex 31.71134186 51.07630157 242.4435272

endloop
endfacet
facet normal 0.6940906644 0.7158689499 -0.0759588629
outer loop
vertex 31.79936981 50.96918488 242.2383881
vertex 31.71134186 51.07630157 242.4435272
vertex 32.27906036 50.54868317 242.6586761

endloop
endfacet
facet normal 0.694633007 0.7149387598 -0.07967108488
outer loop
vertex 32.27906036 50.54868317 242.6586761
vertex 31.71134186 51.07630157 242.4435272
vertex 32.19252777 50.65569305 242.8644867

endloop
endfacet
facet normal 0.6970619559 0.7128058672 -0.07754070312
outer loop
vertex 32.27906036 50.54868317 242.6586761
vertex 32.19252777 50.65569305 242.8644867
vertex 32.76093292 50.12256622 243.0733795

endloop
endfacet
facet normal 0.6978485584 0.7113837004 -0.08331076801
outer loop
vertex 32.76093292 50.12256622 243.0733795
vertex 32.19252777 50.65569305 242.8644867
vertex 32.67728424 50.22890472 243.2807159

endloop
endfacet
facet normal 0.7021867037 0.7075420022 -0.0794865191
outer loop
vertex 32.76096344 50.12259674 243.0733948
vertex 32.6772995 50.22891998 243.2807312
vertex 33.24628448 49.68573761 243.4720764

endloop
endfacet
facet normal 0.7037767768 0.7042235136 -0.09363485128
outer loop
vertex 33.24628448 49.68573761 243.4720764
vertex 32.6772995 50.22891998 243.2807312
vertex 33.16895294 49.79097748 243.6823425

endloop
endfacet
facet normal 0.707349658 0.7010185122 -0.09071677178
outer loop
vertex 33.24628448 49.68573761 243.4720764
vertex 33.16895294 49.79097748 243.6823425
vertex 33.74039459 49.23525238 243.8436737

endloop
endfacet
facet normal 0.7091867328 0.6951992512 -0.1172693819
outer loop
vertex 33.74039459 49.23525238 243.8436737
vertex 33.16895294 49.79097748 243.6823425
vertex 33.67392731 49.33922577 244.0580902

endloop
endfacet
facet normal 0.7105919123 0.6939390302 -0.1162227616
outer loop
vertex 33.74039459 49.23525238 243.8436737
vertex 33.67392731 49.33922577 244.0580902
vertex 34.24465179 48.77385712 244.1718445

endloop
endfacet
facet normal 0.7106214762 0.6852908731 -0.1593535244
outer loop
vertex 34.24465179 48.77385712 244.1718445
vertex 33.67392731 49.33922577 244.0580902
vertex 34.19484711 48.87647247 244.391037

endloop
endfacet
facet normal 0.7099602222 0.6858771443 -0.1597781628
outer loop
vertex 34.24465179 48.77385712 244.1718445
vertex 34.19484711 48.87647247 244.391037
vertex 34.74567413 48.31719208 244.4377747

endloop
endfacet
facet normal 0.7045874596 0.6758669615 -0.216241762
outer loop
vertex 34.74567413 48.31719208 244.4377747
vertex 34.19484711 48.87647247 244.391037
vertex 34.71698761 48.41841888 244.6606903

endloop
endfacet
facet normal 0.6973254085 0.6821471453 -0.2200282365
outer loop
vertex 34.74567413 48.31719208 244.4377747
vertex 34.71698761 48.41841888 244.6606903
vertex 35.22577667 47.88829803 244.6296539

endloop
endfacet
facet normal 0.6837115288 0.6727526784 -0.2827406824
outer loop
vertex 35.22577667 47.88829803 244.6296539
vertex 34.71698761 48.41841888 244.6606903
vertex 35.22023773 47.98947906 244.8570099

endloop
endfacet
facet normal 0.7108151317 0.6488775015 -0.2714774609
outer loop
vertex 35.22576141 47.88829803 244.6296692
vertex 35.22023773 47.98946381 244.8570099
vertex 35.75521088 47.36779022 244.7718353

endloop
endfacet
facet normal 0.6968150735 0.6431386471 -0.3175239861
outer loop
vertex 35.75521088 47.36779022 244.7718353
vertex 35.22023773 47.98946381 244.8570099
vertex 35.76696014 47.47211456 245.0089264

endloop
endfacet
facet normal 0.991497457 0.09365283698 -0.09034351259
outer loop
vertex 35.75521088 47.36779022 244.7718353
vertex 35.76696014 47.47211456 245.0089264
vertex 35.85540009 46.67246246 245.150589

endloop
endfacet
facet normal -0.9912955165 -0.09312676638 0.09306249768
outer loop
vertex 35.85540009 46.67246246 245.150589
vertex 35.76696014 47.47211456 245.0089264
vertex 35.85540009 46.6724472 245.1505737

endloop
endfacet
facet normal -nan(ind) -nan(ind) -nan(ind)
outer loop
vertex 28.10079193 56.13506317 238.1472626
vertex 28.10079193 56.13506317 238.1472626
vertex 28.53813934 55.90601349 238.7280121

endloop
endfacet
facet normal 0.1362496912 0.952319026 0.2729919255
outer loop
vertex 28.53813934 55.90601349 238.7280121
vertex 28.10079193 56.13506317 238.1472626
vertex 28.30115509 55.90602875 238.8462372

endloop
endfacet
facet normal 0.3740195334 0.5460054278 0.749658227
outer loop
vertex 28.53813934 55.90601349 238.7280121
vertex 28.30115509 55.90602875 238.8462372
vertex 28.70487213 55.31847382 239.0727539

endloop
endfacet
facet normal 0.3761657774 0.5468327999 0.7479793429
outer loop
vertex 28.70487213 55.31847382 239.0727539
vertex 28.30115509 55.90602875 238.8462372
vertex 28.47934723 55.31847382 239.1861725

endloop
endfacet
facet normal 0.3746506274 0.55196172 0.7449665666
outer loop
vertex 28.70487213 55.31847382 239.0727539
vertex 28.47934723 55.31847382 239.1861725
vertex 28.86882782 54.79451752 239.3785095

endloop
endfacet
facet normal 0.3859796226 0.5568910241 0.7354537249
outer loop
vertex 28.86882782 54.79451752 239.3785095
vertex 28.47934723 55.31847382 239.1861725
vertex 28.64765167 54.79450226 239.4945984

endloop
endfacet
facet normal 0.3739774823 0.5935941935 0.7125915885
outer loop
vertex 28.86882782 54.79451752 239.3785095
vertex 28.64765167 54.79450226 239.4945984
vertex 29.07794952 54.2511673 239.7213745

endloop
endfacet
facet normal 0.3990667462 0.6039875746 0.6898875237
outer loop
vertex 29.07794952 54.2511673 239.7213745
vertex 28.64765167 54.79450226 239.4945984
vertex 28.86135101 54.25115204 239.8466797

endloop
endfacet
facet normal 0.385229677 0.6388094425 0.6659734249
outer loop
vertex 29.07794952 54.2511673 239.7213745
vertex 28.86135101 54.25115204 239.8466797
vertex 29.32915497 53.72928619 240.0766602

endloop
endfacet
facet normal 0.4189977348 0.6534270048 0.6304554939
outer loop
vertex 29.32915497 53.72928619 240.0766602
vertex 28.86135101 54.25115204 239.8466797
vertex 29.12070465 53.72930145 240.2151794

endloop
endfacet
facet normal 0.4000522494 0.6911041737 0.6019412875
outer loop
vertex 29.32915497 53.72928619 240.0766602
vertex 29.12070465 53.72930145 240.2151794
vertex 29.62622833 53.23934174 240.4417419

endloop
endfacet
facet normal 0.4322709739 0.7056259513 0.5614568591
outer loop
vertex 29.62622833 53.23934174 240.4417419
vertex 29.12070465 53.72930145 240.2151794
vertex 29.42790985 53.23937225 240.5943909

endloop
endfacet
facet normal 0.4098967612 0.7406445146 0.532381773
outer loop
vertex 29.62622833 53.23934174 240.4417419
vertex 29.42790985 53.23937225 240.5943909
vertex 29.97071075 52.77677155 240.8200378

endloop
endfacet
facet normal 0.4344691336 0.7517650723 0.4960704148
outer loop
vertex 29.97071075 52.77677155 240.8200378
vertex 29.42790985 53.23937225 240.5943909
vertex 29.78240204 52.7767868 240.9849396

endloop
endfacet
facet normal 0.4114344418 0.7810041904 0.4698447585
outer loop
vertex 29.97071075 52.7767868 240.8200531
vertex 29.78238678 52.77680206 240.9849396
vertex 30.35941315 52.33625031 241.2119598

endloop
endfacet
facet normal 0.4281472266 0.7884004116 0.4417179227
outer loop
vertex 30.35941315 52.33625031 241.2119598
vertex 29.78238678 52.77680206 240.9849396
vertex 30.17961884 52.33625031 241.3862305

endloop
endfacet
facet normal 0.4089494944 0.8091668487 0.4219115376
outer loop
vertex 30.35941315 52.33625031 241.2119598
vertex 30.17961884 52.33625031 241.3862305
vertex 30.78499603 51.91124725 241.6145477

endloop
endfacet
facet normal 0.4197506011 0.8138056993 0.4019075632
outer loop
vertex 30.78499603 51.91124725 241.6145477
vertex 30.17961884 52.33625031 241.3862305
vertex 30.611763 51.91126251 241.7954407

endloop
endfacet
facet normal 0.4070911705 0.8260100484 0.3898514509
outer loop
vertex 30.78499603 51.91126251 241.614563
vertex 30.61177826 51.91126251 241.7954407
vertex 31.23888397 51.49358368 242.0255737

endloop
endfacet
facet normal 0.4136623442 0.8287466168 0.3769119084
outer loop
vertex 31.23888397 51.49358368 242.0255737
vertex 30.61177826 51.91126251 241.7954407
vertex 31.07015228 51.49359894 242.2107239

endloop
endfacet
facet normal 0.4078540504 0.8339993358 0.3716182709
outer loop
vertex 31.23888397 51.49358368 242.0255737
vertex 31.07015228 51.49359894 242.2107239
vertex 31.71134186 51.07630157 242.4435272

endloop
endfacet
facet normal 0.4111563265 0.8353355527 0.3649179339
outer loop
vertex 31.71134186 51.07630157 242.4435272
vertex 31.07015228 51.49359894 242.2107239
vertex 31.54503632 51.07630157 242.6309052

endloop
endfacet
facet normal 0.4110672474 0.835413754 0.364838928
outer loop
vertex 31.71134186 51.07630157 242.4435272
vertex 31.54503632 51.07630157 242.6309052
vertex 32.19252777 50.65569305 242.8644867

endloop
endfacet
facet normal 0.4127464294 0.836084187 0.3613911867
outer loop
vertex 32.19252777 50.65569305 242.8644867
vertex 31.54503632 51.07630157 242.6309052
vertex 32.02748871 50.65569305 243.0529785

endloop
endfacet
facet normal 0.4179130495 0.8315376639 0.3659149408
outer loop
vertex 32.19252777 50.65569305 242.8644867
vertex 32.02748871 50.65569305 243.0529785
vertex 32.67728424 50.22890472 243.2807159

endloop
endfacet
facet normal 0.42047894 0.8325846195 0.3605557084
outer loop
vertex 32.67728424 50.22890472 243.2807159
vertex 32.02748871 50.65569305 243.0529785
vertex 32.5141983 50.22891998 243.470871

endloop
endfacet
facet normal 0.43117854 0.8230614066 0.3696687818
outer loop
vertex 32.6772995 50.22891998 243.2807312
vertex 32.51422882 50.22893524 243.4709015
vertex 33.16895294 49.79097748 243.6823425

endloop
endfacet
facet normal 0.4370491505 0.8256329298 0.3568169475
outer loop
vertex 33.16895294 49.79097748 243.6823425
vertex 32.51422882 50.22893524 243.4709015
vertex 33.01056671 49.79097748 243.8763428

endloop
endfacet
facet normal 0.4519697726 0.81213516 0.3689984381
outer loop
vertex 33.16895294 49.79097748 243.6823425
vertex 33.01056671 49.79097748 243.8763428
vertex 33.67392731 49.33922577 244.0580902

endloop
endfacet
facet normal 0.4622344673 0.8172308207 0.3441991508
outer loop
vertex 33.67392731 49.33922577 244.0580902
vertex 33.01056671 49.79097748 243.8763428
vertex 33.52442169 49.33922577 244.2588654

endloop
endfacet
facet normal 0.4814072251 0.7998387814 0.3584760725
outer loop
vertex 33.67392731 49.33922577 244.0580902
vertex 33.52442169 49.33922577 244.2588654
vertex 34.19484711 48.87647247 244.391037

endloop
endfacet
facet normal 0.4953415692 0.8084385991 0.317905277
outer loop
vertex 34.19484711 48.87647247 244.391037
vertex 33.52442169 49.33922577 244.2588654
vertex 34.05982208 48.87647247 244.6014252

endloop
endfacet
facet normal 0.5187969804 0.7873933315 0.3329586983
outer loop
vertex 34.19484711 48.87647247 244.391037
vertex 34.05982208 48.87647247 244.6014252
vertex 34.71698761 48.41841888 244.6606903

endloop
endfacet
facet normal 0.5322192311 0.7995724678 0.2782563865
outer loop
vertex 34.71698761 48.41841888 244.6606903
vertex 34.05982208 48.87647247 244.6014252
vertex 34.60146332 48.41841888 244.8816528

endloop
endfacet
facet normal 0.5531208515 0.7813000679 0.2891843021
outer loop
vertex 34.71698761 48.41841888 244.6606903
vertex 34.60146332 48.41841888 244.8816528
vertex 35.22023773 47.98947906 244.8570099

endloop
endfacet
facet normal 0.5609760284 0.7962302566 0.2265464813
outer loop
vertex 35.22023773 47.98947906 244.8570099
vertex 34.60146332 48.41841888 244.8816528
vertex 35.12595367 47.98946381 245.0905304

endloop
endfacet
facet normal 0.6269216537 0.7368311286 0.2530790865
outer loop
vertex 35.22023773 47.98946381 244.8570099
vertex 35.12596893 47.98946381 245.0905304
vertex 35.76696014 47.47211456 245.0089264

endloop
endfacet
facet normal 0.63042593 0.7488463521 0.2044314444
outer loop
vertex 35.76696014 47.47211456 245.0089264
vertex 35.12596893 47.98946381 245.0905304
vertex 35.68544769 47.47208405 245.2604065

endloop
endfacet
facet normal 0.9393491745 0.1578235626 0.3044911921
outer loop
vertex 35.76696014 47.47211456 245.0089264
vertex 35.68544769 47.47208405 245.2604065
vertex 35.85540009 46.6724472 245.1505737

endloop
endfacet
facet normal -0.5429510474 0 -0.8397643566
outer loop
vertex 35.85540009 46.6724472 245.1505737
vertex 35.68544769 47.47208405 245.2604065
vertex 35.85540009 46.67246246 245.1505737

endloop
endfacet
facet normal 0.9612852335 0 -0.2755552828
outer loop
vertex 28.10079193 56.13506317 238.1472626
vertex 28.10079193 56.13507843 238.1472626
vertex 28.30115509 55.90602875 238.8462372

endloop
endfacet
facet normal -0.2587795854 0.8935101628 0.3669777513
outer loop
vertex 28.30115509 55.90602875 238.8462372
vertex 28.10079193 56.13507843 238.1472626
vertex 28.05141449 55.8347702 238.8436279

endloop
endfacet
facet normal -0.1413327456 0.4632959366 0.8748611212
outer loop
vertex 28.30115509 55.90602875 238.8462372
vertex 28.05141449 55.8347702 238.8436279
vertex 28.47934723 55.31847382 239.1861725

endloop
endfacet
facet normal -0.1393844038 0.464643836 0.8744587302
outer loop
vertex 28.47934723 55.31847382 239.1861725
vertex 28.05141449 55.8347702 238.8436279
vertex 28.23984528 55.24869537 239.1850739

endloop
endfacet
facet normal -0.1404547542 0.4683515131 0.8723069429
outer loop
vertex 28.47934723 55.31847382 239.1861725
vertex 28.23984528 55.24869537 239.1850739
vertex 28.64765167 54.79450226 239.4945984

endloop
endfacet
facet normal -0.1279818565 0.4774816036 0.8692709804
outer loop
vertex 28.64765167 54.79450226 239.4945984
vertex 28.23984528 55.24869537 239.1850739
vertex 28.41179657 54.7218399 239.4997864

endloop
endfacet
facet normal -0.1354550719 0.5007163286 0.8549473882
outer loop
vertex 28.64765167 54.79450226 239.4945984
vertex 28.41179657 54.7218399 239.4997864
vertex 28.86135101 54.25115204 239.8466797

endloop
endfacet
facet normal -0.1078966707 0.5209767818 0.8467240334
outer loop
vertex 28.86135101 54.25115204 239.8466797
vertex 28.41179657 54.7218399 239.4997864
vertex 28.62766266 54.17272186 239.8651581

endloop
endfacet
facet normal -0.1133212671 0.534913063 0.8372731209
outer loop
vertex 28.86135101 54.25115204 239.8466797
vertex 28.62766266 54.17272186 239.8651581
vertex 29.12070465 53.72930145 240.2151794

endloop
endfacet
facet normal -0.07539400458 0.5648338199 0.8217533231
outer loop
vertex 29.12070465 53.72930145 240.2151794
vertex 28.62766266 54.17272186 239.8651581
vertex 28.89174652 53.64421844 240.252655

endloop
endfacet
facet normal -0.08165686578 0.5775166154 0.8122848272
outer loop
vertex 29.12070465 53.72930145 240.2151794
vertex 28.89174652 53.64421844 240.252655
vertex 29.42790985 53.23937225 240.5943909

endloop
endfacet
facet normal -0.04407003522 0.60968256 0.7914195657
outer loop
vertex 29.42790985 53.23937225 240.5943909
vertex 28.89174652 53.64421844 240.252655
vertex 29.20594025 53.14774323 240.6526184

endloop
endfacet
facet normal -0.05121138692 0.6210550666 0.7820920944
outer loop
vertex 29.42790985 53.23937225 240.5943909
vertex 29.20594025 53.14774323 240.6526184
vertex 29.78240204 52.7767868 240.9849396

endloop
endfacet
facet normal -0.02153185569 0.6483303308 0.761054635
outer loop
vertex 29.78240204 52.7767868 240.9849396
vertex 29.20594025 53.14774323 240.6526184
vertex 29.56859589 52.67937469 241.0618744

endloop
endfacet
facet normal -0.02944449149 0.6584658623 0.7520344257
outer loop
vertex 29.78238678 52.77680206 240.9849396
vertex 29.56859589 52.67937469 241.0618744
vertex 30.17961884 52.33625031 241.3862305

endloop
endfacet
facet normal -0.008877089247 0.6785321832 0.7345170975
outer loop
vertex 30.17961884 52.33625031 241.3862305
vertex 29.56859589 52.67937469 241.0618744
vertex 29.97362518 52.23438263 241.4778442

endloop
endfacet
facet normal -0.01521883532 0.6854552627 0.7279556394
outer loop
vertex 30.17961884 52.33625031 241.3862305
vertex 29.97362518 52.23438263 241.4778442
vertex 30.611763 51.91126251 241.7954407

endloop
endfacet
facet normal -0.001757957856 0.6992156506 0.7149087191
outer loop
vertex 30.611763 51.91126251 241.7954407
vertex 29.97362518 52.23438263 241.4778442
vertex 30.412117 51.80641937 241.8974915

endloop
endfacet
facet normal -0.004860978574 0.7023870945 0.7117785215
outer loop
vertex 30.61177826 51.91126251 241.7954407
vertex 30.41213226 51.80643463 241.897522
vertex 31.07015228 51.49359894 242.2107239

endloop
endfacet
facet normal 0.003321977332 0.7109974027 0.70318681
outer loop
vertex 31.07015228 51.49359894 242.2107239
vertex 30.41213226 51.80643463 241.897522
vertex 30.87476349 51.38712311 242.3193054

endloop
endfacet
facet normal 0.003041851334 0.7112510204 0.7029314637
outer loop
vertex 31.07015228 51.49359894 242.2107239
vertex 30.87476349 51.38712311 242.3193054
vertex 31.54503632 51.07630157 242.6309052

endloop
endfacet
facet normal 0.007244370878 0.7157202363 0.6983495355
outer loop
vertex 31.54503632 51.07630157 242.6309052
vertex 30.87476349 51.38712311 242.3193054
vertex 31.35181427 50.96916962 242.7427063

endloop
endfacet
facet normal 0.009518410079 0.7137217522 0.7003646493
outer loop
vertex 31.54503632 51.07630157 242.6309052
vertex 31.35181427 50.96916962 242.7427063
vertex 32.02748871 50.65569305 243.0529785

endloop
endfacet
facet normal 0.01166793238 0.7160084844 0.697994113
outer loop
vertex 32.02748871 50.65569305 243.0529785
vertex 31.35181427 50.96916962 242.7427063
vertex 31.83490753 50.54866791 243.1659851

endloop
endfacet
facet normal 0.01836216822 0.7101281285 0.7038330436
outer loop
vertex 32.02748871 50.65569305 243.0529785
vertex 31.83490753 50.54866791 243.1659851
vertex 32.5141983 50.22891998 243.470871

endloop
endfacet
facet normal 0.0215929728 0.713573277 0.700247705
outer loop
vertex 32.5141983 50.22891998 243.470871
vertex 31.83490753 50.54866791 243.1659851
vertex 32.32201385 50.12258148 243.5851593

endloop
endfacet
facet normal 0.03610947728 0.7006274462 0.7126129866
outer loop
vertex 32.51422882 50.22893524 243.4709015
vertex 32.32204437 50.12259674 243.5851898
vertex 33.01056671 49.79097748 243.8763428

endloop
endfacet
facet normal 0.04390604049 0.7090599537 0.7037799954
outer loop
vertex 33.01056671 49.79097748 243.8763428
vertex 32.32204437 50.12259674 243.5851898
vertex 32.81996918 49.68575287 243.9942474

endloop
endfacet
facet normal 0.06707440317 0.6880904436 0.7225182056
outer loop
vertex 33.01056671 49.79097748 243.8763428
vertex 32.81996918 49.68575287 243.9942474
vertex 33.52442169 49.33922577 244.2588654

endloop
endfacet
facet normal 0.08113300055 0.7038370967 0.7057129145
outer loop
vertex 33.52442169 49.33922577 244.2588654
vertex 32.81996918 49.68575287 243.9942474
vertex 33.33792877 49.23523712 244.3840179

endloop
endfacet
facet normal 0.1146800891 0.6733527184 0.7303729057
outer loop
vertex 33.52442169 49.33922577 244.2588654
vertex 33.33792877 49.23523712 244.3840179
vertex 34.05982208 48.87647247 244.6014252

endloop
endfacet
facet normal 0.1358592957 0.6988966465 0.7022006512
outer loop
vertex 34.05982208 48.87647247 244.6014252
vertex 33.33792877 49.23523712 244.3840179
vertex 33.88121796 48.77385712 244.7381134

endloop
endfacet
facet normal 0.1798865348 0.6593250036 0.7300215364
outer loop
vertex 34.05982208 48.87647247 244.6014252
vertex 33.88121796 48.77385712 244.7381134
vertex 34.60146332 48.41841888 244.8816528

endloop
endfacet
facet normal 0.2043942362 0.6932647824 0.6910911202
outer loop
vertex 34.60146332 48.41841888 244.8816528
vertex 33.88121796 48.77385712 244.7381134
vertex 34.43476105 48.31719208 245.0325012

endloop
endfacet
facet normal 0.2498311847 0.6534301043 0.7145722508
outer loop
vertex 34.60146332 48.41841888 244.8816528
vertex 34.43476105 48.31719208 245.0325012
vertex 35.12595367 47.98946381 245.0905304

endloop
endfacet
facet normal 0.2722396255 0.6924645901 0.6681155562
outer loop
vertex 35.12595367 47.98946381 245.0905304
vertex 34.43476105 48.31719208 245.0325012
vertex 34.97206879 47.88829803 245.2580872

endloop
endfacet
facet normal 0.3577027619 0.6169728637 0.7009943724
outer loop
vertex 35.12596893 47.98946381 245.0905304
vertex 34.97206879 47.88829803 245.2581024
vertex 35.68544769 47.47208405 245.2604065

endloop
endfacet
facet normal 0.3747763038 0.6460370421 0.6649653316
outer loop
vertex 35.68544769 47.47208405 245.2604065
vertex 34.97206879 47.88829803 245.2581024
vertex 35.53679657 47.3677597 245.4455414

endloop
endfacet
facet normal 0.7575640082 0.07189840823 0.6487891674
outer loop
vertex 35.68544769 47.47208405 245.2604065
vertex 35.53679657 47.3677597 245.4455414
vertex 35.85540009 46.67246246 245.1505737

endloop
endfacet
facet normal 0.5998461246 0.5294989944 -0.5998461246
outer loop
vertex 35.85540009 46.67246246 245.1505737
vertex 35.53679657 47.3677597 245.4455414
vertex 35.85541534 46.67246246 245.150589

endloop
endfacet
facet normal -nan(ind) -nan(ind) -nan(ind)
outer loop
vertex 28.10079193 56.13507843 238.1472626
vertex 28.10079193 56.13507843 238.1472626
vertex 28.05141449 55.8347702 238.8436279

endloop
endfacet
facet normal -0.5765824318 0.7643215656 0.2887304127
outer loop
vertex 28.05141449 55.8347702 238.8436279
vertex 28.10079193 56.13507843 238.1472626
vertex 27.87368011 55.73471832 238.7535553

endloop
endfacet
facet normal -0.5543261766 0.2786830068 0.7842565775
outer loop
vertex 28.05141449 55.8347702 238.8436279
vertex 27.87368011 55.73471832 238.7535553
vertex 28.23984528 55.24869537 239.1850739

endloop
endfacet
facet normal -0.5235969424 0.3100736439 0.7935367823
outer loop
vertex 28.23984528 55.24869537 239.1850739
vertex 27.87368011 55.73471832 238.7535553
vertex 28.06856537 55.15526581 239.1085663

endloop
endfacet
facet normal -0.522205472 0.3052422702 0.7963219285
outer loop
vertex 28.23984528 55.24869537 239.1850739
vertex 28.06856537 55.15526581 239.1085663
vertex 28.41179657 54.7218399 239.4997864

endloop
endfacet
facet normal -0.5110259056 0.3166254759 0.7991249561
outer loop
vertex 28.41179657 54.7218399 239.4997864
vertex 28.06856537 55.15526581 239.1085663
vertex 28.24256134 54.62465668 239.430069

endloop
endfacet
facet normal -0.5140137076 0.3258888125 0.7934647202
outer loop
vertex 28.41179657 54.7218399 239.4997864
vertex 28.24256134 54.62465668 239.430069
vertex 28.62766266 54.17272186 239.8651581

endloop
endfacet
facet normal -0.4905856848 0.3501627743 0.797942102
outer loop
vertex 28.62766266 54.17272186 239.8651581
vertex 28.24256134 54.62465668 239.430069
vertex 28.45835114 54.06781769 239.8070984

endloop
endfacet
facet normal -0.4882211685 0.3440867066 0.8020252585
outer loop
vertex 28.62766266 54.17272186 239.8651581
vertex 28.45835114 54.06781769 239.8070984
vertex 28.89174652 53.64421844 240.252655

endloop
endfacet
facet normal -0.4549050331 0.3811475039 0.8048528433
outer loop
vertex 28.89174652 53.64421844 240.252655
vertex 28.45835114 54.06781769 239.8070984
vertex 28.72327423 53.53046417 240.2113037

endloop
endfacet
facet normal -0.4495691657 0.3703347445 0.8128589988
outer loop
vertex 28.89174652 53.64421844 240.252655
vertex 28.72327423 53.53046417 240.2113037
vertex 29.20594025 53.14774323 240.6526184

endloop
endfacet
facet normal -0.415805012 0.4110648632 0.8112533092
outer loop
vertex 29.20594025 53.14774323 240.6526184
vertex 28.72327423 53.53046417 240.2113037
vertex 29.04012299 53.02518463 240.6297302

endloop
endfacet
facet normal -0.4089126587 0.4000680447 0.820204854
outer loop
vertex 29.20594025 53.14774323 240.6526184
vertex 29.04012299 53.02518463 240.6297302
vertex 29.56859589 52.67937469 241.0618744

endloop
endfacet
facet normal -0.3815800548 0.4356354475 0.8152413964
outer loop
vertex 29.56859589 52.67937469 241.0618744
vertex 29.04012299 53.02518463 240.6297302
vertex 29.40705109 52.54912567 241.0558624

endloop
endfacet
facet normal -0.3752891719 0.4273057282 0.8225374222
outer loop
vertex 29.56859589 52.67937469 241.0618744
vertex 29.40706635 52.54911041 241.0558472
vertex 29.97362518 52.23438263 241.4778442

endloop
endfacet
facet normal -0.3560049236 0.4541791975 0.8166894913
outer loop
vertex 29.97362518 52.23438263 241.4778442
vertex 29.40706635 52.54911041 241.0558472
vertex 29.81694794 52.09818268 241.4852905

endloop
endfacet
facet normal -0.3502170444 0.447847873 0.8226666451
outer loop
vertex 29.97362518 52.23438263 241.4778442
vertex 29.81694794 52.09818268 241.4852905
vertex 30.412117 51.80641937 241.8974915

endloop
endfacet
facet normal -0.3374418318 0.4666580856 0.8175348639
outer loop
vertex 30.412117 51.80641937 241.8974915
vertex 29.81694794 52.09818268 241.4852905
vertex 30.25959015 51.6662674 241.9145355

endloop
endfacet
facet normal -0.332080543 0.4612465501 0.8227844238
outer loop
vertex 30.41213226 51.80643463 241.897522
vertex 30.25962067 51.66628265 241.9145355
vertex 30.87476349 51.38712311 242.3193054

endloop
endfacet
facet normal -0.3242708743 0.4731554091 0.8191289902
outer loop
vertex 30.87476349 51.38712311 242.3193054
vertex 30.25962067 51.66628265 241.9145355
vertex 30.72498322 51.24474335 242.3422546

endloop
endfacet
facet normal -0.3197343946 0.4690495133 0.8232633471
outer loop
vertex 30.87476349 51.38712311 242.3193054
vertex 30.72498322 51.24474335 242.3422546
vertex 31.35181427 50.96916962 242.7427063

endloop
endfacet
facet normal -0.3156934381 0.475296855 0.8212372661
outer loop
vertex 31.35181427 50.96916962 242.7427063
vertex 30.72498322 51.24474335 242.3422546
vertex 31.2032547 50.82596588 242.7684784

endloop
endfacet
facet normal -0.3118153512 0.4718924165 0.824674964
outer loop
vertex 31.35181427 50.96916962 242.7427063
vertex 31.2032547 50.82596588 242.7684784
vertex 31.83490753 50.54866791 243.1659851

endloop
endfacet
facet normal -0.3098390102 0.4749471545 0.8236654997
outer loop
vertex 31.83490753 50.54866791 243.1659851
vertex 31.2032547 50.82596588 242.7684784
vertex 31.68636322 50.40558624 243.1926117

endloop
endfacet
facet normal -0.303284049 0.4692046642 0.8293766975
outer loop
vertex 31.83490753 50.54866791 243.1659851
vertex 31.68636322 50.40558624 243.1926117
vertex 32.32201385 50.12258148 243.5851593

endloop
endfacet
facet normal -0.3002157807 0.4739221334 0.8278093338
outer loop
vertex 32.32201385 50.12258148 243.5851593
vertex 31.68636322 50.40558624 243.1926117
vertex 32.17275238 49.98040009 243.6124268

endloop
endfacet
facet normal -0.2857033014 0.4610395432 0.8401286602
outer loop
vertex 32.32204437 50.12259674 243.5851898
vertex 32.17276764 49.9804306 243.612442
vertex 32.81996918 49.68575287 243.9942474

endloop
endfacet
facet normal -0.2781766951 0.4725470245 0.8362518549
outer loop
vertex 32.81996918 49.68575287 243.9942474
vertex 32.17276764 49.9804306 243.612442
vertex 32.66976166 49.54505157 244.0237885

endloop
endfacet
facet normal -0.2530765235 0.449986428 0.8564254045
outer loop
vertex 32.81996918 49.68575287 243.9942474
vertex 32.66976166 49.54505157 244.0237885
vertex 33.33792877 49.23523712 244.3840179

endloop
endfacet
facet normal -0.2391072214 0.4713689387 0.8489046097
outer loop
vertex 33.33792877 49.23523712 244.3840179
vertex 32.66976166 49.54505157 244.0237885
vertex 33.18732452 49.09621429 244.4187927

endloop
endfacet
facet normal -0.2006617934 0.4367302358 0.8769273758
outer loop
vertex 33.33792877 49.23523712 244.3840179
vertex 33.18732452 49.09621429 244.4187927
vertex 33.88121796 48.77385712 244.7381134

endloop
endfacet
facet normal -0.1787967235 0.4708801806 0.8638886809
outer loop
vertex 33.88121796 48.77385712 244.7381134
vertex 33.18732452 49.09621429 244.4187927
vertex 33.73157501 48.63666534 244.7819214

endloop
endfacet
facet normal -0.1266552508 0.4244375527 0.8965551257
outer loop
vertex 33.88121796 48.77385712 244.7381134
vertex 33.73157501 48.63666534 244.7819214
vertex 34.43476105 48.31719208 245.0325012

endloop
endfacet
facet normal -0.09941873699 0.4693576396 0.8773934841
outer loop
vertex 34.43476105 48.31719208 245.0325012
vertex 33.73157501 48.63666534 244.7819214
vertex 34.28810883 48.1818161 245.0883026

endloop
endfacet
facet normal -0.04412048683 0.4212009609 0.9058935642
outer loop
vertex 34.43476105 48.31719208 245.0325012
vertex 34.28810883 48.1818161 245.0883026
vertex 34.97206879 47.88829803 245.2580872

endloop
endfacet
facet normal -0.01633758284 0.4718473852 0.8815288544
outer loop
vertex 34.97206879 47.88829803 245.2580872
vertex 34.28810883 48.1818161 245.0883026
vertex 34.82845306 47.75287628 245.3279114

endloop
endfacet
facet normal 0.0661431849 0.4007969201 0.9137762189
outer loop
vertex 34.97206879 47.88829803 245.2581024
vertex 34.82845306 47.75287628 245.3278961
vertex 35.53679657 47.3677597 245.4455414

endloop
endfacet
facet normal 0.06881953031 0.4050813019 0.9116869569
outer loop
vertex 35.53679657 47.3677597 245.4455414
vertex 34.82845306 47.75287628 245.3278961
vertex 35.38744354 47.22118378 245.5219421

endloop
endfacet
facet normal 0.5358232856 -0.1096030772 0.8371861577
outer loop
vertex 35.53679657 47.3677597 245.4455414
vertex 35.38744354 47.22118378 245.5219421
vertex 35.85541534 46.67246246 245.150589

endloop
endfacet
facet normal -0.1336529553 -0.6315469146 0.7637311816
outer loop
vertex 35.85541534 46.67246246 245.150589
vertex 35.38744354 47.22118378 245.5219421
vertex 35.85540009 46.6724472 245.1505737

endloop
endfacet
facet normal -0.936455071 0 -0.3507876694
outer loop
vertex 28.10079193 56.13507843 238.1472626
vertex 28.10079193 56.13506317 238.1472626
vertex 27.87368011 55.73471832 238.7535553

endloop
endfacet
facet normal -0.808324039 0.5829769969 0.08215811849
outer loop
vertex 27.87368011 55.73471832 238.7535553
vertex 28.10079193 56.13506317 238.1472626
vertex 27.78090668 55.62673187 238.6070404

endloop
endfacet
facet normal -0.8544493318 0.03038262576 0.5186455846
outer loop
vertex 27.87368011 55.73471832 238.7535553
vertex 27.78090668 55.62673187 238.6070404
vertex 28.06856537 55.15526581 239.1085663

endloop
endfacet
facet normal -0.8359330893 0.06913947314 0.5444590449
outer loop
vertex 28.06856537 55.15526581 239.1085663
vertex 27.78090668 55.62673187 238.6070404
vertex 27.97336578 55.05144501 238.9755859

endloop
endfacet
facet normal -0.8331922889 0.0598716028 0.5497326851
outer loop
vertex 28.06856537 55.15526581 239.1085663
vertex 27.97336578 55.05144501 238.9755859
vertex 28.24256134 54.62465668 239.430069

endloop
endfacet
facet normal -0.8268373609 0.07242641598 0.5577582717
outer loop
vertex 28.24256134 54.62465668 239.430069
vertex 27.97336578 55.05144501 238.9755859
vertex 28.14768219 54.51657867 239.3034515

endloop
endfacet
facet normal -0.8235763311 0.06254862249 0.5637462139
outer loop
vertex 28.24256134 54.62465668 239.430069
vertex 28.14768219 54.51657867 239.3034515
vertex 28.45835114 54.06781769 239.8070984

endloop
endfacet
facet normal -0.8101035953 0.08946677297 0.5794202685
outer loop
vertex 28.45835114 54.06781769 239.8070984
vertex 28.14768219 54.51657867 239.3034515
vertex 28.36142731 53.95111847 239.6896057

endloop
endfacet
facet normal -0.7977064848 0.0582202822 0.6002289653
outer loop
vertex 28.45835114 54.06781769 239.8070984
vertex 28.36142731 53.95111847 239.6896057
vertex 28.72327423 53.53046417 240.2113037

endloop
endfacet
facet normal -0.7783566713 0.09928794205 0.6199215651
outer loop
vertex 28.72327423 53.53046417 240.2113037
vertex 28.36142731 53.95111847 239.6896057
vertex 28.62389374 53.40389252 240.1067963

endloop
endfacet
facet normal -0.7590495348 0.06078902632 0.6481887102
outer loop
vertex 28.72327423 53.53046417 240.2113037
vertex 28.62389374 53.40389252 240.1067963
vertex 29.04012299 53.02518463 240.6297302

endloop
endfacet
facet normal -0.7388821244 0.1066414565 0.6653426886
outer loop
vertex 29.04012299 53.02518463 240.6297302
vertex 28.62389374 53.40389252 240.1067963
vertex 28.9394455 52.88883209 240.5397797

endloop
endfacet
facet normal -0.7158023119 0.07018965483 0.6947664618
outer loop
vertex 29.04012299 53.02518463 240.6297302
vertex 28.9394455 52.88883209 240.5397797
vertex 29.40705109 52.54912567 241.0558624

endloop
endfacet
facet normal -0.6991117001 0.1108005047 0.7063753009
outer loop
vertex 29.40705109 52.54912567 241.0558624
vertex 28.9394455 52.88883209 240.5397797
vertex 29.30692291 52.40422821 240.9794922

endloop
endfacet
facet normal -0.6765890718 0.08192173392 0.7317895889
outer loop
vertex 29.40706635 52.54911041 241.0558472
vertex 29.30692291 52.40422821 240.9794769
vertex 29.81694794 52.09818268 241.4852905

endloop
endfacet
facet normal -0.664701581 0.1128768548 0.738532722
outer loop
vertex 29.81694794 52.09818268 241.4852905
vertex 29.30692291 52.40422821 240.9794769
vertex 29.71860504 51.9466629 241.4199371

endloop
endfacet
facet normal -0.645519793 0.09194908291 0.7581883073
outer loop
vertex 29.81694794 52.09818268 241.4852905
vertex 29.71860504 51.9466629 241.4199371
vertex 30.25959015 51.6662674 241.9145355

endloop
endfacet
facet normal -0.6376929283 0.1135530621 0.7618749142
outer loop
vertex 30.25959015 51.6662674 241.9145355
vertex 29.71860504 51.9466629 241.4199371
vertex 30.16310883 51.51030731 241.8570251

endloop
endfacet
facet normal -0.6230450869 0.09940127283 0.7758441567
outer loop
vertex 30.25962067 51.66628265 241.9145355
vertex 30.16312408 51.51032257 241.8570251
vertex 30.72498322 51.24474335 242.3422546

endloop
endfacet
facet normal -0.6182003021 0.1132574752 0.7778181434
outer loop
vertex 30.72498322 51.24474335 242.3422546
vertex 30.16312408 51.51032257 241.8570251
vertex 30.62961578 51.08635712 242.2895203

endloop
endfacet
facet normal -0.6089096665 0.1048459783 0.7862800956
outer loop
vertex 30.72498322 51.24474335 242.3422546
vertex 30.62961578 51.08635712 242.2895203
vertex 31.2032547 50.82596588 242.7684784

endloop
endfacet
facet normal -0.6064340472 0.1120027155 0.7872059345
outer loop
vertex 31.2032547 50.82596588 242.7684784
vertex 30.62961578 51.08635712 242.2895203
vertex 31.10822296 50.66661835 242.7179413

endloop
endfacet
facet normal -0.6014053226 0.107588999 0.7916668057
outer loop
vertex 31.2032547 50.82596588 242.7684784
vertex 31.10822296 50.66661835 242.7179413
vertex 31.68636322 50.40558624 243.1926117

endloop
endfacet
facet normal -0.6001641154 0.1111548841 0.7921159267
outer loop
vertex 31.68636322 50.40558624 243.1926117
vertex 31.10822296 50.66661835 242.7179413
vertex 31.5908432 50.2463913 243.1425781

endloop
endfacet
facet normal -0.5947450399 0.1064187288 0.7968397141
outer loop
vertex 31.68636322 50.40558624 243.1926117
vertex 31.5908432 50.2463913 243.1425781
vertex 32.17275238 49.98040009 243.6124268

endloop
endfacet
facet normal -0.5927615166 0.1120135859 0.7975503802
outer loop
vertex 32.17275238 49.98040009 243.6124268
vertex 31.5908432 50.2463913 243.1425781
vertex 32.07558441 49.82222748 243.5624237

endloop
endfacet
facet normal -0.5803173184 0.1010469273 0.8080973625
outer loop
vertex 32.17276764 49.9804306 243.612442
vertex 32.07561493 49.82224274 243.5624542
vertex 32.66976166 49.54505157 244.0237885

endloop
endfacet
facet normal -0.5754617453 0.1142933741 0.809803009
outer loop
vertex 32.66976166 49.54505157 244.0237885
vertex 32.07561493 49.82224274 243.5624542
vertex 32.56957245 49.38851166 243.9746857

endloop
endfacet
facet normal -0.5517466068 0.09315856546 0.828792572
outer loop
vertex 32.66976166 49.54505157 244.0237885
vertex 32.56957245 49.38851166 243.9746857
vertex 33.18732452 49.09621429 244.4187927

endloop
endfacet
facet normal -0.542296946 0.1178267077 0.8318839073
outer loop
vertex 33.18732452 49.09621429 244.4187927
vertex 32.56957245 49.38851166 243.9746857
vertex 33.08295441 48.94152069 244.3726654

endloop
endfacet
facet normal -0.5034845471 0.08326158673 0.859983027
outer loop
vertex 33.18732452 49.09621429 244.4187927
vertex 33.08295441 48.94152069 244.3726654
vertex 33.73157501 48.63666534 244.7819214

endloop
endfacet
facet normal -0.4878078103 0.1224403158 0.8643217087
outer loop
vertex 33.73157501 48.63666534 244.7819214
vertex 33.08295441 48.94152069 244.3726654
vertex 33.62212372 48.48400116 244.7417755

endloop
endfacet
facet normal -0.4334497154 0.07458987087 0.8980855942
outer loop
vertex 33.73157501 48.63666534 244.7819214
vertex 33.62212372 48.48400116 244.7417755
vertex 34.28810883 48.1818161 245.0883026

endloop
endfacet
facet normal -0.4124068916 0.1257715672 0.9022760987
outer loop
vertex 34.28810883 48.1818161 245.0883026
vertex 33.62212372 48.48400116 244.7417755
vertex 34.17378998 48.03125763 245.0570374

endloop
endfacet
facet normal -0.3538289666 0.07506003976 0.9322934747
outer loop
vertex 34.28810883 48.1818161 245.0883026
vertex 34.17378998 48.03125763 245.0570374
vertex 34.82845306 47.75287628 245.3279114

endloop
endfacet
facet normal -0.3303953707 0.1323341876 0.9345193505
outer loop
vertex 34.82845306 47.75287628 245.3279114
vertex 34.17378998 48.03125763 245.0570374
vertex 34.70856476 47.60236359 245.306839

endloop
endfacet
facet normal -0.2627610266 0.07482276857 0.9619554281
outer loop
vertex 34.82845306 47.75287628 245.3278961
vertex 34.70856476 47.60237885 245.3068542
vertex 35.38744354 47.22118378 245.5219421

endloop
endfacet
facet normal -0.2632677853 0.0738831535 0.9618895054
outer loop
vertex 35.38744354 47.22118378 245.5219421
vertex 34.70856476 47.60237885 245.3068542
vertex 35.26033783 47.0630722 245.4992981

endloop
endfacet
facet normal 0.2862991095 -0.3574683964 0.8889596462
outer loop
vertex 35.38744354 47.22118378 245.5219421
vertex 35.26033783 47.0630722 245.4992981
vertex 35.85540009 46.6724472 245.1505737

endloop
endfacet
facet normal 0.5057194829 0 0.8626979589
outer loop
vertex 35.85540009 46.6724472 245.1505737
vertex 35.26033783 47.0630722 245.4992981
vertex 35.85540009 46.67243195 245.1505737

endloop
endfacet
facet normal 0.7700276971 -0.6201584935 -0.1498692036
outer loop
vertex 28.10077667 56.13504791 238.1472473
vertex 28.10079193 56.13506317 238.1472626
vertex 27.78087616 55.62673187 238.6070099

endloop
endfacet
facet normal -0.9035320282 0.3637412786 -0.2265441865
outer loop
vertex 27.78087616 55.62673187 238.6070099
vertex 28.10079193 56.13506317 238.1472626
vertex 27.78704071 55.50670624 238.3897095

endloop
endfacet
facet normal -0.9616964459 -0.2505811751 0.1111260653
outer loop
vertex 27.78087616 55.62673187 238.6070099
vertex 27.78704071 55.50670624 238.3897095
vertex 27.97336578 55.05142975 238.9755707

endloop
endfacet
facet normal -0.9659793377 -0.2196450084 0.1365288496
outer loop
vertex 27.97336578 55.05142975 238.9755707
vertex 27.78704071 55.50670624 238.3897095
vertex 27.97121429 54.92842865 238.7624664

endloop
endfacet
facet normal -0.9634979367 -0.2275385261 0.141059801
outer loop
vertex 27.97336578 55.05142975 238.9755707
vertex 27.97121429 54.92842865 238.7624664
vertex 28.14768219 54.51656342 239.3034515

endloop
endfacet
facet normal -0.9648709893 -0.2149089724 0.1511228234
outer loop
vertex 28.14768219 54.51656342 239.3034515
vertex 27.97121429 54.92842865 238.7624664
vertex 28.1437912 54.38837433 239.0963135

endloop
endfacet
facet normal -0.9545833468 -0.2449969798 0.169549793
outer loop
vertex 28.14768219 54.51656342 239.3034515
vertex 28.1437912 54.38837433 239.0963135
vertex 28.36139679 53.95110321 239.6896057

endloop
endfacet
facet normal -0.957238853 -0.2174148709 0.1908524334
outer loop
vertex 28.36139679 53.95110321 239.6896057
vertex 28.1437912 54.38837433 239.0963135
vertex 28.35279083 53.81272125 239.4888

endloop
endfacet
facet normal -0.9342199564 -0.2737450004 0.2286849171
outer loop
vertex 28.36139679 53.95110321 239.6896057
vertex 28.35279083 53.81272125 239.4888
vertex 28.62386322 53.40389252 240.1067963

endloop
endfacet
facet normal -0.9378833175 -0.2322802097 0.2577224076
outer loop
vertex 28.62386322 53.40389252 240.1067963
vertex 28.35279083 53.81272125 239.4888
vertex 28.60829926 53.25382233 239.9149017

endloop
endfacet
facet normal -0.9045551419 -0.2971487641 0.3057493865
outer loop
vertex 28.62386322 53.40389252 240.1067963
vertex 28.60829926 53.25382233 239.9149017
vertex 28.93941498 52.88883209 240.5397797

endloop
endfacet
facet normal -0.9082587361 -0.2515622079 0.3343388438
outer loop
vertex 28.93941498 52.88883209 240.5397797
vertex 28.60829926 53.25382233 239.9149017
vertex 28.91733551 52.72718048 240.3581696

endloop
endfacet
facet normal -0.8695015311 -0.3117014766 0.383156985
outer loop
vertex 28.93941498 52.88883209 240.5397797
vertex 28.91733551 52.72718048 240.3581696
vertex 29.30690765 52.40421295 240.9794922

endloop
endfacet
facet normal -0.872600913 -0.2716777325 0.4059049487
outer loop
vertex 29.30690765 52.40421295 240.9794922
vertex 28.91733551 52.72718048 240.3581696
vertex 29.2806015 52.23241425 240.8079529

endloop
endfacet
facet normal -0.8348007798 -0.3196855783 0.4482285082
outer loop
vertex 29.30690765 52.40421295 240.9794922
vertex 29.2806015 52.23241425 240.8079681
vertex 29.71860504 51.9466629 241.4199219

endloop
endfacet
facet normal -0.8372050524 -0.2890877128 0.4642370343
outer loop
vertex 29.71860504 51.9466629 241.4199219
vertex 29.2806015 52.23241425 240.8079681
vertex 29.69023895 51.76699066 241.2568817

endloop
endfacet
facet normal -0.8055993319 -0.3233192861 0.4964617491
outer loop
vertex 29.71860504 51.9466629 241.4199219
vertex 29.69023895 51.76699066 241.2568817
vertex 30.16309357 51.51030731 241.8570099

endloop
endfacet
facet normal -0.8073351979 -0.3020555973 0.5069242716
outer loop
vertex 30.16309357 51.51030731 241.8570099
vertex 29.69023895 51.76699066 241.2568817
vertex 30.13370514 51.32540131 241.7000275

endloop
endfacet
facet normal -0.7845802903 -0.3239385486 0.5286752582
outer loop
vertex 30.16312408 51.51032257 241.8570099
vertex 30.13370514 51.32540131 241.7000427
vertex 30.62960052 51.08635712 242.289505

endloop
endfacet
facet normal -0.7856857181 -0.3105216622 0.535046041
outer loop
vertex 30.62960052 51.08635712 242.289505
vertex 30.13370514 51.32540131 241.7000427
vertex 30.5993576 50.8985672 242.1361084

endloop
endfacet
facet normal -0.7724890113 -0.3224631548 0.5470632911
outer loop
vertex 30.62960052 51.08635712 242.289505
vertex 30.5993576 50.8985672 242.1361084
vertex 31.1082077 50.66663361 242.717926

endloop
endfacet
facet normal -0.77305758 -0.3153520525 0.5503953099
outer loop
vertex 31.1082077 50.66663361 242.717926
vertex 30.5993576 50.8985672 242.1361084
vertex 31.07714081 50.47769928 242.56604

endloop
endfacet
facet normal -0.7674735785 -0.3202575147 0.5553551316
outer loop
vertex 31.1082077 50.66663361 242.717926
vertex 31.07714081 50.47769928 242.56604
vertex 31.5908432 50.2463913 243.1425629

endloop
endfacet
facet normal -0.7677456737 -0.3166518211 0.5570441484
outer loop
vertex 31.5908432 50.2463913 243.1425629
vertex 31.07714081 50.47769928 242.56604
vertex 31.55857086 50.05757904 242.9907532

endloop
endfacet
facet normal -0.7644937634 -0.3194933236 0.5598868728
outer loop
vertex 31.5908432 50.2463913 243.1425629
vertex 31.55857086 50.05757904 242.9907532
vertex 32.07559967 49.82219696 243.5624084

endloop
endfacet
facet normal -0.7648580074 -0.3140879273 0.5624419451
outer loop
vertex 32.07559967 49.82219696 243.5624084
vertex 31.55857086 50.05757904 242.9907532
vertex 32.04039764 49.63465118 243.4098053

endloop
endfacet
facet normal -0.7569234967 -0.3210525215 0.5692030787
outer loop
vertex 32.07561493 49.82222748 243.562439
vertex 32.0404129 49.63466644 243.4098358
vertex 32.56955719 49.3884964 243.9746399

endloop
endfacet
facet normal -0.7575721741 -0.3081795573 0.5754215121
outer loop
vertex 32.56955719 49.3884964 243.9746399
vertex 32.0404129 49.63466644 243.4098358
vertex 32.52849579 49.20290375 243.8211823

endloop
endfacet
facet normal -0.7395579219 -0.3241402209 0.5899043083
outer loop
vertex 32.56955719 49.3884964 243.9746399
vertex 32.52849579 49.20290375 243.8211823
vertex 33.08293915 48.94150543 244.3726501

endloop
endfacet
facet normal -0.7400929332 -0.2999025285 0.6019309759
outer loop
vertex 33.08293915 48.94150543 244.3726501
vertex 32.52849579 49.20290375 243.8211823
vertex 33.0326004 48.75812531 244.2193909

endloop
endfacet
facet normal -0.7073609829 -0.3287810683 0.62573421
outer loop
vertex 33.08293915 48.94150543 244.3726501
vertex 33.0326004 48.75812531 244.2193909
vertex 33.62212372 48.4839859 244.7417755

endloop
endfacet
facet normal -0.706702292 -0.2899508774 0.6453684568
outer loop
vertex 33.62212372 48.4839859 244.7417755
vertex 33.0326004 48.75812531 244.2193909
vertex 33.55861664 48.30301666 244.5909271

endloop
endfacet
facet normal -0.6584464312 -0.3319678903 0.6754596233
outer loop
vertex 33.62212372 48.4839859 244.7417755
vertex 33.55861664 48.30301666 244.5909271
vertex 34.17377472 48.03124237 245.0570221

endloop
endfacet
facet normal -0.6554122567 -0.2816701829 0.7007829547
outer loop
vertex 34.17377472 48.03124237 245.0570221
vertex 33.55861664 48.30301666 244.5909271
vertex 34.09490204 47.85271454 244.911499

endloop
endfacet
facet normal -0.6024913192 -0.3272099197 0.7279682755
outer loop
vertex 34.17377472 48.03124237 245.0570221
vertex 34.09490204 47.85271454 244.911499
vertex 34.7085495 47.60234833 245.306839

endloop
endfacet
facet normal -0.5969290733 -0.2702476084 0.7554084063
outer loop
vertex 34.7085495 47.60234833 245.306839
vertex 34.09490204 47.85271454 244.911499
vertex 34.61281586 47.42409515 245.1674194

endloop
endfacet
facet normal -0.5623457432 -0.3004602492 0.770383656
outer loop
vertex 34.7085495 47.60234833 245.3068542
vertex 34.6128006 47.4240799 245.1674347
vertex 35.26033783 47.06304169 245.4992981

endloop
endfacet
facet normal -0.5602478385 -0.292483598 0.7749681473
outer loop
vertex 35.26033783 47.06304169 245.4992981
vertex 34.6128006 47.4240799 245.1674347
vertex 35.15680695 46.88733673 245.358139

endloop
endfacet
facet normal 0.03257964179 -0.6375678182 0.7697050571
outer loop
vertex 35.26033783 47.06304169 245.4992981
vertex 35.15680695 46.88733673 245.358139
vertex 35.85538483 46.67243195 245.1505585

endloop
endfacet
facet normal 0.006441759877 0.7055874467 -0.7085936069
outer loop
vertex 35.85538483 46.67243195 245.1505585
vertex 35.15680695 46.88733673 245.358139
vertex 35.85540009 46.67246246 245.150589

endloop
endfacet
facet normal -nan(ind) -nan(ind) -nan(ind)
outer loop
vertex 28.10079193 56.13506317 238.1472626
vertex 28.10079193 56.13506317 238.1472626
vertex 27.78704071 55.50670624 238.3897095

endloop
endfacet
facet normal -0.7671821117 0.1416925788 -0.6255836487
outer loop
vertex 27.78704071 55.50670624 238.3897095
vertex 28.10079193 56.13506317 238.1472626
vertex 28.04799652 55.38483429 238.0420837

endloop
endfacet
facet normal -0.7669609189 -0.5019548535 -0.3997653127
outer loop
vertex 27.78704071 55.50670624 238.3897095
vertex 28.04799652 55.38483429 238.0420837
vertex 27.97121429 54.92842865 238.7624664

endloop
endfacet
facet normal -0.7849256992 -0.482149303 -0.3891320825
outer loop
vertex 27.97121429 54.92842865 238.7624664
vertex 28.04799652 55.38483429 238.0420837
vertex 28.22827911 54.79779816 238.4057922

endloop
endfacet
facet normal -0.78290236 -0.4884117842 -0.3853802085
outer loop
vertex 27.97121429 54.92842865 238.7624664
vertex 28.22827911 54.79779816 238.4057922
vertex 28.1437912 54.38837433 239.0963135

endloop
endfacet
facet normal -0.7938382626 -0.4755228758 -0.379076153
outer loop
vertex 28.1437912 54.38837433 239.0963135
vertex 28.22827911 54.79779816 238.4057922
vertex 28.39434052 54.2521286 238.7425385

endloop
endfacet
facet normal -0.7781198025 -0.5213720202 -0.3502866924
outer loop
vertex 28.1437912 54.38837433 239.0963135
vertex 28.39434052 54.2521286 238.7425385
vertex 28.35280609 53.81273651 239.4888

endloop
endfacet
facet normal -0.8020095825 -0.4941333532 -0.3355784118
outer loop
vertex 28.35280609 53.81273651 239.4888
vertex 28.39434052 54.2521286 238.7425385
vertex 28.59308624 53.66565704 239.1311188

endloop
endfacet
facet normal -0.7714599967 -0.5693081021 -0.2841440141
outer loop
vertex 28.35280609 53.81273651 239.4888
vertex 28.59308624 53.66565704 239.1311188
vertex 28.60829926 53.25385284 239.9149017

endloop
endfacet
facet normal -0.8059648871 -0.530333221 -0.2629966438
outer loop
vertex 28.60829926 53.25385284 239.9149017
vertex 28.59308624 53.66565704 239.1311188
vertex 28.83181 53.0943985 239.5514832

endloop
endfacet
facet normal -0.7627760768 -0.6152205467 -0.1991892308
outer loop
vertex 28.60829926 53.25385284 239.9149017
vertex 28.83181 53.0943985 239.5514832
vertex 28.91733551 52.72718048 240.3581696

endloop
endfacet
facet normal -0.7993952632 -0.5742474198 -0.1766551584
outer loop
vertex 28.91733551 52.72718048 240.3581696
vertex 28.83181 53.0943985 239.5514832
vertex 29.12223053 52.55539703 239.9893951

endloop
endfacet
facet normal -0.749424696 -0.6524698734 -0.1124531701
outer loop
vertex 28.91733551 52.72718048 240.3581696
vertex 29.12223053 52.55539703 239.9893951
vertex 29.2806015 52.23241425 240.8079529

endloop
endfacet
facet normal -0.780541718 -0.6181625128 -0.09289596975
outer loop
vertex 29.2806015 52.23241425 240.8079529
vertex 29.12223053 52.55539703 239.9893951
vertex 29.46949005 52.04984283 240.4357452

endloop
endfacet
facet normal -0.7318482399 -0.6804289222 -0.03761265799
outer loop
vertex 29.28061676 52.23241425 240.8079681
vertex 29.46949005 52.04984283 240.4357605
vertex 29.69025421 51.76700592 241.2568817

endloop
endfacet
facet normal -0.7550604343 -0.6552621126 -0.0227031447
outer loop
vertex 29.69025421 51.76700592 241.2568817
vertex 29.46949005 52.04984283 240.4357605
vertex 29.86719513 51.57607269 240.8829346

endloop
endfacet
facet normal -0.7148247957 -0.6990535855 0.01869462058
outer loop
vertex 29.69025421 51.76700592 241.2568817
vertex 29.86719513 51.57607269 240.8829346
vertex 30.13370514 51.32540131 241.7000275

endloop
endfacet
facet normal -0.7309753895 -0.6817761064 0.02926287986
outer loop
vertex 30.13370514 51.32540131 241.7000275
vertex 29.86719513 51.57607269 240.8829346
vertex 30.30197906 51.12888336 241.3249054

endloop
endfacet
facet normal -0.7027685642 -0.7091934681 0.05622186512
outer loop
vertex 30.1337204 51.32541656 241.7000427
vertex 30.30200958 51.12891388 241.3249207
vertex 30.5993576 50.8985672 242.1361084

endloop
endfacet
facet normal -0.7130166292 -0.6983047724 0.06307032704
outer loop
vertex 30.5993576 50.8985672 242.1361084
vertex 30.30200958 51.12891388 241.3249207
vertex 30.76152802 50.6989975 241.7598572

endloop
endfacet
facet normal -0.6973002553 -0.7125858068 0.07741925865
outer loop
vertex 30.5993576 50.8985672 242.1361084
vertex 30.76152802 50.6989975 241.7598572
vertex 31.07715607 50.4777298 242.5660553

endloop
endfacet
facet normal -0.702634871 -0.706917882 0.08106344193
outer loop
vertex 31.07715607 50.4777298 242.5660553
vertex 30.76152802 50.6989975 241.7598572
vertex 31.23560333 50.27698517 242.1888275

endloop
endfacet
facet normal -0.6970626712 -0.7118316889 0.08601887524
outer loop
vertex 31.07715607 50.4777298 242.5660553
vertex 31.23560333 50.27698517 242.1888275
vertex 31.55858612 50.05760956 242.9907532

endloop
endfacet
facet normal -0.6997032166 -0.7090114355 0.08785387129
outer loop
vertex 31.55858612 50.05760956 242.9907532
vertex 31.23560333 50.27698517 242.1888275
vertex 31.71430206 49.85704803 242.6123352

endloop
endfacet
facet normal -0.6993441582 -0.7093265653 0.08816862851
outer loop
vertex 31.55858612 50.05760956 242.9907532
vertex 31.71430206 49.85704803 242.6123352
vertex 32.04039764 49.63466644 243.4098053

endloop
endfacet
facet normal -0.7034828663 -0.7048481107 0.09110992402
outer loop
vertex 32.04039764 49.63466644 243.4098053
vertex 31.71430206 49.85704803 242.6123352
vertex 32.19077301 49.43531036 243.0286255

endloop
endfacet
facet normal -0.7022227049 -0.7059668303 0.09216386825
outer loop
vertex 32.04042816 49.6346817 243.4098358
vertex 32.19080353 49.43534088 243.028656
vertex 32.52849579 49.20290375 243.8211823

endloop
endfacet
facet normal -0.7118261456 -0.6952881813 0.09938772023
outer loop
vertex 32.52849579 49.20290375 243.8211823
vertex 32.19080353 49.43534088 243.028656
vertex 32.66719818 49.00565338 243.4346771

endloop
endfacet
facet normal -0.7036598325 -0.7025797963 0.1060395017
outer loop
vertex 32.52849579 49.20290375 243.8211823
vertex 32.66719818 49.00565338 243.4346771
vertex 33.0326004 48.75812531 244.2193909

endloop
endfacet
facet normal -0.7209101319 -0.6824881434 0.1204097718
outer loop
vertex 33.0326004 48.75812531 244.2193909
vertex 32.66719818 49.00565338 243.4346771
vertex 33.15129852 48.56322479 243.8253479

endloop
endfacet
facet normal -0.7011445165 -0.7001071572 0.1350784302
outer loop
vertex 33.0326004 48.75812531 244.2193909
vertex 33.15129852 48.56322479 243.8253479
vertex 33.55861664 48.30301666 244.5909424

endloop
endfacet
facet normal -0.7271318436 -0.6676037908 0.1599515378
outer loop
vertex 33.55861664 48.30301666 244.5909424
vertex 33.15129852 48.56322479 243.8253479
vertex 33.64664459 48.11067963 244.1883392

endloop
endfacet
facet normal -0.6936966777 -0.6970664859 0.1813373715
outer loop
vertex 33.55861664 48.30301666 244.5909424
vertex 33.64664459 48.11067963 244.1883392
vertex 34.09490204 47.85271454 244.911499

endloop
endfacet
facet normal -0.7249609232 -0.6540219188 0.2160716504
outer loop
vertex 34.09490204 47.85271454 244.911499
vertex 33.64664459 48.11067963 244.1883392
vertex 34.14414215 47.6629715 244.5023804

endloop
endfacet
facet normal -0.6861720681 -0.6879324317 0.2364673465
outer loop
vertex 34.09490204 47.85271454 244.911499
vertex 34.14414215 47.6629715 244.5023804
vertex 34.61281586 47.42409515 245.1674194

endloop
endfacet
facet normal -0.7189586163 -0.6371108294 0.2778277695
outer loop
vertex 34.61281586 47.42409515 245.1674194
vertex 34.14414215 47.6629715 244.5023804
vertex 34.61960602 47.23477936 244.7508545

endloop
endfacet
facet normal -0.7223473191 -0.6339371204 0.2762936056
outer loop
vertex 34.6128006 47.42409515 245.1674347
vertex 34.61960602 47.23477936 244.7508545
vertex 35.15680695 46.88733673 245.358139

endloop
endfacet
facet normal -0.7314658761 -0.6145435572 0.295455426
outer loop
vertex 35.15680695 46.88733673 245.358139
vertex 34.61960602 47.23477936 244.7508545
vertex 35.13965607 46.70891571 244.9445648

endloop
endfacet
facet normal -0.1602033824 -0.9039047956 0.396599263
outer loop
vertex 35.15680695 46.88733673 245.358139
vertex 35.13965607 46.70891571 244.9445648
vertex 35.85541534 46.6724472 245.1505737

endloop
endfacet
facet normal 0 0.9846717715 0.1744175702
outer loop
vertex 35.85541534 46.6724472 245.1505737
vertex 35.13965607 46.70891571 244.9445648
vertex 35.85540009 46.6724472 245.1505737

endloop
endfacet
endsolid
