solid 
facet normal -nan(ind) -nan(ind) -nan(ind)
outer loop
vertex 82.66320038 1.872367978 314.8581848
vertex 82.66320038 1.872367978 314.8581848
vertex 82.25148773 2.387413025 315.038269

endloop
endfacet
facet normal 0.6578242183 0.2816011012 0.6985471249
outer loop
vertex 82.25148773 2.387413025 315.038269
vertex 82.66320038 1.872367978 314.8581848
vertex 82.64904022 2.461936951 314.6338501

endloop
endfacet
facet normal 0.07084640115 0.9662437439 0.2476971895
outer loop
vertex 82.25148773 2.387413025 315.038269
vertex 82.64904022 2.461936951 314.6338501
vertex 81.80428314 2.521294117 314.6439209

endloop
endfacet
facet normal 0.07090874761 0.9690082073 0.2366326004
outer loop
vertex 81.80428314 2.521294117 314.6439209
vertex 82.64904022 2.461936951 314.6338501
vertex 82.24861908 2.599358082 314.1911011

endloop
endfacet
facet normal 0.1322314441 0.9469246268 0.2929992676
outer loop
vertex 81.80428314 2.521294117 314.6439209
vertex 82.24861908 2.599358082 314.1911011
vertex 81.37795258 2.701072931 314.2553101

endloop
endfacet
facet normal 0.1323627084 0.9457937479 0.2965707779
outer loop
vertex 81.37795258 2.701072931 314.2553101
vertex 82.24861908 2.599358082 314.1911011
vertex 81.82894135 2.779823065 313.802887

endloop
endfacet
facet normal 0.1031966731 0.9574478269 0.2695257664
outer loop
vertex 81.37795258 2.701072931 314.2553101
vertex 81.82894135 2.779823065 313.802887
vertex 80.92034149 2.871345997 313.8256531

endloop
endfacet
facet normal 0.1031662896 0.9551157355 0.2776882052
outer loop
vertex 80.92034149 2.871345997 313.8256531
vertex 81.82894135 2.779823065 313.802887
vertex 81.3793869 2.951622009 313.3789978

endloop
endfacet
facet normal 0.06859270483 0.9672610164 0.2443383783
outer loop
vertex 80.92034149 2.871345997 313.8256531
vertex 81.3793869 2.951622009 313.3789978
vertex 80.45684052 3.018547058 313.3730469

endloop
endfacet
facet normal 0.06846205145 0.9659273028 0.2495941967
outer loop
vertex 80.45684052 3.018547058 313.3730469
vertex 81.3793869 2.951622009 313.3789978
vertex 80.92201996 3.099785089 312.9310608

endloop
endfacet
facet normal 0.03687437996 0.9752383828 0.2180603743
outer loop
vertex 80.45684052 3.018547058 313.3730469
vertex 80.92201996 3.099785089 312.9310608
vertex 80.00240326 3.138984919 312.9112549

endloop
endfacet
facet normal 0.03673537076 0.9742341638 0.222527042
outer loop
vertex 80.00240326 3.138984919 312.9112549
vertex 80.92201996 3.099785089 312.9310608
vertex 80.47231293 3.220603943 312.4763489

endloop
endfacet
facet normal -6.452418893e-05 0.9828544855 0.1843830794
outer loop
vertex 80.00240326 3.138984919 312.9112549
vertex 80.47231293 3.220603943 312.4763489
vertex 79.56716156 3.225594044 312.4494324

endloop
endfacet
facet normal -0.0002348669659 0.9818003178 0.1899159104
outer loop
vertex 79.56716156 3.225594044 312.4494324
vertex 80.47231293 3.220603943 312.4763489
vertex 80.04439545 3.30768609 312.0256348

endloop
endfacet
facet normal -0.03479203209 0.9877388477 0.1521890163
outer loop
vertex 79.56713104 3.225563049 312.4494019
vertex 80.04436493 3.30767107 312.0256042
vertex 79.16707611 3.280296087 312.0027161

endloop
endfacet
facet normal -0.03489543125 0.9869705439 0.1570709795
outer loop
vertex 79.16707611 3.280296087 312.0027161
vertex 80.04436493 3.30767107 312.0256042
vertex 79.64907074 3.362801075 311.5913696

endloop
endfacet
facet normal 0.01425007079 0.9770219922 0.2126617432
outer loop
vertex 79.16707611 3.280296087 312.0027161
vertex 79.64907074 3.362801075 311.5913696
vertex 78.77925873 3.382056952 311.5611877

endloop
endfacet
facet normal 0.01363285352 0.9735159278 0.228212446
outer loop
vertex 78.77925873 3.382056952 311.5611877
vertex 79.64907074 3.362801075 311.5913696
vertex 79.21398163 3.461036921 311.1983032

endloop
endfacet
facet normal -0.5761480331 0.5946158171 -0.560790062
outer loop
vertex 78.77928925 3.382056952 311.5611877
vertex 79.21401215 3.461036921 311.1983032
vertex 78.8615036 2.975166082 311.0452881

endloop
endfacet
facet normal -nan(ind) -nan(ind) -nan(ind)
outer loop
vertex 78.8615036 2.975166082 311.0452881
vertex 79.21401215 3.461036921 311.1983032
vertex 78.8615036 2.975166082 311.0452881

endloop
endfacet
facet normal 0.741977632 -0.2227835059 -0.6323263645
outer loop
vertex 82.66320038 1.872367978 314.8581848
vertex 82.66316986 1.872352958 314.8581543
vertex 82.64904022 2.461936951 314.6338501

endloop
endfacet
facet normal 0.9039268494 0.1708308756 0.3920880258
outer loop
vertex 82.64904022 2.461936951 314.6338501
vertex 82.66316986 1.872352958 314.8581543
vertex 82.78514862 2.295082092 314.3927612

endloop
endfacet
facet normal 0.546412766 0.8006777167 -0.2456588
outer loop
vertex 82.64904022 2.461936951 314.6338501
vertex 82.78514862 2.295082092 314.3927612
vertex 82.24861908 2.599358082 314.1911011

endloop
endfacet
facet normal 0.556224525 0.7638531923 -0.3273263872
outer loop
vertex 82.24861908 2.599358082 314.1911011
vertex 82.78514862 2.295082092 314.3927612
vertex 82.37865448 2.397773981 313.9416504

endloop
endfacet
facet normal 0.5944022536 0.7481950521 -0.2947713137
outer loop
vertex 82.24861908 2.599358082 314.1911011
vertex 82.37865448 2.397773981 313.9416504
vertex 81.82894135 2.779823065 313.802887

endloop
endfacet
facet normal 0.594301939 0.745765686 -0.3010625541
outer loop
vertex 81.82894135 2.779823065 313.802887
vertex 82.37865448 2.397773981 313.9416504
vertex 81.9646225 2.573447943 313.5595093

endloop
endfacet
facet normal 0.5816767216 0.750985384 -0.3125271499
outer loop
vertex 81.82894135 2.779823065 313.802887
vertex 81.9646225 2.573447943 313.5595093
vertex 81.3793869 2.951622009 313.3789978

endloop
endfacet
facet normal 0.5815011859 0.7536598444 -0.3063546717
outer loop
vertex 81.3793869 2.951622009 313.3789978
vertex 81.9646225 2.573447943 313.5595093
vertex 81.52931976 2.741324902 313.1462402

endloop
endfacet
facet normal 0.5633836389 0.7600867152 -0.3238318861
outer loop
vertex 81.3793869 2.951622009 313.3789978
vertex 81.52931976 2.741324902 313.1462402
vertex 80.92201996 3.099785089 312.9310608

endloop
endfacet
facet normal 0.5631043315 0.7619162798 -0.3199954927
outer loop
vertex 80.92201996 3.099785089 312.9310608
vertex 81.52931976 2.741324902 313.1462402
vertex 81.08248138 2.886847973 312.7064209

endloop
endfacet
facet normal 0.5464103818 0.7668865919 -0.3366312981
outer loop
vertex 80.92201996 3.099785089 312.9310608
vertex 81.08248138 2.886847973 312.7064209
vertex 80.47231293 3.220603943 312.4763489

endloop
endfacet
facet normal 0.5460778475 0.7685796022 -0.3332932591
outer loop
vertex 80.47231293 3.220603943 312.4763489
vertex 81.08248138 2.886847973 312.7064209
vertex 80.64238739 3.006598949 312.2615051

endloop
endfacet
facet normal 0.5279731154 0.7729071379 -0.3519359827
outer loop
vertex 80.47231293 3.220603943 312.4763489
vertex 80.64238739 3.006598949 312.2615051
vertex 80.04439545 3.30768609 312.0256348

endloop
endfacet
facet normal 0.5274993181 0.7749569416 -0.3481182456
outer loop
vertex 80.04439545 3.30768609 312.0256348
vertex 80.64238739 3.006598949 312.2615051
vertex 80.22872162 3.092521906 311.8259583

endloop
endfacet
facet normal 0.5109022856 0.777665019 -0.3663550019
outer loop
vertex 80.04436493 3.30767107 312.0256042
vertex 80.2286911 3.092521906 311.8259583
vertex 79.64907074 3.362801075 311.5913696

endloop
endfacet
facet normal 0.5091350675 0.7844266295 -0.3541981578
outer loop
vertex 79.64907074 3.362801075 311.5913696
vertex 80.2286911 3.092521906 311.8259583
vertex 79.84673309 3.149802923 311.4037781

endloop
endfacet
facet normal 0.5033705235 0.7850533724 -0.3609838784
outer loop
vertex 79.64907074 3.362801075 311.5913696
vertex 79.84673309 3.149802923 311.4037781
vertex 79.21398163 3.461036921 311.1983032

endloop
endfacet
facet normal 0.4930592775 0.8297616839 -0.2615110278
outer loop
vertex 79.21398163 3.461036921 311.1983032
vertex 79.84673309 3.149802923 311.4037781
vertex 79.41677094 3.284126043 311.0193176

endloop
endfacet
facet normal -0.3058516979 0.4807131886 -0.8218087554
outer loop
vertex 79.21401215 3.461036921 311.1983032
vertex 79.41680145 3.284126043 311.0193481
vertex 78.8615036 2.975166082 311.0452881

endloop
endfacet
facet normal -0.483573854 0.873662293 0.0535775274
outer loop
vertex 78.8615036 2.975166082 311.0452881
vertex 79.41680145 3.284126043 311.0193481
vertex 78.86147308 2.975151062 311.0452576

endloop
endfacet
facet normal -0.7999458909 0.5334227681 0.2748578489
outer loop
vertex 82.66316986 1.872352958 314.8581543
vertex 82.66320038 1.872382998 314.8581848
vertex 82.78514862 2.295082092 314.3927612

endloop
endfacet
facet normal 0.9742029905 -0.03570197523 0.2228317261
outer loop
vertex 82.78514862 2.295082092 314.3927612
vertex 82.66320038 1.872382998 314.8581848
vertex 82.80870819 2.089775085 314.2568665

endloop
endfacet
facet normal 0.7142469883 0.4414530396 -0.5431117415
outer loop
vertex 82.78514862 2.295082092 314.3927612
vertex 82.80870819 2.089775085 314.2568665
vertex 82.37865448 2.397773981 313.9416504

endloop
endfacet
facet normal 0.7073535323 0.3734440207 -0.6001586914
outer loop
vertex 82.37865448 2.397773981 313.9416504
vertex 82.80870819 2.089775085 314.2568665
vertex 82.38793182 2.187995911 313.822052

endloop
endfacet
facet normal 0.7098414898 0.3722869456 -0.5979360938
outer loop
vertex 82.37865448 2.397773981 313.9416504
vertex 82.38793182 2.187995911 313.822052
vertex 81.9646225 2.573447943 313.5595093

endloop
endfacet
facet normal 0.7080712318 0.3664938211 -0.6035871506
outer loop
vertex 81.9646225 2.573447943 313.5595093
vertex 82.38793182 2.187995911 313.822052
vertex 81.97777557 2.36252594 313.4468689

endloop
endfacet
facet normal 0.7111663222 0.3651688099 -0.6007447243
outer loop
vertex 81.9646225 2.573447943 313.5595093
vertex 81.97777557 2.36252594 313.4468689
vertex 81.52931976 2.741324902 313.1462402

endloop
endfacet
facet normal 0.7123271227 0.3699865043 -0.596405983
outer loop
vertex 81.52931976 2.741324902 313.1462402
vertex 81.97777557 2.36252594 313.4468689
vertex 81.55373383 2.526375055 313.0420532

endloop
endfacet
facet normal 0.710010767 0.3708117604 -0.5986512303
outer loop
vertex 81.52931976 2.741324902 313.1462402
vertex 81.55373383 2.526375055 313.0420532
vertex 81.08248138 2.886847973 312.7064209

endloop
endfacet
facet normal 0.7106128335 0.3742800355 -0.5957717299
outer loop
vertex 81.08248138 2.886847973 312.7064209
vertex 81.55373383 2.526375055 313.0420532
vertex 81.11507416 2.669228077 312.6085815

endloop
endfacet
facet normal 0.707519114 0.3752064109 -0.598862946
outer loop
vertex 81.08248138 2.886847973 312.7064209
vertex 81.11507416 2.669228077 312.6085815
vertex 80.64238739 3.006598949 312.2615051

endloop
endfacet
facet normal 0.7078427672 0.3776120543 -0.5969653726
outer loop
vertex 80.64238739 3.006598949 312.2615051
vertex 81.11507416 2.669228077 312.6085815
vertex 80.68273163 2.787925959 312.1710205

endloop
endfacet
facet normal 0.7074373364 0.377710402 -0.5973837376
outer loop
vertex 80.64238739 3.006598949 312.2615051
vertex 80.68273163 2.787925959 312.1710205
vertex 80.22872162 3.092521906 311.8259583

endloop
endfacet
facet normal 0.7077376842 0.380757153 -0.5950894356
outer loop
vertex 80.22872162 3.092521906 311.8259583
vertex 80.68273163 2.787925959 312.1710205
vertex 80.2804184 2.872658014 311.7467651

endloop
endfacet
facet normal 0.7109146714 0.3802981973 -0.5915855169
outer loop
vertex 80.2286911 3.092521906 311.8259583
vertex 80.28038788 2.872642994 311.7467346
vertex 79.84673309 3.149802923 311.4037781

endloop
endfacet
facet normal 0.7116481662 0.392390579 -0.5827406049
outer loop
vertex 79.84673309 3.149802923 311.4037781
vertex 80.28038788 2.872642994 311.7467346
vertex 79.91017914 2.928138971 311.3320007

endloop
endfacet
facet normal 0.6778740287 0.3948380053 -0.6201529503
outer loop
vertex 79.84673309 3.149802923 311.4037781
vertex 79.91017914 2.928138971 311.3320007
vertex 79.41677094 3.284126043 311.0193176

endloop
endfacet
facet normal 0.6890575886 0.4721029401 -0.5498350263
outer loop
vertex 79.41677094 3.284126043 311.0193176
vertex 79.91017914 2.928138971 311.3320007
vertex 79.50139618 3.066353083 310.938385

endloop
endfacet
facet normal -0.1963102072 0.2738814056 -0.9415153861
outer loop
vertex 79.41680145 3.284126043 311.0193481
vertex 79.5014267 3.066353083 310.9383545
vertex 78.86147308 2.975151062 311.0452576

endloop
endfacet
facet normal 0.1813864708 -0.9420394301 0.2822422683
outer loop
vertex 78.86147308 2.975151062 311.0452576
vertex 79.5014267 3.066353083 310.9383545
vertex 78.8615036 2.975166082 311.0452881

endloop
endfacet
facet normal 0.4055014253 0.8238759041 0.395976156
outer loop
vertex 82.66320038 1.872382998 314.8581848
vertex 82.6632309 1.872367978 314.8581848
vertex 82.80870819 2.089775085 314.2568665

endloop
endfacet
facet normal 0.9517424107 -0.2781489491 0.1296906322
outer loop
vertex 82.80870819 2.089775085 314.2568665
vertex 82.6632309 1.872367978 314.8581848
vertex 82.74904633 1.859305978 314.2004089

endloop
endfacet
facet normal 0.716858387 -0.01481653005 -0.6970613599
outer loop
vertex 82.80870819 2.089775085 314.2568665
vertex 82.74904633 1.859305978 314.2004089
vertex 82.38793182 2.187995911 313.822052

endloop
endfacet
facet normal 0.6829846501 -0.08476501703 -0.725497663
outer loop
vertex 82.38793182 2.187995911 313.822052
vertex 82.74904633 1.859305978 314.2004089
vertex 82.32006073 1.969719052 313.7836609

endloop
endfacet
facet normal 0.6563453674 -0.07199331373 -0.7510177493
outer loop
vertex 82.38793182 2.187995911 313.822052
vertex 82.32006073 1.969719052 313.7836609
vertex 81.97777557 2.36252594 313.4468689

endloop
endfacet
facet normal 0.6520285606 -0.078421399 -0.7541278005
outer loop
vertex 81.97777557 2.36252594 313.4468689
vertex 82.32006073 1.969719052 313.7836609
vertex 81.91414642 2.145148993 313.4144592

endloop
endfacet
facet normal 0.6702919006 -0.08631183207 -0.7370610833
outer loop
vertex 81.97777557 2.36252594 313.4468689
vertex 81.91414642 2.145148993 313.4144592
vertex 81.55373383 2.526375055 313.0420532

endloop
endfacet
facet normal 0.673608005 -0.08082727343 -0.7346559167
outer loop
vertex 81.55373383 2.526375055 313.0420532
vertex 81.91414642 2.145148993 313.4144592
vertex 81.49959564 2.304862976 313.0167847

endloop
endfacet
facet normal 0.6861381531 -0.08528146893 -0.7224551439
outer loop
vertex 81.55373383 2.526375055 313.0420532
vertex 81.49959564 2.304862976 313.0167847
vertex 81.11507416 2.669228077 312.6085815

endloop
endfacet
facet normal 0.6883454919 -0.0811329931 -0.7208314538
outer loop
vertex 81.11507416 2.669228077 312.6085815
vertex 81.49959564 2.304862976 313.0167847
vertex 81.06786346 2.444922924 312.5887451

endloop
endfacet
facet normal 0.6973688006 -0.08383151144 -0.7117928863
outer loop
vertex 81.11507416 2.669228077 312.6085815
vertex 81.06786346 2.444922924 312.5887451
vertex 80.68273163 2.787925959 312.1710205

endloop
endfacet
facet normal 0.6986008883 -0.08132949471 -0.7108743191
outer loop
vertex 80.68273163 2.787925959 312.1710205
vertex 81.06786346 2.444922924 312.5887451
vertex 80.64220428 2.562508106 312.1569824

endloop
endfacet
facet normal 0.7144327164 -0.0851957202 -0.6944981217
outer loop
vertex 80.68273163 2.787925959 312.1710205
vertex 80.64220428 2.562508106 312.1569824
vertex 80.2804184 2.872658014 311.7467651

endloop
endfacet
facet normal 0.7159172893 -0.08195635676 -0.6933582425
outer loop
vertex 80.2804184 2.872658014 311.7467651
vertex 80.64220428 2.562508106 312.1569824
vertex 80.24962616 2.646018982 311.7417603

endloop
endfacet
facet normal 0.7375856638 -0.08541648835 -0.669829309
outer loop
vertex 80.28038788 2.872642994 311.7467346
vertex 80.24962616 2.646018982 311.7417603
vertex 79.91017914 2.928138971 311.3320007

endloop
endfacet
facet normal 0.7429040074 -0.07264827192 -0.6654441953
outer loop
vertex 79.91017914 2.928138971 311.3320007
vertex 80.24962616 2.646018982 311.7417603
vertex 79.88863373 2.697472095 311.3331299

endloop
endfacet
facet normal 0.6801871657 -0.06710606813 -0.7299605012
outer loop
vertex 79.91017914 2.928138971 311.3320007
vertex 79.88863373 2.697472095 311.3331299
vertex 79.50139618 3.066353083 310.938385

endloop
endfacet
facet normal 0.719137311 0.01143580582 -0.694773972
outer loop
vertex 79.50139618 3.066353083 310.938385
vertex 79.88863373 2.697472095 311.3331299
vertex 79.49776459 2.821938038 310.930603

endloop
endfacet
facet normal -0.169405058 0.03377790377 -0.9849674702
outer loop
vertex 79.5014267 3.066353083 310.9383545
vertex 79.49776459 2.821953058 310.930603
vertex 78.8615036 2.975166082 311.0452881

endloop
endfacet
facet normal -nan(ind) -nan(ind) -nan(ind)
outer loop
vertex 78.8615036 2.975166082 311.0452881
vertex 79.49776459 2.821953058 310.930603
vertex 78.8615036 2.975166082 311.0452881

endloop
endfacet
facet normal 0 -0.9998028874 0.01985391416
outer loop
vertex 82.6632309 1.872367978 314.8581848
vertex 82.66320038 1.872367978 314.8581848
vertex 82.74904633 1.859305978 314.2004089

endloop
endfacet
facet normal 0.8508521318 -0.5112358928 0.1211962402
outer loop
vertex 82.74904633 1.859305978 314.2004089
vertex 82.66320038 1.872367978 314.8581848
vertex 82.60881805 1.63460505 314.23703

endloop
endfacet
facet normal 0.5552208424 -0.4594798982 -0.6932589412
outer loop
vertex 82.74904633 1.859305978 314.2004089
vertex 82.60881805 1.63460505 314.23703
vertex 82.32006073 1.969719052 313.7836609

endloop
endfacet
facet normal 0.5179936886 -0.4962445796 -0.69672364
outer loop
vertex 82.32006073 1.969719052 313.7836609
vertex 82.60881805 1.63460505 314.23703
vertex 82.18273163 1.763344049 313.8285522

endloop
endfacet
facet normal 0.4708585441 -0.4750314355 -0.7433957458
outer loop
vertex 82.32006073 1.969719052 313.7836609
vertex 82.18273163 1.763344049 313.8285522
vertex 81.91414642 2.145148993 313.4144592

endloop
endfacet
facet normal 0.4676994085 -0.4776186943 -0.7437322736
outer loop
vertex 81.91414642 2.145148993 313.4144592
vertex 82.18273163 1.763344049 313.8285522
vertex 81.7816391 1.940453053 313.4625854

endloop
endfacet
facet normal 0.4975394011 -0.4903149009 -0.7155737877
outer loop
vertex 81.91414642 2.145148993 313.4144592
vertex 81.7816391 1.940453053 313.4625854
vertex 81.49959564 2.304862976 313.0167847

endloop
endfacet
facet normal 0.5028249621 -0.4856203794 -0.7150803208
outer loop
vertex 81.49959564 2.304862976 313.0167847
vertex 81.7816391 1.940453053 313.4625854
vertex 81.37413788 2.096275091 313.0702209

endloop
endfacet
facet normal 0.5261728168 -0.4938269854 -0.6922984719
outer loop
vertex 81.49959564 2.304862976 313.0167847
vertex 81.37413788 2.096275091 313.0702209
vertex 81.06786346 2.444922924 312.5887451

endloop
endfacet
facet normal 0.5298873782 -0.4902055264 -0.6920390129
outer loop
vertex 81.06786346 2.444922924 312.5887451
vertex 81.37413788 2.096275091 313.0702209
vertex 80.9474411 2.233757019 312.6461182

endloop
endfacet
facet normal 0.5473469496 -0.4954041243 -0.6745265722
outer loop
vertex 81.06786346 2.444922924 312.5887451
vertex 80.9474411 2.233757019 312.6461182
vertex 80.64220428 2.562508106 312.1569824

endloop
endfacet
facet normal 0.549184978 -0.4935245216 -0.6744104028
outer loop
vertex 80.64220428 2.562508106 312.1569824
vertex 80.9474411 2.233757019 312.6461182
vertex 80.52684784 2.350318909 312.2183228

endloop
endfacet
facet normal 0.5767161846 -0.5002430081 -0.6458756924
outer loop
vertex 80.64220428 2.562508106 312.1569824
vertex 80.52684784 2.350318909 312.2183228
vertex 80.24962616 2.646018982 311.7417603

endloop
endfacet
facet normal 0.5792743564 -0.4975310564 -0.6456810236
outer loop
vertex 80.24962616 2.646018982 311.7417603
vertex 80.52684784 2.350318909 312.2183228
vertex 80.14159393 2.43267107 311.8092346

endloop
endfacet
facet normal 0.6151766181 -0.5033001304 -0.6068332195
outer loop
vertex 80.24962616 2.646018982 311.7417603
vertex 80.14159393 2.432655096 311.8092041
vertex 79.88863373 2.697472095 311.3331299

endloop
endfacet
facet normal 0.6221532226 -0.4954550266 -0.6061763167
outer loop
vertex 79.88863373 2.697472095 311.3331299
vertex 80.14159393 2.432655096 311.8092041
vertex 79.78566742 2.479424 311.4056702

endloop
endfacet
facet normal 0.5474897027 -0.4853231609 -0.6817011833
outer loop
vertex 79.88863373 2.697472095 311.3331299
vertex 79.78566742 2.479424 311.4056702
vertex 79.49776459 2.821938038 310.930603

endloop
endfacet
facet normal 0.5876964927 -0.4440696836 -0.6763245463
outer loop
vertex 79.49776459 2.821938038 310.930603
vertex 79.78566742 2.479424 311.4056702
vertex 79.40010834 2.583611012 311.0022278

endloop
endfacet
facet normal -0.2196858674 -0.1971241236 -0.9554476738
outer loop
vertex 79.49776459 2.821953058 310.930603
vertex 79.40010834 2.583626032 311.0022278
vertex 78.8615036 2.975166082 311.0452881

endloop
endfacet
facet normal -nan(ind) -nan(ind) -nan(ind)
outer loop
vertex 78.8615036 2.975166082 311.0452881
vertex 79.40010834 2.583626032 311.0022278
vertex 78.8615036 2.975166082 311.0452881

endloop
endfacet
facet normal 0 0.9339200854 -0.3574818671
outer loop
vertex 82.66320038 1.872367978 314.8581848
vertex 82.6632309 1.872367978 314.8581848
vertex 82.60881805 1.63460505 314.23703

endloop
endfacet
facet normal 0.6921278238 -0.6922444701 0.2043442726
outer loop
vertex 82.60881805 1.63460505 314.23703
vertex 82.6632309 1.872367978 314.8581848
vertex 82.41493988 1.480414987 314.3713684

endloop
endfacet
facet normal 0.2686602175 -0.8022691607 -0.5330909491
outer loop
vertex 82.60881805 1.63460505 314.23703
vertex 82.41493988 1.480414987 314.3713684
vertex 82.18273163 1.763344049 313.8285522

endloop
endfacet
facet normal 0.2694802284 -0.8018916249 -0.5332449675
outer loop
vertex 82.18273163 1.763344049 313.8285522
vertex 82.41493988 1.480414987 314.3713684
vertex 82.00240326 1.619438052 313.9538269

endloop
endfacet
facet normal 0.2032772452 -0.7752965093 -0.5979913473
outer loop
vertex 82.18273163 1.763344049 313.8285522
vertex 82.00240326 1.619438052 313.9538269
vertex 81.7816391 1.940453053 313.4625854

endloop
endfacet
facet normal 0.2063505501 -0.7740476131 -0.5985563397
outer loop
vertex 81.7816391 1.940453053 313.4625854
vertex 82.00240326 1.619438052 313.9538269
vertex 81.60555267 1.797417045 313.586853

endloop
endfacet
facet normal 0.2421941906 -0.7888687253 -0.5648257136
outer loop
vertex 81.7816391 1.940453053 313.4625854
vertex 81.60555267 1.797417045 313.586853
vertex 81.37413788 2.096275091 313.0702209

endloop
endfacet
facet normal 0.2483195513 -0.7861290574 -0.5659846663
outer loop
vertex 81.37413788 2.096275091 313.0702209
vertex 81.60555267 1.797417045 313.586853
vertex 81.20070648 1.950507998 313.1965942

endloop
endfacet
facet normal 0.2776326835 -0.7962763906 -0.5374606848
outer loop
vertex 81.37413788 2.096275091 313.0702209
vertex 81.20070648 1.950507998 313.1965942
vertex 80.9474411 2.233757019 312.6461182

endloop
endfacet
facet normal 0.2819250822 -0.7941652536 -0.5383492708
outer loop
vertex 80.9474411 2.233757019 312.6461182
vertex 81.20070648 1.950507998 313.1965942
vertex 80.77577972 2.086158991 312.7739563

endloop
endfacet
facet normal 0.3036085069 -0.8005719781 -0.5166298151
outer loop
vertex 80.9474411 2.233757019 312.6461182
vertex 80.77577972 2.086158991 312.7739563
vertex 80.52684784 2.350318909 312.2183228

endloop
endfacet
facet normal 0.306273669 -0.7992045283 -0.5171737671
outer loop
vertex 80.52684784 2.350318909 312.2183228
vertex 80.77577972 2.086158991 312.7739563
vertex 80.35738373 2.202018976 312.3471375

endloop
endfacet
facet normal 0.3397545516 -0.8073286414 -0.4824804664
outer loop
vertex 80.52684784 2.350318909 312.2183228
vertex 80.35738373 2.202018976 312.3471375
vertex 80.14159393 2.43267107 311.8092346

endloop
endfacet
facet normal 0.3433466852 -0.8054314256 -0.4831079543
outer loop
vertex 80.14159393 2.43267107 311.8092346
vertex 80.35738373 2.202018976 312.3471375
vertex 79.97512054 2.283561945 311.9395142

endloop
endfacet
facet normal 0.3869863451 -0.812746942 -0.4355271459
outer loop
vertex 80.14159393 2.432655096 311.8092041
vertex 79.97509003 2.283561945 311.9394836
vertex 79.78566742 2.479424 311.4056702

endloop
endfacet
facet normal 0.3895872235 -0.8112940788 -0.4359169602
outer loop
vertex 79.78566742 2.479424 311.4056702
vertex 79.97509003 2.283561945 311.9394836
vertex 79.6182785 2.327369928 311.5390625

endloop
endfacet
facet normal 0.3185224235 -0.7986163497 -0.5106421113
outer loop
vertex 79.78566742 2.479424 311.4056702
vertex 79.6182785 2.327369928 311.5390625
vertex 79.40010834 2.583611012 311.0022278

endloop
endfacet
facet normal 0.3194664717 -0.7981393337 -0.5107980967
outer loop
vertex 79.40010834 2.583611012 311.0022278
vertex 79.6182785 2.327369928 311.5390625
vertex 79.22109222 2.420142889 311.1456909

endloop
endfacet
facet normal -0.3435989022 -0.3781170845 -0.8596320748
outer loop
vertex 79.40010834 2.583626032 311.0022278
vertex 79.22109222 2.420142889 311.1456909
vertex 78.8615036 2.975166082 311.0452881

endloop
endfacet
facet normal -0.8392481208 -0.5437486172 0
outer loop
vertex 78.8615036 2.975166082 311.0452881
vertex 79.22109222 2.420142889 311.1456909
vertex 78.8615036 2.975166082 311.0453186

endloop
endfacet
facet normal -0.3205406964 -0.6512572765 0.6878355145
outer loop
vertex 82.6632309 1.872367978 314.8581848
vertex 82.66320038 1.872382998 314.8581848
vertex 82.41493988 1.480414987 314.3713684

endloop
endfacet
facet normal 0.5105894804 -0.7780152559 0.3660473824
outer loop
vertex 82.41493988 1.480414987 314.3713684
vertex 82.66320038 1.872382998 314.8581848
vertex 82.21825409 1.446113944 314.5728149

endloop
endfacet
facet normal -0.08006423712 -0.9667698145 -0.24278754
outer loop
vertex 82.41493988 1.480414987 314.3713684
vertex 82.21825409 1.446113944 314.5728149
vertex 82.00240326 1.619438052 313.9538269

endloop
endfacet
facet normal -0.03975731507 -0.9657135606 -0.256547451
outer loop
vertex 82.00240326 1.619438052 313.9538269
vertex 82.21825409 1.446113944 314.5728149
vertex 81.81758881 1.578209043 314.1376648

endloop
endfacet
facet normal -0.1171217933 -0.9373987317 -0.3279727995
outer loop
vertex 82.00240326 1.619438052 313.9538269
vertex 81.81758881 1.578209043 314.1376648
vertex 81.60555267 1.797417045 313.586853

endloop
endfacet
facet normal -0.1082660258 -0.9372810125 -0.3313349783
outer loop
vertex 81.60555267 1.797417045 313.586853
vertex 81.81758881 1.578209043 314.1376648
vertex 81.42211151 1.755226016 313.7661438

endloop
endfacet
facet normal -0.07249960303 -0.951762259 -0.298148334
outer loop
vertex 81.60555267 1.797417045 313.586853
vertex 81.42211151 1.755226016 313.7661438
vertex 81.20070648 1.950507998 313.1965942

endloop
endfacet
facet normal -0.06643144041 -0.9514924288 -0.3004146814
outer loop
vertex 81.20070648 1.950507998 313.1965942
vertex 81.42211151 1.755226016 313.7661438
vertex 81.01448822 1.907508969 313.3739624

endloop
endfacet
facet normal -0.03674611449 -0.9616754651 -0.2717167735
outer loop
vertex 81.20070648 1.950507998 313.1965942
vertex 81.01448822 1.907508969 313.3739624
vertex 80.77577972 2.086158991 312.7739563

endloop
endfacet
facet normal -0.03274275362 -0.9613927007 -0.2732253075
outer loop
vertex 80.77577972 2.086158991 312.7739563
vertex 81.01448822 1.907508969 313.3739624
vertex 80.58745575 2.04262495 312.949707

endloop
endfacet
facet normal -0.01120015699 -0.9677370191 -0.2517131269
outer loop
vertex 80.77577972 2.086158991 312.7739563
vertex 80.58745575 2.04262495 312.949707
vertex 80.35738373 2.202018976 312.3471375

endloop
endfacet
facet normal -0.007863875479 -0.9674571157 -0.2529129386
outer loop
vertex 80.35738373 2.202018976 312.3471375
vertex 80.58745575 2.04262495 312.949707
vertex 80.16747284 2.158272028 312.5203857

endloop
endfacet
facet normal 0.02516158856 -0.9754604101 -0.218732059
outer loop
vertex 80.35738373 2.202018976 312.3471375
vertex 80.16747284 2.158272028 312.5203857
vertex 79.97512054 2.283561945 311.9395142

endloop
endfacet
facet normal 0.02928673103 -0.9750576019 -0.2200112343
outer loop
vertex 79.97512054 2.283561945 311.9395142
vertex 80.16747284 2.158272028 312.5203857
vertex 79.78273773 2.239600897 312.1087341

endloop
endfacet
facet normal 0.07282860577 -0.9823364019 -0.1723691672
outer loop
vertex 79.97509003 2.283561945 311.9394836
vertex 79.78270721 2.239600897 312.1087341
vertex 79.6182785 2.327369928 311.5390625

endloop
endfacet
facet normal 0.06997837871 -0.9826784134 -0.1715991646
outer loop
vertex 79.6182785 2.327369928 311.5390625
vertex 79.78270721 2.239600897 312.1087341
vertex 79.41988373 2.283835888 311.7074585

endloop
endfacet
facet normal 0.0100656217 -0.970930934 -0.2391481102
outer loop
vertex 79.6182785 2.327369928 311.5390625
vertex 79.41988373 2.283835888 311.7074585
vertex 79.22109222 2.420142889 311.1456909

endloop
endfacet
facet normal -0.0256334357 -0.9735236764 -0.227144435
outer loop
vertex 79.22109222 2.420142889 311.1456909
vertex 79.41988373 2.283835888 311.7074585
vertex 79.00514984 2.38379693 311.3258362

endloop
endfacet
facet normal -0.5192916989 -0.4659900963 -0.7163723707
outer loop
vertex 79.22109222 2.420142889 311.1456909
vertex 79.00518036 2.383811951 311.3258362
vertex 78.8615036 2.975166082 311.0453186

endloop
endfacet
facet normal 0.93939358 0.3037544787 0.1589743048
outer loop
vertex 78.8615036 2.975166082 311.0453186
vertex 79.00518036 2.383811951 311.3258362
vertex 78.8615036 2.975182056 311.0452881

endloop
endfacet
facet normal 0.5398644209 0 -0.8417519927
outer loop
vertex 82.66320038 1.872382998 314.8581848
vertex 82.66320038 1.872367978 314.8581848
vertex 82.21825409 1.446113944 314.5728149

endloop
endfacet
facet normal 0.3522914648 -0.7460461259 0.5650715232
outer loop
vertex 82.21825409 1.446113944 314.5728149
vertex 82.66320038 1.872367978 314.8581848
vertex 82.07344818 1.536995053 314.7830811

endloop
endfacet
facet normal -0.4134303033 -0.9043275118 0.1061471105
outer loop
vertex 82.21825409 1.446113944 314.5728149
vertex 82.07344818 1.536995053 314.7830811
vertex 81.81758881 1.578209043 314.1376648

endloop
endfacet
facet normal -0.3435343504 -0.9360262156 0.07641441375
outer loop
vertex 81.81758881 1.578209043 314.1376648
vertex 82.07344818 1.536995053 314.7830811
vertex 81.66802216 1.649711967 314.3411255

endloop
endfacet
facet normal -0.4179110229 -0.9084082842 0.01203329302
outer loop
vertex 81.81758881 1.578209043 314.1376648
vertex 81.66802216 1.649711967 314.3411255
vertex 81.42211151 1.755226016 313.7661438

endloop
endfacet
facet normal -0.4062562883 -0.913738966 0.006070504896
outer loop
vertex 81.42211151 1.755226016 313.7661438
vertex 81.66802216 1.649711967 314.3411255
vertex 81.26912689 1.824561954 313.9644775

endloop
endfacet
facet normal -0.3771779537 -0.9255656004 0.03263454139
outer loop
vertex 81.42211151 1.755226016 313.7661438
vertex 81.26912689 1.824561954 313.9644775
vertex 81.01448822 1.907508969 313.3739624

endloop
endfacet
facet normal -0.3719701767 -0.927757144 0.03008102439
outer loop
vertex 81.01448822 1.907508969 313.3739624
vertex 81.26912689 1.824561954 313.9644775
vertex 80.85378265 1.978188038 313.5666199

endloop
endfacet
facet normal -0.3484421074 -0.9358490705 0.05267564207
outer loop
vertex 81.01448822 1.907508969 313.3739624
vertex 80.85378265 1.978188038 313.5666199
vertex 80.58745575 2.04262495 312.949707

endloop
endfacet
facet normal -0.3451518714 -0.9371536374 0.05111892894
outer loop
vertex 80.58745575 2.04262495 312.949707
vertex 80.85378265 1.978188038 313.5666199
vertex 80.42107391 2.114173889 313.1380005

endloop
endfacet
facet normal -0.3285570443 -0.9420585036 0.06764635444
outer loop
vertex 80.58745575 2.04262495 312.949707
vertex 80.42107391 2.114173889 313.1380005
vertex 80.16747284 2.158272028 312.5203857

endloop
endfacet
facet normal -0.3252147138 -0.943321228 0.06618382782
outer loop
vertex 80.16747284 2.158272028 312.5203857
vertex 80.42107391 2.114173889 313.1380005
vertex 79.99608612 2.230170965 312.7030029

endloop
endfacet
facet normal -0.2997335494 -0.9495241046 0.09254015237
outer loop
vertex 80.16747284 2.158272028 312.5203857
vertex 79.99608612 2.230170965 312.7030029
vertex 79.78273773 2.239600897 312.1087341

endloop
endfacet
facet normal -0.2956531644 -0.9509462118 0.09105268121
outer loop
vertex 79.78273773 2.239600897 312.1087341
vertex 79.99608612 2.230170965 312.7030029
vertex 79.60381317 2.311882019 312.2826538

endloop
endfacet
facet normal -0.2602368891 -0.956776619 0.1298285723
outer loop
vertex 79.78270721 2.239600897 312.1087341
vertex 79.60378265 2.311866999 312.2826538
vertex 79.41988373 2.283835888 311.7074585

endloop
endfacet
facet normal -0.2673941553 -0.9545024037 0.1320060492
outer loop
vertex 79.41988373 2.283835888 311.7074585
vertex 79.60378265 2.311866999 312.2826538
vertex 79.23287201 2.359412909 311.8751221

endloop
endfacet
facet normal -0.3067962229 -0.9479622841 0.08510899544
outer loop
vertex 79.41988373 2.283835888 311.7074585
vertex 79.23287201 2.359412909 311.8751221
vertex 79.00514984 2.38379693 311.3258362

endloop
endfacet
facet normal -0.3681050539 -0.9230585098 0.1116318628
outer loop
vertex 79.00514984 2.38379693 311.3258362
vertex 79.23287201 2.359412909 311.8751221
vertex 78.81362152 2.48020196 311.4914246

endloop
endfacet
facet normal -0.7039555311 -0.4367403388 -0.5600933433
outer loop
vertex 79.00518036 2.383811951 311.3258362
vertex 78.81362152 2.48021698 311.4914246
vertex 78.8615036 2.975182056 311.0452881

endloop
endfacet
facet normal 0.9942737222 0 0.1068636253
outer loop
vertex 78.8615036 2.975182056 311.0452881
vertex 78.81362152 2.48021698 311.4914246
vertex 78.8615036 2.975166082 311.0452881

endloop
endfacet
facet normal -nan(ind) -nan(ind) -nan(ind)
outer loop
vertex 82.66320038 1.872367978 314.8581848
vertex 82.66320038 1.872367978 314.8581848
vertex 82.07344818 1.536995053 314.7830811

endloop
endfacet
facet normal 0.2557626367 -0.6165142655 0.7446446419
outer loop
vertex 82.07344818 1.536995053 314.7830811
vertex 82.66320038 1.872367978 314.8581848
vertex 82.00572968 1.715355039 314.95401

endloop
endfacet
facet normal -0.6378358006 -0.6452083588 0.4205611348
outer loop
vertex 82.07344818 1.536995053 314.7830811
vertex 82.00572968 1.715355039 314.95401
vertex 81.66802216 1.649711967 314.3411255

endloop
endfacet
facet normal -0.5776703954 -0.7144308686 0.394823283
outer loop
vertex 81.66802216 1.649711967 314.3411255
vertex 82.00572968 1.715355039 314.95401
vertex 81.58370209 1.818138003 314.522522

endloop
endfacet
facet normal -0.6323315501 -0.6918913722 0.3484868407
outer loop
vertex 81.66802216 1.649711967 314.3411255
vertex 81.58370209 1.818138003 314.522522
vertex 81.26912689 1.824561954 313.9644775

endloop
endfacet
facet normal -0.6233697534 -0.7025288343 0.3433125317
outer loop
vertex 81.26912689 1.824561954 313.9644775
vertex 81.58370209 1.818138003 314.522522
vertex 81.17778778 1.992226005 314.1417236

endloop
endfacet
facet normal -0.6062684655 -0.7096757293 0.3588856459
outer loop
vertex 81.26912689 1.824561954 313.9644775
vertex 81.17778778 1.992226005 314.1417236
vertex 80.85378265 1.978188038 313.5666199

endloop
endfacet
facet normal -0.6022861004 -0.7141290307 0.3567507565
outer loop
vertex 80.85378265 1.978188038 313.5666199
vertex 81.17778778 1.992226005 314.1417236
vertex 80.75136566 2.148993969 313.7356262

endloop
endfacet
facet normal -0.5903910995 -0.7182683945 0.3681425452
outer loop
vertex 80.85378265 1.978188038 313.5666199
vertex 80.75136566 2.148993969 313.7356262
vertex 80.42107391 2.114173889 313.1380005

endloop
endfacet
facet normal -0.5879481435 -0.7208804488 0.3669446111
outer loop
vertex 80.42107391 2.114173889 313.1380005
vertex 80.75136566 2.148993969 313.7356262
vertex 80.31050873 2.287132025 313.3006287

endloop
endfacet
facet normal -0.5805226564 -0.7230908275 0.3743437529
outer loop
vertex 80.42107391 2.114173889 313.1380005
vertex 80.31050873 2.287132025 313.3006287
vertex 79.99608612 2.230170965 312.7030029

endloop
endfacet
facet normal -0.5779863 -0.7256801128 0.3732561469
outer loop
vertex 79.99608612 2.230170965 312.7030029
vertex 80.31050873 2.287132025 313.3006287
vertex 79.87801361 2.40398407 312.8580933

endloop
endfacet
facet normal -0.5655617714 -0.7287272811 0.3861301839
outer loop
vertex 79.99608612 2.230170965 312.7030029
vertex 79.87801361 2.40398407 312.8580933
vertex 79.60381317 2.311882019 312.2826538

endloop
endfacet
facet normal -0.5623765588 -0.7317345142 0.3850937486
outer loop
vertex 79.60381317 2.311882019 312.2826538
vertex 79.87801361 2.40398407 312.8580933
vertex 79.47466278 2.48662591 312.4260864

endloop
endfacet
facet normal -0.5420208573 -0.7349129319 0.4075736701
outer loop
vertex 79.60378265 2.311866999 312.2826538
vertex 79.47466278 2.48662591 312.4260559
vertex 79.23287201 2.359412909 311.8751221

endloop
endfacet
facet normal -0.5482944846 -0.7294144034 0.409057349
outer loop
vertex 79.23287201 2.359412909 311.8751221
vertex 79.47466278 2.48662591 312.4260559
vertex 79.09520721 2.537375927 312.0079346

endloop
endfacet
facet normal -0.5653768182 -0.7274752855 0.3887527287
outer loop
vertex 79.23287201 2.359412909 311.8751221
vertex 79.09520721 2.537375927 312.0079346
vertex 78.81362152 2.48020196 311.4914246

endloop
endfacet
facet normal -0.6184017658 -0.6696596742 0.4112605453
outer loop
vertex 78.81362152 2.48020196 311.4914246
vertex 79.09520721 2.537375927 312.0079346
vertex 78.68596649 2.66937995 311.6075134

endloop
endfacet
facet normal -0.8479818702 -0.3072538972 -0.4318817258
outer loop
vertex 78.81362152 2.48021698 311.4914246
vertex 78.68596649 2.66939497 311.6074829
vertex 78.8615036 2.975166082 311.0452881

endloop
endfacet
facet normal 0 -0.8784852624 -0.477769345
outer loop
vertex 78.8615036 2.975166082 311.0452881
vertex 78.68596649 2.66939497 311.6074829
vertex 78.86147308 2.975166082 311.0452881

endloop
endfacet
facet normal 0.1442244351 0 0.9895449877
outer loop
vertex 82.66320038 1.872352958 314.8581543
vertex 82.66320038 1.872367978 314.8581543
vertex 82.00572968 1.715340018 314.9539795

endloop
endfacet
facet normal 0.2263560593 -0.4079994559 0.8844769001
outer loop
vertex 82.00572968 1.715340018 314.9539795
vertex 82.66320038 1.872367978 314.8581543
vertex 82.02727509 1.970420957 315.0661316

endloop
endfacet
facet normal -0.7227627039 -0.2260881215 0.6530683637
outer loop
vertex 82.00572968 1.715340018 314.9539795
vertex 82.02727509 1.970420957 315.0661316
vertex 81.58370209 1.818107963 314.5224915

endloop
endfacet
facet normal -0.6873195171 -0.3220787644 0.6510430574
outer loop
vertex 81.58370209 1.818107963 314.5224915
vertex 82.02727509 1.970420957 315.0661316
vertex 81.58687592 2.078072071 314.6544495

endloop
endfacet
facet normal -0.7178120613 -0.3081479967 0.6243321896
outer loop
vertex 81.58370209 1.818107963 314.5224915
vertex 81.58687592 2.078072071 314.6544495
vertex 81.17778778 1.99219501 314.1417236

endloop
endfacet
facet normal -0.7128334641 -0.322532177 0.6227691174
outer loop
vertex 81.17778778 1.99219501 314.1417236
vertex 81.58687592 2.078072071 314.6544495
vertex 81.17177582 2.253441095 314.2701416

endloop
endfacet
facet normal -0.7122904658 -0.3227656186 0.6232693791
outer loop
vertex 81.17778778 1.99219501 314.1417236
vertex 81.17177582 2.253441095 314.2701416
vertex 80.75136566 2.148993969 313.7355957

endloop
endfacet
facet normal -0.7100711465 -0.3287227452 0.6226879358
outer loop
vertex 80.75136566 2.148993969 313.7355957
vertex 81.17177582 2.253441095 314.2701416
vertex 80.73174286 2.415215015 313.8537598

endloop
endfacet
facet normal -0.7136393189 -0.3274651766 0.6192620397
outer loop
vertex 80.75136566 2.148993969 313.7355957
vertex 80.73174286 2.415215015 313.8537598
vertex 80.31050873 2.287132025 313.3005981

endloop
endfacet
facet normal -0.7119495869 -0.3316964209 0.6189549565
outer loop
vertex 80.31050873 2.287132025 313.3005981
vertex 80.73174286 2.415215015 313.8537598
vertex 80.28093719 2.556694031 313.4110413

endloop
endfacet
facet normal -0.7171774507 -0.3301310539 0.6137345433
outer loop
vertex 80.31050873 2.287132025 313.3005981
vertex 80.28093719 2.556694031 313.4110413
vertex 79.87801361 2.40398407 312.8580627

endloop
endfacet
facet normal -0.7158827782 -0.3331375122 0.6136214733
outer loop
vertex 79.87801361 2.40398407 312.8580627
vertex 80.28093719 2.556694031 313.4110413
vertex 79.83904266 2.674858093 312.9596558

endloop
endfacet
facet normal -0.7203119397 -0.332046032 0.6090123653
outer loop
vertex 79.87801361 2.40398407 312.8580627
vertex 79.83904266 2.674858093 312.9596558
vertex 79.47466278 2.48662591 312.4260559

endloop
endfacet
facet normal -0.7184547186 -0.3358879983 0.6090994477
outer loop
vertex 79.47466278 2.48662591 312.4260559
vertex 79.83904266 2.674858093 312.9596558
vertex 79.42189789 2.758980036 312.5140076

endloop
endfacet
facet normal -0.7173880935 -0.3360401988 0.6102715731
outer loop
vertex 79.47463226 2.486609936 312.4260254
vertex 79.42186737 2.758980036 312.5139771
vertex 79.0951767 2.537345886 312.0079041

endloop
endfacet
facet normal -0.7214550972 -0.3284869492 0.6095890999
outer loop
vertex 79.0951767 2.537345886 312.0079041
vertex 79.42186737 2.758980036 312.5139771
vertex 79.03325653 2.812035084 312.0826416

endloop
endfacet
facet normal -0.7125262022 -0.3292039037 0.6196218133
outer loop
vertex 79.0951767 2.537345886 312.0079041
vertex 79.03325653 2.812035084 312.0826416
vertex 78.68593597 2.66937995 311.6074524

endloop
endfacet
facet normal -0.7453150153 -0.247516945 0.6190645099
outer loop
vertex 78.68593597 2.66937995 311.6074524
vertex 79.03325653 2.812035084 312.0826416
vertex 78.63909149 2.939888 311.6592102

endloop
endfacet
facet normal -0.9341190457 -0.09597919881 -0.3438162208
outer loop
vertex 78.68596649 2.66937995 311.6074524
vertex 78.63912201 2.939888 311.6592102
vertex 78.86147308 2.975151062 311.0452576

endloop
endfacet
facet normal -0.3728367984 0.9242683649 -0.08197958022
outer loop
vertex 78.86147308 2.975151062 311.0452576
vertex 78.63912201 2.939888 311.6592102
vertex 78.8615036 2.975166082 311.0452881

endloop
endfacet
facet normal -nan(ind) -nan(ind) -nan(ind)
outer loop
vertex 82.66320038 1.872367978 314.8581848
vertex 82.66320038 1.872367978 314.8581848
vertex 82.02727509 1.970435977 315.0661316

endloop
endfacet
facet normal 0.2960194647 -0.09566794336 0.9503789544
outer loop
vertex 82.02727509 1.970435977 315.0661316
vertex 82.66320038 1.872367978 314.8581848
vertex 82.25148773 2.387413025 315.038269

endloop
endfacet
facet normal -0.5870204568 0.3639672399 0.7231423259
outer loop
vertex 82.02727509 1.970435977 315.0661316
vertex 82.25148773 2.387413025 315.038269
vertex 81.58687592 2.078087091 314.6544495

endloop
endfacet
facet normal -0.5781941414 0.3016316593 0.7580962777
outer loop
vertex 81.58687592 2.078087091 314.6544495
vertex 82.25148773 2.387413025 315.038269
vertex 81.80428314 2.521294117 314.6439209

endloop
endfacet
facet normal -0.5763785839 0.3007818758 0.7598143816
outer loop
vertex 81.58687592 2.078087091 314.6544495
vertex 81.80428314 2.521294117 314.6439209
vertex 81.17177582 2.253456116 314.2701416

endloop
endfacet
facet normal -0.57495296 0.290176928 0.765000999
outer loop
vertex 81.17177582 2.253456116 314.2701416
vertex 81.80428314 2.521294117 314.6439209
vertex 81.37795258 2.701072931 314.2553101

endloop
endfacet
facet normal -0.5955716372 0.299030304 0.7455704212
outer loop
vertex 81.17177582 2.253456116 314.2701416
vertex 81.37795258 2.701072931 314.2553101
vertex 80.73174286 2.415215015 313.8537598

endloop
endfacet
facet normal -0.5946509242 0.2920307517 0.7490715981
outer loop
vertex 80.73174286 2.415215015 313.8537598
vertex 81.37795258 2.701072931 314.2553101
vertex 80.92034149 2.871345997 313.8256531

endloop
endfacet
facet normal -0.6186358333 0.3005219996 0.7259312868
outer loop
vertex 80.73174286 2.415215015 313.8537598
vertex 80.92034149 2.871345997 313.8256531
vertex 80.28096771 2.556694031 313.4110413

endloop
endfacet
facet normal -0.6178632975 0.2952323258 0.7287543416
outer loop
vertex 80.28096771 2.556694031 313.4110413
vertex 80.92034149 2.871345997 313.8256531
vertex 80.45684052 3.018547058 313.3730469

endloop
endfacet
facet normal -0.64047575 0.3019806445 0.706115067
outer loop
vertex 80.28096771 2.556694031 313.4110413
vertex 80.45684052 3.018547058 313.3730469
vertex 79.83904266 2.674873114 312.9596558

endloop
endfacet
facet normal -0.6399846077 0.2990790308 0.707793355
outer loop
vertex 79.83904266 2.674873114 312.9596558
vertex 80.45684052 3.018547058 313.3730469
vertex 80.00240326 3.138984919 312.9112549

endloop
endfacet
facet normal -0.6657406688 0.3053351343 0.6808521748
outer loop
vertex 79.83904266 2.674873114 312.9596558
vertex 80.00240326 3.138984919 312.9112549
vertex 79.42186737 2.759010077 312.5140076

endloop
endfacet
facet normal -0.6649634242 0.3016324341 0.683257997
outer loop
vertex 79.42186737 2.759010077 312.5140076
vertex 80.00240326 3.138984919 312.9112549
vertex 79.56716156 3.225594044 312.4494324

endloop
endfacet
facet normal -0.6884625554 0.3053881824 0.6578429341
outer loop
vertex 79.42186737 2.758980036 312.5139771
vertex 79.56713104 3.225563049 312.4494019
vertex 79.03325653 2.812050104 312.0826416

endloop
endfacet
facet normal -0.6893777251 0.308863312 0.6552570462
outer loop
vertex 79.03325653 2.812050104 312.0826416
vertex 79.56713104 3.225563049 312.4494019
vertex 79.16707611 3.280296087 312.0027161

endloop
endfacet
facet normal -0.6495802999 0.3045517206 0.6966301799
outer loop
vertex 79.03325653 2.812050104 312.0826416
vertex 79.16707611 3.280296087 312.0027161
vertex 78.63909149 2.939888 311.6592102

endloop
endfacet
facet normal -0.659940362 0.3558860719 0.6616826057
outer loop
vertex 78.63909149 2.939888 311.6592102
vertex 79.16707611 3.280296087 312.0027161
vertex 78.77925873 3.382056952 311.5611877

endloop
endfacet
facet normal -0.9210007191 0.2208182067 -0.320931375
outer loop
vertex 78.63912201 2.939903021 311.6592102
vertex 78.77928925 3.382056952 311.5611877
vertex 78.8615036 2.975166082 311.0452881

endloop
endfacet
facet normal -nan(ind) -nan(ind) -nan(ind)
outer loop
vertex 78.8615036 2.975166082 311.0452881
vertex 78.77928925 3.382056952 311.5611877
vertex 78.8615036 2.975166082 311.0452881

endloop
endfacet
endsolid
