solid 
facet normal -nan(ind) -nan(ind) -nan(ind)
outer loop
vertex 62.26659393 64.18987274 298.1245728
vertex 62.26659393 64.18987274 298.1245728
vertex 61.822258 63.42281342 296.934082

endloop
endfacet
facet normal 0.7758356333 0.3574711084 -0.5198975205
outer loop
vertex 61.822258 63.42281342 296.934082
vertex 62.26659393 64.18987274 298.1245728
vertex 62.16829681 63.0545578 297.1972656

endloop
endfacet
facet normal 0.5888235569 -0.02408886142 -0.8079025745
outer loop
vertex 61.822258 63.42281342 296.934082
vertex 62.16829681 63.0545578 297.1972656
vertex 60.97594452 62.24074554 296.3525085

endloop
endfacet
facet normal 0.5686807036 0.02037447505 -0.8223059773
outer loop
vertex 60.97594452 62.24074554 296.3525085
vertex 62.16829681 63.0545578 297.1972656
vertex 61.34326935 61.86377716 296.5971985

endloop
endfacet
facet normal 0.4646821022 -0.1169345006 -0.8777225018
outer loop
vertex 60.97594452 62.24074554 296.3525085
vertex 61.34326935 61.86377716 296.5971985
vertex 60.06945038 61.2926712 295.9989014

endloop
endfacet
facet normal 0.4075155258 0.04649626464 -0.9120138288
outer loop
vertex 60.06945038 61.2926712 295.9989014
vertex 61.34326935 61.86377716 296.5971985
vertex 60.46157074 60.89800262 296.1539917

endloop
endfacet
facet normal 0.2546037734 -0.1239206493 -0.9590727687
outer loop
vertex 60.06945038 61.2926712 295.9989014
vertex 60.46157074 60.89800262 296.1539917
vertex 58.95063019 60.33977509 295.8250122

endloop
endfacet
facet normal 0.1980380863 0.04112315923 -0.9793313146
outer loop
vertex 58.95063019 60.33977509 295.8250122
vertex 60.46157074 60.89800262 296.1539917
vertex 59.33205414 59.90850067 295.8840332

endloop
endfacet
facet normal 0.06202703714 -0.0812779665 -0.9947596192
outer loop
vertex 58.95063019 60.33977509 295.8250122
vertex 59.33205414 59.90850067 295.8840332
vertex 57.70664215 59.41881561 295.8226929

endloop
endfacet
facet normal 0.02966272645 0.02670552768 -0.9992031455
outer loop
vertex 57.70664215 59.41881561 295.8226929
vertex 59.33205414 59.90850067 295.8840332
vertex 58.06052399 58.95723724 295.8208618

endloop
endfacet
facet normal -0.04613626376 -0.03141088411 -0.9984412193
outer loop
vertex 57.70664215 59.41881561 295.8226929
vertex 58.06052399 58.95723724 295.8208618
vertex 56.42115021 58.48896027 295.9113464

endloop
endfacet
facet normal -0.05772211403 0.009178727865 -0.9982904792
outer loop
vertex 56.42115021 58.48896027 295.9113464
vertex 58.06052399 58.95723724 295.8208618
vertex 56.76738739 58.02098846 295.8870239

endloop
endfacet
facet normal -0.06971430779 0.0002684912179 -0.9975669384
outer loop
vertex 56.42115021 58.48896027 295.9113464
vertex 56.76738739 58.02098846 295.8870239
vertex 55.14228058 57.51689911 296.0004578

endloop
endfacet
facet normal -0.06687676907 -0.008914056234 -0.9977214336
outer loop
vertex 55.14228058 57.51689911 296.0004578
vertex 56.76738739 58.02098846 295.8870239
vertex 55.4920578 57.05147552 295.9811707

endloop
endfacet
facet normal -0.01901697926 0.02719089389 -0.9994493723
outer loop
vertex 55.14228058 57.51689911 296.0004578
vertex 55.4920578 57.05147552 295.9811401
vertex 53.87459564 56.54167938 295.9980469

endloop
endfacet
facet normal -0.004797278903 -0.01793737523 -0.9998276234
outer loop
vertex 53.87459564 56.54167938 295.9980469
vertex 55.4920578 57.05147552 295.9811401
vertex 54.215065 56.06958771 296.0048828

endloop
endfacet
facet normal 0.05592376739 0.02587925643 -0.9980995655
outer loop
vertex 53.87459564 56.54167938 295.9980469
vertex 54.215065 56.06958771 296.0048828
vertex 52.58620453 55.65009308 295.9027405

endloop
endfacet
facet normal 0.06519934535 -0.01020504721 -0.9978200793
outer loop
vertex 52.58620453 55.65009308 295.9027405
vertex 54.215065 56.06958771 296.0048828
vertex 52.89594269 55.15830231 295.928009

endloop
endfacet
facet normal 0.07902397215 -0.001387515687 -0.9968717098
outer loop
vertex 52.58621979 55.65010834 295.902771
vertex 52.89595795 55.15833282 295.928009
vertex 51.23194122 54.88596344 295.7964783

endloop
endfacet
facet normal 0.07894629985 -0.000909798895 -0.9968783855
outer loop
vertex 51.23194122 54.88596344 295.7964783
vertex 52.89595795 55.15833282 295.928009
vertex 51.50347137 54.37181854 295.8184509

endloop
endfacet
facet normal 0.04912729561 -0.01673361845 -0.998652339
outer loop
vertex 51.23194122 54.88596344 295.7964783
vertex 51.50347137 54.37181854 295.8184509
vertex 49.80538177 54.20011139 295.737793

endloop
endfacet
facet normal 0.04708639532 0.003558751196 -0.9988844991
outer loop
vertex 49.80538177 54.20011139 295.737793
vertex 51.50347137 54.37181854 295.8184509
vertex 50.05553436 53.67418671 295.7477112

endloop
endfacet
facet normal 0.01745363139 -0.01055299118 -0.9997919202
outer loop
vertex 49.80538177 54.20011139 295.737793
vertex 50.05553436 53.67418671 295.7477112
vertex 48.34712982 53.51148224 295.7196045

endloop
endfacet
facet normal 0.01637330465 0.0008032107726 -0.9998655915
outer loop
vertex 48.34712982 53.51148224 295.7196045
vertex 50.05553436 53.67418671 295.7477112
vertex 48.60022736 52.98683929 295.7233276

endloop
endfacet
facet normal 0.006753723603 -0.003838193603 -0.9999697804
outer loop
vertex 48.34712982 53.51148224 295.7196045
vertex 48.60022736 52.98683929 295.7233276
vertex 46.89966583 52.78524017 295.712616

endloop
endfacet
facet normal 0.0065099895 -0.001781812054 -0.999977231
outer loop
vertex 46.89966583 52.78524017 295.712616
vertex 48.60022736 52.98683929 295.7233276
vertex 47.16565704 52.26702118 295.715271

endloop
endfacet
facet normal 0.004318803083 -0.002906550188 -0.9999864697
outer loop
vertex 46.89969635 52.78525543 295.7126465
vertex 47.16568756 52.26703644 295.7153015
vertex 45.47348785 52.02050018 295.7087097

endloop
endfacet
facet normal 0.004137984943 -0.001665336313 -0.999990046
outer loop
vertex 45.47348785 52.02050018 295.7087097
vertex 47.16568756 52.26703644 295.7153015
vertex 45.75511932 51.51084137 295.7107239

endloop
endfacet
facet normal -0.005020073149 -0.00672587147 -0.9999647737
outer loop
vertex 45.47348785 52.02050018 295.7087097
vertex 45.75511932 51.51084137 295.7107239
vertex 44.07979584 51.19594574 295.7212524

endloop
endfacet
facet normal -0.007047237363 0.004059078638 -0.9999669194
outer loop
vertex 44.07979584 51.19594574 295.7212524
vertex 45.75511932 51.51084137 295.7107239
vertex 44.3894577 50.70359039 295.7170715

endloop
endfacet
facet normal -0.04517464712 -0.01993084326 -0.9987802505
outer loop
vertex 44.07979584 51.19594574 295.7212524
vertex 44.3894577 50.70359039 295.7170715
vertex 42.75444794 50.28644562 295.7993469

endloop
endfacet
facet normal -0.0551450327 0.0192444846 -0.998292923
outer loop
vertex 42.75444794 50.28644562 295.7993469
vertex 44.3894577 50.70359039 295.7170715
vertex 43.10300446 49.82247162 295.7711487

endloop
endfacet
facet normal -0.1278937608 -0.03584209457 -0.991140008
outer loop
vertex 42.75444794 50.28644562 295.7993469
vertex 43.10300446 49.82247162 295.7711487
vertex 41.5499649 49.32262421 295.989624

endloop
endfacet
facet normal -0.1487050205 0.03000520356 -0.9884262681
outer loop
vertex 41.5499649 49.32262421 295.989624
vertex 43.10300446 49.82247162 295.7711487
vertex 41.92702484 48.88515472 295.9196167

endloop
endfacet
facet normal -0.2241154462 -0.03732487932 -0.973847568
outer loop
vertex 41.5499649 49.32262421 295.989624
vertex 41.92702484 48.88515472 295.9196167
vertex 40.52463531 48.39981842 296.2609558

endloop
endfacet
facet normal -0.2445600927 0.02493928932 -0.9693133235
outer loop
vertex 40.52463531 48.39981842 296.2609558
vertex 41.92702484 48.88515472 295.9196167
vertex 40.90685272 47.97632599 296.1536255

endloop
endfacet
facet normal -0.2552671731 0.01448924467 -0.9667620063
outer loop
vertex 40.52463531 48.39983368 296.2609253
vertex 40.90685272 47.97632599 296.153656
vertex 39.38700104 47.40206146 296.5463562

endloop
endfacet
facet normal -0.2792778909 0.0851001963 -0.9564318061
outer loop
vertex 39.38700104 47.40206146 296.5463562
vertex 40.90685272 47.97632599 296.153656
vertex 39.74678802 46.99237823 296.4048462

endloop
endfacet
facet normal -0.5706065297 -0.2286680341 -0.7887452245
outer loop
vertex 39.38700104 47.40206146 296.5463562
vertex 39.74678802 46.99237823 296.4048462
vertex 38.87459564 46.3347702 297.2264709

endloop
endfacet
facet normal -nan(ind) -nan(ind) -nan(ind)
outer loop
vertex 38.87459564 46.3347702 297.2264709
vertex 39.74678802 46.99237823 296.4048462
vertex 38.87459564 46.3347702 297.2264709

endloop
endfacet
facet normal -0.3301080465 -0.5798200369 0.7448740602
outer loop
vertex 62.26659393 64.18987274 298.1245728
vertex 62.26657867 64.18984222 298.1245422
vertex 62.16829681 63.0545578 297.1972656

endloop
endfacet
facet normal 0.988966763 0.03244304657 -0.1445411295
outer loop
vertex 62.16829681 63.0545578 297.1972656
vertex 62.26657867 64.18984222 298.1245422
vertex 62.21849823 62.85791779 297.4966125

endloop
endfacet
facet normal 0.836871922 -0.3824855089 -0.3915995061
outer loop
vertex 62.16829681 63.0545578 297.1972656
vertex 62.21849823 62.85791779 297.4966125
vertex 61.34326935 61.86377716 296.5971985

endloop
endfacet
facet normal 0.8357890844 -0.3636825085 -0.4113290608
outer loop
vertex 61.34326935 61.86377716 296.5971985
vertex 62.21849823 62.85791779 297.4966125
vertex 61.41088104 61.67034149 296.9056091

endloop
endfacet
facet normal 0.75039047 -0.4733316302 -0.4613796473
outer loop
vertex 61.34326935 61.86377716 296.5971985
vertex 61.41088104 61.67034149 296.9056091
vertex 60.46157074 60.89800262 296.1539917

endloop
endfacet
facet normal 0.7399322987 -0.351069659 -0.5738033056
outer loop
vertex 60.46157074 60.89800262 296.1539917
vertex 61.41088104 61.67034149 296.9056091
vertex 60.58496857 60.6957016 296.4368896

endloop
endfacet
facet normal 0.5944012403 -0.5085561872 -0.6229428649
outer loop
vertex 60.46157074 60.89800262 296.1539917
vertex 60.58496857 60.6957016 296.4368896
vertex 59.33205414 59.90850067 295.8840332

endloop
endfacet
facet normal 0.5655052662 -0.3895036578 -0.7269736528
outer loop
vertex 59.33205414 59.90850067 295.8840332
vertex 60.58496857 60.6957016 296.4368896
vertex 59.49738312 59.68740082 296.1311035

endloop
endfacet
facet normal 0.4230365157 -0.5159992576 -0.7448387742
outer loop
vertex 59.33205414 59.90850067 295.8840332
vertex 59.49738312 59.68740082 296.1311035
vertex 58.06052399 58.95723724 295.8208618

endloop
endfacet
facet normal 0.3968943954 -0.4383978248 -0.8064008355
outer loop
vertex 58.06052399 58.95723724 295.8208618
vertex 59.49738312 59.68740082 296.1311035
vertex 58.24486542 58.72057343 296.0402527

endloop
endfacet
facet normal 0.3195248544 -0.4982813299 -0.8059898615
outer loop
vertex 58.06052399 58.95723724 295.8208618
vertex 58.24486542 58.72057343 296.0402527
vertex 56.76738739 58.02098846 295.8870239

endloop
endfacet
facet normal 0.3077450991 -0.4685612917 -0.8280962706
outer loop
vertex 56.76738739 58.02098846 295.8870239
vertex 58.24486542 58.72057343 296.0402527
vertex 56.96138763 57.78105927 296.0948792

endloop
endfacet
facet normal 0.2997136712 -0.4746185541 -0.8275922537
outer loop
vertex 56.76738739 58.02098846 295.8870239
vertex 56.96138763 57.78105927 296.0948792
vertex 55.4920578 57.05147552 295.9811707

endloop
endfacet
facet normal 0.3027665019 -0.4815680683 -0.8224503994
outer loop
vertex 55.4920578 57.05147552 295.9811707
vertex 56.96138763 57.78105927 296.0948792
vertex 55.68436432 56.81285858 296.1916809

endloop
endfacet
facet normal 0.3356633484 -0.4564711452 -0.8239928484
outer loop
vertex 55.4920578 57.05147552 295.9811401
vertex 55.68437958 56.81284332 296.1916809
vertex 54.215065 56.06958771 296.0048828

endloop
endfacet
facet normal 0.3500137329 -0.4915142059 -0.7974360585
outer loop
vertex 54.215065 56.06958771 296.0048828
vertex 55.68437958 56.81284332 296.1916809
vertex 54.38565826 55.8275528 296.2289429

endloop
endfacet
facet normal 0.3740346432 -0.4741957784 -0.7970172167
outer loop
vertex 54.215065 56.06958771 296.0048828
vertex 54.38565826 55.8275528 296.2289429
vertex 52.89594269 55.15830231 295.928009

endloop
endfacet
facet normal 0.3823630214 -0.5024168491 -0.7754843235
outer loop
vertex 52.89594269 55.15830231 295.928009
vertex 54.38565826 55.8275528 296.2289429
vertex 53.03746796 54.90618134 296.1611328

endloop
endfacet
facet normal 0.3546704054 -0.5196551681 -0.7772820592
outer loop
vertex 52.89595795 55.15833282 295.928009
vertex 53.03748322 54.90618134 296.1611633
vertex 51.50347137 54.37181854 295.8184509

endloop
endfacet
facet normal 0.3543972671 -0.5181452036 -0.7784138918
outer loop
vertex 51.50347137 54.37181854 295.8184509
vertex 53.03748322 54.90618134 296.1611633
vertex 51.62664032 54.10822296 296.0499878

endloop
endfacet
facet normal 0.3012389839 -0.5459491014 -0.7817893624
outer loop
vertex 51.50347137 54.37181854 295.8184509
vertex 51.62664032 54.10822296 296.0499878
vertex 50.05553436 53.67418671 295.7477112

endloop
endfacet
facet normal 0.2991153598 -0.5302093625 -0.7933523655
outer loop
vertex 50.05553436 53.67418671 295.7477112
vertex 51.62664032 54.10822296 296.0499878
vertex 50.17655182 53.40454865 295.9735413

endloop
endfacet
facet normal 0.2702490389 -0.5440129638 -0.7943647504
outer loop
vertex 50.05553436 53.67418671 295.7477112
vertex 50.17655182 53.40454865 295.9735413
vertex 48.60022736 52.98683929 295.7233276

endloop
endfacet
facet normal 0.2689647675 -0.5354248881 -0.8006111383
outer loop
vertex 48.60022736 52.98683929 295.7233276
vertex 50.17655182 53.40454865 295.9735413
vertex 48.72808075 52.71785736 295.946167

endloop
endfacet
facet normal 0.2723320723 -0.5337871909 -0.8005663157
outer loop
vertex 48.60022736 52.98683929 295.7233276
vertex 48.72808075 52.71785736 295.946167
vertex 47.16565704 52.26702118 295.715271

endloop
endfacet
facet normal 0.2720347643 -0.5321457386 -0.801759243
outer loop
vertex 47.16565704 52.26702118 295.715271
vertex 48.72808075 52.71785736 295.946167
vertex 47.3010788 52.00133514 295.937561

endloop
endfacet
facet normal 0.2844624221 -0.5257690549 -0.801653266
outer loop
vertex 47.16568756 52.26703644 295.7153015
vertex 47.30109406 52.00136566 295.9375916
vertex 45.75511932 51.51084137 295.7107239

endloop
endfacet
facet normal 0.2842822671 -0.5249120593 -0.8022785783
outer loop
vertex 45.75511932 51.51084137 295.7107239
vertex 47.30109406 52.00136566 295.9375916
vertex 45.89904022 51.24954987 295.9326782

endloop
endfacet
facet normal 0.3010495901 -0.5156065822 -0.8021963239
outer loop
vertex 45.75511932 51.51084137 295.7107239
vertex 45.89904022 51.24954987 295.9326782
vertex 44.3894577 50.70359039 295.7170715

endloop
endfacet
facet normal 0.2990294993 -0.5077521801 -0.8079413176
outer loop
vertex 44.3894577 50.70359039 295.7170715
vertex 45.89904022 51.24954987 295.9326782
vertex 44.55173492 50.4511795 295.9357605

endloop
endfacet
facet normal 0.3093536198 -0.5012595057 -0.808108449
outer loop
vertex 44.3894577 50.70359039 295.7170715
vertex 44.55173492 50.4511795 295.9357605
vertex 43.10300446 49.82247162 295.7711487

endloop
endfacet
facet normal 0.2985494733 -0.4705438614 -0.830335319
outer loop
vertex 43.10300446 49.82247162 295.7711487
vertex 44.55173492 50.4511795 295.9357605
vertex 43.29923248 49.58460236 295.9765015

endloop
endfacet
facet normal 0.2809576094 -0.4837853312 -0.8288635015
outer loop
vertex 43.10300446 49.82247162 295.7711487
vertex 43.29923248 49.58460236 295.9765015
vertex 41.92702484 48.88515472 295.9196167

endloop
endfacet
facet normal 0.2556373477 -0.4311467409 -0.8653103113
outer loop
vertex 41.92702484 48.88515472 295.9196167
vertex 43.29923248 49.58460236 295.9765015
vertex 42.16059113 48.66086578 296.1003723

endloop
endfacet
facet normal 0.2174883932 -0.4650888443 -0.8581323624
outer loop
vertex 41.92702484 48.88515472 295.9196167
vertex 42.16059113 48.66086578 296.1003723
vertex 40.90685272 47.97632599 296.1536255

endloop
endfacet
facet normal 0.1897268146 -0.4166484475 -0.8890488148
outer loop
vertex 40.90685272 47.97632599 296.1536255
vertex 42.16059113 48.66086578 296.1003723
vertex 41.16278839 47.75907135 296.3100586

endloop
endfacet
facet normal 0.1745019257 -0.4316645861 -0.8849942684
outer loop
vertex 40.90685272 47.97632599 296.153656
vertex 41.16278839 47.75907135 296.3100891
vertex 39.74678802 46.99237823 296.4048462

endloop
endfacet
facet normal 0.1305916458 -0.3555708528 -0.925481081
outer loop
vertex 39.74678802 46.99237823 296.4048462
vertex 41.16278839 47.75907135 296.3100891
vertex 40.00281525 46.77368927 296.5249939

endloop
endfacet
facet normal -0.2061761916 -0.6454390883 -0.7354589105
outer loop
vertex 39.74678802 46.99237823 296.4048462
vertex 40.00281525 46.77368927 296.5249939
vertex 38.87459564 46.3347702 297.2264709

endloop
endfacet
facet normal -0.580021441 0.5816370845 -0.5703275204
outer loop
vertex 38.87459564 46.3347702 297.2264709
vertex 40.00281525 46.77368927 296.5249939
vertex 38.87458038 46.33475494 297.2264709

endloop
endfacet
facet normal 0.05563734099 0.4241272807 -0.903891921
outer loop
vertex 62.26657867 64.18984222 298.1245422
vertex 62.26660919 64.18990326 298.1245728
vertex 62.21849823 62.85791779 297.4966125

endloop
endfacet
facet normal 0.9568654895 -0.1514495909 0.2479343712
outer loop
vertex 62.21849823 62.85791779 297.4966125
vertex 62.26660919 64.18990326 298.1245728
vertex 62.12702179 62.75717926 297.7881165

endloop
endfacet
facet normal 0.8128145337 -0.5799537301 0.05464658514
outer loop
vertex 62.21849823 62.85791779 297.4966125
vertex 62.12702179 62.75717926 297.7881165
vertex 61.41088104 61.67034149 296.9056091

endloop
endfacet
facet normal 0.8224705458 -0.5679082274 0.03197639808
outer loop
vertex 61.41088104 61.67034149 296.9056091
vertex 62.12702179 62.75717926 297.7881165
vertex 61.33861542 61.58235931 297.2017822

endloop
endfacet
facet normal 0.7641313076 -0.6450399756 -0.005171289202
outer loop
vertex 61.41088104 61.67034149 296.9056091
vertex 61.33861542 61.58235931 297.2017822
vertex 60.58496857 60.6957016 296.4368896

endloop
endfacet
facet normal 0.8120273948 -0.565402329 -0.1446784288
outer loop
vertex 60.58496857 60.6957016 296.4368896
vertex 61.33861542 61.58235931 297.2017822
vertex 60.57482147 60.60388947 296.738739

endloop
endfacet
facet normal 0.6956472397 -0.6934708953 -0.1875447035
outer loop
vertex 60.58496857 60.6957016 296.4368896
vertex 60.57482147 60.60388947 296.738739
vertex 59.49738312 59.68740082 296.1311035

endloop
endfacet
facet normal 0.7125547528 -0.6202344298 -0.3279861808
outer loop
vertex 59.49738312 59.68740082 296.1311035
vertex 60.57482147 60.60388947 296.738739
vertex 59.54677582 59.58707428 296.4281311

endloop
endfacet
facet normal 0.5891135335 -0.7307918668 -0.3448020518
outer loop
vertex 59.49738312 59.68740082 296.1311035
vertex 59.54677582 59.58707428 296.4281311
vertex 58.24486542 58.72057343 296.0402527

endloop
endfacet
facet normal 0.585355103 -0.6861365438 -0.4319444895
outer loop
vertex 58.24486542 58.72057343 296.0402527
vertex 59.54677582 59.58707428 296.4281311
vertex 58.33107758 58.61316681 296.3276978

endloop
endfacet
facet normal 0.520834446 -0.7366019487 -0.4314500093
outer loop
vertex 58.24486542 58.72057343 296.0402527
vertex 58.33107758 58.61316681 296.3276978
vertex 56.96138763 57.78105927 296.0948792

endloop
endfacet
facet normal 0.5161114931 -0.7195420861 -0.4646376669
outer loop
vertex 56.96138763 57.78105927 296.0948792
vertex 58.33107758 58.61316681 296.3276978
vertex 57.06360626 57.67217255 296.3770447

endloop
endfacet
facet normal 0.512442708 -0.7223237157 -0.4643822014
outer loop
vertex 56.96138763 57.78105927 296.0948792
vertex 57.06360626 57.67217255 296.3770447
vertex 55.68436432 56.81285858 296.1916809

endloop
endfacet
facet normal 0.5139293671 -0.7264775038 -0.456187427
outer loop
vertex 55.68436432 56.81285858 296.1916809
vertex 57.06360626 57.67217255 296.3770447
vertex 55.7828598 56.70456696 296.4750977

endloop
endfacet
facet normal 0.5292209387 -0.7148566842 -0.4570614696
outer loop
vertex 55.68437958 56.81284332 296.1916809
vertex 55.78287506 56.7045517 296.4750977
vertex 54.38565826 55.8275528 296.2289429

endloop
endfacet
facet normal 0.5349225402 -0.7355377078 -0.4157428145
outer loop
vertex 54.38565826 55.8275528 296.2289429
vertex 55.78287506 56.7045517 296.4750977
vertex 54.45981598 55.71772003 296.5186768

endloop
endfacet
facet normal 0.5272997022 -0.7409625053 -0.4158481658
outer loop
vertex 54.38565826 55.8275528 296.2289429
vertex 54.45981598 55.71772003 296.5186768
vertex 53.03746796 54.90618134 296.1611328

endloop
endfacet
facet normal 0.5285013318 -0.7569695711 -0.3842959702
outer loop
vertex 53.03746796 54.90618134 296.1611328
vertex 54.45981598 55.71772003 296.5186768
vertex 53.0870285 54.79175568 296.4546814

endloop
endfacet
facet normal 0.476721257 -0.7888262272 -0.3879306316
outer loop
vertex 53.03748322 54.90618134 296.1611633
vertex 53.08704376 54.79177094 296.4547119
vertex 51.62664032 54.10822296 296.0499878

endloop
endfacet
facet normal 0.4768153727 -0.7874732018 -0.3905549347
outer loop
vertex 51.62664032 54.10822296 296.0499878
vertex 53.08704376 54.79177094 296.4547119
vertex 51.66893768 53.9885788 296.342865

endloop
endfacet
facet normal 0.4178973138 -0.8183035254 -0.3946405053
outer loop
vertex 51.62664032 54.10822296 296.0499878
vertex 51.66893768 53.9885788 296.342865
vertex 50.17655182 53.40454865 295.9735413

endloop
endfacet
facet normal 0.4186369777 -0.8097472787 -0.4111598432
outer loop
vertex 50.17655182 53.40454865 295.9735413
vertex 51.66893768 53.9885788 296.342865
vertex 50.2253952 53.28218842 296.2642517

endloop
endfacet
facet normal 0.3966899216 -0.8203360438 -0.4119294286
outer loop
vertex 50.17655182 53.40454865 295.9735413
vertex 50.2253952 53.28218842 296.2642517
vertex 48.72808075 52.71785736 295.946167

endloop
endfacet
facet normal 0.396851629 -0.8154990673 -0.4212719202
outer loop
vertex 48.72808075 52.71785736 295.946167
vertex 50.2253952 53.28218842 296.2642517
vertex 48.78453827 52.59580231 296.2356262

endloop
endfacet
facet normal 0.4090219438 -0.8095364571 -0.4211314321
outer loop
vertex 48.72808075 52.71785736 295.946167
vertex 48.78453827 52.59580231 296.2356262
vertex 47.3010788 52.00133514 295.937561

endloop
endfacet
facet normal 0.4090103507 -0.8086412549 -0.4228592813
outer loop
vertex 47.3010788 52.00133514 295.937561
vertex 48.78453827 52.59580231 296.2356262
vertex 47.36179352 51.88079071 296.2268066

endloop
endfacet
facet normal 0.4294155538 -0.798050046 -0.4227510691
outer loop
vertex 47.30109406 52.00136566 295.9375916
vertex 47.36182404 51.88082123 296.2268372
vertex 45.89904022 51.24954987 295.9326782

endloop
endfacet
facet normal 0.4293925166 -0.7975214124 -0.4237708747
outer loop
vertex 45.89904022 51.24954987 295.9326782
vertex 47.36182404 51.88082123 296.2268372
vertex 45.9640274 51.1309433 296.2217407

endloop
endfacet
facet normal 0.4610742331 -0.7797300816 -0.4235936105
outer loop
vertex 45.89904022 51.24954987 295.9326782
vertex 45.9640274 51.1309433 296.2217407
vertex 44.55173492 50.4511795 295.9357605

endloop
endfacet
facet normal 0.4606641531 -0.7753208876 -0.4320488274
outer loop
vertex 44.55173492 50.4511795 295.9357605
vertex 45.9640274 51.1309433 296.2217407
vertex 44.62848663 50.336586 296.2232361

endloop
endfacet
facet normal 0.503428638 -0.7479640841 -0.4325613379
outer loop
vertex 44.55173492 50.4511795 295.9357605
vertex 44.62848663 50.336586 296.2232361
vertex 43.29923248 49.58460236 295.9765015

endloop
endfacet
facet normal 0.4995666146 -0.7300676703 -0.4662987292
outer loop
vertex 43.29923248 49.58460236 295.9765015
vertex 44.62848663 50.336586 296.2232361
vertex 43.4033432 49.47661591 296.2571106

endloop
endfacet
facet normal 0.5253754854 -0.7104013562 -0.468306005
outer loop
vertex 43.29923248 49.58460236 295.9765015
vertex 43.4033432 49.47661591 296.2571106
vertex 42.16059113 48.66086578 296.1003723

endloop
endfacet
facet normal 0.5115635395 -0.6778936982 -0.5279799104
outer loop
vertex 42.16059113 48.66086578 296.1003723
vertex 43.4033432 49.47661591 296.2571106
vertex 42.30101776 48.5590744 296.3671265

endloop
endfacet
facet normal 0.5062258244 -0.6826562285 -0.5269875526
outer loop
vertex 42.16059113 48.66086578 296.1003723
vertex 42.30101776 48.5590744 296.3671265
vertex 41.16278839 47.75907135 296.3100586

endloop
endfacet
facet normal 0.487387687 -0.6520149112 -0.5808009505
outer loop
vertex 41.16278839 47.75907135 296.3100586
vertex 42.30101776 48.5590744 296.3671265
vertex 41.33036041 47.66022491 296.5616455

endloop
endfacet
facet normal 0.465438813 -0.6732180119 -0.5745818019
outer loop
vertex 41.16278839 47.75907135 296.3100891
vertex 41.33036041 47.66022491 296.5616455
vertex 40.00281525 46.77368927 296.5249939

endloop
endfacet
facet normal 0.4338335991 -0.6227249503 -0.6511543989
outer loop
vertex 40.00281525 46.77368927 296.5249939
vertex 41.33036041 47.66022491 296.5616455
vertex 40.18978119 46.66164398 296.7567139

endloop
endfacet
facet normal 0.05192579329 -0.8820012212 -0.4683775902
outer loop
vertex 40.00281525 46.77368927 296.5249939
vertex 40.18978119 46.66164398 296.7567139
vertex 38.87458038 46.33475494 297.2264709

endloop
endfacet
facet normal 0.3263896108 -0.9006198049 0.2869733274
outer loop
vertex 38.87458038 46.33475494 297.2264709
vertex 40.18978119 46.66164398 296.7567139
vertex 38.87459564 46.3347702 297.2265015

endloop
endfacet
facet normal 0.9236632586 0 -0.3832050562
outer loop
vertex 62.26660919 64.18990326 298.1245728
vertex 62.26660919 64.18987274 298.1245728
vertex 62.12702179 62.75717926 297.7881165

endloop
endfacet
facet normal 0.7611122131 -0.2176468372 0.6110139489
outer loop
vertex 62.12702179 62.75717926 297.7881165
vertex 62.26660919 64.18987274 298.1245728
vertex 61.91829681 62.75052643 298.0457458

endloop
endfacet
facet normal 0.6041198969 -0.6414236426 0.4728793502
outer loop
vertex 62.12702179 62.75717926 297.7881165
vertex 61.91829681 62.75052643 298.0457458
vertex 61.33861542 61.58235931 297.2017822

endloop
endfacet
facet normal 0.6286219358 -0.6356608868 0.4480734766
outer loop
vertex 61.33861542 61.58235931 297.2017822
vertex 61.91829681 62.75052643 298.0457458
vertex 61.16027069 61.58791351 297.4598694

endloop
endfacet
facet normal 0.6015408635 -0.6731313467 0.4301660955
outer loop
vertex 61.33861542 61.58235931 297.2017822
vertex 61.16027069 61.58791351 297.4598694
vertex 60.57482147 60.60388947 296.738739

endloop
endfacet
facet normal 0.7069016695 -0.640494585 0.3000944257
outer loop
vertex 60.57482147 60.60388947 296.738739
vertex 61.16027069 61.58791351 297.4598694
vertex 60.45798492 60.60993195 297.0268555

endloop
endfacet
facet normal 0.6338320971 -0.7239863276 0.2722143233
outer loop
vertex 60.57482147 60.60388947 296.738739
vertex 60.45798492 60.60993195 297.0268555
vertex 59.54677582 59.58707428 296.4281311

endloop
endfacet
facet normal 0.7028158903 -0.7000606656 0.1263520569
outer loop
vertex 59.54677582 59.58707428 296.4281311
vertex 60.45798492 60.60993195 297.0268555
vertex 59.49785614 59.59368134 296.7368469

endloop
endfacet
facet normal 0.6153684855 -0.7799224854 0.1142041236
outer loop
vertex 59.54677582 59.58707428 296.4281311
vertex 59.49785614 59.59368134 296.7368469
vertex 58.33107758 58.61316681 296.3276978

endloop
endfacet
facet normal 0.6391632557 -0.7688177824 0.01973657496
outer loop
vertex 58.33107758 58.61316681 296.3276978
vertex 59.49785614 59.59368134 296.7368469
vertex 58.32984161 58.62021637 296.642334

endloop
endfacet
facet normal 0.5964838862 -0.8023678064 0.0203205198
outer loop
vertex 58.33107758 58.61316681 296.3276978
vertex 58.32984161 58.62021637 296.642334
vertex 57.06360626 57.67217255 296.3770447

endloop
endfacet
facet normal 0.6015039086 -0.7986938953 -0.01676908322
outer loop
vertex 57.06360626 57.67217255 296.3770447
vertex 58.32984161 58.62021637 296.642334
vertex 57.08188629 57.67932892 296.6918945

endloop
endfacet
facet normal 0.6019013524 -0.798393786 -0.01679903269
outer loop
vertex 57.06360626 57.67217255 296.3770447
vertex 57.08188629 57.67932892 296.6918945
vertex 55.7828598 56.70456696 296.4750977

endloop
endfacet
facet normal 0.6009586453 -0.7992467284 -0.007315230556
outer loop
vertex 55.7828598 56.70456696 296.4750977
vertex 57.08188629 57.67932892 296.6918945
vertex 55.79615021 56.71167755 296.7900391

endloop
endfacet
facet normal 0.5977155566 -0.801677227 -0.007055680733
outer loop
vertex 55.78287506 56.7045517 296.4750977
vertex 55.79615021 56.71167755 296.7900391
vertex 54.45981598 55.71772003 296.5186768

endloop
endfacet
facet normal 0.591270566 -0.8055381775 0.03882499412
outer loop
vertex 54.45981598 55.71772003 296.5186768
vertex 55.79615021 56.71167755 296.7900391
vertex 54.4489975 55.7249527 296.8334961

endloop
endfacet
facet normal 0.5575627089 -0.8292549849 0.03821145743
outer loop
vertex 54.45981598 55.71772003 296.5186768
vertex 54.4489975 55.7249527 296.8334961
vertex 53.0870285 54.79175568 296.4546814

endloop
endfacet
facet normal 0.5501935482 -0.8319777846 0.07141377777
outer loop
vertex 53.0870285 54.79175568 296.4546814
vertex 54.4489975 55.7249527 296.8334961
vertex 53.05764008 54.79927826 296.7687378

endloop
endfacet
facet normal 0.487757057 -0.870441258 0.06652260572
outer loop
vertex 53.08704376 54.79177094 296.4547119
vertex 53.05764008 54.79929352 296.7687378
vertex 51.66893768 53.9885788 296.342865

endloop
endfacet
facet normal 0.4884707928 -0.8702434301 0.06381849945
outer loop
vertex 51.66893768 53.9885788 296.342865
vertex 53.05764008 54.79929352 296.7687378
vertex 51.64194489 53.99646759 296.6570435

endloop
endfacet
facet normal 0.4361097813 -0.8978900313 0.06001395732
outer loop
vertex 51.66893768 53.9885788 296.342865
vertex 51.64194489 53.99646759 296.6570435
vertex 50.2253952 53.28218842 296.2642517

endloop
endfacet
facet normal 0.4403724074 -0.8968011141 0.04266153648
outer loop
vertex 50.2253952 53.28218842 296.2642517
vertex 51.64194489 53.99646759 296.6570435
vertex 50.21131134 53.29026031 296.5793152

endloop
endfacet
facet normal 0.4289985001 -0.9023144841 0.04229416698
outer loop
vertex 50.2253952 53.28218842 296.2642517
vertex 50.21131134 53.29026031 296.5793152
vertex 48.78453827 52.59580231 296.2356262

endloop
endfacet
facet normal 0.4311648607 -0.9017031193 0.03206544742
outer loop
vertex 48.78453827 52.59580231 296.2356262
vertex 50.21131134 53.29026031 296.5793152
vertex 48.77793121 52.60385895 296.5510254

endloop
endfacet
facet normal 0.4486486018 -0.8931275606 0.03221268579
outer loop
vertex 48.78453827 52.59580231 296.2356262
vertex 48.77793121 52.60385895 296.5510254
vertex 47.36179352 51.88079071 296.2268066

endloop
endfacet
facet normal 0.4490360618 -0.8930017352 0.03023973294
outer loop
vertex 47.36179352 51.88079071 296.2268066
vertex 48.77793121 52.60385895 296.5510254
vertex 47.35633087 51.88872528 296.5422363

endloop
endfacet
facet normal 0.4724362493 -0.8808425665 0.03033912182
outer loop
vertex 47.36182404 51.88082123 296.2268372
vertex 47.35636139 51.8887558 296.5422668
vertex 45.9640274 51.1309433 296.2217407

endloop
endfacet
facet normal 0.4726521075 -0.8807646036 0.02921700291
outer loop
vertex 45.9640274 51.1309433 296.2217407
vertex 47.35636139 51.8887558 296.5422668
vertex 45.95908356 51.1387558 296.5372314

endloop
endfacet
facet normal 0.511000216 -0.8590816855 0.02928099781
outer loop
vertex 45.9640274 51.1309433 296.2217407
vertex 45.95908356 51.1387558 296.5372314
vertex 44.62848663 50.336586 296.2232361

endloop
endfacet
facet normal 0.5127511621 -0.8583070636 0.01988195442
outer loop
vertex 44.62848663 50.336586 296.2232361
vertex 45.95908356 51.1387558 296.5372314
vertex 44.62885284 50.34410858 296.5385437

endloop
endfacet
facet normal 0.5747714043 -0.8180968761 0.01885052584
outer loop
vertex 44.62848663 50.336586 296.2232361
vertex 44.62885284 50.34410858 296.5385437
vertex 43.4033432 49.47661591 296.2571106

endloop
endfacet
facet normal 0.5804475546 -0.8140941262 -0.01820440777
outer loop
vertex 43.4033432 49.47661591 296.2571106
vertex 44.62885284 50.34410858 296.5385437
vertex 43.42314911 49.48371124 296.5713196

endloop
endfacet
facet normal 0.6382313967 -0.7695052624 -0.02285374887
outer loop
vertex 43.4033432 49.47661591 296.2571106
vertex 43.42314911 49.48371124 296.5713196
vertex 42.30101776 48.5590744 296.3671265

endloop
endfacet
facet normal 0.643094182 -0.7603650689 -0.0909659341
outer loop
vertex 42.30101776 48.5590744 296.3671265
vertex 43.42314911 49.48371124 296.5713196
vertex 42.35285187 48.56577301 296.6775818

endloop
endfacet
facet normal 0.6660159826 -0.7398329973 -0.09523589909
outer loop
vertex 42.30101776 48.5590744 296.3671265
vertex 42.35285187 48.56577301 296.6775818
vertex 41.33036041 47.66022491 296.5616455

endloop
endfacet
facet normal 0.6645640731 -0.7299038768 -0.1599842757
outer loop
vertex 41.33036041 47.66022491 296.5616455
vertex 42.35285187 48.56577301 296.6775818
vertex 41.4104538 47.66646576 296.8658752

endloop
endfacet
facet normal 0.6362355947 -0.7563871741 -0.1519298851
outer loop
vertex 41.33036041 47.66022491 296.5616455
vertex 41.4104538 47.66648102 296.8659058
vertex 40.18978119 46.66164398 296.7567139

endloop
endfacet
facet normal 0.6297984719 -0.7391210794 -0.2388596684
outer loop
vertex 40.18978119 46.66164398 296.7567139
vertex 41.4104538 47.66648102 296.8659058
vertex 40.29845428 46.65428925 297.0660095

endloop
endfacet
facet normal 0.207620278 -0.9734779 -0.09609708935
outer loop
vertex 40.18978119 46.66164398 296.7567139
vertex 40.29845428 46.65428925 297.0660095
vertex 38.87459564 46.3347702 297.2265015

endloop
endfacet
facet normal -0.16252698 0.9124729037 0.3754704893
outer loop
vertex 38.87459564 46.3347702 297.2265015
vertex 40.29845428 46.65428925 297.0660095
vertex 38.8746109 46.33478546 297.2264709

endloop
endfacet
facet normal 0 -0.05468382314 0.9985037446
outer loop
vertex 62.26660919 64.18987274 298.1245728
vertex 62.26657867 64.18987274 298.1245728
vertex 61.91829681 62.75052643 298.0457458

endloop
endfacet
facet normal 0.4425371885 -0.1554494202 0.8831739426
outer loop
vertex 61.91829681 62.75052643 298.0457458
vertex 62.26657867 64.18987274 298.1245728
vertex 61.63422394 62.84653473 298.2049866

endloop
endfacet
facet normal 0.2520382702 -0.5615051985 0.7881551385
outer loop
vertex 61.91829681 62.75052643 298.0457458
vertex 61.63422394 62.84653473 298.2049866
vertex 61.16027069 61.58791351 297.4598694

endloop
endfacet
facet normal 0.3112086952 -0.5681778789 0.7617893815
outer loop
vertex 61.16027069 61.58791351 297.4598694
vertex 61.63422394 62.84653473 298.2049866
vertex 60.91501617 61.68230438 297.6304626

endloop
endfacet
facet normal 0.3142551482 -0.5638324022 0.7637647986
outer loop
vertex 61.16027069 61.58791351 297.4598694
vertex 60.91501617 61.68230438 297.6304626
vertex 60.45798492 60.60993195 297.0268555

endloop
endfacet
facet normal 0.4612520933 -0.5763059855 0.6746242642
outer loop
vertex 60.45798492 60.60993195 297.0268555
vertex 60.91501617 61.68230438 297.6304626
vertex 60.26163483 60.70867157 297.2454529

endloop
endfacet
facet normal 0.4379078448 -0.6038036346 0.6660764813
outer loop
vertex 60.45798492 60.60993195 297.0268555
vertex 60.26163483 60.70867157 297.2454529
vertex 59.49785614 59.59368134 296.7368469

endloop
endfacet
facet normal 0.5535921454 -0.6284641623 0.5464143157
outer loop
vertex 59.49785614 59.59368134 296.7368469
vertex 60.26163483 60.70867157 297.2454529
vertex 59.36420441 59.70159149 296.9963684

endloop
endfacet
facet normal 0.5121389627 -0.667026341 0.5411003828
outer loop
vertex 59.49785614 59.59368134 296.7368469
vertex 59.36420441 59.70159149 296.9963684
vertex 58.32984161 58.62021637 296.642334

endloop
endfacet
facet normal 0.5636711717 -0.6885448098 0.4562684894
outer loop
vertex 58.32984161 58.62021637 296.642334
vertex 59.36420441 59.70159149 296.9963684
vertex 58.24497223 58.73575592 296.9215393

endloop
endfacet
facet normal 0.54708004 -0.7015730143 0.4566166103
outer loop
vertex 58.32984161 58.62021637 296.642334
vertex 58.24497223 58.73575592 296.9215393
vertex 57.08188629 57.67932892 296.6918945

endloop
endfacet
facet normal 0.5624075532 -0.710961163 0.4221752882
outer loop
vertex 57.08188629 57.67932892 296.6918945
vertex 58.24497223 58.73575592 296.9215393
vertex 57.01610565 57.79644012 296.9767456

endloop
endfacet
facet normal 0.5655242205 -0.7086274624 0.4219354391
outer loop
vertex 57.08188629 57.67932892 296.6918945
vertex 57.01610565 57.79644012 296.9767456
vertex 55.79615021 56.71167755 296.7900391

endloop
endfacet
facet normal 0.5620251894 -0.7061861157 0.4306145012
outer loop
vertex 55.79615021 56.71167755 296.7900391
vertex 57.01610565 57.79644012 296.9767456
vertex 55.7251358 56.82814789 297.0737305

endloop
endfacet
facet normal 0.5420128703 -0.72098279 0.4317476749
outer loop
vertex 55.79615021 56.71167755 296.7900391
vertex 55.72512054 56.82816315 297.0737305
vertex 54.4489975 55.7249527 296.8334961

endloop
endfacet
facet normal 0.5238991976 -0.7088569999 0.4722829759
outer loop
vertex 54.4489975 55.7249527 296.8334961
vertex 55.72512054 56.82816315 297.0737305
vertex 54.35881805 55.84308624 297.1108398

endloop
endfacet
facet normal 0.4733317792 -0.7444016933 0.4709809124
outer loop
vertex 54.4489975 55.7249527 296.8334961
vertex 54.35881805 55.84308624 297.1108398
vertex 53.05764008 54.79927826 296.7687378

endloop
endfacet
facet normal 0.4583084881 -0.7350647449 0.4996330142
outer loop
vertex 53.05764008 54.79927826 296.7687378
vertex 54.35881805 55.84308624 297.1108398
vertex 52.95824432 54.92235565 297.0409851

endloop
endfacet
facet normal 0.3988656402 -0.7721716166 0.49462834
outer loop
vertex 53.05764008 54.79929352 296.7687378
vertex 52.95825958 54.92237091 297.0410156
vertex 51.64194489 53.99646759 296.6570435

endloop
endfacet
facet normal 0.399769634 -0.7727671266 0.4929655492
outer loop
vertex 51.64194489 53.99646759 296.6570435
vertex 52.95825958 54.92237091 297.0410156
vertex 51.55373383 54.1251297 296.9302673

endloop
endfacet
facet normal 0.3641866148 -0.7917458415 0.4904146194
outer loop
vertex 51.64194489 53.99646759 296.6570435
vertex 51.55373383 54.1251297 296.9302673
vertex 50.21131134 53.29026031 296.5793152

endloop
endfacet
facet normal 0.3716534972 -0.7974294424 0.4753735363
outer loop
vertex 50.21131134 53.29026031 296.5793152
vertex 51.55373383 54.1251297 296.9302673
vertex 50.13961029 53.42186737 296.8561401

endloop
endfacet
facet normal 0.3723258674 -0.7971040606 0.4753931165
outer loop
vertex 50.21131134 53.29026031 296.5793152
vertex 50.13961029 53.42186737 296.8561401
vertex 48.77793121 52.60385895 296.5510254

endloop
endfacet
facet normal 0.3764915764 -0.800593853 0.4661582708
outer loop
vertex 48.77793121 52.60385895 296.5510254
vertex 50.13961029 53.42186737 296.8561401
vertex 48.71216583 52.73513031 296.8295898

endloop
endfacet
facet normal 0.3952477574 -0.7914358377 0.4662708342
outer loop
vertex 48.77793121 52.60385895 296.5510254
vertex 48.71216583 52.73513031 296.8295898
vertex 47.35633087 51.88872528 296.5422363

endloop
endfacet
facet normal 0.396055609 -0.7921082377 0.4644398391
outer loop
vertex 47.35633087 51.88872528 296.5422363
vertex 48.71216583 52.73513031 296.8295898
vertex 47.28855133 52.01836395 296.8211365

endloop
endfacet
facet normal 0.417504698 -0.7809456587 0.4645574391
outer loop
vertex 47.35636139 51.8887558 296.5422668
vertex 47.28858185 52.01840973 296.8211365
vertex 45.95908356 51.1387558 296.5372314

endloop
endfacet
facet normal 0.4179201126 -0.7812743187 0.463630408
outer loop
vertex 45.95908356 51.1387558 296.5372314
vertex 47.28858185 52.01840973 296.8211365
vertex 45.88805389 51.26630402 296.8161926

endloop
endfacet
facet normal 0.4547586441 -0.7604955435 0.463509649
outer loop
vertex 45.95908356 51.1387558 296.5372314
vertex 45.88805389 51.26630402 296.8161926
vertex 44.62885284 50.34410858 296.5385437

endloop
endfacet
facet normal 0.4587655067 -0.7633436322 0.4547973871
outer loop
vertex 44.62885284 50.34410858 296.5385437
vertex 45.88805389 51.26630402 296.8161926
vertex 44.55590057 50.4673233 296.8189392

endloop
endfacet
facet normal 0.525945127 -0.7197632194 0.4531253576
outer loop
vertex 44.62885284 50.34410858 296.5385437
vertex 44.55590057 50.4673233 296.8189392
vertex 43.42314911 49.48371124 296.5713196

endloop
endfacet
facet normal 0.5409947634 -0.7287222147 0.4198673666
outer loop
vertex 43.42314911 49.48371124 296.5713196
vertex 44.55590057 50.4673233 296.8189392
vertex 43.3582077 49.59981537 296.8565063

endloop
endfacet
facet normal 0.6161091924 -0.6705285907 0.4132805467
outer loop
vertex 43.42314911 49.48371124 296.5713196
vertex 43.3582077 49.59981537 296.8565063
vertex 42.35285187 48.56577301 296.6775818

endloop
endfacet
facet normal 0.6401067376 -0.6831683517 0.3514888287
outer loop
vertex 42.35285187 48.56577301 296.6775818
vertex 43.3582077 49.59981537 296.8565063
vertex 42.30954742 48.67525482 296.9692383

endloop
endfacet
facet normal 0.6834084988 -0.6442719102 0.3433171511
outer loop
vertex 42.35285187 48.56577301 296.6775818
vertex 42.30954742 48.67525482 296.9692383
vertex 41.4104538 47.66646576 296.8658752

endloop
endfacet
facet normal 0.7017126083 -0.6542975307 0.2819469869
outer loop
vertex 41.4104538 47.66646576 296.8658752
vertex 42.30954742 48.67525482 296.9692383
vertex 41.39073944 47.77251434 297.1610413

endloop
endfacet
facet normal 0.6722736955 -0.6813150048 0.2895824313
outer loop
vertex 41.4104538 47.66648102 296.8659058
vertex 41.3907547 47.77249908 297.1610718
vertex 40.29845428 46.65428925 297.0660095

endloop
endfacet
facet normal 0.6853550076 -0.6894121766 0.2345193475
outer loop
vertex 40.29845428 46.65428925 297.0660095
vertex 41.3907547 47.77249908 297.1610718
vertex 40.29691315 46.76108551 297.3844604

endloop
endfacet
facet normal 0.2412778884 -0.9197413921 0.3096137643
outer loop
vertex 40.29845428 46.65428925 297.0660095
vertex 40.29691315 46.76108551 297.3844604
vertex 38.8746109 46.33478546 297.2264709

endloop
endfacet
facet normal 0.1549627036 -0.1549627036 -0.9756910801
outer loop
vertex 38.8746109 46.33478546 297.2264709
vertex 40.29691315 46.76108551 297.3844604
vertex 38.87459564 46.3347702 297.2264709

endloop
endfacet
facet normal 0.6620439291 -0.351277262 -0.6620439291
outer loop
vertex 62.26657867 64.18987274 298.1245728
vertex 62.26660919 64.18987274 298.1246033
vertex 61.63422394 62.84653473 298.2049866

endloop
endfacet
facet normal 0.09079009295 0.01684278436 0.9957275987
outer loop
vertex 61.63422394 62.84653473 298.2049866
vertex 62.26660919 64.18987274 298.1246033
vertex 61.35161591 63.0167923 298.2278748

endloop
endfacet
facet normal -0.1450122595 -0.3643677235 0.9198954105
outer loop
vertex 61.63422394 62.84653473 298.2049866
vertex 61.35161591 63.0167923 298.2278748
vertex 60.91501617 61.68230438 297.6304626

endloop
endfacet
facet normal -0.04762837663 -0.3951105177 0.9173980355
outer loop
vertex 60.91501617 61.68230438 297.6304626
vertex 61.35161591 63.0167923 298.2278748
vertex 60.65914154 61.83913422 297.6847229

endloop
endfacet
facet normal -0.02006598748 -0.3559814692 0.9342775345
outer loop
vertex 60.91501617 61.68230438 297.6304626
vertex 60.65914154 61.83913422 297.6847229
vertex 60.26163483 60.70867157 297.2454529

endloop
endfacet
facet normal 0.1431414634 -0.4017899632 0.9044752121
outer loop
vertex 60.26163483 60.70867157 297.2454529
vertex 60.65914154 61.83913422 297.6847229
vertex 60.03270721 60.87250519 297.3544617

endloop
endfacet
facet normal 0.1666457951 -0.3741381764 0.9122772217
outer loop
vertex 60.26163483 60.70867157 297.2454529
vertex 60.03270721 60.87250519 297.3544617
vertex 59.36420441 59.70159149 296.9963684

endloop
endfacet
facet normal 0.3113154769 -0.4359746277 0.8443984985
outer loop
vertex 59.36420441 59.70159149 296.9963684
vertex 60.03270721 60.87250519 297.3544617
vertex 59.18015289 59.88065338 297.1566772

endloop
endfacet
facet normal 0.3159818351 -0.4316263497 0.8448988795
outer loop
vertex 59.36420441 59.70159149 296.9963684
vertex 59.18015289 59.88065338 297.1566772
vertex 58.24497223 58.73575592 296.9215393

endloop
endfacet
facet normal 0.389624387 -0.4797177315 0.7861703038
outer loop
vertex 58.24497223 58.73575592 296.9215393
vertex 59.18015289 59.88065338 297.1566772
vertex 58.10053253 58.92742157 297.1100769

endloop
endfacet
facet normal 0.3973717391 -0.4736713767 0.7859587669
outer loop
vertex 58.24497223 58.73575592 296.9215393
vertex 58.10053253 58.92742157 297.1100769
vertex 57.01610565 57.79644012 296.9767456

endloop
endfacet
facet normal 0.4211705923 -0.4935413599 0.7609417439
outer loop
vertex 57.01610565 57.79644012 296.9767456
vertex 58.10053253 58.92742157 297.1100769
vertex 56.88643646 57.99077606 297.1745605

endloop
endfacet
facet normal 0.4251209497 -0.4906032085 0.7606449127
outer loop
vertex 57.01610565 57.79644012 296.9767456
vertex 56.88643646 57.99077606 297.1745605
vertex 55.7251358 56.82814789 297.0737305

endloop
endfacet
facet normal 0.41974473 -0.4857596159 0.7667150497
outer loop
vertex 55.7251358 56.82814789 297.0737305
vertex 56.88643646 57.99077606 297.1745605
vertex 55.59107208 57.02140045 297.2695618

endloop
endfacet
facet normal 0.3880431354 -0.5092787147 0.7681521177
outer loop
vertex 55.72512054 56.82816315 297.0737305
vertex 55.59107208 57.02140045 297.2695618
vertex 54.35881805 55.84308624 297.1108398

endloop
endfacet
facet normal 0.3613786995 -0.485177964 0.7962461114
outer loop
vertex 54.35881805 55.84308624 297.1108398
vertex 55.59107208 57.02140045 297.2695618
vertex 54.21416473 56.03910065 297.295929

endloop
endfacet
facet normal 0.3054073155 -0.5248508453 0.7945173979
outer loop
vertex 54.35881805 55.84308624 297.1108398
vertex 54.21416473 56.03910065 297.295929
vertex 52.95824432 54.92235565 297.0409851

endloop
endfacet
facet normal 0.2849199772 -0.5062491894 0.8139610291
outer loop
vertex 52.95824432 54.92235565 297.0409851
vertex 54.21416473 56.03910065 297.295929
vertex 52.81493378 55.12653351 297.2181396

endloop
endfacet
facet normal 0.2396647036 -0.5347856283 0.8102870584
outer loop
vertex 52.95825958 54.92237091 297.0410156
vertex 52.81494904 55.12656403 297.2181702
vertex 51.55373383 54.1251297 296.9302673

endloop
endfacet
facet normal 0.2401784062 -0.5352926254 0.8098000884
outer loop
vertex 51.55373383 54.1251297 296.9302673
vertex 52.81494904 55.12656403 297.2181702
vertex 51.42736053 54.33860016 297.1088562

endloop
endfacet
facet normal 0.2272478193 -0.5422157645 0.8089255095
outer loop
vertex 51.55373383 54.1251297 296.9302673
vertex 51.42736053 54.33860016 297.1088562
vertex 50.13961029 53.42186737 296.8561401

endloop
endfacet
facet normal 0.2372491658 -0.5533717871 0.7984312773
outer loop
vertex 50.13961029 53.42186737 296.8561401
vertex 51.42736053 54.33860016 297.1088562
vertex 50.02960968 53.64022064 297.0401611

endloop
endfacet
facet normal 0.2487157732 -0.5478585958 0.7987437248
outer loop
vertex 50.13961029 53.42186737 296.8561401
vertex 50.02960968 53.64022064 297.0401611
vertex 48.71216583 52.73513031 296.8295898

endloop
endfacet
facet normal 0.2543421388 -0.5545549989 0.7923249006
outer loop
vertex 48.71216583 52.73513031 296.8295898
vertex 50.02960968 53.64022064 297.0401611
vertex 48.60546112 52.95294952 297.0162964

endloop
endfacet
facet normal 0.2705473602 -0.5466966033 0.7924184203
outer loop
vertex 48.71216583 52.73513031 296.8295898
vertex 48.60546112 52.95294952 297.0162964
vertex 47.28855133 52.01836395 296.8211365

endloop
endfacet
facet normal 0.2715303004 -0.547845602 0.791287899
outer loop
vertex 47.28855133 52.01836395 296.8211365
vertex 48.60546112 52.95294952 297.0162964
vertex 47.17733002 52.23352814 297.0082703

endloop
endfacet
facet normal 0.2871474028 -0.5399103761 0.7912288904
outer loop
vertex 47.28858185 52.01840973 296.8211365
vertex 47.17736053 52.2335434 297.0083008
vertex 45.88805389 51.26630402 296.8161926

endloop
endfacet
facet normal 0.2878470421 -0.5406870842 0.7904438972
outer loop
vertex 45.88805389 51.26630402 296.8161926
vertex 47.17736053 52.2335434 297.0083008
vertex 45.7707901 51.47789764 297.0036316

endloop
endfacet
facet normal 0.3163566291 -0.5247497559 0.7902886271
outer loop
vertex 45.88805389 51.26630402 296.8161926
vertex 45.7707901 51.47789764 297.0036316
vertex 44.55590057 50.4673233 296.8189392

endloop
endfacet
facet normal 0.3221249282 -0.530546546 0.7840636969
outer loop
vertex 44.55590057 50.4673233 296.8189392
vertex 45.7707901 51.47789764 297.0036316
vertex 44.43041229 50.6717453 297.0088196

endloop
endfacet
facet normal 0.3813116848 -0.4925670624 0.7822909355
outer loop
vertex 44.55590057 50.4673233 296.8189392
vertex 44.43041229 50.6717453 297.0088196
vertex 43.3582077 49.59981537 296.8565063

endloop
endfacet
facet normal 0.4037635624 -0.5116333365 0.7584235668
outer loop
vertex 43.3582077 49.59981537 296.8565063
vertex 44.43041229 50.6717453 297.0088196
vertex 43.228508 49.79245758 297.0555115

endloop
endfacet
facet normal 0.4800602496 -0.4528920949 0.7512862682
outer loop
vertex 43.3582077 49.59981537 296.8565063
vertex 43.228508 49.79245758 297.0555115
vertex 42.30954742 48.67525482 296.9692383

endloop
endfacet
facet normal 0.5192342401 -0.4816179276 0.7060027122
outer loop
vertex 42.30954742 48.67525482 296.9692383
vertex 43.228508 49.79245758 297.0555115
vertex 42.18738556 48.85688019 297.1829834

endloop
endfacet
facet normal 0.5719501972 -0.4342736602 0.6959017515
outer loop
vertex 42.30954742 48.67525482 296.9692383
vertex 42.18738556 48.85688019 297.1829834
vertex 41.39073944 47.77251434 297.1610413

endloop
endfacet
facet normal 0.606587708 -0.4587773979 0.6492878199
outer loop
vertex 41.39073944 47.77251434 297.1610413
vertex 42.18738556 48.85688019 297.1829834
vertex 41.28289032 47.9486618 297.386261

endloop
endfacet
facet normal 0.5803816915 -0.4828459322 0.655756712
outer loop
vertex 41.3907547 47.77249908 297.1610718
vertex 41.28289032 47.94867706 297.386261
vertex 40.29691315 46.76108551 297.3844604

endloop
endfacet
facet normal 0.590138793 -0.4909240901 0.6408820152
outer loop
vertex 40.29691315 46.76108551 297.3844604
vertex 41.28289032 47.94867706 297.386261
vertex 40.1891861 46.95046234 297.6287231

endloop
endfacet
facet normal 0.1522106975 -0.7474594712 0.6466345787
outer loop
vertex 40.29691315 46.76108551 297.3844604
vertex 40.1891861 46.95046234 297.6287231
vertex 38.87459564 46.3347702 297.2264709

endloop
endfacet
facet normal 0 0.5461060405 -0.837716043
outer loop
vertex 38.87459564 46.3347702 297.2264709
vertex 40.1891861 46.95046234 297.6287231
vertex 38.8746109 46.3347702 297.2264709

endloop
endfacet
facet normal -0.788505435 0.6150278449 0
outer loop
vertex 62.26660919 64.18987274 298.1246033
vertex 62.26660919 64.18987274 298.1245728
vertex 61.35161591 63.0167923 298.2278748

endloop
endfacet
facet normal -0.2327127904 0.2639425993 0.936044395
outer loop
vertex 61.35161591 63.0167923 298.2278748
vertex 62.26660919 64.18987274 298.1245728
vertex 61.13864899 63.21463776 298.1191406

endloop
endfacet
facet normal -0.5170292258 -0.08864309639 0.8513655066
outer loop
vertex 61.35161591 63.0167923 298.2278748
vertex 61.13864899 63.21463776 298.1191406
vertex 60.65914154 61.83913422 297.6847229

endloop
endfacet
facet normal -0.3966593146 -0.1478534043 0.905980587
outer loop
vertex 60.65914154 61.83913422 297.6847229
vertex 61.13864899 63.21463776 298.1191406
vertex 60.44651031 62.02062225 297.6212463

endloop
endfacet
facet normal -0.3537899554 -0.08884347975 0.9310958385
outer loop
vertex 60.65914154 61.83913422 297.6847229
vertex 60.44651031 62.02062225 297.6212463
vertex 60.03270721 60.87250519 297.3544617

endloop
endfacet
facet normal -0.2002380639 -0.152709052 0.9677730799
outer loop
vertex 60.03270721 60.87250519 297.3544617
vertex 60.44651031 62.02062225 297.6212463
vertex 59.8211441 61.0621109 297.3406067

endloop
endfacet
facet normal -0.1362101138 -0.0798278451 0.9874585271
outer loop
vertex 60.03270721 60.87250519 297.3544617
vertex 59.8211441 61.0621109 297.3406067
vertex 59.18015289 59.88065338 297.1566772

endloop
endfacet
facet normal 0.01305092871 -0.1607234627 0.9869131446
outer loop
vertex 59.18015289 59.88065338 297.1566772
vertex 59.8211441 61.0621109 297.3406067
vertex 58.98792267 60.08785248 297.1929626

endloop
endfacet
facet normal 0.06073319167 -0.1172444299 0.9912443161
outer loop
vertex 59.18015289 59.88065338 297.1566772
vertex 58.98792267 60.08785248 297.1929626
vertex 58.10053253 58.92742157 297.1100769

endloop
endfacet
facet normal 0.1457338631 -0.1809163094 0.9726412892
outer loop
vertex 58.10053253 58.92742157 297.1100769
vertex 58.98792267 60.08785248 297.1929626
vertex 57.93141937 59.14919281 297.1766663

endloop
endfacet
facet normal 0.1742279381 -0.1589337736 0.9717945457
outer loop
vertex 58.10053253 58.92742157 297.1100769
vertex 57.93141937 59.14919281 297.1766663
vertex 56.88643646 57.99077606 297.1745605

endloop
endfacet
facet normal 0.2031686455 -0.1850218475 0.9615037441
outer loop
vertex 56.88643646 57.99077606 297.1745605
vertex 57.93141937 59.14919281 297.1766663
vertex 56.72505951 58.21559906 297.2519226

endloop
endfacet
facet normal 0.206889227 -0.1822597682 0.9612378478
outer loop
vertex 56.88643646 57.99077606 297.1745605
vertex 56.72505951 58.21559906 297.2519226
vertex 55.59107208 57.02140045 297.2695618

endloop
endfacet
facet normal 0.2004901171 -0.1761464775 0.9637303352
outer loop
vertex 55.59107208 57.02140045 297.2695618
vertex 56.72505951 58.21559906 297.2519226
vertex 55.42696381 57.24501801 297.344574

endloop
endfacet
facet normal 0.1637562066 -0.2036303431 0.9652557373
outer loop
vertex 55.59107208 57.02140045 297.2695618
vertex 55.42696381 57.24500275 297.344574
vertex 54.21416473 56.03910065 297.295929

endloop
endfacet
facet normal 0.1324939132 -0.1726241112 0.9760359526
outer loop
vertex 54.21416473 56.03910065 297.295929
vertex 55.42696381 57.24500275 297.344574
vertex 54.04947662 56.26590729 297.3583984

endloop
endfacet
facet normal 0.08202988654 -0.2088444978 0.9745024443
outer loop
vertex 54.21416473 56.03910065 297.295929
vertex 54.04947662 56.26590729 297.3583984
vertex 52.81493378 55.12653351 297.2181396

endloop
endfacet
facet normal 0.05849405006 -0.1841615736 0.9811539054
outer loop
vertex 52.81493378 55.12653351 297.2181396
vertex 54.04947662 56.26590729 297.3583984
vertex 52.66098785 55.36281586 297.2716675

endloop
endfacet
facet normal 0.0356548205 -0.1986619383 0.979419291
outer loop
vertex 52.81494904 55.12656403 297.2181702
vertex 52.66100311 55.36283112 297.271698
vertex 51.42736053 54.33860016 297.1088562

endloop
endfacet
facet normal 0.03591005504 -0.1989583224 0.979349792
outer loop
vertex 51.42736053 54.33860016 297.1088562
vertex 52.66100311 55.36283112 297.271698
vertex 51.29213715 54.58563995 297.1640015

endloop
endfacet
facet normal 0.048014272 -0.1925048679 0.9801206589
outer loop
vertex 51.42736053 54.33860016 297.1088562
vertex 51.29213715 54.58563995 297.1640015
vertex 50.02960968 53.64022064 297.0401611

endloop
endfacet
facet normal 0.05939489231 -0.2072269171 0.9764882326
outer loop
vertex 50.02960968 53.64022064 297.0401611
vertex 51.29213715 54.58563995 297.1640015
vertex 49.90726471 53.89290619 297.1012268

endloop
endfacet
facet normal 0.07909366488 -0.1978229284 0.9770416617
outer loop
vertex 50.02960968 53.64022064 297.0401611
vertex 49.90726471 53.89290619 297.1012268
vertex 48.60546112 52.95294952 297.0162964

endloop
endfacet
facet normal 0.08550905436 -0.2064967304 0.9747037292
outer loop
vertex 48.60546112 52.95294952 297.0162964
vertex 49.90726471 53.89290619 297.1012268
vertex 48.48329926 53.20500946 297.0804138

endloop
endfacet
facet normal 0.09599498659 -0.201435715 0.9747864604
outer loop
vertex 48.60546112 52.95294952 297.0162964
vertex 48.48329926 53.20500946 297.0804138
vertex 47.17733002 52.23352814 297.0082703

endloop
endfacet
facet normal 0.09706928581 -0.2028502226 0.9743866324
outer loop
vertex 47.17733002 52.23352814 297.0082703
vertex 48.48329926 53.20500946 297.0804138
vertex 47.04929352 52.48244476 297.0728455

endloop
endfacet
facet normal 0.1039066166 -0.1994341463 0.974386692
outer loop
vertex 47.17736053 52.2335434 297.0083008
vertex 47.04930878 52.48247528 297.0729065
vertex 45.7707901 51.47789764 297.0036316

endloop
endfacet
facet normal 0.1046605706 -0.2003748268 0.9741129279
outer loop
vertex 45.7707901 51.47789764 297.0036316
vertex 47.04930878 52.48247528 297.0729065
vertex 45.63536835 51.72272491 297.0685425

endloop
endfacet
facet normal 0.1193787083 -0.192220673 0.9740636349
outer loop
vertex 45.7707901 51.47789764 297.0036316
vertex 45.63536835 51.72272491 297.0685425
vertex 44.43041229 50.6717453 297.0088196

endloop
endfacet
facet normal 0.1262569129 -0.199968487 0.9716335535
outer loop
vertex 44.43041229 50.6717453 297.0088196
vertex 45.63536835 51.72272491 297.0685425
vertex 44.28273773 50.90828705 297.0766907

endloop
endfacet
facet normal 0.1657321453 -0.1750039309 0.9705186486
outer loop
vertex 44.43041229 50.6717453 297.0088196
vertex 44.28273773 50.90828705 297.0766907
vertex 43.228508 49.79245758 297.0555115

endloop
endfacet
facet normal 0.1930007786 -0.2005766481 0.9604789019
outer loop
vertex 43.228508 49.79245758 297.0555115
vertex 44.28273773 50.90828705 297.0766907
vertex 43.06635284 50.01535797 297.1346436

endloop
endfacet
facet normal 0.2548578084 -0.1535299271 0.9547125101
outer loop
vertex 43.228508 49.79245758 297.0555115
vertex 43.06635284 50.01535797 297.1346436
vertex 42.18738556 48.85688019 297.1829834

endloop
endfacet
facet normal 0.3039613068 -0.1916836202 0.9332014322
outer loop
vertex 42.18738556 48.85688019 297.1829834
vertex 43.06635284 50.01535797 297.1346436
vertex 42.01831818 49.06703949 297.2812195

endloop
endfacet
facet normal 0.3545759618 -0.1464265287 0.9234907627
outer loop
vertex 42.18738556 48.85688019 297.1829834
vertex 42.01831818 49.06703949 297.2812195
vertex 41.28289032 47.9486618 297.386261

endloop
endfacet
facet normal 0.400082171 -0.1786607355 0.8988963366
outer loop
vertex 41.28289032 47.9486618 297.386261
vertex 42.01831818 49.06703949 297.2812195
vertex 41.11669159 48.15258026 297.5007629

endloop
endfacet
facet normal 0.3804073036 -0.1973358989 0.9035201669
outer loop
vertex 41.28289032 47.94867706 297.386261
vertex 41.11670685 48.15258026 297.5007629
vertex 40.1891861 46.95046234 297.6287231

endloop
endfacet
facet normal 0.365226239 -0.1846755743 0.9124169946
outer loop
vertex 40.1891861 46.95046234 297.6287231
vertex 41.11670685 48.15258026 297.5007629
vertex 40.00913239 47.17049408 297.7453308

endloop
endfacet
facet normal -0.03635913879 -0.4910223484 0.8703878522
outer loop
vertex 40.1891861 46.95046234 297.6287231
vertex 40.00913239 47.17049408 297.7453308
vertex 38.8746109 46.3347702 297.2264709

endloop
endfacet
facet normal 0.5931044817 -0.8051254749 0
outer loop
vertex 38.8746109 46.3347702 297.2264709
vertex 40.00913239 47.17049408 297.7453308
vertex 38.8746109 46.3347702 297.2265015

endloop
endfacet
facet normal 0 -0.005569985136 0.9999845028
outer loop
vertex 62.26660919 64.18987274 298.1245728
vertex 62.26659393 64.18987274 298.1245728
vertex 61.13864899 63.21463776 298.1191406

endloop
endfacet
facet normal -0.4632186592 0.5318041444 0.7089518905
outer loop
vertex 61.13864899 63.21463776 298.1191406
vertex 62.26659393 64.18987274 298.1245728
vertex 61.03195953 63.39798737 297.9118958

endloop
endfacet
facet normal -0.7821480036 0.2085516453 0.5871547461
outer loop
vertex 61.13864899 63.21463776 298.1191406
vertex 61.03195953 63.39798737 297.9118958
vertex 60.44651031 62.02062225 297.6212463

endloop
endfacet
facet normal -0.6926580071 0.1453357339 0.7064718008
outer loop
vertex 60.44651031 62.02062225 297.6212463
vertex 61.03195953 63.39798737 297.9118958
vertex 60.31244659 62.19506073 297.4539185

endloop
endfacet
facet normal -0.6467664838 0.2070542574 0.7340447903
outer loop
vertex 60.44651031 62.02062225 297.6212463
vertex 60.31244659 62.19506073 297.4539185
vertex 59.8211441 61.0621109 297.3406067

endloop
endfacet
facet normal -0.5270274878 0.1447901577 0.8374233842
outer loop
vertex 59.8211441 61.0621109 297.3406067
vertex 60.31244659 62.19506073 297.4539185
vertex 59.66272736 61.24445343 297.2093811

endloop
endfacet
facet normal -0.4375042915 0.2429665476 0.8657696843
outer loop
vertex 59.8211441 61.0621109 297.3406067
vertex 59.66272736 61.24445343 297.2093811
vertex 58.98792267 60.08785248 297.1929626

endloop
endfacet
facet normal -0.3090060651 0.166994825 0.9362841845
outer loop
vertex 58.98792267 60.08785248 297.1929626
vertex 59.66272736 61.24445343 297.2093811
vertex 58.82051849 60.287117 297.1021729

endloop
endfacet
facet normal -0.2271514982 0.2392799407 0.9440059662
outer loop
vertex 58.98792267 60.08785248 297.1929626
vertex 58.82051849 60.287117 297.1021729
vertex 57.93141937 59.14919281 297.1766663

endloop
endfacet
facet normal -0.146275118 0.1779929996 0.9730992317
outer loop
vertex 57.93141937 59.14919281 297.1766663
vertex 58.82051849 60.287117 297.1021729
vertex 57.7670517 59.36248016 297.1129456

endloop
endfacet
facet normal -0.1027937084 0.2111811191 0.9720267653
outer loop
vertex 57.93141937 59.14919281 297.1766663
vertex 57.7670517 59.36248016 297.1129456
vertex 56.72505951 58.21559906 297.2519226

endloop
endfacet
facet normal -0.07344843447 0.1854737401 0.9799003601
outer loop
vertex 56.72505951 58.21559906 297.2519226
vertex 57.7670517 59.36248016 297.1129456
vertex 56.56021881 58.43183136 297.1986389

endloop
endfacet
facet normal -0.0704331398 0.1877214909 0.9796937108
outer loop
vertex 56.72505951 58.21559906 297.2519226
vertex 56.56021881 58.43183136 297.1986389
vertex 55.42696381 57.24501801 297.344574

endloop
endfacet
facet normal -0.07697626203 0.1937639713 0.9780236483
outer loop
vertex 55.42696381 57.24501801 297.344574
vertex 56.56021881 58.43183136 297.1986389
vertex 55.26152802 57.4601059 297.2889404

endloop
endfacet
facet normal -0.110061802 0.1686759889 0.9795075059
outer loop
vertex 55.42696381 57.24500275 297.344574
vertex 55.26152802 57.46012115 297.2889404
vertex 54.04947662 56.26590729 297.3583984

endloop
endfacet
facet normal -0.1413874328 0.1998911053 0.969563365
outer loop
vertex 54.04947662 56.26590729 297.3583984
vertex 55.26152802 57.46012115 297.2889404
vertex 53.89333344 56.48407745 297.2906494

endloop
endfacet
facet normal -0.1748121083 0.1757300496 0.9687928557
outer loop
vertex 54.04947662 56.26590729 297.3583984
vertex 53.89333344 56.48407745 297.2906494
vertex 52.66098785 55.36281586 297.2716675

endloop
endfacet
facet normal -0.1979968548 0.2013725191 0.9592946768
outer loop
vertex 52.66098785 55.36281586 297.2716675
vertex 53.89333344 56.48407745 297.2906494
vertex 52.52292633 55.59008026 297.1954651

endloop
endfacet
facet normal -0.1919895113 0.205162093 0.9597127438
outer loop
vertex 52.66100311 55.36283112 297.271698
vertex 52.52294159 55.59009552 297.1954956
vertex 51.29213715 54.58563995 297.1640015

endloop
endfacet
facet normal -0.1914740056 0.2045229077 0.959952116
outer loop
vertex 51.29213715 54.58563995 297.1640015
vertex 52.52294159 55.59009552 297.1954956
vertex 51.17134857 54.82320404 297.0892944

endloop
endfacet
facet normal -0.15544191 0.2235554159 0.9622166157
outer loop
vertex 51.29213715 54.58563995 297.1640015
vertex 51.17134857 54.82320404 297.0892944
vertex 49.90726471 53.89290619 297.1012268

endloop
endfacet
facet normal -0.1441798657 0.2083187848 0.9673755169
outer loop
vertex 49.90726471 53.89290619 297.1012268
vertex 51.17134857 54.82320404 297.0892944
vertex 49.7937851 54.13591766 297.0319824

endloop
endfacet
facet normal -0.1202806979 0.2196928114 0.9681258202
outer loop
vertex 49.90726471 53.89290619 297.1012268
vertex 49.7937851 54.13591766 297.0319824
vertex 48.48329926 53.20500946 297.0804138

endloop
endfacet
facet normal -0.1141693816 0.2112259567 0.9707466364
outer loop
vertex 48.48329926 53.20500946 297.0804138
vertex 49.7937851 54.13591766 297.0319824
vertex 48.36690521 53.44742584 297.0139771

endloop
endfacet
facet normal -0.1120674834 0.2122415751 0.9707699418
outer loop
vertex 48.48329926 53.20500946 297.0804138
vertex 48.36690521 53.44742584 297.0139771
vertex 47.04929352 52.48244476 297.0728455

endloop
endfacet
facet normal -0.1109055728 0.210683912 0.9712426662
outer loop
vertex 47.04929352 52.48244476 297.0728455
vertex 48.36690521 53.44742584 297.0139771
vertex 46.92667389 52.7219162 297.006897

endloop
endfacet
facet normal -0.1151102036 0.2086483687 0.9711928368
outer loop
vertex 47.04930878 52.48247528 297.0729065
vertex 46.92670441 52.72194672 297.0069275
vertex 45.63536835 51.72272491 297.0685425

endloop
endfacet
facet normal -0.1143838316 0.2077271193 0.971476078
outer loop
vertex 45.63536835 51.72272491 297.0685425
vertex 46.92670441 52.72194672 297.0069275
vertex 45.50536346 51.95827484 297.0028687

endloop
endfacet
facet normal -0.1180152521 0.2057207227 0.9714686275
outer loop
vertex 45.63536835 51.72272491 297.0685425
vertex 45.50536346 51.95827484 297.0028687
vertex 44.28273773 50.90828705 297.0766907

endloop
endfacet
facet normal -0.1114116162 0.1981959641 0.9738099575
outer loop
vertex 44.28273773 50.90828705 297.0766907
vertex 45.50536346 51.95827484 297.0028687
vertex 44.13858795 51.13584137 297.0138855

endloop
endfacet
facet normal -0.1029883847 0.2034866065 0.9736459851
outer loop
vertex 44.28273773 50.90828705 297.0766907
vertex 44.13858795 51.13584137 297.0138855
vertex 43.06635284 50.01535797 297.1346436

endloop
endfacet
facet normal -0.07463756949 0.1771861017 0.9813431501
outer loop
vertex 43.06635284 50.01535797 297.1346436
vertex 44.13858795 51.13584137 297.0138855
vertex 42.90013885 50.22980499 297.0832825

endloop
endfacet
facet normal -0.04421646148 0.2001480758 0.978767395
outer loop
vertex 43.06635284 50.01535797 297.1346436
vertex 42.90013885 50.22980499 297.0832825
vertex 42.01831818 49.06703949 297.2812195

endloop
endfacet
facet normal 0.009646461345 0.1606935263 0.9869571924
outer loop
vertex 42.01831818 49.06703949 297.2812195
vertex 42.90013885 50.22980499 297.0832825
vertex 41.83228302 49.26920319 297.2501221

endloop
endfacet
facet normal 0.04436698928 0.1916447878 0.9804610014
outer loop
vertex 42.01831818 49.06703949 297.2812195
vertex 41.83228302 49.26920319 297.2501221
vertex 41.11669159 48.15258026 297.5007629

endloop
endfacet
facet normal 0.09528242052 0.1594933569 0.9825900197
outer loop
vertex 41.11669159 48.15258026 297.5007629
vertex 41.83228302 49.26920319 297.2501221
vertex 40.92209625 48.34854889 297.4878235

endloop
endfacet
facet normal 0.08492876589 0.1495381147 0.9851017594
outer loop
vertex 41.11670685 48.15258026 297.5007629
vertex 40.92209625 48.34854889 297.487793
vertex 40.00913239 47.17049408 297.7453308

endloop
endfacet
facet normal 0.05592949316 0.1716757566 0.9835645556
outer loop
vertex 40.00913239 47.17049408 297.7453308
vertex 40.92209625 48.34854889 297.487793
vertex 39.79903412 47.37444305 297.7216797

endloop
endfacet
facet normal -0.2895172834 -0.1894429177 0.9382383227
outer loop
vertex 40.00913239 47.17049408 297.7453308
vertex 39.79903412 47.37444305 297.7216797
vertex 38.8746109 46.3347702 297.2265015

endloop
endfacet
facet normal -0.7728491426 0.5033688545 0.3864245713
outer loop
vertex 38.8746109 46.3347702 297.2265015
vertex 39.79903412 47.37444305 297.7216797
vertex 38.87459564 46.3347702 297.2264709

endloop
endfacet
facet normal -nan(ind) -nan(ind) -nan(ind)
outer loop
vertex 62.26659393 64.18987274 298.1245728
vertex 62.26659393 64.18987274 298.1245728
vertex 61.03195953 63.39798737 297.9118958

endloop
endfacet
facet normal -0.5461704135 0.7529400587 0.367122829
outer loop
vertex 61.03195953 63.39798737 297.9118958
vertex 62.26659393 64.18987274 298.1245728
vertex 61.04499054 63.54616547 297.6273804

endloop
endfacet
facet normal -0.8726814985 0.448307544 0.1935130358
outer loop
vertex 61.03195953 63.39798737 297.9118958
vertex 61.04499054 63.54616547 297.6273804
vertex 60.31244659 62.19506073 297.4539185

endloop
endfacet
facet normal -0.8391956687 0.4089761376 0.3584538698
outer loop
vertex 60.31244659 62.19506073 297.4539185
vertex 61.04499054 63.54616547 297.6273804
vertex 60.27269745 62.35109711 297.1828308

endloop
endfacet
facet normal -0.8064410686 0.453602612 0.3793380558
outer loop
vertex 60.31244659 62.19506073 297.4539185
vertex 60.27269745 62.35109711 297.1828308
vertex 59.66272736 61.24445343 297.2093811

endloop
endfacet
facet normal -0.7348668575 0.4178668261 0.534189105
outer loop
vertex 59.66272736 61.24445343 297.2093811
vertex 60.27269745 62.35109711 297.1828308
vertex 59.57216644 61.40790558 296.9569397

endloop
endfacet
facet normal -0.6506627798 0.5093435049 0.5632115006
outer loop
vertex 59.66272736 61.24445343 297.2093811
vertex 59.57216644 61.40790558 296.9569397
vertex 58.82051849 60.287117 297.1021729

endloop
endfacet
facet normal -0.5571835637 0.4629954994 0.6893342137
outer loop
vertex 58.82051849 60.287117 297.1021729
vertex 59.57216644 61.40790558 296.9569397
vertex 58.69048309 60.46572113 296.8771057

endloop
endfacet
facet normal -0.4675114453 0.5407969356 0.6992651224
outer loop
vertex 58.82051849 60.287117 297.1021729
vertex 58.69048309 60.46572113 296.8771057
vertex 57.7670517 59.36248016 297.1129456

endloop
endfacet
facet normal -0.4021086395 0.5004705191 0.7667059898
outer loop
vertex 57.7670517 59.36248016 297.1129456
vertex 58.69048309 60.46572113 296.8771057
vertex 57.61779022 59.55364227 296.9098816

endloop
endfacet
facet normal -0.3576541543 0.5343161225 0.765891552
outer loop
vertex 57.7670517 59.36248016 297.1129456
vertex 57.61779022 59.55364227 296.9098816
vertex 56.56021881 58.43183136 297.1986389

endloop
endfacet
facet normal -0.3325620592 0.5166085958 0.7889980674
outer loop
vertex 56.56021881 58.43183136 297.1986389
vertex 57.61779022 59.55364227 296.9098816
vertex 56.40154266 58.6256485 297.0048523

endloop
endfacet
facet normal -0.3320006728 0.5170291662 0.7889590263
outer loop
vertex 56.56021881 58.43183136 297.1986389
vertex 56.40154266 58.6256485 297.0048523
vertex 55.26152802 57.4601059 297.2889404

endloop
endfacet
facet normal -0.3377142251 0.5213320255 0.7836849093
outer loop
vertex 55.26152802 57.4601059 297.2889404
vertex 56.40154266 58.6256485 297.0048523
vertex 55.10459137 57.65287018 297.0930786

endloop
endfacet
facet normal -0.3592837155 0.5050093532 0.7847808003
outer loop
vertex 55.26152802 57.46012115 297.2889404
vertex 55.10459137 57.65288544 297.0930481
vertex 53.89333344 56.48407745 297.2906494

endloop
endfacet
facet normal -0.386462301 0.5283093452 0.7560002208
outer loop
vertex 53.89333344 56.48407745 297.2906494
vertex 55.10459137 57.65288544 297.0930481
vertex 53.75592804 56.67960358 297.0837708

endloop
endfacet
facet normal -0.3937354386 0.5230770111 0.7558855414
outer loop
vertex 53.89333344 56.48407745 297.2906494
vertex 53.75592804 56.67960358 297.0837708
vertex 52.52292633 55.59008026 297.1954651

endloop
endfacet
facet normal -0.4127804935 0.5421702266 0.7318904996
outer loop
vertex 52.52292633 55.59008026 297.1954651
vertex 53.75592804 56.67960358 297.0837708
vertex 52.41060638 55.79372406 296.9812622

endloop
endfacet
facet normal -0.3777192235 0.564014256 0.7343133092
outer loop
vertex 52.52294159 55.59009552 297.1954956
vertex 52.41062164 55.79375458 296.9812927
vertex 51.17134857 54.82320404 297.0892944

endloop
endfacet
facet normal -0.3766979277 0.5628664494 0.7357173562
outer loop
vertex 51.17134857 54.82320404 297.0892944
vertex 52.41062164 55.79375458 296.9812927
vertex 51.07370758 55.03612518 296.8764038

endloop
endfacet
facet normal -0.3250790834 0.5899384022 0.739118576
outer loop
vertex 51.17134857 54.82320404 297.0892944
vertex 51.07370758 55.03612518 296.8764038
vertex 49.7937851 54.13591766 297.0319824

endloop
endfacet
facet normal -0.315644145 0.5787412524 0.7519489527
outer loop
vertex 49.7937851 54.13591766 297.0319824
vertex 51.07370758 55.03612518 296.8764038
vertex 49.69687653 54.35372162 296.8236694

endloop
endfacet
facet normal -0.2937875092 0.5891819 0.7526975274
outer loop
vertex 49.7937851 54.13591766 297.0319824
vertex 49.69687653 54.35372162 296.8236694
vertex 48.36690521 53.44742584 297.0139771

endloop
endfacet
facet normal -0.2886044383 0.5830010772 0.7594849467
outer loop
vertex 48.36690521 53.44742584 297.0139771
vertex 49.69687653 54.35372162 296.8236694
vertex 48.26387787 53.66469574 296.8080444

endloop
endfacet
facet normal -0.295683533 0.5795596242 0.7593957186
outer loop
vertex 48.36690521 53.44742584 297.0139771
vertex 48.26387787 53.66469574 296.8080444
vertex 46.92667389 52.7219162 297.006897

endloop
endfacet
facet normal -0.2946294844 0.5783458948 0.7607294917
outer loop
vertex 46.92667389 52.7219162 297.006897
vertex 48.26387787 53.66469574 296.8080444
vertex 46.81742096 52.93653107 296.8014221

endloop
endfacet
facet normal -0.3089441657 0.570962131 0.7606284618
outer loop
vertex 46.92670441 52.72194672 297.0069275
vertex 46.81745148 52.93656158 296.8014526
vertex 45.50536346 51.95827484 297.0028687

endloop
endfacet
facet normal -0.3083792031 0.5703466535 0.7613191605
outer loop
vertex 45.50536346 51.95827484 297.0028687
vertex 46.81745148 52.93656158 296.8014526
vertex 45.38915253 52.16934967 296.7976685

endloop
endfacet
facet normal -0.3298627436 0.5583845377 0.7611815333
outer loop
vertex 45.50536346 51.95827484 297.0028687
vertex 45.38915253 52.16934967 296.7976685
vertex 44.13858795 51.13584137 297.0138855

endloop
endfacet
facet normal -0.3242760003 0.5529510379 0.7675221562
outer loop
vertex 44.13858795 51.13584137 297.0138855
vertex 45.38915253 52.16934967 296.7976685
vertex 44.00705719 51.3398056 296.8113708

endloop
endfacet
facet normal -0.3497119844 0.5368257165 0.7678018808
outer loop
vertex 44.13858795 51.13584137 297.0138855
vertex 44.00705719 51.3398056 296.8113708
vertex 42.90013885 50.22980499 297.0832825

endloop
endfacet
facet normal -0.3248384893 0.5178083777 0.7914255857
outer loop
vertex 42.90013885 50.22980499 297.0832825
vertex 44.00705719 51.3398056 296.8113708
vertex 42.73950958 50.4220047 296.8916016

endloop
endfacet
facet normal -0.3350500762 0.5100514889 0.7922051549
outer loop
vertex 42.90013885 50.22980499 297.0832825
vertex 42.73950958 50.4220047 296.8916016
vertex 41.83228302 49.26920319 297.2501221

endloop
endfacet
facet normal -0.2840365171 0.4814095795 0.8291972876
outer loop
vertex 41.83228302 49.26920319 297.2501221
vertex 42.73950958 50.4220047 296.8916016
vertex 41.63881683 49.45041656 297.0786438

endloop
endfacet
facet normal -0.2770478129 0.4876542985 0.827911675
outer loop
vertex 41.83228302 49.26920319 297.2501221
vertex 41.63881683 49.45041656 297.0786438
vertex 40.92209625 48.34854889 297.4878235

endloop
endfacet
facet normal -0.2268822789 0.4652991593 0.8555822968
outer loop
vertex 40.92209625 48.34854889 297.4878235
vertex 41.63881683 49.45041656 297.0786438
vertex 40.70822906 48.52388763 297.3357544

endloop
endfacet
facet normal -0.2260700315 0.4660252333 0.8554021716
outer loop
vertex 40.92209625 48.34854889 297.487793
vertex 40.70822906 48.52387238 297.3357544
vertex 39.79903412 47.37444305 297.7216797

endloop
endfacet
facet normal -0.260310173 0.4860177636 0.8342813849
outer loop
vertex 39.79903412 47.37444305 297.7216797
vertex 40.70822906 48.52387238 297.3357544
vertex 39.58174896 47.53937531 297.5578003

endloop
endfacet
facet normal -0.5518398285 0.09610117972 0.8283944726
outer loop
vertex 39.79903412 47.37444305 297.7216797
vertex 39.58174896 47.53937531 297.5578003
vertex 38.87459564 46.3347702 297.2264709

endloop
endfacet
facet normal -nan(ind) -nan(ind) -nan(ind)
outer loop
vertex 38.87459564 46.3347702 297.2264709
vertex 39.58174896 47.53937531 297.5578003
vertex 38.87459564 46.3347702 297.2264709

endloop
endfacet
facet normal 0.5318901539 -0.803968966 -0.2659450769
outer loop
vertex 62.26657867 64.18987274 298.1245422
vertex 62.26659393 64.18987274 298.1245728
vertex 61.04497528 63.54615021 297.6273499

endloop
endfacet
facet normal -0.4397806525 0.8947245479 -0.07785271108
outer loop
vertex 61.04497528 63.54615021 297.6273499
vertex 62.26659393 64.18987274 298.1245728
vertex 61.24721527 63.61403656 297.2651062

endloop
endfacet
facet normal -0.7444754243 0.5942880511 -0.3042666316
outer loop
vertex 61.04497528 63.54615021 297.6273499
vertex 61.24721527 63.61403656 297.2651062
vertex 60.27268219 62.35108185 297.1828003

endloop
endfacet
facet normal -0.7771940231 0.6098204255 -0.1552049965
outer loop
vertex 60.27268219 62.35108185 297.1828003
vertex 61.24721527 63.61403656 297.2651062
vertex 60.41976166 62.43599701 296.7799377

endloop
endfacet
facet normal -0.7752333879 0.6126416326 -0.1538945287
outer loop
vertex 60.27268219 62.35108185 297.1828003
vertex 60.41976166 62.43599701 296.7799377
vertex 59.57215118 61.40789032 296.9569092

endloop
endfacet
facet normal -0.7689489126 0.6387117505 0.02765802853
outer loop
vertex 59.57215118 61.40789032 296.9569092
vertex 60.41976166 62.43599701 296.7799377
vertex 59.63106537 61.49707794 296.5352173

endloop
endfacet
facet normal -0.7312937379 0.6807796359 0.04181618989
outer loop
vertex 59.57215118 61.40789032 296.9569092
vertex 59.63106537 61.49707794 296.5352173
vertex 58.69048309 60.46570587 296.8770752

endloop
endfacet
facet normal -0.6880466342 0.6957879066 0.2060850561
outer loop
vertex 58.69048309 60.46570587 296.8770752
vertex 59.63106537 61.49707794 296.5352173
vertex 58.66161346 60.56317902 296.4515991

endloop
endfacet
facet normal -0.6289564371 0.7474339604 0.2139073908
outer loop
vertex 58.69048309 60.46570587 296.8770752
vertex 58.66161346 60.56317902 296.4515991
vertex 57.6177597 59.55364227 296.9098511

endloop
endfacet
facet normal -0.5886448622 0.7479144335 0.3067917228
outer loop
vertex 57.6177597 59.55364227 296.9098511
vertex 58.66161346 60.56317902 296.4515991
vertex 57.53223419 59.65796661 296.4914246

endloop
endfacet
facet normal -0.562168479 0.7681592703 0.3064276576
outer loop
vertex 57.6177597 59.55364227 296.9098511
vertex 57.53223419 59.65796661 296.4914246
vertex 56.40151215 58.6256485 297.0048523

endloop
endfacet
facet normal -0.5448147058 0.7662115693 0.3407298028
outer loop
vertex 56.40151215 58.6256485 297.0048523
vertex 57.53223419 59.65796661 296.4914246
vertex 56.29184723 58.73142242 296.5916443

endloop
endfacet
facet normal -0.5491148829 0.762993753 0.3410473168
outer loop
vertex 56.40151215 58.6256485 297.0048523
vertex 56.29184723 58.73142242 296.5916443
vertex 55.10457611 57.65285492 297.0930176

endloop
endfacet
facet normal -0.5533672571 0.7636976242 0.3324916363
outer loop
vertex 55.10457611 57.65285492 297.0930176
vertex 56.29184723 58.73142242 296.5916443
vertex 55.00070953 57.75806427 296.6784973

endloop
endfacet
facet normal -0.5534017086 0.7636717558 0.3324936628
outer loop
vertex 55.10457611 57.65285492 297.0930176
vertex 55.00070953 57.75806427 296.6784973
vertex 53.75591278 56.67957306 297.0837402

endloop
endfacet
facet normal -0.5713438392 0.7680909038 0.2891410887
outer loop
vertex 53.75591278 56.67957306 297.0837402
vertex 55.00070953 57.75806427 296.6784973
vertex 53.68643951 56.78629303 296.6629639

endloop
endfacet
facet normal -0.5416862965 0.7891259193 0.2895794809
outer loop
vertex 53.75591278 56.67957306 297.0837402
vertex 53.68643951 56.78629303 296.6629639
vertex 52.41060638 55.7937088 296.9812622

endloop
endfacet
facet normal -0.5529229045 0.792865932 0.256202817
outer loop
vertex 52.41060638 55.7937088 296.9812622
vertex 53.68643951 56.78629303 296.6629639
vertex 52.37343597 55.90486908 296.5570374

endloop
endfacet
facet normal -0.4913892746 0.8309899569 0.2607533336
outer loop
vertex 52.41060638 55.79373932 296.9812622
vertex 52.37345123 55.90488434 296.5570374
vertex 51.07369232 55.03609467 296.8763733

endloop
endfacet
facet normal -0.4904414117 0.8306362629 0.2636487484
outer loop
vertex 51.07369232 55.03609467 296.8763733
vertex 52.37345123 55.90488434 296.5570374
vertex 51.04276276 55.15229034 296.4527588

endloop
endfacet
facet normal -0.4360938668 0.8592175841 0.2675204873
outer loop
vertex 51.07369232 55.03609467 296.8763733
vertex 51.04276276 55.15229034 296.4527588
vertex 49.69686127 54.35370636 296.8236389

endloop
endfacet
facet normal -0.4297898114 0.8567456007 0.2850748897
outer loop
vertex 49.69686127 54.35370636 296.8236389
vertex 51.04276276 55.15229034 296.4527588
vertex 49.65401459 54.47255707 296.4018555

endloop
endfacet
facet normal -0.4178264141 0.8625081182 0.2854834199
outer loop
vertex 49.69686127 54.35370636 296.8236389
vertex 49.65401459 54.47255707 296.4018555
vertex 48.26384735 53.66468048 296.8080139

endloop
endfacet
facet normal -0.4140375257 0.8609861135 0.2954246998
outer loop
vertex 48.26384735 53.66468048 296.8080139
vertex 49.65401459 54.47255707 296.4018555
vertex 48.210289 53.78327179 296.3873291

endloop
endfacet
facet normal -0.4306870401 0.852840662 0.2952480614
outer loop
vertex 48.26384735 53.66468048 296.8080139
vertex 48.210289 53.78327179 296.3873291
vertex 46.8174057 52.93651581 296.8013916

endloop
endfacet
facet normal -0.4299729168 0.85256356 0.2970837355
outer loop
vertex 46.8174057 52.93651581 296.8013916
vertex 48.210289 53.78327179 296.3873291
vertex 46.75911713 53.05365753 296.3808594

endloop
endfacet
facet normal -0.4524739087 0.84088552 0.2969495058
outer loop
vertex 46.81742096 52.93654633 296.8014221
vertex 46.75913239 53.05368805 296.3808899
vertex 45.38913727 52.16933441 296.7976379

endloop
endfacet
facet normal -0.4520655274 0.8407396078 0.2979823351
outer loop
vertex 45.38913727 52.16933441 296.7976379
vertex 46.75913239 53.05368805 296.3808899
vertex 45.32636261 52.28455353 296.3773193

endloop
endfacet
facet normal -0.48911497 0.8198133707 0.2977793515
outer loop
vertex 45.38913727 52.16933441 296.7976379
vertex 45.32636261 52.28455353 296.3773193
vertex 44.00704193 51.33977509 296.8113403

endloop
endfacet
facet normal -0.4854245484 0.8187355995 0.3066513538
outer loop
vertex 44.00704193 51.33977509 296.8113403
vertex 45.32636261 52.28455353 296.3773193
vertex 43.9302597 51.45107269 296.3926392

endloop
endfacet
facet normal -0.5452610254 0.7799071074 0.307303071
outer loop
vertex 44.00704193 51.33977509 296.8113403
vertex 43.9302597 51.45107269 296.3926392
vertex 42.73949432 50.42197418 296.891571

endloop
endfacet
facet normal -0.528229177 0.7771049738 0.3421720266
outer loop
vertex 42.73949432 50.42197418 296.891571
vertex 43.9302597 51.45107269 296.3926392
vertex 42.62728119 50.52684784 296.4801636

endloop
endfacet
facet normal -0.5869585276 0.7316707373 0.3466087878
outer loop
vertex 42.73949432 50.42197418 296.891571
vertex 42.62728119 50.52684784 296.4801636
vertex 41.63881683 49.45038605 297.0786133

endloop
endfacet
facet normal -0.5489851832 0.7302106023 0.4067034721
outer loop
vertex 41.63881683 49.45038605 297.0786133
vertex 42.62728119 50.52684784 296.4801636
vertex 41.47696686 49.54927826 296.6825867

endloop
endfacet
facet normal -0.5827528834 0.699914813 0.412938565
outer loop
vertex 41.63881683 49.45038605 297.0786133
vertex 41.47696686 49.54927826 296.6825867
vertex 40.70819855 48.52385712 297.3357239

endloop
endfacet
facet normal -0.5416857004 0.7012888789 0.4634333551
outer loop
vertex 40.70819855 48.52385712 297.3357239
vertex 41.47696686 49.54927826 296.6825867
vertex 40.50815582 48.61927032 296.9575195

endloop
endfacet
facet normal -0.5310214758 0.711414814 0.460331589
outer loop
vertex 40.70821381 48.52385712 297.3357544
vertex 40.50815582 48.61927032 296.9575195
vertex 39.5817337 47.53936005 297.5577698

endloop
endfacet
facet normal -0.5455315709 0.7129109502 0.4406284094
outer loop
vertex 39.5817337 47.53936005 297.5577698
vertex 40.50815582 48.61927032 296.9575195
vertex 39.38858795 47.61490631 297.1964111

endloop
endfacet
facet normal -0.800793767 0.3332218826 0.4976872504
outer loop
vertex 39.5817337 47.53936005 297.5577698
vertex 39.38858795 47.61490631 297.1964111
vertex 38.87458038 46.33475494 297.2264709

endloop
endfacet
facet normal 0.2286708951 -0.1145678386 -0.9667387605
outer loop
vertex 38.87458038 46.33475494 297.2264709
vertex 39.38858795 47.61490631 297.1964111
vertex 38.87459564 46.33478546 297.2264709

endloop
endfacet
facet normal 0 -0.8307728171 0.5566115975
outer loop
vertex 62.26660919 64.18987274 298.1245728
vertex 62.26659393 64.18987274 298.1245728
vertex 61.24721527 63.61403656 297.2651062

endloop
endfacet
facet normal -0.02668124065 0.8448233008 -0.5343797207
outer loop
vertex 61.24721527 63.61403656 297.2651062
vertex 62.26659393 64.18987274 298.1245728
vertex 61.822258 63.42281342 296.934082

endloop
endfacet
facet normal -0.2843420208 0.5290254354 -0.7995509505
outer loop
vertex 61.24721527 63.61403656 297.2651062
vertex 61.822258 63.42281342 296.934082
vertex 60.41976166 62.43602753 296.7799377

endloop
endfacet
facet normal -0.3435555696 0.601012826 -0.7216322422
outer loop
vertex 60.41976166 62.43602753 296.7799377
vertex 61.822258 63.42281342 296.934082
vertex 60.97594452 62.24074554 296.3525085

endloop
endfacet
facet normal -0.3937416673 0.5270270109 -0.7531334758
outer loop
vertex 60.41976166 62.43602753 296.7799377
vertex 60.97594452 62.24074554 296.3525085
vertex 59.63108063 61.4970932 296.5352173

endloop
endfacet
facet normal -0.4446068406 0.6535618305 -0.6125207543
outer loop
vertex 59.63108063 61.4970932 296.5352173
vertex 60.97594452 62.24074554 296.3525085
vertex 60.06945038 61.2926712 295.9989014

endloop
endfacet
facet normal -0.5063055754 0.5825141668 -0.6358709931
outer loop
vertex 59.63108063 61.4970932 296.5352173
vertex 60.06945038 61.2926712 295.9989014
vertex 58.66162872 60.56319427 296.4515991

endloop
endfacet
facet normal -0.5200815797 0.699960351 -0.4894594848
outer loop
vertex 58.66162872 60.56319427 296.4515991
vertex 60.06945038 61.2926712 295.9989014
vertex 58.95063019 60.33977509 295.8250122

endloop
endfacet
facet normal -0.5541875362 0.6696683168 -0.4943891168
outer loop
vertex 58.66162872 60.56319427 296.4515991
vertex 58.95063019 60.33977509 295.8250122
vertex 57.53223419 59.65798187 296.4914551

endloop
endfacet
facet normal -0.5436131954 0.7353060842 -0.4047341049
outer loop
vertex 57.53223419 59.65798187 296.4914551
vertex 58.95063019 60.33977509 295.8250122
vertex 57.70664215 59.41881561 295.8226929

endloop
endfacet
facet normal -0.5680690408 0.7167304754 -0.4044688642
outer loop
vertex 57.53223419 59.65798187 296.4914551
vertex 57.70664215 59.41881561 295.8226929
vertex 56.29186249 58.73142242 296.5916443

endloop
endfacet
facet normal -0.5610251427 0.7402772307 -0.3704596162
outer loop
vertex 56.29186249 58.73142242 296.5916443
vertex 57.70664215 59.41881561 295.8226929
vertex 56.42115021 58.48896027 295.9113464

endloop
endfacet
facet normal -0.5751103163 0.7299056053 -0.3694399297
outer loop
vertex 56.29186249 58.73142242 296.5916443
vertex 56.42115021 58.48896027 295.9113464
vertex 55.00072479 57.75806427 296.6784973

endloop
endfacet
facet normal -0.5767849684 0.7241820693 -0.3779938221
outer loop
vertex 55.00072479 57.75806427 296.6784973
vertex 56.42115021 58.48896027 295.9113464
vertex 55.14228058 57.51689911 296.0004578

endloop
endfacet
facet normal -0.5471253991 0.7460347414 -0.3795865476
outer loop
vertex 55.00070953 57.75806427 296.6784973
vertex 55.14228058 57.51689911 296.0004578
vertex 53.68642426 56.78629303 296.6629639

endloop
endfacet
facet normal -0.5525677204 0.7193217278 -0.4210049212
outer loop
vertex 53.68642426 56.78629303 296.6629639
vertex 55.14228058 57.51689911 296.0004578
vertex 53.87459564 56.54167938 295.9980469

endloop
endfacet
facet normal -0.4823938012 0.7690110803 -0.4194257855
outer loop
vertex 53.68642426 56.78629303 296.6629639
vertex 53.87459564 56.54167938 295.9980469
vertex 52.37342072 55.90488434 296.5570374

endloop
endfacet
facet normal -0.4854927659 0.7496460676 -0.4498083889
outer loop
vertex 52.37342072 55.90488434 296.5570374
vertex 53.87459564 56.54167938 295.9980469
vertex 52.58620453 55.65009308 295.9027405

endloop
endfacet
facet normal -0.4144586027 0.7943595648 -0.4440912604
outer loop
vertex 52.37345123 55.90488434 296.5570679
vertex 52.58621979 55.65010834 295.902771
vertex 51.04277802 55.1523056 296.4527893

endloop
endfacet
facet normal -0.414176017 0.7955489159 -0.4422219098
outer loop
vertex 51.04277802 55.1523056 296.4527893
vertex 52.58621979 55.65010834 295.902771
vertex 51.23194122 54.88596344 295.7964783

endloop
endfacet
facet normal -0.3817304373 0.8128764629 -0.4399021268
outer loop
vertex 51.04277802 55.1523056 296.4527893
vertex 51.23194122 54.88596344 295.7964783
vertex 49.65401459 54.47257233 296.4018555

endloop
endfacet
facet normal -0.3782246709 0.8229691386 -0.4238724113
outer loop
vertex 49.65401459 54.47257233 296.4018555
vertex 51.23194122 54.88596344 295.7964783
vertex 49.80538177 54.20011139 295.737793

endloop
endfacet
facet normal -0.3866983354 0.818888545 -0.4241296053
outer loop
vertex 49.65401459 54.47257233 296.4018555
vertex 49.80538177 54.20011139 295.737793
vertex 48.210289 53.78327179 296.3872986

endloop
endfacet
facet normal -0.3843599856 0.8248760104 -0.4145443738
outer loop
vertex 48.210289 53.78327179 296.3872986
vertex 49.80538177 54.20011139 295.737793
vertex 48.34712982 53.51148224 295.7196045

endloop
endfacet
facet normal -0.4072698355 0.8137282729 -0.4147018194
outer loop
vertex 48.210289 53.78327179 296.3872986
vertex 48.34712982 53.51148224 295.7196045
vertex 46.75910187 53.05365753 296.3808289

endloop
endfacet
facet normal -0.4068460166 0.8148530722 -0.4129051566
outer loop
vertex 46.75910187 53.05365753 296.3808289
vertex 48.34712982 53.51148224 295.7196045
vertex 46.89966583 52.78524017 295.712616

endloop
endfacet
facet normal -0.4299627841 0.8028662205 -0.4129622877
outer loop
vertex 46.75911713 53.05368805 296.3808899
vertex 46.89969635 52.78525543 295.7126465
vertex 45.32634735 52.28455353 296.3773193

endloop
endfacet
facet normal -0.4297294915 0.8035321832 -0.4119085073
outer loop
vertex 45.32634735 52.28455353 296.3773193
vertex 46.89969635 52.78525543 295.7126465
vertex 45.47348785 52.02050018 295.7087097

endloop
endfacet
facet normal -0.4704662263 0.7804579735 -0.4117607474
outer loop
vertex 45.32634735 52.28455353 296.3773193
vertex 45.47348785 52.02050018 295.7087097
vertex 43.93027496 51.45107269 296.3926392

endloop
endfacet
facet normal -0.4686791897 0.7860472798 -0.4030750096
outer loop
vertex 43.93027496 51.45107269 296.3926392
vertex 45.47348785 52.02050018 295.7087097
vertex 44.07979584 51.19594574 295.7212524

endloop
endfacet
facet normal -0.5477700233 0.7342607975 -0.4010099769
outer loop
vertex 43.93027496 51.45107269 296.3926392
vertex 44.07979584 51.19594574 295.7212524
vertex 42.62729645 50.52684784 296.4801941

endloop
endfacet
facet normal -0.5407474041 0.7563877702 -0.368062228
outer loop
vertex 42.62729645 50.52684784 296.4801941
vertex 44.07979584 51.19594574 295.7212524
vertex 42.75444794 50.28644562 295.7993469

endloop
endfacet
facet normal -0.6402243972 0.6789778471 -0.3593071699
outer loop
vertex 42.62729645 50.52684784 296.4801941
vertex 42.75444794 50.28644562 295.7993469
vertex 41.47696686 49.54927826 296.6825867

endloop
endfacet
facet normal -0.6242996454 0.7206662297 -0.3014802635
outer loop
vertex 41.47696686 49.54927826 296.6825867
vertex 42.75444794 50.28644562 295.7993469
vertex 41.5499649 49.32262421 295.989624

endloop
endfacet
facet normal -0.7045404911 0.6492314339 -0.286568135
outer loop
vertex 41.47696686 49.54927826 296.6825867
vertex 41.5499649 49.32262421 295.989624
vertex 40.50814056 48.61927032 296.9575195

endloop
endfacet
facet normal -0.6838794351 0.6910796165 -0.2339185476
outer loop
vertex 40.50814056 48.61927032 296.9575195
vertex 41.5499649 49.32262421 295.989624
vertex 40.52463531 48.39981842 296.2609558

endloop
endfacet
facet normal -0.6763405204 0.6978142858 -0.2358361334
outer loop
vertex 40.50814056 48.61927032 296.9575195
vertex 40.52463531 48.39983368 296.2609253
vertex 39.38858795 47.61490631 297.1964111

endloop
endfacet
facet normal -0.6737114191 0.7027912736 -0.2284674942
outer loop
vertex 39.38858795 47.61490631 297.1964111
vertex 40.52463531 48.39983368 296.2609253
vertex 39.38700104 47.40206146 296.5463562

endloop
endfacet
facet normal -0.9224517941 0.3676036596 -0.1181110889
outer loop
vertex 39.38858795 47.61490631 297.1964111
vertex 39.38700104 47.40206146 296.5463562
vertex 38.87459564 46.3347702 297.2264709

endloop
endfacet
facet normal -nan(ind) -nan(ind) -nan(ind)
outer loop
vertex 38.87459564 46.3347702 297.2264709
vertex 39.38700104 47.40206146 296.5463562
vertex 38.87459564 46.3347702 297.2264709

endloop
endfacet
endsolid
