solid 
facet normal -nan(ind) -nan(ind) -nan(ind)
outer loop
vertex 107.4684067 28.29634857 238.8473663
vertex 107.4684067 28.29634857 238.8473663
vertex 107.4850998 28.11408234 238.7074432

endloop
endfacet
facet normal 0.9940678477 0.1068054587 -0.02053227648
outer loop
vertex 107.4850998 28.11408234 238.7074432
vertex 107.4684067 28.29634857 238.8473663
vertex 107.4911728 28.09638214 238.9093933

endloop
endfacet
facet normal 0.9673162699 -0.2484196275 -0.05086200312
outer loop
vertex 107.4850998 28.11408234 238.7074432
vertex 107.4911728 28.09638214 238.9093933
vertex 107.4674606 28.05272675 238.6716461

endloop
endfacet
facet normal 0.9595353603 -0.278025806 -0.04464964569
outer loop
vertex 107.4674606 28.05272675 238.6716461
vertex 107.4911728 28.09638214 238.9093933
vertex 107.4755173 28.03765106 238.9386597

endloop
endfacet
facet normal 0.892231822 -0.4485450387 -0.05224646628
outer loop
vertex 107.4674606 28.05272675 238.6716461
vertex 107.4755173 28.03765106 238.9386597
vertex 107.4192429 27.96118927 238.634079

endloop
endfacet
facet normal 0.8967614174 -0.4390236735 -0.05547359958
outer loop
vertex 107.4192429 27.96118927 238.634079
vertex 107.4755173 28.03765106 238.9386597
vertex 107.4308701 27.94393158 238.9586182

endloop
endfacet
facet normal 0.6777355671 -0.7325814962 -0.06323683262
outer loop
vertex 107.4192429 27.96118927 238.634079
vertex 107.4308701 27.94393158 238.9586182
vertex 107.3173447 27.86818695 238.6194

endloop
endfacet
facet normal 0.6792103648 -0.7311433554 -0.06405151635
outer loop
vertex 107.3173447 27.86818695 238.6194
vertex 107.4308701 27.94393158 238.9586182
vertex 107.3307724 27.85022736 238.9667969

endloop
endfacet
facet normal 0.5804799795 -0.8117237091 -0.06440116465
outer loop
vertex 107.3173447 27.86818695 238.6194
vertex 107.3307724 27.85022736 238.9667969
vertex 107.1917038 27.77845001 238.6179962

endloop
endfacet
facet normal 0.5803750157 -0.8118034601 -0.06434288621
outer loop
vertex 107.1917038 27.77845001 238.6179962
vertex 107.3307724 27.85022736 238.9667969
vertex 107.2054062 27.76049042 238.9681854

endloop
endfacet
facet normal 0.5661101341 -0.8218182325 -0.06429833919
outer loop
vertex 107.1917038 27.77845001 238.6179962
vertex 107.2054062 27.76049042 238.9681854
vertex 107.0614853 27.68871307 238.618454

endloop
endfacet
facet normal 0.5657888055 -0.8220534921 -0.06411781907
outer loop
vertex 107.0614853 27.68871307 238.618454
vertex 107.2054062 27.76049042 238.9681854
vertex 107.0749741 27.67067719 238.9687195

endloop
endfacet
facet normal 0.5583476424 -0.8271275759 -0.0640925318
outer loop
vertex 107.0614853 27.68871307 238.618454
vertex 107.0749741 27.67067719 238.9687195
vertex 106.9300461 27.5999527 238.6188812

endloop
endfacet
facet normal 0.5587832332 -0.8268144727 -0.06433627754
outer loop
vertex 106.9300461 27.5999527 238.6188812
vertex 107.0749741 27.67067719 238.9687195
vertex 106.9434128 27.5817337 238.9691162

endloop
endfacet
facet normal 0.5480312705 -0.8339866996 -0.06424847245
outer loop
vertex 106.9300766 27.59996796 238.6188812
vertex 106.9434128 27.58174896 238.9691315
vertex 106.7971725 27.51259613 238.6193695

endloop
endfacet
facet normal 0.5479679108 -0.8340310454 -0.06421322376
outer loop
vertex 106.7971725 27.51259613 238.6193695
vertex 106.9434128 27.58174896 238.9691315
vertex 106.8102951 27.49425507 238.969574

endloop
endfacet
facet normal 0.5350048542 -0.8424087763 -0.06416624039
outer loop
vertex 106.7971725 27.51259613 238.6193695
vertex 106.8102951 27.49425507 238.969574
vertex 106.6627731 27.42720795 238.6197968

endloop
endfacet
facet normal 0.534578681 -0.8426971436 -0.06393124908
outer loop
vertex 106.6627731 27.42720795 238.6197968
vertex 106.8102951 27.49425507 238.969574
vertex 106.6755295 27.40872955 238.9700317

endloop
endfacet
facet normal 0.5206492543 -0.8513771892 -0.06388465315
outer loop
vertex 106.6628036 27.42723846 238.6198273
vertex 106.67556 27.40876007 238.970047
vertex 106.5272141 27.34429169 238.6202087

endloop
endfacet
facet normal 0.5212081671 -0.8510122895 -0.06418888271
outer loop
vertex 106.5272141 27.34429169 238.6202087
vertex 106.67556 27.40876007 238.970047
vertex 106.5398483 27.32561493 238.9704132

endloop
endfacet
facet normal 0.5085291266 -0.8586525321 -0.06413894147
outer loop
vertex 106.5272141 27.34429169 238.6202087
vertex 106.5398483 27.32561493 238.9704132
vertex 106.3914413 27.26384735 238.6206665

endloop
endfacet
facet normal 0.5090374947 -0.8583309054 -0.06441147625
outer loop
vertex 106.3914413 27.26384735 238.6206665
vertex 106.5398483 27.32561493 238.9704132
vertex 106.4039536 27.24498749 238.970871

endloop
endfacet
facet normal 0.4990050197 -0.864205122 -0.06436938047
outer loop
vertex 106.3914413 27.26384735 238.6206665
vertex 106.4039536 27.24498749 238.970871
vertex 106.2553329 27.18521881 238.62117

endloop
endfacet
facet normal 0.4986653626 -0.8644145727 -0.06418923289
outer loop
vertex 106.2553329 27.18521881 238.62117
vertex 106.4039536 27.24498749 238.970871
vertex 106.26754 27.16625214 238.9714203

endloop
endfacet
facet normal 0.4884170592 -0.870249331 -0.06414801627
outer loop
vertex 106.2553329 27.18521881 238.62117
vertex 106.26754 27.16625214 238.9714203
vertex 106.117363 27.10774994 238.6216431

endloop
endfacet
facet normal 0.4883309603 -0.8703009486 -0.06410242617
outer loop
vertex 106.117363 27.10774994 238.6216431
vertex 106.26754 27.16625214 238.9714203
vertex 106.1292343 27.08861542 238.9718628

endloop
endfacet
facet normal 0.4956560731 -0.8661510348 -0.06408904493
outer loop
vertex 106.1173935 27.1077652 238.6216736
vertex 106.1292648 27.08864594 238.9718781
vertex 105.9773178 27.02800751 238.6162567

endloop
endfacet
facet normal 0.5010313988 -0.8628355265 -0.06695109606
outer loop
vertex 105.9773178 27.02800751 238.6162567
vertex 106.1292648 27.08864594 238.9718781
vertex 105.9851608 27.00540924 238.9661865

endloop
endfacet
facet normal 0.5541803837 -0.829775393 -0.06600733101
outer loop
vertex 105.9773178 27.02800751 238.6162567
vertex 105.9851608 27.00540924 238.9661865
vertex 105.8365097 26.93621063 238.5880432

endloop
endfacet
facet normal 0.5705946088 -0.8178324699 -0.07464541495
outer loop
vertex 105.8365097 26.93621063 238.5880432
vertex 105.9851608 27.00540924 238.9661865
vertex 105.8278732 26.89839935 238.9362946

endloop
endfacet
facet normal 0.5309410691 -0.8437700272 -0.07844497263
outer loop
vertex 105.8365097 26.93621063 238.5880432
vertex 105.8278732 26.89839935 238.9362946
vertex 105.6986008 26.85166168 238.5640564

endloop
endfacet
facet normal 0.5426472425 -0.8357989192 -0.08351116627
outer loop
vertex 105.6986008 26.85166168 238.5640564
vertex 105.8278732 26.89839935 238.9362946
vertex 105.6813278 26.80600739 238.9087372

endloop
endfacet
facet normal 0.3988338709 -0.911472857 -0.1007413715
outer loop
vertex 105.6986008 26.85166168 238.5640564
vertex 105.6813278 26.80600739 238.9087372
vertex 105.5663376 26.79386139 238.563385

endloop
endfacet
facet normal 0.3984185755 -0.9116704464 -0.1005961522
outer loop
vertex 105.5663376 26.79386139 238.563385
vertex 105.6813278 26.80600739 238.9087372
vertex 105.5503464 26.75133514 238.8854523

endloop
endfacet
facet normal 0.1373046488 -0.9828671813 -0.1229618341
outer loop
vertex 105.5663376 26.79386139 238.563385
vertex 105.5503464 26.75133514 238.8854523
vertex 105.4445419 26.77358246 238.5894775

endloop
endfacet
facet normal 0.1355309337 -0.983189404 -0.1223519966
outer loop
vertex 105.4445419 26.77358246 238.5894775
vertex 105.5503464 26.75133514 238.8854523
vertex 105.4321823 26.73889923 238.8544922

endloop
endfacet
facet normal 0.1986122876 -0.9729422927 -0.1180528998
outer loop
vertex 105.4445724 26.77359772 238.5894775
vertex 105.4321823 26.73891449 238.8544769
vertex 105.3221664 26.74636078 238.608017

endloop
endfacet
facet normal 0.2496357411 -0.9581102729 -0.1403808445
outer loop
vertex 105.3221664 26.74636078 238.608017
vertex 105.4321823 26.73891449 238.8544769
vertex 105.317009 26.7156601 238.8083801

endloop
endfacet
facet normal -0.4186170101 -0.8960112333 -0.1480669528
outer loop
vertex 105.3221664 26.74636078 238.608017
vertex 105.317009 26.7156601 238.8083801
vertex 105.1175156 26.82195282 238.7291718

endloop
endfacet
facet normal -nan(ind) -nan(ind) -nan(ind)
outer loop
vertex 105.1175156 26.82195282 238.7291718
vertex 105.317009 26.7156601 238.8083801
vertex 105.1175156 26.82195282 238.7291718

endloop
endfacet
facet normal -0.9387643337 0 0.3445599973
outer loop
vertex 107.4684067 28.29634857 238.8473663
vertex 107.4684067 28.29633331 238.8473663
vertex 107.4911728 28.09638214 238.9093933

endloop
endfacet
facet normal 0.9860839248 0.1400582343 0.08956602961
outer loop
vertex 107.4911728 28.09638214 238.9093933
vertex 107.4684067 28.29633331 238.8473663
vertex 107.4737167 28.1548996 239.0100708

endloop
endfacet
facet normal 0.9603275061 -0.1341580153 0.2444847971
outer loop
vertex 107.4911728 28.09638214 238.9093933
vertex 107.4737167 28.1548996 239.0100708
vertex 107.4755173 28.03765106 238.9386597

endloop
endfacet
facet normal 0.8933854103 -0.2236222923 0.3896865845
outer loop
vertex 107.4755173 28.03765106 238.9386597
vertex 107.4737167 28.1548996 239.0100708
vertex 107.439415 28.11446381 239.065506

endloop
endfacet
facet normal 0.8471758962 -0.3120034635 0.4300545752
outer loop
vertex 107.4755173 28.03765106 238.9386597
vertex 107.439415 28.11446381 239.065506
vertex 107.4308701 27.94393158 238.9586182

endloop
endfacet
facet normal 0.8091186881 -0.3406656086 0.4788254797
outer loop
vertex 107.4308701 27.94393158 238.9586182
vertex 107.439415 28.11446381 239.065506
vertex 107.3770065 28.03261566 239.1127319

endloop
endfacet
facet normal 0.5955713391 -0.5884817243 0.5467942953
outer loop
vertex 107.4308701 27.94393158 238.9586182
vertex 107.3770065 28.03261566 239.1127319
vertex 107.3307724 27.85022736 238.9667969

endloop
endfacet
facet normal 0.5891283751 -0.5905945301 0.5514761209
outer loop
vertex 107.3307724 27.85022736 238.9667969
vertex 107.3770065 28.03261566 239.1127319
vertex 107.2688522 27.94249725 239.1317596

endloop
endfacet
facet normal 0.4869238436 -0.6716118455 0.5584288239
outer loop
vertex 107.3307724 27.85022736 238.9667969
vertex 107.2688522 27.94249725 239.1317596
vertex 107.2054062 27.76049042 238.9681854

endloop
endfacet
facet normal 0.4869055748 -0.6716156602 0.5584401488
outer loop
vertex 107.2054062 27.76049042 238.9681854
vertex 107.2688522 27.94249725 239.1317596
vertex 107.1420212 27.85280609 239.1344757

endloop
endfacet
facet normal 0.4719659984 -0.6820958257 0.55856359
outer loop
vertex 107.2054062 27.76049042 238.9681854
vertex 107.1420212 27.85280609 239.1344757
vertex 107.0749741 27.67067719 238.9687195

endloop
endfacet
facet normal 0.471742183 -0.6821382642 0.5587009192
outer loop
vertex 107.0749741 27.67067719 238.9687195
vertex 107.1420212 27.85280609 239.1344757
vertex 107.0120163 27.76337433 239.1350555

endloop
endfacet
facet normal 0.4656609297 -0.6862929463 0.558714509
outer loop
vertex 107.0749741 27.67067719 238.9687195
vertex 107.0120163 27.76337433 239.1350555
vertex 106.9434128 27.5817337 238.9691162

endloop
endfacet
facet normal 0.4657167196 -0.6862828732 0.5586803555
outer loop
vertex 106.9434128 27.5817337 238.9691162
vertex 107.0120163 27.76337433 239.1350555
vertex 106.8814621 27.67510223 239.1354523

endloop
endfacet
facet normal 0.456831038 -0.6922203898 0.5586916208
outer loop
vertex 106.9434128 27.58174896 238.9691315
vertex 106.8814621 27.67510223 239.1354523
vertex 106.8102951 27.49425507 238.969574

endloop
endfacet
facet normal 0.4569648206 -0.6921980381 0.5586098433
outer loop
vertex 106.8102951 27.49425507 238.969574
vertex 106.8814621 27.67510223 239.1354523
vertex 106.7496262 27.58846283 239.1359406

endloop
endfacet
facet normal 0.4457780123 -0.6994383931 0.5586302876
outer loop
vertex 106.8102951 27.49425507 238.969574
vertex 106.7496262 27.58846283 239.1359406
vertex 106.6755295 27.40872955 238.9700317

endloop
endfacet
facet normal 0.4458663166 -0.6994251013 0.5585764647
outer loop
vertex 106.6755295 27.40872955 238.9700317
vertex 106.7496262 27.58846283 239.1359406
vertex 106.6164169 27.50389862 239.1363831

endloop
endfacet
facet normal 0.4344033301 -0.7065841556 0.5585988164
outer loop
vertex 106.67556 27.40876007 238.970047
vertex 106.6164474 27.50392914 239.1363983
vertex 106.5398483 27.32561493 238.9704132

endloop
endfacet
facet normal 0.4344232976 -0.7065814137 0.558586657
outer loop
vertex 106.5398483 27.32561493 238.9704132
vertex 106.6164474 27.50392914 239.1363983
vertex 106.4822617 27.42173004 239.1367798

endloop
endfacet
facet normal 0.4246139228 -0.7125005722 0.5586107969
outer loop
vertex 106.5398483 27.32561493 238.9704132
vertex 106.4822617 27.42173004 239.1367798
vertex 106.4039536 27.24498749 238.970871

endloop
endfacet
facet normal 0.4248563945 -0.7124706507 0.5584645271
outer loop
vertex 106.4039536 27.24498749 238.970871
vertex 106.4822617 27.42173004 239.1367798
vertex 106.3477097 27.34186554 239.1372528

endloop
endfacet
facet normal 0.4163500667 -0.717454195 0.5584907532
outer loop
vertex 106.4039536 27.24498749 238.970871
vertex 106.3477097 27.34186554 239.1372528
vertex 106.26754 27.16625214 238.9714203

endloop
endfacet
facet normal 0.4162201285 -0.7174687386 0.5585689545
outer loop
vertex 106.26754 27.16625214 238.9714203
vertex 106.3477097 27.34186554 239.1372528
vertex 106.2123642 27.26374054 239.1377563

endloop
endfacet
facet normal 0.4073657393 -0.7225164771 0.5585902333
outer loop
vertex 106.26754 27.16625214 238.9714203
vertex 106.2123642 27.26374054 239.1377563
vertex 106.1292343 27.08861542 238.9718628

endloop
endfacet
facet normal 0.4071550071 -0.7225369215 0.5587174296
outer loop
vertex 106.1292343 27.08861542 238.9718628
vertex 106.2123642 27.26374054 239.1377563
vertex 106.0753098 27.1868515 239.1381989

endloop
endfacet
facet normal 0.3981734216 -0.7275423408 0.5586950183
outer loop
vertex 106.1292648 27.08864594 238.9718781
vertex 106.0753403 27.18686676 239.1382141
vertex 105.9851608 27.00540924 238.9661865

endloop
endfacet
facet normal 0.4016845822 -0.727255106 0.5565514565
outer loop
vertex 105.9851608 27.00540924 238.9661865
vertex 106.0753403 27.18686676 239.1382141
vertex 105.9301376 27.10243988 239.1326904

endloop
endfacet
facet normal 0.3924812973 -0.7323276997 0.5564662218
outer loop
vertex 105.9851608 27.00540924 238.9661865
vertex 105.9301376 27.10243988 239.1326904
vertex 105.8278732 26.89839935 238.9362946

endloop
endfacet
facet normal 0.4100297689 -0.7307896614 0.5457307696
outer loop
vertex 105.8278732 26.89839935 238.9362946
vertex 105.9301376 27.10243988 239.1326904
vertex 105.7627792 26.98685455 239.103653

endloop
endfacet
facet normal 0.3725250661 -0.7527571321 0.5427539349
outer loop
vertex 105.8278732 26.89839935 238.9362946
vertex 105.7627792 26.98685455 239.103653
vertex 105.6813278 26.80600739 238.9087372

endloop
endfacet
facet normal 0.3842196763 -0.7513300776 0.5365429521
outer loop
vertex 105.6813278 26.80600739 238.9087372
vertex 105.7627792 26.98685455 239.103653
vertex 105.6105576 26.88871002 239.0752258

endloop
endfacet
facet normal 0.2509585619 -0.8201929927 0.5141042471
outer loop
vertex 105.6813278 26.80600739 238.9087372
vertex 105.6105576 26.88871002 239.0752258
vertex 105.5503464 26.75133514 238.8854523

endloop
endfacet
facet normal 0.2560919523 -0.819802165 0.5121926665
outer loop
vertex 105.5503464 26.75133514 238.8854523
vertex 105.6105576 26.88871002 239.0752258
vertex 105.4815292 26.82682037 239.0406799

endloop
endfacet
facet normal -0.01792070642 -0.9022628069 0.4308140576
outer loop
vertex 105.5503464 26.75133514 238.8854523
vertex 105.4815292 26.82682037 239.0406799
vertex 105.4321823 26.73889923 238.8544922

endloop
endfacet
facet normal 0.001410851488 -0.9043937325 0.4266967773
outer loop
vertex 105.4321823 26.73889923 238.8544922
vertex 105.4815292 26.82682037 239.0406799
vertex 105.3725815 26.79891205 238.9818878

endloop
endfacet
facet normal 0.01027180068 -0.9028643966 0.4298026264
outer loop
vertex 105.4321823 26.73891449 238.8544769
vertex 105.3725815 26.79889679 238.9819031
vertex 105.317009 26.7156601 238.8083801

endloop
endfacet
facet normal 0.08402447402 -0.9086719155 0.408968389
outer loop
vertex 105.317009 26.7156601 238.8083801
vertex 105.3725815 26.79889679 238.9819031
vertex 105.2720871 26.75693512 238.909317

endloop
endfacet
facet normal -0.5046753287 -0.8542534113 0.124715209
outer loop
vertex 105.317009 26.7156601 238.8083801
vertex 105.2720871 26.75693512 238.909317
vertex 105.1175156 26.82195282 238.7291718

endloop
endfacet
facet normal 0.7464746237 0.4705187082 -0.4705187082
outer loop
vertex 105.1175156 26.82195282 238.7291718
vertex 105.2720871 26.75693512 238.909317
vertex 105.1175156 26.82193756 238.7291565

endloop
endfacet
facet normal 0.9996953607 0.01745404303 -0.01745404303
outer loop
vertex 107.4684067 28.29633331 238.8473663
vertex 107.4684067 28.29636383 238.8473969
vertex 107.4737167 28.1548996 239.0100708

endloop
endfacet
facet normal 0.9688850641 0.201558426 0.1436522007
outer loop
vertex 107.4737167 28.1548996 239.0100708
vertex 107.4684067 28.29636383 238.8473969
vertex 107.4500656 28.23375702 239.0589447

endloop
endfacet
facet normal 0.8651612401 -0.04979610443 0.4990153611
outer loop
vertex 107.4737167 28.1548996 239.0100708
vertex 107.4500656 28.23375702 239.0589447
vertex 107.439415 28.11446381 239.065506

endloop
endfacet
facet normal 0.7565450072 -0.03161966056 0.6531766057
outer loop
vertex 107.439415 28.11446381 239.065506
vertex 107.4500656 28.23375702 239.0589447
vertex 107.3941269 28.21038055 239.1226044

endloop
endfacet
facet normal 0.6846758127 -0.1059878245 0.7211002707
outer loop
vertex 107.439415 28.11446381 239.065506
vertex 107.3941269 28.21038055 239.1226044
vertex 107.3770065 28.03261566 239.1127319

endloop
endfacet
facet normal 0.6258419752 -0.1032089815 0.7730910182
outer loop
vertex 107.3770065 28.03261566 239.1127319
vertex 107.3941269 28.21038055 239.1226044
vertex 107.3095932 28.14319611 239.1820679

endloop
endfacet
facet normal 0.4010892212 -0.298505038 0.8660382628
outer loop
vertex 107.3770065 28.03261566 239.1127319
vertex 107.3095932 28.14319611 239.1820679
vertex 107.2688522 27.94249725 239.1317596

endloop
endfacet
facet normal 0.3916611671 -0.2977361083 0.8706060052
outer loop
vertex 107.2688522 27.94249725 239.1317596
vertex 107.3095932 28.14319611 239.1820679
vertex 107.191246 28.05760956 239.2060394

endloop
endfacet
facet normal 0.2851464152 -0.3765298724 0.8814288974
outer loop
vertex 107.2688522 27.94249725 239.1317596
vertex 107.191246 28.05760956 239.2060394
vertex 107.1420212 27.85280609 239.1344757

endloop
endfacet
facet normal 0.2844855785 -0.3764565587 0.8816736937
outer loop
vertex 107.1420212 27.85280609 239.1344757
vertex 107.191246 28.05760956 239.2060394
vertex 107.0624924 27.96799469 239.2093201

endloop
endfacet
facet normal 0.269905746 -0.3866382539 0.8818513155
outer loop
vertex 107.1420212 27.85280609 239.1344757
vertex 107.0624924 27.96799469 239.2093201
vertex 107.0120163 27.76337433 239.1350555

endloop
endfacet
facet normal 0.2695910633 -0.3866013885 0.8819637299
outer loop
vertex 107.0120163 27.76337433 239.1350555
vertex 107.0624924 27.96799469 239.2093201
vertex 106.9330978 27.87905121 239.2098846

endloop
endfacet
facet normal 0.2658188641 -0.3891815245 0.8819739819
outer loop
vertex 107.0120163 27.76337433 239.1350555
vertex 106.9330978 27.87905121 239.2098846
vertex 106.8814621 27.67510223 239.1354523

endloop
endfacet
facet normal 0.2660960853 -0.389215678 0.8818752766
outer loop
vertex 106.8814621 27.67510223 239.1354523
vertex 106.9330978 27.87905121 239.2098846
vertex 106.8037338 27.79154205 239.2102966

endloop
endfacet
facet normal 0.2612425089 -0.392553091 0.8818472028
outer loop
vertex 106.8814621 27.67510223 239.1354523
vertex 106.8037338 27.79154205 239.2103119
vertex 106.7496262 27.58846283 239.1359406

endloop
endfacet
facet normal 0.2614209652 -0.3925773203 0.8817834854
outer loop
vertex 106.7496262 27.58846283 239.1359406
vertex 106.8037338 27.79154205 239.2103119
vertex 106.6736069 27.70598602 239.2108002

endloop
endfacet
facet normal 0.2548506856 -0.3968377113 0.8817998171
outer loop
vertex 106.7496262 27.58846283 239.1359406
vertex 106.6736069 27.70598602 239.2108002
vertex 106.6164169 27.50389862 239.1363831

endloop
endfacet
facet normal 0.2545546293 -0.3967928588 0.8819055557
outer loop
vertex 106.6164169 27.50389862 239.1363831
vertex 106.6736069 27.70598602 239.2108002
vertex 106.5422897 27.62265778 239.2112122

endloop
endfacet
facet normal 0.2481179386 -0.4009472132 0.8818609715
outer loop
vertex 106.6164474 27.50392914 239.1363983
vertex 106.5423203 27.62267303 239.2112427
vertex 106.4822617 27.42173004 239.1367798

endloop
endfacet
facet normal 0.2480650544 -0.4009383917 0.8818798661
outer loop
vertex 106.4822617 27.42173004 239.1367798
vertex 106.5423203 27.62267303 239.2112427
vertex 106.4100571 27.54167938 239.2116241

endloop
endfacet
facet normal 0.2429233491 -0.4040426314 0.8818944097
outer loop
vertex 106.4822617 27.42173004 239.1367798
vertex 106.4100571 27.54167938 239.2116241
vertex 106.3477097 27.34186554 239.1372528

endloop
endfacet
facet normal 0.2429919839 -0.4040549099 0.8818699718
outer loop
vertex 106.3477097 27.34186554 239.1372528
vertex 106.4100571 27.54167938 239.2116241
vertex 106.2770615 27.46273041 239.2120972

endloop
endfacet
facet normal 0.238150999 -0.4068939686 0.8818851113
outer loop
vertex 106.3477097 27.34186554 239.1372528
vertex 106.2770615 27.46273041 239.2120972
vertex 106.2123642 27.26374054 239.1377563

endloop
endfacet
facet normal 0.2384029329 -0.4069421589 0.8817948699
outer loop
vertex 106.2123642 27.26374054 239.1377563
vertex 106.2770615 27.46273041 239.2120972
vertex 106.1430893 27.38536835 239.212616

endloop
endfacet
facet normal 0.2329071462 -0.4100812972 0.8818092942
outer loop
vertex 106.2123642 27.26374054 239.1377563
vertex 106.1430893 27.38536835 239.212616
vertex 106.0753098 27.1868515 239.1381989

endloop
endfacet
facet normal 0.23290281 -0.4100804031 0.8818108439
outer loop
vertex 106.0753098 27.1868515 239.1381989
vertex 106.1430893 27.38536835 239.212616
vertex 106.0076218 27.30934906 239.2130432

endloop
endfacet
facet normal 0.2116327286 -0.4216656089 0.8817083836
outer loop
vertex 106.0753403 27.18686676 239.1382141
vertex 106.0076218 27.30937958 239.2130585
vertex 105.9301376 27.10243988 239.1326904

endloop
endfacet
facet normal 0.2147033513 -0.4223917723 0.8806177378
outer loop
vertex 105.9301376 27.10243988 239.1326904
vertex 106.0076218 27.30937958 239.2130585
vertex 105.8624802 27.22472382 239.20784

endloop
endfacet
facet normal 0.1594024003 -0.4513701797 0.8779839277
outer loop
vertex 105.9301376 27.10243988 239.1326904
vertex 105.8624802 27.22472382 239.20784
vertex 105.7627792 26.98685455 239.103653

endloop
endfacet
facet normal 0.1790672541 -0.456727922 0.8713980913
outer loop
vertex 105.7627792 26.98685455 239.103653
vertex 105.8624802 27.22472382 239.20784
vertex 105.6889572 27.10434723 239.1804047

endloop
endfacet
facet normal 0.1447471827 -0.4757891297 0.8675672412
outer loop
vertex 105.7627792 26.98685455 239.103653
vertex 105.6889572 27.10434723 239.1804047
vertex 105.6105576 26.88871002 239.0752258

endloop
endfacet
facet normal 0.1574576646 -0.4785782993 0.8638112545
outer loop
vertex 105.6105576 26.88871002 239.0752258
vertex 105.6889572 27.10434723 239.1804047
vertex 105.5330429 27.00209808 239.1521759

endloop
endfacet
facet normal 0.0364758186 -0.5439762473 0.8383074999
outer loop
vertex 105.6105576 26.88871002 239.0752258
vertex 105.5330429 27.00209808 239.1521759
vertex 105.4815292 26.82682037 239.0406799

endloop
endfacet
facet normal 0.04304177314 -0.545201242 0.8371995687
outer loop
vertex 105.4815292 26.82682037 239.0406799
vertex 105.5330429 27.00209808 239.1521759
vertex 105.4059067 26.93067169 239.1121979

endloop
endfacet
facet normal -0.2206584513 -0.6570706367 0.7208106518
outer loop
vertex 105.4815292 26.82682037 239.0406799
vertex 105.4059067 26.93067169 239.1121979
vertex 105.3725815 26.79891205 238.9818878

endloop
endfacet
facet normal -0.1954008937 -0.6642028689 0.721562922
outer loop
vertex 105.3725815 26.79891205 238.9818878
vertex 105.4059067 26.93067169 239.1121979
vertex 105.3066025 26.88184357 239.0403595

endloop
endfacet
facet normal -0.2257298976 -0.6748083234 0.7026234865
outer loop
vertex 105.3725815 26.79889679 238.9819031
vertex 105.306572 26.88184357 239.0403595
vertex 105.2720871 26.75693512 238.909317

endloop
endfacet
facet normal -0.1568115056 -0.6939538121 0.7027363181
outer loop
vertex 105.2720871 26.75693512 238.909317
vertex 105.306572 26.88184357 239.0403595
vertex 105.2186203 26.81932831 238.9589996

endloop
endfacet
facet normal -0.6186186075 -0.7401101589 0.2637195587
outer loop
vertex 105.2720871 26.75693512 238.909317
vertex 105.2186203 26.81932831 238.9589996
vertex 105.1175156 26.82193756 238.7291565

endloop
endfacet
facet normal -0.8149437904 0.451284349 0.3636059165
outer loop
vertex 105.1175156 26.82193756 238.7291565
vertex 105.2186203 26.81932831 238.9589996
vertex 105.1175461 26.82196808 238.729187

endloop
endfacet
facet normal -0.9926659465 0.1081272736 -0.05406363681
outer loop
vertex 107.4684067 28.29636383 238.8473969
vertex 107.4684067 28.29634857 238.8473663
vertex 107.4500656 28.23375702 239.0589447

endloop
endfacet
facet normal 0.9479337335 0.2735362053 0.1630940288
outer loop
vertex 107.4500656 28.23375702 239.0589447
vertex 107.4684067 28.29634857 238.8473663
vertex 107.42379 28.32131195 239.0648193

endloop
endfacet
facet normal 0.7094379067 0.166964218 0.6847048402
outer loop
vertex 107.4500656 28.23375702 239.0589447
vertex 107.42379 28.32131195 239.0648193
vertex 107.3941269 28.21038055 239.1226044

endloop
endfacet
facet normal 0.5775879622 0.2503022552 0.7770077586
outer loop
vertex 107.3941269 28.21038055 239.1226044
vertex 107.42379 28.32131195 239.0648193
vertex 107.3470078 28.30968475 239.1256409

endloop
endfacet
facet normal 0.4586141407 0.1910722554 0.8678505421
outer loop
vertex 107.3941269 28.21038055 239.1226044
vertex 107.3470078 28.30968475 239.1256409
vertex 107.3095932 28.14319611 239.1820679

endloop
endfacet
facet normal 0.3955343962 0.2138428837 0.893209815
outer loop
vertex 107.3095932 28.14319611 239.1820679
vertex 107.3470078 28.30968475 239.1256409
vertex 107.2394943 28.25762177 239.1857147

endloop
endfacet
facet normal 0.1541551948 0.06301192939 0.9860354066
outer loop
vertex 107.3095932 28.14319611 239.1820679
vertex 107.2394943 28.25762177 239.1857147
vertex 107.191246 28.05760956 239.2060394

endloop
endfacet
facet normal 0.1450734138 0.06532733142 0.9872618318
outer loop
vertex 107.191246 28.05760956 239.2060394
vertex 107.2394943 28.25762177 239.1857147
vertex 107.1106186 28.17670441 239.2100067

endloop
endfacet
facet normal 0.03305874765 -0.01091095246 0.9993938208
outer loop
vertex 107.191246 28.05760956 239.2060394
vertex 107.1106186 28.17670441 239.2100067
vertex 107.0624924 27.96799469 239.2093201

endloop
endfacet
facet normal 0.03275107592 -0.01084004249 0.999404788
outer loop
vertex 107.0624924 27.96799469 239.2093201
vertex 107.1106186 28.17670441 239.2100067
vertex 106.9799423 28.08716583 239.2133179

endloop
endfacet
facet normal 0.01856994815 -0.02067034692 0.9996139407
outer loop
vertex 107.0624924 27.96799469 239.2093201
vertex 106.9799423 28.08716583 239.2133179
vertex 106.9330978 27.87905121 239.2098846

endloop
endfacet
facet normal 0.01859756 -0.02067655139 0.9996132851
outer loop
vertex 106.9330978 27.87905121 239.2098846
vertex 106.9799423 28.08716583 239.2133179
vertex 106.8512192 27.99868011 239.2138824

endloop
endfacet
facet normal 0.01762203127 -0.02134436369 0.9996168613
outer loop
vertex 106.9330978 27.87905121 239.2098846
vertex 106.8512192 27.99868011 239.2138824
vertex 106.8037338 27.79154205 239.2102966

endloop
endfacet
facet normal 0.01778303459 -0.02138121054 0.9996132851
outer loop
vertex 106.8037338 27.79154205 239.2102966
vertex 106.8512192 27.99868011 239.2138824
vertex 106.7230148 27.91202545 239.2143097

endloop
endfacet
facet normal 0.01768411882 -0.02119178884 0.9996189475
outer loop
vertex 106.8037338 27.79154205 239.2103119
vertex 106.7230148 27.91204071 239.2142944
vertex 106.6736069 27.70598602 239.2108002

endloop
endfacet
facet normal 0.01788322069 -0.02123945393 0.9996144772
outer loop
vertex 106.6736069 27.70598602 239.2108002
vertex 106.7230148 27.91204071 239.2142944
vertex 106.5945969 27.82761383 239.214798

endloop
endfacet
facet normal 0.01698437333 -0.0218234472 0.9996175766
outer loop
vertex 106.6736069 27.70598602 239.2108002
vertex 106.5945969 27.82761383 239.214798
vertex 106.5422897 27.62265778 239.2112122

endloop
endfacet
facet normal 0.01691517793 -0.02180581726 0.9996191859
outer loop
vertex 106.5422897 27.62265778 239.2112122
vertex 106.5945969 27.82761383 239.214798
vertex 106.4653244 27.74552155 239.2151947

endloop
endfacet
facet normal 0.01636839472 -0.02202159911 0.9996234775
outer loop
vertex 106.5423203 27.62267303 239.2112427
vertex 106.4653549 27.74555206 239.21521
vertex 106.4100571 27.54167938 239.2116241

endloop
endfacet
facet normal 0.01655859686 -0.02207311429 0.9996193051
outer loop
vertex 106.4100571 27.54167938 239.2116241
vertex 106.4653549 27.74555206 239.21521
vertex 106.3350449 27.66576385 239.2156067

endloop
endfacet
facet normal 0.01663202792 -0.02202871442 0.9996189475
outer loop
vertex 106.4100571 27.54167938 239.2116241
vertex 106.3350449 27.66576385 239.2156067
vertex 106.2770615 27.46273041 239.2120972

endloop
endfacet
facet normal 0.01695778407 -0.02212161571 0.9996114373
outer loop
vertex 106.2770615 27.46273041 239.2120972
vertex 106.3350449 27.66576385 239.2156067
vertex 106.2036667 27.5878067 239.2161102

endloop
endfacet
facet normal 0.01672420092 -0.02225871012 0.9996123314
outer loop
vertex 106.2770615 27.46273041 239.2120972
vertex 106.2036667 27.5878067 239.2161102
vertex 106.1430893 27.38536835 239.212616

endloop
endfacet
facet normal 0.01635553688 -0.02214854024 0.9996209145
outer loop
vertex 106.1430893 27.38536835 239.212616
vertex 106.2036667 27.5878067 239.2161102
vertex 106.0710678 27.5112381 239.2165833

endloop
endfacet
facet normal 0.01576973125 -0.02248379029 0.9996227622
outer loop
vertex 106.1430893 27.38536835 239.212616
vertex 106.0710678 27.5112381 239.2165833
vertex 106.0076218 27.30934906 239.2130432

endloop
endfacet
facet normal 0.01553655509 -0.0224106051 0.999628067
outer loop
vertex 106.0076218 27.30934906 239.2130432
vertex 106.0710678 27.5112381 239.2165833
vertex 105.9371872 27.43611908 239.21698

endloop
endfacet
facet normal -0.01341211144 -0.03859739751 0.9991648197
outer loop
vertex 106.0076218 27.30937958 239.2130585
vertex 105.9372177 27.4361496 239.2170105
vertex 105.8624802 27.22472382 239.20784

endloop
endfacet
facet normal -0.01060206722 -0.03959050775 0.9991596937
outer loop
vertex 105.8624802 27.22472382 239.20784
vertex 105.9372177 27.4361496 239.2170105
vertex 105.7929611 27.35193634 239.2121429

endloop
endfacet
facet normal -0.09680463374 -0.08644080162 0.991542697
outer loop
vertex 105.8624802 27.22472382 239.20784
vertex 105.7929611 27.35193634 239.2121429
vertex 105.6889572 27.10434723 239.1804047

endloop
endfacet
facet normal -0.07774040848 -0.09456896782 0.9924782515
outer loop
vertex 105.6889572 27.10434723 239.1804047
vertex 105.7929611 27.35193634 239.2121429
vertex 105.6166 27.22980499 239.1866913

endloop
endfacet
facet normal -0.1062482521 -0.1107937396 0.9881477952
outer loop
vertex 105.6889572 27.10434723 239.1804047
vertex 105.6166 27.22980499 239.1866913
vertex 105.5330429 27.00209808 239.1521759

endloop
endfacet
facet normal -0.09442771226 -0.1152361557 0.9888397455
outer loop
vertex 105.5330429 27.00209808 239.1521759
vertex 105.6166 27.22980499 239.1866913
vertex 105.4587326 27.12505341 239.1594086

endloop
endfacet
facet normal -0.2022705823 -0.1788843721 0.9628535509
outer loop
vertex 105.5330429 27.00209808 239.1521759
vertex 105.4587326 27.12505341 239.1594086
vertex 105.4059067 26.93067169 239.1121979

endloop
endfacet
facet normal -0.1965201497 -0.1806559265 0.9637132287
outer loop
vertex 105.4059067 26.93067169 239.1121979
vertex 105.4587326 27.12505341 239.1594086
vertex 105.3332443 27.04349518 239.1185303

endloop
endfacet
facet normal -0.4409300387 -0.330804199 0.8343555927
outer loop
vertex 105.4059067 26.93067169 239.1121979
vertex 105.3332443 27.04349518 239.1185303
vertex 105.3066025 26.88184357 239.0403595

endloop
endfacet
facet normal -0.4171870351 -0.3390066326 0.8432256579
outer loop
vertex 105.3066025 26.88184357 239.0403595
vertex 105.3332443 27.04349518 239.1185303
vertex 105.2427902 26.9721756 239.045105

endloop
endfacet
facet normal -0.4715591967 -0.3751774132 0.7980437279
outer loop
vertex 105.306572 26.88184357 239.0403595
vertex 105.2427597 26.9721756 239.0451202
vertex 105.2186203 26.81932831 238.9589996

endloop
endfacet
facet normal -0.4156560898 -0.3957599699 0.8189042211
outer loop
vertex 105.2186203 26.81932831 238.9589996
vertex 105.2427597 26.9721756 239.0451202
vertex 105.1631088 26.89228058 238.9660797

endloop
endfacet
facet normal -0.7392688394 -0.5934243202 0.3183224499
outer loop
vertex 105.2186203 26.81932831 238.9589996
vertex 105.1631088 26.89228058 238.9660797
vertex 105.1175461 26.82196808 238.729187

endloop
endfacet
facet normal -0.1541355699 -0.9387284517 0.3082711399
outer loop
vertex 105.1175461 26.82196808 238.729187
vertex 105.1631088 26.89228058 238.9660797
vertex 105.1175156 26.82196808 238.7291718

endloop
endfacet
facet normal -0.979592979 0 -0.2009914964
outer loop
vertex 107.4684067 28.29634857 238.8473663
vertex 107.4684067 28.29633331 238.8473663
vertex 107.42379 28.32131195 239.0648193

endloop
endfacet
facet normal 0.9253842235 0.3481387198 0.1498786211
outer loop
vertex 107.42379 28.32131195 239.0648193
vertex 107.4684067 28.29633331 238.8473663
vertex 107.3979111 28.4070816 239.0253754

endloop
endfacet
facet normal 0.4981024563 0.4818311334 0.7209249735
outer loop
vertex 107.42379 28.32131195 239.0648193
vertex 107.3979111 28.4070816 239.0253754
vertex 107.3470078 28.30968475 239.1256409

endloop
endfacet
facet normal 0.3804114461 0.5593569875 0.7364827394
outer loop
vertex 107.3470078 28.30968475 239.1256409
vertex 107.3979111 28.4070816 239.0253754
vertex 107.3021469 28.40380096 239.0773315

endloop
endfacet
facet normal 0.208238855 0.5233753324 0.8262656331
outer loop
vertex 107.3470078 28.30968475 239.1256409
vertex 107.3021469 28.40380096 239.0773315
vertex 107.2394943 28.25762177 239.1857147

endloop
endfacet
facet normal 0.1584938467 0.5433296561 0.8244225979
outer loop
vertex 107.2394943 28.25762177 239.1857147
vertex 107.3021469 28.40380096 239.0773315
vertex 107.172966 28.36595917 239.1271057

endloop
endfacet
facet normal -0.09811887145 0.4262406826 0.8992728591
outer loop
vertex 107.2394943 28.25762177 239.1857147
vertex 107.172966 28.36595917 239.1271057
vertex 107.1106186 28.17670441 239.2100067

endloop
endfacet
facet normal -0.1051780879 0.4278759062 0.8976968527
outer loop
vertex 107.1106186 28.17670441 239.2100067
vertex 107.172966 28.36595917 239.1271057
vertex 107.0340805 28.28949738 239.1472778

endloop
endfacet
facet normal -0.2205551416 0.3554760516 0.9082908034
outer loop
vertex 107.1106186 28.17670441 239.2100067
vertex 107.0340805 28.28949738 239.1472778
vertex 106.9799423 28.08716583 239.2133179

endloop
endfacet
facet normal -0.2203820348 0.3554471433 0.9083442092
outer loop
vertex 106.9799423 28.08716583 239.2133179
vertex 107.0340805 28.28949738 239.1472778
vertex 106.9015121 28.20005035 239.150116

endloop
endfacet
facet normal -0.2339511216 0.3461334407 0.908547461
outer loop
vertex 106.9799423 28.08716583 239.2133179
vertex 106.9015121 28.20005035 239.150116
vertex 106.8512192 27.99868011 239.2138824

endloop
endfacet
facet normal -0.2341148704 0.346157968 0.9084959626
outer loop
vertex 106.8512192 27.99868011 239.2138824
vertex 106.9015121 28.20005035 239.150116
vertex 106.7733688 28.1120224 239.1506348

endloop
endfacet
facet normal -0.2319468856 0.347641319 0.9084855914
outer loop
vertex 106.8512192 27.99868011 239.2138824
vertex 106.7733688 28.1120224 239.1506348
vertex 106.7230148 27.91202545 239.2143097

endloop
endfacet
facet normal -0.2316431254 0.347595185 0.9085807204
outer loop
vertex 106.7230148 27.91202545 239.2143097
vertex 106.7733688 28.1120224 239.1506348
vertex 106.6463242 28.02616119 239.1510925

endloop
endfacet
facet normal -0.2269738168 0.3506587148 0.9085820317
outer loop
vertex 106.7230148 27.91204071 239.2142944
vertex 106.6463242 28.02616119 239.1510925
vertex 106.5945969 27.82761383 239.214798

endloop
endfacet
facet normal -0.2271669507 0.3506896794 0.908521831
outer loop
vertex 106.5945969 27.82761383 239.214798
vertex 106.6463242 28.02616119 239.1510925
vertex 106.5195541 27.94281769 239.1515656

endloop
endfacet
facet normal -0.2220288366 0.3540240228 0.9084988236
outer loop
vertex 106.5945969 27.82761383 239.214798
vertex 106.5195541 27.94281769 239.1515656
vertex 106.4653244 27.74552155 239.2151947

endloop
endfacet
facet normal -0.2220475078 0.3540272713 0.908493042
outer loop
vertex 106.4653244 27.74552155 239.2151947
vertex 106.5195541 27.94281769 239.1515656
vertex 106.3921127 27.86194611 239.1519318

endloop
endfacet
facet normal -0.2162679583 0.3577257395 0.9084384441
outer loop
vertex 106.4653549 27.74555206 239.21521
vertex 106.3921432 27.86194611 239.151947
vertex 106.3350449 27.66576385 239.2156067

endloop
endfacet
facet normal -0.2159636766 0.357668072 0.9085335732
outer loop
vertex 106.3350449 27.66576385 239.2156067
vertex 106.3921432 27.86194611 239.151947
vertex 106.2636948 27.78330231 239.1523743

endloop
endfacet
facet normal -0.2106555253 0.3608778715 0.9085105062
outer loop
vertex 106.3350449 27.66576385 239.2156067
vertex 106.2636948 27.78330231 239.1523743
vertex 106.2036667 27.5878067 239.2161102

endloop
endfacet
facet normal -0.2104068398 0.3608269393 0.9085884094
outer loop
vertex 106.2036667 27.5878067 239.2161102
vertex 106.2636948 27.78330231 239.1523743
vertex 106.1338425 27.70627594 239.1528931

endloop
endfacet
facet normal -0.2064558566 0.3631461263 0.9085707068
outer loop
vertex 106.2036667 27.5878067 239.2161102
vertex 106.1338425 27.70627594 239.1528931
vertex 106.0710678 27.5112381 239.2165833

endloop
endfacet
facet normal -0.2065850496 0.3631744385 0.9085300565
outer loop
vertex 106.0710678 27.5112381 239.2165833
vertex 106.1338425 27.70627594 239.1528931
vertex 106.0026169 27.63048553 239.1533508

endloop
endfacet
facet normal -0.2024180591 0.3655570447 0.9085125327
outer loop
vertex 106.0710678 27.5112381 239.2165833
vertex 106.0026169 27.63048553 239.1533508
vertex 105.9371872 27.43611908 239.21698

endloop
endfacet
facet normal -0.2024544626 0.3655655384 0.9085009694
outer loop
vertex 105.9371872 27.43611908 239.21698
vertex 106.0026169 27.63048553 239.1533508
vertex 105.8702316 27.55622101 239.1537323

endloop
endfacet
facet normal -0.2337263077 0.3478922844 0.9079333544
outer loop
vertex 105.9372177 27.4361496 239.2170105
vertex 105.8702927 27.55625153 239.1537628
vertex 105.7929611 27.35193634 239.2121429

endloop
endfacet
facet normal -0.2304230481 0.3469825685 0.9091250896
outer loop
vertex 105.7929611 27.35193634 239.2121429
vertex 105.8702927 27.55625153 239.1537628
vertex 105.7275925 27.47312164 239.1493225

endloop
endfacet
facet normal -0.3294391334 0.2883577943 0.8990659714
outer loop
vertex 105.7929611 27.35193634 239.2121429
vertex 105.7275925 27.47312164 239.1493225
vertex 105.6166 27.22980499 239.1866913

endloop
endfacet
facet normal -0.3144841194 0.2826331556 0.906210959
outer loop
vertex 105.6166 27.22980499 239.1866913
vertex 105.7275925 27.47312164 239.1493225
vertex 105.5517807 27.35230255 239.1259918

endloop
endfacet
facet normal -0.335126698 0.2699557543 0.9026704431
outer loop
vertex 105.6166 27.22980499 239.1866913
vertex 105.5517807 27.35230255 239.1259918
vertex 105.4587326 27.12505341 239.1594086

endloop
endfacet
facet normal -0.3259944916 0.2668429017 0.9069302678
outer loop
vertex 105.4587326 27.12505341 239.1594086
vertex 105.5517807 27.35230255 239.1259918
vertex 105.3937302 27.24675751 239.100235

endloop
endfacet
facet normal -0.4209618568 0.2048040926 0.8836551309
outer loop
vertex 105.4587326 27.12505341 239.1594086
vertex 105.3937302 27.24675751 239.100235
vertex 105.3332443 27.04349518 239.1185303

endloop
endfacet
facet normal -0.4166438878 0.2037255466 0.8859479427
outer loop
vertex 105.3332443 27.04349518 239.1185303
vertex 105.3937302 27.24675751 239.100235
vertex 105.2694931 27.15525055 239.062851

endloop
endfacet
facet normal -0.6389521956 0.01865275204 0.7690201998
outer loop
vertex 105.3332443 27.04349518 239.1185303
vertex 105.2694931 27.15525055 239.062851
vertex 105.2427902 26.9721756 239.045105

endloop
endfacet
facet normal -0.6212605238 0.01467195246 0.7834666967
outer loop
vertex 105.2427902 26.9721756 239.045105
vertex 105.2694931 27.15525055 239.062851
vertex 105.1864853 27.06177521 238.9987793

endloop
endfacet
facet normal -0.6791262627 -0.04759189487 0.7324768901
outer loop
vertex 105.2427597 26.9721756 239.0451202
vertex 105.1865158 27.06177521 238.9987946
vertex 105.1631088 26.89228058 238.9660797

endloop
endfacet
facet normal -0.650592804 -0.05633024871 0.7573347688
outer loop
vertex 105.1631088 26.89228058 238.9660797
vertex 105.1865158 27.06177521 238.9987946
vertex 105.1123886 26.96726227 238.9280853

endloop
endfacet
facet normal -0.8543331623 -0.4299306273 0.2920177579
outer loop
vertex 105.1631088 26.89228058 238.9660797
vertex 105.1123886 26.96726227 238.9280853
vertex 105.1175156 26.82196808 238.7291718

endloop
endfacet
facet normal 0.9996680021 0 0.02576622181
outer loop
vertex 105.1175156 26.82196808 238.7291718
vertex 105.1123886 26.96726227 238.9280853
vertex 105.1175156 26.82193756 238.7291718

endloop
endfacet
facet normal 0.3605938256 -0.7211876512 0.5914900899
outer loop
vertex 107.4684067 28.29633331 238.8473663
vertex 107.4684372 28.29634857 238.8473663
vertex 107.3979111 28.4070816 239.0253754

endloop
endfacet
facet normal 0.9053394794 0.4121874869 0.1022831053
outer loop
vertex 107.3979111 28.4070816 239.0253754
vertex 107.4684372 28.29634857 238.8473663
vertex 107.3772812 28.47399139 238.9383392

endloop
endfacet
facet normal 0.2691013515 0.7933267355 0.546092689
outer loop
vertex 107.3979111 28.4070816 239.0253754
vertex 107.3772812 28.47399139 238.9383392
vertex 107.3021469 28.40380096 239.0773315

endloop
endfacet
facet normal 0.2262701094 0.8147898316 0.5337783694
outer loop
vertex 107.3021469 28.40380096 239.0773315
vertex 107.3772812 28.47399139 238.9383392
vertex 107.264122 28.4830246 238.9725189

endloop
endfacet
facet normal -0.001189012546 0.797542572 0.60326159
outer loop
vertex 107.3021469 28.40380096 239.0773315
vertex 107.264122 28.4830246 238.9725189
vertex 107.172966 28.36595917 239.1271057

endloop
endfacet
facet normal -0.03070732206 0.8054614067 0.5918521881
outer loop
vertex 107.172966 28.36595917 239.1271057
vertex 107.264122 28.4830246 238.9725189
vertex 107.1166306 28.45729828 238.9998779

endloop
endfacet
facet normal -0.2970643342 0.7084771991 0.6401662827
outer loop
vertex 107.172966 28.36595917 239.1271057
vertex 107.1166306 28.45729828 238.9998779
vertex 107.0340805 28.28949738 239.1472778

endloop
endfacet
facet normal -0.3010779917 0.7086417675 0.6381056905
outer loop
vertex 107.0340805 28.28949738 239.1472778
vertex 107.1166306 28.45729828 238.9998779
vertex 106.9692612 28.38455963 239.0111237

endloop
endfacet
facet normal -0.4176972508 0.639541924 0.6453798413
outer loop
vertex 107.0340805 28.28949738 239.1472778
vertex 106.9692612 28.38455963 239.0111237
vertex 106.9015121 28.20005035 239.150116

endloop
endfacet
facet normal -0.4179317057 0.6395257115 0.6452441216
outer loop
vertex 106.9015121 28.20005035 239.150116
vertex 106.9692612 28.38455963 239.0111237
vertex 106.8351669 28.29517365 239.0128632

endloop
endfacet
facet normal -0.4307290316 0.63082093 0.6453971863
outer loop
vertex 106.9015121 28.20005035 239.150116
vertex 106.8351669 28.29517365 239.0128632
vertex 106.7733688 28.1120224 239.1506348

endloop
endfacet
facet normal -0.4308461547 0.6308097839 0.645329833
outer loop
vertex 106.7733688 28.1120224 239.1506348
vertex 106.8351669 28.29517365 239.0128632
vertex 106.7075729 28.20754242 239.0133362

endloop
endfacet
facet normal -0.4261591136 0.6340074539 0.645308435
outer loop
vertex 106.7733688 28.1120224 239.1506348
vertex 106.7075729 28.20754242 239.0133362
vertex 106.6463242 28.02616119 239.1510925

endloop
endfacet
facet normal -0.4261342883 0.6340098381 0.6453225017
outer loop
vertex 106.6463242 28.02616119 239.1510925
vertex 106.7075729 28.20754242 239.0133362
vertex 106.5814743 28.12230682 239.0138092

endloop
endfacet
facet normal -0.4180093706 0.6394771934 0.645241797
outer loop
vertex 106.6463242 28.02616119 239.1510925
vertex 106.5814743 28.12230682 239.0137939
vertex 106.5195541 27.94281769 239.1515656

endloop
endfacet
facet normal -0.4177522361 0.6394994259 0.6453862786
outer loop
vertex 106.5195541 27.94281769 239.1515656
vertex 106.5814743 28.12230682 239.0137939
vertex 106.4560471 28.03987885 239.0142822

endloop
endfacet
facet normal -0.4079747498 0.6458289623 0.6453382969
outer loop
vertex 106.5195541 27.94281769 239.1515656
vertex 106.4560471 28.03987885 239.0142822
vertex 106.3921127 27.86194611 239.1519318

endloop
endfacet
facet normal -0.4079718888 0.6458291411 0.6453399062
outer loop
vertex 106.3921127 27.86194611 239.1519318
vertex 106.4560471 28.03987885 239.0142822
vertex 106.3302231 27.96001434 239.0146637

endloop
endfacet
facet normal -0.3972994089 0.6524131298 0.6453760862
outer loop
vertex 106.3921432 27.86194611 239.151947
vertex 106.3302536 27.9600296 239.0146942
vertex 106.2636948 27.78330231 239.1523743

endloop
endfacet
facet normal -0.3971398175 0.6524223089 0.6454650164
outer loop
vertex 106.2636948 27.78330231 239.1523743
vertex 106.3302536 27.9600296 239.0146942
vertex 106.203331 27.88234711 239.0151215

endloop
endfacet
facet normal -0.3877783716 0.6580702066 0.6454235911
outer loop
vertex 106.2636948 27.78330231 239.1523743
vertex 106.203331 27.88234711 239.0151215
vertex 106.1338425 27.70627594 239.1528931

endloop
endfacet
facet normal -0.3875722587 0.6580789089 0.6455385089
outer loop
vertex 106.1338425 27.70627594 239.1528931
vertex 106.203331 27.88234711 239.0151215
vertex 106.0747299 27.8061142 239.015625

endloop
endfacet
facet normal -0.3802909851 0.6623450518 0.6455059052
outer loop
vertex 106.1338425 27.70627594 239.1528931
vertex 106.0747299 27.8061142 239.015625
vertex 106.0026169 27.63048553 239.1533508

endloop
endfacet
facet normal -0.3800798357 0.6623509526 0.6456241012
outer loop
vertex 106.0026169 27.63048553 239.1533508
vertex 106.0747299 27.8061142 239.015625
vertex 105.9445724 27.7309494 239.0161133

endloop
endfacet
facet normal -0.3722183108 0.6668390036 0.6455844641
outer loop
vertex 106.0026169 27.63048553 239.1533508
vertex 105.9445724 27.7309494 239.0161133
vertex 105.8702316 27.55622101 239.1537323

endloop
endfacet
facet normal -0.3724563718 0.6668352485 0.6454510689
outer loop
vertex 105.8702316 27.55622101 239.1537323
vertex 105.9445724 27.7309494 239.0161133
vertex 105.81353 27.65740204 239.0164795

endloop
endfacet
facet normal -0.3994977772 0.6513163447 0.64512676
outer loop
vertex 105.8702927 27.55625153 239.1537628
vertex 105.8135605 27.6574173 239.0164948
vertex 105.7275925 27.47312164 239.1493225

endloop
endfacet
facet normal -0.3962537646 0.651273787 0.6471672058
outer loop
vertex 105.7275925 27.47312164 239.1493225
vertex 105.8135605 27.6574173 239.0164948
vertex 105.6732101 27.57604218 239.0124512

endloop
endfacet
facet normal -0.4911707044 0.5912038088 0.6397103667
outer loop
vertex 105.7275925 27.47312164 239.1493225
vertex 105.6732101 27.57604218 239.0124512
vertex 105.5517807 27.35230255 239.1259918

endloop
endfacet
facet normal -0.4797796309 0.5899556875 0.6494333744
outer loop
vertex 105.5517807 27.35230255 239.1259918
vertex 105.6732101 27.57604218 239.0124512
vertex 105.5018845 27.46006012 238.9912415

endloop
endfacet
facet normal -0.4934476912 0.580958426 0.6472995281
outer loop
vertex 105.5517807 27.35230255 239.1259918
vertex 105.5018845 27.46006012 238.9912415
vertex 105.3937302 27.24675751 239.100235

endloop
endfacet
facet normal -0.4867151082 0.5803952217 0.652878046
outer loop
vertex 105.3937302 27.24675751 239.100235
vertex 105.5018845 27.46006012 238.9912415
vertex 105.3458481 27.35579681 238.9676056

endloop
endfacet
facet normal -0.5732103586 0.5192799568 0.6338597536
outer loop
vertex 105.3937302 27.24675751 239.100235
vertex 105.3458481 27.35579681 238.9676056
vertex 105.2694931 27.15525055 239.062851

endloop
endfacet
facet normal -0.5703890324 0.5193752646 0.6363219619
outer loop
vertex 105.2694931 27.15525055 239.062851
vertex 105.3458481 27.35579681 238.9676056
vertex 105.2222519 27.25556183 238.9386292

endloop
endfacet
facet normal -0.7756668925 0.3132355809 0.5479272008
outer loop
vertex 105.2694931 27.15525055 239.062851
vertex 105.2222519 27.25556183 238.9386292
vertex 105.1864853 27.06177521 238.9987793

endloop
endfacet
facet normal -0.7659143806 0.3152854741 0.5603303313
outer loop
vertex 105.1864853 27.06177521 238.9987793
vertex 105.2222519 27.25556183 238.9386292
vertex 105.1444626 27.14225006 238.8960571

endloop
endfacet
facet normal -0.8144345284 0.2453790009 0.5258190036
outer loop
vertex 105.1865158 27.06177521 238.9987946
vertex 105.1444321 27.14225006 238.8960571
vertex 105.1123886 26.96726227 238.9280853

endloop
endfacet
facet normal -0.820525229 0.2447959483 0.5165396929
outer loop
vertex 105.1123886 26.96726227 238.9280853
vertex 105.1444321 27.14225006 238.8960571
vertex 105.0773544 27.03026581 238.8425751

endloop
endfacet
facet normal -0.9429879189 -0.2798541188 0.1801539361
outer loop
vertex 105.1123886 26.96726227 238.9280853
vertex 105.0773544 27.03026581 238.8425751
vertex 105.1175156 26.82193756 238.7291718

endloop
endfacet
facet normal -0.9426339269 0 -0.3338283598
outer loop
vertex 105.1175156 26.82193756 238.7291718
vertex 105.0773544 27.03026581 238.8425751
vertex 105.1175156 26.82196808 238.7291718

endloop
endfacet
facet normal 0.2728773057 0.5457546115 -0.7922687531
outer loop
vertex 107.4684372 28.29634857 238.8473663
vertex 107.4684067 28.29636383 238.8473663
vertex 107.3772812 28.47399139 238.9383392

endloop
endfacet
facet normal 0.8948034644 0.4456989467 0.02606256865
outer loop
vertex 107.3772812 28.47399139 238.9383392
vertex 107.4684067 28.29636383 238.8473663
vertex 107.3702621 28.4948349 238.822876

endloop
endfacet
facet normal 0.1289259344 0.977221489 0.1685712487
outer loop
vertex 107.3772812 28.47399139 238.9383392
vertex 107.3702621 28.4948349 238.822876
vertex 107.264122 28.4830246 238.9725189

endloop
endfacet
facet normal 0.1595032215 0.9688199162 0.1895962954
outer loop
vertex 107.264122 28.4830246 238.9725189
vertex 107.3702621 28.4948349 238.822876
vertex 107.2491074 28.51354218 238.8292084

endloop
endfacet
facet normal -0.1280124635 0.9672058225 0.2193756253
outer loop
vertex 107.264122 28.4830246 238.9725189
vertex 107.2491074 28.51354218 238.8292084
vertex 107.1166306 28.45729828 238.9998779

endloop
endfacet
facet normal -0.1357272267 0.9674741626 0.2134757042
outer loop
vertex 107.1166306 28.45729828 238.9998779
vertex 107.2491074 28.51354218 238.8292084
vertex 107.0943832 28.4925766 238.8258514

endloop
endfacet
facet normal -0.4163229167 0.8792607784 0.2314642519
outer loop
vertex 107.1166306 28.45729828 238.9998779
vertex 107.0943832 28.4925766 238.8258514
vertex 106.9692612 28.38455963 239.0111237

endloop
endfacet
facet normal -0.4174961448 0.8789588213 0.2304959148
outer loop
vertex 106.9692612 28.38455963 239.0111237
vertex 107.0943832 28.4925766 238.8258514
vertex 106.943718 28.42127228 238.8248596

endloop
endfacet
facet normal -0.5372362733 0.8104886413 0.2334209234
outer loop
vertex 106.9692612 28.38455963 239.0111237
vertex 106.943718 28.42127228 238.8248596
vertex 106.8351669 28.29517365 239.0128632

endloop
endfacet
facet normal -0.5373108983 0.8104575872 0.2333570272
outer loop
vertex 106.8351669 28.29517365 239.0128632
vertex 106.943718 28.42127228 238.8248596
vertex 106.8090439 28.33191681 238.8251038

endloop
endfacet
facet normal -0.5499053001 0.8019405603 0.2334425747
outer loop
vertex 106.8351669 28.29517365 239.0128632
vertex 106.8090439 28.33191681 238.8251038
vertex 106.7075729 28.20754242 239.0133362

endloop
endfacet
facet normal -0.5500165224 0.8018912077 0.233349964
outer loop
vertex 106.7075729 28.20754242 239.0133362
vertex 106.8090439 28.33191681 238.8251038
vertex 106.6817245 28.24446869 238.8255157

endloop
endfacet
facet normal -0.5439516902 0.8060239553 0.2333278358
outer loop
vertex 106.7075729 28.20754242 239.0133362
vertex 106.6817245 28.24446869 238.8255157
vertex 106.5814743 28.12230682 239.0138092

endloop
endfacet
facet normal -0.5438107848 0.8060857654 0.2334429622
outer loop
vertex 106.5814743 28.12230682 239.0138092
vertex 106.6817245 28.24446869 238.8255157
vertex 106.5559616 28.15949249 238.8259735

endloop
endfacet
facet normal -0.5333788991 0.8130038381 0.2335201949
outer loop
vertex 106.5814743 28.12230682 239.0137939
vertex 106.5559311 28.15949249 238.8259888
vertex 106.4560471 28.03987885 239.0142822

endloop
endfacet
facet normal -0.5334026814 0.8129937649 0.2335011512
outer loop
vertex 106.4560471 28.03987885 239.0142822
vertex 106.5559311 28.15949249 238.8259888
vertex 106.4310226 28.07740021 238.8264771

endloop
endfacet
facet normal -0.5205829144 0.8212768435 0.2334478199
outer loop
vertex 106.4560471 28.03987885 239.0142822
vertex 106.4310226 28.07740021 238.8264771
vertex 106.3302231 27.96001434 239.0146637

endloop
endfacet
facet normal -0.5208130479 0.8211826086 0.2332657576
outer loop
vertex 106.3302231 27.96001434 239.0146637
vertex 106.4310226 28.07740021 238.8264771
vertex 106.3058701 27.99791718 238.8268585

endloop
endfacet
facet normal -0.5070488453 0.8297320008 0.2333372384
outer loop
vertex 106.3302536 27.9600296 239.0146942
vertex 106.3058701 27.99794769 238.8268738
vertex 106.203331 27.88234711 239.0151215

endloop
endfacet
facet normal -0.506962955 0.8297654986 0.2334046066
outer loop
vertex 106.203331 27.88234711 239.0151215
vertex 106.3058701 27.99794769 238.8268738
vertex 106.1795273 27.92063141 238.8273163

endloop
endfacet
facet normal -0.4951705933 0.8368692398 0.2333580703
outer loop
vertex 106.203331 27.88234711 239.0151215
vertex 106.1795273 27.92063141 238.8273163
vertex 106.0747299 27.8061142 239.015625

endloop
endfacet
facet normal -0.495030582 0.8369214535 0.2334677279
outer loop
vertex 106.0747299 27.8061142 239.015625
vertex 106.1795273 27.92063141 238.8273163
vertex 106.0513535 27.84467316 238.8278351

endloop
endfacet
facet normal -0.4856193662 0.8424284458 0.2334269583
outer loop
vertex 106.0747299 27.8061142 239.015625
vertex 106.0513535 27.84467316 238.8278351
vertex 105.9445724 27.7309494 239.0161133

endloop
endfacet
facet normal -0.4855714142 0.842445612 0.2334644943
outer loop
vertex 105.9445724 27.7309494 239.0161133
vertex 106.0513535 27.84467316 238.8278351
vertex 105.9216232 27.76976776 238.8283081

endloop
endfacet
facet normal -0.4754157066 0.8482307196 0.2334192544
outer loop
vertex 105.9445724 27.7309494 239.0161133
vertex 105.9216232 27.76976776 238.8283081
vertex 105.81353 27.65740204 239.0164795

endloop
endfacet
facet normal -0.4756197631 0.8481602073 0.2332599014
outer loop
vertex 105.81353 27.65740204 239.0164795
vertex 105.9216232 27.76976776 238.8283081
vertex 105.7911301 27.69649506 238.8286591

endloop
endfacet
facet normal -0.4927715063 0.8383076787 0.2332736999
outer loop
vertex 105.8135605 27.6574173 239.0164948
vertex 105.7911606 27.69651031 238.8286896
vertex 105.6732101 27.57604218 239.0124512

endloop
endfacet
facet normal -0.4895678461 0.8394066095 0.2360504717
outer loop
vertex 105.6732101 27.57604218 239.0124512
vertex 105.7911606 27.69651031 238.8286896
vertex 105.6531601 27.61708832 238.8249054

endloop
endfacet
facet normal -0.5647473335 0.7915106416 0.2336051911
outer loop
vertex 105.6732101 27.57604218 239.0124512
vertex 105.6531601 27.61708832 238.8249054
vertex 105.5018845 27.46006012 238.9912415

endloop
endfacet
facet normal -0.5566076636 0.7942581773 0.2436017394
outer loop
vertex 105.5018845 27.46006012 238.9912415
vertex 105.6531601 27.61708832 238.8249054
vertex 105.4901047 27.50891876 238.8050232

endloop
endfacet
facet normal -0.5641167164 0.7892048359 0.2427509129
outer loop
vertex 105.5018845 27.46006012 238.9912415
vertex 105.4901047 27.50891876 238.8050232
vertex 105.3458481 27.35579681 238.9676056

endloop
endfacet
facet normal -0.5587498546 0.7910073996 0.2492105365
outer loop
vertex 105.3458481 27.35579681 238.9676056
vertex 105.4901047 27.50891876 238.8050232
vertex 105.3382187 27.40839386 238.7835541

endloop
endfacet
facet normal -0.6448934078 0.727376461 0.2345973551
outer loop
vertex 105.3458481 27.35579681 238.9676056
vertex 105.3382187 27.40839386 238.7835541
vertex 105.2222519 27.25556183 238.9386292

endloop
endfacet
facet normal -0.6442999244 0.7276666164 0.2353271246
outer loop
vertex 105.2222519 27.25556183 238.9386292
vertex 105.3382187 27.40839386 238.7835541
vertex 105.2143478 27.30420685 238.766571

endloop
endfacet
facet normal -0.8412311673 0.5089322925 0.1825322807
outer loop
vertex 105.2222519 27.25556183 238.9386292
vertex 105.2143478 27.30420685 238.766571
vertex 105.1444626 27.14225006 238.8960571

endloop
endfacet
facet normal -0.8387622237 0.511398077 0.1869488657
outer loop
vertex 105.1444626 27.14225006 238.8960571
vertex 105.2143478 27.30420685 238.766571
vertex 105.1367111 27.1813736 238.7542572

endloop
endfacet
facet normal -0.8790894151 0.4450415671 0.1707038581
outer loop
vertex 105.1444321 27.14225006 238.8960571
vertex 105.1367111 27.18138885 238.7542572
vertex 105.0773544 27.03026581 238.8425751

endloop
endfacet
facet normal -0.894810617 0.4272120893 0.1296294183
outer loop
vertex 105.0773544 27.03026581 238.8425751
vertex 105.1367111 27.18138885 238.7542572
vertex 105.0735092 27.05692291 238.7281799

endloop
endfacet
facet normal -0.9828528166 -0.1841270924 -0.009869431145
outer loop
vertex 105.0773544 27.03026581 238.8425751
vertex 105.0735092 27.05692291 238.7281799
vertex 105.1175156 26.82196808 238.7291718

endloop
endfacet
facet normal -nan(ind) -nan(ind) -nan(ind)
outer loop
vertex 105.1175156 26.82196808 238.7291718
vertex 105.0735092 27.05692291 238.7281799
vertex 105.1175156 26.82196808 238.7291718

endloop
endfacet
facet normal 0.8489442468 0.373693496 -0.373693496
outer loop
vertex 107.4684067 28.29636383 238.8473663
vertex 107.4684067 28.29634857 238.8473511
vertex 107.3702621 28.4948349 238.822876

endloop
endfacet
facet normal 0.8976129293 0.4352588952 -0.06957510114
outer loop
vertex 107.3702621 28.4948349 238.822876
vertex 107.4684067 28.29634857 238.8473511
vertex 107.3823166 28.45304108 238.7169342

endloop
endfacet
facet normal 0.1248610616 0.9277193546 -0.3517763019
outer loop
vertex 107.3702621 28.4948349 238.822876
vertex 107.3823166 28.45304108 238.7169342
vertex 107.2491074 28.51354218 238.8292084

endloop
endfacet
facet normal 0.1741034985 0.9382309914 -0.2990163267
outer loop
vertex 107.2491074 28.51354218 238.8292084
vertex 107.3823166 28.45304108 238.7169342
vertex 107.2714462 28.46552277 238.6915436

endloop
endfacet
facet normal -0.1187378317 0.9313781261 -0.3441453278
outer loop
vertex 107.2491074 28.51354218 238.8292084
vertex 107.2714462 28.46552277 238.6915436
vertex 107.0943832 28.4925766 238.8258514

endloop
endfacet
facet normal -0.1082441136 0.9372288585 -0.331489563
outer loop
vertex 107.0943832 28.4925766 238.8258514
vertex 107.2714462 28.46552277 238.6915436
vertex 107.1278 28.43724823 238.6585083

endloop
endfacet
facet normal -0.3973904252 0.8446702361 -0.3586266935
outer loop
vertex 107.0943832 28.4925766 238.8258514
vertex 107.1278 28.43724823 238.6585083
vertex 106.943718 28.42127228 238.8248596

endloop
endfacet
facet normal -0.3958593011 0.8461661935 -0.3567887247
outer loop
vertex 106.943718 28.42127228 238.8248596
vertex 107.1278 28.43724823 238.6585083
vertex 106.9821091 28.36368561 238.6456909

endloop
endfacet
facet normal -0.516181767 0.7769902349 -0.3603367805
outer loop
vertex 106.943718 28.42127228 238.8248596
vertex 106.9821091 28.36368561 238.6456909
vertex 106.8090439 28.33191681 238.8251038

endloop
endfacet
facet normal -0.51605165 0.7771477699 -0.360183388
outer loop
vertex 106.8090439 28.33191681 238.8251038
vertex 106.9821091 28.36368561 238.6456909
vertex 106.84832 28.27431488 238.6445465

endloop
endfacet
facet normal -0.5289472342 0.7684191465 -0.3602038622
outer loop
vertex 106.8090439 28.33191681 238.8251038
vertex 106.84832 28.27431488 238.6445465
vertex 106.6817245 28.24446869 238.8255157

endloop
endfacet
facet normal -0.5290342569 0.7683135271 -0.3603014052
outer loop
vertex 106.6817245 28.24446869 238.8255157
vertex 106.84832 28.27431488 238.6445465
vertex 106.720726 28.18662262 238.6448975

endloop
endfacet
facet normal -0.5231572986 0.772320509 -0.3603157103
outer loop
vertex 106.6817245 28.24446869 238.8255157
vertex 106.720726 28.18662262 238.6448975
vertex 106.5559616 28.15949249 238.8259735

endloop
endfacet
facet normal -0.5231581926 0.7723195553 -0.360316664
outer loop
vertex 106.5559616 28.15949249 238.8259735
vertex 106.720726 28.18662262 238.6448975
vertex 106.5943222 28.10121918 238.6453705

endloop
endfacet
facet normal -0.5133051276 0.7788818479 -0.3603621721
outer loop
vertex 106.5559311 28.15949249 238.8259888
vertex 106.5943222 28.10123444 238.6453857
vertex 106.4310226 28.07740021 238.8264771

endloop
endfacet
facet normal -0.5133143067 0.7788713574 -0.3603717983
outer loop
vertex 106.4310226 28.07740021 238.8264771
vertex 106.5943222 28.10123444 238.6453857
vertex 106.4685593 28.01856232 238.6458435

endloop
endfacet
facet normal -0.5008630157 0.7869203687 -0.3604061306
outer loop
vertex 106.4310226 28.07740021 238.8264771
vertex 106.4685593 28.01856232 238.6458435
vertex 106.3058701 27.99791718 238.8268585

endloop
endfacet
facet normal -0.5007810593 0.7870109677 -0.3603221476
outer loop
vertex 106.3058701 27.99791718 238.8268585
vertex 106.4685593 28.01856232 238.6458435
vertex 106.3424606 27.93849945 238.646225

endloop
endfacet
facet normal -0.4877864122 0.7950297594 -0.3605442941
outer loop
vertex 106.3058701 27.99794769 238.8268738
vertex 106.3424911 27.93849945 238.6462402
vertex 106.1795273 27.92063141 238.8273163

endloop
endfacet
facet normal -0.4874300063 0.7954106331 -0.360185951
outer loop
vertex 106.1795273 27.92063141 238.8273163
vertex 106.3424911 27.93849945 238.6462402
vertex 106.2151108 27.86063385 238.6466675

endloop
endfacet
facet normal -0.4766726792 0.8018888235 -0.3602185845
outer loop
vertex 106.1795273 27.92063141 238.8273163
vertex 106.2151108 27.86063385 238.6466675
vertex 106.0513535 27.84467316 238.8278351

endloop
endfacet
facet normal -0.4766020179 0.8019624949 -0.3601482511
outer loop
vertex 106.0513535 27.84467316 238.8278351
vertex 106.2151108 27.86063385 238.6466675
vertex 106.086113 27.78421783 238.6472168

endloop
endfacet
facet normal -0.4674523473 0.8073160648 -0.3601793051
outer loop
vertex 106.0513535 27.84467316 238.8278351
vertex 106.086113 27.78421783 238.6472168
vertex 105.9216232 27.76976776 238.8283081

endloop
endfacet
facet normal -0.4676120877 0.8071529865 -0.3603374064
outer loop
vertex 105.9216232 27.76976776 238.8283081
vertex 106.086113 27.78421783 238.6472168
vertex 105.9557419 27.70890045 238.6476898

endloop
endfacet
facet normal -0.4574430287 0.8129454851 -0.3603685498
outer loop
vertex 105.9216232 27.76976776 238.8283081
vertex 105.9557419 27.70890045 238.6476898
vertex 105.7911301 27.69649506 238.8286591

endloop
endfacet
facet normal -0.4574086368 0.8129797578 -0.360334903
outer loop
vertex 105.7911301 27.69649506 238.8286591
vertex 105.9557419 27.70890045 238.6476898
vertex 105.8245163 27.63523102 238.648056

endloop
endfacet
facet normal -0.4578595161 0.8127269745 -0.3603325188
outer loop
vertex 105.7911606 27.69651031 238.8286896
vertex 105.8245468 27.63524628 238.6480865
vertex 105.6531601 27.61708832 238.8249054

endloop
endfacet
facet normal -0.4556571245 0.8150084019 -0.3579635024
outer loop
vertex 105.6531601 27.61708832 238.8249054
vertex 105.8245468 27.63524628 238.6480865
vertex 105.6881027 27.55727386 238.6442413

endloop
endfacet
facet normal -0.4854748547 0.7976043224 -0.3579684198
outer loop
vertex 105.6531601 27.61708832 238.8249054
vertex 105.6881027 27.55727386 238.6442413
vertex 105.4901047 27.50891876 238.8050232

endloop
endfacet
facet normal -0.4785206616 0.8067523837 -0.3466533422
outer loop
vertex 105.4901047 27.50891876 238.8050232
vertex 105.6881027 27.55727386 238.6442413
vertex 105.5350571 27.4578476 238.624115

endloop
endfacet
facet normal -0.4830274284 0.8039236069 -0.3469746411
outer loop
vertex 105.4901047 27.50891876 238.8050232
vertex 105.5350571 27.4578476 238.624115
vertex 105.3382187 27.40839386 238.7835541

endloop
endfacet
facet normal -0.4787646234 0.8094334602 -0.3400028646
outer loop
vertex 105.3382187 27.40839386 238.7835541
vertex 105.5350571 27.4578476 238.624115
vertex 105.3886337 27.36275482 238.6039124

endloop
endfacet
facet normal -0.5746286511 0.7401296496 -0.3492993116
outer loop
vertex 105.3382187 27.40839386 238.7835541
vertex 105.3886337 27.36275482 238.6039124
vertex 105.2143478 27.30420685 238.766571

endloop
endfacet
facet normal -0.5754358768 0.738879621 -0.3506143093
outer loop
vertex 105.2143478 27.30420685 238.766571
vertex 105.3886337 27.36275482 238.6039124
vertex 105.263176 27.26270294 238.5989685

endloop
endfacet
facet normal -0.77365762 0.5246085525 -0.3553022146
outer loop
vertex 105.2143478 27.30420685 238.766571
vertex 105.263176 27.26270294 238.5989685
vertex 105.1367111 27.1813736 238.7542572

endloop
endfacet
facet normal -0.7758347988 0.5176502466 -0.3607195318
outer loop
vertex 105.1367111 27.1813736 238.7542572
vertex 105.263176 27.26270294 238.5989685
vertex 105.1787643 27.14846039 238.6165771

endloop
endfacet
facet normal -0.7995191813 0.4812753499 -0.3593647778
outer loop
vertex 105.1367111 27.18138885 238.7542572
vertex 105.1787643 27.14844513 238.6165771
vertex 105.0735092 27.05692291 238.7281799

endloop
endfacet
facet normal -0.8025895357 0.4602417052 -0.3795095682
outer loop
vertex 105.0735092 27.05692291 238.7281799
vertex 105.1787643 27.14844513 238.6165771
vertex 105.1082382 27.03018951 238.6223145

endloop
endfacet
facet normal -0.9473763704 -0.1785623729 -0.2656943202
outer loop
vertex 105.0735092 27.05692291 238.7281799
vertex 105.1082382 27.03018951 238.6223145
vertex 105.1175156 26.82196808 238.7291718

endloop
endfacet
facet normal -0.9962576032 0 0.08643330634
outer loop
vertex 105.1175156 26.82196808 238.7291718
vertex 105.1082382 27.03018951 238.6223145
vertex 105.1175156 26.82195282 238.7291718

endloop
endfacet
facet normal 0 -0.6397204995 -0.768607676
outer loop
vertex 107.4684067 28.29634857 238.8473511
vertex 107.4683762 28.29634857 238.8473511
vertex 107.3823166 28.45304108 238.7169342

endloop
endfacet
facet normal 0.9110253453 0.3907598257 -0.131680131
outer loop
vertex 107.3823166 28.45304108 238.7169342
vertex 107.4683762 28.29634857 238.8473511
vertex 107.4042892 28.37915802 238.649704

endloop
endfacet
facet normal 0.2343364805 0.6914860606 -0.6833252311
outer loop
vertex 107.3823166 28.45304108 238.7169342
vertex 107.4042892 28.37915802 238.649704
vertex 107.2714462 28.46552277 238.6915436

endloop
endfacet
facet normal 0.307456702 0.75408113 -0.5803723335
outer loop
vertex 107.2714462 28.46552277 238.6915436
vertex 107.4042892 28.37915802 238.649704
vertex 107.3120956 28.37924957 238.6009827

endloop
endfacet
facet normal 0.01466945652 0.7272415161 -0.6862247586
outer loop
vertex 107.2714462 28.46552277 238.6915436
vertex 107.3120956 28.37924957 238.6009827
vertex 107.1278 28.43724823 238.6585083

endloop
endfacet
facet normal 0.02976004221 0.7499735951 -0.6607978344
outer loop
vertex 107.1278 28.43724823 238.6585083
vertex 107.3120956 28.37924957 238.6009827
vertex 107.1883163 28.33779144 238.5483551

endloop
endfacet
facet normal -0.2602424622 0.6411936283 -0.7219035029
outer loop
vertex 107.1278 28.43724823 238.6585083
vertex 107.1883163 28.33779144 238.5483551
vertex 106.9821091 28.36368561 238.6456909

endloop
endfacet
facet normal -0.2583396733 0.6452630758 -0.7189549804
outer loop
vertex 106.9821091 28.36368561 238.6456909
vertex 107.1883163 28.33779144 238.5483551
vertex 107.0517197 28.26018524 238.5277863

endloop
endfacet
facet normal -0.3772740662 0.5740893483 -0.7266950011
outer loop
vertex 106.9821091 28.36368561 238.6456909
vertex 107.0517197 28.26018524 238.5277863
vertex 106.84832 28.27431488 238.6445465

endloop
endfacet
facet normal -0.3773595393 0.5738771558 -0.7268182039
outer loop
vertex 106.84832 28.27431488 238.6445465
vertex 107.0517197 28.26018524 238.5277863
vertex 106.9197006 28.1707077 238.5256805

endloop
endfacet
facet normal -0.390331775 0.5650313497 -0.7268979549
outer loop
vertex 106.84832 28.27431488 238.6445465
vertex 106.9197006 28.1707077 238.5256805
vertex 106.720726 28.18662262 238.6448975

endloop
endfacet
facet normal -0.3903807998 0.5649126768 -0.7269639373
outer loop
vertex 106.720726 28.18662262 238.6448975
vertex 106.9197006 28.1707077 238.5256805
vertex 106.7915878 28.0825882 238.526001

endloop
endfacet
facet normal -0.3862875998 0.5677095056 -0.7269716859
outer loop
vertex 106.720726 28.18662262 238.6448975
vertex 106.7915878 28.0825882 238.526001
vertex 106.5943222 28.10121918 238.6453705

endloop
endfacet
facet normal -0.3861724734 0.5679776669 -0.7268232703
outer loop
vertex 106.5943222 28.10121918 238.6453705
vertex 106.7915878 28.0825882 238.526001
vertex 106.6640549 27.99648285 238.526474

endloop
endfacet
facet normal -0.379118681 0.5727005601 -0.7268308997
outer loop
vertex 106.5943222 28.10123444 238.6453857
vertex 106.6640854 27.99648285 238.5264587
vertex 106.4685593 28.01856232 238.6458435

endloop
endfacet
facet normal -0.3790662289 0.5728169084 -0.7267665267
outer loop
vertex 106.4685593 28.01856232 238.6458435
vertex 106.6640854 27.99648285 238.5264587
vertex 106.5368271 27.91284943 238.5269165

endloop
endfacet
facet normal -0.3697324395 0.5788638592 -0.7267837524
outer loop
vertex 106.4685593 28.01856232 238.6458435
vertex 106.5368271 27.91284943 238.5269165
vertex 106.3424606 27.93849945 238.646225

endloop
endfacet
facet normal -0.3698120713 0.5786954761 -0.7268772721
outer loop
vertex 106.3424606 27.93849945 238.646225
vertex 106.5368271 27.91284943 238.5269165
vertex 106.408989 27.83167267 238.5273285

endloop
endfacet
facet normal -0.3599275351 0.5848169327 -0.7269396782
outer loop
vertex 106.3424911 27.93849945 238.6462402
vertex 106.4090195 27.83167267 238.527359
vertex 106.2151108 27.86063385 238.6466675

endloop
endfacet
facet normal -0.3599225581 0.5848270655 -0.7269340754
outer loop
vertex 106.2151108 27.86063385 238.6466675
vertex 106.4090195 27.83167267 238.527359
vertex 106.2798996 27.75273895 238.5277863

endloop
endfacet
facet normal -0.3522712886 0.5894431472 -0.7269536853
outer loop
vertex 106.2151108 27.86063385 238.6466675
vertex 106.2798996 27.75273895 238.5277863
vertex 106.086113 27.78421783 238.6472168

endloop
endfacet
facet normal -0.352186799 0.5896088481 -0.7268602848
outer loop
vertex 106.086113 27.78421783 238.6472168
vertex 106.2798996 27.75273895 238.5277863
vertex 106.1494675 27.67546844 238.5283051

endloop
endfacet
facet normal -0.3455201387 0.5935151577 -0.7268807888
outer loop
vertex 106.086113 27.78421783 238.6472168
vertex 106.1494675 27.67546844 238.5283051
vertex 105.9557419 27.70890045 238.6476898

endloop
endfacet
facet normal -0.3454813361 0.5935893655 -0.7268385887
outer loop
vertex 105.9557419 27.70890045 238.6476898
vertex 106.1494675 27.67546844 238.5283051
vertex 106.0179062 27.59949493 238.5287933

endloop
endfacet
facet normal -0.3377450705 0.5980039835 -0.7268559337
outer loop
vertex 105.9557419 27.70890045 238.6476898
vertex 106.0179062 27.59949493 238.5287933
vertex 105.8245163 27.63523102 238.648056

endloop
endfacet
facet normal -0.3379719257 0.5975821018 -0.7270973921
outer loop
vertex 105.8245163 27.63523102 238.648056
vertex 106.0179062 27.59949493 238.5287933
vertex 105.8853378 27.52500153 238.5291901

endloop
endfacet
facet normal -0.3251148164 0.6047719121 -0.7270152569
outer loop
vertex 105.8245468 27.63524628 238.6480865
vertex 105.8853683 27.52503204 238.5292053
vertex 105.6881027 27.55727386 238.6442413

endloop
endfacet
facet normal -0.3237036169 0.6075079441 -0.7253620625
outer loop
vertex 105.6881027 27.55727386 238.6442413
vertex 105.8853683 27.52503204 238.5292053
vertex 105.7494125 27.44776154 238.5251617

endloop
endfacet
facet normal -0.3056389987 0.61722368 -0.724996388
outer loop
vertex 105.6881027 27.55727386 238.6442413
vertex 105.7494125 27.44776154 238.5251617
vertex 105.5350571 27.4578476 238.624115

endloop
endfacet
facet normal -0.2997258902 0.6329800487 -0.7137932181
outer loop
vertex 105.5350571 27.4578476 238.624115
vertex 105.7494125 27.44776154 238.5251617
vertex 105.6043015 27.35494232 238.5037842

endloop
endfacet
facet normal -0.3090133965 0.6276267171 -0.7145596743
outer loop
vertex 105.5350571 27.4578476 238.624115
vertex 105.6043015 27.35494232 238.5037842
vertex 105.3886337 27.36275482 238.6039124

endloop
endfacet
facet normal -0.3056598008 0.6365978718 -0.7080362439
outer loop
vertex 105.3886337 27.36275482 238.6039124
vertex 105.6043015 27.35494232 238.5037842
vertex 105.4625473 27.26473236 238.4838715

endloop
endfacet
facet normal -0.4184679687 0.5600582957 -0.7149959803
outer loop
vertex 105.3886337 27.36275482 238.6039124
vertex 105.4625473 27.26473236 238.4838715
vertex 105.263176 27.26270294 238.5989685

endloop
endfacet
facet normal -0.4194543064 0.5570610166 -0.7167573571
outer loop
vertex 105.263176 27.26270294 238.5989685
vertex 105.4625473 27.26473236 238.4838715
vertex 105.3351974 27.1730423 238.4871368

endloop
endfacet
facet normal -0.6280740499 0.3575424254 -0.6911486387
outer loop
vertex 105.263176 27.26270294 238.5989685
vertex 105.3351974 27.1730423 238.4871368
vertex 105.1787643 27.14846039 238.6165771

endloop
endfacet
facet normal -0.630638063 0.3401914537 -0.6975424886
outer loop
vertex 105.1787643 27.14846039 238.6165771
vertex 105.3351974 27.1730423 238.4871368
vertex 105.2414169 27.07691193 238.5250397

endloop
endfacet
facet normal -0.6294616461 0.3415412307 -0.6979452372
outer loop
vertex 105.1787643 27.14844513 238.6165771
vertex 105.2414474 27.07691193 238.5250397
vertex 105.1082382 27.03018951 238.6223145

endloop
endfacet
facet normal -0.6286315322 0.289411217 -0.7218472958
outer loop
vertex 105.1082382 27.03018951 238.6223145
vertex 105.2414474 27.07691193 238.5250397
vertex 105.1601181 26.97351837 238.5544128

endloop
endfacet
facet normal -0.8598869443 -0.262866497 -0.4376021326
outer loop
vertex 105.1082382 27.03018951 238.6223145
vertex 105.1601181 26.97351837 238.5544128
vertex 105.1175156 26.82195282 238.7291718

endloop
endfacet
facet normal -nan(ind) -nan(ind) -nan(ind)
outer loop
vertex 105.1175156 26.82195282 238.7291718
vertex 105.1601181 26.97351837 238.5544128
vertex 105.1175156 26.82195282 238.7291718

endloop
endfacet
facet normal -0.3211337328 0.8318170905 0.4527178705
outer loop
vertex 107.4683762 28.29633331 238.8473511
vertex 107.4684372 28.29634857 238.8473663
vertex 107.4042587 28.37915802 238.6496887

endloop
endfacet
facet normal 0.9327227473 0.318279624 -0.1694888622
outer loop
vertex 107.4042587 28.37915802 238.6496887
vertex 107.4684372 28.29634857 238.8473663
vertex 107.4344406 28.27922821 238.6281281

endloop
endfacet
facet normal 0.4436500669 0.3150191903 -0.839009881
outer loop
vertex 107.4042587 28.37915802 238.6496887
vertex 107.4344406 28.27922821 238.6281281
vertex 107.3120651 28.37923431 238.6009674

endloop
endfacet
facet normal 0.5261713862 0.4474714994 -0.7231271863
outer loop
vertex 107.3120651 28.37923431 238.6009674
vertex 107.4344406 28.27922821 238.6281281
vertex 107.3684921 28.26026154 238.5684052

endloop
endfacet
facet normal 0.2572930753 0.3667253256 -0.8940429091
outer loop
vertex 107.3120651 28.37923431 238.6009674
vertex 107.3684921 28.26026154 238.5684052
vertex 107.1882858 28.33777618 238.5483398

endloop
endfacet
facet normal 0.2766559124 0.4193507731 -0.8646423817
outer loop
vertex 107.1882858 28.33777618 238.5483398
vertex 107.3684921 28.26026154 238.5684052
vertex 107.2721786 28.20063019 238.508667

endloop
endfacet
facet normal -0.00983049348 0.2723145187 -0.9621580839
outer loop
vertex 107.1882858 28.33777618 238.5483398
vertex 107.2721786 28.20063019 238.508667
vertex 107.0516891 28.26016998 238.527771

endloop
endfacet
facet normal -0.007294645533 0.2809179425 -0.9597040415
outer loop
vertex 107.0516891 28.26016998 238.527771
vertex 107.2721786 28.20063019 238.508667
vertex 107.1482162 28.11739349 238.4852448

endloop
endfacet
facet normal -0.1238383874 0.2054323703 -0.9708046317
outer loop
vertex 107.0516891 28.26016998 238.527771
vertex 107.1482162 28.11739349 238.4852448
vertex 106.9196701 28.1707077 238.5256805

endloop
endfacet
facet normal -0.1237490922 0.205769673 -0.9707446098
outer loop
vertex 106.9196701 28.1707077 238.5256805
vertex 107.1482162 28.11739349 238.4852448
vertex 107.0185776 28.02783966 238.4827881

endloop
endfacet
facet normal -0.1374579519 0.1963132173 -0.9708585739
outer loop
vertex 106.9196701 28.1707077 238.5256805
vertex 107.0185776 28.02783966 238.4827881
vertex 106.7915573 28.0825882 238.526001

endloop
endfacet
facet normal -0.1375728101 0.1958914548 -0.9709275365
outer loop
vertex 106.7915573 28.0825882 238.526001
vertex 107.0185776 28.02783966 238.4827881
vertex 106.8896713 27.93912506 238.4831543

endloop
endfacet
facet normal -0.1364235133 0.1966783702 -0.9709306359
outer loop
vertex 106.7915573 28.0825882 238.526001
vertex 106.8896713 27.93912506 238.4831543
vertex 106.6640549 27.99648285 238.526474

endloop
endfacet
facet normal -0.1362689883 0.1972196847 -0.9708425403
outer loop
vertex 106.6640549 27.99648285 238.526474
vertex 106.8896713 27.93912506 238.4831543
vertex 106.760704 27.85204315 238.4835663

endloop
endfacet
facet normal -0.1340714246 0.1986918747 -0.9708483219
outer loop
vertex 106.6640549 27.99648285 238.5264587
vertex 106.760704 27.85204315 238.483551
vertex 106.5367966 27.91284943 238.5269165

endloop
endfacet
facet normal -0.1340682954 0.1987020969 -0.9708465934
outer loop
vertex 106.5367966 27.91284943 238.5269165
vertex 106.760704 27.85204315 238.483551
vertex 106.6314011 27.76703644 238.4840088

endloop
endfacet
facet normal -0.1307173669 0.2008788586 -0.9708556533
outer loop
vertex 106.5367966 27.91284943 238.5269165
vertex 106.6314011 27.76703644 238.4840088
vertex 106.408989 27.83167267 238.5273285

endloop
endfacet
facet normal -0.1307838559 0.2006726414 -0.9708893299
outer loop
vertex 106.408989 27.83167267 238.5273285
vertex 106.6314011 27.76703644 238.4840088
vertex 106.501152 27.68436432 238.4844666

endloop
endfacet
facet normal -0.1273117065 0.2029623538 -0.970874846
outer loop
vertex 106.4090195 27.83167267 238.527359
vertex 106.5011826 27.68437958 238.4844818
vertex 106.2798996 27.75272369 238.5277863

endloop
endfacet
facet normal -0.1272578537 0.2031202763 -0.9708488584
outer loop
vertex 106.2798996 27.75272369 238.5277863
vertex 106.5011826 27.68437958 238.4844818
vertex 106.3697128 27.60398102 238.4848938

endloop
endfacet
facet normal -0.1248968989 0.2045478374 -0.9708557725
outer loop
vertex 106.2798996 27.75272369 238.5277863
vertex 106.3697128 27.60398102 238.4848938
vertex 106.149437 27.67545319 238.5282898

endloop
endfacet
facet normal -0.1248329878 0.2047269046 -0.9708262682
outer loop
vertex 106.149437 27.67545319 238.5282898
vertex 106.3697128 27.60398102 238.4848938
vertex 106.2373581 27.52552032 238.4853668

endloop
endfacet
facet normal -0.1226282269 0.2060218304 -0.9708333611
outer loop
vertex 106.149437 27.67545319 238.5282898
vertex 106.2373581 27.52552032 238.4853668
vertex 106.0179062 27.59946442 238.5287781

endloop
endfacet
facet normal -0.122658059 0.2059410959 -0.970846653
outer loop
vertex 106.0179062 27.59946442 238.5287781
vertex 106.2373581 27.52552032 238.4853668
vertex 106.1041489 27.44855499 238.4858704

endloop
endfacet
facet normal -0.1196548566 0.2076598257 -0.9708553553
outer loop
vertex 106.0179062 27.59946442 238.5287781
vertex 106.1041489 27.44855499 238.4858704
vertex 105.8853073 27.52498627 238.5291901

endloop
endfacet
facet normal -0.1197719574 0.2073535174 -0.9709063768
outer loop
vertex 105.8853073 27.52498627 238.5291901
vertex 106.1041489 27.44855499 238.4858704
vertex 105.9695969 27.37297821 238.4863281

endloop
endfacet
facet normal -0.0962876901 0.2202553749 -0.9706782699
outer loop
vertex 105.8853378 27.52500153 238.5291901
vertex 105.9695969 27.37300873 238.4863434
vertex 105.749382 27.44774628 238.5251465

endloop
endfacet
facet normal -0.0950813219 0.2234879732 -0.9700580835
outer loop
vertex 105.749382 27.44774628 238.5251465
vertex 105.9695969 27.37300873 238.4863434
vertex 105.8330002 27.29555511 238.4818878

endloop
endfacet
facet normal -0.02461147681 0.2607915401 -0.9650813937
outer loop
vertex 105.749382 27.44774628 238.5251465
vertex 105.8330002 27.29555511 238.4818878
vertex 105.6042709 27.35494232 238.5037689

endloop
endfacet
facet normal -0.01831553318 0.2828010023 -0.9590037465
outer loop
vertex 105.6042709 27.35494232 238.5037689
vertex 105.8330002 27.29555511 238.4818878
vertex 105.6931992 27.20650482 238.4582977

endloop
endfacet
facet normal -0.03794259951 0.2718363702 -0.9615951777
outer loop
vertex 105.6042709 27.35494232 238.5037689
vertex 105.6931992 27.20650482 238.4582977
vertex 105.4625168 27.2647171 238.4838562

endloop
endfacet
facet normal -0.03437055275 0.2844462991 -0.9580757022
outer loop
vertex 105.4625168 27.2647171 238.4838562
vertex 105.6931992 27.20650482 238.4582977
vertex 105.5547409 27.12018585 238.4376373

endloop
endfacet
facet normal -0.1691858321 0.2006200552 -0.9649496078
outer loop
vertex 105.4625168 27.2647171 238.4838562
vertex 105.5547409 27.12018585 238.4376373
vertex 105.3351669 27.17302704 238.4871216

endloop
endfacet
facet normal -0.1706167758 0.1954343617 -0.9657614827
outer loop
vertex 105.3351669 27.17302704 238.4871216
vertex 105.5547409 27.12018585 238.4376373
vertex 105.4252243 27.04051971 238.444397

endloop
endfacet
facet normal -0.3972257674 0.02581474558 -0.9173578024
outer loop
vertex 105.3351669 27.17302704 238.4871216
vertex 105.4252243 27.04051971 238.444397
vertex 105.2413864 27.07689667 238.5250244

endloop
endfacet
facet normal -0.4017655253 -0.0007082132506 -0.9157423377
outer loop
vertex 105.2413864 27.07689667 238.5250244
vertex 105.4252243 27.04051971 238.444397
vertex 105.3202438 26.97100067 238.490509

endloop
endfacet
facet normal -0.3700209558 0.02713062055 -0.928627193
outer loop
vertex 105.2414169 27.07691193 238.5250244
vertex 105.3202744 26.97101593 238.490509
vertex 105.1601181 26.97350311 238.5543976

endloop
endfacet
facet normal -0.3707607388 -0.03269993141 -0.9281525612
outer loop
vertex 105.1601181 26.97350311 238.5543976
vertex 105.3202744 26.97101593 238.490509
vertex 105.2246628 26.89133453 238.5315094

endloop
endfacet
facet normal -0.7275342345 -0.4204823971 -0.5421147346
outer loop
vertex 105.1601181 26.97350311 238.5543976
vertex 105.2246628 26.89133453 238.5315094
vertex 105.117485 26.82193756 238.7291718

endloop
endfacet
facet normal 0.4460734725 -0.892146945 -0.07136072963
outer loop
vertex 105.117485 26.82193756 238.7291718
vertex 105.2246628 26.89133453 238.5315094
vertex 105.1175156 26.82195282 238.7291718

endloop
endfacet
facet normal -0.45010221 0.8929771185 0
outer loop
vertex 107.4684067 28.29634857 238.8473816
vertex 107.4684067 28.29634857 238.8473663
vertex 107.4344711 28.27924347 238.6281433

endloop
endfacet
facet normal 0.9623506665 0.2154037505 -0.1657782048
outer loop
vertex 107.4344711 28.27924347 238.6281433
vertex 107.4684067 28.29634857 238.8473663
vertex 107.4850998 28.11408234 238.7074432

endloop
endfacet
facet normal 0.6860585213 -0.1331195533 -0.7152642012
outer loop
vertex 107.4344711 28.27924347 238.6281433
vertex 107.4850998 28.11408234 238.7074432
vertex 107.3685226 28.26026154 238.5684204

endloop
endfacet
facet normal 0.8122881055 0.1015686169 -0.574344635
outer loop
vertex 107.3685226 28.26026154 238.5684204
vertex 107.4850998 28.11408234 238.7074432
vertex 107.4674606 28.05272675 238.6716461

endloop
endfacet
facet normal 0.5779877305 -0.1255187839 -0.8063344955
outer loop
vertex 107.3685226 28.26026154 238.5684204
vertex 107.4674606 28.05272675 238.6716461
vertex 107.2722092 28.20061493 238.508667

endloop
endfacet
facet normal 0.6334677339 -0.01619530842 -0.7735996246
outer loop
vertex 107.2722092 28.20061493 238.508667
vertex 107.4674606 28.05272675 238.6716461
vertex 107.4192429 27.96118927 238.634079

endloop
endfacet
facet normal 0.3450307846 -0.2604440153 -0.90173316
outer loop
vertex 107.2722092 28.20061493 238.508667
vertex 107.4192429 27.96118927 238.634079
vertex 107.1482162 28.11739349 238.48526

endloop
endfacet
facet normal 0.3540452123 -0.2454747856 -0.9024378657
outer loop
vertex 107.1482162 28.11739349 238.48526
vertex 107.4192429 27.96118927 238.634079
vertex 107.3173447 27.86818695 238.6194

endloop
endfacet
facet normal 0.2429994941 -0.3267122209 -0.9133511782
outer loop
vertex 107.1482162 28.11739349 238.48526
vertex 107.3173447 27.86818695 238.6194
vertex 107.0185776 28.02783966 238.4828033

endloop
endfacet
facet normal 0.2432579845 -0.3262966573 -0.9134309292
outer loop
vertex 107.0185776 28.02783966 238.4828033
vertex 107.3173447 27.86818695 238.6194
vertex 107.1917038 27.77845001 238.6179962

endloop
endfacet
facet normal 0.2289794683 -0.3362523615 -0.913511157
outer loop
vertex 107.0185776 28.02783966 238.4828033
vertex 107.1917038 27.77845001 238.6179962
vertex 106.8897018 27.93912506 238.4831543

endloop
endfacet
facet normal 0.2287555039 -0.3366098702 -0.913435638
outer loop
vertex 106.8897018 27.93912506 238.4831543
vertex 107.1917038 27.77845001 238.6179962
vertex 107.0614853 27.68871307 238.618454

endloop
endfacet
facet normal 0.2256809622 -0.3387123346 -0.9134231806
outer loop
vertex 106.8897018 27.93912506 238.4831543
vertex 107.0614853 27.68871307 238.618454
vertex 106.7607346 27.85204315 238.4835815

endloop
endfacet
facet normal 0.2257203162 -0.3386506736 -0.9134363532
outer loop
vertex 106.7607346 27.85204315 238.4835815
vertex 107.0614853 27.68871307 238.618454
vertex 106.9300461 27.5999527 238.6188812

endloop
endfacet
facet normal 0.2213519067 -0.3416151106 -0.9134016037
outer loop
vertex 106.7607346 27.85204315 238.4835663
vertex 106.9300766 27.59996796 238.6188812
vertex 106.6314316 27.76703644 238.484024

endloop
endfacet
facet normal 0.2212879211 -0.3417125046 -0.9133806229
outer loop
vertex 106.6314316 27.76703644 238.484024
vertex 106.9300766 27.59996796 238.6188812
vertex 106.7971725 27.51259613 238.6193695

endloop
endfacet
facet normal 0.215948686 -0.3451772332 -0.9133557677
outer loop
vertex 106.6314316 27.76703644 238.484024
vertex 106.7971725 27.51259613 238.6193695
vertex 106.5011826 27.68437958 238.4844666

endloop
endfacet
facet normal 0.2161809951 -0.3448352814 -0.9134300351
outer loop
vertex 106.5011826 27.68437958 238.4844666
vertex 106.7971725 27.51259613 238.6193695
vertex 106.6627731 27.42720795 238.6197968

endloop
endfacet
facet normal 0.2103252113 -0.3485434055 -0.9133896828
outer loop
vertex 106.5011826 27.68439484 238.4844818
vertex 106.6628036 27.42723846 238.6198273
vertex 106.3697128 27.60398102 238.4848938

endloop
endfacet
facet normal 0.2104995996 -0.3482957184 -0.9134440422
outer loop
vertex 106.3697128 27.60398102 238.4848938
vertex 106.6628036 27.42723846 238.6198273
vertex 106.5272141 27.34429169 238.6202087

endloop
endfacet
facet normal 0.2050533593 -0.3515873253 -0.9134218693
outer loop
vertex 106.3697128 27.60398102 238.4848938
vertex 106.5272141 27.34429169 238.6202087
vertex 106.2373581 27.52552032 238.4853821

endloop
endfacet
facet normal 0.2051524967 -0.3514511585 -0.9134520292
outer loop
vertex 106.2373581 27.52552032 238.4853821
vertex 106.5272141 27.34429169 238.6202087
vertex 106.3914413 27.26384735 238.6206665

endloop
endfacet
facet normal 0.2009812146 -0.3538983464 -0.9134345055
outer loop
vertex 106.2373581 27.52552032 238.4853821
vertex 106.3914413 27.26384735 238.6206665
vertex 106.1041489 27.44857025 238.4858856

endloop
endfacet
facet normal 0.2010281086 -0.3538355231 -0.9134485126
outer loop
vertex 106.1041489 27.44857025 238.4858856
vertex 106.3914413 27.26384735 238.6206665
vertex 106.2553329 27.18521881 238.62117

endloop
endfacet
facet normal 0.1969491392 -0.3561680019 -0.9134305716
outer loop
vertex 106.1041489 27.44857025 238.4858856
vertex 106.2553329 27.18521881 238.62117
vertex 105.9695969 27.37299347 238.4863434

endloop
endfacet
facet normal 0.1968940198 -0.3562401831 -0.9134142995
outer loop
vertex 105.9695969 27.37299347 238.4863434
vertex 106.2553329 27.18521881 238.62117
vertex 106.117363 27.10774994 238.6216431

endloop
endfacet
facet normal 0.223370865 -0.3413216174 -0.9130197167
outer loop
vertex 105.9696274 27.37302399 238.4863586
vertex 106.1173935 27.1077652 238.6216736
vertex 105.8330002 27.29557037 238.4818878

endloop
endfacet
facet normal 0.2269646376 -0.336540699 -0.9139077663
outer loop
vertex 105.8330002 27.29557037 238.4818878
vertex 106.1173935 27.1077652 238.6216736
vertex 105.9773178 27.02800751 238.6162567

endloop
endfacet
facet normal 0.3284631073 -0.2764015496 -0.9031689167
outer loop
vertex 105.8330002 27.29557037 238.4818878
vertex 105.9773178 27.02800751 238.6162567
vertex 105.6931992 27.20652008 238.4582977

endloop
endfacet
facet normal 0.3449706137 -0.2511964142 -0.9043758512
outer loop
vertex 105.6931992 27.20652008 238.4582977
vertex 105.9773178 27.02800751 238.6162567
vertex 105.8365097 26.93621063 238.5880432

endloop
endfacet
facet normal 0.3071467578 -0.2745276988 -0.9112055302
outer loop
vertex 105.6931992 27.20652008 238.4582977
vertex 105.8365097 26.93621063 238.5880432
vertex 105.5547409 27.12018585 238.4376373

endloop
endfacet
facet normal 0.3175903559 -0.2592611611 -0.9120965004
outer loop
vertex 105.5547409 27.12018585 238.4376373
vertex 105.8365097 26.93621063 238.5880432
vertex 105.6986008 26.85166168 238.5640564

endloop
endfacet
facet normal 0.1648899913 -0.3464249074 -0.9234722853
outer loop
vertex 105.5547409 27.12018585 238.4376373
vertex 105.6986008 26.85166168 238.5640564
vertex 105.4252243 27.04051971 238.444397

endloop
endfacet
facet normal 0.1591967642 -0.3535797596 -0.9217579961
outer loop
vertex 105.4252243 27.04051971 238.444397
vertex 105.6986008 26.85166168 238.5640564
vertex 105.5663376 26.79386139 238.563385

endloop
endfacet
facet normal -0.07647319138 -0.468367666 -0.8802179098
outer loop
vertex 105.4252243 27.04051971 238.444397
vertex 105.5663376 26.79386139 238.563385
vertex 105.3202438 26.97100067 238.490509

endloop
endfacet
facet normal -0.1020313725 -0.496409297 -0.8620715737
outer loop
vertex 105.3202438 26.97100067 238.490509
vertex 105.5663376 26.79386139 238.563385
vertex 105.4445419 26.77358246 238.5894775

endloop
endfacet
facet normal -0.006354784127 -0.4512836337 -0.892358005
outer loop
vertex 105.3202744 26.97101593 238.4905243
vertex 105.4445724 26.77359772 238.5894775
vertex 105.2246628 26.89131927 238.5315094

endloop
endfacet
facet normal -0.02594351582 -0.4802024662 -0.8767738938
outer loop
vertex 105.2246628 26.89131927 238.5315094
vertex 105.4445724 26.77359772 238.5894775
vertex 105.3221664 26.74636078 238.608017

endloop
endfacet
facet normal -0.5507894754 -0.6480734348 -0.525957942
outer loop
vertex 105.2246628 26.89131927 238.5315094
vertex 105.3221664 26.74636078 238.608017
vertex 105.1175156 26.82195282 238.729187

endloop
endfacet
facet normal 0.3464574218 0.9380657077 0
outer loop
vertex 105.1175156 26.82195282 238.729187
vertex 105.3221664 26.74636078 238.608017
vertex 105.1175156 26.82195282 238.7291718

endloop
endfacet
endsolid
