solid 
facet normal -nan(ind) -nan(ind) -nan(ind)
outer loop
vertex 80.18251801 45.49367523 285.2430725
vertex 80.18251801 45.49367523 285.2430725
vertex 79.98635101 44.9728775 284.8676453

endloop
endfacet
facet normal 0.5547102094 -0.6138438582 0.5616869926
outer loop
vertex 79.98635101 44.9728775 284.8676453
vertex 80.18251801 45.49367523 285.2430725
vertex 79.67604828 45.09145355 285.3036804

endloop
endfacet
facet normal -0.119340077 -0.9762957096 0.1805674136
outer loop
vertex 79.98635101 44.9728775 284.8676453
vertex 79.67604828 45.09145355 285.3036804
vertex 79.56581879 44.96945953 284.571228

endloop
endfacet
facet normal -0.1551154107 -0.9704245925 0.1849735379
outer loop
vertex 79.56581879 44.96945953 284.571228
vertex 79.67604828 45.09145355 285.3036804
vertex 79.18032074 45.11882782 285.0315857

endloop
endfacet
facet normal -0.1898367405 -0.9694122076 0.1555697918
outer loop
vertex 79.56581879 44.96945953 284.571228
vertex 79.18032074 45.11882782 285.0315857
vertex 79.13796234 44.9966507 284.2185669

endloop
endfacet
facet normal -0.1933662742 -0.9687019587 0.15564695
outer loop
vertex 79.13796234 44.9966507 284.2185669
vertex 79.18032074 45.11882782 285.0315857
vertex 78.72423553 45.15248871 284.674469

endloop
endfacet
facet normal -0.2359974533 -0.9648482203 0.1156422943
outer loop
vertex 79.13796234 44.9966507 284.2185669
vertex 78.72423553 45.15248871 284.674469
vertex 78.71553802 45.05265045 283.8237305

endloop
endfacet
facet normal -0.2369237393 -0.9646232128 0.1156253517
outer loop
vertex 78.71553802 45.05265045 283.8237305
vertex 78.72423553 45.15248871 284.674469
vertex 78.30596161 45.2085495 284.2850952

endloop
endfacet
facet normal -0.2509092093 -0.9625669718 0.1025149226
outer loop
vertex 78.71553802 45.05265045 283.8237305
vertex 78.30596161 45.2085495 284.2850952
vertex 78.27953339 45.12323761 283.4193726

endloop
endfacet
facet normal -0.2520619333 -0.9622651935 0.1025203764
outer loop
vertex 78.27953339 45.12323761 283.4193726
vertex 78.30596161 45.2085495 284.2850952
vertex 77.87496185 45.278862 283.885376

endloop
endfacet
facet normal -0.2602300942 -0.9608655572 0.09496158361
outer loop
vertex 78.27953339 45.12323761 283.4193726
vertex 77.87496185 45.278862 283.885376
vertex 77.84243011 45.20215607 283.0200806

endloop
endfacet
facet normal -0.2617758214 -0.9604435563 0.09498228878
outer loop
vertex 77.84243011 45.20215607 283.0200806
vertex 77.87496185 45.278862 283.885376
vertex 77.44338226 45.35747528 283.4908447

endloop
endfacet
facet normal -0.2733768523 -0.9581965804 0.0844072178
outer loop
vertex 77.84243011 45.20215607 283.0200806
vertex 77.44338226 45.35747528 283.4908447
vertex 77.39943695 45.2937088 282.6246338

endloop
endfacet
facet normal -0.2758348882 -0.9574854374 0.08447957039
outer loop
vertex 77.39943695 45.2937088 282.6246338
vertex 77.44338226 45.35747528 283.4908447
vertex 77.00835419 45.44850922 283.1022034

endloop
endfacet
facet normal -0.2842277288 -0.9556589723 0.07700968534
outer loop
vertex 77.39943695 45.2937088 282.6246338
vertex 77.00835419 45.44850922 283.1022339
vertex 76.95384979 45.39499664 282.2369995

endloop
endfacet
facet normal -0.2872986495 -0.954729259 0.07714563608
outer loop
vertex 76.95384979 45.39499664 282.2369995
vertex 77.00835419 45.44850922 283.1022339
vertex 76.57076263 45.54940033 282.7211914

endloop
endfacet
facet normal -0.2937687039 -0.9531958103 0.07153758407
outer loop
vertex 76.95384979 45.39499664 282.2369995
vertex 76.57076263 45.54940033 282.7211914
vertex 76.5033493 45.50525665 281.8561707

endloop
endfacet
facet normal -0.2973707616 -0.9520614743 0.07176041603
outer loop
vertex 76.5033493 45.50525665 281.8561707
vertex 76.57076263 45.54940033 282.7211914
vertex 76.12883759 45.65924835 282.3472595

endloop
endfacet
facet normal -0.3029061854 -0.9506537914 0.06712057441
outer loop
vertex 76.5033493 45.50527191 281.8562012
vertex 76.1288681 45.65926361 282.3472595
vertex 76.04845428 45.62384796 281.4827576

endloop
endfacet
facet normal -0.3067440391 -0.949400723 0.06742622703
outer loop
vertex 76.04845428 45.62384796 281.4827576
vertex 76.1288681 45.65926361 282.3472595
vertex 75.68248749 45.77742767 281.9803467

endloop
endfacet
facet normal -0.3123532534 -0.9478857517 0.06283317506
outer loop
vertex 76.04845428 45.62384796 281.4827576
vertex 75.68248749 45.77742767 281.9803467
vertex 75.5906601 45.75045013 281.1168823

endloop
endfacet
facet normal -0.3161396086 -0.9466055036 0.06319584697
outer loop
vertex 75.5906601 45.75045013 281.1168823
vertex 75.68248749 45.77742767 281.9803467
vertex 75.23296356 45.90354156 281.620636

endloop
endfacet
facet normal -0.3262083232 -0.9436872005 0.05515956134
outer loop
vertex 75.5906601 45.75045013 281.1168823
vertex 75.23296356 45.90354156 281.620636
vertex 75.13161469 45.88820648 280.7589111

endloop
endfacet
facet normal -0.3298306167 -0.9424036741 0.05556274951
outer loop
vertex 75.13161469 45.88820648 280.7589111
vertex 75.23296356 45.90354156 281.620636
vertex 74.78240204 46.0404892 281.2687988

endloop
endfacet
facet normal -0.3462093174 -0.9371811748 0.04278550297
outer loop
vertex 75.13161469 45.88820648 280.7589111
vertex 74.78240204 46.0404892 281.2687988
vertex 74.67412567 46.04128265 280.4100342

endloop
endfacet
facet normal -0.3498011529 -0.9358255863 0.04323962331
outer loop
vertex 74.67412567 46.04128265 280.4100342
vertex 74.78240204 46.0404892 281.2687988
vertex 74.33364105 46.19239044 280.9259644

endloop
endfacet
facet normal -0.3690876365 -0.9289582372 0.02847676724
outer loop
vertex 74.67415619 46.04129791 280.4100342
vertex 74.33364105 46.1924057 280.9259949
vertex 74.21901703 46.21167755 280.0690308

endloop
endfacet
facet normal -0.3725036383 -0.9275786281 0.02896469831
outer loop
vertex 74.21901703 46.21167755 280.0690308
vertex 74.33364105 46.1924057 280.9259949
vertex 73.88729095 46.36119843 280.591156

endloop
endfacet
facet normal -0.3997735381 -0.9165745974 0.008487860672
outer loop
vertex 74.21901703 46.21167755 280.0690308
vertex 73.88729095 46.36119843 280.591156
vertex 73.76573944 46.40628815 279.7352295

endloop
endfacet
facet normal -0.4030288756 -0.9151427746 0.009025582112
outer loop
vertex 73.76573944 46.40628815 279.7352295
vertex 73.88729095 46.36119843 280.591156
vertex 73.44231415 46.55393219 280.2632446

endloop
endfacet
facet normal -0.4210989177 -0.907004416 -0.004318537656
outer loop
vertex 73.76573944 46.40628815 279.7352295
vertex 73.44231415 46.55393219 280.2632446
vertex 73.31920624 46.61515045 279.4100342

endloop
endfacet
facet normal -0.4236245155 -0.9058296084 -0.003869838547
outer loop
vertex 73.31920624 46.61515045 279.4100342
vertex 73.44231415 46.55393219 280.2632446
vertex 73.00261688 46.76093292 279.9425964

endloop
endfacet
facet normal -0.4539093077 -0.8906678557 -0.02602340281
outer loop
vertex 73.31920624 46.61515045 279.4100342
vertex 73.00261688 46.76093292 279.9425964
vertex 72.89461517 46.84038544 279.1070862

endloop
endfacet
facet normal -0.4581690133 -0.8885058761 -0.02526718564
outer loop
vertex 72.89461517 46.84038544 279.1070862
vertex 73.00261688 46.76093292 279.9425964
vertex 72.58901215 46.98265839 279.6456299

endloop
endfacet
facet normal -0.5068414211 -0.8599179983 -0.06043927744
outer loop
vertex 72.89461517 46.84038544 279.1070862
vertex 72.58901215 46.98265839 279.6456299
vertex 72.51805878 47.08063507 278.8466492

endloop
endfacet
facet normal -0.5100102425 -0.8580779433 -0.059932217
outer loop
vertex 72.51805878 47.08063507 278.8466492
vertex 72.58901215 46.98265839 279.6456299
vertex 72.22637177 47.21689606 279.3779297

endloop
endfacet
facet normal -0.4862582386 -0.8727477193 -0.04317943752
outer loop
vertex 72.51808929 47.08065033 278.8466492
vertex 72.22640228 47.2168808 279.3779297
vertex 72.19249725 47.27419281 278.6013489

endloop
endfacet
facet normal -0.4451734126 -0.8942331076 -0.04655881971
outer loop
vertex 72.19249725 47.27419281 278.6013489
vertex 72.22640228 47.2168808 279.3779297
vertex 71.91066742 47.38874054 279.0960083

endloop
endfacet
facet normal -0.8668495417 0.01871972717 -0.4982182682
outer loop
vertex 72.19249725 47.27419281 278.6013489
vertex 71.91066742 47.38874054 279.0960083
vertex 72.10729218 47.89894867 278.7730713

endloop
endfacet
facet normal -nan(ind) -nan(ind) -nan(ind)
outer loop
vertex 72.10729218 47.89894867 278.7730713
vertex 71.91066742 47.38874054 279.0960083
vertex 72.10729218 47.89894867 278.7730713

endloop
endfacet
facet normal -0.118819654 0 -0.9929159284
outer loop
vertex 80.18251801 45.49367523 285.2430725
vertex 80.18251801 45.49365997 285.2430725
vertex 79.67604828 45.09145355 285.3036804

endloop
endfacet
facet normal 0.4313968122 -0.4231642485 0.7967615128
outer loop
vertex 79.67604828 45.09145355 285.3036804
vertex 80.18251801 45.49365997 285.2430725
vertex 79.57320404 45.32309723 285.4823914

endloop
endfacet
facet normal -0.3873255253 -0.6647800207 0.6387851238
outer loop
vertex 79.67604828 45.09145355 285.3036804
vertex 79.57320404 45.32309723 285.4823914
vertex 79.18032074 45.11882782 285.0315857

endloop
endfacet
facet normal -0.4149941504 -0.6365203261 0.6500936151
outer loop
vertex 79.18032074 45.11882782 285.0315857
vertex 79.57320404 45.32309723 285.4823914
vertex 79.05251312 45.38564301 285.2112427

endloop
endfacet
facet normal -0.504611671 -0.6353294849 0.5845713019
outer loop
vertex 79.18032074 45.11882782 285.0315857
vertex 79.05251312 45.38564301 285.2112427
vertex 78.72423553 45.15248871 284.674469

endloop
endfacet
facet normal -0.5058125854 -0.6341634989 0.5847992897
outer loop
vertex 78.72423553 45.15248871 284.674469
vertex 79.05251312 45.38564301 285.2112427
vertex 78.58663177 45.42670441 284.8528137

endloop
endfacet
facet normal -0.5731357932 -0.6291174293 0.5250967741
outer loop
vertex 78.72423553 45.15248871 284.674469
vertex 78.58663177 45.42670441 284.8528137
vertex 78.30596161 45.2085495 284.2850952

endloop
endfacet
facet normal -0.5736533403 -0.628598392 0.5251532197
outer loop
vertex 78.30596161 45.2085495 284.2850952
vertex 78.58663177 45.42670441 284.8528137
vertex 78.17375946 45.48270416 284.4688416

endloop
endfacet
facet normal -0.5820819736 -0.6273819804 0.5172740221
outer loop
vertex 78.30596161 45.2085495 284.2850952
vertex 78.17375946 45.48270416 284.4688416
vertex 77.87496185 45.278862 283.885376

endloop
endfacet
facet normal -0.5827471018 -0.6266843081 0.5173709393
outer loop
vertex 77.87496185 45.278862 283.885376
vertex 78.17375946 45.48270416 284.4688416
vertex 77.74748993 45.55254364 284.0733032

endloop
endfacet
facet normal -0.5850718617 -0.6262900829 0.5152199268
outer loop
vertex 77.87496185 45.278862 283.885376
vertex 77.74748993 45.55254364 284.0733032
vertex 77.44338226 45.35747528 283.4908447

endloop
endfacet
facet normal -0.5859612226 -0.6253381968 0.5153654814
outer loop
vertex 77.44338226 45.35747528 283.4908447
vertex 77.74748993 45.55254364 284.0733032
vertex 77.32057953 45.63059235 283.6826172

endloop
endfacet
facet normal -0.588825047 -0.6247933507 0.5127556324
outer loop
vertex 77.44338226 45.35747528 283.4908447
vertex 77.32057953 45.63059235 283.6826172
vertex 77.00835419 45.44850922 283.1022034

endloop
endfacet
facet normal -0.5901744366 -0.6233056784 0.5130147934
outer loop
vertex 77.00835419 45.44850922 283.1022034
vertex 77.32057953 45.63059235 283.6826172
vertex 76.89211273 45.72075653 283.2992554

endloop
endfacet
facet normal -0.5903359652 -0.6232216358 0.5129309893
outer loop
vertex 77.00835419 45.44850922 283.1022339
vertex 76.89211273 45.72077179 283.2992554
vertex 76.57076263 45.54940033 282.7211914

endloop
endfacet
facet normal -0.5918929577 -0.6214597821 0.5132741928
outer loop
vertex 76.57076263 45.54940033 282.7211914
vertex 76.89211273 45.72077179 283.2992554
vertex 76.460289 45.82094574 282.9225769

endloop
endfacet
facet normal -0.5901535153 -0.62186867 0.5147798061
outer loop
vertex 76.57076263 45.54940033 282.7211914
vertex 76.460289 45.82094574 282.9225769
vertex 76.12883759 45.65924835 282.3472595

endloop
endfacet
facet normal -0.5920623541 -0.6196548939 0.5152572393
outer loop
vertex 76.12883759 45.65924835 282.3472595
vertex 76.460289 45.82094574 282.9225769
vertex 76.02422333 45.93006134 282.5527344

endloop
endfacet
facet normal -0.5894876122 -0.620338738 0.5173820257
outer loop
vertex 76.1288681 45.65926361 282.3472595
vertex 76.02422333 45.9300766 282.5527344
vertex 75.68248749 45.77742767 281.9803467

endloop
endfacet
facet normal -0.5915525556 -0.6178854704 0.517960608
outer loop
vertex 75.68248749 45.77742767 281.9803467
vertex 76.02422333 45.9300766 282.5527344
vertex 75.58361053 46.04750824 282.1896057

endloop
endfacet
facet normal -0.5893962979 -0.6184636354 0.5197256804
outer loop
vertex 75.68248749 45.77742767 281.9803467
vertex 75.58361053 46.04750824 282.1896057
vertex 75.23296356 45.90354156 281.620636

endloop
endfacet
facet normal -0.5914205313 -0.6160012484 0.5203500986
outer loop
vertex 75.23296356 45.90354156 281.620636
vertex 75.58361053 46.04750824 282.1896057
vertex 75.14003754 46.17272186 281.8336792

endloop
endfacet
facet normal -0.592674911 -0.6156411767 0.5193479657
outer loop
vertex 75.23296356 45.90354156 281.620636
vertex 75.14003754 46.17272186 281.8336792
vertex 74.78240204 46.0404892 281.2687988

endloop
endfacet
facet normal -0.5945515633 -0.6132891774 0.519985497
outer loop
vertex 74.78240204 46.0404892 281.2687988
vertex 75.14003754 46.17272186 281.8336792
vertex 74.69664764 46.30826569 281.4865723

endloop
endfacet
facet normal -0.6005899906 -0.6113852859 0.5152665973
outer loop
vertex 74.78240204 46.0404892 281.2687988
vertex 74.69664764 46.30826569 281.4865723
vertex 74.33364105 46.19239044 280.9259644

endloop
endfacet
facet normal -0.6023247838 -0.6091217399 0.5159220695
outer loop
vertex 74.33364105 46.19239044 280.9259644
vertex 74.69664764 46.30826569 281.4865723
vertex 74.25624847 46.45807648 281.149292

endloop
endfacet
facet normal -0.6111449599 -0.6059892774 0.5091943145
outer loop
vertex 74.33364105 46.1924057 280.9259949
vertex 74.25627899 46.45810699 281.149353
vertex 73.88729095 46.36119843 280.591156

endloop
endfacet
facet normal -0.6127377152 -0.6038097739 0.509868741
outer loop
vertex 73.88729095 46.36119843 280.591156
vertex 74.25627899 46.45810699 281.149353
vertex 73.81938934 46.62404633 280.8208313

endloop
endfacet
facet normal -0.6269316673 -0.5981403589 0.4991841614
outer loop
vertex 73.88729095 46.36119843 280.591156
vertex 73.81938934 46.62404633 280.8208313
vertex 73.44231415 46.55393219 280.2632446

endloop
endfacet
facet normal -0.6285334229 -0.5957961679 0.4999726713
outer loop
vertex 73.44231415 46.55393219 280.2632446
vertex 73.81938934 46.62404633 280.8208313
vertex 73.38396454 46.81349945 280.4992065

endloop
endfacet
facet normal -0.6379934549 -0.5915592909 0.4929725826
outer loop
vertex 73.44231415 46.55393219 280.2632446
vertex 73.38396454 46.81349945 280.4992065
vertex 73.00261688 46.76093292 279.9425964

endloop
endfacet
facet normal -0.6392278075 -0.5896674991 0.4936395884
outer loop
vertex 73.00261688 46.76093292 279.9425964
vertex 73.38396454 46.81349945 280.4992065
vertex 72.95232391 47.01735687 280.1837769

endloop
endfacet
facet normal -0.6566899419 -0.5810207129 0.4808049202
outer loop
vertex 73.00261688 46.76093292 279.9425964
vertex 72.95232391 47.01735687 280.1837769
vertex 72.58901215 46.98265839 279.6456299

endloop
endfacet
facet normal -0.658611238 -0.5779281855 0.4819026291
outer loop
vertex 72.58901215 46.98265839 279.6456299
vertex 72.95232391 47.01735687 280.1837769
vertex 72.55141449 47.23287201 279.8943176

endloop
endfacet
facet normal -0.6952509284 -0.556543231 0.4548471272
outer loop
vertex 72.58901215 46.98265839 279.6456299
vertex 72.55141449 47.23287201 279.8943176
vertex 72.22637177 47.21689606 279.3779297

endloop
endfacet
facet normal -0.6968761086 -0.5537374616 0.4557833076
outer loop
vertex 72.22637177 47.21689606 279.3779297
vertex 72.55141449 47.23287201 279.8943176
vertex 72.19896698 47.4567337 279.6274109

endloop
endfacet
facet normal -0.7025662661 -0.5500046015 0.4515480101
outer loop
vertex 72.22640228 47.2168808 279.3779297
vertex 72.1989975 47.4567337 279.6274414
vertex 71.91066742 47.38874054 279.0960083

endloop
endfacet
facet normal -0.6728657484 -0.5939072967 0.4410509169
outer loop
vertex 71.91066742 47.38874054 279.0960083
vertex 72.1989975 47.4567337 279.6274414
vertex 71.87483978 47.60936737 279.3384399

endloop
endfacet
facet normal -0.9389199018 0.1738651395 -0.2969851196
outer loop
vertex 71.91066742 47.38874054 279.0960083
vertex 71.87483978 47.60936737 279.3384399
vertex 72.10729218 47.89894867 278.7730713

endloop
endfacet
facet normal 0.9249094725 0 0.3801873326
outer loop
vertex 72.10729218 47.89894867 278.7730713
vertex 71.87483978 47.60936737 279.3384399
vertex 72.10729218 47.89893341 278.7730713

endloop
endfacet
facet normal 0.4318894744 -0.4318894744 0.7917973399
outer loop
vertex 80.18251801 45.49365997 285.2430725
vertex 80.18254852 45.49369049 285.2430725
vertex 79.57320404 45.32309723 285.4823914

endloop
endfacet
facet normal 0.4060235023 -0.1990326196 0.8919253945
outer loop
vertex 79.57320404 45.32309723 285.4823914
vertex 80.18254852 45.49369049 285.2430725
vertex 79.56108856 45.56259918 285.5413513

endloop
endfacet
facet normal -0.4710291028 -0.2332554013 0.8507193923
outer loop
vertex 79.57320404 45.32309723 285.4823914
vertex 79.56108856 45.56259918 285.5413513
vertex 79.05251312 45.38564301 285.2112427

endloop
endfacet
facet normal -0.4825945795 -0.2025800049 0.8520938158
outer loop
vertex 79.05251312 45.38564301 285.2112427
vertex 79.56108856 45.56259918 285.5413513
vertex 79.03517914 45.64785004 285.2637634

endloop
endfacet
facet normal -0.6088523865 -0.1943065226 0.7691188455
outer loop
vertex 79.05251312 45.38564301 285.2112427
vertex 79.03517914 45.64785004 285.2637634
vertex 78.58663177 45.42670441 284.8528137

endloop
endfacet
facet normal -0.6090336442 -0.1938746721 0.7690842748
outer loop
vertex 78.58663177 45.42670441 284.8528137
vertex 79.03517914 45.64785004 285.2637634
vertex 78.56752777 45.69530487 284.9053955

endloop
endfacet
facet normal -0.6824890375 -0.1868677884 0.7066040039
outer loop
vertex 78.58663177 45.42670441 284.8528137
vertex 78.56752777 45.69530487 284.9053955
vertex 78.17375946 45.48270416 284.4688416

endloop
endfacet
facet normal -0.6826452613 -0.1864792407 0.7065556645
outer loop
vertex 78.17375946 45.48270416 284.4688416
vertex 78.56752777 45.69530487 284.9053955
vertex 78.15947723 45.75121307 284.5259094

endloop
endfacet
facet normal -0.6845132113 -0.1862091422 0.7048176527
outer loop
vertex 78.17375946 45.48270416 284.4688416
vertex 78.15947723 45.75121307 284.5259094
vertex 77.74748993 45.55254364 284.0733032

endloop
endfacet
facet normal -0.6847240925 -0.1856443137 0.7047616839
outer loop
vertex 77.74748993 45.55254364 284.0733032
vertex 78.15947723 45.75121307 284.5259094
vertex 77.73708344 45.82054901 284.1337891

endloop
endfacet
facet normal -0.6816191673 -0.186170429 0.7076268792
outer loop
vertex 77.74748993 45.55254364 284.0733032
vertex 77.73708344 45.82054901 284.1337891
vertex 77.32057953 45.63059235 283.6826172

endloop
endfacet
facet normal -0.6820588708 -0.1849561334 0.7075216174
outer loop
vertex 77.32057953 45.63059235 283.6826172
vertex 77.73708344 45.82054901 284.1337891
vertex 77.31371307 45.89803314 283.7459106

endloop
endfacet
facet normal -0.6766058803 -0.1859872043 0.7124698758
outer loop
vertex 77.32057953 45.63059235 283.6826172
vertex 77.31371307 45.89803314 283.7459106
vertex 76.89211273 45.72075653 283.2992554

endloop
endfacet
facet normal -0.6771991253 -0.184275955 0.7123507857
outer loop
vertex 76.89211273 45.72075653 283.2992554
vertex 77.31371307 45.89803314 283.7459106
vertex 76.89019012 45.98735809 283.366394

endloop
endfacet
facet normal -0.6700282097 -0.1858335882 0.7186988592
outer loop
vertex 76.89211273 45.72077179 283.2992554
vertex 76.89019012 45.98735809 283.366394
vertex 76.460289 45.82094574 282.9225769

endloop
endfacet
facet normal -0.6707928777 -0.1835327446 0.7185769081
outer loop
vertex 76.460289 45.82094574 282.9225769
vertex 76.89019012 45.98735809 283.366394
vertex 76.46242523 46.08687592 282.9924927

endloop
endfacet
facet normal -0.6621818542 -0.1855550408 0.7260058522
outer loop
vertex 76.460289 45.82094574 282.9225769
vertex 76.46242523 46.08687592 282.9924927
vertex 76.02422333 45.93006134 282.5527344

endloop
endfacet
facet normal -0.6630729437 -0.182767272 0.7258996964
outer loop
vertex 76.02422333 45.93006134 282.5527344
vertex 76.46242523 46.08687592 282.9924927
vertex 76.03029633 46.19528961 282.625061

endloop
endfacet
facet normal -0.6539060473 -0.1850039661 0.7336078882
outer loop
vertex 76.02422333 45.9300766 282.5527344
vertex 76.03032684 46.19530487 282.625061
vertex 75.58361053 46.04750824 282.1896057

endloop
endfacet
facet normal -0.6547438502 -0.1822794676 0.7335426211
outer loop
vertex 75.58361053 46.04750824 282.1896057
vertex 76.03032684 46.19530487 282.625061
vertex 75.59349823 46.31201935 282.2641602

endloop
endfacet
facet normal -0.6462547183 -0.1845494658 0.7404703498
outer loop
vertex 75.58361053 46.04750824 282.1896057
vertex 75.59349823 46.31201935 282.2641602
vertex 75.14003754 46.17272186 281.8336792

endloop
endfacet
facet normal -0.6470923424 -0.1817228496 0.7404379845
outer loop
vertex 75.14003754 46.17272186 281.8336792
vertex 75.59349823 46.31201935 282.2641602
vertex 75.15407562 46.4363327 281.9106445

endloop
endfacet
facet normal -0.6401405931 -0.1837082207 0.7459700108
outer loop
vertex 75.14003754 46.17272186 281.8336792
vertex 75.15407562 46.4363327 281.9106445
vertex 74.69664764 46.30826569 281.4865723

endloop
endfacet
facet normal -0.6409040093 -0.1810019165 0.7459760904
outer loop
vertex 74.69664764 46.30826569 281.4865723
vertex 75.15407562 46.4363327 281.9106445
vertex 74.71611786 46.57048798 281.566925

endloop
endfacet
facet normal -0.6361888051 -0.1824759245 0.7496441007
outer loop
vertex 74.69664764 46.30826569 281.4865723
vertex 74.71611786 46.57048798 281.566925
vertex 74.25624847 46.45807648 281.149292

endloop
endfacet
facet normal -0.636913836 -0.1797074378 0.749697268
outer loop
vertex 74.25624847 46.45807648 281.149292
vertex 74.71611786 46.57048798 281.566925
vertex 74.28261566 46.71829987 281.2340698

endloop
endfacet
facet normal -0.6340228319 -0.1806465387 0.7519187927
outer loop
vertex 74.25627899 46.45810699 281.149353
vertex 74.28264618 46.71831512 281.2341003
vertex 73.81938934 46.62404633 280.8208313

endloop
endfacet
facet normal -0.6346294284 -0.1780929565 0.7520161867
outer loop
vertex 73.81938934 46.62404633 280.8208313
vertex 74.28264618 46.71831512 281.2341003
vertex 73.85393524 46.88147736 280.9109497

endloop
endfacet
facet normal -0.6336630583 -0.1784759909 0.7527399063
outer loop
vertex 73.81938934 46.62404633 280.8208313
vertex 73.85393524 46.88147736 280.9109497
vertex 73.38396454 46.81349945 280.4992065

endloop
endfacet
facet normal -0.6341590285 -0.176020503 0.7529005408
outer loop
vertex 73.38396454 46.81349945 280.4992065
vertex 73.85393524 46.88147736 280.9109497
vertex 73.42684174 47.06772614 280.5947571

endloop
endfacet
facet normal -0.6336841583 -0.1762320995 0.7532506585
outer loop
vertex 73.38396454 46.81349945 280.4992065
vertex 73.42684174 47.06772614 280.5947571
vertex 72.95232391 47.01735687 280.1837769

endloop
endfacet
facet normal -0.634052217 -0.1741637439 0.7534220815
outer loop
vertex 72.95232391 47.01735687 280.1837769
vertex 73.42684174 47.06772614 280.5947571
vertex 73.00228119 47.26850128 280.2838745

endloop
endfacet
facet normal -0.636033237 -0.1731928736 0.7519747019
outer loop
vertex 72.95232391 47.01735687 280.1837769
vertex 73.00228119 47.26850128 280.2838745
vertex 72.55141449 47.23287201 279.8943176

endloop
endfacet
facet normal -0.6366223097 -0.1694960892 0.7523184419
outer loop
vertex 72.55141449 47.23287201 279.8943176
vertex 73.00228119 47.26850128 280.2838745
vertex 72.6125412 47.4779129 280.0012512

endloop
endfacet
facet normal -0.6577707529 -0.1573600024 0.7365972996
outer loop
vertex 72.55141449 47.23287201 279.8943176
vertex 72.6125412 47.4779129 280.0012512
vertex 72.19896698 47.4567337 279.6274109

endloop
endfacet
facet normal -0.6581720114 -0.1543684453 0.736871779
outer loop
vertex 72.19896698 47.4567337 279.6274109
vertex 72.6125412 47.4779129 280.0012512
vertex 72.26732635 47.6918869 279.7377319

endloop
endfacet
facet normal -0.6933586001 -0.130802691 0.7086215019
outer loop
vertex 72.1989975 47.4567337 279.6274414
vertex 72.26735687 47.69187164 279.7377319
vertex 71.87483978 47.60936737 279.3384399

endloop
endfacet
facet normal -0.6824428439 -0.1808081567 0.7082232833
outer loop
vertex 71.87483978 47.60936737 279.3384399
vertex 72.26735687 47.69187164 279.7377319
vertex 71.93483734 47.83942413 279.4549866

endloop
endfacet
facet normal -0.9177438617 0.3418106139 -0.2022662759
outer loop
vertex 71.87483978 47.60936737 279.3384399
vertex 71.93483734 47.83942413 279.4549866
vertex 72.10729218 47.89893341 278.7730713

endloop
endfacet
facet normal -0.9499548078 0.2208324373 -0.2209497392
outer loop
vertex 72.10729218 47.89893341 278.7730713
vertex 71.93483734 47.83942413 279.4549866
vertex 72.10729218 47.89896393 278.7731018

endloop
endfacet
facet normal -0.2951443195 0.5902886391 -0.751298368
outer loop
vertex 80.18254852 45.49369049 285.2430725
vertex 80.18251801 45.49367523 285.2430725
vertex 79.56108856 45.56259918 285.5413513

endloop
endfacet
facet normal 0.4353424311 0.03146472946 0.8997149467
outer loop
vertex 79.56108856 45.56259918 285.5413513
vertex 80.18251801 45.49367523 285.2430725
vertex 79.61943817 45.79720306 285.5049133

endloop
endfacet
facet normal -0.4222509861 0.2407554537 0.8739227653
outer loop
vertex 79.56108856 45.56259918 285.5413513
vertex 79.61943817 45.79720306 285.5049133
vertex 79.03517914 45.64785004 285.2637634

endloop
endfacet
facet normal -0.4247321188 0.262625277 0.8663893938
outer loop
vertex 79.03517914 45.64785004 285.2637634
vertex 79.61943817 45.79720306 285.5049133
vertex 79.0996933 45.89484406 285.22052

endloop
endfacet
facet normal -0.5650683641 0.283261776 0.7748938799
outer loop
vertex 79.03517914 45.64785004 285.2637634
vertex 79.0996933 45.89484406 285.22052
vertex 78.56752777 45.69530487 284.9053955

endloop
endfacet
facet normal -0.5650205612 0.282830745 0.7750861049
outer loop
vertex 78.56752777 45.69530487 284.9053955
vertex 79.0996933 45.89484406 285.22052
vertex 78.63610077 45.94762421 284.8633118

endloop
endfacet
facet normal -0.6297830343 0.2912599742 0.7200978994
outer loop
vertex 78.56752777 45.69530487 284.9053955
vertex 78.63610077 45.94762421 284.8633118
vertex 78.15947723 45.75121307 284.5259094

endloop
endfacet
facet normal -0.6298185587 0.2917189598 0.7198809385
outer loop
vertex 78.15947723 45.75121307 284.5259094
vertex 78.63610077 45.94762421 284.8633118
vertex 78.23235321 46.00344086 284.4874573

endloop
endfacet
facet normal -0.6248244643 0.2909825742 0.7245161533
outer loop
vertex 78.15947723 45.75121307 284.5259094
vertex 78.23235321 46.00344086 284.4874573
vertex 77.73708344 45.82054901 284.1337891

endloop
endfacet
facet normal -0.6248604059 0.2916917801 0.7241997123
outer loop
vertex 77.73708344 45.82054901 284.1337891
vertex 78.23235321 46.00344086 284.4874573
vertex 77.81301117 46.07230377 284.0979004

endloop
endfacet
facet normal -0.6169909835 0.2903518677 0.7314491272
outer loop
vertex 77.73708344 45.82054901 284.1337891
vertex 77.81301117 46.07230377 284.0979004
vertex 77.31371307 45.89803314 283.7459106

endloop
endfacet
facet normal -0.617034018 0.291351676 0.7310152054
outer loop
vertex 77.31371307 45.89803314 283.7459106
vertex 77.81301117 46.07230377 284.0979004
vertex 77.39217377 46.1492691 283.7120056

endloop
endfacet
facet normal -0.6043730974 0.2889420688 0.7424592972
outer loop
vertex 77.31371307 45.89803314 283.7459106
vertex 77.39217377 46.1492691 283.7120056
vertex 76.89019012 45.98735809 283.366394

endloop
endfacet
facet normal -0.6044332981 0.2906932533 0.7417262793
outer loop
vertex 76.89019012 45.98735809 283.366394
vertex 77.39217377 46.1492691 283.7120056
vertex 76.97219086 46.23783112 283.3350525

endloop
endfacet
facet normal -0.591409266 0.2878865004 0.7532305717
outer loop
vertex 76.89019012 45.98735809 283.366394
vertex 76.97219086 46.23781586 283.3350525
vertex 76.46242523 46.08687592 282.9924927

endloop
endfacet
facet normal -0.5914617777 0.2899880111 0.7523828149
outer loop
vertex 76.46242523 46.08687592 282.9924927
vertex 76.97219086 46.23781586 283.3350525
vertex 76.54705048 46.33667755 282.962738

endloop
endfacet
facet normal -0.5777969956 0.2867599428 0.7641461492
outer loop
vertex 76.46242523 46.08687592 282.9924927
vertex 76.54705048 46.33667755 282.962738
vertex 76.03029633 46.19528961 282.625061

endloop
endfacet
facet normal -0.5778430104 0.2892926633 0.763156116
outer loop
vertex 76.03029633 46.19528961 282.625061
vertex 76.54705048 46.33667755 282.962738
vertex 76.11727142 46.44445038 282.5964661

endloop
endfacet
facet normal -0.5638353229 0.2857651711 0.7748729587
outer loop
vertex 76.03032684 46.19530487 282.625061
vertex 76.11730194 46.44445038 282.5964661
vertex 75.59349823 46.31201935 282.2641602

endloop
endfacet
facet normal -0.5638694763 0.2886115611 0.7737923265
outer loop
vertex 75.59349823 46.31201935 282.2641602
vertex 76.11730194 46.44445038 282.5964661
vertex 75.68270111 46.56050873 282.2364807

endloop
endfacet
facet normal -0.5505788326 0.2850454748 0.7846095562
outer loop
vertex 75.59349823 46.31201935 282.2641602
vertex 75.68270111 46.56050873 282.2364807
vertex 75.15407562 46.4363327 281.9106445

endloop
endfacet
facet normal -0.5505978465 0.2878569663 0.7835690379
outer loop
vertex 75.15407562 46.4363327 281.9106445
vertex 75.68270111 46.56050873 282.2364807
vertex 75.24590302 46.68399811 281.8841858

endloop
endfacet
facet normal -0.5366706252 0.2838724256 0.7946074605
outer loop
vertex 75.15407562 46.4363327 281.9106445
vertex 75.24590302 46.68399811 281.8841858
vertex 74.71611786 46.57048798 281.566925

endloop
endfacet
facet normal -0.5366690159 0.2866310477 0.7936176658
outer loop
vertex 74.71611786 46.57048798 281.566925
vertex 75.24590302 46.68399811 281.8841858
vertex 74.81194305 46.81682587 281.5427551

endloop
endfacet
facet normal -0.5219459534 0.2820213139 0.8050071001
outer loop
vertex 74.71611786 46.57048798 281.566925
vertex 74.81194305 46.81682587 281.5427551
vertex 74.28261566 46.71829987 281.2340698

endloop
endfacet
facet normal -0.521911025 0.284530282 0.804146409
outer loop
vertex 74.28261566 46.71829987 281.2340698
vertex 74.81194305 46.81682587 281.5427551
vertex 74.38384247 46.96271515 281.2132874

endloop
endfacet
facet normal -0.5078030229 0.2795794606 0.8148444891
outer loop
vertex 74.28264618 46.71831512 281.2341003
vertex 74.38387299 46.96274567 281.2133179
vertex 73.85393524 46.88147736 280.9109497

endloop
endfacet
facet normal -0.5077240467 0.2820459008 0.8140432239
outer loop
vertex 73.85393524 46.88147736 280.9109497
vertex 74.38387299 46.96274567 281.2133179
vertex 73.96193695 47.12328339 280.8945312

endloop
endfacet
facet normal -0.491446048 0.2755975425 0.8261517882
outer loop
vertex 73.85393524 46.88147736 280.9109497
vertex 73.96193695 47.12328339 280.8945312
vertex 73.42684174 47.06772614 280.5947571

endloop
endfacet
facet normal -0.4912842512 0.2781645954 0.8253873587
outer loop
vertex 73.42684174 47.06772614 280.5947571
vertex 73.96193695 47.12328339 280.8945312
vertex 73.54204559 47.30651093 280.5828552

endloop
endfacet
facet normal -0.4807371497 0.2734621763 0.8331327438
outer loop
vertex 73.42684174 47.06772614 280.5947571
vertex 73.54204559 47.30651093 280.5828552
vertex 73.00228119 47.26850128 280.2838745

endloop
endfacet
facet normal -0.4805479348 0.2756879926 0.8325080872
outer loop
vertex 73.00228119 47.26850128 280.2838745
vertex 73.54204559 47.30651093 280.5828552
vertex 73.12358856 47.50437164 280.2757874

endloop
endfacet
facet normal -0.4665811956 0.2688519657 0.8426272273
outer loop
vertex 73.00228119 47.26850128 280.2838745
vertex 73.12358856 47.50437164 280.2757874
vertex 72.6125412 47.4779129 280.0012512

endloop
endfacet
facet normal -0.4662112296 0.2728191912 0.8415561914
outer loop
vertex 72.6125412 47.4779129 280.0012512
vertex 73.12358856 47.50437164 280.2757874
vertex 72.74330902 47.70806122 279.9990845

endloop
endfacet
facet normal -0.4699171185 0.2748989761 0.8388137221
outer loop
vertex 72.6125412 47.4779129 280.0012512
vertex 72.74330902 47.70806122 279.9990845
vertex 72.26732635 47.6918869 279.7377319

endloop
endfacet
facet normal -0.469712317 0.2767255902 0.8383276463
outer loop
vertex 72.26732635 47.6918869 279.7377319
vertex 72.74330902 47.70806122 279.9990845
vertex 72.40297699 47.91298676 279.7407532

endloop
endfacet
facet normal -0.5301113129 0.3143817186 0.7874935865
outer loop
vertex 72.26735687 47.69187164 279.7377319
vertex 72.40297699 47.91298676 279.7407532
vertex 71.93483734 47.83942413 279.4549866

endloop
endfacet
facet normal -0.5324318409 0.2638163865 0.8043116927
outer loop
vertex 71.93483734 47.83942413 279.4549866
vertex 72.40297699 47.91298676 279.7407532
vertex 72.06798553 48.06832123 279.4680481

endloop
endfacet
facet normal -0.8474884033 0.5027053356 -0.1704429984
outer loop
vertex 71.93483734 47.83942413 279.4549866
vertex 72.06798553 48.06832123 279.4680481
vertex 72.10729218 47.89896393 278.7731018

endloop
endfacet
facet normal -nan(ind) -nan(ind) -nan(ind)
outer loop
vertex 72.10729218 47.89896393 278.7731018
vertex 72.06798553 48.06832123 279.4680481
vertex 72.10729218 47.89896393 278.7731018

endloop
endfacet
facet normal -nan(ind) -nan(ind) -nan(ind)
outer loop
vertex 80.18251801 45.49367523 285.2430725
vertex 80.18251801 45.49367523 285.2430725
vertex 79.61943817 45.79720306 285.5049133

endloop
endfacet
facet normal 0.5088325739 0.2277786583 0.8301845193
outer loop
vertex 79.61943817 45.79720306 285.5049133
vertex 80.18251801 45.49367523 285.2430725
vertex 79.7460556 46.00086212 285.3714294

endloop
endfacet
facet normal -0.2726838291 0.6402307153 0.7181560993
outer loop
vertex 79.61943817 45.79720306 285.5049133
vertex 79.7460556 46.00086212 285.3714294
vertex 79.0996933 45.89484406 285.22052

endloop
endfacet
facet normal -0.2729051411 0.6345615983 0.7230867147
outer loop
vertex 79.0996933 45.89484406 285.22052
vertex 79.7460556 46.00086212 285.3714294
vertex 79.24254608 46.11203766 285.0838318

endloop
endfacet
facet normal -0.407966733 0.6632146239 0.6274628639
outer loop
vertex 79.0996933 45.89484406 285.22052
vertex 79.24254608 46.11203766 285.0838318
vertex 78.63610077 45.94762421 284.8633118

endloop
endfacet
facet normal -0.4080201983 0.6626291275 0.6280463338
outer loop
vertex 78.63610077 45.94762421 284.8633118
vertex 79.24254608 46.11203766 285.0838318
vertex 78.78859711 46.1689682 284.7288513

endloop
endfacet
facet normal -0.454236418 0.6697868705 0.5874137282
outer loop
vertex 78.63610077 45.94762421 284.8633118
vertex 78.78859711 46.1689682 284.7288513
vertex 78.23235321 46.00344086 284.4874573

endloop
endfacet
facet normal -0.4541794658 0.67017138 0.5870189667
outer loop
vertex 78.23235321 46.00344086 284.4874573
vertex 78.78859711 46.1689682 284.7288513
vertex 78.38832855 46.22467804 284.3555603

endloop
endfacet
facet normal -0.4441665411 0.6686620116 0.5963280797
outer loop
vertex 78.23235321 46.00344086 284.4874573
vertex 78.38832855 46.22467804 284.3555603
vertex 77.81301117 46.07230377 284.0979004

endloop
endfacet
facet normal -0.4440545738 0.6692899466 0.5957067013
outer loop
vertex 77.81301117 46.07230377 284.0979004
vertex 78.38832855 46.22467804 284.3555603
vertex 77.97103119 46.29312897 283.9675903

endloop
endfacet
facet normal -0.4332817793 0.6674389839 0.6056336164
outer loop
vertex 77.81301117 46.07230377 284.0979004
vertex 77.97103119 46.29312897 283.9675903
vertex 77.39217377 46.1492691 283.7120056

endloop
endfacet
facet normal -0.4331056774 0.668409586 0.604688406
outer loop
vertex 77.39217377 46.1492691 283.7120056
vertex 77.97103119 46.29312897 283.9675903
vertex 77.55162811 46.36962128 283.5826416

endloop
endfacet
facet normal -0.4161934257 0.6651443243 0.6199727058
outer loop
vertex 77.39217377 46.1492691 283.7120056
vertex 77.55162811 46.36962128 283.5826416
vertex 76.97219086 46.23783112 283.3350525

endloop
endfacet
facet normal -0.4159485698 0.6665030718 0.618676424
outer loop
vertex 76.97219086 46.23783112 283.3350525
vertex 77.55162811 46.36962128 283.5826416
vertex 77.13359833 46.45748138 283.2069397

endloop
endfacet
facet normal -0.3999896049 0.6630093455 0.6327929497
outer loop
vertex 76.97219086 46.23781586 283.3350525
vertex 77.13359833 46.45746613 283.2069397
vertex 76.54705048 46.33667755 282.962738

endloop
endfacet
facet normal -0.3996764719 0.664718926 0.6311951876
outer loop
vertex 76.54705048 46.33667755 282.962738
vertex 77.13359833 46.45746613 283.2069397
vertex 76.70943451 46.55576324 282.8348389

endloop
endfacet
facet normal -0.3838243186 0.6609423161 0.6448521018
outer loop
vertex 76.54705048 46.33667755 282.962738
vertex 76.70943451 46.55576324 282.8348389
vertex 76.11727142 46.44445038 282.5964661

endloop
endfacet
facet normal -0.3834425509 0.6630377173 0.6429252028
outer loop
vertex 76.11727142 46.44445038 282.5964661
vertex 76.70943451 46.55576324 282.8348389
vertex 76.28029633 46.66295624 282.4683533

endloop
endfacet
facet normal -0.3676109612 0.6589396 0.6562474966
outer loop
vertex 76.11730194 46.44445038 282.5964661
vertex 76.28029633 46.6629715 282.4683533
vertex 75.68270111 46.56050873 282.2364807

endloop
endfacet
facet normal -0.3671934009 0.6612562537 0.654147625
outer loop
vertex 75.68270111 46.56050873 282.2364807
vertex 76.28029633 46.6629715 282.4683533
vertex 75.84621429 46.77846527 282.1079407

endloop
endfacet
facet normal -0.3518757522 0.6571186781 0.6666171551
outer loop
vertex 75.68270111 46.56050873 282.2364807
vertex 75.84621429 46.77846527 282.1079407
vertex 75.24590302 46.68399811 281.8841858

endloop
endfacet
facet normal -0.3514878154 0.6593170166 0.6646482944
outer loop
vertex 75.24590302 46.68399811 281.8841858
vertex 75.84621429 46.77846527 282.1079407
vertex 75.41039276 46.90120697 281.7557068

endloop
endfacet
facet normal -0.3337501287 0.6541973352 0.6787022352
outer loop
vertex 75.24590302 46.68399811 281.8841858
vertex 75.41039276 46.90120697 281.7557068
vertex 74.81194305 46.81682587 281.5427551

endloop
endfacet
facet normal -0.3333441615 0.6565459967 0.6766306758
outer loop
vertex 74.81194305 46.81682587 281.5427551
vertex 75.41039276 46.90120697 281.7557068
vertex 74.97875214 47.03289032 281.4152832

endloop
endfacet
facet normal -0.3119941652 0.6497955918 0.6931272149
outer loop
vertex 74.81194305 46.81682587 281.5427551
vertex 74.97875214 47.03289032 281.4152832
vertex 74.38384247 46.96271515 281.2132874

endloop
endfacet
facet normal -0.3116103113 0.6519936919 0.6912331581
outer loop
vertex 74.38384247 46.96271515 281.2132874
vertex 74.97875214 47.03289032 281.4152832
vertex 74.55428314 47.17708588 281.0879211

endloop
endfacet
facet normal -0.2896476984 0.6442781091 0.7078205943
outer loop
vertex 74.38387299 46.96274567 281.2133179
vertex 74.55431366 47.17710114 281.0879517
vertex 73.96193695 47.12328339 280.8945312

endloop
endfacet
facet normal -0.2892747521 0.6463187337 0.7061105967
outer loop
vertex 73.96193695 47.12328339 280.8945312
vertex 74.55431366 47.17710114 281.0879517
vertex 74.13744354 47.3353653 280.7723083

endloop
endfacet
facet normal -0.2619328499 0.6353902817 0.7264093161
outer loop
vertex 73.96193695 47.12328339 280.8945312
vertex 74.13744354 47.3353653 280.7723083
vertex 73.54204559 47.30651093 280.5828552

endloop
endfacet
facet normal -0.2615704834 0.6371426582 0.7250035405
outer loop
vertex 73.54204559 47.30651093 280.5828552
vertex 74.13744354 47.3353653 280.7723083
vertex 73.7229538 47.51596832 280.4640503

endloop
endfacet
facet normal -0.243957743 0.6292553544 0.7379174829
outer loop
vertex 73.54204559 47.30651093 280.5828552
vertex 73.7229538 47.51596832 280.4640503
vertex 73.12358856 47.50437164 280.2757874

endloop
endfacet
facet normal -0.2435493022 0.631065011 0.7365056872
outer loop
vertex 73.12358856 47.50437164 280.2757874
vertex 73.7229538 47.51596832 280.4640503
vertex 73.30919647 47.71131134 280.1598511

endloop
endfacet
facet normal -0.2180263549 0.6184974313 0.7549340725
outer loop
vertex 73.12358856 47.50437164 280.2757874
vertex 73.30919647 47.71131134 280.1598511
vertex 72.74330902 47.70806122 279.9990845

endloop
endfacet
facet normal -0.2173217684 0.6218408942 0.7523863316
outer loop
vertex 72.74330902 47.70806122 279.9990845
vertex 73.30919647 47.71131134 280.1598511
vertex 72.93624115 47.90996552 279.8879395

endloop
endfacet
facet normal -0.2063869983 0.6157990098 0.7603920102
outer loop
vertex 72.74330902 47.70806122 279.9990845
vertex 72.93624115 47.90996552 279.8879395
vertex 72.40297699 47.91298676 279.7407532

endloop
endfacet
facet normal -0.2059815973 0.6176959276 0.7589620948
outer loop
vertex 72.40297699 47.91298676 279.7407532
vertex 72.93624115 47.90996552 279.8879395
vertex 72.59810638 48.10689545 279.6358948

endloop
endfacet
facet normal -0.2710500658 0.6545267105 0.7057808042
outer loop
vertex 72.40297699 47.91298676 279.7407532
vertex 72.59810638 48.10689545 279.6358643
vertex 72.06798553 48.06832123 279.4680481

endloop
endfacet
facet normal -0.2736883163 0.6407932639 0.7172717452
outer loop
vertex 72.06798553 48.06832123 279.4680481
vertex 72.59810638 48.10689545 279.6358643
vertex 72.26668549 48.26898956 279.3645935

endloop
endfacet
facet normal -0.7455756664 0.636546433 -0.1972956061
outer loop
vertex 72.06798553 48.06832123 279.4680481
vertex 72.26668549 48.26898956 279.3645935
vertex 72.10729218 47.89896393 278.7731018

endloop
endfacet
facet normal -0.3844015896 0.8257047534 -0.4128523767
outer loop
vertex 72.10729218 47.89896393 278.7731018
vertex 72.26668549 48.26898956 279.3645935
vertex 72.10729218 47.89894867 278.7730713

endloop
endfacet
facet normal 0.2821372747 0 0.9593740702
outer loop
vertex 80.18251801 45.49367523 285.2430725
vertex 80.18251801 45.49369049 285.2430725
vertex 79.7460556 46.00086212 285.3714294

endloop
endfacet
facet normal 0.6331065893 0.3732104301 0.6781519651
outer loop
vertex 79.7460556 46.00086212 285.3714294
vertex 80.18251801 45.49369049 285.2430725
vertex 79.92653656 46.10155487 285.147522

endloop
endfacet
facet normal -0.02268259227 0.9184990525 0.3947721124
outer loop
vertex 79.7460556 46.00086212 285.3714294
vertex 79.92653656 46.10155487 285.147522
vertex 79.24254608 46.11203766 285.0838318

endloop
endfacet
facet normal -0.02437077463 0.9110075235 0.4116690457
outer loop
vertex 79.24254608 46.11203766 285.0838318
vertex 79.92653656 46.10155487 285.147522
vertex 79.45598602 46.2220993 284.8529053

endloop
endfacet
facet normal -0.1345038116 0.9370392561 0.3222826123
outer loop
vertex 79.24254608 46.11203766 285.0838318
vertex 79.45598602 46.2220993 284.8529053
vertex 78.78859711 46.1689682 284.7288513

endloop
endfacet
facet normal -0.134549737 0.9369319677 0.322575599
outer loop
vertex 78.78859711 46.1689682 284.7288513
vertex 79.45598602 46.2220993 284.8529053
vertex 79.01714325 46.28029633 284.500824

endloop
endfacet
facet normal -0.1535812318 0.9399029016 0.3049512804
outer loop
vertex 78.78859711 46.1689682 284.7288513
vertex 79.01714325 46.28029633 284.500824
vertex 78.38832855 46.22467804 284.3555603

endloop
endfacet
facet normal -0.1534273624 0.9401779771 0.3041799366
outer loop
vertex 78.38832855 46.22467804 284.3555603
vertex 79.01714325 46.28029633 284.500824
vertex 78.61806488 46.33588409 284.1277161

endloop
endfacet
facet normal -0.1403044462 0.938180387 0.316436857
outer loop
vertex 78.38832855 46.22467804 284.3555603
vertex 78.61806488 46.33588409 284.1277161
vertex 77.97103119 46.29312897 283.9675903

endloop
endfacet
facet normal -0.1401178688 0.9384899735 0.315600276
outer loop
vertex 77.97103119 46.29312897 283.9675903
vertex 78.61806488 46.33588409 284.1277161
vertex 78.20076752 46.4041214 283.7395325

endloop
endfacet
facet normal -0.1286168694 0.9365034699 0.3262191117
outer loop
vertex 77.97103119 46.29312897 283.9675903
vertex 78.20076752 46.4041214 283.7395325
vertex 77.55162811 46.36962128 283.5826416

endloop
endfacet
facet normal -0.1283747554 0.9369165897 0.3251264691
outer loop
vertex 77.55162811 46.36962128 283.5826416
vertex 78.20076752 46.4041214 283.7395325
vertex 77.78084564 46.48036957 283.3540039

endloop
endfacet
facet normal -0.1105568483 0.933429718 0.3413006365
outer loop
vertex 77.55162811 46.36962128 283.5826416
vertex 77.78084564 46.48036957 283.3540039
vertex 77.13359833 46.45748138 283.2069397

endloop
endfacet
facet normal -0.1101509109 0.9341709018 0.3393987119
outer loop
vertex 77.13359833 46.45748138 283.2069397
vertex 77.78084564 46.48036957 283.3540039
vertex 77.36183929 46.56789398 282.9771118

endloop
endfacet
facet normal -0.09435462207 0.9306954741 0.3534163237
outer loop
vertex 77.13359833 46.45746613 283.2069397
vertex 77.36183929 46.56787872 282.9771118
vertex 76.70943451 46.55576324 282.8348389

endloop
endfacet
facet normal -0.09386973083 0.931615293 0.3511145413
outer loop
vertex 76.70943451 46.55576324 282.8348389
vertex 77.36183929 46.56787872 282.9771118
vertex 76.93599701 46.66590118 282.6031799

endloop
endfacet
facet normal -0.07900638878 0.9280578494 0.3639596105
outer loop
vertex 76.70943451 46.55576324 282.8348389
vertex 76.93599701 46.66590118 282.6031799
vertex 76.28029633 46.66295624 282.4683533

endloop
endfacet
facet normal -0.07843940705 0.9291921854 0.3611774445
outer loop
vertex 76.28029633 46.66295624 282.4683533
vertex 76.93599701 46.66590118 282.6031799
vertex 76.50481415 46.77277374 282.2345886

endloop
endfacet
facet normal -0.06383323669 0.9254547954 0.3734417856
outer loop
vertex 76.28029633 46.6629715 282.4683533
vertex 76.50484467 46.772789 282.2345886
vertex 75.84621429 46.77846527 282.1079407

endloop
endfacet
facet normal -0.0632756874 0.9266365767 0.3705952466
outer loop
vertex 75.84621429 46.77846527 282.1079407
vertex 76.50484467 46.772789 282.2345886
vertex 76.06859589 46.88800812 281.8720093

endloop
endfacet
facet normal -0.04903356358 0.9227681756 0.3822233379
outer loop
vertex 75.84621429 46.77846527 282.1079407
vertex 76.06859589 46.88800812 281.8720093
vertex 75.41039276 46.90120697 281.7557068

endloop
endfacet
facet normal -0.04850996658 0.9239620566 0.3793955743
outer loop
vertex 75.41039276 46.90120697 281.7557068
vertex 76.06859589 46.88800812 281.8720093
vertex 75.63109589 47.01039886 281.5180054

endloop
endfacet
facet normal -0.03034200333 0.9186791778 0.3938375413
outer loop
vertex 75.41039276 46.90120697 281.7557068
vertex 75.63109589 47.01039886 281.5180054
vertex 74.97875214 47.03289032 281.4152832

endloop
endfacet
facet normal -0.02984900959 0.9199160933 0.3909775913
outer loop
vertex 74.97875214 47.03289032 281.4152832
vertex 75.63109589 47.01039886 281.5180054
vertex 75.19853973 47.14150238 281.1765137

endloop
endfacet
facet normal -0.005927240476 0.9122800231 0.4095241129
outer loop
vertex 74.97875214 47.03289032 281.4152832
vertex 75.19853973 47.14150238 281.1765137
vertex 74.55428314 47.17708588 281.0879211

endloop
endfacet
facet normal -0.00547955092 0.9135164022 0.4067650437
outer loop
vertex 74.55428314 47.17708588 281.0879211
vertex 75.19853973 47.14150238 281.1765137
vertex 74.77419281 47.2848587 280.8488464

endloop
endfacet
facet normal 0.02042773366 0.9042884111 0.426432997
outer loop
vertex 74.55431366 47.17710114 281.0879517
vertex 74.77419281 47.28487396 280.848877
vertex 74.13744354 47.3353653 280.7723083

endloop
endfacet
facet normal 0.0208456628 0.9055277109 0.4237747192
outer loop
vertex 74.13744354 47.3353653 280.7723083
vertex 74.77419281 47.28487396 280.848877
vertex 74.35832977 47.44197845 280.5336304

endloop
endfacet
facet normal 0.05468873307 0.8918613195 0.448990494
outer loop
vertex 74.13744354 47.3353653 280.7723083
vertex 74.35832977 47.44197845 280.5336304
vertex 73.7229538 47.51596832 280.4640503

endloop
endfacet
facet normal 0.05505640432 0.8929452896 0.4467857182
outer loop
vertex 73.7229538 47.51596832 280.4640503
vertex 74.35832977 47.44197845 280.5336304
vertex 73.94530487 47.62129974 280.2261353

endloop
endfacet
facet normal 0.0767532438 0.8831680417 0.4627345204
outer loop
vertex 73.7229538 47.51596832 280.4640503
vertex 73.94530487 47.62129974 280.2261353
vertex 73.30919647 47.71131134 280.1598511

endloop
endfacet
facet normal 0.07712195069 0.8842306137 0.4606392384
outer loop
vertex 73.30919647 47.71131134 280.1598511
vertex 73.94530487 47.62129974 280.2261353
vertex 73.53289032 47.81536102 279.9226685

endloop
endfacet
facet normal 0.1094746217 0.8681409359 0.4840936363
outer loop
vertex 73.30919647 47.71131134 280.1598511
vertex 73.53289032 47.81536102 279.9226685
vertex 72.93624115 47.90996552 279.8879395

endloop
endfacet
facet normal 0.1100220308 0.8701909184 0.4802737236
outer loop
vertex 72.93624115 47.90996552 279.8879395
vertex 73.53289032 47.81536102 279.9226685
vertex 73.16188812 48.01148224 279.6523132

endloop
endfacet
facet normal 0.1309104562 0.8587691188 0.4953565001
outer loop
vertex 72.93624115 47.90996552 279.8879395
vertex 73.16188812 48.01148224 279.6523132
vertex 72.59810638 48.10689545 279.6358948

endloop
endfacet
facet normal 0.1311919838 0.8600395918 0.4930725694
outer loop
vertex 72.59810638 48.10689545 279.6358948
vertex 73.16188812 48.01148224 279.6523132
vertex 72.8212204 48.2042923 279.4066467

endloop
endfacet
facet normal 0.07012485713 0.8917048573 0.4471519887
outer loop
vertex 72.59810638 48.10689545 279.6358643
vertex 72.8212204 48.2042923 279.4066467
vertex 72.26668549 48.26898956 279.3645935

endloop
endfacet
facet normal 0.07069274783 0.8937921524 0.442874819
outer loop
vertex 72.26668549 48.26898956 279.3645935
vertex 72.8212204 48.2042923 279.4066467
vertex 72.48961639 48.36470795 279.1358337

endloop
endfacet
facet normal -0.6147206426 0.7324750423 -0.2925729156
outer loop
vertex 72.26668549 48.26898956 279.3645935
vertex 72.48961639 48.36470795 279.1358337
vertex 72.10729218 47.89894867 278.7730713

endloop
endfacet
facet normal -0.3699776828 0.740952611 -0.5604513884
outer loop
vertex 72.10729218 47.89894867 278.7730713
vertex 72.48961639 48.36470795 279.1358337
vertex 72.10732269 47.89896393 278.7730713

endloop
endfacet
facet normal 0 0.1552838087 0.9878699183
outer loop
vertex 80.18251801 45.49369049 285.2430725
vertex 80.18254852 45.49369049 285.2430725
vertex 79.92653656 46.10155487 285.147522

endloop
endfacet
facet normal 0.7751322985 0.4029517472 0.4866208136
outer loop
vertex 79.92653656 46.10155487 285.147522
vertex 80.18254852 45.49369049 285.2430725
vertex 80.10826874 46.05561066 284.8960876

endloop
endfacet
facet normal 0.2472101301 0.9689605832 0.001622293727
outer loop
vertex 79.92653656 46.10155487 285.147522
vertex 80.10826874 46.05561066 284.8960876
vertex 79.45598602 46.2220993 284.8529053

endloop
endfacet
facet normal 0.2454554737 0.9689958096 0.02826214395
outer loop
vertex 79.45598602 46.2220993 284.8529053
vertex 80.10826874 46.05561066 284.8960876
vertex 79.67906952 46.1732254 284.5911255

endloop
endfacet
facet normal 0.1652625799 0.9853064418 -0.04312181473
outer loop
vertex 79.45598602 46.2220993 284.8529053
vertex 79.67906952 46.1732254 284.5911255
vertex 79.01714325 46.28029633 284.500824

endloop
endfacet
facet normal 0.1652560383 0.9853097796 -0.04307006299
outer loop
vertex 79.01714325 46.28029633 284.500824
vertex 79.67906952 46.1732254 284.5911255
vertex 79.25649261 46.22882843 284.2417603

endloop
endfacet
facet normal 0.1716831326 0.9844585657 -0.03696295246
outer loop
vertex 79.01714325 46.28029633 284.500824
vertex 79.25649261 46.22882843 284.2417603
vertex 78.61806488 46.33588409 284.1277161

endloop
endfacet
facet normal 0.171817556 0.9844046235 -0.03776616231
outer loop
vertex 78.61806488 46.33588409 284.1277161
vertex 79.25649261 46.22882843 284.2417603
vertex 78.85570526 46.28437042 283.8661194

endloop
endfacet
facet normal 0.1846171767 0.9824729562 -0.02575832047
outer loop
vertex 78.61806488 46.33588409 284.1277161
vertex 78.85570526 46.28437042 283.8661194
vertex 78.20076752 46.4041214 283.7395325

endloop
endfacet
facet normal 0.1847862452 0.9824163318 -0.02668664046
outer loop
vertex 78.20076752 46.4041214 283.7395325
vertex 78.85570526 46.28437042 283.8661194
vertex 78.43596649 46.35271454 283.4756775

endloop
endfacet
facet normal 0.1944109648 0.9807589054 -0.01778428815
outer loop
vertex 78.20076752 46.4041214 283.7395325
vertex 78.43596649 46.35271454 283.4756775
vertex 77.78084564 46.48036957 283.3540039

endloop
endfacet
facet normal 0.1946147382 0.9806967974 -0.01894670166
outer loop
vertex 77.78084564 46.48036957 283.3540039
vertex 78.43596649 46.35271454 283.4756775
vertex 78.01335907 46.42908478 283.0877686

endloop
endfacet
facet normal 0.2092819363 0.9778393507 -0.005586886313
outer loop
vertex 77.78084564 46.48036957 283.3540039
vertex 78.01335907 46.42908478 283.0877686
vertex 77.36183929 46.56789398 282.9771118

endloop
endfacet
facet normal 0.2096176893 0.9777533412 -0.007671502419
outer loop
vertex 77.36183929 46.56789398 282.9771118
vertex 78.01335907 46.42908478 283.0877686
vertex 77.59047699 46.51676178 282.7075195

endloop
endfacet
facet normal 0.2217029631 0.9751092196 0.003134562634
outer loop
vertex 77.36183929 46.56787872 282.9771118
vertex 77.59047699 46.51676178 282.7075195
vertex 76.93599701 46.66590118 282.6031799

endloop
endfacet
facet normal 0.2221031636 0.9750230312 0.0005011318135
outer loop
vertex 76.93599701 46.66590118 282.6031799
vertex 77.59047699 46.51676178 282.7075195
vertex 77.16054535 46.61489105 282.3301086

endloop
endfacet
facet normal 0.2327348441 0.9724917412 0.009716469795
outer loop
vertex 76.93599701 46.66590118 282.6031799
vertex 77.16054535 46.61489105 282.3301086
vertex 76.50481415 46.77277374 282.2345886

endloop
endfacet
facet normal 0.233156234 0.9724162221 0.006698832382
outer loop
vertex 76.50481415 46.77277374 282.2345886
vertex 77.16054535 46.61489105 282.3301086
vertex 76.72493744 46.72190094 281.9578857

endloop
endfacet
facet normal 0.2434120327 0.9698021412 0.01531128492
outer loop
vertex 76.50484467 46.772789 282.2345886
vertex 76.72493744 46.7219162 281.9578857
vertex 76.06859589 46.88800812 281.8720093

endloop
endfacet
facet normal 0.2438178509 0.9697455168 0.01210007071
outer loop
vertex 76.06859589 46.88800812 281.8720093
vertex 76.72493744 46.7219162 281.9578857
vertex 76.28429413 46.83727264 281.5917969

endloop
endfacet
facet normal 0.2539876401 0.9669917226 0.02042701282
outer loop
vertex 76.06859589 46.88800812 281.8720093
vertex 76.28429413 46.83727264 281.5917969
vertex 75.63109589 47.01039886 281.5180054

endloop
endfacet
facet normal 0.2543485463 0.9669604301 0.01715895161
outer loop
vertex 75.63109589 47.01039886 281.5180054
vertex 76.28429413 46.83727264 281.5917969
vertex 75.84252167 46.95981598 281.2345276

endloop
endfacet
facet normal 0.2690086067 0.9627055526 0.028852107
outer loop
vertex 75.63109589 47.01039886 281.5180054
vertex 75.84252167 46.95981598 281.2345276
vertex 75.19853973 47.14150238 281.1765137

endloop
endfacet
facet normal 0.2692888677 0.9627146125 0.02576944605
outer loop
vertex 75.19853973 47.14150238 281.1765137
vertex 75.84252167 46.95981598 281.2345276
vertex 75.40581512 47.09119415 280.8899536

endloop
endfacet
facet normal 0.2903716862 0.9559829235 0.04220092669
outer loop
vertex 75.19853973 47.14150238 281.1765137
vertex 75.40581512 47.09119415 280.8899536
vertex 74.77419281 47.2848587 280.8488464

endloop
endfacet
facet normal 0.2905893922 0.9560464025 0.0391546227
outer loop
vertex 74.77419281 47.2848587 280.8488464
vertex 75.40581512 47.09119415 280.8899536
vertex 74.97740936 47.2349472 280.5593567

endloop
endfacet
facet normal 0.3144465387 0.9475380778 0.05740202963
outer loop
vertex 74.77419281 47.28487396 280.848877
vertex 74.97743988 47.23496246 280.5593872
vertex 74.35832977 47.44197845 280.5336304

endloop
endfacet
facet normal 0.3146101832 0.947658658 0.05443802103
outer loop
vertex 74.35832977 47.44197845 280.5336304
vertex 74.97743988 47.23496246 280.5593872
vertex 74.55764008 47.39260101 280.241333

endloop
endfacet
facet normal 0.3470751941 0.9345213771 0.07879436016
outer loop
vertex 74.35832977 47.44197845 280.5336304
vertex 74.55764008 47.39260101 280.241333
vertex 73.94530487 47.62129974 280.2261353

endloop
endfacet
facet normal 0.3472250104 0.9347189665 0.07573125511
outer loop
vertex 73.94530487 47.62129974 280.2261353
vertex 74.55764008 47.39260101 280.241333
vertex 74.14098358 47.57250214 279.9312439

endloop
endfacet
facet normal 0.3682354093 0.9252448082 0.09124073386
outer loop
vertex 73.94530487 47.62129974 280.2261353
vertex 74.14098358 47.57250214 279.9312439
vertex 73.53289032 47.81536102 279.9226685

endloop
endfacet
facet normal 0.368344903 0.9254342914 0.08884517848
outer loop
vertex 73.53289032 47.81536102 279.9226685
vertex 74.14098358 47.57250214 279.9312439
vertex 73.72560883 47.76715851 279.6257629

endloop
endfacet
facet normal 0.3996046185 0.909861207 0.1116638109
outer loop
vertex 73.53289032 47.81536102 279.9226685
vertex 73.72560883 47.76715851 279.6257629
vertex 73.16188812 48.01148224 279.6523132

endloop
endfacet
facet normal 0.3996207416 0.910299778 0.1079700738
outer loop
vertex 73.16188812 48.01148224 279.6523132
vertex 73.72560883 47.76715851 279.6257629
vertex 73.34984589 47.96448517 279.3528748

endloop
endfacet
facet normal 0.4203251004 0.8990345001 0.1227343231
outer loop
vertex 73.16188812 48.01148224 279.6523132
vertex 73.34984589 47.96448517 279.3528748
vertex 72.8212204 48.2042923 279.4066467

endloop
endfacet
facet normal 0.4202262163 0.8994794488 0.1197777539
outer loop
vertex 72.8212204 48.2042923 279.4066467
vertex 73.34984589 47.96448517 279.3528748
vertex 73.00209808 48.15906525 279.1116943

endloop
endfacet
facet normal 0.3745056093 0.9230223894 0.08817768842
outer loop
vertex 72.8212204 48.2042923 279.4066467
vertex 73.00209808 48.15908051 279.1116943
vertex 72.48961639 48.36470795 279.1358337

endloop
endfacet
facet normal 0.3741035759 0.925581038 0.05784660205
outer loop
vertex 72.48961639 48.36470795 279.1358337
vertex 73.00209808 48.15908051 279.1116943
vertex 72.66384125 48.31238556 278.846283

endloop
endfacet
facet normal -0.4991241693 0.7490383983 -0.4356794059
outer loop
vertex 72.48961639 48.36470795 279.1358337
vertex 72.66384125 48.31238556 278.846283
vertex 72.10732269 47.89896393 278.7730713

endloop
endfacet
facet normal 0 -0.17438218 0.98467803
outer loop
vertex 72.10732269 47.89896393 278.7730713
vertex 72.66384125 48.31238556 278.846283
vertex 72.10729218 47.89896393 278.7730713

endloop
endfacet
facet normal 0.2430879474 -0.4861758947 -0.8393696547
outer loop
vertex 80.18254852 45.49369049 285.2430725
vertex 80.18251801 45.49367523 285.2430725
vertex 80.10826874 46.05561066 284.8960876

endloop
endfacet
facet normal 0.9068207145 0.3016308844 0.2944402099
outer loop
vertex 80.10826874 46.05561066 284.8960876
vertex 80.18251801 45.49367523 285.2430725
vertex 80.22606659 45.8849411 284.7081299

endloop
endfacet
facet normal 0.4930356741 0.7752153277 -0.3949137926
outer loop
vertex 80.10826874 46.05561066 284.8960876
vertex 80.22606659 45.8849411 284.7081299
vertex 79.67906952 46.1732254 284.5911255

endloop
endfacet
facet normal 0.4937123656 0.7843856812 -0.3754826486
outer loop
vertex 79.67906952 46.1732254 284.5911255
vertex 80.22606659 45.8849411 284.7081299
vertex 79.82762909 45.98711395 284.3976746

endloop
endfacet
facet normal 0.4484056234 0.7908587456 -0.4165031612
outer loop
vertex 79.67906952 46.1732254 284.5911255
vertex 79.82762909 45.98711395 284.3976746
vertex 79.25649261 46.22882843 284.2417603

endloop
endfacet
facet normal 0.4484040737 0.7908792496 -0.4164657295
outer loop
vertex 79.25649261 46.22882843 284.2417603
vertex 79.82762909 45.98711395 284.3976746
vertex 79.41616058 46.03728485 284.0499268

endloop
endfacet
facet normal 0.4756182432 0.7880039811 -0.3909437656
outer loop
vertex 79.25649261 46.22882843 284.2417603
vertex 79.41616058 46.03728485 284.0499268
vertex 78.85570526 46.28437042 283.8661194

endloop
endfacet
facet normal 0.4756702483 0.7876726985 -0.3915477991
outer loop
vertex 78.85570526 46.28437042 283.8661194
vertex 79.41616058 46.03728485 284.0499268
vertex 79.01143646 46.09285736 283.6700439

endloop
endfacet
facet normal 0.4845255911 0.7863624692 -0.3832347989
outer loop
vertex 78.85570526 46.28437042 283.8661194
vertex 79.01143646 46.09285736 283.6700439
vertex 78.43596649 46.35271454 283.4756775

endloop
endfacet
facet normal 0.4845920205 0.7859688997 -0.383957684
outer loop
vertex 78.43596649 46.35271454 283.4756775
vertex 79.01143646 46.09285736 283.6700439
vertex 78.58797455 46.16156769 283.2762451

endloop
endfacet
facet normal 0.4898428619 0.7850730419 -0.3790967464
outer loop
vertex 78.43596649 46.35271454 283.4756775
vertex 78.58797455 46.16156769 283.2762451
vertex 78.01335907 46.42908478 283.0877686

endloop
endfacet
facet normal 0.4899282753 0.7845010161 -0.3801690042
outer loop
vertex 78.01335907 46.42908478 283.0877686
vertex 78.58797455 46.16156769 283.2762451
vertex 78.16158295 46.23833466 282.8851624

endloop
endfacet
facet normal 0.4977595508 0.7829989791 -0.3730255663
outer loop
vertex 78.01335907 46.42908478 283.0877686
vertex 78.16158295 46.23833466 282.8851624
vertex 77.59047699 46.51676178 282.7075195

endloop
endfacet
facet normal 0.4978681803 0.7820589542 -0.3748481274
outer loop
vertex 77.59047699 46.51676178 282.7075195
vertex 78.16158295 46.23833466 282.8851624
vertex 77.73329926 46.32662201 282.5005188

endloop
endfacet
facet normal 0.5031795502 0.7808887362 -0.3701662421
outer loop
vertex 77.59047699 46.51676178 282.7075195
vertex 77.73329926 46.32660675 282.5005188
vertex 77.16054535 46.61489105 282.3301086

endloop
endfacet
facet normal 0.5032789707 0.7797448039 -0.3724355996
outer loop
vertex 77.16054535 46.61489105 282.3301086
vertex 77.73329926 46.32660675 282.5005188
vertex 77.29839325 46.42523956 282.1193237

endloop
endfacet
facet normal 0.506901145 0.7788903713 -0.3692980409
outer loop
vertex 77.16054535 46.61489105 282.3301086
vertex 77.29839325 46.42523956 282.1193237
vertex 76.72493744 46.72190094 281.9578857

endloop
endfacet
facet normal 0.5069692135 0.7776148915 -0.3718835413
outer loop
vertex 76.72493744 46.72190094 281.9578857
vertex 77.29839325 46.42523956 282.1193237
vertex 76.8576889 46.53275299 281.7433472

endloop
endfacet
facet normal 0.5101521015 0.7767735124 -0.3692799211
outer loop
vertex 76.72493744 46.7219162 281.9578857
vertex 76.8576889 46.53275299 281.7433777
vertex 76.28429413 46.83727264 281.5917969

endloop
endfacet
facet normal 0.5101742148 0.7754316926 -0.3720592558
outer loop
vertex 76.28429413 46.83727264 281.5917969
vertex 76.8576889 46.53275299 281.7433777
vertex 76.41207123 46.64861298 281.3738098

endloop
endfacet
facet normal 0.5135217309 0.7745317817 -0.3693181872
outer loop
vertex 76.28429413 46.83727264 281.5917969
vertex 76.41207123 46.64861298 281.3738098
vertex 75.84252167 46.95981598 281.2345276

endloop
endfacet
facet normal 0.5134884715 0.7732868195 -0.3719638288
outer loop
vertex 75.84252167 46.95981598 281.2345276
vertex 76.41207123 46.64861298 281.3738098
vertex 75.96526337 46.77179718 281.013092

endloop
endfacet
facet normal 0.5208482146 0.7711673379 -0.3660847247
outer loop
vertex 75.84252167 46.95981598 281.2345276
vertex 75.96526337 46.77179718 281.013092
vertex 75.40581512 47.09119415 280.8899536

endloop
endfacet
facet normal 0.5207439661 0.7699170709 -0.3688541055
outer loop
vertex 75.40581512 47.09119415 280.8899536
vertex 75.96526337 46.77179718 281.013092
vertex 75.52269745 46.90416718 280.6645813

endloop
endfacet
facet normal 0.533759892 0.7657972574 -0.3586849272
outer loop
vertex 75.40581512 47.09119415 280.8899536
vertex 75.52269745 46.90416718 280.6645813
vertex 74.97740936 47.2349472 280.5593567

endloop
endfacet
facet normal 0.5335855484 0.7646559477 -0.3613694012
outer loop
vertex 74.97740936 47.2349472 280.5593567
vertex 75.52269745 46.90416718 280.6645813
vertex 75.08769989 47.04938507 280.3295593

endloop
endfacet
facet normal 0.5495433211 0.7590095401 -0.3491511941
outer loop
vertex 74.97743988 47.23496246 280.5593872
vertex 75.08773041 47.04940033 280.3295898
vertex 74.55764008 47.39260101 280.241333

endloop
endfacet
facet normal 0.5493082404 0.757977128 -0.3517545462
outer loop
vertex 74.55764008 47.39260101 280.241333
vertex 75.08773041 47.04940033 280.3295898
vertex 74.6606369 47.20902252 280.0065918

endloop
endfacet
facet normal 0.5722392201 0.7487701178 -0.334492892
outer loop
vertex 74.55764008 47.39260101 280.241333
vertex 74.6606369 47.20902252 280.0065918
vertex 74.14098358 47.57250214 279.9312439

endloop
endfacet
facet normal 0.5719450712 0.747795701 -0.3371651471
outer loop
vertex 74.14098358 47.57250214 279.9312439
vertex 74.6606369 47.20902252 280.0065918
vertex 74.23680878 47.3911972 279.6916809

endloop
endfacet
facet normal 0.5870246291 0.7410259843 -0.3260098398
outer loop
vertex 74.14098358 47.57250214 279.9312439
vertex 74.23680878 47.3911972 279.6916809
vertex 73.72560883 47.76715851 279.6257629

endloop
endfacet
facet normal 0.5867476463 0.7402567863 -0.3282485604
outer loop
vertex 73.72560883 47.76715851 279.6257629
vertex 74.23680878 47.3911972 279.6916809
vertex 73.81539154 47.58802032 279.3822632

endloop
endfacet
facet normal 0.6092756391 0.7291094065 -0.3117412031
outer loop
vertex 73.72560883 47.76715851 279.6257629
vertex 73.81539154 47.58802032 279.3822632
vertex 73.34984589 47.96448517 279.3528748

endloop
endfacet
facet normal 0.6087183356 0.7281640768 -0.3150222898
outer loop
vertex 73.34984589 47.96448517 279.3528748
vertex 73.81539154 47.58802032 279.3822632
vertex 73.43004608 47.78968048 279.1037903

endloop
endfacet
facet normal 0.6183196902 0.7229460478 -0.3082689047
outer loop
vertex 73.34984589 47.96448517 279.3528748
vertex 73.43004608 47.78968048 279.1037903
vertex 73.00209808 48.15906525 279.1116943

endloop
endfacet
facet normal 0.6177239418 0.7223129272 -0.3109360933
outer loop
vertex 73.00209808 48.15906525 279.1116943
vertex 73.43004608 47.78968048 279.1037903
vertex 73.07344818 47.99120331 278.8634949

endloop
endfacet
facet normal 0.5913671255 0.7365877628 -0.328212589
outer loop
vertex 73.00209808 48.15908051 279.1116943
vertex 73.07344818 47.99120331 278.8634949
vertex 72.66384125 48.31238556 278.846283

endloop
endfacet
facet normal 0.5838027596 0.7249391675 -0.3655648828
outer loop
vertex 72.66384125 48.31238556 278.846283
vertex 73.07344818 47.99120331 278.8634949
vertex 72.72780609 48.13990021 278.6063843

endloop
endfacet
facet normal -0.4244462252 0.6777220368 -0.6004483104
outer loop
vertex 72.66384125 48.31238556 278.846283
vertex 72.72780609 48.13990021 278.6063843
vertex 72.10729218 47.89896393 278.7730713

endloop
endfacet
facet normal -0.259673506 0 -0.965696454
outer loop
vertex 72.10729218 47.89896393 278.7730713
vertex 72.72780609 48.13990021 278.6063843
vertex 72.10729218 47.89894867 278.7730713

endloop
endfacet
facet normal 0.9967027903 -0 0.08113953471
outer loop
vertex 80.18251801 45.49367523 285.2430725
vertex 80.18251801 45.49365997 285.2430725
vertex 80.22606659 45.8849411 284.7081299

endloop
endfacet
facet normal 0.9785037041 0.1202002093 0.167577818
outer loop
vertex 80.22606659 45.8849411 284.7081299
vertex 80.18251801 45.49365997 285.2430725
vertex 80.27083588 45.65966034 284.6083069

endloop
endfacet
facet normal 0.6227562428 0.4170841277 -0.6619784832
outer loop
vertex 80.22606659 45.8849411 284.7081299
vertex 80.27083588 45.65966034 284.6083069
vertex 79.82762909 45.98711395 284.3976746

endloop
endfacet
facet normal 0.6289389133 0.4381587803 -0.6422247291
outer loop
vertex 79.82762909 45.98711395 284.3976746
vertex 80.27083588 45.65966034 284.6083069
vertex 79.89168549 45.74317169 284.2939758

endloop
endfacet
facet normal 0.6102858782 0.4402222931 -0.6586011052
outer loop
vertex 79.82762909 45.98711395 284.3976746
vertex 79.89168549 45.74317169 284.2939758
vertex 79.41616058 46.03728485 284.0499268

endloop
endfacet
facet normal 0.6104132533 0.4409056008 -0.6580257416
outer loop
vertex 79.41616058 46.03728485 284.0499268
vertex 79.89168549 45.74317169 284.2939758
vertex 79.485466 45.787117 283.9465942

endloop
endfacet
facet normal 0.6466630697 0.4372976124 -0.6249780059
outer loop
vertex 79.41616058 46.03728485 284.0499268
vertex 79.485466 45.787117 283.9465942
vertex 79.01143646 46.09285736 283.6700439

endloop
endfacet
facet normal 0.6465787888 0.4367271662 -0.625464201
outer loop
vertex 79.01143646 46.09285736 283.6700439
vertex 79.485466 45.787117 283.9465942
vertex 79.07604218 45.84275055 283.5621948

endloop
endfacet
facet normal 0.6497108936 0.4362709224 -0.6225298643
outer loop
vertex 79.01143646 46.09285736 283.6700439
vertex 79.07604218 45.84275055 283.5621948
vertex 78.58797455 46.16156769 283.2762451

endloop
endfacet
facet normal 0.649616003 0.4356420338 -0.6230691075
outer loop
vertex 78.58797455 46.16156769 283.2762451
vertex 79.07604218 45.84275055 283.5621948
vertex 78.64864349 45.91191864 283.1649475

endloop
endfacet
facet normal 0.6497704983 0.435615927 -0.6229263544
outer loop
vertex 78.58797455 46.16156769 283.2762451
vertex 78.64864349 45.91191864 283.1649475
vertex 78.16158295 46.23833466 282.8851624

endloop
endfacet
facet normal 0.6496091485 0.4346578121 -0.6237632036
outer loop
vertex 78.16158295 46.23833466 282.8851624
vertex 78.64864349 45.91191864 283.1649475
vertex 78.21846771 45.98921967 282.770813

endloop
endfacet
facet normal 0.6497151256 0.434637785 -0.6236667037
outer loop
vertex 78.16158295 46.23833466 282.8851624
vertex 78.21846771 45.98921967 282.770813
vertex 77.73329926 46.32662201 282.5005188

endloop
endfacet
facet normal 0.6494484544 0.4332707226 -0.6248944998
outer loop
vertex 77.73329926 46.32662201 282.5005188
vertex 78.21846771 45.98921967 282.770813
vertex 77.784935 46.07826996 282.3819885

endloop
endfacet
facet normal 0.647542119 0.4337215424 -0.6265578866
outer loop
vertex 77.73329926 46.32660675 282.5005188
vertex 77.784935 46.07828522 282.3819885
vertex 77.29839325 46.42523956 282.1193237

endloop
endfacet
facet normal 0.6471737027 0.4320374131 -0.6281002164
outer loop
vertex 77.29839325 46.42523956 282.1193237
vertex 77.784935 46.07828522 282.3819885
vertex 77.34554291 46.17754364 281.9975281

endloop
endfacet
facet normal 0.643871665 0.4328120947 -0.6309540868
outer loop
vertex 77.29839325 46.42523956 282.1193237
vertex 77.34554291 46.17754364 281.9975281
vertex 76.8576889 46.53275299 281.7433472

endloop
endfacet
facet normal 0.6433506012 0.4306690395 -0.6329488158
outer loop
vertex 76.8576889 46.53275299 281.7433472
vertex 77.34554291 46.17754364 281.9975281
vertex 76.90035248 46.2857132 281.6186218

endloop
endfacet
facet normal 0.6396676302 0.4317324758 -0.6359499693
outer loop
vertex 76.8576889 46.53275299 281.7433777
vertex 76.900383 46.28572845 281.6186218
vertex 76.41207123 46.64861298 281.3738098

endloop
endfacet
facet normal 0.6390788555 0.4295425713 -0.6380215287
outer loop
vertex 76.41207123 46.64861298 281.3738098
vertex 76.900383 46.28572845 281.6186218
vertex 76.45037079 46.40224457 281.2463074

endloop
endfacet
facet normal 0.6358680129 0.4304014146 -0.6406453252
outer loop
vertex 76.41207123 46.64861298 281.3738098
vertex 76.45037079 46.40224457 281.2463074
vertex 75.96526337 46.77179718 281.013092

endloop
endfacet
facet normal 0.635253787 0.4283410907 -0.642632544
outer loop
vertex 75.96526337 46.77179718 281.013092
vertex 76.45037079 46.40224457 281.2463074
vertex 75.99895477 46.52628326 280.8827515

endloop
endfacet
facet normal 0.6346235871 0.4285212457 -0.643134892
outer loop
vertex 75.96526337 46.77179718 281.013092
vertex 75.99895477 46.52628326 280.8827515
vertex 75.52269745 46.90416718 280.6645813

endloop
endfacet
facet normal 0.633973062 0.42659235 -0.6450559497
outer loop
vertex 75.52269745 46.90416718 280.6645813
vertex 75.99895477 46.52628326 280.8827515
vertex 75.55065155 46.65995026 280.5305481

endloop
endfacet
facet normal 0.6370470524 0.4256288707 -0.6426593065
outer loop
vertex 75.52269745 46.90416718 280.6645813
vertex 75.55065155 46.65995026 280.5305481
vertex 75.08769989 47.04938507 280.3295593

endloop
endfacet
facet normal 0.63625139 0.4235790968 -0.6447983384
outer loop
vertex 75.08769989 47.04938507 280.3295593
vertex 75.55065155 46.65995026 280.5305481
vertex 75.10863495 46.80702972 280.1910095

endloop
endfacet
facet normal 0.6419245005 0.4216296673 -0.6404383779
outer loop
vertex 75.08773041 47.04940033 280.3295898
vertex 75.10866547 46.8070755 280.19104
vertex 74.6606369 47.20902252 280.0065918

endloop
endfacet
facet normal 0.6411432624 0.4198706448 -0.6423736215
outer loop
vertex 74.6606369 47.20902252 280.0065918
vertex 75.10866547 46.8070755 280.19104
vertex 74.67345428 46.96926117 279.8626709

endloop
endfacet
facet normal 0.6507581472 0.416049242 -0.6351510286
outer loop
vertex 74.6606369 47.20902252 280.0065918
vertex 74.67345428 46.96926117 279.8626709
vertex 74.23680878 47.3911972 279.6916809

endloop
endfacet
facet normal 0.6498745084 0.41430825 -0.6371905804
outer loop
vertex 74.23680878 47.3911972 279.6916809
vertex 74.67345428 46.96926117 279.8626709
vertex 74.24138641 47.15441132 279.5423889

endloop
endfacet
facet normal 0.6564278007 0.4113829434 -0.6323500276
outer loop
vertex 74.23680878 47.3911972 279.6916809
vertex 74.24138641 47.15441132 279.5423889
vertex 73.81539154 47.58802032 279.3822632

endloop
endfacet
facet normal 0.6556439996 0.4099761546 -0.6340746284
outer loop
vertex 73.81539154 47.58802032 279.3822632
vertex 74.24138641 47.15441132 279.5423889
vertex 73.81298065 47.35408783 279.2285156

endloop
endfacet
facet normal 0.6652407646 0.4052703679 -0.6270651221
outer loop
vertex 73.81539154 47.58802032 279.3822632
vertex 73.81298065 47.35408783 279.2285156
vertex 73.43004608 47.78968048 279.1037903

endloop
endfacet
facet normal 0.6639816165 0.4034458101 -0.6295711994
outer loop
vertex 73.43004608 47.78968048 279.1037903
vertex 73.81298065 47.35408783 279.2285156
vertex 73.41667938 47.56142426 278.9434204

endloop
endfacet
facet normal 0.657373786 0.4070588648 -0.6341629624
outer loop
vertex 73.43004608 47.78968048 279.1037903
vertex 73.41667938 47.56142426 278.9434204
vertex 73.07344818 47.99120331 278.8634949

endloop
endfacet
facet normal 0.6563959718 0.4059588313 -0.6358787417
outer loop
vertex 73.07344818 47.99120331 278.8634949
vertex 73.41667938 47.56142426 278.9434204
vertex 73.05187225 47.77207184 278.7013245

endloop
endfacet
facet normal 0.6513612866 0.4088898897 -0.639169395
outer loop
vertex 73.07344818 47.99120331 278.8634949
vertex 73.05187225 47.77207184 278.7013245
vertex 72.72780609 48.13990021 278.6063843

endloop
endfacet
facet normal 0.6301964521 0.3805323839 -0.6767920852
outer loop
vertex 72.72780609 48.13990021 278.6063843
vertex 73.05187225 47.77207184 278.7013245
vertex 72.69860077 47.91986847 278.4554749

endloop
endfacet
facet normal -0.4095278382 0.5523458719 -0.7260860801
outer loop
vertex 72.72780609 48.13990021 278.6063843
vertex 72.69860077 47.91986847 278.4554749
vertex 72.10729218 47.89894867 278.7730713

endloop
endfacet
facet normal -0.0353566967 0.9993747473 0
outer loop
vertex 72.10729218 47.89894867 278.7730713
vertex 72.69860077 47.91986847 278.4554749
vertex 72.10729218 47.89894867 278.7730408

endloop
endfacet
facet normal -0.9797647595 0.1790219545 -0.08951097727
outer loop
vertex 80.18251801 45.49365997 285.243042
vertex 80.18251801 45.49367523 285.2430725
vertex 80.27083588 45.65964508 284.6083069

endloop
endfacet
facet normal 0.9854106903 -0.1367204338 0.1013569459
outer loop
vertex 80.27083588 45.65964508 284.6083069
vertex 80.18251801 45.49367523 285.2430725
vertex 80.23091888 45.37418365 284.6113281

endloop
endfacet
facet normal 0.6228089333 -0.09530813247 -0.7765470743
outer loop
vertex 80.27083588 45.65964508 284.6083069
vertex 80.23091888 45.37418365 284.6113281
vertex 79.89165497 45.74315643 284.2939453

endloop
endfacet
facet normal 0.6345288157 -0.07799988985 -0.7689533234
outer loop
vertex 79.89165497 45.74315643 284.2939453
vertex 80.23091888 45.37418365 284.6113281
vertex 79.85552216 45.42725372 284.2961731

endloop
endfacet
facet normal 0.6429168582 -0.07890927047 -0.7618604302
outer loop
vertex 79.89165497 45.74315643 284.2939453
vertex 79.85552216 45.42725372 284.2961731
vertex 79.48543549 45.78710175 283.9465942

endloop
endfacet
facet normal 0.643250525 -0.07834860682 -0.7616366148
outer loop
vertex 79.48543549 45.78710175 283.9465942
vertex 79.85552216 45.42725372 284.2961731
vertex 79.44750214 45.46379852 283.9478149

endloop
endfacet
facet normal 0.6762398481 -0.08210778236 -0.7320915461
outer loop
vertex 79.48543549 45.78710175 283.9465942
vertex 79.44750214 45.46379852 283.9478149
vertex 79.07601166 45.84275055 283.5621643

endloop
endfacet
facet normal 0.6759310365 -0.08263968676 -0.732316792
outer loop
vertex 79.07601166 45.84275055 283.5621643
vertex 79.44750214 45.46379852 283.9478149
vertex 79.03243256 45.5195694 283.5584106

endloop
endfacet
facet normal 0.6713316441 -0.08196965605 -0.736610353
outer loop
vertex 79.07601166 45.84275055 283.5621643
vertex 79.03243256 45.5195694 283.5584106
vertex 78.64858246 45.91191864 283.164917

endloop
endfacet
facet normal 0.671033144 -0.08247770369 -0.7368255854
outer loop
vertex 78.64858246 45.91191864 283.164917
vertex 79.03243256 45.5195694 283.5584106
vertex 78.60079193 45.58934784 283.1575012

endloop
endfacet
facet normal 0.6653203964 -0.08151017874 -0.7420949936
outer loop
vertex 78.64858246 45.91191864 283.164917
vertex 78.60079193 45.58934784 283.1575012
vertex 78.21843719 45.98921967 282.7707825

endloop
endfacet
facet normal 0.6647213697 -0.08249662071 -0.7425225973
outer loop
vertex 78.21843719 45.98921967 282.7707825
vertex 78.60079193 45.58934784 283.1575012
vertex 78.16689301 45.66728973 282.7604065

endloop
endfacet
facet normal 0.6562036872 -0.08088423312 -0.7502362728
outer loop
vertex 78.21843719 45.98921967 282.7707825
vertex 78.16689301 45.66728973 282.7604065
vertex 77.78490448 46.0782547 282.3819885

endloop
endfacet
facet normal 0.6551544666 -0.08253762126 -0.7509728074
outer loop
vertex 77.78490448 46.0782547 282.3819885
vertex 78.16689301 45.66728973 282.7604065
vertex 77.72814178 45.75736237 282.3677368

endloop
endfacet
facet normal 0.6460103393 -0.0805683732 -0.7590648532
outer loop
vertex 77.78490448 46.07823944 282.3819885
vertex 77.72814178 45.75737762 282.3677368
vertex 77.34554291 46.17751312 281.9975281

endloop
endfacet
facet normal 0.6447199583 -0.08252442628 -0.7599511743
outer loop
vertex 77.34554291 46.17751312 281.9975281
vertex 77.72814178 45.75737762 282.3677368
vertex 77.28472137 45.85747528 281.9806824

endloop
endfacet
facet normal 0.6347427368 -0.08017555624 -0.7685528398
outer loop
vertex 77.34554291 46.17751312 281.9975281
vertex 77.28472137 45.85747528 281.9806824
vertex 76.90035248 46.2857132 281.6185608

endloop
endfacet
facet normal 0.6332155466 -0.08241099119 -0.7695754766
outer loop
vertex 76.90035248 46.2857132 281.6185608
vertex 77.28472137 45.85747528 281.9806824
vertex 76.83577728 45.96651459 281.5996094

endloop
endfacet
facet normal 0.6230239868 -0.07990197837 -0.7781111002
outer loop
vertex 76.900383 46.28572845 281.6185913
vertex 76.83577728 45.96652985 281.5996399
vertex 76.45037079 46.40224457 281.2463074

endloop
endfacet
facet normal 0.621357739 -0.08225663006 -0.7791973352
outer loop
vertex 76.45037079 46.40224457 281.2463074
vertex 76.83577728 45.96652985 281.5996399
vertex 76.382164 46.08388519 281.2255249

endloop
endfacet
facet normal 0.6118679047 -0.07971853763 -0.7869324088
outer loop
vertex 76.45037079 46.40224457 281.2463074
vertex 76.382164 46.08388519 281.2255249
vertex 75.99895477 46.52626801 280.8827515

endloop
endfacet
facet normal 0.6101887822 -0.08200092614 -0.7880009413
outer loop
vertex 75.99895477 46.52626801 280.8827515
vertex 76.382164 46.08388519 281.2255249
vertex 75.9265976 46.20896149 280.8597412

endloop
endfacet
facet normal 0.601064384 -0.079394795 -0.7952471375
outer loop
vertex 75.99895477 46.52626801 280.8827515
vertex 75.9265976 46.20896149 280.8597412
vertex 75.55062103 46.65991974 280.5305481

endloop
endfacet
facet normal 0.5994733572 -0.08144621551 -0.7962400913
outer loop
vertex 75.55062103 46.65991974 280.5305481
vertex 75.9265976 46.20896149 280.8597412
vertex 75.47255707 46.34430695 280.5040588

endloop
endfacet
facet normal 0.5906839371 -0.07870014012 -0.8030559421
outer loop
vertex 75.55062103 46.65991974 280.5305481
vertex 75.47255707 46.34430695 280.5040588
vertex 75.10860443 46.80701447 280.1910095

endloop
endfacet
facet normal 0.5889315009 -0.08080723882 -0.804132998
outer loop
vertex 75.10860443 46.80701447 280.1910095
vertex 75.47255707 46.34430695 280.5040588
vertex 75.02300262 46.49381256 280.15979

endloop
endfacet
facet normal 0.5817206502 -0.07828644663 -0.8096123934
outer loop
vertex 75.10863495 46.80704498 280.19104
vertex 75.02303314 46.49382782 280.1598206
vertex 74.67345428 46.96924591 279.8626709

endloop
endfacet
facet normal 0.5799259543 -0.0802879557 -0.810703218
outer loop
vertex 74.67345428 46.96924591 279.8626709
vertex 75.02303314 46.49382782 280.1598206
vertex 74.57863617 46.65938568 279.825531

endloop
endfacet
facet normal 0.5721952319 -0.07723081112 -0.816472888
outer loop
vertex 74.67345428 46.96924591 279.8626709
vertex 74.57863617 46.65938568 279.825531
vertex 74.24138641 47.15439606 279.5423584

endloop
endfacet
facet normal 0.5705084801 -0.07896029204 -0.8174872398
outer loop
vertex 74.24138641 47.15439606 279.5423584
vertex 74.57863617 46.65938568 279.825531
vertex 74.13698578 46.84841156 279.499054

endloop
endfacet
facet normal 0.5657116175 -0.07682406902 -0.8210167289
outer loop
vertex 74.24138641 47.15439606 279.5423584
vertex 74.13698578 46.84841156 279.499054
vertex 73.81298065 47.35408783 279.2284851

endloop
endfacet
facet normal 0.5642172098 -0.07825899869 -0.8219090104
outer loop
vertex 73.81298065 47.35408783 279.2284851
vertex 74.13698578 46.84841156 279.499054
vertex 73.70046234 47.05184174 279.1800232

endloop
endfacet
facet normal 0.5563653111 -0.07442376763 -0.8275981545
outer loop
vertex 73.81298065 47.35408783 279.2284851
vertex 73.70046234 47.05184174 279.1800232
vertex 73.41667938 47.56142426 278.9434204

endloop
endfacet
facet normal 0.5534724593 -0.07683240622 -0.8293160796
outer loop
vertex 73.41667938 47.56142426 278.9434204
vertex 73.70046234 47.05184174 279.1800232
vertex 73.29137421 47.26651764 278.8871155

endloop
endfacet
facet normal 0.5268071294 -0.0619882904 -0.8477214575
outer loop
vertex 73.41667938 47.56142426 278.9434204
vertex 73.29137421 47.26651764 278.8871155
vertex 73.05184174 47.77205658 278.7012939

endloop
endfacet
facet normal 0.5258195996 -0.06266328692 -0.848284781
outer loop
vertex 73.05184174 47.77205658 278.7012939
vertex 73.29137421 47.26651764 278.8871155
vertex 72.91912079 47.48915863 278.6399231

endloop
endfacet
facet normal 0.5477921367 -0.0763149783 -0.833126545
outer loop
vertex 73.05184174 47.77207184 278.7012939
vertex 72.91909027 47.48915863 278.6399231
vertex 72.69857025 47.91986847 278.4554749

endloop
endfacet
facet normal 0.5214775205 -0.09608767182 -0.8478375077
outer loop
vertex 72.69857025 47.91986847 278.4554749
vertex 72.91909027 47.48915863 278.6399231
vertex 72.56612396 47.64887238 278.4047241

endloop
endfacet
facet normal -0.4494096041 0.3717660308 -0.8122937679
outer loop
vertex 72.69857025 47.91986847 278.4554749
vertex 72.56612396 47.64887238 278.4047241
vertex 72.10726166 47.89893341 278.7730408

endloop
endfacet
facet normal -0.04701675847 -0.8525705338 0.5204929113
outer loop
vertex 72.10726166 47.89893341 278.7730408
vertex 72.56612396 47.64887238 278.4047241
vertex 72.10732269 47.89894867 278.7730713

endloop
endfacet
facet normal -0.9268516898 -0.3754276037 0
outer loop
vertex 80.18251801 45.49367523 285.243103
vertex 80.18251801 45.49367523 285.2430725
vertex 80.23091888 45.37418365 284.6113586

endloop
endfacet
facet normal 0.8840901256 -0.4421229959 0.1513671279
outer loop
vertex 80.23091888 45.37418365 284.6113586
vertex 80.18251801 45.49367523 285.2430725
vertex 79.98635101 44.9728775 284.8676453

endloop
endfacet
facet normal 0.428019166 -0.6571105123 -0.620487988
outer loop
vertex 80.23091888 45.37418365 284.6113586
vertex 79.98635101 44.9728775 284.8676453
vertex 79.85552216 45.42725372 284.2962036

endloop
endfacet
facet normal 0.4410739243 -0.6505468488 -0.6182577014
outer loop
vertex 79.85552216 45.42725372 284.2962036
vertex 79.98635101 44.9728775 284.8676453
vertex 79.56581879 44.96945953 284.571228

endloop
endfacet
facet normal 0.4574344456 -0.6524544954 -0.6041993499
outer loop
vertex 79.85552216 45.42725372 284.2962036
vertex 79.56581879 44.96945953 284.571228
vertex 79.44750214 45.46381378 283.9478149

endloop
endfacet
facet normal 0.4566572011 -0.6528471708 -0.6043631434
outer loop
vertex 79.44750214 45.46381378 283.9478149
vertex 79.56581879 44.96945953 284.571228
vertex 79.13796234 44.9966507 284.2185669

endloop
endfacet
facet normal 0.4687173069 -0.6544338465 -0.593313098
outer loop
vertex 79.44750214 45.46381378 283.9478149
vertex 79.13796234 44.9966507 284.2185669
vertex 79.03243256 45.5195694 283.5584106

endloop
endfacet
facet normal 0.4679299891 -0.6548281312 -0.5934995413
outer loop
vertex 79.03243256 45.5195694 283.5584106
vertex 79.13796234 44.9966507 284.2185669
vertex 78.71553802 45.05265045 283.8237305

endloop
endfacet
facet normal 0.4560065866 -0.6530583501 -0.6046261787
outer loop
vertex 79.03243256 45.5195694 283.5584106
vertex 78.71553802 45.05265045 283.8237305
vertex 78.60079193 45.58934784 283.1575012

endloop
endfacet
facet normal 0.4551255107 -0.6534907818 -0.6048228145
outer loop
vertex 78.60079193 45.58934784 283.1575012
vertex 78.71553802 45.05265045 283.8237305
vertex 78.27953339 45.12323761 283.4193726

endloop
endfacet
facet normal 0.4450098574 -0.6517578959 -0.61414814
outer loop
vertex 78.60079193 45.58934784 283.1575012
vertex 78.27953339 45.12323761 283.4193726
vertex 78.16692352 45.66728973 282.7604065

endloop
endfacet
facet normal 0.4435200095 -0.6524637938 -0.6144763231
outer loop
vertex 78.16692352 45.66728973 282.7604065
vertex 78.27953339 45.12323761 283.4193726
vertex 77.84243011 45.20215607 283.0200806

endloop
endfacet
facet normal 0.4286138713 -0.6495885253 -0.6279529929
outer loop
vertex 78.16692352 45.66728973 282.7604065
vertex 77.84243011 45.20215607 283.0200806
vertex 77.72814178 45.75736237 282.3677368

endloop
endfacet
facet normal 0.4265048802 -0.6505455375 -0.6283980012
outer loop
vertex 77.72814178 45.75736237 282.3677368
vertex 77.84243011 45.20215607 283.0200806
vertex 77.39943695 45.2937088 282.6246338

endloop
endfacet
facet normal 0.4128499031 -0.6475749016 -0.6404699087
outer loop
vertex 77.72814178 45.75734711 282.3677368
vertex 77.39943695 45.2937088 282.6246338
vertex 77.28472137 45.85746002 281.9806824

endloop
endfacet
facet normal 0.4101750553 -0.6487378478 -0.6410114169
outer loop
vertex 77.28472137 45.85746002 281.9806824
vertex 77.39943695 45.2937088 282.6246338
vertex 76.95384979 45.39499664 282.2369995

endloop
endfacet
facet normal 0.3969533741 -0.6455945969 -0.6524075866
outer loop
vertex 77.28472137 45.85746002 281.9806824
vertex 76.95384979 45.39499664 282.2369995
vertex 76.83577728 45.96651459 281.5996094

endloop
endfacet
facet normal 0.3936918974 -0.646961689 -0.653029263
outer loop
vertex 76.83577728 45.96651459 281.5996094
vertex 76.95384979 45.39499664 282.2369995
vertex 76.5033493 45.50525665 281.8561707

endloop
endfacet
facet normal 0.380905211 -0.6437054276 -0.6637427807
outer loop
vertex 76.83577728 45.96652985 281.5996399
vertex 76.5033493 45.50527191 281.8562012
vertex 76.382164 46.08386993 281.2255249

endloop
endfacet
facet normal 0.3772541583 -0.6451810598 -0.6643949747
outer loop
vertex 76.382164 46.08386993 281.2255249
vertex 76.5033493 45.50527191 281.8562012
vertex 76.04845428 45.62384796 281.4827576

endloop
endfacet
facet normal 0.3651541173 -0.6419129968 -0.6742479205
outer loop
vertex 76.382164 46.08386993 281.2255249
vertex 76.04845428 45.62384796 281.4827576
vertex 75.92662811 46.20894623 280.8597412

endloop
endfacet
facet normal 0.3614505231 -0.6433500648 -0.6748734117
outer loop
vertex 75.92662811 46.20894623 280.8597412
vertex 76.04845428 45.62384796 281.4827576
vertex 75.5906601 45.75045013 281.1168823

endloop
endfacet
facet normal 0.3470385969 -0.639193356 -0.6862915754
outer loop
vertex 75.92662811 46.20894623 280.8597412
vertex 75.5906601 45.75045013 281.1168823
vertex 75.47255707 46.34430695 280.5040588

endloop
endfacet
facet normal 0.3434233665 -0.6405160427 -0.6868766546
outer loop
vertex 75.47255707 46.34430695 280.5040588
vertex 75.5906601 45.75045013 281.1168823
vertex 75.13161469 45.88820648 280.7589111

endloop
endfacet
facet normal 0.3254897594 -0.6348506212 -0.7007289529
outer loop
vertex 75.47255707 46.34430695 280.5040588
vertex 75.13161469 45.88820648 280.7589111
vertex 75.02300262 46.49381256 280.15979

endloop
endfacet
facet normal 0.3219763935 -0.6360290051 -0.7012832761
outer loop
vertex 75.02300262 46.49381256 280.15979
vertex 75.13161469 45.88820648 280.7589111
vertex 74.67412567 46.04128265 280.4100342

endloop
endfacet
facet normal 0.3035440147 -0.6294980049 -0.7152575254
outer loop
vertex 75.02303314 46.49382782 280.1598206
vertex 74.67415619 46.04129791 280.4100342
vertex 74.57866669 46.65938568 279.825531

endloop
endfacet
facet normal 0.3002539873 -0.6304916739 -0.7157708406
outer loop
vertex 74.57866669 46.65938568 279.825531
vertex 74.67415619 46.04129791 280.4100342
vertex 74.21901703 46.21167755 280.0690308

endloop
endfacet
facet normal 0.2764215767 -0.6209743619 -0.7334724665
outer loop
vertex 74.57866669 46.65938568 279.825531
vertex 74.21901703 46.21167755 280.0690308
vertex 74.1370163 46.84841156 279.499054

endloop
endfacet
facet normal 0.2735258043 -0.6217390895 -0.7339100838
outer loop
vertex 74.1370163 46.84841156 279.499054
vertex 74.21901703 46.21167755 280.0690308
vertex 73.76573944 46.40628815 279.7352295

endloop
endfacet
facet normal 0.2581014931 -0.6148323417 -0.7452280521
outer loop
vertex 74.1370163 46.84841156 279.499054
vertex 73.76573944 46.40628815 279.7352295
vertex 73.70046234 47.05184174 279.1800232

endloop
endfacet
facet normal 0.2551491857 -0.6155181527 -0.7456784248
outer loop
vertex 73.70046234 47.05184174 279.1800232
vertex 73.76573944 46.40628815 279.7352295
vertex 73.31920624 46.61515045 279.4100342

endloop
endfacet
facet normal 0.230218634 -0.6032099128 -0.7636342049
outer loop
vertex 73.70046234 47.05184174 279.1800232
vertex 73.31920624 46.61515045 279.4100342
vertex 73.29137421 47.26651764 278.8871155

endloop
endfacet
facet normal 0.2249937356 -0.604111135 -0.7644786835
outer loop
vertex 73.29137421 47.26651764 278.8871155
vertex 73.31920624 46.61515045 279.4100342
vertex 72.89461517 46.84038544 279.1070862

endloop
endfacet
facet normal 0.1814219803 -0.5791741014 -0.7947599888
outer loop
vertex 73.29137421 47.26651764 278.8871155
vertex 72.89461517 46.84038544 279.1070862
vertex 72.91912079 47.48915863 278.6398926

endloop
endfacet
facet normal 0.1802300662 -0.5792726278 -0.7949593067
outer loop
vertex 72.91912079 47.48915863 278.6398926
vertex 72.89461517 46.84038544 279.1070862
vertex 72.51805878 47.08063507 278.8466492

endloop
endfacet
facet normal 0.2297240198 -0.609526217 -0.758752048
outer loop
vertex 72.91909027 47.48915863 278.6398926
vertex 72.51808929 47.08065033 278.8466492
vertex 72.56612396 47.64887238 278.4047241

endloop
endfacet
facet normal 0.211414054 -0.6111155152 -0.7627856731
outer loop
vertex 72.56612396 47.64887238 278.4047241
vertex 72.51808929 47.08065033 278.8466492
vertex 72.19249725 47.27419281 278.6013489

endloop
endfacet
facet normal -0.5703832507 0.1444547474 -0.8085764647
outer loop
vertex 72.56612396 47.64887238 278.4047241
vertex 72.19249725 47.27419281 278.6013489
vertex 72.10729218 47.89896393 278.7730713

endloop
endfacet
facet normal -0.8959491849 0 -0.4441566169
outer loop
vertex 72.10729218 47.89896393 278.7730713
vertex 72.19249725 47.27419281 278.6013489
vertex 72.10729218 47.89894867 278.7730713

endloop
endfacet
endsolid
