solid 
facet normal -nan(ind) -nan(ind) -nan(ind)
outer loop
vertex 74.5923996 54.57427216 322.7893982
vertex 74.5923996 54.57427216 322.7893982
vertex 74.8524704 54.29250336 322.2667236

endloop
endfacet
facet normal 0.5441917181 0.8211607337 -0.1719025373
outer loop
vertex 74.8524704 54.29250336 322.2667236
vertex 74.5923996 54.57427216 322.7893982
vertex 75.0802536 54.2443924 322.7579956

endloop
endfacet
facet normal 0.9039308429 -0.05333539844 -0.4243398309
outer loop
vertex 74.8524704 54.29250336 322.2667236
vertex 75.0802536 54.2443924 322.7579956
vertex 74.81893158 53.94017792 322.239563

endloop
endfacet
facet normal 0.9150254726 -0.143570289 -0.3769827485
outer loop
vertex 74.81893158 53.94017792 322.239563
vertex 75.0802536 54.2443924 322.7579956
vertex 75.04711151 53.9003067 322.8085938

endloop
endfacet
facet normal 0.9236724377 -0.07546550035 -0.375678122
outer loop
vertex 74.81893158 53.94017792 322.239563
vertex 75.04711151 53.9003067 322.8085938
vertex 74.77559662 53.52568817 322.2162781

endloop
endfacet
facet normal 0.9254423976 -0.08808776736 -0.3685063422
outer loop
vertex 74.77559662 53.52568817 322.2162781
vertex 75.04711151 53.9003067 322.8085938
vertex 75.01036835 53.48722076 322.8150635

endloop
endfacet
facet normal 0.9113266468 -0.1824736148 -0.369035393
outer loop
vertex 74.77559662 53.52568817 322.2162781
vertex 75.01036835 53.48722076 322.8150635
vertex 74.67989349 53.05901337 322.2106934

endloop
endfacet
facet normal 0.9093165398 -0.1591319591 -0.3844742477
outer loop
vertex 74.67989349 53.05901337 322.2106934
vertex 75.01036835 53.48722076 322.8150635
vertex 74.92354584 53.01395416 322.805603

endloop
endfacet
facet normal 0.8966923356 -0.2203067243 -0.3839372993
outer loop
vertex 74.67989349 53.05901337 322.2106934
vertex 74.92354584 53.01395416 322.805603
vertex 74.55904388 52.57819366 322.2043457

endloop
endfacet
facet normal 0.8939281106 -0.1835416257 -0.4089070559
outer loop
vertex 74.55904388 52.57819366 322.2043457
vertex 74.92354584 53.01395416 322.805603
vertex 74.81713104 52.52571869 322.7921143

endloop
endfacet
facet normal 0.8787688017 -0.2476357669 -0.4079729021
outer loop
vertex 74.55904388 52.57819366 322.2043457
vertex 74.81713104 52.52571869 322.7921143
vertex 74.42284393 52.10170746 322.2001953

endloop
endfacet
facet normal 0.8757110834 -0.2022999525 -0.4384116828
outer loop
vertex 74.42284393 52.10170746 322.2001953
vertex 74.81713104 52.52571869 322.7921143
vertex 74.69908905 52.04351044 322.7788391

endloop
endfacet
facet normal 0.8528766036 -0.287167877 -0.4360459745
outer loop
vertex 74.42284393 52.10170746 322.2001953
vertex 74.69908905 52.04351044 322.7788391
vertex 74.2627182 51.62706757 322.199585

endloop
endfacet
facet normal 0.8492549062 -0.2265073508 -0.4769282639
outer loop
vertex 74.2627182 51.62706757 322.199585
vertex 74.69908905 52.04351044 322.7788391
vertex 74.56273651 51.56093597 322.7652283

endloop
endfacet
facet normal 0.8210248947 -0.3197985888 -0.472913146
outer loop
vertex 74.2627182 51.62706757 322.1996155
vertex 74.56273651 51.56093597 322.7651978
vertex 74.08504486 51.15937042 322.207428

endloop
endfacet
facet normal 0.8170517683 -0.2509146929 -0.519103229
outer loop
vertex 74.08504486 51.15937042 322.207428
vertex 74.56273651 51.56093597 322.7651978
vertex 74.41176605 51.08618927 322.7570496

endloop
endfacet
facet normal 0.7864423394 -0.3436285257 -0.5132522583
outer loop
vertex 74.08504486 51.15937042 322.207428
vertex 74.41176605 51.08618927 322.7570496
vertex 73.8950119 50.69322968 322.2283325

endloop
endfacet
facet normal 0.7823624015 -0.280921191 -0.555870831
outer loop
vertex 73.8950119 50.69322968 322.2283325
vertex 74.41176605 51.08618927 322.7570496
vertex 74.24556732 50.6132431 322.762146

endloop
endfacet
facet normal 0.7537069917 -0.3612191975 -0.5490415096
outer loop
vertex 73.89504242 50.69324493 322.228363
vertex 74.24556732 50.61325836 322.7621765
vertex 73.69838715 50.23021698 322.263031

endloop
endfacet
facet normal 0.7501267791 -0.3112335801 -0.5834754109
outer loop
vertex 73.69838715 50.23021698 322.263031
vertex 74.24556732 50.61325836 322.7621765
vertex 74.06731415 50.14398956 322.7833252

endloop
endfacet
facet normal 0.7277083397 -0.3702619374 -0.5773617625
outer loop
vertex 73.69838715 50.23021698 322.263031
vertex 74.06731415 50.14398956 322.7833252
vertex 73.50234222 49.77124786 322.3102722

endloop
endfacet
facet normal 0.7255502343 -0.3414553702 -0.5974823833
outer loop
vertex 73.50234222 49.77124786 322.3102722
vertex 74.06731415 50.14398956 322.7833252
vertex 73.88121796 49.68004608 322.8224792

endloop
endfacet
facet normal 0.7135820985 -0.3714755476 -0.5939750075
outer loop
vertex 73.50234222 49.77124786 322.3102722
vertex 73.88121796 49.68004608 322.8224792
vertex 73.31096649 49.31374359 322.3664856

endloop
endfacet
facet normal 0.7133475542 -0.3683131635 -0.5962219834
outer loop
vertex 73.31096649 49.31374359 322.3664856
vertex 73.88121796 49.68004608 322.8224792
vertex 73.6896286 49.21881866 322.8781738

endloop
endfacet
facet normal 0.7128477097 -0.3695162535 -0.596075356
outer loop
vertex 73.31096649 49.31374359 322.3664856
vertex 73.6896286 49.21881866 322.8781738
vertex 73.12453461 48.85730743 322.4264832

endloop
endfacet
facet normal 0.7140269279 -0.387899667 -0.5828374028
outer loop
vertex 73.12453461 48.85730743 322.4264832
vertex 73.6896286 49.21881866 322.8781738
vertex 73.49425507 48.76000214 322.9441833

endloop
endfacet
facet normal 0.7239005566 -0.3647295535 -0.5856110454
outer loop
vertex 73.12453461 48.85732269 322.4265442
vertex 73.49428558 48.7600174 322.9442139
vertex 72.94335175 48.40167999 322.4863586

endloop
endfacet
facet normal 0.7255619168 -0.4006183743 -0.5595219731
outer loop
vertex 72.94335175 48.40167999 322.4863586
vertex 73.49428558 48.7600174 322.9442139
vertex 73.2967453 48.30336761 323.0150146

endloop
endfacet
facet normal 0.7430610061 -0.3605814874 -0.5637741685
outer loop
vertex 72.94335175 48.40167999 322.4863586
vertex 73.2967453 48.30336761 323.0150146
vertex 72.76256561 47.94443512 322.5405273

endloop
endfacet
facet normal 0.7440891266 -0.4029153585 -0.5329076648
outer loop
vertex 72.76256561 47.94443512 322.5405273
vertex 73.2967453 48.30336761 323.0150146
vertex 73.09679413 47.84615326 323.0815125

endloop
endfacet
facet normal 0.7634083629 -0.3591123223 -0.5368855
outer loop
vertex 72.76256561 47.94443512 322.5405273
vertex 73.09679413 47.84615326 323.0815125
vertex 72.58162689 47.48638153 322.5896301

endloop
endfacet
facet normal 0.7633833289 -0.4038014412 -0.5041729212
outer loop
vertex 72.58162689 47.48638153 322.5896301
vertex 73.09679413 47.84615326 323.0815125
vertex 72.8953476 47.38854218 323.1430054

endloop
endfacet
facet normal 0.7897502184 -0.343236357 -0.5084127188
outer loop
vertex 72.58162689 47.48638153 322.5896301
vertex 72.8953476 47.38854218 323.1430054
vertex 72.41573334 47.03926849 322.6337891

endloop
endfacet
facet normal 0.7876069546 -0.4068524539 -0.4627595246
outer loop
vertex 72.41573334 47.03926849 322.6337891
vertex 72.8953476 47.38854218 323.1430054
vertex 72.70030975 46.94329071 323.2025146

endloop
endfacet
facet normal 0.7946605682 -0.3917409778 -0.4637387395
outer loop
vertex 72.41573334 47.03926849 322.6337891
vertex 72.70030975 46.94329071 323.2025146
vertex 72.25600433 46.64849091 322.6901855

endloop
endfacet
facet normal 0.7870610356 -0.4465093911 -0.4256338775
outer loop
vertex 72.25600433 46.64849091 322.6901855
vertex 72.70030975 46.94329071 323.2025146
vertex 72.50637054 46.56195831 323.243927

endloop
endfacet
facet normal 0.8164547682 -0.386044234 -0.4293850064
outer loop
vertex 72.25603485 46.64849091 322.6901855
vertex 72.50634003 46.56195831 323.243927
vertex 72.12212372 46.33150482 322.7205505

endloop
endfacet
facet normal 0.8225530982 -0.3454672992 -0.451728642
outer loop
vertex 72.12212372 46.33150482 322.7205505
vertex 72.50634003 46.56195831 323.243927
vertex 72.35610199 46.25524139 323.2049255

endloop
endfacet
facet normal -0.03438870981 -0.9896658063 -0.1392084658
outer loop
vertex 72.12212372 46.33150482 322.7205505
vertex 72.35610199 46.25524139 323.2049255
vertex 71.78688812 46.27245331 323.223175

endloop
endfacet
facet normal 0.030224232 0.9995432496 0
outer loop
vertex 71.78688812 46.27245331 323.223175
vertex 72.35610199 46.25524139 323.2049255
vertex 71.78688812 46.27245331 323.2231445

endloop
endfacet
facet normal 0.06423588097 -0 0.9979346991
outer loop
vertex 74.5923996 54.57427216 322.7893982
vertex 74.5923996 54.5742569 322.7893982
vertex 75.0802536 54.2443924 322.7579956

endloop
endfacet
facet normal 0.561830759 0.8244844079 0.06761389971
outer loop
vertex 75.0802536 54.2443924 322.7579956
vertex 74.5923996 54.5742569 322.7893982
vertex 75.01808929 54.26094818 323.0726624

endloop
endfacet
facet normal 0.9782862067 -0.0653025806 0.1967021376
outer loop
vertex 75.0802536 54.2443924 322.7579956
vertex 75.01808929 54.26094818 323.0726624
vertex 75.04711151 53.9003067 322.8085938

endloop
endfacet
facet normal 0.9541589618 -0.1230053753 0.2728558183
outer loop
vertex 75.04711151 53.9003067 322.8085938
vertex 75.01808929 54.26094818 323.0726624
vertex 74.95235443 53.91797638 323.1479187

endloop
endfacet
facet normal 0.9588826299 -0.08103080094 0.2719891369
outer loop
vertex 75.04711151 53.9003067 322.8085938
vertex 74.95235443 53.91797638 323.1479187
vertex 75.01036835 53.48722076 322.8150635

endloop
endfacet
facet normal 0.955550611 -0.08859720081 0.2812002599
outer loop
vertex 75.01036835 53.48722076 322.8150635
vertex 74.95235443 53.91797638 323.1479187
vertex 74.90755463 53.50434113 323.1698303

endloop
endfacet
facet normal 0.9427028298 -0.1785757989 0.2818190753
outer loop
vertex 75.01036835 53.48722076 322.8150635
vertex 74.90755463 53.50434113 323.1698303
vertex 74.92354584 53.01395416 322.805603

endloop
endfacet
facet normal 0.9494450688 -0.1666449457 0.2660516798
outer loop
vertex 74.92354584 53.01395416 322.805603
vertex 74.90755463 53.50434113 323.1698303
vertex 74.82717133 53.03398895 323.1620789

endloop
endfacet
facet normal 0.9402680397 -0.2122915536 0.26613608
outer loop
vertex 74.92354584 53.01395416 322.805603
vertex 74.82717133 53.03398895 323.1620789
vertex 74.81713104 52.52571869 322.7921143

endloop
endfacet
facet normal 0.9512124658 -0.1936353594 0.2402085513
outer loop
vertex 74.81713104 52.52571869 322.7921143
vertex 74.82717133 53.03398895 323.1620789
vertex 74.7312851 52.54906464 323.1508789

endloop
endfacet
facet normal 0.9412261844 -0.2370320112 0.2406429946
outer loop
vertex 74.81713104 52.52571869 322.7921143
vertex 74.7312851 52.54906464 323.1508789
vertex 74.69908905 52.04351044 322.7788391

endloop
endfacet
facet normal 0.954302907 -0.2141579241 0.2084283978
outer loop
vertex 74.69908905 52.04351044 322.7788391
vertex 74.7312851 52.54906464 323.1508789
vertex 74.62599945 52.06941986 323.1401062

endloop
endfacet
facet normal 0.9394030571 -0.2713398337 0.2095149308
outer loop
vertex 74.69908905 52.04351044 322.7788391
vertex 74.62599945 52.06941986 323.1401062
vertex 74.56273651 51.56093597 322.7652283

endloop
endfacet
facet normal 0.9562678337 -0.2410806715 0.1656254381
outer loop
vertex 74.56273651 51.56093597 322.7652283
vertex 74.62599945 52.06941986 323.1401062
vertex 74.50713348 51.5904007 323.1291504

endloop
endfacet
facet normal 0.9386281371 -0.3013657033 0.1677971631
outer loop
vertex 74.56273651 51.56093597 322.7651978
vertex 74.50713348 51.5904007 323.1291504
vertex 74.41176605 51.08618927 322.7570496

endloop
endfacet
facet normal 0.9564659595 -0.2673227787 0.1170959547
outer loop
vertex 74.41176605 51.08618927 322.7570496
vertex 74.50713348 51.5904007 323.1291504
vertex 74.37606049 51.11878204 323.1231079

endloop
endfacet
facet normal 0.9369629622 -0.3279601038 0.1205925941
outer loop
vertex 74.41176605 51.08618927 322.7570496
vertex 74.37606049 51.11878204 323.1231079
vertex 74.24556732 50.6132431 322.762146

endloop
endfacet
facet normal 0.9517739415 -0.2979409993 0.07319548726
outer loop
vertex 74.24556732 50.6132431 322.762146
vertex 74.37606049 51.11878204 323.1231079
vertex 74.22847748 50.64884186 323.1292725

endloop
endfacet
facet normal 0.9331767559 -0.3509810865 0.07741630822
outer loop
vertex 74.24556732 50.61325836 322.7621765
vertex 74.228508 50.64887238 323.1292725
vertex 74.06731415 50.14398956 322.7833252

endloop
endfacet
facet normal 0.9439406395 -0.3278462589 0.03863747045
outer loop
vertex 74.06731415 50.14398956 322.7833252
vertex 74.228508 50.64887238 323.1292725
vertex 74.06560516 50.18235016 323.1505737

endloop
endfacet
facet normal 0.9285102487 -0.3688264191 0.04284622148
outer loop
vertex 74.06731415 50.14398956 322.7833252
vertex 74.06560516 50.18235016 323.1505737
vertex 73.88121796 49.68004608 322.8224792

endloop
endfacet
facet normal 0.9343137145 -0.3559015989 0.01979711279
outer loop
vertex 73.88121796 49.68004608 322.8224792
vertex 74.06560516 50.18235016 323.1505737
vertex 73.88890839 49.72064972 323.1894836

endloop
endfacet
facet normal 0.9242272973 -0.3811613917 0.02280309238
outer loop
vertex 73.88121796 49.68004608 322.8224792
vertex 73.88890839 49.72064972 323.1894836
vertex 73.6896286 49.21881866 322.8781738

endloop
endfacet
facet normal 0.9248104692 -0.3798824847 0.02036815695
outer loop
vertex 73.6896286 49.21881866 322.8781738
vertex 73.88890839 49.72064972 323.1894836
vertex 73.69890594 49.26107025 323.2449646

endloop
endfacet
facet normal 0.920958221 -0.3890663981 0.02152351663
outer loop
vertex 73.6896286 49.21881866 322.8781738
vertex 73.69890594 49.26107025 323.2449646
vertex 73.49425507 48.76000214 322.9441833

endloop
endfacet
facet normal 0.9172617197 -0.3966007531 0.03658995777
outer loop
vertex 73.49425507 48.76000214 322.9441833
vertex 73.69890594 49.26107025 323.2449646
vertex 73.49834442 48.80329132 323.3108826

endloop
endfacet
facet normal 0.9192320108 -0.3920694888 0.03597289324
outer loop
vertex 73.49428558 48.7600174 322.9442139
vertex 73.49840546 48.80332184 323.3109131
vertex 73.2967453 48.30336761 323.0150146

endloop
endfacet
facet normal 0.9113559723 -0.406373024 0.06550804526
outer loop
vertex 73.2967453 48.30336761 323.0150146
vertex 73.49840546 48.80332184 323.3109131
vertex 73.28990936 48.34712982 323.3815918

endloop
endfacet
facet normal 0.9177222252 -0.3920466006 0.06391646713
outer loop
vertex 73.2967453 48.30336761 323.0150146
vertex 73.28990936 48.34712982 323.3815918
vertex 73.09679413 47.84615326 323.0815125

endloop
endfacet
facet normal 0.9073790312 -0.4086562693 0.09830229729
outer loop
vertex 73.09679413 47.84615326 323.0815125
vertex 73.28990936 48.34712982 323.3815918
vertex 73.07683563 47.88990021 323.4476013

endloop
endfacet
facet normal 0.915686965 -0.3901247084 0.09654077142
outer loop
vertex 73.09679413 47.84615326 323.0815125
vertex 73.07683563 47.88990021 323.4476013
vertex 72.8953476 47.38854218 323.1430054

endloop
endfacet
facet normal 0.9034336209 -0.4076684117 0.1327182502
outer loop
vertex 72.8953476 47.38854218 323.1430054
vertex 73.07683563 47.88990021 323.4476013
vertex 72.86135101 47.43210602 323.5082397

endloop
endfacet
facet normal 0.9144123793 -0.3830663562 0.130805701
outer loop
vertex 72.8953476 47.38854218 323.1430054
vertex 72.86135101 47.43210602 323.5082397
vertex 72.70030975 46.94329071 323.2025146

endloop
endfacet
facet normal 0.8951068521 -0.4077246487 0.1804004014
outer loop
vertex 72.70030975 46.94329071 323.2025146
vertex 72.86135101 47.43210602 323.5082397
vertex 72.64669037 46.98601532 323.5651245

endloop
endfacet
facet normal 0.8843727708 -0.430072099 0.1814462245
outer loop
vertex 72.70030975 46.94329071 323.2025146
vertex 72.64669037 46.98601532 323.5651245
vertex 72.50637054 46.56195831 323.243927

endloop
endfacet
facet normal 0.8651353717 -0.4515698254 0.2182323933
outer loop
vertex 72.50637054 46.56195831 323.243927
vertex 72.64669037 46.98601532 323.5651245
vertex 72.43965912 46.60034943 323.5878296

endloop
endfacet
facet normal 0.8651717305 -0.4515268803 0.2181772292
outer loop
vertex 72.50634003 46.56195831 323.243927
vertex 72.43965912 46.60034943 323.5877991
vertex 72.35610199 46.25524139 323.2049255

endloop
endfacet
facet normal 0.8946857452 -0.410928905 0.1751426458
outer loop
vertex 72.35610199 46.25524139 323.2049255
vertex 72.43965912 46.60034943 323.5877991
vertex 72.30651093 46.28194427 323.5209045

endloop
endfacet
facet normal -0.02757319063 -0.9964231849 0.07987868786
outer loop
vertex 72.35610199 46.25524139 323.2049255
vertex 72.30651093 46.28194427 323.5209045
vertex 71.78688812 46.27245331 323.2231445

endloop
endfacet
facet normal 0.4971867204 0 -0.8676435947
outer loop
vertex 71.78688812 46.27245331 323.2231445
vertex 72.30651093 46.28194427 323.5209045
vertex 71.78688812 46.27243805 323.2231445

endloop
endfacet
facet normal 0.7038882375 0.5022655129 -0.5022655129
outer loop
vertex 74.5923996 54.5742569 322.7893982
vertex 74.5923996 54.57428741 322.7894287
vertex 75.01808929 54.26094818 323.0726624

endloop
endfacet
facet normal 0.475730598 0.8501823545 0.2255447358
outer loop
vertex 75.01808929 54.26094818 323.0726624
vertex 74.5923996 54.57428741 322.7894287
vertex 74.84908295 54.30118561 323.2774658

endloop
endfacet
facet normal 0.7705142498 -0.007823218592 0.6373748779
outer loop
vertex 75.01808929 54.26094818 323.0726624
vertex 74.84908295 54.30118561 323.2774658
vertex 74.95235443 53.91797638 323.1479187

endloop
endfacet
facet normal 0.7136391401 -0.04402692989 0.6991286278
outer loop
vertex 74.95235443 53.91797638 323.1479187
vertex 74.84908295 54.30118561 323.2774658
vertex 74.7533493 53.95415497 323.3533325

endloop
endfacet
facet normal 0.7140799165 -0.04031705111 0.6989022493
outer loop
vertex 74.95235443 53.91797638 323.1479187
vertex 74.7533493 53.95415497 323.3533325
vertex 74.90755463 53.50434113 323.1698303

endloop
endfacet
facet normal 0.706433475 -0.04595073685 0.7062862515
outer loop
vertex 74.90755463 53.50434113 323.1698303
vertex 74.7533493 53.95415497 323.3533325
vertex 74.69649506 53.53931427 323.3832092

endloop
endfacet
facet normal 0.6941394806 -0.1302957237 0.7079501152
outer loop
vertex 74.90755463 53.50434113 323.1698303
vertex 74.69649506 53.53931427 323.3832092
vertex 74.82717133 53.03398895 323.1620789

endloop
endfacet
facet normal 0.7076386809 -0.1215903088 0.6960339546
outer loop
vertex 74.82717133 53.03398895 323.1620789
vertex 74.69649506 53.53931427 323.3832092
vertex 74.62081146 53.07491302 323.3790283

endloop
endfacet
facet normal 0.7011078596 -0.1547097862 0.6960693598
outer loop
vertex 74.82717133 53.03398895 323.1620789
vertex 74.62081146 53.07491302 323.3790283
vertex 74.7312851 52.54906464 323.1508789

endloop
endfacet
facet normal 0.7223498225 -0.1418927908 0.6768139601
outer loop
vertex 74.7312851 52.54906464 323.1508789
vertex 74.62081146 53.07491302 323.3790283
vertex 74.53237152 52.59673309 323.3731689

endloop
endfacet
facet normal 0.7154237032 -0.1722489893 0.6771258116
outer loop
vertex 74.7312851 52.54906464 323.1508789
vertex 74.53237152 52.59673309 323.3731689
vertex 74.62599945 52.06941986 323.1401062

endloop
endfacet
facet normal 0.7415719628 -0.1566463262 0.6523287892
outer loop
vertex 74.62599945 52.06941986 323.1401062
vertex 74.53237152 52.59673309 323.3731689
vertex 74.43605804 52.1223526 323.3687439

endloop
endfacet
facet normal 0.7313796878 -0.1964244395 0.6530706286
outer loop
vertex 74.62599945 52.06941986 323.1401062
vertex 74.43605804 52.1223526 323.3687439
vertex 74.50713348 51.5904007 323.1291504

endloop
endfacet
facet normal 0.7657670379 -0.176256299 0.618493855
outer loop
vertex 74.50713348 51.5904007 323.1291504
vertex 74.43605804 52.1223526 323.3687439
vertex 74.32982635 51.65053558 323.3658142

endloop
endfacet
facet normal 0.7538739443 -0.2174612582 0.619987607
outer loop
vertex 74.50713348 51.5904007 323.1291504
vertex 74.32982635 51.65055084 323.3658447
vertex 74.37606049 51.11878204 323.1231079

endloop
endfacet
facet normal 0.7915764451 -0.1954584867 0.578966856
outer loop
vertex 74.37606049 51.11878204 323.1231079
vertex 74.32982635 51.65055084 323.3658447
vertex 74.21318817 51.18532562 323.3682556

endloop
endfacet
facet normal 0.7783736587 -0.2368184775 0.5814219713
outer loop
vertex 74.37606049 51.11878204 323.1231079
vertex 74.21318817 51.18532562 323.3682556
vertex 74.22847748 50.64884186 323.1292725

endloop
endfacet
facet normal 0.8116131425 -0.2182616889 0.541891098
outer loop
vertex 74.22847748 50.64884186 323.1292725
vertex 74.21318817 51.18532562 323.3682556
vertex 74.07961273 50.72150421 323.3815002

endloop
endfacet
facet normal 0.7991285324 -0.2541694045 0.5447857976
outer loop
vertex 74.228508 50.64887238 323.1292725
vertex 74.07964325 50.72151947 323.3815308
vertex 74.06560516 50.18235016 323.1505737

endloop
endfacet
facet normal 0.8247786164 -0.2406591028 0.5116869211
outer loop
vertex 74.06560516 50.18235016 323.1505737
vertex 74.07964325 50.72151947 323.3815308
vertex 73.92876434 50.26068878 323.4079895

endloop
endfacet
facet normal 0.8143852949 -0.2683063745 0.5145757198
outer loop
vertex 74.06560516 50.18235016 323.1505737
vertex 73.92876434 50.26068878 323.4079895
vertex 73.88890839 49.72064972 323.1894836

endloop
endfacet
facet normal 0.8287652731 -0.2613691092 0.4948073924
outer loop
vertex 73.88890839 49.72064972 323.1894836
vertex 73.92876434 50.26068878 323.4079895
vertex 73.75978851 49.8035202 323.4495239

endloop
endfacet
facet normal 0.8214659095 -0.2796177864 0.4969985485
outer loop
vertex 73.88890839 49.72064972 323.1894836
vertex 73.75978851 49.8035202 323.4495239
vertex 73.69890594 49.26107025 323.2449646

endloop
endfacet
facet normal 0.8230696917 -0.2789390981 0.4947214723
outer loop
vertex 73.69890594 49.26107025 323.2449646
vertex 73.75978851 49.8035202 323.4495239
vertex 73.57189178 49.34732819 323.5049133

endloop
endfacet
facet normal 0.81941998 -0.2876082957 0.4958148599
outer loop
vertex 73.69890594 49.26107025 323.2449646
vertex 73.57189178 49.34732819 323.5049133
vertex 73.49834442 48.80329132 323.3108826

endloop
endfacet
facet normal 0.8103075027 -0.2909606397 0.5086685419
outer loop
vertex 73.49834442 48.80329132 323.3108826
vertex 73.57189178 49.34732819 323.5049133
vertex 73.36830902 48.89165497 323.568573

endloop
endfacet
facet normal 0.8100477457 -0.2913853824 0.50883919
outer loop
vertex 73.49840546 48.80332184 323.3109131
vertex 73.36833954 48.89168549 323.568573
vertex 73.28990936 48.34712982 323.3815918

endloop
endfacet
facet normal 0.7915050387 -0.297339052 0.5339562893
outer loop
vertex 73.28990936 48.34712982 323.3815918
vertex 73.36833954 48.89168549 323.568573
vertex 73.15245819 48.43637848 323.6350403

endloop
endfacet
facet normal 0.7935387492 -0.2927832305 0.5334549546
outer loop
vertex 73.28990936 48.34712982 323.3815918
vertex 73.15245819 48.43637848 323.6350403
vertex 73.07683563 47.88990021 323.4476013

endloop
endfacet
facet normal 0.7708640099 -0.2995039821 0.5621974468
outer loop
vertex 73.07683563 47.88990021 323.4476013
vertex 73.15245819 48.43637848 323.6350403
vertex 72.93038177 47.97919464 323.6959839

endloop
endfacet
facet normal 0.7749531865 -0.2904178202 0.5613420606
outer loop
vertex 73.07683563 47.88990021 323.4476013
vertex 72.93038177 47.97919464 323.6959839
vertex 72.86135101 47.43210602 323.5082397

endloop
endfacet
facet normal 0.7498973012 -0.2974107862 0.5909321904
outer loop
vertex 72.86135101 47.43210602 323.5082397
vertex 72.93038177 47.97919464 323.6959839
vertex 72.70534515 47.52098846 323.750946

endloop
endfacet
facet normal 0.7542651296 -0.2876963019 0.5901821256
outer loop
vertex 72.86135101 47.43210602 323.5082397
vertex 72.70534515 47.52098846 323.750946
vertex 72.64669037 46.98601532 323.5651245

endloop
endfacet
facet normal 0.7175751328 -0.2974277437 0.6297798157
outer loop
vertex 72.64669037 46.98601532 323.5651245
vertex 72.70534515 47.52098846 323.750946
vertex 72.4774704 47.07324982 323.7991333

endloop
endfacet
facet normal 0.6984183192 -0.3377749026 0.6309675574
outer loop
vertex 72.64669037 46.98601532 323.5651245
vertex 72.4774704 47.07324982 323.7991333
vertex 72.43965912 46.60034943 323.5878296

endloop
endfacet
facet normal 0.6674277186 -0.3476246595 0.6585570574
outer loop
vertex 72.43965912 46.60034943 323.5878296
vertex 72.4774704 47.07324982 323.7991333
vertex 72.26680756 46.67890167 323.8044739

endloop
endfacet
facet normal 0.637845397 -0.4044303298 0.6554307342
outer loop
vertex 72.43965912 46.60034943 323.5877991
vertex 72.26680756 46.67888641 323.8044739
vertex 72.30651093 46.28194427 323.5209045

endloop
endfacet
facet normal 0.6840437055 -0.3774800897 0.6241739392
outer loop
vertex 72.30651093 46.28194427 323.5209045
vertex 72.26680756 46.67888641 323.8044739
vertex 72.15096283 46.34598541 323.7301025

endloop
endfacet
facet normal -0.1068955958 -0.9701851606 0.2175180912
outer loop
vertex 72.30651093 46.28194427 323.5209045
vertex 72.15096283 46.34598541 323.7301025
vertex 71.78688812 46.27243805 323.2231445

endloop
endfacet
facet normal -0.4043469429 -0.818020761 0.4090789557
outer loop
vertex 71.78688812 46.27243805 323.2231445
vertex 72.15096283 46.34598541 323.7301025
vertex 71.78688812 46.27246857 323.2232056

endloop
endfacet
facet normal -0.4322598875 -0.8645197749 -0.2564313114
outer loop
vertex 74.5923996 54.57428741 322.7894287
vertex 74.59243011 54.57427216 322.7894287
vertex 74.84908295 54.30118561 323.2774658

endloop
endfacet
facet normal 0.344732523 0.8847115636 0.3137594759
outer loop
vertex 74.84908295 54.30118561 323.2774658
vertex 74.59243011 54.57427216 322.7894287
vertex 74.61748505 54.3549881 323.3802185

endloop
endfacet
facet normal 0.4199925065 0.08173315227 0.9038395286
outer loop
vertex 74.84908295 54.30118561 323.2774658
vertex 74.61748505 54.3549881 323.3802185
vertex 74.7533493 53.95415497 323.3533325

endloop
endfacet
facet normal 0.3550317287 0.0577538535 0.9330685735
outer loop
vertex 74.7533493 53.95415497 323.3533325
vertex 74.61748505 54.3549881 323.3802185
vertex 74.5047226 53.99898529 323.4451599

endloop
endfacet
facet normal 0.3494989276 0.01956410147 0.9367325306
outer loop
vertex 74.7533493 53.95415497 323.3533325
vertex 74.5047226 53.99898529 323.4451599
vertex 74.69649506 53.53931427 323.3832092

endloop
endfacet
facet normal 0.3396070898 0.01493641734 0.9404488206
outer loop
vertex 74.69649506 53.53931427 323.3832092
vertex 74.5047226 53.99898529 323.4451599
vertex 74.43447113 53.58255768 323.4771423

endloop
endfacet
facet normal 0.3277461231 -0.06190012768 0.9427357912
outer loop
vertex 74.69649506 53.53931427 323.3832092
vertex 74.43447113 53.58255768 323.4771423
vertex 74.62081146 53.07491302 323.3790283

endloop
endfacet
facet normal 0.3446829021 -0.05459972471 0.9371299744
outer loop
vertex 74.62081146 53.07491302 323.3790283
vertex 74.43447113 53.58255768 323.4771423
vertex 74.36174774 53.12555695 323.4772644

endloop
endfacet
facet normal 0.3408067226 -0.07451630384 0.9371755719
outer loop
vertex 74.62081146 53.07491302 323.3790283
vertex 74.36174774 53.12555695 323.4772644
vertex 74.53237152 52.59673309 323.3731689

endloop
endfacet
facet normal 0.3686867952 -0.06359185278 0.9273759127
outer loop
vertex 74.53237152 52.59673309 323.3731689
vertex 74.36174774 53.12555695 323.4772644
vertex 74.27794647 52.65572357 323.478363

endloop
endfacet
facet normal 0.3643596172 -0.08262849599 0.9275853634
outer loop
vertex 74.53237152 52.59673309 323.3731689
vertex 74.27794647 52.65572357 323.478363
vertex 74.43605804 52.1223526 323.3687439

endloop
endfacet
facet normal 0.3985552192 -0.06979908049 0.9144844413
outer loop
vertex 74.43605804 52.1223526 323.3687439
vertex 74.27794647 52.65572357 323.478363
vertex 74.18697357 52.18784332 323.4822998

endloop
endfacet
facet normal 0.3924060464 -0.09403336793 0.9149727821
outer loop
vertex 74.43605804 52.1223526 323.3687439
vertex 74.18697357 52.18784332 323.4822998
vertex 74.32982635 51.65053558 323.3658142

endloop
endfacet
facet normal 0.4379827082 -0.07771987468 0.8956175447
outer loop
vertex 74.32982635 51.65053558 323.3658142
vertex 74.18697357 52.18784332 323.4822998
vertex 74.08867645 51.72498322 323.4902039

endloop
endfacet
facet normal 0.4305161834 -0.1032895222 0.8966532946
outer loop
vertex 74.32982635 51.65055084 323.3658447
vertex 74.08867645 51.72498322 323.4902039
vertex 74.21318817 51.18532562 323.3682556

endloop
endfacet
facet normal 0.4816112816 -0.08596554399 0.872158587
outer loop
vertex 74.21318817 51.18532562 323.3682556
vertex 74.08867645 51.72498322 323.4902039
vertex 73.98119354 51.26772308 323.5044861

endloop
endfacet
facet normal 0.4734926224 -0.1114110798 0.8737232685
outer loop
vertex 74.21318817 51.18532562 323.3682556
vertex 73.98119354 51.26772308 323.5044861
vertex 74.07961273 50.72150421 323.3815002

endloop
endfacet
facet normal 0.5198169947 -0.09743078798 0.848703444
outer loop
vertex 74.07961273 50.72150421 323.3815002
vertex 73.98119354 51.26772308 323.5044861
vertex 73.85701752 50.81150055 323.5281677

endloop
endfacet
facet normal 0.5122998953 -0.1188964099 0.8505365849
outer loop
vertex 74.07964325 50.72151947 323.3815308
vertex 73.85707855 50.81151581 323.5281677
vertex 73.92876434 50.26068878 323.4079895

endloop
endfacet
facet normal 0.5484678745 -0.1094847172 0.8289728761
outer loop
vertex 73.92876434 50.26068878 323.4079895
vertex 73.85707855 50.81151581 323.5281677
vertex 73.71459198 50.35767365 323.5625

endloop
endfacet
facet normal 0.5425963402 -0.1250873655 0.830627799
outer loop
vertex 73.92876434 50.26068878 323.4079895
vertex 73.71459198 50.35767365 323.5625
vertex 73.75978851 49.8035202 323.4495239

endloop
endfacet
facet normal 0.5634319782 -0.1206713244 0.817302227
outer loop
vertex 73.75978851 49.8035202 323.4495239
vertex 73.71459198 50.35767365 323.5625
vertex 73.55135345 49.90615082 323.6083679

endloop
endfacet
facet normal 0.559305191 -0.1309814602 0.8185485005
outer loop
vertex 73.75978851 49.8035202 323.4495239
vertex 73.55135345 49.90615082 323.6083679
vertex 73.57189178 49.34732819 323.5049133

endloop
endfacet
facet normal 0.561661303 -0.130606994 0.8169935346
outer loop
vertex 73.57189178 49.34732819 323.5049133
vertex 73.55135345 49.90615082 323.6083679
vertex 73.36559296 49.45417023 323.6638184

endloop
endfacet
facet normal 0.5594996214 -0.1357416213 0.8176395297
outer loop
vertex 73.57189178 49.34732819 323.5049133
vertex 73.36559296 49.45417023 323.6638184
vertex 73.36830902 48.89165497 323.568573

endloop
endfacet
facet normal 0.5461353064 -0.1372846067 0.8263711333
outer loop
vertex 73.36830902 48.89165497 323.568573
vertex 73.36559296 49.45417023 323.6638184
vertex 73.16078949 49.00113678 323.7239075

endloop
endfacet
facet normal 0.5458344817 -0.1381602287 0.8264238834
outer loop
vertex 73.36833954 48.89168549 323.568573
vertex 73.16082001 49.0011673 323.723938
vertex 73.15245819 48.43637848 323.6350403

endloop
endfacet
facet normal 0.5195938349 -0.140350461 0.8428071737
outer loop
vertex 73.15245819 48.43637848 323.6350403
vertex 73.16082001 49.0011673 323.723938
vertex 72.9408493 48.54691315 323.783905

endloop
endfacet
facet normal 0.5197048783 -0.1401015073 0.8427801728
outer loop
vertex 73.15245819 48.43637848 323.6350403
vertex 72.9408493 48.54691315 323.783905
vertex 72.93038177 47.97919464 323.6959839

endloop
endfacet
facet normal 0.4881837666 -0.1423502564 0.8610534072
outer loop
vertex 72.93038177 47.97919464 323.6959839
vertex 72.9408493 48.54691315 323.783905
vertex 72.71361542 48.08974457 323.8371582

endloop
endfacet
facet normal 0.4903274179 -0.1375813335 0.8606104255
outer loop
vertex 72.93038177 47.97919464 323.6959839
vertex 72.71361542 48.08974457 323.8371582
vertex 72.70534515 47.52098846 323.750946

endloop
endfacet
facet normal 0.4562817514 -0.1398402154 0.8787785172
outer loop
vertex 72.70534515 47.52098846 323.750946
vertex 72.71361542 48.08974457 323.8371582
vertex 72.48305511 47.63106537 323.8838806

endloop
endfacet
facet normal 0.4570798874 -0.1380660683 0.878644228
outer loop
vertex 72.70534515 47.52098846 323.750946
vertex 72.48305511 47.63106537 323.8838806
vertex 72.4774704 47.07324982 323.7991333

endloop
endfacet
facet normal 0.4084258676 -0.1410999745 0.9018198848
outer loop
vertex 72.4774704 47.07324982 323.7991333
vertex 72.48305511 47.63106537 323.8838806
vertex 72.24773407 47.18123627 323.9200745

endloop
endfacet
facet normal 0.3844372332 -0.193143025 0.9027202129
outer loop
vertex 72.4774704 47.07324982 323.7991333
vertex 72.24773407 47.18123627 323.9200745
vertex 72.26680756 46.67890167 323.8044739

endloop
endfacet
facet normal 0.3454975486 -0.1979764253 0.917298615
outer loop
vertex 72.26680756 46.67890167 323.8044739
vertex 72.24773407 47.18123627 323.9200745
vertex 72.04012299 46.77622223 323.9108582

endloop
endfacet
facet normal 0.2941117585 -0.3047263026 0.9058918953
outer loop
vertex 72.26680756 46.67888641 323.8044739
vertex 72.04009247 46.77623749 323.9108276
vertex 72.15096283 46.34598541 323.7301025

endloop
endfacet
facet normal 0.3333542943 -0.2908079922 0.8968309164
outer loop
vertex 72.15096283 46.34598541 323.7301025
vertex 72.04009247 46.77623749 323.9108276
vertex 71.93209076 46.43126678 323.8391113

endloop
endfacet
facet normal -0.21775572 -0.9314579964 0.2914935648
outer loop
vertex 72.15096283 46.34598541 323.7301025
vertex 71.93209076 46.43126678 323.8391113
vertex 71.78688812 46.27246857 323.2232056

endloop
endfacet
facet normal 0.184330374 0.9403563738 -0.2859232426
outer loop
vertex 71.78688812 46.27246857 323.2232056
vertex 71.93209076 46.43126678 323.8391113
vertex 71.78691864 46.27245331 323.223175

endloop
endfacet
facet normal -0.3398927748 0.8768954873 0.3398927748
outer loop
vertex 74.59243011 54.57427216 322.7894287
vertex 74.5923996 54.57427216 322.7893982
vertex 74.61748505 54.3549881 323.3802185

endloop
endfacet
facet normal 0.1887771338 0.9232411385 0.3346474171
outer loop
vertex 74.61748505 54.3549881 323.3802185
vertex 74.5923996 54.57427216 322.7893982
vertex 74.36949921 54.41168976 323.363678

endloop
endfacet
facet normal -0.02288744971 0.1864213198 0.9822033048
outer loop
vertex 74.61748505 54.3549881 323.3802185
vertex 74.36949921 54.41168976 323.363678
vertex 74.5047226 53.99898529 323.4451599

endloop
endfacet
facet normal -0.07750009 0.1686118245 0.9826310873
outer loop
vertex 74.5047226 53.99898529 323.4451599
vertex 74.36949921 54.41168976 323.363678
vertex 74.25676727 54.04347992 323.4179688

endloop
endfacet
facet normal -0.09227155149 0.09171538055 0.9915009737
outer loop
vertex 74.5047226 53.99898529 323.4451599
vertex 74.25676727 54.04347992 323.4179688
vertex 74.43447113 53.58255768 323.4771423

endloop
endfacet
facet normal -0.1022836044 0.08777497709 0.9908751845
outer loop
vertex 74.43447113 53.58255768 323.4771423
vertex 74.25676727 54.04347992 323.4179688
vertex 74.17443085 53.62541962 323.4465027

endloop
endfacet
facet normal -0.1140042692 0.01840703934 0.9933097363
outer loop
vertex 74.43447113 53.58255768 323.4771423
vertex 74.17443085 53.62541962 323.4465027
vertex 74.36174774 53.12555695 323.4772644

endloop
endfacet
facet normal -0.09610973299 0.02521994524 0.9950512052
outer loop
vertex 74.36174774 53.12555695 323.4772644
vertex 74.17443085 53.62541962 323.4465027
vertex 74.10256195 53.1757431 323.4509583

endloop
endfacet
facet normal -0.09718807787 0.01966165751 0.9950718284
outer loop
vertex 74.36174774 53.12555695 323.4772644
vertex 74.10256195 53.1757431 323.4509583
vertex 74.27794647 52.65572357 323.478363

endloop
endfacet
facet normal -0.06782202423 0.02968090214 0.9972558022
outer loop
vertex 74.27794647 52.65572357 323.478363
vertex 74.10256195 53.1757431 323.4509583
vertex 74.01995087 52.71422577 323.4590759

endloop
endfacet
facet normal -0.06958734244 0.02192193083 0.9973349571
outer loop
vertex 74.27794647 52.65572357 323.478363
vertex 74.01995087 52.71422577 323.4590759
vertex 74.18697357 52.18784332 323.4822998

endloop
endfacet
facet normal -0.03317841142 0.03354303539 0.9988863468
outer loop
vertex 74.18697357 52.18784332 323.4822998
vertex 74.01995087 52.71422577 323.4590759
vertex 73.93013763 52.25278473 323.4715881

endloop
endfacet
facet normal -0.03545003757 0.02458913624 0.9990689158
outer loop
vertex 74.18697357 52.18784332 323.4822998
vertex 73.93013763 52.25278473 323.4715881
vertex 74.08867645 51.72498322 323.4902039

endloop
endfacet
facet normal 0.01407739706 0.03946783766 0.9991216063
outer loop
vertex 74.08867645 51.72498322 323.4902039
vertex 73.93013763 52.25278473 323.4715881
vertex 73.83409882 51.79878998 323.4908752

endloop
endfacet
facet normal 0.0109431427 0.02864739113 0.9995296597
outer loop
vertex 74.08867645 51.72498322 323.4902039
vertex 73.83409882 51.79880524 323.4908752
vertex 73.98119354 51.26772308 323.5044861

endloop
endfacet
facet normal 0.06751624495 0.04424495623 0.9967366457
outer loop
vertex 73.98119354 51.26772308 323.5044861
vertex 73.83409882 51.79880524 323.4908752
vertex 73.72945404 51.34937286 323.5179138

endloop
endfacet
facet normal 0.06431175023 0.03426552191 0.9973413944
outer loop
vertex 73.98119354 51.26772308 323.5044861
vertex 73.72945404 51.34937286 323.5179138
vertex 73.85701752 50.81150055 323.5281677

endloop
endfacet
facet normal 0.1160897613 0.0464464277 0.9921521544
outer loop
vertex 73.85701752 50.81150055 323.5281677
vertex 73.72945404 51.34937286 323.5179138
vertex 73.60875702 50.90071869 323.5530396

endloop
endfacet
facet normal 0.1137070209 0.03939927369 0.9927327633
outer loop
vertex 73.85707855 50.81151581 323.5281677
vertex 73.60875702 50.90071869 323.5530701
vertex 73.71459198 50.35767365 323.5625

endloop
endfacet
facet normal 0.1556531191 0.04746894911 0.9866705537
outer loop
vertex 73.71459198 50.35767365 323.5625
vertex 73.60875702 50.90071869 323.5530701
vertex 73.46996307 50.45381927 323.5964661

endloop
endfacet
facet normal 0.154495582 0.04440921172 0.9869949222
outer loop
vertex 73.71459198 50.35767365 323.5625
vertex 73.46996307 50.45381927 323.5964661
vertex 73.55135345 49.90615082 323.6083679

endloop
endfacet
facet normal 0.1786847413 0.04791153967 0.9827392101
outer loop
vertex 73.55135345 49.90615082 323.6083679
vertex 73.46996307 50.45381927 323.5964661
vertex 73.30974579 50.00786591 323.6473389

endloop
endfacet
facet normal 0.1784180105 0.04724709317 0.9828197956
outer loop
vertex 73.55135345 49.90615082 323.6083679
vertex 73.30974579 50.00786591 323.6473389
vertex 73.36559296 49.45417023 323.6638184

endloop
endfacet
facet normal 0.1808303595 0.04747695476 0.982367754
outer loop
vertex 73.36559296 49.45417023 323.6638184
vertex 73.30974579 50.00786591 323.6473389
vertex 73.12575531 49.56003571 323.7028503

endloop
endfacet
facet normal 0.181204617 0.04836622998 0.9822553396
outer loop
vertex 73.36559296 49.45417023 323.6638184
vertex 73.12575531 49.56003571 323.7028503
vertex 73.16078949 49.00113678 323.7239075

endloop
endfacet
facet normal 0.1656461507 0.04749590158 0.9850408435
outer loop
vertex 73.16078949 49.00113678 323.7239075
vertex 73.12575531 49.56003571 323.7028503
vertex 72.92153168 49.10961151 323.7589111

endloop
endfacet
facet normal 0.1664553136 0.04940163344 0.98481071
outer loop
vertex 73.16082001 49.0011673 323.723938
vertex 72.92153168 49.10964203 323.7589417
vertex 72.9408493 48.54691315 323.783905

endloop
endfacet
facet normal 0.1363028437 0.04857348651 0.9894757271
outer loop
vertex 72.9408493 48.54691315 323.783905
vertex 72.92153168 49.10964203 323.7589417
vertex 72.70110321 48.65644073 323.811554

endloop
endfacet
facet normal 0.1359199435 0.047711391 0.9895703197
outer loop
vertex 72.9408493 48.54691315 323.783905
vertex 72.70110321 48.65644073 323.811554
vertex 72.71361542 48.08974457 323.8371582

endloop
endfacet
facet normal 0.1002474502 0.04711696506 0.9938462973
outer loop
vertex 72.71361542 48.08974457 323.8371582
vertex 72.70110321 48.65644073 323.811554
vertex 72.47301483 48.19933319 323.8562317

endloop
endfacet
facet normal 0.1016002148 0.05013655871 0.9935611486
outer loop
vertex 72.71361542 48.08974457 323.8371582
vertex 72.47301483 48.19933319 323.8562317
vertex 72.48305511 47.63106537 323.8838806

endloop
endfacet
facet normal 0.06338179857 0.04961670935 0.9967551827
outer loop
vertex 72.48305511 47.63106537 323.8838806
vertex 72.47301483 48.19933319 323.8562317
vertex 72.24166107 47.74018097 323.8937988

endloop
endfacet
facet normal 0.06245094538 0.04754288122 0.996915102
outer loop
vertex 72.48305511 47.63106537 323.8838806
vertex 72.24166107 47.74018097 323.8937988
vertex 72.24773407 47.18123627 323.9200745

endloop
endfacet
facet normal 0.009209556505 0.04705535993 0.9988498688
outer loop
vertex 72.24773407 47.18123627 323.9200745
vertex 72.24166107 47.74018097 323.8937988
vertex 72.00548553 47.28824615 323.9172668

endloop
endfacet
facet normal -0.01764166728 -0.01370669249 0.9997504354
outer loop
vertex 72.24773407 47.18123627 323.9200745
vertex 72.00548553 47.28824615 323.9172668
vertex 72.04012299 46.77622223 323.9108582

endloop
endfacet
facet normal -0.05957912281 -0.01652286015 0.9980868697
outer loop
vertex 72.04012299 46.77622223 323.9108582
vertex 72.00548553 47.28824615 323.9172668
vertex 71.8062973 46.87276459 323.8984985

endloop
endfacet
facet normal -0.1202171668 -0.1658460498 0.9787966609
outer loop
vertex 72.04009247 46.77623749 323.9108276
vertex 71.8062973 46.87276459 323.898468
vertex 71.93209076 46.43126678 323.8391113

endloop
endfacet
facet normal -0.101026997 -0.1607828289 0.9818056226
outer loop
vertex 71.93209076 46.43126678 323.8391113
vertex 71.8062973 46.87276459 323.898468
vertex 71.69374847 46.52083588 323.8292542

endloop
endfacet
facet normal -0.3456697166 -0.8857238889 0.3098478019
outer loop
vertex 71.93209076 46.43126678 323.8391113
vertex 71.69374847 46.52083588 323.8292542
vertex 71.78691864 46.27245331 323.223175

endloop
endfacet
facet normal 0.409701407 -0.8202288151 0.3992110491
outer loop
vertex 71.78691864 46.27245331 323.223175
vertex 71.69374847 46.52083588 323.8292542
vertex 71.78688812 46.27243805 323.223175

endloop
endfacet
facet normal 0.874681592 -0.4335272312 0.2167636156
outer loop
vertex 74.5923996 54.57427216 322.7893982
vertex 74.5923996 54.57428741 322.7894287
vertex 74.36949921 54.41168976 323.363678

endloop
endfacet
facet normal 0.03299385682 0.958219409 0.2841250002
outer loop
vertex 74.36949921 54.41168976 323.363678
vertex 74.5923996 54.57428741 322.7894287
vertex 74.14122772 54.46277618 323.2178955

endloop
endfacet
facet normal -0.47493276 0.2689531446 0.837915957
outer loop
vertex 74.36949921 54.41168976 323.363678
vertex 74.14122772 54.46277618 323.2178955
vertex 74.25676727 54.04347992 323.4179688

endloop
endfacet
facet normal -0.4912061095 0.2611555159 0.8309719563
outer loop
vertex 74.25676727 54.04347992 323.4179688
vertex 74.14122772 54.46277618 323.2178955
vertex 74.02727509 54.08443451 323.2694397

endloop
endfacet
facet normal -0.5162489414 0.1591115445 0.8415287137
outer loop
vertex 74.25676727 54.04347992 323.4179688
vertex 74.02727509 54.08443451 323.2694397
vertex 74.17443085 53.62541962 323.4465027

endloop
endfacet
facet normal -0.5241615772 0.1549814641 0.8373979926
outer loop
vertex 74.17443085 53.62541962 323.4465027
vertex 74.02727509 54.08443451 323.2694397
vertex 73.93477631 53.66490936 323.2891846

endloop
endfacet
facet normal -0.5354819894 0.0938988328 0.8393104672
outer loop
vertex 74.17443085 53.62541962 323.4465027
vertex 73.93477631 53.66490936 323.2891846
vertex 74.10256195 53.1757431 323.4509583

endloop
endfacet
facet normal -0.5199298263 0.1021338627 0.8480811119
outer loop
vertex 74.10256195 53.1757431 323.4509583
vertex 73.93477631 53.66490936 323.2891846
vertex 73.8615036 53.22196198 323.2976074

endloop
endfacet
facet normal -0.5188296437 0.1077864394 0.8480553031
outer loop
vertex 74.10256195 53.1757431 323.4509583
vertex 73.8615036 53.22196198 323.2976074
vertex 74.01995087 52.71422577 323.4590759

endloop
endfacet
facet normal -0.492742449 0.1203044355 0.86181885
outer loop
vertex 74.01995087 52.71422577 323.4590759
vertex 73.8615036 53.22196198 323.2976074
vertex 73.77651215 52.76804352 323.3123779

endloop
endfacet
facet normal -0.4929660857 0.1193180382 0.8618280292
outer loop
vertex 74.01995087 52.71422577 323.4590759
vertex 73.77651215 52.76804352 323.3123779
vertex 73.93013763 52.25278473 323.4715881

endloop
endfacet
facet normal -0.4603073001 0.1339284778 0.8775992393
outer loop
vertex 73.93013763 52.25278473 323.4715881
vertex 73.77651215 52.76804352 323.3123779
vertex 73.68343353 52.31255341 323.3330688

endloop
endfacet
facet normal -0.4601320028 0.1346196532 0.8775853515
outer loop
vertex 73.93013763 52.25278473 323.4715881
vertex 73.68343353 52.31255341 323.3330688
vertex 73.83409882 51.79878998 323.4908752

endloop
endfacet
facet normal -0.4145621955 0.1539190263 0.8969097137
outer loop
vertex 73.83409882 51.79878998 323.4908752
vertex 73.68343353 52.31255341 323.3330688
vertex 73.58367157 51.86673737 323.3634644

endloop
endfacet
facet normal -0.4154223204 0.1506944895 0.897059381
outer loop
vertex 73.83409882 51.79880524 323.4908752
vertex 73.58367157 51.86672211 323.3634949
vertex 73.72945404 51.34937286 323.5179138

endloop
endfacet
facet normal -0.3620818555 0.171451062 0.9162429571
outer loop
vertex 73.72945404 51.34937286 323.5179138
vertex 73.58367157 51.86672211 323.3634949
vertex 73.47499847 51.42455292 323.4032898

endloop
endfacet
facet normal -0.3627632558 0.1693342477 0.9163671732
outer loop
vertex 73.72945404 51.34937286 323.5179138
vertex 73.47499847 51.42455292 323.4032898
vertex 73.60875702 50.90071869 323.5530396

endloop
endfacet
facet normal -0.3125565648 0.1864572763 0.9314193726
outer loop
vertex 73.60875702 50.90071869 323.5530396
vertex 73.47499847 51.42455292 323.4032898
vertex 73.35137177 50.98285675 323.4502258

endloop
endfacet
facet normal -0.3122437298 0.1874105483 0.9313330054
outer loop
vertex 73.60875702 50.90071869 323.5530701
vertex 73.35140228 50.98287201 323.4502563
vertex 73.46996307 50.45381927 323.5964661

endloop
endfacet
facet normal -0.271114558 0.1994788796 0.9416502118
outer loop
vertex 73.46996307 50.45381927 323.5964661
vertex 73.35140228 50.98287201 323.4502563
vertex 73.21105194 50.54232025 323.5031738

endloop
endfacet
facet normal -0.2693472207 0.2041323781 0.9411599636
outer loop
vertex 73.46996307 50.45381927 323.5964661
vertex 73.21105194 50.54232025 323.5031738
vertex 73.30974579 50.00786591 323.6473389

endloop
endfacet
facet normal -0.2451505214 0.2100305259 0.9464609623
outer loop
vertex 73.30974579 50.00786591 323.6473389
vertex 73.21105194 50.54232025 323.5031738
vertex 73.0507431 50.10147858 323.5594788

endloop
endfacet
facet normal -0.2424181253 0.2168147862 0.9456346035
outer loop
vertex 73.30974579 50.00786591 323.6473389
vertex 73.0507431 50.10147858 323.5594788
vertex 73.12575531 49.56003571 323.7028503

endloop
endfacet
facet normal -0.2396822572 0.2173461318 0.9462099075
outer loop
vertex 73.12575531 49.56003571 323.7028503
vertex 73.0507431 50.10147858 323.5594788
vertex 72.8680954 49.65746307 323.6152039

endloop
endfacet
facet normal -0.2365062088 0.2248802334 0.9452478886
outer loop
vertex 73.12575531 49.56003571 323.7028503
vertex 72.8680954 49.65746307 323.6152039
vertex 72.92153168 49.10961151 323.7589111

endloop
endfacet
facet normal -0.2517966926 0.2224990875 0.9418559074
outer loop
vertex 72.92153168 49.10961151 323.7589111
vertex 72.8680954 49.65746307 323.6152039
vertex 72.66628265 49.20946503 323.6670837

endloop
endfacet
facet normal -0.24852027 0.2301047444 0.9408982992
outer loop
vertex 72.92153168 49.10964203 323.7589417
vertex 72.66631317 49.20948029 323.6671143
vertex 72.70110321 48.65644073 323.811554

endloop
endfacet
facet normal -0.2785182893 0.2262591571 0.9333993793
outer loop
vertex 72.70110321 48.65644073 323.811554
vertex 72.66631317 49.20948029 323.6671143
vertex 72.4491806 48.75725555 323.7119446

endloop
endfacet
facet normal -0.2770953178 0.2294610739 0.9330411553
outer loop
vertex 72.70110321 48.65644073 323.811554
vertex 72.4491806 48.75725555 323.7119446
vertex 72.47301483 48.19933319 323.8562317

endloop
endfacet
facet normal -0.3122635186 0.2253321558 0.9228850603
outer loop
vertex 72.47301483 48.19933319 323.8562317
vertex 72.4491806 48.75725555 323.7119446
vertex 72.2248764 48.30017853 323.7476501

endloop
endfacet
facet normal -0.3095305562 0.2314246744 0.9222979546
outer loop
vertex 72.47301483 48.19933319 323.8562317
vertex 72.2248764 48.30017853 323.7476501
vertex 72.24166107 47.74018097 323.8937988

endloop
endfacet
facet normal -0.3464457691 0.2271487117 0.9101532102
outer loop
vertex 72.24166107 47.74018097 323.8937988
vertex 72.2248764 48.30017853 323.7476501
vertex 71.99755096 47.84059906 323.7758179

endloop
endfacet
facet normal -0.3460241258 0.2280863971 0.9100790024
outer loop
vertex 72.24166107 47.74018097 323.8937988
vertex 71.99755096 47.84059906 323.7758179
vertex 72.00548553 47.28824615 323.9172668

endloop
endfacet
facet normal -0.3962478042 0.2224263996 0.890794158
outer loop
vertex 72.00548553 47.28824615 323.9172668
vertex 71.99755096 47.84059906 323.7758179
vertex 71.76729584 47.38677216 323.7867126

endloop
endfacet
facet normal -0.421931684 0.1619849354 0.8920395374
outer loop
vertex 72.00548553 47.28824615 323.9172668
vertex 71.76729584 47.38677216 323.7867126
vertex 71.8062973 46.87276459 323.8984985

endloop
endfacet
facet normal -0.4621555209 0.154830873 0.8731779456
outer loop
vertex 71.8062973 46.87276459 323.8984985
vertex 71.76729584 47.38677216 323.7867126
vertex 71.58196259 46.96161652 323.7640076

endloop
endfacet
facet normal -0.5151565671 -0.003813502612 0.8570876122
outer loop
vertex 71.8062973 46.87276459 323.898468
vertex 71.58193207 46.96161652 323.7640076
vertex 71.69374847 46.52083588 323.8292542

endloop
endfacet
facet normal -0.5317912102 -0.009552968666 0.8468216658
outer loop
vertex 71.69374847 46.52083588 323.8292542
vertex 71.58193207 46.96161652 323.7640076
vertex 71.4703598 46.60158539 323.6898804

endloop
endfacet
facet normal -0.4723303616 -0.8386809826 0.2711425722
outer loop
vertex 71.69374847 46.52083588 323.8292542
vertex 71.4703598 46.60158539 323.6898804
vertex 71.78688812 46.27243805 323.223175

endloop
endfacet
facet normal -0.2940084934 0.6755939722 -0.6761152744
outer loop
vertex 71.78688812 46.27243805 323.223175
vertex 71.4703598 46.60158539 323.6898804
vertex 71.78688812 46.27246857 323.2232056

endloop
endfacet
facet normal -0.5424900055 0.7513745427 -0.3756872714
outer loop
vertex 74.5923996 54.57428741 322.7894287
vertex 74.5923996 54.57427216 322.7893982
vertex 74.14122772 54.46277618 323.2178955

endloop
endfacet
facet normal -0.08433817327 0.9823745489 0.1668150574
outer loop
vertex 74.14122772 54.46277618 323.2178955
vertex 74.5923996 54.57427216 322.7893982
vertex 73.99297333 54.49442291 322.9565735

endloop
endfacet
facet normal -0.8097758293 0.3116256893 0.4971442819
outer loop
vertex 74.14122772 54.46277618 323.2178955
vertex 73.99297333 54.49442291 322.9565735
vertex 74.02727509 54.08443451 323.2694397

endloop
endfacet
facet normal -0.8014160395 0.3190230727 0.505921483
outer loop
vertex 74.02727509 54.08443451 323.2694397
vertex 73.99297333 54.49442291 322.9565735
vertex 73.86821747 54.11249542 322.9997864

endloop
endfacet
facet normal -0.83290869 0.2077839971 0.5129218698
outer loop
vertex 74.02727509 54.08443451 323.2694397
vertex 73.86821747 54.11249542 322.9997864
vertex 73.93477631 53.66490936 323.2891846

endloop
endfacet
facet normal -0.8376966715 0.2031962574 0.5069276094
outer loop
vertex 73.93477631 53.66490936 323.2891846
vertex 73.86821747 54.11249542 322.9997864
vertex 73.76976776 53.69200897 323.0056458

endloop
endfacet
facet normal -0.8482211828 0.1499726176 0.5079655647
outer loop
vertex 73.93477631 53.66490936 323.2891846
vertex 73.76976776 53.69200897 323.0056458
vertex 73.8615036 53.22196198 323.2976074

endloop
endfacet
facet normal -0.8376780748 0.160733372 0.5219772458
outer loop
vertex 73.8615036 53.22196198 323.2976074
vertex 73.76976776 53.69200897 323.0056458
vertex 73.69261932 53.25366974 323.0168152

endloop
endfacet
facet normal -0.8351966143 0.1733647883 0.5219111443
outer loop
vertex 73.8615036 53.22196198 323.2976074
vertex 73.69261932 53.25366974 323.0168152
vertex 73.77651215 52.76804352 323.3123779

endloop
endfacet
facet normal -0.8169866204 0.190191552 0.5443897247
outer loop
vertex 73.77651215 52.76804352 323.3123779
vertex 73.69261932 53.25366974 323.0168152
vertex 73.60118866 52.80501556 323.0363464

endloop
endfacet
facet normal -0.8166640997 0.1916124672 0.5443751812
outer loop
vertex 73.77651215 52.76804352 323.3123779
vertex 73.60118866 52.80501556 323.0363464
vertex 73.68343353 52.31255341 323.3330688

endloop
endfacet
facet normal -0.7931674123 0.2116128355 0.5710564852
outer loop
vertex 73.68343353 52.31255341 323.3330688
vertex 73.60118866 52.80501556 323.0363464
vertex 73.49999237 52.35356903 323.0630798

endloop
endfacet
facet normal -0.7920097113 0.2161588669 0.5709605813
outer loop
vertex 73.68343353 52.31255341 323.3330688
vertex 73.49999237 52.35356903 323.0630798
vertex 73.58367157 51.86673737 323.3634644

endloop
endfacet
facet normal -0.7578555346 0.2432633489 0.605374217
outer loop
vertex 73.58367157 51.86673737 323.3634644
vertex 73.49999237 52.35356903 323.0630798
vertex 73.3897934 51.91335297 323.1020203

endloop
endfacet
facet normal -0.7585560679 0.240920946 0.6054335237
outer loop
vertex 73.58367157 51.86672211 323.3634949
vertex 73.3897934 51.91336823 323.1020203
vertex 73.47499847 51.42455292 323.4032898

endloop
endfacet
facet normal -0.7169629335 0.2709049582 0.6423197985
outer loop
vertex 73.47499847 51.42455292 323.4032898
vertex 73.3897934 51.91336823 323.1020203
vertex 73.26937103 51.47614288 323.1520081

endloop
endfacet
facet normal -0.7175462246 0.2691009045 0.6424266696
outer loop
vertex 73.47499847 51.42455292 323.4032898
vertex 73.26937103 51.47614288 323.1520081
vertex 73.35137177 50.98285675 323.4502258

endloop
endfacet
facet normal -0.6769526601 0.295103848 0.6742765307
outer loop
vertex 73.35137177 50.98285675 323.4502258
vertex 73.26937103 51.47614288 323.1520081
vertex 73.1354599 51.0391922 323.2088013

endloop
endfacet
facet normal -0.6765058041 0.2964925766 0.674115777
outer loop
vertex 73.35140228 50.98287201 323.4502563
vertex 73.13549042 51.03920746 323.2088013
vertex 73.21105194 50.54232025 323.5031738

endloop
endfacet
facet normal -0.6423526406 0.3159788549 0.6982409954
outer loop
vertex 73.21105194 50.54232025 323.5031738
vertex 73.13549042 51.03920746 323.2088013
vertex 72.98741913 50.60305023 323.2699585

endloop
endfacet
facet normal -0.6401022077 0.3218690753 0.6976169348
outer loop
vertex 73.21105194 50.54232025 323.5031738
vertex 72.98741913 50.60305023 323.2699585
vertex 73.0507431 50.10147858 323.5594788

endloop
endfacet
facet normal -0.6198084354 0.3321526647 0.7109937668
outer loop
vertex 73.0507431 50.10147858 323.5594788
vertex 72.98741913 50.60305023 323.2699585
vertex 72.82311249 50.16573334 323.3310242

endloop
endfacet
facet normal -0.6156817675 0.3423384428 0.709746778
outer loop
vertex 73.0507431 50.10147858 323.5594788
vertex 72.82311249 50.16573334 323.3310242
vertex 72.8680954 49.65746307 323.6152039

endloop
endfacet
facet normal -0.6133735776 0.3433783352 0.7112413049
outer loop
vertex 72.8680954 49.65746307 323.6152039
vertex 72.82311249 50.16573334 323.3310242
vertex 72.64098358 49.72434235 323.3870544

endloop
endfacet
facet normal -0.6080015302 0.3560664952 0.7096130848
outer loop
vertex 72.8680954 49.65746307 323.6152039
vertex 72.64098358 49.72434235 323.3870544
vertex 72.66628265 49.20946503 323.6670837

endloop
endfacet
facet normal -0.6211050153 0.3506803811 0.7008935809
outer loop
vertex 72.66628265 49.20946503 323.6670837
vertex 72.64098358 49.72434235 323.3870544
vertex 72.4434433 49.27797699 323.4353333

endloop
endfacet
facet normal -0.6150049567 0.3646008074 0.6991674304
outer loop
vertex 72.66631317 49.20948029 323.6671143
vertex 72.44347382 49.27800751 323.4353638
vertex 72.4491806 48.75725555 323.7119446

endloop
endfacet
facet normal -0.640322268 0.3548064232 0.6812487245
outer loop
vertex 72.4491806 48.75725555 323.7119446
vertex 72.44347382 49.27800751 323.4353638
vertex 72.23381805 48.82645416 323.4734802

endloop
endfacet
facet normal -0.6357384324 0.3651071489 0.6800980568
outer loop
vertex 72.4491806 48.75725555 323.7119446
vertex 72.23381805 48.82645416 323.4734802
vertex 72.2248764 48.30017853 323.7476501

endloop
endfacet
facet normal -0.6646492481 0.3540552855 0.6579409242
outer loop
vertex 72.2248764 48.30017853 323.7476501
vertex 72.23381805 48.82645416 323.4734802
vertex 72.01815033 48.36936188 323.5015869

endloop
endfacet
facet normal -0.6591546535 0.3662962615 0.6567664146
outer loop
vertex 72.2248764 48.30017853 323.7476501
vertex 72.01815033 48.36936188 323.5015869
vertex 71.99755096 47.84059906 323.7758179

endloop
endfacet
facet normal -0.6888263822 0.3547181189 0.6322129369
outer loop
vertex 71.99755096 47.84059906 323.7758179
vertex 72.01815033 48.36936188 323.5015869
vertex 71.80010223 47.90949249 323.5220337

endloop
endfacet
facet normal -0.6851893663 0.3628018796 0.6315777302
outer loop
vertex 71.99755096 47.84059906 323.7758179
vertex 71.80010223 47.90949249 323.5220337
vertex 71.76729584 47.38677216 323.7867126

endloop
endfacet
facet normal -0.724853456 0.3468729854 0.595203042
outer loop
vertex 71.76729584 47.38677216 323.7867126
vertex 71.80010223 47.90949249 323.5220337
vertex 71.58318329 47.45436859 323.5231018

endloop
endfacet
facet normal -0.7467155457 0.2936345041 0.5968204141
outer loop
vertex 71.76729584 47.38677216 323.7867126
vertex 71.58318329 47.45436859 323.5231018
vertex 71.58196259 46.96161652 323.7640076

endloop
endfacet
facet normal -0.7777191401 0.2776510417 0.5639706254
outer loop
vertex 71.58196259 46.96161652 323.7640076
vertex 71.58318329 47.45436859 323.5231018
vertex 71.41564178 47.02251434 323.5046692

endloop
endfacet
facet normal -0.8185519576 0.1389055401 0.5573849082
outer loop
vertex 71.58193207 46.96161652 323.7640076
vertex 71.4156723 47.02251434 323.5046692
vertex 71.4703598 46.60158539 323.6898804

endloop
endfacet
facet normal -0.8468849659 0.1181119606 0.5184933543
outer loop
vertex 71.4703598 46.60158539 323.6898804
vertex 71.4156723 47.02251434 323.5046692
vertex 71.32012177 46.65195465 323.4330139

endloop
endfacet
facet normal -0.5716471076 -0.8011241555 0.1772559732
outer loop
vertex 71.4703598 46.60158539 323.6898804
vertex 71.32012177 46.65195465 323.4330139
vertex 71.78688812 46.27246857 323.2232056

endloop
endfacet
facet normal -0.4655438662 -0.7915074229 0.3959608078
outer loop
vertex 71.78688812 46.27246857 323.2232056
vertex 71.32012177 46.65195465 323.4330139
vertex 71.78688812 46.27245331 323.223175

endloop
endfacet
facet normal -nan(ind) -nan(ind) -nan(ind)
outer loop
vertex 74.5923996 54.57427216 322.7893982
vertex 74.5923996 54.57427216 322.7893982
vertex 73.99297333 54.49442291 322.9565735

endloop
endfacet
facet normal -0.132962957 0.9911153316 -0.00335982861
outer loop
vertex 73.99297333 54.49442291 322.9565735
vertex 74.5923996 54.57427216 322.7893982
vertex 73.98827362 54.49271393 322.6384277

endloop
endfacet
facet normal -0.9500862956 0.3117423058 0.01236026175
outer loop
vertex 73.99297333 54.49442291 322.9565735
vertex 73.98827362 54.49271393 322.6384277
vertex 73.86821747 54.11249542 322.9997864

endloop
endfacet
facet normal -0.9420711398 0.3332882822 0.03769371286
outer loop
vertex 73.86821747 54.11249542 322.9997864
vertex 73.98827362 54.49271393 322.6384277
vertex 73.85485077 54.11420441 322.6506042

endloop
endfacet
facet normal -0.9728333354 0.2283067703 0.03835747018
outer loop
vertex 73.86821747 54.11249542 322.9997864
vertex 73.85485077 54.11420441 322.6506042
vertex 73.76976776 53.69200897 323.0056458

endloop
endfacet
facet normal -0.9743992686 0.2226424515 0.03124651313
outer loop
vertex 73.76976776 53.69200897 323.0056458
vertex 73.85485077 54.11420441 322.6506042
vertex 73.75841522 53.6937027 322.6395569

endloop
endfacet
facet normal -0.9842425585 0.1740265936 0.03132683411
outer loop
vertex 73.76976776 53.69200897 323.0056458
vertex 73.75841522 53.6937027 322.6395569
vertex 73.69261932 53.25366974 323.0168152

endloop
endfacet
facet normal -0.9810599089 0.1877047569 0.04783609509
outer loop
vertex 73.69261932 53.25366974 323.0168152
vertex 73.75841522 53.6937027 322.6395569
vertex 73.67516327 53.2556839 322.6509094

endloop
endfacet
facet normal -0.9783320427 0.2014531344 0.0477816388
outer loop
vertex 73.69261932 53.25366974 323.0168152
vertex 73.67516327 53.2556839 322.6509094
vertex 73.60118866 52.80501556 323.0363464

endloop
endfacet
facet normal -0.9719862938 0.2230145484 0.07421003282
outer loop
vertex 73.60118866 52.80501556 323.0363464
vertex 73.67516327 53.2556839 322.6509094
vertex 73.57384491 52.8073349 322.6712341

endloop
endfacet
facet normal -0.9721467495 0.2223114371 0.07421758026
outer loop
vertex 73.60118866 52.80501556 323.0363464
vertex 73.57384491 52.8073349 322.6712341
vertex 73.49999237 52.35356903 323.0630798

endloop
endfacet
facet normal -0.9627482295 0.24858132 0.1064100489
outer loop
vertex 73.49999237 52.35356903 323.0630798
vertex 73.57384491 52.8073349 322.6712341
vertex 73.46044159 52.35614777 322.6992188

endloop
endfacet
facet normal -0.9623060226 0.2503029704 0.1063741744
outer loop
vertex 73.49999237 52.35356903 323.0630798
vertex 73.46044159 52.35614777 322.6992188
vertex 73.3897934 51.91335297 323.1020203

endloop
endfacet
facet normal -0.946511507 0.2863355279 0.148754552
outer loop
vertex 73.3897934 51.91335297 323.1020203
vertex 73.46044159 52.35614777 322.6992188
vertex 73.33385468 51.91628265 322.740448

endloop
endfacet
facet normal -0.9488373399 0.2783734202 0.1490498632
outer loop
vertex 73.3897934 51.91336823 323.1020203
vertex 73.33385468 51.91629791 322.740448
vertex 73.26937103 51.47614288 323.1520081

endloop
endfacet
facet normal -0.9273133874 0.3189650178 0.1958341599
outer loop
vertex 73.26937103 51.47614288 323.1520081
vertex 73.33385468 51.91629791 322.740448
vertex 73.19484711 51.47937775 322.7938538

endloop
endfacet
facet normal -0.9300604463 0.3105513752 0.1963297576
outer loop
vertex 73.26937103 51.47614288 323.1520081
vertex 73.19484711 51.47937775 322.7938538
vertex 73.1354599 51.0391922 323.2088013

endloop
endfacet
facet normal -0.907359302 0.3466076553 0.2378280163
outer loop
vertex 73.1354599 51.0391922 323.2088013
vertex 73.19484711 51.47937775 322.7938538
vertex 73.0439682 51.04273224 322.8545837

endloop
endfacet
facet normal -0.9090012908 0.3420011401 0.2382266074
outer loop
vertex 73.13549042 51.03920746 323.2088013
vertex 73.04399872 51.0427475 322.8546143
vertex 72.98741913 50.60305023 323.2699585

endloop
endfacet
facet normal -0.8886719942 0.3700897992 0.2707315087
outer loop
vertex 72.98741913 50.60305023 323.2699585
vertex 73.04399872 51.0427475 322.8546143
vertex 72.88225555 50.60688019 322.9195251

endloop
endfacet
facet normal -0.8881394863 0.3714715242 0.2705867887
outer loop
vertex 72.98741913 50.60305023 323.2699585
vertex 72.88225555 50.60688019 322.9195251
vertex 72.82311249 50.16573334 323.3310242

endloop
endfacet
facet normal -0.875479579 0.3871539533 0.289218694
outer loop
vertex 72.82311249 50.16573334 323.3310242
vertex 72.88225555 50.60688019 322.9195251
vertex 72.70995331 50.16976166 322.9830933

endloop
endfacet
facet normal -0.8717530966 0.3962800801 0.2881123722
outer loop
vertex 72.82311249 50.16573334 323.3310242
vertex 72.70995331 50.16976166 322.9830933
vertex 72.64098358 49.72434235 323.3870544

endloop
endfacet
facet normal -0.8703185916 0.3979263306 0.2901725173
outer loop
vertex 72.64098358 49.72434235 323.3870544
vertex 72.70995331 50.16976166 322.9830933
vertex 72.52700043 49.72853851 323.0394287

endloop
endfacet
facet normal -0.8637289405 0.4134173095 0.2881987989
outer loop
vertex 72.64098358 49.72434235 323.3870544
vertex 72.52700043 49.72853851 323.0394287
vertex 72.4434433 49.27797699 323.4353333

endloop
endfacet
facet normal -0.8719730377 0.4042880535 0.2760692835
outer loop
vertex 72.4434433 49.27797699 323.4353333
vertex 72.52700043 49.72853851 323.0394287
vertex 72.33486176 49.28231049 323.0860291

endloop
endfacet
facet normal -0.8633627295 0.4239550233 0.2736181915
outer loop
vertex 72.44347382 49.27800751 323.4353638
vertex 72.33489227 49.28232574 323.0860596
vertex 72.23381805 48.82645416 323.4734802

endloop
endfacet
facet normal -0.8789359331 0.4066573977 0.2492014617
outer loop
vertex 72.23381805 48.82645416 323.4734802
vertex 72.33489227 49.28232574 323.0860596
vertex 72.13591766 48.83081818 323.1210632

endloop
endfacet
facet normal -0.870398581 0.4258683622 0.2470677048
outer loop
vertex 72.23381805 48.82645416 323.4734802
vertex 72.13591766 48.83081818 323.1210632
vertex 72.01815033 48.36936188 323.5015869

endloop
endfacet
facet normal -0.8876395822 0.4059208035 0.2175416946
outer loop
vertex 72.01815033 48.36936188 323.5015869
vertex 72.13591766 48.83081818 323.1210632
vertex 71.93297577 48.37372589 323.1459045

endloop
endfacet
facet normal -0.8785738945 0.4261646867 0.2156191617
outer loop
vertex 72.01815033 48.36936188 323.5015869
vertex 71.93297577 48.37372589 323.1459045
vertex 71.80010223 47.90949249 323.5220337

endloop
endfacet
facet normal -0.8955543637 0.4052261412 0.1837774366
outer loop
vertex 71.80010223 47.90949249 323.5220337
vertex 71.93297577 48.37372589 323.1459045
vertex 71.72844696 47.91382599 323.1632996

endloop
endfacet
facet normal -0.8874070644 0.4233796299 0.1823693216
outer loop
vertex 71.80010223 47.90949249 323.5220337
vertex 71.72844696 47.91382599 323.1632996
vertex 71.58318329 47.45436859 323.5231018

endloop
endfacet
facet normal -0.9086881876 0.3944247365 0.1368028969
outer loop
vertex 71.58318329 47.45436859 323.5231018
vertex 71.72844696 47.91382599 323.1632996
vertex 71.53057098 47.45864105 323.1613159

endloop
endfacet
facet normal -0.9252652526 0.3530433178 0.1387248635
outer loop
vertex 71.58318329 47.45436859 323.5231018
vertex 71.53057098 47.45864105 323.1613159
vertex 71.41564178 47.02251434 323.5046692

endloop
endfacet
facet normal -0.9404281378 0.3254002333 0.09853726625
outer loop
vertex 71.41564178 47.02251434 323.5046692
vertex 71.53057098 47.45864105 323.1613159
vertex 71.38054657 47.02625275 323.1573792

endloop
endfacet
facet normal -0.9679517746 0.2301624715 0.1004723981
outer loop
vertex 71.4156723 47.02251434 323.5046692
vertex 71.38051605 47.02625275 323.1574097
vertex 71.32012177 46.65195465 323.4330139

endloop
endfacet
facet normal -0.9807877541 0.1901938915 0.04337827861
outer loop
vertex 71.32012177 46.65195465 323.4330139
vertex 71.38051605 47.02625275 323.1574097
vertex 71.30562592 46.64958954 323.1156311

endloop
endfacet
facet normal -0.6211749315 -0.7829251885 0.03420526907
outer loop
vertex 71.32012177 46.65195465 323.4330139
vertex 71.30562592 46.64958954 323.1156311
vertex 71.78688812 46.27245331 323.223175

endloop
endfacet
facet normal -nan(ind) -nan(ind) -nan(ind)
outer loop
vertex 71.78688812 46.27245331 323.223175
vertex 71.30562592 46.64958954 323.1156311
vertex 71.78688812 46.27245331 323.223175

endloop
endfacet
facet normal -nan(ind) -nan(ind) -nan(ind)
outer loop
vertex 74.5923996 54.57427216 322.7893982
vertex 74.5923996 54.57427216 322.7893982
vertex 73.98827362 54.49271393 322.6384277

endloop
endfacet
facet normal -0.08978576213 0.9812086821 -0.1707865894
outer loop
vertex 73.98827362 54.49271393 322.6384277
vertex 74.5923996 54.57427216 322.7893982
vertex 74.12111664 54.46019745 322.3817749

endloop
endfacet
facet normal -0.8375757337 0.2801533043 -0.4690214396
outer loop
vertex 73.98827362 54.49271393 322.6384277
vertex 74.12111664 54.46019745 322.3817749
vertex 73.85485077 54.11420441 322.6506042

endloop
endfacet
facet normal -0.8430211544 0.3039835989 -0.4437445104
outer loop
vertex 73.85485077 54.11420441 322.6506042
vertex 74.12111664 54.46019745 322.3817749
vertex 73.9970932 54.08805084 322.3624573

endloop
endfacet
facet normal -0.8687678576 0.2110086232 -0.4480153918
outer loop
vertex 73.85485077 54.11420441 322.6506042
vertex 73.9970932 54.08805084 322.3624573
vertex 73.75841522 53.6937027 322.6395569

endloop
endfacet
facet normal -0.8668367863 0.2054163367 -0.454310596
outer loop
vertex 73.75841522 53.6937027 322.6395569
vertex 73.9970932 54.08805084 322.3624573
vertex 73.91020966 53.66849518 322.3385315

endloop
endfacet
facet normal -0.8768550754 0.1548632681 -0.4551291764
outer loop
vertex 73.75841522 53.6937027 322.6395569
vertex 73.91020966 53.66849518 322.3385315
vertex 73.67516327 53.2556839 322.6509094

endloop
endfacet
facet normal -0.8817848563 0.1688102931 -0.4404073358
outer loop
vertex 73.67516327 53.2556839 322.6509094
vertex 73.91020966 53.66849518 322.3385315
vertex 73.82112885 53.22618866 322.3473511

endloop
endfacet
facet normal -0.8797940016 0.1788512319 -0.4404257238
outer loop
vertex 73.67516327 53.2556839 322.6509094
vertex 73.82112885 53.22618866 322.3473511
vertex 73.57384491 52.8073349 322.6712341

endloop
endfacet
facet normal -0.8865258694 0.2012268454 -0.4166287482
outer loop
vertex 73.57384491 52.8073349 322.6712341
vertex 73.82112885 53.22618866 322.3473511
vertex 73.71041107 52.77297211 322.3640442

endloop
endfacet
facet normal -0.8874456286 0.1972157359 -0.4165889025
outer loop
vertex 73.57384491 52.8073349 322.6712341
vertex 73.71041107 52.77297211 322.3640442
vertex 73.46044159 52.35614777 322.6992188

endloop
endfacet
facet normal -0.8942101598 0.2251341939 -0.3869143724
outer loop
vertex 73.46044159 52.35614777 322.6992188
vertex 73.71041107 52.77297211 322.3640442
vertex 73.58559418 52.31801605 322.3877869

endloop
endfacet
facet normal -0.8951824307 0.221361354 -0.3868431151
outer loop
vertex 73.46044159 52.35614777 322.6992188
vertex 73.58559418 52.31801605 322.3877869
vertex 73.33385468 51.91628265 322.740448

endloop
endfacet
facet normal -0.9010941982 0.2600485682 -0.3469926119
outer loop
vertex 73.33385468 51.91628265 322.740448
vertex 73.58559418 52.31801605 322.3877869
vertex 73.44322968 51.87296295 322.4239502

endloop
endfacet
facet normal -0.905315876 0.2456787825 -0.346475035
outer loop
vertex 73.33385468 51.91629791 322.740448
vertex 73.44322968 51.87294769 322.4239197
vertex 73.19484711 51.47937775 322.7938538

endloop
endfacet
facet normal -0.908334434 0.2897168696 -0.3016499281
outer loop
vertex 73.19484711 51.47937775 322.7938538
vertex 73.44322968 51.87294769 322.4239197
vertex 73.28630829 51.43144989 322.4724121

endloop
endfacet
facet normal -0.9135404229 0.2738345861 -0.3007631302
outer loop
vertex 73.19484711 51.47937775 322.7938538
vertex 73.28630829 51.43144989 322.4724121
vertex 73.0439682 51.04273224 322.8545837

endloop
endfacet
facet normal -0.9132074714 0.3141278625 -0.2595685124
outer loop
vertex 73.0439682 51.04273224 322.8545837
vertex 73.28630829 51.43144989 322.4724121
vertex 73.11837006 50.99036407 322.5294495

endloop
endfacet
facet normal -0.9175667763 0.3019808531 -0.2586096227
outer loop
vertex 73.04399872 51.0427475 322.8546143
vertex 73.11840057 50.99037933 322.52948
vertex 72.88225555 50.60688019 322.9195251

endloop
endfacet
facet normal -0.9151726961 0.3338755965 -0.2258007526
outer loop
vertex 72.88225555 50.60688019 322.9195251
vertex 73.11840057 50.99037933 322.52948
vertex 72.94243622 50.55042267 322.5921326

endloop
endfacet
facet normal -0.9171509147 0.3287584484 -0.2252819389
outer loop
vertex 72.88225555 50.60688019 322.9195251
vertex 72.94243622 50.55042267 322.5921326
vertex 72.70995331 50.16976166 322.9830933

endloop
endfacet
facet normal -0.9149109721 0.3470510244 -0.206139341
outer loop
vertex 72.70995331 50.16976166 322.9830933
vertex 72.94243622 50.55042267 322.5921326
vertex 72.76128387 50.11003876 322.6547241

endloop
endfacet
facet normal -0.9128400087 0.3521124125 -0.2067361623
outer loop
vertex 72.70995331 50.16976166 322.9830933
vertex 72.76128387 50.11003876 322.6547241
vertex 72.52700043 49.72853851 323.0394287

endloop
endfacet
facet normal -0.9125639796 0.354034245 -0.2046621889
outer loop
vertex 72.52700043 49.72853851 323.0394287
vertex 72.76128387 50.11003876 322.6547241
vertex 72.57649994 49.66637421 322.7111816

endloop
endfacet
facet normal -0.9063278437 0.3686855435 -0.206496492
outer loop
vertex 72.52700043 49.72853851 323.0394287
vertex 72.57649994 49.66637421 322.7111816
vertex 72.33486176 49.28231049 323.0860291

endloop
endfacet
facet normal -0.907875061 0.3575584292 -0.2188945264
outer loop
vertex 72.33486176 49.28231049 323.0860291
vertex 72.57649994 49.66637421 322.7111816
vertex 72.38866425 49.21860504 322.7588196

endloop
endfacet
facet normal -0.898568809 0.3788158596 -0.2215236425
outer loop
vertex 72.33489227 49.28232574 323.0860596
vertex 72.38869476 49.2186203 322.7588806
vertex 72.13591766 48.83081818 323.1210632

endloop
endfacet
facet normal -0.900959909 0.3571863174 -0.246352002
outer loop
vertex 72.13591766 48.83081818 323.1210632
vertex 72.38869476 49.2186203 322.7588806
vertex 72.19936371 48.76650238 322.7957764

endloop
endfacet
facet normal -0.890111208 0.3816592693 -0.2490748018
outer loop
vertex 72.13591766 48.83081818 323.1210632
vertex 72.19936371 48.76650238 322.7957764
vertex 71.93297577 48.37372589 323.1459045

endloop
endfacet
facet normal -0.8917907476 0.3566382229 -0.278421402
outer loop
vertex 71.93297577 48.37372589 323.1459045
vertex 72.19936371 48.76650238 322.7957764
vertex 72.00804901 48.3094101 322.8230591

endloop
endfacet
facet normal -0.8808634877 0.3811224401 -0.2807580829
outer loop
vertex 71.93297577 48.37372589 323.1459045
vertex 72.00804901 48.3094101 322.8230591
vertex 71.72844696 47.91382599 323.1632996

endloop
endfacet
facet normal -0.8814110756 0.3545147181 -0.3121438026
outer loop
vertex 71.72844696 47.91382599 323.1632996
vertex 72.00804901 48.3094101 322.8230591
vertex 71.81594086 47.84978485 322.8435059

endloop
endfacet
facet normal -0.8701761365 0.3796479404 -0.3141030967
outer loop
vertex 71.72844696 47.91382599 323.1632996
vertex 71.81594086 47.84978485 322.8435059
vertex 71.53057098 47.45864105 323.1613159

endloop
endfacet
facet normal -0.8685471416 0.3430228829 -0.3577165902
outer loop
vertex 71.53057098 47.45864105 323.1613159
vertex 71.81594086 47.84978485 322.8435059
vertex 71.63527679 47.39580536 322.8468323

endloop
endfacet
facet normal -0.8820392489 0.3092747629 -0.3554656506
outer loop
vertex 71.53057098 47.45864105 323.1613159
vertex 71.63527679 47.39580536 322.8468323
vertex 71.38054657 47.02625275 323.1573792

endloop
endfacet
facet normal -0.8776780963 0.275359571 -0.3922477067
outer loop
vertex 71.38054657 47.02625275 323.1573792
vertex 71.63527679 47.39580536 322.8468323
vertex 71.49492645 46.9695816 322.8616638

endloop
endfacet
facet normal -0.8946011066 0.2209517062 -0.3884188533
outer loop
vertex 71.38051605 47.02625275 323.1574097
vertex 71.49492645 46.9695816 322.8616638
vertex 71.30562592 46.64958954 323.1156311

endloop
endfacet
facet normal -0.8817691803 0.1735344678 -0.438598752
outer loop
vertex 71.30562592 46.64958954 323.1156311
vertex 71.49492645 46.9695816 322.8616638
vertex 71.42482758 46.59819794 322.8556519

endloop
endfacet
facet normal -0.596365571 -0.7942231894 -0.1164375916
outer loop
vertex 71.30562592 46.64958954 323.1156311
vertex 71.42482758 46.59819794 322.8556519
vertex 71.78688812 46.27245331 323.223175

endloop
endfacet
facet normal -nan(ind) -nan(ind) -nan(ind)
outer loop
vertex 71.78688812 46.27245331 323.223175
vertex 71.42482758 46.59819794 322.8556519
vertex 71.78688812 46.27245331 323.223175

endloop
endfacet
facet normal -0.5473011136 -0.3882571459 0.7414296865
outer loop
vertex 74.59236908 54.5742569 322.7893677
vertex 74.5923996 54.57427216 322.7893982
vertex 74.12108612 54.46018219 322.3817444

endloop
endfacet
facet normal 0.03128063679 0.9525544047 -0.3027565777
outer loop
vertex 74.12108612 54.46018219 322.3817444
vertex 74.5923996 54.57427216 322.7893982
vertex 74.37184906 54.40166473 322.2235413

endloop
endfacet
facet normal -0.4871764183 0.2064148486 -0.8485588431
outer loop
vertex 74.12108612 54.46018219 322.3817444
vertex 74.37184906 54.40166473 322.2235413
vertex 73.99706268 54.08805084 322.3624268

endloop
endfacet
facet normal -0.5011082292 0.2293124348 -0.8344498277
outer loop
vertex 73.99706268 54.08805084 322.3624268
vertex 74.37184906 54.40166473 322.2235413
vertex 74.2740097 54.03794098 322.1823425

endloop
endfacet
facet normal -0.5186013579 0.1553788036 -0.8407794833
outer loop
vertex 73.99706268 54.08805084 322.3624268
vertex 74.2740097 54.03794098 322.1823425
vertex 73.91014862 53.66849518 322.338501

endloop
endfacet
facet normal -0.5140932798 0.1493074298 -0.8446391821
outer loop
vertex 73.91014862 53.66849518 322.338501
vertex 74.2740097 54.03794098 322.1823425
vertex 74.20281219 53.62015533 322.151825

endloop
endfacet
facet normal -0.5251774788 0.0887972638 -0.8463472724
outer loop
vertex 73.91014862 53.66849518 322.338501
vertex 74.20281219 53.62015533 322.151825
vertex 73.82109833 53.2261734 322.3473511

endloop
endfacet
facet normal -0.5365592837 0.1042668968 -0.8373962641
outer loop
vertex 73.82109833 53.2261734 322.3473511
vertex 74.20281219 53.62015533 322.151825
vertex 74.10906219 53.16957855 322.1557922

endloop
endfacet
facet normal -0.5372985005 0.1004717499 -0.8373861909
outer loop
vertex 73.82109833 53.2261734 322.3473511
vertex 74.10906219 53.16957855 322.1557922
vertex 73.71038055 52.77295685 322.3640137

endloop
endfacet
facet normal -0.5543471575 0.1252639294 -0.8228051066
outer loop
vertex 73.71038055 52.77295685 322.3640137
vertex 74.10906219 53.16957855 322.1557922
vertex 73.99098969 52.7069931 322.164917

endloop
endfacet
facet normal -0.5577965975 0.1101001129 -0.8226426244
outer loop
vertex 73.71038055 52.77295685 322.3640137
vertex 73.99098969 52.7069931 322.164917
vertex 73.58556366 52.31800079 322.3877563

endloop
endfacet
facet normal -0.577611208 0.1414527595 -0.8039628863
outer loop
vertex 73.58556366 52.31800079 322.3877563
vertex 73.99098969 52.7069931 322.164917
vertex 73.85741425 52.24480438 322.1795654

endloop
endfacet
facet normal -0.5827736259 0.1211248636 -0.8035568595
outer loop
vertex 73.58556366 52.31800079 322.3877563
vertex 73.85741425 52.24480438 322.1795654
vertex 73.44319916 51.87294769 322.4239197

endloop
endfacet
facet normal -0.6067038774 0.1647999436 -0.7776575685
outer loop
vertex 73.44319916 51.87294769 322.4239197
vertex 73.85741425 52.24480438 322.1795654
vertex 73.7024765 51.78975677 322.20401

endloop
endfacet
facet normal -0.6157752872 0.1335317343 -0.7765243053
outer loop
vertex 73.44319916 51.87293243 322.4239197
vertex 73.7024765 51.78974152 322.20401
vertex 73.28630829 51.43143463 322.4724121

endloop
endfacet
facet normal -0.6396686435 0.1839042902 -0.7463265061
outer loop
vertex 73.28630829 51.43143463 322.4724121
vertex 73.7024765 51.78974152 322.20401
vertex 73.5311203 51.3393631 322.2398987

endloop
endfacet
facet normal -0.6502247453 0.1512898356 -0.7445260882
outer loop
vertex 73.28630829 51.43143463 322.4724121
vertex 73.5311203 51.3393631 322.2398987
vertex 73.11837006 50.99034882 322.5294495

endloop
endfacet
facet normal -0.6695375443 0.1978402436 -0.7159460187
outer loop
vertex 73.11837006 50.99034882 322.5294495
vertex 73.5311203 51.3393631 322.2398987
vertex 73.34889984 50.88977814 322.2860718

endloop
endfacet
facet normal -0.6793845892 0.1700759381 -0.7138001919
outer loop
vertex 73.11840057 50.99036407 322.52948
vertex 73.34893036 50.8897934 322.2861023
vertex 72.94243622 50.55040741 322.5921326

endloop
endfacet
facet normal -0.693054378 0.207596764 -0.6903471947
outer loop
vertex 72.94243622 50.55040741 322.5921326
vertex 73.34893036 50.8897934 322.2861023
vertex 73.1604538 50.44202423 322.3406677

endloop
endfacet
facet normal -0.6997855306 0.190032959 -0.6886128783
outer loop
vertex 72.94243622 50.55040741 322.5921326
vertex 73.1604538 50.44202423 322.3406677
vertex 72.76128387 50.1100235 322.6546936

endloop
endfacet
facet normal -0.7069784403 0.2117560357 -0.6747895479
outer loop
vertex 72.76128387 50.1100235 322.6546936
vertex 73.1604538 50.44202423 322.3406677
vertex 72.97103119 49.9953537 322.3989563

endloop
endfacet
facet normal -0.7080866098 0.209031716 -0.674476862
outer loop
vertex 72.76128387 50.1100235 322.6546936
vertex 72.97103119 49.9953537 322.3989563
vertex 72.57649994 49.66634369 322.7111816

endloop
endfacet
facet normal -0.7088491917 0.2114118785 -0.6729323268
outer loop
vertex 72.57649994 49.66634369 322.7111816
vertex 72.97103119 49.9953537 322.3989563
vertex 72.78365326 49.54698944 322.4554749

endloop
endfacet
facet normal -0.7037090659 0.2235109508 -0.6744155884
outer loop
vertex 72.57649994 49.66634369 322.7111816
vertex 72.78365326 49.54698944 322.4554749
vertex 72.38866425 49.21860504 322.7587891

endloop
endfacet
facet normal -0.6992170811 0.2097716182 -0.6834408641
outer loop
vertex 72.38866425 49.21860504 322.7587891
vertex 72.78365326 49.54698944 322.4554749
vertex 72.59841156 49.09627533 322.5066528

endloop
endfacet
facet normal -0.6892318726 0.2326768935 -0.6861639619
outer loop
vertex 72.38869476 49.2186203 322.7588196
vertex 72.59841156 49.09629059 322.5066833
vertex 72.19936371 48.76650238 322.7956848

endloop
endfacet
facet normal -0.6798498631 0.2057966143 -0.7038834095
outer loop
vertex 72.19936371 48.76650238 322.7956848
vertex 72.59841156 49.09629059 322.5066833
vertex 72.41613007 48.64296722 322.5502014

endloop
endfacet
facet normal -0.6661756039 0.2365519255 -0.7072858214
outer loop
vertex 72.19936371 48.76650238 322.7956848
vertex 72.41613007 48.64296722 322.5502014
vertex 72.00801849 48.30939484 322.8230286

endloop
endfacet
facet normal -0.6543803811 0.2053952515 -0.727735579
outer loop
vertex 72.00801849 48.30939484 322.8230286
vertex 72.41613007 48.64296722 322.5502014
vertex 72.23342133 48.18585968 322.5854797

endloop
endfacet
facet normal -0.6409520507 0.2353956699 -0.7305952311
outer loop
vertex 72.00801849 48.30939484 322.8230286
vertex 72.23342133 48.18585968 322.5854797
vertex 71.81591034 47.84976959 322.8434753

endloop
endfacet
facet normal -0.6275439858 0.2024654895 -0.7517952919
outer loop
vertex 71.81591034 47.84976959 322.8434753
vertex 72.23342133 48.18585968 322.5854797
vertex 72.05049896 47.72676849 322.6145325

endloop
endfacet
facet normal -0.6116404533 0.2378792614 -0.7545258999
outer loop
vertex 71.81591034 47.84976959 322.8434753
vertex 72.05049896 47.72676849 322.6145325
vertex 71.63527679 47.39577484 322.8467712

endloop
endfacet
facet normal -0.5911563635 0.191931814 -0.7833877802
outer loop
vertex 71.63527679 47.39577484 322.8467712
vertex 72.05049896 47.72676849 322.6145325
vertex 71.88246918 47.2751236 322.6306763

endloop
endfacet
facet normal -0.6001001 0.1703589857 -0.7815738916
outer loop
vertex 71.63527679 47.39577484 322.8467712
vertex 71.88246918 47.2751236 322.6306763
vertex 71.49492645 46.96956635 322.8616333

endloop
endfacet
facet normal -0.5805078149 0.1285230666 -0.8040475845
outer loop
vertex 71.49492645 46.96956635 322.8616333
vertex 71.88246918 47.2751236 322.6306763
vertex 71.74239349 46.86084747 322.6655884

endloop
endfacet
facet normal -0.5824187994 0.122868672 -0.8035493493
outer loop
vertex 71.49489594 46.9695816 322.8616333
vertex 71.74239349 46.86084747 322.6656189
vertex 71.42479706 46.59818268 322.8556519

endloop
endfacet
facet normal -0.5539565086 0.06958319992 -0.8296326995
outer loop
vertex 71.42479706 46.59818268 322.8556519
vertex 71.74239349 46.86084747 322.6656189
vertex 71.6601181 46.50530243 322.6907349

endloop
endfacet
facet normal -0.4994484782 -0.8310977817 -0.2445968539
outer loop
vertex 71.42479706 46.59818268 322.8556519
vertex 71.6601181 46.50530243 322.6907349
vertex 71.7868576 46.27243805 323.223175

endloop
endfacet
facet normal 0.4005452096 -0.8007233143 -0.4454275668
outer loop
vertex 71.7868576 46.27243805 323.223175
vertex 71.6601181 46.50530243 322.6907349
vertex 71.78688812 46.27245331 323.223175

endloop
endfacet
facet normal -0.6163141727 0.7875004411 0
outer loop
vertex 74.5923996 54.57427216 322.7894287
vertex 74.5923996 54.57427216 322.7893982
vertex 74.37184906 54.40166473 322.2235413

endloop
endfacet
facet normal 0.2372631729 0.899510622 -0.3668608069
outer loop
vertex 74.37184906 54.40166473 322.2235413
vertex 74.5923996 54.57427216 322.7893982
vertex 74.8524704 54.29250336 322.2667236

endloop
endfacet
facet normal 0.107905753 0.08319947869 -0.9906736016
outer loop
vertex 74.37184906 54.40166473 322.2235413
vertex 74.8524704 54.29250336 322.2667236
vertex 74.27404022 54.03795624 322.1823425

endloop
endfacet
facet normal 0.1158119887 0.06538040191 -0.9911170006
outer loop
vertex 74.27404022 54.03795624 322.1823425
vertex 74.8524704 54.29250336 322.2667236
vertex 74.81893158 53.94017792 322.239563

endloop
endfacet
facet normal 0.1137093008 0.05309062451 -0.9920945168
outer loop
vertex 74.27404022 54.03795624 322.1823425
vertex 74.81893158 53.94017792 322.239563
vertex 74.20284271 53.62017059 322.151825

endloop
endfacet
facet normal 0.1187733412 0.04330878332 -0.99197644
outer loop
vertex 74.20284271 53.62017059 322.151825
vertex 74.81893158 53.94017792 322.239563
vertex 74.77559662 53.52568817 322.2162781

endloop
endfacet
facet normal 0.1067282632 -0.03095695935 -0.9938061833
outer loop
vertex 74.20284271 53.62017059 322.151825
vertex 74.77559662 53.52568817 322.2162781
vertex 74.10909271 53.16959381 322.1557922

endloop
endfacet
facet normal 0.09431228787 -0.007427682634 -0.9955149293
outer loop
vertex 74.10909271 53.16959381 322.1557922
vertex 74.77559662 53.52568817 322.2162781
vertex 74.67989349 53.05901337 322.2106934

endloop
endfacet
facet normal 0.08759178966 -0.04199677333 -0.9952707887
outer loop
vertex 74.10909271 53.16959381 322.1557922
vertex 74.67989349 53.05901337 322.2106934
vertex 73.99098969 52.70702362 322.164917

endloop
endfacet
facet normal 0.06833886355 -0.004005575087 -0.99765414
outer loop
vertex 73.99098969 52.70702362 322.164917
vertex 74.67989349 53.05901337 322.2106934
vertex 74.55904388 52.57819366 322.2043457

endloop
endfacet
facet normal 0.05824194103 -0.04836592823 -0.9971302152
outer loop
vertex 73.99098969 52.70702362 322.164917
vertex 74.55904388 52.57819366 322.2043457
vertex 73.85741425 52.24480438 322.1795349

endloop
endfacet
facet normal 0.03610643744 -0.001616030582 -0.9993466139
outer loop
vertex 73.85741425 52.24480438 322.1795349
vertex 74.55904388 52.57819366 322.2043457
vertex 74.42284393 52.10170746 322.2001953

endloop
endfacet
facet normal 0.02106500044 -0.06084512919 -0.9979249239
outer loop
vertex 73.85741425 52.24480438 322.1795349
vertex 74.42284393 52.10170746 322.2001953
vertex 73.70250702 51.78975677 322.20401

endloop
endfacet
facet normal -0.006853747647 0.003598084673 -0.9999700189
outer loop
vertex 73.70250702 51.78975677 322.20401
vertex 74.42284393 52.10170746 322.2001953
vertex 74.2627182 51.62706757 322.199585

endloop
endfacet
facet normal -0.02779270709 -0.06895784289 -0.9972324371
outer loop
vertex 73.7024765 51.78975677 322.2039795
vertex 74.2627182 51.62706757 322.1996155
vertex 73.53115082 51.3393631 322.2398987

endloop
endfacet
facet normal -0.05691951141 0.004946236499 -0.9983664751
outer loop
vertex 73.53115082 51.3393631 322.2398987
vertex 74.2627182 51.62706757 322.1996155
vertex 74.08504486 51.15937042 322.207428

endloop
endfacet
facet normal -0.08082744479 -0.06935742497 -0.994312048
outer loop
vertex 73.53115082 51.3393631 322.2398987
vertex 74.08504486 51.15937042 322.207428
vertex 73.34893036 50.88977814 322.2860718

endloop
endfacet
facet normal -0.1056849509 -0.001509890193 -0.9943985343
outer loop
vertex 73.34893036 50.88977814 322.2860718
vertex 74.08504486 51.15937042 322.207428
vertex 73.8950119 50.69322968 322.2283325

endloop
endfacet
facet normal -0.1285186708 -0.06641475856 -0.9894806743
outer loop
vertex 73.34893036 50.8897934 322.2861023
vertex 73.89504242 50.69324493 322.228363
vertex 73.1604538 50.44202423 322.3406372

endloop
endfacet
facet normal -0.1472229064 -0.01152352896 -0.9890362024
outer loop
vertex 73.1604538 50.44202423 322.3406372
vertex 73.89504242 50.69324493 322.228363
vertex 73.69838715 50.23021698 322.263031

endloop
endfacet
facet normal -0.1650639027 -0.05847944692 -0.9845476151
outer loop
vertex 73.1604538 50.44202423 322.3406372
vertex 73.69838715 50.23021698 322.263031
vertex 72.97103119 49.9953537 322.3989258

endloop
endfacet
facet normal -0.1753488332 -0.02639894374 -0.9841523767
outer loop
vertex 72.97103119 49.9953537 322.3989258
vertex 73.69838715 50.23021698 322.263031
vertex 73.50234222 49.77124786 322.3102722

endloop
endfacet
facet normal -0.1836850345 -0.04707024246 -0.9818574786
outer loop
vertex 72.97103119 49.9953537 322.3989258
vertex 73.50234222 49.77124786 322.3102722
vertex 72.78365326 49.54698944 322.4554749

endloop
endfacet
facet normal -0.1848485768 -0.04331205413 -0.9818121791
outer loop
vertex 72.78365326 49.54698944 322.4554749
vertex 73.50234222 49.77124786 322.3102722
vertex 73.31096649 49.31374359 322.3664856

endloop
endfacet
facet normal -0.1820745468 -0.0367407985 -0.9825981259
outer loop
vertex 72.78365326 49.54698944 322.4554749
vertex 73.31096649 49.31374359 322.3664856
vertex 72.59841156 49.09627533 322.5066528

endloop
endfacet
facet normal -0.1758082956 -0.05737146735 -0.9827512503
outer loop
vertex 72.59841156 49.09627533 322.5066528
vertex 73.31096649 49.31374359 322.3664856
vertex 73.12453461 48.85730743 322.4264832

endloop
endfacet
facet normal -0.1633733958 -0.02896277048 -0.9861390591
outer loop
vertex 72.59844208 49.09629059 322.5066833
vertex 73.12453461 48.85732269 322.4265442
vertex 72.41613007 48.64295197 322.5502014

endloop
endfacet
facet normal -0.1511418968 -0.06934669614 -0.9860767126
outer loop
vertex 72.41613007 48.64295197 322.5502014
vertex 73.12453461 48.85732269 322.4265442
vertex 72.94335175 48.40167999 322.4863586

endloop
endfacet
facet normal -0.1310464144 -0.02410983108 -0.9910830259
outer loop
vertex 72.41613007 48.64295197 322.5502014
vertex 72.94335175 48.40167999 322.4863586
vertex 72.23342133 48.18585968 322.5854797

endloop
endfacet
facet normal -0.1166557297 -0.07123222947 -0.9906147122
outer loop
vertex 72.23342133 48.18585968 322.5854797
vertex 72.94335175 48.40167999 322.4863586
vertex 72.76256561 47.94443512 322.5405273

endloop
endfacet
facet normal -0.09584593028 -0.02478935942 -0.9950875044
outer loop
vertex 72.23342133 48.18585968 322.5854797
vertex 72.76256561 47.94443512 322.5405273
vertex 72.05052948 47.72676849 322.6145325

endloop
endfacet
facet normal -0.08044826984 -0.07477185875 -0.9939503074
outer loop
vertex 72.05052948 47.72676849 322.6145325
vertex 72.76256561 47.94443512 322.5405273
vertex 72.58162689 47.48638153 322.5896301

endloop
endfacet
facet normal -0.0538912639 -0.01563480869 -0.9984243512
outer loop
vertex 72.05052948 47.72676849 322.6145325
vertex 72.58162689 47.48638153 322.5896301
vertex 71.88246918 47.2751236 322.6306763

endloop
endfacet
facet normal -0.03237148002 -0.08633301407 -0.9957403541
outer loop
vertex 71.88246918 47.2751236 322.6306763
vertex 72.58162689 47.48638153 322.5896301
vertex 72.41573334 47.03926849 322.6337891

endloop
endfacet
facet normal -0.02726088651 -0.0747924 -0.9968264699
outer loop
vertex 71.88246918 47.2751236 322.6306763
vertex 72.41573334 47.03926849 322.6337891
vertex 71.74242401 46.86086273 322.6655884

endloop
endfacet
facet normal -0.009982115589 -0.1388335973 -0.990265429
outer loop
vertex 71.74242401 46.86086273 322.6655884
vertex 72.41573334 47.03926849 322.6337891
vertex 72.25600433 46.64849091 322.6901855

endloop
endfacet
facet normal 0.01694551669 -0.07435631752 -0.9970877767
outer loop
vertex 71.74239349 46.86086273 322.6656189
vertex 72.25603485 46.64849091 322.6901855
vertex 71.6601181 46.50531769 322.6907349

endloop
endfacet
facet normal 0.02444403246 -0.1055552885 -0.9941129088
outer loop
vertex 71.6601181 46.50531769 322.6907349
vertex 72.25603485 46.64849091 322.6901855
vertex 72.12212372 46.33150482 322.7205505

endloop
endfacet
facet normal -0.3161538839 -0.8945536613 -0.315943867
outer loop
vertex 71.6601181 46.50531769 322.6907349
vertex 72.12212372 46.33150482 322.7205505
vertex 71.78691864 46.27245331 323.223175

endloop
endfacet
facet normal 0 0.993157208 0.1167852506
outer loop
vertex 71.78691864 46.27245331 323.223175
vertex 72.12212372 46.33150482 322.7205505
vertex 71.78688812 46.27245331 323.223175

endloop
endfacet
endsolid
