solid 
facet normal -nan(ind) -nan(ind) -nan(ind)
outer loop
vertex 32.33979034 65.37627411 311.769989
vertex 32.33979034 65.37627411 311.769989
vertex 32.07465363 65.30504608 311.4329224

endloop
endfacet
facet normal 0.5050473809 0.673604548 -0.539614737
outer loop
vertex 32.07465363 65.30504608 311.4329224
vertex 32.33979034 65.37627411 311.769989
vertex 32.3073349 65.12178802 311.421936

endloop
endfacet
facet normal -0.03131910786 0.02014284581 -0.9993064404
outer loop
vertex 32.07465363 65.30504608 311.4329224
vertex 32.3073349 65.12178802 311.421936
vertex 31.89194489 65.03307343 311.4331665

endloop
endfacet
facet normal -0.01987574622 -0.0334306322 -0.9992433786
outer loop
vertex 31.89194489 65.03307343 311.4331665
vertex 32.3073349 65.12178802 311.421936
vertex 32.12462616 64.84456635 311.434845

endloop
endfacet
facet normal 0.003895517904 -0.004095473792 -0.9999839664
outer loop
vertex 31.89194489 65.03307343 311.4331665
vertex 32.12462616 64.84456635 311.434845
vertex 31.68473053 64.76891327 311.4334412

endloop
endfacet
facet normal 0.004280961119 -0.006336933002 -0.9999707341
outer loop
vertex 31.68473053 64.76891327 311.4334412
vertex 32.12462616 64.84456635 311.434845
vertex 31.91985321 64.58583832 311.4356079

endloop
endfacet
facet normal 0.009832178243 0.0007927112747 -0.999951303
outer loop
vertex 31.68473053 64.76891327 311.4334412
vertex 31.91985321 64.58583832 311.4356079
vertex 31.46640778 64.47414398 311.4310608

endloop
endfacet
facet normal 0.009911435656 0.0004709300702 -0.9999507666
outer loop
vertex 31.46640778 64.47414398 311.4310608
vertex 31.91985321 64.58583832 311.4356079
vertex 31.7087326 64.2988205 311.4333801

endloop
endfacet
facet normal 0.008690977469 -0.00121607841 -0.9999614954
outer loop
vertex 31.46640778 64.47414398 311.4310608
vertex 31.7087326 64.2988205 311.4333801
vertex 31.2473526 64.16332245 311.4295349

endloop
endfacet
facet normal 0.008662461303 -0.001118970569 -0.999961853
outer loop
vertex 31.2473526 64.16332245 311.4295349
vertex 31.7087326 64.2988205 311.4333801
vertex 31.49298859 63.99224091 311.4318542

endloop
endfacet
facet normal 0.008459895849 -0.001409829943 -0.9999632239
outer loop
vertex 31.2473526 64.16332245 311.4295349
vertex 31.49298859 63.99224091 311.4318542
vertex 31.03269196 63.84926605 311.4281616

endloop
endfacet
facet normal 0.008593536913 -0.001840124489 -0.9999613762
outer loop
vertex 31.03269196 63.84926605 311.4281616
vertex 31.49298859 63.99224091 311.4318542
vertex 31.28099823 63.68216705 311.430603

endloop
endfacet
facet normal 0.008980437182 -0.001265159808 -0.9999588728
outer loop
vertex 31.03269196 63.84926605 311.4281616
vertex 31.28099823 63.68216705 311.430603
vertex 30.8285141 63.53362274 311.4267273

endloop
endfacet
facet normal 0.009100642987 -0.001631363528 -0.9999573231
outer loop
vertex 30.8285141 63.53362274 311.4267273
vertex 31.28099823 63.68216705 311.430603
vertex 31.08152008 63.37372589 311.4292908

endloop
endfacet
facet normal 0.009144240059 -0.001752348035 -0.9999566674
outer loop
vertex 30.82849884 63.53362274 311.4266968
vertex 31.08152008 63.37372589 311.4292908
vertex 30.63311005 63.21060944 311.4254761

endloop
endfacet
facet normal 0.009057393298 -0.00151357986 -0.9999578595
outer loop
vertex 30.63311005 63.21060944 311.4254761
vertex 31.08152008 63.37372589 311.4292908
vertex 30.89061737 63.05797577 311.4280396

endloop
endfacet
facet normal 0.009403745644 -0.0009292096947 -0.9999553561
outer loop
vertex 30.63311005 63.21060944 311.4254761
vertex 30.89061737 63.05797577 311.4280396
vertex 30.44490814 62.88234711 311.4240112

endloop
endfacet
facet normal 0.009554395452 -0.001311568078 -0.9999534488
outer loop
vertex 30.44490814 62.88234711 311.4240112
vertex 30.89061737 63.05797577 311.4280396
vertex 30.70581818 62.73551178 311.4266968

endloop
endfacet
facet normal 0.009850719944 -0.0007850698894 -0.9999511838
outer loop
vertex 30.4449234 62.88236237 311.4240417
vertex 30.70583344 62.7355423 311.4267273
vertex 30.26354218 62.54999542 311.4225159

endloop
endfacet
facet normal 0.01011677273 -0.001419340493 -0.9999478459
outer loop
vertex 30.26354218 62.54999542 311.4225159
vertex 30.70583344 62.7355423 311.4267273
vertex 30.52716827 62.40805817 311.4253845

endloop
endfacet
facet normal 0.01021415833 -0.001238447148 -0.9999470711
outer loop
vertex 30.26354218 62.54999542 311.4225159
vertex 30.52716827 62.40805817 311.4253845
vertex 30.08518219 62.21242523 311.4211121

endloop
endfacet
facet normal 0.0102475239 -0.001313839341 -0.9999466538
outer loop
vertex 30.08518219 62.21242523 311.4211121
vertex 30.52716827 62.40805817 311.4253845
vertex 30.3502121 62.07305145 311.4240112

endloop
endfacet
facet normal 0.01018982194 -0.001423574286 -0.9999471307
outer loop
vertex 30.08518219 62.21242523 311.4211121
vertex 30.3502121 62.07305145 311.4240112
vertex 29.90584564 61.87194061 311.4197693

endloop
endfacet
facet normal 0.01014031097 -0.001314164023 -0.9999477267
outer loop
vertex 29.90584564 61.87194061 311.4197693
vertex 30.3502121 62.07305145 311.4240112
vertex 30.17060089 61.73207855 311.4226379

endloop
endfacet
facet normal 0.01017927006 -0.001240409212 -0.9999474287
outer loop
vertex 29.90584564 61.87194061 311.4197693
vertex 30.17060089 61.73207855 311.4226379
vertex 29.72348785 61.53171539 311.418335

endloop
endfacet
facet normal 0.01025115326 -0.001400837675 -0.999946475
outer loop
vertex 29.72348785 61.53171539 311.418335
vertex 30.17060089 61.73207855 311.4226379
vertex 29.98682404 61.38928986 311.4212341

endloop
endfacet
facet normal 0.01017018594 -0.001549630775 -0.9999470711
outer loop
vertex 29.72350311 61.53174591 311.4183655
vertex 29.98685455 61.38933563 311.4212646
vertex 29.5334549 61.19031525 311.4169617

endloop
endfacet
facet normal 0.01005585119 -0.001289124368 -0.9999486208
outer loop
vertex 29.5334549 61.19031525 311.4169617
vertex 29.98685455 61.38933563 311.4212646
vertex 29.79367828 61.04238129 311.4197693

endloop
endfacet
facet normal 0.009849119 -0.001652803971 -0.9999501109
outer loop
vertex 29.5334549 61.19031525 311.4169617
vertex 29.79367828 61.04238129 311.4197693
vertex 29.33461761 60.85474396 311.4155579

endloop
endfacet
facet normal 0.009793298319 -0.001516218879 -0.9999508858
outer loop
vertex 29.33461761 60.85474396 311.4155579
vertex 29.79367828 61.04238129 311.4197693
vertex 29.59119415 60.70059967 311.4183044

endloop
endfacet
facet normal 0.0094829835 -0.002032780787 -0.9999529719
outer loop
vertex 29.33461761 60.85474396 311.4155579
vertex 29.59119415 60.70059967 311.4183044
vertex 29.13195038 60.5247879 311.4143066

endloop
endfacet
facet normal 0.009278766811 -0.001499270322 -0.9999558926
outer loop
vertex 29.13195038 60.5247879 311.4143066
vertex 29.59119415 60.70059967 311.4183044
vertex 29.38593292 60.36655426 311.4169006

endloop
endfacet
facet normal 0.008171314374 -0.003276940202 -0.9999611974
outer loop
vertex 29.13195038 60.5247879 311.4143066
vertex 29.38593292 60.36655426 311.4169006
vertex 28.92357635 60.20075226 311.4136658

endloop
endfacet
facet normal 0.008069739677 -0.002993652131 -0.9999629855
outer loop
vertex 28.92357635 60.20075226 311.4136658
vertex 29.38593292 60.36655426 311.4169006
vertex 29.17264557 60.03626251 311.4161682

endloop
endfacet
facet normal 0.004838538356 -0.007886225358 -0.9999571443
outer loop
vertex 28.92357635 60.20075226 311.4136658
vertex 29.17264557 60.03626251 311.4161682
vertex 28.72147369 59.91036224 311.414978

endloop
endfacet
facet normal 0.004416044801 -0.006372070406 -0.9999699593
outer loop
vertex 28.72147369 59.91036224 311.414978
vertex 29.17264557 60.03626251 311.4161682
vertex 28.95996857 59.73561859 311.4171448

endloop
endfacet
facet normal 0.02778810076 0.0255420953 -0.9992874265
outer loop
vertex 28.72147369 59.91034698 311.414978
vertex 28.95998383 59.73563385 311.4171448
vertex 28.49030304 59.65680695 311.4020691

endloop
endfacet
facet normal 0.01856992021 0.07995837182 -0.996625185
outer loop
vertex 28.49030304 59.65680695 311.4020691
vertex 28.95998383 59.73563385 311.4171448
vertex 28.71308136 59.47840118 311.3919067

endloop
endfacet
facet normal -0.4993950129 -0.587323308 -0.636911273
outer loop
vertex 28.49030304 59.65680695 311.4020691
vertex 28.71308136 59.47840118 311.3919067
vertex 28.45519257 59.36965179 311.694397

endloop
endfacet
facet normal 0 0.9409310222 0.3385983706
outer loop
vertex 28.45519257 59.36965179 311.694397
vertex 28.71308136 59.47840118 311.3919067
vertex 28.45517731 59.36965179 311.694397

endloop
endfacet
facet normal 0.4813719988 -0.7283381224 0.487652123
outer loop
vertex 32.33979034 65.37627411 311.769989
vertex 32.33977509 65.37624359 311.7699585
vertex 32.3073349 65.12178802 311.421936

endloop
endfacet
facet normal 0.7516697049 0.4970668256 -0.4334942102
outer loop
vertex 32.3073349 65.12178802 311.421936
vertex 32.33977509 65.37624359 311.7699585
vertex 32.4311142 65.02397919 311.5244141

endloop
endfacet
facet normal 0.4361961484 -0.3265300393 -0.8385171294
outer loop
vertex 32.3073349 65.12178802 311.421936
vertex 32.4311142 65.02397919 311.5244141
vertex 32.12462616 64.84456635 311.434845

endloop
endfacet
facet normal 0.4588764906 -0.383852005 -0.8013051748
outer loop
vertex 32.12462616 64.84456635 311.434845
vertex 32.4311142 65.02397919 311.5244141
vertex 32.24346161 64.74785614 311.5492249

endloop
endfacet
facet normal 0.4679440856 -0.3727220595 -0.8013154268
outer loop
vertex 32.12462616 64.84456635 311.434845
vertex 32.24346161 64.74785614 311.5492249
vertex 31.91985321 64.58583832 311.4356079

endloop
endfacet
facet normal 0.4684363008 -0.3744831383 -0.8002061248
outer loop
vertex 31.91985321 64.58583832 311.4356079
vertex 32.24346161 64.74785614 311.5492249
vertex 32.03975677 64.49193573 311.5497437

endloop
endfacet
facet normal 0.4862674773 -0.3514724374 -0.8000068665
outer loop
vertex 31.91985321 64.58583832 311.4356079
vertex 32.03975677 64.49193573 311.5497437
vertex 31.7087326 64.2988205 311.4333801

endloop
endfacet
facet normal 0.4863074124 -0.3515853882 -0.7999330163
outer loop
vertex 31.7087326 64.2988205 311.4333801
vertex 32.03975677 64.49193573 311.5497437
vertex 31.8322525 64.20894623 311.5479736

endloop
endfacet
facet normal 0.4926904738 -0.3427316248 -0.7998693585
outer loop
vertex 31.7087326 64.2988205 311.4333801
vertex 31.8322525 64.20894623 311.5479736
vertex 31.49298859 63.99224091 311.4318542

endloop
endfacet
facet normal 0.4926825464 -0.3427119851 -0.7998827696
outer loop
vertex 31.49298859 63.99224091 311.4318542
vertex 31.8322525 64.20894623 311.5479736
vertex 31.61814117 63.90448761 311.5465393

endloop
endfacet
facet normal 0.4969750941 -0.3365428448 -0.7998467088
outer loop
vertex 31.49298859 63.99224091 311.4318542
vertex 31.61814117 63.90448761 311.5465393
vertex 31.28099823 63.68216705 311.430603

endloop
endfacet
facet normal 0.4969533086 -0.3364914656 -0.7998818159
outer loop
vertex 31.28099823 63.68216705 311.430603
vertex 31.61814117 63.90448761 311.5465393
vertex 31.40750885 63.59645844 311.5452576

endloop
endfacet
facet normal 0.5056059957 -0.3235878646 -0.7997834086
outer loop
vertex 31.28099823 63.68216705 311.430603
vertex 31.40750885 63.59645844 311.5452576
vertex 31.08152008 63.37372589 311.4292908

endloop
endfacet
facet normal 0.5058658123 -0.3241782784 -0.7993798852
outer loop
vertex 31.08152008 63.37372589 311.4292908
vertex 31.40750885 63.59645844 311.5452576
vertex 31.21041107 63.29175568 311.5440979

endloop
endfacet
facet normal 0.51570189 -0.3086265028 -0.7992504239
outer loop
vertex 31.08152008 63.37372589 311.4292908
vertex 31.21039581 63.29175568 311.5440979
vertex 30.89061737 63.05797577 311.4280396

endloop
endfacet
facet normal 0.5156374574 -0.3084918559 -0.7993440032
outer loop
vertex 30.89061737 63.05797577 311.4280396
vertex 31.21039581 63.29175568 311.5440979
vertex 31.02179718 62.97975922 311.5428467

endloop
endfacet
facet normal 0.5228427052 -0.2963049114 -0.7992739677
outer loop
vertex 30.89061737 63.05797577 311.4280396
vertex 31.02179718 62.97975922 311.5428467
vertex 30.70581818 62.73551178 311.4266968

endloop
endfacet
facet normal 0.5228530765 -0.2963250875 -0.7992597818
outer loop
vertex 30.70581818 62.73551178 311.4266968
vertex 31.02179718 62.97975922 311.5428467
vertex 30.83872223 62.66027069 311.5415344

endloop
endfacet
facet normal 0.5290932059 -0.2853801548 -0.7991361022
outer loop
vertex 30.70583344 62.7355423 311.4267273
vertex 30.83873749 62.66028595 311.5415955
vertex 30.52716827 62.40805817 311.4253845

endloop
endfacet
facet normal 0.5291885138 -0.2855558097 -0.7990102768
outer loop
vertex 30.52716827 62.40805817 311.4253845
vertex 30.83873749 62.66028595 311.5415955
vertex 30.66143036 62.335289 311.5403137

endloop
endfacet
facet normal 0.5330863595 -0.2783099413 -0.7989759445
outer loop
vertex 30.52716827 62.40805817 311.4253845
vertex 30.66143036 62.335289 311.5403137
vertex 30.3502121 62.07305145 311.4240112

endloop
endfacet
facet normal 0.5332847834 -0.2786579132 -0.7987222075
outer loop
vertex 30.3502121 62.07305145 311.4240112
vertex 30.66143036 62.335289 311.5403137
vertex 30.48516083 62.00162506 311.539032

endloop
endfacet
facet normal 0.5336809158 -0.2779053748 -0.7987197042
outer loop
vertex 30.3502121 62.07305145 311.4240112
vertex 30.48516083 62.00162506 311.539032
vertex 30.17060089 61.73207855 311.4226379

endloop
endfacet
facet normal 0.5337033272 -0.2779436707 -0.7986915112
outer loop
vertex 30.17060089 61.73207855 311.4226379
vertex 30.48516083 62.00162506 311.539032
vertex 30.30538177 61.66036224 311.5376587

endloop
endfacet
facet normal 0.5316753387 -0.2817724347 -0.7987024188
outer loop
vertex 30.17060089 61.73207855 311.4226379
vertex 30.30538177 61.66036224 311.5376587
vertex 29.98682404 61.38928986 311.4212341

endloop
endfacet
facet normal 0.5316931605 -0.2818031013 -0.7986797094
outer loop
vertex 29.98682404 61.38928986 311.4212341
vertex 30.30538177 61.66036224 311.5376587
vertex 30.12088776 61.31624603 311.5362549

endloop
endfacet
facet normal 0.5271777511 -0.2900781631 -0.7987102866
outer loop
vertex 29.98685455 61.38933563 311.4212646
vertex 30.12091827 61.31627655 311.5362854
vertex 29.79367828 61.04238129 311.4197693

endloop
endfacet
facet normal 0.527102828 -0.2899473011 -0.798807323
outer loop
vertex 29.79367828 61.04238129 311.4197693
vertex 30.12091827 61.31627655 311.5362854
vertex 29.92615509 60.96649933 311.534729

endloop
endfacet
facet normal 0.5190370679 -0.3040730953 -0.7988366485
outer loop
vertex 29.79367828 61.04238129 311.4197693
vertex 29.92615509 60.96649933 311.534729
vertex 29.59119415 60.70059967 311.4183044

endloop
endfacet
facet normal 0.5188324451 -0.3036940098 -0.7991138101
outer loop
vertex 29.59119415 60.70059967 311.4183044
vertex 29.92615509 60.96649933 311.534729
vertex 29.72187042 60.62151337 311.5332031

endloop
endfacet
facet normal 0.513666153 -0.3122746646 -0.7991443276
outer loop
vertex 29.59119415 60.70059967 311.4183044
vertex 29.72187042 60.62151337 311.5332031
vertex 29.38593292 60.36655426 311.4169006

endloop
endfacet
facet normal 0.5135894418 -0.3121242523 -0.7992523313
outer loop
vertex 29.38593292 60.36655426 311.4169006
vertex 29.72187042 60.62151337 311.5332031
vertex 29.51528168 60.28540802 311.5317078

endloop
endfacet
facet normal 0.505670011 -0.3247662783 -0.7992651463
outer loop
vertex 29.38593292 60.36655426 311.4169006
vertex 29.51528168 60.28540802 311.5317078
vertex 29.17264557 60.03626251 311.4161682

endloop
endfacet
facet normal 0.5057128668 -0.3248544335 -0.7992022038
outer loop
vertex 29.17264557 60.03626251 311.4161682
vertex 29.51528168 60.28540802 311.5317078
vertex 29.29949188 59.9519577 311.5307007

endloop
endfacet
facet normal 0.4895982146 -0.3489398062 -0.7990837097
outer loop
vertex 29.17264557 60.03626251 311.4161682
vertex 29.29949188 59.9519577 311.5307007
vertex 28.95996857 59.73561859 311.4171448

endloop
endfacet
facet normal 0.4889121056 -0.347258687 -0.8002350926
outer loop
vertex 28.95996857 59.73561859 311.4171448
vertex 29.29949188 59.9519577 311.5307007
vertex 29.0815506 59.64595795 311.5303345

endloop
endfacet
facet normal 0.4700376987 -0.3726589084 -0.8001186252
outer loop
vertex 28.95998383 59.73563385 311.4171448
vertex 29.0815506 59.64594269 311.5303345
vertex 28.71308136 59.47840118 311.3919067

endloop
endfacet
facet normal 0.453709811 -0.3064376414 -0.8368054628
outer loop
vertex 28.71308136 59.47840118 311.3919067
vertex 29.0815506 59.64594269 311.5303345
vertex 28.83132172 59.38312531 311.4909058

endloop
endfacet
facet normal -0.2437821776 -0.8277171254 -0.5054250956
outer loop
vertex 28.71308136 59.47840118 311.3919067
vertex 28.83132172 59.38312531 311.4909058
vertex 28.45517731 59.36965179 311.694397

endloop
endfacet
facet normal -0.2643253505 0.8625316024 -0.431475848
outer loop
vertex 28.45517731 59.36965179 311.694397
vertex 28.83132172 59.38312531 311.4909058
vertex 28.45517731 59.36963654 311.6943665

endloop
endfacet
facet normal 0.297393918 0.5966587663 -0.7453557253
outer loop
vertex 32.33977509 65.37624359 311.7699585
vertex 32.3398056 65.37630463 311.7700195
vertex 32.4311142 65.02397919 311.5244141

endloop
endfacet
facet normal 0.8839097619 0.3990550637 -0.2438409925
outer loop
vertex 32.4311142 65.02397919 311.5244141
vertex 32.3398056 65.37630463 311.7700195
vertex 32.49423981 64.97386932 311.6712341

endloop
endfacet
facet normal 0.7044203877 -0.5219429135 -0.4810068309
outer loop
vertex 32.4311142 65.02397919 311.5244141
vertex 32.49423981 64.97386932 311.6712341
vertex 32.24346161 64.74785614 311.5492249

endloop
endfacet
facet normal 0.7115511298 -0.5614954233 -0.4223953485
outer loop
vertex 32.24346161 64.74785614 311.5492249
vertex 32.49423981 64.97386932 311.6712341
vertex 32.29711151 64.70388031 311.6980591

endloop
endfacet
facet normal 0.7087532878 -0.5650023222 -0.4224229753
outer loop
vertex 32.24346161 64.74785614 311.5492249
vertex 32.29711151 64.70388031 311.6980591
vertex 32.03975677 64.49193573 311.5497437

endloop
endfacet
facet normal 0.7087863088 -0.5662999153 -0.4206260443
outer loop
vertex 32.03975677 64.49193573 311.5497437
vertex 32.29711151 64.70388031 311.6980591
vertex 32.09368134 64.44933319 311.6979675

endloop
endfacet
facet normal 0.7329691648 -0.5348260999 -0.4203775227
outer loop
vertex 32.03975677 64.49193573 311.5497437
vertex 32.09368134 64.44933319 311.6979675
vertex 31.8322525 64.20894623 311.5479736

endloop
endfacet
facet normal 0.7329816818 -0.5349577665 -0.4201882482
outer loop
vertex 31.8322525 64.20894623 311.5479736
vertex 32.09368134 64.44933319 311.6979675
vertex 31.88776398 64.16817474 311.6967163

endloop
endfacet
facet normal 0.7432275414 -0.5206976533 -0.4201031923
outer loop
vertex 31.8322525 64.20894623 311.5479736
vertex 31.88776398 64.16817474 311.6967163
vertex 31.61814117 63.90448761 311.5465393

endloop
endfacet
facet normal 0.7432255745 -0.5206834078 -0.4201245308
outer loop
vertex 31.61814117 63.90448761 311.5465393
vertex 31.88776398 64.16817474 311.6967163
vertex 31.67440033 63.86467743 311.6954041

endloop
endfacet
facet normal 0.7499123216 -0.5110468268 -0.4200746119
outer loop
vertex 31.61814117 63.90448761 311.5465393
vertex 31.67440033 63.86467743 311.6954041
vertex 31.40750885 63.59645844 311.5452576

endloop
endfacet
facet normal 0.7499455214 -0.5112546682 -0.419762373
outer loop
vertex 31.40750885 63.59645844 311.5452576
vertex 31.67440033 63.86467743 311.6954041
vertex 31.46434784 63.55760956 311.6941223

endloop
endfacet
facet normal 0.7628700137 -0.4918673933 -0.4196376801
outer loop
vertex 31.40750885 63.59645844 311.5452576
vertex 31.46434784 63.55760956 311.6941223
vertex 31.21041107 63.29175568 311.5440979

endloop
endfacet
facet normal 0.762912035 -0.4921137094 -0.4192723036
outer loop
vertex 31.21041107 63.29175568 311.5440979
vertex 31.46434784 63.55760956 311.6941223
vertex 31.2682724 63.25460052 311.6929932

endloop
endfacet
facet normal 0.7776862979 -0.4684218764 -0.419267267
outer loop
vertex 31.21039581 63.29175568 311.5440979
vertex 31.2682724 63.25460052 311.6929626
vertex 31.02179718 62.97975922 311.5428467

endloop
endfacet
facet normal 0.7776917815 -0.4684489667 -0.4192267656
outer loop
vertex 31.02179718 62.97975922 311.5428467
vertex 31.2682724 63.25460052 311.6929626
vertex 31.08072662 62.94431305 311.6917725

endloop
endfacet
facet normal 0.7884972095 -0.450107187 -0.4191367626
outer loop
vertex 31.02179718 62.97975922 311.5428467
vertex 31.08072662 62.94431305 311.6917725
vertex 30.83872223 62.66027069 311.5415344

endloop
endfacet
facet normal 0.788547039 -0.4503204525 -0.4188138247
outer loop
vertex 30.83872223 62.66027069 311.5415344
vertex 31.08072662 62.94431305 311.6917725
vertex 30.89838409 62.62615204 311.6905518

endloop
endfacet
facet normal 0.7978403568 -0.4336224198 -0.4188344777
outer loop
vertex 30.83873749 62.66028595 311.5415955
vertex 30.89841461 62.62618256 311.6905823
vertex 30.66143036 62.335289 311.5403137

endloop
endfacet
facet normal 0.7978822589 -0.4337843657 -0.4185869098
outer loop
vertex 30.66143036 62.335289 311.5403137
vertex 30.89841461 62.62618256 311.6905823
vertex 30.7216568 62.3022995 311.6893005

endloop
endfacet
facet normal 0.8036914468 -0.4229700863 -0.4185407162
outer loop
vertex 30.66143036 62.335289 311.5403137
vertex 30.7216568 62.3022995 311.6893005
vertex 30.48516083 62.00162506 311.539032

endloop
endfacet
facet normal 0.8037038445 -0.4230136275 -0.4184730351
outer loop
vertex 30.48516083 62.00162506 311.539032
vertex 30.7216568 62.3022995 311.6893005
vertex 30.54567719 61.96921539 311.6880188

endloop
endfacet
facet normal 0.8042411804 -0.4219945669 -0.4184696078
outer loop
vertex 30.48516083 62.00162506 311.539032
vertex 30.54567719 61.96921539 311.6880188
vertex 30.30538177 61.66036224 311.5376587

endloop
endfacet
facet normal 0.8042713404 -0.422096163 -0.4183089435
outer loop
vertex 30.30538177 61.66036224 311.5376587
vertex 30.54567719 61.96921539 311.6880188
vertex 30.36582184 61.62784576 311.686676

endloop
endfacet
facet normal 0.8012138605 -0.4278552532 -0.418325603
outer loop
vertex 30.30538177 61.66036224 311.5376587
vertex 30.36582184 61.62784576 311.686676
vertex 30.12088776 61.31624603 311.5362549

endloop
endfacet
facet normal 0.801228106 -0.4279031754 -0.4182492197
outer loop
vertex 30.12088776 61.31624603 311.5362549
vertex 30.36582184 61.62784576 311.686676
vertex 30.18097687 61.28313446 311.6852417

endloop
endfacet
facet normal 0.7944039106 -0.4404796064 -0.4182106853
outer loop
vertex 30.12091827 61.31627655 311.5362854
vertex 30.18099213 61.28316498 311.6852722
vertex 29.92615509 60.96649933 311.534729

endloop
endfacet
facet normal 0.7943726182 -0.4403724372 -0.4183830619
outer loop
vertex 29.92615509 60.96649933 311.534729
vertex 30.18099213 61.28316498 311.6852722
vertex 29.98555756 60.93210602 311.6837158

endloop
endfacet
facet normal 0.7823188901 -0.4614021778 -0.4184317887
outer loop
vertex 29.92615509 60.96649933 311.534729
vertex 29.98555756 60.93210602 311.6837158
vertex 29.72187042 60.62151337 311.5332031

endloop
endfacet
facet normal 0.7822728157 -0.4612286687 -0.4187092185
outer loop
vertex 29.72187042 60.62151337 311.5332031
vertex 29.98555756 60.93210602 311.6837158
vertex 29.78046417 60.58563995 311.6821899

endloop
endfacet
facet normal 0.7744714022 -0.4741694331 -0.4187569022
outer loop
vertex 29.72187042 60.62151337 311.5332031
vertex 29.78046417 60.58563995 311.6821899
vertex 29.51528168 60.28540802 311.5317078

endloop
endfacet
facet normal 0.774405241 -0.4738926888 -0.4191924632
outer loop
vertex 29.51528168 60.28540802 311.5317078
vertex 29.78046417 60.58563995 311.6821899
vertex 29.57334137 60.24860382 311.6805725

endloop
endfacet
facet normal 0.762779355 -0.4923605919 -0.4192240238
outer loop
vertex 29.51528168 60.28540802 311.5317078
vertex 29.57334137 60.24860382 311.6805725
vertex 29.29949188 59.9519577 311.5307007

endloop
endfacet
facet normal 0.7627227902 -0.4921049774 -0.4196267724
outer loop
vertex 29.29949188 59.9519577 311.5307007
vertex 29.57334137 60.24860382 311.6805725
vertex 29.35648346 59.91368866 311.6791687

endloop
endfacet
facet normal 0.739605546 -0.5262648463 -0.4195579886
outer loop
vertex 29.29949188 59.9519577 311.5307007
vertex 29.35648346 59.91368866 311.6791687
vertex 29.0815506 59.64595795 311.5303345

endloop
endfacet
facet normal 0.739464283 -0.5253348351 -0.4209701121
outer loop
vertex 29.0815506 59.64595795 311.5303345
vertex 29.35648346 59.91368866 311.6791687
vertex 29.13629913 59.60512543 311.6774597

endloop
endfacet
facet normal 0.6878646612 -0.5918874741 -0.4201325178
outer loop
vertex 29.0815506 59.64594269 311.5303345
vertex 29.13628387 59.60514069 311.6774292
vertex 28.83132172 59.38312531 311.4909058

endloop
endfacet
facet normal 0.6889570355 -0.5432621241 -0.4797964096
outer loop
vertex 28.83132172 59.38312531 311.4909058
vertex 29.13628387 59.60514069 311.6774292
vertex 28.89141083 59.33429718 311.6324768

endloop
endfacet
facet normal -0.116815798 -0.9531157017 -0.2791495919
outer loop
vertex 28.83132172 59.38312531 311.4909058
vertex 28.89141083 59.33429718 311.6324768
vertex 28.45517731 59.36963654 311.6943665

endloop
endfacet
facet normal -0.008397036232 -0.8927099109 0.4505534768
outer loop
vertex 28.45517731 59.36963654 311.6943665
vertex 28.89141083 59.33429718 311.6324768
vertex 28.45520782 59.36966705 311.6944275

endloop
endfacet
facet normal -0.8118194938 -0.4128856957 0.4128856957
outer loop
vertex 32.3398056 65.37630463 311.7700195
vertex 32.3398056 65.37627411 311.769989
vertex 32.49423981 64.97386932 311.6712341

endloop
endfacet
facet normal 0.9325460196 0.3608495891 -0.01205623057
outer loop
vertex 32.49423981 64.97386932 311.6712341
vertex 32.3398056 65.37627411 311.769989
vertex 32.49773407 64.97060394 311.8437805

endloop
endfacet
facet normal 0.8060257435 -0.5912407041 -0.02751197293
outer loop
vertex 32.49423981 64.97386932 311.6712341
vertex 32.49773407 64.97060394 311.8437805
vertex 32.29711151 64.70388031 311.6980591

endloop
endfacet
facet normal 0.7905275822 -0.6116336584 0.03115169704
outer loop
vertex 32.29711151 64.70388031 311.6980591
vertex 32.49773407 64.97060394 311.8437805
vertex 32.29288483 64.70668793 311.8604431

endloop
endfacet
facet normal 0.780795753 -0.6240112782 0.03111243248
outer loop
vertex 32.29711151 64.70388031 311.6980591
vertex 32.29288483 64.70668793 311.8604431
vertex 32.09368134 64.44933319 311.6979675

endloop
endfacet
facet normal 0.7802482247 -0.6246126294 0.0327363871
outer loop
vertex 32.09368134 64.44933319 311.6979675
vertex 32.29288483 64.70668793 311.8604431
vertex 32.08917999 64.45217133 311.8594055

endloop
endfacet
facet normal 0.8062625527 -0.5906441212 0.03286458179
outer loop
vertex 32.09368134 64.44933319 311.6979675
vertex 32.08917999 64.45217133 311.8594055
vertex 31.88776398 64.16817474 311.6967163

endloop
endfacet
facet normal 0.8061641455 -0.5907604098 0.03318940848
outer loop
vertex 31.88776398 64.16817474 311.6967163
vertex 32.08917999 64.45217133 311.8594055
vertex 31.88306427 64.17086029 311.8586731

endloop
endfacet
facet normal 0.8175506592 -0.5748954415 0.03325675428
outer loop
vertex 31.88776398 64.16817474 311.6967163
vertex 31.88306427 64.17086029 311.8586731
vertex 31.67440033 63.86467743 311.6954041

endloop
endfacet
facet normal 0.817465663 -0.5749989152 0.03355936334
outer loop
vertex 31.67440033 63.86467743 311.6954041
vertex 31.88306427 64.17086029 311.8586731
vertex 31.66959381 63.86730194 311.8574524

endloop
endfacet
facet normal 0.8248340487 -0.5643752813 0.03360595554
outer loop
vertex 31.67440033 63.86467743 311.6954041
vertex 31.66959381 63.86730194 311.8574524
vertex 31.46434784 63.55760956 311.6941223

endloop
endfacet
facet normal 0.824843049 -0.5643640161 0.0335733518
outer loop
vertex 31.46434784 63.55760956 311.6941223
vertex 31.66959381 63.86730194 311.8574524
vertex 31.45949554 63.56015778 311.8561707

endloop
endfacet
facet normal 0.8390234709 -0.5430527925 0.03366283327
outer loop
vertex 31.46434784 63.55760956 311.6941223
vertex 31.45949554 63.56015778 311.8561707
vertex 31.2682724 63.25460052 311.6929932

endloop
endfacet
facet normal 0.8389127851 -0.5431988239 0.0340658538
outer loop
vertex 31.2682724 63.25460052 311.6929932
vertex 31.45949554 63.56015778 311.8561707
vertex 31.26328278 63.25705719 311.8550415

endloop
endfacet
facet normal 0.8552584648 -0.5170715451 0.03420491889
outer loop
vertex 31.2682724 63.25460052 311.6929626
vertex 31.26326752 63.25704193 311.855011
vertex 31.08072662 62.94431305 311.6917725

endloop
endfacet
facet normal 0.8552583456 -0.5170716047 0.03420520946
outer loop
vertex 31.08072662 62.94431305 311.6917725
vertex 31.26326752 63.25704193 311.855011
vertex 31.07564545 62.94663239 311.8538818

endloop
endfacet
facet normal 0.8670455813 -0.4970475137 0.0342881605
outer loop
vertex 31.08072662 62.94431305 311.6917725
vertex 31.07564545 62.94663239 311.8538818
vertex 30.89838409 62.62615204 311.6905518

endloop
endfacet
facet normal 0.867010355 -0.49709934 0.03442803025
outer loop
vertex 30.89838409 62.62615204 311.6905518
vertex 31.07564545 62.94663239 311.8538818
vertex 30.89322662 62.62837982 311.8526001

endloop
endfacet
facet normal 0.8772080541 -0.4788691401 0.03450199589
outer loop
vertex 30.89841461 62.62618256 311.6905823
vertex 30.89325714 62.62841034 311.8526306
vertex 30.7216568 62.3022995 311.6893005

endloop
endfacet
facet normal 0.8770931363 -0.4790453017 0.03497447073
outer loop
vertex 30.7216568 62.3022995 311.6893005
vertex 30.89325714 62.62841034 311.8526306
vertex 30.71637726 62.30446625 311.8513794

endloop
endfacet
facet normal 0.8835836053 -0.4669619203 0.03502433747
outer loop
vertex 30.7216568 62.3022995 311.6893005
vertex 30.71637726 62.30446625 311.8513794
vertex 30.54567719 61.96921539 311.6880188

endloop
endfacet
facet normal 0.8835064173 -0.4670829177 0.03535327688
outer loop
vertex 30.54567719 61.96921539 311.6880188
vertex 30.71637726 62.30446625 311.8513794
vertex 30.54030609 61.97132111 311.8500671

endloop
endfacet
facet normal 0.8841077089 -0.4659435153 0.0353583917
outer loop
vertex 30.54567719 61.96921539 311.6880188
vertex 30.54030609 61.97132111 311.8500671
vertex 30.36582184 61.62784576 311.686676

endloop
endfacet
facet normal 0.884118259 -0.4659270644 0.03531251475
outer loop
vertex 30.36582184 61.62784576 311.686676
vertex 30.54030609 61.97132111 311.8500671
vertex 30.360466 61.62996674 311.8487549

endloop
endfacet
facet normal 0.880680263 -0.4723950922 0.03528353199
outer loop
vertex 30.36582184 61.62784576 311.686676
vertex 30.360466 61.62996674 311.8487549
vertex 30.18097687 61.28313446 311.6852417

endloop
endfacet
facet normal 0.8806760907 -0.4724017382 0.03530220687
outer loop
vertex 30.18097687 61.28313446 311.6852417
vertex 30.360466 61.62996674 311.8487549
vertex 30.17565155 61.28531647 311.84729

endloop
endfacet
facet normal 0.8731302023 -0.4862270057 0.03503017128
outer loop
vertex 30.18099213 61.28316498 311.6852722
vertex 30.17569733 61.28533173 311.8473206
vertex 29.98555756 60.93210602 311.6837158

endloop
endfacet
facet normal 0.8731529713 -0.4861930907 0.03493048996
outer loop
vertex 29.98555756 60.93210602 311.6837158
vertex 30.17569733 61.28533173 311.8473206
vertex 29.98032379 60.93434906 311.8457642

endloop
endfacet
facet normal 0.8599417806 -0.5092028379 0.03482230008
outer loop
vertex 29.98555756 60.93210602 311.6837158
vertex 29.98032379 60.93434906 311.8457642
vertex 29.78046417 60.58563995 311.6821899

endloop
endfacet
facet normal 0.8599773049 -0.5091529489 0.03467252105
outer loop
vertex 29.78046417 60.58563995 311.6821899
vertex 29.98032379 60.93434906 311.8457642
vertex 29.77532196 60.58798981 311.8442383

endloop
endfacet
facet normal 0.8513942361 -0.5233834386 0.03460648656
outer loop
vertex 29.78046417 60.58563995 311.6821899
vertex 29.77532196 60.58798981 311.8442383
vertex 29.57334137 60.24860382 311.6805725

endloop
endfacet
facet normal 0.8514806032 -0.5232660174 0.03425623849
outer loop
vertex 29.57334137 60.24860382 311.6805725
vertex 29.77532196 60.58798981 311.8442383
vertex 29.56830597 60.25101471 311.8425598

endloop
endfacet
facet normal 0.8388454914 -0.5432965755 0.03416163102
outer loop
vertex 29.57334137 60.24860382 311.6805725
vertex 29.56830597 60.25101471 311.8425598
vertex 29.35648346 59.91368866 311.6791687

endloop
endfacet
facet normal 0.8388896585 -0.5432393551 0.03398637474
outer loop
vertex 29.35648346 59.91368866 311.6791687
vertex 29.56830597 60.25101471 311.8425598
vertex 29.35155487 59.9161911 311.8408203

endloop
endfacet
facet normal 0.813452065 -0.5806496143 0.03379002959
outer loop
vertex 29.35648346 59.91368866 311.6791687
vertex 29.35155487 59.9161911 311.8408203
vertex 29.13629913 59.60512543 311.6774597

endloop
endfacet
facet normal 0.8138507009 -0.5801724792 0.03235591948
outer loop
vertex 29.13629913 59.60512543 311.6774597
vertex 29.35155487 59.9161911 311.8408203
vertex 29.13175201 59.6076889 311.8377991

endloop
endfacet
facet normal 0.7387935519 -0.6731920242 0.03156818449
outer loop
vertex 29.13628387 59.60514069 311.6774292
vertex 29.13175201 59.6076889 311.8378296
vertex 28.89141083 59.33429718 311.6324768

endloop
endfacet
facet normal 0.76060462 -0.6486699581 -0.02660599351
outer loop
vertex 28.89141083 59.33429718 311.6324768
vertex 29.13175201 59.6076889 311.8378296
vertex 28.89441681 59.33100128 311.7987671

endloop
endfacet
facet normal -0.08338048309 -0.9963508248 -0.01824057661
outer loop
vertex 28.89141083 59.33429718 311.6324768
vertex 28.89441681 59.33100128 311.7987671
vertex 28.45520782 59.36966705 311.6944275

endloop
endfacet
facet normal 0 -0.9374969006 -0.3479935825
outer loop
vertex 28.45520782 59.36966705 311.6944275
vertex 28.89441681 59.33100128 311.7987671
vertex 28.45519257 59.36966705 311.6944275

endloop
endfacet
facet normal -0 0.1789635867 0.9838556647
outer loop
vertex 32.3398056 65.37627411 311.769989
vertex 32.33979034 65.37627411 311.769989
vertex 32.49773407 64.97060394 311.8437805

endloop
endfacet
facet normal 0.892614603 0.3889830709 0.2278843522
outer loop
vertex 32.49773407 64.97060394 311.8437805
vertex 32.33979034 65.37627411 311.769989
vertex 32.43637848 65.01839447 312.002533

endloop
endfacet
facet normal 0.7226910591 -0.5331780314 0.4398168325
outer loop
vertex 32.49773407 64.97060394 311.8437805
vertex 32.43637848 65.01839447 312.002533
vertex 32.29288483 64.70668793 311.8604431

endloop
endfacet
facet normal 0.7039933205 -0.5363130569 0.4655767083
outer loop
vertex 32.29288483 64.70668793 311.8604431
vertex 32.43637848 65.01839447 312.002533
vertex 32.23390961 64.7538681 312.0039673

endloop
endfacet
facet normal 0.68998456 -0.5541343093 0.4656786621
outer loop
vertex 32.29288483 64.70668793 311.8604431
vertex 32.23390961 64.7538681 312.0039673
vertex 32.08917999 64.45217133 311.8594055

endloop
endfacet
facet normal 0.6892793775 -0.5542371869 0.4665994048
outer loop
vertex 32.08917999 64.45217133 311.8594055
vertex 32.23390961 64.7538681 312.0039673
vertex 32.02953339 64.49794769 312.0018921

endloop
endfacet
facet normal 0.7128717899 -0.5235337615 0.4666113853
outer loop
vertex 32.08917999 64.45217133 311.8594055
vertex 32.02953339 64.49794769 312.0018921
vertex 31.88306427 64.17086029 311.8586731

endloop
endfacet
facet normal 0.7125073075 -0.5235877633 0.4671072662
outer loop
vertex 31.88306427 64.17086029 311.8586731
vertex 32.02953339 64.49794769 312.0018921
vertex 31.82155609 64.21468353 312.0016174

endloop
endfacet
facet normal 0.7223666906 -0.5098663568 0.4671430588
outer loop
vertex 31.88306427 64.17086029 311.8586731
vertex 31.82155609 64.21468353 312.0016174
vertex 31.66959381 63.86730194 311.8574524

endloop
endfacet
facet normal 0.7222014666 -0.5098896027 0.4673731625
outer loop
vertex 31.66959381 63.86730194 311.8574524
vertex 31.82155609 64.21468353 312.0016174
vertex 31.6072464 63.91010284 312.0004883

endloop
endfacet
facet normal 0.7287560105 -0.5004473329 0.4674047232
outer loop
vertex 31.66959381 63.86730194 311.8574524
vertex 31.6072464 63.91010284 312.0004883
vertex 31.45949554 63.56015778 311.8561707

endloop
endfacet
facet normal 0.7286709547 -0.5004603267 0.467523396
outer loop
vertex 31.45949554 63.56015778 311.8561707
vertex 31.6072464 63.91010284 312.0004883
vertex 31.39644623 63.6019516 311.999176

endloop
endfacet
facet normal 0.7412539124 -0.4815939963 0.4675573111
outer loop
vertex 31.45949554 63.56015778 311.8561707
vertex 31.39644623 63.6019516 311.999176
vertex 31.26328278 63.25705719 311.8550415

endloop
endfacet
facet normal 0.741063118 -0.481630832 0.4678217471
outer loop
vertex 31.26328278 63.25705719 311.8550415
vertex 31.39644623 63.6019516 311.999176
vertex 31.1989975 63.29701996 311.9980164

endloop
endfacet
facet normal 0.7556566 -0.4584461153 0.4677715302
outer loop
vertex 31.26326752 63.25704193 311.855011
vertex 31.1989975 63.29701996 311.9980164
vertex 31.07564545 62.94663239 311.8538818

endloop
endfacet
facet normal 0.7553851604 -0.4585065246 0.4681505859
outer loop
vertex 31.07564545 62.94663239 311.8538818
vertex 31.1989975 63.29701996 311.9980164
vertex 31.0102005 62.98479462 311.9968567

endloop
endfacet
facet normal 0.7658016086 -0.440834552 0.4682017267
outer loop
vertex 31.07564545 62.94663239 311.8538818
vertex 31.0102005 62.98479462 311.9968567
vertex 30.89322662 62.62837982 311.8526001

endloop
endfacet
facet normal 0.7656519413 -0.4408707023 0.4684123397
outer loop
vertex 30.89322662 62.62837982 311.8526001
vertex 31.0102005 62.98479462 311.9968567
vertex 30.82689667 62.66509247 311.995575

endloop
endfacet
facet normal 0.7746296525 -0.424772799 0.4685264826
outer loop
vertex 30.89325714 62.62841034 311.8526306
vertex 30.82691193 62.66512299 311.9956055
vertex 30.71637726 62.30446625 311.8513794

endloop
endfacet
facet normal 0.7744025588 -0.4248318672 0.4688482881
outer loop
vertex 30.71637726 62.30446625 311.8513794
vertex 30.82691193 62.66512299 311.9956055
vertex 30.64931488 62.33994293 311.9942932

endloop
endfacet
facet normal 0.7801375389 -0.4141589105 0.4688900113
outer loop
vertex 30.71637726 62.30446625 311.8513794
vertex 30.64931488 62.33994293 311.9942932
vertex 30.54030609 61.97132111 311.8500671

endloop
endfacet
facet normal 0.7799972892 -0.4141958952 0.4690904915
outer loop
vertex 30.54030609 61.97132111 311.8500671
vertex 30.64931488 62.33994293 311.9942932
vertex 30.47286224 62.0062027 311.9930115

endloop
endfacet
facet normal 0.780598402 -0.4130559266 0.4690958858
outer loop
vertex 30.54030609 61.97132111 311.8500671
vertex 30.47286224 62.0062027 311.9930115
vertex 30.360466 61.62996674 311.8487549

endloop
endfacet
facet normal 0.7804344296 -0.413097471 0.4693320096
outer loop
vertex 30.360466 61.62996674 311.8487549
vertex 30.47286224 62.0062027 311.9930115
vertex 30.29306793 61.6649704 311.9916382

endloop
endfacet
facet normal 0.7773787379 -0.4188543856 0.4693008959
outer loop
vertex 30.360466 61.62996674 311.8487549
vertex 30.29306793 61.6649704 311.9916382
vertex 30.17565155 61.28531647 311.84729

endloop
endfacet
facet normal 0.7775090337 -0.4188231826 0.4691127241
outer loop
vertex 30.17565155 61.28531647 311.84729
vertex 30.29306793 61.6649704 311.9916382
vertex 30.10863495 61.32094574 311.9901733

endloop
endfacet
facet normal 0.7707478404 -0.4311150312 0.4691349864
outer loop
vertex 30.17569733 61.28533173 311.8473206
vertex 30.10866547 61.32097626 311.9902039
vertex 29.98032379 60.93434906 311.8457642

endloop
endfacet
facet normal 0.7709883451 -0.4310644567 0.4687859416
outer loop
vertex 29.98032379 60.93434906 311.8457642
vertex 30.10866547 61.32097626 311.9902039
vertex 29.91411591 60.97135162 311.988678

endloop
endfacet
facet normal 0.7592977285 -0.4514749944 0.4686546922
outer loop
vertex 29.98032379 60.93434906 311.8457642
vertex 29.91411591 60.97135162 311.988678
vertex 29.77532196 60.58798981 311.8442383

endloop
endfacet
facet normal 0.7592276335 -0.4514878392 0.4687560797
outer loop
vertex 29.77532196 60.58798981 311.8442383
vertex 29.91411591 60.97135162 311.988678
vertex 29.71001434 60.62657928 311.9871826

endloop
endfacet
facet normal 0.7516328692 -0.464089781 0.4686882496
outer loop
vertex 29.77532196 60.58798981 311.8442383
vertex 29.71001434 60.62657928 311.9871826
vertex 29.56830597 60.25101471 311.8425598

endloop
endfacet
facet normal 0.7519060373 -0.4640422463 0.4682970941
outer loop
vertex 29.56830597 60.25101471 311.8425598
vertex 29.71001434 60.62657928 311.9871826
vertex 29.50371552 60.29061127 311.9855042

endloop
endfacet
facet normal 0.7406647205 -0.4819082916 0.4681667089
outer loop
vertex 29.56830597 60.25101471 311.8425598
vertex 29.50371552 60.29061127 311.9855042
vertex 29.35155487 59.9161911 311.8408203

endloop
endfacet
facet normal 0.7408260107 -0.4818846583 0.4679359794
outer loop
vertex 29.35155487 59.9161911 311.8408203
vertex 29.50371552 60.29061127 311.9855042
vertex 29.28824615 59.95734406 311.983429

endloop
endfacet
facet normal 0.7177627683 -0.5159730911 0.4675344527
outer loop
vertex 29.35155487 59.9161911 311.8408203
vertex 29.28824615 59.95734406 311.983429
vertex 29.13175201 59.6076889 311.8377991

endloop
endfacet
facet normal 0.7182648778 -0.5159068704 0.4668358266
outer loop
vertex 29.13175201 59.6076889 311.8377991
vertex 29.28824615 59.95734406 311.983429
vertex 29.07111359 59.65148163 311.9794922

endloop
endfacet
facet normal 0.6392150521 -0.6137248278 0.4634069204
outer loop
vertex 29.13175201 59.6076889 311.8378296
vertex 29.07109833 59.65148163 311.9794922
vertex 28.89441681 59.33100128 311.7987671

endloop
endfacet
facet normal 0.6582068801 -0.6109408736 0.4399032593
outer loop
vertex 28.89441681 59.33100128 311.7987671
vertex 29.07109833 59.65148163 311.9794922
vertex 28.83545685 59.37752533 311.9515991

endloop
endfacet
facet normal -0.1411475986 -0.960937202 0.2380694002
outer loop
vertex 28.89441681 59.33100128 311.7987671
vertex 28.83545685 59.37752533 311.9515991
vertex 28.45519257 59.36966705 311.6944275

endloop
endfacet
facet normal 0.2731087804 0.8604722023 -0.4301152825
outer loop
vertex 28.45519257 59.36966705 311.6944275
vertex 28.83545685 59.37752533 311.9515991
vertex 28.45519257 59.36965179 311.694397

endloop
endfacet
facet normal -nan(ind) -nan(ind) -nan(ind)
outer loop
vertex 32.33979034 65.37627411 311.769989
vertex 32.33979034 65.37627411 311.769989
vertex 32.43637848 65.01839447 312.002533

endloop
endfacet
facet normal 0.7740923762 0.4783636034 0.414667666
outer loop
vertex 32.43637848 65.01839447 312.002533
vertex 32.33979034 65.37627411 311.769989
vertex 32.32831573 65.10308075 312.1065674

endloop
endfacet
facet normal 0.481712997 -0.364382416 0.7969806194
outer loop
vertex 32.43637848 65.01839447 312.002533
vertex 32.32831573 65.10308075 312.1065674
vertex 32.23390961 64.7538681 312.0039673

endloop
endfacet
facet normal 0.4888566434 -0.3649547398 0.7923555374
outer loop
vertex 32.23390961 64.7538681 312.0039673
vertex 32.32831573 65.10308075 312.1065674
vertex 32.13665009 64.83229828 312.1000977

endloop
endfacet
facet normal 0.4733467698 -0.3844380379 0.7925593257
outer loop
vertex 32.23390961 64.7538681 312.0039673
vertex 32.13665009 64.83229828 312.1000977
vertex 32.02953339 64.49794769 312.0018921

endloop
endfacet
facet normal 0.473136276 -0.3844113052 0.7926979661
outer loop
vertex 32.02953339 64.49794769 312.0018921
vertex 32.13665009 64.83229828 312.1000977
vertex 31.93138885 64.5739975 312.0973511

endloop
endfacet
facet normal 0.4910357296 -0.3612952828 0.7926850319
outer loop
vertex 32.02953339 64.49794769 312.0018921
vertex 31.93138885 64.5739975 312.0973511
vertex 31.82155609 64.21468353 312.0016174

endloop
endfacet
facet normal 0.4903101325 -0.3612041771 0.7931755781
outer loop
vertex 31.82155609 64.21468353 312.0016174
vertex 31.93138885 64.5739975 312.0973511
vertex 31.72032928 64.28749847 312.0973511

endloop
endfacet
facet normal 0.4966561496 -0.3523987532 0.7931883335
outer loop
vertex 31.82155609 64.21468353 312.0016174
vertex 31.72032928 64.28749847 312.0973511
vertex 31.6072464 63.91010284 312.0004883

endloop
endfacet
facet normal 0.4966126382 -0.3523933291 0.7932180166
outer loop
vertex 31.6072464 63.91010284 312.0004883
vertex 31.72032928 64.28749847 312.0973511
vertex 31.50466156 63.98116302 312.096283

endloop
endfacet
facet normal 0.5009918213 -0.3460965753 0.7932366133
outer loop
vertex 31.6072464 63.91010284 312.0004883
vertex 31.50466156 63.98116302 312.096283
vertex 31.39644623 63.6019516 311.999176

endloop
endfacet
facet normal 0.5009037256 -0.3460867703 0.7932965755
outer loop
vertex 31.39644623 63.6019516 311.999176
vertex 31.50466156 63.98116302 312.096283
vertex 31.29277802 63.67134857 312.0949097

endloop
endfacet
facet normal 0.5096572042 -0.3330292404 0.7933101654
outer loop
vertex 31.39644623 63.6019516 311.999176
vertex 31.29277802 63.67134857 312.0949097
vertex 31.1989975 63.29701996 311.9980164

endloop
endfacet
facet normal 0.5094898343 -0.333016485 0.7934230566
outer loop
vertex 31.1989975 63.29701996 311.9980164
vertex 31.29277802 63.67134857 312.0949097
vertex 31.09331512 63.36334991 312.0937195

endloop
endfacet
facet normal 0.5194914341 -0.3170741498 0.7934687138
outer loop
vertex 31.1989975 63.29701996 311.9980164
vertex 31.09331512 63.36336517 312.0937195
vertex 31.0102005 62.98479462 311.9968567

endloop
endfacet
facet normal 0.5192103386 -0.3170608878 0.7936579585
outer loop
vertex 31.0102005 62.98479462 311.9968567
vertex 31.09331512 63.36336517 312.0937195
vertex 30.90262604 63.04811859 312.0925293

endloop
endfacet
facet normal 0.5263546109 -0.3049717844 0.793689549
outer loop
vertex 31.0102005 62.98479462 311.9968567
vertex 30.90262604 63.04811859 312.0925293
vertex 30.82689667 62.66509247 311.995575

endloop
endfacet
facet normal 0.5260964036 -0.3049647212 0.7938633561
outer loop
vertex 30.82689667 62.66509247 311.995575
vertex 30.90262604 63.04811859 312.0925293
vertex 30.71790314 62.72603607 312.091217

endloop
endfacet
facet normal 0.5322998166 -0.2939192057 0.7938944697
outer loop
vertex 30.82691193 62.66512299 311.9956055
vertex 30.7179184 62.72606659 312.0912476
vertex 30.64931488 62.33994293 311.9942932

endloop
endfacet
facet normal 0.5320168734 -0.2939167917 0.7940849662
outer loop
vertex 30.64931488 62.33994293 311.9942932
vertex 30.7179184 62.72606659 312.0912476
vertex 30.53916168 62.39887238 312.0899048

endloop
endfacet
facet normal 0.5360313058 -0.2864562273 0.7941116095
outer loop
vertex 30.64931488 62.33994293 311.9942932
vertex 30.53916168 62.39887238 312.0899048
vertex 30.47286224 62.0062027 311.9930115

endloop
endfacet
facet normal 0.5357055664 -0.2864554822 0.7943315506
outer loop
vertex 30.47286224 62.0062027 311.9930115
vertex 30.53916168 62.39887238 312.0899048
vertex 30.36211395 62.06404877 312.088562

endloop
endfacet
facet normal 0.5361166 -0.2856750786 0.7943354249
outer loop
vertex 30.47286224 62.0062027 311.9930115
vertex 30.36211395 62.06404877 312.088562
vertex 30.29306793 61.6649704 311.9916382

endloop
endfacet
facet normal 0.5361834168 -0.2856756449 0.7942900658
outer loop
vertex 30.29306793 61.6649704 311.9916382
vertex 30.36211395 62.06404877 312.088562
vertex 30.18242645 61.72306061 312.0872192

endloop
endfacet
facet normal 0.5340563655 -0.2896916568 0.7942686081
outer loop
vertex 30.29306793 61.6649704 311.9916382
vertex 30.18242645 61.72306061 312.0872192
vertex 30.10863495 61.32094574 311.9901733

endloop
endfacet
facet normal 0.5339902639 -0.2896903753 0.7943134308
outer loop
vertex 30.10863495 61.32094574 311.9901733
vertex 30.18242645 61.72306061 312.0872192
vertex 29.99854279 61.38008881 312.0857544

endloop
endfacet
facet normal 0.5294387341 -0.298074007 0.7942584753
outer loop
vertex 30.10866547 61.32097626 311.9902039
vertex 29.9985733 61.38011932 312.0857849
vertex 29.91411591 60.97135162 311.988678

endloop
endfacet
facet normal 0.5296466947 -0.298083216 0.7941163778
outer loop
vertex 29.91411591 60.97135162 311.988678
vertex 29.9985733 61.38011932 312.0857849
vertex 29.80538177 61.03278351 312.084259

endloop
endfacet
facet normal 0.521581769 -0.3122147322 0.794024229
outer loop
vertex 29.91411591 60.97135162 311.988678
vertex 29.80538177 61.03278351 312.084259
vertex 29.71001434 60.62657928 311.9871826

endloop
endfacet
facet normal 0.5217222571 -0.3122247159 0.7939278483
outer loop
vertex 29.71001434 60.62657928 311.9871826
vertex 29.80538177 61.03278351 312.084259
vertex 29.60280609 60.69063568 312.0828247

endloop
endfacet
facet normal 0.5164026618 -0.321059674 0.7938821912
outer loop
vertex 29.71001434 60.62657928 311.9871826
vertex 29.60280609 60.69063568 312.0828247
vertex 29.50371552 60.29061127 311.9855042

endloop
endfacet
facet normal 0.5163374543 -0.3210543394 0.7939267755
outer loop
vertex 29.50371552 60.29061127 311.9855042
vertex 29.60280609 60.69063568 312.0828247
vertex 29.39757538 60.35634613 312.0811157

endloop
endfacet
facet normal 0.5084363222 -0.3336655498 0.7938260436
outer loop
vertex 29.50371552 60.29061127 311.9855042
vertex 29.39757538 60.35634613 312.0811157
vertex 29.28824615 59.95734406 311.983429

endloop
endfacet
facet normal 0.5090181231 -0.3337273002 0.7934271097
outer loop
vertex 29.28824615 59.95734406 311.983429
vertex 29.39757538 60.35634613 312.0811157
vertex 29.18418121 60.0256424 312.0789185

endloop
endfacet
facet normal 0.4918474853 -0.3593713343 0.7930562496
outer loop
vertex 29.28824615 59.95734406 311.983429
vertex 29.18418121 60.0256424 312.0789185
vertex 29.07111359 59.65148163 311.9794922

endloop
endfacet
facet normal 0.4917560816 -0.3593601584 0.793118
outer loop
vertex 29.07111359 59.65148163 311.9794922
vertex 29.18418121 60.0256424 312.0789185
vertex 28.97132111 59.72418976 312.0743103

endloop
endfacet
facet normal 0.4244291186 -0.445338428 0.7883740067
outer loop
vertex 29.07109833 59.65148163 311.9794922
vertex 28.97132111 59.72418976 312.0742798
vertex 28.83545685 59.37752533 311.9515991

endloop
endfacet
facet normal 0.4146394432 -0.4436698258 0.794500649
outer loop
vertex 28.83545685 59.37752533 311.9515991
vertex 28.97132111 59.72418976 312.0742798
vertex 28.731987 59.46007538 312.0516968

endloop
endfacet
facet normal -0.272267282 -0.8613424301 0.4289051592
outer loop
vertex 28.83545685 59.37752533 311.9515991
vertex 28.731987 59.46007538 312.0516968
vertex 28.45519257 59.36965179 311.694397

endloop
endfacet
facet normal -nan(ind) -nan(ind) -nan(ind)
outer loop
vertex 28.45519257 59.36965179 311.694397
vertex 28.731987 59.46007538 312.0516968
vertex 28.45519257 59.36965179 311.694397

endloop
endfacet
facet normal -0 -0.7764261365 -0.6302082539
outer loop
vertex 32.33979034 65.37627411 311.769989
vertex 32.3398056 65.37627411 311.769989
vertex 32.32831573 65.10308075 312.1065674

endloop
endfacet
facet normal 0.5980660319 0.6121526361 0.5172873139
outer loop
vertex 32.32831573 65.10308075 312.1065674
vertex 32.3398056 65.37627411 311.769989
vertex 32.20319366 65.20146942 312.1347961

endloop
endfacet
facet normal 0.1308200955 -0.116121605 0.9845820665
outer loop
vertex 32.32831573 65.10308075 312.1065674
vertex 32.20319366 65.20146942 312.1347961
vertex 32.13665009 64.83229828 312.1000977

endloop
endfacet
facet normal 0.1852441877 -0.1250036955 0.9747095108
outer loop
vertex 32.13665009 64.83229828 312.1000977
vertex 32.20319366 65.20146942 312.1347961
vertex 32.02445221 64.92302704 312.1330566

endloop
endfacet
facet normal 0.169239819 -0.1448541433 0.9748718143
outer loop
vertex 32.13665009 64.83229828 312.1000977
vertex 32.02445221 64.92302704 312.1330566
vertex 31.93138885 64.5739975 312.0973511

endloop
endfacet
facet normal 0.1696711481 -0.1449598819 0.9747812152
outer loop
vertex 31.93138885 64.5739975 312.0973511
vertex 32.02445221 64.92302704 312.1330566
vertex 31.81822968 64.66194916 312.130127

endloop
endfacet
facet normal 0.1795456707 -0.1322686225 0.9748170972
outer loop
vertex 31.93138885 64.5739975 312.0973511
vertex 31.81822968 64.66194916 312.130127
vertex 31.72032928 64.28749847 312.0973511

endloop
endfacet
facet normal 0.1786476672 -0.1320508718 0.9750116467
outer loop
vertex 31.72032928 64.28749847 312.0973511
vertex 31.81822968 64.66194916 312.130127
vertex 31.60370636 64.37172699 312.130127

endloop
endfacet
facet normal 0.180026561 -0.1301427782 0.9750145078
outer loop
vertex 31.72032928 64.28749847 312.0973511
vertex 31.60370636 64.37172699 312.130127
vertex 31.50466156 63.98116302 312.096283

endloop
endfacet
facet normal 0.1798361987 -0.1300980747 0.975055635
outer loop
vertex 31.50466156 63.98116302 312.096283
vertex 31.60370636 64.37172699 312.130127
vertex 31.38645172 64.0634079 312.1290588

endloop
endfacet
facet normal 0.1811504364 -0.1282117069 0.9750621915
outer loop
vertex 31.50466156 63.98116302 312.096283
vertex 31.38645172 64.0634079 312.1290588
vertex 31.29277802 63.67134857 312.0949097

endloop
endfacet
facet normal 0.1812903881 -0.1282425225 0.9750320911
outer loop
vertex 31.29277802 63.67134857 312.0949097
vertex 31.38645172 64.0634079 312.1290588
vertex 31.17328644 63.75162506 312.1276855

endloop
endfacet
facet normal 0.1846024692 -0.1233181581 0.975045979
outer loop
vertex 31.29277802 63.67134857 312.0949097
vertex 31.17328644 63.75162506 312.1276855
vertex 31.09331512 63.36334991 312.0937195

endloop
endfacet
facet normal 0.1836146563 -0.1231330559 0.9752557278
outer loop
vertex 31.09331512 63.36334991 312.0937195
vertex 31.17328644 63.75162506 312.1276855
vertex 30.97154999 63.44016266 312.1263428

endloop
endfacet
facet normal 0.1876311004 -0.1171777993 0.975225091
outer loop
vertex 31.09331512 63.36336517 312.0937195
vertex 30.97156525 63.44017792 312.1263733
vertex 30.90262604 63.04811859 312.0925293

endloop
endfacet
facet normal 0.1876439303 -0.1171798259 0.9752223492
outer loop
vertex 30.90262604 63.04811859 312.0925293
vertex 30.97156525 63.44017792 312.1263733
vertex 30.77869415 63.12142181 312.1251831

endloop
endfacet
facet normal 0.1901144534 -0.1130090877 0.9752361178
outer loop
vertex 30.90262604 63.04811859 312.0925293
vertex 30.77869415 63.12142181 312.1251831
vertex 30.71790314 62.72603607 312.091217

endloop
endfacet
facet normal 0.189707309 -0.1129538491 0.9753217697
outer loop
vertex 30.71790314 62.72603607 312.091217
vertex 30.77869415 63.12142181 312.1251831
vertex 30.59233856 62.79657745 312.1238098

endloop
endfacet
facet normal 0.1920185536 -0.1089085639 0.9753295779
outer loop
vertex 30.7179184 62.72606659 312.0912476
vertex 30.59236908 62.79659271 312.1238403
vertex 30.53916168 62.39887238 312.0899048

endloop
endfacet
facet normal 0.1916024685 -0.1088603437 0.9754167795
outer loop
vertex 30.53916168 62.39887238 312.0899048
vertex 30.59236908 62.79659271 312.1238403
vertex 30.41230011 62.46707916 312.1224365

endloop
endfacet
facet normal 0.1931256205 -0.1060326397 0.975427866
outer loop
vertex 30.53916168 62.39887238 312.0899048
vertex 30.41230011 62.46707916 312.1224365
vertex 30.36211395 62.06404877 312.088562

endloop
endfacet
facet normal 0.1931146085 -0.1060314551 0.9754301906
outer loop
vertex 30.36211395 62.06404877 312.088562
vertex 30.41230011 62.46707916 312.1224365
vertex 30.23456573 62.13101959 312.1210938

endloop
endfacet
facet normal 0.1932902783 -0.105697602 0.9754316211
outer loop
vertex 30.36211395 62.06404877 312.088562
vertex 30.23456573 62.13101959 312.1210938
vertex 30.18242645 61.72306061 312.0872192

endloop
endfacet
facet normal 0.1932538599 -0.1056935787 0.9754392505
outer loop
vertex 30.18242645 61.72306061 312.0872192
vertex 30.23456573 62.13101959 312.1210938
vertex 30.05498505 61.79027557 312.119751

endloop
endfacet
facet normal 0.1923950166 -0.1073183119 0.9754316807
outer loop
vertex 30.18242645 61.72306061 312.0872192
vertex 30.05498505 61.79027557 312.119751
vertex 29.99854279 61.38008881 312.0857544

endloop
endfacet
facet normal 0.1922135651 -0.1072965115 0.9754698277
outer loop
vertex 29.99854279 61.38008881 312.0857544
vertex 30.05498505 61.79027557 312.119751
vertex 29.87180328 61.44852448 312.1182556

endloop
endfacet
facet normal 0.1905839592 -0.110289894 0.9754557014
outer loop
vertex 29.9985733 61.38011932 312.0857849
vertex 29.87181854 61.44853973 312.1182861
vertex 29.80538177 61.03278351 312.084259

endloop
endfacet
facet normal 0.1907176971 -0.1103089601 0.9754274487
outer loop
vertex 29.80538177 61.03278351 312.084259
vertex 29.87181854 61.44853973 312.1182861
vertex 29.68010712 61.10385895 312.1167908

endloop
endfacet
facet normal 0.1878677607 -0.1153199896 0.9754009843
outer loop
vertex 29.80538177 61.03278351 312.084259
vertex 29.68010712 61.10385895 312.1167908
vertex 29.60280609 60.69063568 312.0828247

endloop
endfacet
facet normal 0.1877890527 -0.1153066382 0.9754176736
outer loop
vertex 29.60280609 60.69063568 312.0828247
vertex 29.68010712 61.10385895 312.1167908
vertex 29.47931671 60.7647171 312.1153564

endloop
endfacet
facet normal 0.1856068224 -0.1189363003 0.9753995538
outer loop
vertex 29.60280609 60.69063568 312.0828247
vertex 29.47931671 60.7647171 312.1153564
vertex 29.39757538 60.35634613 312.0811157

endloop
endfacet
facet normal 0.1862505227 -0.1190536544 0.9752624631
outer loop
vertex 29.39757538 60.35634613 312.0811157
vertex 29.47931671 60.7647171 312.1153564
vertex 29.27535248 60.43238068 312.113739

endloop
endfacet
facet normal 0.1828661412 -0.1244781762 0.9752257466
outer loop
vertex 29.39757538 60.35634613 312.0811157
vertex 29.27535248 60.43238068 312.113739
vertex 29.18418121 60.0256424 312.0789185

endloop
endfacet
facet normal 0.1828514934 -0.1244751588 0.9752287865
outer loop
vertex 29.18418121 60.0256424 312.0789185
vertex 29.27535248 60.43238068 312.113739
vertex 29.06430817 60.10466766 312.1114807

endloop
endfacet
facet normal 0.1740272194 -0.1377883106 0.9750532508
outer loop
vertex 29.18418121 60.0256424 312.0789185
vertex 29.06430817 60.10466766 312.1114807
vertex 28.97132111 59.72418976 312.0743103

endloop
endfacet
facet normal 0.172930032 -0.1375426203 0.9752831459
outer loop
vertex 28.97132111 59.72418976 312.0743103
vertex 29.06430817 60.10466766 312.1114807
vertex 28.85633087 59.80834198 312.1065674

endloop
endfacet
facet normal 0.1274963021 -0.1986230463 0.9717476964
outer loop
vertex 28.97132111 59.72418976 312.0742798
vertex 28.85633087 59.80834198 312.1065674
vertex 28.731987 59.46007538 312.0516968

endloop
endfacet
facet normal 0.07592612505 -0.1815802008 0.9804406166
outer loop
vertex 28.731987 59.46007538 312.0516968
vertex 28.85633087 59.80834198 312.1065674
vertex 28.61229706 59.55602264 312.0787354

endloop
endfacet
facet normal -0.4531580508 -0.7152329683 0.5320617557
outer loop
vertex 28.731987 59.46007538 312.0516968
vertex 28.61229706 59.55602264 312.0787354
vertex 28.45519257 59.36965179 311.694397

endloop
endfacet
facet normal -0.9256312251 0 0.3784267604
outer loop
vertex 28.45519257 59.36965179 311.694397
vertex 28.61229706 59.55602264 312.0787354
vertex 28.45519257 59.36966705 311.694397

endloop
endfacet
facet normal -0 0.9018148184 0.4321227372
outer loop
vertex 32.3398056 65.37627411 311.769989
vertex 32.33979034 65.37627411 311.769989
vertex 32.20319366 65.20146942 312.1347961

endloop
endfacet
facet normal 0.3941753209 0.762545228 0.5129820704
outer loop
vertex 32.20319366 65.20146942 312.1347961
vertex 32.33979034 65.37627411 311.769989
vertex 32.08751678 65.29271698 312.0880432

endloop
endfacet
facet normal -0.2587036192 0.1601193994 0.9525933862
outer loop
vertex 32.20319366 65.20146942 312.1347961
vertex 32.08751678 65.29271698 312.0880432
vertex 32.02445221 64.92302704 312.1330566

endloop
endfacet
facet normal -0.1884967834 0.1503233761 0.9705008268
outer loop
vertex 32.02445221 64.92302704 312.1330566
vertex 32.08751678 65.29271698 312.0880432
vertex 31.91695404 65.01027679 312.0986633

endloop
endfacet
facet normal -0.1945780218 0.1428052783 0.970435977
outer loop
vertex 32.02445221 64.92302704 312.1330566
vertex 31.91695404 65.01027679 312.0986633
vertex 31.81822968 64.66194916 312.130127

endloop
endfacet
facet normal -0.1940101832 0.1426565796 0.9705714583
outer loop
vertex 31.81822968 64.66194916 312.130127
vertex 31.91695404 65.01027679 312.0986633
vertex 31.7097702 64.7465744 312.0960083

endloop
endfacet
facet normal -0.1936399341 0.1431326866 0.9705753922
outer loop
vertex 31.81822968 64.66194916 312.130127
vertex 31.7097702 64.7465744 312.0960083
vertex 31.60370636 64.37172699 312.130127

endloop
endfacet
facet normal -0.194081232 0.1432479918 0.97047019
outer loop
vertex 31.60370636 64.37172699 312.130127
vertex 31.7097702 64.7465744 312.0960083
vertex 31.49196625 64.45272064 312.0958252

endloop
endfacet
facet normal -0.1988050491 0.1367244571 0.9704549909
outer loop
vertex 31.60370636 64.37172699 312.130127
vertex 31.49196625 64.45272064 312.0958252
vertex 31.38645172 64.0634079 312.1290588

endloop
endfacet
facet normal -0.1990316957 0.1367812455 0.9704005718
outer loop
vertex 31.38645172 64.0634079 312.1290588
vertex 31.49196625 64.45272064 312.0958252
vertex 31.27323151 64.14244843 312.094696

endloop
endfacet
facet normal -0.2013809085 0.133409515 0.970385313
outer loop
vertex 31.38645172 64.0634079 312.1290588
vertex 31.27323151 64.14244843 312.094696
vertex 31.17328644 63.75162506 312.1276855

endloop
endfacet
facet normal -0.2014713138 0.1334308088 0.9703635573
outer loop
vertex 31.17328644 63.75162506 312.1276855
vertex 31.27323151 64.14244843 312.094696
vertex 31.05879974 63.82888031 312.0932922

endloop
endfacet
facet normal -0.2048082948 0.1284725219 0.9703341126
outer loop
vertex 31.17328644 63.75162506 312.1276855
vertex 31.05879974 63.82888031 312.0932922
vertex 30.97154999 63.44016266 312.1263428

endloop
endfacet
facet normal -0.2047273219 0.1284559965 0.9703534245
outer loop
vertex 30.97154999 63.44016266 312.1263428
vertex 31.05879974 63.82888031 312.0932922
vertex 30.8549118 63.51407623 312.0919495

endloop
endfacet
facet normal -0.2088162005 0.1227266341 0.9702236652
outer loop
vertex 30.97156525 63.44017792 312.1263733
vertex 30.8549118 63.51407623 312.0919189
vertex 30.77869415 63.12142181 312.1251831

endloop
endfacet
facet normal -0.2088849992 0.1227386072 0.9702073336
outer loop
vertex 30.77869415 63.12142181 312.1251831
vertex 30.8549118 63.51407623 312.0919189
vertex 30.65998077 63.19197845 312.0906982

endloop
endfacet
facet normal -0.2119855285 0.1175096408 0.9701822996
outer loop
vertex 30.77869415 63.12142181 312.1251831
vertex 30.65998077 63.19197845 312.0906982
vertex 30.59233856 62.79657745 312.1238098

endloop
endfacet
facet normal -0.2120746672 0.1175231114 0.97016114
outer loop
vertex 30.59233856 62.79657745 312.1238098
vertex 30.65998077 63.19197845 312.0906982
vertex 30.47203827 62.86441803 312.0892944

endloop
endfacet
facet normal -0.2145248502 0.1130981222 0.9701483846
outer loop
vertex 30.59236908 62.79659271 312.1238403
vertex 30.47205353 62.86444855 312.089325
vertex 30.41230011 62.46707916 312.1224365

endloop
endfacet
facet normal -0.2148588896 0.1131417677 0.9700694084
outer loop
vertex 30.41230011 62.46707916 312.1224365
vertex 30.47205353 62.86444855 312.089325
vertex 30.29073334 62.5326767 312.0878601

endloop
endfacet
facet normal -0.2162768245 0.1105079576 0.9700579047
outer loop
vertex 30.41230011 62.46707916 312.1224365
vertex 30.29073334 62.5326767 312.0878601
vertex 30.23456573 62.13101959 312.1210938

endloop
endfacet
facet normal -0.2164398581 0.1105275676 0.9700192213
outer loop
vertex 30.23456573 62.13101959 312.1210938
vertex 30.29073334 62.5326767 312.0878601
vertex 30.11235809 62.19542694 312.0864868

endloop
endfacet
facet normal -0.2165555209 0.1103076562 0.9700184464
outer loop
vertex 30.23456573 62.13101959 312.1210938
vertex 30.11235809 62.19542694 312.0864868
vertex 30.05498505 61.79027557 312.119751

endloop
endfacet
facet normal -0.2168140411 0.1103392392 0.9699571729
outer loop
vertex 30.05498505 61.79027557 312.119751
vertex 30.11235809 62.19542694 312.0864868
vertex 29.93292999 61.85492706 312.0851135

endloop
endfacet
facet normal -0.2161421776 0.1116100624 0.9699617028
outer loop
vertex 30.05498505 61.79027557 312.119751
vertex 29.93292999 61.85492706 312.0851135
vertex 29.87180328 61.44852448 312.1182556

endloop
endfacet
facet normal -0.2158027142 0.1115655825 0.9700424075
outer loop
vertex 29.87180328 61.44852448 312.1182556
vertex 29.93292999 61.85492706 312.0851135
vertex 29.75041962 61.51436615 312.0836792

endloop
endfacet
facet normal -0.2140213698 0.1148301885 0.9700561166
outer loop
vertex 29.87181854 61.44853973 312.1182861
vertex 29.75043488 61.51439667 312.0837097
vertex 29.68010712 61.10385895 312.1167908

endloop
endfacet
facet normal -0.2137230933 0.1147848219 0.9701272249
outer loop
vertex 29.68010712 61.10385895 312.1167908
vertex 29.75043488 61.51439667 312.0837097
vertex 29.56015778 61.17223358 312.0822754

endloop
endfacet
facet normal -0.2104675025 0.1205051839 0.9701453447
outer loop
vertex 29.68010712 61.10385895 312.1167908
vertex 29.56015778 61.17223358 312.0822754
vertex 29.47931671 60.7647171 312.1153564

endloop
endfacet
facet normal -0.2104988247 0.1205107942 0.9701377749
outer loop
vertex 29.47931671 60.7647171 312.1153564
vertex 29.56015778 61.17223358 312.0822754
vertex 29.36103058 60.83596039 312.0808411

endloop
endfacet
facet normal -0.2087614685 0.1234012172 0.9701498747
outer loop
vertex 29.47931671 60.7647171 312.1153564
vertex 29.36103058 60.83596039 312.0808411
vertex 29.27535248 60.43238068 312.113739

endloop
endfacet
facet normal -0.2084619254 0.1233434826 0.9702216387
outer loop
vertex 29.27535248 60.43238068 312.113739
vertex 29.36103058 60.83596039 312.0808411
vertex 29.15824127 60.50547028 312.0792847

endloop
endfacet
facet normal -0.2065869421 0.1263541877 0.9702352881
outer loop
vertex 29.27535248 60.43238068 312.113739
vertex 29.15824127 60.50547028 312.0792847
vertex 29.06430817 60.10466766 312.1114807

endloop
endfacet
facet normal -0.206456244 0.126326099 0.9702667594
outer loop
vertex 29.06430817 60.10466766 312.1114807
vertex 29.15824127 60.50547028 312.0792847
vertex 28.94945526 60.18065643 312.0771484

endloop
endfacet
facet normal -0.2053352296 0.1280272156 0.9702816606
outer loop
vertex 29.06430817 60.10466766 312.1114807
vertex 28.94945526 60.18065643 312.0771484
vertex 28.85633087 59.80834198 312.1065674

endloop
endfacet
facet normal -0.2063626051 0.1282644868 0.9700323343
outer loop
vertex 28.85633087 59.80834198 312.1065674
vertex 28.94945526 60.18065643 312.0771484
vertex 28.74620819 59.8891983 312.0724487

endloop
endfacet
facet normal -0.2216614634 0.1074771807 0.9691826105
outer loop
vertex 28.85633087 59.80834198 312.1065674
vertex 28.74622345 59.8891983 312.0724182
vertex 28.61229706 59.55602264 312.0787354

endloop
endfacet
facet normal -0.2826278806 0.1316230744 0.9501562715
outer loop
vertex 28.61229706 59.55602264 312.0787354
vertex 28.74622345 59.8891983 312.0724182
vertex 28.50173187 59.64487457 312.0335388

endloop
endfacet
facet normal -0.6522766352 -0.5422973037 0.529574275
outer loop
vertex 28.61229706 59.55602264 312.0787354
vertex 28.50173187 59.64487457 312.0335388
vertex 28.45519257 59.36966705 311.694397

endloop
endfacet
facet normal 0.9907388687 0 -0.1357811242
outer loop
vertex 28.45519257 59.36966705 311.694397
vertex 28.50173187 59.64487457 312.0335388
vertex 28.45519257 59.36965179 311.694397

endloop
endfacet
facet normal -nan(ind) -nan(ind) -nan(ind)
outer loop
vertex 32.33979034 65.37627411 311.769989
vertex 32.33979034 65.37627411 311.769989
vertex 32.08751678 65.29271698 312.0880432

endloop
endfacet
facet normal 0.2050090283 0.8943751454 0.3975730836
outer loop
vertex 32.08751678 65.29271698 312.0880432
vertex 32.33979034 65.37627411 311.769989
vertex 31.99440765 65.36647797 311.9701233

endloop
endfacet
facet normal -0.5923371911 0.3843323886 0.7081139088
outer loop
vertex 32.08751678 65.29271698 312.0880432
vertex 31.99440765 65.36647797 311.9701233
vertex 31.91695404 65.01027679 312.0986633

endloop
endfacet
facet normal -0.5243213177 0.3876115978 0.7581849694
outer loop
vertex 31.91695404 65.01027679 312.0986633
vertex 31.99440765 65.36647797 311.9701233
vertex 31.82115936 65.08831024 311.9925232

endloop
endfacet
facet normal -0.5161895752 0.3979201317 0.7584245801
outer loop
vertex 31.91695404 65.01027679 312.0986633
vertex 31.82115936 65.08831024 311.9925232
vertex 31.7097702 64.7465744 312.0960083

endloop
endfacet
facet normal -0.515273273 0.3978251815 0.7590972185
outer loop
vertex 31.7097702 64.7465744 312.0960083
vertex 31.82115936 65.08831024 311.9925232
vertex 31.61296844 64.8224411 311.9905396

endloop
endfacet
facet normal -0.5233149529 0.3874073029 0.7589842081
outer loop
vertex 31.7097702 64.7465744 312.0960083
vertex 31.61296844 64.8224411 311.9905396
vertex 31.49196625 64.45272064 312.0958252

endloop
endfacet
facet normal -0.5237180591 0.3874532878 0.7586826086
outer loop
vertex 31.49196625 64.45272064 312.0958252
vertex 31.61296844 64.8224411 311.9905396
vertex 31.39225006 64.52535248 311.9898987

endloop
endfacet
facet normal -0.5337926149 0.3735506535 0.758633852
outer loop
vertex 31.49196625 64.45272064 312.0958252
vertex 31.39225006 64.52535248 311.9898987
vertex 31.27323151 64.14244843 312.094696

endloop
endfacet
facet normal -0.5338490605 0.3735565245 0.7585912347
outer loop
vertex 31.27323151 64.14244843 312.094696
vertex 31.39225006 64.52535248 311.9898987
vertex 31.17218781 64.21334076 311.988678

endloop
endfacet
facet normal -0.5394528508 0.3655058146 0.758548677
outer loop
vertex 31.27323151 64.14244843 312.094696
vertex 31.17218781 64.21334076 311.988678
vertex 31.05879974 63.82888031 312.0932922

endloop
endfacet
facet normal -0.53959167 0.3655182719 0.7584440112
outer loop
vertex 31.05879974 63.82888031 312.0932922
vertex 31.17218781 64.21334076 311.988678
vertex 30.95668793 63.89812469 311.9872742

endloop
endfacet
facet normal -0.548600316 0.352075249 0.7583407164
outer loop
vertex 31.05879974 63.82888031 312.0932922
vertex 30.95668793 63.89812469 311.9872742
vertex 30.8549118 63.51407623 312.0919495

endloop
endfacet
facet normal -0.5489445925 0.3520959318 0.7580819726
outer loop
vertex 30.8549118 63.51407623 312.0919495
vertex 30.95668793 63.89812469 311.9872742
vertex 30.75086212 63.58031464 311.9858398

endloop
endfacet
facet normal -0.5591344237 0.3355104327 0.7581565976
outer loop
vertex 30.8549118 63.51407623 312.0919189
vertex 30.75086212 63.58031464 311.9858704
vertex 30.65998077 63.19197845 312.0906982

endloop
endfacet
facet normal -0.5592360497 0.3355136216 0.7580802441
outer loop
vertex 30.65998077 63.19197845 312.0906982
vertex 30.75086212 63.58031464 311.9858704
vertex 30.55406952 63.25519562 311.9845886

endloop
endfacet
facet normal -0.5671361089 0.3221539557 0.7580062747
outer loop
vertex 30.65998077 63.19197845 312.0906982
vertex 30.55406952 63.25519562 311.9845886
vertex 30.47203827 62.86441803 312.0892944

endloop
endfacet
facet normal -0.5670983195 0.3221536279 0.7580346465
outer loop
vertex 30.47203827 62.86441803 312.0892944
vertex 30.55406952 63.25519562 311.9845886
vertex 30.36475372 62.92523956 311.9831848

endloop
endfacet
facet normal -0.5739374757 0.3103227615 0.7578229308
outer loop
vertex 30.47205353 62.86444855 312.089325
vertex 30.36478424 62.92525482 311.9831848
vertex 30.29073334 62.5326767 312.0878601

endloop
endfacet
facet normal -0.5742013454 0.3103196025 0.7576243281
outer loop
vertex 30.29073334 62.5326767 312.0878601
vertex 30.36478424 62.92525482 311.9831848
vertex 30.18238068 62.59146881 311.9816589

endloop
endfacet
facet normal -0.5782654881 0.3027662933 0.7575893402
outer loop
vertex 30.29073334 62.5326767 312.0878601
vertex 30.18238068 62.59146881 311.9816589
vertex 30.11235809 62.19542694 312.0864868

endloop
endfacet
facet normal -0.5784953237 0.3027610481 0.7574158907
outer loop
vertex 30.11235809 62.19542694 312.0864868
vertex 30.18238068 62.59146881 311.9816589
vertex 30.00344086 62.25315094 311.9802246

endloop
endfacet
facet normal -0.5788972378 0.3019980192 0.7574134469
outer loop
vertex 30.11235809 62.19542694 312.0864868
vertex 30.00344086 62.25315094 311.9802246
vertex 29.93292999 61.85492706 312.0851135

endloop
endfacet
facet normal -0.5790756941 0.3019941449 0.7572786808
outer loop
vertex 29.93292999 61.85492706 312.0851135
vertex 30.00344086 62.25315094 311.9802246
vertex 29.82415009 61.91287994 311.9788208

endloop
endfacet
facet normal -0.5769505501 0.3060047626 0.7572906613
outer loop
vertex 29.93292999 61.85492706 312.0851135
vertex 29.82415009 61.91287994 311.9788208
vertex 29.75041962 61.51436615 312.0836792

endloop
endfacet
facet normal -0.5766221285 0.3060093224 0.7575389147
outer loop
vertex 29.75041962 61.51436615 312.0836792
vertex 29.82415009 61.91287994 311.9788208
vertex 29.64221954 61.57338715 311.977478

endloop
endfacet
facet normal -0.5718336701 0.3148214519 0.7575577497
outer loop
vertex 29.75043488 61.51439667 312.0837097
vertex 29.6422348 61.57341766 311.9775085
vertex 29.56015778 61.17223358 312.0822754

endloop
endfacet
facet normal -0.5718274713 0.3148213625 0.7575623989
outer loop
vertex 29.56015778 61.17223358 312.0822754
vertex 29.6422348 61.57341766 311.9775085
vertex 29.45322418 61.23355865 311.9760742

endloop
endfacet
facet normal -0.5630508065 0.3301841617 0.7575962543
outer loop
vertex 29.56015778 61.17223358 312.0822754
vertex 29.45322418 61.23355865 311.9760742
vertex 29.36103058 60.83596039 312.0808411

endloop
endfacet
facet normal -0.5627889633 0.3301756978 0.7577946186
outer loop
vertex 29.36103058 60.83596039 312.0808411
vertex 29.45322418 61.23355865 311.9760742
vertex 29.25557709 60.89981842 311.9747009

endloop
endfacet
facet normal -0.557697475 0.338635236 0.7578256726
outer loop
vertex 29.36103058 60.83596039 312.0808411
vertex 29.25557709 60.89981842 311.9747009
vertex 29.15824127 60.50547028 312.0792847

endloop
endfacet
facet normal -0.5574781895 0.3386251032 0.7579915524
outer loop
vertex 29.15824127 60.50547028 312.0792847
vertex 29.25557709 60.89981842 311.9747009
vertex 29.05382538 60.57102203 311.9732056

endloop
endfacet
facet normal -0.5509132743 0.3491342962 0.7580236197
outer loop
vertex 29.15824127 60.50547028 312.0792847
vertex 29.05382538 60.57102203 311.9732056
vertex 28.94945526 60.18065643 312.0771484

endloop
endfacet
facet normal -0.5508403182 0.3491295278 0.7580788732
outer loop
vertex 28.94945526 60.18065643 312.0771484
vertex 29.05382538 60.57102203 311.9732056
vertex 28.84706879 60.24878693 311.9713745

endloop
endfacet
facet normal -0.5405418873 0.3647194803 0.7581518292
outer loop
vertex 28.94945526 60.18065643 312.0771484
vertex 28.84706879 60.24878693 311.9713745
vertex 28.74620819 59.8891983 312.0724487

endloop
endfacet
facet normal -0.5419843793 0.3648207188 0.7570725083
outer loop
vertex 28.74620819 59.8891983 312.0724487
vertex 28.84706879 60.24878693 311.9713745
vertex 28.64818573 59.96155548 311.9674072

endloop
endfacet
facet normal -0.5178306699 0.3976537287 0.7574449182
outer loop
vertex 28.74622345 59.8891983 312.0724182
vertex 28.64818573 59.96155548 311.9674072
vertex 28.50173187 59.64487457 312.0335388

endloop
endfacet
facet normal -0.5725485086 0.412719816 0.7084140182
outer loop
vertex 28.50173187 59.64487457 312.0335388
vertex 28.64818573 59.96155548 311.9674072
vertex 28.41272736 59.71668243 311.9197693

endloop
endfacet
facet normal -0.8304439783 -0.3713298738 0.4153032899
outer loop
vertex 28.50173187 59.64487457 312.0335388
vertex 28.41272736 59.71668243 311.9197693
vertex 28.45519257 59.36965179 311.694397

endloop
endfacet
facet normal -nan(ind) -nan(ind) -nan(ind)
outer loop
vertex 28.45519257 59.36965179 311.694397
vertex 28.41272736 59.71668243 311.9197693
vertex 28.45519257 59.36965179 311.694397

endloop
endfacet
facet normal 0.350689441 -0.7440426946 0.568697989
outer loop
vertex 32.33977509 65.37624359 311.7699585
vertex 32.33979034 65.37627411 311.769989
vertex 31.9943924 65.36644745 311.9701233

endloop
endfacet
facet normal 0.05652924627 0.98766011 0.1460543722
outer loop
vertex 31.9943924 65.36644745 311.9701233
vertex 32.33979034 65.37627411 311.769989
vertex 31.9524765 65.40026093 311.7576904

endloop
endfacet
facet normal -0.8141272068 0.5267143846 0.244476825
outer loop
vertex 31.9943924 65.36644745 311.9701233
vertex 31.9524765 65.40026093 311.7576904
vertex 31.8211441 65.08827972 311.9924927

endloop
endfacet
facet normal -0.7816748619 0.550160706 0.2937815487
outer loop
vertex 31.8211441 65.08827972 311.9924927
vertex 31.9524765 65.40026093 311.7576904
vertex 31.76976776 65.13079071 311.7761841

endloop
endfacet
facet normal -0.7535054684 0.5877979398 0.2944877446
outer loop
vertex 31.8211441 65.08827972 311.9924927
vertex 31.76976776 65.13079071 311.7761841
vertex 31.61296844 64.82241058 311.990509

endloop
endfacet
facet normal -0.7534166574 0.5878452659 0.2946207821
outer loop
vertex 31.61296844 64.82241058 311.990509
vertex 31.76976776 65.13079071 311.7761841
vertex 31.56102753 64.86379242 311.775116

endloop
endfacet
facet normal -0.7674090266 0.5695322156 0.2944765985
outer loop
vertex 31.61296844 64.82241058 311.990509
vertex 31.56102753 64.86379242 311.775116
vertex 31.39225006 64.52532196 311.9898987

endloop
endfacet
facet normal -0.7675403953 0.5694640279 0.2942659855
outer loop
vertex 31.39225006 64.52532196 311.9898987
vertex 31.56102753 64.86379242 311.775116
vertex 31.33881378 64.56496429 311.7738037

endloop
endfacet
facet normal -0.7815539837 0.5501182675 0.2941822708
outer loop
vertex 31.39225006 64.52532196 311.9898987
vertex 31.33881378 64.56496429 311.7738037
vertex 31.17217255 64.21331024 311.988678

endloop
endfacet
facet normal -0.7815892696 0.5500993729 0.294123888
outer loop
vertex 31.17217255 64.21331024 311.988678
vertex 31.33881378 64.56496429 311.7738037
vertex 31.1180191 64.25200653 311.7723999

endloop
endfacet
facet normal -0.7896113396 0.5385524631 0.2940665781
outer loop
vertex 31.17217255 64.21331024 311.988678
vertex 31.1180191 64.25200653 311.7723999
vertex 30.95665741 63.89809418 311.9872742

endloop
endfacet
facet normal -0.7897201777 0.5384919643 0.2938852906
outer loop
vertex 30.95665741 63.89809418 311.9872742
vertex 31.1180191 64.25200653 311.7723999
vertex 30.90195465 63.93590546 311.7709961

endloop
endfacet
facet normal -0.8028973937 0.5187107325 0.2937598526
outer loop
vertex 30.95665741 63.89809418 311.9872742
vertex 30.90195465 63.93590546 311.7709961
vertex 30.7508316 63.58031464 311.9858398

endloop
endfacet
facet normal -0.8031087518 0.5185853243 0.2934035063
outer loop
vertex 30.7508316 63.58031464 311.9858398
vertex 30.90195465 63.93590546 311.7709961
vertex 30.69513702 63.61646271 311.7695007

endloop
endfacet
facet normal -0.8183344007 0.4942423701 0.293348372
outer loop
vertex 30.75084686 63.58029938 311.9858398
vertex 30.69513702 63.61646271 311.7695007
vertex 30.554039 63.25518036 311.9845886

endloop
endfacet
facet normal -0.8184159994 0.4941906035 0.2932078838
outer loop
vertex 30.554039 63.25518036 311.9845886
vertex 30.69513702 63.61646271 311.7695007
vertex 30.4973526 63.28969574 311.7681885

endloop
endfacet
facet normal -0.8298307657 0.4748336375 0.2931106389
outer loop
vertex 30.554039 63.25518036 311.9845886
vertex 30.4973526 63.28969574 311.7681885
vertex 30.36473846 62.92523956 311.9831543

endloop
endfacet
facet normal -0.8299114704 0.4747797549 0.2929694653
outer loop
vertex 30.36473846 62.92523956 311.9831543
vertex 30.4973526 63.28969574 311.7681885
vertex 30.30735016 62.95845795 311.7667542

endloop
endfacet
facet normal -0.839597404 0.4574535191 0.2929376364
outer loop
vertex 30.36476898 62.92525482 311.9831848
vertex 30.30736542 62.95847321 311.7667847
vertex 30.18236542 62.59145355 311.9816589

endloop
endfacet
facet normal -0.8398115635 0.457303822 0.2925574183
outer loop
vertex 30.18236542 62.59145355 311.9816589
vertex 30.30736542 62.95847321 311.7667847
vertex 30.12444305 62.62354279 311.7652283

endloop
endfacet
facet normal -0.845829308 0.446107626 0.2925079167
outer loop
vertex 30.18236542 62.59145355 311.9816589
vertex 30.12444305 62.62354279 311.7652283
vertex 30.0034256 62.25312042 311.9802246

endloop
endfacet
facet normal -0.846024394 0.4459676445 0.2921569347
outer loop
vertex 30.0034256 62.25312042 311.9802246
vertex 30.12444305 62.62354279 311.7652283
vertex 29.94527435 62.28462982 311.7637329

endloop
endfacet
facet normal -0.8466171026 0.4448441863 0.2921525836
outer loop
vertex 30.0034256 62.25312042 311.9802246
vertex 29.94527435 62.28462982 311.7637329
vertex 29.82415009 61.91284943 311.9788208

endloop
endfacet
facet normal -0.8466044068 0.4448533058 0.2921755314
outer loop
vertex 29.82415009 61.91284943 311.9788208
vertex 29.94527435 62.28462982 311.7637329
vertex 29.76607513 61.94449615 311.7623596

endloop
endfacet
facet normal -0.8434358239 0.4508178234 0.2921974063
outer loop
vertex 29.82415009 61.91284943 311.9788208
vertex 29.76607513 61.94449615 311.7623596
vertex 29.64220428 61.57335663 311.977417

endloop
endfacet
facet normal -0.8434052467 0.4508394301 0.2922522128
outer loop
vertex 29.64220428 61.57335663 311.977417
vertex 29.76607513 61.94449615 311.7623596
vertex 29.58443451 61.60558319 311.7609863

endloop
endfacet
facet normal -0.8363079429 0.4638799131 0.2922405601
outer loop
vertex 29.64221954 61.57338715 311.9774475
vertex 29.58446503 61.60561371 311.7610168
vertex 29.45320892 61.23351288 311.9760437

endloop
endfacet
facet normal -0.8361169696 0.4640093446 0.2925812006
outer loop
vertex 29.45320892 61.23351288 311.9760437
vertex 29.58446503 61.60561371 311.7610168
vertex 29.39608002 61.26702118 311.7596436

endloop
endfacet
facet normal -0.8232856393 0.4863675237 0.2926558256
outer loop
vertex 29.45320892 61.23351288 311.9760437
vertex 29.39608002 61.26702118 311.7596436
vertex 29.25557709 60.89980316 311.9746704

endloop
endfacet
facet normal -0.8231188655 0.4864743054 0.2929471731
outer loop
vertex 29.25557709 60.89980316 311.9746704
vertex 29.39608002 61.26702118 311.7596436
vertex 29.19919586 60.93470001 311.7583008

endloop
endfacet
facet normal -0.8155205846 0.4990764558 0.2929997444
outer loop
vertex 29.25557709 60.89980316 311.9746704
vertex 29.19919586 60.93470001 311.7583008
vertex 29.05382538 60.57100677 311.973175

endloop
endfacet
facet normal -0.815420866 0.4991382658 0.293171972
outer loop
vertex 29.05382538 60.57100677 311.973175
vertex 29.19919586 60.93470001 311.7583008
vertex 28.99797821 60.60680389 311.756897

endloop
endfacet
facet normal -0.8053780198 0.5151531696 0.2932293415
outer loop
vertex 29.05382538 60.57100677 311.973175
vertex 28.99797821 60.60680389 311.756897
vertex 28.84705353 60.24878693 311.971344

endloop
endfacet
facet normal -0.8053318858 0.5151806474 0.2933076918
outer loop
vertex 28.84705353 60.24878693 311.971344
vertex 28.99797821 60.60680389 311.756897
vertex 28.79225922 60.28598785 311.7555542

endloop
endfacet
facet normal -0.7878726125 0.5414527059 0.2934035063
outer loop
vertex 28.84705353 60.24878693 311.971344
vertex 28.79225922 60.28598785 311.7555542
vertex 28.64817047 59.96154022 311.9673767

endloop
endfacet
facet normal -0.7882457376 0.541230917 0.292809993
outer loop
vertex 28.64817047 59.96154022 311.9673767
vertex 28.79225922 60.28598785 311.7555542
vertex 28.59583282 60.00095367 311.7536316

endloop
endfacet
facet normal -0.7171180248 0.632668376 0.2923566103
outer loop
vertex 28.64818573 59.96154022 311.9673767
vertex 28.59581757 60.00095367 311.7536316
vertex 28.41272736 59.71665192 311.9197693

endloop
endfacet
facet normal -0.7437718511 0.6220136285 0.2447500527
outer loop
vertex 28.41272736 59.71665192 311.9197693
vertex 28.59581757 60.00095367 311.7536316
vertex 28.37281036 59.74951935 311.7149353

endloop
endfacet
facet normal -0.9640305638 -0.2173454463 0.1529903114
outer loop
vertex 28.41272736 59.71665192 311.9197693
vertex 28.37281036 59.74951935 311.7149353
vertex 28.45519257 59.36963654 311.6943665

endloop
endfacet
facet normal 0.9512363672 0.2180960327 -0.2181364298
outer loop
vertex 28.45519257 59.36963654 311.6943665
vertex 28.37281036 59.74951935 311.7149353
vertex 28.45519257 59.36966705 311.694397

endloop
endfacet
facet normal -nan(ind) -nan(ind) -nan(ind)
outer loop
vertex 32.33979034 65.37627411 311.769989
vertex 32.33979034 65.37627411 311.769989
vertex 31.9524765 65.40026093 311.7576904

endloop
endfacet
facet normal 0.06786534935 0.9640007615 -0.2570929825
outer loop
vertex 31.9524765 65.40026093 311.7576904
vertex 32.33979034 65.37627411 311.769989
vertex 32.07465363 65.30504608 311.4329224

endloop
endfacet
facet normal -0.7610408664 0.4866232276 -0.4289693236
outer loop
vertex 31.9524765 65.40026093 311.7576904
vertex 32.07465363 65.30504608 311.4329224
vertex 31.76976776 65.13082123 311.7761841

endloop
endfacet
facet normal -0.7558475137 0.5074000359 -0.413811177
outer loop
vertex 31.76976776 65.13082123 311.7761841
vertex 32.07465363 65.30504608 311.4329224
vertex 31.89194489 65.03307343 311.4331665

endloop
endfacet
facet normal -0.7159644365 0.561403811 -0.414994657
outer loop
vertex 31.76976776 65.13082123 311.7761841
vertex 31.89194489 65.03307343 311.4331665
vertex 31.56102753 64.86382294 311.775116

endloop
endfacet
facet normal -0.7160189748 0.5612329841 -0.4151319265
outer loop
vertex 31.56102753 64.86382294 311.775116
vertex 31.89194489 65.03307343 311.4331665
vertex 31.68473053 64.76891327 311.4334412

endloop
endfacet
facet normal -0.7291703224 0.5440465212 -0.4151193798
outer loop
vertex 31.56102753 64.86382294 311.775116
vertex 31.68473053 64.76891327 311.4334412
vertex 31.33881378 64.56499481 311.7738037

endloop
endfacet
facet normal -0.7293050289 0.5435203314 -0.41557163
outer loop
vertex 31.33881378 64.56499481 311.7738037
vertex 31.68473053 64.76891327 311.4334412
vertex 31.46640778 64.47414398 311.4310608

endloop
endfacet
facet normal -0.7423202395 0.5255421996 -0.4156513512
outer loop
vertex 31.33881378 64.56499481 311.7738037
vertex 31.46640778 64.47414398 311.4310608
vertex 31.11803436 64.25203705 311.7723999

endloop
endfacet
facet normal -0.742384851 0.5252463818 -0.4159098268
outer loop
vertex 31.11803436 64.25203705 311.7723999
vertex 31.46640778 64.47414398 311.4310608
vertex 31.2473526 64.16332245 311.4295349

endloop
endfacet
facet normal -0.7499085069 0.5144184232 -0.4159458578
outer loop
vertex 31.11803436 64.25203705 311.7723999
vertex 31.2473526 64.16332245 311.4295349
vertex 30.90195465 63.93590546 311.7709961

endloop
endfacet
facet normal -0.7499137521 0.5143923759 -0.4159685075
outer loop
vertex 30.90195465 63.93590546 311.7709961
vertex 31.2473526 64.16332245 311.4295349
vertex 31.03269196 63.84926605 311.4281616

endloop
endfacet
facet normal -0.7624728084 0.4955606461 -0.4159987569
outer loop
vertex 30.90195465 63.93590546 311.7709961
vertex 31.03269196 63.84926605 311.4281616
vertex 30.69515228 63.61646271 311.7695007

endloop
endfacet
facet normal -0.7625458837 0.495154351 -0.4163481295
outer loop
vertex 30.69515228 63.61646271 311.7695007
vertex 31.03269196 63.84926605 311.4281616
vertex 30.8285141 63.53362274 311.4267273

endloop
endfacet
facet normal -0.7770975232 0.4719701409 -0.4163695574
outer loop
vertex 30.69513702 63.61646271 311.7695007
vertex 30.82849884 63.53362274 311.4266968
vertex 30.4973526 63.28968048 311.768219

endloop
endfacet
facet normal -0.7771428823 0.4716635048 -0.4166325331
outer loop
vertex 30.4973526 63.28968048 311.768219
vertex 30.82849884 63.53362274 311.4266968
vertex 30.63311005 63.21060944 311.4254761

endloop
endfacet
facet normal -0.7877309322 0.4537111521 -0.4166847467
outer loop
vertex 30.4973526 63.28968048 311.768219
vertex 30.63311005 63.21060944 311.4254761
vertex 30.3073349 62.95842743 311.7667542

endloop
endfacet
facet normal -0.787756443 0.4535028636 -0.416863054
outer loop
vertex 30.3073349 62.95842743 311.7667542
vertex 30.63311005 63.21060944 311.4254761
vertex 30.44490814 62.88234711 311.4240112

endloop
endfacet
facet normal -0.7969110012 0.4371542335 -0.4169280529
outer loop
vertex 30.30735016 62.95845795 311.7667847
vertex 30.4449234 62.88236237 311.4240417
vertex 30.12444305 62.62354279 311.7652283

endloop
endfacet
facet normal -0.7969440818 0.4368283451 -0.4172064066
outer loop
vertex 30.12444305 62.62354279 311.7652283
vertex 30.4449234 62.88236237 311.4240417
vertex 30.26354218 62.54999542 311.4225159

endloop
endfacet
facet normal -0.8026849031 0.4261498153 -0.417244792
outer loop
vertex 30.12444305 62.62354279 311.7652283
vertex 30.26354218 62.54999542 311.4225159
vertex 29.94528961 62.28462982 311.7637329

endloop
endfacet
facet normal -0.8027096987 0.4258592129 -0.4174939394
outer loop
vertex 29.94528961 62.28462982 311.7637329
vertex 30.26354218 62.54999542 311.4225159
vertex 30.08518219 62.21242523 311.4211121

endloop
endfacet
facet normal -0.8032174706 0.4248963296 -0.4174983203
outer loop
vertex 29.94528961 62.28462982 311.7637329
vertex 30.08518219 62.21242523 311.4211121
vertex 29.76607513 61.94449615 311.7623596

endloop
endfacet
facet normal -0.8032320142 0.4247172177 -0.4176525474
outer loop
vertex 29.76607513 61.94449615 311.7623596
vertex 30.08518219 62.21242523 311.4211121
vertex 29.90584564 61.87194061 311.4197693

endloop
endfacet
facet normal -0.8001605272 0.4305027425 -0.4176247418
outer loop
vertex 29.76607513 61.94449615 311.7623596
vertex 29.90584564 61.87194061 311.4197693
vertex 29.58444977 61.60558319 311.7609863

endloop
endfacet
facet normal -0.8001491427 0.4306332171 -0.4175121784
outer loop
vertex 29.58444977 61.60558319 311.7609863
vertex 29.90584564 61.87194061 311.4197693
vertex 29.72348785 61.53171539 311.418335

endloop
endfacet
facet normal -0.7933495045 0.4431298971 -0.4174117446
outer loop
vertex 29.58448029 61.60561371 311.7610168
vertex 29.72350311 61.53174591 311.4183655
vertex 29.39608002 61.26702118 311.7596436

endloop
endfacet
facet normal -0.7933320999 0.4433026612 -0.4172611535
outer loop
vertex 29.39608002 61.26702118 311.7596436
vertex 29.72350311 61.53174591 311.4183655
vertex 29.5334549 61.19031525 311.4169617

endloop
endfacet
facet normal -0.7811956406 0.4644701481 -0.4171340168
outer loop
vertex 29.39608002 61.26702118 311.7596436
vertex 29.5334549 61.19031525 311.4169617
vertex 29.19921112 60.93470001 311.7583008

endloop
endfacet
facet normal -0.7811767459 0.4646179676 -0.4170047343
outer loop
vertex 29.19921112 60.93470001 311.7583008
vertex 29.5334549 61.19031525 311.4169617
vertex 29.33461761 60.85474396 311.4155579

endloop
endfacet
facet normal -0.7738806605 0.4767228365 -0.4169461727
outer loop
vertex 29.19921112 60.93470001 311.7583008
vertex 29.33461761 60.85474396 311.4155579
vertex 28.99797821 60.60680389 311.756897

endloop
endfacet
facet normal -0.7738544345 0.4769011736 -0.416790694
outer loop
vertex 28.99797821 60.60680389 311.756897
vertex 29.33461761 60.85474396 311.4155579
vertex 29.13195038 60.5247879 311.4143066

endloop
endfacet
facet normal -0.7644363046 0.4919287264 -0.4167053103
outer loop
vertex 28.99797821 60.60680389 311.756897
vertex 29.13195038 60.5247879 311.4143066
vertex 28.79225922 60.28598785 311.7555542

endloop
endfacet
facet normal -0.7643638253 0.492354393 -0.4163351953
outer loop
vertex 28.79225922 60.28598785 311.7555542
vertex 29.13195038 60.5247879 311.4143066
vertex 28.92357635 60.20075226 311.4136658

endloop
endfacet
facet normal -0.7474142909 0.5178471804 -0.4161805511
outer loop
vertex 28.79225922 60.28598785 311.7555542
vertex 28.92357635 60.20075226 311.4136658
vertex 28.59583282 60.00093842 311.7536316

endloop
endfacet
facet normal -0.7473220825 0.5182342529 -0.41586411
outer loop
vertex 28.59583282 60.00093842 311.7536316
vertex 28.92357635 60.20075226 311.4136658
vertex 28.72147369 59.91036224 311.414978

endloop
endfacet
facet normal -0.6492611766 0.6393667459 -0.4119102955
outer loop
vertex 28.59583282 60.00093842 311.7536316
vertex 28.72147369 59.91034698 311.414978
vertex 28.37281036 59.74953461 311.7149353

endloop
endfacet
facet normal -0.6560783386 0.620095551 -0.4301659763
outer loop
vertex 28.37281036 59.74953461 311.7149353
vertex 28.72147369 59.91034698 311.414978
vertex 28.49030304 59.65680695 311.4020691

endloop
endfacet
facet normal -0.936596036 -0.1871183515 -0.2962676585
outer loop
vertex 28.37281036 59.74953461 311.7149353
vertex 28.49030304 59.65680695 311.4020691
vertex 28.45519257 59.36965179 311.6944275

endloop
endfacet
facet normal -0.9926118255 0.1213332862 0
outer loop
vertex 28.45519257 59.36965179 311.6944275
vertex 28.49030304 59.65680695 311.4020691
vertex 28.45519257 59.36965179 311.694397

endloop
endfacet
endsolid
