solid 
facet normal -nan(ind) -nan(ind) -nan(ind)
outer loop
vertex -65.16269684 40.05587006 340.3725891
vertex -65.16269684 40.05587006 340.3725891
vertex -65.56571198 39.60895538 339.9047852

endloop
endfacet
facet normal -0.8364548683 0.237110287 0.4940871298
outer loop
vertex -65.56571198 39.60895538 339.9047852
vertex -65.16269684 40.05587006 340.3725891
vertex -65.49822998 40.19072723 339.7398376

endloop
endfacet
facet normal -0.9929056764 0.0948343575 -0.07172764093
outer loop
vertex -65.56571198 39.60895538 339.9047852
vertex -65.49822998 40.19072723 339.7398376
vertex -65.56961823 39.4312973 339.7239685

endloop
endfacet
facet normal -0.9753471017 0.09583868086 -0.1987788975
outer loop
vertex -65.56961823 39.4312973 339.7239685
vertex -65.49822998 40.19072723 339.7398376
vertex -65.44342804 40.15750885 339.4549255

endloop
endfacet
facet normal -0.9506900907 0.05191813782 -0.305766046
outer loop
vertex -65.56961823 39.4312973 339.7239685
vertex -65.44342804 40.15750885 339.4549255
vertex -65.49453735 39.18442535 339.4486084

endloop
endfacet
facet normal -0.9435573816 0.05168234184 -0.3271520138
outer loop
vertex -65.49453735 39.18442535 339.4486084
vertex -65.44342804 40.15750885 339.4549255
vertex -65.32246399 40.00800323 339.082428

endloop
endfacet
facet normal -0.8404557705 -0.06366320699 -0.5381272435
outer loop
vertex -65.49453735 39.18442535 339.4486084
vertex -65.32246399 40.00800323 339.082428
vertex -65.25457001 38.93576813 339.103241

endloop
endfacet
facet normal -0.8465191126 -0.06386053562 -0.5285142064
outer loop
vertex -65.25457001 38.93576813 339.103241
vertex -65.32246399 40.00800323 339.082428
vertex -65.06932068 39.7834549 338.7041016

endloop
endfacet
facet normal -0.8063505888 -0.09838651121 -0.583196938
outer loop
vertex -65.25457001 38.93576813 339.103241
vertex -65.06932068 39.7834549 338.7041016
vertex -64.95623779 38.70090485 338.7303772

endloop
endfacet
facet normal -0.8016107678 -0.09805047512 -0.5897510052
outer loop
vertex -64.95623779 38.70090485 338.7303772
vertex -65.06932068 39.7834549 338.7041016
vertex -64.77365112 39.55658722 338.3399353

endloop
endfacet
facet normal -0.7961964607 -0.1022131369 -0.5963418484
outer loop
vertex -64.95623779 38.70090485 338.7303772
vertex -64.77365112 39.55658722 338.3399353
vertex -64.647789 38.47878265 338.3566284

endloop
endfacet
facet normal -0.7903100252 -0.1016477048 -0.6042167544
outer loop
vertex -64.647789 38.47878265 338.3566284
vertex -64.77365112 39.55658722 338.3399353
vertex -64.47608948 39.34714508 337.9859619

endloop
endfacet
facet normal -0.797673285 -0.09640076756 -0.5953354836
outer loop
vertex -64.647789 38.47878265 338.3566284
vertex -64.47608948 39.34714508 337.9859619
vertex -64.34738159 38.25952911 337.989624

endloop
endfacet
facet normal -0.8060953021 -0.09735833853 -0.5837222934
outer loop
vertex -64.34738159 38.25952911 337.989624
vertex -64.47608948 39.34714508 337.9859619
vertex -64.19554138 39.14658356 337.6319885

endloop
endfacet
facet normal -0.8256899118 -0.08356586099 -0.5579003692
outer loop
vertex -64.34738922 38.25952911 337.989624
vertex -64.19554138 39.14659882 337.632019
vertex -64.07802582 38.05269623 337.6219482

endloop
endfacet
facet normal -0.8385339975 -0.08512742817 -0.5381579995
outer loop
vertex -64.07802582 38.05269623 337.6219482
vertex -64.19554138 39.14659882 337.632019
vertex -63.94966888 38.97245026 337.2764587

endloop
endfacet
facet normal -0.8360453844 -0.08682290465 -0.5417470932
outer loop
vertex -64.07802582 38.05269623 337.6219482
vertex -63.94966888 38.97245026 337.2764587
vertex -63.80745697 37.86373138 337.2346802

endloop
endfacet
facet normal -0.8374157548 -0.08708015084 -0.5395849347
outer loop
vertex -63.80745697 37.86373138 337.2346802
vertex -63.94966888 38.97245026 337.2764587
vertex -63.69376373 38.81928253 336.9040222

endloop
endfacet
facet normal -0.8288171887 -0.09234881401 -0.5518456697
outer loop
vertex -63.80745697 37.86373138 337.2347107
vertex -63.69374847 38.81929779 336.9040222
vertex -63.52198029 37.69385529 336.8343811

endloop
endfacet
facet normal -0.8190562129 -0.08994492888 -0.5666187406
outer loop
vertex -63.52198029 37.69385529 336.8343811
vertex -63.69374847 38.81929779 336.9040222
vertex -63.41010284 38.67946625 336.5162048

endloop
endfacet
facet normal -0.7948514819 -0.1028318033 -0.5980273485
outer loop
vertex -63.52198029 37.69385529 336.8343811
vertex -63.41010284 38.67946625 336.5162048
vertex -63.19660187 37.53783417 336.4287415

endloop
endfacet
facet normal -0.7704643607 -0.09580292553 -0.6302431822
outer loop
vertex -63.19660187 37.53783417 336.4287415
vertex -63.41010284 38.67946625 336.5162048
vertex -63.06687164 38.54027557 336.1177673

endloop
endfacet
facet normal -0.7373560667 -0.1112660542 -0.6662775278
outer loop
vertex -63.19660187 37.53783417 336.4287415
vertex -63.06687164 38.54027557 336.1177673
vertex -62.82659149 37.38890839 336.0441284

endloop
endfacet
facet normal -0.7100527883 -0.1036364064 -0.696480155
outer loop
vertex -62.82659149 37.38890839 336.0441284
vertex -63.06687164 38.54027557 336.1177673
vertex -62.6765213 38.39440155 335.7415161

endloop
endfacet
facet normal -0.6802669168 -0.1162691787 -0.7236838937
outer loop
vertex -62.82659149 37.38890839 336.0441284
vertex -62.6765213 38.39440155 335.7415161
vertex -62.44655609 37.24855804 335.7094421

endloop
endfacet
facet normal -0.6703609824 -0.114014104 -0.7332236171
outer loop
vertex -62.44655609 37.24855804 335.7094421
vertex -62.6765213 38.39440155 335.7415161
vertex -62.30233002 38.24872589 335.4220581

endloop
endfacet
facet normal -0.6512617469 -0.1213494539 -0.7490878105
outer loop
vertex -62.44654083 37.24858856 335.7094727
vertex -62.30231476 38.24875641 335.4220581
vertex -62.05649567 37.12258148 335.3907776

endloop
endfacet
facet normal -0.6452077031 -0.1198764294 -0.7545439601
outer loop
vertex -62.05649567 37.12258148 335.3907776
vertex -62.30231476 38.24875641 335.4220581
vertex -61.92032623 38.10579681 335.1181335

endloop
endfacet
facet normal -0.6294203401 -0.1254800558 -0.766866982
outer loop
vertex -62.05649567 37.12258148 335.3907776
vertex -61.92032623 38.10579681 335.1181335
vertex -61.64466095 37.00148773 335.0725708

endloop
endfacet
facet normal -0.6142335534 -0.1211567596 -0.7797679305
outer loop
vertex -61.64466095 37.00148773 335.0725708
vertex -61.92032623 38.10579681 335.1181335
vertex -61.49921417 37.95914459 334.8092041

endloop
endfacet
facet normal -0.5985151529 -0.1266434491 -0.7910379767
outer loop
vertex -61.64466095 37.00148773 335.0725708
vertex -61.49921417 37.95914459 334.8092041
vertex -61.21308136 36.8766098 334.7660217

endloop
endfacet
facet normal -0.579539299 -0.1210346967 -0.805906117
outer loop
vertex -61.21308136 36.8766098 334.7660217
vertex -61.49921417 37.95914459 334.8092041
vertex -61.04825592 37.80382538 334.5082397

endloop
endfacet
facet normal -0.522156477 -0.1410224736 -0.8411095738
outer loop
vertex -61.21308136 36.8766098 334.7660217
vertex -61.04825592 37.80382538 334.5082397
vertex -60.77523041 36.76105499 334.5135803

endloop
endfacet
facet normal -0.5120663047 -0.1384144425 -0.8477201462
outer loop
vertex -60.77523041 36.76105499 334.5135803
vertex -61.04825592 37.80382538 334.5082397
vertex -60.5881424 37.62995148 334.2586975

endloop
endfacet
facet normal -0.2867586315 -0.2122907192 -0.9341852665
outer loop
vertex -60.77523041 36.76105499 334.5135803
vertex -60.5881424 37.62995148 334.2586975
vertex -60.366539 36.7148819 334.3986206

endloop
endfacet
facet normal -0.322049439 -0.2188338339 -0.921084106
outer loop
vertex -60.366539 36.7148819 334.3986206
vertex -60.5881424 37.62995148 334.2586975
vertex -60.17687225 37.44242096 334.1594543

endloop
endfacet
facet normal -0.2278339267 -0.2499286085 -0.9410777688
outer loop
vertex -60.36655426 36.71486664 334.3985901
vertex -60.17688751 37.4424057 334.1594543
vertex -60.03394318 36.68227386 334.3267212

endloop
endfacet
facet normal -0.3070043325 -0.2592369616 -0.9157207608
outer loop
vertex -60.03394318 36.68227386 334.3267212
vertex -60.17688751 37.4424057 334.1594543
vertex -59.87137604 37.23259735 334.1164246

endloop
endfacet
facet normal 0.4719178677 -0.4329004288 -0.7680434585
outer loop
vertex -60.03394318 36.68227386 334.3267212
vertex -59.87137604 37.23259735 334.1164246
vertex -59.36029816 36.96816254 334.5794983

endloop
endfacet
facet normal -nan(ind) -nan(ind) -nan(ind)
outer loop
vertex -59.36029816 36.96816254 334.5794983
vertex -59.87137604 37.23259735 334.1164246
vertex -59.36029816 36.96816254 334.5794983

endloop
endfacet
facet normal 0.85944134 0.3377808928 -0.3837507963
outer loop
vertex -65.16269684 40.05587006 340.3725891
vertex -65.16270447 40.0558548 340.3725586
vertex -65.49822998 40.19072723 339.7398376

endloop
endfacet
facet normal -0.7921888232 0.3556847572 0.4959084392
outer loop
vertex -65.49822998 40.19072723 339.7398376
vertex -65.16270447 40.0558548 340.3725586
vertex -65.31089783 40.50167084 339.8160706

endloop
endfacet
facet normal -0.8110328317 0.5423666835 -0.2192350775
outer loop
vertex -65.49822998 40.19072723 339.7398376
vertex -65.31089783 40.50167084 339.8160706
vertex -65.44342804 40.15750885 339.4549255

endloop
endfacet
facet normal -0.7340205908 0.6054601073 -0.3076227903
outer loop
vertex -65.44342804 40.15750885 339.4549255
vertex -65.31089783 40.50167084 339.8160706
vertex -65.16353607 40.52957916 339.5193787

endloop
endfacet
facet normal -0.672883749 0.5846841335 -0.4531796575
outer loop
vertex -65.44342804 40.15750885 339.4549255
vertex -65.16353607 40.52957916 339.5193787
vertex -65.32246399 40.00800323 339.082428

endloop
endfacet
facet normal -0.6606605053 0.5900693536 -0.4640537202
outer loop
vertex -65.32246399 40.00800323 339.082428
vertex -65.16353607 40.52957916 339.5193787
vertex -64.97053528 40.42963409 339.1175232

endloop
endfacet
facet normal -0.5440847278 0.5096187592 -0.6665287614
outer loop
vertex -65.32246399 40.00800323 339.082428
vertex -64.97053528 40.42963409 339.1175232
vertex -65.06932068 39.7834549 338.7041016

endloop
endfacet
facet normal -0.550652802 0.5079692006 -0.6623811126
outer loop
vertex -65.06932068 39.7834549 338.7041016
vertex -64.97053528 40.42963409 339.1175232
vertex -64.69573212 40.21744537 338.7263489

endloop
endfacet
facet normal -0.5124155879 0.4776803255 -0.7136188745
outer loop
vertex -65.06932068 39.7834549 338.7041016
vertex -64.69573212 40.21744537 338.7263489
vertex -64.77365112 39.55658722 338.3399353

endloop
endfacet
facet normal -0.507340014 0.4787713289 -0.7165082693
outer loop
vertex -64.77365112 39.55658722 338.3399353
vertex -64.69573212 40.21744537 338.7263489
vertex -64.40266418 39.99465179 338.3699646

endloop
endfacet
facet normal -0.5100182891 0.4808148146 -0.7132309675
outer loop
vertex -64.77365112 39.55658722 338.3399353
vertex -64.40266418 39.99465179 338.3699646
vertex -64.47608948 39.34714508 337.9859619

endloop
endfacet
facet normal -0.5042403936 0.4820837379 -0.7164753079
outer loop
vertex -64.47608948 39.34714508 337.9859619
vertex -64.40266418 39.99465179 338.3699646
vertex -64.11264801 39.79174042 338.0293274

endloop
endfacet
facet normal -0.5224363804 0.4948075116 -0.6944247484
outer loop
vertex -64.47608948 39.34714508 337.9859619
vertex -64.11264801 39.79174042 338.0293274
vertex -64.19554138 39.14658356 337.6319885

endloop
endfacet
facet normal -0.5310518742 0.4927702546 -0.689319551
outer loop
vertex -64.19554138 39.14658356 337.6319885
vertex -64.11264801 39.79174042 338.0293274
vertex -63.83597565 39.60080719 337.6796875

endloop
endfacet
facet normal -0.565740943 0.5154089332 -0.6436541677
outer loop
vertex -64.19554138 39.14659882 337.632019
vertex -63.83597565 39.60080719 337.6796875
vertex -63.94966888 38.97245026 337.2764587

endloop
endfacet
facet normal -0.5780687332 0.5122123361 -0.6351969242
outer loop
vertex -63.94966888 38.97245026 337.2764587
vertex -63.83597565 39.60080719 337.6796875
vertex -63.5904007 39.44338226 337.3292542

endloop
endfacet
facet normal -0.589645803 0.5191919804 -0.6186740994
outer loop
vertex -63.94966888 38.97245026 337.2764587
vertex -63.5904007 39.44338226 337.3292542
vertex -63.69376373 38.81928253 336.9040222

endloop
endfacet
facet normal -0.5910738111 0.5187512636 -0.6176801324
outer loop
vertex -63.69376373 38.81928253 336.9040222
vertex -63.5904007 39.44338226 337.3292542
vertex -63.33487701 39.30850983 336.9714661

endloop
endfacet
facet normal -0.5903506875 0.5183792114 -0.6186833382
outer loop
vertex -63.69374847 38.81929779 336.9040222
vertex -63.33487701 39.30852509 336.9714966
vertex -63.41010284 38.67946625 336.5162048

endloop
endfacet
facet normal -0.581638515 0.5214334726 -0.6243427396
outer loop
vertex -63.41010284 38.67946625 336.5162048
vertex -63.33487701 39.30852509 336.9714966
vertex -63.05211639 39.18405914 336.604126

endloop
endfacet
facet normal -0.5561644435 0.5090392828 -0.6569324136
outer loop
vertex -63.41010284 38.67946625 336.5162048
vertex -63.05211639 39.18405914 336.604126
vertex -63.06687164 38.54027557 336.1177673

endloop
endfacet
facet normal -0.5341336131 0.5173578858 -0.6686120629
outer loop
vertex -63.06687164 38.54027557 336.1177673
vertex -63.05211639 39.18405914 336.604126
vertex -62.71169281 39.05348969 336.2311401

endloop
endfacet
facet normal -0.4966205657 0.5003680587 -0.7092248797
outer loop
vertex -63.06687164 38.54027557 336.1177673
vertex -62.71169281 39.05348969 336.2311401
vertex -62.6765213 38.39440155 335.7415161

endloop
endfacet
facet normal -0.4700382054 0.5100538135 -0.7203535438
outer loop
vertex -62.6765213 38.39440155 335.7415161
vertex -62.71169281 39.05348969 336.2311401
vertex -62.32859039 38.90920258 335.8789978

endloop
endfacet
facet normal -0.4425676167 0.4982271791 -0.7455894351
outer loop
vertex -62.6765213 38.39440155 335.7415161
vertex -62.32859039 38.90920258 335.8789978
vertex -62.30233002 38.24872589 335.4220581

endloop
endfacet
facet normal -0.4330065846 0.5011361837 -0.7492448092
outer loop
vertex -62.30233002 38.24872589 335.4220581
vertex -62.32859039 38.90920258 335.8789978
vertex -61.96579742 38.76084137 335.5700989

endloop
endfacet
facet normal -0.4195702672 0.4956265688 -0.7604703307
outer loop
vertex -62.30231476 38.24875641 335.4220581
vertex -61.96578217 38.76084137 335.5701294
vertex -61.92032623 38.10579681 335.1181335

endloop
endfacet
facet normal -0.4141153097 0.4973088503 -0.762359798
outer loop
vertex -61.92032623 38.10579681 335.1181335
vertex -61.96578217 38.76084137 335.5701294
vertex -61.59656525 38.60916901 335.2706299

endloop
endfacet
facet normal -0.397806704 0.4907125235 -0.7752103209
outer loop
vertex -61.92032623 38.10579681 335.1181335
vertex -61.59656525 38.60916901 335.2706299
vertex -61.49921417 37.95914459 334.8092041

endloop
endfacet
facet normal -0.3833343983 0.4957659543 -0.7792758346
outer loop
vertex -61.49921417 37.95914459 334.8092041
vertex -61.59656525 38.60916901 335.2706299
vertex -61.18726349 38.44945526 334.9676819

endloop
endfacet
facet normal -0.3623715937 0.4873405099 -0.7944722176
outer loop
vertex -61.49921417 37.95914459 334.8092041
vertex -61.18726349 38.44945526 334.9676819
vertex -61.04825592 37.80382538 334.5082397

endloop
endfacet
facet normal -0.3438334167 0.4941810071 -0.7984759212
outer loop
vertex -61.04825592 37.80382538 334.5082397
vertex -61.18726349 38.44945526 334.9676819
vertex -60.74629974 38.27855682 334.6720276

endloop
endfacet
facet normal -0.2787485421 0.4668524265 -0.8392544389
outer loop
vertex -61.04825592 37.80382538 334.5082397
vertex -60.74629974 38.27855682 334.6720276
vertex -60.5881424 37.62995148 334.2586975

endloop
endfacet
facet normal -0.266499579 0.470924139 -0.8409568667
outer loop
vertex -60.5881424 37.62995148 334.2586975
vertex -60.74629974 38.27855682 334.6720276
vertex -60.29549408 38.07480621 334.4150696

endloop
endfacet
facet normal -0.05792282522 0.3647641242 -0.9292965531
outer loop
vertex -60.5881424 37.62995148 334.2586975
vertex -60.29549408 38.07480621 334.4150696
vertex -60.17687225 37.44242096 334.1594543

endloop
endfacet
facet normal -0.07876649499 0.3608520031 -0.9292909503
outer loop
vertex -60.17687225 37.44242096 334.1594543
vertex -60.29549408 38.07480621 334.4150696
vertex -59.91179657 37.81511688 334.2817078

endloop
endfacet
facet normal 0.05442215875 0.2760519981 -0.9596007466
outer loop
vertex -60.17688751 37.4424057 334.1594543
vertex -59.91179657 37.81511688 334.2817078
vertex -59.87137604 37.23259735 334.1164246

endloop
endfacet
facet normal -0.0581821464 0.2687624693 -0.9614475965
outer loop
vertex -59.87137604 37.23259735 334.1164246
vertex -59.91179657 37.81511688 334.2817078
vertex -59.65261078 37.52657318 334.1853638

endloop
endfacet
facet normal 0.577298224 -0.2470987141 -0.7782472968
outer loop
vertex -59.87137604 37.23259735 334.1164246
vertex -59.65261078 37.52657318 334.1853638
vertex -59.36029816 36.96816254 334.5794983

endloop
endfacet
facet normal -0.8661707044 -0.1091811806 0.487675935
outer loop
vertex -59.36029816 36.96816254 334.5794983
vertex -59.65261078 37.52657318 334.1853638
vertex -59.36031342 36.96814728 334.5794678

endloop
endfacet
facet normal -0.9686265588 -0.01213538926 0.2482243329
outer loop
vertex -65.16270447 40.0558548 340.3725586
vertex -65.16268921 40.05588531 340.3726196
vertex -65.31089783 40.50167084 339.8160706

endloop
endfacet
facet normal -0.7285079956 0.4267835021 0.535846889
outer loop
vertex -65.31089783 40.50167084 339.8160706
vertex -65.16268921 40.05588531 340.3726196
vertex -65.06639099 40.67369843 340.0114746

endloop
endfacet
facet normal -0.480825603 0.8625208735 -0.1576847881
outer loop
vertex -65.31089783 40.50167084 339.8160706
vertex -65.06639099 40.67369843 340.0114746
vertex -65.16353607 40.52957916 339.5193787

endloop
endfacet
facet normal -0.3862695694 0.9029819369 -0.188200891
outer loop
vertex -65.16353607 40.52957916 339.5193787
vertex -65.06639099 40.67369843 340.0114746
vertex -64.81798553 40.72350311 339.7406006

endloop
endfacet
facet normal -0.274810046 0.8938440084 -0.3542912006
outer loop
vertex -65.16353607 40.52957916 339.5193787
vertex -64.81798553 40.72350311 339.7406006
vertex -64.97053528 40.42963409 339.1175232

endloop
endfacet
facet normal -0.2722419202 0.894295752 -0.3551330566
outer loop
vertex -64.97053528 40.42963409 339.1175232
vertex -64.81798553 40.72350311 339.7406006
vertex -64.54252625 40.64920807 339.3423462

endloop
endfacet
facet normal -0.1377557218 0.8268499374 -0.545291245
outer loop
vertex -64.97053528 40.42963409 339.1175232
vertex -64.54252625 40.64920807 339.3423462
vertex -64.69573212 40.21744537 338.7263489

endloop
endfacet
facet normal -0.1464651525 0.8268011212 -0.5430909395
outer loop
vertex -64.69573212 40.21744537 338.7263489
vertex -64.54252625 40.64920807 339.3423462
vertex -64.24263 40.4434433 338.9482117

endloop
endfacet
facet normal -0.1098487303 0.7997002006 -0.5902650952
outer loop
vertex -64.69573212 40.21744537 338.7263489
vertex -64.24263 40.4434433 338.9482117
vertex -64.40266418 39.99465179 338.3699646

endloop
endfacet
facet normal -0.1040302962 0.7994383574 -0.5916721821
outer loop
vertex -64.40266418 39.99465179 338.3699646
vertex -64.24263 40.4434433 338.9482117
vertex -63.95204926 40.22275543 338.598938

endloop
endfacet
facet normal -0.114708446 0.8074656725 -0.5786545873
outer loop
vertex -64.40266418 39.99465179 338.3699646
vertex -63.95204926 40.22275543 338.598938
vertex -64.11264801 39.79174042 338.0293274

endloop
endfacet
facet normal -0.1083676517 0.8072019219 -0.580242753
outer loop
vertex -64.11264801 39.79174042 338.0293274
vertex -63.95204926 40.22275543 338.598938
vertex -63.66777802 40.02323151 338.26828

endloop
endfacet
facet normal -0.1310863197 0.8227794766 -0.5530372858
outer loop
vertex -64.11264801 39.79174042 338.0293274
vertex -63.66777802 40.02323151 338.26828
vertex -63.83597565 39.60080719 337.6796875

endloop
endfacet
facet normal -0.1405819058 0.8229495883 -0.5504459739
outer loop
vertex -63.83597565 39.60080719 337.6796875
vertex -63.66777802 40.02323151 338.26828
vertex -63.38729095 39.83730316 337.9186707

endloop
endfacet
facet normal -0.1771976054 0.8453674316 -0.5039394498
outer loop
vertex -63.83597565 39.60080719 337.6796875
vertex -63.38729095 39.83731842 337.9186707
vertex -63.5904007 39.44338226 337.3292542

endloop
endfacet
facet normal -0.1895629913 0.8452577591 -0.4996050894
outer loop
vertex -63.5904007 39.44338226 337.3292542
vertex -63.38729095 39.83731842 337.9186707
vertex -63.13098907 39.68860626 337.5698242

endloop
endfacet
facet normal -0.2095938474 0.8560988903 -0.4724034965
outer loop
vertex -63.5904007 39.44338226 337.3292542
vertex -63.13098907 39.68860626 337.5698242
vertex -63.33487701 39.30850983 336.9714661

endloop
endfacet
facet normal -0.2097535133 0.8560922742 -0.4723448455
outer loop
vertex -63.33487701 39.30850983 336.9714661
vertex -63.13098907 39.68860626 337.5698242
vertex -62.8690567 39.56325531 337.2263184

endloop
endfacet
facet normal -0.2189204395 0.8604887724 -0.4600358009
outer loop
vertex -63.33487701 39.30852509 336.9714966
vertex -62.8690567 39.56328583 337.2263489
vertex -63.05211639 39.18405914 336.604126

endloop
endfacet
facet normal -0.2087501436 0.8611831665 -0.4634511173
outer loop
vertex -63.05211639 39.18405914 336.604126
vertex -62.8690567 39.56328583 337.2263489
vertex -62.58670807 39.44678497 336.8826904

endloop
endfacet
facet normal -0.196431905 0.8556560278 -0.4788187146
outer loop
vertex -63.05211639 39.18405914 336.604126
vertex -62.58670807 39.44678497 336.8826904
vertex -62.71169281 39.05348969 336.2311401

endloop
endfacet
facet normal -0.1722422689 0.8575940728 -0.4846288264
outer loop
vertex -62.71169281 39.05348969 336.2311401
vertex -62.58670807 39.44678497 336.8826904
vertex -62.25881195 39.32073212 336.5430908

endloop
endfacet
facet normal -0.149137333 0.8474558592 -0.5094866753
outer loop
vertex -62.71169281 39.05348969 336.2311401
vertex -62.25881195 39.32073212 336.5430908
vertex -62.32859039 38.90920258 335.8789978

endloop
endfacet
facet normal -0.1191172749 0.8495255113 -0.5139235258
outer loop
vertex -62.32859039 38.90920258 335.8789978
vertex -62.25881195 39.32073212 336.5430908
vertex -61.89589691 39.17725372 336.2218018

endloop
endfacet
facet normal -0.1043714285 0.8431081176 -0.527518034
outer loop
vertex -62.32859039 38.90920258 335.8789978
vertex -61.89589691 39.17725372 336.2218018
vertex -61.96579742 38.76084137 335.5700989

endloop
endfacet
facet normal -0.09384340793 0.8434866667 -0.5288891196
outer loop
vertex -61.96579742 38.76084137 335.5700989
vertex -61.89589691 39.17725372 336.2218018
vertex -61.54682159 39.02747345 335.92099

endloop
endfacet
facet normal -0.0878456682 0.8408380151 -0.5341110826
outer loop
vertex -61.96578217 38.76084137 335.5701294
vertex -61.54680634 39.02750397 335.9210205
vertex -61.59656525 38.60916901 335.2706299

endloop
endfacet
facet normal -0.0818887651 0.8410591483 -0.5347090364
outer loop
vertex -61.59656525 38.60916901 335.2706299
vertex -61.54680634 39.02750397 335.9210205
vertex -61.19226837 38.87128448 335.6210022

endloop
endfacet
facet normal -0.0738613829 0.8375493288 -0.5413461328
outer loop
vertex -61.59656525 38.60916901 335.2706299
vertex -61.19226837 38.87128448 335.6210022
vertex -61.18726349 38.44945526 334.9676819

endloop
endfacet
facet normal -0.05721210688 0.8385261297 -0.5418493152
outer loop
vertex -61.18726349 38.44945526 334.9676819
vertex -61.19226837 38.87128448 335.6210022
vertex -60.80457306 38.7047348 335.3223267

endloop
endfacet
facet normal -0.045978982 0.8336119652 -0.5504335761
outer loop
vertex -61.18726349 38.44945526 334.9676819
vertex -60.80457306 38.7047348 335.3223267
vertex -60.74629974 38.27855682 334.6720276

endloop
endfacet
facet normal -0.02441294678 0.8351367712 -0.5495002866
outer loop
vertex -60.74629974 38.27855682 334.6720276
vertex -60.80457306 38.7047348 335.3223267
vertex -60.38724518 38.52573395 335.0317383

endloop
endfacet
facet normal 0.03108976409 0.8090214133 -0.5869564414
outer loop
vertex -60.74629974 38.27855682 334.6720276
vertex -60.38724518 38.52573395 335.0317383
vertex -60.29549408 38.07480621 334.4150696

endloop
endfacet
facet normal 0.04714316502 0.8096448183 -0.5850238204
outer loop
vertex -60.29549408 38.07480621 334.4150696
vertex -60.38724518 38.52573395 335.0317383
vertex -59.96041107 38.30643463 334.7626343

endloop
endfacet
facet normal 0.2308055311 0.6921896935 -0.6838145852
outer loop
vertex -60.29549408 38.07480621 334.4150696
vertex -59.96041107 38.30643463 334.7626343
vertex -59.91179657 37.81511688 334.2817078

endloop
endfacet
facet normal 0.2207001001 0.6933255196 -0.6859964728
outer loop
vertex -59.91179657 37.81511688 334.2817078
vertex -59.96041107 38.30643463 334.7626343
vertex -59.61788177 38.00934601 334.5725708

endloop
endfacet
facet normal 0.3575167954 0.5685307384 -0.7409147024
outer loop
vertex -59.91179657 37.81511688 334.2817078
vertex -59.61788177 38.00934601 334.5725708
vertex -59.65261078 37.52657318 334.1853638

endloop
endfacet
facet normal 0.2521226108 0.5943550467 -0.7636598349
outer loop
vertex -59.65261078 37.52657318 334.1853638
vertex -59.61788177 38.00934601 334.5725708
vertex -59.40871429 37.68907928 334.3923645

endloop
endfacet
facet normal 0.6925414801 -0.137301743 -0.7081909776
outer loop
vertex -59.65261078 37.52657318 334.1853638
vertex -59.40871429 37.68907928 334.3923645
vertex -59.36031342 36.96814728 334.5794678

endloop
endfacet
facet normal 0.9699007869 0.001926136902 -0.2434927821
outer loop
vertex -59.36031342 36.96814728 334.5794678
vertex -59.40871429 37.68907928 334.3923645
vertex -59.36029816 36.9681778 334.5795288

endloop
endfacet
facet normal 0 -0.5046569705 -0.8633199334
outer loop
vertex -65.16268921 40.05588531 340.3726196
vertex -65.16269684 40.05588531 340.3726196
vertex -65.06639099 40.67369843 340.0114746

endloop
endfacet
facet normal -0.6589251161 0.4535155892 0.6001176834
outer loop
vertex -65.06639099 40.67369843 340.0114746
vertex -65.16269684 40.05588531 340.3726196
vertex -64.80029297 40.68144989 340.2977905

endloop
endfacet
facet normal -0.1131542847 0.9904835224 0.07834853977
outer loop
vertex -65.06639099 40.67369843 340.0114746
vertex -64.80029297 40.68144989 340.2977905
vertex -64.81798553 40.72350311 339.7406006

endloop
endfacet
facet normal -0.03733520955 0.9963790774 0.07638598979
outer loop
vertex -64.81798553 40.72350311 339.7406006
vertex -64.80029297 40.68144989 340.2977905
vertex -64.46237183 40.71068573 340.081604

endloop
endfacet
facet normal 0.1275665015 0.9871802926 -0.09592668712
outer loop
vertex -64.81798553 40.72350311 339.7406006
vertex -64.46237183 40.71068573 340.081604
vertex -64.54252625 40.64920807 339.3423462

endloop
endfacet
facet normal 0.115811266 0.9887387156 -0.0947817266
outer loop
vertex -64.54252625 40.64920807 339.3423462
vertex -64.46237183 40.71068573 340.081604
vertex -64.1073761 40.63431549 339.718689

endloop
endfacet
facet normal 0.2702226341 0.9224062562 -0.2759463191
outer loop
vertex -64.54252625 40.64920807 339.3423462
vertex -64.1073761 40.63431549 339.718689
vertex -64.24263 40.4434433 338.9482117

endloop
endfacet
facet normal 0.2603932619 0.9255136847 -0.274990648
outer loop
vertex -64.24263 40.4434433 338.9482117
vertex -64.1073761 40.63431549 339.718689
vertex -63.78298187 40.42810822 339.3318481

endloop
endfacet
facet normal 0.2975900769 0.8992502689 -0.3206072748
outer loop
vertex -64.24263 40.4434433 338.9482117
vertex -63.78298187 40.42810822 339.3318481
vertex -63.95204926 40.22275543 338.598938

endloop
endfacet
facet normal 0.3033597767 0.8970633745 -0.3213254809
outer loop
vertex -63.95204926 40.22275543 338.598938
vertex -63.78298187 40.42810822 339.3318481
vertex -63.4943924 40.20729828 338.987854

endloop
endfacet
facet normal 0.2871223688 0.9091285467 -0.30173859
outer loop
vertex -63.95204926 40.22275543 338.598938
vertex -63.4943924 40.20729828 338.987854
vertex -63.66777802 40.02323151 338.26828

endloop
endfacet
facet normal 0.2936359048 0.906727314 -0.3026938438
outer loop
vertex -63.66777802 40.02323151 338.26828
vertex -63.4943924 40.20729828 338.987854
vertex -63.2131424 40.00754547 338.662323

endloop
endfacet
facet normal 0.269729197 0.9229928851 -0.2744634748
outer loop
vertex -63.66777802 40.02323151 338.26828
vertex -63.2131424 40.00754547 338.662323
vertex -63.38729095 39.83730316 337.9186707

endloop
endfacet
facet normal 0.2605223358 0.9260634184 -0.2730103433
outer loop
vertex -63.38729095 39.83730316 337.9186707
vertex -63.2131424 40.00754547 338.662323
vertex -62.92182159 39.82128143 338.3085022

endloop
endfacet
facet normal 0.228946358 0.9447618127 -0.2345392704
outer loop
vertex -63.38729095 39.83731842 337.9186707
vertex -62.92182159 39.82129669 338.3085022
vertex -63.13098907 39.68860626 337.5698242

endloop
endfacet
facet normal 0.2177354395 0.9480445385 -0.2319544256
outer loop
vertex -63.13098907 39.68860626 337.5698242
vertex -62.92182159 39.82129669 338.3085022
vertex -62.64559174 39.67198944 337.95755

endloop
endfacet
facet normal 0.1943069845 0.959892571 -0.2021163553
outer loop
vertex -63.13098907 39.68860626 337.5698242
vertex -62.64559174 39.67198944 337.95755
vertex -62.8690567 39.56325531 337.2263184

endloop
endfacet
facet normal 0.1958735138 0.9594859481 -0.202534616
outer loop
vertex -62.8690567 39.56325531 337.2263184
vertex -62.64559174 39.67198944 337.95755
vertex -62.3715744 39.54598236 337.6256104

endloop
endfacet
facet normal 0.1788151562 0.9671025872 -0.1809356362
outer loop
vertex -62.8690567 39.56328583 337.2263489
vertex -62.37155914 39.54599762 337.6256104
vertex -62.58670807 39.44678497 336.8826904

endloop
endfacet
facet normal 0.1907421947 0.9642399549 -0.1840074062
outer loop
vertex -62.58670807 39.44678497 336.8826904
vertex -62.37155914 39.54599762 337.6256104
vertex -62.0891037 39.42896271 337.3051147

endloop
endfacet
facet normal 0.1863105148 0.9661012888 -0.1787085086
outer loop
vertex -62.58670807 39.44678497 336.8826904
vertex -62.0891037 39.42896271 337.3051147
vertex -62.25881195 39.32073212 336.5430908

endloop
endfacet
facet normal 0.2128527611 0.9596595168 -0.1837047189
outer loop
vertex -62.25881195 39.32073212 336.5430908
vertex -62.0891037 39.42896271 337.3051147
vertex -61.78141022 39.30258942 337.0014648

endloop
endfacet
facet normal 0.2147117555 0.9588662982 -0.1856722683
outer loop
vertex -62.25881195 39.32073212 336.5430908
vertex -61.78141022 39.30258942 337.0014648
vertex -61.89589691 39.17725372 336.2218018

endloop
endfacet
facet normal 0.245854184 0.9507151246 -0.1889349073
outer loop
vertex -61.89589691 39.17725372 336.2218018
vertex -61.78141022 39.30258942 337.0014648
vertex -61.44820404 39.15908051 336.7129211

endloop
endfacet
facet normal 0.2454839945 0.9508790374 -0.1885914207
outer loop
vertex -61.89589691 39.17725372 336.2218018
vertex -61.44820404 39.15908051 336.7129211
vertex -61.54682159 39.02747345 335.92099

endloop
endfacet
facet normal 0.2557658553 0.9480050802 -0.1893941909
outer loop
vertex -61.54682159 39.02747345 335.92099
vertex -61.44820404 39.15908051 336.7129211
vertex -61.11295319 39.00940704 336.4164734

endloop
endfacet
facet normal 0.2566330135 0.9476181865 -0.1901559234
outer loop
vertex -61.54680634 39.02750397 335.9210205
vertex -61.11293793 39.00943756 336.4165344
vertex -61.19226837 38.87128448 335.6210022

endloop
endfacet
facet normal 0.2624669969 0.9459598064 -0.1904497147
outer loop
vertex -61.19226837 38.87128448 335.6210022
vertex -61.11293793 39.00943756 336.4165344
vertex -60.77266693 38.85352325 336.1110535

endloop
endfacet
facet normal 0.2609596848 0.9466404915 -0.189134419
outer loop
vertex -61.19226837 38.87128448 335.6210022
vertex -60.77266693 38.85352325 336.1110535
vertex -60.80457306 38.7047348 335.3223267

endloop
endfacet
facet normal 0.2788458765 0.9415736794 -0.1889021248
outer loop
vertex -60.80457306 38.7047348 335.3223267
vertex -60.77266693 38.85352325 336.1110535
vertex -60.41278839 38.68741608 335.8143311

endloop
endfacet
facet normal 0.27514413 0.9432595968 -0.1858951002
outer loop
vertex -60.80457306 38.7047348 335.3223267
vertex -60.41278839 38.68741608 335.8143311
vertex -60.38724518 38.52573395 335.0317383

endloop
endfacet
facet normal 0.2981714308 0.9366531968 -0.1837786436
outer loop
vertex -60.38724518 38.52573395 335.0317383
vertex -60.41278839 38.68741608 335.8143311
vertex -60.02889252 38.50896454 335.5276794

endloop
endfacet
facet normal 0.3371589482 0.9171263576 -0.2126101851
outer loop
vertex -60.38724518 38.52573395 335.0317383
vertex -60.02889252 38.50896454 335.5276794
vertex -59.96041107 38.30643463 334.7626343

endloop
endfacet
facet normal 0.355346024 0.9109877944 -0.2093571275
outer loop
vertex -59.96041107 38.30643463 334.7626343
vertex -60.02889252 38.50896454 335.5276794
vertex -59.63674164 38.29073334 335.2436829

endloop
endfacet
facet normal 0.5134750605 0.7964093685 -0.3194927573
outer loop
vertex -59.96041107 38.30643463 334.7626343
vertex -59.63674164 38.29073334 335.2436829
vertex -59.61788177 38.00934601 334.5725708

endloop
endfacet
facet normal 0.5133724809 0.79646492 -0.3195189238
outer loop
vertex -59.61788177 38.00934601 334.5725708
vertex -59.63674164 38.29073334 335.2436829
vertex -59.34212494 37.99651337 334.9836426

endloop
endfacet
facet normal 0.6409378648 0.6491194367 -0.409686029
outer loop
vertex -59.61788177 38.00934601 334.5725708
vertex -59.34210968 37.99651337 334.9836731
vertex -59.40871429 37.68907928 334.3923645

endloop
endfacet
facet normal 0.5600737333 0.7075321078 -0.4309475422
outer loop
vertex -59.40871429 37.68907928 334.3923645
vertex -59.34210968 37.99651337 334.9836731
vertex -59.17514801 37.69612885 334.707489

endloop
endfacet
facet normal 0.8004488349 -0.09969356656 -0.5910522938
outer loop
vertex -59.40871429 37.68907928 334.3923645
vertex -59.17514801 37.69612885 334.707489
vertex -59.36029816 36.9681778 334.5795288

endloop
endfacet
facet normal -0.969139874 0.2465113401 0
outer loop
vertex -59.36029816 36.9681778 334.5795288
vertex -59.17514801 37.69612885 334.707489
vertex -59.36029816 36.9681778 334.5794983

endloop
endfacet
facet normal 0.8532669544 -0.4664207995 0.2332103997
outer loop
vertex -65.16269684 40.05588531 340.3726196
vertex -65.16269684 40.05587006 340.3725891
vertex -64.80029297 40.68144989 340.2977905

endloop
endfacet
facet normal -0.5994043946 0.4281082153 0.6763413548
outer loop
vertex -64.80029297 40.68144989 340.2977905
vertex -65.16269684 40.05587006 340.3725891
vertex -64.61313629 40.51285553 340.5703735

endloop
endfacet
facet normal 0.1907685995 0.8880563974 0.4182860553
outer loop
vertex -64.80029297 40.68144989 340.2977905
vertex -64.61313629 40.51285553 340.5703735
vertex -64.46237183 40.71068573 340.081604

endloop
endfacet
facet normal 0.2130022943 0.8810673952 0.4223154485
outer loop
vertex -64.46237183 40.71068573 340.081604
vertex -64.61313629 40.51285553 340.5703735
vertex -64.23838043 40.50237274 340.4032288

endloop
endfacet
facet normal 0.4414953589 0.8615702987 0.2505562901
outer loop
vertex -64.46237183 40.71068573 340.081604
vertex -64.23838043 40.50237274 340.4032288
vertex -64.1073761 40.63431549 339.718689

endloop
endfacet
facet normal 0.420758754 0.8724222779 0.248679474
outer loop
vertex -64.1073761 40.63431549 339.718689
vertex -64.23838043 40.50237274 340.4032288
vertex -63.83840179 40.39810944 340.0922546

endloop
endfacet
facet normal 0.5971317291 0.7986267805 0.07502674311
outer loop
vertex -64.1073761 40.63431549 339.718689
vertex -63.83840179 40.39810944 340.0922546
vertex -63.78298187 40.42810822 339.3318481

endloop
endfacet
facet normal 0.5887656808 0.8048480749 0.07466243953
outer loop
vertex -63.78298187 40.42810822 339.3318481
vertex -63.83840179 40.39810944 340.0922546
vertex -63.49982452 40.18498993 339.7197266

endloop
endfacet
facet normal 0.6285218 0.7772749066 0.02835730277
outer loop
vertex -63.78298187 40.42810822 339.3318481
vertex -63.49982452 40.18498993 339.7197266
vertex -63.4943924 40.20729828 338.987854

endloop
endfacet
facet normal 0.6330773234 0.7735718489 0.02827824093
outer loop
vertex -63.4943924 40.20729828 338.987854
vertex -63.49982452 40.18498993 339.7197266
vertex -63.21195221 39.96192169 339.3771973

endloop
endfacet
facet normal 0.615555048 0.7865582705 0.04917387664
outer loop
vertex -63.4943924 40.20729828 338.987854
vertex -63.21195221 39.96192169 339.3771973
vertex -63.2131424 40.00754547 338.662323

endloop
endfacet
facet normal 0.6210241318 0.7822651267 0.04889077321
outer loop
vertex -63.2131424 40.00754547 338.662323
vertex -63.21195221 39.96192169 339.3771973
vertex -62.92993927 39.75849152 339.0499268

endloop
endfacet
facet normal 0.5994933248 0.7969463468 0.07405566424
outer loop
vertex -63.2131424 40.00754547 338.662323
vertex -62.92993927 39.75849152 339.0499268
vertex -62.92182159 39.82128143 338.3085022

endloop
endfacet
facet normal 0.5925617814 0.8020804524 0.07441456616
outer loop
vertex -62.92182159 39.82128143 338.3085022
vertex -62.92993927 39.75849152 339.0499268
vertex -62.62529755 39.56687164 338.6894531

endloop
endfacet
facet normal 0.569636941 0.8156223893 0.1013596728
outer loop
vertex -62.92182159 39.82129669 338.3085022
vertex -62.62529755 39.56685638 338.6894836
vertex -62.64559174 39.67198944 337.95755

endloop
endfacet
facet normal 0.5612239242 0.8213039637 0.1024090275
outer loop
vertex -62.64559174 39.67198944 337.95755
vertex -62.62529755 39.56685638 338.6894836
vertex -62.32816315 39.40818024 338.3336792

endloop
endfacet
facet normal 0.5389836431 0.8323869109 0.1289517581
outer loop
vertex -62.64559174 39.67198944 337.95755
vertex -62.32816315 39.40818024 338.3336792
vertex -62.3715744 39.54598236 337.6256104

endloop
endfacet
facet normal 0.5414977074 0.8308247328 0.128493607
outer loop
vertex -62.3715744 39.54598236 337.6256104
vertex -62.32816315 39.40818024 338.3336792
vertex -62.04137421 39.27193451 338.0060425

endloop
endfacet
facet normal 0.5211028457 0.8397401571 0.1526055783
outer loop
vertex -62.37155914 39.54599762 337.6256104
vertex -62.04135895 39.27194977 338.006073
vertex -62.0891037 39.42896271 337.3051147

endloop
endfacet
facet normal 0.5327393413 0.8328319192 0.1502655596
outer loop
vertex -62.0891037 39.42896271 337.3051147
vertex -62.04135895 39.27194977 338.006073
vertex -61.75832367 39.1463089 337.6989746

endloop
endfacet
facet normal 0.5141887665 0.840401113 0.1712771356
outer loop
vertex -62.0891037 39.42896271 337.3051147
vertex -61.75832367 39.1463089 337.6989746
vertex -61.78141022 39.30258942 337.0014648

endloop
endfacet
facet normal 0.5382913351 0.8259958625 0.1672518253
outer loop
vertex -61.78141022 39.30258942 337.0014648
vertex -61.75832367 39.1463089 337.6989746
vertex -61.47016144 39.01511383 337.4194641

endloop
endfacet
facet normal 0.520108223 0.8335973024 0.1860190481
outer loop
vertex -61.78141022 39.30258942 337.0014648
vertex -61.47016144 39.01511383 337.4194641
vertex -61.44820404 39.15908051 336.7129211

endloop
endfacet
facet normal 0.5458683372 0.8175202012 0.1835437119
outer loop
vertex -61.44820404 39.15908051 336.7129211
vertex -61.47016144 39.01511383 337.4194641
vertex -61.16410065 38.87070465 337.1524353

endloop
endfacet
facet normal 0.5367076993 0.8215998411 0.1921418607
outer loop
vertex -61.44820404 39.15908051 336.7129211
vertex -61.16410065 38.87070465 337.1524353
vertex -61.11295319 39.00940704 336.4164734

endloop
endfacet
facet normal 0.544549346 0.8165204525 0.1917295754
outer loop
vertex -61.11295319 39.00940704 336.4164734
vertex -61.16410065 38.87070465 337.1524353
vertex -60.8372879 38.72258759 336.855011

endloop
endfacet
facet normal 0.5453948379 0.8161363602 0.1909601539
outer loop
vertex -61.11293793 39.00943756 336.4165344
vertex -60.83727264 38.7226181 336.8550415
vertex -60.77266693 38.85352325 336.1110535

endloop
endfacet
facet normal 0.5499281883 0.813120842 0.1908232421
outer loop
vertex -60.77266693 38.85352325 336.1110535
vertex -60.83727264 38.7226181 336.8550415
vertex -60.50514984 38.57157135 336.5415344

endloop
endfacet
facet normal 0.5411240458 0.8170846105 0.1988906413
outer loop
vertex -60.77266693 38.85352325 336.1110535
vertex -60.50514984 38.57157135 336.5415344
vertex -60.41278839 38.68741608 335.8143311

endloop
endfacet
facet normal 0.5560171604 0.8069552779 0.1991685778
outer loop
vertex -60.41278839 38.68741608 335.8143311
vertex -60.50514984 38.57157135 336.5415344
vertex -60.16799164 38.41277313 336.2436829

endloop
endfacet
facet normal 0.5386627913 0.8148590922 0.214119032
outer loop
vertex -60.41278839 38.68741608 335.8143311
vertex -60.16799164 38.41277313 336.2436829
vertex -60.02889252 38.50896454 335.5276794

endloop
endfacet
facet normal 0.5578629971 0.8013235927 0.2160306573
outer loop
vertex -60.02889252 38.50896454 335.5276794
vertex -60.16799164 38.41277313 336.2436829
vertex -59.81371307 38.24304962 335.958374

endloop
endfacet
facet normal 0.5816789865 0.7892785072 0.1966951787
outer loop
vertex -60.02889252 38.50896454 335.5276794
vertex -59.81371307 38.24304962 335.958374
vertex -59.63674164 38.29073334 335.2436829

endloop
endfacet
facet normal 0.5973501205 0.7767096758 0.1997370571
outer loop
vertex -59.63674164 38.29073334 335.2436829
vertex -59.81371307 38.24304962 335.958374
vertex -59.45287323 38.04154205 335.6628113

endloop
endfacet
facet normal 0.7372675538 0.6713451147 0.07571217418
outer loop
vertex -59.63674164 38.29073334 335.2436829
vertex -59.45287323 38.04154205 335.6628113
vertex -59.34212494 37.99651337 334.9836426

endloop
endfacet
facet normal 0.74363029 0.6641157269 0.07722901553
outer loop
vertex -59.34212494 37.99651337 334.9836426
vertex -59.45287323 38.04154205 335.6628113
vertex -59.19361115 37.78783417 335.348114

endloop
endfacet
facet normal 0.8528112173 0.5198359489 -0.04983595386
outer loop
vertex -59.34210968 37.99651337 334.9836731
vertex -59.19361115 37.78783417 335.348114
vertex -59.17514801 37.69612885 334.707489

endloop
endfacet
facet normal 0.8184369206 0.5716369748 -0.05824193358
outer loop
vertex -59.17514801 37.69612885 334.707489
vertex -59.19361115 37.78783417 335.348114
vertex -59.04181671 37.53668976 335.0162354

endloop
endfacet
facet normal 0.8793157935 -0.1438246965 -0.4540024996
outer loop
vertex -59.17514801 37.69612885 334.707489
vertex -59.04181671 37.53668976 335.0162354
vertex -59.36029816 36.9681778 334.5794983

endloop
endfacet
facet normal 0.8079537153 0 -0.5892459154
outer loop
vertex -59.36029816 36.9681778 334.5794983
vertex -59.04181671 37.53668976 335.0162354
vertex -59.36029816 36.96816254 334.5794983

endloop
endfacet
facet normal 0.507334888 -0.253667444 -0.8235678673
outer loop
vertex -65.16269684 40.05587006 340.3725891
vertex -65.16268921 40.05588531 340.3725891
vertex -64.61313629 40.51285553 340.5703735

endloop
endfacet
facet normal -0.5681691766 0.3638083935 0.7381241322
outer loop
vertex -64.61313629 40.51285553 340.5703735
vertex -65.16268921 40.05588531 340.3725891
vertex -64.53977966 40.24260712 340.7600403

endloop
endfacet
facet normal 0.3397086561 0.6003388166 0.7240105867
outer loop
vertex -64.61313629 40.51285553 340.5703735
vertex -64.53977966 40.24260712 340.7600403
vertex -64.23838043 40.50237274 340.4032288

endloop
endfacet
facet normal 0.3090056181 0.6255198717 0.7164080143
outer loop
vertex -64.23838043 40.50237274 340.4032288
vertex -64.53977966 40.24260712 340.7600403
vertex -64.1631012 40.19843292 340.6361389

endloop
endfacet
facet normal 0.589351356 0.5782767534 0.5641463399
outer loop
vertex -64.23838043 40.50237274 340.4032288
vertex -64.1631012 40.19843292 340.6361389
vertex -63.83840179 40.39810944 340.0922546

endloop
endfacet
facet normal 0.5670537353 0.6038284302 0.560215354
outer loop
vertex -63.83840179 40.39810944 340.0922546
vertex -64.1631012 40.19843292 340.6361389
vertex -63.75370026 40.05397797 340.3774414

endloop
endfacet
facet normal 0.7600553632 0.5152559876 0.3960140347
outer loop
vertex -63.83840179 40.39810944 340.0922546
vertex -63.75370026 40.05397797 340.3774414
vertex -63.49982452 40.18498993 339.7197266

endloop
endfacet
facet normal 0.7543340325 0.523955524 0.3955385089
outer loop
vertex -63.49982452 40.18498993 339.7197266
vertex -63.75370026 40.05397797 340.3774414
vertex -63.41179657 39.83080292 340.0210266

endloop
endfacet
facet normal 0.7968005538 0.4940144718 0.3479348421
outer loop
vertex -63.49982452 40.18498993 339.7197266
vertex -63.41179657 39.83080292 340.0210266
vertex -63.21195221 39.96192169 339.3771973

endloop
endfacet
facet normal 0.7997412682 0.4892764986 0.3478827178
outer loop
vertex -63.21195221 39.96192169 339.3771973
vertex -63.41179657 39.83080292 340.0210266
vertex -63.12354279 39.60437775 339.6768188

endloop
endfacet
facet normal 0.7849578857 0.5003129244 0.3654148877
outer loop
vertex -63.21195221 39.96192169 339.3771973
vertex -63.12354279 39.60437775 339.6768188
vertex -62.92993927 39.75849152 339.0499268

endloop
endfacet
facet normal 0.7885283828 0.4948449135 0.36517331
outer loop
vertex -62.92993927 39.75849152 339.0499268
vertex -63.12354279 39.60437775 339.6768188
vertex -62.83811188 39.39565277 339.3433228

endloop
endfacet
facet normal 0.7724565864 0.5059080124 0.3838851452
outer loop
vertex -62.92993927 39.75849152 339.0499268
vertex -62.83811188 39.39565277 339.3433228
vertex -62.62529755 39.56687164 338.6894531

endloop
endfacet
facet normal 0.7682299614 0.5121161938 0.3841351569
outer loop
vertex -62.62529755 39.56687164 338.6894531
vertex -62.83811188 39.39565277 339.3433228
vertex -62.52143097 39.19615936 338.9759521

endloop
endfacet
facet normal 0.7553374767 0.5199355483 0.3989140093
outer loop
vertex -62.62529755 39.56685638 338.6894836
vertex -62.52143097 39.19617462 338.9759521
vertex -62.32816315 39.40818024 338.3336792

endloop
endfacet
facet normal 0.7498245835 0.5272764564 0.3996782601
outer loop
vertex -62.32816315 39.40818024 338.3336792
vertex -62.52143097 39.19617462 338.9759521
vertex -62.20749664 39.02381134 338.6143799

endloop
endfacet
facet normal 0.7330519557 0.5359626412 0.4187825918
outer loop
vertex -62.32816315 39.40818024 338.3336792
vertex -62.20749664 39.02381134 338.6143799
vertex -62.04137421 39.27193451 338.0060425

endloop
endfacet
facet normal 0.7353333235 0.5332180858 0.4182861745
outer loop
vertex -62.04137421 39.27193451 338.0060425
vertex -62.20749664 39.02381134 338.6143799
vertex -61.9103775 38.87264252 338.2847595

endloop
endfacet
facet normal 0.7168287635 0.5416481495 0.4390601814
outer loop
vertex -62.04135895 39.27194977 338.006073
vertex -61.91036224 38.87265778 338.28479
vertex -61.75832367 39.1463089 337.6989746

endloop
endfacet
facet normal 0.726123035 0.531172514 0.4365788996
outer loop
vertex -61.75832367 39.1463089 337.6989746
vertex -61.91036224 38.87265778 338.28479
vertex -61.62654877 38.7345047 337.980835

endloop
endfacet
facet normal 0.6989552379 0.5425645113 0.4659242332
outer loop
vertex -61.75832367 39.1463089 337.6989746
vertex -61.62654877 38.7345047 337.980835
vertex -61.47016144 39.01511383 337.4194641

endloop
endfacet
facet normal 0.7178815007 0.5218121409 0.4608234167
outer loop
vertex -61.47016144 39.01511383 337.4194641
vertex -61.62654877 38.7345047 337.980835
vertex -61.35294342 38.59622955 337.7111816

endloop
endfacet
facet normal 0.6843047738 0.535885632 0.4945236444
outer loop
vertex -61.47016144 39.01511383 337.4194641
vertex -61.35294342 38.59622955 337.7111816
vertex -61.16410065 38.87070465 337.1524353

endloop
endfacet
facet normal 0.7033337951 0.5145465732 0.4904725552
outer loop
vertex -61.16410065 38.87070465 337.1524353
vertex -61.35294342 38.59622955 337.7111816
vertex -61.06587982 38.45052338 337.4523926

endloop
endfacet
facet normal 0.691803813 0.5196387172 0.5013810992
outer loop
vertex -61.16410065 38.87070465 337.1524353
vertex -61.06587982 38.45052338 337.4523926
vertex -60.8372879 38.72258759 336.855011

endloop
endfacet
facet normal 0.6972085834 0.5132059455 0.5005196333
outer loop
vertex -60.8372879 38.72258759 336.855011
vertex -61.06587982 38.45052338 337.4523926
vertex -60.74160004 38.30460358 337.1502991

endloop
endfacet
facet normal 0.70133847 0.511382699 0.4966005087
outer loop
vertex -60.83727264 38.7226181 336.8550415
vertex -60.74158478 38.30463409 337.1503296
vertex -60.50514984 38.57157135 336.5415344

endloop
endfacet
facet normal 0.7042139173 0.5078418255 0.4961647391
outer loop
vertex -60.50514984 38.57157135 336.5415344
vertex -60.74158478 38.30463409 337.1503296
vertex -60.41120148 38.16069794 336.8287354

endloop
endfacet
facet normal 0.691133678 0.5135165453 0.5085616708
outer loop
vertex -60.50514984 38.57157135 336.5415344
vertex -60.41120148 38.16069794 336.8287354
vertex -60.16799164 38.41277313 336.2436829

endloop
endfacet
facet normal 0.7013346553 0.5007667542 0.50730896
outer loop
vertex -60.16799164 38.41277313 336.2436829
vertex -60.41120148 38.16069794 336.8287354
vertex -60.0878067 38.01264191 336.5278015

endloop
endfacet
facet normal 0.6739608645 0.5127242804 0.5318745971
outer loop
vertex -60.16799164 38.41277313 336.2436829
vertex -60.0878067 38.01264191 336.5278015
vertex -59.81371307 38.24304962 335.958374

endloop
endfacet
facet normal 0.6873544455 0.4952807426 0.531263411
outer loop
vertex -59.81371307 38.24304962 335.958374
vertex -60.0878067 38.01264191 336.5278015
vertex -59.75345612 37.85561371 336.2416077

endloop
endfacet
facet normal 0.6996700764 0.4893692732 0.5205569267
outer loop
vertex -59.81371307 38.24304962 335.958374
vertex -59.75345612 37.85561371 336.2416077
vertex -59.45287323 38.04154205 335.6628113

endloop
endfacet
facet normal 0.7106608748 0.4728317559 0.5209523439
outer loop
vertex -59.45287323 38.04154205 335.6628113
vertex -59.75345612 37.85561371 336.2416077
vertex -59.4141922 37.67847443 335.9395752

endloop
endfacet
facet normal 0.840398252 0.3823435307 0.3841147125
outer loop
vertex -59.45287323 38.04154205 335.6628113
vertex -59.4141922 37.67847443 335.9395752
vertex -59.19361115 37.78783417 335.348114

endloop
endfacet
facet normal 0.8474491239 0.3667215407 0.3838557899
outer loop
vertex -59.19361115 37.78783417 335.348114
vertex -59.4141922 37.67847443 335.9395752
vertex -59.17316437 37.48337555 335.5938416

endloop
endfacet
facet normal 0.9377865195 0.25404796 0.2366770357
outer loop
vertex -59.19361115 37.78783417 335.348114
vertex -59.17314911 37.48337555 335.5938416
vertex -59.04181671 37.53668976 335.0162354

endloop
endfacet
facet normal 0.9349870086 0.2639189959 0.2369516194
outer loop
vertex -59.04181671 37.53668976 335.0162354
vertex -59.17314911 37.48337555 335.5938416
vertex -59.02628326 37.28142548 335.2392578

endloop
endfacet
facet normal 0.906932354 -0.2445272803 -0.3430455923
outer loop
vertex -59.04181671 37.53668976 335.0162354
vertex -59.02628326 37.28142548 335.2392578
vertex -59.36029816 36.96816254 334.5794983

endloop
endfacet
facet normal -nan(ind) -nan(ind) -nan(ind)
outer loop
vertex -59.36029816 36.96816254 334.5794983
vertex -59.02628326 37.28142548 335.2392578
vertex -59.36029816 36.96816254 334.5794983

endloop
endfacet
facet normal -0.4794097543 0.7849414349 0.3924707174
outer loop
vertex -65.16268921 40.05588531 340.3725891
vertex -65.16268921 40.05587006 340.3726196
vertex -64.53977966 40.24260712 340.7600403

endloop
endfacet
facet normal -0.566044271 0.2782002389 0.7760145068
outer loop
vertex -64.53977966 40.24260712 340.7600403
vertex -65.16268921 40.05587006 340.3726196
vertex -64.57849884 39.9429245 340.8392334

endloop
endfacet
facet normal 0.3273023963 0.2016608566 0.9231500626
outer loop
vertex -64.53977966 40.24260712 340.7600403
vertex -64.57849884 39.9429245 340.8392334
vertex -64.1631012 40.19843292 340.6361389

endloop
endfacet
facet normal 0.2653095424 0.2976206839 0.9170783758
outer loop
vertex -64.1631012 40.19843292 340.6361389
vertex -64.57849884 39.9429245 340.8392334
vertex -64.21921539 39.86808014 340.7595825

endloop
endfacet
facet normal 0.5728186965 0.1997578889 0.7949688435
outer loop
vertex -64.1631012 40.19843292 340.6361389
vertex -64.21921539 39.86808014 340.7595825
vertex -63.75370026 40.05397797 340.3774414

endloop
endfacet
facet normal 0.5557730794 0.242730394 0.7951089144
outer loop
vertex -63.75370026 40.05397797 340.3774414
vertex -64.21921539 39.86808014 340.7595825
vertex -63.83022308 39.6800766 340.5450745

endloop
endfacet
facet normal 0.7555174232 0.1329781562 0.6414906979
outer loop
vertex -63.75370026 40.05397797 340.3774414
vertex -63.83022308 39.6800766 340.5450745
vertex -63.41179657 39.83080292 340.0210266

endloop
endfacet
facet normal 0.7528246641 0.1435418874 0.6423789859
outer loop
vertex -63.41179657 39.83080292 340.0210266
vertex -63.83022308 39.6800766 340.5450745
vertex -63.49420929 39.44591522 340.2036133

endloop
endfacet
facet normal 0.7967106104 0.1112136096 0.594040215
outer loop
vertex -63.41179657 39.83080292 340.0210266
vertex -63.49420929 39.44591522 340.2036133
vertex -63.12354279 39.60437775 339.6768188

endloop
endfacet
facet normal 0.7979118824 0.1061325073 0.5933570862
outer loop
vertex -63.12354279 39.60437775 339.6768188
vertex -63.49420929 39.44591522 340.2036133
vertex -63.20471954 39.21588898 339.8554688

endloop
endfacet
facet normal 0.7887143493 0.1130734906 0.6042714715
outer loop
vertex -63.12354279 39.60437775 339.6768188
vertex -63.20471954 39.21588898 339.8554688
vertex -62.83811188 39.39565277 339.3433228

endloop
endfacet
facet normal 0.7903587818 0.1068318263 0.6032577753
outer loop
vertex -62.83811188 39.39565277 339.3433228
vertex -63.20471954 39.21588898 339.8554688
vertex -62.91437531 39.00138092 339.5130615

endloop
endfacet
facet normal 0.7820360661 0.1126240045 0.6129726171
outer loop
vertex -62.83811188 39.39565277 339.3433228
vertex -62.91437531 39.00138092 339.5130615
vertex -62.52143097 39.19615936 338.9759521

endloop
endfacet
facet normal 0.7801378965 0.1195195243 0.6140846014
outer loop
vertex -62.52143097 39.19615936 338.9759521
vertex -62.91437531 39.00138092 339.5130615
vertex -62.58864594 38.79335785 339.13974

endloop
endfacet
facet normal 0.7774198055 0.1212781593 0.6171791553
outer loop
vertex -62.52143097 39.19617462 338.9759521
vertex -62.58864594 38.79337311 339.1397705
vertex -62.20749664 39.02381134 338.6143799

endloop
endfacet
facet normal 0.7746611834 0.1297945231 0.6189131737
outer loop
vertex -62.20749664 39.02381134 338.6143799
vertex -62.58864594 38.79337311 339.1397705
vertex -62.26396942 38.60619354 338.772644

endloop
endfacet
facet normal 0.7659367919 0.134665817 0.6286541224
outer loop
vertex -62.20749664 39.02381134 338.6143799
vertex -62.26396942 38.60619354 338.772644
vertex -61.9103775 38.87264252 338.2847595

endloop
endfacet
facet normal 0.7672447562 0.1313087344 0.6277686954
outer loop
vertex -61.9103775 38.87264252 338.2847595
vertex -62.26396942 38.60619354 338.772644
vertex -61.96015167 38.43878937 338.4363403

endloop
endfacet
facet normal 0.7543929219 0.1376922578 0.6418194175
outer loop
vertex -61.91036224 38.87265778 338.28479
vertex -61.96013641 38.43880463 338.4363708
vertex -61.62654877 38.7345047 337.980835

endloop
endfacet
facet normal 0.7601290941 0.1248274148 0.6376690269
outer loop
vertex -61.62654877 38.7345047 337.980835
vertex -61.96013641 38.43880463 338.4363708
vertex -61.67551422 38.28702545 338.1268005

endloop
endfacet
facet normal 0.7298075557 0.1385194361 0.6694723964
outer loop
vertex -61.62654877 38.7345047 337.980835
vertex -61.67551422 38.28702545 338.1268005
vertex -61.35294342 38.59622955 337.7111816

endloop
endfacet
facet normal 0.7418425083 0.114263393 0.660767436
outer loop
vertex -61.35294342 38.59622955 337.7111816
vertex -61.67551422 38.28702545 338.1268005
vertex -61.41008759 38.14113617 337.8540344

endloop
endfacet
facet normal 0.6999214888 0.1324188709 0.7018370032
outer loop
vertex -61.35294342 38.59622955 337.7111816
vertex -61.41008759 38.14113617 337.8540344
vertex -61.06587982 38.45052338 337.4523926

endloop
endfacet
facet normal 0.7123704553 0.1077279001 0.6934860945
outer loop
vertex -61.06587982 38.45052338 337.4523926
vertex -61.41008759 38.14113617 337.8540344
vertex -61.13234711 37.99402618 337.5915833

endloop
endfacet
facet normal 0.7037758827 0.1114605293 0.701623857
outer loop
vertex -61.06587982 38.45052338 337.4523926
vertex -61.13234711 37.99402618 337.5915833
vertex -60.74160004 38.30460358 337.1502991

endloop
endfacet
facet normal 0.7070352435 0.1042698324 0.699449122
outer loop
vertex -60.74160004 38.30460358 337.1502991
vertex -61.13234711 37.99402618 337.5915833
vertex -60.80547333 37.85048676 337.2825623

endloop
endfacet
facet normal 0.7161158323 0.1004934981 0.6907091141
outer loop
vertex -60.74158478 38.30463409 337.1503296
vertex -60.80545807 37.85051727 337.2826233
vertex -60.41120148 38.16069794 336.8287354

endloop
endfacet
facet normal 0.7176179886 0.09702698141 0.6896449924
outer loop
vertex -60.41120148 38.16069794 336.8287354
vertex -60.80545807 37.85051727 337.2826233
vertex -60.47147369 37.71431732 336.9542542

endloop
endfacet
facet normal 0.7024934292 0.1031548604 0.7041746974
outer loop
vertex -60.41120148 38.16069794 336.8287354
vertex -60.47147369 37.71431732 336.9542542
vertex -60.0878067 38.01264191 336.5278015

endloop
endfacet
facet normal 0.7081564069 0.09027636051 0.7002604604
outer loop
vertex -60.0878067 38.01264191 336.5278015
vertex -60.47147369 37.71431732 336.9542542
vertex -60.15239716 37.57787323 336.6491699

endloop
endfacet
facet normal 0.6744621396 0.1038544923 0.7309685946
outer loop
vertex -60.0878067 38.01264191 336.5278015
vertex -60.15239716 37.57787323 336.6491699
vertex -59.75345612 37.85561371 336.2416077

endloop
endfacet
facet normal 0.6821043491 0.08587276936 0.7261952758
outer loop
vertex -59.75345612 37.85561371 336.2416077
vertex -60.15239716 37.57787323 336.6491699
vertex -59.82697296 37.43462372 336.3604431

endloop
endfacet
facet normal 0.6866756678 0.0839195922 0.7221038938
outer loop
vertex -59.75345612 37.85561371 336.2416077
vertex -59.82697296 37.43462372 336.3604431
vertex -59.4141922 37.67847443 335.9395752

endloop
endfacet
facet normal 0.6927603483 0.06667345017 0.7180792093
outer loop
vertex -59.4141922 37.67847443 335.9395752
vertex -59.82697296 37.43462372 336.3604431
vertex -59.49794769 37.28397369 336.0570068

endloop
endfacet
facet normal 0.8194345832 -0.003357909387 0.5731628537
outer loop
vertex -59.4141922 37.67847443 335.9395752
vertex -59.49794769 37.28397369 336.0570068
vertex -59.17316437 37.48337555 335.5938416

endloop
endfacet
facet normal 0.8232577443 -0.0234766081 0.5671821833
outer loop
vertex -59.17316437 37.48337555 335.5938416
vertex -59.49794769 37.28397369 336.0570068
vertex -59.25852203 37.15247345 335.7040405

endloop
endfacet
facet normal 0.9006762505 -0.09096569568 0.4248617887
outer loop
vertex -59.17314911 37.48337555 335.5938416
vertex -59.25853729 37.15247345 335.70401
vertex -59.02628326 37.28142548 335.2392578

endloop
endfacet
facet normal 0.9009029865 -0.1285398602 0.4145496786
outer loop
vertex -59.02628326 37.28142548 335.2392578
vertex -59.25853729 37.15247345 335.70401
vertex -59.11415863 36.9983902 335.3424683

endloop
endfacet
facet normal 0.8867747784 -0.3742353916 -0.2712532282
outer loop
vertex -59.02628326 37.28142548 335.2392578
vertex -59.11415863 36.9983902 335.3424683
vertex -59.36029816 36.96816254 334.5794983

endloop
endfacet
facet normal -0.7872245312 -0.551535964 0.2758363783
outer loop
vertex -59.36029816 36.96816254 334.5794983
vertex -59.11415863 36.9983902 335.3424683
vertex -59.36029816 36.9681778 334.5795288

endloop
endfacet
facet normal -0.1898217499 -0.9818185568 0
outer loop
vertex -65.16268921 40.05587006 340.3726196
vertex -65.16268921 40.05587006 340.3725891
vertex -64.57849884 39.9429245 340.8392334

endloop
endfacet
facet normal -0.589204669 0.1935286075 0.7844644785
outer loop
vertex -64.57849884 39.9429245 340.8392334
vertex -65.16268921 40.05587006 340.3725891
vertex -64.71398926 39.65758514 340.8078613

endloop
endfacet
facet normal 0.1747911721 -0.1892335713 0.966249764
outer loop
vertex -64.57849884 39.9429245 340.8392334
vertex -64.71398926 39.65758514 340.8078613
vertex -64.21921539 39.86808014 340.7595825

endloop
endfacet
facet normal 0.1103820726 -0.03161435202 0.993386209
outer loop
vertex -64.21921539 39.86808014 340.7595825
vertex -64.71398926 39.65758514 340.8078613
vertex -64.39835358 39.53508759 340.7688904

endloop
endfacet
facet normal 0.4015990198 -0.1910099834 0.8956748843
outer loop
vertex -64.21921539 39.86808014 340.7595825
vertex -64.39835358 39.53508759 340.7688904
vertex -63.83022308 39.6800766 340.5450745

endloop
endfacet
facet normal 0.392565906 -0.1335344613 0.9099783301
outer loop
vertex -63.83022308 39.6800766 340.5450745
vertex -64.39835358 39.53508759 340.7688904
vertex -64.05730438 39.3028183 340.587677

endloop
endfacet
facet normal 0.5884157419 -0.2680373788 0.7628386617
outer loop
vertex -63.83022308 39.6800766 340.5450745
vertex -64.05730438 39.3028183 340.587677
vertex -63.49420929 39.44591522 340.2036133

endloop
endfacet
facet normal 0.5882605314 -0.2563885748 0.7669513822
outer loop
vertex -63.49420929 39.44591522 340.2036133
vertex -64.05730438 39.3028183 340.587677
vertex -63.73571014 39.0575943 340.2590332

endloop
endfacet
facet normal 0.6323860288 -0.2908180356 0.7179921865
outer loop
vertex -63.49420929 39.44591522 340.2036133
vertex -63.73571014 39.0575943 340.2590332
vertex -63.20471954 39.21588898 339.8554688

endloop
endfacet
facet normal 0.6323464513 -0.2959507406 0.7159267664
outer loop
vertex -63.20471954 39.21588898 339.8554688
vertex -63.73571014 39.0575943 340.2590332
vertex -63.44432831 38.82389069 339.9050598

endloop
endfacet
facet normal 0.6300933361 -0.2942332625 0.718616128
outer loop
vertex -63.20471954 39.21588898 339.8554688
vertex -63.44432831 38.82389069 339.9050598
vertex -62.91437531 39.00138092 339.5130615

endloop
endfacet
facet normal 0.630196929 -0.3002510965 0.7160314918
outer loop
vertex -62.91437531 39.00138092 339.5130615
vertex -63.44432831 38.82389069 339.9050598
vertex -63.14789581 38.60359955 339.5517883

endloop
endfacet
facet normal 0.629732132 -0.2999250889 0.7165768147
outer loop
vertex -62.91437531 39.00138092 339.5130615
vertex -63.14789581 38.60359955 339.5517883
vertex -62.58864594 38.79335785 339.13974

endloop
endfacet
facet normal 0.6295801401 -0.2928260863 0.7196398973
outer loop
vertex -62.58864594 38.79335785 339.13974
vertex -63.14789581 38.60359955 339.5517883
vertex -62.81661224 38.38700104 339.1738281

endloop
endfacet
facet normal 0.635276556 -0.2966169119 0.7130512595
outer loop
vertex -62.58864594 38.79337311 339.1397705
vertex -62.81661224 38.38700104 339.1738281
vertex -62.26396942 38.60619354 338.772644

endloop
endfacet
facet normal 0.6347209811 -0.2874952853 0.717269659
outer loop
vertex -62.26396942 38.60619354 338.772644
vertex -62.81661224 38.38700104 339.1738281
vertex -62.48777008 38.18488312 338.8018188

endloop
endfacet
facet normal 0.6350429654 -0.2876915336 0.7169058323
outer loop
vertex -62.26396942 38.60619354 338.772644
vertex -62.48777008 38.18488312 338.8018188
vertex -61.96015167 38.43878937 338.4363403

endloop
endfacet
facet normal 0.6354455352 -0.2909193337 0.7152446508
outer loop
vertex -61.96015167 38.43878937 338.4363403
vertex -62.48777008 38.18488312 338.8018188
vertex -62.18125153 38.001091 338.4547424

endloop
endfacet
facet normal 0.6303770542 -0.2881237864 0.7208393812
outer loop
vertex -61.96013641 38.43880463 338.4363708
vertex -62.18123627 38.00110626 338.4547729
vertex -61.67551422 38.28702545 338.1268005

endloop
endfacet
facet normal 0.6328796148 -0.3012828231 0.7132264972
outer loop
vertex -61.67551422 38.28702545 338.1268005
vertex -62.18123627 38.00110626 338.4547729
vertex -61.89580536 37.8355484 338.1315613

endloop
endfacet
facet normal 0.605061233 -0.2874006033 0.7424970865
outer loop
vertex -61.67551422 38.28702545 338.1268005
vertex -61.89580536 37.8355484 338.1315613
vertex -61.41008759 38.14113617 337.8540344

endloop
endfacet
facet normal 0.6118132472 -0.3125317693 0.7266418338
outer loop
vertex -61.41008759 38.14113617 337.8540344
vertex -61.89580536 37.8355484 338.1315613
vertex -61.63182831 37.68193817 337.8432312

endloop
endfacet
facet normal 0.5699565411 -0.2932822108 0.7675513625
outer loop
vertex -61.41008759 38.14113617 337.8540344
vertex -61.63182831 37.68193817 337.8432312
vertex -61.13234711 37.99402618 337.5915833

endloop
endfacet
facet normal 0.5779510736 -0.3194717169 0.7509396076
outer loop
vertex -61.13234711 37.99402618 337.5915833
vertex -61.63182831 37.68193817 337.8432312
vertex -61.35347748 37.53343964 337.5658264

endloop
endfacet
facet normal 0.573957324 -0.3177655339 0.7547172308
outer loop
vertex -61.13234711 37.99402618 337.5915833
vertex -61.35347748 37.53343964 337.5658264
vertex -60.80547333 37.85048676 337.2825623

endloop
endfacet
facet normal 0.5757288337 -0.3246693015 0.7504173517
outer loop
vertex -60.80547333 37.85048676 337.2825623
vertex -61.35347748 37.53343964 337.5658264
vertex -61.01917267 37.39232635 337.248291

endloop
endfacet
facet normal 0.5898267031 -0.3302720487 0.7369021773
outer loop
vertex -60.80545807 37.85051727 337.2826233
vertex -61.01915741 37.39234161 337.2483215
vertex -60.47147369 37.71431732 336.9542542

endloop
endfacet
facet normal 0.5905179381 -0.3331309557 0.7350593805
outer loop
vertex -60.47147369 37.71431732 336.9542542
vertex -61.01915741 37.39234161 337.2483215
vertex -60.67662811 37.26392365 336.9149475

endloop
endfacet
facet normal 0.5759500265 -0.3277054727 0.7489264011
outer loop
vertex -60.47147369 37.71431732 336.9542542
vertex -60.67662811 37.26392365 336.9149475
vertex -60.15239716 37.57787323 336.6491699

endloop
endfacet
facet normal 0.5789505839 -0.3389362991 0.7415783405
outer loop
vertex -60.15239716 37.57787323 336.6491699
vertex -60.67662811 37.26392365 336.9149475
vertex -60.35250092 37.13918304 336.6048889

endloop
endfacet
facet normal 0.5431339741 -0.3258550763 0.7738370895
outer loop
vertex -60.15239716 37.57787323 336.6491699
vertex -60.35250092 37.13918304 336.6048889
vertex -59.82697296 37.43462372 336.3604431

endloop
endfacet
facet normal 0.547422111 -0.3416842818 0.7639246583
outer loop
vertex -59.82697296 37.43462372 336.3604431
vertex -60.35250092 37.13918304 336.6048889
vertex -60.0247879 37.00989532 336.3122253

endloop
endfacet
facet normal 0.5477475524 -0.3418033421 0.7636380196
outer loop
vertex -59.82697296 37.43462372 336.3604431
vertex -60.0247879 37.00989532 336.3122253
vertex -59.49794769 37.28397369 336.0570068

endloop
endfacet
facet normal 0.5509015918 -0.3561175764 0.754776597
outer loop
vertex -59.49794769 37.28397369 336.0570068
vertex -60.0247879 37.00989532 336.3122253
vertex -59.69431305 36.88596344 336.0125427

endloop
endfacet
facet normal 0.6801137328 -0.4038952589 0.6118119955
outer loop
vertex -59.49794769 37.28397369 336.0570068
vertex -59.69431305 36.88596344 336.0125427
vertex -59.25852203 37.15247345 335.7040405

endloop
endfacet
facet normal 0.681396246 -0.4218344092 0.5981262326
outer loop
vertex -59.25852203 37.15247345 335.7040405
vertex -59.69431305 36.88596344 336.0125427
vertex -59.44017792 36.8188858 335.6757202

endloop
endfacet
facet normal 0.7476024628 -0.4486064315 0.4897375703
outer loop
vertex -59.25853729 37.15247345 335.70401
vertex -59.44017792 36.8188858 335.6757202
vertex -59.11415863 36.9983902 335.3424683

endloop
endfacet
facet normal 0.7386103272 -0.4980601966 0.454302609
outer loop
vertex -59.11415863 36.9983902 335.3424683
vertex -59.44017792 36.8188858 335.6757202
vertex -59.28377533 36.72867584 335.3225403

endloop
endfacet
facet normal 0.8283496499 -0.502654016 -0.247337088
outer loop
vertex -59.11415863 36.9983902 335.3424683
vertex -59.28377533 36.72867584 335.3225403
vertex -59.36029816 36.9681778 334.5795288

endloop
endfacet
facet normal 0.9903538823 0.1238931939 -0.06204555184
outer loop
vertex -59.36029816 36.9681778 334.5795288
vertex -59.28377533 36.72867584 335.3225403
vertex -59.36029816 36.96816254 334.5794983

endloop
endfacet
facet normal -0 0.7377571464 0.6750661731
outer loop
vertex -65.16268921 40.05587006 340.3725891
vertex -65.16269684 40.05587006 340.3725891
vertex -64.71398926 39.65758514 340.8078613

endloop
endfacet
facet normal -0.6336389184 0.1211794466 0.764079392
outer loop
vertex -64.71398926 39.65758514 340.8078613
vertex -65.16269684 40.05587006 340.3725891
vertex -64.92214203 39.44335175 340.66922

endloop
endfacet
facet normal -0.08073996753 -0.4850567877 0.8707473874
outer loop
vertex -64.71398926 39.65758514 340.8078613
vertex -64.92214203 39.44335175 340.66922
vertex -64.39835358 39.53508759 340.7688904

endloop
endfacet
facet normal -0.1305806786 -0.2858609855 0.9493324757
outer loop
vertex -64.39835358 39.53508759 340.7688904
vertex -64.92214203 39.44335175 340.66922
vertex -64.6778183 39.26657867 340.6495972

endloop
endfacet
facet normal 0.1148574278 -0.5007171631 0.8579568863
outer loop
vertex -64.39835358 39.53508759 340.7688904
vertex -64.6778183 39.26657867 340.6495972
vertex -64.05730438 39.3028183 340.587677

endloop
endfacet
facet normal 0.1145598814 -0.438378185 0.8914598227
outer loop
vertex -64.05730438 39.3028183 340.587677
vertex -64.6778183 39.26657867 340.6495972
vertex -64.40579224 38.99832916 340.4827271

endloop
endfacet
facet normal 0.3006170988 -0.5996780992 0.7416303158
outer loop
vertex -64.05730438 39.3028183 340.587677
vertex -64.40579224 38.99832916 340.4827271
vertex -63.73571014 39.0575943 340.2590332

endloop
endfacet
facet normal 0.3023404777 -0.5886624455 0.7497111559
outer loop
vertex -63.73571014 39.0575943 340.2590332
vertex -64.40579224 38.99832916 340.4827271
vertex -64.10514069 38.74417877 340.1619263

endloop
endfacet
facet normal 0.347061336 -0.6255758405 0.698715508
outer loop
vertex -63.73571014 39.0575943 340.2590332
vertex -64.10514069 38.74417877 340.1619263
vertex -63.44432831 38.82389069 339.9050598

endloop
endfacet
facet normal 0.3462046385 -0.6300297976 0.6951293945
outer loop
vertex -63.44432831 38.82389069 339.9050598
vertex -64.10514069 38.74417877 340.1619263
vertex -63.81143951 38.50754547 339.801178

endloop
endfacet
facet normal 0.3508719802 -0.6336035132 0.6895181537
outer loop
vertex -63.44432831 38.82389069 339.9050598
vertex -63.81143951 38.50754547 339.801178
vertex -63.14789581 38.60359955 339.5517883

endloop
endfacet
facet normal 0.3500468433 -0.6384482384 0.6854567528
outer loop
vertex -63.14789581 38.60359955 339.5517883
vertex -63.81143951 38.50754547 339.801178
vertex -63.50887299 38.28255463 339.4371033

endloop
endfacet
facet normal 0.3552410305 -0.6421042681 0.6793422699
outer loop
vertex -63.14789581 38.60359955 339.5517883
vertex -63.50887299 38.28255463 339.4371033
vertex -62.81661224 38.38700104 339.1738281

endloop
endfacet
facet normal 0.3563345969 -0.6357234716 0.6847491264
outer loop
vertex -62.81661224 38.38700104 339.1738281
vertex -63.50887299 38.28255463 339.4371033
vertex -63.17707062 38.05902863 339.0569153

endloop
endfacet
facet normal 0.3663732409 -0.642557919 0.6729709506
outer loop
vertex -62.81661224 38.38700104 339.1738281
vertex -63.17707062 38.05902863 339.0569153
vertex -62.48777008 38.18488312 338.8018188

endloop
endfacet
facet normal 0.3675152361 -0.6343300939 0.6801159978
outer loop
vertex -62.48777008 38.18488312 338.8018188
vertex -63.17707062 38.05902863 339.0569153
vertex -62.85219574 37.84482574 338.6815796

endloop
endfacet
facet normal 0.3756920397 -0.6397081614 0.6705437303
outer loop
vertex -62.48777008 38.18488312 338.8018188
vertex -62.85219574 37.84482574 338.6815796
vertex -62.18125153 38.001091 338.4547424

endloop
endfacet
facet normal 0.3755084872 -0.6421144009 0.6683430672
outer loop
vertex -62.18125153 38.001091 338.4547424
vertex -62.85219574 37.84482574 338.6815796
vertex -62.54795074 37.64780426 338.3213501

endloop
endfacet
facet normal 0.3788405359 -0.6441394091 0.6645029783
outer loop
vertex -62.18123627 38.00110626 338.4547729
vertex -62.54795074 37.64781952 338.3213806
vertex -61.89580536 37.8355484 338.1315613

endloop
endfacet
facet normal 0.3788489103 -0.6553438306 0.6534507275
outer loop
vertex -61.89580536 37.8355484 338.1315613
vertex -62.54795074 37.64781952 338.3213806
vertex -62.26187897 37.47116852 337.978363

endloop
endfacet
facet normal 0.3603371084 -0.6452429295 0.6736606956
outer loop
vertex -61.89580536 37.8355484 338.1315613
vertex -62.26187897 37.47116852 337.978363
vertex -61.63182831 37.68193817 337.8432312

endloop
endfacet
facet normal 0.3627184331 -0.6670449972 0.6507582664
outer loop
vertex -61.63182831 37.68193817 337.8432312
vertex -62.26187897 37.47116852 337.978363
vertex -61.99160004 37.3113327 337.6638794

endloop
endfacet
facet normal 0.3316986561 -0.6519739032 0.681840241
outer loop
vertex -61.63182831 37.68193817 337.8432312
vertex -61.99160004 37.3113327 337.6638794
vertex -61.35347748 37.53343964 337.5658264

endloop
endfacet
facet normal 0.3358477652 -0.6747867465 0.6571674943
outer loop
vertex -61.35347748 37.53343964 337.5658264
vertex -61.99160004 37.3113327 337.6638794
vertex -61.70165253 37.1616745 337.36203

endloop
endfacet
facet normal 0.3375458121 -0.6754983068 0.6555646062
outer loop
vertex -61.35347748 37.53343964 337.5658264
vertex -61.70165253 37.1616745 337.36203
vertex -61.01917267 37.39232635 337.248291

endloop
endfacet
facet normal 0.338409692 -0.6811973453 0.6491911411
outer loop
vertex -61.01917267 37.39232635 337.248291
vertex -61.70165253 37.1616745 337.36203
vertex -61.35614777 37.02249908 337.0358887

endloop
endfacet
facet normal 0.3569186032 -0.6880891323 0.6317771077
outer loop
vertex -61.01915741 37.39234161 337.2483215
vertex -61.35613251 37.0225296 337.0359192
vertex -60.67662811 37.26392365 336.9149475

endloop
endfacet
facet normal 0.3572334051 -0.6902461052 0.6292412877
outer loop
vertex -60.67662811 37.26392365 336.9149475
vertex -61.35613251 37.0225296 337.0359192
vertex -61.00127411 36.900383 336.70047

endloop
endfacet
facet normal 0.3468732536 -0.6866754293 0.6388707161
outer loop
vertex -60.67662811 37.26392365 336.9149475
vertex -61.00127411 36.900383 336.70047
vertex -60.35250092 37.13918304 336.6048889

endloop
endfacet
facet normal 0.3484326899 -0.6947949529 0.6291697621
outer loop
vertex -60.35250092 37.13918304 336.6048889
vertex -61.00127411 36.900383 336.70047
vertex -60.66265106 36.78508759 336.3856201

endloop
endfacet
facet normal 0.3167289793 -0.6842086315 0.6569180489
outer loop
vertex -60.35250092 37.13918304 336.6048889
vertex -60.66265106 36.78508759 336.3856201
vertex -60.0247879 37.00989532 336.3122253

endloop
endfacet
facet normal 0.319254756 -0.6957921982 0.6433891058
outer loop
vertex -60.0247879 37.00989532 336.3122253
vertex -60.66265106 36.78508759 336.3856201
vertex -60.32061005 36.66706085 336.0882568

endloop
endfacet
facet normal 0.3209877312 -0.6963375807 0.6419351697
outer loop
vertex -60.0247879 37.00989532 336.3122253
vertex -60.32061005 36.66706085 336.0882568
vertex -59.69431305 36.88596344 336.0125427

endloop
endfacet
facet normal 0.3229602873 -0.7060168982 0.6302673221
outer loop
vertex -59.69431305 36.88596344 336.0125427
vertex -60.32061005 36.66706085 336.0882568
vertex -59.97605133 36.56472015 335.7970581

endloop
endfacet
facet normal 0.4613363445 -0.7364727259 0.4947490692
outer loop
vertex -59.69431305 36.88596344 336.0125427
vertex -59.97605133 36.56472015 335.7970581
vertex -59.44017792 36.8188858 335.6757202

endloop
endfacet
facet normal 0.462395817 -0.7464251518 0.4785808325
outer loop
vertex -59.44017792 36.8188858 335.6757202
vertex -59.97605133 36.56472015 335.7970581
vertex -59.69185638 36.54991913 335.4993896

endloop
endfacet
facet normal 0.5103501678 -0.7515612841 0.417969346
outer loop
vertex -59.44017792 36.8188858 335.6757202
vertex -59.69185638 36.54991913 335.4993896
vertex -59.28377533 36.72867584 335.3225403

endloop
endfacet
facet normal 0.4996522367 -0.7907245755 0.353698045
outer loop
vertex -59.28377533 36.72867584 335.3225403
vertex -59.69185638 36.54991913 335.4993896
vertex -59.50363922 36.52602386 335.1800842

endloop
endfacet
facet normal 0.7417266965 -0.6122995019 -0.2737350166
outer loop
vertex -59.28377533 36.72867584 335.3225403
vertex -59.50363922 36.52602386 335.1800842
vertex -59.36029816 36.96816254 334.5794983

endloop
endfacet
facet normal -nan(ind) -nan(ind) -nan(ind)
outer loop
vertex -59.36029816 36.96816254 334.5794983
vertex -59.50363922 36.52602386 335.1800842
vertex -59.36029816 36.96816254 334.5794983

endloop
endfacet
facet normal 0.232320711 -0.3484810591 -0.9080682397
outer loop
vertex -65.1627121 40.0558548 340.3725891
vertex -65.16268921 40.05587006 340.3725891
vertex -64.92214966 39.44335175 340.6691895

endloop
endfacet
facet normal -0.699475348 0.06972008198 0.7112476826
outer loop
vertex -64.92214966 39.44335175 340.6691895
vertex -65.16268921 40.05587006 340.3725891
vertex -65.20035553 39.35388947 340.4043579

endloop
endfacet
facet normal -0.4113565981 -0.6404983997 0.6484963298
outer loop
vertex -64.92214966 39.44335175 340.6691895
vertex -65.20035553 39.35388947 340.4043579
vertex -64.6778183 39.26656342 340.6495667

endloop
endfacet
facet normal -0.4407487214 -0.4393204749 0.7827759385
outer loop
vertex -64.6778183 39.26656342 340.6495667
vertex -65.20035553 39.35388947 340.4043579
vertex -65.06004333 39.1352005 340.3606262

endloop
endfacet
facet normal -0.2697209418 -0.6907939315 0.670860827
outer loop
vertex -64.6778183 39.26656342 340.6495667
vertex -65.06004333 39.1352005 340.3606262
vertex -64.40579987 38.99829865 340.4826965

endloop
endfacet
facet normal -0.2680300474 -0.6343787909 0.7250678539
outer loop
vertex -64.40579987 38.99829865 340.4826965
vertex -65.06004333 39.1352005 340.3606262
vertex -64.87709808 38.84900665 340.1778564

endloop
endfacet
facet normal -0.1003054678 -0.8235006928 0.5583775043
outer loop
vertex -64.40579987 38.99829865 340.4826965
vertex -64.87709808 38.84900665 340.1778564
vertex -64.10514832 38.74417877 340.1619263

endloop
endfacet
facet normal -0.09887824208 -0.8149203658 0.5710762143
outer loop
vertex -64.10514832 38.74417877 340.1619263
vertex -64.87709808 38.84900665 340.1778564
vertex -64.60366821 38.59050751 339.8563232

endloop
endfacet
facet normal -0.05350588635 -0.8543720841 0.5168999434
outer loop
vertex -64.10514832 38.74417877 340.1619263
vertex -64.60366821 38.59050751 339.8563232
vertex -63.81143951 38.50753021 339.801178

endloop
endfacet
facet normal -0.05423052609 -0.8576325178 0.5113957524
outer loop
vertex -63.81143951 38.50753021 339.801178
vertex -64.60366821 38.59050751 339.8563232
vertex -64.30741119 38.35242462 339.4884644

endloop
endfacet
facet normal -0.04367437214 -0.8656997681 0.4986546934
outer loop
vertex -63.81143951 38.50753021 339.801178
vertex -64.30741119 38.35242462 339.4884644
vertex -63.50888824 38.28255463 339.4371033

endloop
endfacet
facet normal -0.0443459563 -0.8690377474 0.4927543104
outer loop
vertex -63.50888824 38.28255463 339.4371033
vertex -64.30741119 38.35242462 339.4884644
vertex -63.99962616 38.12514496 339.1153259

endloop
endfacet
facet normal -0.03602916375 -0.8749101758 0.4829432368
outer loop
vertex -63.50888824 38.28255463 339.4371033
vertex -63.99962616 38.12514496 339.1153259
vertex -63.17708588 38.05901337 339.0568848

endloop
endfacet
facet normal -0.03503261134 -0.8701353073 0.4915661514
outer loop
vertex -63.17708588 38.05901337 339.0568848
vertex -63.99962616 38.12514496 339.1153259
vertex -63.67475128 37.89821625 338.7367859

endloop
endfacet
facet normal -0.02479611523 -0.8773219585 0.4792613685
outer loop
vertex -63.17708588 38.05901337 339.0568848
vertex -63.67475128 37.89821625 338.7367859
vertex -62.852211 37.84481049 338.6815796

endloop
endfacet
facet normal -0.0236016009 -0.8709170818 0.490862906
outer loop
vertex -62.852211 37.84481049 338.6815796
vertex -63.67475128 37.89821625 338.7367859
vertex -63.36519623 37.67809296 338.3611145

endloop
endfacet
facet normal -0.009567424655 -0.8807381392 0.4735069275
outer loop
vertex -62.852211 37.84481049 338.6815796
vertex -63.36519623 37.67809296 338.3611145
vertex -62.547966 37.64780426 338.3212891

endloop
endfacet
facet normal -0.009718886577 -0.8819205165 0.4712980688
outer loop
vertex -62.547966 37.64780426 338.3212891
vertex -63.36519623 37.67809296 338.3611145
vertex -63.07016754 37.47455597 337.9863281

endloop
endfacet
facet normal 0.0007761861198 -0.8887521029 0.4583874941
outer loop
vertex -62.54795074 37.64780426 338.3213196
vertex -63.07015228 37.47457123 337.9863281
vertex -62.26189423 37.47115326 337.9783325

endloop
endfacet
facet normal 0.0005933310022 -0.8964298964 0.4431852102
outer loop
vertex -62.26189423 37.47115326 337.9783325
vertex -63.07015228 37.47457123 337.9863281
vertex -62.78385162 37.29247284 337.6176147

endloop
endfacet
facet normal -0.004996244796 -0.8931833506 0.4496650398
outer loop
vertex -62.26189423 37.47115326 337.9783325
vertex -62.78385162 37.29247284 337.6176147
vertex -61.99160004 37.3113327 337.6638794

endloop
endfacet
facet normal -0.002786461962 -0.9084255099 0.418037504
outer loop
vertex -61.99160004 37.3113327 337.6638794
vertex -62.78385162 37.29247284 337.6176147
vertex -62.49686432 37.12960052 337.2655945

endloop
endfacet
facet normal -0.01600786671 -0.9018275142 0.4317995906
outer loop
vertex -61.99160004 37.3113327 337.6638794
vertex -62.49686432 37.12960052 337.2655945
vertex -61.70166779 37.16165924 337.36203

endloop
endfacet
facet normal -0.0113901915 -0.9169839621 0.3987613618
outer loop
vertex -61.70166779 37.16165924 337.36203
vertex -62.49686432 37.12960052 337.2655945
vertex -62.1811142 36.97939301 336.9291992

endloop
endfacet
facet normal -0.002372302348 -0.9206736684 0.3903259933
outer loop
vertex -61.70166779 37.16165924 337.36203
vertex -62.1811142 36.97939301 336.9291992
vertex -61.35616302 37.02249908 337.0358887

endloop
endfacet
facet normal -0.001084236312 -0.9242411852 0.3818077147
outer loop
vertex -61.35616302 37.02249908 337.0358887
vertex -62.1811142 36.97939301 336.9291992
vertex -61.82054901 36.84116364 336.5956116

endloop
endfacet
facet normal 0.02109772712 -0.9320904016 0.3616108894
outer loop
vertex -61.35614777 37.02251434 337.0359192
vertex -61.82054901 36.84119415 336.5956421
vertex -61.00128937 36.900383 336.7004089

endloop
endfacet
facet normal 0.02167303674 -0.9335042238 0.3579109013
outer loop
vertex -61.00128937 36.900383 336.7004089
vertex -61.82054901 36.84119415 336.5956421
vertex -61.4497757 36.72216034 336.2627258

endloop
endfacet
facet normal 0.01818214171 -0.9323772788 0.3610290289
outer loop
vertex -61.00128937 36.900383 336.7004089
vertex -61.4497757 36.72216034 336.2627258
vertex -60.66266632 36.78507233 336.3855591

endloop
endfacet
facet normal 0.02044581622 -0.9369497299 0.3488654494
outer loop
vertex -60.66266632 36.78507233 336.3855591
vertex -61.4497757 36.72216034 336.2627258
vertex -61.08512115 36.61148834 335.9441223

endloop
endfacet
facet normal -0.001626852667 -0.9301025271 0.3672964573
outer loop
vertex -60.66266632 36.78507233 336.3855591
vertex -61.08512115 36.61148834 335.9441223
vertex -60.32061005 36.66704559 336.0881958

endloop
endfacet
facet normal 0.001942407922 -0.9364472032 0.3508031964
outer loop
vertex -60.32061005 36.66704559 336.0881958
vertex -61.08512115 36.61148834 335.9441223
vertex -60.71337128 36.49895477 335.6416626

endloop
endfacet
facet normal 0.01135853771 -0.9390796423 0.3435119092
outer loop
vertex -60.32061005 36.66704559 336.0881958
vertex -60.71337128 36.49895477 335.6416626
vertex -59.97605133 36.5647049 335.7970276

endloop
endfacet
facet normal 0.01418509055 -0.9432247281 0.3318520784
outer loop
vertex -59.97605133 36.5647049 335.7970276
vertex -60.71337128 36.49895477 335.6416626
vertex -60.33841705 36.40718842 335.3648071

endloop
endfacet
facet normal 0.169040814 -0.9631340504 0.2092795521
outer loop
vertex -59.97605133 36.5647049 335.7970276
vertex -60.33841705 36.40718842 335.3648071
vertex -59.69185638 36.54990387 335.4993591

endloop
endfacet
facet normal 0.1713286042 -0.9647091627 0.19995673
outer loop
vertex -59.69185638 36.54990387 335.4993591
vertex -60.33841705 36.40718842 335.3648071
vertex -60.0064621 36.41829681 335.1339722

endloop
endfacet
facet normal 0.1897701025 -0.9644370079 0.1839801669
outer loop
vertex -59.69185638 36.54990387 335.4993591
vertex -60.0064621 36.41829681 335.1339722
vertex -59.50365448 36.52602386 335.1800537

endloop
endfacet
facet normal 0.1987658441 -0.9740460515 0.1082888916
outer loop
vertex -59.50365448 36.52602386 335.1800537
vertex -60.0064621 36.41829681 335.1339722
vertex -59.76186371 36.44126129 334.891571

endloop
endfacet
facet normal 0.6276489496 -0.6908912063 -0.3587842286
outer loop
vertex -59.50365448 36.52602386 335.1800537
vertex -59.76186371 36.44126129 334.891571
vertex -59.36031342 36.96813202 334.5794678

endloop
endfacet
facet normal -0.8250678778 0.5484443903 -0.1359104812
outer loop
vertex -59.36031342 36.96813202 334.5794678
vertex -59.76186371 36.44126129 334.891571
vertex -59.36029816 36.96816254 334.5794983

endloop
endfacet
facet normal -0.1007426977 0.05037134886 0.9936365485
outer loop
vertex -65.16268921 40.05588531 340.3725891
vertex -65.16269684 40.05587006 340.3725891
vertex -65.2003479 39.35388947 340.4043579

endloop
endfacet
facet normal -0.7878363132 0.0699480772 0.6118997335
outer loop
vertex -65.2003479 39.35388947 340.4043579
vertex -65.16269684 40.05587006 340.3725891
vertex -65.56571198 39.60895538 339.9047852

endloop
endfacet
facet normal -0.7796162367 -0.5573338866 0.2856177986
outer loop
vertex -65.2003479 39.35388947 340.4043579
vertex -65.56571198 39.60895538 339.9047852
vertex -65.06004333 39.13521576 340.3606262

endloop
endfacet
facet normal -0.7925165296 -0.4263657331 0.4360388517
outer loop
vertex -65.06004333 39.13521576 340.3606262
vertex -65.56571198 39.60895538 339.9047852
vertex -65.56961823 39.4312973 339.7239685

endloop
endfacet
facet normal -0.718477428 -0.6372753978 0.2786937356
outer loop
vertex -65.06004333 39.13521576 340.3606262
vertex -65.56961823 39.4312973 339.7239685
vertex -64.87709045 38.84902191 340.1778564

endloop
endfacet
facet normal -0.7256323695 -0.5987879634 0.3389846683
outer loop
vertex -64.87709045 38.84902191 340.1778564
vertex -65.56961823 39.4312973 339.7239685
vertex -65.49453735 39.18442535 339.4486084

endloop
endfacet
facet normal -0.591781497 -0.7946133614 0.1355883777
outer loop
vertex -64.87709045 38.84902191 340.1778564
vertex -65.49453735 39.18442535 339.4486084
vertex -64.60366058 38.59052277 339.8563232

endloop
endfacet
facet normal -0.5958101153 -0.7883036137 0.1535825282
outer loop
vertex -64.60366058 38.59052277 339.8563232
vertex -65.49453735 39.18442535 339.4486084
vertex -65.25457001 38.93576813 339.103241

endloop
endfacet
facet normal -0.5496566296 -0.8300210238 0.09456571937
outer loop
vertex -64.60366058 38.59052277 339.8563232
vertex -65.25457001 38.93576813 339.103241
vertex -64.30740356 38.35242462 339.4884644

endloop
endfacet
facet normal -0.5476120114 -0.8322905898 0.0861017108
outer loop
vertex -64.30740356 38.35242462 339.4884644
vertex -65.25457001 38.93576813 339.103241
vertex -64.95623779 38.70090485 338.7303772

endloop
endfacet
facet normal -0.5352302194 -0.8417019248 0.07117812335
outer loop
vertex -64.30740356 38.35242462 339.4884644
vertex -64.95623779 38.70090485 338.7303772
vertex -63.99962616 38.12516022 339.1153564

endloop
endfacet
facet normal -0.5328299999 -0.8439600468 0.06183693185
outer loop
vertex -63.99962616 38.12516022 339.1153564
vertex -64.95623779 38.70090485 338.7303772
vertex -64.647789 38.47878265 338.3566284

endloop
endfacet
facet normal -0.5274983644 -0.8477398753 0.05552064627
outer loop
vertex -63.99962616 38.12516022 339.1153564
vertex -64.647789 38.47878265 338.3566284
vertex -63.67475128 37.89821625 338.7367859

endloop
endfacet
facet normal -0.5310914516 -0.8444378972 0.06975989789
outer loop
vertex -63.67475128 37.89821625 338.7367859
vertex -64.647789 38.47878265 338.3566284
vertex -64.34738159 38.25952911 337.989624

endloop
endfacet
facet normal -0.5260494947 -0.8480827212 0.0634636879
outer loop
vertex -63.67475128 37.89821625 338.7367859
vertex -64.34738922 38.25952911 337.989624
vertex -63.36519623 37.67809296 338.3611145

endloop
endfacet
facet normal -0.5311897397 -0.8429729939 0.08505169302
outer loop
vertex -63.36519623 37.67809296 338.3611145
vertex -64.34738922 38.25952911 337.989624
vertex -64.07802582 38.05269623 337.6219482

endloop
endfacet
facet normal -0.5131390095 -0.8561370373 0.06097273901
outer loop
vertex -63.36519623 37.67809296 338.3611145
vertex -64.07802582 38.05269623 337.6219482
vertex -63.07016754 37.47457123 337.9863281

endloop
endfacet
facet normal -0.5128126144 -0.856428802 0.05960680917
outer loop
vertex -63.07016754 37.47457123 337.9863281
vertex -64.07802582 38.05269623 337.6219482
vertex -63.80745697 37.86373138 337.2346802

endloop
endfacet
facet normal -0.4984561503 -0.8659638166 0.04059811309
outer loop
vertex -63.07015228 37.47457123 337.9863586
vertex -63.80745697 37.86373138 337.2347107
vertex -62.78385162 37.2924881 337.6176453

endloop
endfacet
facet normal -0.4924001992 -0.8701802492 0.01812018268
outer loop
vertex -62.78385162 37.2924881 337.6176453
vertex -63.80745697 37.86373138 337.2347107
vertex -63.52198029 37.69385529 336.8343811

endloop
endfacet
facet normal -0.4851240814 -0.8743979335 0.009102070704
outer loop
vertex -62.78385162 37.2924881 337.6176453
vertex -63.52198029 37.69385529 336.8343811
vertex -62.49686432 37.12960052 337.265625

endloop
endfacet
facet normal -0.4697092474 -0.8820236325 -0.03751839325
outer loop
vertex -62.49686432 37.12960052 337.265625
vertex -63.52198029 37.69385529 336.8343811
vertex -63.19660187 37.53783417 336.4287415

endloop
endfacet
facet normal -0.4654482305 -0.8840740919 -0.04208135977
outer loop
vertex -62.49686432 37.12960052 337.265625
vertex -63.19660187 37.53783417 336.4287415
vertex -62.1811142 36.97937775 336.9291992

endloop
endfacet
facet normal -0.447360456 -0.8902415037 -0.08566559851
outer loop
vertex -62.1811142 36.97937775 336.9291992
vertex -63.19660187 37.53783417 336.4287415
vertex -62.82659149 37.38890839 336.0441284

endloop
endfacet
facet normal -0.4339272976 -0.8956081271 -0.09794548154
outer loop
vertex -62.1811142 36.97937775 336.9291992
vertex -62.82659149 37.38890839 336.0441284
vertex -61.82054901 36.84116364 336.5956116

endloop
endfacet
facet normal -0.42810902 -0.8970131278 -0.1099551246
outer loop
vertex -61.82054901 36.84116364 336.5956116
vertex -62.82659149 37.38890839 336.0441284
vertex -62.44655609 37.24855804 335.7094421

endloop
endfacet
facet normal -0.4062298238 -0.9046317935 -0.1289134771
outer loop
vertex -61.82053375 36.84119415 336.5956421
vertex -62.44654083 37.24858856 335.7094727
vertex -61.4497757 36.72214508 336.2627258

endloop
endfacet
facet normal -0.4029656649 -0.9051594734 -0.1352964342
outer loop
vertex -61.4497757 36.72214508 336.2627258
vertex -62.44654083 37.24858856 335.7094727
vertex -62.05649567 37.12258148 335.3907776

endloop
endfacet
facet normal -0.3974623382 -0.9068881869 -0.1399196237
outer loop
vertex -61.4497757 36.72214508 336.2627258
vertex -62.05649567 37.12258148 335.3907776
vertex -61.08512115 36.61148834 335.9440918

endloop
endfacet
facet normal -0.3883256018 -0.9080448747 -0.1570281386
outer loop
vertex -61.08512115 36.61148834 335.9440918
vertex -62.05649567 37.12258148 335.3907776
vertex -61.64466095 37.00148773 335.0725708

endloop
endfacet
facet normal -0.3966310322 -0.9055442214 -0.150576815
outer loop
vertex -61.08512115 36.61148834 335.9440918
vertex -61.64466095 37.00148773 335.0725708
vertex -60.71337128 36.49895477 335.6416321

endloop
endfacet
facet normal -0.3844646811 -0.9070150256 -0.1717863679
outer loop
vertex -60.71337128 36.49895477 335.6416321
vertex -61.64466095 37.00148773 335.0725708
vertex -61.21308136 36.8766098 334.7660217

endloop
endfacet
facet normal -0.361828059 -0.9132189751 -0.1873808205
outer loop
vertex -60.71337128 36.49895477 335.6416321
vertex -61.21308136 36.8766098 334.7660217
vertex -60.33840179 36.40718842 335.3648071

endloop
endfacet
facet normal -0.3550791442 -0.9137087464 -0.1976233125
outer loop
vertex -60.33840179 36.40718842 335.3648071
vertex -61.21308136 36.8766098 334.7660217
vertex -60.77523041 36.76105499 334.5135803

endloop
endfacet
facet normal -0.1766593754 -0.9377071261 -0.2991603911
outer loop
vertex -60.33840179 36.40718842 335.3648071
vertex -60.77523041 36.76105499 334.5135803
vertex -60.0064621 36.41829681 335.1339722

endloop
endfacet
facet normal -0.1869568378 -0.9394059777 -0.2873387337
outer loop
vertex -60.0064621 36.41829681 335.1339722
vertex -60.77523041 36.76105499 334.5135803
vertex -60.366539 36.7148819 334.3986206

endloop
endfacet
facet normal -0.1933710724 -0.9391160607 -0.2840221822
outer loop
vertex -60.00644684 36.41831207 335.1339722
vertex -60.36655426 36.71486664 334.3985901
vertex -59.76186371 36.44126129 334.891571

endloop
endfacet
facet normal -0.1607844383 -0.9333941936 -0.3208172619
outer loop
vertex -59.76186371 36.44126129 334.891571
vertex -60.36655426 36.71486664 334.3985901
vertex -60.03394318 36.68227386 334.3267212

endloop
endfacet
facet normal 0.492061466 -0.6896492243 -0.5312808752
outer loop
vertex -59.76186371 36.44126129 334.891571
vertex -60.03394318 36.68227386 334.3267212
vertex -59.36029816 36.96816254 334.5795288

endloop
endfacet
facet normal 0.3905755281 -0.9205708504 0
outer loop
vertex -59.36029816 36.96816254 334.5795288
vertex -60.03394318 36.68227386 334.3267212
vertex -59.36029816 36.96816254 334.5794983

endloop
endfacet
endsolid
