solid 
facet normal -0.331269 -0.943536 0
outer loop
vertex -97.15200043 62.39507294 227.858963
vertex -97.15200043 62.39507294 227.8589478
vertex -96.85142517 62.28954315 227.7667084

endloop
endfacet
facet normal -0.4221641719 -0.7120559812 -0.5610291958
outer loop
vertex -96.85142517 62.28954315 227.7667084
vertex -97.15200043 62.39507294 227.8589478
vertex -96.95069122 62.45807648 227.6275024

endloop
endfacet
facet normal 0.3906849325 -0.438441664 -0.8094035387
outer loop
vertex -96.85142517 62.28954315 227.7667084
vertex -96.95069122 62.45807648 227.6275024
vertex -96.65048981 62.39138031 227.8085327

endloop
endfacet
facet normal 0.3821964264 -0.4580681026 -0.8025580645
outer loop
vertex -96.65048981 62.39138031 227.8085327
vertex -96.95069122 62.45807648 227.6275024
vertex -96.77376556 62.59626007 227.6328888

endloop
endfacet
facet normal 0.4973262548 -0.3724837303 -0.783532083
outer loop
vertex -96.65048981 62.39138031 227.8085327
vertex -96.77376556 62.59626007 227.6328888
vertex -96.44441223 62.53723907 227.8699951

endloop
endfacet
facet normal 0.4899483919 -0.3926667869 -0.7783079147
outer loop
vertex -96.44441223 62.53723907 227.8699951
vertex -96.77376556 62.59626007 227.6328888
vertex -96.58047485 62.76107025 227.6714172

endloop
endfacet
facet normal 0.5741865039 -0.3196643591 -0.7537403703
outer loop
vertex -96.44441223 62.53723907 227.8699951
vertex -96.58047485 62.76107025 227.6714172
vertex -96.25291443 62.71649933 227.9398499

endloop
endfacet
facet normal 0.5775160789 -0.308319062 -0.7559196353
outer loop
vertex -96.25291443 62.71649933 227.9398499
vertex -96.58047485 62.76107025 227.6714172
vertex -96.39162445 62.94391632 227.7411194

endloop
endfacet
facet normal 0.5513612032 -0.3323784173 -0.7651963234
outer loop
vertex -96.25291443 62.71649933 227.9398499
vertex -96.39162445 62.94391632 227.7411194
vertex -96.07273102 62.88573456 227.99617

endloop
endfacet
facet normal 0.5630701184 -0.2960697114 -0.7715534568
outer loop
vertex -96.07273102 62.88573456 227.99617
vertex -96.39162445 62.94391632 227.7411194
vertex -96.21376801 63.11762238 227.8042603

endloop
endfacet
facet normal 0.5134438276 -0.3398346007 -0.787964344
outer loop
vertex -96.07273102 62.88573456 227.99617
vertex -96.21376801 63.11762238 227.8042603
vertex -95.88808441 63.04880524 228.0461578

endloop
endfacet
facet normal 0.525824964 -0.3039604425 -0.7944281697
outer loop
vertex -95.88808441 63.04880524 228.0461578
vertex -96.21376801 63.11762238 227.8042603
vertex -96.03083038 63.28525543 227.8612061

endloop
endfacet
facet normal 0.4844280779 -0.338531971 -0.8066756725
outer loop
vertex -95.88808441 63.04880524 228.0461578
vertex -96.03083038 63.28525543 227.8612061
vertex -95.68766022 63.2154007 228.0966034

endloop
endfacet
facet normal 0.4929056764 -0.3135512173 -0.8116216063
outer loop
vertex -95.68766022 63.2154007 228.0966034
vertex -96.03083038 63.28525543 227.8612061
vertex -95.83149719 63.45511627 227.9166412

endloop
endfacet
facet normal 0.4671107233 -0.3342798352 -0.8185747266
outer loop
vertex -95.68766022 63.2154007 228.0966187
vertex -95.83149719 63.45513153 227.9166412
vertex -95.47679901 63.38472748 228.1477966

endloop
endfacet
facet normal 0.4723958671 -0.3184258342 -0.8218559027
outer loop
vertex -95.47679901 63.38472748 228.1477966
vertex -95.83149719 63.45513153 227.9166412
vertex -95.62168121 63.62619781 227.9709625

endloop
endfacet
facet normal 0.4464385808 -0.3386788964 -0.8282446265
outer loop
vertex -95.47679901 63.38472748 228.1477966
vertex -95.62168121 63.62619781 227.9709625
vertex -95.27474213 63.54409027 228.1915436

endloop
endfacet
facet normal 0.4538966119 -0.3181336522 -0.8323274255
outer loop
vertex -95.27474213 63.54409027 228.1915436
vertex -95.62168121 63.62619781 227.9709625
vertex -95.42080688 63.78768158 228.0187836

endloop
endfacet
facet normal 0.4058029652 -0.3541822135 -0.8425430059
outer loop
vertex -95.27472687 63.54410553 228.1915436
vertex -95.42079926 63.7877121 228.0187836
vertex -95.08863831 63.68689728 228.2211456

endloop
endfacet
facet normal 0.421754241 -0.316183418 -0.8497949839
outer loop
vertex -95.08863831 63.68689728 228.2211456
vertex -95.42079926 63.7877121 228.0187836
vertex -95.23545074 63.93512726 228.0559235

endloop
endfacet
facet normal 0.3367023766 -0.3755837381 -0.8634630442
outer loop
vertex -95.08863831 63.68689728 228.2211456
vertex -95.23545074 63.93512726 228.0559235
vertex -94.90900421 63.81604767 228.2350159

endloop
endfacet
facet normal 0.3630100489 -0.320635587 -0.8748809099
outer loop
vertex -94.90900421 63.81604767 228.2350159
vertex -95.23545074 63.93512726 228.0559235
vertex -95.05511475 64.07155609 228.0807495

endloop
endfacet
facet normal 0.2563327253 -0.3879419863 -0.8853217363
outer loop
vertex -94.90900421 63.81604767 228.2350159
vertex -95.05511475 64.07155609 228.0807495
vertex -94.72154236 63.93650055 228.2365112

endloop
endfacet
facet normal 0.2844772637 -0.3338350952 -0.8986805677
outer loop
vertex -94.72154236 63.93650055 228.2365112
vertex -95.05511475 64.07155609 228.0807495
vertex -94.86537933 64.19963837 228.0932312

endloop
endfacet
facet normal 0.1971065104 -0.383535713 -0.9022468328
outer loop
vertex -94.72154236 63.93650055 228.2365112
vertex -94.86537933 64.19963837 228.0932312
vertex -94.52302551 64.04961395 228.2317963

endloop
endfacet
facet normal 0.2163408101 -0.3486121595 -0.9119573832
outer loop
vertex -94.52302551 64.04961395 228.2317963
vertex -94.86537933 64.19963837 228.0932312
vertex -94.66438293 64.31798553 228.0956726

endloop
endfacet
facet normal 0.1658735722 -0.3752485514 -0.9119619131
outer loop
vertex -94.52301788 64.04964447 228.2318268
vertex -94.66437531 64.31801605 228.0956879
vertex -94.32674408 64.15364838 228.2247314

endloop
endfacet
facet normal 0.1769634038 -0.3566722572 -0.9173161387
outer loop
vertex -94.32674408 64.15364838 228.2247314
vertex -94.66437531 64.31801605 228.0956879
vertex -94.4667511 64.42458344 228.0923767

endloop
endfacet
facet normal 0.1313439906 -0.3795133233 -0.915815711
outer loop
vertex -94.32674408 64.15364838 228.2247314
vertex -94.4667511 64.42458344 228.0923767
vertex -94.14413452 64.24663544 228.2123871

endloop
endfacet
facet normal 0.1450302601 -0.3588982522 -0.9220402241
outer loop
vertex -94.14413452 64.24663544 228.2123871
vertex -94.4667511 64.42458344 228.0923767
vertex -94.28214264 64.52046967 228.0840912

endloop
endfacet
facet normal 0.07461949438 -0.391993165 -0.9169368744
outer loop
vertex -94.14413452 64.24663544 228.2123871
vertex -94.28214264 64.52046967 228.0840912
vertex -93.96969604 64.32970428 228.1910706

endloop
endfacet
facet normal 0.09518553317 -0.3637413383 -0.9266240001
outer loop
vertex -93.96969604 64.32970428 228.1910706
vertex -94.28214264 64.52046967 228.0840912
vertex -94.10325623 64.60832977 228.0679779

endloop
endfacet
facet normal 0.0307939034 -0.3915272057 -0.9196510911
outer loop
vertex -93.96969604 64.32970428 228.1910706
vertex -94.10325623 64.60832977 228.0679779
vertex -93.78468323 64.40962982 228.1632385

endloop
endfacet
facet normal 0.04525480419 -0.3719389141 -0.9271533489
outer loop
vertex -93.78468323 64.40962982 228.1632385
vertex -94.10325623 64.60832977 228.0679779
vertex -93.91441345 64.69075775 228.0441284

endloop
endfacet
facet normal 0.1490317881 -0.3266613483 -0.9333176017
outer loop
vertex -93.78468323 64.40962982 228.1632385
vertex -93.91441345 64.69075775 228.0441284
vertex -93.60375214 64.50887299 228.1573944

endloop
endfacet
facet normal 0.1472261846 -0.3293379545 -0.9326633811
outer loop
vertex -93.60375214 64.50887299 228.1573944
vertex -93.91441345 64.69075775 228.0441284
vertex -93.7258606 64.76580048 228.0473938

endloop
endfacet
facet normal 0.2617218196 -0.2721058726 -0.925991416
outer loop
vertex -93.60375214 64.5089035 228.1573944
vertex -93.72585297 64.76580048 228.0473938
vertex -93.44825745 64.61406708 228.1704407

endloop
endfacet
facet normal 0.2462589294 -0.2974961996 -0.9224166274
outer loop
vertex -93.44825745 64.61406708 228.1704407
vertex -93.72585297 64.76580048 228.0473938
vertex -93.55498505 64.82146454 228.075058

endloop
endfacet
facet normal 0.8786982894 0.2716452777 -0.3925535679
outer loop
vertex -93.44825745 64.61406708 228.1704407
vertex -93.55498505 64.82146454 228.075058
vertex -93.44499969 64.87236786 228.3564758

endloop
endfacet
facet normal -nan(ind) -nan(ind) -nan(ind)
outer loop
vertex -93.44499969 64.87236786 228.3564758
vertex -93.55498505 64.82146454 228.075058
vertex -93.44499969 64.87236786 228.3564758

endloop
endfacet
facet normal 0.7477923036 -0.3738961518 0.5486423373
outer loop
vertex -97.15200043 62.39507294 227.8589478
vertex -97.15200806 62.39505768 227.8589478
vertex -96.95069122 62.45807648 227.6275024

endloop
endfacet
facet normal -0.5775941014 -0.506379962 -0.6402845979
outer loop
vertex -96.95069122 62.45807648 227.6275024
vertex -97.15200806 62.39505768 227.8589478
vertex -97.03871918 62.56006622 227.6262512

endloop
endfacet
facet normal 0.02390109934 0.008365011774 -0.9996792674
outer loop
vertex -96.95069122 62.45807648 227.6275024
vertex -97.03871918 62.56006622 227.6262512
vertex -96.77376556 62.59626007 227.6328888

endloop
endfacet
facet normal 0.02227156051 0.02026952058 -0.9995464087
outer loop
vertex -96.77376556 62.59626007 227.6328888
vertex -97.03871918 62.56006622 227.6262512
vertex -96.88208008 62.71376801 227.6328583

endloop
endfacet
facet normal 0.1104685068 0.101569064 -0.9886760712
outer loop
vertex -96.77376556 62.59626007 227.6328888
vertex -96.88208008 62.71376801 227.6328583
vertex -96.58047485 62.76107025 227.6714172

endloop
endfacet
facet normal 0.1134456471 0.08367728442 -0.9900141954
outer loop
vertex -96.58047485 62.76107025 227.6714172
vertex -96.88208008 62.71376801 227.6328583
vertex -96.70236969 62.88932037 227.6682892

endloop
endfacet
facet normal 0.1976387799 0.164274022 -0.966412425
outer loop
vertex -96.58047485 62.76107025 227.6714172
vertex -96.70236969 62.88932037 227.6682892
vertex -96.39162445 62.94391632 227.7411194

endloop
endfacet
facet normal 0.1957633644 0.1733432859 -0.9652091265
outer loop
vertex -96.39162445 62.94391632 227.7411194
vertex -96.70236969 62.88932037 227.6682892
vertex -96.51420593 63.07419586 227.7396545

endloop
endfacet
facet normal 0.1848412901 0.163022235 -0.9691529274
outer loop
vertex -96.39162445 62.94391632 227.7411194
vertex -96.51420593 63.07419586 227.7396545
vertex -96.21376801 63.11762238 227.8042603

endloop
endfacet
facet normal 0.1799077392 0.1909378618 -0.9649746418
outer loop
vertex -96.21376801 63.11762238 227.8042603
vertex -96.51420593 63.07419586 227.7396545
vertex -96.33354187 63.25045013 227.8082123

endloop
endfacet
facet normal 0.1515484601 0.165648222 -0.9744710326
outer loop
vertex -96.21376801 63.11762238 227.8042603
vertex -96.33354187 63.25045013 227.8082123
vertex -96.03083038 63.28525543 227.8612061

endloop
endfacet
facet normal 0.1475414932 0.1935793757 -0.9699270725
outer loop
vertex -96.03083038 63.28525543 227.8612061
vertex -96.33354187 63.25045013 227.8082123
vertex -96.14733887 63.42076874 227.8705292

endloop
endfacet
facet normal 0.1237592772 0.1736194491 -0.9770055413
outer loop
vertex -96.03083038 63.28525543 227.8612061
vertex -96.14733887 63.42076874 227.8705292
vertex -95.83149719 63.45511627 227.9166412

endloop
endfacet
facet normal 0.1211108118 0.1934183538 -0.9736126065
outer loop
vertex -95.83149719 63.45511627 227.9166412
vertex -96.14733887 63.42076874 227.8705292
vertex -95.94549561 63.59247589 227.9297485

endloop
endfacet
facet normal 0.1056052074 0.1809697598 -0.9778023958
outer loop
vertex -95.83149719 63.45513153 227.9166412
vertex -95.94549561 63.59247589 227.9297485
vertex -95.62168121 63.62619781 227.9709625

endloop
endfacet
facet normal 0.1040018424 0.1936132163 -0.9755498767
outer loop
vertex -95.62168121 63.62619781 227.9709625
vertex -95.94549561 63.59247589 227.9297485
vertex -95.73422241 63.764534 227.9864197

endloop
endfacet
facet normal 0.08779431134 0.180878073 -0.9795791507
outer loop
vertex -95.62168121 63.62619781 227.9709625
vertex -95.73422241 63.764534 227.9864197
vertex -95.42080688 63.78768158 228.0187836

endloop
endfacet
facet normal 0.08627907932 0.1971781403 -0.9765636921
outer loop
vertex -95.42080688 63.78768158 228.0187836
vertex -95.73422241 63.764534 227.9864197
vertex -95.53131866 63.92725372 228.0372009

endloop
endfacet
facet normal 0.05748736113 0.175334543 -0.9828290939
outer loop
vertex -95.42079926 63.7877121 228.0187836
vertex -95.53131104 63.92726898 228.0372162
vertex -95.23545074 63.93512726 228.0559235

endloop
endfacet
facet normal 0.056345772 0.2048456669 -0.977171123
outer loop
vertex -95.23545074 63.93512726 228.0559235
vertex -95.53131104 63.92726898 228.0372162
vertex -95.34129333 64.07735443 228.0796356

endloop
endfacet
facet normal 0.007274283096 0.1697107553 -0.9854670763
outer loop
vertex -95.23545074 63.93512726 228.0559235
vertex -95.34129333 64.07735443 228.0796356
vertex -95.05511475 64.07155609 228.0807495

endloop
endfacet
facet normal 0.008112931624 0.2127134502 -0.9770809412
outer loop
vertex -95.05511475 64.07155609 228.0807495
vertex -95.34129333 64.07735443 228.0796356
vertex -95.15289307 64.2179184 228.1118011

endloop
endfacet
facet normal -0.05248116702 0.1735781729 -0.9834207296
outer loop
vertex -95.05511475 64.07155609 228.0807495
vertex -95.15289307 64.2179184 228.1118011
vertex -94.86537933 64.19963837 228.0932312

endloop
endfacet
facet normal -0.0491572693 0.2171917856 -0.9748904109
outer loop
vertex -94.86537933 64.19963837 228.0932312
vertex -95.15289307 64.2179184 228.1118011
vertex -94.95370483 64.3503952 228.1312714

endloop
endfacet
facet normal -0.0991070345 0.1884757131 -0.9770643711
outer loop
vertex -94.86537933 64.19963837 228.0932312
vertex -94.95370483 64.3503952 228.1312714
vertex -94.66438293 64.31798553 228.0956726

endloop
endfacet
facet normal -0.0951686576 0.2174379081 -0.9714235067
outer loop
vertex -94.66438293 64.31798553 228.0956726
vertex -94.95370483 64.3503952 228.1312714
vertex -94.74554443 64.47170258 228.138031

endloop
endfacet
facet normal -0.1250666976 0.2017473429 -0.971419692
outer loop
vertex -94.66437531 64.31801605 228.0956879
vertex -94.7455368 64.47173309 228.1380615
vertex -94.4667511 64.42458344 228.0923767

endloop
endfacet
facet normal -0.1219652891 0.217228353 -0.9684711099
outer loop
vertex -94.4667511 64.42458344 228.0923767
vertex -94.7455368 64.47173309 228.1380615
vertex -94.54386139 64.57979584 228.1369019

endloop
endfacet
facet normal -0.1491276771 0.2034987956 -0.9676513672
outer loop
vertex -94.4667511 64.42458344 228.0923767
vertex -94.54386139 64.57979584 228.1369019
vertex -94.28214264 64.52046967 228.0840912

endloop
endfacet
facet normal -0.1447264254 0.2202423364 -0.9646489024
outer loop
vertex -94.28214264 64.52046967 228.0840912
vertex -94.54386139 64.57979584 228.1369019
vertex -94.35430908 64.67742157 228.1307526

endloop
endfacet
facet normal -0.1852707863 0.2007987052 -0.9619535208
outer loop
vertex -94.28214264 64.52046967 228.0840912
vertex -94.35430908 64.67742157 228.1307526
vertex -94.10325623 64.60832977 228.0679779

endloop
endfacet
facet normal -0.1779935956 0.2238585353 -0.9582304955
outer loop
vertex -94.10325623 64.60832977 228.0679779
vertex -94.35430908 64.67742157 228.1307526
vertex -94.16740417 64.76796722 228.1171875

endloop
endfacet
facet normal -0.2118581384 0.2091494501 -0.9546583891
outer loop
vertex -94.10325623 64.60832977 228.0679779
vertex -94.16740417 64.76796722 228.1171875
vertex -93.91441345 64.69075775 228.0441284

endloop
endfacet
facet normal -0.2059779763 0.2259977907 -0.9521018863
outer loop
vertex -93.91441345 64.69075775 228.0441284
vertex -94.16740417 64.76796722 228.1171875
vertex -93.97238159 64.85186005 228.0949097

endloop
endfacet
facet normal -0.09068192542 0.2695646584 -0.9587031603
outer loop
vertex -93.91441345 64.69075775 228.0441284
vertex -93.97238159 64.85186005 228.0949097
vertex -93.7258606 64.76580048 228.0473938

endloop
endfacet
facet normal -0.09136240184 0.2678456604 -0.959120214
outer loop
vertex -93.7258606 64.76580048 228.0473938
vertex -93.97238159 64.85186005 228.0949097
vertex -93.78151703 64.91313934 228.0938416

endloop
endfacet
facet normal 0.04989206046 0.3174717128 -0.9469543099
outer loop
vertex -93.72585297 64.76580048 228.0473938
vertex -93.78152466 64.91313934 228.0938568
vertex -93.55498505 64.82146454 228.075058

endloop
endfacet
facet normal 0.02999013104 0.2713780403 -0.9620054364
outer loop
vertex -93.55498505 64.82146454 228.075058
vertex -93.78152466 64.91313934 228.0938568
vertex -93.61076355 64.94695282 228.1087189

endloop
endfacet
facet normal 0.795910418 0.459509939 -0.3941792548
outer loop
vertex -93.55498505 64.82146454 228.075058
vertex -93.61076355 64.94695282 228.1087189
vertex -93.44499969 64.87236786 228.3564758

endloop
endfacet
facet normal -0.8383550048 -0.2437871695 0.4875743389
outer loop
vertex -93.44499969 64.87236786 228.3564758
vertex -93.61076355 64.94695282 228.1087189
vertex -93.44499969 64.87233734 228.3564606

endloop
endfacet
facet normal -0.8640654683 0.4989162683 -0.06688351929
outer loop
vertex -97.15200806 62.39505768 227.8589478
vertex -97.15200043 62.39507294 227.858963
vertex -97.03871918 62.56006622 227.6262512

endloop
endfacet
facet normal -0.7239635587 -0.3452706337 -0.5972144008
outer loop
vertex -97.03871918 62.56006622 227.6262512
vertex -97.15200043 62.39507294 227.858963
vertex -97.12440491 62.63550568 227.6865082

endloop
endfacet
facet normal -0.3095871508 0.3534491062 -0.8827397823
outer loop
vertex -97.03871918 62.56006622 227.6262512
vertex -97.12440491 62.63550568 227.6865082
vertex -96.88208008 62.71376801 227.6328583

endloop
endfacet
facet normal -0.3123354316 0.3662002087 -0.8765523434
outer loop
vertex -96.88208008 62.71376801 227.6328583
vertex -97.12440491 62.63550568 227.6865082
vertex -96.98804474 62.79903412 227.7062378

endloop
endfacet
facet normal -0.2516717613 0.4323841631 -0.865855217
outer loop
vertex -96.88208008 62.71376801 227.6328583
vertex -96.98804474 62.79903412 227.7062378
vertex -96.70236969 62.88932037 227.6682892

endloop
endfacet
facet normal -0.247825861 0.4164941013 -0.8747085333
outer loop
vertex -96.70236969 62.88932037 227.6682892
vertex -96.98804474 62.79903412 227.7062378
vertex -96.82276154 62.98236847 227.7467041

endloop
endfacet
facet normal -0.1679574698 0.4991029203 -0.850109756
outer loop
vertex -96.70236969 62.88932037 227.6682892
vertex -96.82276154 62.98236847 227.7467041
vertex -96.51420593 63.07419586 227.7396545

endloop
endfacet
facet normal -0.1701132059 0.5067267418 -0.8451564908
outer loop
vertex -96.51420593 63.07419586 227.7396545
vertex -96.82276154 62.98236847 227.7467041
vertex -96.63447571 63.16867828 227.8205109

endloop
endfacet
facet normal -0.1718147993 0.5050994754 -0.8457860947
outer loop
vertex -96.51420593 63.07419586 227.7396545
vertex -96.63447571 63.16867828 227.8205109
vertex -96.33354187 63.25045013 227.8082123

endloop
endfacet
facet normal -0.1774624288 0.5282026529 -0.8303668499
outer loop
vertex -96.33354187 63.25045013 227.8082123
vertex -96.63447571 63.16867828 227.8205109
vertex -96.44877625 63.34680939 227.8941345

endloop
endfacet
facet normal -0.1918483078 0.515340209 -0.8352356553
outer loop
vertex -96.33354187 63.25045013 227.8082123
vertex -96.44877625 63.34680939 227.8941345
vertex -96.14733887 63.42076874 227.8705292

endloop
endfacet
facet normal -0.1962362677 0.5381968021 -0.819655776
outer loop
vertex -96.14733887 63.42076874 227.8705292
vertex -96.44877625 63.34680939 227.8941345
vertex -96.25709534 63.51906586 227.9613495

endloop
endfacet
facet normal -0.20795618 0.5283517838 -0.8231638074
outer loop
vertex -96.14733887 63.42076874 227.8705292
vertex -96.25709534 63.51906586 227.9613495
vertex -95.94549561 63.59247589 227.9297485

endloop
endfacet
facet normal -0.2106132656 0.54447788 -0.8119025826
outer loop
vertex -95.94549561 63.59247589 227.9297485
vertex -96.25709534 63.51906586 227.9613495
vertex -96.05117035 63.69210052 228.0239716

endloop
endfacet
facet normal -0.2193124145 0.5374896526 -0.8142523766
outer loop
vertex -95.94549561 63.59247589 227.9297485
vertex -96.05116272 63.69210052 228.0239716
vertex -95.73422241 63.764534 227.9864197

endloop
endfacet
facet normal -0.2208389789 0.548050642 -0.8067656159
outer loop
vertex -95.73422241 63.764534 227.9864197
vertex -96.05116272 63.69210052 228.0239716
vertex -95.83731842 63.86486053 228.0827942

endloop
endfacet
facet normal -0.230734989 0.5402630568 -0.8092448115
outer loop
vertex -95.73422241 63.764534 227.9864197
vertex -95.83731842 63.86486053 228.0827942
vertex -95.53131866 63.92725372 228.0372009

endloop
endfacet
facet normal -0.232041806 0.5535442829 -0.7998408079
outer loop
vertex -95.53131866 63.92725372 228.0372009
vertex -95.83731842 63.86486053 228.0827942
vertex -95.6309433 64.02849579 228.1361694

endloop
endfacet
facet normal -0.2481921762 0.5412884355 -0.8033726215
outer loop
vertex -95.53131104 63.92726898 228.0372162
vertex -95.6309433 64.02849579 228.1362
vertex -95.34129333 64.07735443 228.0796356

endloop
endfacet
facet normal -0.2489403635 0.5655638576 -0.7862353921
outer loop
vertex -95.34129333 64.07735443 228.0796356
vertex -95.6309433 64.02849579 228.1362
vertex -95.43383789 64.18050385 228.183136

endloop
endfacet
facet normal -0.2736901939 0.5477485657 -0.7906105518
outer loop
vertex -95.34129333 64.07735443 228.0796356
vertex -95.43383789 64.18050385 228.183136
vertex -95.15289307 64.2179184 228.1118011

endloop
endfacet
facet normal -0.2720461488 0.5826889873 -0.7658096552
outer loop
vertex -95.15289307 64.2179184 228.1118011
vertex -95.43383789 64.18050385 228.183136
vertex -95.23400116 64.32411957 228.2214203

endloop
endfacet
facet normal -0.3002224267 0.5644199252 -0.7689580917
outer loop
vertex -95.15289307 64.2179184 228.1118011
vertex -95.23400116 64.32411957 228.2214203
vertex -94.95370483 64.3503952 228.1312714

endloop
endfacet
facet normal -0.295473367 0.5992488265 -0.7440405488
outer loop
vertex -94.95370483 64.3503952 228.1312714
vertex -95.23400116 64.32411957 228.2214203
vertex -95.02201843 64.4597702 228.2464905

endloop
endfacet
facet normal -0.3176013231 0.5865137577 -0.7450710535
outer loop
vertex -94.95370483 64.3503952 228.1312714
vertex -95.02201843 64.4597702 228.2464905
vertex -94.74554443 64.47170258 228.138031

endloop
endfacet
facet normal -0.3121864498 0.6094895005 -0.7287402153
outer loop
vertex -94.74554443 64.47170258 228.138031
vertex -95.02201843 64.4597702 228.2464905
vertex -94.80448914 64.58321381 228.256546

endloop
endfacet
facet normal -0.3266547024 0.601808548 -0.7287819386
outer loop
vertex -94.7455368 64.47173309 228.1380615
vertex -94.80447388 64.58324432 228.2565613
vertex -94.54386139 64.57979584 228.1369019

endloop
endfacet
facet normal -0.3226006329 0.6140751243 -0.72030586
outer loop
vertex -94.54386139 64.57979584 228.1369019
vertex -94.80447388 64.58324432 228.2565613
vertex -94.59751129 64.69243622 228.256958

endloop
endfacet
facet normal -0.3361037672 0.6072395444 -0.7199267149
outer loop
vertex -94.54386139 64.57979584 228.1369019
vertex -94.59751129 64.69243622 228.256958
vertex -94.35430908 64.67742157 228.1307526

endloop
endfacet
facet normal -0.3303855062 0.6212345362 -0.7105723619
outer loop
vertex -94.35430908 64.67742157 228.1307526
vertex -94.59751129 64.69243622 228.256958
vertex -94.40158844 64.79122162 228.2522278

endloop
endfacet
facet normal -0.3482843339 0.6126392484 -0.7094865441
outer loop
vertex -94.35430908 64.67742157 228.1307526
vertex -94.40158844 64.79122162 228.2522278
vertex -94.16740417 64.76796722 228.1171875

endloop
endfacet
facet normal -0.3394076526 0.6313179135 -0.6973092556
outer loop
vertex -94.16740417 64.76796722 228.1171875
vertex -94.40158844 64.79122162 228.2522278
vertex -94.20489502 64.8837204 228.2402344

endloop
endfacet
facet normal -0.3492739201 0.62704283 -0.6962937713
outer loop
vertex -94.16740417 64.76796722 228.1171875
vertex -94.20489502 64.8837204 228.2402344
vertex -93.97238159 64.85186005 228.0949097

endloop
endfacet
facet normal -0.3423228264 0.6399073005 -0.6879925728
outer loop
vertex -93.97238159 64.85186005 228.0949097
vertex -94.20489502 64.8837204 228.2402344
vertex -94.00246429 64.96865082 228.2185059

endloop
endfacet
facet normal -0.2225438058 0.680989325 -0.6976588964
outer loop
vertex -93.97238159 64.85186005 228.0949097
vertex -94.00246429 64.96865082 228.2185059
vertex -93.78151703 64.91313934 228.0938416

endloop
endfacet
facet normal -0.2232027203 0.680018723 -0.6983945966
outer loop
vertex -93.78151703 64.91313934 228.0938416
vertex -94.00246429 64.96865082 228.2185059
vertex -93.81137085 65.0200119 228.2074432

endloop
endfacet
facet normal -0.08119256049 0.7151632905 -0.6942256689
outer loop
vertex -93.78152466 64.91313934 228.0938568
vertex -93.81137085 65.0200119 228.2074432
vertex -93.61076355 64.94695282 228.1087189

endloop
endfacet
facet normal -0.1088301241 0.6804332733 -0.7246837616
outer loop
vertex -93.61076355 64.94695282 228.1087189
vertex -93.81137085 65.0200119 228.2074432
vertex -93.64546204 65.03978729 228.2010956

endloop
endfacet
facet normal 0.7406150699 0.5923834443 -0.317129612
outer loop
vertex -93.61076355 64.94695282 228.1087189
vertex -93.64546204 65.03978729 228.2010956
vertex -93.44499969 64.87233734 228.3564606

endloop
endfacet
facet normal 0.7513709068 0.4666767716 -0.466534704
outer loop
vertex -93.44499969 64.87233734 228.3564606
vertex -93.64546204 65.03978729 228.2010956
vertex -93.44499969 64.87236786 228.3564911

endloop
endfacet
facet normal -nan(ind) -nan(ind) -nan(ind)
outer loop
vertex -97.15200043 62.39507294 227.858963
vertex -97.15200043 62.39507294 227.858963
vertex -97.12440491 62.63550568 227.6865082

endloop
endfacet
facet normal -0.8492990136 -0.239842087 -0.4702839255
outer loop
vertex -97.12440491 62.63550568 227.6865082
vertex -97.15200043 62.39507294 227.858963
vertex -97.20016479 62.67815399 227.8015747

endloop
endfacet
facet normal -0.5832418799 0.557608366 -0.5906791687
outer loop
vertex -97.12440491 62.63550568 227.6865082
vertex -97.20016479 62.67815399 227.8015747
vertex -96.98804474 62.79903412 227.7062378

endloop
endfacet
facet normal -0.5826995969 0.5523798466 -0.5961020589
outer loop
vertex -96.98804474 62.79903412 227.7062378
vertex -97.20016479 62.67815399 227.8015747
vertex -97.08279419 62.84644318 227.8427887

endloop
endfacet
facet normal -0.5349999666 0.6110916138 -0.5833884478
outer loop
vertex -96.98804474 62.79903412 227.7062378
vertex -97.08279419 62.84644318 227.8427887
vertex -96.82276154 62.98236847 227.7467041

endloop
endfacet
facet normal -0.5336150527 0.59829247 -0.5977466702
outer loop
vertex -96.82276154 62.98236847 227.7467041
vertex -97.08279419 62.84644318 227.8427887
vertex -96.9315033 63.03408051 227.8955383

endloop
endfacet
facet normal -0.4542525113 0.6848054528 -0.5698211789
outer loop
vertex -96.82276154 62.98236847 227.7467041
vertex -96.9315033 63.03408051 227.8955383
vertex -96.63447571 63.16867828 227.8205109

endloop
endfacet
facet normal -0.4549399614 0.6904560924 -0.5624056458
outer loop
vertex -96.63447571 63.16867828 227.8205109
vertex -96.9315033 63.03408051 227.8955383
vertex -96.74237061 63.22122955 227.9723053

endloop
endfacet
facet normal -0.4473978579 0.6976723671 -0.5595430136
outer loop
vertex -96.63447571 63.16867828 227.8205109
vertex -96.74237061 63.22122955 227.9723053
vertex -96.44877625 63.34680939 227.8941345

endloop
endfacet
facet normal -0.4485946894 0.7149121761 -0.5363425612
outer loop
vertex -96.44877625 63.34680939 227.8941345
vertex -96.74237061 63.22122955 227.9723053
vertex -96.54991913 63.400383 228.0501404

endloop
endfacet
facet normal -0.4516147673 0.7122277021 -0.5373786688
outer loop
vertex -96.44877625 63.34680939 227.8941345
vertex -96.54991913 63.400383 228.0501404
vertex -96.25709534 63.51906586 227.9613495

endloop
endfacet
facet normal -0.4514745474 0.7292651534 -0.5141429901
outer loop
vertex -96.25709534 63.51906586 227.9613495
vertex -96.54991913 63.400383 228.0501404
vertex -96.35115051 63.57370758 228.1214447

endloop
endfacet
facet normal -0.4542396963 0.726954639 -0.5149788857
outer loop
vertex -96.25709534 63.51906586 227.9613495
vertex -96.35115051 63.57370758 228.1214447
vertex -96.05117035 63.69210052 228.0239716

endloop
endfacet
facet normal -0.4535486996 0.738804698 -0.4984587729
outer loop
vertex -96.05117035 63.69210052 228.0239716
vertex -96.35115051 63.57370758 228.1214447
vertex -96.13996887 63.74747467 228.1868439

endloop
endfacet
facet normal -0.4571324289 0.7359071374 -0.4994703233
outer loop
vertex -96.05116272 63.69210052 228.0239716
vertex -96.1399765 63.74747467 228.1868439
vertex -95.83731842 63.86486053 228.0827942

endloop
endfacet
facet normal -0.4564020634 0.7434981465 -0.4887818396
outer loop
vertex -95.83731842 63.86486053 228.0827942
vertex -96.1399765 63.74747467 228.1868439
vertex -95.9227066 63.92063141 228.2473602

endloop
endfacet
facet normal -0.4603748918 0.7403808832 -0.4897867441
outer loop
vertex -95.83731842 63.86486053 228.0827942
vertex -95.9227066 63.92063141 228.2473602
vertex -95.6309433 64.02849579 228.1361694

endloop
endfacet
facet normal -0.4587951899 0.7502351403 -0.476082176
outer loop
vertex -95.6309433 64.02849579 228.1361694
vertex -95.9227066 63.92063141 228.2473602
vertex -95.71179199 64.08480072 228.3028107

endloop
endfacet
facet normal -0.4626833498 0.7472432256 -0.4770238698
outer loop
vertex -95.6309433 64.02849579 228.1362
vertex -95.71178436 64.08480072 228.3028107
vertex -95.43383789 64.18050385 228.183136

endloop
endfacet
facet normal -0.4582141936 0.7651350498 -0.4523362815
outer loop
vertex -95.43383789 64.18050385 228.183136
vertex -95.71178436 64.08480072 228.3028107
vertex -95.50592804 64.23787689 228.3532104

endloop
endfacet
facet normal -0.4614506662 0.7628341317 -0.4529320002
outer loop
vertex -95.43383789 64.18050385 228.183136
vertex -95.50592804 64.23787689 228.3532104
vertex -95.23400116 64.32411957 228.2214203

endloop
endfacet
facet normal -0.4524404407 0.7877435088 -0.4180403352
outer loop
vertex -95.23400116 64.32411957 228.2214203
vertex -95.50592804 64.23787689 228.3532104
vertex -95.29245758 64.38314056 228.3959045

endloop
endfacet
facet normal -0.453992039 0.7867523432 -0.4182248712
outer loop
vertex -95.23400116 64.32411957 228.2214203
vertex -95.29245758 64.38314056 228.3959045
vertex -95.02201843 64.4597702 228.2464905

endloop
endfacet
facet normal -0.4419651031 0.8105717301 -0.3842399418
outer loop
vertex -95.02201843 64.4597702 228.2464905
vertex -95.29245758 64.38314056 228.3959045
vertex -95.06562042 64.5205307 228.4248199

endloop
endfacet
facet normal -0.4421586692 0.8104615808 -0.384249717
outer loop
vertex -95.02201843 64.4597702 228.2464905
vertex -95.06562042 64.5205307 228.4248199
vertex -94.80448914 64.58321381 228.256546

endloop
endfacet
facet normal -0.4319522977 0.8257434964 -0.362718612
outer loop
vertex -94.80448914 64.58321381 228.256546
vertex -95.06562042 64.5205307 228.4248199
vertex -94.83744049 64.64519501 228.4368896

endloop
endfacet
facet normal -0.4343093634 0.8245089054 -0.3627126217
outer loop
vertex -94.80447388 64.58324432 228.2565613
vertex -94.83743286 64.64522552 228.4369202
vertex -94.59751129 64.69243622 228.256958

endloop
endfacet
facet normal -0.4274045825 0.8330261707 -0.3512729704
outer loop
vertex -94.59751129 64.69243622 228.256958
vertex -94.83743286 64.64522552 228.4369202
vertex -94.6244278 64.75502777 228.4381409

endloop
endfacet
facet normal -0.4282757938 0.8325878978 -0.3512509465
outer loop
vertex -94.59751129 64.69243622 228.256958
vertex -94.6244278 64.75502777 228.4381409
vertex -94.40158844 64.79122162 228.2522278

endloop
endfacet
facet normal -0.4194888473 0.8421424627 -0.3388586044
outer loop
vertex -94.40158844 64.79122162 228.2522278
vertex -94.6244278 64.75502777 228.4381409
vertex -94.42132568 64.85454559 228.4340363

endloop
endfacet
facet normal -0.4172106385 0.843221724 -0.3389871418
outer loop
vertex -94.40158844 64.79122162 228.2522278
vertex -94.42132568 64.85454559 228.4340363
vertex -94.20489502 64.8837204 228.2402344

endloop
endfacet
facet normal -0.4041776061 0.8559334874 -0.3225187361
outer loop
vertex -94.20489502 64.8837204 228.2402344
vertex -94.42132568 64.85454559 228.4340363
vertex -94.21399689 64.94811249 228.4225311

endloop
endfacet
facet normal -0.3953994513 0.8596900105 -0.323407352
outer loop
vertex -94.20489502 64.8837204 228.2402344
vertex -94.21399689 64.94811249 228.4225311
vertex -94.00246429 64.96865082 228.2185059

endloop
endfacet
facet normal -0.3857418895 0.868051827 -0.3125526905
outer loop
vertex -94.00246429 64.96865082 228.2185059
vertex -94.21399689 64.94811249 228.4225311
vertex -94.00365448 65.03362274 228.4004211

endloop
endfacet
facet normal -0.2629369199 0.9080552459 -0.3260365725
outer loop
vertex -94.00246429 64.96865082 228.2185059
vertex -94.00365448 65.03362274 228.4004211
vertex -93.81137085 65.0200119 228.2074432

endloop
endfacet
facet normal -0.2639508247 0.9074137807 -0.3270016313
outer loop
vertex -93.81137085 65.0200119 228.2074432
vertex -94.00365448 65.03362274 228.4004211
vertex -93.8143158 65.07946014 228.3747864

endloop
endfacet
facet normal -0.1241489425 0.9343250394 -0.3341014981
outer loop
vertex -93.81137085 65.0200119 228.2074432
vertex -93.8143158 65.07946014 228.3747864
vertex -93.64546204 65.03978729 228.2010956

endloop
endfacet
facet normal -0.1467074603 0.9238089323 -0.3536297977
outer loop
vertex -93.64546204 65.03978729 228.2010956
vertex -93.8143158 65.07946014 228.3747864
vertex -93.65644836 65.09224701 228.3426971

endloop
endfacet
facet normal 0.7131235003 0.6735969782 -0.1942217052
outer loop
vertex -93.64546204 65.03978729 228.2010956
vertex -93.65644836 65.09224701 228.3426971
vertex -93.44499969 64.87236786 228.3564911

endloop
endfacet
facet normal -0.3767570555 -0.4143072069 -0.8284948468
outer loop
vertex -93.44499969 64.87236786 228.3564911
vertex -93.65644836 65.09224701 228.3426971
vertex -93.44499969 64.87239838 228.3564758

endloop
endfacet
facet normal -nan(ind) -nan(ind) -nan(ind)
outer loop
vertex -97.15200043 62.39507294 227.858963
vertex -97.15200043 62.39507294 227.858963
vertex -97.20016479 62.67815399 227.8015747

endloop
endfacet
facet normal -0.9509384036 -0.2081903368 -0.2288514376
outer loop
vertex -97.20016479 62.67815399 227.8015747
vertex -97.15200043 62.39507294 227.858963
vertex -97.23002625 62.65688324 227.9450073

endloop
endfacet
facet normal -0.8079822063 0.5835178494 -0.08168057352
outer loop
vertex -97.20016479 62.67815399 227.8015747
vertex -97.23002625 62.65688324 227.9450073
vertex -97.08279419 62.84644318 227.8427887

endloop
endfacet
facet normal -0.8034463525 0.5924965143 -0.05849669874
outer loop
vertex -97.08279419 62.84644318 227.8427887
vertex -97.23002625 62.65688324 227.9450073
vertex -97.11717224 62.81624603 228.0091095

endloop
endfacet
facet normal -0.7715914845 0.6345758438 -0.04427247494
outer loop
vertex -97.08279419 62.84644318 227.8427887
vertex -97.11717224 62.81624603 228.0091095
vertex -96.9315033 63.03408051 227.8955383

endloop
endfacet
facet normal -0.7750893235 0.6289148331 -0.06084895134
outer loop
vertex -96.9315033 63.03408051 227.8955383
vertex -97.11717224 62.81624603 228.0091095
vertex -96.97270203 63.00106049 228.0790405

endloop
endfacet
facet normal -0.6973944306 0.7161517739 -0.0277076792
outer loop
vertex -96.9315033 63.03408051 227.8955383
vertex -96.97270203 63.00106049 228.0790405
vertex -96.74237061 63.22122955 227.9723053

endloop
endfacet
facet normal -0.6953607202 0.7184191346 -0.01864186488
outer loop
vertex -96.74237061 63.22122955 227.9723053
vertex -96.97270203 63.00106049 228.0790405
vertex -96.78200531 63.18769073 228.1582031

endloop
endfacet
facet normal -0.6786658764 0.7343456745 -0.01220905781
outer loop
vertex -96.74237061 63.22122955 227.9723053
vertex -96.78200531 63.18769073 228.1582031
vertex -96.54991913 63.400383 228.0501404

endloop
endfacet
facet normal -0.6717678308 0.740611136 0.01493800431
outer loop
vertex -96.54991913 63.400383 228.0501404
vertex -96.78200531 63.18769073 228.1582031
vertex -96.58344269 63.36620331 228.2371674

endloop
endfacet
facet normal -0.6608968377 0.7502450943 0.01864719391
outer loop
vertex -96.54991913 63.400383 228.0501404
vertex -96.58344269 63.36620331 228.2371674
vertex -96.35115051 63.57370758 228.1214447

endloop
endfacet
facet normal -0.6528592706 0.7561222315 0.04531949013
outer loop
vertex -96.35115051 63.57370758 228.1214447
vertex -96.58344269 63.36620331 228.2371674
vertex -96.37850189 63.53882599 228.3094025

endloop
endfacet
facet normal -0.6434958577 0.7639347911 0.04813189805
outer loop
vertex -96.35115051 63.57370758 228.1214447
vertex -96.37850189 63.53882599 228.3094025
vertex -96.13996887 63.74747467 228.1868439

endloop
endfacet
facet normal -0.6372787356 0.7677404881 0.0667109862
outer loop
vertex -96.13996887 63.74747467 228.1868439
vertex -96.37850189 63.53882599 228.3094025
vertex -96.16281128 63.71213531 228.3753357

endloop
endfacet
facet normal -0.6332999468 0.7709266543 0.06784726679
outer loop
vertex -96.1399765 63.74747467 228.1868439
vertex -96.16280365 63.71213531 228.3753204
vertex -95.9227066 63.92063141 228.2473602

endloop
endfacet
facet normal -0.6289457083 0.773329258 0.07993201911
outer loop
vertex -95.9227066 63.92063141 228.2473602
vertex -96.16280365 63.71213531 228.3753204
vertex -95.94246674 63.88504791 228.436142

endloop
endfacet
facet normal -0.6253682375 0.7761315703 0.08083469421
outer loop
vertex -95.9227066 63.92063141 228.2473602
vertex -95.94246674 63.88504791 228.436142
vertex -95.71179199 64.08480072 228.3028107

endloop
endfacet
facet normal -0.619125843 0.779346168 0.09645070881
outer loop
vertex -95.71179199 64.08480072 228.3028107
vertex -95.94246674 63.88504791 228.436142
vertex -95.72755432 64.04888153 228.4918671

endloop
endfacet
facet normal -0.6092444062 0.7868177891 0.09868611395
outer loop
vertex -95.71178436 64.08480072 228.3028107
vertex -95.72754669 64.04888153 228.4918823
vertex -95.50592804 64.23787689 228.3532104

endloop
endfacet
facet normal -0.5968689919 0.7923769355 0.1260404736
outer loop
vertex -95.50592804 64.23787689 228.3532104
vertex -95.72754669 64.04888153 228.4918823
vertex -95.51452637 64.20128632 228.5425262

endloop
endfacet
facet normal -0.5754461288 0.8074532151 0.129927367
outer loop
vertex -95.50592804 64.23787689 228.3532104
vertex -95.51452637 64.20128632 228.5425262
vertex -95.29245758 64.38314056 228.3959045

endloop
endfacet
facet normal -0.5558873415 0.8141368628 0.1678402871
outer loop
vertex -95.29245758 64.38314056 228.3959045
vertex -95.51452637 64.20128632 228.5425262
vertex -95.29047394 64.34548187 228.585144

endloop
endfacet
facet normal -0.5262880921 0.8328810334 0.1712601185
outer loop
vertex -95.29245758 64.38314056 228.3959045
vertex -95.29047394 64.34548187 228.585144
vertex -95.06562042 64.5205307 228.4248199

endloop
endfacet
facet normal -0.5048279166 0.8380365372 0.2069868296
outer loop
vertex -95.06562042 64.5205307 228.4248199
vertex -95.29047394 64.34548187 228.585144
vertex -95.0526123 64.48177338 228.6134644

endloop
endfacet
facet normal -0.4773978889 0.8536404371 0.2083012313
outer loop
vertex -95.06562042 64.5205307 228.4248199
vertex -95.0526123 64.48177338 228.6134644
vertex -94.83744049 64.64519501 228.4368896

endloop
endfacet
facet normal -0.4611873031 0.8567292094 0.2309140116
outer loop
vertex -94.83744049 64.64519501 228.4368896
vertex -95.0526123 64.48177338 228.6134644
vertex -94.8168335 64.60564423 228.6247864

endloop
endfacet
facet normal -0.4468534589 0.8642822504 0.2309506387
outer loop
vertex -94.83743286 64.64522552 228.4369202
vertex -94.81682587 64.60567474 228.6248016
vertex -94.6244278 64.75502777 228.4381409

endloop
endfacet
facet normal -0.4367248118 0.8661794066 0.2429085821
outer loop
vertex -94.6244278 64.75502777 228.4381409
vertex -94.81682587 64.60567474 228.6248016
vertex -94.59947968 64.71508026 228.6254425

endloop
endfacet
facet normal -0.4229115248 0.8731077313 0.2425463498
outer loop
vertex -94.6244278 64.75502777 228.4381409
vertex -94.59947968 64.71508026 228.6254425
vertex -94.42132568 64.85454559 228.4340363

endloop
endfacet
facet normal -0.4104613364 0.8752871156 0.2557225525
outer loop
vertex -94.42132568 64.85454559 228.4340363
vertex -94.59947968 64.71508026 228.6254425
vertex -94.39135742 64.81414032 228.6204376

endloop
endfacet
facet normal -0.3860685527 0.8867310882 0.2542814612
outer loop
vertex -94.42132568 64.85454559 228.4340363
vertex -94.39135742 64.81414032 228.6204376
vertex -94.21399689 64.94811249 228.4225311

endloop
endfacet
facet normal -0.3693127036 0.8889702559 0.2708135545
outer loop
vertex -94.21399689 64.94811249 228.4225311
vertex -94.39135742 64.81414032 228.6204376
vertex -94.17708588 64.90706635 228.607605

endloop
endfacet
facet normal -0.3385934234 0.9020796418 0.2675943673
outer loop
vertex -94.21399689 64.94811249 228.4225311
vertex -94.17708588 64.90706635 228.607605
vertex -94.00365448 65.03362274 228.4004211

endloop
endfacet
facet normal -0.3263928592 0.9032651186 0.2785314023
outer loop
vertex -94.00365448 65.03362274 228.4004211
vertex -94.17708588 64.90706635 228.607605
vertex -93.96173096 64.99221039 228.583847

endloop
endfacet
facet normal -0.1941812336 0.9464148879 0.2580553293
outer loop
vertex -94.00365448 65.03362274 228.4004211
vertex -93.96173096 64.99221039 228.583847
vertex -93.8143158 65.07946014 228.3747864

endloop
endfacet
facet normal -0.1971967071 0.9463733435 0.2559116483
outer loop
vertex -93.8143158 65.07946014 228.3747864
vertex -93.96173096 64.99221039 228.583847
vertex -93.77628326 65.04167938 228.543808

endloop
endfacet
facet normal -0.03311866894 0.9737735987 0.2250958532
outer loop
vertex -93.8143158 65.07946014 228.3747864
vertex -93.77628326 65.04167938 228.5438232
vertex -93.65644836 65.09224701 228.3426971

endloop
endfacet
facet normal -0.09906373173 0.9774062634 0.1867178082
outer loop
vertex -93.65644836 65.09224701 228.3426971
vertex -93.77628326 65.04167938 228.5438232
vertex -93.62962341 65.06615448 228.493515

endloop
endfacet
facet normal 0.72097826 0.6929072738 -0.008357775398
outer loop
vertex -93.65644836 65.09224701 228.3426971
vertex -93.62962341 65.06615448 228.493515
vertex -93.44499969 64.87239838 228.3564758

endloop
endfacet
facet normal 0.5962556005 0 0.8027946949
outer loop
vertex -93.44499969 64.87239838 228.3564758
vertex -93.62962341 65.06615448 228.493515
vertex -93.44499969 64.87236786 228.3564758

endloop
endfacet
facet normal 0.3740820885 -0.1870410442 0.9083381891
outer loop
vertex -97.15200043 62.39507294 227.858963
vertex -97.1519928 62.3950882 227.858963
vertex -97.23002625 62.65688324 227.9450073

endloop
endfacet
facet normal -0.9595510364 -0.2811444104 -0.01481626928
outer loop
vertex -97.23002625 62.65688324 227.9450073
vertex -97.1519928 62.3950882 227.858963
vertex -97.2118988 62.5885849 228.0670013

endloop
endfacet
facet normal -0.8225573897 0.4353073537 0.3659329414
outer loop
vertex -97.23002625 62.65688324 227.9450073
vertex -97.2118988 62.5885849 228.0670013
vertex -97.11717224 62.81624603 228.0091095

endloop
endfacet
facet normal -0.8227956891 0.4352788031 0.3654306829
outer loop
vertex -97.11717224 62.81624603 228.0091095
vertex -97.2118988 62.5885849 228.0670013
vertex -97.09690094 62.73802948 228.1479187

endloop
endfacet
facet normal -0.7924915552 0.4745267928 0.3831207454
outer loop
vertex -97.11717224 62.81624603 228.0091095
vertex -97.09690094 62.73802948 228.1479187
vertex -96.97270203 63.00106049 228.0790405

endloop
endfacet
facet normal -0.7994334102 0.474098295 0.3689673841
outer loop
vertex -96.97270203 63.00106049 228.0790405
vertex -97.09690094 62.73802948 228.1479187
vertex -96.95205688 62.9156723 228.23349

endloop
endfacet
facet normal -0.7195611596 0.5625271797 0.4071792364
outer loop
vertex -96.97270203 63.00106049 228.0790405
vertex -96.95205688 62.9156723 228.23349
vertex -96.78200531 63.18769073 228.1582031

endloop
endfacet
facet normal -0.7152602077 0.5620831251 0.415289551
outer loop
vertex -96.78200531 63.18769073 228.1582031
vertex -96.95205688 62.9156723 228.23349
vertex -96.75974274 63.10095978 228.3139343

endloop
endfacet
facet normal -0.6929240823 0.5832483172 0.4238839447
outer loop
vertex -96.78200531 63.18769073 228.1582031
vertex -96.75974274 63.10095978 228.3139343
vertex -96.58344269 63.36620331 228.2371674

endloop
endfacet
facet normal -0.6792179942 0.5811792016 0.4482116401
outer loop
vertex -96.58344269 63.36620331 228.2371674
vertex -96.75974274 63.10095978 228.3139343
vertex -96.5573349 63.27777863 228.3913879

endloop
endfacet
facet normal -0.6621814966 0.5961998105 0.4539398849
outer loop
vertex -96.58344269 63.36620331 228.2371674
vertex -96.5573349 63.27777863 228.3913879
vertex -96.37850189 63.53882599 228.3094025

endloop
endfacet
facet normal -0.6478170156 0.5937060118 0.4773324132
outer loop
vertex -96.37850189 63.53882599 228.3094025
vertex -96.5573349 63.27777863 228.3913879
vertex -96.34873962 63.44864655 228.4619598

endloop
endfacet
facet normal -0.6336848736 0.6054582596 0.4815223217
outer loop
vertex -96.37850189 63.53882599 228.3094025
vertex -96.34873962 63.44864655 228.4619598
vertex -96.16281128 63.71213531 228.3753357

endloop
endfacet
facet normal -0.6229338646 0.6032871008 0.4979940057
outer loop
vertex -96.16281128 63.71213531 228.3753357
vertex -96.34873962 63.44864655 228.4619598
vertex -96.13039398 63.62073517 228.5266113

endloop
endfacet
facet normal -0.6158864498 0.6089995503 0.4998033643
outer loop
vertex -96.16280365 63.71213531 228.3753204
vertex -96.13039398 63.62073517 228.5266266
vertex -95.94246674 63.88504791 228.436142

endloop
endfacet
facet normal -0.6086549759 0.6074838042 0.5103945136
outer loop
vertex -95.94246674 63.88504791 228.436142
vertex -96.13039398 63.62073517 228.5266266
vertex -95.90815735 63.79299164 228.5866241

endloop
endfacet
facet normal -0.6006969213 0.6136996746 0.5123826265
outer loop
vertex -95.94246674 63.88504791 228.436142
vertex -95.90815735 63.79299164 228.5866241
vertex -95.72755432 64.04888153 228.4918671

endloop
endfacet
facet normal -0.5909730196 0.6118002534 0.5257863998
outer loop
vertex -95.72755432 64.04888153 228.4918671
vertex -95.90815735 63.79299164 228.5866241
vertex -95.6908493 63.95595551 228.6412506

endloop
endfacet
facet normal -0.5732074976 0.6251614094 0.5297229886
outer loop
vertex -95.72754669 64.04888153 228.4918823
vertex -95.69084167 63.95597076 228.6412506
vertex -95.51452637 64.20128632 228.5425262

endloop
endfacet
facet normal -0.5552528501 0.6214911938 0.5526688695
outer loop
vertex -95.51452637 64.20128632 228.5425262
vertex -95.69084167 63.95597076 228.6412506
vertex -95.47395325 64.10662079 228.689743

endloop
endfacet
facet normal -0.5214189291 0.6451087594 0.5585310459
outer loop
vertex -95.51452637 64.20128632 228.5425262
vertex -95.47395325 64.10662079 228.689743
vertex -95.29047394 64.34548187 228.585144

endloop
endfacet
facet normal -0.4946454167 0.6382651925 0.5898672342
outer loop
vertex -95.29047394 64.34548187 228.585144
vertex -95.47395325 64.10662079 228.689743
vertex -95.24472809 64.24803925 228.7289429

endloop
endfacet
facet normal -0.4518902004 0.6651312113 0.5944710374
outer loop
vertex -95.29047394 64.34548187 228.585144
vertex -95.24472809 64.24803925 228.7289429
vertex -95.0526123 64.48177338 228.6134644

endloop
endfacet
facet normal -0.4240009785 0.6566575766 0.6237178445
outer loop
vertex -95.0526123 64.48177338 228.6134644
vertex -95.24472809 64.24803925 228.7289429
vertex -95.00193787 64.38140106 228.7535858

endloop
endfacet
facet normal -0.3862456083 0.6780290604 0.6253725886
outer loop
vertex -95.0526123 64.48177338 228.6134644
vertex -95.00193787 64.38140106 228.7535858
vertex -94.8168335 64.60564423 228.6247864

endloop
endfacet
facet normal -0.3664668798 0.6720786691 0.6434378624
outer loop
vertex -94.8168335 64.60564423 228.6247864
vertex -95.00193787 64.38140106 228.7535858
vertex -94.76302338 64.50331879 228.7623138

endloop
endfacet
facet normal -0.3456973135 0.6829969883 0.6434349418
outer loop
vertex -94.81682587 64.60567474 228.6248016
vertex -94.76301575 64.5033493 228.7623291
vertex -94.59947968 64.71508026 228.6254425

endloop
endfacet
facet normal -0.333925277 0.6799596548 0.6528007388
outer loop
vertex -94.59947968 64.71508026 228.6254425
vertex -94.76301575 64.5033493 228.7623291
vertex -94.54386902 64.61174774 228.7615204

endloop
endfacet
facet normal -0.3129473329 0.6904441118 0.6521893144
outer loop
vertex -94.59947968 64.71508026 228.6254425
vertex -94.54386902 64.61174774 228.7615204
vertex -94.39135742 64.81414032 228.6204376

endloop
endfacet
facet normal -0.2991209924 0.6870170236 0.6622192264
outer loop
vertex -94.39135742 64.81414032 228.6204376
vertex -94.54386902 64.61174774 228.7615204
vertex -94.3338089 64.70964813 228.754837

endloop
endfacet
facet normal -0.2652811408 0.702840209 0.6600314975
outer loop
vertex -94.39135742 64.81414032 228.6204376
vertex -94.3338089 64.70964813 228.754837
vertex -94.17708588 64.90706635 228.607605

endloop
endfacet
facet normal -0.2468449771 0.6975972652 0.6726259589
outer loop
vertex -94.17708588 64.90706635 228.607605
vertex -94.3338089 64.70964813 228.754837
vertex -94.11736298 64.80077362 228.7397614

endloop
endfacet
facet normal -0.2085217685 0.7139322758 0.6684455276
outer loop
vertex -94.17708588 64.90706635 228.607605
vertex -94.11736298 64.80077362 228.7397614
vertex -93.96173096 64.99221039 228.583847

endloop
endfacet
facet normal -0.1950081438 0.7098048925 0.6768670082
outer loop
vertex -93.96173096 64.99221039 228.583847
vertex -94.11736298 64.80077362 228.7397614
vertex -93.90061188 64.88497162 228.713913

endloop
endfacet
facet normal -0.06090095267 0.7558971643 0.6518517137
outer loop
vertex -93.96173096 64.99221039 228.583847
vertex -93.90061188 64.88497162 228.713913
vertex -93.77628326 65.04167938 228.543808

endloop
endfacet
facet normal -0.06533686072 0.7572466135 0.6498527527
outer loop
vertex -93.77628326 65.04167938 228.543808
vertex -93.90061188 64.88497162 228.713913
vertex -93.71941376 64.94359589 228.6638184

endloop
endfacet
facet normal 0.07708524168 0.789542377 0.6088354588
outer loop
vertex -93.77628326 65.04167938 228.5438232
vertex -93.71941376 64.94359589 228.6638184
vertex -93.62962341 65.06615448 228.493515

endloop
endfacet
facet normal 0.03008252569 0.8037151694 0.5942533016
outer loop
vertex -93.62962341 65.06615448 228.493515
vertex -93.71941376 64.94359589 228.6638184
vertex -93.57936096 64.98213959 228.604599

endloop
endfacet
facet normal 0.7629190087 0.6326115727 0.1332560331
outer loop
vertex -93.62962341 65.06615448 228.493515
vertex -93.57936096 64.98213959 228.604599
vertex -93.44499969 64.87236786 228.3564758

endloop
endfacet
facet normal -0.6822059155 0.4563841224 -0.5712343454
outer loop
vertex -93.44499969 64.87236786 228.3564758
vertex -93.57936096 64.98213959 228.604599
vertex -93.44499207 64.87239838 228.3564911

endloop
endfacet
facet normal -0.955266118 -0.2957475483 -0
outer loop
vertex -97.1519928 62.3950882 227.858963
vertex -97.1519928 62.3950882 227.8589783
vertex -97.2118988 62.5885849 228.0670013

endloop
endfacet
facet normal -0.8951108456 -0.4243043363 0.1369029731
outer loop
vertex -97.2118988 62.5885849 228.0670013
vertex -97.1519928 62.3950882 227.8589783
vertex -97.15966034 62.50102997 228.1371918

endloop
endfacet
facet normal -0.692972362 0.1516024619 0.7048446536
outer loop
vertex -97.2118988 62.5885849 228.0670013
vertex -97.15966034 62.50102997 228.1371918
vertex -97.09690094 62.73802948 228.1479187

endloop
endfacet
facet normal -0.7206814289 0.1603146046 0.6744757295
outer loop
vertex -97.09690094 62.73802948 228.1479187
vertex -97.15966034 62.50102997 228.1371918
vertex -97.04154968 62.64507294 228.2291565

endloop
endfacet
facet normal -0.6770217419 0.2126215994 0.704580605
outer loop
vertex -97.09690094 62.73802948 228.1479187
vertex -97.04154968 62.64507294 228.2291565
vertex -96.95205688 62.9156723 228.23349

endloop
endfacet
facet normal -0.686453402 0.2159041911 0.6943826079
outer loop
vertex -96.95205688 62.9156723 228.23349
vertex -97.04154968 62.64507294 228.2291565
vertex -96.89115906 62.81435394 228.3251953

endloop
endfacet
facet normal -0.6025542021 0.305259645 0.7373906374
outer loop
vertex -96.95205688 62.9156723 228.23349
vertex -96.89115906 62.81435394 228.3251953
vertex -96.75974274 63.10095978 228.3139343

endloop
endfacet
facet normal -0.5965889096 0.3027547002 0.7432504892
outer loop
vertex -96.75974274 63.10095978 228.3139343
vertex -96.89115906 62.81435394 228.3251953
vertex -96.69761658 62.99802399 228.4057312

endloop
endfacet
facet normal -0.5724198222 0.3256203234 0.7525336742
outer loop
vertex -96.75974274 63.10095978 228.3139343
vertex -96.69761658 62.99802399 228.4057312
vertex -96.5573349 63.27777863 228.3913879

endloop
endfacet
facet normal -0.5538175106 0.3171805441 0.7698588371
outer loop
vertex -96.5573349 63.27777863 228.3913879
vertex -96.69761658 62.99802399 228.4057312
vertex -96.49409485 63.17279816 228.4801331

endloop
endfacet
facet normal -0.5355519652 0.333322823 0.7759381533
outer loop
vertex -96.5573349 63.27777863 228.3913879
vertex -96.49409485 63.17279816 228.4801331
vertex -96.34873962 63.44864655 228.4619598

endloop
endfacet
facet normal -0.5165854096 0.3244130909 0.7923986316
outer loop
vertex -96.34873962 63.44864655 228.4619598
vertex -96.49409485 63.17279816 228.4801331
vertex -96.28468323 63.34156036 228.5475616

endloop
endfacet
facet normal -0.5015175343 0.336966455 0.7968273759
outer loop
vertex -96.34873962 63.44864655 228.4619598
vertex -96.28468323 63.34156036 228.5475616
vertex -96.13039398 63.62073517 228.5266113

endloop
endfacet
facet normal -0.4877765775 0.3302184939 0.8081024885
outer loop
vertex -96.13039398 63.62073517 228.5266113
vertex -96.28468323 63.34156036 228.5475616
vertex -96.06578064 63.51218414 228.6099701

endloop
endfacet
facet normal -0.479709357 0.3366793692 0.8102628589
outer loop
vertex -96.13039398 63.62073517 228.5266266
vertex -96.06578064 63.51218414 228.6099854
vertex -95.90815735 63.79299164 228.5866241

endloop
endfacet
facet normal -0.4706292748 0.33217749 0.8174143434
outer loop
vertex -95.90815735 63.79299164 228.5866241
vertex -96.06578064 63.51218414 228.6099854
vertex -95.84303284 63.68366241 228.6685486

endloop
endfacet
facet normal -0.4608980417 0.3397837281 0.8198292851
outer loop
vertex -95.90815735 63.79299164 228.5866241
vertex -95.84303284 63.68366241 228.6685486
vertex -95.6908493 63.95595551 228.6412506

endloop
endfacet
facet normal -0.4491722286 0.3341116905 0.8286215663
outer loop
vertex -95.6908493 63.95595551 228.6412506
vertex -95.84303284 63.68366241 228.6685486
vertex -95.62512207 63.84568024 228.721344

endloop
endfacet
facet normal -0.4289571047 0.3494288325 0.8330037594
outer loop
vertex -95.69084167 63.95597076 228.6412506
vertex -95.62510681 63.8456955 228.7213593
vertex -95.47395325 64.10662079 228.689743

endloop
endfacet
facet normal -0.4075314701 0.3388344646 0.8480030894
outer loop
vertex -95.47395325 64.10662079 228.689743
vertex -95.62510681 63.8456955 228.7213593
vertex -95.40779114 63.99422455 228.766449

endloop
endfacet
facet normal -0.3709571064 0.3645328283 0.8541116118
outer loop
vertex -95.47395325 64.10662079 228.689743
vertex -95.40779114 63.99422455 228.766449
vertex -95.24472809 64.24803925 228.7289429

endloop
endfacet
facet normal -0.3405933678 0.3478879631 0.8734816313
outer loop
vertex -95.24472809 64.24803925 228.7289429
vertex -95.40779114 63.99422455 228.766449
vertex -95.1787796 64.13234711 228.8007355

endloop
endfacet
facet normal -0.2957901955 0.3762519062 0.8780333996
outer loop
vertex -95.24472809 64.24803925 228.7289429
vertex -95.1787796 64.13234711 228.8007355
vertex -95.00193787 64.38140106 228.7535858

endloop
endfacet
facet normal -0.2648948431 0.3576229215 0.8955091238
outer loop
vertex -95.00193787 64.38140106 228.7535858
vertex -95.1787796 64.13234711 228.8007355
vertex -94.93689728 64.26226044 228.8204041

endloop
endfacet
facet normal -0.226426214 0.3794931769 0.8970597386
outer loop
vertex -95.00193787 64.38140106 228.7535858
vertex -94.93689728 64.26226044 228.8204041
vertex -94.76302338 64.50331879 228.7623138

endloop
endfacet
facet normal -0.2054248899 0.3668195009 0.9073280096
outer loop
vertex -94.76302338 64.50331879 228.7623138
vertex -94.93689728 64.26226044 228.8204041
vertex -94.69900513 64.38185883 228.8259125

endloop
endfacet
facet normal -0.1837395132 0.3782310486 0.9072932601
outer loop
vertex -94.76301575 64.5033493 228.7623291
vertex -94.6989975 64.38188934 228.8259277
vertex -94.54386902 64.61174774 228.7615204

endloop
endfacet
facet normal -0.1715581417 0.371458292 0.9124617577
outer loop
vertex -94.54386902 64.61174774 228.7615204
vertex -94.6989975 64.38188934 228.8259277
vertex -94.48042297 64.4890976 228.8233795

endloop
endfacet
facet normal -0.1493116468 0.3826139867 0.91176337
outer loop
vertex -94.54386902 64.61174774 228.7615204
vertex -94.48042297 64.4890976 228.8233795
vertex -94.3338089 64.70964813 228.754837

endloop
endfacet
facet normal -0.1357816011 0.3752266467 0.9169341922
outer loop
vertex -94.3338089 64.70964813 228.754837
vertex -94.48042297 64.4890976 228.8233795
vertex -94.27120972 64.58568573 228.8148346

endloop
endfacet
facet normal -0.1011532471 0.3915699124 0.9145714641
outer loop
vertex -94.3338089 64.70964813 228.754837
vertex -94.27120972 64.58568573 228.8148346
vertex -94.11736298 64.80077362 228.7397614

endloop
endfacet
facet normal -0.08324443549 0.3809485734 0.920841217
outer loop
vertex -94.11736298 64.80077362 228.7397614
vertex -94.27120972 64.58568573 228.8148346
vertex -94.05670166 64.67464447 228.7974243

endloop
endfacet
facet normal -0.04505275562 0.3973580599 0.9165570736
outer loop
vertex -94.11736298 64.80077362 228.7397614
vertex -94.05670166 64.67464447 228.7974243
vertex -93.90061188 64.88497162 228.713913

endloop
endfacet
facet normal -0.03192611411 0.389218539 0.92059201
outer loop
vertex -93.90061188 64.88497162 228.713913
vertex -94.05670166 64.67464447 228.7974243
vertex -93.8416214 64.7576828 228.7697754

endloop
endfacet
facet normal 0.1043122932 0.4398132861 0.8920107484
outer loop
vertex -93.90061188 64.88497162 228.713913
vertex -93.8416214 64.7576828 228.7697754
vertex -93.71941376 64.94359589 228.6638184

endloop
endfacet
facet normal 0.09973891079 0.4423909783 0.8912587762
outer loop
vertex -93.71941376 64.94359589 228.6638184
vertex -93.8416214 64.7576828 228.7697754
vertex -93.66374969 64.82701874 228.7154541

endloop
endfacet
facet normal 0.2251542509 0.4824469984 0.8464930654
outer loop
vertex -93.71941376 64.94359589 228.6638184
vertex -93.66374969 64.82701874 228.7154541
vertex -93.57936096 64.98213959 228.604599

endloop
endfacet
facet normal 0.2198914886 0.4851816893 0.846313417
outer loop
vertex -93.57936096 64.98213959 228.604599
vertex -93.66374969 64.82701874 228.7154541
vertex -93.5239563 64.87441254 228.6519623

endloop
endfacet
facet normal 0.825927496 0.5202654004 0.2171813548
outer loop
vertex -93.57936096 64.98213959 228.604599
vertex -93.5239563 64.87441254 228.6519623
vertex -93.44499207 64.87239838 228.3564911

endloop
endfacet
facet normal 0.9660948515 0 0.2581874132
outer loop
vertex -93.44499207 64.87239838 228.3564911
vertex -93.5239563 64.87441254 228.6519623
vertex -93.44499207 64.87236786 228.3564911

endloop
endfacet
facet normal -0.7352561951 0.6264330745 -0.2588049769
outer loop
vertex -97.1519928 62.3950882 227.8589783
vertex -97.15200043 62.39507294 227.858963
vertex -97.15966034 62.50102997 228.1371918

endloop
endfacet
facet normal -0.7809366584 -0.5905635357 0.2034025937
outer loop
vertex -97.15966034 62.50102997 228.1371918
vertex -97.15200043 62.39507294 227.858963
vertex -97.08777618 62.41164398 228.153656

endloop
endfacet
facet normal -0.4431540668 -0.1952288896 0.8749286532
outer loop
vertex -97.15966034 62.50102997 228.1371918
vertex -97.08777618 62.41164398 228.153656
vertex -97.04154968 62.64507294 228.2291565

endloop
endfacet
facet normal -0.4956713915 -0.1768663079 0.8503106236
outer loop
vertex -97.04154968 62.64507294 228.2291565
vertex -97.08777618 62.41164398 228.153656
vertex -96.96103668 62.5470047 228.2556915

endloop
endfacet
facet normal -0.4370920658 -0.1175746322 0.8916988373
outer loop
vertex -97.04154968 62.64507294 228.2291565
vertex -96.96103668 62.5470047 228.2556915
vertex -96.89115906 62.81435394 228.3251953

endloop
endfacet
facet normal -0.448159188 -0.1133910641 0.8867332935
outer loop
vertex -96.89115906 62.81435394 228.3251953
vertex -96.96103668 62.5470047 228.2556915
vertex -96.80108643 62.70738983 228.3570404

endloop
endfacet
facet normal -0.3618545234 -0.02728777379 0.931835115
outer loop
vertex -96.89115906 62.81435394 228.3251953
vertex -96.80108643 62.70738983 228.3570404
vertex -96.69761658 62.99802399 228.4057312

endloop
endfacet
facet normal -0.3544511199 -0.03038351238 0.9345808029
outer loop
vertex -96.69761658 62.99802399 228.4057312
vertex -96.80108643 62.70738983 228.3570404
vertex -96.60675049 62.88936615 228.4366608

endloop
endfacet
facet normal -0.3345601559 -0.01155128051 0.9423035979
outer loop
vertex -96.69761658 62.99802399 228.4057312
vertex -96.60675049 62.88936615 228.4366608
vertex -96.49409485 63.17279816 228.4801331

endloop
endfacet
facet normal -0.3113622963 -0.02195797488 0.9500375986
outer loop
vertex -96.49409485 63.17279816 228.4801331
vertex -96.60675049 62.88936615 228.4366608
vertex -96.40447998 63.06201935 228.5069427

endloop
endfacet
facet normal -0.2986778319 -0.01066660415 0.9542944431
outer loop
vertex -96.49409485 63.17279816 228.4801331
vertex -96.40447998 63.06201935 228.5069427
vertex -96.28468323 63.34156036 228.5475616

endloop
endfacet
facet normal -0.2754843235 -0.02158962563 0.9610630274
outer loop
vertex -96.28468323 63.34156036 228.5475616
vertex -96.40447998 63.06201935 228.5069427
vertex -96.19667053 63.22855377 228.5702515

endloop
endfacet
facet normal -0.2649433017 -0.012754241 0.964179635
outer loop
vertex -96.28468323 63.34156036 228.5475616
vertex -96.19667053 63.22855377 228.5702515
vertex -96.06578064 63.51218414 228.6099701

endloop
endfacet
facet normal -0.248451367 -0.02095841989 0.9684176445
outer loop
vertex -96.06578064 63.51218414 228.6099701
vertex -96.19667053 63.22855377 228.5702515
vertex -95.97903442 63.3976059 228.6297455

endloop
endfacet
facet normal -0.2424847782 -0.0162962582 0.9700183272
outer loop
vertex -96.06578064 63.51218414 228.6099854
vertex -95.97903442 63.39762115 228.6297455
vertex -95.84303284 63.68366241 228.6685486

endloop
endfacet
facet normal -0.2318705618 -0.02168026939 0.972505033
outer loop
vertex -95.84303284 63.68366241 228.6685486
vertex -95.97903442 63.39762115 228.6297455
vertex -95.7569809 63.56826019 228.6864929

endloop
endfacet
facet normal -0.2243438214 -0.01577592827 0.9743824005
outer loop
vertex -95.84303284 63.68366241 228.6685486
vertex -95.7569809 63.56826019 228.6864929
vertex -95.62512207 63.84568024 228.721344

endloop
endfacet
facet normal -0.2107600719 -0.0225959383 0.9772766232
outer loop
vertex -95.62512207 63.84568024 228.721344
vertex -95.7569809 63.56826019 228.6864929
vertex -95.54004669 63.72925568 228.7369995

endloop
endfacet
facet normal -0.1957916468 -0.01121361367 0.9805814028
outer loop
vertex -95.62510681 63.8456955 228.7213593
vertex -95.54003143 63.72927094 228.7370148
vertex -95.40779114 63.99422455 228.766449

endloop
endfacet
facet normal -0.1715063304 -0.02381382138 0.9848951697
outer loop
vertex -95.40779114 63.99422455 228.766449
vertex -95.54003143 63.72927094 228.7370148
vertex -95.32524872 63.87558746 228.7779541

endloop
endfacet
facet normal -0.1451073438 -0.005009417888 0.9894032478
outer loop
vertex -95.40779114 63.99422455 228.766449
vertex -95.32524872 63.87558746 228.7779541
vertex -95.1787796 64.13234711 228.8007355

endloop
endfacet
facet normal -0.1109969169 -0.02483221702 0.9935104847
outer loop
vertex -95.1787796 64.13234711 228.8007355
vertex -95.32524872 63.87558746 228.7779541
vertex -95.10092926 64.01024628 228.8063812

endloop
endfacet
facet normal -0.07882464677 -0.004163690377 0.9968798161
outer loop
vertex -95.1787796 64.13234711 228.8007355
vertex -95.10092926 64.01024628 228.8063812
vertex -94.93689728 64.26226044 228.8204041

endloop
endfacet
facet normal -0.04517969117 -0.02616039664 0.9986363053
outer loop
vertex -94.93689728 64.26226044 228.8204041
vertex -95.10092926 64.01024628 228.8063812
vertex -94.86476898 64.13652802 228.8203735

endloop
endfacet
facet normal -0.01787337475 -0.0104959961 0.9997851253
outer loop
vertex -94.93689728 64.26226044 228.8204041
vertex -94.86476898 64.13652802 228.8203735
vertex -94.69900513 64.38185883 228.8259125

endloop
endfacet
facet normal 0.004375706427 -0.02552641742 0.9996646047
outer loop
vertex -94.69900513 64.38185883 228.8259125
vertex -94.86476898 64.13652802 228.8203735
vertex -94.63136292 64.25362396 228.8223419

endloop
endfacet
facet normal 0.02010490745 -0.01722904667 0.9996494651
outer loop
vertex -94.6989975 64.38188934 228.8259277
vertex -94.63135529 64.25365448 228.8223572
vertex -94.48042297 64.4890976 228.8233795

endloop
endfacet
facet normal 0.0322252959 -0.02499680966 0.9991679788
outer loop
vertex -94.48042297 64.4890976 228.8233795
vertex -94.63135529 64.25365448 228.8223572
vertex -94.41527557 64.35961151 228.8180389

endloop
endfacet
facet normal 0.04853250831 -0.01677218452 0.99868083
outer loop
vertex -94.48042297 64.4890976 228.8233795
vertex -94.41527557 64.35961151 228.8180389
vertex -94.27120972 64.58568573 228.8148346

endloop
endfacet
facet normal 0.06193139777 -0.02532369457 0.9977591634
outer loop
vertex -94.27120972 64.58568573 228.8148346
vertex -94.41527557 64.35961151 228.8180389
vertex -94.20919037 64.45479584 228.807663

endloop
endfacet
facet normal 0.08649160713 -0.01359873917 0.9961597919
outer loop
vertex -94.27120972 64.58568573 228.8148346
vertex -94.20919037 64.45479584 228.807663
vertex -94.05670166 64.67464447 228.7974243

endloop
endfacet
facet normal 0.1042015627 -0.02597297728 0.9942170382
outer loop
vertex -94.05670166 64.67464447 228.7974243
vertex -94.20919037 64.45479584 228.807663
vertex -93.99992371 64.54146576 228.7879944

endloop
endfacet
facet normal 0.1326607168 -0.01361703593 0.9910678864
outer loop
vertex -94.05670166 64.67464447 228.7974243
vertex -93.99992371 64.54146576 228.7879944
vertex -93.8416214 64.7576828 228.7697754

endloop
endfacet
facet normal 0.1454758495 -0.02316620573 0.9890905619
outer loop
vertex -93.8416214 64.7576828 228.7697754
vertex -93.99992371 64.54146576 228.7879944
vertex -93.78894043 64.62334442 228.7588806

endloop
endfacet
facet normal 0.2804357111 0.0321717523 0.959333539
outer loop
vertex -93.8416214 64.7576828 228.7697754
vertex -93.78894043 64.62334442 228.7588806
vertex -93.66374969 64.82701874 228.7154541

endloop
endfacet
facet normal 0.2762716711 0.03496783972 0.9604432583
outer loop
vertex -93.66374969 64.82701874 228.7154541
vertex -93.78894043 64.62334442 228.7588806
vertex -93.61349487 64.70406342 228.7054749

endloop
endfacet
facet normal 0.3882220387 0.08430755883 0.9177014232
outer loop
vertex -93.66374969 64.82701874 228.7154541
vertex -93.61349487 64.70406342 228.7054901
vertex -93.5239563 64.87441254 228.6519623

endloop
endfacet
facet normal 0.3972352743 0.07851748168 0.9143517017
outer loop
vertex -93.5239563 64.87441254 228.6519623
vertex -93.61349487 64.70406342 228.7054901
vertex -93.47330475 64.76439667 228.6394043

endloop
endfacet
facet normal 0.8926640749 0.3840566278 0.2359054387
outer loop
vertex -93.5239563 64.87441254 228.6519623
vertex -93.47330475 64.76439667 228.6394043
vertex -93.44499207 64.87236786 228.3564911

endloop
endfacet
facet normal 0.5185912848 -0.8148036003 -0.2591491342
outer loop
vertex -93.44499207 64.87236786 228.3564911
vertex -93.47330475 64.76439667 228.6394043
vertex -93.44499969 64.87236786 228.3564758

endloop
endfacet
facet normal 0 -0.9984227419 0.05614286289
outer loop
vertex -97.15200043 62.39507294 227.858963
vertex -97.1519928 62.39507294 227.858963
vertex -97.08777618 62.41164398 228.153656

endloop
endfacet
facet normal -0.6444336176 -0.742638886 0.1821884215
outer loop
vertex -97.08777618 62.41164398 228.153656
vertex -97.1519928 62.39507294 227.858963
vertex -97.00554657 62.33118439 228.1165466

endloop
endfacet
facet normal -0.1263084412 -0.5189968944 0.8453924656
outer loop
vertex -97.08777618 62.41164398 228.153656
vertex -97.00554657 62.33118439 228.1165466
vertex -96.96103668 62.5470047 228.2556915

endloop
endfacet
facet normal -0.1923415214 -0.503423214 0.8423596621
outer loop
vertex -96.96103668 62.5470047 228.2556915
vertex -97.00554657 62.33118439 228.1165466
vertex -96.86113739 62.45230865 228.2219086

endloop
endfacet
facet normal -0.1191537678 -0.4427444041 0.888695538
outer loop
vertex -96.96103668 62.5470047 228.2556915
vertex -96.86113739 62.45230865 228.2219086
vertex -96.80108643 62.70738983 228.3570404

endloop
endfacet
facet normal -0.1316181123 -0.439683497 0.888456583
outer loop
vertex -96.80108643 62.70738983 228.3570404
vertex -96.86113739 62.45230865 228.2219086
vertex -96.68816376 62.60396576 228.3225861

endloop
endfacet
facet normal -0.04504907876 -0.3596673012 0.9319925308
outer loop
vertex -96.80108643 62.70738983 228.3570404
vertex -96.68816376 62.60396576 228.3225861
vertex -96.60675049 62.88936615 228.4366608

endloop
endfacet
facet normal -0.03669146821 -0.3618587255 0.9315106273
outer loop
vertex -96.60675049 62.88936615 228.4366608
vertex -96.68816376 62.60396576 228.3225861
vertex -96.49356079 62.78432465 228.4003143

endloop
endfacet
facet normal -0.02540551126 -0.3512313366 0.9359439015
outer loop
vertex -96.60675049 62.88936615 228.4366608
vertex -96.49356079 62.78432465 228.4003143
vertex -96.40447998 63.06201935 228.5069427

endloop
endfacet
facet normal 0.0007784556365 -0.3586774766 0.9334611893
outer loop
vertex -96.40447998 63.06201935 228.5069427
vertex -96.49356079 62.78432465 228.4003143
vertex -96.29493713 62.95491791 228.4656982

endloop
endfacet
facet normal 0.002033275552 -0.3575585783 0.9338884354
outer loop
vertex -96.40447998 63.06201935 228.5069427
vertex -96.29493713 62.95491791 228.4656982
vertex -96.19667053 63.22855377 228.5702515

endloop
endfacet
facet normal 0.02783467993 -0.3654908538 0.930398643
outer loop
vertex -96.19667053 63.22855377 228.5702515
vertex -96.29493713 62.95491791 228.4656982
vertex -96.09114838 63.11936188 228.5242004

endloop
endfacet
facet normal 0.02883082442 -0.3646538556 0.9306966662
outer loop
vertex -96.19667053 63.22855377 228.5702515
vertex -96.09114838 63.11936188 228.5242004
vertex -95.97903442 63.3976059 228.6297455

endloop
endfacet
facet normal 0.04675701633 -0.3706937134 0.9275774956
outer loop
vertex -95.97903442 63.3976059 228.6297455
vertex -96.09114838 63.11936188 228.5242004
vertex -95.87658691 63.2869339 228.5803528

endloop
endfacet
facet normal 0.04741815105 -0.3702296317 0.927729249
outer loop
vertex -95.97903442 63.39762115 228.6297455
vertex -95.87659454 63.2869339 228.5803375
vertex -95.7569809 63.56826019 228.6864929

endloop
endfacet
facet normal 0.05896909907 -0.3742770553 0.925440073
outer loop
vertex -95.7569809 63.56826019 228.6864929
vertex -95.87659454 63.2869339 228.5803375
vertex -95.65644836 63.45676422 228.6349945

endloop
endfacet
facet normal 0.06100140139 -0.3726811409 0.9259521961
outer loop
vertex -95.7569809 63.56826019 228.6864929
vertex -95.65644836 63.45676422 228.6349945
vertex -95.54004669 63.72925568 228.7369995

endloop
endfacet
facet normal 0.0755892545 -0.3777405024 0.9228208661
outer loop
vertex -95.54004669 63.72925568 228.7369995
vertex -95.65644836 63.45676422 228.6349945
vertex -95.44206238 63.61675262 228.6829224

endloop
endfacet
facet normal 0.07935360074 -0.3749236166 0.9236531854
outer loop
vertex -95.54003143 63.72927094 228.7370148
vertex -95.44206238 63.61678314 228.6829376
vertex -95.32524872 63.87558746 228.7779541

endloop
endfacet
facet normal 0.1053139046 -0.3842698038 0.9171944261
outer loop
vertex -95.32524872 63.87558746 228.7779541
vertex -95.44206238 63.61678314 228.6829376
vertex -95.23271179 63.76094818 228.7192993

endloop
endfacet
facet normal 0.111601457 -0.3797722459 0.9183235765
outer loop
vertex -95.32524872 63.87558746 228.7779541
vertex -95.23271179 63.76094818 228.7192993
vertex -95.10092926 64.01024628 228.8063812

endloop
endfacet
facet normal 0.1477345675 -0.3948447406 0.9067921638
outer loop
vertex -95.10092926 64.01024628 228.8063812
vertex -95.23271179 63.76094818 228.7192993
vertex -95.01745605 63.89226532 228.7414093

endloop
endfacet
facet normal 0.1548903584 -0.3902253509 0.9075974822
outer loop
vertex -95.10092926 64.01024628 228.8063812
vertex -95.01745605 63.89226532 228.7414093
vertex -94.86476898 64.13652802 228.8203735

endloop
endfacet
facet normal 0.1890911162 -0.4070806205 0.8936049938
outer loop
vertex -94.86476898 64.13652802 228.8203735
vertex -95.01745605 63.89226532 228.7414093
vertex -94.79164886 64.01500702 228.7495422

endloop
endfacet
facet normal 0.1949867457 -0.4036909342 0.8938757181
outer loop
vertex -94.86476898 64.13652802 228.8203735
vertex -94.79164886 64.01500702 228.7495422
vertex -94.63136292 64.25362396 228.8223419

endloop
endfacet
facet normal 0.2173615694 -0.4154790938 0.8832502961
outer loop
vertex -94.63136292 64.25362396 228.8223419
vertex -94.79164886 64.01500702 228.7495422
vertex -94.5659256 64.1297226 228.7479553

endloop
endfacet
facet normal 0.2205256969 -0.413723141 0.8832902312
outer loop
vertex -94.63135529 64.25365448 228.8223572
vertex -94.56591797 64.12975311 228.7479858
vertex -94.41527557 64.35961151 228.8180389

endloop
endfacet
facet normal 0.2327845693 -0.419903338 0.8772072792
outer loop
vertex -94.41527557 64.35961151 228.8180389
vertex -94.56591797 64.12975311 228.7479858
vertex -94.35416412 64.23448944 228.7419281

endloop
endfacet
facet normal 0.2370951623 -0.4177276492 0.877091527
outer loop
vertex -94.41527557 64.35961151 228.8180389
vertex -94.35416412 64.23448944 228.7419281
vertex -94.20919037 64.45479584 228.807663

endloop
endfacet
facet normal 0.2505934834 -0.4245103896 0.870053947
outer loop
vertex -94.20919037 64.45479584 228.807663
vertex -94.35416412 64.23448944 228.7419281
vertex -94.1533432 64.32836151 228.7298889

endloop
endfacet
facet normal 0.2564070523 -0.42173177 0.8697113395
outer loop
vertex -94.20919037 64.45479584 228.807663
vertex -94.1533432 64.32836151 228.7298889
vertex -93.99992371 64.54146576 228.7879944

endloop
endfacet
facet normal 0.2737793028 -0.4314754605 0.859577775
outer loop
vertex -93.99992371 64.54146576 228.7879944
vertex -94.1533432 64.32836151 228.7298889
vertex -93.95237732 64.41283417 228.7082825

endloop
endfacet
facet normal 0.2841534019 -0.4269533157 0.8584682941
outer loop
vertex -93.99992371 64.54146576 228.7879944
vertex -93.95237732 64.41283417 228.7082825
vertex -93.78894043 64.62334442 228.7588806

endloop
endfacet
facet normal 0.2964327931 -0.4345621169 0.8504607081
outer loop
vertex -93.78894043 64.62334442 228.7588806
vertex -93.95237732 64.41283417 228.7082825
vertex -93.74771881 64.49349213 228.6781616

endloop
endfacet
facet normal 0.4241403639 -0.3771521151 0.8233231902
outer loop
vertex -93.78894043 64.62334442 228.7588806
vertex -93.74771881 64.49349213 228.6781616
vertex -93.61349487 64.70406342 228.7054749

endloop
endfacet
facet normal 0.4202961922 -0.375079602 0.8262363076
outer loop
vertex -93.61349487 64.70406342 228.7054749
vertex -93.74771881 64.49349213 228.6781616
vertex -93.57350159 64.58531952 228.6312256

endloop
endfacet
facet normal 0.513849318 -0.3238120079 0.7944210172
outer loop
vertex -93.61349487 64.70406342 228.7054901
vertex -93.57350922 64.58531952 228.6312256
vertex -93.47330475 64.76439667 228.6394043

endloop
endfacet
facet normal 0.5265677571 -0.3304205537 0.783293426
outer loop
vertex -93.47330475 64.76439667 228.6394043
vertex -93.57350922 64.58531952 228.6312256
vertex -93.43332672 64.66536713 228.570755

endloop
endfacet
facet normal 0.9490358829 0.2509249747 0.1907025427
outer loop
vertex -93.47330475 64.76439667 228.6394043
vertex -93.43332672 64.66536713 228.570755
vertex -93.44499969 64.87236786 228.3564758

endloop
endfacet
facet normal 0 -0.7191913724 -0.6948120594
outer loop
vertex -93.44499969 64.87236786 228.3564758
vertex -93.43332672 64.66536713 228.570755
vertex -93.44500732 64.87236786 228.3564758

endloop
endfacet
facet normal 0.8733780384 0.04798438773 -0.4846734107
outer loop
vertex -97.15200806 62.39505768 227.8589478
vertex -97.15200043 62.39507294 227.858963
vertex -97.0055542 62.33116913 228.1165314

endloop
endfacet
facet normal -0.5036786795 -0.8608177304 0.07280516624
outer loop
vertex -97.0055542 62.33116913 228.1165314
vertex -97.15200043 62.39507294 227.858963
vertex -96.91859436 62.27146149 228.0121765

endloop
endfacet
facet normal 0.2014463097 -0.7683582902 0.6074906588
outer loop
vertex -97.0055542 62.33116913 228.1165314
vertex -96.91859436 62.27146149 228.0121765
vertex -96.86114502 62.45230865 228.2218628

endloop
endfacet
facet normal 0.1281872392 -0.7681136727 0.6273511052
outer loop
vertex -96.86114502 62.45230865 228.2218628
vertex -96.91859436 62.27146149 228.0121765
vertex -96.7478714 62.37647247 228.1058655

endloop
endfacet
facet normal 0.2222064883 -0.7024048567 0.6762039065
outer loop
vertex -96.86114502 62.45230865 228.2218628
vertex -96.7478714 62.37647247 228.1058655
vertex -96.68817139 62.60396576 228.3225555

endloop
endfacet
facet normal 0.2089262605 -0.7026745677 0.6801458597
outer loop
vertex -96.68817139 62.60396576 228.3225555
vertex -96.7478714 62.37647247 228.1058655
vertex -96.558815 62.52109528 228.1972046

endloop
endfacet
facet normal 0.2948989272 -0.6284409761 0.7197892666
outer loop
vertex -96.68817139 62.60396576 228.3225555
vertex -96.558815 62.52109528 228.1972046
vertex -96.49357605 62.78432465 228.4002991

endloop
endfacet
facet normal 0.3037178814 -0.6280527115 0.7164532542
outer loop
vertex -96.49357605 62.78432465 228.4002991
vertex -96.558815 62.52109528 228.1972046
vertex -96.36476135 62.70014191 228.2718964

endloop
endfacet
facet normal 0.3035528958 -0.6282064319 0.7163883448
outer loop
vertex -96.49357605 62.78432465 228.4002991
vertex -96.36476135 62.70014191 228.2718964
vertex -96.29493713 62.95488739 228.4656982

endloop
endfacet
facet normal 0.3306882679 -0.627146244 0.7052183151
outer loop
vertex -96.29493713 62.95488739 228.4656982
vertex -96.36476135 62.70014191 228.2718964
vertex -96.17269135 62.8690567 228.3320465

endloop
endfacet
facet normal 0.3158271313 -0.6403768063 0.7001219988
outer loop
vertex -96.29493713 62.95488739 228.4656982
vertex -96.17269135 62.8690567 228.3320465
vertex -96.09116364 63.11934662 228.5242004

endloop
endfacet
facet normal 0.3421619534 -0.6397888064 0.6881827116
outer loop
vertex -96.09116364 63.11934662 228.5242004
vertex -96.17269135 62.8690567 228.3320465
vertex -95.97590637 63.03177643 228.3854828

endloop
endfacet
facet normal 0.329161495 -0.650708437 0.6842742562
outer loop
vertex -96.09116364 63.11934662 228.5242004
vertex -95.97590637 63.03177643 228.3854828
vertex -95.87659454 63.28690338 228.5803223

endloop
endfacet
facet normal 0.3476746678 -0.6508044004 0.6749636531
outer loop
vertex -95.87659454 63.28690338 228.5803223
vertex -95.97590637 63.03177643 228.3854828
vertex -95.76657104 63.19817352 228.4380951

endloop
endfacet
facet normal 0.3398692608 -0.6570567489 0.672878325
outer loop
vertex -95.87659454 63.28691864 228.5803223
vertex -95.76657867 63.19817352 228.4380951
vertex -95.65644836 63.45674896 228.634964

endloop
endfacet
facet normal 0.3515775204 -0.6572772264 0.666618228
outer loop
vertex -95.65644836 63.45674896 228.634964
vertex -95.76657867 63.19817352 228.4380951
vertex -95.54977417 63.36736298 228.4905701

endloop
endfacet
facet normal 0.3453943133 -0.6621249914 0.6650512815
outer loop
vertex -95.65644836 63.45674896 228.634964
vertex -95.54977417 63.36736298 228.4905701
vertex -95.44206238 63.61673737 228.6829071

endloop
endfacet
facet normal 0.3604113758 -0.6622954607 0.6568624377
outer loop
vertex -95.44206238 63.61673737 228.6829071
vertex -95.54977417 63.36736298 228.4905701
vertex -95.33985901 63.5265274 228.5358734

endloop
endfacet
facet normal 0.3486656249 -0.6712175608 0.6541401744
outer loop
vertex -95.44206238 63.61675262 228.6829224
vertex -95.33984375 63.52654266 228.5358734
vertex -95.23271942 63.76093292 228.7192841

endloop
endfacet
facet normal 0.3758187592 -0.671494782 0.6386353374
outer loop
vertex -95.23271942 63.76093292 228.7192841
vertex -95.33984375 63.52654266 228.5358734
vertex -95.13934326 63.66904449 228.5677185

endloop
endfacet
facet normal 0.3539505601 -0.6870372891 0.634585619
outer loop
vertex -95.23271942 63.76093292 228.7192841
vertex -95.13934326 63.66904449 228.5677185
vertex -95.01746368 63.89226532 228.7414093

endloop
endfacet
facet normal 0.3912093341 -0.6886464357 0.6105089188
outer loop
vertex -95.01746368 63.89226532 228.7414093
vertex -95.13934326 63.66904449 228.5677185
vertex -94.93813324 63.79766083 228.5838623

endloop
endfacet
facet normal 0.3624820113 -0.7071073651 0.6071292758
outer loop
vertex -95.01746368 63.89226532 228.7414093
vertex -94.93813324 63.79766083 228.5838623
vertex -94.79164886 64.01500702 228.7495422

endloop
endfacet
facet normal 0.3974366784 -0.7105171084 0.5806974769
outer loop
vertex -94.79164886 64.01500702 228.7495422
vertex -94.93813324 63.79766083 228.5838623
vertex -94.72780609 63.91757965 228.5866394

endloop
endfacet
facet normal 0.3724764884 -0.7248723507 0.5795009136
outer loop
vertex -94.79164886 64.01500702 228.7495422
vertex -94.72780609 63.91757965 228.5866394
vertex -94.56593323 64.1297226 228.7479553

endloop
endfacet
facet normal 0.3946571946 -0.7277067304 0.5609710813
outer loop
vertex -94.56593323 64.1297226 228.7479553
vertex -94.72780609 63.91757965 228.5866394
vertex -94.51330566 64.03035736 228.5820312

endloop
endfacet
facet normal 0.3798970282 -0.7356013656 0.5608644485
outer loop
vertex -94.56591797 64.1297226 228.7479858
vertex -94.51329803 64.03038788 228.5820618
vertex -94.35417175 64.23445892 228.7419281

endloop
endfacet
facet normal 0.3923449516 -0.7370385528 0.550308764
outer loop
vertex -94.35417175 64.23445892 228.7419281
vertex -94.51329803 64.03038788 228.5820618
vertex -94.30791473 64.13414764 228.5746002

endloop
endfacet
facet normal 0.3802611828 -0.7431192398 0.5506134629
outer loop
vertex -94.35417175 64.23445892 228.7419281
vertex -94.30791473 64.13414764 228.5746002
vertex -94.15335083 64.32830048 228.7298889

endloop
endfacet
facet normal 0.3943468332 -0.7446488738 0.5385059714
outer loop
vertex -94.15335083 64.32830048 228.7298889
vertex -94.30791473 64.13414764 228.5746002
vertex -94.11468506 64.22692108 228.5613861

endloop
endfacet
facet normal 0.3750497699 -0.7537872791 0.5395761132
outer loop
vertex -94.15335083 64.32830048 228.7298889
vertex -94.11468506 64.22692108 228.5613861
vertex -93.95238495 64.41280365 228.708252

endloop
endfacet
facet normal 0.3930719495 -0.7563503385 0.5229039192
outer loop
vertex -93.95238495 64.41280365 228.708252
vertex -94.11468506 64.22692108 228.5613861
vertex -93.92516327 64.30965424 228.5385895

endloop
endfacet
facet normal 0.377884239 -0.7629647851 0.5244885087
outer loop
vertex -93.95238495 64.41280365 228.708252
vertex -93.92516327 64.30965424 228.5385895
vertex -93.74772644 64.49346161 228.6781311

endloop
endfacet
facet normal 0.3903027773 -0.7653234601 0.5118043423
outer loop
vertex -93.74772644 64.49346161 228.6781311
vertex -93.92516327 64.30965424 228.5385895
vertex -93.72910309 64.38939667 228.508316

endloop
endfacet
facet normal 0.5061666369 -0.7095047235 0.4903044403
outer loop
vertex -93.74772644 64.49346161 228.6781311
vertex -93.72910309 64.38939667 228.508316
vertex -93.57351685 64.58531952 228.6312103

endloop
endfacet
facet normal 0.5030968785 -0.7092615366 0.4938031733
outer loop
vertex -93.57351685 64.58531952 228.6312103
vertex -93.72910309 64.38939667 228.508316
vertex -93.55419922 64.49022675 228.4749451

endloop
endfacet
facet normal 0.5817920566 -0.660877049 0.4740879536
outer loop
vertex -93.57351685 64.58531952 228.6312103
vertex -93.55419922 64.49022675 228.4749451
vertex -93.43333435 64.66533661 228.5707245

endloop
endfacet
facet normal 0.5991325378 -0.6608070135 0.4520777762
outer loop
vertex -93.43333435 64.66533661 228.5707245
vertex -93.55419922 64.49022675 228.4749451
vertex -93.41197205 64.59185028 228.4349976

endloop
endfacet
facet normal 0.9870743155 0.1387254 0.08024761081
outer loop
vertex -93.43333435 64.66533661 228.5707245
vertex -93.41197205 64.59185028 228.4349976
vertex -93.44500732 64.87233734 228.3564606

endloop
endfacet
facet normal -0.9044117928 0.01286969893 0.4264664948
outer loop
vertex -93.44500732 64.87233734 228.3564606
vertex -93.41197205 64.59185028 228.4349976
vertex -93.44499969 64.87236786 228.3564758

endloop
endfacet
facet normal -nan(ind) -nan(ind) -nan(ind)
outer loop
vertex -97.15200043 62.39507294 227.858963
vertex -97.15200043 62.39507294 227.858963
vertex -96.91859436 62.27146149 228.0121765

endloop
endfacet
facet normal -0.3723000884 -0.9125781059 -0.1690974385
outer loop
vertex -96.91859436 62.27146149 228.0121765
vertex -97.15200043 62.39507294 227.858963
vertex -96.85142517 62.28954315 227.7667084

endloop
endfacet
facet normal 0.4938955903 -0.8665918708 0.07131329179
outer loop
vertex -96.91859436 62.27146149 228.0121765
vertex -96.85142517 62.28954315 227.7667084
vertex -96.7478714 62.37647247 228.1058807

endloop
endfacet
facet normal 0.4337693453 -0.8957713842 0.09714926034
outer loop
vertex -96.7478714 62.37647247 228.1058807
vertex -96.85142517 62.28954315 227.7667084
vertex -96.65048981 62.39138031 227.8085327

endloop
endfacet
facet normal 0.5573904514 -0.8180986047 0.1415293962
outer loop
vertex -96.7478714 62.37647247 228.1058807
vertex -96.65048981 62.39138031 227.8085327
vertex -96.558815 62.52108002 228.1972046

endloop
endfacet
facet normal 0.5414425135 -0.8275302052 0.1484382898
outer loop
vertex -96.558815 62.52108002 228.1972046
vertex -96.65048981 62.39138031 227.8085327
vertex -96.44441223 62.53723907 227.8699951

endloop
endfacet
facet normal 0.6279708147 -0.7566095591 0.1821937114
outer loop
vertex -96.558815 62.52108002 228.1972046
vertex -96.44441223 62.53723907 227.8699951
vertex -96.36476135 62.70012665 228.2718964

endloop
endfacet
facet normal 0.6372061372 -0.7499370575 0.1776590496
outer loop
vertex -96.36476135 62.70012665 228.2718964
vertex -96.44441223 62.53723907 227.8699951
vertex -96.25291443 62.71649933 227.9398499

endloop
endfacet
facet normal 0.6198794246 -0.7658296824 0.1710390747
outer loop
vertex -96.36476135 62.70012665 228.2718964
vertex -96.25291443 62.71649933 227.9398499
vertex -96.17269135 62.86902618 228.3320465

endloop
endfacet
facet normal 0.6497828364 -0.7438602448 0.1563783735
outer loop
vertex -96.17269135 62.86902618 228.3320465
vertex -96.25291443 62.71649933 227.9398499
vertex -96.07273102 62.88573456 227.99617

endloop
endfacet
facet normal 0.607644856 -0.781416893 0.1419693828
outer loop
vertex -96.17269135 62.86902618 228.3320465
vertex -96.07273102 62.88573456 227.99617
vertex -95.97590637 63.03176117 228.385498

endloop
endfacet
facet normal 0.6371307969 -0.7602698803 0.1267046481
outer loop
vertex -95.97590637 63.03176117 228.385498
vertex -96.07273102 62.88573456 227.99617
vertex -95.88808441 63.04880524 228.0461578

endloop
endfacet
facet normal 0.6001678109 -0.7914808989 0.1155709103
outer loop
vertex -95.97590637 63.03176117 228.385498
vertex -95.88808441 63.04880524 228.0461578
vertex -95.76657867 63.19817352 228.4381104

endloop
endfacet
facet normal 0.6201276183 -0.7775661349 0.1040805951
outer loop
vertex -95.76657867 63.19817352 228.4381104
vertex -95.88808441 63.04880524 228.0461578
vertex -95.68766022 63.2154007 228.0966034

endloop
endfacet
facet normal 0.5974192023 -0.7959288955 0.09791538119
outer loop
vertex -95.76657867 63.19817352 228.4380951
vertex -95.68766022 63.2154007 228.0966187
vertex -95.54977417 63.36736298 228.4905853

endloop
endfacet
facet normal 0.6102126837 -0.7871050239 0.09003414214
outer loop
vertex -95.54977417 63.36736298 228.4905853
vertex -95.68766022 63.2154007 228.0966187
vertex -95.47679901 63.38472748 228.1477966

endloop
endfacet
facet normal 0.5902807713 -0.8027101159 0.08500039577
outer loop
vertex -95.54977417 63.36736298 228.4905853
vertex -95.47679901 63.38472748 228.1477966
vertex -95.33985138 63.5265274 228.5358734

endloop
endfacet
facet normal 0.6075479388 -0.790776968 0.07454678416
outer loop
vertex -95.33985138 63.5265274 228.5358734
vertex -95.47679901 63.38472748 228.1477966
vertex -95.27474213 63.54409027 228.1915436

endloop
endfacet
facet normal 0.5709919333 -0.8182786703 0.06624432653
outer loop
vertex -95.33984375 63.52654266 228.5358734
vertex -95.27472687 63.54410553 228.1915436
vertex -95.13934326 63.66902924 228.5677185

endloop
endfacet
facet normal 0.6033452153 -0.7960804105 0.04722872749
outer loop
vertex -95.13934326 63.66902924 228.5677185
vertex -95.27472687 63.54410553 228.1915436
vertex -95.08863831 63.68689728 228.2211456

endloop
endfacet
facet normal 0.5363072157 -0.8432973623 0.03498647362
outer loop
vertex -95.13934326 63.66902924 228.5677185
vertex -95.08863831 63.68689728 228.2211456
vertex -94.93813324 63.79766083 228.583847

endloop
endfacet
facet normal 0.5834392905 -0.8121352792 0.005912358873
outer loop
vertex -94.93813324 63.79766083 228.583847
vertex -95.08863831 63.68689728 228.2211456
vertex -94.90900421 63.81604767 228.2350159

endloop
endfacet
facet normal 0.4953908622 -0.8686589599 -0.004419439938
outer loop
vertex -94.93813324 63.79766083 228.583847
vertex -94.90900421 63.81604767 228.2350159
vertex -94.72780609 63.91759491 228.5866394

endloop
endfacet
facet normal 0.5404290557 -0.8406308889 -0.03572280705
outer loop
vertex -94.72780609 63.91759491 228.5866394
vertex -94.90900421 63.81604767 228.2350159
vertex -94.72154236 63.93650055 228.2365112

endloop
endfacet
facet normal 0.4642911255 -0.8848027587 -0.03947001696
outer loop
vertex -94.72780609 63.91759491 228.5866394
vertex -94.72154236 63.93650055 228.2365112
vertex -94.51330566 64.03035736 228.5820312

endloop
endfacet
facet normal 0.4930316508 -0.8678421974 -0.06139840931
outer loop
vertex -94.51330566 64.03035736 228.5820312
vertex -94.72154236 63.93650055 228.2365112
vertex -94.52302551 64.04961395 228.2317963

endloop
endfacet
facet normal 0.4481784999 -0.8918277621 -0.06147509068
outer loop
vertex -94.51329803 64.03038788 228.5820465
vertex -94.52301788 64.04964447 228.2318268
vertex -94.3079071 64.13411713 228.5746155

endloop
endfacet
facet normal 0.4648279548 -0.8822799921 -0.07427599281
outer loop
vertex -94.3079071 64.13411713 228.5746155
vertex -94.52301788 64.04964447 228.2318268
vertex -94.32674408 64.15364838 228.2247314

endloop
endfacet
facet normal 0.4275705516 -0.9010040164 -0.07331534475
outer loop
vertex -94.3079071 64.13411713 228.5746155
vertex -94.32674408 64.15364838 228.2247314
vertex -94.11467743 64.22689056 228.5613861

endloop
endfacet
facet normal 0.447268337 -0.8900496364 -0.08810668439
outer loop
vertex -94.11467743 64.22689056 228.5613861
vertex -94.32674408 64.15364838 228.2247314
vertex -94.14413452 64.24663544 228.2123871

endloop
endfacet
facet normal 0.3901885748 -0.9168212414 -0.08480350673
outer loop
vertex -94.11467743 64.22689056 228.5613861
vertex -94.14413452 64.24663544 228.2123871
vertex -93.92516327 64.30965424 228.5385895

endloop
endfacet
facet normal 0.4170050025 -0.9027580619 -0.1055215374
outer loop
vertex -93.92516327 64.30965424 228.5385895
vertex -94.14413452 64.24663544 228.2123871
vertex -93.96969604 64.32970428 228.1910706

endloop
endfacet
facet normal 0.3616085649 -0.9269710779 -0.09981974214
outer loop
vertex -93.92516327 64.30965424 228.5385895
vertex -93.96969604 64.32970428 228.1910706
vertex -93.72910309 64.38939667 228.508316

endloop
endfacet
facet normal 0.3793286681 -0.9180965424 -0.1149281859
outer loop
vertex -93.72910309 64.38939667 228.508316
vertex -93.96969604 64.32970428 228.1910706
vertex -93.78468323 64.40962982 228.1632385

endloop
endfacet
facet normal 0.4769143462 -0.8696085811 -0.1278028339
outer loop
vertex -93.72910309 64.38939667 228.508316
vertex -93.78468323 64.40962982 228.1632385
vertex -93.55419159 64.49022675 228.4749451

endloop
endfacet
facet normal 0.4740255475 -0.8715704083 -0.1251594871
outer loop
vertex -93.55419159 64.49022675 228.4749451
vertex -93.78468323 64.40962982 228.1632385
vertex -93.60375214 64.50887299 228.1573944

endloop
endfacet
facet normal 0.5508290529 -0.8237252831 -0.1344028264
outer loop
vertex -93.55419922 64.49022675 228.4749451
vertex -93.60375214 64.5089035 228.1573944
vertex -93.41197205 64.59185028 228.4350128

endloop
endfacet
facet normal 0.5626072884 -0.8138201237 -0.1454987228
outer loop
vertex -93.41197205 64.59185028 228.4350128
vertex -93.60375214 64.5089035 228.1573944
vertex -93.44825745 64.61406708 228.1704407

endloop
endfacet
facet normal 0.9884128571 0.0802892223 -0.1288162321
outer loop
vertex -93.41197205 64.59185028 228.4350128
vertex -93.44825745 64.61406708 228.1704407
vertex -93.44499207 64.87236786 228.3564911

endloop
endfacet
facet normal 0.854121685 0.2968083024 -0.4270608425
outer loop
vertex -93.44499207 64.87236786 228.3564911
vertex -93.44825745 64.61406708 228.1704407
vertex -93.44499969 64.87236786 228.3564758

endloop
endfacet
endsolid
