solid 
facet normal -nan(ind) -nan(ind) -nan(ind)
outer loop
vertex -59.00510406 38.20946503 265.1456909
vertex -59.00510406 38.20946503 265.1456909
vertex -59.03694916 37.63275909 264.682312

endloop
endfacet
facet normal -0.8836271167 0.3219346106 -0.3399429917
outer loop
vertex -59.03694916 37.63275909 264.682312
vertex -59.00510406 38.20946503 265.1456909
vertex -58.8163681 38.06134796 264.5148315

endloop
endfacet
facet normal -0.5702714324 -0.0273238197 -0.8210018277
outer loop
vertex -59.03694916 37.63275909 264.682312
vertex -58.8163681 38.06134796 264.5148315
vertex -58.7175827 37.2347641 264.4737244

endloop
endfacet
facet normal -0.6323263049 -0.03708673641 -0.7738139033
outer loop
vertex -58.7175827 37.2347641 264.4737244
vertex -58.8163681 38.06134796 264.5148315
vertex -58.48810577 37.81191254 264.2585449

endloop
endfacet
facet normal -0.7564818263 0.0579004921 -0.6514467001
outer loop
vertex -58.7175827 37.2347641 264.4737244
vertex -58.48810577 37.81191254 264.2585449
vertex -58.48062897 36.94029999 264.1723938

endloop
endfacet
facet normal -0.8007726073 0.0521090813 -0.5966973901
outer loop
vertex -58.48062897 36.94029999 264.1723938
vertex -58.48810577 37.81191254 264.2585449
vertex -58.26012421 37.68662262 263.9416504

endloop
endfacet
facet normal -0.6839143038 -0.02337981761 -0.7291876674
outer loop
vertex -58.48062897 36.94029999 264.1723938
vertex -58.26012421 37.68662262 263.9416504
vertex -58.19686127 36.75167084 263.9122925

endloop
endfacet
facet normal -0.6667525768 -0.02172324248 -0.7449625134
outer loop
vertex -58.19686127 36.75167084 263.9122925
vertex -58.26012421 37.68662262 263.9416504
vertex -57.9748764 37.59902191 263.6889038

endloop
endfacet
facet normal -0.5631206036 -0.06956184655 -0.8234417439
outer loop
vertex -58.19686127 36.75167084 263.9122925
vertex -57.9748764 37.59902191 263.6889038
vertex -57.9849472 36.61521149 263.7789001

endloop
endfacet
facet normal -0.5877725482 -0.06773098558 -0.8061860204
outer loop
vertex -57.9849472 36.61521149 263.7789001
vertex -57.9748764 37.59902191 263.6889038
vertex -57.70342255 37.46529388 263.5022278

endloop
endfacet
facet normal -0.6281220913 -0.04481177405 -0.7768234015
outer loop
vertex -57.9849472 36.61521149 263.7789001
vertex -57.70342255 37.46529388 263.5022278
vertex -57.8768692 36.43662262 263.7018127

endloop
endfacet
facet normal -0.6928268075 -0.02301968075 -0.7207365036
outer loop
vertex -57.8768692 36.43662262 263.7018127
vertex -57.70342255 37.46529388 263.5022278
vertex -57.49918365 37.25093842 263.3127441

endloop
endfacet
facet normal -0.7014584541 -0.01510497555 -0.7125502229
outer loop
vertex -57.8768692 36.43662262 263.7018127
vertex -57.49918365 37.25093842 263.3127441
vertex -57.70917511 36.17682648 263.5422363

endloop
endfacet
facet normal -0.7519314885 0.006158636417 -0.6592125297
outer loop
vertex -57.70917511 36.17682648 263.5422363
vertex -57.49918365 37.25093842 263.3127441
vertex -57.29924774 37.005867 263.0823975

endloop
endfacet
facet normal -0.6933929324 -0.05559454113 -0.7184117436
outer loop
vertex -57.70917511 36.17682648 263.5422363
vertex -57.29924774 37.00588226 263.082428
vertex -57.45656586 35.88964081 263.3206482

endloop
endfacet
facet normal -0.7131863832 -0.04872180521 -0.6992791891
outer loop
vertex -57.45656586 35.88964081 263.3206482
vertex -57.29924774 37.00588226 263.082428
vertex -57.03960419 36.73423004 262.8365479

endloop
endfacet
facet normal -0.6776275635 -0.08421071619 -0.7305679321
outer loop
vertex -57.45656586 35.88964081 263.3206482
vertex -57.03960419 36.73423004 262.8365479
vertex -57.16417694 35.60007477 263.0828247

endloop
endfacet
facet normal -0.6829334497 -0.08259182423 -0.7257964015
outer loop
vertex -57.16417694 35.60007477 263.0828247
vertex -57.03960419 36.73423004 262.8365479
vertex -56.74727631 36.44907379 262.5939331

endloop
endfacet
facet normal -0.670940578 -0.0940682441 -0.7355201244
outer loop
vertex -57.16416168 35.60009003 263.0828247
vertex -56.74724579 36.44908905 262.5939331
vertex -56.87825775 35.31996918 262.8578491

endloop
endfacet
facet normal -0.686599493 -0.0889904201 -0.7215689421
outer loop
vertex -56.87825775 35.31996918 262.8578491
vertex -56.74724579 36.44908905 262.5939331
vertex -56.47185516 36.1725235 262.3659973

endloop
endfacet
facet normal -0.6810324788 -0.09429106861 -0.72615695
outer loop
vertex -56.87825775 35.31996918 262.8578491
vertex -56.47185516 36.1725235 262.3659973
vertex -56.59783173 35.04358673 262.6307373

endloop
endfacet
facet normal -0.7007860541 -0.08781618625 -0.7079457641
outer loop
vertex -56.59783173 35.04358673 262.6307373
vertex -56.47185516 36.1725235 262.3659973
vertex -56.20491791 35.90053558 262.135498

endloop
endfacet
facet normal -0.6957927346 -0.09259278327 -0.7122493982
outer loop
vertex -56.59783173 35.04358673 262.6307373
vertex -56.20491791 35.90053558 262.135498
vertex -56.30736542 34.76233673 262.3835449

endloop
endfacet
facet normal -0.7048169971 -0.0899104625 -0.7036683559
outer loop
vertex -56.30736542 34.76233673 262.3835449
vertex -56.20491791 35.90053558 262.135498
vertex -55.92105865 35.62140656 261.8868408

endloop
endfacet
facet normal -0.700566113 -0.09396450967 -0.7073738575
outer loop
vertex -56.30736542 34.76233673 262.3835449
vertex -55.92105865 35.62140656 261.8868408
vertex -56.01985931 34.48427582 262.1357422

endloop
endfacet
facet normal -0.7088944912 -0.09148593247 -0.6993561387
outer loop
vertex -56.01985931 34.48427582 262.1357422
vertex -55.92105865 35.62140656 261.8868408
vertex -55.64000702 35.34563446 261.638031

endloop
endfacet
facet normal -0.703561902 -0.09651373327 -0.704049468
outer loop
vertex -56.01985931 34.48430634 262.1357422
vertex -55.63999176 35.34564972 261.6380615
vertex -55.74881744 34.21619415 261.9016418

endloop
endfacet
facet normal -0.725471139 -0.0893567875 -0.6824273467
outer loop
vertex -55.74881744 34.21619415 261.9016418
vertex -55.63999176 35.34564972 261.6380615
vertex -55.38513947 35.08304596 261.4015198

endloop
endfacet
facet normal -0.7173240781 -0.09710868448 -0.6899391413
outer loop
vertex -55.74881744 34.21619415 261.9016418
vertex -55.38513947 35.08304596 261.4015198
vertex -55.47304535 33.94773102 261.65271

endloop
endfacet
facet normal -0.7353533506 -0.09162446856 -0.6714614034
outer loop
vertex -55.47304535 33.94773102 261.65271
vertex -55.38513947 35.08304596 261.4015198
vertex -55.12384796 34.81809235 261.1515198

endloop
endfacet
facet normal -0.7107817531 -0.1144810468 -0.69403404
outer loop
vertex -55.47304535 33.94773102 261.65271
vertex -55.12384796 34.81809235 261.1515198
vertex -55.16820526 33.68926239 261.3831482

endloop
endfacet
facet normal -0.7041577101 -0.1160666794 -0.7004929185
outer loop
vertex -55.16820526 33.68926239 261.3831482
vertex -55.12384796 34.81809235 261.1515198
vertex -54.81983185 34.54235077 260.8916016

endloop
endfacet
facet normal -0.5927132964 -0.206516698 -0.7784868479
outer loop
vertex -55.16820526 33.68926239 261.3831482
vertex -54.81983185 34.54235077 260.8916016
vertex -54.79431915 33.49877167 261.1490173

endloop
endfacet
facet normal -0.5537282825 -0.2121570408 -0.8052169681
outer loop
vertex -54.79431915 33.49877167 261.1490173
vertex -54.81983185 34.54235077 260.8916016
vertex -54.44712067 34.26337433 260.7088013

endloop
endfacet
facet normal -0.3393089771 -0.3488846123 -0.8735839725
outer loop
vertex -54.79431915 33.49877167 261.1490173
vertex -54.44712067 34.26337433 260.7088013
vertex -54.36736298 33.43343353 261.0092773

endloop
endfacet
facet normal -0.2539300025 -0.3507453799 -0.9013863206
outer loop
vertex -54.36736298 33.43343353 261.0092773
vertex -54.44712067 34.26337433 260.7088013
vertex -54.03330231 34.0233078 260.6856384

endloop
endfacet
facet normal -0.2237264812 -0.368347615 -0.9023671746
outer loop
vertex -54.36736298 33.43343353 261.0092773
vertex -54.03331757 34.0233078 260.6856689
vertex -54.02707672 33.41342926 260.933075

endloop
endfacet
facet normal -0.1066863611 -0.3747030795 -0.9209862351
outer loop
vertex -54.02707672 33.41342926 260.933075
vertex -54.03331757 34.0233078 260.6856689
vertex -53.71949005 33.83336639 260.726593

endloop
endfacet
facet normal 0.5897376537 -0.6604716778 -0.4647435844
outer loop
vertex -54.02707672 33.41342926 260.933075
vertex -53.71949005 33.83336639 260.726593
vertex -53.48180389 33.63375092 261.3118896

endloop
endfacet
facet normal -nan(ind) -nan(ind) -nan(ind)
outer loop
vertex -53.48180389 33.63375092 261.3118896
vertex -53.71949005 33.83336639 260.726593
vertex -53.48180389 33.63375092 261.3118896

endloop
endfacet
facet normal 0.9580441117 -0 0.2866207361
outer loop
vertex -59.00510406 38.20946503 265.1456909
vertex -59.00510406 38.20944977 265.1456909
vertex -58.8163681 38.06134796 264.5148315

endloop
endfacet
facet normal -0.6462560892 0.6769510508 -0.3522646427
outer loop
vertex -58.8163681 38.06134796 264.5148315
vertex -59.00510406 38.20944977 265.1456909
vertex -58.62058258 38.29027557 264.5955811

endloop
endfacet
facet normal -0.2555195093 0.5085563064 -0.8222410083
outer loop
vertex -58.8163681 38.06134796 264.5148315
vertex -58.62058258 38.29027557 264.5955811
vertex -58.48810577 37.81191254 264.2585449

endloop
endfacet
facet normal -0.2650780678 0.5052240491 -0.8212686777
outer loop
vertex -58.48810577 37.81191254 264.2585449
vertex -58.62058258 38.29027557 264.5955811
vertex -58.24771881 38.10759735 264.362854

endloop
endfacet
facet normal -0.5000109673 0.6198533177 -0.6047900319
outer loop
vertex -58.48810577 37.81191254 264.2585449
vertex -58.24771881 38.10759735 264.362854
vertex -58.26012421 37.68662262 263.9416504

endloop
endfacet
facet normal -0.5454460979 0.6007974744 -0.5844063759
outer loop
vertex -58.26012421 37.68662262 263.9416504
vertex -58.24771881 38.10759735 264.362854
vertex -57.99904633 38.06871796 264.0907898

endloop
endfacet
facet normal -0.4392769337 0.5708868504 -0.693631053
outer loop
vertex -58.26012421 37.68662262 263.9416504
vertex -57.99904633 38.06871796 264.0907898
vertex -57.9748764 37.59902191 263.6889038

endloop
endfacet
facet normal -0.4376806617 0.5714414716 -0.6941832304
outer loop
vertex -57.9748764 37.59902191 263.6889038
vertex -57.99904633 38.06871796 264.0907898
vertex -57.71233368 38.03281403 263.8804626

endloop
endfacet
facet normal -0.2892414033 0.5277324915 -0.7986475229
outer loop
vertex -57.9748764 37.59902191 263.6889038
vertex -57.71233368 38.03281403 263.8804626
vertex -57.70342255 37.46529388 263.5022278

endloop
endfacet
facet normal -0.2974090278 0.5262537003 -0.7966209054
outer loop
vertex -57.70342255 37.46529388 263.5022278
vertex -57.71233368 38.03281403 263.8804626
vertex -57.39504242 37.90053558 263.6746216

endloop
endfacet
facet normal -0.2437739223 0.5015111566 -0.8300969005
outer loop
vertex -57.70342255 37.46529388 263.5022278
vertex -57.39504242 37.90053558 263.6746216
vertex -57.49918365 37.25093842 263.3127441

endloop
endfacet
facet normal -0.3046609759 0.5003338456 -0.8104614019
outer loop
vertex -57.49918365 37.25093842 263.3127441
vertex -57.39504242 37.90053558 263.6746216
vertex -57.10224152 37.66788483 263.420929

endloop
endfacet
facet normal -0.3101718128 0.5043832064 -0.8058480024
outer loop
vertex -57.49918365 37.25093842 263.3127441
vertex -57.10224152 37.66788483 263.420929
vertex -57.29924774 37.005867 263.0823975

endloop
endfacet
facet normal -0.3538092971 0.5071587563 -0.7858809829
outer loop
vertex -57.29924774 37.005867 263.0823975
vertex -57.10224152 37.66788483 263.420929
vertex -56.85391998 37.43036652 263.1558533

endloop
endfacet
facet normal -0.3040363491 0.4629983902 -0.8325829506
outer loop
vertex -57.29924774 37.00588226 263.082428
vertex -56.85391998 37.43035126 263.1558533
vertex -57.03960419 36.73423004 262.8365479

endloop
endfacet
facet normal -0.3206304312 0.4642391205 -0.8256380558
outer loop
vertex -57.03960419 36.73423004 262.8365479
vertex -56.85391998 37.43035126 263.1558533
vertex -56.57837677 37.16664886 262.9005737

endloop
endfacet
facet normal -0.2871006429 0.432759583 -0.8545714617
outer loop
vertex -57.03960419 36.73423004 262.8365479
vertex -56.57837677 37.16664886 262.9005737
vertex -56.74727631 36.44907379 262.5939331

endloop
endfacet
facet normal -0.2917606235 0.433106184 -0.8528157473
outer loop
vertex -56.74727631 36.44907379 262.5939331
vertex -56.57837677 37.16664886 262.9005737
vertex -56.28316498 36.88376617 262.6559143

endloop
endfacet
facet normal -0.2838054001 0.4255776405 -0.8592660427
outer loop
vertex -56.74724579 36.44908905 262.5939331
vertex -56.28313446 36.88379669 262.6559448
vertex -56.47185516 36.1725235 262.3659973

endloop
endfacet
facet normal -0.2975853086 0.4270324111 -0.8538655639
outer loop
vertex -56.47185516 36.1725235 262.3659973
vertex -56.28313446 36.88379669 262.6559448
vertex -56.00868988 36.60903168 262.4228821

endloop
endfacet
facet normal -0.2993023694 0.4286690354 -0.8524441719
outer loop
vertex -56.47185516 36.1725235 262.3659973
vertex -56.00868988 36.60903168 262.4228821
vertex -56.20491791 35.90053558 262.135498

endloop
endfacet
facet normal -0.3166047335 0.4305324256 -0.8452238441
outer loop
vertex -56.20491791 35.90053558 262.135498
vertex -56.00868988 36.60903168 262.4228821
vertex -55.74314117 36.33927155 262.1860046

endloop
endfacet
facet normal -0.3167693019 0.4306893349 -0.8450821638
outer loop
vertex -56.20491791 35.90053558 262.135498
vertex -55.74314117 36.33927155 262.1860046
vertex -55.92105865 35.62140656 261.8868408

endloop
endfacet
facet normal -0.3247905374 0.4312801957 -0.8417295218
outer loop
vertex -55.92105865 35.62140656 261.8868408
vertex -55.74314117 36.33927155 262.1860046
vertex -55.45999908 36.06124115 261.9342957

endloop
endfacet
facet normal -0.3237563968 0.4302935004 -0.8426324129
outer loop
vertex -55.92105865 35.62140656 261.8868408
vertex -55.45999908 36.06124115 261.9342957
vertex -55.64000702 35.34563446 261.638031

endloop
endfacet
facet normal -0.3310734034 0.4308391511 -0.8395045996
outer loop
vertex -55.64000702 35.34563446 261.638031
vertex -55.45999908 36.06124115 261.9342957
vertex -55.17980194 35.78656769 261.6828308

endloop
endfacet
facet normal -0.3325841725 0.4322357476 -0.8381884694
outer loop
vertex -55.63999176 35.34564972 261.6380615
vertex -55.17977142 35.78658295 261.6828308
vertex -55.38513947 35.08304596 261.4015198

endloop
endfacet
facet normal -0.3521019816 0.4342994094 -0.8291007876
outer loop
vertex -55.38513947 35.08304596 261.4015198
vertex -55.17977142 35.78658295 261.6828308
vertex -54.92705536 35.52684784 261.4394531

endloop
endfacet
facet normal -0.3523768187 0.4345614016 -0.8288467526
outer loop
vertex -55.38513947 35.08304596 261.4015198
vertex -54.92705536 35.52684784 261.4394531
vertex -55.12384796 34.81809235 261.1515198

endloop
endfacet
facet normal -0.3684571385 0.4358879626 -0.8211217523
outer loop
vertex -55.12384796 34.81809235 261.1515198
vertex -54.92705536 35.52684784 261.4394531
vertex -54.66834259 35.26372528 261.1836853

endloop
endfacet
facet normal -0.3451504111 0.4136077166 -0.8424962759
outer loop
vertex -55.12384796 34.81809235 261.1515198
vertex -54.66834259 35.26372528 261.1836853
vertex -54.81983185 34.54235077 260.8916016

endloop
endfacet
facet normal -0.3392583728 0.4133825898 -0.8449962139
outer loop
vertex -54.81983185 34.54235077 260.8916016
vertex -54.66834259 35.26372528 261.1836853
vertex -54.37166595 34.97914886 260.925354

endloop
endfacet
facet normal -0.226447463 0.3038500249 -0.9254170656
outer loop
vertex -54.81983185 34.54235077 260.8916016
vertex -54.37166595 34.97914886 260.925354
vertex -54.44712067 34.26337433 260.7088013

endloop
endfacet
facet normal -0.187510103 0.302500397 -0.9345231652
outer loop
vertex -54.44712067 34.26337433 260.7088013
vertex -54.37166595 34.97914886 260.925354
vertex -54.03638458 34.65486908 260.7531128

endloop
endfacet
facet normal 0.005988478195 0.1062598228 -0.9943203926
outer loop
vertex -54.44712067 34.26337433 260.7088013
vertex -54.03638458 34.65486908 260.7531128
vertex -54.03330231 34.0233078 260.6856384

endloop
endfacet
facet normal 0.1046127453 0.1061547101 -0.9888312817
outer loop
vertex -54.03330231 34.0233078 260.6856384
vertex -54.03638458 34.65486908 260.7531128
vertex -53.70478058 34.32552338 260.7528381

endloop
endfacet
facet normal 0.1576063484 0.04788926244 -0.9863400459
outer loop
vertex -54.03331757 34.0233078 260.6856689
vertex -53.70478058 34.32550812 260.7528381
vertex -53.71949005 33.83336639 260.726593

endloop
endfacet
facet normal 0.2628801763 0.04354315996 -0.9638454318
outer loop
vertex -53.71949005 33.83336639 260.726593
vertex -53.70478058 34.32550812 260.7528381
vertex -53.47264862 34.0575943 260.8040466

endloop
endfacet
facet normal 0.6700540781 -0.5758041739 -0.4684838355
outer loop
vertex -53.71949005 33.83336639 260.726593
vertex -53.47264862 34.0575943 260.8040466
vertex -53.48180389 33.63375092 261.3118896

endloop
endfacet
facet normal -0.8964827657 0.3479885459 0.2742672861
outer loop
vertex -53.48180389 33.63375092 261.3118896
vertex -53.47264862 34.0575943 260.8040466
vertex -53.48181915 33.63373566 261.3118591

endloop
endfacet
facet normal -0.6376684308 0.6889870763 -0.3444935381
outer loop
vertex -59.00510406 38.20944977 265.1456909
vertex -59.00510406 38.20946503 265.1457214
vertex -58.62058258 38.29027557 264.5955811

endloop
endfacet
facet normal -0.4297212064 0.8867967129 -0.1700920761
outer loop
vertex -58.62058258 38.29027557 264.5955811
vertex -59.00510406 38.20946503 265.1457214
vertex -58.43991852 38.41681671 264.7988892

endloop
endfacet
facet normal 0.05387279764 0.8255729079 -0.5617179275
outer loop
vertex -58.62058258 38.29027557 264.5955811
vertex -58.43991852 38.41681671 264.7988892
vertex -58.24771881 38.10759735 264.362854

endloop
endfacet
facet normal 0.06044611707 0.8265933394 -0.5595441461
outer loop
vertex -58.24771881 38.10759735 264.362854
vertex -58.43991852 38.41681671 264.7988892
vertex -58.00849152 38.26171112 264.6163635

endloop
endfacet
facet normal -0.2284317464 0.9125578403 -0.3392007351
outer loop
vertex -58.24771881 38.10759735 264.362854
vertex -58.00849152 38.26171112 264.6163635
vertex -57.99904633 38.06871796 264.0907898

endloop
endfacet
facet normal -0.2573919892 0.9055790901 -0.3371585608
outer loop
vertex -57.99904633 38.06871796 264.0907898
vertex -58.00849152 38.26171112 264.6163635
vertex -57.72562408 38.26767731 264.4164429

endloop
endfacet
facet normal -0.1797463894 0.8993599415 -0.3985511363
outer loop
vertex -57.99904633 38.06871796 264.0907898
vertex -57.72562408 38.26767731 264.4164429
vertex -57.71233368 38.03281403 263.8804626

endloop
endfacet
facet normal -0.1827384084 0.8988272548 -0.3983919322
outer loop
vertex -57.71233368 38.03281403 263.8804626
vertex -57.72562408 38.26767731 264.4164429
vertex -57.43747711 38.25873566 264.2640991

endloop
endfacet
facet normal 0.02034724876 0.8550650477 -0.5181214213
outer loop
vertex -57.71233368 38.03281403 263.8804626
vertex -57.43747711 38.25873566 264.2640991
vertex -57.39504242 37.90053558 263.6746216

endloop
endfacet
facet normal 0.01255076006 0.8549260497 -0.5185981393
outer loop
vertex -57.39504242 37.90053558 263.6746216
vertex -57.43747711 38.25873566 264.2640991
vertex -57.08209991 38.12717438 264.0558167

endloop
endfacet
facet normal 0.1308383942 0.8012782335 -0.5838103294
outer loop
vertex -57.39504242 37.90053558 263.6746216
vertex -57.08209991 38.12717438 264.0558167
vertex -57.10224152 37.66788483 263.420929

endloop
endfacet
facet normal 0.0628612414 0.8076683283 -0.5862765908
outer loop
vertex -57.10224152 37.66788483 263.420929
vertex -57.08209991 38.12717438 264.0558167
vertex -56.7067337 37.88498688 263.7624207

endloop
endfacet
facet normal 0.09751863778 0.7848787904 -0.6119275689
outer loop
vertex -57.10224152 37.66788483 263.420929
vertex -56.7067337 37.88498688 263.7624207
vertex -56.85391998 37.43036652 263.1558533

endloop
endfacet
facet normal 0.04798080027 0.7936493754 -0.6064804792
outer loop
vertex -56.85391998 37.43036652 263.1558533
vertex -56.7067337 37.88498688 263.7624207
vertex -56.40363312 37.6513443 263.4806519

endloop
endfacet
facet normal 0.1067661047 0.7469028831 -0.6563056111
outer loop
vertex -56.85391998 37.43035126 263.1558533
vertex -56.40363312 37.65135956 263.4806213
vertex -56.57837677 37.16664886 262.9005737

endloop
endfacet
facet normal 0.08961760998 0.7508129478 -0.6544069648
outer loop
vertex -56.57837677 37.16664886 262.9005737
vertex -56.40363312 37.65135956 263.4806213
vertex -56.10837555 37.39180756 263.2232666

endloop
endfacet
facet normal 0.1239459217 0.719948411 -0.6828702688
outer loop
vertex -56.57837677 37.16664886 262.9005737
vertex -56.10837555 37.39180756 263.2232666
vertex -56.28316498 36.88376617 262.6559143

endloop
endfacet
facet normal 0.1193563491 0.7210923433 -0.6824806929
outer loop
vertex -56.28316498 36.88376617 262.6559143
vertex -56.10837555 37.39180756 263.2232666
vertex -55.80898285 37.11011505 262.9779968

endloop
endfacet
facet normal 0.1280981153 0.712831974 -0.6895372272
outer loop
vertex -56.28313446 36.88379669 262.6559448
vertex -55.80896759 37.11011505 262.9779968
vertex -56.00868988 36.60903168 262.4228821

endloop
endfacet
facet normal 0.1141606644 0.7166793942 -0.6879956722
outer loop
vertex -56.00868988 36.60903168 262.4228821
vertex -55.80896759 37.11011505 262.9779968
vertex -55.53087616 36.83631134 262.7389221

endloop
endfacet
facet normal 0.1142242104 0.7166187763 -0.6880481243
outer loop
vertex -56.00868988 36.60903168 262.4228821
vertex -55.53087616 36.83631134 262.7389221
vertex -55.74314117 36.33927155 262.1860046

endloop
endfacet
facet normal 0.09691013396 0.7214025259 -0.6857016087
outer loop
vertex -55.74314117 36.33927155 262.1860046
vertex -55.53087616 36.83631134 262.7389221
vertex -55.2609024 36.56769562 262.4944763

endloop
endfacet
facet normal 0.09761085361 0.7207357287 -0.6863033175
outer loop
vertex -55.74314117 36.33927155 262.1860046
vertex -55.2609024 36.56769562 262.4944763
vertex -55.45999908 36.06124115 261.9342957

endloop
endfacet
facet normal 0.08946651965 0.7227829099 -0.6852594614
outer loop
vertex -55.45999908 36.06124115 261.9342957
vertex -55.2609024 36.56769562 262.4944763
vertex -54.9756546 36.29024506 262.2390747

endloop
endfacet
facet normal 0.09096652269 0.7213522196 -0.686568141
outer loop
vertex -55.45999908 36.06124115 261.9342957
vertex -54.9756546 36.29024506 262.2390747
vertex -55.17980194 35.78656769 261.6828308

endloop
endfacet
facet normal 0.08327344805 0.7232928276 -0.6855019927
outer loop
vertex -55.17980194 35.78656769 261.6828308
vertex -54.9756546 36.29024506 262.2390747
vertex -54.6936264 36.01615143 261.9841309

endloop
endfacet
facet normal 0.0832804665 0.7233266234 -0.6854655147
outer loop
vertex -55.17977142 35.78658295 261.6828308
vertex -54.69361115 36.01616669 261.9841614
vertex -54.92705536 35.52684784 261.4394531

endloop
endfacet
facet normal 0.06321955472 0.728808701 -0.6817926168
outer loop
vertex -54.92705536 35.52684784 261.4394531
vertex -54.69361115 36.01616669 261.9841614
vertex -54.43624115 35.7579422 261.7319946

endloop
endfacet
facet normal 0.06459969282 0.7274922132 -0.6830680966
outer loop
vertex -54.92705536 35.52684784 261.4394531
vertex -54.43624115 35.7579422 261.7319946
vertex -54.66834259 35.26372528 261.1836853

endloop
endfacet
facet normal 0.04792997241 0.7317683101 -0.6798660755
outer loop
vertex -54.66834259 35.26372528 261.1836853
vertex -54.43624115 35.7579422 261.7319946
vertex -54.17444611 35.4957962 261.4682922

endloop
endfacet
facet normal 0.07043296844 0.7097284794 -0.7009456158
outer loop
vertex -54.66834259 35.26372528 261.1836853
vertex -54.17444611 35.4957962 261.4682922
vertex -54.37166595 34.97914886 260.925354

endloop
endfacet
facet normal 0.07667952776 0.7082384229 -0.7017966509
outer loop
vertex -54.37166595 34.97914886 260.925354
vertex -54.17444611 35.4957962 261.4682922
vertex -53.88802338 35.20662689 261.2077637

endloop
endfacet
facet normal 0.1758742183 0.5974167585 -0.7824075222
outer loop
vertex -54.37166595 34.97914886 260.925354
vertex -53.88802338 35.20662689 261.2077637
vertex -54.03638458 34.65486908 260.7531128

endloop
endfacet
facet normal 0.219373852 0.5846267343 -0.7810804844
outer loop
vertex -54.03638458 34.65486908 260.7531128
vertex -53.88802338 35.20662689 261.2077637
vertex -53.60645294 34.85874176 261.0264587

endloop
endfacet
facet normal 0.3670013845 0.3702295423 -0.853369832
outer loop
vertex -54.03638458 34.65486908 260.7531128
vertex -53.60645294 34.85874176 261.0264587
vertex -53.70478058 34.32552338 260.7528381

endloop
endfacet
facet normal 0.4809935689 0.3284326196 -0.8128820062
outer loop
vertex -53.70478058 34.32552338 260.7528381
vertex -53.60645294 34.85874176 261.0264587
vertex -53.38759613 34.48300934 261.0041504

endloop
endfacet
facet normal 0.5056713223 0.2823143899 -0.8152269721
outer loop
vertex -53.70478058 34.32550812 260.7528381
vertex -53.38759613 34.48299408 261.0041199
vertex -53.47264862 34.0575943 260.8040466

endloop
endfacet
facet normal 0.630830586 0.223357439 -0.743077457
outer loop
vertex -53.47264862 34.0575943 260.8040466
vertex -53.38759613 34.48299408 261.0041199
vertex -53.25978851 34.18141937 261.0219727

endloop
endfacet
facet normal 0.7387893796 -0.5238942504 -0.4239399433
outer loop
vertex -53.47264862 34.0575943 260.8040466
vertex -53.25978851 34.18141937 261.0219727
vertex -53.48181915 33.63373566 261.3118591

endloop
endfacet
facet normal 0.82359308 -0.4875087142 -0.2898788154
outer loop
vertex -53.48181915 33.63373566 261.3118591
vertex -53.25978851 34.18141937 261.0219727
vertex -53.48178864 33.63375092 261.3119202

endloop
endfacet
facet normal 0.05362698808 -0.8931401372 -0.4465700686
outer loop
vertex -59.00510406 38.20946503 265.1457214
vertex -59.00510406 38.20948029 265.1456909
vertex -58.43991852 38.41681671 264.7988892

endloop
endfacet
facet normal -0.2798961699 0.953265965 0.1137637571
outer loop
vertex -58.43991852 38.41681671 264.7988892
vertex -59.00510406 38.20948029 265.1456909
vertex -58.30084991 38.4222641 265.0953979

endloop
endfacet
facet normal 0.2785207629 0.9489482045 -0.1480657011
outer loop
vertex -58.43991852 38.41681671 264.7988892
vertex -58.30084991 38.4222641 265.0953979
vertex -58.00849152 38.26171112 264.6163635

endloop
endfacet
facet normal 0.2949162722 0.9456570745 -0.1369563341
outer loop
vertex -58.00849152 38.26171112 264.6163635
vertex -58.30084991 38.4222641 265.0953979
vertex -57.8083725 38.25150299 264.9768066

endloop
endfacet
facet normal -0.0007720855065 0.9995867014 0.02873801813
outer loop
vertex -58.00849152 38.26171112 264.6163635
vertex -57.8083725 38.25150299 264.9768066
vertex -57.72562408 38.26767731 264.4164429

endloop
endfacet
facet normal 0.001840245095 0.9995741248 0.02912341431
outer loop
vertex -57.72562408 38.26767731 264.4164429
vertex -57.8083725 38.25150299 264.9768066
vertex -57.48342133 38.25417328 264.864624

endloop
endfacet
facet normal 0.03649939969 0.9992796779 0.01038429514
outer loop
vertex -57.72562408 38.26767731 264.4164429
vertex -57.48342133 38.25417328 264.864624
vertex -57.43747711 38.25873566 264.2640991

endloop
endfacet
facet normal 0.04040970281 0.9991260767 0.01068229228
outer loop
vertex -57.43747711 38.25873566 264.2640991
vertex -57.48342133 38.25417328 264.864624
vertex -57.19412994 38.24341583 264.7764282

endloop
endfacet
facet normal 0.2885231674 0.9512943625 -0.10859745
outer loop
vertex -57.43747711 38.25873566 264.2640991
vertex -57.19412994 38.24341583 264.7764282
vertex -57.08209991 38.12717438 264.0558167

endloop
endfacet
facet normal 0.2740463614 0.9552330375 -0.1114834473
outer loop
vertex -57.08209991 38.12717438 264.0558167
vertex -57.19412994 38.24341583 264.7764282
vertex -56.8143692 38.11183929 264.58255

endloop
endfacet
facet normal 0.4234816432 0.885871768 -0.1894585043
outer loop
vertex -57.08209991 38.12717438 264.0558167
vertex -56.8143692 38.11183929 264.58255
vertex -56.7067337 37.88498688 263.7624207

endloop
endfacet
facet normal 0.3599553704 0.9102710485 -0.2045448273
outer loop
vertex -56.7067337 37.88498688 263.7624207
vertex -56.8143692 38.11183929 264.58255
vertex -56.37540436 37.8702774 264.2800293

endloop
endfacet
facet normal 0.4326236844 0.8655433059 -0.2523320317
outer loop
vertex -56.7067337 37.88498688 263.7624207
vertex -56.37540436 37.8702774 264.2800293
vertex -56.40363312 37.6513443 263.4806519

endloop
endfacet
facet normal 0.3831672966 0.8873348236 -0.2565537691
outer loop
vertex -56.40363312 37.6513443 263.4806519
vertex -56.37540436 37.8702774 264.2800293
vertex -56.01990509 37.63637543 264.0019836

endloop
endfacet
facet normal 0.4581544697 0.8318281174 -0.3132993877
outer loop
vertex -56.40363312 37.65135956 263.4806213
vertex -56.01990509 37.63637543 264.0019836
vertex -56.10837555 37.39180756 263.2232666

endloop
endfacet
facet normal 0.4413111508 0.8405742645 -0.3141326606
outer loop
vertex -56.10837555 37.39180756 263.2232666
vertex -56.01990509 37.63637543 264.0019836
vertex -55.70433807 37.37656403 263.7500916

endloop
endfacet
facet normal 0.478625834 0.8079552054 -0.3436942399
outer loop
vertex -56.10837555 37.39180756 263.2232666
vertex -55.70433807 37.37656403 263.7500916
vertex -55.80898285 37.11011505 262.9779968

endloop
endfacet
facet normal 0.474365443 0.8103571534 -0.3439457417
outer loop
vertex -55.80898285 37.11011505 262.9779968
vertex -55.70433807 37.37656403 263.7500916
vertex -55.40015411 37.09474945 263.5056458

endloop
endfacet
facet normal 0.4849725962 0.8003460169 -0.3524881005
outer loop
vertex -55.80896759 37.11011505 262.9779968
vertex -55.40015411 37.09477997 263.5056458
vertex -55.53087616 36.83631134 262.7389221

endloop
endfacet
facet normal 0.4720550776 0.8078843355 -0.3528269529
outer loop
vertex -55.53087616 36.83631134 262.7389221
vertex -55.40015411 37.09477997 263.5056458
vertex -55.11449432 36.82086945 263.2606506

endloop
endfacet
facet normal 0.4766179025 0.8035382628 -0.3565971255
outer loop
vertex -55.53087616 36.83631134 262.7389221
vertex -55.11449432 36.82086945 263.2606506
vertex -55.2609024 36.56769562 262.4944763

endloop
endfacet
facet normal 0.4601267278 0.8130915761 -0.356602639
outer loop
vertex -55.2609024 36.56769562 262.4944763
vertex -55.11449432 36.82086945 263.2606506
vertex -54.83507538 36.55219269 263.0085754

endloop
endfacet
facet normal 0.4643828273 0.8090541959 -0.3602496982
outer loop
vertex -55.2609024 36.56769562 262.4944763
vertex -54.83507538 36.55219269 263.0085754
vertex -54.9756546 36.29024506 262.2390747

endloop
endfacet
facet normal 0.456677556 0.8133970499 -0.3603203595
outer loop
vertex -54.9756546 36.29024506 262.2390747
vertex -54.83507538 36.55219269 263.0085754
vertex -54.54532623 36.27472687 262.7494507

endloop
endfacet
facet normal 0.4596685171 0.8105477095 -0.3629288971
outer loop
vertex -54.9756546 36.29024506 262.2390747
vertex -54.54532623 36.27472687 262.7494507
vertex -54.6936264 36.01615143 261.9841309

endloop
endfacet
facet normal 0.4523536861 0.8146644235 -0.3629022837
outer loop
vertex -54.6936264 36.01615143 261.9841309
vertex -54.54532623 36.27472687 262.7494507
vertex -54.25908661 36.00060272 262.4908752

endloop
endfacet
facet normal 0.4557023346 0.8114697337 -0.3658581376
outer loop
vertex -54.69361115 36.01616669 261.9841614
vertex -54.25908661 36.00061798 262.4909058
vertex -54.43624115 35.7579422 261.7319946

endloop
endfacet
facet normal 0.436696738 0.8222882152 -0.3648810089
outer loop
vertex -54.43624115 35.7579422 261.7319946
vertex -54.25908661 36.00061798 262.4909058
vertex -53.99112701 35.74227142 262.2294006

endloop
endfacet
facet normal 0.4433348477 0.81596452 -0.3710204363
outer loop
vertex -54.43624115 35.7579422 261.7319946
vertex -53.99112701 35.74227142 262.2294006
vertex -54.17444611 35.4957962 261.4682922

endloop
endfacet
facet normal 0.4274449348 0.82482934 -0.3700639606
outer loop
vertex -54.17444611 35.4957962 261.4682922
vertex -53.99112701 35.74227142 262.2294006
vertex -53.72106171 35.48004913 261.9568787

endloop
endfacet
facet normal 0.4513476193 0.8011429906 -0.3930078447
outer loop
vertex -54.17444611 35.4957962 261.4682922
vertex -53.72106171 35.48004913 261.9568787
vertex -53.88802338 35.20662689 261.2077637

endloop
endfacet
facet normal 0.4574956596 0.7976085544 -0.3930880725
outer loop
vertex -53.88802338 35.20662689 261.2077637
vertex -53.72106171 35.48004913 261.9568787
vertex -53.44609833 35.191185 261.6907654

endloop
endfacet
facet normal 0.5451115966 0.6896419525 -0.4767045379
outer loop
vertex -53.88802338 35.20662689 261.2077637
vertex -53.44609833 35.191185 261.6907654
vertex -53.60645294 34.85874176 261.0264587

endloop
endfacet
facet normal 0.5880179405 0.6575614214 -0.4710072279
outer loop
vertex -53.60645294 34.85874176 261.0264587
vertex -53.44609833 35.191185 261.6907654
vertex -53.22574615 34.84490204 261.4824219

endloop
endfacet
facet normal 0.6961271763 0.4391984642 -0.5679010749
outer loop
vertex -53.60645294 34.85874176 261.0264587
vertex -53.22574615 34.84490204 261.4824219
vertex -53.38759613 34.48300934 261.0041504

endloop
endfacet
facet normal 0.7987115979 0.3179343045 -0.510859549
outer loop
vertex -53.38759613 34.48300934 261.0041504
vertex -53.22574615 34.84490204 261.4824219
vertex -53.13195038 34.47255707 261.3973389

endloop
endfacet
facet normal 0.8010525107 0.3091423512 -0.5125875473
outer loop
vertex -53.38759613 34.48299408 261.0041199
vertex -53.13195038 34.47255707 261.3973389
vertex -53.25978851 34.18141937 261.0219727

endloop
endfacet
facet normal 0.9027309418 0.1316644102 -0.4095624685
outer loop
vertex -53.25978851 34.18141937 261.0219727
vertex -53.13195038 34.47255707 261.3973389
vertex -53.11223602 34.18654633 261.3488464

endloop
endfacet
facet normal 0.7897849083 -0.5046979189 -0.3485968411
outer loop
vertex -53.25978851 34.18141937 261.0219727
vertex -53.11223602 34.18654633 261.3488464
vertex -53.48178864 33.63375092 261.3119202

endloop
endfacet
facet normal -0.7018219829 0.4313366711 0.5669167638
outer loop
vertex -53.48178864 33.63375092 261.3119202
vertex -53.11223602 34.18654633 261.3488464
vertex -53.48180389 33.63376617 261.3118896

endloop
endfacet
facet normal 0.07123169303 -0 0.9974597692
outer loop
vertex -59.00510406 38.20948029 265.1456909
vertex -59.00510406 38.20946503 265.1456909
vertex -58.30084991 38.4222641 265.0953979

endloop
endfacet
facet normal -0.2346415669 0.8760886788 0.4212029874
outer loop
vertex -58.30084991 38.4222641 265.0953979
vertex -59.00510406 38.20946503 265.1456909
vertex -58.2592392 38.29807281 265.3768921

endloop
endfacet
facet normal 0.3788404465 0.866101265 0.3261112273
outer loop
vertex -58.30084991 38.4222641 265.0953979
vertex -58.2592392 38.29807281 265.3768921
vertex -57.8083725 38.25150299 264.9768066

endloop
endfacet
facet normal 0.3905650973 0.8552541137 0.3405866623
outer loop
vertex -57.8083725 38.25150299 264.9768066
vertex -58.2592392 38.29807281 265.3768921
vertex -57.72579193 38.08592987 265.2978821

endloop
endfacet
facet normal 0.1394700855 0.8942517638 0.4252786338
outer loop
vertex -57.8083725 38.25150299 264.9768066
vertex -57.72579193 38.08592987 265.2978821
vertex -57.48342133 38.25417328 264.864624

endloop
endfacet
facet normal 0.1676563919 0.8837195635 0.4369565845
outer loop
vertex -57.48342133 38.25417328 264.864624
vertex -57.72579193 38.08592987 265.2978821
vertex -57.36782074 38.04010773 265.2532043

endloop
endfacet
facet normal 0.1662161499 0.88376683 0.4374110997
outer loop
vertex -57.48342133 38.25417328 264.864624
vertex -57.36782074 38.04010773 265.2532043
vertex -57.19412994 38.24341583 264.7764282

endloop
endfacet
facet normal 0.1868584752 0.8772583008 0.4421557486
outer loop
vertex -57.19412994 38.24341583 264.7764282
vertex -57.36782074 38.04010773 265.2532043
vertex -57.07808685 38.0003891 265.2095642

endloop
endfacet
facet normal 0.4577121437 0.8220866323 0.3386342525
outer loop
vertex -57.19412994 38.24341583 264.7764282
vertex -57.07808685 38.0003891 265.2095642
vertex -56.8143692 38.11183929 264.58255

endloop
endfacet
facet normal 0.4373669922 0.8355666399 0.332473278
outer loop
vertex -56.8143692 38.11183929 264.58255
vertex -57.07808685 38.0003891 265.2095642
vertex -56.69690704 37.86800385 265.0408325

endloop
endfacet
facet normal 0.5946112871 0.7629864812 0.2535528541
outer loop
vertex -56.8143692 38.11183929 264.58255
vertex -56.69690704 37.86800385 265.0408325
vertex -56.37540436 37.8702774 264.2800293

endloop
endfacet
facet normal 0.5470119119 0.8038827777 0.2335603535
outer loop
vertex -56.37540436 37.8702774 264.2800293
vertex -56.69690704 37.86800385 265.0408325
vertex -56.23813629 37.63672638 264.7623901

endloop
endfacet
facet normal 0.6359075308 0.7499607801 0.1821547449
outer loop
vertex -56.37540436 37.8702774 264.2800293
vertex -56.23813629 37.63672638 264.7623901
vertex -56.01990509 37.63637543 264.0019836

endloop
endfacet
facet normal 0.5983823538 0.7826690674 0.1713702083
outer loop
vertex -56.01990509 37.63637543 264.0019836
vertex -56.23813629 37.63672638 264.7623901
vertex -55.85338593 37.39859772 264.5065002

endloop
endfacet
facet normal 0.6840365529 0.7205193639 0.1137797758
outer loop
vertex -56.01990509 37.63637543 264.0019836
vertex -55.85338593 37.39861298 264.5065308
vertex -55.70433807 37.37656403 263.7500916

endloop
endfacet
facet normal 0.6713078022 0.7328329682 0.1109127849
outer loop
vertex -55.70433807 37.37656403 263.7500916
vertex -55.85338593 37.39861298 264.5065308
vertex -55.52498627 37.13430023 264.2652588

endloop
endfacet
facet normal 0.7114841938 0.6980670691 0.08057656139
outer loop
vertex -55.70433807 37.37656403 263.7500916
vertex -55.52498627 37.13430023 264.2652588
vertex -55.40015411 37.09474945 263.5056458

endloop
endfacet
facet normal 0.7082535625 0.7014252543 0.07987079769
outer loop
vertex -55.40015411 37.09474945 263.5056458
vertex -55.52498627 37.13430023 264.2652588
vertex -55.21730804 36.85124969 264.0226746

endloop
endfacet
facet normal 0.7209410071 0.6894770861 0.06975173205
outer loop
vertex -55.40015411 37.09477997 263.5056458
vertex -55.21729279 36.85126495 264.0227051
vertex -55.11449432 36.82086945 263.2606506

endloop
endfacet
facet normal 0.7113927603 0.6994909048 0.06806429476
outer loop
vertex -55.11449432 36.82086945 263.2606506
vertex -55.21729279 36.85126495 264.0227051
vertex -54.9232254 36.57637787 263.7741699

endloop
endfacet
facet normal 0.7198901176 0.6913983822 0.06104633957
outer loop
vertex -55.11449432 36.82086945 263.2606506
vertex -54.9232254 36.57637787 263.7741699
vertex -54.83507538 36.55219269 263.0085754

endloop
endfacet
facet normal 0.70781672 0.7039060593 0.05926108733
outer loop
vertex -54.83507538 36.55219269 263.0085754
vertex -54.9232254 36.57637787 263.7741699
vertex -54.63329315 36.30644989 263.5174255

endloop
endfacet
facet normal 0.7150233388 0.6970806122 0.05310707539
outer loop
vertex -54.83507538 36.55219269 263.0085754
vertex -54.63329315 36.30644989 263.5174255
vertex -54.54532623 36.27472687 262.7494507

endloop
endfacet
facet normal 0.7093275189 0.7029425502 0.05221251026
outer loop
vertex -54.54532623 36.27472687 262.7494507
vertex -54.63329315 36.30644989 263.5174255
vertex -54.33844757 36.0283432 263.256012

endloop
endfacet
facet normal 0.7134135365 0.6990522742 0.04865161702
outer loop
vertex -54.54532623 36.27472687 262.7494507
vertex -54.33844757 36.0283432 263.256012
vertex -54.25908661 36.00060272 262.4908752

endloop
endfacet
facet normal 0.7081183195 0.7044668198 0.04790608585
outer loop
vertex -54.25908661 36.00060272 262.4908752
vertex -54.33844757 36.0283432 263.256012
vertex -54.04743195 35.75356293 262.9950867

endloop
endfacet
facet normal 0.7144947648 0.6983669996 0.04219805449
outer loop
vertex -54.25908661 36.00061798 262.4909058
vertex -54.04741669 35.75359344 262.9951172
vertex -53.99112701 35.74227142 262.2294006

endloop
endfacet
facet normal 0.7004505396 0.7125248313 0.04095629603
outer loop
vertex -53.99112701 35.74227142 262.2294006
vertex -54.04741669 35.75359344 262.9951172
vertex -53.76735687 35.49365997 262.7275391

endloop
endfacet
facet normal 0.7118988633 0.7016248703 0.03037365153
outer loop
vertex -53.99112701 35.74227142 262.2294006
vertex -53.76735687 35.49365997 262.7275391
vertex -53.72106171 35.48004913 261.9568787

endloop
endfacet
facet normal 0.6999966502 0.7135387063 0.0294482559
outer loop
vertex -53.72106171 35.48004913 261.9568787
vertex -53.76735687 35.49365997 262.7275391
vertex -53.48731232 35.2304306 262.4488831

endloop
endfacet
facet normal 0.7260966301 0.687581718 0.00387904956
outer loop
vertex -53.72106171 35.48004913 261.9568787
vertex -53.48731232 35.2304306 262.4488831
vertex -53.44609833 35.191185 261.6907654

endloop
endfacet
facet normal 0.7307496667 0.682631433 0.004388267174
outer loop
vertex -53.44609833 35.191185 261.6907654
vertex -53.48731232 35.2304306 262.4488831
vertex -53.22042084 34.9464798 262.1760864

endloop
endfacet
facet normal 0.8147938251 0.5727035999 -0.09011989832
outer loop
vertex -53.44609833 35.191185 261.6907654
vertex -53.22042084 34.9464798 262.1760864
vertex -53.22574615 34.84490204 261.4824219

endloop
endfacet
facet normal 0.8454967737 0.5273769498 -0.0837181434
outer loop
vertex -53.22574615 34.84490204 261.4824219
vertex -53.22042084 34.9464798 262.1760864
vertex -53.04424286 34.62560272 261.934021

endloop
endfacet
facet normal 0.9288497567 0.2873967588 -0.2337546349
outer loop
vertex -53.22574615 34.84490204 261.4824219
vertex -53.04424286 34.62560272 261.934021
vertex -53.13195038 34.47255707 261.3973389

endloop
endfacet
facet normal 0.9743331671 0.1166881099 -0.1925067902
outer loop
vertex -53.13195038 34.47255707 261.3973389
vertex -53.04424286 34.62560272 261.934021
vertex -53.03769684 34.30335236 261.7718201

endloop
endfacet
facet normal 0.9746383429 0.1010357291 -0.1996793896
outer loop
vertex -53.13195038 34.47255707 261.3973389
vertex -53.03768158 34.30335236 261.7718506
vertex -53.11223602 34.18654633 261.3488464

endloop
endfacet
facet normal 0.9787754416 -0.1597212255 -0.1284045428
outer loop
vertex -53.11223602 34.18654633 261.3488464
vertex -53.03768158 34.30335236 261.7718506
vertex -53.09055328 34.06490326 261.6654358

endloop
endfacet
facet normal 0.8111881614 -0.5251258016 -0.2573260665
outer loop
vertex -53.11223602 34.18654633 261.3488464
vertex -53.09055328 34.06490326 261.6654358
vertex -53.48180389 33.63376617 261.3118896

endloop
endfacet
facet normal 0.6700889468 0 -0.7422808409
outer loop
vertex -53.48180389 33.63376617 261.3118896
vertex -53.09055328 34.06490326 261.6654358
vertex -53.48180389 33.63375092 261.3118896

endloop
endfacet
facet normal -nan(ind) -nan(ind) -nan(ind)
outer loop
vertex -59.00510406 38.20946503 265.1456909
vertex -59.00510406 38.20946503 265.1456909
vertex -58.2592392 38.29807281 265.3768921

endloop
endfacet
facet normal -0.2846079469 0.7073065639 0.6470823884
outer loop
vertex -58.2592392 38.29807281 265.3768921
vertex -59.00510406 38.20946503 265.1456909
vertex -58.30886078 38.09931183 265.5723267

endloop
endfacet
facet normal 0.34840855 0.6115199327 0.7103906274
outer loop
vertex -58.2592392 38.29807281 265.3768921
vertex -58.30886078 38.09931183 265.5723267
vertex -57.72579193 38.08592987 265.2978821

endloop
endfacet
facet normal 0.3492715061 0.6087304354 0.7123599648
outer loop
vertex -57.72579193 38.08592987 265.2978821
vertex -58.30886078 38.09931183 265.5723267
vertex -57.74884796 37.84438324 265.5155945

endloop
endfacet
facet normal 0.175482735 0.6498252153 0.73954916
outer loop
vertex -57.72579193 38.08592987 265.2978821
vertex -57.74884796 37.84438324 265.5155945
vertex -57.36782074 38.04010773 265.2532043

endloop
endfacet
facet normal 0.2051400542 0.6180422306 0.7589079142
outer loop
vertex -57.36782074 38.04010773 265.2532043
vertex -57.74884796 37.84438324 265.5155945
vertex -57.37195587 37.72827911 265.5082703

endloop
endfacet
facet normal 0.1992799044 0.6188549995 0.7598065734
outer loop
vertex -57.36782074 38.04010773 265.2532043
vertex -57.37195587 37.72827911 265.5082703
vertex -57.07808685 38.0003891 265.2095642

endloop
endfacet
facet normal 0.2315158099 0.5949226618 0.7697190046
outer loop
vertex -57.07808685 38.0003891 265.2095642
vertex -57.37195587 37.72827911 265.5082703
vertex -57.08242035 37.64632416 265.4845276

endloop
endfacet
facet normal 0.4903343022 0.5308094025 0.6912406683
outer loop
vertex -57.07808685 38.0003891 265.2095642
vertex -57.08242035 37.64632416 265.4845276
vertex -56.69690704 37.86800385 265.0408325

endloop
endfacet
facet normal 0.4692419469 0.5564260483 0.6857127547
outer loop
vertex -56.69690704 37.86800385 265.0408325
vertex -57.08242035 37.64632416 265.4845276
vertex -56.71704865 37.51277924 265.342865

endloop
endfacet
facet normal 0.6193135977 0.4879098833 0.6151377559
outer loop
vertex -56.69690704 37.86800385 265.0408325
vertex -56.71704865 37.51277924 265.342865
vertex -56.23813629 37.63672638 264.7623901

endloop
endfacet
facet normal 0.5862029791 0.544500947 0.5999040008
outer loop
vertex -56.23813629 37.63672638 264.7623901
vertex -56.71704865 37.51277924 265.342865
vertex -56.27510834 37.29642487 265.1073914

endloop
endfacet
facet normal 0.6723074913 0.489741534 0.5551179647
outer loop
vertex -56.23813629 37.63672638 264.7623901
vertex -56.27510834 37.29642487 265.1073914
vertex -55.85338593 37.39859772 264.5065002

endloop
endfacet
facet normal 0.64793998 0.5319238901 0.5451886654
outer loop
vertex -55.85338593 37.39859772 264.5065002
vertex -56.27510834 37.29642487 265.1073914
vertex -55.88491058 37.05217743 264.881958

endloop
endfacet
facet normal 0.7359083891 0.4656677246 0.4915205538
outer loop
vertex -55.85338593 37.39861298 264.5065308
vertex -55.88491058 37.05216217 264.881958
vertex -55.52498627 37.13430023 264.2652588

endloop
endfacet
facet normal 0.7279804349 0.4806568623 0.488890022
outer loop
vertex -55.52498627 37.13430023 264.2652588
vertex -55.88491058 37.05216217 264.881958
vertex -55.55214691 36.7813797 264.6526794

endloop
endfacet
facet normal 0.7698854804 0.4439868629 0.4584233463
outer loop
vertex -55.52498627 37.13430023 264.2652588
vertex -55.55214691 36.7813797 264.6526794
vertex -55.21730804 36.85124969 264.0226746

endloop
endfacet
facet normal 0.7679877281 0.4478548169 0.4578436613
outer loop
vertex -55.21730804 36.85124969 264.0226746
vertex -55.55214691 36.7813797 264.6526794
vertex -55.24274445 36.49649811 264.4123535

endloop
endfacet
facet normal 0.782712996 0.4339411855 0.446156323
outer loop
vertex -55.21729279 36.85126495 264.0227051
vertex -55.24272919 36.49652863 264.4123535
vertex -54.9232254 36.57637787 263.7741699

endloop
endfacet
facet normal 0.7771286368 0.4452483058 0.4447752237
outer loop
vertex -54.9232254 36.57637787 263.7741699
vertex -55.24272919 36.49652863 264.4123535
vertex -54.9416275 36.22014618 264.1629333

endloop
endfacet
facet normal 0.7890583277 0.433866322 0.434910357
outer loop
vertex -54.9232254 36.57637787 263.7741699
vertex -54.9416275 36.22014618 264.1629333
vertex -54.63329315 36.30644989 263.5174255

endloop
endfacet
facet normal 0.7817767859 0.4483489692 0.4333685935
outer loop
vertex -54.63329315 36.30644989 263.5174255
vertex -54.9416275 36.22014618 264.1629333
vertex -54.64272308 35.94838715 263.9048767

endloop
endfacet
facet normal 0.7913432121 0.4392780364 0.4252185524
outer loop
vertex -54.63329315 36.30644989 263.5174255
vertex -54.64272308 35.94838715 263.9048767
vertex -54.33844757 36.0283432 263.256012

endloop
endfacet
facet normal 0.7879636288 0.4460293651 0.4244656265
outer loop
vertex -54.33844757 36.0283432 263.256012
vertex -54.64272308 35.94838715 263.9048767
vertex -54.34355927 35.66938019 263.6427002

endloop
endfacet
facet normal 0.7930960655 0.4411390722 0.4199938178
outer loop
vertex -54.33844757 36.0283432 263.256012
vertex -54.34355927 35.66938019 263.6427002
vertex -54.04743195 35.75356293 262.9950867

endloop
endfacet
facet normal 0.7899258733 0.4473889768 0.4193567038
outer loop
vertex -54.04743195 35.75356293 262.9950867
vertex -54.34355927 35.66938019 263.6427002
vertex -54.04842377 35.39368439 263.3808899

endloop
endfacet
facet normal 0.7994015813 0.438305527 0.410907954
outer loop
vertex -54.04741669 35.75359344 262.9951172
vertex -54.04840851 35.3937149 263.3809204
vertex -53.76735687 35.49365997 262.7275391

endloop
endfacet
facet normal 0.7909442186 0.4544459581 0.4097389877
outer loop
vertex -53.76735687 35.49365997 262.7275391
vertex -54.04840851 35.3937149 263.3809204
vertex -53.75792694 35.1314621 263.1110535

endloop
endfacet
facet normal 0.8065356612 0.4395769238 0.3953130543
outer loop
vertex -53.76735687 35.49365997 262.7275391
vertex -53.75792694 35.1314621 263.1110535
vertex -53.48731232 35.2304306 262.4488831

endloop
endfacet
facet normal 0.7993261814 0.4533308148 0.3944223821
outer loop
vertex -53.48731232 35.2304306 262.4488831
vertex -53.75792694 35.1314621 263.1110535
vertex -53.46894073 34.86672211 262.8296814

endloop
endfacet
facet normal 0.8273855448 0.4255453646 0.36653018
outer loop
vertex -53.48731232 35.2304306 262.4488831
vertex -53.46894073 34.86672211 262.8296814
vertex -53.22042084 34.9464798 262.1760864

endloop
endfacet
facet normal 0.8301720619 0.4197732508 0.3668853343
outer loop
vertex -53.22042084 34.9464798 262.1760864
vertex -53.46894073 34.86672211 262.8296814
vertex -53.20580292 34.59000397 262.5508728

endloop
endfacet
facet normal 0.9157005548 0.3084136248 0.2576304078
outer loop
vertex -53.22042084 34.9464798 262.1760864
vertex -53.20580292 34.59000397 262.5508728
vertex -53.04424286 34.62560272 261.934021

endloop
endfacet
facet normal 0.9306855202 0.2586641908 0.2586840391
outer loop
vertex -53.04424286 34.62560272 261.934021
vertex -53.20580292 34.59000397 262.5508728
vertex -53.05104828 34.30606842 262.2780151

endloop
endfacet
facet normal 0.9996284246 0.007053809706 0.02632843331
outer loop
vertex -53.04424286 34.62560272 261.934021
vertex -53.05104828 34.30606842 262.2780151
vertex -53.03769684 34.30335236 261.7718201

endloop
endfacet
facet normal 0.9874918461 -0.1553618908 0.02687977999
outer loop
vertex -53.03769684 34.30335236 261.7718201
vertex -53.05104828 34.30606842 262.2780151
vertex -53.083992 34.05651093 262.0458679

endloop
endfacet
facet normal 0.9780468345 -0.207274124 -0.02148829773
outer loop
vertex -53.03768158 34.30335236 261.7718506
vertex -53.08397675 34.05649567 262.0458679
vertex -53.09055328 34.06490326 261.6654358

endloop
endfacet
facet normal 0.9005607963 -0.4340014458 -0.02515949681
outer loop
vertex -53.09055328 34.06490326 261.6654358
vertex -53.08397675 34.05649567 262.0458679
vertex -53.1780014 33.87039948 261.8905029

endloop
endfacet
facet normal 0.7984632254 -0.5729456544 -0.1849047691
outer loop
vertex -53.09055328 34.06490326 261.6654358
vertex -53.1780014 33.87039948 261.8905029
vertex -53.48180389 33.63375092 261.3118896

endloop
endfacet
facet normal -0.1534628272 -0.8838322163 0.4419161081
outer loop
vertex -53.48180389 33.63375092 261.3118896
vertex -53.1780014 33.87039948 261.8905029
vertex -53.48180389 33.63376617 261.3119202

endloop
endfacet
facet normal -nan(ind) -nan(ind) -nan(ind)
outer loop
vertex -59.00510406 38.20946503 265.1456909
vertex -59.00510406 38.20946503 265.1456909
vertex -58.30886078 38.09931183 265.5723267

endloop
endfacet
facet normal -0.3963541687 0.4934348762 0.7742257118
outer loop
vertex -58.30886078 38.09931183 265.5723267
vertex -59.00510406 38.20946503 265.1456909
vertex -58.42519379 37.87897491 265.6531982

endloop
endfacet
facet normal 0.2053125948 0.2398610562 0.9488484263
outer loop
vertex -58.30886078 38.09931183 265.5723267
vertex -58.42519379 37.87897491 265.6531982
vertex -57.74884796 37.84438324 265.5155945

endloop
endfacet
facet normal 0.2051773965 0.2736618519 0.9396868944
outer loop
vertex -57.74884796 37.84438324 265.5155945
vertex -58.42519379 37.87897491 265.6531982
vertex -57.85257721 37.58190155 265.6146851

endloop
endfacet
facet normal 0.1141628101 0.3110709786 0.9435049891
outer loop
vertex -57.74884796 37.84438324 265.5155945
vertex -57.85257721 37.58190155 265.6146851
vertex -57.37195587 37.72827911 265.5082703

endloop
endfacet
facet normal 0.1319769323 0.2617197633 0.9560778737
outer loop
vertex -57.37195587 37.72827911 265.5082703
vertex -57.85257721 37.58190155 265.6146851
vertex -57.471138 37.38944244 265.6147156

endloop
endfacet
facet normal 0.1507262141 0.255858928 0.9548915029
outer loop
vertex -57.37195587 37.72827911 265.5082703
vertex -57.471138 37.38944244 265.6147156
vertex -57.08242035 37.64632416 265.4845276

endloop
endfacet
facet normal 0.1824832559 0.2105908394 0.960391283
outer loop
vertex -57.08242035 37.64632416 265.4845276
vertex -57.471138 37.38944244 265.6147156
vertex -57.18228912 37.26161957 265.5878601

endloop
endfacet
facet normal 0.4017085135 0.1388504058 0.9051799774
outer loop
vertex -57.08242035 37.64632416 265.4845276
vertex -57.18228912 37.26161957 265.5878601
vertex -56.71704865 37.51277924 265.342865

endloop
endfacet
facet normal 0.3838580549 0.1736167818 0.9069235325
outer loop
vertex -56.71704865 37.51277924 265.342865
vertex -57.18228912 37.26161957 265.5878601
vertex -56.84386444 37.12680817 265.4704285

endloop
endfacet
facet normal 0.5101097822 0.1141485125 0.8525010943
outer loop
vertex -56.71704865 37.51277924 265.342865
vertex -56.84386444 37.12680817 265.4704285
vertex -56.27510834 37.29642487 265.1073914

endloop
endfacet
facet normal 0.4884569645 0.1865615398 0.8524110317
outer loop
vertex -56.27510834 37.29642487 265.1073914
vertex -56.84386444 37.12680817 265.4704285
vertex -56.44533539 36.92668915 265.2858582

endloop
endfacet
facet normal 0.5586599708 0.1375845969 0.8179055452
outer loop
vertex -56.27510834 37.29642487 265.1073914
vertex -56.44533539 36.92668915 265.2858582
vertex -55.88491058 37.05217743 264.881958

endloop
endfacet
facet normal 0.5459905267 0.1888042241 0.8162397742
outer loop
vertex -55.88491058 37.05217743 264.881958
vertex -56.44533539 36.92668915 265.2858582
vertex -56.06963348 36.67575836 265.0925903

endloop
endfacet
facet normal 0.6283590198 0.1215967014 0.7683614492
outer loop
vertex -55.88491058 37.05216217 264.881958
vertex -56.06963348 36.67575836 265.0925903
vertex -55.55214691 36.7813797 264.6526794

endloop
endfacet
facet normal 0.6249673963 0.1381106824 0.7683366537
outer loop
vertex -55.55214691 36.7813797 264.6526794
vertex -56.06963348 36.67575836 265.0925903
vertex -55.7399826 36.39794159 264.8743896

endloop
endfacet
facet normal 0.6664640903 0.1006527841 0.7387114167
outer loop
vertex -55.55214691 36.7813797 264.6526794
vertex -55.7399826 36.39794159 264.8743896
vertex -55.24274445 36.49649811 264.4123535

endloop
endfacet
facet normal 0.6657427549 0.104702279 0.7387990355
outer loop
vertex -55.24274445 36.49649811 264.4123535
vertex -55.7399826 36.39794159 264.8743896
vertex -55.43053436 36.11104584 264.6362

endloop
endfacet
facet normal 0.6824929714 0.08883356303 0.7254735827
outer loop
vertex -55.24272919 36.49652863 264.4123535
vertex -55.43053436 36.11107635 264.6362305
vertex -54.9416275 36.22014618 264.1629333

endloop
endfacet
facet normal 0.6803200245 0.1007019728 0.7259640098
outer loop
vertex -54.9416275 36.22014618 264.1629333
vertex -55.43053436 36.11107635 264.6362305
vertex -55.12459564 35.83306122 264.388092

endloop
endfacet
facet normal 0.6950086355 0.08666010201 0.7137598395
outer loop
vertex -54.9416275 36.22014618 264.1629333
vertex -55.12459564 35.83306122 264.388092
vertex -54.64272308 35.94838715 263.9048767

endloop
endfacet
facet normal 0.6921523809 0.1018293127 0.7145319581
outer loop
vertex -54.64272308 35.94838715 263.9048767
vertex -55.12459564 35.83306122 264.388092
vertex -54.81952667 35.55930328 264.1315918

endloop
endfacet
facet normal 0.703158915 0.09135498852 0.7051395774
outer loop
vertex -54.64272308 35.94838715 263.9048767
vertex -54.81952667 35.55930328 264.1315918
vertex -54.34355927 35.66938019 263.6427002

endloop
endfacet
facet normal 0.7018355131 0.09859932959 0.7054822445
outer loop
vertex -54.34355927 35.66938019 263.6427002
vertex -54.81952667 35.55930328 264.1315918
vertex -54.51732635 35.2793045 263.8700867

endloop
endfacet
facet normal 0.7078720927 0.09283863008 0.7002128959
outer loop
vertex -54.34355927 35.66938019 263.6427002
vertex -54.51732635 35.2793045 263.8700867
vertex -54.04842377 35.39368439 263.3808899

endloop
endfacet
facet normal 0.7066143751 0.09950913489 0.7005670071
outer loop
vertex -54.04842377 35.39368439 263.3808899
vertex -54.51732635 35.2793045 263.8700867
vertex -54.21924591 35.00261688 263.6087341

endloop
endfacet
facet normal 0.7192298174 0.08738020808 0.6892555356
outer loop
vertex -54.04840851 35.3937149 263.3809204
vertex -54.21924591 35.0026474 263.6087646
vertex -53.75792694 35.1314621 263.1110535

endloop
endfacet
facet normal 0.715811491 0.10428527 0.6904625297
outer loop
vertex -53.75792694 35.1314621 263.1110535
vertex -54.21924591 35.0026474 263.6087646
vertex -53.92139435 34.73789215 263.3399658

endloop
endfacet
facet normal 0.7345051765 0.08641014993 0.6730790138
outer loop
vertex -53.75792694 35.1314621 263.1110535
vertex -53.92139435 34.73789215 263.3399658
vertex -53.46894073 34.86672211 262.8296814

endloop
endfacet
facet normal 0.7316678762 0.1007279679 0.6741780639
outer loop
vertex -53.46894073 34.86672211 262.8296814
vertex -53.92139435 34.73789215 263.3399658
vertex -53.62580109 34.47154999 263.05896

endloop
endfacet
facet normal 0.7603314519 0.07268550247 0.6454555988
outer loop
vertex -53.46894073 34.86672211 262.8296814
vertex -53.62580109 34.47154999 263.05896
vertex -53.20580292 34.59000397 262.5508728

endloop
endfacet
facet normal 0.7613384724 0.06676547229 0.6449078918
outer loop
vertex -53.20580292 34.59000397 262.5508728
vertex -53.62580109 34.47154999 263.05896
vertex -53.36232758 34.20265961 262.7757568

endloop
endfacet
facet normal 0.8508700132 -0.03968280926 0.5238755345
outer loop
vertex -53.20580292 34.59000397 262.5508728
vertex -53.36232758 34.20265961 262.7757568
vertex -53.05104828 34.30606842 262.2780151

endloop
endfacet
facet normal 0.8526138067 -0.08429207653 0.5156981945
outer loop
vertex -53.05104828 34.30606842 262.2780151
vertex -53.36232758 34.20265961 262.7757568
vertex -53.2072525 33.95888519 262.4795227

endloop
endfacet
facet normal 0.9318068027 -0.305421859 0.1960959285
outer loop
vertex -53.05104828 34.30606842 262.2780151
vertex -53.2072525 33.95888519 262.4795227
vertex -53.083992 34.05651093 262.0458679

endloop
endfacet
facet normal 0.8953843117 -0.4151541889 0.1610400379
outer loop
vertex -53.083992 34.05651093 262.0458679
vertex -53.2072525 33.95888519 262.4795227
vertex -53.23509979 33.78820038 262.1943359

endloop
endfacet
facet normal 0.8792799115 -0.4748898149 0.03669545799
outer loop
vertex -53.08397675 34.05649567 262.0458679
vertex -53.23508453 33.78818512 262.1943359
vertex -53.1780014 33.87039948 261.8905029

endloop
endfacet
facet normal 0.7979551554 -0.6025737524 -0.01313361991
outer loop
vertex -53.1780014 33.87039948 261.8905029
vertex -53.23508453 33.78818512 262.1943359
vertex -53.33919525 33.65476227 261.990387

endloop
endfacet
facet normal 0.7607681155 -0.6336783767 -0.1402977109
outer loop
vertex -53.1780014 33.87039948 261.8905029
vertex -53.33919525 33.65476227 261.990387
vertex -53.48180389 33.63376617 261.3119202

endloop
endfacet
facet normal -0.1456890702 0.9893304706 0
outer loop
vertex -53.48180389 33.63376617 261.3119202
vertex -53.33919525 33.65476227 261.990387
vertex -53.48180389 33.63376617 261.3118896

endloop
endfacet
facet normal -nan(ind) -nan(ind) -nan(ind)
outer loop
vertex -59.00510406 38.20946503 265.1456909
vertex -59.00510406 38.20946503 265.1456909
vertex -58.42519379 37.87897491 265.6531982

endloop
endfacet
facet normal -0.5359245539 0.2817574739 0.7958628535
outer loop
vertex -58.42519379 37.87897491 265.6531982
vertex -59.00510406 38.20946503 265.1456909
vertex -58.58600616 37.66895294 265.6192627

endloop
endfacet
facet normal -0.01172267552 -0.1507472247 0.9885028005
outer loop
vertex -58.42519379 37.87897491 265.6531982
vertex -58.58600616 37.66895294 265.6192627
vertex -57.85257721 37.58190155 265.6146851

endloop
endfacet
facet normal -0.003465647809 -0.08160865307 0.9966584444
outer loop
vertex -57.85257721 37.58190155 265.6146851
vertex -58.58600616 37.66895294 265.6192627
vertex -58.02701569 37.31723785 265.5924072

endloop
endfacet
facet normal -0.03185227141 -0.06297059357 0.9975069761
outer loop
vertex -57.85257721 37.58190155 265.6146851
vertex -58.02701569 37.31723785 265.5924072
vertex -57.471138 37.38944244 265.6147156

endloop
endfacet
facet normal -0.02477457374 -0.1160467044 0.9929347634
outer loop
vertex -57.471138 37.38944244 265.6147156
vertex -58.02701569 37.31723785 265.5924072
vertex -57.65543365 37.04755402 265.5701599

endloop
endfacet
facet normal 0.02819485776 -0.144108057 0.9891601801
outer loop
vertex -57.471138 37.38944244 265.6147156
vertex -57.65543365 37.04755402 265.5701599
vertex -57.18228912 37.26161957 265.5878601

endloop
endfacet
facet normal 0.05454769731 -0.2014309615 0.9779826403
outer loop
vertex -57.18228912 37.26161957 265.5878601
vertex -57.65543365 37.04755402 265.5701599
vertex -57.36765289 36.87345123 265.5182495

endloop
endfacet
facet normal 0.2170614898 -0.2717876136 0.9375584722
outer loop
vertex -57.18228912 37.26161957 265.5878601
vertex -57.36765289 36.87345123 265.5182495
vertex -56.84386444 37.12680817 265.4704285

endloop
endfacet
facet normal 0.2007320374 -0.2355067879 0.9509170055
outer loop
vertex -56.84386444 37.12680817 265.4704285
vertex -57.36765289 36.87345123 265.5182495
vertex -57.06511688 36.73737335 265.4206848

endloop
endfacet
facet normal 0.2847071886 -0.2789024115 0.917145133
outer loop
vertex -56.84386444 37.12680817 265.4704285
vertex -57.06511688 36.73737335 265.4206848
vertex -56.44533539 36.92668915 265.2858582

endloop
endfacet
facet normal 0.2635473311 -0.1891340315 0.945923388
outer loop
vertex -56.44533539 36.92668915 265.2858582
vertex -57.06511688 36.73737335 265.4206848
vertex -56.73273468 36.55368805 265.2913513

endloop
endfacet
facet normal 0.3181941509 -0.231631875 0.919292748
outer loop
vertex -56.44533539 36.92668915 265.2858582
vertex -56.73273468 36.55368805 265.2913513
vertex -56.06963348 36.67575836 265.0925903

endloop
endfacet
facet normal 0.3117281199 -0.1716984063 0.9345294237
outer loop
vertex -56.06963348 36.67575836 265.0925903
vertex -56.73273468 36.55368805 265.2913513
vertex -56.38976288 36.29602814 265.1296082

endloop
endfacet
facet normal 0.3872692585 -0.2396983355 0.8902623653
outer loop
vertex -56.06963348 36.67575836 265.0925903
vertex -56.38976288 36.29602814 265.1296082
vertex -55.7399826 36.39794159 264.8743896

endloop
endfacet
facet normal 0.3864578605 -0.2224854678 0.895070076
outer loop
vertex -55.7399826 36.39794159 264.8743896
vertex -56.38976288 36.29602814 265.1296082
vertex -56.07027435 36.01108551 264.9208374

endloop
endfacet
facet normal 0.4261442721 -0.259793371 0.8665497899
outer loop
vertex -55.7399826 36.39794159 264.8743896
vertex -56.07027435 36.01108551 264.9208374
vertex -55.43053436 36.11104584 264.6362

endloop
endfacet
facet normal 0.426061213 -0.25558272 0.8678417802
outer loop
vertex -55.43053436 36.11104584 264.6362
vertex -56.07027435 36.01108551 264.9208374
vertex -55.76241302 35.72214508 264.6846008

endloop
endfacet
facet normal 0.4442030489 -0.2728443146 0.853369534
outer loop
vertex -55.43053436 36.11107635 264.6362305
vertex -55.76241302 35.72214508 264.6846313
vertex -55.12459564 35.83306122 264.388092

endloop
endfacet
facet normal 0.4439260364 -0.2609138191 0.8572360277
outer loop
vertex -55.12459564 35.83306122 264.388092
vertex -55.76241302 35.72214508 264.6846313
vertex -55.45412445 35.44254303 264.4398804

endloop
endfacet
facet normal 0.4606219828 -0.2768481672 0.8433163762
outer loop
vertex -55.12459564 35.83306122 264.388092
vertex -55.45412445 35.44254303 264.4398804
vertex -54.81952667 35.55930328 264.1315918

endloop
endfacet
facet normal 0.4602761567 -0.261909306 0.8482625484
outer loop
vertex -54.81952667 35.55930328 264.1315918
vertex -55.45412445 35.44254303 264.4398804
vertex -55.14598846 35.16675568 264.1875305

endloop
endfacet
facet normal 0.4721251428 -0.2732079327 0.8381260037
outer loop
vertex -54.81952667 35.55930328 264.1315918
vertex -55.14598846 35.16675568 264.1875305
vertex -54.51732635 35.2793045 263.8700867

endloop
endfacet
facet normal 0.4720329046 -0.2661483586 0.840446353
outer loop
vertex -54.51732635 35.2793045 263.8700867
vertex -55.14598846 35.16675568 264.1875305
vertex -54.84229279 34.88576508 263.9279785

endloop
endfacet
facet normal 0.47874704 -0.2725563645 0.8345742822
outer loop
vertex -54.51732635 35.2793045 263.8700867
vertex -54.84229279 34.88576508 263.9279785
vertex -54.21924591 35.00261688 263.6087341

endloop
endfacet
facet normal 0.4786327481 -0.2659688294 0.8367624283
outer loop
vertex -54.21924591 35.00261688 263.6087341
vertex -54.84229279 34.88576508 263.9279785
vertex -54.54264069 34.60805511 263.6683044

endloop
endfacet
facet normal 0.4937101603 -0.280344516 0.8231993318
outer loop
vertex -54.21924591 35.0026474 263.6087646
vertex -54.54262543 34.60807037 263.668335
vertex -53.92139435 34.73789215 263.3399658

endloop
endfacet
facet normal 0.493262291 -0.2635018229 0.8290109038
outer loop
vertex -53.92139435 34.73789215 263.3399658
vertex -54.54262543 34.60807037 263.668335
vertex -54.24082184 34.34079742 263.4038086

endloop
endfacet
facet normal 0.5141586065 -0.283447057 0.8095052242
outer loop
vertex -53.92139435 34.73789215 263.3399658
vertex -54.24082184 34.34079742 263.4038086
vertex -53.62580109 34.47154999 263.05896

endloop
endfacet
facet normal 0.5139293671 -0.2691956758 0.8145000339
outer loop
vertex -53.62580109 34.47154999 263.05896
vertex -54.24082184 34.34079742 263.4038086
vertex -53.94127655 34.07286835 263.1262512

endloop
endfacet
facet normal 0.5423642993 -0.2964917719 0.786087513
outer loop
vertex -53.62580109 34.47154999 263.05896
vertex -53.94127655 34.07286835 263.1262512
vertex -53.36232758 34.20265961 262.7757568

endloop
endfacet
facet normal 0.5423384905 -0.3020426333 0.7839892507
outer loop
vertex -53.36232758 34.20265961 262.7757568
vertex -53.94127655 34.07286835 263.1262512
vertex -53.67353058 33.81188202 262.8404846

endloop
endfacet
facet normal 0.6367637515 -0.3976791203 0.6605930328
outer loop
vertex -53.36232758 34.20265961 262.7757568
vertex -53.67353058 33.81188202 262.8404846
vertex -53.2072525 33.95888519 262.4795227

endloop
endfacet
facet normal 0.6332256198 -0.4325250983 0.6418313384
outer loop
vertex -53.2072525 33.95888519 262.4795227
vertex -53.67353058 33.81188202 262.8404846
vertex -53.49723053 33.60861969 262.5295715

endloop
endfacet
facet normal 0.7590275407 -0.5886350274 0.2781833112
outer loop
vertex -53.2072525 33.95888519 262.4795227
vertex -53.49723053 33.60861969 262.5295715
vertex -53.23509979 33.78820038 262.1943359

endloop
endfacet
facet normal 0.7327286005 -0.6405425072 0.2298133522
outer loop
vertex -53.23509979 33.78820038 262.1943359
vertex -53.49723053 33.60861969 262.5295715
vertex -53.47690582 33.51769257 262.2113342

endloop
endfacet
facet normal 0.7460963726 -0.6636990309 0.05332701281
outer loop
vertex -53.23508453 33.78818512 262.1943359
vertex -53.47690582 33.51770782 262.2113342
vertex -53.33919525 33.65476227 261.990387

endloop
endfacet
facet normal 0.7063968182 -0.7078149915 0.001218066784
outer loop
vertex -53.33919525 33.65476227 261.990387
vertex -53.47690582 33.51770782 262.2113342
vertex -53.54520416 33.44911957 261.9633484

endloop
endfacet
facet normal 0.7090418339 -0.693531692 -0.1275672615
outer loop
vertex -53.33919525 33.65476227 261.990387
vertex -53.54520416 33.44911957 261.9633484
vertex -53.48180389 33.63376617 261.3118896

endloop
endfacet
facet normal 0.9952941537 0 0.09689942002
outer loop
vertex -53.48180389 33.63376617 261.3118896
vertex -53.54520416 33.44911957 261.9633484
vertex -53.48180389 33.63375092 261.3118896

endloop
endfacet
facet normal -0.7488638759 0 0.6627237797
outer loop
vertex -59.00510406 38.20946503 265.1456909
vertex -59.00510406 38.20944977 265.1456909
vertex -58.58600616 37.66895294 265.6192627

endloop
endfacet
facet normal -0.6866198182 0.09869848937 0.7202859521
outer loop
vertex -58.58600616 37.66895294 265.6192627
vertex -59.00510406 38.20944977 265.1456909
vertex -58.76085663 37.51111603 265.4742126

endloop
endfacet
facet normal -0.2616413534 -0.4797794521 0.8374696374
outer loop
vertex -58.58600616 37.66895294 265.6192627
vertex -58.76085663 37.51111603 265.4742126
vertex -58.02701569 37.31723785 265.5924072

endloop
endfacet
facet normal -0.2451811433 -0.3858189881 0.8893985748
outer loop
vertex -58.02701569 37.31723785 265.5924072
vertex -58.76085663 37.51111603 265.4742126
vertex -58.24462128 37.10384369 265.4398499

endloop
endfacet
facet normal -0.2342048585 -0.3959444463 0.8879054785
outer loop
vertex -58.02701569 37.31723785 265.5924072
vertex -58.24462128 37.10384369 265.4398499
vertex -57.65543365 37.04755402 265.5701599

endloop
endfacet
facet normal -0.2338635176 -0.4355647564 0.8692475557
outer loop
vertex -57.65543365 37.04755402 265.5701599
vertex -58.24462128 37.10384369 265.4398499
vertex -57.89698029 36.77162933 265.3669128

endloop
endfacet
facet normal -0.1480442137 -0.4992511868 0.8537160754
outer loop
vertex -57.65543365 37.04755402 265.5701599
vertex -57.89698029 36.77162933 265.3669128
vertex -57.36765289 36.87345123 265.5182495

endloop
endfacet
facet normal -0.1296084374 -0.5512443781 0.824215591
outer loop
vertex -57.36765289 36.87345123 265.5182495
vertex -57.89698029 36.77162933 265.3669128
vertex -57.61049652 36.56017303 265.2705383

endloop
endfacet
facet normal -0.01946381107 -0.6107954979 0.7915490866
outer loop
vertex -57.36765289 36.87345123 265.5182495
vertex -57.61049652 36.56017303 265.2705383
vertex -57.06511688 36.73737335 265.4206848

endloop
endfacet
facet normal -0.03494976461 -0.5812733173 0.8129574656
outer loop
vertex -57.06511688 36.73737335 265.4206848
vertex -57.61049652 36.56017303 265.2705383
vertex -57.34654999 36.42308807 265.1838684

endloop
endfacet
facet normal -0.01469981857 -0.5932970643 0.8048493862
outer loop
vertex -57.06511688 36.73737335 265.4206848
vertex -57.34654999 36.42308807 265.1838684
vertex -56.73273468 36.55368805 265.2913513

endloop
endfacet
facet normal -0.04944483563 -0.4858088493 0.8726654649
outer loop
vertex -56.73273468 36.55368805 265.2913513
vertex -57.34654999 36.42308807 265.1838684
vertex -57.09218597 36.25258636 265.103363

endloop
endfacet
facet normal 0.001142794848 -0.5305740833 0.8476378322
outer loop
vertex -56.73273468 36.55368805 265.2913513
vertex -57.09218597 36.25258636 265.103363
vertex -56.38976288 36.29602814 265.1296082

endloop
endfacet
facet normal -0.004226217978 -0.4661494195 0.8846959472
outer loop
vertex -56.38976288 36.29602814 265.1296082
vertex -57.09218597 36.25258636 265.103363
vertex -56.79553986 35.98949432 264.966156

endloop
endfacet
facet normal 0.06850722432 -0.5385103226 0.8398293853
outer loop
vertex -56.38976288 36.29602814 265.1296082
vertex -56.79555511 35.98949432 264.966156
vertex -56.07027435 36.01108551 264.9208374

endloop
endfacet
facet normal 0.06866107881 -0.5221437216 0.8500891924
outer loop
vertex -56.07027435 36.01108551 264.9208374
vertex -56.79555511 35.98949432 264.966156
vertex -56.49195099 35.69881439 264.763092

endloop
endfacet
facet normal 0.1063501388 -0.5590067506 0.8223144412
outer loop
vertex -56.07027435 36.01108551 264.9208374
vertex -56.49195099 35.69881439 264.763092
vertex -55.76241302 35.72214508 264.6846008

endloop
endfacet
facet normal 0.1065051183 -0.5551550984 0.8248996735
outer loop
vertex -55.76241302 35.72214508 264.6846008
vertex -56.49195099 35.69881439 264.763092
vertex -56.18718719 35.40821075 264.5281677

endloop
endfacet
facet normal 0.1244005561 -0.5723359585 0.8105282187
outer loop
vertex -55.76241302 35.72214508 264.6846313
vertex -56.18717194 35.40824127 264.5281677
vertex -55.45412445 35.44254303 264.4398804

endloop
endfacet
facet normal 0.12479233 -0.5615717769 0.8179633021
outer loop
vertex -55.45412445 35.44254303 264.4398804
vertex -56.18717194 35.40824127 264.5281677
vertex -55.87979889 35.12729645 264.2883911

endloop
endfacet
facet normal 0.1415644437 -0.5775150061 0.8040124178
outer loop
vertex -55.45412445 35.44254303 264.4398804
vertex -55.87979889 35.12729645 264.2883911
vertex -55.14598846 35.16675568 264.1875305

endloop
endfacet
facet normal 0.1421265155 -0.5642076135 0.8133078814
outer loop
vertex -55.14598846 35.16675568 264.1875305
vertex -55.87979889 35.12729645 264.2883911
vertex -55.57265472 34.84992218 264.0422974

endloop
endfacet
facet normal 0.1539593935 -0.575499475 0.8031791449
outer loop
vertex -55.14598846 35.16675568 264.1875305
vertex -55.57265472 34.84992218 264.0422974
vertex -54.84229279 34.88576508 263.9279785

endloop
endfacet
facet normal 0.1543430239 -0.5691422224 0.8076232672
outer loop
vertex -54.84229279 34.88576508 263.9279785
vertex -55.57265472 34.84992218 264.0422974
vertex -55.26940155 34.56813812 263.7857666

endloop
endfacet
facet normal 0.1611830145 -0.5756626129 0.80164361
outer loop
vertex -54.84229279 34.88576508 263.9279785
vertex -55.26940155 34.56813812 263.7857666
vertex -54.54264069 34.60805511 263.6683044

endloop
endfacet
facet normal 0.1615293622 -0.569726944 0.805803597
outer loop
vertex -54.54264069 34.60805511 263.6683044
vertex -55.26940155 34.56813812 263.7857666
vertex -54.97000885 34.28958893 263.5288086

endloop
endfacet
facet normal 0.1768188924 -0.584264338 0.7920671105
outer loop
vertex -54.54262543 34.60807037 263.668335
vertex -54.97000885 34.28961945 263.5288391
vertex -54.24082184 34.34079742 263.4038086

endloop
endfacet
facet normal 0.1776051521 -0.5690950751 0.8028619289
outer loop
vertex -54.24082184 34.34079742 263.4038086
vertex -54.97000885 34.28961945 263.5288391
vertex -54.66887665 34.0202713 263.2713013

endloop
endfacet
facet normal 0.1987227648 -0.5891661644 0.7831938267
outer loop
vertex -54.24082184 34.34079742 263.4038086
vertex -54.66887665 34.0202713 263.2713013
vertex -53.94127655 34.07286835 263.1262512

endloop
endfacet
facet normal 0.1996211261 -0.5766223073 0.7922488451
outer loop
vertex -53.94127655 34.07286835 263.1262512
vertex -54.66887665 34.0202713 263.2713013
vertex -54.36917877 33.75106049 262.9998474

endloop
endfacet
facet normal 0.2278417796 -0.603192389 0.7643604875
outer loop
vertex -53.94127655 34.07286835 263.1262512
vertex -54.36917877 33.75106049 262.9998474
vertex -53.67353058 33.81188202 262.8404846

endloop
endfacet
facet normal 0.2274345309 -0.6077981591 0.7608250976
outer loop
vertex -53.67353058 33.81188202 262.8404846
vertex -54.36917877 33.75106049 262.9998474
vertex -54.09363556 33.49645233 262.7140808

endloop
endfacet
facet normal 0.3286558688 -0.6942965388 0.6402637959
outer loop
vertex -53.67353058 33.81188202 262.8404846
vertex -54.09363556 33.49645233 262.7140808
vertex -53.49723053 33.60861969 262.5295715

endloop
endfacet
facet normal 0.3254995048 -0.7172709107 0.6160945892
outer loop
vertex -53.49723053 33.60861969 262.5295715
vertex -54.09363556 33.49645233 262.7140808
vertex -53.87709808 33.32590485 262.401123

endloop
endfacet
facet normal 0.5161859989 -0.8142485619 0.265615046
outer loop
vertex -53.49723053 33.60861969 262.5295715
vertex -53.87709808 33.32590485 262.401123
vertex -53.47690582 33.51769257 262.2113342

endloop
endfacet
facet normal 0.5086975694 -0.8279833794 0.235945344
outer loop
vertex -53.47690582 33.51769257 262.2113342
vertex -53.87709808 33.32590485 262.401123
vertex -53.77046967 33.29959869 262.0789185

endloop
endfacet
facet normal 0.5754023194 -0.815123558 0.06697510183
outer loop
vertex -53.47690582 33.51770782 262.2113342
vertex -53.77046967 33.29959869 262.0789185
vertex -53.54520416 33.44911957 261.9633484

endloop
endfacet
facet normal 0.5682265759 -0.8216667175 0.04452291876
outer loop
vertex -53.54520416 33.44911957 261.9633484
vertex -53.77046967 33.29959869 262.0789185
vertex -53.75684357 33.29453278 261.8115234

endloop
endfacet
facet normal 0.6503367424 -0.7451125979 -0.1478829086
outer loop
vertex -53.54520416 33.44911957 261.9633484
vertex -53.75684357 33.29453278 261.8115234
vertex -53.48180389 33.63375092 261.3118896

endloop
endfacet
facet normal -nan(ind) -nan(ind) -nan(ind)
outer loop
vertex -53.48180389 33.63375092 261.3118896
vertex -53.75684357 33.29453278 261.8115234
vertex -53.48180389 33.63375092 261.3118896

endloop
endfacet
facet normal 0.8746695518 0.08110339195 -0.4778864682
outer loop
vertex -59.00511932 38.20944977 265.1456604
vertex -59.00510406 38.20946503 265.1456909
vertex -58.76085663 37.51110077 265.4742126

endloop
endfacet
facet normal -0.8444501162 -0.04422945529 0.5338048935
outer loop
vertex -58.76085663 37.51110077 265.4742126
vertex -59.00510406 38.20946503 265.1456909
vertex -58.93148041 37.44504547 265.198822

endloop
endfacet
facet normal -0.5196454525 -0.7000041008 0.489860028
outer loop
vertex -58.76085663 37.51110077 265.4742126
vertex -58.93148041 37.44504547 265.198822
vertex -58.24462128 37.10382843 265.4398499

endloop
endfacet
facet normal -0.5149256587 -0.6138808727 0.5983325839
outer loop
vertex -58.24462128 37.10382843 265.4398499
vertex -58.93148041 37.44504547 265.198822
vertex -58.49111176 36.99939728 265.120575

endloop
endfacet
facet normal -0.4904454052 -0.6424872279 0.5887898207
outer loop
vertex -58.24462128 37.10382843 265.4398499
vertex -58.49111176 36.99939728 265.120575
vertex -57.89698029 36.77161407 265.3669128

endloop
endfacet
facet normal -0.4893167615 -0.6607944965 0.569139421
outer loop
vertex -57.89698029 36.77161407 265.3669128
vertex -58.49111176 36.99939728 265.120575
vertex -58.18419647 36.63631439 264.9628906

endloop
endfacet
facet normal -0.3830648065 -0.7589922547 0.5264903903
outer loop
vertex -57.89698029 36.77161407 265.3669128
vertex -58.18419647 36.63631439 264.9628906
vertex -57.61049652 36.56017303 265.2705383

endloop
endfacet
facet normal -0.3651715219 -0.795121491 0.4841813147
outer loop
vertex -57.61049652 36.56017303 265.2705383
vertex -58.18419647 36.63631439 264.9628906
vertex -57.89914703 36.40659332 264.8006287

endloop
endfacet
facet normal -0.2890933752 -0.8432417512 0.4531759322
outer loop
vertex -57.61049652 36.56017303 265.2705383
vertex -57.89914703 36.40659332 264.8006287
vertex -57.34654999 36.42308807 265.1838379

endloop
endfacet
facet normal -0.3070880175 -0.8227875233 0.4782442451
outer loop
vertex -57.34654999 36.42308807 265.1838379
vertex -57.89914703 36.40659332 264.8006287
vertex -57.67156219 36.26900482 264.7100525

endloop
endfacet
facet normal -0.3647839427 -0.7824383974 0.5047007799
outer loop
vertex -57.34654999 36.42308807 265.1838379
vertex -57.67156219 36.26900482 264.7100525
vertex -57.09218597 36.25257111 265.1033325

endloop
endfacet
facet normal -0.441055268 -0.6462572217 0.6227534413
outer loop
vertex -57.09218597 36.25257111 265.1033325
vertex -57.67156219 36.26900482 264.7100525
vertex -57.50022125 36.10495758 264.6611633

endloop
endfacet
facet normal -0.3708849549 -0.7225112915 0.5834567547
outer loop
vertex -57.09218597 36.25257111 265.1033325
vertex -57.50022125 36.10495758 264.6611633
vertex -56.79553986 35.98949432 264.9661255

endloop
endfacet
facet normal -0.3877682984 -0.655813992 0.6477219462
outer loop
vertex -56.79553986 35.98949432 264.9661255
vertex -57.50022125 36.10495758 264.6611633
vertex -57.26258087 35.83917999 264.5343323

endloop
endfacet
facet normal -0.3115600646 -0.7410065532 0.5948442221
outer loop
vertex -56.79555511 35.98947906 264.966156
vertex -57.26258087 35.83919525 264.5343323
vertex -56.49196625 35.69879913 264.7630615

endloop
endfacet
facet normal -0.3138794005 -0.7260276079 0.6118525863
outer loop
vertex -56.49196625 35.69879913 264.7630615
vertex -57.26258087 35.83919525 264.5343323
vertex -56.98079681 35.54567719 264.3305969

endloop
endfacet
facet normal -0.2774970829 -0.7629905343 0.5838157535
outer loop
vertex -56.49196625 35.69879913 264.7630615
vertex -56.98079681 35.54567719 264.3305969
vertex -56.18718719 35.4081955 264.5281372

endloop
endfacet
facet normal -0.2779381573 -0.7597084045 0.5878720284
outer loop
vertex -56.18718719 35.4081955 264.5281372
vertex -56.98079681 35.54567719 264.3305969
vertex -56.68087006 35.25428009 264.0958252

endloop
endfacet
facet normal -0.2610659003 -0.7758665085 0.5743480921
outer loop
vertex -56.18718719 35.40821075 264.5281677
vertex -56.6808548 35.25429535 264.0958557
vertex -55.87979889 35.12728119 264.2883911

endloop
endfacet
facet normal -0.262396127 -0.76670748 0.5859247446
outer loop
vertex -55.87979889 35.12728119 264.2883911
vertex -56.6808548 35.25429535 264.0958557
vertex -56.37897491 34.97275543 263.8626404

endloop
endfacet
facet normal -0.2467377633 -0.7815625668 0.5729576349
outer loop
vertex -55.87979889 35.12728119 264.2883911
vertex -56.37897491 34.97275543 263.8626404
vertex -55.57265472 34.84990692 264.0422974

endloop
endfacet
facet normal -0.2482412606 -0.7702559829 0.5874368548
outer loop
vertex -55.57265472 34.84990692 264.0422974
vertex -56.37897491 34.97275543 263.8626404
vertex -56.07862091 34.69460297 263.6248474

endloop
endfacet
facet normal -0.236975655 -0.7810261846 0.5777893662
outer loop
vertex -55.57265472 34.84990692 264.0422974
vertex -56.07862091 34.69460297 263.6248474
vertex -55.26941681 34.56812286 263.7857666

endloop
endfacet
facet normal -0.2375205904 -0.7756696343 0.5847398043
outer loop
vertex -55.26941681 34.56812286 263.7857666
vertex -56.07862091 34.69460297 263.6248474
vertex -55.7786026 34.41240692 263.3723755

endloop
endfacet
facet normal -0.2307994068 -0.7820727229 0.5788730979
outer loop
vertex -55.26941681 34.56812286 263.7857666
vertex -55.7786026 34.41240692 263.3723755
vertex -54.97002411 34.28957367 263.5288086

endloop
endfacet
facet normal -0.2313018292 -0.7770236731 0.585434556
outer loop
vertex -54.97002411 34.28957367 263.5288086
vertex -55.7786026 34.41240692 263.3723755
vertex -55.48213959 34.13343048 263.1192322

endloop
endfacet
facet normal -0.2170742005 -0.7904667854 0.572748661
outer loop
vertex -54.97000885 34.28958893 263.5288391
vertex -55.48213959 34.133461 263.1192627
vertex -54.66889191 34.0202713 263.2712708

endloop
endfacet
facet normal -0.2184296399 -0.7776305079 0.5895585418
outer loop
vertex -54.66889191 34.0202713 263.2712708
vertex -55.48213959 34.133461 263.1192627
vertex -55.18837738 33.86312103 262.871521

endloop
endfacet
facet normal -0.198415041 -0.7966057658 0.5710086226
outer loop
vertex -54.66889191 34.0202713 263.2712708
vertex -55.18837738 33.86312103 262.871521
vertex -54.36919403 33.75104523 262.9998169

endloop
endfacet
facet normal -0.199187845 -0.786108911 0.5851128101
outer loop
vertex -54.36919403 33.75104523 262.9998169
vertex -55.18837738 33.86312103 262.871521
vertex -54.89412689 33.59323883 262.6091003

endloop
endfacet
facet normal -0.1713359505 -0.8118881583 0.5581054091
outer loop
vertex -54.36919403 33.75104523 262.9998169
vertex -54.89412689 33.59323883 262.6091003
vertex -54.09363556 33.49645233 262.7140503

endloop
endfacet
facet normal -0.1710900515 -0.8154848814 0.5529128313
outer loop
vertex -54.09363556 33.49645233 262.7140503
vertex -54.89412689 33.59323883 262.6091003
vertex -54.60692596 33.34177399 262.3270874

endloop
endfacet
facet normal -0.06439091265 -0.8942693472 0.4428727925
outer loop
vertex -54.09363556 33.49645233 262.7140503
vertex -54.60692596 33.34177399 262.3270874
vertex -53.87711334 33.32588959 262.401123

endloop
endfacet
facet normal -0.06189703196 -0.9075081944 0.4154486954
outer loop
vertex -53.87711334 33.32588959 262.401123
vertex -54.60692596 33.34177399 262.3270874
vertex -54.32865143 33.18727875 262.0310669

endloop
endfacet
facet normal 0.1837350577 -0.9729214907 0.1402329952
outer loop
vertex -53.87711334 33.32588959 262.401123
vertex -54.32865143 33.18727875 262.0310669
vertex -53.77046967 33.29958344 262.0788879

endloop
endfacet
facet normal 0.184405461 -0.9736548662 0.1341300607
outer loop
vertex -53.77046967 33.29958344 262.0788879
vertex -54.32865143 33.18727875 262.0310669
vertex -54.09351349 33.19287872 261.7484436

endloop
endfacet
facet normal 0.2833073735 -0.9584750533 0.03259570524
outer loop
vertex -53.77048492 33.29959869 262.0789185
vertex -54.09351349 33.19287872 261.7484436
vertex -53.75685883 33.29453278 261.8115234

endloop
endfacet
facet normal 0.2845734358 -0.9583129883 0.02557740174
outer loop
vertex -53.75685883 33.29453278 261.8115234
vertex -54.09351349 33.19287872 261.7484436
vertex -53.94818878 33.22971344 261.5116577

endloop
endfacet
facet normal 0.5885801911 -0.7815958858 -0.2065941095
outer loop
vertex -53.75685883 33.29453278 261.8115234
vertex -53.94818878 33.22971344 261.5116577
vertex -53.48180389 33.63373566 261.3118591

endloop
endfacet
facet normal -0.6865748167 0.7054052949 -0.1761205643
outer loop
vertex -53.48180389 33.63373566 261.3118591
vertex -53.94818878 33.22971344 261.5116577
vertex -53.48180389 33.63375092 261.3119202

endloop
endfacet
facet normal -nan(ind) -nan(ind) -nan(ind)
outer loop
vertex -59.00510406 38.20946503 265.1456909
vertex -59.00510406 38.20946503 265.1456909
vertex -58.93148041 37.44504547 265.1988525

endloop
endfacet
facet normal -0.9818925261 -0.08271688223 0.1704259068
outer loop
vertex -58.93148041 37.44504547 265.1988525
vertex -59.00510406 38.20946503 265.1456909
vertex -59.03694916 37.63275909 264.682312

endloop
endfacet
facet normal -0.7165237665 -0.6897144318 -0.1043440402
outer loop
vertex -58.93148041 37.44504547 265.1988525
vertex -59.03694916 37.63275909 264.682312
vertex -58.49111176 36.99939728 265.1206055

endloop
endfacet
facet normal -0.7696841955 -0.6373180151 0.03757665679
outer loop
vertex -58.49111176 36.99939728 265.1206055
vertex -59.03694916 37.63275909 264.682312
vertex -58.7175827 37.2347641 264.4737244

endloop
endfacet
facet normal -0.7574080825 -0.6523492336 0.02780970372
outer loop
vertex -58.49111176 36.99939728 265.1206055
vertex -58.7175827 37.2347641 264.4737244
vertex -58.18418121 36.63631439 264.9629211

endloop
endfacet
facet normal -0.7603834867 -0.6484882236 0.03577728942
outer loop
vertex -58.18418121 36.63631439 264.9629211
vertex -58.7175827 37.2347641 264.4737244
vertex -58.48062897 36.94029999 264.1723938

endloop
endfacet
facet normal -0.644385457 -0.7629488111 -0.05173615739
outer loop
vertex -58.18418121 36.63631439 264.9629211
vertex -58.48062897 36.94029999 264.1723938
vertex -57.89914703 36.40657806 264.8006592

endloop
endfacet
facet normal -0.6124307513 -0.7842493653 -0.09940652549
outer loop
vertex -57.89914703 36.40657806 264.8006592
vertex -58.48062897 36.94029999 264.1723938
vertex -58.19686127 36.75167084 263.9122925

endloop
endfacet
facet normal -0.5513848066 -0.8232530355 -0.1350158602
outer loop
vertex -57.89914703 36.40657806 264.8006592
vertex -58.19686127 36.75167084 263.9122925
vertex -57.67156219 36.26900482 264.710083

endloop
endfacet
facet normal -0.5835711956 -0.8054932952 -0.1030782461
outer loop
vertex -57.67156219 36.26900482 264.710083
vertex -58.19686127 36.75167084 263.9122925
vertex -57.9849472 36.61521149 263.7789001

endloop
endfacet
facet normal -0.6960187554 -0.7172903419 -0.03244135901
outer loop
vertex -57.67156219 36.26900482 264.710083
vertex -57.9849472 36.61521149 263.7789001
vertex -57.50022125 36.10495758 264.6611633

endloop
endfacet
facet normal -0.8220458627 -0.5541059375 0.1311765909
outer loop
vertex -57.50022125 36.10495758 264.6611633
vertex -57.9849472 36.61521149 263.7789001
vertex -57.8768692 36.43662262 263.7018127

endloop
endfacet
facet normal -0.7318734527 -0.6794190407 0.05245123059
outer loop
vertex -57.50022125 36.10495758 264.6611633
vertex -57.8768692 36.43662262 263.7018127
vertex -57.26259613 35.83919525 264.5343323

endloop
endfacet
facet normal -0.7861970067 -0.5995290279 0.149863869
outer loop
vertex -57.26259613 35.83919525 264.5343323
vertex -57.8768692 36.43662262 263.7018127
vertex -57.70917511 36.17682648 263.5422363

endloop
endfacet
facet normal -0.6951391697 -0.7155169845 0.06940435618
outer loop
vertex -57.26259613 35.83919525 264.5343018
vertex -57.70917511 36.17682648 263.5422363
vertex -56.98081207 35.54567719 264.3305969

endloop
endfacet
facet normal -0.7093326449 -0.6982600689 0.09633321315
outer loop
vertex -56.98081207 35.54567719 264.3305969
vertex -57.70917511 36.17682648 263.5422363
vertex -57.45656586 35.88964081 263.3206482

endloop
endfacet
facet normal -0.6694715619 -0.7401362658 0.06329394877
outer loop
vertex -56.98081207 35.54567719 264.3305969
vertex -57.45656586 35.88964081 263.3206482
vertex -56.68087006 35.25429535 264.0958252

endloop
endfacet
facet normal -0.6728140116 -0.7365310788 0.06959364563
outer loop
vertex -56.68087006 35.25429535 264.0958252
vertex -57.45656586 35.88964081 263.3206482
vertex -57.16417694 35.60007477 263.0828247

endloop
endfacet
facet normal -0.6570572257 -0.7516911626 0.05688822642
outer loop
vertex -56.6808548 35.25429535 264.0958557
vertex -57.16416168 35.60009003 263.0828247
vertex -56.37897491 34.97277069 263.8626404

endloop
endfacet
facet normal -0.6669977903 -0.7412447333 0.07530072331
outer loop
vertex -56.37897491 34.97277069 263.8626404
vertex -57.16416168 35.60009003 263.0828247
vertex -56.87825775 35.31996918 262.8578491

endloop
endfacet
facet normal -0.6512048244 -0.7563459873 0.06223500893
outer loop
vertex -56.37897491 34.97277069 263.8626404
vertex -56.87825775 35.31996918 262.8578491
vertex -56.07862091 34.69460297 263.6248474

endloop
endfacet
facet normal -0.663390696 -0.7433701158 0.08551923186
outer loop
vertex -56.07862091 34.69460297 263.6248474
vertex -56.87825775 35.31996918 262.8578491
vertex -56.59783173 35.04358673 262.6307373

endloop
endfacet
facet normal -0.6496431828 -0.7566611171 0.07367333025
outer loop
vertex -56.07862091 34.69460297 263.6248474
vertex -56.59783173 35.04358673 262.6307373
vertex -55.77858734 34.41242218 263.3723755

endloop
endfacet
facet normal -0.6550394893 -0.7508454919 0.08458349854
outer loop
vertex -55.77858734 34.41242218 263.3723755
vertex -56.59783173 35.04358673 262.6307373
vertex -56.30736542 34.76233673 262.3835449

endloop
endfacet
facet normal -0.6472420096 -0.7583066821 0.07777352631
outer loop
vertex -55.77858734 34.41242218 263.3723755
vertex -56.30736542 34.76233673 262.3835449
vertex -55.48213959 34.13343048 263.1192322

endloop
endfacet
facet normal -0.652253449 -0.7528706193 0.08804195374
outer loop
vertex -55.48213959 34.13343048 263.1192322
vertex -56.30736542 34.76233673 262.3835449
vertex -56.01985931 34.48427582 262.1357422

endloop
endfacet
facet normal -0.6394041181 -0.765037477 0.07668147981
outer loop
vertex -55.48212433 34.133461 263.1192932
vertex -56.01985931 34.48430634 262.1357422
vertex -55.18837738 33.86312103 262.8715515

endloop
endfacet
facet normal -0.6526441574 -0.7505052686 0.1039114445
outer loop
vertex -55.18837738 33.86312103 262.8715515
vertex -56.01985931 34.48430634 262.1357422
vertex -55.74881744 34.21619415 261.9016418

endloop
endfacet
facet normal -0.6315951347 -0.7706906199 0.08440069854
outer loop
vertex -55.18837738 33.86312103 262.8715515
vertex -55.74881744 34.21619415 261.9016418
vertex -54.89412689 33.59323883 262.6091309

endloop
endfacet
facet normal -0.6420943737 -0.7590780258 0.1073094979
outer loop
vertex -54.89412689 33.59323883 262.6091309
vertex -55.74881744 34.21619415 261.9016418
vertex -55.47304535 33.94773102 261.65271

endloop
endfacet
facet normal -0.6118695736 -0.7870385647 0.0786511004
outer loop
vertex -54.89412689 33.59323883 262.6091309
vertex -55.47304535 33.94773102 261.65271
vertex -54.60692596 33.34177399 262.3270874

endloop
endfacet
facet normal -0.6081003547 -0.7907235622 0.07049911469
outer loop
vertex -54.60692596 33.34177399 262.3270874
vertex -55.47304535 33.94773102 261.65271
vertex -55.16820526 33.68926239 261.3831482

endloop
endfacet
facet normal -0.5015856624 -0.8648736477 -0.02013257518
outer loop
vertex -54.60692596 33.34177399 262.3270874
vertex -55.16820526 33.68926239 261.3831482
vertex -54.32865143 33.18727875 262.0310669

endloop
endfacet
facet normal -0.4805748463 -0.8752045631 -0.05536178872
outer loop
vertex -54.32865143 33.18727875 262.0310669
vertex -55.16820526 33.68926239 261.3831482
vertex -54.79431915 33.49877167 261.1490173

endloop
endfacet
facet normal -0.2326146066 -0.9491003156 -0.2123655379
outer loop
vertex -54.32865143 33.18727875 262.0310669
vertex -54.79431915 33.49877167 261.1490173
vertex -54.09351349 33.19289398 261.7484131

endloop
endfacet
facet normal -0.2196055651 -0.9487206936 -0.227381736
outer loop
vertex -54.09351349 33.19289398 261.7484131
vertex -54.79431915 33.49877167 261.1490173
vertex -54.36736298 33.43343353 261.0092773

endloop
endfacet
facet normal -0.1646847129 -0.9542553425 -0.2495507598
outer loop
vertex -54.09351349 33.19287872 261.7484131
vertex -54.36736298 33.43343353 261.0092773
vertex -53.94818878 33.22971344 261.5116577

endloop
endfacet
facet normal -0.1198467538 -0.9508332014 -0.2855747342
outer loop
vertex -53.94818878 33.22971344 261.5116577
vertex -54.36736298 33.43343353 261.0092773
vertex -54.02707672 33.41342926 260.933075

endloop
endfacet
facet normal 0.5379015803 -0.7795536518 -0.3208707571
outer loop
vertex -53.94818878 33.22971344 261.5116577
vertex -54.02707672 33.41342926 260.933075
vertex -53.48180389 33.63375092 261.3118896

endloop
endfacet
facet normal -nan(ind) -nan(ind) -nan(ind)
outer loop
vertex -53.48180389 33.63375092 261.3118896
vertex -54.02707672 33.41342926 260.933075
vertex -53.48180389 33.63375092 261.3118896

endloop
endfacet
endsolid
