solid 
facet normal -nan(ind) -nan(ind) -nan(ind)
outer loop
vertex -61.17850494 43.85326385 282.786499
vertex -61.17850494 43.85326385 282.786499
vertex -61.07433319 43.72945404 282.3337708

endloop
endfacet
facet normal -0.7558361888 -0.654740572 0.005138915963
outer loop
vertex -61.07433319 43.72945404 282.3337708
vertex -61.17850494 43.85326385 282.786499
vertex -61.30812836 43.99964142 282.3710938

endloop
endfacet
facet normal -0.4061328471 -0.2292340845 -0.8845947385
outer loop
vertex -61.07433319 43.72945404 282.3337708
vertex -61.30812836 43.99964142 282.3710938
vertex -60.87496185 43.81655121 282.2196655

endloop
endfacet
facet normal -0.4245377481 -0.2969948947 -0.8553138375
outer loop
vertex -60.87496185 43.81655121 282.2196655
vertex -61.30812836 43.99964142 282.3710938
vertex -61.15142059 44.15856171 282.2381287

endloop
endfacet
facet normal -0.2322883904 -0.1357732266 -0.9631239772
outer loop
vertex -60.87496185 43.81655121 282.2196655
vertex -61.15142059 44.15856171 282.2381287
vertex -60.62015533 43.95471954 282.1387329

endloop
endfacet
facet normal -0.2545918822 -0.2024356127 -0.945622921
outer loop
vertex -60.62015533 43.95471954 282.1387329
vertex -61.15142059 44.15856171 282.2381287
vertex -60.91632843 44.33974457 282.1360474

endloop
endfacet
facet normal -0.1081987545 -0.09013529867 -0.9900346994
outer loop
vertex -60.62015533 43.95471954 282.1387329
vertex -60.91632843 44.33974457 282.1360474
vertex -60.36467743 44.14313507 282.0936584

endloop
endfacet
facet normal -0.1109626442 -0.09812000394 -0.988969028
outer loop
vertex -60.36467743 44.14313507 282.0936584
vertex -60.91632843 44.33974457 282.1360474
vertex -60.66181183 44.53206635 282.0884094

endloop
endfacet
facet normal -0.1254140139 -0.1091215909 -0.9860851169
outer loop
vertex -60.36467743 44.14313507 282.0936584
vertex -60.66181183 44.53206635 282.0884094
vertex -60.1294632 44.3385849 282.0421143

endloop
endfacet
facet normal -0.1137973368 -0.07608216256 -0.9905865192
outer loop
vertex -60.1294632 44.3385849 282.0421143
vertex -60.66181183 44.53206635 282.0884094
vertex -60.43151093 44.72360992 282.0472412

endloop
endfacet
facet normal -0.1589768082 -0.1116532758 -0.9809485078
outer loop
vertex -60.1294632 44.3385849 282.0421143
vertex -60.43151093 44.72360992 282.0472412
vertex -59.89878082 44.53885651 281.9819336

endloop
endfacet
facet normal -0.1473422796 -0.07627020776 -0.9861405492
outer loop
vertex -59.89878082 44.53885651 281.9819336
vertex -60.43151093 44.72360992 282.0472412
vertex -60.20565033 44.91979218 281.9983215

endloop
endfacet
facet normal -0.1759246141 -0.09958720952 -0.9793533087
outer loop
vertex -59.89878082 44.53885651 281.9819336
vertex -60.20565033 44.91979218 281.9983215
vertex -59.65656281 44.74600983 281.9173584

endloop
endfacet
facet normal -0.1710017771 -0.08290389925 -0.9817766547
outer loop
vertex -59.65656281 44.74600983 281.9173584
vertex -60.20565033 44.91979218 281.9983215
vertex -59.96569061 45.1248703 281.939209

endloop
endfacet
facet normal -0.1804818213 -0.09077726305 -0.97938025
outer loop
vertex -59.65656281 44.74600983 281.9173584
vertex -59.96569061 45.1248703 281.939209
vertex -59.4058609 44.95709991 281.851593

endloop
endfacet
facet normal -0.1791162491 -0.08585806191 -0.9800743461
outer loop
vertex -59.4058609 44.95709991 281.851593
vertex -59.96569061 45.1248703 281.939209
vertex -59.71570587 45.33525848 281.8750916

endloop
endfacet
facet normal -0.1897769719 -0.09476888925 -0.9772428274
outer loop
vertex -59.4058609 44.95709991 281.851593
vertex -59.71570587 45.33525848 281.8750916
vertex -59.1639328 45.16590118 281.7843628

endloop
endfacet
facet normal -0.1861635149 -0.0820061788 -0.9790904522
outer loop
vertex -59.1639328 45.16590118 281.7843628
vertex -59.71570587 45.33525848 281.8750916
vertex -59.4751358 45.54262543 281.8119812

endloop
endfacet
facet normal -0.2092958987 -0.1015982032 -0.9725600481
outer loop
vertex -59.16391754 45.1659317 281.7843933
vertex -59.47512054 45.54264069 281.8120117
vertex -58.93358612 45.37386322 281.7131042

endloop
endfacet
facet normal -0.2024933249 -0.07763778418 -0.9762012362
outer loop
vertex -58.93358612 45.37386322 281.7131042
vertex -59.47512054 45.54264069 281.8120117
vertex -59.24742889 45.74768829 281.7484741

endloop
endfacet
facet normal -0.2288430929 -0.1005109176 -0.9682605267
outer loop
vertex -58.93358612 45.37386322 281.7131042
vertex -59.24742889 45.74768829 281.7484741
vertex -58.70386505 45.58609772 281.6367798

endloop
endfacet
facet normal -0.2229954153 -0.07849454135 -0.9716540575
outer loop
vertex -58.70386505 45.58609772 281.6367798
vertex -59.24742889 45.74768829 281.7484741
vertex -59.02042389 45.95691681 281.6794739

endloop
endfacet
facet normal -0.2393197268 -0.09302661568 -0.9664740562
outer loop
vertex -58.70386505 45.58609772 281.6367798
vertex -59.02042389 45.95691681 281.6794739
vertex -58.46738434 45.8033371 281.557312

endloop
endfacet
facet normal -0.236673668 -0.08220033348 -0.9681056738
outer loop
vertex -58.46738434 45.8033371 281.557312
vertex -59.02042389 45.95691681 281.6794739
vertex -58.78536224 46.17255402 281.6036987

endloop
endfacet
facet normal -0.2438537925 -0.08868008852 -0.9657490849
outer loop
vertex -58.46738434 45.8033371 281.557312
vertex -58.78536224 46.17255402 281.6036987
vertex -58.22861481 46.0218277 281.4769592

endloop
endfacet
facet normal -0.2426242679 -0.08348932117 -0.9665210843
outer loop
vertex -58.22861481 46.0218277 281.4769592
vertex -58.78536224 46.17255402 281.6036987
vertex -58.54705048 46.39043427 281.5250549

endloop
endfacet
facet normal -0.252011627 -0.09202177823 -0.9633390307
outer loop
vertex -58.22859955 46.02187347 281.4769897
vertex -58.54703522 46.39044952 281.5250854
vertex -57.9956131 46.23937225 281.3952637

endloop
endfacet
facet normal -0.2494344413 -0.08120426536 -0.9649809599
outer loop
vertex -57.9956131 46.23937225 281.3952637
vertex -58.54703522 46.39044952 281.5250854
vertex -58.31494904 46.60666656 281.4468994

endloop
endfacet
facet normal -0.265050441 -0.09555347264 -0.9594883323
outer loop
vertex -57.9956131 46.23937225 281.3952637
vertex -58.31494904 46.60666656 281.4468994
vertex -57.76978302 46.45688629 281.3112183

endloop
endfacet
facet normal -0.2609873414 -0.07834657282 -0.9621576667
outer loop
vertex -57.76978302 46.45688629 281.3112183
vertex -58.31494904 46.60666656 281.4468994
vertex -58.09099579 46.82157135 281.3686523

endloop
endfacet
facet normal -0.2781690955 -0.09446956962 -0.9558752179
outer loop
vertex -57.76978302 46.45688629 281.3112183
vertex -58.09099579 46.82157135 281.3686523
vertex -57.54727936 46.67743683 281.2246704

endloop
endfacet
facet normal -0.2741591036 -0.07659137249 -0.9586295485
outer loop
vertex -57.54727936 46.67743683 281.2246704
vertex -58.09099579 46.82157135 281.3686523
vertex -57.87044525 47.03858185 281.2882385

endloop
endfacet
facet normal -0.2577090859 -0.06087262556 -0.9643031955
outer loop
vertex -57.54727936 46.67743683 281.2246704
vertex -57.87044525 47.03858185 281.2882385
vertex -57.32239532 46.89916229 281.1505737

endloop
endfacet
facet normal -0.2586973608 -0.06530541927 -0.9637483954
outer loop
vertex -57.32239532 46.89916229 281.1505737
vertex -57.87044525 47.03858185 281.2882385
vertex -57.63965607 47.25251007 281.211792

endloop
endfacet
facet normal -0.1100990847 0.07288053632 -0.9912449718
outer loop
vertex -57.32239532 46.89916229 281.1505737
vertex -57.63965607 47.25251007 281.211792
vertex -57.1140976 47.11048126 281.1429749

endloop
endfacet
facet normal -0.1248886064 0.01851874962 -0.9919978976
outer loop
vertex -57.1140976 47.11048126 281.1429749
vertex -57.63965607 47.25251007 281.211792
vertex -57.39340973 47.42882538 281.184082

endloop
endfacet
facet normal -0.0004108573776 0.1278037727 -0.9917993546
outer loop
vertex -57.1140976 47.110466 281.1429749
vertex -57.39340973 47.42881012 281.1841125
vertex -56.92618561 47.28774261 281.165741

endloop
endfacet
facet normal -0.03134663403 0.0263015274 -0.9991624951
outer loop
vertex -56.92618561 47.28774261 281.165741
vertex -57.39340973 47.42881012 281.1841125
vertex -57.14691925 47.54868317 281.1795349

endloop
endfacet
facet normal 0.6275351644 0.5594655275 -0.5414776206
outer loop
vertex -56.92618561 47.28774261 281.165741
vertex -57.14691925 47.54868317 281.1795349
vertex -56.86980438 47.55495453 281.5071716

endloop
endfacet
facet normal -nan(ind) -nan(ind) -nan(ind)
outer loop
vertex -56.86980438 47.55495453 281.5071716
vertex -57.14691925 47.54868317 281.1795349
vertex -56.86980438 47.55495453 281.5071716

endloop
endfacet
facet normal 0.6399948001 -0.6399948001 -0.4252213538
outer loop
vertex -61.17850494 43.85326385 282.786499
vertex -61.1785202 43.8532486 282.786499
vertex -61.30812836 43.99964142 282.3710938

endloop
endfacet
facet normal -0.8380671144 -0.5409477949 0.07084514201
outer loop
vertex -61.30812836 43.99964142 282.3710938
vertex -61.1785202 43.8532486 282.786499
vertex -61.38910675 44.1439743 282.5152283

endloop
endfacet
facet normal -0.7475491166 0.2098908722 -0.630171597
outer loop
vertex -61.30812836 43.99964142 282.3710938
vertex -61.38910675 44.1439743 282.5152283
vertex -61.15142059 44.15856171 282.2381287

endloop
endfacet
facet normal -0.7513331771 0.1796068549 -0.6350117326
outer loop
vertex -61.15142059 44.15856171 282.2381287
vertex -61.38910675 44.1439743 282.5152283
vertex -61.25310516 44.33374786 282.4079895

endloop
endfacet
facet normal -0.5903283954 0.3585329354 -0.7231642604
outer loop
vertex -61.15142059 44.15856171 282.2381287
vertex -61.25310516 44.33374786 282.4079895
vertex -60.91632843 44.33974457 282.1360474

endloop
endfacet
facet normal -0.6018015146 0.3038704693 -0.7385781407
outer loop
vertex -60.91632843 44.33974457 282.1360474
vertex -61.25310516 44.33374786 282.4079895
vertex -61.03582001 44.53687286 282.3145142

endloop
endfacet
facet normal -0.4649144411 0.4225492477 -0.7780146599
outer loop
vertex -60.91632843 44.33974457 282.1360474
vertex -61.03582001 44.53687286 282.3145142
vertex -60.66181183 44.53206635 282.0884094

endloop
endfacet
facet normal -0.4663219452 0.4168893099 -0.7802224755
outer loop
vertex -60.66181183 44.53206635 282.0884094
vertex -61.03582001 44.53687286 282.3145142
vertex -60.78289032 44.7312088 282.2671814

endloop
endfacet
facet normal -0.4781267941 0.407668829 -0.777946651
outer loop
vertex -60.66181183 44.53206635 282.0884094
vertex -60.78289032 44.7312088 282.2671814
vertex -60.43151093 44.72360992 282.0472412

endloop
endfacet
facet normal -0.4719362855 0.431398958 -0.7688764334
outer loop
vertex -60.43151093 44.72360992 282.0472412
vertex -60.78289032 44.7312088 282.2671814
vertex -60.54943085 44.92073822 282.2302246

endloop
endfacet
facet normal -0.5118622184 0.399676621 -0.7604313493
outer loop
vertex -60.43151093 44.72360992 282.0472412
vertex -60.54943085 44.92073822 282.2302246
vertex -60.20565033 44.91979218 281.9983215

endloop
endfacet
facet normal -0.5053127408 0.425344646 -0.7508268952
outer loop
vertex -60.20565033 44.91979218 281.9983215
vertex -60.54943085 44.92073822 282.2302246
vertex -60.32004547 45.11481476 282.185791

endloop
endfacet
facet normal -0.5298880935 0.405286938 -0.7449570298
outer loop
vertex -60.20565033 44.91979218 281.9983215
vertex -60.32004547 45.11481476 282.185791
vertex -59.96569061 45.1248703 281.939209

endloop
endfacet
facet normal -0.527030766 0.4172544777 -0.7403629422
outer loop
vertex -59.96569061 45.1248703 281.939209
vertex -60.32004547 45.11481476 282.185791
vertex -60.07839203 45.31884003 282.1287537

endloop
endfacet
facet normal -0.5349560976 0.4106078446 -0.7383922935
outer loop
vertex -59.96569061 45.1248703 281.939209
vertex -60.07839203 45.31884003 282.1287231
vertex -59.71570587 45.33525848 281.8750916

endloop
endfacet
facet normal -0.5341792703 0.4139950573 -0.7370621562
outer loop
vertex -59.71570587 45.33525848 281.8750916
vertex -60.07839203 45.31884003 282.1287231
vertex -59.8279953 45.528862 282.0652161

endloop
endfacet
facet normal -0.5431237221 0.4064877629 -0.7347001433
outer loop
vertex -59.71570587 45.33525848 281.8750916
vertex -59.8279953 45.528862 282.0652161
vertex -59.4751358 45.54262543 281.8119812

endloop
endfacet
facet normal -0.5409677625 0.4155680835 -0.7312024832
outer loop
vertex -59.4751358 45.54262543 281.8119812
vertex -59.8279953 45.528862 282.0652161
vertex -59.58603668 45.73552704 282.0036621

endloop
endfacet
facet normal -0.5611775517 0.3983273506 -0.7255446911
outer loop
vertex -59.47512054 45.54264069 281.8120117
vertex -59.58602142 45.7355423 282.0036926
vertex -59.24742889 45.74768829 281.7484741

endloop
endfacet
facet normal -0.5568692684 0.4158647656 -0.7189944983
outer loop
vertex -59.24742889 45.74768829 281.7484741
vertex -59.58602142 45.7355423 282.0036926
vertex -59.35579681 45.93909454 281.9431152

endloop
endfacet
facet normal -0.5806015134 0.3951712251 -0.7118579149
outer loop
vertex -59.24742889 45.74768829 281.7484741
vertex -59.35579681 45.93909454 281.9431152
vertex -59.02042389 45.95691681 281.6794739

endloop
endfacet
facet normal -0.5768070221 0.4109887183 -0.7059617639
outer loop
vertex -59.02042389 45.95691681 281.6794739
vertex -59.35579681 45.93909454 281.9431152
vertex -59.12664032 46.14679718 281.8768005

endloop
endfacet
facet normal -0.5912899375 0.3980969787 -0.7013522387
outer loop
vertex -59.02042389 45.95691681 281.6794739
vertex -59.12664032 46.14679718 281.8768005
vertex -58.78536224 46.17255402 281.6036987

endloop
endfacet
facet normal -0.5895997286 0.4054721594 -0.6985445619
outer loop
vertex -58.78536224 46.17255402 281.6036987
vertex -59.12664032 46.14679718 281.8768005
vertex -58.89061737 46.36161041 281.8022766

endloop
endfacet
facet normal -0.5956166387 0.4000446498 -0.6965665817
outer loop
vertex -58.78536224 46.17255402 281.6036987
vertex -58.89061737 46.36161041 281.8022766
vertex -58.54705048 46.39043427 281.5250549

endloop
endfacet
facet normal -0.5947554708 0.4038530588 -0.6951032877
outer loop
vertex -58.54705048 46.39043427 281.5250549
vertex -58.89061737 46.36161041 281.8022766
vertex -58.65171051 46.57913971 281.7242432

endloop
endfacet
facet normal -0.6027131081 0.3965541124 -0.6924462318
outer loop
vertex -58.54703522 46.39044952 281.5250854
vertex -58.65171051 46.57917023 281.7242737
vertex -58.31494904 46.60666656 281.4468994

endloop
endfacet
facet normal -0.6009528637 0.4041960537 -0.6895514727
outer loop
vertex -58.31494904 46.60666656 281.4468994
vertex -58.65171051 46.57917023 281.7242737
vertex -58.41843414 46.79470062 281.6473083

endloop
endfacet
facet normal -0.6148116589 0.3913979828 -0.6847000718
outer loop
vertex -58.31494904 46.60666656 281.4468994
vertex -58.41843414 46.79470062 281.6473083
vertex -58.09099579 46.82157135 281.3686523

endloop
endfacet
facet normal -0.6119223833 0.4037236869 -0.6801162958
outer loop
vertex -58.09099579 46.82157135 281.3686523
vertex -58.41843414 46.79470062 281.6473083
vertex -58.19283295 47.00832367 281.5711365

endloop
endfacet
facet normal -0.6280918121 0.3885061741 -0.6742133498
outer loop
vertex -58.09099579 46.82157135 281.3686523
vertex -58.19283295 47.00832367 281.5711365
vertex -57.87044525 47.03858185 281.2882385

endloop
endfacet
facet normal -0.6250801086 0.401481241 -0.6693935394
outer loop
vertex -57.87044525 47.03858185 281.2882385
vertex -58.19283295 47.00832367 281.5711365
vertex -57.97066498 47.22345734 281.4927063

endloop
endfacet
facet normal -0.6093201637 0.416157335 -0.6749385595
outer loop
vertex -57.87044525 47.03858185 281.2882385
vertex -57.97066498 47.22345734 281.4927063
vertex -57.63965607 47.25251007 281.211792

endloop
endfacet
facet normal -0.6101227999 0.4128834009 -0.6762229204
outer loop
vertex -57.63965607 47.25251007 281.211792
vertex -57.97066498 47.22345734 281.4927063
vertex -57.73886871 47.43343353 281.4117737

endloop
endfacet
facet normal -0.4609571397 0.5321767926 -0.7101452947
outer loop
vertex -57.63965607 47.25251007 281.211792
vertex -57.73886871 47.43343353 281.4117737
vertex -57.39340973 47.42882538 281.184082

endloop
endfacet
facet normal -0.4718002379 0.5003961325 -0.7259534001
outer loop
vertex -57.39340973 47.42882538 281.184082
vertex -57.73886871 47.43343353 281.4117737
vertex -57.48673248 47.59191132 281.3571472

endloop
endfacet
facet normal -0.3074637055 0.6041522026 -0.7351641059
outer loop
vertex -57.39340973 47.42881012 281.1841125
vertex -57.48673248 47.59191132 281.3571777
vertex -57.14691925 47.54868317 281.1795349

endloop
endfacet
facet normal -0.3463260233 0.510876596 -0.7868058085
outer loop
vertex -57.14691925 47.54868317 281.1795349
vertex -57.48673248 47.59191132 281.3571777
vertex -57.2337265 47.68822479 281.3083496

endloop
endfacet
facet normal 0.5128647685 0.7324239016 -0.4478000998
outer loop
vertex -57.14691925 47.54868317 281.1795349
vertex -57.2337265 47.68822479 281.3083496
vertex -56.86980438 47.55495453 281.5071716

endloop
endfacet
facet normal -0.5395655632 -0.6137346029 0.576366961
outer loop
vertex -56.86980438 47.55495453 281.5071716
vertex -57.2337265 47.68822479 281.3083496
vertex -56.86981964 47.55493927 281.5071411

endloop
endfacet
facet normal -0.7438368201 0.08031927049 0.6635175943
outer loop
vertex -61.1785202 43.8532486 282.786499
vertex -61.17848969 43.85327911 282.7865295
vertex -61.38910675 44.1439743 282.5152283

endloop
endfacet
facet normal -0.8675201535 -0.4658569992 0.1743160486
outer loop
vertex -61.38910675 44.1439743 282.5152283
vertex -61.17848969 43.85327911 282.7865295
vertex -61.39273834 44.22385406 282.7106323

endloop
endfacet
facet normal -0.8472412825 0.4860091805 -0.2144230455
outer loop
vertex -61.38910675 44.1439743 282.5152283
vertex -61.39273834 44.22385406 282.7106323
vertex -61.25310516 44.33374786 282.4079895

endloop
endfacet
facet normal -0.8604174256 0.4535720348 -0.2322806716
outer loop
vertex -61.25310516 44.33374786 282.4079895
vertex -61.39273834 44.22385406 282.7106323
vertex -61.26903534 44.42508698 282.6453552

endloop
endfacet
facet normal -0.7171626687 0.632928431 -0.2916834354
outer loop
vertex -61.25310516 44.33374786 282.4079895
vertex -61.26903534 44.42508698 282.6453552
vertex -61.03582001 44.53687286 282.3145142

endloop
endfacet
facet normal -0.7416750789 0.5870639086 -0.3244596124
outer loop
vertex -61.03582001 44.53687286 282.3145142
vertex -61.26903534 44.42508698 282.6453552
vertex -61.06819916 44.639534 282.5742798

endloop
endfacet
facet normal -0.6103580594 0.7077313662 -0.3557798564
outer loop
vertex -61.03582001 44.53687286 282.3145142
vertex -61.06819916 44.639534 282.5742798
vertex -60.78289032 44.7312088 282.2671814

endloop
endfacet
facet normal -0.6129143238 0.7037034035 -0.3593571782
outer loop
vertex -60.78289032 44.7312088 282.2671814
vertex -61.06819916 44.639534 282.5742798
vertex -60.81710052 44.83492279 282.5286255

endloop
endfacet
facet normal -0.6220564246 0.6964923739 -0.3576928377
outer loop
vertex -60.78289032 44.7312088 282.2671814
vertex -60.81710052 44.83492279 282.5286255
vertex -60.54943085 44.92073822 282.2302246

endloop
endfacet
facet normal -0.6108931303 0.7136817575 -0.3427358568
outer loop
vertex -60.54943085 44.92073822 282.2302246
vertex -60.81710052 44.83492279 282.5286255
vertex -60.5767746 45.02342987 282.4927979

endloop
endfacet
facet normal -0.6454939246 0.6861056089 -0.3355541527
outer loop
vertex -60.54943085 44.92073822 282.2302246
vertex -60.5767746 45.02342987 282.4927979
vertex -60.32004547 45.11481476 282.185791

endloop
endfacet
facet normal -0.6328978539 0.7053286433 -0.3192988336
outer loop
vertex -60.32004547 45.11481476 282.185791
vertex -60.5767746 45.02342987 282.4927979
vertex -60.33992767 45.21639252 282.449585

endloop
endfacet
facet normal -0.6546540856 0.6875802279 -0.3141043186
outer loop
vertex -60.32004547 45.11481476 282.185791
vertex -60.33992767 45.21639252 282.449585
vertex -60.07839203 45.31884003 282.1287537

endloop
endfacet
facet normal -0.6488644481 0.6964148879 -0.3065637052
outer loop
vertex -60.07839203 45.31884003 282.1287537
vertex -60.33992767 45.21639252 282.449585
vertex -60.09477997 45.41986847 282.3929443

endloop
endfacet
facet normal -0.656259656 0.6902989745 -0.3046484292
outer loop
vertex -60.07839203 45.31884003 282.1287231
vertex -60.09477997 45.41986847 282.3929443
vertex -59.8279953 45.528862 282.0652161

endloop
endfacet
facet normal -0.6546337008 0.6927838326 -0.3024983406
outer loop
vertex -59.8279953 45.528862 282.0652161
vertex -60.09477997 45.41986847 282.3929443
vertex -59.84340668 45.6297226 282.3295593

endloop
endfacet
facet normal -0.6625074148 0.6861662865 -0.3004324436
outer loop
vertex -59.8279953 45.528862 282.0652161
vertex -59.84340668 45.6297226 282.3295593
vertex -59.58603668 45.73552704 282.0036621

endloop
endfacet
facet normal -0.6580377817 0.6929152608 -0.29471156
outer loop
vertex -59.58603668 45.73552704 282.0036621
vertex -59.84340668 45.6297226 282.3295593
vertex -59.59879303 45.83596039 282.26828

endloop
endfacet
facet normal -0.6756145358 0.6778736711 -0.289883405
outer loop
vertex -59.58602142 45.7355423 282.0036926
vertex -59.59877777 45.83597565 282.26828
vertex -59.35579681 45.93909454 281.9431152

endloop
endfacet
facet normal -0.6670980453 0.6905508041 -0.2794991434
outer loop
vertex -59.35579681 45.93909454 281.9431152
vertex -59.59877777 45.83597565 282.26828
vertex -59.36367035 46.03876495 282.2081604

endloop
endfacet
facet normal -0.6882285476 0.6720943451 -0.273186326
outer loop
vertex -59.35579681 45.93909454 281.9431152
vertex -59.36367035 46.03876495 282.2081604
vertex -59.12664032 46.14679718 281.8768005

endloop
endfacet
facet normal -0.6802505255 0.6839327216 -0.2636198103
outer loop
vertex -59.12664032 46.14679718 281.8768005
vertex -59.36367035 46.03876495 282.2081604
vertex -59.13010406 46.24568939 282.1423035

endloop
endfacet
facet normal -0.6935741305 0.6720709801 -0.2593754828
outer loop
vertex -59.12664032 46.14679718 281.8768005
vertex -59.13010406 46.24568939 282.1423035
vertex -58.89061737 46.36161041 281.8022766

endloop
endfacet
facet normal -0.6898010969 0.6776784658 -0.2548063993
outer loop
vertex -58.89061737 46.36161041 281.8022766
vertex -59.13010406 46.24568939 282.1423035
vertex -58.89202118 46.46009064 282.0679932

endloop
endfacet
facet normal -0.6952270865 0.6727847457 -0.2530213594
outer loop
vertex -58.89061737 46.36161041 281.8022766
vertex -58.89202118 46.46009064 282.0679932
vertex -58.65171051 46.57913971 281.7242432

endloop
endfacet
facet normal -0.6934195161 0.6754658222 -0.2508291602
outer loop
vertex -58.65171051 46.57913971 281.7242432
vertex -58.89202118 46.46009064 282.0679932
vertex -58.65203094 46.6774826 281.9899597

endloop
endfacet
facet normal -0.7002896667 0.6692159176 -0.2484841198
outer loop
vertex -58.65171051 46.57917023 281.7242737
vertex -58.65201569 46.67751312 281.9899902
vertex -58.41843414 46.79470062 281.6473083

endloop
endfacet
facet normal -0.6963883042 0.6749636531 -0.2438592613
outer loop
vertex -58.41843414 46.79470062 281.6473083
vertex -58.65201569 46.67751312 281.9899902
vertex -58.41658783 46.89266205 281.9131775

endloop
endfacet
facet normal -0.7089708447 0.6633301973 -0.2394854426
outer loop
vertex -58.41843414 46.79470062 281.6473083
vertex -58.41658783 46.89266205 281.9131775
vertex -58.19283295 47.00832367 281.5711365

endloop
endfacet
facet normal -0.7026969194 0.6725054979 -0.2322785705
outer loop
vertex -58.19283295 47.00832367 281.5711365
vertex -58.41658783 46.89266205 281.9131775
vertex -58.18772125 47.10556793 281.8372192

endloop
endfacet
facet normal -0.7176530957 0.6584193707 -0.2268432826
outer loop
vertex -58.19283295 47.00832367 281.5711365
vertex -58.18772125 47.10556793 281.8372192
vertex -57.97066498 47.22345734 281.4927063

endloop
endfacet
facet normal -0.7111288905 0.6679252982 -0.2194799036
outer loop
vertex -57.97066498 47.22345734 281.4927063
vertex -58.18772125 47.10556793 281.8372192
vertex -57.9622879 47.31977081 281.758667

endloop
endfacet
facet normal -0.6961290836 0.6817597747 -0.2249622941
outer loop
vertex -57.97066498 47.22345734 281.4927063
vertex -57.9622879 47.31977081 281.758667
vertex -57.73886871 47.43343353 281.4117737

endloop
endfacet
facet normal -0.6978120208 0.6794223785 -0.2268121243
outer loop
vertex -57.73886871 47.43343353 281.4117737
vertex -57.9622879 47.31977081 281.758667
vertex -57.73181915 47.52765656 281.6723328

endloop
endfacet
facet normal -0.5536415577 0.7878022194 -0.2699049115
outer loop
vertex -57.73886871 47.43343353 281.4117737
vertex -57.73181915 47.52765656 281.6723328
vertex -57.48673248 47.59191132 281.3571472

endloop
endfacet
facet normal -0.5721534491 0.767773211 -0.2883828282
outer loop
vertex -57.48673248 47.59191132 281.3571472
vertex -57.73181915 47.52765656 281.6723328
vertex -57.48917389 47.67693329 281.5883484

endloop
endfacet
facet normal -0.3904419839 0.8626794219 -0.3214642406
outer loop
vertex -57.48673248 47.59191132 281.3571777
vertex -57.48917389 47.67694855 281.5883484
vertex -57.2337265 47.68822479 281.3083496

endloop
endfacet
facet normal -0.4556598663 0.8033775687 -0.3833518326
outer loop
vertex -57.2337265 47.68822479 281.3083496
vertex -57.48917389 47.67694855 281.5883484
vertex -57.25272369 47.76544952 281.4927673

endloop
endfacet
facet normal 0.4682199061 0.8311882615 -0.299827069
outer loop
vertex -57.2337265 47.68822479 281.3083496
vertex -57.25272369 47.76544952 281.4927673
vertex -56.86981964 47.55493927 281.5071411

endloop
endfacet
facet normal 0.4346358478 0.7572997212 -0.4874306917
outer loop
vertex -56.86981964 47.55493927 281.5071411
vertex -57.25272369 47.76544952 281.4927673
vertex -56.86980438 47.55496979 281.5072021

endloop
endfacet
facet normal 0.8230144978 0.3915469646 -0.4115072489
outer loop
vertex -61.17848969 43.85327911 282.7865295
vertex -61.17850494 43.85327911 282.786499
vertex -61.39273834 44.22385406 282.7106323

endloop
endfacet
facet normal -0.8516927958 -0.4314911962 0.2973796427
outer loop
vertex -61.39273834 44.22385406 282.7106323
vertex -61.17850494 43.85327911 282.786499
vertex -61.31833649 44.22737885 282.928833

endloop
endfacet
facet normal -0.7834784985 0.5653214455 0.2580175996
outer loop
vertex -61.39273834 44.22385406 282.7106323
vertex -61.31833649 44.22737885 282.928833
vertex -61.26903534 44.42508698 282.6453552

endloop
endfacet
facet normal -0.8142976165 0.5329115391 0.2300537527
outer loop
vertex -61.26903534 44.42508698 282.6453552
vertex -61.31833649 44.22737885 282.928833
vertex -61.19774628 44.41905975 282.9116516

endloop
endfacet
facet normal -0.6817035079 0.7042044997 0.1984345466
outer loop
vertex -61.26903534 44.42508698 282.6453552
vertex -61.19774628 44.41905975 282.9116516
vertex -61.06819916 44.639534 282.5742798

endloop
endfacet
facet normal -0.72623384 0.6689711213 0.15831016
outer loop
vertex -61.06819916 44.639534 282.5742798
vertex -61.19774628 44.41905975 282.9116516
vertex -61.00945282 44.63260651 282.8730469

endloop
endfacet
facet normal -0.593085587 0.7937370539 0.1350222826
outer loop
vertex -61.06819916 44.639534 282.5742798
vertex -61.00945282 44.63260651 282.8730469
vertex -60.81710052 44.83492279 282.5286255

endloop
endfacet
facet normal -0.5972343087 0.7912554741 0.1312476248
outer loop
vertex -60.81710052 44.83492279 282.5286255
vertex -61.00945282 44.63260651 282.8730469
vertex -60.76013947 44.82790375 282.8301392

endloop
endfacet
facet normal -0.5995765924 0.7894154787 0.1316473037
outer loop
vertex -60.81710052 44.83492279 282.5286255
vertex -60.76013947 44.82790375 282.8301392
vertex -60.5767746 45.02342987 282.4927979

endloop
endfacet
facet normal -0.5815860629 0.799990654 0.1475556493
outer loop
vertex -60.5767746 45.02342987 282.4927979
vertex -60.76013947 44.82790375 282.8301392
vertex -60.51033783 45.01648712 282.7922974

endloop
endfacet
facet normal -0.6073058248 0.7796378136 0.1527891159
outer loop
vertex -60.5767746 45.02342987 282.4927979
vertex -60.51033783 45.01648712 282.7922974
vertex -60.33992767 45.21639252 282.449585

endloop
endfacet
facet normal -0.5872742534 0.7914153934 0.1696195006
outer loop
vertex -60.33992767 45.21639252 282.449585
vertex -60.51033783 45.01648712 282.7922974
vertex -60.26337433 45.20952606 282.7466736

endloop
endfacet
facet normal -0.6048643589 0.777126193 0.1738218367
outer loop
vertex -60.33992767 45.21639252 282.449585
vertex -60.26337433 45.20952606 282.7466736
vertex -60.09477997 45.41986847 282.3929443

endloop
endfacet
facet normal -0.5953986645 0.78263551 0.1816094369
outer loop
vertex -60.09477997 45.41986847 282.3929443
vertex -60.26337433 45.20952606 282.7466736
vertex -60.01351166 45.41301727 282.6889038

endloop
endfacet
facet normal -0.602334559 0.7768940926 0.1833811104
outer loop
vertex -60.09477997 45.41986847 282.3929443
vertex -60.01351166 45.41301727 282.6889038
vertex -59.84340668 45.6297226 282.3295593

endloop
endfacet
facet normal -0.5995382667 0.7785095572 0.185678944
outer loop
vertex -59.84340668 45.6297226 282.3295593
vertex -60.01351166 45.41301727 282.6889038
vertex -59.76079559 45.62285614 282.6250916

endloop
endfacet
facet normal -0.6053615808 0.7736253142 0.1871932298
outer loop
vertex -59.84340668 45.6297226 282.3295593
vertex -59.76079559 45.62285614 282.6250916
vertex -59.59879303 45.83596039 282.26828

endloop
endfacet
facet normal -0.5982063413 0.7777733207 0.1929193735
outer loop
vertex -59.59879303 45.83596039 282.26828
vertex -59.76079559 45.62285614 282.6250916
vertex -59.51268768 45.82913971 282.5627747

endloop
endfacet
facet normal -0.6111315489 0.7667647004 0.1964434832
outer loop
vertex -59.59877777 45.83597565 282.26828
vertex -59.51267242 45.82915497 282.5627747
vertex -59.36367035 46.03876495 282.2081604

endloop
endfacet
facet normal -0.597350657 0.7748083472 0.2069885135
outer loop
vertex -59.36367035 46.03876495 282.2081604
vertex -59.51267242 45.82915497 282.5627747
vertex -59.2710495 46.03202057 282.5007019

endloop
endfacet
facet normal -0.6139152646 0.7603986263 0.2119007856
outer loop
vertex -59.36367035 46.03876495 282.2081604
vertex -59.2710495 46.03202057 282.5007019
vertex -59.13010406 46.24568939 282.1423035

endloop
endfacet
facet normal -0.60111624 0.7678822875 0.2213957906
outer loop
vertex -59.13010406 46.24568939 282.1423035
vertex -59.2710495 46.03202057 282.5007019
vertex -59.03162384 46.23899078 282.4329224

endloop
endfacet
facet normal -0.6123219728 0.7579269409 0.2249635607
outer loop
vertex -59.13010406 46.24568939 282.1423035
vertex -59.03162384 46.23899078 282.4329224
vertex -58.89202118 46.46009064 282.0679932

endloop
endfacet
facet normal -0.6060516834 0.7615756989 0.229572922
outer loop
vertex -58.89202118 46.46009064 282.0679932
vertex -59.03162384 46.23899078 282.4329224
vertex -58.79070282 46.45340729 282.3576355

endloop
endfacet
facet normal -0.6108175516 0.7572818398 0.231141001
outer loop
vertex -58.89202118 46.46009064 282.0679932
vertex -58.79070282 46.45340729 282.3576355
vertex -58.65203094 46.6774826 281.9899597

endloop
endfacet
facet normal -0.6077342033 0.759069562 0.2333934456
outer loop
vertex -58.65203094 46.6774826 281.9899597
vertex -58.79070282 46.45340729 282.3576355
vertex -58.54930878 46.67079926 282.2791748

endloop
endfacet
facet normal -0.6127859354 0.7544733882 0.235081479
outer loop
vertex -58.65201569 46.67751312 281.9899902
vertex -58.54929352 46.67082977 282.2792053
vertex -58.41658783 46.89266205 281.9131775

endloop
endfacet
facet normal -0.6065062284 0.7581261992 0.2395720482
outer loop
vertex -58.41658783 46.89266205 281.9131775
vertex -58.54929352 46.67082977 282.2792053
vertex -58.31110382 46.88599396 282.2013245

endloop
endfacet
facet normal -0.6162632704 0.7491340041 0.2429358065
outer loop
vertex -58.41658783 46.89266205 281.9131775
vertex -58.31110382 46.88599396 282.2013245
vertex -58.18772125 47.10556793 281.8372192

endloop
endfacet
facet normal -0.6062042713 0.7550278306 0.249898687
outer loop
vertex -58.18772125 47.10556793 281.8372192
vertex -58.31110382 46.88599396 282.2013245
vertex -58.07785797 47.09896088 282.1236877

endloop
endfacet
facet normal -0.6181635857 0.7438029051 0.2542262971
outer loop
vertex -58.18772125 47.10556793 281.8372192
vertex -58.07785797 47.09896088 282.1236877
vertex -57.9622879 47.31977081 281.758667

endloop
endfacet
facet normal -0.6075806022 0.7500301003 0.2613439858
outer loop
vertex -57.9622879 47.31977081 281.758667
vertex -58.07785797 47.09896088 282.1236877
vertex -57.84806061 47.31324005 282.0429688

endloop
endfacet
facet normal -0.5929274559 0.7635574937 0.2557673752
outer loop
vertex -57.9622879 47.31977081 281.758667
vertex -57.84806061 47.31324005 282.0429688
vertex -57.73181915 47.52765656 281.6723328

endloop
endfacet
facet normal -0.5956412554 0.7620241046 0.254029125
outer loop
vertex -57.73181915 47.52765656 281.6723328
vertex -57.84806061 47.31324005 282.0429688
vertex -57.62099457 47.52127838 281.9513245

endloop
endfacet
facet normal -0.4611692429 0.8637931943 0.2029390484
outer loop
vertex -57.73181915 47.52765656 281.6723328
vertex -57.62099457 47.52127838 281.9513245
vertex -57.48917389 47.67693329 281.5883484

endloop
endfacet
facet normal -0.4874007106 0.8525673151 0.1885986328
outer loop
vertex -57.48917389 47.67693329 281.5883484
vertex -57.62099457 47.52127838 281.9513245
vertex -57.40151215 47.67133331 281.84021

endloop
endfacet
facet normal -0.3025097549 0.9447287321 0.1263946742
outer loop
vertex -57.48917389 47.67694855 281.5883484
vertex -57.40151215 47.67131805 281.8402405
vertex -57.25272369 47.76544952 281.4927673

endloop
endfacet
facet normal -0.3925895095 0.9162191749 0.08009908348
outer loop
vertex -57.25272369 47.76544952 281.4927673
vertex -57.40151215 47.67131805 281.8402405
vertex -57.20108795 47.76892853 281.7060547

endloop
endfacet
facet normal 0.4813458323 0.8667362928 -0.1306689233
outer loop
vertex -57.25272369 47.76544952 281.4927673
vertex -57.20108795 47.76892853 281.7060547
vertex -56.86980438 47.55496979 281.5072021

endloop
endfacet
facet normal -0.431738317 -0.8745232821 0.2209321856
outer loop
vertex -56.86980438 47.55496979 281.5072021
vertex -57.20108795 47.76892853 281.7060547
vertex -56.86978912 47.55495453 281.5071716

endloop
endfacet
facet normal -0.7133498192 0 -0.7008081079
outer loop
vertex -61.17850494 43.85327911 282.786499
vertex -61.17850494 43.85326385 282.786499
vertex -61.31833649 44.22737885 282.928833

endloop
endfacet
facet normal -0.7888976932 -0.452891767 0.4153667688
outer loop
vertex -61.31833649 44.22737885 282.928833
vertex -61.17850494 43.85326385 282.786499
vertex -61.18981171 44.14907074 283.0875549

endloop
endfacet
facet normal -0.5859587193 0.4301926494 0.6867216825
outer loop
vertex -61.31833649 44.22737885 282.928833
vertex -61.18981171 44.14907074 283.0875549
vertex -61.19774628 44.41905975 282.9116516

endloop
endfacet
facet normal -0.6471031904 0.4027415514 0.6473458409
outer loop
vertex -61.19774628 44.41905975 282.9116516
vertex -61.18981171 44.14907074 283.0875549
vertex -61.07015228 44.32097626 283.1002197

endloop
endfacet
facet normal -0.5130844116 0.5686415434 0.6429551244
outer loop
vertex -61.19774628 44.41905975 282.9116516
vertex -61.07015228 44.32097626 283.1002197
vertex -61.00945282 44.63260651 282.8730469

endloop
endfacet
facet normal -0.5722177625 0.5529593825 0.6056426167
outer loop
vertex -61.00945282 44.63260651 282.8730469
vertex -61.07015228 44.32097626 283.1002197
vertex -60.88573456 44.52217865 283.0907593

endloop
endfacet
facet normal -0.4319486022 0.6812669039 0.5910125971
outer loop
vertex -61.00945282 44.63260651 282.8730469
vertex -60.88573456 44.52217865 283.0907593
vertex -60.76013947 44.82790375 282.8301392

endloop
endfacet
facet normal -0.4373591244 0.6806729436 0.5877084732
outer loop
vertex -60.76013947 44.82790375 282.8301392
vertex -60.88573456 44.52217865 283.0907593
vertex -60.63748932 44.716362 283.0505981

endloop
endfacet
facet normal -0.4295780063 0.6867035031 0.5864307284
outer loop
vertex -60.76013947 44.82790375 282.8301392
vertex -60.63748932 44.716362 283.0505981
vertex -60.51033783 45.01648712 282.7922974

endloop
endfacet
facet normal -0.408278048 0.688670516 0.5992012024
outer loop
vertex -60.51033783 45.01648712 282.7922974
vertex -60.63748932 44.716362 283.0505981
vertex -60.3794632 44.90602875 283.0084229

endloop
endfacet
facet normal -0.4199815691 0.6794852614 0.6015939116
outer loop
vertex -60.51033783 45.01648712 282.7922974
vertex -60.3794632 44.90602875 283.0084229
vertex -60.26337433 45.20952606 282.7466736

endloop
endfacet
facet normal -0.396720171 0.6818127036 0.6146092415
outer loop
vertex -60.26337433 45.20952606 282.7466736
vertex -60.3794632 44.90602875 283.0084229
vertex -60.12378693 45.10024261 282.9580078

endloop
endfacet
facet normal -0.4063072503 0.6740356684 0.6169199944
outer loop
vertex -60.26337433 45.20952606 282.7466736
vertex -60.12378693 45.10024261 282.9580078
vertex -60.01351166 45.41301727 282.6889038

endloop
endfacet
facet normal -0.3950635493 0.6752175689 0.6229012609
outer loop
vertex -60.01351166 45.41301727 282.6889038
vertex -60.12378693 45.10024261 282.9580078
vertex -59.86991119 45.30432892 282.8977966

endloop
endfacet
facet normal -0.3998040259 0.6712925434 0.6241177917
outer loop
vertex -60.01351166 45.41301727 282.6889038
vertex -59.86991119 45.30432892 282.8977966
vertex -59.76079559 45.62285614 282.6250916

endloop
endfacet
facet normal -0.3965821862 0.6716331244 0.6258047819
outer loop
vertex -59.76079559 45.62285614 282.6250916
vertex -59.86991119 45.30432892 282.8977966
vertex -59.61600494 45.51436615 282.8332825

endloop
endfacet
facet normal -0.3992232382 0.6694251299 0.626490891
outer loop
vertex -59.76079559 45.62285614 282.6250916
vertex -59.61600494 45.51436615 282.8332825
vertex -59.51268768 45.82913971 282.5627747

endloop
endfacet
facet normal -0.3906239271 0.6703749895 0.6308805943
outer loop
vertex -59.51268768 45.82913971 282.5627747
vertex -59.61600494 45.51436615 282.8332825
vertex -59.3649826 45.72106171 282.7690735

endloop
endfacet
facet normal -0.3963705003 0.6655872464 0.6323637962
outer loop
vertex -59.51267242 45.82915497 282.5627747
vertex -59.3649826 45.72107697 282.769104
vertex -59.2710495 46.03202057 282.5007019

endloop
endfacet
facet normal -0.3801851571 0.667496562 0.6402401924
outer loop
vertex -59.2710495 46.03202057 282.5007019
vertex -59.3649826 45.72107697 282.769104
vertex -59.11795807 45.92476654 282.7034302

endloop
endfacet
facet normal -0.3886868954 0.6601332426 0.6427647471
outer loop
vertex -59.2710495 46.03202057 282.5007019
vertex -59.11795807 45.92476654 282.7034302
vertex -59.03162384 46.23899078 282.4329224

endloop
endfacet
facet normal -0.373721689 0.6619879007 0.6496953964
outer loop
vertex -59.03162384 46.23899078 282.4329224
vertex -59.11795807 45.92476654 282.7034302
vertex -58.87349701 46.13259125 282.6322937

endloop
endfacet
facet normal -0.3802897036 0.6561589241 0.6517938375
outer loop
vertex -59.03162384 46.23899078 282.4329224
vertex -58.87349701 46.13259125 282.6322937
vertex -58.79070282 46.45340729 282.3576355

endloop
endfacet
facet normal -0.3730043471 0.6570808291 0.6550667882
outer loop
vertex -58.79070282 46.45340729 282.3576355
vertex -58.87349701 46.13259125 282.6322937
vertex -58.63008881 46.34746552 282.5553589

endloop
endfacet
facet normal -0.3760406971 0.6543457508 0.6560677886
outer loop
vertex -58.79070282 46.45340729 282.3576355
vertex -58.63008881 46.34746552 282.5553589
vertex -58.54930878 46.67079926 282.2791748

endloop
endfacet
facet normal -0.3722345531 0.6548323631 0.6577507257
outer loop
vertex -58.54930878 46.67079926 282.2791748
vertex -58.63008881 46.34746552 282.5553589
vertex -58.38756561 46.56502533 282.4760132

endloop
endfacet
facet normal -0.374470681 0.6528701782 0.6584316492
outer loop
vertex -58.54929352 46.67082977 282.2792053
vertex -58.38755035 46.56505585 282.4760742
vertex -58.31110382 46.88599396 282.2013245

endloop
endfacet
facet normal -0.367276907 0.6538158655 0.6615379453
outer loop
vertex -58.31110382 46.88599396 282.2013245
vertex -58.38755035 46.56505585 282.4760742
vertex -58.14711761 46.78064728 282.3964844

endloop
endfacet
facet normal -0.3721413016 0.6493508816 0.6632151008
outer loop
vertex -58.31110382 46.88599396 282.2013245
vertex -58.14711761 46.78064728 282.3964844
vertex -58.07785797 47.09896088 282.1236877

endloop
endfacet
facet normal -0.3602092862 0.6509996057 0.6681682467
outer loop
vertex -58.07785797 47.09896088 282.1236877
vertex -58.14711761 46.78064728 282.3964844
vertex -57.91017914 46.99434662 282.3160095

endloop
endfacet
facet normal -0.3662734032 0.6453275681 0.6703700423
outer loop
vertex -58.07785797 47.09896088 282.1236877
vertex -57.91017914 46.99434662 282.3160095
vertex -57.84806061 47.31324005 282.0429688

endloop
endfacet
facet normal -0.3539049327 0.6471155882 0.6752722859
outer loop
vertex -57.84806061 47.31324005 282.0429688
vertex -57.91017914 46.99434662 282.3160095
vertex -57.67668915 47.20964813 282.2320557

endloop
endfacet
facet normal -0.3372459114 0.6626601815 0.6686902046
outer loop
vertex -57.84806061 47.31324005 282.0429688
vertex -57.67668915 47.20964813 282.2320557
vertex -57.62099457 47.52127838 281.9513245

endloop
endfacet
facet normal -0.3404446244 0.6621901989 0.6675338745
outer loop
vertex -57.62099457 47.52127838 281.9513245
vertex -57.67668915 47.20964813 282.2320557
vertex -57.45371246 47.4199295 282.1371765

endloop
endfacet
facet normal -0.2138685286 0.7637866139 0.6090075374
outer loop
vertex -57.62099457 47.52127838 281.9513245
vertex -57.45371246 47.4199295 282.1371765
vertex -57.40151215 47.67133331 281.84021

endloop
endfacet
facet normal -0.2420137674 0.7611039281 0.6017891169
outer loop
vertex -57.40151215 47.67133331 281.84021
vertex -57.45371246 47.4199295 282.1371765
vertex -57.26128387 47.58002472 282.012085

endloop
endfacet
facet normal -0.0725800544 0.8549922109 0.5135372281
outer loop
vertex -57.40151215 47.67131805 281.8402405
vertex -57.26128387 47.58002472 282.0120544
vertex -57.20108795 47.76892853 281.7060547

endloop
endfacet
facet normal -0.1517894417 0.8541266918 0.4974209368
outer loop
vertex -57.20108795 47.76892853 281.7060547
vertex -57.26128387 47.58002472 282.0120544
vertex -57.09477997 47.69330597 281.8683472

endloop
endfacet
facet normal 0.5531805158 0.8326668143 0.02563823387
outer loop
vertex -57.20108795 47.76892853 281.7060547
vertex -57.09477997 47.69330597 281.8683472
vertex -56.86978912 47.55495453 281.5071716

endloop
endfacet
facet normal 0.5759848356 -0.5763742924 0.5796845555
outer loop
vertex -56.86978912 47.55495453 281.5071716
vertex -57.09477997 47.69330597 281.8683472
vertex -56.86980438 47.55493927 281.5071716

endloop
endfacet
facet normal -0.9992703199 -0.03819556907 -0
outer loop
vertex -61.17850494 43.85326385 282.786499
vertex -61.17850494 43.85326385 282.7865295
vertex -61.18981171 44.14907074 283.0875549

endloop
endfacet
facet normal -0.7038085461 -0.5197313428 0.4842857718
outer loop
vertex -61.18981171 44.14907074 283.0875549
vertex -61.17850494 43.85326385 282.7865295
vertex -61.05036163 44.02364349 283.1556091

endloop
endfacet
facet normal -0.3188412189 0.1530261785 0.9353733063
outer loop
vertex -61.18981171 44.14907074 283.0875549
vertex -61.05036163 44.02364349 283.1556091
vertex -61.07015228 44.32097626 283.1002197

endloop
endfacet
facet normal -0.4205603898 0.1390233487 0.8965497613
outer loop
vertex -61.07015228 44.32097626 283.1002197
vertex -61.05036163 44.02364349 283.1556091
vertex -60.93062592 44.17783356 283.1878662

endloop
endfacet
facet normal -0.2737152874 0.2939417064 0.9157937765
outer loop
vertex -61.07015228 44.32097626 283.1002197
vertex -60.93062592 44.17783356 283.1878662
vertex -60.88573456 44.52217865 283.0907593

endloop
endfacet
facet normal -0.3403327465 0.2960527241 0.8924832344
outer loop
vertex -60.88573456 44.52217865 283.0907593
vertex -60.93062592 44.17783356 283.1878662
vertex -60.74288177 44.36127472 283.1986084

endloop
endfacet
facet normal -0.1893614829 0.4251376987 0.8850988746
outer loop
vertex -60.88573456 44.52217865 283.0907593
vertex -60.74288177 44.36127472 283.1986084
vertex -60.63748932 44.716362 283.0505981

endloop
endfacet
facet normal -0.1950682551 0.4261178076 0.8833866715
outer loop
vertex -60.63748932 44.716362 283.0505981
vertex -60.74288177 44.36127472 283.1986084
vertex -60.49491119 44.55381012 283.1604919

endloop
endfacet
facet normal -0.1785688698 0.4387615621 0.8806824088
outer loop
vertex -60.63748932 44.716362 283.0505981
vertex -60.49491119 44.55381012 283.1604919
vertex -60.3794632 44.90602875 283.0084229

endloop
endfacet
facet normal -0.1568325311 0.4343569279 0.8869823217
outer loop
vertex -60.3794632 44.90602875 283.0084229
vertex -60.49491119 44.55381012 283.1604919
vertex -60.23149872 44.74514008 283.1133728

endloop
endfacet
facet normal -0.1557392031 0.4352140129 0.8867548108
outer loop
vertex -60.3794632 44.90602875 283.0084229
vertex -60.23149872 44.74514008 283.1133728
vertex -60.12378693 45.10024261 282.9580078

endloop
endfacet
facet normal -0.1317417771 0.4306108654 0.892870903
outer loop
vertex -60.12378693 45.10024261 282.9580078
vertex -60.23149872 44.74514008 283.1133728
vertex -59.9701767 44.94107819 283.0574341

endloop
endfacet
facet normal -0.1332952231 0.4293475747 0.8932486176
outer loop
vertex -60.12378693 45.10024261 282.9580078
vertex -59.9701767 44.94107819 283.0574341
vertex -59.86991119 45.30432892 282.8977966

endloop
endfacet
facet normal -0.1217791215 0.4273176491 0.8958624601
outer loop
vertex -59.86991119 45.30432892 282.8977966
vertex -59.9701767 44.94107819 283.0574341
vertex -59.71369171 45.14603424 282.9945374

endloop
endfacet
facet normal -0.1240920424 0.4253672361 0.8964730501
outer loop
vertex -59.86991119 45.30432892 282.8977966
vertex -59.71369171 45.14601898 282.9945374
vertex -59.61600494 45.51436615 282.8332825

endloop
endfacet
facet normal -0.1208818853 0.4248211086 0.8971703053
outer loop
vertex -59.61600494 45.51436615 282.8332825
vertex -59.71369171 45.14601898 282.9945374
vertex -59.45900726 45.35634613 282.9292603

endloop
endfacet
facet normal -0.1205598861 0.4250900447 0.8970863223
outer loop
vertex -59.61600494 45.51436615 282.8332825
vertex -59.45900726 45.35634613 282.9292603
vertex -59.3649826 45.72106171 282.7690735

endloop
endfacet
facet normal -0.1117992699 0.4236319363 0.8989087343
outer loop
vertex -59.3649826 45.72106171 282.7690735
vertex -59.45900726 45.35634613 282.9292603
vertex -59.20618439 45.56365204 282.8630066

endloop
endfacet
facet normal -0.1109142303 0.4242758453 0.8987146616
outer loop
vertex -59.3649826 45.72107697 282.769104
vertex -59.20618439 45.56368256 282.8630066
vertex -59.11795807 45.92476654 282.7034302

endloop
endfacet
facet normal -0.09425488859 0.421599865 0.9018700123
outer loop
vertex -59.11795807 45.92476654 282.7034302
vertex -59.20618439 45.56368256 282.8630066
vertex -58.95575714 45.76857758 282.793396

endloop
endfacet
facet normal -0.09520020336 0.4207811952 0.9021530747
outer loop
vertex -59.11795807 45.92476654 282.7034302
vertex -58.95575714 45.76857758 282.793396
vertex -58.87349701 46.13259125 282.6322937

endloop
endfacet
facet normal -0.07970477641 0.4184272289 0.904746294
outer loop
vertex -58.87349701 46.13259125 282.6322937
vertex -58.95575714 45.76857758 282.793396
vertex -58.70807648 45.97762299 282.7185364

endloop
endfacet
facet normal -0.08166944981 0.4166809022 0.905376792
outer loop
vertex -58.87349701 46.13259125 282.6322937
vertex -58.70807648 45.97762299 282.7185364
vertex -58.63008881 46.34746552 282.5553589

endloop
endfacet
facet normal -0.07396434247 0.4155727625 0.906547606
outer loop
vertex -58.63008881 46.34746552 282.5553589
vertex -58.70807648 45.97762299 282.7185364
vertex -58.46308136 46.1931839 282.6397095

endloop
endfacet
facet normal -0.07513267547 0.414519161 0.9069337845
outer loop
vertex -58.63008881 46.34746552 282.5553589
vertex -58.46308136 46.1931839 282.6397095
vertex -58.38756561 46.56502533 282.4760132

endloop
endfacet
facet normal -0.07176006585 0.4140489697 0.9074215889
outer loop
vertex -58.38756561 46.56502533 282.4760132
vertex -58.46308136 46.1931839 282.6397095
vertex -58.21987152 46.41103363 282.5595398

endloop
endfacet
facet normal -0.07121375948 0.4143731892 0.9073166251
outer loop
vertex -58.38755035 46.56505585 282.4760742
vertex -58.21987152 46.41104889 282.5595703
vertex -58.14711761 46.78064728 282.3964844

endloop
endfacet
facet normal -0.06373348087 0.4133515358 0.9083383679
outer loop
vertex -58.14711761 46.78064728 282.3964844
vertex -58.21987152 46.41104889 282.5595703
vertex -57.97805023 46.62718964 282.4781799

endloop
endfacet
facet normal -0.06402351707 0.4130856097 0.908438921
outer loop
vertex -58.14711761 46.78064728 282.3964844
vertex -57.97805023 46.62718964 282.4781799
vertex -57.91017914 46.99434662 282.3160095

endloop
endfacet
facet normal -0.05181046948 0.411490947 0.9099400043
outer loop
vertex -57.91017914 46.99434662 282.3160095
vertex -57.97805023 46.62718964 282.4781799
vertex -57.73874664 46.84195709 282.3946838

endloop
endfacet
facet normal -0.05203466862 0.4112811387 0.9100221395
outer loop
vertex -57.91017914 46.99434662 282.3160095
vertex -57.73874664 46.84195709 282.3946838
vertex -57.67668915 47.20964813 282.2320557

endloop
endfacet
facet normal -0.03975840285 0.4097817838 0.9113167524
outer loop
vertex -57.67668915 47.20964813 282.2320557
vertex -57.73874664 46.84195709 282.3946838
vertex -57.5029068 47.05873871 282.3074951

endloop
endfacet
facet normal -0.01988608763 0.4286373854 0.9032577276
outer loop
vertex -57.67668915 47.20964813 282.2320557
vertex -57.5029068 47.05873871 282.3074951
vertex -57.45371246 47.4199295 282.1371765

endloop
endfacet
facet normal -0.02313043736 0.4289686382 0.9030231833
outer loop
vertex -57.45371246 47.4199295 282.1371765
vertex -57.5029068 47.05873871 282.3074951
vertex -57.28360748 47.27228546 282.2116699

endloop
endfacet
facet normal 0.09855670482 0.5364425778 0.8381621838
outer loop
vertex -57.45371246 47.4199295 282.1371765
vertex -57.28360748 47.27228546 282.2116699
vertex -57.26128387 47.58002472 282.012085

endloop
endfacet
facet normal 0.07132995874 0.539100647 0.8392154574
outer loop
vertex -57.26128387 47.58002472 282.012085
vertex -57.28360748 47.27228546 282.2116699
vertex -57.1147995 47.44676971 282.0852356

endloop
endfacet
facet normal 0.2079742402 0.6365018487 0.7427059412
outer loop
vertex -57.26128387 47.58002472 282.0120544
vertex -57.1147995 47.44676971 282.0852356
vertex -57.09477997 47.69330597 281.8683472

endloop
endfacet
facet normal 0.161624819 0.6444036961 0.747409761
outer loop
vertex -57.09477997 47.69330597 281.8683472
vertex -57.1147995 47.44676971 282.0852356
vertex -56.97090912 47.57201385 281.9461365

endloop
endfacet
facet normal 0.6543668509 0.7463217974 0.1216873154
outer loop
vertex -57.09477997 47.69330597 281.8683472
vertex -56.97090912 47.57201385 281.9461365
vertex -56.86980438 47.55493927 281.5071716

endloop
endfacet
facet normal -0.8731253147 0.4360031784 -0.2180674076
outer loop
vertex -56.86980438 47.55493927 281.5071716
vertex -56.97090912 47.57201385 281.9461365
vertex -56.86980438 47.55495453 281.5072021

endloop
endfacet
facet normal 0.4653422832 -0.8540027142 0.2326711416
outer loop
vertex -61.17850494 43.85326385 282.7865295
vertex -61.17848969 43.85326385 282.786499
vertex -61.05036163 44.02364349 283.1556091

endloop
endfacet
facet normal -0.6166410446 -0.6111963391 0.4961782694
outer loop
vertex -61.05036163 44.02364349 283.1556091
vertex -61.17848969 43.85326385 282.786499
vertex -60.93123627 43.88452911 283.1322937

endloop
endfacet
facet normal -0.02502648346 -0.186049819 0.9822215438
outer loop
vertex -61.05036163 44.02364349 283.1556091
vertex -60.93123627 43.88452911 283.1322937
vertex -60.93062592 44.17783356 283.1878662

endloop
endfacet
facet normal -0.1680263877 -0.1831741482 0.9686146379
outer loop
vertex -60.93062592 44.17783356 283.1878662
vertex -60.93123627 43.88452911 283.1322937
vertex -60.80463409 44.02223969 283.1802979

endloop
endfacet
facet normal -0.005402284209 -0.05294730514 0.9985827208
outer loop
vertex -60.93062592 44.17783356 283.1878662
vertex -60.80463409 44.02223969 283.1802979
vertex -60.74288177 44.36127472 283.1986084

endloop
endfacet
facet normal -0.06984937936 -0.04110769928 0.9967102408
outer loop
vertex -60.74288177 44.36127472 283.1986084
vertex -60.80463409 44.02223969 283.1802979
vertex -60.6082077 44.18645477 283.2008362

endloop
endfacet
facet normal 0.08933141083 0.08146705478 0.9926645756
outer loop
vertex -60.74288177 44.36127472 283.1986084
vertex -60.6082077 44.18645477 283.2008362
vertex -60.49491119 44.55381012 283.1604919

endloop
endfacet
facet normal 0.08353484422 0.08329356462 0.9930176735
outer loop
vertex -60.49491119 44.55381012 283.1604919
vertex -60.6082077 44.18645477 283.2008362
vertex -60.35979462 44.37718964 283.1639404

endloop
endfacet
facet normal 0.104759194 0.09946196526 0.9895114303
outer loop
vertex -60.49491119 44.55381012 283.1604919
vertex -60.35979462 44.37718964 283.1639404
vertex -60.23149872 44.74514008 283.1133728

endloop
endfacet
facet normal 0.1259143353 0.09184771031 0.9877801538
outer loop
vertex -60.23149872 44.74514008 283.1133728
vertex -60.35979462 44.37718964 283.1639404
vertex -60.0941391 44.57028961 283.1121216

endloop
endfacet
facet normal 0.136106357 0.09986965358 0.9856475592
outer loop
vertex -60.23149872 44.74514008 283.1133728
vertex -60.0941391 44.57028961 283.1121216
vertex -59.9701767 44.94107819 283.0574341

endloop
endfacet
facet normal 0.1587620676 0.09190926701 0.983029604
outer loop
vertex -59.9701767 44.94107819 283.0574341
vertex -60.0941391 44.57028961 283.1121216
vertex -59.83057404 44.76815033 283.0510559

endloop
endfacet
facet normal 0.1639369875 0.09613318741 0.981775403
outer loop
vertex -59.9701767 44.94107819 283.0574341
vertex -59.83057404 44.76815033 283.0510559
vertex -59.71369171 45.14603424 282.9945374

endloop
endfacet
facet normal 0.1748303324 0.09253426641 0.980240643
outer loop
vertex -59.71369171 45.14603424 282.9945374
vertex -59.83057404 44.76815033 283.0510559
vertex -59.57303619 44.97403717 282.9856873

endloop
endfacet
facet normal 0.1747375429 0.09264021367 0.9802471399
outer loop
vertex -59.71369171 45.14601898 282.9945374
vertex -59.57303619 44.97403717 282.9857178
vertex -59.45900726 45.35634613 282.9292603

endloop
endfacet
facet normal 0.177954644 0.0916094929 0.9797651768
outer loop
vertex -59.45900726 45.35634613 282.9292603
vertex -59.57303619 44.97403717 282.9857178
vertex -59.31803131 45.18465424 282.9197083

endloop
endfacet
facet normal 0.1800539792 0.09336381406 0.9792158604
outer loop
vertex -59.45900726 45.35634613 282.9292603
vertex -59.31803131 45.18465424 282.9197083
vertex -59.20618439 45.56365204 282.8630066

endloop
endfacet
facet normal 0.1885501742 0.09065519273 0.9778703451
outer loop
vertex -59.20618439 45.56365204 282.8630066
vertex -59.31803131 45.18465424 282.9197083
vertex -59.06459808 45.39261627 282.8515625

endloop
endfacet
facet normal 0.1935982108 0.09512000531 0.9764587879
outer loop
vertex -59.20618439 45.56368256 282.8630066
vertex -59.06458282 45.39264679 282.851593
vertex -58.95575714 45.76857758 282.793396

endloop
endfacet
facet normal 0.2092848867 0.09015037864 0.9736902118
outer loop
vertex -58.95575714 45.76857758 282.793396
vertex -59.06458282 45.39264679 282.851593
vertex -58.81293488 45.59885406 282.7784119

endloop
endfacet
facet normal 0.214176029 0.09439577907 0.9722232819
outer loop
vertex -58.95575714 45.76857758 282.793396
vertex -58.81293488 45.59885406 282.7784119
vertex -58.70807648 45.97762299 282.7185364

endloop
endfacet
facet normal 0.2285621166 0.089961119 0.9693638086
outer loop
vertex -58.70807648 45.97762299 282.7185364
vertex -58.81293488 45.59885406 282.7784119
vertex -58.56403351 45.80928802 282.7001953

endloop
endfacet
facet normal 0.2307757586 0.09193262458 0.9686542153
outer loop
vertex -58.70807648 45.97762299 282.7185364
vertex -58.56403351 45.80928802 282.7001953
vertex -58.46308136 46.1931839 282.6397095

endloop
endfacet
facet normal 0.2377402782 0.08986619115 0.9671626687
outer loop
vertex -58.46308136 46.1931839 282.6397095
vertex -58.56403351 45.80928802 282.7001953
vertex -58.31839752 46.02555084 282.6197205

endloop
endfacet
facet normal 0.2380384207 0.09013527632 0.9670642614
outer loop
vertex -58.46308136 46.1931839 282.6397095
vertex -58.31839752 46.02555084 282.6197205
vertex -58.21987152 46.41103363 282.5595398

endloop
endfacet
facet normal 0.2415056974 0.08912939578 0.9662976265
outer loop
vertex -58.21987152 46.41103363 282.5595398
vertex -58.31839752 46.02555084 282.6197205
vertex -58.0749588 46.24369049 282.5387573

endloop
endfacet
facet normal 0.2436043471 0.09105677158 0.965590775
outer loop
vertex -58.21987152 46.41104889 282.5595703
vertex -58.07494354 46.24370575 282.5387878
vertex -57.97805023 46.62718964 282.4781799

endloop
endfacet
facet normal 0.2505336702 0.08905506134 0.9640031457
outer loop
vertex -57.97805023 46.62718964 282.4781799
vertex -58.07494354 46.24370575 282.5387878
vertex -57.83271027 46.46045685 282.4558105

endloop
endfacet
facet normal 0.2535638213 0.09183780849 0.9629492164
outer loop
vertex -57.97805023 46.62718964 282.4781799
vertex -57.83271027 46.46045685 282.4558105
vertex -57.73874664 46.84195709 282.3946838

endloop
endfacet
facet normal 0.2645660937 0.08870019764 0.9602796435
outer loop
vertex -57.73874664 46.84195709 282.3946838
vertex -57.83271027 46.46045685 282.4558105
vertex -57.59250641 46.67635345 282.3696899

endloop
endfacet
facet normal 0.2690259218 0.09288550168 0.9586435556
outer loop
vertex -57.73874664 46.84195709 282.3946838
vertex -57.59250641 46.67635345 282.3696899
vertex -57.5029068 47.05873871 282.3074951

endloop
endfacet
facet normal 0.2805278897 0.08970269561 0.9556450844
outer loop
vertex -57.5029068 47.05873871 282.3074951
vertex -57.59250641 46.67635345 282.3696899
vertex -57.3557663 46.89476776 282.2796936

endloop
endfacet
facet normal 0.3039641976 0.1123629883 0.9460339546
outer loop
vertex -57.5029068 47.05873871 282.3074951
vertex -57.3557663 46.89476776 282.2796936
vertex -57.28360748 47.27228546 282.2116699

endloop
endfacet
facet normal 0.3010538518 0.1130716875 0.9468798041
outer loop
vertex -57.28360748 47.27228546 282.2116699
vertex -57.3557663 46.89476776 282.2796936
vertex -57.13916779 47.11183929 282.184906

endloop
endfacet
facet normal 0.4191067219 0.2308192253 0.8781070709
outer loop
vertex -57.28360748 47.27228546 282.2116699
vertex -57.13916779 47.11183929 282.184906
vertex -57.1147995 47.44676971 282.0852356

endloop
endfacet
facet normal 0.392647624 0.2359575778 0.8889048696
outer loop
vertex -57.1147995 47.44676971 282.0852356
vertex -57.13916779 47.11183929 282.184906
vertex -56.9874649 47.30190277 282.0674438

endloop
endfacet
facet normal 0.4902967513 0.3317929208 0.8059296608
outer loop
vertex -57.1147995 47.44676971 282.0852356
vertex -56.98748016 47.30191803 282.0674133
vertex -56.97090912 47.57201385 281.9461365

endloop
endfacet
facet normal 0.4763143659 0.3356802762 0.8126766086
outer loop
vertex -56.97090912 47.57201385 281.9461365
vertex -56.98748016 47.30191803 282.0674133
vertex -56.85813141 47.43747711 281.9356079

endloop
endfacet
facet normal 0.7633242607 0.6280199289 0.1514169574
outer loop
vertex -56.97090912 47.57201385 281.9461365
vertex -56.85813141 47.43747711 281.9356079
vertex -56.86980438 47.55495453 281.5072021

endloop
endfacet
facet normal 0.9951060414 0.0988130942 0
outer loop
vertex -56.86980438 47.55495453 281.5072021
vertex -56.85813141 47.43747711 281.9356079
vertex -56.86980438 47.55495453 281.5071716

endloop
endfacet
facet normal 0 0.995937407 -0.09004835784
outer loop
vertex -61.17848969 43.85326385 282.786499
vertex -61.17850494 43.85326385 282.786499
vertex -60.93123627 43.88452911 283.1322937

endloop
endfacet
facet normal -0.5475105047 -0.7022822499 0.4550076723
outer loop
vertex -60.93123627 43.88452911 283.1322937
vertex -61.17850494 43.85326385 282.786499
vertex -60.84685516 43.75205231 283.0293579

endloop
endfacet
facet normal 0.2295811772 -0.5017750859 0.8339749575
outer loop
vertex -60.93123627 43.88452911 283.1322937
vertex -60.84685516 43.75205231 283.0293579
vertex -60.80463409 44.02223969 283.1802979

endloop
endfacet
facet normal 0.07573744655 -0.4952985346 0.8654150367
outer loop
vertex -60.80463409 44.02223969 283.1802979
vertex -60.84685516 43.75205231 283.0293579
vertex -60.70043182 43.86540985 283.0814209

endloop
endfacet
facet normal 0.2404454648 -0.3983177543 0.8851716518
outer loop
vertex -60.80463409 44.02223969 283.1802979
vertex -60.70043182 43.86540985 283.0814209
vertex -60.6082077 44.18645477 283.2008362

endloop
endfacet
facet normal 0.1835674047 -0.3885882497 0.9029408097
outer loop
vertex -60.6082077 44.18645477 283.2008362
vertex -60.70043182 43.86540985 283.0814209
vertex -60.49062347 44.01004791 283.1010132

endloop
endfacet
facet normal 0.345746249 -0.2768713236 0.8965499997
outer loop
vertex -60.6082077 44.18645477 283.2008362
vertex -60.49062347 44.01004791 283.1010132
vertex -60.35979462 44.37718964 283.1639404

endloop
endfacet
facet normal 0.3408500254 -0.2755188346 0.8988384604
outer loop
vertex -60.35979462 44.37718964 283.1639404
vertex -60.49062347 44.01004791 283.1010132
vertex -60.24115753 44.1989975 283.0643311

endloop
endfacet
facet normal 0.3627876937 -0.2588748336 0.8951921463
outer loop
vertex -60.35979462 44.37718964 283.1639404
vertex -60.24115753 44.1989975 283.0643311
vertex -60.0941391 44.57028961 283.1121216

endloop
endfacet
facet normal 0.3824490011 -0.2653550208 0.8850533962
outer loop
vertex -60.0941391 44.57028961 283.1121216
vertex -60.24115753 44.1989975 283.0643311
vertex -59.97641754 44.39388275 283.0083618

endloop
endfacet
facet normal 0.3957428336 -0.2548579574 0.8822895885
outer loop
vertex -60.0941391 44.57028961 283.1121216
vertex -59.97641754 44.39388275 283.0083618
vertex -59.83057404 44.76815033 283.0510559

endloop
endfacet
facet normal 0.4165874422 -0.2616504133 0.8706284761
outer loop
vertex -59.83057404 44.76815033 283.0510559
vertex -59.97641754 44.39388275 283.0083618
vertex -59.71404266 44.59360504 282.9428406

endloop
endfacet
facet normal 0.4245044291 -0.2551827729 0.8687219024
outer loop
vertex -59.83057404 44.76815033 283.0510559
vertex -59.71404266 44.59360504 282.9428406
vertex -59.57303619 44.97403717 282.9856873

endloop
endfacet
facet normal 0.4341894984 -0.2581331432 0.8630450368
outer loop
vertex -59.57303619 44.97403717 282.9856873
vertex -59.71404266 44.59360504 282.9428406
vertex -59.4570694 44.80045319 282.8754272

endloop
endfacet
facet normal 0.4356224835 -0.2570703328 0.8626400828
outer loop
vertex -59.57303619 44.97403717 282.9857178
vertex -59.4570694 44.80045319 282.8754272
vertex -59.31803131 45.18465424 282.9197083

endloop
endfacet
facet normal 0.4384278655 -0.2578932643 0.86097157
outer loop
vertex -59.31803131 45.18465424 282.9197083
vertex -59.4570694 44.80045319 282.8754272
vertex -59.20215607 45.01140594 282.8088074

endloop
endfacet
facet normal 0.4411042035 -0.2556552887 0.8602717519
outer loop
vertex -59.31803131 45.18465424 282.9197083
vertex -59.20215607 45.01140594 282.8088074
vertex -59.06459808 45.39261627 282.8515625

endloop
endfacet
facet normal 0.4486594796 -0.2578679025 0.8556919694
outer loop
vertex -59.06459808 45.39261627 282.8515625
vertex -59.20215607 45.01140594 282.8088074
vertex -58.9492569 45.22002411 282.7390747

endloop
endfacet
facet normal 0.4551232755 -0.2523686588 0.8539162278
outer loop
vertex -59.06458282 45.39264679 282.851593
vertex -58.94924164 45.22003937 282.7391052
vertex -58.81293488 45.59885406 282.7784119

endloop
endfacet
facet normal 0.4690513015 -0.2564668357 0.8451128006
outer loop
vertex -58.81293488 45.59885406 282.7784119
vertex -58.94924164 45.22003937 282.7391052
vertex -58.69857025 45.42758942 282.6629639

endloop
endfacet
facet normal 0.4763519168 -0.2501195967 0.8429288864
outer loop
vertex -58.81293488 45.59885406 282.7784119
vertex -58.69857025 45.42758942 282.6629639
vertex -58.56403351 45.80928802 282.7001953

endloop
endfacet
facet normal 0.4888008535 -0.2537038326 0.834690392
outer loop
vertex -58.56403351 45.80928802 282.7001953
vertex -58.69857025 45.42758942 282.6629639
vertex -58.45041656 45.63942719 282.5820312

endloop
endfacet
facet normal 0.4930484295 -0.2499184757 0.833333075
outer loop
vertex -58.56403351 45.80928802 282.7001953
vertex -58.45041656 45.63942719 282.5820312
vertex -58.31839752 46.02555084 282.6197205

endloop
endfacet
facet normal 0.4991918206 -0.2516112328 0.8291557431
outer loop
vertex -58.31839752 46.02555084 282.6197205
vertex -58.45041656 45.63942719 282.5820312
vertex -58.20508575 45.85643768 282.5001831

endloop
endfacet
facet normal 0.5002512932 -0.250654757 0.8288068771
outer loop
vertex -58.31839752 46.02555084 282.6197205
vertex -58.20508575 45.85643768 282.5001831
vertex -58.0749588 46.24369049 282.5387573

endloop
endfacet
facet normal 0.5032974482 -0.2514697611 0.8267130852
outer loop
vertex -58.0749588 46.24369049 282.5387573
vertex -58.20508575 45.85643768 282.5001831
vertex -57.96192169 46.07483673 282.4185791

endloop
endfacet
facet normal 0.505852282 -0.2491679639 0.8258503079
outer loop
vertex -58.07494354 46.24370575 282.5387878
vertex -57.96190643 46.07486725 282.4186096
vertex -57.83271027 46.46045685 282.4558105

endloop
endfacet
facet normal 0.5118330717 -0.2507685721 0.8216702342
outer loop
vertex -57.83271027 46.46045685 282.4558105
vertex -57.96190643 46.07486725 282.4186096
vertex -57.7201767 46.29216766 282.3343506

endloop
endfacet
facet normal 0.516012609 -0.2469260544 0.8202186227
outer loop
vertex -57.83271027 46.46045685 282.4558105
vertex -57.7201767 46.29216766 282.3343506
vertex -57.59250641 46.67635345 282.3696899

endloop
endfacet
facet normal 0.5257088542 -0.2495072931 0.8132504225
outer loop
vertex -57.59250641 46.67635345 282.3696899
vertex -57.7201767 46.29216766 282.3343506
vertex -57.48056793 46.50925446 282.2460632

endloop
endfacet
facet normal 0.5325043797 -0.2431138903 0.8107618093
outer loop
vertex -57.59250641 46.67635345 282.3696899
vertex -57.48056793 46.50925446 282.2460632
vertex -57.3557663 46.89476776 282.2796936

endloop
endfacet
facet normal 0.5424679518 -0.2456923872 0.8033453226
outer loop
vertex -57.3557663 46.89476776 282.2796936
vertex -57.48056793 46.50925446 282.2460632
vertex -57.2443924 46.72936249 282.1539001

endloop
endfacet
facet normal 0.5680234432 -0.2205491215 0.7929106951
outer loop
vertex -57.3557663 46.89476776 282.2796936
vertex -57.2443924 46.72936249 282.1539001
vertex -57.13916779 47.11183929 282.184906

endloop
endfacet
facet normal 0.5653435588 -0.2199797183 0.7949815392
outer loop
vertex -57.13916779 47.11183929 282.184906
vertex -57.2443924 46.72936249 282.1539001
vertex -57.0293808 46.94997406 282.0620422

endloop
endfacet
facet normal 0.6791731119 -0.09206835181 0.7281807661
outer loop
vertex -57.13916779 47.11183929 282.184906
vertex -57.0293808 46.94997406 282.0620422
vertex -56.9874649 47.30190277 282.0674438

endloop
endfacet
facet normal 0.6543084383 -0.08945588022 0.7509182096
outer loop
vertex -56.9874649 47.30190277 282.0674438
vertex -57.0293808 46.94997406 282.0620422
vertex -56.88742828 47.15595245 281.9628906

endloop
endfacet
facet normal 0.7174342871 -0.007267060224 0.6965882778
outer loop
vertex -56.98748016 47.30191803 282.0674133
vertex -56.88744354 47.15593719 281.9628601
vertex -56.85813141 47.43747711 281.9356079

endloop
endfacet
facet normal 0.711535871 -0.006068757735 0.7026236057
outer loop
vertex -56.85813141 47.43747711 281.9356079
vertex -56.88744354 47.15593719 281.9628601
vertex -56.77089691 47.30942535 281.8461609

endloop
endfacet
facet normal 0.8564444184 0.5033398867 0.1146817431
outer loop
vertex -56.85813141 47.43747711 281.9356079
vertex -56.77089691 47.30942535 281.8461609
vertex -56.86980438 47.55495453 281.5071716

endloop
endfacet
facet normal -0.9599689841 0 0.2801062465
outer loop
vertex -56.86980438 47.55495453 281.5071716
vertex -56.77089691 47.30942535 281.8461609
vertex -56.86980438 47.55496979 281.5071716

endloop
endfacet
facet normal -nan(ind) -nan(ind) -nan(ind)
outer loop
vertex -61.17850494 43.85326385 282.786499
vertex -61.17850494 43.85326385 282.786499
vertex -60.84685516 43.75205231 283.0293579

endloop
endfacet
facet normal -0.5087111592 -0.7769427299 0.3709082901
outer loop
vertex -60.84685516 43.75205231 283.0293579
vertex -61.17850494 43.85326385 282.786499
vertex -60.81468964 43.65261078 282.8651733

endloop
endfacet
facet normal 0.3922148049 -0.7507507801 0.5315456986
outer loop
vertex -60.84685516 43.75205231 283.0293579
vertex -60.81468964 43.65261078 282.8651733
vertex -60.70043182 43.86540985 283.0814209

endloop
endfacet
facet normal 0.2488530427 -0.7528392076 0.6093482971
outer loop
vertex -60.70043182 43.86540985 283.0814209
vertex -60.81468964 43.65261078 282.8651733
vertex -60.64147186 43.73899078 282.9011536

endloop
endfacet
facet normal 0.410479039 -0.6780250072 0.6097450256
outer loop
vertex -60.70043182 43.86540985 283.0814209
vertex -60.64147186 43.73899078 282.9011536
vertex -60.49062347 44.01004791 283.1010132

endloop
endfacet
facet normal 0.3664768338 -0.6756274104 0.6397048831
outer loop
vertex -60.49062347 44.01004791 283.1010132
vertex -60.64147186 43.73899078 282.9011536
vertex -60.41585541 43.86769867 282.9078369

endloop
endfacet
facet normal 0.5268948674 -0.5739490986 0.626868546
outer loop
vertex -60.49062347 44.01004791 283.1010132
vertex -60.41585541 43.86769867 282.9078369
vertex -60.24115753 44.1989975 283.0643311

endloop
endfacet
facet normal 0.5225934386 -0.573548913 0.6308230758
outer loop
vertex -60.24115753 44.1989975 283.0643311
vertex -60.41585541 43.86769867 282.9078369
vertex -60.16483307 44.05516815 282.8703308

endloop
endfacet
facet normal 0.5433105826 -0.5578832626 0.6273593903
outer loop
vertex -60.24115753 44.1989975 283.0643311
vertex -60.16483307 44.05516815 282.8703308
vertex -59.97641754 44.39388275 283.0083618

endloop
endfacet
facet normal 0.5596745014 -0.5601943731 0.610693574
outer loop
vertex -59.97641754 44.39388275 283.0083618
vertex -60.16483307 44.05516815 282.8703308
vertex -59.9043808 44.25150299 282.8117371

endloop
endfacet
facet normal 0.5713172555 -0.5509824157 0.6082885265
outer loop
vertex -59.97641754 44.39388275 283.0083618
vertex -59.9043808 44.25150299 282.8117371
vertex -59.71404266 44.59360504 282.9428406

endloop
endfacet
facet normal 0.5885127187 -0.5533366799 0.589466989
outer loop
vertex -59.71404266 44.59360504 282.9428406
vertex -59.9043808 44.25150299 282.8117371
vertex -59.64673615 44.4527359 282.7434082

endloop
endfacet
facet normal 0.5952096581 -0.5478584766 0.5878576636
outer loop
vertex -59.71404266 44.59360504 282.9428406
vertex -59.64673615 44.4527359 282.7434082
vertex -59.4570694 44.80045319 282.8754272

endloop
endfacet
facet normal 0.6032069921 -0.5487747192 0.5787811875
outer loop
vertex -59.4570694 44.80045319 282.8754272
vertex -59.64673615 44.4527359 282.7434082
vertex -59.3919754 44.66034698 282.6747437

endloop
endfacet
facet normal 0.6044552922 -0.5477371216 0.5784617066
outer loop
vertex -59.4570694 44.80045319 282.8754272
vertex -59.3919754 44.66034698 282.6747437
vertex -59.20215607 45.01140594 282.8088074

endloop
endfacet
facet normal 0.6067614555 -0.54797405 0.5758168697
outer loop
vertex -59.20215607 45.01140594 282.8088074
vertex -59.3919754 44.66034698 282.6747437
vertex -59.13765717 44.87155914 282.6077576

endloop
endfacet
facet normal 0.6090528369 -0.5460570455 0.5752184987
outer loop
vertex -59.20215607 45.01140594 282.8088074
vertex -59.13765717 44.87155914 282.6077576
vertex -58.9492569 45.22002411 282.7390747

endloop
endfacet
facet normal 0.6149541736 -0.5466529131 0.5683327317
outer loop
vertex -58.9492569 45.22002411 282.7390747
vertex -59.13765717 44.87155914 282.6077576
vertex -58.88651276 45.08069611 282.5371704

endloop
endfacet
facet normal 0.6207239628 -0.5417810678 0.5667229891
outer loop
vertex -58.94924164 45.22003937 282.7391052
vertex -58.8864975 45.08072662 282.5372009
vertex -58.69857025 45.42758942 282.6629639

endloop
endfacet
facet normal 0.6317675114 -0.5428954363 0.5532941818
outer loop
vertex -58.69857025 45.42758942 282.6629639
vertex -58.8864975 45.08072662 282.5372009
vertex -58.63904572 45.28934479 282.4593506

endloop
endfacet
facet normal 0.6383575201 -0.5371588469 0.551325798
outer loop
vertex -58.69857025 45.42758942 282.6629639
vertex -58.63904572 45.28934479 282.4593506
vertex -58.45041656 45.63942719 282.5820312

endloop
endfacet
facet normal 0.6482676864 -0.5380806923 0.538719058
outer loop
vertex -58.45041656 45.63942719 282.5820312
vertex -58.63904572 45.28934479 282.4593506
vertex -58.3937149 45.50226593 282.3768005

endloop
endfacet
facet normal 0.6521865726 -0.53458637 0.5374663472
outer loop
vertex -58.45041656 45.63942719 282.5820312
vertex -58.3937149 45.50226593 282.3768005
vertex -58.20508575 45.85643768 282.5001831

endloop
endfacet
facet normal 0.6568070054 -0.5349494815 0.531444788
outer loop
vertex -58.20508575 45.85643768 282.5001831
vertex -58.3937149 45.50226593 282.3768005
vertex -58.14965057 45.71988678 282.29422

endloop
endfacet
facet normal 0.6578529477 -0.5340054035 0.5311005116
outer loop
vertex -58.20508575 45.85643768 282.5001831
vertex -58.14965057 45.71988678 282.29422
vertex -57.96192169 46.07483673 282.4185791

endloop
endfacet
facet normal 0.6602120996 -0.5341672301 0.5280012488
outer loop
vertex -57.96192169 46.07483673 282.4185791
vertex -58.14965057 45.71988678 282.29422
vertex -57.90721893 45.93852997 282.2122803

endloop
endfacet
facet normal 0.662289083 -0.5322803259 0.5273052454
outer loop
vertex -57.96190643 46.07486725 282.4186096
vertex -57.90720367 45.93856049 282.2123108
vertex -57.7201767 46.29216766 282.3343506

endloop
endfacet
facet normal 0.66690135 -0.5325924158 0.5211410522
outer loop
vertex -57.7201767 46.29216766 282.3343506
vertex -57.90720367 45.93856049 282.2123108
vertex -57.66690826 46.15634918 282.1273804

endloop
endfacet
facet normal 0.6708025932 -0.5290020704 0.5197890401
outer loop
vertex -57.7201767 46.29216766 282.3343506
vertex -57.66690826 46.15634918 282.1273804
vertex -57.48056793 46.50925446 282.2460632

endloop
endfacet
facet normal 0.6780713201 -0.5294742584 0.509780705
outer loop
vertex -57.48056793 46.50925446 282.2460632
vertex -57.66690826 46.15634918 282.1273804
vertex -57.42942047 46.37439728 282.0379639

endloop
endfacet
facet normal 0.6851540208 -0.5227977037 0.5071948171
outer loop
vertex -57.48056793 46.50925446 282.2460632
vertex -57.42942047 46.37439728 282.0379639
vertex -57.2443924 46.72936249 282.1539001

endloop
endfacet
facet normal 0.6925208569 -0.5231990814 0.4966664612
outer loop
vertex -57.2443924 46.72936249 282.1539001
vertex -57.42942047 46.37439728 282.0379639
vertex -57.19535065 46.59580231 281.9448242

endloop
endfacet
facet normal 0.7182813883 -0.4975529909 0.4863258898
outer loop
vertex -57.2443924 46.72936249 282.1539001
vertex -57.19535065 46.59580231 281.9448242
vertex -57.0293808 46.94997406 282.0620422

endloop
endfacet
facet normal 0.716301322 -0.4975797534 0.4892103672
outer loop
vertex -57.0293808 46.94997406 282.0620422
vertex -57.19535065 46.59580231 281.9448242
vertex -56.98035431 46.81928253 281.8573303

endloop
endfacet
facet normal 0.8268052936 -0.3629473746 0.4297234416
outer loop
vertex -57.0293808 46.94997406 282.0620422
vertex -56.98035431 46.81928253 281.8573303
vertex -56.88742828 47.15595245 281.9628906

endloop
endfacet
facet normal 0.8064888716 -0.3677596748 0.4629563391
outer loop
vertex -56.88742828 47.15595245 281.9628906
vertex -56.98035431 46.81928253 281.8573303
vertex -56.83798981 47.03824615 281.7832642

endloop
endfacet
facet normal 0.8448637724 -0.3100364804 0.4359848201
outer loop
vertex -56.88744354 47.15593719 281.9628601
vertex -56.83797455 47.0382309 281.7832947
vertex -56.77089691 47.30942535 281.8461609

endloop
endfacet
facet normal 0.8444263339 -0.3101120889 0.4367776513
outer loop
vertex -56.77089691 47.30942535 281.8461609
vertex -56.83797455 47.0382309 281.7832947
vertex -56.72722626 47.21334076 281.693512

endloop
endfacet
facet normal 0.9196015596 0.3925261796 0.01600982435
outer loop
vertex -56.77089691 47.30942535 281.8461609
vertex -56.72722626 47.21334076 281.693512
vertex -56.86980438 47.55496979 281.5071716

endloop
endfacet
facet normal 0.794475913 0 -0.607295692
outer loop
vertex -56.86980438 47.55496979 281.5071716
vertex -56.72722626 47.21334076 281.693512
vertex -56.86980438 47.55495453 281.5071716

endloop
endfacet
facet normal 0.1366990805 -0.1366990805 -0.9811354876
outer loop
vertex -61.1785202 43.8532486 282.786499
vertex -61.17850494 43.85326385 282.786499
vertex -60.8147049 43.65261078 282.8651428

endloop
endfacet
facet normal -0.5084245801 -0.8246472478 0.2479137033
outer loop
vertex -60.8147049 43.65261078 282.8651428
vertex -61.17850494 43.85326385 282.786499
vertex -60.85704803 43.61109161 282.6401978

endloop
endfacet
facet normal 0.430447787 -0.8986198902 0.08483597636
outer loop
vertex -60.8147049 43.65261078 282.8651428
vertex -60.85704803 43.61109161 282.6401978
vertex -60.64147186 43.73899078 282.9011536

endloop
endfacet
facet normal 0.3180418611 -0.9283741713 0.1922778785
outer loop
vertex -60.64147186 43.73899078 282.9011536
vertex -60.85704803 43.61109161 282.6401978
vertex -60.65814972 43.67713165 282.6300659

endloop
endfacet
facet normal 0.4848676324 -0.8586683273 0.1661083549
outer loop
vertex -60.64147186 43.73899078 282.9011536
vertex -60.65814972 43.67713165 282.6300659
vertex -60.41585541 43.86768341 282.9078369

endloop
endfacet
facet normal 0.4512167573 -0.8691073656 0.2026226074
outer loop
vertex -60.41585541 43.86768341 282.9078369
vertex -60.65814972 43.67713165 282.6300659
vertex -60.41576385 43.79792023 282.6083984

endloop
endfacet
facet normal 0.6057093143 -0.7748913765 0.1807194203
outer loop
vertex -60.41585541 43.86768341 282.9078369
vertex -60.41576385 43.79792023 282.6083984
vertex -60.16483307 44.05515289 282.8703308

endloop
endfacet
facet normal 0.6022922993 -0.7764241695 0.185498178
outer loop
vertex -60.16483307 44.05515289 282.8703308
vertex -60.41576385 43.79792023 282.6083984
vertex -60.16274261 43.98468781 282.5686035

endloop
endfacet
facet normal 0.6177047491 -0.7648451924 0.1829008162
outer loop
vertex -60.16483307 44.05515289 282.8703308
vertex -60.16274261 43.98468781 282.5686035
vertex -59.9043808 44.25148773 282.8117371

endloop
endfacet
facet normal 0.631075561 -0.7586414218 0.1618849188
outer loop
vertex -59.9043808 44.25148773 282.8117371
vertex -60.16274261 43.98468781 282.5686035
vertex -59.91082001 44.18173981 282.5099792

endloop
endfacet
facet normal 0.6337294579 -0.7565417886 0.1613429636
outer loop
vertex -59.9043808 44.25148773 282.8117371
vertex -59.91082001 44.18173981 282.5099792
vertex -59.64673615 44.4527359 282.7434082

endloop
endfacet
facet normal 0.6473023891 -0.7496412396 0.1379765421
outer loop
vertex -59.64673615 44.4527359 282.7434082
vertex -59.91082001 44.18173981 282.5099792
vertex -59.66239166 44.38370514 282.441803

endloop
endfacet
facet normal 0.6477570534 -0.7492685318 0.1378676593
outer loop
vertex -59.64673615 44.4527359 282.7434082
vertex -59.66239166 44.38370514 282.441803
vertex -59.3919754 44.66034698 282.6747437

endloop
endfacet
facet normal 0.6539666653 -0.7458543777 0.1266043633
outer loop
vertex -59.3919754 44.66034698 282.6747437
vertex -59.66239166 44.38370514 282.441803
vertex -59.4119339 44.59166718 282.37323

endloop
endfacet
facet normal 0.6533437967 -0.7463656068 0.1268079579
outer loop
vertex -59.3919754 44.66033173 282.6747437
vertex -59.41191864 44.59165192 282.3732605
vertex -59.13767242 44.87155914 282.6077576

endloop
endfacet
facet normal 0.6551205516 -0.7453577518 0.1235268861
outer loop
vertex -59.13767242 44.87155914 282.6077576
vertex -59.41191864 44.59165192 282.3732605
vertex -59.15882111 44.80301666 282.3063354

endloop
endfacet
facet normal 0.6552672386 -0.7452351451 0.1234887019
outer loop
vertex -59.13767242 44.87155914 282.6077576
vertex -59.15882111 44.80301666 282.3063354
vertex -58.88651276 45.08069611 282.5371399

endloop
endfacet
facet normal 0.6598169208 -0.7425848246 0.1149322391
outer loop
vertex -58.88651276 45.08069611 282.5371399
vertex -59.15882111 44.80301666 282.3063354
vertex -58.91091156 45.01239777 282.2359314

endloop
endfacet
facet normal 0.6611666679 -0.741440475 0.1145634353
outer loop
vertex -58.8864975 45.08071136 282.5371704
vertex -58.9108963 45.01241302 282.2359619
vertex -58.63906097 45.28932953 282.4593201

endloop
endfacet
facet normal 0.6693585515 -0.7364014387 0.09834615141
outer loop
vertex -58.63906097 45.28932953 282.4593201
vertex -58.9108963 45.01241302 282.2359619
vertex -58.66944122 45.22154999 282.1585693

endloop
endfacet
facet normal 0.6709131002 -0.7350472212 0.09788390994
outer loop
vertex -58.63906097 45.28932953 282.4593201
vertex -58.66944122 45.22154999 282.1585693
vertex -58.39373016 45.50226593 282.3768005

endloop
endfacet
facet normal 0.6780641079 -0.7303266525 0.08277712017
outer loop
vertex -58.39373016 45.50226593 282.3768005
vertex -58.66944122 45.22154999 282.1585693
vertex -58.42951202 45.43500519 282.0764771

endloop
endfacet
facet normal 0.6786863208 -0.729771018 0.0825785473
outer loop
vertex -58.39373016 45.50226593 282.3768005
vertex -58.42951202 45.43500519 282.0764771
vertex -58.14968109 45.71988678 282.29422

endloop
endfacet
facet normal 0.682056129 -0.7274252772 0.07517878711
outer loop
vertex -58.14968109 45.71988678 282.29422
vertex -58.42951202 45.43500519 282.0764771
vertex -58.18801117 45.65293121 281.9941101

endloop
endfacet
facet normal 0.6817038059 -0.7277434468 0.0752948001
outer loop
vertex -58.14968109 45.71988678 282.29422
vertex -58.18801117 45.65293121 281.9941101
vertex -57.90723419 45.93851471 282.2122498

endloop
endfacet
facet normal 0.683344841 -0.7265715599 0.07164832205
outer loop
vertex -57.90723419 45.93851471 282.2122498
vertex -58.18801117 45.65293121 281.9941101
vertex -57.94686127 45.87166595 281.9122925

endloop
endfacet
facet normal 0.6836153865 -0.7263329029 0.07148769498
outer loop
vertex -57.90720367 45.93852997 282.2122803
vertex -57.94684601 45.87169647 281.912323
vertex -57.66690826 46.15633392 282.1273499

endloop
endfacet
facet normal 0.6869191527 -0.7239118814 0.06398184597
outer loop
vertex -57.66690826 46.15633392 282.1273499
vertex -57.94684601 45.87169647 281.912323
vertex -57.70915985 46.08975983 281.8277283

endloop
endfacet
facet normal 0.687866509 -0.7230405807 0.06365469098
outer loop
vertex -57.66690826 46.15633392 282.1273499
vertex -57.70915985 46.08975983 281.8277283
vertex -57.42943573 46.37438202 282.0379333

endloop
endfacet
facet normal 0.6928655505 -0.7192033529 0.05180663988
outer loop
vertex -57.42943573 46.37438202 282.0379333
vertex -57.70915985 46.08975983 281.8277283
vertex -57.47568512 46.30828094 281.7388306

endloop
endfacet
facet normal 0.696813345 -0.7154814005 0.05037363991
outer loop
vertex -57.42943573 46.37438202 282.0379333
vertex -57.47568512 46.30828094 281.7388306
vertex -57.19536591 46.59578705 281.9447937

endloop
endfacet
facet normal 0.7017412782 -0.711417973 0.03799441457
outer loop
vertex -57.19536591 46.59578705 281.9447937
vertex -57.47568512 46.30828094 281.7388306
vertex -57.24559784 46.53031158 281.6465759

endloop
endfacet
facet normal 0.7259278297 -0.6871760488 0.0285979528
outer loop
vertex -57.19536591 46.59578705 281.9447937
vertex -57.24559784 46.53031158 281.6465759
vertex -56.98035431 46.81928253 281.8572998

endloop
endfacet
facet normal 0.7245889306 -0.6884373426 0.03201282024
outer loop
vertex -56.98035431 46.81928253 281.8572998
vertex -57.24559784 46.53031158 281.6465759
vertex -57.02831268 46.75521088 281.5649414

endloop
endfacet
facet normal 0.835642457 -0.5490179062 -0.01675877348
outer loop
vertex -56.98035431 46.81928253 281.8572998
vertex -57.02831268 46.75521088 281.5649414
vertex -56.83798981 47.0382309 281.7832642

endloop
endfacet
facet normal 0.8211308718 -0.5702590346 0.02342736907
outer loop
vertex -56.83798981 47.0382309 281.7832642
vertex -57.02831268 46.75521088 281.5649414
vertex -56.87052155 46.98065948 281.5221252

endloop
endfacet
facet normal 0.8477221727 -0.5303220749 0.01121106651
outer loop
vertex -56.83797455 47.0382309 281.7832642
vertex -56.8705368 46.98065948 281.5221252
vertex -56.72724152 47.21334076 281.693512

endloop
endfacet
facet normal 0.8459048271 -0.5330793262 0.01647390239
outer loop
vertex -56.72724152 47.21334076 281.693512
vertex -56.8705368 46.98065948 281.5221252
vertex -56.74825287 47.17328644 281.4762878

endloop
endfacet
facet normal 0.9387893677 0.311006695 -0.1481529623
outer loop
vertex -56.72724152 47.21334076 281.693512
vertex -56.74825287 47.17328644 281.4762878
vertex -56.86981964 47.55493927 281.5071411

endloop
endfacet
facet normal -0.9006815553 -0.3113941252 0.30299595
outer loop
vertex -56.86981964 47.55493927 281.5071411
vertex -56.74825287 47.17328644 281.4762878
vertex -56.86980438 47.55495453 281.5072021

endloop
endfacet
facet normal 0 -0.5171107054 0.8559185266
outer loop
vertex -61.17848969 43.85326385 282.786499
vertex -61.17850494 43.85326385 282.786499
vertex -60.85704803 43.61110687 282.6401978

endloop
endfacet
facet normal -0.5723893046 -0.8149001002 0.09114921838
outer loop
vertex -60.85704803 43.61110687 282.6401978
vertex -61.17850494 43.85326385 282.786499
vertex -61.07433319 43.72945404 282.3337708

endloop
endfacet
facet normal 0.2502273917 -0.8302387595 -0.4980862737
outer loop
vertex -60.85704803 43.61110687 282.6401978
vertex -61.07433319 43.72945404 282.3337708
vertex -60.65814972 43.67713165 282.6300659

endloop
endfacet
facet normal 0.1680803001 -0.9029387236 -0.3955385089
outer loop
vertex -60.65814972 43.67713165 282.6300659
vertex -61.07433319 43.72945404 282.3337708
vertex -60.87496185 43.81655121 282.2196655

endloop
endfacet
facet normal 0.3611594737 -0.8081066608 -0.4653251171
outer loop
vertex -60.65814972 43.67713165 282.6300659
vertex -60.87496185 43.81655121 282.2196655
vertex -60.41576385 43.79793549 282.6083984

endloop
endfacet
facet normal 0.3241927326 -0.8459159732 -0.4234681129
outer loop
vertex -60.41576385 43.79793549 282.6083984
vertex -60.87496185 43.81655121 282.2196655
vertex -60.62015533 43.95471954 282.1387329

endloop
endfacet
facet normal 0.4799568951 -0.7479183078 -0.4585407078
outer loop
vertex -60.41576385 43.79793549 282.6083984
vertex -60.62015533 43.95471954 282.1387329
vertex -60.16274261 43.98470306 282.5686035

endloop
endfacet
facet normal 0.4757298827 -0.7535812259 -0.4536478817
outer loop
vertex -60.16274261 43.98470306 282.5686035
vertex -60.62015533 43.95471954 282.1387329
vertex -60.36467743 44.14313507 282.0936584

endloop
endfacet
facet normal 0.4807237983 -0.7498695254 -0.4545330107
outer loop
vertex -60.16274261 43.98470306 282.5686035
vertex -60.36467743 44.14313507 282.0936584
vertex -59.91082001 44.18173981 282.5099792

endloop
endfacet
facet normal 0.4981047809 -0.7249214649 -0.4757945538
outer loop
vertex -59.91082001 44.18173981 282.5099792
vertex -60.36467743 44.14313507 282.0936584
vertex -60.1294632 44.3385849 282.0421143

endloop
endfacet
facet normal 0.4749632478 -0.7432673573 -0.4711301625
outer loop
vertex -59.91082001 44.18173981 282.5099792
vertex -60.1294632 44.3385849 282.0421143
vertex -59.66239166 44.38370514 282.441803

endloop
endfacet
facet normal 0.4925330579 -0.7159904242 -0.494741261
outer loop
vertex -59.66239166 44.38370514 282.441803
vertex -60.1294632 44.3385849 282.0421143
vertex -59.89878082 44.53885651 281.9819336

endloop
endfacet
facet normal 0.4733878076 -0.7318242788 -0.4902420044
outer loop
vertex -59.66239166 44.38370514 282.441803
vertex -59.89878082 44.53885651 281.9819336
vertex -59.41190338 44.59165192 282.3732605

endloop
endfacet
facet normal 0.4811367393 -0.7189468145 -0.5016203523
outer loop
vertex -59.41190338 44.59165192 282.3732605
vertex -59.89878082 44.53885651 281.9819336
vertex -59.65656281 44.74600983 281.9173584

endloop
endfacet
facet normal 0.4735512435 -0.7253023982 -0.4996856153
outer loop
vertex -59.41191864 44.59165192 282.3732605
vertex -59.65656281 44.74600983 281.9173584
vertex -59.15880585 44.80301666 282.3063354

endloop
endfacet
facet normal 0.4756831527 -0.7216416597 -0.5029502511
outer loop
vertex -59.15880585 44.80301666 282.3063354
vertex -59.65656281 44.74600983 281.9173584
vertex -59.4058609 44.95709991 281.851593

endloop
endfacet
facet normal 0.4706243873 -0.7258633375 -0.5016323924
outer loop
vertex -59.15880585 44.80301666 282.3063354
vertex -59.4058609 44.95709991 281.851593
vertex -58.91091156 45.01239777 282.2359314

endloop
endfacet
facet normal 0.4762470126 -0.7161047459 -0.5102771521
outer loop
vertex -58.91091156 45.01239777 282.2359314
vertex -59.4058609 44.95709991 281.851593
vertex -59.1639328 45.16590118 281.7843628

endloop
endfacet
facet normal 0.4654972553 -0.7251848578 -0.5073649883
outer loop
vertex -58.9108963 45.01241302 282.2359619
vertex -59.16391754 45.1659317 281.7843933
vertex -58.66944122 45.22154999 282.1585693

endloop
endfacet
facet normal 0.4757997692 -0.7066198587 -0.5237394571
outer loop
vertex -58.66944122 45.22154999 282.1585693
vertex -59.16391754 45.1659317 281.7843933
vertex -58.93358612 45.37386322 281.7131042

endloop
endfacet
facet normal 0.4617512524 -0.7188866138 -0.5196033716
outer loop
vertex -58.66944122 45.22154999 282.1585693
vertex -58.93358612 45.37386322 281.7131042
vertex -58.42949677 45.43500519 282.0764771

endloop
endfacet
facet normal 0.4706434309 -0.7017553449 -0.5348216891
outer loop
vertex -58.42949677 45.43500519 282.0764771
vertex -58.93358612 45.37386322 281.7131042
vertex -58.70386505 45.58609772 281.6367798

endloop
endfacet
facet normal 0.4603669941 -0.710976243 -0.5315778255
outer loop
vertex -58.42949677 45.43500519 282.0764771
vertex -58.70386505 45.58609772 281.6367798
vertex -58.18801117 45.65293121 281.9941406

endloop
endfacet
facet normal 0.46442312 -0.7027198076 -0.5389769673
outer loop
vertex -58.18801117 45.65293121 281.9941406
vertex -58.70386505 45.58609772 281.6367798
vertex -58.46738434 45.8033371 281.557312

endloop
endfacet
facet normal 0.4592947364 -0.707362473 -0.5372956395
outer loop
vertex -58.18801117 45.65293121 281.9941406
vertex -58.46738434 45.8033371 281.557312
vertex -57.94686127 45.87168121 281.9122925

endloop
endfacet
facet normal 0.4613265693 -0.7031364441 -0.5410886407
outer loop
vertex -57.94686127 45.87168121 281.9122925
vertex -58.46738434 45.8033371 281.557312
vertex -58.22861481 46.0218277 281.4769592

endloop
endfacet
facet normal 0.4567968249 -0.7072305679 -0.5395937562
outer loop
vertex -57.94684601 45.87171173 281.912323
vertex -58.22859955 46.02187347 281.4769897
vertex -57.70915985 46.08977509 281.8277283

endloop
endfacet
facet normal 0.4606876969 -0.6990101933 -0.5469474792
outer loop
vertex -57.70915985 46.08977509 281.8277283
vertex -58.22859955 46.02187347 281.4769897
vertex -57.9956131 46.23937225 281.3952637

endloop
endfacet
facet normal 0.4532639682 -0.7058277726 -0.5443885326
outer loop
vertex -57.70915985 46.08977509 281.8277283
vertex -57.9956131 46.23937225 281.3952637
vertex -57.47566986 46.30828094 281.7388306

endloop
endfacet
facet normal 0.4595115185 -0.6921404004 -0.5565886497
outer loop
vertex -57.47566986 46.30828094 281.7388306
vertex -57.9956131 46.23937225 281.3952637
vertex -57.76978302 46.45688629 281.3112183

endloop
endfacet
facet normal 0.452334702 -0.6989081502 -0.5540043712
outer loop
vertex -57.47566986 46.30828094 281.7388306
vertex -57.76978302 46.45688629 281.3112183
vertex -57.24559784 46.53031158 281.6465759

endloop
endfacet
facet normal 0.4583816826 -0.6847659945 -0.5665525794
outer loop
vertex -57.24559784 46.53031158 281.6465759
vertex -57.76978302 46.45688629 281.3112183
vertex -57.54727936 46.67743683 281.2246704

endloop
endfacet
facet normal 0.4756563902 -0.667499423 -0.5728835464
outer loop
vertex -57.24559784 46.53031158 281.6465759
vertex -57.54727936 46.67743683 281.2246704
vertex -57.02831268 46.75521088 281.5649414

endloop
endfacet
facet normal 0.4741420448 -0.6712829471 -0.5697091818
outer loop
vertex -57.02831268 46.75521088 281.5649414
vertex -57.54727936 46.67743683 281.2246704
vertex -57.32239532 46.89916229 281.1505737

endloop
endfacet
facet normal 0.5934410691 -0.5303679705 -0.6054235101
outer loop
vertex -57.02831268 46.75521088 281.5649414
vertex -57.32239532 46.89916229 281.1505737
vertex -56.87050629 46.98065948 281.5221252

endloop
endfacet
facet normal 0.5747070312 -0.5869950652 -0.5702180266
outer loop
vertex -56.87050629 46.98065948 281.5221252
vertex -57.32239532 46.89916229 281.1505737
vertex -57.1140976 47.11048126 281.1429749

endloop
endfacet
facet normal 0.6188155413 -0.5306568146 -0.5791983008
outer loop
vertex -56.87052155 46.98067474 281.5221252
vertex -57.1140976 47.110466 281.1429749
vertex -56.74825287 47.17328644 281.4762878

endloop
endfacet
facet normal 0.6048268676 -0.5696463585 -0.5564957857
outer loop
vertex -56.74825287 47.17328644 281.4762878
vertex -57.1140976 47.110466 281.1429749
vertex -56.92618561 47.28774261 281.165741

endloop
endfacet
facet normal 0.8699864745 0.3082079589 -0.3848783672
outer loop
vertex -56.74825287 47.17328644 281.4762878
vertex -56.92618561 47.28774261 281.165741
vertex -56.86978912 47.55495453 281.5072021

endloop
endfacet
facet normal 0.8352419138 0.3574972749 -0.417811811
outer loop
vertex -56.86978912 47.55495453 281.5072021
vertex -56.92618561 47.28774261 281.165741
vertex -56.86980438 47.55495453 281.5071716

endloop
endfacet
endsolid
