solid 
facet normal -nan(ind) -nan(ind) -nan(ind)
outer loop
vertex -54.39989471 73.42977142 238.6296692
vertex -54.39989471 73.42977142 238.6296692
vertex -54.07407379 73.73516083 238.12323

endloop
endfacet
facet normal 0.007760152686 -0.8585267067 -0.5127102137
outer loop
vertex -54.07407379 73.73516083 238.12323
vertex -54.39989471 73.42977142 238.6296692
vertex -54.69409943 73.70586395 238.1629028

endloop
endfacet
facet normal -0.06875603646 0.112826623 -0.9912329912
outer loop
vertex -54.07407379 73.73516083 238.12323
vertex -54.69409943 73.70586395 238.1629028
vertex -54.01384735 74.10070038 238.1606598

endloop
endfacet
facet normal -0.05446304753 0.08818244189 -0.9946143031
outer loop
vertex -54.01384735 74.10070038 238.1606598
vertex -54.69409943 73.70586395 238.1629028
vertex -54.7667923 74.05095673 238.1974792

endloop
endfacet
facet normal -0.06106202304 0.2005256712 -0.97778368
outer loop
vertex -54.01384735 74.10070038 238.1606598
vertex -54.7667923 74.05095673 238.1974792
vertex -54.00385284 74.4613266 238.2339935

endloop
endfacet
facet normal -0.05141606927 0.1829477549 -0.9817771912
outer loop
vertex -54.00385284 74.4613266 238.2339935
vertex -54.7667923 74.05095673 238.1974792
vertex -54.80673981 74.40526581 238.2655945

endloop
endfacet
facet normal -0.05115065724 0.1786977351 -0.9825735092
outer loop
vertex -54.00385284 74.4613266 238.2339935
vertex -54.80673981 74.40526581 238.2655945
vertex -54.05625153 74.76137543 238.2912903

endloop
endfacet
facet normal -0.112968415 0.3062807322 -0.9452143908
outer loop
vertex -54.05625153 74.76137543 238.2912903
vertex -54.80673981 74.40526581 238.2655945
vertex -54.84989166 74.71916962 238.372467

endloop
endfacet
facet normal -0.1016260237 -0.002410572954 -0.9948197603
outer loop
vertex -54.05625153 74.76137543 238.2912903
vertex -54.84989166 74.71916962 238.372467
vertex -54.13852692 75.06880951 238.2989502

endloop
endfacet
facet normal -0.2240616381 0.2582762241 -0.9397285581
outer loop
vertex -54.13852692 75.06880951 238.2989502
vertex -54.84989166 74.71916962 238.372467
vertex -54.9101944 75.04454803 238.4762726

endloop
endfacet
facet normal -0.2227178365 -0.03642650694 -0.9742022157
outer loop
vertex -54.13852692 75.06880951 238.2989502
vertex -54.9101944 75.04454803 238.4762726
vertex -54.20496368 75.42726898 238.3007355

endloop
endfacet
facet normal -0.2998431325 0.1183410883 -0.9466200471
outer loop
vertex -54.20496368 75.42726898 238.3007355
vertex -54.9101944 75.04454803 238.4762726
vertex -54.91857147 75.42061615 238.5259399

endloop
endfacet
facet normal -0.2996759415 -0.0681932047 -0.95160079
outer loop
vertex -54.20496368 75.42726898 238.3007355
vertex -54.91857147 75.42061615 238.5259399
vertex -54.24326324 75.75569916 238.2892609

endloop
endfacet
facet normal -0.2929728329 -0.08238323778 -0.9525648952
outer loop
vertex -54.24326324 75.75569916 238.2892609
vertex -54.91857147 75.42061615 238.5259399
vertex -54.84690094 75.78307343 238.4725494

endloop
endfacet
facet normal -0.2931140065 -0.1923551112 -0.936527431
outer loop
vertex -54.24326324 75.75569916 238.2892609
vertex -54.84690094 75.78307343 238.4725647
vertex -54.37349701 76.11476898 238.2562714

endloop
endfacet
facet normal -0.448892653 0.05926035717 -0.8916184902
outer loop
vertex -54.37349701 76.11476898 238.2562714
vertex -54.84690094 75.78307343 238.4725647
vertex -54.89772797 76.17565155 238.5242462

endloop
endfacet
facet normal -0.4642080069 -0.2134952545 -0.859610796
outer loop
vertex -54.37349701 76.11476898 238.2562714
vertex -54.89772797 76.17565155 238.5242462
vertex -54.47182465 76.46987152 238.2211761

endloop
endfacet
facet normal -0.6012035608 0.04867894948 -0.7976118326
outer loop
vertex -54.47182465 76.46987152 238.2211761
vertex -54.89772797 76.17565155 238.5242462
vertex -54.93869781 76.57247162 238.5793457

endloop
endfacet
facet normal -0.619602859 -0.1032863483 -0.778090179
outer loop
vertex -54.47180939 76.46990204 238.2211761
vertex -54.93869781 76.57250214 238.5793457
vertex -54.46526337 76.82732391 238.1685181

endloop
endfacet
facet normal -0.6573611498 0.006431777496 -0.7535483241
outer loop
vertex -54.46526337 76.82732391 238.1685181
vertex -54.93869781 76.57250214 238.5793457
vertex -54.90274811 76.97164154 238.5513916

endloop
endfacet
facet normal -0.6646684408 -0.03488666564 -0.7463235259
outer loop
vertex -54.46526337 76.82732391 238.1685181
vertex -54.90274811 76.97164154 238.5513916
vertex -54.39539337 77.1873703 238.0894623

endloop
endfacet
facet normal -0.6659978032 -0.02970152348 -0.745362103
outer loop
vertex -54.39539337 77.1873703 238.0894623
vertex -54.90274811 76.97164154 238.5513916
vertex -54.82389069 77.37075043 238.4650269

endloop
endfacet
facet normal -0.6661031842 -0.03017968684 -0.7452487946
outer loop
vertex -54.39539337 77.1873703 238.0894623
vertex -54.82389069 77.37075043 238.4650269
vertex -54.29915619 77.54186249 237.98909

endloop
endfacet
facet normal -0.6631814837 -0.04440078139 -0.7471405268
outer loop
vertex -54.29915619 77.54186249 237.98909
vertex -54.82389069 77.37075043 238.4650269
vertex -54.72121429 77.76415253 238.3505096

endloop
endfacet
facet normal -0.6569301486 -0.02197862417 -0.7536310554
outer loop
vertex -54.29915619 77.54186249 237.98909
vertex -54.72121429 77.76415253 238.3505096
vertex -54.17008209 77.90413666 237.8660126

endloop
endfacet
facet normal -0.6502998471 -0.06062468514 -0.7572547197
outer loop
vertex -54.17008209 77.90413666 237.8660126
vertex -54.72121429 77.76415253 238.3505096
vertex -54.5908432 78.15978241 238.2068787

endloop
endfacet
facet normal -0.6398810744 -0.02929683775 -0.7679153681
outer loop
vertex -54.17006683 77.90413666 237.8660431
vertex -54.5908432 78.15981293 238.2069092
vertex -54.01943207 78.26927948 237.726593

endloop
endfacet
facet normal -0.6349051595 -0.06409635395 -0.7699267268
outer loop
vertex -54.01943207 78.26927948 237.726593
vertex -54.5908432 78.15981293 238.2069092
vertex -54.43856049 78.55245209 238.048645

endloop
endfacet
facet normal -0.6226635575 -0.0324553363 -0.7818163633
outer loop
vertex -54.01943207 78.26927948 237.726593
vertex -54.43856049 78.55245209 238.048645
vertex -53.84008026 78.65035248 237.5679321

endloop
endfacet
facet normal -0.619916141 -0.05408861488 -0.7828016281
outer loop
vertex -53.84008026 78.65035248 237.5679321
vertex -54.43856049 78.55245209 238.048645
vertex -54.25450897 78.95522308 237.875061

endloop
endfacet
facet normal -0.5736123323 0.04424459487 -0.817931056
outer loop
vertex -53.84008026 78.65035248 237.5679321
vertex -54.25450897 78.95522308 237.875061
vertex -53.54161835 79.00136566 237.3776093

endloop
endfacet
facet normal -0.5711655021 -0.02175479382 -0.8205465674
outer loop
vertex -53.54161835 79.00136566 237.3776093
vertex -54.25450897 78.95522308 237.875061
vertex -53.93424225 79.36672211 237.6412201

endloop
endfacet
facet normal -0.5307173729 0.04049621522 -0.846580863
outer loop
vertex -53.54161835 79.00136566 237.3776093
vertex -53.93424225 79.36672211 237.6412201
vertex -53.21797943 79.31539154 237.189743

endloop
endfacet
facet normal -0.5345374346 -0.03017997183 -0.8446058035
outer loop
vertex -53.21797943 79.31539154 237.189743
vertex -53.93424225 79.36672211 237.6412201
vertex -53.5916214 79.73192596 237.4113312

endloop
endfacet
facet normal -0.4423350096 0.0784901455 -0.8934087157
outer loop
vertex -53.21797943 79.31539154 237.189743
vertex -53.5916214 79.73192596 237.4113312
vertex -52.95166779 79.61623383 237.0843201

endloop
endfacet
facet normal -0.4504924119 0.03015122563 -0.8922709823
outer loop
vertex -52.95166779 79.61623383 237.0843201
vertex -53.5916214 79.73192596 237.4113312
vertex -53.30103302 80.00691986 237.2739105

endloop
endfacet
facet normal -0.2766922116 0.2078471333 -0.9382116199
outer loop
vertex -52.95166779 79.61623383 237.0843201
vertex -53.30103302 80.00695038 237.2739105
vertex -52.71724701 79.92003632 237.082489

endloop
endfacet
facet normal -0.2835771143 0.1727310866 -0.9432644844
outer loop
vertex -52.71724701 79.92003632 237.082489
vertex -53.30103302 80.00695038 237.2739105
vertex -53.00304413 80.21660614 237.2227173

endloop
endfacet
facet normal 0.2788755298 0.6167858839 -0.7360731363
outer loop
vertex -52.71724701 79.92003632 237.082489
vertex -53.00304413 80.21660614 237.2227173
vertex -52.51880646 80.31456757 237.488266

endloop
endfacet
facet normal -nan(ind) -nan(ind) -nan(ind)
outer loop
vertex -52.51880646 80.31456757 237.488266
vertex -53.00304413 80.21660614 237.2227173
vertex -52.51880646 80.31456757 237.488266

endloop
endfacet
facet normal 0.878485322 0.2136649489 -0.4273298979
outer loop
vertex -54.39989471 73.42977142 238.6296692
vertex -54.39989471 73.42974091 238.6296539
vertex -54.69409943 73.70586395 238.1629028

endloop
endfacet
facet normal -0.1765677333 -0.8918997645 -0.4163396955
outer loop
vertex -54.69409943 73.70586395 238.1629028
vertex -54.39989471 73.42974091 238.6296539
vertex -54.91880035 73.65428925 238.3686829

endloop
endfacet
facet normal -0.6656656861 -0.06574124098 -0.7433485985
outer loop
vertex -54.69409943 73.70586395 238.1629028
vertex -54.91880035 73.65428925 238.3686829
vertex -54.7667923 74.05095673 238.1974792

endloop
endfacet
facet normal -0.6810654998 -0.05417174846 -0.7302159071
outer loop
vertex -54.7667923 74.05095673 238.1974792
vertex -54.91880035 73.65428925 238.3686829
vertex -55.01461029 73.97173309 238.434494

endloop
endfacet
facet normal -0.6996403337 0.05802385882 -0.7121353745
outer loop
vertex -54.7667923 74.05095673 238.1974792
vertex -55.01461029 73.97173309 238.434494
vertex -54.80673981 74.40526581 238.2655945

endloop
endfacet
facet normal -0.6922482848 0.051485423 -0.7198206186
outer loop
vertex -54.80673981 74.40526581 238.2655945
vertex -55.01461029 73.97173309 238.434494
vertex -55.07250214 74.31612396 238.514801

endloop
endfacet
facet normal -0.7019548416 0.1411767751 -0.698089242
outer loop
vertex -54.80673981 74.40526581 238.2655945
vertex -55.07250214 74.31612396 238.514801
vertex -54.84989166 74.71916962 238.372467

endloop
endfacet
facet normal -0.7417288423 0.181671679 -0.6456266642
outer loop
vertex -54.84989166 74.71916962 238.372467
vertex -55.07250214 74.31612396 238.514801
vertex -55.09894562 74.65206146 238.6397095

endloop
endfacet
facet normal -0.738936007 0.07661279291 -0.6694056392
outer loop
vertex -54.84989166 74.71916962 238.372467
vertex -55.09894562 74.65206146 238.6397095
vertex -54.9101944 75.04454803 238.4762726

endloop
endfacet
facet normal -0.8128353953 0.1573622823 -0.5608347654
outer loop
vertex -54.9101944 75.04454803 238.4762726
vertex -55.09894562 74.65206146 238.6397095
vertex -55.12418365 75.0054245 238.7754364

endloop
endfacet
facet normal -0.8155491352 0.0578774251 -0.5757861733
outer loop
vertex -54.9101944 75.04454803 238.4762726
vertex -55.12418365 75.0054245 238.7754364
vertex -54.91857147 75.42061615 238.5259399

endloop
endfacet
facet normal -0.8464016318 0.1054807976 -0.5219943523
outer loop
vertex -54.91857147 75.42061615 238.5259399
vertex -55.12418365 75.0054245 238.7754364
vertex -55.11551666 75.40148163 238.8414154

endloop
endfacet
facet normal -0.8472517133 0.09042818099 -0.5234379768
outer loop
vertex -54.91857147 75.42061615 238.5259399
vertex -55.11551666 75.40148163 238.8414154
vertex -54.84690094 75.78307343 238.4725494

endloop
endfacet
facet normal -0.8213485479 0.02740938589 -0.5697677732
outer loop
vertex -54.84690094 75.78307343 238.4725494
vertex -55.11551666 75.40148163 238.8414154
vertex -55.05944061 75.79311371 238.7794189

endloop
endfacet
facet normal -0.8221371174 -0.03161267191 -0.5684110522
outer loop
vertex -54.84690094 75.78307343 238.4725647
vertex -55.05944061 75.79311371 238.7794189
vertex -54.89772797 76.17565155 238.5242462

endloop
endfacet
facet normal -0.9009066224 0.0989632681 -0.4225796759
outer loop
vertex -54.89772797 76.17565155 238.5242462
vertex -55.05944061 75.79311371 238.7794189
vertex -55.04764557 76.20665741 238.85112

endloop
endfacet
facet normal -0.909660697 -0.03646827117 -0.4137481153
outer loop
vertex -54.89772797 76.17565155 238.5242462
vertex -55.04764557 76.20665741 238.85112
vertex -54.93869781 76.57247162 238.5793457

endloop
endfacet
facet normal -0.9635803103 0.1039156765 -0.2464033067
outer loop
vertex -54.93869781 76.57247162 238.5793457
vertex -55.04764557 76.20665741 238.85112
vertex -55.02124786 76.62496185 238.9243011

endloop
endfacet
facet normal -0.9676826 0.07019425184 -0.2422047406
outer loop
vertex -54.93869781 76.57250214 238.5793457
vertex -55.0212326 76.62496185 238.9243011
vertex -54.90274811 76.97164154 238.5513916

endloop
endfacet
facet normal -0.9735156894 0.1317169517 -0.1868628263
outer loop
vertex -54.90274811 76.97164154 238.5513916
vertex -55.0212326 76.62496185 238.9243011
vertex -54.95940399 77.0455246 238.8986359

endloop
endfacet
facet normal -0.9701205492 0.1504991353 -0.1903051436
outer loop
vertex -54.90274811 76.97164154 238.5513916
vertex -54.95940399 77.0455246 238.8986359
vertex -54.82389069 77.37075043 238.4650269

endloop
endfacet
facet normal -0.9700934291 0.1533010453 -0.1881951541
outer loop
vertex -54.82389069 77.37075043 238.4650269
vertex -54.95940399 77.0455246 238.8986359
vertex -54.8755722 77.46465302 238.8079224

endloop
endfacet
facet normal -0.9610110521 0.1932512671 -0.1977666765
outer loop
vertex -54.82389069 77.37075043 238.4650269
vertex -54.8755722 77.46465302 238.8079224
vertex -54.72121429 77.76415253 238.3505096

endloop
endfacet
facet normal -0.9615335464 0.183810994 -0.2041242421
outer loop
vertex -54.72121429 77.76415253 238.3505096
vertex -54.8755722 77.46465302 238.8079224
vertex -54.77101898 77.87795258 238.6875916

endloop
endfacet
facet normal -0.9476081729 0.2328890413 -0.2186356336
outer loop
vertex -54.72121429 77.76415253 238.3505096
vertex -54.77101898 77.87795258 238.6875916
vertex -54.5908432 78.15978241 238.2068787

endloop
endfacet
facet normal -0.9497257471 0.2079370916 -0.2340580225
outer loop
vertex -54.5908432 78.15978241 238.2068787
vertex -54.77101898 77.87795258 238.6875916
vertex -54.64365387 78.29070282 238.5374756

endloop
endfacet
facet normal -0.9321821928 0.2600336969 -0.2518310249
outer loop
vertex -54.5908432 78.15981293 238.2069092
vertex -54.64363861 78.29070282 238.5374908
vertex -54.43856049 78.55245209 238.048645

endloop
endfacet
facet normal -0.9346140623 0.2370244414 -0.2651713789
outer loop
vertex -54.43856049 78.55245209 238.048645
vertex -54.64363861 78.29070282 238.5374908
vertex -54.49390411 78.6974411 238.3733063

endloop
endfacet
facet normal -0.9120818973 0.2933250964 -0.2864734828
outer loop
vertex -54.43856049 78.55245209 238.048645
vertex -54.49390411 78.6974411 238.3733063
vertex -54.25450897 78.95522308 237.875061

endloop
endfacet
facet normal -0.9139382839 0.2789301574 -0.2948130965
outer loop
vertex -54.25450897 78.95522308 237.875061
vertex -54.49390411 78.6974411 238.3733063
vertex -54.31034088 79.110466 238.1950226

endloop
endfacet
facet normal -0.8245879412 0.4389720559 -0.356872946
outer loop
vertex -54.25450897 78.95522308 237.875061
vertex -54.31034088 79.110466 238.1950226
vertex -53.93424225 79.36672211 237.6412201

endloop
endfacet
facet normal -0.8340314627 0.3977203667 -0.3823741972
outer loop
vertex -53.93424225 79.36672211 237.6412201
vertex -54.31034088 79.110466 238.1950226
vertex -53.98929596 79.54665375 237.9484558

endloop
endfacet
facet normal -0.7791883945 0.4698894024 -0.4148124158
outer loop
vertex -53.93424225 79.36672211 237.6412201
vertex -53.98929596 79.54665375 237.9484558
vertex -53.5916214 79.73192596 237.4113312

endloop
endfacet
facet normal -0.791682303 0.4239243269 -0.4399175048
outer loop
vertex -53.5916214 79.73192596 237.4113312
vertex -53.98929596 79.54665375 237.9484558
vertex -53.64740753 79.9335556 237.7060242

endloop
endfacet
facet normal -0.711343348 0.5100115538 -0.4836102128
outer loop
vertex -53.5916214 79.73192596 237.4113312
vertex -53.64740753 79.9335556 237.7060242
vertex -53.30103302 80.00691986 237.2739105

endloop
endfacet
facet normal -0.720793128 0.4847254455 -0.495478034
outer loop
vertex -53.30103302 80.00691986 237.2739105
vertex -53.64740753 79.9335556 237.7060242
vertex -53.35910797 80.19658661 237.5439453

endloop
endfacet
facet normal -0.5393254161 0.6301608086 -0.5585923791
outer loop
vertex -53.30103302 80.00695038 237.2739105
vertex -53.35912323 80.19658661 237.5439301
vertex -53.00304413 80.21660614 237.2227173

endloop
endfacet
facet normal -0.5499618649 0.6088408828 -0.5717120767
outer loop
vertex -53.00304413 80.21660614 237.2227173
vertex -53.35912323 80.19658661 237.5439301
vertex -53.06096649 80.36284637 237.4341736

endloop
endfacet
facet normal 0.1279627234 0.831761837 -0.5401831269
outer loop
vertex -53.00304413 80.21660614 237.2227173
vertex -53.06096649 80.36284637 237.4341736
vertex -52.51880646 80.31456757 237.488266

endloop
endfacet
facet normal -0.0932212621 -0.9945566058 0.04655170441
outer loop
vertex -52.51880646 80.31456757 237.488266
vertex -53.06096649 80.36284637 237.4341736
vertex -52.51882172 80.31456757 237.4882355

endloop
endfacet
facet normal -0.5238285065 -0.272562772 0.8070397973
outer loop
vertex -54.39989471 73.42974091 238.6296539
vertex -54.39987946 73.42980194 238.6296844
vertex -54.91880035 73.65428925 238.3686829

endloop
endfacet
facet normal -0.2553474307 -0.9234115481 -0.2865463495
outer loop
vertex -54.91880035 73.65428925 238.3686829
vertex -54.39987946 73.42980194 238.6296844
vertex -54.99019623 73.60338593 238.596344

endloop
endfacet
facet normal -0.9190712571 -0.2079959214 -0.3347325027
outer loop
vertex -54.91880035 73.65428925 238.3686829
vertex -54.99019623 73.60338593 238.596344
vertex -55.01461029 73.97173309 238.434494

endloop
endfacet
facet normal -0.9304897785 -0.1972920448 -0.3086495697
outer loop
vertex -55.01461029 73.97173309 238.434494
vertex -54.99019623 73.60338593 238.596344
vertex -55.08158112 73.89879608 238.6830139

endloop
endfacet
facet normal -0.9540074468 -0.09398730099 -0.2846686542
outer loop
vertex -55.01461029 73.97173309 238.434494
vertex -55.08158112 73.89879608 238.6830139
vertex -55.07250214 74.31612396 238.514801

endloop
endfacet
facet normal -0.9504067302 -0.09826172888 -0.2950789332
outer loop
vertex -55.07250214 74.31612396 238.514801
vertex -55.08158112 73.89879608 238.6830139
vertex -55.14565277 74.23409271 238.7777252

endloop
endfacet
facet normal -0.9648907185 0.02138330415 -0.2617799044
outer loop
vertex -55.07250214 74.31612396 238.514801
vertex -55.14565277 74.23409271 238.7777252
vertex -55.09894562 74.65206146 238.6397095

endloop
endfacet
facet normal -0.9790503979 0.04374059662 -0.1988646388
outer loop
vertex -55.09894562 74.65206146 238.6397095
vertex -55.14565277 74.23409271 238.7777252
vertex -55.1563797 74.5903244 238.9088898

endloop
endfacet
facet normal -0.9783833623 0.00946991425 -0.2065823823
outer loop
vertex -55.09894562 74.65206146 238.6397095
vertex -55.1563797 74.5903244 238.9088898
vertex -55.12418365 75.0054245 238.7754364

endloop
endfacet
facet normal -0.9953166246 0.05074699223 -0.08227726072
outer loop
vertex -55.12418365 75.0054245 238.7754364
vertex -55.1563797 74.5903244 238.9088898
vertex -55.14894867 74.96941376 239.0528107

endloop
endfacet
facet normal -0.9957997203 0.03582767025 -0.08425731957
outer loop
vertex -55.12418365 75.0054245 238.7754364
vertex -55.14894867 74.96941376 239.0528107
vertex -55.11551666 75.40148163 238.8414154

endloop
endfacet
facet normal -0.9975911975 0.06318207085 -0.02863137051
outer loop
vertex -55.11551666 75.40148163 238.8414154
vertex -55.14894867 74.96941376 239.0528107
vertex -55.12523651 75.382164 239.1374512

endloop
endfacet
facet normal -0.9901458025 0.1380542517 -0.02350116894
outer loop
vertex -55.11551666 75.40148163 238.8414154
vertex -55.12523651 75.382164 239.1374512
vertex -55.05944061 75.79311371 238.7794189

endloop
endfacet
facet normal -0.9927441478 0.09682333469 -0.07130356878
outer loop
vertex -55.05944061 75.79311371 238.7794189
vertex -55.12523651 75.382164 239.1374512
vertex -55.08345795 75.79531097 239.1167908

endloop
endfacet
facet normal -0.9966270924 0.04077363014 -0.07121816278
outer loop
vertex -55.05944061 75.79311371 238.7794189
vertex -55.08345795 75.79531097 239.1167755
vertex -55.04764557 76.20665741 238.85112

endloop
endfacet
facet normal -0.9832618237 0.1512294859 0.1016156822
outer loop
vertex -55.04764557 76.20665741 238.85112
vertex -55.08345795 75.79531097 239.1167755
vertex -55.00978851 76.222435 239.1939545

endloop
endfacet
facet normal -0.9932208657 0.04384428635 0.107657373
outer loop
vertex -55.04764557 76.20665741 238.85112
vertex -55.00978851 76.222435 239.1939545
vertex -55.02124786 76.62496185 238.9243011

endloop
endfacet
facet normal -0.9461498857 0.1611512005 0.2807677388
outer loop
vertex -55.02124786 76.62496185 238.9243011
vertex -55.00978851 76.222435 239.1939545
vertex -54.91883087 76.6523056 239.2537384

endloop
endfacet
facet normal -0.9467971921 0.1563588083 0.2812953889
outer loop
vertex -55.0212326 76.62496185 238.9243011
vertex -54.91883087 76.65233612 239.2537537
vertex -54.95940399 77.0455246 238.8986359

endloop
endfacet
facet normal -0.9190797806 0.2076530606 0.3349218667
outer loop
vertex -54.95940399 77.0455246 238.8986359
vertex -54.91883087 76.65233612 239.2537537
vertex -54.83367157 77.08403778 239.2197876

endloop
endfacet
facet normal -0.9108413458 0.2528000176 0.3262824118
outer loop
vertex -54.95940399 77.0455246 238.8986359
vertex -54.83367157 77.08403778 239.2197876
vertex -54.8755722 77.46465302 238.8079224

endloop
endfacet
facet normal -0.9094328284 0.2551880479 0.3283459246
outer loop
vertex -54.8755722 77.46465302 238.8079224
vertex -54.83367157 77.08403778 239.2197876
vertex -54.74692535 77.51357269 239.1262207

endloop
endfacet
facet normal -0.8951027393 0.3175557554 0.3129687309
outer loop
vertex -54.8755722 77.46465302 238.8079224
vertex -54.74692535 77.51357269 239.1262207
vertex -54.77101898 77.87795258 238.6875916

endloop
endfacet
facet normal -0.8999333382 0.3098205626 0.3068082035
outer loop
vertex -54.77101898 77.87795258 238.6875916
vertex -54.74692535 77.51357269 239.1262207
vertex -54.64266205 77.93727875 239.0041809

endloop
endfacet
facet normal -0.8810725808 0.3761611879 0.2867297232
outer loop
vertex -54.77101898 77.87795258 238.6875916
vertex -54.64266205 77.93727875 239.0041809
vertex -54.64365387 78.29070282 238.5374756

endloop
endfacet
facet normal -0.8941489458 0.3560487628 0.2715269029
outer loop
vertex -54.64365387 78.29070282 238.5374756
vertex -54.64266205 77.93727875 239.0041809
vertex -54.52025604 78.35887909 238.8544312

endloop
endfacet
facet normal -0.8720624447 0.4214534163 0.2487652153
outer loop
vertex -54.64363861 78.29070282 238.5374908
vertex -54.52025604 78.35890961 238.8544617
vertex -54.49390411 78.6974411 238.3733063

endloop
endfacet
facet normal -0.8842076659 0.4034290016 0.2354184091
outer loop
vertex -54.49390411 78.6974411 238.3733063
vertex -54.52025604 78.35890961 238.8544617
vertex -54.37496185 78.77294159 238.6906586

endloop
endfacet
facet normal -0.8569338918 0.4711089134 0.209094733
outer loop
vertex -54.49390411 78.6974411 238.3733063
vertex -54.37496185 78.77294159 238.6906586
vertex -54.31034088 79.110466 238.1950226

endloop
endfacet
facet normal -0.8652427197 0.4596446753 0.2002042979
outer loop
vertex -54.31034088 79.110466 238.1950226
vertex -54.37496185 78.77294159 238.6906586
vertex -54.19435883 79.19045258 238.5126343

endloop
endfacet
facet normal -0.7657492757 0.6317438483 0.1205312908
outer loop
vertex -54.31034088 79.110466 238.1950226
vertex -54.19435883 79.19045258 238.5126343
vertex -53.98929596 79.54665375 237.9484558

endloop
endfacet
facet normal -0.7879649997 0.6079609394 0.09744089097
outer loop
vertex -53.98929596 79.54665375 237.9484558
vertex -54.19435883 79.19045258 238.5126343
vertex -53.88254547 79.63375092 238.26828

endloop
endfacet
facet normal -0.7297586799 0.6812353134 0.05805823952
outer loop
vertex -53.98929596 79.54665375 237.9484558
vertex -53.88254547 79.63375092 238.26828
vertex -53.64740753 79.9335556 237.7060242

endloop
endfacet
facet normal -0.7540138364 0.6559553146 0.03443486989
outer loop
vertex -53.64740753 79.9335556 237.7060242
vertex -53.88254547 79.63375092 238.26828
vertex -53.55077362 80.02776337 238.02742

endloop
endfacet
facet normal -0.677564919 0.735367775 -0.01182842907
outer loop
vertex -53.64740753 79.9335556 237.7060242
vertex -53.55077362 80.02776337 238.02742
vertex -53.35910797 80.19658661 237.5439453

endloop
endfacet
facet normal -0.6950682998 0.7185210586 -0.02465002798
outer loop
vertex -53.35910797 80.19658661 237.5439453
vertex -53.55077362 80.02776337 238.02742
vertex -53.27851105 80.28472137 237.8403473

endloop
endfacet
facet normal -0.5151830912 0.8496757746 -0.1124163568
outer loop
vertex -53.35912323 80.19658661 237.5439301
vertex -53.27849579 80.28469086 237.8403473
vertex -53.06096649 80.36284637 237.4341736

endloop
endfacet
facet normal -0.5380679965 0.8331484795 -0.1278527081
outer loop
vertex -53.06096649 80.36284637 237.4341736
vertex -53.27849579 80.28469086 237.8403473
vertex -53.01052094 80.43074799 237.6643524

endloop
endfacet
facet normal 0.114542231 0.9457323551 -0.3040892184
outer loop
vertex -53.06096649 80.36284637 237.4341736
vertex -53.01052094 80.43074799 237.6643524
vertex -52.51882172 80.31456757 237.4882355

endloop
endfacet
facet normal 0.2060074806 0.9761363268 -0.06869321316
outer loop
vertex -52.51882172 80.31456757 237.4882355
vertex -53.01052094 80.43074799 237.6643524
vertex -52.51880646 80.31456757 237.4882812

endloop
endfacet
facet normal 0.05638905242 0 -0.9984087944
outer loop
vertex -54.39987946 73.42980194 238.6296844
vertex -54.39987946 73.42977142 238.6296844
vertex -54.99019623 73.60338593 238.596344

endloop
endfacet
facet normal -0.2713324726 -0.9510191083 -0.1481259167
outer loop
vertex -54.99019623 73.60338593 238.596344
vertex -54.39987946 73.42977142 238.6296844
vertex -54.94539642 73.55187225 238.8450165

endloop
endfacet
facet normal -0.9413195252 -0.3214158714 0.1030014381
outer loop
vertex -54.99019623 73.60338593 238.596344
vertex -54.94539642 73.55187225 238.8450165
vertex -55.08158112 73.89879608 238.6830139

endloop
endfacet
facet normal -0.94205302 -0.3104793727 0.1270380914
outer loop
vertex -55.08158112 73.89879608 238.6830139
vertex -54.94539642 73.55187225 238.8450165
vertex -55.02237701 73.82775116 238.94841

endloop
endfacet
facet normal -0.961646378 -0.2271784544 0.1537081003
outer loop
vertex -55.08158112 73.89879608 238.6830139
vertex -55.02237701 73.82775116 238.94841
vertex -55.14565277 74.23409271 238.7777252

endloop
endfacet
facet normal -0.9622212052 -0.2321926355 0.1421862692
outer loop
vertex -55.14565277 74.23409271 238.7777252
vertex -55.02237701 73.82775116 238.94841
vertex -55.08472443 74.15425873 239.0596771

endloop
endfacet
facet normal -0.9781390429 -0.09715210646 0.1838623881
outer loop
vertex -55.14565277 74.23409271 238.7777252
vertex -55.08472443 74.15425873 239.0596771
vertex -55.1563797 74.5903244 238.9088898

endloop
endfacet
facet normal -0.9659536481 -0.07289036363 0.2482349128
outer loop
vertex -55.1563797 74.5903244 238.9088898
vertex -55.08472443 74.15425873 239.0596771
vertex -55.07987213 74.53020477 239.1889496

endloop
endfacet
facet normal -0.9659088254 -0.07512159646 0.2477436811
outer loop
vertex -55.1563797 74.5903244 238.9088898
vertex -55.07987213 74.53020477 239.1889496
vertex -55.14894867 74.96941376 239.0528107

endloop
endfacet
facet normal -0.929474771 -0.03228038549 0.3674707115
outer loop
vertex -55.14894867 74.96941376 239.0528107
vertex -55.07987213 74.53020477 239.1889496
vertex -55.04039764 74.93431854 239.324295

endloop
endfacet
facet normal -0.9292846918 -0.02221974917 0.3686952591
outer loop
vertex -55.14894867 74.96941376 239.0528107
vertex -55.04039764 74.93431854 239.324295
vertex -55.12523651 75.382164 239.1374512

endloop
endfacet
facet normal -0.8982878923 0.0130726425 0.4392129779
outer loop
vertex -55.12523651 75.382164 239.1374512
vertex -55.04039764 74.93431854 239.324295
vertex -54.9892807 75.36110687 239.4161377

endloop
endfacet
facet normal -0.8897253275 0.1121006683 0.4425181448
outer loop
vertex -55.12523651 75.382164 239.1374512
vertex -54.9892807 75.36110687 239.4161377
vertex -55.08345795 75.79531097 239.1167908

endloop
endfacet
facet normal -0.8931068182 0.1074425504 0.4368253946
outer loop
vertex -55.08345795 75.79531097 239.1167908
vertex -54.9892807 75.36110687 239.4161377
vertex -54.92797089 75.78829193 239.4364166

endloop
endfacet
facet normal -0.8960317969 0.07548716664 0.4375256896
outer loop
vertex -55.08345795 75.79531097 239.1167755
vertex -54.92797089 75.78829193 239.4364166
vertex -55.00978851 76.222435 239.1939545

endloop
endfacet
facet normal -0.7989339828 0.171390146 0.5764806271
outer loop
vertex -55.00978851 76.222435 239.1939545
vertex -54.92797089 75.78829193 239.4364166
vertex -54.79291534 76.22051239 239.4950867

endloop
endfacet
facet normal -0.807898581 0.08994656801 0.5824168324
outer loop
vertex -55.00978851 76.222435 239.1939545
vertex -54.79291534 76.22051239 239.4950867
vertex -54.91883087 76.6523056 239.2537384

endloop
endfacet
facet normal -0.6837239265 0.1938486695 0.7035228014
outer loop
vertex -54.91883087 76.6523056 239.2537384
vertex -54.79291534 76.22051239 239.4950867
vertex -54.65010834 76.65044403 239.5154114

endloop
endfacet
facet normal -0.6842022538 0.1903598011 0.7040101886
outer loop
vertex -54.91883087 76.65233612 239.2537537
vertex -54.65009308 76.65044403 239.5154419
vertex -54.83367157 77.08403778 239.2197876

endloop
endfacet
facet normal -0.6297854185 0.2376201898 0.739531517
outer loop
vertex -54.83367157 77.08403778 239.2197876
vertex -54.65009308 76.65044403 239.5154419
vertex -54.54779816 77.08141327 239.4640808

endloop
endfacet
facet normal -0.6212947965 0.2845126688 0.7300995588
outer loop
vertex -54.83367157 77.08403778 239.2197876
vertex -54.54779816 77.08141327 239.4640808
vertex -54.74692535 77.51357269 239.1262207

endloop
endfacet
facet normal -0.6186275482 0.2868089378 0.7314647436
outer loop
vertex -54.74692535 77.51357269 239.1262207
vertex -54.54779816 77.08141327 239.4640808
vertex -54.46063995 77.51021576 239.3696594

endloop
endfacet
facet normal -0.6033715606 0.3542580605 0.7144536376
outer loop
vertex -54.74692535 77.51357269 239.1262207
vertex -54.46063995 77.51021576 239.3696594
vertex -54.64266205 77.93727875 239.0041809

endloop
endfacet
facet normal -0.6112362146 0.3478654623 0.7109007835
outer loop
vertex -54.64266205 77.93727875 239.0041809
vertex -54.46063995 77.51021576 239.3696594
vertex -54.35878754 77.93325043 239.2502289

endloop
endfacet
facet normal -0.5919557214 0.4168739617 0.6897859573
outer loop
vertex -54.64266205 77.93727875 239.0041809
vertex -54.35878754 77.93325043 239.2502289
vertex -54.52025604 78.35887909 238.8544312

endloop
endfacet
facet normal -0.613689065 0.4001310766 0.6806473732
outer loop
vertex -54.52025604 78.35887909 238.8544312
vertex -54.35878754 77.93325043 239.2502289
vertex -54.24250031 78.35424042 239.1075897

endloop
endfacet
facet normal -0.5911679864 0.4674834609 0.6572515368
outer loop
vertex -54.52025604 78.35890961 238.8544617
vertex -54.24250031 78.35427094 239.1075897
vertex -54.37496185 78.77294159 238.6906586

endloop
endfacet
facet normal -0.6110835671 0.4530549645 0.6490901113
outer loop
vertex -54.37496185 78.77294159 238.6906586
vertex -54.24250031 78.35427094 239.1075897
vertex -54.10286713 78.76784515 238.9503784

endloop
endfacet
facet normal -0.5851494074 0.5188522339 0.6232113838
outer loop
vertex -54.37496185 78.77294159 238.6906586
vertex -54.10286713 78.76784515 238.9503784
vertex -54.19435883 79.19045258 238.5126343

endloop
endfacet
facet normal -0.5988069177 0.5099998116 0.6175195575
outer loop
vertex -54.19435883 79.19045258 238.5126343
vertex -54.10286713 78.76784515 238.9503784
vertex -53.92717743 79.18349457 238.7774658

endloop
endfacet
facet normal -0.5184746385 0.6626166701 0.54048419
outer loop
vertex -54.19435883 79.19045258 238.5126343
vertex -53.92717743 79.18349457 238.7774658
vertex -53.88254547 79.63375092 238.26828

endloop
endfacet
facet normal -0.546657443 0.6504868865 0.5272878408
outer loop
vertex -53.88254547 79.63375092 238.26828
vertex -53.92717743 79.18349457 238.7774658
vertex -53.63300323 79.6153183 238.5497284

endloop
endfacet
facet normal -0.4974485338 0.7171995044 0.4880265892
outer loop
vertex -53.88254547 79.63375092 238.26828
vertex -53.63300323 79.6153183 238.5497284
vertex -53.55077362 80.02776337 238.02742

endloop
endfacet
facet normal -0.5265169144 0.7055801153 0.4742749631
outer loop
vertex -53.55077362 80.02776337 238.02742
vertex -53.63300323 79.6153183 238.5497284
vertex -53.3192215 80.00102997 238.3242493

endloop
endfacet
facet normal -0.4512322843 0.7859044075 0.422780782
outer loop
vertex -53.55077362 80.02776337 238.02742
vertex -53.3192215 80.00102997 238.3242493
vertex -53.27851105 80.28472137 237.8403473

endloop
endfacet
facet normal -0.4839526415 0.7720807195 0.4119237959
outer loop
vertex -53.27851105 80.28472137 237.8403473
vertex -53.3192215 80.00102997 238.3242493
vertex -53.07772064 80.26250458 238.1178894

endloop
endfacet
facet normal -0.302926749 0.9072750211 0.2916973531
outer loop
vertex -53.27849579 80.28469086 237.8403473
vertex -53.07770538 80.26250458 238.1178741
vertex -53.01052094 80.43074799 237.6643524

endloop
endfacet
facet normal -0.3570498526 0.8917790055 0.277930975
outer loop
vertex -53.01052094 80.43074799 237.6643524
vertex -53.07770538 80.26250458 238.1178741
vertex -52.86934662 80.41939545 237.8821411

endloop
endfacet
facet normal 0.2019722015 0.9761151075 -0.08004043251
outer loop
vertex -53.01052094 80.43074799 237.6643524
vertex -52.86934662 80.41939545 237.8821411
vertex -52.51880646 80.31456757 237.4882812

endloop
endfacet
facet normal -nan(ind) -nan(ind) -nan(ind)
outer loop
vertex -52.51880646 80.31456757 237.4882812
vertex -52.86934662 80.41939545 237.8821411
vertex -52.51880646 80.31456757 237.4882812

endloop
endfacet
facet normal 0.1204574108 0.9630420804 -0.2409148216
outer loop
vertex -54.39987946 73.42977142 238.6296844
vertex -54.39990997 73.42977142 238.6296692
vertex -54.94539642 73.55187225 238.8450165

endloop
endfacet
facet normal -0.2242486775 -0.9744079113 -0.01554977149
outer loop
vertex -54.94539642 73.55187225 238.8450165
vertex -54.39990997 73.42977142 238.6296692
vertex -54.77962494 73.51018524 239.0666351

endloop
endfacet
facet normal -0.7680566311 -0.4013374746 0.4990163743
outer loop
vertex -54.94539642 73.55187225 238.8450165
vertex -54.77962494 73.51018524 239.0666351
vertex -55.02237701 73.82775116 238.94841

endloop
endfacet
facet normal -0.7696151137 -0.4043309987 0.4941751957
outer loop
vertex -55.02237701 73.82775116 238.94841
vertex -54.77962494 73.51018524 239.0666351
vertex -54.84494781 73.77245331 239.1794891

endloop
endfacet
facet normal -0.7854483128 -0.3286986947 0.5244313478
outer loop
vertex -55.02237701 73.82775116 238.94841
vertex -54.84494781 73.77245331 239.1794891
vertex -55.08472443 74.15425873 239.0596771

endloop
endfacet
facet normal -0.789808929 -0.3347203434 0.5139690042
outer loop
vertex -55.08472443 74.15425873 239.0596771
vertex -54.84494781 73.77245331 239.1794891
vertex -54.89794159 74.09215546 239.3062592

endloop
endfacet
facet normal -0.8052853942 -0.1834691465 0.5637857914
outer loop
vertex -55.08472443 74.15425873 239.0596771
vertex -54.89794159 74.09215546 239.3062592
vertex -55.07987213 74.53020477 239.1889496

endloop
endfacet
facet normal -0.7708602548 -0.1546687484 0.6179417372
outer loop
vertex -55.07987213 74.53020477 239.1889496
vertex -54.89794159 74.09215546 239.3062592
vertex -54.88074493 74.48348236 239.4256592

endloop
endfacet
facet normal -0.7712179422 -0.1331500411 0.622490108
outer loop
vertex -55.07987213 74.53020477 239.1889496
vertex -54.88074493 74.48348236 239.4256592
vertex -55.04039764 74.93431854 239.324295

endloop
endfacet
facet normal -0.6916132569 -0.08361826837 0.7174113989
outer loop
vertex -55.04039764 74.93431854 239.324295
vertex -54.88074493 74.48348236 239.4256592
vertex -54.81616974 74.90688324 239.537262

endloop
endfacet
facet normal -0.6914932728 -0.07186102122 0.7187997699
outer loop
vertex -55.04039764 74.93431854 239.324295
vertex -54.81616974 74.90688324 239.537262
vertex -54.9892807 75.36110687 239.4161377

endloop
endfacet
facet normal -0.62524122 -0.03033382073 0.7798417807
outer loop
vertex -54.9892807 75.36110687 239.4161377
vertex -54.81616974 74.90688324 239.537262
vertex -54.74394989 75.34282684 239.6121216

endloop
endfacet
facet normal -0.6209381223 0.05198863894 0.7821336985
outer loop
vertex -54.9892807 75.36110687 239.4161377
vertex -54.74394989 75.34282684 239.6121216
vertex -54.92797089 75.78829193 239.4364166

endloop
endfacet
facet normal -0.6006310582 0.06615621597 0.7967845798
outer loop
vertex -54.92797089 75.78829193 239.4364166
vertex -54.74394989 75.34282684 239.6121216
vertex -54.66883087 75.77489471 239.6328735

endloop
endfacet
facet normal -0.5995933414 0.07925420254 0.7963708639
outer loop
vertex -54.92797089 75.78829193 239.4364166
vertex -54.66883087 75.77489471 239.6328583
vertex -54.79291534 76.22051239 239.4950867

endloop
endfacet
facet normal -0.4266737998 0.1565829664 0.8907476068
outer loop
vertex -54.79291534 76.22051239 239.4950867
vertex -54.66883087 75.77489471 239.6328583
vertex -54.49536896 76.20259857 239.6407623

endloop
endfacet
facet normal -0.4325284362 0.1013160795 0.895909667
outer loop
vertex -54.79291534 76.22051239 239.4950867
vertex -54.49536896 76.20259857 239.6407623
vertex -54.65010834 76.65044403 239.5154114

endloop
endfacet
facet normal -0.2546931207 0.17803891 0.95049119
outer loop
vertex -54.65010834 76.65044403 239.5154114
vertex -54.49536896 76.20259857 239.6407623
vertex -54.32726288 76.62099457 239.6074371

endloop
endfacet
facet normal -0.2552314401 0.1739307195 0.9511072636
outer loop
vertex -54.65009308 76.65044403 239.5154419
vertex -54.32724762 76.6210556 239.6074524
vertex -54.54779816 77.08141327 239.4640808

endloop
endfacet
facet normal -0.1864104718 0.2096240968 0.9598484039
outer loop
vertex -54.54779816 77.08141327 239.4640808
vertex -54.32724762 76.6210556 239.6074524
vertex -54.22046661 77.04006195 239.5366821

endloop
endfacet
facet normal -0.1801048517 0.2463048995 0.9523109198
outer loop
vertex -54.54779816 77.08141327 239.4640808
vertex -54.22046661 77.04006195 239.5366821
vertex -54.46063995 77.51021576 239.3696594

endloop
endfacet
facet normal -0.1767252535 0.2480914593 0.9524803162
outer loop
vertex -54.46063995 77.51021576 239.3696594
vertex -54.22046661 77.04006195 239.5366821
vertex -54.13547516 77.45760345 239.4436951

endloop
endfacet
facet normal -0.1643628627 0.3044552207 0.9382386804
outer loop
vertex -54.46063995 77.51021576 239.3696594
vertex -54.13547516 77.45760345 239.4436951
vertex -54.35878754 77.93325043 239.2502289

endloop
endfacet
facet normal -0.1731128544 0.3002573252 0.9380177855
outer loop
vertex -54.35878754 77.93325043 239.2502289
vertex -54.13547516 77.45760345 239.4436951
vertex -54.03713226 77.86943817 239.3300171

endloop
endfacet
facet normal -0.157924816 0.3557254374 0.9211509824
outer loop
vertex -54.35878754 77.93325043 239.2502289
vertex -54.03713226 77.86943817 239.3300171
vertex -54.24250031 78.35424042 239.1075897

endloop
endfacet
facet normal -0.1832796633 0.3447456062 0.9206296802
outer loop
vertex -54.24250031 78.35424042 239.1075897
vertex -54.03713226 77.86943817 239.3300171
vertex -53.92562103 78.28090668 239.1981354

endloop
endfacet
facet normal -0.1655324996 0.3987606168 0.9019916654
outer loop
vertex -54.24250031 78.35427094 239.1075897
vertex -53.92560577 78.28093719 239.1981659
vertex -54.10286713 78.76784515 238.9503784

endloop
endfacet
facet normal -0.1884631366 0.3900589347 0.9012966752
outer loop
vertex -54.10286713 78.76784515 238.9503784
vertex -53.92560577 78.28093719 239.1981659
vertex -53.79055023 78.68660736 239.0508423

endloop
endfacet
facet normal -0.1697036773 0.4388175607 0.8824056983
outer loop
vertex -54.10286713 78.76784515 238.9503784
vertex -53.79055023 78.68660736 239.0508423
vertex -53.92717743 79.18349457 238.7774658

endloop
endfacet
facet normal -0.185569495 0.4340066016 0.881590724
outer loop
vertex -53.92717743 79.18349457 238.7774658
vertex -53.79055023 78.68660736 239.0508423
vertex -53.61969757 79.09499359 238.8857574

endloop
endfacet
facet normal -0.1396380514 0.5346719623 0.8334428668
outer loop
vertex -53.92717743 79.18349457 238.7774658
vertex -53.61969757 79.09499359 238.8857574
vertex -53.63300323 79.6153183 238.5497284

endloop
endfacet
facet normal -0.1715031713 0.5313728452 0.8295960426
outer loop
vertex -53.63300323 79.6153183 238.5497284
vertex -53.61969757 79.09499359 238.8857574
vertex -53.34433746 79.5019455 238.6820221

endloop
endfacet
facet normal -0.1389255226 0.5815806985 0.8015382886
outer loop
vertex -53.63300323 79.6153183 238.5497284
vertex -53.34433746 79.5019455 238.6820221
vertex -53.3192215 80.00102997 238.3242493

endloop
endfacet
facet normal -0.171479702 0.5796775222 0.796598196
outer loop
vertex -53.3192215 80.00102997 238.3242493
vertex -53.34433746 79.5019455 238.6820221
vertex -53.04869843 79.86769867 238.4795074

endloop
endfacet
facet normal -0.09374044091 0.6687027812 0.7375969887
outer loop
vertex -53.3192215 80.00102997 238.3242493
vertex -53.04869843 79.86769867 238.4795074
vertex -53.07772064 80.26250458 238.1178894

endloop
endfacet
facet normal -0.1410543621 0.6630213857 0.7351913452
outer loop
vertex -53.07772064 80.26250458 238.1178894
vertex -53.04869843 79.86769867 238.4795074
vertex -52.83434296 80.14092255 238.274231

endloop
endfacet
facet normal 0.03754464537 0.816270113 0.5764490962
outer loop
vertex -53.07770538 80.26250458 238.1178741
vertex -52.83434296 80.14089203 238.274231
vertex -52.86934662 80.41939545 237.8821411

endloop
endfacet
facet normal -0.04398700222 0.8126183152 0.5811338425
outer loop
vertex -52.86934662 80.41939545 237.8821411
vertex -52.83434296 80.14089203 238.274231
vertex -52.68090057 80.33162689 238.0191345

endloop
endfacet
facet normal 0.3703076243 0.9251630306 0.08334134519
outer loop
vertex -52.86934662 80.41939545 237.8821411
vertex -52.68090057 80.33162689 238.0191345
vertex -52.51880646 80.31456757 237.4882812

endloop
endfacet
facet normal -0.1044703797 -0.9945280552 0
outer loop
vertex -52.51880646 80.31456757 237.4882812
vertex -52.68090057 80.33162689 238.0191345
vertex -52.51880646 80.31456757 237.488266

endloop
endfacet
facet normal -0.06349413097 -0.9898698926 0.1269882619
outer loop
vertex -54.39990997 73.42977142 238.6296692
vertex -54.39987946 73.42977142 238.6296844
vertex -54.77962494 73.51018524 239.0666351

endloop
endfacet
facet normal -0.1128810719 -0.9900430441 0.08409887552
outer loop
vertex -54.77962494 73.51018524 239.0666351
vertex -54.39987946 73.42977142 238.6296844
vertex -54.52164459 73.49156952 239.1937561

endloop
endfacet
facet normal -0.4214660525 -0.4449815154 0.7901631594
outer loop
vertex -54.77962494 73.51018524 239.0666351
vertex -54.52164459 73.49156952 239.1937561
vertex -54.84494781 73.77245331 239.1794891

endloop
endfacet
facet normal -0.446277082 -0.4751565158 0.7583290935
outer loop
vertex -54.84494781 73.77245331 239.1794891
vertex -54.52164459 73.49156952 239.1937561
vertex -54.58005524 73.74721527 239.3195648

endloop
endfacet
facet normal -0.4589384794 -0.3921918869 0.7972207665
outer loop
vertex -54.84494781 73.77245331 239.1794891
vertex -54.58005524 73.74721527 239.3195648
vertex -54.89794159 74.09215546 239.3062592

endloop
endfacet
facet normal -0.4659918845 -0.3989812136 0.7897250056
outer loop
vertex -54.89794159 74.09215546 239.3062592
vertex -54.58005524 73.74721527 239.3195648
vertex -54.61753082 74.06380463 239.4573975

endloop
endfacet
facet normal -0.4794100225 -0.2367700338 0.8450478911
outer loop
vertex -54.89794159 74.09215546 239.3062592
vertex -54.61753082 74.06380463 239.4573975
vertex -54.88074493 74.48348236 239.4256592

endloop
endfacet
facet normal -0.4293723404 -0.2027382106 0.8800776005
outer loop
vertex -54.88074493 74.48348236 239.4256592
vertex -54.61753082 74.06380463 239.4573975
vertex -54.59433746 74.46212006 239.5604706

endloop
endfacet
facet normal -0.4300529361 -0.1682101935 0.8869948387
outer loop
vertex -54.88074493 74.48348236 239.4256592
vertex -54.59433746 74.46212006 239.5604706
vertex -54.81616974 74.90688324 239.537262

endloop
endfacet
facet normal -0.3209456801 -0.110995613 0.9405710697
outer loop
vertex -54.81616974 74.90688324 239.537262
vertex -54.59433746 74.46212006 239.5604706
vertex -54.51810455 74.89427948 239.6374817

endloop
endfacet
facet normal -0.3209384978 -0.1083982289 0.9408763647
outer loop
vertex -54.81616974 74.90688324 239.537262
vertex -54.51810455 74.89427948 239.6374817
vertex -54.74394989 75.34282684 239.6121216

endloop
endfacet
facet normal -0.2316330373 -0.06173835695 0.9708422422
outer loop
vertex -54.74394989 75.34282684 239.6121216
vertex -54.51810455 74.89427948 239.6374817
vertex -54.44306183 75.3323288 239.6832428

endloop
endfacet
facet normal -0.2302487046 -0.006706938148 0.9731087089
outer loop
vertex -54.74394989 75.34282684 239.6121216
vertex -54.44306183 75.3323288 239.6832428
vertex -54.66883087 75.77489471 239.6328735

endloop
endfacet
facet normal -0.1918403357 0.0138221262 0.9813289046
outer loop
vertex -54.66883087 75.77489471 239.6328735
vertex -54.44306183 75.3323288 239.6832428
vertex -54.38024139 75.76006317 239.6894989

endloop
endfacet
facet normal -0.1893559694 0.05868281052 0.9801533222
outer loop
vertex -54.66883087 75.77489471 239.6328583
vertex -54.38024139 75.76006317 239.6894989
vertex -54.49536896 76.20259857 239.6407623

endloop
endfacet
facet normal 0.01612607203 0.1135982871 0.9933959246
outer loop
vertex -54.49536896 76.20259857 239.6407623
vertex -54.38024139 75.76006317 239.6894989
vertex -54.2048111 76.17696381 239.6389771

endloop
endfacet
facet normal 0.01268437412 0.07432673872 0.9971533418
outer loop
vertex -54.49536896 76.20259857 239.6407623
vertex -54.2048111 76.17696381 239.6389771
vertex -54.32726288 76.62099457 239.6074371

endloop
endfacet
facet normal 0.2001756281 0.124234587 0.9718515873
outer loop
vertex -54.32726288 76.62099457 239.6074371
vertex -54.2048111 76.17696381 239.6389771
vertex -54.03923798 76.57814789 239.5535889

endloop
endfacet
facet normal 0.1988638937 0.1137292907 0.9734057784
outer loop
vertex -54.32724762 76.6210556 239.6074524
vertex -54.03922272 76.57817841 239.5536194
vertex -54.22046661 77.04006195 239.5366821

endloop
endfacet
facet normal 0.2671653032 0.1397993267 0.9534562826
outer loop
vertex -54.22046661 77.04006195 239.5366821
vertex -54.03922272 76.57817841 239.5536194
vertex -53.93834686 76.9797287 239.4664764

endloop
endfacet
facet normal 0.2699200213 0.1566361934 0.9500570297
outer loop
vertex -54.22046661 77.04006195 239.5366821
vertex -53.93834686 76.9797287 239.4664764
vertex -54.13547516 77.45760345 239.4436951

endloop
endfacet
facet normal 0.2733817399 0.1580061316 0.9488395452
outer loop
vertex -54.13547516 77.45760345 239.4436951
vertex -53.93834686 76.9797287 239.4664764
vertex -53.85691071 77.38100433 239.3761902

endloop
endfacet
facet normal 0.2807873785 0.1924909055 0.9402689338
outer loop
vertex -54.13547516 77.45760345 239.4436951
vertex -53.85691071 77.38100433 239.3761902
vertex -54.03713226 77.86943817 239.3300171

endloop
endfacet
facet normal 0.2723444402 0.1896642298 0.9433217645
outer loop
vertex -54.03713226 77.86943817 239.3300171
vertex -53.85691071 77.38100433 239.3761902
vertex -53.76207733 77.7766037 239.2692719

endloop
endfacet
facet normal 0.2813614905 0.2229025811 0.9333541989
outer loop
vertex -54.03713226 77.86943817 239.3300171
vertex -53.76207733 77.7766037 239.2692719
vertex -53.92562103 78.28090668 239.1981354

endloop
endfacet
facet normal 0.2569296062 0.2161903381 0.9419388771
outer loop
vertex -53.92562103 78.28090668 239.1981354
vertex -53.76207733 77.7766037 239.2692719
vertex -53.65326691 78.17409515 239.1483612

endloop
endfacet
facet normal 0.2677639425 0.2488809973 0.9307850599
outer loop
vertex -53.92560577 78.28093719 239.1981659
vertex -53.65325165 78.17412567 239.1483765
vertex -53.79055023 78.68660736 239.0508423

endloop
endfacet
facet normal 0.2451878637 0.2442447096 0.9382044077
outer loop
vertex -53.79055023 78.68660736 239.0508423
vertex -53.65325165 78.17412567 239.1483765
vertex -53.52088165 78.56829071 239.0111694

endloop
endfacet
facet normal 0.2546552718 0.2689497173 0.9288793206
outer loop
vertex -53.79055023 78.68660736 239.0508423
vertex -53.52088165 78.56829071 239.0111694
vertex -53.61969757 79.09499359 238.8857574

endloop
endfacet
facet normal 0.239665255 0.2672044933 0.933360815
outer loop
vertex -53.61969757 79.09499359 238.8857574
vertex -53.52088165 78.56829071 239.0111694
vertex -53.35373688 78.96709442 238.8540802

endloop
endfacet
facet normal 0.2505673766 0.2924752235 0.9228619933
outer loop
vertex -53.61969757 79.09499359 238.8857574
vertex -53.35373688 78.96709442 238.8540802
vertex -53.34433746 79.5019455 238.6820221

endloop
endfacet
facet normal 0.214152202 0.2957205474 0.930960834
outer loop
vertex -53.34433746 79.5019455 238.6820221
vertex -53.35373688 78.96709442 238.8540802
vertex -53.09363556 79.34508514 238.6741791

endloop
endfacet
facet normal 0.2303371429 0.3222254515 0.9182132483
outer loop
vertex -53.34433746 79.5019455 238.6820221
vertex -53.09363556 79.34508514 238.6741791
vertex -53.04869843 79.86769867 238.4795074

endloop
endfacet
facet normal 0.1917599738 0.3280657232 0.9249870181
outer loop
vertex -53.04869843 79.86769867 238.4795074
vertex -53.09363556 79.34508514 238.6741791
vertex -52.81203461 79.68672943 238.4946289

endloop
endfacet
facet normal 0.2743966281 0.43068555 0.8597769737
outer loop
vertex -53.04869843 79.86769867 238.4795074
vertex -52.81203461 79.68672943 238.4946289
vertex -52.83434296 80.14092255 238.274231

endloop
endfacet
facet normal 0.2316144556 0.4338802695 0.8706909418
outer loop
vertex -52.83434296 80.14092255 238.274231
vertex -52.81203461 79.68672943 238.4946289
vertex -52.61377716 79.97051239 238.3004761

endloop
endfacet
facet normal 0.3891167045 0.6100793481 0.6902111173
outer loop
vertex -52.83434296 80.14089203 238.274231
vertex -52.61379242 79.97051239 238.3004913
vertex -52.68090057 80.33162689 238.0191345

endloop
endfacet
facet normal 0.3233903646 0.6182476878 0.7163717747
outer loop
vertex -52.68090057 80.33162689 238.0191345
vertex -52.61379242 79.97051239 238.3004913
vertex -52.4957962 80.19753265 238.0513

endloop
endfacet
facet normal 0.5636188984 0.8130359054 0.1459673196
outer loop
vertex -52.68090057 80.33162689 238.0191345
vertex -52.4957962 80.19753265 238.0513
vertex -52.51880646 80.31456757 237.488266

endloop
endfacet
facet normal -0.2074611485 0.9560500979 0.2071910053
outer loop
vertex -52.51880646 80.31456757 237.488266
vertex -52.4957962 80.19753265 238.0513
vertex -52.5187912 80.31456757 237.4882812

endloop
endfacet
facet normal 0.08938333392 0.9919784069 -0.08938333392
outer loop
vertex -54.39987946 73.42977142 238.6296844
vertex -54.39989471 73.42977142 238.6296692
vertex -54.52164459 73.49156952 239.1937561

endloop
endfacet
facet normal 0.03806082904 -0.9924096465 0.1169375256
outer loop
vertex -54.52164459 73.49156952 239.1937561
vertex -54.39989471 73.42977142 238.6296692
vertex -54.23529816 73.50191498 239.1883545

endloop
endfacet
facet normal 0.03269842267 -0.4352889657 0.8996968269
outer loop
vertex -54.52164459 73.49156952 239.1937561
vertex -54.23529816 73.50191498 239.1883545
vertex -54.58005524 73.74721527 239.3195648

endloop
endfacet
facet normal -0.02260001563 -0.4960526824 0.8679982424
outer loop
vertex -54.58005524 73.74721527 239.3195648
vertex -54.23529816 73.50191498 239.1883545
vertex -54.27977753 73.75887299 239.3340454

endloop
endfacet
facet normal -0.0285363365 -0.4018521011 0.9152598381
outer loop
vertex -54.58005524 73.74721527 239.3195648
vertex -54.27977753 73.75887299 239.3340454
vertex -54.61753082 74.06380463 239.4573975

endloop
endfacet
facet normal -0.03647356853 -0.4092083573 0.9117116928
outer loop
vertex -54.61753082 74.06380463 239.4573975
vertex -54.27977753 73.75887299 239.3340454
vertex -54.29836273 74.07686615 239.4760284

endloop
endfacet
facet normal -0.04635174572 -0.2477209419 0.9677219391
outer loop
vertex -54.61753082 74.06380463 239.4573975
vertex -54.29836273 74.07686615 239.4760284
vertex -54.59433746 74.46212006 239.5604706

endloop
endfacet
facet normal 0.009105619974 -0.2074143291 0.9782108068
outer loop
vertex -54.59433746 74.46212006 239.5604706
vertex -54.29836273 74.07686615 239.4760284
vertex -54.27706146 74.47194672 239.5596008

endloop
endfacet
facet normal 0.008174742572 -0.1768285185 0.9842077494
outer loop
vertex -54.59433746 74.46212006 239.5604706
vertex -54.27706146 74.47194672 239.5596008
vertex -54.51810455 74.89427948 239.6374817

endloop
endfacet
facet normal 0.1270207167 -0.1093026996 0.9858593345
outer loop
vertex -54.51810455 74.89427948 239.6374817
vertex -54.27706146 74.47194672 239.5596008
vertex -54.20580292 74.89992523 239.5978699

endloop
endfacet
facet normal 0.127066046 -0.1245663539 0.9840413332
outer loop
vertex -54.51810455 74.89427948 239.6374817
vertex -54.20580292 74.89992523 239.5978699
vertex -54.44306183 75.3323288 239.6832428

endloop
endfacet
facet normal 0.2199415714 -0.07140526921 0.9728962183
outer loop
vertex -54.44306183 75.3323288 239.6832428
vertex -54.20580292 74.89992523 239.5978699
vertex -54.14421844 75.33223724 239.6156769

endloop
endfacet
facet normal 0.2202721238 -0.04660150781 0.974324584
outer loop
vertex -54.44306183 75.3323288 239.6832428
vertex -54.14421844 75.33223724 239.6156769
vertex -54.38024139 75.76006317 239.6894989

endloop
endfacet
facet normal 0.2600145936 -0.02312397957 0.9653277397
outer loop
vertex -54.38024139 75.76006317 239.6894989
vertex -54.14421844 75.33223724 239.6156769
vertex -54.1085434 75.74675751 239.6159973

endloop
endfacet
facet normal 0.2614505589 0.006948730908 0.9651919007
outer loop
vertex -54.38024139 75.76006317 239.6894989
vertex -54.1085434 75.74675751 239.6159973
vertex -54.2048111 76.17696381 239.6389771

endloop
endfacet
facet normal 0.4526011646 0.05373417586 0.8900926113
outer loop
vertex -54.2048111 76.17696381 239.6389771
vertex -54.1085434 75.74675751 239.6159973
vertex -53.96457672 76.14925385 239.5184937

endloop
endfacet
facet normal 0.4487580955 0.004995120689 0.8936393261
outer loop
vertex -54.2048111 76.17696381 239.6389771
vertex -53.96457672 76.14925385 239.5184937
vertex -54.03923798 76.57814789 239.5535889

endloop
endfacet
facet normal 0.6097449064 0.04137585312 0.7915170789
outer loop
vertex -54.03923798 76.57814789 239.5535889
vertex -53.96457672 76.14925385 239.5184937
vertex -53.8262558 76.53157806 239.3919525

endloop
endfacet
facet normal 0.6072033048 0.0198366046 0.7942988276
outer loop
vertex -54.03922272 76.57817841 239.5536194
vertex -53.82624054 76.53160858 239.3919678
vertex -53.93834686 76.9797287 239.4664764

endloop
endfacet
facet normal 0.6618736386 0.04113072529 0.7484862208
outer loop
vertex -53.93834686 76.9797287 239.4664764
vertex -53.82624054 76.53160858 239.3919678
vertex -53.73871613 76.91417694 239.2935486

endloop
endfacet
facet normal 0.6608177423 0.03458366916 0.7497492433
outer loop
vertex -53.93834686 76.9797287 239.4664764
vertex -53.73871613 76.91417694 239.2935486
vertex -53.85691071 77.38100433 239.3761902

endloop
endfacet
facet normal 0.6633867621 0.03564516827 0.7474271655
outer loop
vertex -53.85691071 77.38100433 239.3761902
vertex -53.73871613 76.91417694 239.2935486
vertex -53.66138458 77.29775238 239.2066193

endloop
endfacet
facet normal 0.6647970676 0.04220940545 0.7458305359
outer loop
vertex -53.85691071 77.38100433 239.3761902
vertex -53.66138458 77.29775238 239.2066193
vertex -53.76207733 77.7766037 239.2692719

endloop
endfacet
facet normal 0.6579943895 0.0399768427 0.7519609332
outer loop
vertex -53.76207733 77.7766037 239.2692719
vertex -53.66138458 77.29775238 239.2066193
vertex -53.5694809 77.67565155 239.1061096

endloop
endfacet
facet normal 0.6600135565 0.04739044234 0.7497574687
outer loop
vertex -53.76207733 77.7766037 239.2692719
vertex -53.5694809 77.67565155 239.1061096
vertex -53.65326691 78.17409515 239.1483612

endloop
endfacet
facet normal 0.6401302814 0.04257928953 0.7670855522
outer loop
vertex -53.65326691 78.17409515 239.1483612
vertex -53.5694809 77.67565155 239.1061096
vertex -53.46125031 78.05800629 238.9945679

endloop
endfacet
facet normal 0.6426922083 0.05027816445 0.7644729018
outer loop
vertex -53.65325165 78.17412567 239.1483765
vertex -53.46123505 78.0580368 238.9945831
vertex -53.52088165 78.56829071 239.0111694

endloop
endfacet
facet normal 0.6241134405 0.04760548845 0.7798820734
outer loop
vertex -53.52088165 78.56829071 239.0111694
vertex -53.46123505 78.0580368 238.9945831
vertex -53.32961273 78.43972015 238.8659515

endloop
endfacet
facet normal 0.6235226989 0.04609038681 0.7804453969
outer loop
vertex -53.52088165 78.56829071 239.0111694
vertex -53.32961273 78.43972015 238.8659515
vertex -53.35373688 78.96709442 238.8540802

endloop
endfacet
facet normal 0.6116569042 0.04575814307 0.789798677
outer loop
vertex -53.35373688 78.96709442 238.8540802
vertex -53.32961273 78.43972015 238.8659515
vertex -53.1646347 78.82863617 238.7156525

endloop
endfacet
facet normal 0.5834373236 -0.01499924436 0.8120195866
outer loop
vertex -53.35373688 78.96709442 238.8540802
vertex -53.1646347 78.82863617 238.7156525
vertex -53.09363556 79.34508514 238.6741791

endloop
endfacet
facet normal 0.5469051003 -0.007958308794 0.8371568322
outer loop
vertex -53.09363556 79.34508514 238.6741791
vertex -53.1646347 78.82863617 238.7156525
vertex -52.91449738 79.17913055 238.5555725

endloop
endfacet
facet normal 0.5458415151 -0.00958994031 0.8378334641
outer loop
vertex -53.09363556 79.34508514 238.6741791
vertex -52.91449738 79.17913055 238.5555725
vertex -52.81203461 79.68672943 238.4946289

endloop
endfacet
facet normal 0.5051529408 0.001648292062 0.8630282283
outer loop
vertex -52.81203461 79.68672943 238.4946289
vertex -52.91449738 79.17913055 238.5555725
vertex -52.64139557 79.49736786 238.3951111

endloop
endfacet
facet normal 0.5985428691 0.1233785972 0.7915327549
outer loop
vertex -52.81203461 79.68672943 238.4946289
vertex -52.64139557 79.49736786 238.3951111
vertex -52.61377716 79.97051239 238.3004761

endloop
endfacet
facet normal 0.5718557239 0.1286702007 0.8102006316
outer loop
vertex -52.61377716 79.97051239 238.3004761
vertex -52.64139557 79.49736786 238.3951111
vertex -52.45035553 79.78917694 238.2139282

endloop
endfacet
facet normal 0.7009387612 0.3298184276 0.6323800087
outer loop
vertex -52.61379242 79.97051239 238.3004913
vertex -52.45037079 79.78917694 238.2139282
vertex -52.4957962 80.19753265 238.0513

endloop
endfacet
facet normal 0.6671178937 0.3384929597 0.663608551
outer loop
vertex -52.4957962 80.19753265 238.0513
vertex -52.45037079 79.78917694 238.2139282
vertex -52.35184479 80.04933929 237.9821777

endloop
endfacet
facet normal 0.7378593087 0.6662015319 0.1083476692
outer loop
vertex -52.4957962 80.19753265 238.0513
vertex -52.35184479 80.04933929 237.9821777
vertex -52.5187912 80.31456757 237.4882812

endloop
endfacet
facet normal -nan(ind) -nan(ind) -nan(ind)
outer loop
vertex -52.5187912 80.31456757 237.4882812
vertex -52.35184479 80.04933929 237.9821777
vertex -52.5187912 80.31456757 237.4882812

endloop
endfacet
facet normal -nan(ind) -nan(ind) -nan(ind)
outer loop
vertex -54.39989471 73.42977142 238.6296692
vertex -54.39989471 73.42977142 238.6296692
vertex -54.23529816 73.50191498 239.1883545

endloop
endfacet
facet normal 0.1811869591 -0.9807162285 0.07326056808
outer loop
vertex -54.23529816 73.50191498 239.1883545
vertex -54.39989471 73.42977142 238.6296692
vertex -53.99539948 73.53673553 239.0611725

endloop
endfacet
facet normal 0.4765279293 -0.3697526753 0.797623992
outer loop
vertex -54.23529816 73.50191498 239.1883545
vertex -53.99539948 73.53673553 239.0611725
vertex -54.27977753 73.75887299 239.3340454

endloop
endfacet
facet normal 0.4001530111 -0.4608193338 0.7921635509
outer loop
vertex -54.27977753 73.75887299 239.3340454
vertex -53.99539948 73.53673553 239.0611725
vertex -54.00605011 73.80437469 239.2222443

endloop
endfacet
facet normal 0.4034663141 -0.3532816172 0.8440420628
outer loop
vertex -54.27977753 73.75887299 239.3340454
vertex -54.00605011 73.80437469 239.2222443
vertex -54.29836273 74.07686615 239.4760284

endloop
endfacet
facet normal 0.3963306248 -0.3610310853 0.8441436887
outer loop
vertex -54.29836273 74.07686615 239.4760284
vertex -54.00605011 73.80437469 239.2222443
vertex -54.0059433 74.12801361 239.360611

endloop
endfacet
facet normal 0.3905540109 -0.2106244713 0.8961612582
outer loop
vertex -54.29836273 74.07686615 239.4760284
vertex -54.0059433 74.12801361 239.360611
vertex -54.27706146 74.47194672 239.5596008

endloop
endfacet
facet normal 0.4405278862 -0.1634608656 0.8827319741
outer loop
vertex -54.27706146 74.47194672 239.5596008
vertex -54.0059433 74.12801361 239.360611
vertex -53.99394989 74.5104599 239.4254456

endloop
endfacet
facet normal 0.4400683343 -0.1524009258 0.8849371672
outer loop
vertex -54.27706146 74.47194672 239.5596008
vertex -53.99394989 74.5104599 239.4254456
vertex -54.20580292 74.89992523 239.5978699

endloop
endfacet
facet normal 0.5440731645 -0.07405624539 0.8357631564
outer loop
vertex -54.20580292 74.89992523 239.5978699
vertex -53.99394989 74.5104599 239.4254456
vertex -53.94290924 74.92229462 239.4287109

endloop
endfacet
facet normal 0.5444281101 -0.1117982119 0.8313237429
outer loop
vertex -54.20580292 74.89992523 239.5978699
vertex -53.94290924 74.92229462 239.4287109
vertex -54.14421844 75.33223724 239.6156769

endloop
endfacet
facet normal 0.6208100319 -0.05190398917 0.7822409868
outer loop
vertex -54.14421844 75.33223724 239.6156769
vertex -53.94290924 74.92229462 239.4287109
vertex -53.90148163 75.34191132 239.4236755

endloop
endfacet
facet normal 0.6207920313 -0.0540320985 0.7821110487
outer loop
vertex -54.14421844 75.33223724 239.6156769
vertex -53.90148163 75.34191132 239.4236755
vertex -54.1085434 75.74675751 239.6159973

endloop
endfacet
facet normal 0.6528688669 -0.02571348101 0.7570343614
outer loop
vertex -54.1085434 75.74675751 239.6159973
vertex -53.90148163 75.34191132 239.4236755
vertex -53.88408661 75.73595428 239.4220581

endloop
endfacet
facet normal 0.651614666 -0.0497106947 0.7569195032
outer loop
vertex -54.1085434 75.74675751 239.6159973
vertex -53.88408661 75.73595428 239.4220581
vertex -53.96457672 76.14925385 239.5184937

endloop
endfacet
facet normal 0.7962262034 0.01393758506 0.6048386097
outer loop
vertex -53.96457672 76.14925385 239.5184937
vertex -53.88408661 75.73595428 239.4220581
vertex -53.7912674 76.12145233 239.2909851

endloop
endfacet
facet normal 0.7878190279 -0.08303374052 0.61028409
outer loop
vertex -53.96457672 76.14925385 239.5184937
vertex -53.7912674 76.12145233 239.2909851
vertex -53.8262558 76.53157806 239.3919525

endloop
endfacet
facet normal 0.8935775757 -0.03396612406 0.4476220012
outer loop
vertex -53.8262558 76.53157806 239.3919525
vertex -53.7912674 76.12145233 239.2909851
vertex -53.70037079 76.48458099 239.137085

endloop
endfacet
facet normal 0.8868835568 -0.08613421023 0.4538925886
outer loop
vertex -53.82624054 76.53160858 239.3919678
vertex -53.70037079 76.48458099 239.1371002
vertex -53.73871613 76.91417694 239.2935486

endloop
endfacet
facet normal 0.9186714292 -0.06017864123 0.390411675
outer loop
vertex -53.73871613 76.91417694 239.2935486
vertex -53.70037079 76.48458099 239.1371002
vertex -53.63237762 76.84801483 239.0331268

endloop
endfacet
facet normal 0.9130786061 -0.09416525811 0.3967624605
outer loop
vertex -53.73871613 76.91417694 239.2935486
vertex -53.63237762 76.84801483 239.0331268
vertex -53.66138458 77.29775238 239.2066193

endloop
endfacet
facet normal 0.914488554 -0.09292970598 0.3937953413
outer loop
vertex -53.66138458 77.29775238 239.2066193
vertex -53.63237762 76.84801483 239.0331268
vertex -53.55937958 77.21370697 238.9499054

endloop
endfacet
facet normal 0.9096491933 -0.1150694042 0.3991207182
outer loop
vertex -53.66138458 77.29775238 239.2066193
vertex -53.55937958 77.21370697 238.9499054
vertex -53.5694809 77.67565155 239.1061096

endloop
endfacet
facet normal 0.9052498341 -0.1182039604 0.4081060886
outer loop
vertex -53.5694809 77.67565155 239.1061096
vertex -53.55937958 77.21370697 238.9499054
vertex -53.46961212 77.57381439 238.8550873

endloop
endfacet
facet normal 0.900770545 -0.1345110089 0.4129396379
outer loop
vertex -53.5694809 77.67565155 239.1061096
vertex -53.46961212 77.57381439 238.8550873
vertex -53.46125031 78.05800629 238.9945679

endloop
endfacet
facet normal 0.8883410692 -0.1412080973 0.436932981
outer loop
vertex -53.46125031 78.05800629 238.9945679
vertex -53.46961212 77.57381439 238.8550873
vertex -53.35993195 77.94081879 238.7507019

endloop
endfacet
facet normal 0.8834512234 -0.1557359695 0.4418826103
outer loop
vertex -53.46123505 78.0580368 238.9945831
vertex -53.35991669 77.9408493 238.7507172
vertex -53.32961273 78.43972015 238.8659515

endloop
endfacet
facet normal 0.8714492321 -0.1600334942 0.4636437297
outer loop
vertex -53.32961273 78.43972015 238.8659515
vertex -53.35991669 77.9408493 238.7507172
vertex -53.22716522 78.30998993 238.6286163

endloop
endfacet
facet normal 0.8621811867 -0.1832092404 0.4723112881
outer loop
vertex -53.32961273 78.43972015 238.8659515
vertex -53.22716522 78.30998993 238.6286163
vertex -53.1646347 78.82863617 238.7156525

endloop
endfacet
facet normal 0.8543966413 -0.1845264733 0.4857533574
outer loop
vertex -53.1646347 78.82863617 238.7156525
vertex -53.22716522 78.30998993 238.6286163
vertex -53.06270599 78.68947601 238.4835052

endloop
endfacet
facet normal 0.7843594551 -0.3159742355 0.5337981582
outer loop
vertex -53.1646347 78.82863617 238.7156525
vertex -53.06270599 78.68947601 238.4835052
vertex -52.91449738 79.17913055 238.5555725

endloop
endfacet
facet normal 0.7558352947 -0.3133886456 0.574891746
outer loop
vertex -52.91449738 79.17913055 238.5555725
vertex -53.06270599 78.68947601 238.4835052
vertex -52.81671906 79.01576996 238.3379669

endloop
endfacet
facet normal 0.7373611331 -0.3378399611 0.584946692
outer loop
vertex -52.91449738 79.17913055 238.5555725
vertex -52.81671906 79.01576996 238.3379669
vertex -52.64139557 79.49736786 238.3951111

endloop
endfacet
facet normal 0.7040112615 -0.3308565319 0.6284123063
outer loop
vertex -52.64139557 79.49736786 238.3951111
vertex -52.81671906 79.01576996 238.3379669
vertex -52.54640961 79.31301117 238.1916351

endloop
endfacet
facet normal 0.8125279546 -0.1897118688 0.5511875153
outer loop
vertex -52.64139557 79.49736786 238.3951111
vertex -52.54640961 79.31301117 238.1916351
vertex -52.45035553 79.78917694 238.2139282

endloop
endfacet
facet normal 0.7980629802 -0.1877946854 0.572563231
outer loop
vertex -52.45035553 79.78917694 238.2139282
vertex -52.54640961 79.31301117 238.1916351
vertex -52.35787201 79.61476898 238.0278168

endloop
endfacet
facet normal 0.90656358 0.0315964818 0.420884937
outer loop
vertex -52.45037079 79.78917694 238.2139282
vertex -52.35788727 79.61476898 238.0278168
vertex -52.35184479 80.04933929 237.9821777

endloop
endfacet
facet normal 0.8941639662 0.0344498083 0.4464123845
outer loop
vertex -52.35184479 80.04933929 237.9821777
vertex -52.35788727 79.61476898 238.0278168
vertex -52.27051544 79.91231537 237.8298492

endloop
endfacet
facet normal 0.8548102975 0.5188378692 -0.01032007486
outer loop
vertex -52.35184479 80.04933929 237.9821777
vertex -52.27051544 79.91231537 237.8298492
vertex -52.5187912 80.31456757 237.4882812

endloop
endfacet
facet normal 0.6977958679 -0.1617463678 -0.6977958679
outer loop
vertex -52.5187912 80.31456757 237.4882812
vertex -52.27051544 79.91231537 237.8298492
vertex -52.51880646 80.31456757 237.488266

endloop
endfacet
facet normal 0 0.9706231356 -0.2406049669
outer loop
vertex -54.39989471 73.42977142 238.6296692
vertex -54.39990997 73.42977142 238.6296692
vertex -53.99539948 73.53673553 239.0611725

endloop
endfacet
facet normal 0.2795100808 -0.9598404169 -0.02409317717
outer loop
vertex -53.99539948 73.53673553 239.0611725
vertex -54.39990997 73.42977142 238.6296692
vertex -53.84658051 73.58519745 238.8569946

endloop
endfacet
facet normal 0.8060423732 -0.2813116312 0.5207297802
outer loop
vertex -53.99539948 73.53673553 239.0611725
vertex -53.84658051 73.58519745 238.8569946
vertex -54.00605011 73.80437469 239.2222443

endloop
endfacet
facet normal 0.7404026389 -0.3824431598 0.55275774
outer loop
vertex -54.00605011 73.80437469 239.2222443
vertex -53.84658051 73.58519745 238.8569946
vertex -53.81519318 73.872612 239.0138092

endloop
endfacet
facet normal 0.7530996799 -0.2588419318 0.6048484445
outer loop
vertex -54.00605011 73.80437469 239.2222443
vertex -53.81519318 73.872612 239.0138092
vertex -54.0059433 74.12801361 239.360611

endloop
endfacet
facet normal 0.74777174 -0.2669821978 0.6079127789
outer loop
vertex -54.0059433 74.12801361 239.360611
vertex -53.81519318 73.872612 239.0138092
vertex -53.80057526 74.20467377 239.1416626

endloop
endfacet
facet normal 0.7457672954 -0.1340175867 0.6525874734
outer loop
vertex -54.0059433 74.12801361 239.360611
vertex -53.80057526 74.20467377 239.1416626
vertex -53.99394989 74.5104599 239.4254456

endloop
endfacet
facet normal 0.7806718349 -0.08135254681 0.6196234822
outer loop
vertex -53.99394989 74.5104599 239.4254456
vertex -53.80057526 74.20467377 239.1416626
vertex -53.8030014 74.56816864 239.1924438

endloop
endfacet
facet normal 0.7816446424 -0.101752162 0.6153683066
outer loop
vertex -53.99394989 74.5104599 239.4254456
vertex -53.8030014 74.56816864 239.1924438
vertex -53.94290924 74.92229462 239.4287109

endloop
endfacet
facet normal 0.8494353294 -0.01630555093 0.5274407268
outer loop
vertex -53.94290924 74.92229462 239.4287109
vertex -53.8030014 74.56816864 239.1924438
vertex -53.78253937 74.95595551 239.1714783

endloop
endfacet
facet normal 0.8505589962 -0.07773213089 0.520103097
outer loop
vertex -53.94290924 74.92229462 239.4287109
vertex -53.78253937 74.95595551 239.1714783
vertex -53.90148163 75.34191132 239.4236755

endloop
endfacet
facet normal 0.89658463 -0.0129589159 0.4426827431
outer loop
vertex -53.90148163 75.34191132 239.4236755
vertex -53.78253937 74.95595551 239.1714783
vertex -53.76554108 75.35900116 239.1488495

endloop
endfacet
facet normal 0.8966317177 -0.03777095675 0.4411630929
outer loop
vertex -53.90148163 75.34191132 239.4236755
vertex -53.76554108 75.35900116 239.1488495
vertex -53.88408661 75.73595428 239.4220581

endloop
endfacet
facet normal 0.9158758521 -0.002936350415 0.4014509022
outer loop
vertex -53.88408661 75.73595428 239.4220581
vertex -53.76554108 75.35900116 239.1488495
vertex -53.75980377 75.72994232 239.1384735

endloop
endfacet
facet normal 0.9120858908 -0.08309943974 0.4014894366
outer loop
vertex -53.88408661 75.73595428 239.4220581
vertex -53.75980377 75.72994232 239.1384735
vertex -53.7912674 76.12145233 239.2909851

endloop
endfacet
facet normal 0.9791606069 -0.0004218520189 0.2030868381
outer loop
vertex -53.7912674 76.12145233 239.2909851
vertex -53.75980377 75.72994232 239.1384735
vertex -53.72907257 76.09926605 238.9910736

endloop
endfacet
facet normal 0.9654851556 -0.1520518661 0.2114678621
outer loop
vertex -53.7912674 76.12145233 239.2909851
vertex -53.72907257 76.09926605 238.9910736
vertex -53.70037079 76.48458099 239.137085

endloop
endfacet
facet normal 0.9963605404 -0.08243520558 0.02168455906
outer loop
vertex -53.70037079 76.48458099 239.137085
vertex -53.72907257 76.09926605 238.9910736
vertex -53.69683075 76.44667816 238.8303375

endloop
endfacet
facet normal 0.9840736985 -0.1746822745 0.03293950856
outer loop
vertex -53.70037079 76.48458099 239.1371002
vertex -53.69683075 76.44667816 238.8303375
vertex -53.63237762 76.84801483 239.0331268

endloop
endfacet
facet normal 0.9894270897 -0.1402637213 -0.03687912971
outer loop
vertex -53.63237762 76.84801483 239.0331268
vertex -53.69683075 76.44667816 238.8303375
vertex -53.65129852 76.79470062 238.7282715

endloop
endfacet
facet normal 0.9791991115 -0.2012836188 -0.02557294443
outer loop
vertex -53.63237762 76.84801483 239.0331268
vertex -53.65129852 76.79470062 238.7282715
vertex -53.55937958 77.21370697 238.9499054

endloop
endfacet
facet normal 0.9794309735 -0.1997456849 -0.02857664227
outer loop
vertex -53.55937958 77.21370697 238.9499054
vertex -53.65129852 76.79470062 238.7282715
vertex -53.5819931 77.14595795 238.648407

endloop
endfacet
facet normal 0.9690770507 -0.24614577 -0.01737360284
outer loop
vertex -53.55937958 77.21370697 238.9499054
vertex -53.5819931 77.14595795 238.648407
vertex -53.46961212 77.57381439 238.8550873

endloop
endfacet
facet normal 0.968001008 -0.2508470416 -0.007056198083
outer loop
vertex -53.46961212 77.57381439 238.8550873
vertex -53.5819931 77.14595795 238.648407
vertex -53.49308014 77.49163055 238.5572662

endloop
endfacet
facet normal 0.9583773017 -0.2854859829 0.003260749392
outer loop
vertex -53.46961212 77.57381439 238.8550873
vertex -53.49308014 77.49163055 238.5572662
vertex -53.35993195 77.94081879 238.7507019

endloop
endfacet
facet normal 0.9547213316 -0.2959719896 0.03012749366
outer loop
vertex -53.35993195 77.94081879 238.7507019
vertex -53.49308014 77.49163055 238.5572662
vertex -53.37993622 77.84630585 238.456131

endloop
endfacet
facet normal 0.9444217682 -0.3262275457 0.04053648934
outer loop
vertex -53.35991669 77.9408493 238.7507172
vertex -53.37992096 77.84633636 238.4561615
vertex -53.22716522 78.30998993 238.6286163

endloop
endfacet
facet normal 0.9403078556 -0.3340296149 0.06515680999
outer loop
vertex -53.22716522 78.30998993 238.6286163
vertex -53.37992096 77.84633636 238.4561615
vertex -53.24416351 78.2052536 238.3369904

endloop
endfacet
facet normal 0.9253546596 -0.3707348704 0.07921091467
outer loop
vertex -53.22716522 78.30998993 238.6286163
vertex -53.24416351 78.2052536 238.3369904
vertex -53.06270599 78.68947601 238.4835052

endloop
endfacet
facet normal 0.9224078655 -0.3743769526 0.09489723295
outer loop
vertex -53.06270599 78.68947601 238.4835052
vertex -53.24416351 78.2052536 238.3369904
vertex -53.07831573 78.57769012 238.1942291

endloop
endfacet
facet normal 0.8216275573 -0.5452111959 0.1663515568
outer loop
vertex -53.06270599 78.68947601 238.4835052
vertex -53.07831573 78.57769012 238.1942291
vertex -52.81671906 79.01576996 238.3379669

endloop
endfacet
facet normal 0.8066806197 -0.5514432192 0.2125481814
outer loop
vertex -52.81671906 79.01576996 238.3379669
vertex -53.07831573 78.57769012 238.1942291
vertex -52.82912445 78.88835907 238.0544891

endloop
endfacet
facet normal 0.7737379074 -0.5897988677 0.2312289476
outer loop
vertex -52.81671906 79.01576996 238.3379669
vertex -52.82912445 78.88835907 238.0544891
vertex -52.54640961 79.31301117 238.1916351

endloop
endfacet
facet normal 0.7549940944 -0.5930199027 0.279841274
outer loop
vertex -52.54640961 79.31301117 238.1916351
vertex -52.82912445 78.88835907 238.0544891
vertex -52.55458832 79.17159271 237.9140167

endloop
endfacet
facet normal 0.8759924769 -0.4397254586 0.1981886029
outer loop
vertex -52.54640961 79.31301117 238.1916351
vertex -52.55458832 79.17159271 237.9140167
vertex -52.35787201 79.61476898 238.0278168

endloop
endfacet
facet normal 0.8698872328 -0.4422255158 0.2184782624
outer loop
vertex -52.35787201 79.61476898 238.0278168
vertex -52.55458832 79.17159271 237.9140167
vertex -52.36055756 79.4826889 237.7711639

endloop
endfacet
facet normal 0.9707735777 -0.2173596025 0.1017525271
outer loop
vertex -52.35788727 79.61476898 238.0278168
vertex -52.36055756 79.4826889 237.7711487
vertex -52.27051544 79.91231537 237.8298492

endloop
endfacet
facet normal 0.9693214893 -0.2185270488 0.1125244349
outer loop
vertex -52.27051544 79.91231537 237.8298492
vertex -52.36055756 79.4826889 237.7711487
vertex -52.2687912 79.81374359 237.6235657

endloop
endfacet
facet normal 0.8984557986 0.39903301 -0.183166489
outer loop
vertex -52.27051544 79.91231537 237.8298492
vertex -52.2687912 79.81374359 237.6235657
vertex -52.51880646 80.31456757 237.488266

endloop
endfacet
facet normal -nan(ind) -nan(ind) -nan(ind)
outer loop
vertex -52.51880646 80.31456757 237.488266
vertex -52.2687912 79.81374359 237.6235657
vertex -52.51880646 80.31456757 237.488266

endloop
endfacet
facet normal 0.28525123 0.310719043 -0.9066892862
outer loop
vertex -54.39990997 73.42974091 238.6296539
vertex -54.39989471 73.42977142 238.6296692
vertex -53.84659576 73.58516693 238.8569946

endloop
endfacet
facet normal 0.3285083473 -0.9302065372 -0.1637010574
outer loop
vertex -53.84659576 73.58516693 238.8569946
vertex -54.39989471 73.42977142 238.6296692
vertex -53.81352997 73.64546967 238.5806885

endloop
endfacet
facet normal 0.9845360518 -0.1535624415 0.08430586755
outer loop
vertex -53.84659576 73.58516693 238.8569946
vertex -53.81352997 73.64546967 238.5806885
vertex -53.81519318 73.87258148 239.0137939

endloop
endfacet
facet normal 0.9560272098 -0.2582080066 0.1390704215
outer loop
vertex -53.81519318 73.87258148 239.0137939
vertex -53.81352997 73.64546967 238.5806885
vertex -53.74704742 73.96114349 238.7097626

endloop
endfacet
facet normal 0.9759802818 -0.1143154576 0.1854575276
outer loop
vertex -53.81519318 73.87258148 239.0137939
vertex -53.74704742 73.96114349 238.7097626
vertex -53.80059052 74.20467377 239.1416473

endloop
endfacet
facet normal 0.973788321 -0.1240305677 0.190663904
outer loop
vertex -53.80059052 74.20467377 239.1416473
vertex -53.74704742 73.96114349 238.7097626
vertex -53.72489166 74.30428314 238.8198242

endloop
endfacet
facet normal 0.9748057723 -0.02451856434 0.2217037678
outer loop
vertex -53.80059052 74.20467377 239.1416473
vertex -53.72489166 74.30428314 238.8198242
vertex -53.8030014 74.56813812 239.1924438

endloop
endfacet
facet normal 0.9832014441 0.0393628031 0.1782287657
outer loop
vertex -53.8030014 74.56813812 239.1924438
vertex -53.72489166 74.30428314 238.8198242
vertex -53.74643707 74.64311981 238.8638458

endloop
endfacet
facet normal 0.9861856699 -0.04339457303 0.1598583609
outer loop
vertex -53.8030014 74.56813812 239.1924438
vertex -53.74643707 74.64311981 238.8638458
vertex -53.78253937 74.95592499 239.1714783

endloop
endfacet
facet normal 0.9966310263 0.05907777324 0.05688877776
outer loop
vertex -53.78253937 74.95592499 239.1714783
vertex -53.74643707 74.64311981 238.8638458
vertex -53.76590729 74.99968719 238.8346558

endloop
endfacet
facet normal 0.998239398 -0.03961549327 0.04414531589
outer loop
vertex -53.78253937 74.95592499 239.1714783
vertex -53.76590729 74.99968719 238.8346558
vertex -53.76554108 75.35900116 239.148819

endloop
endfacet
facet normal 0.9983670115 0.03702149913 -0.04350590333
outer loop
vertex -53.76554108 75.35900116 239.148819
vertex -53.76590729 74.99968719 238.8346558
vertex -53.78162384 75.38356781 238.8006592

endloop
endfacet
facet normal 0.9987399578 -0.01672788337 -0.04731576145
outer loop
vertex -53.76554108 75.35900116 239.148819
vertex -53.78162384 75.38356781 238.8006592
vertex -53.75981903 75.72994232 239.1384583

endloop
endfacet
facet normal 0.9952949286 0.02785003558 -0.0928029716
outer loop
vertex -53.75981903 75.72994232 239.1384583
vertex -53.78162384 75.38356781 238.8006592
vertex -53.79431915 75.73171234 238.7689819

endloop
endfacet
facet normal 0.9884987473 -0.1193543896 -0.09286973625
outer loop
vertex -53.75981903 75.72994232 239.1384583
vertex -53.79431915 75.73171234 238.7689667
vertex -53.72907257 76.09926605 238.9910736

endloop
endfacet
facet normal 0.9559020996 0.007720467634 -0.2935839593
outer loop
vertex -53.72907257 76.09926605 238.9910736
vertex -53.79431915 75.73171234 238.7689667
vertex -53.83917999 76.08889008 238.6322937

endloop
endfacet
facet normal 0.9350208044 -0.2166830003 -0.280685842
outer loop
vertex -53.72907257 76.09926605 238.9910736
vertex -53.83917999 76.08889008 238.6322937
vertex -53.69683075 76.44664764 238.830307

endloop
endfacet
facet normal 0.8822393417 -0.09592145681 -0.4609259665
outer loop
vertex -53.69683075 76.44664764 238.830307
vertex -53.83917999 76.08889008 238.6322937
vertex -53.87348175 76.42809296 238.496048

endloop
endfacet
facet normal 0.8631948233 -0.2427260429 -0.4426948726
outer loop
vertex -53.69683075 76.44664764 238.8303223
vertex -53.87346649 76.42812347 238.4960632
vertex -53.65131378 76.7946701 238.7282562

endloop
endfacet
facet normal 0.8410346508 -0.1885142773 -0.507073164
outer loop
vertex -53.65131378 76.7946701 238.7282562
vertex -53.87346649 76.42812347 238.4960632
vertex -53.85108185 76.76854706 238.4066315

endloop
endfacet
facet normal 0.8266204596 -0.2747847736 -0.4911131561
outer loop
vertex -53.65131378 76.7946701 238.7282562
vertex -53.85108185 76.76854706 238.4066315
vertex -53.58200836 77.14589691 238.6483917

endloop
endfacet
facet normal 0.8257237077 -0.2722963989 -0.4939991236
outer loop
vertex -53.58200836 77.14589691 238.6483917
vertex -53.85108185 76.76854706 238.4066315
vertex -53.78400421 77.11269379 238.3290558

endloop
endfacet
facet normal 0.8116523027 -0.3349264562 -0.4785862565
outer loop
vertex -53.58200836 77.14589691 238.6483917
vertex -53.78400421 77.11269379 238.3290558
vertex -53.4930954 77.49160004 238.557251

endloop
endfacet
facet normal 0.8140169978 -0.3424022198 -0.4691877663
outer loop
vertex -53.4930954 77.49160004 238.557251
vertex -53.78400421 77.11269379 238.3290558
vertex -53.69397736 77.45131683 238.2381287

endloop
endfacet
facet normal 0.8019168973 -0.3859022856 -0.4560797811
outer loop
vertex -53.4930954 77.49160004 238.557251
vertex -53.69397736 77.45131683 238.2381287
vertex -53.37993622 77.84627533 238.4561157

endloop
endfacet
facet normal 0.8070688248 -0.4041179121 -0.4304981232
outer loop
vertex -53.37993622 77.84627533 238.4561157
vertex -53.69397736 77.45131683 238.2381287
vertex -53.57494354 77.79998016 238.1339874

endloop
endfacet
facet normal 0.7950384617 -0.4395507276 -0.4179822505
outer loop
vertex -53.37993622 77.84633636 238.4561462
vertex -53.57492828 77.79998016 238.1340027
vertex -53.24416351 78.2052536 238.3369598

endloop
endfacet
facet normal 0.7987546921 -0.4544443786 -0.3942984343
outer loop
vertex -53.24416351 78.2052536 238.3369598
vertex -53.57492828 77.79998016 238.1340027
vertex -53.43378448 78.15392303 238.0119934

endloop
endfacet
facet normal 0.7827807665 -0.4937491119 -0.3787690401
outer loop
vertex -53.24416351 78.2052536 238.3369598
vertex -53.43378448 78.15392303 238.0119934
vertex -53.07831573 78.57769012 238.1942139

endloop
endfacet
facet normal 0.784879148 -0.5024355054 -0.3626614213
outer loop
vertex -53.07831573 78.57769012 238.1942139
vertex -53.43378448 78.15392303 238.0119934
vertex -53.2639389 78.52385712 237.8670654

endloop
endfacet
facet normal 0.6846370101 -0.6739685535 -0.2775581479
outer loop
vertex -53.07831573 78.57769012 238.1942139
vertex -53.2639389 78.52385712 237.8670654
vertex -52.82913971 78.88835907 238.0544739

endloop
endfacet
facet normal 0.6822084785 -0.6911889911 -0.2384307832
outer loop
vertex -52.82913971 78.88835907 238.0544739
vertex -53.2639389 78.52385712 237.8670654
vertex -53.00138092 78.83397675 237.7192993

endloop
endfacet
facet normal 0.6464620829 -0.7325062156 -0.2133575529
outer loop
vertex -52.82913971 78.88835907 238.0544739
vertex -53.00138092 78.83397675 237.7192993
vertex -52.55460358 79.17156219 237.9140015

endloop
endfacet
facet normal 0.6407786012 -0.7477908134 -0.1738146991
outer loop
vertex -52.55460358 79.17156219 237.9140015
vertex -53.00138092 78.83397675 237.7192993
vertex -52.71289825 79.1155014 237.5716248

endloop
endfacet
facet normal 0.7631806135 -0.5934510231 -0.2556777298
outer loop
vertex -52.55460358 79.17156219 237.9140015
vertex -52.71289825 79.1155014 237.5716248
vertex -52.36055756 79.48265839 237.7711334

endloop
endfacet
facet normal 0.7618157864 -0.6043810844 -0.2331525981
outer loop
vertex -52.36055756 79.48265839 237.7711334
vertex -52.71289825 79.1155014 237.5716248
vertex -52.49936676 79.43102264 237.4514313

endloop
endfacet
facet normal 0.8688120246 -0.3815239668 -0.3156026602
outer loop
vertex -52.36055756 79.4826889 237.7711334
vertex -52.49936676 79.43105316 237.4514313
vertex -52.2687912 79.81374359 237.6235504

endloop
endfacet
facet normal 0.8695843816 -0.3847135007 -0.3095456362
outer loop
vertex -52.2687912 79.81374359 237.6235504
vertex -52.49936676 79.43105316 237.4514313
vertex -52.37386322 79.77935028 237.3711243

endloop
endfacet
facet normal 0.8583374023 0.3202008903 -0.400909394
outer loop
vertex -52.2687912 79.81374359 237.6235504
vertex -52.37386322 79.77935028 237.3711243
vertex -52.51880646 80.31453705 237.4882507

endloop
endfacet
facet normal -0.6805429459 -0.3281189203 0.655133009
outer loop
vertex -52.51880646 80.31453705 237.4882507
vertex -52.37386322 79.77935028 237.3711243
vertex -52.51880646 80.31456757 237.488266

endloop
endfacet
facet normal 0.08324076235 -0 0.9965294003
outer loop
vertex -54.39989471 73.42980194 238.6296692
vertex -54.39989471 73.42977142 238.6296692
vertex -53.81351471 73.64546967 238.5806885

endloop
endfacet
facet normal 0.2986023128 -0.8900025487 -0.3445753157
outer loop
vertex -53.81351471 73.64546967 238.5806885
vertex -54.39989471 73.42977142 238.6296692
vertex -54.07407379 73.73516083 238.12323

endloop
endfacet
facet normal 0.8703083396 0.0180164054 -0.4921776056
outer loop
vertex -53.81351471 73.64546967 238.5806885
vertex -54.07407379 73.73516083 238.12323
vertex -53.74704742 73.96117401 238.7097778

endloop
endfacet
facet normal 0.8848786354 -0.09918853641 -0.4551388919
outer loop
vertex -53.74704742 73.96117401 238.7097778
vertex -54.07407379 73.73516083 238.12323
vertex -54.01384735 74.10070038 238.1606598

endloop
endfacet
facet normal 0.904315412 0.07632704079 -0.4199855626
outer loop
vertex -53.74704742 73.96117401 238.7097778
vertex -54.01384735 74.10070038 238.1606598
vertex -53.72489166 74.30428314 238.8198395

endloop
endfacet
facet normal 0.9073645473 0.05947071314 -0.4161162376
outer loop
vertex -53.72489166 74.30428314 238.8198395
vertex -54.01384735 74.10070038 238.1606598
vertex -54.00385284 74.4613266 238.2339935

endloop
endfacet
facet normal 0.9085127711 0.1101198122 -0.4030858278
outer loop
vertex -53.72489166 74.30428314 238.8198395
vertex -54.00385284 74.4613266 238.2339935
vertex -53.74643707 74.64311981 238.8638458

endloop
endfacet
facet normal 0.8745099902 0.2338577956 -0.4249034524
outer loop
vertex -53.74643707 74.64311981 238.8638458
vertex -54.00385284 74.4613266 238.2339935
vertex -54.05625153 74.76137543 238.2912903

endloop
endfacet
facet normal 0.880256772 0.009229050018 -0.4744078815
outer loop
vertex -53.74643707 74.64311981 238.8638458
vertex -54.05625153 74.76137543 238.2912903
vertex -53.76590729 74.99968719 238.8346558

endloop
endfacet
facet normal 0.8124845028 0.2307756692 -0.5353611112
outer loop
vertex -53.76590729 74.99968719 238.8346558
vertex -54.05625153 74.76137543 238.2912903
vertex -54.13852692 75.06880951 238.2989502

endloop
endfacet
facet normal 0.8197813034 -0.01710813865 -0.5724210739
outer loop
vertex -53.76590729 74.99968719 238.8346558
vertex -54.13852692 75.06880951 238.2989502
vertex -53.78162384 75.38356781 238.8006744

endloop
endfacet
facet normal 0.7613501549 0.1442564726 -0.6320886016
outer loop
vertex -53.78162384 75.38356781 238.8006744
vertex -54.13852692 75.06880951 238.2989502
vertex -54.20496368 75.42726898 238.3007355

endloop
endfacet
facet normal 0.7614329457 -0.03117418848 -0.6474935412
outer loop
vertex -53.78162384 75.38356781 238.8006744
vertex -54.20496368 75.42726898 238.3007355
vertex -53.79431915 75.73174286 238.7689819

endloop
endfacet
facet normal 0.7302907109 0.06139144301 -0.6803723574
outer loop
vertex -53.79431915 75.73174286 238.7689819
vertex -54.20496368 75.42726898 238.3007355
vertex -54.24326324 75.75569916 238.2892609

endloop
endfacet
facet normal 0.7153256536 -0.1695825309 -0.6779018641
outer loop
vertex -53.79431915 75.73174286 238.7689819
vertex -54.24326324 75.75569916 238.2892609
vertex -53.83917999 76.08892059 238.6322937

endloop
endfacet
facet normal 0.5746408105 0.1342484355 -0.8073197603
outer loop
vertex -53.83917999 76.08892059 238.6322937
vertex -54.24326324 75.75569916 238.2892609
vertex -54.37349701 76.11476898 238.2562714

endloop
endfacet
facet normal 0.5465278625 -0.2639786601 -0.7947468162
outer loop
vertex -53.83917999 76.08892059 238.6322937
vertex -54.37349701 76.11476898 238.2562714
vertex -53.87346649 76.42812347 238.496048

endloop
endfacet
facet normal 0.4188064337 0.02625852264 -0.9076958299
outer loop
vertex -53.87346649 76.42812347 238.496048
vertex -54.37349701 76.11476898 238.2562714
vertex -54.47182465 76.46987152 238.2211761

endloop
endfacet
facet normal 0.3884266615 -0.2579059899 -0.8846520185
outer loop
vertex -53.87346649 76.42815399 238.4960632
vertex -54.47180939 76.46990204 238.2211761
vertex -53.85108185 76.76857758 238.4066467

endloop
endfacet
facet normal 0.3458676636 -0.1429555267 -0.927329123
outer loop
vertex -53.85108185 76.76857758 238.4066467
vertex -54.47180939 76.46990204 238.2211761
vertex -54.46526337 76.82732391 238.1685181

endloop
endfacet
facet normal 0.3259011209 -0.2678943574 -0.9066537619
outer loop
vertex -53.85108185 76.76857758 238.4066467
vertex -54.46526337 76.82732391 238.1685181
vertex -53.78400421 77.1127243 238.329071

endloop
endfacet
facet normal 0.3241481781 -0.2624647319 -0.908867538
outer loop
vertex -53.78400421 77.1127243 238.329071
vertex -54.46526337 76.82732391 238.1685181
vertex -54.39539337 77.1873703 238.0894623

endloop
endfacet
facet normal 0.3109467924 -0.3227282465 -0.8939567208
outer loop
vertex -53.78400421 77.1127243 238.329071
vertex -54.39539337 77.1873703 238.0894623
vertex -53.6939621 77.45134735 238.2381439

endloop
endfacet
facet normal 0.3148294985 -0.3367337584 -0.8874078989
outer loop
vertex -53.6939621 77.45134735 238.2381439
vertex -54.39539337 77.1873703 238.0894623
vertex -54.29915619 77.54186249 237.98909

endloop
endfacet
facet normal 0.3065276146 -0.367040962 -0.8782492876
outer loop
vertex -53.6939621 77.45134735 238.2381439
vertex -54.29915619 77.54186249 237.98909
vertex -53.57492828 77.79998016 238.1339874

endloop
endfacet
facet normal 0.3157944381 -0.4041585326 -0.8584461808
outer loop
vertex -53.57492828 77.79998016 238.1339874
vertex -54.29915619 77.54186249 237.98909
vertex -54.17008209 77.90413666 237.8660126

endloop
endfacet
facet normal 0.3110658228 -0.4181993902 -0.8534325957
outer loop
vertex -53.57492828 77.79998016 238.1340027
vertex -54.17006683 77.90413666 237.8660431
vertex -53.43378448 78.15392303 238.0120087

endloop
endfacet
facet normal 0.318075031 -0.4499200583 -0.8345059752
outer loop
vertex -53.43378448 78.15392303 238.0120087
vertex -54.17006683 77.90413666 237.8660431
vertex -54.01943207 78.26927948 237.726593

endloop
endfacet
facet normal 0.3112922311 -0.4671660066 -0.8275585175
outer loop
vertex -53.43378448 78.15392303 238.0120087
vertex -54.01943207 78.26927948 237.726593
vertex -53.2639389 78.52385712 237.8670654

endloop
endfacet
facet normal 0.3156363666 -0.4874972105 -0.8140762448
outer loop
vertex -53.2639389 78.52385712 237.8670654
vertex -54.01943207 78.26927948 237.726593
vertex -53.84008026 78.65035248 237.5679321

endloop
endfacet
facet normal 0.2666521072 -0.5891838074 -0.7627313137
outer loop
vertex -53.2639389 78.52385712 237.8670654
vertex -53.84008026 78.65035248 237.5679321
vertex -53.00138092 78.83397675 237.7192993

endloop
endfacet
facet normal 0.2691360712 -0.6257888079 -0.7320888638
outer loop
vertex -53.00138092 78.83397675 237.7192993
vertex -53.84008026 78.65035248 237.5679321
vertex -53.54161835 79.00136566 237.3776093

endloop
endfacet
facet normal 0.2574622035 -0.6424424648 -0.7217899561
outer loop
vertex -53.00138092 78.83397675 237.7192993
vertex -53.54161835 79.00136566 237.3776093
vertex -52.71289825 79.1155014 237.5716248

endloop
endfacet
facet normal 0.2549461722 -0.6762385368 -0.6911613941
outer loop
vertex -52.71289825 79.1155014 237.5716248
vertex -53.54161835 79.00136566 237.3776093
vertex -53.21797943 79.31539154 237.189743

endloop
endfacet
facet normal 0.3636628985 -0.5362682343 -0.7616861463
outer loop
vertex -52.71289825 79.1155014 237.5716248
vertex -53.21797943 79.31539154 237.189743
vertex -52.4993515 79.43105316 237.451416

endloop
endfacet
facet normal 0.3599657714 -0.575871408 -0.7340278029
outer loop
vertex -52.4993515 79.43105316 237.451416
vertex -53.21797943 79.31539154 237.189743
vertex -52.95166779 79.61623383 237.0843201

endloop
endfacet
facet normal 0.4943819344 -0.3605146706 -0.7909587026
outer loop
vertex -52.49936676 79.43105316 237.4514313
vertex -52.95166779 79.61623383 237.0843201
vertex -52.37386322 79.77935028 237.3711243

endloop
endfacet
facet normal 0.4953018427 -0.3868739307 -0.7778204083
outer loop
vertex -52.37386322 79.77935028 237.3711243
vertex -52.95166779 79.61623383 237.0843201
vertex -52.71724701 79.92003632 237.082489

endloop
endfacet
facet normal 0.6829797029 0.3278229535 -0.6527409554
outer loop
vertex -52.37386322 79.77935028 237.3711243
vertex -52.71724701 79.92003632 237.082489
vertex -52.51880646 80.31456757 237.488266

endloop
endfacet
facet normal -nan(ind) -nan(ind) -nan(ind)
outer loop
vertex -52.51880646 80.31456757 237.488266
vertex -52.71724701 79.92003632 237.082489
vertex -52.51880646 80.31456757 237.488266

endloop
endfacet
endsolid
