solid 
facet normal -nan(ind) -nan(ind) -nan(ind)
outer loop
vertex -94.53820038 -1.20174396 302.3334961
vertex -94.53820038 -1.20174396 302.3334961
vertex -94.0286026 -1.864449024 301.8918457

endloop
endfacet
facet normal -0.4703296721 0.2096230984 -0.8572328687
outer loop
vertex -94.0286026 -1.864449024 301.8918457
vertex -94.53820038 -1.20174396 302.3334961
vertex -93.79727173 -1.413429022 301.8752136

endloop
endfacet
facet normal 0.1524057984 -0.1143707931 -0.981678009
outer loop
vertex -94.0286026 -1.864449024 301.8918457
vertex -93.79727173 -1.413429022 301.8752136
vertex -93.29199219 -2.264350891 302.0527954

endloop
endfacet
facet normal 0.1599522531 -0.1097491905 -0.9810047746
outer loop
vertex -93.29199219 -2.264350891 302.0527954
vertex -93.79727173 -1.413429022 301.8752136
vertex -93.05382538 -1.807579041 302.0405273

endloop
endfacet
facet normal 0.1438475102 -0.1014428288 -0.9843868017
outer loop
vertex -93.29199219 -2.264350891 302.0527954
vertex -93.05382538 -1.807579041 302.0405273
vertex -92.57377625 -2.641608953 302.1966248

endloop
endfacet
facet normal 0.1390529722 -0.1042759717 -0.9847795367
outer loop
vertex -92.57377625 -2.641608953 302.1966248
vertex -93.05382538 -1.807579041 302.0405273
vertex -92.33425903 -2.190788031 302.1827087

endloop
endfacet
facet normal 0.1257817745 -0.09730211645 -0.9872746468
outer loop
vertex -92.57377625 -2.641608953 302.1966248
vertex -92.33425903 -2.190788031 302.1827087
vertex -91.72418213 -3.068351984 302.3469238

endloop
endfacet
facet normal 0.1193175092 -0.1018601358 -0.9876172543
outer loop
vertex -91.72418213 -3.068351984 302.3469238
vertex -92.33425903 -2.190788031 302.1827087
vertex -91.50251007 -2.608664989 302.3262939

endloop
endfacet
facet normal 0.1257138252 -0.10489472 -0.9865054488
outer loop
vertex -91.72418213 -3.068351984 302.3469238
vertex -91.50251007 -2.608664989 302.3262939
vertex -90.72887421 -3.44974494 302.5143127

endloop
endfacet
facet normal 0.1233178079 -0.1071129441 -0.986569643
outer loop
vertex -90.72887421 -3.44974494 302.5143127
vertex -91.50251007 -2.608664989 302.3262939
vertex -90.56373596 -2.969825983 302.4828491

endloop
endfacet
facet normal 0.1534498781 -0.1171286032 -0.9811900258
outer loop
vertex -90.72887421 -3.44974494 302.5143127
vertex -90.56373596 -2.969825983 302.4828491
vertex -89.63093567 -3.687613964 302.7144165

endloop
endfacet
facet normal 0.1570068151 -0.1124994457 -0.9811691046
outer loop
vertex -89.63093567 -3.687613964 302.7144165
vertex -90.56373596 -2.969825983 302.4828491
vertex -89.54372406 -3.188483953 302.6711426

endloop
endfacet
facet normal 0.2057038844 -0.1201448143 -0.971211195
outer loop
vertex -89.63093567 -3.687613964 302.7144165
vertex -89.54372406 -3.188483953 302.6711426
vertex -88.57434082 -3.766532898 302.9479675

endloop
endfacet
facet normal 0.2093736827 -0.1139713228 -0.9711710215
outer loop
vertex -88.57434082 -3.766532898 302.9479675
vertex -89.54372406 -3.188483953 302.6711426
vertex -88.54258728 -3.259880066 302.8953552

endloop
endfacet
facet normal 0.2445819229 -0.1154178903 -0.9627348185
outer loop
vertex -88.57434082 -3.766532898 302.947998
vertex -88.54258728 -3.259880066 302.8953247
vertex -87.62921143 -3.787940979 303.1906738

endloop
endfacet
facet normal 0.2460371256 -0.1128629074 -0.9626669884
outer loop
vertex -87.62921143 -3.787940979 303.1906738
vertex -88.54258728 -3.259880066 302.8953247
vertex -87.60498047 -3.280112982 303.1373291

endloop
endfacet
facet normal 0.2597208023 -0.1131341234 -0.9590337276
outer loop
vertex -87.62921143 -3.787940979 303.1906738
vertex -87.60498047 -3.280112982 303.1373291
vertex -86.73436737 -3.819267035 303.4367065

endloop
endfacet
facet normal 0.2598781288 -0.1128734872 -0.9590218663
outer loop
vertex -86.73436737 -3.819267035 303.4367065
vertex -87.60498047 -3.280112982 303.1373291
vertex -86.69855499 -3.311836004 303.3866882

endloop
endfacet
facet normal 0.2619402111 -0.1129548624 -0.9584510922
outer loop
vertex -86.73435211 -3.819252014 303.4367371
vertex -86.69855499 -3.311820984 303.3867188
vertex -85.82836151 -3.865226984 303.6897583

endloop
endfacet
facet normal 0.2619263232 -0.1129774451 -0.9584522843
outer loop
vertex -85.82836151 -3.865226984 303.6897583
vertex -86.69855499 -3.311820984 303.3867188
vertex -85.78878784 -3.357948065 303.6407776

endloop
endfacet
facet normal 0.2570136189 -0.1127253473 -0.9598109126
outer loop
vertex -85.82836151 -3.865226984 303.6897583
vertex -85.78878784 -3.357948065 303.6407776
vertex -84.89511108 -3.901145935 303.9438782

endloop
endfacet
facet normal 0.256975174 -0.1127900481 -0.9598135948
outer loop
vertex -84.89511108 -3.901145935 303.9438782
vertex -85.78878784 -3.357948065 303.6407776
vertex -84.86656189 -3.393578053 303.8918762

endloop
endfacet
facet normal 0.2467463315 -0.1124928966 -0.9625287652
outer loop
vertex -84.89511108 -3.901145935 303.9438782
vertex -84.86656189 -3.393578053 303.8918762
vertex -83.93582916 -3.900856018 304.1897583

endloop
endfacet
facet normal 0.2465825379 -0.1127971709 -0.9625350833
outer loop
vertex -83.93582916 -3.900856018 304.1897583
vertex -84.86656189 -3.393578053 303.8918762
vertex -83.93014526 -3.393378973 304.1317444

endloop
endfacet
facet normal 0.243369773 -0.1128538698 -0.9633457661
outer loop
vertex -83.93582916 -3.900856018 304.1897583
vertex -83.93014526 -3.393378973 304.1317444
vertex -82.95285797 -3.845055103 304.4315491

endloop
endfacet
facet normal 0.2431813031 -0.113261506 -0.9633455873
outer loop
vertex -82.95285797 -3.845055103 304.4315491
vertex -83.93014526 -3.393378973 304.1317444
vertex -82.97667694 -3.339164972 304.3660583

endloop
endfacet
facet normal 0.2591436207 -0.1119893864 -0.9593242407
outer loop
vertex -82.95284271 -3.845038891 304.4315796
vertex -82.97666168 -3.339148998 304.3660889
vertex -81.9654007 -3.725960016 304.6844177

endloop
endfacet
facet normal 0.2584557235 -0.1137683243 -0.9593004584
outer loop
vertex -81.9654007 -3.725960016 304.6844177
vertex -82.97666168 -3.339148998 304.3660889
vertex -82.01829529 -3.223396063 304.6105652

endloop
endfacet
facet normal 0.2844985425 -0.1100051105 -0.9523441792
outer loop
vertex -81.9654007 -3.725960016 304.6844177
vertex -82.01829529 -3.223396063 304.6105652
vertex -80.99961853 -3.554497004 304.953125

endloop
endfacet
facet normal 0.2833384275 -0.1135069653 -0.9522790909
outer loop
vertex -80.99961853 -3.554497004 304.953125
vertex -82.01829529 -3.223396063 304.6105652
vertex -81.07498169 -3.055946112 304.8712769

endloop
endfacet
facet normal 0.3149214983 -0.1072163209 -0.9430424571
outer loop
vertex -80.99961853 -3.554497004 304.953125
vertex -81.07498169 -3.055946112 304.8712769
vertex -80.05323029 -3.340842962 305.244873

endloop
endfacet
facet normal 0.3129348457 -0.1141424552 -0.9428909421
outer loop
vertex -80.05323029 -3.340842962 305.244873
vertex -81.07498169 -3.055946112 304.8712769
vertex -80.14625549 -2.847160101 305.1542358

endloop
endfacet
facet normal 0.3607948422 -0.1022116914 -0.9270274043
outer loop
vertex -80.05323029 -3.340842962 305.244873
vertex -80.14625549 -2.847160101 305.1542358
vertex -79.14068604 -3.090126038 305.5723877

endloop
endfacet
facet normal 0.3572954535 -0.1161927879 -0.9267357588
outer loop
vertex -79.14068604 -3.090126038 305.5723877
vertex -80.14625549 -2.847160101 305.1542358
vertex -79.24858093 -2.603096008 305.4697266

endloop
endfacet
facet normal 0.413975507 -0.09903022647 -0.9048852324
outer loop
vertex -79.14068604 -3.090126038 305.5723877
vertex -79.24858093 -2.603096008 305.4697266
vertex -78.31154633 -2.825035095 305.922699

endloop
endfacet
facet normal 0.4085354507 -0.1214655191 -0.9046241641
outer loop
vertex -78.31154633 -2.825035095 305.922699
vertex -79.24858093 -2.603096008 305.4697266
vertex -78.43286896 -2.340553045 305.8028564

endloop
endfacet
facet normal 0.4407267869 -0.1100100577 -0.8908746839
outer loop
vertex -78.31155396 -2.825035095 305.922699
vertex -78.43286896 -2.340553045 305.8028564
vertex -77.46219635 -2.523354053 306.3056335

endloop
endfacet
facet normal 0.4348343313 -0.1383823901 -0.8898142576
outer loop
vertex -77.46219635 -2.523354053 306.3056335
vertex -78.43286896 -2.340553045 305.8028564
vertex -77.58656311 -2.052299023 306.1716003

endloop
endfacet
facet normal 0.8928508162 0.1115810871 -0.4363107979
outer loop
vertex -77.46219635 -2.523354053 306.3056335
vertex -77.58656311 -2.052299023 306.1716003
vertex -77.19829559 -1.949241996 306.9924927

endloop
endfacet
facet normal -nan(ind) -nan(ind) -nan(ind)
outer loop
vertex -77.19829559 -1.949241996 306.9924927
vertex -77.58656311 -2.052299023 306.1716003
vertex -77.19829559 -1.949241996 306.9924927

endloop
endfacet
facet normal 0.01457421947 -0.8985569477 0.4386149347
outer loop
vertex -94.53820038 -1.20174396 302.3334961
vertex -94.53820801 -1.201758981 302.3334656
vertex -93.79727173 -1.413429022 301.8752136

endloop
endfacet
facet normal -0.2742116749 0.6241033077 -0.731644094
outer loop
vertex -93.79727173 -1.413429022 301.8752136
vertex -94.53820801 -1.201758981 302.3334656
vertex -93.70996857 -1.171898007 302.0485229

endloop
endfacet
facet normal 0.4073839784 0.430627197 -0.8053561449
outer loop
vertex -93.79727173 -1.413429022 301.8752136
vertex -93.70996857 -1.171898007 302.0485229
vertex -93.05382538 -1.807579041 302.0405273

endloop
endfacet
facet normal 0.4318365157 0.4555286467 -0.7784669995
outer loop
vertex -93.05382538 -1.807579041 302.0405273
vertex -93.70996857 -1.171898007 302.0485229
vertex -92.96946716 -1.573539972 302.2242737

endloop
endfacet
facet normal 0.4051502347 0.4697554111 -0.7843360305
outer loop
vertex -93.05382538 -1.807579041 302.0405273
vertex -92.96946716 -1.573539972 302.2242737
vertex -92.33425903 -2.190788031 302.1827087

endloop
endfacet
facet normal 0.4027296007 0.4674411118 -0.7869610786
outer loop
vertex -92.33425903 -2.190788031 302.1827087
vertex -92.96946716 -1.573539972 302.2242737
vertex -92.24703217 -1.959983945 302.3644409

endloop
endfacet
facet normal 0.3779602349 0.4803465009 -0.7914626598
outer loop
vertex -92.33425903 -2.190788031 302.1827087
vertex -92.24703217 -1.959983945 302.3644409
vertex -91.50251007 -2.608664989 302.3262939

endloop
endfacet
facet normal 0.374600023 0.4767123759 -0.7952485085
outer loop
vertex -91.50251007 -2.608664989 302.3262939
vertex -92.24703217 -1.959983945 302.3644409
vertex -91.42147827 -2.373298883 302.5055542

endloop
endfacet
facet normal 0.325945884 0.4992325604 -0.8028238416
outer loop
vertex -91.50251007 -2.608664989 302.3262939
vertex -91.42147827 -2.373298883 302.5055542
vertex -90.56373596 -2.969825983 302.4828491

endloop
endfacet
facet normal 0.3253122866 0.4983521104 -0.8036274314
outer loop
vertex -90.56373596 -2.969825983 302.4828491
vertex -91.42147827 -2.373298883 302.5055542
vertex -90.51113129 -2.724051952 302.6565552

endloop
endfacet
facet normal 0.2614956498 0.5191350579 -0.8137068152
outer loop
vertex -90.56373596 -2.969825983 302.4828491
vertex -90.51113129 -2.724051952 302.6565552
vertex -89.54372406 -3.188483953 302.6711426

endloop
endfacet
facet normal 0.2624443173 0.521161437 -0.8121045828
outer loop
vertex -89.54372406 -3.188483953 302.6711426
vertex -90.51113129 -2.724051952 302.6565552
vertex -89.53594208 -2.932898998 302.837677

endloop
endfacet
facet normal 0.2213040888 0.5276443958 -0.8201316595
outer loop
vertex -89.54372406 -3.188483953 302.6711426
vertex -89.53594208 -2.932898998 302.837677
vertex -88.54258728 -3.259880066 302.8953552

endloop
endfacet
facet normal 0.2218057066 0.5293908715 -0.81886971
outer loop
vertex -88.54258728 -3.259880066 302.8953552
vertex -89.53594208 -2.932898998 302.837677
vertex -88.570961 -3.000495911 303.0553589

endloop
endfacet
facet normal 0.2227037102 0.5294913054 -0.8185609579
outer loop
vertex -88.54258728 -3.259880066 302.8953247
vertex -88.570961 -3.000495911 303.0553894
vertex -87.60498047 -3.280112982 303.1373291

endloop
endfacet
facet normal 0.2229181528 0.5304268599 -0.8178966045
outer loop
vertex -87.60498047 -3.280112982 303.1373291
vertex -88.570961 -3.000495911 303.0553894
vertex -87.64224243 -3.020133972 303.2957764

endloop
endfacet
facet normal 0.2421221733 0.5300075412 -0.8126924038
outer loop
vertex -87.60498047 -3.280112982 303.1373291
vertex -87.64224243 -3.020133972 303.2957764
vertex -86.69855499 -3.311836004 303.3866882

endloop
endfacet
facet normal 0.2421876788 0.5302810669 -0.8124943972
outer loop
vertex -86.69855499 -3.311836004 303.3866882
vertex -87.64224243 -3.020133972 303.2957764
vertex -86.73180389 -3.052054882 303.5463257

endloop
endfacet
facet normal 0.2529291809 0.5297976136 -0.8095315695
outer loop
vertex -86.69855499 -3.311820984 303.3867188
vertex -86.73179626 -3.05202508 303.5463562
vertex -85.78878784 -3.357948065 303.6407776

endloop
endfacet
facet normal 0.2529140413 0.5297372341 -0.8095757365
outer loop
vertex -85.78878784 -3.357948065 303.6407776
vertex -86.73179626 -3.05202508 303.5463562
vertex -85.82012177 -3.098227978 303.8009338

endloop
endfacet
facet normal 0.2417456657 0.5302736759 -0.8126307726
outer loop
vertex -85.78878784 -3.357948065 303.6407776
vertex -85.82012177 -3.098227978 303.8009338
vertex -84.86656189 -3.393578053 303.8918762

endloop
endfacet
facet normal 0.2417103648 0.5301270485 -0.8127369881
outer loop
vertex -84.86656189 -3.393578053 303.8918762
vertex -85.82012177 -3.098227978 303.8009338
vertex -84.90163422 -3.133735895 304.0509338

endloop
endfacet
facet normal 0.210179314 0.5309019089 -0.8209554553
outer loop
vertex -84.86656189 -3.393578053 303.8918762
vertex -84.90163422 -3.133735895 304.0509338
vertex -83.93014526 -3.393378973 304.1317444

endloop
endfacet
facet normal 0.2101779282 0.5308952928 -0.8209600449
outer loop
vertex -83.93014526 -3.393378973 304.1317444
vertex -84.90163422 -3.133735895 304.0509338
vertex -83.97402954 -3.133583069 304.2885132

endloop
endfacet
facet normal 0.173803553 0.5301466584 -0.8299017549
outer loop
vertex -83.93014526 -3.393378973 304.1317444
vertex -83.97402954 -3.133583069 304.2885132
vertex -82.97667694 -3.339164972 304.3660583

endloop
endfacet
facet normal 0.173759073 0.5298578739 -0.8300954103
outer loop
vertex -82.97667694 -3.339164972 304.3660583
vertex -83.97402954 -3.133583069 304.2885132
vertex -83.03485107 -3.080177069 304.5191956

endloop
endfacet
facet normal 0.1495115608 0.5278996229 -0.8360432386
outer loop
vertex -82.97666168 -3.339148998 304.3660889
vertex -83.03483582 -3.080147028 304.5192261
vertex -82.01829529 -3.223396063 304.6105652

endloop
endfacet
facet normal 0.1493541449 0.5260029435 -0.8372659683
outer loop
vertex -82.01829529 -3.223396063 304.6105652
vertex -83.03483582 -3.080147028 304.5192261
vertex -82.09401703 -2.966057062 304.758728

endloop
endfacet
facet normal 0.1390394419 0.5245227218 -0.8399667144
outer loop
vertex -82.01829529 -3.223396063 304.6105652
vertex -82.09401703 -2.966057062 304.758728
vertex -81.07498169 -3.055946112 304.8712769

endloop
endfacet
facet normal 0.1389769465 0.5212652683 -0.8420022726
outer loop
vertex -81.07498169 -3.055946112 304.8712769
vertex -82.09401703 -2.966057062 304.758728
vertex -81.16631317 -2.800697088 305.0142212

endloop
endfacet
facet normal 0.1393077523 0.5213303566 -0.841907382
outer loop
vertex -81.07498169 -3.055946112 304.8712769
vertex -81.16631317 -2.800697088 305.0142212
vertex -80.14625549 -2.847160101 305.1542358

endloop
endfacet
facet normal 0.1395398974 0.5152052045 -0.8456312418
outer loop
vertex -80.14625549 -2.847160101 305.1542358
vertex -81.16631317 -2.800697088 305.0142212
vertex -80.25231171 -2.594383001 305.290741

endloop
endfacet
facet normal 0.1544359326 0.5188469291 -0.8408016562
outer loop
vertex -80.14625549 -2.847160101 305.1542358
vertex -80.25231171 -2.594383001 305.290741
vertex -79.24858093 -2.603096008 305.4697266

endloop
endfacet
facet normal 0.1555819213 0.5069701076 -0.8478063941
outer loop
vertex -79.24858093 -2.603096008 305.4697266
vertex -80.25231171 -2.594383001 305.290741
vertex -79.37113953 -2.353691101 305.5963745

endloop
endfacet
facet normal 0.1775531918 0.5135447979 -0.8394919038
outer loop
vertex -79.24858093 -2.603096008 305.4697266
vertex -79.37113953 -2.353691101 305.5963745
vertex -78.43286896 -2.340553045 305.8028564

endloop
endfacet
facet normal 0.1802400053 0.4941822588 -0.8504689336
outer loop
vertex -78.43286896 -2.340553045 305.8028564
vertex -79.37113953 -2.353691101 305.5963745
vertex -78.57493591 -2.09226203 305.9170227

endloop
endfacet
facet normal 0.1968977153 0.500425458 -0.8430928588
outer loop
vertex -78.43286896 -2.340553045 305.8028564
vertex -78.57493591 -2.09226203 305.9170532
vertex -77.58656311 -2.052299023 306.1716003

endloop
endfacet
facet normal 0.2066170126 0.4438595176 -0.8719508648
outer loop
vertex -77.58656311 -2.052299023 306.1716003
vertex -78.57493591 -2.09226203 305.9170532
vertex -77.73827362 -1.800026059 306.2640686

endloop
endfacet
facet normal 0.7088671923 0.5756796002 -0.407553941
outer loop
vertex -77.58656311 -2.052299023 306.1716003
vertex -77.73827362 -1.800026059 306.2640686
vertex -77.19829559 -1.949241996 306.9924927

endloop
endfacet
facet normal -0.711990416 0.3608452976 0.6023788452
outer loop
vertex -77.19829559 -1.949241996 306.9924927
vertex -77.73827362 -1.800026059 306.2640686
vertex -77.19830322 -1.949257016 306.9924927

endloop
endfacet
facet normal -0.2390577346 0.750411272 -0.6162259579
outer loop
vertex -94.53820801 -1.201758981 302.3334656
vertex -94.53819275 -1.201729059 302.3334961
vertex -93.70996857 -1.171898007 302.0485229

endloop
endfacet
facet normal -0.1813239306 0.8821613789 -0.4346411526
outer loop
vertex -93.70996857 -1.171898007 302.0485229
vertex -94.53819275 -1.201729059 302.3334961
vertex -93.69562531 -1.037940979 302.3144226

endloop
endfacet
facet normal 0.5081661344 0.7578396797 -0.4092021286
outer loop
vertex -93.70996857 -1.171898007 302.0485229
vertex -93.69562531 -1.037940979 302.3144226
vertex -92.96946716 -1.573539972 302.2242737

endloop
endfacet
facet normal 0.5234681368 0.7708203793 -0.3630660772
outer loop
vertex -92.96946716 -1.573539972 302.2242737
vertex -93.69562531 -1.037940979 302.3144226
vertex -92.96043396 -1.451500058 302.4963989

endloop
endfacet
facet normal 0.4930178821 0.7876156569 -0.3695874512
outer loop
vertex -92.96946716 -1.573539972 302.2242737
vertex -92.96043396 -1.451500058 302.4963989
vertex -92.24703217 -1.959983945 302.3644409

endloop
endfacet
facet normal 0.4916191101 0.7866597772 -0.3734663129
outer loop
vertex -92.24703217 -1.959983945 302.3644409
vertex -92.96043396 -1.451500058 302.4963989
vertex -92.23439789 -1.839774966 302.6342773

endloop
endfacet
facet normal 0.4653047621 0.8002444506 -0.3782860339
outer loop
vertex -92.24703217 -1.959983945 302.3644409
vertex -92.23439789 -1.839774966 302.6342773
vertex -91.42147827 -2.373298883 302.5055542

endloop
endfacet
facet normal 0.4632683098 0.798581183 -0.3842532039
outer loop
vertex -91.42147827 -2.373298883 302.5055542
vertex -92.23439789 -1.839774966 302.6342773
vertex -91.40936279 -2.250725031 302.7749023

endloop
endfacet
facet normal 0.3865938187 0.8327383399 -0.3963484168
outer loop
vertex -91.42147827 -2.373298883 302.5055542
vertex -91.40936279 -2.250725031 302.7749023
vertex -90.51113129 -2.724051952 302.6565552

endloop
endfacet
facet normal 0.3865428567 0.8326830268 -0.3965143263
outer loop
vertex -90.51113129 -2.724051952 302.6565552
vertex -91.40936279 -2.250725031 302.7749023
vertex -90.51339722 -2.596061945 302.9231262

endloop
endfacet
facet normal 0.2636251748 0.8704585433 -0.4156964719
outer loop
vertex -90.51113129 -2.724051952 302.6565552
vertex -90.51339722 -2.596061945 302.9231262
vertex -89.53594208 -2.932898998 302.837677

endloop
endfacet
facet normal 0.2643043101 0.8716722131 -0.4127114415
outer loop
vertex -89.53594208 -2.932898998 302.837677
vertex -90.51339722 -2.596061945 302.9231262
vertex -89.56609344 -2.799797058 303.0994873

endloop
endfacet
facet normal 0.1597594321 0.8872771859 -0.4326847792
outer loop
vertex -89.53594208 -2.932898998 302.837677
vertex -89.56609344 -2.799797058 303.0994873
vertex -88.570961 -3.000495911 303.0553589

endloop
endfacet
facet normal 0.1598670185 0.8876386285 -0.4319029748
outer loop
vertex -88.570961 -3.000495911 303.0553589
vertex -89.56609344 -2.799797058 303.0994873
vertex -88.6271286 -2.865395069 303.3122253

endloop
endfacet
facet normal 0.1323283613 0.8888736367 -0.438626349
outer loop
vertex -88.570961 -3.000495911 303.0553894
vertex -88.6271286 -2.865395069 303.3122253
vertex -87.64224243 -3.020133972 303.2957764

endloop
endfacet
facet normal 0.1323648393 0.8890637159 -0.4382298589
outer loop
vertex -87.64224243 -3.020133972 303.2957764
vertex -88.6271286 -2.865395069 303.3122253
vertex -87.70767212 -2.884742975 303.5506897

endloop
endfacet
facet normal 0.1504098773 0.8885879517 -0.4333454669
outer loop
vertex -87.64224243 -3.020133972 303.2957764
vertex -87.70767212 -2.884742975 303.5506897
vertex -86.73180389 -3.052054882 303.5463257

endloop
endfacet
facet normal 0.150434196 0.8887224197 -0.4330614209
outer loop
vertex -86.73180389 -3.052054882 303.5463257
vertex -87.70767212 -2.884742975 303.5506897
vertex -86.79692841 -2.916785955 303.8013

endloop
endfacet
facet normal 0.1648111194 0.8881305456 -0.4290238917
outer loop
vertex -86.73179626 -3.05202508 303.5463562
vertex -86.79692078 -2.916770935 303.8013306
vertex -85.82012177 -3.098227978 303.8009338

endloop
endfacet
facet normal 0.1648004502 0.8880733848 -0.4291462302
outer loop
vertex -85.82012177 -3.098227978 303.8009338
vertex -86.79692078 -2.916770935 303.8013306
vertex -85.8842926 -2.962975025 304.0561829

endloop
endfacet
facet normal 0.1521123648 0.8886429071 -0.4326378703
outer loop
vertex -85.82012177 -3.098227978 303.8009338
vertex -85.8842926 -2.962975025 304.0561829
vertex -84.90163422 -3.133735895 304.0509338

endloop
endfacet
facet normal 0.1520857364 0.8884990215 -0.4329427183
outer loop
vertex -84.90163422 -3.133735895 304.0509338
vertex -85.8842926 -2.962975025 304.0561829
vertex -84.96598053 -2.998389959 304.3060913

endloop
endfacet
facet normal 0.1133459881 0.8892678022 -0.4431200624
outer loop
vertex -84.90163422 -3.133735895 304.0509338
vertex -84.96598053 -2.998389959 304.3060913
vertex -83.97402954 -3.133583069 304.2885132

endloop
endfacet
facet normal 0.1133490428 0.8892855048 -0.4430837631
outer loop
vertex -83.97402954 -3.133583069 304.2885132
vertex -84.96598053 -2.998389959 304.3060913
vertex -84.04026031 -2.998253107 304.5431824

endloop
endfacet
facet normal 0.06147567555 0.8879292011 -0.4558535814
outer loop
vertex -83.97402954 -3.133583069 304.2885132
vertex -84.04026031 -2.998253107 304.5431824
vertex -83.03485107 -3.080177069 304.5191956

endloop
endfacet
facet normal 0.06147793308 0.8879468441 -0.4558189213
outer loop
vertex -83.03485107 -3.080177069 304.5191956
vertex -84.04026031 -2.998253107 304.5431824
vertex -83.1077652 -2.945274115 304.7721558

endloop
endfacet
facet normal 0.01191960834 0.8837493062 -0.4678088129
outer loop
vertex -83.03483582 -3.080147028 304.5192261
vertex -83.10774994 -2.945244074 304.7722168
vertex -82.09401703 -2.966057062 304.758728

endloop
endfacet
facet normal 0.01187661383 0.8828069568 -0.4695858657
outer loop
vertex -82.09401703 -2.966057062 304.758728
vertex -83.10774994 -2.945244074 304.7722168
vertex -82.17855835 -2.832084894 305.0084534

endloop
endfacet
facet normal -0.0244788602 0.8774598241 -0.4790249765
outer loop
vertex -82.09401703 -2.966057062 304.758728
vertex -82.17855835 -2.832084894 305.0084534
vertex -81.16631317 -2.800697088 305.0142212

endloop
endfacet
facet normal -0.02439440787 0.8754202724 -0.4827466607
outer loop
vertex -81.16631317 -2.800697088 305.0142212
vertex -82.17855835 -2.832084894 305.0084534
vertex -81.26274872 -2.667778015 305.2601318

endloop
endfacet
facet normal -0.04840861633 0.8706196547 -0.4895691872
outer loop
vertex -81.16631317 -2.800697088 305.0142212
vertex -81.26274872 -2.667778015 305.2601318
vertex -80.25231171 -2.594383001 305.290741

endloop
endfacet
facet normal -0.04795970395 0.867069006 -0.4958743155
outer loop
vertex -80.25231171 -2.594383001 305.290741
vertex -81.26274872 -2.667778015 305.2601318
vertex -80.36167145 -2.462745905 305.5314941

endloop
endfacet
facet normal -0.0622920692 0.8635237813 -0.5004462004
outer loop
vertex -80.25231171 -2.594383001 305.290741
vertex -80.36167145 -2.462745905 305.5314941
vertex -79.37113953 -2.353691101 305.5963745

endloop
endfacet
facet normal -0.06079379842 0.8568100333 -0.5120356679
outer loop
vertex -79.37113953 -2.353691101 305.5963745
vertex -80.36167145 -2.462745905 305.5314941
vertex -79.49737549 -2.223824024 305.8286743

endloop
endfacet
facet normal -0.07225484401 0.8533399105 -0.5163238049
outer loop
vertex -79.37113953 -2.353691101 305.5963745
vertex -79.49737549 -2.223824024 305.8286743
vertex -78.57493591 -2.09226203 305.9170227

endloop
endfacet
facet normal -0.06877633929 0.8417777419 -0.5354250669
outer loop
vertex -78.57493591 -2.09226203 305.9170227
vertex -79.49737549 -2.223824024 305.8286743
vertex -78.72310638 -1.96282196 306.1395569

endloop
endfacet
facet normal -0.07120605558 0.8409035802 -0.5364801288
outer loop
vertex -78.57493591 -2.09226203 305.9170532
vertex -78.72311401 -1.962836981 306.1395874
vertex -77.73827362 -1.800026059 306.2640686

endloop
endfacet
facet normal -0.05740867555 0.8019255996 -0.59465909
outer loop
vertex -77.73827362 -1.800026059 306.2640686
vertex -78.72311401 -1.962836981 306.1395874
vertex -77.90177917 -1.660133004 306.4685059

endloop
endfacet
facet normal 0.4906971157 0.850471437 -0.1895121932
outer loop
vertex -77.73827362 -1.800026059 306.2640686
vertex -77.90177917 -1.660133004 306.4685059
vertex -77.19830322 -1.949257016 306.9924927

endloop
endfacet
facet normal 0.5066317916 -0.2590730786 -0.8223171234
outer loop
vertex -77.19830322 -1.949257016 306.9924927
vertex -77.90177917 -1.660133004 306.4685059
vertex -77.19829559 -1.949241996 306.9924927

endloop
endfacet
facet normal 0 -0.1156705618 -0.9932876825
outer loop
vertex -94.53819275 -1.201729059 302.3334961
vertex -94.53820038 -1.201729059 302.3334961
vertex -93.69562531 -1.037940979 302.3144226

endloop
endfacet
facet normal -0.1917469501 0.9798094034 -0.05662873387
outer loop
vertex -93.69562531 -1.037940979 302.3144226
vertex -94.53820038 -1.201729059 302.3334961
vertex -93.75656128 -1.031363964 302.634552

endloop
endfacet
facet normal 0.4753009975 0.8768345118 0.07245812565
outer loop
vertex -93.69562531 -1.037940979 302.3144226
vertex -93.75656128 -1.031363964 302.634552
vertex -92.96043396 -1.451500058 302.4963989

endloop
endfacet
facet normal 0.479819566 0.8686460853 0.1233986095
outer loop
vertex -92.96043396 -1.451500058 302.4963989
vertex -93.75656128 -1.031363964 302.634552
vertex -93.02722168 -1.459525943 302.8125916

endloop
endfacet
facet normal 0.4508376718 0.8848136663 0.1176872179
outer loop
vertex -92.96043396 -1.451500058 302.4963989
vertex -93.02722168 -1.459525943 302.8125916
vertex -92.23439789 -1.839774966 302.6342773

endloop
endfacet
facet normal 0.4502823949 0.8856518269 0.1134309098
outer loop
vertex -92.23439789 -1.839774966 302.6342773
vertex -93.02722168 -1.459525943 302.8125916
vertex -92.29743958 -1.84792304 302.9481506

endloop
endfacet
facet normal 0.4281942844 0.8970537186 0.1092904285
outer loop
vertex -92.23439789 -1.839774966 302.6342773
vertex -92.29743958 -1.84792304 302.9481506
vertex -91.40936279 -2.250725031 302.7749023

endloop
endfacet
facet normal 0.4273538589 0.8983035088 0.1020767242
outer loop
vertex -91.40936279 -2.250725031 302.7749023
vertex -92.29743958 -1.84792304 302.9481506
vertex -91.46724701 -2.259041071 303.0904236

endloop
endfacet
facet normal 0.3455391228 0.9342676401 0.08801521361
outer loop
vertex -91.40936279 -2.250725031 302.7749023
vertex -91.46724701 -2.259041071 303.0904236
vertex -90.51339722 -2.596061945 302.9231262

endloop
endfacet
facet normal 0.3454222679 0.9343978167 0.08708683401
outer loop
vertex -90.51339722 -2.596061945 302.9231262
vertex -91.46724701 -2.259041071 303.0904236
vertex -90.56949615 -2.604758978 303.2389526

endloop
endfacet
facet normal 0.1987645626 0.9780689478 0.06223918125
outer loop
vertex -90.51339722 -2.596061945 302.9231262
vertex -90.56949615 -2.604758978 303.2389526
vertex -89.56609344 -2.799797058 303.0994873

endloop
endfacet
facet normal 0.1994621456 0.9775437713 0.06799256802
outer loop
vertex -89.56609344 -2.799797058 303.0994873
vertex -90.56949615 -2.604758978 303.2389526
vertex -89.62895203 -2.808830023 303.4137573

endloop
endfacet
facet normal 0.06044232845 0.9973393083 0.04075556248
outer loop
vertex -89.56609344 -2.799797058 303.0994873
vertex -89.62895203 -2.808830023 303.4137573
vertex -88.6271286 -2.865395069 303.3122253

endloop
endfacet
facet normal 0.06075431034 0.9971860051 0.04391936585
outer loop
vertex -88.6271286 -2.865395069 303.3122253
vertex -89.62895203 -2.808830023 303.4137573
vertex -88.70184326 -2.874564886 303.6237793

endloop
endfacet
facet normal 0.01262802724 0.9993953705 0.0323959738
outer loop
vertex -88.6271286 -2.865395069 303.3122253
vertex -88.70185089 -2.874550104 303.6237793
vertex -87.70767212 -2.884742975 303.5506897

endloop
endfacet
facet normal 0.01267250441 0.9993749261 0.03300380334
outer loop
vertex -87.70767212 -2.884742975 303.5506897
vertex -88.70185089 -2.874550104 303.6237793
vertex -87.79058075 -2.893913031 303.860199

endloop
endfacet
facet normal 0.02515036799 0.9990230799 0.0363358371
outer loop
vertex -87.70767212 -2.884742975 303.5506897
vertex -87.79058075 -2.893913031 303.860199
vertex -86.79692841 -2.916785955 303.8013

endloop
endfacet
facet normal 0.02517594583 0.9990064502 0.0367738381
outer loop
vertex -86.79692841 -2.916785955 303.8013
vertex -87.79058075 -2.893913031 303.860199
vertex -86.88321686 -2.925971985 304.1099243

endloop
endfacet
facet normal 0.03918723017 0.9984034896 0.04067829624
outer loop
vertex -86.79692078 -2.916770935 303.8013306
vertex -86.88321686 -2.925956964 304.1099243
vertex -85.8842926 -2.962975025 304.0561829

endloop
endfacet
facet normal 0.03918778151 0.9984030724 0.04068892077
outer loop
vertex -85.8842926 -2.962975025 304.0561829
vertex -86.88321686 -2.925956964 304.1099243
vertex -85.9706955 -2.972160101 304.3647766

endloop
endfacet
facet normal 0.02827685326 0.9988908172 0.03764849156
outer loop
vertex -85.8842926 -2.962975025 304.0561829
vertex -85.9706955 -2.972160101 304.3647766
vertex -84.96598053 -2.998389959 304.3060913

endloop
endfacet
facet normal 0.02825886756 0.9989030957 0.03733505681
outer loop
vertex -84.96598053 -2.998389959 304.3060913
vertex -85.9706955 -2.972160101 304.3647766
vertex -85.04901123 -3.007606983 304.6155396

endloop
endfacet
facet normal -0.007273277268 0.999586463 0.0278214775
outer loop
vertex -84.96598053 -2.998389959 304.3060913
vertex -85.04901123 -3.007606983 304.6155396
vertex -84.04026031 -2.998253107 304.5431824

endloop
endfacet
facet normal -0.007273629308 0.9995865822 0.0278165713
outer loop
vertex -84.04026031 -2.998253107 304.5431824
vertex -85.04901123 -3.007606983 304.6155396
vertex -84.11808014 -3.007468939 304.8540039

endloop
endfacet
facet normal -0.06026643887 0.9980769157 0.01450409647
outer loop
vertex -84.04026031 -2.998253107 304.5431824
vertex -84.11808014 -3.007468939 304.8540039
vertex -83.1077652 -2.945274115 304.7721558

endloop
endfacet
facet normal -0.06025827304 0.9980760217 0.01460423693
outer loop
vertex -83.1077652 -2.945274115 304.7721558
vertex -84.11808014 -3.007468939 304.8540039
vertex -83.18370819 -2.954413891 305.0834351

endloop
endfacet
facet normal -0.1208069101 0.9926759601 -0.0003286042192
outer loop
vertex -83.10774994 -2.945244074 304.7722168
vertex -83.18370056 -2.954384089 305.0834961
vertex -82.17855835 -2.832084894 305.0084534

endloop
endfacet
facet normal -0.1209323481 0.9926586151 -0.002036976628
outer loop
vertex -82.17855835 -2.832084894 305.0084534
vertex -83.18370056 -2.954384089 305.0834961
vertex -82.25843048 -2.841178894 305.3186646

endloop
endfacet
facet normal -0.1724355817 0.9848983884 -0.01552533545
outer loop
vertex -82.17855835 -2.832084894 305.0084534
vertex -82.25843048 -2.841178894 305.3186646
vertex -81.26274872 -2.667778015 305.2601318

endloop
endfacet
facet normal -0.172651574 0.9847895503 -0.01952177659
outer loop
vertex -81.26274872 -2.667778015 305.2601318
vertex -82.25843048 -2.841178894 305.3186646
vertex -81.34897614 -2.676780939 305.568573

endloop
endfacet
facet normal -0.2128760815 0.9765870571 -0.03100627847
outer loop
vertex -81.26274872 -2.667778015 305.2601318
vertex -81.34897614 -2.676780939 305.568573
vertex -80.36167145 -2.462745905 305.5314941

endloop
endfacet
facet normal -0.2130732834 0.9763004184 -0.03791299462
outer loop
vertex -80.36167145 -2.462745905 305.5314941
vertex -81.34897614 -2.676780939 305.568573
vertex -80.45700073 -2.471687078 305.8370056

endloop
endfacet
facet normal -0.2501792014 0.9669197798 -0.04976575077
outer loop
vertex -80.36167145 -2.462745905 305.5314941
vertex -80.45700073 -2.471687078 305.8370056
vertex -79.49737549 -2.223824024 305.8286743

endloop
endfacet
facet normal -0.2500980794 0.9661524892 -0.0632481426
outer loop
vertex -79.49737549 -2.223824024 305.8286743
vertex -80.45700073 -2.471687078 305.8370056
vertex -79.60721588 -2.232642889 306.1282959

endloop
endfacet
facet normal -0.2900905609 0.9537928104 -0.07827303559
outer loop
vertex -79.49737549 -2.223824024 305.8286743
vertex -79.60721588 -2.232642889 306.1282959
vertex -78.72310638 -1.96282196 306.1395569

endloop
endfacet
facet normal -0.2892255485 0.9519099593 -0.1010744646
outer loop
vertex -78.72310638 -1.96282196 306.1395569
vertex -79.60721588 -2.232642889 306.1282959
vertex -78.85386658 -1.971320987 306.4336853

endloop
endfacet
facet normal -0.3052544594 0.9460773468 -0.1084318683
outer loop
vertex -78.72311401 -1.962836981 306.1395874
vertex -78.85386658 -1.971320987 306.4336548
vertex -77.90177917 -1.660133004 306.4685059

endloop
endfacet
facet normal -0.2995671928 0.9367838502 -0.180818975
outer loop
vertex -77.90177917 -1.660133004 306.4685059
vertex -78.85386658 -1.971320987 306.4336548
vertex -78.05349731 -1.653267026 306.7554321

endloop
endfacet
facet normal 0.2914803028 0.9475016594 0.1314530224
outer loop
vertex -77.90177917 -1.660133004 306.4685059
vertex -78.05349731 -1.653267026 306.7554321
vertex -77.19829559 -1.949241996 306.9924927

endloop
endfacet
facet normal 0.2672097683 0 -0.9636384249
outer loop
vertex -77.19829559 -1.949241996 306.9924927
vertex -78.05349731 -1.653267026 306.7554321
vertex -77.19829559 -1.949226022 306.9924927

endloop
endfacet
facet normal -0.3594215512 0 0.9331752658
outer loop
vertex -94.53820038 -1.201729059 302.3334961
vertex -94.53820038 -1.20174396 302.3334961
vertex -93.75656128 -1.031363964 302.634552

endloop
endfacet
facet normal -0.3159088194 0.8955423832 0.3133776784
outer loop
vertex -93.75656128 -1.031363964 302.634552
vertex -94.53820038 -1.20174396 302.3334961
vertex -93.873909 -1.162132025 302.8899536

endloop
endfacet
facet normal 0.3218186498 0.7745922804 0.5444625616
outer loop
vertex -93.75656128 -1.031363964 302.634552
vertex -93.873909 -1.162132025 302.8899536
vertex -93.02722168 -1.459525943 302.8125916

endloop
endfacet
facet normal 0.3170641065 0.7525418997 0.5771923661
outer loop
vertex -93.02722168 -1.459525943 302.8125916
vertex -93.873909 -1.162132025 302.8899536
vertex -93.14109802 -1.590538025 303.0459595

endloop
endfacet
facet normal 0.2991099656 0.7623276114 0.5739249587
outer loop
vertex -93.02722168 -1.459525943 302.8125916
vertex -93.14109802 -1.590538025 303.0459595
vertex -92.29743958 -1.84792304 302.9481506

endloop
endfacet
facet normal 0.2994556129 0.764765799 0.5704905987
outer loop
vertex -92.29743958 -1.84792304 302.9481506
vertex -93.14109802 -1.590538025 303.0459595
vertex -92.40878296 -1.977226019 303.1799316

endloop
endfacet
facet normal 0.2851164043 0.7722349763 0.5677692294
outer loop
vertex -92.29743958 -1.84792304 302.9481506
vertex -92.40878296 -1.977226019 303.1799316
vertex -91.46724701 -2.259041071 303.0904236

endloop
endfacet
facet normal 0.2858422399 0.7767394185 0.5612219572
outer loop
vertex -91.46724701 -2.259041071 303.0904236
vertex -92.40878296 -1.977226019 303.1799316
vertex -91.56996918 -2.390892029 303.3252258

endloop
endfacet
facet normal 0.2197287232 0.8064394593 0.5489760637
outer loop
vertex -91.46724701 -2.259041071 303.0904236
vertex -91.56996918 -2.390892029 303.3252258
vertex -90.56949615 -2.604758978 303.2389526

endloop
endfacet
facet normal 0.2198515832 0.8079050779 0.5467675924
outer loop
vertex -90.56949615 -2.604758978 303.2389526
vertex -91.56996918 -2.390892029 303.3252258
vertex -90.6554718 -2.742439032 303.4769592

endloop
endfacet
facet normal 0.08702039719 0.8483746052 0.52219522
outer loop
vertex -90.56949615 -2.604758978 303.2389526
vertex -90.6554718 -2.742439032 303.4769592
vertex -89.62895203 -2.808830023 303.4137573

endloop
endfacet
facet normal 0.08716066927 0.844265461 0.5287898183
outer loop
vertex -89.62895203 -2.808830023 303.4137573
vertex -90.6554718 -2.742439032 303.4769592
vertex -89.69851685 -2.952018976 303.6538391

endloop
endfacet
facet normal -0.05207186937 0.8642476797 0.5003643036
outer loop
vertex -89.62895203 -2.808830023 303.4137573
vertex -89.69851685 -2.952018976 303.6538391
vertex -88.70184326 -2.874564886 303.6237793

endloop
endfacet
facet normal -0.05162311345 0.8607903123 0.5063349605
outer loop
vertex -88.70184326 -2.874564886 303.6237793
vertex -89.69851685 -2.952018976 303.6538391
vertex -88.76483917 -3.01990509 303.8644409

endloop
endfacet
facet normal -0.1094698682 0.8633130193 0.4926530719
outer loop
vertex -88.70185089 -2.874550104 303.6237793
vertex -88.7648468 -3.01989007 303.8644714
vertex -87.79058075 -2.893913031 303.860199

endloop
endfacet
facet normal -0.1093440503 0.8623952866 0.4942854941
outer loop
vertex -87.79058075 -2.893913031 303.860199
vertex -88.7648468 -3.01989007 303.8644714
vertex -87.85743713 -3.039573908 304.0995483

endloop
endfacet
facet normal -0.1058257222 0.8623027205 0.4952118993
outer loop
vertex -87.79058075 -2.893913031 303.860199
vertex -87.85743713 -3.039573908 304.0995483
vertex -86.88321686 -2.925971985 304.1099243

endloop
endfacet
facet normal -0.1058154553 0.8621978164 0.4953967631
outer loop
vertex -86.88321686 -2.925971985 304.1099243
vertex -87.85743713 -3.039573908 304.0995483
vertex -86.95568085 -3.071495056 304.3477173

endloop
endfacet
facet normal -0.09550967067 0.86177665 0.4982156754
outer loop
vertex -86.88321686 -2.925956964 304.1099243
vertex -86.95568085 -3.071480036 304.3477478
vertex -85.9706955 -2.972160101 304.3647766

endloop
endfacet
facet normal -0.09550163895 0.8616631627 0.4984135032
outer loop
vertex -85.9706955 -2.972160101 304.3647766
vertex -86.95568085 -3.071480036 304.3477478
vertex -86.04427338 -3.117667913 304.6022339

endloop
endfacet
facet normal -0.1019598842 0.8619699478 0.4966003895
outer loop
vertex -85.9706955 -2.972160101 304.3647766
vertex -86.04427338 -3.117667913 304.6022339
vertex -85.04901123 -3.007606983 304.6155396

endloop
endfacet
facet normal -0.1019810885 0.862213254 0.4961735606
outer loop
vertex -85.04901123 -3.007606983 304.6155396
vertex -86.04427338 -3.117667913 304.6022339
vertex -85.11714935 -3.153175116 304.8544922

endloop
endfacet
facet normal -0.1255867779 0.8627570868 0.4897735417
outer loop
vertex -85.04901123 -3.007606983 304.6155396
vertex -85.11714935 -3.153175116 304.8544922
vertex -84.11808014 -3.007468939 304.8540039

endloop
endfacet
facet normal -0.1255987734 0.8628387451 0.4896265268
outer loop
vertex -84.11808014 -3.007468939 304.8540039
vertex -85.11714935 -3.153175116 304.8544922
vertex -84.17615509 -3.153007984 305.0955811

endloop
endfacet
facet normal -0.1665841937 0.8617859483 0.4791394472
outer loop
vertex -84.11808014 -3.007468939 304.8540039
vertex -84.17615509 -3.153007984 305.0955811
vertex -83.18370819 -2.954413891 305.0834351

endloop
endfacet
facet normal -0.1665668637 0.8617081642 0.4792853594
outer loop
vertex -83.18370819 -2.954413891 305.0834351
vertex -84.17615509 -3.153007984 305.0955811
vertex -83.23235321 -3.099540949 305.3274536

endloop
endfacet
facet normal -0.2230355293 0.8566755652 0.4651474059
outer loop
vertex -83.18370056 -2.954384089 305.0834961
vertex -83.23234558 -3.099509954 305.3274536
vertex -82.25843048 -2.841178894 305.3186646

endloop
endfacet
facet normal -0.2232333124 0.8573740125 0.463763535
outer loop
vertex -82.25843048 -2.841178894 305.3186646
vertex -83.23234558 -3.099509954 305.3274536
vertex -82.30195618 -2.985312939 305.5641785

endloop
endfacet
facet normal -0.2770243883 0.8492588401 0.4494630396
outer loop
vertex -82.25843048 -2.841178894 305.3186646
vertex -82.30195618 -2.985312939 305.5641785
vertex -81.34897614 -2.676780939 305.568573

endloop
endfacet
facet normal -0.2774927914 0.8507500887 0.4463430643
outer loop
vertex -81.34897614 -2.676780939 305.568573
vertex -82.30195618 -2.985312939 305.5641785
vertex -81.39098358 -2.819771051 305.8150024

endloop
endfacet
facet normal -0.3237322569 0.8412736058 0.432962209
outer loop
vertex -81.34897614 -2.676780939 305.568573
vertex -81.39098358 -2.819771051 305.8150024
vertex -80.45700073 -2.471687078 305.8370056

endloop
endfacet
facet normal -0.324624002 0.8440532088 0.4268412292
outer loop
vertex -80.45700073 -2.471687078 305.8370056
vertex -81.39098358 -2.819771051 305.8150024
vertex -80.50079346 -2.613289118 306.0837097

endloop
endfacet
facet normal -0.3746028543 0.8312906623 0.4106440544
outer loop
vertex -80.45700073 -2.471687078 305.8370056
vertex -80.50079346 -2.613289118 306.0837097
vertex -79.60721588 -2.232642889 306.1282959

endloop
endfacet
facet normal -0.3761893511 0.8364274502 0.3985857368
outer loop
vertex -79.60721588 -2.232642889 306.1282959
vertex -80.50079346 -2.613289118 306.0837097
vertex -79.65749359 -2.372353077 306.3740234

endloop
endfacet
facet normal -0.4359822571 0.8177643418 0.3757405877
outer loop
vertex -79.60721588 -2.232642889 306.1282959
vertex -79.65749359 -2.372353077 306.3740234
vertex -78.85386658 -1.971320987 306.4336853

endloop
endfacet
facet normal -0.4383907318 0.8256610036 0.3551021516
outer loop
vertex -78.85386658 -1.971320987 306.4336853
vertex -79.65749359 -2.372353077 306.3740234
vertex -78.91575623 -2.110297918 306.6804199

endloop
endfacet
facet normal -0.4629285932 0.8169277906 0.3439854681
outer loop
vertex -78.85386658 -1.971320987 306.4336548
vertex -78.91575623 -2.110297918 306.6804199
vertex -78.05349731 -1.653267026 306.7554321

endloop
endfacet
facet normal -0.4679717124 0.8357517719 0.2872656882
outer loop
vertex -78.05349731 -1.653267026 306.7554321
vertex -78.91575623 -2.110297918 306.6804199
vertex -78.13484192 -1.78983295 307.0202332

endloop
endfacet
facet normal 0.1602847874 0.8563529849 0.4908853471
outer loop
vertex -78.05349731 -1.653267026 306.7554321
vertex -78.13484192 -1.78983295 307.0202332
vertex -77.19829559 -1.949226022 306.9924927

endloop
endfacet
facet normal 0.0295873899 0 0.9995622039
outer loop
vertex -77.19829559 -1.949226022 306.9924927
vertex -78.13484192 -1.78983295 307.0202332
vertex -77.19829559 -1.949241996 306.9924927

endloop
endfacet
facet normal -nan(ind) -nan(ind) -nan(ind)
outer loop
vertex -94.53820038 -1.20174396 302.3334961
vertex -94.53820038 -1.20174396 302.3334961
vertex -93.873909 -1.162132025 302.8899536

endloop
endfacet
facet normal -0.5004993677 0.668671906 0.5498893261
outer loop
vertex -93.873909 -1.162132025 302.8899536
vertex -94.53820038 -1.20174396 302.3334961
vertex -94.00724792 -1.372535944 303.0244446

endloop
endfacet
facet normal 0.1016284376 0.4892682135 0.8661918044
outer loop
vertex -93.873909 -1.162132025 302.8899536
vertex -94.00724792 -1.372535944 303.0244446
vertex -93.14109802 -1.590538025 303.0459595

endloop
endfacet
facet normal 0.09837310761 0.4770416319 0.8733579516
outer loop
vertex -93.14109802 -1.590538025 303.0459595
vertex -94.00724792 -1.372535944 303.0244446
vertex -93.26325226 -1.781792045 303.1641846

endloop
endfacet
facet normal 0.09360507876 0.4795585573 0.8725031018
outer loop
vertex -93.14109802 -1.590538025 303.0459595
vertex -93.26325226 -1.781792045 303.1641846
vertex -92.40878296 -1.977226019 303.1799316

endloop
endfacet
facet normal 0.09459726512 0.4837033153 0.8701049089
outer loop
vertex -92.40878296 -1.977226019 303.1799316
vertex -93.26325226 -1.781792045 303.1641846
vertex -92.52986145 -2.165611029 303.297821

endloop
endfacet
facet normal 0.08935540915 0.4864577949 0.8691228032
outer loop
vertex -92.40878296 -1.977226019 303.1799316
vertex -92.52986145 -2.165611029 303.297821
vertex -91.56996918 -2.390892029 303.3252258

endloop
endfacet
facet normal 0.09099946916 0.4929930568 0.8652611971
outer loop
vertex -91.56996918 -2.390892029 303.3252258
vertex -92.52986145 -2.165611029 303.297821
vertex -91.68186951 -2.582984924 303.4464417

endloop
endfacet
facet normal 0.05375725031 0.5103032589 0.858312726
outer loop
vertex -91.56996918 -2.390892029 303.3252258
vertex -91.68186951 -2.582984924 303.4464417
vertex -90.6554718 -2.742439032 303.4769592

endloop
endfacet
facet normal 0.05430643633 0.5134698153 0.8563874364
outer loop
vertex -90.6554718 -2.742439032 303.4769592
vertex -91.68186951 -2.582984924 303.4464417
vertex -90.74347687 -2.942986012 303.6027832

endloop
endfacet
facet normal -0.03631658852 0.5424987674 0.8392712474
outer loop
vertex -90.6554718 -2.742439032 303.4769592
vertex -90.74347687 -2.942986012 303.6027832
vertex -89.69851685 -2.952018976 303.6538391

endloop
endfacet
facet normal -0.03656326607 0.5363145471 0.8432258368
outer loop
vertex -89.69851685 -2.952018976 303.6538391
vertex -90.74347687 -2.942986012 303.6027832
vertex -89.75687408 -3.160590887 303.7839661

endloop
endfacet
facet normal -0.1449477673 0.5526102781 0.8207386732
outer loop
vertex -89.69851685 -2.952018976 303.6538391
vertex -89.75687408 -3.160590887 303.7839661
vertex -88.76483917 -3.01990509 303.8644409

endloop
endfacet
facet normal -0.1443521678 0.5457214713 0.8254395723
outer loop
vertex -88.76483917 -3.01990509 303.8644409
vertex -89.75687408 -3.160590887 303.7839661
vertex -88.80461121 -3.231590033 303.9974365

endloop
endfacet
facet normal -0.198665753 0.5477328897 0.8127242327
outer loop
vertex -88.7648468 -3.01989007 303.8644714
vertex -88.80461121 -3.231606007 303.9974365
vertex -87.85743713 -3.039573908 304.0995483

endloop
endfacet
facet normal -0.1983856708 0.5455269814 0.8142748475
outer loop
vertex -87.85743713 -3.039573908 304.0995483
vertex -88.80461121 -3.231606007 303.9974365
vertex -87.89704132 -3.251761913 304.2320557

endloop
endfacet
facet normal -0.2043467313 0.5456616879 0.8127088547
outer loop
vertex -87.85743713 -3.039573908 304.0995483
vertex -87.89704132 -3.251761913 304.2320557
vertex -86.95568085 -3.071495056 304.3477173

endloop
endfacet
facet normal -0.2043236941 0.5454438329 0.8128609061
outer loop
vertex -86.95568085 -3.071495056 304.3477173
vertex -87.89704132 -3.251761913 304.2320557
vertex -87.00123596 -3.283530951 304.4785461

endloop
endfacet
facet normal -0.1996917874 0.5452641249 0.8141316175
outer loop
vertex -86.95568085 -3.071480036 304.3477478
vertex -87.00122833 -3.28350091 304.4785767
vertex -86.04427338 -3.117667913 304.6022339

endloop
endfacet
facet normal -0.1996905208 0.5452491045 0.8141419291
outer loop
vertex -86.04427338 -3.117667913 304.6022339
vertex -87.00122833 -3.28350091 304.4785767
vertex -86.09141541 -3.329643011 304.7326355

endloop
endfacet
facet normal -0.2005669177 0.5452933311 0.8138968945
outer loop
vertex -86.04427338 -3.117667913 304.6022339
vertex -86.09141541 -3.329643011 304.7326355
vertex -85.11714935 -3.153175116 304.8544922

endloop
endfacet
facet normal -0.2005938888 0.5455791354 0.8136985898
outer loop
vertex -85.11714935 -3.153175116 304.8544922
vertex -86.09141541 -3.329643011 304.7326355
vertex -85.15856934 -3.365257025 304.9864807

endloop
endfacet
facet normal -0.2080560029 0.5457835793 0.8116852045
outer loop
vertex -85.11714935 -3.153175116 304.8544922
vertex -85.15856934 -3.365257025 304.9864807
vertex -84.17615509 -3.153007984 305.0955811

endloop
endfacet
facet normal -0.2080977261 0.5460870862 0.8114703894
outer loop
vertex -84.17615509 -3.153007984 305.0955811
vertex -85.15856934 -3.365257025 304.9864807
vertex -84.20630646 -3.365027905 305.2305298

endloop
endfacet
facet normal -0.2289602309 0.5456526875 0.8061267138
outer loop
vertex -84.17615509 -3.153007984 305.0955811
vertex -84.20630646 -3.365027905 305.2305298
vertex -83.23235321 -3.099540949 305.3274536

endloop
endfacet
facet normal -0.2289575636 0.5456393361 0.8061365485
outer loop
vertex -83.23235321 -3.099540949 305.3274536
vertex -84.20630646 -3.365027905 305.2305298
vertex -83.24967957 -3.310920954 305.4656067

endloop
endfacet
facet normal -0.2690792084 0.542244494 0.7959694266
outer loop
vertex -83.23234558 -3.099509954 305.3274536
vertex -83.24967194 -3.31090498 305.4656067
vertex -82.30195618 -2.985312939 305.5641785

endloop
endfacet
facet normal -0.2694037557 0.5434770584 0.7950184345
outer loop
vertex -82.30195618 -2.985312939 305.5641785
vertex -83.24967194 -3.31090498 305.4656067
vertex -82.30870056 -3.195305109 305.7054443

endloop
endfacet
facet normal -0.3132458031 0.5369864106 0.7832768559
outer loop
vertex -82.30195618 -2.985312939 305.5641785
vertex -82.30870056 -3.195305109 305.7054443
vertex -81.39098358 -2.819771051 305.8150024

endloop
endfacet
facet normal -0.3140221834 0.5394737124 0.7812542319
outer loop
vertex -81.39098358 -2.819771051 305.8150024
vertex -82.30870056 -3.195305109 305.7054443
vertex -81.39076996 -3.02811408 305.9589539

endloop
endfacet
facet normal -0.355371058 0.5310942531 0.7691880465
outer loop
vertex -81.39098358 -2.819771051 305.8150024
vertex -81.39076996 -3.02811408 305.9589539
vertex -80.50079346 -2.613289118 306.0837097

endloop
endfacet
facet normal -0.3570542634 0.5359577537 0.7650238276
outer loop
vertex -80.50079346 -2.613289118 306.0837097
vertex -81.39076996 -3.02811408 305.9589539
vertex -80.49655914 -2.819602966 306.2302246

endloop
endfacet
facet normal -0.4072063565 0.5232569575 0.7485888004
outer loop
vertex -80.50079346 -2.613289118 306.0837097
vertex -80.49655914 -2.819602966 306.2302246
vertex -79.65749359 -2.372353077 306.3740234

endloop
endfacet
facet normal -0.4106929004 0.532527864 0.740098238
outer loop
vertex -79.65749359 -2.372353077 306.3740234
vertex -80.49655914 -2.819602966 306.2302246
vertex -79.65233612 -2.57585907 306.5233154

endloop
endfacet
facet normal -0.4762126207 0.5122488737 0.7147185802
outer loop
vertex -79.65749359 -2.372353077 306.3740234
vertex -79.65233612 -2.57585907 306.5233154
vertex -78.91575623 -2.110297918 306.6804199

endloop
endfacet
facet normal -0.4821611643 0.5265673995 0.7001767159
outer loop
vertex -78.91575623 -2.110297918 306.6804199
vertex -79.65233612 -2.57585907 306.5233154
vertex -78.91255951 -2.313148022 306.8351746

endloop
endfacet
facet normal -0.5109403133 0.516187489 0.6873793602
outer loop
vertex -78.91575623 -2.110297918 306.6804199
vertex -78.91255188 -2.313163996 306.835144
vertex -78.13484192 -1.78983295 307.0202332

endloop
endfacet
facet normal -0.5198142529 0.537704587 0.6638275385
outer loop
vertex -78.13484192 -1.78983295 307.0202332
vertex -78.91255188 -2.313163996 306.835144
vertex -78.13618469 -2.00957489 307.1971741

endloop
endfacet
facet normal 0.1286719888 0.621481061 0.7727903128
outer loop
vertex -78.13484192 -1.78983295 307.0202332
vertex -78.13618469 -2.00957489 307.1971741
vertex -77.19829559 -1.949241996 306.9924927

endloop
endfacet
facet normal -nan(ind) -nan(ind) -nan(ind)
outer loop
vertex -77.19829559 -1.949241996 306.9924927
vertex -78.13618469 -2.00957489 307.1971741
vertex -77.19829559 -1.949241996 306.9924927

endloop
endfacet
facet normal 0.6520569921 0.6812913418 -0.3326617777
outer loop
vertex -94.53820038 -1.20174396 302.3334961
vertex -94.53820038 -1.201729059 302.3335266
vertex -94.00724792 -1.372535944 303.0244446

endloop
endfacet
facet normal -0.6945756674 0.3601289988 0.6227934957
outer loop
vertex -94.00724792 -1.372535944 303.0244446
vertex -94.53820038 -1.201729059 302.3335266
vertex -94.1258316 -1.60610199 303.0272522

endloop
endfacet
facet normal -0.1397691071 0.0828230381 0.9867141843
outer loop
vertex -94.00724792 -1.372535944 303.0244446
vertex -94.1258316 -1.60610199 303.0272522
vertex -93.26325226 -1.781792045 303.1641846

endloop
endfacet
facet normal -0.1355896145 0.102367416 0.9854625463
outer loop
vertex -93.26325226 -1.781792045 303.1641846
vertex -94.1258316 -1.60610199 303.0272522
vertex -93.37187195 -1.989707947 303.1708374

endloop
endfacet
facet normal -0.1282327771 0.09856794029 0.9868337512
outer loop
vertex -93.26325226 -1.781792045 303.1641846
vertex -93.37187195 -1.989707947 303.1708374
vertex -92.52986145 -2.165611029 303.297821

endloop
endfacet
facet normal -0.1271369904 0.1035473496 0.9864654541
outer loop
vertex -92.52986145 -2.165611029 303.297821
vertex -93.37187195 -1.989707947 303.1708374
vertex -92.63880157 -2.370307922 303.3052673

endloop
endfacet
facet normal -0.1230979413 0.1014244407 0.9871980548
outer loop
vertex -92.52986145 -2.165611029 303.297821
vertex -92.63880157 -2.370307922 303.3052673
vertex -91.68186951 -2.582984924 303.4464417

endloop
endfacet
facet normal -0.1215478182 0.1080592275 0.9866860509
outer loop
vertex -91.68186951 -2.582984924 303.4464417
vertex -92.63880157 -2.370307922 303.3052673
vertex -91.78270721 -2.7917099 303.4568787

endloop
endfacet
facet normal -0.1226906776 0.1086012945 0.986485064
outer loop
vertex -91.68186951 -2.582984924 303.4464417
vertex -91.78270721 -2.7917099 303.4568787
vertex -90.74347687 -2.942986012 303.6027832

endloop
endfacet
facet normal -0.1221873537 0.1117770374 0.9861927629
outer loop
vertex -90.74347687 -2.942986012 303.6027832
vertex -91.78270721 -2.7917099 303.4568787
vertex -90.81867981 -3.160896063 303.6181641

endloop
endfacet
facet normal -0.1531617492 0.1220741272 0.9806321263
outer loop
vertex -90.74347687 -2.942986012 303.6027832
vertex -90.81867981 -3.160896063 303.6181641
vertex -89.75687408 -3.160590887 303.7839661

endloop
endfacet
facet normal -0.1532559693 0.1169221103 0.9812450409
outer loop
vertex -89.75687408 -3.160590887 303.7839661
vertex -90.81867981 -3.160896063 303.6181641
vertex -89.79670715 -3.387214899 303.8047485

endloop
endfacet
facet normal -0.2080918401 0.1255310774 0.970020473
outer loop
vertex -89.75687408 -3.160590887 303.7839661
vertex -89.79670715 -3.387214899 303.8047485
vertex -88.80461121 -3.231590033 303.9974365

endloop
endfacet
facet normal -0.2072278857 0.1187359616 0.9710604548
outer loop
vertex -88.80461121 -3.231590033 303.9974365
vertex -89.79670715 -3.387214899 303.8047485
vertex -88.81929016 -3.461616993 304.0224304

endloop
endfacet
facet normal -0.2459673733 0.120209679 0.961795032
outer loop
vertex -88.80461121 -3.231606007 303.9974365
vertex -88.81929016 -3.461616993 304.0224304
vertex -87.89704132 -3.251761913 304.2320557

endloop
endfacet
facet normal -0.2454843819 0.1176474243 0.9622352123
outer loop
vertex -87.89704132 -3.251761913 304.2320557
vertex -88.81929016 -3.461616993 304.0224304
vertex -87.90837097 -3.482322931 304.2573547

endloop
endfacet
facet normal -0.2595592439 0.117929168 0.9584997296
outer loop
vertex -87.89704132 -3.251761913 304.2320557
vertex -87.90837097 -3.482322931 304.2573547
vertex -87.00123596 -3.283530951 304.4785461

endloop
endfacet
facet normal -0.2595215738 0.1177168116 0.9585360885
outer loop
vertex -87.00123596 -3.283530951 304.4785461
vertex -87.90837097 -3.482322931 304.2573547
vertex -87.01781464 -3.513907909 304.5023499

endloop
endfacet
facet normal -0.2615445554 0.1176715493 0.9579916
outer loop
vertex -87.00122833 -3.28350091 304.4785767
vertex -87.01780701 -3.513892889 304.5023499
vertex -86.09141541 -3.329643011 304.7326355

endloop
endfacet
facet normal -0.26159361 0.1179827452 0.9579399228
outer loop
vertex -86.09141541 -3.329643011 304.7326355
vertex -87.01780701 -3.513892889 304.5023499
vertex -86.10969543 -3.559974909 304.756012

endloop
endfacet
facet normal -0.2565582395 0.1177244484 0.9593324661
outer loop
vertex -86.09141541 -3.329643011 304.7326355
vertex -86.10969543 -3.559974909 304.756012
vertex -85.15856934 -3.365257025 304.9864807

endloop
endfacet
facet normal -0.2566142678 0.1180655807 0.9592756033
outer loop
vertex -85.15856934 -3.365257025 304.9864807
vertex -86.10969543 -3.559974909 304.756012
vertex -85.17183685 -3.595679998 305.0112915

endloop
endfacet
facet normal -0.2465587556 0.1177740097 0.9619449973
outer loop
vertex -85.15856934 -3.365257025 304.9864807
vertex -85.17183685 -3.595679998 305.0112915
vertex -84.20630646 -3.365027905 305.2305298

endloop
endfacet
facet normal -0.2465265989 0.1176129654 0.9619728327
outer loop
vertex -84.20630646 -3.365027905 305.2305298
vertex -85.17183685 -3.595679998 305.0112915
vertex -84.20915985 -3.595406055 305.2579651

endloop
endfacet
facet normal -0.2432492524 0.1176708266 0.9627997279
outer loop
vertex -84.20630646 -3.365027905 305.2305298
vertex -84.20915985 -3.595406055 305.2579651
vertex -83.24967957 -3.310920954 305.4656067

endloop
endfacet
facet normal -0.2433410883 0.1180294007 0.9627326727
outer loop
vertex -83.24967957 -3.310920954 305.4656067
vertex -84.20915985 -3.595406055 305.2579651
vertex -83.23914337 -3.540611029 305.4964294

endloop
endfacet
facet normal -0.2587564886 0.1169258207 0.9588395953
outer loop
vertex -83.24967194 -3.31090498 305.4656067
vertex -83.23912811 -3.540580988 305.49646
vertex -82.30870056 -3.195305109 305.7054443

endloop
endfacet
facet normal -0.2592686117 0.118507117 0.958507061
outer loop
vertex -82.30870056 -3.195305109 305.7054443
vertex -83.23912811 -3.540580988 305.49646
vertex -82.28495789 -3.423515081 305.7400818

endloop
endfacet
facet normal -0.2838440537 0.1149558276 0.9519546628
outer loop
vertex -82.30870056 -3.195305109 305.7054443
vertex -82.28495789 -3.423515081 305.7400818
vertex -81.39076996 -3.02811408 305.9589539

endloop
endfacet
facet normal -0.2850125134 0.1179975793 0.951233089
outer loop
vertex -81.39076996 -3.02811408 305.9589539
vertex -82.28495789 -3.423515081 305.7400818
vertex -81.35686493 -3.254477978 305.9971924

endloop
endfacet
facet normal -0.312395066 0.1125495732 0.943261385
outer loop
vertex -81.39076996 -3.02811408 305.9589539
vertex -81.35686493 -3.254477978 305.9971924
vertex -80.49655914 -2.819602966 306.2302246

endloop
endfacet
facet normal -0.3150404394 0.1186560318 0.9416317344
outer loop
vertex -80.49655914 -2.819602966 306.2302246
vertex -81.35686493 -3.254477978 305.9971924
vertex -80.45465088 -3.043755054 306.2724915

endloop
endfacet
facet normal -0.3539504707 0.1089792997 0.9288932681
outer loop
vertex -80.49655914 -2.819602966 306.2302246
vertex -80.45465088 -3.043755054 306.2724915
vertex -79.65233612 -2.57585907 306.5233154

endloop
endfacet
facet normal -0.3595768809 0.1205560192 0.9252949357
outer loop
vertex -79.65233612 -2.57585907 306.5233154
vertex -80.45465088 -3.043755054 306.2724915
vertex -79.60373688 -2.797004938 306.5710144

endloop
endfacet
facet normal -0.4172389209 0.1030611172 0.9029341936
outer loop
vertex -79.65233612 -2.57585907 306.5233154
vertex -79.60373688 -2.797004938 306.5710144
vertex -78.91255951 -2.313148022 306.8351746

endloop
endfacet
facet normal -0.4263890684 0.1195904166 0.896599412
outer loop
vertex -78.91255951 -2.313148022 306.8351746
vertex -79.60373688 -2.797004938 306.5710144
vertex -78.85774994 -2.533684015 306.8906555

endloop
endfacet
facet normal -0.4549149871 0.1094387844 0.883784771
outer loop
vertex -78.91255188 -2.313163996 306.835144
vertex -78.85775757 -2.533684015 306.8906555
vertex -78.13618469 -2.00957489 307.1971741

endloop
endfacet
facet normal -0.4540538788 0.1078825295 0.8844186664
outer loop
vertex -78.13618469 -2.00957489 307.1971741
vertex -78.85775757 -2.533684015 306.8906555
vertex -78.06895447 -2.253501892 307.2614441

endloop
endfacet
facet normal 0.1852190942 0.2977959514 0.9364888668
outer loop
vertex -78.13618469 -2.00957489 307.1971741
vertex -78.06895447 -2.253501892 307.2614441
vertex -77.19829559 -1.949241996 306.9924927

endloop
endfacet
facet normal -0.4126781821 0.8072465062 -0.4219594598
outer loop
vertex -77.19829559 -1.949241996 306.9924927
vertex -78.06895447 -2.253501892 307.2614441
vertex -77.19829559 -1.949226022 306.9925232

endloop
endfacet
facet normal -0.8508368134 -0.4721513093 0.23054263
outer loop
vertex -94.53820038 -1.201729059 302.3335266
vertex -94.53820038 -1.20174396 302.3334961
vertex -94.1258316 -1.60610199 303.0272522

endloop
endfacet
facet normal -0.8435872197 0.05599424988 0.5340648293
outer loop
vertex -94.1258316 -1.60610199 303.0272522
vertex -94.53820038 -1.20174396 302.3334961
vertex -94.21453857 -1.828011036 302.9104004

endloop
endfacet
facet normal -0.3359814882 -0.330183655 0.8820970654
outer loop
vertex -94.1258316 -1.60610199 303.0272522
vertex -94.21453857 -1.828011036 302.9104004
vertex -93.37187195 -1.989707947 303.1708374

endloop
endfacet
facet normal -0.3333053887 -0.2943273783 0.8957002759
outer loop
vertex -93.37187195 -1.989707947 303.1708374
vertex -94.21453857 -1.828011036 302.9104004
vertex -93.45986938 -2.199225903 303.0692444

endloop
endfacet
facet normal -0.3208358586 -0.3007382452 0.8981207609
outer loop
vertex -93.37187195 -1.989707947 303.1708374
vertex -93.45986938 -2.199225903 303.0692444
vertex -92.63880157 -2.370307922 303.3052673

endloop
endfacet
facet normal -0.3203105032 -0.2956138253 0.9000075459
outer loop
vertex -92.63880157 -2.370307922 303.3052673
vertex -93.45986938 -2.199225903 303.0692444
vertex -92.72862244 -2.576805115 303.2054749

endloop
endfacet
facet normal -0.308339715 -0.30184111 0.9021189213
outer loop
vertex -92.63880157 -2.370307922 303.3052673
vertex -92.72862244 -2.576805115 303.2054749
vertex -91.78270721 -2.7917099 303.4568787

endloop
endfacet
facet normal -0.3075695038 -0.2958095372 0.904376924
outer loop
vertex -91.78270721 -2.7917099 303.4568787
vertex -92.72862244 -2.576805115 303.2054749
vertex -91.86598969 -3.002280951 303.3596802

endloop
endfacet
facet normal -0.271964103 -0.3125501275 0.9101361632
outer loop
vertex -91.78270721 -2.7917099 303.4568787
vertex -91.86598969 -3.002280951 303.3596802
vertex -90.81867981 -3.160896063 303.6181641

endloop
endfacet
facet normal -0.2718622386 -0.3109160662 0.91072613
outer loop
vertex -90.81867981 -3.160896063 303.6181641
vertex -91.86598969 -3.002280951 303.3596802
vertex -90.87636566 -3.380774975 303.5258789

endloop
endfacet
facet normal -0.2385709733 -0.3219498396 0.916205287
outer loop
vertex -90.81867981 -3.160896063 303.6181641
vertex -90.87636566 -3.380774975 303.5258789
vertex -89.79670715 -3.387214899 303.8047485

endloop
endfacet
facet normal -0.2383271754 -0.3250007033 0.9151910543
outer loop
vertex -89.79670715 -3.387214899 303.8047485
vertex -90.87636566 -3.380774975 303.5258789
vertex -89.81591797 -3.615897894 303.7185364

endloop
endfacet
facet normal -0.2290835828 -0.3264693916 0.9170269966
outer loop
vertex -89.79670715 -3.387214899 303.8047485
vertex -89.81591797 -3.615897894 303.7185364
vertex -88.81929016 -3.461616993 304.0224304

endloop
endfacet
facet normal -0.2282240242 -0.3299728334 0.9159867764
outer loop
vertex -88.81929016 -3.461616993 304.0224304
vertex -89.81591797 -3.615897894 303.7185364
vertex -88.8087616 -3.693732977 303.9414368

endloop
endfacet
facet normal -0.2428106815 -0.3292893469 0.9124754667
outer loop
vertex -88.81929016 -3.461616993 304.0224304
vertex -88.8087616 -3.693732977 303.9414673
vertex -87.90837097 -3.482322931 304.2573547

endloop
endfacet
facet normal -0.242222175 -0.3310678005 0.9119881988
outer loop
vertex -87.90837097 -3.482322931 304.2573547
vertex -88.8087616 -3.693732977 303.9414673
vertex -87.89156342 -3.714957952 304.1773682

endloop
endfacet
facet normal -0.2612119615 -0.3306809962 0.9068728685
outer loop
vertex -87.90837097 -3.482322931 304.2573547
vertex -87.89156342 -3.714957952 304.1773682
vertex -87.01781464 -3.513907909 304.5023499

endloop
endfacet
facet normal -0.2611338794 -0.3309174776 0.9068090916
outer loop
vertex -87.01781464 -3.513907909 304.5023499
vertex -87.89156342 -3.714957952 304.1773682
vertex -87.00524139 -3.746361017 304.4211426

endloop
endfacet
facet normal -0.269435972 -0.3304380178 0.9045524001
outer loop
vertex -87.01780701 -3.513892889 304.5023499
vertex -87.00523376 -3.746361017 304.4211731
vertex -86.10969543 -3.559974909 304.756012

endloop
endfacet
facet normal -0.2693877816 -0.3305933774 0.9045099616
outer loop
vertex -86.10969543 -3.559974909 304.756012
vertex -87.00523376 -3.746361017 304.4211731
vertex -86.09884644 -3.792335987 304.6743164

endloop
endfacet
facet normal -0.2595407665 -0.3310816884 0.9072064161
outer loop
vertex -86.10969543 -3.559974909 304.756012
vertex -86.09884644 -3.792335987 304.6743164
vertex -85.17183685 -3.595679998 305.0112915

endloop
endfacet
facet normal -0.2595214844 -0.3311433792 0.9071894288
outer loop
vertex -85.17183685 -3.595679998 305.0112915
vertex -86.09884644 -3.792335987 304.6743164
vertex -85.15699768 -3.828193903 304.9306641

endloop
endfacet
facet normal -0.2340655625 -0.331825316 0.9138409495
outer loop
vertex -85.17183685 -3.595679998 305.0112915
vertex -85.15699768 -3.828193903 304.9306641
vertex -84.20915985 -3.595406055 305.2579651

endloop
endfacet
facet normal -0.2341527492 -0.3315694034 0.9139115214
outer loop
vertex -84.20915985 -3.595406055 305.2579651
vertex -85.15699768 -3.828193903 304.9306641
vertex -84.18547821 -3.827888012 305.1796875

endloop
endfacet
facet normal -0.20758605 -0.3310771585 0.9204867482
outer loop
vertex -84.20915985 -3.595406055 305.2579651
vertex -84.18547821 -3.827888012 305.1796875
vertex -83.23914337 -3.540611029 305.4964294

endloop
endfacet
facet normal -0.2077441961 -0.3306758702 0.9205953479
outer loop
vertex -83.23914337 -3.540611029 305.4964294
vertex -84.18547821 -3.827888012 305.1796875
vertex -83.20239258 -3.772361994 305.4214783

endloop
endfacet
facet normal -0.1953814924 -0.3296842575 0.9236527681
outer loop
vertex -83.23912811 -3.540580988 305.49646
vertex -83.20237732 -3.77234602 305.4215088
vertex -82.28495789 -3.423515081 305.7400818

endloop
endfacet
facet normal -0.1962145418 -0.3279090524 0.9241079688
outer loop
vertex -82.28495789 -3.423515081 305.7400818
vertex -83.20237732 -3.77234602 305.4215088
vertex -82.23339844 -3.653724909 305.669342

endloop
endfacet
facet normal -0.1962771416 -0.3279179633 0.9240915179
outer loop
vertex -82.28495789 -3.423515081 305.7400818
vertex -82.23339844 -3.653724909 305.669342
vertex -81.35686493 -3.254477978 305.9971924

endloop
endfacet
facet normal -0.1981001198 -0.3245672882 0.9248850942
outer loop
vertex -81.35686493 -3.254477978 305.9971924
vertex -82.23339844 -3.653724909 305.669342
vertex -81.29272461 -3.482856989 305.9307861

endloop
endfacet
facet normal -0.2054290771 -0.3260122538 0.9227756262
outer loop
vertex -81.35686493 -3.254477978 305.9971924
vertex -81.29272461 -3.482856989 305.9307861
vertex -80.45465088 -3.043755054 306.2724915

endloop
endfacet
facet normal -0.2089222372 -0.3202929199 0.9239934683
outer loop
vertex -80.45465088 -3.043755054 306.2724915
vertex -81.29272461 -3.482856989 305.9307861
vertex -80.37923431 -3.26990509 306.2111511

endloop
endfacet
facet normal -0.2277962863 -0.324932456 0.9178931117
outer loop
vertex -80.45465088 -3.043755054 306.2724915
vertex -80.37923431 -3.26990509 306.2111511
vertex -79.60373688 -2.797004938 306.5710144

endloop
endfacet
facet normal -0.2355715781 -0.3136686385 0.9198467731
outer loop
vertex -79.60373688 -2.797004938 306.5710144
vertex -80.37923431 -3.26990509 306.2111511
vertex -79.51650238 -3.020118952 306.5172729

endloop
endfacet
facet normal -0.2732555568 -0.3249236643 0.9054037929
outer loop
vertex -79.60373688 -2.797004938 306.5710144
vertex -79.51650238 -3.020118952 306.5172729
vertex -78.85774994 -2.533684015 306.8906555

endloop
endfacet
facet normal -0.2856035531 -0.3094388843 0.9070160985
outer loop
vertex -78.85774994 -2.533684015 306.8906555
vertex -79.51650238 -3.020118952 306.5172729
vertex -78.75700378 -2.75592804 306.8465576

endloop
endfacet
facet normal -0.3085658252 -0.3177720606 0.8965533972
outer loop
vertex -78.85775757 -2.533684015 306.8906555
vertex -78.75701141 -2.75592804 306.8465576
vertex -78.06895447 -2.253501892 307.2614441

endloop
endfacet
facet normal -0.2962533832 -0.3333813548 0.8950368166
outer loop
vertex -78.06895447 -2.253501892 307.2614441
vertex -78.75701141 -2.75592804 306.8465576
vertex -77.94915009 -2.485236883 307.2147827

endloop
endfacet
facet normal 0.3056445718 -0.03358672932 0.9515531659
outer loop
vertex -78.06895447 -2.253501892 307.2614441
vertex -77.94915009 -2.485236883 307.2147827
vertex -77.19829559 -1.949226022 306.9925232

endloop
endfacet
facet normal 0.6097993255 -0.7019994855 0.3678879142
outer loop
vertex -77.19829559 -1.949226022 306.9925232
vertex -77.94915009 -2.485236883 307.2147827
vertex -77.19829559 -1.949241996 306.9924927

endloop
endfacet
facet normal -nan(ind) -nan(ind) -nan(ind)
outer loop
vertex -94.53820038 -1.20174396 302.3334961
vertex -94.53820038 -1.20174396 302.3334961
vertex -94.21453857 -1.828011036 302.9104004

endloop
endfacet
facet normal -0.9293587804 -0.1871730983 0.3182114959
outer loop
vertex -94.21453857 -1.828011036 302.9104004
vertex -94.53820038 -1.20174396 302.3334961
vertex -94.25511169 -1.994040966 302.6942444

endloop
endfacet
facet normal -0.4520751238 -0.664381206 0.5951685905
outer loop
vertex -94.21453857 -1.828011036 302.9104004
vertex -94.25511169 -1.994040966 302.6942444
vertex -93.45986938 -2.199225903 303.0692444

endloop
endfacet
facet normal -0.4591313303 -0.6241992712 0.6321184039
outer loop
vertex -93.45986938 -2.199225903 303.0692444
vertex -94.25511169 -1.994040966 302.6942444
vertex -93.50717163 -2.368094921 302.8681335

endloop
endfacet
facet normal -0.4445197284 -0.6317677498 0.6350367665
outer loop
vertex -93.45986938 -2.199225903 303.0692444
vertex -93.50717163 -2.368094921 302.8681335
vertex -92.72862244 -2.576805115 303.2054749

endloop
endfacet
facet normal -0.4450726509 -0.6272693872 0.6390958428
outer loop
vertex -92.72862244 -2.576805115 303.2054749
vertex -93.50717163 -2.368094921 302.8681335
vertex -92.77899933 -2.743506908 303.0067749

endloop
endfacet
facet normal -0.4283796847 -0.635825038 0.6420414448
outer loop
vertex -92.72862244 -2.576805115 303.2054749
vertex -92.77899933 -2.743506908 303.0067749
vertex -91.86598969 -3.002280951 303.3596802

endloop
endfacet
facet normal -0.4287203848 -0.6314012408 0.646166563
outer loop
vertex -91.86598969 -3.002280951 303.3596802
vertex -92.77899933 -2.743506908 303.0067749
vertex -91.91291809 -3.172264099 303.1624451

endloop
endfacet
facet normal -0.3631538749 -0.6613112092 0.6563435197
outer loop
vertex -91.86598969 -3.002280951 303.3596802
vertex -91.91291809 -3.172264099 303.1624451
vertex -90.87636566 -3.380774975 303.5258789

endloop
endfacet
facet normal -0.3631987572 -0.6609585881 0.656673789
outer loop
vertex -90.87636566 -3.380774975 303.5258789
vertex -91.91291809 -3.172264099 303.1624451
vertex -90.90290833 -3.55823493 303.3325806

endloop
endfacet
facet normal -0.2746263146 -0.6892365813 0.6704724431
outer loop
vertex -90.87636566 -3.380774975 303.5258789
vertex -90.90290833 -3.55823493 303.3325806
vertex -89.81591797 -3.615897894 303.7185364

endloop
endfacet
facet normal -0.2740357518 -0.6913974285 0.6684863567
outer loop
vertex -89.81591797 -3.615897894 303.7185364
vertex -90.90290833 -3.55823493 303.3325806
vertex -89.80834198 -3.800452948 303.5307617

endloop
endfacet
facet normal -0.2051641941 -0.7021486759 0.6818320155
outer loop
vertex -89.81591797 -3.615897894 303.7185364
vertex -89.80834198 -3.800452948 303.5307617
vertex -88.8087616 -3.693732977 303.9414368

endloop
endfacet
facet normal -0.2047504187 -0.7030252814 0.6810526848
outer loop
vertex -88.8087616 -3.693732977 303.9414368
vertex -89.80834198 -3.800452948 303.5307617
vertex -88.77231598 -3.88105011 303.7590332

endloop
endfacet
facet normal -0.1922294348 -0.7036070228 0.6840943098
outer loop
vertex -88.8087616 -3.693732977 303.9414673
vertex -88.77231598 -3.881064892 303.7590332
vertex -87.89156342 -3.714957952 304.1773682

endloop
endfacet
facet normal -0.1919639409 -0.7040511966 0.6837117076
outer loop
vertex -87.89156342 -3.714957952 304.1773682
vertex -88.77231598 -3.881064892 303.7590332
vertex -87.84693909 -3.902718067 303.9965515

endloop
endfacet
facet normal -0.2115165144 -0.7035847306 0.6784020066
outer loop
vertex -87.89156342 -3.714957952 304.1773682
vertex -87.84693909 -3.902718067 303.9965515
vertex -87.00524139 -3.746361017 304.4211426

endloop
endfacet
facet normal -0.2113408297 -0.7038715482 0.6781592369
outer loop
vertex -87.00524139 -3.746361017 304.4211426
vertex -87.84693909 -3.902718067 303.9965515
vertex -86.96282959 -3.933983088 304.239624

endloop
endfacet
facet normal -0.2240824252 -0.7033575177 0.6745926738
outer loop
vertex -87.00523376 -3.746361017 304.4211731
vertex -86.96282196 -3.933968067 304.2396545
vertex -86.09884644 -3.792335987 304.6743164

endloop
endfacet
facet normal -0.2241008878 -0.7033261657 0.6746191978
outer loop
vertex -86.09884644 -3.792335987 304.6743164
vertex -86.96282196 -3.933968067 304.2396545
vertex -86.0577774 -3.979912043 304.4924011

endloop
endfacet
facet normal -0.2113625705 -0.7039175034 0.6781047583
outer loop
vertex -86.09884644 -3.792335987 304.6743164
vertex -86.0577774 -3.979912043 304.4924011
vertex -85.15699768 -3.828193903 304.9306641

endloop
endfacet
facet normal -0.2114795744 -0.7037174106 0.6782759428
outer loop
vertex -85.15699768 -3.828193903 304.9306641
vertex -86.0577774 -3.979912043 304.4924011
vertex -85.11391449 -4.015861988 304.7493896

endloop
endfacet
facet normal -0.176007092 -0.7045077085 0.6875248551
outer loop
vertex -85.15699768 -3.828193903 304.9306641
vertex -85.11391449 -4.015861988 304.7493896
vertex -84.18547821 -3.827888012 305.1796875

endloop
endfacet
facet normal -0.1760669351 -0.7044088244 0.6876108646
outer loop
vertex -84.18547821 -3.827888012 305.1796875
vertex -85.11391449 -4.015861988 304.7493896
vertex -84.13706207 -4.015541077 304.9998474

endloop
endfacet
facet normal -0.1320465505 -0.7034058571 0.698415339
outer loop
vertex -84.18547821 -3.827888012 305.1796875
vertex -84.13706207 -4.015541077 304.9998474
vertex -83.20239258 -3.772361994 305.4214783

endloop
endfacet
facet normal -0.1320740283 -0.7033640742 0.6984522343
outer loop
vertex -83.20239258 -3.772361994 305.4214783
vertex -84.13706207 -4.015541077 304.9998474
vertex -83.14395142 -3.959434986 305.2441406

endloop
endfacet
facet normal -0.09520079195 -0.7003473043 0.7074252367
outer loop
vertex -83.20237732 -3.77234602 305.4215088
vertex -83.14394379 -3.959419012 305.2441711
vertex -82.23339844 -3.653724909 305.669342

endloop
endfacet
facet normal -0.09632344544 -0.6988498569 0.7087529898
outer loop
vertex -82.23339844 -3.653724909 305.669342
vertex -83.14394379 -3.959419012 305.2441711
vertex -82.16133881 -3.83957696 305.4958801

endloop
endfacet
facet normal -0.07240325958 -0.6953865886 0.7149792314
outer loop
vertex -82.23339844 -3.653724909 305.669342
vertex -82.16133881 -3.83957696 305.4958801
vertex -81.29272461 -3.482856989 305.9307861

endloop
endfacet
facet normal -0.07451349497 -0.6929104328 0.7171630263
outer loop
vertex -81.29272461 -3.482856989 305.9307861
vertex -82.16133881 -3.83957696 305.4958801
vertex -81.20793152 -3.667212963 305.7614746

endloop
endfacet
facet normal -0.06045698747 -0.6901205182 0.721164763
outer loop
vertex -81.29272461 -3.482856989 305.9307861
vertex -81.20793152 -3.667212963 305.7614746
vertex -80.37923431 -3.26990509 306.2111511

endloop
endfacet
facet normal -0.06468188763 -0.6856780052 0.725025475
outer loop
vertex -80.37923431 -3.26990509 306.2111511
vertex -81.20793152 -3.667212963 305.7614746
vertex -80.28178406 -3.452445984 306.0472107

endloop
endfacet
facet normal -0.0596633479 -0.6844368577 0.7266267538
outer loop
vertex -80.37923431 -3.26990509 306.2111511
vertex -80.28178406 -3.452445984 306.0472107
vertex -79.51650238 -3.020118952 306.5172729

endloop
endfacet
facet normal -0.06839193404 -0.6763492823 0.7333990335
outer loop
vertex -79.51650238 -3.020118952 306.5172729
vertex -80.28178406 -3.452445984 306.0472107
vertex -79.40393829 -3.200202942 306.3616943

endloop
endfacet
facet normal -0.07967960089 -0.6797186136 0.7291322351
outer loop
vertex -79.51650238 -3.020118952 306.5172729
vertex -79.40393829 -3.200202942 306.3616943
vertex -78.75700378 -2.75592804 306.8465576

endloop
endfacet
facet normal -0.09356576204 -0.6687318087 0.7375928164
outer loop
vertex -78.75700378 -2.75592804 306.8465576
vertex -79.40393829 -3.200202942 306.3616943
vertex -78.62565613 -2.935065985 306.7008057

endloop
endfacet
facet normal -0.1075530499 -0.6736511588 0.7311815023
outer loop
vertex -78.75701141 -2.75592804 306.8465576
vertex -78.62565613 -2.935065985 306.7008362
vertex -77.94915009 -2.485236883 307.2147827

endloop
endfacet
facet normal -0.08208923787 -0.6938949227 0.7153818011
outer loop
vertex -77.94915009 -2.485236883 307.2147827
vertex -78.62565613 -2.935065985 306.7008362
vertex -77.79933167 -2.658668995 307.0637512

endloop
endfacet
facet normal 0.4686709046 -0.3141335845 0.8256316781
outer loop
vertex -77.94915009 -2.485236883 307.2147827
vertex -77.79933167 -2.658668995 307.0637512
vertex -77.19829559 -1.949241996 306.9924927

endloop
endfacet
facet normal -nan(ind) -nan(ind) -nan(ind)
outer loop
vertex -77.19829559 -1.949241996 306.9924927
vertex -77.79933167 -2.658668995 307.0637512
vertex -77.19829559 -1.949241996 306.9924927

endloop
endfacet
facet normal 0.8716941476 0.09230510145 -0.4812784791
outer loop
vertex -94.53820801 -1.201758981 302.3334656
vertex -94.53819275 -1.20174396 302.3334961
vertex -94.25511932 -1.994040966 302.6942444

endloop
endfacet
facet normal -0.9396724105 -0.3418143988 -0.01336733624
outer loop
vertex -94.25511932 -1.994040966 302.6942444
vertex -94.53819275 -1.20174396 302.3334961
vertex -94.22554779 -2.062798023 302.3736572

endloop
endfacet
facet normal -0.4691767395 -0.8713502884 0.1436027735
outer loop
vertex -94.25511932 -1.994040966 302.6942444
vertex -94.22554779 -2.062798023 302.3736572
vertex -93.50718689 -2.368110895 302.868103

endloop
endfacet
facet normal -0.4925684631 -0.848962903 0.1914114356
outer loop
vertex -93.50718689 -2.368110895 302.868103
vertex -94.22554779 -2.062798023 302.3736572
vertex -93.48732758 -2.450675964 302.553009

endloop
endfacet
facet normal -0.4784679711 -0.8563531041 0.194236666
outer loop
vertex -93.50718689 -2.368110895 302.868103
vertex -93.48732758 -2.450675964 302.553009
vertex -92.77899933 -2.743522882 303.0067444

endloop
endfacet
facet normal -0.4807486534 -0.8538883328 0.1993877739
outer loop
vertex -92.77899933 -2.743522882 303.0067444
vertex -93.48732758 -2.450675964 302.553009
vertex -92.76343536 -2.825248957 302.6942749

endloop
endfacet
facet normal -0.4634900391 -0.8626444936 0.2025375664
outer loop
vertex -92.77899933 -2.743522882 303.0067444
vertex -92.76343536 -2.825248957 302.6942749
vertex -91.91291809 -3.172310114 303.1624146

endloop
endfacet
facet normal -0.4656557441 -0.8600854278 0.2083693892
outer loop
vertex -91.91291809 -3.172310114 303.1624146
vertex -92.76343536 -2.825248957 302.6942749
vertex -91.89899445 -3.255623102 302.8496399

endloop
endfacet
facet normal -0.3804681897 -0.8977074623 0.2221829146
outer loop
vertex -91.91291809 -3.172310114 303.1624146
vertex -91.89899445 -3.255623102 302.8496399
vertex -90.90290833 -3.558265924 303.33255

endloop
endfacet
facet normal -0.3805980384 -0.8975638151 0.2225406021
outer loop
vertex -90.90290833 -3.558265924 303.33255
vertex -91.89899445 -3.255623102 302.8496399
vertex -90.87950134 -3.645271063 303.0216675

endloop
endfacet
facet normal -0.2513450086 -0.9368295074 0.2432614714
outer loop
vertex -90.90290833 -3.558265924 303.33255
vertex -90.87950134 -3.645271063 303.0216675
vertex -89.80834961 -3.800467968 303.5307312

endloop
endfacet
facet normal -0.2496875077 -0.9382841587 0.2393304259
outer loop
vertex -89.80834961 -3.800467968 303.5307312
vertex -90.87950134 -3.645271063 303.0216675
vertex -89.76261902 -3.890923023 303.2238159

endloop
endfacet
facet normal -0.1321105212 -0.9559659958 0.2620607913
outer loop
vertex -89.80834961 -3.800467968 303.5307312
vertex -89.76261902 -3.890923023 303.2238159
vertex -88.77233124 -3.881064892 303.7590027

endloop
endfacet
facet normal -0.1313573569 -0.956448257 0.2606760561
outer loop
vertex -88.77233124 -3.881064892 303.7590027
vertex -89.76261902 -3.890923023 303.2238159
vertex -88.70362854 -3.972893 303.4566956

endloop
endfacet
facet normal -0.09177647531 -0.9584099054 0.2702360451
outer loop
vertex -88.77233124 -3.881081104 303.7590332
vertex -88.70362854 -3.97290802 303.4566956
vertex -87.84693909 -3.902733088 303.996521

endloop
endfacet
facet normal -0.09161671251 -0.9584935904 0.2699933946
outer loop
vertex -87.84693909 -3.902733088 303.996521
vertex -88.70362854 -3.97290802 303.4566956
vertex -87.76851654 -3.994774103 303.6963806

endloop
endfacet
facet normal -0.1069655791 -0.9580615759 0.2658504248
outer loop
vertex -87.84693909 -3.902733088 303.996521
vertex -87.76851654 -3.994774103 303.6963806
vertex -86.96283722 -3.933983088 304.239624

endloop
endfacet
facet normal -0.1067631319 -0.9581642151 0.2655616701
outer loop
vertex -86.96283722 -3.933983088 304.239624
vertex -87.76851654 -3.994774103 303.6963806
vertex -86.88330841 -4.02596283 303.9397278

endloop
endfacet
facet normal -0.1216068044 -0.9575422406 0.2613897622
outer loop
vertex -86.96282196 -3.933968067 304.2396545
vertex -86.88330841 -4.025931835 303.9397583
vertex -86.05778503 -3.979912043 304.4924011

endloop
endfacet
facet normal -0.121628128 -0.9575311542 0.2614206672
outer loop
vertex -86.05778503 -3.979912043 304.4924011
vertex -86.88330841 -4.025931835 303.9397583
vertex -85.97888184 -4.07186079 304.1923218

endloop
endfacet
facet normal -0.1086605713 -0.95810467 0.2650060952
outer loop
vertex -86.05778503 -3.979912043 304.4924011
vertex -85.97888184 -4.07186079 304.1923218
vertex -85.11391449 -4.01587677 304.7493896

endloop
endfacet
facet normal -0.1087958142 -0.9580332637 0.2652089596
outer loop
vertex -85.11391449 -4.01587677 304.7493896
vertex -85.97888184 -4.07186079 304.1923218
vertex -85.03619385 -4.107857227 304.4490051

endloop
endfacet
facet normal -0.07029373944 -0.9587583542 0.27539289
outer loop
vertex -85.11391449 -4.01587677 304.7493896
vertex -85.03619385 -4.107857227 304.4490051
vertex -84.13706207 -4.015555859 304.9998474

endloop
endfacet
facet normal -0.07029292732 -0.9587587714 0.2753916085
outer loop
vertex -84.13706207 -4.015555859 304.9998474
vertex -85.03619385 -4.107857227 304.4490051
vertex -84.06005859 -4.107535839 304.6992798

endloop
endfacet
facet normal -0.01689246856 -0.9572934508 0.2886241078
outer loop
vertex -84.13706207 -4.015555859 304.9998474
vertex -84.06005859 -4.107535839 304.6992798
vertex -83.14395905 -3.959434986 305.2441101

endloop
endfacet
facet normal -0.01686856523 -0.9573050737 0.2885870636
outer loop
vertex -83.14395905 -3.959434986 305.2441101
vertex -84.06005859 -4.107535839 304.6992798
vertex -83.0629425 -4.051139832 304.9446411

endloop
endfacet
facet normal 0.03879299015 -0.9524891376 0.3020921052
outer loop
vertex -83.14394379 -3.959419012 305.2441711
vertex -83.06292725 -4.051108837 304.9446716
vertex -82.16133881 -3.83957696 305.4958496

endloop
endfacet
facet normal 0.03763693944 -0.9519942999 0.3037932217
outer loop
vertex -82.16133881 -3.83957696 305.4958496
vertex -83.06292725 -4.051108837 304.9446716
vertex -82.07059479 -3.930686951 305.1990967

endloop
endfacet
facet normal 0.08296683431 -0.9452623129 0.3155877292
outer loop
vertex -82.16133881 -3.83957696 305.4958496
vertex -82.07059479 -3.930686951 305.1990967
vertex -81.20793152 -3.667212963 305.7614746

endloop
endfacet
facet normal 0.08057703823 -0.9443775415 0.3188391328
outer loop
vertex -81.20793152 -3.667212963 305.7614746
vertex -82.07059479 -3.930686951 305.1990967
vertex -81.10629272 -3.757606983 305.4680481

endloop
endfacet
facet normal 0.115887031 -0.93723768 0.3288704157
outer loop
vertex -81.20793152 -3.667212963 305.7614746
vertex -81.10629272 -3.757606983 305.4680481
vertex -80.28179169 -3.452445984 306.0471802

endloop
endfacet
facet normal 0.1115237027 -0.9358304143 0.33434093
outer loop
vertex -80.28179169 -3.452445984 306.0471802
vertex -81.10629272 -3.757606983 305.4680481
vertex -80.16748047 -3.541954041 305.7585144

endloop
endfacet
facet normal 0.1432205737 -0.927829802 0.3444120586
outer loop
vertex -80.28179169 -3.452445984 306.0471802
vertex -80.16748047 -3.541954041 305.7585144
vertex -79.40393829 -3.200202942 306.3616638

endloop
endfacet
facet normal 0.134108752 -0.9253688455 0.354552418
outer loop
vertex -79.40393829 -3.200202942 306.3616638
vertex -80.16748047 -3.541954041 305.7585144
vertex -79.27210236 -3.288506031 306.0813293

endloop
endfacet
facet normal 0.1551286429 -0.9190083742 0.3624342382
outer loop
vertex -79.40393829 -3.200202942 306.3616638
vertex -79.27210236 -3.288506031 306.0813293
vertex -78.62566376 -2.935081005 306.7008057

endloop
endfacet
facet normal 0.1406573504 -0.9159644842 0.3757986426
outer loop
vertex -78.62566376 -2.935081005 306.7008057
vertex -79.27210236 -3.288506031 306.0813293
vertex -78.47026825 -3.022651911 306.4291992

endloop
endfacet
facet normal 0.1411862224 -0.9157842994 0.3760392964
outer loop
vertex -78.62565613 -2.935081005 306.7008362
vertex -78.47026825 -3.022651911 306.4292297
vertex -77.79934692 -2.658668995 307.0637512

endloop
endfacet
facet normal 0.1687049717 -0.9213761091 0.3501494825
outer loop
vertex -77.79934692 -2.658668995 307.0637512
vertex -78.47026825 -3.022651911 306.4292297
vertex -77.62924957 -2.730521917 306.7927246

endloop
endfacet
facet normal 0.6633608937 -0.5066844821 0.5506569743
outer loop
vertex -77.79934692 -2.658668995 307.0637512
vertex -77.62924957 -2.730521917 306.7927246
vertex -77.19831085 -1.949257016 306.9924622

endloop
endfacet
facet normal -0.865745008 0.4953376651 -0.07159747928
outer loop
vertex -77.19831085 -1.949257016 306.9924622
vertex -77.62924957 -2.730521917 306.7927246
vertex -77.19829559 -1.949226022 306.9924927

endloop
endfacet
facet normal -0.1274030358 0 0.9918510318
outer loop
vertex -94.53820038 -1.201729059 302.3334961
vertex -94.53820038 -1.20174396 302.3334961
vertex -94.22554016 -2.062813044 302.3736572

endloop
endfacet
facet normal -0.8231693506 -0.3207508326 -0.4685201347
outer loop
vertex -94.22554016 -2.062813044 302.3736572
vertex -94.53820038 -1.20174396 302.3334961
vertex -94.0286026 -1.864449024 301.8918457

endloop
endfacet
facet normal -0.3186697364 -0.8235301971 -0.4693055153
outer loop
vertex -94.22554016 -2.062813044 302.3736572
vertex -94.0286026 -1.864449024 301.8918457
vertex -93.48732758 -2.450675964 302.553009

endloop
endfacet
facet normal -0.350617528 -0.8245499134 -0.4440549314
outer loop
vertex -93.48732758 -2.450675964 302.553009
vertex -94.0286026 -1.864449024 301.8918457
vertex -93.29199219 -2.264350891 302.0527954

endloop
endfacet
facet normal -0.3425061405 -0.8288000226 -0.4424704909
outer loop
vertex -93.48732758 -2.450675964 302.553009
vertex -93.29199219 -2.264350891 302.0527954
vertex -92.76342773 -2.825248957 302.6942749

endloop
endfacet
facet normal -0.3476031423 -0.828874886 -0.4383360744
outer loop
vertex -92.76342773 -2.825248957 302.6942749
vertex -93.29199219 -2.264350891 302.0527954
vertex -92.57377625 -2.641608953 302.1966248

endloop
endfacet
facet normal -0.3369545937 -0.8343325257 -0.4362919629
outer loop
vertex -92.76342773 -2.825248957 302.6942749
vertex -92.57377625 -2.641608953 302.1966248
vertex -91.89898682 -3.255623102 302.8496704

endloop
endfacet
facet normal -0.3432224691 -0.8348758221 -0.4303262234
outer loop
vertex -91.89898682 -3.255623102 302.8496704
vertex -92.57377625 -2.641608953 302.1966248
vertex -91.72418213 -3.068351984 302.3469238

endloop
endfacet
facet normal -0.2626725137 -0.8707529306 -0.4156831205
outer loop
vertex -91.89898682 -3.255623102 302.8496704
vertex -91.72418213 -3.068351984 302.3469238
vertex -90.87950134 -3.645271063 303.0216675

endloop
endfacet
facet normal -0.2641375661 -0.8710589409 -0.4141107798
outer loop
vertex -90.87950134 -3.645271063 303.0216675
vertex -91.72418213 -3.068351984 302.3469238
vertex -90.72887421 -3.44974494 302.5143127

endloop
endfacet
facet normal -0.1299391985 -0.9116399288 -0.3899082541
outer loop
vertex -90.87950134 -3.645271063 303.0216675
vertex -90.72887421 -3.44974494 302.5143127
vertex -89.76261902 -3.890923023 303.2238159

endloop
endfacet
facet normal -0.1250545681 -0.9099173546 -0.3954893053
outer loop
vertex -89.76261902 -3.890923023 303.2238159
vertex -90.72887421 -3.44974494 302.5143127
vertex -89.63093567 -3.687613964 302.7144165

endloop
endfacet
facet normal 0.009105719626 -0.9295294285 -0.3686354458
outer loop
vertex -89.76261902 -3.890923023 303.2238159
vertex -89.63093567 -3.687613964 302.7144165
vertex -88.70362091 -3.972893 303.456665

endloop
endfacet
facet normal 0.01315535512 -0.9277358651 -0.37300542
outer loop
vertex -88.70362091 -3.972893 303.456665
vertex -89.63093567 -3.687613964 302.7144165
vertex -88.57434082 -3.766532898 302.9479675

endloop
endfacet
facet normal 0.07042910159 -0.9304454327 -0.3595981598
outer loop
vertex -88.70362091 -3.97290802 303.456665
vertex -88.57434082 -3.766532898 302.947998
vertex -87.76850891 -3.994759083 303.6963501

endloop
endfacet
facet normal 0.07153530419 -0.9299575686 -0.3606405556
outer loop
vertex -87.76850891 -3.994759083 303.6963501
vertex -88.57434082 -3.766532898 302.947998
vertex -87.62921143 -3.787940979 303.1906738

endloop
endfacet
facet normal 0.06674150378 -0.9298223853 -0.3619058132
outer loop
vertex -87.76850891 -3.994759083 303.6963501
vertex -87.62921143 -3.787940979 303.1906738
vertex -86.88330841 -4.025948048 303.9397278

endloop
endfacet
facet normal 0.06702516973 -0.9297063947 -0.362151444
outer loop
vertex -86.88330841 -4.025948048 303.9397278
vertex -87.62921143 -3.787940979 303.1906738
vertex -86.73436737 -3.819267035 303.4367065

endloop
endfacet
facet normal 0.05491342396 -0.9291828275 -0.3655186296
outer loop
vertex -86.88330841 -4.025931835 303.9397583
vertex -86.73435211 -3.819252014 303.4367371
vertex -85.97888184 -4.071846008 304.1923523

endloop
endfacet
facet normal 0.05493404344 -0.9291745424 -0.3655365109
outer loop
vertex -85.97888184 -4.071846008 304.1923523
vertex -86.73435211 -3.819252014 303.4367371
vertex -85.82836151 -3.865226984 303.6897583

endloop
endfacet
facet normal 0.06337682158 -0.9295654297 -0.3631686866
outer loop
vertex -85.97888184 -4.071846008 304.1923523
vertex -85.82836151 -3.865226984 303.6897583
vertex -85.03619385 -4.107857227 304.4490356

endloop
endfacet
facet normal 0.06301730126 -0.9297173619 -0.3628421724
outer loop
vertex -85.03619385 -4.107857227 304.4490356
vertex -85.82836151 -3.865226984 303.6897583
vertex -84.89511108 -3.901145935 303.9438782

endloop
endfacet
facet normal 0.0913798362 -0.9303248525 -0.3551695347
outer loop
vertex -85.03619385 -4.107857227 304.4490356
vertex -84.89511108 -3.901145935 303.9438782
vertex -84.06005096 -4.107535839 304.6993408

endloop
endfacet
facet normal 0.09129616618 -0.9303641915 -0.3550878465
outer loop
vertex -84.06005096 -4.107535839 304.6993408
vertex -84.89511108 -3.901145935 303.9438782
vertex -83.93582916 -3.900856018 304.1897583

endloop
endfacet
facet normal 0.1370485425 -0.9291244149 -0.3434318602
outer loop
vertex -84.06005096 -4.107535839 304.6993408
vertex -83.93582916 -3.900856018 304.1897583
vertex -83.06293488 -4.051139832 304.9446716

endloop
endfacet
facet normal 0.1372723281 -0.92900455 -0.3436667323
outer loop
vertex -83.06293488 -4.051139832 304.9446716
vertex -83.93582916 -3.900856018 304.1897583
vertex -82.95285797 -3.845055103 304.4315491

endloop
endfacet
facet normal 0.1963993758 -0.9237376451 -0.3288405836
outer loop
vertex -83.06291962 -4.051108837 304.9447021
vertex -82.95284271 -3.845038891 304.4315796
vertex -82.07058716 -3.930686951 305.1990967

endloop
endfacet
facet normal 0.1953901798 -0.9243398309 -0.3277477324
outer loop
vertex -82.07058716 -3.930686951 305.1990967
vertex -82.95284271 -3.845038891 304.4315796
vertex -81.9654007 -3.725960016 304.6844177

endloop
endfacet
facet normal 0.2516484559 -0.9158510566 -0.3128734231
outer loop
vertex -82.07058716 -3.930686951 305.1990967
vertex -81.9654007 -3.725960016 304.6844177
vertex -81.10629272 -3.757606983 305.4680481

endloop
endfacet
facet normal 0.2491950989 -0.9174141884 -0.3102468848
outer loop
vertex -81.10629272 -3.757606983 305.4680481
vertex -81.9654007 -3.725960016 304.6844177
vertex -80.99961853 -3.554497004 304.953125

endloop
endfacet
facet normal 0.2998267114 -0.9070224762 -0.295658797
outer loop
vertex -81.10629272 -3.757606983 305.4680481
vertex -80.99961853 -3.554497004 304.953125
vertex -80.16748047 -3.541954041 305.7585144

endloop
endfacet
facet normal 0.2950991988 -0.9101622701 -0.2907253504
outer loop
vertex -80.16748047 -3.541954041 305.7585144
vertex -80.99961853 -3.554497004 304.953125
vertex -80.05323029 -3.340842962 305.244873

endloop
endfacet
facet normal 0.3517280519 -0.8955856562 -0.2724219859
outer loop
vertex -80.16748047 -3.541954041 305.7585144
vertex -80.05323029 -3.340842962 305.244873
vertex -79.27209473 -3.288490057 306.0812988

endloop
endfacet
facet normal 0.3422769904 -0.9019839168 -0.2631951869
outer loop
vertex -79.27209473 -3.288490057 306.0812988
vertex -80.05323029 -3.340842962 305.244873
vertex -79.14068604 -3.090126038 305.5723877

endloop
endfacet
facet normal 0.3983331621 -0.8847411275 -0.2419997305
outer loop
vertex -79.27209473 -3.288490057 306.0812988
vertex -79.14068604 -3.090126038 305.5723877
vertex -78.47026062 -3.022651911 306.4292297

endloop
endfacet
facet normal 0.382932514 -0.8949040174 -0.2291493863
outer loop
vertex -78.47026062 -3.022651911 306.4292297
vertex -79.14068604 -3.090126038 305.5723877
vertex -78.31154633 -2.825035095 305.922699

endloop
endfacet
facet normal 0.4035812616 -0.8880976439 -0.2200107574
outer loop
vertex -78.47026825 -3.022651911 306.4292603
vertex -78.31155396 -2.825035095 305.922699
vertex -77.62924957 -2.730506897 306.7927246

endloop
endfacet
facet normal 0.4164985716 -0.8792734742 -0.2310996652
outer loop
vertex -77.62924957 -2.730506897 306.7927246
vertex -78.31155396 -2.825035095 305.922699
vertex -77.46219635 -2.523354053 306.3056335

endloop
endfacet
facet normal 0.8632138371 -0.4977389276 0.08436743915
outer loop
vertex -77.62924957 -2.730506897 306.7927246
vertex -77.46219635 -2.523354053 306.3056335
vertex -77.19828796 -1.949241996 306.9924927

endloop
endfacet
facet normal 0 0.7675059438 -0.6410418749
outer loop
vertex -77.19828796 -1.949241996 306.9924927
vertex -77.46219635 -2.523354053 306.3056335
vertex -77.19829559 -1.949241996 306.9924927

endloop
endfacet
endsolid
