solid 
facet normal -nan(ind) -nan(ind) -nan(ind)
outer loop
vertex -40.35919952 41.08156586 362.9088745
vertex -40.35919952 41.08156586 362.9088745
vertex -40.40068817 40.8842392 362.7719116

endloop
endfacet
facet normal 0.8582852483 0.158350125 -0.4881307185
outer loop
vertex -40.40068817 40.8842392 362.7719116
vertex -40.35919952 41.08156586 362.9088745
vertex -40.29334259 40.8660965 362.9547729

endloop
endfacet
facet normal 0.7915162444 -0.3520348668 -0.4995732605
outer loop
vertex -40.40068817 40.8842392 362.7719116
vertex -40.29334259 40.8660965 362.9547729
vertex -40.44095612 40.80587006 362.7633362

endloop
endfacet
facet normal 0.7066614032 -0.6139213443 -0.3517531157
outer loop
vertex -40.44095612 40.80587006 362.7633362
vertex -40.29334259 40.8660965 362.9547729
vertex -40.32837677 40.78980255 363.0175476

endloop
endfacet
facet normal 0.7164902687 -0.6003662944 -0.3552491367
outer loop
vertex -40.44095612 40.80587006 362.7633362
vertex -40.32837677 40.78980255 363.0175476
vertex -40.52509308 40.70728302 362.7602539

endloop
endfacet
facet normal 0.6535471082 -0.7058193088 -0.273304373
outer loop
vertex -40.52509308 40.70728302 362.7602539
vertex -40.32837677 40.78980255 363.0175476
vertex -40.41364288 40.68831635 363.0757446

endloop
endfacet
facet normal 0.4956863523 -0.8387086987 -0.2255275697
outer loop
vertex -40.52509308 40.70728302 362.7602539
vertex -40.41364288 40.68831635 363.0757446
vertex -40.65923309 40.61988068 362.7904663

endloop
endfacet
facet normal 0.4713976085 -0.8590018749 -0.1997497231
outer loop
vertex -40.65923309 40.61988068 362.7904663
vertex -40.41364288 40.68831635 363.0757446
vertex -40.55242157 40.59984589 363.1286926

endloop
endfacet
facet normal 0.3929308951 -0.9022678733 -0.1775328666
outer loop
vertex -40.65923309 40.61988068 362.7904663
vertex -40.55242157 40.59984589 363.1286926
vertex -40.81342316 40.54415131 362.8340759

endloop
endfacet
facet normal 0.3898306489 -0.9042181969 -0.1744176894
outer loop
vertex -40.81342316 40.54415131 362.8340759
vertex -40.55242157 40.59984589 363.1286926
vertex -40.70819855 40.5240097 363.1736755

endloop
endfacet
facet normal 0.3642709255 -0.9161598086 -0.1672063023
outer loop
vertex -40.81342316 40.54415131 362.8340759
vertex -40.70819855 40.5240097 363.1736755
vertex -40.9719162 40.47280121 362.8797302

endloop
endfacet
facet normal 0.3696137369 -0.9130244255 -0.172545895
outer loop
vertex -40.9719162 40.47280121 362.8797302
vertex -40.70819855 40.5240097 363.1736755
vertex -40.86447906 40.45262909 363.2166138

endloop
endfacet
facet normal 0.3410268128 -0.9256051779 -0.1641824394
outer loop
vertex -40.9719162 40.47280121 362.8797302
vertex -40.86447906 40.45262909 363.2166138
vertex -41.13147736 40.40552521 362.9275818

endloop
endfacet
facet normal 0.3480869234 -0.9216703773 -0.1713456511
outer loop
vertex -41.13147736 40.40552521 362.9275818
vertex -40.86447906 40.45262909 363.2166138
vertex -41.02097321 40.38527679 363.2609863

endloop
endfacet
facet normal 0.3214428425 -0.9327593446 -0.1632011831
outer loop
vertex -41.13147736 40.40554047 362.9275513
vertex -41.02098846 40.38527679 363.2609863
vertex -41.29323578 40.34087372 362.9785461

endloop
endfacet
facet normal 0.3268641233 -0.9298593998 -0.1688826829
outer loop
vertex -41.29323578 40.34087372 362.9785461
vertex -41.02098846 40.38527679 363.2609863
vertex -41.18038177 40.32059479 363.3086243

endloop
endfacet
facet normal 0.3058390915 -0.9381642938 -0.1622044295
outer loop
vertex -41.29323578 40.34087372 362.9785461
vertex -41.18038177 40.32059479 363.3086243
vertex -41.45711517 40.27822113 363.0319214

endloop
endfacet
facet normal 0.3078607619 -0.9371228218 -0.1643858552
outer loop
vertex -41.45711517 40.27822113 363.0319214
vertex -41.18038177 40.32059479 363.3086243
vertex -41.3438797 40.25792694 363.3596802

endloop
endfacet
facet normal 0.299659878 -0.9402303696 -0.1617739946
outer loop
vertex -41.45711517 40.27823639 363.0319519
vertex -41.34386444 40.2579422 363.3596802
vertex -41.61928558 40.21741486 363.0850525

endloop
endfacet
facet normal 0.2980608344 -0.9410330057 -0.1600518972
outer loop
vertex -41.61928558 40.21741486 363.0850525
vertex -41.34386444 40.2579422 363.3596802
vertex -41.50785065 40.19712067 363.4118958

endloop
endfacet
facet normal 0.2991549373 -0.940626502 -0.1603997201
outer loop
vertex -41.61928558 40.21741486 363.0850525
vertex -41.50785065 40.19712067 363.4118958
vertex -41.77919769 40.15781403 363.136322

endloop
endfacet
facet normal 0.2965925038 -0.9418943524 -0.1576957405
outer loop
vertex -41.77919769 40.15781403 363.136322
vertex -41.50785065 40.19712067 363.4118958
vertex -41.66989899 40.13751984 363.4631042

endloop
endfacet
facet normal 0.2952584624 -0.9423828721 -0.1572798789
outer loop
vertex -41.77919769 40.15781403 363.136322
vertex -41.66989899 40.13751984 363.4631042
vertex -41.93878937 40.09946442 363.1863403

endloop
endfacet
facet normal 0.2956995666 -0.9421679974 -0.1577379555
outer loop
vertex -41.93878937 40.09946442 363.1863403
vertex -41.66989899 40.13751984 363.4631042
vertex -41.82949066 40.07915497 363.5125427

endloop
endfacet
facet normal 0.2888568044 -0.9446431398 -0.1555992663
outer loop
vertex -41.93878937 40.09946442 363.1863403
vertex -41.82949066 40.07915497 363.5125427
vertex -42.10004425 40.04174042 363.2374268

endloop
endfacet
facet normal 0.2933276296 -0.9424785972 -0.1602903455
outer loop
vertex -42.10004425 40.04174042 363.2374268
vertex -41.82949066 40.07915497 363.5125427
vertex -41.98879242 40.02112579 363.5622253

endloop
endfacet
facet normal 0.2899762392 -0.9436939955 -0.1592345089
outer loop
vertex -42.10002899 40.04177094 363.2374878
vertex -41.98877716 40.02115631 363.5622559
vertex -42.26941681 39.98029327 363.2933655

endloop
endfacet
facet normal 0.2961808443 -0.9405630827 -0.1661860198
outer loop
vertex -42.26941681 39.98029327 363.2933655
vertex -41.98877716 40.02115631 363.5622559
vertex -42.15636444 39.95874786 363.6167908

endloop
endfacet
facet normal 0.2919622958 -0.9421220422 -0.1648152918
outer loop
vertex -42.26941681 39.98029327 363.2933655
vertex -42.15636444 39.95874786 363.6167908
vertex -42.4509964 39.91309357 363.355835

endloop
endfacet
facet normal 0.296323806 -0.9398102164 -0.1701441109
outer loop
vertex -42.4509964 39.91309357 363.355835
vertex -42.15636444 39.95874786 363.6167908
vertex -42.33498383 39.89139557 363.6777344

endloop
endfacet
facet normal 0.2857122719 -0.9437257648 -0.1665836424
outer loop
vertex -42.4509964 39.91309357 363.355835
vertex -42.33498383 39.89139557 363.6777344
vertex -42.63314056 39.84635162 363.4215393

endloop
endfacet
facet normal 0.2859574556 -0.9435971975 -0.16689156
outer loop
vertex -42.63314056 39.84635162 363.4215393
vertex -42.33498383 39.89139557 363.6777344
vertex -42.51753998 39.82479095 363.7415161

endloop
endfacet
facet normal 0.2176786065 -0.9653852582 -0.1436920464
outer loop
vertex -42.63314056 39.84635162 363.4215393
vertex -42.51753998 39.82479095 363.7415161
vertex -42.79184723 39.8000412 363.4922485

endloop
endfacet
facet normal 0.2121905088 -0.9675149322 -0.137441203
outer loop
vertex -42.79184723 39.8000412 363.4922485
vertex -42.51753998 39.82479095 363.7415161
vertex -42.68894196 39.77948761 363.7958069

endloop
endfacet
facet normal -0.04887720942 -0.9975033998 -0.05097059533
outer loop
vertex -42.79184723 39.8000412 363.4922485
vertex -42.68894196 39.77948761 363.7958069
vertex -42.88777924 39.80086517 363.5681152

endloop
endfacet
facet normal -0.0429722555 -0.9974985123 -0.05612679571
outer loop
vertex -42.88777924 39.80086517 363.5681152
vertex -42.68894196 39.77948761 363.7958069
vertex -42.81827545 39.78340912 363.8251343

endloop
endfacet
facet normal -0.3327748775 -0.9426492453 0.02594787441
outer loop
vertex -42.88776398 39.80086517 363.5681458
vertex -42.81827545 39.78340912 363.8251648
vertex -42.92073822 39.81388092 363.618103

endloop
endfacet
facet normal -0.1812158376 -0.9819137454 -0.05482810736
outer loop
vertex -42.92073822 39.81388092 363.618103
vertex -42.81827545 39.78340912 363.8251648
vertex -42.88399506 39.79592133 363.8182983

endloop
endfacet
facet normal -0.6562485099 -0.7526866794 0.05292180926
outer loop
vertex -42.92073822 39.81388092 363.618103
vertex -42.88399506 39.79592133 363.8182983
vertex -43.03560638 39.92476654 363.7707825

endloop
endfacet
facet normal -nan(ind) -nan(ind) -nan(ind)
outer loop
vertex -43.03560638 39.92476654 363.7707825
vertex -42.88399506 39.79592133 363.8182983
vertex -43.03560638 39.92476654 363.7707825

endloop
endfacet
facet normal -0.8511117101 -0.1531728804 0.5021423101
outer loop
vertex -40.35919952 41.08156586 362.9088745
vertex -40.35921478 41.0815506 362.908844
vertex -40.29334259 40.8660965 362.9547729

endloop
endfacet
facet normal 0.9050961137 0.1963176727 -0.3771742582
outer loop
vertex -40.29334259 40.8660965 362.9547729
vertex -40.35921478 41.0815506 362.908844
vertex -40.263237 40.92635345 363.0583801

endloop
endfacet
facet normal 0.9041342735 -0.4270064235 -0.01437531319
outer loop
vertex -40.29334259 40.8660965 362.9547729
vertex -40.263237 40.92635345 363.0583801
vertex -40.32837677 40.78980255 363.0175476

endloop
endfacet
facet normal 0.869415164 -0.4648270607 0.1674903184
outer loop
vertex -40.32837677 40.78980255 363.0175476
vertex -40.263237 40.92635345 363.0583801
vertex -40.31052399 40.87186432 363.1526184

endloop
endfacet
facet normal 0.8057832718 -0.5473707914 0.2260498852
outer loop
vertex -40.32837677 40.78980255 363.0175476
vertex -40.31052399 40.87186432 363.1526184
vertex -40.41364288 40.68831635 363.0757446

endloop
endfacet
facet normal 0.7714034319 -0.5599759817 0.3022640347
outer loop
vertex -40.41364288 40.68831635 363.0757446
vertex -40.31052399 40.87186432 363.1526184
vertex -40.40731049 40.78592682 363.2404175

endloop
endfacet
facet normal 0.5962080956 -0.7004671097 0.392277807
outer loop
vertex -40.41364288 40.68831635 363.0757446
vertex -40.40731049 40.78592682 363.2404175
vertex -40.55242157 40.59984589 363.1286926

endloop
endfacet
facet normal 0.5812579989 -0.701184988 0.4128908813
outer loop
vertex -40.55242157 40.59984589 363.1286926
vertex -40.40731049 40.78592682 363.2404175
vertex -40.5522995 40.70293427 363.3035889

endloop
endfacet
facet normal 0.4925878644 -0.7498692274 0.4416485131
outer loop
vertex -40.55242157 40.59984589 363.1286926
vertex -40.5522995 40.70293427 363.3035889
vertex -40.70819855 40.5240097 363.1736755

endloop
endfacet
facet normal 0.4906942546 -0.7498139143 0.4438448548
outer loop
vertex -40.70819855 40.5240097 363.1736755
vertex -40.5522995 40.70293427 363.3035889
vertex -40.70844269 40.62754059 363.3488464

endloop
endfacet
facet normal 0.4703606963 -0.7594186664 0.44949314
outer loop
vertex -40.70819855 40.5240097 363.1736755
vertex -40.70844269 40.62754059 363.3488464
vertex -40.86447906 40.45262909 363.2166138

endloop
endfacet
facet normal 0.4740489721 -0.7595707774 0.4453421831
outer loop
vertex -40.86447906 40.45262909 363.2166138
vertex -40.70844269 40.62754059 363.3488464
vertex -40.86159515 40.55632782 363.3904114

endloop
endfacet
facet normal 0.4576346278 -0.7668739557 0.4499721527
outer loop
vertex -40.86447906 40.45262909 363.2166138
vertex -40.86159515 40.55632782 363.3904114
vertex -41.02097321 40.38527679 363.2609863

endloop
endfacet
facet normal 0.4621399939 -0.7671760321 0.4448232055
outer loop
vertex -41.02097321 40.38527679 363.2609863
vertex -40.86159515 40.55632782 363.3904114
vertex -41.01383209 40.48923492 363.4328613

endloop
endfacet
facet normal 0.4479352236 -0.7731518149 0.4489881098
outer loop
vertex -41.02098846 40.38527679 363.2609863
vertex -41.01383209 40.48923492 363.4328613
vertex -41.18038177 40.32059479 363.3086243

endloop
endfacet
facet normal 0.4516022801 -0.7735483646 0.4446103275
outer loop
vertex -41.18038177 40.32059479 363.3086243
vertex -41.01383209 40.48923492 363.4328613
vertex -41.16934967 40.42473602 363.4786072

endloop
endfacet
facet normal 0.4385690093 -0.7787144184 0.4486212134
outer loop
vertex -41.18038177 40.32059479 363.3086243
vertex -41.16934967 40.42473602 363.4786072
vertex -41.3438797 40.25792694 363.3596802

endloop
endfacet
facet normal 0.4398111701 -0.7789069414 0.447068274
outer loop
vertex -41.3438797 40.25792694 363.3596802
vertex -41.16934967 40.42473602 363.4786072
vertex -41.33031464 40.36220551 363.5280151

endloop
endfacet
facet normal 0.4329058528 -0.7815241814 0.4492354989
outer loop
vertex -41.34386444 40.2579422 363.3596802
vertex -41.33029938 40.36223602 363.5280457
vertex -41.50785065 40.19712067 363.4118958

endloop
endfacet
facet normal 0.4316717088 -0.7813020945 0.4508063793
outer loop
vertex -41.50785065 40.19712067 363.4118958
vertex -41.33029938 40.36223602 363.5280457
vertex -41.49398041 40.30138397 363.5793152

endloop
endfacet
facet normal 0.4301715195 -0.7818579078 0.4512767792
outer loop
vertex -41.50785065 40.19712067 363.4118958
vertex -41.49398041 40.30138397 363.5793152
vertex -41.66989899 40.13751984 363.4631042

endloop
endfacet
facet normal 0.4284634888 -0.781550467 0.4534289539
outer loop
vertex -41.66989899 40.13751984 363.4631042
vertex -41.49398041 40.30138397 363.5793152
vertex -41.65671539 40.24163055 363.6300964

endloop
endfacet
facet normal 0.4266944826 -0.7822014093 0.4539744556
outer loop
vertex -41.66989899 40.13751984 363.4631042
vertex -41.65671539 40.24163055 363.6300964
vertex -41.82949066 40.07915497 363.5125427

endloop
endfacet
facet normal 0.4269327819 -0.7822420001 0.4536803067
outer loop
vertex -41.82949066 40.07915497 363.5125427
vertex -41.65671539 40.24163055 363.6300964
vertex -41.81571198 40.1832962 363.6791382

endloop
endfacet
facet normal 0.4265333712 -0.7823878527 0.4538045526
outer loop
vertex -41.82949066 40.07915497 363.5125427
vertex -41.81571198 40.1832962 363.6791382
vertex -41.98879242 40.02112579 363.5622253

endloop
endfacet
facet normal 0.4284880161 -0.7827239633 0.4513770342
outer loop
vertex -41.98879242 40.02112579 363.5622253
vertex -41.81571198 40.1832962 363.6791382
vertex -41.97229767 40.12566376 363.7278442

endloop
endfacet
facet normal 0.4364309609 -0.7798688412 0.4487011135
outer loop
vertex -41.98877716 40.02115631 363.5622559
vertex -41.97228241 40.12569427 363.7279053
vertex -42.15636444 39.95874786 363.6167908

endloop
endfacet
facet normal 0.4382298589 -0.7802453637 0.4462866187
outer loop
vertex -42.15636444 39.95874786 363.6167908
vertex -41.97228241 40.12569427 363.7279053
vertex -42.1354599 40.06439972 363.7809753

endloop
endfacet
facet normal 0.4447816014 -0.7778789997 0.4439297318
outer loop
vertex -42.15636444 39.95874786 363.6167908
vertex -42.1354599 40.06439972 363.7809753
vertex -42.33498383 39.89139557 363.6777344

endloop
endfacet
facet normal 0.4469906986 -0.778473556 0.4406567216
outer loop
vertex -42.33498383 39.89139557 363.6777344
vertex -42.1354599 40.06439972 363.7809753
vertex -42.3103714 39.99782562 363.8407898

endloop
endfacet
facet normal 0.43984887 -0.7809919715 0.4433785379
outer loop
vertex -42.33498383 39.89139557 363.6777344
vertex -42.3103714 39.99782562 363.8407898
vertex -42.51753998 39.82479095 363.7415161

endloop
endfacet
facet normal 0.4399194717 -0.7810139656 0.4432696104
outer loop
vertex -42.51753998 39.82479095 363.7415161
vertex -42.3103714 39.99782562 363.8407898
vertex -42.49292755 39.93062592 363.9035645

endloop
endfacet
facet normal 0.3617756665 -0.8047469258 0.4706384838
outer loop
vertex -42.51753998 39.82479095 363.7415161
vertex -42.49292755 39.93062592 363.9035645
vertex -42.68894196 39.77948761 363.7958069

endloop
endfacet
facet normal 0.3603258729 -0.8042556643 0.4725865722
outer loop
vertex -42.68894196 39.77948761 363.7958069
vertex -42.49292755 39.93062592 363.9035645
vertex -42.67302704 39.87726593 363.9500732

endloop
endfacet
facet normal 0.09366496652 -0.8452581167 0.5260851979
outer loop
vertex -42.68894196 39.77948761 363.7958069
vertex -42.67302704 39.87726593 363.9500732
vertex -42.81827545 39.78340912 363.8251343

endloop
endfacet
facet normal 0.1252104491 -0.8576647639 0.498731941
outer loop
vertex -42.81827545 39.78340912 363.8251343
vertex -42.67302704 39.87726593 363.9500732
vertex -42.82386017 39.85874176 363.9560852

endloop
endfacet
facet normal -0.2122102529 -0.8509086967 0.4805426002
outer loop
vertex -42.81827545 39.78340912 363.8251648
vertex -42.82387543 39.85874176 363.9560852
vertex -42.88399506 39.79592133 363.8182983

endloop
endfacet
facet normal 0.01423149742 -0.9121302962 0.4096531868
outer loop
vertex -42.88399506 39.79592133 363.8182983
vertex -42.82387543 39.85874176 363.9560852
vertex -42.90792084 39.84316254 363.9243164

endloop
endfacet
facet normal -0.668640852 -0.7235360742 0.171508193
outer loop
vertex -42.88399506 39.79592133 363.8182983
vertex -42.90792084 39.84316254 363.9243164
vertex -43.03560638 39.92476654 363.7707825

endloop
endfacet
facet normal 0.7428061366 0.5988248587 -0.2994124293
outer loop
vertex -43.03560638 39.92476654 363.7707825
vertex -42.90792084 39.84316254 363.9243164
vertex -43.03560638 39.92475128 363.770752

endloop
endfacet
facet normal 0.9100885987 0.2318850905 -0.3434647024
outer loop
vertex -40.35921478 41.0815506 362.908844
vertex -40.35919952 41.08158112 362.908905
vertex -40.263237 40.92635345 363.0583801

endloop
endfacet
facet normal 0.9126604795 0.2627104223 -0.3131042123
outer loop
vertex -40.263237 40.92635345 363.0583801
vertex -40.35919952 41.08158112 362.908905
vertex -40.26612091 41.00751495 363.1180725

endloop
endfacet
facet normal 0.9170590639 -0.2145951092 0.3360827267
outer loop
vertex -40.263237 40.92635345 363.0583801
vertex -40.26612091 41.00751495 363.1180725
vertex -40.31052399 40.87186432 363.1526184

endloop
endfacet
facet normal 0.8714388013 -0.1678800583 0.4608803391
outer loop
vertex -40.31052399 40.87186432 363.1526184
vertex -40.26612091 41.00751495 363.1180725
vertex -40.3285141 40.9743576 363.2239685

endloop
endfacet
facet normal 0.767373383 -0.2701300085 0.5815219283
outer loop
vertex -40.31052399 40.87186432 363.1526184
vertex -40.3285141 40.9743576 363.2239685
vertex -40.40731049 40.78592682 363.2404175

endloop
endfacet
facet normal 0.7341409922 -0.251955986 0.6305197477
outer loop
vertex -40.40731049 40.78592682 363.2404175
vertex -40.3285141 40.9743576 363.2239685
vertex -40.43846893 40.9076767 363.3253479

endloop
endfacet
facet normal 0.5440965295 -0.3818961382 0.7470704913
outer loop
vertex -40.40731049 40.78592682 363.2404175
vertex -40.43846893 40.9076767 363.3253479
vertex -40.5522995 40.70293427 363.3035889

endloop
endfacet
facet normal 0.5298708081 -0.375410378 0.7604629993
outer loop
vertex -40.5522995 40.70293427 363.3035889
vertex -40.43846893 40.9076767 363.3253479
vertex -40.58916473 40.8314743 363.3927307

endloop
endfacet
facet normal 0.4353615642 -0.4253724813 0.7934220433
outer loop
vertex -40.5522995 40.70293427 363.3035889
vertex -40.58916473 40.8314743 363.3927307
vertex -40.70844269 40.62754059 363.3488464

endloop
endfacet
facet normal 0.4334589541 -0.4245754182 0.7948893309
outer loop
vertex -40.70844269 40.62754059 363.3488464
vertex -40.58916473 40.8314743 363.3927307
vertex -40.74520111 40.75667572 363.4378662

endloop
endfacet
facet normal 0.4177986681 -0.4320347309 0.7992435694
outer loop
vertex -40.70844269 40.62754059 363.3488464
vertex -40.74520111 40.75667572 363.4378662
vertex -40.86159515 40.55632782 363.3904114

endloop
endfacet
facet normal 0.4215530753 -0.4335530102 0.7964450717
outer loop
vertex -40.86159515 40.55632782 363.3904114
vertex -40.74520111 40.75667572 363.4378662
vertex -40.89540863 40.68569183 363.4787292

endloop
endfacet
facet normal 0.414973855 -0.4365227222 0.7982760668
outer loop
vertex -40.86159515 40.55632782 363.3904114
vertex -40.89540863 40.68569183 363.4787292
vertex -41.01383209 40.48923492 363.4328613

endloop
endfacet
facet normal 0.4195010364 -0.4384507537 0.7948457599
outer loop
vertex -41.01383209 40.48923492 363.4328613
vertex -40.89540863 40.68569183 363.4787292
vertex -41.04366302 40.61891937 363.5201416

endloop
endfacet
facet normal 0.4164546132 -0.4397830665 0.7957112193
outer loop
vertex -41.01383209 40.48923492 363.4328613
vertex -41.04364777 40.61891937 363.5201416
vertex -41.16934967 40.42473602 363.4786072

endloop
endfacet
facet normal 0.4201734662 -0.4415605068 0.7927663326
outer loop
vertex -41.16934967 40.42473602 363.4786072
vertex -41.04364777 40.61891937 363.5201416
vertex -41.19541168 40.55466461 363.5647888

endloop
endfacet
facet normal 0.4159294963 -0.4432647824 0.7940522432
outer loop
vertex -41.16934967 40.42473602 363.4786072
vertex -41.19541168 40.55466461 363.5647888
vertex -41.33031464 40.36220551 363.5280151

endloop
endfacet
facet normal 0.4171608686 -0.4439330101 0.7930323482
outer loop
vertex -41.33031464 40.36220551 363.5280151
vertex -41.19541168 40.55466461 363.5647888
vertex -41.35352325 40.49233246 363.6130676

endloop
endfacet
facet normal 0.4141652584 -0.4451130331 0.7939404845
outer loop
vertex -41.33029938 40.36223602 363.5280457
vertex -41.353508 40.49234772 363.6130981
vertex -41.49398041 40.30138397 363.5793152

endloop
endfacet
facet normal 0.4128947556 -0.4443691075 0.7950183153
outer loop
vertex -41.49398041 40.30138397 363.5793152
vertex -41.353508 40.49234772 363.6130981
vertex -41.51621246 40.43141937 363.6635437

endloop
endfacet
facet normal 0.411560446 -0.4448654354 0.7954324484
outer loop
vertex -41.49398041 40.30138397 363.5793152
vertex -41.51621246 40.43141937 363.6635437
vertex -41.65671539 40.24163055 363.6300964

endloop
endfacet
facet normal 0.4099158347 -0.4438931048 0.7968236208
outer loop
vertex -41.65671539 40.24163055 363.6300964
vertex -41.51621246 40.43141937 363.6635437
vertex -41.67900848 40.37152863 363.7139282

endloop
endfacet
facet normal 0.4088764191 -0.4442777634 0.7971432805
outer loop
vertex -41.65671539 40.24163055 363.6300964
vertex -41.67900848 40.37152863 363.7139282
vertex -41.81571198 40.1832962 363.6791382

endloop
endfacet
facet normal 0.4091406465 -0.4444290102 0.7969232798
outer loop
vertex -41.81571198 40.1832962 363.6791382
vertex -41.67900848 40.37152863 363.7139282
vertex -41.83730316 40.31319427 363.7626648

endloop
endfacet
facet normal 0.4110229611 -0.4437400103 0.7963383794
outer loop
vertex -41.81571198 40.1832962 363.6791382
vertex -41.83730316 40.31319427 363.7626648
vertex -41.97229767 40.12566376 363.7278442

endloop
endfacet
facet normal 0.4127155244 -0.4446965456 0.7949281931
outer loop
vertex -41.97229767 40.12566376 363.7278442
vertex -41.83730316 40.31319427 363.7626648
vertex -41.99137115 40.2561264 363.81073

endloop
endfacet
facet normal 0.4230847061 -0.4410156012 0.7915204763
outer loop
vertex -41.97228241 40.12569427 363.7279053
vertex -41.9913559 40.25615692 363.810791
vertex -42.1354599 40.06439972 363.7809753

endloop
endfacet
facet normal 0.4241730571 -0.4416848123 0.7905641794
outer loop
vertex -42.1354599 40.06439972 363.7809753
vertex -41.9913559 40.25615692 363.810791
vertex -42.14997101 40.19652557 363.8625793

endloop
endfacet
facet normal 0.4356081784 -0.4378867447 0.7864481211
outer loop
vertex -42.1354599 40.06439972 363.7809753
vertex -42.14997101 40.19652557 363.8625793
vertex -42.3103714 39.99782562 363.8407898

endloop
endfacet
facet normal 0.4381720424 -0.439689517 0.7840143442
outer loop
vertex -42.3103714 39.99782562 363.8407898
vertex -42.14997101 40.19652557 363.8625793
vertex -42.32152557 40.13091278 363.9216614

endloop
endfacet
facet normal 0.4327731729 -0.4413839579 0.7860581279
outer loop
vertex -42.3103714 39.99782562 363.8407898
vertex -42.32152557 40.13091278 363.9216614
vertex -42.49292755 39.93062592 363.9035645

endloop
endfacet
facet normal 0.4329074621 -0.4414869845 0.7859264016
outer loop
vertex -42.49292755 39.93062592 363.9035645
vertex -42.32152557 40.13091278 363.9216614
vertex -42.50392914 40.06293488 363.9839478

endloop
endfacet
facet normal 0.3480512798 -0.4654552937 0.8137638569
outer loop
vertex -42.49292755 39.93062592 363.9035645
vertex -42.50392914 40.06293488 363.9839478
vertex -42.67302704 39.87726593 363.9500732

endloop
endfacet
facet normal 0.346175462 -0.464040041 0.8153707385
outer loop
vertex -42.67302704 39.87726593 363.9500732
vertex -42.50392914 40.06293488 363.9839478
vertex -42.689888 39.99976349 364.026947

endloop
endfacet
facet normal 0.09762005508 -0.5193397999 0.8489738107
outer loop
vertex -42.67302704 39.87726593 363.9500732
vertex -42.689888 39.99976349 364.026947
vertex -42.82386017 39.85874176 363.9560852

endloop
endfacet
facet normal 0.1219867319 -0.5357328057 0.8355295658
outer loop
vertex -42.82386017 39.85874176 363.9560852
vertex -42.689888 39.99976349 364.026947
vertex -42.85451508 39.95375824 364.0214844

endloop
endfacet
facet normal -0.1845005602 -0.5968961716 0.780816555
outer loop
vertex -42.82387543 39.85874176 363.9560852
vertex -42.85449982 39.95375824 364.0214844
vertex -42.90792084 39.84316254 363.9243164

endloop
endfacet
facet normal -0.009468366392 -0.6574149132 0.7534692287
outer loop
vertex -42.90792084 39.84316254 363.9243164
vertex -42.85449982 39.95375824 364.0214844
vertex -42.9512558 39.90807343 363.9804077

endloop
endfacet
facet normal -0.7054835558 -0.6701878309 0.2305238694
outer loop
vertex -42.90792084 39.84316254 363.9243164
vertex -42.9512558 39.90807343 363.9804077
vertex -43.03560638 39.92475128 363.770752

endloop
endfacet
facet normal -0.8615919948 -0.398067683 0.3149624765
outer loop
vertex -43.03560638 39.92475128 363.770752
vertex -42.9512558 39.90807343 363.9804077
vertex -43.03559113 39.92476654 363.770813

endloop
endfacet
facet normal -0.6700999141 -0.7414139509 0.03565700725
outer loop
vertex -40.35919952 41.08158112 362.908905
vertex -40.35918427 41.08156586 362.9088745
vertex -40.26612091 41.00751495 363.1180725

endloop
endfacet
facet normal 0.8978159428 0.3409480751 -0.2787132263
outer loop
vertex -40.26612091 41.00751495 363.1180725
vertex -40.35918427 41.08156586 362.9088745
vertex -40.29355621 41.09757233 363.1398621

endloop
endfacet
facet normal 0.8369244337 0.1261006892 0.5325937867
outer loop
vertex -40.26612091 41.00751495 363.1180725
vertex -40.29355621 41.09757233 363.1398621
vertex -40.3285141 40.9743576 363.2239685

endloop
endfacet
facet normal 0.7783435583 0.1880581975 0.5990121365
outer loop
vertex -40.3285141 40.9743576 363.2239685
vertex -40.29355621 41.09757233 363.1398621
vertex -40.36949921 41.080513 363.2438965

endloop
endfacet
facet normal 0.639416039 0.103858307 0.7618140578
outer loop
vertex -40.3285141 40.9743576 363.2239685
vertex -40.36949921 41.080513 363.2438965
vertex -40.43846893 40.9076767 363.3253479

endloop
endfacet
facet normal 0.6064537168 0.1278326958 0.7847754955
outer loop
vertex -40.43846893 40.9076767 363.3253479
vertex -40.36949921 41.080513 363.2438965
vertex -40.49234772 41.033638 363.3464661

endloop
endfacet
facet normal 0.4006251693 0.01777917892 0.9160695672
outer loop
vertex -40.43846893 40.9076767 363.3253479
vertex -40.49234772 41.033638 363.3464661
vertex -40.58916473 40.8314743 363.3927307

endloop
endfacet
facet normal 0.3857060373 0.02633741125 0.9222457409
outer loop
vertex -40.58916473 40.8314743 363.3927307
vertex -40.49234772 41.033638 363.3464661
vertex -40.6478653 40.96446991 363.4134827

endloop
endfacet
facet normal 0.2877011299 -0.02241355181 0.9574579
outer loop
vertex -40.58916473 40.8314743 363.3927307
vertex -40.6478653 40.96446991 363.4134827
vertex -40.74520111 40.75667572 363.4378662

endloop
endfacet
facet normal 0.2850177586 -0.02105885744 0.958290875
outer loop
vertex -40.74520111 40.75667572 363.4378662
vertex -40.6478653 40.96446991 363.4134827
vertex -40.80345917 40.89029694 363.4581299

endloop
endfacet
facet normal 0.2739824057 -0.02633776702 0.9613739252
outer loop
vertex -40.74520111 40.75667572 363.4378662
vertex -40.80345917 40.89029694 363.4581299
vertex -40.89540863 40.68569183 363.4787292

endloop
endfacet
facet normal 0.2779485881 -0.0282403063 0.9601806998
outer loop
vertex -40.89540863 40.68569183 363.4787292
vertex -40.80345917 40.89029694 363.4581299
vertex -40.9511795 40.81952667 363.4988098

endloop
endfacet
facet normal 0.2802701592 -0.02717620321 0.9595363736
outer loop
vertex -40.89540863 40.68569183 363.4787292
vertex -40.9511795 40.81952667 363.4988098
vertex -41.04366302 40.61891937 363.5201416

endloop
endfacet
facet normal 0.2858955562 -0.02995505556 0.9577924609
outer loop
vertex -41.04366302 40.61891937 363.5201416
vertex -40.9511795 40.81952667 363.4988098
vertex -41.09606171 40.75307465 363.539978

endloop
endfacet
facet normal 0.292560339 -0.02681707777 0.955870986
outer loop
vertex -41.04364777 40.61891937 363.5201416
vertex -41.09606171 40.75307465 363.5399475
vertex -41.19541168 40.55466461 363.5647888

endloop
endfacet
facet normal 0.2968783379 -0.02915459126 0.9544701576
outer loop
vertex -41.19541168 40.55466461 363.5647888
vertex -41.09606171 40.75307465 363.5399475
vertex -41.24451447 40.68907928 363.5841675

endloop
endfacet
facet normal 0.3017130494 -0.02717810124 0.9530113935
outer loop
vertex -41.19541168 40.55466461 363.5647888
vertex -41.24451447 40.68907928 363.5841675
vertex -41.35352325 40.49233246 363.6130676

endloop
endfacet
facet normal 0.3036596477 -0.02835252509 0.9523586035
outer loop
vertex -41.35352325 40.49233246 363.6130676
vertex -41.24451447 40.68907928 363.5841675
vertex -41.39981842 40.62693024 363.6318359

endloop
endfacet
facet normal 0.3054578006 -0.02765669487 0.951803863
outer loop
vertex -41.353508 40.49234772 363.6130981
vertex -41.39980316 40.6269455 363.6318665
vertex -41.51621246 40.43141937 363.6635437

endloop
endfacet
facet normal 0.3039945066 -0.02670521103 0.9522994161
outer loop
vertex -41.51621246 40.43141937 363.6635437
vertex -41.39980316 40.6269455 363.6318665
vertex -41.56118011 40.56595612 363.6816711

endloop
endfacet
facet normal 0.3044497371 -0.02653409913 0.9521587491
outer loop
vertex -41.51621246 40.43141937 363.6635437
vertex -41.56118011 40.56595612 363.6816711
vertex -41.67900848 40.37152863 363.7139282

endloop
endfacet
facet normal 0.3019446433 -0.0248762127 0.9530009031
outer loop
vertex -41.67900848 40.37152863 363.7139282
vertex -41.56118011 40.56595612 363.6816711
vertex -41.72360992 40.50591278 363.7315674

endloop
endfacet
facet normal 0.302462101 -0.02468358353 0.9528417587
outer loop
vertex -41.67900848 40.37152863 363.7139282
vertex -41.72360992 40.50591278 363.7315674
vertex -41.83730316 40.31319427 363.7626648

endloop
endfacet
facet normal 0.3025235534 -0.02472315356 0.9528211951
outer loop
vertex -41.83730316 40.31319427 363.7626648
vertex -41.72360992 40.50591278 363.7315674
vertex -41.8812027 40.44759369 363.7800903

endloop
endfacet
facet normal 0.3056789935 -0.02356564254 0.9518429041
outer loop
vertex -41.83730316 40.31319427 363.7626648
vertex -41.8812027 40.44759369 363.7800903
vertex -41.99137115 40.2561264 363.81073

endloop
endfacet
facet normal 0.3089967072 -0.02565480955 0.9507169724
outer loop
vertex -41.99137115 40.2561264 363.81073
vertex -41.8812027 40.44759369 363.7800903
vertex -42.0331192 40.39113617 363.8279419

endloop
endfacet
facet normal 0.3178775609 -0.02233128436 0.9478687048
outer loop
vertex -41.9913559 40.25615692 363.810791
vertex -42.03310394 40.39116669 363.8279724
vertex -42.14997101 40.19652557 363.8625793

endloop
endfacet
facet normal 0.3206490874 -0.02416945808 0.9468896389
outer loop
vertex -42.14997101 40.19652557 363.8625793
vertex -42.03310394 40.39116669 363.8279724
vertex -42.18750763 40.33339691 363.8787842

endloop
endfacet
facet normal 0.3325324953 -0.0204346031 0.9428703785
outer loop
vertex -42.14997101 40.19652557 363.8625793
vertex -42.18750763 40.33339691 363.8787842
vertex -42.32152557 40.13091278 363.9216614

endloop
endfacet
facet normal 0.335156858 -0.0223778002 0.9418964982
outer loop
vertex -42.32152557 40.13091278 363.9216614
vertex -42.18750763 40.33339691 363.8787842
vertex -42.35631561 40.26880646 363.9373169

endloop
endfacet
facet normal 0.3309328854 -0.02360952832 0.9433588982
outer loop
vertex -42.32152557 40.13091278 363.9216614
vertex -42.35631561 40.26880646 363.9373169
vertex -42.50392914 40.06293488 363.9839478

endloop
endfacet
facet normal 0.3310181201 -0.02367781289 0.9433273077
outer loop
vertex -42.50392914 40.06293488 363.9839478
vertex -42.35631561 40.26880646 363.9373169
vertex -42.53847504 40.20005035 363.9995117

endloop
endfacet
facet normal 0.2408896089 -0.0493333824 0.9692979455
outer loop
vertex -42.50392914 40.06293488 363.9839478
vertex -42.53847504 40.20005035 363.9995117
vertex -42.689888 39.99976349 364.026947

endloop
endfacet
facet normal 0.23827824 -0.04725669324 0.9700465202
outer loop
vertex -42.689888 39.99976349 364.026947
vertex -42.53847504 40.20005035 363.9995117
vertex -42.72768402 40.12679291 364.0424194

endloop
endfacet
facet normal 0.0007842630148 -0.1206782609 0.9926913977
outer loop
vertex -42.689888 39.99976349 364.026947
vertex -42.72768402 40.12679291 364.0424194
vertex -42.85451508 39.95375824 364.0214844

endloop
endfacet
facet normal 0.0115045784 -0.1284105629 0.9916543365
outer loop
vertex -42.85451508 39.95375824 364.0214844
vertex -42.72768402 40.12679291 364.0424194
vertex -42.89939117 40.05272675 364.0348206

endloop
endfacet
facet normal -0.2758679688 -0.250189811 0.9280635118
outer loop
vertex -42.85449982 39.95375824 364.0214844
vertex -42.89939117 40.05272675 364.0348206
vertex -42.9512558 39.90807343 363.9804077

endloop
endfacet
facet normal -0.1574435085 -0.2977332771 0.9415765405
outer loop
vertex -42.9512558 39.90807343 363.9804077
vertex -42.89939117 40.05272675 364.0348206
vertex -43.00562286 39.98073578 363.9942932

endloop
endfacet
facet normal -0.7506828904 -0.6101079583 0.2534628808
outer loop
vertex -42.9512558 39.90807343 363.9804077
vertex -43.00562286 39.98073578 363.9942932
vertex -43.03559113 39.92476654 363.770813

endloop
endfacet
facet normal 0 -0.9700410962 0.2429407835
outer loop
vertex -43.03559113 39.92476654 363.770813
vertex -43.00562286 39.98073578 363.9942932
vertex -43.03560638 39.92476654 363.770813

endloop
endfacet
facet normal 0 0.997607708 -0.06913003325
outer loop
vertex -40.35918427 41.08156586 362.9088745
vertex -40.35919952 41.08156586 362.9088745
vertex -40.29355621 41.09757233 363.1398621

endloop
endfacet
facet normal 0.8633514643 0.4232882559 -0.2746840715
outer loop
vertex -40.29355621 41.09757233 363.1398621
vertex -40.35919952 41.08156586 362.9088745
vertex -40.34325409 41.18576813 363.1195679

endloop
endfacet
facet normal 0.6582065821 0.5003342032 0.5625209212
outer loop
vertex -40.29355621 41.09757233 363.1398621
vertex -40.34325409 41.18576813 363.1195679
vertex -40.36949921 41.080513 363.2438965

endloop
endfacet
facet normal 0.6116688251 0.5354183316 0.5823988914
outer loop
vertex -40.36949921 41.080513 363.2438965
vertex -40.34325409 41.18576813 363.1195679
vertex -40.42870331 41.18114471 363.213562

endloop
endfacet
facet normal 0.4425761402 0.4872951806 0.7527746558
outer loop
vertex -40.36949921 41.080513 363.2438965
vertex -40.42870331 41.18114471 363.213562
vertex -40.49234772 41.033638 363.3464661

endloop
endfacet
facet normal 0.4136595726 0.5044136047 0.7579265833
outer loop
vertex -40.49234772 41.033638 363.3464661
vertex -40.42870331 41.18114471 363.213562
vertex -40.5630722 41.15299225 363.3056335

endloop
endfacet
facet normal 0.1955980659 0.4192094207 0.8865691423
outer loop
vertex -40.49234772 41.033638 363.3464661
vertex -40.5630722 41.15299225 363.3056335
vertex -40.6478653 40.96446991 363.4134827

endloop
endfacet
facet normal 0.1796529889 0.4263607562 0.8865333796
outer loop
vertex -40.6478653 40.96446991 363.4134827
vertex -40.5630722 41.15299225 363.3056335
vertex -40.72214508 41.09050751 363.3679199

endloop
endfacet
facet normal 0.08238512278 0.3813990653 0.9207320213
outer loop
vertex -40.6478653 40.96446991 363.4134827
vertex -40.72214508 41.09050751 363.3679199
vertex -40.80345917 40.89029694 363.4581299

endloop
endfacet
facet normal 0.079852283 0.3823505342 0.9205605388
outer loop
vertex -40.80345917 40.89029694 363.4581299
vertex -40.72214508 41.09050751 363.3679199
vertex -40.87708282 41.01691437 363.4119263

endloop
endfacet
facet normal 0.07256609946 0.3788597882 0.9226046801
outer loop
vertex -40.80345917 40.89029694 363.4581299
vertex -40.87708282 41.01691437 363.4119263
vertex -40.9511795 40.81952667 363.4988098

endloop
endfacet
facet normal 0.07699300349 0.377318114 0.9228776693
outer loop
vertex -40.9511795 40.81952667 363.4988098
vertex -40.87708282 41.01691437 363.4119263
vertex -41.02294159 40.94635773 363.4529419

endloop
endfacet
facet normal 0.0864161551 0.3816957474 0.9202394485
outer loop
vertex -40.9511795 40.81952667 363.4988098
vertex -41.02294159 40.94635773 363.4529419
vertex -41.09606171 40.75307465 363.539978

endloop
endfacet
facet normal 0.09261953086 0.3794882894 0.9205489159
outer loop
vertex -41.09606171 40.75307465 363.539978
vertex -41.02294159 40.94635773 363.4529419
vertex -41.16527557 40.88019562 363.4945374

endloop
endfacet
facet normal 0.1067811623 0.3855702579 0.9164788127
outer loop
vertex -41.09606171 40.75307465 363.5399475
vertex -41.16527557 40.88018036 363.4945374
vertex -41.24451447 40.68907928 363.5841675

endloop
endfacet
facet normal 0.111810796 0.3835926056 0.916708827
outer loop
vertex -41.24451447 40.68907928 363.5841675
vertex -41.16527557 40.88018036 363.4945374
vertex -41.31116486 40.8164444 363.5390015

endloop
endfacet
facet normal 0.124556765 0.3888860643 0.9128270745
outer loop
vertex -41.24451447 40.68907928 363.5841675
vertex -41.31116486 40.8164444 363.5390015
vertex -41.39981842 40.62693024 363.6318359

endloop
endfacet
facet normal 0.1258781254 0.3883011341 0.912894845
outer loop
vertex -41.39981842 40.62693024 363.6318359
vertex -41.31116486 40.8164444 363.5390015
vertex -41.4640274 40.75443268 363.5864563

endloop
endfacet
facet normal 0.1331229657 0.3913389742 0.9105668664
outer loop
vertex -41.39980316 40.6269455 363.6318665
vertex -41.46401215 40.75444794 363.5864563
vertex -41.56118011 40.56595612 363.6816711

endloop
endfacet
facet normal 0.1316772252 0.3920384645 0.9104762077
outer loop
vertex -41.56118011 40.56595612 363.6816711
vertex -41.46401215 40.75444794 363.5864563
vertex -41.62378693 40.693367 363.6358643

endloop
endfacet
facet normal 0.1341770738 0.3929882646 0.909701407
outer loop
vertex -41.56118011 40.56595612 363.6816711
vertex -41.62378693 40.693367 363.6358643
vertex -41.72360992 40.50591278 363.7315674

endloop
endfacet
facet normal 0.132453382 0.3938457966 0.9095831513
outer loop
vertex -41.72360992 40.50591278 363.7315674
vertex -41.62378693 40.693367 363.6358643
vertex -41.78543854 40.6332016 363.6854553

endloop
endfacet
facet normal 0.1339619905 0.3944099247 0.9091176987
outer loop
vertex -41.72360992 40.50591278 363.7315674
vertex -41.78543854 40.6332016 363.6854553
vertex -41.8812027 40.44759369 363.7800903

endloop
endfacet
facet normal 0.134315595 0.3942387402 0.9091397524
outer loop
vertex -41.8812027 40.44759369 363.7800903
vertex -41.78543854 40.6332016 363.6854553
vertex -41.94237518 40.57491302 363.7339172

endloop
endfacet
facet normal 0.1388014108 0.3958891928 0.9077476859
outer loop
vertex -41.8812027 40.44759369 363.7800903
vertex -41.94237518 40.57491302 363.7339172
vertex -42.0331192 40.39113617 363.8279419

endloop
endfacet
facet normal 0.1425497532 0.3941323161 0.9079313278
outer loop
vertex -42.0331192 40.39113617 363.8279419
vertex -41.94237518 40.57491302 363.7339172
vertex -42.09267426 40.51911163 363.7817383

endloop
endfacet
facet normal 0.1497301757 0.3964718282 0.9057543278
outer loop
vertex -42.03310394 40.39116669 363.8279724
vertex -42.092659 40.51914215 363.7817993
vertex -42.18750763 40.33339691 363.8787842

endloop
endfacet
facet normal 0.1547721624 0.3940145671 0.9059790969
outer loop
vertex -42.18750763 40.33339691 363.8787842
vertex -42.092659 40.51914215 363.7817993
vertex -42.24355316 40.46326447 363.8318787

endloop
endfacet
facet normal 0.1617670506 0.3962403536 0.9037837386
outer loop
vertex -42.18750763 40.33339691 363.8787842
vertex -42.24355316 40.46326447 363.8318787
vertex -42.35631561 40.26880646 363.9373169

endloop
endfacet
facet normal 0.1659936011 0.3939231038 0.904030323
outer loop
vertex -42.35631561 40.26880646 363.9373169
vertex -42.24355316 40.46326447 363.8318787
vertex -42.41040802 40.39966583 363.8902283

endloop
endfacet
facet normal 0.1610626578 0.3924377859 0.9055668712
outer loop
vertex -42.35631561 40.26880646 363.9373169
vertex -42.41040802 40.39966583 363.8902283
vertex -42.53847504 40.20005035 363.9995117

endloop
endfacet
facet normal 0.1611671001 0.3923754394 0.905575335
outer loop
vertex -42.53847504 40.20005035 363.9995117
vertex -42.41040802 40.39966583 363.8902283
vertex -42.59226227 40.33011627 363.9527283

endloop
endfacet
facet normal 0.07008327544 0.3631650805 0.9290853143
outer loop
vertex -42.53847504 40.20005035 363.9995117
vertex -42.59226227 40.33011627 363.9527283
vertex -42.72768402 40.12679291 364.0424194

endloop
endfacet
facet normal 0.06521751732 0.3660606444 0.9283028841
outer loop
vertex -42.72768402 40.12679291 364.0424194
vertex -42.59226227 40.33011627 363.9527283
vertex -42.78206635 40.24745941 363.9986572

endloop
endfacet
facet normal -0.1594444662 0.2722845376 0.9489143491
outer loop
vertex -42.72768402 40.12679291 364.0424194
vertex -42.78206635 40.24745941 363.9986572
vertex -42.89939117 40.05272675 364.0348206

endloop
endfacet
facet normal -0.1650794446 0.2753367424 0.9470683336
outer loop
vertex -42.89939117 40.05272675 364.0348206
vertex -42.78206635 40.24745941 363.9986572
vertex -42.9539566 40.14702606 363.9978943

endloop
endfacet
facet normal -0.4189193547 0.1108169034 0.9012358785
outer loop
vertex -42.89939117 40.05272675 364.0348206
vertex -42.9539566 40.1470108 363.9978638
vertex -43.00562286 39.98073578 363.9942932

endloop
endfacet
facet normal -0.3763236105 0.09714862704 0.9213809371
outer loop
vertex -43.00562286 39.98073578 363.9942932
vertex -42.9539566 40.1470108 363.9978638
vertex -43.06453705 40.05266571 363.9626465

endloop
endfacet
facet normal -0.8001118302 -0.547747314 0.2445279956
outer loop
vertex -43.00562286 39.98073578 363.9942932
vertex -43.06453705 40.05266571 363.9626465
vertex -43.03560638 39.92476654 363.770813

endloop
endfacet
facet normal -0.6736761332 -0.6577587128 0.3369184434
outer loop
vertex -43.03560638 39.92476654 363.770813
vertex -43.06453705 40.05266571 363.9626465
vertex -43.03562164 39.92476654 363.7707825

endloop
endfacet
facet normal 0.6779907346 -0.6779907346 0.2840019166
outer loop
vertex -40.35919952 41.08156586 362.9088745
vertex -40.35918427 41.08158112 362.9088745
vertex -40.34325409 41.18576813 363.1195679

endloop
endfacet
facet normal 0.8138808608 0.4940292239 -0.305831641
outer loop
vertex -40.34325409 41.18576813 363.1195679
vertex -40.35918427 41.08158112 362.9088745
vertex -40.41043854 41.25458527 363.0519409

endloop
endfacet
facet normal 0.4127030671 0.8107995987 0.4150664806
outer loop
vertex -40.34325409 41.18576813 363.1195679
vertex -40.41043854 41.25458527 363.0519409
vertex -40.42870331 41.18114471 363.213562

endloop
endfacet
facet normal 0.4254871607 0.8048199415 0.4137940407
outer loop
vertex -40.42870331 41.18114471 363.213562
vertex -40.41043854 41.25458527 363.0519409
vertex -40.50406647 41.26584625 363.1263123

endloop
endfacet
facet normal 0.2259238809 0.7892275453 0.5710325837
outer loop
vertex -40.42870331 41.18114471 363.213562
vertex -40.50406647 41.26584625 363.1263123
vertex -40.5630722 41.15299225 363.3056335

endloop
endfacet
facet normal 0.203852877 0.7969389558 0.5686231852
outer loop
vertex -40.5630722 41.15299225 363.3056335
vertex -40.50406647 41.26584625 363.1263123
vertex -40.64740753 41.25356293 363.1949158

endloop
endfacet
facet normal -0.02093837038 0.7320606709 0.6809176207
outer loop
vertex -40.5630722 41.15299225 363.3056335
vertex -40.64740753 41.25356293 363.1949158
vertex -40.72214508 41.09050751 363.3679199

endloop
endfacet
facet normal -0.0373784788 0.735221982 0.6767950058
outer loop
vertex -40.72214508 41.09050751 363.3679199
vertex -40.64740753 41.25356293 363.1949158
vertex -40.80815887 41.19667816 363.2478333

endloop
endfacet
facet normal -0.129309848 0.6951099038 0.7071784735
outer loop
vertex -40.72214508 41.09050751 363.3679199
vertex -40.80815887 41.19667816 363.2478333
vertex -40.87708282 41.01691437 363.4119263

endloop
endfacet
facet normal -0.1325135529 0.6954715848 0.7062289715
outer loop
vertex -40.87708282 41.01691437 363.4119263
vertex -40.80815887 41.19667816 363.2478333
vertex -40.96218109 41.12354279 363.2909546

endloop
endfacet
facet normal -0.1365690827 0.6935269833 0.7073677778
outer loop
vertex -40.87708282 41.01691437 363.4119263
vertex -40.96218109 41.12354279 363.2909546
vertex -41.02294159 40.94635773 363.4529419

endloop
endfacet
facet normal -0.1309596449 0.6930230856 0.7089207768
outer loop
vertex -41.02294159 40.94635773 363.4529419
vertex -40.96218109 41.12354279 363.2909546
vertex -41.10710907 41.05316925 363.3329773

endloop
endfacet
facet normal -0.11866761 0.6987814307 0.7054236531
outer loop
vertex -41.02294159 40.94635773 363.4529419
vertex -41.10710907 41.05316925 363.3329773
vertex -41.16527557 40.88019562 363.4945374

endloop
endfacet
facet normal -0.1117482334 0.6981198192 0.7072064877
outer loop
vertex -41.16527557 40.88019562 363.4945374
vertex -41.10710907 41.05316925 363.3329773
vertex -41.24814606 40.9872818 363.3757324

endloop
endfacet
facet normal -0.09436158836 0.7057970166 0.7021014094
outer loop
vertex -41.16527557 40.88018036 363.4945374
vertex -41.24816132 40.9872818 363.3757324
vertex -41.31116486 40.8164444 363.5390015

endloop
endfacet
facet normal -0.08887930214 0.7051137686 0.7035019994
outer loop
vertex -41.31116486 40.8164444 363.5390015
vertex -41.24816132 40.9872818 363.3757324
vertex -41.39255524 40.9237442 363.4211731

endloop
endfacet
facet normal -0.07210826874 0.7121445537 0.6983198524
outer loop
vertex -41.31116486 40.8164444 363.5390015
vertex -41.39255524 40.9237442 363.4211731
vertex -41.4640274 40.75443268 363.5864563

endloop
endfacet
facet normal -0.07008223236 0.7118166685 0.6988601685
outer loop
vertex -41.4640274 40.75443268 363.5864563
vertex -41.39255524 40.9237442 363.4211731
vertex -41.5435257 40.86186981 363.4690552

endloop
endfacet
facet normal -0.05873343349 0.7161750197 0.6954451203
outer loop
vertex -41.46401215 40.75444794 363.5864563
vertex -41.5435257 40.86190033 363.4690857
vertex -41.62378693 40.693367 363.6358643

endloop
endfacet
facet normal -0.06038833782 0.7164956927 0.6949727535
outer loop
vertex -41.62378693 40.693367 363.6358643
vertex -41.5435257 40.86190033 363.4690857
vertex -41.70159149 40.8007431 363.5184021

endloop
endfacet
facet normal -0.05480297282 0.7186329365 0.6932267547
outer loop
vertex -41.62378693 40.693367 363.6358643
vertex -41.70159149 40.8007431 363.5184021
vertex -41.78543854 40.6332016 363.6854553

endloop
endfacet
facet normal -0.05743784085 0.719176352 0.6924493909
outer loop
vertex -41.78543854 40.6332016 363.6854553
vertex -41.70159149 40.8007431 363.5184021
vertex -41.86209869 40.74044037 363.5677185

endloop
endfacet
facet normal -0.0540747419 0.7204376459 0.6914083958
outer loop
vertex -41.78543854 40.6332016 363.6854553
vertex -41.86209869 40.74044037 363.5677185
vertex -41.94237518 40.57491302 363.7339172

endloop
endfacet
facet normal -0.05364409089 0.720351994 0.6915311217
outer loop
vertex -41.94237518 40.57491302 363.7339172
vertex -41.86209869 40.74044037 363.5677185
vertex -42.01850128 40.68218231 363.616272

endloop
endfacet
facet normal -0.04860610142 0.7222092748 0.6899645925
outer loop
vertex -41.94237518 40.57491302 363.7339172
vertex -42.01850128 40.68218231 363.616272
vertex -42.09267426 40.51911163 363.7817383

endloop
endfacet
facet normal -0.04358683527 0.7212662697 0.6912851334
outer loop
vertex -42.09267426 40.51911163 363.7817383
vertex -42.01850128 40.68218231 363.616272
vertex -42.1680069 40.62702179 363.6643982

endloop
endfacet
facet normal -0.03882548586 0.7230138779 0.6897415519
outer loop
vertex -42.092659 40.51914215 363.7817993
vertex -42.16799164 40.62703705 363.6644592
vertex -42.24355316 40.46326447 363.8318787

endloop
endfacet
facet normal -0.03024872951 0.7213128209 0.6919485331
outer loop
vertex -42.24355316 40.46326447 363.8318787
vertex -42.16799164 40.62703705 363.6644592
vertex -42.31652069 40.57291412 363.714386

endloop
endfacet
facet normal -0.03244313598 0.720572412 0.6926202774
outer loop
vertex -42.24355316 40.46326447 363.8318787
vertex -42.31652069 40.57291412 363.714386
vertex -42.41040802 40.39966583 363.8902283

endloop
endfacet
facet normal -0.02685411833 0.7192156911 0.6942677498
outer loop
vertex -42.41040802 40.39966583 363.8902283
vertex -42.31652069 40.57291412 363.714386
vertex -42.48252106 40.51015472 363.7729797

endloop
endfacet
facet normal -0.03465339541 0.7166118026 0.6966108084
outer loop
vertex -42.41040802 40.39966583 363.8902283
vertex -42.48252106 40.51015472 363.7729797
vertex -42.59226227 40.33011627 363.9527283

endloop
endfacet
facet normal -0.0345332846 0.7165786028 0.6966508627
outer loop
vertex -42.59226227 40.33011627 363.9527283
vertex -42.48252106 40.51015472 363.7729797
vertex -42.66402435 40.43993378 363.8362122

endloop
endfacet
facet normal -0.1233143806 0.6831326485 0.7198079228
outer loop
vertex -42.59226227 40.33011627 363.9527283
vertex -42.66402435 40.43993378 363.8362122
vertex -42.78206635 40.24745941 363.9986572

endloop
endfacet
facet normal -0.1307957321 0.6850569844 0.7166515589
outer loop
vertex -42.78206635 40.24745941 363.9986572
vertex -42.66402435 40.43993378 363.8362122
vertex -42.8511734 40.34941864 363.8885803

endloop
endfacet
facet normal -0.3389960229 0.5745276809 0.7449829578
outer loop
vertex -42.78206635 40.24745941 363.9986572
vertex -42.8511734 40.34941864 363.8885803
vertex -42.9539566 40.14702606 363.9978943

endloop
endfacet
facet normal -0.3606418967 0.5783637762 0.7317327261
outer loop
vertex -42.9539566 40.14702606 363.9978943
vertex -42.8511734 40.34941864 363.8885803
vertex -43.01486969 40.22699738 363.9046631

endloop
endfacet
facet normal -0.5704047084 0.4009812474 0.7168350816
outer loop
vertex -42.9539566 40.1470108 363.9978638
vertex -43.01485443 40.22699738 363.9046631
vertex -43.06453705 40.05266571 363.9626465

endloop
endfacet
facet normal -0.6113551855 0.4011199474 0.6821638942
outer loop
vertex -43.06453705 40.05266571 363.9626465
vertex -43.01485443 40.22699738 363.9046631
vertex -43.11725616 40.10990143 363.8817444

endloop
endfacet
facet normal -0.8458014131 -0.4938769341 0.2017562389
outer loop
vertex -43.06453705 40.05266571 363.9626465
vertex -43.11725616 40.10990143 363.8817444
vertex -43.03562164 39.92476654 363.7707825

endloop
endfacet
facet normal 0.5609995127 0.5933547616 -0.5772431493
outer loop
vertex -43.03562164 39.92476654 363.7707825
vertex -43.11725616 40.10990143 363.8817444
vertex -43.03560638 39.9247818 363.770813

endloop
endfacet
facet normal -0.8895516992 0.1042700857 -0.4447758496
outer loop
vertex -40.35918427 41.08158112 362.9088745
vertex -40.35919952 41.08158112 362.908905
vertex -40.41043854 41.25458527 363.0519409

endloop
endfacet
facet normal 0.7590091228 0.5334339142 -0.3733007908
outer loop
vertex -40.41043854 41.25458527 363.0519409
vertex -40.35919952 41.08158112 362.908905
vertex -40.47588348 41.27605438 362.9495544

endloop
endfacet
facet normal 0.186194554 0.9787232876 0.08621091396
outer loop
vertex -40.41043854 41.25458527 363.0519409
vertex -40.47588348 41.27605438 362.9495544
vertex -40.50406647 41.26584625 363.1263123

endloop
endfacet
facet normal 0.2629716694 0.9598782063 0.09736422449
outer loop
vertex -40.50406647 41.26584625 363.1263123
vertex -40.47588348 41.27605438 362.9495544
vertex -40.57407379 41.29846954 362.9937744

endloop
endfacet
facet normal 0.02495787852 0.9736947417 0.2264854461
outer loop
vertex -40.50406647 41.26584625 363.1263123
vertex -40.57407379 41.29846954 362.9937744
vertex -40.64740753 41.25356293 363.1949158

endloop
endfacet
facet normal 0.01420390699 0.9747601151 0.2228025347
outer loop
vertex -40.64740753 41.25356293 363.1949158
vertex -40.57407379 41.29846954 362.9937744
vertex -40.71968842 41.29238129 363.0296936

endloop
endfacet
facet normal -0.2230384946 0.9227284789 0.3143659532
outer loop
vertex -40.64740753 41.25356293 363.1949158
vertex -40.71968842 41.29238129 363.0296936
vertex -40.80815887 41.19667816 363.2478333

endloop
endfacet
facet normal -0.2376309484 0.9212924242 0.3078177273
outer loop
vertex -40.80815887 41.19667816 363.2478333
vertex -40.71968842 41.29238129 363.0296936
vertex -40.87903595 41.23770905 363.0703125

endloop
endfacet
facet normal -0.3261490166 0.8841320276 0.3345704973
outer loop
vertex -40.80815887 41.19667816 363.2478333
vertex -40.87903595 41.23770905 363.0703125
vertex -40.96218109 41.12354279 363.2909546

endloop
endfacet
facet normal -0.3289901316 0.8835895658 0.3332192004
outer loop
vertex -40.96218109 41.12354279 363.2909546
vertex -40.87903595 41.23770905 363.0703125
vertex -41.03212738 41.16475677 363.1126099

endloop
endfacet
facet normal -0.3316071928 0.8823325038 0.3339551091
outer loop
vertex -40.96218109 41.12354279 363.2909546
vertex -41.03212738 41.16475677 363.1126099
vertex -41.10710907 41.05316925 363.3329773

endloop
endfacet
facet normal -0.3263451457 0.8834069967 0.3362897038
outer loop
vertex -41.10710907 41.05316925 363.3329773
vertex -41.03212738 41.16475677 363.1126099
vertex -41.17771149 41.09444427 363.1560364

endloop
endfacet
facet normal -0.3144187927 0.8890209198 0.3328404129
outer loop
vertex -41.10710907 41.05316925 363.3329773
vertex -41.17771149 41.09444427 363.1560364
vertex -41.24814606 40.9872818 363.3757324

endloop
endfacet
facet normal -0.3071010411 0.8904357553 0.3358766735
outer loop
vertex -41.24814606 40.9872818 363.3757324
vertex -41.17771149 41.09444427 363.1560364
vertex -41.31963348 41.02867889 363.2006226

endloop
endfacet
facet normal -0.290877372 0.897708714 0.3309221864
outer loop
vertex -41.24816132 40.9872818 363.3757324
vertex -41.31961823 41.02867889 363.2006226
vertex -41.39255524 40.9237442 363.4211731

endloop
endfacet
facet normal -0.2851647437 0.8986725211 0.3332699239
outer loop
vertex -41.39255524 40.9237442 363.4211731
vertex -41.31961823 41.02867889 363.2006226
vertex -41.46453094 40.96523285 363.2477112

endloop
endfacet
facet normal -0.2674412727 0.9061384797 0.3277015388
outer loop
vertex -41.39255524 40.9237442 363.4211731
vertex -41.46453094 40.96523285 363.2477112
vertex -41.5435257 40.86186981 363.4690552

endloop
endfacet
facet normal -0.2652665079 0.906444788 0.3286207318
outer loop
vertex -41.5435257 40.86186981 363.4690552
vertex -41.46453094 40.96523285 363.2477112
vertex -41.61508942 40.90340424 363.2967224

endloop
endfacet
facet normal -0.2516689003 0.9118950367 0.3242069781
outer loop
vertex -41.5435257 40.86190033 363.4690857
vertex -41.61508942 40.90341949 363.2967529
vertex -41.70159149 40.8007431 363.5184021

endloop
endfacet
facet normal -0.2533707917 0.9116927981 0.323449105
outer loop
vertex -41.70159149 40.8007431 363.5184021
vertex -41.61508942 40.90341949 363.2967529
vertex -41.77187347 40.84223175 363.346405

endloop
endfacet
facet normal -0.2451324463 0.9148594141 0.3208465874
outer loop
vertex -41.70159149 40.8007431 363.5184021
vertex -41.77187347 40.84223175 363.346405
vertex -41.86209869 40.74044037 363.5677185

endloop
endfacet
facet normal -0.2475101501 0.9146001935 0.3197580576
outer loop
vertex -41.86209869 40.74044037 363.5677185
vertex -41.77187347 40.84223175 363.346405
vertex -41.93114471 40.7818985 363.3956909

endloop
endfacet
facet normal -0.2425784171 0.9164540768 0.3182253838
outer loop
vertex -41.86209869 40.74044037 363.5677185
vertex -41.93114471 40.7818985 363.3956909
vertex -42.01850128 40.68218231 363.616272

endloop
endfacet
facet normal -0.2421174645 0.9165048003 0.3184308708
outer loop
vertex -42.01850128 40.68218231 363.616272
vertex -41.93114471 40.7818985 363.3956909
vertex -42.08737946 40.72367096 363.4444885

endloop
endfacet
facet normal -0.2368817627 0.9184366465 0.3167981505
outer loop
vertex -42.01850128 40.68218231 363.616272
vertex -42.08737946 40.72367096 363.4444885
vertex -42.1680069 40.62702179 363.6643982

endloop
endfacet
facet normal -0.2322758734 0.9189504981 0.3187126517
outer loop
vertex -42.1680069 40.62702179 363.6643982
vertex -42.08737946 40.72367096 363.4444885
vertex -42.2374649 40.66880035 363.4933167

endloop
endfacet
facet normal -0.228593111 0.9202703238 0.3175652027
outer loop
vertex -42.16799164 40.62703705 363.6644592
vertex -42.23744965 40.66883087 363.4933472
vertex -42.31652069 40.57291412 363.714386

endloop
endfacet
facet normal -0.2208268195 0.9210810065 0.3206951618
outer loop
vertex -42.31652069 40.57291412 363.714386
vertex -42.23744965 40.66883087 363.4933472
vertex -42.38599396 40.61565399 363.5437927

endloop
endfacet
facet normal -0.232216239 0.9170044661 0.3243121505
outer loop
vertex -42.31652069 40.57291412 363.714386
vertex -42.38599396 40.61565399 363.5437927
vertex -42.48252106 40.51015472 363.7729797

endloop
endfacet
facet normal -0.2272260636 0.9174377322 0.326613307
outer loop
vertex -42.48252106 40.51015472 363.7729797
vertex -42.38599396 40.61565399 363.5437927
vertex -42.55292511 40.55319977 363.6030884

endloop
endfacet
facet normal -0.2383292764 0.9133363962 0.3301754296
outer loop
vertex -42.48252106 40.51015472 363.7729797
vertex -42.55292511 40.55319977 363.6030884
vertex -42.66402435 40.43993378 363.8362122

endloop
endfacet
facet normal -0.2381566912 0.9133493304 0.3302639723
outer loop
vertex -42.66402435 40.43993378 363.8362122
vertex -42.55292511 40.55319977 363.6030884
vertex -42.73413849 40.48271942 363.6673279

endloop
endfacet
facet normal -0.3240516484 0.8762841821 0.3565339744
outer loop
vertex -42.66402435 40.43993378 363.8362122
vertex -42.73413849 40.48271942 363.6673279
vertex -42.8511734 40.34941864 363.8885803

endloop
endfacet
facet normal -0.3326181769 0.8751741648 0.351333797
outer loop
vertex -42.8511734 40.34941864 363.8885803
vertex -42.73413849 40.48271942 363.6673279
vertex -42.91518402 40.38933563 363.7285461

endloop
endfacet
facet normal -0.5241823792 0.7531360388 0.3975161016
outer loop
vertex -42.8511734 40.34941864 363.8885803
vertex -42.91518402 40.38933563 363.7285461
vertex -43.01486969 40.22699738 363.9046631

endloop
endfacet
facet normal -0.5578789115 0.7432248592 0.369307369
outer loop
vertex -43.01486969 40.22699738 363.9046631
vertex -42.91518402 40.38933563 363.7285461
vertex -43.06238556 40.25873566 363.7690125

endloop
endfacet
facet normal -0.7301778793 0.5626885891 0.3875845671
outer loop
vertex -43.01485443 40.22699738 363.9046631
vertex -43.06240082 40.25873566 363.7690125
vertex -43.11725616 40.10990143 363.8817444

endloop
endfacet
facet normal -0.8107007146 0.5127850771 0.2825171053
outer loop
vertex -43.11725616 40.10990143 363.8817444
vertex -43.06240082 40.25873566 363.7690125
vertex -43.1444931 40.1293869 363.768219

endloop
endfacet
facet normal -0.8759196997 -0.4644933343 0.1304245442
outer loop
vertex -43.11725616 40.10990143 363.8817444
vertex -43.1444931 40.1293869 363.768219
vertex -43.03560638 39.9247818 363.770813

endloop
endfacet
facet normal -0.02381611429 0 0.9997164011
outer loop
vertex -43.03560638 39.9247818 363.770813
vertex -43.1444931 40.1293869 363.768219
vertex -43.03560638 39.92476654 363.770813

endloop
endfacet
facet normal -0.3289803863 0 -0.9443367124
outer loop
vertex -40.35919952 41.08158112 362.908905
vertex -40.35919952 41.08156586 362.908905
vertex -40.47588348 41.27605438 362.9495544

endloop
endfacet
facet normal 0.7081061602 0.5237990022 -0.4735189378
outer loop
vertex -40.47588348 41.27605438 362.9495544
vertex -40.35919952 41.08156586 362.908905
vertex -40.514534 41.23307037 362.8442078

endloop
endfacet
facet normal 0.03518600017 0.9207375646 -0.3885926902
outer loop
vertex -40.47588348 41.27605438 362.9495544
vertex -40.514534 41.23307037 362.8442078
vertex -40.57407379 41.29846954 362.9937744

endloop
endfacet
facet normal 0.1039457172 0.9258024096 -0.3634352982
outer loop
vertex -40.57407379 41.29846954 362.9937744
vertex -40.514534 41.23307037 362.8442078
vertex -40.6084671 41.24713898 362.8531799

endloop
endfacet
facet normal -0.1171243563 0.9417745471 -0.3151867986
outer loop
vertex -40.57407379 41.29846954 362.9937744
vertex -40.6084671 41.24713898 362.8531799
vertex -40.71968842 41.29238129 363.0296936

endloop
endfacet
facet normal -0.1161434874 0.942076683 -0.3146461844
outer loop
vertex -40.71968842 41.29238129 363.0296936
vertex -40.6084671 41.24713898 362.8531799
vertex -40.74628448 41.23148346 362.8571777

endloop
endfacet
facet normal -0.371671021 0.8919244409 -0.2575488985
outer loop
vertex -40.71968842 41.29238129 363.0296936
vertex -40.74628448 41.23148346 362.8571777
vertex -40.87903595 41.23770905 363.0703125

endloop
endfacet
facet normal -0.3835279346 0.8847750425 -0.2647251785
outer loop
vertex -40.87903595 41.23770905 363.0703125
vertex -40.74628448 41.23148346 362.8571777
vertex -40.9005661 41.17336273 362.8864441

endloop
endfacet
facet normal -0.4710448384 0.8483422995 -0.2417274117
outer loop
vertex -40.87903595 41.23770905 363.0703125
vertex -40.9005661 41.17336273 362.8864441
vertex -41.03212738 41.16475677 363.1126099

endloop
endfacet
facet normal -0.4731951058 0.8467697501 -0.2430380583
outer loop
vertex -41.03212738 41.16475677 363.1126099
vertex -40.9005661 41.17336273 362.8864441
vertex -41.05309296 41.1001358 362.9282837

endloop
endfacet
facet normal -0.4794679582 0.8437430859 -0.2412634939
outer loop
vertex -41.03212738 41.16475677 363.1126099
vertex -41.05309296 41.1001358 362.9282837
vertex -41.17771149 41.09444427 363.1560364

endloop
endfacet
facet normal -0.4749573767 0.8470131755 -0.2387137562
outer loop
vertex -41.17771149 41.09444427 363.1560364
vertex -41.05309296 41.1001358 362.9282837
vertex -41.20119476 41.02973175 362.9731445

endloop
endfacet
facet normal -0.4692681432 0.8497039676 -0.2403964102
outer loop
vertex -41.17771149 41.09444427 363.1560364
vertex -41.20119476 41.02973175 362.9731445
vertex -41.31963348 41.02867889 363.2006226

endloop
endfacet
facet normal -0.4632349312 0.853892684 -0.2372357994
outer loop
vertex -41.31963348 41.02867889 363.2006226
vertex -41.20119476 41.02973175 362.9731445
vertex -41.34656525 40.96379852 363.0196838

endloop
endfacet
facet normal -0.4537698328 0.8581258655 -0.2402349114
outer loop
vertex -41.31961823 41.02867889 363.2006226
vertex -41.34654999 40.96378326 363.0196838
vertex -41.46453094 40.96523285 363.2477112

endloop
endfacet
facet normal -0.4488187134 0.8614308834 -0.2376942039
outer loop
vertex -41.46453094 40.96523285 363.2477112
vertex -41.34654999 40.96378326 363.0196838
vertex -41.49451447 40.90021515 363.0686951

endloop
endfacet
facet normal -0.4349783659 0.8672742248 -0.2421346009
outer loop
vertex -41.46453094 40.96523285 363.2477112
vertex -41.49451447 40.90021515 363.0686951
vertex -41.61508942 40.90340424 363.2967224

endloop
endfacet
facet normal -0.4330040812 0.8685470819 -0.2411084473
outer loop
vertex -41.61508942 40.90340424 363.2967224
vertex -41.49451447 40.90021515 363.0686951
vertex -41.6468277 40.83831024 363.1192322

endloop
endfacet
facet normal -0.4189634919 0.874117434 -0.2457403243
outer loop
vertex -41.61508942 40.90341949 363.2967529
vertex -41.64681244 40.8383255 363.1192932
vertex -41.77187347 40.84223175 363.346405

endloop
endfacet
facet normal -0.4203422666 0.8732455373 -0.2464845479
outer loop
vertex -41.77187347 40.84223175 363.346405
vertex -41.64681244 40.8383255 363.1192932
vertex -41.80341339 40.77718353 363.1697388

endloop
endfacet
facet normal -0.4096720219 0.8773373961 -0.249896124
outer loop
vertex -41.77187347 40.84223175 363.346405
vertex -41.80341339 40.77718353 363.1697388
vertex -41.93114471 40.7818985 363.3956909

endloop
endfacet
facet normal -0.4118270278 0.8759875894 -0.2510861754
outer loop
vertex -41.93114471 40.7818985 363.3956909
vertex -41.80341339 40.77718353 363.1697388
vertex -41.96181488 40.71691132 363.2192688

endloop
endfacet
facet normal -0.4062292278 0.878095448 -0.25283584
outer loop
vertex -41.93114471 40.7818985 363.3956909
vertex -41.96181488 40.71691132 363.2192688
vertex -42.08737946 40.72367096 363.4444885

endloop
endfacet
facet normal -0.4060766995 0.8781897426 -0.2527535856
outer loop
vertex -42.08737946 40.72367096 363.4444885
vertex -41.96181488 40.71691132 363.2192688
vertex -42.11847687 40.658638 363.2684937

endloop
endfacet
facet normal -0.4038266242 0.8790234923 -0.2534593344
outer loop
vertex -42.08737946 40.72367096 363.4444885
vertex -42.11847687 40.658638 363.2684937
vertex -42.2374649 40.66880035 363.4933167

endloop
endfacet
facet normal -0.4004912972 0.8810284734 -0.2517847419
outer loop
vertex -42.2374649 40.66880035 363.4933167
vertex -42.11847687 40.658638 363.2684937
vertex -42.27077484 40.60361481 363.3182068

endloop
endfacet
facet normal -0.4008304179 0.8808944821 -0.25171417
outer loop
vertex -42.23744965 40.66883087 363.4933472
vertex -42.27075958 40.60364532 363.3182678
vertex -42.38599396 40.61565399 363.5437927

endloop
endfacet
facet normal -0.3976926208 0.882743299 -0.2502093017
outer loop
vertex -42.38599396 40.61565399 363.5437927
vertex -42.27075958 40.60364532 363.3182678
vertex -42.42253876 40.54991913 363.3699646

endloop
endfacet
facet normal -0.4147169292 0.8765465021 -0.2442867905
outer loop
vertex -42.38599396 40.61565399 363.5437927
vertex -42.42253876 40.54991913 363.3699646
vertex -42.55292511 40.55319977 363.6030884

endloop
endfacet
facet normal -0.4110928774 0.8788045645 -0.2422916144
outer loop
vertex -42.55292511 40.55319977 363.6030884
vertex -42.42253876 40.54991913 363.3699646
vertex -42.59252167 40.48703766 363.4302979

endloop
endfacet
facet normal -0.424082309 0.8739397526 -0.2374522537
outer loop
vertex -42.55292511 40.55319977 363.6030884
vertex -42.59252167 40.48703766 363.4302979
vertex -42.73413849 40.48271942 363.6673279

endloop
endfacet
facet normal -0.4237961173 0.8741258383 -0.2372778505
outer loop
vertex -42.73413849 40.48271942 363.6673279
vertex -42.59252167 40.48703766 363.4302979
vertex -42.77365875 40.41695404 363.495636

endloop
endfacet
facet normal -0.5026842952 0.8395933509 -0.2058918178
outer loop
vertex -42.73413849 40.48271942 363.6673279
vertex -42.77365875 40.41695404 363.495636
vertex -42.91518402 40.38933563 363.7285461

endloop
endfacet
facet normal -0.5112867355 0.832873106 -0.2119159102
outer loop
vertex -42.91518402 40.38933563 363.7285461
vertex -42.77365875 40.41695404 363.495636
vertex -42.9464035 40.32863617 363.5653076

endloop
endfacet
facet normal -0.6783073545 0.7215893269 -0.1385927647
outer loop
vertex -42.91518402 40.38933563 363.7285461
vertex -42.9464035 40.32863617 363.5653076
vertex -43.06238556 40.25873566 363.7690125

endloop
endfacet
facet normal -0.7150722146 0.676820457 -0.1748875976
outer loop
vertex -43.06238556 40.25873566 363.7690125
vertex -42.9464035 40.32863617 363.5653076
vertex -43.07260895 40.21218109 363.6306458

endloop
endfacet
facet normal -0.8381407857 0.5326538086 -0.1174733862
outer loop
vertex -43.06240082 40.25873566 363.7690125
vertex -43.07259369 40.21218109 363.6306458
vertex -43.1444931 40.1293869 363.768219

endloop
endfacet
facet normal -0.8890673518 0.3988997042 -0.2245846987
outer loop
vertex -43.1444931 40.1293869 363.768219
vertex -43.07259369 40.21218109 363.6306458
vertex -43.13156891 40.09645844 363.6585693

endloop
endfacet
facet normal -0.882383585 -0.4690844417 0.03686408699
outer loop
vertex -43.1444931 40.1293869 363.768219
vertex -43.13156891 40.09645844 363.6585693
vertex -43.03560638 39.92476654 363.770813

endloop
endfacet
facet normal -0.8728734851 -0.4879465103 0
outer loop
vertex -43.03560638 39.92476654 363.770813
vertex -43.13156891 40.09645844 363.6585693
vertex -43.03560638 39.92476654 363.7707825

endloop
endfacet
facet normal 0.6982263327 0.7158771157 -0
outer loop
vertex -40.35919952 41.08156586 362.908905
vertex -40.35919952 41.08156586 362.9088745
vertex -40.514534 41.23307037 362.8442078

endloop
endfacet
facet normal 0.6900593638 0.4740850031 -0.5468651652
outer loop
vertex -40.514534 41.23307037 362.8442078
vertex -40.35919952 41.08156586 362.9088745
vertex -40.52243805 41.15709686 362.7683716

endloop
endfacet
facet normal 0.03769901395 0.703997314 -0.7092013359
outer loop
vertex -40.514534 41.23307037 362.8442078
vertex -40.52243805 41.15709686 362.7683716
vertex -40.6084671 41.24713898 362.8531799

endloop
endfacet
facet normal 0.1144291312 0.7368752956 -0.6662737131
outer loop
vertex -40.6084671 41.24713898 362.8531799
vertex -40.52243805 41.15709686 362.7683716
vertex -40.60779572 41.1548996 362.7512817

endloop
endfacet
facet normal -0.103103742 0.7370809317 -0.6678931713
outer loop
vertex -40.6084671 41.24713898 362.8531799
vertex -40.60779572 41.1548996 362.7512817
vertex -40.74628448 41.23148346 362.8571777

endloop
endfacet
facet normal -0.1014078483 0.7384357452 -0.6666551828
outer loop
vertex -40.74628448 41.23148346 362.8571777
vertex -40.60779572 41.1548996 362.7512817
vertex -40.73342133 41.12197113 362.7339172

endloop
endfacet
facet normal -0.3745823205 0.6733862758 -0.6373688579
outer loop
vertex -40.74628448 41.23148346 362.8571777
vertex -40.73342133 41.12197113 362.7339172
vertex -40.9005661 41.17336273 362.8864441

endloop
endfacet
facet normal -0.3831561506 0.662904799 -0.643232882
outer loop
vertex -40.9005661 41.17336273 362.8864441
vertex -40.73342133 41.12197113 362.7339172
vertex -40.88178253 41.05774689 362.7561035

endloop
endfacet
facet normal -0.4708841145 0.6251888871 -0.622420311
outer loop
vertex -40.9005661 41.17336273 362.8864441
vertex -40.88178253 41.05774689 362.7561035
vertex -41.05309296 41.1001358 362.9282837

endloop
endfacet
facet normal -0.4725429416 0.6228597164 -0.6234973669
outer loop
vertex -41.05309296 41.1001358 362.9282837
vertex -40.88178253 41.05774689 362.7561035
vertex -41.03417206 40.9839859 362.7979126

endloop
endfacet
facet normal -0.4819729924 0.6183043122 -0.6208074689
outer loop
vertex -41.05309296 41.1001358 362.9282837
vertex -41.03417206 40.9839859 362.7979126
vertex -41.20119476 41.02973175 362.9731445

endloop
endfacet
facet normal -0.4787176251 0.6227613688 -0.6188681722
outer loop
vertex -41.20119476 41.02973175 362.9731445
vertex -41.03417206 40.9839859 362.7979126
vertex -41.1852951 40.91336823 362.84375

endloop
endfacet
facet normal -0.4801403284 0.6220909357 -0.618440032
outer loop
vertex -41.20119476 41.02973175 362.9731445
vertex -41.1852951 40.91336823 362.84375
vertex -41.34656525 40.96379852 363.0196838

endloop
endfacet
facet normal -0.4759646058 0.6275278926 -0.6161708236
outer loop
vertex -41.34656525 40.96379852 363.0196838
vertex -41.1852951 40.91336823 362.84375
vertex -41.3347702 40.84716034 362.8917847

endloop
endfacet
facet normal -0.4742141366 0.6283102632 -0.6167228818
outer loop
vertex -41.34654999 40.96378326 363.0196838
vertex -41.33475494 40.84714508 362.8917847
vertex -41.49451447 40.90021515 363.0686951

endloop
endfacet
facet normal -0.4706504047 0.6328061223 -0.6148532629
outer loop
vertex -41.49451447 40.90021515 363.0686951
vertex -41.33475494 40.84714508 362.8917847
vertex -41.48653412 40.78333282 362.9422913

endloop
endfacet
facet normal -0.4632590115 0.6359114647 -0.6172581315
outer loop
vertex -41.49451447 40.90021515 363.0686951
vertex -41.48653412 40.78333282 362.9422913
vertex -41.6468277 40.83831024 363.1192322

endloop
endfacet
facet normal -0.4617249966 0.6378025413 -0.6164560318
outer loop
vertex -41.6468277 40.83831024 363.1192322
vertex -41.48653412 40.78333282 362.9422913
vertex -41.64156342 40.72127533 362.9942017

endloop
endfacet
facet normal -0.4505218565 0.6424278021 -0.6199327707
outer loop
vertex -41.64681244 40.8383255 363.1192932
vertex -41.64154816 40.72130585 362.9942017
vertex -41.80341339 40.77718353 363.1697388

endloop
endfacet
facet normal -0.4515880942 0.6411280632 -0.6205022335
outer loop
vertex -41.80341339 40.77718353 363.1697388
vertex -41.64154816 40.72130585 362.9942017
vertex -41.79877472 40.66024017 363.0455322

endloop
endfacet
facet normal -0.4406621754 0.6453004479 -0.624022603
outer loop
vertex -41.80341339 40.77718353 363.1697388
vertex -41.79877472 40.66024017 363.0455322
vertex -41.96181488 40.71691132 363.2192688

endloop
endfacet
facet normal -0.4422672093 0.6433556676 -0.6248944402
outer loop
vertex -41.96181488 40.71691132 363.2192688
vertex -41.79877472 40.66024017 363.0455322
vertex -41.95679474 40.60010529 363.095459

endloop
endfacet
facet normal -0.4369315207 0.6453650594 -0.626573801
outer loop
vertex -41.96181488 40.71691132 363.2192688
vertex -41.95679474 40.60010529 363.095459
vertex -42.11847687 40.658638 363.2684937

endloop
endfacet
facet normal -0.4367284477 0.6456071734 -0.6264659762
outer loop
vertex -42.11847687 40.658638 363.2684937
vertex -41.95679474 40.60010529 363.095459
vertex -42.1140976 40.54181671 363.14505

endloop
endfacet
facet normal -0.4375463724 0.6453037858 -0.6262078285
outer loop
vertex -42.11847687 40.658638 363.2684937
vertex -42.1140976 40.54181671 363.14505
vertex -42.27077484 40.60361481 363.3182068

endloop
endfacet
facet normal -0.4358636737 0.647244513 -0.6253778338
outer loop
vertex -42.27077484 40.60361481 363.3182068
vertex -42.1140976 40.54181671 363.14505
vertex -42.26902008 40.48628998 363.1955566

endloop
endfacet
facet normal -0.4409075081 0.6455083489 -0.6236341
outer loop
vertex -42.27075958 40.60364532 363.3182678
vertex -42.26900482 40.4863205 363.1955872
vertex -42.42253876 40.54991913 363.3699646

endloop
endfacet
facet normal -0.4398151934 0.6467454433 -0.6231235266
outer loop
vertex -42.42253876 40.54991913 363.3699646
vertex -42.26900482 40.4863205 363.1955872
vertex -42.42523956 40.43120575 363.2486572

endloop
endfacet
facet normal -0.4562078416 0.6410548687 -0.6171897054
outer loop
vertex -42.42253876 40.54991913 363.3699646
vertex -42.42523956 40.43120575 363.2486572
vertex -42.59252167 40.48703766 363.4302979

endloop
endfacet
facet normal -0.4544179142 0.6432570219 -0.6162181497
outer loop
vertex -42.59252167 40.48703766 363.4302979
vertex -42.42523956 40.43120575 363.2486572
vertex -42.59868622 40.36743927 363.3099976

endloop
endfacet
facet normal -0.4675536156 0.6387469769 -0.6110613346
outer loop
vertex -42.59252167 40.48703766 363.4302979
vertex -42.59868622 40.36743927 363.3099976
vertex -42.77365875 40.41695404 363.495636

endloop
endfacet
facet normal -0.4673238695 0.6390458941 -0.6109244227
outer loop
vertex -42.77365875 40.41695404 363.495636
vertex -42.59868622 40.36743927 363.3099976
vertex -42.77991486 40.29807281 363.3760681

endloop
endfacet
facet normal -0.5441209674 0.6090356708 -0.5770683885
outer loop
vertex -42.77365875 40.41695404 363.495636
vertex -42.77991486 40.29807281 363.3760681
vertex -42.9464035 40.32863617 363.5653076

endloop
endfacet
facet normal -0.5509519577 0.5986812115 -0.5814058185
outer loop
vertex -42.9464035 40.32863617 363.5653076
vertex -42.77991486 40.29807281 363.3760681
vertex -42.94548798 40.21866608 363.4512024

endloop
endfacet
facet normal -0.7147815228 0.5006793737 -0.4882700443
outer loop
vertex -42.9464035 40.32863617 363.5653076
vertex -42.94548798 40.21866608 363.4512024
vertex -43.07260895 40.21218109 363.6306458

endloop
endfacet
facet normal -0.7468646169 0.4220939279 -0.5138383508
outer loop
vertex -43.07260895 40.21218109 363.6306458
vertex -42.94548798 40.21866608 363.4512024
vertex -43.05417633 40.12699127 363.5338745

endloop
endfacet
facet normal -0.8380317688 0.3205401003 -0.441539228
outer loop
vertex -43.07259369 40.21218109 363.6306458
vertex -43.05419159 40.12699127 363.5338745
vertex -43.13156891 40.09645844 363.6585693

endloop
endfacet
facet normal -0.8559049368 0.08771381527 -0.509640038
outer loop
vertex -43.13156891 40.09645844 363.6585693
vertex -43.05419159 40.12699127 363.5338745
vertex -43.09374237 40.03610992 363.5846558

endloop
endfacet
facet normal -0.8636556864 -0.5031150579 -0.03121024556
outer loop
vertex -43.13156891 40.09645844 363.6585693
vertex -43.09374237 40.03610992 363.5846558
vertex -43.03560638 39.92476654 363.7707825

endloop
endfacet
facet normal -nan(ind) -nan(ind) -nan(ind)
outer loop
vertex -43.03560638 39.92476654 363.7707825
vertex -43.09374237 40.03610992 363.5846558
vertex -43.03560638 39.92476654 363.7707825

endloop
endfacet
facet normal -0.6241539121 -0.6988172531 0.3494086266
outer loop
vertex -40.35919952 41.0815506 362.908844
vertex -40.35919952 41.08156586 362.9088745
vertex -40.52243805 41.1570816 362.7683105

endloop
endfacet
facet normal 0.6978110671 0.3895024061 -0.6011219025
outer loop
vertex -40.52243805 41.1570816 362.7683105
vertex -40.35919952 41.08156586 362.9088745
vertex -40.4983139 41.05428314 362.7297058

endloop
endfacet
facet normal 0.1719948947 0.38144508 -0.9082496166
outer loop
vertex -40.52243805 41.1570816 362.7683105
vertex -40.4983139 41.05428314 362.7297058
vertex -40.60781097 41.15488434 362.7512207

endloop
endfacet
facet normal 0.2142019868 0.4215838313 -0.881126821
outer loop
vertex -40.60781097 41.15488434 362.7512207
vertex -40.4983139 41.05428314 362.7297058
vertex -40.5701828 41.02771759 362.6995239

endloop
endfacet
facet normal 0.02688056603 0.3832771778 -0.9232421517
outer loop
vertex -40.60781097 41.15488434 362.7512207
vertex -40.5701828 41.02771759 362.6995239
vertex -40.73343658 41.12194061 362.7338867

endloop
endfacet
facet normal 0.02165657282 0.375447154 -0.9265907407
outer loop
vertex -40.73343658 41.12194061 362.7338867
vertex -40.5701828 41.02771759 362.6995239
vertex -40.68004608 40.97093964 362.6739502

endloop
endfacet
facet normal -0.2580520213 0.2762342691 -0.9257990122
outer loop
vertex -40.73343658 41.12194061 362.7338867
vertex -40.68004608 40.97093964 362.6739502
vertex -40.88178253 41.05771637 362.756073

endloop
endfacet
facet normal -0.2654714584 0.2611428201 -0.9280782938
outer loop
vertex -40.88178253 41.05771637 362.756073
vertex -40.68004608 40.97093964 362.6739502
vertex -40.82205963 40.89826202 362.6941223

endloop
endfacet
facet normal -0.3555583656 0.219774425 -0.9084478617
outer loop
vertex -40.88178253 41.05771637 362.756073
vertex -40.82205963 40.89826202 362.6941223
vertex -41.03418732 40.98397064 362.7978821

endloop
endfacet
facet normal -0.3568294048 0.2168702185 -0.9086473584
outer loop
vertex -41.03418732 40.98397064 362.7978821
vertex -40.82205963 40.89826202 362.6941223
vertex -40.97480011 40.82378387 362.7363281

endloop
endfacet
facet normal -0.3722909093 0.2094215602 -0.9041803479
outer loop
vertex -41.03418732 40.98397064 362.7978821
vertex -40.97480011 40.82378387 362.7363281
vertex -41.18531036 40.91335297 362.84375

endloop
endfacet
facet normal -0.3699319065 0.2146550715 -0.9039212465
outer loop
vertex -41.18531036 40.91335297 362.84375
vertex -40.97480011 40.82378387 362.7363281
vertex -41.12918854 40.75292206 362.7826843

endloop
endfacet
facet normal -0.3816054761 0.2092077136 -0.9003385305
outer loop
vertex -41.18531036 40.91335297 362.84375
vertex -41.12918854 40.75292206 362.7826843
vertex -41.33478546 40.84716034 362.8917236

endloop
endfacet
facet normal -0.3783452213 0.2160443664 -0.9000998735
outer loop
vertex -41.33478546 40.84716034 362.8917236
vertex -41.12918854 40.75292206 362.7826843
vertex -41.28310394 40.68630219 362.8313904

endloop
endfacet
facet normal -0.3875590861 0.2122172117 -0.8970851898
outer loop
vertex -41.3347702 40.84714508 362.8917542
vertex -41.2831192 40.68630219 362.8313904
vertex -41.48654938 40.78333282 362.9422302

endloop
endfacet
facet normal -0.384981662 0.217455551 -0.8969404697
outer loop
vertex -41.48654938 40.78333282 362.9422302
vertex -41.2831192 40.68630219 362.8313904
vertex -41.43914032 40.62218475 362.8828125

endloop
endfacet
facet normal -0.3870280683 0.2166046053 -0.8962654471
outer loop
vertex -41.48654938 40.78333282 362.9422302
vertex -41.43914032 40.62218475 362.8828125
vertex -41.64156342 40.72127533 362.9941711

endloop
endfacet
facet normal -0.3857421279 0.2191572338 -0.8961992264
outer loop
vertex -41.64156342 40.72127533 362.9941711
vertex -41.43914032 40.62218475 362.8828125
vertex -41.59758759 40.55994415 362.935791

endloop
endfacet
facet normal -0.3794052601 0.2213623971 -0.8983598351
outer loop
vertex -41.64154816 40.72130585 362.9941711
vertex -41.59758759 40.55997467 362.9358521
vertex -41.79878998 40.66024017 363.0455322

endloop
endfacet
facet normal -0.3799915314 0.2202216983 -0.8983923793
outer loop
vertex -41.79878998 40.66024017 363.0455322
vertex -41.59758759 40.55997467 362.9358521
vertex -41.75624847 40.49897003 362.9880066

endloop
endfacet
facet normal -0.3701280951 0.2239606231 -0.9015801549
outer loop
vertex -41.79878998 40.66024017 363.0455322
vertex -41.75624847 40.49897003 362.9880066
vertex -41.95681 40.60007477 363.095459

endloop
endfacet
facet normal -0.3715171218 0.2212971747 -0.9016665816
outer loop
vertex -41.95681 40.60007477 363.095459
vertex -41.75624847 40.49897003 362.9880066
vertex -41.91448212 40.43898773 363.0384827

endloop
endfacet
facet normal -0.3672848344 0.2228839844 -0.9030086398
outer loop
vertex -41.95681 40.60007477 363.095459
vertex -41.91448212 40.43898773 363.0384827
vertex -42.1140976 40.54180145 363.14505

endloop
endfacet
facet normal -0.3670749068 0.2232789099 -0.9029964209
outer loop
vertex -42.1140976 40.54180145 363.14505
vertex -41.91448212 40.43898773 363.0384827
vertex -42.07262421 40.38066864 363.0883484

endloop
endfacet
facet normal -0.3729631305 0.2211020887 -0.9011172652
outer loop
vertex -42.1140976 40.54180145 363.14505
vertex -42.07262421 40.38066864 363.0883484
vertex -42.26903534 40.48628998 363.1955566

endloop
endfacet
facet normal -0.3713242412 0.2240880281 -0.9010564685
outer loop
vertex -42.26903534 40.48628998 363.1955566
vertex -42.07262421 40.38066864 363.0883484
vertex -42.23038483 40.32442474 363.1393738

endloop
endfacet
facet normal -0.3825623095 0.2199212462 -0.897374332
outer loop
vertex -42.26902008 40.4863205 363.1955566
vertex -42.23035431 40.32445526 363.1394043
vertex -42.42527008 40.43119049 363.2486572

endloop
endfacet
facet normal -0.38117975 0.222418353 -0.8973472714
outer loop
vertex -42.42527008 40.43119049 363.2486572
vertex -42.23035431 40.32445526 363.1394043
vertex -42.39194489 40.26717377 363.1938477

endloop
endfacet
facet normal -0.3956176639 0.2177724689 -0.8922230005
outer loop
vertex -42.42527008 40.43119049 363.2486572
vertex -42.39194489 40.26717377 363.1938477
vertex -42.59870148 40.36743927 363.3099976

endloop
endfacet
facet normal -0.3939576745 0.2210986018 -0.8921394348
outer loop
vertex -42.59870148 40.36743927 363.3099976
vertex -42.39194489 40.26717377 363.1938477
vertex -42.56905365 40.20218658 363.2559509

endloop
endfacet
facet normal -0.406560719 0.2172902077 -0.8874082565
outer loop
vertex -42.59870148 40.36743927 363.3099976
vertex -42.56905365 40.20218658 363.2559509
vertex -42.77993011 40.29805756 363.3760376

endloop
endfacet
facet normal -0.4064847827 0.2174512595 -0.8874034882
outer loop
vertex -42.77993011 40.29805756 363.3760376
vertex -42.56905365 40.20218658 363.2559509
vertex -42.75051117 40.13373566 363.3222961

endloop
endfacet
facet normal -0.4808759093 0.1935846657 -0.8551510572
outer loop
vertex -42.77993011 40.29805756 363.3760376
vertex -42.75051117 40.13373566 363.3222961
vertex -42.94550323 40.21866608 363.4511719

endloop
endfacet
facet normal -0.4868549109 0.1794136167 -0.8548585176
outer loop
vertex -42.94550323 40.21866608 363.4511719
vertex -42.75051117 40.13373566 363.3222961
vertex -42.9107132 40.06645966 363.3994141

endloop
endfacet
facet normal -0.6563691497 0.1040676832 -0.7472278476
outer loop
vertex -42.94550323 40.21866608 363.4511719
vertex -42.9107132 40.06645966 363.3994141
vertex -43.05419159 40.12697601 363.5338745

endloop
endfacet
facet normal -0.6838418245 -0.0001670607744 -0.7296302915
outer loop
vertex -43.05419159 40.12697601 363.5338745
vertex -42.9107132 40.06645966 363.3994141
vertex -43.00720978 40.00867462 363.4898682

endloop
endfacet
facet normal -0.744541049 -0.04792086035 -0.665854454
outer loop
vertex -43.05419159 40.12697601 363.5338745
vertex -43.00719452 40.00867462 363.4898376
vertex -43.09375763 40.03610992 363.5846558

endloop
endfacet
facet normal -0.7439846992 -0.3198744059 -0.5866576433
outer loop
vertex -43.09375763 40.03610992 363.5846558
vertex -43.00719452 40.00867462 363.4898376
vertex -43.03394318 39.95323944 363.5539856

endloop
endfacet
facet normal -0.8221055865 -0.563632071 -0.08038226515
outer loop
vertex -43.09375763 40.03610992 363.5846558
vertex -43.03394318 39.95323944 363.5539856
vertex -43.03560638 39.92475128 363.770752

endloop
endfacet
facet normal 0.9999077916 -0.01215049624 0.006075248122
outer loop
vertex -43.03560638 39.92475128 363.770752
vertex -43.03394318 39.95323944 363.5539856
vertex -43.03560638 39.92476654 363.7707825

endloop
endfacet
facet normal 0.7898952961 0 -0.6132417917
outer loop
vertex -40.35919952 41.08158112 362.9088745
vertex -40.35919952 41.08156586 362.9088745
vertex -40.49829865 41.05426788 362.7297058

endloop
endfacet
facet normal 0.7396590114 0.2718033493 -0.615652144
outer loop
vertex -40.49829865 41.05426788 362.7297058
vertex -40.35919952 41.08156586 362.9088745
vertex -40.40068817 40.8842392 362.7719116

endloop
endfacet
facet normal 0.3885072172 -0.005688725971 -0.921428144
outer loop
vertex -40.49829865 41.05426788 362.7297058
vertex -40.40068817 40.8842392 362.7719116
vertex -40.57019806 41.02770233 362.6995544

endloop
endfacet
facet normal 0.3395319581 -0.07183697075 -0.9378472567
outer loop
vertex -40.57019806 41.02770233 362.6995544
vertex -40.40068817 40.8842392 362.7719116
vertex -40.44095612 40.80587006 362.7633362

endloop
endfacet
facet normal 0.2797119021 -0.1112236977 -0.9536196589
outer loop
vertex -40.57019806 41.02770233 362.6995544
vertex -40.44095612 40.80587006 362.7633362
vertex -40.68006134 40.97093964 362.6739502

endloop
endfacet
facet normal 0.2378140688 -0.1730756909 -0.9557663798
outer loop
vertex -40.68006134 40.97093964 362.6739502
vertex -40.44095612 40.80587006 362.7633362
vertex -40.52509308 40.70728302 362.7602539

endloop
endfacet
facet normal 0.01851479709 -0.3011922538 -0.9533836246
outer loop
vertex -40.68006134 40.97093964 362.6739502
vertex -40.52509308 40.70728302 362.7602539
vertex -40.82205963 40.89826202 362.6941528

endloop
endfacet
facet normal 0.0001365969947 -0.3268897831 -0.9450624585
outer loop
vertex -40.82205963 40.89826202 362.6941528
vertex -40.52509308 40.70728302 362.7602539
vertex -40.65923309 40.61988068 362.7904663

endloop
endfacet
facet normal -0.07750781626 -0.3661646545 -0.9273165464
outer loop
vertex -40.82205963 40.89826202 362.6941528
vertex -40.65923309 40.61988068 362.7904663
vertex -40.97480011 40.82378387 362.7363281

endloop
endfacet
facet normal -0.08016115427 -0.3698250353 -0.9256368876
outer loop
vertex -40.97480011 40.82378387 362.7363281
vertex -40.65923309 40.61988068 362.7904663
vertex -40.81342316 40.54415131 362.8340759

endloop
endfacet
facet normal -0.1016246751 -0.3800235987 -0.9193772078
outer loop
vertex -40.97480011 40.82378387 362.7363281
vertex -40.81342316 40.54415131 362.8340759
vertex -41.12918854 40.75292206 362.7826843

endloop
endfacet
facet normal -0.09724524617 -0.3741120696 -0.9222708344
outer loop
vertex -41.12918854 40.75292206 362.7826843
vertex -40.81342316 40.54415131 362.8340759
vertex -40.9719162 40.47280121 362.8797302

endloop
endfacet
facet normal -0.1224922389 -0.3855950534 -0.9145010114
outer loop
vertex -41.12918854 40.75292206 362.7826843
vertex -40.9719162 40.47280121 362.8797302
vertex -41.28310394 40.68630219 362.8313904

endloop
endfacet
facet normal -0.1163189337 -0.3775386214 -0.918659091
outer loop
vertex -41.28310394 40.68630219 362.8313904
vertex -40.9719162 40.47280121 362.8797302
vertex -41.13147736 40.40552521 362.9275818

endloop
endfacet
facet normal -0.140726909 -0.3879779577 -0.9108617306
outer loop
vertex -41.2831192 40.68630219 362.8313904
vertex -41.13147736 40.40554047 362.9275513
vertex -41.43914032 40.62216949 362.8828125

endloop
endfacet
facet normal -0.1357059181 -0.38156268 -0.9143269658
outer loop
vertex -41.43914032 40.62216949 362.8828125
vertex -41.13147736 40.40554047 362.9275513
vertex -41.29323578 40.34087372 362.9785461

endloop
endfacet
facet normal -0.1515842676 -0.388019681 -0.9091001153
outer loop
vertex -41.43914032 40.62216949 362.8828125
vertex -41.29323578 40.34087372 362.9785461
vertex -41.59758759 40.55994415 362.935791

endloop
endfacet
facet normal -0.1493365616 -0.3852030635 -0.9106685519
outer loop
vertex -41.59758759 40.55994415 362.935791
vertex -41.29323578 40.34087372 362.9785461
vertex -41.45711517 40.27822113 363.0319214

endloop
endfacet
facet normal -0.150907442 -0.3857240975 -0.9101889133
outer loop
vertex -41.59758759 40.55995941 362.9358521
vertex -41.45711517 40.27823639 363.0319519
vertex -41.75626373 40.49897003 362.9880066

endloop
endfacet
facet normal -0.1523689777 -0.3875055611 -0.9091880918
outer loop
vertex -41.75626373 40.49897003 362.9880066
vertex -41.45711517 40.27823639 363.0319519
vertex -41.61928558 40.21741486 363.0850525

endloop
endfacet
facet normal -0.1448117793 -0.3846687376 -0.91162467
outer loop
vertex -41.75626373 40.49897003 362.9880066
vertex -41.61928558 40.21741486 363.0850525
vertex -41.91449738 40.43898773 363.0384521

endloop
endfacet
facet normal -0.1472817957 -0.3876137733 -0.9099799991
outer loop
vertex -41.91449738 40.43898773 363.0384521
vertex -41.61928558 40.21741486 363.0850525
vertex -41.77919769 40.15781403 363.136322

endloop
endfacet
facet normal -0.1446350366 -0.3866330385 -0.9108214378
outer loop
vertex -41.91449738 40.43898773 363.0384521
vertex -41.77919769 40.15781403 363.136322
vertex -42.07262421 40.38066864 363.0883179

endloop
endfacet
facet normal -0.1443106085 -0.3862518072 -0.911034584
outer loop
vertex -42.07262421 40.38066864 363.0883179
vertex -41.77919769 40.15781403 363.136322
vertex -41.93878937 40.09946442 363.1863403

endloop
endfacet
facet normal -0.1545943618 -0.3899995089 -0.9077449441
outer loop
vertex -42.07262421 40.38066864 363.0883179
vertex -41.93878937 40.09946442 363.1863403
vertex -42.23038483 40.32444 363.1393433

endloop
endfacet
facet normal -0.1505164057 -0.3852775693 -0.9104427099
outer loop
vertex -42.23038483 40.32444 363.1393433
vertex -41.93878937 40.09946442 363.1863403
vertex -42.10004425 40.04174042 363.2374268

endloop
endfacet
facet normal -0.1664879918 -0.3908583224 -0.9052687883
outer loop
vertex -42.23035431 40.32445526 363.1394043
vertex -42.10002899 40.04177094 363.2374878
vertex -42.39194489 40.26718903 363.1938477

endloop
endfacet
facet normal -0.1605846137 -0.3839874864 -0.9092668891
outer loop
vertex -42.39194489 40.26718903 363.1938477
vertex -42.10002899 40.04177094 363.2374878
vertex -42.26941681 39.98029327 363.2933655

endloop
endfacet
facet normal -0.1745874733 -0.3884163201 -0.9047939777
outer loop
vertex -42.39194489 40.26718903 363.1938477
vertex -42.26941681 39.98029327 363.2933655
vertex -42.56905365 40.20220184 363.2559204

endloop
endfacet
facet normal -0.1704395264 -0.3833152056 -0.9077553749
outer loop
vertex -42.56905365 40.20220184 363.2559204
vertex -42.26941681 39.98029327 363.2933655
vertex -42.4509964 39.91309357 363.355835

endloop
endfacet
facet normal -0.1842721999 -0.3874232471 -0.9032978415
outer loop
vertex -42.56905365 40.20220184 363.2559204
vertex -42.4509964 39.91309357 363.355835
vertex -42.75051117 40.13375092 363.3222961

endloop
endfacet
facet normal -0.1840462238 -0.3871418536 -0.9034645557
outer loop
vertex -42.75051117 40.13375092 363.3222961
vertex -42.4509964 39.91309357 363.355835
vertex -42.63314056 39.84635162 363.4215393

endloop
endfacet
facet normal -0.2521725893 -0.4062639475 -0.8782702088
outer loop
vertex -42.75051117 40.13375092 363.3222961
vertex -42.63314056 39.84635162 363.4215393
vertex -42.9107132 40.06647491 363.3994141

endloop
endfacet
facet normal -0.2641197145 -0.4203060269 -0.8680918813
outer loop
vertex -42.9107132 40.06647491 363.3994141
vertex -42.63314056 39.84635162 363.4215393
vertex -42.79184723 39.8000412 363.4922485

endloop
endfacet
facet normal -0.4413161278 -0.4644227326 -0.7678226233
outer loop
vertex -42.9107132 40.06647491 363.3994141
vertex -42.79184723 39.8000412 363.4922485
vertex -43.00720978 40.00867462 363.4898376

endloop
endfacet
facet normal -0.5222845078 -0.5466928482 -0.654481411
outer loop
vertex -43.00720978 40.00867462 363.4898376
vertex -42.79184723 39.8000412 363.4922485
vertex -42.88777924 39.80086517 363.5681152

endloop
endfacet
facet normal -0.4991692007 -0.5417221785 -0.6762892008
outer loop
vertex -43.00719452 40.00867462 363.4898376
vertex -42.88776398 39.80086517 363.5681458
vertex -43.03394318 39.95323944 363.5539856

endloop
endfacet
facet normal -0.6814484596 -0.6790996194 -0.2728583217
outer loop
vertex -43.03394318 39.95323944 363.5539856
vertex -42.88776398 39.80086517 363.5681458
vertex -42.92073822 39.81388092 363.618103

endloop
endfacet
facet normal -0.7519178391 -0.6528824568 -0.09145565331
outer loop
vertex -43.03394318 39.95323944 363.5539856
vertex -42.92073822 39.81388092 363.618103
vertex -43.03560638 39.9247818 363.770813

endloop
endfacet
facet normal 0.2597598433 0.8637244105 -0.4318622053
outer loop
vertex -43.03560638 39.9247818 363.770813
vertex -42.92073822 39.81388092 363.618103
vertex -43.03560638 39.92476654 363.7707825

endloop
endfacet
endsolid
