solid 
facet normal -nan(ind) -nan(ind) -nan(ind)
outer loop
vertex -31.21660614 46.71074677 255.0648651
vertex -31.21660614 46.71074677 255.0648651
vertex -31.20624542 46.45917511 255.262207

endloop
endfacet
facet normal -0.0729373917 0.6136944294 0.7861674428
outer loop
vertex -31.20624542 46.45917511 255.262207
vertex -31.21660614 46.71074677 255.0648651
vertex -31.47437286 46.54502106 255.1703186

endloop
endfacet
facet normal -0.2126948237 0.322838217 0.9222452641
outer loop
vertex -31.20624542 46.45917511 255.262207
vertex -31.47437286 46.54502106 255.1703186
vertex -31.22818756 46.31351471 255.308136

endloop
endfacet
facet normal -0.3772102892 0.1435403526 0.9149363637
outer loop
vertex -31.22818756 46.31351471 255.308136
vertex -31.47437286 46.54502106 255.1703186
vertex -31.57666779 46.41022491 255.149292

endloop
endfacet
facet normal -0.3772335351 0.1434610486 0.9149391651
outer loop
vertex -31.22818756 46.31351471 255.308136
vertex -31.57666779 46.41022491 255.149292
vertex -31.2516098 46.1332016 255.3267517

endloop
endfacet
facet normal -0.4873180985 -0.01249107718 0.8731351495
outer loop
vertex -31.2516098 46.1332016 255.3267517
vertex -31.57666779 46.41022491 255.149292
vertex -31.65937042 46.23213959 255.1005859

endloop
endfacet
facet normal -0.4892024398 -0.02316592075 0.8718625903
outer loop
vertex -31.2516098 46.1332016 255.3267517
vertex -31.65937042 46.23213959 255.1005859
vertex -31.26836395 45.90526581 255.3112946

endloop
endfacet
facet normal -0.5475232005 -0.1212280169 0.8279626369
outer loop
vertex -31.26836395 45.90526581 255.3112946
vertex -31.65937042 46.23213959 255.1005859
vertex -31.71822357 46.00324249 255.0281525

endloop
endfacet
facet normal -0.5504546762 -0.1587728709 0.8196284175
outer loop
vertex -31.26836395 45.90526581 255.3112946
vertex -31.71822357 46.00324249 255.0281525
vertex -31.27089691 45.64244843 255.2586823

endloop
endfacet
facet normal -0.5724855065 -0.2020625174 0.7946263552
outer loop
vertex -31.27089691 45.64244843 255.2586823
vertex -31.71822357 46.00324249 255.0281525
vertex -31.74646759 45.73996735 254.9408569

endloop
endfacet
facet normal -0.5728842616 -0.2539834976 0.779292047
outer loop
vertex -31.27089691 45.64244843 255.2586823
vertex -31.74646759 45.73996735 254.9408569
vertex -31.25780487 45.36215973 255.1769562

endloop
endfacet
facet normal -0.5728291273 -0.2538622916 0.7793719769
outer loop
vertex -31.25780487 45.36215973 255.1769562
vertex -31.74646759 45.73996735 254.9408569
vertex -31.74904633 45.46204376 254.8484344

endloop
endfacet
facet normal -0.5708521008 -0.3184731007 0.7567712665
outer loop
vertex -31.25780487 45.36215973 255.1769562
vertex -31.74904633 45.46204376 254.8484344
vertex -31.23470306 45.07527924 255.0736542

endloop
endfacet
facet normal -0.5576723218 -0.2883755863 0.778357923
outer loop
vertex -31.23470306 45.07527924 255.0736542
vertex -31.74904633 45.46204376 254.8484344
vertex -31.73773956 45.18627167 254.754364

endloop
endfacet
facet normal -0.5544216037 -0.3742983639 0.7433151007
outer loop
vertex -31.23471832 45.07529449 255.0736694
vertex -31.7377243 45.18625641 254.754364
vertex -31.21039581 44.78569794 254.9459839

endloop
endfacet
facet normal -0.5357614756 -0.3344218135 0.7753204107
outer loop
vertex -31.21039581 44.78569794 254.9459839
vertex -31.7377243 45.18625641 254.754364
vertex -31.72377777 44.92572784 254.6516266

endloop
endfacet
facet normal -0.534474194 -0.4301483035 0.7275367975
outer loop
vertex -31.21039581 44.78569794 254.9459839
vertex -31.72377777 44.92572784 254.6516266
vertex -31.19194794 44.50662994 254.7945404

endloop
endfacet
facet normal -0.5185685754 -0.4004389048 0.7554702759
outer loop
vertex -31.19194794 44.50662994 254.7945404
vertex -31.72377777 44.92572784 254.6516266
vertex -31.71302032 44.66275787 254.5196228

endloop
endfacet
facet normal -0.5182934999 -0.4576897025 0.7224209905
outer loop
vertex -31.19193268 44.50666046 254.7945709
vertex -31.71300507 44.66277313 254.5196381
vertex -31.18021393 44.2345047 254.6305542

endloop
endfacet
facet normal -0.5053879023 -0.4358588159 0.7447214723
outer loop
vertex -31.18021393 44.2345047 254.6305542
vertex -31.71300507 44.66277313 254.5196381
vertex -31.70641327 44.3947525 254.3672485

endloop
endfacet
facet normal -0.5053290725 -0.4666795731 0.725846231
outer loop
vertex -31.18021393 44.2345047 254.6305542
vertex -31.70641327 44.3947525 254.3672485
vertex -31.17273712 43.96463776 254.4622498

endloop
endfacet
facet normal -0.4942832887 -0.4488654435 0.7444486618
outer loop
vertex -31.17273712 43.96463776 254.4622498
vertex -31.70641327 44.3947525 254.3672485
vertex -31.70276642 44.12845612 254.2091064

endloop
endfacet
facet normal -0.4944563508 -0.4788663983 0.7253963947
outer loop
vertex -31.17273712 43.96463776 254.4622498
vertex -31.70276642 44.12845612 254.2091064
vertex -31.16776276 43.69921112 254.2904205

endloop
endfacet
facet normal -0.4830105007 -0.4609936178 0.7444366217
outer loop
vertex -31.16776276 43.69921112 254.2904205
vertex -31.70276642 44.12845612 254.2091064
vertex -31.70107269 43.86704254 254.0483246

endloop
endfacet
facet normal -0.4835015535 -0.4951273501 0.7218554616
outer loop
vertex -31.16776276 43.69921112 254.2904205
vertex -31.70107269 43.86704254 254.0483246
vertex -31.166008 43.439888 254.1137238

endloop
endfacet
facet normal -0.472193718 -0.4780961573 0.7405788898
outer loop
vertex -31.166008 43.439888 254.1137238
vertex -31.70107269 43.86704254 254.0483246
vertex -31.7009201 43.6115036 253.8834534

endloop
endfacet
facet normal -0.4729599655 -0.515807271 0.7143189907
outer loop
vertex -31.16597748 43.43991852 254.1137543
vertex -31.70090485 43.61151886 253.8834839
vertex -31.16986847 43.18982697 253.9305878

endloop
endfacet
facet normal -0.4654905796 -0.5050029159 0.7268359065
outer loop
vertex -31.16986847 43.18982697 253.9305878
vertex -31.70090485 43.61151886 253.8834839
vertex -31.70072174 43.36252594 253.7106018

endloop
endfacet
facet normal -0.4661107361 -0.5450079441 0.6969268918
outer loop
vertex -31.16986847 43.18982697 253.9305878
vertex -31.70072174 43.36252594 253.7106018
vertex -31.18135834 42.95801544 253.7416229

endloop
endfacet
facet normal -0.4663167894 -0.5453004837 0.6965600848
outer loop
vertex -31.18135834 42.95801544 253.7416229
vertex -31.70072174 43.36252594 253.7106018
vertex -31.6954422 43.12520599 253.5283508

endloop
endfacet
facet normal -0.4655514359 -0.5899467468 0.6597156525
outer loop
vertex -31.18135834 42.95801544 253.7416229
vertex -31.6954422 43.12520599 253.5283508
vertex -31.20027924 42.76091766 253.5520172

endloop
endfacet
facet normal -0.4736055732 -0.6019876003 0.6428909302
outer loop
vertex -31.20027924 42.76091766 253.5520172
vertex -31.6954422 43.12520599 253.5283508
vertex -31.67673492 42.91204071 253.3425293

endloop
endfacet
facet normal -0.4682880938 -0.6562274098 0.5916686654
outer loop
vertex -31.20027924 42.76091766 253.5520172
vertex -31.67673492 42.91204071 253.3425293
vertex -31.22296906 42.61560822 253.3728943

endloop
endfacet
facet normal -0.4783063233 -0.6745717525 0.5622953176
outer loop
vertex -31.22296906 42.61560822 253.3728943
vertex -31.67673492 42.91204071 253.3425293
vertex -31.63770294 42.73896027 253.1680908

endloop
endfacet
facet normal -0.4596052766 -0.7465444803 0.4810761809
outer loop
vertex -31.22296906 42.61560822 253.3728943
vertex -31.63770294 42.73896027 253.1680908
vertex -31.24294281 42.52788544 253.2176819

endloop
endfacet
facet normal -0.4633479118 -0.7591695189 0.4571327269
outer loop
vertex -31.24294281 42.52788544 253.2176819
vertex -31.63770294 42.73896027 253.1680908
vertex -31.57846832 42.61608124 253.0240631

endloop
endfacet
facet normal -0.3958130181 -0.8716983795 0.2889187336
outer loop
vertex -31.24292755 42.52788544 253.2176666
vertex -31.57846832 42.61608124 253.0240784
vertex -31.25376129 42.4874649 253.0808716

endloop
endfacet
facet normal -0.3965688944 -0.8631072044 0.3126963079
outer loop
vertex -31.25376129 42.4874649 253.0808716
vertex -31.57846832 42.61608124 253.0240784
vertex -31.49578094 42.53835297 252.9143982

endloop
endfacet
facet normal -0.08864998817 -0.9812616706 -0.1710751951
outer loop
vertex -31.25376129 42.4874649 253.0808716
vertex -31.49578094 42.53835297 252.9143982
vertex -31.22359467 42.53676605 252.7824554

endloop
endfacet
facet normal -nan(ind) -nan(ind) -nan(ind)
outer loop
vertex -31.22359467 42.53676605 252.7824554
vertex -31.49578094 42.53835297 252.9143982
vertex -31.22359467 42.53676605 252.7824554

endloop
endfacet
facet normal -0.6040776372 0.7127918005 -0.3563959002
outer loop
vertex -31.21660614 46.71074677 255.0648651
vertex -31.21660614 46.71073151 255.0648346
vertex -31.47437286 46.54502106 255.1703186

endloop
endfacet
facet normal -0.1987318546 0.7272983193 0.656919241
outer loop
vertex -31.47437286 46.54502106 255.1703186
vertex -31.21660614 46.71073151 255.0648346
vertex -31.54895782 46.63137054 255.0521545

endloop
endfacet
facet normal -0.6344285607 0.3761196733 0.6753032207
outer loop
vertex -31.47437286 46.54502106 255.1703186
vertex -31.54895782 46.63137054 255.0521545
vertex -31.57666779 46.41022491 255.149292

endloop
endfacet
facet normal -0.7444280982 0.3445101976 0.5719611645
outer loop
vertex -31.57666779 46.41022491 255.149292
vertex -31.54895782 46.63137054 255.0521545
vertex -31.66432953 46.50888824 254.975769

endloop
endfacet
facet normal -0.8103380799 0.2287800163 0.5394551754
outer loop
vertex -31.57666779 46.41022491 255.149292
vertex -31.66432953 46.50888824 254.975769
vertex -31.65937042 46.23213959 255.1005859

endloop
endfacet
facet normal -0.8731950521 0.1872855425 0.4499494433
outer loop
vertex -31.65937042 46.23213959 255.1005859
vertex -31.66432953 46.50888824 254.975769
vertex -31.75229645 46.33516693 254.8773651

endloop
endfacet
facet normal -0.901720047 0.09865022451 0.4209147096
outer loop
vertex -31.65937042 46.23213959 255.1005859
vertex -31.75229645 46.33516693 254.8773651
vertex -31.71822357 46.00324249 255.0281525

endloop
endfacet
facet normal -0.9303215742 0.06819972396 0.3603477478
outer loop
vertex -31.71822357 46.00324249 255.0281525
vertex -31.75229645 46.33516693 254.8773651
vertex -31.81246185 46.1075058 254.7651215

endloop
endfacet
facet normal -0.9425610304 -0.009594226256 0.3338960409
outer loop
vertex -31.71822357 46.00324249 255.0281525
vertex -31.81246185 46.1075058 254.7651215
vertex -31.74646759 45.73996735 254.9408569

endloop
endfacet
facet normal -0.9518235922 -0.02476565354 0.3056444228
outer loop
vertex -31.74646759 45.73996735 254.9408569
vertex -31.81246185 46.1075058 254.7651215
vertex -31.84145355 45.84516144 254.6535797

endloop
endfacet
facet normal -0.9548843503 -0.08569778502 0.2843445241
outer loop
vertex -31.74646759 45.73996735 254.9408569
vertex -31.84145355 45.84516144 254.6535797
vertex -31.74904633 45.46204376 254.8484344

endloop
endfacet
facet normal -0.9546766877 -0.0852207616 0.2851839662
outer loop
vertex -31.74904633 45.46204376 254.8484344
vertex -31.84145355 45.84516144 254.6535797
vertex -31.84740448 45.56986237 254.5513916

endloop
endfacet
facet normal -0.9543510675 -0.1307372749 0.2685548663
outer loop
vertex -31.74904633 45.46204376 254.8484344
vertex -31.84740448 45.56986237 254.5513916
vertex -31.73773956 45.18627167 254.754364

endloop
endfacet
facet normal -0.9494071007 -0.1172724664 0.2913303375
outer loop
vertex -31.73773956 45.18627167 254.754364
vertex -31.84740448 45.56986237 254.5513916
vertex -31.84276581 45.30388641 254.4594421

endloop
endfacet
facet normal -0.9483864307 -0.1589729935 0.2743917406
outer loop
vertex -31.7377243 45.18625641 254.754364
vertex -31.84276581 45.30388641 254.4594574
vertex -31.72377777 44.92572784 254.6516266

endloop
endfacet
facet normal -0.9410393834 -0.1394780129 0.3082056344
outer loop
vertex -31.72377777 44.92572784 254.6516266
vertex -31.84276581 45.30388641 254.4594574
vertex -31.83712006 45.06969452 254.3707123

endloop
endfacet
facet normal -0.9406976104 -0.18214643 0.286200434
outer loop
vertex -31.72377777 44.92572784 254.6516266
vertex -31.83712006 45.06969452 254.3707123
vertex -31.71302032 44.66275787 254.5196228

endloop
endfacet
facet normal -0.9338609576 -0.1695658118 0.3148827255
outer loop
vertex -31.71302032 44.66275787 254.5196228
vertex -31.83712006 45.06969452 254.3707123
vertex -31.83332062 44.82163239 254.2483978

endloop
endfacet
facet normal -0.9338277578 -0.1938910633 0.3006191254
outer loop
vertex -31.71300507 44.66277313 254.5196381
vertex -31.83330536 44.82164764 254.2484131
vertex -31.70641327 44.3947525 254.3672485

endloop
endfacet
facet normal -0.9282386303 -0.1862832457 0.3219808042
outer loop
vertex -31.70641327 44.3947525 254.3672485
vertex -31.83330536 44.82164764 254.2484131
vertex -31.83165741 44.55779266 254.1005096

endloop
endfacet
facet normal -0.9282582402 -0.1992291659 0.3140769899
outer loop
vertex -31.70641327 44.3947525 254.3672485
vertex -31.83165741 44.55779266 254.1005096
vertex -31.70276642 44.12845612 254.2091064

endloop
endfacet
facet normal -0.9233537316 -0.1932865083 0.3317502439
outer loop
vertex -31.70276642 44.12845612 254.2091064
vertex -31.83165741 44.55779266 254.1005096
vertex -31.83196259 44.29512787 253.9466248

endloop
endfacet
facet normal -0.9234529734 -0.2053457499 0.3241416216
outer loop
vertex -31.70276642 44.12845612 254.2091064
vertex -31.83196259 44.29512787 253.9466248
vertex -31.70107269 43.86704254 254.0483246

endloop
endfacet
facet normal -0.9182356 -0.1994772851 0.3421289325
outer loop
vertex -31.70107269 43.86704254 254.0483246
vertex -31.83196259 44.29512787 253.9466248
vertex -31.83409882 44.03775787 253.7908325

endloop
endfacet
facet normal -0.9184651375 -0.2148061544 0.3320845962
outer loop
vertex -31.70107269 43.86704254 254.0483246
vertex -31.83409882 44.03775787 253.7908325
vertex -31.7009201 43.6115036 253.8834534

endloop
endfacet
facet normal -0.9132934213 -0.2094440907 0.3493252695
outer loop
vertex -31.7009201 43.6115036 253.8834534
vertex -31.83409882 44.03775787 253.7908325
vertex -31.83719635 43.78607941 253.6318359

endloop
endfacet
facet normal -0.9136149287 -0.232338056 0.3336565793
outer loop
vertex -31.70090485 43.61151886 253.8834839
vertex -31.83719635 43.78610992 253.6318665
vertex -31.70072174 43.36252594 253.7106018

endloop
endfacet
facet normal -0.910307765 -0.2292259187 0.3446668983
outer loop
vertex -31.70072174 43.36252594 253.7106018
vertex -31.83719635 43.78610992 253.6318665
vertex -31.83779144 43.53836823 253.4655304

endloop
endfacet
facet normal -0.9100093842 -0.2650598288 0.3187886775
outer loop
vertex -31.70072174 43.36252594 253.7106018
vertex -31.83779144 43.53836823 253.4655304
vertex -31.6954422 43.12520599 253.5283508

endloop
endfacet
facet normal -0.9102910757 -0.2653112113 0.3177734613
outer loop
vertex -31.6954422 43.12520599 253.5283508
vertex -31.83779144 43.53836823 253.4655304
vertex -31.82802582 43.29587555 253.2910461

endloop
endfacet
facet normal -0.9062457085 -0.3201755583 0.2760548294
outer loop
vertex -31.6954422 43.12520599 253.5283508
vertex -31.82802582 43.29587555 253.2910461
vertex -31.67673492 42.91204071 253.3425293

endloop
endfacet
facet normal -0.9095258117 -0.3234885931 0.2609939277
outer loop
vertex -31.67673492 42.91204071 253.3425293
vertex -31.82802582 43.29587555 253.2910461
vertex -31.79688263 43.06751251 253.1165314

endloop
endfacet
facet normal -0.8938654661 -0.4018790126 0.1987409145
outer loop
vertex -31.67673492 42.91204071 253.3425293
vertex -31.79688263 43.06751251 253.1165314
vertex -31.63770294 42.73896027 253.1680908

endloop
endfacet
facet normal -0.896448791 -0.4066997766 0.1759969443
outer loop
vertex -31.63770294 42.73896027 253.1680908
vertex -31.79688263 43.06751251 253.1165314
vertex -31.73737335 42.86846161 252.959671

endloop
endfacet
facet normal -0.8529284 -0.5145251155 0.08818757534
outer loop
vertex -31.63770294 42.73896027 253.1680908
vertex -31.73737335 42.86846161 252.959671
vertex -31.57846832 42.61608124 253.0240631

endloop
endfacet
facet normal -0.8522954583 -0.5178670287 0.07352713495
outer loop
vertex -31.57846832 42.61608124 253.0240631
vertex -31.73737335 42.86846161 252.959671
vertex -31.65323639 42.71309662 252.840683

endloop
endfacet
facet normal -0.7276431322 -0.6829068661 -0.06460357457
outer loop
vertex -31.57846832 42.61608124 253.0240784
vertex -31.65323639 42.71309662 252.840683
vertex -31.49578094 42.53835297 252.9143982

endloop
endfacet
facet normal -0.7328487039 -0.6789592505 -0.0441266112
outer loop
vertex -31.49578094 42.53835297 252.9143982
vertex -31.65323639 42.71309662 252.840683
vertex -31.54436493 42.60033417 252.7675934

endloop
endfacet
facet normal -0.1681245118 -0.9268516302 -0.3356785178
outer loop
vertex -31.49578094 42.53835297 252.9143982
vertex -31.54436493 42.60033417 252.7675934
vertex -31.22359467 42.53676605 252.7824554

endloop
endfacet
facet normal -0.1576823741 -0.6150226593 0.7725822926
outer loop
vertex -31.22359467 42.53676605 252.7824554
vertex -31.54436493 42.60033417 252.7675934
vertex -31.22360992 42.53675079 252.7824402

endloop
endfacet
facet normal 0.1504685879 -0.735660553 0.660426259
outer loop
vertex -31.21660614 46.71073151 255.0648346
vertex -31.21659088 46.71076202 255.0648651
vertex -31.54895782 46.63137054 255.0521545

endloop
endfacet
facet normal -0.2165985256 0.8226027489 0.5257469416
outer loop
vertex -31.54895782 46.63137054 255.0521545
vertex -31.21659088 46.71076202 255.0648651
vertex -31.53697968 46.70748138 254.9380035

endloop
endfacet
facet normal -0.78020823 0.5551353693 0.2882705331
outer loop
vertex -31.54895782 46.63137054 255.0521545
vertex -31.53697968 46.70748138 254.9380035
vertex -31.66432953 46.50888824 254.975769

endloop
endfacet
facet normal -0.8149698973 0.5545791388 0.1681247354
outer loop
vertex -31.66432953 46.50888824 254.975769
vertex -31.53697968 46.70748138 254.9380035
vertex -31.63748932 46.59609222 254.818222

endloop
endfacet
facet normal -0.9062293768 0.4159298241 0.07583358139
outer loop
vertex -31.66432953 46.50888824 254.975769
vertex -31.63748932 46.59609222 254.818222
vertex -31.75229645 46.33516693 254.8773651

endloop
endfacet
facet normal -0.9165275693 0.3996528089 -0.01596763171
outer loop
vertex -31.75229645 46.33516693 254.8773651
vertex -31.63748932 46.59609222 254.818222
vertex -31.70894623 46.42684174 254.6836243

endloop
endfacet
facet normal -0.9540439844 0.2897758186 -0.07635393739
outer loop
vertex -31.75229645 46.33516693 254.8773651
vertex -31.70894623 46.42684174 254.6836243
vertex -31.81246185 46.1075058 254.7651215

endloop
endfacet
facet normal -0.9521719217 0.2742867768 -0.1346677542
outer loop
vertex -31.81246185 46.1075058 254.7651215
vertex -31.70894623 46.42684174 254.6836243
vertex -31.7542038 46.2009964 254.5436249

endloop
endfacet
facet normal -0.9671022892 0.1823078245 -0.1774177849
outer loop
vertex -31.81246185 46.1075058 254.7651215
vertex -31.7542038 46.2009964 254.5436249
vertex -31.84145355 45.84516144 254.6535797

endloop
endfacet
facet normal -0.963614881 0.1734252572 -0.203396216
outer loop
vertex -31.84145355 45.84516144 254.6535797
vertex -31.7542038 46.2009964 254.5436249
vertex -31.77407074 45.93997955 254.4151917

endloop
endfacet
facet normal -0.9671049714 0.1066312864 -0.2309498191
outer loop
vertex -31.84145355 45.84516144 254.6535797
vertex -31.77407074 45.93997955 254.4151917
vertex -31.84740448 45.56986237 254.5513916

endloop
endfacet
facet normal -0.9673716426 0.1071922928 -0.2295688838
outer loop
vertex -31.84740448 45.56986237 254.5513916
vertex -31.77407074 45.93997955 254.4151917
vertex -31.77812958 45.66701508 254.3048401

endloop
endfacet
facet normal -0.9671437144 0.06783536822 -0.2450132519
outer loop
vertex -31.84740448 45.56986237 254.5513916
vertex -31.77812958 45.66701508 254.3048401
vertex -31.84276581 45.30388641 254.4594421

endloop
endfacet
facet normal -0.9715131521 0.07759220898 -0.2239232063
outer loop
vertex -31.84276581 45.30388641 254.4594421
vertex -31.77812958 45.66701508 254.3048401
vertex -31.7773056 45.4091568 254.2119141

endloop
endfacet
facet normal -0.9711667895 0.06364864856 -0.2297474742
outer loop
vertex -31.84276581 45.30388641 254.4594574
vertex -31.7773056 45.4091568 254.2119141
vertex -31.83712006 45.06969452 254.3707123

endloop
endfacet
facet normal -0.9768872857 0.07926725596 -0.1985144168
outer loop
vertex -31.83712006 45.06969452 254.3707123
vertex -31.7773056 45.4091568 254.2119141
vertex -31.77809906 45.19684601 254.1310425

endloop
endfacet
facet normal -0.9769557714 0.0821691379 -0.1969917268
outer loop
vertex -31.83712006 45.06969452 254.3707123
vertex -31.77809906 45.19684601 254.1310425
vertex -31.83332062 44.82163239 254.2483978

endloop
endfacet
facet normal -0.9815413952 0.09201897681 -0.1676571965
outer loop
vertex -31.83332062 44.82163239 254.2483978
vertex -31.77809906 45.19684601 254.1310425
vertex -31.7800827 44.96131134 254.013382

endloop
endfacet
facet normal -0.9815115333 0.08888880163 -0.1695108414
outer loop
vertex -31.83330536 44.82164764 254.2484131
vertex -31.78006744 44.9613266 254.0133972
vertex -31.83165741 44.55779266 254.1005096

endloop
endfacet
facet normal -0.9844200611 0.09373989701 -0.1487614363
outer loop
vertex -31.83165741 44.55779266 254.1005096
vertex -31.78006744 44.9613266 254.0133972
vertex -31.78266144 44.70108795 253.8665771

endloop
endfacet
facet normal -0.9844195247 0.08973450959 -0.1512148231
outer loop
vertex -31.83165741 44.55779266 254.1005096
vertex -31.78266144 44.70108795 253.8665771
vertex -31.83196259 44.29512787 253.9466248

endloop
endfacet
facet normal -0.986569047 0.09338660538 -0.1340171099
outer loop
vertex -31.83196259 44.29512787 253.9466248
vertex -31.78266144 44.70108795 253.8665771
vertex -31.78649139 44.44167328 253.7140045

endloop
endfacet
facet normal -0.9865890145 0.09043906629 -0.1358778924
outer loop
vertex -31.83196259 44.29512787 253.9466248
vertex -31.78649139 44.44167328 253.7140045
vertex -31.83409882 44.03775787 253.7908325

endloop
endfacet
facet normal -0.9884847403 0.09394370019 -0.1186273545
outer loop
vertex -31.83409882 44.03775787 253.7908325
vertex -31.78649139 44.44167328 253.7140045
vertex -31.7921524 44.18782806 253.5601501

endloop
endfacet
facet normal -0.9885485768 0.08910480887 -0.1217868999
outer loop
vertex -31.83409882 44.03775787 253.7908325
vertex -31.7921524 44.18782806 253.5601501
vertex -31.83719635 43.78607941 253.6318359

endloop
endfacet
facet normal -0.9901865721 0.0922947675 -0.1049386635
outer loop
vertex -31.83719635 43.78607941 253.6318359
vertex -31.7921524 44.18782806 253.5601501
vertex -31.7987442 43.93952179 253.4039612

endloop
endfacet
facet normal -0.9903287888 0.07896896452 -0.1140736789
outer loop
vertex -31.83719635 43.78610992 253.6318665
vertex -31.79871368 43.93953705 253.4039917
vertex -31.83779144 43.53836823 253.4655304

endloop
endfacet
facet normal -0.9914041162 0.08078534156 -0.1029155701
outer loop
vertex -31.83779144 43.53836823 253.4655304
vertex -31.79871368 43.93953705 253.4039917
vertex -31.80197906 43.69298553 253.2419128

endloop
endfacet
facet normal -0.9909904599 0.04960731044 -0.1244069338
outer loop
vertex -31.83779144 43.53836823 253.4655304
vertex -31.80197906 43.69298553 253.2419128
vertex -31.82802582 43.29587555 253.2910461

endloop
endfacet
facet normal -0.990854919 0.04945821688 -0.1255402118
outer loop
vertex -31.82802582 43.29587555 253.2910461
vertex -31.80197906 43.69298553 253.2419128
vertex -31.79311371 43.44609833 253.0746765

endloop
endfacet
facet normal -0.9862602353 -0.008421456441 -0.1649839729
outer loop
vertex -31.82802582 43.29587555 253.2910461
vertex -31.79311371 43.44609833 253.0746765
vertex -31.79688263 43.06751251 253.1165314

endloop
endfacet
facet normal -0.9836173654 -0.01010630187 -0.1799857765
outer loop
vertex -31.79688263 43.06751251 253.1165314
vertex -31.79311371 43.44609833 253.0746765
vertex -31.76105499 43.2048111 252.9130249

endloop
endfacet
facet normal -0.9659381509 -0.1010479629 -0.2382284105
outer loop
vertex -31.79688263 43.06751251 253.1165314
vertex -31.76105499 43.2048111 252.9130249
vertex -31.73737335 42.86846161 252.959671

endloop
endfacet
facet normal -0.9594980478 -0.1038726941 -0.2618661821
outer loop
vertex -31.73737335 42.86846161 252.959671
vertex -31.76105499 43.2048111 252.9130249
vertex -31.69988251 42.98387909 252.7765198

endloop
endfacet
facet normal -0.9117494822 -0.236618191 -0.3357450962
outer loop
vertex -31.73737335 42.86846161 252.959671
vertex -31.69988251 42.98387909 252.7765198
vertex -31.65323639 42.71309662 252.840683

endloop
endfacet
facet normal -0.903486073 -0.2398160398 -0.3552481532
outer loop
vertex -31.65323639 42.71309662 252.840683
vertex -31.69988251 42.98387909 252.7765198
vertex -31.61533356 42.80130768 252.6847382

endloop
endfacet
facet normal -0.7708435059 -0.4557759166 -0.4450489283
outer loop
vertex -31.65323639 42.71309662 252.840683
vertex -31.61534882 42.80130768 252.6847229
vertex -31.54436493 42.60033417 252.7675934

endloop
endfacet
facet normal -0.772551775 -0.4553392828 -0.4425267875
outer loop
vertex -31.54436493 42.60033417 252.7675934
vertex -31.61534882 42.80130768 252.6847229
vertex -31.50989532 42.65898895 252.6470642

endloop
endfacet
facet normal -0.1510698497 -0.8711738586 -0.4671552479
outer loop
vertex -31.54436493 42.60033417 252.7675934
vertex -31.50989532 42.65898895 252.6470642
vertex -31.22360992 42.53675079 252.7824402

endloop
endfacet
facet normal 0.4836992323 0.1857260764 -0.8553016782
outer loop
vertex -31.22360992 42.53675079 252.7824402
vertex -31.50989532 42.65898895 252.6470642
vertex -31.22359467 42.53678131 252.7824554

endloop
endfacet
facet normal 0.2309550941 -0.7937067151 -0.5627516508
outer loop
vertex -31.21659088 46.71076202 255.0648651
vertex -31.21660614 46.71074677 255.0648804
vertex -31.53697968 46.70748138 254.9380035

endloop
endfacet
facet normal -0.1715847701 0.8957034945 0.4102119803
outer loop
vertex -31.53697968 46.70748138 254.9380035
vertex -31.21660614 46.71074677 255.0648804
vertex -31.45835114 46.76929474 254.8359222

endloop
endfacet
facet normal -0.6872974038 0.7203740478 -0.09318507463
outer loop
vertex -31.53697968 46.70748138 254.9380035
vertex -31.45835114 46.76929474 254.8359222
vertex -31.63748932 46.59609222 254.818222

endloop
endfacet
facet normal -0.6724385619 0.7150248289 -0.1912223846
outer loop
vertex -31.63748932 46.59609222 254.818222
vertex -31.45835114 46.76929474 254.8359222
vertex -31.52394867 46.66733551 254.6853485

endloop
endfacet
facet normal -0.7473271489 0.5772337914 -0.3290946782
outer loop
vertex -31.63748932 46.59609222 254.818222
vertex -31.52394867 46.66733551 254.6853485
vertex -31.70894623 46.42684174 254.6836243

endloop
endfacet
facet normal -0.7238420248 0.5597013831 -0.4034688175
outer loop
vertex -31.70894623 46.42684174 254.6836243
vertex -31.52394867 46.66733551 254.6853485
vertex -31.56365204 46.50241852 254.5278015

endloop
endfacet
facet normal -0.7515318394 0.4497653544 -0.4826085567
outer loop
vertex -31.70894623 46.42684174 254.6836243
vertex -31.56365204 46.50241852 254.5278015
vertex -31.7542038 46.2009964 254.5436249

endloop
endfacet
facet normal -0.7291202545 0.4331146479 -0.5299011469
outer loop
vertex -31.7542038 46.2009964 254.5436249
vertex -31.56365204 46.50241852 254.5278015
vertex -31.58289337 46.27878571 254.3714905

endloop
endfacet
facet normal -0.7387963533 0.3419745266 -0.5807179809
outer loop
vertex -31.7542038 46.2009964 254.5436249
vertex -31.58289337 46.27878571 254.3714905
vertex -31.77407074 45.93997955 254.4151917

endloop
endfacet
facet normal -0.7260985374 0.3320518434 -0.6020983458
outer loop
vertex -31.77407074 45.93997955 254.4151917
vertex -31.58289337 46.27878571 254.3714905
vertex -31.58675385 46.01931 254.2330475

endloop
endfacet
facet normal -0.727566123 0.2663992047 -0.6322016716
outer loop
vertex -31.77407074 45.93997955 254.4151917
vertex -31.58675385 46.01931 254.2330475
vertex -31.77812958 45.66701508 254.3048401

endloop
endfacet
facet normal -0.7282640338 0.2669933736 -0.6311465502
outer loop
vertex -31.77812958 45.66701508 254.3048401
vertex -31.58675385 46.01931 254.2330475
vertex -31.58498383 45.74834442 254.1163788

endloop
endfacet
facet normal -0.7275561094 0.2305340618 -0.6461548805
outer loop
vertex -31.77812958 45.66701508 254.3048401
vertex -31.58498383 45.74834442 254.1163788
vertex -31.7773056 45.4091568 254.2119141

endloop
endfacet
facet normal -0.7387503982 0.241667524 -0.6291618943
outer loop
vertex -31.7773056 45.4091568 254.2119141
vertex -31.58498383 45.74834442 254.1163788
vertex -31.58542633 45.49660492 254.0202026

endloop
endfacet
facet normal -0.7387576103 0.2423173636 -0.628903389
outer loop
vertex -31.7773056 45.4091568 254.2119141
vertex -31.58542633 45.49662018 254.0202179
vertex -31.77809906 45.19684601 254.1310425

endloop
endfacet
facet normal -0.7539156675 0.2618009746 -0.6025541425
outer loop
vertex -31.77809906 45.19684601 254.1310425
vertex -31.58542633 45.49662018 254.0202179
vertex -31.59075165 45.30101776 253.9418945

endloop
endfacet
facet normal -0.7551784515 0.2980231345 -0.5838558078
outer loop
vertex -31.77809906 45.19684601 254.1310425
vertex -31.59075165 45.30101776 253.9418945
vertex -31.7800827 44.96131134 254.013382

endloop
endfacet
facet normal -0.7694323659 0.311486572 -0.5576289296
outer loop
vertex -31.7800827 44.96131134 254.013382
vertex -31.59075165 45.30101776 253.9418945
vertex -31.59714508 45.07518768 253.8245697

endloop
endfacet
facet normal -0.7695595026 0.3195774555 -0.552854836
outer loop
vertex -31.78006744 44.9613266 254.0133972
vertex -31.59714508 45.07520294 253.8246002
vertex -31.78266144 44.70108795 253.8665771

endloop
endfacet
facet normal -0.7794998288 0.3265611827 -0.5345445275
outer loop
vertex -31.78266144 44.70108795 253.8665771
vertex -31.59714508 45.07520294 253.8246002
vertex -31.60312653 44.8179245 253.6761475

endloop
endfacet
facet normal -0.7794991732 0.3260724247 -0.5348437428
outer loop
vertex -31.78266144 44.70108795 253.8665771
vertex -31.60312653 44.8179245 253.6761475
vertex -31.78649139 44.44167328 253.7140045

endloop
endfacet
facet normal -0.7874000669 0.3314408064 -0.5197577477
outer loop
vertex -31.78649139 44.44167328 253.7140045
vertex -31.60312653 44.8179245 253.6761475
vertex -31.60984039 44.56113434 253.5225677

endloop
endfacet
facet normal -0.7873951197 0.3322671354 -0.5192375183
outer loop
vertex -31.78649139 44.44167328 253.7140045
vertex -31.60984039 44.56113434 253.5225677
vertex -31.7921524 44.18782806 253.5601501

endloop
endfacet
facet normal -0.7950066328 0.3375152051 -0.5040317178
outer loop
vertex -31.7921524 44.18782806 253.5601501
vertex -31.60984039 44.56113434 253.5225677
vertex -31.61847687 44.31018829 253.3681488

endloop
endfacet
facet normal -0.7950006127 0.3379656672 -0.5037392378
outer loop
vertex -31.7921524 44.18782806 253.5601501
vertex -31.61847687 44.31018829 253.3681488
vertex -31.7987442 43.93952179 253.4039612

endloop
endfacet
facet normal -0.802339673 0.3430109024 -0.4884615541
outer loop
vertex -31.7987442 43.93952179 253.4039612
vertex -31.61847687 44.31018829 253.3681488
vertex -31.62848663 44.06465912 253.2121735

endloop
endfacet
facet normal -0.8024578691 0.3351676762 -0.4936841428
outer loop
vertex -31.79871368 43.93953705 253.4039917
vertex -31.62845612 44.06467438 253.212204
vertex -31.80197906 43.69298553 253.2419128

endloop
endfacet
facet normal -0.8073016405 0.3382356167 -0.4835914075
outer loop
vertex -31.80197906 43.69298553 253.2419128
vertex -31.62845612 44.06467438 253.212204
vertex -31.63556671 43.81906891 253.0522919

endloop
endfacet
facet normal -0.8072348833 0.3108729124 -0.501726985
outer loop
vertex -31.80197906 43.69298553 253.2419128
vertex -31.63556671 43.81906891 253.0522919
vertex -31.79311371 43.44609833 253.0746765

endloop
endfacet
facet normal -0.8068050742 0.3106413186 -0.5025609136
outer loop
vertex -31.79311371 43.44609833 253.0746765
vertex -31.63556671 43.81906891 253.0522919
vertex -31.6317215 43.56871796 252.8913727

endloop
endfacet
facet normal -0.8038336039 0.253670752 -0.5380545259
outer loop
vertex -31.79311371 43.44609833 253.0746765
vertex -31.6317215 43.56871796 252.8913727
vertex -31.76105499 43.2048111 252.9130249

endloop
endfacet
facet normal -0.7957748175 0.2500018477 -0.5515810251
outer loop
vertex -31.76105499 43.2048111 252.9130249
vertex -31.6317215 43.56871796 252.8913727
vertex -31.60774994 43.31725311 252.7428131

endloop
endfacet
facet normal -0.7828856707 0.1554508507 -0.602432549
outer loop
vertex -31.76105499 43.2048111 252.9130249
vertex -31.60774994 43.31725311 252.7428131
vertex -31.69988251 42.98387909 252.7765198

endloop
endfacet
facet normal -0.7659485936 0.1484345645 -0.6255316734
outer loop
vertex -31.69988251 42.98387909 252.7765198
vertex -31.60774994 43.31725311 252.7428131
vertex -31.55954742 43.07933807 252.6273346

endloop
endfacet
facet normal -0.7300960422 0.005409670528 -0.6833232045
outer loop
vertex -31.69988251 42.98387909 252.7765198
vertex -31.55954742 43.07933807 252.6273346
vertex -31.61533356 42.80130768 252.6847382

endloop
endfacet
facet normal -0.7066272497 -0.004306033719 -0.707572937
outer loop
vertex -31.61533356 42.80130768 252.6847382
vertex -31.55954742 43.07933807 252.6273346
vertex -31.49333954 42.87574005 252.5624542

endloop
endfacet
facet normal -0.6056548357 -0.2487685084 -0.7558414936
outer loop
vertex -31.61534882 42.80130768 252.6847229
vertex -31.49333954 42.87575531 252.5624542
vertex -31.50989532 42.65898895 252.6470642

endloop
endfacet
facet normal -0.585355103 -0.2556214929 -0.769426465
outer loop
vertex -31.50989532 42.65898895 252.6470642
vertex -31.49333954 42.87575531 252.5624542
vertex -31.4136734 42.7103653 252.5567932

endloop
endfacet
facet normal -0.08634629101 -0.8234930634 -0.5607168674
outer loop
vertex -31.50989532 42.65898895 252.6470642
vertex -31.4136734 42.7103653 252.5567932
vertex -31.22359467 42.53678131 252.7824554

endloop
endfacet
facet normal 0.6997686028 -0.1436936855 -0.6997686028
outer loop
vertex -31.22359467 42.53678131 252.7824554
vertex -31.4136734 42.7103653 252.5567932
vertex -31.22357941 42.53678131 252.7824707

endloop
endfacet
facet normal 0.6988226771 0.1526227295 -0.6988226771
outer loop
vertex -31.21660614 46.71074677 255.0648804
vertex -31.2166214 46.71074677 255.0648651
vertex -31.45835114 46.76929474 254.8359222

endloop
endfacet
facet normal -0.07882801443 0.9426641464 0.3242998421
outer loop
vertex -31.45835114 46.76929474 254.8359222
vertex -31.2166214 46.71074677 255.0648651
vertex -31.32898712 46.80370331 254.7673492

endloop
endfacet
facet normal -0.419349432 0.8260104656 -0.3766334653
outer loop
vertex -31.45835114 46.76929474 254.8359222
vertex -31.32898712 46.80370331 254.7673492
vertex -31.52394867 46.66733551 254.6853485

endloop
endfacet
facet normal -0.3852658868 0.8131549954 -0.4362903535
outer loop
vertex -31.52394867 46.66733551 254.6853485
vertex -31.32898712 46.80370331 254.7673492
vertex -31.34694672 46.7078476 254.6045532

endloop
endfacet
facet normal -0.4284166992 0.6759591699 -0.5996151567
outer loop
vertex -31.52394867 46.66733551 254.6853485
vertex -31.34694672 46.7078476 254.6045532
vertex -31.56365204 46.50241852 254.5278015

endloop
endfacet
facet normal -0.389426142 0.6533572674 -0.6492084265
outer loop
vertex -31.56365204 46.50241852 254.5278015
vertex -31.34694672 46.7078476 254.6045532
vertex -31.34635162 46.54642487 254.4417419

endloop
endfacet
facet normal -0.4016109705 0.5476227999 -0.7340421081
outer loop
vertex -31.56365204 46.50241852 254.5278015
vertex -31.34635162 46.54642487 254.4417419
vertex -31.58289337 46.27878571 254.3714905

endloop
endfacet
facet normal -0.3679633439 0.5264014006 -0.7664884925
outer loop
vertex -31.58289337 46.27878571 254.3714905
vertex -31.34635162 46.54642487 254.4417419
vertex -31.33383942 46.3250351 254.2836914

endloop
endfacet
facet normal -0.3701311648 0.4415850043 -0.8173161149
outer loop
vertex -31.58289337 46.27878571 254.3714905
vertex -31.33383942 46.3250351 254.2836914
vertex -31.58675385 46.01931 254.2330475

endloop
endfacet
facet normal -0.3517823219 0.4288493991 -0.8320682049
outer loop
vertex -31.58675385 46.01931 254.2330475
vertex -31.33383942 46.3250351 254.2836914
vertex -31.31815338 46.06707001 254.144104

endloop
endfacet
facet normal -0.3506201804 0.3684286177 -0.8610028625
outer loop
vertex -31.58675385 46.01931 254.2330475
vertex -31.31815338 46.06707001 254.144104
vertex -31.58498383 45.74834442 254.1163788

endloop
endfacet
facet normal -0.3509834111 0.3687093854 -0.8607346416
outer loop
vertex -31.58498383 45.74834442 254.1163788
vertex -31.31815338 46.06707001 254.144104
vertex -31.30782318 45.79727936 254.0243225

endloop
endfacet
facet normal -0.3497332335 0.3348862529 -0.8749501705
outer loop
vertex -31.58498383 45.74834442 254.1163788
vertex -31.30782318 45.79727936 254.0243225
vertex -31.58542633 45.49660492 254.0202026

endloop
endfacet
facet normal -0.3651824594 0.3489868939 -0.8630468845
outer loop
vertex -31.58542633 45.49660492 254.0202026
vertex -31.30782318 45.79727936 254.0243225
vertex -31.30675507 45.54851532 253.9232788

endloop
endfacet
facet normal -0.3653474152 0.354585886 -0.860691607
outer loop
vertex -31.58542633 45.49662018 254.0202179
vertex -31.30673981 45.54850006 253.9232941
vertex -31.59075165 45.30101776 253.9418945

endloop
endfacet
facet normal -0.3863120079 0.3801718354 -0.8403763175
outer loop
vertex -31.59075165 45.30101776 253.9418945
vertex -31.30673981 45.54850006 253.9232941
vertex -31.31369781 45.36107635 253.8417053

endloop
endfacet
facet normal -0.3880838454 0.4335172474 -0.8132980466
outer loop
vertex -31.59075165 45.30101776 253.9418945
vertex -31.31369781 45.36107635 253.8417053
vertex -31.59714508 45.07518768 253.8245697

endloop
endfacet
facet normal -0.4075735509 0.4516629875 -0.7936525941
outer loop
vertex -31.59714508 45.07518768 253.8245697
vertex -31.31369781 45.36107635 253.8417053
vertex -31.32230377 45.14020538 253.7204285

endloop
endfacet
facet normal -0.4077386856 0.4634419084 -0.7867469192
outer loop
vertex -31.59714508 45.07520294 253.8246002
vertex -31.32228851 45.14020538 253.7204437
vertex -31.60312653 44.8179245 253.6761475

endloop
endfacet
facet normal -0.4218225479 0.4738274217 -0.7730157971
outer loop
vertex -31.60312653 44.8179245 253.6761475
vertex -31.32228851 45.14020538 253.7204437
vertex -31.3300705 44.88459015 253.5680084

endloop
endfacet
facet normal -0.4218221009 0.473478049 -0.7732299566
outer loop
vertex -31.60312653 44.8179245 253.6761475
vertex -31.3300705 44.88459015 253.5680084
vertex -31.60984039 44.56113434 253.5225677

endloop
endfacet
facet normal -0.4333013296 0.4817823768 -0.7616664767
outer loop
vertex -31.60984039 44.56113434 253.5225677
vertex -31.3300705 44.88459015 253.5680084
vertex -31.33840179 44.62928009 253.4112549

endloop
endfacet
facet normal -0.4332919121 0.4830933809 -0.7608409524
outer loop
vertex -31.60984039 44.56113434 253.5225677
vertex -31.33840179 44.62928009 253.4112549
vertex -31.61847687 44.31018829 253.3681488

endloop
endfacet
facet normal -0.444719404 0.4914931655 -0.7487716675
outer loop
vertex -31.61847687 44.31018829 253.3681488
vertex -31.33840179 44.62928009 253.4112549
vertex -31.34897614 44.37999725 253.2539062

endloop
endfacet
facet normal -0.4446935654 0.49312374 -0.7477142215
outer loop
vertex -31.61847687 44.31018829 253.3681488
vertex -31.34897614 44.37999725 253.2539062
vertex -31.62848663 44.06465912 253.2121735

endloop
endfacet
facet normal -0.4555849731 0.5011875629 -0.7356991768
outer loop
vertex -31.62848663 44.06465912 253.2121735
vertex -31.34897614 44.37999725 253.2539062
vertex -31.36164093 44.13605499 253.0955658

endloop
endfacet
facet normal -0.4557730258 0.4948945045 -0.7398313284
outer loop
vertex -31.62845612 44.06467438 253.212204
vertex -31.36164093 44.13605499 253.0955811
vertex -31.63556671 43.81906891 253.0522919

endloop
endfacet
facet normal -0.4630196393 0.50006181 -0.7318134904
outer loop
vertex -31.63556671 43.81906891 253.0522919
vertex -31.36164093 44.13605499 253.0955811
vertex -31.37297821 43.89099884 252.9353027

endloop
endfacet
facet normal -0.4634100795 0.4740977883 -0.7486537099
outer loop
vertex -31.63556671 43.81906891 253.0522919
vertex -31.37297821 43.89099884 252.9353027
vertex -31.6317215 43.56871796 252.8913727

endloop
endfacet
facet normal -0.463034749 0.4738494754 -0.7490430474
outer loop
vertex -31.6317215 43.56871796 252.8913727
vertex -31.37297821 43.89099884 252.9353027
vertex -31.37725067 43.63881683 252.7784119

endloop
endfacet
facet normal -0.4622892737 0.4179496169 -0.7820528746
outer loop
vertex -31.6317215 43.56871796 252.8913727
vertex -31.37725067 43.63881683 252.7784119
vertex -31.60774994 43.31725311 252.7428131

endloop
endfacet
facet normal -0.4502343535 0.4105147123 -0.7929480672
outer loop
vertex -31.60774994 43.31725311 252.7428131
vertex -31.37725067 43.63881683 252.7784119
vertex -31.36858368 43.38202667 252.6405487

endloop
endfacet
facet normal -0.4441488087 0.31679672 -0.8380762339
outer loop
vertex -31.60774994 43.31725311 252.7428131
vertex -31.36858368 43.38202667 252.6405487
vertex -31.55954742 43.07933807 252.6273346

endloop
endfacet
facet normal -0.4177367389 0.300971508 -0.8572701216
outer loop
vertex -31.55954742 43.07933807 252.6273346
vertex -31.36858368 43.38202667 252.6405487
vertex -31.34514618 43.13539886 252.5425415

endloop
endfacet
facet normal -0.398640424 0.15823704 -0.9033531547
outer loop
vertex -31.55954742 43.07933807 252.6273346
vertex -31.34514618 43.13539886 252.5425415
vertex -31.49333954 42.87574005 252.5624542

endloop
endfacet
facet normal -0.3574270308 0.1331009418 -0.924407959
outer loop
vertex -31.49333954 42.87574005 252.5624542
vertex -31.34514618 43.13539886 252.5425415
vertex -31.31208038 42.92121124 252.4989166

endloop
endfacet
facet normal -0.3031358123 -0.1136314347 -0.9461482763
outer loop
vertex -31.49333954 42.87575531 252.5624542
vertex -31.31206512 42.92121124 252.4989166
vertex -31.4136734 42.7103653 252.5567932

endloop
endfacet
facet normal -0.2500558496 -0.1423834115 -0.9577051401
outer loop
vertex -31.4136734 42.7103653 252.5567932
vertex -31.31206512 42.92121124 252.4989166
vertex -31.27513885 42.7438736 252.5156403

endloop
endfacet
facet normal 0.008451029658 -0.7891668677 -0.6141207218
outer loop
vertex -31.4136734 42.7103653 252.5567932
vertex -31.27513885 42.7438736 252.5156403
vertex -31.22357941 42.53678131 252.7824707

endloop
endfacet
facet normal -0.8153545856 0.3702911437 0.4450634718
outer loop
vertex -31.22357941 42.53678131 252.7824707
vertex -31.27513885 42.7438736 252.5156403
vertex -31.22359467 42.53676605 252.7824554

endloop
endfacet
facet normal -0.4080736935 0.816147387 0.4091201425
outer loop
vertex -31.2166214 46.71074677 255.0648651
vertex -31.21659088 46.71076202 255.0648651
vertex -31.32898712 46.80370331 254.7673492

endloop
endfacet
facet normal 0.0447014235 0.9582377076 0.2824574411
outer loop
vertex -31.32898712 46.80370331 254.7673492
vertex -31.21659088 46.71076202 255.0648651
vertex -31.1774826 46.80197906 254.7492218

endloop
endfacet
facet normal -0.05031573027 0.8630437851 -0.5026168823
outer loop
vertex -31.32898712 46.80370331 254.7673492
vertex -31.1774826 46.80197906 254.7492218
vertex -31.34694672 46.7078476 254.6045532

endloop
endfacet
facet normal -0.02143301629 0.8492857814 -0.5274980068
outer loop
vertex -31.34694672 46.7078476 254.6045532
vertex -31.1774826 46.80197906 254.7492218
vertex -31.14543915 46.7075119 254.5958252

endloop
endfacet
facet normal -0.02930276096 0.7097700238 -0.7038238049
outer loop
vertex -31.34694672 46.7078476 254.6045532
vertex -31.14543915 46.7075119 254.5958252
vertex -31.34635162 46.54642487 254.4417419

endloop
endfacet
facet normal 0.01120678429 0.6838448048 -0.7295413613
outer loop
vertex -31.34635162 46.54642487 254.4417419
vertex -31.14543915 46.7075119 254.5958252
vertex -31.10471344 46.54795074 254.4468842

endloop
endfacet
facet normal 0.01363859605 0.5814876556 -0.8134408593
outer loop
vertex -31.34635162 46.54642487 254.4417419
vertex -31.10471344 46.54795074 254.4468842
vertex -31.33383942 46.3250351 254.2836914

endloop
endfacet
facet normal 0.05014189333 0.5558975935 -0.8297370672
outer loop
vertex -31.33383942 46.3250351 254.2836914
vertex -31.10471344 46.54795074 254.4468842
vertex -31.06174469 46.32839203 254.3023834

endloop
endfacet
facet normal 0.05433979258 0.4777550399 -0.8768108487
outer loop
vertex -31.33383942 46.3250351 254.2836914
vertex -31.06174469 46.32839203 254.3023834
vertex -31.31815338 46.06707001 254.144104

endloop
endfacet
facet normal 0.07481890172 0.4618820846 -0.8837800026
outer loop
vertex -31.31815338 46.06707001 254.144104
vertex -31.06174469 46.32839203 254.3023834
vertex -31.02725983 46.07151031 254.171051

endloop
endfacet
facet normal 0.0780910328 0.4070405662 -0.9100657701
outer loop
vertex -31.31815338 46.06707001 254.144104
vertex -31.02725983 46.07151031 254.171051
vertex -31.30782318 45.79727936 254.0243225

endloop
endfacet
facet normal 0.07790886611 0.407197684 -0.9100111127
outer loop
vertex -31.30782318 45.79727936 254.0243225
vertex -31.02725983 46.07151031 254.171051
vertex -31.00753021 45.80188751 254.0520935

endloop
endfacet
facet normal 0.07963711768 0.3754219413 -0.9234263897
outer loop
vertex -31.30782318 45.79727936 254.0243225
vertex -31.00753021 45.80188751 254.0520935
vertex -31.30675507 45.54851532 253.9232788

endloop
endfacet
facet normal 0.06292679906 0.3922474682 -0.9177048802
outer loop
vertex -31.30675507 45.54851532 253.9232788
vertex -31.00753021 45.80188751 254.0520935
vertex -31.00243378 45.55210114 253.9456787

endloop
endfacet
facet normal 0.06275080144 0.396392256 -0.9159342051
outer loop
vertex -31.30673981 45.54850006 253.9232941
vertex -31.00243378 45.55208588 253.945694
vertex -31.31369781 45.36107635 253.8417053

endloop
endfacet
facet normal 0.03941399232 0.4274717271 -0.9031690955
outer loop
vertex -31.31369781 45.36107635 253.8417053
vertex -31.00243378 45.55208588 253.945694
vertex -31.00775909 45.36220551 253.8555908

endloop
endfacet
facet normal 0.03801245242 0.4798163474 -0.8765451312
outer loop
vertex -31.31369781 45.36107635 253.8417053
vertex -31.00775909 45.36220551 253.8555908
vertex -31.32230377 45.14020538 253.7204285

endloop
endfacet
facet normal 0.01803147979 0.5011888742 -0.8651500344
outer loop
vertex -31.32230377 45.14020538 253.7204285
vertex -31.00775909 45.36220551 253.8555908
vertex -31.01566315 45.1402359 253.7268372

endloop
endfacet
facet normal 0.01790140197 0.5117025375 -0.8589761257
outer loop
vertex -31.32228851 45.14020538 253.7204437
vertex -31.01564789 45.1402359 253.7268524
vertex -31.3300705 44.88459015 253.5680084

endloop
endfacet
facet normal 0.00247009797 0.5255689025 -0.8507474065
outer loop
vertex -31.3300705 44.88459015 253.5680084
vertex -31.01564789 45.1402359 253.7268524
vertex -31.02324677 44.88460541 253.5689087

endloop
endfacet
facet normal 0.00247455202 0.5231644511 -0.8522281647
outer loop
vertex -31.3300705 44.88459015 253.5680084
vertex -31.02324677 44.88460541 253.5689087
vertex -31.33840179 44.62928009 253.4112549

endloop
endfacet
facet normal -0.01024120022 0.5344730616 -0.8451234698
outer loop
vertex -31.33840179 44.62928009 253.4112549
vertex -31.02324677 44.88460541 253.5689087
vertex -31.03162384 44.62929535 253.407547

endloop
endfacet
facet normal -0.01024441887 0.5340497494 -0.8453909159
outer loop
vertex -31.33840179 44.62928009 253.4112549
vertex -31.03162384 44.62929535 253.407547
vertex -31.34897614 44.37999725 253.2539062

endloop
endfacet
facet normal -0.02305592783 0.5456258655 -0.8377116323
outer loop
vertex -31.34897614 44.37999725 253.2539062
vertex -31.03162384 44.62929535 253.407547
vertex -31.04257965 44.38001251 253.2454834

endloop
endfacet
facet normal -0.023064401 0.5451489091 -0.8380218148
outer loop
vertex -31.34897614 44.37999725 253.2539062
vertex -31.04257965 44.38001251 253.2454834
vertex -31.36164093 44.13605499 253.0955658

endloop
endfacet
facet normal -0.0353785269 0.5564165711 -0.8301499486
outer loop
vertex -31.36164093 44.13605499 253.0955658
vertex -31.04257965 44.38001251 253.2454834
vertex -31.05646515 44.13608551 253.0825806

endloop
endfacet
facet normal -0.03563543409 0.5481737852 -0.8356049061
outer loop
vertex -31.36164093 44.13605499 253.0955811
vertex -31.05644989 44.13610077 253.0825958
vertex -31.37297821 43.89099884 252.9353027

endloop
endfacet
facet normal -0.04387655109 0.5556165576 -0.8302801251
outer loop
vertex -31.37297821 43.89099884 252.9353027
vertex -31.05644989 44.13610077 253.0825958
vertex -31.07152557 43.89109039 252.9194336

endloop
endfacet
facet normal -0.04479565471 0.5282643437 -0.84789747
outer loop
vertex -31.37297821 43.89099884 252.9353027
vertex -31.07152557 43.89109039 252.9194336
vertex -31.37725067 43.63881683 252.7784119

endloop
endfacet
facet normal -0.04445169121 0.527962625 -0.848103404
outer loop
vertex -31.37725067 43.63881683 252.7784119
vertex -31.07152557 43.89109039 252.9194336
vertex -31.08519745 43.63921356 252.7633514

endloop
endfacet
facet normal -0.04605910927 0.4713038206 -0.8807674646
outer loop
vertex -31.37725067 43.63881683 252.7784119
vertex -31.08519745 43.63921356 252.7633514
vertex -31.36858368 43.38202667 252.6405487

endloop
endfacet
facet normal -0.03258286417 0.4596664608 -0.8874937892
outer loop
vertex -31.36858368 43.38202667 252.6405487
vertex -31.08519745 43.63921356 252.7633514
vertex -31.09574127 43.38327789 252.6311798

endloop
endfacet
facet normal -0.03361020982 0.3663293719 -0.929878056
outer loop
vertex -31.36858368 43.38202667 252.6405487
vertex -31.09574127 43.38327789 252.6311798
vertex -31.34514618 43.13539886 252.5425415

endloop
endfacet
facet normal -0.002132436726 0.3386080861 -0.9409250617
outer loop
vertex -31.34514618 43.13539886 252.5425415
vertex -31.09574127 43.38327789 252.6311798
vertex -31.10347748 43.13840485 252.5430756

endloop
endfacet
facet normal -0.0003164230729 0.1995315105 -0.9798913598
outer loop
vertex -31.34514618 43.13539886 252.5425415
vertex -31.10347748 43.13840485 252.5430756
vertex -31.31208038 42.92121124 252.4989166

endloop
endfacet
facet normal 0.05140644312 0.1513293684 -0.9871457815
outer loop
vertex -31.31208038 42.92121124 252.4989166
vertex -31.10347748 43.13840485 252.5430756
vertex -31.11119843 42.92662811 252.5102081

endloop
endfacet
facet normal 0.05813436583 -0.08172336221 -0.9949581027
outer loop
vertex -31.31206512 42.92121124 252.4989166
vertex -31.11119843 42.92662811 252.5102081
vertex -31.27513885 42.7438736 252.5156403

endloop
endfacet
facet normal 0.1296796054 -0.1454831362 -0.9808250666
outer loop
vertex -31.27513885 42.7438736 252.5156403
vertex -31.11119843 42.92662811 252.5102081
vertex -31.12476349 42.75138092 252.5344086

endloop
endfacet
facet normal 0.1163683236 -0.7735666037 -0.6229390502
outer loop
vertex -31.27513885 42.7438736 252.5156403
vertex -31.12476349 42.75138092 252.5344086
vertex -31.22359467 42.53676605 252.7824554

endloop
endfacet
facet normal 0.928917408 0 0.3702869415
outer loop
vertex -31.22359467 42.53676605 252.7824554
vertex -31.12476349 42.75138092 252.5344086
vertex -31.22359467 42.53678131 252.7824554

endloop
endfacet
facet normal -0.2989313602 -0.9062450528 -0.2989313602
outer loop
vertex -31.21659088 46.71076202 255.0648651
vertex -31.21660614 46.71076202 255.0648804
vertex -31.1774826 46.80197906 254.7492218

endloop
endfacet
facet normal 0.1761019081 0.9396429062 0.2933586836
outer loop
vertex -31.1774826 46.80197906 254.7492218
vertex -31.21660614 46.71076202 255.0648804
vertex -31.03821564 46.76448822 254.7857056

endloop
endfacet
facet normal 0.3392061591 0.8309925199 -0.4408974349
outer loop
vertex -31.1774826 46.80197906 254.7492218
vertex -31.03821564 46.76448822 254.7857056
vertex -31.14543915 46.7075119 254.5958252

endloop
endfacet
facet normal 0.3484312594 0.8252924085 -0.4443963468
outer loop
vertex -31.14543915 46.7075119 254.5958252
vertex -31.03821564 46.76448822 254.7857056
vertex -30.96459198 46.66635895 254.6611938

endloop
endfacet
facet normal 0.3810079098 0.6809908748 -0.625367403
outer loop
vertex -31.14543915 46.7075119 254.5958252
vertex -30.96459198 46.66635895 254.6611938
vertex -31.10471344 46.54795074 254.4468842

endloop
endfacet
facet normal 0.4116166234 0.6566723585 -0.6319440007
outer loop
vertex -31.10471344 46.54795074 254.4468842
vertex -30.96459198 46.66635895 254.6611938
vertex -30.89266205 46.50669098 254.5421295

endloop
endfacet
facet normal 0.4284455776 0.5537577868 -0.7139934301
outer loop
vertex -31.10471344 46.54795074 254.4468842
vertex -30.89266205 46.50669098 254.5421295
vertex -31.06174469 46.32839203 254.3023834

endloop
endfacet
facet normal 0.4594635367 0.5263162851 -0.7154608965
outer loop
vertex -31.06174469 46.32839203 254.3023834
vertex -30.89266205 46.50669098 254.5421295
vertex -30.82707977 46.28806305 254.4234161

endloop
endfacet
facet normal 0.46911183 0.4511314034 -0.7592197061
outer loop
vertex -31.06174469 46.32839203 254.3023834
vertex -30.82707977 46.28806305 254.4234161
vertex -31.02725983 46.07151031 254.171051

endloop
endfacet
facet normal 0.4868877828 0.4335762262 -0.758255899
outer loop
vertex -31.02725983 46.07151031 254.171051
vertex -30.82707977 46.28806305 254.4234161
vertex -30.77870941 46.03168488 254.3078766

endloop
endfacet
facet normal 0.4919558764 0.3813144267 -0.7826740742
outer loop
vertex -31.02725983 46.07151031 254.171051
vertex -30.77870941 46.03168488 254.3078766
vertex -31.00753021 45.80188751 254.0520935

endloop
endfacet
facet normal 0.4920051992 0.3812602162 -0.7826695442
outer loop
vertex -31.00753021 45.80188751 254.0520935
vertex -30.77870941 46.03168488 254.3078766
vertex -30.75086212 45.76110077 254.193573

endloop
endfacet
facet normal 0.4942961633 0.3492255807 -0.7960607409
outer loop
vertex -31.00753021 45.80188751 254.0520935
vertex -30.75086212 45.76110077 254.193573
vertex -31.00243378 45.55210114 253.9456787

endloop
endfacet
facet normal 0.4792752266 0.3681091368 -0.7967377305
outer loop
vertex -31.00243378 45.55210114 253.9456787
vertex -30.75086212 45.76110077 254.193573
vertex -30.74013519 45.50653839 254.0824127

endloop
endfacet
facet normal 0.479368329 0.3652300835 -0.7980055809
outer loop
vertex -31.00243378 45.55208588 253.945694
vertex -30.74013519 45.50653839 254.0824127
vertex -31.00775909 45.36220551 253.8555908

endloop
endfacet
facet normal 0.4583404958 0.3985580504 -0.7944025993
outer loop
vertex -31.00775909 45.36220551 253.8555908
vertex -30.74013519 45.50653839 254.0824127
vertex -30.74089813 45.30416107 253.9804382

endloop
endfacet
facet normal 0.4574940205 0.4339178205 -0.7761536837
outer loop
vertex -31.00775909 45.36220551 253.8555908
vertex -30.74089813 45.30416107 253.9804382
vertex -31.01566315 45.1402359 253.7268372

endloop
endfacet
facet normal 0.4401863813 0.4574736059 -0.7726278305
outer loop
vertex -31.01566315 45.1402359 253.7268372
vertex -30.74089813 45.30416107 253.9804382
vertex -30.74549103 45.07527924 253.8423004

endloop
endfacet
facet normal 0.440107137 0.4624768794 -0.7696887851
outer loop
vertex -31.01564789 45.1402359 253.7268524
vertex -30.74547577 45.07529449 253.8423157
vertex -31.02324677 44.88460541 253.5689087

endloop
endfacet
facet normal 0.4264016449 0.4790042639 -0.7672916651
outer loop
vertex -31.02324677 44.88460541 253.5689087
vertex -30.74547577 45.07529449 253.8423157
vertex -30.75089264 44.8179245 253.6786346

endloop
endfacet
facet normal 0.426423341 0.47321257 -0.7708651423
outer loop
vertex -31.02324677 44.88460541 253.5689087
vertex -30.75089264 44.8179245 253.6786346
vertex -31.03162384 44.62929535 253.407547

endloop
endfacet
facet normal 0.4148412645 0.4870977104 -0.7685326934
outer loop
vertex -31.03162384 44.62929535 253.407547
vertex -30.75089264 44.8179245 253.6786346
vertex -30.75769806 44.56113434 253.512207

endloop
endfacet
facet normal 0.4148143232 0.4830675721 -0.7710866928
outer loop
vertex -31.03162384 44.62929535 253.407547
vertex -30.75769806 44.56113434 253.512207
vertex -31.04257965 44.38001251 253.2454834

endloop
endfacet
facet normal 0.4030578434 0.4973559976 -0.768232584
outer loop
vertex -31.04257965 44.38001251 253.2454834
vertex -30.75769806 44.56113434 253.512207
vertex -30.76735687 44.31021881 253.344696

endloop
endfacet
facet normal 0.4029649496 0.4923113286 -0.7715237141
outer loop
vertex -31.04257965 44.38001251 253.2454834
vertex -30.76735687 44.31021881 253.344696
vertex -31.05646515 44.13608551 253.0825806

endloop
endfacet
facet normal 0.3916488886 0.5062667727 -0.7683132887
outer loop
vertex -31.05646515 44.13608551 253.0825806
vertex -30.76735687 44.31021881 253.344696
vertex -30.78079987 44.06473541 253.1760864

endloop
endfacet
facet normal 0.3912857175 0.4932879508 -0.7768928409
outer loop
vertex -31.05644989 44.13610077 253.0825958
vertex -30.78078461 44.06475067 253.1761322
vertex -31.07152557 43.89109039 252.9194336

endloop
endfacet
facet normal 0.38364622 0.5027444363 -0.7746376395
outer loop
vertex -31.07152557 43.89109039 252.9194336
vertex -30.78078461 44.06475067 253.1761322
vertex -30.79819489 43.81929779 253.0082092

endloop
endfacet
facet normal 0.3820131123 0.4717204273 -0.794698596
outer loop
vertex -31.07152557 43.89109039 252.9194336
vertex -30.79819489 43.81929779 253.0082092
vertex -31.08519745 43.63921356 252.7633514

endloop
endfacet
facet normal 0.3822574914 0.471416384 -0.7947615385
outer loop
vertex -31.08519745 43.63921356 252.7633514
vertex -30.79819489 43.81929779 253.0082092
vertex -30.82045746 43.56978607 252.8495026

endloop
endfacet
facet normal 0.3779059649 0.4124859869 -0.8288802505
outer loop
vertex -31.08519745 43.63921356 252.7633514
vertex -30.82045746 43.56978607 252.8495026
vertex -31.09574127 43.38327789 252.6311798

endloop
endfacet
facet normal 0.390404582 0.3964271843 -0.8309209943
outer loop
vertex -31.09574127 43.38327789 252.6311798
vertex -30.82045746 43.56978607 252.8495026
vertex -30.84984589 43.3207016 252.7168579

endloop
endfacet
facet normal 0.3813245296 0.3022789955 -0.8736240268
outer loop
vertex -31.09574127 43.38327789 252.6311798
vertex -30.84984589 43.3207016 252.7168579
vertex -31.10347748 43.13840485 252.5430756

endloop
endfacet
facet normal 0.4102699757 0.261927098 -0.8735403419
outer loop
vertex -31.10347748 43.13840485 252.5430756
vertex -30.84984589 43.3207016 252.7168579
vertex -30.88834381 43.08757782 252.6288757

endloop
endfacet
facet normal 0.3931895494 0.1269958317 -0.9106448889
outer loop
vertex -31.10347748 43.13840485 252.5430756
vertex -30.88834381 43.08757782 252.6288757
vertex -31.11119843 42.92662811 252.5102081

endloop
endfacet
facet normal 0.438901484 0.05359410495 -0.8969354033
outer loop
vertex -31.11119843 42.92662811 252.5102081
vertex -30.88834381 43.08757782 252.6288757
vertex -30.93570709 42.89066315 252.5939331

endloop
endfacet
facet normal 0.3991222978 -0.1556731761 -0.9035857916
outer loop
vertex -31.11119843 42.92662811 252.5102081
vertex -30.93570709 42.89067841 252.5939178
vertex -31.12476349 42.75138092 252.5344086

endloop
endfacet
facet normal 0.4562828839 -0.2550807893 -0.8524903059
outer loop
vertex -31.12476349 42.75138092 252.5344086
vertex -30.93570709 42.89067841 252.5939178
vertex -30.99660492 42.73105621 252.6090851

endloop
endfacet
facet normal 0.2185546756 -0.77937603 -0.5872026086
outer loop
vertex -31.12476349 42.75138092 252.5344086
vertex -30.99660492 42.73105621 252.6090851
vertex -31.22359467 42.53678131 252.7824554

endloop
endfacet
facet normal -nan(ind) -nan(ind) -nan(ind)
outer loop
vertex -31.22359467 42.53678131 252.7824554
vertex -30.99660492 42.73105621 252.6090851
vertex -31.22359467 42.53678131 252.7824554

endloop
endfacet
facet normal 0.8426567912 -0 0.5384510756
outer loop
vertex -31.21660614 46.71076202 255.0648804
vertex -31.21660614 46.71074677 255.0648804
vertex -31.03821564 46.76448822 254.7857056

endloop
endfacet
facet normal 0.2891731858 0.8886781931 0.355850935
outer loop
vertex -31.03821564 46.76448822 254.7857056
vertex -31.21660614 46.71074677 255.0648804
vertex -30.94219208 46.70067596 254.8670349

endloop
endfacet
facet normal 0.6512989402 0.733810842 -0.1932132989
outer loop
vertex -31.03821564 46.76448822 254.7857056
vertex -30.94219208 46.70067596 254.8670349
vertex -30.96459198 46.66635895 254.6611938

endloop
endfacet
facet normal 0.6405051351 0.7431512475 -0.1935958862
outer loop
vertex -30.96459198 46.66635895 254.6611938
vertex -30.94219208 46.70067596 254.8670349
vertex -30.84427643 46.59468842 254.7841339

endloop
endfacet
facet normal 0.7205951214 0.5927994251 -0.3596268594
outer loop
vertex -30.96459198 46.66635895 254.6611938
vertex -30.84427643 46.59468842 254.7841339
vertex -30.89266205 46.50669098 254.5421295

endloop
endfacet
facet normal 0.736317277 0.5751869678 -0.3563660383
outer loop
vertex -30.89266205 46.50669098 254.5421295
vertex -30.84427643 46.59468842 254.7841339
vertex -30.75661469 46.43288422 254.7041016

endloop
endfacet
facet normal 0.7703313828 0.4668909013 -0.4342838824
outer loop
vertex -30.89266205 46.50669098 254.5421295
vertex -30.75661469 46.43288422 254.7041016
vertex -30.82707977 46.28806305 254.4234161

endloop
endfacet
facet normal 0.7897672653 0.4413608909 -0.4259908497
outer loop
vertex -30.82707977 46.28806305 254.4234161
vertex -30.75661469 46.43288422 254.7041016
vertex -30.68109894 46.21414948 254.6174774

endloop
endfacet
facet normal 0.805809617 0.3629117608 -0.4679380357
outer loop
vertex -30.82707977 46.28806305 254.4234161
vertex -30.68109894 46.21414948 254.6174774
vertex -30.77870941 46.03168488 254.3078766

endloop
endfacet
facet normal 0.8171457648 0.3456220627 -0.4613222778
outer loop
vertex -30.77870941 46.03168488 254.3078766
vertex -30.68109894 46.21414948 254.6174774
vertex -30.62667084 45.95748138 254.5215912

endloop
endfacet
facet normal 0.8245050311 0.2900888026 -0.4858393967
outer loop
vertex -30.77870941 46.03168488 254.3078766
vertex -30.62667084 45.95748138 254.5215912
vertex -30.75086212 45.76110077 254.193573

endloop
endfacet
facet normal 0.8240213394 0.2909274995 -0.486158371
outer loop
vertex -30.75086212 45.76110077 254.193573
vertex -30.62667084 45.95748138 254.5215912
vertex -30.59369659 45.685112 254.4144897

endloop
endfacet
facet normal 0.8272604942 0.2537429333 -0.5012531281
outer loop
vertex -30.75086212 45.76110077 254.193573
vertex -30.59369659 45.685112 254.4144897
vertex -30.74013519 45.50653839 254.0824127

endloop
endfacet
facet normal 0.817283988 0.2732351124 -0.5073356032
outer loop
vertex -30.74013519 45.50653839 254.0824127
vertex -30.59369659 45.685112 254.4144897
vertex -30.57706451 45.42324066 254.3002472

endloop
endfacet
facet normal 0.8183089495 0.2561788559 -0.5145317316
outer loop
vertex -30.74013519 45.50653839 254.0824127
vertex -30.57707977 45.42324066 254.3002625
vertex -30.74089813 45.30416107 253.9804382

endloop
endfacet
facet normal 0.8043602109 0.2884733081 -0.519411087
outer loop
vertex -30.74089813 45.30416107 253.9804382
vertex -30.57707977 45.42324066 254.3002625
vertex -30.5714035 45.20130157 254.185791

endloop
endfacet
facet normal 0.8041818738 0.2952171266 -0.5158860087
outer loop
vertex -30.74089813 45.30416107 253.9804382
vertex -30.5714035 45.20130157 254.185791
vertex -30.74549103 45.07527924 253.8423004

endloop
endfacet
facet normal 0.7922645211 0.3206066191 -0.5191611648
outer loop
vertex -30.74549103 45.07527924 253.8423004
vertex -30.5714035 45.20130157 254.185791
vertex -30.57083893 44.96141815 254.0385132

endloop
endfacet
facet normal 0.7923298478 0.3154409528 -0.5222168565
outer loop
vertex -30.74547577 45.07529449 253.8423157
vertex -30.57082367 44.96143341 254.0385284
vertex -30.75089264 44.8179245 253.6786346

endloop
endfacet
facet normal 0.7827566266 0.3342688382 -0.5249347091
outer loop
vertex -30.75089264 44.8179245 253.6786346
vertex -30.57082367 44.96143341 254.0385284
vertex -30.57262421 44.70105743 253.8700409

endloop
endfacet
facet normal 0.78281039 0.3236877322 -0.5314452648
outer loop
vertex -30.75089264 44.8179245 253.6786346
vertex -30.57262421 44.70105743 253.8700409
vertex -30.75769806 44.56113434 253.512207

endloop
endfacet
facet normal 0.7747849226 0.3393629491 -0.5334239006
outer loop
vertex -30.75769806 44.56113434 253.512207
vertex -30.57262421 44.70105743 253.8700409
vertex -30.57659149 44.44165802 253.6992493

endloop
endfacet
facet normal 0.7747294307 0.3301735222 -0.5392400026
outer loop
vertex -30.75769806 44.56113434 253.512207
vertex -30.57659149 44.44165802 253.6992493
vertex -30.76735687 44.31021881 253.344696

endloop
endfacet
facet normal 0.7666124105 0.3461735845 -0.5408042073
outer loop
vertex -30.76735687 44.31021881 253.344696
vertex -30.57659149 44.44165802 253.6992493
vertex -30.58361053 44.18785858 253.5268402

endloop
endfacet
facet normal 0.7663897276 0.3346460164 -0.5483235717
outer loop
vertex -30.76735687 44.31021881 253.344696
vertex -30.58361053 44.18785858 253.5268402
vertex -30.78079987 44.06473541 253.1760864

endloop
endfacet
facet normal 0.7585629225 0.3503107131 -0.5494220853
outer loop
vertex -30.78079987 44.06473541 253.1760864
vertex -30.58361053 44.18785858 253.5268402
vertex -30.5951004 43.93958282 253.3526764

endloop
endfacet
facet normal 0.7577552199 0.3309857845 -0.5623658895
outer loop
vertex -30.78078461 44.06475067 253.1761322
vertex -30.59508514 43.93959808 253.3526917
vertex -30.79819489 43.81929779 253.0082092

endloop
endfacet
facet normal 0.7524593472 0.3417872787 -0.5630154014
outer loop
vertex -30.79819489 43.81929779 253.0082092
vertex -30.59508514 43.93959808 253.3526917
vertex -30.61296844 43.69330597 253.1792755

endloop
endfacet
facet normal 0.7498805523 0.3061349094 -0.5864815116
outer loop
vertex -30.79819489 43.81929779 253.0082092
vertex -30.61296844 43.69330597 253.1792755
vertex -30.82045746 43.56978607 252.8495026

endloop
endfacet
facet normal 0.7501059175 0.3056551814 -0.5864435434
outer loop
vertex -30.82045746 43.56978607 252.8495026
vertex -30.61296844 43.69330597 253.1792755
vertex -30.64110565 43.44760895 253.0152283

endloop
endfacet
facet normal 0.7426329255 0.2444140464 -0.6235046983
outer loop
vertex -30.82045746 43.56978607 252.8495026
vertex -30.64110565 43.44760895 253.0152283
vertex -30.84984589 43.3207016 252.7168579

endloop
endfacet
facet normal 0.7510565519 0.2244616598 -0.6209113598
outer loop
vertex -30.84984589 43.3207016 252.7168579
vertex -30.64110565 43.44760895 253.0152283
vertex -30.68488312 43.20964813 252.8762512

endloop
endfacet
facet normal 0.7330388427 0.1308572739 -0.6674807072
outer loop
vertex -30.84984589 43.3207016 252.7168579
vertex -30.68488312 43.20964813 252.8762512
vertex -30.88834381 43.08757782 252.6288757

endloop
endfacet
facet normal 0.7499727011 0.08048879355 -0.6565535665
outer loop
vertex -30.88834381 43.08757782 252.6288757
vertex -30.68488312 43.20964813 252.8762512
vertex -30.74713898 42.99550629 252.7788849

endloop
endfacet
facet normal 0.7127081752 -0.04723338783 -0.6998686194
outer loop
vertex -30.88834381 43.08757782 252.6288757
vertex -30.74713898 42.99550629 252.7788849
vertex -30.93570709 42.89066315 252.5939331

endloop
endfacet
facet normal 0.731331408 -0.1365845501 -0.6682057381
outer loop
vertex -30.93570709 42.89066315 252.5939331
vertex -30.74713898 42.99550629 252.7788849
vertex -30.82444 42.82234955 252.7296753

endloop
endfacet
facet normal 0.6507686377 -0.3139653504 -0.6913219094
outer loop
vertex -30.93570709 42.89067841 252.5939178
vertex -30.82445526 42.82234955 252.7296753
vertex -30.99660492 42.73105621 252.6090851

endloop
endfacet
facet normal 0.6597197056 -0.4286842048 -0.6172517538
outer loop
vertex -30.99660492 42.73105621 252.6090851
vertex -30.82445526 42.82234955 252.7296753
vertex -30.91936493 42.68808746 252.7214813

endloop
endfacet
facet normal 0.2978132367 -0.8053588271 -0.5125469565
outer loop
vertex -30.99660492 42.73105621 252.6090851
vertex -30.91936493 42.68808746 252.7214813
vertex -31.22359467 42.53678131 252.7824554

endloop
endfacet
facet normal 0 0.3738436103 0.9274917841
outer loop
vertex -31.22359467 42.53678131 252.7824554
vertex -30.91936493 42.68808746 252.7214813
vertex -31.22360992 42.53678131 252.7824554

endloop
endfacet
facet normal -0.03667460009 -0.999327302 0
outer loop
vertex -31.21660614 46.71074677 255.0648804
vertex -31.21660614 46.71074677 255.0648651
vertex -30.94219208 46.70067596 254.8670349

endloop
endfacet
facet normal 0.3614790738 0.8109318614 0.4601330161
outer loop
vertex -30.94219208 46.70067596 254.8670349
vertex -31.21660614 46.71074677 255.0648651
vertex -30.90923309 46.62412262 254.976059

endloop
endfacet
facet normal 0.7878834009 0.5900912285 0.1761594564
outer loop
vertex -30.94219208 46.70067596 254.8670349
vertex -30.90923309 46.62412262 254.976059
vertex -30.84427643 46.59468842 254.7841339

endloop
endfacet
facet normal 0.7743271589 0.6099306941 0.1685287356
outer loop
vertex -30.84427643 46.59468842 254.7841339
vertex -30.90923309 46.62412262 254.976059
vertex -30.80931854 46.50743866 254.9392853

endloop
endfacet
facet normal 0.8890926838 0.4543865323 0.05519973487
outer loop
vertex -30.84427643 46.59468842 254.7841339
vertex -30.80931854 46.50743866 254.9392853
vertex -30.75661469 46.43288422 254.7041016

endloop
endfacet
facet normal 0.8947457075 0.442494899 0.06023626402
outer loop
vertex -30.75661469 46.43288422 254.7041016
vertex -30.80931854 46.50743866 254.9392853
vertex -30.72470856 46.34174347 254.8996887

endloop
endfacet
facet normal 0.9450317025 0.3269737661 -0.001798008918
outer loop
vertex -30.75661469 46.43288422 254.7041016
vertex -30.72470856 46.34174347 254.8996887
vertex -30.68109894 46.21414948 254.6174774

endloop
endfacet
facet normal 0.9527166486 0.3036983013 0.009912897833
outer loop
vertex -30.68109894 46.21414948 254.6174774
vertex -30.72470856 46.34174347 254.8996887
vertex -30.65401459 46.12175751 254.8450165

endloop
endfacet
facet normal 0.975700736 0.2173245549 -0.02789490111
outer loop
vertex -30.68109894 46.21414948 254.6174774
vertex -30.65401459 46.12175751 254.8450165
vertex -30.62667084 45.95748138 254.5215912

endloop
endfacet
facet normal 0.979418695 0.2009191662 -0.01924784482
outer loop
vertex -30.62667084 45.95748138 254.5215912
vertex -30.65401459 46.12175751 254.8450165
vertex -30.60266876 45.86414337 254.7686157

endloop
endfacet
facet normal 0.9895495176 0.1372193843 -0.04430109262
outer loop
vertex -30.62667084 45.95748138 254.5215912
vertex -30.60266876 45.86414337 254.7686157
vertex -30.59369659 45.685112 254.4144897

endloop
endfacet
facet normal 0.9892911911 0.1388090104 -0.04511129856
outer loop
vertex -30.59369659 45.685112 254.4144897
vertex -30.60266876 45.86414337 254.7686157
vertex -30.5686264 45.58943939 254.6698914

endloop
endfacet
facet normal 0.9938374758 0.09083551168 -0.06352827698
outer loop
vertex -30.59369659 45.685112 254.4144897
vertex -30.5686264 45.58943939 254.6698914
vertex -30.57706451 45.42324066 254.3002472

endloop
endfacet
facet normal 0.9912815094 0.1102261543 -0.07218831033
outer loop
vertex -30.57706451 45.42324066 254.3002472
vertex -30.5686264 45.58943939 254.6698914
vertex -30.54694366 45.31911469 254.5548706

endloop
endfacet
facet normal 0.9935406446 0.07104794681 -0.08848243952
outer loop
vertex -30.57707977 45.42324066 254.3002625
vertex -30.54695892 45.31911469 254.5548706
vertex -30.5714035 45.20130157 254.185791

endloop
endfacet
facet normal 0.990010798 0.1014190093 -0.09794333577
outer loop
vertex -30.5714035 45.20130157 254.185791
vertex -30.54695892 45.31911469 254.5548706
vertex -30.53427887 45.07456207 254.4298096

endloop
endfacet
facet normal 0.9909418821 0.07194934785 -0.1133910939
outer loop
vertex -30.5714035 45.20130157 254.185791
vertex -30.53427887 45.07456207 254.4298096
vertex -30.57083893 44.96141815 254.0385132

endloop
endfacet
facet normal 0.9876612425 0.0993950218 -0.1210205257
outer loop
vertex -30.57083893 44.96141815 254.0385132
vertex -30.53427887 45.07456207 254.4298096
vertex -30.52774811 44.82180023 254.2755127

endloop
endfacet
facet normal 0.9879505634 0.07920888811 -0.1329649091
outer loop
vertex -30.57082367 44.96143341 254.0385284
vertex -30.52773285 44.82181549 254.275528
vertex -30.57262421 44.70105743 253.8700409

endloop
endfacet
facet normal 0.9853494167 0.09929787368 -0.1386596411
outer loop
vertex -30.57262421 44.70105743 253.8700409
vertex -30.52773285 44.82181549 254.275528
vertex -30.52523041 44.55780792 254.104248

endloop
endfacet
facet normal 0.985401094 0.08285348862 -0.1487280875
outer loop
vertex -30.57262421 44.70105743 253.8700409
vertex -30.52523041 44.55780792 254.104248
vertex -30.57659149 44.44165802 253.6992493

endloop
endfacet
facet normal 0.983176887 0.09945314378 -0.1532066315
outer loop
vertex -30.57659149 44.44165802 253.6992493
vertex -30.52523041 44.55780792 254.104248
vertex -30.52570343 44.29517365 253.9307251

endloop
endfacet
facet normal 0.9830442071 0.08365835249 -0.1631728411
outer loop
vertex -30.57659149 44.44165802 253.6992493
vertex -30.52570343 44.29517365 253.9307251
vertex -30.58361053 44.18785858 253.5268402

endloop
endfacet
facet normal 0.98076123 0.100538142 -0.1673305929
outer loop
vertex -30.58361053 44.18785858 253.5268402
vertex -30.52570343 44.29517365 253.9307251
vertex -30.52931976 44.03778839 253.7548828

endloop
endfacet
facet normal 0.9803100228 0.08097132295 -0.1800996959
outer loop
vertex -30.58361053 44.18785858 253.5268402
vertex -30.52931976 44.03778839 253.7548828
vertex -30.5951004 43.93958282 253.3526764

endloop
endfacet
facet normal 0.978071928 0.09784308076 -0.1838531792
outer loop
vertex -30.5951004 43.93958282 253.3526764
vertex -30.52931976 44.03778839 253.7548828
vertex -30.53768158 43.78614044 253.5764771

endloop
endfacet
facet normal 0.9768331051 0.07117477804 -0.2018196881
outer loop
vertex -30.59508514 43.93959808 253.3526917
vertex -30.53766632 43.7861557 253.5764923
vertex -30.61296844 43.69330597 253.1792755

endloop
endfacet
facet normal 0.9753962159 0.0828852579 -0.2042846233
outer loop
vertex -30.61296844 43.69330597 253.1792755
vertex -30.53766632 43.7861557 253.5764923
vertex -30.55405426 43.53873444 253.3978577

endloop
endfacet
facet normal 0.9718980193 0.04320222139 -0.2314038128
outer loop
vertex -30.61296844 43.69330597 253.1792755
vertex -30.55405426 43.53873444 253.3978577
vertex -30.64110565 43.44760895 253.0152283

endloop
endfacet
facet normal 0.9719660282 0.04249165952 -0.2312500477
outer loop
vertex -30.64110565 43.44760895 253.0152283
vertex -30.55405426 43.53873444 253.3978577
vertex -30.58420563 43.2975235 253.2268066

endloop
endfacet
facet normal 0.9621942639 -0.01830408908 -0.2717482448
outer loop
vertex -30.64110565 43.44760895 253.0152283
vertex -30.58420563 43.2975235 253.2268066
vertex -30.68488312 43.20964813 252.8762512

endloop
endfacet
facet normal 0.9629922509 -0.03994568065 -0.2665524781
outer loop
vertex -30.68488312 43.20964813 252.8762512
vertex -30.58420563 43.2975235 253.2268066
vertex -30.63504791 43.07273102 253.0768127

endloop
endfacet
facet normal 0.9387574196 -0.1273343265 -0.3201881051
outer loop
vertex -30.68488312 43.20964813 252.8762512
vertex -30.63504791 43.07273102 253.0768127
vertex -30.74713898 42.99550629 252.7788849

endloop
endfacet
facet normal 0.9352437258 -0.1788179725 -0.30552122
outer loop
vertex -30.74713898 42.99550629 252.7788849
vertex -30.63504791 43.07273102 253.0768127
vertex -30.70914459 42.88095856 252.9622345

endloop
endfacet
facet normal 0.8843206763 -0.2910299003 -0.3650732338
outer loop
vertex -30.74713898 42.99550629 252.7788849
vertex -30.70914459 42.88095856 252.9622345
vertex -30.82444 42.82234955 252.7296753

endloop
endfacet
facet normal 0.8644582033 -0.3758378625 -0.3338529766
outer loop
vertex -30.82444 42.82234955 252.7296753
vertex -30.70914459 42.88095856 252.9622345
vertex -30.80056 42.73563385 252.8891296

endloop
endfacet
facet normal 0.7617220283 -0.5144211054 -0.3938914239
outer loop
vertex -30.82445526 42.82234955 252.7296753
vertex -30.80054474 42.73564911 252.8891449
vertex -30.91936493 42.68808746 252.7214813

endloop
endfacet
facet normal 0.7160981297 -0.6131439209 -0.3335535824
outer loop
vertex -30.91936493 42.68808746 252.7214813
vertex -30.80054474 42.73564911 252.8891449
vertex -30.90900421 42.63152313 252.847702

endloop
endfacet
facet normal 0.3397863805 -0.8475384116 -0.4077055156
outer loop
vertex -30.91936493 42.68808746 252.7214813
vertex -30.90900421 42.63152313 252.847702
vertex -31.22360992 42.53678131 252.7824554

endloop
endfacet
facet normal 0.1555032879 0.155648753 -0.9754958749
outer loop
vertex -31.22360992 42.53678131 252.7824554
vertex -30.90900421 42.63152313 252.847702
vertex -31.22359467 42.53676605 252.7824554

endloop
endfacet
facet normal 0.2089050114 0.9553623796 -0.2089050114
outer loop
vertex -31.21660614 46.71073151 255.0648499
vertex -31.21659088 46.71073151 255.0648651
vertex -30.90924835 46.62410736 254.976059

endloop
endfacet
facet normal 0.3726723194 0.711432457 0.5958012938
outer loop
vertex -30.90924835 46.62410736 254.976059
vertex -31.21659088 46.71073151 255.0648651
vertex -30.96044159 46.53923798 255.1094208

endloop
endfacet
facet normal 0.7118593454 0.4359137714 0.5506682396
outer loop
vertex -30.90924835 46.62410736 254.976059
vertex -30.96044159 46.53923798 255.1094208
vertex -30.80934906 46.5074234 254.9392853

endloop
endfacet
facet normal 0.710664928 0.4401871562 0.5488083959
outer loop
vertex -30.80934906 46.5074234 254.9392853
vertex -30.96044159 46.53923798 255.1094208
vertex -30.88808441 46.40906525 255.1201324

endloop
endfacet
facet normal 0.8090119362 0.2911953032 0.5105928183
outer loop
vertex -30.80934906 46.5074234 254.9392853
vertex -30.88808441 46.40906525 255.1201324
vertex -30.72470856 46.34172821 254.8996735

endloop
endfacet
facet normal 0.8114947677 0.2668670118 0.5198636651
outer loop
vertex -30.72470856 46.34172821 254.8996735
vertex -30.88808441 46.40906525 255.1201324
vertex -30.8307724 46.2374649 255.1187592

endloop
endfacet
facet normal 0.8585150838 0.1542579085 0.4890362322
outer loop
vertex -30.72470856 46.34172821 254.8996735
vertex -30.8307724 46.2374649 255.1187592
vertex -30.65402985 46.12174225 254.844986

endloop
endfacet
facet normal 0.8566093445 0.1225968897 0.5011888742
outer loop
vertex -30.65402985 46.12174225 254.844986
vertex -30.8307724 46.2374649 255.1187592
vertex -30.78365326 46.01477814 255.0926971

endloop
endfacet
facet normal 0.8793063164 0.03446184844 0.4750083089
outer loop
vertex -30.65402985 46.12174225 254.844986
vertex -30.78365326 46.01477814 255.0926971
vertex -30.60266876 45.86411285 254.7686005

endloop
endfacet
facet normal 0.8758203983 0.01432098355 0.4824246764
outer loop
vertex -30.60266876 45.86411285 254.7686005
vertex -30.78365326 46.01477814 255.0926971
vertex -30.74692535 45.75530243 255.0337219

endloop
endfacet
facet normal 0.8864024282 -0.05532877892 0.4595970511
outer loop
vertex -30.60266876 45.86411285 254.7686005
vertex -30.74692535 45.75530243 255.0337219
vertex -30.5686264 45.58942413 254.6698761

endloop
endfacet
facet normal 0.8868669868 -0.05337046832 0.4589319229
outer loop
vertex -30.5686264 45.58942413 254.6698761
vertex -30.74692535 45.75530243 255.0337219
vertex -30.71723175 45.47786713 254.9440765

endloop
endfacet
facet normal 0.8921659589 -0.1143516898 0.4369938374
outer loop
vertex -30.5686264 45.58942413 254.6698761
vertex -30.71723175 45.47786713 254.9440765
vertex -30.54694366 45.31909943 254.5548706

endloop
endfacet
facet normal 0.897631824 -0.09323591739 0.4307715595
outer loop
vertex -30.54694366 45.31909943 254.5548706
vertex -30.71723175 45.47786713 254.9440765
vertex -30.69216156 45.19852448 254.8313751

endloop
endfacet
facet normal 0.9009311199 -0.1596850306 0.4035145044
outer loop
vertex -30.54695892 45.31909943 254.5548553
vertex -30.69217682 45.19853973 254.8313751
vertex -30.53429413 45.07453156 254.4297943

endloop
endfacet
facet normal 0.9087489843 -0.1286735833 0.3970117569
outer loop
vertex -30.53429413 45.07453156 254.4297943
vertex -30.69217682 45.19853973 254.8313751
vertex -30.67255402 44.92964935 254.6993103

endloop
endfacet
facet normal 0.9112885594 -0.1971292347 0.3615152538
outer loop
vertex -30.53429413 45.07453156 254.4297943
vertex -30.67255402 44.92964935 254.6993103
vertex -30.52776337 44.82178497 254.2755127

endloop
endfacet
facet normal 0.9194149375 -0.1662367433 0.3564288914
outer loop
vertex -30.52776337 44.82178497 254.2755127
vertex -30.67255402 44.92964935 254.6993103
vertex -30.6595993 44.66287994 254.5414734

endloop
endfacet
facet normal 0.9201279283 -0.2069897056 0.3324452341
outer loop
vertex -30.52774811 44.82178497 254.275528
vertex -30.65958405 44.6628952 254.5414886
vertex -30.52524567 44.55779266 254.1042328

endloop
endfacet
facet normal 0.9260654449 -0.1849005818 0.3289599121
outer loop
vertex -30.52524567 44.55779266 254.1042328
vertex -30.65958405 44.6628952 254.5414886
vertex -30.65229034 44.3947525 254.3702393

endloop
endfacet
facet normal 0.9260658026 -0.2091932297 0.3140707016
outer loop
vertex -30.52524567 44.55779266 254.1042328
vertex -30.65229034 44.3947525 254.3702393
vertex -30.52571869 44.29515839 253.9306946

endloop
endfacet
facet normal 0.9309004545 -0.1910197139 0.3113450706
outer loop
vertex -30.52571869 44.29515839 253.9306946
vertex -30.65229034 44.3947525 254.3702393
vertex -30.64875031 44.12845612 254.1962738

endloop
endfacet
facet normal 0.9306174517 -0.2152478248 0.2960061133
outer loop
vertex -30.52571869 44.29515839 253.9306946
vertex -30.64875031 44.12845612 254.1962738
vertex -30.52931976 44.03777313 253.7548523

endloop
endfacet
facet normal 0.9354409575 -0.1969266683 0.2935473621
outer loop
vertex -30.52931976 44.03777313 253.7548523
vertex -30.64875031 44.12845612 254.1962738
vertex -30.64826202 43.86704254 254.0193481

endloop
endfacet
facet normal 0.9346834421 -0.2257292867 0.2746147513
outer loop
vertex -30.52931976 44.03777313 253.7548523
vertex -30.64826202 43.86704254 254.0193481
vertex -30.53768158 43.78612518 253.5764618

endloop
endfacet
facet normal 0.9394671917 -0.207695365 0.2725142837
outer loop
vertex -30.53768158 43.78612518 253.5764618
vertex -30.64826202 43.86704254 254.0193481
vertex -30.65236664 43.61154938 253.8387756

endloop
endfacet
facet normal 0.9377985597 -0.2418995351 0.24903512
outer loop
vertex -30.53766632 43.78614044 253.5764771
vertex -30.65235138 43.6115799 253.8387909
vertex -30.55405426 43.53871918 253.3978577

endloop
endfacet
facet normal 0.9412677884 -0.2294258773 0.2477473915
outer loop
vertex -30.55405426 43.53871918 253.3978577
vertex -30.65235138 43.6115799 253.8387909
vertex -30.66486359 43.36283112 253.6559753

endloop
endfacet
facet normal 0.9375446439 -0.2715033293 0.217476353
outer loop
vertex -30.55405426 43.53871918 253.3978577
vertex -30.66486359 43.36283112 253.6559753
vertex -30.58422089 43.2975235 253.2267914

endloop
endfacet
facet normal 0.9373307824 -0.2721894681 0.217540592
outer loop
vertex -30.58422089 43.2975235 253.2267914
vertex -30.66486359 43.36283112 253.6559753
vertex -30.69181061 43.12653351 253.4764252

endloop
endfacet
facet normal 0.9284001589 -0.3272804916 0.1759562492
outer loop
vertex -30.58422089 43.2975235 253.2267914
vertex -30.69181061 43.12653351 253.4764252
vertex -30.63504791 43.0727005 253.0767975

endloop
endfacet
facet normal 0.920381546 -0.3483344913 0.1776534319
outer loop
vertex -30.63504791 43.0727005 253.0767975
vertex -30.69181061 43.12653351 253.4764252
vertex -30.73934174 42.91623688 253.3103333

endloop
endfacet
facet normal 0.8996214867 -0.4196945727 0.1205726787
outer loop
vertex -30.63504791 43.0727005 253.0767975
vertex -30.73934174 42.91623688 253.3103333
vertex -30.70915985 42.88092804 252.9622345

endloop
endfacet
facet normal 0.8763298988 -0.465685755 0.1232182309
outer loop
vertex -30.70915985 42.88092804 252.9622345
vertex -30.73934174 42.91623688 253.3103333
vertex -30.80847931 42.74898529 253.1699371

endloop
endfacet
facet normal 0.8339248896 -0.5496439338 0.04960666969
outer loop
vertex -30.70915985 42.88092804 252.9622345
vertex -30.80847931 42.74898529 253.1699371
vertex -30.80057526 42.73563385 252.8891296

endloop
endfacet
facet normal 0.7855377197 -0.6166726947 0.05143167824
outer loop
vertex -30.80057526 42.73563385 252.8891296
vertex -30.80847931 42.74898529 253.1699371
vertex -30.89156342 42.63420868 253.0627289

endloop
endfacet
facet normal 0.7012427449 -0.71130234 -0.04803693295
outer loop
vertex -30.80056 42.73563385 252.8891296
vertex -30.89154816 42.63420868 253.0627289
vertex -30.90900421 42.63152313 252.8476715

endloop
endfacet
facet normal 0.6261513829 -0.7786174417 -0.04110120982
outer loop
vertex -30.90900421 42.63152313 252.8476715
vertex -30.89154816 42.63420868 253.0627289
vertex -30.98514557 42.56339264 252.978363

endloop
endfacet
facet normal 0.329456389 -0.9021987915 -0.2783806622
outer loop
vertex -30.90900421 42.63152313 252.8476715
vertex -30.98514557 42.56339264 252.978363
vertex -31.22360992 42.53676605 252.7824402

endloop
endfacet
facet normal 0.4673894942 -0.7503959537 -0.4673894942
outer loop
vertex -31.22360992 42.53676605 252.7824402
vertex -30.98514557 42.56339264 252.978363
vertex -31.22359467 42.53676605 252.7824554

endloop
endfacet
facet normal -nan(ind) -nan(ind) -nan(ind)
outer loop
vertex -31.21660614 46.71074677 255.0648651
vertex -31.21660614 46.71074677 255.0648651
vertex -30.96044159 46.53923798 255.1094208

endloop
endfacet
facet normal 0.2715618908 0.6009046435 0.7517763972
outer loop
vertex -30.96044159 46.53923798 255.1094208
vertex -31.21660614 46.71074677 255.0648651
vertex -31.20624542 46.45917511 255.262207

endloop
endfacet
facet normal 0.4279455543 0.3078022599 0.8497766852
outer loop
vertex -30.96044159 46.53923798 255.1094208
vertex -31.20624542 46.45917511 255.262207
vertex -30.88808441 46.40906525 255.1201324

endloop
endfacet
facet normal 0.42616117 0.2130308449 0.879206717
outer loop
vertex -30.88808441 46.40906525 255.1201324
vertex -31.20624542 46.45917511 255.262207
vertex -31.22818756 46.31351471 255.308136

endloop
endfacet
facet normal 0.4479041696 0.1424384862 0.8826625347
outer loop
vertex -30.88808441 46.40906525 255.1201324
vertex -31.22818756 46.31351471 255.308136
vertex -30.8307724 46.23744965 255.1187439

endloop
endfacet
facet normal 0.4355721474 0.03627758846 0.8994225264
outer loop
vertex -30.8307724 46.23744965 255.1187439
vertex -31.22818756 46.31351471 255.308136
vertex -31.2516098 46.1332016 255.3267517

endloop
endfacet
facet normal 0.4451602697 -0.01047554146 0.8953896761
outer loop
vertex -30.8307724 46.23744965 255.1187439
vertex -31.2516098 46.1332016 255.3267517
vertex -30.78365326 46.01476288 255.0927124

endloop
endfacet
facet normal 0.4265955687 -0.0923692286 0.899713397
outer loop
vertex -30.78365326 46.01476288 255.0927124
vertex -31.2516098 46.1332016 255.3267517
vertex -31.26836395 45.90526581 255.3112946

endloop
endfacet
facet normal 0.4332813621 -0.141050458 0.8901527524
outer loop
vertex -30.78365326 46.01476288 255.0927124
vertex -31.26836395 45.90526581 255.3112946
vertex -30.74692535 45.75530243 255.0337219

endloop
endfacet
facet normal 0.4207591414 -0.1819672287 0.8887348175
outer loop
vertex -30.74692535 45.75530243 255.0337219
vertex -31.26836395 45.90526581 255.3112946
vertex -31.27089691 45.64244843 255.2586823

endloop
endfacet
facet normal 0.425893575 -0.2365867049 0.8732934594
outer loop
vertex -30.74692535 45.75530243 255.0337219
vertex -31.27089691 45.64244843 255.2586823
vertex -30.71721649 45.47788239 254.9440765

endloop
endfacet
facet normal 0.4265371859 -0.2347621024 0.8734716177
outer loop
vertex -30.71721649 45.47788239 254.9440765
vertex -31.27089691 45.64244843 255.2586823
vertex -31.25780487 45.36215973 255.1769562

endloop
endfacet
facet normal 0.4310683906 -0.3041244745 0.8495223522
outer loop
vertex -30.71721649 45.47788239 254.9440765
vertex -31.25780487 45.36215973 255.1769562
vertex -30.69216156 45.19853973 254.8313599

endloop
endfacet
facet normal 0.4432379007 -0.2718853652 0.8541771173
outer loop
vertex -30.69216156 45.19853973 254.8313599
vertex -31.25780487 45.36215973 255.1769562
vertex -31.23470306 45.07527924 255.0736542

endloop
endfacet
facet normal 0.4475853443 -0.3676815331 0.8151549101
outer loop
vertex -30.69216156 45.19855499 254.8313599
vertex -31.23471832 45.07529449 255.0736694
vertex -30.67256927 44.92964935 254.6993103

endloop
endfacet
facet normal 0.4646982551 -0.3242619038 0.8239597678
outer loop
vertex -30.67256927 44.92964935 254.6993103
vertex -31.23471832 45.07529449 255.0736694
vertex -31.21039581 44.78569794 254.9459839

endloop
endfacet
facet normal 0.4689584374 -0.432711035 0.769960463
outer loop
vertex -30.67256927 44.92964935 254.6993103
vertex -31.21039581 44.78569794 254.9459839
vertex -30.6595993 44.66287994 254.5414886

endloop
endfacet
facet normal 0.4862654209 -0.3917309642 0.7810843587
outer loop
vertex -30.6595993 44.66287994 254.5414886
vertex -31.21039581 44.78569794 254.9459839
vertex -31.19194794 44.50662994 254.7945404

endloop
endfacet
facet normal 0.4877204895 -0.4604577422 0.741692245
outer loop
vertex -30.65958405 44.6628952 254.5415039
vertex -31.19193268 44.50666046 254.7945709
vertex -30.65229034 44.3947525 254.3702393

endloop
endfacet
facet normal 0.5009135604 -0.4308183491 0.7506538033
outer loop
vertex -30.65229034 44.3947525 254.3702393
vertex -31.19193268 44.50666046 254.7945709
vertex -31.18021393 44.2345047 254.6305542

endloop
endfacet
facet normal 0.5010133982 -0.4686153829 0.7275887132
outer loop
vertex -30.65229034 44.3947525 254.3702393
vertex -31.18021393 44.2345047 254.6305542
vertex -30.64875031 44.12845612 254.1962891

endloop
endfacet
facet normal 0.5120361447 -0.4442876279 0.735137701
outer loop
vertex -30.64875031 44.12845612 254.1962891
vertex -31.18021393 44.2345047 254.6305542
vertex -31.17273712 43.96463776 254.4622498

endloop
endfacet
facet normal 0.511715889 -0.4809198081 0.7119431496
outer loop
vertex -30.64875031 44.12845612 254.1962891
vertex -31.17273712 43.96463776 254.4622498
vertex -30.64827728 43.86704254 254.0193634

endloop
endfacet
facet normal 0.5230360031 -0.4562467039 0.7199112177
outer loop
vertex -30.64827728 43.86704254 254.0193634
vertex -31.17273712 43.96463776 254.4622498
vertex -31.16776276 43.69921112 254.2904205

endloop
endfacet
facet normal 0.5221554041 -0.4977980554 0.6924960613
outer loop
vertex -30.64827728 43.86704254 254.0193634
vertex -31.16776276 43.69921112 254.2904205
vertex -30.65236664 43.61153412 253.8387756

endloop
endfacet
facet normal 0.5334122777 -0.4738229513 0.7006876469
outer loop
vertex -30.65236664 43.61153412 253.8387756
vertex -31.16776276 43.69921112 254.2904205
vertex -31.166008 43.439888 254.1137238

endloop
endfacet
facet normal 0.5317214131 -0.5187740326 0.6694369316
outer loop
vertex -30.65235138 43.61156464 253.8388062
vertex -31.16597748 43.43991852 254.1137543
vertex -30.66486359 43.36283112 253.6559906

endloop
endfacet
facet normal 0.5394827724 -0.5029597878 0.6752701998
outer loop
vertex -30.66486359 43.36283112 253.6559906
vertex -31.16597748 43.43991852 254.1137543
vertex -31.16986847 43.18982697 253.9305878

endloop
endfacet
facet normal 0.5365921259 -0.5484972596 0.6412641406
outer loop
vertex -30.66486359 43.36283112 253.6559906
vertex -31.16986847 43.18982697 253.9305878
vertex -30.69179535 43.12654877 253.4764252

endloop
endfacet
facet normal 0.5362694263 -0.5491098166 0.6410098076
outer loop
vertex -30.69179535 43.12654877 253.4764252
vertex -31.16986847 43.18982697 253.9305878
vertex -31.18135834 42.95801544 253.7416229

endloop
endfacet
facet normal 0.5313506126 -0.5957396626 0.6022961736
outer loop
vertex -30.69179535 43.12654877 253.4764252
vertex -31.18135834 42.95801544 253.7416229
vertex -30.73934174 42.91623688 253.3103485

endloop
endfacet
facet normal 0.5181772113 -0.6182554364 0.5909758806
outer loop
vertex -30.73934174 42.91623688 253.3103485
vertex -31.18135834 42.95801544 253.7416229
vertex -31.20027924 42.76091766 253.5520172

endloop
endfacet
facet normal 0.5096910596 -0.666960299 0.5434877872
outer loop
vertex -30.73934174 42.91623688 253.3103485
vertex -31.20027924 42.76091766 253.5520172
vertex -30.80849457 42.74898529 253.1699524

endloop
endfacet
facet normal 0.4805686474 -0.7098354101 0.5149635077
outer loop
vertex -30.80849457 42.74898529 253.1699524
vertex -31.20027924 42.76091766 253.5520172
vertex -31.22296906 42.61560822 253.3728943

endloop
endfacet
facet normal 0.4662106633 -0.7601478696 0.452573508
outer loop
vertex -30.80849457 42.74898529 253.1699524
vertex -31.22296906 42.61560822 253.3728943
vertex -30.89156342 42.63420868 253.0627441

endloop
endfacet
facet normal 0.4234450758 -0.8109343648 0.4038312733
outer loop
vertex -30.89156342 42.63420868 253.0627441
vertex -31.22296906 42.61560822 253.3728943
vertex -31.24294281 42.52788544 253.2176819

endloop
endfacet
facet normal 0.3934151232 -0.870890975 0.2945732176
outer loop
vertex -30.89156342 42.63420868 253.0627441
vertex -31.24292755 42.52788544 253.2176666
vertex -30.98514557 42.56339264 252.978363

endloop
endfacet
facet normal 0.3478416502 -0.9062526822 0.2402338088
outer loop
vertex -30.98514557 42.56339264 252.978363
vertex -31.24292755 42.52788544 253.2176666
vertex -31.25376129 42.4874649 253.0808716

endloop
endfacet
facet normal 0.2205868959 -0.9656646848 -0.1372336745
outer loop
vertex -30.98514557 42.56339264 252.978363
vertex -31.25376129 42.4874649 253.0808716
vertex -31.22357941 42.53676605 252.7824707

endloop
endfacet
facet normal 0.146831423 -0.9782098532 -0.1467859894
outer loop
vertex -31.22357941 42.53676605 252.7824707
vertex -31.25376129 42.4874649 253.0808716
vertex -31.22359467 42.53676605 252.7824554

endloop
endfacet
endsolid
