solid 
facet normal -nan(ind) -nan(ind) -nan(ind)
outer loop
vertex -41.64629364 39.58776093 366.0162964
vertex -41.64629364 39.58776093 366.0162964
vertex -41.89260101 39.50037384 366.0686035

endloop
endfacet
facet normal 0.2006603479 0.02068611979 0.9794424176
outer loop
vertex -41.89260101 39.50037384 366.0686035
vertex -41.64629364 39.58776093 366.0162964
vertex -41.85303497 39.7017746 366.0562439

endloop
endfacet
facet normal -0.1988242418 0.09889594465 0.975032568
outer loop
vertex -41.89260101 39.50037384 366.0686035
vertex -41.85303497 39.7017746 366.0562439
vertex -41.98387909 39.47663116 366.0523987

endloop
endfacet
facet normal -0.07709357888 0.02778210491 0.9966367483
outer loop
vertex -41.98387909 39.47663116 366.0523987
vertex -41.85303497 39.7017746 366.0562439
vertex -41.91687775 39.74356842 366.0501404

endloop
endfacet
facet normal -0.2912530899 0.08116871119 0.9531962872
outer loop
vertex -41.98387909 39.47663116 366.0523987
vertex -41.91687775 39.74356842 366.0501404
vertex -42.1208725 39.46672821 366.0113831

endloop
endfacet
facet normal -0.2405219078 0.04146796837 0.9697574377
outer loop
vertex -42.1208725 39.46672821 366.0113831
vertex -41.91687775 39.74356842 366.0501404
vertex -42.02510834 39.80664825 366.0205994

endloop
endfacet
facet normal -0.5934624672 0.1457318962 0.7915583253
outer loop
vertex -42.1208725 39.46672821 366.0113831
vertex -42.02510834 39.80664825 366.0205994
vertex -42.25450897 39.48345184 365.9081116

endloop
endfacet
facet normal -0.5956580043 0.1480123848 0.7894833088
outer loop
vertex -42.25450897 39.48345184 365.9081116
vertex -42.02510834 39.80664825 366.0205994
vertex -42.14194489 39.86336517 365.921814

endloop
endfacet
facet normal -0.7384439707 0.1955168545 0.645347774
outer loop
vertex -42.25450897 39.48345184 365.9081116
vertex -42.14194489 39.86336517 365.921814
vertex -42.37039948 39.51776886 365.7651062

endloop
endfacet
facet normal -0.7415789962 0.1998264939 0.64041394
outer loop
vertex -42.37039948 39.51776886 365.7651062
vertex -42.14194489 39.86336517 365.921814
vertex -42.25440216 39.90697479 365.7779846

endloop
endfacet
facet normal -0.7786572576 0.2125334442 0.5903578401
outer loop
vertex -42.37039948 39.51776886 365.7651062
vertex -42.25440216 39.90697479 365.7779846
vertex -42.47788239 39.55452728 365.6101074

endloop
endfacet
facet normal -0.778339386 0.2120494545 0.5909507871
outer loop
vertex -42.47788239 39.55452728 365.6101074
vertex -42.25440216 39.90697479 365.7779846
vertex -42.36492157 39.94304657 365.6194763

endloop
endfacet
facet normal -0.7909600735 0.21616593 0.5724110603
outer loop
vertex -42.47788239 39.55452728 365.6101074
vertex -42.36492157 39.94304657 365.6194763
vertex -42.58150482 39.58798981 365.4542847

endloop
endfacet
facet normal -0.7892786264 0.2136201113 0.5756784081
outer loop
vertex -42.58150482 39.58798981 365.4542847
vertex -42.36492157 39.94304657 365.6194763
vertex -42.47350311 39.97444916 365.4589539

endloop
endfacet
facet normal -0.8014245033 0.2173659503 0.5571990609
outer loop
vertex -42.58150482 39.58798981 365.4543152
vertex -42.47348785 39.9744339 365.4589233
vertex -42.68241119 39.61750031 365.2976685

endloop
endfacet
facet normal -0.7993200421 0.2142264247 0.5614218116
outer loop
vertex -42.68241119 39.61750031 365.2976685
vertex -42.47348785 39.9744339 365.4589233
vertex -42.57993317 40.00162506 365.2969971

endloop
endfacet
facet normal -0.8128387928 0.217795983 0.5402387977
outer loop
vertex -42.68241119 39.61750031 365.2976685
vertex -42.57993317 40.00162506 365.2969971
vertex -42.78087616 39.64304352 365.1392212

endloop
endfacet
facet normal -0.8108852506 0.214907214 0.5443160534
outer loop
vertex -42.78087616 39.64304352 365.1392212
vertex -42.57993317 40.00162506 365.2969971
vertex -42.68402863 40.02446747 365.1329041

endloop
endfacet
facet normal -0.8251745701 0.2181414962 0.5210577846
outer loop
vertex -42.7808609 39.64304352 365.1392517
vertex -42.68401337 40.02448273 365.1329346
vertex -42.87850189 39.66513824 364.9753723

endloop
endfacet
facet normal -0.8236929774 0.2159083933 0.5243219137
outer loop
vertex -42.87850189 39.66513824 364.9753723
vertex -42.68401337 40.02448273 365.1329346
vertex -42.7876358 40.04358673 364.9622803

endloop
endfacet
facet normal -0.8399846554 0.2188581079 0.4965147078
outer loop
vertex -42.87850189 39.66513824 364.9753723
vertex -42.7876358 40.04358673 364.9622803
vertex -42.98619843 39.68651581 364.7837524

endloop
endfacet
facet normal -0.8390086293 0.2171093076 0.498926878
outer loop
vertex -42.98619843 39.68651581 364.7837524
vertex -42.7876358 40.04358673 364.9622803
vertex -42.90125275 40.06156158 364.7633972

endloop
endfacet
facet normal -0.8508594632 0.2186434418 0.4777376652
outer loop
vertex -42.98619843 39.68651581 364.7837524
vertex -42.90125275 40.06156158 364.7633972
vertex -43.10642242 39.70783234 364.5598755

endloop
endfacet
facet normal -0.8501252532 0.2170498967 0.4797670543
outer loop
vertex -43.10642242 39.70783234 364.5598755
vertex -42.90125275 40.06156158 364.7633972
vertex -43.02661896 40.07915497 364.5332947

endloop
endfacet
facet normal -0.8570562601 0.217625916 0.4670048356
outer loop
vertex -43.10642242 39.70783234 364.5598755
vertex -43.02661896 40.07915497 364.5332947
vertex -43.22800446 39.72692108 364.3278503

endloop
endfacet
facet normal -0.8565456271 0.2164775133 0.4684731662
outer loop
vertex -43.22800446 39.72692108 364.3278503
vertex -43.02661896 40.07915497 364.5332947
vertex -43.15201569 40.09429169 364.2970276

endloop
endfacet
facet normal -0.8611717224 0.2166985422 0.4598098397
outer loop
vertex -43.2279892 39.72693634 364.3278809
vertex -43.15200043 40.0943222 364.2970581
vertex -43.35128021 39.74549103 364.0882263

endloop
endfacet
facet normal -0.8610593081 0.2164335847 0.4601451159
outer loop
vertex -43.35128021 39.74549103 364.0882263
vertex -43.15200043 40.0943222 364.2970581
vertex -43.27570343 40.10845184 364.0589294

endloop
endfacet
facet normal -0.863391757 0.2165599167 0.4556934834
outer loop
vertex -43.35128021 39.74549103 364.0882263
vertex -43.27570343 40.10845184 364.0589294
vertex -43.48220062 39.75370026 363.8362732

endloop
endfacet
facet normal -0.8633062243 0.2163441628 0.4559579194
outer loop
vertex -43.48220062 39.75370026 363.8362732
vertex -43.27570343 40.10845184 364.0589294
vertex -43.40659332 40.1099472 363.8103943

endloop
endfacet
facet normal -0.8764410019 0.2172261775 0.4297254384
outer loop
vertex -43.48220062 39.75370026 363.8362732
vertex -43.40659332 40.1099472 363.8103943
vertex -43.63776398 39.67856598 363.5569763

endloop
endfacet
facet normal -0.873481214 0.2100717723 0.4392041862
outer loop
vertex -43.63776398 39.67856598 363.5569763
vertex -43.40659332 40.1099472 363.8103943
vertex -43.5898819 40.01554108 363.4910278

endloop
endfacet
facet normal -0.9197238088 0.1971265376 0.3394837976
outer loop
vertex -43.63776398 39.67856598 363.5569763
vertex -43.5898819 40.01554108 363.4910278
vertex -43.74634552 39.60449982 363.3058167

endloop
endfacet
facet normal -0.9140920043 0.1854637265 0.3606093824
outer loop
vertex -43.74634552 39.60449982 363.3058167
vertex -43.5898819 40.01554108 363.4910278
vertex -43.72303009 39.8970108 363.2144775

endloop
endfacet
facet normal -0.9905495048 0.1060964689 0.0869211033
outer loop
vertex -43.74634552 39.60449982 363.3058167
vertex -43.72303009 39.8970108 363.2144775
vertex -43.76197052 39.59838104 363.1352234

endloop
endfacet
facet normal -0.99133569 0.1103639752 0.07122740149
outer loop
vertex -43.76197052 39.59838104 363.1352234
vertex -43.72303009 39.8970108 363.2144775
vertex -43.74219513 39.82300568 363.0624084

endloop
endfacet
facet normal -0.9858550429 0.03358671442 -0.1642008573
outer loop
vertex -43.76197052 39.59838104 363.1352234
vertex -43.74219513 39.82300568 363.062439
vertex -43.74794769 39.61193085 363.0538025

endloop
endfacet
facet normal -0.9811494946 0.03451990709 -0.1901422143
outer loop
vertex -43.74794769 39.61193085 363.0538025
vertex -43.74219513 39.82300568 363.062439
vertex -43.73183441 39.7786026 363.0009155

endloop
endfacet
facet normal -0.8457678556 -0.08535569906 -0.5266795158
outer loop
vertex -43.74794769 39.61193085 363.0538025
vertex -43.73183441 39.7786026 363.0009155
vertex -43.6332016 39.65166473 362.8630981

endloop
endfacet
facet normal 0 -0.7355023623 0.6775221229
outer loop
vertex -43.6332016 39.65166473 362.8630981
vertex -43.73183441 39.7786026 363.0009155
vertex -43.63321686 39.65166473 362.8630981

endloop
endfacet
facet normal 0.3207402825 0.7732531428 -0.5469967127
outer loop
vertex -41.64629364 39.58776093 366.0162964
vertex -41.6463089 39.58774567 366.0162659
vertex -41.85303497 39.7017746 366.0562439

endloop
endfacet
facet normal 0.2493063211 0.1148446798 0.9615908861
outer loop
vertex -41.85303497 39.7017746 366.0562439
vertex -41.6463089 39.58774567 366.0162659
vertex -41.75652313 39.79761505 366.0197754

endloop
endfacet
facet normal 0.08856292069 0.2750928104 0.9573298693
outer loop
vertex -41.85303497 39.7017746 366.0562439
vertex -41.75652313 39.79761505 366.0197754
vertex -41.91687775 39.74356842 366.0501404

endloop
endfacet
facet normal 0.060816098 0.3456520736 0.9363899231
outer loop
vertex -41.91687775 39.74356842 366.0501404
vertex -41.75652313 39.79761505 366.0197754
vertex -41.78202057 39.86873627 365.9951782

endloop
endfacet
facet normal -0.009532768279 0.410628438 0.9117529392
outer loop
vertex -41.91687775 39.74356842 366.0501404
vertex -41.78202057 39.86873627 365.9951782
vertex -42.02510834 39.80664825 366.0205994

endloop
endfacet
facet normal -0.02016508952 0.4454329908 0.8950881362
outer loop
vertex -42.02510834 39.80664825 366.0205994
vertex -41.78202057 39.86873627 365.9951782
vertex -41.85315704 39.96596527 365.9451904

endloop
endfacet
facet normal -0.2863967419 0.6446181536 0.708833158
outer loop
vertex -42.02510834 39.80664825 366.0205994
vertex -41.85315704 39.96596527 365.9451904
vertex -42.14194489 39.86336517 365.921814

endloop
endfacet
facet normal -0.2902113497 0.6586907506 0.6941930056
outer loop
vertex -42.14194489 39.86336517 365.921814
vertex -41.85315704 39.96596527 365.9451904
vertex -41.95017242 40.0414505 365.8330078

endloop
endfacet
facet normal -0.4191740751 0.7243481278 0.5473690033
outer loop
vertex -42.14194489 39.86336517 365.921814
vertex -41.95017242 40.0414505 365.8330078
vertex -42.25440216 39.90697479 365.7779846

endloop
endfacet
facet normal -0.4198517203 0.7281928658 0.5417191982
outer loop
vertex -42.25440216 39.90697479 365.7779846
vertex -41.95017242 40.0414505 365.8330078
vertex -42.05912018 40.08942413 365.684082

endloop
endfacet
facet normal -0.458538264 0.7422792315 0.4886350632
outer loop
vertex -42.25440216 39.90697479 365.7779846
vertex -42.05912018 40.08942413 365.684082
vertex -42.36492157 39.94304657 365.6194763

endloop
endfacet
facet normal -0.458499372 0.7419843674 0.4891192019
outer loop
vertex -42.36492157 39.94304657 365.6194763
vertex -42.05912018 40.08942413 365.684082
vertex -42.17154694 40.12514496 365.5245056

endloop
endfacet
facet normal -0.4739655852 0.746704638 0.4666784108
outer loop
vertex -42.36492157 39.94304657 365.6194763
vertex -42.17154694 40.12514496 365.5245056
vertex -42.47350311 39.97444916 365.4589539

endloop
endfacet
facet normal -0.4737652838 0.7451087236 0.4694244862
outer loop
vertex -42.47350311 39.97444916 365.4589539
vertex -42.17154694 40.12514496 365.5245056
vertex -42.28272247 40.15558624 365.3639832

endloop
endfacet
facet normal -0.4887667298 0.7491398454 0.4470979869
outer loop
vertex -42.47348785 39.9744339 365.4589233
vertex -42.28270721 40.15558624 365.3639526
vertex -42.57993317 40.00162506 365.2969971

endloop
endfacet
facet normal -0.4885620475 0.7473495603 0.4503062367
outer loop
vertex -42.57993317 40.00162506 365.2969971
vertex -42.28270721 40.15558624 365.3639526
vertex -42.3917923 40.18169403 365.2022705

endloop
endfacet
facet normal -0.5050400496 0.7512303591 0.4249558449
outer loop
vertex -42.57993317 40.00162506 365.2969971
vertex -42.3917923 40.18169403 365.2022705
vertex -42.68402863 40.02446747 365.1329041

endloop
endfacet
facet normal -0.5048861504 0.7495927811 0.4280193746
outer loop
vertex -42.68402863 40.02446747 365.1329041
vertex -42.3917923 40.18169403 365.2022705
vertex -42.4986496 40.20333099 365.0383301

endloop
endfacet
facet normal -0.5217598677 0.7529169917 0.4011018872
outer loop
vertex -42.68401337 40.02448273 365.1329346
vertex -42.49863434 40.20334625 365.0383301
vertex -42.7876358 40.04358673 364.9622803

endloop
endfacet
facet normal -0.521728158 0.7522059083 0.4024749696
outer loop
vertex -42.7876358 40.04358673 364.9622803
vertex -42.49863434 40.20334625 365.0383301
vertex -42.60648346 40.22130585 364.8649597

endloop
endfacet
facet normal -0.538274467 0.7544013858 0.3756848872
outer loop
vertex -42.7876358 40.04358673 364.9622803
vertex -42.60648346 40.22130585 364.8649597
vertex -42.90125275 40.06156158 364.7633972

endloop
endfacet
facet normal -0.5383416414 0.7537266612 0.3769409657
outer loop
vertex -42.90125275 40.06156158 364.7633972
vertex -42.60648346 40.22130585 364.8649597
vertex -42.72431183 40.23793793 364.6634216

endloop
endfacet
facet normal -0.5502310395 0.7546222806 0.3574786186
outer loop
vertex -42.90125275 40.06156158 364.7633972
vertex -42.72431183 40.23793793 364.6634216
vertex -43.02661896 40.07915497 364.5332947

endloop
endfacet
facet normal -0.5504065752 0.753857553 0.3588195145
outer loop
vertex -43.02661896 40.07915497 364.5332947
vertex -42.72431183 40.23793793 364.6634216
vertex -42.85233307 40.25370026 364.4339294

endloop
endfacet
facet normal -0.5587412119 0.7542375326 0.3448681533
outer loop
vertex -43.02661896 40.07915497 364.5332947
vertex -42.85233307 40.25370026 364.4339294
vertex -43.15201569 40.09429169 364.2970276

endloop
endfacet
facet normal -0.5588974357 0.7536534071 0.3458904028
outer loop
vertex -43.15201569 40.09429169 364.2970276
vertex -42.85233307 40.25370026 364.4339294
vertex -42.97969818 40.26689911 364.1993713

endloop
endfacet
facet normal -0.5637274384 0.7538270354 0.3375741243
outer loop
vertex -43.15200043 40.0943222 364.2970581
vertex -42.97966766 40.26691437 364.1994324
vertex -43.27570343 40.10845184 364.0589294

endloop
endfacet
facet normal -0.5638236403 0.7534976602 0.3381482065
outer loop
vertex -43.27570343 40.10845184 364.0589294
vertex -42.97966766 40.26691437 364.1994324
vertex -43.10408783 40.27895355 363.9651489

endloop
endfacet
facet normal -0.5795788169 0.7537456751 0.3097675443
outer loop
vertex -43.27570343 40.10845184 364.0589294
vertex -43.10408783 40.27895355 363.9651489
vertex -43.40659332 40.1099472 363.8103943

endloop
endfacet
facet normal -0.5790821314 0.7551521659 0.3072604835
outer loop
vertex -43.40659332 40.1099472 363.8103943
vertex -43.10408783 40.27895355 363.9651489
vertex -43.2372818 40.2770462 363.718811

endloop
endfacet
facet normal -0.6507463455 0.7435833216 0.153665334
outer loop
vertex -43.40659332 40.1099472 363.8103943
vertex -43.2372818 40.2770462 363.718811
vertex -43.5898819 40.01554108 363.4910278

endloop
endfacet
facet normal -0.6548554301 0.7369183898 0.167677626
outer loop
vertex -43.5898819 40.01554108 363.4910278
vertex -43.2372818 40.2770462 363.718811
vertex -43.44304657 40.17182159 363.377655

endloop
endfacet
facet normal -0.7124361992 0.7004301548 0.0428038612
outer loop
vertex -43.5898819 40.01554108 363.4910278
vertex -43.44304657 40.17182159 363.377655
vertex -43.72303009 39.8970108 363.2144775

endloop
endfacet
facet normal -0.7199400663 0.6901952624 0.07291606814
outer loop
vertex -43.72303009 39.8970108 363.2144775
vertex -43.44304657 40.17182159 363.377655
vertex -43.6079483 40.03000641 363.0918579

endloop
endfacet
facet normal -0.8163581491 0.553091526 -0.1662801355
outer loop
vertex -43.72303009 39.8970108 363.2144775
vertex -43.6079483 40.03000641 363.0918579
vertex -43.74219513 39.82300568 363.0624084

endloop
endfacet
facet normal -0.8223403096 0.5526047945 -0.1355888397
outer loop
vertex -43.74219513 39.82300568 363.0624084
vertex -43.6079483 40.03000641 363.0918579
vertex -43.65883636 39.92168427 362.9590149

endloop
endfacet
facet normal -0.8635900021 0.3284834623 -0.3825061619
outer loop
vertex -43.74219513 39.82300568 363.062439
vertex -43.65885162 39.92168427 362.9590149
vertex -43.73183441 39.7786026 363.0009155

endloop
endfacet
facet normal -0.8897616863 0.3796561062 -0.2533484697
outer loop
vertex -43.73183441 39.7786026 363.0009155
vertex -43.65885162 39.92168427 362.9590149
vertex -43.67812347 39.849617 362.9187012

endloop
endfacet
facet normal -0.8252629638 -0.02878904156 -0.5640143752
outer loop
vertex -43.73183441 39.7786026 363.0009155
vertex -43.67812347 39.849617 362.9187012
vertex -43.63321686 39.65166473 362.8630981

endloop
endfacet
facet normal -0.9591393471 -0.2531157732 0.1264288723
outer loop
vertex -43.63321686 39.65166473 362.8630981
vertex -43.67812347 39.849617 362.9187012
vertex -43.63321686 39.65164948 362.8630676

endloop
endfacet
facet normal -0.7291631699 -0.3923014402 0.560732305
outer loop
vertex -41.6463089 39.58774567 366.0162659
vertex -41.64627838 39.58777618 366.0163269
vertex -41.75652313 39.79761505 366.0197754

endloop
endfacet
facet normal 0.3261959255 0.1560542881 0.9323321581
outer loop
vertex -41.75652313 39.79761505 366.0197754
vertex -41.64627838 39.58777618 366.0163269
vertex -41.63973236 39.82442474 365.9744263

endloop
endfacet
facet normal 0.252044946 0.3957730532 0.8830838203
outer loop
vertex -41.75652313 39.79761505 366.0197754
vertex -41.63973236 39.82442474 365.9744263
vertex -41.78202057 39.86873627 365.9951782

endloop
endfacet
facet normal 0.2855245769 0.5489411354 0.7855821252
outer loop
vertex -41.78202057 39.86873627 365.9951782
vertex -41.63973236 39.82442474 365.9744263
vertex -41.62984467 39.89785004 365.9195251

endloop
endfacet
facet normal 0.2670922875 0.587959826 0.7635213733
outer loop
vertex -41.78202057 39.86873627 365.9951782
vertex -41.62984467 39.89785004 365.9195251
vertex -41.85315704 39.96596527 365.9451904

endloop
endfacet
facet normal 0.2810094357 0.6580633521 0.6985601187
outer loop
vertex -41.85315704 39.96596527 365.9451904
vertex -41.62984467 39.89785004 365.9195251
vertex -41.66484833 40.00292206 365.8346252

endloop
endfacet
facet normal 0.1143556088 0.867210567 0.4846324027
outer loop
vertex -41.85315704 39.96596527 365.9451904
vertex -41.66484833 40.00292206 365.8346252
vertex -41.95017242 40.0414505 365.8330078

endloop
endfacet
facet normal 0.116347976 0.8808813095 0.4588151276
outer loop
vertex -41.95017242 40.0414505 365.8330078
vertex -41.66484833 40.00292206 365.8346252
vertex -41.74337006 40.08275604 365.7012634

endloop
endfacet
facet normal 0.00356119452 0.9525849223 0.3042520583
outer loop
vertex -41.95017242 40.0414505 365.8330078
vertex -41.74337006 40.08275604 365.7012634
vertex -42.05912018 40.08942413 365.684082

endloop
endfacet
facet normal 0.003963259514 0.9546609521 0.2976688445
outer loop
vertex -42.05912018 40.08942413 365.684082
vertex -41.74337006 40.08275604 365.7012634
vertex -41.84932709 40.13170624 365.5456848

endloop
endfacet
facet normal -0.03566040471 0.9695801735 0.2421622723
outer loop
vertex -42.05912018 40.08942413 365.684082
vertex -41.84932709 40.13170624 365.5456848
vertex -42.17154694 40.12514496 365.5245056

endloop
endfacet
facet normal -0.03569208831 0.969448328 0.2426852137
outer loop
vertex -42.17154694 40.12514496 365.5245056
vertex -41.84932709 40.13170624 365.5456848
vertex -41.96266937 40.16736603 365.3865662

endloop
endfacet
facet normal -0.05139719695 0.974072814 0.2203189284
outer loop
vertex -42.17154694 40.12514496 365.5245056
vertex -41.96266937 40.16736603 365.3865662
vertex -42.28272247 40.15558624 365.3639832

endloop
endfacet
facet normal -0.05154167488 0.9735357165 0.2226466835
outer loop
vertex -42.28272247 40.15558624 365.3639832
vertex -41.96266937 40.16736603 365.3865662
vertex -42.07474518 40.19757843 365.2285156

endloop
endfacet
facet normal -0.06564112753 0.9771674871 0.20207645
outer loop
vertex -42.28270721 40.15558624 365.3639526
vertex -42.07476044 40.19756317 365.2285156
vertex -42.3917923 40.18169403 365.2022705

endloop
endfacet
facet normal -0.0658646524 0.9765063524 0.2051763535
outer loop
vertex -42.3917923 40.18169403 365.2022705
vertex -42.07476044 40.19756317 365.2285156
vertex -42.18453217 40.22345734 365.0700378

endloop
endfacet
facet normal -0.0811804831 0.9798968434 0.1822413057
outer loop
vertex -42.3917923 40.18169403 365.2022705
vertex -42.18453217 40.22345734 365.0700378
vertex -42.4986496 40.20333099 365.0383301

endloop
endfacet
facet normal -0.0814031437 0.9794070125 0.184758082
outer loop
vertex -42.4986496 40.20333099 365.0383301
vertex -42.18453217 40.22345734 365.0700378
vertex -42.29221344 40.2448349 364.9092712

endloop
endfacet
facet normal -0.09640530497 0.9821181297 0.1617096961
outer loop
vertex -42.49863434 40.20334625 365.0383301
vertex -42.29219818 40.24485016 364.9093323
vertex -42.60648346 40.22130585 364.8649597

endloop
endfacet
facet normal -0.09662961215 0.9818055034 0.1634643376
outer loop
vertex -42.60648346 40.22130585 364.8649597
vertex -42.29219818 40.24485016 364.9093323
vertex -42.4026413 40.26285553 364.7359009

endloop
endfacet
facet normal -0.1088024899 0.9834647775 0.1447720677
outer loop
vertex -42.60648346 40.22130585 364.8649597
vertex -42.4026413 40.26285553 364.7359009
vertex -42.72431183 40.23793793 364.6634216

endloop
endfacet
facet normal -0.1091426089 0.983189702 0.1463761181
outer loop
vertex -42.72431183 40.23793793 364.6634216
vertex -42.4026413 40.26285553 364.7359009
vertex -42.52310944 40.27944183 364.534668

endloop
endfacet
facet normal -0.1177180782 0.9840655327 0.1332575977
outer loop
vertex -42.72431183 40.23793793 364.6634216
vertex -42.52310944 40.27944183 364.534668
vertex -42.85233307 40.25370026 364.4339294

endloop
endfacet
facet normal -0.1180130467 0.9838930964 0.1342656463
outer loop
vertex -42.85233307 40.25370026 364.4339294
vertex -42.52310944 40.27944183 364.534668
vertex -42.65201569 40.29473114 364.3093262

endloop
endfacet
facet normal -0.1249775514 0.9844732285 0.1232602745
outer loop
vertex -42.85233307 40.25370026 364.4339294
vertex -42.65201569 40.29473114 364.3093262
vertex -42.97969818 40.26689911 364.1993713

endloop
endfacet
facet normal -0.1251995713 0.9843582511 0.1239510477
outer loop
vertex -42.97969818 40.26689911 364.1993713
vertex -42.65201569 40.29473114 364.3093262
vertex -42.78000641 40.30738068 364.0795898

endloop
endfacet
facet normal -0.1283527762 0.9845921993 0.1187593937
outer loop
vertex -42.97966766 40.26691437 364.1994324
vertex -42.77999115 40.30739594 364.0796204
vertex -43.10408783 40.27895355 363.9651489

endloop
endfacet
facet normal -0.1285065114 0.9845172763 0.1192132756
outer loop
vertex -43.10408783 40.27895355 363.9651489
vertex -42.77999115 40.30739594 364.0796204
vertex -42.90514374 40.3188858 363.849823

endloop
endfacet
facet normal -0.1539241225 0.9851864576 0.07559807599
outer loop
vertex -43.10408783 40.27895355 363.9651489
vertex -42.90514374 40.3188858 363.849823
vertex -43.2372818 40.2770462 363.718811

endloop
endfacet
facet normal -0.1530138403 0.9855102897 0.07318695635
outer loop
vertex -43.2372818 40.2770462 363.718811
vertex -42.90514374 40.3188858 363.849823
vertex -43.04158783 40.31589508 363.6048279

endloop
endfacet
facet normal -0.2670961022 0.9544091821 -0.1332773268
outer loop
vertex -43.2372818 40.2770462 363.718811
vertex -43.04158783 40.31589508 363.6048279
vertex -43.44304657 40.17182159 363.377655

endloop
endfacet
facet normal -0.269721061 0.954315424 -0.1285790205
outer loop
vertex -43.44304657 40.17182159 363.377655
vertex -43.04158783 40.31589508 363.6048279
vertex -43.26364899 40.20601654 363.255127

endloop
endfacet
facet normal -0.3437403142 0.9049754143 -0.2507228851
outer loop
vertex -43.44304657 40.17182159 363.377655
vertex -43.26364899 40.20601654 363.255127
vertex -43.6079483 40.03000641 363.0918579

endloop
endfacet
facet normal -0.3516639471 0.906093061 -0.23521851
outer loop
vertex -43.6079483 40.03000641 363.0918579
vertex -43.26364899 40.20601654 363.255127
vertex -43.45957184 40.05602264 362.9702454

endloop
endfacet
facet normal -0.4872416556 0.7588526011 -0.4321322739
outer loop
vertex -43.6079483 40.03000641 363.0918579
vertex -43.45957184 40.05602264 362.9702454
vertex -43.65883636 39.92168427 362.9590149

endloop
endfacet
facet normal -0.4990484715 0.7729869485 -0.3917164505
outer loop
vertex -43.65883636 39.92168427 362.9590149
vertex -43.45957184 40.05602264 362.9702454
vertex -43.55289459 39.93689728 362.8540649

endloop
endfacet
facet normal -0.6455894709 0.4969949722 -0.5798364282
outer loop
vertex -43.65885162 39.92168427 362.9590149
vertex -43.55287933 39.93689728 362.8540649
vertex -43.67812347 39.849617 362.9187012

endloop
endfacet
facet normal -0.6549612284 0.6211642623 -0.430326283
outer loop
vertex -43.67812347 39.849617 362.9187012
vertex -43.55287933 39.93689728 362.8540649
vertex -43.6099472 39.85991669 362.8298035

endloop
endfacet
facet normal -0.7929975986 -0.008693170734 -0.6091626287
outer loop
vertex -43.67812347 39.849617 362.9187012
vertex -43.6099472 39.85991669 362.8298035
vertex -43.63321686 39.65164948 362.8630676

endloop
endfacet
facet normal 0.9681545496 -0.1411920488 -0.2067406178
outer loop
vertex -43.63321686 39.65164948 362.8630676
vertex -43.6099472 39.85991669 362.8298035
vertex -43.6332016 39.65166473 362.8631287

endloop
endfacet
facet normal 0.9087637067 -0.09700226039 -0.4058807194
outer loop
vertex -41.64627838 39.58777618 366.0163269
vertex -41.64629364 39.58776093 366.0162964
vertex -41.63973236 39.82442474 365.9744263

endloop
endfacet
facet normal 0.4161567688 0.1472106129 0.8972973824
outer loop
vertex -41.63973236 39.82442474 365.9744263
vertex -41.64629364 39.58776093 366.0162964
vertex -41.52648163 39.77901459 365.9293518

endloop
endfacet
facet normal 0.4838891327 0.4813236892 0.7308754325
outer loop
vertex -41.63973236 39.82442474 365.9744263
vertex -41.52648163 39.77901459 365.9293518
vertex -41.62984467 39.89785004 365.9195251

endloop
endfacet
facet normal 0.6185519695 0.5816960335 0.5282264352
outer loop
vertex -41.62984467 39.89785004 365.9195251
vertex -41.52648163 39.77901459 365.9293518
vertex -41.49594879 39.8267746 365.8410034

endloop
endfacet
facet normal 0.6161802411 0.6089144945 0.4995448887
outer loop
vertex -41.62984467 39.89785004 365.9195251
vertex -41.49594879 39.8267746 365.8410034
vertex -41.66484833 40.00292206 365.8346252

endloop
endfacet
facet normal 0.6561043859 0.6433898211 0.3944318891
outer loop
vertex -41.66484833 40.00292206 365.8346252
vertex -41.49594879 39.8267746 365.8410034
vertex -41.50418854 39.91223907 365.7153015

endloop
endfacet
facet normal 0.5680909753 0.8091949224 0.1499212533
outer loop
vertex -41.66484833 40.00292206 365.8346252
vertex -41.50418854 39.91223907 365.7153015
vertex -41.74337006 40.08275604 365.7012634

endloop
endfacet
facet normal 0.5717883706 0.8117956519 0.1185148507
outer loop
vertex -41.74337006 40.08275604 365.7012634
vertex -41.50418854 39.91223907 365.7153015
vertex -41.56978607 39.98139191 365.5581055

endloop
endfacet
facet normal 0.4746850133 0.878913343 -0.04674958438
outer loop
vertex -41.74337006 40.08275604 365.7012634
vertex -41.56978607 39.98139191 365.5581055
vertex -41.84932709 40.13170624 365.5456848

endloop
endfacet
facet normal 0.4747513831 0.878529191 -0.05289224908
outer loop
vertex -41.84932709 40.13170624 365.5456848
vertex -41.56978607 39.98139191 365.5581055
vertex -41.67389679 40.02788544 365.395874

endloop
endfacet
facet normal 0.4351736605 0.8936374187 -0.1097083911
outer loop
vertex -41.84932709 40.13170624 365.5456848
vertex -41.67389679 40.02788544 365.395874
vertex -41.96266937 40.16736603 365.3865662

endloop
endfacet
facet normal 0.4351815283 0.8936775327 -0.1093507409
outer loop
vertex -41.96266937 40.16736603 365.3865662
vertex -41.67389679 40.02788544 365.395874
vertex -41.78702545 40.06372833 365.2385864

endloop
endfacet
facet normal 0.422018677 0.8975502849 -0.1276865602
outer loop
vertex -41.96266937 40.16736603 365.3865662
vertex -41.78702545 40.06372833 365.2385864
vertex -42.07474518 40.19757843 365.2285156

endloop
endfacet
facet normal 0.4220743477 0.8978370428 -0.1254669875
outer loop
vertex -42.07474518 40.19757843 365.2285156
vertex -41.78702545 40.06372833 365.2385864
vertex -41.89817047 40.09450531 365.0849304

endloop
endfacet
facet normal 0.4126262963 0.9002768397 -0.1387120783
outer loop
vertex -42.07476044 40.19756317 365.2285156
vertex -41.89818573 40.09450531 365.0848999
vertex -42.18453217 40.22345734 365.0700378

endloop
endfacet
facet normal 0.4126559794 0.9005861282 -0.136600852
outer loop
vertex -42.18453217 40.22345734 365.0700378
vertex -41.89818573 40.09450531 365.0848999
vertex -42.00656891 40.12094879 364.9318237

endloop
endfacet
facet normal 0.4033393562 0.9026510119 -0.1501283199
outer loop
vertex -42.18453217 40.22345734 365.0700378
vertex -42.00656891 40.12094879 364.9318237
vertex -42.29221344 40.2448349 364.9092712

endloop
endfacet
facet normal 0.4033246636 0.9030489326 -0.1477559358
outer loop
vertex -42.29221344 40.2448349 364.9092712
vertex -42.00656891 40.12094879 364.9318237
vertex -42.11301422 40.14308929 364.7765808

endloop
endfacet
facet normal 0.3962266743 0.9043805599 -0.1584303975
outer loop
vertex -42.29219818 40.24485016 364.9093323
vertex -42.11299896 40.14308929 364.7766113
vertex -42.4026413 40.26285553 364.7359009

endloop
endfacet
facet normal 0.3960402608 0.9050164819 -0.1552329212
outer loop
vertex -42.4026413 40.26285553 364.7359009
vertex -42.11299896 40.14308929 364.7766113
vertex -42.22388458 40.16230011 364.6057129

endloop
endfacet
facet normal 0.3926139772 0.9056090713 -0.1603951007
outer loop
vertex -42.4026413 40.26285553 364.7359009
vertex -42.22388458 40.16230011 364.6057129
vertex -42.52310944 40.27944183 364.534668

endloop
endfacet
facet normal 0.3922357857 0.9062333703 -0.1577728689
outer loop
vertex -42.52310944 40.27944183 364.534668
vertex -42.22388458 40.16230011 364.6057129
vertex -42.34487152 40.18016815 364.4075623

endloop
endfacet
facet normal 0.3898127377 0.9066262245 -0.1614774317
outer loop
vertex -42.52310944 40.27944183 364.534668
vertex -42.34487152 40.18016815 364.4075623
vertex -42.65201569 40.29473114 364.3093262

endloop
endfacet
facet normal 0.3896665275 0.9068079591 -0.1608083248
outer loop
vertex -42.65201569 40.29473114 364.3093262
vertex -42.34487152 40.18016815 364.4075623
vertex -42.47277069 40.19635773 364.1889343

endloop
endfacet
facet normal 0.3867359161 0.9072172046 -0.1655059904
outer loop
vertex -42.65201569 40.29473114 364.3093262
vertex -42.47277069 40.19635773 364.1889343
vertex -42.78000641 40.30738068 364.0795898

endloop
endfacet
facet normal 0.3866565824 0.9073085785 -0.1651902497
outer loop
vertex -42.78000641 40.30738068 364.0795898
vertex -42.47277069 40.19635773 364.1889343
vertex -42.59992218 40.20992279 363.9658203

endloop
endfacet
facet normal 0.3866153359 0.907325685 -0.1651927531
outer loop
vertex -42.77999115 40.30739594 364.0796204
vertex -42.59990692 40.20995331 363.9658813
vertex -42.90514374 40.3188858 363.849823

endloop
endfacet
facet normal 0.3865097463 0.9074409008 -0.1648067236
outer loop
vertex -42.90514374 40.3188858 363.849823
vertex -42.59990692 40.20995331 363.9658813
vertex -42.72560883 40.22249603 363.7401428

endloop
endfacet
facet normal 0.3591204286 0.909103334 -0.21110107
outer loop
vertex -42.90514374 40.3188858 363.849823
vertex -42.72560883 40.22249603 363.7401428
vertex -43.04158783 40.31589508 363.6048279

endloop
endfacet
facet normal 0.3590907156 0.9091364145 -0.211008817
outer loop
vertex -43.04158783 40.31589508 363.6048279
vertex -42.72560883 40.22249603 363.7401428
vertex -42.86548615 40.22092438 363.4953308

endloop
endfacet
facet normal 0.2177334726 0.8830450773 -0.4157204926
outer loop
vertex -43.04158783 40.31589508 363.6048279
vertex -42.86548615 40.22092438 363.4953308
vertex -43.26364899 40.20601654 363.255127

endloop
endfacet
facet normal 0.2220164239 0.8787255287 -0.4225518703
outer loop
vertex -43.26364899 40.20601654 363.255127
vertex -42.86548615 40.22092438 363.4953308
vertex -43.09415436 40.11351776 363.151825

endloop
endfacet
facet normal 0.1325368136 0.8365565538 -0.5316081047
outer loop
vertex -43.26364899 40.20601654 363.255127
vertex -43.09415436 40.11351776 363.151825
vertex -43.45957184 40.05602264 362.9702454

endloop
endfacet
facet normal 0.1367857903 0.8314266205 -0.5385345817
outer loop
vertex -43.45957184 40.05602264 362.9702454
vertex -43.09415436 40.11351776 363.151825
vertex -43.3131485 39.97190094 362.8775635

endloop
endfacet
facet normal -0.03515552357 0.7117499709 -0.7015525103
outer loop
vertex -43.45957184 40.05602264 362.9702454
vertex -43.3131485 39.97190094 362.8775635
vertex -43.55289459 39.93689728 362.8540649

endloop
endfacet
facet normal -0.04144033045 0.7368362546 -0.6747999787
outer loop
vertex -43.55289459 39.93689728 362.8540649
vertex -43.3131485 39.97190094 362.8775635
vertex -43.44947052 39.86739349 362.7718201

endloop
endfacet
facet normal -0.3162705302 0.4903996587 -0.812084496
outer loop
vertex -43.55287933 39.93689728 362.8540649
vertex -43.44947052 39.86739349 362.7718201
vertex -43.6099472 39.85991669 362.8298035

endloop
endfacet
facet normal -0.2784871757 0.6744544506 -0.6837807298
outer loop
vertex -43.6099472 39.85991669 362.8298035
vertex -43.44947052 39.86739349 362.7718201
vertex -43.54137421 39.80924225 362.7518921

endloop
endfacet
facet normal -0.7569277883 -0.02000397071 -0.6531923413
outer loop
vertex -43.6099472 39.85991669 362.8298035
vertex -43.54137421 39.80924225 362.7518921
vertex -43.6332016 39.65166473 362.8631287

endloop
endfacet
facet normal -0.7047423124 0.6345211267 0.317366004
outer loop
vertex -43.6332016 39.65166473 362.8631287
vertex -43.54137421 39.80924225 362.7518921
vertex -43.6332016 39.65167999 362.8630981

endloop
endfacet
facet normal -nan(ind) -nan(ind) -nan(ind)
outer loop
vertex -41.64629364 39.58776093 366.0162964
vertex -41.64629364 39.58776093 366.0162964
vertex -41.52648163 39.77901459 365.9293518

endloop
endfacet
facet normal 0.4719851911 0.1023911908 0.8756403327
outer loop
vertex -41.52648163 39.77901459 365.9293518
vertex -41.64629364 39.58776093 366.0162964
vertex -41.4504776 39.69147491 365.8986206

endloop
endfacet
facet normal 0.7325942516 0.4598978758 0.501796484
outer loop
vertex -41.52648163 39.77901459 365.9293518
vertex -41.4504776 39.69147491 365.8986206
vertex -41.49594879 39.8267746 365.8410034

endloop
endfacet
facet normal 0.8356364369 0.4276397526 0.3447259367
outer loop
vertex -41.49594879 39.8267746 365.8410034
vertex -41.4504776 39.69147491 365.8986206
vertex -41.4161911 39.7154007 365.7858276

endloop
endfacet
facet normal 0.8412817121 0.4711024165 0.2651557624
outer loop
vertex -41.49594879 39.8267746 365.8410034
vertex -41.4161911 39.7154007 365.7858276
vertex -41.50418854 39.91223907 365.7153015

endloop
endfacet
facet normal 0.8715829849 0.4550239146 0.1824728698
outer loop
vertex -41.50418854 39.91223907 365.7153015
vertex -41.4161911 39.7154007 365.7858276
vertex -41.41205597 39.7705307 365.6286011

endloop
endfacet
facet normal 0.8111861348 0.5787364841 -0.08391140401
outer loop
vertex -41.50418854 39.91223907 365.7153015
vertex -41.41205597 39.7705307 365.6286011
vertex -41.56978607 39.98139191 365.5581055

endloop
endfacet
facet normal 0.8130767345 0.5719901323 -0.1083209813
outer loop
vertex -41.56978607 39.98139191 365.5581055
vertex -41.41205597 39.7705307 365.6286011
vertex -41.47229767 39.82299042 365.4534302

endloop
endfacet
facet normal 0.7222573161 0.631257534 -0.2825922072
outer loop
vertex -41.56978607 39.98139191 365.5581055
vertex -41.47229767 39.82299042 365.4534302
vertex -41.67389679 40.02788544 365.395874

endloop
endfacet
facet normal 0.7218439579 0.6294093132 -0.2877241075
outer loop
vertex -41.67389679 40.02788544 365.395874
vertex -41.47229767 39.82299042 365.4534302
vertex -41.57593536 39.86560822 365.2866516

endloop
endfacet
facet normal 0.6829785705 0.6441250443 -0.3444463909
outer loop
vertex -41.67389679 40.02788544 365.395874
vertex -41.57593536 39.86560822 365.2866516
vertex -41.78702545 40.06372833 365.2385864

endloop
endfacet
facet normal 0.683026135 0.6442598104 -0.3440996408
outer loop
vertex -41.78702545 40.06372833 365.2385864
vertex -41.57593536 39.86560822 365.2866516
vertex -41.68822479 39.90177155 365.1314697

endloop
endfacet
facet normal 0.673352778 0.6471769214 -0.357432574
outer loop
vertex -41.78702545 40.06372833 365.2385864
vertex -41.68822479 39.90177155 365.1314697
vertex -41.89817047 40.09450531 365.0849304

endloop
endfacet
facet normal 0.6736108065 0.6478871107 -0.3556552529
outer loop
vertex -41.89817047 40.09450531 365.0849304
vertex -41.68822479 39.90177155 365.1314697
vertex -41.79755402 39.93338776 364.9819946

endloop
endfacet
facet normal 0.669250071 0.6490410566 -0.3617319465
outer loop
vertex -41.89818573 40.09450531 365.0848999
vertex -41.79755402 39.93338776 364.9819946
vertex -42.00656891 40.12094879 364.9318237

endloop
endfacet
facet normal 0.669511199 0.6498522758 -0.3597871065
outer loop
vertex -42.00656891 40.12094879 364.9318237
vertex -41.79755402 39.93338776 364.9819946
vertex -41.90370941 39.96079254 364.8339539

endloop
endfacet
facet normal 0.6664412618 0.6505627632 -0.3641761243
outer loop
vertex -42.00656891 40.12094879 364.9318237
vertex -41.90370941 39.96079254 364.8339539
vertex -42.11301422 40.14308929 364.7765808

endloop
endfacet
facet normal 0.6666625142 0.6514385939 -0.362200141
outer loop
vertex -42.11301422 40.14308929 364.7765808
vertex -41.90370941 39.96079254 364.8339539
vertex -42.00798798 39.98407745 364.6838989

endloop
endfacet
facet normal 0.667945981 0.6512421966 -0.3601830304
outer loop
vertex -42.11299896 40.14308929 364.7766113
vertex -42.00797272 39.98409271 364.6838989
vertex -42.22388458 40.16230011 364.6057129

endloop
endfacet
facet normal 0.6680950522 0.652736187 -0.3571895659
outer loop
vertex -42.22388458 40.16230011 364.6057129
vertex -42.00797272 39.98409271 364.6838989
vertex -42.11780548 40.00484467 364.5163879

endloop
endfacet
facet normal 0.6718563437 0.6520020962 -0.3514288366
outer loop
vertex -42.22388458 40.16230011 364.6057129
vertex -42.11780548 40.00484467 364.5163879
vertex -42.34487152 40.18016815 364.4075623

endloop
endfacet
facet normal 0.6717755795 0.6532859206 -0.3491919637
outer loop
vertex -42.34487152 40.18016815 364.4075623
vertex -42.11780548 40.00484467 364.5163879
vertex -42.23781586 40.02437592 364.322052

endloop
endfacet
facet normal 0.6738666892 0.6528995037 -0.3458699286
outer loop
vertex -42.34487152 40.18016815 364.4075623
vertex -42.23781586 40.02437592 364.322052
vertex -42.47277069 40.19635773 364.1889343

endloop
endfacet
facet normal 0.6738135219 0.653229773 -0.3453493118
outer loop
vertex -42.47277069 40.19635773 364.1889343
vertex -42.23781586 40.02437592 364.322052
vertex -42.36385345 40.04207611 364.1096191

endloop
endfacet
facet normal 0.6742863059 0.6531583071 -0.344560951
outer loop
vertex -42.47277069 40.19635773 364.1889343
vertex -42.36385345 40.04207611 364.1096191
vertex -42.59992218 40.20992279 363.9658203

endloop
endfacet
facet normal 0.6742300391 0.6534357667 -0.3441447318
outer loop
vertex -42.59992218 40.20992279 363.9658203
vertex -42.36385345 40.04207611 364.1096191
vertex -42.48952484 40.05721283 363.8921509

endloop
endfacet
facet normal 0.6763990521 0.6531772017 -0.3403585255
outer loop
vertex -42.59990692 40.20995331 363.9658813
vertex -42.48950958 40.05724335 363.8922119
vertex -42.72560883 40.22249603 363.7401428

endloop
endfacet
facet normal 0.6763251424 0.6534909606 -0.3399028778
outer loop
vertex -42.72560883 40.22249603 363.7401428
vertex -42.48950958 40.05724335 363.8922119
vertex -42.61548615 40.07154083 363.6690369

endloop
endfacet
facet normal 0.6541126966 0.6552059054 -0.377944231
outer loop
vertex -42.72560883 40.22249603 363.7401428
vertex -42.61548615 40.07154083 363.6690369
vertex -42.86548615 40.22092438 363.4953308

endloop
endfacet
facet normal 0.6537936926 0.656357944 -0.3764943779
outer loop
vertex -42.86548615 40.22092438 363.4953308
vertex -42.61548615 40.07154083 363.6690369
vertex -42.75783539 40.07248688 363.4234924

endloop
endfacet
facet normal 0.5249391198 0.6478555202 -0.5520163774
outer loop
vertex -42.86548615 40.22092438 363.4953308
vertex -42.75783539 40.07248688 363.4234924
vertex -43.09415436 40.11351776 363.151825

endloop
endfacet
facet normal 0.5301771164 0.636443913 -0.5602244139
outer loop
vertex -43.09415436 40.11351776 363.151825
vertex -42.75783539 40.07248688 363.4234924
vertex -42.98485565 39.97121429 363.0935974

endloop
endfacet
facet normal 0.4375779927 0.6073866487 -0.6630285382
outer loop
vertex -43.09415436 40.11351776 363.151825
vertex -42.98485565 39.97121429 363.0935974
vertex -43.3131485 39.97190094 362.8775635

endloop
endfacet
facet normal 0.4455688 0.587816 -0.6752337813
outer loop
vertex -43.3131485 39.97190094 362.8775635
vertex -42.98485565 39.97121429 363.0935974
vertex -43.21466827 39.84564972 362.8326416

endloop
endfacet
facet normal 0.2604066432 0.4975376129 -0.8274325728
outer loop
vertex -43.3131485 39.97190094 362.8775635
vertex -43.21466827 39.84564972 362.8326416
vertex -43.44947052 39.86739349 362.7718201

endloop
endfacet
facet normal 0.2592036724 0.5168769956 -0.8158746958
outer loop
vertex -43.44947052 39.86739349 362.7718201
vertex -43.21466827 39.84564972 362.8326416
vertex -43.38062286 39.76677704 362.72995

endloop
endfacet
facet normal -0.03015935235 0.3663626015 -0.9299832582
outer loop
vertex -43.44947052 39.86739349 362.7718201
vertex -43.38062286 39.76677704 362.72995
vertex -43.54137421 39.80924225 362.7518921

endloop
endfacet
facet normal 0.009972591884 0.4885642827 -0.8724709153
outer loop
vertex -43.54137421 39.80924225 362.7518921
vertex -43.38062286 39.76677704 362.72995
vertex -43.49358368 39.72673798 362.7062378

endloop
endfacet
facet normal -0.7339423299 -0.05032202974 -0.6773449779
outer loop
vertex -43.54137421 39.80924225 362.7518921
vertex -43.49358368 39.72673798 362.7062378
vertex -43.6332016 39.65167999 362.8630981

endloop
endfacet
facet normal -0.5714227557 0.8118065596 -0.1201919019
outer loop
vertex -43.6332016 39.65167999 362.8630981
vertex -43.49358368 39.72673798 362.7062378
vertex -43.63321686 39.65166473 362.8630676

endloop
endfacet
facet normal -0.6186784506 0.6186784506 -0.4842250049
outer loop
vertex -41.64629364 39.58776093 366.0162964
vertex -41.64627838 39.58777618 366.0162964
vertex -41.4504776 39.69147491 365.8986206

endloop
endfacet
facet normal 0.5024099946 0.03186684102 0.8640420437
outer loop
vertex -41.4504776 39.69147491 365.8986206
vertex -41.64627838 39.58777618 366.0162964
vertex -41.42334747 39.58562469 365.8867493

endloop
endfacet
facet normal 0.924648881 0.2006963342 0.3236442208
outer loop
vertex -41.4504776 39.69147491 365.8986206
vertex -41.42334747 39.58562469 365.8867493
vertex -41.4161911 39.7154007 365.7858276

endloop
endfacet
facet normal 0.9644959569 0.1269201934 0.231600374
outer loop
vertex -41.4161911 39.7154007 365.7858276
vertex -41.42334747 39.58562469 365.8867493
vertex -41.39319611 39.59038544 365.7585754

endloop
endfacet
facet normal 0.9831736088 0.1627645642 0.08292978257
outer loop
vertex -41.4161911 39.7154007 365.7858276
vertex -41.39319611 39.59038544 365.7585754
vertex -41.41205597 39.7705307 365.6286011

endloop
endfacet
facet normal 0.9913962483 0.126911819 0.03204452246
outer loop
vertex -41.41205597 39.7705307 365.6286011
vertex -41.39319611 39.59038544 365.7585754
vertex -41.39022064 39.61159515 365.5825195

endloop
endfacet
facet normal 0.9427284598 0.205659166 -0.2626163661
outer loop
vertex -41.41205597 39.7705307 365.6286011
vertex -41.39022064 39.61159515 365.5825195
vertex -41.47229767 39.82299042 365.4534302

endloop
endfacet
facet normal 0.9404086471 0.1950181574 -0.2785669565
outer loop
vertex -41.47229767 39.82299042 365.4534302
vertex -41.39022064 39.61159515 365.5825195
vertex -41.45211029 39.6453476 365.3972168

endloop
endfacet
facet normal 0.8504036069 0.2441224009 -0.4660665393
outer loop
vertex -41.47229767 39.82299042 365.4534302
vertex -41.45211029 39.6453476 365.3972168
vertex -41.57593536 39.86560822 365.2866516

endloop
endfacet
facet normal 0.8491720557 0.2416673005 -0.4695782363
outer loop
vertex -41.57593536 39.86560822 365.2866516
vertex -41.45211029 39.6453476 365.3972168
vertex -41.55640411 39.68360138 365.228302

endloop
endfacet
facet normal 0.8105195165 0.2558835447 -0.5268602967
outer loop
vertex -41.57593536 39.86560822 365.2866516
vertex -41.55640411 39.68360138 365.228302
vertex -41.68822479 39.90177155 365.1314697

endloop
endfacet
facet normal 0.810593307 0.2560046613 -0.5266878009
outer loop
vertex -41.68822479 39.90177155 365.1314697
vertex -41.55640411 39.68360138 365.228302
vertex -41.66747284 39.7201004 365.0751038

endloop
endfacet
facet normal 0.8050391674 0.2577344477 -0.5343077779
outer loop
vertex -41.68822479 39.90177155 365.1314697
vertex -41.66747284 39.7201004 365.0751038
vertex -41.79755402 39.93338776 364.9819946

endloop
endfacet
facet normal 0.8056328893 0.2586894035 -0.5329498649
outer loop
vertex -41.79755402 39.93338776 364.9819946
vertex -41.66747284 39.7201004 365.0751038
vertex -41.77462006 39.75269318 364.9289551

endloop
endfacet
facet normal 0.8071063757 0.2582007647 -0.5309535265
outer loop
vertex -41.79755402 39.93338776 364.9819946
vertex -41.77462006 39.75269318 364.9289856
vertex -41.90370941 39.96079254 364.8339539

endloop
endfacet
facet normal 0.8078855872 0.2595205605 -0.5291218162
outer loop
vertex -41.90370941 39.96079254 364.8339539
vertex -41.77462006 39.75269318 364.9289856
vertex -41.87819672 39.78119659 364.7848206

endloop
endfacet
facet normal 0.8115897179 0.2586107254 -0.5238726735
outer loop
vertex -41.90370941 39.96079254 364.8339539
vertex -41.87819672 39.78119659 364.7848206
vertex -42.00798798 39.98407745 364.6838989

endloop
endfacet
facet normal 0.8122332096 0.2598163784 -0.5222765207
outer loop
vertex -42.00798798 39.98407745 364.6838989
vertex -41.87819672 39.78119659 364.7848206
vertex -41.97994232 39.80573273 364.6387939

endloop
endfacet
facet normal 0.8223639727 0.2576403022 -0.5072859526
outer loop
vertex -42.00797272 39.98409271 364.6838989
vertex -41.97992706 39.80576324 364.6387939
vertex -42.11780548 40.00484467 364.5163879

endloop
endfacet
facet normal 0.8230212927 0.2592608929 -0.5053905845
outer loop
vertex -42.11780548 40.00484467 364.5163879
vertex -41.97992706 39.80576324 364.6387939
vertex -42.08769989 39.82807159 364.4747314

endloop
endfacet
facet normal 0.8335626125 0.2571730614 -0.4889124632
outer loop
vertex -42.11780548 40.00484467 364.5163879
vertex -42.08769989 39.82807159 364.4747314
vertex -42.23781586 40.02437592 364.322052

endloop
endfacet
facet normal 0.8339354992 0.2584973872 -0.4875763655
outer loop
vertex -42.23781586 40.02437592 364.322052
vertex -42.08769989 39.82807159 364.4747314
vertex -42.20571136 39.84931183 364.2841492

endloop
endfacet
facet normal 0.8403042555 0.2573993206 -0.4771103561
outer loop
vertex -42.23781586 40.02437592 364.322052
vertex -42.20571136 39.84931183 364.2841492
vertex -42.36385345 40.04207611 364.1096191

endloop
endfacet
facet normal 0.8403978348 0.2578416765 -0.4767065644
outer loop
vertex -42.36385345 40.04207611 364.1096191
vertex -42.20571136 39.84931183 364.2841492
vertex -42.3294754 39.86875153 364.0764771

endloop
endfacet
facet normal 0.8443175554 0.2573377788 -0.4700056016
outer loop
vertex -42.36385345 40.04207611 364.1096191
vertex -42.3294754 39.86875153 364.0764771
vertex -42.48952484 40.05721283 363.8921509

endloop
endfacet
facet normal 0.8443937898 0.2577669621 -0.4696331024
outer loop
vertex -42.48952484 40.05721283 363.8921509
vertex -42.3294754 39.86875153 364.0764771
vertex -42.45340729 39.88568878 363.8629456

endloop
endfacet
facet normal 0.8484472632 0.2574765682 -0.4624316692
outer loop
vertex -42.48950958 40.05724335 363.8922119
vertex -42.45339203 39.8857193 363.8629761
vertex -42.61548615 40.07154083 363.6690369

endloop
endfacet
facet normal 0.8485426903 0.2581131458 -0.4619014561
outer loop
vertex -42.61548615 40.07154083 363.6690369
vertex -42.45339203 39.8857193 363.8629761
vertex -42.57936859 39.90201569 363.6406555

endloop
endfacet
facet normal 0.8360241055 0.259090364 -0.4836692214
outer loop
vertex -42.61548615 40.07154083 363.6690369
vertex -42.57936859 39.90201569 363.6406555
vertex -42.75783539 40.07248688 363.4234924

endloop
endfacet
facet normal 0.8362025619 0.2609373927 -0.4823659658
outer loop
vertex -42.75783539 40.07248688 363.4234924
vertex -42.57936859 39.90201569 363.6406555
vertex -42.7229538 39.90598297 363.3938904

endloop
endfacet
facet normal 0.7544925809 0.2648235559 -0.6005075574
outer loop
vertex -42.75783539 40.07248688 363.4234924
vertex -42.7229538 39.90598297 363.3938904
vertex -42.98485565 39.97121429 363.0935974

endloop
endfacet
facet normal 0.755818069 0.2514857352 -0.6045609713
outer loop
vertex -42.98485565 39.97121429 363.0935974
vertex -42.7229538 39.90598297 363.3938904
vertex -42.94205475 39.81272125 363.0811768

endloop
endfacet
facet normal 0.6700903773 0.2361064702 -0.7037277222
outer loop
vertex -42.98485565 39.97121429 363.0935974
vertex -42.94205475 39.81272125 363.0811768
vertex -43.21466827 39.84564972 362.8326416

endloop
endfacet
facet normal 0.672680974 0.2067638785 -0.7104568481
outer loop
vertex -43.21466827 39.84564972 362.8326416
vertex -42.94205475 39.81272125 363.0811768
vertex -43.17099762 39.70671844 362.8335571

endloop
endfacet
facet normal 0.4710468054 0.1423287094 -0.8705500364
outer loop
vertex -43.21466827 39.84564972 362.8326416
vertex -43.17099762 39.70671844 362.8335571
vertex -43.38062286 39.76677704 362.72995

endloop
endfacet
facet normal 0.4717741013 0.1468407363 -0.8694060445
outer loop
vertex -43.38062286 39.76677704 362.72995
vertex -43.17099762 39.70671844 362.8335571
vertex -43.35102081 39.6581192 362.7276611

endloop
endfacet
facet normal 0.1811104119 0.06999431551 -0.980968833
outer loop
vertex -43.38062286 39.76677704 362.72995
vertex -43.35102081 39.65810394 362.7276611
vertex -43.49358368 39.72673798 362.7062378

endloop
endfacet
facet normal 0.2040229291 0.1205371544 -0.971517086
outer loop
vertex -43.49358368 39.72673798 362.7062378
vertex -43.35102081 39.65810394 362.7276611
vertex -43.47397614 39.63402557 362.6988525

endloop
endfacet
facet normal -0.7196904421 -0.09744729847 -0.6874224544
outer loop
vertex -43.49358368 39.72673798 362.7062378
vertex -43.47397614 39.63402557 362.6988525
vertex -43.63321686 39.65166473 362.8630676

endloop
endfacet
facet normal -0.07284771651 -0.9966777563 0.03642385826
outer loop
vertex -43.63321686 39.65166473 362.8630676
vertex -43.47397614 39.63402557 362.6988525
vertex -43.6332016 39.65166473 362.8630981

endloop
endfacet
facet normal 0.4463772774 -0.4463772774 0.7755607963
outer loop
vertex -41.64627838 39.58777618 366.0162964
vertex -41.64629364 39.58776093 366.0162964
vertex -41.42334747 39.58562469 365.8867493

endloop
endfacet
facet normal 0.5015130639 -0.04714938626 0.8638643622
outer loop
vertex -41.42334747 39.58562469 365.8867493
vertex -41.64629364 39.58776093 366.0162964
vertex -41.44579315 39.47939301 365.8939819

endloop
endfacet
facet normal 0.9576970339 -0.1874873936 0.2183230072
outer loop
vertex -41.42334747 39.58562469 365.8867493
vertex -41.44579315 39.47939301 365.8939819
vertex -41.39319611 39.59038544 365.7585754

endloop
endfacet
facet normal 0.9562524557 -0.2248776704 0.1871131361
outer loop
vertex -41.39319611 39.59038544 365.7585754
vertex -41.44579315 39.47939301 365.8939819
vertex -41.42327118 39.4625473 365.7586365

endloop
endfacet
facet normal 0.9733632803 -0.2289977819 -0.01113720704
outer loop
vertex -41.39319611 39.59038544 365.7585754
vertex -41.42327118 39.4625473 365.7586365
vertex -41.39022064 39.61159515 365.5825195

endloop
endfacet
facet normal 0.96609658 -0.2557753026 -0.03516267985
outer loop
vertex -41.39022064 39.61159515 365.5825195
vertex -41.42327118 39.4625473 365.7586365
vertex -41.43347931 39.44902802 365.5765076

endloop
endfacet
facet normal 0.9098982215 -0.2293379754 -0.34567222
outer loop
vertex -41.39022064 39.61159515 365.5825195
vertex -41.43347931 39.44902802 365.5765076
vertex -41.45211029 39.6453476 365.3972168

endloop
endfacet
facet normal 0.9043352008 -0.2378464043 -0.3544106483
outer loop
vertex -41.45211029 39.6453476 365.3972168
vertex -41.43347931 39.44902802 365.5765076
vertex -41.50321198 39.46364594 365.3887634

endloop
endfacet
facet normal 0.8119755983 -0.2028977722 -0.5472915769
outer loop
vertex -41.45211029 39.6453476 365.3972168
vertex -41.50321198 39.46364594 365.3887634
vertex -41.55640411 39.68360138 365.228302

endloop
endfacet
facet normal 0.8097634315 -0.2051950395 -0.5497072935
outer loop
vertex -41.55640411 39.68360138 365.228302
vertex -41.50321198 39.46364594 365.3887634
vertex -41.60910797 39.49744415 365.2201538

endloop
endfacet
facet normal 0.7722114921 -0.1921159923 -0.6056243777
outer loop
vertex -41.55640411 39.68360138 365.228302
vertex -41.60910797 39.49744415 365.2201538
vertex -41.66747284 39.7201004 365.0751038

endloop
endfacet
facet normal 0.7723257542 -0.1920124888 -0.6055114865
outer loop
vertex -41.66747284 39.7201004 365.0751038
vertex -41.60910797 39.49744415 365.2201538
vertex -41.71871185 39.53430939 365.0686646

endloop
endfacet
facet normal 0.7707054019 -0.1914884597 -0.6077378392
outer loop
vertex -41.66747284 39.7201004 365.0751038
vertex -41.71871185 39.53430939 365.0686646
vertex -41.77462006 39.75269318 364.9289551

endloop
endfacet
facet normal 0.7716072202 -0.190686509 -0.6068451405
outer loop
vertex -41.77462006 39.75269318 364.9289551
vertex -41.71871185 39.53430939 365.0686646
vertex -41.82350922 39.56787872 364.9248657

endloop
endfacet
facet normal 0.7785018682 -0.1925223619 -0.5973859429
outer loop
vertex -41.77462006 39.75269318 364.9289856
vertex -41.82350922 39.56787872 364.9248352
vertex -41.87819672 39.78119659 364.7848206

endloop
endfacet
facet normal 0.7798290849 -0.1913021356 -0.5960452557
outer loop
vertex -41.87819672 39.78119659 364.7848206
vertex -41.82350922 39.56787872 364.9248352
vertex -41.92443085 39.59748077 364.7832947

endloop
endfacet
facet normal 0.7893484831 -0.193809852 -0.5825518966
outer loop
vertex -41.87819672 39.78119659 364.7848206
vertex -41.92443085 39.59748077 364.7832947
vertex -41.97994232 39.80573273 364.6387939

endloop
endfacet
facet normal 0.7905861735 -0.1925941557 -0.5812753439
outer loop
vertex -41.97994232 39.80573273 364.6387939
vertex -41.92443085 39.59748077 364.7832947
vertex -42.02350616 39.6233139 364.6399841

endloop
endfacet
facet normal 0.8070601821 -0.1963690519 -0.5568599105
outer loop
vertex -41.97992706 39.80576324 364.6387939
vertex -42.02349091 39.62334442 364.6399841
vertex -42.08769989 39.82807159 364.4747314

endloop
endfacet
facet normal 0.8077676892 -0.1955511421 -0.5561215281
outer loop
vertex -42.08769989 39.82807159 364.4747314
vertex -42.02349091 39.62334442 364.6399841
vertex -42.1284256 39.6470871 364.4792175

endloop
endfacet
facet normal 0.8232426643 -0.1984324604 -0.5318796635
outer loop
vertex -42.08769989 39.82807159 364.4747314
vertex -42.1284256 39.6470871 364.4792175
vertex -42.20571136 39.84931183 364.2841492

endloop
endfacet
facet normal 0.8238060474 -0.1976548284 -0.53129673
outer loop
vertex -42.20571136 39.84931183 364.2841492
vertex -42.1284256 39.6470871 364.4792175
vertex -42.24362946 39.66994476 364.2920837

endloop
endfacet
facet normal 0.8335340619 -0.1990072131 -0.515380621
outer loop
vertex -42.20571136 39.84931183 364.2841492
vertex -42.24362946 39.66994476 364.2920837
vertex -42.3294754 39.86875153 364.0764771

endloop
endfacet
facet normal 0.8339778781 -0.1983227581 -0.5149261355
outer loop
vertex -42.3294754 39.86875153 364.0764771
vertex -42.24362946 39.66994476 364.2920837
vertex -42.36493683 39.691185 364.0874329

endloop
endfacet
facet normal 0.8406586051 -0.1989638209 -0.5036929846
outer loop
vertex -42.3294754 39.86875153 364.0764771
vertex -42.36493683 39.691185 364.0874329
vertex -42.45340729 39.88568878 363.8629456

endloop
endfacet
facet normal 0.8409423828 -0.1984993964 -0.5034023523
outer loop
vertex -42.45340729 39.88568878 363.8629456
vertex -42.36493683 39.691185 364.0874329
vertex -42.4870224 39.70999908 363.8760681

endloop
endfacet
facet normal 0.8463383913 -0.1988232136 -0.4941463768
outer loop
vertex -42.45339203 39.8857193 363.8629761
vertex -42.48700714 39.71001434 363.8760986
vertex -42.57936859 39.90201569 363.6406555

endloop
endfacet
facet normal 0.8466589451 -0.1982686818 -0.4938199222
outer loop
vertex -42.57936859 39.90201569 363.6406555
vertex -42.48700714 39.71001434 363.8760986
vertex -42.61277008 39.72844696 363.6530762

endloop
endfacet
facet normal 0.8457917571 -0.1982096583 -0.4953274429
outer loop
vertex -42.57936859 39.90201569 363.6406555
vertex -42.61277008 39.72844696 363.6530762
vertex -42.7229538 39.90598297 363.3938904

endloop
endfacet
facet normal 0.8460770845 -0.1976484954 -0.4950642884
outer loop
vertex -42.7229538 39.90598297 363.3938904
vertex -42.61277008 39.72844696 363.6530762
vertex -42.75641632 39.73560333 363.4047241

endloop
endfacet
facet normal 0.8296056986 -0.1961740553 -0.522752583
outer loop
vertex -42.7229538 39.90598297 363.3938904
vertex -42.75641632 39.73560333 363.4047241
vertex -42.94205475 39.81272125 363.0811768

endloop
endfacet
facet normal 0.8279986978 -0.2017792463 -0.5231665969
outer loop
vertex -42.94205475 39.81272125 363.0811768
vertex -42.75641632 39.73560333 363.4047241
vertex -42.96245575 39.65154266 363.1110535

endloop
endfacet
facet normal 0.761059165 -0.2100915462 -0.6137186289
outer loop
vertex -42.94205475 39.81272125 363.0811768
vertex -42.96245575 39.65154266 363.1110535
vertex -43.17099762 39.70671844 362.8335571

endloop
endfacet
facet normal 0.754457593 -0.2334964871 -0.6134111285
outer loop
vertex -43.17099762 39.70671844 362.8335571
vertex -42.96245575 39.65154266 363.1110535
vertex -43.18006134 39.56679535 362.8756714

endloop
endfacet
facet normal 0.5415104628 -0.274266392 -0.7946977019
outer loop
vertex -43.17099762 39.70671844 362.8335571
vertex -43.18006134 39.56679535 362.8756714
vertex -43.35102081 39.6581192 362.7276611

endloop
endfacet
facet normal 0.5343270898 -0.2878235281 -0.7947654128
outer loop
vertex -43.35102081 39.6581192 362.7276611
vertex -43.18006134 39.56679535 362.8756714
vertex -43.35903168 39.55046844 362.761261

endloop
endfacet
facet normal 0.2734586298 -0.3049118817 -0.9122768641
outer loop
vertex -43.35102081 39.65810394 362.7276611
vertex -43.35904694 39.55046844 362.7612305
vertex -43.47397614 39.63402557 362.6988525

endloop
endfacet
facet normal 0.2533996701 -0.33024019 -0.9092469215
outer loop
vertex -43.47397614 39.63402557 362.6988525
vertex -43.35904694 39.55046844 362.7612305
vertex -43.48340607 39.54637909 362.7280579

endloop
endfacet
facet normal -0.717910707 -0.1493244171 -0.6799311638
outer loop
vertex -43.47397614 39.63402557 362.6988525
vertex -43.48340607 39.54637909 362.7280579
vertex -43.6332016 39.65166473 362.8630981

endloop
endfacet
facet normal -0.426058799 -0.8792865872 0.2129059136
outer loop
vertex -43.6332016 39.65166473 362.8630981
vertex -43.48340607 39.54637909 362.7280579
vertex -43.63318634 39.65166473 362.8631287

endloop
endfacet
facet normal 0.4754806161 0.8797261715 0
outer loop
vertex -41.64629364 39.58776093 366.0162964
vertex -41.64629364 39.58776093 366.0163269
vertex -41.44579315 39.47939301 365.8939819

endloop
endfacet
facet normal 0.4721428752 -0.1133991778 0.8741977811
outer loop
vertex -41.44579315 39.47939301 365.8939819
vertex -41.64629364 39.58776093 366.0163269
vertex -41.51247406 39.39067841 365.9184875

endloop
endfacet
facet normal 0.8088290691 -0.5517939329 0.2032708228
outer loop
vertex -41.44579315 39.47939301 365.8939819
vertex -41.51247406 39.39067841 365.9184875
vertex -41.42327118 39.4625473 365.7586365

endloop
endfacet
facet normal 0.8211328983 -0.5258812904 0.22178711
outer loop
vertex -41.42327118 39.4625473 365.7586365
vertex -41.51247406 39.39067841 365.9184875
vertex -41.50423431 39.34796906 365.7867126

endloop
endfacet
facet normal 0.8163478374 -0.5775533915 -0.002884109272
outer loop
vertex -41.42327118 39.4625473 365.7586365
vertex -41.50423431 39.34796906 365.7867126
vertex -41.43347931 39.44902802 365.5765076

endloop
endfacet
facet normal 0.8105300069 -0.5856320262 -0.008726288565
outer loop
vertex -41.43347931 39.44902802 365.5765076
vertex -41.50423431 39.34796906 365.7867126
vertex -41.53844452 39.30321503 365.6126404

endloop
endfacet
facet normal 0.7302246094 -0.6045345068 -0.3182924688
outer loop
vertex -41.43347931 39.44902802 365.5765076
vertex -41.53844452 39.30321503 365.6126404
vertex -41.50321198 39.46364594 365.3887634

endloop
endfacet
facet normal 0.7250896096 -0.6086941361 -0.322081387
outer loop
vertex -41.50321198 39.46364594 365.3887634
vertex -41.53844452 39.30321503 365.6126404
vertex -41.62137604 39.30066681 365.4307556

endloop
endfacet
facet normal 0.6275120378 -0.5868141055 -0.5117399693
outer loop
vertex -41.50321198 39.46364594 365.3887634
vertex -41.62137604 39.30066681 365.4307556
vertex -41.60910797 39.49744415 365.2201538

endloop
endfacet
facet normal 0.6242179275 -0.5886544585 -0.5136514306
outer loop
vertex -41.60910797 39.49744415 365.2201538
vertex -41.62137604 39.30066681 365.4307556
vertex -41.7297287 39.33049774 365.2648926

endloop
endfacet
facet normal 0.5885778069 -0.5770011544 -0.5662559867
outer loop
vertex -41.60910797 39.49744415 365.2201538
vertex -41.7297287 39.33049774 365.2648926
vertex -41.71871185 39.53430939 365.0686646

endloop
endfacet
facet normal 0.5889565349 -0.5768200755 -0.5660466552
outer loop
vertex -41.71871185 39.53430939 365.0686646
vertex -41.7297287 39.33049774 365.2648926
vertex -41.8378067 39.36763763 365.1145935

endloop
endfacet
facet normal 0.5899483562 -0.5771508813 -0.5646750331
outer loop
vertex -41.71871185 39.53430939 365.0686646
vertex -41.8378067 39.36763763 365.1145935
vertex -41.82350922 39.56787872 364.9248657

endloop
endfacet
facet normal 0.5916613936 -0.5763496161 -0.5637002587
outer loop
vertex -41.82350922 39.56787872 364.9248657
vertex -41.8378067 39.36763763 365.1145935
vertex -41.94034576 39.40209198 364.9717407

endloop
endfacet
facet normal 0.6014450788 -0.5794262886 -0.5500263572
outer loop
vertex -41.82350922 39.56787872 364.9248352
vertex -41.94034576 39.40207672 364.9717407
vertex -41.92443085 39.59748077 364.7832947

endloop
endfacet
facet normal 0.6037219763 -0.5783236623 -0.5486907363
outer loop
vertex -41.92443085 39.59748077 364.7832947
vertex -41.94034576 39.40207672 364.9717407
vertex -42.03887177 39.43270111 364.8310547

endloop
endfacet
facet normal 0.61618191 -0.581810236 -0.5308640003
outer loop
vertex -41.92443085 39.59748077 364.7832947
vertex -42.03887177 39.43270111 364.8310547
vertex -42.02350616 39.6233139 364.6399841

endloop
endfacet
facet normal 0.6181207895 -0.5808070898 -0.5297073126
outer loop
vertex -42.02350616 39.6233139 364.6399841
vertex -42.03887177 39.43270111 364.8310547
vertex -42.1354599 39.45966339 364.6887817

endloop
endfacet
facet normal 0.6367678046 -0.5852085948 -0.5020535588
outer loop
vertex -42.02349091 39.62334442 364.6399841
vertex -42.13544464 39.45966339 364.6887817
vertex -42.1284256 39.6470871 364.4792175

endloop
endfacet
facet normal 0.6370871663 -0.5850170255 -0.5018715262
outer loop
vertex -42.1284256 39.6470871 364.4792175
vertex -42.13544464 39.45966339 364.6887817
vertex -42.23708344 39.48456573 364.5307312

endloop
endfacet
facet normal 0.6546369791 -0.5881868601 -0.4748543501
outer loop
vertex -42.1284256 39.6470871 364.4792175
vertex -42.23708344 39.48456573 364.5307312
vertex -42.24362946 39.66994476 364.2920837

endloop
endfacet
facet normal 0.6548849344 -0.5880138874 -0.4747267365
outer loop
vertex -42.24362946 39.66994476 364.2920837
vertex -42.23708344 39.48456573 364.5307312
vertex -42.34905243 39.50875092 364.3463135

endloop
endfacet
facet normal 0.6665799022 -0.589461863 -0.4562958479
outer loop
vertex -42.24362946 39.66994476 364.2920837
vertex -42.34905243 39.50875092 364.3463135
vertex -42.36493683 39.691185 364.0874329

endloop
endfacet
facet normal 0.6674722433 -0.5887807608 -0.4558706284
outer loop
vertex -42.36493683 39.691185 364.0874329
vertex -42.34905243 39.50875092 364.3463135
vertex -42.46800995 39.5316391 364.1425781

endloop
endfacet
facet normal 0.6756315231 -0.589507401 -0.4427223802
outer loop
vertex -42.36493683 39.691185 364.0874329
vertex -42.46800995 39.5316391 364.1425781
vertex -42.4870224 39.70999908 363.8760681

endloop
endfacet
facet normal 0.6764273643 -0.5888713598 -0.4423534572
outer loop
vertex -42.4870224 39.70999908 363.8760681
vertex -42.46800995 39.5316391 364.1425781
vertex -42.58838654 39.55220795 363.9311218

endloop
endfacet
facet normal 0.6819223166 -0.5893064737 -0.4332433939
outer loop
vertex -42.48700714 39.71001434 363.8760986
vertex -42.58837128 39.55222321 363.9311829
vertex -42.61277008 39.72844696 363.6530762

endloop
endfacet
facet normal 0.6826874614 -0.588668108 -0.4329060316
outer loop
vertex -42.61277008 39.72844696 363.6530762
vertex -42.58837128 39.55222321 363.9311829
vertex -42.71370697 39.57256317 363.7058716

endloop
endfacet
facet normal 0.6918859482 -0.5892931819 -0.4171659052
outer loop
vertex -42.61277008 39.72844696 363.6530762
vertex -42.71370697 39.57256317 363.7058716
vertex -42.75641632 39.73560333 363.4047241

endloop
endfacet
facet normal 0.6906958818 -0.5903879404 -0.4175898433
outer loop
vertex -42.75641632 39.73560333 363.4047241
vertex -42.71370697 39.57256317 363.7058716
vertex -42.85622406 39.58272552 363.45578

endloop
endfacet
facet normal 0.7300170064 -0.591139257 -0.3429717124
outer loop
vertex -42.75641632 39.73560333 363.4047241
vertex -42.85622406 39.58272552 363.45578
vertex -42.96245575 39.65154266 363.1110535

endloop
endfacet
facet normal 0.7311327457 -0.5897231102 -0.3430328071
outer loop
vertex -42.96245575 39.65154266 363.1110535
vertex -42.85622406 39.58272552 363.45578
vertex -43.04558563 39.50788116 363.1808472

endloop
endfacet
facet normal 0.684106648 -0.598436296 -0.4169797003
outer loop
vertex -42.96245575 39.65154266 363.1110535
vertex -43.04558563 39.50788116 363.1808472
vertex -43.18006134 39.56679535 362.8756714

endloop
endfacet
facet normal 0.6758940816 -0.6088032722 -0.4153622091
outer loop
vertex -43.18006134 39.56679535 362.8756714
vertex -43.04558563 39.50788116 363.1808472
vertex -43.24245453 39.44341278 362.9549866

endloop
endfacet
facet normal 0.4571876824 -0.6328772902 -0.6248567104
outer loop
vertex -43.18006134 39.56679535 362.8756714
vertex -43.24245453 39.44341278 362.9549866
vertex -43.35903168 39.55046844 362.761261

endloop
endfacet
facet normal 0.4310792983 -0.6545209289 -0.621106267
outer loop
vertex -43.35903168 39.55046844 362.761261
vertex -43.24245453 39.44341278 362.9549866
vertex -43.40491486 39.45743561 362.8274536

endloop
endfacet
facet normal 0.2185379267 -0.6349590421 -0.740991354
outer loop
vertex -43.35904694 39.55046844 362.7612305
vertex -43.40491486 39.45743561 362.8274231
vertex -43.48340607 39.54637909 362.7280579

endloop
endfacet
facet normal 0.1219354868 -0.6897389293 -0.7137169242
outer loop
vertex -43.48340607 39.54637909 362.7280579
vertex -43.40491486 39.45743561 362.8274231
vertex -43.51941681 39.47834015 362.7876587

endloop
endfacet
facet normal -0.7280778289 -0.1912813187 -0.6582660079
outer loop
vertex -43.48340607 39.54637909 362.7280579
vertex -43.51941681 39.47834015 362.7876587
vertex -43.63318634 39.65166473 362.8631287

endloop
endfacet
facet normal 0.7046837211 0.6158539057 -0.3523418605
outer loop
vertex -43.63318634 39.65166473 362.8631287
vertex -43.51941681 39.47834015 362.7876587
vertex -43.6332016 39.65166473 362.8630981

endloop
endfacet
facet normal -0.8542309403 -0.4740068913 -0.2135577351
outer loop
vertex -41.64629364 39.58776093 366.0163269
vertex -41.64627838 39.58776093 366.0162659
vertex -41.51247406 39.39067841 365.9184875

endloop
endfacet
facet normal 0.4189575315 -0.159079507 0.8939621449
outer loop
vertex -41.51247406 39.39067841 365.9184875
vertex -41.64627838 39.58776093 366.0162659
vertex -41.60988617 39.34215546 365.9555054

endloop
endfacet
facet normal 0.5132588148 -0.8064936399 0.2934848964
outer loop
vertex -41.51247406 39.39067841 365.9184875
vertex -41.60988617 39.34215546 365.9555054
vertex -41.50423431 39.34796906 365.7867126

endloop
endfacet
facet normal 0.5827609301 -0.7384054065 0.339333266
outer loop
vertex -41.50423431 39.34796906 365.7867126
vertex -41.60988617 39.34215546 365.9555054
vertex -41.62386322 39.27826691 365.8404846

endloop
endfacet
facet normal 0.5367219448 -0.8366091251 0.1096111462
outer loop
vertex -41.50423431 39.34796906 365.7867126
vertex -41.62386322 39.27826691 365.8404846
vertex -41.53844452 39.30321503 365.6126404

endloop
endfacet
facet normal 0.548138082 -0.8284744024 0.1147817671
outer loop
vertex -41.53844452 39.30321503 365.6126404
vertex -41.62386322 39.27826691 365.8404846
vertex -41.68868256 39.2143631 365.6887817

endloop
endfacet
facet normal 0.4298004806 -0.8840634823 -0.1835844815
outer loop
vertex -41.53844452 39.30321503 365.6126404
vertex -41.68868256 39.2143631 365.6887817
vertex -41.62137604 39.30066681 365.4307556

endloop
endfacet
facet normal 0.4281138778 -0.884742856 -0.1842516214
outer loop
vertex -41.62137604 39.30066681 365.4307556
vertex -41.68868256 39.2143631 365.6887817
vertex -41.78774261 39.20137787 365.5209656

endloop
endfacet
facet normal 0.3217650652 -0.8727312684 -0.3671613038
outer loop
vertex -41.62137604 39.30066681 365.4307556
vertex -41.78774261 39.20137787 365.5209656
vertex -41.7297287 39.33049774 365.2648926

endloop
endfacet
facet normal 0.3184459209 -0.8734737635 -0.3682876825
outer loop
vertex -41.7297287 39.33049774 365.2648926
vertex -41.78774261 39.20137787 365.5209656
vertex -41.8988266 39.2287674 365.3599548

endloop
endfacet
facet normal 0.2843346 -0.8629481196 -0.4177013338
outer loop
vertex -41.7297287 39.33049774 365.2648926
vertex -41.8988266 39.2287674 365.3599548
vertex -41.8378067 39.36763763 365.1145935

endloop
endfacet
facet normal 0.284658879 -0.8628948331 -0.4175904691
outer loop
vertex -41.8378067 39.36763763 365.1145935
vertex -41.8988266 39.2287674 365.3599548
vertex -42.0056839 39.26607513 365.210022

endloop
endfacet
facet normal 0.2870013714 -0.8636946678 -0.4143208265
outer loop
vertex -41.8378067 39.36763763 365.1145935
vertex -42.0056839 39.26607513 365.210022
vertex -41.94034576 39.40209198 364.9717407

endloop
endfacet
facet normal 0.2895492911 -0.8632897139 -0.4133910537
outer loop
vertex -41.94034576 39.40209198 364.9717407
vertex -42.0056839 39.26607513 365.210022
vertex -42.10666656 39.3010788 365.0661926

endloop
endfacet
facet normal 0.2999314666 -0.8666479588 -0.3987006843
outer loop
vertex -41.94034576 39.40207672 364.9717407
vertex -42.10666656 39.30106354 365.0661926
vertex -42.03887177 39.43270111 364.8310547

endloop
endfacet
facet normal 0.3029150367 -0.8661369085 -0.3975542486
outer loop
vertex -42.03887177 39.43270111 364.8310547
vertex -42.10666656 39.30106354 365.0661926
vertex -42.20368195 39.33228302 364.9242554

endloop
endfacet
facet normal 0.3156121671 -0.8698622584 -0.3791154027
outer loop
vertex -42.03887177 39.43270111 364.8310547
vertex -42.20368195 39.33228302 364.9242554
vertex -42.1354599 39.45966339 364.6887817

endloop
endfacet
facet normal 0.3183295131 -0.8693380952 -0.3780445457
outer loop
vertex -42.1354599 39.45966339 364.6887817
vertex -42.20368195 39.33228302 364.9242554
vertex -42.29862213 39.35993195 364.7807312

endloop
endfacet
facet normal 0.3349349499 -0.8736050129 -0.3530339003
outer loop
vertex -42.13544464 39.45966339 364.6887817
vertex -42.29862213 39.35993195 364.7807617
vertex -42.23708344 39.48456573 364.5307312

endloop
endfacet
facet normal 0.3354598582 -0.8734808564 -0.3528427482
outer loop
vertex -42.23708344 39.48456573 364.5307312
vertex -42.29862213 39.35993195 364.7807617
vertex -42.3973465 39.38536835 364.6239319

endloop
endfacet
facet normal 0.3516055942 -0.8766406775 -0.3284426033
outer loop
vertex -42.23708344 39.48456573 364.5307312
vertex -42.3973465 39.38536835 364.6239319
vertex -42.34905243 39.50875092 364.3463135

endloop
endfacet
facet normal 0.3521364927 -0.8764876723 -0.3282822371
outer loop
vertex -42.34905243 39.50875092 364.3463135
vertex -42.3973465 39.38536835 364.6239319
vertex -42.50634003 39.4101944 364.4407349

endloop
endfacet
facet normal 0.3635805547 -0.8781372905 -0.3109406531
outer loop
vertex -42.34905243 39.50875092 364.3463135
vertex -42.50634003 39.4101944 364.4407349
vertex -42.46800995 39.5316391 364.1425781

endloop
endfacet
facet normal 0.3651864529 -0.8776186109 -0.3105229437
outer loop
vertex -42.46800995 39.5316391 364.1425781
vertex -42.50634003 39.4101944 364.4407349
vertex -42.62371063 39.43408966 364.2351685

endloop
endfacet
facet normal 0.3732638657 -0.8785780668 -0.2979508042
outer loop
vertex -42.46800995 39.5316391 364.1425781
vertex -42.62371063 39.43408966 364.2351685
vertex -42.58838654 39.55220795 363.9311218

endloop
endfacet
facet normal 0.374353081 -0.8782063723 -0.2976798117
outer loop
vertex -42.58838654 39.55220795 363.9311218
vertex -42.62371063 39.43408966 364.2351685
vertex -42.74295807 39.45580292 364.0211487

endloop
endfacet
facet normal 0.379019469 -0.8787192702 -0.2901664972
outer loop
vertex -42.58837128 39.55222321 363.9311829
vertex -42.74294281 39.45583344 364.0211792
vertex -42.71370697 39.57256317 363.7058716

endloop
endfacet
facet normal 0.380071491 -0.8783430457 -0.289929688
outer loop
vertex -42.71370697 39.57256317 363.7058716
vertex -42.74294281 39.45583344 364.0211792
vertex -42.86766815 39.47736359 363.79245

endloop
endfacet
facet normal 0.3967562318 -0.8797850013 -0.2618450224
outer loop
vertex -42.71370697 39.57256317 363.7058716
vertex -42.86766815 39.47736359 363.79245
vertex -42.85622406 39.58272552 363.45578

endloop
endfacet
facet normal 0.3942440152 -0.8807942867 -0.2622462809
outer loop
vertex -42.85622406 39.58272552 363.45578
vertex -42.86766815 39.47736359 363.79245
vertex -43.00791168 39.48952484 363.5407715

endloop
endfacet
facet normal 0.4820127189 -0.8710123301 -0.09487524629
outer loop
vertex -42.85622406 39.58272552 363.45578
vertex -43.00791168 39.48952484 363.5407715
vertex -43.04558563 39.50788116 363.1808472

endloop
endfacet
facet normal 0.4862353802 -0.8686270714 -0.095195584
outer loop
vertex -43.04558563 39.50788116 363.1808472
vertex -43.00791168 39.48952484 363.5407715
vertex -43.18065643 39.4214859 363.2792664

endloop
endfacet
facet normal 0.45527789 -0.8782725334 -0.1461487412
outer loop
vertex -43.04558563 39.50788116 363.1808472
vertex -43.18065643 39.4214859 363.2792664
vertex -43.24245453 39.44341278 362.9549866

endloop
endfacet
facet normal 0.4498695731 -0.8811928034 -0.1453155428
outer loop
vertex -43.24245453 39.44341278 362.9549866
vertex -43.18065643 39.4214859 363.2792664
vertex -43.3511734 39.37100983 363.0574646

endloop
endfacet
facet normal 0.2280923426 -0.8926787972 -0.3887139261
outer loop
vertex -43.24245453 39.44341278 362.9549866
vertex -43.3511734 39.37100983 363.0574646
vertex -43.40491486 39.45743561 362.8274536

endloop
endfacet
facet normal 0.1770825833 -0.9069684148 -0.3821649253
outer loop
vertex -43.40491486 39.45743561 362.8274536
vertex -43.3511734 39.37100983 363.0574646
vertex -43.48317719 39.40532684 362.914856

endloop
endfacet
facet normal 0.01610785723 -0.8651738763 -0.5012131333
outer loop
vertex -43.40491486 39.45743561 362.8274231
vertex -43.48317719 39.40532684 362.914856
vertex -43.51941681 39.47834015 362.7876587

endloop
endfacet
facet normal -0.1548030376 -0.8752200603 -0.4582858384
outer loop
vertex -43.51941681 39.47834015 362.7876587
vertex -43.48317719 39.40532684 362.914856
vertex -43.5749588 39.44763947 362.8650513

endloop
endfacet
facet normal -0.7491539121 -0.2198415548 -0.6248504519
outer loop
vertex -43.51941681 39.47834015 362.7876587
vertex -43.5749588 39.44763947 362.8650513
vertex -43.6332016 39.65166473 362.8630981

endloop
endfacet
facet normal -nan(ind) -nan(ind) -nan(ind)
outer loop
vertex -43.6332016 39.65166473 362.8630981
vertex -43.5749588 39.44763947 362.8650513
vertex -43.6332016 39.65166473 362.8630981

endloop
endfacet
facet normal 0.9892100692 0.146504119 0
outer loop
vertex -41.64629364 39.58776093 366.0162659
vertex -41.64629364 39.58776093 366.0162964
vertex -41.60991669 39.3421402 365.9555054

endloop
endfacet
facet normal 0.3454326391 -0.1769392341 0.9216120243
outer loop
vertex -41.60991669 39.3421402 365.9555054
vertex -41.64629364 39.58776093 366.0162964
vertex -41.73513031 39.3526535 366.0044556

endloop
endfacet
facet normal 0.1111024544 -0.8745533228 0.4720305502
outer loop
vertex -41.60991669 39.3421402 365.9555054
vertex -41.73513031 39.3526535 366.0044556
vertex -41.62389374 39.27826691 365.8404541

endloop
endfacet
facet normal 0.2610659301 -0.800153017 0.5399996638
outer loop
vertex -41.62389374 39.27826691 365.8404541
vertex -41.73513031 39.3526535 366.0044556
vertex -41.78185272 39.28264618 365.9233093

endloop
endfacet
facet normal 0.1472355425 -0.9324349165 0.3299799562
outer loop
vertex -41.62389374 39.27826691 365.8404541
vertex -41.78185272 39.28264618 365.9233093
vertex -41.68869781 39.21434784 365.6887512

endloop
endfacet
facet normal 0.1920141429 -0.919164598 0.3438997269
outer loop
vertex -41.68869781 39.21434784 365.6887512
vertex -41.78185272 39.28264618 365.9233093
vertex -41.88236237 39.21977997 365.8114014

endloop
endfacet
facet normal 0.01517393626 -0.9975602627 0.06814121455
outer loop
vertex -41.68869781 39.21434784 365.6887512
vertex -41.88236237 39.21977997 365.8114014
vertex -41.78775787 39.20137787 365.5209351

endloop
endfacet
facet normal 0.0196032431 -0.9973843098 0.06957268715
outer loop
vertex -41.78775787 39.20137787 365.5209351
vertex -41.88236237 39.21977997 365.8114014
vertex -41.9994278 39.20743561 365.6674194

endloop
endfacet
facet normal -0.09802763164 -0.9900752306 -0.1007061899
outer loop
vertex -41.78775787 39.20137787 365.5209351
vertex -41.9994278 39.20743561 365.6674194
vertex -41.8988266 39.22875214 365.3599243

endloop
endfacet
facet normal -0.1016206741 -0.98959589 -0.1018484756
outer loop
vertex -41.8988266 39.22875214 365.3599243
vertex -41.9994278 39.20743561 365.6674194
vertex -42.11333466 39.23496246 365.5136108

endloop
endfacet
facet normal -0.1344559938 -0.9797936678 -0.1480744928
outer loop
vertex -41.8988266 39.22875214 365.3599243
vertex -42.11333466 39.23496246 365.5136108
vertex -42.0056839 39.26607513 365.2099915

endloop
endfacet
facet normal -0.1338917911 -0.9798994064 -0.1478852779
outer loop
vertex -42.0056839 39.26607513 365.2099915
vertex -42.11333466 39.23496246 365.5136108
vertex -42.2195816 39.27225494 365.3627014

endloop
endfacet
facet normal -0.1323081404 -0.9804499149 -0.1456447989
outer loop
vertex -42.0056839 39.26607513 365.2099915
vertex -42.2195816 39.27225494 365.3627014
vertex -42.10666656 39.30106354 365.0661926

endloop
endfacet
facet normal -0.1293791234 -0.9809978604 -0.1445826292
outer loop
vertex -42.10666656 39.30106354 365.0661926
vertex -42.2195816 39.27225494 365.3627014
vertex -42.32024384 39.30722809 365.2154846

endloop
endfacet
facet normal -0.12143071 -0.9836215973 -0.1332038194
outer loop
vertex -42.10668182 39.30106354 365.0661926
vertex -42.32025909 39.30721283 365.2154846
vertex -42.20371246 39.33226776 364.9242249

endloop
endfacet
facet normal -0.1177304909 -0.9842631817 -0.1317783743
outer loop
vertex -42.20371246 39.33226776 364.9242249
vertex -42.32025909 39.30721283 365.2154846
vertex -42.41725922 39.33838654 365.0693054

endloop
endfacet
facet normal -0.1085905433 -0.9870333672 -0.1182082817
outer loop
vertex -42.20371246 39.33226776 364.9242249
vertex -42.41725922 39.33838654 365.0693054
vertex -42.29865265 39.35990143 364.7807007

endloop
endfacet
facet normal -0.1050246507 -0.9875885844 -0.1167842075
outer loop
vertex -42.29865265 39.35990143 364.7807007
vertex -42.41725922 39.33838654 365.0693054
vertex -42.51204681 39.36594391 364.9215088

endloop
endfacet
facet normal -0.09474673122 -0.9903544188 -0.1010996327
outer loop
vertex -42.29863739 39.35991669 364.7807312
vertex -42.51204681 39.36595917 364.9215393
vertex -42.39736176 39.38536835 364.6239319

endloop
endfacet
facet normal -0.09237580001 -0.9906691909 -0.1002065018
outer loop
vertex -42.39736176 39.38536835 364.6239319
vertex -42.51204681 39.36595917 364.9215393
vertex -42.60871124 39.39092255 364.763855

endloop
endfacet
facet normal -0.08262556791 -0.9929156899 -0.08538990468
outer loop
vertex -42.39736176 39.38536835 364.6239319
vertex -42.60871124 39.39092255 364.763855
vertex -42.50634003 39.4101944 364.4407043

endloop
endfacet
facet normal -0.08053694665 -0.9931428432 -0.08474180847
outer loop
vertex -42.50634003 39.4101944 364.4407043
vertex -42.60871124 39.39092255 364.763855
vertex -42.71559906 39.41533661 364.5793152

endloop
endfacet
facet normal -0.07322568446 -0.9945922494 -0.0736503154
outer loop
vertex -42.50634003 39.4101944 364.4407043
vertex -42.71559906 39.41533661 364.5793152
vertex -42.62372589 39.43405914 364.2351379

endloop
endfacet
facet normal -0.07126107067 -0.9947729111 -0.07313571125
outer loop
vertex -42.62372589 39.43405914 364.2351379
vertex -42.71559906 39.41533661 364.5793152
vertex -42.83267975 39.43923187 364.3683777

endloop
endfacet
facet normal -0.06575231999 -0.9957518578 -0.06445859373
outer loop
vertex -42.62372589 39.43405914 364.2351379
vertex -42.83267975 39.43923187 364.3683777
vertex -42.74297333 39.45578766 364.0211182

endloop
endfacet
facet normal -0.06409164518 -0.9958873391 -0.0640360564
outer loop
vertex -42.74297333 39.45578766 364.0211182
vertex -42.83267975 39.43923187 364.3683777
vertex -42.95180511 39.46103668 364.1484985

endloop
endfacet
facet normal -0.06167067215 -0.9962816834 -0.06016273424
outer loop
vertex -42.74297333 39.45581818 364.0211487
vertex -42.95178986 39.46105194 364.1485291
vertex -42.86768341 39.47734833 363.79245

endloop
endfacet
facet normal -0.060498707 -0.9963698983 -0.05988995358
outer loop
vertex -42.86768341 39.47734833 363.79245
vertex -42.95178986 39.46105194 364.1485291
vertex -43.07582855 39.48261261 363.9151306

endloop
endfacet
facet normal -0.0404041335 -0.9988530874 -0.02569010854
outer loop
vertex -42.86768341 39.47734833 363.79245
vertex -43.07582855 39.48261261 363.9151306
vertex -43.00792694 39.48949432 363.5407715

endloop
endfacet
facet normal -0.0426466316 -0.9987494349 -0.02609494887
outer loop
vertex -43.00792694 39.48949432 363.5407715
vertex -43.07582855 39.48261261 363.9151306
vertex -43.21247101 39.49504852 363.6624756

endloop
endfacet
facet normal 0.0894561708 -0.9767309427 0.1949210167
outer loop
vertex -43.00792694 39.48949432 363.5407715
vertex -43.21247101 39.49504852 363.6624756
vertex -43.18067169 39.4214859 363.2792664

endloop
endfacet
facet normal 0.08740946651 -0.9769420624 0.1947917342
outer loop
vertex -43.18067169 39.4214859 363.2792664
vertex -43.21247101 39.49504852 363.6624756
vertex -43.37102509 39.42951202 363.4049377

endloop
endfacet
facet normal 0.0704735443 -0.9830027819 0.1695261151
outer loop
vertex -43.18067169 39.4214859 363.2792664
vertex -43.37102509 39.42951202 363.4049377
vertex -43.35118866 39.37100983 363.0574646

endloop
endfacet
facet normal 0.06062538922 -0.9837348461 0.1690871418
outer loop
vertex -43.35118866 39.37100983 363.0574646
vertex -43.37102509 39.42951202 363.4049377
vertex -43.51082611 39.38199615 363.1786194

endloop
endfacet
facet normal -0.1453047097 -0.984092176 -0.1022205874
outer loop
vertex -43.35118866 39.37100983 363.0574646
vertex -43.51082611 39.38199615 363.1786194
vertex -43.48317719 39.40531158 362.914856

endloop
endfacet
facet normal -0.2191716284 -0.9696141481 -0.1086838692
outer loop
vertex -43.48317719 39.40531158 362.914856
vertex -43.51082611 39.38199615 363.1786194
vertex -43.59677887 39.41918182 363.0202026

endloop
endfacet
facet normal -0.3111127913 -0.9260922074 -0.2134529054
outer loop
vertex -43.48319244 39.40531158 362.9148254
vertex -43.59677887 39.41918182 363.0202026
vertex -43.57497406 39.44762421 362.8650208

endloop
endfacet
facet normal -0.5209537148 -0.8236265182 -0.2241575867
outer loop
vertex -43.57497406 39.44762421 362.8650208
vertex -43.59677887 39.41918182 363.0202026
vertex -43.64922333 39.46988678 362.95578

endloop
endfacet
facet normal -0.7802526355 -0.2282538414 -0.5823280215
outer loop
vertex -43.57497406 39.44762421 362.8650208
vertex -43.64922333 39.46988678 362.95578
vertex -43.6332016 39.65164948 362.8630676

endloop
endfacet
facet normal -0.9969319701 0.07000926882 -0.03500463441
outer loop
vertex -43.6332016 39.65164948 362.8630676
vertex -43.64922333 39.46988678 362.95578
vertex -43.6332016 39.65166473 362.8630981

endloop
endfacet
facet normal 0.1324536651 0 -0.9911891818
outer loop
vertex -41.64629364 39.58777618 366.0162964
vertex -41.64629364 39.58776093 366.0162964
vertex -41.73513031 39.3526535 366.004425

endloop
endfacet
facet normal 0.2543053031 -0.144376725 0.9562866688
outer loop
vertex -41.73513031 39.3526535 366.004425
vertex -41.64629364 39.58776093 366.0162964
vertex -41.89260101 39.50037384 366.0686035

endloop
endfacet
facet normal -0.2994231284 -0.6303610802 0.7162336707
outer loop
vertex -41.73513031 39.3526535 366.004425
vertex -41.89260101 39.50037384 366.0686035
vertex -41.78185272 39.28264618 365.9232788

endloop
endfacet
facet normal -0.002874825383 -0.5561663508 0.8310660124
outer loop
vertex -41.78185272 39.28264618 365.9232788
vertex -41.89260101 39.50037384 366.0686035
vertex -41.98387909 39.47663116 366.0523987

endloop
endfacet
facet normal -0.2724507153 -0.7134484649 0.645571053
outer loop
vertex -41.78185272 39.28264618 365.9232788
vertex -41.98387909 39.47663116 366.0523987
vertex -41.88236237 39.21979523 365.8114014

endloop
endfacet
facet normal -0.1551344991 -0.7078949809 0.6890704036
outer loop
vertex -41.88236237 39.21979523 365.8114014
vertex -41.98387909 39.47663116 366.0523987
vertex -42.1208725 39.46672821 366.0113831

endloop
endfacet
facet normal -0.4483484328 -0.7826888561 0.4317197204
outer loop
vertex -41.88236237 39.21979523 365.8114014
vertex -42.1208725 39.46672821 366.0113831
vertex -41.9994278 39.20743561 365.6674194

endloop
endfacet
facet normal -0.4368323386 -0.7856822014 0.4380422831
outer loop
vertex -41.9994278 39.20743561 365.6674194
vertex -42.1208725 39.46672821 366.0113831
vertex -42.25450897 39.48345184 365.9081116

endloop
endfacet
facet normal -0.5687198639 -0.7723293304 0.2829577625
outer loop
vertex -41.9994278 39.20743561 365.6674194
vertex -42.25450897 39.48345184 365.9081116
vertex -42.11334991 39.23496246 365.5135803

endloop
endfacet
facet normal -0.5733507872 -0.7700327039 0.279854387
outer loop
vertex -42.11334991 39.23496246 365.5135803
vertex -42.25450897 39.48345184 365.9081116
vertex -42.37039948 39.51776886 365.7651062

endloop
endfacet
facet normal -0.6043154597 -0.7605196238 0.2375135422
outer loop
vertex -42.11334991 39.23496246 365.5135803
vertex -42.37039948 39.51776886 365.7651062
vertex -42.2195816 39.27225494 365.3627014

endloop
endfacet
facet normal -0.6035504341 -0.7609544992 0.2380655706
outer loop
vertex -42.2195816 39.27225494 365.3627014
vertex -42.37039948 39.51776886 365.7651062
vertex -42.47788239 39.55452728 365.6101074

endloop
endfacet
facet normal -0.6062861085 -0.760002315 0.2341230363
outer loop
vertex -42.2195816 39.27225494 365.3627014
vertex -42.47788239 39.55452728 365.6101074
vertex -42.32025909 39.30722809 365.2155151

endloop
endfacet
facet normal -0.6024800539 -0.762139678 0.2369829565
outer loop
vertex -42.32025909 39.30722809 365.2155151
vertex -42.47788239 39.55452728 365.6101074
vertex -42.58150482 39.58798981 365.4542847

endloop
endfacet
facet normal -0.6023246646 -0.7621936202 0.2372044325
outer loop
vertex -42.32025909 39.30721283 365.2154846
vertex -42.58150482 39.58798981 365.4543152
vertex -42.41727448 39.33838654 365.0693054

endloop
endfacet
facet normal -0.597599268 -0.7647557855 0.2408811897
outer loop
vertex -42.41727448 39.33838654 365.0693054
vertex -42.58150482 39.58798981 365.4543152
vertex -42.68241119 39.61750031 365.2976685

endloop
endfacet
facet normal -0.5976938009 -0.764727354 0.2407367378
outer loop
vertex -42.41727448 39.33838654 365.0693054
vertex -42.68241119 39.61750031 365.2976685
vertex -42.51206207 39.36594391 364.9215088

endloop
endfacet
facet normal -0.5927801132 -0.7672962546 0.244679898
outer loop
vertex -42.51206207 39.36594391 364.9215088
vertex -42.68241119 39.61750031 365.2976685
vertex -42.78087616 39.64304352 365.1392212

endloop
endfacet
facet normal -0.5939995646 -0.7669773102 0.242714569
outer loop
vertex -42.51204681 39.36595917 364.9215393
vertex -42.7808609 39.64304352 365.1392517
vertex -42.60871124 39.39092255 364.763855

endloop
endfacet
facet normal -0.5886950493 -0.7697017193 0.2469768524
outer loop
vertex -42.60871124 39.39092255 364.763855
vertex -42.7808609 39.64304352 365.1392517
vertex -42.87850189 39.66513824 364.9753723

endloop
endfacet
facet normal -0.5922107697 -0.7687981129 0.2413210422
outer loop
vertex -42.60871124 39.39092255 364.763855
vertex -42.87850189 39.66513824 364.9753723
vertex -42.7155838 39.41532135 364.5793152

endloop
endfacet
facet normal -0.5880051255 -0.7710313797 0.2444597036
outer loop
vertex -42.7155838 39.41532135 364.5793152
vertex -42.87850189 39.66513824 364.9753723
vertex -42.98619843 39.68651581 364.7837524

endloop
endfacet
facet normal -0.590462923 -0.7704276443 0.2404052466
outer loop
vertex -42.7155838 39.41532135 364.5793152
vertex -42.98619843 39.68651581 364.7837524
vertex -42.83266449 39.43923187 364.3683777

endloop
endfacet
facet normal -0.5878756642 -0.7718417048 0.2422034442
outer loop
vertex -42.83266449 39.43923187 364.3683777
vertex -42.98619843 39.68651581 364.7837524
vertex -43.10642242 39.70783234 364.5598755

endloop
endfacet
facet normal -0.5879657269 -0.7718220949 0.242047295
outer loop
vertex -42.83266449 39.43923187 364.3683777
vertex -43.10642242 39.70783234 364.5598755
vertex -42.95180511 39.46103668 364.1484985

endloop
endfacet
facet normal -0.5859543085 -0.77290833 0.2434549183
outer loop
vertex -42.95180511 39.46103668 364.1484985
vertex -43.10642242 39.70783234 364.5598755
vertex -43.22800446 39.72692108 364.3278503

endloop
endfacet
facet normal -0.587392509 -0.7726507187 0.2407922745
outer loop
vertex -42.95178986 39.4610672 364.1485291
vertex -43.2279892 39.72693634 364.3278809
vertex -43.07582855 39.48262787 363.9151306

endloop
endfacet
facet normal -0.5861310959 -0.7733363509 0.2416632026
outer loop
vertex -43.07582855 39.48262787 363.9151306
vertex -43.2279892 39.72693634 364.3278809
vertex -43.35128021 39.74549103 364.0882263

endloop
endfacet
facet normal -0.5703564882 -0.7756540775 0.270285368
outer loop
vertex -43.07582855 39.48262787 363.9151306
vertex -43.35128021 39.74549103 364.0882263
vertex -43.21247101 39.49506378 363.6624756

endloop
endfacet
facet normal -0.569660008 -0.7760130763 0.2707235813
outer loop
vertex -43.21247101 39.49506378 363.6624756
vertex -43.35128021 39.74549103 364.0882263
vertex -43.48220062 39.75370026 363.8362732

endloop
endfacet
facet normal -0.4378255606 -0.769282043 0.4653105736
outer loop
vertex -43.21247101 39.49506378 363.6624756
vertex -43.48220062 39.75370026 363.8362732
vertex -43.37102509 39.42952728 363.4049377

endloop
endfacet
facet normal -0.452994585 -0.764837563 0.458060503
outer loop
vertex -43.37102509 39.42952728 363.4049377
vertex -43.48220062 39.75370026 363.8362732
vertex -43.63776398 39.67856598 363.5569763

endloop
endfacet
facet normal -0.4615388215 -0.7667430639 0.4461916983
outer loop
vertex -43.37102509 39.42952728 363.4049377
vertex -43.63776398 39.67856598 363.5569763
vertex -43.51082611 39.38199615 363.1786499

endloop
endfacet
facet normal -0.4840861857 -0.7601257563 0.4334391356
outer loop
vertex -43.51082611 39.38199615 363.1786499
vertex -43.63776398 39.67856598 363.5569763
vertex -43.74634552 39.60449982 363.3058167

endloop
endfacet
facet normal -0.6295287609 -0.7596395612 0.1632216424
outer loop
vertex -43.51082611 39.38199615 363.1786499
vertex -43.74634552 39.60449982 363.3058167
vertex -43.59677887 39.41918182 363.0202026

endloop
endfacet
facet normal -0.7029448152 -0.7055665255 0.08969120681
outer loop
vertex -43.59677887 39.41918182 363.0202026
vertex -43.74634552 39.60449982 363.3058167
vertex -43.76197052 39.59838104 363.1352234

endloop
endfacet
facet normal -0.720882833 -0.6917578578 0.04241522774
outer loop
vertex -43.59677887 39.41918182 363.0202026
vertex -43.76197052 39.59838104 363.1352234
vertex -43.64923859 39.46990204 362.9558105

endloop
endfacet
facet normal -0.8658757806 -0.4475070238 -0.2235993445
outer loop
vertex -43.64923859 39.46990204 362.9558105
vertex -43.76197052 39.59838104 363.1352234
vertex -43.74794769 39.61193085 363.0538025

endloop
endfacet
facet normal -0.8203688264 -0.2007206231 -0.5354496837
outer loop
vertex -43.64923859 39.46990204 362.9558105
vertex -43.74794769 39.61193085 363.0538025
vertex -43.6332016 39.65167999 362.8630981

endloop
endfacet
facet normal 0.8568510413 0 0.5155640841
outer loop
vertex -43.6332016 39.65167999 362.8630981
vertex -43.74794769 39.61193085 363.0538025
vertex -43.6332016 39.65166473 362.8630981

endloop
endfacet
endsolid
