solid 
facet normal -nan(ind) -nan(ind) -nan(ind)
outer loop
vertex -52.47989655 -29.59023285 265.999176
vertex -52.47989655 -29.59023285 265.999176
vertex -52.69550323 -29.66947174 265.6918335

endloop
endfacet
facet normal 0.3263667524 -0.9451285601 0.01472001337
outer loop
vertex -52.69550323 -29.66947174 265.6918335
vertex -52.47989655 -29.59023285 265.999176
vertex -52.83116913 -29.71192169 265.9741821

endloop
endfacet
facet normal -0.5811628103 -0.7159413695 -0.3868821561
outer loop
vertex -52.69550323 -29.66947174 265.6918335
vertex -52.83116913 -29.71192169 265.9741821
vertex -52.86302948 -29.49819183 265.6265259

endloop
endfacet
facet normal -0.576290071 -0.7187103629 -0.3890310526
outer loop
vertex -52.86302948 -29.49819183 265.6265259
vertex -52.83116913 -29.71192169 265.9741821
vertex -53.01474762 -29.53890228 265.9264832

endloop
endfacet
facet normal -0.5555375814 -0.7389218211 -0.3812775016
outer loop
vertex -52.86302948 -29.49819183 265.6265259
vertex -53.01474762 -29.53890228 265.9264832
vertex -53.05115509 -29.32239532 265.5599365

endloop
endfacet
facet normal -0.5837834477 -0.7231366634 -0.369148165
outer loop
vertex -53.05115509 -29.32239532 265.5599365
vertex -53.01474762 -29.53890228 265.9264832
vertex -53.19776154 -29.36267853 265.870697

endloop
endfacet
facet normal -0.5655358434 -0.7406347394 -0.3628077805
outer loop
vertex -53.05115509 -29.32239532 265.5599365
vertex -53.19776154 -29.36267853 265.870697
vertex -53.27521515 -29.13697052 265.5306702

endloop
endfacet
facet normal -0.68258816 -0.670871377 -0.2898363173
outer loop
vertex -53.27521515 -29.13697052 265.5306702
vertex -53.19776154 -29.36267853 265.870697
vertex -53.3814621 -29.16973114 265.85672

endloop
endfacet
facet normal -0.634935081 -0.7203207612 -0.2792765796
outer loop
vertex -53.27521515 -29.13697052 265.5306702
vertex -53.3814621 -29.16973114 265.85672
vertex -53.53975677 -28.88698578 265.4873352

endloop
endfacet
facet normal -0.7394632697 -0.6487665176 -0.1797113568
outer loop
vertex -53.53975677 -28.88698578 265.4873352
vertex -53.3814621 -29.16973114 265.85672
vertex -53.61658478 -28.89237213 265.8229065

endloop
endfacet
facet normal -0.7468734384 -0.6397839785 -0.1812637001
outer loop
vertex -53.53975677 -28.88698578 265.4873352
vertex -53.61658478 -28.89237213 265.8229065
vertex -53.83391571 -28.51320648 265.3800964

endloop
endfacet
facet normal -0.7821648717 -0.6079033613 -0.1366442442
outer loop
vertex -53.83391571 -28.51320648 265.3800964
vertex -53.61658478 -28.89237213 265.8229065
vertex -53.9180069 -28.47997284 265.7135925

endloop
endfacet
facet normal -0.8193480968 -0.552916348 -0.1514996141
outer loop
vertex -53.83391571 -28.51320648 265.3800964
vertex -53.9180069 -28.47997284 265.7135925
vertex -54.08800507 -28.10785675 265.2749023

endloop
endfacet
facet normal -0.8371031284 -0.532106638 -0.126967594
outer loop
vertex -54.08800507 -28.10785675 265.2749023
vertex -53.9180069 -28.47997284 265.7135925
vertex -54.16509247 -28.0664444 265.6095886

endloop
endfacet
facet normal -0.8379940987 -0.5306029916 -0.1273830682
outer loop
vertex -54.08800507 -28.10784149 265.2749023
vertex -54.16509247 -28.0664444 265.6095886
vertex -54.26860809 -27.81250763 265.2328186

endloop
endfacet
facet normal -0.8892608881 -0.453288883 -0.06118935719
outer loop
vertex -54.26860809 -27.81250763 265.2328186
vertex -54.16509247 -28.0664444 265.6095886
vertex -54.31302643 -27.77120209 265.5723572

endloop
endfacet
facet normal -0.8390969038 -0.5422151685 -0.04380884767
outer loop
vertex -54.26860809 -27.81250763 265.2328186
vertex -54.31302643 -27.77120209 265.5723572
vertex -54.4291153 -27.56467438 265.2397156

endloop
endfacet
facet normal -0.9111472964 -0.4068623185 0.06537278742
outer loop
vertex -54.4291153 -27.56467438 265.2397156
vertex -54.31302643 -27.77120209 265.5723572
vertex -54.42295074 -27.52353668 265.581665

endloop
endfacet
facet normal -0.8388251066 -0.538510263 0.07986926287
outer loop
vertex -54.42910004 -27.56465912 265.2397461
vertex -54.42295074 -27.52352142 265.5816956
vertex -54.58898163 -27.31220245 265.2627563

endloop
endfacet
facet normal -0.8880583644 -0.421818763 0.182814762
outer loop
vertex -54.58898163 -27.31220245 265.2627563
vertex -54.42295074 -27.52352142 265.5816956
vertex -54.53874969 -27.27077484 265.602356

endloop
endfacet
facet normal -0.8289575577 -0.5271521211 0.1869224459
outer loop
vertex -54.58898163 -27.31220245 265.2627563
vertex -54.53874969 -27.27077484 265.602356
vertex -54.7443924 -27.05817413 265.2899475

endloop
endfacet
facet normal -0.8571689725 -0.4429424107 0.2627990842
outer loop
vertex -54.7443924 -27.05817413 265.2899475
vertex -54.53874969 -27.27077484 265.602356
vertex -54.6639328 -27.01563263 265.6240845

endloop
endfacet
facet normal -0.7990717292 -0.5414603353 0.2613524795
outer loop
vertex -54.7443924 -27.05817413 265.2899475
vertex -54.6639328 -27.01563263 265.6240845
vertex -54.89826202 -26.81252289 265.3284302

endloop
endfacet
facet normal -0.8216739297 -0.4618904293 0.3339298069
outer loop
vertex -54.89826202 -26.81252289 265.3284302
vertex -54.6639328 -27.01563263 265.6240845
vertex -54.79056549 -26.76816559 265.6547852

endloop
endfacet
facet normal -0.7598568201 -0.5617980361 0.3271094263
outer loop
vertex -54.89826202 -26.81252289 265.3284302
vertex -54.79056549 -26.76816559 265.6547852
vertex -55.05605316 -26.56893158 265.380249

endloop
endfacet
facet normal -0.7772462368 -0.4873784781 0.3979327977
outer loop
vertex -55.05605316 -26.56893158 265.380249
vertex -54.79056549 -26.76816559 265.6547852
vertex -54.92258453 -26.52281952 265.6974182

endloop
endfacet
facet normal -0.7363983989 -0.5526611209 0.3902347386
outer loop
vertex -55.0560379 -26.56891632 265.3802795
vertex -54.92256927 -26.52280426 265.6974487
vertex -55.22083282 -26.31324005 265.4313965

endloop
endfacet
facet normal -0.7432582378 -0.5136133432 0.4286822677
outer loop
vertex -55.22083282 -26.31324005 265.4313965
vertex -54.92256927 -26.52280426 265.6974487
vertex -55.07358551 -26.26636505 265.7428589

endloop
endfacet
facet normal -0.7217988968 -0.5473213792 0.4236101508
outer loop
vertex -55.22083282 -26.31324005 265.4313965
vertex -55.07358551 -26.26636505 265.7428589
vertex -55.38585663 -26.05774689 265.4803162

endloop
endfacet
facet normal -0.7250437737 -0.5263857841 0.4441052377
outer loop
vertex -55.38585663 -26.05774689 265.4803162
vertex -55.07358551 -26.26636505 265.7428589
vertex -55.2317276 -26.01004791 265.7884827

endloop
endfacet
facet normal -0.6912101507 -0.5770459771 0.4350247383
outer loop
vertex -55.38585663 -26.05774689 265.4803162
vertex -55.2317276 -26.01004791 265.7884827
vertex -55.54558563 -25.82201385 265.5392151

endloop
endfacet
facet normal -0.6975883842 -0.5398061275 0.471147418
outer loop
vertex -55.54558563 -25.82201385 265.5392151
vertex -55.2317276 -26.01004791 265.7884827
vertex -55.38022614 -25.77190399 265.8414612

endloop
endfacet
facet normal -0.6445119381 -0.6148118973 0.4545445442
outer loop
vertex -55.54558563 -25.82201385 265.5392151
vertex -55.38022614 -25.77190399 265.8414612
vertex -55.70349884 -25.60424042 265.6098633

endloop
endfacet
facet normal -0.6529718041 -0.5698370337 0.4989123344
outer loop
vertex -55.70349884 -25.60424042 265.6098633
vertex -55.38022614 -25.77190399 265.8414612
vertex -55.52506256 -25.55121613 265.9039612

endloop
endfacet
facet normal -0.6315048337 -0.5998550653 0.4912998676
outer loop
vertex -55.70349884 -25.60424042 265.6098633
vertex -55.52506256 -25.55121613 265.9039612
vertex -55.85399628 -25.39273834 265.6746521

endloop
endfacet
facet normal -0.633957386 -0.5866084695 0.5039728284
outer loop
vertex -55.85399628 -25.39273834 265.6746521
vertex -55.52506256 -25.55121613 265.9039612
vertex -55.67646027 -25.33959198 265.9598389

endloop
endfacet
facet normal -0.6347668767 -0.5854758024 0.5042708516
outer loop
vertex -55.85401154 -25.39272308 265.6746826
vertex -55.67644501 -25.33960724 265.9598694
vertex -56.00940704 -25.19341278 265.7104797

endloop
endfacet
facet normal -0.6213048697 -0.6372565031 0.455943346
outer loop
vertex -56.00940704 -25.19341278 265.7104797
vertex -55.67644501 -25.33960724 265.9598694
vertex -55.85436249 -25.14902496 265.9837952

endloop
endfacet
facet normal -0.8199621439 0.4110333323 0.3983887434
outer loop
vertex -56.00940704 -25.19341278 265.7104797
vertex -55.85436249 -25.14902496 265.9837952
vertex -55.83150482 -24.86673737 265.7395935

endloop
endfacet
facet normal -nan(ind) -nan(ind) -nan(ind)
outer loop
vertex -55.83150482 -24.86673737 265.7395935
vertex -55.85436249 -25.14902496 265.9837952
vertex -55.83150482 -24.86673737 265.7395935

endloop
endfacet
facet normal -0.2919642925 0.9058399796 -0.3069378436
outer loop
vertex -52.47989655 -29.59023285 265.999176
vertex -52.4799118 -29.59024811 265.9991455
vertex -52.83116913 -29.71192169 265.9741821

endloop
endfacet
facet normal 0.294816345 -0.9105540514 0.2897835672
outer loop
vertex -52.83116913 -29.71192169 265.9741821
vertex -52.4799118 -29.59024811 265.9991455
vertex -52.83126068 -29.65752411 266.1452026

endloop
endfacet
facet normal -0.698803544 -0.6817695498 0.2164807171
outer loop
vertex -52.83116913 -29.71192169 265.9741821
vertex -52.83126068 -29.65752411 266.1452026
vertex -53.01474762 -29.53890228 265.9264832

endloop
endfacet
facet normal -0.7036474347 -0.6740798354 0.2247149497
outer loop
vertex -53.01474762 -29.53890228 265.9264832
vertex -52.83126068 -29.65752411 266.1452026
vertex -53.0170517 -29.47689056 266.1052856

endloop
endfacet
facet normal -0.7105743885 -0.6675611138 0.2223648727
outer loop
vertex -53.01474762 -29.53890228 265.9264832
vertex -53.0170517 -29.47689056 266.1052856
vertex -53.19776154 -29.36267853 265.870697

endloop
endfacet
facet normal -0.721483469 -0.649707675 0.2394606769
outer loop
vertex -53.19776154 -29.36267853 265.870697
vertex -53.0170517 -29.47689056 266.1052856
vertex -53.19481659 -29.29869843 266.0531616

endloop
endfacet
facet normal -0.7113028169 -0.6596277356 0.2427747697
outer loop
vertex -53.19776154 -29.36267853 265.870697
vertex -53.19481659 -29.29869843 266.0531616
vertex -53.3814621 -29.16973114 265.85672

endloop
endfacet
facet normal -0.7459102273 -0.5795578361 0.3282236159
outer loop
vertex -53.3814621 -29.16973114 265.85672
vertex -53.19481659 -29.29869843 266.0531616
vertex -53.35440826 -29.10334015 266.0354309

endloop
endfacet
facet normal -0.7395468354 -0.5867075324 0.3299163878
outer loop
vertex -53.3814621 -29.16973114 265.85672
vertex -53.35440826 -29.10334015 266.0354309
vertex -53.61658478 -28.89237213 265.8229065

endloop
endfacet
facet normal -0.751137197 -0.5041918755 0.4261259735
outer loop
vertex -53.61658478 -28.89237213 265.8229065
vertex -53.35440826 -29.10334015 266.0354309
vertex -53.56565094 -28.82231903 265.995575

endloop
endfacet
facet normal -0.782648325 -0.4612394571 0.4179949462
outer loop
vertex -53.61658478 -28.89237213 265.8229065
vertex -53.56565094 -28.82231903 265.995575
vertex -53.9180069 -28.47997284 265.7135925

endloop
endfacet
facet normal -0.7803139091 -0.4260095358 0.4578494132
outer loop
vertex -53.9180069 -28.47997284 265.7135925
vertex -53.56565094 -28.82231903 265.995575
vertex -53.85825348 -28.40755463 265.8828125

endloop
endfacet
facet normal -0.8129690886 -0.3733686209 0.4468524754
outer loop
vertex -53.9180069 -28.47997284 265.7135925
vertex -53.85825348 -28.40755463 265.8828125
vertex -54.16509247 -28.0664444 265.6095886

endloop
endfacet
facet normal -0.809170723 -0.3496165276 0.4722405374
outer loop
vertex -54.16509247 -28.0664444 265.6095886
vertex -53.85825348 -28.40755463 265.8828125
vertex -54.0993576 -27.99359894 265.7761536

endloop
endfacet
facet normal -0.8107479215 -0.3467564285 0.4716438055
outer loop
vertex -54.16509247 -28.0664444 265.6095886
vertex -54.0993576 -27.99358368 265.7761536
vertex -54.31302643 -27.77120209 265.5723572

endloop
endfacet
facet normal -0.7983958721 -0.2773070633 0.5344762206
outer loop
vertex -54.31302643 -27.77120209 265.5723572
vertex -54.0993576 -27.99358368 265.7761536
vertex -54.2317276 -27.69864655 265.7314453

endloop
endfacet
facet normal -0.7561706305 -0.3562493324 0.5489010811
outer loop
vertex -54.31302643 -27.77120209 265.5723572
vertex -54.2317276 -27.69864655 265.7314453
vertex -54.42295074 -27.52353668 265.581665

endloop
endfacet
facet normal -0.7268416286 -0.2448727041 0.6416686177
outer loop
vertex -54.42295074 -27.52353668 265.581665
vertex -54.2317276 -27.69864655 265.7314453
vertex -54.31911469 -27.4512558 265.7268677

endloop
endfacet
facet normal -0.665646553 -0.3584776521 0.6545291543
outer loop
vertex -54.42295074 -27.52352142 265.5816956
vertex -54.31909943 -27.45124054 265.7268982
vertex -54.53874969 -27.27077484 265.602356

endloop
endfacet
facet normal -0.6298123002 -0.2619103491 0.7312586904
outer loop
vertex -54.53874969 -27.27077484 265.602356
vertex -54.31909943 -27.45124054 265.7268982
vertex -54.41683197 -27.19799042 265.733429

endloop
endfacet
facet normal -0.5821074843 -0.3481822014 0.7347924709
outer loop
vertex -54.53874969 -27.27077484 265.602356
vertex -54.41683197 -27.19799042 265.733429
vertex -54.6639328 -27.01563263 265.6240845

endloop
endfacet
facet normal -0.5529077649 -0.2782678902 0.7854043841
outer loop
vertex -54.6639328 -27.01563263 265.6240845
vertex -54.41683197 -27.19799042 265.733429
vertex -54.53144073 -26.94089508 265.7438354

endloop
endfacet
facet normal -0.5074673295 -0.3569726348 0.7842496634
outer loop
vertex -54.6639328 -27.01563263 265.6240845
vertex -54.53144073 -26.94089508 265.7438354
vertex -54.79056549 -26.76816559 265.6547852

endloop
endfacet
facet normal -0.478159219 -0.2899111807 0.8290447593
outer loop
vertex -54.79056549 -26.76816559 265.6547852
vertex -54.53144073 -26.94089508 265.7438354
vertex -54.65010834 -26.69019318 265.7630615

endloop
endfacet
facet normal -0.4275757968 -0.37315014 0.823369801
outer loop
vertex -54.79056549 -26.76816559 265.6547852
vertex -54.65010834 -26.69019318 265.7630615
vertex -54.92258453 -26.52281952 265.6974182

endloop
endfacet
facet normal -0.3978242874 -0.3088090718 0.8639287353
outer loop
vertex -54.92258453 -26.52281952 265.6974182
vertex -54.65010834 -26.69019318 265.7630615
vertex -54.77523041 -26.44174957 265.7942505

endloop
endfacet
facet normal -0.3624739647 -0.3652919233 0.8574231267
outer loop
vertex -54.92256927 -26.52280426 265.6974487
vertex -54.77521515 -26.44173431 265.794281
vertex -55.07358551 -26.26636505 265.7428589

endloop
endfacet
facet normal -0.3455495536 -0.3303685784 0.8783234358
outer loop
vertex -55.07358551 -26.26636505 265.7428589
vertex -54.77521515 -26.44173431 265.794281
vertex -54.92261505 -26.18395233 265.833252

endloop
endfacet
facet normal -0.328014195 -0.3579856753 0.8742156029
outer loop
vertex -55.07358551 -26.26636505 265.7428589
vertex -54.92261505 -26.18395233 265.833252
vertex -55.2317276 -26.01004791 265.7884827

endloop
endfacet
facet normal -0.3191378117 -0.3394781947 0.8848195672
outer loop
vertex -55.2317276 -26.01004791 265.7884827
vertex -54.92261505 -26.18395233 265.833252
vertex -55.07953644 -25.92610931 265.8755798

endloop
endfacet
facet normal -0.293664664 -0.3784035146 0.8778222203
outer loop
vertex -55.2317276 -26.01004791 265.7884827
vertex -55.07953644 -25.92610931 265.8755798
vertex -55.38022614 -25.77190399 265.8414612

endloop
endfacet
facet normal -0.2790412903 -0.345908016 0.8958144784
outer loop
vertex -55.38022614 -25.77190399 265.8414612
vertex -55.07953644 -25.92610931 265.8755798
vertex -55.227211 -25.68376923 265.9231567

endloop
endfacet
facet normal -0.2374728918 -0.4058012962 0.8825712204
outer loop
vertex -55.38022614 -25.77190399 265.8414612
vertex -55.227211 -25.68376923 265.9231567
vertex -55.52506256 -25.55121613 265.9039612

endloop
endfacet
facet normal -0.2208361328 -0.3652670681 0.9043292403
outer loop
vertex -55.52506256 -25.55121613 265.9039612
vertex -55.227211 -25.68376923 265.9231567
vertex -55.37174225 -25.45796967 265.9790649

endloop
endfacet
facet normal -0.2063744962 -0.3851439953 0.8994851708
outer loop
vertex -55.52506256 -25.55121613 265.9039612
vertex -55.37174225 -25.45796967 265.9790649
vertex -55.67646027 -25.33959198 265.9598389

endloop
endfacet
facet normal -0.2020729482 -0.3730909228 0.9055217505
outer loop
vertex -55.67646027 -25.33959198 265.9598389
vertex -55.37174225 -25.45796967 265.9790649
vertex -55.52735138 -25.24599457 266.0316772

endloop
endfacet
facet normal -0.2322135717 -0.331576854 0.9144034386
outer loop
vertex -55.67644501 -25.33960724 265.9598694
vertex -55.52735138 -25.24599457 266.0316772
vertex -55.85436249 -25.14902496 265.9837952

endloop
endfacet
facet normal -0.2470567822 -0.3965810537 0.8841302991
outer loop
vertex -55.85436249 -25.14902496 265.9837952
vertex -55.52735138 -25.24599457 266.0316772
vertex -55.7158432 -25.06339264 266.0609131

endloop
endfacet
facet normal -0.6385238767 0.5324306488 0.5557022095
outer loop
vertex -55.85436249 -25.14902496 265.9837952
vertex -55.7158432 -25.06339264 266.0609131
vertex -55.83150482 -24.86673737 265.7395935

endloop
endfacet
facet normal 0.8619479537 0.5069966912 0
outer loop
vertex -55.83150482 -24.86673737 265.7395935
vertex -55.7158432 -25.06339264 266.0609131
vertex -55.83150482 -24.86673737 265.739563

endloop
endfacet
facet normal 0.2357614934 -0.9639809728 0.1231144965
outer loop
vertex -52.4799118 -29.59024811 265.9991455
vertex -52.47988129 -29.59023285 265.9992065
vertex -52.83126068 -29.65752411 266.1452026

endloop
endfacet
facet normal 0.3494063318 -0.8126525879 0.4663807154
outer loop
vertex -52.83126068 -29.65752411 266.1452026
vertex -52.47988129 -29.59023285 265.9992065
vertex -52.78121185 -29.57465363 266.2521057

endloop
endfacet
facet normal -0.5985684395 -0.4727483392 0.6467029452
outer loop
vertex -52.83126068 -29.65752411 266.1452026
vertex -52.78121185 -29.57465363 266.2521057
vertex -53.0170517 -29.47689056 266.1052856

endloop
endfacet
facet normal -0.5987950563 -0.461838007 0.6543318033
outer loop
vertex -53.0170517 -29.47689056 266.1052856
vertex -52.78121185 -29.57465363 266.2521057
vertex -52.96738434 -29.38986969 266.2121582

endloop
endfacet
facet normal -0.6264667511 -0.4359633327 0.6461233497
outer loop
vertex -53.0170517 -29.47689056 266.1052856
vertex -52.96738434 -29.38986969 266.2121582
vertex -53.19481659 -29.29869843 266.0531616

endloop
endfacet
facet normal -0.6271696687 -0.4143843055 0.6595026851
outer loop
vertex -53.19481659 -29.29869843 266.0531616
vertex -52.96738434 -29.38986969 266.2121582
vertex -53.14080048 -29.20963287 266.1604919

endloop
endfacet
facet normal -0.6062296033 -0.434802115 0.665907383
outer loop
vertex -53.19481659 -29.29869843 266.0531616
vertex -53.14080048 -29.20963287 266.1604919
vertex -53.35440826 -29.10334015 266.0354309

endloop
endfacet
facet normal -0.5954061747 -0.3401541412 0.7278644443
outer loop
vertex -53.35440826 -29.10334015 266.0354309
vertex -53.14080048 -29.20963287 266.1604919
vertex -53.28600311 -29.01404572 266.1331177

endloop
endfacet
facet normal -0.5931952596 -0.3425785601 0.7285323143
outer loop
vertex -53.35440826 -29.10334015 266.0354309
vertex -53.28600311 -29.01404572 266.1331177
vertex -53.56565094 -28.82231903 265.995575

endloop
endfacet
facet normal -0.5590942502 -0.2478996664 0.7911759615
outer loop
vertex -53.56565094 -28.82231903 265.995575
vertex -53.28600311 -29.01404572 266.1331177
vertex -53.47931671 -28.73818207 266.0829468

endloop
endfacet
facet normal -0.5906723142 -0.20448488 0.7805716991
outer loop
vertex -53.56565094 -28.82231903 265.995575
vertex -53.47931671 -28.73818207 266.0829468
vertex -53.85825348 -28.40755463 265.8828125

endloop
endfacet
facet normal -0.5664550662 -0.1598608345 0.8084386587
outer loop
vertex -53.85825348 -28.40755463 265.8828125
vertex -53.47931671 -28.73818207 266.0829468
vertex -53.75908661 -28.33391571 265.9668579

endloop
endfacet
facet normal -0.5819197893 -0.1321800351 0.8024324179
outer loop
vertex -53.85825348 -28.40755463 265.8828125
vertex -53.75908661 -28.33391571 265.9668579
vertex -54.0993576 -27.99359894 265.7761536

endloop
endfacet
facet normal -0.563691318 -0.1044728458 0.8193519115
outer loop
vertex -54.0993576 -27.99359894 265.7761536
vertex -53.75908661 -28.33391571 265.9668579
vertex -53.99552155 -27.92223358 265.8566895

endloop
endfacet
facet normal -0.553706646 -0.1236805692 0.8234755397
outer loop
vertex -54.0993576 -27.99358368 265.7761536
vertex -53.99552155 -27.92223358 265.8566895
vertex -54.2317276 -27.69864655 265.7314453

endloop
endfacet
facet normal -0.5077489018 -0.05480386689 0.8597601652
outer loop
vertex -54.2317276 -27.69864655 265.7314453
vertex -53.99552155 -27.92223358 265.8566895
vertex -54.12085724 -27.62757111 265.8014526

endloop
endfacet
facet normal -0.4595158994 -0.1461066306 0.876069665
outer loop
vertex -54.2317276 -27.69864655 265.7314453
vertex -54.12085724 -27.62757111 265.8014526
vertex -54.31911469 -27.4512558 265.7268677

endloop
endfacet
facet normal -0.3831578791 -0.04047996178 0.9227954149
outer loop
vertex -54.31911469 -27.4512558 265.7268677
vertex -54.12085724 -27.62757111 265.8014526
vertex -54.19915009 -27.38043976 265.7797852

endloop
endfacet
facet normal -0.3238910437 -0.149086684 0.9342739582
outer loop
vertex -54.31909943 -27.45124054 265.7268982
vertex -54.19913483 -27.38043976 265.7797852
vertex -54.41683197 -27.19799042 265.733429

endloop
endfacet
facet normal -0.2531856 -0.05672332272 0.9657533169
outer loop
vertex -54.41683197 -27.19799042 265.733429
vertex -54.19913483 -27.38043976 265.7797852
vertex -54.29079437 -27.12667084 265.7706604

endloop
endfacet
facet normal -0.210735321 -0.1331417114 0.9684337378
outer loop
vertex -54.41683197 -27.19799042 265.733429
vertex -54.29079437 -27.12667084 265.7706604
vertex -54.53144073 -26.94089508 265.7438354

endloop
endfacet
facet normal -0.1601299047 -0.06520609558 0.9849399328
outer loop
vertex -54.53144073 -26.94089508 265.7438354
vertex -54.29079437 -27.12667084 265.7706604
vertex -54.40338898 -26.86768341 265.7695007

endloop
endfacet
facet normal -0.1212242991 -0.1328193545 0.9836989045
outer loop
vertex -54.53144073 -26.94089508 265.7438354
vertex -54.40338898 -26.86768341 265.7695007
vertex -54.65010834 -26.69019318 265.7630615

endloop
endfacet
facet normal -0.07491016388 -0.06803548336 0.9948666692
outer loop
vertex -54.65010834 -26.69019318 265.7630615
vertex -54.40338898 -26.86768341 265.7695007
vertex -54.52211761 -26.61379242 265.7779236

endloop
endfacet
facet normal -0.03133557364 -0.1400197744 0.9896528125
outer loop
vertex -54.65010834 -26.69019318 265.7630615
vertex -54.52211761 -26.61379242 265.7779236
vertex -54.77523041 -26.44174957 265.7942505

endloop
endfacet
facet normal 0.01220877189 -0.07665213197 0.9969831109
outer loop
vertex -54.77523041 -26.44174957 265.7942505
vertex -54.52211761 -26.61379242 265.7779236
vertex -54.64800262 -26.36234283 265.7987976

endloop
endfacet
facet normal 0.04281753674 -0.1253624558 0.9911866188
outer loop
vertex -54.77521515 -26.44173431 265.794281
vertex -54.64798737 -26.36232758 265.7988281
vertex -54.92261505 -26.18395233 265.833252

endloop
endfacet
facet normal 0.06566153467 -0.09067927301 0.9937131405
outer loop
vertex -54.92261505 -26.18395233 265.833252
vertex -54.64798737 -26.36232758 265.7988281
vertex -54.79592133 -26.1032486 265.8322449

endloop
endfacet
facet normal 0.08029576391 -0.1136960089 0.9902655482
outer loop
vertex -54.92261505 -26.18395233 265.833252
vertex -54.79592133 -26.1032486 265.8322449
vertex -55.07953644 -25.92610931 265.8755798

endloop
endfacet
facet normal 0.0916589722 -0.09572591633 0.9911786914
outer loop
vertex -55.07953644 -25.92610931 265.8755798
vertex -54.79592133 -26.1032486 265.8322449
vertex -54.95374298 -25.84389496 265.8718872

endloop
endfacet
facet normal 0.111157313 -0.1258009076 0.9858083725
outer loop
vertex -55.07953644 -25.92610931 265.8755798
vertex -54.95374298 -25.84389496 265.8718872
vertex -55.227211 -25.68376923 265.9231567

endloop
endfacet
facet normal 0.1303397715 -0.093440108 0.9870564938
outer loop
vertex -55.227211 -25.68376923 265.9231567
vertex -54.95374298 -25.84389496 265.8718872
vertex -55.10431671 -25.59745026 265.9151001

endloop
endfacet
facet normal 0.1614153683 -0.1386120915 0.9771037698
outer loop
vertex -55.227211 -25.68376923 265.9231567
vertex -55.10431671 -25.59745026 265.9151001
vertex -55.37174225 -25.45796967 265.9790649

endloop
endfacet
facet normal 0.1828875542 -0.09796500951 0.978240788
outer loop
vertex -55.37174225 -25.45796967 265.9790649
vertex -55.10431671 -25.59745026 265.9151001
vertex -55.25296783 -25.36666107 265.9660034

endloop
endfacet
facet normal 0.1877766252 -0.1045549884 0.9766311049
outer loop
vertex -55.37174225 -25.45796967 265.9790649
vertex -55.25296783 -25.36666107 265.9660034
vertex -55.52735138 -25.24599457 266.0316772

endloop
endfacet
facet normal 0.1928679496 -0.09307019413 0.976800859
outer loop
vertex -55.52735138 -25.24599457 266.0316772
vertex -55.25296783 -25.36666107 265.9660034
vertex -55.41320038 -25.15421295 266.0178833

endloop
endfacet
facet normal 0.1349618137 -0.01929697953 0.9906629324
outer loop
vertex -55.52735138 -25.24599457 266.0316772
vertex -55.41320038 -25.15421295 266.0179138
vertex -55.7158432 -25.06339264 266.0609131

endloop
endfacet
facet normal 0.1153955385 -0.08406857401 0.9897556305
outer loop
vertex -55.7158432 -25.06339264 266.0609131
vertex -55.41320038 -25.15421295 266.0179138
vertex -55.60210419 -24.97409821 266.0552368

endloop
endfacet
facet normal -0.4864693284 0.6563029289 0.5767269731
outer loop
vertex -55.7158432 -25.06339264 266.0609131
vertex -55.60210419 -24.97409821 266.0552368
vertex -55.83150482 -24.86673737 265.739563

endloop
endfacet
facet normal -0.7685791254 -0.5118038058 0.3838528693
outer loop
vertex -55.83150482 -24.86673737 265.739563
vertex -55.60210419 -24.97409821 266.0552368
vertex -55.83148956 -24.86673737 265.7395935

endloop
endfacet
facet normal 0.3003713787 0.9046961069 0.302162379
outer loop
vertex -52.47988129 -29.59023285 265.9992065
vertex -52.47989655 -29.59021759 265.999176
vertex -52.78121185 -29.57465363 266.2521057

endloop
endfacet
facet normal 0.4497903585 -0.6811000109 0.5777469277
outer loop
vertex -52.78121185 -29.57465363 266.2521057
vertex -52.47989655 -29.59021759 265.999176
vertex -52.69356537 -29.47248077 266.3043213

endloop
endfacet
facet normal -0.3584185839 -0.1623658985 0.9193332195
outer loop
vertex -52.78121185 -29.57465363 266.2521057
vertex -52.69356537 -29.47248077 266.3043213
vertex -52.96738434 -29.38986969 266.2121582

endloop
endfacet
facet normal -0.3553056419 -0.148002997 0.9229588509
outer loop
vertex -52.96738434 -29.38986969 266.2121582
vertex -52.69356537 -29.47248077 266.3043213
vertex -52.88184357 -29.28844452 266.2613525

endloop
endfacet
facet normal -0.3904553056 -0.1138000563 0.9135612845
outer loop
vertex -52.96738434 -29.38986969 266.2121582
vertex -52.88184357 -29.28844452 266.2613525
vertex -53.14080048 -29.20963287 266.1604919

endloop
endfacet
facet normal -0.3851168454 -0.08997535706 0.9184712172
outer loop
vertex -53.14080048 -29.20963287 266.1604919
vertex -52.88184357 -29.28844452 266.2613525
vertex -53.05185699 -29.10622406 266.2079163

endloop
endfacet
facet normal -0.3470473588 -0.127605781 0.9291259646
outer loop
vertex -53.14080048 -29.20963287 266.1604919
vertex -53.05185699 -29.10622406 266.2079163
vertex -53.28600311 -29.01404572 266.1331177

endloop
endfacet
facet normal -0.3123514354 -0.0227836594 0.9496933818
outer loop
vertex -53.28600311 -29.01404572 266.1331177
vertex -53.05185699 -29.10622406 266.2079163
vertex -53.19036102 -28.91197968 266.1670227

endloop
endfacet
facet normal -0.299264729 -0.03630430251 0.9534791708
outer loop
vertex -53.28600311 -29.01404572 266.1331177
vertex -53.19036102 -28.91197968 266.1670227
vertex -53.47931671 -28.73818207 266.0829468

endloop
endfacet
facet normal -0.2413427979 0.06707870215 0.968118906
outer loop
vertex -53.47931671 -28.73818207 266.0829468
vertex -53.19036102 -28.91197968 266.1670227
vertex -53.3708725 -28.64751434 266.1036987

endloop
endfacet
facet normal -0.2624702156 0.0941292569 0.9603379965
outer loop
vertex -53.47931671 -28.73818207 266.0829468
vertex -53.3708725 -28.64751434 266.1036987
vertex -53.75908661 -28.33391571 265.9668579

endloop
endfacet
facet normal -0.2218865007 0.1460018307 0.9640797973
outer loop
vertex -53.75908661 -28.33391571 265.9668579
vertex -53.3708725 -28.64751434 266.1036987
vertex -53.63547516 -28.26273346 265.9845276

endloop
endfacet
facet normal -0.2158719599 0.1348149776 0.9670698643
outer loop
vertex -53.75908661 -28.33391571 265.9668579
vertex -53.63547516 -28.26273346 265.9845276
vertex -53.99552155 -27.92223358 265.8566895

endloop
endfacet
facet normal -0.1901049465 0.1624941081 0.9682229757
outer loop
vertex -53.99552155 -27.92223358 265.8566895
vertex -53.63547516 -28.26273346 265.9845276
vertex -53.86847687 -27.8552475 265.8703918

endloop
endfacet
facet normal -0.1654026955 0.1132973135 0.9796967506
outer loop
vertex -53.99552155 -27.92223358 265.8566895
vertex -53.86847687 -27.8552475 265.8703918
vertex -54.12085724 -27.62757111 265.8014526

endloop
endfacet
facet normal -0.1053490564 0.1793899387 0.9781210423
outer loop
vertex -54.12085724 -27.62757111 265.8014526
vertex -53.86847687 -27.8552475 265.8703918
vertex -53.99332428 -27.56082916 265.802948

endloop
endfacet
facet normal -0.0492285192 0.07174751908 0.9962072372
outer loop
vertex -54.12085724 -27.62757111 265.8014526
vertex -53.99332428 -27.56082916 265.802948
vertex -54.19915009 -27.38043976 265.7797852

endloop
endfacet
facet normal 0.04233811796 0.1746229827 0.9837246537
outer loop
vertex -54.19915009 -27.38043976 265.7797852
vertex -53.99332428 -27.56082916 265.802948
vertex -54.07279205 -27.31394196 265.7625427

endloop
endfacet
facet normal 0.09802719951 0.07109906524 0.9926407337
outer loop
vertex -54.19913483 -27.38043976 265.7797852
vertex -54.07277679 -27.3139267 265.7625427
vertex -54.29079437 -27.12667084 265.7706604

endloop
endfacet
facet normal 0.1756597757 0.1624247581 0.9709592462
outer loop
vertex -54.29079437 -27.12667084 265.7706604
vertex -54.07277679 -27.3139267 265.7625427
vertex -54.1674881 -27.05971527 265.7371521

endloop
endfacet
facet normal 0.2118942291 0.09647551924 0.9725190401
outer loop
vertex -54.29079437 -27.12667084 265.7706604
vertex -54.1674881 -27.05971527 265.7371521
vertex -54.40338898 -26.86768341 265.7695007

endloop
endfacet
facet normal 0.2627625465 0.1625785977 0.9510647058
outer loop
vertex -54.40338898 -26.86768341 265.7695007
vertex -54.1674881 -27.05971527 265.7371521
vertex -54.28443146 -26.79894257 265.724884

endloop
endfacet
facet normal 0.2947366834 0.1063250303 0.9496447444
outer loop
vertex -54.40338898 -26.86768341 265.7695007
vertex -54.28443146 -26.79894257 265.724884
vertex -54.52211761 -26.61379242 265.7779236

endloop
endfacet
facet normal 0.3381189406 0.1688377857 0.9258344769
outer loop
vertex -54.52211761 -26.61379242 265.7779236
vertex -54.28443146 -26.79894257 265.724884
vertex -54.40904999 -26.54201508 265.7235413

endloop
endfacet
facet normal 0.3730659783 0.1102953777 0.9212257266
outer loop
vertex -54.52211761 -26.61379242 265.7779236
vertex -54.40904999 -26.54201508 265.7235413
vertex -54.64800262 -26.36234283 265.7987976

endloop
endfacet
facet normal 0.4113501012 0.1721662879 0.8950697184
outer loop
vertex -54.64800262 -26.36234283 265.7987976
vertex -54.40904999 -26.54201508 265.7235413
vertex -54.54129791 -26.28775787 265.7354126

endloop
endfacet
facet normal 0.4353486598 0.1337542087 0.890270412
outer loop
vertex -54.64798737 -26.36232758 265.7988281
vertex -54.54128265 -26.28774261 265.7354431
vertex -54.79592133 -26.1032486 265.8322449

endloop
endfacet
facet normal 0.4541014135 0.1676287055 0.8750386238
outer loop
vertex -54.79592133 -26.1032486 265.8322449
vertex -54.54128265 -26.28774261 265.7354431
vertex -54.69277191 -26.02742767 265.7641907

endloop
endfacet
facet normal 0.4653800726 0.1498561502 0.872332871
outer loop
vertex -54.79592133 -26.1032486 265.8322449
vertex -54.69277191 -26.02742767 265.7641907
vertex -54.95374298 -25.84389496 265.8718872

endloop
endfacet
facet normal 0.4746381044 0.1678990275 0.8640188575
outer loop
vertex -54.95374298 -25.84389496 265.8718872
vertex -54.69277191 -26.02742767 265.7641907
vertex -54.85306549 -25.76667023 265.8015747

endloop
endfacet
facet normal 0.4879280627 0.1472538263 0.8603734374
outer loop
vertex -54.95374298 -25.84389496 265.8718872
vertex -54.85306549 -25.76667023 265.8015747
vertex -55.10431671 -25.59745026 265.9151001

endloop
endfacet
facet normal 0.5023796558 0.1783128083 0.8460610509
outer loop
vertex -55.10431671 -25.59745026 265.9151001
vertex -54.85306549 -25.76667023 265.8015747
vertex -55.00913239 -25.51636505 265.8414917

endloop
endfacet
facet normal 0.5213378668 0.1505279988 0.8399691582
outer loop
vertex -55.10431671 -25.59745026 265.9151001
vertex -55.00913239 -25.51636505 265.8414917
vertex -55.25296783 -25.36666107 265.9660034

endloop
endfacet
facet normal 0.5364254713 0.1897687763 0.822335422
outer loop
vertex -55.25296783 -25.36666107 265.9660034
vertex -55.00913239 -25.51636505 265.8414917
vertex -55.16500092 -25.28087616 265.8888245

endloop
endfacet
facet normal 0.5299522877 0.1983565986 0.8245030046
outer loop
vertex -55.25296783 -25.36666107 265.9660034
vertex -55.16500092 -25.28087616 265.8888245
vertex -55.41320038 -25.15421295 266.0178833

endloop
endfacet
facet normal 0.5328711271 0.2085739523 0.8200885653
outer loop
vertex -55.41320038 -25.15421295 266.0178833
vertex -55.16500092 -25.28087616 265.8888245
vertex -55.32988739 -25.0679245 265.941803

endloop
endfacet
facet normal 0.4536224604 0.3020140529 0.8384594321
outer loop
vertex -55.41320038 -25.15421295 266.0179138
vertex -55.32990265 -25.06793976 265.9417725
vertex -55.60210419 -24.97409821 266.0552368

endloop
endfacet
facet normal 0.4427831173 0.2396971136 0.8639955521
outer loop
vertex -55.60210419 -24.97409821 266.0552368
vertex -55.32990265 -25.06793976 265.9417725
vertex -55.51215363 -24.88527679 265.9844971

endloop
endfacet
facet normal -0.3552663922 0.7754736543 0.5219448805
outer loop
vertex -55.60210419 -24.97409821 266.0552368
vertex -55.51215363 -24.88527679 265.9844971
vertex -55.83148956 -24.86673737 265.7395935

endloop
endfacet
facet normal 0 -0.9971472025 -0.07548126578
outer loop
vertex -55.83148956 -24.86673737 265.7395935
vertex -55.51215363 -24.88527679 265.9844971
vertex -55.83150482 -24.86673737 265.7395935

endloop
endfacet
facet normal -0.8191472292 0 -0.5735833049
outer loop
vertex -52.47989655 -29.59021759 265.999176
vertex -52.47989655 -29.59023285 265.999176
vertex -52.69356537 -29.47248077 266.3043213

endloop
endfacet
facet normal 0.5789709687 -0.5377166867 0.6129057407
outer loop
vertex -52.69356537 -29.47248077 266.3043213
vertex -52.47989655 -29.59023285 265.999176
vertex -52.57460785 -29.36095428 266.2897949

endloop
endfacet
facet normal -0.04853591695 0.1797428876 0.9825155139
outer loop
vertex -52.69356537 -29.47248077 266.3043213
vertex -52.57460785 -29.36095428 266.2897949
vertex -52.88184357 -29.28844452 266.2613525

endloop
endfacet
facet normal -0.05329245701 0.160779193 0.9855505228
outer loop
vertex -52.88184357 -29.28844452 266.2613525
vertex -52.57460785 -29.36095428 266.2897949
vertex -52.76537323 -29.17856598 266.2497253

endloop
endfacet
facet normal -0.09173162282 0.2004502416 0.9753999114
outer loop
vertex -52.88184357 -29.28844452 266.2613525
vertex -52.76537323 -29.17856598 266.2497253
vertex -53.05185699 -29.10622406 266.2079163

endloop
endfacet
facet normal -0.08494303375 0.2246369123 0.9707332253
outer loop
vertex -53.05185699 -29.10622406 266.2079163
vertex -52.76537323 -29.17856598 266.2497253
vertex -52.93305206 -28.99443817 266.1924438

endloop
endfacet
facet normal -0.03992412984 0.178506881 0.9831283689
outer loop
vertex -53.05185699 -29.10622406 266.2079163
vertex -52.93305206 -28.99443817 266.1924438
vertex -53.19036102 -28.91197968 266.1670227

endloop
endfacet
facet normal -0.003143188776 0.285636425 0.9583328962
outer loop
vertex -53.19036102 -28.91197968 266.1670227
vertex -52.93305206 -28.99443817 266.1924438
vertex -53.07302094 -28.8030777 266.1349487

endloop
endfacet
facet normal 0.03026803583 0.2522449195 0.9671899676
outer loop
vertex -53.19036102 -28.91197968 266.1670227
vertex -53.07302094 -28.8030777 266.1349487
vertex -53.3708725 -28.64751434 266.1036987

endloop
endfacet
facet normal 0.08888662606 0.356983304 0.9298720956
outer loop
vertex -53.3708725 -28.64751434 266.1036987
vertex -53.07302094 -28.8030777 266.1349487
vertex -53.2466507 -28.55554962 266.0565186

endloop
endfacet
facet normal 0.09288474917 0.3522984087 0.9312669635
outer loop
vertex -53.3708725 -28.64751434 266.1036987
vertex -53.2466507 -28.55554962 266.0565186
vertex -53.63547516 -28.26273346 265.9845276

endloop
endfacet
facet normal 0.1357237697 0.4027703404 0.9051823616
outer loop
vertex -53.63547516 -28.26273346 265.9845276
vertex -53.2466507 -28.55554962 266.0565186
vertex -53.49456024 -28.19808197 265.9346313

endloop
endfacet
facet normal 0.16464068 0.3522036672 0.9213283658
outer loop
vertex -53.63547516 -28.26273346 265.9845276
vertex -53.49456024 -28.19808197 265.9346313
vertex -53.86847687 -27.8552475 265.8703918

endloop
endfacet
facet normal 0.1885466874 0.3756623268 0.9073742032
outer loop
vertex -53.86847687 -27.8552475 265.8703918
vertex -53.49456024 -28.19808197 265.9346313
vertex -53.72554779 -27.79644012 265.8163452

endloop
endfacet
facet normal 0.2236451358 0.3067620397 0.9251377583
outer loop
vertex -53.86847687 -27.8552475 265.8703918
vertex -53.72554779 -27.79645538 265.8163452
vertex -53.99332428 -27.56082916 265.802948

endloop
endfacet
facet normal 0.2789201736 0.3674246073 0.887244463
outer loop
vertex -53.99332428 -27.56082916 265.802948
vertex -53.72554779 -27.79645538 265.8163452
vertex -53.85651398 -27.50226593 265.7356873

endloop
endfacet
facet normal 0.3358258009 0.2564270496 0.9063477516
outer loop
vertex -53.99332428 -27.56082916 265.802948
vertex -53.85651398 -27.50226593 265.7356873
vertex -54.07279205 -27.31394196 265.7625427

endloop
endfacet
facet normal 0.4134316742 0.3552453518 0.8383764029
outer loop
vertex -54.07279205 -27.31394196 265.7625427
vertex -53.85651398 -27.50226593 265.7356873
vertex -53.94741058 -27.2556076 265.6759949

endloop
endfacet
facet normal 0.4647845924 0.2577697933 0.8470714092
outer loop
vertex -54.07277679 -27.3139267 265.7625427
vertex -53.94739532 -27.25559235 265.6759949
vertex -54.1674881 -27.05971527 265.7371521

endloop
endfacet
facet normal 0.5238702893 0.3455511034 0.7785592675
outer loop
vertex -54.1674881 -27.05971527 265.7371521
vertex -53.94739532 -27.25559235 265.6759949
vertex -54.05405426 -27.00099945 265.6347656

endloop
endfacet
facet normal 0.5561698079 0.2861215174 0.7802625299
outer loop
vertex -54.1674881 -27.05971527 265.7371521
vertex -54.05405426 -27.00099945 265.6347656
vertex -54.28443146 -26.79894257 265.724884

endloop
endfacet
facet normal 0.5904794335 0.3486025929 0.7278806567
outer loop
vertex -54.28443146 -26.79894257 265.724884
vertex -54.05405426 -27.00099945 265.6347656
vertex -54.18151093 -26.73865509 265.6125183

endloop
endfacet
facet normal 0.6163383126 0.3027442396 0.7269614935
outer loop
vertex -54.28443146 -26.79894257 265.724884
vertex -54.18151093 -26.73865509 265.6125183
vertex -54.40904999 -26.54201508 265.7235413

endloop
endfacet
facet normal 0.6422733665 0.3616432548 0.6757950783
outer loop
vertex -54.40904999 -26.54201508 265.7235413
vertex -54.18151093 -26.73865509 265.6125183
vertex -54.31757355 -26.47910309 265.6029358

endloop
endfacet
facet normal 0.6689648628 0.3165515661 0.6725184917
outer loop
vertex -54.40904999 -26.54201508 265.7235413
vertex -54.31757355 -26.47910309 265.6029358
vertex -54.54129791 -26.28775787 265.7354126

endloop
endfacet
facet normal 0.6880702376 0.3739619851 0.621861577
outer loop
vertex -54.54129791 -26.28775787 265.7354126
vertex -54.31757355 -26.47910309 265.6029358
vertex -54.46138763 -26.2223587 265.607666

endloop
endfacet
facet normal 0.7071461678 0.3432553113 0.6181585789
outer loop
vertex -54.54128265 -26.28774261 265.7354431
vertex -54.46135712 -26.22234344 265.6076965
vertex -54.69277191 -26.02742767 265.7641907

endloop
endfacet
facet normal 0.7148969769 0.3748596311 0.5902564526
outer loop
vertex -54.69277191 -26.02742767 265.7641907
vertex -54.46135712 -26.22234344 265.6076965
vertex -54.61919403 -25.96097565 265.6328735

endloop
endfacet
facet normal 0.723895371 0.3606777787 0.5881217122
outer loop
vertex -54.69277191 -26.02742767 265.7641907
vertex -54.61919403 -25.96097565 265.6328735
vertex -54.85306549 -25.76667023 265.8015747

endloop
endfacet
facet normal 0.7271219492 0.3771345615 0.5736402869
outer loop
vertex -54.85306549 -25.76667023 265.8015747
vertex -54.61919403 -25.96097565 265.6328735
vertex -54.7833786 -25.69896698 265.6687317

endloop
endfacet
facet normal 0.7339925766 0.3664615154 0.5718049407
outer loop
vertex -54.85306549 -25.76667023 265.8015747
vertex -54.7833786 -25.69896698 265.6687317
vertex -55.00913239 -25.51636505 265.8414917

endloop
endfacet
facet normal 0.7381154895 0.3952168822 0.5467989445
outer loop
vertex -55.00913239 -25.51636505 265.8414917
vertex -54.7833786 -25.69896698 265.6687317
vertex -54.94721222 -25.44525909 265.7065125

endloop
endfacet
facet normal 0.7456803918 0.3841316998 0.5444296002
outer loop
vertex -55.00913239 -25.51636505 265.8414917
vertex -54.94721222 -25.44525909 265.7065125
vertex -55.16500092 -25.28087616 265.8888245

endloop
endfacet
facet normal 0.7476289868 0.419698745 0.5146881342
outer loop
vertex -55.16500092 -25.28087616 265.8888245
vertex -54.94721222 -25.44525909 265.7065125
vertex -55.1129837 -25.20565033 265.7519226

endloop
endfacet
facet normal 0.733299017 0.4385226965 0.5195868611
outer loop
vertex -55.16500092 -25.28087616 265.8888245
vertex -55.1129837 -25.20565033 265.7519226
vertex -55.32988739 -25.0679245 265.941803

endloop
endfacet
facet normal 0.7327793241 0.4484195113 0.5118147731
outer loop
vertex -55.32988739 -25.0679245 265.941803
vertex -55.1129837 -25.20565033 265.7519226
vertex -55.28244781 -24.99225616 265.8075867

endloop
endfacet
facet normal 0.6581338048 0.532048285 0.5327143669
outer loop
vertex -55.32990265 -25.06793976 265.9417725
vertex -55.28244781 -24.99225616 265.8075562
vertex -55.51215363 -24.88527679 265.9844971

endloop
endfacet
facet normal 0.6617506146 0.5061911345 0.5530431271
outer loop
vertex -55.51215363 -24.88527679 265.9844971
vertex -55.28244781 -24.99225616 265.8075562
vertex -55.45912933 -24.80745697 265.849823

endloop
endfacet
facet normal -0.2593744993 0.8769370914 0.4046060741
outer loop
vertex -55.51215363 -24.88527679 265.9844971
vertex -55.45912933 -24.80745697 265.849823
vertex -55.83150482 -24.86673737 265.7395935

endloop
endfacet
facet normal -nan(ind) -nan(ind) -nan(ind)
outer loop
vertex -55.83150482 -24.86673737 265.7395935
vertex -55.45912933 -24.80745697 265.849823
vertex -55.83150482 -24.86673737 265.7395935

endloop
endfacet
facet normal -nan(ind) -nan(ind) -nan(ind)
outer loop
vertex -52.47989655 -29.59023285 265.999176
vertex -52.47989655 -29.59023285 265.999176
vertex -52.57460785 -29.36095428 266.2897949

endloop
endfacet
facet normal 0.7356798649 -0.3942326605 0.5507773161
outer loop
vertex -52.57460785 -29.36095428 266.2897949
vertex -52.47989655 -29.59023285 265.999176
vertex -52.45197296 -29.27339935 266.1886597

endloop
endfacet
facet normal 0.3090910614 0.5008956194 0.8084344864
outer loop
vertex -52.57460785 -29.36095428 266.2897949
vertex -52.45197296 -29.27339935 266.1886597
vertex -52.76537323 -29.17856598 266.2497253

endloop
endfacet
facet normal 0.3024410009 0.4629930258 0.8331667781
outer loop
vertex -52.76537323 -29.17856598 266.2497253
vertex -52.45197296 -29.27339935 266.1886597
vertex -52.63872528 -29.08896637 266.1539612

endloop
endfacet
facet normal 0.2683503926 0.5004492998 0.8231272697
outer loop
vertex -52.76537323 -29.17856598 266.2497253
vertex -52.63872528 -29.08896637 266.1539612
vertex -52.93305206 -28.99443817 266.1924438

endloop
endfacet
facet normal 0.2731359303 0.5213162303 0.8084715009
outer loop
vertex -52.93305206 -28.99443817 266.1924438
vertex -52.63872528 -29.08896637 266.1539612
vertex -52.80625153 -28.90355682 266.0910034

endloop
endfacet
facet normal 0.3147938251 0.4768335521 0.8206915855
outer loop
vertex -52.93305206 -28.99443817 266.1924438
vertex -52.80625153 -28.90355682 266.0910034
vertex -53.07302094 -28.8030777 266.1349487

endloop
endfacet
facet normal 0.3382296562 0.5707463622 0.7482308149
outer loop
vertex -53.07302094 -28.8030777 266.1349487
vertex -52.80625153 -28.90355682 266.0910034
vertex -52.958992 -28.71642303 266.0173035

endloop
endfacet
facet normal 0.3925979137 0.516508162 0.760977149
outer loop
vertex -53.07302094 -28.8030777 266.1349487
vertex -52.958992 -28.71642303 266.0173035
vertex -53.2466507 -28.55554962 266.0565186

endloop
endfacet
facet normal 0.4298576713 0.6053273678 0.6699262857
outer loop
vertex -53.2466507 -28.55554962 266.0565186
vertex -52.958992 -28.71642303 266.0173035
vertex -53.13634491 -28.48885345 265.9254761

endloop
endfacet
facet normal 0.4715404809 0.559450388 0.6816632152
outer loop
vertex -53.2466507 -28.55554962 266.0565186
vertex -53.13634491 -28.48885345 265.9254761
vertex -53.49456024 -28.19808197 265.9346313

endloop
endfacet
facet normal 0.4988978505 0.5947686434 0.6303580403
outer loop
vertex -53.49456024 -28.19808197 265.9346313
vertex -53.13634491 -28.48885345 265.9254761
vertex -53.37029266 -28.16197968 265.8022156

endloop
endfacet
facet normal 0.5525470972 0.5115659237 0.6580212712
outer loop
vertex -53.49456024 -28.19808197 265.9346313
vertex -53.37029266 -28.16197968 265.8022156
vertex -53.72554779 -27.79644012 265.8163452

endloop
endfacet
facet normal 0.5677300692 0.5273217559 0.6321505308
outer loop
vertex -53.72554779 -27.79644012 265.8163452
vertex -53.37029266 -28.16197968 265.8022156
vertex -53.60187531 -27.76689911 265.6806335

endloop
endfacet
facet normal 0.609018743 0.4501624405 0.6530314088
outer loop
vertex -53.72554779 -27.79645538 265.8163452
vertex -53.60187531 -27.76689911 265.6806335
vertex -53.85651398 -27.50226593 265.7356873

endloop
endfacet
facet normal 0.6431019902 0.4977454245 0.5819529891
outer loop
vertex -53.85651398 -27.50226593 265.7356873
vertex -53.60187531 -27.76689911 265.6806335
vertex -53.74671173 -27.47283173 265.5891724

endloop
endfacet
facet normal 0.6928397417 0.4004451632 0.5996806026
outer loop
vertex -53.85651398 -27.50226593 265.7356873
vertex -53.74671173 -27.47283173 265.5891724
vertex -53.94741058 -27.2556076 265.6759949

endloop
endfacet
facet normal 0.7308488488 0.4821610451 0.4830949903
outer loop
vertex -53.94741058 -27.2556076 265.6759949
vertex -53.74671173 -27.47283173 265.5891724
vertex -53.86045074 -27.22628021 265.5151672

endloop
endfacet
facet normal 0.7722272873 0.4030516744 0.491135776
outer loop
vertex -53.94739532 -27.25559235 265.6759949
vertex -53.86043549 -27.22626495 265.5151978
vertex -54.05405426 -27.00099945 265.6347656

endloop
endfacet
facet normal 0.7909895182 0.4755186737 0.3849903345
outer loop
vertex -54.05405426 -27.00099945 265.6347656
vertex -53.86043549 -27.22626495 265.5151978
vertex -53.98841095 -26.97145844 265.4634094

endloop
endfacet
facet normal 0.8161860704 0.4293247163 0.3866789937
outer loop
vertex -54.05405426 -27.00099945 265.6347656
vertex -53.98841095 -26.97145844 265.4634094
vertex -54.18151093 -26.73865509 265.6125183

endloop
endfacet
facet normal 0.8198165894 0.4804695249 0.3115283549
outer loop
vertex -54.18151093 -26.73865509 265.6125183
vertex -53.98841095 -26.97145844 265.4634094
vertex -54.13207245 -26.70830536 265.4356079

endloop
endfacet
facet normal 0.8369513154 0.4502342045 0.311129719
outer loop
vertex -54.18151093 -26.73865509 265.6125183
vertex -54.13207245 -26.70830536 265.4356079
vertex -54.31757355 -26.47910309 265.6029358

endloop
endfacet
facet normal 0.8329701424 0.4978116751 0.2415456176
outer loop
vertex -54.31757355 -26.47910309 265.6029358
vertex -54.13207245 -26.70830536 265.4356079
vertex -54.28414154 -26.44747162 265.4224548

endloop
endfacet
facet normal 0.8488719463 0.47107324 0.2398049831
outer loop
vertex -54.31757355 -26.47910309 265.6029358
vertex -54.28414154 -26.44747162 265.4224548
vertex -54.46138763 -26.2223587 265.607666

endloop
endfacet
facet normal 0.8382463455 0.5167421103 0.1741285622
outer loop
vertex -54.46138763 -26.2223587 265.607666
vertex -54.28414154 -26.44747162 265.4224548
vertex -54.44365692 -26.18949127 265.4247742

endloop
endfacet
facet normal 0.850535512 0.4970844984 0.1717449576
outer loop
vertex -54.46135712 -26.22234344 265.6076965
vertex -54.44364166 -26.18947601 265.4248352
vertex -54.61919403 -25.96097565 265.6328735

endloop
endfacet
facet normal 0.8418798447 0.5219527483 0.1371265948
outer loop
vertex -54.61919403 -25.96097565 265.6328735
vertex -54.44364166 -26.18947601 265.4248352
vertex -54.60999298 -25.9275589 265.4491882

endloop
endfacet
facet normal 0.8477842212 0.5126771927 0.1357349157
outer loop
vertex -54.61919403 -25.96097565 265.6328735
vertex -54.60999298 -25.9275589 265.4491882
vertex -54.7833786 -25.69896698 265.6687317

endloop
endfacet
facet normal 0.8423333168 0.525973618 0.1175856814
outer loop
vertex -54.7833786 -25.69896698 265.6687317
vertex -54.60999298 -25.9275589 265.4491882
vertex -54.77895355 -25.66495514 265.4848938

endloop
endfacet
facet normal 0.8421272635 0.5262913108 0.1176394597
outer loop
vertex -54.7833786 -25.69896698 265.6687317
vertex -54.77895355 -25.66495514 265.4848938
vertex -54.94721222 -25.44525909 265.7065125

endloop
endfacet
facet normal 0.8313649297 0.5488593578 0.08709616959
outer loop
vertex -54.94721222 -25.44525909 265.7065125
vertex -54.77895355 -25.66495514 265.4848938
vertex -54.95156097 -25.40953827 265.5229187

endloop
endfacet
facet normal 0.8269128799 0.555328548 0.08846027404
outer loop
vertex -54.94721222 -25.44525909 265.7065125
vertex -54.95156097 -25.40953827 265.5229187
vertex -55.1129837 -25.20565033 265.7519226

endloop
endfacet
facet normal 0.8111922145 0.5823429823 0.05332730711
outer loop
vertex -55.1129837 -25.20565033 265.7519226
vertex -54.95156097 -25.40953827 265.5229187
vertex -55.12813568 -25.16782379 265.5693359

endloop
endfacet
facet normal 0.7893382311 0.6109147668 0.06106007844
outer loop
vertex -55.1129837 -25.20565033 265.7519226
vertex -55.12813568 -25.16782379 265.5693359
vertex -55.28244781 -24.99225616 265.8075867

endloop
endfacet
facet normal 0.7837977409 0.6188677549 0.05161099508
outer loop
vertex -55.28244781 -24.99225616 265.8075867
vertex -55.12813568 -25.16782379 265.5693359
vertex -55.30072784 -24.95424652 265.629425

endloop
endfacet
facet normal 0.729008317 0.6808679104 0.07046786696
outer loop
vertex -55.28244781 -24.99225616 265.8075562
vertex -55.3007431 -24.95423126 265.629425
vertex -55.45912933 -24.80745697 265.849823

endloop
endfacet
facet normal 0.734139502 0.6744542122 0.07842656225
outer loop
vertex -55.45912933 -24.80745697 265.849823
vertex -55.3007431 -24.95423126 265.629425
vertex -55.47426605 -24.77031708 265.6721191

endloop
endfacet
facet normal -0.21587798 0.9519244432 0.2173394263
outer loop
vertex -55.45912933 -24.80745697 265.849823
vertex -55.47426605 -24.77031708 265.6721191
vertex -55.83150482 -24.86673737 265.7395935

endloop
endfacet
facet normal 0.1856265813 0 0.9826202989
outer loop
vertex -55.83150482 -24.86673737 265.7395935
vertex -55.47426605 -24.77031708 265.6721191
vertex -55.83150482 -24.86672211 265.7395935

endloop
endfacet
facet normal 0.9893152714 0 -0.1457921565
outer loop
vertex -52.47989655 -29.59023285 265.999176
vertex -52.47989655 -29.59021759 265.999176
vertex -52.45197296 -29.27339935 266.1886597

endloop
endfacet
facet normal 0.8648149967 -0.3116600811 0.3936533034
outer loop
vertex -52.45197296 -29.27339935 266.1886597
vertex -52.47989655 -29.59021759 265.999176
vertex -52.36672211 -29.24182892 266.0263672

endloop
endfacet
facet normal 0.5879405737 0.6782610416 0.4407809675
outer loop
vertex -52.45197296 -29.27339935 266.1886597
vertex -52.36672211 -29.24182892 266.0263672
vertex -52.63872528 -29.08896637 266.1539612

endloop
endfacet
facet normal 0.5905310512 0.6338188052 0.4995467067
outer loop
vertex -52.63872528 -29.08896637 266.1539612
vertex -52.36672211 -29.24182892 266.0263672
vertex -52.54265594 -29.05239105 265.993988

endloop
endfacet
facet normal 0.5583765507 0.6704313755 0.4886076748
outer loop
vertex -52.63872528 -29.08896637 266.1539612
vertex -52.54265594 -29.05239105 265.993988
vertex -52.80625153 -28.90355682 266.0910034

endloop
endfacet
facet normal 0.5588166714 0.6852148175 0.4671237767
outer loop
vertex -52.80625153 -28.90355682 266.0910034
vertex -52.54265594 -29.05239105 265.993988
vertex -52.71248627 -28.86682892 265.9249573

endloop
endfacet
facet normal 0.5811576843 0.661192596 0.4744260609
outer loop
vertex -52.80625153 -28.90355682 266.0910034
vertex -52.71248627 -28.86682892 265.9249573
vertex -52.958992 -28.71642303 266.0173035

endloop
endfacet
facet normal 0.5809966922 0.7244409323 0.3709826767
outer loop
vertex -52.958992 -28.71642303 266.0173035
vertex -52.71248627 -28.86682892 265.9249573
vertex -52.88669586 -28.68405914 265.8408813

endloop
endfacet
facet normal 0.6458781362 0.6589311957 0.3855529726
outer loop
vertex -52.958992 -28.71642303 266.0173035
vertex -52.88669586 -28.68405914 265.8408813
vertex -53.13634491 -28.48885345 265.9254761

endloop
endfacet
facet normal 0.6480653286 0.714122653 0.2646511197
outer loop
vertex -53.13634491 -28.48885345 265.9254761
vertex -52.88669586 -28.68405914 265.8408813
vertex -53.07857513 -28.47327423 265.7419739

endloop
endfacet
facet normal 0.7266948819 0.6264288425 0.2819599807
outer loop
vertex -53.13634491 -28.48885345 265.9254761
vertex -53.07857513 -28.47327423 265.7419739
vertex -53.37029266 -28.16197968 265.8022156

endloop
endfacet
facet normal 0.7322586179 0.6425186992 0.2257588208
outer loop
vertex -53.37029266 -28.16197968 265.8022156
vertex -53.07857513 -28.47327423 265.7419739
vertex -53.30641937 -28.17055511 265.6194458

endloop
endfacet
facet normal 0.7985012531 0.5460461378 0.2534353435
outer loop
vertex -53.37029266 -28.16197968 265.8022156
vertex -53.30641937 -28.17055511 265.6194458
vertex -53.60187531 -27.76689911 265.6806335

endloop
endfacet
facet normal 0.8024392128 0.5535673499 0.2228332907
outer loop
vertex -53.60187531 -27.76689911 265.6806335
vertex -53.30641937 -28.17055511 265.6194458
vertex -53.54135895 -27.78057098 265.4966736

endloop
endfacet
facet normal 0.8392870426 0.487952441 0.2397909164
outer loop
vertex -53.60187531 -27.76689911 265.6806335
vertex -53.54135895 -27.78058624 265.4966736
vertex -53.74671173 -27.47283173 265.5891724

endloop
endfacet
facet normal 0.8426423669 0.5164393187 0.1524607837
outer loop
vertex -53.74671173 -27.47283173 265.5891724
vertex -53.54135895 -27.78058624 265.4966736
vertex -53.7042923 -27.48645782 265.4008789

endloop
endfacet
facet normal 0.8759519458 0.4534765184 0.1645212024
outer loop
vertex -53.74671173 -27.47283173 265.5891724
vertex -53.7042923 -27.48645782 265.4008789
vertex -53.86045074 -27.22628021 265.5151672

endloop
endfacet
facet normal 0.8624306321 0.505410254 0.02781910449
outer loop
vertex -53.86045074 -27.22628021 265.5151672
vertex -53.7042923 -27.48645782 265.4008789
vertex -53.84629059 -27.23986053 265.3229065

endloop
endfacet
facet normal 0.8903737068 0.4539957643 0.0335034579
outer loop
vertex -53.86043549 -27.22626495 265.5151978
vertex -53.84627533 -27.23984528 265.3229065
vertex -53.98841095 -26.97145844 265.4634094

endloop
endfacet
facet normal 0.8619227409 0.5001323819 -0.0834076032
outer loop
vertex -53.98841095 -26.97145844 265.4634094
vertex -53.84627533 -27.23984528 265.3229065
vertex -53.9991684 -26.98514557 265.2701721

endloop
endfacet
facet normal 0.8783774972 0.4708377123 -0.08224870265
outer loop
vertex -53.98841095 -26.97145844 265.4634094
vertex -53.9991684 -26.98514557 265.2701721
vertex -54.13207245 -26.70830536 265.4356079

endloop
endfacet
facet normal 0.8485965133 0.5038267374 -0.1613773704
outer loop
vertex -54.13207245 -26.70830536 265.4356079
vertex -53.9991684 -26.98514557 265.2701721
vertex -54.16020966 -26.7223587 265.2437744

endloop
endfacet
facet normal 0.8560772538 0.4909574091 -0.1615318507
outer loop
vertex -54.13207245 -26.70830536 265.4356079
vertex -54.16020966 -26.7223587 265.2437744
vertex -54.28414154 -26.44747162 265.4224548

endloop
endfacet
facet normal 0.8213471174 0.5211130977 -0.2320128828
outer loop
vertex -54.28414154 -26.44747162 265.4224548
vertex -54.16020966 -26.7223587 265.2437744
vertex -54.32820892 -26.46212006 265.233551

endloop
endfacet
facet normal 0.8262887001 0.5130045414 -0.2325368375
outer loop
vertex -54.28414154 -26.44747162 265.4224548
vertex -54.32820892 -26.46212006 265.233551
vertex -54.44365692 -26.18949127 265.4247742

endloop
endfacet
facet normal 0.786855638 0.5412120819 -0.2965597212
outer loop
vertex -54.44365692 -26.18949127 265.4247742
vertex -54.32820892 -26.46212006 265.233551
vertex -54.5029068 -26.20471954 265.2397766

endloop
endfacet
facet normal 0.7930911183 0.5313957334 -0.2976996303
outer loop
vertex -54.44364166 -26.18947601 265.4248352
vertex -54.50289154 -26.20470428 265.2398071
vertex -54.60999298 -25.9275589 265.4491882

endloop
endfacet
facet normal 0.7690060735 0.5470383167 -0.3307246268
outer loop
vertex -54.60999298 -25.9275589 265.4491882
vertex -54.50289154 -26.20470428 265.2398071
vertex -54.67742157 -25.94304657 265.2667847

endloop
endfacet
facet normal 0.7722666264 0.5419532061 -0.3314981163
outer loop
vertex -54.60999298 -25.9275589 265.4491882
vertex -54.67742157 -25.94304657 265.2667847
vertex -54.77895355 -25.66495514 265.4848938

endloop
endfacet
facet normal 0.7588561177 0.550268054 -0.3483423591
outer loop
vertex -54.77895355 -25.66495514 265.4848938
vertex -54.67742157 -25.94304657 265.2667847
vertex -54.85057831 -25.68070221 265.3039856

endloop
endfacet
facet normal 0.7524223924 0.5600844026 -0.346649617
outer loop
vertex -54.77895355 -25.66495514 265.4848938
vertex -54.85057831 -25.68070221 265.3039856
vertex -54.95156097 -25.40953827 265.5229187

endloop
endfacet
facet normal 0.7282691002 0.5737609863 -0.3747296929
outer loop
vertex -54.95156097 -25.40953827 265.5229187
vertex -54.85057831 -25.68070221 265.3039856
vertex -55.030159 -25.42609406 265.3448181

endloop
endfacet
facet normal 0.714680016 0.593237102 -0.3705430925
outer loop
vertex -54.95156097 -25.40953827 265.5229187
vertex -55.030159 -25.42609406 265.3448181
vertex -55.12813568 -25.16782379 265.5693359

endloop
endfacet
facet normal 0.6835118532 0.6090483665 -0.4023327231
outer loop
vertex -55.12813568 -25.16782379 265.5693359
vertex -55.030159 -25.42609406 265.3448181
vertex -55.21500397 -25.18532562 265.3952637

endloop
endfacet
facet normal 0.658033967 0.6423169971 -0.3929632604
outer loop
vertex -55.12813568 -25.16782379 265.5693359
vertex -55.21500397 -25.18532562 265.3952637
vertex -55.30072784 -24.95424652 265.629425

endloop
endfacet
facet normal 0.6474635601 0.6474869251 -0.4019348025
outer loop
vertex -55.30072784 -24.95424652 265.629425
vertex -55.21500397 -25.18532562 265.3952637
vertex -55.38800812 -24.97190094 265.4603882

endloop
endfacet
facet normal 0.6219797134 0.677840054 -0.3920128644
outer loop
vertex -55.3007431 -24.95423126 265.629425
vertex -55.38800812 -24.9719162 265.4603882
vertex -55.47426605 -24.77031708 265.6721191

endloop
endfacet
facet normal 0.6126508713 0.6818661094 -0.3996468484
outer loop
vertex -55.47426605 -24.77031708 265.6721191
vertex -55.38800812 -24.9719162 265.4603882
vertex -55.55939484 -24.79059601 265.507019

endloop
endfacet
facet normal -0.2579845786 0.9660422206 0.01436467282
outer loop
vertex -55.47426605 -24.77031708 265.6721191
vertex -55.55939484 -24.79059601 265.507019
vertex -55.83150482 -24.86672211 265.7395935

endloop
endfacet
facet normal -nan(ind) -nan(ind) -nan(ind)
outer loop
vertex -55.83150482 -24.86672211 265.7395935
vertex -55.55939484 -24.79059601 265.507019
vertex -55.83150482 -24.86672211 265.7395935

endloop
endfacet
facet normal -0.233610943 0 0.972330153
outer loop
vertex -52.47989655 -29.59021759 265.999176
vertex -52.47989655 -29.59023285 265.999176
vertex -52.36672211 -29.24182892 266.0263672

endloop
endfacet
facet normal 0.932684958 -0.3164752126 0.1730381846
outer loop
vertex -52.36672211 -29.24182892 266.0263672
vertex -52.47989655 -29.59023285 265.999176
vertex -52.34816742 -29.27468109 265.866272

endloop
endfacet
facet normal 0.73621732 0.674657464 -0.05311640352
outer loop
vertex -52.36672211 -29.24182892 266.0263672
vertex -52.34816742 -29.27468109 265.866272
vertex -52.54265594 -29.05239105 265.993988

endloop
endfacet
facet normal 0.759072721 0.6505779624 0.02359867282
outer loop
vertex -52.54265594 -29.05239105 265.993988
vertex -52.34816742 -29.27468109 265.866272
vertex -52.51268768 -29.08145905 265.8313904

endloop
endfacet
facet normal 0.734962523 0.6779578328 0.01426019054
outer loop
vertex -52.54265594 -29.05239105 265.993988
vertex -52.51268768 -29.08145905 265.8313904
vertex -52.71248627 -28.86682892 265.9249573

endloop
endfacet
facet normal 0.7297862768 0.6836057901 -0.009748590179
outer loop
vertex -52.71248627 -28.86682892 265.9249573
vertex -52.51268768 -29.08145905 265.8313904
vertex -52.68645477 -28.89699554 265.7583008

endloop
endfacet
facet normal 0.7263227105 0.6872665882 -0.01095217653
outer loop
vertex -52.71248627 -28.86682892 265.9249573
vertex -52.68645477 -28.89699554 265.7583008
vertex -52.88669586 -28.68405914 265.8408813

endloop
endfacet
facet normal 0.6991679668 0.7045718431 -0.1214189529
outer loop
vertex -52.88669586 -28.68405914 265.8408813
vertex -52.68645477 -28.89699554 265.7583008
vertex -52.88248444 -28.71707916 265.6735229

endloop
endfacet
facet normal 0.7597846985 0.6412431002 -0.1073987633
outer loop
vertex -52.88669586 -28.68405914 265.8408813
vertex -52.88248444 -28.71707916 265.6735229
vertex -53.07857513 -28.47327423 265.7419739

endloop
endfacet
facet normal 0.7271168232 0.6482585669 -0.2259689569
outer loop
vertex -53.07857513 -28.47327423 265.7419739
vertex -52.88248444 -28.71707916 265.6735229
vertex -53.09406281 -28.51363373 265.576355

endloop
endfacet
facet normal 0.8200963736 0.5335817933 -0.2067184001
outer loop
vertex -53.07857513 -28.47327423 265.7419739
vertex -53.09406281 -28.51363373 265.576355
vertex -53.30641937 -28.17055511 265.6194458

endloop
endfacet
facet normal 0.8073833585 0.5318394303 -0.2554973364
outer loop
vertex -53.30641937 -28.17055511 265.6194458
vertex -53.09406281 -28.51363373 265.576355
vertex -53.32572174 -28.2196579 265.4562378

endloop
endfacet
facet normal 0.8634098172 0.4457784593 -0.2362311631
outer loop
vertex -53.30641937 -28.17055511 265.6194458
vertex -53.32572174 -28.2196579 265.4562378
vertex -53.54135895 -27.78057098 265.4966736

endloop
endfacet
facet normal 0.8549217582 0.4444867074 -0.2674701512
outer loop
vertex -53.54135895 -27.78057098 265.4966736
vertex -53.32572174 -28.2196579 265.4562378
vertex -53.56554413 -27.8314743 265.3347778

endloop
endfacet
facet normal 0.8783205748 0.4025637209 -0.2578670084
outer loop
vertex -53.54135895 -27.78058624 265.4966736
vertex -53.56555939 -27.83148956 265.3347778
vertex -53.7042923 -27.48645782 265.4008789

endloop
endfacet
facet normal 0.8474442363 0.4062261581 -0.3417874873
outer loop
vertex -53.7042923 -27.48645782 265.4008789
vertex -53.56555939 -27.83148956 265.3347778
vertex -53.7438736 -27.53714752 265.2424927

endloop
endfacet
facet normal 0.8578051925 0.3870059848 -0.3382254839
outer loop
vertex -53.7042923 -27.48645782 265.4008789
vertex -53.7438736 -27.53714752 265.2424927
vertex -53.84629059 -27.23986053 265.3229065

endloop
endfacet
facet normal 0.7924131751 0.3980213702 -0.46223405
outer loop
vertex -53.84629059 -27.23986053 265.3229065
vertex -53.7438736 -27.53714752 265.2424927
vertex -53.90879059 -27.29036713 265.1722717

endloop
endfacet
facet normal 0.7997584343 0.3846589327 -0.4608947933
outer loop
vertex -53.84627533 -27.23984528 265.3229065
vertex -53.90877533 -27.29035187 265.1723022
vertex -53.9991684 -26.98514557 265.2701721

endloop
endfacet
facet normal 0.7281821966 0.3952251077 -0.5599534512
outer loop
vertex -53.9991684 -26.98514557 265.2701721
vertex -53.90877533 -27.29035187 265.1723022
vertex -54.08069611 -27.03598785 265.1282654

endloop
endfacet
facet normal 0.730371356 0.3913509548 -0.5598231554
outer loop
vertex -53.9991684 -26.98514557 265.2701721
vertex -54.08069611 -27.03598785 265.1282654
vertex -54.16020966 -26.7223587 265.2437744

endloop
endfacet
facet normal 0.6715223193 0.3999783993 -0.6237587333
outer loop
vertex -54.16020966 -26.7223587 265.2437744
vertex -54.08069611 -27.03598785 265.1282654
vertex -54.25373077 -26.77455902 265.1096191

endloop
endfacet
facet normal 0.6676888466 0.406532824 -0.623636663
outer loop
vertex -54.16020966 -26.7223587 265.2437744
vertex -54.25373077 -26.77455902 265.1096191
vertex -54.32820892 -26.46212006 265.233551

endloop
endfacet
facet normal 0.6076539755 0.4137512445 -0.6779133677
outer loop
vertex -54.32820892 -26.46212006 265.233551
vertex -54.25373077 -26.77455902 265.1096191
vertex -54.43160248 -26.51657867 265.1076355

endloop
endfacet
facet normal 0.6011387706 0.4243712127 -0.6771566868
outer loop
vertex -54.32820892 -26.46212006 265.233551
vertex -54.43160248 -26.51657867 265.1076355
vertex -54.5029068 -26.20471954 265.2397766

endloop
endfacet
facet normal 0.5397076607 0.4300546348 -0.7237186432
outer loop
vertex -54.5029068 -26.20471954 265.2397766
vertex -54.43160248 -26.51657867 265.1076355
vertex -54.61522675 -26.26132965 265.1223755

endloop
endfacet
facet normal 0.5376954079 0.4332281351 -0.7233236432
outer loop
vertex -54.50289154 -26.20470428 265.2398071
vertex -54.61521149 -26.26131439 265.122406
vertex -54.67742157 -25.94304657 265.2667847

endloop
endfacet
facet normal 0.502515614 0.4367127717 -0.7461634874
outer loop
vertex -54.67742157 -25.94304657 265.2667847
vertex -54.61521149 -26.26131439 265.122406
vertex -54.79450226 -26.0005722 265.1542664

endloop
endfacet
facet normal 0.5021730661 0.4372479618 -0.7460806966
outer loop
vertex -54.67742157 -25.94304657 265.2667847
vertex -54.79450226 -26.0005722 265.1542664
vertex -54.85057831 -25.68070221 265.3039856

endloop
endfacet
facet normal 0.4832213521 0.4392054379 -0.7573609948
outer loop
vertex -54.85057831 -25.68070221 265.3039856
vertex -54.79450226 -26.0005722 265.1542664
vertex -54.96970367 -25.73929596 265.1940002

endloop
endfacet
facet normal 0.4730753899 0.4546921551 -0.7546222806
outer loop
vertex -54.85057831 -25.68070221 265.3039856
vertex -54.96970367 -25.73929596 265.1940002
vertex -55.030159 -25.42609406 265.3448181

endloop
endfacet
facet normal 0.4397212863 0.4571454227 -0.7730868459
outer loop
vertex -55.030159 -25.42609406 265.3448181
vertex -54.96970367 -25.73929596 265.1940002
vertex -55.15189362 -25.48761749 265.2391968

endloop
endfacet
facet normal 0.4210196733 0.4839621186 -0.7671525478
outer loop
vertex -55.030159 -25.42609406 265.3448181
vertex -55.15189362 -25.48761749 265.2391968
vertex -55.21500397 -25.18532562 265.3952637

endloop
endfacet
facet normal 0.3794088066 0.4857576191 -0.7874569297
outer loop
vertex -55.21500397 -25.18532562 265.3952637
vertex -55.15189362 -25.48761749 265.2391968
vertex -55.33943939 -25.25045013 265.2951355

endloop
endfacet
facet normal 0.3517997265 0.5222250223 -0.776864171
outer loop
vertex -55.21500397 -25.18532562 265.3952637
vertex -55.33943939 -25.25045013 265.2951355
vertex -55.38800812 -24.97190094 265.4603882

endloop
endfacet
facet normal 0.3380310237 0.5230929255 -0.7823738456
outer loop
vertex -55.38800812 -24.97190094 265.4603882
vertex -55.33943939 -25.25045013 265.2951355
vertex -55.50991058 -25.03740692 265.3639221

endloop
endfacet
facet normal 0.3390900195 0.5218202472 -0.7827653289
outer loop
vertex -55.38800812 -24.9719162 265.4603882
vertex -55.50991058 -25.03740692 265.3639221
vertex -55.55939484 -24.79059601 265.507019

endloop
endfacet
facet normal 0.3176074922 0.5224624276 -0.7913018465
outer loop
vertex -55.55939484 -24.79059601 265.507019
vertex -55.50991058 -25.03740692 265.3639221
vertex -55.67910004 -24.8575058 265.4147949

endloop
endfacet
facet normal -0.3875762522 0.9085279703 -0.1560819596
outer loop
vertex -55.55939484 -24.79059601 265.507019
vertex -55.67910004 -24.8575058 265.4147949
vertex -55.83150482 -24.86672211 265.7395935

endloop
endfacet
facet normal -0.9052923918 0 -0.4247890711
outer loop
vertex -55.83150482 -24.86672211 265.7395935
vertex -55.67910004 -24.8575058 265.4147949
vertex -55.83150482 -24.86673737 265.7395935

endloop
endfacet
facet normal 0 -0.3881565928 -0.9215934277
outer loop
vertex -52.47989655 -29.59023285 265.999176
vertex -52.4799118 -29.59023285 265.999176
vertex -52.34816742 -29.27468109 265.866272

endloop
endfacet
facet normal 0.9195073247 -0.3925372362 -0.0205102209
outer loop
vertex -52.34816742 -29.27468109 265.866272
vertex -52.4799118 -29.59023285 265.999176
vertex -52.38147736 -29.34629059 265.7434387

endloop
endfacet
facet normal 0.7054339051 0.5122058392 -0.4899061024
outer loop
vertex -52.34816742 -29.27468109 265.866272
vertex -52.38147736 -29.34629059 265.7434387
vertex -52.51268768 -29.08145905 265.8313904

endloop
endfacet
facet normal 0.7565381527 0.510541141 -0.4086537063
outer loop
vertex -52.51268768 -29.08145905 265.8313904
vertex -52.38147736 -29.34629059 265.7434387
vertex -52.5359726 -29.15091705 265.7015076

endloop
endfacet
facet normal 0.7383780479 0.5306673646 -0.4161610603
outer loop
vertex -52.51268768 -29.08145905 265.8313904
vertex -52.5359726 -29.15091705 265.7015076
vertex -52.68645477 -28.89699554 265.7583008

endloop
endfacet
facet normal 0.7273415923 0.5288660526 -0.4373500347
outer loop
vertex -52.68645477 -28.89699554 265.7583008
vertex -52.5359726 -29.15091705 265.7015076
vertex -52.71395111 -28.9681778 265.6264954

endloop
endfacet
facet normal 0.7021991611 0.5548618436 -0.4461441934
outer loop
vertex -52.68645477 -28.89699554 265.7583008
vertex -52.71395111 -28.9681778 265.6264954
vertex -52.88248444 -28.71707916 265.6735229

endloop
endfacet
facet normal 0.6475219727 0.5360475779 -0.5416348577
outer loop
vertex -52.88248444 -28.71707916 265.6735229
vertex -52.71395111 -28.9681778 265.6264954
vertex -52.92751312 -28.78942108 265.5480957

endloop
endfacet
facet normal 0.7020720243 0.4780655801 -0.5277765989
outer loop
vertex -52.88248444 -28.71707916 265.6735229
vertex -52.92751312 -28.78942108 265.5480957
vertex -53.09406281 -28.51363373 265.576355

endloop
endfacet
facet normal 0.6403669119 0.4504667521 -0.6221013069
outer loop
vertex -53.09406281 -28.51363373 265.576355
vertex -52.92751312 -28.78942108 265.5480957
vertex -53.15822601 -28.58506012 265.4585876

endloop
endfacet
facet normal 0.7298811674 0.3307209909 -0.5982450843
outer loop
vertex -53.09406281 -28.51363373 265.576355
vertex -53.15822601 -28.58506012 265.4585876
vertex -53.32572174 -28.2196579 265.4562378

endloop
endfacet
facet normal 0.7002011538 0.3168489337 -0.6397852302
outer loop
vertex -53.32572174 -28.2196579 265.4562378
vertex -53.15822601 -28.58506012 265.4585876
vertex -53.39997101 -28.28702545 265.3416138

endloop
endfacet
facet normal 0.7348166108 0.2576590478 -0.627420485
outer loop
vertex -53.32572174 -28.2196579 265.4562378
vertex -53.39997101 -28.28702545 265.3416138
vertex -53.56554413 -27.8314743 265.3347778

endloop
endfacet
facet normal 0.7140827775 0.2497242391 -0.6540058255
outer loop
vertex -53.56554413 -27.8314743 265.3347778
vertex -53.39997101 -28.28702545 265.3416138
vertex -53.64469147 -27.89791107 265.2229919

endloop
endfacet
facet normal 0.7226669192 0.2338665724 -0.6504298449
outer loop
vertex -53.56555939 -27.83148956 265.3347778
vertex -53.64467621 -27.89791107 265.2229919
vertex -53.7438736 -27.53714752 265.2424927

endloop
endfacet
facet normal 0.6635322571 0.2210825831 -0.7147359252
outer loop
vertex -53.7438736 -27.53714752 265.2424927
vertex -53.64467621 -27.89791107 265.2229919
vertex -53.83322906 -27.60332489 265.1390686

endloop
endfacet
facet normal 0.6563104987 0.2345431447 -0.7171095014
outer loop
vertex -53.7438736 -27.53714752 265.2424927
vertex -53.83322906 -27.60332489 265.1390686
vertex -53.90879059 -27.29036713 265.1722717

endloop
endfacet
facet normal 0.5521337986 0.2186694145 -0.8045694828
outer loop
vertex -53.90879059 -27.29036713 265.1722717
vertex -53.83322906 -27.60332489 265.1390686
vertex -54.01239777 -27.35630035 265.083252

endloop
endfacet
facet normal 0.5461577177 0.2296730876 -0.8055817485
outer loop
vertex -53.90877533 -27.29035187 265.1723022
vertex -54.01239777 -27.3562851 265.083252
vertex -54.08069611 -27.03598785 265.1282654

endloop
endfacet
facet normal 0.4450020194 0.2169936448 -0.8688422441
outer loop
vertex -54.08069611 -27.03598785 265.1282654
vertex -54.01239777 -27.3562851 265.083252
vertex -54.19513702 -27.10237885 265.0530701

endloop
endfacet
facet normal 0.4386394918 0.2283338904 -0.8691715002
outer loop
vertex -54.08069611 -27.03598785 265.1282654
vertex -54.19513702 -27.10237885 265.0530701
vertex -54.25373077 -26.77455902 265.1096191

endloop
endfacet
facet normal 0.3621610999 0.2209400088 -0.9055522084
outer loop
vertex -54.25373077 -26.77455902 265.1096191
vertex -54.19513702 -27.10237885 265.0530701
vertex -54.37375641 -26.84273529 265.0449829

endloop
endfacet
facet normal 0.3531219959 0.2365096509 -0.9051895142
outer loop
vertex -54.25373077 -26.77455902 265.1096191
vertex -54.37375641 -26.84273529 265.0449829
vertex -54.43160248 -26.51657867 265.1076355

endloop
endfacet
facet normal 0.2794033289 0.2286894172 -0.9325422049
outer loop
vertex -54.43160248 -26.51657867 265.1076355
vertex -54.37375641 -26.84273529 265.0449829
vertex -54.5550766 -26.58773041 265.0531921

endloop
endfacet
facet normal 0.268348366 0.2468202859 -0.9311653376
outer loop
vertex -54.43160248 -26.51657867 265.1076355
vertex -54.5550766 -26.58773041 265.0531921
vertex -54.61522675 -26.26132965 265.1223755

endloop
endfacet
facet normal 0.1956602037 0.2377189696 -0.9514235258
outer loop
vertex -54.61522675 -26.26132965 265.1223755
vertex -54.5550766 -26.58773041 265.0531921
vertex -54.74134064 -26.33524323 265.0779724

endloop
endfacet
facet normal 0.1899692118 0.2467416376 -0.950279057
outer loop
vertex -54.61521149 -26.26131439 265.122406
vertex -54.74132538 -26.33522797 265.0780029
vertex -54.79450226 -26.0005722 265.1542664

endloop
endfacet
facet normal 0.1498593241 0.2422572076 -0.9585685134
outer loop
vertex -54.79450226 -26.0005722 265.1542664
vertex -54.74132538 -26.33522797 265.0780029
vertex -54.92192841 -26.07570648 265.1153564

endloop
endfacet
facet normal 0.1480994821 0.2450198233 -0.9581397772
outer loop
vertex -54.79450226 -26.0005722 265.1542664
vertex -54.92192841 -26.07570648 265.1153564
vertex -54.96970367 -25.73929596 265.1940002

endloop
endfacet
facet normal 0.1267779619 0.2428352535 -0.9617475867
outer loop
vertex -54.96970367 -25.73929596 265.1940002
vertex -54.92192841 -26.07570648 265.1153564
vertex -55.09720612 -25.81583405 265.1578674

endloop
endfacet
facet normal 0.1174051687 0.2572411001 -0.9591887593
outer loop
vertex -54.96970367 -25.73929596 265.1940002
vertex -55.09720612 -25.81583405 265.1578674
vertex -55.15189362 -25.48761749 265.2391968

endloop
endfacet
facet normal 0.08110458404 0.2524365187 -0.9642083645
outer loop
vertex -55.15189362 -25.48761749 265.2391968
vertex -55.09720612 -25.81583405 265.1578674
vertex -55.2783432 -25.56798553 265.2075195

endloop
endfacet
facet normal 0.06419271231 0.2768952549 -0.9587535262
outer loop
vertex -55.15189362 -25.48761749 265.2391968
vertex -55.2783432 -25.56798553 265.2075195
vertex -55.33943939 -25.25045013 265.2951355

endloop
endfacet
facet normal 0.02004649304 0.2695143223 -0.9627877474
outer loop
vertex -55.33943939 -25.25045013 265.2951355
vertex -55.2783432 -25.56798553 265.2075195
vertex -55.46398163 -25.33548737 265.2687378

endloop
endfacet
facet normal -0.005238503218 0.303455025 -0.9528313875
outer loop
vertex -55.33943939 -25.25045013 265.2951355
vertex -55.46398163 -25.33548737 265.2687378
vertex -55.50991058 -25.03740692 265.3639221

endloop
endfacet
facet normal -0.02058410086 0.3012477756 -0.9533237219
outer loop
vertex -55.50991058 -25.03740692 265.3639221
vertex -55.46398163 -25.33548737 265.2687378
vertex -55.6304245 -25.12290192 265.3395081

endloop
endfacet
facet normal 0.001137772808 0.2731019258 -0.961984396
outer loop
vertex -55.50991058 -25.03740692 265.3639221
vertex -55.63040924 -25.12290192 265.3395081
vertex -55.67910004 -24.8575058 265.4147949

endloop
endfacet
facet normal -0.03407154605 0.2669601738 -0.9631050825
outer loop
vertex -55.67910004 -24.8575058 265.4147949
vertex -55.63040924 -25.12290192 265.3395081
vertex -55.79679108 -24.94287872 265.3952942

endloop
endfacet
facet normal -0.5454166532 0.8051162958 -0.2330417037
outer loop
vertex -55.67910004 -24.8575058 265.4147949
vertex -55.79679108 -24.94287872 265.3952942
vertex -55.83150482 -24.86673737 265.7395935

endloop
endfacet
facet normal -nan(ind) -nan(ind) -nan(ind)
outer loop
vertex -55.83150482 -24.86673737 265.7395935
vertex -55.79679108 -24.94287872 265.3952942
vertex -55.83150482 -24.86673737 265.7395935

endloop
endfacet
facet normal -0.8425270915 0.512804985 0.1648610383
outer loop
vertex -52.4799118 -29.59024811 265.9991455
vertex -52.47989655 -29.59023285 265.999176
vertex -52.38147736 -29.34630585 265.7434082

endloop
endfacet
facet normal 0.8288054466 -0.5281478167 -0.1847736239
outer loop
vertex -52.38147736 -29.34630585 265.7434082
vertex -52.47989655 -29.59023285 265.999176
vertex -52.47212982 -29.46044159 265.6630249

endloop
endfacet
facet normal 0.4907184839 0.206426397 -0.8465125561
outer loop
vertex -52.38147736 -29.34630585 265.7434082
vertex -52.47212982 -29.46044159 265.6630249
vertex -52.53600311 -29.15091705 265.7014771

endloop
endfacet
facet normal 0.5574131608 0.2146602571 -0.8020047545
outer loop
vertex -52.53600311 -29.15091705 265.7014771
vertex -52.47212982 -29.46044159 265.6630249
vertex -52.6231308 -29.26946259 265.6091919

endloop
endfacet
facet normal 0.5578198433 0.2142306715 -0.8018368483
outer loop
vertex -52.53600311 -29.15091705 265.7014771
vertex -52.6231308 -29.26946259 265.6091919
vertex -52.71396637 -28.9681778 265.6264954

endloop
endfacet
facet normal 0.5379200578 0.2090820968 -0.816655755
outer loop
vertex -52.71396637 -28.9681778 265.6264954
vertex -52.6231308 -29.26946259 265.6091919
vertex -52.80583954 -29.0892868 265.5349731

endloop
endfacet
facet normal 0.5062416196 0.2415826917 -0.8278630972
outer loop
vertex -52.71396637 -28.9681778 265.6264954
vertex -52.80583954 -29.0892868 265.5349731
vertex -52.92752838 -28.78942108 265.5480652

endloop
endfacet
facet normal 0.4138042033 0.2066352218 -0.8866047263
outer loop
vertex -52.92752838 -28.78942108 265.5480652
vertex -52.80583954 -29.0892868 265.5349731
vertex -53.03197479 -28.90970612 265.471283

endloop
endfacet
facet normal 0.4691441357 0.1483483166 -0.870572567
outer loop
vertex -52.92752838 -28.78942108 265.5480652
vertex -53.03197479 -28.90970612 265.471283
vertex -53.15824127 -28.58507538 265.4585571

endloop
endfacet
facet normal 0.3688869774 0.107287392 -0.9232615232
outer loop
vertex -53.15824127 -28.58507538 265.4585571
vertex -53.03197479 -28.90970612 265.471283
vertex -53.28145599 -28.69454193 265.3966064

endloop
endfacet
facet normal 0.4434756935 0.008044365793 -0.896250248
outer loop
vertex -53.15824127 -28.58507538 265.4585571
vertex -53.28145599 -28.69454193 265.3966064
vertex -53.39998627 -28.28704071 265.3416138

endloop
endfacet
facet normal 0.3869784176 -0.01186566986 -0.9220123887
outer loop
vertex -53.39998627 -28.28704071 265.3416138
vertex -53.28145599 -28.69454193 265.3966064
vertex -53.54082489 -28.37706757 265.2836609

endloop
endfacet
facet normal 0.3967773318 -0.0301517956 -0.9174195528
outer loop
vertex -53.39998627 -28.28704071 265.3416138
vertex -53.54082489 -28.37706757 265.2836609
vertex -53.64469147 -27.89792633 265.2229919

endloop
endfacet
facet normal 0.3632377982 -0.0391260609 -0.9308745265
outer loop
vertex -53.64469147 -27.89792633 265.2229919
vertex -53.54082489 -28.37706757 265.2836609
vertex -53.7904892 -27.98377228 265.1697083

endloop
endfacet
facet normal 0.3609522283 -0.03458118811 -0.9319429994
outer loop
vertex -53.64469147 -27.89792633 265.2229919
vertex -53.7904892 -27.98377228 265.1697083
vertex -53.83322906 -27.60334015 265.1390381

endloop
endfacet
facet normal 0.2759734988 -0.04639373347 -0.9600449204
outer loop
vertex -53.83322906 -27.60334015 265.1390381
vertex -53.7904892 -27.98377228 265.1697083
vertex -53.98317719 -27.68886566 265.1000671

endloop
endfacet
facet normal 0.2650756538 -0.02553519793 -0.9638894796
outer loop
vertex -53.83322906 -27.60334015 265.1390381
vertex -53.98317719 -27.68886566 265.1000671
vertex -54.01239777 -27.35631561 265.0832214

endloop
endfacet
facet normal 0.1275988668 -0.03899134696 -0.9910590649
outer loop
vertex -54.01239777 -27.35631561 265.0832214
vertex -53.98317719 -27.68886566 265.1000671
vertex -54.16643524 -27.44153595 265.0667419

endloop
endfacet
facet normal 0.1226197854 -0.02978102304 -0.9920067787
outer loop
vertex -54.01239777 -27.35630035 265.083252
vertex -54.16641998 -27.44153595 265.0667725
vertex -54.19515228 -27.1023941 265.0530396

endloop
endfacet
facet normal -0.0002127531479 -0.04047795385 -0.9991803765
outer loop
vertex -54.19515228 -27.1023941 265.0530396
vertex -54.16641998 -27.44153595 265.0667725
vertex -54.35031891 -27.18820953 265.0565491

endloop
endfacet
facet normal -0.003903455334 -0.03381445259 -0.999420464
outer loop
vertex -54.19515228 -27.1023941 265.0530396
vertex -54.35031891 -27.18820953 265.0565491
vertex -54.37377167 -26.84275055 265.0449524

endloop
endfacet
facet normal -0.09141388535 -0.0396078676 -0.9950249791
outer loop
vertex -54.37377167 -26.84275055 265.0449524
vertex -54.35031891 -27.18820953 265.0565491
vertex -54.52693939 -26.93083954 265.0625305

endloop
endfacet
facet normal -0.09411741048 -0.03489195555 -0.99494946
outer loop
vertex -54.37377167 -26.84275055 265.0449524
vertex -54.52693939 -26.93083954 265.0625305
vertex -54.55509186 -26.58774567 265.0531616

endloop
endfacet
facet normal -0.1748956442 -0.04121365398 -0.9837239981
outer loop
vertex -54.55509186 -26.58774567 265.0531616
vertex -54.52693939 -26.93083954 265.0625305
vertex -54.70404816 -26.67967987 265.0834961

endloop
endfacet
facet normal -0.1785745025 -0.03511293232 -0.9832996726
outer loop
vertex -54.55509186 -26.58774567 265.0531616
vertex -54.70404816 -26.67967987 265.0834961
vertex -54.7413559 -26.33525848 265.0779724

endloop
endfacet
facet normal -0.2545892 -0.04307084158 -0.9660896659
outer loop
vertex -54.7413559 -26.33525848 265.0779724
vertex -54.70404816 -26.67967987 265.0834961
vertex -54.8854599 -26.43083954 265.1202087

endloop
endfacet
facet normal -0.2567447424 -0.03968040645 -0.9656643867
outer loop
vertex -54.74134064 -26.33524323 265.0780029
vertex -54.88542938 -26.43080902 265.1202393
vertex -54.92194366 -26.07572174 265.1153564

endloop
endfacet
facet normal -0.2976241708 -0.04371934012 -0.9536815286
outer loop
vertex -54.92194366 -26.07572174 265.1153564
vertex -54.88542938 -26.43080902 265.1202393
vertex -55.06325531 -26.17285919 265.1639099

endloop
endfacet
facet normal -0.2971396446 -0.04448207095 -0.9537973404
outer loop
vertex -54.92194366 -26.07572174 265.1153564
vertex -55.06325531 -26.17285919 265.1639099
vertex -55.09720612 -25.8158493 265.1578369

endloop
endfacet
facet normal -0.3183235228 -0.04637837783 -0.946846962
outer loop
vertex -55.09720612 -25.8158493 265.1578369
vertex -55.06325531 -26.17285919 265.1639099
vertex -55.23628998 -25.91478729 265.2094421

endloop
endfacet
facet normal -0.3197860122 -0.04412166402 -0.9464619756
outer loop
vertex -55.09720612 -25.8158493 265.1578369
vertex -55.23628998 -25.91478729 265.2094421
vertex -55.27835846 -25.56798553 265.207489

endloop
endfacet
facet normal -0.355635345 -0.04839660972 -0.9333709478
outer loop
vertex -55.27835846 -25.56798553 265.207489
vertex -55.23628998 -25.91478729 265.2094421
vertex -55.41199493 -25.67186737 265.2637939

endloop
endfacet
facet normal -0.3600006998 -0.04204023629 -0.9320043325
outer loop
vertex -55.27835846 -25.56798553 265.207489
vertex -55.41199493 -25.67186737 265.2637939
vertex -55.46399689 -25.33548737 265.2687073

endloop
endfacet
facet normal -0.4026950896 -0.04890307412 -0.9140268564
outer loop
vertex -55.46399689 -25.33548737 265.2687073
vertex -55.41199493 -25.67186737 265.2637939
vertex -55.59029388 -25.44539642 265.3302307

endloop
endfacet
facet normal -0.4192961454 -0.02615787461 -0.9074725509
outer loop
vertex -55.46399689 -25.33548737 265.2687073
vertex -55.59029388 -25.44539642 265.3302307
vertex -55.6304245 -25.12291718 265.3394775

endloop
endfacet
facet normal -0.4332676232 -0.02808707766 -0.9008275867
outer loop
vertex -55.6304245 -25.12291718 265.3394775
vertex -55.59029388 -25.44539642 265.3302307
vertex -55.75074005 -25.23331451 265.4007874

endloop
endfacet
facet normal -0.3936297894 -0.07985110581 -0.9157944322
outer loop
vertex -55.6304245 -25.12291718 265.339447
vertex -55.75074005 -25.23331451 265.4007874
vertex -55.79680634 -24.94287872 265.3952637

endloop
endfacet
facet normal -0.4116223454 -0.08254922926 -0.9076081514
outer loop
vertex -55.79680634 -24.94287872 265.3952637
vertex -55.75074005 -25.23331451 265.4007874
vertex -55.91130829 -25.04802704 265.4567566

endloop
endfacet
facet normal -0.7210599184 0.6576480865 -0.2181092799
outer loop
vertex -55.79680634 -24.94287872 265.3952637
vertex -55.91130829 -25.04802704 265.4567566
vertex -55.83152008 -24.86675262 265.739563

endloop
endfacet
facet normal -0.8557903171 -0.2907381952 0.4278951585
outer loop
vertex -55.83152008 -24.86675262 265.739563
vertex -55.91130829 -25.04802704 265.4567566
vertex -55.83150482 -24.86675262 265.7395935

endloop
endfacet
facet normal -nan(ind) -nan(ind) -nan(ind)
outer loop
vertex -52.47989655 -29.59023285 265.999176
vertex -52.47989655 -29.59023285 265.999176
vertex -52.47212982 -29.46044159 265.6630249

endloop
endfacet
facet normal 0.6407651901 -0.7210633755 -0.2636048496
outer loop
vertex -52.47212982 -29.46044159 265.6630249
vertex -52.47989655 -29.59023285 265.999176
vertex -52.69550323 -29.66947174 265.6918335

endloop
endfacet
facet normal 0.07543668896 -0.2148137689 -0.973737359
outer loop
vertex -52.47212982 -29.46044159 265.6630249
vertex -52.69550323 -29.66947174 265.6918335
vertex -52.6231308 -29.26944733 265.6091919

endloop
endfacet
facet normal 0.1452170759 -0.2253039479 -0.9634054303
outer loop
vertex -52.6231308 -29.26944733 265.6091919
vertex -52.69550323 -29.66947174 265.6918335
vertex -52.86302948 -29.49819183 265.6265259

endloop
endfacet
facet normal 0.1562770754 -0.2365667522 -0.9589648843
outer loop
vertex -52.6231308 -29.26944733 265.6091919
vertex -52.86302948 -29.49819183 265.6265259
vertex -52.80583954 -29.0892868 265.5349731

endloop
endfacet
facet normal 0.1234705597 -0.2332291752 -0.96455127
outer loop
vertex -52.80583954 -29.0892868 265.5349731
vertex -52.86302948 -29.49819183 265.6265259
vertex -53.05115509 -29.32239532 265.5599365

endloop
endfacet
facet normal 0.1040347889 -0.2135075778 -0.9713862538
outer loop
vertex -52.80583954 -29.0892868 265.5349731
vertex -53.05115509 -29.32239532 265.5599365
vertex -53.03197479 -28.90970612 265.471283

endloop
endfacet
facet normal -0.04437484592 -0.2078490257 -0.9771538377
outer loop
vertex -53.03197479 -28.90970612 265.471283
vertex -53.05115509 -29.32239532 265.5599365
vertex -53.27521515 -29.13697052 265.5306702

endloop
endfacet
facet normal 0.0367173031 -0.2892568409 -0.9565470219
outer loop
vertex -53.03197479 -28.90970612 265.471283
vertex -53.27521515 -29.13697052 265.5306702
vertex -53.28145599 -28.69452667 265.396637

endloop
endfacet
facet normal -0.1178948954 -0.2894276679 -0.9499118328
outer loop
vertex -53.28145599 -28.69452667 265.396637
vertex -53.27521515 -29.13697052 265.5306702
vertex -53.53975677 -28.88698578 265.4873352

endloop
endfacet
facet normal -0.04960704967 -0.370515734 -0.9275004864
outer loop
vertex -53.28145599 -28.69452667 265.396637
vertex -53.53975677 -28.88698578 265.4873352
vertex -53.54082489 -28.37706757 265.2836914

endloop
endfacet
facet normal -0.1318881363 -0.3678811789 -0.9204722047
outer loop
vertex -53.54082489 -28.37706757 265.2836914
vertex -53.53975677 -28.88698578 265.4873352
vertex -53.83391571 -28.51320648 265.3800964

endloop
endfacet
facet normal -0.1386837363 -0.3558796942 -0.9241842031
outer loop
vertex -53.54082489 -28.37706757 265.2836914
vertex -53.83391571 -28.51320648 265.3800964
vertex -53.7904892 -27.98377228 265.1697083

endloop
endfacet
facet normal -0.1787936538 -0.3506423831 -0.9192838669
outer loop
vertex -53.7904892 -27.98377228 265.1697083
vertex -53.83391571 -28.51320648 265.3800964
vertex -54.08800507 -28.10785675 265.2749023

endloop
endfacet
facet normal -0.1848415583 -0.338725239 -0.9225501418
outer loop
vertex -53.7904892 -27.98377228 265.1697388
vertex -54.08800507 -28.10784149 265.2749023
vertex -53.98317719 -27.68886566 265.1000671

endloop
endfacet
facet normal -0.2892332375 -0.306114912 -0.9069938064
outer loop
vertex -53.98317719 -27.68886566 265.1000671
vertex -54.08800507 -28.10784149 265.2749023
vertex -54.26860809 -27.81250763 265.2328186

endloop
endfacet
facet normal -0.2780291438 -0.327652812 -0.9029637575
outer loop
vertex -53.98317719 -27.68886566 265.1000671
vertex -54.26860809 -27.81250763 265.2328186
vertex -54.16641998 -27.44153595 265.0667419

endloop
endfacet
facet normal -0.441898644 -0.26231879 -0.8578546047
outer loop
vertex -54.16641998 -27.44153595 265.0667419
vertex -54.26860809 -27.81250763 265.2328186
vertex -54.4291153 -27.56467438 265.2397156

endloop
endfacet
facet normal -0.4066286087 -0.329549402 -0.8520858884
outer loop
vertex -54.16641998 -27.44153595 265.0667725
vertex -54.42910004 -27.56465912 265.2397461
vertex -54.35030365 -27.18820953 265.0565491

endloop
endfacet
facet normal -0.5441571474 -0.2722861767 -0.7935699224
outer loop
vertex -54.35030365 -27.18820953 265.0565491
vertex -54.42910004 -27.56465912 265.2397461
vertex -54.58898163 -27.31220245 265.2627563

endloop
endfacet
facet normal -0.511642158 -0.3326097429 -0.7922076583
outer loop
vertex -54.35030365 -27.18820953 265.0565491
vertex -54.58898163 -27.31220245 265.2627563
vertex -54.52692413 -26.93083954 265.062561

endloop
endfacet
facet normal -0.6049091816 -0.2907229662 -0.7413265109
outer loop
vertex -54.52692413 -26.93083954 265.062561
vertex -54.58898163 -27.31220245 265.2627563
vertex -54.7443924 -27.05817413 265.2899475

endloop
endfacet
facet normal -0.5750995278 -0.3436002135 -0.7424280643
outer loop
vertex -54.52692413 -26.93083954 265.062561
vertex -54.7443924 -27.05817413 265.2899475
vertex -54.70404816 -26.67967987 265.0835266

endloop
endfacet
facet normal -0.6587688327 -0.304888308 -0.6877985597
outer loop
vertex -54.70404816 -26.67967987 265.0835266
vertex -54.7443924 -27.05817413 265.2899475
vertex -54.89826202 -26.81252289 265.3284302

endloop
endfacet
facet normal -0.6284169555 -0.3561698198 -0.6915455461
outer loop
vertex -54.70404816 -26.67967987 265.0835266
vertex -54.89826202 -26.81252289 265.3284302
vertex -54.8854599 -26.43082428 265.1202087

endloop
endfacet
facet normal -0.7043161988 -0.3216082752 -0.6328560114
outer loop
vertex -54.8854599 -26.43082428 265.1202087
vertex -54.89826202 -26.81252289 265.3284302
vertex -55.05605316 -26.56893158 265.380249

endloop
endfacet
facet normal -0.680239737 -0.360914737 -0.6379767656
outer loop
vertex -54.88542938 -26.43080902 265.1202393
vertex -55.0560379 -26.56891632 265.3802795
vertex -55.06325531 -26.17284393 265.1639099

endloop
endfacet
facet normal -0.7194882631 -0.3430081904 -0.6038889885
outer loop
vertex -55.06325531 -26.17284393 265.1639099
vertex -55.0560379 -26.56891632 265.3802795
vertex -55.22083282 -26.31324005 265.4313965

endloop
endfacet
facet normal -0.7052288651 -0.3656869531 -0.6073921919
outer loop
vertex -55.06325531 -26.17284393 265.1639099
vertex -55.22083282 -26.31324005 265.4313965
vertex -55.23627472 -25.91480255 265.2094421

endloop
endfacet
facet normal -0.7257448435 -0.3560486138 -0.5886627436
outer loop
vertex -55.23627472 -25.91480255 265.2094421
vertex -55.22083282 -26.31324005 265.4313965
vertex -55.38585663 -26.05774689 265.4803162

endloop
endfacet
facet normal -0.7096598744 -0.3807370663 -0.5928087234
outer loop
vertex -55.23627472 -25.91480255 265.2094421
vertex -55.38585663 -26.05774689 265.4803162
vertex -55.41197968 -25.67188263 265.2637634

endloop
endfacet
facet normal -0.7442730069 -0.3644750416 -0.5596567988
outer loop
vertex -55.41197968 -25.67188263 265.2637634
vertex -55.38585663 -26.05774689 265.4803162
vertex -55.54558563 -25.82201385 265.5392151

endloop
endfacet
facet normal -0.7197677493 -0.4002075791 -0.5672462583
outer loop
vertex -55.41197968 -25.67188263 265.2637634
vertex -55.54558563 -25.82201385 265.5392151
vertex -55.59029388 -25.44539642 265.3302307

endloop
endfacet
facet normal -0.7609426975 -0.3815334141 -0.5247842669
outer loop
vertex -55.59029388 -25.44539642 265.3302307
vertex -55.54558563 -25.82201385 265.5392151
vertex -55.70349884 -25.60424042 265.6098633

endloop
endfacet
facet normal -0.7524458766 -0.393535316 -0.5281621218
outer loop
vertex -55.59029388 -25.44539642 265.3302307
vertex -55.70349884 -25.60424042 265.6098633
vertex -55.75074005 -25.23331451 265.4007874

endloop
endfacet
facet normal -0.76543051 -0.3872030973 -0.5139940977
outer loop
vertex -55.75074005 -25.23331451 265.4007874
vertex -55.70349884 -25.60424042 265.6098633
vertex -55.85399628 -25.39273834 265.6746521

endloop
endfacet
facet normal -0.7121582031 -0.4558909535 -0.5338484645
outer loop
vertex -55.75074005 -25.23331451 265.4007874
vertex -55.85401154 -25.39272308 265.6746826
vertex -55.91130829 -25.04802704 265.4567566

endloop
endfacet
facet normal -0.7096578479 -0.456985414 -0.5362369418
outer loop
vertex -55.91130829 -25.04802704 265.4567566
vertex -55.85401154 -25.39272308 265.6746826
vertex -56.00940704 -25.19341278 265.7104797

endloop
endfacet
facet normal -0.8741990328 0.481587559 -0.0620435141
outer loop
vertex -55.91130829 -25.04802704 265.4567566
vertex -56.00940704 -25.19341278 265.7104797
vertex -55.83150482 -24.86672211 265.739624

endloop
endfacet
facet normal 0.8433766365 -0.480686754 0.240116626
outer loop
vertex -55.83150482 -24.86672211 265.739624
vertex -56.00940704 -25.19341278 265.7104797
vertex -55.83150482 -24.86673737 265.7395935

endloop
endfacet
endsolid
