solid 
facet normal 0.30154 -0 0.953454
outer loop
vertex -86.90840149 10.88455963 303.394989
vertex -86.90840149 10.88454437 303.394989
vertex -84.92977142 10.61263275 302.7692261

endloop
endfacet
facet normal -0.3151331544 -0.1294752955 -0.9401740432
outer loop
vertex -84.92977142 10.61263275 302.7692261
vertex -86.90840149 10.88454437 303.394989
vertex -84.95639801 11.20462799 302.6966248

endloop
endfacet
facet normal -0.00271736132 -0.1218463257 -0.9925451875
outer loop
vertex -84.92977142 10.61263275 302.7692261
vertex -84.95639801 11.20462799 302.6966248
vertex -82.59447479 10.66719818 302.756134

endloop
endfacet
facet normal -0.0006823797594 -0.1130188704 -0.9935926199
outer loop
vertex -82.59447479 10.66719818 302.756134
vertex -84.95639801 11.20462799 302.6966248
vertex -82.59379578 11.2984848 302.6843262

endloop
endfacet
facet normal -0.006541917101 -0.1130102649 -0.9935722947
outer loop
vertex -82.59447479 10.66719818 302.756134
vertex -82.59379578 11.2984848 302.6843262
vertex -80.4171524 10.7131424 302.7365723

endloop
endfacet
facet normal -0.006235260982 -0.111881502 -0.9937019348
outer loop
vertex -80.4171524 10.7131424 302.7365723
vertex -82.59379578 11.2984848 302.6843262
vertex -80.44421387 11.35161591 302.664856

endloop
endfacet
facet normal -0.01952585392 -0.1124186441 -0.9934690595
outer loop
vertex -80.4171524 10.7131424 302.7365723
vertex -80.44421387 11.35161591 302.664856
vertex -77.97013092 11.0311203 302.6524963

endloop
endfacet
facet normal -0.01878376305 -0.1066650376 -0.994117558
outer loop
vertex -77.97013092 11.0311203 302.6524963
vertex -80.44421387 11.35161591 302.664856
vertex -78.07842255 11.65914154 302.5871582

endloop
endfacet
facet normal -0.04771253839 -0.1114973798 -0.99261868
outer loop
vertex -77.97013092 11.0311203 302.6524963
vertex -78.07842255 11.65914154 302.5871582
vertex -75.5881424 11.56204987 302.478363

endloop
endfacet
facet normal -0.04757715017 -0.1075267792 -0.9930632114
outer loop
vertex -75.5881424 11.56204987 302.478363
vertex -78.07842255 11.65914154 302.5871582
vertex -75.73741913 12.18361664 302.4182129

endloop
endfacet
facet normal -0.04817793518 -0.1076667607 -0.9930189848
outer loop
vertex -75.5881424 11.56204987 302.478363
vertex -75.73741913 12.18361664 302.4182129
vertex -73.34959412 12.00991058 302.3211975

endloop
endfacet
facet normal -0.04840021208 -0.1109288558 -0.9926490784
outer loop
vertex -73.34959412 12.00991058 302.3211975
vertex -75.73741913 12.18361664 302.4182129
vertex -73.46034241 12.63854218 302.2563477

endloop
endfacet
facet normal -0.01039744914 -0.104422532 -0.9944787025
outer loop
vertex -73.34959412 12.00991058 302.3211975
vertex -73.46034241 12.63854218 302.2563477
vertex -71.05030823 12.25470734 302.2714539

endloop
endfacet
facet normal -0.011624109 -0.1120911166 -0.9936299324
outer loop
vertex -71.05030823 12.25470734 302.2714539
vertex -73.46034241 12.63854218 302.2563477
vertex -71.11054993 12.89019012 302.20047

endloop
endfacet
facet normal 0.005660443101 -0.1105282605 -0.9938568473
outer loop
vertex -71.05030823 12.25470734 302.2714539
vertex -71.11055756 12.89017487 302.2004395
vertex -68.65977478 12.46631622 302.2615356

endloop
endfacet
facet normal 0.005254891235 -0.1128361076 -0.9935997128
outer loop
vertex -68.65977478 12.46631622 302.2615356
vertex -71.11055756 12.89017487 302.2004395
vertex -68.7128067 13.10288239 302.1889648

endloop
endfacet
facet normal 0.005588211585 -0.1128084883 -0.9936010242
outer loop
vertex -68.65977478 12.46631622 302.2615356
vertex -68.7128067 13.10288239 302.1889648
vertex -66.33653259 12.62709808 302.2563477

endloop
endfacet
facet normal 0.005581443664 -0.1128417626 -0.9935973287
outer loop
vertex -66.33653259 12.62709808 302.2563477
vertex -68.7128067 13.10288239 302.1889648
vertex -66.37363434 13.264534 302.1837463

endloop
endfacet
facet normal 0.0004877723695 -0.1131361872 -0.9935793877
outer loop
vertex -66.33652496 12.62711334 302.2563782
vertex -66.37362671 13.26454926 302.1837769
vertex -64.03019714 12.68851471 302.2505188

endloop
endfacet
facet normal 0.0004935090546 -0.1131131575 -0.9935819507
outer loop
vertex -64.03019714 12.68851471 302.2505188
vertex -66.37362671 13.26454926 302.1837769
vertex -64.03651428 13.32701874 302.1778259

endloop
endfacet
facet normal -0.004441835452 -0.1131602675 -0.9935668111
outer loop
vertex -64.03019714 12.68851471 302.2505188
vertex -64.03651428 13.32701874 302.1778259
vertex -61.677742 12.65431976 302.2438965

endloop
endfacet
facet normal -0.004420760088 -0.1130871996 -0.9935752749
outer loop
vertex -61.677742 12.65431976 302.2438965
vertex -64.03651428 13.32701874 302.1778259
vertex -61.66358185 13.29297638 302.1711426

endloop
endfacet
facet normal -0.00661123218 -0.1130378693 -0.9935686588
outer loop
vertex -61.677742 12.65431976 302.2438965
vertex -61.66358185 13.29297638 302.1711426
vertex -59.31629181 12.58353424 302.2362366

endloop
endfacet
facet normal -0.006603782997 -0.113013491 -0.9935715199
outer loop
vertex -59.31629181 12.58353424 302.2362366
vertex -61.66358185 13.29297638 302.1711426
vertex -59.29659271 13.22200775 302.1634827

endloop
endfacet
facet normal -0.007474490907 -0.1129862741 -0.9935684204
outer loop
vertex -59.31629181 12.58353424 302.2362366
vertex -59.29659271 13.22200775 302.1634827
vertex -56.97206879 12.50305939 302.2277527

endloop
endfacet
facet normal -0.007475535851 -0.1129896194 -0.9935680628
outer loop
vertex -56.97206879 12.50305939 302.2277527
vertex -59.29659271 13.22200775 302.1634827
vertex -56.94435883 13.14098358 302.1549988

endloop
endfacet
facet normal -0.01202344242 -0.112742655 -0.9935514927
outer loop
vertex -56.97205353 12.50307465 302.2277527
vertex -56.94434357 13.14099884 302.1550293
vertex -54.64762115 12.33506012 302.218689

endloop
endfacet
facet normal -0.01204529684 -0.1128043607 -0.9935442209
outer loop
vertex -54.64762115 12.33506012 302.218689
vertex -56.94434357 13.14099884 302.1550293
vertex -54.59482574 12.97129059 302.145813

endloop
endfacet
facet normal -0.01572903432 -0.1124967784 -0.9935276508
outer loop
vertex -54.64762115 12.33506012 302.218689
vertex -54.59482574 12.97129059 302.145813
vertex -52.36695099 12.09542084 302.2097168

endloop
endfacet
facet normal -0.01570833102 -0.1124445572 -0.9935339093
outer loop
vertex -52.36695099 12.09542084 302.2097168
vertex -54.59482574 12.97129059 302.145813
vertex -52.29016876 12.72914886 302.1367798

endloop
endfacet
facet normal -0.008916093037 -0.1132664308 -0.993524611
outer loop
vertex -52.36695099 12.09542084 302.2097168
vertex -52.29016876 12.72914886 302.1367798
vertex -50.07381439 11.74091339 302.2295532

endloop
endfacet
facet normal -0.006430596113 -0.1077514887 -0.9941570163
outer loop
vertex -50.07381439 11.74091339 302.2295532
vertex -52.29016876 12.72914886 302.1367798
vertex -49.96352386 12.37010956 302.1606445

endloop
endfacet
facet normal 0.08731302619 -0.1235627681 -0.9884880185
outer loop
vertex -50.07381439 11.74091339 302.2295532
vertex -49.96352386 12.37010956 302.1606445
vertex -47.74030304 11.32224274 302.4880066

endloop
endfacet
facet normal 0.0960188508 -0.1054935381 -0.9897734523
outer loop
vertex -47.74030304 11.32224274 302.4880066
vertex -49.96352386 12.37010956 302.1606445
vertex -47.61991119 11.95293427 302.4324646

endloop
endfacet
facet normal 0.3200751841 -0.1435674578 -0.936450839
outer loop
vertex -47.74030304 11.32224274 302.4880066
vertex -47.61991119 11.95293427 302.4324646
vertex -45.53632355 11.10059357 303.2752991

endloop
endfacet
facet normal 0.3248119652 -0.1320512444 -0.9365145564
outer loop
vertex -45.53632355 11.10059357 303.2752991
vertex -47.61991119 11.95293427 302.4324646
vertex -45.47147369 11.72457123 303.2098083

endloop
endfacet
facet normal 0.5482355952 -0.1434945166 -0.8239217401
outer loop
vertex -45.53633881 11.10059357 303.2753296
vertex -45.47148895 11.72457123 303.2098083
vertex -43.19429779 11.43462372 304.7755432

endloop
endfacet
facet normal 0.5492066741 -0.1377072036 -0.8242625594
outer loop
vertex -43.19429779 11.43462372 304.7755432
vertex -45.47148895 11.72457123 303.2098083
vertex -43.20085907 12.01837921 304.673645

endloop
endfacet
facet normal 0.7973573208 -0.09506863356 -0.595972538
outer loop
vertex -43.19429779 11.43462372 304.7755432
vertex -43.20085907 12.01837921 304.673645
vertex -41.8239975 12.38176727 306.4577942

endloop
endfacet
facet normal -nan(ind) -nan(ind) -nan(ind)
outer loop
vertex -41.8239975 12.38176727 306.4577942
vertex -43.20085907 12.01837921 304.673645
vertex -41.8239975 12.38176727 306.4577942

endloop
endfacet
facet normal 0 -0.9090647697 -0.416654706
outer loop
vertex -86.90840149 10.88454437 303.394989
vertex -86.90840912 10.88454437 303.394989
vertex -84.95639801 11.20462799 302.6966248

endloop
endfacet
facet normal -0.3653953671 0.4476084709 -0.8161696196
outer loop
vertex -84.95639801 11.20462799 302.6966248
vertex -86.90840912 10.88454437 303.394989
vertex -84.97034454 11.52155304 302.8766785

endloop
endfacet
facet normal -0.02411316335 0.4930273592 -0.8696795106
outer loop
vertex -84.95639801 11.20462799 302.6966248
vertex -84.97034454 11.52155304 302.8766785
vertex -82.59379578 11.2984848 302.6843262

endloop
endfacet
facet normal -0.01880885847 0.5304304957 -0.8475197554
outer loop
vertex -82.59379578 11.2984848 302.6843262
vertex -84.97034454 11.52155304 302.8766785
vertex -82.59360504 11.62197113 302.8867798

endloop
endfacet
facet normal -0.02078638226 0.5304105878 -0.8474860191
outer loop
vertex -82.59379578 11.2984848 302.6843262
vertex -82.59360504 11.62197113 302.8867798
vertex -80.44421387 11.35161591 302.664856

endloop
endfacet
facet normal -0.02038149908 0.5325403214 -0.8461591601
outer loop
vertex -80.44421387 11.35161591 302.664856
vertex -82.59360504 11.62197113 302.8867798
vertex -80.45556641 11.67853546 302.8708801

endloop
endfacet
facet normal -0.09637524188 0.5282784104 -0.8435838223
outer loop
vertex -80.44421387 11.35161591 302.664856
vertex -80.45556641 11.67853546 302.8708801
vertex -78.07842255 11.65914154 302.5871582

endloop
endfacet
facet normal -0.09610091895 0.5316195488 -0.8415136933
outer loop
vertex -78.07842255 11.65914154 302.5871582
vertex -80.45556641 11.67853546 302.8708801
vertex -78.12207031 11.98070526 302.7952881

endloop
endfacet
facet normal -0.1764283627 0.5178478956 -0.8370821476
outer loop
vertex -78.07842255 11.65914154 302.5871582
vertex -78.12207031 11.98070526 302.7952881
vertex -75.73741913 12.18361664 302.4182129

endloop
endfacet
facet normal -0.1763973236 0.520306766 -0.8355625868
outer loop
vertex -75.73741913 12.18361664 302.4182129
vertex -78.12207031 11.98070526 302.7952881
vertex -75.79454041 12.5018692 302.6284485

endloop
endfacet
facet normal -0.1639550775 0.5230728388 -0.836369276
outer loop
vertex -75.73741913 12.18361664 302.4182129
vertex -75.79454041 12.5018692 302.6284485
vertex -73.46034241 12.63854218 302.2563477

endloop
endfacet
facet normal -0.1640743613 0.5200539231 -0.8382264376
outer loop
vertex -73.46034241 12.63854218 302.2563477
vertex -75.79454041 12.5018692 302.6284485
vertex -73.50302887 12.96044159 302.4644165

endloop
endfacet
facet normal -0.07720826566 0.5339865685 -0.8419603109
outer loop
vertex -73.46034241 12.63854218 302.2563477
vertex -73.50302887 12.96044159 302.4644165
vertex -71.11054993 12.89019012 302.20047

endloop
endfacet
facet normal -0.07785012573 0.5274199843 -0.8460304737
outer loop
vertex -71.11054993 12.89019012 302.20047
vertex -73.50302887 12.96044159 302.4644165
vertex -71.1383667 13.21553802 302.4058533

endloop
endfacet
facet normal -0.05106987059 0.5300246477 -0.8464429975
outer loop
vertex -71.11055756 12.89017487 302.2004395
vertex -71.13837433 13.21553802 302.4058533
vertex -68.7128067 13.10288239 302.1889648

endloop
endfacet
facet normal -0.051266931 0.528087914 -0.8476408124
outer loop
vertex -68.7128067 13.10288239 302.1889648
vertex -71.13837433 13.21553802 302.4058533
vertex -68.73952484 13.42882538 302.3936462

endloop
endfacet
facet normal -0.03845854849 0.529148221 -0.8476573825
outer loop
vertex -68.7128067 13.10288239 302.1889648
vertex -68.73952484 13.42882538 302.3936462
vertex -66.37363434 13.264534 302.1837463

endloop
endfacet
facet normal -0.03842490166 0.5294188261 -0.847489953
outer loop
vertex -66.37363434 13.264534 302.1837463
vertex -68.73952484 13.42882538 302.3936462
vertex -66.3919754 13.59090424 302.3884583

endloop
endfacet
facet normal -0.0163417086 0.5306494236 -0.8474338055
outer loop
vertex -66.37362671 13.26454926 302.1837769
vertex -66.39196777 13.59090424 302.3884888
vertex -64.03651428 13.32701874 302.1778259

endloop
endfacet
facet normal -0.01637362875 0.530459106 -0.8475523591
outer loop
vertex -64.03651428 13.32701874 302.1778259
vertex -66.39196777 13.59090424 302.3884888
vertex -64.03913879 13.65392303 302.3824768

endloop
endfacet
facet normal 0.00522553781 0.5306475759 -0.8475764394
outer loop
vertex -64.03651428 13.32701874 302.1778259
vertex -64.03913879 13.65392303 302.3824768
vertex -61.66358185 13.29297638 302.1711426

endloop
endfacet
facet normal 0.0051658866 0.5303605199 -0.8477565646
outer loop
vertex -61.66358185 13.29297638 302.1711426
vertex -64.03913879 13.65392303 302.3824768
vertex -61.65564728 13.61992645 302.3757324

endloop
endfacet
facet normal 0.01315273531 0.530182302 -0.8477816582
outer loop
vertex -61.66358185 13.29297638 302.1711426
vertex -61.65564728 13.61992645 302.3757324
vertex -59.29659271 13.22200775 302.1634827

endloop
endfacet
facet normal 0.01313687302 0.5301119089 -0.8478259444
outer loop
vertex -59.29659271 13.22200775 302.1634827
vertex -61.65564728 13.61992645 302.3757324
vertex -59.2857132 13.54889679 302.368042

endloop
endfacet
facet normal 0.01519989222 0.5300470591 -0.8478319645
outer loop
vertex -59.29659271 13.22200775 302.1634827
vertex -59.2857132 13.54889679 302.368042
vertex -56.94435883 13.14098358 302.1549988

endloop
endfacet
facet normal 0.01522043999 0.5301357508 -0.8477761149
outer loop
vertex -56.94435883 13.14098358 302.1549988
vertex -59.2857132 13.54889679 302.368042
vertex -56.92931366 13.46762753 302.3595276

endloop
endfacet
facet normal 0.0349008441 0.5292224288 -0.8477649689
outer loop
vertex -56.94434357 13.14099884 302.1550293
vertex -56.92931366 13.46764374 302.3595581
vertex -54.59482574 12.97129059 302.145813

endloop
endfacet
facet normal 0.03488574177 0.5291666389 -0.8478004336
outer loop
vertex -54.59482574 12.97129059 302.145813
vertex -56.92931366 13.46764374 302.3595581
vertex -54.5668869 13.29703522 302.3502808

endloop
endfacet
facet normal 0.05212092027 0.527705133 -0.8478270769
outer loop
vertex -54.59482574 12.97129059 302.145813
vertex -54.5668869 13.29703522 302.3502808
vertex -52.29016876 12.72914886 302.1367798

endloop
endfacet
facet normal 0.05209152773 0.5276101828 -0.8478879333
outer loop
vertex -52.29016876 12.72914886 302.1367798
vertex -54.5668869 13.29703522 302.3502808
vertex -52.24958038 13.05358124 302.341156

endloop
endfacet
facet normal 0.08937883377 0.5228452086 -0.8477289677
outer loop
vertex -52.29016876 12.72914886 302.1367798
vertex -52.24958038 13.05358124 302.341156
vertex -49.96352386 12.37010956 302.1606445

endloop
endfacet
facet normal 0.09066238999 0.5265035033 -0.8453249931
outer loop
vertex -49.96352386 12.37010956 302.1606445
vertex -52.24958038 13.05358124 302.341156
vertex -49.91403961 12.6922226 302.3665771

endloop
endfacet
facet normal 0.1879636198 0.5083850026 -0.8403655887
outer loop
vertex -49.96352386 12.37010956 302.1606445
vertex -49.91403961 12.6922226 302.3665771
vertex -47.61991119 11.95293427 302.4324646

endloop
endfacet
facet normal 0.1919636577 0.5216047168 -0.8313112855
outer loop
vertex -47.61991119 11.95293427 302.4324646
vertex -49.91403961 12.6922226 302.3665771
vertex -47.60207367 12.27584076 302.6391907

endloop
endfacet
facet normal 0.3418506384 0.4932258725 -0.7999165654
outer loop
vertex -47.61991119 11.95293427 302.4324646
vertex -47.60207367 12.27584076 302.6391907
vertex -45.47147369 11.72457123 303.2098083

endloop
endfacet
facet normal 0.3433254659 0.5116686821 -0.7876057625
outer loop
vertex -45.47147369 11.72457123 303.2098083
vertex -47.60207367 12.27584076 302.6391907
vertex -45.53798676 12.04428864 303.3885193

endloop
endfacet
facet normal 0.4194164276 0.5077808499 -0.7524948716
outer loop
vertex -45.47148895 11.72457123 303.2098083
vertex -45.53798676 12.04428864 303.3884888
vertex -43.20085907 12.01837921 304.673645

endloop
endfacet
facet normal 0.4280091524 0.475171119 -0.7687786222
outer loop
vertex -43.20085907 12.01837921 304.673645
vertex -45.53798676 12.04428864 303.3884888
vertex -43.33385468 12.33083344 304.7927246

endloop
endfacet
facet normal 0.6356378198 0.4960072935 -0.5915584564
outer loop
vertex -43.20085907 12.01837921 304.673645
vertex -43.33385468 12.33083344 304.7927246
vertex -41.8239975 12.38176727 306.4577942

endloop
endfacet
facet normal -0.4190633297 -0.8127288818 0.4047934413
outer loop
vertex -41.8239975 12.38176727 306.4577942
vertex -43.33385468 12.33083344 304.7927246
vertex -41.8239975 12.38175201 306.4577637

endloop
endfacet
facet normal -0.2863360941 0.09544536471 -0.9533634186
outer loop
vertex -86.90840912 10.88454437 303.394989
vertex -86.90839386 10.88459015 303.394989
vertex -84.97034454 11.52155304 302.8766785

endloop
endfacet
facet normal -0.3864199221 0.7943796515 -0.4686584175
outer loop
vertex -84.97034454 11.52155304 302.8766785
vertex -86.90839386 10.88459015 303.394989
vertex -84.9777298 11.69721222 303.1805115

endloop
endfacet
facet normal -0.03441169113 0.8648523092 -0.5008455515
outer loop
vertex -84.97034454 11.52155304 302.8766785
vertex -84.9777298 11.69721222 303.1805115
vertex -82.59360504 11.62197113 302.8867798

endloop
endfacet
facet normal -0.02832215466 0.8887391686 -0.4575374722
outer loop
vertex -82.59360504 11.62197113 302.8867798
vertex -84.9777298 11.69721222 303.1805115
vertex -82.59362793 11.79059601 303.214325

endloop
endfacet
facet normal -0.02691619284 0.8887737393 -0.4575551748
outer loop
vertex -82.59360504 11.62197113 302.8867798
vertex -82.59362793 11.79059601 303.214325
vertex -80.45556641 11.67853546 302.8708801

endloop
endfacet
facet normal -0.02657786943 0.889708817 -0.4557541311
outer loop
vertex -80.45556641 11.67853546 302.8708801
vertex -82.59362793 11.79059601 303.214325
vertex -80.45911407 11.84874725 303.2033691

endloop
endfacet
facet normal -0.128905952 0.8821531534 -0.4529778957
outer loop
vertex -80.45556641 11.67853546 302.8708801
vertex -80.45911407 11.84874725 303.2033691
vertex -78.12207031 11.98070526 302.7952881

endloop
endfacet
facet normal -0.1284260899 0.8839195967 -0.4496585131
outer loop
vertex -78.12207031 11.98070526 302.7952881
vertex -80.45911407 11.84874725 303.2033691
vertex -78.13381195 12.14815521 303.1278076

endloop
endfacet
facet normal -0.2259532213 0.8668180108 -0.4444902837
outer loop
vertex -78.12207031 11.98070526 302.7952881
vertex -78.13381195 12.14815521 303.1278076
vertex -75.79454041 12.5018692 302.6284485

endloop
endfacet
facet normal -0.2254142016 0.8690521121 -0.4403825998
outer loop
vertex -75.79454041 12.5018692 302.6284485
vertex -78.13381195 12.14815521 303.1278076
vertex -75.80631256 12.66761017 302.9615479

endloop
endfacet
facet normal -0.2063425183 0.8731001616 -0.4417227209
outer loop
vertex -75.79454041 12.5018692 302.6284485
vertex -75.80631256 12.66761017 302.9615479
vertex -73.50302887 12.96044159 302.4644165

endloop
endfacet
facet normal -0.2068384141 0.8712649941 -0.4451012313
outer loop
vertex -73.50302887 12.96044159 302.4644165
vertex -75.80631256 12.66761017 302.9615479
vertex -73.5121994 13.12802887 302.7967224

endloop
endfacet
facet normal -0.1067900658 0.8865864277 -0.4500670433
outer loop
vertex -73.50302887 12.96044159 302.4644165
vertex -73.5121994 13.12802887 302.7967224
vertex -71.1383667 13.21553802 302.4058533

endloop
endfacet
facet normal -0.1076050252 0.8836148381 -0.4556818306
outer loop
vertex -71.1383667 13.21553802 302.4058533
vertex -73.5121994 13.12802887 302.7967224
vertex -71.15000153 13.3849411 302.7370911

endloop
endfacet
facet normal -0.08111906052 0.8862473965 -0.4560539424
outer loop
vertex -71.13837433 13.21553802 302.4058533
vertex -71.15000153 13.3849411 302.7371216
vertex -68.73952484 13.42882538 302.3936462

endloop
endfacet
facet normal -0.0812965855 0.8855424523 -0.4573898911
outer loop
vertex -68.73952484 13.42882538 302.3936462
vertex -71.15000153 13.3849411 302.7371216
vertex -68.75299835 13.59853363 302.7246094

endloop
endfacet
facet normal -0.06225623935 0.8870779872 -0.4574021995
outer loop
vertex -68.73952484 13.42882538 302.3936462
vertex -68.75299835 13.59853363 302.7246094
vertex -66.3919754 13.59090424 302.3884583

endloop
endfacet
facet normal -0.06222419813 0.8871948719 -0.4571798146
outer loop
vertex -66.3919754 13.59090424 302.3884583
vertex -68.75299835 13.59853363 302.7246094
vertex -66.40090179 13.76081085 302.7193909

endloop
endfacet
facet normal -0.02497989126 0.8890170455 -0.4571921825
outer loop
vertex -66.39196777 13.59090424 302.3884888
vertex -66.40088654 13.76084137 302.7194214
vertex -64.03913879 13.65392303 302.3824768

endloop
endfacet
facet normal -0.02499077097 0.8889830112 -0.4572576284
outer loop
vertex -64.03913879 13.65392303 302.3824768
vertex -66.40088654 13.76084137 302.7194214
vertex -64.03992462 13.82411957 302.7134094

endloop
endfacet
facet normal 0.01138952281 0.8892382383 -0.4573025405
outer loop
vertex -64.03913879 13.65392303 302.3824768
vertex -64.03992462 13.82411957 302.7134094
vertex -61.65564728 13.61992645 302.3757324

endloop
endfacet
facet normal 0.0113370521 0.889093399 -0.457585454
outer loop
vertex -61.65564728 13.61992645 302.3757324
vertex -64.03992462 13.82411957 302.7134094
vertex -61.6508255 13.79016876 302.7066345

endloop
endfacet
facet normal 0.02515298128 0.8887873292 -0.4576292932
outer loop
vertex -61.65564728 13.61992645 302.3757324
vertex -61.6508255 13.79016876 302.7066345
vertex -59.2857132 13.54889679 302.368042

endloop
endfacet
facet normal 0.02513997257 0.8887532949 -0.4576958716
outer loop
vertex -59.2857132 13.54889679 302.368042
vertex -61.6508255 13.79016876 302.7066345
vertex -59.27925873 13.71910858 302.6989136

endloop
endfacet
facet normal 0.02899389528 0.8886299133 -0.4577076137
outer loop
vertex -59.2857132 13.54889679 302.368042
vertex -59.27925873 13.71910858 302.6989136
vertex -56.92931366 13.46762753 302.3595276

endloop
endfacet
facet normal 0.02902074344 0.8886985779 -0.45757249
outer loop
vertex -56.92931366 13.46762753 302.3595276
vertex -59.27925873 13.71910858 302.6989136
vertex -56.92063141 13.63770294 302.6903992

endloop
endfacet
facet normal 0.06225813925 0.8869757652 -0.4576002955
outer loop
vertex -56.92931366 13.46764374 302.3595581
vertex -56.92061615 13.63773346 302.6904297
vertex -54.5668869 13.29703522 302.3502808

endloop
endfacet
facet normal 0.06224328279 0.8869413733 -0.4576687813
outer loop
vertex -54.5668869 13.29703522 302.3502808
vertex -56.92061615 13.63773346 302.6904297
vertex -54.55144501 13.46663666 302.6810608

endloop
endfacet
facet normal 0.09111343324 0.8844149709 -0.457721144
outer loop
vertex -54.5668869 13.29703522 302.3502808
vertex -54.55144501 13.46663666 302.6810608
vertex -52.24958038 13.05358124 302.341156

endloop
endfacet
facet normal 0.09107924253 0.8843435049 -0.457865864
outer loop
vertex -52.24958038 13.05358124 302.341156
vertex -54.55144501 13.46663666 302.6810608
vertex -52.22725677 13.22252655 302.6719055

endloop
endfacet
facet normal 0.1407976747 0.8777954578 -0.4578768015
outer loop
vertex -52.24958038 13.05358124 302.341156
vertex -52.22725677 13.22252655 302.6719055
vertex -49.91403961 12.6922226 302.3665771

endloop
endfacet
facet normal 0.1417445391 0.8796731234 -0.453964442
outer loop
vertex -49.91403961 12.6922226 302.3665771
vertex -52.22725677 13.22252655 302.6719055
vertex -49.89476776 12.85999298 302.6976929

endloop
endfacet
facet normal 0.2094480246 0.8672759533 -0.4516236186
outer loop
vertex -49.91403961 12.6922226 302.3665771
vertex -49.89476776 12.85999298 302.6976929
vertex -47.60207367 12.27584076 302.6391907

endloop
endfacet
facet normal 0.2123010308 0.8765119314 -0.4320360422
outer loop
vertex -47.60207367 12.27584076 302.6391907
vertex -49.89476776 12.85999298 302.6976929
vertex -47.63335419 12.44402313 302.9650269

endloop
endfacet
facet normal 0.2517356873 0.8696320057 -0.4246991575
outer loop
vertex -47.60207367 12.27584076 302.6391907
vertex -47.63335419 12.44402313 302.9650269
vertex -45.53798676 12.04428864 303.3885193

endloop
endfacet
facet normal 0.2489131838 0.8828591108 -0.3982486725
outer loop
vertex -45.53798676 12.04428864 303.3885193
vertex -47.63335419 12.44402313 302.9650269
vertex -45.6651535 12.21097565 303.6785583

endloop
endfacet
facet normal 0.1632647514 0.8846284747 -0.4367804527
outer loop
vertex -45.53798676 12.04428864 303.3884888
vertex -45.66513824 12.21097565 303.6785583
vertex -43.33385468 12.33083344 304.7927246

endloop
endfacet
facet normal 0.1889242381 0.8527036905 -0.4870360792
outer loop
vertex -43.33385468 12.33083344 304.7927246
vertex -45.66513824 12.21097565 303.6785583
vertex -43.52846527 12.50403595 305.0204773

endloop
endfacet
facet normal 0.3584186137 0.8648757339 -0.3514627218
outer loop
vertex -43.33385468 12.33083344 304.7927246
vertex -43.52846527 12.50403595 305.0204773
vertex -41.8239975 12.38175201 306.4577637

endloop
endfacet
facet normal 0.4039831758 0.8180512786 -0.4093774259
outer loop
vertex -41.8239975 12.38175201 306.4577637
vertex -43.52846527 12.50403595 305.0204773
vertex -41.8239975 12.38178253 306.4578247

endloop
endfacet
facet normal -0.2139959037 0.6907263398 0.6907263398
outer loop
vertex -86.90839386 10.88459015 303.394989
vertex -86.90839386 10.88455963 303.3950195
vertex -84.9777298 11.69721222 303.1805115

endloop
endfacet
facet normal -0.3897713721 0.920691967 -0.02011516877
outer loop
vertex -84.9777298 11.69721222 303.1805115
vertex -86.90839386 10.88455963 303.3950195
vertex -84.97750092 11.70569611 303.5643921

endloop
endfacet
facet normal -0.03881751373 0.9990028739 -0.02205514535
outer loop
vertex -84.9777298 11.69721222 303.1805115
vertex -84.97750092 11.70569611 303.5643921
vertex -82.59362793 11.79059601 303.214325

endloop
endfacet
facet normal -0.03151270002 0.9991189837 0.02771703899
outer loop
vertex -82.59362793 11.79059601 303.214325
vertex -84.97750092 11.70569611 303.5643921
vertex -82.59387207 11.77951813 303.6133728

endloop
endfacet
facet normal -0.02708055638 0.9992487431 0.02772335894
outer loop
vertex -82.59362793 11.79059601 303.214325
vertex -82.59387207 11.77951813 303.6133728
vertex -80.45911407 11.84874725 303.2033691

endloop
endfacet
facet normal -0.02687005885 0.9992235899 0.02881512046
outer loop
vertex -80.45911407 11.84874725 303.2033691
vertex -82.59387207 11.77951813 303.6133728
vertex -80.45439911 11.83721161 303.6077881

endloop
endfacet
facet normal -0.1266987175 0.9914947152 0.02975852415
outer loop
vertex -80.45911407 11.84874725 303.2033691
vertex -80.45439911 11.83721161 303.6077881
vertex -78.13381195 12.14815521 303.1278076

endloop
endfacet
facet normal -0.1256795973 0.9914650321 0.03466643766
outer loop
vertex -78.13381195 12.14815521 303.1278076
vertex -80.45439911 11.83721161 303.6077881
vertex -78.11222839 12.13681793 303.530304

endloop
endfacet
facet normal -0.2150011659 0.9758341312 0.0390159972
outer loop
vertex -78.13381195 12.14815521 303.1278076
vertex -78.11222839 12.13681793 303.530304
vertex -75.80631256 12.66761017 302.9615479

endloop
endfacet
facet normal -0.2133543789 0.9759027958 0.04575669765
outer loop
vertex -75.80631256 12.66761017 302.9615479
vertex -78.11222839 12.13681793 303.530304
vertex -75.77150726 12.65639496 303.3630371

endloop
endfacet
facet normal -0.1935295016 0.9801002741 0.04415530711
outer loop
vertex -75.80631256 12.66761017 302.9615479
vertex -75.77150726 12.65639496 303.3630371
vertex -73.5121994 13.12802887 302.7967224

endloop
endfacet
facet normal -0.1945769936 0.9800732136 0.03995361924
outer loop
vertex -73.5121994 13.12802887 302.7967224
vertex -75.77150726 12.65639496 303.3630371
vertex -73.4868927 13.11666107 303.198822

endloop
endfacet
facet normal -0.1071874127 0.9936283231 0.03483695164
outer loop
vertex -73.5121994 13.12802887 302.7967224
vertex -73.4868927 13.11666107 303.198822
vertex -71.15000153 13.3849411 302.7370911

endloop
endfacet
facet normal -0.1081506237 0.9936819673 0.02999322675
outer loop
vertex -71.15000153 13.3849411 302.7370911
vertex -73.4868927 13.11666107 303.198822
vertex -71.1438446 13.37345123 303.1399536

endloop
endfacet
facet normal -0.08856313676 0.9956262112 0.02974765375
outer loop
vertex -71.15000153 13.3849411 302.7371216
vertex -71.14385223 13.37345123 303.1399841
vertex -68.75299835 13.59853363 302.7246094

endloop
endfacet
facet normal -0.0887176916 0.9956384301 0.02886464074
outer loop
vertex -68.75299835 13.59853363 302.7246094
vertex -71.14385223 13.37345123 303.1399841
vertex -68.75133514 13.58699799 303.1276245

endloop
endfacet
facet normal -0.06873670965 0.9972182512 0.02882740088
outer loop
vertex -68.75299835 13.59853363 302.7246094
vertex -68.75133514 13.58699799 303.1276245
vertex -66.40090179 13.76081085 302.7193909

endloop
endfacet
facet normal -0.06874892116 0.9972194433 0.02875762805
outer loop
vertex -66.40090179 13.76081085 302.7193909
vertex -68.75133514 13.58699799 303.1276245
vertex -66.39919281 13.74930573 303.1224365

endloop
endfacet
facet normal -0.02670814469 0.9992308617 0.02871191502
outer loop
vertex -66.40088654 13.76084137 302.7194214
vertex -66.39918518 13.74930573 303.122467
vertex -64.03992462 13.82411957 302.7134094

endloop
endfacet
facet normal -0.02670822293 0.9992309213 0.02871147543
outer loop
vertex -64.03992462 13.82411957 302.7134094
vertex -66.39918518 13.74930573 303.122467
vertex -64.03883362 13.81256866 303.1164246

endloop
endfacet
facet normal 0.0142845735 0.9994887114 0.02860789001
outer loop
vertex -64.03992462 13.82411957 302.7134094
vertex -64.03883362 13.81256866 303.1164246
vertex -61.6508255 13.79016876 302.7066345

endloop
endfacet
facet normal 0.01428517327 0.9994884729 0.02861139178
outer loop
vertex -61.6508255 13.79016876 302.7066345
vertex -64.03883362 13.81256866 303.1164246
vertex -61.64989471 13.77861786 303.1096802

endloop
endfacet
facet normal 0.03003063984 0.999140799 0.02856506594
outer loop
vertex -61.6508255 13.79016876 302.7066345
vertex -61.64989471 13.77861786 303.1096802
vertex -59.27925873 13.71910858 302.6989136

endloop
endfacet
facet normal 0.03002295271 0.9991422296 0.02852048352
outer loop
vertex -59.27925873 13.71910858 302.6989136
vertex -61.64989471 13.77861786 303.1096802
vertex -59.27823639 13.70757294 303.1019592

endloop
endfacet
facet normal 0.03458221257 0.9989952445 0.02850471064
outer loop
vertex -59.27925873 13.71910858 302.6989136
vertex -59.27823639 13.70757294 303.1019592
vertex -56.92063141 13.63770294 302.6903992

endloop
endfacet
facet normal 0.03458303586 0.9989951253 0.02850947715
outer loop
vertex -56.92063141 13.63770294 302.6903992
vertex -59.27823639 13.70757294 303.1019592
vertex -56.91963959 13.6261673 303.0934143

endloop
endfacet
facet normal 0.07211307436 0.9969920516 0.02839753404
outer loop
vertex -56.92061615 13.63773346 302.6904297
vertex -56.91962433 13.62618256 303.0934448
vertex -54.55144501 13.46663666 302.6810608

endloop
endfacet
facet normal 0.07210012525 0.9969952106 0.02832191065
outer loop
vertex -54.55144501 13.46663666 302.6810608
vertex -56.91962433 13.62618256 303.0934448
vertex -54.55084991 13.45514679 303.0840149

endloop
endfacet
facet normal 0.1045240164 0.994122684 0.02819213644
outer loop
vertex -54.55144501 13.46663666 302.6810608
vertex -54.55084991 13.45514679 303.0840149
vertex -52.22725677 13.22252655 302.6719055

endloop
endfacet
facet normal 0.1045063138 0.9941274524 0.02808961459
outer loop
vertex -52.22725677 13.22252655 302.6719055
vertex -54.55084991 13.45514679 303.0840149
vertex -52.22653961 13.2110672 303.0747986

endloop
endfacet
facet normal 0.153223902 0.9877997041 0.02782290801
outer loop
vertex -52.22725677 13.22252655 302.6719055
vertex -52.22653961 13.2110672 303.0747986
vertex -49.89476776 12.85999298 302.6976929

endloop
endfacet
facet normal 0.1540522426 0.9875041246 0.03321996704
outer loop
vertex -49.89476776 12.85999298 302.6976929
vertex -52.22653961 13.2110672 303.0747986
vertex -49.9083786 12.84859467 303.0996399

endloop
endfacet
facet normal 0.1769274473 0.9836403728 0.03388499841
outer loop
vertex -49.89476776 12.85999298 302.6976929
vertex -49.9083786 12.84859467 303.0996399
vertex -47.63335419 12.44402313 302.9650269

endloop
endfacet
facet normal 0.1783357859 0.9819694161 0.06270866841
outer loop
vertex -47.63335419 12.44402313 302.9650269
vertex -49.9083786 12.84859467 303.0996399
vertex -47.70822906 12.43260956 303.3566895

endloop
endfacet
facet normal 0.100226894 0.9938002229 0.04812123626
outer loop
vertex -47.63335419 12.44402313 302.9650269
vertex -47.70822906 12.43260956 303.3566895
vertex -45.6651535 12.21097565 303.6785583

endloop
endfacet
facet normal 0.09572962672 0.9925182462 0.0757850036
outer loop
vertex -45.6651535 12.21097565 303.6785583
vertex -47.70822906 12.43260956 303.3566895
vertex -45.83213043 12.20005035 304.0325623

endloop
endfacet
facet normal -0.1198717952 0.9924521446 -0.025874516
outer loop
vertex -45.66513824 12.21097565 303.6785583
vertex -45.83213043 12.2000351 304.0325623
vertex -43.52846527 12.50403595 305.0204773

endloop
endfacet
facet normal -0.09000767022 0.9913821816 -0.09518382698
outer loop
vertex -43.52846527 12.50403595 305.0204773
vertex -45.83213043 12.2000351 304.0325623
vertex -43.75684357 12.51244354 305.3240051

endloop
endfacet
facet normal 0.05806750432 0.9981837273 0.01604148
outer loop
vertex -43.52846527 12.50403595 305.0204773
vertex -43.75684357 12.51244354 305.3240051
vertex -41.8239975 12.38178253 306.4578247

endloop
endfacet
facet normal -0.306709826 -0.8516616821 0.4249723256
outer loop
vertex -41.8239975 12.38178253 306.4578247
vertex -43.75684357 12.51244354 305.3240051
vertex -41.8239975 12.38176727 306.4577942

endloop
endfacet
facet normal 0.3967710435 -0.9125424027 -0.09919276088
outer loop
vertex -86.90839386 10.88455963 303.3950195
vertex -86.90840149 10.88455963 303.394989
vertex -84.97750092 11.70569611 303.5643921

endloop
endfacet
facet normal -0.3835685551 0.810716331 0.4422830343
outer loop
vertex -84.97750092 11.70569611 303.5643921
vertex -86.90840149 10.88455963 303.394989
vertex -84.96908569 11.53404999 303.886322

endloop
endfacet
facet normal -0.03697417304 0.8814046979 0.4709125161
outer loop
vertex -84.97750092 11.70569611 303.5643921
vertex -84.96908569 11.53404999 303.886322
vertex -82.59387207 11.77951813 303.6133728

endloop
endfacet
facet normal -0.03125318512 0.8630349636 0.5041764975
outer loop
vertex -82.59387207 11.77951813 303.6133728
vertex -84.96908569 11.53404999 303.886322
vertex -82.5941925 11.59842682 303.9233398

endloop
endfacet
facet normal -0.02196202241 0.8632442951 0.5043084621
outer loop
vertex -82.59387207 11.77951813 303.6133728
vertex -82.5941925 11.59842682 303.9233398
vertex -80.45439911 11.83721161 303.6077881

endloop
endfacet
facet normal -0.02183231711 0.8628900647 0.5049199462
outer loop
vertex -80.45439911 11.83721161 303.6077881
vertex -82.5941925 11.59842682 303.9233398
vertex -80.44355774 11.65409088 303.9212036

endloop
endfacet
facet normal -0.09309223294 0.8582695723 0.5046852827
outer loop
vertex -80.45439911 11.83721161 303.6077881
vertex -80.44355774 11.65409088 303.9212036
vertex -78.11222839 12.13681793 303.530304

endloop
endfacet
facet normal -0.09158790112 0.8552945852 0.5099832416
outer loop
vertex -78.11222839 12.13681793 303.530304
vertex -80.44355774 11.65409088 303.9212036
vertex -78.06690216 11.95670319 303.8405151

endloop
endfacet
facet normal -0.1509585232 0.845150888 0.5127684474
outer loop
vertex -78.11222839 12.13681793 303.530304
vertex -78.06690216 11.95670319 303.8405151
vertex -75.77150726 12.65639496 303.3630371

endloop
endfacet
facet normal -0.1486455202 0.8417811394 0.5189499855
outer loop
vertex -75.77150726 12.65639496 303.3630371
vertex -78.06690216 11.95670319 303.8405151
vertex -75.70536804 12.47811127 303.6711731

endloop
endfacet
facet normal -0.1330756843 0.8452141881 0.5175942779
outer loop
vertex -75.77150726 12.65639496 303.3630371
vertex -75.70536804 12.47811127 303.6711731
vertex -73.4868927 13.11666107 303.198822

endloop
endfacet
facet normal -0.1343689412 0.8471320868 0.5141130686
outer loop
vertex -73.4868927 13.11666107 303.198822
vertex -75.70536804 12.47811127 303.6711731
vertex -73.43819427 12.93636322 303.5086365

endloop
endfacet
facet normal -0.08096707612 0.8558744192 0.5108066201
outer loop
vertex -73.4868927 13.11666107 303.198822
vertex -73.43819427 12.93636322 303.5086365
vertex -71.1438446 13.37345123 303.1399536

endloop
endfacet
facet normal -0.08207985759 0.858224988 0.5066683888
outer loop
vertex -71.1438446 13.37345123 303.1399536
vertex -73.43819427 12.93636322 303.5086365
vertex -71.12290192 13.19121647 303.4520264

endloop
endfacet
facet normal -0.0740499869 0.8589593172 0.5066610575
outer loop
vertex -71.14385223 13.37345123 303.1399841
vertex -71.12289429 13.19121647 303.4519958
vertex -68.75133514 13.58699799 303.1276245

endloop
endfacet
facet normal -0.0742836073 0.8595330119 0.5056529045
outer loop
vertex -68.75133514 13.58699799 303.1276245
vertex -71.12289429 13.19121647 303.4519958
vertex -68.73564911 13.40444183 303.4402466

endloop
endfacet
facet normal -0.0582838282 0.8608022332 0.5055912733
outer loop
vertex -68.75133514 13.58699799 303.1276245
vertex -68.73564911 13.40444183 303.4402466
vertex -66.39919281 13.74930573 303.1224365

endloop
endfacet
facet normal -0.05828277022 0.8607994914 0.5055961013
outer loop
vertex -66.39919281 13.74930573 303.1224365
vertex -68.73564911 13.40444183 303.4402466
vertex -66.38783264 13.56649017 303.4349976

endloop
endfacet
facet normal -0.02182765491 0.8626582026 0.5053161383
outer loop
vertex -66.39918518 13.74930573 303.122467
vertex -66.38782501 13.56650543 303.4350281
vertex -64.03883362 13.81256866 303.1164246

endloop
endfacet
facet normal -0.0217896346 0.8625457883 0.5055096149
outer loop
vertex -64.03883362 13.81256866 303.1164246
vertex -66.38782501 13.56650543 303.4350281
vertex -64.03631592 13.62943268 303.4290161

endloop
endfacet
facet normal 0.01368849352 0.8627943993 0.5053694844
outer loop
vertex -64.03883362 13.81256866 303.1164246
vertex -64.03631592 13.62943268 303.4290161
vertex -61.64989471 13.77861786 303.1096802

endloop
endfacet
facet normal 0.01373001374 0.8626512289 0.5056129098
outer loop
vertex -61.64989471 13.77861786 303.1096802
vertex -64.03631592 13.62943268 303.4290161
vertex -61.6530838 13.5954361 303.4223022

endloop
endfacet
facet normal 0.02747815289 0.8623455167 0.505573988
outer loop
vertex -61.64989471 13.77861786 303.1096802
vertex -61.6530838 13.5954361 303.4223022
vertex -59.27823639 13.70757294 303.1019592

endloop
endfacet
facet normal 0.02747302502 0.8623641729 0.5055425763
outer loop
vertex -59.27823639 13.70757294 303.1019592
vertex -61.6530838 13.5954361 303.4223022
vertex -59.2828598 13.52445221 303.4145813

endloop
endfacet
facet normal 0.03159093857 0.8622326255 0.5055264235
outer loop
vertex -59.27823639 13.70757294 303.1019592
vertex -59.2828598 13.52445221 303.4145813
vertex -56.91963959 13.6261673 303.0934143

endloop
endfacet
facet normal 0.03157352656 0.8622964025 0.505418539
outer loop
vertex -56.91963959 13.6261673 303.0934143
vertex -59.2828598 13.52445221 303.4145813
vertex -56.92650604 13.44319916 303.4060059

endloop
endfacet
facet normal 0.06415260583 0.8606351614 0.5051649213
outer loop
vertex -56.91962433 13.62618256 303.0934448
vertex -56.92650604 13.44321442 303.4060364
vertex -54.55084991 13.45514679 303.0840149

endloop
endfacet
facet normal 0.06415937841 0.8606059551 0.5052137971
outer loop
vertex -54.55084991 13.45514679 303.0840149
vertex -56.92650604 13.44321442 303.4060364
vertex -54.56484222 13.27266693 303.396637

endloop
endfacet
facet normal 0.09211991727 0.8581654429 0.5050407052
outer loop
vertex -54.55084991 13.45514679 303.0840149
vertex -54.56484222 13.27266693 303.396637
vertex -52.22653961 13.2110672 303.0747986

endloop
endfacet
facet normal 0.09212338924 0.8581482768 0.5050691962
outer loop
vertex -52.22653961 13.2110672 303.0747986
vertex -54.56484222 13.27266693 303.396637
vertex -52.24701691 13.02930546 303.3873596

endloop
endfacet
facet normal 0.1280721277 0.8536707163 0.5048205853
outer loop
vertex -52.22653961 13.2110672 303.0747986
vertex -52.24701691 13.02930546 303.3873596
vertex -49.9083786 12.84859467 303.0996399

endloop
endfacet
facet normal 0.1284861118 0.8503684402 0.5102596879
outer loop
vertex -49.9083786 12.84859467 303.0996399
vertex -52.24701691 13.02930546 303.3873596
vertex -49.94846344 12.66814423 303.4104614

endloop
endfacet
facet normal 0.1020681188 0.8545325398 0.5092702508
outer loop
vertex -49.9083786 12.84859467 303.0996399
vertex -49.94846344 12.66814423 303.4104614
vertex -47.70822906 12.43260956 303.3566895

endloop
endfacet
facet normal 0.101005815 0.8384221792 0.5355801582
outer loop
vertex -47.70822906 12.43260956 303.3566895
vertex -49.94846344 12.66814423 303.4104614
vertex -47.79561615 12.25170135 303.6563721

endloop
endfacet
facet normal -0.07303940505 0.8630990386 0.499725312
outer loop
vertex -47.70822906 12.43260956 303.3566895
vertex -47.79561615 12.25170135 303.6563721
vertex -45.83213043 12.20005035 304.0325623

endloop
endfacet
facet normal -0.07639881968 0.8532324433 0.5159047246
outer loop
vertex -45.83213043 12.20005035 304.0325623
vertex -47.79561615 12.25170135 303.6563721
vertex -45.97141266 12.02106476 304.3079529

endloop
endfacet
facet normal -0.3608132303 0.8547875285 0.373030901
outer loop
vertex -45.83213043 12.2000351 304.0325623
vertex -45.97141266 12.02104855 304.3079834
vertex -43.75684357 12.51244354 305.3240051

endloop
endfacet
facet normal -0.3454155922 0.8794307113 0.3275508881
outer loop
vertex -43.75684357 12.51244354 305.3240051
vertex -45.97141266 12.02104855 304.3079834
vertex -43.93370819 12.34322357 305.5918274

endloop
endfacet
facet normal -0.1926419288 0.8820047379 0.4300661087
outer loop
vertex -43.75684357 12.51244354 305.3240051
vertex -43.93370819 12.34322357 305.5918274
vertex -41.8239975 12.38176727 306.4577942

endloop
endfacet
facet normal -nan(ind) -nan(ind) -nan(ind)
outer loop
vertex -41.8239975 12.38176727 306.4577942
vertex -43.93370819 12.34322357 305.5918274
vertex -41.8239975 12.38176727 306.4577942

endloop
endfacet
facet normal 0.2880938947 -0.1440469474 -0.9467060566
outer loop
vertex -86.90840149 10.88455963 303.394989
vertex -86.90839386 10.88457489 303.394989
vertex -84.96908569 11.53404999 303.886322

endloop
endfacet
facet normal -0.3674462736 0.507651031 0.7792776823
outer loop
vertex -84.96908569 11.53404999 303.886322
vertex -86.90839386 10.88457489 303.394989
vertex -84.95600891 11.25807953 304.0722656

endloop
endfacet
facet normal -0.02804739587 0.5576438308 0.8296063542
outer loop
vertex -84.96908569 11.53404999 303.886322
vertex -84.95600891 11.25807953 304.0722656
vertex -82.5941925 11.59842682 303.9233398

endloop
endfacet
facet normal -0.02594285272 0.5463442206 0.8371587992
outer loop
vertex -82.5941925 11.59842682 303.9233398
vertex -84.95600891 11.25807953 304.0722656
vertex -82.59450531 11.33411407 304.0958252

endloop
endfacet
facet normal -0.01331229415 0.5464692712 0.8373733759
outer loop
vertex -82.5941925 11.59842682 303.9233398
vertex -82.59450531 11.33411407 304.0958252
vertex -80.44355774 11.65409088 303.9212036

endloop
endfacet
facet normal -0.0131906867 0.5458671451 0.8377679586
outer loop
vertex -80.44355774 11.65409088 303.9212036
vertex -82.59450531 11.33411407 304.0958252
vertex -80.4307251 11.38729095 304.0952454

endloop
endfacet
facet normal -0.04089044407 0.5445224643 0.8377488852
outer loop
vertex -80.44355774 11.65409088 303.9212036
vertex -80.4307251 11.38729095 304.0952454
vertex -78.06690216 11.95670319 303.8405151

endloop
endfacet
facet normal -0.03927116096 0.5393334627 0.8411760926
outer loop
vertex -78.06690216 11.95670319 303.8405151
vertex -80.4307251 11.38729095 304.0952454
vertex -78.01462555 11.69425201 304.0112305

endloop
endfacet
facet normal -0.05800339207 0.536200285 0.8420954943
outer loop
vertex -78.06690216 11.95670319 303.8405151
vertex -78.01462555 11.69425201 304.0112305
vertex -75.70536804 12.47811127 303.6711731

endloop
endfacet
facet normal -0.0559976995 0.5316104889 0.8451358676
outer loop
vertex -75.70536804 12.47811127 303.6711731
vertex -78.01462555 11.69425201 304.0112305
vertex -75.63150024 12.21837616 303.839447

endloop
endfacet
facet normal -0.04731852561 0.5336070657 0.8444077373
outer loop
vertex -75.70536804 12.47811127 303.6711731
vertex -75.63150024 12.21837616 303.839447
vertex -73.43819427 12.93636322 303.5086365

endloop
endfacet
facet normal -0.04851555079 0.5364125967 0.8425602317
outer loop
vertex -73.43819427 12.93636322 303.5086365
vertex -75.63150024 12.21837616 303.839447
vertex -73.38356781 12.67368317 303.6790161

endloop
endfacet
facet normal -0.03864344209 0.5380991101 0.8419952989
outer loop
vertex -73.43819427 12.93636322 303.5086365
vertex -73.38356781 12.67368317 303.6790161
vertex -71.12290192 13.19121647 303.4520264

endloop
endfacet
facet normal -0.04006740078 0.5429278016 0.8388229609
outer loop
vertex -71.12290192 13.19121647 303.4520264
vertex -73.38356781 12.67368317 303.6790161
vertex -71.09590149 12.92568207 303.6251831

endloop
endfacet
facet normal -0.04433519766 0.5425928831 0.8388249874
outer loop
vertex -71.12289429 13.19121647 303.4519958
vertex -71.09590149 12.92568207 303.6251831
vertex -68.73564911 13.40444183 303.4402466

endloop
endfacet
facet normal -0.04469903558 0.5440214276 0.837879777
outer loop
vertex -68.73564911 13.40444183 303.4402466
vertex -71.09590149 12.92568207 303.6251831
vertex -68.71324158 13.13846588 303.6141357

endloop
endfacet
facet normal -0.03572593629 0.5447496176 0.8378373981
outer loop
vertex -68.73564911 13.40444183 303.4402466
vertex -68.71324158 13.13846588 303.6141357
vertex -66.38783264 13.56649017 303.4349976

endloop
endfacet
facet normal -0.0357308127 0.54477036 0.837823689
outer loop
vertex -66.38783264 13.56649017 303.4349976
vertex -68.71324158 13.13846588 303.6141357
vertex -66.37194824 13.30014801 303.6088562

endloop
endfacet
facet normal -0.01247091405 0.5460503697 0.8376594186
outer loop
vertex -66.38782501 13.56650543 303.4350281
vertex -66.37194061 13.30016327 303.6088867
vertex -64.03631592 13.62943268 303.4290161

endloop
endfacet
facet normal -0.01247306634 0.546061635 0.8376521468
outer loop
vertex -64.03631592 13.62943268 303.4290161
vertex -66.37194061 13.30016327 303.6088867
vertex -64.03333282 13.36266327 303.6029663

endloop
endfacet
facet normal 0.01015176065 0.546253562 0.8375583887
outer loop
vertex -64.03631592 13.62943268 303.4290161
vertex -64.03333282 13.36266327 303.6029663
vertex -61.6530838 13.5954361 303.4223022

endloop
endfacet
facet normal 0.01020802278 0.5458711386 0.8378069401
outer loop
vertex -61.6530838 13.5954361 303.4223022
vertex -64.03333282 13.36266327 303.6029663
vertex -61.65857697 13.32860565 303.5962219

endloop
endfacet
facet normal 0.01907094195 0.5456721783 0.8377817273
outer loop
vertex -61.6530838 13.5954361 303.4223022
vertex -61.65857697 13.32860565 303.5962219
vertex -59.2828598 13.52445221 303.4145813

endloop
endfacet
facet normal 0.01908596233 0.545558393 0.8378553987
outer loop
vertex -59.2828598 13.52445221 303.4145813
vertex -61.65857697 13.32860565 303.5962219
vertex -59.29058075 13.25766754 303.5884705

endloop
endfacet
facet normal 0.02185837552 0.5454711318 0.8378445506
outer loop
vertex -59.2828598 13.52445221 303.4145813
vertex -59.29058075 13.25766754 303.5884705
vertex -56.92650604 13.44319916 303.4060059

endloop
endfacet
facet normal 0.0218319539 0.5456767678 0.8377113342
outer loop
vertex -56.92650604 13.44319916 303.4060059
vertex -59.29058075 13.25766754 303.5884705
vertex -56.93755341 13.17664337 303.5799255

endloop
endfacet
facet normal 0.04266925901 0.5447049141 0.8375415802
outer loop
vertex -56.92650604 13.44321442 303.4060364
vertex -56.93753815 13.17665863 303.5799561
vertex -54.56484222 13.27266693 303.396637

endloop
endfacet
facet normal 0.04267226905 0.5446715355 0.8375630975
outer loop
vertex -54.56484222 13.27266693 303.396637
vertex -56.93753815 13.17665863 303.5799561
vertex -54.5863266 13.00681305 303.5706177

endloop
endfacet
facet normal 0.06038211286 0.5431668162 0.8374508023
outer loop
vertex -54.56484222 13.27266693 303.396637
vertex -54.5863266 13.00681305 303.5706177
vertex -52.24701691 13.02930546 303.3873596

endloop
endfacet
facet normal 0.0603829883 0.5431523919 0.837460041
outer loop
vertex -52.24701691 13.02930546 303.3873596
vertex -54.5863266 13.00681305 303.5706177
vertex -52.27832794 12.764534 303.5613403

endloop
endfacet
facet normal 0.07661885768 0.5411931872 0.8374004364
outer loop
vertex -52.24701691 13.02930546 303.3873596
vertex -52.27832794 12.764534 303.5613403
vertex -49.94846344 12.66814423 303.4104614

endloop
endfacet
facet normal 0.07661981136 0.535490334 0.8410586119
outer loop
vertex -49.94846344 12.66814423 303.4104614
vertex -52.27832794 12.764534 303.5613403
vertex -49.99869537 12.40523529 303.582428

endloop
endfacet
facet normal 0.009936939925 0.5460359454 0.8377028704
outer loop
vertex -49.94846344 12.66814423 303.4104614
vertex -49.99869537 12.40523529 303.582428
vertex -47.79561615 12.25170135 303.6563721

endloop
endfacet
facet normal 0.007919868454 0.5238649845 0.8517645001
outer loop
vertex -47.79561615 12.25170135 303.6563721
vertex -49.99869537 12.40523529 303.582428
vertex -47.87192535 11.98813629 303.8191833

endloop
endfacet
facet normal -0.2158029526 0.5576217175 0.8015528917
outer loop
vertex -47.79561615 12.25170135 303.6563721
vertex -47.87192535 11.98813629 303.8191833
vertex -45.97141266 12.02106476 304.3079529

endloop
endfacet
facet normal -0.2173050344 0.5475370288 0.808072865
outer loop
vertex -45.97141266 12.02106476 304.3079529
vertex -47.87192535 11.98813629 303.8191833
vertex -46.05789948 11.75978947 304.461731

endloop
endfacet
facet normal -0.5042657256 0.5558341742 0.6608814597
outer loop
vertex -45.97141266 12.02104855 304.3079834
vertex -46.05791473 11.75980377 304.4617004
vertex -43.93370819 12.34322357 305.5918274

endloop
endfacet
facet normal -0.5031147599 0.5648958683 0.6540399194
outer loop
vertex -43.93370819 12.34322357 305.5918274
vertex -46.05791473 11.75980377 304.4617004
vertex -44.02048492 12.0711441 305.7600708

endloop
endfacet
facet normal -0.3208768666 0.5700460076 0.7563633919
outer loop
vertex -43.93370819 12.34322357 305.5918274
vertex -44.02048492 12.0711441 305.7600708
vertex -41.8239975 12.38176727 306.4577942

endloop
endfacet
facet normal 0.3285714686 -0.327192843 -0.8859941363
outer loop
vertex -41.8239975 12.38176727 306.4577942
vertex -44.02048492 12.0711441 305.7600708
vertex -41.82398224 12.38178253 306.4577942

endloop
endfacet
facet normal -0.32773754 0 0.9447687864
outer loop
vertex -86.90839386 10.88457489 303.394989
vertex -86.90839386 10.88455963 303.394989
vertex -84.95600891 11.25807953 304.0722656

endloop
endfacet
facet normal -0.3400629759 0.07825630903 0.937140882
outer loop
vertex -84.95600891 11.25807953 304.0722656
vertex -86.90839386 10.88455963 303.394989
vertex -84.94186401 10.95189667 304.1029663

endloop
endfacet
facet normal -0.01311919186 0.09916018695 0.994985044
outer loop
vertex -84.95600891 11.25807953 304.0722656
vertex -84.94186401 10.95189667 304.1029663
vertex -82.59450531 11.33411407 304.0958252

endloop
endfacet
facet normal -0.01614493132 0.1177038997 0.9929174781
outer loop
vertex -82.59450531 11.33411407 304.0958252
vertex -84.94186401 10.95189667 304.1029663
vertex -82.59477997 11.04677582 304.1298828

endloop
endfacet
facet normal -0.002626627218 0.1177061051 0.993045032
outer loop
vertex -82.59450531 11.33411407 304.0958252
vertex -82.59477997 11.04677582 304.1298828
vertex -80.4307251 11.38729095 304.0952454

endloop
endfacet
facet normal -0.002444536891 0.1165626496 0.9931803346
outer loop
vertex -80.4307251 11.38729095 304.0952454
vertex -82.59477997 11.04677582 304.1298828
vertex -80.41841888 11.0973587 304.129303

endloop
endfacet
facet normal 0.01960195787 0.1174635813 0.9928837419
outer loop
vertex -80.4307251 11.38729095 304.0952454
vertex -80.41841888 11.0973587 304.129303
vertex -78.01462555 11.69425201 304.0112305

endloop
endfacet
facet normal 0.02094736509 0.1121612042 0.9934692383
outer loop
vertex -78.01462555 11.69425201 304.0112305
vertex -80.41841888 11.0973587 304.129303
vertex -77.96536255 11.40906525 304.0423889

endloop
endfacet
facet normal 0.04593203962 0.1163326502 0.9921476841
outer loop
vertex -78.01462555 11.69425201 304.0112305
vertex -77.96536255 11.40906525 304.0423889
vertex -75.63150024 12.21837616 303.839447

endloop
endfacet
facet normal 0.0472677052 0.1125738025 0.992518425
outer loop
vertex -75.63150024 12.21837616 303.839447
vertex -77.96536255 11.40906525 304.0423889
vertex -75.56358337 11.93613434 303.8682251

endloop
endfacet
facet normal 0.04799484089 0.1127433106 0.9924643636
outer loop
vertex -75.63150024 12.21837616 303.839447
vertex -75.56358337 11.93613434 303.8682251
vertex -73.38356781 12.67368317 303.6790161

endloop
endfacet
facet normal 0.04698870704 0.115643844 0.9921787381
outer loop
vertex -73.38356781 12.67368317 303.6790161
vertex -75.56358337 11.93613434 303.8682251
vertex -73.33317566 12.388237 303.7098999

endloop
endfacet
facet normal 0.01132277772 0.1095356941 0.9939182997
outer loop
vertex -73.38356781 12.67368317 303.6790161
vertex -73.33317566 12.388237 303.7098999
vertex -71.09590149 12.92568207 303.6251831

endloop
endfacet
facet normal 0.009530232288 0.1168689579 0.9931015968
outer loop
vertex -71.09590149 12.92568207 303.6251831
vertex -73.33317566 12.388237 303.7098999
vertex -71.06851196 12.63715363 303.6588745

endloop
endfacet
facet normal -0.00569571415 0.11534895 0.993308723
outer loop
vertex -71.09590149 12.92568207 303.6251831
vertex -71.06851959 12.63716888 303.658844
vertex -68.71324158 13.13846588 303.6141357

endloop
endfacet
facet normal -0.006213844288 0.1177578345 0.9930229187
outer loop
vertex -68.71324158 13.13846588 303.6141357
vertex -71.06851959 12.63716888 303.658844
vertex -68.68915558 12.84944916 303.6485596

endloop
endfacet
facet normal -0.005894570611 0.117784299 0.9930217266
outer loop
vertex -68.71324158 13.13846588 303.6141357
vertex -68.68915558 12.84944916 303.6485596
vertex -66.37194824 13.30014801 303.6088562

endloop
endfacet
facet normal -0.005910703447 0.117866382 0.9930118918
outer loop
vertex -66.37194824 13.30014801 303.6088562
vertex -68.68915558 12.84944916 303.6485596
vertex -66.35508728 13.0107193 303.6433105

endloop
endfacet
facet normal -0.0006442972226 0.1181709394 0.9929930568
outer loop
vertex -66.37194061 13.30016327 303.6088867
vertex -66.35508728 13.01073456 303.6433411
vertex -64.03333282 13.36266327 303.6029663

endloop
endfacet
facet normal -0.0006198277697 0.1180117056 0.9930120111
outer loop
vertex -64.03333282 13.36266327 303.6029663
vertex -66.35508728 13.01073456 303.6433411
vertex -64.03045654 13.07276154 303.6374207

endloop
endfacet
facet normal 0.004513312131 0.1180607453 0.9929961562
outer loop
vertex -64.03333282 13.36266327 303.6029663
vertex -64.03045654 13.07276154 303.6374207
vertex -61.65857697 13.32860565 303.5962219

endloop
endfacet
facet normal 0.00451965956 0.1180029884 0.9930029511
outer loop
vertex -61.65857697 13.32860565 303.5962219
vertex -64.03045654 13.07276154 303.6374207
vertex -61.6649704 13.03865814 303.6307068

endloop
endfacet
facet normal 0.006783999037 0.1179522574 0.9929960966
outer loop
vertex -61.65857697 13.32860565 303.5962219
vertex -61.6649704 13.03865814 303.6307068
vertex -59.29058075 13.25766754 303.5884705

endloop
endfacet
facet normal 0.006776845548 0.1180280522 0.9929870963
outer loop
vertex -59.29058075 13.25766754 303.5884705
vertex -61.6649704 13.03865814 303.6307068
vertex -59.29949188 12.96779633 303.6229858

endloop
endfacet
facet normal 0.007669202518 0.1180002466 0.9929839373
outer loop
vertex -59.29058075 13.25766754 303.5884705
vertex -59.29949188 12.96779633 303.6229858
vertex -56.93755341 13.17664337 303.5799255

endloop
endfacet
facet normal 0.007669500075 0.1179969758 0.9929843545
outer loop
vertex -56.93755341 13.17664337 303.5799255
vertex -59.29949188 12.96779633 303.6229858
vertex -56.95011139 12.88700104 303.6144409

endloop
endfacet
facet normal 0.01246021129 0.1178957447 0.9929477572
outer loop
vertex -56.93753815 13.17665863 303.5799561
vertex -56.95009613 12.88703156 303.614502
vertex -54.5863266 13.00681305 303.5706177

endloop
endfacet
facet normal 0.01246445067 0.1178155839 0.992957294
outer loop
vertex -54.5863266 13.00681305 303.5706177
vertex -56.95009613 12.88703156 303.614502
vertex -54.61026764 12.71793365 303.6051941

endloop
endfacet
facet normal 0.01632499136 0.1174935028 0.9929394722
outer loop
vertex -54.5863266 13.00681305 303.5706177
vertex -54.61026764 12.71793365 303.6051941
vertex -52.27832794 12.764534 303.5613403

endloop
endfacet
facet normal 0.01632355712 0.1175579131 0.9929318428
outer loop
vertex -52.27832794 12.764534 303.5613403
vertex -54.61026764 12.71793365 303.6051941
vertex -52.31317902 12.47681427 303.5959778

endloop
endfacet
facet normal 0.009474202059 0.1183864474 0.9929224253
outer loop
vertex -52.27832794 12.764534 303.5613403
vertex -52.31317902 12.47681427 303.5959778
vertex -49.99869537 12.40523529 303.582428

endloop
endfacet
facet normal 0.009292372502 0.1123745516 0.9936224818
outer loop
vertex -49.99869537 12.40523529 303.582428
vertex -52.31317902 12.47681427 303.5959778
vertex -50.04885101 12.11957645 303.6152039

endloop
endfacet
facet normal -0.08484127373 0.1282692105 0.9881036878
outer loop
vertex -49.99869537 12.40523529 303.582428
vertex -50.04885101 12.11957645 303.6152039
vertex -47.87192535 11.98813629 303.8191833

endloop
endfacet
facet normal -0.08623278141 0.1086776629 0.990329802
outer loop
vertex -47.87192535 11.98813629 303.8191833
vertex -50.04885101 12.11957645 303.6152039
vertex -47.92685699 11.7017746 303.8458252

endloop
endfacet
facet normal -0.3136925101 0.1474425197 0.9380072951
outer loop
vertex -47.87192535 11.98813629 303.8191833
vertex -47.92685699 11.7017746 303.8458252
vertex -46.05789948 11.75978947 304.461731

endloop
endfacet
facet normal -0.3138867021 0.1359059364 0.9396833181
outer loop
vertex -46.05789948 11.75978947 304.461731
vertex -47.92685699 11.7017746 303.8458252
vertex -46.08785248 11.47580719 304.4927979

endloop
endfacet
facet normal -0.547477901 0.147930339 0.8236411214
outer loop
vertex -46.05791473 11.75980377 304.4617004
vertex -46.08786774 11.47580719 304.4927979
vertex -44.02048492 12.0711441 305.7600708

endloop
endfacet
facet normal -0.5432254076 0.116511777 0.8314632773
outer loop
vertex -44.02048492 12.0711441 305.7600708
vertex -46.08786774 11.47580719 304.4927979
vertex -44.01189423 11.76927853 305.8079834

endloop
endfacet
facet normal -0.3176778853 0.1398138702 0.937834084
outer loop
vertex -44.02048492 12.0711441 305.7600708
vertex -44.01189423 11.76927853 305.8079834
vertex -41.82398224 12.38178253 306.4577942

endloop
endfacet
facet normal -0.356200248 0.355130583 0.8642936945
outer loop
vertex -41.82398224 12.38178253 306.4577942
vertex -44.01189423 11.76927853 305.8079834
vertex -41.8239975 12.38176727 306.4577942

endloop
endfacet
facet normal 0 0.9955072403 -0.09468454868
outer loop
vertex -86.90839386 10.88455963 303.394989
vertex -86.90840149 10.88455963 303.394989
vertex -84.94186401 10.95189667 304.1029663

endloop
endfacet
facet normal -0.305123657 -0.3597387075 0.8817526102
outer loop
vertex -84.94186401 10.95189667 304.1029663
vertex -86.90840149 10.88455963 303.394989
vertex -84.92887115 10.66082001 303.9887085

endloop
endfacet
facet normal 0.004088507965 -0.3652314842 0.9309077859
outer loop
vertex -84.94186401 10.95189667 304.1029663
vertex -84.92887115 10.66082001 303.9887085
vertex -82.59477997 11.04677582 304.1298828

endloop
endfacet
facet normal -0.002076705685 -0.3324176371 0.9431300163
outer loop
vertex -82.59477997 11.04677582 304.1298828
vertex -84.92887115 10.66082001 303.9887085
vertex -82.59499359 10.7572403 304.027832

endloop
endfacet
facet normal 0.007977223024 -0.3324143589 0.9430996776
outer loop
vertex -82.59477997 11.04677582 304.1298828
vertex -82.59499359 10.7572403 304.027832
vertex -80.41841888 11.0973587 304.129303

endloop
endfacet
facet normal 0.008200773038 -0.3337080479 0.9426407814
outer loop
vertex -80.41841888 11.0973587 304.129303
vertex -82.59499359 10.7572403 304.027832
vertex -80.40744019 10.80487823 304.0256653

endloop
endfacet
facet normal 0.07533288747 -0.3305302858 0.9407840967
outer loop
vertex -80.41841888 11.0973587 304.129303
vertex -80.40744019 10.80487823 304.0256653
vertex -77.96536255 11.40906525 304.0423889

endloop
endfacet
facet normal 0.07629345357 -0.3343730569 0.9393476844
outer loop
vertex -77.96536255 11.40906525 304.0423889
vertex -80.40744019 10.80487823 304.0256653
vertex -77.92240143 11.12137604 303.9364929

endloop
endfacet
facet normal 0.1389121711 -0.3237492144 0.9358898401
outer loop
vertex -77.96536255 11.40906525 304.0423889
vertex -77.92240143 11.12137604 303.9364929
vertex -75.56358337 11.93613434 303.8682251

endloop
endfacet
facet normal 0.1396913379 -0.3260826766 0.9349632859
outer loop
vertex -75.56358337 11.93613434 303.8682251
vertex -77.92240143 11.12137604 303.9364929
vertex -75.50605011 11.65137482 303.7603149

endloop
endfacet
facet normal 0.1328140944 -0.3276449144 0.9354193211
outer loop
vertex -75.56358337 11.93613434 303.8682251
vertex -75.50605011 11.65137482 303.7603149
vertex -73.33317566 12.388237 303.7098999

endloop
endfacet
facet normal 0.1318877041 -0.3248372078 0.9365289211
outer loop
vertex -73.33317566 12.388237 303.7098999
vertex -75.50605011 11.65137482 303.7603149
vertex -73.29032135 12.10024261 303.6039734

endloop
endfacet
facet normal 0.05821047723 -0.336971879 0.9397135377
outer loop
vertex -73.33317566 12.388237 303.7098999
vertex -73.29032135 12.10024261 303.6039734
vertex -71.06851196 12.63715363 303.6588745

endloop
endfacet
facet normal 0.05638680235 -0.3296999931 0.9424003363
outer loop
vertex -71.06851196 12.63715363 303.6588745
vertex -73.29032135 12.10024261 303.6039734
vertex -71.0426178 12.34604645 303.555481

endloop
endfacet
facet normal 0.03367155045 -0.3317359984 0.9427711964
outer loop
vertex -71.06851959 12.63716888 303.658844
vertex -71.04262543 12.34604645 303.555481
vertex -68.68915558 12.84944916 303.6485596

endloop
endfacet
facet normal 0.0331684649 -0.3295302689 0.9435622096
outer loop
vertex -68.68915558 12.84944916 303.6485596
vertex -71.04262543 12.34604645 303.555481
vertex -68.66514587 12.55782318 303.5458679

endloop
endfacet
facet normal 0.02493773587 -0.3302131295 0.943576932
outer loop
vertex -68.68915558 12.84944916 303.6485596
vertex -68.66514587 12.55782318 303.5458679
vertex -66.35508728 13.0107193 303.6433105

endloop
endfacet
facet normal 0.02499315143 -0.330475688 0.9434835315
outer loop
vertex -66.35508728 13.0107193 303.6433105
vertex -68.66514587 12.55782318 303.5458679
vertex -66.33847046 12.71871185 303.5405884

endloop
endfacet
facet normal 0.0112419622 -0.3312701285 0.9434689879
outer loop
vertex -66.35508728 13.01073456 303.6433411
vertex -66.33846283 12.71874237 303.5406189
vertex -64.03045654 13.07276154 303.6374207

endloop
endfacet
facet normal 0.01122536883 -0.3311715126 0.9435037971
outer loop
vertex -64.03045654 13.07276154 303.6374207
vertex -66.33846283 12.71874237 303.5406189
vertex -64.02789307 12.78028107 303.534729

endloop
endfacet
facet normal -0.002098344965 -0.3312955797 0.9435246587
outer loop
vertex -64.03045654 13.07276154 303.6374207
vertex -64.02789307 12.78028107 303.534729
vertex -61.6649704 13.03865814 303.6307068

endloop
endfacet
facet normal -0.00213707122 -0.3309822679 0.9436345696
outer loop
vertex -61.6649704 13.03865814 303.6307068
vertex -64.02789307 12.78028107 303.534729
vertex -61.67185211 12.74610138 303.5280762

endloop
endfacet
facet normal -0.00683188485 -0.3308769464 0.9436492324
outer loop
vertex -61.6649704 13.03865814 303.6307068
vertex -61.67185211 12.74610138 303.5280762
vertex -59.29949188 12.96779633 303.6229858

endloop
endfacet
facet normal -0.006831003353 -0.3308851123 0.9436463714
outer loop
vertex -59.29949188 12.96779633 303.6229858
vertex -61.67185211 12.74610138 303.5280762
vertex -59.30893707 12.6753006 303.5203552

endloop
endfacet
facet normal -0.007945811376 -0.3308503628 0.9436498284
outer loop
vertex -59.29949188 12.96779633 303.6229858
vertex -59.30893707 12.6753006 303.5203552
vertex -56.95011139 12.88700104 303.6144409

endloop
endfacet
facet normal -0.007937064394 -0.3309346735 0.9436202645
outer loop
vertex -56.95011139 12.88700104 303.6144409
vertex -59.30893707 12.6753006 303.5203552
vertex -56.96326447 12.59476471 303.5118408

endloop
endfacet
facet normal -0.02012207918 -0.3303734064 0.9436358213
outer loop
vertex -56.95009613 12.88703156 303.614502
vertex -56.96326447 12.59477997 303.5119019
vertex -54.61026764 12.71793365 303.6051941

endloop
endfacet
facet normal -0.02012557536 -0.3303205967 0.9436542988
outer loop
vertex -54.61026764 12.71793365 303.6051941
vertex -56.96326447 12.59477997 303.5119019
vertex -54.63495636 12.42650604 303.502655

endloop
endfacet
facet normal -0.03079275601 -0.3294257224 0.9436792135
outer loop
vertex -54.61026764 12.71793365 303.6051941
vertex -54.63495636 12.42650604 303.502655
vertex -52.31317902 12.47681427 303.5959778

endloop
endfacet
facet normal -0.03079294227 -0.3294204473 0.9436810017
outer loop
vertex -52.31317902 12.47681427 303.5959778
vertex -54.63495636 12.42650604 303.502655
vertex -52.34906769 12.18651581 303.4934692

endloop
endfacet
facet normal -0.05941826478 -0.3258377016 0.9435566664
outer loop
vertex -52.31317902 12.47681427 303.5959778
vertex -52.34906769 12.18651581 303.4934692
vertex -50.04885101 12.11957645 303.6152039

endloop
endfacet
facet normal -0.05946562812 -0.3302851021 0.9420061707
outer loop
vertex -50.04885101 12.11957645 303.6152039
vertex -52.34906769 12.18651581 303.4934692
vertex -50.09545135 11.83133698 303.5112

endloop
endfacet
facet normal -0.1630628258 -0.3114317358 0.9361734986
outer loop
vertex -50.04885101 12.11957645 303.6152039
vertex -50.09545135 11.83133698 303.5112
vertex -47.92685699 11.7017746 303.8458252

endloop
endfacet
facet normal -0.1631663442 -0.3265800476 0.9309791327
outer loop
vertex -47.92685699 11.7017746 303.8458252
vertex -50.09545135 11.83133698 303.5112
vertex -47.95745087 11.41283417 303.7391052

endloop
endfacet
facet normal -0.3491328061 -0.2919177115 0.8904439211
outer loop
vertex -47.92685699 11.7017746 303.8458252
vertex -47.95745087 11.41283417 303.7391052
vertex -46.08785248 11.47580719 304.4927979

endloop
endfacet
facet normal -0.3465621769 -0.3094084263 0.8855287433
outer loop
vertex -46.08785248 11.47580719 304.4927979
vertex -47.95745087 11.41283417 303.7391052
vertex -46.06125641 11.18958282 304.4031982

endloop
endfacet
facet normal -0.4792203009 -0.3024767637 0.8239269853
outer loop
vertex -46.08786774 11.47580719 304.4927979
vertex -46.06125641 11.18958282 304.4031982
vertex -44.01189423 11.76927853 305.8079834

endloop
endfacet
facet normal -0.4626852274 -0.3441437483 0.8169990778
outer loop
vertex -44.01189423 11.76927853 305.8079834
vertex -46.06125641 11.18958282 304.4031982
vertex -43.91886139 11.48227692 305.7397766

endloop
endfacet
facet normal -0.198040694 -0.286937207 0.9372549653
outer loop
vertex -44.01189423 11.76927853 305.8079834
vertex -43.91886139 11.48227692 305.7397766
vertex -41.8239975 12.38176727 306.4577942

endloop
endfacet
facet normal -nan(ind) -nan(ind) -nan(ind)
outer loop
vertex -41.8239975 12.38176727 306.4577942
vertex -43.91886139 11.48227692 305.7397766
vertex -41.8239975 12.38176727 306.4577942

endloop
endfacet
facet normal -nan(ind) -nan(ind) -nan(ind)
outer loop
vertex -86.90840149 10.88455963 303.394989
vertex -86.90840149 10.88455963 303.394989
vertex -84.92887115 10.66082001 303.9887085

endloop
endfacet
facet normal -0.2732875943 -0.7173942327 0.6408271194
outer loop
vertex -84.92887115 10.66082001 303.9887085
vertex -86.90840149 10.88455963 303.394989
vertex -84.91964722 10.44284821 303.7486267

endloop
endfacet
facet normal 0.01929359511 -0.7398696542 0.6724736094
outer loop
vertex -84.92887115 10.66082001 303.9887085
vertex -84.91964722 10.44284821 303.7486267
vertex -82.59499359 10.7572403 304.027832

endloop
endfacet
facet normal 0.01030071918 -0.7054943442 0.7086406946
outer loop
vertex -82.59499359 10.7572403 304.027832
vertex -84.91964722 10.44284821 303.7486267
vertex -82.59508514 10.52384186 303.7954712

endloop
endfacet
facet normal 0.01606412418 -0.7054418325 0.7085856795
outer loop
vertex -82.59499359 10.7572403 304.027832
vertex -82.59508514 10.52384186 303.7954712
vertex -80.40744019 10.80487823 304.0256653

endloop
endfacet
facet normal 0.01619696803 -0.7060098648 0.7080166936
outer loop
vertex -80.40744019 10.80487823 304.0256653
vertex -82.59508514 10.52384186 303.7954712
vertex -80.40016174 10.56881046 303.7901001

endloop
endfacet
facet normal 0.1144424975 -0.6999418139 0.7049711943
outer loop
vertex -80.40744019 10.80487823 304.0256653
vertex -80.40016174 10.56881046 303.7901001
vertex -77.92240143 11.12137604 303.9364929

endloop
endfacet
facet normal 0.1151180342 -0.7023154497 0.702496171
outer loop
vertex -77.92240143 11.12137604 303.9364929
vertex -80.40016174 10.56881046 303.7901001
vertex -77.89512634 10.88915253 303.6998596

endloop
endfacet
facet normal 0.2016372979 -0.6873471737 0.6977794766
outer loop
vertex -77.92240143 11.12137604 303.9364929
vertex -77.89512634 10.88915253 303.6998596
vertex -75.50605011 11.65137482 303.7603149

endloop
endfacet
facet normal 0.202480197 -0.6897790432 0.6951307058
outer loop
vertex -75.50605011 11.65137482 303.7603149
vertex -77.89512634 10.88915253 303.6998596
vertex -75.47174072 11.42156219 303.5222778

endloop
endfacet
facet normal 0.1894210726 -0.6926175952 0.6959888935
outer loop
vertex -75.50605011 11.65137482 303.7603149
vertex -75.47174072 11.42156219 303.5222778
vertex -73.29032135 12.10024261 303.6039734

endloop
endfacet
facet normal 0.1885936409 -0.6902658343 0.6985453367
outer loop
vertex -73.29032135 12.10024261 303.6039734
vertex -75.47174072 11.42156219 303.5222778
vertex -73.26451874 11.86782074 303.3673401

endloop
endfacet
facet normal 0.09229680151 -0.7053318024 0.7028430104
outer loop
vertex -73.29032135 12.10024261 303.6039734
vertex -73.26451874 11.86782074 303.3673401
vertex -71.0426178 12.34604645 303.555481

endloop
endfacet
facet normal 0.09076584131 -0.7002778053 0.7080765963
outer loop
vertex -71.0426178 12.34604645 303.555481
vertex -73.26451874 11.86782074 303.3673401
vertex -71.02362061 12.11109161 303.3206787

endloop
endfacet
facet normal 0.06545519084 -0.7026621103 0.7085065842
outer loop
vertex -71.04262543 12.34604645 303.555481
vertex -71.02362823 12.11109161 303.3207092
vertex -68.66514587 12.55782318 303.5458679

endloop
endfacet
facet normal 0.06507604569 -0.7013384104 0.7098517418
outer loop
vertex -68.66514587 12.55782318 303.5458679
vertex -71.02362823 12.11109161 303.3207092
vertex -68.64600372 12.3224411 303.311554

endloop
endfacet
facet normal 0.05019213259 -0.7025545835 0.709857583
outer loop
vertex -68.66514587 12.55782318 303.5458679
vertex -68.64600372 12.3224411 303.311554
vertex -66.33847046 12.71871185 303.5405884

endloop
endfacet
facet normal 0.0502329655 -0.7027047873 0.7097060084
outer loop
vertex -66.33847046 12.71871185 303.5405884
vertex -68.64600372 12.3224411 303.311554
vertex -66.32545471 12.4830246 303.3063049

endloop
endfacet
facet normal 0.02056506462 -0.7042250633 0.7096788883
outer loop
vertex -66.33846283 12.71874237 303.5406189
vertex -66.32544708 12.4830246 303.3063354
vertex -64.02789307 12.78028107 303.534729

endloop
endfacet
facet normal 0.020526601 -0.7040567994 0.7098469138
outer loop
vertex -64.02789307 12.78028107 303.534729
vertex -66.32544708 12.4830246 303.3063354
vertex -64.02620697 12.54421234 303.3005371

endloop
endfacet
facet normal -0.008212756366 -0.7042849064 0.7098699808
outer loop
vertex -64.02789307 12.78028107 303.534729
vertex -64.02620697 12.54421234 303.3005371
vertex -61.67185211 12.74610138 303.5280762

endloop
endfacet
facet normal -0.008241454139 -0.7041267157 0.7100265026
outer loop
vertex -61.67185211 12.74610138 303.5280762
vertex -64.02620697 12.54421234 303.3005371
vertex -61.67784882 12.5100174 303.2938843

endloop
endfacet
facet normal -0.01877077855 -0.7038916945 0.7100592256
outer loop
vertex -61.67185211 12.74610138 303.5280762
vertex -61.67784882 12.5100174 303.2938843
vertex -59.30893707 12.6753006 303.5203552

endloop
endfacet
facet normal -0.01877753995 -0.7038505077 0.7100999355
outer loop
vertex -59.30893707 12.6753006 303.5203552
vertex -61.67784882 12.5100174 303.2938843
vertex -59.31710052 12.43924713 303.2861633

endloop
endfacet
facet normal -0.02158524469 -0.7037616372 0.710108161
outer loop
vertex -59.30893707 12.6753006 303.5203552
vertex -59.31710052 12.43924713 303.2861633
vertex -56.96326447 12.59476471 303.5118408

endloop
endfacet
facet normal -0.02157827839 -0.7038050294 0.7100653648
outer loop
vertex -56.96326447 12.59476471 303.5118408
vertex -59.31710052 12.43924713 303.2861633
vertex -56.97446442 12.35886383 303.2776794

endloop
endfacet
facet normal -0.04795923829 -0.7025975585 0.7099693418
outer loop
vertex -56.96326447 12.59477997 303.5119019
vertex -56.97444916 12.35889435 303.27771
vertex -54.63495636 12.42650604 303.502655

endloop
endfacet
facet normal -0.04797326401 -0.7024838328 0.7100810409
outer loop
vertex -54.63495636 12.42650604 303.502655
vertex -56.97444916 12.35889435 303.27771
vertex -54.65549469 12.19127655 303.2685547

endloop
endfacet
facet normal -0.0706935674 -0.7005308867 0.7101119161
outer loop
vertex -54.63495636 12.42650604 303.502655
vertex -54.65549469 12.19127655 303.2685547
vertex -52.34906769 12.18651581 303.4934692

endloop
endfacet
facet normal -0.07069763541 -0.7004871964 0.7101545334
outer loop
vertex -52.34906769 12.18651581 303.4934692
vertex -54.65549469 12.19127655 303.2685547
vertex -52.37880707 11.9522171 303.2593994

endloop
endfacet
facet normal -0.1150764003 -0.6947174668 0.7100176215
outer loop
vertex -52.34906769 12.18651581 303.4934692
vertex -52.37880707 11.9522171 303.2593994
vertex -50.09545135 11.83133698 303.5112

endloop
endfacet
facet normal -0.1149099022 -0.6977749467 0.7070401311
outer loop
vertex -50.09545135 11.83133698 303.5112
vertex -52.37880707 11.9522171 303.2593994
vertex -50.12866974 11.59867096 303.2761841

endloop
endfacet
facet normal -0.2080734819 -0.6802336574 0.7028424144
outer loop
vertex -50.09545135 11.83133698 303.5112
vertex -50.12866974 11.59867096 303.2761841
vertex -47.95745087 11.41283417 303.7391052

endloop
endfacet
facet normal -0.2065353394 -0.6933600307 0.6903586984
outer loop
vertex -47.95745087 11.41283417 303.7391052
vertex -50.12866974 11.59867096 303.2761841
vertex -47.95467377 11.17961884 303.5057068

endloop
endfacet
facet normal -0.3136984408 -0.673541069 0.6692800522
outer loop
vertex -47.95745087 11.41283417 303.7391052
vertex -47.95467377 11.17961884 303.5057068
vertex -46.06125641 11.18958282 304.4031982

endloop
endfacet
facet normal -0.305896014 -0.6928023696 0.6530333757
outer loop
vertex -46.06125641 11.18958282 304.4031982
vertex -47.95467377 11.17961884 303.5057068
vertex -45.97725677 10.95890045 304.1978149

endloop
endfacet
facet normal -0.3113063276 -0.6926193237 0.6506664157
outer loop
vertex -46.06125641 11.18958282 304.4031982
vertex -45.97725677 10.95888519 304.1978149
vertex -43.91886139 11.48227692 305.7397766

endloop
endfacet
facet normal -0.2871440947 -0.7227464914 0.6286379695
outer loop
vertex -43.91886139 11.48227692 305.7397766
vertex -45.97725677 10.95888519 304.1978149
vertex -43.75807953 11.2673111 305.5660706

endloop
endfacet
facet normal 0.002483807737 -0.6273853779 0.7787049413
outer loop
vertex -43.91886139 11.48227692 305.7397766
vertex -43.75807953 11.2673111 305.5660706
vertex -41.8239975 12.38176727 306.4577942

endloop
endfacet
facet normal -nan(ind) -nan(ind) -nan(ind)
outer loop
vertex -41.8239975 12.38176727 306.4577942
vertex -43.75807953 11.2673111 305.5660706
vertex -41.8239975 12.38176727 306.4577942

endloop
endfacet
facet normal 0.2708674669 0.8321977258 -0.4838157296
outer loop
vertex -86.90840912 10.88454437 303.3949585
vertex -86.90840149 10.88455963 303.394989
vertex -84.91965485 10.44284821 303.7486267

endloop
endfacet
facet normal -0.2490889281 -0.9422483444 0.2238813341
outer loop
vertex -84.91965485 10.44284821 303.7486267
vertex -86.90840149 10.88455963 303.394989
vertex -84.91660309 10.35243988 303.371521

endloop
endfacet
facet normal 0.02916549146 -0.9719768763 0.2332603335
outer loop
vertex -84.91965485 10.44284821 303.7486267
vertex -84.91660309 10.35243988 303.371521
vertex -82.59509277 10.52384186 303.7954712

endloop
endfacet
facet normal 0.01908251643 -0.9588775635 0.2831777632
outer loop
vertex -82.59509277 10.52384186 303.7954712
vertex -84.91660309 10.35243988 303.371521
vertex -82.59501648 10.40969086 303.4089355

endloop
endfacet
facet normal 0.02032769099 -0.95885396 0.2831709981
outer loop
vertex -82.59509277 10.52384186 303.7954712
vertex -82.59501648 10.40969086 303.4089355
vertex -80.40016937 10.56877899 303.7900696

endloop
endfacet
facet normal 0.020305885 -0.9588214159 0.2832829952
outer loop
vertex -80.40016937 10.56877899 303.7900696
vertex -82.59501648 10.40969086 303.4089355
vertex -80.39948273 10.45304108 303.3982849

endloop
endfacet
facet normal 0.1316914558 -0.9506135583 0.2810535431
outer loop
vertex -80.40016937 10.56877899 303.7900696
vertex -80.39948273 10.45304108 303.3982849
vertex -77.8951416 10.88913727 303.6998596

endloop
endfacet
facet normal 0.1323840767 -0.9517306089 0.2769172788
outer loop
vertex -77.8951416 10.88913727 303.6998596
vertex -80.39948273 10.45304108 303.3982849
vertex -77.89519501 10.77532196 303.3087158

endloop
endfacet
facet normal 0.2254607975 -0.9354627132 0.2721708119
outer loop
vertex -77.8951416 10.88913727 303.6998596
vertex -77.89519501 10.77532196 303.3087158
vertex -75.47174072 11.42154694 303.5222778

endloop
endfacet
facet normal 0.2262931615 -0.9368084669 0.2667978704
outer loop
vertex -75.47174072 11.42154694 303.5222778
vertex -77.89519501 10.77532196 303.3087158
vertex -75.47692108 11.3088913 303.1311035

endloop
endfacet
facet normal 0.2089626491 -0.940461576 0.2680794597
outer loop
vertex -75.47174072 11.42154694 303.5222778
vertex -75.47692108 11.3088913 303.1311035
vertex -73.264534 11.86780453 303.3673401

endloop
endfacet
facet normal 0.2082763612 -0.9394528866 0.2721199691
outer loop
vertex -73.264534 11.86780453 303.3673401
vertex -75.47692108 11.3088913 303.1311035
vertex -73.26785278 11.7538681 302.976532

endloop
endfacet
facet normal 0.1094038859 -0.9545190334 0.2773519754
outer loop
vertex -73.264534 11.86780453 303.3673401
vertex -73.26785278 11.7538681 302.976532
vertex -71.02362823 12.11109161 303.3206787

endloop
endfacet
facet normal 0.10833323 -0.9530414343 0.2828000784
outer loop
vertex -71.02362823 12.11109161 303.3206787
vertex -73.26785278 11.7538681 302.976532
vertex -71.01776886 11.99591827 302.9302979

endloop
endfacet
facet normal 0.08600095659 -0.9552236795 0.2831103802
outer loop
vertex -71.02363586 12.11109161 303.3206787
vertex -71.01776886 11.99591827 302.9302979
vertex -68.64601135 12.3224411 303.3115234

endloop
endfacet
facet normal 0.08575512469 -0.9548791051 0.2843447626
outer loop
vertex -68.64601135 12.3224411 303.3115234
vertex -71.01776886 11.99591827 302.9302979
vertex -68.63710022 12.20703888 302.9212952

endloop
endfacet
facet normal 0.0668195039 -0.9563868046 0.2843581736
outer loop
vertex -68.64601135 12.3224411 303.3115234
vertex -68.63710022 12.20703888 302.9212952
vertex -66.32546234 12.48300934 303.3062744

endloop
endfacet
facet normal 0.06684882194 -0.9564282298 0.2842118144
outer loop
vertex -66.32546234 12.48300934 303.3062744
vertex -68.63710022 12.20703888 302.9212952
vertex -66.3197937 12.36745453 302.9160767

endloop
endfacet
facet normal 0.02621549927 -0.9584046602 0.2842063308
outer loop
vertex -66.32545471 12.4830246 303.3063049
vertex -66.3197937 12.36746979 302.9161072
vertex -64.02620697 12.54419708 303.3005066

endloop
endfacet
facet normal 0.02620563284 -0.9583895802 0.2842582464
outer loop
vertex -64.02620697 12.54419708 303.3005066
vertex -66.3197937 12.36746979 302.9161072
vertex -64.02606964 12.42845917 302.9102783

endloop
endfacet
facet normal -0.01315726899 -0.9586395621 0.2843185365
outer loop
vertex -64.02620697 12.54419708 303.3005066
vertex -64.02606964 12.42845917 302.9102783
vertex -61.67786407 12.51000214 303.2938843

endloop
endfacet
facet normal -0.01318179537 -0.958597362 0.2844597101
outer loop
vertex -61.67786407 12.51000214 303.2938843
vertex -64.02606964 12.42845917 302.9102783
vertex -61.68161774 12.39426422 302.9036865

endloop
endfacet
facet normal -0.02779649012 -0.9582718015 0.284503758
outer loop
vertex -61.67786407 12.51000214 303.2938843
vertex -61.68161774 12.39426422 302.9036865
vertex -59.31711578 12.43923187 303.2861633

endloop
endfacet
facet normal -0.02780754119 -0.9582520127 0.2845697403
outer loop
vertex -59.31711578 12.43923187 303.2861633
vertex -61.68161774 12.39426422 302.9036865
vertex -59.32209015 12.32350922 302.8959961

endloop
endfacet
facet normal -0.03184169903 -0.9581224918 0.2845827639
outer loop
vertex -59.31711578 12.43923187 303.2861633
vertex -59.32209015 12.32350922 302.8959961
vertex -56.97446442 12.35884857 303.2776489

endloop
endfacet
facet normal -0.03183007985 -0.9581435323 0.2845132649
outer loop
vertex -56.97446442 12.35884857 303.2776489
vertex -59.32209015 12.32350922 302.8959961
vertex -56.98099518 12.24321747 302.8875122

endloop
endfacet
facet normal -0.06799826771 -0.956238687 0.2845763862
outer loop
vertex -56.97446442 12.35887909 303.2776794
vertex -56.98099518 12.24324799 302.8875732
vertex -54.65549469 12.19126129 303.2685547

endloop
endfacet
facet normal -0.06800623983 -0.9562230706 0.2846271992
outer loop
vertex -54.65549469 12.19126129 303.2685547
vertex -56.98099518 12.24324799 302.8875732
vertex -54.66663361 12.07593536 302.8784485

endloop
endfacet
facet normal -0.0989754945 -0.9534922242 0.2847041488
outer loop
vertex -54.65549469 12.19126129 303.2685547
vertex -54.66663361 12.07593536 302.8784485
vertex -52.37882233 11.95220184 303.2593994

endloop
endfacet
facet normal -0.09900793433 -0.9534239769 0.2849211395
outer loop
vertex -52.37882233 11.95220184 303.2593994
vertex -54.66663361 12.07593536 302.8784485
vertex -52.39488983 11.83731842 302.8693848

endloop
endfacet
facet normal -0.1508533508 -0.9465708137 0.285038352
outer loop
vertex -52.37882233 11.95220184 303.2593994
vertex -52.39488983 11.83731842 302.8693848
vertex -50.128685 11.5986557 303.2761841

endloop
endfacet
facet normal -0.1501957476 -0.9480233192 0.2805228531
outer loop
vertex -50.128685 11.5986557 303.2761841
vertex -52.39488983 11.83731842 302.8693848
vertex -50.1370163 11.48459625 302.886261

endloop
endfacet
facet normal -0.2100535184 -0.9371488094 0.2786208093
outer loop
vertex -50.128685 11.5986557 303.2761841
vertex -50.1370163 11.48459625 302.886261
vertex -47.95468903 11.17960358 303.5056763

endloop
endfacet
facet normal -0.2045235634 -0.944988668 0.2552773654
outer loop
vertex -47.95468903 11.17960358 303.5056763
vertex -50.1370163 11.48459625 302.886261
vertex -47.90349579 11.06528473 303.1235046

endloop
endfacet
facet normal -0.1955645531 -0.9464411139 0.256911993
outer loop
vertex -47.95468903 11.17960358 303.5056763
vertex -47.90349579 11.06528473 303.1235046
vertex -45.97725677 10.95888519 304.1978149

endloop
endfacet
facet normal -0.1823170632 -0.955411315 0.232270807
outer loop
vertex -45.97725677 10.95888519 304.1978149
vertex -47.90349579 11.06528473 303.1235046
vertex -45.8225174 10.84607697 303.8552551

endloop
endfacet
facet normal -0.04779546335 -0.9549771547 0.2928038538
outer loop
vertex -45.97727203 10.95886993 304.1978149
vertex -45.82250214 10.84609222 303.8552551
vertex -43.75807953 11.2673111 305.56604

endloop
endfacet
facet normal -0.02838585898 -0.9621210098 0.271140933
outer loop
vertex -43.75807953 11.2673111 305.56604
vertex -45.82250214 10.84609222 303.8552551
vertex -43.52762604 11.1780777 305.2735291

endloop
endfacet
facet normal 0.2688733935 -0.8415285945 0.4685474336
outer loop
vertex -43.75807953 11.2673111 305.56604
vertex -43.52762604 11.1780777 305.2735291
vertex -41.82401276 12.38175201 306.4577637

endloop
endfacet
facet normal -0.5401955843 0.8382344842 -0.07450973243
outer loop
vertex -41.82401276 12.38175201 306.4577637
vertex -43.52762604 11.1780777 305.2735291
vertex -41.8239975 12.38176727 306.4578247

endloop
endfacet
facet normal -0.2211791575 -0.8490348458 0.4798122048
outer loop
vertex -86.90839386 10.88457489 303.3950195
vertex -86.90840149 10.88455963 303.394989
vertex -84.91661072 10.35243988 303.3715515

endloop
endfacet
facet normal -0.2428942621 -0.8924371004 -0.3802082837
outer loop
vertex -84.91661072 10.35243988 303.3715515
vertex -86.90840149 10.88455963 303.394989
vertex -84.92977142 10.61263275 302.7692261

endloop
endfacet
facet normal 0.02901386842 -0.9173906446 -0.3969288468
outer loop
vertex -84.91661072 10.35243988 303.3715515
vertex -84.92977142 10.61263275 302.7692261
vertex -82.59501648 10.4096756 303.4089661

endloop
endfacet
facet normal 0.0196747575 -0.9300655723 -0.3668665588
outer loop
vertex -82.59501648 10.4096756 303.4089661
vertex -84.92977142 10.61263275 302.7692261
vertex -82.59447479 10.66719818 302.756134

endloop
endfacet
facet normal 0.01658000611 -0.9301168323 -0.3668893576
outer loop
vertex -82.59501648 10.4096756 303.4089661
vertex -82.59447479 10.66719818 302.756134
vertex -80.39948273 10.45302582 303.3982849

endloop
endfacet
facet normal 0.01634283364 -0.9304028153 -0.3661739826
outer loop
vertex -80.39948273 10.45302582 303.3982849
vertex -82.59447479 10.66719818 302.756134
vertex -80.4171524 10.7131424 302.7365723

endloop
endfacet
facet normal 0.1058738306 -0.9244791865 -0.3662361801
outer loop
vertex -80.39948273 10.45302582 303.3982849
vertex -80.4171524 10.7131424 302.7365723
vertex -77.89519501 10.7753067 303.3087158

endloop
endfacet
facet normal 0.1070580706 -0.9221557379 -0.3717086911
outer loop
vertex -77.89519501 10.7753067 303.3087158
vertex -80.4171524 10.7131424 302.7365723
vertex -77.97013092 11.0311203 302.6524963

endloop
endfacet
facet normal 0.1734200567 -0.9107285142 -0.3748320937
outer loop
vertex -77.89519501 10.7753067 303.3087158
vertex -77.97013092 11.0311203 302.6524963
vertex -75.47692871 11.3088913 303.1311035

endloop
endfacet
facet normal 0.1744054109 -0.9076644778 -0.3817432821
outer loop
vertex -75.47692871 11.3088913 303.1311035
vertex -77.97013092 11.0311203 302.6524963
vertex -75.5881424 11.56204987 302.478363

endloop
endfacet
facet normal 0.1569910944 -0.9114627242 -0.3802493513
outer loop
vertex -75.47692871 11.3088913 303.1311035
vertex -75.5881424 11.56204987 302.478363
vertex -73.26786041 11.7538681 302.976532

endloop
endfacet
facet normal 0.1562873125 -0.913223803 -0.3762933612
outer loop
vertex -73.26786041 11.7538681 302.976532
vertex -75.5881424 11.56204987 302.478363
vertex -73.34959412 12.00991058 302.3211975

endloop
endfacet
facet normal 0.09170816094 -0.9235767722 -0.3722839952
outer loop
vertex -73.26786041 11.7538681 302.976532
vertex -73.34959412 12.00991058 302.3211975
vertex -71.01777649 11.99591827 302.9303284

endloop
endfacet
facet normal 0.09056600183 -0.9254229069 -0.3679541349
outer loop
vertex -71.01777649 11.99591827 302.9303284
vertex -73.34959412 12.00991058 302.3211975
vertex -71.05030823 12.25470734 302.2714539

endloop
endfacet
facet normal 0.08076164871 -0.9263739586 -0.3678435683
outer loop
vertex -71.01777649 11.99591827 302.9303284
vertex -71.05030823 12.25470734 302.2714539
vertex -68.63709259 12.20705414 302.9212952

endloop
endfacet
facet normal 0.08051307499 -0.9267506599 -0.3669480979
outer loop
vertex -68.63709259 12.20705414 302.9212952
vertex -71.05030823 12.25470734 302.2714539
vertex -68.65977478 12.46631622 302.2615356

endloop
endfacet
facet normal 0.06341564655 -0.9281001091 -0.3668906093
outer loop
vertex -68.63709259 12.20705414 302.9212952
vertex -68.65977478 12.46631622 302.2615356
vertex -66.3197937 12.36745453 302.9160767

endloop
endfacet
facet normal 0.06341109425 -0.9281063676 -0.3668752909
outer loop
vertex -66.3197937 12.36745453 302.9160767
vertex -68.65977478 12.46631622 302.2615356
vertex -66.33653259 12.62709808 302.2563477

endloop
endfacet
facet normal 0.02379240096 -0.9300664663 -0.3666200042
outer loop
vertex -66.31978607 12.36748505 302.9161072
vertex -66.33652496 12.62711334 302.2563782
vertex -64.02606964 12.42845917 302.9102783

endloop
endfacet
facet normal 0.02382824197 -0.9300211072 -0.3667328358
outer loop
vertex -64.02606964 12.42845917 302.9102783
vertex -66.33652496 12.62711334 302.2563782
vertex -64.03019714 12.68851471 302.2505188

endloop
endfacet
facet normal -0.01460040361 -0.9302681088 -0.3665898442
outer loop
vertex -64.02606964 12.42845917 302.9102783
vertex -64.03019714 12.68851471 302.2505188
vertex -61.68161774 12.39424896 302.903717

endloop
endfacet
facet normal -0.0145538114 -0.9302126765 -0.3667323589
outer loop
vertex -61.68161774 12.39424896 302.903717
vertex -64.03019714 12.68851471 302.2505188
vertex -61.677742 12.65431976 302.2438965

endloop
endfacet
facet normal -0.02908440493 -0.9298884273 -0.36668998
outer loop
vertex -61.68161774 12.39424896 302.903717
vertex -61.677742 12.65431976 302.2438965
vertex -59.32209015 12.32349396 302.8959961

endloop
endfacet
facet normal -0.02906272188 -0.9298633337 -0.3667555153
outer loop
vertex -59.32209015 12.32349396 302.8959961
vertex -61.677742 12.65431976 302.2438965
vertex -59.31629181 12.58353424 302.2362366

endloop
endfacet
facet normal -0.03320962936 -0.9297307134 -0.3667396903
outer loop
vertex -59.32209015 12.32349396 302.8959961
vertex -59.31629181 12.58353424 302.2362366
vertex -56.98099518 12.24321747 302.8875122

endloop
endfacet
facet normal -0.03324498981 -0.9297710657 -0.3666339815
outer loop
vertex -56.98099518 12.24321747 302.8875122
vertex -59.31629181 12.58353424 302.2362366
vertex -56.97206879 12.50305939 302.2277527

endloop
endfacet
facet normal -0.06852909923 -0.9279533625 -0.3663417399
outer loop
vertex -56.98099518 12.24324799 302.8875732
vertex -56.97205353 12.50307465 302.2277527
vertex -54.66663361 12.07593536 302.8784485

endloop
endfacet
facet normal -0.06850095093 -0.9279237986 -0.3664219975
outer loop
vertex -54.66663361 12.07593536 302.8784485
vertex -56.97205353 12.50307465 302.2277527
vertex -54.64762115 12.33506012 302.218689

endloop
endfacet
facet normal -0.09864289314 -0.9252734184 -0.3662496507
outer loop
vertex -54.66663361 12.07593536 302.8784485
vertex -54.64762115 12.33506012 302.218689
vertex -52.39488983 11.83733368 302.8693848

endloop
endfacet
facet normal -0.09866508096 -0.9252948761 -0.3661892414
outer loop
vertex -52.39488983 11.83733368 302.8693848
vertex -54.64762115 12.33506012 302.218689
vertex -52.36695099 12.09542084 302.2097168

endloop
endfacet
facet normal -0.1409741044 -0.9199230671 -0.3658795357
outer loop
vertex -52.39488983 11.83733368 302.8693848
vertex -52.36695099 12.09542084 302.2097168
vertex -50.1370163 11.48461246 302.886261

endloop
endfacet
facet normal -0.1386986673 -0.9179680347 -0.3716144264
outer loop
vertex -50.1370163 11.48461246 302.886261
vertex -52.36695099 12.09542084 302.2097168
vertex -50.07381439 11.74091339 302.2295532

endloop
endfacet
facet normal -0.1330589056 -0.9188783169 -0.37142694
outer loop
vertex -50.1370163 11.48461246 302.886261
vertex -50.07381439 11.74091339 302.2295532
vertex -47.90349579 11.06529999 303.1234741

endloop
endfacet
facet normal -0.1190610379 -0.9094884992 -0.3983152211
outer loop
vertex -47.90349579 11.06529999 303.1234741
vertex -50.07381439 11.74091339 302.2295532
vertex -47.74030304 11.32224274 302.4880066

endloop
endfacet
facet normal 0.03139813244 -0.9294030666 -0.3677283227
outer loop
vertex -47.90349579 11.06529999 303.1234741
vertex -47.74030304 11.32224274 302.4880066
vertex -45.8225174 10.84607697 303.8552246

endloop
endfacet
facet normal 0.04408533126 -0.9226273298 -0.3831647635
outer loop
vertex -45.8225174 10.84607697 303.8552246
vertex -47.74030304 11.32224274 302.4880066
vertex -45.53632355 11.10059357 303.2752991

endloop
endfacet
facet normal 0.2932817042 -0.9202346802 -0.2591408491
outer loop
vertex -45.82250214 10.84609222 303.8552246
vertex -45.53633881 11.10059357 303.2753296
vertex -43.52762604 11.1780777 305.2735291

endloop
endfacet
facet normal 0.302508831 -0.9145062566 -0.2686386406
outer loop
vertex -43.52762604 11.1780777 305.2735291
vertex -45.53633881 11.10059357 303.2753296
vertex -43.19429779 11.43462372 304.7755432

endloop
endfacet
facet normal 0.5876472592 -0.8087813258 -0.02331430092
outer loop
vertex -43.52762604 11.1780777 305.2735291
vertex -43.19429779 11.43462372 304.7755432
vertex -41.8239975 12.38176727 306.4578247

endloop
endfacet
facet normal 0.5681153536 -0.8229489923 0
outer loop
vertex -41.8239975 12.38176727 306.4578247
vertex -43.19429779 11.43462372 304.7755432
vertex -41.8239975 12.38176727 306.4577942

endloop
endfacet
endsolid
