solid 
facet normal -0.465888 -0 -0.884844
outer loop
vertex -99.69850159 43.41057587 258.0313721
vertex -99.69850159 43.41059113 258.0313721
vertex -98.81529236 43.34276581 257.5663452

endloop
endfacet
facet normal -0.4671632349 -0.2300928682 -0.8537071347
outer loop
vertex -98.81529236 43.34276581 257.5663452
vertex -99.69850159 43.41059113 258.0313721
vertex -98.92487335 43.74947357 257.5166931

endloop
endfacet
facet normal 0.005176284816 -0.1198073402 -0.9927836657
outer loop
vertex -98.81529236 43.34276581 257.5663452
vertex -98.92487335 43.74947357 257.5166931
vertex -97.83691406 43.64044952 257.5355225

endloop
endfacet
facet normal 0.006923465058 -0.1027009934 -0.9946882129
outer loop
vertex -97.83691406 43.64044952 257.5355225
vertex -98.92487335 43.74947357 257.5166931
vertex -97.97034454 44.05619049 257.4916687

endloop
endfacet
facet normal -0.03125539422 -0.1147658229 -0.9929007888
outer loop
vertex -97.83691406 43.64044952 257.5355225
vertex -97.97034454 44.05619049 257.4916687
vertex -96.98425293 43.95740509 257.4720459

endloop
endfacet
facet normal -0.02978154644 -0.09972213209 -0.99456954
outer loop
vertex -96.98425293 43.95740509 257.4720459
vertex -97.97034454 44.05619049 257.4916687
vertex -97.14345551 44.36501312 257.4359436

endloop
endfacet
facet normal -0.07271698862 -0.1161373183 -0.9905677438
outer loop
vertex -96.98425293 43.95740509 257.4720459
vertex -97.14345551 44.36501312 257.4359436
vertex -96.07326508 44.35816193 257.3581848

endloop
endfacet
facet normal -0.07274496555 -0.09508589655 -0.9928075671
outer loop
vertex -96.07326508 44.35816193 257.3581848
vertex -97.14345551 44.36501312 257.4359436
vertex -96.25547791 44.75693512 257.3333435

endloop
endfacet
facet normal -0.1146395504 -0.1138584688 -0.9868606925
outer loop
vertex -96.07326508 44.35816193 257.3581848
vertex -96.25547791 44.75693512 257.3333435
vertex -95.15046692 44.81717682 257.1980286

endloop
endfacet
facet normal -0.1158916354 -0.09503438324 -0.9887049794
outer loop
vertex -95.15046692 44.81717682 257.1980286
vertex -96.25547791 44.75693512 257.3333435
vertex -95.34999084 45.20844269 257.1838074

endloop
endfacet
facet normal -0.1351959705 -0.104753539 -0.985265851
outer loop
vertex -95.15046692 44.81717682 257.1980286
vertex -95.34999084 45.20844269 257.1838074
vertex -94.21638489 45.30916595 257.0175476

endloop
endfacet
facet normal -0.135689199 -0.09991896898 -0.9857000709
outer loop
vertex -94.21638489 45.30916595 257.0175476
vertex -95.34999084 45.20844269 257.1838074
vertex -94.42427826 45.69625092 257.0069275

endloop
endfacet
facet normal -0.120600462 -0.09189034998 -0.9884390235
outer loop
vertex -94.21638489 45.30916595 257.0175476
vertex -94.42427826 45.69625092 257.0069275
vertex -93.25689697 45.81926727 256.8530579

endloop
endfacet
facet normal -0.1189528406 -0.1060069427 -0.9872247577
outer loop
vertex -93.25689697 45.81926727 256.8530579
vertex -94.42427826 45.69625092 257.0069275
vertex -93.46757507 46.20459747 256.8370667

endloop
endfacet
facet normal -0.07375487685 -0.08149831742 -0.993940711
outer loop
vertex -93.25689697 45.81926727 256.8530579
vertex -93.46757507 46.20458221 256.8370972
vertex -92.26963806 46.33454132 256.7375488

endloop
endfacet
facet normal -0.07047209889 -0.1098481938 -0.9914469719
outer loop
vertex -92.26963806 46.33454132 256.7375488
vertex -93.46757507 46.20458221 256.8370972
vertex -92.47734833 46.72064972 256.7095337

endloop
endfacet
facet normal -0.009340221994 -0.07736172527 -0.9969593287
outer loop
vertex -92.26963806 46.33454132 256.7375488
vertex -92.47734833 46.72064972 256.7095337
vertex -91.2558136 46.83705902 256.6890564

endloop
endfacet
facet normal -0.006071173586 -0.111107789 -0.9937899113
outer loop
vertex -91.2558136 46.83705902 256.6890564
vertex -92.47734833 46.72064972 256.7095337
vertex -91.45127869 47.22797394 256.6465454

endloop
endfacet
facet normal 0.05756146088 -0.0795230642 -0.9951696992
outer loop
vertex -91.25579834 46.83708954 256.6890869
vertex -91.45127106 47.22797394 256.6465454
vertex -90.21043396 47.29701996 256.7127991

endloop
endfacet
facet normal 0.05912864581 -0.1106318235 -0.9921010733
outer loop
vertex -90.21043396 47.29701996 256.7127991
vertex -91.45127106 47.22797394 256.6465454
vertex -90.37863922 47.69835663 256.65802

endloop
endfacet
facet normal 0.1105149537 -0.0887947455 -0.9898999333
outer loop
vertex -90.21043396 47.29701996 256.7127991
vertex -90.37863922 47.69835663 256.65802
vertex -89.1332016 47.66950226 256.7996521

endloop
endfacet
facet normal 0.1097830534 -0.1102086306 -0.987826705
outer loop
vertex -89.1332016 47.66950226 256.7996521
vertex -90.37863922 47.69835663 256.65802
vertex -89.25726318 48.08506012 256.739502

endloop
endfacet
facet normal 0.1300580651 -0.1038981751 -0.9860476851
outer loop
vertex -89.1332016 47.66950226 256.7996521
vertex -89.25726318 48.08506012 256.739502
vertex -88.04363251 47.91660309 256.9173279

endloop
endfacet
facet normal 0.1289314181 -0.1113163605 -0.9853858352
outer loop
vertex -88.04363251 47.91660309 256.9173279
vertex -89.25726318 48.08506012 256.739502
vertex -88.11626434 48.34467316 256.8594666

endloop
endfacet
facet normal 0.1072464809 -0.1152850091 -0.9875259995
outer loop
vertex -88.04363251 47.91660309 256.9173279
vertex -88.11626434 48.34467316 256.8594666
vertex -86.96792603 48.04157257 257.0195618

endloop
endfacet
facet normal 0.1079590321 -0.1127018481 -0.9877465367
outer loop
vertex -86.96792603 48.04157257 257.0195618
vertex -88.11626434 48.34467316 256.8594666
vertex -86.99964905 48.47603607 256.9665222

endloop
endfacet
facet normal 0.06100502238 -0.1166377142 -0.9912991524
outer loop
vertex -86.9679184 48.04160309 257.0195923
vertex -86.99964142 48.47605133 256.9665222
vertex -85.9066925 48.09218597 257.078949

endloop
endfacet
facet normal 0.06230817735 -0.1130261347 -0.9916363955
outer loop
vertex -85.9066925 48.09218597 257.078949
vertex -86.99964142 48.47605133 256.9665222
vertex -85.91853333 48.52851105 257.0284729

endloop
endfacet
facet normal 0.02442716621 -0.1142296791 -0.9931539893
outer loop
vertex -85.9066925 48.09218597 257.078949
vertex -85.91853333 48.52851105 257.0284729
vertex -84.84495544 48.11678314 257.1022339

endloop
endfacet
facet normal 0.02499806695 -0.1127684489 -0.9933068156
outer loop
vertex -84.84495544 48.11678314 257.1022339
vertex -85.91853333 48.52851105 257.0284729
vertex -84.85341644 48.5533371 257.0524597

endloop
endfacet
facet normal 0.00912617892 -0.113102816 -0.9935413599
outer loop
vertex -84.84495544 48.11678314 257.1022339
vertex -84.85341644 48.5533371 257.0524597
vertex -83.78395081 48.15119171 257.1080627

endloop
endfacet
facet normal 0.009241742082 -0.1128000841 -0.9935746789
outer loop
vertex -83.78395081 48.15119171 257.1080627
vertex -84.85341644 48.5533371 257.0524597
vertex -83.80290222 48.58725739 257.0583801

endloop
endfacet
facet normal 0.009281875566 -0.1127983332 -0.9935745597
outer loop
vertex -83.78395081 48.15119171 257.1080627
vertex -83.80290222 48.58725739 257.0583801
vertex -82.76033783 48.22708893 257.1090088

endloop
endfacet
facet normal 0.00931088347 -0.1127156466 -0.9935837388
outer loop
vertex -82.76033783 48.22708893 257.1090088
vertex -83.80290222 48.58725739 257.0583801
vertex -82.80224609 48.66130829 257.0593567

endloop
endfacet
facet normal 0.01487371139 -0.1121779606 -0.9935768247
outer loop
vertex -82.76033783 48.22708893 257.1090088
vertex -82.80224609 48.66130829 257.0593567
vertex -81.8420639 48.35478973 257.1083374

endloop
endfacet
facet normal 0.01475087367 -0.1125562117 -0.9935358763
outer loop
vertex -81.8420639 48.35478973 257.1083374
vertex -82.80224609 48.66130829 257.0593567
vertex -81.91647339 48.78412628 257.0585938

endloop
endfacet
facet normal -0.02819129452 -0.1198658422 -0.9923897386
outer loop
vertex -81.8420639 48.35478973 257.1083374
vertex -81.91647339 48.78412628 257.0585938
vertex -80.84741211 48.56478119 257.054718

endloop
endfacet
facet normal -0.03077671118 -0.1324966103 -0.9907055497
outer loop
vertex -80.84741211 48.56478119 257.054718
vertex -81.91647339 48.78412628 257.0585938
vertex -80.94484711 48.97418976 257.0029907

endloop
endfacet
facet normal 0.4469694495 -0.006645850372 -0.8945245147
outer loop
vertex -80.84741211 48.56478119 257.054718
vertex -80.94484711 48.97418976 257.0029907
vertex -80.12020111 49.04875946 257.4144897

endloop
endfacet
facet normal -nan(ind) -nan(ind) -nan(ind)
outer loop
vertex -80.12020111 49.04875946 257.4144897
vertex -80.94484711 48.97418976 257.0029907
vertex -80.12020111 49.04875946 257.4144897

endloop
endfacet
facet normal 0.5919197798 -0.1479799449 0.7922959924
outer loop
vertex -99.69850159 43.41059113 258.0313721
vertex -99.69850922 43.41056061 258.0313721
vertex -98.92487335 43.74947357 257.5166931

endloop
endfacet
facet normal -0.6136723161 0.2793323398 -0.7384982109
outer loop
vertex -98.92487335 43.74947357 257.5166931
vertex -99.69850922 43.41056061 258.0313721
vertex -98.98071289 43.96727753 257.6454773

endloop
endfacet
facet normal -0.1731083244 0.468023926 -0.8665952086
outer loop
vertex -98.92487335 43.74947357 257.5166931
vertex -98.98071289 43.96727753 257.6454773
vertex -97.97034454 44.05619049 257.4916687

endloop
endfacet
facet normal -0.1731336713 0.5125275254 -0.8410351872
outer loop
vertex -97.97034454 44.05619049 257.4916687
vertex -98.98071289 43.96727753 257.6454773
vertex -98.03189087 44.26926422 257.6341858

endloop
endfacet
facet normal -0.2397958338 0.4909366667 -0.8375434875
outer loop
vertex -97.97034454 44.05619049 257.4916687
vertex -98.03189087 44.26926422 257.6341858
vertex -97.14345551 44.36501312 257.4359436

endloop
endfacet
facet normal -0.2394959033 0.5035552382 -0.8301047087
outer loop
vertex -97.14345551 44.36501312 257.4359436
vertex -98.03189087 44.26926422 257.6341858
vertex -97.2113266 44.57370758 257.5821228

endloop
endfacet
facet normal -0.3059052229 0.4774598479 -0.8236832023
outer loop
vertex -97.14345551 44.36501312 257.4359436
vertex -97.2113266 44.57370758 257.5821228
vertex -96.25547791 44.75693512 257.3333435

endloop
endfacet
facet normal -0.3064859509 0.494620204 -0.8132756352
outer loop
vertex -96.25547791 44.75693512 257.3333435
vertex -97.2113266 44.57370758 257.5821228
vertex -96.32659912 44.96109772 257.484314

endloop
endfacet
facet normal -0.3660032749 0.4675136507 -0.804656744
outer loop
vertex -96.25547791 44.75693512 257.3333435
vertex -96.32659912 44.96109772 257.484314
vertex -95.34999084 45.20844269 257.1838074

endloop
endfacet
facet normal -0.3669728637 0.4832351506 -0.794867754
outer loop
vertex -95.34999084 45.20844269 257.1838074
vertex -96.32659912 44.96109772 257.484314
vertex -95.4227066 45.40872955 257.3391418

endloop
endfacet
facet normal -0.3974053562 0.4679267704 -0.7893753648
outer loop
vertex -95.34999084 45.20844269 257.1838074
vertex -95.4227066 45.40872955 257.3391418
vertex -94.42427826 45.69625092 257.0069275

endloop
endfacet
facet normal -0.3977133334 0.4719419479 -0.7868258953
outer loop
vertex -94.42427826 45.69625092 257.0069275
vertex -95.4227066 45.40872955 257.3391418
vertex -94.49947357 45.89440155 257.1637878

endloop
endfacet
facet normal -0.3921921551 0.4748469889 -0.7878488302
outer loop
vertex -94.42427826 45.69625092 257.0069275
vertex -94.49947357 45.89440155 257.1637878
vertex -93.46757507 46.20459747 256.8370667

endloop
endfacet
facet normal -0.3910681009 0.4633379579 -0.7952255011
outer loop
vertex -93.46757507 46.20459747 256.8370667
vertex -94.49947357 45.89440155 257.1637878
vertex -93.54883575 46.40187836 256.9919739

endloop
endfacet
facet normal -0.3546645939 0.4825749695 -0.8008335233
outer loop
vertex -93.46757507 46.20458221 256.8370972
vertex -93.54883575 46.40187836 256.9919739
vertex -92.47734833 46.72064972 256.7095337

endloop
endfacet
facet normal -0.3516817987 0.459456712 -0.8156098723
outer loop
vertex -92.47734833 46.72064972 256.7095337
vertex -93.54883575 46.40187836 256.9919739
vertex -92.56655884 46.91835785 256.859375

endloop
endfacet
facet normal -0.2927443981 0.490144223 -0.821011126
outer loop
vertex -92.47734833 46.72064972 256.7095337
vertex -92.56655884 46.91835785 256.859375
vertex -91.45127869 47.22797394 256.6465454

endloop
endfacet
facet normal -0.2885171771 0.4632900655 -0.8379260302
outer loop
vertex -91.45127869 47.22797394 256.6465454
vertex -92.56655884 46.91835785 256.859375
vertex -91.54582977 47.42812347 256.7897644

endloop
endfacet
facet normal -0.2107626498 0.501085341 -0.8393405676
outer loop
vertex -91.45127106 47.22797394 256.6465454
vertex -91.54582214 47.42815399 256.7897949
vertex -90.37863922 47.69835663 256.65802

endloop
endfacet
facet normal -0.2068122774 0.4766732454 -0.8544069529
outer loop
vertex -90.37863922 47.69835663 256.65802
vertex -91.54582214 47.42815399 256.7897949
vertex -90.47079468 47.90381622 256.7949524

endloop
endfacet
facet normal -0.1156561822 0.5144235492 -0.8497011662
outer loop
vertex -90.37863922 47.69835663 256.65802
vertex -90.47079468 47.90381622 256.7949524
vertex -89.25726318 48.08506012 256.739502

endloop
endfacet
facet normal -0.1136980578 0.4983115196 -0.859510541
outer loop
vertex -89.25726318 48.08506012 256.739502
vertex -90.47079468 47.90381622 256.7949524
vertex -89.3356781 48.29782867 256.87323

endloop
endfacet
facet normal -0.02973787487 0.524022162 -0.8511853218
outer loop
vertex -89.25726318 48.08506012 256.739502
vertex -89.3356781 48.29782867 256.87323
vertex -88.11626434 48.34467316 256.8594666

endloop
endfacet
facet normal -0.02953960747 0.5177302361 -0.8550338149
outer loop
vertex -88.11626434 48.34467316 256.8594666
vertex -89.3356781 48.29782867 256.87323
vertex -88.17124176 48.5638504 256.9940796

endloop
endfacet
facet normal 0.01949729212 0.5267962217 -0.8497679234
outer loop
vertex -88.11626434 48.34467316 256.8594666
vertex -88.17124176 48.5638504 256.9940796
vertex -86.99964905 48.47603607 256.9665222

endloop
endfacet
facet normal 0.01955845393 0.5274788737 -0.8493430614
outer loop
vertex -86.99964905 48.47603607 256.9665222
vertex -88.17124176 48.5638504 256.9940796
vertex -87.02975464 48.69852448 257.1040039

endloop
endfacet
facet normal 0.02303704992 0.5278641582 -0.8490163088
outer loop
vertex -86.99964142 48.47605133 256.9665222
vertex -87.02974701 48.69853973 257.1040344
vertex -85.91853333 48.52851105 257.0284729

endloop
endfacet
facet normal 0.0233920496 0.5296776891 -0.8478764296
outer loop
vertex -85.91853333 48.52851105 257.0284729
vertex -87.02974701 48.69853973 257.1040344
vertex -85.93167877 48.75189972 257.1676636

endloop
endfacet
facet normal 0.006776606664 0.5291061997 -0.8485285044
outer loop
vertex -85.91853333 48.52851105 257.0284729
vertex -85.93167877 48.75189972 257.1676636
vertex -84.85341644 48.5533371 257.0524597

endloop
endfacet
facet normal 0.007073240355 0.5302875638 -0.8477882743
outer loop
vertex -84.85341644 48.5533371 257.0524597
vertex -85.93167877 48.75189972 257.1676636
vertex -84.86005402 48.77683258 257.1921997

endloop
endfacet
facet normal -0.0123292068 0.529846251 -0.8480041027
outer loop
vertex -84.85341644 48.5533371 257.0524597
vertex -84.86005402 48.77683258 257.1921997
vertex -83.80290222 48.58725739 257.0583801

endloop
endfacet
facet normal -0.01218529977 0.5304040313 -0.8476575017
outer loop
vertex -83.80290222 48.58725739 257.0583801
vertex -84.86005402 48.77683258 257.1921997
vertex -83.8130722 48.81049347 257.1982117

endloop
endfacet
facet normal -0.03833460435 0.5291971564 -0.8476324677
outer loop
vertex -83.80290222 48.58725739 257.0583801
vertex -83.8130722 48.81049347 257.1982117
vertex -82.80224609 48.66130829 257.0593567

endloop
endfacet
facet normal -0.03825293109 0.5295492411 -0.8474162221
outer loop
vertex -82.80224609 48.66130829 257.0593567
vertex -83.8130722 48.81049347 257.1982117
vertex -82.82382965 48.88361359 257.1992493

endloop
endfacet
facet normal -0.07366604358 0.5260218978 -0.8472746015
outer loop
vertex -82.80224609 48.66130829 257.0593567
vertex -82.82382965 48.88361359 257.1992493
vertex -81.91647339 48.78412628 257.0585938

endloop
endfacet
facet normal -0.07380498201 0.5253376961 -0.8476868868
outer loop
vertex -81.91647339 48.78412628 257.0585938
vertex -82.82382965 48.88361359 257.1992493
vertex -81.95469666 49.00414276 257.1982727

endloop
endfacet
facet normal -0.1484926343 0.5115123391 -0.8463481069
outer loop
vertex -81.91647339 48.78412628 257.0585938
vertex -81.95469666 49.00414276 257.1982727
vertex -80.94484711 48.97418976 257.0029907

endloop
endfacet
facet normal -0.1541484892 0.4698173702 -0.8692006469
outer loop
vertex -80.94484711 48.97418976 257.0029907
vertex -81.95469666 49.00414276 257.1982727
vertex -80.99720764 49.19335175 257.1307373

endloop
endfacet
facet normal 0.3387423754 0.5329070091 -0.7754119635
outer loop
vertex -80.94484711 48.97418976 257.0029907
vertex -80.99720764 49.19335175 257.1307373
vertex -80.12020111 49.04875946 257.4144897

endloop
endfacet
facet normal -0.283472091 0.1414920986 0.9484849572
outer loop
vertex -80.12020111 49.04875946 257.4144897
vertex -80.99720764 49.19335175 257.1307373
vertex -80.12020874 49.0487442 257.4144897

endloop
endfacet
facet normal -0.549587369 0.1373968422 -0.8240605593
outer loop
vertex -99.69850922 43.41056061 258.0313721
vertex -99.69850159 43.41059113 258.0313721
vertex -98.98071289 43.96727753 257.6454773

endloop
endfacet
facet normal -0.6863034964 0.5929627419 -0.4211682081
outer loop
vertex -98.98071289 43.96727753 257.6454773
vertex -99.69850159 43.41059113 258.0313721
vertex -99.00907135 44.08805084 257.8617249

endloop
endfacet
facet normal -0.2686555982 0.8255411386 -0.4962922931
outer loop
vertex -98.98071289 43.96727753 257.6454773
vertex -99.00907135 44.08805084 257.8617249
vertex -98.03189087 44.26926422 257.6341858

endloop
endfacet
facet normal -0.2627090514 0.8548873663 -0.4473829567
outer loop
vertex -98.03189087 44.26926422 257.6341858
vertex -99.00907135 44.08805084 257.8617249
vertex -98.05764008 44.38034821 257.8615723

endloop
endfacet
facet normal -0.3363249898 0.830591619 -0.4438501894
outer loop
vertex -98.03189087 44.26926422 257.6341858
vertex -98.05764008 44.38034821 257.8615723
vertex -97.2113266 44.57370758 257.5821228

endloop
endfacet
facet normal -0.3338578641 0.838293016 -0.4310496449
outer loop
vertex -97.2113266 44.57370758 257.5821228
vertex -98.05764008 44.38034821 257.8615723
vertex -97.23397064 44.68239594 257.8110352

endloop
endfacet
facet normal -0.4021000862 0.8110514879 -0.4248657823
outer loop
vertex -97.2113266 44.57370758 257.5821228
vertex -97.23397064 44.68239594 257.8110352
vertex -96.32659912 44.96109772 257.484314

endloop
endfacet
facet normal -0.3990151882 0.821459651 -0.4074198306
outer loop
vertex -96.32659912 44.96109772 257.484314
vertex -97.23397064 44.68239594 257.8110352
vertex -96.34303284 45.06742096 257.7147827

endloop
endfacet
facet normal -0.4575831294 0.7945305705 -0.3991727829
outer loop
vertex -96.32659912 44.96109772 257.484314
vertex -96.34303284 45.06742096 257.7147827
vertex -95.4227066 45.40872955 257.3391418

endloop
endfacet
facet normal -0.4545100629 0.8043125272 -0.3827557862
outer loop
vertex -95.4227066 45.40872955 257.3391418
vertex -96.34303284 45.06742096 257.7147827
vertex -95.43328094 45.51305389 257.5709229

endloop
endfacet
facet normal -0.4862881601 0.7882891893 -0.3769934475
outer loop
vertex -95.4227066 45.40872955 257.3391418
vertex -95.43328094 45.51305389 257.5709229
vertex -94.49947357 45.89440155 257.1637878

endloop
endfacet
facet normal -0.4854634106 0.7908205986 -0.3727305532
outer loop
vertex -94.49947357 45.89440155 257.1637878
vertex -95.43328094 45.51305389 257.5709229
vertex -94.50965118 45.99762726 257.3960571

endloop
endfacet
facet normal -0.4885526597 0.7891932726 -0.3721427619
outer loop
vertex -94.49947357 45.89440155 257.1637878
vertex -94.50965118 45.99762726 257.3960571
vertex -93.54883575 46.40187836 256.9919739

endloop
endfacet
facet normal -0.4905706644 0.7823203206 -0.3838168979
outer loop
vertex -93.54883575 46.40187836 256.9919739
vertex -94.50965118 45.99762726 257.3960571
vertex -93.56643677 46.50463104 257.2239075

endloop
endfacet
facet normal -0.4694910049 0.7934972644 -0.3872211874
outer loop
vertex -93.54883575 46.40187836 256.9919739
vertex -93.56643677 46.5046463 257.2239075
vertex -92.56655884 46.91835785 256.859375

endloop
endfacet
facet normal -0.4724392295 0.7796608806 -0.4110110402
outer loop
vertex -92.56655884 46.91835785 256.859375
vertex -93.56643677 46.5046463 257.2239075
vertex -92.59708405 47.02132416 257.0897827

endloop
endfacet
facet normal -0.4289491475 0.8021927476 -0.4153185189
outer loop
vertex -92.56655884 46.91835785 256.859375
vertex -92.59708405 47.02132416 257.0897827
vertex -91.54582977 47.42812347 256.7897644

endloop
endfacet
facet normal -0.4307174385 0.7860553265 -0.4433954358
outer loop
vertex -91.54582977 47.42812347 256.7897644
vertex -92.59708405 47.02132416 257.0897827
vertex -91.58991241 47.53238678 257.0174255

endloop
endfacet
facet normal -0.3605412543 0.8196730614 -0.4451360404
outer loop
vertex -91.54582214 47.42815399 256.7897949
vertex -91.58989716 47.53240204 257.0174561
vertex -90.47079468 47.90381622 256.7949524

endloop
endfacet
facet normal -0.3608010113 0.8054369688 -0.4702061415
outer loop
vertex -90.47079468 47.90381622 256.7949524
vertex -91.58989716 47.53240204 257.0174561
vertex -90.52436066 48.01085663 257.0194092

endloop
endfacet
facet normal -0.261382103 0.8455183506 -0.4655943811
outer loop
vertex -90.47079468 47.90381622 256.7949524
vertex -90.52436066 48.01085663 257.0194092
vertex -89.3356781 48.29782867 256.87323

endloop
endfacet
facet normal -0.2611949742 0.8367952704 -0.4811975062
outer loop
vertex -89.3356781 48.29782867 256.87323
vertex -90.52436066 48.01085663 257.0194092
vertex -89.39030457 48.40862274 257.0955505

endloop
endfacet
facet normal -0.1498857439 0.8697113395 -0.4702515602
outer loop
vertex -89.3356781 48.29782867 256.87323
vertex -89.39030457 48.40862274 257.0955505
vertex -88.17124176 48.5638504 256.9940796

endloop
endfacet
facet normal -0.1499504745 0.8671163917 -0.4749988914
outer loop
vertex -88.17124176 48.5638504 256.9940796
vertex -89.39030457 48.40862274 257.0955505
vertex -88.21634674 48.67798615 257.2166748

endloop
endfacet
facet normal -0.0594398044 0.883328259 -0.4649711251
outer loop
vertex -88.17124176 48.5638504 256.9940796
vertex -88.21634674 48.67798615 257.2166748
vertex -87.02975464 48.69852448 257.1040039

endloop
endfacet
facet normal -0.05935273319 0.8838678598 -0.4639558196
outer loop
vertex -87.02975464 48.69852448 257.1040039
vertex -88.21634674 48.67798615 257.2166748
vertex -87.05825043 48.81439972 257.3283997

endloop
endfacet
facet normal -0.01644700579 0.8875287771 -0.4604586065
outer loop
vertex -87.02974701 48.69853973 257.1040344
vertex -87.05825043 48.81443024 257.3284302
vertex -85.93167877 48.75189972 257.1676636

endloop
endfacet
facet normal -0.01617680863 0.8883488178 -0.45888412
outer loop
vertex -85.93167877 48.75189972 257.1676636
vertex -87.05825043 48.81443024 257.3284302
vertex -85.94503021 48.86824799 257.3933716

endloop
endfacet
facet normal -0.01017258409 0.8885639906 -0.45863989
outer loop
vertex -85.93167877 48.75189972 257.1676636
vertex -85.94503021 48.86824799 257.3933716
vertex -84.86005402 48.77683258 257.1921997

endloop
endfacet
facet normal -0.009995363653 0.8889648914 -0.4578662813
outer loop
vertex -84.86005402 48.77683258 257.1921997
vertex -85.94503021 48.86824799 257.3933716
vertex -84.86560822 48.89322662 257.4183044

endloop
endfacet
facet normal -0.02593708411 0.8885506988 -0.4580446482
outer loop
vertex -84.86005402 48.77683258 257.1921997
vertex -84.86560822 48.89322662 257.4183044
vertex -83.8130722 48.81049347 257.1982117

endloop
endfacet
facet normal -0.02583201788 0.8887701035 -0.4576246738
outer loop
vertex -83.8130722 48.81049347 257.1982117
vertex -84.86560822 48.89322662 257.4183044
vertex -83.8187561 48.92679596 257.424408

endloop
endfacet
facet normal -0.06506666541 0.8867806196 -0.4575876594
outer loop
vertex -83.8130722 48.81049347 257.1982117
vertex -83.8187561 48.92679596 257.424408
vertex -82.82382965 48.88361359 257.1992493

endloop
endfacet
facet normal -0.06497075409 0.886985898 -0.4572032094
outer loop
vertex -82.82382965 48.88361359 257.1992493
vertex -83.8187561 48.92679596 257.424408
vertex -82.83511353 48.99939728 257.4254761

endloop
endfacet
facet normal -0.1226835027 0.880965054 -0.457000345
outer loop
vertex -82.82382965 48.88361359 257.1992493
vertex -82.83511353 48.99939728 257.4254761
vertex -81.95469666 49.00414276 257.1982727

endloop
endfacet
facet normal -0.1228472963 0.8806087971 -0.4576424956
outer loop
vertex -81.95469666 49.00414276 257.1982727
vertex -82.83511353 48.99939728 257.4254761
vertex -81.97468567 49.11885834 257.4243774

endloop
endfacet
facet normal -0.2033385038 0.8657866716 -0.4572383463
outer loop
vertex -81.95469666 49.00414276 257.1982727
vertex -81.97468567 49.11885834 257.4243774
vertex -80.99720764 49.19335175 257.1307373

endloop
endfacet
facet normal -0.2144723982 0.8382850885 -0.5012779832
outer loop
vertex -80.99720764 49.19335175 257.1307373
vertex -81.97468567 49.11885834 257.4243774
vertex -81.02637482 49.31487274 257.3464355

endloop
endfacet
facet normal 0.2832078338 0.851447463 -0.441396147
outer loop
vertex -80.99720764 49.19335175 257.1307373
vertex -81.02637482 49.31487274 257.3464355
vertex -80.12020874 49.0487442 257.4144897

endloop
endfacet
facet normal 0.274646908 0.79791677 -0.5365610719
outer loop
vertex -80.12020874 49.0487442 257.4144897
vertex -81.02637482 49.31487274 257.3464355
vertex -80.12019348 49.04875946 257.4145203

endloop
endfacet
facet normal -nan(ind) -nan(ind) -nan(ind)
outer loop
vertex -99.69850159 43.41059113 258.0313721
vertex -99.69850159 43.41059113 258.0313721
vertex -99.00907135 44.08805084 257.8617249

endloop
endfacet
facet normal -0.701756537 0.7123815417 -0.007087294944
outer loop
vertex -99.00907135 44.08805084 257.8617249
vertex -99.69850159 43.41059113 258.0313721
vertex -99.0058136 44.09397125 258.1342468

endloop
endfacet
facet normal -0.2936309576 0.9557631612 -0.01725341007
outer loop
vertex -99.00907135 44.08805084 257.8617249
vertex -99.0058136 44.09397125 258.1342468
vertex -98.05764008 44.38034821 257.8615723

endloop
endfacet
facet normal -0.2785498202 0.9596198797 0.03923886642
outer loop
vertex -98.05764008 44.38034821 257.8615723
vertex -99.0058136 44.09397125 258.1342468
vertex -98.0439682 44.37306976 258.1366272

endloop
endfacet
facet normal -0.3417257667 0.9388682842 0.04182993993
outer loop
vertex -98.05764008 44.38034821 257.8615723
vertex -98.0439682 44.37306976 258.1366272
vertex -97.23397064 44.68239594 257.8110352

endloop
endfacet
facet normal -0.3362658024 0.9400676489 0.05655243993
outer loop
vertex -97.23397064 44.68239594 257.8110352
vertex -98.0439682 44.37306976 258.1366272
vertex -97.20842743 44.6750412 258.0851746

endloop
endfacet
facet normal -0.3903966546 0.9186222553 0.06102081016
outer loop
vertex -97.23397064 44.68239594 257.8110352
vertex -97.20842743 44.6750412 258.0851746
vertex -96.34303284 45.06742096 257.7147827

endloop
endfacet
facet normal -0.3827268779 0.9203261733 0.08074572682
outer loop
vertex -96.34303284 45.06742096 257.7147827
vertex -97.20842743 44.6750412 258.0851746
vertex -96.30292511 45.06020355 257.9871521

endloop
endfacet
facet normal -0.4271445274 0.9000123143 0.08674819022
outer loop
vertex -96.34303284 45.06742096 257.7147827
vertex -96.30292511 45.06020355 257.9871521
vertex -95.43328094 45.51305389 257.5709229

endloop
endfacet
facet normal -0.4193266034 0.9017465115 0.1049692333
outer loop
vertex -95.43328094 45.51305389 257.5709229
vertex -96.30292511 45.06020355 257.9871521
vertex -95.38082123 45.50597382 257.8413086

endloop
endfacet
facet normal -0.445417732 0.8885785937 0.1096865982
outer loop
vertex -95.43328094 45.51305389 257.5709229
vertex -95.38082123 45.50597382 257.8413086
vertex -94.50965118 45.99762726 257.3960571

endloop
endfacet
facet normal -0.4432432055 0.8890618086 0.1144748405
outer loop
vertex -94.50965118 45.99762726 257.3960571
vertex -95.38082123 45.50597382 257.8413086
vertex -94.45401764 45.99062347 257.665863

endloop
endfacet
facet normal -0.4536620378 0.8835288286 0.1164795533
outer loop
vertex -94.50965118 45.99762726 257.3960571
vertex -94.45401764 45.99062347 257.665863
vertex -93.56643677 46.50463104 257.2239075

endloop
endfacet
facet normal -0.4591794014 0.882245779 0.1039067879
outer loop
vertex -93.56643677 46.50463104 257.2239075
vertex -94.45401764 45.99062347 257.665863
vertex -93.51844788 46.49767303 257.4950562

endloop
endfacet
facet normal -0.4566376805 0.8836010695 0.103591159
outer loop
vertex -93.56643677 46.5046463 257.2239075
vertex -93.51844788 46.49765778 257.4950562
vertex -92.59708405 47.02132416 257.0897827

endloop
endfacet
facet normal -0.4666465819 0.8810395598 0.07752676308
outer loop
vertex -92.59708405 47.02132416 257.0897827
vertex -93.51844788 46.49765778 257.4950562
vertex -92.56484222 47.01435089 257.3630981

endloop
endfacet
facet normal -0.4468950331 0.8913980126 0.07546104491
outer loop
vertex -92.59708405 47.02132416 257.0897827
vertex -92.56484222 47.01435089 257.3630981
vertex -91.58991241 47.53238678 257.0174255

endloop
endfacet
facet normal -0.4565639496 0.8886018991 0.04400068894
outer loop
vertex -91.58991241 47.53238678 257.0174255
vertex -92.56484222 47.01435089 257.3630981
vertex -91.57720184 47.5253067 257.2922974

endloop
endfacet
facet normal -0.4093233943 0.9114058018 0.04235301912
outer loop
vertex -91.58989716 47.53240204 257.0174561
vertex -91.57718658 47.52533722 257.2923279
vertex -90.52436066 48.01085663 257.0194092

endloop
endfacet
facet normal -0.415866375 0.9093268514 0.01341385301
outer loop
vertex -90.52436066 48.01085663 257.0194092
vertex -91.57718658 47.52533722 257.2923279
vertex -90.53140259 48.00357819 257.2944946

endloop
endfacet
facet normal -0.3319167793 0.9431650639 0.01645829529
outer loop
vertex -90.52436066 48.01085663 257.0194092
vertex -90.53140259 48.00357819 257.2944946
vertex -89.39030457 48.40862274 257.0955505

endloop
endfacet
facet normal -0.3347685337 0.9422988892 -0.001662393217
outer loop
vertex -89.39030457 48.40862274 257.0955505
vertex -90.53140259 48.00357819 257.2944946
vertex -89.4128418 48.40110016 257.3699951

endloop
endfacet
facet normal -0.2244412899 0.9744524956 0.008278954774
outer loop
vertex -89.39030457 48.40862274 257.0955505
vertex -89.4128418 48.40110016 257.3699951
vertex -88.21634674 48.67798615 257.2166748

endloop
endfacet
facet normal -0.2249287367 0.9743656516 0.004318296909
outer loop
vertex -88.21634674 48.67798615 257.2166748
vertex -89.4128418 48.40110016 257.3699951
vertex -88.24459839 48.67024994 257.4906921

endloop
endfacet
facet normal -0.1184725761 0.992831409 0.01581543125
outer loop
vertex -88.21634674 48.67798615 257.2166748
vertex -88.24459839 48.67024994 257.4906921
vertex -87.05825043 48.81439972 257.3283997

endloop
endfacet
facet normal -0.1180680469 0.9928280711 0.01876964234
outer loop
vertex -87.05825043 48.81439972 257.3283997
vertex -88.24459839 48.67024994 257.4906921
vertex -87.08069611 48.80654144 257.6028748

endloop
endfacet
facet normal -0.0497036539 0.9984615445 0.02457843535
outer loop
vertex -87.05825043 48.81443024 257.3284302
vertex -87.08068848 48.8065567 257.6029053
vertex -85.94503021 48.86824799 257.3933716

endloop
endfacet
facet normal -0.04935665056 0.9984309673 0.02645013295
outer loop
vertex -85.94503021 48.86824799 257.3933716
vertex -87.08068848 48.8065567 257.6029053
vertex -85.95652771 48.86038971 257.6685486

endloop
endfacet
facet normal -0.02376168966 0.9993380904 0.02754545026
outer loop
vertex -85.94503021 48.86824799 257.3933716
vertex -85.95652771 48.86038971 257.6685486
vertex -84.86560822 48.89322662 257.4183044

endloop
endfacet
facet normal -0.02360066958 0.9993223548 0.02824535407
outer loop
vertex -84.86560822 48.89322662 257.4183044
vertex -85.95652771 48.86038971 257.6685486
vertex -84.8692627 48.88535309 257.6938171

endloop
endfacet
facet normal -0.03220158443 0.9990856051 0.02812449634
outer loop
vertex -84.86560822 48.89322662 257.4183044
vertex -84.8692627 48.88535309 257.6938171
vertex -83.8187561 48.92679596 257.424408

endloop
endfacet
facet normal -0.03206109256 0.9990746379 0.02867064066
outer loop
vertex -83.8187561 48.92679596 257.424408
vertex -84.8692627 48.88535309 257.6938171
vertex -83.81912994 48.91887665 257.6999512

endloop
endfacet
facet normal -0.0736092329 0.9968784451 0.02855113894
outer loop
vertex -83.8187561 48.92679596 257.424408
vertex -83.81912994 48.91887665 257.6999512
vertex -82.83511353 48.99939728 257.4254761

endloop
endfacet
facet normal -0.0735931769 0.9968779087 0.02860859223
outer loop
vertex -82.83511353 48.99939728 257.4254761
vertex -83.81912994 48.91887665 257.6999512
vertex -82.8344574 48.991539 257.7009888

endloop
endfacet
facet normal -0.1374281198 0.9900997281 0.02856727876
outer loop
vertex -82.83511353 48.99939728 257.4254761
vertex -82.8344574 48.991539 257.7009888
vertex -81.97468567 49.11885834 257.4243774

endloop
endfacet
facet normal -0.1377085745 0.990085721 0.02768910304
outer loop
vertex -81.97468567 49.11885834 257.4243774
vertex -82.8344574 48.991539 257.7009888
vertex -81.97349548 49.1113205 257.6998291

endloop
endfacet
facet normal -0.2001611888 0.9793724418 0.02766271122
outer loop
vertex -81.97468567 49.11885834 257.4243774
vertex -81.97349548 49.1113205 257.6998596
vertex -81.02637482 49.31487274 257.3464355

endloop
endfacet
facet normal -0.218039453 0.9756835699 -0.02237277664
outer loop
vertex -81.02637482 49.31487274 257.3464355
vertex -81.97349548 49.1113205 257.6998596
vertex -81.02805328 49.32074738 257.618988

endloop
endfacet
facet normal 0.2830244601 0.9589259028 -0.01892586425
outer loop
vertex -81.02637482 49.31487274 257.3464355
vertex -81.02805328 49.32074738 257.618988
vertex -80.12019348 49.04875946 257.4145203

endloop
endfacet
facet normal -0.3460419476 -0.8392589688 -0.4194037616
outer loop
vertex -80.12019348 49.04875946 257.4145203
vertex -81.02805328 49.32074738 257.618988
vertex -80.12019348 49.04877472 257.4144897

endloop
endfacet
facet normal -0.278519839 0.1392599195 0.9502806664
outer loop
vertex -99.69850159 43.41059113 258.0313721
vertex -99.69850922 43.41057587 258.0313721
vertex -99.0058136 44.09397125 258.1342468

endloop
endfacet
facet normal -0.6679549813 0.613668859 0.4210068882
outer loop
vertex -99.0058136 44.09397125 258.1342468
vertex -99.69850922 43.41057587 258.0313721
vertex -98.97042084 43.97603607 258.3623047

endloop
endfacet
facet normal -0.2463023514 0.8447695374 0.4750784039
outer loop
vertex -99.0058136 44.09397125 258.1342468
vertex -98.97042084 43.97603607 258.3623047
vertex -98.0439682 44.37306976 258.1366272

endloop
endfacet
facet normal -0.228617385 0.8261690736 0.5149551034
outer loop
vertex -98.0439682 44.37306976 258.1366272
vertex -98.97042084 43.97603607 258.3623047
vertex -97.99745941 44.25377655 258.3486633

endloop
endfacet
facet normal -0.2628032267 0.8151258826 0.5162405372
outer loop
vertex -98.0439682 44.37306976 258.1366272
vertex -97.99745941 44.25377655 258.3486633
vertex -97.20842743 44.6750412 258.0851746

endloop
endfacet
facet normal -0.255533725 0.8093657494 0.5288001299
outer loop
vertex -97.20842743 44.6750412 258.0851746
vertex -97.99745941 44.25377655 258.3486633
vertex -97.1463089 44.5581131 258.2941589

endloop
endfacet
facet normal -0.2823697031 0.7989678383 0.5309592485
outer loop
vertex -97.20842743 44.6750412 258.0851746
vertex -97.1463089 44.5581131 258.2941589
vertex -96.30292511 45.06020355 257.9871521

endloop
endfacet
facet normal -0.2719208002 0.7914658785 0.5473946333
outer loop
vertex -96.30292511 45.06020355 257.9871521
vertex -97.1463089 44.5581131 258.2941589
vertex -96.22393036 44.94582367 258.1917725

endloop
endfacet
facet normal -0.2913816571 0.7826858163 0.5499997139
outer loop
vertex -96.30292511 45.06020355 257.9871521
vertex -96.22393036 44.94582367 258.1917725
vertex -95.38082123 45.50597382 257.8413086

endloop
endfacet
facet normal -0.2808395624 0.7760285139 0.564720273
outer loop
vertex -95.38082123 45.50597382 257.8413086
vertex -96.22393036 44.94582367 258.1917725
vertex -95.28810883 45.39377594 258.0415955

endloop
endfacet
facet normal -0.2947559953 0.7690063119 0.5672284365
outer loop
vertex -95.38082123 45.50597382 257.8413086
vertex -95.28810883 45.39377594 258.0415955
vertex -94.45401764 45.99062347 257.665863

endloop
endfacet
facet normal -0.291834414 0.7673113942 0.5710216761
outer loop
vertex -94.45401764 45.99062347 257.665863
vertex -95.28810883 45.39377594 258.0415955
vertex -94.35671997 45.87960052 257.8647766

endloop
endfacet
facet normal -0.3067604005 0.7593261003 0.5738657713
outer loop
vertex -94.45401764 45.99062347 257.665863
vertex -94.35671997 45.87960052 257.8647766
vertex -93.51844788 46.49767303 257.4950562

endloop
endfacet
facet normal -0.3144365847 0.7637150884 0.563798666
outer loop
vertex -93.51844788 46.49767303 257.4950562
vertex -94.35671997 45.87960052 257.8647766
vertex -93.42597198 46.38712311 257.6963806

endloop
endfacet
facet normal -0.3306637704 0.7549140453 0.5663623214
outer loop
vertex -93.51844788 46.49765778 257.4950562
vertex -93.42597198 46.38712311 257.6963806
vertex -92.56484222 47.01435089 257.3630981

endloop
endfacet
facet normal -0.3455390632 0.7639585733 0.544949472
outer loop
vertex -92.56484222 47.01435089 257.3630981
vertex -93.42597198 46.38712311 257.6963806
vertex -92.48460388 46.90357208 257.5692749

endloop
endfacet
facet normal -0.3538238406 0.7595450282 0.5458022356
outer loop
vertex -92.56484222 47.01435089 257.3630981
vertex -92.48460388 46.90357208 257.5692749
vertex -91.57720184 47.5253067 257.2922974

endloop
endfacet
facet normal -0.3696807325 0.770727694 0.5189557076
outer loop
vertex -91.57720184 47.5253067 257.2922974
vertex -92.48460388 46.90357208 257.5692749
vertex -91.51448059 47.4131546 257.50354

endloop
endfacet
facet normal -0.3565033376 0.7772275805 0.5184810758
outer loop
vertex -91.57718658 47.52533722 257.2923279
vertex -91.51447296 47.41318512 257.5035706
vertex -90.53140259 48.00357819 257.2944946

endloop
endfacet
facet normal -0.3686090112 0.7882615328 0.4927182198
outer loop
vertex -90.53140259 48.00357819 257.2944946
vertex -91.51447296 47.41318512 257.5035706
vertex -90.49050903 47.88846588 257.5092468

endloop
endfacet
facet normal -0.3205443025 0.8080965281 0.4941977262
outer loop
vertex -90.53140259 48.00357819 257.2944946
vertex -90.49050903 47.88846588 257.5092468
vertex -89.4128418 48.40110016 257.3699951

endloop
endfacet
facet normal -0.3264090121 0.8158458471 0.4773391485
outer loop
vertex -89.4128418 48.40110016 257.3699951
vertex -90.49050903 47.88846588 257.5092468
vertex -89.39525604 48.2818985 257.5857544

endloop
endfacet
facet normal -0.2436341941 0.8403825164 0.4841482937
outer loop
vertex -89.4128418 48.40110016 257.3699951
vertex -89.39525604 48.2818985 257.5857544
vertex -88.24459839 48.67024994 257.4906921

endloop
endfacet
facet normal -0.2445235401 0.8421520591 0.480612278
outer loop
vertex -88.24459839 48.67024994 257.4906921
vertex -89.39525604 48.2818985 257.5857544
vertex -88.24520111 48.5474472 257.7055664

endloop
endfacet
facet normal -0.1478401273 0.8588508964 0.4904269874
outer loop
vertex -88.24459839 48.67024994 257.4906921
vertex -88.24520111 48.5474472 257.7055664
vertex -87.08069611 48.80654144 257.6028748

endloop
endfacet
facet normal -0.1470733881 0.8568664193 0.4941146672
outer loop
vertex -87.08069611 48.80654144 257.6028748
vertex -88.24520111 48.5474472 257.7055664
vertex -87.08829498 48.6818924 257.8167725

endloop
endfacet
facet normal -0.07054029405 0.8629603982 0.500323236
outer loop
vertex -87.08068848 48.8065567 257.6029053
vertex -87.08828735 48.68192291 257.816803
vertex -85.95652771 48.86038971 257.6685486

endloop
endfacet
facet normal -0.06995029747 0.8614475727 0.5030061007
outer loop
vertex -85.95652771 48.86038971 257.6685486
vertex -87.08828735 48.68192291 257.816803
vertex -85.96162415 48.73522186 257.8822021

endloop
endfacet
facet normal -0.03153706715 0.8627330065 0.5046754479
outer loop
vertex -85.95652771 48.86038971 257.6685486
vertex -85.96162415 48.73522186 257.8822021
vertex -84.8692627 48.88535309 257.6938171

endloop
endfacet
facet normal -0.0313564539 0.8623192906 0.5053930283
outer loop
vertex -84.8692627 48.88535309 257.6938171
vertex -85.96162415 48.73522186 257.8822021
vertex -84.86959839 48.76013947 257.9074402

endloop
endfacet
facet normal -0.03048087656 0.8623420596 0.5054077506
outer loop
vertex -84.8692627 48.88535309 257.6938171
vertex -84.86959839 48.76013947 257.9074402
vertex -83.81912994 48.91887665 257.6999512

endloop
endfacet
facet normal -0.03048282489 0.8623459935 0.5054008365
outer loop
vertex -83.81912994 48.91887665 257.6999512
vertex -84.86959839 48.76013947 257.9074402
vertex -83.81420135 48.79381561 257.9136353

endloop
endfacet
facet normal -0.06404171884 0.860637486 0.5051749945
outer loop
vertex -83.81912994 48.91887665 257.6999512
vertex -83.81420135 48.79381561 257.9136353
vertex -82.8344574 48.991539 257.7009888

endloop
endfacet
facet normal -0.06402634084 0.8606113195 0.5052214861
outer loop
vertex -82.8344574 48.991539 257.7009888
vertex -83.81420135 48.79381561 257.9136353
vertex -82.8225174 48.86696625 257.9147034

endloop
endfacet
facet normal -0.1182707101 0.854991734 0.5049763918
outer loop
vertex -82.8344574 48.991539 257.7009888
vertex -82.8225174 48.86696625 257.9147034
vertex -81.97349548 49.1113205 257.6998291

endloop
endfacet
facet normal -0.118569158 0.8553833365 0.504242599
outer loop
vertex -81.97349548 49.1113205 257.6998291
vertex -82.8225174 48.86696625 257.9147034
vertex -81.95222473 48.98810577 257.9138489

endloop
endfacet
facet normal -0.1453692764 0.8510793447 0.504511416
outer loop
vertex -81.97349548 49.1113205 257.6998596
vertex -81.95222473 48.98812103 257.9138184
vertex -81.02805328 49.32074738 257.618988

endloop
endfacet
facet normal -0.1621974856 0.8674876094 0.4702736735
outer loop
vertex -81.02805328 49.32074738 257.618988
vertex -81.95222473 48.98812103 257.9138184
vertex -80.99989319 49.20204926 257.8476562

endloop
endfacet
facet normal 0.3444356322 0.8499141932 0.398760587
outer loop
vertex -81.02805328 49.32074738 257.618988
vertex -80.99989319 49.20204926 257.8476562
vertex -80.12019348 49.04877472 257.4144897

endloop
endfacet
facet normal 0.4041151404 -0.2022853792 0.8920602798
outer loop
vertex -80.12019348 49.04877472 257.4144897
vertex -80.99989319 49.20204926 257.8476562
vertex -80.12020111 49.04875946 257.4144897

endloop
endfacet
facet normal -0.6502496004 0.7421246767 0.1625624001
outer loop
vertex -99.69850922 43.41057587 258.0313721
vertex -99.69850159 43.41057587 258.0314026
vertex -98.97042084 43.97603607 258.3623047

endloop
endfacet
facet normal -0.5945544839 0.3388362229 0.7291741967
outer loop
vertex -98.97042084 43.97603607 258.3623047
vertex -99.69850159 43.41057587 258.0314026
vertex -98.91766357 43.78627777 258.4934998

endloop
endfacet
facet normal -0.1413636208 0.5360912085 0.8322395086
outer loop
vertex -98.97042084 43.97603607 258.3623047
vertex -98.91766357 43.78627777 258.4934998
vertex -97.99745941 44.25377655 258.3486633

endloop
endfacet
facet normal -0.1312084049 0.5197939277 0.8441556096
outer loop
vertex -97.99745941 44.25377655 258.3486633
vertex -98.91766357 43.78627777 258.4934998
vertex -97.93755341 44.07967377 258.4651794

endloop
endfacet
facet normal -0.1317389607 0.5196254253 0.8441767097
outer loop
vertex -97.99745941 44.25377655 258.3486633
vertex -97.93755341 44.07967377 258.4651794
vertex -97.1463089 44.5581131 258.2941589

endloop
endfacet
facet normal -0.1240658015 0.5095378757 0.8514568806
outer loop
vertex -97.1463089 44.5581131 258.2941589
vertex -97.93755341 44.07967377 258.4651794
vertex -97.07169342 44.38774872 258.4069824

endloop
endfacet
facet normal -0.1203031093 0.5109735727 0.8511363864
outer loop
vertex -97.1463089 44.5581131 258.2941589
vertex -97.07169342 44.38774872 258.4069824
vertex -96.22393036 44.94582367 258.1917725

endloop
endfacet
facet normal -0.1088203192 0.4972417057 0.8607606292
outer loop
vertex -96.22393036 44.94582367 258.1917725
vertex -97.07169342 44.38774872 258.4069824
vertex -96.13464355 44.77919769 258.2993164

endloop
endfacet
facet normal -0.1015915126 0.5004755259 0.8597694039
outer loop
vertex -96.22393036 44.94582367 258.1917725
vertex -96.13464355 44.77919769 258.2993164
vertex -95.28810883 45.39377594 258.0415955

endloop
endfacet
facet normal -0.09029394388 0.488350153 0.8679637909
outer loop
vertex -95.28810883 45.39377594 258.0415955
vertex -96.13464355 44.77919769 258.2993164
vertex -95.18729401 45.23027802 258.1440735

endloop
endfacet
facet normal -0.09003022313 0.4884831309 0.8679163456
outer loop
vertex -95.28810883 45.39377594 258.0415955
vertex -95.18729401 45.23027802 258.1440735
vertex -94.35671997 45.87960052 257.8647766

endloop
endfacet
facet normal -0.08686669171 0.4853340387 0.8700029254
outer loop
vertex -94.35671997 45.87960052 257.8647766
vertex -95.18729401 45.23027802 258.1440735
vertex -94.25132751 45.71782684 257.9655457

endloop
endfacet
facet normal -0.1022358388 0.4771111012 0.8728761673
outer loop
vertex -94.35671997 45.87960052 257.8647766
vertex -94.25132751 45.71782684 257.9655457
vertex -93.42597198 46.38712311 257.6963806

endloop
endfacet
facet normal -0.1109636128 0.4855631888 0.8671305776
outer loop
vertex -93.42597198 46.38712311 257.6963806
vertex -94.25132751 45.71782684 257.9655457
vertex -93.32215118 46.22609711 257.7998352

endloop
endfacet
facet normal -0.139995262 0.4697057903 0.8716523647
outer loop
vertex -93.42597198 46.38712311 257.6963806
vertex -93.32215118 46.22608185 257.7998352
vertex -92.48460388 46.90357208 257.5692749

endloop
endfacet
facet normal -0.1573327333 0.486893028 0.8591750264
outer loop
vertex -92.48460388 46.90357208 257.5692749
vertex -93.32215118 46.22608185 257.7998352
vertex -92.38763428 46.74222565 257.6784668

endloop
endfacet
facet normal -0.1885503829 0.4701760709 0.8621967435
outer loop
vertex -92.48460388 46.90357208 257.5692749
vertex -92.38763428 46.74222565 257.6784668
vertex -91.51448059 47.4131546 257.50354

endloop
endfacet
facet normal -0.2078202069 0.4910288751 0.8459913731
outer loop
vertex -91.51448059 47.4131546 257.50354
vertex -92.38763428 46.74222565 257.6784668
vertex -91.42950439 47.24979401 257.6192322

endloop
endfacet
facet normal -0.2279433012 0.4809794724 0.8465816975
outer loop
vertex -91.51447296 47.41318512 257.5035706
vertex -91.42949677 47.24982452 257.6192627
vertex -90.49050903 47.88846588 257.5092468

endloop
endfacet
facet normal -0.2437647283 0.5014125109 0.8301591873
outer loop
vertex -90.49050903 47.88846588 257.5092468
vertex -91.42949677 47.24982452 257.6192627
vertex -90.42381287 47.72075653 257.630127

endloop
endfacet
facet normal -0.2388617992 0.5034853816 0.8303297758
outer loop
vertex -90.49050903 47.88846588 257.5092468
vertex -90.42381287 47.72075653 257.630127
vertex -89.39525604 48.2818985 257.5857544

endloop
endfacet
facet normal -0.2472916842 0.5180283785 0.8188366294
outer loop
vertex -89.39525604 48.2818985 257.5857544
vertex -90.42381287 47.72075653 257.630127
vertex -89.35224915 48.10826874 257.7085876

endloop
endfacet
facet normal -0.2080276906 0.5300357342 0.8220624328
outer loop
vertex -89.39525604 48.2818985 257.5857544
vertex -89.35224915 48.10826874 257.7085876
vertex -88.24520111 48.5474472 257.7055664

endloop
endfacet
facet normal -0.2096571922 0.5341222286 0.8189977407
outer loop
vertex -88.24520111 48.5474472 257.7055664
vertex -89.35224915 48.10826874 257.7085876
vertex -88.22537231 48.36856842 257.827301

endloop
endfacet
facet normal -0.1428027749 0.5459827781 0.8255363107
outer loop
vertex -88.24520111 48.5474472 257.7055664
vertex -88.22537231 48.36856842 257.827301
vertex -87.08829498 48.6818924 257.8167725

endloop
endfacet
facet normal -0.1418424249 0.5425785184 0.8279427886
outer loop
vertex -87.08829498 48.6818924 257.8167725
vertex -88.22537231 48.36856842 257.827301
vertex -87.08322906 48.50029755 257.9366455

endloop
endfacet
facet normal -0.07428668439 0.5479433537 0.8332103491
outer loop
vertex -87.08828735 48.68192291 257.816803
vertex -87.08322906 48.50032806 257.936676
vertex -85.96162415 48.73522186 257.8822021

endloop
endfacet
facet normal -0.07359236479 0.5450776815 0.8351494074
outer loop
vertex -85.96162415 48.73522186 257.8822021
vertex -87.08322906 48.50032806 257.936676
vertex -85.96083069 48.55287933 258.0012817

endloop
endfacet
facet normal -0.03180995956 0.5464111567 0.8369128108
outer loop
vertex -85.96162415 48.73522186 257.8822021
vertex -85.96083069 48.55287933 258.0012817
vertex -84.86959839 48.76013947 257.9074402

endloop
endfacet
facet normal -0.03159209713 0.5455284715 0.8374966383
outer loop
vertex -84.86959839 48.76013947 257.9074402
vertex -85.96083069 48.55287933 258.0012817
vertex -84.86739349 48.57769012 258.0263672

endloop
endfacet
facet normal -0.02233079821 0.5457434058 0.8376547098
outer loop
vertex -84.86959839 48.76013947 257.9074402
vertex -84.86739349 48.57769012 258.0263672
vertex -83.81420135 48.79381561 257.9136353

endloop
endfacet
facet normal -0.02227110602 0.5455269217 0.8377973437
outer loop
vertex -83.81420135 48.79381561 257.9136353
vertex -84.86739349 48.57769012 258.0263672
vertex -83.80651855 48.6115799 258.0325012

endloop
endfacet
facet normal -0.04107742757 0.5446447134 0.8376603127
outer loop
vertex -83.81420135 48.79381561 257.9136353
vertex -83.80651855 48.6115799 258.0325012
vertex -82.8225174 48.86696625 257.9147034

endloop
endfacet
facet normal -0.04114702344 0.5448497534 0.83752352
outer loop
vertex -82.8225174 48.86696625 257.9147034
vertex -83.80651855 48.6115799 258.0325012
vertex -82.80502319 48.68552399 258.0335999

endloop
endfacet
facet normal -0.07455530018 0.5415281057 0.8373701572
outer loop
vertex -82.8225174 48.86696625 257.9147034
vertex -82.80502319 48.68552399 258.0335999
vertex -81.95222473 48.98810577 257.9138489

endloop
endfacet
facet normal -0.07474921644 0.541957736 0.8370748758
outer loop
vertex -81.95222473 48.98810577 257.9138489
vertex -82.80502319 48.68552399 258.0335999
vertex -81.9210434 48.80834198 258.03302

endloop
endfacet
facet normal -0.06400754303 0.5437406301 0.8368089795
outer loop
vertex -81.95222473 48.98812103 257.9138184
vertex -81.9210434 48.80834198 258.03302
vertex -80.99989319 49.20204926 257.8476562

endloop
endfacet
facet normal -0.07117633522 0.5563241839 0.827911377
outer loop
vertex -80.99989319 49.20204926 257.8476562
vertex -81.9210434 48.80834198 258.03302
vertex -80.95426178 49.01114655 257.9798584

endloop
endfacet
facet normal 0.438952297 0.5800939202 0.6861573458
outer loop
vertex -80.99989319 49.20204926 257.8476562
vertex -80.95426178 49.01114655 257.9798584
vertex -80.12020111 49.04875946 257.4144897

endloop
endfacet
facet normal -0.5609740019 0 -0.8278334141
outer loop
vertex -80.12020111 49.04875946 257.4144897
vertex -80.95426178 49.01114655 257.9798584
vertex -80.12020111 49.04877472 257.4144897

endloop
endfacet
facet normal 0.5875509977 -0.2937754989 -0.7539759278
outer loop
vertex -99.69850159 43.41057587 258.0314026
vertex -99.69849396 43.41059113 258.0314026
vertex -98.91766357 43.78627777 258.4934998

endloop
endfacet
facet normal -0.4922780693 -0.04599395394 0.8692219853
outer loop
vertex -98.91766357 43.78627777 258.4934998
vertex -99.69849396 43.41059113 258.0314026
vertex -98.8612442 43.57575226 258.5143127

endloop
endfacet
facet normal -0.0006442665472 0.09821145236 0.9951653481
outer loop
vertex -98.91766357 43.78627777 258.4934998
vertex -98.8612442 43.57575226 258.5143127
vertex -97.93755341 44.07967377 258.4651794

endloop
endfacet
facet normal -0.005838953424 0.1076366082 0.9941731691
outer loop
vertex -97.93755341 44.07967377 258.4651794
vertex -98.8612442 43.57575226 258.5143127
vertex -97.87682343 43.89044952 258.4860229

endloop
endfacet
facet normal 0.02496700548 0.1173694506 0.9927744269
outer loop
vertex -97.93755341 44.07967377 258.4651794
vertex -97.87682343 43.89044952 258.4860229
vertex -97.07169342 44.38774872 258.4069824

endloop
endfacet
facet normal 0.03211151436 0.1059734821 0.9938503504
outer loop
vertex -97.07169342 44.38774872 258.4069824
vertex -97.87682343 43.89044952 258.4860229
vertex -96.99934387 44.20269012 258.4243774

endloop
endfacet
facet normal 0.0644210875 0.1183261126 0.9908828735
outer loop
vertex -97.07169342 44.38774872 258.4069824
vertex -96.99934387 44.20269012 258.4243774
vertex -96.13464355 44.77919769 258.2993164

endloop
endfacet
facet normal 0.07550151646 0.1019321159 0.9919220805
outer loop
vertex -96.13464355 44.77919769 258.2993164
vertex -96.99934387 44.20269012 258.4243774
vertex -96.05179596 44.59815216 258.311615

endloop
endfacet
facet normal 0.1066469327 0.1158854812 0.9875206351
outer loop
vertex -96.13464355 44.77919769 258.2993164
vertex -96.05179596 44.59815216 258.311615
vertex -95.18729401 45.23027802 258.1440735

endloop
endfacet
facet normal 0.1173431948 0.1013591513 0.9879052639
outer loop
vertex -95.18729401 45.23027802 258.1440735
vertex -96.05179596 44.59815216 258.311615
vertex -95.09656525 45.05266571 258.1515198

endloop
endfacet
facet normal 0.1314536333 0.1084608585 0.9853711128
outer loop
vertex -95.18729401 45.23027802 258.1440735
vertex -95.09656525 45.05266571 258.1515198
vertex -94.25132751 45.71782684 257.9655457

endloop
endfacet
facet normal 0.1343471408 0.1047860757 0.9853785038
outer loop
vertex -94.25132751 45.71782684 257.9655457
vertex -95.09656525 45.05266571 258.1515198
vertex -94.15677643 45.54207611 257.971344

endloop
endfacet
facet normal 0.1223125905 0.09838505834 0.9876031876
outer loop
vertex -94.25132751 45.71782684 257.9655457
vertex -94.15677643 45.54207611 257.971344
vertex -93.32215118 46.22609711 257.7998352

endloop
endfacet
facet normal 0.1136552244 0.1089303866 0.9875305891
outer loop
vertex -93.32215118 46.22609711 257.7998352
vertex -94.15677643 45.54207611 257.971344
vertex -93.22632599 46.05113983 257.8081055

endloop
endfacet
facet normal 0.07916406542 0.09011439234 0.992780149
outer loop
vertex -93.32215118 46.22608185 257.7998352
vertex -93.22632599 46.05112457 257.808075
vertex -92.38763428 46.74222565 257.6784668

endloop
endfacet
facet normal 0.06173477322 0.1110989153 0.9918900132
outer loop
vertex -92.38763428 46.74222565 257.6784668
vertex -93.22632599 46.05112457 257.808075
vertex -92.29322815 46.5668869 257.6922302

endloop
endfacet
facet normal 0.01568691805 0.0866375342 0.9961163998
outer loop
vertex -92.38763428 46.74222565 257.6784668
vertex -92.29322815 46.5668869 257.6922302
vertex -91.42950439 47.24979401 257.6192322

endloop
endfacet
facet normal -0.00438068388 0.1117629334 0.9937251806
outer loop
vertex -91.42950439 47.24979401 257.6192322
vertex -92.29322815 46.5668869 257.6922302
vertex -91.3407135 47.07228851 257.6395874

endloop
endfacet
facet normal -0.05198401958 0.08806406707 0.9947574139
outer loop
vertex -91.42949677 47.24982452 257.6192627
vertex -91.3407135 47.07230377 257.6396179
vertex -90.42381287 47.72075653 257.630127

endloop
endfacet
facet normal -0.06898061186 0.1120464355 0.9913058281
outer loop
vertex -90.42381287 47.72075653 257.630127
vertex -91.3407135 47.07230377 257.6396179
vertex -90.34745789 47.53853607 257.6560364

endloop
endfacet
facet normal -0.1071147844 0.09582722187 0.9896178246
outer loop
vertex -90.42381287 47.72075653 257.630127
vertex -90.34745789 47.53853607 257.6560364
vertex -89.35224915 48.10826874 257.7085876

endloop
endfacet
facet normal -0.1169973835 0.113364704 0.9866407514
outer loop
vertex -89.35224915 48.10826874 257.7085876
vertex -90.34745789 47.53853607 257.6560364
vertex -89.29599762 47.91957855 257.7369385

endloop
endfacet
facet normal -0.1291379035 0.1095820069 0.9855532646
outer loop
vertex -89.35224915 48.10826874 257.7085876
vertex -89.29599762 47.91957855 257.7369385
vertex -88.22537231 48.36856842 257.827301

endloop
endfacet
facet normal -0.1318141818 0.1161873341 0.9844416976
outer loop
vertex -88.22537231 48.36856842 257.827301
vertex -89.29599762 47.91957855 257.7369385
vertex -88.19248199 48.17420197 257.8546448

endloop
endfacet
facet normal -0.1083669215 0.1204843521 0.9867827296
outer loop
vertex -88.22537231 48.36856842 257.827301
vertex -88.19248199 48.17420197 257.8546448
vertex -87.08322906 48.50029755 257.9366455

endloop
endfacet
facet normal -0.107583873 0.1177151948 0.9872025251
outer loop
vertex -87.08322906 48.50029755 257.9366455
vertex -88.19248199 48.17420197 257.8546448
vertex -87.06890106 48.30301666 257.961731

endloop
endfacet
facet normal -0.06270457059 0.1213999689 0.9906210899
outer loop
vertex -87.08322906 48.50032806 257.936676
vertex -87.06890106 48.30303192 257.9617615
vertex -85.96083069 48.55287933 258.0012817

endloop
endfacet
facet normal -0.06192386523 0.1178622395 0.991097331
outer loop
vertex -85.96083069 48.55287933 258.0012817
vertex -87.06890106 48.30303192 257.9617615
vertex -85.95547485 48.35475922 258.025177

endloop
endfacet
facet normal -0.02547198907 0.1190245971 0.9925644994
outer loop
vertex -85.96083069 48.55287933 258.0012817
vertex -85.95547485 48.35475922 258.025177
vertex -84.86739349 48.57769012 258.0263672

endloop
endfacet
facet normal -0.02519647032 0.1176789552 0.9927319884
outer loop
vertex -84.86739349 48.57769012 258.0263672
vertex -85.95547485 48.35475922 258.025177
vertex -84.86354828 48.37950897 258.0499573

endloop
endfacet
facet normal -0.009511265904 0.1180112213 0.9929667115
outer loop
vertex -84.86739349 48.57769012 258.0263672
vertex -84.86354828 48.37950897 258.0499573
vertex -83.80651855 48.6115799 258.0325012

endloop
endfacet
facet normal -0.009424899705 0.1176213771 0.9930137992
outer loop
vertex -83.80651855 48.6115799 258.0325012
vertex -84.86354828 48.37950897 258.0499573
vertex -83.79789734 48.41362762 258.0560303

endloop
endfacet
facet normal -0.009772615507 0.1176060587 0.9930122495
outer loop
vertex -83.80651855 48.6115799 258.0325012
vertex -83.79789734 48.41362762 258.0560303
vertex -82.80502319 48.68552399 258.0335999

endloop
endfacet
facet normal -0.009765652008 0.1175808758 0.9930152893
outer loop
vertex -82.80502319 48.68552399 258.0335999
vertex -83.79789734 48.41362762 258.0560303
vertex -82.78595734 48.48839569 258.0571289

endloop
endfacet
facet normal -0.01560643595 0.1170150414 0.9930075407
outer loop
vertex -82.80502319 48.68552399 258.0335999
vertex -82.78595734 48.48839569 258.0571289
vertex -81.9210434 48.80834198 258.03302

endloop
endfacet
facet normal -0.01560960244 0.1170235202 0.9930064678
outer loop
vertex -81.9210434 48.80834198 258.03302
vertex -82.78595734 48.48839569 258.0571289
vertex -81.88710785 48.61295319 258.0565796

endloop
endfacet
facet normal 0.02841776051 0.1245163679 0.9918105006
outer loop
vertex -81.9210434 48.80834198 258.03302
vertex -81.88710785 48.61293793 258.0565796
vertex -80.95426178 49.01114655 257.9798584

endloop
endfacet
facet normal 0.03442599624 0.1107198 0.9932552576
outer loop
vertex -80.95426178 49.01114655 257.9798584
vertex -81.88710785 48.61293793 258.0565796
vertex -80.90353394 48.79935455 258.001709

endloop
endfacet
facet normal 0.5415239334 0.213591814 0.8130992651
outer loop
vertex -80.95426178 49.01114655 257.9798584
vertex -80.90353394 48.79935455 258.001709
vertex -80.12020111 49.04877472 257.4144897

endloop
endfacet
facet normal 0.5996806622 0 0.8002394438
outer loop
vertex -80.12020111 49.04877472 257.4144897
vertex -80.90353394 48.79935455 258.001709
vertex -80.12020111 49.04875946 257.4144897

endloop
endfacet
facet normal -0.09379728884 -0.8809065819 0.4639026225
outer loop
vertex -99.69849396 43.41059113 258.0314026
vertex -99.69850159 43.41057587 258.0313721
vertex -98.8612442 43.57575226 258.5143127

endloop
endfacet
facet normal -0.3842252791 -0.4343606234 0.814678967
outer loop
vertex -98.8612442 43.57575226 258.5143127
vertex -99.69850159 43.41057587 258.0313721
vertex -98.80927277 43.37569427 258.4321594

endloop
endfacet
facet normal 0.1371515095 -0.3455797732 0.9283125401
outer loop
vertex -98.8612442 43.57575226 258.5143127
vertex -98.80927277 43.37569427 258.4321594
vertex -97.87682343 43.89044952 258.4860229

endloop
endfacet
facet normal 0.1235414445 -0.3220068216 0.9386421442
outer loop
vertex -97.87682343 43.89044952 258.4860229
vertex -98.80927277 43.37569427 258.4321594
vertex -97.81949615 43.69974518 258.4130554

endloop
endfacet
facet normal 0.1745265722 -0.3056713045 0.9360051155
outer loop
vertex -97.87682343 43.89044952 258.4860229
vertex -97.81949615 43.69974518 258.4130554
vertex -96.99934387 44.20269012 258.4243774

endloop
endfacet
facet normal 0.1809115112 -0.3159786463 0.9313583374
outer loop
vertex -96.99934387 44.20269012 258.4243774
vertex -97.81949615 43.69974518 258.4130554
vertex -96.93411255 44.01596832 258.3483582

endloop
endfacet
facet normal 0.2335803658 -0.2955342829 0.9263367057
outer loop
vertex -96.99934387 44.20269012 258.4243774
vertex -96.93411255 44.01596832 258.3483582
vertex -96.05179596 44.59815216 258.311615

endloop
endfacet
facet normal 0.2434235662 -0.3109319806 0.9187307954
outer loop
vertex -96.05179596 44.59815216 258.311615
vertex -96.93411255 44.01596832 258.3483582
vertex -95.98081207 44.4154892 258.2309875

endloop
endfacet
facet normal 0.290636301 -0.2895948887 0.9119568467
outer loop
vertex -96.05179596 44.59815216 258.311615
vertex -95.98081207 44.4154892 258.2309875
vertex -95.09656525 45.05266571 258.1515198

endloop
endfacet
facet normal 0.2998991609 -0.3033865392 0.9044430256
outer loop
vertex -95.09656525 45.05266571 258.1515198
vertex -95.98081207 44.4154892 258.2309875
vertex -95.02172852 44.87345123 258.0665894

endloop
endfacet
facet normal 0.3241912723 -0.2911687791 0.900067091
outer loop
vertex -95.09656525 45.05266571 258.1515198
vertex -95.02172852 44.87345123 258.0665894
vertex -94.15677643 45.54207611 257.971344

endloop
endfacet
facet normal 0.3266067505 -0.2945761681 0.8980828524
outer loop
vertex -94.15677643 45.54207611 257.971344
vertex -95.02172852 44.87345123 258.0665894
vertex -94.07911682 45.36478424 257.8849487

endloop
endfacet
facet normal 0.3206456006 -0.2977273762 0.8991912007
outer loop
vertex -94.15677643 45.54207611 257.971344
vertex -94.07911682 45.36478424 257.8849487
vertex -93.22632599 46.05113983 257.8081055

endloop
endfacet
facet normal 0.3132709563 -0.2879177928 0.904966712
outer loop
vertex -93.22632599 46.05113983 257.8081055
vertex -94.07911682 45.36478424 257.8849487
vertex -93.14478302 45.87464142 257.7237244

endloop
endfacet
facet normal 0.2814535201 -0.3048305511 0.9098693728
outer loop
vertex -93.22632599 46.05112457 257.808075
vertex -93.14478302 45.87464142 257.7237244
vertex -92.29322815 46.5668869 257.6922302

endloop
endfacet
facet normal 0.2659140527 -0.2852158844 0.9208374619
outer loop
vertex -92.29322815 46.5668869 257.6922302
vertex -93.14478302 45.87464142 257.7237244
vertex -92.20774078 46.39002228 257.6127625

endloop
endfacet
facet normal 0.2162901908 -0.3112464845 0.9253886342
outer loop
vertex -92.29322815 46.5668869 257.6922302
vertex -92.20774078 46.39002228 257.6127625
vertex -91.3407135 47.07228851 257.6395874

endloop
endfacet
facet normal 0.197673887 -0.2880450487 0.9369925857
outer loop
vertex -91.3407135 47.07228851 257.6395874
vertex -92.20774078 46.39002228 257.6127625
vertex -91.25431824 46.89322662 257.5663147

endloop
endfacet
facet normal 0.1342790127 -0.319103837 0.9381588101
outer loop
vertex -91.3407135 47.07230377 257.6396179
vertex -91.25431061 46.89324188 257.5663452
vertex -90.34745789 47.53853607 257.6560364

endloop
endfacet
facet normal 0.117767714 -0.2972016335 0.9475241303
outer loop
vertex -90.34745789 47.53853607 257.6560364
vertex -91.25431061 46.89324188 257.5663452
vertex -90.26704407 47.35469818 257.5883789

endloop
endfacet
facet normal 0.04597106203 -0.3272439539 0.943821013
outer loop
vertex -90.34745789 47.53853607 257.6560364
vertex -90.26704407 47.35469818 257.5883789
vertex -89.29599762 47.91957855 257.7369385

endloop
endfacet
facet normal 0.03606430814 -0.3117058277 0.9494940042
outer loop
vertex -89.29599762 47.91957855 257.7369385
vertex -90.26704407 47.35469818 257.5883789
vertex -89.23079681 47.7292099 257.6719666

endloop
endfacet
facet normal -0.02440955676 -0.3303830028 0.9435312748
outer loop
vertex -89.29599762 47.91957855 257.7369385
vertex -89.23079681 47.7292099 257.6719666
vertex -88.19248199 48.17420197 257.8546448

endloop
endfacet
facet normal -0.02766175941 -0.3237066269 0.9457530379
outer loop
vertex -88.19248199 48.17420197 257.8546448
vertex -89.23079681 47.7292099 257.6719666
vertex -88.14923096 47.97809601 257.7887878

endloop
endfacet
facet normal -0.05225579068 -0.3282542825 0.9431428909
outer loop
vertex -88.19248199 48.17420197 257.8546448
vertex -88.14923096 47.97809601 257.7887878
vertex -87.06890106 48.30301666 257.961731

endloop
endfacet
facet normal -0.05197294429 -0.3290545642 0.9428796172
outer loop
vertex -87.06890106 48.30301666 257.961731
vertex -88.14923096 47.97809601 257.7887878
vertex -87.04660034 48.10396576 257.8934937

endloop
endfacet
facet normal -0.03852760792 -0.3279075921 0.943923831
outer loop
vertex -87.06890106 48.30303192 257.9617615
vertex -87.04659271 48.10398102 257.8935242
vertex -85.95547485 48.35475922 258.025177

endloop
endfacet
facet normal -0.03783747181 -0.330457896 0.9430620074
outer loop
vertex -85.95547485 48.35475922 258.025177
vertex -87.04659271 48.10398102 257.8935242
vertex -85.94607544 48.15485382 257.9555054

endloop
endfacet
facet normal -0.013951011 -0.3296604455 0.943996489
outer loop
vertex -85.95547485 48.35475922 258.025177
vertex -85.94607544 48.15485382 257.9555054
vertex -84.86354828 48.37950897 258.0499573

endloop
endfacet
facet normal -0.01363075618 -0.331007421 0.9435297251
outer loop
vertex -84.86354828 48.37950897 258.0499573
vertex -85.94607544 48.15485382 257.9555054
vertex -84.85839844 48.17948151 257.9798584

endloop
endfacet
facet normal 0.005206446163 -0.3306016922 0.9437560439
outer loop
vertex -84.86354828 48.37950897 258.0499573
vertex -84.85839844 48.17948151 257.9798584
vertex -83.79789734 48.41362762 258.0560303

endloop
endfacet
facet normal 0.005329724867 -0.3311026692 0.9435796738
outer loop
vertex -83.79789734 48.41362762 258.0560303
vertex -84.85839844 48.17948151 257.9798584
vertex -83.78896332 48.21382904 257.9858704

endloop
endfacet
facet normal 0.02337994799 -0.3302981555 0.9435870647
outer loop
vertex -83.79789734 48.41362762 258.0560303
vertex -83.78896332 48.21382904 257.9858704
vertex -82.78595734 48.48839569 258.0571289

endloop
endfacet
facet normal 0.02344607934 -0.330519259 0.9435079694
outer loop
vertex -82.78595734 48.48839569 258.0571289
vertex -83.78896332 48.21382904 257.9858704
vertex -82.76669312 48.28948212 257.986969

endloop
endfacet
facet normal 0.04607143998 -0.3283065557 0.9434469938
outer loop
vertex -82.78595734 48.48839569 258.0571289
vertex -82.76669312 48.28948212 257.986969
vertex -81.88710785 48.61295319 258.0565796

endloop
endfacet
facet normal 0.0463308543 -0.3289602101 0.9432066083
outer loop
vertex -81.88710785 48.61295319 258.0565796
vertex -82.76669312 48.28948212 257.986969
vertex -81.85290527 48.41599274 257.9862061

endloop
endfacet
facet normal 0.112612091 -0.3169744015 0.9417248964
outer loop
vertex -81.88710785 48.61293793 258.0565796
vertex -81.8529129 48.416008 257.9862061
vertex -80.90353394 48.79935455 258.001709

endloop
endfacet
facet normal 0.124238722 -0.3453035951 0.9302312732
outer loop
vertex -80.90353394 48.79935455 258.001709
vertex -81.8529129 48.416008 257.9862061
vertex -80.85542297 48.59806061 257.9205627

endloop
endfacet
facet normal 0.624117732 -0.1591957062 0.7649403811
outer loop
vertex -80.90353394 48.79935455 258.001709
vertex -80.85542297 48.59806061 257.9205627
vertex -80.12020111 49.04875946 257.4144897

endloop
endfacet
facet normal -nan(ind) -nan(ind) -nan(ind)
outer loop
vertex -80.12020111 49.04875946 257.4144897
vertex -80.85542297 48.59806061 257.9205627
vertex -80.12020111 49.04875946 257.4144897

endloop
endfacet
facet normal -nan(ind) -nan(ind) -nan(ind)
outer loop
vertex -99.69850159 43.41057587 258.0313721
vertex -99.69850159 43.41057587 258.0313721
vertex -98.80927277 43.37569427 258.4321594

endloop
endfacet
facet normal -0.2960183918 -0.749998033 0.5915031433
outer loop
vertex -98.80927277 43.37569427 258.4321594
vertex -99.69850159 43.41057587 258.0313721
vertex -98.77215576 43.22602081 258.2609558

endloop
endfacet
facet normal 0.2432172894 -0.703512013 0.6677696109
outer loop
vertex -98.80927277 43.37569427 258.4321594
vertex -98.77215576 43.22602081 258.2609558
vertex -97.81949615 43.69974518 258.4130554

endloop
endfacet
facet normal 0.2252352387 -0.6776973605 0.6999966502
outer loop
vertex -97.81949615 43.69974518 258.4130554
vertex -98.77215576 43.22602081 258.2609558
vertex -97.77753448 43.54605865 258.2507629

endloop
endfacet
facet normal 0.2858605087 -0.6578044295 0.6968336701
outer loop
vertex -97.81949615 43.69974518 258.4130554
vertex -97.77753448 43.54605865 258.2507629
vertex -96.93411255 44.01596832 258.3483582

endloop
endfacet
facet normal 0.2910127044 -0.665148437 0.6876693368
outer loop
vertex -96.93411255 44.01596832 258.3483582
vertex -97.77753448 43.54605865 258.2507629
vertex -96.88999939 43.86527252 258.1839294

endloop
endfacet
facet normal 0.3525384068 -0.6408624649 0.6819178462
outer loop
vertex -96.93411255 44.01596832 258.3483582
vertex -96.88999939 43.86527252 258.1839294
vertex -95.98081207 44.4154892 258.2309875

endloop
endfacet
facet normal 0.3601465523 -0.6521639824 0.6670656204
outer loop
vertex -95.98081207 44.4154892 258.2309875
vertex -96.88999939 43.86527252 258.1839294
vertex -95.93737793 44.26807404 258.0634155

endloop
endfacet
facet normal 0.4129541516 -0.6280621886 0.6595504284
outer loop
vertex -95.98081207 44.4154892 258.2309875
vertex -95.93737793 44.26807404 258.0634155
vertex -95.02172852 44.87345123 258.0665894

endloop
endfacet
facet normal 0.4197357595 -0.6382451653 0.6453410387
outer loop
vertex -95.02172852 44.87345123 258.0665894
vertex -95.93737793 44.26807404 258.0634155
vertex -94.97970581 44.72881317 257.8962097

endloop
endfacet
facet normal 0.4484886229 -0.623763144 0.6401386261
outer loop
vertex -95.02172852 44.87345123 258.0665894
vertex -94.97970581 44.72881317 257.8962097
vertex -94.07911682 45.36478424 257.8849487

endloop
endfacet
facet normal 0.4502481818 -0.626321137 0.636394918
outer loop
vertex -94.07911682 45.36478424 257.8849487
vertex -94.97970581 44.72881317 257.8962097
vertex -94.0359726 45.22168732 257.7135925

endloop
endfacet
facet normal 0.451264888 -0.6257843375 0.6362028122
outer loop
vertex -94.07911682 45.36478424 257.8849487
vertex -94.0359726 45.22168732 257.7135925
vertex -93.14478302 45.87464142 257.7237244

endloop
endfacet
facet normal 0.4459867179 -0.6187437177 0.6467240453
outer loop
vertex -93.14478302 45.87464142 257.7237244
vertex -94.0359726 45.22168732 257.7135925
vertex -93.0956192 45.73218536 257.5535278

endloop
endfacet
facet normal 0.4238109589 -0.6305630207 0.6502111554
outer loop
vertex -93.14478302 45.87464142 257.7237244
vertex -93.0956192 45.73218536 257.5535278
vertex -92.20774078 46.39002228 257.6127625

endloop
endfacet
facet normal 0.4120177031 -0.6165118814 0.6709355712
outer loop
vertex -92.20774078 46.39002228 257.6127625
vertex -93.0956192 45.73218536 257.5535278
vertex -92.14945221 46.24727631 257.4458008

endloop
endfacet
facet normal 0.3698500097 -0.6384530663 0.6749730706
outer loop
vertex -92.20774078 46.39002228 257.6127625
vertex -92.14945221 46.24727631 257.4458008
vertex -91.25431824 46.89322662 257.5663147

endloop
endfacet
facet normal 0.35470137 -0.6218027472 0.6982465386
outer loop
vertex -91.25431824 46.89322662 257.5663147
vertex -92.14945221 46.24727631 257.4458008
vertex -91.1880188 46.74866486 257.4039001

endloop
endfacet
facet normal 0.2896825969 -0.6531689763 0.6996100545
outer loop
vertex -91.25431061 46.89324188 257.5663452
vertex -91.1880188 46.74868011 257.4039307
vertex -90.26704407 47.35469818 257.5883789

endloop
endfacet
facet normal 0.2755961418 -0.6377416253 0.7192582488
outer loop
vertex -90.26704407 47.35469818 257.5883789
vertex -91.1880188 46.74868011 257.4039307
vertex -90.19833374 47.20627594 257.4304504

endloop
endfacet
facet normal 0.1860497743 -0.6742891073 0.7146465778
outer loop
vertex -90.26704407 47.35469818 257.5883789
vertex -90.19833374 47.20627594 257.4304504
vertex -89.23079681 47.7292099 257.6719666

endloop
endfacet
facet normal 0.1772531718 -0.6636138558 0.7267723083
outer loop
vertex -89.23079681 47.7292099 257.6719666
vertex -90.19833374 47.20627594 257.4304504
vertex -89.16884613 47.57553864 257.5165405

endloop
endfacet
facet normal 0.08184445649 -0.69222188 0.7170287371
outer loop
vertex -89.23079681 47.7292099 257.6719666
vertex -89.16884613 47.57553864 257.5165405
vertex -88.14923096 47.97809601 257.7887878

endloop
endfacet
facet normal 0.07906520367 -0.6880805492 0.721314013
outer loop
vertex -88.14923096 47.97809601 257.7887878
vertex -89.16884613 47.57553864 257.5165405
vertex -88.10316467 47.81981659 257.6327515

endloop
endfacet
facet normal 0.01214335673 -0.700196445 0.7138469815
outer loop
vertex -88.14923096 47.97809601 257.7887878
vertex -88.10316467 47.81981659 257.6327515
vertex -87.04660034 48.10396576 257.8934937

endloop
endfacet
facet normal 0.01233875938 -0.7005771399 0.7134699821
outer loop
vertex -87.04660034 48.10396576 257.8934937
vertex -88.10316467 47.81981659 257.6327515
vertex -87.01991272 47.94332123 257.7352905

endloop
endfacet
facet normal -0.007623312529 -0.7023282051 0.7118124366
outer loop
vertex -87.04659271 48.10398102 257.8935242
vertex -87.01989746 47.94335175 257.735321
vertex -85.94607544 48.15485382 257.9555054

endloop
endfacet
facet normal -0.007150313351 -0.7035143375 0.7106450796
outer loop
vertex -85.94607544 48.15485382 257.9555054
vertex -87.01989746 47.94335175 257.735321
vertex -85.93406677 47.9935379 257.795929

endloop
endfacet
facet normal 5.929565759e-06 -0.703263104 0.7109296322
outer loop
vertex -85.94607544 48.15485382 257.9555054
vertex -85.93406677 47.9935379 257.795929
vertex -84.85839844 48.17948151 257.9798584

endloop
endfacet
facet normal 0.0002833653998 -0.7040738463 0.7101267576
outer loop
vertex -84.85839844 48.17948151 257.9798584
vertex -85.93406677 47.9935379 257.795929
vertex -84.8527832 48.01810455 257.8198547

endloop
endfacet
facet normal 0.01860564947 -0.7036303878 0.7103225589
outer loop
vertex -84.85839844 48.17948151 257.9798584
vertex -84.8527832 48.01810455 257.8198547
vertex -83.78896332 48.21382904 257.9858704

endloop
endfacet
facet normal 0.01873897575 -0.7040225267 0.7099304795
outer loop
vertex -83.78896332 48.21382904 257.9858704
vertex -84.8527832 48.01810455 257.8198547
vertex -83.78149414 48.05261993 257.8258057

endloop
endfacet
facet normal 0.05122281611 -0.7024624944 0.7098751068
outer loop
vertex -83.78896332 48.21382904 257.9858704
vertex -83.78149414 48.05261993 257.8258057
vertex -82.76669312 48.28948212 257.986969

endloop
endfacet
facet normal 0.05130421743 -0.702668488 0.7096652985
outer loop
vertex -82.76669312 48.28948212 257.986969
vertex -83.78149414 48.05261993 257.8258057
vertex -82.75112915 48.12892914 257.8268738

endloop
endfacet
facet normal 0.09722919762 -0.6980091929 0.7094573379
outer loop
vertex -82.76669312 48.28948212 257.986969
vertex -82.75112915 48.12892914 257.8268738
vertex -81.85290527 48.41599274 257.9862061

endloop
endfacet
facet normal 0.09764973819 -0.6988391876 0.7085818648
outer loop
vertex -81.85290527 48.41599274 257.9862061
vertex -82.75112915 48.12892914 257.8268738
vertex -81.82533264 48.25727081 257.8258667

endloop
endfacet
facet normal 0.1716368496 -0.6851869226 0.7078557014
outer loop
vertex -81.8529129 48.416008 257.9862061
vertex -81.82534027 48.25727081 257.8258667
vertex -80.85542297 48.59806061 257.9205627

endloop
endfacet
facet normal 0.1860829145 -0.7164416909 0.6723722816
outer loop
vertex -80.85542297 48.59806061 257.9205627
vertex -81.82534027 48.25727081 257.8258667
vertex -80.81948853 48.44738007 257.750061

endloop
endfacet
facet normal 0.6776134968 -0.4743335545 0.5620032549
outer loop
vertex -80.85542297 48.59806061 257.9205627
vertex -80.81948853 48.44738007 257.750061
vertex -80.12020111 49.04875946 257.4144897

endloop
endfacet
facet normal -nan(ind) -nan(ind) -nan(ind)
outer loop
vertex -80.12020111 49.04875946 257.4144897
vertex -80.81948853 48.44738007 257.750061
vertex -80.12020111 49.04875946 257.4144897

endloop
endfacet
facet normal 0.2405619621 0 -0.9706338048
outer loop
vertex -99.69850159 43.41056061 258.0313721
vertex -99.69850159 43.41057587 258.0313721
vertex -98.77216339 43.2259903 258.2609558

endloop
endfacet
facet normal -0.2405388802 -0.9480181336 0.2083331048
outer loop
vertex -98.77216339 43.2259903 258.2609558
vertex -99.69850159 43.41057587 258.0313721
vertex -98.76011658 43.16402435 257.9928894

endloop
endfacet
facet normal 0.3003797829 -0.92626369 0.2276130915
outer loop
vertex -98.77216339 43.2259903 258.2609558
vertex -98.76011658 43.16402435 257.9928894
vertex -97.77753448 43.54602814 258.2507324

endloop
endfacet
facet normal 0.2859528065 -0.9189162254 0.2717055976
outer loop
vertex -97.77753448 43.54602814 258.2507324
vertex -98.76011658 43.16402435 257.9928894
vertex -97.76476288 43.47089386 257.9831848

endloop
endfacet
facet normal 0.3438484371 -0.8996527791 0.2690596282
outer loop
vertex -97.77753448 43.54602814 258.2507324
vertex -97.76476288 43.47089386 257.9831848
vertex -96.88999939 43.86525726 258.1838989

endloop
endfacet
facet normal 0.3477139473 -0.9018336535 0.2564977407
outer loop
vertex -96.88999939 43.86525726 258.1838989
vertex -97.76476288 43.47089386 257.9831848
vertex -96.88389587 43.79135895 257.915802

endloop
endfacet
facet normal 0.4037594199 -0.8795773387 0.2516389787
outer loop
vertex -96.88999939 43.86525726 258.1838989
vertex -96.88389587 43.79135895 257.915802
vertex -95.93738556 44.26807404 258.0634155

endloop
endfacet
facet normal 0.4085317552 -0.882860899 0.2316429168
outer loop
vertex -95.93738556 44.26807404 258.0634155
vertex -96.88389587 43.79135895 257.915802
vertex -95.9413147 44.19579315 257.7948608

endloop
endfacet
facet normal 0.4540581107 -0.8619995713 0.2253620625
outer loop
vertex -95.93738556 44.26807404 258.0634155
vertex -95.9413147 44.19579315 257.7948608
vertex -94.97971344 44.72881317 257.8962097

endloop
endfacet
facet normal 0.4576555192 -0.8648651242 0.2063004524
outer loop
vertex -94.97971344 44.72881317 257.8962097
vertex -95.9413147 44.19579315 257.7948608
vertex -94.99259949 44.65790558 257.627533

endloop
endfacet
facet normal 0.4837868214 -0.8516591191 0.201561898
outer loop
vertex -94.97971344 44.72881317 257.8962097
vertex -94.99259949 44.65790558 257.627533
vertex -94.0359726 45.22168732 257.7135925

endloop
endfacet
facet normal 0.4846485853 -0.8523498774 0.1965081543
outer loop
vertex -94.0359726 45.22168732 257.7135925
vertex -94.99259949 44.65790558 257.627533
vertex -94.05036163 45.1515274 257.4447632

endloop
endfacet
facet normal 0.4933540523 -0.8477269411 0.1948357075
outer loop
vertex -94.0359726 45.22168732 257.7135925
vertex -94.05036163 45.1515274 257.4447632
vertex -93.09562683 45.73215485 257.5535278

endloop
endfacet
facet normal 0.4907856584 -0.846020937 0.2082736641
outer loop
vertex -93.09562683 45.73215485 257.5535278
vertex -94.05036163 45.1515274 257.4447632
vertex -93.10179138 45.66233063 257.2844238

endloop
endfacet
facet normal 0.4858138561 -0.8486764431 0.2091247141
outer loop
vertex -93.09562683 45.7321701 257.5535278
vertex -93.10179138 45.66233063 257.2844238
vertex -92.14945984 46.24724579 257.4458008

endloop
endfacet
facet normal 0.4791666567 -0.8453345895 0.2362387031
outer loop
vertex -92.14945984 46.24724579 257.4458008
vertex -93.10179138 45.66233063 257.2844238
vertex -92.14035797 46.17726898 257.1769409

endloop
endfacet
facet normal 0.4572176039 -0.8567854166 0.2384760529
outer loop
vertex -92.14945984 46.24724579 257.4458008
vertex -92.14035797 46.17726898 257.1769409
vertex -91.1880188 46.7486496 257.4039001

endloop
endfacet
facet normal 0.4473308921 -0.8527237177 0.269735992
outer loop
vertex -91.1880188 46.7486496 257.4039001
vertex -92.14035797 46.17726898 257.1769409
vertex -91.16178894 46.67778778 257.1363831

endloop
endfacet
facet normal 0.3979782164 -0.8764109612 0.271140486
outer loop
vertex -91.1880188 46.74866486 257.4039307
vertex -91.16178894 46.67780304 257.1363831
vertex -90.19833374 47.20627594 257.4304199

endloop
endfacet
facet normal 0.3873420954 -0.8722628355 0.2985358536
outer loop
vertex -90.19833374 47.20627594 257.4304199
vertex -91.16178894 46.67780304 257.1363831
vertex -90.15773773 47.13350677 257.1651306

endloop
endfacet
facet normal 0.3006810546 -0.9070167542 0.2948075831
outer loop
vertex -90.19833374 47.20627594 257.4304199
vertex -90.15773773 47.13350677 257.1651306
vertex -89.16884613 47.57553864 257.51651

endloop
endfacet
facet normal 0.2934471369 -0.9038922787 0.3112355471
outer loop
vertex -89.16884613 47.57553864 257.51651
vertex -90.15773773 47.13350677 257.1651306
vertex -89.12149048 47.50017548 257.2529907

endloop
endfacet
facet normal 0.1818491071 -0.9363018274 0.3004495502
outer loop
vertex -89.16884613 47.57553864 257.51651
vertex -89.12149048 47.50017548 257.2529907
vertex -88.10316467 47.81981659 257.6327515

endloop
endfacet
facet normal 0.1799609661 -0.9353018999 0.3046709597
outer loop
vertex -88.10316467 47.81981659 257.6327515
vertex -89.12149048 47.50017548 257.2529907
vertex -88.06031799 47.74221039 257.3692017

endloop
endfacet
facet normal 0.08079121262 -0.95250386 0.2936137617
outer loop
vertex -88.10316467 47.81981659 257.6327515
vertex -88.06031799 47.74221039 257.3692017
vertex -87.01991272 47.94330597 257.7352905

endloop
endfacet
facet normal 0.08142712712 -0.952932775 0.2920420468
outer loop
vertex -87.01991272 47.94330597 257.7352905
vertex -88.06031799 47.74221039 257.3692017
vertex -86.99103546 47.86455536 257.4702759

endloop
endfacet
facet normal 0.02819721214 -0.9573491812 0.2875542641
outer loop
vertex -87.01990509 47.94333649 257.735321
vertex -86.99102783 47.86458588 257.4703064
vertex -85.93406677 47.99352264 257.795929

endloop
endfacet
facet normal 0.02871401235 -0.9577845931 0.2860491574
outer loop
vertex -85.93406677 47.99352264 257.795929
vertex -86.99102783 47.86458588 257.4703064
vertex -85.9201355 47.91443634 257.5297241

endloop
endfacet
facet normal 0.01545447949 -0.9582555294 0.285495162
outer loop
vertex -85.93406677 47.99352264 257.795929
vertex -85.9201355 47.91443634 257.5297241
vertex -84.85279846 48.01808929 257.8198547

endloop
endfacet
facet normal 0.01567101851 -0.9584665298 0.284773916
outer loop
vertex -84.85279846 48.01808929 257.8198547
vertex -85.9201355 47.91443634 257.5297241
vertex -84.84741211 47.93895721 257.5532227

endloop
endfacet
facet normal 0.02928571217 -0.9580980539 0.2849395871
outer loop
vertex -84.85279846 48.01808929 257.8198547
vertex -84.84741211 47.93895721 257.5532227
vertex -83.7815094 48.05260468 257.8258057

endloop
endfacet
facet normal 0.02942386828 -0.9582371116 0.2844573259
outer loop
vertex -83.7815094 48.05260468 257.8258057
vertex -84.84741211 47.93895721 257.5532227
vertex -83.77732086 47.97356415 257.5591125

endloop
endfacet
facet normal 0.07051343471 -0.9560892582 0.2844661176
outer loop
vertex -83.7815094 48.05260468 257.8258057
vertex -83.77732086 47.97356415 257.5591125
vertex -82.75114441 48.12891388 257.8268738

endloop
endfacet
facet normal 0.07059846073 -0.956166625 0.2841851413
outer loop
vertex -82.75114441 48.12891388 257.8268738
vertex -83.77732086 47.97356415 257.5591125
vertex -82.74340057 48.05019379 257.5600891

endloop
endfacet
facet normal 0.1319621652 -0.9496839643 0.2840534747
outer loop
vertex -82.75114441 48.12891388 257.8268738
vertex -82.74340057 48.05019379 257.5600891
vertex -81.8253479 48.25725555 257.8258667

endloop
endfacet
facet normal 0.1323147565 -0.9499391317 0.2830342948
outer loop
vertex -81.8253479 48.25725555 257.8258667
vertex -82.74340057 48.05019379 257.5600891
vertex -81.81181335 48.17963409 257.559021

endloop
endfacet
facet normal 0.1986713558 -0.9383259416 0.2829738557
outer loop
vertex -81.82535553 48.25725555 257.8258667
vertex -81.81181335 48.17964935 257.559021
vertex -80.81949615 48.44736481 257.750061

endloop
endfacet
facet normal 0.2111975849 -0.9492223859 0.2331789285
outer loop
vertex -80.81949615 48.44736481 257.750061
vertex -81.81181335 48.17964935 257.559021
vertex -80.80463409 48.38489532 257.4822998

endloop
endfacet
facet normal 0.6922854781 -0.6933041215 0.2001751363
outer loop
vertex -80.81949615 48.44736481 257.750061
vertex -80.80463409 48.38489532 257.4822998
vertex -80.12020111 49.0487442 257.4144897

endloop
endfacet
facet normal -0.0984479934 0 -0.9951422215
outer loop
vertex -80.12020111 49.0487442 257.4144897
vertex -80.80463409 48.38489532 257.4822998
vertex -80.12020111 49.04875946 257.4144897

endloop
endfacet
facet normal 0.04094258323 -0 0.9991614819
outer loop
vertex -99.69850159 43.41059113 258.0313721
vertex -99.69850159 43.41057587 258.0313721
vertex -98.76011658 43.16400909 257.9929199

endloop
endfacet
facet normal -0.2516606152 -0.9037841558 -0.3461807072
outer loop
vertex -98.76011658 43.16400909 257.9929199
vertex -99.69850159 43.41057587 258.0313721
vertex -98.81529236 43.34276581 257.5663452

endloop
endfacet
facet normal 0.2662346363 -0.8762491345 -0.4016298354
outer loop
vertex -98.76011658 43.16400909 257.9929199
vertex -98.81529236 43.34276581 257.5663452
vertex -97.76476288 43.47089386 257.9831848

endloop
endfacet
facet normal 0.2585222423 -0.888841033 -0.3783224225
outer loop
vertex -97.76476288 43.47089386 257.9831848
vertex -98.81529236 43.34276581 257.5663452
vertex -97.83691406 43.64044952 257.5355225

endloop
endfacet
facet normal 0.2905296683 -0.8783831596 -0.3795201778
outer loop
vertex -97.76476288 43.47089386 257.9831848
vertex -97.83691406 43.64044952 257.5355225
vertex -96.88389587 43.79135895 257.915802

endloop
endfacet
facet normal 0.2946275175 -0.871227026 -0.3926297128
outer loop
vertex -96.88389587 43.79135895 257.915802
vertex -97.83691406 43.64044952 257.5355225
vertex -96.98425293 43.95740509 257.4720459

endloop
endfacet
facet normal 0.3191011548 -0.8616696596 -0.3945883214
outer loop
vertex -96.88389587 43.79135895 257.915802
vertex -96.98425293 43.95740509 257.4720459
vertex -95.9413147 44.19579315 257.7948914

endloop
endfacet
facet normal 0.322701484 -0.8511704803 -0.4139716029
outer loop
vertex -95.9413147 44.19579315 257.7948914
vertex -96.98425293 43.95740509 257.4720459
vertex -96.07326508 44.35816193 257.3581848

endloop
endfacet
facet normal 0.3378460109 -0.8442837596 -0.4159869254
outer loop
vertex -95.9413147 44.19579315 257.7948914
vertex -96.07326508 44.35816193 257.3581848
vertex -94.99259186 44.65789032 257.627533

endloop
endfacet
facet normal 0.3396326005 -0.834310174 -0.4342536926
outer loop
vertex -94.99259186 44.65789032 257.627533
vertex -96.07326508 44.35816193 257.3581848
vertex -95.15046692 44.81717682 257.1980286

endloop
endfacet
facet normal 0.3498129249 -0.8291367888 -0.4360771179
outer loop
vertex -94.99259186 44.65789032 257.627533
vertex -95.15046692 44.81717682 257.1980286
vertex -94.05036163 45.1515274 257.4447937

endloop
endfacet
facet normal 0.350086987 -0.8264320493 -0.4409639835
outer loop
vertex -94.05036163 45.1515274 257.4447937
vertex -95.15046692 44.81717682 257.1980286
vertex -94.21638489 45.30916595 257.0175476

endloop
endfacet
facet normal 0.3655483723 -0.8181210756 -0.4439056516
outer loop
vertex -94.05036163 45.1515274 257.4447937
vertex -94.21638489 45.30916595 257.0175476
vertex -93.10179138 45.66236115 257.2844543

endloop
endfacet
facet normal 0.3647662103 -0.8251903057 -0.4312846065
outer loop
vertex -93.10179138 45.66236115 257.2844543
vertex -94.21638489 45.30916595 257.0175476
vertex -93.25689697 45.81926727 256.8530579

endloop
endfacet
facet normal 0.3868974745 -0.8131192327 -0.4349108934
outer loop
vertex -93.10179138 45.66234589 257.2844238
vertex -93.25689697 45.81926727 256.8530579
vertex -92.1403656 46.1772995 257.1769409

endloop
endfacet
facet normal 0.3841013312 -0.8276628256 -0.4091947675
outer loop
vertex -92.1403656 46.1772995 257.1769409
vertex -93.25689697 45.81926727 256.8530579
vertex -92.26963806 46.33454132 256.7375488

endloop
endfacet
facet normal 0.4015428126 -0.8184282184 -0.4110214412
outer loop
vertex -92.1403656 46.1772995 257.1769409
vertex -92.26963806 46.33454132 256.7375488
vertex -91.16178131 46.67780304 257.1363525

endloop
endfacet
facet normal 0.3959688246 -0.8356053829 -0.3807522357
outer loop
vertex -91.16178131 46.67780304 257.1363525
vertex -92.26963806 46.33454132 256.7375488
vertex -91.2558136 46.83705902 256.6890564

endloop
endfacet
facet normal 0.3912028968 -0.8379210234 -0.3805900216
outer loop
vertex -91.16178131 46.6778183 257.1363831
vertex -91.25579834 46.83708954 256.6890869
vertex -90.15773773 47.13352203 257.1651306

endloop
endfacet
facet normal 0.3834706247 -0.8533747792 -0.3531313837
outer loop
vertex -90.15773773 47.13352203 257.1651306
vertex -91.25579834 46.83708954 256.6890869
vertex -90.21043396 47.29701996 256.7127991

endloop
endfacet
facet normal 0.3384725451 -0.8716480732 -0.3544941247
outer loop
vertex -90.15773773 47.13352203 257.1651306
vertex -90.21043396 47.29701996 256.7127991
vertex -89.12149811 47.50017548 257.2529907

endloop
endfacet
facet normal 0.3318049014 -0.8808765411 -0.3375826776
outer loop
vertex -89.12149811 47.50017548 257.2529907
vertex -90.21043396 47.29701996 256.7127991
vertex -89.1332016 47.66950226 256.7996521

endloop
endfacet
facet normal 0.2444579899 -0.9062793255 -0.3448159397
outer loop
vertex -89.12149811 47.50017548 257.2529907
vertex -89.1332016 47.66950226 256.7996521
vertex -88.06032562 47.74221039 257.3691711

endloop
endfacet
facet normal 0.2428005636 -0.9079880118 -0.341475457
outer loop
vertex -88.06032562 47.74221039 257.3691711
vertex -89.1332016 47.66950226 256.7996521
vertex -88.04363251 47.91660309 256.9173279

endloop
endfacet
facet normal 0.1392045021 -0.9255586267 -0.3520843089
outer loop
vertex -88.06032562 47.74221039 257.3691711
vertex -88.04363251 47.91660309 256.9173279
vertex -86.99104309 47.86457062 257.4702759

endloop
endfacet
facet normal 0.1411316842 -0.9239217043 -0.3555987775
outer loop
vertex -86.99104309 47.86457062 257.4702759
vertex -88.04363251 47.91660309 256.9173279
vertex -86.96792603 48.04157257 257.0195618

endloop
endfacet
facet normal 0.06337762624 -0.93002671 -0.3619853854
outer loop
vertex -86.99102783 47.86460114 257.4703064
vertex -86.9679184 48.04160309 257.0195923
vertex -85.9201355 47.9144516 257.5297241

endloop
endfacet
facet normal 0.06466060132 -0.9290079474 -0.3643666208
outer loop
vertex -85.9201355 47.9144516 257.5297241
vertex -86.9679184 48.04160309 257.0195923
vertex -85.9066925 48.09218597 257.078949

endloop
endfacet
facet normal 0.02927513234 -0.9301972985 -0.365890801
outer loop
vertex -85.9201355 47.9144516 257.5297241
vertex -85.9066925 48.09218597 257.078949
vertex -84.84741211 47.93895721 257.5532532

endloop
endfacet
facet normal 0.02958165109 -0.929949522 -0.3664953113
outer loop
vertex -84.84741211 47.93895721 257.5532532
vertex -85.9066925 48.09218597 257.078949
vertex -84.84495544 48.11678314 257.1022339

endloop
endfacet
facet normal 0.03207911551 -0.9298825264 -0.3664553463
outer loop
vertex -84.84741211 47.93895721 257.5532532
vertex -84.84495544 48.11678314 257.1022339
vertex -83.77732086 47.97356415 257.5591125

endloop
endfacet
facet normal 0.03216801211 -0.9298068881 -0.3666393161
outer loop
vertex -83.77732086 47.97356415 257.5591125
vertex -84.84495544 48.11678314 257.1022339
vertex -83.78395081 48.15119171 257.1080627

endloop
endfacet
facet normal 0.06912759691 -0.9278770089 -0.3664225638
outer loop
vertex -83.77732086 47.97356415 257.5591125
vertex -83.78395081 48.15119171 257.1080627
vertex -82.7434082 48.05019379 257.5601196

endloop
endfacet
facet normal 0.06913680583 -0.9278687239 -0.3664419353
outer loop
vertex -82.7434082 48.05019379 257.5601196
vertex -83.78395081 48.15119171 257.1080627
vertex -82.76033783 48.22708893 257.1090088

endloop
endfacet
facet normal 0.1276641935 -0.9217254519 -0.3662294149
outer loop
vertex -82.7434082 48.05019379 257.5601196
vertex -82.76033783 48.22708893 257.1090088
vertex -81.81181335 48.17964935 257.5590515

endloop
endfacet
facet normal 0.1278840601 -0.9215193987 -0.3666710854
outer loop
vertex -81.81181335 48.17964935 257.5590515
vertex -82.76033783 48.22708893 257.1090088
vertex -81.8420639 48.35478973 257.1083374

endloop
endfacet
facet normal 0.1588357687 -0.9166228175 -0.366843015
outer loop
vertex -81.81182098 48.17964935 257.5590515
vertex -81.8420639 48.35478973 257.1083374
vertex -80.80463409 48.38489532 257.4822998

endloop
endfacet
facet normal 0.1691205353 -0.9023107886 -0.3965267241
outer loop
vertex -80.80463409 48.38489532 257.4822998
vertex -81.8420639 48.35478973 257.1083374
vertex -80.84741211 48.56478119 257.054718

endloop
endfacet
facet normal 0.6331223845 -0.6888086796 -0.3531269729
outer loop
vertex -80.80463409 48.38489532 257.4822998
vertex -80.84741211 48.56478119 257.054718
vertex -80.12020111 49.04875946 257.4144897

endloop
endfacet
facet normal -nan(ind) -nan(ind) -nan(ind)
outer loop
vertex -80.12020111 49.04875946 257.4144897
vertex -80.84741211 48.56478119 257.054718
vertex -80.12020111 49.04875946 257.4144897

endloop
endfacet
endsolid
