solid 
facet normal -nan(ind) -nan(ind) -nan(ind)
outer loop
vertex -48.5398941 27.99806976 255.3423615
vertex -48.5398941 27.99806976 255.3423615
vertex -48.10764313 27.23070526 255.3755493

endloop
endfacet
facet normal -0.4650573134 -0.2980164587 -0.8336113691
outer loop
vertex -48.10764313 27.23070526 255.3755493
vertex -48.5398941 27.99806976 255.3423615
vertex -47.83438873 27.67610931 255.0638733

endloop
endfacet
facet normal 0.2934198081 -0.6623733044 -0.6893231869
outer loop
vertex -48.10764313 27.23070526 255.3755493
vertex -47.83438873 27.67610931 255.0638733
vertex -47.52433014 27.10765839 255.7420807

endloop
endfacet
facet normal 0.3090387583 -0.6545858383 -0.6899365187
outer loop
vertex -47.52433014 27.10765839 255.7420807
vertex -47.83438873 27.67610931 255.0638733
vertex -47.24417877 27.57524872 255.4239349

endloop
endfacet
facet normal 0.2803678513 -0.6491128206 -0.7071396112
outer loop
vertex -47.52433014 27.10765839 255.7420807
vertex -47.24417877 27.57524872 255.4239349
vertex -46.94159698 26.98555756 256.0852051

endloop
endfacet
facet normal 0.2854363322 -0.6467084885 -0.7073148489
outer loop
vertex -46.94159698 26.98555756 256.0852051
vertex -47.24417877 27.57524872 255.4239349
vertex -46.65483856 27.45392609 255.7726898

endloop
endfacet
facet normal 0.3004972041 -0.6498230696 -0.6981629133
outer loop
vertex -46.94159698 26.98555756 256.0852051
vertex -46.65483856 27.45392609 255.7726898
vertex -46.3169632 26.85436249 256.4761658

endloop
endfacet
facet normal 0.3075411916 -0.6462000012 -0.6984582543
outer loop
vertex -46.3169632 26.85436249 256.4761658
vertex -46.65483856 27.45392609 255.7726898
vertex -46.02045441 27.32440948 256.1718445

endloop
endfacet
facet normal 0.3297828734 -0.650798142 -0.6838896275
outer loop
vertex -46.3169632 26.85436249 256.4761658
vertex -46.02045441 27.32440948 256.1718445
vertex -45.6987381 26.72838593 256.894165

endloop
endfacet
facet normal 0.3370951116 -0.6469525099 -0.6839731932
outer loop
vertex -45.6987381 26.72838593 256.894165
vertex -46.02045441 27.32440948 256.1718445
vertex -45.39388275 27.19928741 256.598999

endloop
endfacet
facet normal 0.3656973243 -0.6526652575 -0.663546145
outer loop
vertex -45.6987381 26.72838593 256.894165
vertex -45.39388275 27.19928741 256.598999
vertex -45.10260773 26.60985565 257.3392944

endloop
endfacet
facet normal 0.3759051561 -0.6471909881 -0.6632037163
outer loop
vertex -45.10260773 26.60985565 257.3392944
vertex -45.39388275 27.19928741 256.598999
vertex -44.78499603 27.08132172 257.0592346

endloop
endfacet
facet normal 0.409313798 -0.6537854671 -0.6364170909
outer loop
vertex -45.10260773 26.60985565 257.3392944
vertex -44.78499603 27.08132172 257.0592346
vertex -44.54190826 26.49820709 257.8146057

endloop
endfacet
facet normal 0.4214820564 -0.6471751332 -0.6352300048
outer loop
vertex -44.54190826 26.49820709 257.8146057
vertex -44.78499603 27.08132172 257.0592346
vertex -44.20804596 26.97016144 257.5552979

endloop
endfacet
facet normal 0.4590368569 -0.6546673775 -0.6005795598
outer loop
vertex -44.54189301 26.49819183 257.8146057
vertex -44.20804596 26.97016144 257.5552979
vertex -44.02623749 26.39221954 258.3242493

endloop
endfacet
facet normal 0.4728080332 -0.6470695734 -0.5981249809
outer loop
vertex -44.02623749 26.39221954 258.3242493
vertex -44.20804596 26.97016144 257.5552979
vertex -43.6737442 26.8645401 258.0919189

endloop
endfacet
facet normal 0.5129860044 -0.655474782 -0.5542545319
outer loop
vertex -44.02623749 26.39221954 258.3242493
vertex -43.6737442 26.8645401 258.0919189
vertex -43.56186676 26.29120636 258.8735046

endloop
endfacet
facet normal 0.5274834037 -0.6472512484 -0.5502972603
outer loop
vertex -43.56186676 26.29120636 258.8735046
vertex -43.6737442 26.8645401 258.0919189
vertex -43.19100189 26.7639389 258.6729736

endloop
endfacet
facet normal 0.5669152141 -0.6560946703 -0.4981434345
outer loop
vertex -43.5618515 26.29122162 258.8735352
vertex -43.19098663 26.76395416 258.6729736
vertex -43.15184784 26.19524384 259.4665527

endloop
endfacet
facet normal 0.5805458426 -0.6479995251 -0.4930143654
outer loop
vertex -43.15184784 26.19524384 259.4665527
vertex -43.19098663 26.76395416 258.6729736
vertex -42.76519012 26.66849518 259.2998352

endloop
endfacet
facet normal 0.6159012914 -0.6565847993 -0.4353871942
outer loop
vertex -43.15184784 26.19524384 259.4665527
vertex -42.76519012 26.66849518 259.2998352
vertex -42.79714203 26.10504913 260.1043396

endloop
endfacet
facet normal 0.6270616055 -0.6495310664 -0.4300037026
outer loop
vertex -42.79714203 26.10504913 260.1043396
vertex -42.76519012 26.66849518 259.2998352
vertex -42.39870453 26.57894135 259.9695435

endloop
endfacet
facet normal 0.6543084383 -0.656762898 -0.3748906553
outer loop
vertex -42.79714203 26.10504913 260.1043396
vertex -42.39870453 26.57894135 259.9695435
vertex -42.49298859 26.0213089 260.7818909

endloop
endfacet
facet normal 0.6621838212 -0.6514397264 -0.3703225255
outer loop
vertex -42.49298859 26.0213089 260.7818909
vertex -42.39870453 26.57894135 259.9695435
vertex -42.08730316 26.49582672 260.6725769

endloop
endfacet
facet normal 0.6814454198 -0.6569197774 -0.3226275742
outer loop
vertex -42.49298859 26.0213089 260.7818909
vertex -42.08730316 26.49582672 260.6725769
vertex -42.22905731 25.94629669 261.4920959

endloop
endfacet
facet normal 0.6863335967 -0.653390944 -0.3194158077
outer loop
vertex -42.22905731 25.94629669 261.4920959
vertex -42.08730316 26.49582672 260.6725769
vertex -41.82010651 26.42156219 261.3986206

endloop
endfacet
facet normal 0.7020266056 -0.6577885747 -0.2728971839
outer loop
vertex -42.22904205 25.94632721 261.4921265
vertex -41.82007599 26.42157745 261.3986511
vertex -41.99565887 25.88803864 262.2330017

endloop
endfacet
facet normal 0.7047843933 -0.6556431055 -0.2709447742
outer loop
vertex -41.99565887 25.88803864 262.2330017
vertex -41.82007599 26.42157745 261.3986511
vertex -41.5868454 26.3642807 262.1439819

endloop
endfacet
facet normal 0.7189276218 -0.6586509943 -0.222085461
outer loop
vertex -41.99565887 25.88803864 262.2330017
vertex -41.5868454 26.3642807 262.1439819
vertex -41.78401947 25.86019135 263.0007019

endloop
endfacet
facet normal 0.7198975086 -0.6578291059 -0.2213786542
outer loop
vertex -41.78401947 25.86019135 263.0007019
vertex -41.5868454 26.3642807 262.1439819
vertex -41.37836456 26.33724213 262.9022827

endloop
endfacet
facet normal 0.7335005999 -0.6584801078 -0.1684663296
outer loop
vertex -41.78401947 25.86019135 263.0007019
vertex -41.37836456 26.33724213 262.9022827
vertex -41.58695221 25.87827301 263.7880554

endloop
endfacet
facet normal 0.733412385 -0.6585621834 -0.1685296297
outer loop
vertex -41.58695221 25.87827301 263.7880554
vertex -41.37836456 26.33724213 262.9022827
vertex -41.18668365 26.35448456 263.6690674

endloop
endfacet
facet normal 0.7477379441 -0.6552815437 -0.1072096601
outer loop
vertex -41.58695221 25.87827301 263.7880554
vertex -41.18668365 26.35448456 263.6690674
vertex -41.39609528 25.96283722 264.6023254

endloop
endfacet
facet normal 0.7464957237 -0.6565625668 -0.1080259681
outer loop
vertex -41.39609528 25.96283722 264.6023254
vertex -41.18668365 26.35448456 263.6690674
vertex -41.00493622 26.4331131 264.447113

endloop
endfacet
facet normal 0.7622098327 -0.6462599635 -0.03720825538
outer loop
vertex -41.39609528 25.96283722 264.6023254
vertex -41.00493622 26.4331131 264.447113
vertex -41.21067047 26.1344223 265.4205322

endloop
endfacet
facet normal 0.7623023987 -0.6461535692 -0.03715604544
outer loop
vertex -41.21067047 26.1344223 265.4205322
vertex -41.00493622 26.4331131 264.447113
vertex -40.83040619 26.5946579 265.2185059

endloop
endfacet
facet normal 0.7597340345 -0.6485043168 -0.0473957397
outer loop
vertex -41.21065521 26.1344223 265.4205627
vertex -40.83040619 26.5946579 265.2185059
vertex -40.98114777 26.34148407 266.2662964

endloop
endfacet
facet normal 0.7476966381 -0.661971271 -0.05238148198
outer loop
vertex -40.98114777 26.34148407 266.2662964
vertex -40.83040619 26.5946579 265.2185059
vertex -40.61577606 26.77204132 266.0404663

endloop
endfacet
facet normal 0.7170220613 -0.2717979848 0.6418763399
outer loop
vertex -40.98114777 26.34148407 266.2662964
vertex -40.61577606 26.77204132 266.0404663
vertex -41.06499481 27.08876801 266.6763916

endloop
endfacet
facet normal -nan(ind) -nan(ind) -nan(ind)
outer loop
vertex -41.06499481 27.08876801 266.6763916
vertex -40.61577606 26.77204132 266.0404663
vertex -41.06499481 27.08876801 266.6763916

endloop
endfacet
facet normal -0.04352967069 -0.7064365745 0.7064365745
outer loop
vertex -48.5398941 27.99806976 255.3423615
vertex -48.5398941 27.9980545 255.3423462
vertex -47.83438873 27.67610931 255.0638733

endloop
endfacet
facet normal -0.3417643011 0.06216912717 -0.9377271533
outer loop
vertex -47.83438873 27.67610931 255.0638733
vertex -48.5398941 27.9980545 255.3423462
vertex -47.76457977 27.99842072 255.0597992

endloop
endfacet
facet normal 0.5020867586 -0.1195727512 -0.8565110564
outer loop
vertex -47.83438873 27.67610931 255.0638733
vertex -47.76457977 27.99842072 255.0597992
vertex -47.24417877 27.57524872 255.4239349

endloop
endfacet
facet normal 0.520719707 -0.09015586227 -0.8489539623
outer loop
vertex -47.24417877 27.57524872 255.4239349
vertex -47.76457977 27.99842072 255.0597992
vertex -47.17942047 27.89913177 255.4292603

endloop
endfacet
facet normal 0.4944883287 -0.08464642614 -0.8650527596
outer loop
vertex -47.24417877 27.57524872 255.4239349
vertex -47.17942047 27.89913177 255.4292603
vertex -46.65483856 27.45392609 255.7726898

endloop
endfacet
facet normal 0.4971206188 -0.08067315072 -0.8639229536
outer loop
vertex -46.65483856 27.45392609 255.7726898
vertex -47.17942047 27.89913177 255.4292603
vertex -46.59061432 27.77811432 255.7793732

endloop
endfacet
facet normal 0.5181171298 -0.08509781212 -0.8510658145
outer loop
vertex -46.65483856 27.45392609 255.7726898
vertex -46.59061432 27.77811432 255.7793732
vertex -46.02045441 27.32440948 256.1718445

endloop
endfacet
facet normal 0.5215350389 -0.07946652174 -0.8495212793
outer loop
vertex -46.02045441 27.32440948 256.1718445
vertex -46.59061432 27.77811432 255.7793732
vertex -45.95771027 27.64974213 256.1799316

endloop
endfacet
facet normal 0.5495457053 -0.08532673866 -0.8310949802
outer loop
vertex -46.02045441 27.32440948 256.1718445
vertex -45.95771027 27.64974213 256.1799316
vertex -45.39388275 27.19928741 256.598999

endloop
endfacet
facet normal 0.5529389381 -0.07951980829 -0.82941854
outer loop
vertex -45.39388275 27.19928741 256.598999
vertex -45.95771027 27.64974213 256.1799316
vertex -45.3335495 27.52523041 256.6079712

endloop
endfacet
facet normal 0.5899048448 -0.08709609509 -0.8027617931
outer loop
vertex -45.39388275 27.19928741 256.598999
vertex -45.3335495 27.52523041 256.6079712
vertex -44.78499603 27.08132172 257.0592346

endloop
endfacet
facet normal 0.5943995714 -0.07901711762 -0.8002783656
outer loop
vertex -44.78499603 27.08132172 257.0592346
vertex -45.3335495 27.52523041 256.6079712
vertex -44.72727203 27.4076767 257.0698853

endloop
endfacet
facet normal 0.6395868063 -0.08820530027 -0.7636416554
outer loop
vertex -44.78499603 27.08132172 257.0592346
vertex -44.72727203 27.4076767 257.0698853
vertex -44.20804596 26.97016144 257.5552979

endloop
endfacet
facet normal 0.644749701 -0.07843610644 -0.7603589296
outer loop
vertex -44.20804596 26.97016144 257.5552979
vertex -44.72727203 27.4076767 257.0698853
vertex -44.15268707 27.29682159 257.5685425

endloop
endfacet
facet normal 0.6969617605 -0.08930113912 -0.7115262747
outer loop
vertex -44.20804596 26.97016144 257.5552979
vertex -44.15267181 27.29680634 257.5685425
vertex -43.6737442 26.8645401 258.0919189

endloop
endfacet
facet normal 0.702624917 -0.07789070904 -0.7072843313
outer loop
vertex -43.6737442 26.8645401 258.0919189
vertex -44.15267181 27.29680634 257.5685425
vertex -43.62076569 27.19141388 258.108551

endloop
endfacet
facet normal 0.7583323121 -0.09005727619 -0.6456173658
outer loop
vertex -43.6737442 26.8645401 258.0919189
vertex -43.62076569 27.19141388 258.108551
vertex -43.19100189 26.7639389 258.6729736

endloop
endfacet
facet normal 0.7639410496 -0.0777708143 -0.6405825019
outer loop
vertex -43.19100189 26.7639389 258.6729736
vertex -43.62076569 27.19141388 258.108551
vertex -43.14093781 27.09107208 258.6929626

endloop
endfacet
facet normal 0.8173968792 -0.09025162458 -0.5689613819
outer loop
vertex -43.19098663 26.76395416 258.6729736
vertex -43.14095306 27.09108734 258.6929626
vertex -42.76519012 26.66849518 259.2998352

endloop
endfacet
facet normal 0.8224075437 -0.07799252123 -0.5635273457
outer loop
vertex -42.76519012 26.66849518 259.2998352
vertex -43.14095306 27.09108734 258.6929626
vertex -42.71869659 26.99602509 259.3223572

endloop
endfacet
facet normal 0.8685910106 -0.08978812397 -0.4873270988
outer loop
vertex -42.76519012 26.66849518 259.2998352
vertex -42.71869659 26.99602509 259.3223572
vertex -42.39870453 26.57894135 259.9695435

endloop
endfacet
facet normal 0.8724882603 -0.07888262719 -0.4822258949
outer loop
vertex -42.39870453 26.57894135 259.9695435
vertex -42.71869659 26.99602509 259.3223572
vertex -42.35596466 26.9068985 259.9932251

endloop
endfacet
facet normal 0.9068276882 -0.0884199068 -0.4121231735
outer loop
vertex -42.39870453 26.57894135 259.9695435
vertex -42.35596466 26.9068985 259.9932251
vertex -42.08730316 26.49582672 260.6725769

endloop
endfacet
facet normal 0.9094771147 -0.07988560945 -0.4080069065
outer loop
vertex -42.08730316 26.49582672 260.6725769
vertex -42.35596466 26.9068985 259.9932251
vertex -42.04799652 26.82424164 260.6958923

endloop
endfacet
facet normal 0.9320399761 -0.08657203615 -0.3518620133
outer loop
vertex -42.08730316 26.49582672 260.6725769
vertex -42.04799652 26.82424164 260.6958923
vertex -41.82010651 26.42156219 261.3986206

endloop
endfacet
facet normal 0.9334996939 -0.08120776713 -0.3492615521
outer loop
vertex -41.82010651 26.42156219 261.3986206
vertex -42.04799652 26.82424164 260.6958923
vertex -41.7838974 26.75051117 261.4189148

endloop
endfacet
facet normal 0.9489638209 -0.08563899994 -0.3035353124
outer loop
vertex -41.82007599 26.42157745 261.3986511
vertex -41.7838974 26.75054169 261.4189453
vertex -41.5868454 26.3642807 262.1439819

endloop
endfacet
facet normal 0.9497210979 -0.08245491236 -0.3020448387
outer loop
vertex -41.5868454 26.3642807 262.1439819
vertex -41.7838974 26.75054169 261.4189453
vertex -41.55423737 26.69391632 262.1565247

endloop
endfacet
facet normal 0.9599717855 -0.08480425924 -0.2669503987
outer loop
vertex -41.5868454 26.3642807 262.1439819
vertex -41.55423737 26.69391632 262.1565247
vertex -41.37836456 26.33724213 262.9022827

endloop
endfacet
facet normal 0.9602819681 -0.08330418169 -0.2663061023
outer loop
vertex -41.37836456 26.33724213 262.9022827
vertex -41.55423737 26.69391632 262.1565247
vertex -41.3501358 26.66742706 262.9007874

endloop
endfacet
facet normal 0.9671784043 -0.08377417177 -0.239891544
outer loop
vertex -41.37836456 26.33724213 262.9022827
vertex -41.3501358 26.66742706 262.9007874
vertex -41.18668365 26.35448456 263.6690674

endloop
endfacet
facet normal 0.9672135115 -0.08357613534 -0.2398183942
outer loop
vertex -41.18668365 26.35448456 263.6690674
vertex -41.3501358 26.66742706 262.9007874
vertex -41.16324615 26.68404388 263.6487427

endloop
endfacet
facet normal 0.9722718 -0.08263757825 -0.2187663913
outer loop
vertex -41.18668365 26.35448456 263.6690674
vertex -41.16324615 26.68404388 263.6487427
vertex -41.00493622 26.4331131 264.447113

endloop
endfacet
facet normal 0.9721007347 -0.08377931267 -0.219091326
outer loop
vertex -41.00493622 26.4331131 264.447113
vertex -41.16324615 26.68404388 263.6487427
vertex -40.98789215 26.75856781 264.3982849

endloop
endfacet
facet normal 0.9756351709 -0.08164654672 -0.2036421001
outer loop
vertex -41.00493622 26.4331131 264.447113
vertex -40.98789215 26.75856781 264.3982849
vertex -40.83040619 26.5946579 265.2185059

endloop
endfacet
facet normal 0.9755542874 -0.08231454343 -0.2037600726
outer loop
vertex -40.83040619 26.5946579 265.2185059
vertex -40.98789215 26.75856781 264.3982849
vertex -40.82079315 26.91338348 265.1357727

endloop
endfacet
facet normal 0.9682174921 -0.08974994719 -0.2334522307
outer loop
vertex -40.83040619 26.5946579 265.2185059
vertex -40.82080841 26.91339874 265.1357727
vertex -40.61577606 26.77204132 266.0404663

endloop
endfacet
facet normal 0.9627308249 -0.1280997992 -0.238200888
outer loop
vertex -40.61577606 26.77204132 266.0404663
vertex -40.82080841 26.91339874 265.1357727
vertex -40.60070038 27.08350372 265.9338989

endloop
endfacet
facet normal 0.8401181698 0.1387457252 0.5243577361
outer loop
vertex -40.61577606 26.77204132 266.0404663
vertex -40.60070038 27.08350372 265.9338989
vertex -41.06499481 27.08876801 266.6763916

endloop
endfacet
facet normal -0.6449084282 0.6463398337 -0.4078456163
outer loop
vertex -41.06499481 27.08876801 266.6763916
vertex -40.60070038 27.08350372 265.9338989
vertex -41.06501007 27.08875275 266.6763916

endloop
endfacet
facet normal -0.2498414069 0.6846821308 -0.6846821308
outer loop
vertex -48.5398941 27.9980545 255.3423462
vertex -48.5398941 27.99806976 255.3423615
vertex -47.76457977 27.99842072 255.0597992

endloop
endfacet
facet normal -0.3159927428 0.3862852752 -0.866563499
outer loop
vertex -47.76457977 27.99842072 255.0597992
vertex -48.5398941 27.99806976 255.3423615
vertex -47.78054047 28.2602005 255.182312

endloop
endfacet
facet normal 0.5386691093 0.3838424087 -0.7500003576
outer loop
vertex -47.76457977 27.99842072 255.0597992
vertex -47.78054047 28.2602005 255.182312
vertex -47.17942047 27.89913177 255.4292603

endloop
endfacet
facet normal 0.5500104427 0.4232782125 -0.7199472785
outer loop
vertex -47.17942047 27.89913177 255.4292603
vertex -47.78054047 28.2602005 255.182312
vertex -47.20163727 28.15003204 255.5597992

endloop
endfacet
facet normal 0.5251905322 0.4289078414 -0.7349917889
outer loop
vertex -47.17942047 27.89913177 255.4292603
vertex -47.20163727 28.15003204 255.5597992
vertex -46.59061432 27.77811432 255.7793732

endloop
endfacet
facet normal 0.5264114141 0.4327694774 -0.7318481207
outer loop
vertex -46.59061432 27.77811432 255.7793732
vertex -47.20163727 28.15003204 255.5597992
vertex -46.61606598 28.02899933 255.9094238

endloop
endfacet
facet normal 0.5435886383 0.4290878475 -0.7213841081
outer loop
vertex -46.59061432 27.77811432 255.7793732
vertex -46.61606598 28.02899933 255.9094238
vertex -45.95771027 27.64974213 256.1799316

endloop
endfacet
facet normal 0.5448625088 0.4341550767 -0.7173800468
outer loop
vertex -45.95771027 27.64974213 256.1799316
vertex -46.61606598 28.02899933 255.9094238
vertex -45.98886871 27.90154266 256.3086548

endloop
endfacet
facet normal 0.5674694777 0.4293829501 -0.7025728822
outer loop
vertex -45.95771027 27.64974213 256.1799316
vertex -45.98886871 27.90154266 256.3086548
vertex -45.3335495 27.52523041 256.6079712

endloop
endfacet
facet normal 0.5685803294 0.4345857203 -0.698463738
outer loop
vertex -45.3335495 27.52523041 256.6079712
vertex -45.98886871 27.90154266 256.3086548
vertex -45.37119293 27.77748871 256.7342834

endloop
endfacet
facet normal 0.5987200737 0.4282610416 -0.6768506169
outer loop
vertex -45.3335495 27.52523041 256.6079712
vertex -45.37119293 27.77748871 256.7342834
vertex -44.72727203 27.4076767 257.0698853

endloop
endfacet
facet normal 0.5999239683 0.4355925322 -0.6710816026
outer loop
vertex -44.72727203 27.4076767 257.0698853
vertex -45.37119293 27.77748871 256.7342834
vertex -44.7733078 27.66022491 257.1926575

endloop
endfacet
facet normal 0.6381510496 0.4275796711 -0.6402646899
outer loop
vertex -44.72727203 27.4076767 257.0698853
vertex -44.7733078 27.66022491 257.1926575
vertex -44.15268707 27.29682159 257.5685425

endloop
endfacet
facet normal 0.6391120553 0.4364237785 -0.6333009005
outer loop
vertex -44.15268707 27.29682159 257.5685425
vertex -44.7733078 27.66022491 257.1926575
vertex -44.20816803 27.54958344 257.6867371

endloop
endfacet
facet normal 0.6845756769 0.426654458 -0.59103477
outer loop
vertex -44.15267181 27.29680634 257.5685425
vertex -44.20816803 27.54958344 257.6867371
vertex -43.62076569 27.19141388 258.108551

endloop
endfacet
facet normal 0.6850361228 0.4370503426 -0.5828486681
outer loop
vertex -43.62076569 27.19141388 258.108551
vertex -44.20816803 27.54958344 257.6867371
vertex -43.68665314 27.44437408 258.2207947

endloop
endfacet
facet normal 0.7337471843 0.4259772599 -0.5292999744
outer loop
vertex -43.62076569 27.19141388 258.108551
vertex -43.68665314 27.44437408 258.2207947
vertex -43.14093781 27.09107208 258.6929626

endloop
endfacet
facet normal 0.7334172726 0.4373351038 -0.5204201341
outer loop
vertex -43.14093781 27.09107208 258.6929626
vertex -43.68665314 27.44437408 258.2207947
vertex -43.2178421 27.34427643 258.7973633

endloop
endfacet
facet normal 0.7797603011 0.4260086715 -0.458792448
outer loop
vertex -43.14095306 27.09108734 258.6929626
vertex -43.2178421 27.34429169 258.7973938
vertex -42.71869659 26.99602509 259.3223572

endloop
endfacet
facet normal 0.7785240412 0.4374994636 -0.4499939382
outer loop
vertex -42.71869659 26.99602509 259.3223572
vertex -43.2178421 27.34429169 258.7973938
vertex -42.80644989 27.24954987 259.4170227

endloop
endfacet
facet normal 0.8179261684 0.4270593226 -0.3855089545
outer loop
vertex -42.71869659 26.99602509 259.3223572
vertex -42.80644989 27.24954987 259.4170227
vertex -42.35596466 26.9068985 259.9932251

endloop
endfacet
facet normal 0.8159639239 0.4377099574 -0.3776412606
outer loop
vertex -42.35596466 26.9068985 259.9932251
vertex -42.80644989 27.24954987 259.4170227
vertex -42.45330048 27.16072845 260.0771179

endloop
endfacet
facet normal 0.8445934653 0.429520756 -0.3196463883
outer loop
vertex -42.35596466 26.9068985 259.9932251
vertex -42.45330048 27.16072845 260.0771179
vertex -42.04799652 26.82424164 260.6958923

endloop
endfacet
facet normal 0.8425506353 0.4377349317 -0.3138414621
outer loop
vertex -42.04799652 26.82424164 260.6958923
vertex -42.45330048 27.16072845 260.0771179
vertex -42.15270233 27.07842255 260.7693176

endloop
endfacet
facet normal 0.8602631688 0.4324056506 -0.2701344788
outer loop
vertex -42.04799652 26.82424164 260.6958923
vertex -42.15270233 27.07842255 260.7693176
vertex -41.7838974 26.75051117 261.4189148

endloop
endfacet
facet normal 0.8586747646 0.4377694726 -0.2665250003
outer loop
vertex -41.7838974 26.75051117 261.4189148
vertex -42.15270233 27.07842255 260.7693176
vertex -41.89403534 27.00513458 261.4822998

endloop
endfacet
facet normal 0.8687543869 0.4347846508 -0.2371247411
outer loop
vertex -41.7838974 26.75054169 261.4189453
vertex -41.89402008 27.00514984 261.4823303
vertex -41.55423737 26.69391632 262.1565247

endloop
endfacet
facet normal 0.8676543236 0.4381010532 -0.2350393534
outer loop
vertex -41.55423737 26.69391632 262.1565247
vertex -41.89402008 27.00514984 261.4823303
vertex -41.66913605 26.94904327 262.2079163

endloop
endfacet
facet normal 0.8711383939 0.4373115599 -0.223330617
outer loop
vertex -41.55423737 26.69391632 262.1565247
vertex -41.66913605 26.94904327 262.2079163
vertex -41.3501358 26.66742706 262.9007874

endloop
endfacet
facet normal 0.8706454039 0.4386929572 -0.2225421816
outer loop
vertex -41.3501358 26.66742706 262.9007874
vertex -41.66913605 26.94904327 262.2079163
vertex -41.46961212 26.92293549 262.9370422

endloop
endfacet
facet normal 0.8694563508 0.4387690127 -0.2269966304
outer loop
vertex -41.3501358 26.66742706 262.9007874
vertex -41.46961212 26.92293549 262.9370422
vertex -41.16324615 26.68404388 263.6487427

endloop
endfacet
facet normal 0.8694380522 0.4388175607 -0.2269725055
outer loop
vertex -41.16324615 26.68404388 263.6487427
vertex -41.46961212 26.92293549 262.9370422
vertex -41.28701019 26.9391098 263.6677856

endloop
endfacet
facet normal 0.864733994 0.4379440844 -0.245845899
outer loop
vertex -41.16324615 26.68404388 263.6487427
vertex -41.28701019 26.9391098 263.6677856
vertex -40.98789215 26.75856781 264.3982849

endloop
endfacet
facet normal 0.8649387956 0.4374192655 -0.2460594624
outer loop
vertex -40.98789215 26.75856781 264.3982849
vertex -41.28701019 26.9391098 263.6677856
vertex -41.11666107 27.01044464 264.3934021

endloop
endfacet
facet normal 0.8557953835 0.4319978356 -0.2845912576
outer loop
vertex -40.98789215 26.75856781 264.3982849
vertex -41.11666107 27.01044464 264.3934021
vertex -40.82079315 26.91338348 265.1357727

endloop
endfacet
facet normal 0.8565885425 0.4300444424 -0.2851627767
outer loop
vertex -40.82079315 26.91338348 265.1357727
vertex -41.11666107 27.01044464 264.3934021
vertex -40.95542145 27.16031647 265.1037598

endloop
endfacet
facet normal 0.8478347659 0.4202381968 -0.3233822584
outer loop
vertex -40.82080841 26.91339874 265.1357727
vertex -40.95540619 27.16031647 265.1037598
vertex -40.60070038 27.08350372 265.9338989

endloop
endfacet
facet normal 0.865886569 0.3709082305 -0.3356599808
outer loop
vertex -40.60070038 27.08350372 265.9338989
vertex -40.95540619 27.16031647 265.1037598
vertex -40.73007965 27.33646393 265.8796692

endloop
endfacet
facet normal 0.7451886535 0.4803073108 0.4626000226
outer loop
vertex -40.60070038 27.08350372 265.9338989
vertex -40.73007965 27.33646393 265.8796692
vertex -41.06501007 27.08875275 266.6763916

endloop
endfacet
facet normal 0.6603171825 -0.7496570945 0.04466998205
outer loop
vertex -41.06501007 27.08875275 266.6763916
vertex -40.73007965 27.33646393 265.8796692
vertex -41.06499481 27.08876801 266.6764221

endloop
endfacet
facet normal -nan(ind) -nan(ind) -nan(ind)
outer loop
vertex -48.5398941 27.99806976 255.3423615
vertex -48.5398941 27.99806976 255.3423615
vertex -47.78054047 28.2602005 255.182312

endloop
endfacet
facet normal -0.3618851602 0.6272636652 -0.6896227002
outer loop
vertex -47.78054047 28.2602005 255.182312
vertex -48.5398941 27.99806976 255.3423615
vertex -47.87368011 28.46541595 255.4178467

endloop
endfacet
facet normal 0.4539784789 0.7529124022 -0.4764728546
outer loop
vertex -47.78054047 28.2602005 255.182312
vertex -47.87368011 28.46541595 255.4178467
vertex -47.20163727 28.15003204 255.5597992

endloop
endfacet
facet normal 0.4558479786 0.771895051 -0.4431486428
outer loop
vertex -47.20163727 28.15003204 255.5597992
vertex -47.87368011 28.46541595 255.4178467
vertex -47.29695892 28.34218597 255.7964478

endloop
endfacet
facet normal 0.4331987798 0.777127862 -0.4565205872
outer loop
vertex -47.20163727 28.15003204 255.5597992
vertex -47.29695892 28.34218597 255.7964478
vertex -46.61606598 28.02899933 255.9094238

endloop
endfacet
facet normal 0.4335507154 0.7794473171 -0.4522120059
outer loop
vertex -46.61606598 28.02899933 255.9094238
vertex -47.29695892 28.34218597 255.7964478
vertex -46.71677399 28.22104645 256.1438904

endloop
endfacet
facet normal 0.4424382746 0.777549088 -0.4468397796
outer loop
vertex -46.61606598 28.02899933 255.9094238
vertex -46.71677399 28.22104645 256.1438904
vertex -45.98886871 27.90154266 256.3086548

endloop
endfacet
facet normal 0.4425508082 0.7808659077 -0.4409050941
outer loop
vertex -45.98886871 27.90154266 256.3086548
vertex -46.71677399 28.22104645 256.1438904
vertex -46.09896088 28.09429169 256.5395203

endloop
endfacet
facet normal 0.4546842277 0.778318584 -0.4329923391
outer loop
vertex -45.98886871 27.90154266 256.3086548
vertex -46.09896088 28.09429169 256.5395203
vertex -45.37119293 27.77748871 256.7342834

endloop
endfacet
facet normal 0.4545559585 0.7816085815 -0.4271615446
outer loop
vertex -45.37119293 27.77748871 256.7342834
vertex -46.09896088 28.09429169 256.5395203
vertex -45.49117279 27.97063446 256.960022

endloop
endfacet
facet normal 0.4710937142 0.7781437039 -0.4154071808
outer loop
vertex -45.37119293 27.77748871 256.7342834
vertex -45.49117279 27.97063446 256.960022
vertex -44.7733078 27.66022491 257.1926575

endloop
endfacet
facet normal 0.4704578519 0.7829158902 -0.4070774913
outer loop
vertex -44.7733078 27.66022491 257.1926575
vertex -45.49117279 27.97063446 256.960022
vertex -44.90665436 27.85356903 257.4104004

endloop
endfacet
facet normal 0.492716372 0.7782502174 -0.389303416
outer loop
vertex -44.7733078 27.66022491 257.1926575
vertex -44.90665436 27.85356903 257.4104004
vertex -44.20816803 27.54958344 257.6867371

endloop
endfacet
facet normal 0.4913139343 0.7839794159 -0.379456073
outer loop
vertex -44.20816803 27.54958344 257.6867371
vertex -44.90665436 27.85356903 257.4104004
vertex -44.35703278 27.74312592 257.8938599

endloop
endfacet
facet normal 0.5192318559 0.7779718041 -0.3537769318
outer loop
vertex -44.20816803 27.54958344 257.6867371
vertex -44.35703278 27.74312592 257.8938599
vertex -43.68665314 27.44437408 258.2207947

endloop
endfacet
facet normal 0.5167114735 0.7846744061 -0.3424839973
outer loop
vertex -43.68665314 27.44437408 258.2207947
vertex -44.35703278 27.74312592 257.8938599
vertex -43.85269928 27.63808441 258.414093

endloop
endfacet
facet normal 0.5469143987 0.7778131366 -0.3096633852
outer loop
vertex -43.68665314 27.44437408 258.2207947
vertex -43.85269928 27.63808441 258.414093
vertex -43.2178421 27.34427643 258.7973633

endloop
endfacet
facet normal 0.5430240631 0.7852409482 -0.2975254655
outer loop
vertex -43.2178421 27.34427643 258.7973633
vertex -43.85269928 27.63808441 258.414093
vertex -43.40177155 27.5381546 258.9733582

endloop
endfacet
facet normal 0.5713791251 0.77829355 -0.2603558004
outer loop
vertex -43.2178421 27.34429169 258.7973938
vertex -43.40175629 27.53818512 258.9733887
vertex -42.80644989 27.24954987 259.4170227

endloop
endfacet
facet normal 0.5662046671 0.7859315872 -0.2484427094
outer loop
vertex -42.80644989 27.24954987 259.4170227
vertex -43.40175629 27.53818512 258.9733887
vertex -43.00748444 27.44365692 259.5729065

endloop
endfacet
facet normal 0.5896331668 0.7797497511 -0.2105304301
outer loop
vertex -42.80644989 27.24954987 259.4170227
vertex -43.00748444 27.44365692 259.5729065
vertex -42.45330048 27.16072845 260.0771179

endloop
endfacet
facet normal 0.5838770866 0.7867512703 -0.2002750486
outer loop
vertex -42.45330048 27.16072845 260.0771179
vertex -43.00748444 27.44365692 259.5729065
vertex -42.66886139 27.35506439 260.2120972

endloop
endfacet
facet normal 0.6001508832 0.7821255922 -0.1676260233
outer loop
vertex -42.45330048 27.16072845 260.0771179
vertex -42.66886139 27.35506439 260.2120972
vertex -42.15270233 27.07842255 260.7693176

endloop
endfacet
facet normal 0.5950747728 0.7875337601 -0.1602390558
outer loop
vertex -42.15270233 27.07842255 260.7693176
vertex -42.66886139 27.35506439 260.2120972
vertex -42.37899017 27.27301788 260.8853455

endloop
endfacet
facet normal 0.6039756536 0.7848868966 -0.138440758
outer loop
vertex -42.15270233 27.07842255 260.7693176
vertex -42.37899017 27.27301788 260.8853455
vertex -41.89403534 27.00513458 261.4822998

endloop
endfacet
facet normal 0.6003427505 0.7884558439 -0.1338878721
outer loop
vertex -41.89403534 27.00513458 261.4822998
vertex -42.37899017 27.27301788 260.8853455
vertex -42.12772369 27.2000351 261.5822144

endloop
endfacet
facet normal 0.6030649543 0.7876775265 -0.1260027289
outer loop
vertex -41.89402008 27.00514984 261.4823303
vertex -42.12770844 27.20005035 261.5822449
vertex -41.66913605 26.94904327 262.2079163

endloop
endfacet
facet normal 0.6007342339 0.7898648977 -0.1234169528
outer loop
vertex -41.66913605 26.94904327 262.2079163
vertex -42.12770844 27.20005035 261.5822449
vertex -41.90860748 27.14432526 262.2920837

endloop
endfacet
facet normal 0.5972272158 0.7906086445 -0.1351207942
outer loop
vertex -41.66913605 26.94904327 262.2079163
vertex -41.90860748 27.14432526 262.2920837
vertex -41.46961212 26.92293549 262.9370422

endloop
endfacet
facet normal 0.5962569714 0.7915053368 -0.1341526508
outer loop
vertex -41.46961212 26.92293549 262.9370422
vertex -41.90860748 27.14432526 262.2920837
vertex -41.71392059 27.11850739 263.0050659

endloop
endfacet
facet normal 0.5881094337 0.7918783426 -0.1644872725
outer loop
vertex -41.46961212 26.92293549 262.9370422
vertex -41.71392059 27.11850739 263.0050659
vertex -41.28701019 26.9391098 263.6677856

endloop
endfacet
facet normal 0.5882508159 0.7917469144 -0.1646139324
outer loop
vertex -41.28701019 26.9391098 263.6677856
vertex -41.71392059 27.11850739 263.0050659
vertex -41.53524017 27.13437653 263.7199097

endloop
endfacet
facet normal 0.5761058927 0.7891793847 -0.2128329724
outer loop
vertex -41.28701019 26.9391098 263.6677856
vertex -41.53524017 27.13437653 263.7199097
vertex -41.11666107 27.01044464 264.3934021

endloop
endfacet
facet normal 0.576536119 0.7887727618 -0.2131751925
outer loop
vertex -41.11666107 27.01044464 264.3934021
vertex -41.53524017 27.13437653 263.7199097
vertex -41.3687973 27.20331573 264.4251404

endloop
endfacet
facet normal 0.5579941273 0.7772817016 -0.2906470895
outer loop
vertex -41.11666107 27.01044464 264.3934021
vertex -41.3687973 27.20331573 264.4251404
vertex -40.95542145 27.16031647 265.1037598

endloop
endfacet
facet normal 0.559784472 0.775542438 -0.2918478847
outer loop
vertex -40.95542145 27.16031647 265.1037598
vertex -41.3687973 27.20331573 264.4251404
vertex -41.21221161 27.34947968 265.1138916

endloop
endfacet
facet normal 0.5504803061 0.765298903 -0.3335998952
outer loop
vertex -40.95540619 27.16031647 265.1037598
vertex -41.21222687 27.34946442 265.1138916
vertex -40.73007965 27.33646393 265.8796692

endloop
endfacet
facet normal 0.5758104324 0.7388806939 -0.3499966264
outer loop
vertex -40.73007965 27.33646393 265.8796692
vertex -41.21222687 27.34946442 265.1138916
vertex -40.98862457 27.53478241 265.8729858

endloop
endfacet
facet normal 0.5368359685 0.7149603963 0.4479271472
outer loop
vertex -40.73007965 27.33646393 265.8796692
vertex -40.98862457 27.53478241 265.8729858
vertex -41.06499481 27.08876801 266.6764221

endloop
endfacet
facet normal -0.7492209077 -0.5463410616 -0.3744055033
outer loop
vertex -41.06499481 27.08876801 266.6764221
vertex -40.98862457 27.53478241 265.8729858
vertex -41.06497955 27.08876801 266.6763916

endloop
endfacet
facet normal -nan(ind) -nan(ind) -nan(ind)
outer loop
vertex -48.5398941 27.99806976 255.3423615
vertex -48.5398941 27.99806976 255.3423615
vertex -47.87368011 28.46541595 255.4178467

endloop
endfacet
facet normal -0.4911830127 0.7669061422 -0.4130303264
outer loop
vertex -47.87368011 28.46541595 255.4178467
vertex -48.5398941 27.99806976 255.3423615
vertex -48.04564667 28.52768707 255.7379761

endloop
endfacet
facet normal 0.2443010807 0.9680188894 -0.05706444383
outer loop
vertex -47.87368011 28.46541595 255.4178467
vertex -48.04564667 28.52768707 255.7379761
vertex -47.29695892 28.34218597 255.7964478

endloop
endfacet
facet normal 0.2425127327 0.9697217345 -0.02876338549
outer loop
vertex -47.29695892 28.34218597 255.7964478
vertex -48.04564667 28.52768707 255.7379761
vertex -47.46671295 28.39398956 256.1116943

endloop
endfacet
facet normal 0.2261045575 0.9733539224 -0.0381957069
outer loop
vertex -47.29695892 28.34218597 255.7964478
vertex -47.46671295 28.39398956 256.1116943
vertex -46.71677399 28.22104645 256.1438904

endloop
endfacet
facet normal 0.2259452194 0.9735698104 -0.03332443535
outer loop
vertex -46.71677399 28.22104645 256.1438904
vertex -47.46671295 28.39398956 256.1116943
vertex -46.89339447 28.27269745 256.4553528

endloop
endfacet
facet normal 0.2225417048 0.9742812514 -0.0353724286
outer loop
vertex -46.71677399 28.22104645 256.1438904
vertex -46.89339447 28.27269745 256.4553528
vertex -46.09896088 28.09429169 256.5395203

endloop
endfacet
facet normal 0.2219054997 0.9746490121 -0.02858807892
outer loop
vertex -46.09896088 28.09429169 256.5395203
vertex -46.89339447 28.27269745 256.4553528
vertex -46.28723907 28.14612579 256.8452454

endloop
endfacet
facet normal 0.2193391323 0.9751793742 -0.03025846928
outer loop
vertex -46.09896088 28.09429169 256.5395203
vertex -46.28723907 28.14612579 256.8452454
vertex -45.49117279 27.97063446 256.960022

endloop
endfacet
facet normal 0.2184184939 0.9755778313 -0.02326385304
outer loop
vertex -45.49117279 27.97063446 256.960022
vertex -46.28723907 28.14612579 256.8452454
vertex -45.69127655 28.02254486 257.2581787

endloop
endfacet
facet normal 0.2151968777 0.9762366414 -0.02554070018
outer loop
vertex -45.49117279 27.97063446 256.960022
vertex -45.69127655 28.02254486 257.2581787
vertex -44.90665436 27.85356903 257.4104004

endloop
endfacet
facet normal 0.2134723216 0.9768179059 -0.01600622386
outer loop
vertex -44.90665436 27.85356903 257.4104004
vertex -45.69127655 28.02254486 257.2581787
vertex -45.12306976 27.90555573 257.6967163

endloop
endfacet
facet normal 0.211684972 0.9771826267 -0.01742344163
outer loop
vertex -44.90665436 27.85356903 257.4104004
vertex -45.12306976 27.90555573 257.6967163
vertex -44.35703278 27.74312592 257.8938599

endloop
endfacet
facet normal 0.208923921 0.9779129624 -0.006093162578
outer loop
vertex -44.35703278 27.74312592 257.8938599
vertex -45.12306976 27.90555573 257.6967163
vertex -44.59276581 27.79517365 258.1643066

endloop
endfacet
facet normal 0.209441483 0.9778051376 -0.005609478801
outer loop
vertex -44.35703278 27.74312592 257.8938599
vertex -44.59278107 27.79517365 258.1643066
vertex -43.85269928 27.63808441 258.414093

endloop
endfacet
facet normal 0.205227986 0.9786859751 0.007428491488
outer loop
vertex -43.85269928 27.63808441 258.414093
vertex -44.59278107 27.79517365 258.1643066
vertex -44.11008453 27.69016266 258.6637268

endloop
endfacet
facet normal 0.2062534988 0.9784613848 0.00853270106
outer loop
vertex -43.85269928 27.63808441 258.414093
vertex -44.11008453 27.69016266 258.6637268
vertex -43.40177155 27.5381546 258.9733582

endloop
endfacet
facet normal 0.2004452497 0.9794509411 0.02230541036
outer loop
vertex -43.40177155 27.5381546 258.9733582
vertex -44.11008453 27.69016266 258.6637268
vertex -43.68141937 27.59027863 259.1975708

endloop
endfacet
facet normal 0.2005310506 0.9794278145 0.02255112119
outer loop
vertex -43.40175629 27.53818512 258.9733887
vertex -43.68140411 27.59027863 259.1976013
vertex -43.00748444 27.44365692 259.5729065

endloop
endfacet
facet normal 0.1934420168 0.9804624915 0.03568483889
outer loop
vertex -43.00748444 27.44365692 259.5729065
vertex -43.68140411 27.59027863 259.1976013
vertex -43.30789948 27.49581146 259.7684326

endloop
endfacet
facet normal 0.1923949867 0.980728209 0.03400523216
outer loop
vertex -43.00748444 27.44365692 259.5729065
vertex -43.30789948 27.49581146 259.7684326
vertex -42.66886139 27.35506439 260.2120972

endloop
endfacet
facet normal 0.1851090193 0.9816960096 0.04480662942
outer loop
vertex -42.66886139 27.35506439 260.2120972
vertex -43.30789948 27.49581146 259.7684326
vertex -42.98642731 27.407341 260.3786926

endloop
endfacet
facet normal 0.1831261963 0.9822400808 0.04085618258
outer loop
vertex -42.66886139 27.35506439 260.2120972
vertex -42.98642731 27.407341 260.3786926
vertex -42.37899017 27.27301788 260.8853455

endloop
endfacet
facet normal 0.1768709719 0.983035028 0.04856643826
outer loop
vertex -42.37899017 27.27301788 260.8853455
vertex -42.98642731 27.407341 260.3786926
vertex -42.70877838 27.32537079 261.0267029

endloop
endfacet
facet normal 0.1735548377 0.983992219 0.0404753089
outer loop
vertex -42.37899017 27.27301788 260.8853455
vertex -42.70877838 27.32537079 261.0267029
vertex -42.12772369 27.2000351 261.5822144

endloop
endfacet
facet normal 0.169083789 0.9845609665 0.04528026283
outer loop
vertex -42.12772369 27.2000351 261.5822144
vertex -42.70877838 27.32537079 261.0267029
vertex -42.46547699 27.25244904 261.7037659

endloop
endfacet
facet normal 0.1628708392 0.9862736464 0.02715410851
outer loop
vertex -42.12770844 27.20005035 261.5822449
vertex -42.46546173 27.25247955 261.7037964
vertex -41.90860748 27.14432526 262.2920837

endloop
endfacet
facet normal 0.1601126492 0.9866477847 0.02983369492
outer loop
vertex -41.90860748 27.14432526 262.2920837
vertex -42.46546173 27.25247955 261.7037964
vertex -42.2518692 27.19684601 262.3973694

endloop
endfacet
facet normal 0.149720192 0.988715291 -0.005080118775
outer loop
vertex -41.90860748 27.14432526 262.2920837
vertex -42.2518692 27.19684601 262.3973694
vertex -41.71392059 27.11850739 263.0050659

endloop
endfacet
facet normal 0.1488283724 0.9888538122 -0.004272813909
outer loop
vertex -41.71392059 27.11850739 263.0050659
vertex -42.2518692 27.19684601 262.3973694
vertex -42.06093597 27.17113495 263.0975647

endloop
endfacet
facet normal 0.1351681799 0.9892531037 -0.05574715137
outer loop
vertex -41.71392059 27.11850739 263.0050659
vertex -42.06093597 27.17113495 263.0975647
vertex -41.53524017 27.13437653 263.7199097

endloop
endfacet
facet normal 0.1354701668 0.9891971946 -0.05600553378
outer loop
vertex -41.53524017 27.13437653 263.7199097
vertex -42.06093597 27.17113495 263.0975647
vertex -41.88451385 27.18691254 263.8029785

endloop
endfacet
facet normal 0.1186167523 0.9851298332 -0.1242954731
outer loop
vertex -41.53524017 27.13437653 263.7199097
vertex -41.88451385 27.18691254 263.8029785
vertex -41.3687973 27.20331573 264.4251404

endloop
endfacet
facet normal 0.1194899157 0.9849333763 -0.1250140667
outer loop
vertex -41.3687973 27.20331573 264.4251404
vertex -41.88451385 27.18691254 263.8029785
vertex -41.71923065 27.25519562 264.4989319

endloop
endfacet
facet normal 0.09558839351 0.9691008925 -0.227390334
outer loop
vertex -41.3687973 27.20331573 264.4251404
vertex -41.71923065 27.25519562 264.4989319
vertex -41.21221161 27.34947968 265.1138916

endloop
endfacet
facet normal 0.09712834656 0.9686647058 -0.2285931259
outer loop
vertex -41.21221161 27.34947968 265.1138916
vertex -41.71923065 27.25519562 264.4989319
vertex -41.56420135 27.40045929 265.1803589

endloop
endfacet
facet normal 0.08996043354 0.9611017108 -0.2611333132
outer loop
vertex -41.21222687 27.34946442 265.1138916
vertex -41.5641861 27.40045929 265.1803284
vertex -40.98862457 27.53478241 265.8729858

endloop
endfacet
facet normal 0.1121727154 0.9539496899 -0.2782036066
outer loop
vertex -40.98862457 27.53478241 265.8729858
vertex -41.5641861 27.40045929 265.1803284
vertex -41.34705353 27.59497833 265.9348755

endloop
endfacet
facet normal 0.225941509 0.8424265385 0.4891502857
outer loop
vertex -40.98862457 27.53478241 265.8729858
vertex -41.34705353 27.59497833 265.9348755
vertex -41.06497955 27.08876801 266.6763916

endloop
endfacet
facet normal -0.5656964183 0.5649520755 0.600680232
outer loop
vertex -41.06497955 27.08876801 266.6763916
vertex -41.34705353 27.59497833 265.9348755
vertex -41.06499481 27.08875275 266.6763916

endloop
endfacet
facet normal -0.1882851869 0.6944597363 -0.6944597363
outer loop
vertex -48.5398941 27.99806976 255.3423615
vertex -48.5398941 27.99808502 255.3423767
vertex -48.04564667 28.52768707 255.7379761

endloop
endfacet
facet normal -0.6656420827 0.7315142751 -0.1476736367
outer loop
vertex -48.04564667 28.52768707 255.7379761
vertex -48.5398941 27.99808502 255.3423767
vertex -48.23384857 28.41385651 256.0224304

endloop
endfacet
facet normal -0.01789000817 0.932299912 0.3612435162
outer loop
vertex -48.04564667 28.52768707 255.7379761
vertex -48.23384857 28.41385651 256.0224304
vertex -47.46671295 28.39398956 256.1116943

endloop
endfacet
facet normal -0.01850972325 0.930375278 0.3661410213
outer loop
vertex -47.46671295 28.39398956 256.1116943
vertex -48.23384857 28.41385651 256.0224304
vertex -47.64716339 28.28247833 256.3859253

endloop
endfacet
facet normal -0.02148615383 0.9309830666 0.3644296229
outer loop
vertex -47.46671295 28.39398956 256.1116943
vertex -47.64716339 28.28247833 256.3859253
vertex -46.89339447 28.27269745 256.4553528

endloop
endfacet
facet normal -0.02188381739 0.9293627143 0.3685187399
outer loop
vertex -46.89339447 28.27269745 256.4553528
vertex -47.64716339 28.28247833 256.3859253
vertex -47.0795517 28.16117096 256.7255554

endloop
endfacet
facet normal -0.03661963716 0.9323827028 0.3596129715
outer loop
vertex -46.89339447 28.27269745 256.4553528
vertex -47.0795517 28.16117096 256.7255554
vertex -46.28723907 28.14612579 256.8452454

endloop
endfacet
facet normal -0.03759329766 0.9299524426 0.3657527864
outer loop
vertex -46.28723907 28.14612579 256.8452454
vertex -47.0795517 28.16117096 256.7255554
vertex -46.4829483 28.03418732 257.1097412

endloop
endfacet
facet normal -0.05297184736 0.93309623 0.355704248
outer loop
vertex -46.28723907 28.14612579 256.8452454
vertex -46.4829483 28.03418732 257.1097412
vertex -45.69127655 28.02254486 257.2581787

endloop
endfacet
facet normal -0.05421672016 0.9305442572 0.3621434569
outer loop
vertex -45.69127655 28.02254486 257.2581787
vertex -46.4829483 28.03418732 257.1097412
vertex -45.89615631 27.91039276 257.515686

endloop
endfacet
facet normal -0.07543262839 0.9347856045 0.3471106887
outer loop
vertex -45.69127655 28.02254486 257.2581787
vertex -45.89615631 27.91039276 257.515686
vertex -45.12306976 27.90555573 257.6967163

endloop
endfacet
facet normal -0.0775302127 0.9312739372 0.3559745848
outer loop
vertex -45.12306976 27.90555573 257.6967163
vertex -45.89615631 27.91039276 257.515686
vertex -45.34105682 27.79328156 257.9429626

endloop
endfacet
facet normal -0.1019288003 0.9361200333 0.3365854919
outer loop
vertex -45.12306976 27.90555573 257.6967163
vertex -45.34105682 27.79328156 257.9429626
vertex -44.59276581 27.79517365 258.1643066

endloop
endfacet
facet normal -0.1050298437 0.9319263697 0.3471049666
outer loop
vertex -44.59276581 27.79517365 258.1643066
vertex -45.34105682 27.79328156 257.9429626
vertex -44.82654572 27.68279266 258.3952942

endloop
endfacet
facet normal -0.1308747977 0.9371209145 0.3235367835
outer loop
vertex -44.59278107 27.79517365 258.1643066
vertex -44.82656097 27.6827774 258.3952942
vertex -44.11008453 27.69016266 258.6637268

endloop
endfacet
facet normal -0.1352970451 0.9322834015 0.3354733884
outer loop
vertex -44.11008453 27.69016266 258.6637268
vertex -44.82656097 27.6827774 258.3952942
vertex -44.36171722 27.57767487 258.8748474

endloop
endfacet
facet normal -0.162561059 0.9380361438 0.3060427606
outer loop
vertex -44.11008453 27.69016266 258.6637268
vertex -44.36171722 27.57767487 258.8748474
vertex -43.68141937 27.59027863 259.1975708

endloop
endfacet
facet normal -0.1683726758 0.9328508973 0.3184960783
outer loop
vertex -43.68141937 27.59027863 259.1975708
vertex -44.36171722 27.57767487 258.8748474
vertex -43.95116425 27.47766876 259.3847961

endloop
endfacet
facet normal -0.1953220367 0.938962996 0.2831920087
outer loop
vertex -43.68140411 27.59027863 259.1976013
vertex -43.95114899 27.47769928 259.3848267
vertex -43.30789948 27.49581146 259.7684326

endloop
endfacet
facet normal -0.2021121532 0.9339350462 0.2948153615
outer loop
vertex -43.30789948 27.49581146 259.7684326
vertex -43.95114899 27.47769928 259.3848267
vertex -43.59415436 27.38309479 259.9292603

endloop
endfacet
facet normal -0.2265018821 0.9398826361 0.2555728555
outer loop
vertex -43.30789948 27.49581146 259.7684326
vertex -43.59415436 27.38309479 259.9292603
vertex -42.98642731 27.407341 260.3786926

endloop
endfacet
facet normal -0.2333121747 0.9355925322 0.2650132477
outer loop
vertex -42.98642731 27.407341 260.3786926
vertex -43.59415436 27.38309479 259.9292603
vertex -43.28592682 27.29447174 260.5134888

endloop
endfacet
facet normal -0.2522838414 0.9406314492 0.2270798832
outer loop
vertex -42.98642731 27.407341 260.3786926
vertex -43.28592682 27.29447174 260.5134888
vertex -42.70877838 27.32537079 261.0267029

endloop
endfacet
facet normal -0.257901907 0.9375095963 0.2335857898
outer loop
vertex -42.70877838 27.32537079 261.0267029
vertex -43.28592682 27.29447174 260.5134888
vertex -43.01738739 27.21234894 261.1395874

endloop
endfacet
facet normal -0.2719600499 0.9414804578 0.1991286725
outer loop
vertex -42.70877838 27.32537079 261.0267029
vertex -43.01738739 27.21234894 261.1395874
vertex -42.46547699 27.25244904 261.7037659

endloop
endfacet
facet normal -0.2758803964 0.9394882321 0.203105405
outer loop
vertex -42.46547699 27.25244904 261.7037659
vertex -43.01738739 27.21234894 261.1395874
vertex -42.77957916 27.13925934 261.8006897

endloop
endfacet
facet normal -0.2890548706 0.9430449605 0.1646616906
outer loop
vertex -42.46546173 27.25247955 261.7037964
vertex -42.77954865 27.13928986 261.8006897
vertex -42.2518692 27.19684601 262.3973694

endloop
endfacet
facet normal -0.2914022803 0.9419382811 0.1668443829
outer loop
vertex -42.2518692 27.19684601 262.3973694
vertex -42.77954865 27.13928986 261.8006897
vertex -42.56903839 27.08342743 262.4837341

endloop
endfacet
facet normal -0.3057041168 0.9447795749 0.1180532873
outer loop
vertex -42.2518692 27.19684601 262.3973694
vertex -42.56903839 27.08342743 262.4837341
vertex -42.06093597 27.17113495 263.0975647

endloop
endfacet
facet normal -0.3065101802 0.9444283843 0.1187707037
outer loop
vertex -42.06093597 27.17113495 263.0975647
vertex -42.56903839 27.08342743 262.4837341
vertex -42.37926483 27.05751801 263.1795044

endloop
endfacet
facet normal -0.3219600618 0.9448887706 0.05938756466
outer loop
vertex -42.06093597 27.17113495 263.0975647
vertex -42.37926483 27.05751801 263.1795044
vertex -41.88451385 27.18691254 263.8029785

endloop
endfacet
facet normal -0.3216872215 0.9449967146 0.05914865807
outer loop
vertex -41.88451385 27.18691254 263.8029785
vertex -42.37926483 27.05751801 263.1795044
vertex -42.20252228 27.0734787 263.8857422

endloop
endfacet
facet normal -0.3386834562 0.9408255219 -0.01187403966
outer loop
vertex -41.88451385 27.18691254 263.8029785
vertex -42.20252228 27.0734787 263.8857422
vertex -41.71923065 27.25519562 264.4989319

endloop
endfacet
facet normal -0.3373714685 0.9412811995 -0.01304311771
outer loop
vertex -41.71923065 27.25519562 264.4989319
vertex -42.20252228 27.0734787 263.8857422
vertex -42.03513336 27.14319611 264.5873718

endloop
endfacet
facet normal -0.3604518175 0.9256224632 -0.1153149605
outer loop
vertex -41.71923065 27.25519562 264.4989319
vertex -42.03513336 27.14319611 264.5873718
vertex -41.56420135 27.40045929 265.1803589

endloop
endfacet
facet normal -0.3600953817 0.9257205129 -0.1156405881
outer loop
vertex -41.56420135 27.40045929 265.1803589
vertex -42.03513336 27.14319611 264.5873718
vertex -41.8779068 27.29073334 265.2788391

endloop
endfacet
facet normal -0.364172101 0.9218088984 -0.1328422874
outer loop
vertex -41.5641861 27.40045929 265.1803284
vertex -41.87789154 27.29071808 265.2788086
vertex -41.34705353 27.59497833 265.9348755

endloop
endfacet
facet normal -0.3600084782 0.9228786826 -0.1367072761
outer loop
vertex -41.34705353 27.59497833 265.9348755
vertex -41.87789154 27.29071808 265.2788086
vertex -41.67101288 27.48497772 266.0454102

endloop
endfacet
facet normal -0.07641143352 0.8097041845 0.5818423033
outer loop
vertex -41.34705353 27.59497833 265.9348755
vertex -41.67101288 27.48497772 266.0454102
vertex -41.06499481 27.08875275 266.6763916

endloop
endfacet
facet normal 0.7214766145 0 -0.6924388409
outer loop
vertex -41.06499481 27.08875275 266.6763916
vertex -41.67101288 27.48497772 266.0454102
vertex -41.06499481 27.08876801 266.6763916

endloop
endfacet
facet normal -0.5211412311 -0.6034947634 0.6034947634
outer loop
vertex -48.5398941 27.99808502 255.3423767
vertex -48.5398941 27.99806976 255.3423615
vertex -48.23384857 28.41385651 256.0224304

endloop
endfacet
facet normal -0.8390789628 0.5420439839 0.04620363936
outer loop
vertex -48.23384857 28.41385651 256.0224304
vertex -48.5398941 27.99806976 255.3423615
vertex -48.37902069 28.17508698 256.1871948

endloop
endfacet
facet normal -0.2859419584 0.6559130549 0.6985809207
outer loop
vertex -48.23384857 28.41385651 256.0224304
vertex -48.37902069 28.17508698 256.1871948
vertex -47.64716339 28.28247833 256.3859253

endloop
endfacet
facet normal -0.2848156095 0.6670660973 0.6884060502
outer loop
vertex -47.64716339 28.28247833 256.3859253
vertex -48.37902069 28.17508698 256.1871948
vertex -47.78443146 28.06044769 256.544281

endloop
endfacet
facet normal -0.2737354934 0.6648964882 0.6949687004
outer loop
vertex -47.64716339 28.28247833 256.3859253
vertex -47.78443146 28.06044769 256.544281
vertex -47.0795517 28.16117096 256.7255554

endloop
endfacet
facet normal -0.2740064561 0.6619750261 0.6976456642
outer loop
vertex -47.0795517 28.16117096 256.7255554
vertex -47.78443146 28.06044769 256.544281
vertex -47.21985626 27.93926239 256.881012

endloop
endfacet
facet normal -0.2979115546 0.6668593287 0.6830426455
outer loop
vertex -47.0795517 28.16117096 256.7255554
vertex -47.21985626 27.93926239 256.881012
vertex -46.4829483 28.03418732 257.1097412

endloop
endfacet
facet normal -0.2986417413 0.6620453 0.6873929501
outer loop
vertex -46.4829483 28.03418732 257.1097412
vertex -47.21985626 27.93926239 256.881012
vertex -46.62813568 27.81150055 257.2611389

endloop
endfacet
facet normal -0.323486656 0.6671273112 0.6710422039
outer loop
vertex -46.4829483 28.03418732 257.1097412
vertex -46.62813568 27.81150055 257.2611389
vertex -45.89615631 27.91039276 257.515686

endloop
endfacet
facet normal -0.3244007826 0.6619997621 0.6756629348
outer loop
vertex -45.89615631 27.91039276 257.515686
vertex -46.62813568 27.81150055 257.2611389
vertex -46.04560089 27.68727875 257.6625366

endloop
endfacet
facet normal -0.3595704138 0.6689963937 0.6505021453
outer loop
vertex -45.89615631 27.91039276 257.515686
vertex -46.04560089 27.68727875 257.6625366
vertex -45.34105682 27.79328156 257.9429626

endloop
endfacet
facet normal -0.3610138297 0.6620895267 0.6567392349
outer loop
vertex -45.34105682 27.79328156 257.9429626
vertex -46.04560089 27.68727875 257.6625366
vertex -45.49692535 27.5699234 258.0824585

endloop
endfacet
facet normal -0.4034570754 0.6704387665 0.6226831079
outer loop
vertex -45.34105682 27.79328156 257.9429626
vertex -45.49692535 27.5699234 258.0824585
vertex -44.82654572 27.68279266 258.3952942

endloop
endfacet
facet normal -0.4056008756 0.6619292498 0.6303471923
outer loop
vertex -44.82654572 27.68279266 258.3952942
vertex -45.49692535 27.5699234 258.0824585
vertex -44.9905777 27.45920563 258.5245361

endloop
endfacet
facet normal -0.4530775547 0.6715003848 0.586351335
outer loop
vertex -44.82656097 27.6827774 258.3952942
vertex -44.99059296 27.45922089 258.5245667
vertex -44.36171722 27.57767487 258.8748474

endloop
endfacet
facet normal -0.4561024904 0.6616824865 0.5951023102
outer loop
vertex -44.36171722 27.57767487 258.8748474
vertex -44.99059296 27.45922089 258.5245667
vertex -44.53505707 27.35391998 258.9907837

endloop
endfacet
facet normal -0.5067121983 0.6722227931 0.5397769809
outer loop
vertex -44.36171722 27.57767487 258.8748474
vertex -44.53505707 27.35391998 258.9907837
vertex -43.95116425 27.47766876 259.3847961

endloop
endfacet
facet normal -0.5105696917 0.6619983315 0.5487046838
outer loop
vertex -43.95116425 27.47766876 259.3847961
vertex -44.53505707 27.35391998 258.9907837
vertex -44.13373566 27.25371552 259.4851074

endloop
endfacet
facet normal -0.5595666766 0.6728897095 0.483843565
outer loop
vertex -43.95114899 27.47769928 259.3848267
vertex -44.1337204 27.25374603 259.4851379
vertex -43.59415436 27.38309479 259.9292603

endloop
endfacet
facet normal -0.5641239882 0.6628793478 0.492295742
outer loop
vertex -43.59415436 27.38309479 259.9292603
vertex -44.1337204 27.25374603 259.4851379
vertex -43.78469086 27.15886688 260.0128479

endloop
endfacet
facet normal -0.6069688797 0.6732107401 0.4223458767
outer loop
vertex -43.59415436 27.38309479 259.9292603
vertex -43.78469086 27.15886688 260.0128479
vertex -43.28592682 27.29447174 260.5134888

endloop
endfacet
facet normal -0.6115000844 0.6647536159 0.4291507602
outer loop
vertex -43.28592682 27.29447174 260.5134888
vertex -43.78469086 27.15886688 260.0128479
vertex -43.4824295 27.06995392 260.5812683

endloop
endfacet
facet normal -0.6435050964 0.673188746 0.3643046618
outer loop
vertex -43.28592682 27.29447174 260.5134888
vertex -43.4824295 27.06995392 260.5812683
vertex -43.01738739 27.21234894 261.1395874

endloop
endfacet
facet normal -0.647310853 0.6669122577 0.3690753579
outer loop
vertex -43.01738739 27.21234894 261.1395874
vertex -43.4824295 27.06995392 260.5812683
vertex -43.21762848 26.98752594 261.1946411

endloop
endfacet
facet normal -0.6690832376 0.6730852127 0.3150934875
outer loop
vertex -43.01738739 27.21234894 261.1395874
vertex -43.21762848 26.98752594 261.1946411
vertex -42.77957916 27.13925934 261.8006897

endloop
endfacet
facet normal -0.6718069315 0.6689460278 0.3180984557
outer loop
vertex -42.77957916 27.13925934 261.8006897
vertex -43.21762848 26.98752594 261.1946411
vertex -42.98148346 26.91408539 261.8478088

endloop
endfacet
facet normal -0.688888073 0.6737385988 0.2674125433
outer loop
vertex -42.77954865 27.13928986 261.8006897
vertex -42.9814682 26.91411591 261.8478394
vertex -42.56903839 27.08342743 262.4837341

endloop
endfacet
facet normal -0.6904827356 0.6714476347 0.2690569162
outer loop
vertex -42.56903839 27.08342743 262.4837341
vertex -42.9814682 26.91411591 261.8478394
vertex -42.7710495 26.85781097 262.5283508

endloop
endfacet
facet normal -0.7053974867 0.6746103168 0.2175208777
outer loop
vertex -42.56903839 27.08342743 262.4837341
vertex -42.7710495 26.85781097 262.5283508
vertex -42.37926483 27.05751801 263.1795044

endloop
endfacet
facet normal -0.7059891224 0.6737952232 0.2181268483
outer loop
vertex -42.37926483 27.05751801 263.1795044
vertex -42.7710495 26.85781097 262.5283508
vertex -42.57984161 26.8315506 263.2283325

endloop
endfacet
facet normal -0.7196846604 0.6744428873 0.1648656279
outer loop
vertex -42.37926483 27.05751801 263.1795044
vertex -42.57984161 26.8315506 263.2283325
vertex -42.20252228 27.0734787 263.8857422

endloop
endfacet
facet normal -0.7196884155 0.6744380593 0.1648695618
outer loop
vertex -42.20252228 27.0734787 263.8857422
vertex -42.57984161 26.8315506 263.2283325
vertex -42.40055084 26.8478775 263.9441833

endloop
endfacet
facet normal -0.7330708504 0.6714962125 0.1081666797
outer loop
vertex -42.20252228 27.0734787 263.8857422
vertex -42.40055084 26.8478775 263.9441833
vertex -42.03513336 27.14319611 264.5873718

endloop
endfacet
facet normal -0.7320671678 0.6727753878 0.1070091873
outer loop
vertex -42.03513336 27.14319611 264.5873718
vertex -42.40055084 26.8478775 263.9441833
vertex -42.22887421 26.92037201 264.6628723

endloop
endfacet
facet normal -0.7493853569 0.6614875197 0.02925556712
outer loop
vertex -42.03513336 27.14319611 264.5873718
vertex -42.22887421 26.92037201 264.6628723
vertex -41.8779068 27.29073334 265.2788391

endloop
endfacet
facet normal -0.7498182654 0.6609718204 0.02981231362
outer loop
vertex -41.8779068 27.29073334 265.2788391
vertex -42.22887421 26.92037201 264.6628723
vertex -42.06667328 27.0721817 265.3766479

endloop
endfacet
facet normal -0.748660028 0.6620679498 0.03426642716
outer loop
vertex -41.87789154 27.29071808 265.2788086
vertex -42.06667328 27.0721817 265.3766479
vertex -41.67101288 27.48497772 266.0454102

endloop
endfacet
facet normal -0.7549111247 0.6544371247 0.04267493263
outer loop
vertex -41.67101288 27.48497772 266.0454102
vertex -42.06667328 27.0721817 265.3766479
vertex -41.86420441 27.25424957 266.1661987

endloop
endfacet
facet normal -0.3180244267 0.6348941922 0.7041091919
outer loop
vertex -41.67101288 27.48497772 266.0454102
vertex -41.86420441 27.25424957 266.1661987
vertex -41.06499481 27.08876801 266.6763916

endloop
endfacet
facet normal 0 -0.9511940479 -0.3085934818
outer loop
vertex -41.06499481 27.08876801 266.6763916
vertex -41.86420441 27.25424957 266.1661987
vertex -41.06497955 27.08876801 266.6763916

endloop
endfacet
facet normal 0.9465773702 0.2280255258 -0.2280255258
outer loop
vertex -48.5398941 27.99806976 255.3423615
vertex -48.5398941 27.99808502 255.3423767
vertex -48.37902069 28.17508698 256.1871948

endloop
endfacet
facet normal -0.9492480755 0.2908068895 0.1198309734
outer loop
vertex -48.37902069 28.17508698 256.1871948
vertex -48.5398941 27.99808502 255.3423767
vertex -48.45772552 27.90268707 256.2247925

endloop
endfacet
facet normal -0.4623512924 0.2509684861 0.8504387736
outer loop
vertex -48.37902069 28.17508698 256.1871948
vertex -48.45772552 27.90268707 256.2247925
vertex -47.78443146 28.06044769 256.544281

endloop
endfacet
facet normal -0.4651748836 0.2952055931 0.8345454335
outer loop
vertex -47.78443146 28.06044769 256.544281
vertex -48.45772552 27.90268707 256.2247925
vertex -47.86345673 27.80728912 256.5897827

endloop
endfacet
facet normal -0.4432998598 0.2907772958 0.8478995562
outer loop
vertex -47.78443146 28.06044769 256.544281
vertex -47.86345673 27.80728912 256.5897827
vertex -47.21985626 27.93926239 256.881012

endloop
endfacet
facet normal -0.4431771338 0.2877871096 0.8489833474
outer loop
vertex -47.21985626 27.93926239 256.881012
vertex -47.86345673 27.80728912 256.5897827
vertex -47.29964447 27.68630219 256.9251099

endloop
endfacet
facet normal -0.4709998667 0.2935758829 0.831848681
outer loop
vertex -47.21985626 27.93926239 256.881012
vertex -47.29964447 27.68630219 256.9251099
vertex -46.62813568 27.81150055 257.2611389

endloop
endfacet
facet normal -0.4709437788 0.2875182927 0.8339935541
outer loop
vertex -46.62813568 27.81150055 257.2611389
vertex -47.29964447 27.68630219 256.9251099
vertex -46.70859528 27.55764008 257.3032227

endloop
endfacet
facet normal -0.4992206395 0.2933807373 0.815295279
outer loop
vertex -46.62813568 27.81150055 257.2611389
vertex -46.70859528 27.55764008 257.3032227
vertex -46.04560089 27.68727875 257.6625366

endloop
endfacet
facet normal -0.4992062747 0.2868836224 0.817612946
outer loop
vertex -46.04560089 27.68727875 257.6625366
vertex -46.70859528 27.55764008 257.3032227
vertex -46.12598419 27.43294525 257.7026978

endloop
endfacet
facet normal -0.5400801301 0.2951514423 0.7881617546
outer loop
vertex -46.04560089 27.68727875 257.6625366
vertex -46.12598419 27.43294525 257.7026978
vertex -45.49692535 27.5699234 258.0824585

endloop
endfacet
facet normal -0.5401082635 0.2861440778 0.7914572358
outer loop
vertex -45.49692535 27.5699234 258.0824585
vertex -46.12598419 27.43294525 257.7026978
vertex -45.57779694 27.31522369 258.1193542

endloop
endfacet
facet normal -0.590577662 0.2962552905 0.7506335974
outer loop
vertex -45.49692535 27.5699234 258.0824585
vertex -45.57779694 27.31522369 258.1193542
vertex -44.9905777 27.45920563 258.5245361

endloop
endfacet
facet normal -0.5907250643 0.285728693 0.7545879483
outer loop
vertex -44.9905777 27.45920563 258.5245361
vertex -45.57779694 27.31522369 258.1193542
vertex -45.07260895 27.20426178 258.5568542

endloop
endfacet
facet normal -0.6484547257 0.2973793745 0.7007652521
outer loop
vertex -44.99059296 27.45922089 258.5245667
vertex -45.07262421 27.20426178 258.5568542
vertex -44.53505707 27.35391998 258.9907837

endloop
endfacet
facet normal -0.6488454342 0.2852145731 0.7054447532
outer loop
vertex -44.53505707 27.35391998 258.9907837
vertex -45.07262421 27.20426178 258.5568542
vertex -44.61862946 27.09880829 259.0170593

endloop
endfacet
facet normal -0.7104933262 0.2983920276 0.6373079419
outer loop
vertex -44.53505707 27.35391998 258.9907837
vertex -44.61862946 27.09880829 259.0170593
vertex -44.13373566 27.25371552 259.4851074

endloop
endfacet
facet normal -0.7112694383 0.2850550413 0.6425258517
outer loop
vertex -44.13373566 27.25371552 259.4851074
vertex -44.61862946 27.09880829 259.0170593
vertex -44.21846771 26.99840546 259.5045776

endloop
endfacet
facet normal -0.7704306841 0.2986265123 0.563257277
outer loop
vertex -44.1337204 27.25374603 259.4851379
vertex -44.21845245 26.99842072 259.5046082
vertex -43.78469086 27.15886688 260.0128479

endloop
endfacet
facet normal -0.7715905905 0.285825938 0.5682882667
outer loop
vertex -43.78469086 27.15886688 260.0128479
vertex -44.21845245 26.99842072 259.5046082
vertex -43.86985016 26.90325165 260.0257874

endloop
endfacet
facet normal -0.8225240707 0.2985318899 0.4840793908
outer loop
vertex -43.78469086 27.15886688 260.0128479
vertex -43.86985016 26.90325165 260.0257874
vertex -43.4824295 27.06995392 260.5812683

endloop
endfacet
facet normal -0.8239441514 0.2873018384 0.4884400666
outer loop
vertex -43.4824295 27.06995392 260.5812683
vertex -43.86985016 26.90325165 260.0257874
vertex -43.56726837 26.81398773 260.5887146

endloop
endfacet
facet normal -0.8613421321 0.2974685133 0.4118278623
outer loop
vertex -43.4824295 27.06995392 260.5812683
vertex -43.56726837 26.81398773 260.5887146
vertex -43.21762848 26.98752594 261.1946411

endloop
endfacet
facet normal -0.8626999855 0.2889183462 0.4150601625
outer loop
vertex -43.21762848 26.98752594 261.1946411
vertex -43.56726837 26.81398773 260.5887146
vertex -43.30164337 26.73122406 261.1984253

endloop
endfacet
facet normal -0.8871487975 0.2960313857 0.3540231287
outer loop
vertex -43.21762848 26.98752594 261.1946411
vertex -43.30164337 26.73122406 261.1984253
vertex -42.98148346 26.91408539 261.8478088

endloop
endfacet
facet normal -0.8881316185 0.2906298935 0.356028676
outer loop
vertex -42.98148346 26.91408539 261.8478088
vertex -43.30164337 26.73122406 261.1984253
vertex -43.06430817 26.65735626 261.850769

endloop
endfacet
facet normal -0.9054957628 0.295619458 0.3044446409
outer loop
vertex -42.9814682 26.91411591 261.8478394
vertex -43.06429291 26.65737152 261.8507996
vertex -42.7710495 26.85781097 262.5283508

endloop
endfacet
facet normal -0.9061427712 0.2923231423 0.3056998551
outer loop
vertex -42.7710495 26.85781097 262.5283508
vertex -43.06429291 26.65737152 261.8507996
vertex -42.85181427 26.60056305 262.5349426

endloop
endfacet
facet normal -0.9188016653 0.2951791286 0.2620549202
outer loop
vertex -42.7710495 26.85781097 262.5283508
vertex -42.85181427 26.60056305 262.5349426
vertex -42.57984161 26.8315506 263.2283325

endloop
endfacet
facet normal -0.919072628 0.2938424945 0.2626064122
outer loop
vertex -42.57984161 26.8315506 263.2283325
vertex -42.85181427 26.60056305 262.5349426
vertex -42.6576767 26.57389069 263.2442322

endloop
endfacet
facet normal -0.9285938144 0.2944511175 0.225858286
outer loop
vertex -42.57984161 26.8315506 263.2283325
vertex -42.6576767 26.57389069 263.2442322
vertex -42.40055084 26.8478775 263.9441833

endloop
endfacet
facet normal -0.9286014438 0.2944138348 0.2258756757
outer loop
vertex -42.40055084 26.8478775 263.9441833
vertex -42.6576767 26.57389069 263.2442322
vertex -42.47489166 26.59069061 263.9737854

endloop
endfacet
facet normal -0.936218977 0.2929570079 0.1940883249
outer loop
vertex -42.40055084 26.8478775 263.9441833
vertex -42.47489166 26.59069061 263.9737854
vertex -42.22887421 26.92037201 264.6628723

endloop
endfacet
facet normal -0.9359204173 0.294449538 0.1932676435
outer loop
vertex -42.22887421 26.92037201 264.6628723
vertex -42.47489166 26.59069061 263.9737854
vertex -42.2982254 26.66640472 264.7139587

endloop
endfacet
facet normal -0.9450075626 0.2888921201 0.1533037722
outer loop
vertex -42.22887421 26.92037201 264.6628723
vertex -42.2982254 26.66640472 264.7139587
vertex -42.06667328 27.0721817 265.3766479

endloop
endfacet
facet normal -0.9451899529 0.2879549563 0.1539413482
outer loop
vertex -42.06667328 27.0721817 265.3766479
vertex -42.2982254 26.66640472 264.7139587
vertex -42.12998199 26.82306671 265.4539185

endloop
endfacet
facet normal -0.940271914 0.2928393185 0.1735913157
outer loop
vertex -42.06667328 27.0721817 265.3766479
vertex -42.12998199 26.82308197 265.453949
vertex -41.86420441 27.25424957 266.1661987

endloop
endfacet
facet normal -0.9459113479 0.2578667104 0.196866706
outer loop
vertex -41.86420441 27.25424957 266.1661987
vertex -42.12998199 26.82308197 265.453949
vertex -41.91533661 26.99103546 266.2652893

endloop
endfacet
facet normal -0.4367308021 0.3900195062 0.8106485605
outer loop
vertex -41.86420441 27.25424957 266.1661987
vertex -41.91533661 26.99103546 266.2652893
vertex -41.06497955 27.08876801 266.6763916

endloop
endfacet
facet normal 0 0.9730530381 -0.2305812985
outer loop
vertex -41.06497955 27.08876801 266.6763916
vertex -41.91533661 26.99103546 266.2652893
vertex -41.06499481 27.08876801 266.6763916

endloop
endfacet
facet normal -0.9856596589 -0.1509306282 0.07546531409
outer loop
vertex -48.5398941 27.99808502 255.3423767
vertex -48.5398941 27.99806976 255.3423462
vertex -48.45772552 27.90268707 256.2247925

endloop
endfacet
facet normal -0.9955335259 0.01045328472 0.09382852912
outer loop
vertex -48.45772552 27.90268707 256.2247925
vertex -48.5398941 27.99806976 255.3423462
vertex -48.46822357 27.62906647 256.1438904

endloop
endfacet
facet normal -0.5359315872 -0.2204061598 0.8149837255
outer loop
vertex -48.45772552 27.90268707 256.2247925
vertex -48.46822357 27.62906647 256.1438904
vertex -47.86345673 27.80728912 256.5897827

endloop
endfacet
facet normal -0.5494324565 -0.1780200303 0.8163533807
outer loop
vertex -47.86345673 27.80728912 256.5897827
vertex -48.46822357 27.62906647 256.1438904
vertex -47.87985992 27.53813934 256.52005

endloop
endfacet
facet normal -0.5311941504 -0.1820114106 0.8274688125
outer loop
vertex -47.86345673 27.80728912 256.5897827
vertex -47.87985992 27.53813934 256.52005
vertex -47.29964447 27.68630219 256.9251099

endloop
endfacet
facet normal -0.5303102732 -0.1851306558 0.8273437619
outer loop
vertex -47.29964447 27.68630219 256.9251099
vertex -47.87985992 27.53813934 256.52005
vertex -47.3143692 27.41698456 256.8554077

endloop
endfacet
facet normal -0.557559669 -0.1792928725 0.8105438948
outer loop
vertex -47.29964447 27.68630219 256.9251099
vertex -47.3143692 27.41698456 256.8554077
vertex -46.70859528 27.55764008 257.3032227

endloop
endfacet
facet normal -0.5558434129 -0.185783416 0.8102608323
outer loop
vertex -46.70859528 27.55764008 257.3032227
vertex -47.3143692 27.41698456 256.8554077
vertex -46.71977997 27.2873764 257.2335815

endloop
endfacet
facet normal -0.5821859241 -0.1802029014 0.7928344011
outer loop
vertex -46.70859528 27.55764008 257.3032227
vertex -46.71977997 27.2873764 257.2335815
vertex -46.12598419 27.43294525 257.7026978

endloop
endfacet
facet normal -0.5804211497 -0.1867153645 0.7926214337
outer loop
vertex -46.12598419 27.43294525 257.7026978
vertex -46.71977997 27.2873764 257.2335815
vertex -46.13277435 27.16217804 257.6339417

endloop
endfacet
facet normal -0.6194086671 -0.1785930246 0.7644850612
outer loop
vertex -46.12598419 27.43294525 257.7026978
vertex -46.13277435 27.16217804 257.6339417
vertex -45.57779694 27.31522369 258.1193542

endloop
endfacet
facet normal -0.6167889833 -0.1878069788 0.7643951178
outer loop
vertex -45.57779694 27.31522369 258.1193542
vertex -46.13277435 27.16217804 257.6339417
vertex -45.57913971 27.04413605 258.0516663

endloop
endfacet
facet normal -0.6662433147 -0.1775482595 0.7242903113
outer loop
vertex -45.57779694 27.31522369 258.1193542
vertex -45.57913971 27.04413605 258.0516663
vertex -45.07260895 27.20426178 258.5568542

endloop
endfacet
facet normal -0.6630061269 -0.1884610057 0.7245035172
outer loop
vertex -45.07260895 27.20426178 258.5568542
vertex -45.57913971 27.04413605 258.0516663
vertex -45.06807709 26.93291473 258.4904175

endloop
endfacet
facet normal -0.7206413746 -0.1762875319 0.6705212593
outer loop
vertex -45.07262421 27.20426178 258.5568542
vertex -45.06806183 26.93291473 258.4904175
vertex -44.61862946 27.09880829 259.0170593

endloop
endfacet
facet normal -0.7167295218 -0.189106524 0.6712208986
outer loop
vertex -44.61862946 27.09880829 259.0170593
vertex -45.06806183 26.93291473 258.4904175
vertex -44.60771942 26.82727814 258.9522095

endloop
endfacet
facet normal -0.7783913016 -0.1752484143 0.6028224826
outer loop
vertex -44.61862946 27.09880829 259.0170593
vertex -44.60771942 26.82727814 258.9522095
vertex -44.21846771 26.99840546 259.5045776

endloop
endfacet
facet normal -0.7741059661 -0.1891950667 0.6041234136
outer loop
vertex -44.21846771 26.99840546 259.5045776
vertex -44.60771942 26.82727814 258.9522095
vertex -44.20063019 26.72663116 259.4423218

endloop
endfacet
facet normal -0.8328483105 -0.1749652624 0.5251198411
outer loop
vertex -44.21845245 26.99842072 259.5046082
vertex -44.20063019 26.72664642 259.4423218
vertex -43.86985016 26.90325165 260.0257874

endloop
endfacet
facet normal -0.8285986185 -0.189025715 0.5269665122
outer loop
vertex -43.86985016 26.90325165 260.0257874
vertex -44.20063019 26.72664642 259.4423218
vertex -43.84488678 26.63115692 259.9674377

endloop
endfacet
facet normal -0.8784499168 -0.1758701503 0.4442919791
outer loop
vertex -43.86985016 26.90325165 260.0257874
vertex -43.84488678 26.63115692 259.9674377
vertex -43.56726837 26.81398773 260.5887146

endloop
endfacet
facet normal -0.8747693896 -0.1885082722 0.4463665485
outer loop
vertex -43.56726837 26.81398773 260.5887146
vertex -43.84488678 26.63115692 259.9674377
vertex -43.53575897 26.54152679 260.5354004

endloop
endfacet
facet normal -0.9107277393 -0.1782269776 0.3725723326
outer loop
vertex -43.56726837 26.81398773 260.5887146
vertex -43.53575897 26.54152679 260.5354004
vertex -43.30164337 26.73122406 261.1984253

endloop
endfacet
facet normal -0.9080021977 -0.1880137175 0.3744100332
outer loop
vertex -43.30164337 26.73122406 261.1984253
vertex -43.53575897 26.54152679 260.5354004
vertex -43.26486969 26.45839691 261.1506042

endloop
endfacet
facet normal -0.9305992126 -0.1811814904 0.3180539012
outer loop
vertex -43.30164337 26.73122406 261.1984253
vertex -43.26486969 26.45839691 261.1506042
vertex -43.06430817 26.65735626 261.850769

endloop
endfacet
facet normal -0.9289407134 -0.1873434037 0.3193297982
outer loop
vertex -43.06430817 26.65735626 261.850769
vertex -43.26486969 26.45839691 261.1506042
vertex -43.02341461 26.38410187 261.8094177

endloop
endfacet
facet normal -0.9430525303 -0.1831526458 0.2776815295
outer loop
vertex -43.06429291 26.65737152 261.8507996
vertex -43.02339935 26.38411713 261.8094482
vertex -42.85181427 26.60056305 262.5349426

endloop
endfacet
facet normal -0.9420837164 -0.1867985278 0.2785401344
outer loop
vertex -42.85181427 26.60056305 262.5349426
vertex -43.02339935 26.38411713 261.8094482
vertex -42.80690765 26.32671356 262.5031738

endloop
endfacet
facet normal -0.9496124983 -0.185065195 0.2529564202
outer loop
vertex -42.85181427 26.60056305 262.5349426
vertex -42.80690765 26.32671356 262.5031738
vertex -42.6576767 26.57389069 263.2442322

endloop
endfacet
facet normal -0.949190259 -0.1866280288 0.2533926368
outer loop
vertex -42.6576767 26.57389069 263.2442322
vertex -42.80690765 26.32671356 262.5031738
vertex -42.60852814 26.29959869 263.2263184

endloop
endfacet
facet normal -0.9519899487 -0.1864383966 0.2428084314
outer loop
vertex -42.6576767 26.57389069 263.2442322
vertex -42.60852814 26.29959869 263.2263184
vertex -42.47489166 26.59069061 263.9737854

endloop
endfacet
facet normal -0.9519280195 -0.1866575778 0.2428826988
outer loop
vertex -42.47489166 26.59069061 263.9737854
vertex -42.60852814 26.29959869 263.2263184
vertex -42.42145538 26.31690216 263.9728088

endloop
endfacet
facet normal -0.9511304498 -0.1865133345 0.2460968643
outer loop
vertex -42.47489166 26.59069061 263.9737854
vertex -42.42145538 26.31690216 263.9728088
vertex -42.2982254 26.66640472 264.7139587

endloop
endfacet
facet normal -0.9514663219 -0.1854094118 0.2456321716
outer loop
vertex -42.2982254 26.66640472 264.7139587
vertex -42.42145538 26.31690216 263.9728088
vertex -42.23943329 26.39603424 264.7376099

endloop
endfacet
facet normal -0.9492944479 -0.1841331422 0.2548235953
outer loop
vertex -42.2982254 26.66640472 264.7139587
vertex -42.23943329 26.39603424 264.7376099
vertex -42.12998199 26.82306671 265.4539185

endloop
endfacet
facet normal -0.9492612481 -0.1842306852 0.2548766732
outer loop
vertex -42.12998199 26.82306671 265.4539185
vertex -42.23943329 26.39603424 264.7376099
vertex -42.06455231 26.55817413 265.506134

endloop
endfacet
facet normal -0.94196105 -0.1763100326 0.2856993973
outer loop
vertex -42.12998199 26.82308197 265.453949
vertex -42.06456757 26.55815887 265.506134
vertex -41.91533661 26.99103546 266.2652893

endloop
endfacet
facet normal -0.9296085835 -0.2103042603 0.3026550412
outer loop
vertex -41.91533661 26.99103546 266.2652893
vertex -42.06456757 26.55815887 265.506134
vertex -41.83312225 26.72661591 266.3340759

endloop
endfacet
facet normal -0.442096591 0.09457966685 0.8919671178
outer loop
vertex -41.91533661 26.99103546 266.2652893
vertex -41.83312225 26.72661591 266.3340759
vertex -41.06499481 27.08876801 266.6763916

endloop
endfacet
facet normal 0 0.6892639399 -0.7245103717
outer loop
vertex -41.06499481 27.08876801 266.6763916
vertex -41.83312225 26.72661591 266.3340759
vertex -41.06501007 27.08876801 266.6763916

endloop
endfacet
facet normal 0.8083161116 -0.5040015578 -0.3043145537
outer loop
vertex -48.53990936 27.9980545 255.3423462
vertex -48.5398941 27.99806976 255.3423615
vertex -48.46823883 27.62906647 256.1438293

endloop
endfacet
facet normal -0.9664045572 -0.2551409304 -0.03106783703
outer loop
vertex -48.46823883 27.62906647 256.1438293
vertex -48.5398941 27.99806976 255.3423615
vertex -48.39167023 27.36673737 255.9164124

endloop
endfacet
facet normal -0.4777879417 -0.6508990526 0.58995682
outer loop
vertex -48.46823883 27.62906647 256.1438293
vertex -48.39167023 27.36673737 255.9164124
vertex -47.87985992 27.53813934 256.5200195

endloop
endfacet
facet normal -0.5052158833 -0.6168415546 0.6035424471
outer loop
vertex -47.87985992 27.53813934 256.5200195
vertex -48.39167023 27.36673737 255.9164124
vertex -47.81003571 27.26357269 256.2978516

endloop
endfacet
facet normal -0.494419992 -0.6192811728 0.6099506021
outer loop
vertex -47.87985992 27.53813934 256.5200195
vertex -47.81003571 27.26357269 256.2978516
vertex -47.3143692 27.4169693 256.8553772

endloop
endfacet
facet normal -0.4923668802 -0.6219773889 0.6088669896
outer loop
vertex -47.3143692 27.4169693 256.8553772
vertex -47.81003571 27.26357269 256.2978516
vertex -47.23957062 27.1419754 256.6349487

endloop
endfacet
facet normal -0.5135911107 -0.6173557639 0.5958994031
outer loop
vertex -47.3143692 27.4169693 256.8553772
vertex -47.23957062 27.1419754 256.6349487
vertex -46.71979523 27.28736115 257.233551

endloop
endfacet
facet normal -0.5095160604 -0.6228350401 0.5936917663
outer loop
vertex -46.71979523 27.28736115 257.233551
vertex -47.23957062 27.1419754 256.6349487
vertex -46.63584137 27.01136017 257.0160522

endloop
endfacet
facet normal -0.5284417272 -0.6187872887 0.5812500715
outer loop
vertex -46.71979523 27.28736115 257.233551
vertex -46.63584137 27.01136017 257.0160522
vertex -46.13278961 27.16216278 257.6339417

endloop
endfacet
facet normal -0.5243381858 -0.6241582632 0.5792200565
outer loop
vertex -46.13278961 27.16216278 257.6339417
vertex -46.63584137 27.01136017 257.0160522
vertex -46.03888702 26.88565826 257.42099

endloop
endfacet
facet normal -0.5531902909 -0.6180493832 0.558565557
outer loop
vertex -46.13278961 27.16216278 257.6339417
vertex -46.03888702 26.88565826 257.42099
vertex -45.57915497 27.04412079 258.0516357

endloop
endfacet
facet normal -0.5472157598 -0.6255505085 0.5560949445
outer loop
vertex -45.57915497 27.04412079 258.0516357
vertex -46.03888702 26.88565826 257.42099
vertex -45.47203827 26.76729584 257.8456421

endloop
endfacet
facet normal -0.5854061246 -0.6174735427 0.5253818035
outer loop
vertex -45.57915497 27.04412079 258.0516357
vertex -45.47203827 26.76729584 257.8456421
vertex -45.06807709 26.93289948 258.490387

endloop
endfacet
facet normal -0.5778039098 -0.6266164184 0.5229670405
outer loop
vertex -45.06807709 26.93289948 258.490387
vertex -45.47203827 26.76729584 257.8456421
vertex -44.94580841 26.65579987 258.293457

endloop
endfacet
facet normal -0.623605907 -0.6165757775 0.4805726409
outer loop
vertex -45.06806183 26.93289948 258.490387
vertex -44.94582367 26.65579987 258.2934875
vertex -44.60771942 26.82726288 258.9522095

endloop
endfacet
facet normal -0.6143727303 -0.6272727251 0.4786178768
outer loop
vertex -44.60771942 26.82726288 258.9522095
vertex -44.94582367 26.65579987 258.2934875
vertex -44.46874237 26.5499649 258.7671814

endloop
endfacet
facet normal -0.6635420322 -0.6159232259 0.4246769547
outer loop
vertex -44.60771942 26.82726288 258.9522095
vertex -44.46874237 26.5499649 258.7671814
vertex -44.20063019 26.72663116 259.4423218

endloop
endfacet
facet normal -0.6531816125 -0.6276133657 0.4236215949
outer loop
vertex -44.20063019 26.72663116 259.4423218
vertex -44.46874237 26.5499649 258.7671814
vertex -44.04412079 26.44907379 259.2724304

endloop
endfacet
facet normal -0.6995934248 -0.6160962582 0.3619315624
outer loop
vertex -44.20063019 26.72663116 259.4423218
vertex -44.04410553 26.44908905 259.2724304
vertex -43.84488678 26.63114166 259.9674072

endloop
endfacet
facet normal -0.6888533831 -0.6280510426 0.3619845212
outer loop
vertex -43.84488678 26.63114166 259.9674072
vertex -44.04410553 26.44908905 259.2724304
vertex -43.67139435 26.35329437 259.8154907

endloop
endfacet
facet normal -0.7276287675 -0.617587924 0.2985656559
outer loop
vertex -43.84488678 26.63114166 259.9674072
vertex -43.67139435 26.35329437 259.8154907
vertex -43.53577423 26.54152679 260.5353699

endloop
endfacet
facet normal -0.7177897692 -0.628518641 0.299570173
outer loop
vertex -43.53577423 26.54152679 260.5353699
vertex -43.67139435 26.35329437 259.8154907
vertex -43.3476181 26.26334381 260.4025574

endloop
endfacet
facet normal -0.7451377511 -0.6205877662 0.2442143559
outer loop
vertex -43.53577423 26.54152679 260.5353699
vertex -43.3476181 26.26334381 260.4025574
vertex -43.26490021 26.45839691 261.1506042

endloop
endfacet
facet normal -0.7377795577 -0.6288006902 0.2455422282
outer loop
vertex -43.26490021 26.45839691 261.1506042
vertex -43.3476181 26.26334381 260.4025574
vertex -43.06572723 26.17980194 261.035614

endloop
endfacet
facet normal -0.7538567185 -0.6239383221 0.2059148252
outer loop
vertex -43.26490021 26.45839691 261.1506042
vertex -43.06572723 26.17980194 261.035614
vertex -43.02342987 26.38407135 261.8094177

endloop
endfacet
facet normal -0.7491790652 -0.6291773915 0.2070421576
outer loop
vertex -43.02342987 26.38407135 261.8094177
vertex -43.06572723 26.17980194 261.035614
vertex -42.81645966 26.10501862 261.7103271

endloop
endfacet
facet normal -0.7569748163 -0.6268945336 0.1843702197
outer loop
vertex -43.02341461 26.38410187 261.8094482
vertex -42.8164444 26.10503387 261.7103271
vertex -42.80692291 26.32671356 262.5031738

endloop
endfacet
facet normal -0.7541508675 -0.630040884 0.1852160245
outer loop
vertex -42.80692291 26.32671356 262.5031738
vertex -42.8164444 26.10503387 261.7103271
vertex -42.59346771 26.04705048 262.42099

endloop
endfacet
facet normal -0.7546913624 -0.62992239 0.1834087521
outer loop
vertex -42.80692291 26.32671356 262.5031738
vertex -42.59346771 26.04705048 262.42099
vertex -42.6085434 26.29958344 263.2262878

endloop
endfacet
facet normal -0.7535040379 -0.6312175393 0.1838371158
outer loop
vertex -42.6085434 26.29958344 263.2262878
vertex -42.59346771 26.04705048 262.42099
vertex -42.3892746 26.01950836 263.1633606

endloop
endfacet
facet normal -0.7485564351 -0.6314777136 0.2022350281
outer loop
vertex -42.6085434 26.29958344 263.2262878
vertex -42.3892746 26.01950836 263.1633606
vertex -42.42145538 26.3168869 263.9728088

endloop
endfacet
facet normal -0.7486292124 -0.6314013004 0.2022040486
outer loop
vertex -42.42145538 26.3168869 263.9728088
vertex -42.3892746 26.01950836 263.1633606
vertex -42.19713593 26.03731537 263.9303284

endloop
endfacet
facet normal -0.7387875319 -0.6293923855 0.2409525812
outer loop
vertex -42.42145538 26.3168869 263.9728088
vertex -42.19713593 26.03731537 263.9303284
vertex -42.23943329 26.39601898 264.7376099

endloop
endfacet
facet normal -0.7394746542 -0.6287141442 0.2406152338
outer loop
vertex -42.23943329 26.39601898 264.7376099
vertex -42.19713593 26.03731537 263.9303284
vertex -42.00959015 26.11992645 264.7225647

endloop
endfacet
facet normal -0.726069212 -0.6205804348 0.2961475253
outer loop
vertex -42.23943329 26.39601898 264.7376099
vertex -42.00959015 26.11992645 264.7225647
vertex -42.06455231 26.55815887 265.506134

endloop
endfacet
facet normal -0.7267475128 -0.6199714541 0.2957593501
outer loop
vertex -42.06455231 26.55815887 265.506134
vertex -42.00959015 26.11992645 264.7225647
vertex -41.82794952 26.28792572 265.5210571

endloop
endfacet
facet normal -0.7201374769 -0.6125160456 0.3259235322
outer loop
vertex -42.06456757 26.55814362 265.506134
vertex -41.82796478 26.28792572 265.5210876
vertex -41.83312225 26.72658539 266.3340759

endloop
endfacet
facet normal -0.69096452 -0.6380120516 0.3398653269
outer loop
vertex -41.83312225 26.72658539 266.3340759
vertex -41.82796478 26.28792572 265.5210876
vertex -41.58562469 26.47301483 266.3612366

endloop
endfacet
facet normal -0.314689815 -0.2079521269 0.9261351228
outer loop
vertex -41.83312225 26.72658539 266.3340759
vertex -41.58562469 26.47301483 266.3612366
vertex -41.06501007 27.08875275 266.6763916

endloop
endfacet
facet normal 0.6902548075 -0.6923984885 0.210077554
outer loop
vertex -41.06501007 27.08875275 266.6763916
vertex -41.58562469 26.47301483 266.3612366
vertex -41.06499481 27.08876801 266.6763916

endloop
endfacet
facet normal -0.9735275507 -0.2285697907 0
outer loop
vertex -48.5398941 27.99806976 255.3423767
vertex -48.5398941 27.99806976 255.3423615
vertex -48.39167023 27.36675262 255.9164124

endloop
endfacet
facet normal -0.8220131993 -0.4765195847 -0.3118068278
outer loop
vertex -48.39167023 27.36675262 255.9164124
vertex -48.5398941 27.99806976 255.3423615
vertex -48.10764313 27.23070526 255.3755493

endloop
endfacet
facet normal -0.2451871336 -0.9628174305 0.1134279445
outer loop
vertex -48.39167023 27.36675262 255.9164124
vertex -48.10764313 27.23070526 255.3755493
vertex -47.81003571 27.26357269 256.2978516

endloop
endfacet
facet normal -0.2787334323 -0.9523453116 0.1238794252
outer loop
vertex -47.81003571 27.26357269 256.2978516
vertex -48.10764313 27.23070526 255.3755493
vertex -47.52433014 27.10765839 255.7420807

endloop
endfacet
facet normal -0.2769096196 -0.9527403712 0.1249277964
outer loop
vertex -47.81003571 27.26357269 256.2978516
vertex -47.52433014 27.10765839 255.7420807
vertex -47.23957062 27.1419754 256.6349792

endloop
endfacet
facet normal -0.27272138 -0.9541147351 0.1236449331
outer loop
vertex -47.23957062 27.1419754 256.6349792
vertex -47.52433014 27.10765839 255.7420807
vertex -46.94159698 26.98555756 256.0852051

endloop
endfacet
facet normal -0.2809563875 -0.9523541927 0.1186807081
outer loop
vertex -47.23957062 27.1419754 256.6349792
vertex -46.94159698 26.98555756 256.0852051
vertex -46.63584137 27.01136017 257.0160828

endloop
endfacet
facet normal -0.2733125985 -0.9548761249 0.1162399352
outer loop
vertex -46.63584137 27.01136017 257.0160828
vertex -46.94159698 26.98555756 256.0852051
vertex -46.3169632 26.85436249 256.4761658

endloop
endfacet
facet normal -0.2777581215 -0.9539412856 0.1133425608
outer loop
vertex -46.63584137 27.01136017 257.0160828
vertex -46.3169632 26.85436249 256.4761658
vertex -46.03888702 26.88565826 257.4210205

endloop
endfacet
facet normal -0.2700433135 -0.956410706 0.111153841
outer loop
vertex -46.03888702 26.88565826 257.4210205
vertex -46.3169632 26.85436249 256.4761658
vertex -45.6987381 26.72838593 256.894165

endloop
endfacet
facet normal -0.2782600522 -0.9547116756 0.1053417847
outer loop
vertex -46.03888702 26.88565826 257.4210205
vertex -45.6987381 26.72838593 256.894165
vertex -45.47202301 26.76729584 257.8456726

endloop
endfacet
facet normal -0.2673171461 -0.9581015706 0.1028730497
outer loop
vertex -45.47202301 26.76729584 257.8456726
vertex -45.6987381 26.72838593 256.894165
vertex -45.10260773 26.60985565 257.3392944

endloop
endfacet
facet normal -0.2808189392 -0.9553257227 0.09216005355
outer loop
vertex -45.47202301 26.76729584 257.8456726
vertex -45.10260773 26.60985565 257.3392944
vertex -44.94580841 26.65581512 258.2934875

endloop
endfacet
facet normal -0.2674555779 -0.9593430758 0.09015759081
outer loop
vertex -44.94580841 26.65581512 258.2934875
vertex -45.10260773 26.60985565 257.3392944
vertex -44.54190826 26.49820709 257.8146057

endloop
endfacet
facet normal -0.2853495479 -0.9555743933 0.07384638488
outer loop
vertex -44.94580841 26.65581512 258.2934875
vertex -44.54189301 26.49819183 257.8146057
vertex -44.46874237 26.5499649 258.7672119

endloop
endfacet
facet normal -0.2693712413 -0.9602751732 0.07287489623
outer loop
vertex -44.46874237 26.5499649 258.7672119
vertex -44.54189301 26.49819183 257.8146057
vertex -44.02623749 26.39221954 258.3242493

endloop
endfacet
facet normal -0.2888585925 -0.9559653997 0.05187294632
outer loop
vertex -44.46874237 26.5499649 258.7672119
vertex -44.02623749 26.39221954 258.3242493
vertex -44.04412079 26.44907379 259.2724304

endloop
endfacet
facet normal -0.2711776197 -0.9610956907 0.05251404271
outer loop
vertex -44.04412079 26.44907379 259.2724304
vertex -44.02623749 26.39221954 258.3242493
vertex -43.56186676 26.29120636 258.8735046

endloop
endfacet
facet normal -0.2888642848 -0.9569160342 0.02948122099
outer loop
vertex -44.04410553 26.44908905 259.2724304
vertex -43.5618515 26.29122162 258.8735352
vertex -43.67139435 26.35330963 259.8154907

endloop
endfacet
facet normal -0.2712712288 -0.9619755149 0.03186065704
outer loop
vertex -43.67139435 26.35330963 259.8154907
vertex -43.5618515 26.29122162 258.8735352
vertex -43.15184784 26.19524384 259.4665527

endloop
endfacet
facet normal -0.2847787738 -0.9585390687 0.01019215118
outer loop
vertex -43.67139435 26.35330963 259.8154907
vertex -43.15184784 26.19524384 259.4665527
vertex -43.3476181 26.26335907 260.4025574

endloop
endfacet
facet normal -0.2694935799 -0.9629046321 0.01370682567
outer loop
vertex -43.3476181 26.26335907 260.4025574
vertex -43.15184784 26.19524384 259.4665527
vertex -42.79714203 26.10504913 260.1043396

endloop
endfacet
facet normal -0.2779057324 -0.9606034756 -0.003042672062
outer loop
vertex -43.3476181 26.26335907 260.4025574
vertex -42.79714203 26.10504913 260.1043396
vertex -43.06572723 26.17980194 261.035614

endloop
endfacet
facet normal -0.2664959431 -0.9638358951 0.0005074431538
outer loop
vertex -43.06572723 26.17980194 261.035614
vertex -42.79714203 26.10504913 260.1043396
vertex -42.49298859 26.0213089 260.7818909

endloop
endfacet
facet normal -0.2696259022 -0.9629387856 -0.007118248846
outer loop
vertex -43.06572723 26.17980194 261.035614
vertex -42.49298859 26.0213089 260.7818909
vertex -42.81645966 26.10501862 261.7103271

endloop
endfacet
facet normal -0.2623793483 -0.9649547338 -0.004411771894
outer loop
vertex -42.81645966 26.10501862 261.7103271
vertex -42.49298859 26.0213089 260.7818909
vertex -42.22905731 25.94629669 261.4920959

endloop
endfacet
facet normal -0.2598775327 -0.9656377435 0.002751900582
outer loop
vertex -42.8164444 26.10503387 261.7103271
vertex -42.22904205 25.94632721 261.4921265
vertex -42.59346771 26.04705048 262.42099

endloop
endfacet
facet normal -0.2557289898 -0.9667379856 0.004498829134
outer loop
vertex -42.59346771 26.04705048 262.42099
vertex -42.22904205 25.94632721 261.4921265
vertex -41.99565887 25.88803864 262.2330017

endloop
endfacet
facet normal -0.2474627644 -0.9683635235 0.03216071427
outer loop
vertex -42.59346771 26.04705048 262.42099
vertex -41.99565887 25.88803864 262.2330017
vertex -42.3892746 26.01952362 263.1633301

endloop
endfacet
facet normal -0.2462032884 -0.9686651826 0.03273623809
outer loop
vertex -42.3892746 26.01952362 263.1633301
vertex -41.99565887 25.88803864 262.2330017
vertex -41.78401947 25.86019135 263.0007019

endloop
endfacet
facet normal -0.2333464473 -0.969019711 0.08093295246
outer loop
vertex -42.3892746 26.01952362 263.1633301
vertex -41.78401947 25.86019135 263.0007019
vertex -42.19713593 26.03731537 263.9303284

endloop
endfacet
facet normal -0.2337238491 -0.9689439535 0.08075081557
outer loop
vertex -42.19713593 26.03731537 263.9303284
vertex -41.78401947 25.86019135 263.0007019
vertex -41.58695221 25.87827301 263.7880554

endloop
endfacet
facet normal -0.2160217017 -0.9645264745 0.1517340839
outer loop
vertex -42.19713593 26.03731537 263.9303284
vertex -41.58695221 25.87827301 263.7880554
vertex -42.00959015 26.11994171 264.7225647

endloop
endfacet
facet normal -0.2173352242 -0.9643325806 0.1510898769
outer loop
vertex -42.00959015 26.11994171 264.7225647
vertex -41.58695221 25.87827301 263.7880554
vertex -41.39609528 25.96283722 264.6023254

endloop
endfacet
facet normal -0.1953556836 -0.9498233199 0.2442780286
outer loop
vertex -42.00959015 26.11994171 264.7225647
vertex -41.39609528 25.96283722 264.6023254
vertex -41.82794952 26.28794098 265.5210571

endloop
endfacet
facet normal -0.1965133548 -0.949732542 0.2437017262
outer loop
vertex -41.82794952 26.28794098 265.5210571
vertex -41.39609528 25.96283722 264.6023254
vertex -41.21067047 26.1344223 265.4205322

endloop
endfacet
facet normal -0.1921476871 -0.9452848434 0.2636587024
outer loop
vertex -41.82796478 26.28794098 265.5210876
vertex -41.21065521 26.1344223 265.4205627
vertex -41.58562469 26.47301483 266.3612366

endloop
endfacet
facet normal -0.1627547741 -0.9472532272 0.2760837674
outer loop
vertex -41.58562469 26.47301483 266.3612366
vertex -41.21065521 26.1344223 265.4205627
vertex -40.98114777 26.34148407 266.2662964

endloop
endfacet
facet normal 0.03387484327 -0.4778981805 0.8777618408
outer loop
vertex -41.58562469 26.47301483 266.3612366
vertex -40.98114777 26.34148407 266.2662964
vertex -41.06499481 27.08876801 266.6763916

endloop
endfacet
facet normal -nan(ind) -nan(ind) -nan(ind)
outer loop
vertex -41.06499481 27.08876801 266.6763916
vertex -40.98114777 26.34148407 266.2662964
vertex -41.06499481 27.08876801 266.6763916

endloop
endfacet
endsolid
