solid 
facet normal -nan(ind) -nan(ind) -nan(ind)
outer loop
vertex -102.1288986 38.30156708 266.4890747
vertex -102.1288986 38.30156708 266.4890747
vertex -102.1539688 38.0096817 266.1940613

endloop
endfacet
facet normal -0.5275859237 0.625872016 -0.5744016767
outer loop
vertex -102.1539688 38.0096817 266.1940613
vertex -102.1288986 38.30156708 266.4890747
vertex -101.9232178 38.17417145 266.1613464

endloop
endfacet
facet normal -0.1085875183 -0.04517675936 -0.993059814
outer loop
vertex -102.1539688 38.0096817 266.1940613
vertex -101.9232178 38.17417145 266.1613464
vertex -101.983902 37.75653839 266.1869812

endloop
endfacet
facet normal -0.1027753279 -0.04605678096 -0.9936378002
outer loop
vertex -101.983902 37.75653839 266.1869812
vertex -101.9232178 38.17417145 266.1613464
vertex -101.7300873 37.92952728 266.15271

endloop
endfacet
facet normal -0.1075163409 -0.03906056285 -0.9934356809
outer loop
vertex -101.983902 37.75653839 266.1869812
vertex -101.7300873 37.92952728 266.15271
vertex -101.8152084 37.49633026 266.1789551

endloop
endfacet
facet normal -0.1070677638 -0.0391514264 -0.9934805632
outer loop
vertex -101.8152084 37.49633026 266.1789551
vertex -101.7300873 37.92952728 266.15271
vertex -101.5537796 37.67350006 266.1437988

endloop
endfacet
facet normal -0.09087336063 -0.06312289834 -0.9938599467
outer loop
vertex -101.8152084 37.49633026 266.1789551
vertex -101.5537796 37.67350006 266.1437988
vertex -101.6173706 37.21295929 266.1788635

endloop
endfacet
facet normal -0.08560111374 -0.06388282031 -0.9942793846
outer loop
vertex -101.6173706 37.21295929 266.1788635
vertex -101.5537796 37.67350006 266.1437988
vertex -101.3582535 37.39440155 266.1448975

endloop
endfacet
facet normal -0.08475462347 -0.06509060413 -0.9942735434
outer loop
vertex -101.6173706 37.21295929 266.1788635
vertex -101.3582535 37.39440155 266.1448975
vertex -101.4091797 36.92229462 266.1801453

endloop
endfacet
facet normal -0.08007958531 -0.06562122703 -0.9946261048
outer loop
vertex -101.4091797 36.92229462 266.1801453
vertex -101.3582535 37.39440155 266.1448975
vertex -101.1516342 37.10617828 266.1472778

endloop
endfacet
facet normal -0.08045501262 -0.06509616226 -0.9946303368
outer loop
vertex -101.4091797 36.92229462 266.1801453
vertex -101.1516342 37.10617828 266.1472778
vertex -101.1982117 36.63077545 266.1821594

endloop
endfacet
facet normal -0.07331092656 -0.06583304703 -0.9951339364
outer loop
vertex -101.1982117 36.63077545 266.1821594
vertex -101.1516342 37.10617828 266.1472778
vertex -100.9407043 36.81501007 266.151001

endloop
endfacet
facet normal -0.07364711165 -0.06536418945 -0.9951400161
outer loop
vertex -101.1982117 36.63077545 266.1821594
vertex -100.9407043 36.81501007 266.151001
vertex -100.9858017 36.34127045 266.1854553

endloop
endfacet
facet normal -0.06083082035 -0.0666410327 -0.9959209561
outer loop
vertex -100.9858017 36.34127045 266.1854553
vertex -100.9407043 36.81501007 266.151001
vertex -100.728775 36.52669525 266.1573486

endloop
endfacet
facet normal -0.06091381982 -0.06636702269 -0.9959341884
outer loop
vertex -100.9858017 36.34128571 266.1854553
vertex -100.7287674 36.52669525 266.1573792
vertex -100.7706528 36.05313873 266.1914978

endloop
endfacet
facet normal -0.0464874804 -0.06769260764 -0.996622622
outer loop
vertex -100.7706528 36.05313873 266.1914978
vertex -100.7287674 36.52669525 266.1573792
vertex -100.514534 36.24028778 266.1668396

endloop
endfacet
facet normal -0.04775242507 -0.06596883386 -0.996678412
outer loop
vertex -100.7706528 36.05313873 266.1914978
vertex -100.514534 36.24028778 266.1668396
vertex -100.5517426 35.76465607 266.2001038

endloop
endfacet
facet normal -0.02596735768 -0.06772118062 -0.9973662496
outer loop
vertex -100.5517426 35.76465607 266.2001038
vertex -100.514534 36.24028778 266.1668396
vertex -100.2955322 35.95226288 266.1806946

endloop
endfacet
facet normal -0.02706002444 -0.06624587625 -0.9974363446
outer loop
vertex -100.5517349 35.76468658 266.2001038
vertex -100.295517 35.95226288 266.1806946
vertex -100.3303223 35.47620392 266.2132568

endloop
endfacet
facet normal 0.004161037505 -0.06854239106 -0.9976395369
outer loop
vertex -100.3303223 35.47620392 266.2132568
vertex -100.295517 35.95226288 266.1806946
vertex -100.0736008 35.66368866 266.2014465

endloop
endfacet
facet normal 0.002613479504 -0.06643265486 -0.9977874756
outer loop
vertex -100.3303223 35.47620392 266.2132568
vertex -100.0736008 35.66368866 266.2014465
vertex -100.1091156 35.1878891 266.2330322

endloop
endfacet
facet normal 0.03472573683 -0.06877912581 -0.9970273376
outer loop
vertex -100.1091156 35.1878891 266.2330322
vertex -100.0736008 35.66368866 266.2014465
vertex -99.85225677 35.37552643 266.2290344

endloop
endfacet
facet normal 0.03250921518 -0.06575084478 -0.9973063469
outer loop
vertex -100.1091156 35.1878891 266.2330322
vertex -99.85225677 35.37552643 266.2290344
vertex -99.88715363 34.899086 266.2593079

endloop
endfacet
facet normal 0.06703158468 -0.06815957278 -0.9954200983
outer loop
vertex -99.88715363 34.899086 266.2593079
vertex -99.85225677 35.37552643 266.2290344
vertex -99.63031769 35.08660126 266.2637634

endloop
endfacet
facet normal 0.06486798823 -0.06518799812 -0.9957623482
outer loop
vertex -99.88715363 34.899086 266.2593079
vertex -99.63031769 35.08660126 266.2637634
vertex -99.66204834 34.60984039 266.2929077

endloop
endfacet
facet normal 0.1138693318 -0.0681675896 -0.9911543727
outer loop
vertex -99.66204834 34.60984039 266.2929077
vertex -99.63031769 35.08660126 266.2637634
vertex -99.40547943 34.79703522 266.3095093

endloop
endfacet
facet normal 0.1132164896 -0.06726618856 -0.9912907481
outer loop
vertex -99.66204071 34.60987091 266.2929382
vertex -99.4054718 34.79705048 266.3095398
vertex -99.43965912 34.32080841 266.3379517

endloop
endfacet
facet normal 0.1598343998 -0.07021611184 -0.9846434593
outer loop
vertex -99.43965912 34.32080841 266.3379517
vertex -99.4054718 34.79705048 266.3095398
vertex -99.18418121 34.50821686 266.3660583

endloop
endfacet
facet normal 0.1573449522 -0.06672596186 -0.9852868319
outer loop
vertex -99.43965912 34.32080841 266.3379517
vertex -99.18418121 34.50821686 266.3660583
vertex -99.22673035 34.03160858 266.3915405

endloop
endfacet
facet normal 0.1789662242 -0.06845217943 -0.9814710617
outer loop
vertex -99.22673035 34.03160858 266.3915405
vertex -99.18418121 34.50821686 266.3660583
vertex -98.97190857 34.2191391 266.4249268

endloop
endfacet
facet normal 0.1763031781 -0.06470254809 -0.9822071195
outer loop
vertex -99.22673035 34.03160858 266.3915405
vertex -98.97190857 34.2191391 266.4249268
vertex -99.01113892 33.7430191 266.4492493

endloop
endfacet
facet normal 0.2100200504 -0.06713241339 -0.9753895998
outer loop
vertex -99.01113892 33.7430191 266.4492493
vertex -98.97190857 34.2191391 266.4249268
vertex -98.75792694 33.93082428 266.4908447

endloop
endfacet
facet normal 0.2089755386 -0.06565213948 -0.9757145643
outer loop
vertex -99.01113892 33.7430191 266.4492493
vertex -98.75792694 33.93082428 266.4908447
vertex -98.79063416 33.46070099 266.5154724

endloop
endfacet
facet normal 0.273935765 -0.06930886954 -0.9592473507
outer loop
vertex -98.79063416 33.46070099 266.5154724
vertex -98.75792694 33.93082428 266.4908447
vertex -98.54205322 33.64955902 266.5728149

endloop
endfacet
facet normal 0.2705386579 -0.06444202363 -0.9605498314
outer loop
vertex -98.79063416 33.46070099 266.5154724
vertex -98.54205322 33.64955902 266.5728149
vertex -98.57357788 33.17150116 266.5960083

endloop
endfacet
facet normal 0.335377872 -0.0677036494 -0.9396477938
outer loop
vertex -98.57357788 33.17150116 266.5960083
vertex -98.54205322 33.64955902 266.5728149
vertex -98.33573914 33.3551712 266.6676636

endloop
endfacet
facet normal 0.3067507446 -0.02585863322 -0.9514385462
outer loop
vertex -98.57357025 33.1714859 266.5960083
vertex -98.33573914 33.35518646 266.6676941
vertex -98.35005951 32.83385468 266.6772461

endloop
endfacet
facet normal 0.3299225867 -0.02635225281 -0.9436401129
outer loop
vertex -98.35005951 32.83385468 266.6772461
vertex -98.33573914 33.35518646 266.6676941
vertex -98.13052368 33.00119781 266.7493286

endloop
endfacet
facet normal 0.6284211874 -0.6248585582 -0.4632909894
outer loop
vertex -98.35005951 32.83385468 266.6772461
vertex -98.13052368 33.00119781 266.7493286
vertex -98.19090271 32.71126556 267.0584717

endloop
endfacet
facet normal 0 0.7297706604 0.6836920381
outer loop
vertex -98.19090271 32.71126556 267.0584717
vertex -98.13052368 33.00119781 266.7493286
vertex -98.19091034 32.71126556 267.0584717

endloop
endfacet
facet normal 0.8470087051 -0 0.5315790176
outer loop
vertex -102.1288986 38.30156708 266.4890747
vertex -102.1288986 38.30155182 266.4890747
vertex -101.9232178 38.17417145 266.1613464

endloop
endfacet
facet normal -0.2558131218 0.8359862566 -0.4854756892
outer loop
vertex -101.9232178 38.17417145 266.1613464
vertex -102.1288986 38.30155182 266.4890747
vertex -101.8006134 38.26221466 266.2483521

endloop
endfacet
facet normal 0.377949208 0.3289176226 -0.8654291034
outer loop
vertex -101.9232178 38.17417145 266.1613464
vertex -101.8006134 38.26221466 266.2483521
vertex -101.7300873 37.92952728 266.15271

endloop
endfacet
facet normal 0.416967243 0.33167395 -0.8462450504
outer loop
vertex -101.7300873 37.92952728 266.15271
vertex -101.8006134 38.26221466 266.2483521
vertex -101.6003799 38.01811981 266.2513428

endloop
endfacet
facet normal 0.4241456687 0.3215446472 -0.8465870023
outer loop
vertex -101.7300873 37.92952728 266.15271
vertex -101.6003799 38.01811981 266.2513428
vertex -101.5537796 37.67350006 266.1437988

endloop
endfacet
facet normal 0.4252164364 0.3215242028 -0.846057415
outer loop
vertex -101.5537796 37.67350006 266.1437988
vertex -101.6003799 38.01811981 266.2513428
vertex -101.4202805 37.7641983 266.2453613

endloop
endfacet
facet normal 0.437782228 0.3033625185 -0.8463556767
outer loop
vertex -101.5537796 37.67350006 266.1437988
vertex -101.4202805 37.7641983 266.2453613
vertex -101.3582535 37.39440155 266.1448975

endloop
endfacet
facet normal 0.4417599738 0.3034581542 -0.8442518711
outer loop
vertex -101.3582535 37.39440155 266.1448975
vertex -101.4202805 37.7641983 266.2453613
vertex -101.226532 37.48732758 266.2472229

endloop
endfacet
facet normal 0.4388386607 0.3076186776 -0.8442697525
outer loop
vertex -101.3582535 37.39440155 266.1448975
vertex -101.226532 37.48732758 266.2472229
vertex -101.1516342 37.10617828 266.1472778

endloop
endfacet
facet normal 0.4419642985 0.3077886403 -0.8425756693
outer loop
vertex -101.1516342 37.10617828 266.1472778
vertex -101.226532 37.48732758 266.2472229
vertex -101.0212021 37.20034027 266.2500916

endloop
endfacet
facet normal 0.4412070513 0.3088478446 -0.8425849676
outer loop
vertex -101.1516342 37.10617828 266.1472778
vertex -101.0212021 37.20034027 266.2500916
vertex -100.9407043 36.81501007 266.151001

endloop
endfacet
facet normal 0.446380049 0.3091939092 -0.8397284746
outer loop
vertex -100.9407043 36.81501007 266.151001
vertex -101.0212021 37.20034027 266.2500916
vertex -100.8110809 36.9093399 266.2546387

endloop
endfacet
facet normal 0.4461755753 0.3094789386 -0.8397321701
outer loop
vertex -100.9407043 36.81501007 266.151001
vertex -100.8110809 36.9093399 266.2546387
vertex -100.728775 36.52669525 266.1573486

endloop
endfacet
facet normal 0.4560116529 0.3101806939 -0.8341710567
outer loop
vertex -100.728775 36.52669525 266.1573486
vertex -100.8110809 36.9093399 266.2546387
vertex -100.6008377 36.62158966 266.2625732

endloop
endfacet
facet normal 0.4543452263 0.3122933507 -0.8342921138
outer loop
vertex -100.7287674 36.52669525 266.1573792
vertex -100.6008301 36.62158966 266.2625732
vertex -100.514534 36.24028778 266.1668396

endloop
endfacet
facet normal 0.4653072953 0.3131687939 -0.8278976083
outer loop
vertex -100.514534 36.24028778 266.1668396
vertex -100.6008301 36.62158966 266.2625732
vertex -100.3887253 36.33605194 266.2737732

endloop
endfacet
facet normal 0.4649282694 0.3136859536 -0.8279147744
outer loop
vertex -100.514534 36.24028778 266.1668396
vertex -100.3887253 36.33605194 266.2737732
vertex -100.2955322 35.95226288 266.1806946

endloop
endfacet
facet normal 0.4808178544 0.3151908815 -0.818210721
outer loop
vertex -100.2955322 35.95226288 266.1806946
vertex -100.3887253 36.33605194 266.2737732
vertex -100.1721268 36.04825592 266.2901917

endloop
endfacet
facet normal 0.482899487 0.3125296831 -0.818005681
outer loop
vertex -100.295517 35.95226288 266.1806946
vertex -100.1721191 36.04827118 266.2902222
vertex -100.0736008 35.66368866 266.2014465

endloop
endfacet
facet normal 0.505137682 0.3148879409 -0.80354321
outer loop
vertex -100.0736008 35.66368866 266.2014465
vertex -100.1721191 36.04827118 266.2902222
vertex -99.95345306 35.75963593 266.3145752

endloop
endfacet
facet normal 0.506914854 0.3124602139 -0.8033716083
outer loop
vertex -100.0736008 35.66368866 266.2014465
vertex -99.95345306 35.75963593 266.3145752
vertex -99.85225677 35.37552643 266.2290344

endloop
endfacet
facet normal 0.5289214253 0.3148577213 -0.7881032228
outer loop
vertex -99.85225677 35.37552643 266.2290344
vertex -99.95345306 35.75963593 266.3145752
vertex -99.73563385 35.47156525 266.3456726

endloop
endfacet
facet normal 0.5304524899 0.312762171 -0.7879086137
outer loop
vertex -99.85225677 35.37552643 266.2290344
vertex -99.73563385 35.47156525 266.3456726
vertex -99.63031769 35.08660126 266.2637634

endloop
endfacet
facet normal 0.5542128682 0.3155076206 -0.7702617049
outer loop
vertex -99.63031769 35.08660126 266.2637634
vertex -99.73563385 35.47156525 266.3456726
vertex -99.51761627 35.18262482 266.3841858

endloop
endfacet
facet normal 0.557364881 0.3111689985 -0.7697520852
outer loop
vertex -99.63031769 35.08660126 266.2637634
vertex -99.51761627 35.18262482 266.3841858
vertex -99.40547943 34.79703522 266.3095093

endloop
endfacet
facet normal 0.5900055766 0.3155186474 -0.7431967258
outer loop
vertex -99.40547943 34.79703522 266.3095093
vertex -99.51761627 35.18262482 266.3841858
vertex -99.29846954 34.89287567 266.4351501

endloop
endfacet
facet normal 0.5939667821 0.3097870648 -0.7424523234
outer loop
vertex -99.4054718 34.79705048 266.3095398
vertex -99.29845428 34.89290619 266.4351501
vertex -99.18418121 34.50821686 266.3660583

endloop
endfacet
facet normal 0.6239697933 0.313883692 -0.7156386971
outer loop
vertex -99.18418121 34.50821686 266.3660583
vertex -99.29845428 34.89290619 266.4351501
vertex -99.08298492 34.60414886 266.4963684

endloop
endfacet
facet normal 0.6246227622 0.3129666448 -0.715470612
outer loop
vertex -99.18418121 34.50821686 266.3660583
vertex -99.08298492 34.60414886 266.4963684
vertex -98.97190857 34.2191391 266.4249268

endloop
endfacet
facet normal 0.6382206082 0.3145156503 -0.7026765943
outer loop
vertex -98.97190857 34.2191391 266.4249268
vertex -99.08298492 34.60414886 266.4963684
vertex -98.87345123 34.31511688 266.557312

endloop
endfacet
facet normal 0.6388952732 0.3135642707 -0.7024886012
outer loop
vertex -98.97190857 34.2191391 266.4249268
vertex -98.87345123 34.31511688 266.557312
vertex -98.75792694 33.93082428 266.4908447

endloop
endfacet
facet normal 0.6595696807 0.3162167072 -0.6818906665
outer loop
vertex -98.75792694 33.93082428 266.4908447
vertex -98.87345123 34.31511688 266.557312
vertex -98.66400146 34.02696991 266.6262817

endloop
endfacet
facet normal 0.6633890867 0.310783416 -0.6806825399
outer loop
vertex -98.75792694 33.93082428 266.4908447
vertex -98.66400146 34.02696991 266.6262817
vertex -98.54205322 33.64955902 266.5728149

endloop
endfacet
facet normal 0.7012700438 0.3170495033 -0.6385139823
outer loop
vertex -98.54205322 33.64955902 266.5728149
vertex -98.66400146 34.02696991 266.6262817
vertex -98.45768738 33.74628448 266.713501

endloop
endfacet
facet normal 0.7149062157 0.2970882058 -0.6329672933
outer loop
vertex -98.54205322 33.64955902 266.5728149
vertex -98.45768738 33.74628448 266.713501
vertex -98.33573914 33.3551712 266.6676636

endloop
endfacet
facet normal 0.7509620786 0.3029159904 -0.5867689252
outer loop
vertex -98.33573914 33.3551712 266.6676636
vertex -98.45768738 33.74628448 266.713501
vertex -98.26268005 33.44928741 266.8097534

endloop
endfacet
facet normal 0.7522428632 0.3009171188 -0.5861566067
outer loop
vertex -98.33573914 33.35518646 266.6676941
vertex -98.26268768 33.44928741 266.8097534
vertex -98.13052368 33.00119781 266.7493286

endloop
endfacet
facet normal 0.742261827 0.2997497618 -0.5993308425
outer loop
vertex -98.13052368 33.00119781 266.7493286
vertex -98.26268768 33.44928741 266.8097534
vertex -98.06019592 33.09076691 266.8812256

endloop
endfacet
facet normal 0.8927707076 -0.4022515416 -0.2028648406
outer loop
vertex -98.13052368 33.00119781 266.7493286
vertex -98.06019592 33.09076691 266.8812256
vertex -98.19091034 32.71126556 267.0584717

endloop
endfacet
facet normal -0.8050279617 0 -0.5932368636
outer loop
vertex -98.19091034 32.71126556 267.0584717
vertex -98.06019592 33.09076691 266.8812256
vertex -98.19091034 32.71125031 267.0584717

endloop
endfacet
facet normal -0.364182353 0.702495575 -0.6114499569
outer loop
vertex -102.1288986 38.30155182 266.4890747
vertex -102.128891 38.30158234 266.4891052
vertex -101.8006134 38.26221466 266.2483521

endloop
endfacet
facet normal -0.09002749622 0.9560365081 -0.2790864408
outer loop
vertex -101.8006134 38.26221466 266.2483521
vertex -102.128891 38.30158234 266.4891052
vertex -101.7335434 38.31104279 266.3939819

endloop
endfacet
facet normal 0.6749764085 0.5476315022 -0.4944760799
outer loop
vertex -101.8006134 38.26221466 266.2483521
vertex -101.7335434 38.31104279 266.3939819
vertex -101.6003799 38.01811981 266.2513428

endloop
endfacet
facet normal 0.7055854201 0.5426650643 -0.45570153
outer loop
vertex -101.6003799 38.01811981 266.2513428
vertex -101.7335434 38.31104279 266.3939819
vertex -101.5330734 38.06435394 266.410614

endloop
endfacet
facet normal 0.7207719684 0.5219678283 -0.4561111033
outer loop
vertex -101.6003799 38.01811981 266.2513428
vertex -101.5330734 38.06435394 266.410614
vertex -101.4202805 37.7641983 266.2453613

endloop
endfacet
facet normal 0.7213413119 0.5217949152 -0.4554083645
outer loop
vertex -101.4202805 37.7641983 266.2453613
vertex -101.5330734 38.06435394 266.410614
vertex -101.3510895 37.81147003 266.4091187

endloop
endfacet
facet normal 0.7308100462 0.5083431005 -0.4555260241
outer loop
vertex -101.4202805 37.7641983 266.2453613
vertex -101.3510895 37.81147003 266.4091187
vertex -101.226532 37.48732758 266.2472229

endloop
endfacet
facet normal 0.7334769368 0.5076220036 -0.4520303607
outer loop
vertex -101.226532 37.48732758 266.2472229
vertex -101.3510895 37.81147003 266.4091187
vertex -101.1587906 37.53575897 266.4115295

endloop
endfacet
facet normal 0.7275627255 0.5160282254 -0.4520699084
outer loop
vertex -101.226532 37.48732758 266.2472229
vertex -101.1587906 37.53575897 266.4115295
vertex -101.0212021 37.20034027 266.2500916

endloop
endfacet
facet normal 0.7298362255 0.5154885054 -0.4490108788
outer loop
vertex -101.0212021 37.20034027 266.2500916
vertex -101.1587906 37.53575897 266.4115295
vertex -100.9545975 37.24939728 266.4146729

endloop
endfacet
facet normal 0.7277222276 0.5184460878 -0.4490368664
outer loop
vertex -101.0212021 37.20034027 266.2500916
vertex -100.9545975 37.24939728 266.4146729
vertex -100.8110809 36.9093399 266.2546387

endloop
endfacet
facet normal 0.7312870622 0.5176466107 -0.4441410303
outer loop
vertex -100.8110809 36.9093399 266.2546387
vertex -100.9545975 37.24939728 266.4146729
vertex -100.745636 36.95848846 266.4196777

endloop
endfacet
facet normal 0.7292057872 0.5205425024 -0.4441781938
outer loop
vertex -100.8110809 36.9093399 266.2546387
vertex -100.745636 36.95848846 266.4196777
vertex -100.6008377 36.62158966 266.2625732

endloop
endfacet
facet normal 0.7355385423 0.5191265941 -0.4353051484
outer loop
vertex -100.6008377 36.62158966 266.2625732
vertex -100.745636 36.95848846 266.4196777
vertex -100.5376129 36.67101288 266.4283447

endloop
endfacet
facet normal 0.7307546139 0.5257444978 -0.4354199767
outer loop
vertex -100.6008301 36.62158966 266.2625732
vertex -100.5376129 36.67101288 266.4283447
vertex -100.3887253 36.33605194 266.2737732

endloop
endfacet
facet normal 0.7377756238 0.5242043734 -0.4253198206
outer loop
vertex -100.3887253 36.33605194 266.2737732
vertex -100.5376129 36.67101288 266.4283447
vertex -100.3281479 36.38596344 266.4403687

endloop
endfacet
facet normal 0.7345693111 0.528572917 -0.4254627228
outer loop
vertex -100.3887253 36.33605194 266.2737732
vertex -100.3281479 36.38596344 266.4403687
vertex -100.1721268 36.04825592 266.2901917

endloop
endfacet
facet normal 0.744621098 0.5264803767 -0.4103142321
outer loop
vertex -100.1721268 36.04825592 266.2901917
vertex -100.3281479 36.38596344 266.4403687
vertex -100.1150742 36.09830475 266.4579468

endloop
endfacet
facet normal 0.7432134748 0.5284243822 -0.4103673697
outer loop
vertex -100.1721191 36.04827118 266.2902222
vertex -100.1150665 36.09830475 266.4579773
vertex -99.95345306 35.75963593 266.3145752

endloop
endfacet
facet normal 0.7570704222 0.5255939364 -0.3880662024
outer loop
vertex -99.95345306 35.75963593 266.3145752
vertex -100.1150665 36.09830475 266.4579773
vertex -99.90135956 35.80965424 266.4839478

endloop
endfacet
facet normal 0.754742682 0.5287685394 -0.3882878125
outer loop
vertex -99.95345306 35.75963593 266.3145752
vertex -99.90135956 35.80965424 266.4839478
vertex -99.73563385 35.47156525 266.3456726

endloop
endfacet
facet normal 0.7683662176 0.5258495212 -0.3648226857
outer loop
vertex -99.73563385 35.47156525 266.3456726
vertex -99.90135956 35.80965424 266.4839478
vertex -99.68872833 35.52161407 266.5166016

endloop
endfacet
facet normal 0.7658937573 0.529229641 -0.365133971
outer loop
vertex -99.73563385 35.47156525 266.3456726
vertex -99.68872833 35.52161407 266.5166016
vertex -99.51761627 35.18262482 266.3841858

endloop
endfacet
facet normal 0.7797579169 0.5261486173 -0.3393306434
outer loop
vertex -99.51761627 35.18262482 266.3841858
vertex -99.68872833 35.52161407 266.5166016
vertex -99.47637177 35.23264313 266.5565186

endloop
endfacet
facet normal 0.7779406905 0.528645575 -0.3396205008
outer loop
vertex -99.51761627 35.18262482 266.3841858
vertex -99.47637177 35.23264313 266.5565186
vertex -99.29846954 34.89287567 266.4351501

endloop
endfacet
facet normal 0.7959209085 0.5246501565 -0.3020798266
outer loop
vertex -99.29846954 34.89287567 266.4351501
vertex -99.47637177 35.23264313 266.5565186
vertex -99.26533508 34.94281769 266.6091919

endloop
endfacet
facet normal 0.7935347557 0.5279934406 -0.3025318086
outer loop
vertex -99.29845428 34.89290619 266.4351501
vertex -99.26531982 34.94284821 266.6092224
vertex -99.08298492 34.60414886 266.4963684

endloop
endfacet
facet normal 0.8091350198 0.52412045 -0.2657033801
outer loop
vertex -99.08298492 34.60414886 266.4963684
vertex -99.26531982 34.94284821 266.6092224
vertex -99.05776215 34.6541214 266.6717529

endloop
endfacet
facet normal 0.8061878681 0.5282617211 -0.2664594948
outer loop
vertex -99.08298492 34.60414886 266.4963684
vertex -99.05776215 34.6541214 266.6717529
vertex -98.87345123 34.31511688 266.557312

endloop
endfacet
facet normal 0.8130421042 0.5261679292 -0.2492183596
outer loop
vertex -98.87345123 34.31511688 266.557312
vertex -99.05776215 34.6541214 266.6717529
vertex -98.85188293 34.36511993 266.7332458

endloop
endfacet
facet normal 0.8106932044 0.5294730663 -0.249869734
outer loop
vertex -98.87345123 34.31511688 266.557312
vertex -98.85188293 34.36511993 266.7332458
vertex -98.66400146 34.02696991 266.6262817

endloop
endfacet
facet normal 0.8205314279 0.5263830423 -0.2228205502
outer loop
vertex -98.66400146 34.02696991 266.6262817
vertex -98.85188293 34.36511993 266.7332458
vertex -98.64823914 34.07707977 266.8027039

endloop
endfacet
facet normal 0.8171967268 0.53110677 -0.2238642871
outer loop
vertex -98.66400146 34.02696991 266.6262817
vertex -98.64823914 34.07707977 266.8027039
vertex -98.45768738 33.74628448 266.713501

endloop
endfacet
facet normal 0.8335537314 0.525834322 -0.1693710983
outer loop
vertex -98.45768738 33.74628448 266.713501
vertex -98.64823914 34.07707977 266.8027039
vertex -98.45359039 33.79668427 266.8901367

endloop
endfacet
facet normal 0.8481454849 0.5039160848 -0.1634555757
outer loop
vertex -98.45768738 33.74628448 266.713501
vertex -98.45359039 33.79668427 266.8901367
vertex -98.26268005 33.44928741 266.8097534

endloop
endfacet
facet normal 0.8608668447 0.4976408482 -0.1061225608
outer loop
vertex -98.26268005 33.44928741 266.8097534
vertex -98.45359039 33.79668427 266.8901367
vertex -98.2698822 33.49840546 266.9816589

endloop
endfacet
facet normal 0.8747638464 0.4743491709 -0.09889953583
outer loop
vertex -98.26268768 33.44928741 266.8097534
vertex -98.2698822 33.4983902 266.9816284
vertex -98.06019592 33.09076691 266.8812256

endloop
endfacet
facet normal 0.8702609539 0.4774873257 -0.1210443005
outer loop
vertex -98.06019592 33.09076691 266.8812256
vertex -98.2698822 33.4983902 266.9816284
vertex -98.06516266 33.14040375 267.0413208

endloop
endfacet
facet normal 0.9545254111 -0.2750965357 0.1149053574
outer loop
vertex -98.06019592 33.09076691 266.8812256
vertex -98.06516266 33.14040375 267.0413208
vertex -98.19091034 32.71125031 267.0584717

endloop
endfacet
facet normal 0.684774518 -0.2282581776 -0.6920852661
outer loop
vertex -98.19091034 32.71125031 267.0584717
vertex -98.06516266 33.14040375 267.0413208
vertex -98.19089508 32.71129608 267.0584717

endloop
endfacet
facet normal 0.1223904714 -0.8996043801 0.4192045629
outer loop
vertex -102.128891 38.30158234 266.4891052
vertex -102.1288986 38.30156708 266.4890747
vertex -101.7335434 38.31104279 266.3939819

endloop
endfacet
facet normal -0.02704041079 0.9995520711 -0.01282016374
outer loop
vertex -101.7335434 38.31104279 266.3939819
vertex -102.1288986 38.30156708 266.4890747
vertex -101.7318878 38.31343842 266.5772705

endloop
endfacet
facet normal 0.7764723301 0.6299667954 -0.01524742227
outer loop
vertex -101.7335434 38.31104279 266.3939819
vertex -101.7318878 38.31343842 266.5772705
vertex -101.5330734 38.06435394 266.410614

endloop
endfacet
facet normal 0.790936172 0.6111568213 0.03012073226
outer loop
vertex -101.5330734 38.06435394 266.410614
vertex -101.7318878 38.31343842 266.5772705
vertex -101.5381317 38.06134796 266.6044312

endloop
endfacet
facet normal 0.8113888502 0.5837244987 0.03022902831
outer loop
vertex -101.5330734 38.06435394 266.410614
vertex -101.5381317 38.06134796 266.6044312
vertex -101.3510895 37.81147003 266.4091187

endloop
endfacet
facet normal 0.8117071986 0.5832326412 0.03116325475
outer loop
vertex -101.3510895 37.81147003 266.4091187
vertex -101.5381317 38.06134796 266.6044312
vertex -101.3564453 37.80828094 266.6083069

endloop
endfacet
facet normal 0.8196801543 0.5719712377 0.03119731322
outer loop
vertex -101.3510895 37.81147003 266.4091187
vertex -101.3564453 37.80828094 266.6083069
vertex -101.1587906 37.53575897 266.4115295

endloop
endfacet
facet normal 0.8208558559 0.570060432 0.0350246802
outer loop
vertex -101.1587906 37.53575897 266.4115295
vertex -101.3564453 37.80828094 266.6083069
vertex -101.1650085 37.53246307 266.6109009

endloop
endfacet
facet normal 0.8135256767 0.5804765821 0.03496821225
outer loop
vertex -101.1587906 37.53575897 266.4115295
vertex -101.1650085 37.53246307 266.6109009
vertex -100.9545975 37.24939728 266.4146729

endloop
endfacet
facet normal 0.8144913316 0.5789129138 0.03825924918
outer loop
vertex -100.9545975 37.24939728 266.4146729
vertex -101.1650085 37.53246307 266.6109009
vertex -100.961586 37.2460556 266.6140137

endloop
endfacet
facet normal 0.8112811446 0.5834055543 0.03822202981
outer loop
vertex -100.9545975 37.24939728 266.4146729
vertex -100.961586 37.2460556 266.6140137
vertex -100.745636 36.95848846 266.4196777

endloop
endfacet
facet normal 0.8128241897 0.5808683038 0.04369109124
outer loop
vertex -100.745636 36.95848846 266.4196777
vertex -100.961586 37.2460556 266.6140137
vertex -100.7539597 36.95514679 266.6189575

endloop
endfacet
facet normal 0.8087455034 0.5865393877 0.04361584038
outer loop
vertex -100.745636 36.95848846 266.4196777
vertex -100.7539597 36.95514679 266.6189575
vertex -100.5376129 36.67101288 266.4283447

endloop
endfacet
facet normal 0.8114460707 0.5819746256 0.0534853898
outer loop
vertex -100.5376129 36.67101288 266.4283447
vertex -100.7539597 36.95514679 266.6189575
vertex -100.5483475 36.6676712 266.6275635

endloop
endfacet
facet normal 0.8036077023 0.5927689075 0.05328946188
outer loop
vertex -100.5376129 36.67101288 266.4283447
vertex -100.5483475 36.66765594 266.6275635
vertex -100.3281479 36.38596344 266.4403687

endloop
endfacet
facet normal 0.8065366745 0.587664187 0.06441645324
outer loop
vertex -100.3281479 36.38596344 266.4403687
vertex -100.5483475 36.66765594 266.6275635
vertex -100.3415985 36.38260651 266.6394043

endloop
endfacet
facet normal 0.8000341058 0.5965176225 0.06412633508
outer loop
vertex -100.3281479 36.38596344 266.4403687
vertex -100.3415985 36.38260651 266.6394043
vertex -100.1150742 36.09830475 266.4579468

endloop
endfacet
facet normal 0.804065764 0.5890069604 0.08092664182
outer loop
vertex -100.1150742 36.09830475 266.4579468
vertex -100.3415985 36.38260651 266.6394043
vertex -100.1325912 36.0949173 266.6566467

endloop
endfacet
facet normal 0.7976181507 0.5977699161 0.08047702163
outer loop
vertex -100.1150665 36.09830475 266.4579773
vertex -100.132576 36.0949173 266.6566772
vertex -99.90135956 35.80965424 266.4839478

endloop
endfacet
facet normal 0.802705586 0.5870655179 0.1049654707
outer loop
vertex -99.90135956 35.80965424 266.4839478
vertex -100.132576 36.0949173 266.6566772
vertex -99.92475891 35.80623627 266.6820068

endloop
endfacet
facet normal 0.7944751978 0.598292768 0.1041868553
outer loop
vertex -99.90135956 35.80965424 266.4839478
vertex -99.92475891 35.80623627 266.6820068
vertex -99.68872833 35.52161407 266.5166016

endloop
endfacet
facet normal 0.7988983989 0.5874262452 0.1291972399
outer loop
vertex -99.68872833 35.52161407 266.5166016
vertex -99.92475891 35.80623627 266.6820068
vertex -99.71811676 35.51819611 266.7138672

endloop
endfacet
facet normal 0.7906376123 0.5987209082 0.1281622499
outer loop
vertex -99.68872833 35.52161407 266.5166016
vertex -99.71811676 35.51819611 266.7138672
vertex -99.47637177 35.23264313 266.5565186

endloop
endfacet
facet normal 0.7945420146 0.5869588256 0.155506283
outer loop
vertex -99.47637177 35.23264313 266.5565186
vertex -99.71811676 35.51819611 266.7138672
vertex -99.51226807 35.22927094 266.752655

endloop
endfacet
facet normal 0.78522259 0.599752605 0.1540206522
outer loop
vertex -99.47637177 35.23264313 266.5565186
vertex -99.51226807 35.22927094 266.752655
vertex -99.26533508 34.94281769 266.6091919

endloop
endfacet
facet normal 0.7889439464 0.5832304955 0.1934155822
outer loop
vertex -99.26533508 34.94281769 266.6091919
vertex -99.51226807 35.22927094 266.752655
vertex -99.31044769 34.9394455 266.8033752

endloop
endfacet
facet normal 0.7769568563 0.5998911262 0.1909672171
outer loop
vertex -99.26531982 34.94284821 266.6092224
vertex -99.31043243 34.93946075 266.8034058
vertex -99.05776215 34.6541214 266.6717529

endloop
endfacet
facet normal 0.7787846327 0.584200263 0.2284830362
outer loop
vertex -99.05776215 34.6541214 266.6717529
vertex -99.31043243 34.93946075 266.8034058
vertex -99.11156464 34.65073395 266.8638

endloop
endfacet
facet normal 0.7699600458 0.5966417193 0.226230219
outer loop
vertex -99.05776215 34.6541214 266.6717529
vertex -99.11156464 34.65073395 266.8638
vertex -98.85188293 34.36511993 266.7332458

endloop
endfacet
facet normal 0.7704388499 0.5891398787 0.2435943186
outer loop
vertex -98.85188293 34.36511993 266.7332458
vertex -99.11156464 34.65073395 266.8638
vertex -98.90966797 34.36174774 266.9241638

endloop
endfacet
facet normal 0.7638784647 0.5983612537 0.2417715192
outer loop
vertex -98.85188293 34.36511993 266.7332458
vertex -98.90966797 34.36174774 266.9241638
vertex -98.64823914 34.07707977 266.8027039

endloop
endfacet
facet normal 0.7638252378 0.5867034197 0.2689798176
outer loop
vertex -98.64823914 34.07707977 266.8027039
vertex -98.90966797 34.36174774 266.9241638
vertex -98.71215057 34.07372284 266.9915161

endloop
endfacet
facet normal 0.75139153 0.6042693853 0.265083462
outer loop
vertex -98.64823914 34.07707977 266.8027039
vertex -98.71215057 34.07372284 266.9915161
vertex -98.45359039 33.79668427 266.8901367

endloop
endfacet
facet normal 0.7482801676 0.5816075206 0.3190760016
outer loop
vertex -98.45359039 33.79668427 266.8901367
vertex -98.71215057 34.07372284 266.9915161
vertex -98.52938843 33.79328156 267.0740967

endloop
endfacet
facet normal 0.7583830953 0.5661768913 0.3229533136
outer loop
vertex -98.45359039 33.79668427 266.8901367
vertex -98.52938843 33.79328156 267.0740967
vertex -98.2698822 33.49840546 266.9816589

endloop
endfacet
facet normal 0.7504976988 0.5418871045 0.378300786
outer loop
vertex -98.2698822 33.49840546 266.9816589
vertex -98.52938843 33.79328156 267.0740967
vertex -98.35522461 33.49518585 267.1555786

endloop
endfacet
facet normal 0.7709026933 0.5054752827 0.3875612319
outer loop
vertex -98.2698822 33.4983902 266.9816284
vertex -98.35521698 33.49518585 267.1555481
vertex -98.06516266 33.14040375 267.0413208

endloop
endfacet
facet normal 0.7745730281 0.5150770545 0.3670589626
outer loop
vertex -98.06516266 33.14040375 267.0413208
vertex -98.35521698 33.49518585 267.1555481
vertex -98.14495087 33.14279938 267.2063293

endloop
endfacet
facet normal 0.8728774786 -0.2387527972 0.425537318
outer loop
vertex -98.06516266 33.14040375 267.0413208
vertex -98.14495087 33.14279938 267.2063293
vertex -98.19089508 32.71129608 267.0584717

endloop
endfacet
facet normal 0.8985450268 -0.2249147296 0.3768690825
outer loop
vertex -98.19089508 32.71129608 267.0584717
vertex -98.14495087 33.14279938 267.2063293
vertex -98.19090271 32.71126556 267.0584717

endloop
endfacet
facet normal -nan(ind) -nan(ind) -nan(ind)
outer loop
vertex -102.1288986 38.30156708 266.4890747
vertex -102.1288986 38.30156708 266.4890747
vertex -101.7318878 38.31343842 266.5772705

endloop
endfacet
facet normal -0.08672691137 0.9614385962 0.2609870136
outer loop
vertex -101.7318878 38.31343842 266.5772705
vertex -102.1288986 38.30156708 266.4890747
vertex -101.8000183 38.26573944 266.7303467

endloop
endfacet
facet normal 0.6718145609 0.5676273704 0.4758826792
outer loop
vertex -101.7318878 38.31343842 266.5772705
vertex -101.8000183 38.26573944 266.7303467
vertex -101.5381317 38.06134796 266.6044312

endloop
endfacet
facet normal 0.6686118245 0.5450963974 0.5057946444
outer loop
vertex -101.5381317 38.06134796 266.6044312
vertex -101.8000183 38.26573944 266.7303467
vertex -101.611351 38.01169586 266.7547302

endloop
endfacet
facet normal 0.6964668632 0.5077852011 0.5070384741
outer loop
vertex -101.5381317 38.06134796 266.6044312
vertex -101.611351 38.01169586 266.7547302
vertex -101.3564453 37.80828094 266.6083069

endloop
endfacet
facet normal 0.6963922381 0.5071881413 0.507738173
outer loop
vertex -101.3564453 37.80828094 266.6083069
vertex -101.611351 38.01169586 266.7547302
vertex -101.4318695 37.75743866 266.7625427

endloop
endfacet
facet normal 0.7054085135 0.494379431 0.5079250932
outer loop
vertex -101.3564453 37.80828094 266.6083069
vertex -101.4318695 37.75743866 266.7625427
vertex -101.1650085 37.53246307 266.6109009

endloop
endfacet
facet normal 0.7049547434 0.4916154742 0.5112270117
outer loop
vertex -101.1650085 37.53246307 266.6109009
vertex -101.4318695 37.75743866 266.7625427
vertex -101.2404633 37.48040009 266.7650146

endloop
endfacet
facet normal 0.6980906725 0.501378417 0.511164546
outer loop
vertex -101.1650085 37.53246307 266.6109009
vertex -101.2404633 37.48040009 266.7650146
vertex -100.961586 37.2460556 266.6140137

endloop
endfacet
facet normal 0.6976748109 0.4990626872 0.5139904618
outer loop
vertex -100.961586 37.2460556 266.6140137
vertex -101.2404633 37.48040009 266.7650146
vertex -101.0371552 37.19332123 266.7677917

endloop
endfacet
facet normal 0.6940716505 0.5041044354 0.5139487386
outer loop
vertex -100.961586 37.2460556 266.6140137
vertex -101.0371552 37.19332123 266.7677917
vertex -100.7539597 36.95514679 266.6189575

endloop
endfacet
facet normal 0.6933352351 0.5002951622 0.5186433792
outer loop
vertex -100.7539597 36.95514679 266.6189575
vertex -101.0371552 37.19332123 266.7677917
vertex -100.8304977 36.9023056 266.7722473

endloop
endfacet
facet normal 0.6880532503 0.5076419115 0.5185385942
outer loop
vertex -100.7539597 36.95514679 266.6189575
vertex -100.8304977 36.9023056 266.7722473
vertex -100.5483475 36.6676712 266.6275635

endloop
endfacet
facet normal 0.6866887808 0.5008605123 0.5268749595
outer loop
vertex -100.5483475 36.6676712 266.6275635
vertex -100.8304977 36.9023056 266.7722473
vertex -100.6264954 36.61452484 266.7799377

endloop
endfacet
facet normal 0.6776217818 0.5133593082 0.5265842676
outer loop
vertex -100.5483475 36.66765594 266.6275635
vertex -100.6264954 36.61450958 266.7799377
vertex -100.3415985 36.38260651 266.6394043

endloop
endfacet
facet normal 0.6759909987 0.5055729151 0.5361272097
outer loop
vertex -100.3415985 36.38260651 266.6394043
vertex -100.6264954 36.61450958 266.7799377
vertex -100.421463 36.32894135 266.7907104

endloop
endfacet
facet normal 0.6675378084 0.5170781612 0.5357458591
outer loop
vertex -100.3415985 36.38260651 266.6394043
vertex -100.421463 36.32894135 266.7907104
vertex -100.1325912 36.0949173 266.6566467

endloop
endfacet
facet normal 0.6647873521 0.5055066943 0.5500187874
outer loop
vertex -100.1325912 36.0949173 266.6566467
vertex -100.421463 36.32894135 266.7907104
vertex -100.2154388 36.04109955 266.8062439

endloop
endfacet
facet normal 0.6545137167 0.5193813443 0.5494132042
outer loop
vertex -100.132576 36.0949173 266.6566772
vertex -100.2154312 36.04111481 266.8062439
vertex -99.92475891 35.80623627 266.6820068

endloop
endfacet
facet normal 0.6499340534 0.5029523969 0.5697584152
outer loop
vertex -99.92475891 35.80623627 266.6820068
vertex -100.2154312 36.04111481 266.8062439
vertex -100.0120163 35.75246429 266.82901

endloop
endfacet
facet normal 0.6373422742 0.5201235414 0.5685651898
outer loop
vertex -99.92475891 35.80623627 266.6820068
vertex -100.0120163 35.75246429 266.82901
vertex -99.71811676 35.51819611 266.7138672

endloop
endfacet
facet normal 0.6321043372 0.5035069585 0.5890033245
outer loop
vertex -99.71811676 35.51819611 266.7138672
vertex -100.0120163 35.75246429 266.82901
vertex -99.80975342 35.46437836 266.8582153

endloop
endfacet
facet normal 0.6197385192 0.520406127 0.5874536633
outer loop
vertex -99.71811676 35.51819611 266.7138672
vertex -99.80975342 35.46437836 266.8582153
vertex -99.51226807 35.22927094 266.752655

endloop
endfacet
facet normal 0.6132330298 0.5021745563 0.609726131
outer loop
vertex -99.51226807 35.22927094 266.752655
vertex -99.80975342 35.46437836 266.8582153
vertex -99.60861206 35.17543793 266.8938904

endloop
endfacet
facet normal 0.5981746316 0.5228232145 0.6073244214
outer loop
vertex -99.51226807 35.22927094 266.752655
vertex -99.60861206 35.17543793 266.8938904
vertex -99.31044769 34.9394455 266.8033752

endloop
endfacet
facet normal 0.5873041153 0.4970234334 0.6387814283
outer loop
vertex -99.31044769 34.9394455 266.8033752
vertex -99.60861206 35.17543793 266.8938904
vertex -99.41339111 34.88568878 266.9398499

endloop
endfacet
facet normal 0.5679386258 0.5239567161 0.6347560287
outer loop
vertex -99.31043243 34.93946075 266.8034058
vertex -99.41338348 34.8857193 266.9398804
vertex -99.11156464 34.65073395 266.8638

endloop
endfacet
facet normal 0.5562502146 0.4994068742 0.6642127037
outer loop
vertex -99.11156464 34.65073395 266.8638
vertex -99.41338348 34.8857193 266.9398804
vertex -99.2205658 34.59696198 266.9955139

endloop
endfacet
facet normal 0.5433148742 0.5176405907 0.6609517336
outer loop
vertex -99.11156464 34.65073395 266.8638
vertex -99.2205658 34.59696198 266.9955139
vertex -98.90966797 34.36174774 266.9241638

endloop
endfacet
facet normal 0.5377529263 0.5062800646 0.6741678715
outer loop
vertex -98.90966797 34.36174774 266.9241638
vertex -99.2205658 34.59696198 266.9955139
vertex -99.0213623 34.30796051 267.0536499

endloop
endfacet
facet normal 0.5284124017 0.5194063783 0.6715633273
outer loop
vertex -98.90966797 34.36174774 266.9241638
vertex -99.0213623 34.30796051 267.0536499
vertex -98.71215057 34.07372284 266.9915161

endloop
endfacet
facet normal 0.5189043283 0.501330018 0.6923917532
outer loop
vertex -98.71215057 34.07372284 266.9915161
vertex -99.0213623 34.30796051 267.0536499
vertex -98.8278656 34.01984406 267.1172485

endloop
endfacet
facet normal 0.5000215769 0.52799505 0.6864398122
outer loop
vertex -98.71215057 34.07372284 266.9915161
vertex -98.8278656 34.01984406 267.1172485
vertex -98.52938843 33.79328156 267.0740967

endloop
endfacet
facet normal 0.4789499938 0.4925831854 0.7266145349
outer loop
vertex -98.52938843 33.79328156 267.0740967
vertex -98.8278656 34.01984406 267.1172485
vertex -98.65249634 33.73908234 267.1919861

endloop
endfacet
facet normal 0.4854054749 0.4828315675 0.728872478
outer loop
vertex -98.52938843 33.79328156 267.0740967
vertex -98.65249634 33.73908234 267.1919861
vertex -98.35522461 33.49518585 267.1555786

endloop
endfacet
facet normal 0.459921658 0.4459519088 0.7678534985
outer loop
vertex -98.35522461 33.49518585 267.1555786
vertex -98.65249634 33.73908234 267.1919861
vertex -98.48248291 33.44246674 267.2624207

endloop
endfacet
facet normal 0.4856262505 0.4016574919 0.7764267325
outer loop
vertex -98.35521698 33.49518585 267.1555481
vertex -98.48248291 33.44246674 267.2624207
vertex -98.14495087 33.14279938 267.2063293

endloop
endfacet
facet normal 0.4896070957 0.4071480334 0.7710482478
outer loop
vertex -98.14495087 33.14279938 267.2063293
vertex -98.48248291 33.44246674 267.2624207
vertex -98.27342224 33.09426117 267.3135376

endloop
endfacet
facet normal 0.6754698753 -0.3023633659 0.6725449562
outer loop
vertex -98.14495087 33.14279938 267.2063293
vertex -98.27342224 33.09426117 267.3135376
vertex -98.19090271 32.71126556 267.0584717

endloop
endfacet
facet normal -nan(ind) -nan(ind) -nan(ind)
outer loop
vertex -98.19090271 32.71126556 267.0584717
vertex -98.27342224 33.09426117 267.3135376
vertex -98.19090271 32.71126556 267.0584717

endloop
endfacet
facet normal 0.5915120244 0 -0.8062961102
outer loop
vertex -102.1288986 38.30156708 266.4890747
vertex -102.1288986 38.30158234 266.4890747
vertex -101.8000183 38.26573944 266.7303467

endloop
endfacet
facet normal -0.2395684272 0.8581663966 0.4540456831
outer loop
vertex -101.8000183 38.26573944 266.7303467
vertex -102.1288986 38.30158234 266.4890747
vertex -101.9081039 38.18906403 266.8182373

endloop
endfacet
facet normal 0.4054923952 0.3808987141 0.8309585452
outer loop
vertex -101.8000183 38.26573944 266.7303467
vertex -101.9081039 38.18906403 266.8182373
vertex -101.611351 38.01169586 266.7547302

endloop
endfacet
facet normal 0.402048558 0.3733101785 0.8360601068
outer loop
vertex -101.611351 38.01169586 266.7547302
vertex -101.9081039 38.18906403 266.8182373
vertex -101.7177887 37.93926239 266.8382568

endloop
endfacet
facet normal 0.4326560795 0.33117944 0.8385277987
outer loop
vertex -101.611351 38.01169586 266.7547302
vertex -101.7177887 37.93926239 266.8382568
vertex -101.4318695 37.75743866 266.7625427

endloop
endfacet
facet normal 0.4324771166 0.3307967186 0.8387711644
outer loop
vertex -101.4318695 37.75743866 266.7625427
vertex -101.7177887 37.93926239 266.8382568
vertex -101.5413208 37.68340302 266.848175

endloop
endfacet
facet normal 0.4439710677 0.3142274618 0.8391368985
outer loop
vertex -101.4318695 37.75743866 266.7625427
vertex -101.5413208 37.68340302 266.848175
vertex -101.2404633 37.48040009 266.7650146

endloop
endfacet
facet normal 0.4423022866 0.3108841479 0.8412608504
outer loop
vertex -101.2404633 37.48040009 266.7650146
vertex -101.5413208 37.68340302 266.848175
vertex -101.3492889 37.40457916 266.8502502

endloop
endfacet
facet normal 0.4373836815 0.3178910017 0.8412139416
outer loop
vertex -101.2404633 37.48040009 266.7650146
vertex -101.3492889 37.40457916 266.8502502
vertex -101.0371552 37.19332123 266.7677917

endloop
endfacet
facet normal 0.4359219074 0.3150132298 0.8430532813
outer loop
vertex -101.0371552 37.19332123 266.7677917
vertex -101.3492889 37.40457916 266.8502502
vertex -101.1456299 37.11646271 266.8526001

endloop
endfacet
facet normal 0.4323874712 0.3199559152 0.8430119753
outer loop
vertex -101.0371552 37.19332123 266.7677917
vertex -101.1456299 37.11646271 266.8526001
vertex -100.8304977 36.9023056 266.7722473

endloop
endfacet
facet normal 0.4299658835 0.315266937 0.8460118175
outer loop
vertex -100.8304977 36.9023056 266.7722473
vertex -101.1456299 37.11646271 266.8526001
vertex -100.9394226 36.82532501 266.8562927

endloop
endfacet
facet normal 0.4241918921 0.3233066201 0.845892489
outer loop
vertex -100.8304977 36.9023056 266.7722473
vertex -100.9394226 36.82532501 266.8562927
vertex -100.6264954 36.61452484 266.7799377

endloop
endfacet
facet normal 0.41988796 0.3150121272 0.8511529565
outer loop
vertex -100.6264954 36.61452484 266.7799377
vertex -100.9394226 36.82532501 266.8562927
vertex -100.736084 36.53705597 266.8626709

endloop
endfacet
facet normal 0.4110646546 0.3272334933 0.850849092
outer loop
vertex -100.6264954 36.61450958 266.7799377
vertex -100.736084 36.53705597 266.8626709
vertex -100.421463 36.32894135 266.7907104

endloop
endfacet
facet normal 0.4061816335 0.317813009 0.856744647
outer loop
vertex -100.421463 36.32894135 266.7907104
vertex -100.736084 36.53705597 266.8626709
vertex -100.5316391 36.25075531 266.8719482

endloop
endfacet
facet normal 0.3969733417 0.330347091 0.8563194275
outer loop
vertex -100.421463 36.32894135 266.7907104
vertex -100.5316391 36.25075531 266.8719482
vertex -100.2154388 36.04109955 266.8062439

endloop
endfacet
facet normal 0.3894864619 0.3163335025 0.8650048971
outer loop
vertex -100.2154388 36.04109955 266.8062439
vertex -100.5316391 36.25075531 266.8719482
vertex -100.3271255 35.96273041 266.8851929

endloop
endfacet
facet normal 0.3768792748 0.3337388933 0.8640488386
outer loop
vertex -100.2154312 36.04111481 266.8062439
vertex -100.3271179 35.96276093 266.8852234
vertex -100.0120163 35.75246429 266.82901

endloop
endfacet
facet normal 0.3657384515 0.3137910068 0.8762251735
outer loop
vertex -100.0120163 35.75246429 266.82901
vertex -100.3271179 35.96276093 266.8852234
vertex -100.1259918 35.67414093 266.9046326

endloop
endfacet
facet normal 0.3504001498 0.3346935809 0.8747571111
outer loop
vertex -100.0120163 35.75246429 266.82901
vertex -100.1259918 35.67414093 266.9046326
vertex -99.80975342 35.46437836 266.8582153

endloop
endfacet
facet normal 0.3385854065 0.3141878247 0.8869306445
outer loop
vertex -99.80975342 35.46437836 266.8582153
vertex -100.1259918 35.67414093 266.9046326
vertex -99.92591858 35.38599396 266.9303284

endloop
endfacet
facet normal 0.3236535788 0.3345814943 0.8850443363
outer loop
vertex -99.80975342 35.46437836 266.8582153
vertex -99.92591858 35.38599396 266.9303284
vertex -99.60861206 35.17543793 266.8938904

endloop
endfacet
facet normal 0.3104351461 0.3124583364 0.8977748752
outer loop
vertex -99.60861206 35.17543793 266.8938904
vertex -99.92591858 35.38599396 266.9303284
vertex -99.72707367 35.09706879 266.9621277

endloop
endfacet
facet normal 0.2915456295 0.338349849 0.8947181106
outer loop
vertex -99.60861206 35.17543793 266.8938904
vertex -99.72707367 35.09706879 266.9621277
vertex -99.41339111 34.88568878 266.9398499

endloop
endfacet
facet normal 0.2716509104 0.3069927096 0.9121191502
outer loop
vertex -99.41339111 34.88568878 266.9398499
vertex -99.72707367 35.09706879 266.9621277
vertex -99.53504181 34.80745697 267.0024109

endloop
endfacet
facet normal 0.247593388 0.3401171565 0.9072032571
outer loop
vertex -99.41338348 34.8857193 266.9398804
vertex -99.53503418 34.80748749 267.0024109
vertex -99.2205658 34.59696198 266.9955139

endloop
endfacet
facet normal 0.2280611992 0.310429275 0.9228335619
outer loop
vertex -99.2205658 34.59696198 266.9955139
vertex -99.53503418 34.80748749 267.0024109
vertex -99.3449173 34.51866913 267.0525818

endloop
endfacet
facet normal 0.2129549533 0.3316631913 0.9190482497
outer loop
vertex -99.2205658 34.59696198 266.9955139
vertex -99.3449173 34.51866913 267.0525818
vertex -99.0213623 34.30796051 267.0536499

endloop
endfacet
facet normal 0.2037787586 0.3176082075 0.9260665774
outer loop
vertex -99.0213623 34.30796051 267.0536499
vertex -99.3449173 34.51866913 267.0525818
vertex -99.14684296 34.22963715 267.1081238

endloop
endfacet
facet normal 0.192721352 0.3331642747 0.9229626656
outer loop
vertex -99.0213623 34.30796051 267.0536499
vertex -99.14684296 34.22963715 267.1081238
vertex -98.8278656 34.01984406 267.1172485

endloop
endfacet
facet normal 0.1779701859 0.311195761 0.9335330129
outer loop
vertex -98.8278656 34.01984406 267.1172485
vertex -99.14684296 34.22963715 267.1081238
vertex -98.95487976 33.94133759 267.1676331

endloop
endfacet
facet normal 0.1551379561 0.3434691131 0.9262619615
outer loop
vertex -98.8278656 34.01984406 267.1172485
vertex -98.95487976 33.94133759 267.1676331
vertex -98.65249634 33.73908234 267.1919861

endloop
endfacet
facet normal 0.1245419756 0.300072968 0.9457513094
outer loop
vertex -98.65249634 33.73908234 267.1919861
vertex -98.95487976 33.94133759 267.1676331
vertex -98.78185272 33.66013336 267.2340698

endloop
endfacet
facet normal 0.1264855713 0.297229439 0.946391046
outer loop
vertex -98.65249634 33.73908234 267.1919861
vertex -98.78185272 33.66013336 267.2340698
vertex -98.48248291 33.44246674 267.2624207

endloop
endfacet
facet normal 0.09322866797 0.2536264062 0.9627990723
outer loop
vertex -98.48248291 33.44246674 267.2624207
vertex -98.78185272 33.66013336 267.2340698
vertex -98.61112213 33.36556244 267.2951355

endloop
endfacet
facet normal 0.1186585426 0.2135933787 0.9696896076
outer loop
vertex -98.48248291 33.44246674 267.2624207
vertex -98.61112213 33.36554718 267.295105
vertex -98.27342224 33.09426117 267.3135376

endloop
endfacet
facet normal 0.1084405109 0.2011356354 0.9735425711
outer loop
vertex -98.27342224 33.09426117 267.3135376
vertex -98.61112213 33.36554718 267.295105
vertex -98.40850067 33.0162735 267.344696

endloop
endfacet
facet normal 0.4325657189 -0.4333429635 0.790633142
outer loop
vertex -98.27342224 33.09426117 267.3135376
vertex -98.40850067 33.0162735 267.344696
vertex -98.19090271 32.71126556 267.0584717

endloop
endfacet
facet normal 0.7138879299 0.6770218015 -0.1789006591
outer loop
vertex -98.19090271 32.71126556 267.0584717
vertex -98.40850067 33.0162735 267.344696
vertex -98.19089508 32.71126556 267.0585022

endloop
endfacet
facet normal -0.8165344596 -0.4082672298 0.4081536829
outer loop
vertex -102.1288986 38.30158234 266.4890747
vertex -102.128891 38.30156708 266.4890747
vertex -101.9081039 38.18906403 266.8182373

endloop
endfacet
facet normal -0.446158886 0.7117593288 0.542531848
outer loop
vertex -101.9081039 38.18906403 266.8182373
vertex -102.128891 38.30156708 266.4890747
vertex -102.027298 38.1039505 266.8318787

endloop
endfacet
facet normal 0.03681779653 0.10767138 0.9935045838
outer loop
vertex -101.9081039 38.18906403 266.8182373
vertex -102.027298 38.1039505 266.8318787
vertex -101.7177887 37.93926239 266.8382568

endloop
endfacet
facet normal 0.04957246408 0.1315092295 0.9900746346
outer loop
vertex -101.7177887 37.93926239 266.8382568
vertex -102.027298 38.1039505 266.8318787
vertex -101.833252 37.86055756 266.8544922

endloop
endfacet
facet normal 0.07711189985 0.09166976064 0.9927992225
outer loop
vertex -101.7177887 37.93926239 266.8382568
vertex -101.833252 37.86055756 266.8544922
vertex -101.5413208 37.68340302 266.848175

endloop
endfacet
facet normal 0.07729464024 0.09197240323 0.992757082
outer loop
vertex -101.5413208 37.68340302 266.848175
vertex -101.833252 37.86055756 266.8544922
vertex -101.6600037 37.60295868 266.8648682

endloop
endfacet
facet normal 0.09182798862 0.07063642889 0.9932664037
outer loop
vertex -101.5413208 37.68340302 266.848175
vertex -101.6600037 37.60295868 266.8648682
vertex -101.3492889 37.40457916 266.8502502

endloop
endfacet
facet normal 0.08948024362 0.06692450494 0.9937375784
outer loop
vertex -101.3492889 37.40457916 266.8502502
vertex -101.6600037 37.60295868 266.8648682
vertex -101.4669495 37.3221817 266.866394

endloop
endfacet
facet normal 0.08740313351 0.06988678873 0.9937185049
outer loop
vertex -101.3492889 37.40457916 266.8502502
vertex -101.4669495 37.3221817 266.866394
vertex -101.1456299 37.11646271 266.8526001

endloop
endfacet
facet normal 0.0855333209 0.06694176048 0.994083941
outer loop
vertex -101.1456299 37.11646271 266.8526001
vertex -101.4669495 37.3221817 266.866394
vertex -101.2625885 37.03296661 266.8682861

endloop
endfacet
facet normal 0.0825676471 0.07108902186 0.9940467477
outer loop
vertex -101.1456299 37.11646271 266.8526001
vertex -101.2625885 37.03296661 266.8682861
vertex -100.9394226 36.82532501 266.8562927

endloop
endfacet
facet normal 0.07950486988 0.06628865004 0.9946280122
outer loop
vertex -100.9394226 36.82532501 266.8562927
vertex -101.2625885 37.03296661 266.8682861
vertex -101.0563583 36.74166107 266.8712158

endloop
endfacet
facet normal 0.07388547063 0.07412144542 0.9945083857
outer loop
vertex -100.9394226 36.82532501 266.8562927
vertex -101.0563583 36.74166107 266.8712158
vertex -100.736084 36.53705597 266.8626709

endloop
endfacet
facet normal 0.06812333316 0.0650581494 0.9955534935
outer loop
vertex -100.736084 36.53705597 266.8626709
vertex -101.0563583 36.74166107 266.8712158
vertex -100.8528137 36.45287323 266.8761597

endloop
endfacet
facet normal 0.06056397408 0.07550027966 0.9953048229
outer loop
vertex -100.736084 36.53705597 266.8626709
vertex -100.8528137 36.45287323 266.8761597
vertex -100.5316391 36.25075531 266.8719482

endloop
endfacet
facet normal 0.05419827253 0.06536230445 0.9963886738
outer loop
vertex -100.5316391 36.25075531 266.8719482
vertex -100.8528137 36.45287323 266.8761597
vertex -100.6479645 36.16577911 266.8838501

endloop
endfacet
facet normal 0.04506828263 0.0777990371 0.9959498644
outer loop
vertex -100.5316391 36.25075531 266.8719482
vertex -100.6479645 36.16577911 266.8838501
vertex -100.3271255 35.96273041 266.8851929

endloop
endfacet
facet normal 0.03561070189 0.06286454201 0.9973865151
outer loop
vertex -100.3271255 35.96273041 266.8851929
vertex -100.6479645 36.16577911 266.8838501
vertex -100.4434967 35.87758636 266.8947144

endloop
endfacet
facet normal 0.02151789516 0.08200096339 0.9963999391
outer loop
vertex -100.3271179 35.96276093 266.8852234
vertex -100.4434891 35.87760162 266.8947449
vertex -100.1259918 35.67414093 266.9046326

endloop
endfacet
facet normal 0.007760477252 0.06061683595 0.9981309772
outer loop
vertex -100.1259918 35.67414093 266.9046326
vertex -100.4434891 35.87760162 266.8947449
vertex -100.2426224 35.58907318 266.9107056

endloop
endfacet
facet normal -0.008581487462 0.08290720731 0.9965202808
outer loop
vertex -100.1259918 35.67414093 266.9046326
vertex -100.2426224 35.58907318 266.9107056
vertex -99.92591858 35.38599396 266.9303284

endloop
endfacet
facet normal -0.02266030014 0.06108210981 0.997875452
outer loop
vertex -99.92591858 35.38599396 266.9303284
vertex -100.2426224 35.58907318 266.9107056
vertex -100.0426254 35.3008194 266.9328918

endloop
endfacet
facet normal -0.03868392855 0.08297537267 0.9958004951
outer loop
vertex -99.92591858 35.38599396 266.9303284
vertex -100.0426254 35.3008194 266.9328918
vertex -99.72707367 35.09706879 266.9621277

endloop
endfacet
facet normal -0.05449567363 0.0586296469 0.9967912436
outer loop
vertex -99.72707367 35.09706879 266.9621277
vertex -100.0426254 35.3008194 266.9328918
vertex -99.84379578 35.01192474 266.9607544

endloop
endfacet
facet normal -0.07580038905 0.08789307624 0.9932417274
outer loop
vertex -99.72707367 35.09706879 266.9621277
vertex -99.84379578 35.01192474 266.9607544
vertex -99.53504181 34.80745697 267.0024109

endloop
endfacet
facet normal -0.0980745405 0.0543503724 0.9936938286
outer loop
vertex -99.53504181 34.80745697 267.0024109
vertex -99.84379578 35.01192474 266.9607544
vertex -99.65168762 34.72251129 266.9955444

endloop
endfacet
facet normal -0.1236585379 0.09026385844 0.9882110357
outer loop
vertex -99.53503418 34.80748749 267.0024109
vertex -99.65167999 34.72252655 266.995575
vertex -99.3449173 34.51866913 267.0525818

endloop
endfacet
facet normal -0.1450917423 0.05787517875 0.9877240658
outer loop
vertex -99.3449173 34.51866913 267.0525818
vertex -99.65167999 34.72252655 266.995575
vertex -99.46111298 34.43361664 267.0404968

endloop
endfacet
facet normal -0.1603081673 0.07920897752 0.9838837385
outer loop
vertex -99.3449173 34.51866913 267.0525818
vertex -99.46111298 34.43361664 267.0404968
vertex -99.14684296 34.22963715 267.1081238

endloop
endfacet
facet normal -0.1698998362 0.06425883621 0.9833640456
outer loop
vertex -99.14684296 34.22963715 267.1081238
vertex -99.46111298 34.43361664 267.0404968
vertex -99.26276398 34.14450836 267.0936584

endloop
endfacet
facet normal -0.1818920076 0.08116666228 0.9799628854
outer loop
vertex -99.14684296 34.22963715 267.1081238
vertex -99.26276398 34.14450836 267.0936584
vertex -98.95487976 33.94133759 267.1676331

endloop
endfacet
facet normal -0.1971469373 0.05758281052 0.9786814451
outer loop
vertex -98.95487976 33.94133759 267.1676331
vertex -99.26276398 34.14450836 267.0936584
vertex -99.07007599 33.85607147 267.1494446

endloop
endfacet
facet normal -0.2219230086 0.09277089685 0.9706408381
outer loop
vertex -98.95487976 33.94133759 267.1676331
vertex -99.07007599 33.85607147 267.1494446
vertex -98.78185272 33.66013336 267.2340698

endloop
endfacet
facet normal -0.2520675361 0.04667618498 0.9665833712
outer loop
vertex -98.78185272 33.66013336 267.2340698
vertex -99.07007599 33.85607147 267.1494446
vertex -98.89498138 33.57436371 267.2087097

endloop
endfacet
facet normal -0.2557460368 0.05189273506 0.9653502703
outer loop
vertex -98.78185272 33.66013336 267.2340698
vertex -98.89498138 33.57436371 267.2087097
vertex -98.61112213 33.36556244 267.2951355

endloop
endfacet
facet normal -0.2875920832 0.005447941832 0.9577375054
outer loop
vertex -98.61112213 33.36556244 267.2951355
vertex -98.89498138 33.57436371 267.2087097
vertex -98.71961975 33.28197479 267.263031

endloop
endfacet
facet normal -0.2694834471 -0.01963104308 0.9628049135
outer loop
vertex -98.61112213 33.36554718 267.295105
vertex -98.71962738 33.28197479 267.263031
vertex -98.40850067 33.0162735 267.344696

endloop
endfacet
facet normal -0.2986775041 -0.05693614855 0.9526541829
outer loop
vertex -98.40850067 33.0162735 267.344696
vertex -98.71962738 33.28197479 267.263031
vertex -98.52050018 32.92978668 267.3044128

endloop
endfacet
facet normal 0.183222726 -0.599989295 0.7787441611
outer loop
vertex -98.40850067 33.0162735 267.344696
vertex -98.52050018 32.92978668 267.3044128
vertex -98.19089508 32.71126556 267.0585022

endloop
endfacet
facet normal -nan(ind) -nan(ind) -nan(ind)
outer loop
vertex -98.19089508 32.71126556 267.0585022
vertex -98.52050018 32.92978668 267.3044128
vertex -98.19089508 32.71126556 267.0585022

endloop
endfacet
facet normal -0 0.8663550019 0.4994286299
outer loop
vertex -102.128891 38.30156708 266.4890747
vertex -102.1288986 38.30156708 266.4890747
vertex -102.027298 38.1039505 266.8318787

endloop
endfacet
facet normal -0.6523733735 0.5567103624 0.5142786503
outer loop
vertex -102.027298 38.1039505 266.8318787
vertex -102.1288986 38.30156708 266.4890747
vertex -102.1400604 38.02306366 266.7763977

endloop
endfacet
facet normal -0.3296217918 -0.1766238958 0.9274445772
outer loop
vertex -102.027298 38.1039505 266.8318787
vertex -102.1400604 38.02306366 266.7763977
vertex -101.833252 37.86055756 266.8544922

endloop
endfacet
facet normal -0.3110159338 -0.1351006478 0.9407534003
outer loop
vertex -101.833252 37.86055756 266.8544922
vertex -102.1400604 38.02306366 266.7763977
vertex -101.94944 37.78122711 266.8046875

endloop
endfacet
facet normal -0.2945185602 -0.16012986 0.9421344399
outer loop
vertex -101.833252 37.86055756 266.8544922
vertex -101.94944 37.78122711 266.8046875
vertex -101.6600037 37.60295868 266.8648682

endloop
endfacet
facet normal -0.2942636013 -0.159662202 0.9422934651
outer loop
vertex -101.6600037 37.60295868 266.8648682
vertex -101.94944 37.78122711 266.8046875
vertex -101.7795563 37.52179718 266.8137817

endloop
endfacet
facet normal -0.2770386636 -0.1853601784 0.9428102374
outer loop
vertex -101.6600037 37.60295868 266.8648682
vertex -101.7795563 37.52179718 266.8137817
vertex -101.4669495 37.3221817 266.866394

endloop
endfacet
facet normal -0.2791240215 -0.1889775842 0.941476047
outer loop
vertex -101.4669495 37.3221817 266.866394
vertex -101.7795563 37.52179718 266.8137817
vertex -101.5851212 37.2390213 266.8146667

endloop
endfacet
facet normal -0.2781424522 -0.1903776675 0.9414845109
outer loop
vertex -101.4669495 37.3221817 266.866394
vertex -101.5851212 37.2390213 266.8146667
vertex -101.2625885 37.03296661 266.8682861

endloop
endfacet
facet normal -0.2798024416 -0.1932567656 0.9404054284
outer loop
vertex -101.2625885 37.03296661 266.8682861
vertex -101.5851212 37.2390213 266.8146667
vertex -101.3797836 36.94870758 266.8161011

endloop
endfacet
facet normal -0.2819986045 -0.1901838481 0.9403759241
outer loop
vertex -101.2625885 37.03296661 266.8682861
vertex -101.3797836 36.94870758 266.8161011
vertex -101.0563583 36.74166107 266.8712158

endloop
endfacet
facet normal -0.284730196 -0.1949290484 0.9385794401
outer loop
vertex -101.0563583 36.74166107 266.8712158
vertex -101.3797836 36.94870758 266.8161011
vertex -101.1730957 36.65723419 266.8182678

endloop
endfacet
facet normal -0.2896380723 -0.1880778074 0.9384756684
outer loop
vertex -101.0563583 36.74166107 266.8712158
vertex -101.1730957 36.65723419 266.8182678
vertex -100.8528137 36.45287323 266.8761597

endloop
endfacet
facet normal -0.2947632372 -0.1970878541 0.9350246191
outer loop
vertex -100.8528137 36.45287323 266.8761597
vertex -101.1730957 36.65723419 266.8182678
vertex -100.9685135 36.36791229 266.8217773

endloop
endfacet
facet normal -0.3004107177 -0.189309448 0.9348344207
outer loop
vertex -100.8528137 36.45287323 266.8761597
vertex -100.9685135 36.36792755 266.8217773
vertex -100.6479645 36.16577911 266.8838501

endloop
endfacet
facet normal -0.30598104 -0.1993398219 0.9309346676
outer loop
vertex -100.6479645 36.16577911 266.8838501
vertex -100.9685135 36.36792755 266.8217773
vertex -100.7622986 36.08003998 266.8279114

endloop
endfacet
facet normal -0.314332813 -0.1879348904 0.93052423
outer loop
vertex -100.6479645 36.16577911 266.8838501
vertex -100.7622986 36.08003998 266.8279114
vertex -100.4434967 35.87758636 266.8947144

endloop
endfacet
facet normal -0.3225216568 -0.2027898133 0.9245842695
outer loop
vertex -100.4434967 35.87758636 266.8947144
vertex -100.7622986 36.08003998 266.8279114
vertex -100.5564728 35.79164886 266.8364563

endloop
endfacet
facet normal -0.3369222581 -0.1834724844 0.9234832525
outer loop
vertex -100.4434891 35.87760162 266.8947449
vertex -100.5564651 35.79167938 266.8364563
vertex -100.2426224 35.58907318 266.9107056

endloop
endfacet
facet normal -0.3483701348 -0.2043866366 0.9148029089
outer loop
vertex -100.2426224 35.58907318 266.9107056
vertex -100.5564651 35.79167938 266.8364563
vertex -100.3538589 35.5031662 266.8491516

endloop
endfacet
facet normal -0.364367336 -0.1825196594 0.9131937623
outer loop
vertex -100.2426224 35.58907318 266.9107056
vertex -100.3538589 35.5031662 266.8491516
vertex -100.0426254 35.3008194 266.9328918

endloop
endfacet
facet normal -0.3760446608 -0.204376027 0.9037814736
outer loop
vertex -100.0426254 35.3008194 266.9328918
vertex -100.3538589 35.5031662 266.8491516
vertex -100.1519089 35.21485138 266.867981

endloop
endfacet
facet normal -0.3918462396 -0.1827201843 0.9017038941
outer loop
vertex -100.0426254 35.3008194 266.9328918
vertex -100.1519089 35.21485138 266.867981
vertex -99.84379578 35.01192474 266.9607544

endloop
endfacet
facet normal -0.4040615857 -0.2060602009 0.8912201524
outer loop
vertex -99.84379578 35.01192474 266.9607544
vertex -100.1519089 35.21485138 266.867981
vertex -99.95088959 34.9260025 266.892334

endloop
endfacet
facet normal -0.4258362949 -0.1759755313 0.8875223994
outer loop
vertex -99.84379578 35.01192474 266.9607544
vertex -99.95088959 34.9260025 266.892334
vertex -99.65168762 34.72251129 266.9955444

endloop
endfacet
facet normal -0.4433304071 -0.2098510116 0.871447444
outer loop
vertex -99.65168762 34.72251129 266.9955444
vertex -99.95088959 34.9260025 266.892334
vertex -99.75554657 34.6367569 266.9220581

endloop
endfacet
facet normal -0.4686888158 -0.1745052338 0.8659554124
outer loop
vertex -99.65167999 34.72252655 266.995575
vertex -99.75553131 34.63678741 266.9220886
vertex -99.46111298 34.43361664 267.0404968

endloop
endfacet
facet normal -0.4844979048 -0.2067007273 0.8500214815
outer loop
vertex -99.46111298 34.43361664 267.0404968
vertex -99.75553131 34.63678741 266.9220886
vertex -99.56150055 34.34777069 266.9624023

endloop
endfacet
facet normal -0.4988381267 -0.186607495 0.8463676572
outer loop
vertex -99.46111298 34.43361664 267.0404968
vertex -99.56150055 34.34777069 266.9624023
vertex -99.26276398 34.14450836 267.0936584

endloop
endfacet
facet normal -0.5055943131 -0.2013249248 0.8389533162
outer loop
vertex -99.26276398 34.14450836 267.0936584
vertex -99.56150055 34.34777069 266.9624023
vertex -99.36149597 34.0586319 267.0135498

endloop
endfacet
facet normal -0.5176695585 -0.1842303127 0.8355102539
outer loop
vertex -99.26276398 34.14450836 267.0936584
vertex -99.36149597 34.0586319 267.0135498
vertex -99.07007599 33.85607147 267.1494446

endloop
endfacet
facet normal -0.5281731486 -0.2074644864 0.8234024644
outer loop
vertex -99.07007599 33.85607147 267.1494446
vertex -99.36149597 34.0586319 267.0135498
vertex -99.16602325 33.77004242 267.0662231

endloop
endfacet
facet normal -0.552857995 -0.1721040905 0.8153086901
outer loop
vertex -99.07007599 33.85607147 267.1494446
vertex -99.16602325 33.77004242 267.0662231
vertex -98.89498138 33.57436371 267.2087097

endloop
endfacet
facet normal -0.5726972222 -0.2177894115 0.7903072834
outer loop
vertex -98.89498138 33.57436371 267.2087097
vertex -99.16602325 33.77004242 267.0662231
vertex -98.98475647 33.48784637 267.119812

endloop
endfacet
facet normal -0.582903266 -0.2034500986 0.7866587043
outer loop
vertex -98.89498138 33.57436371 267.2087097
vertex -98.98475647 33.48784637 267.119812
vertex -98.71961975 33.28197479 267.263031

endloop
endfacet
facet normal -0.6024962068 -0.2482506037 0.7585315108
outer loop
vertex -98.71961975 33.28197479 267.263031
vertex -98.98475647 33.48784637 267.119812
vertex -98.80117035 33.19773102 267.1706848

endloop
endfacet
facet normal -0.6007238626 -0.250442028 0.7592164278
outer loop
vertex -98.71962738 33.28197479 267.263031
vertex -98.80117798 33.19773102 267.1707153
vertex -98.52050018 32.92978668 267.3044128

endloop
endfacet
facet normal -0.6261803508 -0.2960309684 0.7212931514
outer loop
vertex -98.52050018 32.92978668 267.3044128
vertex -98.80117798 33.19773102 267.1707153
vertex -98.59606934 32.84752655 267.2050476

endloop
endfacet
facet normal -0.02203398384 -0.7618096471 0.647426188
outer loop
vertex -98.52050018 32.92978668 267.3044128
vertex -98.59606934 32.84752655 267.2050476
vertex -98.19089508 32.71126556 267.0585022

endloop
endfacet
facet normal -0.2939296663 -0.9530007839 0.07344950736
outer loop
vertex -98.19089508 32.71126556 267.0585022
vertex -98.59606934 32.84752655 267.2050476
vertex -98.19090271 32.71126556 267.0584717

endloop
endfacet
facet normal -0.9992462993 0 -0.0388183035
outer loop
vertex -102.1288986 38.30156708 266.4890747
vertex -102.1288986 38.30155182 266.4890747
vertex -102.1400604 38.02306366 266.7763977

endloop
endfacet
facet normal -0.823990941 0.4225174487 0.377515465
outer loop
vertex -102.1400604 38.02306366 266.7763977
vertex -102.1288986 38.30155182 266.4890747
vertex -102.223938 37.96250153 266.6611023

endloop
endfacet
facet normal -0.6207239032 -0.4111765921 0.6675595045
outer loop
vertex -102.1400604 38.02306366 266.7763977
vertex -102.223938 37.96250153 266.6611023
vertex -101.94944 37.78122711 266.8046875

endloop
endfacet
facet normal -0.6081889272 -0.3609844446 0.7069627643
outer loop
vertex -101.94944 37.78122711 266.8046875
vertex -102.223938 37.96250153 266.6611023
vertex -102.042923 37.71729279 266.6916199

endloop
endfacet
facet normal -0.6025390029 -0.3697706759 0.7072597146
outer loop
vertex -101.94944 37.78122711 266.8046875
vertex -102.042923 37.71729279 266.6916199
vertex -101.7795563 37.52179718 266.8137817

endloop
endfacet
facet normal -0.6023135781 -0.3691418767 0.7077800035
outer loop
vertex -101.7795563 37.52179718 266.8137817
vertex -102.042923 37.71729279 266.6916199
vertex -101.8758163 37.45627594 266.6976929

endloop
endfacet
facet normal -0.5828047395 -0.3985168338 0.7081828117
outer loop
vertex -101.7795563 37.52179718 266.8137817
vertex -101.8758163 37.45627594 266.6976929
vertex -101.5851212 37.2390213 266.8146667

endloop
endfacet
facet normal -0.5839857459 -0.4015446007 0.705494523
outer loop
vertex -101.5851212 37.2390213 266.8146667
vertex -101.8758163 37.45627594 266.6976929
vertex -101.6799164 37.17195892 266.6980286

endloop
endfacet
facet normal -0.5802276731 -0.4069066346 0.7055231333
outer loop
vertex -101.5851212 37.2390213 266.8146667
vertex -101.6799164 37.17195892 266.6980286
vertex -101.3797836 36.94870758 266.8161011

endloop
endfacet
facet normal -0.5812351704 -0.4094932973 0.7031933069
outer loop
vertex -101.3797836 36.94870758 266.8161011
vertex -101.6799164 37.17195892 266.6980286
vertex -101.4734573 36.88074493 266.6990967

endloop
endfacet
facet normal -0.582447648 -0.4077946544 0.7031772137
outer loop
vertex -101.3797836 36.94870758 266.8161011
vertex -101.4734573 36.88074493 266.6990967
vertex -101.1730957 36.65723419 266.8182678

endloop
endfacet
facet normal -0.5840946436 -0.4120714366 0.6993072629
outer loop
vertex -101.1730957 36.65723419 266.8182678
vertex -101.4734573 36.88074493 266.6990967
vertex -101.265892 36.58911896 266.7006226

endloop
endfacet
facet normal -0.5876761675 -0.4070694447 0.6992361546
outer loop
vertex -101.1730957 36.65723419 266.8182678
vertex -101.265892 36.58911896 266.7006226
vertex -100.9685135 36.36791229 266.8217773

endloop
endfacet
facet normal -0.5905546546 -0.414762646 0.6922550797
outer loop
vertex -100.9685135 36.36791229 266.8217773
vertex -101.265892 36.58911896 266.7006226
vertex -101.0595779 36.29938507 266.7030334

endloop
endfacet
facet normal -0.593627274 -0.410468936 0.6921863556
outer loop
vertex -100.9685135 36.36792755 266.8217773
vertex -101.0595779 36.29938507 266.7030334
vertex -100.7622986 36.08003998 266.8279114

endloop
endfacet
facet normal -0.5967466831 -0.4192442596 0.6841985583
outer loop
vertex -100.7622986 36.08003998 266.8279114
vertex -101.0595779 36.29938507 266.7030334
vertex -100.8512497 36.01087189 266.7079468

endloop
endfacet
facet normal -0.6032822728 -0.4103014469 0.6838883758
outer loop
vertex -100.7622986 36.08003998 266.8279114
vertex -100.8512497 36.01087189 266.7079468
vertex -100.5564728 35.79164886 266.8364563

endloop
endfacet
facet normal -0.6076549292 -0.423070401 0.6721360683
outer loop
vertex -100.5564728 35.79164886 266.8364563
vertex -100.8512497 36.01087189 266.7079468
vertex -100.6428299 35.72228241 266.7147217

endloop
endfacet
facet normal -0.6201763153 -0.4059779048 0.6712400913
outer loop
vertex -100.5564651 35.79167938 266.8364563
vertex -100.6428146 35.72231293 266.7147217
vertex -100.3538589 35.5031662 266.8491516

endloop
endfacet
facet normal -0.6262156367 -0.4245759547 0.6539030075
outer loop
vertex -100.3538589 35.5031662 266.8491516
vertex -100.6428146 35.72231293 266.7147217
vertex -100.4365997 35.43386078 266.7249146

endloop
endfacet
facet normal -0.6400080323 -0.4056768417 0.6525458097
outer loop
vertex -100.3538589 35.5031662 266.8491516
vertex -100.4365997 35.43386078 266.7249146
vertex -100.1519089 35.21485138 266.867981

endloop
endfacet
facet normal -0.6456177235 -0.4246029854 0.6347361803
outer loop
vertex -100.1519089 35.21485138 266.867981
vertex -100.4365997 35.43386078 266.7249146
vertex -100.2308121 35.14550018 266.741333

endloop
endfacet
facet normal -0.6594621539 -0.4055772424 0.6329429746
outer loop
vertex -100.1519089 35.21485138 266.867981
vertex -100.2308121 35.14550018 266.741333
vertex -99.95088959 34.9260025 266.892334

endloop
endfacet
facet normal -0.6650778055 -0.4264199436 0.6130558848
outer loop
vertex -99.95088959 34.9260025 266.892334
vertex -100.2308121 35.14550018 266.741333
vertex -100.0255585 34.85669708 266.7631226

endloop
endfacet
facet normal -0.6844326258 -0.3995645046 0.6098362207
outer loop
vertex -99.95088959 34.9260025 266.892334
vertex -100.0255585 34.85669708 266.7631226
vertex -99.75554657 34.6367569 266.9220581

endloop
endfacet
facet normal -0.6914578676 -0.4286797643 0.5814806223
outer loop
vertex -99.75554657 34.6367569 266.9220581
vertex -100.0255585 34.85669708 266.7631226
vertex -99.82411957 34.56754303 266.7894897

endloop
endfacet
facet normal -0.7131556869 -0.3983131945 0.5768497586
outer loop
vertex -99.75553131 34.63678741 266.9220886
vertex -99.82410431 34.56757355 266.7895203
vertex -99.56150055 34.34777069 266.9624023

endloop
endfacet
facet normal -0.7186052799 -0.4265298843 0.5492528081
outer loop
vertex -99.56150055 34.34777069 266.9624023
vertex -99.82410431 34.56757355 266.7895203
vertex -99.62398529 34.27848053 266.8268433

endloop
endfacet
facet normal -0.731056273 -0.4090910256 0.5460780859
outer loop
vertex -99.56150055 34.34777069 266.9624023
vertex -99.62398529 34.27848053 266.8268433
vertex -99.36149597 34.0586319 267.0135498

endloop
endfacet
facet normal -0.7329804301 -0.4221335053 0.5334257483
outer loop
vertex -99.36149597 34.0586319 267.0135498
vertex -99.62398529 34.27848053 266.8268433
vertex -99.42115021 33.98929596 266.876709

endloop
endfacet
facet normal -0.7437002659 -0.4069290459 0.5303949118
outer loop
vertex -99.36149597 34.0586319 267.0135498
vertex -99.42115021 33.98929596 266.876709
vertex -99.16602325 33.77004242 267.0662231

endloop
endfacet
facet normal -0.7462779284 -0.4270533919 0.5105826259
outer loop
vertex -99.16602325 33.77004242 267.0662231
vertex -99.42115021 33.98929596 266.876709
vertex -99.22107697 33.70059967 266.9276733

endloop
endfacet
facet normal -0.7671214342 -0.3970764279 0.5038402081
outer loop
vertex -99.16602325 33.77004242 267.0662231
vertex -99.22107697 33.70059967 266.9276733
vertex -98.98475647 33.48784637 267.119812

endloop
endfacet
facet normal -0.7705789804 -0.4366825819 0.4642373621
outer loop
vertex -98.98475647 33.48784637 267.119812
vertex -99.22107697 33.70059967 266.9276733
vertex -99.03034973 33.41799164 266.9784241

endloop
endfacet
facet normal -0.7849846482 -0.4162879586 0.4588064551
outer loop
vertex -98.98475647 33.48784637 267.119812
vertex -99.03034973 33.41799164 266.9784241
vertex -98.80117035 33.19773102 267.1706848

endloop
endfacet
facet normal -0.7869372368 -0.4550937712 0.4166765809
outer loop
vertex -98.80117035 33.19773102 267.1706848
vertex -99.03034973 33.41799164 266.9784241
vertex -98.83628845 33.12981415 267.0301819

endloop
endfacet
facet normal -0.8042592406 -0.4309211671 0.4092358053
outer loop
vertex -98.80117798 33.19773102 267.1707153
vertex -98.83628845 33.12979889 267.0301819
vertex -98.59606934 32.84752655 267.2050476

endloop
endfacet
facet normal -0.8095062971 -0.4759368598 0.343778491
outer loop
vertex -98.59606934 32.84752655 267.2050476
vertex -98.83628845 33.12979889 267.0301819
vertex -98.61936951 32.78591156 267.0648804

endloop
endfacet
facet normal -0.1497866213 -0.895714879 0.4186393023
outer loop
vertex -98.59606934 32.84752655 267.2050476
vertex -98.61936951 32.78591156 267.0648804
vertex -98.19090271 32.71126556 267.0584717

endloop
endfacet
facet normal 0.01495559234 0 0.9998881817
outer loop
vertex -98.19090271 32.71126556 267.0584717
vertex -98.61936951 32.78591156 267.0648804
vertex -98.19090271 32.71125031 267.0584717

endloop
endfacet
facet normal 0.9478127956 -0.3078230917 -0.08304163814
outer loop
vertex -102.1289062 38.30155182 266.4890442
vertex -102.1288986 38.30156708 266.4890747
vertex -102.2239456 37.96250153 266.6611023

endloop
endfacet
facet normal -0.9358186722 0.3279188573 0.129277125
outer loop
vertex -102.2239456 37.96250153 266.6611023
vertex -102.1288986 38.30156708 266.4890747
vertex -102.2576523 37.93740082 266.4807739

endloop
endfacet
facet normal -0.7968446016 -0.5599645376 0.2268887609
outer loop
vertex -102.2239456 37.96250153 266.6611023
vertex -102.2576523 37.93740082 266.4807739
vertex -102.0429306 37.71727753 266.6916199

endloop
endfacet
facet normal -0.8075729012 -0.5184217095 0.2811849415
outer loop
vertex -102.0429306 37.71727753 266.6916199
vertex -102.2576523 37.93740082 266.4807739
vertex -102.0882721 37.68601227 266.5037537

endloop
endfacet
facet normal -0.8111832738 -0.5127901435 0.2811190784
outer loop
vertex -102.0429306 37.71727753 266.6916199
vertex -102.0882721 37.68601227 266.5037537
vertex -101.875824 37.45626068 266.6976929

endloop
endfacet
facet normal -0.8112717271 -0.512237072 0.28187114
outer loop
vertex -101.875824 37.45626068 266.6976929
vertex -102.0882721 37.68601227 266.5037537
vertex -101.9226074 37.42415619 266.5046997

endloop
endfacet
facet normal -0.7901772261 -0.5441155434 0.2820605934
outer loop
vertex -101.875824 37.45626068 266.6976929
vertex -101.9226074 37.42415619 266.5046997
vertex -101.679924 37.17192841 266.697998

endloop
endfacet
facet normal -0.7897690535 -0.5467056632 0.2781684995
outer loop
vertex -101.679924 37.17192841 266.697998
vertex -101.9226074 37.42415619 266.5046997
vertex -101.7253189 37.13907623 266.5045471

endloop
endfacet
facet normal -0.7840436697 -0.5548642278 0.2782104909
outer loop
vertex -101.679924 37.17192841 266.697998
vertex -101.7253189 37.13907623 266.5045471
vertex -101.473465 36.88072968 266.6990662

endloop
endfacet
facet normal -0.7837213874 -0.5568191409 0.2751967013
outer loop
vertex -101.473465 36.88072968 266.6990662
vertex -101.7253189 37.13907623 266.5045471
vertex -101.5177917 36.84741974 266.5054321

endloop
endfacet
facet normal -0.7839409113 -0.5565112829 0.2751940489
outer loop
vertex -101.473465 36.88072968 266.6990662
vertex -101.5177917 36.84741974 266.5054321
vertex -101.2659073 36.58911896 266.7006226

endloop
endfacet
facet normal -0.7833586335 -0.5598598719 0.270011276
outer loop
vertex -101.2659073 36.58911896 266.7006226
vertex -101.5177917 36.84741974 266.5054321
vertex -101.3088837 36.55573273 266.5067139

endloop
endfacet
facet normal -0.7853988409 -0.5570126772 0.2699732184
outer loop
vertex -101.2659073 36.58911896 266.7006226
vertex -101.3088837 36.55573273 266.5067139
vertex -101.0595856 36.29936981 266.7030334

endloop
endfacet
facet normal -0.7842390537 -0.5631009936 0.2605501115
outer loop
vertex -101.0595856 36.29936981 266.7030334
vertex -101.3088837 36.55573273 266.5067139
vertex -101.1000671 36.26580048 266.5086365

endloop
endfacet
facet normal -0.784843564 -0.5622798204 0.2605033815
outer loop
vertex -101.0595856 36.29936981 266.7030334
vertex -101.1000595 36.26580048 266.5086365
vertex -100.8512573 36.01085663 266.7079468

endloop
endfacet
facet normal -0.7833783031 -0.5690367818 0.2500313222
outer loop
vertex -100.8512573 36.01085663 266.7079468
vertex -101.1000595 36.26580048 266.5086365
vertex -100.8888321 35.97696686 266.513092

endloop
endfacet
facet normal -0.7877551317 -0.5630496144 0.2498340011
outer loop
vertex -100.8512573 36.01085663 266.7079468
vertex -100.8888321 35.97696686 266.513092
vertex -100.6428375 35.72225189 266.7146912

endloop
endfacet
facet normal -0.7853136659 -0.5731173158 0.2341345996
outer loop
vertex -100.6428375 35.72225189 266.7146912
vertex -100.8888321 35.97696686 266.513092
vertex -100.6763306 35.68825531 266.5191345

endloop
endfacet
facet normal -0.7948782444 -0.5600556731 0.2334655672
outer loop
vertex -100.6428299 35.72228241 266.7147217
vertex -100.6763229 35.68828583 266.5191345
vertex -100.4366074 35.43383026 266.724884

endloop
endfacet
facet normal -0.7908475995 -0.5745453835 0.2108497471
outer loop
vertex -100.4366074 35.43383026 266.724884
vertex -100.6763229 35.68828583 266.5191345
vertex -100.4643021 35.39984894 266.5284119

endloop
endfacet
facet normal -0.8014714718 -0.5600118637 0.2098335773
outer loop
vertex -100.4366074 35.43383026 266.724884
vertex -100.4643021 35.39984894 266.5284119
vertex -100.2308121 35.14545441 266.7413025

endloop
endfacet
facet normal -0.7966220975 -0.5749243498 0.1866952628
outer loop
vertex -100.2308121 35.14545441 266.7413025
vertex -100.4643021 35.39984894 266.5284119
vertex -100.2525406 35.1115036 266.5440369

endloop
endfacet
facet normal -0.8075325489 -0.5599530935 0.1853203923
outer loop
vertex -100.2308121 35.14545441 266.7413025
vertex -100.2525406 35.1115036 266.5440369
vertex -100.0255661 34.85668182 266.7631226

endloop
endfacet
facet normal -0.8015730977 -0.575935781 0.1605567038
outer loop
vertex -100.0255661 34.85668182 266.7631226
vertex -100.2525406 35.1115036 266.5440369
vertex -100.0407791 34.8227005 266.5652771

endloop
endfacet
facet normal -0.8168932199 -0.5547015667 0.1580875516
outer loop
vertex -100.0255661 34.85668182 266.7631226
vertex -100.0407791 34.8227005 266.5652771
vertex -99.8241272 34.56754303 266.7894897

endloop
endfacet
facet normal -0.8071388006 -0.5774558187 0.1227674484
outer loop
vertex -99.8241272 34.56754303 266.7894897
vertex -100.0407791 34.8227005 266.5652771
vertex -99.83001709 34.53362274 266.591217

endloop
endfacet
facet normal -0.8234913349 -0.554644227 0.1192969158
outer loop
vertex -99.82411194 34.56755829 266.7895203
vertex -99.83000946 34.53366852 266.5912476
vertex -99.62399292 34.27846527 266.8268433

endloop
endfacet
facet normal -0.8125503063 -0.5765044689 0.08604995161
outer loop
vertex -99.62399292 34.27846527 266.8268433
vertex -99.83000946 34.53366852 266.5912476
vertex -99.62091827 34.24451447 266.628418

endloop
endfacet
facet normal -0.8225405812 -0.5625422597 0.08350619674
outer loop
vertex -99.62399292 34.27846527 266.8268433
vertex -99.62091827 34.24451447 266.628418
vertex -99.42115784 33.9892807 266.8766785

endloop
endfacet
facet normal -0.8169013858 -0.5726911426 0.06853469461
outer loop
vertex -99.42115784 33.9892807 266.8766785
vertex -99.62091827 34.24451447 266.628418
vertex -99.41395569 33.95526886 266.6783142

endloop
endfacet
facet normal -0.825545013 -0.5604492426 0.06612185389
outer loop
vertex -99.42115784 33.9892807 266.8766785
vertex -99.41395569 33.95526886 266.6783142
vertex -99.22108459 33.70058441 266.9276428

endloop
endfacet
facet normal -0.8161457181 -0.576266706 0.04269362986
outer loop
vertex -99.22108459 33.70058441 266.9276428
vertex -99.41395569 33.95526886 266.6783142
vertex -99.20738983 33.66652679 266.7297363

endloop
endfacet
facet normal -0.8314287066 -0.5543398261 0.03786269575
outer loop
vertex -99.22108459 33.70058441 266.9276428
vertex -99.20738983 33.66652679 266.7297363
vertex -99.03034973 33.41797638 266.9783936

endloop
endfacet
facet normal -0.81086725 -0.5851807594 -0.007604482118
outer loop
vertex -99.03034973 33.41797638 266.9783936
vertex -99.20738983 33.66652679 266.7297363
vertex -99.00379944 33.38373566 266.7822266

endloop
endfacet
facet normal -0.8282070756 -0.5602396131 -0.0143048102
outer loop
vertex -99.03034973 33.41797638 266.9783936
vertex -99.00379944 33.38373566 266.7822266
vertex -98.83629608 33.12978363 267.0301514

endloop
endfacet
facet normal -0.805108726 -0.5900402069 -0.06043565273
outer loop
vertex -98.83629608 33.12978363 267.0301514
vertex -99.00379944 33.38373566 266.7822266
vertex -98.79779816 33.09659576 266.8413086

endloop
endfacet
facet normal -0.8398064971 -0.5374475121 -0.0766499266
outer loop
vertex -98.83628845 33.12979889 267.0301819
vertex -98.79779816 33.09659576 266.8412781
vertex -98.61936951 32.7858963 267.0648804

endloop
endfacet
facet normal -0.8083584309 -0.5700351596 -0.1470258981
outer loop
vertex -98.61936951 32.7858963 267.0648804
vertex -98.79779816 33.09659576 266.8412781
vertex -98.5692749 32.76033783 266.8885498

endloop
endfacet
facet normal -0.1695083827 -0.9810318351 0.09404051304
outer loop
vertex -98.61936951 32.7858963 267.0648804
vertex -98.5692749 32.76033783 266.8885498
vertex -98.19091034 32.71125031 267.0584717

endloop
endfacet
facet normal 0.3814245462 -0.1907122731 -0.9045132399
outer loop
vertex -98.19091034 32.71125031 267.0584717
vertex -98.5692749 32.76033783 266.8885498
vertex -98.19090271 32.71126556 267.0584717

endloop
endfacet
facet normal -0.9285314083 0.3320596814 -0.1660298407
outer loop
vertex -102.1288986 38.30158234 266.4891052
vertex -102.1288986 38.30156708 266.4890747
vertex -102.2576523 37.93740082 266.4808044

endloop
endfacet
facet normal -0.9118128419 0.3279880583 -0.2470246851
outer loop
vertex -102.2576523 37.93740082 266.4808044
vertex -102.1288986 38.30156708 266.4890747
vertex -102.1539688 38.0096817 266.1940613

endloop
endfacet
facet normal -0.741406858 -0.5363538861 -0.4032869339
outer loop
vertex -102.2576523 37.93740082 266.4808044
vertex -102.1539688 38.0096817 266.1940613
vertex -102.0882797 37.68599701 266.5037842

endloop
endfacet
facet normal -0.7760807276 -0.5110527277 -0.3694912493
outer loop
vertex -102.0882797 37.68599701 266.5037842
vertex -102.1539688 38.0096817 266.1940613
vertex -101.983902 37.75653839 266.1869812

endloop
endfacet
facet normal -0.7847288847 -0.4977544248 -0.369379431
outer loop
vertex -102.0882797 37.68599701 266.5037842
vertex -101.983902 37.75653839 266.1869812
vertex -101.9226151 37.42414093 266.5046997

endloop
endfacet
facet normal -0.7850020528 -0.4975338876 -0.3690960407
outer loop
vertex -101.9226151 37.42414093 266.5046997
vertex -101.983902 37.75653839 266.1869812
vertex -101.8152084 37.49633026 266.1789551

endloop
endfacet
facet normal -0.7642917037 -0.5287367702 -0.3691822588
outer loop
vertex -101.9226151 37.42414093 266.5046997
vertex -101.8152084 37.49633026 266.1789551
vertex -101.7253189 37.13907623 266.5045166

endloop
endfacet
facet normal -0.7609129548 -0.5311173797 -0.3727274537
outer loop
vertex -101.7253189 37.13907623 266.5045166
vertex -101.8152084 37.49633026 266.1789551
vertex -101.6173706 37.21295929 266.1788635

endloop
endfacet
facet normal -0.7555594444 -0.5387375355 -0.3726816773
outer loop
vertex -101.7253189 37.13907623 266.5045166
vertex -101.6173706 37.21295929 266.1788635
vertex -101.5177994 36.84740448 266.5054321

endloop
endfacet
facet normal -0.7526002526 -0.540713191 -0.3757953346
outer loop
vertex -101.5177994 36.84740448 266.5054321
vertex -101.6173706 37.21295929 266.1788635
vertex -101.4091797 36.92229462 266.1801453

endloop
endfacet
facet normal -0.7525987029 -0.5407152176 -0.3757953346
outer loop
vertex -101.5177994 36.84740448 266.5054321
vertex -101.4091797 36.92229462 266.1801453
vertex -101.3088837 36.55573273 266.5067139

endloop
endfacet
facet normal -0.7478434443 -0.5438337326 -0.3807560802
outer loop
vertex -101.3088837 36.55573273 266.5067139
vertex -101.4091797 36.92229462 266.1801453
vertex -101.1982117 36.63077545 266.1821594

endloop
endfacet
facet normal -0.7491047978 -0.5420777798 -0.38078022
outer loop
vertex -101.3088837 36.55573273 266.5067139
vertex -101.1982117 36.63077545 266.1821594
vertex -101.1000671 36.26581573 266.5086365

endloop
endfacet
facet normal -0.7404162288 -0.5476797819 -0.3896545768
outer loop
vertex -101.1000671 36.26581573 266.5086365
vertex -101.1982117 36.63077545 266.1821594
vertex -100.9858017 36.34127045 266.1854553

endloop
endfacet
facet normal -0.7405194044 -0.5475114584 -0.3896950483
outer loop
vertex -101.1000748 36.26581573 266.5086365
vertex -100.9858017 36.34128571 266.1854553
vertex -100.8888397 35.97696686 266.5130615

endloop
endfacet
facet normal -0.7304685116 -0.5537953377 -0.3996578753
outer loop
vertex -100.8888397 35.97696686 266.5130615
vertex -100.9858017 36.34128571 266.1854553
vertex -100.7706528 36.05313873 266.1914978

endloop
endfacet
facet normal -0.7341496944 -0.5487850904 -0.399824053
outer loop
vertex -100.8888397 35.97696686 266.5130615
vertex -100.7706528 36.05313873 266.1914978
vertex -100.6763382 35.68828583 266.519104

endloop
endfacet
facet normal -0.718993485 -0.5579585433 -0.4144037366
outer loop
vertex -100.6763382 35.68828583 266.519104
vertex -100.7706528 36.05313873 266.1914978
vertex -100.5517426 35.76465607 266.2001038

endloop
endfacet
facet normal -0.726715982 -0.5474870801 -0.4148995578
outer loop
vertex -100.6763306 35.68830109 266.5191345
vertex -100.5517349 35.76468658 266.2001038
vertex -100.4643097 35.3998642 266.5283813

endloop
endfacet
facet normal -0.7044757605 -0.5605389476 -0.4353272617
outer loop
vertex -100.4643097 35.3998642 266.5283813
vertex -100.5517349 35.76468658 266.2001038
vertex -100.3303223 35.47620392 266.2132568

endloop
endfacet
facet normal -0.7138037086 -0.5478937626 -0.4362300336
outer loop
vertex -100.4643097 35.3998642 266.5283813
vertex -100.3303223 35.47620392 266.2132568
vertex -100.2525406 35.1115036 266.5440369

endloop
endfacet
facet normal -0.690587163 -0.5611432791 -0.4562975764
outer loop
vertex -100.2525406 35.1115036 266.5440369
vertex -100.3303223 35.47620392 266.2132568
vertex -100.1091156 35.1878891 266.2330322

endloop
endfacet
facet normal -0.7006800771 -0.5474185348 -0.4575811923
outer loop
vertex -100.2525406 35.1115036 266.5440369
vertex -100.1091156 35.1878891 266.2330322
vertex -100.0407791 34.8227005 266.5652771

endloop
endfacet
facet normal -0.6744458675 -0.5619235635 -0.4789203107
outer loop
vertex -100.0407791 34.8227005 266.5652771
vertex -100.1091156 35.1878891 266.2330322
vertex -99.88715363 34.899086 266.2593079

endloop
endfacet
facet normal -0.6873393059 -0.5442598462 -0.4809842706
outer loop
vertex -100.0407791 34.8227005 266.5652771
vertex -99.88715363 34.899086 266.2593079
vertex -99.83001709 34.53360748 266.591217

endloop
endfacet
facet normal -0.6492121816 -0.5644696355 -0.5098014474
outer loop
vertex -99.83001709 34.53360748 266.591217
vertex -99.88715363 34.899086 266.2593079
vertex -99.66204834 34.60984039 266.2929077

endloop
endfacet
facet normal -0.6630578637 -0.5454050899 -0.5127255917
outer loop
vertex -99.83000946 34.533638 266.5912476
vertex -99.66204071 34.60987091 266.2929382
vertex -99.62091827 34.24449921 266.628418

endloop
endfacet
facet normal -0.6252194047 -0.564858079 -0.5385499597
outer loop
vertex -99.62091827 34.24449921 266.628418
vertex -99.66204071 34.60987091 266.2929382
vertex -99.43965912 34.32080841 266.3379517

endloop
endfacet
facet normal -0.636682272 -0.548979938 -0.541531682
outer loop
vertex -99.62091827 34.24449921 266.628418
vertex -99.43965912 34.32080841 266.3379517
vertex -99.41395569 33.95528412 266.6782837

endloop
endfacet
facet normal -0.6189252734 -0.5581061244 -0.5526744723
outer loop
vertex -99.41395569 33.95528412 266.6782837
vertex -99.43965912 34.32080841 266.3379517
vertex -99.22673035 34.03160858 266.3915405

endloop
endfacet
facet normal -0.6266960502 -0.5471790433 -0.5548397899
outer loop
vertex -99.41395569 33.95528412 266.6782837
vertex -99.22673035 34.03160858 266.3915405
vertex -99.20738983 33.66652679 266.7297363

endloop
endfacet
facet normal -0.5983527303 -0.5613299608 -0.5717365146
outer loop
vertex -99.20738983 33.66652679 266.7297363
vertex -99.22673035 34.03160858 266.3915405
vertex -99.01113892 33.7430191 266.4492493

endloop
endfacet
facet normal -0.6094679832 -0.5455907583 -0.5752213001
outer loop
vertex -99.20738983 33.66652679 266.7297363
vertex -99.01113892 33.7430191 266.4492493
vertex -99.00380707 33.38373566 266.7822571

endloop
endfacet
facet normal -0.5516320467 -0.5730229616 -0.6060914397
outer loop
vertex -99.00380707 33.38373566 266.7822571
vertex -99.01113892 33.7430191 266.4492493
vertex -98.79063416 33.46070099 266.5154724

endloop
endfacet
facet normal -0.575186193 -0.5392062068 -0.6151564121
outer loop
vertex -99.00380707 33.38373566 266.7822571
vertex -98.79063416 33.46070099 266.5154724
vertex -98.79779816 33.09661102 266.8413086

endloop
endfacet
facet normal -0.5151810646 -0.5659160614 -0.6436827779
outer loop
vertex -98.79779816 33.09661102 266.8413086
vertex -98.79063416 33.46070099 266.5154724
vertex -98.57357788 33.17150116 266.5960083

endloop
endfacet
facet normal -0.5692491531 -0.48059237 -0.6670728922
outer loop
vertex -98.79779816 33.09659576 266.8413086
vertex -98.57357025 33.1714859 266.5960083
vertex -98.56928253 32.76035309 266.8885498

endloop
endfacet
facet normal -0.5061085224 -0.5035244226 -0.7002266049
outer loop
vertex -98.56928253 32.76035309 266.8885498
vertex -98.57357025 33.1714859 266.5960083
vertex -98.35005951 32.83385468 266.6772461

endloop
endfacet
facet normal 0.01718223095 -0.9497485161 -0.3125419915
outer loop
vertex -98.56928253 32.76035309 266.8885498
vertex -98.35005951 32.83385468 266.6772461
vertex -98.19090271 32.71128082 267.0584717

endloop
endfacet
facet normal -0.9227442741 0 0.3854127228
outer loop
vertex -98.19090271 32.71128082 267.0584717
vertex -98.35005951 32.83385468 266.6772461
vertex -98.19090271 32.71126556 267.0584717

endloop
endfacet
endsolid
