solid 
facet normal 0.995419 -0.0956063 0
outer loop
vertex -44.30410004 31.76696014 348.4308777
vertex -44.30410004 31.76696014 348.4309082
vertex -44.32793427 31.51880646 348.4249573

endloop
endfacet
facet normal 0.6761942506 -0.04731515795 -0.7352024317
outer loop
vertex -44.32793427 31.51880646 348.4249573
vertex -44.30410004 31.76696014 348.4309082
vertex -44.16307831 31.6342392 348.5691528

endloop
endfacet
facet normal 0.6702472568 -0.7167332768 -0.192514658
outer loop
vertex -44.32793427 31.51880646 348.4249573
vertex -44.16307831 31.6342392 348.5691528
vertex -44.40781403 31.42107391 348.5107117

endloop
endfacet
facet normal 0.6697250009 -0.7256445885 -0.1578236222
outer loop
vertex -44.40781403 31.42107391 348.5107117
vertex -44.16307831 31.6342392 348.5691528
vertex -44.19213104 31.57845306 348.7023621

endloop
endfacet
facet normal 0.5745435357 -0.8180857897 0.02520408668
outer loop
vertex -44.40781403 31.42107391 348.5107117
vertex -44.19213104 31.57845306 348.7023621
vertex -44.52318573 31.34372711 348.630127

endloop
endfacet
facet normal 0.5690532923 -0.8202866316 0.0575177595
outer loop
vertex -44.52318573 31.34372711 348.630127
vertex -44.19213104 31.57845306 348.7023621
vertex -44.26772308 31.5374527 348.865509

endloop
endfacet
facet normal 0.4784623384 -0.8579936624 0.1868709475
outer loop
vertex -44.52318573 31.34372711 348.630127
vertex -44.26772308 31.5374527 348.865509
vertex -44.67401886 31.29146576 348.7763672

endloop
endfacet
facet normal 0.4731439352 -0.8563941717 0.2066977024
outer loop
vertex -44.67401886 31.29146576 348.7763672
vertex -44.26772308 31.5374527 348.865509
vertex -44.38932037 31.51491547 349.0504761

endloop
endfacet
facet normal 0.3855369985 -0.8696057796 0.3084590435
outer loop
vertex -44.67401886 31.29146576 348.7763672
vertex -44.38932037 31.51491547 349.0504761
vertex -44.84648895 31.27031708 348.932312

endloop
endfacet
facet normal 0.3825554848 -0.8679826856 0.3166344762
outer loop
vertex -44.84648895 31.27031708 348.932312
vertex -44.38932037 31.51491547 349.0504761
vertex -44.544487 31.51380157 349.2348938

endloop
endfacet
facet normal 0.3078607619 -0.8674757481 0.3907781541
outer loop
vertex -44.84648895 31.27031708 348.932312
vertex -44.544487 31.51380157 349.2348938
vertex -45.02625275 31.27550507 349.0854492

endloop
endfacet
facet normal 0.3069217801 -0.8668742776 0.3928461075
outer loop
vertex -45.02625275 31.27550507 349.0854492
vertex -44.544487 31.51380157 349.2348938
vertex -44.7175827 31.52983856 349.4055176

endloop
endfacet
facet normal 0.2522209883 -0.8612654805 0.4411420524
outer loop
vertex -45.02625275 31.27550507 349.0854492
vertex -44.7175827 31.52983856 349.4055176
vertex -45.20688629 31.29738617 349.2314453

endloop
endfacet
facet normal 0.252938211 -0.8617531061 0.4397770464
outer loop
vertex -45.20688629 31.29738617 349.2314453
vertex -44.7175827 31.52983856 349.4055176
vertex -44.89992523 31.55587006 349.5614014

endloop
endfacet
facet normal 0.2152620256 -0.8558404446 0.4703183174
outer loop
vertex -45.20688629 31.29737091 349.2314453
vertex -44.89992523 31.55588531 349.5613708
vertex -45.38967133 31.32840729 349.371582

endloop
endfacet
facet normal 0.2175457776 -0.8574383855 0.466340363
outer loop
vertex -45.38967133 31.32840729 349.371582
vertex -44.89992523 31.55588531 349.5613708
vertex -45.09008026 31.58704376 349.7073669

endloop
endfacet
facet normal 0.189456895 -0.8523364067 0.4874718189
outer loop
vertex -45.38967133 31.32840729 349.371582
vertex -45.09008026 31.58704376 349.7073669
vertex -45.57660675 31.36489105 349.5080261

endloop
endfacet
facet normal 0.1927376986 -0.8546715975 0.4820668995
outer loop
vertex -45.57660675 31.36489105 349.5080261
vertex -45.09008026 31.58704376 349.7073669
vertex -45.28688812 31.62110138 349.8464355

endloop
endfacet
facet normal 0.1710743904 -0.8504681587 0.4974308014
outer loop
vertex -45.57659149 31.36490631 349.5080566
vertex -45.28687286 31.62111664 349.8464661
vertex -45.76647186 31.40494537 349.6418152

endloop
endfacet
facet normal 0.1741431206 -0.8526728153 0.4925679862
outer loop
vertex -45.76647186 31.40494537 349.6418152
vertex -45.28687286 31.62111664 349.8464661
vertex -45.48740387 31.65699005 349.9794617

endloop
endfacet
facet normal 0.1554052979 -0.848880291 0.5052240491
outer loop
vertex -45.76647186 31.40494537 349.6418152
vertex -45.48740387 31.65699005 349.9794617
vertex -45.95742035 31.44747162 349.7720032

endloop
endfacet
facet normal 0.1583698988 -0.8510255814 0.5006740689
outer loop
vertex -45.95742035 31.44747162 349.7720032
vertex -45.48740387 31.65699005 349.9794617
vertex -45.69045258 31.69394684 350.1065063

endloop
endfacet
facet normal 0.1362047195 -0.8463493586 0.5149184465
outer loop
vertex -45.95742035 31.44747162 349.7720032
vertex -45.69045258 31.69394684 350.1065063
vertex -46.15053558 31.49216461 349.8965454

endloop
endfacet
facet normal 0.1408097744 -0.8497261405 0.5080728531
outer loop
vertex -46.15053558 31.49216461 349.8965454
vertex -45.69045258 31.69394684 350.1065063
vertex -45.89858246 31.73197174 350.2277832

endloop
endfacet
facet normal 0.1084359512 -0.8425877094 0.5275297165
outer loop
vertex -46.15053558 31.49216461 349.8965454
vertex -45.89858246 31.73197174 350.2277832
vertex -46.34914398 31.54010773 350.0139465

endloop
endfacet
facet normal 0.1156079546 -0.8479840755 0.5172598958
outer loop
vertex -46.34914398 31.54010773 350.0139465
vertex -45.89858246 31.73197174 350.2277832
vertex -46.115242 31.77231598 350.3423462

endloop
endfacet
facet normal 0.07054369897 -0.8374477029 0.5419455767
outer loop
vertex -46.34912872 31.54012299 350.0139771
vertex -46.11522675 31.7723465 350.3423767
vertex -46.55397797 31.59406281 350.1239929

endloop
endfacet
facet normal 0.07919757068 -0.8442305923 0.5300966501
outer loop
vertex -46.55397797 31.59406281 350.1239929
vertex -46.11522675 31.7723465 350.3423767
vertex -46.3385849 31.81717682 350.4471436

endloop
endfacet
facet normal 0.02326954156 -0.8298752308 0.5574635863
outer loop
vertex -46.55397797 31.59406281 350.1239929
vertex -46.3385849 31.81717682 350.4471436
vertex -46.75795746 31.65732574 350.2266846

endloop
endfacet
facet normal 0.02931296825 -0.8349044323 0.5496138334
outer loop
vertex -46.75795746 31.65732574 350.2266846
vertex -46.3385849 31.81717682 350.4471436
vertex -46.55905914 31.8682785 350.5365295

endloop
endfacet
facet normal -0.03319102898 -0.8161107898 0.5769415498
outer loop
vertex -46.75795746 31.65732574 350.2266846
vertex -46.55905914 31.8682785 350.5365295
vertex -46.94693756 31.73169708 350.3210144

endloop
endfacet
facet normal -0.03481036797 -0.8146386743 0.5789231658
outer loop
vertex -46.94693756 31.73169708 350.3210144
vertex -46.55905914 31.8682785 350.5365295
vertex -46.76221466 31.9253006 350.6045532

endloop
endfacet
facet normal -0.09717815369 -0.7913184762 0.6036319137
outer loop
vertex -46.94693756 31.73169708 350.3210144
vertex -46.76221466 31.9253006 350.6045532
vertex -47.10503387 31.81478119 350.40448

endloop
endfacet
facet normal -0.112649262 -0.775396347 0.621345818
outer loop
vertex -47.10503387 31.81478119 350.40448
vertex -46.76221466 31.9253006 350.6045532
vertex -46.93453217 31.98496246 350.6477661

endloop
endfacet
facet normal -0.1671848893 -0.7490156293 0.641112268
outer loop
vertex -47.10503387 31.81478119 350.40448
vertex -46.93453217 31.98496246 350.6477661
vertex -47.22193146 31.89962006 350.473114

endloop
endfacet
facet normal -0.2006932497 -0.7085767388 0.6764919758
outer loop
vertex -47.22193146 31.89962006 350.473114
vertex -46.93453217 31.98496246 350.6477661
vertex -47.06847382 32.04163361 350.6673889

endloop
endfacet
facet normal -0.2551372647 -0.6733984947 0.6938583851
outer loop
vertex -47.22193146 31.89962006 350.4731445
vertex -47.06845856 32.04161835 350.6673889
vertex -47.30187225 31.98685455 350.5284119

endloop
endfacet
facet normal -0.3055854142 -0.5913643837 0.7462612391
outer loop
vertex -47.30187225 31.98685455 350.5284119
vertex -47.06845856 32.04161835 350.6673889
vertex -47.17287445 32.09542084 350.6672668

endloop
endfacet
facet normal -0.6543285847 -0.1660963446 0.7377438545
outer loop
vertex -47.30187225 31.98685455 350.5284119
vertex -47.17287445 32.09542084 350.6672668
vertex -47.33260345 32.21486664 350.5524902

endloop
endfacet
facet normal -nan(ind) -nan(ind) -nan(ind)
outer loop
vertex -47.33260345 32.21486664 350.5524902
vertex -47.17287445 32.09542084 350.6672668
vertex -47.33260345 32.21486664 350.5524902

endloop
endfacet
facet normal -0.7548307776 -0.6363354921 0.159083873
outer loop
vertex -44.30410004 31.76696014 348.4309082
vertex -44.30410004 31.76694489 348.4308472
vertex -44.16307831 31.6342392 348.5691528

endloop
endfacet
facet normal 0.754216373 0.1308759451 -0.6434509754
outer loop
vertex -44.16307831 31.6342392 348.5691528
vertex -44.30410004 31.76694489 348.4308472
vertex -44.13393402 31.75286102 348.6274414

endloop
endfacet
facet normal 0.9557386637 -0.2796872258 0.09131613374
outer loop
vertex -44.16307831 31.6342392 348.5691528
vertex -44.13393402 31.75286102 348.6274414
vertex -44.19213104 31.57845306 348.7023621

endloop
endfacet
facet normal 0.9541325569 -0.293920815 0.0569341816
outer loop
vertex -44.19213104 31.57845306 348.7023621
vertex -44.13393402 31.75286102 348.6274414
vertex -44.14626312 31.73972321 348.7662354

endloop
endfacet
facet normal 0.8743312955 -0.3720882833 0.3116008341
outer loop
vertex -44.19213104 31.57845306 348.7023621
vertex -44.14626312 31.73972321 348.7662354
vertex -44.26772308 31.5374527 348.865509

endloop
endfacet
facet normal 0.8750989437 -0.3758711219 0.3048324585
outer loop
vertex -44.26772308 31.5374527 348.865509
vertex -44.14626312 31.73972321 348.7662354
vertex -44.20508575 31.73567963 348.9301147

endloop
endfacet
facet normal 0.7870289087 -0.4013798535 0.4684866369
outer loop
vertex -44.26772308 31.5374527 348.865509
vertex -44.20508575 31.73567963 348.9301147
vertex -44.38932037 31.51491547 349.0504761

endloop
endfacet
facet normal 0.786038518 -0.3981600106 0.4728764892
outer loop
vertex -44.38932037 31.51491547 349.0504761
vertex -44.20508575 31.73567963 348.9301147
vertex -44.31160736 31.74332428 349.1136169

endloop
endfacet
facet normal 0.7020059824 -0.401458174 0.5882336497
outer loop
vertex -44.38932037 31.51491547 349.0504761
vertex -44.31160736 31.74332428 349.1136169
vertex -44.544487 31.51380157 349.2348938

endloop
endfacet
facet normal 0.6995590925 -0.3952288032 0.5953245163
outer loop
vertex -44.544487 31.51380157 349.2348938
vertex -44.31160736 31.74332428 349.1136169
vertex -44.4562912 31.76267242 349.2964783

endloop
endfacet
facet normal 0.6280757189 -0.3893070221 0.6737661362
outer loop
vertex -44.544487 31.51380157 349.2348938
vertex -44.4562912 31.76267242 349.2964783
vertex -44.7175827 31.52983856 349.4055176

endloop
endfacet
facet normal 0.6255345941 -0.3839074075 0.6792066693
outer loop
vertex -44.7175827 31.52983856 349.4055176
vertex -44.4562912 31.76267242 349.2964783
vertex -44.62447357 31.78980255 349.4667053

endloop
endfacet
facet normal 0.5704680085 -0.3761665225 0.7301129103
outer loop
vertex -44.7175827 31.52983856 349.4055176
vertex -44.62447357 31.78980255 349.4667053
vertex -44.89992523 31.55587006 349.5614014

endloop
endfacet
facet normal 0.5691568255 -0.373696208 0.7324012518
outer loop
vertex -44.89992523 31.55587006 349.5614014
vertex -44.62447357 31.78980255 349.4667053
vertex -44.80622101 31.82012177 349.6234131

endloop
endfacet
facet normal 0.5279305577 -0.3669442832 0.7659250498
outer loop
vertex -44.89992523 31.55588531 349.5613708
vertex -44.80622101 31.82013702 349.6233826
vertex -45.09008026 31.58704376 349.7073669

endloop
endfacet
facet normal 0.5282754898 -0.3675556779 0.7653938532
outer loop
vertex -45.09008026 31.58704376 349.7073669
vertex -44.80622101 31.82013702 349.6233826
vertex -44.99803925 31.85138702 349.7707825

endloop
endfacet
facet normal 0.4953784347 -0.3619294763 0.7896881104
outer loop
vertex -45.09008026 31.58704376 349.7073669
vertex -44.99803925 31.85138702 349.7707825
vertex -45.28688812 31.62110138 349.8464355

endloop
endfacet
facet normal 0.4965958595 -0.3640247881 0.7879583836
outer loop
vertex -45.28688812 31.62110138 349.8464355
vertex -44.99803925 31.85138702 349.7707825
vertex -45.19742584 31.88298798 349.9110413

endloop
endfacet
facet normal 0.4702546299 -0.3594584167 0.8060088754
outer loop
vertex -45.28687286 31.62111664 349.8464661
vertex -45.19741058 31.88301849 349.9110718
vertex -45.48740387 31.65699005 349.9794617

endloop
endfacet
facet normal 0.4715280533 -0.3616089225 0.8043011427
outer loop
vertex -45.48740387 31.65699005 349.9794617
vertex -45.19741058 31.88301849 349.9110718
vertex -45.40100861 31.9146347 350.0446472

endloop
endfacet
facet normal 0.4477369785 -0.3574990034 0.8195890188
outer loop
vertex -45.48740387 31.65699005 349.9794617
vertex -45.40100861 31.9146347 350.0446472
vertex -45.69045258 31.69394684 350.1065063

endloop
endfacet
facet normal 0.4493258297 -0.3601530194 0.8175549507
outer loop
vertex -45.69045258 31.69394684 350.1065063
vertex -45.40100861 31.9146347 350.0446472
vertex -45.60752106 31.94586945 350.1719055

endloop
endfacet
facet normal 0.4213025868 -0.3553068042 0.8344227672
outer loop
vertex -45.69045258 31.69394684 350.1065063
vertex -45.60752106 31.94586945 350.1719055
vertex -45.89858246 31.73197174 350.2277832

endloop
endfacet
facet normal 0.4237065911 -0.359349668 0.8314689398
outer loop
vertex -45.89858246 31.73197174 350.2277832
vertex -45.60752106 31.94586945 350.1719055
vertex -45.81925201 31.97704315 350.2932739

endloop
endfacet
facet normal 0.3852678239 -0.3526028991 0.85278368
outer loop
vertex -45.89858246 31.73197174 350.2277832
vertex -45.81925201 31.97704315 350.2932739
vertex -46.115242 31.77231598 350.3423462

endloop
endfacet
facet normal 0.3887173533 -0.3585633337 0.8487232924
outer loop
vertex -46.115242 31.77231598 350.3423462
vertex -45.81925201 31.97704315 350.2932739
vertex -46.03908539 32.00960541 350.4077148

endloop
endfacet
facet normal 0.3394281864 -0.3496122956 0.8732466102
outer loop
vertex -46.11522675 31.7723465 350.3423767
vertex -46.03907013 32.00963593 350.4077759
vertex -46.3385849 31.81717682 350.4471436

endloop
endfacet
facet normal 0.3426868916 -0.3554255366 0.8696196675
outer loop
vertex -46.3385849 31.81717682 350.4471436
vertex -46.03907013 32.00963593 350.4077759
vertex -46.26509857 32.04520416 350.5113831

endloop
endfacet
facet normal 0.2833708227 -0.3435608447 0.8953585029
outer loop
vertex -46.3385849 31.81717682 350.4471436
vertex -46.26509857 32.04520416 350.5113831
vertex -46.55905914 31.8682785 350.5365295

endloop
endfacet
facet normal 0.2848089933 -0.3461575508 0.8939008713
outer loop
vertex -46.55905914 31.8682785 350.5365295
vertex -46.26509857 32.04520416 350.5113831
vertex -46.48813629 32.08393097 350.5974426

endloop
endfacet
facet normal 0.2150199115 -0.3303105235 0.9190546274
outer loop
vertex -46.55905914 31.8682785 350.5365295
vertex -46.48813629 32.08393097 350.5974426
vertex -46.76221466 31.9253006 350.6045532

endloop
endfacet
facet normal 0.2121476233 -0.3252369761 0.9215282202
outer loop
vertex -46.76221466 31.9253006 350.6045532
vertex -46.48813629 32.08393097 350.5974426
vertex -46.6947403 32.1233139 350.658905

endloop
endfacet
facet normal 0.1314503103 -0.3038035035 0.9436228871
outer loop
vertex -46.76221466 31.9253006 350.6045532
vertex -46.6947403 32.1233139 350.658905
vertex -46.93453217 31.98496246 350.6477661

endloop
endfacet
facet normal 0.1222527251 -0.2883505225 0.9496884942
outer loop
vertex -46.93453217 31.98496246 350.6477661
vertex -46.6947403 32.1233139 350.658905
vertex -46.87212372 32.15917206 350.692627

endloop
endfacet
facet normal 0.03147030622 -0.2598095536 0.9651469588
outer loop
vertex -46.93453217 31.98496246 350.6477661
vertex -46.87212372 32.15917206 350.692627
vertex -47.06847382 32.04163361 350.6673889

endloop
endfacet
facet normal 0.01269609574 -0.2301487178 0.973072648
outer loop
vertex -47.06847382 32.04163361 350.6673889
vertex -46.87212372 32.15917206 350.692627
vertex -47.01313019 32.18726349 350.7011108

endloop
endfacet
facet normal -0.0984358266 -0.1888201535 0.9770656824
outer loop
vertex -47.06845856 32.04161835 350.6673889
vertex -47.01311493 32.18726349 350.7011108
vertex -47.17287445 32.09542084 350.6672668

endloop
endfacet
facet normal -0.1265241206 -0.1417018324 0.9817903042
outer loop
vertex -47.17287445 32.09542084 350.6672668
vertex -47.01311493 32.18726349 350.7011108
vertex -47.12744904 32.20709991 350.6892395

endloop
endfacet
facet normal -0.5520153642 0.06091503799 0.8316058517
outer loop
vertex -47.17287445 32.09542084 350.6672668
vertex -47.12744904 32.20709991 350.6892395
vertex -47.33260345 32.21486664 350.5524902

endloop
endfacet
facet normal 0 -0.9983932376 -0.05666616559
outer loop
vertex -47.33260345 32.21486664 350.5524902
vertex -47.12744904 32.20709991 350.6892395
vertex -47.33261871 32.21486664 350.5524902

endloop
endfacet
facet normal 0.6586965322 0.5320333242 -0.5320333242
outer loop
vertex -44.30410004 31.76694489 348.4308472
vertex -44.30410004 31.7669754 348.4308777
vertex -44.13393402 31.75286102 348.6274414

endloop
endfacet
facet normal 0.7322835922 0.2975035906 -0.6125784516
outer loop
vertex -44.13393402 31.75286102 348.6274414
vertex -44.30410004 31.7669754 348.4308777
vertex -44.16230011 31.85736847 348.6442871

endloop
endfacet
facet normal 0.9636538029 0.2440394014 0.1087016463
outer loop
vertex -44.13393402 31.75286102 348.6274414
vertex -44.16230011 31.85736847 348.6442871
vertex -44.14626312 31.73972321 348.7662354

endloop
endfacet
facet normal 0.9812608361 0.1859820485 0.05037743598
outer loop
vertex -44.14626312 31.73972321 348.7662354
vertex -44.16230011 31.85736847 348.6442871
vertex -44.17337799 31.88137054 348.7714539

endloop
endfacet
facet normal 0.9269962907 0.1650419533 0.3368070126
outer loop
vertex -44.14626312 31.73972321 348.7662354
vertex -44.17337799 31.88137054 348.7714539
vertex -44.20508575 31.73567963 348.9301147

endloop
endfacet
facet normal 0.9400994182 0.1358816028 0.3126489818
outer loop
vertex -44.20508575 31.73567963 348.9301147
vertex -44.17337799 31.88137054 348.7714539
vertex -44.22655487 31.90949249 348.9191284

endloop
endfacet
facet normal 0.8591306806 0.1372800171 0.4929997027
outer loop
vertex -44.20508575 31.73567963 348.9301147
vertex -44.22655487 31.90949249 348.9191284
vertex -44.31160736 31.74332428 349.1136169

endloop
endfacet
facet normal 0.8640268445 0.1277224422 0.4869749844
outer loop
vertex -44.31160736 31.74332428 349.1136169
vertex -44.22655487 31.90949249 348.9191284
vertex -44.3254776 31.94350433 349.0857239

endloop
endfacet
facet normal 0.7837264538 0.1386639774 0.6054295897
outer loop
vertex -44.31160736 31.74332428 349.1136169
vertex -44.3254776 31.94350433 349.0857239
vertex -44.4562912 31.76267242 349.2964783

endloop
endfacet
facet normal 0.7824534774 0.1409008056 0.6065586805
outer loop
vertex -44.4562912 31.76267242 349.2964783
vertex -44.3254776 31.94350433 349.0857239
vertex -44.46375275 31.98067474 349.2554626

endloop
endfacet
facet normal 0.7150796652 0.1528140604 0.682135582
outer loop
vertex -44.4562912 31.76267242 349.2964783
vertex -44.46375275 31.98067474 349.2554626
vertex -44.62447357 31.78980255 349.4667053

endloop
endfacet
facet normal 0.7120431066 0.1576617658 0.6842055917
outer loop
vertex -44.62447357 31.78980255 349.4667053
vertex -44.46375275 31.98067474 349.2554626
vertex -44.62831879 32.01747894 349.4182434

endloop
endfacet
facet normal 0.6596686244 0.1671086103 0.7327427268
outer loop
vertex -44.62447357 31.78980255 349.4667053
vertex -44.62831879 32.01747894 349.4182434
vertex -44.80622101 31.82012177 349.6234131

endloop
endfacet
facet normal 0.6579371095 0.1696742773 0.7337093353
outer loop
vertex -44.80622101 31.82012177 349.6234131
vertex -44.62831879 32.01747894 349.4182434
vertex -44.8086319 32.05156708 349.572052

endloop
endfacet
facet normal 0.617667377 0.1764080524 0.7663988471
outer loop
vertex -44.80622101 31.82013702 349.6233826
vertex -44.8086319 32.05158234 349.572052
vertex -44.99803925 31.85138702 349.7707825

endloop
endfacet
facet normal 0.6177623272 0.1762730777 0.7663533688
outer loop
vertex -44.99803925 31.85138702 349.7707825
vertex -44.8086319 32.05158234 349.572052
vertex -44.99967194 32.08292389 349.7188416

endloop
endfacet
facet normal 0.5848809481 0.1814711243 0.7905583382
outer loop
vertex -44.99803925 31.85138702 349.7707825
vertex -44.99967194 32.08292389 349.7188416
vertex -45.19742584 31.88298798 349.9110413

endloop
endfacet
facet normal 0.5861188173 0.1797444522 0.7900358438
outer loop
vertex -45.19742584 31.88298798 349.9110413
vertex -44.99967194 32.08292389 349.7188416
vertex -45.19841766 32.11237335 349.8595886

endloop
endfacet
facet normal 0.5590022802 0.1836877763 0.8085637093
outer loop
vertex -45.19741058 31.88301849 349.9110718
vertex -45.1984024 32.11238861 349.8596497
vertex -45.40100861 31.9146347 350.0446472

endloop
endfacet
facet normal 0.5602272749 0.1819971502 0.8080980778
outer loop
vertex -45.40100861 31.9146347 350.0446472
vertex -45.1984024 32.11238861 349.8596497
vertex -45.40167999 32.14028168 349.9942932

endloop
endfacet
facet normal 0.5356935263 0.1854283959 0.8238013983
outer loop
vertex -45.40100861 31.9146347 350.0446472
vertex -45.40167999 32.14028168 349.9942932
vertex -45.60752106 31.94586945 350.1719055

endloop
endfacet
facet normal 0.537469089 0.1829897761 0.8231899142
outer loop
vertex -45.60752106 31.94586945 350.1719055
vertex -45.40167999 32.14028168 349.9942932
vertex -45.60785675 32.16651154 350.1230774

endloop
endfacet
facet normal 0.5091120601 0.1867119521 0.8402044177
outer loop
vertex -45.60752106 31.94586945 350.1719055
vertex -45.60785675 32.16651154 350.1230774
vertex -45.81925201 31.97704315 350.2932739

endloop
endfacet
facet normal 0.5118546486 0.182906583 0.8393747211
outer loop
vertex -45.81925201 31.97704315 350.2932739
vertex -45.60785675 32.16651154 350.1230774
vertex -45.8181839 32.19168854 350.2458496

endloop
endfacet
facet normal 0.4752785563 0.1875597239 0.8596113324
outer loop
vertex -45.81925201 31.97704315 350.2932739
vertex -45.8181839 32.19168854 350.2458496
vertex -46.03908539 32.00960541 350.4077148

endloop
endfacet
facet normal 0.4788506031 0.1824424416 0.8587298393
outer loop
vertex -46.03908539 32.00960541 350.4077148
vertex -45.8181839 32.19168854 350.2458496
vertex -46.03496552 32.21741486 350.3612671

endloop
endfacet
facet normal 0.4335781336 0.188487798 0.8811823726
outer loop
vertex -46.03907013 32.00963593 350.4077759
vertex -46.03495026 32.21744537 350.3612976
vertex -46.26509857 32.04520416 350.5113831

endloop
endfacet
facet normal 0.436169982 0.1846230179 0.8807214499
outer loop
vertex -46.26509857 32.04520416 350.5113831
vertex -46.03495026 32.21744537 350.3612976
vertex -46.25702667 32.24494171 350.4655151

endloop
endfacet
facet normal 0.3821368217 0.1921320558 0.903911829
outer loop
vertex -46.26509857 32.04520416 350.5113831
vertex -46.25702667 32.24494171 350.4655151
vertex -46.48813629 32.08393097 350.5974426

endloop
endfacet
facet normal 0.3820869029 0.1922078431 0.9039168954
outer loop
vertex -46.48813629 32.08393097 350.5974426
vertex -46.25702667 32.24494171 350.4655151
vertex -46.47689056 32.27283478 350.5525208

endloop
endfacet
facet normal 0.3144214749 0.2018614709 0.9275726676
outer loop
vertex -46.48813629 32.08393097 350.5974426
vertex -46.47689056 32.27283478 350.5525208
vertex -46.6947403 32.1233139 350.658905

endloop
endfacet
facet normal 0.3115426302 0.2060861737 0.9276150465
outer loop
vertex -46.6947403 32.1233139 350.658905
vertex -46.47689056 32.27283478 350.5525208
vertex -46.68224335 32.29686737 350.6161499

endloop
endfacet
facet normal 0.2245944142 0.2178116739 0.9497975111
outer loop
vertex -46.6947403 32.1233139 350.658905
vertex -46.68224335 32.29686737 350.6161499
vertex -46.87212372 32.15917206 350.692627

endloop
endfacet
facet normal 0.2187638879 0.2255981565 0.9493407011
outer loop
vertex -46.87212372 32.15917206 350.692627
vertex -46.68224335 32.29686737 350.6161499
vertex -46.86049652 32.31201935 350.6536255

endloop
endfacet
facet normal 0.1055643559 0.2383156717 0.9654334784
outer loop
vertex -46.87212372 32.15917206 350.692627
vertex -46.86049652 32.31201935 350.6536255
vertex -47.01313019 32.18726349 350.7011108

endloop
endfacet
facet normal 0.09736034274 0.2477743179 0.9639133215
outer loop
vertex -47.01313019 32.18726349 350.7011108
vertex -46.86049652 32.31201935 350.6536255
vertex -47.00374603 32.31523895 350.6672668

endloop
endfacet
facet normal -0.05522035435 0.25883919 0.9643406868
outer loop
vertex -47.01311493 32.18726349 350.7011108
vertex -47.00374603 32.31523895 350.6672974
vertex -47.12744904 32.20709991 350.6892395

endloop
endfacet
facet normal -0.06415939331 0.2684200108 0.9611629844
outer loop
vertex -47.12744904 32.20709991 350.6892395
vertex -47.00374603 32.31523895 350.6672974
vertex -47.12102509 32.30556488 350.6621704

endloop
endfacet
facet normal -0.5292590857 0.2568368912 0.808652997
outer loop
vertex -47.12744904 32.20709991 350.6892395
vertex -47.12102509 32.30556488 350.6621704
vertex -47.33261871 32.21486664 350.5524902

endloop
endfacet
facet normal 0 0.7708152533 -0.6370586753
outer loop
vertex -47.33261871 32.21486664 350.5524902
vertex -47.12102509 32.30556488 350.6621704
vertex -47.3325882 32.21486664 350.5524902

endloop
endfacet
facet normal -nan(ind) -nan(ind) -nan(ind)
outer loop
vertex -44.30410004 31.7669754 348.4308777
vertex -44.30410004 31.7669754 348.4308777
vertex -44.16230011 31.85736847 348.6442871

endloop
endfacet
facet normal 0.6599594951 0.425912112 -0.61891222
outer loop
vertex -44.16230011 31.85736847 348.6442871
vertex -44.30410004 31.7669754 348.4308777
vertex -44.23236847 31.94199371 348.6278076

endloop
endfacet
facet normal 0.774132967 0.6309128404 -0.05164451152
outer loop
vertex -44.16230011 31.85736847 348.6442871
vertex -44.23236847 31.94199371 348.6278076
vertex -44.17337799 31.88137054 348.7714539

endloop
endfacet
facet normal 0.8300277591 0.5467423797 -0.1101210937
outer loop
vertex -44.17337799 31.88137054 348.7714539
vertex -44.23236847 31.94199371 348.6278076
vertex -44.25409698 31.99581146 348.7312317

endloop
endfacet
facet normal 0.7778567076 0.6065014601 0.1646051109
outer loop
vertex -44.17337799 31.88137054 348.7714539
vertex -44.25409698 31.99581146 348.7312317
vertex -44.22655487 31.90949249 348.9191284

endloop
endfacet
facet normal 0.8198852539 0.5562919974 0.1353784949
outer loop
vertex -44.22655487 31.90949249 348.9191284
vertex -44.25409698 31.99581146 348.7312317
vertex -44.31052399 32.04976654 348.8512573

endloop
endfacet
facet normal 0.738361299 0.5953162313 0.3168928921
outer loop
vertex -44.22655487 31.90949249 348.9191284
vertex -44.31052399 32.04976654 348.8512573
vertex -44.3254776 31.94350433 349.0857239

endloop
endfacet
facet normal 0.7611197829 0.5711461306 0.3073903024
outer loop
vertex -44.3254776 31.94350433 349.0857239
vertex -44.31052399 32.04976654 348.8512573
vertex -44.40818024 32.10492706 348.9905701

endloop
endfacet
facet normal 0.6804450154 0.598154664 0.4233268201
outer loop
vertex -44.3254776 31.94350433 349.0857239
vertex -44.40818024 32.10492706 348.9905701
vertex -44.46375275 31.98067474 349.2554626

endloop
endfacet
facet normal 0.6879965067 0.5907915235 0.4214572906
outer loop
vertex -44.46375275 31.98067474 349.2554626
vertex -44.40818024 32.10492706 348.9905701
vertex -44.54363251 32.15642548 349.1394958

endloop
endfacet
facet normal 0.6229220629 0.6079573035 0.4922967553
outer loop
vertex -44.46375275 31.98067474 349.2554626
vertex -44.54363251 32.15642548 349.1394958
vertex -44.62831879 32.01747894 349.4182434

endloop
endfacet
facet normal 0.6237096786 0.6072435975 0.492180258
outer loop
vertex -44.62831879 32.01747894 349.4182434
vertex -44.54363251 32.15642548 349.1394958
vertex -44.70592499 32.20102692 349.2901306

endloop
endfacet
facet normal 0.5746957064 0.6176860332 0.5368321538
outer loop
vertex -44.62831879 32.01747894 349.4182434
vertex -44.70592499 32.20102692 349.2901306
vertex -44.8086319 32.05156708 349.572052

endloop
endfacet
facet normal 0.5751441717 0.6173029542 0.5367924571
outer loop
vertex -44.8086319 32.05156708 349.572052
vertex -44.70592499 32.20102692 349.2901306
vertex -44.88426971 32.23816681 349.4385071

endloop
endfacet
facet normal 0.537938118 0.6239054799 0.5668902397
outer loop
vertex -44.8086319 32.05158234 349.572052
vertex -44.88426971 32.23816681 349.4384766
vertex -44.99967194 32.08292389 349.7188416

endloop
endfacet
facet normal 0.5393378735 0.6227525473 0.5668279529
outer loop
vertex -44.99967194 32.08292389 349.7188416
vertex -44.88426971 32.23816681 349.4384766
vertex -45.07271576 32.2695694 349.5832825

endloop
endfacet
facet normal 0.5098930597 0.6271733642 0.588780582
outer loop
vertex -44.99967194 32.08292389 349.7188416
vertex -45.07271576 32.2695694 349.5832825
vertex -45.19841766 32.11237335 349.8595886

endloop
endfacet
facet normal 0.5115712881 0.6258143187 0.588770926
outer loop
vertex -45.19841766 32.11237335 349.8595886
vertex -45.07271576 32.2695694 349.5832825
vertex -45.26842499 32.29727936 349.723877

endloop
endfacet
facet normal 0.487392664 0.6291348934 0.6055061221
outer loop
vertex -45.1984024 32.11238861 349.8596497
vertex -45.26842499 32.29727936 349.7239075
vertex -45.40167999 32.14028168 349.9942932

endloop
endfacet
facet normal 0.4890742004 0.6277852058 0.6055511832
outer loop
vertex -45.40167999 32.14028168 349.9942932
vertex -45.26842499 32.29727936 349.7239075
vertex -45.46881866 32.32216644 349.8599548

endloop
endfacet
facet normal 0.4673756659 0.6303439736 0.6198599935
outer loop
vertex -45.40167999 32.14028168 349.9942932
vertex -45.46881866 32.32216644 349.8599548
vertex -45.60785675 32.16651154 350.1230774

endloop
endfacet
facet normal 0.4695444107 0.6286110282 0.6199808121
outer loop
vertex -45.60785675 32.16651154 350.1230774
vertex -45.46881866 32.32216644 349.8599548
vertex -45.67173004 32.3443985 349.9910889

endloop
endfacet
facet normal 0.4460173547 0.6310699582 0.6346803308
outer loop
vertex -45.60785675 32.16651154 350.1230774
vertex -45.67173004 32.3443985 349.9910889
vertex -45.8181839 32.19168854 350.2458496

endloop
endfacet
facet normal 0.4495130479 0.6282576919 0.6350041032
outer loop
vertex -45.8181839 32.19168854 350.2458496
vertex -45.67173004 32.3443985 349.9910889
vertex -45.87697601 32.36475372 350.1162415

endloop
endfacet
facet normal 0.4216164351 0.6309535503 0.6512582302
outer loop
vertex -45.8181839 32.19168854 350.2458496
vertex -45.87697601 32.36475372 350.1162415
vertex -46.03496552 32.21741486 350.3612671

endloop
endfacet
facet normal 0.4255530834 0.6277009249 0.6518406272
outer loop
vertex -46.03496552 32.21741486 350.3612671
vertex -45.87697601 32.36475372 350.1162415
vertex -46.08620453 32.38500214 350.2333374

endloop
endfacet
facet normal 0.3922578692 0.6308947802 0.6694068313
outer loop
vertex -46.03495026 32.21744537 350.3612976
vertex -46.08617401 32.38503265 350.2333679
vertex -46.25702667 32.24494171 350.4655151

endloop
endfacet
facet normal 0.3946670294 0.628829658 0.6699337363
outer loop
vertex -46.25702667 32.24494171 350.4655151
vertex -46.08617401 32.38503265 350.2333679
vertex -46.29964447 32.40599823 350.339447

endloop
endfacet
facet normal 0.3529945016 0.6328361034 0.689139545
outer loop
vertex -46.25702667 32.24494171 350.4655151
vertex -46.29964447 32.40599823 350.339447
vertex -46.47689056 32.27283478 350.5525208

endloop
endfacet
facet normal 0.3527919352 0.6330125332 0.6890812516
outer loop
vertex -46.47689056 32.27283478 350.5525208
vertex -46.29964447 32.40599823 350.339447
vertex -46.5121994 32.42516327 350.4306641

endloop
endfacet
facet normal 0.2951056659 0.6376336217 0.7115729451
outer loop
vertex -46.47689056 32.27283478 350.5525208
vertex -46.5121994 32.42516327 350.4306641
vertex -46.68224335 32.29686737 350.6161499

endloop
endfacet
facet normal 0.2927859128 0.6395746469 0.710788846
outer loop
vertex -46.68224335 32.29686737 350.6161499
vertex -46.5121994 32.42516327 350.4306641
vertex -46.71291351 32.43683624 350.5028381

endloop
endfacet
facet normal 0.2095678896 0.6425687075 0.7370120287
outer loop
vertex -46.68224335 32.29686737 350.6161499
vertex -46.71291351 32.43683624 350.5028381
vertex -46.86049652 32.31201935 350.6536255

endloop
endfacet
facet normal 0.2078851461 0.6438173652 0.7363986373
outer loop
vertex -46.86049652 32.31201935 350.6536255
vertex -46.71291351 32.43683624 350.5028381
vertex -46.88880157 32.4353714 350.553772

endloop
endfacet
facet normal 0.08715167642 0.6387982965 0.7644222379
outer loop
vertex -46.86049652 32.31201935 350.6536255
vertex -46.88880157 32.4353714 350.553772
vertex -47.00374603 32.31523895 350.6672668

endloop
endfacet
facet normal 0.09106410295 0.6364628673 0.7659127116
outer loop
vertex -47.00374603 32.31523895 350.6672668
vertex -46.88880157 32.4353714 350.553772
vertex -47.03049469 32.41866302 350.5845032

endloop
endfacet
facet normal -0.08473002166 0.6093972325 0.7883246541
outer loop
vertex -47.00374603 32.31523895 350.6672974
vertex -47.03049469 32.41866302 350.5844727
vertex -47.12102509 32.30556488 350.6621704

endloop
endfacet
facet normal -0.06896121055 0.6018111706 0.795655489
outer loop
vertex -47.12102509 32.30556488 350.6621704
vertex -47.03049469 32.41866302 350.5844727
vertex -47.14517975 32.38530731 350.599762

endloop
endfacet
facet normal -0.5515443683 0.4040551186 0.7297522426
outer loop
vertex -47.12102509 32.30556488 350.6621704
vertex -47.14517975 32.38530731 350.599762
vertex -47.3325882 32.21486664 350.5524902

endloop
endfacet
facet normal 0.4687237442 -0.6739487052 0.5710439086
outer loop
vertex -47.3325882 32.21486664 350.5524902
vertex -47.14517975 32.38530731 350.599762
vertex -47.33260345 32.2148819 350.5525208

endloop
endfacet
facet normal -0.9396083951 0 0.3422515988
outer loop
vertex -44.30410004 31.7669754 348.4308777
vertex -44.30410004 31.76696014 348.4308777
vertex -44.23236847 31.94199371 348.6278076

endloop
endfacet
facet normal 0.5610668063 0.5066031814 -0.6546428204
outer loop
vertex -44.23236847 31.94199371 348.6278076
vertex -44.30410004 31.76696014 348.4308777
vertex -44.32915497 31.98967743 348.5817566

endloop
endfacet
facet normal 0.5326188207 0.791428864 -0.2999292016
outer loop
vertex -44.23236847 31.94199371 348.6278076
vertex -44.32915497 31.98967743 348.5817566
vertex -44.25409698 31.99581146 348.7312317

endloop
endfacet
facet normal 0.6147738695 0.7126313448 -0.3379492164
outer loop
vertex -44.25409698 31.99581146 348.7312317
vertex -44.32915497 31.98967743 348.5817566
vertex -44.37094879 32.06023407 348.6545105

endloop
endfacet
facet normal 0.5391011238 0.8334712982 -0.1212253198
outer loop
vertex -44.25409698 31.99581146 348.7312317
vertex -44.37094879 32.06023407 348.6545105
vertex -44.31052399 32.04976654 348.8512573

endloop
endfacet
facet normal 0.6056723595 0.782505393 -0.1443821788
outer loop
vertex -44.31052399 32.04976654 348.8512573
vertex -44.37094879 32.06023407 348.6545105
vertex -44.43868256 32.12866974 348.741272

endloop
endfacet
facet normal 0.5122396946 0.8586301208 0.01910033822
outer loop
vertex -44.31052399 32.04976654 348.8512573
vertex -44.43868256 32.12866974 348.741272
vertex -44.40818024 32.10492706 348.9905701

endloop
endfacet
facet normal 0.5541803241 0.8323177695 0.01146284211
outer loop
vertex -44.40818024 32.10492706 348.9905701
vertex -44.43868256 32.12866974 348.741272
vertex -44.54155731 32.19568634 348.8487549

endloop
endfacet
facet normal 0.4667632282 0.8759797215 0.1216214746
outer loop
vertex -44.40818024 32.10492706 348.9905701
vertex -44.54155731 32.19568634 348.8487549
vertex -44.54363251 32.15642548 349.1394958

endloop
endfacet
facet normal 0.4866588712 0.8652670383 0.1203168705
outer loop
vertex -44.54363251 32.15642548 349.1394958
vertex -44.54155731 32.19568634 348.8487549
vertex -44.67827606 32.25522614 348.9735718

endloop
endfacet
facet normal 0.4191771746 0.8880857229 0.1886642873
outer loop
vertex -44.54363251 32.15642548 349.1394958
vertex -44.67827606 32.25522614 348.9735718
vertex -44.70592499 32.20102692 349.2901306

endloop
endfacet
facet normal 0.4271879792 0.8842510581 0.1887074262
outer loop
vertex -44.70592499 32.20102692 349.2901306
vertex -44.67827606 32.25522614 348.9735718
vertex -44.84000397 32.30425262 349.1099548

endloop
endfacet
facet normal 0.3790207803 0.896017313 0.2312925011
outer loop
vertex -44.70592499 32.20102692 349.2901306
vertex -44.84000397 32.30425262 349.1099548
vertex -44.88426971 32.23816681 349.4385071

endloop
endfacet
facet normal 0.3828944564 0.8943219781 0.2314734012
outer loop
vertex -44.88426971 32.23816681 349.4385071
vertex -44.84000397 32.30425262 349.1099548
vertex -45.0162735 32.34308624 349.2514954

endloop
endfacet
facet normal 0.3490236104 0.9006417394 0.2588957846
outer loop
vertex -44.88426971 32.23816681 349.4384766
vertex -45.0162735 32.34307098 349.2514954
vertex -45.07271576 32.2695694 349.5832825

endloop
endfacet
facet normal 0.3521932364 0.8993350267 0.2591454983
outer loop
vertex -45.07271576 32.2695694 349.5832825
vertex -45.0162735 32.34307098 349.2514954
vertex -45.2009201 32.37453461 349.3932495

endloop
endfacet
facet normal 0.3274862766 0.9030707479 0.2778773606
outer loop
vertex -45.07271576 32.2695694 349.5832825
vertex -45.2009201 32.37453461 349.3932495
vertex -45.26842499 32.29727936 349.723877

endloop
endfacet
facet normal 0.3300035298 0.9020678401 0.278156966
outer loop
vertex -45.26842499 32.29727936 349.723877
vertex -45.2009201 32.37453461 349.3932495
vertex -45.39186859 32.40125275 349.5331421

endloop
endfacet
facet normal 0.3106783926 0.9045006633 0.2921599746
outer loop
vertex -45.26842499 32.29727936 349.7239075
vertex -45.39185333 32.40128326 349.5331726
vertex -45.46881866 32.32216644 349.8599548

endloop
endfacet
facet normal 0.3124864399 0.9037951827 0.2924150229
outer loop
vertex -45.46881866 32.32216644 349.8599548
vertex -45.39185333 32.40128326 349.5331726
vertex -45.58744049 32.42444611 349.6705933

endloop
endfacet
facet normal 0.2956618369 0.9056465626 0.3039544225
outer loop
vertex -45.46881866 32.32216644 349.8599548
vertex -45.58744049 32.42444611 349.6705933
vertex -45.67173004 32.3443985 349.9910889

endloop
endfacet
facet normal 0.2977499664 0.9048449993 0.3043033779
outer loop
vertex -45.67173004 32.3443985 349.9910889
vertex -45.58744049 32.42444611 349.6705933
vertex -45.78490448 32.44441986 349.8044128

endloop
endfacet
facet normal 0.2818257809 0.906362772 0.3147708178
outer loop
vertex -45.67173004 32.3443985 349.9910889
vertex -45.78490448 32.44441986 349.8044128
vertex -45.87697601 32.36475372 350.1162415

endloop
endfacet
facet normal 0.2850335538 0.9051383734 0.3154051602
outer loop
vertex -45.87697601 32.36475372 350.1162415
vertex -45.78490448 32.44441986 349.8044128
vertex -45.98247528 32.46208954 349.932251

endloop
endfacet
facet normal 0.2695968151 0.9064838886 0.3249683678
outer loop
vertex -45.87697601 32.36475372 350.1162415
vertex -45.98247528 32.46208954 349.932251
vertex -46.08620453 32.38500214 350.2333374

endloop
endfacet
facet normal 0.2735773027 0.9049396515 0.3259443045
outer loop
vertex -46.08620453 32.38500214 350.2333374
vertex -45.98247528 32.46208954 349.932251
vertex -46.18131256 32.47925568 350.0514832

endloop
endfacet
facet normal 0.2559131682 0.9064905047 0.335832417
outer loop
vertex -46.08617401 32.38503265 350.2333679
vertex -46.1812973 32.47927094 350.0514832
vertex -46.29964447 32.40599823 350.339447

endloop
endfacet
facet normal 0.2590851784 0.9052243829 0.3368139267
outer loop
vertex -46.29964447 32.40599823 350.339447
vertex -46.1812973 32.47927094 350.0514832
vertex -46.38330841 32.4965744 350.1603699

endloop
endfacet
facet normal 0.2322024852 0.9073424935 0.3504447043
outer loop
vertex -46.29964447 32.40599823 350.339447
vertex -46.38330841 32.4965744 350.1603699
vertex -46.5121994 32.42516327 350.4306641

endloop
endfacet
facet normal 0.2330987155 0.9069841504 0.3507773876
outer loop
vertex -46.5121994 32.42516327 350.4306641
vertex -46.38330841 32.4965744 350.1603699
vertex -46.58597565 32.51085663 350.2581177

endloop
endfacet
facet normal 0.1865931004 0.9093512893 0.3718375862
outer loop
vertex -46.5121994 32.42516327 350.4306641
vertex -46.58597565 32.51085663 350.2581177
vertex -46.71291351 32.43683624 350.5028381

endloop
endfacet
facet normal 0.1856793165 0.9096900821 0.3714660704
outer loop
vertex -46.71291351 32.43683624 350.5028381
vertex -46.58597565 32.51085663 350.2581177
vertex -46.77960968 32.51558685 350.3433228

endloop
endfacet
facet normal 0.1091264561 0.9086813331 0.4029760957
outer loop
vertex -46.71291351 32.43683624 350.5028381
vertex -46.77960968 32.51558685 350.3433228
vertex -46.88880157 32.4353714 350.553772

endloop
endfacet
facet normal 0.1109050289 0.9081466794 0.4036951363
outer loop
vertex -46.88880157 32.4353714 350.553772
vertex -46.77960968 32.51558685 350.3433228
vertex -46.95043182 32.50479889 350.4145203

endloop
endfacet
facet normal -0.007977612317 0.8934937119 0.4490048587
outer loop
vertex -46.88880157 32.4353714 350.553772
vertex -46.95043182 32.50479889 350.4145203
vertex -47.03049469 32.41866302 350.5845032

endloop
endfacet
facet normal 0.003902600147 0.8912629485 0.4534700513
outer loop
vertex -47.03049469 32.41866302 350.5845032
vertex -46.95043182 32.50479889 350.4145203
vertex -47.08724213 32.47692108 350.4704895

endloop
endfacet
facet normal -0.1751107723 0.8385528326 0.5159121156
outer loop
vertex -47.03049469 32.41866302 350.5844727
vertex -47.08724213 32.47692108 350.47052
vertex -47.14517975 32.38530731 350.599762

endloop
endfacet
facet normal -0.142690748 0.8365314007 0.5290127397
outer loop
vertex -47.14517975 32.38530731 350.599762
vertex -47.08724213 32.47692108 350.47052
vertex -47.19452667 32.43029022 350.5153198

endloop
endfacet
facet normal -0.6077539921 0.4965927303 0.6197021604
outer loop
vertex -47.14517975 32.38530731 350.599762
vertex -47.19452667 32.43029022 350.5153198
vertex -47.33260345 32.2148819 350.5525208

endloop
endfacet
facet normal -0.845390141 0.5243726969 -0.101728715
outer loop
vertex -47.33260345 32.2148819 350.5525208
vertex -47.19452667 32.43029022 350.5153198
vertex -47.33261871 32.21485138 350.5524902

endloop
endfacet
facet normal -nan(ind) -nan(ind) -nan(ind)
outer loop
vertex -44.30410004 31.76696014 348.4308777
vertex -44.30410004 31.76696014 348.4308777
vertex -44.32915497 31.98967743 348.5817566

endloop
endfacet
facet normal 0.4568457007 0.5335693955 -0.7117554545
outer loop
vertex -44.32915497 31.98967743 348.5817566
vertex -44.30410004 31.76696014 348.4308777
vertex -44.43166351 31.98967743 348.5159607

endloop
endfacet
facet normal 0.3478983045 0.7649728656 -0.5420178175
outer loop
vertex -44.32915497 31.98967743 348.5817566
vertex -44.43166351 31.98967743 348.5159607
vertex -44.37094879 32.06023407 348.6545105

endloop
endfacet
facet normal 0.4176454544 0.7225084901 -0.5509571433
outer loop
vertex -44.37094879 32.06023407 348.6545105
vertex -44.43166351 31.98967743 348.5159607
vertex -44.49875641 32.06024933 348.5576477

endloop
endfacet
facet normal 0.3190120161 0.8492139578 -0.4207932353
outer loop
vertex -44.37094879 32.06023407 348.6545105
vertex -44.49875641 32.06024933 348.5576477
vertex -44.43868256 32.12866974 348.741272

endloop
endfacet
facet normal 0.3810524046 0.8186334968 -0.4296955168
outer loop
vertex -44.43868256 32.12866974 348.741272
vertex -44.49875641 32.06024933 348.5576477
vertex -44.58359528 32.128685 348.612793

endloop
endfacet
facet normal 0.2726751268 0.9116610885 -0.3074446917
outer loop
vertex -44.43868256 32.12866974 348.741272
vertex -44.58359528 32.128685 348.612793
vertex -44.54155731 32.19568634 348.8487549

endloop
endfacet
facet normal 0.3158833385 0.8964418769 -0.3108209372
outer loop
vertex -44.54155731 32.19568634 348.8487549
vertex -44.58359528 32.128685 348.612793
vertex -44.69707489 32.19568634 348.6907043

endloop
endfacet
facet normal 0.2183776796 0.9519132376 -0.2148779035
outer loop
vertex -44.54155731 32.19568634 348.8487549
vertex -44.69707489 32.19568634 348.6907043
vertex -44.67827606 32.25522614 348.9735718

endloop
endfacet
facet normal 0.2417005599 0.9461820722 -0.2152215689
outer loop
vertex -44.67827606 32.25522614 348.9735718
vertex -44.69707489 32.19568634 348.6907043
vertex -44.83893585 32.25524139 348.7932129

endloop
endfacet
facet normal 0.1686745137 0.97416538 -0.1501691937
outer loop
vertex -44.67827606 32.25522614 348.9735718
vertex -44.83893585 32.25524139 348.7932129
vertex -44.84000397 32.30425262 349.1099548

endloop
endfacet
facet normal 0.1791393906 0.9723442793 -0.1498521119
outer loop
vertex -44.84000397 32.30425262 349.1099548
vertex -44.83893585 32.25524139 348.7932129
vertex -45.00200653 32.30425262 348.9162903

endloop
endfacet
facet normal 0.1298837066 0.9855585098 -0.1086491719
outer loop
vertex -44.84000397 32.30425262 349.1099548
vertex -45.00200653 32.30425262 348.9162903
vertex -45.0162735 32.34308624 349.2514954

endloop
endfacet
facet normal 0.1354793608 0.9848402739 -0.108327806
outer loop
vertex -45.0162735 32.34308624 349.2514954
vertex -45.00200653 32.30425262 348.9162903
vertex -45.17656708 32.34308624 349.0510254

endloop
endfacet
facet normal 0.1046337634 0.9909853935 -0.08366400748
outer loop
vertex -45.0162735 32.34307098 349.2514954
vertex -45.17656708 32.34307098 349.0510254
vertex -45.2009201 32.37453461 349.3932495

endloop
endfacet
facet normal 0.1088503674 0.9905596972 -0.08332481235
outer loop
vertex -45.2009201 32.37453461 349.3932495
vertex -45.17656708 32.34307098 349.0510254
vertex -45.35692596 32.37453461 349.1894531

endloop
endfacet
facet normal 0.08908141404 0.9936872721 -0.06819170713
outer loop
vertex -45.2009201 32.37453461 349.3932495
vertex -45.35692596 32.37453461 349.1894531
vertex -45.39186859 32.40125275 349.5331421

endloop
endfacet
facet normal 0.0924204886 0.993407011 -0.06783044338
outer loop
vertex -45.39186859 32.40125275 349.5331421
vertex -45.35692596 32.37453461 349.1894531
vertex -45.5424118 32.40126801 349.3282471

endloop
endfacet
facet normal 0.07774217427 0.9953358769 -0.05711977184
outer loop
vertex -45.39185333 32.40128326 349.5331726
vertex -45.54239655 32.40128326 349.3282776
vertex -45.58744049 32.42444611 349.6705933

endloop
endfacet
facet normal 0.08005955815 0.9951702952 -0.0568036288
outer loop
vertex -45.58744049 32.42444611 349.6705933
vertex -45.54239655 32.40128326 349.3282776
vertex -45.73229218 32.42446136 349.4667053

endloop
endfacet
facet normal 0.0680738911 0.9965110421 -0.04828834906
outer loop
vertex -45.58744049 32.42444611 349.6705933
vertex -45.73229218 32.42446136 349.4667053
vertex -45.78490448 32.44441986 349.8044128

endloop
endfacet
facet normal 0.06987404823 0.9964002967 -0.0480013527
outer loop
vertex -45.78490448 32.44441986 349.8044128
vertex -45.73229218 32.42446136 349.4667053
vertex -45.92327118 32.44441986 349.6029968

endloop
endfacet
facet normal 0.06173983216 0.9971906543 -0.0424133949
outer loop
vertex -45.78490448 32.44441986 349.8044128
vertex -45.92327118 32.44441986 349.6029968
vertex -45.98247528 32.46208954 349.932251

endloop
endfacet
facet normal 0.06428217143 0.9970496297 -0.04194868356
outer loop
vertex -45.98247528 32.46208954 349.932251
vertex -45.92327118 32.44441986 349.6029968
vertex -46.11222076 32.46208954 349.733429

endloop
endfacet
facet normal 0.06188157201 0.9972662926 -0.04038211703
outer loop
vertex -45.98247528 32.46208954 349.932251
vertex -46.11222076 32.46208954 349.733429
vertex -46.18131256 32.47925568 350.0514832

endloop
endfacet
facet normal 0.06559858471 0.9970614314 -0.0395636037
outer loop
vertex -46.18131256 32.47925568 350.0514832
vertex -46.11222076 32.46208954 349.733429
vertex -46.30001068 32.47925568 349.8546753

endloop
endfacet
facet normal 0.06448736787 0.9971631169 -0.03882212192
outer loop
vertex -46.1812973 32.47927094 350.0514832
vertex -46.29999542 32.47928619 349.8547058
vertex -46.38330841 32.4965744 350.1603699

endloop
endfacet
facet normal 0.06832975149 0.9969478846 -0.03776265681
outer loop
vertex -46.38330841 32.4965744 350.1603699
vertex -46.29999542 32.47928619 349.8547058
vertex -46.49016571 32.49655914 349.9666138

endloop
endfacet
facet normal 0.05552271008 0.997985363 -0.03069959953
outer loop
vertex -46.38330841 32.4965744 350.1603699
vertex -46.49016571 32.49655914 349.9666138
vertex -46.58597565 32.51085663 350.2581177

endloop
endfacet
facet normal 0.05780544877 0.9978787303 -0.0299440939
outer loop
vertex -46.58597565 32.51085663 350.2581177
vertex -46.49016571 32.49655914 349.9666138
vertex -46.68250275 32.51085663 350.0717773

endloop
endfacet
facet normal 0.0198890008 0.9997491837 -0.01030280162
outer loop
vertex -46.58597565 32.51085663 350.2581177
vertex -46.68250275 32.51085663 350.0717773
vertex -46.77960968 32.51558685 350.3433228

endloop
endfacet
facet normal 0.01982459612 0.9997501373 -0.01032584812
outer loop
vertex -46.77960968 32.51558685 350.3433228
vertex -46.68250275 32.51085663 350.0717773
vertex -46.86815643 32.51557159 350.1718445

endloop
endfacet
facet normal -0.05191032216 0.9982943535 0.02671625651
outer loop
vertex -46.77960968 32.51558685 350.3433228
vertex -46.86815643 32.51557159 350.1718445
vertex -46.95043182 32.50479889 350.4145203

endloop
endfacet
facet normal -0.04980646819 0.9983820319 0.02743342705
outer loop
vertex -46.95043182 32.50479889 350.4145203
vertex -46.86815643 32.51557159 350.1718445
vertex -47.03232574 32.50479889 350.2658386

endloop
endfacet
facet normal -0.1633790582 0.982450664 0.08998926729
outer loop
vertex -46.95043182 32.50479889 350.4145203
vertex -47.03232574 32.50479889 350.2658386
vertex -47.08724213 32.47692108 350.4704895

endloop
endfacet
facet normal -0.1510445029 0.9840930104 0.09352286905
outer loop
vertex -47.08724213 32.47692108 350.4704895
vertex -47.03232574 32.50479889 350.2658386
vertex -47.16184235 32.47692108 350.3500061

endloop
endfacet
facet normal -0.3199857473 0.9264871478 0.1980671287
outer loop
vertex -47.08724213 32.47692108 350.47052
vertex -47.1618576 32.47692108 350.3499756
vertex -47.19452667 32.43029022 350.5153198

endloop
endfacet
facet normal -0.2859624326 0.9355397224 0.2073425651
outer loop
vertex -47.19452667 32.43029022 350.5153198
vertex -47.1618576 32.47692108 350.3499756
vertex -47.25843048 32.43029022 350.4271851

endloop
endfacet
facet normal -0.6880042553 0.5270655751 0.498850733
outer loop
vertex -47.19452667 32.43029022 350.5153198
vertex -47.25843048 32.43029022 350.4271851
vertex -47.33261871 32.21485138 350.5524902

endloop
endfacet
facet normal 0.5531523228 -0.552883029 -0.6231716275
outer loop
vertex -47.33261871 32.21485138 350.5524902
vertex -47.25843048 32.43029022 350.4271851
vertex -47.33260345 32.21486664 350.5524902

endloop
endfacet
facet normal -0.8677452207 -0.4970094562 -0
outer loop
vertex -44.30410004 31.76696014 348.4308777
vertex -44.30410004 31.76696014 348.4309082
vertex -44.43166351 31.98967743 348.5159607

endloop
endfacet
facet normal 0.365794152 0.5074528456 -0.7801834941
outer loop
vertex -44.43166351 31.98967743 348.5159607
vertex -44.30410004 31.76696014 348.4309082
vertex -44.51769257 31.94199371 348.4446106

endloop
endfacet
facet normal 0.2370032668 0.6511911154 -0.7209573388
outer loop
vertex -44.43166351 31.98967743 348.5159607
vertex -44.51769257 31.94199371 348.4446106
vertex -44.49875641 32.06024933 348.5576477

endloop
endfacet
facet normal 0.246461615 0.6487489939 -0.7199870348
outer loop
vertex -44.49875641 32.06024933 348.5576477
vertex -44.51769257 31.94199371 348.4446106
vertex -44.61005402 31.99581146 348.4614868

endloop
endfacet
facet normal 0.1543478668 0.7288496494 -0.667049408
outer loop
vertex -44.49875641 32.06024933 348.5576477
vertex -44.61005402 31.99581146 348.4614868
vertex -44.58359528 32.128685 348.612793

endloop
endfacet
facet normal 0.1722606719 0.7250295877 -0.6668271422
outer loop
vertex -44.58359528 32.128685 348.612793
vertex -44.61005402 31.99581146 348.4614868
vertex -44.7141037 32.04975128 348.4932556

endloop
endfacet
facet normal 0.06267560273 0.8000140786 -0.5966986418
outer loop
vertex -44.58359528 32.128685 348.612793
vertex -44.7141037 32.04975128 348.4932556
vertex -44.69707489 32.19568634 348.6907043

endloop
endfacet
facet normal 0.07919991761 0.7983832359 -0.5969184041
outer loop
vertex -44.69707489 32.19568634 348.6907043
vertex -44.7141037 32.04975128 348.4932556
vertex -44.84134674 32.10492706 348.5501709

endloop
endfacet
facet normal -0.02287510596 0.8503636122 -0.5256980658
outer loop
vertex -44.69707489 32.19568634 348.6907043
vertex -44.84134674 32.10492706 348.5501709
vertex -44.83893585 32.25524139 348.7932129

endloop
endfacet
facet normal -0.01273047924 0.8504722714 -0.5258657932
outer loop
vertex -44.83893585 32.25524139 348.7932129
vertex -44.84134674 32.10492706 348.5501709
vertex -44.99115753 32.15642548 348.637085

endloop
endfacet
facet normal -0.08967584372 0.878765583 -0.468752861
outer loop
vertex -44.83893585 32.25524139 348.7932129
vertex -44.99115753 32.15642548 348.637085
vertex -45.00200653 32.30425262 348.9162903

endloop
endfacet
facet normal -0.08436191082 0.8792616725 -0.4688090682
outer loop
vertex -45.00200653 32.30425262 348.9162903
vertex -44.99115753 32.15642548 348.637085
vertex -45.15717316 32.20102692 348.7506104

endloop
endfacet
facet normal -0.1338777989 0.8925139308 -0.4306919873
outer loop
vertex -45.00200653 32.30425262 348.9162903
vertex -45.15717316 32.20102692 348.7506104
vertex -45.17656708 32.34308624 349.0510254

endloop
endfacet
facet normal -0.1302253008 0.8930464983 -0.4307079911
outer loop
vertex -45.17656708 32.34308624 349.0510254
vertex -45.15717316 32.20102692 348.7506104
vertex -45.33074188 32.23816681 348.8800964

endloop
endfacet
facet normal -0.157502979 0.8986279368 -0.4094638526
outer loop
vertex -45.17656708 32.34307098 349.0510254
vertex -45.33072662 32.23816681 348.8800964
vertex -45.35692596 32.37453461 349.1894531

endloop
endfacet
facet normal -0.1540610045 0.8992352486 -0.4094401002
outer loop
vertex -45.35692596 32.37453461 349.1894531
vertex -45.33072662 32.23816681 348.8800964
vertex -45.50737762 32.2695694 349.0155334

endloop
endfacet
facet normal -0.1682829559 0.9015758038 -0.3985497653
outer loop
vertex -45.35692596 32.37453461 349.1894531
vertex -45.50737762 32.2695694 349.0155334
vertex -45.5424118 32.40126801 349.3282471

endloop
endfacet
facet normal -0.1651682258 0.9021912813 -0.3984600008
outer loop
vertex -45.5424118 32.40126801 349.3282471
vertex -45.50737762 32.2695694 349.0155334
vertex -45.68784332 32.2972641 349.1530457

endloop
endfacet
facet normal -0.1748846918 0.9035387039 -0.3911944032
outer loop
vertex -45.54239655 32.40128326 349.3282776
vertex -45.68782806 32.29727936 349.1530762
vertex -45.73229218 32.42446136 349.4667053

endloop
endfacet
facet normal -0.1725692004 0.9040382504 -0.3910686076
outer loop
vertex -45.73229218 32.42446136 349.4667053
vertex -45.68782806 32.29727936 349.1530762
vertex -45.87233734 32.32215118 349.2919922

endloop
endfacet
facet normal -0.1804128289 0.90497154 -0.385327965
outer loop
vertex -45.73229218 32.42446136 349.4667053
vertex -45.87233734 32.32215118 349.2919922
vertex -45.92327118 32.44441986 349.6029968

endloop
endfacet
facet normal -0.1786609441 0.9053738117 -0.385199219
outer loop
vertex -45.92327118 32.44441986 349.6029968
vertex -45.87233734 32.32215118 349.2919922
vertex -46.05719757 32.3443985 349.4300232

endloop
endfacet
facet normal -0.1803756356 0.9055536389 -0.3839755058
outer loop
vertex -45.92327118 32.44441986 349.6029968
vertex -46.05719757 32.3443985 349.4300232
vertex -46.11222076 32.46208954 349.733429

endloop
endfacet
facet normal -0.1783162355 0.906039834 -0.383790642
outer loop
vertex -46.11222076 32.46208954 349.733429
vertex -46.05719757 32.3443985 349.4300232
vertex -46.23844147 32.36475372 349.5622864

endloop
endfacet
facet normal -0.1691055745 0.9051261544 -0.3900640607
outer loop
vertex -46.11222076 32.46208954 349.733429
vertex -46.23844147 32.36475372 349.5622864
vertex -46.30001068 32.47925568 349.8546753

endloop
endfacet
facet normal -0.1651672721 0.9060536027 -0.3895979822
outer loop
vertex -46.30001068 32.47925568 349.8546753
vertex -46.23844147 32.36475372 349.5622864
vertex -46.41687775 32.3850174 349.6850586

endloop
endfacet
facet normal -0.1520471573 0.9046891928 -0.3980190754
outer loop
vertex -46.29999542 32.47928619 349.8547058
vertex -46.41687775 32.38503265 349.6851196
vertex -46.49016571 32.49655914 349.9666138

endloop
endfacet
facet normal -0.1469721049 0.9058973789 -0.3971764445
outer loop
vertex -46.49016571 32.49655914 349.9666138
vertex -46.41687775 32.38503265 349.6851196
vertex -46.59732819 32.40599823 349.7997131

endloop
endfacet
facet normal -0.1491154581 0.9061011076 -0.3959107697
outer loop
vertex -46.49016571 32.49655914 349.9666138
vertex -46.59732819 32.40599823 349.7997131
vertex -46.68250275 32.51085663 350.0717773

endloop
endfacet
facet normal -0.1462128907 0.9068453312 -0.3952889442
outer loop
vertex -46.68250275 32.51085663 350.0717773
vertex -46.59732819 32.40599823 349.7997131
vertex -46.78108978 32.42516327 349.9116516

endloop
endfacet
facet normal -0.1795523465 0.909075439 -0.3759557605
outer loop
vertex -46.68250275 32.51085663 350.0717773
vertex -46.78108978 32.42516327 349.9116516
vertex -46.86815643 32.51557159 350.1718445

endloop
endfacet
facet normal -0.1796211004 0.909055233 -0.3759717345
outer loop
vertex -46.86815643 32.51557159 350.1718445
vertex -46.78108978 32.42516327 349.9116516
vertex -46.9595871 32.43682098 350.025116

endloop
endfacet
facet normal -0.2499585897 0.9094325304 -0.332344979
outer loop
vertex -46.86815643 32.51557159 350.1718445
vertex -46.9595871 32.43682098 350.025116
vertex -47.03232574 32.50479889 350.2658386

endloop
endfacet
facet normal -0.2501572371 0.909363091 -0.332385391
outer loop
vertex -47.03232574 32.50479889 350.2658386
vertex -46.9595871 32.43682098 350.025116
vertex -47.11685944 32.43538666 350.1395569

endloop
endfacet
facet normal -0.3583774269 0.8983853459 -0.2539081872
outer loop
vertex -47.03232574 32.50479889 350.2658386
vertex -47.11685944 32.43538666 350.1395569
vertex -47.16184235 32.47692108 350.3500061

endloop
endfacet
facet normal -0.3517574966 0.901237607 -0.253056109
outer loop
vertex -47.16184235 32.47692108 350.3500061
vertex -47.11685944 32.43538666 350.1395569
vertex -47.2382431 32.41867828 350.2487793

endloop
endfacet
facet normal -0.5036991239 0.8564907312 -0.1127423346
outer loop
vertex -47.1618576 32.47692108 350.3499756
vertex -47.2382431 32.41867828 350.2487793
vertex -47.25843048 32.43029022 350.4271851

endloop
endfacet
facet normal -0.4806148112 0.8698781729 -0.1110015959
outer loop
vertex -47.25843048 32.43029022 350.4271851
vertex -47.2382431 32.41867828 350.2487793
vertex -47.32303619 32.38530731 350.3544006

endloop
endfacet
facet normal -0.7791720033 0.4932521582 0.3867729008
outer loop
vertex -47.25843048 32.43029022 350.4271851
vertex -47.32303619 32.38530731 350.3544006
vertex -47.33260345 32.21486664 350.5524902

endloop
endfacet
facet normal -nan(ind) -nan(ind) -nan(ind)
outer loop
vertex -47.33260345 32.21486664 350.5524902
vertex -47.32303619 32.38530731 350.3544006
vertex -47.33260345 32.21486664 350.5524902

endloop
endfacet
facet normal -nan(ind) -nan(ind) -nan(ind)
outer loop
vertex -44.30410004 31.76696014 348.4309082
vertex -44.30410004 31.76696014 348.4309082
vertex -44.51769257 31.94199371 348.4446106

endloop
endfacet
facet normal 0.3010315001 0.433827728 -0.8492194414
outer loop
vertex -44.51769257 31.94199371 348.4446106
vertex -44.30410004 31.76696014 348.4309082
vertex -44.56877899 31.85736847 348.3832703

endloop
endfacet
facet normal 0.149130702 0.5197259188 -0.8412163258
outer loop
vertex -44.51769257 31.94199371 348.4446106
vertex -44.56877899 31.85736847 348.3832703
vertex -44.61005402 31.99581146 348.4614868

endloop
endfacet
facet normal 0.0817982927 0.5086227059 -0.8570950627
outer loop
vertex -44.61005402 31.99581146 348.4614868
vertex -44.56877899 31.85736847 348.3832703
vertex -44.68093109 31.88137054 348.3868103

endloop
endfacet
facet normal 0.02103285491 0.5371893644 -0.8431994319
outer loop
vertex -44.61005402 31.99581146 348.4614868
vertex -44.68093109 31.88137054 348.3868103
vertex -44.7141037 32.04975128 348.4932556

endloop
endfacet
facet normal -0.02787510119 0.5302132964 -0.8474059105
outer loop
vertex -44.7141037 32.04975128 348.4932556
vertex -44.68093109 31.88137054 348.3868103
vertex -44.80222321 31.90947723 348.4083862

endloop
endfacet
facet normal -0.1184396893 0.5674185753 -0.8148670197
outer loop
vertex -44.7141037 32.04975128 348.4932556
vertex -44.80222321 31.90947723 348.4083862
vertex -44.84134674 32.10492706 348.5501709

endloop
endfacet
facet normal -0.1465569735 0.5614652038 -0.8144187927
outer loop
vertex -44.84134674 32.10492706 348.5501709
vertex -44.80222321 31.90947723 348.4083862
vertex -44.94348907 31.94347382 348.4572449

endloop
endfacet
facet normal -0.2409793139 0.594145298 -0.7674114108
outer loop
vertex -44.84134674 32.10492706 348.5501709
vertex -44.94348907 31.94347382 348.4572449
vertex -44.99115753 32.15642548 348.637085

endloop
endfacet
facet normal -0.2537684441 0.5903037786 -0.7662525773
outer loop
vertex -44.99115753 32.15642548 348.637085
vertex -44.94348907 31.94347382 348.4572449
vertex -45.10237885 31.98065948 348.5385132

endloop
endfacet
facet normal -0.328119874 0.6114423871 -0.7200524807
outer loop
vertex -44.99115753 32.15642548 348.637085
vertex -45.10237885 31.98065948 348.5385132
vertex -45.15717316 32.20102692 348.7506104

endloop
endfacet
facet normal -0.3328292072 0.6096520424 -0.7194089293
outer loop
vertex -45.15717316 32.20102692 348.7506104
vertex -45.10237885 31.98065948 348.5385132
vertex -45.27230072 32.01746368 348.6483154

endloop
endfacet
facet normal -0.3793270886 0.6204319 -0.6864219904
outer loop
vertex -45.15717316 32.20102692 348.7506104
vertex -45.27230072 32.01746368 348.6483154
vertex -45.33074188 32.23816681 348.8800964

endloop
endfacet
facet normal -0.3799494207 0.6201619506 -0.6863218546
outer loop
vertex -45.33074188 32.23816681 348.8800964
vertex -45.27230072 32.01746368 348.6483154
vertex -45.44576263 32.05155182 348.7751465

endloop
endfacet
facet normal -0.4022537768 0.6245108843 -0.6694609523
outer loop
vertex -45.33072662 32.23816681 348.8800964
vertex -45.44576263 32.05156708 348.7751465
vertex -45.50737762 32.2695694 349.0155334

endloop
endfacet
facet normal -0.4009385407 0.6251229048 -0.6696788073
outer loop
vertex -45.50737762 32.2695694 349.0155334
vertex -45.44576263 32.05156708 348.7751465
vertex -45.61992645 32.08289337 348.9086609

endloop
endfacet
facet normal -0.4092846215 0.6265066862 -0.6633065939
outer loop
vertex -45.50737762 32.2695694 349.0155334
vertex -45.61992645 32.08289337 348.9086609
vertex -45.68784332 32.2972641 349.1530457

endloop
endfacet
facet normal -0.4066953361 0.6277751923 -0.6636996865
outer loop
vertex -45.68784332 32.2972641 349.1530457
vertex -45.61992645 32.08289337 348.9086609
vertex -45.79691315 32.11235809 349.0449829

endloop
endfacet
facet normal -0.4119244516 0.628613174 -0.6596693993
outer loop
vertex -45.68782806 32.29727936 349.1530762
vertex -45.79689789 32.11237335 349.0449829
vertex -45.87233734 32.32215118 349.2919922

endloop
endfacet
facet normal -0.4098068476 0.6297033429 -0.6599485278
outer loop
vertex -45.87233734 32.32215118 349.2919922
vertex -45.79689789 32.11237335 349.0449829
vertex -45.97750092 32.14026642 349.1837463

endloop
endfacet
facet normal -0.4143598378 0.630299747 -0.6565273404
outer loop
vertex -45.87233734 32.32215118 349.2919922
vertex -45.97750092 32.14026642 349.1837463
vertex -46.05719757 32.3443985 349.4300232

endloop
endfacet
facet normal -0.4128851593 0.6310855746 -0.6567015052
outer loop
vertex -46.05719757 32.3443985 349.4300232
vertex -45.97750092 32.14026642 349.1837463
vertex -46.15792084 32.16649628 349.3223877

endloop
endfacet
facet normal -0.4099669158 0.6307389736 -0.6588593125
outer loop
vertex -46.05719757 32.3443985 349.4300232
vertex -46.15792084 32.16649628 349.3223877
vertex -46.23844147 32.36475372 349.5622864

endloop
endfacet
facet normal -0.407383889 0.6321223974 -0.6591355801
outer loop
vertex -46.23844147 32.36475372 349.5622864
vertex -46.15792084 32.16649628 349.3223877
vertex -46.33403778 32.19167328 349.4553833

endloop
endfacet
facet normal -0.3902864754 0.6301604509 -0.6712481976
outer loop
vertex -46.23844147 32.36475372 349.5622864
vertex -46.33403778 32.19167328 349.4553833
vertex -46.41687775 32.3850174 349.6850586

endloop
endfacet
facet normal -0.3857502937 0.6325494647 -0.6716232896
outer loop
vertex -46.41687775 32.3850174 349.6850586
vertex -46.33403778 32.19167328 349.4553833
vertex -46.50685883 32.21741486 349.5788879

endloop
endfacet
facet normal -0.3628684282 0.6299397349 -0.6866603494
outer loop
vertex -46.41687775 32.38503265 349.6851196
vertex -46.50684357 32.21744537 349.5789185
vertex -46.59732819 32.40599823 349.7997131

endloop
endfacet
facet normal -0.3572591841 0.6328943372 -0.6868847609
outer loop
vertex -46.59732819 32.40599823 349.7997131
vertex -46.50684357 32.21744537 349.5789185
vertex -46.68180084 32.24494171 349.6952515

endloop
endfacet
facet normal -0.3537794054 0.6324816942 -0.6890624762
outer loop
vertex -46.59732819 32.40599823 349.7997131
vertex -46.68180084 32.24494171 349.6952515
vertex -46.78108978 32.42516327 349.9116516

endloop
endfacet
facet normal -0.3502676785 0.6344252229 -0.6890698075
outer loop
vertex -46.78108978 32.42516327 349.9116516
vertex -46.68180084 32.24494171 349.6952515
vertex -46.86055756 32.27283478 349.8117981

endloop
endfacet
facet normal -0.3830671906 0.6378281116 -0.6681577563
outer loop
vertex -46.78108978 32.42516327 349.9116516
vertex -46.86055756 32.27283478 349.8117981
vertex -46.9595871 32.43682098 350.025116

endloop
endfacet
facet normal -0.3838638365 0.6373481154 -0.6681585312
outer loop
vertex -46.9595871 32.43682098 350.025116
vertex -46.86055756 32.27283478 349.8117981
vertex -47.03414154 32.29686737 349.9344482

endloop
endfacet
facet normal -0.4548848569 0.6420943737 -0.6170855761
outer loop
vertex -46.9595871 32.43682098 350.025116
vertex -47.03414154 32.29686737 349.9344482
vertex -47.11685944 32.43538666 350.1395569

endloop
endfacet
facet normal -0.4580182433 0.6400051117 -0.6169381738
outer loop
vertex -47.11685944 32.43538666 350.1395569
vertex -47.03414154 32.29686737 349.9344482
vertex -47.18573761 32.31204987 350.0627441

endloop
endfacet
facet normal -0.5606766939 0.6401844025 -0.5251719952
outer loop
vertex -47.11685944 32.43538666 350.1395569
vertex -47.18573761 32.31204987 350.0627441
vertex -47.2382431 32.41867828 350.2487793

endloop
endfacet
facet normal -0.5608670115 0.6400410533 -0.5251435637
outer loop
vertex -47.2382431 32.41867828 350.2487793
vertex -47.18573761 32.31204987 350.0627441
vertex -47.29987335 32.31526947 350.1885681

endloop
endfacet
facet normal -0.694080174 0.623250246 -0.3602940738
outer loop
vertex -47.2382431 32.41867828 350.2487793
vertex -47.29987335 32.31525421 350.1885986
vertex -47.32303619 32.38530731 350.3544006

endloop
endfacet
facet normal -0.686080277 0.6308484077 -0.3623867929
outer loop
vertex -47.32303619 32.38530731 350.3544006
vertex -47.29987335 32.31525421 350.1885986
vertex -47.37430573 32.30554962 350.3126221

endloop
endfacet
facet normal -0.8660745621 0.3988665342 0.3013642132
outer loop
vertex -47.32303619 32.38530731 350.3544006
vertex -47.37430573 32.30554962 350.3126221
vertex -47.33260345 32.21486664 350.5524902

endloop
endfacet
facet normal -nan(ind) -nan(ind) -nan(ind)
outer loop
vertex -47.33260345 32.21486664 350.5524902
vertex -47.37430573 32.30554962 350.3126221
vertex -47.33260345 32.21486664 350.5524902

endloop
endfacet
facet normal 0.3232403696 0.9463168979 -0
outer loop
vertex -44.30410004 31.76696014 348.4309082
vertex -44.30410004 31.76696014 348.4308777
vertex -44.56877899 31.85736847 348.3832703

endloop
endfacet
facet normal 0.2724149823 0.3196260631 -0.9075402617
outer loop
vertex -44.56877899 31.85736847 348.3832703
vertex -44.30410004 31.76696014 348.4308777
vertex -44.57375336 31.75286102 348.3449707

endloop
endfacet
facet normal 0.0435503833 0.341942966 -0.9387110472
outer loop
vertex -44.56877899 31.85736847 348.3832703
vertex -44.57375336 31.75286102 348.3449707
vertex -44.68093109 31.88137054 348.3868103

endloop
endfacet
facet normal -0.06401161849 0.2602769136 -0.9634098411
outer loop
vertex -44.68093109 31.88137054 348.3868103
vertex -44.57375336 31.75286102 348.3449707
vertex -44.69600677 31.73973846 348.3495483

endloop
endfacet
facet normal -0.1093537509 0.2637760639 -0.958365202
outer loop
vertex -44.68093109 31.88137054 348.3868103
vertex -44.69600677 31.73973846 348.3495483
vertex -44.80222321 31.90947723 348.4083862

endloop
endfacet
facet normal -0.1999230683 0.2068781853 -0.9577223659
outer loop
vertex -44.80222321 31.90947723 348.4083862
vertex -44.69600677 31.73973846 348.3495483
vertex -44.82898712 31.73569489 348.3764343

endloop
endfacet
facet normal -0.2727680504 0.2144477665 -0.937875092
outer loop
vertex -44.80222321 31.90947723 348.4083862
vertex -44.82898712 31.73569489 348.3764343
vertex -44.94348907 31.94347382 348.4572449

endloop
endfacet
facet normal -0.3295352757 0.1789467633 -0.9270299673
outer loop
vertex -44.94348907 31.94347382 348.4572449
vertex -44.82898712 31.73569489 348.3764343
vertex -44.98159027 31.7433548 348.4321594

endloop
endfacet
facet normal -0.4114434719 0.1900746226 -0.8913955092
outer loop
vertex -44.94348907 31.94347382 348.4572449
vertex -44.98159027 31.7433548 348.4321594
vertex -45.10237885 31.98065948 348.5385132

endloop
endfacet
facet normal -0.4385996461 0.1720664501 -0.8820563555
outer loop
vertex -45.10237885 31.98065948 348.5385132
vertex -44.98159027 31.7433548 348.4321594
vertex -45.14873505 31.76268768 348.519043

endloop
endfacet
facet normal -0.5053562522 0.1828040332 -0.8433254361
outer loop
vertex -45.10237885 31.98065948 348.5385132
vertex -45.14873505 31.76268768 348.519043
vertex -45.27230072 32.01746368 348.6483154

endloop
endfacet
facet normal -0.516033113 0.1751610488 -0.838467896
outer loop
vertex -45.27230072 32.01746368 348.6483154
vertex -45.14873505 31.76268768 348.519043
vertex -45.32274628 31.78981781 348.6318054

endloop
endfacet
facet normal -0.5567783117 0.1821574867 -0.8104422092
outer loop
vertex -45.27230072 32.01746368 348.6483154
vertex -45.32274628 31.78981781 348.6318054
vertex -45.44576263 32.05155182 348.7751465

endloop
endfacet
facet normal -0.5599654317 0.1797503829 -0.8087821603
outer loop
vertex -45.44576263 32.05155182 348.7751465
vertex -45.32274628 31.78981781 348.6318054
vertex -45.49707794 31.82015228 348.7592468

endloop
endfacet
facet normal -0.5772770643 0.1825854182 -0.7958729267
outer loop
vertex -45.44576263 32.05156708 348.7751465
vertex -45.49707794 31.82015228 348.7592773
vertex -45.61992645 32.08289337 348.9086609

endloop
endfacet
facet normal -0.5767478943 0.1829971522 -0.7961620092
outer loop
vertex -45.61992645 32.08289337 348.9086609
vertex -45.49707794 31.82015228 348.7592773
vertex -45.67058563 31.85140228 348.8921509

endloop
endfacet
facet normal -0.580471158 0.1836086065 -0.793310225
outer loop
vertex -45.61992645 32.08289337 348.9086609
vertex -45.67058563 31.85140228 348.8921509
vertex -45.79691315 32.11235809 349.0449829

endloop
endfacet
facet normal -0.5789702535 0.1848134398 -0.7941268086
outer loop
vertex -45.79691315 32.11235809 349.0449829
vertex -45.67058563 31.85140228 348.8921509
vertex -45.84638214 31.88303375 349.0276794

endloop
endfacet
facet normal -0.5806279778 0.1849713624 -0.7928788066
outer loop
vertex -45.79689789 32.11237335 349.0449829
vertex -45.84636688 31.88304901 349.02771
vertex -45.97750092 32.14026642 349.1837463

endloop
endfacet
facet normal -0.579118371 0.1862314194 -0.7936874032
outer loop
vertex -45.97750092 32.14026642 349.1837463
vertex -45.84636688 31.88304901 349.02771
vertex -46.02536774 31.91468048 349.165741

endloop
endfacet
facet normal -0.5814177394 0.1865784973 -0.7919229269
outer loop
vertex -45.97750092 32.14026642 349.1837463
vertex -46.02536774 31.91468048 349.165741
vertex -46.15792084 32.16649628 349.3223877

endloop
endfacet
facet normal -0.5795990229 0.188135609 -0.7928870916
outer loop
vertex -46.15792084 32.16649628 349.3223877
vertex -46.02536774 31.91468048 349.165741
vertex -46.20401764 31.94589996 349.3037415

endloop
endfacet
facet normal -0.5747452378 0.1874333322 -0.7965780497
outer loop
vertex -46.15792084 32.16649628 349.3223877
vertex -46.20401764 31.94589996 349.3037415
vertex -46.33403778 32.19167328 349.4553833

endloop
endfacet
facet normal -0.5713346004 0.1903270185 -0.7983435392
outer loop
vertex -46.33403778 32.19167328 349.4553833
vertex -46.20401764 31.94589996 349.3037415
vertex -46.37862396 31.97705841 349.4361267

endloop
endfacet
facet normal -0.552447021 0.1876422018 -0.812153101
outer loop
vertex -46.33403778 32.19167328 349.4553833
vertex -46.37862396 31.97705841 349.4361267
vertex -46.50685883 32.21741486 349.5788879

endloop
endfacet
facet normal -0.5468459725 0.1922405362 -0.814863801
outer loop
vertex -46.50685883 32.21741486 349.5788879
vertex -46.37862396 31.97705841 349.4361267
vertex -46.55075836 32.00962067 349.5593262

endloop
endfacet
facet normal -0.5230024457 0.1887384355 -0.8311716318
outer loop
vertex -46.50684357 32.21744537 349.5789185
vertex -46.5507431 32.00965118 349.5593567
vertex -46.68180084 32.24494171 349.6952515

endloop
endfacet
facet normal -0.5172024965 0.1934387982 -0.8337163925
outer loop
vertex -46.68180084 32.24494171 349.6952515
vertex -46.5507431 32.00965118 349.5593567
vertex -46.7256546 32.04521942 349.6761169

endloop
endfacet
facet normal -0.5145727396 0.1930262744 -0.8354374766
outer loop
vertex -46.68180084 32.24494171 349.6952515
vertex -46.7256546 32.04521942 349.6761169
vertex -46.86055756 32.27283478 349.8117981

endloop
endfacet
facet normal -0.5112095475 0.1958568543 -0.8368421793
outer loop
vertex -46.86055756 32.27283478 349.8117981
vertex -46.7256546 32.04521942 349.6761169
vertex -46.90410614 32.08393097 349.7941895

endloop
endfacet
facet normal -0.5464135408 0.2017366588 -0.8128558397
outer loop
vertex -46.86055756 32.27283478 349.8117981
vertex -46.90410614 32.08393097 349.7941895
vertex -47.03414154 32.29686737 349.9344482

endloop
endfacet
facet normal -0.5471410751 0.2010775506 -0.8125296831
outer loop
vertex -47.03414154 32.29686737 349.9344482
vertex -46.90410614 32.08393097 349.7941895
vertex -47.07616425 32.12332916 349.9197998

endloop
endfacet
facet normal -0.6185438037 0.2136095315 -0.7561577559
outer loop
vertex -47.03414154 32.29686737 349.9344482
vertex -47.07616425 32.12332916 349.9197998
vertex -47.18573761 32.31204987 350.0627441

endloop
endfacet
facet normal -0.622274816 0.2099077851 -0.7541305423
outer loop
vertex -47.18573761 32.31204987 350.0627441
vertex -47.07616425 32.12332916 349.9197998
vertex -47.22449493 32.15921783 350.0521851

endloop
endfacet
facet normal -0.7183295488 0.2275853902 -0.6574248672
outer loop
vertex -47.18573761 32.31204987 350.0627441
vertex -47.22449493 32.15921783 350.0521851
vertex -47.29987335 32.31526947 350.1885681

endloop
endfacet
facet normal -0.7235281467 0.2218084335 -0.6536880732
outer loop
vertex -47.29987335 32.31526947 350.1885681
vertex -47.22449493 32.15921783 350.0521851
vertex -47.33370209 32.18729401 350.1825867

endloop
endfacet
facet normal -0.8396823406 0.2447917312 -0.4847788811
outer loop
vertex -47.29987335 32.31525421 350.1885986
vertex -47.33370209 32.18730927 350.1825867
vertex -47.37430573 32.30554962 350.3126221

endloop
endfacet
facet normal -0.842754662 0.2403220683 -0.4816740155
outer loop
vertex -47.37430573 32.30554962 350.3126221
vertex -47.33370209 32.18730927 350.1825867
vertex -47.40139008 32.20714569 350.3109131

endloop
endfacet
facet normal -0.9327611923 0.2522573471 0.2575319111
outer loop
vertex -47.37430573 32.30554962 350.3126221
vertex -47.40139008 32.20714569 350.3109131
vertex -47.33260345 32.21486664 350.5524902

endloop
endfacet
facet normal 0 0.999489665 -0.0319442749
outer loop
vertex -47.33260345 32.21486664 350.5524902
vertex -47.40139008 32.20714569 350.3109131
vertex -47.33261871 32.21486664 350.5524902

endloop
endfacet
facet normal -0.3036486804 0 0.9527840018
outer loop
vertex -44.30410004 31.76694489 348.4308777
vertex -44.30410004 31.76696014 348.4308777
vertex -44.57375336 31.75286102 348.3449402

endloop
endfacet
facet normal 0.2913510501 0.1679686904 -0.9417542219
outer loop
vertex -44.57375336 31.75286102 348.3449402
vertex -44.30410004 31.76696014 348.4308777
vertex -44.51818085 31.63422394 348.3409729

endloop
endfacet
facet normal -0.03903182596 0.0151277408 -0.9991233945
outer loop
vertex -44.57375336 31.75286102 348.3449402
vertex -44.51818085 31.63422394 348.3409729
vertex -44.69602203 31.73972321 348.3495178

endloop
endfacet
facet normal -0.1335482895 -0.1457266808 -0.9802696705
outer loop
vertex -44.69602203 31.73972321 348.3495178
vertex -44.51818085 31.63422394 348.3409729
vertex -44.63652802 31.57845306 348.365387

endloop
endfacet
facet normal -0.1905807853 -0.1655213982 -0.9676164985
outer loop
vertex -44.69602203 31.73972321 348.3495178
vertex -44.63652802 31.57845306 348.365387
vertex -44.82900238 31.73566437 348.3764038

endloop
endfacet
facet normal -0.2726102769 -0.2690245807 -0.9237475395
outer loop
vertex -44.82900238 31.73566437 348.3764038
vertex -44.63652802 31.57845306 348.365387
vertex -44.77248383 31.5374527 348.41745

endloop
endfacet
facet normal -0.341466248 -0.2829714417 -0.8962855935
outer loop
vertex -44.82900238 31.73566437 348.3764038
vertex -44.77248383 31.5374527 348.41745
vertex -44.98160553 31.74330902 348.4321289

endloop
endfacet
facet normal -0.3907372057 -0.3358211219 -0.8570581079
outer loop
vertex -44.98160553 31.74330902 348.4321289
vertex -44.77248383 31.5374527 348.41745
vertex -44.93157196 31.51491547 348.4988098

endloop
endfacet
facet normal -0.4644193649 -0.3404335082 -0.817569375
outer loop
vertex -44.98160553 31.74330902 348.4321289
vertex -44.93157196 31.51491547 348.4988098
vertex -45.14875031 31.76267242 348.5190125

endloop
endfacet
facet normal -0.4867358804 -0.3618286848 -0.7950900793
outer loop
vertex -45.14875031 31.76267242 348.5190125
vertex -44.93157196 31.51491547 348.4988098
vertex -45.10497284 31.51380157 348.6054688

endloop
endfacet
facet normal -0.5463761091 -0.358984977 -0.7567052841
outer loop
vertex -45.14875031 31.76267242 348.5190125
vertex -45.10497284 31.51380157 348.6054688
vertex -45.32274628 31.78980255 348.6317749

endloop
endfacet
facet normal -0.554577291 -0.3663676083 -0.7471404076
outer loop
vertex -45.32274628 31.78980255 348.6317749
vertex -45.10497284 31.51380157 348.6054688
vertex -45.28282928 31.52985382 348.7296143

endloop
endfacet
facet normal -0.5904019475 -0.3621439338 -0.7213025689
outer loop
vertex -45.32274628 31.78980255 348.6317749
vertex -45.28282928 31.52985382 348.7296143
vertex -45.49707794 31.82012177 348.7592468

endloop
endfacet
facet normal -0.5925975442 -0.3640466332 -0.7185388803
outer loop
vertex -45.49707794 31.82012177 348.7592468
vertex -45.28282928 31.52985382 348.7296143
vertex -45.45917511 31.55591583 348.8618469

endloop
endfacet
facet normal -0.6070548296 -0.3618174791 -0.7075114846
outer loop
vertex -45.49707794 31.82013702 348.7592468
vertex -45.45917511 31.55591583 348.8618469
vertex -45.67060089 31.85138702 348.8921509

endloop
endfacet
facet normal -0.6065580249 -0.3613962829 -0.708152473
outer loop
vertex -45.67060089 31.85138702 348.8921509
vertex -45.45917511 31.55591583 348.8618469
vertex -45.6344986 31.58705902 348.9961243

endloop
endfacet
facet normal -0.609269917 -0.3609410226 -0.706053555
outer loop
vertex -45.67060089 31.85138702 348.8921509
vertex -45.6344986 31.58705902 348.9961243
vertex -45.8463974 31.88301849 349.0276794

endloop
endfacet
facet normal -0.6078040004 -0.3596889079 -0.7079535127
outer loop
vertex -45.8463974 31.88301849 349.0276794
vertex -45.6344986 31.58705902 348.9961243
vertex -45.81220245 31.6211319 349.1313782

endloop
endfacet
facet normal -0.6088286042 -0.3594064415 -0.7072162032
outer loop
vertex -45.84638214 31.88304901 349.02771
vertex -45.81218719 31.6211319 349.1313782
vertex -46.025383 31.91466522 349.165741

endloop
endfacet
facet normal -0.6073551178 -0.3581113517 -0.7091375589
outer loop
vertex -46.025383 31.91466522 349.165741
vertex -45.81218719 31.6211319 349.1313782
vertex -45.992836 31.65702057 349.2679749

endloop
endfacet
facet normal -0.609187901 -0.3577840924 -0.70772928
outer loop
vertex -46.025383 31.91466522 349.165741
vertex -45.992836 31.65702057 349.2679749
vertex -46.2040329 31.94586945 349.3037415

endloop
endfacet
facet normal -0.6071703434 -0.3559823334 -0.7103666663
outer loop
vertex -46.2040329 31.94586945 349.3037415
vertex -45.992836 31.65702057 349.2679749
vertex -46.17331696 31.69397736 349.403717

endloop
endfacet
facet normal -0.6039733887 -0.3565579057 -0.7127991319
outer loop
vertex -46.2040329 31.94586945 349.3037415
vertex -46.17331696 31.69397736 349.403717
vertex -46.37863922 31.97704315 349.4360962

endloop
endfacet
facet normal -0.599955976 -0.3530586958 -0.7179152966
outer loop
vertex -46.37863922 31.97704315 349.4360962
vertex -46.17331696 31.69397736 349.403717
vertex -46.3514328 31.731987 349.5338745

endloop
endfacet
facet normal -0.5876093507 -0.3552987874 -0.726964891
outer loop
vertex -46.37863922 31.97704315 349.4360962
vertex -46.3514328 31.731987 349.5338745
vertex -46.55077362 32.00959015 349.5593262

endloop
endfacet
facet normal -0.5813224912 -0.3500930071 -0.7345059514
outer loop
vertex -46.55077362 32.00959015 349.5593262
vertex -46.3514328 31.731987 349.5338745
vertex -46.52942657 31.77233124 349.6555176

endloop
endfacet
facet normal -0.568056047 -0.3525797129 -0.7436395884
outer loop
vertex -46.55075836 32.00962067 349.5593567
vertex -46.52941132 31.7723465 349.6555481
vertex -46.7256546 32.04520416 349.6760864

endloop
endfacet
facet normal -0.5616928935 -0.3474606276 -0.7508476973
outer loop
vertex -46.7256546 32.04520416 349.6760864
vertex -46.52941132 31.7723465 349.6555481
vertex -46.71138763 31.81717682 349.7709351

endloop
endfacet
facet normal -0.5687379241 -0.345974952 -0.7462161183
outer loop
vertex -46.7256546 32.04520416 349.6760864
vertex -46.71138763 31.81717682 349.7709351
vertex -46.9041214 32.08391571 349.7941589

endloop
endfacet
facet normal -0.5646978021 -0.3426564634 -0.7508015037
outer loop
vertex -46.9041214 32.08391571 349.7941589
vertex -46.71138763 31.81717682 349.7709351
vertex -46.89572906 31.8682785 349.886261

endloop
endfacet
facet normal -0.6046119928 -0.3326484561 -0.7237328887
outer loop
vertex -46.9041214 32.08391571 349.7941589
vertex -46.89572906 31.8682785 349.886261
vertex -47.07616425 32.12332916 349.9197693

endloop
endfacet
facet normal -0.6043224335 -0.3323966861 -0.7240903378
outer loop
vertex -47.07616425 32.12332916 349.9197693
vertex -46.89572906 31.8682785 349.886261
vertex -47.07086945 31.9253006 350.0062561

endloop
endfacet
facet normal -0.6736223698 -0.3108549118 -0.6705237031
outer loop
vertex -47.07616425 32.12332916 349.9197693
vertex -47.07086945 31.9253006 350.0062561
vertex -47.22449493 32.15920258 350.0521545

endloop
endfacet
facet normal -0.677695632 -0.314691931 -0.6646033525
outer loop
vertex -47.22449493 32.15920258 350.0521545
vertex -47.07086945 31.9253006 350.0062561
vertex -47.21949005 31.98497772 350.1295471

endloop
endfacet
facet normal -0.7649129629 -0.2797175944 -0.5802294612
outer loop
vertex -47.22449493 32.15920258 350.0521545
vertex -47.21949005 31.98497772 350.1295471
vertex -47.33370209 32.18727875 350.1825867

endloop
endfacet
facet normal -0.7723431587 -0.2875385284 -0.566398859
outer loop
vertex -47.33370209 32.18727875 350.1825867
vertex -47.21949005 31.98497772 350.1295471
vertex -47.32750702 32.04163361 350.2480774

endloop
endfacet
facet normal -0.8751598001 -0.2289726138 -0.4262240231
outer loop
vertex -47.33370209 32.18727875 350.1825867
vertex -47.32749176 32.04163361 350.2480774
vertex -47.40139008 32.20711517 350.3109131

endloop
endfacet
facet normal -0.8830919266 -0.2416399121 -0.4021925926
outer loop
vertex -47.40139008 32.20711517 350.3109131
vertex -47.32749176 32.04163361 350.2480774
vertex -47.39395905 32.0954361 350.3616943

endloop
endfacet
facet normal -0.9605707526 0.05957310274 0.2715785801
outer loop
vertex -47.40139008 32.20711517 350.3109131
vertex -47.39395905 32.0954361 350.3616943
vertex -47.33261871 32.21485138 350.5524597

endloop
endfacet
facet normal -0.4733136296 -0.670327425 0.5715202093
outer loop
vertex -47.33261871 32.21485138 350.5524597
vertex -47.39395905 32.0954361 350.3616943
vertex -47.33260345 32.21486664 350.5524902

endloop
endfacet
facet normal -nan(ind) -nan(ind) -nan(ind)
outer loop
vertex -44.30410004 31.76696014 348.4308777
vertex -44.30410004 31.76696014 348.4308777
vertex -44.51818085 31.6342392 348.3410034

endloop
endfacet
facet normal 0.395494163 -0.01607641391 -0.9183277488
outer loop
vertex -44.51818085 31.6342392 348.3410034
vertex -44.30410004 31.76696014 348.4308777
vertex -44.32793427 31.51880646 348.4249573

endloop
endfacet
facet normal 0.06586043537 -0.5136386156 -0.8554751277
outer loop
vertex -44.51818085 31.6342392 348.3410034
vertex -44.32793427 31.51880646 348.4249573
vertex -44.63652802 31.57845306 348.365387

endloop
endfacet
facet normal 0.01509045064 -0.666407764 -0.745434761
outer loop
vertex -44.63652802 31.57845306 348.365387
vertex -44.32793427 31.51880646 348.4249573
vertex -44.40781403 31.42107391 348.5107117

endloop
endfacet
facet normal -0.05055756494 -0.7162104249 -0.6960507035
outer loop
vertex -44.63652802 31.57845306 348.365387
vertex -44.40781403 31.42107391 348.5107117
vertex -44.77248383 31.5374527 348.41745

endloop
endfacet
facet normal -0.09721384943 -0.7898645401 -0.605527401
outer loop
vertex -44.77248383 31.5374527 348.41745
vertex -44.40781403 31.42107391 348.5107117
vertex -44.52318573 31.34372711 348.630127

endloop
endfacet
facet normal -0.1657933593 -0.8180165887 -0.5507825017
outer loop
vertex -44.77248383 31.5374527 348.41745
vertex -44.52318573 31.34372711 348.630127
vertex -44.93157196 31.51491547 348.4988098

endloop
endfacet
facet normal -0.1928423494 -0.8439801335 -0.5005090833
outer loop
vertex -44.93157196 31.51491547 348.4988098
vertex -44.52318573 31.34372711 348.630127
vertex -44.67401886 31.29146576 348.7763672

endloop
endfacet
facet normal -0.2664875984 -0.8564200997 -0.4421865046
outer loop
vertex -44.93157196 31.51491547 348.4988098
vertex -44.67401886 31.29146576 348.7763672
vertex -45.10497284 31.51380157 348.6054688

endloop
endfacet
facet normal -0.2770804465 -0.8625233173 -0.4234146774
outer loop
vertex -45.10497284 31.51380157 348.6054688
vertex -44.67401886 31.29146576 348.7763672
vertex -44.84648895 31.27031708 348.932312

endloop
endfacet
facet normal -0.3392916918 -0.8629165888 -0.3745078743
outer loop
vertex -45.10497284 31.51380157 348.6054688
vertex -44.84648895 31.27031708 348.932312
vertex -45.28282928 31.52985382 348.7296143

endloop
endfacet
facet normal -0.341190666 -0.8635715842 -0.3712587357
outer loop
vertex -45.28282928 31.52985382 348.7296143
vertex -44.84648895 31.27031708 348.932312
vertex -45.02625275 31.27550507 349.0854492

endloop
endfacet
facet normal -0.381611973 -0.8597602844 -0.3393884301
outer loop
vertex -45.28282928 31.52985382 348.7296143
vertex -45.02625275 31.27550507 349.0854492
vertex -45.45917511 31.55591583 348.8618774

endloop
endfacet
facet normal -0.3802514672 -0.8594658971 -0.3416537046
outer loop
vertex -45.45917511 31.55591583 348.8618774
vertex -45.02625275 31.27550507 349.0854492
vertex -45.20688629 31.29738617 349.2314453

endloop
endfacet
facet normal -0.4012305439 -0.8563265204 -0.3251444995
outer loop
vertex -45.45917511 31.55591583 348.8618469
vertex -45.20688629 31.29737091 349.2314453
vertex -45.63451385 31.58707428 348.9961548

endloop
endfacet
facet normal -0.3982813656 -0.855868578 -0.3299407363
outer loop
vertex -45.63451385 31.58707428 348.9961548
vertex -45.20688629 31.29737091 349.2314453
vertex -45.38967133 31.32840729 349.371582

endloop
endfacet
facet normal -0.4086437225 -0.8540360928 -0.3219201267
outer loop
vertex -45.63451385 31.58707428 348.9961548
vertex -45.38967133 31.32840729 349.371582
vertex -45.81221771 31.6211319 349.1313782

endloop
endfacet
facet normal -0.4053780735 -0.8536077738 -0.3271427751
outer loop
vertex -45.81221771 31.6211319 349.1313782
vertex -45.38967133 31.32840729 349.371582
vertex -45.57660675 31.36489105 349.5080261

endloop
endfacet
facet normal -0.4125343561 -0.8522424698 -0.3217113018
outer loop
vertex -45.81220245 31.62114716 349.1313782
vertex -45.57659149 31.36490631 349.5080566
vertex -45.992836 31.65702057 349.2679749

endloop
endfacet
facet normal -0.4095701277 -0.8518838286 -0.3264142275
outer loop
vertex -45.992836 31.65702057 349.2679749
vertex -45.57659149 31.36490631 349.5080566
vertex -45.76647186 31.40494537 349.6418152

endloop
endfacet
facet normal -0.4160526693 -0.8505710959 -0.3216038048
outer loop
vertex -45.992836 31.65702057 349.2679749
vertex -45.76647186 31.40494537 349.6418152
vertex -46.17331696 31.69397736 349.403717

endloop
endfacet
facet normal -0.4124600291 -0.8501665592 -0.3272515535
outer loop
vertex -46.17331696 31.69397736 349.403717
vertex -45.76647186 31.40494537 349.6418152
vertex -45.95742035 31.44747162 349.7720032

endloop
endfacet
facet normal -0.4176009297 -0.8490862846 -0.3235147893
outer loop
vertex -46.17331696 31.69397736 349.403717
vertex -45.95742035 31.44747162 349.7720032
vertex -46.3514328 31.731987 349.5338745

endloop
endfacet
facet normal -0.4112550914 -0.8484272361 -0.3332272768
outer loop
vertex -46.3514328 31.731987 349.5338745
vertex -45.95742035 31.44747162 349.7720032
vertex -46.15053558 31.49216461 349.8965454

endloop
endfacet
facet normal -0.4170125723 -0.8471825123 -0.3292149007
outer loop
vertex -46.3514328 31.731987 349.5338745
vertex -46.15053558 31.49216461 349.8965454
vertex -46.52942657 31.77233124 349.6555176

endloop
endfacet
facet normal -0.4072929025 -0.8462672234 -0.3434302509
outer loop
vertex -46.52942657 31.77233124 349.6555176
vertex -46.15053558 31.49216461 349.8965454
vertex -46.34914398 31.54010773 350.0139465

endloop
endfacet
facet normal -0.4201916456 -0.8433215618 -0.3350338936
outer loop
vertex -46.52941132 31.7723465 349.6555481
vertex -46.34912872 31.54012299 350.0139771
vertex -46.71138763 31.81717682 349.7709351

endloop
endfacet
facet normal -0.4096880555 -0.8425089717 -0.349763304
outer loop
vertex -46.71138763 31.81717682 349.7709351
vertex -46.34912872 31.54012299 350.0139771
vertex -46.55397797 31.59406281 350.1239929

endloop
endfacet
facet normal -0.4390676916 -0.8349158168 -0.3318660557
outer loop
vertex -46.71138763 31.81717682 349.7709351
vertex -46.55397797 31.59406281 350.1239929
vertex -46.89572906 31.8682785 349.886261

endloop
endfacet
facet normal -0.4313355684 -0.8346024156 -0.3426198959
outer loop
vertex -46.89572906 31.8682785 349.886261
vertex -46.55397797 31.59406281 350.1239929
vertex -46.75795746 31.65732574 350.2266846

endloop
endfacet
facet normal -0.4809977114 -0.819001615 -0.312853843
outer loop
vertex -46.89572906 31.8682785 349.886261
vertex -46.75795746 31.65732574 350.2266846
vertex -47.07086945 31.9253006 350.0062561

endloop
endfacet
facet normal -0.4795440435 -0.8190435767 -0.3149683774
outer loop
vertex -47.07086945 31.9253006 350.0062561
vertex -46.75795746 31.65732574 350.2266846
vertex -46.94693756 31.73169708 350.3210144

endloop
endfacet
facet normal -0.5448870063 -0.7927914262 -0.2730931342
outer loop
vertex -47.07086945 31.9253006 350.0062561
vertex -46.94693756 31.73169708 350.3210144
vertex -47.21949005 31.98497772 350.1295471

endloop
endfacet
facet normal -0.5531251431 -0.7915696502 -0.2597500384
outer loop
vertex -47.21949005 31.98497772 350.1295471
vertex -46.94693756 31.73169708 350.3210144
vertex -47.10503387 31.81478119 350.40448

endloop
endfacet
facet normal -0.6231374741 -0.7541083694 -0.2074131668
outer loop
vertex -47.21949005 31.98497772 350.1295471
vertex -47.10503387 31.81478119 350.40448
vertex -47.32750702 32.04163361 350.2480774

endloop
endfacet
facet normal -0.6423125267 -0.7472938895 -0.1702538878
outer loop
vertex -47.32750702 32.04163361 350.2480774
vertex -47.10503387 31.81478119 350.40448
vertex -47.22193146 31.89962006 350.473114

endloop
endfacet
facet normal -0.7201316357 -0.6871852875 -0.09584830701
outer loop
vertex -47.32749176 32.04163361 350.2480774
vertex -47.22193146 31.89962006 350.4731445
vertex -47.39395905 32.0954361 350.3617249

endloop
endfacet
facet normal -0.7444074154 -0.667313993 -0.02344454825
outer loop
vertex -47.39395905 32.0954361 350.3617249
vertex -47.22193146 31.89962006 350.4731445
vertex -47.30187225 31.98685455 350.5284119

endloop
endfacet
facet normal -0.9047424793 -0.1634668261 0.3933440745
outer loop
vertex -47.39395905 32.0954361 350.3617249
vertex -47.30187225 31.98685455 350.5284119
vertex -47.33260345 32.2148819 350.5524902

endloop
endfacet
facet normal -0.6167507768 0 -0.7871584892
outer loop
vertex -47.33260345 32.2148819 350.5524902
vertex -47.30187225 31.98685455 350.5284119
vertex -47.33260345 32.21486664 350.5524902

endloop
endfacet
endsolid
