solid 
facet normal -nan(ind) -nan(ind) -nan(ind)
outer loop
vertex -87.27629852 73.54076385 238.6667633
vertex -87.27629852 73.54076385 238.6667633
vertex -87.10948944 73.04946136 238.4221954

endloop
endfacet
facet normal -0.5077085495 0.2395705432 -0.8275493979
outer loop
vertex -87.10948944 73.04946136 238.4221954
vertex -87.27629852 73.54076385 238.6667633
vertex -86.85178375 73.34059906 238.3483734

endloop
endfacet
facet normal 0.1615126431 -0.37448439 -0.9130581617
outer loop
vertex -87.10948944 73.04946136 238.4221954
vertex -86.85178375 73.34059906 238.3483734
vertex -86.73771667 72.80648041 238.587616

endloop
endfacet
facet normal 0.1747766286 -0.3711645007 -0.9119704366
outer loop
vertex -86.73771667 72.80648041 238.587616
vertex -86.85178375 73.34059906 238.3483734
vertex -86.49852753 73.11717987 238.5070038

endloop
endfacet
facet normal 0.1828897744 -0.3764350116 -0.90821141
outer loop
vertex -86.73771667 72.80648041 238.587616
vertex -86.49852753 73.11717987 238.5070038
vertex -86.33300018 72.600914 238.7543182

endloop
endfacet
facet normal 0.1851044148 -0.3756631315 -0.9080823064
outer loop
vertex -86.33300018 72.600914 238.7543182
vertex -86.49852753 73.11717987 238.5070038
vertex -86.13695526 72.92992401 238.6581726

endloop
endfacet
facet normal 0.2083782703 -0.3866898119 -0.8983593583
outer loop
vertex -86.33300018 72.600914 238.7543182
vertex -86.13695526 72.92992401 238.6581726
vertex -85.87275696 72.42272186 238.9377747

endloop
endfacet
facet normal 0.2108569294 -0.3853881955 -0.8983403444
outer loop
vertex -85.87275696 72.42272186 238.9377747
vertex -86.13695526 72.92992401 238.6581726
vertex -85.71006775 72.76818085 238.8277588

endloop
endfacet
facet normal 0.2436310649 -0.3965976536 -0.8850730062
outer loop
vertex -85.87275696 72.42272186 238.9377747
vertex -85.71006775 72.76818085 238.8277588
vertex -85.38679504 72.284935 239.1332855

endloop
endfacet
facet normal 0.2444665432 -0.3960485756 -0.885088563
outer loop
vertex -85.38679504 72.284935 239.1332855
vertex -85.71006775 72.76818085 238.8277588
vertex -85.24961853 72.63811493 239.0131378

endloop
endfacet
facet normal 0.2823626697 -0.4054374993 -0.8694203496
outer loop
vertex -85.38679504 72.284935 239.1332855
vertex -85.24961853 72.63811493 239.0131378
vertex -84.87017059 72.19069672 239.3450165

endloop
endfacet
facet normal 0.2847592235 -0.4034954309 -0.8695422411
outer loop
vertex -84.87017059 72.19069672 239.3450165
vertex -85.24961853 72.63811493 239.0131378
vertex -84.7605896 72.55010223 239.2141266

endloop
endfacet
facet normal 0.3121457696 -0.4076834321 -0.8581137657
outer loop
vertex -84.87017059 72.19069672 239.3450165
vertex -84.7605896 72.55010223 239.2141266
vertex -84.35800171 72.12776947 239.5612183

endloop
endfacet
facet normal 0.3140372336 -0.4059776962 -0.8582323194
outer loop
vertex -84.35800171 72.12776947 239.5612183
vertex -84.7605896 72.55010223 239.2141266
vertex -84.25999451 72.4892807 239.4260712

endloop
endfacet
facet normal 0.3312890232 -0.407821089 -0.8508405089
outer loop
vertex -84.35800171 72.12773895 239.561203
vertex -84.25999451 72.4892807 239.4260712
vertex -83.83480072 72.07329559 239.7910156

endloop
endfacet
facet normal 0.3327971995 -0.4063715935 -0.8509454727
outer loop
vertex -83.83480072 72.07329559 239.7910156
vertex -84.25999451 72.4892807 239.4260712
vertex -83.73672485 72.435112 239.6565857

endloop
endfacet
facet normal 0.3429530561 -0.4074331522 -0.846393168
outer loop
vertex -83.83480072 72.07329559 239.7910156
vertex -83.73672485 72.435112 239.6565857
vertex -83.30612183 72.01189423 240.03479

endloop
endfacet
facet normal 0.344961673 -0.4054927528 -0.8465087414
outer loop
vertex -83.30612183 72.01189423 240.03479
vertex -83.73672485 72.435112 239.6565857
vertex -83.19893646 72.37291718 239.9055328

endloop
endfacet
facet normal 0.3477640748 -0.4058217108 -0.8452034593
outer loop
vertex -83.30612183 72.01192474 240.0348053
vertex -83.19893646 72.37294769 239.9055634
vertex -82.7862854 71.92931366 240.2883606

endloop
endfacet
facet normal 0.3506637812 -0.4031812251 -0.845269084
outer loop
vertex -82.7862854 71.92931366 240.2883606
vertex -83.19893646 72.37294769 239.9055634
vertex -82.66136932 72.28786469 240.1691589

endloop
endfacet
facet normal 0.3458181024 -0.4022957981 -0.8476839066
outer loop
vertex -82.7862854 71.92931366 240.2883606
vertex -82.66136932 72.28786469 240.1691589
vertex -82.27636719 71.81279755 240.5516815

endloop
endfacet
facet normal 0.3497717679 -0.3990289271 -0.8476058245
outer loop
vertex -82.27636719 71.81279755 240.5516815
vertex -82.66136932 72.28786469 240.1691589
vertex -82.1288681 72.16677094 240.4459076

endloop
endfacet
facet normal 0.3392929435 -0.3963108659 -0.8531224728
outer loop
vertex -82.27636719 71.81279755 240.5516815
vertex -82.1288681 72.16677094 240.4459076
vertex -81.77503967 71.65673065 240.8235626

endloop
endfacet
facet normal 0.3441086113 -0.3927584589 -0.8528364897
outer loop
vertex -81.77503967 71.65673065 240.8235626
vertex -82.1288681 72.16677094 240.4459076
vertex -81.60456848 72.0043869 240.7322388

endloop
endfacet
facet normal 0.3295588791 -0.3877283037 -0.8608470559
outer loop
vertex -81.77503967 71.65673065 240.8235626
vertex -81.60456848 72.0043869 240.7322388
vertex -81.29020691 71.46257782 241.0966187

endloop
endfacet
facet normal 0.3337176144 -0.3850472271 -0.8604483008
outer loop
vertex -81.29020691 71.46257782 241.0966187
vertex -81.60456848 72.0043869 240.7322388
vertex -81.09779358 71.80211639 241.0193024

endloop
endfacet
facet normal 0.3156144917 -0.3771396279 -0.8707199693
outer loop
vertex -81.29019928 71.46257782 241.0966492
vertex -81.09777832 71.80214691 241.0193176
vertex -80.82125092 71.22457123 241.3697205

endloop
endfacet
facet normal 0.3295728266 -0.3693451881 -0.8688877225
outer loop
vertex -80.82125092 71.22457123 241.3697205
vertex -81.09777832 71.80214691 241.0193176
vertex -80.60439301 71.55110931 241.3131714

endloop
endfacet
facet normal 0.3173580468 -0.3625134826 -0.8762806654
outer loop
vertex -80.82125092 71.22457123 241.3697205
vertex -80.60439301 71.55110931 241.3131714
vertex -80.34746552 70.89904022 241.6759796

endloop
endfacet
facet normal 0.3792419732 -0.3312763572 -0.8639626503
outer loop
vertex -80.34746552 70.89904022 241.6759796
vertex -80.60439301 71.55110931 241.3131714
vertex -80.09333038 71.19753265 241.6730804

endloop
endfacet
facet normal 0.3856870234 -0.3367153406 -0.8589926362
outer loop
vertex -80.34746552 70.89904022 241.6759796
vertex -80.09333038 71.19753265 241.6730804
vertex -79.87162781 70.38018036 242.0930176

endloop
endfacet
facet normal 0.4743513167 -0.2970961332 -0.8286885023
outer loop
vertex -79.87162781 70.38018036 242.0930176
vertex -80.09333038 71.19753265 241.6730804
vertex -79.59023285 70.64568329 242.158905

endloop
endfacet
facet normal 0.4748720229 -0.2977833152 -0.8281434178
outer loop
vertex -79.87162781 70.38018036 242.0930176
vertex -79.59023285 70.64568329 242.158905
vertex -79.44093323 69.72978973 242.5738525

endloop
endfacet
facet normal 0.5212072134 -0.2802456915 -0.8061050773
outer loop
vertex -79.44093323 69.72978973 242.5738525
vertex -79.59023285 70.64568329 242.158905
vertex -79.14956665 69.97664642 242.6764221

endloop
endfacet
facet normal 0.5170652866 -0.2732583284 -0.8111556172
outer loop
vertex -79.44093323 69.72978973 242.5738525
vertex -79.14956665 69.97664642 242.6764221
vertex -79.06287384 69.08187103 243.0331116

endloop
endfacet
facet normal 0.5168004632 -0.273340255 -0.811296761
outer loop
vertex -79.06287384 69.08187103 243.0331116
vertex -79.14956665 69.97664642 242.6764221
vertex -78.76685333 69.33263397 243.1371918

endloop
endfacet
facet normal 0.5103806853 -0.2625831366 -0.818878293
outer loop
vertex -79.06287384 69.08187103 243.0331116
vertex -78.76685333 69.33266449 243.1371918
vertex -78.41544342 68.01744843 243.7779541

endloop
endfacet
facet normal 0.4991279244 -0.2680914998 -0.8240134716
outer loop
vertex -78.41544342 68.01744843 243.7779541
vertex -78.76685333 69.33266449 243.1371918
vertex -78.12425995 68.2694931 243.8723297

endloop
endfacet
facet normal 0.6040745378 -0.4521566927 -0.6562379003
outer loop
vertex -78.41544342 68.01744843 243.7779541
vertex -78.12425995 68.2694931 243.8723297
vertex -77.75810242 67.13195038 244.9931641

endloop
endfacet
facet normal -nan(ind) -nan(ind) -nan(ind)
outer loop
vertex -77.75810242 67.13195038 244.9931641
vertex -78.12425995 68.2694931 243.8723297
vertex -77.75810242 67.13195038 244.9931641

endloop
endfacet
facet normal 0.3648399413 -0.4877537787 0.7930876017
outer loop
vertex -87.27629852 73.54076385 238.6667633
vertex -87.27630615 73.54073334 238.666748
vertex -86.85178375 73.34059906 238.3483734

endloop
endfacet
facet normal -0.3080164194 0.5646815896 -0.7656766176
outer loop
vertex -86.85178375 73.34059906 238.3483734
vertex -87.27630615 73.54073334 238.666748
vertex -86.74971771 73.51708221 238.4374695

endloop
endfacet
facet normal 0.4844166636 0.1545535177 -0.8610770702
outer loop
vertex -86.85178375 73.34059906 238.3483734
vertex -86.74971771 73.51708221 238.4374695
vertex -86.49852753 73.11717987 238.5070038

endloop
endfacet
facet normal 0.5153151155 0.1779171526 -0.8383291364
outer loop
vertex -86.49852753 73.11717987 238.5070038
vertex -86.74971771 73.51708221 238.4374695
vertex -86.41573334 73.29546356 238.5957336

endloop
endfacet
facet normal 0.4677387774 0.2100701779 -0.8585400581
outer loop
vertex -86.49852753 73.11717987 238.5070038
vertex -86.41573334 73.29546356 238.5957336
vertex -86.13695526 72.92992401 238.6581726

endloop
endfacet
facet normal 0.468167454 0.2104530782 -0.8582125306
outer loop
vertex -86.13695526 72.92992401 238.6581726
vertex -86.41573334 73.29546356 238.5957336
vertex -86.07810211 73.11852264 238.7365265

endloop
endfacet
facet normal 0.4327213466 0.2273989171 -0.8723772168
outer loop
vertex -86.13695526 72.92992401 238.6581726
vertex -86.07810211 73.11852264 238.7365265
vertex -85.71006775 72.76818085 238.8277588

endloop
endfacet
facet normal 0.4315232933 0.225883469 -0.8733637929
outer loop
vertex -85.71006775 72.76818085 238.8277588
vertex -86.07810211 73.11852264 238.7365265
vertex -85.67050934 72.96617889 238.8985138

endloop
endfacet
facet normal 0.4187084734 0.230259195 -0.8784440756
outer loop
vertex -85.71006775 72.76818085 238.8277588
vertex -85.67050934 72.96617889 238.8985138
vertex -85.24961853 72.63811493 239.0131378

endloop
endfacet
facet normal 0.4190518558 0.2308072299 -0.8781363964
outer loop
vertex -85.24961853 72.63811493 239.0131378
vertex -85.67050934 72.96617889 238.8985138
vertex -85.22516632 72.84050751 239.0780029

endloop
endfacet
facet normal 0.4053328931 0.2342323512 -0.883651793
outer loop
vertex -85.24961853 72.63811493 239.0131378
vertex -85.22516632 72.84050751 239.0780029
vertex -84.7605896 72.55010223 239.2141266

endloop
endfacet
facet normal 0.4057296216 0.2350548357 -0.8832512498
outer loop
vertex -84.7605896 72.55010223 239.2141266
vertex -85.22516632 72.84050751 239.0780029
vertex -84.7530365 72.75603485 239.2723999

endloop
endfacet
facet normal 0.4030391574 0.2354705483 -0.8843715191
outer loop
vertex -84.7605896 72.55010223 239.2141266
vertex -84.7530365 72.75603485 239.2723999
vertex -84.25999451 72.4892807 239.4260712

endloop
endfacet
facet normal 0.4035301805 0.2366955429 -0.8838204741
outer loop
vertex -84.25999451 72.4892807 239.4260712
vertex -84.7530365 72.75603485 239.2723999
vertex -84.26067352 72.69646454 239.4812469

endloop
endfacet
facet normal 0.4121155441 0.2356744409 -0.8801240325
outer loop
vertex -84.25999451 72.4892807 239.4260712
vertex -84.26067352 72.69646454 239.4812317
vertex -83.73672485 72.435112 239.6565857

endloop
endfacet
facet normal 0.4126593173 0.2372130454 -0.8794556856
outer loop
vertex -83.73672485 72.435112 239.6565857
vertex -84.26067352 72.69646454 239.4812317
vertex -83.73942566 72.64244843 239.7112427

endloop
endfacet
facet normal 0.4305668175 0.2353082597 -0.8713451028
outer loop
vertex -83.73672485 72.435112 239.6565857
vertex -83.73942566 72.64244843 239.7112427
vertex -83.19893646 72.37291718 239.9055328

endloop
endfacet
facet normal 0.4313500226 0.2376084924 -0.8703328967
outer loop
vertex -83.19893646 72.37291718 239.9055328
vertex -83.73942566 72.64244843 239.7112427
vertex -83.19910431 72.57979584 239.9619293

endloop
endfacet
facet normal 0.4576540887 0.2341367304 -0.8577485681
outer loop
vertex -83.19893646 72.37294769 239.9055634
vertex -83.19908905 72.57979584 239.9619446
vertex -82.66136932 72.28786469 240.1691589

endloop
endfacet
facet normal 0.4588287175 0.2373790592 -0.85622859
outer loop
vertex -82.66136932 72.28786469 240.1691589
vertex -83.19908905 72.57979584 239.9619446
vertex -82.65442657 72.4932785 240.2298279

endloop
endfacet
facet normal 0.4895721674 0.2317265272 -0.84060812
outer loop
vertex -82.66136932 72.28786469 240.1691589
vertex -82.65442657 72.4932785 240.2298279
vertex -82.1288681 72.16677094 240.4459076

endloop
endfacet
facet normal 0.4910672009 0.2353839278 -0.8387177587
outer loop
vertex -82.1288681 72.16677094 240.4459076
vertex -82.65442657 72.4932785 240.2298279
vertex -82.11190033 72.36962128 240.5127716

endloop
endfacet
facet normal 0.5201045871 0.2278257459 -0.8231565356
outer loop
vertex -82.1288681 72.16677094 240.4459076
vertex -82.11190033 72.36962128 240.5127716
vertex -81.60456848 72.0043869 240.7322388

endloop
endfacet
facet normal 0.5219242573 0.2316964716 -0.8209213614
outer loop
vertex -81.60456848 72.0043869 240.7322388
vertex -82.11190033 72.36962128 240.5127716
vertex -81.57684326 72.20354462 240.806076

endloop
endfacet
facet normal 0.5463657975 0.2232257426 -0.8072513342
outer loop
vertex -81.60456848 72.0043869 240.7322388
vertex -81.57684326 72.20354462 240.806076
vertex -81.09779358 71.80211639 241.0193024

endloop
endfacet
facet normal 0.5480304956 0.2262620479 -0.8052751422
outer loop
vertex -81.09779358 71.80211639 241.0193024
vertex -81.57684326 72.20354462 240.806076
vertex -81.05918121 71.99663544 241.100235

endloop
endfacet
facet normal 0.5777249932 0.2131633908 -0.7879055738
outer loop
vertex -81.09777832 71.80214691 241.0193176
vertex -81.05917358 71.99666595 241.1002502
vertex -80.60439301 71.55110931 241.3131714

endloop
endfacet
facet normal 0.5841212273 0.2233052403 -0.7803443074
outer loop
vertex -80.60439301 71.55110931 241.3131714
vertex -81.05917358 71.99666595 241.1002502
vertex -80.55488586 71.73818207 241.4037628

endloop
endfacet
facet normal 0.6484646201 0.1858708113 -0.7382044792
outer loop
vertex -80.60439301 71.55110931 241.3131714
vertex -80.55488586 71.73818207 241.4037628
vertex -80.09333038 71.19753265 241.6730804

endloop
endfacet
facet normal 0.6754100323 0.2271079868 -0.7016005516
outer loop
vertex -80.09333038 71.19753265 241.6730804
vertex -80.55488586 71.73818207 241.4037628
vertex -80.03501129 71.36858368 241.7845917

endloop
endfacet
facet normal 0.76581043 0.1470231265 -0.6260340214
outer loop
vertex -80.09333038 71.19753265 241.6730804
vertex -80.03501129 71.36858368 241.7845917
vertex -79.59023285 70.64568329 242.158905

endloop
endfacet
facet normal 0.8008362055 0.200532794 -0.5643119812
outer loop
vertex -79.59023285 70.64568329 242.158905
vertex -80.03501129 71.36858368 241.7845917
vertex -79.53237152 70.79784393 242.2950897

endloop
endfacet
facet normal 0.8394662738 0.148599565 -0.5226992369
outer loop
vertex -79.59023285 70.64568329 242.158905
vertex -79.53237152 70.79784393 242.2950897
vertex -79.14956665 69.97664642 242.6764221

endloop
endfacet
facet normal 0.8569118381 0.1741699278 -0.4851464331
outer loop
vertex -79.14956665 69.97664642 242.6764221
vertex -79.53237152 70.79784393 242.2950897
vertex -79.09385681 70.11806488 242.825592

endloop
endfacet
facet normal 0.8607957363 0.1677501649 -0.4805107713
outer loop
vertex -79.14956665 69.97664642 242.6764221
vertex -79.09385681 70.11806488 242.825592
vertex -78.76685333 69.33263397 243.1371918

endloop
endfacet
facet normal 0.8604212403 0.1672607511 -0.481351316
outer loop
vertex -78.76685333 69.33263397 243.1371918
vertex -79.09385681 70.11806488 242.825592
vertex -78.71007538 69.4764328 243.2886505

endloop
endfacet
facet normal 0.8539069891 0.1779491901 -0.4890571535
outer loop
vertex -78.76685333 69.33266449 243.1371918
vertex -78.71007538 69.47646332 243.2886505
vertex -78.12425995 68.2694931 243.8723297

endloop
endfacet
facet normal 0.8384457231 0.1541628838 -0.5227261782
outer loop
vertex -78.12425995 68.2694931 243.8723297
vertex -78.71007538 69.47646332 243.2886505
vertex -78.05960083 68.42238617 244.0211334

endloop
endfacet
facet normal 0.9335625768 -0.04929445684 -0.3550083339
outer loop
vertex -78.12425995 68.2694931 243.8723297
vertex -78.05960083 68.42238617 244.0211334
vertex -77.75810242 67.13195038 244.9931641

endloop
endfacet
facet normal -0.9316196442 0.05344436318 0.3594836593
outer loop
vertex -77.75810242 67.13195038 244.9931641
vertex -78.05960083 68.42238617 244.0211334
vertex -77.75811005 67.13191986 244.9931488

endloop
endfacet
facet normal -0.338393122 0.4543291628 -0.8240600824
outer loop
vertex -87.27630615 73.54073334 238.666748
vertex -87.27629852 73.54079437 238.6667786
vertex -86.74971771 73.51708221 238.4374695

endloop
endfacet
facet normal -0.2161253691 0.787117064 -0.5776993632
outer loop
vertex -86.74971771 73.51708221 238.4374695
vertex -87.27629852 73.54079437 238.6667786
vertex -86.71420288 73.64772797 238.6021881

endloop
endfacet
facet normal 0.6253132224 0.5401406288 -0.5632330775
outer loop
vertex -86.74971771 73.51708221 238.4374695
vertex -86.71420288 73.64772797 238.6021881
vertex -86.41573334 73.29546356 238.5957336

endloop
endfacet
facet normal 0.6455125213 0.5565193295 -0.5230677128
outer loop
vertex -86.41573334 73.29546356 238.5957336
vertex -86.71420288 73.64772797 238.6021881
vertex -86.39529419 73.42476654 238.7585297

endloop
endfacet
facet normal 0.5556510687 0.6156615615 -0.558760047
outer loop
vertex -86.41573334 73.29546356 238.5957336
vertex -86.39529419 73.42476654 238.7585297
vertex -86.07810211 73.11852264 238.7365265

endloop
endfacet
facet normal 0.5551760197 0.6152369976 -0.5596989989
outer loop
vertex -86.07810211 73.11852264 238.7365265
vertex -86.39529419 73.42476654 238.7585297
vertex -86.07435608 73.25530243 238.8905945

endloop
endfacet
facet normal 0.4777436852 0.6511582136 -0.5897066593
outer loop
vertex -86.07810211 73.11852264 238.7365265
vertex -86.07435608 73.25530243 238.8905945
vertex -85.67050934 72.96617889 238.8985138

endloop
endfacet
facet normal 0.4763680398 0.6491457224 -0.5930289626
outer loop
vertex -85.67050934 72.96617889 238.8985138
vertex -86.07435608 73.25530243 238.8905945
vertex -85.68089294 73.10979462 239.0473785

endloop
endfacet
facet normal 0.4331013262 0.663587451 -0.6099794507
outer loop
vertex -85.67050934 72.96617889 238.8985138
vertex -85.68089294 73.10979462 239.0473785
vertex -85.22516632 72.84050751 239.0780029

endloop
endfacet
facet normal 0.4333029687 0.6639956236 -0.6093916893
outer loop
vertex -85.22516632 72.84050751 239.0780029
vertex -85.68089294 73.10979462 239.0473785
vertex -85.24688721 72.98732758 239.2225342

endloop
endfacet
facet normal 0.3805776536 0.6767224073 -0.630243957
outer loop
vertex -85.22516632 72.84050751 239.0780029
vertex -85.24688721 72.98732758 239.2225342
vertex -84.7530365 72.75603485 239.2723999

endloop
endfacet
facet normal 0.3805657923 0.6766875982 -0.6302885413
outer loop
vertex -84.7530365 72.75603485 239.2723999
vertex -85.24688721 72.98732758 239.2225342
vertex -84.78778076 72.90544891 239.4118347

endloop
endfacet
facet normal 0.354318887 0.6807220578 -0.6411518455
outer loop
vertex -84.7530365 72.75603485 239.2723999
vertex -84.78778076 72.90544891 239.4118347
vertex -84.26067352 72.69646454 239.4812469

endloop
endfacet
facet normal 0.3544644713 0.6813309789 -0.6404241323
outer loop
vertex -84.26067352 72.69646454 239.4812469
vertex -84.78778076 72.90544891 239.4118347
vertex -84.30255127 72.84673309 239.6179352

endloop
endfacet
facet normal 0.3534068763 0.6814843416 -0.6408452392
outer loop
vertex -84.26067352 72.69646454 239.4812317
vertex -84.30255127 72.84673309 239.6179352
vertex -83.73942566 72.64244843 239.7112427

endloop
endfacet
facet normal 0.3535958827 0.6825919747 -0.6395608783
outer loop
vertex -83.73942566 72.64244843 239.7112427
vertex -84.30255127 72.84673309 239.6179352
vertex -83.78430176 72.79280853 239.8469086

endloop
endfacet
facet normal 0.3718187213 0.6805865169 -0.6313104033
outer loop
vertex -83.73942566 72.64244843 239.7112427
vertex -83.78430176 72.79280853 239.8469086
vertex -83.19910431 72.57979584 239.9619293

endloop
endfacet
facet normal 0.3720521629 0.682305634 -0.6293141246
outer loop
vertex -83.19910431 72.57979584 239.9619293
vertex -83.78430176 72.79280853 239.8469086
vertex -83.24407959 72.72975922 240.0979309

endloop
endfacet
facet normal 0.4085114598 0.6773319244 -0.6118332744
outer loop
vertex -83.19908905 72.57979584 239.9619446
vertex -83.24407196 72.72978973 240.0979614
vertex -82.65442657 72.4932785 240.2298279

endloop
endfacet
facet normal 0.408826977 0.6797106266 -0.608977735
outer loop
vertex -82.65442657 72.4932785 240.2298279
vertex -83.24407196 72.72978973 240.0979614
vertex -82.69647217 72.6422348 240.3678589

endloop
endfacet
facet normal 0.4574664533 0.6704380512 -0.5841552019
outer loop
vertex -82.65442657 72.4932785 240.2298279
vertex -82.69647217 72.6422348 240.3678589
vertex -82.11190033 72.36962128 240.5127716

endloop
endfacet
facet normal 0.4578767121 0.6731550694 -0.580698967
outer loop
vertex -82.11190033 72.36962128 240.5127716
vertex -82.69647217 72.6422348 240.3678589
vertex -82.1488266 72.51674652 240.6542053

endloop
endfacet
facet normal 0.5082343221 0.6597286463 -0.5535846949
outer loop
vertex -82.11190033 72.36962128 240.5127716
vertex -82.1488266 72.51674652 240.6542053
vertex -81.57684326 72.20354462 240.806076

endloop
endfacet
facet normal 0.508746624 0.6625085473 -0.5497812629
outer loop
vertex -81.57684326 72.20354462 240.806076
vertex -82.1488266 72.51674652 240.6542053
vertex -81.60774994 72.34801483 240.9515686

endloop
endfacet
facet normal 0.5556327701 0.6459907889 -0.5234197378
outer loop
vertex -81.57684326 72.20354462 240.806076
vertex -81.60774994 72.34801483 240.9515686
vertex -81.05918121 71.99663544 241.100235

endloop
endfacet
facet normal 0.5561527014 0.64819175 -0.5201363564
outer loop
vertex -81.05918121 71.99663544 241.100235
vertex -81.60774994 72.34801483 240.9515686
vertex -81.08338165 72.13774872 241.2502136

endloop
endfacet
facet normal 0.6123472452 0.6227198243 -0.4870840311
outer loop
vertex -81.05917358 71.99666595 241.1002502
vertex -81.08336639 72.13777924 241.2502441
vertex -80.55488586 71.73818207 241.4037628

endloop
endfacet
facet normal 0.6141314507 0.6291734576 -0.4764277041
outer loop
vertex -80.55488586 71.73818207 241.4037628
vertex -81.08336639 72.13777924 241.2502441
vertex -80.57345581 71.87395477 241.5591278

endloop
endfacet
facet normal 0.7090806365 0.5707681775 -0.4140388966
outer loop
vertex -80.55488586 71.73818207 241.4037628
vertex -80.57345581 71.87395477 241.5591278
vertex -80.03501129 71.36858368 241.7845917

endloop
endfacet
facet normal 0.7140270472 0.5992193818 -0.3620793521
outer loop
vertex -80.03501129 71.36858368 241.7845917
vertex -80.57345581 71.87395477 241.5591278
vertex -80.0562973 71.49266815 241.9479675

endloop
endfacet
facet normal 0.8288908005 0.4922088385 -0.2658391297
outer loop
vertex -80.03501129 71.36858368 241.7845917
vertex -80.0562973 71.49266815 241.9479675
vertex -79.53237152 70.79784393 242.2950897

endloop
endfacet
facet normal 0.8267402053 0.5320247412 -0.1828944683
outer loop
vertex -79.53237152 70.79784393 242.2950897
vertex -80.0562973 71.49266815 241.9479675
vertex -79.56568909 70.90822601 242.4655762

endloop
endfacet
facet normal 0.8761970997 0.4642679393 -0.1293598562
outer loop
vertex -79.53237152 70.79784393 242.2950897
vertex -79.56568909 70.90822601 242.4655762
vertex -79.09385681 70.11806488 242.825592

endloop
endfacet
facet normal 0.8716129065 0.4833928943 -0.08137662709
outer loop
vertex -79.09385681 70.11806488 242.825592
vertex -79.56568909 70.90822601 242.4655762
vertex -79.13449097 70.22063446 242.999649

endloop
endfacet
facet normal 0.8783171773 0.4724187553 -0.07334446907
outer loop
vertex -79.09385681 70.11806488 242.825592
vertex -79.13449097 70.22063446 242.999649
vertex -78.71007538 69.4764328 243.2886505

endloop
endfacet
facet normal 0.8783916235 0.4721587598 -0.07412342727
outer loop
vertex -78.71007538 69.4764328 243.2886505
vertex -79.13449097 70.22063446 242.999649
vertex -78.75124359 69.5807724 243.4654236

endloop
endfacet
facet normal 0.8724476695 0.481898576 -0.08129433542
outer loop
vertex -78.71007538 69.47646332 243.2886505
vertex -78.75123596 69.58080292 243.4654236
vertex -78.05960083 68.42238617 244.0211334

endloop
endfacet
facet normal 0.8770507574 0.4640657604 -0.1241972968
outer loop
vertex -78.05960083 68.42238617 244.0211334
vertex -78.75123596 69.58080292 243.4654236
vertex -78.09431458 68.53557587 244.1989288

endloop
endfacet
facet normal 0.9680058956 0.2490754128 0.03043014742
outer loop
vertex -78.05960083 68.42238617 244.0211334
vertex -78.09431458 68.53557587 244.1989288
vertex -77.75811005 67.13191986 244.9931488

endloop
endfacet
facet normal 0.9040282965 -0.02529031225 -0.4267238379
outer loop
vertex -77.75811005 67.13191986 244.9931488
vertex -78.09431458 68.53557587 244.1989288
vertex -77.75809479 67.13195038 244.9931793

endloop
endfacet
facet normal 0.1968867034 -0.9754713774 0.09844335169
outer loop
vertex -87.27629852 73.54079437 238.6667786
vertex -87.27629089 73.54079437 238.6667633
vertex -86.71420288 73.64772797 238.6021881

endloop
endfacet
facet normal -0.2130549252 0.9181302786 -0.3341321051
outer loop
vertex -86.71420288 73.64772797 238.6021881
vertex -87.27629089 73.54079437 238.6667633
vertex -86.74725342 73.72161102 238.8262787

endloop
endfacet
facet normal 0.6176627874 0.7694520354 -0.1625922024
outer loop
vertex -86.71420288 73.64772797 238.6021881
vertex -86.74725342 73.72161102 238.8262787
vertex -86.39529419 73.42476654 238.7585297

endloop
endfacet
facet normal 0.6228554845 0.7700371742 -0.1381799728
outer loop
vertex -86.39529419 73.42476654 238.7585297
vertex -86.74725342 73.72161102 238.8262787
vertex -86.43566132 73.49669647 238.977417

endloop
endfacet
facet normal 0.5161986947 0.8373472095 -0.1799686998
outer loop
vertex -86.39529419 73.42476654 238.7585297
vertex -86.43566132 73.49669647 238.977417
vertex -86.07435608 73.25530243 238.8905945

endloop
endfacet
facet normal 0.5158210993 0.8372806907 -0.1813550889
outer loop
vertex -86.07435608 73.25530243 238.8905945
vertex -86.43566132 73.49669647 238.977417
vertex -86.12308502 73.33135223 239.1031036

endloop
endfacet
facet normal 0.4145019352 0.8828340173 -0.2208898216
outer loop
vertex -86.07435608 73.25530243 238.8905945
vertex -86.12308502 73.33135223 239.1031036
vertex -85.68089294 73.10979462 239.0473785

endloop
endfacet
facet normal 0.4139591455 0.8824193478 -0.2235485762
outer loop
vertex -85.68089294 73.10979462 239.0473785
vertex -86.12308502 73.33135223 239.1031036
vertex -85.7376709 73.1896286 239.25737

endloop
endfacet
facet normal 0.3542307615 0.901918292 -0.2471111715
outer loop
vertex -85.68089294 73.10979462 239.0473785
vertex -85.7376709 73.1896286 239.25737
vertex -85.24688721 72.98732758 239.2225342

endloop
endfacet
facet normal 0.3543924689 0.9021344781 -0.2460879236
outer loop
vertex -85.24688721 72.98732758 239.2225342
vertex -85.7376709 73.1896286 239.25737
vertex -85.31047058 73.06890106 239.4300079

endloop
endfacet
facet normal 0.2780577242 0.9199165702 -0.2764733136
outer loop
vertex -85.24688721 72.98732758 239.2225342
vertex -85.31047058 73.06890106 239.4300079
vertex -84.78778076 72.90544891 239.4118347

endloop
endfacet
facet normal 0.2780900002 0.9199892879 -0.2761984766
outer loop
vertex -84.78778076 72.90544891 239.4118347
vertex -85.31047058 73.06890106 239.4300079
vertex -84.85964203 72.98848724 239.6160736

endloop
endfacet
facet normal 0.2366700619 0.9262562394 -0.29332003
outer loop
vertex -84.78778076 72.90544891 239.4118347
vertex -84.85964203 72.98848724 239.6160736
vertex -84.30255127 72.84673309 239.6179352

endloop
endfacet
facet normal 0.2367260903 0.9264867306 -0.2925459743
outer loop
vertex -84.30255127 72.84673309 239.6179352
vertex -84.85964203 72.98848724 239.6160736
vertex -84.37985229 72.93029022 239.8200073

endloop
endfacet
facet normal 0.2275130749 0.9275359511 -0.2965042293
outer loop
vertex -84.30255127 72.84673309 239.6179352
vertex -84.37985229 72.93029022 239.8200073
vertex -83.78430176 72.79280853 239.8469086

endloop
endfacet
facet normal 0.2275547534 0.928019464 -0.2949554026
outer loop
vertex -83.78430176 72.79280853 239.8469086
vertex -84.37985229 72.93029022 239.8200073
vertex -83.86524963 72.8764267 240.0475464

endloop
endfacet
facet normal 0.2421273887 0.9263914227 -0.2883975208
outer loop
vertex -83.78430176 72.79280853 239.8469086
vertex -83.86524963 72.8764267 240.0475464
vertex -83.24407959 72.72975922 240.0979309

endloop
endfacet
facet normal 0.2421105355 0.9270967841 -0.2861365378
outer loop
vertex -83.24407959 72.72975922 240.0979309
vertex -83.86524963 72.8764267 240.0475464
vertex -83.32762146 72.81319427 240.2975769

endloop
endfacet
facet normal 0.2795710266 0.9219177961 -0.268155843
outer loop
vertex -83.24407196 72.72978973 240.0979614
vertex -83.32761383 72.81319427 240.2976074
vertex -82.69647217 72.6422348 240.3678589

endloop
endfacet
facet normal 0.2794646919 0.9229551554 -0.2646760345
outer loop
vertex -82.69647217 72.6422348 240.3678589
vertex -83.32761383 72.81319427 240.2976074
vertex -82.78127289 72.72509003 240.5672455

endloop
endfacet
facet normal 0.3332335949 0.912455678 -0.2374446094
outer loop
vertex -82.69647217 72.6422348 240.3678589
vertex -82.78127289 72.72509003 240.5672455
vertex -82.1488266 72.51674652 240.6542053

endloop
endfacet
facet normal 0.3330164254 0.9137244225 -0.2328256071
outer loop
vertex -82.1488266 72.51674652 240.6542053
vertex -82.78127289 72.72509003 240.5672455
vertex -82.2335968 72.59856415 240.8540497

endloop
endfacet
facet normal 0.3909537494 0.8980118036 -0.2018168271
outer loop
vertex -82.1488266 72.51674652 240.6542053
vertex -82.2335968 72.59856415 240.8540497
vertex -81.60774994 72.34801483 240.9515686

endloop
endfacet
facet normal 0.3906689286 0.8992424607 -0.1968269497
outer loop
vertex -81.60774994 72.34801483 240.9515686
vertex -82.2335968 72.59856415 240.8540497
vertex -81.69151306 72.42836761 241.15242

endloop
endfacet
facet normal 0.4467712939 0.879222095 -0.165420711
outer loop
vertex -81.60774994 72.34801483 240.9515686
vertex -81.69151306 72.42836761 241.15242
vertex -81.08338165 72.13774872 241.2502136

endloop
endfacet
facet normal 0.4465163052 0.8801664114 -0.1610289216
outer loop
vertex -81.08338165 72.13774872 241.2502136
vertex -81.69151306 72.42836761 241.15242
vertex -81.1649704 72.21617889 241.4526672

endloop
endfacet
facet normal 0.5134423375 0.8493907452 -0.1221160144
outer loop
vertex -81.08336639 72.13777924 241.2502441
vertex -81.16496277 72.21620941 241.4526978
vertex -80.57345581 71.87395477 241.5591278

endloop
endfacet
facet normal 0.5125912428 0.8514646292 -0.1107165813
outer loop
vertex -80.57345581 71.87395477 241.5591278
vertex -81.16496277 72.21620941 241.4526978
vertex -80.65486145 71.94939423 241.7624054

endloop
endfacet
facet normal 0.6149276495 0.7872464061 -0.04590207338
outer loop
vertex -80.57345581 71.87395477 241.5591278
vertex -80.65486145 71.94939423 241.7624054
vertex -80.0562973 71.49266815 241.9479675

endloop
endfacet
facet normal 0.6043020487 0.7966712117 0.01157018635
outer loop
vertex -80.0562973 71.49266815 241.9479675
vertex -80.65486145 71.94939423 241.7624054
vertex -80.15106201 71.5616684 242.1464081

endloop
endfacet
facet normal 0.7158051133 0.6908683777 0.1016071215
outer loop
vertex -80.0562973 71.49266815 241.9479675
vertex -80.15106201 71.5616684 242.1464081
vertex -79.56568909 70.90822601 242.4655762

endloop
endfacet
facet normal 0.6821346283 0.7053141594 0.192936033
outer loop
vertex -79.56568909 70.90822601 242.4655762
vertex -80.15106201 71.5616684 242.1464081
vertex -79.68241119 70.96959686 242.6539001

endloop
endfacet
facet normal 0.7269231081 0.6430456638 0.2409875393
outer loop
vertex -79.56568909 70.90822601 242.4655762
vertex -79.68241119 70.96959686 242.6539001
vertex -79.13449097 70.22063446 242.999649

endloop
endfacet
facet normal 0.7030848861 0.6487669349 0.2911580205
outer loop
vertex -79.13449097 70.22063446 242.999649
vertex -79.68241119 70.96959686 242.6539001
vertex -79.26277161 70.27767181 243.1823273

endloop
endfacet
facet normal 0.7080953121 0.6404988766 0.2972580492
outer loop
vertex -79.13449097 70.22063446 242.999649
vertex -79.26277161 70.27767181 243.1823273
vertex -78.75124359 69.5807724 243.4654236

endloop
endfacet
facet normal 0.7082027793 0.6404853463 0.2970308363
outer loop
vertex -78.75124359 69.5807724 243.4654236
vertex -79.26277161 70.27767181 243.1823273
vertex -78.88159943 69.63884735 243.651001

endloop
endfacet
facet normal 0.7039729953 0.6473992467 0.2920554876
outer loop
vertex -78.75123596 69.58080292 243.4654236
vertex -78.88159943 69.63884735 243.6509857
vertex -78.09431458 68.53557587 244.1989288

endloop
endfacet
facet normal 0.7158574462 0.6443862319 0.2689133584
outer loop
vertex -78.09431458 68.53557587 244.1989288
vertex -78.88159943 69.63884735 243.6509857
vertex -78.22341919 68.59963226 244.3891144

endloop
endfacet
facet normal 0.8092976809 0.4239310622 0.4065953791
outer loop
vertex -78.09431458 68.53557587 244.1989288
vertex -78.22341919 68.59963226 244.3891144
vertex -77.75809479 67.13195038 244.9931793

endloop
endfacet
facet normal 0 0.3807497919 0.9246780872
outer loop
vertex -77.75809479 67.13195038 244.9931793
vertex -78.22341919 68.59963226 244.3891144
vertex -77.75810242 67.13195038 244.9931793

endloop
endfacet
facet normal -0.3121576905 0.07803942263 0.9468196034
outer loop
vertex -87.27629089 73.54079437 238.6667633
vertex -87.27629852 73.54076385 238.6667633
vertex -86.74725342 73.72161102 238.8262787

endloop
endfacet
facet normal -0.3205917478 0.9471586943 -0.01055357419
outer loop
vertex -86.74725342 73.72161102 238.8262787
vertex -87.27629852 73.54076385 238.6667633
vertex -86.86219025 73.68508148 239.0393372

endloop
endfacet
facet normal 0.4198221862 0.829354763 0.3686733544
outer loop
vertex -86.74725342 73.72161102 238.8262787
vertex -86.86219025 73.68508148 239.0393372
vertex -86.43566132 73.49669647 238.977417

endloop
endfacet
facet normal 0.4172568321 0.8079995513 0.4159729481
outer loop
vertex -86.43566132 73.49669647 238.977417
vertex -86.86219025 73.68508148 239.0393372
vertex -86.54676056 73.45098114 239.1776581

endloop
endfacet
facet normal 0.312318176 0.8737851977 0.3727691472
outer loop
vertex -86.43566132 73.49669647 238.977417
vertex -86.54676056 73.45098114 239.1776581
vertex -86.12308502 73.33135223 239.1031036

endloop
endfacet
facet normal 0.3123427629 0.8735675216 0.3732582331
outer loop
vertex -86.12308502 73.33135223 239.1031036
vertex -86.54676056 73.45098114 239.1776581
vertex -86.22648621 73.28282928 239.3031921

endloop
endfacet
facet normal 0.2065610588 0.921064198 0.3301109672
outer loop
vertex -86.12308502 73.33135223 239.1031036
vertex -86.22648621 73.28282928 239.3031921
vertex -85.7376709 73.1896286 239.25737

endloop
endfacet
facet normal 0.2066038698 0.9204177856 0.3318825662
outer loop
vertex -85.7376709 73.1896286 239.25737
vertex -86.22648621 73.28282928 239.3031921
vertex -85.83641815 73.13869476 239.4600983

endloop
endfacet
facet normal 0.1424188912 0.941357851 0.3058795929
outer loop
vertex -85.7376709 73.1896286 239.25737
vertex -85.83641815 73.13869476 239.4600983
vertex -85.31047058 73.06890106 239.4300079

endloop
endfacet
facet normal 0.1424308121 0.9410737157 0.3067471981
outer loop
vertex -85.31047058 73.06890106 239.4300079
vertex -85.83641815 73.13869476 239.4600983
vertex -85.40621185 73.01686859 239.6340942

endloop
endfacet
facet normal 0.05885129422 0.9603664875 0.2724569738
outer loop
vertex -85.31047058 73.06890106 239.4300079
vertex -85.40621185 73.01686859 239.6340942
vertex -84.85964203 72.98848724 239.6160736

endloop
endfacet
facet normal 0.05889519677 0.9596728086 0.2748810053
outer loop
vertex -84.85964203 72.98848724 239.6160736
vertex -85.40621185 73.01686859 239.6340942
vertex -84.95282745 72.93547821 239.821106

endloop
endfacet
facet normal 0.009244039655 0.9670982957 0.2542347908
outer loop
vertex -84.85964203 72.98848724 239.6160736
vertex -84.95282745 72.93547821 239.821106
vertex -84.37985229 72.93029022 239.8200073

endloop
endfacet
facet normal 0.009243220091 0.9666393399 0.2559745312
outer loop
vertex -84.37985229 72.93029022 239.8200073
vertex -84.95282745 72.93547821 239.821106
vertex -84.47348022 72.87697601 240.0247192

endloop
endfacet
facet normal -0.008440841921 0.9686247706 0.2483846992
outer loop
vertex -84.37985229 72.93029022 239.8200073
vertex -84.47348785 72.87697601 240.0247345
vertex -83.86524963 72.8764267 240.0475464

endloop
endfacet
facet normal -0.008505706675 0.9681816697 0.2501035631
outer loop
vertex -83.86524963 72.8764267 240.0475464
vertex -84.47348785 72.87697601 240.0247345
vertex -83.96179962 72.82305145 240.250885

endloop
endfacet
facet normal -0.003537050216 0.9676374197 0.2523198724
outer loop
vertex -83.86524963 72.8764267 240.0475464
vertex -83.96179962 72.82305145 240.250885
vertex -83.32762146 72.81319427 240.2975769

endloop
endfacet
facet normal -0.003716123523 0.9670329094 0.254624486
outer loop
vertex -83.32762146 72.81319427 240.2975769
vertex -83.96179962 72.82305145 240.250885
vertex -83.42923737 72.75991058 240.4984589

endloop
endfacet
facet normal 0.02351506427 0.9633719921 0.2671356201
outer loop
vertex -83.32761383 72.81319427 240.2976074
vertex -83.42922974 72.75997162 240.4984894
vertex -82.78127289 72.72509003 240.5672455

endloop
endfacet
facet normal 0.02309184894 0.9624055028 0.2706336677
outer loop
vertex -82.78127289 72.72509003 240.5672455
vertex -83.42922974 72.75997162 240.4984894
vertex -82.88973236 72.67220306 240.7645721

endloop
endfacet
facet normal 0.0671575591 0.9538829327 0.2925699055
outer loop
vertex -82.78127289 72.72509003 240.5672455
vertex -82.88973236 72.67220306 240.7645721
vertex -82.2335968 72.59856415 240.8540497

endloop
endfacet
facet normal 0.06636943668 0.952501893 0.2972126305
outer loop
vertex -82.2335968 72.59856415 240.8540497
vertex -82.88973236 72.67220306 240.7645721
vertex -82.34950256 72.54634857 241.0472717

endloop
endfacet
facet normal 0.1166299358 0.9389445782 0.3236981034
outer loop
vertex -82.2335968 72.59856415 240.8540497
vertex -82.34950256 72.54634857 241.0472717
vertex -81.69151306 72.42836761 241.15242

endloop
endfacet
facet normal 0.1155299917 0.9373208284 0.3287593126
outer loop
vertex -81.69151306 72.42836761 241.15242
vertex -82.34950256 72.54634857 241.0472717
vertex -81.81419373 72.37709808 241.3417053

endloop
endfacet
facet normal 0.1667838842 0.9190796614 0.3570375144
outer loop
vertex -81.69151306 72.42836761 241.15242
vertex -81.81419373 72.37709808 241.3417053
vertex -81.1649704 72.21617889 241.4526672

endloop
endfacet
facet normal 0.1656886637 0.9176069498 0.3613098264
outer loop
vertex -81.1649704 72.21617889 241.4526672
vertex -81.81419373 72.37709808 241.3417053
vertex -81.29320526 72.16613007 241.6385803

endloop
endfacet
facet normal 0.2255959511 0.8903425932 0.3954701126
outer loop
vertex -81.16496277 72.21620941 241.4526978
vertex -81.29319763 72.16613007 241.6385956
vertex -80.65486145 71.94939423 241.7624054

endloop
endfacet
facet normal 0.2222653627 0.8864839673 0.4058871269
outer loop
vertex -80.65486145 71.94939423 241.7624054
vertex -81.29319763 72.16613007 241.6385956
vertex -80.79103851 71.90123749 241.9421539

endloop
endfacet
facet normal 0.3008387089 0.8393355012 0.4527824819
outer loop
vertex -80.65486145 71.94939423 241.7624054
vertex -80.79103851 71.90123749 241.9421539
vertex -80.15106201 71.5616684 242.1464081

endloop
endfacet
facet normal 0.2739928365 0.8193224669 0.5036255717
outer loop
vertex -80.15106201 71.5616684 242.1464081
vertex -80.79103851 71.90123749 241.9421539
vertex -80.31015015 71.51766205 242.3045502

endloop
endfacet
facet normal 0.3468937278 0.7533993125 0.5586180687
outer loop
vertex -80.15106201 71.5616684 242.1464081
vertex -80.31015015 71.51766205 242.3045502
vertex -79.68241119 70.96959686 242.6539001

endloop
endfacet
facet normal 0.2805776596 0.7234482169 0.6307923198
outer loop
vertex -79.68241119 70.96959686 242.6539001
vertex -80.31015015 71.51766205 242.3045502
vertex -79.8678894 70.93041229 242.7813416

endloop
endfacet
facet normal 0.3064972162 0.688143909 0.6576604843
outer loop
vertex -79.68241119 70.96959686 242.6539001
vertex -79.8678894 70.93041229 242.7813416
vertex -79.26277161 70.27767181 243.1823273

endloop
endfacet
facet normal 0.2645159364 0.6708316803 0.6928319335
outer loop
vertex -79.26277161 70.27767181 243.1823273
vertex -79.8678894 70.93041229 242.7813416
vertex -79.46071625 70.24126434 243.2931519

endloop
endfacet
facet normal 0.2659958005 0.6683513522 0.6946601868
outer loop
vertex -79.26277161 70.27767181 243.1823273
vertex -79.46071625 70.24126434 243.2931519
vertex -78.88159943 69.63884735 243.651001

endloop
endfacet
facet normal 0.266241461 0.6684659719 0.6944557428
outer loop
vertex -78.88159943 69.63884735 243.651001
vertex -79.46071625 70.24126434 243.2931519
vertex -79.08289337 69.60192108 243.7637177

endloop
endfacet
facet normal 0.2684459984 0.6650183201 0.6969127059
outer loop
vertex -78.88159943 69.63884735 243.6509857
vertex -79.082901 69.6019516 243.7637329
vertex -78.22341919 68.59963226 244.3891144

endloop
endfacet
facet normal 0.3074954748 0.679374814 0.6662555337
outer loop
vertex -78.22341919 68.59963226 244.3891144
vertex -79.082901 69.6019516 243.7637329
vertex -78.43032837 68.5681076 244.5167542

endloop
endfacet
facet normal 0.415995568 0.4557627439 0.7869104743
outer loop
vertex -78.22341919 68.59963226 244.3891144
vertex -78.43032837 68.5681076 244.5167542
vertex -77.75810242 67.13195038 244.9931793

endloop
endfacet
facet normal -0.9059314132 -0.4234244823 0
outer loop
vertex -77.75810242 67.13195038 244.9931793
vertex -78.43032837 68.5681076 244.5167542
vertex -77.75810242 67.13195038 244.9931641

endloop
endfacet
facet normal -0.3290900886 0.9442985654 0
outer loop
vertex -87.27629852 73.54076385 238.6667633
vertex -87.27629852 73.54076385 238.6667786
vertex -86.86219025 73.68508148 239.0393372

endloop
endfacet
facet normal -0.4848456681 0.8490039706 0.2100404203
outer loop
vertex -86.86219025 73.68508148 239.0393372
vertex -87.27629852 73.54076385 238.6667786
vertex -87.01010895 73.5668869 239.1756439

endloop
endfacet
facet normal 0.160157755 0.6531131268 0.7401302457
outer loop
vertex -86.86219025 73.68508148 239.0393372
vertex -87.01010895 73.5668869 239.1756439
vertex -86.54676056 73.45098114 239.1776581

endloop
endfacet
facet normal 0.156024754 0.6368499994 0.7550352812
outer loop
vertex -86.54676056 73.45098114 239.1776581
vertex -87.01010895 73.5668869 239.1756439
vertex -86.67685699 73.33235931 239.3045959

endloop
endfacet
facet normal 0.0778453052 0.6873714328 0.722122252
outer loop
vertex -86.54676056 73.45098114 239.1776581
vertex -86.67685699 73.33235931 239.3045959
vertex -86.22648621 73.28282928 239.3031921

endloop
endfacet
facet normal 0.077806063 0.6870046854 0.7224754691
outer loop
vertex -86.22648621 73.28282928 239.3031921
vertex -86.67685699 73.33235931 239.3045959
vertex -86.33926392 73.15727997 239.4347229

endloop
endfacet
facet normal -0.007807217538 0.7266759872 0.6869359016
outer loop
vertex -86.22648621 73.28282928 239.3031921
vertex -86.33926392 73.15727997 239.4347229
vertex -85.83641815 73.13869476 239.4600983

endloop
endfacet
facet normal -0.008066038601 0.7238024473 0.6899601221
outer loop
vertex -85.83641815 73.13869476 239.4600983
vertex -86.33926392 73.15727997 239.4347229
vertex -85.93664551 73.00685883 239.597229

endloop
endfacet
facet normal -0.06044756621 0.7412755489 0.6684734225
outer loop
vertex -85.83641815 73.13869476 239.4600983
vertex -85.93664551 73.00685883 239.597229
vertex -85.40621185 73.01686859 239.6340942

endloop
endfacet
facet normal -0.06048580259 0.7406135201 0.669203341
outer loop
vertex -85.40621185 73.01686859 239.6340942
vertex -85.93664551 73.00685883 239.597229
vertex -85.49707794 72.88213348 239.7749939

endloop
endfacet
facet normal -0.1284781098 0.7568290234 0.6408613324
outer loop
vertex -85.40621185 73.01686859 239.6340942
vertex -85.49707794 72.88213348 239.7749939
vertex -84.95282745 72.93547821 239.821106

endloop
endfacet
facet normal -0.1284813881 0.7549126744 0.6431170106
outer loop
vertex -84.95282745 72.93547821 239.821106
vertex -85.49707794 72.88213348 239.7749939
vertex -85.03392029 72.79839325 239.9658203

endloop
endfacet
facet normal -0.1724384874 0.7615374923 0.6247605085
outer loop
vertex -84.95282745 72.93547821 239.821106
vertex -85.03392029 72.79839325 239.9658203
vertex -84.47348022 72.87697601 240.0247192

endloop
endfacet
facet normal -0.172420308 0.7600319982 0.626595974
outer loop
vertex -84.47348022 72.87697601 240.0247192
vertex -85.03392029 72.79839325 239.9658203
vertex -84.5512619 72.73906708 240.1705933

endloop
endfacet
facet normal -0.1927534491 0.7622755766 0.6178851724
outer loop
vertex -84.47348785 72.87697601 240.0247345
vertex -84.5512619 72.73906708 240.1706085
vertex -83.96179962 72.82305145 240.250885

endloop
endfacet
facet normal -0.1927796006 0.7611952424 0.6192073822
outer loop
vertex -83.96179962 72.82305145 240.250885
vertex -84.5512619 72.73906708 240.1706085
vertex -84.04109192 72.68505096 240.3958435

endloop
endfacet
facet normal -0.1967354417 0.761615634 0.6174438596
outer loop
vertex -83.96179962 72.82305145 240.250885
vertex -84.04109192 72.68505096 240.3958435
vertex -83.42923737 72.75991058 240.4984589

endloop
endfacet
facet normal -0.1968510151 0.7601667047 0.6191900373
outer loop
vertex -83.42923737 72.75991058 240.4984589
vertex -84.04109192 72.68505096 240.3958435
vertex -83.51390839 72.62224579 240.6405487

endloop
endfacet
facet normal -0.1848131418 0.7585027814 0.6249142289
outer loop
vertex -83.42922974 72.75997162 240.4984894
vertex -83.51390076 72.62227631 240.6405792
vertex -82.88973236 72.67220306 240.7645721

endloop
endfacet
facet normal -0.1851471066 0.7562968135 0.6274836063
outer loop
vertex -82.88973236 72.67220306 240.7645721
vertex -83.51390076 72.62227631 240.6405792
vertex -82.98332214 72.5354538 240.9017792

endloop
endfacet
facet normal -0.1598341763 0.7515506148 0.6400193572
outer loop
vertex -82.88973236 72.67220306 240.7645721
vertex -82.98332214 72.5354538 240.9017792
vertex -82.34950256 72.54634857 241.0472717

endloop
endfacet
facet normal -0.1605964005 0.7483403683 0.6435802579
outer loop
vertex -82.34950256 72.54634857 241.0472717
vertex -82.98332214 72.5354538 240.9017792
vertex -82.45379639 72.41130829 241.1782684

endloop
endfacet
facet normal -0.1290894747 0.740016818 0.6600841284
outer loop
vertex -82.34950256 72.54634857 241.0472717
vertex -82.45379639 72.41130829 241.1782684
vertex -81.81419373 72.37709808 241.3417053

endloop
endfacet
facet normal -0.1302784085 0.7363275886 0.6639648676
outer loop
vertex -81.81419373 72.37709808 241.3417053
vertex -82.45379639 72.41130829 241.1782684
vertex -81.92900085 72.24446869 241.4662628

endloop
endfacet
facet normal -0.0958333537 0.7242463827 0.6828493476
outer loop
vertex -81.81419373 72.37709808 241.3417053
vertex -81.92900085 72.24446869 241.4662628
vertex -81.29320526 72.16613007 241.6385803

endloop
endfacet
facet normal -0.09706187248 0.7211310863 0.685965836
outer loop
vertex -81.29320526 72.16613007 241.6385803
vertex -81.92900085 72.24446869 241.4662628
vertex -81.41755676 72.03661346 241.7571411

endloop
endfacet
facet normal -0.05710132793 0.7035250068 0.7083728909
outer loop
vertex -81.29319763 72.16613007 241.6385956
vertex -81.41754913 72.03664398 241.7571716
vertex -80.79103851 71.90123749 241.9421539

endloop
endfacet
facet normal -0.06147606671 0.6946635842 0.7167030573
outer loop
vertex -80.79103851 71.90123749 241.9421539
vertex -81.41754913 72.03664398 241.7571716
vertex -80.92694855 71.77669525 242.0512085

endloop
endfacet
facet normal -0.02182571404 0.6719970703 0.7402320504
outer loop
vertex -80.79103851 71.90123749 241.9421539
vertex -80.92694855 71.77669525 242.0512085
vertex -80.31015015 71.51766205 242.3045502

endloop
endfacet
facet normal -0.05357989296 0.6300778389 0.7746812701
outer loop
vertex -80.31015015 71.51766205 242.3045502
vertex -80.92694855 71.77669525 242.0512085
vertex -80.46916199 71.40377045 242.3861847

endloop
endfacet
facet normal -0.0349038206 0.6139563918 0.7885677814
outer loop
vertex -80.31015015 71.51766205 242.3045502
vertex -80.46916199 71.40377045 242.3861847
vertex -79.8678894 70.93041229 242.7813416

endloop
endfacet
facet normal -0.105867818 0.5545524359 0.8253869414
outer loop
vertex -79.8678894 70.93041229 242.7813416
vertex -80.46916199 71.40377045 242.3861847
vertex -80.04869843 70.82912445 242.8262024

endloop
endfacet
facet normal -0.1043346524 0.5525084138 0.8269515038
outer loop
vertex -79.8678894 70.93041229 242.7813416
vertex -80.04869843 70.82912445 242.8262024
vertex -79.46071625 70.24126434 243.2931519

endloop
endfacet
facet normal -0.1468441635 0.5210096836 0.8408243656
outer loop
vertex -79.46071625 70.24126434 243.2931519
vertex -80.04869843 70.82912445 242.8262024
vertex -79.65093994 70.14711761 243.3182678

endloop
endfacet
facet normal -0.1503142267 0.5268788338 0.8365431428
outer loop
vertex -79.46071625 70.24126434 243.2931519
vertex -79.65093994 70.14711761 243.3182678
vertex -79.08289337 69.60192108 243.7637177

endloop
endfacet
facet normal -0.1499697864 0.5271490812 0.8364346027
outer loop
vertex -79.08289337 69.60192108 243.7637177
vertex -79.65093994 70.14711761 243.3182678
vertex -79.27648926 69.50621796 243.7893219

endloop
endfacet
facet normal -0.1461356133 0.5205062032 0.8412595391
outer loop
vertex -79.082901 69.6019516 243.7637329
vertex -79.27648926 69.50621796 243.7893372
vertex -78.43032837 68.5681076 244.5167542

endloop
endfacet
facet normal -0.1252307147 0.5349405408 0.835557282
outer loop
vertex -78.43032837 68.5681076 244.5167542
vertex -79.27648926 69.50621796 243.7893372
vertex -78.63749695 68.46572113 244.5512543

endloop
endfacet
facet normal 0.001993455226 0.3156937659 0.948859036
outer loop
vertex -78.43032837 68.5681076 244.5167542
vertex -78.63749695 68.46572113 244.5512543
vertex -77.75810242 67.13195038 244.9931641

endloop
endfacet
facet normal -nan(ind) -nan(ind) -nan(ind)
outer loop
vertex -77.75810242 67.13195038 244.9931641
vertex -78.63749695 68.46572113 244.5512543
vertex -77.75810242 67.13195038 244.9931641

endloop
endfacet
facet normal 0.8694417477 -0.2173604369 -0.4436501861
outer loop
vertex -87.27629852 73.54076385 238.6667786
vertex -87.27629089 73.54079437 238.6667786
vertex -87.01010895 73.5668869 239.1756439

endloop
endfacet
facet normal -0.67461586 0.6658043265 0.3187445402
outer loop
vertex -87.01010895 73.5668869 239.1756439
vertex -87.27629089 73.54079437 238.6667786
vertex -87.14350128 73.41500092 239.2105865

endloop
endfacet
facet normal -0.1300700456 0.3293820322 0.9351947308
outer loop
vertex -87.01010895 73.5668869 239.1756439
vertex -87.14350128 73.41500092 239.2105865
vertex -86.67685699 73.33235931 239.3045959

endloop
endfacet
facet normal -0.1247549355 0.3511686623 0.9279637933
outer loop
vertex -86.67685699 73.33235931 239.3045959
vertex -87.14350128 73.41500092 239.2105865
vertex -86.78629303 73.19130707 239.3432617

endloop
endfacet
facet normal -0.1585589498 0.3735556901 0.9139558673
outer loop
vertex -86.67685699 73.33235931 239.3045959
vertex -86.78629303 73.19130707 239.3432617
vertex -86.33926392 73.15727997 239.4347229

endloop
endfacet
facet normal -0.1582719684 0.375412941 0.9132441878
outer loop
vertex -86.33926392 73.15727997 239.4347229
vertex -86.78629303 73.19130707 239.3432617
vertex -86.42887115 73.00829315 239.4804382

endloop
endfacet
facet normal -0.2104579955 0.4002538323 0.8919104934
outer loop
vertex -86.33926392 73.15727997 239.4347229
vertex -86.42887115 73.00829315 239.4804382
vertex -85.93664551 73.00685883 239.597229

endloop
endfacet
facet normal -0.2107739896 0.3971899152 0.8932046294
outer loop
vertex -85.93664551 73.00685883 239.597229
vertex -86.42887115 73.00829315 239.4804382
vertex -86.01119232 72.85042572 239.6492004

endloop
endfacet
facet normal -0.2406814992 0.407378763 0.8809739351
outer loop
vertex -85.93664551 73.00685883 239.597229
vertex -86.01119232 72.85042572 239.6492004
vertex -85.49707794 72.88213348 239.7749939

endloop
endfacet
facet normal -0.2407232672 0.4065102935 0.8813635707
outer loop
vertex -85.49707794 72.88213348 239.7749939
vertex -86.01119232 72.85042572 239.6492004
vertex -85.56007385 72.72219086 239.8315582

endloop
endfacet
facet normal -0.280954659 0.4164484143 0.8646590114
outer loop
vertex -85.49707794 72.88213348 239.7749939
vertex -85.56007385 72.72219086 239.8315582
vertex -85.03392029 72.79839325 239.9658203

endloop
endfacet
facet normal -0.2809022665 0.4139153659 0.8658914566
outer loop
vertex -85.03392029 72.79839325 239.9658203
vertex -85.56007385 72.72219086 239.8315582
vertex -85.08441925 72.63567352 240.0272217

endloop
endfacet
facet normal -0.3106534481 0.4184563458 0.8534569144
outer loop
vertex -85.03392029 72.79839325 239.9658203
vertex -85.08441925 72.63567352 240.0272217
vertex -84.5512619 72.73906708 240.1705933

endloop
endfacet
facet normal -0.310541451 0.4164880514 0.8544598818
outer loop
vertex -84.5512619 72.73906708 240.1705933
vertex -85.08441925 72.63567352 240.0272217
vertex -84.5965271 72.57537079 240.2339325

endloop
endfacet
facet normal -0.3293471336 0.4185574949 0.8463687897
outer loop
vertex -84.5512619 72.73906708 240.1706085
vertex -84.5965271 72.57537079 240.2339478
vertex -84.04109192 72.68505096 240.3958435

endloop
endfacet
facet normal -0.3292641342 0.4168378115 0.8472492695
outer loop
vertex -84.04109192 72.68505096 240.3958435
vertex -84.5965271 72.57537079 240.2339478
vertex -84.08644104 72.5212326 240.4588165

endloop
endfacet
facet normal -0.341019243 0.4180656374 0.8419780731
outer loop
vertex -84.04109192 72.68505096 240.3958435
vertex -84.08644104 72.5212326 240.4588165
vertex -83.51390839 72.62224579 240.6405487

endloop
endfacet
facet normal -0.3409870863 0.4161809385 0.8429242969
outer loop
vertex -83.51390839 72.62224579 240.6405487
vertex -84.08644104 72.5212326 240.4588165
vertex -83.56343079 72.45882416 240.7012024

endloop
endfacet
facet normal -0.345723778 0.4166421592 0.8407642245
outer loop
vertex -83.51390076 72.62227631 240.6405792
vertex -83.56341553 72.45882416 240.7012177
vertex -82.98332214 72.5354538 240.9017792

endloop
endfacet
facet normal -0.3458237648 0.4136736691 0.8421877027
outer loop
vertex -82.98332214 72.5354538 240.9017792
vertex -83.56341553 72.45882416 240.7012177
vertex -83.04089355 72.37316132 240.9578552

endloop
endfacet
facet normal -0.3434723914 0.4132445157 0.8433597684
outer loop
vertex -82.98332214 72.5354538 240.9017792
vertex -83.04089355 72.37316132 240.9578552
vertex -82.45379639 72.41130829 241.1782684

endloop
endfacet
facet normal -0.3439042568 0.4090188444 0.8452416062
outer loop
vertex -82.45379639 72.41130829 241.1782684
vertex -83.04089355 72.37316132 240.9578552
vertex -82.52167511 72.25102997 241.2282104

endloop
endfacet
facet normal -0.3365471065 0.4071101844 0.8491156101
outer loop
vertex -82.45379639 72.41130829 241.1782684
vertex -82.52167511 72.25102997 241.2282104
vertex -81.92900085 72.24446869 241.4662628

endloop
endfacet
facet normal -0.3373269439 0.4026436806 0.850933969
outer loop
vertex -81.92900085 72.24446869 241.4662628
vertex -82.52167511 72.25102997 241.2282104
vertex -82.00734711 72.08712006 241.5096588

endloop
endfacet
facet normal -0.3256291151 0.3985948563 0.8573726416
outer loop
vertex -81.92900085 72.24446869 241.4662628
vertex -82.00734711 72.08712006 241.5096588
vertex -81.41755676 72.03661346 241.7571411

endloop
endfacet
facet normal -0.326595217 0.3945879042 0.8588573337
outer loop
vertex -81.41755676 72.03661346 241.7571411
vertex -82.00734711 72.08712006 241.5096588
vertex -81.50585175 71.88292694 241.7941742

endloop
endfacet
facet normal -0.3133366108 0.3887063563 0.866445303
outer loop
vertex -81.41754913 72.03664398 241.7571716
vertex -81.50583649 71.88292694 241.7942047
vertex -80.92694855 71.77669525 242.0512085

endloop
endfacet
facet normal -0.3174503148 0.3761023283 0.8705012202
outer loop
vertex -80.92694855 71.77669525 242.0512085
vertex -81.50583649 71.88292694 241.7942047
vertex -81.02639008 71.62883759 242.0788269

endloop
endfacet
facet normal -0.3243551254 0.3799561262 0.8662719727
outer loop
vertex -80.92694855 71.77669525 242.0512085
vertex -81.02639008 71.62883759 242.0788269
vertex -80.46916199 71.40377045 242.3861847

endloop
endfacet
facet normal -0.3529994786 0.3244581223 0.8775638342
outer loop
vertex -80.46916199 71.40377045 242.3861847
vertex -81.02639008 71.62883759 242.0788269
vertex -80.58564758 71.26857758 242.3893127

endloop
endfacet
facet normal -0.3942326307 0.3592525721 0.8458830714
outer loop
vertex -80.46916199 71.40377045 242.3861847
vertex -80.58564758 71.26857758 242.3893127
vertex -80.04869843 70.82912445 242.8262024

endloop
endfacet
facet normal -0.4522076845 0.2870120704 0.8444715738
outer loop
vertex -80.04869843 70.82912445 242.8262024
vertex -80.58564758 71.26857758 242.3893127
vertex -80.17775726 70.70888519 242.7979584

endloop
endfacet
facet normal -0.4743462503 0.31614393 0.8216133714
outer loop
vertex -80.04869843 70.82912445 242.8262024
vertex -80.17775726 70.70888519 242.7979584
vertex -79.65093994 70.14711761 243.3182678

endloop
endfacet
facet normal -0.5074774027 0.2791339457 0.8151999712
outer loop
vertex -79.65093994 70.14711761 243.3182678
vertex -80.17775726 70.70888519 242.7979584
vertex -79.78464508 70.03536224 243.2733002

endloop
endfacet
facet normal -0.5148903131 0.2916578054 0.8061164021
outer loop
vertex -79.65093994 70.14711761 243.3182678
vertex -79.78464508 70.03536224 243.2733002
vertex -79.27648926 69.50621796 243.7893219

endloop
endfacet
facet normal -0.5150988698 0.2914138734 0.8060714006
outer loop
vertex -79.27648926 69.50621796 243.7893219
vertex -79.78464508 70.03536224 243.2733002
vertex -79.4126358 69.39235687 243.7434845

endloop
endfacet
facet normal -0.5097123384 0.2821347117 0.8127688766
outer loop
vertex -79.27648926 69.50621796 243.7893372
vertex -79.4126358 69.39238739 243.7434692
vertex -78.63749695 68.46572113 244.5512543

endloop
endfacet
facet normal -0.5199791193 0.2711365223 0.8100041151
outer loop
vertex -78.63749695 68.46572113 244.5512543
vertex -79.4126358 69.39238739 243.7434692
vertex -78.78660583 68.33397675 244.4996338

endloop
endfacet
facet normal -0.3736949861 0.06028192118 0.925590694
outer loop
vertex -78.63749695 68.46572113 244.5512543
vertex -78.78660583 68.33397675 244.4996338
vertex -77.75810242 67.13195038 244.9931641

endloop
endfacet
facet normal -nan(ind) -nan(ind) -nan(ind)
outer loop
vertex -77.75810242 67.13195038 244.9931641
vertex -78.78660583 68.33397675 244.4996338
vertex -77.75810242 67.13195038 244.9931641

endloop
endfacet
facet normal -0.9594008327 0.1099929288 0.2597145736
outer loop
vertex -87.27629089 73.54079437 238.6667786
vertex -87.27629852 73.54076385 238.6667633
vertex -87.14350128 73.41500092 239.2105865

endloop
endfacet
facet normal -0.8453697562 0.4368325472 0.3074530363
outer loop
vertex -87.14350128 73.41500092 239.2105865
vertex -87.27629852 73.54076385 238.6667633
vertex -87.24312592 73.26009369 239.1567535

endloop
endfacet
facet normal -0.3861908615 -0.07123091072 0.9196645021
outer loop
vertex -87.14350128 73.41500092 239.2105865
vertex -87.24312592 73.26009369 239.1567535
vertex -86.78629303 73.19130707 239.3432617

endloop
endfacet
facet normal -0.3811835051 -0.02584584802 0.9241380692
outer loop
vertex -86.78629303 73.19130707 239.3432617
vertex -87.24312592 73.26009369 239.1567535
vertex -86.86972046 73.04247284 239.3046875

endloop
endfacet
facet normal -0.3722566068 -0.03174356744 0.9275868535
outer loop
vertex -86.78629303 73.19130707 239.3432617
vertex -86.86972046 73.04247284 239.3046875
vertex -86.42887115 73.00829315 239.4804382

endloop
endfacet
facet normal -0.3720357716 -0.02778684162 0.9278023839
outer loop
vertex -86.42887115 73.00829315 239.4804382
vertex -86.86972046 73.04247284 239.3046875
vertex -86.49208832 72.85100555 239.4503784

endloop
endfacet
facet normal -0.381996125 -0.02303331159 0.923876822
outer loop
vertex -86.42887115 73.00829315 239.4804382
vertex -86.49208832 72.85100555 239.4503784
vertex -86.01119232 72.85042572 239.6492004

endloop
endfacet
facet normal -0.3819949925 -0.02318204381 0.9238736033
outer loop
vertex -86.01119232 72.85042572 239.6492004
vertex -86.49208832 72.85100555 239.4503784
vertex -86.0583725 72.6852951 239.6255493

endloop
endfacet
facet normal -0.380453676 -0.02371151373 0.924495995
outer loop
vertex -86.01119232 72.85042572 239.6492004
vertex -86.0583725 72.6852951 239.6255493
vertex -85.56007385 72.72219086 239.8315582

endloop
endfacet
facet normal -0.3803921342 -0.02456095256 0.9244991541
outer loop
vertex -85.56007385 72.72219086 239.8315582
vertex -86.0583725 72.6852951 239.6255493
vertex -85.5947876 72.55336761 239.8127899

endloop
endfacet
facet normal -0.3839974403 -0.02365637012 0.9230310917
outer loop
vertex -85.56007385 72.72219086 239.8315582
vertex -85.5947876 72.55336761 239.8127899
vertex -85.08441925 72.63567352 240.0272217

endloop
endfacet
facet normal -0.3837821186 -0.02512335964 0.9230818152
outer loop
vertex -85.08441925 72.63567352 240.0272217
vertex -85.5947876 72.55336761 239.8127899
vertex -85.10532379 72.46389008 240.013855

endloop
endfacet
facet normal -0.3924921751 -0.02378060482 0.9194478393
outer loop
vertex -85.08441925 72.63567352 240.0272217
vertex -85.10532379 72.46389008 240.013855
vertex -84.5965271 72.57537079 240.2339325

endloop
endfacet
facet normal -0.3921726644 -0.02542144619 0.9195402861
outer loop
vertex -84.5965271 72.57537079 240.2339325
vertex -85.10532379 72.46389008 240.013855
vertex -84.61097717 72.40254974 240.2229919

endloop
endfacet
facet normal -0.405410558 -0.02411357127 0.9138166308
outer loop
vertex -84.5965271 72.57537079 240.2339478
vertex -84.61097717 72.40254974 240.2229767
vertex -84.08644104 72.5212326 240.4588165

endloop
endfacet
facet normal -0.40505898 -0.0258812625 0.9139241576
outer loop
vertex -84.08644104 72.5212326 240.4588165
vertex -84.61097717 72.40254974 240.2229767
vertex -84.09973145 72.34828949 240.4480286

endloop
endfacet
facet normal -0.4227200747 -0.02402608842 0.9059417844
outer loop
vertex -84.08644104 72.5212326 240.4588165
vertex -84.09973145 72.34828949 240.4480286
vertex -83.56343079 72.45882416 240.7012024

endloop
endfacet
facet normal -0.4222500026 -0.02664101124 0.9060878158
outer loop
vertex -83.56343079 72.45882416 240.7012024
vertex -84.09973145 72.34828949 240.4480286
vertex -83.57955933 72.28630829 240.6886139

endloop
endfacet
facet normal -0.4438703656 -0.02384754457 0.8957735896
outer loop
vertex -83.56341553 72.45882416 240.7012177
vertex -83.5795517 72.28630829 240.6886292
vertex -83.04089355 72.37316132 240.9578552

endloop
endfacet
facet normal -0.4433679283 -0.02741825022 0.8959203362
outer loop
vertex -83.04089355 72.37316132 240.9578552
vertex -83.5795517 72.28630829 240.6886292
vertex -83.06375122 72.20180511 240.9412994

endloop
endfacet
facet normal -0.4660181403 -0.023290582 0.8844685555
outer loop
vertex -83.04089355 72.37316132 240.9578552
vertex -83.06375122 72.20180511 240.9412994
vertex -82.52167511 72.25102997 241.2282104

endloop
endfacet
facet normal -0.4656600058 -0.02760915644 0.8845328689
outer loop
vertex -82.52167511 72.25102997 241.2282104
vertex -83.06375122 72.20180511 240.9412994
vertex -82.55364227 72.08184052 241.2061005

endloop
endfacet
facet normal -0.4854285121 -0.02249587514 0.8739868999
outer loop
vertex -82.52167511 72.25102997 241.2282104
vertex -82.55364227 72.08184052 241.2061005
vertex -82.00734711 72.08712006 241.5096588

endloop
endfacet
facet normal -0.4853362143 -0.02723720111 0.8739032149
outer loop
vertex -82.00734711 72.08712006 241.5096588
vertex -82.55364227 72.08184052 241.2061005
vertex -82.04893494 71.92098236 241.4813843

endloop
endfacet
facet normal -0.5001328588 -0.02213138901 0.8656657934
outer loop
vertex -82.00734711 72.08712006 241.5096588
vertex -82.04893494 71.92098236 241.4813843
vertex -81.50585175 71.88292694 241.7941742

endloop
endfacet
facet normal -0.5002903342 -0.0260141734 0.8654668331
outer loop
vertex -81.50585175 71.88292694 241.7941742
vertex -82.04893494 71.92098236 241.4813843
vertex -81.55699158 71.72066498 241.7597351

endloop
endfacet
facet normal -0.5175664425 -0.01836550981 0.8554459214
outer loop
vertex -81.50583649 71.88292694 241.7942047
vertex -81.55697632 71.7206955 241.7597809
vertex -81.02639008 71.62883759 242.0788269

endloop
endfacet
facet normal -0.5191799402 -0.03255191073 0.8540448546
outer loop
vertex -81.02639008 71.62883759 242.0788269
vertex -81.55697632 71.7206955 241.7597809
vertex -81.08744049 71.47280121 242.0357666

endloop
endfacet
facet normal -0.5760214925 -0.0002090826019 0.8174345493
outer loop
vertex -81.02639008 71.62883759 242.0788269
vertex -81.08744049 71.47280121 242.0357666
vertex -80.58564758 71.26857758 242.3893127

endloop
endfacet
facet normal -0.590872407 -0.0588963069 0.8046123385
outer loop
vertex -80.58564758 71.26857758 242.3893127
vertex -81.08744049 71.47280121 242.0357666
vertex -80.65734863 71.12593842 242.3262177

endloop
endfacet
facet normal -0.689311564 0.02624936961 0.7239893675
outer loop
vertex -80.58564758 71.26857758 242.3893127
vertex -80.65734863 71.12593842 242.3262177
vertex -80.17775726 70.70888519 242.7979584

endloop
endfacet
facet normal -0.7211397886 -0.04748538882 0.6911603808
outer loop
vertex -80.17775726 70.70888519 242.7979584
vertex -80.65734863 71.12593842 242.3262177
vertex -80.25331879 70.58202362 242.7104034

endloop
endfacet
facet normal -0.7638559937 0.009597697295 0.6453154087
outer loop
vertex -80.17775726 70.70888519 242.7979584
vertex -80.25331879 70.58202362 242.7104034
vertex -79.78464508 70.03536224 243.2733002

endloop
endfacet
facet normal -0.7815973759 -0.02845293283 0.6231338978
outer loop
vertex -79.78464508 70.03536224 243.2733002
vertex -80.25331879 70.58202362 242.7104034
vertex -79.86049652 69.91744232 243.1727753

endloop
endfacet
facet normal -0.7917134166 -0.01141948625 0.6107858419
outer loop
vertex -79.78464508 70.03536224 243.2733002
vertex -79.86049652 69.91744232 243.1727753
vertex -79.4126358 69.39235687 243.7434845

endloop
endfacet
facet normal -0.79188025 -0.01180468779 0.6105623841
outer loop
vertex -79.4126358 69.39235687 243.7434845
vertex -79.86049652 69.91744232 243.1727753
vertex -79.48975372 69.27230072 243.6411438

endloop
endfacet
facet normal -0.7854218483 -0.02265171893 0.6185463071
outer loop
vertex -79.4126358 69.39238739 243.7434692
vertex -79.48974609 69.27233124 243.6411591
vertex -78.78660583 68.33397675 244.4996338

endloop
endfacet
facet normal -0.798622191 -0.04971566051 0.5997758508
outer loop
vertex -78.78660583 68.33397675 244.4996338
vertex -79.48974609 69.27233124 243.6411591
vertex -78.8638382 68.1996994 244.3856659

endloop
endfacet
facet normal -0.6398808956 -0.2490106225 0.7270117402
outer loop
vertex -78.78660583 68.33397675 244.4996338
vertex -78.8638382 68.1996994 244.3856659
vertex -77.75810242 67.13195038 244.9931641

endloop
endfacet
facet normal -nan(ind) -nan(ind) -nan(ind)
outer loop
vertex -77.75810242 67.13195038 244.9931641
vertex -78.8638382 68.1996994 244.3856659
vertex -77.75810242 67.13195038 244.9931641

endloop
endfacet
facet normal -0.9930878282 -0.1173737571 0
outer loop
vertex -87.27629852 73.54076385 238.6667633
vertex -87.27629852 73.54076385 238.666748
vertex -87.24312592 73.26009369 239.1567535

endloop
endfacet
facet normal -0.9610686898 0.2066441029 0.1834264845
outer loop
vertex -87.24312592 73.26009369 239.1567535
vertex -87.27629852 73.54076385 238.666748
vertex -87.29831696 73.12093353 239.024353

endloop
endfacet
facet normal -0.5443155169 -0.4547872841 0.7049036026
outer loop
vertex -87.24312592 73.26009369 239.1567535
vertex -87.29831696 73.12093353 239.024353
vertex -86.86972046 73.04247284 239.3046875

endloop
endfacet
facet normal -0.5509880781 -0.407197088 0.7284247875
outer loop
vertex -86.86972046 73.04247284 239.3046875
vertex -87.29831696 73.12093353 239.024353
vertex -86.91812897 72.89888763 239.1878052

endloop
endfacet
facet normal -0.5074207783 -0.4346168339 0.7440648079
outer loop
vertex -86.86972046 73.04247284 239.3046875
vertex -86.91812897 72.89888763 239.1878052
vertex -86.49208832 72.85100555 239.4503784

endloop
endfacet
facet normal -0.5082304478 -0.4299263954 0.7462339401
outer loop
vertex -86.49208832 72.85100555 239.4503784
vertex -86.91812897 72.89888763 239.1878052
vertex -86.52168274 72.69905853 239.3426819

endloop
endfacet
facet normal -0.4762891829 -0.444822371 0.7584732771
outer loop
vertex -86.49208832 72.85100555 239.4503784
vertex -86.52168274 72.69905853 239.3426819
vertex -86.0583725 72.6852951 239.6255493

endloop
endfacet
facet normal -0.476878643 -0.4423297644 0.7595598698
outer loop
vertex -86.0583725 72.6852951 239.6255493
vertex -86.52168274 72.69905853 239.3426819
vertex -86.07234192 72.52571869 239.5238495

endloop
endfacet
facet normal -0.4417459667 -0.4543432295 0.7735843658
outer loop
vertex -86.0583725 72.6852951 239.6255493
vertex -86.07234192 72.52571869 239.5238495
vertex -85.5947876 72.55336761 239.8127899

endloop
endfacet
facet normal -0.4414901435 -0.4551752806 0.7732411027
outer loop
vertex -85.5947876 72.55336761 239.8127899
vertex -86.07234192 72.52571869 239.5238495
vertex -85.5963974 72.39025116 239.7158508

endloop
endfacet
facet normal -0.4078744054 -0.463478744 0.7866548896
outer loop
vertex -85.5947876 72.55336761 239.8127899
vertex -85.5963974 72.39025116 239.7158508
vertex -85.10532379 72.46389008 240.013855

endloop
endfacet
facet normal -0.4076966345 -0.4639390111 0.786475718
outer loop
vertex -85.10532379 72.46389008 240.013855
vertex -85.5963974 72.39025116 239.7158508
vertex -85.09296417 72.29790497 239.922348

endloop
endfacet
facet normal -0.3931339979 -0.4661940932 0.7925330997
outer loop
vertex -85.10532379 72.46389008 240.013855
vertex -85.09296417 72.29790497 239.922348
vertex -84.61097717 72.40254974 240.2229919

endloop
endfacet
facet normal -0.392736882 -0.4670837522 0.7922061086
outer loop
vertex -84.61097717 72.40254974 240.2229919
vertex -85.09296417 72.29790497 239.922348
vertex -84.59147644 72.23555756 240.134201

endloop
endfacet
facet normal -0.3973661363 -0.4665697217 0.7901980281
outer loop
vertex -84.61097717 72.40254974 240.2229767
vertex -84.59147644 72.23558807 240.134201
vertex -84.09973145 72.34828949 240.4480286

endloop
endfacet
facet normal -0.3966642916 -0.468097508 0.7896468639
outer loop
vertex -84.09973145 72.34828949 240.4480286
vertex -84.59147644 72.23558807 240.134201
vertex -84.07788849 72.18120575 240.3599548

endloop
endfacet
facet normal -0.4165657759 -0.465942055 0.7806221843
outer loop
vertex -84.09973145 72.34828949 240.4480286
vertex -84.07788849 72.18120575 240.3599548
vertex -83.57955933 72.28630829 240.6886139

endloop
endfacet
facet normal -0.4155966043 -0.4681047797 0.7798444033
outer loop
vertex -83.57955933 72.28630829 240.6886139
vertex -84.07788849 72.18120575 240.3599548
vertex -83.55887604 72.11959076 240.5995636

endloop
endfacet
facet normal -0.4498738647 -0.4636573792 0.7633055449
outer loop
vertex -83.5795517 72.28630829 240.6886292
vertex -83.55887604 72.11962128 240.5995636
vertex -83.06375122 72.20180511 240.9412994

endloop
endfacet
facet normal -0.4485407174 -0.4668515921 0.7621421814
outer loop
vertex -83.06375122 72.20180511 240.9412994
vertex -83.55887604 72.11962128 240.5995636
vertex -83.04777527 72.03624725 240.8492889

endloop
endfacet
facet normal -0.4919911623 -0.4587117732 0.739951551
outer loop
vertex -83.06375122 72.20180511 240.9412994
vertex -83.04777527 72.03624725 240.8492889
vertex -82.55364227 72.08184052 241.2061005

endloop
endfacet
facet normal -0.4905390441 -0.4626743793 0.7384468913
outer loop
vertex -82.55364227 72.08184052 241.2061005
vertex -83.04777527 72.03624725 240.8492889
vertex -82.54473877 71.91838837 241.1096039

endloop
endfacet
facet normal -0.5338591933 -0.4512505233 0.7150994539
outer loop
vertex -82.55364227 72.08184052 241.2061005
vertex -82.54473877 71.91838837 241.1096039
vertex -82.04893494 71.92098236 241.4813843

endloop
endfacet
facet normal -0.5326296091 -0.4552372396 0.7134876847
outer loop
vertex -82.04893494 71.92098236 241.4813843
vertex -82.54473877 71.91838837 241.1096039
vertex -82.04788208 71.76042938 241.3797302

endloop
endfacet
facet normal -0.5712759495 -0.4417282641 0.6917513013
outer loop
vertex -82.04893494 71.92098236 241.4813843
vertex -82.04788208 71.76042938 241.3797302
vertex -81.55699158 71.72066498 241.7597351

endloop
endfacet
facet normal -0.5704103112 -0.4451418817 0.6902758479
outer loop
vertex -81.55699158 71.72066498 241.7597351
vertex -82.04788208 71.76042938 241.3797302
vertex -81.56415558 71.56383514 241.6526794

endloop
endfacet
facet normal -0.6148913503 -0.4253284633 0.6640815735
outer loop
vertex -81.55697632 71.7206955 241.7597809
vertex -81.56414795 71.56386566 241.6526947
vertex -81.08744049 71.47280121 242.0357666

endloop
endfacet
facet normal -0.6125358939 -0.4376624525 0.6582183242
outer loop
vertex -81.08744049 71.47280121 242.0357666
vertex -81.56414795 71.56386566 241.6526947
vertex -81.10233307 71.32201385 241.9216461

endloop
endfacet
facet normal -0.7082948685 -0.3801963329 0.5947849154
outer loop
vertex -81.08744049 71.47280121 242.0357666
vertex -81.10233307 71.32201385 241.9216461
vertex -80.65734863 71.12593842 242.3262177

endloop
endfacet
facet normal -0.7034960389 -0.431753248 0.5645195842
outer loop
vertex -80.65734863 71.12593842 242.3262177
vertex -81.10233307 71.32201385 241.9216461
vertex -80.67520905 70.98809052 242.1985321

endloop
endfacet
facet normal -0.8394658566 -0.3067319989 0.4485673606
outer loop
vertex -80.65734863 71.12593842 242.3262177
vertex -80.67520905 70.98809052 242.1985321
vertex -80.25331879 70.58202362 242.7104034

endloop
endfacet
facet normal -0.8390768766 -0.3751450777 0.3939747214
outer loop
vertex -80.25331879 70.58202362 242.7104034
vertex -80.67520905 70.98809052 242.1985321
vertex -80.26544952 70.45937347 242.5677795

endloop
endfacet
facet normal -0.8949376345 -0.2978313565 0.3322396278
outer loop
vertex -80.25331879 70.58202362 242.7104034
vertex -80.26544952 70.45937347 242.5677795
vertex -79.86049652 69.91744232 243.1727753

endloop
endfacet
facet normal -0.8938626051 -0.3338478506 0.2992579639
outer loop
vertex -79.86049652 69.91744232 243.1727753
vertex -80.26544952 70.45937347 242.5677795
vertex -79.86826324 69.80342865 243.0223846

endloop
endfacet
facet normal -0.905787766 -0.3138359189 0.2847025096
outer loop
vertex -79.86049652 69.91744232 243.1727753
vertex -79.86826324 69.80342865 243.0223846
vertex -79.48975372 69.27230072 243.6411438

endloop
endfacet
facet normal -0.9057440162 -0.3145111203 0.2840961516
outer loop
vertex -79.48975372 69.27230072 243.6411438
vertex -79.86826324 69.80342865 243.0223846
vertex -79.49747467 69.15645599 243.4882812

endloop
endfacet
facet normal -0.9004110694 -0.3235827386 0.290782094
outer loop
vertex -79.48974609 69.27233124 243.6411591
vertex -79.49747467 69.15645599 243.4882812
vertex -78.8638382 68.1996994 244.3856659

endloop
endfacet
facet normal -0.8992577195 -0.3520181775 0.2596510947
outer loop
vertex -78.8638382 68.1996994 244.3856659
vertex -79.49747467 69.15645599 243.4882812
vertex -78.86282349 68.07915497 244.2257538

endloop
endfacet
facet normal -0.7407284975 -0.5387101173 0.401388526
outer loop
vertex -78.8638382 68.1996994 244.3856659
vertex -78.86282349 68.07915497 244.2257538
vertex -77.75810242 67.13195038 244.9931641

endloop
endfacet
facet normal -0.651453495 -0.7586886287 0
outer loop
vertex -77.75810242 67.13195038 244.9931641
vertex -78.86282349 68.07915497 244.2257538
vertex -77.75810242 67.13195038 244.9931488

endloop
endfacet
facet normal 0.9920377731 -0.107672967 -0.0653270036
outer loop
vertex -87.27630615 73.54073334 238.666748
vertex -87.27629852 73.54079437 238.6667633
vertex -87.29832458 73.12090302 239.024353

endloop
endfacet
facet normal -0.9987496734 0.01082988363 -0.04880215228
outer loop
vertex -87.29832458 73.12090302 239.024353
vertex -87.27629852 73.54079437 238.6667633
vertex -87.28858185 73.01790619 238.8021088

endloop
endfacet
facet normal -0.5769150257 -0.7504439354 0.3224947751
outer loop
vertex -87.29832458 73.12090302 239.024353
vertex -87.28858185 73.01790619 238.8021088
vertex -86.91812897 72.89885712 239.1877899

endloop
endfacet
facet normal -0.6025795341 -0.7128840089 0.3587397337
outer loop
vertex -86.91812897 72.89885712 239.1877899
vertex -87.28858185 73.01790619 238.8021088
vertex -86.90881348 72.78386688 238.9749298

endloop
endfacet
facet normal -0.5308449268 -0.7551234961 0.3846974969
outer loop
vertex -86.91812897 72.89885712 239.1877899
vertex -86.90881348 72.78386688 238.9749298
vertex -86.52169037 72.69905853 239.3426514

endloop
endfacet
facet normal -0.5330150723 -0.7520586252 0.3876890242
outer loop
vertex -86.52169037 72.69905853 239.3426514
vertex -86.90881348 72.78386688 238.9749298
vertex -86.49822235 72.57717133 239.1384735

endloop
endfacet
facet normal -0.4678946137 -0.7814856172 0.4127407968
outer loop
vertex -86.52169037 72.69905853 239.3426514
vertex -86.49822235 72.57717133 239.1384735
vertex -86.07234955 72.52571869 239.5238342

endloop
endfacet
facet normal -0.4692046642 -0.7798141241 0.4144116938
outer loop
vertex -86.07234955 72.52571869 239.5238342
vertex -86.49822235 72.57717133 239.1384735
vertex -86.03617096 72.397789 239.3240662

endloop
endfacet
facet normal -0.405510664 -0.801363647 0.4397469461
outer loop
vertex -86.07234955 72.52571869 239.5238342
vertex -86.03617096 72.397789 239.3240662
vertex -85.59641266 72.39025116 239.7158508

endloop
endfacet
facet normal -0.4050941169 -0.8018356562 0.4392703176
outer loop
vertex -85.59641266 72.39025116 239.7158508
vertex -86.03617096 72.397789 239.3240662
vertex -85.54986572 72.25945282 239.5200195

endloop
endfacet
facet normal -0.3406156003 -0.8172318935 0.4648795426
outer loop
vertex -85.59641266 72.39025116 239.7158508
vertex -85.54986572 72.25945282 239.5200195
vertex -85.09296417 72.29787445 239.9223328

endloop
endfacet
facet normal -0.3404467404 -0.8174021244 0.4647039771
outer loop
vertex -85.09296417 72.29787445 239.9223328
vertex -85.54986572 72.25945282 239.5200195
vertex -85.0342865 72.16481781 239.7312775

endloop
endfacet
facet normal -0.3048157096 -0.8229110837 0.4794837534
outer loop
vertex -85.09296417 72.29787445 239.9223328
vertex -85.0342865 72.16481781 239.7312775
vertex -84.59147644 72.23555756 240.1341858

endloop
endfacet
facet normal -0.3043571711 -0.8233312964 0.4790535271
outer loop
vertex -84.59147644 72.23555756 240.1341858
vertex -85.0342865 72.16481781 239.7312775
vertex -84.52568054 72.10167694 239.9458923

endloop
endfacet
facet normal -0.2988529205 -0.8240023851 0.4813595712
outer loop
vertex -84.59147644 72.23555756 240.1341705
vertex -84.52568054 72.10170746 239.9458923
vertex -84.07788849 72.18117523 240.3599396

endloop
endfacet
facet normal -0.2977915108 -0.824949801 0.4803935587
outer loop
vertex -84.07788849 72.18117523 240.3599396
vertex -84.52568054 72.10170746 239.9458923
vertex -84.00837708 72.04723358 240.1730194

endloop
endfacet
facet normal -0.3156968355 -0.822958529 0.4723079801
outer loop
vertex -84.07788849 72.18117523 240.3599396
vertex -84.00837708 72.04723358 240.1730194
vertex -83.55887604 72.11959076 240.5995483

endloop
endfacet
facet normal -0.3142018914 -0.8243018985 0.4709604084
outer loop
vertex -83.55887604 72.11959076 240.5995483
vertex -84.00837708 72.04723358 240.1730194
vertex -83.48792267 71.98592377 240.4129333

endloop
endfacet
facet normal -0.3542560935 -0.8187858462 0.4517658353
outer loop
vertex -83.55887604 72.11959076 240.5995636
vertex -83.48791504 71.98592377 240.4129486
vertex -83.0477829 72.03624725 240.8492889

endloop
endfacet
facet normal -0.351877898 -0.8209890127 0.4496210814
outer loop
vertex -83.0477829 72.03624725 240.8492889
vertex -83.48791504 71.98592377 240.4129486
vertex -82.97792053 71.90352631 240.6616211

endloop
endfacet
facet normal -0.4077602029 -0.8101586699 0.421158582
outer loop
vertex -83.0477829 72.03624725 240.8492889
vertex -82.97792053 71.90352631 240.6616211
vertex -82.5447464 71.91838837 241.1096039

endloop
endfacet
facet normal -0.4051435888 -0.8127344847 0.4187139273
outer loop
vertex -82.5447464 71.91838837 241.1096039
vertex -82.97792053 71.90352631 240.6616211
vertex -82.47797394 71.78725433 240.9196777

endloop
endfacet
facet normal -0.4638254344 -0.796867609 0.3871278167
outer loop
vertex -82.5447464 71.91838837 241.1096039
vertex -82.47797394 71.78725433 240.9196777
vertex -82.04788208 71.76039886 241.3796997

endloop
endfacet
facet normal -0.4608272016 -0.8000471592 0.3841390312
outer loop
vertex -82.04788208 71.76039886 241.3796997
vertex -82.47797394 71.78725433 240.9196777
vertex -81.98524475 71.63170624 241.1868134

endloop
endfacet
facet normal -0.5162613392 -0.7803116441 0.3529701829
outer loop
vertex -82.04788208 71.76039886 241.3796997
vertex -81.98524475 71.63170624 241.1868134
vertex -81.56415558 71.56383514 241.6526642

endloop
endfacet
facet normal -0.5140382648 -0.7828475833 0.3505912125
outer loop
vertex -81.56415558 71.56383514 241.6526642
vertex -81.98524475 71.63170624 241.1868134
vertex -81.50665283 71.43810272 241.4562225

endloop
endfacet
facet normal -0.5774012208 -0.7538587451 0.3135359883
outer loop
vertex -81.56414795 71.56383514 241.6526794
vertex -81.50665283 71.43810272 241.4562531
vertex -81.1023407 71.32198334 241.9216309

endloop
endfacet
facet normal -0.5710500479 -0.7617300749 0.3060542345
outer loop
vertex -81.1023407 71.32198334 241.9216309
vertex -81.50665283 71.43810272 241.4562531
vertex -81.04829407 71.20107269 241.7215424

endloop
endfacet
facet normal -0.6876242161 -0.688558042 0.230349198
outer loop
vertex -81.1023407 71.32198334 241.9216309
vertex -81.04829407 71.20107269 241.7215424
vertex -80.67520905 70.98806 242.1985168

endloop
endfacet
facet normal -0.6601262093 -0.7261932492 0.1920329183
outer loop
vertex -80.67520905 70.98806 242.1985168
vertex -81.04829407 71.20107269 241.7215424
vertex -80.61249542 70.87755585 241.9962158

endloop
endfacet
facet normal -0.8106211424 -0.5817829967 0.06649720669
outer loop
vertex -80.67520905 70.98806 242.1985168
vertex -80.61249542 70.87755585 241.9962158
vertex -80.26545715 70.45934296 242.5677795

endloop
endfacet
facet normal -0.7696460485 -0.6384708881 0.0001397450251
outer loop
vertex -80.26545715 70.45934296 242.5677795
vertex -80.61249542 70.87755585 241.9962158
vertex -80.18397522 70.36107635 242.3665161

endloop
endfacet
facet normal -0.8318843246 -0.5507830977 -0.06787104905
outer loop
vertex -80.26545715 70.45934296 242.5677795
vertex -80.18397522 70.36107635 242.3665161
vertex -79.86827087 69.80342865 243.0223694

endloop
endfacet
facet normal -0.8070654869 -0.5809640884 -0.1054797024
outer loop
vertex -79.86827087 69.80342865 243.0223694
vertex -80.18397522 70.36107635 242.3665161
vertex -79.77630615 69.71205902 242.8219604

endloop
endfacet
facet normal -0.8206530213 -0.5582344532 -0.122077629
outer loop
vertex -79.86827087 69.80342865 243.0223694
vertex -79.77630615 69.71205902 242.8219604
vertex -79.4974823 69.15645599 243.4882507

endloop
endfacet
facet normal -0.820048213 -0.5589384437 -0.122917749
outer loop
vertex -79.4974823 69.15645599 243.4882507
vertex -79.77630615 69.71205902 242.8219604
vertex -79.40379333 69.06374359 243.28479

endloop
endfacet
facet normal -0.8174542785 -0.5634355545 -0.1196202412
outer loop
vertex -79.4974823 69.15645599 243.488266
vertex -79.40378571 69.06371307 243.2848053
vertex -78.86283875 68.07912445 244.2257233

endloop
endfacet
facet normal -0.7964852452 -0.5847292542 -0.153957665
outer loop
vertex -78.86283875 68.07912445 244.2257233
vertex -79.40378571 69.06371307 243.2848053
vertex -78.75810242 67.99001312 244.0223236

endloop
endfacet
facet normal -0.6501438618 -0.7598087788 -0.001898297807
outer loop
vertex -78.86283875 68.07912445 244.2257233
vertex -78.75810242 67.99001312 244.0223236
vertex -77.75810242 67.13191986 244.9931488

endloop
endfacet
facet normal 0.7814887166 0.2790252566 -0.5580505133
outer loop
vertex -77.75810242 67.13191986 244.9931488
vertex -78.75810242 67.99001312 244.0223236
vertex -77.75810242 67.13195038 244.9931641

endloop
endfacet
facet normal -0.9997242093 0.02348619513 0
outer loop
vertex -87.27629852 73.54076385 238.6667786
vertex -87.27629852 73.54076385 238.6667633
vertex -87.28858185 73.01790619 238.8021088

endloop
endfacet
facet normal -0.8979118466 -0.09041839838 -0.4307886958
outer loop
vertex -87.28858185 73.01790619 238.8021088
vertex -87.27629852 73.54076385 238.6667633
vertex -87.10948944 73.04946136 238.4221954

endloop
endfacet
facet normal -0.4143318832 -0.8699051142 -0.2675707638
outer loop
vertex -87.28858185 73.01790619 238.8021088
vertex -87.10948944 73.04946136 238.4221954
vertex -86.90881348 72.78386688 238.9749298

endloop
endfacet
facet normal -0.4498794973 -0.8577294946 -0.2488143146
outer loop
vertex -86.90881348 72.78386688 238.9749298
vertex -87.10948944 73.04946136 238.4221954
vertex -86.73771667 72.80648041 238.587616

endloop
endfacet
facet normal -0.3690979183 -0.9039825201 -0.2158293873
outer loop
vertex -86.90881348 72.78386688 238.9749298
vertex -86.73771667 72.80648041 238.587616
vertex -86.49822235 72.57717133 239.1384888

endloop
endfacet
facet normal -0.3703656793 -0.9036303163 -0.2151316106
outer loop
vertex -86.49822235 72.57717133 239.1384888
vertex -86.73771667 72.80648041 238.587616
vertex -86.33300018 72.600914 238.7543182

endloop
endfacet
facet normal -0.2909856141 -0.9390274286 -0.1831798553
outer loop
vertex -86.49822235 72.57717133 239.1384888
vertex -86.33300018 72.600914 238.7543182
vertex -86.03617859 72.397789 239.3240814

endloop
endfacet
facet normal -0.2904621065 -0.9391291738 -0.183488816
outer loop
vertex -86.03617859 72.397789 239.3240814
vertex -86.33300018 72.600914 238.7543182
vertex -85.87275696 72.42272186 238.9377747

endloop
endfacet
facet normal -0.2131063789 -0.96506387 -0.1524384171
outer loop
vertex -86.03617859 72.397789 239.3240814
vertex -85.87275696 72.42272186 238.9377747
vertex -85.54987335 72.25945282 239.5200195

endloop
endfacet
facet normal -0.2120966911 -0.9651919007 -0.1530342847
outer loop
vertex -85.54987335 72.25945282 239.5200195
vertex -85.87275696 72.42272186 238.9377747
vertex -85.38679504 72.284935 239.1332855

endloop
endfacet
facet normal -0.1313527673 -0.9840183258 -0.1202265993
outer loop
vertex -85.54987335 72.25945282 239.5200195
vertex -85.38679504 72.284935 239.1332855
vertex -85.0342865 72.16481781 239.7312775

endloop
endfacet
facet normal -0.1298749149 -0.9841054678 -0.1211152896
outer loop
vertex -85.0342865 72.16481781 239.7312775
vertex -85.38679504 72.284935 239.1332855
vertex -84.87017059 72.19069672 239.3450165

endloop
endfacet
facet normal -0.08061642945 -0.9916462302 -0.1006914005
outer loop
vertex -85.0342865 72.16481781 239.7312775
vertex -84.87017059 72.19069672 239.3450165
vertex -84.52568054 72.10167694 239.9459076

endloop
endfacet
facet normal -0.07892617583 -0.9916827679 -0.1016658247
outer loop
vertex -84.52568054 72.10167694 239.9459076
vertex -84.87017059 72.19069672 239.3450165
vertex -84.35800171 72.12776947 239.5612183

endloop
endfacet
facet normal -0.0630421713 -0.9935073853 -0.094703421
outer loop
vertex -84.52567291 72.10170746 239.9459076
vertex -84.35800171 72.12773895 239.561203
vertex -84.00836945 72.04723358 240.1730194

endloop
endfacet
facet normal -0.06136413664 -0.9935204387 -0.09566406906
outer loop
vertex -84.00836945 72.04723358 240.1730194
vertex -84.35800171 72.12773895 239.561203
vertex -83.83480072 72.07329559 239.7910156

endloop
endfacet
facet normal -0.07086037099 -0.992470324 -0.09990717471
outer loop
vertex -84.00836945 72.04723358 240.1730194
vertex -83.83480072 72.07329559 239.7910156
vertex -83.48792267 71.98592377 240.4129333

endloop
endfacet
facet normal -0.0686263293 -0.9925006628 -0.1011574715
outer loop
vertex -83.48792267 71.98592377 240.4129333
vertex -83.83480072 72.07329559 239.7910156
vertex -83.30612183 72.01189423 240.03479

endloop
endfacet
facet normal -0.1024605408 -0.987811327 -0.1171775609
outer loop
vertex -83.48790741 71.98592377 240.4129486
vertex -83.30612183 72.01192474 240.0348053
vertex -82.9779129 71.90352631 240.6616211

endloop
endfacet
facet normal -0.09893591702 -0.987947166 -0.1190465763
outer loop
vertex -82.9779129 71.90352631 240.6616211
vertex -83.30612183 72.01192474 240.0348053
vertex -82.7862854 71.92931366 240.2883606

endloop
endfacet
facet normal -0.152166903 -0.9775629044 -0.1456573159
outer loop
vertex -82.9779129 71.90352631 240.6616211
vertex -82.7862854 71.92931366 240.2883606
vertex -82.47796631 71.78725433 240.9196777

endloop
endfacet
facet normal -0.1468639523 -0.9779706597 -0.1483388841
outer loop
vertex -82.47796631 71.78725433 240.9196777
vertex -82.7862854 71.92931366 240.2883606
vertex -82.27636719 71.81279755 240.5516815

endloop
endfacet
facet normal -0.2062100321 -0.9618595243 -0.1797321439
outer loop
vertex -82.47796631 71.78725433 240.9196777
vertex -82.27636719 71.81279755 240.5516815
vertex -81.98525238 71.63170624 241.1868134

endloop
endfacet
facet normal -0.2006922215 -0.9625151157 -0.1824481785
outer loop
vertex -81.98525238 71.63170624 241.1868134
vertex -82.27636719 71.81279755 240.5516815
vertex -81.77503967 71.65673065 240.8235626

endloop
endfacet
facet normal -0.2597525418 -0.9413977861 -0.2151715308
outer loop
vertex -81.98525238 71.63170624 241.1868134
vertex -81.77503967 71.65673065 240.8235626
vertex -81.50665283 71.4380722 241.4562225

endloop
endfacet
facet normal -0.2547806501 -0.9422071576 -0.2175604701
outer loop
vertex -81.50665283 71.4380722 241.4562225
vertex -81.77503967 71.65673065 240.8235626
vertex -81.29020691 71.46257782 241.0966187

endloop
endfacet
facet normal -0.3227993548 -0.911101222 -0.2563108206
outer loop
vertex -81.50665283 71.43810272 241.4562531
vertex -81.29019928 71.46257782 241.0966492
vertex -81.04829407 71.20107269 241.7215576

endloop
endfacet
facet normal -0.3111969829 -0.913564384 -0.2618329525
outer loop
vertex -81.04829407 71.20107269 241.7215576
vertex -81.29019928 71.46257782 241.0966492
vertex -80.82125092 71.22457123 241.3697205

endloop
endfacet
facet normal -0.420966357 -0.8456457853 -0.3281318247
outer loop
vertex -81.04829407 71.20107269 241.7215576
vertex -80.82125092 71.22457123 241.3697205
vertex -80.61249542 70.87755585 241.9962158

endloop
endfacet
facet normal -0.3612826169 -0.8614933491 -0.3567970395
outer loop
vertex -80.61249542 70.87755585 241.9962158
vertex -80.82125092 71.22457123 241.3697205
vertex -80.34746552 70.89904022 241.6759796

endloop
endfacet
facet normal -0.4941231906 -0.738663137 -0.4584963918
outer loop
vertex -80.61249542 70.87755585 241.9962158
vertex -80.34746552 70.89904022 241.6759796
vertex -80.18396759 70.36104584 242.3665161

endloop
endfacet
facet normal -0.3948595524 -0.7677342892 -0.5046482682
outer loop
vertex -80.18396759 70.36104584 242.3665161
vertex -80.34746552 70.89904022 241.6759796
vertex -79.87162781 70.38018036 242.0930176

endloop
endfacet
facet normal -0.4557005465 -0.685068965 -0.568346262
outer loop
vertex -80.18396759 70.36104584 242.3665161
vertex -79.87162781 70.38018036 242.0930176
vertex -79.77630615 69.7120285 242.8219604

endloop
endfacet
facet normal -0.3996697366 -0.7011762261 -0.5904372334
outer loop
vertex -79.77630615 69.7120285 242.8219604
vertex -79.87162781 70.38018036 242.0930176
vertex -79.44093323 69.72978973 242.5738525

endloop
endfacet
facet normal -0.4156889617 -0.6744521856 -0.6101777554
outer loop
vertex -79.77630615 69.7120285 242.8219604
vertex -79.44093323 69.72978973 242.5738525
vertex -79.40379333 69.06371307 243.28479

endloop
endfacet
facet normal -0.4147517681 -0.6747404337 -0.6104967594
outer loop
vertex -79.40379333 69.06371307 243.28479
vertex -79.44093323 69.72978973 242.5738525
vertex -79.06287384 69.08187103 243.0331116

endloop
endfacet
facet normal -0.4165804386 -0.6714988947 -0.6128213406
outer loop
vertex -79.40379333 69.06368256 243.28479
vertex -79.06287384 69.08187103 243.0331116
vertex -78.75810242 67.99001312 244.0223389

endloop
endfacet
facet normal -0.3915764689 -0.6754327416 -0.6248668432
outer loop
vertex -78.75810242 67.99001312 244.0223389
vertex -79.06287384 69.08187103 243.0331116
vertex -78.41544342 68.01744843 243.7779541

endloop
endfacet
facet normal -0.267072469 -0.841861248 -0.4689797163
outer loop
vertex -78.75810242 67.99001312 244.0223389
vertex -78.41544342 68.01744843 243.7779541
vertex -77.75810242 67.13195038 244.9931641

endloop
endfacet
facet normal -nan(ind) -nan(ind) -nan(ind)
outer loop
vertex -77.75810242 67.13195038 244.9931641
vertex -78.41544342 68.01744843 243.7779541
vertex -77.75810242 67.13195038 244.9931641

endloop
endfacet
endsolid
