solid 
facet normal 0.987027 0 -0.160553
outer loop
vertex -37.20940399 5.274864197 336.1592712
vertex -37.20940399 5.274848938 336.1592712
vertex -37.28110504 5.28607893 335.7184753

endloop
endfacet
facet normal -0.5748435259 -0.8150236607 0.07274153829
outer loop
vertex -37.28110504 5.28607893 335.7184753
vertex -37.20940399 5.274848938 336.1592712
vertex -37.5087204 5.465981007 335.9354248

endloop
endfacet
facet normal -0.7587944269 -0.5610284805 -0.3308746219
outer loop
vertex -37.28110504 5.28607893 335.7184753
vertex -37.5087204 5.465981007 335.9354248
vertex -37.30419159 5.413611889 335.5551758

endloop
endfacet
facet normal -0.8132154942 -0.4439613819 -0.3762695193
outer loop
vertex -37.30419159 5.413611889 335.5551758
vertex -37.5087204 5.465981007 335.9354248
vertex -37.57541656 5.638741016 335.8757324

endloop
endfacet
facet normal -0.8206550479 -0.3759747148 -0.4303117394
outer loop
vertex -37.30419159 5.413611889 335.5551758
vertex -37.57541656 5.638741016 335.8757324
vertex -37.33417511 5.625267029 335.4274292

endloop
endfacet
facet normal -0.8722622991 -0.1520074606 -0.4648141265
outer loop
vertex -37.33417511 5.625267029 335.4274292
vertex -37.57541656 5.638741016 335.8757324
vertex -37.59934235 5.871498108 335.8445129

endloop
endfacet
facet normal -0.8764135838 -0.2086877823 -0.4339914024
outer loop
vertex -37.33417511 5.625267029 335.4274292
vertex -37.59934235 5.871498108 335.8445129
vertex -37.35103607 5.906653881 335.3261719

endloop
endfacet
facet normal -0.9022245407 0.0222922992 -0.4306899905
outer loop
vertex -37.35103607 5.906653881 335.3261719
vertex -37.59934235 5.871498108 335.8445129
vertex -37.57736969 6.158211231 335.813324

endloop
endfacet
facet normal -0.9167684317 -0.06018104032 -0.394859314
outer loop
vertex -37.35103607 5.906653881 335.3261719
vertex -37.57736969 6.158211231 335.813324
vertex -37.33313751 6.213066101 335.237915

endloop
endfacet
facet normal -0.9187693 0.1083155274 -0.379645437
outer loop
vertex -37.33313751 6.213066101 335.237915
vertex -37.57736969 6.158211231 335.813324
vertex -37.51784515 6.463202953 335.7562866

endloop
endfacet
facet normal -0.9349946976 0.03989427909 -0.3524107039
outer loop
vertex -37.33313751 6.213066101 335.237915
vertex -37.51784515 6.463202953 335.7562866
vertex -37.28470612 6.514870167 335.1435852

endloop
endfacet
facet normal -0.9304321408 0.1284782737 -0.3432045877
outer loop
vertex -37.28470612 6.514870167 335.1435852
vertex -37.51784515 6.463202953 335.7562866
vertex -37.44385529 6.763679981 335.6681824

endloop
endfacet
facet normal -0.9439485073 0.07431872189 -0.3216179311
outer loop
vertex -37.28470612 6.514870167 335.1435852
vertex -37.44385529 6.763679981 335.6681824
vertex -37.22612762 6.811851978 335.0402832

endloop
endfacet
facet normal -0.9403380156 0.1249072179 -0.3164848387
outer loop
vertex -37.22612762 6.811851978 335.0402832
vertex -37.44385529 6.763679981 335.6681824
vertex -37.36966705 7.060370922 335.5648499

endloop
endfacet
facet normal -0.9553204179 0.05944784358 -0.2895320356
outer loop
vertex -37.22614288 6.811867237 335.0402832
vertex -37.36965179 7.060370922 335.5648193
vertex -37.17656708 7.111075878 334.9381409

endloop
endfacet
facet normal -0.9505360126 0.1293453723 -0.282402426
outer loop
vertex -37.17656708 7.111075878 334.9381409
vertex -37.36965179 7.060370922 335.5648193
vertex -37.29929352 7.359275818 335.4649048

endloop
endfacet
facet normal -0.970941782 0.02502604201 -0.2380035818
outer loop
vertex -37.17656708 7.111075878 334.9381409
vertex -37.29929352 7.359275818 335.4649048
vertex -37.14737701 7.405968189 334.8500671

endloop
endfacet
facet normal -0.9627213478 0.1476203948 -0.2266622782
outer loop
vertex -37.14737701 7.405968189 334.8500671
vertex -37.29929352 7.359275818 335.4649048
vertex -37.23426056 7.654441833 335.3809204

endloop
endfacet
facet normal -0.9882661104 -0.02288175374 -0.1510180235
outer loop
vertex -37.14737701 7.405982971 334.8500977
vertex -37.2342453 7.654441833 335.3809204
vertex -37.14347076 7.691460133 334.7812805

endloop
endfacet
facet normal -0.9766610265 0.1648635417 -0.1376709342
outer loop
vertex -37.14347076 7.691460133 334.7812805
vertex -37.2342453 7.654441833 335.3809204
vertex -37.1765976 7.941184998 335.3153381

endloop
endfacet
facet normal -0.9980851412 -0.04739189148 -0.0397493951
outer loop
vertex -37.14347076 7.691460133 334.7812805
vertex -37.1765976 7.941184998 335.3153381
vertex -37.1543045 7.975318909 334.7148743

endloop
endfacet
facet normal -0.987088263 0.1577679813 -0.02767862007
outer loop
vertex -37.1543045 7.975318909 334.7148743
vertex -37.1765976 7.941184998 335.3153381
vertex -37.12905121 8.227012634 335.2489319

endloop
endfacet
facet normal -0.9980484247 -0.02302620001 0.05804535374
outer loop
vertex -37.1543045 7.975318909 334.7148743
vertex -37.12905121 8.227012634 335.2489319
vertex -37.1656723 8.264565468 334.6341553

endloop
endfacet
facet normal -0.9869238138 0.1462700218 0.06772392243
outer loop
vertex -37.1656723 8.264565468 334.6341553
vertex -37.12905121 8.227012634 335.2489319
vertex -37.09163666 8.519050598 335.1634216

endloop
endfacet
facet normal -0.9900951385 -0.003843242535 0.1403459162
outer loop
vertex -37.1656723 8.264565468 334.6341553
vertex -37.09163666 8.519050598 335.1634216
vertex -37.17838287 8.550163269 334.5523071

endloop
endfacet
facet normal -0.9768400788 0.1558632553 0.1465952843
outer loop
vertex -37.17838287 8.550163269 334.5523071
vertex -37.09163666 8.519050598 335.1634216
vertex -37.05937958 8.809562683 335.0694885

endloop
endfacet
facet normal -0.9699379206 -0.035174191 0.2407969385
outer loop
vertex -37.17835236 8.550178528 334.5523376
vertex -37.05936432 8.809593201 335.069519
vertex -37.20281219 8.819572449 334.4931641

endloop
endfacet
facet normal -0.95437783 0.1768525094 0.2405953556
outer loop
vertex -37.20281219 8.819572449 334.4931641
vertex -37.05936432 8.809593201 335.069519
vertex -37.02869415 9.086784363 334.9874268

endloop
endfacet
facet normal -0.9336280227 -0.04824641719 0.3549802601
outer loop
vertex -37.20281219 8.819572449 334.4931641
vertex -37.02869415 9.086784363 334.9874268
vertex -37.2377243 9.083138466 334.4371643

endloop
endfacet
facet normal -0.920499146 0.1767126322 0.3485024273
outer loop
vertex -37.2377243 9.083138466 334.4371643
vertex -37.02869415 9.086784363 334.9874268
vertex -37.00931549 9.357810974 334.9011841

endloop
endfacet
facet normal -0.9075690508 0.05048556626 0.4168567955
outer loop
vertex -37.2377243 9.083138466 334.4371643
vertex -37.00931549 9.357810974 334.9011841
vertex -37.26670074 9.35749054 334.3408508

endloop
endfacet
facet normal -0.894517839 0.1763225049 0.4107898474
outer loop
vertex -37.26670074 9.35749054 334.3408508
vertex -37.00931549 9.357810974 334.9011841
vertex -37.0127182 9.629493713 334.7771606

endloop
endfacet
facet normal -0.8965178728 0.2247594893 0.381757617
outer loop
vertex -37.26670074 9.35749054 334.3408508
vertex -37.0127182 9.629493713 334.7771606
vertex -37.25922394 9.633735657 334.1957703

endloop
endfacet
facet normal -0.8995034695 0.2103968561 0.3829187453
outer loop
vertex -37.25922394 9.633735657 334.1957703
vertex -37.0127182 9.629493713 334.7771606
vertex -37.02701569 9.881233215 334.6052551

endloop
endfacet
facet normal -0.8817952275 0.3910194337 0.2637063563
outer loop
vertex -37.25922394 9.633735657 334.1957703
vertex -37.02701569 9.881233215 334.6052551
vertex -37.19747162 9.878288269 334.0396423

endloop
endfacet
facet normal -0.9238579869 0.2640704513 0.2770435512
outer loop
vertex -37.19747162 9.878288269 334.0396423
vertex -37.02701569 9.881233215 334.6052551
vertex -37.02858734 10.07852936 334.4119568

endloop
endfacet
facet normal -0.8429133296 0.5290786624 0.09784115851
outer loop
vertex -37.19747162 9.878303528 334.0396423
vertex -37.02858734 10.0785141 334.4119568
vertex -37.08533478 10.07804108 333.9256287

endloop
endfacet
facet normal -0.9253153205 0.3636069894 0.1076172143
outer loop
vertex -37.08533478 10.07804108 333.9256287
vertex -37.02858734 10.0785141 334.4119568
vertex -36.99538422 10.21674347 334.2304077

endloop
endfacet
facet normal -0.3708938956 0.8816511035 -0.2917687893
outer loop
vertex -37.08533478 10.07804108 333.9256287
vertex -36.99538422 10.21674347 334.2304077
vertex -36.71100616 10.25406647 333.9816895

endloop
endfacet
facet normal -nan(ind) -nan(ind) -nan(ind)
outer loop
vertex -36.71100616 10.25406647 333.9816895
vertex -36.99538422 10.21674347 334.2304077
vertex -36.71100616 10.25406647 333.9816895

endloop
endfacet
facet normal 0.3762637675 0.8901690245 0.2569526434
outer loop
vertex -37.20940399 5.274848938 336.1592712
vertex -37.20941925 5.274864197 336.1592407
vertex -37.5087204 5.465981007 335.9354248

endloop
endfacet
facet normal -0.6314394474 -0.747540772 0.206075415
outer loop
vertex -37.5087204 5.465981007 335.9354248
vertex -37.20941925 5.274864197 336.1592407
vertex -37.52863312 5.542229176 336.151001

endloop
endfacet
facet normal -0.9364722967 -0.3487986922 0.0368665494
outer loop
vertex -37.5087204 5.465981007 335.9354248
vertex -37.52863312 5.542229176 336.151001
vertex -37.57541656 5.638741016 335.8757324

endloop
endfacet
facet normal -0.9710375071 -0.2225182652 0.08701623231
outer loop
vertex -37.57541656 5.638741016 335.8757324
vertex -37.52863312 5.542229176 336.151001
vertex -37.57062531 5.730918884 336.164917

endloop
endfacet
facet normal -0.994279325 -0.09589543194 0.04704015702
outer loop
vertex -37.57541656 5.638741016 335.8757324
vertex -37.57062531 5.730918884 336.164917
vertex -37.59934235 5.871498108 335.8445129

endloop
endfacet
facet normal -0.9890820384 0.08000972867 0.1237537935
outer loop
vertex -37.59934235 5.871498108 335.8445129
vertex -37.57062531 5.730918884 336.164917
vertex -37.54941559 5.970787048 336.1793518

endloop
endfacet
facet normal -0.9886551499 0.08893422782 0.121043779
outer loop
vertex -37.59934235 5.871498108 335.8445129
vertex -37.54941559 5.970787048 336.1793518
vertex -37.57736969 6.158211231 335.813324

endloop
endfacet
facet normal -0.9487012029 0.2461155951 0.1984769851
outer loop
vertex -37.57736969 6.158211231 335.813324
vertex -37.54941559 5.970787048 336.1793518
vertex -37.47754669 6.259239197 336.1651917

endloop
endfacet
facet normal -0.9525212049 0.2243884057 0.2057989836
outer loop
vertex -37.57736969 6.158211231 335.813324
vertex -37.47754669 6.259239197 336.1651917
vertex -37.51784515 6.463202953 335.7562866

endloop
endfacet
facet normal -0.9081503749 0.3319577277 0.2550822198
outer loop
vertex -37.51784515 6.463202953 335.7562866
vertex -37.47754669 6.259239197 336.1651917
vertex -37.38318634 6.563652039 336.1049805

endloop
endfacet
facet normal -0.91501683 0.3033064008 0.2659875453
outer loop
vertex -37.51784515 6.463202953 335.7562866
vertex -37.38318634 6.563652039 336.1049805
vertex -37.44385529 6.763679981 335.6681824

endloop
endfacet
facet normal -0.8878674507 0.3590275049 0.287733674
outer loop
vertex -37.44385529 6.763679981 335.6681824
vertex -37.38318634 6.563652039 336.1049805
vertex -37.29302216 6.863594055 336.0089417

endloop
endfacet
facet normal -0.8955720067 0.328461796 0.3001061976
outer loop
vertex -37.44385529 6.763679981 335.6681824
vertex -37.29302216 6.863594055 336.0089417
vertex -37.36966705 7.060370922 335.5648499

endloop
endfacet
facet normal -0.8792467117 0.3604420125 0.3114590943
outer loop
vertex -37.36966705 7.060370922 335.5648499
vertex -37.29302216 6.863594055 336.0089417
vertex -37.21045685 7.160118103 335.8988647

endloop
endfacet
facet normal -0.8890405297 0.3190317154 0.3283683956
outer loop
vertex -37.36965179 7.060370922 335.5648193
vertex -37.21047211 7.160132885 335.8988647
vertex -37.29929352 7.359275818 335.4649048

endloop
endfacet
facet normal -0.8661948442 0.362703532 0.3437333405
outer loop
vertex -37.29929352 7.359275818 335.4649048
vertex -37.21047211 7.160132885 335.8988647
vertex -37.12822723 7.458899975 335.790863

endloop
endfacet
facet normal -0.8795019388 0.2990993857 0.370156616
outer loop
vertex -37.29929352 7.359275818 335.4649048
vertex -37.12822723 7.458899975 335.790863
vertex -37.23426056 7.654441833 335.3809204

endloop
endfacet
facet normal -0.8390027881 0.3738668859 0.3953453004
outer loop
vertex -37.23426056 7.654441833 335.3809204
vertex -37.12822723 7.458899975 335.790863
vertex -37.04273224 7.754189014 335.6930542

endloop
endfacet
facet normal -0.8564894795 0.2724588811 0.4383970499
outer loop
vertex -37.2342453 7.654441833 335.3809204
vertex -37.04273224 7.754189014 335.6930847
vertex -37.1765976 7.941184998 335.3153381

endloop
endfacet
facet normal -0.793817699 0.3841424882 0.4714743197
outer loop
vertex -37.1765976 7.941184998 335.3153381
vertex -37.04273224 7.754189014 335.6930847
vertex -36.95580292 8.041435242 335.6054077

endloop
endfacet
facet normal -0.8097167611 0.2572327852 0.5274372697
outer loop
vertex -37.1765976 7.941184998 335.3153381
vertex -36.95580292 8.041435242 335.6054077
vertex -37.12905121 8.227012634 335.2489319

endloop
endfacet
facet normal -0.7386435866 0.379979074 0.5567958355
outer loop
vertex -37.12905121 8.227012634 335.2489319
vertex -36.95580292 8.041435242 335.6054077
vertex -36.87787628 8.328056335 335.5131836

endloop
endfacet
facet normal -0.7472441196 0.2731236219 0.6058297753
outer loop
vertex -37.12905121 8.227012634 335.2489319
vertex -36.87787628 8.328056335 335.5131836
vertex -37.09163666 8.519050598 335.1634216

endloop
endfacet
facet normal -0.6850470901 0.3759752214 0.6239816546
outer loop
vertex -37.09163666 8.519050598 335.1634216
vertex -36.87787628 8.328056335 335.5131836
vertex -36.81678009 8.621253967 335.403595

endloop
endfacet
facet normal -0.6885908842 0.2911907732 0.6641163826
outer loop
vertex -37.09163666 8.519050598 335.1634216
vertex -36.81678009 8.621253967 335.403595
vertex -37.05937958 8.809562683 335.0694885

endloop
endfacet
facet normal -0.628305614 0.3874728382 0.6746087074
outer loop
vertex -37.05937958 8.809562683 335.0694885
vertex -36.81678009 8.621253967 335.403595
vertex -36.76543427 8.913749695 335.2834167

endloop
endfacet
facet normal -0.627984345 0.2840596437 0.7245314717
outer loop
vertex -37.05936432 8.809593201 335.069519
vertex -36.76541901 8.913780212 335.2834473
vertex -37.02869415 9.086784363 334.9874268

endloop
endfacet
facet normal -0.5508500934 0.4077512622 0.7282190919
outer loop
vertex -37.02869415 9.086784363 334.9874268
vertex -36.76541901 8.913780212 335.2834473
vertex -36.71466827 9.194084167 335.1648865

endloop
endfacet
facet normal -0.5439862013 0.289505899 0.7875692844
outer loop
vertex -37.02869415 9.086784363 334.9874268
vertex -36.71466827 9.194084167 335.1648865
vertex -37.00931549 9.357810974 334.9011841

endloop
endfacet
facet normal -0.4644763172 0.4199180603 0.7796990275
outer loop
vertex -37.00931549 9.357810974 334.9011841
vertex -36.71466827 9.194084167 335.1648865
vertex -36.67874908 9.468009949 335.0387573

endloop
endfacet
facet normal -0.4587305486 0.364243716 0.8104891777
outer loop
vertex -37.00931549 9.357810974 334.9011841
vertex -36.67874908 9.468009949 335.0387573
vertex -37.0127182 9.629493713 334.7771606

endloop
endfacet
facet normal -0.4123631716 0.4397101104 0.7978794575
outer loop
vertex -37.0127182 9.629493713 334.7771606
vertex -36.67874908 9.468009949 335.0387573
vertex -36.6805954 9.738395691 334.8887939

endloop
endfacet
facet normal -0.4183731377 0.4958792329 0.7609649897
outer loop
vertex -37.0127182 9.629493713 334.7771606
vertex -36.6805954 9.738395691 334.8887939
vertex -37.02701569 9.881233215 334.6052551

endloop
endfacet
facet normal -0.4239246845 0.4873044491 0.7634279728
outer loop
vertex -37.02701569 9.881233215 334.6052551
vertex -36.6805954 9.738395691 334.8887939
vertex -36.7199173 9.980003357 334.712738

endloop
endfacet
facet normal -0.4291496873 0.6303657293 0.6468923092
outer loop
vertex -37.02701569 9.881233215 334.6052551
vertex -36.7199173 9.980003357 334.712738
vertex -37.02858734 10.07852936 334.4119568

endloop
endfacet
facet normal -0.4861871004 0.5499641895 0.6790887713
outer loop
vertex -37.02858734 10.07852936 334.4119568
vertex -36.7199173 9.980003357 334.712738
vertex -36.77506256 10.15802765 334.5290833

endloop
endfacet
facet normal -0.4576131403 0.7457864285 0.4841413796
outer loop
vertex -37.02858734 10.0785141 334.4119568
vertex -36.77507782 10.15801239 334.5291138
vertex -36.99538422 10.21674347 334.2304077

endloop
endfacet
facet normal -0.5551968813 0.6370393634 0.5347311497
outer loop
vertex -36.99538422 10.21674347 334.2304077
vertex -36.77507782 10.15801239 334.5291138
vertex -36.81800079 10.27176666 334.3490295

endloop
endfacet
facet normal -0.2251710445 0.9678349495 -0.1122201458
outer loop
vertex -36.99538422 10.21674347 334.2304077
vertex -36.81800079 10.27176666 334.3490295
vertex -36.71100616 10.25406647 333.9816895

endloop
endfacet
facet normal 0.4874928296 -0.8537063003 0.1831291467
outer loop
vertex -36.71100616 10.25406647 333.9816895
vertex -36.81800079 10.27176666 334.3490295
vertex -36.71102142 10.25405121 333.9816589

endloop
endfacet
facet normal -0.636333704 -0.7548323274 0.159083426
outer loop
vertex -37.20941925 5.274864197 336.1592407
vertex -37.20940399 5.274864197 336.1593018
vertex -37.52863312 5.542229176 336.151001

endloop
endfacet
facet normal -0.6123625636 -0.7210878134 0.3241056502
outer loop
vertex -37.52863312 5.542229176 336.151001
vertex -37.20940399 5.274864197 336.1593018
vertex -37.45323944 5.562355042 336.3382263

endloop
endfacet
facet normal -0.8945822716 -0.2274570912 0.3846894801
outer loop
vertex -37.52863312 5.542229176 336.151001
vertex -37.45323944 5.562355042 336.3382263
vertex -37.57062531 5.730918884 336.164917

endloop
endfacet
facet normal -0.8710143566 -0.1156795397 0.4774433374
outer loop
vertex -37.57062531 5.730918884 336.164917
vertex -37.45323944 5.562355042 336.3382263
vertex -37.44516754 5.751471996 336.3987732

endloop
endfacet
facet normal -0.8819246292 0.04977308586 0.4687551856
outer loop
vertex -37.57062531 5.730918884 336.164917
vertex -37.44516754 5.751471996 336.3987732
vertex -37.54941559 5.970787048 336.1793518

endloop
endfacet
facet normal -0.8021543622 0.1862949431 0.5673116446
outer loop
vertex -37.54941559 5.970787048 336.1793518
vertex -37.44516754 5.751471996 336.3987732
vertex -37.36870575 5.990837097 336.4282837

endloop
endfacet
facet normal -0.7968677282 0.2260463089 0.5602720976
outer loop
vertex -37.54941559 5.970787048 336.1793518
vertex -37.36870575 5.990837097 336.4282837
vertex -37.47754669 6.259239197 336.1651917

endloop
endfacet
facet normal -0.6952764392 0.3391907811 0.633671999
outer loop
vertex -37.47754669 6.259239197 336.1651917
vertex -37.36870575 5.990837097 336.4282837
vertex -37.24941254 6.278923035 336.4049683

endloop
endfacet
facet normal -0.6949487925 0.3406679034 0.6332390308
outer loop
vertex -37.47754669 6.259239197 336.1651917
vertex -37.24941254 6.278923035 336.4049683
vertex -37.38318634 6.563652039 336.1049805

endloop
endfacet
facet normal -0.6145327687 0.4169003069 0.6697339416
outer loop
vertex -37.38318634 6.563652039 336.1049805
vertex -37.24941254 6.278923035 336.4049683
vertex -37.12822723 6.583061218 336.3268433

endloop
endfacet
facet normal -0.6182712913 0.4020890892 0.6753258109
outer loop
vertex -37.38318634 6.563652039 336.1049805
vertex -37.12822723 6.583061218 336.3268433
vertex -37.29302216 6.863594055 336.0089417

endloop
endfacet
facet normal -0.5749682188 0.4422711432 0.6883369684
outer loop
vertex -37.29302216 6.863594055 336.0089417
vertex -37.12822723 6.583061218 336.3268433
vertex -37.02837372 6.882912159 336.2175903

endloop
endfacet
facet normal -0.5804605484 0.4204878509 0.6973202229
outer loop
vertex -37.29302216 6.863594055 336.0089417
vertex -37.02837372 6.882912159 336.2175903
vertex -37.21045685 7.160118103 335.8988647

endloop
endfacet
facet normal -0.5554822683 0.4437117577 0.7032490969
outer loop
vertex -37.21045685 7.160118103 335.8988647
vertex -37.02837372 6.882912159 336.2175903
vertex -36.94194794 7.179405212 336.0987854

endloop
endfacet
facet normal -0.5625623465 0.4136336446 0.7158427238
outer loop
vertex -37.21047211 7.160132885 335.8988647
vertex -36.94194794 7.179405212 336.0987549
vertex -37.12822723 7.458899975 335.790863

endloop
endfacet
facet normal -0.5276969671 0.4452089965 0.7234118581
outer loop
vertex -37.12822723 7.458899975 335.790863
vertex -36.94194794 7.179405212 336.0987549
vertex -36.85363007 7.478171825 335.9793091

endloop
endfacet
facet normal -0.5372613072 0.401274085 0.7418417931
outer loop
vertex -37.12822723 7.458899975 335.790863
vertex -36.85363007 7.478171825 335.9793091
vertex -37.04273224 7.754189014 335.6930542

endloop
endfacet
facet normal -0.4764384627 0.4542675018 0.7527598143
outer loop
vertex -37.04273224 7.754189014 335.6930542
vertex -36.85363007 7.478171825 335.9793091
vertex -36.75760651 7.773476124 335.8618774

endloop
endfacet
facet normal -0.4890990555 0.3866598606 0.7818415165
outer loop
vertex -37.04273224 7.754189014 335.6930847
vertex -36.75759125 7.773506165 335.861908
vertex -36.95580292 8.041435242 335.6054077

endloop
endfacet
facet normal -0.3976881802 0.4637291133 0.7917066813
outer loop
vertex -36.95580292 8.041435242 335.6054077
vertex -36.75759125 7.773506165 335.861908
vertex -36.65645599 8.060829163 335.7444153

endloop
endfacet
facet normal -0.4099014401 0.3784759343 0.8299016356
outer loop
vertex -36.95580292 8.041435242 335.6054077
vertex -36.65645599 8.060829163 335.7444153
vertex -36.87787628 8.328056335 335.5131836

endloop
endfacet
facet normal -0.309951216 0.4621382058 0.8308781981
outer loop
vertex -36.87787628 8.328056335 335.5131836
vertex -36.65645599 8.060829163 335.7444153
vertex -36.56496429 8.347587585 335.6190491

endloop
endfacet
facet normal -0.3169077337 0.3893025517 0.864877522
outer loop
vertex -36.87787628 8.328056335 335.5131836
vertex -36.56496429 8.347587585 335.6190491
vertex -36.81678009 8.621253967 335.403595

endloop
endfacet
facet normal -0.2327025831 0.4603451192 0.8566982746
outer loop
vertex -36.81678009 8.621253967 335.403595
vertex -36.56496429 8.347587585 335.6190491
vertex -36.49485016 8.640983582 335.4804382

endloop
endfacet
facet normal -0.2357132733 0.4044499695 0.8836625814
outer loop
vertex -36.81678009 8.621253967 335.403595
vertex -36.49485016 8.640983582 335.4804382
vertex -36.76543427 8.913749695 335.2834167

endloop
endfacet
facet normal -0.1572549045 0.4709784091 0.8680151105
outer loop
vertex -36.76543427 8.913749695 335.2834167
vertex -36.49485016 8.640983582 335.4804382
vertex -36.43883514 8.933876038 335.331665

endloop
endfacet
facet normal -0.1580598503 0.4087989926 0.8988328576
outer loop
vertex -36.76541901 8.913780212 335.2834473
vertex -36.43881989 8.933906555 335.3317261
vertex -36.71466827 9.194084167 335.1648865

endloop
endfacet
facet normal -0.06123996526 0.4919707477 0.8684551716
outer loop
vertex -36.71466827 9.194084167 335.1648865
vertex -36.43881989 8.933906555 335.3317261
vertex -36.38634491 9.214805603 335.1763

endloop
endfacet
facet normal -0.05817006901 0.423818171 0.9038774371
outer loop
vertex -36.71466827 9.194084167 335.1648865
vertex -36.38634491 9.214805603 335.1763
vertex -36.67874908 9.468009949 335.0387573

endloop
endfacet
facet normal 0.03723961487 0.5098643899 0.8594483733
outer loop
vertex -36.67874908 9.468009949 335.0387573
vertex -36.38634491 9.214805603 335.1763
vertex -36.35279083 9.489265442 335.0120239

endloop
endfacet
facet normal 0.04003880545 0.4848428071 0.8736843467
outer loop
vertex -36.67874908 9.468009949 335.0387573
vertex -36.35279083 9.489265442 335.0120239
vertex -36.6805954 9.738395691 334.8887939

endloop
endfacet
facet normal 0.091379188 0.5355193019 0.8395647407
outer loop
vertex -36.6805954 9.738395691 334.8887939
vertex -36.35279083 9.489265442 335.0120239
vertex -36.36382294 9.759314537 334.8409729

endloop
endfacet
facet normal 0.08131510019 0.5955781937 0.7991710901
outer loop
vertex -36.6805954 9.738395691 334.8887939
vertex -36.36382294 9.759314537 334.8409729
vertex -36.7199173 9.980003357 334.712738

endloop
endfacet
facet normal 0.07509531826 0.5888020396 0.8047812581
outer loop
vertex -36.7199173 9.980003357 334.712738
vertex -36.36382294 9.759314537 334.8409729
vertex -36.4258194 9.998680115 334.6716309

endloop
endfacet
facet normal 0.05005805567 0.7245974541 0.6873520017
outer loop
vertex -36.7199173 9.980003357 334.712738
vertex -36.4258194 9.998680115 334.6716309
vertex -36.77506256 10.15802765 334.5290833

endloop
endfacet
facet normal -0.002516885288 0.663654089 0.7480353117
outer loop
vertex -36.77506256 10.15802765 334.5290833
vertex -36.4258194 9.998680115 334.6716309
vertex -36.52140045 10.17264557 334.5169678

endloop
endfacet
facet normal -0.0228644032 0.8427625299 0.537799716
outer loop
vertex -36.77507782 10.15801239 334.5291138
vertex -36.52140045 10.17264557 334.5169678
vertex -36.81800079 10.27176666 334.3490295

endloop
endfacet
facet normal -0.106025964 0.7630266547 0.6376116872
outer loop
vertex -36.81800079 10.27176666 334.3490295
vertex -36.52140045 10.17264557 334.5169678
vertex -36.62543488 10.28189754 334.368927

endloop
endfacet
facet normal -0.04609923437 0.9970417023 -0.06150386855
outer loop
vertex -36.81800079 10.27176666 334.3490295
vertex -36.62543488 10.28189754 334.368927
vertex -36.71102142 10.25405121 333.9816589

endloop
endfacet
facet normal -0.760273993 0.6380156279 0.1221453995
outer loop
vertex -36.71102142 10.25405121 333.9816589
vertex -36.62543488 10.28189754 334.368927
vertex -36.71099091 10.25408173 333.9816895

endloop
endfacet
facet normal -nan(ind) -nan(ind) -nan(ind)
outer loop
vertex -37.20940399 5.274864197 336.1593018
vertex -37.20940399 5.274864197 336.1593018
vertex -37.45323944 5.562355042 336.3382263

endloop
endfacet
facet normal -0.5481204391 -0.7247369289 0.4175169766
outer loop
vertex -37.45323944 5.562355042 336.3382263
vertex -37.20940399 5.274864197 336.1593018
vertex -37.30886078 5.533348083 336.477417

endloop
endfacet
facet normal -0.7009230852 -0.1901641488 0.6874185801
outer loop
vertex -37.45323944 5.562355042 336.3382263
vertex -37.30886078 5.533348083 336.477417
vertex -37.44516754 5.751471996 336.3987732

endloop
endfacet
facet normal -0.6145835519 -0.1020276845 0.7822259068
outer loop
vertex -37.44516754 5.751471996 336.3987732
vertex -37.30886078 5.533348083 336.477417
vertex -37.23908234 5.710823059 336.5553894

endloop
endfacet
facet normal -0.5912802815 0.09007173777 0.8014205098
outer loop
vertex -37.44516754 5.751471996 336.3987732
vertex -37.23908234 5.710823059 336.5553894
vertex -37.36870575 5.990837097 336.4282837

endloop
endfacet
facet normal -0.448982954 0.1886195093 0.8734053373
outer loop
vertex -37.36870575 5.990837097 336.4282837
vertex -37.23908234 5.710823059 336.5553894
vertex -37.10764313 5.943854809 336.5726318

endloop
endfacet
facet normal -0.4337580204 0.2496810257 0.8657444119
outer loop
vertex -37.36870575 5.990837097 336.4282837
vertex -37.10764313 5.943854809 336.5726318
vertex -37.24941254 6.278923035 336.4049683

endloop
endfacet
facet normal -0.2916024923 0.3265121877 0.8990871906
outer loop
vertex -37.24941254 6.278923035 336.4049683
vertex -37.10764313 5.943854809 336.5726318
vertex -36.94959259 6.22988081 336.5200195

endloop
endfacet
facet normal -0.286834836 0.3439613581 0.8941008449
outer loop
vertex -37.24941254 6.278923035 336.4049683
vertex -36.94959259 6.22988081 336.5200195
vertex -37.12822723 6.583061218 336.3268433

endloop
endfacet
facet normal -0.1869598031 0.3969390094 0.8986019492
outer loop
vertex -37.12822723 6.583061218 336.3268433
vertex -36.94959259 6.22988081 336.5200195
vertex -36.8118515 6.534004211 336.4143372

endloop
endfacet
facet normal -0.1885066032 0.3910146058 0.900873363
outer loop
vertex -37.12822723 6.583061218 336.3268433
vertex -36.8118515 6.534004211 336.4143372
vertex -37.02837372 6.882912159 336.2175903

endloop
endfacet
facet normal -0.1372500658 0.4205434024 0.8968308568
outer loop
vertex -37.02837372 6.882912159 336.2175903
vertex -36.8118515 6.534004211 336.4143372
vertex -36.70902252 6.834067822 336.2893677

endloop
endfacet
facet normal -0.1414711028 0.4034676254 0.9039910436
outer loop
vertex -37.02837372 6.882912159 336.2175903
vertex -36.70902252 6.834067822 336.2893677
vertex -36.94194794 7.179405212 336.0987854

endloop
endfacet
facet normal -0.1124109849 0.4209231734 0.9001041055
outer loop
vertex -36.94194794 7.179405212 336.0987854
vertex -36.70902252 6.834067822 336.2893677
vertex -36.62306976 7.130652905 336.1614075

endloop
endfacet
facet normal -0.1177877039 0.3984686732 0.9095871449
outer loop
vertex -36.94194794 7.179405212 336.0987549
vertex -36.6230545 7.130652905 336.1614075
vertex -36.85363007 7.478171825 335.9793091

endloop
endfacet
facet normal -0.0774622485 0.4219353497 0.9033107162
outer loop
vertex -36.85363007 7.478171825 335.9793091
vertex -36.6230545 7.130652905 336.1614075
vertex -36.53430939 7.429450989 336.0294495

endloop
endfacet
facet normal -0.08410510421 0.3917030394 0.9162396789
outer loop
vertex -36.85363007 7.478171825 335.9793091
vertex -36.53430939 7.429450989 336.0294495
vertex -36.75760651 7.773476124 335.8618774

endloop
endfacet
facet normal -0.01533103921 0.4297943711 0.9027965665
outer loop
vertex -36.75760651 7.773476124 335.8618774
vertex -36.53430939 7.429450989 336.0294495
vertex -36.43729401 7.724709034 335.8905334

endloop
endfacet
facet normal -0.02381676622 0.3855623901 0.9223743677
outer loop
vertex -36.75759125 7.773506165 335.861908
vertex -36.43727875 7.724739075 335.890564
vertex -36.65645599 8.060829163 335.7444153

endloop
endfacet
facet normal 0.07617072761 0.438978672 0.8952629566
outer loop
vertex -36.65645599 8.060829163 335.7444153
vertex -36.43727875 7.724739075 335.890564
vertex -36.3360672 8.011833191 335.7411804

endloop
endfacet
facet normal 0.06764371693 0.3814608455 0.9219067097
outer loop
vertex -36.65645599 8.060829163 335.7444153
vertex -36.3360672 8.011833191 335.7411804
vertex -36.56496429 8.347587585 335.6190491

endloop
endfacet
facet normal 0.1724462956 0.4384189844 0.8820720315
outer loop
vertex -36.56496429 8.347587585 335.6190491
vertex -36.3360672 8.011833191 335.7411804
vertex -36.24645233 8.298194885 335.5813293

endloop
endfacet
facet normal 0.1675103307 0.3881184757 0.9062584043
outer loop
vertex -36.56496429 8.347587585 335.6190491
vertex -36.24645233 8.298194885 335.5813293
vertex -36.49485016 8.640983582 335.4804382

endloop
endfacet
facet normal 0.2521048486 0.4368321002 0.8634933829
outer loop
vertex -36.49485016 8.640983582 335.4804382
vertex -36.24645233 8.298194885 335.5813293
vertex -36.18054962 8.591041565 335.4139404

endloop
endfacet
facet normal 0.2501120269 0.4000290334 0.881714642
outer loop
vertex -36.49485016 8.640983582 335.4804382
vertex -36.18054962 8.591041565 335.4139404
vertex -36.43883514 8.933876038 335.331665

endloop
endfacet
facet normal 0.3266208768 0.4460466206 0.8332833648
outer loop
vertex -36.43883514 8.933876038 335.331665
vertex -36.18054962 8.591041565 335.4139404
vertex -36.13230133 8.882957458 335.2387695

endloop
endfacet
facet normal 0.3263274729 0.4102397859 0.8515948057
outer loop
vertex -36.43881989 8.933906555 335.3317261
vertex -36.13228607 8.882972717 335.2388
vertex -36.38634491 9.214805603 335.1763

endloop
endfacet
facet normal 0.4160902798 0.4656745195 0.7810353041
outer loop
vertex -36.38634491 9.214805603 335.1763
vertex -36.13228607 8.882972717 335.2388
vertex -36.09314728 9.162376404 335.0513611

endloop
endfacet
facet normal 0.4179771245 0.4283970594 0.8011062145
outer loop
vertex -36.38634491 9.214805603 335.1763
vertex -36.09314728 9.162376404 335.0513611
vertex -36.35279083 9.489265442 335.0120239

endloop
endfacet
facet normal 0.5007525086 0.4840915203 0.7175669074
outer loop
vertex -36.35279083 9.489265442 335.0120239
vertex -36.09314728 9.162376404 335.0513611
vertex -36.07674408 9.435417175 334.8557129

endloop
endfacet
facet normal 0.5016275048 0.4774356782 0.7214049101
outer loop
vertex -36.35279083 9.489265442 335.0120239
vertex -36.07674408 9.435417175 334.8557129
vertex -36.36382294 9.759314537 334.8409729

endloop
endfacet
facet normal 0.5425195694 0.5111855268 0.6666046977
outer loop
vertex -36.36382294 9.759314537 334.8409729
vertex -36.07674408 9.435417175 334.8557129
vertex -36.10417938 9.706016541 334.6705322

endloop
endfacet
facet normal 0.5275552869 0.5774491429 0.6230874062
outer loop
vertex -36.36382294 9.759314537 334.8409729
vertex -36.10417938 9.706016541 334.6705322
vertex -36.4258194 9.998680115 334.6716309

endloop
endfacet
facet normal 0.5220018029 0.5713073015 0.6333419681
outer loop
vertex -36.4258194 9.998680115 334.6716309
vertex -36.10417938 9.706016541 334.6705322
vertex -36.18349457 9.949943542 334.5158691

endloop
endfacet
facet normal 0.47361058 0.7160800099 0.5127596259
outer loop
vertex -36.4258194 9.998680115 334.6716309
vertex -36.18349457 9.949943542 334.5158691
vertex -36.52140045 10.17264557 334.5169678

endloop
endfacet
facet normal 0.4399975836 0.6646294594 0.6038790345
outer loop
vertex -36.52140045 10.17264557 334.5169678
vertex -36.18349457 9.949943542 334.5158691
vertex -36.30275726 10.13254547 334.4017944

endloop
endfacet
facet normal 0.3564606309 0.8537430763 0.3795504272
outer loop
vertex -36.52140045 10.17264557 334.5169678
vertex -36.30275726 10.13254547 334.401825
vertex -36.62543488 10.28189754 334.368927

endloop
endfacet
facet normal 0.3120700419 0.7903600931 0.527203083
outer loop
vertex -36.62543488 10.28189754 334.368927
vertex -36.30275726 10.13254547 334.401825
vertex -36.445961 10.25357819 334.3051453

endloop
endfacet
facet normal 0.1211399511 0.9878136516 -0.09772063047
outer loop
vertex -36.62543488 10.28189754 334.368927
vertex -36.445961 10.25357819 334.3051453
vertex -36.71099091 10.25408173 333.9816895

endloop
endfacet
facet normal 0.3393313587 -0.8982036114 -0.2794361413
outer loop
vertex -36.71099091 10.25408173 333.9816895
vertex -36.445961 10.25357819 334.3051453
vertex -36.71100616 10.25406647 333.98172

endloop
endfacet
facet normal 0.9332973957 0.3591046333 -0
outer loop
vertex -37.20940399 5.274864197 336.1593018
vertex -37.20940399 5.274864197 336.1592712
vertex -37.30886078 5.533348083 336.477417

endloop
endfacet
facet normal -0.4604582191 -0.7539220452 0.4685933888
outer loop
vertex -37.30886078 5.533348083 336.477417
vertex -37.20940399 5.274864197 336.1592712
vertex -37.13716888 5.466423035 336.5384521

endloop
endfacet
facet normal -0.4043284953 -0.229950726 0.8852350116
outer loop
vertex -37.30886078 5.533348083 336.477417
vertex -37.13716888 5.466423035 336.5384521
vertex -37.23908234 5.710823059 336.5553894

endloop
endfacet
facet normal -0.2821767628 -0.1829314083 0.9417601824
outer loop
vertex -37.23908234 5.710823059 336.5553894
vertex -37.13716888 5.466423035 336.5384521
vertex -37.01325226 5.626731873 336.60672

endloop
endfacet
facet normal -0.2058950514 0.04379917309 0.9775934815
outer loop
vertex -37.23908234 5.710823059 336.5553894
vertex -37.01325226 5.626731873 336.60672
vertex -37.10764313 5.943854809 336.5726318

endloop
endfacet
facet normal -0.04120062664 0.09465430677 0.9946573377
outer loop
vertex -37.10764313 5.943854809 336.5726318
vertex -37.01325226 5.626731873 336.60672
vertex -36.84192657 5.851067066 336.5924683

endloop
endfacet
facet normal -0.008582876064 0.1854861975 0.9826093912
outer loop
vertex -37.10764313 5.943854809 336.5726318
vertex -36.84192657 5.851067066 336.5924683
vertex -36.94959259 6.22988081 336.5200195

endloop
endfacet
facet normal 0.1392388642 0.2240516543 0.9645794034
outer loop
vertex -36.94959259 6.22988081 336.5200195
vertex -36.84192657 5.851067066 336.5924683
vertex -36.66269684 6.134621143 336.5007324

endloop
endfacet
facet normal 0.1512707323 0.2626404762 0.9529622793
outer loop
vertex -36.94959259 6.22988081 336.5200195
vertex -36.66269684 6.134621143 336.5007324
vertex -36.8118515 6.534004211 336.4143372

endloop
endfacet
facet normal 0.2484490722 0.2925409377 0.9234136939
outer loop
vertex -36.8118515 6.534004211 336.4143372
vertex -36.66269684 6.134621143 336.5007324
vertex -36.52150726 6.439139843 336.366272

endloop
endfacet
facet normal 0.2498919964 0.2980479598 0.9212607741
outer loop
vertex -36.8118515 6.534004211 336.4143372
vertex -36.52150726 6.439139843 336.366272
vertex -36.70902252 6.834067822 336.2893677

endloop
endfacet
facet normal 0.2979249954 0.3168087006 0.9004848599
outer loop
vertex -36.70902252 6.834067822 336.2893677
vertex -36.52150726 6.439139843 336.366272
vertex -36.42224884 6.739693165 336.2276917

endloop
endfacet
facet normal 0.2951382101 0.3051095009 0.905428946
outer loop
vertex -36.70902252 6.834067822 336.2893677
vertex -36.42224884 6.739693165 336.2276917
vertex -36.62306976 7.130652905 336.1614075

endloop
endfacet
facet normal 0.322586 0.3169162273 0.8919093609
outer loop
vertex -36.62306976 7.130652905 336.1614075
vertex -36.42224884 6.739693165 336.2276917
vertex -36.34021759 7.0364151 336.0925903

endloop
endfacet
facet normal 0.3190585375 0.3019708395 0.8983402848
outer loop
vertex -36.6230545 7.130652905 336.1614075
vertex -36.34020233 7.036429882 336.0926208
vertex -36.53430939 7.429450989 336.0294495

endloop
endfacet
facet normal 0.3567221761 0.3174053729 0.8786370754
outer loop
vertex -36.53430939 7.429450989 336.0294495
vertex -36.34020233 7.036429882 336.0926208
vertex -36.25582123 7.335350037 335.9503784

endloop
endfacet
facet normal 0.353161484 0.3007656336 0.8858990073
outer loop
vertex -36.53430939 7.429450989 336.0294495
vertex -36.25582123 7.335350037 335.9503784
vertex -36.43729401 7.724709034 335.8905334

endloop
endfacet
facet normal 0.416202873 0.3245354891 0.849383235
outer loop
vertex -36.43729401 7.724709034 335.8905334
vertex -36.25582123 7.335350037 335.9503784
vertex -36.16608429 7.630486012 335.7936401

endloop
endfacet
facet normal 0.4120696783 0.3020254076 0.859638989
outer loop
vertex -36.43727875 7.724739075 335.890564
vertex -36.16608429 7.630516052 335.7936707
vertex -36.3360672 8.011833191 335.7411804

endloop
endfacet
facet normal 0.5002892613 0.3330385387 0.7992472053
outer loop
vertex -36.3360672 8.011833191 335.7411804
vertex -36.16608429 7.630516052 335.7936707
vertex -36.07688141 7.917121887 335.6184082

endloop
endfacet
facet normal 0.49567765 0.299877584 0.8150932789
outer loop
vertex -36.3360672 8.011833191 335.7411804
vertex -36.07688141 7.917121887 335.6184082
vertex -36.24645233 8.298194885 335.5813293

endloop
endfacet
facet normal 0.5836921334 0.3318400085 0.7410706878
outer loop
vertex -36.24645233 8.298194885 335.5813293
vertex -36.07688141 7.917121887 335.6184082
vertex -36.00182343 8.202735901 335.4313965

endloop
endfacet
facet normal 0.5809925199 0.3014021218 0.7560452223
outer loop
vertex -36.24645233 8.298194885 335.5813293
vertex -36.00182343 8.202735901 335.4313965
vertex -36.18054962 8.591041565 335.4139404

endloop
endfacet
facet normal 0.6486187577 0.3293863833 0.6861473918
outer loop
vertex -36.18054962 8.591041565 335.4139404
vertex -36.00182343 8.202735901 335.4313965
vertex -35.95020294 8.494529724 335.2425232

endloop
endfacet
facet normal 0.6477870345 0.3104115427 0.6957130432
outer loop
vertex -36.18054962 8.591041565 335.4139404
vertex -35.95020294 8.494529724 335.2425232
vertex -36.13230133 8.882957458 335.2387695

endloop
endfacet
facet normal 0.7057940364 0.3369047642 0.6231772304
outer loop
vertex -36.13230133 8.882957458 335.2387695
vertex -35.95020294 8.494529724 335.2425232
vertex -35.91817474 8.784584045 335.0494385

endloop
endfacet
facet normal 0.7057932019 0.3238212466 0.6300758719
outer loop
vertex -36.13228607 8.882972717 335.2388
vertex -35.91815948 8.784599304 335.0494995
vertex -36.09314728 9.162376404 335.0513611

endloop
endfacet
facet normal 0.7695624828 0.3538448513 0.5315707326
outer loop
vertex -36.09314728 9.162376404 335.0513611
vertex -35.91815948 8.784599304 335.0494995
vertex -35.90193939 9.061027527 334.8420105

endloop
endfacet
facet normal 0.7705255151 0.3400307596 0.5391377807
outer loop
vertex -36.09314728 9.162376404 335.0513611
vertex -35.90193939 9.061027527 334.8420105
vertex -36.07674408 9.435417175 334.8557129

endloop
endfacet
facet normal 0.8237236738 0.3688408434 0.4306225479
outer loop
vertex -36.07674408 9.435417175 334.8557129
vertex -35.90193939 9.061027527 334.8420105
vertex -35.91124725 9.331291199 334.6283264

endloop
endfacet
facet normal 0.8226921558 0.3755000234 0.4268223643
outer loop
vertex -36.07674408 9.435417175 334.8557129
vertex -35.91124725 9.331291199 334.6283264
vertex -36.10417938 9.706016541 334.6705322

endloop
endfacet
facet normal 0.8455504179 0.3948699832 0.3593356609
outer loop
vertex -36.10417938 9.706016541 334.6705322
vertex -35.91124725 9.331291199 334.6283264
vertex -35.95723724 9.602897644 334.4380798

endloop
endfacet
facet normal 0.8259008527 0.4679552019 0.3144928217
outer loop
vertex -36.10417938 9.706016541 334.6705322
vertex -35.95723724 9.602897644 334.4380798
vertex -36.18349457 9.949943542 334.5158691

endloop
endfacet
facet normal 0.8234603405 0.4635126889 0.3272140622
outer loop
vertex -36.18349457 9.949943542 334.5158691
vertex -35.95723724 9.602897644 334.4380798
vertex -36.0449295 9.855721474 334.3006287

endloop
endfacet
facet normal 0.7525647879 0.6236369014 0.2114789039
outer loop
vertex -36.18349457 9.949943542 334.5158691
vertex -36.0449295 9.855721474 334.3006287
vertex -36.30275726 10.13254547 334.4017944

endloop
endfacet
facet normal 0.7488660216 0.5809051394 0.318980962
outer loop
vertex -36.30275726 10.13254547 334.4017944
vertex -36.0449295 9.855721474 334.3006287
vertex -36.16751862 10.05504608 334.2254333

endloop
endfacet
facet normal 0.597625792 0.7943075299 0.1091743186
outer loop
vertex -36.30275726 10.13254547 334.401825
vertex -36.16750336 10.05503082 334.2254028
vertex -36.445961 10.25357819 334.3051453

endloop
endfacet
facet normal 0.6091297865 0.7441426516 0.2742489874
outer loop
vertex -36.445961 10.25357819 334.3051453
vertex -36.16750336 10.05503082 334.2254028
vertex -36.3217392 10.19766998 334.1809387

endloop
endfacet
facet normal 0.2363974303 0.9524397254 -0.1922884285
outer loop
vertex -36.445961 10.25357819 334.3051453
vertex -36.3217392 10.19766998 334.1809387
vertex -36.71100616 10.25406647 333.98172

endloop
endfacet
facet normal 0.3374975026 0.8418951631 -0.4210796058
outer loop
vertex -36.71100616 10.25406647 333.98172
vertex -36.3217392 10.19766998 334.1809387
vertex -36.71100616 10.25405121 333.9816895

endloop
endfacet
facet normal -nan(ind) -nan(ind) -nan(ind)
outer loop
vertex -37.20940399 5.274864197 336.1592712
vertex -37.20940399 5.274864197 336.1592712
vertex -37.13716888 5.466423035 336.5384521

endloop
endfacet
facet normal -0.3630746305 -0.8019922376 0.4743261933
outer loop
vertex -37.13716888 5.466423035 336.5384521
vertex -37.20940399 5.274864197 336.1592712
vertex -36.97768402 5.37860918 336.5120544

endloop
endfacet
facet normal -0.04504347593 -0.3617323637 0.9311932325
outer loop
vertex -37.13716888 5.466423035 336.5384521
vertex -36.97768402 5.37860918 336.5120544
vertex -37.01325226 5.626731873 336.60672

endloop
endfacet
facet normal 0.08032095432 -0.3452408612 0.9350707531
outer loop
vertex -37.01325226 5.626731873 336.60672
vertex -36.97768402 5.37860918 336.5120544
vertex -36.81616974 5.52033186 336.5505066

endloop
endfacet
facet normal 0.219424367 -0.1059614941 0.9698582888
outer loop
vertex -37.01325226 5.626731873 336.60672
vertex -36.81616974 5.52033186 336.5505066
vertex -36.84192657 5.851067066 336.5924683

endloop
endfacet
facet normal 0.3704489172 -0.08846187592 0.9246307015
outer loop
vertex -36.84192657 5.851067066 336.5924683
vertex -36.81616974 5.52033186 336.5505066
vertex -36.62604523 5.735649109 336.4949341

endloop
endfacet
facet normal 0.4229638875 0.02569171228 0.9057822227
outer loop
vertex -36.84192657 5.851067066 336.5924683
vertex -36.62604523 5.735649109 336.4949341
vertex -36.66269684 6.134621143 336.5007324

endloop
endfacet
facet normal 0.5484259129 0.03824127465 0.8353242278
outer loop
vertex -36.66269684 6.134621143 336.5007324
vertex -36.62604523 5.735649109 336.4949341
vertex -36.44573212 6.016838074 336.363678

endloop
endfacet
facet normal 0.5686545372 0.09701834619 0.8168349862
outer loop
vertex -36.66269684 6.134621143 336.5007324
vertex -36.44573212 6.016838074 336.363678
vertex -36.52150726 6.439139843 336.366272

endloop
endfacet
facet normal 0.6469042301 0.1114425808 0.7543841004
outer loop
vertex -36.52150726 6.439139843 336.366272
vertex -36.44573212 6.016838074 336.363678
vertex -36.31360626 6.322029114 336.2052917

endloop
endfacet
facet normal 0.6516320109 0.1294173896 0.7474134564
outer loop
vertex -36.52150726 6.439139843 336.366272
vertex -36.31360626 6.322029114 336.2052917
vertex -36.42224884 6.739693165 336.2276917

endloop
endfacet
facet normal 0.6893061399 0.1411926895 0.710578382
outer loop
vertex -36.42224884 6.739693165 336.2276917
vertex -36.31360626 6.322029114 336.2052917
vertex -36.22299957 6.623191833 336.0575562

endloop
endfacet
facet normal 0.6877990961 0.1346301734 0.7133072019
outer loop
vertex -36.42224884 6.739693165 336.2276917
vertex -36.22299957 6.623191833 336.0575562
vertex -36.34021759 7.0364151 336.0925903

endloop
endfacet
facet normal 0.7084987164 0.1423762143 0.6912008524
outer loop
vertex -36.34021759 7.0364151 336.0925903
vertex -36.22299957 6.623191833 336.0575562
vertex -36.14716339 6.920066833 335.9186707

endloop
endfacet
facet normal 0.7062457204 0.1316495389 0.6956186891
outer loop
vertex -36.34020233 7.036429882 336.0926208
vertex -36.14717865 6.920066833 335.9186707
vertex -36.25582123 7.335350037 335.9503784

endloop
endfacet
facet normal 0.734171927 0.1413630396 0.6640844345
outer loop
vertex -36.25582123 7.335350037 335.9503784
vertex -36.14717865 6.920066833 335.9186707
vertex -36.07053375 7.219184875 335.7702637

endloop
endfacet
facet normal 0.7322689295 0.1321453452 0.6680717468
outer loop
vertex -36.25582123 7.335350037 335.9503784
vertex -36.07053375 7.219184875 335.7702637
vertex -36.16608429 7.630486012 335.7936401

endloop
endfacet
facet normal 0.7778071761 0.1459498852 0.6113220453
outer loop
vertex -36.16608429 7.630486012 335.7936401
vertex -36.07053375 7.219184875 335.7702637
vertex -35.994133 7.514167786 335.6026306

endloop
endfacet
facet normal 0.7758715153 0.1353340894 0.6162045002
outer loop
vertex -36.16608429 7.630516052 335.7936707
vertex -35.99411774 7.514197826 335.6026917
vertex -36.07688141 7.917121887 335.6184082

endloop
endfacet
facet normal 0.8357224464 0.1510698795 0.5279639363
outer loop
vertex -36.07688141 7.917121887 335.6184082
vertex -35.99411774 7.514197826 335.6026917
vertex -35.92552948 7.800179005 335.4122925

endloop
endfacet
facet normal 0.8332878947 0.132455796 0.5367372036
outer loop
vertex -36.07688141 7.917121887 335.6184082
vertex -35.92552948 7.800179005 335.4122925
vertex -36.00182343 8.202735901 335.4313965

endloop
endfacet
facet normal 0.887763083 0.1475604028 0.4360074699
outer loop
vertex -36.00182343 8.202735901 335.4313965
vertex -35.92552948 7.800179005 335.4122925
vertex -35.8736496 8.084907532 335.2102966

endloop
endfacet
facet normal 0.8863551617 0.130703941 0.4441744387
outer loop
vertex -36.00182343 8.202735901 335.4313965
vertex -35.8736496 8.084907532 335.2102966
vertex -35.95020294 8.494529724 335.2425232

endloop
endfacet
facet normal 0.9236522913 0.1447007805 0.3548634648
outer loop
vertex -35.95020294 8.494529724 335.2425232
vertex -35.8736496 8.084907532 335.2102966
vertex -35.84252167 8.37537384 335.0108337

endloop
endfacet
facet normal 0.9233447909 0.1368595064 0.3587531745
outer loop
vertex -35.95020294 8.494529724 335.2425232
vertex -35.84252167 8.37537384 335.0108337
vertex -35.91817474 8.784584045 335.0494385

endloop
endfacet
facet normal 0.950797677 0.1502173841 0.2709586322
outer loop
vertex -35.91817474 8.784584045 335.0494385
vertex -35.84252167 8.37537384 335.0108337
vertex -35.83106232 8.663124084 334.8110962

endloop
endfacet
facet normal 0.9508080482 0.1483401209 0.2719546258
outer loop
vertex -35.91815948 8.784599304 335.0494995
vertex -35.8310318 8.663154602 334.8111267
vertex -35.90193939 9.061027527 334.8420105

endloop
endfacet
facet normal 0.974190414 0.1613648534 0.1578431576
outer loop
vertex -35.90193939 9.061027527 334.8420105
vertex -35.8310318 8.663154602 334.8111267
vertex -35.84175873 8.935920715 334.5984802

endloop
endfacet
facet normal 0.9743552804 0.1592476368 0.1589715332
outer loop
vertex -35.90193939 9.061027527 334.8420105
vertex -35.84175873 8.935920715 334.5984802
vertex -35.91124725 9.331291199 334.6283264

endloop
endfacet
facet normal 0.9846606851 0.1701398492 0.0386765562
outer loop
vertex -35.91124725 9.331291199 334.6283264
vertex -35.84175873 8.935920715 334.5984802
vertex -35.87937164 9.202674866 334.3825989

endloop
endfacet
facet normal 0.9819263816 0.1869463772 0.02952514961
outer loop
vertex -35.91124725 9.331291199 334.6283264
vertex -35.87937164 9.202674866 334.3825989
vertex -35.95723724 9.602897644 334.4380798

endloop
endfacet
facet normal 0.9795618057 0.1965219676 -0.04286885262
outer loop
vertex -35.95723724 9.602897644 334.4380798
vertex -35.87937164 9.202674866 334.3825989
vertex -35.94223785 9.475456238 334.1965942

endloop
endfacet
facet normal 0.955067575 0.2824726403 -0.08974979818
outer loop
vertex -35.95723724 9.602897644 334.4380798
vertex -35.94223785 9.475456238 334.1965942
vertex -36.0449295 9.855721474 334.3006287

endloop
endfacet
facet normal 0.9572256207 0.2792381346 -0.07579676807
outer loop
vertex -36.0449295 9.855721474 334.3006287
vertex -35.94223785 9.475456238 334.1965942
vertex -36.02883148 9.739295959 334.0750122

endloop
endfacet
facet normal 0.8667397499 0.4657294452 -0.1784887463
outer loop
vertex -36.0449295 9.855721474 334.3006287
vertex -36.02883148 9.739295959 334.0750122
vertex -36.16751862 10.05504608 334.2254333

endloop
endfacet
facet normal 0.901175499 0.4281200171 -0.06779303402
outer loop
vertex -36.16751862 10.05504608 334.2254333
vertex -36.02883148 9.739295959 334.0750122
vertex -36.13681793 9.959281921 334.0287781

endloop
endfacet
facet normal 0.6957390308 0.6825264096 -0.2238411903
outer loop
vertex -36.16750336 10.05503082 334.2254028
vertex -36.13683319 9.959281921 334.0287781
vertex -36.3217392 10.19766998 334.1809387

endloop
endfacet
facet normal 0.7685887814 0.6365981102 -0.06335866451
outer loop
vertex -36.3217392 10.19766998 334.1809387
vertex -36.13683319 9.959281921 334.0287781
vertex -36.27683258 10.12805939 334.0262756

endloop
endfacet
facet normal 0.2941991389 0.90060848 -0.3199238479
outer loop
vertex -36.3217392 10.19766998 334.1809387
vertex -36.27683258 10.12805939 334.0262756
vertex -36.71100616 10.25405121 333.9816895

endloop
endfacet
facet normal -0.292116046 -0.8553667665 0.4278036058
outer loop
vertex -36.71100616 10.25405121 333.9816895
vertex -36.27683258 10.12805939 334.0262756
vertex -36.71100616 10.25406647 333.98172

endloop
endfacet
facet normal -nan(ind) -nan(ind) -nan(ind)
outer loop
vertex -37.20940399 5.274864197 336.1592712
vertex -37.20940399 5.274864197 336.1592712
vertex -36.97768402 5.37860918 336.5120544

endloop
endfacet
facet normal -0.2753994465 -0.8581630588 0.4332566559
outer loop
vertex -36.97768402 5.37860918 336.5120544
vertex -37.20940399 5.274864197 336.1592712
vertex -36.86125946 5.288260937 336.4071045

endloop
endfacet
facet normal 0.2890084088 -0.5432406068 0.7882663012
outer loop
vertex -36.97768402 5.37860918 336.5120544
vertex -36.86125946 5.288260937 336.4071045
vertex -36.81616974 5.52033186 336.5505066

endloop
endfacet
facet normal 0.3895362616 -0.5377281308 0.7477365136
outer loop
vertex -36.81616974 5.52033186 336.5505066
vertex -36.86125946 5.288260937 336.4071045
vertex -36.68132782 5.411858082 336.4022522

endloop
endfacet
facet normal 0.5764389038 -0.3143202364 0.7542685866
outer loop
vertex -36.81616974 5.52033186 336.5505066
vertex -36.68132782 5.411858082 336.4022522
vertex -36.62604523 5.735649109 336.4949341

endloop
endfacet
facet normal 0.6862443089 -0.3060425818 0.6598535776
outer loop
vertex -36.62604523 5.735649109 336.4949341
vertex -36.68132782 5.411858082 336.4022522
vertex -36.49401093 5.618628979 336.3033447

endloop
endfacet
facet normal 0.7518214583 -0.1869526058 0.6323078275
outer loop
vertex -36.62604523 5.735649109 336.4949341
vertex -36.49401093 5.618628979 336.3033447
vertex -36.44573212 6.016838074 336.363678

endloop
endfacet
facet normal 0.8343342543 -0.1800937206 0.5210111141
outer loop
vertex -36.44573212 6.016838074 336.363678
vertex -36.49401093 5.618628979 336.3033447
vertex -36.33115387 5.89768219 336.1390076

endloop
endfacet
facet normal 0.8594655991 -0.1134009808 0.4984566867
outer loop
vertex -36.44573212 6.016838074 336.363678
vertex -36.33115387 5.89768219 336.1390076
vertex -36.31360626 6.322029114 336.2052917

endloop
endfacet
facet normal 0.9061905146 -0.1015917137 0.41048491
outer loop
vertex -36.31360626 6.322029114 336.2052917
vertex -36.33115387 5.89768219 336.1390076
vertex -36.21811676 6.203606129 335.9651794

endloop
endfacet
facet normal 0.9126500487 -0.0777265504 0.4012835026
outer loop
vertex -36.31360626 6.322029114 336.2052917
vertex -36.21811676 6.203606129 335.9651794
vertex -36.22299957 6.623191833 336.0575562

endloop
endfacet
facet normal 0.933395803 -0.06676319987 0.3525832593
outer loop
vertex -36.22299957 6.623191833 336.0575562
vertex -36.21811676 6.203606129 335.9651794
vertex -36.1394577 6.5053792 335.8140869

endloop
endfacet
facet normal 0.9321661592 -0.07215072215 0.354768306
outer loop
vertex -36.22299957 6.623191833 336.0575562
vertex -36.1394577 6.5053792 335.8140869
vertex -36.14716339 6.920066833 335.9186707

endloop
endfacet
facet normal 0.9430175424 -0.06478828192 0.326374799
outer loop
vertex -36.14716339 6.920066833 335.9186707
vertex -36.1394577 6.5053792 335.8140869
vertex -36.07093048 6.802405834 335.6750488

endloop
endfacet
facet normal 0.9404294491 -0.07662726939 0.33124125
outer loop
vertex -36.14717865 6.920066833 335.9186707
vertex -36.07094574 6.802405834 335.6750183
vertex -36.07053375 7.219184875 335.7702637

endloop
endfacet
facet normal 0.9541874528 -0.06755515933 0.2914836109
outer loop
vertex -36.07053375 7.219184875 335.7702637
vertex -36.07094574 6.802405834 335.6750183
vertex -36.00402069 7.1016922 335.5252991

endloop
endfacet
facet normal 0.9519581795 -0.07832247764 0.2960426807
outer loop
vertex -36.07053375 7.219184875 335.7702637
vertex -36.00402069 7.1016922 335.5252991
vertex -35.994133 7.514167786 335.6026306

endloop
endfacet
facet normal 0.9717341065 -0.06580028683 0.2267224938
outer loop
vertex -35.994133 7.514167786 335.6026306
vertex -36.00402069 7.1016922 335.5252991
vertex -35.94435883 7.39655304 335.3551636

endloop
endfacet
facet normal 0.9695675373 -0.07804149389 0.2320522517
outer loop
vertex -35.99411774 7.514197826 335.6026917
vertex -35.94434357 7.396567822 335.3551636
vertex -35.92552948 7.800179005 335.4122925

endloop
endfacet
facet normal 0.9896965623 -0.06424579024 0.1279576719
outer loop
vertex -35.92552948 7.800179005 335.4122925
vertex -35.94434357 7.396567822 335.3551636
vertex -35.90088654 7.681938171 335.162323

endloop
endfacet
facet normal 0.9871490598 -0.08298051357 0.136568442
outer loop
vertex -35.92552948 7.800179005 335.4122925
vertex -35.90088654 7.681938171 335.162323
vertex -35.8736496 8.084907532 335.2102966

endloop
endfacet
facet normal 0.9972873926 -0.07008467615 0.02248992585
outer loop
vertex -35.8736496 8.084907532 335.2102966
vertex -35.90088654 7.681938171 335.162323
vertex -35.87636566 7.96572113 334.9593201

endloop
endfacet
facet normal 0.9958357811 -0.08605612069 0.03009031899
outer loop
vertex -35.8736496 8.084907532 335.2102966
vertex -35.87636566 7.96572113 334.9593201
vertex -35.84252167 8.37537384 335.0108337

endloop
endfacet
facet normal 0.9950348139 -0.07381025702 -0.06676639616
outer loop
vertex -35.84252167 8.37537384 335.0108337
vertex -35.87636566 7.96572113 334.9593201
vertex -35.86820221 8.254875183 334.761322

endloop
endfacet
facet normal 0.9946075082 -0.08288237453 -0.06234113872
outer loop
vertex -35.84252167 8.37537384 335.0108337
vertex -35.86820221 8.254875183 334.761322
vertex -35.83106232 8.663124084 334.8110962

endloop
endfacet
facet normal 0.9856022 -0.0709521994 -0.1534731984
outer loop
vertex -35.83106232 8.663124084 334.8110962
vertex -35.86820221 8.254875183 334.761322
vertex -35.87798309 8.540290833 334.5665588

endloop
endfacet
facet normal 0.9856055379 -0.07812284678 -0.1499285847
outer loop
vertex -35.8310318 8.663154602 334.8111267
vertex -35.87796783 8.540306091 334.5665894
vertex -35.84175873 8.935920715 334.5984802

endloop
endfacet
facet normal 0.9623134136 -0.06682755053 -0.2636037767
outer loop
vertex -35.84175873 8.935920715 334.5984802
vertex -35.87796783 8.540306091 334.5665894
vertex -35.91484833 8.809379578 334.363739

endloop
endfacet
facet normal 0.9628240466 -0.07439763844 -0.2596819997
outer loop
vertex -35.84175873 8.935920715 334.5984802
vertex -35.91484833 8.809379578 334.363739
vertex -35.87937164 9.202674866 334.3825989

endloop
endfacet
facet normal 0.9248426557 -0.06545725465 -0.3746751547
outer loop
vertex -35.87937164 9.202674866 334.3825989
vertex -35.91484833 8.809379578 334.363739
vertex -35.97838593 9.072593689 334.1609192

endloop
endfacet
facet normal 0.9223259091 -0.04881428182 -0.3833171129
outer loop
vertex -35.87937164 9.202674866 334.3825989
vertex -35.97838593 9.072593689 334.1609192
vertex -35.94223785 9.475456238 334.1965942

endloop
endfacet
facet normal 0.8920160532 -0.0401705429 -0.4502153099
outer loop
vertex -35.94223785 9.475456238 334.1965942
vertex -35.97838593 9.072593689 334.1609192
vertex -36.05367279 9.346595764 333.9873047

endloop
endfacet
facet normal 0.8666041493 0.05592662096 -0.4958523214
outer loop
vertex -35.94223785 9.475456238 334.1965942
vertex -36.05367279 9.346595764 333.9873047
vertex -36.02883148 9.739295959 334.0750122

endloop
endfacet
facet normal 0.8737331629 0.05272562429 -0.4835393429
outer loop
vertex -36.02883148 9.739295959 334.0750122
vertex -36.05367279 9.346595764 333.9873047
vertex -36.13079071 9.621758461 333.8779602

endloop
endfacet
facet normal 0.7823836207 0.2656697631 -0.5632898211
outer loop
vertex -36.02883148 9.739295959 334.0750122
vertex -36.13079071 9.621758461 333.8779602
vertex -36.13681793 9.959281921 334.0287781

endloop
endfacet
facet normal 0.8547639847 0.2243858874 -0.4680058658
outer loop
vertex -36.13681793 9.959281921 334.0287781
vertex -36.13079071 9.621758461 333.8779602
vertex -36.21073151 9.863075256 333.8476562

endloop
endfacet
facet normal 0.6486597657 0.5299583673 -0.5462459326
outer loop
vertex -36.13683319 9.959281921 334.0287781
vertex -36.21073151 9.863075256 333.8476868
vertex -36.27683258 10.12805939 334.0262756

endloop
endfacet
facet normal 0.7758470178 0.4740971327 -0.4162851572
outer loop
vertex -36.27683258 10.12805939 334.0262756
vertex -36.21073151 9.863075256 333.8476868
vertex -36.31700897 10.05875397 333.872467

endloop
endfacet
facet normal 0.2909409702 0.8415233493 -0.4551831782
outer loop
vertex -36.27683258 10.12805939 334.0262756
vertex -36.31700897 10.05875397 333.872467
vertex -36.71100616 10.25406647 333.98172

endloop
endfacet
facet normal 0.4934489131 0.7779502273 0.3889751136
outer loop
vertex -36.71100616 10.25406647 333.98172
vertex -36.31700897 10.05875397 333.872467
vertex -36.71100616 10.25408173 333.9816895

endloop
endfacet
facet normal -0.03845193982 0.9992604256 0
outer loop
vertex -37.20940399 5.274864197 336.1592712
vertex -37.20940399 5.274864197 336.1593018
vertex -36.86125946 5.288260937 336.4071045

endloop
endfacet
facet normal -0.2183244526 -0.9086813331 0.3558549285
outer loop
vertex -36.86125946 5.288260937 336.4071045
vertex -37.20940399 5.274864197 336.1593018
vertex -36.80834198 5.212790966 336.2468567

endloop
endfacet
facet normal 0.4998965263 -0.7081706524 0.498595804
outer loop
vertex -36.86125946 5.288260937 336.4071045
vertex -36.80834198 5.212790966 336.2468567
vertex -36.68132782 5.411858082 336.4022522

endloop
endfacet
facet normal 0.5603149533 -0.7014042735 0.4405442178
outer loop
vertex -36.68132782 5.411858082 336.4022522
vertex -36.80834198 5.212790966 336.2468567
vertex -36.62985992 5.320198059 336.1908569

endloop
endfacet
facet normal 0.7657929063 -0.5007078648 0.4035504162
outer loop
vertex -36.68132782 5.411858082 336.4022522
vertex -36.62985992 5.320198059 336.1908569
vertex -36.49401093 5.618628979 336.3033447

endloop
endfacet
facet normal 0.8264172673 -0.4843925536 0.2870511711
outer loop
vertex -36.49401093 5.618628979 336.3033447
vertex -36.62985992 5.320198059 336.1908569
vertex -36.46504974 5.519599915 336.0528564

endloop
endfacet
facet normal 0.8930768967 -0.3734489083 0.2508974075
outer loop
vertex -36.49401093 5.618628979 336.3033447
vertex -36.46504974 5.519599915 336.0528564
vertex -36.33115387 5.89768219 336.1390076

endloop
endfacet
facet normal 0.9267528653 -0.3557261825 0.1207805201
outer loop
vertex -36.33115387 5.89768219 336.1390076
vertex -36.46504974 5.519599915 336.0528564
vertex -36.33437347 5.796836853 335.8666992

endloop
endfacet
facet normal 0.9503276348 -0.2953709066 0.09815013409
outer loop
vertex -36.33115387 5.89768219 336.1390076
vertex -36.33437347 5.796836853 335.8666992
vertex -36.21811676 6.203606129 335.9651794

endloop
endfacet
facet normal 0.9615539908 -0.2746147215 -0.0008354084566
outer loop
vertex -36.21811676 6.203606129 335.9651794
vertex -36.33437347 5.796836853 335.8666992
vertex -36.24697113 6.103415966 335.6882629

endloop
endfacet
facet normal 0.9666392207 -0.2560137808 -0.008095241152
outer loop
vertex -36.21811676 6.203606129 335.9651794
vertex -36.24697113 6.103415966 335.6882629
vertex -36.1394577 6.5053792 335.8140869

endloop
endfacet
facet normal 0.9688436985 -0.2400464863 -0.06098870933
outer loop
vertex -36.1394577 6.5053792 335.8140869
vertex -36.24697113 6.103415966 335.6882629
vertex -36.18141937 6.405693054 335.539856

endloop
endfacet
facet normal 0.9666242003 -0.2497493178 -0.05712199584
outer loop
vertex -36.1394577 6.5053792 335.8140869
vertex -36.18141937 6.405693054 335.539856
vertex -36.07093048 6.802405834 335.6750488

endloop
endfacet
facet normal 0.9669473767 -0.2394154966 -0.08770985901
outer loop
vertex -36.07093048 6.802405834 335.6750488
vertex -36.18141937 6.405693054 335.539856
vertex -36.12015533 6.702843189 335.4041443

endloop
endfacet
facet normal 0.9633184671 -0.2558790445 -0.08089126647
outer loop
vertex -36.07094574 6.802405834 335.6750183
vertex -36.12014008 6.702843189 335.4041138
vertex -36.00402069 7.1016922 335.5252991

endloop
endfacet
facet normal 0.9622489214 -0.2427448183 -0.1230942979
outer loop
vertex -36.00402069 7.1016922 335.5252991
vertex -36.12014008 6.702843189 335.4041138
vertex -36.06330109 7.00226593 335.2579651

endloop
endfacet
facet normal 0.9584888816 -0.2606433928 -0.1156037077
outer loop
vertex -36.00402069 7.1016922 335.5252991
vertex -36.06330109 7.00226593 335.2579651
vertex -35.94435883 7.39655304 335.3551636

endloop
endfacet
facet normal 0.9522559643 -0.2410855144 -0.1873132735
outer loop
vertex -35.94435883 7.39655304 335.3551636
vertex -36.06330109 7.00226593 335.2579651
vertex -36.02097321 7.297019958 335.0937805

endloop
endfacet
facet normal 0.9480355978 -0.2641825676 -0.1773022115
outer loop
vertex -35.94434357 7.396567822 335.3551636
vertex -36.02095795 7.297035217 335.093811
vertex -35.90088654 7.681938171 335.162323

endloop
endfacet
facet normal 0.9290847182 -0.2396895587 -0.2816922665
outer loop
vertex -35.90088654 7.681938171 335.162323
vertex -36.02095795 7.297035217 335.093811
vertex -36.00284576 7.581932068 334.9111328

endloop
endfacet
facet normal 0.9246562123 -0.2711566091 -0.2673667967
outer loop
vertex -35.90088654 7.681938171 335.162323
vertex -36.00284576 7.581932068 334.9111328
vertex -35.87636566 7.96572113 334.9593201

endloop
endfacet
facet normal 0.8925100565 -0.2467270941 -0.3775601387
outer loop
vertex -35.87636566 7.96572113 334.9593201
vertex -36.00284576 7.581932068 334.9111328
vertex -36.00513458 7.864922047 334.7207947

endloop
endfacet
facet normal 0.8898557425 -0.2746076286 -0.3643450737
outer loop
vertex -35.87636566 7.96572113 334.9593201
vertex -36.00513458 7.864922047 334.7207947
vertex -35.86820221 8.254875183 334.761322

endloop
endfacet
facet normal 0.8540779352 -0.2526580393 -0.4546590149
outer loop
vertex -35.86820221 8.254875183 334.761322
vertex -36.00513458 7.864922047 334.7207947
vertex -36.01850128 8.152915955 334.5356445

endloop
endfacet
facet normal 0.8529653549 -0.2739516497 -0.4442977905
outer loop
vertex -35.86820221 8.254875183 334.761322
vertex -36.01850128 8.152915955 334.5356445
vertex -35.87798309 8.540290833 334.5665588

endloop
endfacet
facet normal 0.8116225004 -0.2523660064 -0.5268588662
outer loop
vertex -35.87798309 8.540290833 334.5665588
vertex -36.01850128 8.152915955 334.5356445
vertex -36.04679108 8.43636322 334.3562927

endloop
endfacet
facet normal 0.8115057945 -0.2767572403 -0.514649272
outer loop
vertex -35.87796783 8.540306091 334.5665894
vertex -36.04676056 8.436377525 334.3563232
vertex -35.91484833 8.809379578 334.363739

endloop
endfacet
facet normal 0.7484378815 -0.2524927855 -0.6132602096
outer loop
vertex -35.91484833 8.809379578 334.363739
vertex -36.04676056 8.436377525 334.3563232
vertex -36.10475922 8.70236969 334.1760254

endloop
endfacet
facet normal 0.7500608563 -0.280466944 -0.598954916
outer loop
vertex -35.91484833 8.809379578 334.363739
vertex -36.10475922 8.70236969 334.1760254
vertex -35.97838593 9.072593689 334.1609192

endloop
endfacet
facet normal 0.6726645231 -0.2579078376 -0.6935458779
outer loop
vertex -35.97838593 9.072593689 334.1609192
vertex -36.10475922 8.70236969 334.1760254
vertex -36.18747711 8.962608337 333.9990234

endloop
endfacet
facet normal 0.6723325849 -0.2554843128 -0.69476372
outer loop
vertex -35.97838593 9.072593689 334.1609192
vertex -36.18747711 8.962608337 333.9990234
vertex -36.05367279 9.346595764 333.9873047

endloop
endfacet
facet normal 0.6196976304 -0.2387569249 -0.7476429343
outer loop
vertex -36.05367279 9.346595764 333.9873047
vertex -36.18747711 8.962608337 333.9990234
vertex -36.26880646 9.237739563 333.84375

endloop
endfacet
facet normal 0.5989322662 -0.1450970322 -0.7875449657
outer loop
vertex -36.05367279 9.346595764 333.9873047
vertex -36.26880646 9.237739563 333.84375
vertex -36.13079071 9.621758461 333.8779602

endloop
endfacet
facet normal 0.6083412766 -0.1491929144 -0.7795270085
outer loop
vertex -36.13079071 9.621758461 333.8779602
vertex -36.26880646 9.237739563 333.84375
vertex -36.32978058 9.52280426 333.7416077

endloop
endfacet
facet normal 0.538757503 0.07307837158 -0.8392854333
outer loop
vertex -36.13079071 9.621758461 333.8779602
vertex -36.32978058 9.52280426 333.7416077
vertex -36.21073151 9.863075256 333.8476562

endloop
endfacet
facet normal 0.6313109398 0.02074065246 -0.7752524614
outer loop
vertex -36.21073151 9.863075256 333.8476562
vertex -36.32978058 9.52280426 333.7416077
vertex -36.37306976 9.783027649 333.7133179

endloop
endfacet
facet normal 0.4817199707 0.3626594841 -0.7977618575
outer loop
vertex -36.21073151 9.863075256 333.8476868
vertex -36.3730545 9.783042908 333.7132874
vertex -36.31700897 10.05875397 333.872467

endloop
endfacet
facet normal 0.6321146488 0.2870463729 -0.7197468281
outer loop
vertex -36.31700897 10.05875397 333.872467
vertex -36.3730545 9.783042908 333.7132874
vertex -36.43173981 10.00295258 333.7494507

endloop
endfacet
facet normal 0.2312634736 0.7866121531 -0.5725018978
outer loop
vertex -36.31700897 10.05875397 333.872467
vertex -36.43173981 10.00295258 333.7494507
vertex -36.71100616 10.25408173 333.9816895

endloop
endfacet
facet normal -0.6392582655 0 -0.7689920664
outer loop
vertex -36.71100616 10.25408173 333.9816895
vertex -36.43173981 10.00295258 333.7494507
vertex -36.71100616 10.25406647 333.9816895

endloop
endfacet
facet normal -0.1529510766 -0.9882338047 0
outer loop
vertex -37.20940399 5.274864197 336.1593018
vertex -37.20940399 5.274864197 336.1592712
vertex -36.80834198 5.212790966 336.2468567

endloop
endfacet
facet normal -0.202078715 -0.9455283284 0.2552261055
outer loop
vertex -36.80834198 5.212790966 336.2468567
vertex -37.20940399 5.274864197 336.1592712
vertex -36.83162689 5.168448925 336.0641479

endloop
endfacet
facet normal 0.541266799 -0.830339849 0.1325367093
outer loop
vertex -36.80834198 5.212790966 336.2468567
vertex -36.83162689 5.168448925 336.0641479
vertex -36.62985992 5.320198059 336.1908569

endloop
endfacet
facet normal 0.5675370097 -0.8196536899 0.07790714502
outer loop
vertex -36.62985992 5.320198059 336.1908569
vertex -36.83162689 5.168448925 336.0641479
vertex -36.67708588 5.265282154 335.9571228

endloop
endfacet
facet normal 0.7690168619 -0.6392073035 -0.005197830964
outer loop
vertex -36.62985992 5.320198059 336.1908569
vertex -36.67708588 5.265282154 335.9571228
vertex -36.46504974 5.519599915 336.0528564

endloop
endfacet
facet normal 0.7845056653 -0.6078292131 -0.1228594929
outer loop
vertex -36.46504974 5.519599915 336.0528564
vertex -36.67708588 5.265282154 335.9571228
vertex -36.55193329 5.460258007 335.7916565

endloop
endfacet
facet normal 0.844669044 -0.5091283321 -0.165295586
outer loop
vertex -36.46504974 5.519599915 336.0528564
vertex -36.55193329 5.460258007 335.7916565
vertex -36.33437347 5.796836853 335.8666992

endloop
endfacet
facet normal 0.8312606215 -0.4717615545 -0.2940183282
outer loop
vertex -36.33437347 5.796836853 335.8666992
vertex -36.55193329 5.460258007 335.7916565
vertex -36.46289825 5.736565113 335.6000366

endloop
endfacet
facet normal 0.8494080305 -0.4245800078 -0.3134290278
outer loop
vertex -36.33437347 5.796836853 335.8666992
vertex -36.46289825 5.736565113 335.6000366
vertex -36.24697113 6.103415966 335.6882629

endloop
endfacet
facet normal 0.8264146447 -0.3883801103 -0.4076760411
outer loop
vertex -36.24697113 6.103415966 335.6882629
vertex -36.46289825 5.736565113 335.6000366
vertex -36.4028244 6.043526173 335.4293823

endloop
endfacet
facet normal 0.8283592463 -0.3811839521 -0.4105114937
outer loop
vertex -36.24697113 6.103415966 335.6882629
vertex -36.4028244 6.043526173 335.4293823
vertex -36.18141937 6.405693054 335.539856

endloop
endfacet
facet normal 0.81315732 -0.356850028 -0.4598187506
outer loop
vertex -36.18141937 6.405693054 335.539856
vertex -36.4028244 6.043526173 335.4293823
vertex -36.34906769 6.346123219 335.2896118

endloop
endfacet
facet normal 0.8092594147 -0.3738139272 -0.4531692266
outer loop
vertex -36.18141937 6.405693054 335.539856
vertex -36.34906769 6.346123219 335.2896118
vertex -36.12015533 6.702843189 335.4041443

endloop
endfacet
facet normal 0.7998746037 -0.3588287234 -0.481084764
outer loop
vertex -36.12015533 6.702843189 335.4041443
vertex -36.34906769 6.346123219 335.2896118
vertex -36.2934494 6.643379211 335.1603699

endloop
endfacet
facet normal 0.7948337197 -0.3813000321 -0.4720695615
outer loop
vertex -36.12014008 6.702843189 335.4041138
vertex -36.2934494 6.643379211 335.1603394
vertex -36.06330109 7.00226593 335.2579651

endloop
endfacet
facet normal 0.7804190516 -0.3617408872 -0.5099897981
outer loop
vertex -36.06330109 7.00226593 335.2579651
vertex -36.2934494 6.643379211 335.1603394
vertex -36.24486542 6.9428792 335.0222473

endloop
endfacet
facet normal 0.7746143341 -0.3889977932 -0.4986515343
outer loop
vertex -36.06330109 7.00226593 335.2579651
vertex -36.24486542 6.9428792 335.0222473
vertex -36.02097321 7.297019958 335.0937805

endloop
endfacet
facet normal 0.7454772592 -0.3576962054 -0.5624206662
outer loop
vertex -36.02097321 7.297019958 335.0937805
vertex -36.24486542 6.9428792 335.0222473
vertex -36.21692657 7.237572193 334.8718567

endloop
endfacet
facet normal 0.7382327318 -0.3967367113 -0.5455386639
outer loop
vertex -36.02095795 7.297035217 335.093811
vertex -36.21691132 7.237572193 334.8718872
vertex -36.00284576 7.581932068 334.9111328

endloop
endfacet
facet normal 0.6862952709 -0.3542284667 -0.635232985
outer loop
vertex -36.00284576 7.581932068 334.9111328
vertex -36.21691132 7.237572193 334.8718872
vertex -36.21910858 7.522162914 334.7108154

endloop
endfacet
facet normal 0.6788848042 -0.4059951305 -0.6117869616
outer loop
vertex -36.00284576 7.581932068 334.9111328
vertex -36.21910858 7.522162914 334.7108154
vertex -36.00513458 7.864922047 334.7207947

endloop
endfacet
facet normal 0.6127408743 -0.3620633483 -0.7024661899
outer loop
vertex -36.00513458 7.864922047 334.7207947
vertex -36.21910858 7.522162914 334.7108154
vertex -36.24210358 7.804695129 334.5451355

endloop
endfacet
facet normal 0.6082140803 -0.409091413 -0.6802352071
outer loop
vertex -36.00513458 7.864922047 334.7207947
vertex -36.24210358 7.804695129 334.5451355
vertex -36.01850128 8.152915955 334.5356445

endloop
endfacet
facet normal 0.5455256104 -0.3707828522 -0.7516128421
outer loop
vertex -36.01850128 8.152915955 334.5356445
vertex -36.24210358 7.804695129 334.5451355
vertex -36.2710495 8.092018127 334.3823853

endloop
endfacet
facet normal 0.5434429049 -0.4094516933 -0.7328158617
outer loop
vertex -36.01850128 8.152915955 334.5356445
vertex -36.2710495 8.092018127 334.3823853
vertex -36.04679108 8.43636322 334.3562927

endloop
endfacet
facet normal 0.4783604145 -0.3718206584 -0.7955631018
outer loop
vertex -36.04679108 8.43636322 334.3562927
vertex -36.2710495 8.092018127 334.3823853
vertex -36.31098175 8.37424469 334.2264709

endloop
endfacet
facet normal 0.4778749943 -0.4190925956 -0.7720083594
outer loop
vertex -36.04676056 8.436377525 334.3563232
vertex -36.31095123 8.374275208 334.2265015
vertex -36.10475922 8.70236969 334.1760254

endloop
endfacet
facet normal 0.3873594105 -0.3731362224 -0.8430433869
outer loop
vertex -36.10475922 8.70236969 334.1760254
vertex -36.31095123 8.374275208 334.2265015
vertex -36.38024139 8.638404846 334.0777588

endloop
endfacet
facet normal 0.3902403116 -0.4297756553 -0.8142514229
outer loop
vertex -36.10475922 8.70236969 334.1760254
vertex -36.38024139 8.638404846 334.0777588
vertex -36.18747711 8.962608337 333.9990234

endloop
endfacet
facet normal 0.2881106734 -0.3843136132 -0.8770948052
outer loop
vertex -36.18747711 8.962608337 333.9990234
vertex -36.38024139 8.638404846 334.0777588
vertex -36.47107697 8.896888733 333.9346619

endloop
endfacet
facet normal 0.2904464304 -0.4037499428 -0.8675407171
outer loop
vertex -36.18747711 8.962608337 333.9990234
vertex -36.47107697 8.896888733 333.9346619
vertex -36.26880646 9.237739563 333.84375

endloop
endfacet
facet normal 0.2254576981 -0.3737627864 -0.8997056484
outer loop
vertex -36.26880646 9.237739563 333.84375
vertex -36.47107697 8.896888733 333.9346619
vertex -36.55034637 9.172813416 333.8001709

endloop
endfacet
facet normal 0.2112407088 -0.2893463671 -0.9336252213
outer loop
vertex -36.26880646 9.237739563 333.84375
vertex -36.55034637 9.172813416 333.8001709
vertex -36.32978058 9.52280426 333.7416077

endloop
endfacet
facet normal 0.2199478596 -0.2942401469 -0.9300783277
outer loop
vertex -36.32978058 9.52280426 333.7416077
vertex -36.55034637 9.172813416 333.8001709
vertex -36.59108734 9.464164734 333.6983643

endloop
endfacet
facet normal 0.1795286983 -0.07675587386 -0.9807537198
outer loop
vertex -36.32978058 9.52280426 333.7416077
vertex -36.59108734 9.464164734 333.6983643
vertex -36.37306976 9.783027649 333.7133179

endloop
endfacet
facet normal 0.2723368704 -0.141573146 -0.9517298341
outer loop
vertex -36.37306976 9.783027649 333.7133179
vertex -36.59108734 9.464164734 333.6983643
vertex -36.59487152 9.736717224 333.6567383

endloop
endfacet
facet normal 0.1998189539 0.2106848061 -0.9569139481
outer loop
vertex -36.3730545 9.783042908 333.7132874
vertex -36.59488678 9.736731529 333.6567688
vertex -36.43173981 10.00295258 333.7494507

endloop
endfacet
facet normal 0.3410061598 0.1158019379 -0.9329012036
outer loop
vertex -36.43173981 10.00295258 333.7494507
vertex -36.59488678 9.736731529 333.6567688
vertex -36.59841156 9.972801208 333.6847839

endloop
endfacet
facet normal 0.1209130138 0.7431308627 -0.658131063
outer loop
vertex -36.43173981 10.00295258 333.7494507
vertex -36.59841156 9.972801208 333.6847839
vertex -36.71100616 10.25406647 333.9816895

endloop
endfacet
facet normal -nan(ind) -nan(ind) -nan(ind)
outer loop
vertex -36.71100616 10.25406647 333.9816895
vertex -36.59841156 9.972801208 333.6847839
vertex -36.71100616 10.25406647 333.9816895

endloop
endfacet
facet normal 0.1379495412 0.8858758211 -0.4429379106
outer loop
vertex -37.20940399 5.274848938 336.1592407
vertex -37.20940399 5.274864197 336.1592712
vertex -36.83165741 5.168448925 336.0640869

endloop
endfacet
facet normal -0.2356870025 -0.9617144465 0.1398460269
outer loop
vertex -36.83165741 5.168448925 336.0640869
vertex -37.20940399 5.274864197 336.1592712
vertex -36.95307159 5.170464039 335.8733215

endloop
endfacet
facet normal 0.3820912838 -0.8889386058 -0.2525752783
outer loop
vertex -36.83165741 5.168448925 336.0640869
vertex -36.95307159 5.170464039 335.8733215
vertex -36.67710114 5.265282154 335.9570923

endloop
endfacet
facet normal 0.3902139962 -0.8703491092 -0.3003754616
outer loop
vertex -36.67710114 5.265282154 335.9570923
vertex -36.95307159 5.170464039 335.8733215
vertex -36.85399628 5.267386913 335.7211914

endloop
endfacet
facet normal 0.5556482673 -0.7157397866 -0.4230503142
outer loop
vertex -36.67710114 5.265282154 335.9570923
vertex -36.85399628 5.267386913 335.7211914
vertex -36.55194855 5.460243225 335.791626

endloop
endfacet
facet normal 0.5401694775 -0.6514146328 -0.5327999592
outer loop
vertex -36.55194855 5.460243225 335.791626
vertex -36.85399628 5.267386913 335.7211914
vertex -36.78908539 5.463263988 335.5475159

endloop
endfacet
facet normal 0.5795435905 -0.5822446346 -0.5701932907
outer loop
vertex -36.55194855 5.460243225 335.791626
vertex -36.78908539 5.463263988 335.5475159
vertex -36.46289825 5.736534119 335.6000061

endloop
endfacet
facet normal 0.531003654 -0.5028171539 -0.6820630431
outer loop
vertex -36.46289825 5.736534119 335.6000061
vertex -36.78908539 5.463263988 335.5475159
vertex -36.7501297 5.740074158 335.3737793

endloop
endfacet
facet normal 0.5363879204 -0.4878808558 -0.6886655092
outer loop
vertex -36.46289825 5.736534119 335.6000061
vertex -36.7501297 5.740074158 335.3737793
vertex -36.4028244 6.04350996 335.4293213

endloop
endfacet
facet normal 0.4882948995 -0.4187428951 -0.7656516433
outer loop
vertex -36.4028244 6.04350996 335.4293213
vertex -36.7501297 5.740074158 335.3737793
vertex -36.71660614 6.047173023 335.2272034

endloop
endfacet
facet normal 0.4836537838 -0.4362974465 -0.758764565
outer loop
vertex -36.4028244 6.04350996 335.4293213
vertex -36.71660614 6.047173023 335.2272034
vertex -36.34906769 6.346123219 335.2895813

endloop
endfacet
facet normal 0.4563977122 -0.3947197795 -0.797431767
outer loop
vertex -36.34906769 6.346123219 335.2895813
vertex -36.71660614 6.047173023 335.2272034
vertex -36.6712265 6.349770069 335.1033936

endloop
endfacet
facet normal 0.4491819143 -0.4256109893 -0.7855513692
outer loop
vertex -36.34906769 6.346123219 335.2895813
vertex -36.6712265 6.349770069 335.1033936
vertex -36.2934494 6.643363953 335.1603394

endloop
endfacet
facet normal 0.4331749082 -0.4007973373 -0.8072924018
outer loop
vertex -36.2934494 6.643363953 335.1603394
vertex -36.6712265 6.349770069 335.1033936
vertex -36.6183548 6.647010803 334.9841919

endloop
endfacet
facet normal 0.4254080653 -0.4349359274 -0.7936363816
outer loop
vertex -36.2934494 6.643363953 335.1603394
vertex -36.61833954 6.647010803 334.9841919
vertex -36.24486542 6.942862988 335.0222473

endloop
endfacet
facet normal 0.401937753 -0.401539892 -0.8229287863
outer loop
vertex -36.24486542 6.942862988 335.0222473
vertex -36.61833954 6.647010803 334.9841919
vertex -36.57457733 6.946495056 334.859436

endloop
endfacet
facet normal 0.3920097649 -0.4473918676 -0.8038462996
outer loop
vertex -36.24486542 6.942862988 335.0222473
vertex -36.57457733 6.946495056 334.859436
vertex -36.21692657 7.237555981 334.8718567

endloop
endfacet
facet normal 0.3478285372 -0.391042918 -0.8521154523
outer loop
vertex -36.21692657 7.237555981 334.8718567
vertex -36.57457733 6.946495056 334.859436
vertex -36.55503082 7.241188049 334.7321777

endloop
endfacet
facet normal 0.3343050778 -0.4623139799 -0.821283102
outer loop
vertex -36.21691132 7.237555981 334.8718872
vertex -36.55501556 7.241202831 334.7322083
vertex -36.21912384 7.522148132 334.7107849

endloop
endfacet
facet normal 0.2623200715 -0.3812223673 -0.8864861727
outer loop
vertex -36.21912384 7.522148132 334.7107849
vertex -36.55501556 7.241202831 334.7322083
vertex -36.56813812 7.525825977 334.6059265

endloop
endfacet
facet normal 0.2486370355 -0.4748279154 -0.8442263603
outer loop
vertex -36.21912384 7.522148132 334.7107849
vertex -36.56813812 7.525825977 334.6059265
vertex -36.24211884 7.804679871 334.545105

endloop
endfacet
facet normal 0.163995415 -0.3894185424 -0.9063435793
outer loop
vertex -36.24211884 7.804679871 334.545105
vertex -36.56813812 7.525825977 334.6059265
vertex -36.60082245 7.808388233 334.4786072

endloop
endfacet
facet normal 0.1556683779 -0.4748500288 -0.8661898971
outer loop
vertex -36.24211884 7.804679871 334.545105
vertex -36.60082245 7.808388233 334.4786072
vertex -36.2710495 8.092018127 334.3823853

endloop
endfacet
facet normal 0.08008068055 -0.402479142 -0.9119197726
outer loop
vertex -36.2710495 8.092018127 334.3823853
vertex -36.60082245 7.808388233 334.4786072
vertex -36.63503265 8.095726013 334.3487854

endloop
endfacet
facet normal 0.07614792883 -0.4740259051 -0.8772120476
outer loop
vertex -36.2710495 8.092018127 334.3823853
vertex -36.63503265 8.095726013 334.3487854
vertex -36.31098175 8.37424469 334.2264099

endloop
endfacet
facet normal 0.0006280011148 -0.4028751254 -0.9152547121
outer loop
vertex -36.31098175 8.37424469 334.2264099
vertex -36.63503265 8.095726013 334.3487854
vertex -36.67559052 8.378044128 334.2244873

endloop
endfacet
facet normal -0.0004994198098 -0.4907859862 -0.8712800145
outer loop
vertex -36.31096649 8.374275208 334.2264404
vertex -36.67557526 8.378059387 334.2245178
vertex -36.38024139 8.638404846 334.0776978

endloop
endfacet
facet normal -0.1011909172 -0.3991280794 -0.9112942219
outer loop
vertex -36.38024139 8.638404846 334.0776978
vertex -36.67557526 8.378059387 334.2245178
vertex -36.74117279 8.642326355 334.1160583

endloop
endfacet
facet normal -0.09649933875 -0.5078218579 -0.8560401797
outer loop
vertex -36.38024139 8.638404846 334.0776978
vertex -36.74117279 8.642326355 334.1160583
vertex -36.47109222 8.896888733 333.9346008

endloop
endfacet
facet normal -0.2043823451 -0.4150922894 -0.8865247965
outer loop
vertex -36.47109222 8.896888733 333.9346008
vertex -36.74117279 8.642326355 334.1160583
vertex -36.82376862 8.900947571 334.0140076

endloop
endfacet
facet normal -0.1985089481 -0.4748546779 -0.8573839068
outer loop
vertex -36.47109222 8.896888733 333.9346008
vertex -36.82376862 8.900947571 334.0140076
vertex -36.55034637 9.172798157 333.8001404

endloop
endfacet
facet normal -0.2637340724 -0.4184672534 -0.8690969944
outer loop
vertex -36.55034637 9.172798157 333.8001404
vertex -36.82376862 8.900947571 334.0140076
vertex -36.88993073 9.176963806 333.9011841

endloop
endfacet
facet normal -0.2709941864 -0.3510747254 -0.8962748647
outer loop
vertex -36.55034637 9.172798157 333.8001404
vertex -36.88993073 9.176963806 333.9011841
vertex -36.5911026 9.464164734 333.6983337

endloop
endfacet
facet normal -0.2637302577 -0.3581779003 -0.8956310749
outer loop
vertex -36.5911026 9.464164734 333.6983337
vertex -36.88993073 9.176963806 333.9011841
vertex -36.90699005 9.468666077 333.7895508

endloop
endfacet
facet normal -0.2762989402 -0.1487423927 -0.9494917393
outer loop
vertex -36.5911026 9.464164734 333.6983337
vertex -36.90699005 9.468666077 333.7895508
vertex -36.59488678 9.736717224 333.6567383

endloop
endfacet
facet normal -0.2005928606 -0.2373801172 -0.9504805207
outer loop
vertex -36.59488678 9.736717224 333.6567383
vertex -36.90699005 9.468666077 333.7895508
vertex -36.87116241 9.742408752 333.713623

endloop
endfacet
facet normal -0.1982702464 0.1127110571 -0.9736452699
outer loop
vertex -36.59488678 9.736731529 333.6567383
vertex -36.87116241 9.74239254 333.7136536
vertex -36.59841156 9.972801208 333.6847839

endloop
endfacet
facet normal -0.09299048781 -0.01466170512 -0.9955589771
outer loop
vertex -36.59841156 9.972801208 333.6847839
vertex -36.87116241 9.74239254 333.7136536
vertex -36.813591 9.980262756 333.7047729

endloop
endfacet
facet normal -0.03967930749 0.7178230882 -0.6950939894
outer loop
vertex -36.59841156 9.972801208 333.6847839
vertex -36.813591 9.980262756 333.7047729
vertex -36.71102142 10.25405121 333.9816589

endloop
endfacet
facet normal -0.8244352937 -0.2187581062 0.5219687223
outer loop
vertex -36.71102142 10.25405121 333.9816589
vertex -36.813591 9.980262756 333.7047729
vertex -36.71100616 10.25406647 333.9816895

endloop
endfacet
facet normal 0 -0.9393511415 0.342956841
outer loop
vertex -37.20938873 5.274864197 336.1592712
vertex -37.20940399 5.274864197 336.1592712
vertex -36.95307159 5.170464039 335.8733215

endloop
endfacet
facet normal -0.345798105 -0.9377498031 0.0323902145
outer loop
vertex -36.95307159 5.170464039 335.8733215
vertex -37.20940399 5.274864197 336.1592712
vertex -37.28110504 5.28607893 335.7184753

endloop
endfacet
facet normal -0.0329464823 -0.8330587745 -0.5522025228
outer loop
vertex -36.95307159 5.170464039 335.8733215
vertex -37.28110504 5.28607893 335.7184753
vertex -36.85399628 5.267386913 335.7211914

endloop
endfacet
facet normal -0.03067222424 -0.7898573875 -0.6125230193
outer loop
vertex -36.85399628 5.267386913 335.7211914
vertex -37.28110504 5.28607893 335.7184753
vertex -37.30419159 5.413611889 335.5551758

endloop
endfacet
facet normal 0.05385528132 -0.6723663211 -0.7382567525
outer loop
vertex -36.85399628 5.267386913 335.7211914
vertex -37.30419159 5.413611889 335.5551758
vertex -36.78907013 5.463249207 335.5475464

endloop
endfacet
facet normal 0.03668608516 -0.5125727654 -0.8578596711
outer loop
vertex -36.78907013 5.463249207 335.5475464
vertex -37.30419159 5.413611889 335.5551758
vertex -37.33417511 5.625267029 335.4274292

endloop
endfacet
facet normal 0.02739932947 -0.5342136621 -0.8449053168
outer loop
vertex -36.78907013 5.463249207 335.5475464
vertex -37.33417511 5.625267029 335.4274292
vertex -36.7501297 5.740074158 335.3737793

endloop
endfacet
facet normal -0.01963176206 -0.339571327 -0.9403754473
outer loop
vertex -36.7501297 5.740074158 335.3737793
vertex -37.33417511 5.625267029 335.4274292
vertex -37.35103607 5.906653881 335.3261719

endloop
endfacet
facet normal -0.04655757919 -0.4261494577 -0.9034538865
outer loop
vertex -36.7501297 5.740074158 335.3737793
vertex -37.35103607 5.906653881 335.3261719
vertex -36.71659088 6.047156811 335.2272034

endloop
endfacet
facet normal -0.08953234553 -0.2708361745 -0.9584528208
outer loop
vertex -36.71659088 6.047156811 335.2272034
vertex -37.35103607 5.906653881 335.3261719
vertex -37.33313751 6.213066101 335.237915

endloop
endfacet
facet normal -0.113371253 -0.3615574837 -0.9254313707
outer loop
vertex -36.71659088 6.047156811 335.2272034
vertex -37.33313751 6.213066101 335.237915
vertex -36.6712265 6.349753857 335.1034241

endloop
endfacet
facet normal -0.1364483982 -0.2755177319 -0.9515628219
outer loop
vertex -36.6712265 6.349753857 335.1034241
vertex -37.33313751 6.213066101 335.237915
vertex -37.28470612 6.514870167 335.1435852

endloop
endfacet
facet normal -0.1532778144 -0.3441901505 -0.9263039827
outer loop
vertex -36.6712265 6.349753857 335.1034241
vertex -37.28470612 6.514870167 335.1435852
vertex -36.6183548 6.647010803 334.9842224

endloop
endfacet
facet normal -0.1666612029 -0.2944513559 -0.9410220385
outer loop
vertex -36.6183548 6.647010803 334.9842224
vertex -37.28470612 6.514870167 335.1435852
vertex -37.22612762 6.811851978 335.0402832

endloop
endfacet
facet normal -0.1810485572 -0.3555082679 -0.9169707298
outer loop
vertex -36.61833954 6.647010803 334.9841919
vertex -37.22614288 6.811867237 335.0402832
vertex -36.57457733 6.946509838 334.859436

endloop
endfacet
facet normal -0.2008050382 -0.2865261436 -0.9367924929
outer loop
vertex -36.57457733 6.946509838 334.859436
vertex -37.22614288 6.811867237 335.0402832
vertex -37.17656708 7.111075878 334.9381409

endloop
endfacet
facet normal -0.2201129645 -0.3743831217 -0.900770545
outer loop
vertex -36.57457733 6.946509838 334.859436
vertex -37.17656708 7.111075878 334.9381409
vertex -36.55503082 7.241202831 334.7321777

endloop
endfacet
facet normal -0.2561104894 -0.2532662451 -0.9328792095
outer loop
vertex -36.55503082 7.241202831 334.7321777
vertex -37.17656708 7.111075878 334.9381409
vertex -37.14737701 7.405968189 334.8500671

endloop
endfacet
facet normal -0.2846045494 -0.3997355103 -0.871327579
outer loop
vertex -36.55501556 7.241202831 334.7322083
vertex -37.14737701 7.405982971 334.8500977
vertex -36.56813812 7.525809765 334.6059265

endloop
endfacet
facet normal -0.3410178423 -0.2158872038 -0.9149314165
outer loop
vertex -36.56813812 7.525809765 334.6059265
vertex -37.14737701 7.405982971 334.8500977
vertex -37.14347076 7.691460133 334.7812805

endloop
endfacet
facet normal -0.372685045 -0.4166872501 -0.8291426301
outer loop
vertex -36.56813812 7.525809765 334.6059265
vertex -37.14347076 7.691460133 334.7812805
vertex -36.60082245 7.808388233 334.4786072

endloop
endfacet
facet normal -0.4384454787 -0.2205605507 -0.8712741137
outer loop
vertex -36.60082245 7.808388233 334.4786072
vertex -37.14347076 7.691460133 334.7812805
vertex -37.1543045 7.975318909 334.7148743

endloop
endfacet
facet normal -0.4599174857 -0.4104841948 -0.7873871922
outer loop
vertex -36.60082245 7.808388233 334.4786072
vertex -37.1543045 7.975318909 334.7148743
vertex -36.63503265 8.095741272 334.3487854

endloop
endfacet
facet normal -0.5189336538 -0.2486312538 -0.8178571463
outer loop
vertex -36.63503265 8.095741272 334.3487854
vertex -37.1543045 7.975318909 334.7148743
vertex -37.1656723 8.264565468 334.6341553

endloop
endfacet
facet normal -0.5296407342 -0.4043895006 -0.7456205487
outer loop
vertex -36.63503265 8.095741272 334.3487854
vertex -37.1656723 8.264565468 334.6341553
vertex -36.67559052 8.378044128 334.2244873

endloop
endfacet
facet normal -0.5871627331 -0.2470458299 -0.7708490491
outer loop
vertex -36.67559052 8.378044128 334.2244873
vertex -37.1656723 8.264565468 334.6341553
vertex -37.17838287 8.550163269 334.5523071

endloop
endfacet
facet normal -0.591886282 -0.427410394 -0.6833673716
outer loop
vertex -36.67557526 8.378059387 334.2245178
vertex -37.17835236 8.550178528 334.5523376
vertex -36.74117279 8.642311096 334.1160583

endloop
endfacet
facet normal -0.6662006974 -0.2171992213 -0.7134431601
outer loop
vertex -36.74117279 8.642311096 334.1160583
vertex -37.17835236 8.550178528 334.5523376
vertex -37.20281219 8.819572449 334.4931641

endloop
endfacet
facet normal -0.6624162793 -0.4483485818 -0.6001568437
outer loop
vertex -36.74117279 8.642311096 334.1160583
vertex -37.20281219 8.819572449 334.4931641
vertex -36.82376862 8.900947571 334.0140076

endloop
endfacet
facet normal -0.7433817387 -0.2317775786 -0.6274254918
outer loop
vertex -36.82376862 8.900947571 334.0140076
vertex -37.20281219 8.819572449 334.4931641
vertex -37.2377243 9.083138466 334.4371643

endloop
endfacet
facet normal -0.7353215218 -0.3999107182 -0.5471505523
outer loop
vertex -36.82376862 8.900947571 334.0140076
vertex -37.2377243 9.083138466 334.4371643
vertex -36.88993073 9.176963806 333.9011841

endloop
endfacet
facet normal -0.7828196883 -0.278095156 -0.5566474795
outer loop
vertex -36.88993073 9.176963806 333.9011841
vertex -37.2377243 9.083138466 334.4371643
vertex -37.26670074 9.35749054 334.3408508

endloop
endfacet
facet normal -0.7833427191 -0.2614640296 -0.5639243722
outer loop
vertex -36.88993073 9.176963806 333.9011841
vertex -37.26670074 9.35749054 334.3408508
vertex -36.90697479 9.468666077 333.7896118

endloop
endfacet
facet normal -0.7788507938 -0.2749778628 -0.5637185574
outer loop
vertex -36.90697479 9.468666077 333.7896118
vertex -37.26670074 9.35749054 334.3408508
vertex -37.25922394 9.633735657 334.1957703

endloop
endfacet
facet normal -0.7683373094 -0.07583138347 -0.6355369687
outer loop
vertex -36.90697479 9.468666077 333.7896118
vertex -37.25922394 9.633735657 334.1957703
vertex -36.87116241 9.742408752 333.7136536

endloop
endfacet
facet normal -0.7339051962 -0.224058792 -0.6412338018
outer loop
vertex -36.87116241 9.742408752 333.7136536
vertex -37.25922394 9.633735657 334.1957703
vertex -37.19747162 9.878288269 334.0396423

endloop
endfacet
facet normal -0.6714681387 0.1352637857 -0.7285837531
outer loop
vertex -36.87116241 9.742408752 333.7136841
vertex -37.19747162 9.878303528 334.0396423
vertex -36.81357574 9.980278015 333.7047729

endloop
endfacet
facet normal -0.6446051598 -0.07253544778 -0.761066854
outer loop
vertex -36.81357574 9.980278015 333.7047729
vertex -37.19747162 9.878303528 334.0396423
vertex -37.08533478 10.07804108 333.9256287

endloop
endfacet
facet normal -0.250099957 0.7332325578 -0.6323131919
outer loop
vertex -36.81357574 9.980278015 333.7047729
vertex -37.08533478 10.07804108 333.9256287
vertex -36.71100616 10.25406647 333.9816895

endloop
endfacet
facet normal -nan(ind) -nan(ind) -nan(ind)
outer loop
vertex -36.71100616 10.25406647 333.9816895
vertex -37.08533478 10.07804108 333.9256287
vertex -36.71100616 10.25406647 333.9816895

endloop
endfacet
endsolid
