solid 
facet normal -nan(ind) -nan(ind) -nan(ind)
outer loop
vertex -37.23920441 66.88646698 263.8731995
vertex -37.23920441 66.88646698 263.8731995
vertex -37.37187958 66.58898163 263.2077942

endloop
endfacet
facet normal -0.3794324994 -0.8141040802 0.4396197796
outer loop
vertex -37.37187958 66.58898163 263.2077942
vertex -37.23920441 66.88646698 263.8731995
vertex -37.77021027 66.89907074 263.4382324

endloop
endfacet
facet normal -0.6942476034 -0.6193723083 -0.3666037321
outer loop
vertex -37.37187958 66.58898163 263.2077942
vertex -37.77021027 66.89907074 263.4382324
vertex -37.35721588 66.81551361 262.7973022

endloop
endfacet
facet normal -0.7027117014 -0.6053115129 -0.3738907576
outer loop
vertex -37.35721588 66.81551361 262.7973022
vertex -37.77021027 66.89907074 263.4382324
vertex -37.82971954 67.17818451 263.0982056

endloop
endfacet
facet normal -0.7061494589 -0.5408117175 -0.4570291042
outer loop
vertex -37.35721588 66.81551361 262.7973022
vertex -37.82971954 67.17818451 263.0982056
vertex -37.34064484 67.11882782 262.4127808

endloop
endfacet
facet normal -0.7066408992 -0.5397982001 -0.4574675262
outer loop
vertex -37.34064484 67.11882782 262.4127808
vertex -37.82971954 67.17818451 263.0982056
vertex -37.85208893 67.49990082 262.7531433

endloop
endfacet
facet normal -0.703317523 -0.4593904316 -0.5424988866
outer loop
vertex -37.34064484 67.11882782 262.4127808
vertex -37.85208893 67.49990082 262.7531433
vertex -37.3037796 67.48937225 262.0512085

endloop
endfacet
facet normal -0.7024765611 -0.4614845514 -0.5418105721
outer loop
vertex -37.3037796 67.48937225 262.0512085
vertex -37.85208893 67.49990082 262.7531433
vertex -37.8167038 67.87090302 262.3912659

endloop
endfacet
facet normal -0.7025370598 -0.4621154964 -0.5411940217
outer loop
vertex -37.3037796 67.48937225 262.0512085
vertex -37.8167038 67.87090302 262.3912659
vertex -37.26415253 67.85604095 261.686676

endloop
endfacet
facet normal -0.701144278 -0.4655811787 -0.5400285721
outer loop
vertex -37.26415253 67.85604095 261.686676
vertex -37.8167038 67.87090302 262.3912659
vertex -37.77716827 68.24324799 262.0189209

endloop
endfacet
facet normal -0.7017464042 -0.4714362323 -0.5341347456
outer loop
vertex -37.26415253 67.85604095 261.686676
vertex -37.77716827 68.24324799 262.0189209
vertex -37.22623444 68.21855927 261.3168945

endloop
endfacet
facet normal -0.7019621134 -0.4709016085 -0.5343227983
outer loop
vertex -37.22623444 68.21855927 261.3168945
vertex -37.77716827 68.24324799 262.0189209
vertex -37.73842621 68.61086273 261.644043

endloop
endfacet
facet normal -0.7029844522 -0.4807592928 -0.524102509
outer loop
vertex -37.22623444 68.21855927 261.3168945
vertex -37.73842621 68.61086273 261.644043
vertex -37.18973541 68.56182098 260.953064

endloop
endfacet
facet normal -0.7036477923 -0.4790814519 -0.5247483253
outer loop
vertex -37.18973541 68.56182098 260.953064
vertex -37.73842621 68.61086273 261.644043
vertex -37.70035553 68.96251678 261.2719421

endloop
endfacet
facet normal -0.7053561211 -0.4956043065 -0.5068027973
outer loop
vertex -37.18973541 68.5618515 260.953064
vertex -37.70037079 68.96251678 261.2719421
vertex -37.15665436 68.8859787 260.5900574

endloop
endfacet
facet normal -0.7074105144 -0.490367353 -0.5090287328
outer loop
vertex -37.15665436 68.8859787 260.5900574
vertex -37.70037079 68.96251678 261.2719421
vertex -37.66434479 69.29763031 260.8990479

endloop
endfacet
facet normal -0.7097905874 -0.5132117271 -0.4825049937
outer loop
vertex -37.15665436 68.8859787 260.5900574
vertex -37.66434479 69.29763031 260.8990479
vertex -37.12859344 69.19017792 260.2252197

endloop
endfacet
facet normal -0.7136536241 -0.50337708 -0.4871447682
outer loop
vertex -37.12859344 69.19017792 260.2252197
vertex -37.66434479 69.29763031 260.8990479
vertex -37.63176727 69.61464691 260.5237427

endloop
endfacet
facet normal -0.716604352 -0.5337452292 -0.448992461
outer loop
vertex -37.12857819 69.19020844 260.2252197
vertex -37.63175201 69.61464691 260.5237427
vertex -37.1085434 69.47478485 259.85495

endloop
endfacet
facet normal -0.722813189 -0.5182814598 -0.4570836127
outer loop
vertex -37.1085434 69.47478485 259.85495
vertex -37.63175201 69.61464691 260.5237427
vertex -37.60541534 69.91307831 260.1437073

endloop
endfacet
facet normal -0.7257179022 -0.5535229445 -0.4085900784
outer loop
vertex -37.1085434 69.47478485 259.85495
vertex -37.60541534 69.91307831 260.1437073
vertex -37.09856415 69.74340057 259.4733276

endloop
endfacet
facet normal -0.7343024611 -0.5330935717 -0.4202513993
outer loop
vertex -37.09856415 69.74340057 259.4733276
vertex -37.60541534 69.91307831 260.1437073
vertex -37.58759308 70.19512177 259.7547913

endloop
endfacet
facet normal -0.7363541722 -0.5716256499 -0.3619760275
outer loop
vertex -37.09856415 69.74340057 259.4733276
vertex -37.58759308 70.19512177 259.7547913
vertex -37.10260773 69.99971771 259.0767822

endloop
endfacet
facet normal -0.7477667928 -0.5462329984 -0.3774577677
outer loop
vertex -37.10260773 69.99971771 259.0767822
vertex -37.58759308 70.19512177 259.7547913
vertex -37.58205414 70.46331024 259.3557129

endloop
endfacet
facet normal -0.7478588223 -0.587849915 -0.3084472418
outer loop
vertex -37.10260773 69.99971771 259.0767822
vertex -37.58205414 70.46331024 259.3557129
vertex -37.12602997 70.2463913 258.6634521

endloop
endfacet
facet normal -0.762521863 -0.5579631329 -0.3274714053
outer loop
vertex -37.12602997 70.2463913 258.6634521
vertex -37.58205414 70.46331024 259.3557129
vertex -37.59391022 70.72014618 258.9457092

endloop
endfacet
facet normal -0.7597924471 -0.5971162319 -0.2572305799
outer loop
vertex -37.12601471 70.24642181 258.6634827
vertex -37.59389496 70.7201767 258.9457397
vertex -37.16928864 70.48854828 258.229248

endloop
endfacet
facet normal -0.7756078243 -0.5676068068 -0.2761429548
outer loop
vertex -37.16928864 70.48854828 258.229248
vertex -37.59389496 70.7201767 258.9457397
vertex -37.62491608 70.96993256 258.5195007

endloop
endfacet
facet normal -0.7700392008 -0.6027548909 -0.2091083676
outer loop
vertex -37.16928864 70.48854828 258.229248
vertex -37.62491608 70.96993256 258.5195007
vertex -37.23427582 70.72805023 257.7781982

endloop
endfacet
facet normal -0.7855325937 -0.5760847926 -0.2259751409
outer loop
vertex -37.23427582 70.72805023 257.7781982
vertex -37.62491608 70.96993256 258.5195007
vertex -37.67763519 71.21437836 258.0795898

endloop
endfacet
facet normal -0.7794891 -0.6008552909 -0.1771150529
outer loop
vertex -37.23427582 70.72805023 257.7781982
vertex -37.67763519 71.21437836 258.0795898
vertex -37.31621552 70.97173309 257.3121338

endloop
endfacet
facet normal -0.7992163301 -0.5679029226 -0.1968237162
outer loop
vertex -37.31621552 70.97173309 257.3121338
vertex -37.67763519 71.21437836 258.0795898
vertex -37.74399567 71.46517181 257.6254272

endloop
endfacet
facet normal -0.8038412929 -0.5437726974 -0.241144076
outer loop
vertex -37.31621552 70.97173309 257.3121338
vertex -37.74399567 71.46517181 257.6254272
vertex -37.36733246 71.26815033 256.8141174

endloop
endfacet
facet normal -0.8421384096 -0.4615425169 -0.2788931727
outer loop
vertex -37.36733246 71.26815033 256.8141174
vertex -37.74399567 71.46517181 257.6254272
vertex -37.75691986 71.79964447 257.1109314

endloop
endfacet
facet normal -0.8353856802 -0.4045053422 -0.3721641898
outer loop
vertex -37.36733246 71.26815033 256.8141174
vertex -37.75691986 71.79964447 257.1109314
vertex -37.3314743 71.60124969 256.371582

endloop
endfacet
facet normal -0.852381587 -0.3366297483 -0.40015769
outer loop
vertex -37.3314743 71.60124969 256.371582
vertex -37.75691986 71.79964447 257.1109314
vertex -37.66580963 72.13420868 256.6354065

endloop
endfacet
facet normal -0.8430157304 -0.3118856549 -0.4382370412
outer loop
vertex -37.3314743 71.60124969 256.3715515
vertex -37.66582489 72.1342392 256.6354065
vertex -37.26515961 71.89043427 256.0381775

endloop
endfacet
facet normal -0.8425889015 -0.3154751658 -0.4364853501
outer loop
vertex -37.26515961 71.89043427 256.0381775
vertex -37.66582489 72.1342392 256.6354065
vertex -37.5573349 72.34157562 256.276123

endloop
endfacet
facet normal -0.1998905241 0.352689296 -0.9141411185
outer loop
vertex -37.26515961 71.89043427 256.0381775
vertex -37.5573349 72.34157562 256.276123
vertex -36.92139435 72.49895477 256.1977844

endloop
endfacet
facet normal -nan(ind) -nan(ind) -nan(ind)
outer loop
vertex -36.92139435 72.49895477 256.1977844
vertex -37.5573349 72.34157562 256.276123
vertex -36.92139435 72.49895477 256.1977844

endloop
endfacet
facet normal 0.584017694 0.4091030955 -0.7011119723
outer loop
vertex -37.23920441 66.88646698 263.8731995
vertex -37.23921967 66.88643646 263.8731689
vertex -37.77021027 66.89907074 263.4382324

endloop
endfacet
facet normal -0.4999151528 -0.6321976781 0.5919551253
outer loop
vertex -37.77021027 66.89907074 263.4382324
vertex -37.23921967 66.88643646 263.8731689
vertex -37.82637787 67.12322235 263.630188

endloop
endfacet
facet normal -0.973298192 -0.2288735658 -0.01753241941
outer loop
vertex -37.77021027 66.89907074 263.4382324
vertex -37.82637787 67.12322235 263.630188
vertex -37.82971954 67.17818451 263.0982056

endloop
endfacet
facet normal -0.9805477262 -0.1957761049 -0.01406739373
outer loop
vertex -37.82971954 67.17818451 263.0982056
vertex -37.82637787 67.12322235 263.630188
vertex -37.88327789 67.42943573 263.3347473

endloop
endfacet
facet normal -0.9870512486 -0.1441334188 -0.07039408386
outer loop
vertex -37.82971954 67.17818451 263.0982056
vertex -37.88327789 67.42943573 263.3347473
vertex -37.85208893 67.49990082 262.7531433

endloop
endfacet
facet normal -0.9869830608 -0.1445754766 -0.07044398785
outer loop
vertex -37.85208893 67.49990082 262.7531433
vertex -37.88327789 67.42943573 263.3347473
vertex -37.90962982 67.76372528 263.0178833

endloop
endfacet
facet normal -0.9860032797 -0.05831218511 -0.1561959833
outer loop
vertex -37.85208893 67.49990082 262.7531433
vertex -37.90962982 67.76372528 263.0178833
vertex -37.8167038 67.87090302 262.3912659

endloop
endfacet
facet normal -0.9858492613 -0.06012011692 -0.1564823836
outer loop
vertex -37.8167038 67.87090302 262.3912659
vertex -37.90962982 67.76372528 263.0178833
vertex -37.87488556 68.1349411 262.6563721

endloop
endfacet
facet normal -0.9854393005 -0.05593093485 -0.1605647057
outer loop
vertex -37.8167038 67.87090302 262.3912659
vertex -37.87488556 68.1349411 262.6563721
vertex -37.77716827 68.24324799 262.0189209

endloop
endfacet
facet normal -0.9851981401 -0.0588083677 -0.1610166132
outer loop
vertex -37.77716827 68.24324799 262.0189209
vertex -37.87488556 68.1349411 262.6563721
vertex -37.83576202 68.51119232 262.2795715

endloop
endfacet
facet normal -0.9852776527 -0.05957566202 -0.1602457017
outer loop
vertex -37.77716827 68.24324799 262.0189209
vertex -37.83576202 68.51119232 262.2795715
vertex -37.73842621 68.61086273 261.644043

endloop
endfacet
facet normal -0.985319972 -0.05906903371 -0.1601727456
outer loop
vertex -37.73842621 68.61086273 261.644043
vertex -37.83576202 68.51119232 262.2795715
vertex -37.7964859 68.88240814 261.901062

endloop
endfacet
facet normal -0.9855087399 -0.06084864214 -0.158335194
outer loop
vertex -37.73842621 68.61086273 261.644043
vertex -37.7964859 68.88240814 261.901062
vertex -37.70035553 68.96251678 261.2719421

endloop
endfacet
facet normal -0.9856160879 -0.05949801952 -0.1581796408
outer loop
vertex -37.70035553 68.96251678 261.2719421
vertex -37.7964859 68.88240814 261.901062
vertex -37.75734711 69.23986053 261.5227356

endloop
endfacet
facet normal -0.9861357212 -0.06423889101 -0.153002739
outer loop
vertex -37.70037079 68.96251678 261.2719421
vertex -37.75734711 69.23983002 261.5227356
vertex -37.66434479 69.29763031 260.8990479

endloop
endfacet
facet normal -0.9864450693 -0.06014963239 -0.1526698917
outer loop
vertex -37.66434479 69.29763031 260.8990479
vertex -37.75734711 69.23983002 261.5227356
vertex -37.71923065 69.58257294 261.1414185

endloop
endfacet
facet normal -0.9873164296 -0.06824612617 -0.1433486044
outer loop
vertex -37.66434479 69.29763031 260.8990479
vertex -37.71923065 69.58257294 261.1414185
vertex -37.63176727 69.61464691 260.5237427

endloop
endfacet
facet normal -0.9878834486 -0.0602751933 -0.1430149823
outer loop
vertex -37.63176727 69.61464691 260.5237427
vertex -37.71923065 69.58257294 261.1414185
vertex -37.6832962 69.90843964 260.7558594

endloop
endfacet
facet normal -0.9892396331 -0.07366751879 -0.1264039576
outer loop
vertex -37.63175201 69.61464691 260.5237427
vertex -37.6832962 69.90847015 260.7558899
vertex -37.60541534 69.91307831 260.1437073

endloop
endfacet
facet normal -0.9900972247 -0.06104053929 -0.1264179945
outer loop
vertex -37.60541534 69.91307831 260.1437073
vertex -37.6832962 69.90847015 260.7558899
vertex -37.65225983 70.21639252 260.3641357

endloop
endfacet
facet normal -0.9916186333 -0.07866505533 -0.102489613
outer loop
vertex -37.60541534 69.91307831 260.1437073
vertex -37.65225983 70.21639252 260.3641357
vertex -37.58759308 70.19512177 259.7547913

endloop
endfacet
facet normal -0.9927537441 -0.06154929101 -0.1032075584
outer loop
vertex -37.58759308 70.19512177 259.7547913
vertex -37.65225983 70.21639252 260.3641357
vertex -37.62863922 70.50771332 259.9631958

endloop
endfacet
facet normal -0.9940148592 -0.08378618956 -0.07010222226
outer loop
vertex -37.58759308 70.19512177 259.7547913
vertex -37.62863922 70.50771332 259.9631958
vertex -37.58205414 70.46331024 259.3557129

endloop
endfacet
facet normal -0.9954937696 -0.06192748249 -0.07181335986
outer loop
vertex -37.58205414 70.46331024 259.3557129
vertex -37.62863922 70.50771332 259.9631958
vertex -37.61621857 70.78414154 259.5526428

endloop
endfacet
facet normal -0.9956302643 -0.08934155107 -0.02717500366
outer loop
vertex -37.58205414 70.46331024 259.3557129
vertex -37.61621857 70.78414154 259.5526428
vertex -37.59391022 70.72014618 258.9457092

endloop
endfacet
facet normal -0.9975917935 -0.06249824166 -0.03007747233
outer loop
vertex -37.59391022 70.72014618 258.9457092
vertex -37.61621857 70.78414154 259.5526428
vertex -37.62007904 71.04802704 259.1323547

endloop
endfacet
facet normal -0.9957047105 -0.09052538872 0.01942249946
outer loop
vertex -37.59389496 70.7201767 258.9457397
vertex -37.62006378 71.04805756 259.1323853
vertex -37.62491608 70.96993256 258.5195007

endloop
endfacet
facet normal -0.9978852272 -0.0630178228 0.015933346
outer loop
vertex -37.62491608 70.96993256 258.5195007
vertex -37.62006378 71.04805756 259.1323853
vertex -37.64310455 71.30309296 258.6980591

endloop
endfacet
facet normal -0.9934946299 -0.09096036851 0.06851677597
outer loop
vertex -37.62491608 70.96993256 258.5195007
vertex -37.64310455 71.30309296 258.6980591
vertex -37.67763519 71.21437836 258.0795898

endloop
endfacet
facet normal -0.9957188368 -0.06570134312 0.0650177449
outer loop
vertex -37.67763519 71.21437836 258.0795898
vertex -37.64310455 71.30309296 258.6980591
vertex -37.68854523 71.55095673 258.2526245

endloop
endfacet
facet normal -0.9916127324 -0.08305285126 0.09902791679
outer loop
vertex -37.67763519 71.21437836 258.0795898
vertex -37.68854523 71.55095673 258.2526245
vertex -37.74399567 71.46517181 257.6254272

endloop
endfacet
facet normal -0.9940397739 -0.0531943813 0.09515859932
outer loop
vertex -37.74399567 71.46517181 257.6254272
vertex -37.68854523 71.55095673 258.2526245
vertex -37.74588776 71.80400848 257.7950745

endloop
endfacet
facet normal -0.999774754 -0.01369835902 0.0162091814
outer loop
vertex -37.74399567 71.46517181 257.6254272
vertex -37.74588776 71.80400848 257.7950745
vertex -37.75691986 71.79964447 257.1109314

endloop
endfacet
facet normal -0.9982239008 0.05745969713 0.01573027112
outer loop
vertex -37.75691986 71.79964447 257.1109314
vertex -37.74588776 71.80400848 257.7950745
vertex -37.73491669 72.13341522 257.2880249

endloop
endfacet
facet normal -0.9872130752 0.120468542 -0.104391478
outer loop
vertex -37.75691986 71.79964447 257.1109314
vertex -37.73491669 72.13341522 257.2880249
vertex -37.66580963 72.13420868 256.6354065

endloop
endfacet
facet normal -0.9754651785 0.1945426762 -0.1030574217
outer loop
vertex -37.66580963 72.13420868 256.6354065
vertex -37.73491669 72.13341522 257.2880249
vertex -37.62444305 72.43828583 256.8178711

endloop
endfacet
facet normal -0.9608769417 0.2264713794 -0.1594556272
outer loop
vertex -37.66582489 72.1342392 256.6354065
vertex -37.62444305 72.43828583 256.8178711
vertex -37.5573349 72.34157562 256.276123

endloop
endfacet
facet normal -0.9663126469 0.2045412362 -0.1562140882
outer loop
vertex -37.5573349 72.34157562 256.276123
vertex -37.62444305 72.43828583 256.8178711
vertex -37.52921295 72.60695648 256.449646

endloop
endfacet
facet normal -0.234725669 0.5492721796 -0.8019999266
outer loop
vertex -37.5573349 72.34157562 256.276123
vertex -37.52921295 72.60695648 256.449646
vertex -36.92139435 72.49895477 256.1977844

endloop
endfacet
facet normal 0 -0.9192371368 0.3937042654
outer loop
vertex -36.92139435 72.49895477 256.1977844
vertex -37.52921295 72.60695648 256.449646
vertex -36.92140961 72.49895477 256.1977844

endloop
endfacet
facet normal -0.4935765564 -0.4790715873 0.7258598804
outer loop
vertex -37.23921967 66.88643646 263.8731689
vertex -37.23920441 66.88646698 263.8731995
vertex -37.82637787 67.12322235 263.630188

endloop
endfacet
facet normal -0.4914657772 -0.4595450759 0.7397835851
outer loop
vertex -37.82637787 67.12322235 263.630188
vertex -37.23920441 66.88646698 263.8731995
vertex -37.74028778 67.30513763 263.8003845

endloop
endfacet
facet normal -0.9355985522 0.1392004043 0.3244665563
outer loop
vertex -37.82637787 67.12322235 263.630188
vertex -37.74028778 67.30513763 263.8003845
vertex -37.88327789 67.42943573 263.3347473

endloop
endfacet
facet normal -0.9233967066 0.1890946925 0.3340384066
outer loop
vertex -37.88327789 67.42943573 263.3347473
vertex -37.74028778 67.30513763 263.8003845
vertex -37.77144623 67.62404633 263.5337219

endloop
endfacet
facet normal -0.9262911081 0.2181821615 0.3072156012
outer loop
vertex -37.88327789 67.42943573 263.3347473
vertex -37.77144623 67.62404633 263.5337219
vertex -37.90962982 67.76372528 263.0178833

endloop
endfacet
facet normal -0.9263132215 0.2181079239 0.3072014749
outer loop
vertex -37.90962982 67.76372528 263.0178833
vertex -37.77144623 67.62404633 263.5337219
vertex -37.78818512 67.9679184 263.2391052

endloop
endfacet
facet normal -0.9249771833 0.3060128987 0.2253295928
outer loop
vertex -37.90962982 67.76372528 263.0178833
vertex -37.78818512 67.9679184 263.2391052
vertex -37.87488556 68.1349411 262.6563721

endloop
endfacet
facet normal -0.9255931377 0.3044155538 0.2249633968
outer loop
vertex -37.87488556 68.1349411 262.6563721
vertex -37.78818512 67.9679184 263.2391052
vertex -37.75373077 68.33931732 262.8782959

endloop
endfacet
facet normal -0.9247248173 0.3130286336 0.2165572941
outer loop
vertex -37.87488556 68.1349411 262.6563721
vertex -37.75373077 68.33931732 262.8782959
vertex -37.83576202 68.51119232 262.2795715

endloop
endfacet
facet normal -0.9257041812 0.3105275333 0.2159734815
outer loop
vertex -37.83576202 68.51119232 262.2795715
vertex -37.75373077 68.33931732 262.8782959
vertex -37.71508026 68.7186203 262.4985962

endloop
endfacet
facet normal -0.9253101945 0.3142766953 0.2122057229
outer loop
vertex -37.83576202 68.51119232 262.2795715
vertex -37.71508026 68.7186203 262.4985962
vertex -37.7964859 68.88240814 261.901062

endloop
endfacet
facet normal -0.9251106977 0.3147871792 0.2123184651
outer loop
vertex -37.7964859 68.88240814 261.901062
vertex -37.71508026 68.7186203 262.4985962
vertex -37.67539215 69.09255219 262.1171265

endloop
endfacet
facet normal -0.9245297313 0.3201166093 0.2068094313
outer loop
vertex -37.7964859 68.88240814 261.901062
vertex -37.67539215 69.09255219 262.1171265
vertex -37.75734711 69.23986053 261.5227356

endloop
endfacet
facet normal -0.9240643978 0.3213084936 0.2070406526
outer loop
vertex -37.75734711 69.23986053 261.5227356
vertex -37.67539215 69.09255219 262.1171265
vertex -37.6354599 69.45446014 261.7337036

endloop
endfacet
facet normal -0.923481524 0.3266126513 0.2012611628
outer loop
vertex -37.75734711 69.23983002 261.5227356
vertex -37.6354599 69.45446014 261.7337036
vertex -37.71923065 69.58257294 261.1414185

endloop
endfacet
facet normal -0.9220702648 0.3302214146 0.2018421441
outer loop
vertex -37.71923065 69.58257294 261.1414185
vertex -37.6354599 69.45446014 261.7337036
vertex -37.5956955 69.80306244 261.3450317

endloop
endfacet
facet normal -0.9215866923 0.334549576 0.1968618035
outer loop
vertex -37.71923065 69.58257294 261.1414185
vertex -37.5956955 69.80306244 261.3450317
vertex -37.6832962 69.90843964 260.7558594

endloop
endfacet
facet normal -0.9188446403 0.3415239751 0.1977015287
outer loop
vertex -37.6832962 69.90843964 260.7558594
vertex -37.5956955 69.80306244 261.3450317
vertex -37.55706024 70.13576508 260.9498596

endloop
endfacet
facet normal -0.9187134504 0.3425775468 0.1964848191
outer loop
vertex -37.6832962 69.90847015 260.7558899
vertex -37.55704498 70.13579559 260.9498596
vertex -37.65225983 70.21639252 260.3641357

endloop
endfacet
facet normal -0.9144218564 0.3534303904 0.197280556
outer loop
vertex -37.65225983 70.21639252 260.3641357
vertex -37.55704498 70.13579559 260.9498596
vertex -37.52222443 70.45113373 260.5463257

endloop
endfacet
facet normal -0.9146667719 0.3507210314 0.200946182
outer loop
vertex -37.65225983 70.21639252 260.3641357
vertex -37.52222443 70.45113373 260.5463257
vertex -37.62863922 70.50771332 259.9631958

endloop
endfacet
facet normal -0.9087253809 0.3656401932 0.2013095319
outer loop
vertex -37.62863922 70.50771332 259.9631958
vertex -37.52222443 70.45113373 260.5463257
vertex -37.49388885 70.74962616 260.1320801

endloop
endfacet
facet normal -0.9092110395 0.3575743735 0.2132505924
outer loop
vertex -37.62863922 70.50771332 259.9631958
vertex -37.49388885 70.74962616 260.1320801
vertex -37.61621857 70.78414154 259.5526428

endloop
endfacet
facet normal -0.9015101194 0.3768388033 0.2127722949
outer loop
vertex -37.61621857 70.78414154 259.5526428
vertex -37.49388885 70.74962616 260.1320801
vertex -37.47592926 71.03246307 259.7072449

endloop
endfacet
facet normal -0.9016313553 0.3625131547 0.2358922362
outer loop
vertex -37.61621857 70.78414154 259.5526428
vertex -37.47592926 71.03246307 259.7072449
vertex -37.62007904 71.04802704 259.1323547

endloop
endfacet
facet normal -0.8922100067 0.3861677647 0.2341702729
outer loop
vertex -37.62007904 71.04802704 259.1323547
vertex -37.47592926 71.03246307 259.7072449
vertex -37.47360992 71.30175018 259.2720032

endloop
endfacet
facet normal -0.8911011219 0.3691041172 0.2640095949
outer loop
vertex -37.62006378 71.04805756 259.1323853
vertex -37.47359467 71.3017807 259.2720337
vertex -37.64310455 71.30309296 258.6980591

endloop
endfacet
facet normal -0.8814906478 0.3933633268 0.2612268627
outer loop
vertex -37.64310455 71.30309296 258.6980591
vertex -37.47359467 71.3017807 259.2720337
vertex -37.49079132 71.56093597 258.823761

endloop
endfacet
facet normal -0.8784503937 0.3738210201 0.2976285815
outer loop
vertex -37.64310455 71.30309296 258.6980591
vertex -37.49079132 71.56093597 258.823761
vertex -37.68854523 71.55095673 258.2526245

endloop
endfacet
facet normal -0.869687736 0.3963445723 0.2942010164
outer loop
vertex -37.68854523 71.55095673 258.2526245
vertex -37.49079132 71.56093597 258.823761
vertex -37.53127289 71.81142426 258.3666382

endloop
endfacet
facet normal -0.8664446473 0.3829312623 0.3203705549
outer loop
vertex -37.68854523 71.55095673 258.2526245
vertex -37.53127289 71.81142426 258.3666382
vertex -37.74588776 71.80400848 257.7950745

endloop
endfacet
facet normal -0.8561454415 0.4087202549 0.3161687255
outer loop
vertex -37.74588776 71.80400848 257.7950745
vertex -37.53127289 71.81142426 258.3666382
vertex -37.58266449 72.06475067 257.8999939

endloop
endfacet
facet normal -0.8618277907 0.4336433709 0.2630706728
outer loop
vertex -37.74588776 71.80400848 257.7950745
vertex -37.58266449 72.06475067 257.8999939
vertex -37.73491669 72.13341522 257.2880249

endloop
endfacet
facet normal -0.8297770023 0.4929085374 0.2617464364
outer loop
vertex -37.73491669 72.13341522 257.2880249
vertex -37.58266449 72.06475067 257.8999939
vertex -37.55457306 72.37264252 257.4092407

endloop
endfacet
facet normal -0.8252882957 0.5422458649 0.1576978117
outer loop
vertex -37.73491669 72.13341522 257.2880249
vertex -37.55457306 72.37264252 257.4092407
vertex -37.62444305 72.43828583 256.8178711

endloop
endfacet
facet normal -0.7771992683 0.6087315679 0.1593961865
outer loop
vertex -37.62444305 72.43828583 256.8178711
vertex -37.55457306 72.37264252 257.4092407
vertex -37.43953705 72.63738251 256.9591064

endloop
endfacet
facet normal -0.7623643279 0.6399888992 0.09599375725
outer loop
vertex -37.62444305 72.43828583 256.8178711
vertex -37.43952179 72.63738251 256.9591064
vertex -37.52921295 72.60695648 256.449646

endloop
endfacet
facet normal -0.7856205106 0.6102657914 0.1018631607
outer loop
vertex -37.52921295 72.60695648 256.449646
vertex -37.43952179 72.63738251 256.9591064
vertex -37.37039948 72.78774261 256.5914001

endloop
endfacet
facet normal -0.1664575785 0.6948227286 -0.6996522546
outer loop
vertex -37.52921295 72.60695648 256.449646
vertex -37.37039948 72.78774261 256.5914001
vertex -36.92140961 72.49895477 256.1977844

endloop
endfacet
facet normal 0 0.8059597015 -0.5919703841
outer loop
vertex -36.92140961 72.49895477 256.1977844
vertex -37.37039948 72.78774261 256.5914001
vertex -36.92139435 72.49895477 256.1977844

endloop
endfacet
facet normal -nan(ind) -nan(ind) -nan(ind)
outer loop
vertex -37.23920441 66.88646698 263.8731995
vertex -37.23920441 66.88646698 263.8731995
vertex -37.74028778 67.30513763 263.8003845

endloop
endfacet
facet normal -0.3916862905 -0.3186683357 0.8631525636
outer loop
vertex -37.74028778 67.30513763 263.8003845
vertex -37.23920441 66.88646698 263.8731995
vertex -37.52700043 67.44768524 263.9497986

endloop
endfacet
facet normal -0.6921839714 0.4219631255 0.5855155587
outer loop
vertex -37.74028778 67.30513763 263.8003845
vertex -37.52700043 67.44768524 263.9497986
vertex -37.77144623 67.62404633 263.5337219

endloop
endfacet
facet normal -0.667347908 0.4588864446 0.5865748525
outer loop
vertex -37.77144623 67.62404633 263.5337219
vertex -37.52700043 67.44768524 263.9497986
vertex -37.52005768 67.77309418 263.703125

endloop
endfacet
facet normal -0.6675673723 0.465416342 0.5811552405
outer loop
vertex -37.77144623 67.62404633 263.5337219
vertex -37.52005768 67.77309418 263.703125
vertex -37.78818512 67.9679184 263.2391052

endloop
endfacet
facet normal -0.6667148471 0.4666206539 0.5811681747
outer loop
vertex -37.78818512 67.9679184 263.2391052
vertex -37.52005768 67.77309418 263.703125
vertex -37.51576996 68.12422943 263.4261169

endloop
endfacet
facet normal -0.6634589434 0.5521159768 0.5049654245
outer loop
vertex -37.78818512 67.9679184 263.2391052
vertex -37.51576996 68.12422943 263.4261169
vertex -37.75373077 68.33931732 262.8782959

endloop
endfacet
facet normal -0.6646855474 0.5506705642 0.5049307346
outer loop
vertex -37.75373077 68.33931732 262.8782959
vertex -37.51576996 68.12422943 263.4261169
vertex -37.48134613 68.49578094 263.0662231

endloop
endfacet
facet normal -0.6635400653 0.5619826913 0.4938521981
outer loop
vertex -37.75373077 68.33931732 262.8782959
vertex -37.48134613 68.49578094 263.0662231
vertex -37.71508026 68.7186203 262.4985962

endloop
endfacet
facet normal -0.665405333 0.5598380566 0.493778348
outer loop
vertex -37.71508026 68.7186203 262.4985962
vertex -37.48134613 68.49578094 263.0662231
vertex -37.44327545 68.87743378 262.6848145

endloop
endfacet
facet normal -0.6646553278 0.5669620037 0.486608088
outer loop
vertex -37.71508026 68.7186203 262.4985962
vertex -37.44327545 68.87743378 262.6848145
vertex -37.67539215 69.09255219 262.1171265

endloop
endfacet
facet normal -0.6643419266 0.5673220754 0.4866163731
outer loop
vertex -37.67539215 69.09255219 262.1171265
vertex -37.44327545 68.87743378 262.6848145
vertex -37.40329742 69.25344086 262.3010254

endloop
endfacet
facet normal -0.6632207036 0.5775167942 0.4760384262
outer loop
vertex -37.67539215 69.09255219 262.1171265
vertex -37.40329742 69.25344086 262.3010254
vertex -37.6354599 69.45446014 261.7337036

endloop
endfacet
facet normal -0.6622824669 0.5785942674 0.4760362804
outer loop
vertex -37.6354599 69.45446014 261.7337036
vertex -37.40329742 69.25344086 262.3010254
vertex -37.36275482 69.6187973 261.9133606

endloop
endfacet
facet normal -0.6608721614 0.5910490751 0.4625028968
outer loop
vertex -37.6354599 69.45446014 261.7337036
vertex -37.36275482 69.6187973 261.9133606
vertex -37.5956955 69.80306244 261.3450317

endloop
endfacet
facet normal -0.6582129002 0.5940900445 0.4623988867
outer loop
vertex -37.5956955 69.80306244 261.3450317
vertex -37.36275482 69.6187973 261.9133606
vertex -37.32164764 69.9719162 261.5181885

endloop
endfacet
facet normal -0.6567023396 0.6073188782 0.4471082687
outer loop
vertex -37.5956955 69.80306244 261.3450317
vertex -37.32164764 69.9719162 261.5181885
vertex -37.55706024 70.13576508 260.9498596

endloop
endfacet
facet normal -0.6516260505 0.6130836606 0.4466675222
outer loop
vertex -37.55706024 70.13576508 260.9498596
vertex -37.32164764 69.9719162 261.5181885
vertex -37.28084564 70.30983734 261.1138916

endloop
endfacet
facet normal -0.6503706574 0.6247538924 0.4320886731
outer loop
vertex -37.55704498 70.13579559 260.9498596
vertex -37.28083038 70.30986786 261.1139221
vertex -37.52222443 70.45113373 260.5463257

endloop
endfacet
facet normal -0.6422817111 0.633865416 0.4309162498
outer loop
vertex -37.52222443 70.45113373 260.5463257
vertex -37.28083038 70.30986786 261.1139221
vertex -37.24292755 70.63082123 260.6983032

endloop
endfacet
facet normal -0.6414535046 0.6425510049 0.4191249311
outer loop
vertex -37.52222443 70.45113373 260.5463257
vertex -37.24292755 70.63082123 260.6983032
vertex -37.49388885 70.74962616 260.1320801

endloop
endfacet
facet normal -0.63054353 0.6547191739 0.4168424904
outer loop
vertex -37.49388885 70.74962616 260.1320801
vertex -37.24292755 70.63082123 260.6983032
vertex -37.21070099 70.93480682 260.2695923

endloop
endfacet
facet normal -0.6303082108 0.6582571864 0.4115934074
outer loop
vertex -37.49388885 70.74962616 260.1320801
vertex -37.21070099 70.93480682 260.2695923
vertex -37.47592926 71.03246307 259.7072449

endloop
endfacet
facet normal -0.6163592935 0.6737089157 0.4076978266
outer loop
vertex -37.47592926 71.03246307 259.7072449
vertex -37.21070099 70.93480682 260.2695923
vertex -37.1883316 71.22255707 259.8279114

endloop
endfacet
facet normal -0.6164032817 0.6710923314 0.4119247794
outer loop
vertex -37.47592926 71.03246307 259.7072449
vertex -37.1883316 71.22255707 259.8279114
vertex -37.47360992 71.30175018 259.2720032

endloop
endfacet
facet normal -0.5995393991 0.6897628903 0.4059304297
outer loop
vertex -37.47360992 71.30175018 259.2720032
vertex -37.1883316 71.22255707 259.8279114
vertex -37.18132782 71.49599457 259.3736267

endloop
endfacet
facet normal -0.5991549492 0.6829641461 0.4178197682
outer loop
vertex -37.47359467 71.3017807 259.2720337
vertex -37.18131256 71.49602509 259.3736572
vertex -37.49079132 71.56093597 258.823761

endloop
endfacet
facet normal -0.5819245577 0.7021042705 0.410381943
outer loop
vertex -37.49079132 71.56093597 258.823761
vertex -37.18131256 71.49602509 259.3736572
vertex -37.19437408 71.75829315 258.9064331

endloop
endfacet
facet normal -0.5803550482 0.6914168 0.4302683473
outer loop
vertex -37.49079132 71.56093597 258.823761
vertex -37.19437408 71.75829315 258.9064331
vertex -37.53127289 71.81142426 258.3666382

endloop
endfacet
facet normal -0.5647250414 0.709076345 0.4222515225
outer loop
vertex -37.53127289 71.81142426 258.3666382
vertex -37.19437408 71.75829315 258.9064331
vertex -37.23177338 72.01082611 258.4323425

endloop
endfacet
facet normal -0.5623531342 0.6991739869 0.4414914548
outer loop
vertex -37.53127289 71.81142426 258.3666382
vertex -37.23177338 72.01082611 258.4323425
vertex -37.58266449 72.06475067 257.8999939

endloop
endfacet
facet normal -0.5438808799 0.7197811604 0.4314030707
outer loop
vertex -37.58266449 72.06475067 257.8999939
vertex -37.23177338 72.01082611 258.4323425
vertex -37.27962494 72.26274872 257.9516907

endloop
endfacet
facet normal -0.5451056957 0.7238653302 0.4229406118
outer loop
vertex -37.58266449 72.06475067 257.8999939
vertex -37.27962494 72.26274872 257.9516907
vertex -37.55457306 72.37264252 257.4092407

endloop
endfacet
facet normal -0.4945985973 0.7682843208 0.4063391089
outer loop
vertex -37.55457306 72.37264252 257.4092407
vertex -37.27962494 72.26274872 257.9516907
vertex -37.23992157 72.53520966 257.4848633

endloop
endfacet
facet normal -0.494923234 0.798350513 0.3430560827
outer loop
vertex -37.55457306 72.37264252 257.4092407
vertex -37.23992157 72.53520966 257.4848633
vertex -37.43953705 72.63738251 256.9591064

endloop
endfacet
facet normal -0.425513804 0.844332397 0.3256391287
outer loop
vertex -37.43953705 72.63738251 256.9591064
vertex -37.23992157 72.53520966 257.4848633
vertex -37.13251495 72.75048065 257.0670471

endloop
endfacet
facet normal -0.4161218107 0.8663923144 0.2760560215
outer loop
vertex -37.43952179 72.63738251 256.9591064
vertex -37.13249969 72.75045013 257.0670471
vertex -37.37039948 72.78774261 256.5914001

endloop
endfacet
facet normal -0.4368889034 0.8530399203 0.2853960395
outer loop
vertex -37.37039948 72.78774261 256.5914001
vertex -37.13249969 72.75045013 257.0670471
vertex -37.09523773 72.8911972 256.7033997

endloop
endfacet
facet normal -0.04133322835 0.7825117111 -0.6212624907
outer loop
vertex -37.37039948 72.78774261 256.5914001
vertex -37.09523773 72.8911972 256.7033997
vertex -36.92139435 72.49895477 256.1977844

endloop
endfacet
facet normal 0.9141628742 0.4053471088 0
outer loop
vertex -36.92139435 72.49895477 256.1977844
vertex -37.09523773 72.8911972 256.7033997
vertex -36.92139435 72.49895477 256.1978149

endloop
endfacet
facet normal -nan(ind) -nan(ind) -nan(ind)
outer loop
vertex -37.23920441 66.88646698 263.8731995
vertex -37.23920441 66.88646698 263.8731995
vertex -37.52700043 67.44768524 263.9497986

endloop
endfacet
facet normal -0.1874363273 -0.2265714407 0.9557891488
outer loop
vertex -37.52700043 67.44768524 263.9497986
vertex -37.23920441 66.88646698 263.8731995
vertex -37.2022934 67.49086761 264.0237122

endloop
endfacet
facet normal -0.2530811429 0.5878507495 0.7683627605
outer loop
vertex -37.52700043 67.44768524 263.9497986
vertex -37.2022934 67.49086761 264.0237122
vertex -37.52005768 67.77309418 263.703125

endloop
endfacet
facet normal -0.2226328105 0.6116634011 0.7591459155
outer loop
vertex -37.52005768 67.77309418 263.703125
vertex -37.2022934 67.49086761 264.0237122
vertex -37.14736176 67.81322479 263.7800903

endloop
endfacet
facet normal -0.222968936 0.605447948 0.7640141845
outer loop
vertex -37.52005768 67.77309418 263.703125
vertex -37.14736176 67.81322479 263.7800903
vertex -37.51576996 68.12422943 263.4261169

endloop
endfacet
facet normal -0.2197660357 0.6079950929 0.7629187107
outer loop
vertex -37.51576996 68.12422943 263.4261169
vertex -37.14736176 67.81322479 263.7800903
vertex -37.1122818 68.16622162 263.5088806

endloop
endfacet
facet normal -0.213679269 0.6898215413 0.6917278767
outer loop
vertex -37.51576996 68.12422943 263.4261169
vertex -37.1122818 68.16622162 263.5088806
vertex -37.48134613 68.49578094 263.0662231

endloop
endfacet
facet normal -0.2153395563 0.6887305379 0.6922999024
outer loop
vertex -37.48134613 68.49578094 263.0662231
vertex -37.1122818 68.16622162 263.5088806
vertex -37.07743073 68.53783417 263.1500244

endloop
endfacet
facet normal -0.2141094208 0.7010909319 0.6801681519
outer loop
vertex -37.48134613 68.49578094 263.0662231
vertex -37.07743073 68.53783417 263.1500244
vertex -37.44327545 68.87743378 262.6848145

endloop
endfacet
facet normal -0.2164901942 0.6995984316 0.6809508801
outer loop
vertex -37.44327545 68.87743378 262.6848145
vertex -37.07743073 68.53783417 263.1500244
vertex -37.0398941 68.92012787 262.7691956

endloop
endfacet
facet normal -0.2155404389 0.7086513638 0.6718300581
outer loop
vertex -37.44327545 68.87743378 262.6848145
vertex -37.0398941 68.92012787 262.7691956
vertex -37.40329742 69.25344086 262.3010254

endloop
endfacet
facet normal -0.2150430977 0.7089599371 0.6716637611
outer loop
vertex -37.40329742 69.25344086 262.3010254
vertex -37.0398941 68.92012787 262.7691956
vertex -36.99983978 69.29671478 262.3845215

endloop
endfacet
facet normal -0.2136331946 0.7219880819 0.6580988169
outer loop
vertex -37.40329742 69.25344086 262.3010254
vertex -36.99983978 69.29671478 262.3845215
vertex -37.36275482 69.6187973 261.9133606

endloop
endfacet
facet normal -0.2124519646 0.7227134705 0.657684803
outer loop
vertex -37.36275482 69.6187973 261.9133606
vertex -36.99983978 69.29671478 262.3845215
vertex -36.95915985 69.66295624 261.9952087

endloop
endfacet
facet normal -0.2105475962 0.7397339344 0.6391114593
outer loop
vertex -37.36275482 69.6187973 261.9133606
vertex -36.95915985 69.66295624 261.9952087
vertex -37.32164764 69.9719162 261.5181885

endloop
endfacet
facet normal -0.2070413679 0.7418418527 0.6378123164
outer loop
vertex -37.32164764 69.9719162 261.5181885
vertex -36.95915985 69.66295624 261.9952087
vertex -36.91762543 70.01729584 261.5965576

endloop
endfacet
facet normal -0.204865694 0.7610815167 0.6154551506
outer loop
vertex -37.32164764 69.9719162 261.5181885
vertex -36.91762543 70.01729584 261.5965576
vertex -37.28084564 70.30983734 261.1138916

endloop
endfacet
facet normal -0.1983671933 0.7648813128 0.6128678918
outer loop
vertex -37.28084564 70.30983734 261.1138916
vertex -36.91762543 70.01729584 261.5965576
vertex -36.87602997 70.35665131 261.1864929

endloop
endfacet
facet normal -0.1961547136 0.7846720815 0.5880587697
outer loop
vertex -37.28083038 70.30986786 261.1139221
vertex -36.87602997 70.35665131 261.1865234
vertex -37.24292755 70.63082123 260.6983032

endloop
endfacet
facet normal -0.1859658062 0.7904331088 0.5836369991
outer loop
vertex -37.24292755 70.63082123 260.6983032
vertex -36.87602997 70.35665131 261.1865234
vertex -36.83690643 70.67916107 260.762207

endloop
endfacet
facet normal -0.1842511892 0.8082572818 0.5592598915
outer loop
vertex -37.24292755 70.63082123 260.6983032
vertex -36.83690643 70.67916107 260.762207
vertex -37.21070099 70.93480682 260.2695923

endloop
endfacet
facet normal -0.1703573465 0.8158213496 0.5526425838
outer loop
vertex -37.21070099 70.93480682 260.2695923
vertex -36.83690643 70.67916107 260.762207
vertex -36.80319977 70.98461151 260.3216858

endloop
endfacet
facet normal -0.1694025546 0.8296653032 0.5319382548
outer loop
vertex -37.21070099 70.93480682 260.2695923
vertex -36.80319977 70.98461151 260.3216858
vertex -37.1883316 71.22255707 259.8279114

endloop
endfacet
facet normal -0.151836291 0.8388956785 0.522685051
outer loop
vertex -37.1883316 71.22255707 259.8279114
vertex -36.80319977 70.98461151 260.3216858
vertex -36.77931976 71.27367401 259.8646851

endloop
endfacet
facet normal -0.1516419947 0.8478940129 0.5080161691
outer loop
vertex -37.1883316 71.22255707 259.8279114
vertex -36.77931976 71.27367401 259.8646851
vertex -37.18132782 71.49599457 259.3736267

endloop
endfacet
facet normal -0.1306950748 0.8585960865 0.4957130551
outer loop
vertex -37.18132782 71.49599457 259.3736267
vertex -36.77931976 71.27367401 259.8646851
vertex -36.77108002 71.54824066 259.3912964

endloop
endfacet
facet normal -0.1309182793 0.8629382849 0.4880551994
outer loop
vertex -37.18131256 71.49602509 259.3736572
vertex -36.77106476 71.54827118 259.3913269
vertex -37.19437408 71.75829315 258.9064331

endloop
endfacet
facet normal -0.1098096222 0.8735333681 0.474216491
outer loop
vertex -37.19437408 71.75829315 258.9064331
vertex -36.77106476 71.54827118 259.3913269
vertex -36.78366852 71.81136322 258.9037781

endloop
endfacet
facet normal -0.1098242477 0.8736370206 0.4740222394
outer loop
vertex -37.19437408 71.75829315 258.9064331
vertex -36.78366852 71.81136322 258.9037781
vertex -37.23177338 72.01082611 258.4323425

endloop
endfacet
facet normal -0.09080361575 0.8832569122 0.4600130618
outer loop
vertex -37.23177338 72.01082611 258.4323425
vertex -36.78366852 71.81136322 258.9037781
vertex -36.82152557 72.0644455 258.4103699

endloop
endfacet
facet normal -0.08967531472 0.878448844 0.4693464339
outer loop
vertex -37.23177338 72.01082611 258.4323425
vertex -36.82152557 72.0644455 258.4103699
vertex -37.27962494 72.26274872 257.9516907

endloop
endfacet
facet normal -0.06665255129 0.8898818493 0.4512956142
outer loop
vertex -37.27962494 72.26274872 257.9516907
vertex -36.82152557 72.0644455 258.4103699
vertex -36.87036896 72.31301117 257.9130249

endloop
endfacet
facet normal -0.0589655675 0.8643345833 0.4994485676
outer loop
vertex -37.27962494 72.26274872 257.9516907
vertex -36.87036896 72.31301117 257.9130249
vertex -37.23992157 72.53520966 257.4848633

endloop
endfacet
facet normal 0.0001277629053 0.8876396418 0.4605386853
outer loop
vertex -37.23992157 72.53520966 257.4848633
vertex -36.87036896 72.31301117 257.9130249
vertex -36.83034515 72.54097748 257.4736328

endloop
endfacet
facet normal 4.030775381e-05 0.8889423609 0.458019197
outer loop
vertex -37.23992157 72.53520966 257.4848633
vertex -36.83034515 72.54097748 257.4736328
vertex -37.13251495 72.75048065 257.0670471

endloop
endfacet
facet normal 0.06740534306 0.9064216614 0.4169608951
outer loop
vertex -37.13251495 72.75048065 257.0670471
vertex -36.83034515 72.54097748 257.4736328
vertex -36.74562836 72.70845795 257.0958557

endloop
endfacet
facet normal 0.07338038832 0.927516818 0.3665076196
outer loop
vertex -37.13249969 72.75045013 257.0670471
vertex -36.7456131 72.70845795 257.0958557
vertex -37.09523773 72.8911972 256.7033997

endloop
endfacet
facet normal 0.05840004608 0.9238938093 0.3781661093
outer loop
vertex -37.09523773 72.8911972 256.7033997
vertex -36.7456131 72.70845795 257.0958557
vertex -36.74312592 72.85436249 256.7390137

endloop
endfacet
facet normal 0.1424561888 0.8051684499 -0.5756822228
outer loop
vertex -37.09523773 72.8911972 256.7033997
vertex -36.74312592 72.85436249 256.7390137
vertex -36.92139435 72.49895477 256.1978149

endloop
endfacet
facet normal -0.893935442 0.4481956661 0
outer loop
vertex -36.92139435 72.49895477 256.1978149
vertex -36.74312592 72.85436249 256.7390137
vertex -36.92139435 72.49895477 256.1977844

endloop
endfacet
facet normal 0.4790968597 -0.2395484298 0.8444422483
outer loop
vertex -37.23920441 66.88646698 263.8731995
vertex -37.23918915 66.8864975 263.8731995
vertex -37.2022934 67.49086761 264.0237122

endloop
endfacet
facet normal 0.04641682655 -0.2440661043 0.9686471224
outer loop
vertex -37.2022934 67.49086761 264.0237122
vertex -37.23918915 66.8864975 263.8731995
vertex -36.88663483 67.41173553 263.9886475

endloop
endfacet
facet normal 0.2291286588 0.5617405176 0.7949513793
outer loop
vertex -37.2022934 67.49086761 264.0237122
vertex -36.88663483 67.41173553 263.9886475
vertex -37.14736176 67.81322479 263.7800903

endloop
endfacet
facet normal 0.2436255962 0.5669670105 0.7868894339
outer loop
vertex -37.14736176 67.81322479 263.7800903
vertex -36.88663483 67.41173553 263.9886475
vertex -36.79416656 67.72676849 263.7330322

endloop
endfacet
facet normal 0.2448067516 0.5752969384 0.7804505825
outer loop
vertex -37.14736176 67.81322479 263.7800903
vertex -36.79416656 67.72676849 263.7330322
vertex -37.1122818 68.16622162 263.5088806

endloop
endfacet
facet normal 0.2498544604 0.5773561001 0.7773240209
outer loop
vertex -37.1122818 68.16622162 263.5088806
vertex -36.79416656 67.72676849 263.7330322
vertex -36.73014069 68.07546234 263.4534607

endloop
endfacet
facet normal 0.2588583529 0.658303678 0.706844151
outer loop
vertex -37.1122818 68.16622162 263.5088806
vertex -36.73014069 68.07546234 263.4534607
vertex -37.07743073 68.53783417 263.1500244

endloop
endfacet
facet normal 0.2574062049 0.6578423977 0.7078032494
outer loop
vertex -37.07743073 68.53783417 263.1500244
vertex -36.73014069 68.07546234 263.4534607
vertex -36.69461823 68.44698334 263.0952454

endloop
endfacet
facet normal 0.25848037 0.668907702 0.6969578862
outer loop
vertex -37.07743073 68.53783417 263.1500244
vertex -36.69461823 68.44698334 263.0952454
vertex -37.0398941 68.92012787 262.7691956

endloop
endfacet
facet normal 0.2562687695 0.668274343 0.6983807683
outer loop
vertex -37.0398941 68.92012787 262.7691956
vertex -36.69461823 68.44698334 263.0952454
vertex -36.65735626 68.82787323 262.7171021

endloop
endfacet
facet normal 0.2571779191 0.6770210862 0.6895665526
outer loop
vertex -37.0398941 68.92012787 262.7691956
vertex -36.65735626 68.82787323 262.7171021
vertex -36.99983978 69.29671478 262.3845215

endloop
endfacet
facet normal 0.2575507462 0.6771234274 0.6893268228
outer loop
vertex -36.99983978 69.29671478 262.3845215
vertex -36.65735626 68.82787323 262.7171021
vertex -36.61751556 69.20326996 262.3334656

endloop
endfacet
facet normal 0.2588950396 0.6898787618 0.6760478616
outer loop
vertex -36.99983978 69.29671478 262.3845215
vertex -36.61751556 69.20326996 262.3334656
vertex -36.95915985 69.66295624 261.9952087

endloop
endfacet
facet normal 0.2599705458 0.690161705 0.6753459573
outer loop
vertex -36.95915985 69.66295624 261.9952087
vertex -36.61751556 69.20326996 262.3334656
vertex -36.57723236 69.56755829 261.9456787

endloop
endfacet
facet normal 0.2619090676 0.7076237202 0.6562563181
outer loop
vertex -36.95915985 69.66295624 261.9952087
vertex -36.57723236 69.56755829 261.9456482
vertex -36.91762543 70.01729584 261.5965576

endloop
endfacet
facet normal 0.2653268576 0.7084498405 0.6539881229
outer loop
vertex -36.91762543 70.01729584 261.5965576
vertex -36.57723236 69.56755829 261.9456482
vertex -36.53636932 69.91927338 261.5480652

endloop
endfacet
facet normal 0.2675465047 0.7288122177 0.6302790046
outer loop
vertex -36.91762543 70.01729584 261.5965576
vertex -36.53636932 69.91927338 261.5480652
vertex -36.87602997 70.35665131 261.1864929

endloop
endfacet
facet normal 0.2740351558 0.7302031517 0.6258659363
outer loop
vertex -36.87602997 70.35665131 261.1864929
vertex -36.53636932 69.91927338 261.5480652
vertex -36.49567413 70.25557709 261.1378784

endloop
endfacet
facet normal 0.2764239013 0.7526656985 0.5975651741
outer loop
vertex -36.87602997 70.35665131 261.1865234
vertex -36.49565887 70.25557709 261.1378784
vertex -36.83690643 70.67916107 260.762207

endloop
endfacet
facet normal 0.2866186798 0.7545138597 0.5903884768
outer loop
vertex -36.83690643 70.67916107 260.762207
vertex -36.49565887 70.25557709 261.1378784
vertex -36.45772552 70.57476044 260.7115479

endloop
endfacet
facet normal 0.2886143029 0.7763255835 0.5603752136
outer loop
vertex -36.83690643 70.67916107 260.762207
vertex -36.45772552 70.57476044 260.7115479
vertex -36.80319977 70.98461151 260.3216858

endloop
endfacet
facet normal 0.3020729423 0.7782719135 0.5504950881
outer loop
vertex -36.80319977 70.98461151 260.3216858
vertex -36.45772552 70.57476044 260.7115479
vertex -36.42554474 70.87703705 260.2665405

endloop
endfacet
facet normal 0.3033520877 0.7980648279 0.5206438899
outer loop
vertex -36.80319977 70.98461151 260.3216858
vertex -36.42554474 70.87703705 260.2665405
vertex -36.77931976 71.27367401 259.8646851

endloop
endfacet
facet normal 0.3202986121 0.7998905778 0.507527113
outer loop
vertex -36.77931976 71.27367401 259.8646851
vertex -36.42554474 70.87703705 260.2665405
vertex -36.40367889 71.16326141 259.8016357

endloop
endfacet
facet normal 0.3205901086 0.8169398308 0.4794073105
outer loop
vertex -36.77931976 71.27367401 259.8646851
vertex -36.40367889 71.16326141 259.8016357
vertex -36.77108002 71.54824066 259.3912964

endloop
endfacet
facet normal 0.3405441344 0.8183857203 0.4628979266
outer loop
vertex -36.77108002 71.54824066 259.3912964
vertex -36.40367889 71.16326141 259.8016357
vertex -36.39823151 71.43541718 259.3164673

endloop
endfacet
facet normal 0.339823395 0.8313158154 0.4398113787
outer loop
vertex -36.77106476 71.54827118 259.3913269
vertex -36.39821625 71.43544769 259.3164978
vertex -36.78366852 71.81136322 258.9037781

endloop
endfacet
facet normal 0.3596126735 0.8321688175 0.422106415
outer loop
vertex -36.78366852 71.81136322 258.9037781
vertex -36.39821625 71.43544769 259.3164978
vertex -36.41425323 71.6967392 258.815033

endloop
endfacet
facet normal 0.3582365215 0.841601789 0.4041941762
outer loop
vertex -36.78366852 71.81136322 258.9037781
vertex -36.41425323 71.6967392 258.815033
vertex -36.82152557 72.0644455 258.4103699

endloop
endfacet
facet normal 0.375898093 0.8420575857 0.3868329227
outer loop
vertex -36.82152557 72.0644455 258.4103699
vertex -36.41425323 71.6967392 258.815033
vertex -36.4560318 71.94863129 258.307312

endloop
endfacet
facet normal 0.375623405 0.8432279825 0.3845435083
outer loop
vertex -36.82152557 72.0644455 258.4103699
vertex -36.4560318 71.94863129 258.307312
vertex -36.87036896 72.31301117 257.9130249

endloop
endfacet
facet normal 0.3972644508 0.8433327675 0.3618988693
outer loop
vertex -36.87036896 72.31301117 257.9130249
vertex -36.4560318 71.94863129 258.307312
vertex -36.51016998 72.19313812 257.7969666

endloop
endfacet
facet normal 0.4090822935 0.7942084074 0.4493157566
outer loop
vertex -36.87036896 72.31301117 257.9130249
vertex -36.51016998 72.19313812 257.7969666
vertex -36.83034515 72.54097748 257.4736328

endloop
endfacet
facet normal 0.4638000131 0.7933847308 0.3942464292
outer loop
vertex -36.83034515 72.54097748 257.4736328
vertex -36.51016998 72.19313812 257.7969666
vertex -36.48142242 72.38451385 257.3780212

endloop
endfacet
facet normal 0.4650923014 0.765945673 0.4438650906
outer loop
vertex -36.83034515 72.54097748 257.4736328
vertex -36.48142242 72.38451385 257.3780212
vertex -36.74562836 72.70845795 257.0958557

endloop
endfacet
facet normal 0.5163561702 0.7618306279 0.3911398053
outer loop
vertex -36.74562836 72.70845795 257.0958557
vertex -36.48142242 72.38451385 257.3780212
vertex -36.42595673 72.52422333 257.0326843

endloop
endfacet
facet normal 0.5195445418 0.7896119952 0.3264754713
outer loop
vertex -36.7456131 72.70845795 257.0958557
vertex -36.42594147 72.52425385 257.0326538
vertex -36.74312592 72.85436249 256.7390137

endloop
endfacet
facet normal 0.5216514468 0.789303124 0.3238523304
outer loop
vertex -36.74312592 72.85436249 256.7390137
vertex -36.42594147 72.52425385 257.0326538
vertex -36.44730377 72.68321991 256.6796265

endloop
endfacet
facet normal 0.311691463 0.7438966036 -0.5911567807
outer loop
vertex -36.74312592 72.85436249 256.7390137
vertex -36.44730377 72.68321991 256.6796265
vertex -36.92139435 72.49895477 256.1977844

endloop
endfacet
facet normal -nan(ind) -nan(ind) -nan(ind)
outer loop
vertex -36.92139435 72.49895477 256.1977844
vertex -36.44730377 72.68321991 256.6796265
vertex -36.92139435 72.49895477 256.1977844

endloop
endfacet
facet normal -0.7338554859 0.366927743 0.5716817975
outer loop
vertex -37.23918915 66.8864975 263.8731995
vertex -37.23920441 66.88646698 263.8731995
vertex -36.88663483 67.41173553 263.9886475

endloop
endfacet
facet normal 0.2423353195 -0.3606192172 0.9006815553
outer loop
vertex -36.88663483 67.41173553 263.9886475
vertex -37.23920441 66.88646698 263.8731995
vertex -36.67592621 67.24593353 263.8655701

endloop
endfacet
facet normal 0.6611431837 0.3460674286 0.6656778455
outer loop
vertex -36.88663483 67.41173553 263.9886475
vertex -36.67592621 67.24593353 263.8655701
vertex -36.79416656 67.72676849 263.7330322

endloop
endfacet
facet normal 0.6607758999 0.3460763395 0.6660379171
outer loop
vertex -36.79416656 67.72676849 263.7330322
vertex -36.67592621 67.24593353 263.8655701
vertex -36.56096649 67.5545578 263.591156

endloop
endfacet
facet normal 0.6703619361 0.3853401244 0.6341355443
outer loop
vertex -36.79416656 67.72676849 263.7330322
vertex -36.56096649 67.5545578 263.591156
vertex -36.73014069 68.07546234 263.4534607

endloop
endfacet
facet normal 0.6755459309 0.3855320811 0.6284924746
outer loop
vertex -36.73014069 68.07546234 263.4534607
vertex -36.56096649 67.5545578 263.591156
vertex -36.47797394 67.89488983 263.2931824

endloop
endfacet
facet normal 0.6878754497 0.4686395526 0.5542601347
outer loop
vertex -36.73014069 68.07546234 263.4534607
vertex -36.47797394 67.89488983 263.2931824
vertex -36.69461823 68.44698334 263.0952454

endloop
endfacet
facet normal 0.6867749691 0.4686832726 0.5555863976
outer loop
vertex -36.69461823 68.44698334 263.0952454
vertex -36.47797394 67.89488983 263.2931824
vertex -36.44174957 68.26622772 262.9351501

endloop
endfacet
facet normal 0.6875401735 0.4766212106 0.547832787
outer loop
vertex -36.69461823 68.44698334 263.0952454
vertex -36.44174957 68.26622772 262.9351501
vertex -36.65735626 68.82787323 262.7171021

endloop
endfacet
facet normal 0.6858136654 0.4767526686 0.5498785377
outer loop
vertex -36.65735626 68.82787323 262.7171021
vertex -36.44174957 68.26622772 262.9351501
vertex -36.40445709 68.64443207 262.56073

endloop
endfacet
facet normal 0.6864401102 0.4828372598 0.5437538028
outer loop
vertex -36.65735626 68.82787323 262.7171021
vertex -36.40445709 68.64443207 262.56073
vertex -36.61751556 69.20326996 262.3334656

endloop
endfacet
facet normal 0.6867272854 0.482809335 0.543415904
outer loop
vertex -36.61751556 69.20326996 262.3334656
vertex -36.40445709 68.64443207 262.56073
vertex -36.36499786 69.01738739 262.1795044

endloop
endfacet
facet normal 0.6876933575 0.492130518 0.5337465405
outer loop
vertex -36.61751556 69.20326996 262.3334656
vertex -36.36499786 69.01738739 262.1795044
vertex -36.57723236 69.56755829 261.9456787

endloop
endfacet
facet normal 0.6885980368 0.4920247495 0.5326765776
outer loop
vertex -36.57723236 69.56755829 261.9456787
vertex -36.36499786 69.01738739 262.1795044
vertex -36.3254776 69.37770844 261.7955933

endloop
endfacet
facet normal 0.6899620295 0.505499661 0.5180950761
outer loop
vertex -36.57723236 69.56755829 261.9456482
vertex -36.32546234 69.37770844 261.7955933
vertex -36.53636932 69.91927338 261.5480652

endloop
endfacet
facet normal 0.6925604343 0.5051006675 0.5150082111
outer loop
vertex -36.53636932 69.91927338 261.5480652
vertex -36.32546234 69.37770844 261.7955933
vertex -36.28598785 69.72423553 261.4026489

endloop
endfacet
facet normal 0.6942661405 0.5212702155 0.4962578118
outer loop
vertex -36.53636932 69.91927338 261.5480652
vertex -36.28598785 69.72423553 261.4026489
vertex -36.49567413 70.25557709 261.1378784

endloop
endfacet
facet normal 0.6991301179 0.5202851892 0.4904289246
outer loop
vertex -36.49567413 70.25557709 261.1378784
vertex -36.28598785 69.72423553 261.4026489
vertex -36.24742889 70.05449677 260.9973145

endloop
endfacet
facet normal 0.7010194063 0.5395507216 0.4663226604
outer loop
vertex -36.49565887 70.25557709 261.1378784
vertex -36.24741364 70.05452728 260.9973145
vertex -36.45772552 70.57476044 260.7115479

endloop
endfacet
facet normal 0.7085231543 0.5375651121 0.4571855664
outer loop
vertex -36.45772552 70.57476044 260.7115479
vertex -36.24741364 70.05452728 260.9973145
vertex -36.21242523 70.36717987 260.57547

endloop
endfacet
facet normal 0.710221529 0.5574043989 0.4299834669
outer loop
vertex -36.45772552 70.57476044 260.7115479
vertex -36.21242523 70.36717987 260.57547
vertex -36.42554474 70.87703705 260.2665405

endloop
endfacet
facet normal 0.7202596068 0.5540217161 0.41747576
outer loop
vertex -36.42554474 70.87703705 260.2665405
vertex -36.21242523 70.36717987 260.57547
vertex -36.18395233 70.66307831 260.133667

endloop
endfacet
facet normal 0.7214166522 0.5740399361 0.3873451054
outer loop
vertex -36.42554474 70.87703705 260.2665405
vertex -36.18395233 70.66307831 260.133667
vertex -36.40367889 71.16326141 259.8016357

endloop
endfacet
facet normal 0.73377949 0.5688853264 0.3713988066
outer loop
vertex -36.40367889 71.16326141 259.8016357
vertex -36.18395233 70.66307831 260.133667
vertex -36.16661835 70.94365692 259.6696472

endloop
endfacet
facet normal 0.7339503169 0.5888192058 0.3385394514
outer loop
vertex -36.40367889 71.16326141 259.8016357
vertex -36.16661835 70.94365692 259.6696472
vertex -36.39823151 71.43541718 259.3164673

endloop
endfacet
facet normal 0.7483067513 0.5815858245 0.3190530241
outer loop
vertex -36.39823151 71.43541718 259.3164673
vertex -36.16661835 70.94365692 259.6696472
vertex -36.16664886 71.21096039 259.1824646

endloop
endfacet
facet normal 0.7471961379 0.5988849998 0.2881573439
outer loop
vertex -36.39821625 71.43544769 259.3164978
vertex -36.16663361 71.21099091 259.1824951
vertex -36.41425323 71.6967392 258.815033

endloop
endfacet
facet normal 0.7610577941 0.5907224417 0.2680263519
outer loop
vertex -36.41425323 71.6967392 258.815033
vertex -36.16663361 71.21099091 259.1824951
vertex -36.18852997 71.46868134 258.6767273

endloop
endfacet
facet normal 0.7586513758 0.6063185334 0.2383818775
outer loop
vertex -36.41425323 71.6967392 258.815033
vertex -36.18852997 71.46868134 258.6767273
vertex -36.4560318 71.94863129 258.307312

endloop
endfacet
facet normal 0.7706108093 0.5983576179 0.2193789035
outer loop
vertex -36.4560318 71.94863129 258.307312
vertex -36.18852997 71.46868134 258.6767273
vertex -36.23615265 71.71825409 258.1632996

endloop
endfacet
facet normal 0.7692226768 0.6042197347 0.2078818381
outer loop
vertex -36.4560318 71.94863129 258.307312
vertex -36.23615265 71.71825409 258.1632996
vertex -36.51016998 72.19313812 257.7969666

endloop
endfacet
facet normal 0.7833331823 0.5938006043 0.1838207096
outer loop
vertex -36.51016998 72.19313812 257.7969666
vertex -36.23615265 71.71825409 258.1632996
vertex -36.29769135 71.95928192 257.6469421

endloop
endfacet
facet normal 0.793807745 0.5307598114 0.2969231606
outer loop
vertex -36.51016998 72.19313812 257.7969666
vertex -36.29769135 71.95928192 257.6469421
vertex -36.48142242 72.38451385 257.3780212

endloop
endfacet
facet normal 0.829857707 0.5065395832 0.2339951098
outer loop
vertex -36.48142242 72.38451385 257.3780212
vertex -36.29769135 71.95928192 257.6469421
vertex -36.287117 72.13158417 257.2364502

endloop
endfacet
facet normal 0.8294159174 0.4587327838 0.3188001215
outer loop
vertex -36.48142242 72.38451385 257.3780212
vertex -36.287117 72.13158417 257.2364502
vertex -36.42595673 72.52422333 257.0326843

endloop
endfacet
facet normal 0.8606553674 0.4385818839 0.2586855292
outer loop
vertex -36.42595673 72.52422333 257.0326843
vertex -36.287117 72.13158417 257.2364502
vertex -36.25830841 72.26912689 256.9074097

endloop
endfacet
facet normal 0.859511137 0.4835086465 0.1657104492
outer loop
vertex -36.42594147 72.52425385 257.0326538
vertex -36.25829315 72.26915741 256.9074097
vertex -36.44730377 72.68321991 256.6796265

endloop
endfacet
facet normal 0.8664923906 0.4768206179 0.1477601081
outer loop
vertex -36.44730377 72.68321991 256.6796265
vertex -36.25829315 72.26915741 256.9074097
vertex -36.2932663 72.44277191 256.5522461

endloop
endfacet
facet normal 0.4264773428 0.6213999987 -0.6572511792
outer loop
vertex -36.44730377 72.68321991 256.6796265
vertex -36.2932663 72.44277191 256.5522461
vertex -36.92139435 72.49895477 256.1977844

endloop
endfacet
facet normal 0 0.9876856208 0.1564515829
outer loop
vertex -36.92139435 72.49895477 256.1977844
vertex -36.2932663 72.44277191 256.5522461
vertex -36.92137909 72.49895477 256.1977844

endloop
endfacet
facet normal -nan(ind) -nan(ind) -nan(ind)
outer loop
vertex -37.23920441 66.88646698 263.8731995
vertex -37.23920441 66.88646698 263.8731995
vertex -36.67592621 67.24593353 263.8655701

endloop
endfacet
facet normal 0.3367467225 -0.510889411 0.7909447551
outer loop
vertex -36.67592621 67.24593353 263.8655701
vertex -37.23920441 66.88646698 263.8731995
vertex -36.59235382 67.05675507 263.7077942

endloop
endfacet
facet normal 0.9033002853 0.04305715486 0.4268426597
outer loop
vertex -36.67592621 67.24593353 263.8655701
vertex -36.59235382 67.05675507 263.7077942
vertex -36.56096649 67.5545578 263.591156

endloop
endfacet
facet normal 0.8898934722 0.05012642965 0.4534060359
outer loop
vertex -36.56096649 67.5545578 263.591156
vertex -36.59235382 67.05675507 263.7077942
vertex -36.45890045 67.35823822 263.4125366

endloop
endfacet
facet normal 0.9128417969 0.1192929223 0.3904985487
outer loop
vertex -36.56096649 67.5545578 263.591156
vertex -36.45890045 67.35823822 263.4125366
vertex -36.47797394 67.89488983 263.2931824

endloop
endfacet
facet normal 0.9158177972 0.1179286316 0.3838887513
outer loop
vertex -36.47797394 67.89488983 263.2931824
vertex -36.45890045 67.35823822 263.4125366
vertex -36.3675766 67.68904877 263.0930481

endloop
endfacet
facet normal 0.9306047559 0.2029269189 0.3046234846
outer loop
vertex -36.47797394 67.89488983 263.2931824
vertex -36.3675766 67.68904877 263.0930481
vertex -36.44174957 68.26622772 262.9351501

endloop
endfacet
facet normal 0.9300287366 0.2032704502 0.3061498106
outer loop
vertex -36.44174957 68.26622772 262.9351501
vertex -36.3675766 67.68904877 263.0930481
vertex -36.3307724 68.06017303 262.7348328

endloop
endfacet
facet normal 0.9304308295 0.2073789686 0.302146405
outer loop
vertex -36.44174957 68.26622772 262.9351501
vertex -36.3307724 68.06017303 262.7348328
vertex -36.40445709 68.64443207 262.56073

endloop
endfacet
facet normal 0.92951864 0.207975626 0.3045347035
outer loop
vertex -36.40445709 68.64443207 262.56073
vertex -36.3307724 68.06017303 262.7348328
vertex -36.29325104 68.43532562 262.3641052

endloop
endfacet
facet normal 0.9297694564 0.2104125917 0.302084893
outer loop
vertex -36.40445709 68.64443207 262.56073
vertex -36.29325104 68.43532562 262.3641052
vertex -36.36499786 69.01738739 262.1795044

endloop
endfacet
facet normal 0.9299326539 0.2102985382 0.301661849
outer loop
vertex -36.36499786 69.01738739 262.1795044
vertex -36.29325104 68.43532562 262.3641052
vertex -36.25421906 68.80550385 261.9857178

endloop
endfacet
facet normal 0.9303829074 0.2146137357 0.2972011268
outer loop
vertex -36.36499786 69.01738739 262.1795044
vertex -36.25421906 68.80550385 261.9857178
vertex -36.3254776 69.37770844 261.7955933

endloop
endfacet
facet normal 0.9308179617 0.2142917961 0.2960692644
outer loop
vertex -36.3254776 69.37770844 261.7955933
vertex -36.25421906 68.80550385 261.9857178
vertex -36.21550751 69.16127777 261.6065063

endloop
endfacet
facet normal 0.9315540195 0.2211550623 0.2886129916
outer loop
vertex -36.32546234 69.37770844 261.7955933
vertex -36.21550751 69.16127777 261.6065369
vertex -36.28598785 69.72423553 261.4026489

endloop
endfacet
facet normal 0.9328614473 0.22007972 0.2851918936
outer loop
vertex -36.28598785 69.72423553 261.4026489
vertex -36.21550751 69.16127777 261.6065369
vertex -36.17761993 69.50185394 261.2197876

endloop
endfacet
facet normal 0.9337779284 0.228739813 0.2752033472
outer loop
vertex -36.28598785 69.72423553 261.4026489
vertex -36.17761993 69.50185394 261.2197876
vertex -36.24742889 70.05449677 260.9973145

endloop
endfacet
facet normal 0.9362467527 0.2264169306 0.2686583698
outer loop
vertex -36.24742889 70.05449677 260.9973145
vertex -36.17761993 69.50185394 261.2197876
vertex -36.14160919 69.82524872 260.8217468

endloop
endfacet
facet normal 0.9374213219 0.2380081862 0.254152298
outer loop
vertex -36.24741364 70.05452728 260.9973145
vertex -36.14160919 69.82524872 260.8217773
vertex -36.21242523 70.36717987 260.57547

endloop
endfacet
facet normal 0.9412091374 0.2338145375 0.2438362688
outer loop
vertex -36.21242523 70.36717987 260.57547
vertex -36.14160919 69.82524872 260.8217773
vertex -36.11023712 70.13048553 260.4079895

endloop
endfacet
facet normal 0.9423120618 0.2468639463 0.2260668874
outer loop
vertex -36.21242523 70.36717987 260.57547
vertex -36.11023712 70.13048553 260.4079895
vertex -36.18395233 70.66307831 260.133667

endloop
endfacet
facet normal 0.9471319914 0.2404848337 0.2123866975
outer loop
vertex -36.18395233 70.66307831 260.133667
vertex -36.11023712 70.13048553 260.4079895
vertex -36.08621979 70.41915131 259.9740295

endloop
endfacet
facet normal 0.9479656219 0.2555226982 0.1899190992
outer loop
vertex -36.18395233 70.66307831 260.133667
vertex -36.08621979 70.41915131 259.9740295
vertex -36.16661835 70.94365692 259.6696472

endloop
endfacet
facet normal 0.9536314011 0.2464441508 0.1727785915
outer loop
vertex -36.16661835 70.94365692 259.6696472
vertex -36.08621979 70.41915131 259.9740295
vertex -36.07421112 70.69322968 259.5168152

endloop
endfacet
facet normal 0.9537129998 0.2636669874 0.1446069479
outer loop
vertex -36.16661835 70.94365692 259.6696472
vertex -36.07421112 70.69322968 259.5168152
vertex -36.16664886 71.21096039 259.1824646

endloop
endfacet
facet normal 0.9598155618 0.251619488 0.1242646798
outer loop
vertex -36.16664886 71.21096039 259.1824646
vertex -36.07421112 70.69322968 259.5168152
vertex -36.08046722 70.95513153 259.0348206

endloop
endfacet
facet normal 0.9586923718 0.2680820823 0.09508377314
outer loop
vertex -36.16663361 71.21099091 259.1824951
vertex -36.08045197 70.95516205 259.0348511
vertex -36.18852997 71.46868134 258.6767273

endloop
endfacet
facet normal 0.9641126394 0.2548386455 0.0744580552
outer loop
vertex -36.18852997 71.46868134 258.6767273
vertex -36.08045197 70.95516205 259.0348511
vertex -36.10866547 71.20870209 258.5324097

endloop
endfacet
facet normal 0.9614622593 0.2715800703 0.04283282533
outer loop
vertex -36.18852997 71.46868134 258.6767273
vertex -36.10866547 71.20870209 258.5324097
vertex -36.23615265 71.71825409 258.1632996

endloop
endfacet
facet normal 0.9656412601 0.2587923706 0.02373624593
outer loop
vertex -36.23615265 71.71825409 258.1632996
vertex -36.10866547 71.20870209 258.5324097
vertex -36.16225433 71.45561981 258.0204163

endloop
endfacet
facet normal 0.9638924599 0.266127497 0.00934905
outer loop
vertex -36.23615265 71.71825409 258.1632996
vertex -36.16225433 71.45561981 258.0204163
vertex -36.29769135 71.95928192 257.6469421

endloop
endfacet
facet normal 0.9681062102 0.2501648962 -0.01370599773
outer loop
vertex -36.29769135 71.95928192 257.6469421
vertex -36.16225433 71.45561981 258.0204163
vertex -36.23123932 71.69429779 257.5041504

endloop
endfacet
facet normal 0.9764848351 0.18865408 0.1043411642
outer loop
vertex -36.29769135 71.95928192 257.6469421
vertex -36.23123932 71.69429779 257.5041504
vertex -36.287117 72.13158417 257.2364502

endloop
endfacet
facet normal 0.9875438213 0.1517181993 0.04169827327
outer loop
vertex -36.287117 72.13158417 257.2364502
vertex -36.23123932 71.69429779 257.5041504
vertex -36.23984528 71.8635788 257.092041

endloop
endfacet
facet normal 0.9860722423 0.1039861217 0.1298012882
outer loop
vertex -36.287117 72.13158417 257.2364502
vertex -36.23984528 71.8635788 257.092041
vertex -36.25830841 72.26912689 256.9074097

endloop
endfacet
facet normal 0.9952838421 0.07391311973 0.06282390654
outer loop
vertex -36.25830841 72.26912689 256.9074097
vertex -36.23984528 71.8635788 257.092041
vertex -36.23059845 72.0172348 256.7647705

endloop
endfacet
facet normal 0.9910876751 0.1286047846 -0.03472707793
outer loop
vertex -36.25829315 72.26915741 256.9074097
vertex -36.23059845 72.01720428 256.76474
vertex -36.2932663 72.44277191 256.5522461

endloop
endfacet
facet normal 0.99118644 0.106873773 -0.07827756554
outer loop
vertex -36.2932663 72.44277191 256.5522461
vertex -36.23059845 72.01720428 256.76474
vertex -36.27967072 72.20952606 256.4059448

endloop
endfacet
facet normal 0.4611241221 0.4906315207 -0.7393546104
outer loop
vertex -36.2932663 72.44277191 256.5522461
vertex -36.27967072 72.20952606 256.4059448
vertex -36.92137909 72.49895477 256.1977844

endloop
endfacet
facet normal 0 -0.5840879679 -0.8116903305
outer loop
vertex -36.92137909 72.49895477 256.1977844
vertex -36.27967072 72.20952606 256.4059448
vertex -36.92139435 72.49895477 256.1977844

endloop
endfacet
facet normal 0 -0.6967478991 -0.7173160911
outer loop
vertex -37.23920441 66.88646698 263.8731995
vertex -37.23921967 66.88646698 263.8731995
vertex -36.59235382 67.05675507 263.7077942

endloop
endfacet
facet normal 0.344520539 -0.669511795 0.6580726504
outer loop
vertex -36.59235382 67.05675507 263.7077942
vertex -37.23921967 66.88646698 263.8731995
vertex -36.63236237 66.866539 263.5352173

endloop
endfacet
facet normal 0.9453821778 -0.3044659197 0.116417326
outer loop
vertex -36.59235382 67.05675507 263.7077942
vertex -36.63236237 66.866539 263.5352173
vertex -36.45890045 67.35823822 263.4125366

endloop
endfacet
facet normal 0.9439697862 -0.2972197533 0.1434625387
outer loop
vertex -36.45890045 67.35823822 263.4125366
vertex -36.63236237 66.866539 263.5352173
vertex -36.49352264 67.14946747 263.2078247

endloop
endfacet
facet normal 0.9748741984 -0.2158061415 0.05520798638
outer loop
vertex -36.45890045 67.35823822 263.4125366
vertex -36.49352264 67.14946747 263.2078247
vertex -36.3675766 67.68904877 263.0930481

endloop
endfacet
facet normal 0.9749123454 -0.2172547132 0.04843979701
outer loop
vertex -36.3675766 67.68904877 263.0930481
vertex -36.49352264 67.14946747 263.2078247
vertex -36.40506744 67.46990204 262.8647156

endloop
endfacet
facet normal 0.9905495644 -0.1324850619 -0.03548715636
outer loop
vertex -36.3675766 67.68904877 263.0930481
vertex -36.40506744 67.46990204 262.8647156
vertex -36.3307724 68.06017303 262.7348328

endloop
endfacet
facet normal 0.9906556606 -0.1321292967 -0.03380958736
outer loop
vertex -36.3307724 68.06017303 262.7348328
vertex -36.40506744 67.46990204 262.8647156
vertex -36.367836 67.8408432 262.5059814

endloop
endfacet
facet normal 0.9906372428 -0.1323133558 -0.03363019601
outer loop
vertex -36.3307724 68.06017303 262.7348328
vertex -36.367836 67.8408432 262.5059814
vertex -36.29325104 68.43532562 262.3641052

endloop
endfacet
facet normal 0.9908057451 -0.1316996366 -0.03097000718
outer loop
vertex -36.29325104 68.43532562 262.3641052
vertex -36.367836 67.8408432 262.5059814
vertex -36.32988739 68.21269989 262.1387329

endloop
endfacet
facet normal 0.99058038 -0.1338728666 -0.02878662944
outer loop
vertex -36.29325104 68.43532562 262.3641052
vertex -36.32988739 68.21269989 262.1387329
vertex -36.25421906 68.80550385 261.9857178

endloop
endfacet
facet normal 0.9905577898 -0.1339623183 -0.02914438397
outer loop
vertex -36.25421906 68.80550385 261.9857178
vertex -36.32988739 68.21269989 262.1387329
vertex -36.2912674 68.57991791 261.7634277

endloop
endfacet
facet normal 0.9903097153 -0.1362743825 -0.02675670385
outer loop
vertex -36.25421906 68.80550385 261.9857178
vertex -36.2912674 68.57991791 261.7634277
vertex -36.21550751 69.16127777 261.6065063

endloop
endfacet
facet normal 0.9902194738 -0.1366446316 -0.02817197517
outer loop
vertex -36.21550751 69.16127777 261.6065063
vertex -36.2912674 68.57991791 261.7634277
vertex -36.25347137 68.93090057 261.3895264

endloop
endfacet
facet normal 0.9899536967 -0.1390751302 -0.02549126744
outer loop
vertex -36.21550751 69.16127777 261.6065369
vertex -36.25345612 68.93093109 261.3895264
vertex -36.17761993 69.50185394 261.2197876

endloop
endfacet
facet normal 0.9896912575 -0.1401816308 -0.02933025733
outer loop
vertex -36.17761993 69.50185394 261.2197876
vertex -36.25345612 68.93093109 261.3895264
vertex -36.21735382 69.26519012 261.0101624

endloop
endfacet
facet normal 0.9894124866 -0.1427037865 -0.0264299158
outer loop
vertex -36.17761993 69.50185394 261.2197876
vertex -36.21735382 69.26519012 261.0101624
vertex -36.14160919 69.82524872 260.8217468

endloop
endfacet
facet normal 0.9888730645 -0.1449685544 -0.03337864205
outer loop
vertex -36.14160919 69.82524872 260.8217468
vertex -36.21735382 69.26519012 261.0101624
vertex -36.1841507 69.58116913 260.6214905

endloop
endfacet
facet normal 0.9888025522 -0.1456535161 -0.03247564659
outer loop
vertex -36.14160919 69.82524872 260.8217773
vertex -36.18413544 69.58119965 260.621521
vertex -36.11023712 70.13048553 260.4079895

endloop
endfacet
facet normal 0.9877709746 -0.1497545987 -0.04338219389
outer loop
vertex -36.11023712 70.13048553 260.4079895
vertex -36.18413544 69.58119965 260.621521
vertex -36.15674591 69.87850189 260.2188721

endloop
endfacet
facet normal 0.9878413677 -0.1489816159 -0.0444293879
outer loop
vertex -36.11023712 70.13048553 260.4079895
vertex -36.15674591 69.87850189 260.2188721
vertex -36.08621979 70.41915131 259.9740295

endloop
endfacet
facet normal 0.9861115217 -0.1552986801 -0.05887673795
outer loop
vertex -36.08621979 70.41915131 259.9740295
vertex -36.15674591 69.87850189 260.2188721
vertex -36.13768768 70.15944672 259.7970276

endloop
endfacet
facet normal 0.9863598943 -0.1513123065 -0.06479797512
outer loop
vertex -36.08621979 70.41915131 259.9740295
vertex -36.13768768 70.15944672 259.7970276
vertex -36.07421112 70.69322968 259.5168152

endloop
endfacet
facet normal 0.9835888743 -0.1603675485 -0.08267523348
outer loop
vertex -36.07421112 70.69322968 259.5168152
vertex -36.13768768 70.15944672 259.7970276
vertex -36.13150787 70.42671967 259.3521118

endloop
endfacet
facet normal 0.9836843014 -0.1524108052 -0.09558343142
outer loop
vertex -36.07421112 70.69322968 259.5168152
vertex -36.13150787 70.42671967 259.3521118
vertex -36.08046722 70.95513153 259.0348206

endloop
endfacet
facet normal 0.9794456959 -0.1646076292 -0.1165776774
outer loop
vertex -36.08046722 70.95513153 259.0348206
vertex -36.13150787 70.42671967 259.3521118
vertex -36.14438629 70.68282318 258.8822937

endloop
endfacet
facet normal 0.9788658023 -0.1551335007 -0.1332489401
outer loop
vertex -36.08045197 70.95516205 259.0348511
vertex -36.14437103 70.6828537 258.8823242
vertex -36.10866547 71.20870209 258.5324097

endloop
endfacet
facet normal 0.9735685587 -0.1686175764 -0.1540532261
outer loop
vertex -36.10866547 71.20870209 258.5324097
vertex -36.14437103 70.6828537 258.8823242
vertex -36.179039 70.93199921 258.3905334

endloop
endfacet
facet normal 0.9716989398 -0.1563269943 -0.1770963073
outer loop
vertex -36.10866547 71.20870209 258.5324097
vertex -36.179039 70.93199921 258.3905334
vertex -36.16225433 71.45561981 258.0204163

endloop
endfacet
facet normal 0.965893209 -0.1693943739 -0.1958465725
outer loop
vertex -36.16225433 71.45561981 258.0204163
vertex -36.179039 70.93199921 258.3905334
vertex -36.23834991 71.17604828 257.8869324

endloop
endfacet
facet normal 0.9647930264 -0.1646958441 -0.2050600499
outer loop
vertex -36.16225433 71.45561981 258.0204163
vertex -36.23834991 71.17604828 257.8869324
vertex -36.23123932 71.69429779 257.5041504

endloop
endfacet
facet normal 0.9571551085 -0.180424571 -0.2264970839
outer loop
vertex -36.23123932 71.69429779 257.5041504
vertex -36.23834991 71.17604828 257.8869324
vertex -36.31429291 71.41356659 257.3768005

endloop
endfacet
facet normal 0.9655280709 -0.2330719829 -0.1159011647
outer loop
vertex -36.23123932 71.69429779 257.5041504
vertex -36.31429291 71.41356659 257.3768005
vertex -36.23984528 71.8635788 257.092041

endloop
endfacet
facet normal 0.9465128183 -0.2691752315 -0.1779273599
outer loop
vertex -36.23984528 71.8635788 257.092041
vertex -36.31429291 71.41356659 257.3768005
vertex -36.34204865 71.59606171 256.953064

endloop
endfacet
facet normal 0.9464011788 -0.3018369377 -0.1149747595
outer loop
vertex -36.23984528 71.8635788 257.092041
vertex -36.34204865 71.59606171 256.953064
vertex -36.23059845 72.0172348 256.7647705

endloop
endfacet
facet normal 0.9261387587 -0.328186065 -0.1859055459
outer loop
vertex -36.23059845 72.0172348 256.7647705
vertex -36.34204865 71.59606171 256.953064
vertex -36.34391022 71.78331757 256.6132202

endloop
endfacet
facet normal 0.9233332872 -0.2713331282 -0.2717241943
outer loop
vertex -36.23059845 72.01720428 256.76474
vertex -36.34391022 71.78334808 256.6132202
vertex -36.27967072 72.20952606 256.4059448

endloop
endfacet
facet normal 0.9063970447 -0.2872596681 -0.3097196221
outer loop
vertex -36.27967072 72.20952606 256.4059448
vertex -36.34391022 71.78334808 256.6132202
vertex -36.39427948 72.00731659 256.2580872

endloop
endfacet
facet normal 0.4309566021 0.3605936766 -0.8271932006
outer loop
vertex -36.27967072 72.20952606 256.4059448
vertex -36.39427948 72.00731659 256.2580872
vertex -36.92139435 72.49895477 256.1977844

endloop
endfacet
facet normal 0 -0.121610485 -0.9925779104
outer loop
vertex -36.92139435 72.49895477 256.1977844
vertex -36.39427948 72.00731659 256.2580872
vertex -36.92140961 72.49895477 256.1977844

endloop
endfacet
facet normal -0.3055495322 0.7453303933 -0.5925555825
outer loop
vertex -37.23921967 66.88643646 263.8731689
vertex -37.23920441 66.88646698 263.8731995
vertex -36.63237762 66.86650848 263.5351868

endloop
endfacet
facet normal 0.265324384 -0.8092628121 0.5241152644
outer loop
vertex -36.63237762 66.86650848 263.5351868
vertex -37.23920441 66.88646698 263.8731995
vertex -36.82761383 66.6838913 263.3520508

endloop
endfacet
facet normal 0.7641444206 -0.6117225289 -0.2046435624
outer loop
vertex -36.63237762 66.86650848 263.5351868
vertex -36.82761383 66.6838913 263.3520508
vertex -36.4935379 67.14946747 263.2077942

endloop
endfacet
facet normal 0.7739712596 -0.6090531349 -0.1732708365
outer loop
vertex -36.4935379 67.14946747 263.2077942
vertex -36.82761383 66.6838913 263.3520508
vertex -36.7121048 66.93648529 262.9801331

endloop
endfacet
facet normal 0.8039113283 -0.5237330198 -0.2818338275
outer loop
vertex -36.4935379 67.14946747 263.2077942
vertex -36.7121048 66.93648529 262.9801331
vertex -36.40506744 67.46990204 262.8646851

endloop
endfacet
facet normal 0.80188936 -0.523783505 -0.2874444425
outer loop
vertex -36.40506744 67.46990204 262.8646851
vertex -36.7121048 66.93648529 262.9801331
vertex -36.64180756 67.24611664 262.61203

endloop
endfacet
facet normal 0.8157897592 -0.4422815144 -0.3726583123
outer loop
vertex -36.40506744 67.46990204 262.8646851
vertex -36.64180756 67.24611664 262.61203
vertex -36.367836 67.84081268 262.5059814

endloop
endfacet
facet normal 0.8166096807 -0.4423283041 -0.3708021641
outer loop
vertex -36.367836 67.84081268 262.5059814
vertex -36.64180756 67.24611664 262.61203
vertex -36.60434723 67.61684418 262.2522888

endloop
endfacet
facet normal 0.8162360191 -0.4459912181 -0.3672199547
outer loop
vertex -36.367836 67.84081268 262.5059814
vertex -36.60434723 67.61684418 262.2522888
vertex -36.32988739 68.21269989 262.1386719

endloop
endfacet
facet normal 0.8174695373 -0.4460261166 -0.3644232154
outer loop
vertex -36.32988739 68.21269989 262.1386719
vertex -36.60434723 67.61684418 262.2522888
vertex -36.56571198 67.98534393 261.8879395

endloop
endfacet
facet normal 0.8168311715 -0.4521101117 -0.3583060205
outer loop
vertex -36.32988739 68.21269989 262.1386719
vertex -36.56571198 67.98534393 261.8879395
vertex -36.2912674 68.57988739 261.7633972

endloop
endfacet
facet normal 0.8165738583 -0.4521133006 -0.3588881493
outer loop
vertex -36.2912674 68.57988739 261.7633972
vertex -36.56571198 67.98534393 261.8879395
vertex -36.52754974 68.34957123 261.5159302

endloop
endfacet
facet normal 0.81563586 -0.4606740475 -0.3500251174
outer loop
vertex -36.2912674 68.57988739 261.7633972
vertex -36.52754974 68.34957123 261.5159302
vertex -36.25347137 68.93090057 261.3894958

endloop
endfacet
facet normal 0.8150368929 -0.4606899321 -0.3513966203
outer loop
vertex -36.25347137 68.93090057 261.3894958
vertex -36.52754974 68.34957123 261.5159302
vertex -36.49063873 68.69567108 261.1477966

endloop
endfacet
facet normal 0.8136996627 -0.4723539054 -0.3387840688
outer loop
vertex -36.25345612 68.93090057 261.3894958
vertex -36.49063873 68.69567108 261.1477966
vertex -36.21735382 69.26515961 261.0101624

endloop
endfacet
facet normal 0.8119555116 -0.4724801183 -0.3427692354
outer loop
vertex -36.21735382 69.26515961 261.0101624
vertex -36.49063873 68.69567108 261.1477966
vertex -36.45638275 69.02349091 260.7770691

endloop
endfacet
facet normal 0.8103268743 -0.4866497219 -0.3264082968
outer loop
vertex -36.21735382 69.26515961 261.0101624
vertex -36.45638275 69.02349091 260.7770691
vertex -36.1841507 69.58113861 260.6214905

endloop
endfacet
facet normal 0.8070383072 -0.4871047437 -0.3337935507
outer loop
vertex -36.1841507 69.58113861 260.6214905
vertex -36.45638275 69.02349091 260.7770691
vertex -36.42617035 69.33196259 260.3999634

endloop
endfacet
facet normal 0.8054144979 -0.5016727448 -0.3156451881
outer loop
vertex -36.18413544 69.58116913 260.621521
vertex -36.42617035 69.3319931 260.3999634
vertex -36.15674591 69.87850189 260.2188416

endloop
endfacet
facet normal 0.8000746965 -0.5028505325 -0.3271418512
outer loop
vertex -36.15674591 69.87850189 260.2188416
vertex -36.42617035 69.3319931 260.3999634
vertex -36.40305328 69.62117767 260.0119934

endloop
endfacet
facet normal 0.7987126708 -0.5168348551 -0.3081231117
outer loop
vertex -36.15674591 69.87850189 260.2188416
vertex -36.40305328 69.62117767 260.0119934
vertex -36.13768768 70.15944672 259.7969971

endloop
endfacet
facet normal 0.7911103964 -0.5191888213 -0.3233997226
outer loop
vertex -36.13768768 70.15944672 259.7969971
vertex -36.40305328 69.62117767 260.0119934
vertex -36.38932037 69.89427948 259.6071472

endloop
endfacet
facet normal 0.7903628945 -0.5299400687 -0.3073923886
outer loop
vertex -36.13768768 70.15944672 259.7969971
vertex -36.38932037 69.89427948 259.6071472
vertex -36.13150787 70.42671967 259.3521118

endloop
endfacet
facet normal 0.7800071239 -0.5339740515 -0.3262828588
outer loop
vertex -36.13150787 70.42671967 259.3521118
vertex -36.38932037 69.89427948 259.6071472
vertex -36.38928986 70.15453339 259.1813049

endloop
endfacet
facet normal 0.7798783183 -0.5403639078 -0.3159062266
outer loop
vertex -36.13150787 70.42671967 259.3521118
vertex -36.38928986 70.15453339 259.1813049
vertex -36.14440155 70.68279266 258.8822632

endloop
endfacet
facet normal 0.7662180066 -0.5465216637 -0.3379706144
outer loop
vertex -36.14440155 70.68279266 258.8822632
vertex -36.38928986 70.15453339 259.1813049
vertex -36.40892792 70.40468597 258.7322693

endloop
endfacet
facet normal 0.7663857341 -0.5496198535 -0.3325220048
outer loop
vertex -36.14438629 70.68282318 258.8822937
vertex -36.40891266 70.40471649 258.7322998
vertex -36.17905426 70.93199921 258.3905334

endloop
endfacet
facet normal 0.7513005733 -0.556974709 -0.3540149331
outer loop
vertex -36.17905426 70.93199921 258.3905334
vertex -36.40891266 70.40471649 258.7322998
vertex -36.44980621 70.64937592 258.2605896

endloop
endfacet
facet normal 0.7510311007 -0.5551276803 -0.3574708998
outer loop
vertex -36.17905426 70.93199921 258.3905334
vertex -36.44980621 70.64937592 258.2605896
vertex -36.23836517 71.17604828 257.8869324

endloop
endfacet
facet normal 0.7360243201 -0.5626004338 -0.3764956594
outer loop
vertex -36.23836517 71.17604828 257.8869324
vertex -36.44980621 70.64937592 258.2605896
vertex -36.51415253 70.89052582 257.7744446

endloop
endfacet
facet normal 0.7364986539 -0.5646280646 -0.3725116253
outer loop
vertex -36.23836517 71.17604828 257.8869324
vertex -36.51415253 70.89052582 257.7744446
vertex -36.31430817 71.41356659 257.37677

endloop
endfacet
facet normal 0.7179130316 -0.5738849044 -0.3940266669
outer loop
vertex -36.31430817 71.41356659 257.37677
vertex -36.51415253 70.89052582 257.7744446
vertex -36.59604645 71.12871552 257.2783203

endloop
endfacet
facet normal 0.7272663116 -0.6117890477 -0.3111233115
outer loop
vertex -36.31430817 71.41356659 257.37677
vertex -36.59604645 71.12871552 257.2783203
vertex -36.3420639 71.59606171 256.9530334

endloop
endfacet
facet normal 0.6801493764 -0.6302415133 -0.3744229674
outer loop
vertex -36.3420639 71.59606171 256.9530334
vertex -36.59604645 71.12871552 257.2783203
vertex -36.64170074 71.34572601 256.8301086

endloop
endfacet
facet normal 0.680822134 -0.6399409771 -0.3563099802
outer loop
vertex -36.3420639 71.59606171 256.9530334
vertex -36.64170074 71.34572601 256.8301086
vertex -36.34391022 71.78331757 256.6131897

endloop
endfacet
facet normal 0.6388674974 -0.6436482668 -0.4213848412
outer loop
vertex -36.34391022 71.78331757 256.6131897
vertex -36.64170074 71.34572601 256.8301086
vertex -36.64228058 71.58821869 256.4588318

endloop
endfacet
facet normal 0.6404008865 -0.6053627133 -0.4726760983
outer loop
vertex -36.34391022 71.78334808 256.6131897
vertex -36.64226532 71.58824921 256.4588318
vertex -36.39429474 72.00731659 256.2580872

endloop
endfacet
facet normal 0.6095117331 -0.6056861877 -0.5115073323
outer loop
vertex -36.39429474 72.00731659 256.2580872
vertex -36.64226532 71.58824921 256.4588318
vertex -36.66632843 71.85417938 256.1152649

endloop
endfacet
facet normal 0.3364185095 0.2493244559 -0.9081078768
outer loop
vertex -36.39429474 72.00731659 256.2580872
vertex -36.66632843 71.85417938 256.1152649
vertex -36.92140961 72.49892426 256.1977844

endloop
endfacet
facet normal 0.09093685448 -0.09093685448 0.9916960001
outer loop
vertex -36.92140961 72.49892426 256.1977844
vertex -36.66632843 71.85417938 256.1152649
vertex -36.92137909 72.49895477 256.1977844

endloop
endfacet
facet normal -nan(ind) -nan(ind) -nan(ind)
outer loop
vertex -37.23920441 66.88646698 263.8731995
vertex -37.23920441 66.88646698 263.8731995
vertex -36.82759857 66.6838913 263.3520508

endloop
endfacet
facet normal 0.05401908234 -0.9155545235 0.3985496759
outer loop
vertex -36.82759857 66.6838913 263.3520508
vertex -37.23920441 66.88646698 263.8731995
vertex -37.37187958 66.58898163 263.2077942

endloop
endfacet
facet normal 0.2727977037 -0.8331177831 -0.4811404347
outer loop
vertex -36.82759857 66.6838913 263.3520508
vertex -37.37187958 66.58898163 263.2077942
vertex -36.71208954 66.93648529 262.9801636

endloop
endfacet
facet normal 0.2870310545 -0.8429887891 -0.4549540877
outer loop
vertex -36.71208954 66.93648529 262.9801636
vertex -37.37187958 66.58898163 263.2077942
vertex -37.35721588 66.81551361 262.7973022

endloop
endfacet
facet normal 0.3057113588 -0.7566054463 -0.5780041814
outer loop
vertex -36.71208954 66.93648529 262.9801636
vertex -37.35721588 66.81551361 262.7973022
vertex -36.64180756 67.24611664 262.61203

endloop
endfacet
facet normal 0.3033677042 -0.7544494271 -0.5820431709
outer loop
vertex -36.64180756 67.24611664 262.61203
vertex -37.35721588 66.81551361 262.7973022
vertex -37.34064484 67.11882782 262.4127808

endloop
endfacet
facet normal 0.3131572306 -0.6774736643 -0.6655538678
outer loop
vertex -36.64180756 67.24611664 262.61203
vertex -37.34064484 67.11882782 262.4127808
vertex -36.60434723 67.61684418 262.2522888

endloop
endfacet
facet normal 0.3144834042 -0.678797245 -0.6635770202
outer loop
vertex -36.60434723 67.61684418 262.2522888
vertex -37.34064484 67.11882782 262.4127808
vertex -37.3037796 67.48937225 262.0512085

endloop
endfacet
facet normal 0.3139630556 -0.6839814782 -0.658480525
outer loop
vertex -36.60434723 67.61684418 262.2522888
vertex -37.3037796 67.48937225 262.0512085
vertex -36.56571198 67.98534393 261.8879395

endloop
endfacet
facet normal 0.3158888221 -0.6858888268 -0.6555690765
outer loop
vertex -36.56571198 67.98534393 261.8879395
vertex -37.3037796 67.48937225 262.0512085
vertex -37.26415253 67.85604095 261.686676

endloop
endfacet
facet normal 0.3150220215 -0.6941133738 -0.6472771168
outer loop
vertex -36.56571198 67.98534393 261.8879395
vertex -37.26415253 67.85604095 261.686676
vertex -36.52754974 68.34957123 261.5159302

endloop
endfacet
facet normal 0.3146418035 -0.6937460899 -0.6478556395
outer loop
vertex -36.52754974 68.34957123 261.5159302
vertex -37.26415253 67.85604095 261.686676
vertex -37.22623444 68.21855927 261.3168945

endloop
endfacet
facet normal 0.3131569922 -0.7073965073 -0.6336583495
outer loop
vertex -36.52754974 68.34957123 261.5159302
vertex -37.22623444 68.21855927 261.3168945
vertex -36.49063873 68.69567108 261.1477966

endloop
endfacet
facet normal 0.3121896088 -0.7064483762 -0.6351915002
outer loop
vertex -36.49063873 68.69567108 261.1477966
vertex -37.22623444 68.21855927 261.3168945
vertex -37.18973541 68.56182098 260.953064

endloop
endfacet
facet normal 0.3099316359 -0.7262706161 -0.6135742664
outer loop
vertex -36.49063873 68.69567108 261.1477966
vertex -37.18973541 68.5618515 260.953064
vertex -36.45638275 69.02349091 260.7770691

endloop
endfacet
facet normal 0.307162106 -0.7235989571 -0.618106842
outer loop
vertex -36.45638275 69.02349091 260.7770691
vertex -37.18973541 68.5618515 260.953064
vertex -37.15665436 68.8859787 260.5900574

endloop
endfacet
facet normal 0.3042469919 -0.7491340637 -0.5884148479
outer loop
vertex -36.45638275 69.02349091 260.7770691
vertex -37.15665436 68.8859787 260.5900574
vertex -36.42617035 69.33196259 260.3999634

endloop
endfacet
facet normal 0.2988366783 -0.7441305518 -0.597466588
outer loop
vertex -36.42617035 69.33196259 260.3999634
vertex -37.15665436 68.8859787 260.5900574
vertex -37.12859344 69.19017792 260.2252197

endloop
endfacet
facet normal 0.2955059409 -0.7743217349 -0.5595553517
outer loop
vertex -36.42617035 69.3319931 260.3999634
vertex -37.12857819 69.19020844 260.2252197
vertex -36.40305328 69.62117767 260.0119934

endloop
endfacet
facet normal 0.2869150639 -0.7669813633 -0.5739505291
outer loop
vertex -36.40305328 69.62117767 260.0119934
vertex -37.12857819 69.19020844 260.2252197
vertex -37.1085434 69.47478485 259.85495

endloop
endfacet
facet normal 0.2837655246 -0.799366951 -0.5296126008
outer loop
vertex -36.40305328 69.62117767 260.0119934
vertex -37.1085434 69.47478485 259.85495
vertex -36.38932037 69.89427948 259.6071472

endloop
endfacet
facet normal 0.2717385888 -0.7902988195 -0.5491684675
outer loop
vertex -36.38932037 69.89427948 259.6071472
vertex -37.1085434 69.47478485 259.85495
vertex -37.09856415 69.74340057 259.4733276

endloop
endfacet
facet normal 0.2695476115 -0.8216934204 -0.5021592975
outer loop
vertex -36.38932037 69.89427948 259.6071472
vertex -37.09856415 69.74340057 259.4733276
vertex -36.38928986 70.15453339 259.1813049

endloop
endfacet
facet normal 0.2532902062 -0.8112657666 -0.5269649029
outer loop
vertex -36.38928986 70.15453339 259.1813049
vertex -37.09856415 69.74340057 259.4733276
vertex -37.10260773 69.99971771 259.0767822

endloop
endfacet
facet normal 0.2526503205 -0.8405072093 -0.4792862833
outer loop
vertex -36.38928986 70.15453339 259.1813049
vertex -37.10260773 69.99971771 259.0767822
vertex -36.40892792 70.40468597 258.7322693

endloop
endfacet
facet normal 0.2318638712 -0.8294651508 -0.5081601739
outer loop
vertex -36.40892792 70.40468597 258.7322693
vertex -37.10260773 69.99971771 259.0767822
vertex -37.12602997 70.2463913 258.6634521

endloop
endfacet
facet normal 0.2331828475 -0.8548209667 -0.4635805786
outer loop
vertex -36.40891266 70.40471649 258.7322998
vertex -37.12601471 70.24642181 258.6634827
vertex -36.44980621 70.64937592 258.2605896

endloop
endfacet
facet normal 0.2102752924 -0.8448103666 -0.4920159578
outer loop
vertex -36.44980621 70.64937592 258.2605896
vertex -37.12601471 70.24642181 258.6634827
vertex -37.16928864 70.48854828 258.229248

endloop
endfacet
facet normal 0.2129739225 -0.8637730479 -0.4566597641
outer loop
vertex -36.44980621 70.64937592 258.2605896
vertex -37.16928864 70.48854828 258.229248
vertex -36.51415253 70.89052582 257.7744446

endloop
endfacet
facet normal 0.190487951 -0.8554071784 -0.4816562831
outer loop
vertex -36.51415253 70.89052582 257.7744446
vertex -37.16928864 70.48854828 258.229248
vertex -37.23427582 70.72805023 257.7781982

endloop
endfacet
facet normal 0.1942631751 -0.8714184165 -0.4504352808
outer loop
vertex -36.51415253 70.89052582 257.7744446
vertex -37.23427582 70.72805023 257.7781982
vertex -36.59604645 71.12871552 257.2783203

endloop
endfacet
facet normal 0.1653248668 -0.8617526293 -0.4796354175
outer loop
vertex -36.59604645 71.12871552 257.2783203
vertex -37.23427582 70.72805023 257.7781982
vertex -37.31621552 70.97173309 257.3121338

endloop
endfacet
facet normal 0.1709685475 -0.8798470497 -0.4434400499
outer loop
vertex -36.59604645 71.12871552 257.2783203
vertex -37.31621552 70.97173309 257.3121338
vertex -36.64170074 71.34572601 256.8301392

endloop
endfacet
facet normal 0.1022921354 -0.8501515985 -0.5165060163
outer loop
vertex -36.64170074 71.34572601 256.8301392
vertex -37.31621552 70.97173309 257.3121338
vertex -37.36733246 71.26815033 256.8141174

endloop
endfacet
facet normal 0.1010578722 -0.8329055309 -0.5441100597
outer loop
vertex -36.64170074 71.34572601 256.8301392
vertex -37.36733246 71.26815033 256.8141174
vertex -36.64228058 71.58821869 256.4588318

endloop
endfacet
facet normal 0.06047412008 -0.7998467684 -0.5971499085
outer loop
vertex -36.64228058 71.58821869 256.4588318
vertex -37.36733246 71.26815033 256.8141174
vertex -37.3314743 71.60124969 256.371582

endloop
endfacet
facet normal 0.06286231428 -0.7870873809 -0.6136299968
outer loop
vertex -36.64226532 71.58824921 256.4588318
vertex -37.3314743 71.60124969 256.3715515
vertex -36.66632843 71.85417938 256.1152649

endloop
endfacet
facet normal 0.03781246394 -0.7585676908 -0.6504962444
outer loop
vertex -36.66632843 71.85417938 256.1152649
vertex -37.3314743 71.60124969 256.3715515
vertex -37.26515961 71.89043427 256.0381775

endloop
endfacet
facet normal 0.1362530142 0.178610757 -0.974439919
outer loop
vertex -36.66632843 71.85417938 256.1152649
vertex -37.26515961 71.89043427 256.0381775
vertex -36.92139435 72.49895477 256.1977844

endloop
endfacet
facet normal -nan(ind) -nan(ind) -nan(ind)
outer loop
vertex -36.92139435 72.49895477 256.1977844
vertex -37.26515961 71.89043427 256.0381775
vertex -36.92139435 72.49895477 256.1977844

endloop
endfacet
endsolid
