solid 
facet normal -nan(ind) -nan(ind) -nan(ind)
outer loop
vertex -59.52109528 15.22116947 258.0877991
vertex -59.52109528 15.22116947 258.0877991
vertex -59.53922272 15.97029877 257.4613342

endloop
endfacet
facet normal -0.6996894479 -0.4682106376 -0.5396419764
outer loop
vertex -59.53922272 15.97029877 257.4613342
vertex -59.52109528 15.22116947 258.0877991
vertex -59.91371918 16.05963898 257.8693848

endloop
endfacet
facet normal -0.7074620128 0.1689125597 -0.6862697005
outer loop
vertex -59.53922272 15.97029877 257.4613342
vertex -59.91371918 16.05963898 257.8693848
vertex -59.33216095 16.8713913 257.4696655

endloop
endfacet
facet normal -0.7160724401 0.1810562313 -0.674135685
outer loop
vertex -59.33216095 16.8713913 257.4696655
vertex -59.91371918 16.05963898 257.8693848
vertex -59.71291351 16.960289 257.8979797

endloop
endfacet
facet normal -0.7201690674 0.1637772322 -0.6741910577
outer loop
vertex -59.33216095 16.8713913 257.4696655
vertex -59.71291351 16.960289 257.8979797
vertex -59.14368439 17.71537018 257.4733582

endloop
endfacet
facet normal -0.719702065 0.163045153 -0.6748667955
outer loop
vertex -59.14368439 17.71537018 257.4733582
vertex -59.71291351 16.960289 257.8979797
vertex -59.52347565 17.79813385 257.8983765

endloop
endfacet
facet normal -0.7218487263 0.1532307565 -0.6748739481
outer loop
vertex -59.14368439 17.71537018 257.4733582
vertex -59.52347565 17.79813385 257.8983765
vertex -58.94438934 18.64548492 257.4713745

endloop
endfacet
facet normal -0.7137457132 0.1421755701 -0.6858230233
outer loop
vertex -58.94438934 18.64548492 257.4713745
vertex -59.52347565 17.79813385 257.8983765
vertex -59.33249664 18.72199249 257.8911438

endloop
endfacet
facet normal -0.7080985308 0.169234395 -0.6855335236
outer loop
vertex -58.94438934 18.64548492 257.4713745
vertex -59.33249664 18.72199249 257.8911438
vertex -58.71961212 19.60131073 257.4751587

endloop
endfacet
facet normal -0.6679934859 0.1179967299 -0.7347527146
outer loop
vertex -58.71961212 19.60131073 257.4751587
vertex -59.33249664 18.72199249 257.8911438
vertex -59.13593292 19.67247772 257.8650818

endloop
endfacet
facet normal -0.6475071311 0.2160840482 -0.7307818532
outer loop
vertex -58.71961212 19.60131073 257.4751587
vertex -59.13593292 19.67247772 257.8650818
vertex -58.44149017 20.55454254 257.5105896

endloop
endfacet
facet normal -0.5258253813 0.07340992242 -0.8474187255
outer loop
vertex -58.44149017 20.55454254 257.5105896
vertex -59.13593292 19.67247772 257.8650818
vertex -58.91687775 20.61975861 257.8112183

endloop
endfacet
facet normal -0.4884720147 0.2677032351 -0.8304999471
outer loop
vertex -58.44149017 20.55454254 257.5105896
vertex -58.91687775 20.61975861 257.8112183
vertex -58.12068939 21.49938202 257.6264648

endloop
endfacet
facet normal -0.2342835516 0.007876434363 -0.9721363783
outer loop
vertex -58.12068939 21.49938202 257.6264648
vertex -58.91687775 20.61975861 257.8112183
vertex -58.66080475 21.55846405 257.7571106

endloop
endfacet
facet normal -0.1991508156 0.2656937242 -0.9432633519
outer loop
vertex -58.12068939 21.49936676 257.6264343
vertex -58.66080475 21.55844879 257.7571106
vertex -57.84775543 22.44197845 257.8343201

endloop
endfacet
facet normal 0.1165582687 -0.02048685215 -0.9929725528
outer loop
vertex -57.84775543 22.44197845 257.8343201
vertex -58.66080475 21.55844879 257.7571106
vertex -58.40325165 22.49571991 257.7680054

endloop
endfacet
facet normal 0.134511143 0.19041197 -0.9724453688
outer loop
vertex -57.84775543 22.44197845 257.8343201
vertex -58.40325165 22.49571991 257.7680054
vertex -57.69116974 23.39211273 258.0420227

endloop
endfacet
facet normal 0.3508445323 0.007542112377 -0.9364033937
outer loop
vertex -57.69116974 23.39211273 258.0420227
vertex -58.40325165 22.49571991 257.7680054
vertex -58.22605133 23.43714142 257.84198

endloop
endfacet
facet normal 0.3555340469 0.09137958288 -0.9301856756
outer loop
vertex -57.69116974 23.39212799 258.0420227
vertex -58.22603607 23.43715668 257.8420105
vertex -57.63819122 24.35218048 258.1565857

endloop
endfacet
facet normal 0.4105753601 0.04924976826 -0.9104956388
outer loop
vertex -57.63819122 24.35218048 258.1565857
vertex -58.22603607 23.43715668 257.8420105
vertex -58.16526031 24.38271332 257.9205627

endloop
endfacet
facet normal 0.4103262722 0.04088130593 -0.9110219479
outer loop
vertex -57.63819122 24.35218048 258.1565857
vertex -58.16526031 24.38271332 257.9205627
vertex -57.63448334 25.31874847 258.2016296

endloop
endfacet
facet normal 0.3809526861 0.06100804731 -0.9225795865
outer loop
vertex -57.63448334 25.31874847 258.2016296
vertex -58.16526031 24.38271332 257.9205627
vertex -58.19779205 25.33162689 257.9698792

endloop
endfacet
facet normal 0.380877614 0.07335626334 -0.921710968
outer loop
vertex -57.63448334 25.31874847 258.2016296
vertex -58.19779205 25.33162689 257.9698792
vertex -57.63787079 26.28920746 258.2774658

endloop
endfacet
facet normal 0.4192874134 0.04607021436 -0.9066838026
outer loop
vertex -57.63787079 26.28920746 258.2774658
vertex -58.19779205 25.33162689 257.9698792
vertex -58.2297287 26.28534698 258.0035706

endloop
endfacet
facet normal 0.4151860178 0.1385468841 -0.8991246819
outer loop
vertex -57.63787079 26.28920746 258.2774658
vertex -58.2297287 26.28534698 258.0035706
vertex -57.67220306 27.26152802 258.411438

endloop
endfacet
facet normal 0.5195970535 0.05936971307 -0.8523462415
outer loop
vertex -57.67220306 27.26152802 258.411438
vertex -58.2297287 26.28534698 258.0035706
vertex -58.23915863 27.24106598 258.0643921

endloop
endfacet
facet normal 0.5063575506 0.1993296742 -0.8389694691
outer loop
vertex -57.67218781 27.26154327 258.411438
vertex -58.23914337 27.24108124 258.0643921
vertex -57.82158661 28.22562408 258.5503235

endloop
endfacet
facet normal 0.4819078445 0.2148795128 -0.849465549
outer loop
vertex -57.82158661 28.22562408 258.5503235
vertex -58.23914337 27.24108124 258.0643921
vertex -58.39644623 28.18296051 258.2134094

endloop
endfacet
facet normal 0.4574407935 0.3364886045 -0.8231180906
outer loop
vertex -57.82158661 28.22562408 258.5503235
vertex -58.39644623 28.18296051 258.2134094
vertex -58.07367706 29.15979767 258.7921143

endloop
endfacet
facet normal 0.3888607025 0.3710812032 -0.8432591558
outer loop
vertex -58.07367706 29.15979767 258.7921143
vertex -58.39644623 28.18296051 258.2134094
vertex -58.66539764 29.09296417 258.4898376

endloop
endfacet
facet normal 0.3617668748 0.4612633288 -0.8101609945
outer loop
vertex -58.07367706 29.15979767 258.7921143
vertex -58.66539764 29.09296417 258.4898376
vertex -58.38863373 30.04520416 259.1555786

endloop
endfacet
facet normal 0.2857445776 0.49192366 -0.8224117756
outer loop
vertex -58.38863373 30.04520416 259.1555786
vertex -58.66539764 29.09296417 258.4898376
vertex -58.99660492 29.96050262 258.8936768

endloop
endfacet
facet normal 0.2719200253 0.5305936933 -0.8028261662
outer loop
vertex -58.38863373 30.04520416 259.1555786
vertex -58.99660492 29.96050262 258.8936768
vertex -58.70929718 30.87220001 259.5935364

endloop
endfacet
facet normal 0.1876770109 0.5602032542 -0.8068144917
outer loop
vertex -58.70929718 30.87220001 259.5935364
vertex -58.99660492 29.96050262 258.8936768
vertex -59.33423615 30.77899933 259.3834534

endloop
endfacet
facet normal 0.1936733127 0.543066442 -0.8170493245
outer loop
vertex -58.70929718 30.87220001 259.5935364
vertex -59.33423615 30.77899933 259.3834534
vertex -58.97879791 31.62593842 260.0306396

endloop
endfacet
facet normal 0.09755254537 0.5781038404 -0.8101108074
outer loop
vertex -58.97879791 31.62593842 260.0306396
vertex -59.33423615 30.77899933 259.3834534
vertex -59.62517548 31.53093719 259.8850098

endloop
endfacet
facet normal 0.1258192509 0.477042377 -0.8698276281
outer loop
vertex -58.97878265 31.62593842 260.0306396
vertex -59.62516022 31.53093719 259.8850403
vertex -59.16542816 32.46360016 260.4630432

endloop
endfacet
facet normal 0.07302585244 0.4991150498 -0.8634531498
outer loop
vertex -59.16542816 32.46360016 260.4630432
vertex -59.62516022 31.53093719 259.8850403
vertex -59.78339386 32.38327789 260.3643494

endloop
endfacet
facet normal -0.04646739736 0.8971779943 -0.4392179549
outer loop
vertex -59.16542816 32.46360016 260.4630432
vertex -59.78339386 32.38327789 260.3643494
vertex -59.61240387 32.78075409 261.1581726

endloop
endfacet
facet normal -nan(ind) -nan(ind) -nan(ind)
outer loop
vertex -59.61240387 32.78075409 261.1581726
vertex -59.78339386 32.38327789 260.3643494
vertex -59.61240387 32.78075409 261.1581726

endloop
endfacet
facet normal 0 -0.2520794868 -0.9677065015
outer loop
vertex -59.52109528 15.22116947 258.0877991
vertex -59.52111053 15.22116947 258.0877991
vertex -59.91371918 16.05963898 257.8693848

endloop
endfacet
facet normal -0.8981211782 -0.4358189106 -0.05865333602
outer loop
vertex -59.91371918 16.05963898 257.8693848
vertex -59.52111053 15.22116947 258.0877991
vertex -59.94069672 16.06649017 258.2315674

endloop
endfacet
facet normal -0.9726483226 0.219290033 -0.07659687847
outer loop
vertex -59.91371918 16.05963898 257.8693848
vertex -59.94069672 16.06649017 258.2315674
vertex -59.71291351 16.960289 257.8979797

endloop
endfacet
facet normal -0.9712470174 0.2360989153 -0.03060309961
outer loop
vertex -59.71291351 16.960289 257.8979797
vertex -59.94069672 16.06649017 258.2315674
vertex -59.72403717 16.96329498 258.2742004

endloop
endfacet
facet normal -0.9749196768 0.2204451561 -0.03058663756
outer loop
vertex -59.71291351 16.960289 257.8979797
vertex -59.72403717 16.96329498 258.2742004
vertex -59.52347565 17.79813385 257.8983765

endloop
endfacet
facet normal -0.9749499559 0.2202478349 -0.03104101866
outer loop
vertex -59.52347565 17.79813385 257.8983765
vertex -59.72403717 16.96329498 258.2742004
vertex -59.53475189 17.80088043 258.2720337

endloop
endfacet
facet normal -0.9788716435 0.2021083385 -0.03102603741
outer loop
vertex -59.52347565 17.79813385 257.8983765
vertex -59.53475189 17.80088043 258.2720337
vertex -59.33249664 18.72199249 257.8911438

endloop
endfacet
facet normal -0.979508996 0.1961030662 -0.04588711262
outer loop
vertex -59.33249664 18.72199249 257.8911438
vertex -59.53475189 17.80088043 258.2720337
vertex -59.34951019 18.72451019 258.2650757

endloop
endfacet
facet normal -0.9784962535 0.2010986358 -0.04587466642
outer loop
vertex -59.33249664 18.72199249 257.8911438
vertex -59.34951019 18.72451019 258.2650757
vertex -59.13593292 19.67247772 257.8650818

endloop
endfacet
facet normal -0.9783710241 0.1718309969 -0.115170747
outer loop
vertex -59.13593292 19.67247772 257.8650818
vertex -59.34951019 18.72451019 258.2650757
vertex -59.17914581 19.67481232 258.2356567

endloop
endfacet
facet normal -0.9693008661 0.217642203 -0.1144016832
outer loop
vertex -59.13593292 19.67247772 257.8650818
vertex -59.17914581 19.67481232 258.2356567
vertex -58.91687775 20.61975861 257.8112183

endloop
endfacet
facet normal -0.9460093379 0.1289963722 -0.2973656356
outer loop
vertex -58.91687775 20.61975861 257.8112183
vertex -59.17914581 19.67481232 258.2356567
vertex -59.02681732 20.62189484 258.1618958

endloop
endfacet
facet normal -0.9268403649 0.23600474 -0.2920078933
outer loop
vertex -58.91687775 20.61975861 257.8112183
vertex -59.02681732 20.62189484 258.1618958
vertex -58.66080475 21.55846405 257.7571106

endloop
endfacet
facet normal -0.8069736362 0.06150241196 -0.5873763561
outer loop
vertex -58.66080475 21.55846405 257.7571106
vertex -59.02681732 20.62189484 258.1618958
vertex -58.8741684 21.56040192 258.0504456

endloop
endfacet
facet normal -0.7875800133 0.223096326 -0.5744089484
outer loop
vertex -58.66080475 21.55844879 257.7571106
vertex -58.8741684 21.56040192 258.050415
vertex -58.40325165 22.49571991 257.7680054

endloop
endfacet
facet normal -0.5533601642 0.02724369243 -0.8324964046
outer loop
vertex -58.40325165 22.49571991 257.7680054
vertex -58.8741684 21.56040192 258.050415
vertex -58.70705414 22.49750519 257.9700012

endloop
endfacet
facet normal -0.5452039242 0.1671705544 -0.8214662075
outer loop
vertex -58.40325165 22.49571991 257.7680054
vertex -58.70705414 22.49750519 257.9700012
vertex -58.22605133 23.43714142 257.84198

endloop
endfacet
facet normal -0.3413117528 0.04681350291 -0.9387837052
outer loop
vertex -58.22605133 23.43714142 257.84198
vertex -58.70705414 22.49750519 257.9700012
vertex -58.57553864 23.43862152 257.9691162

endloop
endfacet
facet normal -0.3397917747 0.0995336026 -0.9352189898
outer loop
vertex -58.22603607 23.43715668 257.8420105
vertex -58.57552338 23.43863678 257.9691467
vertex -58.16526031 24.38271332 257.9205627

endloop
endfacet
facet normal -0.2828980386 0.07372404635 -0.956312418
outer loop
vertex -58.16526031 24.38271332 257.9205627
vertex -58.57552338 23.43863678 257.9691467
vertex -58.52341461 24.38359833 258.0265808

endloop
endfacet
facet normal -0.2835188508 0.04007542133 -0.9581288695
outer loop
vertex -58.16526031 24.38271332 257.9205627
vertex -58.52341461 24.38359833 258.0265808
vertex -58.19779205 25.33162689 257.9698792

endloop
endfacet
facet normal -0.3313268721 0.05747499317 -0.9417638779
outer loop
vertex -58.19779205 25.33162689 257.9698792
vertex -58.52341461 24.38359833 258.0265808
vertex -58.53621674 25.32939911 258.0888062

endloop
endfacet
facet normal -0.3315865099 0.02221483551 -0.9431631565
outer loop
vertex -58.19779205 25.33162689 257.9698792
vertex -58.53621674 25.32939911 258.0888062
vertex -58.2297287 26.28534698 258.0035706

endloop
endfacet
facet normal -0.3174982965 0.01725764386 -0.9481018186
outer loop
vertex -58.2297287 26.28534698 258.0035706
vertex -58.53621674 25.32939911 258.0888062
vertex -58.54195404 26.27338409 258.1079102

endloop
endfacet
facet normal -0.318400532 0.05707645416 -0.946236372
outer loop
vertex -58.2297287 26.28534698 258.0035706
vertex -58.54195404 26.27338409 258.1079102
vertex -58.23915863 27.24106598 258.0643921

endloop
endfacet
facet normal -0.1816515774 0.01262061018 -0.9832819104
outer loop
vertex -58.23915863 27.24106598 258.0643921
vertex -58.54195404 26.27338409 258.1079102
vertex -58.5449295 27.2077713 258.1204529

endloop
endfacet
facet normal -0.1919212192 0.1220142841 -0.97379601
outer loop
vertex -58.23914337 27.24108124 258.0643921
vertex -58.54491425 27.20778656 258.1204834
vertex -58.39644623 28.18296051 258.2134094

endloop
endfacet
facet normal -0.2079125196 0.1241102144 -0.9702416658
outer loop
vertex -58.39644623 28.18296051 258.2134094
vertex -58.54491425 27.20778656 258.1204834
vertex -58.69390106 28.11504364 258.2684631

endloop
endfacet
facet normal -0.2261098474 0.2213328183 -0.9486231804
outer loop
vertex -58.39644623 28.18296051 258.2134094
vertex -58.69390106 28.11504364 258.2684631
vertex -58.66539764 29.09296417 258.4898376

endloop
endfacet
facet normal -0.2951194346 0.2191269547 -0.9299934506
outer loop
vertex -58.66539764 29.09296417 258.4898376
vertex -58.69390106 28.11504364 258.2684631
vertex -58.94942474 28.98670197 258.5549316

endloop
endfacet
facet normal -0.3177137673 0.2977568805 -0.9002215862
outer loop
vertex -58.66539764 29.09296417 258.4898376
vertex -58.94942474 28.98670197 258.5549316
vertex -58.99660492 29.96050262 258.8936768

endloop
endfacet
facet normal -0.3884348869 0.2859049439 -0.8760004044
outer loop
vertex -58.99660492 29.96050262 258.8936768
vertex -58.94942474 28.98670197 258.5549316
vertex -59.26613617 29.825737 258.9692078

endloop
endfacet
facet normal -0.4072922766 0.3393657506 -0.8479055762
outer loop
vertex -58.99660492 29.96050262 258.8936768
vertex -59.26613617 29.825737 258.9692078
vertex -59.33423615 30.77899933 259.3834534

endloop
endfacet
facet normal -0.4789373577 0.3208641708 -0.8171078563
outer loop
vertex -59.33423615 30.77899933 259.3834534
vertex -59.26613617 29.825737 258.9692078
vertex -59.59082794 30.63069916 259.4756165

endloop
endfacet
facet normal -0.4877958894 0.3458845913 -0.8015105128
outer loop
vertex -59.33423615 30.77899933 259.3834534
vertex -59.59082794 30.63069916 259.4756165
vertex -59.62517548 31.53093719 259.8850098

endloop
endfacet
facet normal -0.5623351336 0.3244381249 -0.7606044412
outer loop
vertex -59.62517548 31.53093719 259.8850098
vertex -59.59082794 30.63069916 259.4756165
vertex -59.87177277 31.37953949 260.0027466

endloop
endfacet
facet normal -0.5619923472 0.3237074912 -0.7611688972
outer loop
vertex -59.62516022 31.53093719 259.8850403
vertex -59.87178802 31.37953949 260.0027466
vertex -59.78339386 32.38327789 260.3643494

endloop
endfacet
facet normal -0.5649189949 0.3232533336 -0.7591928244
outer loop
vertex -59.78339386 32.38327789 260.3643494
vertex -59.87178802 31.37953949 260.0027466
vertex -60.03379059 32.24033356 260.4898071

endloop
endfacet
facet normal -0.574569881 0.7746671438 -0.2641218305
outer loop
vertex -59.78339386 32.38327789 260.3643494
vertex -60.03379059 32.24033356 260.4898071
vertex -59.61240387 32.78075409 261.1581726

endloop
endfacet
facet normal 0.4003276229 -0.8196281195 0.4098140597
outer loop
vertex -59.61240387 32.78075409 261.1581726
vertex -60.03379059 32.24033356 260.4898071
vertex -59.61240387 32.78073883 261.1581421

endloop
endfacet
facet normal 0 -0.1676678061 0.9858435988
outer loop
vertex -59.52111053 15.22116947 258.0877991
vertex -59.52109528 15.22116947 258.0877991
vertex -59.94069672 16.06649017 258.2315674

endloop
endfacet
facet normal -0.8047181964 -0.4627037346 0.371932596
outer loop
vertex -59.94069672 16.06649017 258.2315674
vertex -59.52109528 15.22116947 258.0877991
vertex -59.79872894 16.03314972 258.4972534

endloop
endfacet
facet normal -0.8570970893 0.1841956526 0.4810991585
outer loop
vertex -59.94069672 16.06649017 258.2315674
vertex -59.79872894 16.03314972 258.4972534
vertex -59.72403717 16.96329498 258.2742004

endloop
endfacet
facet normal -0.8123189211 0.1968776286 0.5489782691
outer loop
vertex -59.72403717 16.96329498 258.2742004
vertex -59.79872894 16.03314972 258.4972534
vertex -59.56076813 16.92571259 258.5292664

endloop
endfacet
facet normal -0.8149551153 0.1855912954 0.5490028262
outer loop
vertex -59.72403717 16.96329498 258.2742004
vertex -59.56076813 16.92571259 258.5292664
vertex -59.53475189 17.80088043 258.2720337

endloop
endfacet
facet normal -0.8148581386 0.1856271178 0.5491346121
outer loop
vertex -59.53475189 17.80088043 258.2720337
vertex -59.56076813 16.92571259 258.5292664
vertex -59.37213898 17.76584625 258.525177

endloop
endfacet
facet normal -0.8186030388 0.1683145911 0.549144268
outer loop
vertex -59.53475189 17.80088043 258.2720337
vertex -59.37213898 17.76584625 258.525177
vertex -59.34951019 18.72451019 258.2650757

endloop
endfacet
facet normal -0.8275732994 0.1651035547 0.5365288258
outer loop
vertex -59.34951019 18.72451019 258.2650757
vertex -59.37213898 17.76584625 258.525177
vertex -59.19001007 18.6921463 258.5210571

endloop
endfacet
facet normal -0.8275987506 0.1649764329 0.5365286469
outer loop
vertex -59.34951019 18.72451019 258.2650757
vertex -59.19001007 18.6921463 258.5210571
vertex -59.17914581 19.67481232 258.2356567

endloop
endfacet
facet normal -0.866507411 0.1480328143 0.47670874
outer loop
vertex -59.17914581 19.67481232 258.2356567
vertex -59.19001007 18.6921463 258.5210571
vertex -59.03809357 19.64467621 258.5014038

endloop
endfacet
facet normal -0.8611665368 0.1756602079 0.4770069122
outer loop
vertex -59.17914581 19.67481232 258.2356567
vertex -59.03809357 19.64467621 258.5014038
vertex -59.02681732 20.62189484 258.1618958

endloop
endfacet
facet normal -0.9449182153 0.1170917079 0.3056453764
outer loop
vertex -59.02681732 20.62189484 258.1618958
vertex -59.03809357 19.64467621 258.5014038
vertex -58.93865204 20.59429169 258.4450378

endloop
endfacet
facet normal -0.9323433042 0.1883020103 0.3086720407
outer loop
vertex -59.02681732 20.62189484 258.1618958
vertex -58.93865204 20.59429169 258.4450378
vertex -58.8741684 21.56040192 258.0504456

endloop
endfacet
facet normal -0.9980739355 0.05962985009 -0.01710738987
outer loop
vertex -58.8741684 21.56040192 258.0504456
vertex -58.93865204 20.59429169 258.4450378
vertex -58.8806839 21.53536224 258.3432922

endloop
endfacet
facet normal -0.9845476747 0.1749792844 -0.006942837965
outer loop
vertex -58.8741684 21.56040192 258.050415
vertex -58.8806839 21.53536224 258.3432922
vertex -58.70705414 22.49750519 257.9700012

endloop
endfacet
facet normal -0.9304469824 0.02610534616 -0.3654955626
outer loop
vertex -58.70705414 22.49750519 257.9700012
vertex -58.8806839 21.53536224 258.3432922
vertex -58.81539154 22.47473907 258.2441711

endloop
endfacet
facet normal -0.9258639812 0.1290501058 -0.3551364839
outer loop
vertex -58.70705414 22.49750519 257.9700012
vertex -58.81539154 22.47473907 258.2441711
vertex -58.57553864 23.43862152 257.9691162

endloop
endfacet
facet normal -0.8188484907 0.04036794975 -0.5725883842
outer loop
vertex -58.57553864 23.43862152 257.9691162
vertex -58.81539154 22.47473907 258.2441711
vertex -58.74849701 23.41957855 258.2151184

endloop
endfacet
facet normal -0.8183349371 0.07972080261 -0.569185853
outer loop
vertex -58.57552338 23.43863678 257.9691467
vertex -58.74848175 23.41960907 258.2151489
vertex -58.52341461 24.38359833 258.0265808

endloop
endfacet
facet normal -0.7815983295 0.06104987487 -0.6207872629
outer loop
vertex -58.52341461 24.38359833 258.0265808
vertex -58.74848175 23.41960907 258.2151489
vertex -58.71167755 24.37055206 258.2623291

endloop
endfacet
facet normal -0.7818696499 0.03038502485 -0.6227009296
outer loop
vertex -58.52341461 24.38359833 258.0265808
vertex -58.71167755 24.37055206 258.2623291
vertex -58.53621674 25.32939911 258.0888062

endloop
endfacet
facet normal -0.7923263311 0.03475866839 -0.6091065407
outer loop
vertex -58.53621674 25.32939911 258.0888062
vertex -58.71167755 24.37055206 258.2623291
vertex -58.70664215 25.32120514 258.3100281

endloop
endfacet
facet normal -0.7922953963 0.007531414274 -0.6100912094
outer loop
vertex -58.53621674 25.32939911 258.0888062
vertex -58.70664215 25.32120514 258.3100281
vertex -58.54195404 26.27338409 258.1079102

endloop
endfacet
facet normal -0.7501747012 -0.01059294865 -0.6611548662
outer loop
vertex -58.54195404 26.27338409 258.1079102
vertex -58.70664215 25.32120514 258.3100281
vertex -58.70281219 26.26139069 258.2906189

endloop
endfacet
facet normal -0.7507568598 0.00647612242 -0.6605468988
outer loop
vertex -58.54195404 26.27338409 258.1079102
vertex -58.70281219 26.26139069 258.2906189
vertex -58.5449295 27.2077713 258.1204529

endloop
endfacet
facet normal -0.6495344043 -0.02825827524 -0.7598069906
outer loop
vertex -58.5449295 27.2077713 258.1204529
vertex -58.70281219 26.26139069 258.2906189
vertex -58.72194672 27.17713165 258.2729187

endloop
endfacet
facet normal -0.6541056037 0.0159319751 -0.7562354207
outer loop
vertex -58.54491425 27.20778656 258.1204834
vertex -58.72193146 27.17716217 258.2729492
vertex -58.69390106 28.11504364 258.2684631

endloop
endfacet
facet normal -0.668817997 0.01643382013 -0.7432445288
outer loop
vertex -58.69390106 28.11504364 258.2684631
vertex -58.72193146 27.17716217 258.2729492
vertex -58.86296844 28.05260468 258.41922

endloop
endfacet
facet normal -0.6740215421 0.04474299774 -0.7373553514
outer loop
vertex -58.69390106 28.11504364 258.2684631
vertex -58.86296844 28.05260468 258.41922
vertex -58.94942474 28.98670197 258.5549316

endloop
endfacet
facet normal -0.7229724526 0.03334264085 -0.6900717616
outer loop
vertex -58.94942474 28.98670197 258.5549316
vertex -58.86296844 28.05260468 258.41922
vertex -59.09937286 28.88895416 258.7073059

endloop
endfacet
facet normal -0.7304878235 0.06014827639 -0.6802717447
outer loop
vertex -58.94942474 28.98670197 258.5549316
vertex -59.09937286 28.88895416 258.7073059
vertex -59.26613617 29.825737 258.9692078

endloop
endfacet
facet normal -0.7766097784 0.03756459057 -0.6288609505
outer loop
vertex -59.26613617 29.825737 258.9692078
vertex -59.09937286 28.88895416 258.7073059
vertex -59.39591217 29.70178986 259.1220703

endloop
endfacet
facet normal -0.7871365547 0.06814388931 -0.6130028963
outer loop
vertex -59.26613617 29.825737 258.9692078
vertex -59.39591217 29.70178986 259.1220703
vertex -59.59082794 30.63069916 259.4756165

endloop
endfacet
facet normal -0.8306555152 0.03714395687 -0.5555462837
outer loop
vertex -59.59082794 30.63069916 259.4756165
vertex -59.39591217 29.70178986 259.1220703
vertex -59.70189667 30.4943161 259.6325684

endloop
endfacet
facet normal -0.8400201797 0.06409279257 -0.5387561321
outer loop
vertex -59.59082794 30.63069916 259.4756165
vertex -59.70189667 30.4943161 259.6325684
vertex -59.87177277 31.37953949 260.0027466

endloop
endfacet
facet normal -0.8810495734 0.02837545983 -0.4721721411
outer loop
vertex -59.87177277 31.37953949 260.0027466
vertex -59.70189667 30.4943161 259.6325684
vertex -59.96613312 31.24013519 260.1704407

endloop
endfacet
facet normal -0.8955301642 0.07923039049 -0.437890619
outer loop
vertex -59.87178802 31.37953949 260.0027466
vertex -59.96613312 31.24015045 260.1704712
vertex -60.03379059 32.24033356 260.4898071

endloop
endfacet
facet normal -0.8911222816 0.08219942451 -0.4462559521
outer loop
vertex -60.03379059 32.24033356 260.4898071
vertex -59.96613312 31.24015045 260.1704712
vertex -60.1354599 32.09824371 260.6666565

endloop
endfacet
facet normal -0.8006933331 0.5987158418 0.02072666958
outer loop
vertex -60.03379059 32.24033356 260.4898071
vertex -60.1354599 32.09824371 260.6666565
vertex -59.61240387 32.78073883 261.1581421

endloop
endfacet
facet normal -0.7201736569 0.6730418801 -0.168417573
outer loop
vertex -59.61240387 32.78073883 261.1581421
vertex -60.1354599 32.09824371 260.6666565
vertex -59.61240387 32.78075409 261.1582031

endloop
endfacet
facet normal -nan(ind) -nan(ind) -nan(ind)
outer loop
vertex -59.52109528 15.22116947 258.0877991
vertex -59.52109528 15.22116947 258.0877991
vertex -59.79872894 16.03314972 258.4972534

endloop
endfacet
facet normal -0.5760406852 -0.516462028 0.6335961819
outer loop
vertex -59.79872894 16.03314972 258.4972534
vertex -59.52109528 15.22116947 258.0877991
vertex -59.58132172 15.98178864 258.6530457

endloop
endfacet
facet normal -0.5594440699 0.1197333783 0.8201744556
outer loop
vertex -59.79872894 16.03314972 258.4972534
vertex -59.58132172 15.98178864 258.6530457
vertex -59.56076813 16.92571259 258.5292664

endloop
endfacet
facet normal -0.5016672015 0.123204954 0.8562421203
outer loop
vertex -59.56076813 16.92571259 258.5292664
vertex -59.58132172 15.98178864 258.6530457
vertex -59.34996796 16.8769455 258.65979

endloop
endfacet
facet normal -0.5030871034 0.117122367 0.8562626839
outer loop
vertex -59.56076813 16.92571259 258.5292664
vertex -59.34996796 16.8769455 258.65979
vertex -59.37213898 17.76584625 258.525177

endloop
endfacet
facet normal -0.5031301379 0.1171175614 0.8562380075
outer loop
vertex -59.37213898 17.76584625 258.525177
vertex -59.34996796 16.8769455 258.65979
vertex -59.16254425 17.72048187 258.654541

endloop
endfacet
facet normal -0.5061233044 0.1033221632 0.8562498093
outer loop
vertex -59.37213898 17.76584625 258.525177
vertex -59.16254425 17.72048187 258.654541
vertex -59.19001007 18.6921463 258.5210571

endloop
endfacet
facet normal -0.5193203688 0.1018823832 0.8484847546
outer loop
vertex -59.19001007 18.6921463 258.5210571
vertex -59.16254425 17.72048187 258.654541
vertex -58.98139191 18.65021515 258.6537781

endloop
endfacet
facet normal -0.5196197629 0.1003792956 0.8484805822
outer loop
vertex -59.19001007 18.6921463 258.5210571
vertex -58.98139191 18.65021515 258.6537781
vertex -59.03809357 19.64467621 258.5014038

endloop
endfacet
facet normal -0.5798056126 0.09099901468 0.8096570969
outer loop
vertex -59.03809357 19.64467621 258.5014038
vertex -58.98139191 18.65021515 258.6537781
vertex -58.83940887 19.60564423 258.6480713

endloop
endfacet
facet normal -0.5765231848 0.1084422842 0.8098526597
outer loop
vertex -59.03809357 19.64467621 258.5014038
vertex -58.83940887 19.60564423 258.6480713
vertex -58.93865204 20.59429169 258.4450378

endloop
endfacet
facet normal -0.7242309451 0.06821592897 0.6861749887
outer loop
vertex -58.93865204 20.59429169 258.4450378
vertex -58.83940887 19.60564423 258.6480713
vertex -58.77275848 20.55852509 258.6236877

endloop
endfacet
facet normal -0.7156799436 0.1185015589 0.6883019805
outer loop
vertex -58.93865204 20.59429169 258.4450378
vertex -58.77275848 20.55852509 258.6236877
vertex -58.8806839 21.53536224 258.3432922

endloop
endfacet
facet normal -0.9100494385 0.01831709966 0.4140946865
outer loop
vertex -58.8806839 21.53536224 258.3432922
vertex -58.77275848 20.55852509 258.6236877
vertex -58.78141022 21.50298309 258.5628967

endloop
endfacet
facet normal -0.8999483585 0.1071464345 0.4226257205
outer loop
vertex -58.8806839 21.53536224 258.3432922
vertex -58.78141022 21.50298309 258.5628967
vertex -58.81539154 22.47473907 258.2441711

endloop
endfacet
facet normal -0.9975603223 -0.01234770566 0.06870946288
outer loop
vertex -58.81539154 22.47473907 258.2441711
vertex -58.78141022 21.50298309 258.5628967
vertex -58.79834747 22.44525909 258.4863281

endloop
endfacet
facet normal -0.9942241907 0.07281527668 0.07884231955
outer loop
vertex -58.81539154 22.47473907 258.2441711
vertex -58.79834747 22.44525909 258.4863281
vertex -58.74849701 23.41957855 258.2151184

endloop
endfacet
facet normal -0.9862677455 0.004506953992 -0.1650924981
outer loop
vertex -58.74849701 23.41957855 258.2151184
vertex -58.79834747 22.44525909 258.4863281
vertex -58.78954315 23.39490509 258.4596558

endloop
endfacet
facet normal -0.9859035611 0.04613662139 -0.1608281136
outer loop
vertex -58.74848175 23.41960907 258.2151489
vertex -58.78952789 23.39492035 258.4596863
vertex -58.71167755 24.37055206 258.2623291

endloop
endfacet
facet normal -0.9743707776 0.03273002431 -0.2225540578
outer loop
vertex -58.71167755 24.37055206 258.2623291
vertex -58.78952789 23.39492035 258.4596863
vertex -58.76787567 24.35367584 258.5058899

endloop
endfacet
facet normal -0.9745156765 0.0163869299 -0.2237199098
outer loop
vertex -58.71167755 24.37055206 258.2623291
vertex -58.76787567 24.35367584 258.5058899
vertex -58.70664215 25.32120514 258.3100281

endloop
endfacet
facet normal -0.9797544479 0.02171829343 -0.1990215778
outer loop
vertex -58.70664215 25.32120514 258.3100281
vertex -58.76787567 24.35367584 258.5058899
vertex -58.75592804 25.31130219 258.5515747

endloop
endfacet
facet normal -0.9798103571 -0.0001359571179 -0.199928984
outer loop
vertex -58.70664215 25.32120514 258.3100281
vertex -58.75592804 25.31130219 258.5515747
vertex -58.70281219 26.26139069 258.2906189

endloop
endfacet
facet normal -0.9661708474 -0.01667363942 -0.2573631704
outer loop
vertex -58.70281219 26.26139069 258.2906189
vertex -58.75592804 25.31130219 258.5515747
vertex -58.76470184 26.24930573 258.5237427

endloop
endfacet
facet normal -0.9658895731 -0.02516397461 -0.2577286363
outer loop
vertex -58.70281219 26.26139069 258.2906189
vertex -58.76470184 26.24930573 258.5237427
vertex -58.72194672 27.17713165 258.2729187

endloop
endfacet
facet normal -0.9198526144 -0.06230872869 -0.3872838616
outer loop
vertex -58.72194672 27.17713165 258.2729187
vertex -58.76470184 26.24930573 258.5237427
vertex -58.81478119 27.14719391 258.49823

endloop
endfacet
facet normal -0.9175140262 -0.08282262832 -0.3889838755
outer loop
vertex -58.72193146 27.17716217 258.2729492
vertex -58.81475067 27.14722443 258.4982605
vertex -58.86296844 28.05260468 258.41922

endloop
endfacet
facet normal -0.9256903529 -0.08154732734 -0.3693878353
outer loop
vertex -58.86296844 28.05260468 258.41922
vertex -58.81475067 27.14722443 258.4982605
vertex -58.94696808 27.99175262 258.643158

endloop
endfacet
facet normal -0.9165246487 -0.128608197 -0.3787378967
outer loop
vertex -58.86296844 28.05260468 258.41922
vertex -58.94696808 27.99175262 258.643158
vertex -59.09937286 28.88895416 258.7073059

endloop
endfacet
facet normal -0.9387175441 -0.1368377954 -0.3163618743
outer loop
vertex -59.09937286 28.88895416 258.7073059
vertex -58.94696808 27.99175262 258.643158
vertex -59.15950775 28.79376984 258.9269104

endloop
endfacet
facet normal -0.9288378954 -0.1712085754 -0.3285540044
outer loop
vertex -59.09937286 28.88895416 258.7073059
vertex -59.15950775 28.79376984 258.9269104
vertex -59.39591217 29.70178986 259.1220703

endloop
endfacet
facet normal -0.945797801 -0.1895657331 -0.263687849
outer loop
vertex -59.39591217 29.70178986 259.1220703
vertex -59.15950775 28.79376984 258.9269104
vertex -59.4311142 29.58107758 259.3351135

endloop
endfacet
facet normal -0.9444407821 -0.1934951395 -0.2656900883
outer loop
vertex -59.39591217 29.70178986 259.1220703
vertex -59.4311142 29.58107758 259.3351135
vertex -59.70189667 30.4943161 259.6325684

endloop
endfacet
facet normal -0.9559270144 -0.2201758325 -0.1942320466
outer loop
vertex -59.70189667 30.4943161 259.6325684
vertex -59.4311142 29.58107758 259.3351135
vertex -59.71366119 30.36151886 259.8410034

endloop
endfacet
facet normal -0.9606758952 -0.2064120322 -0.185730949
outer loop
vertex -59.70189667 30.4943161 259.6325684
vertex -59.71366119 30.36151886 259.8410034
vertex -59.96613312 31.24013519 260.1704407

endloop
endfacet
facet normal -0.9655392766 -0.2377677411 -0.1058318093
outer loop
vertex -59.96613312 31.24013519 260.1704407
vertex -59.71366119 30.36151886 259.8410034
vertex -59.95558929 31.10427094 260.3794861

endloop
endfacet
facet normal -0.9851841927 -0.1622084379 -0.05568102747
outer loop
vertex -59.96613312 31.24015045 260.1704712
vertex -59.95557404 31.10427094 260.3794861
vertex -60.1354599 32.09824371 260.6666565

endloop
endfacet
facet normal -0.985165298 -0.1616393775 -0.05763899162
outer loop
vertex -60.1354599 32.09824371 260.6666565
vertex -59.95557404 31.10427094 260.3794861
vertex -60.12464142 31.95406342 260.8860779

endloop
endfacet
facet normal -0.8491231799 0.4212422669 0.3186610937
outer loop
vertex -60.1354599 32.09824371 260.6666565
vertex -60.12464142 31.95406342 260.8860779
vertex -59.61240387 32.78075409 261.1582031

endloop
endfacet
facet normal 0.8595256209 -0.4572222829 -0.228393212
outer loop
vertex -59.61240387 32.78075409 261.1582031
vertex -60.12464142 31.95406342 260.8860779
vertex -59.61240387 32.78076935 261.1581726

endloop
endfacet
facet normal -nan(ind) -nan(ind) -nan(ind)
outer loop
vertex -59.52109528 15.22116947 258.0877991
vertex -59.52109528 15.22116947 258.0877991
vertex -59.58132172 15.98178864 258.6530457

endloop
endfacet
facet normal -0.2450101674 -0.5907136202 0.7687830329
outer loop
vertex -59.58132172 15.98178864 258.6530457
vertex -59.52109528 15.22116947 258.0877991
vertex -59.32875824 15.92191315 258.6875305

endloop
endfacet
facet normal -0.1292028576 0.02592394501 0.991279304
outer loop
vertex -59.58132172 15.98178864 258.6530457
vertex -59.32875824 15.92191315 258.6875305
vertex -59.34996796 16.8769455 258.65979

endloop
endfacet
facet normal -0.08197360486 0.02711766213 0.9962655306
outer loop
vertex -59.34996796 16.8769455 258.65979
vertex -59.32875824 15.92191315 258.6875305
vertex -59.12262726 16.82419586 258.6799316

endloop
endfacet
facet normal -0.08257184178 0.02454598621 0.9962828159
outer loop
vertex -59.34996796 16.8769455 258.65979
vertex -59.12262726 16.82419586 258.6799316
vertex -59.16254425 17.72048187 258.654541

endloop
endfacet
facet normal -0.08298361301 0.0245266892 0.9962490201
outer loop
vertex -59.16254425 17.72048187 258.654541
vertex -59.12262726 16.82419586 258.6799316
vertex -58.93668365 17.6714859 258.6745605

endloop
endfacet
facet normal -0.08455469459 0.01729245856 0.9962687492
outer loop
vertex -59.16254425 17.72048187 258.654541
vertex -58.93668365 17.6714859 258.6745605
vertex -58.98139191 18.65021515 258.6537781

endloop
endfacet
facet normal -0.09982585907 0.01656510495 0.9948669672
outer loop
vertex -58.98139191 18.65021515 258.6537781
vertex -58.93668365 17.6714859 258.6745605
vertex -58.7547226 18.6049118 258.6772766

endloop
endfacet
facet normal -0.09900883585 0.02065574378 0.9948721528
outer loop
vertex -58.98139191 18.65021515 258.6537781
vertex -58.7547226 18.6049118 258.6772766
vertex -58.83940887 19.60564423 258.6480713

endloop
endfacet
facet normal -0.1702559143 0.0143470224 0.9852954745
outer loop
vertex -58.83940887 19.60564423 258.6480713
vertex -58.7547226 18.6049118 258.6772766
vertex -58.61513519 19.56348419 258.687439

endloop
endfacet
facet normal -0.1660526544 0.03683117405 0.9854288101
outer loop
vertex -58.83940887 19.60564423 258.6480713
vertex -58.61513519 19.56348419 258.687439
vertex -58.77275848 20.55852509 258.6236877

endloop
endfacet
facet normal -0.3526710868 0.004085556604 0.9357385039
outer loop
vertex -58.77275848 20.55852509 258.6236877
vertex -58.61513519 19.56348419 258.687439
vertex -58.56235504 20.51988983 258.7031555

endloop
endfacet
facet normal -0.3435449302 0.0571892336 0.9373933077
outer loop
vertex -58.77275848 20.55852509 258.6236877
vertex -58.56235504 20.51988983 258.7031555
vertex -58.78141022 21.50298309 258.5628967

endloop
endfacet
facet normal -0.6370349526 -0.03206513077 0.7701677084
outer loop
vertex -58.78141022 21.50298309 258.5628967
vertex -58.56235504 20.51988983 258.7031555
vertex -58.60923004 21.46800995 258.7038574

endloop
endfacet
facet normal -0.6262747645 0.05195187032 0.7778695226
outer loop
vertex -58.78141022 21.50298309 258.5628967
vertex -58.60923004 21.46800995 258.7038574
vertex -58.79834747 22.44525909 258.4863281

endloop
endfacet
facet normal -0.865442276 -0.05667512864 0.4977927506
outer loop
vertex -58.79834747 22.44525909 258.4863281
vertex -58.60923004 21.46800995 258.7038574
vertex -58.68497467 22.41342926 258.6798096

endloop
endfacet
facet normal -0.8609751463 0.02225474641 0.5081599951
outer loop
vertex -58.79834747 22.44525909 258.4863281
vertex -58.68497467 22.41342926 258.6798096
vertex -58.78954315 23.39490509 258.4596558

endloop
endfacet
facet normal -0.9580726624 -0.03838414699 0.2839427888
outer loop
vertex -58.78954315 23.39490509 258.4596558
vertex -58.68497467 22.41342926 258.6798096
vertex -58.72342682 23.36823273 258.6791382

endloop
endfacet
facet normal -0.957231462 0.00767987268 0.289221257
outer loop
vertex -58.78952789 23.39492035 258.4596863
vertex -58.72342682 23.36823273 258.6791687
vertex -58.76787567 24.35367584 258.5058899

endloop
endfacet
facet normal -0.9736064672 -0.003788304981 0.2282017916
outer loop
vertex -58.76787567 24.35367584 258.5058899
vertex -58.72342682 23.36823273 258.6791687
vertex -58.71485138 24.33544159 258.7318115

endloop
endfacet
facet normal -0.9735224247 0.001240869402 0.2285879552
outer loop
vertex -58.76787567 24.35367584 258.5058899
vertex -58.71485138 24.33544159 258.7318115
vertex -58.75592804 25.31130219 258.5515747

endloop
endfacet
facet normal -0.9691395164 0.004727656487 0.2464676648
outer loop
vertex -58.75592804 25.31130219 258.5515747
vertex -58.71485138 24.33544159 258.7318115
vertex -58.69643402 25.30121613 258.7857056

endloop
endfacet
facet normal -0.9692155123 -0.001760390238 0.2462074906
outer loop
vertex -58.75592804 25.31130219 258.5515747
vertex -58.69643402 25.30121613 258.7857056
vertex -58.76470184 26.24930573 258.5237427

endloop
endfacet
facet normal -0.9841053486 -0.02217731811 0.1761953384
outer loop
vertex -58.76470184 26.24930573 258.5237427
vertex -58.69643402 25.30121613 258.7857056
vertex -58.71974945 26.23932648 258.7735596

endloop
endfacet
facet normal -0.9833139181 -0.04987297952 0.1749466211
outer loop
vertex -58.76470184 26.24930573 258.5237427
vertex -58.71974945 26.23932648 258.7735596
vertex -58.81478119 27.14719391 258.49823

endloop
endfacet
facet normal -0.9950099587 -0.09405268729 0.03330612555
outer loop
vertex -58.81478119 27.14719391 258.49823
vertex -58.71974945 26.23932648 258.7735596
vertex -58.80393219 27.12387848 258.7565002

endloop
endfacet
facet normal -0.9868855476 -0.1591422409 0.02703056671
outer loop
vertex -58.81475067 27.14722443 258.4982605
vertex -58.80391693 27.123909 258.7565308
vertex -58.94696808 27.99175262 258.643158

endloop
endfacet
facet normal -0.9865528941 -0.1564326733 0.04735203087
outer loop
vertex -58.94696808 27.99175262 258.643158
vertex -58.80391693 27.123909 258.7565308
vertex -58.92720795 27.9444809 258.8986816

endloop
endfacet
facet normal -0.9640353918 -0.2645368278 0.02561153471
outer loop
vertex -58.94696808 27.99175262 258.643158
vertex -58.92720795 27.9444809 258.8986816
vertex -59.15950775 28.79376984 258.9269104

endloop
endfacet
facet normal -0.9597720504 -0.2655512393 0.09121451527
outer loop
vertex -59.15950775 28.79376984 258.9269104
vertex -58.92720795 27.9444809 258.8986816
vertex -59.11565399 28.71974945 259.1728516

endloop
endfacet
facet normal -0.9335905313 -0.3532574773 0.06014934182
outer loop
vertex -59.15950775 28.79376984 258.9269104
vertex -59.11565399 28.71974945 259.1728516
vertex -59.4311142 29.58107758 259.3351135

endloop
endfacet
facet normal -0.9235180616 -0.362077117 0.1265485138
outer loop
vertex -59.4311142 29.58107758 259.3351135
vertex -59.11565399 28.71974945 259.1728516
vertex -59.36232758 29.48723602 259.5686035

endloop
endfacet
facet normal -0.9104258418 -0.3994098604 0.1076871753
outer loop
vertex -59.4311142 29.58107758 259.3351135
vertex -59.36232758 29.48723602 259.5686035
vertex -59.71366119 30.36151886 259.8410034

endloop
endfacet
facet normal -0.8920580745 -0.4145455956 0.1799563766
outer loop
vertex -59.71366119 30.36151886 259.8410034
vertex -59.36232758 29.48723602 259.5686035
vertex -59.62111664 30.25824738 260.0618591

endloop
endfacet
facet normal -0.8906226158 -0.4187098145 0.1774076372
outer loop
vertex -59.71366119 30.36151886 259.8410034
vertex -59.62111664 30.25824738 260.0618591
vertex -59.95558929 31.10427094 260.3794861

endloop
endfacet
facet normal -0.8619928956 -0.4371443093 0.2566574812
outer loop
vertex -59.95558929 31.10427094 260.3794861
vertex -59.62111664 30.25824738 260.0618591
vertex -59.83916473 30.99854279 260.5904236

endloop
endfacet
facet normal -0.881659925 -0.3583989143 0.3069626689
outer loop
vertex -59.95557404 31.10427094 260.3794861
vertex -59.83916473 30.99854279 260.5903931
vertex -60.12464142 31.95406342 260.8860779

endloop
endfacet
facet normal -0.8691965938 -0.3634371758 0.3352771699
outer loop
vertex -60.12464142 31.95406342 260.8860779
vertex -59.83916473 30.99854279 260.5903931
vertex -59.98987579 31.83693695 261.10849

endloop
endfacet
facet normal -0.7538852096 0.2699758112 0.5989742875
outer loop
vertex -60.12464142 31.95406342 260.8860779
vertex -59.98987579 31.83693695 261.10849
vertex -59.61240387 32.78076935 261.1581726

endloop
endfacet
facet normal -0.1303548515 0 0.9914674163
outer loop
vertex -59.61240387 32.78076935 261.1581726
vertex -59.98987579 31.83693695 261.10849
vertex -59.61240387 32.78075409 261.1581726

endloop
endfacet
facet normal -0.9643346071 0.2646863163 0
outer loop
vertex -59.52109528 15.22116947 258.0877991
vertex -59.52109528 15.22116947 258.0878296
vertex -59.32875824 15.92191315 258.6875305

endloop
endfacet
facet normal 0.1251084954 -0.6646957994 0.7365644574
outer loop
vertex -59.32875824 15.92191315 258.6875305
vertex -59.52109528 15.22116947 258.0878296
vertex -59.07935333 15.86260223 258.5916443

endloop
endfacet
facet normal 0.3432996869 -0.07054085284 0.9365731478
outer loop
vertex -59.32875824 15.92191315 258.6875305
vertex -59.07935333 15.86260223 258.5916443
vertex -59.12262726 16.82419586 258.6799316

endloop
endfacet
facet normal 0.3568809628 -0.06946967542 0.931563139
outer loop
vertex -59.12262726 16.82419586 258.6799316
vertex -59.07935333 15.86260223 258.5916443
vertex -58.89841461 16.77207184 258.5901489

endloop
endfacet
facet normal 0.356241554 -0.07227414101 0.931594491
outer loop
vertex -59.12262726 16.82419586 258.6799316
vertex -58.89841461 16.77207184 258.5901489
vertex -58.93668365 17.6714859 258.6745605

endloop
endfacet
facet normal 0.3551919162 -0.07235582173 0.9319888949
outer loop
vertex -58.93668365 17.6714859 258.6745605
vertex -58.89841461 16.77207184 258.5901489
vertex -58.71376801 17.62306976 258.5858459

endloop
endfacet
facet normal 0.3552752435 -0.07196885347 0.9319870472
outer loop
vertex -58.93668365 17.6714859 258.6745605
vertex -58.71376801 17.62306976 258.5858459
vertex -58.7547226 18.6049118 258.6772766

endloop
endfacet
facet normal 0.3406611383 -0.07307708263 0.9373418689
outer loop
vertex -58.7547226 18.6049118 258.6772766
vertex -58.71376801 17.62306976 258.5858459
vertex -58.5293808 18.56012726 258.5918884

endloop
endfacet
facet normal 0.3432683647 -0.05992386118 0.9373238087
outer loop
vertex -58.7547226 18.6049118 258.6772766
vertex -58.5293808 18.56012726 258.5918884
vertex -58.61513519 19.56348419 258.687439

endloop
endfacet
facet normal 0.2746988535 -0.06786120683 0.9591326714
outer loop
vertex -58.61513519 19.56348419 258.687439
vertex -58.5293808 18.56012726 258.5918884
vertex -58.3844986 19.52185822 258.6184387

endloop
endfacet
facet normal 0.2812939584 -0.03128449246 0.9591115117
outer loop
vertex -58.61513519 19.56348419 258.687439
vertex -58.3844986 19.52185822 258.6184387
vertex -58.56235504 20.51988983 258.7031555

endloop
endfacet
facet normal 0.0909711197 -0.06812219322 0.9935207963
outer loop
vertex -58.56235504 20.51988983 258.7031555
vertex -58.3844986 19.52185822 258.6184387
vertex -58.32596588 20.4817276 258.678894

endloop
endfacet
facet normal 0.1027905419 0.004345574416 0.9946935177
outer loop
vertex -58.56235504 20.51988983 258.7031555
vertex -58.32596588 20.4817276 258.678894
vertex -58.60923004 21.46800995 258.7038574

endloop
endfacet
facet normal -0.2342126667 -0.0917635113 0.9678449631
outer loop
vertex -58.60923004 21.46800995 258.7038574
vertex -58.32596588 20.4817276 258.678894
vertex -58.38004303 21.43344879 258.7560425

endloop
endfacet
facet normal -0.2209900618 0.00710146362 0.9752501845
outer loop
vertex -58.60923004 21.46800995 258.7038574
vertex -58.38004303 21.43344879 258.7560425
vertex -58.68497467 22.41342926 258.6798096

endloop
endfacet
facet normal -0.5564677715 -0.1090769172 0.8236782551
outer loop
vertex -58.68497467 22.41342926 258.6798096
vertex -58.38004303 21.43344879 258.7560425
vertex -58.48682404 22.38195038 258.8095093

endloop
endfacet
facet normal -0.5499306917 -0.02155988477 0.83493191
outer loop
vertex -58.68497467 22.41342926 258.6798096
vertex -58.48682404 22.38195038 258.8095093
vertex -58.72342682 23.36823273 258.6791382

endloop
endfacet
facet normal -0.7335730195 -0.08688268065 0.6740341187
outer loop
vertex -58.72342682 23.36823273 258.6791382
vertex -58.48682404 22.38195038 258.8095093
vertex -58.55800629 23.3418808 258.8557739

endloop
endfacet
facet normal -0.7317367196 -0.03057209961 0.6809014082
outer loop
vertex -58.72342682 23.36823273 258.6791687
vertex -58.55799103 23.34191132 258.8557739
vertex -58.71485138 24.33544159 258.7318115

endloop
endfacet
facet normal -0.7733569145 -0.04318238795 0.6324985027
outer loop
vertex -58.71485138 24.33544159 258.7318115
vertex -58.55799103 23.34191132 258.8557739
vertex -58.55930328 24.31751251 258.9207764

endloop
endfacet
facet normal -0.7728665471 -0.02065407857 0.6342323422
outer loop
vertex -58.71485138 24.33544159 258.7318115
vertex -58.55930328 24.31751251 258.9207764
vertex -58.69643402 25.30121613 258.7857056

endloop
endfacet
facet normal -0.7677492499 -0.01908474602 0.6404661536
outer loop
vertex -58.69643402 25.30121613 258.7857056
vertex -58.55930328 24.31751251 258.9207764
vertex -58.5346756 25.29210663 258.9793396

endloop
endfacet
facet normal -0.7676523328 -0.01078261156 0.6407757998
outer loop
vertex -58.69643402 25.30121613 258.7857056
vertex -58.5346756 25.29210663 258.9793396
vertex -58.71974945 26.23932648 258.7735596

endloop
endfacet
facet normal -0.8175092936 -0.03484387323 0.574860394
outer loop
vertex -58.71974945 26.23932648 258.7735596
vertex -58.5346756 25.29210663 258.9793396
vertex -58.56951141 26.23378754 258.9868774

endloop
endfacet
facet normal -0.8165757656 -0.06665538251 0.5733768344
outer loop
vertex -58.71974945 26.23932648 258.7735596
vertex -58.56951141 26.23378754 258.9868774
vertex -58.80393219 27.12387848 258.7565002

endloop
endfacet
facet normal -0.8846711516 -0.1161288247 0.4515207708
outer loop
vertex -58.80393219 27.12387848 258.7565002
vertex -58.56951141 26.23378754 258.9868774
vertex -58.68291473 27.11312103 258.9908447

endloop
endfacet
facet normal -0.8730170727 -0.2076171935 0.4412892759
outer loop
vertex -58.80391693 27.123909 258.7565308
vertex -58.68289948 27.11313629 258.9908752
vertex -58.92720795 27.9444809 258.8986816

endloop
endfacet
facet normal -0.8643465042 -0.2029817253 0.4601125419
outer loop
vertex -58.92720795 27.9444809 258.8986816
vertex -58.68289948 27.11313629 258.9908752
vertex -58.79924774 27.92284393 259.1295166

endloop
endfacet
facet normal -0.8317893147 -0.3535283506 0.4279535711
outer loop
vertex -58.92720795 27.9444809 258.8986816
vertex -58.79924774 27.92284393 259.1295166
vertex -59.11565399 28.71974945 259.1728516

endloop
endfacet
facet normal -0.8023986816 -0.3450652361 0.4869149923
outer loop
vertex -59.11565399 28.71974945 259.1728516
vertex -58.79924774 27.92284393 259.1295166
vertex -58.96895599 28.68592072 259.390625

endloop
endfacet
facet normal -0.7632015944 -0.4725460708 0.440708071
outer loop
vertex -59.11565399 28.71974945 259.1728516
vertex -58.96895599 28.68592072 259.390625
vertex -59.36232758 29.48723602 259.5686035

endloop
endfacet
facet normal -0.7285676003 -0.4686207473 0.4995836914
outer loop
vertex -59.36232758 29.48723602 259.5686035
vertex -58.96895599 28.68592072 259.390625
vertex -59.19644928 29.44432831 259.7702637

endloop
endfacet
facet normal -0.7048855424 -0.5347406268 0.4660351276
outer loop
vertex -59.36232758 29.48723602 259.5686035
vertex -59.19644928 29.44432831 259.7702637
vertex -59.62111664 30.25824738 260.0618591

endloop
endfacet
facet normal -0.660772562 -0.5338045955 0.5276667476
outer loop
vertex -59.62111664 30.25824738 260.0618591
vertex -59.19644928 29.44432831 259.7702637
vertex -59.43668365 30.21103668 260.2450562

endloop
endfacet
facet normal -0.6522445679 -0.5582373142 0.5127847195
outer loop
vertex -59.62111664 30.25824738 260.0618591
vertex -59.43668365 30.21103668 260.2450562
vertex -59.83916473 30.99854279 260.5904236

endloop
endfacet
facet normal -0.5953407288 -0.5578604937 0.5782396793
outer loop
vertex -59.83916473 30.99854279 260.5904236
vertex -59.43668365 30.21103668 260.2450562
vertex -59.63465118 30.9502182 260.754364

endloop
endfacet
facet normal -0.6123650074 -0.4923293889 0.6185635924
outer loop
vertex -59.83916473 30.99854279 260.5903931
vertex -59.63465118 30.9502182 260.7543945
vertex -59.98987579 31.83693695 261.10849

endloop
endfacet
facet normal -0.5597996712 -0.490852654 0.6675987244
outer loop
vertex -59.98987579 31.83693695 261.10849
vertex -59.63465118 30.9502182 260.7543945
vertex -59.75072479 31.7846756 261.2705994

endloop
endfacet
facet normal -0.5278788805 0.1672883928 0.8326814771
outer loop
vertex -59.98987579 31.83693695 261.10849
vertex -59.75072479 31.7846756 261.2705994
vertex -59.61240387 32.78075409 261.1581726

endloop
endfacet
facet normal -0.6293556094 0 -0.7771173716
outer loop
vertex -59.61240387 32.78075409 261.1581726
vertex -59.75072479 31.7846756 261.2705994
vertex -59.61240387 32.78076935 261.1581726

endloop
endfacet
facet normal 0.8740253448 -0.4399446845 -0.206224069
outer loop
vertex -59.52109528 15.22116947 258.0878296
vertex -59.52109528 15.22118378 258.0877991
vertex -59.07935333 15.86260223 258.5916443

endloop
endfacet
facet normal 0.4267502427 -0.7218537927 0.5448038578
outer loop
vertex -59.07935333 15.86260223 258.5916443
vertex -59.52109528 15.22118378 258.0877991
vertex -58.8886795 15.81711578 258.382019

endloop
endfacet
facet normal 0.7168372869 -0.1414920092 0.6827329993
outer loop
vertex -59.07935333 15.86260223 258.5916443
vertex -58.8886795 15.81711578 258.382019
vertex -58.89841461 16.77207184 258.5901489

endloop
endfacet
facet normal 0.6976678967 -0.1457636952 0.7014359832
outer loop
vertex -58.89841461 16.77207184 258.5901489
vertex -58.8886795 15.81711578 258.382019
vertex -58.71790314 16.72995758 258.4018555

endloop
endfacet
facet normal 0.6972308159 -0.1477359086 0.7014580369
outer loop
vertex -58.89841461 16.77207184 258.5901489
vertex -58.71790314 16.72995758 258.4018555
vertex -58.71376801 17.62306976 258.5858459

endloop
endfacet
facet normal 0.695785284 -0.1480125934 0.7028335929
outer loop
vertex -58.71376801 17.62306976 258.5858459
vertex -58.71790314 16.72995758 258.4018555
vertex -58.53395844 17.58393097 258.3995972

endloop
endfacet
facet normal 0.697126925 -0.1417073905 0.7028037906
outer loop
vertex -58.71376801 17.62306976 258.5858459
vertex -58.53395844 17.58393097 258.3995972
vertex -58.5293808 18.56012726 258.5918884

endloop
endfacet
facet normal 0.685913384 -0.1437315941 0.7133470178
outer loop
vertex -58.5293808 18.56012726 258.5918884
vertex -58.53395844 17.58393097 258.3995972
vertex -58.34586334 18.52396393 258.4081421

endloop
endfacet
facet normal 0.6898502111 -0.1236165613 0.7133201361
outer loop
vertex -58.5293808 18.56012726 258.5918884
vertex -58.34586334 18.52396393 258.4081421
vertex -58.3844986 19.52185822 258.6184387

endloop
endfacet
facet normal 0.6354895234 -0.1355822086 0.7601121664
outer loop
vertex -58.3844986 19.52185822 258.6184387
vertex -58.34586334 18.52396393 258.4081421
vertex -58.18869781 19.48816681 258.4487305

endloop
endfacet
facet normal 0.6438663006 -0.08713992685 0.7601597905
outer loop
vertex -58.3844986 19.52185822 258.6184387
vertex -58.18869781 19.48816681 258.4487305
vertex -58.32596588 20.4817276 258.678894

endloop
endfacet
facet normal 0.4828970432 -0.1337587535 0.8654010296
outer loop
vertex -58.32596588 20.4817276 258.678894
vertex -58.18869781 19.48816681 258.4487305
vertex -58.10486603 20.45087433 258.5507507

endloop
endfacet
facet normal 0.4965972602 -0.04206079617 0.86696136
outer loop
vertex -58.32596588 20.4817276 258.678894
vertex -58.10486603 20.45087433 258.5507507
vertex -58.38004303 21.43344879 258.7560425

endloop
endfacet
facet normal 0.1786368489 -0.153041333 0.9719399214
outer loop
vertex -58.38004303 21.43344879 258.7560425
vertex -58.10486603 20.45087433 258.5507507
vertex -58.13249969 21.40550995 258.7061462

endloop
endfacet
facet normal 0.1938504428 -0.03344490752 0.9804608226
outer loop
vertex -58.38004303 21.43344879 258.7560425
vertex -58.13249969 21.40549469 258.7061462
vertex -58.48682404 22.38195038 258.8095093

endloop
endfacet
facet normal -0.1707678139 -0.1647973806 0.9714320302
outer loop
vertex -58.48682404 22.38195038 258.8095093
vertex -58.13249969 21.40549469 258.7061462
vertex -58.2357254 22.35651398 258.8493347

endloop
endfacet
facet normal -0.1622460634 -0.05950183794 0.9849547148
outer loop
vertex -58.48682404 22.38195038 258.8095093
vertex -58.2357254 22.35651398 258.8493347
vertex -58.55800629 23.3418808 258.8557739

endloop
endfacet
facet normal -0.3926914632 -0.1343817711 0.909799397
outer loop
vertex -58.55800629 23.3418808 258.8557739
vertex -58.2357254 22.35651398 258.8493347
vertex -58.31861115 23.32062531 258.9559631

endloop
endfacet
facet normal -0.3899935484 -0.06173882633 0.9187454581
outer loop
vertex -58.55799103 23.34191132 258.8557739
vertex -58.31859589 23.32062531 258.9559631
vertex -58.55930328 24.31751251 258.9207764

endloop
endfacet
facet normal -0.4466286302 -0.0763771981 0.8914535642
outer loop
vertex -58.55930328 24.31751251 258.9207764
vertex -58.31859589 23.32062531 258.9559631
vertex -58.32476044 24.3030777 259.0370483

endloop
endfacet
facet normal -0.4458526075 -0.04245972633 0.8940988183
outer loop
vertex -58.55930328 24.31751251 258.9207764
vertex -58.32476044 24.3030777 259.0370483
vertex -58.5346756 25.29210663 258.9793396

endloop
endfacet
facet normal -0.4281510413 -0.03818915412 0.9028998613
outer loop
vertex -58.5346756 25.29210663 258.9793396
vertex -58.32476044 24.3030777 259.0370483
vertex -58.29669952 25.28577423 259.0919189

endloop
endfacet
facet normal -0.4280205071 -0.02306587435 0.9034746289
outer loop
vertex -58.5346756 25.29210663 258.9793396
vertex -58.29669952 25.28577423 259.0919189
vertex -58.56951141 26.23378754 258.9868774

endloop
endfacet
facet normal -0.4856818318 -0.04302739352 0.8730760813
outer loop
vertex -58.56951141 26.23378754 258.9868774
vertex -58.29669952 25.28577423 259.0919189
vertex -58.33956146 26.23401642 259.1148071

endloop
endfacet
facet normal -0.4850384593 -0.06648705155 0.8719617128
outer loop
vertex -58.56951141 26.23378754 258.9868774
vertex -58.33956146 26.23401642 259.1148071
vertex -58.68291473 27.11312103 258.9908447

endloop
endfacet
facet normal -0.5950606465 -0.1203650087 0.7946164012
outer loop
vertex -58.68291473 27.11312103 258.9908447
vertex -58.33956146 26.23401642 259.1148071
vertex -58.47171783 27.11785126 259.1497192

endloop
endfacet
facet normal -0.5836018324 -0.2178047001 0.7822850943
outer loop
vertex -58.68289948 27.11313629 258.9908752
vertex -58.47170258 27.11786652 259.1497498
vertex -58.79924774 27.92284393 259.1295166

endloop
endfacet
facet normal -0.5677367449 -0.2110118419 0.7957066298
outer loop
vertex -58.79924774 27.92284393 259.1295166
vertex -58.47170258 27.11786652 259.1497498
vertex -58.58472443 27.93279266 259.2852173

endloop
endfacet
facet normal -0.5323624611 -0.3776369095 0.7576150298
outer loop
vertex -58.79924774 27.92284393 259.1295166
vertex -58.58472443 27.93279266 259.2852173
vertex -58.96895599 28.68592072 259.390625

endloop
endfacet
facet normal -0.4819634855 -0.3578276634 0.7997940779
outer loop
vertex -58.96895599 28.68592072 259.390625
vertex -58.58472443 27.93279266 259.2852173
vertex -58.7452774 28.70148468 259.5323792

endloop
endfacet
facet normal -0.4370439947 -0.5040055513 0.7449637651
outer loop
vertex -58.96895599 28.68592072 259.390625
vertex -58.7452774 28.70148468 259.5323792
vertex -59.19644928 29.44432831 259.7702637

endloop
endfacet
facet normal -0.3825528622 -0.4843150973 0.7868241668
outer loop
vertex -59.19644928 29.44432831 259.7702637
vertex -58.7452774 28.70148468 259.5323792
vertex -58.96372223 29.46407318 259.8955688

endloop
endfacet
facet normal -0.3514943719 -0.5700258017 0.7426455021
outer loop
vertex -59.19644928 29.44432831 259.7702637
vertex -58.96372223 29.46407318 259.8955688
vertex -59.43668365 30.21103668 260.2450562

endloop
endfacet
facet normal -0.2895960808 -0.5499073863 0.7834130526
outer loop
vertex -59.43668365 30.21103668 260.2450562
vertex -58.96372223 29.46407318 259.8955688
vertex -59.19480133 30.23273468 260.3497009

endloop
endfacet
facet normal -0.27382043 -0.5943418145 0.7561615109
outer loop
vertex -59.43668365 30.21103668 260.2450562
vertex -59.19480133 30.23273468 260.3497009
vertex -59.63465118 30.9502182 260.754364

endloop
endfacet
facet normal -0.1996099055 -0.5713511705 0.7960613966
outer loop
vertex -59.63465118 30.9502182 260.754364
vertex -59.19480133 30.23273468 260.3497009
vertex -59.38117218 30.97251129 260.8339233

endloop
endfacet
facet normal -0.2095437348 -0.5353221297 0.8182430267
outer loop
vertex -59.63465118 30.9502182 260.7543945
vertex -59.38117218 30.97251129 260.8338928
vertex -59.75072479 31.7846756 261.2705994

endloop
endfacet
facet normal -0.1148199067 -0.5104753375 0.8521920443
outer loop
vertex -59.75072479 31.7846756 261.2705994
vertex -59.38117218 30.97251129 260.8338928
vertex -59.46579742 31.81412506 261.3266296

endloop
endfacet
facet normal -0.2048059404 0.1378146559 0.9690520167
outer loop
vertex -59.75072479 31.7846756 261.2705994
vertex -59.46579742 31.81412506 261.3266296
vertex -59.61240387 32.78076935 261.1581726

endloop
endfacet
facet normal -0.988697052 -0.1499274224 0
outer loop
vertex -59.61240387 32.78076935 261.1581726
vertex -59.46579742 31.81412506 261.3266296
vertex -59.61240387 32.78076935 261.1582031

endloop
endfacet
facet normal -nan(ind) -nan(ind) -nan(ind)
outer loop
vertex -59.52109528 15.22118378 258.0877991
vertex -59.52109528 15.22118378 258.0877991
vertex -58.8886795 15.81711578 258.382019

endloop
endfacet
facet normal 0.6126342416 -0.7589925528 0.2204759568
outer loop
vertex -58.8886795 15.81711578 258.382019
vertex -59.52109528 15.22118378 258.0877991
vertex -58.81273651 15.79878998 258.1079102

endloop
endfacet
facet normal 0.9442844391 -0.1826090813 0.2738264203
outer loop
vertex -58.8886795 15.81711578 258.382019
vertex -58.81273651 15.79878998 258.1079102
vertex -58.71790314 16.72995758 258.4018555

endloop
endfacet
facet normal 0.9240089059 -0.1974673122 0.3274359703
outer loop
vertex -58.71790314 16.72995758 258.4018555
vertex -58.81273651 15.79878998 258.1079102
vertex -58.63271332 16.70989227 258.149353

endloop
endfacet
facet normal 0.9238647223 -0.1981332898 0.3274402916
outer loop
vertex -58.71790314 16.72995758 258.4018555
vertex -58.63271332 16.70989227 258.149353
vertex -58.53395844 17.58393097 258.3995972

endloop
endfacet
facet normal 0.9229240417 -0.1986879408 0.3297487497
outer loop
vertex -58.53395844 17.58393097 258.3995972
vertex -58.63271332 16.70989227 258.149353
vertex -58.44863129 17.56522369 258.1495056

endloop
endfacet
facet normal 0.9251486659 -0.1881139576 0.3297168612
outer loop
vertex -58.53395844 17.58393097 258.3995972
vertex -58.44863129 17.56522369 258.1495056
vertex -58.34586334 18.52396393 258.4081421

endloop
endfacet
facet normal 0.9193474054 -0.1912945062 0.343811959
outer loop
vertex -58.34586334 18.52396393 258.4081421
vertex -58.44863129 17.56522369 258.1495056
vertex -58.25630951 18.50667572 258.1590576

endloop
endfacet
facet normal 0.9244009256 -0.1651507467 0.3438143134
outer loop
vertex -58.34586334 18.52396393 258.4081421
vertex -58.25630951 18.50667572 258.1590576
vertex -58.18869781 19.48816681 258.4487305

endloop
endfacet
facet normal 0.8947476149 -0.1819939613 0.4078050554
outer loop
vertex -58.18869781 19.48816681 258.4487305
vertex -58.25630951 18.50667572 258.1590576
vertex -58.08194733 19.47208405 258.2073364

endloop
endfacet
facet normal 0.9046943188 -0.1220388934 0.4082092643
outer loop
vertex -58.18869781 19.48816681 258.4487305
vertex -58.08194733 19.47208405 258.2073364
vertex -58.10486603 20.45087433 258.5507507

endloop
endfacet
facet normal 0.8033386469 -0.180323258 0.5675655603
outer loop
vertex -58.10486603 20.45087433 258.5507507
vertex -58.08194733 19.47208405 258.2073364
vertex -57.95705414 20.43613434 258.336853

endloop
endfacet
facet normal 0.8184754848 -0.06915165484 0.5703647733
outer loop
vertex -58.10486603 20.45087433 258.5507507
vertex -57.95705414 20.43613434 258.336853
vertex -58.13249969 21.40550995 258.7061462

endloop
endfacet
facet normal 0.5772784948 -0.1973674744 0.7923355699
outer loop
vertex -58.13249969 21.40550995 258.7061462
vertex -57.95705414 20.43613434 258.336853
vertex -57.92667389 21.39214325 258.5528564

endloop
endfacet
facet normal 0.5939726233 -0.05635718629 0.802508831
outer loop
vertex -58.13249969 21.40549469 258.7061462
vertex -57.92665863 21.39214325 258.5528564
vertex -58.2357254 22.35651398 258.8493347

endloop
endfacet
facet normal 0.2654983401 -0.204561606 0.9421598911
outer loop
vertex -58.2357254 22.35651398 258.8493347
vertex -57.92665863 21.39214325 258.5528564
vertex -57.98789215 22.34435272 258.7768555

endloop
endfacet
facet normal 0.2760277987 -0.08218115568 0.9576298594
outer loop
vertex -58.2357254 22.35651398 258.8493347
vertex -57.98789215 22.34435272 258.7768555
vertex -58.31861115 23.32062531 258.9559631

endloop
endfacet
facet normal 0.03877774626 -0.1675897837 0.985093832
outer loop
vertex -58.31861115 23.32062531 258.9559631
vertex -57.98789215 22.34435272 258.7768555
vertex -58.0555954 23.31044769 258.9438782

endloop
endfacet
facet normal 0.04246390983 -0.08191496134 0.995734334
outer loop
vertex -58.31859589 23.32062531 258.9559631
vertex -58.05556488 23.31044769 258.9439087
vertex -58.32476044 24.3030777 259.0370483

endloop
endfacet
facet normal -0.01994937658 -0.09876382351 0.9949108958
outer loop
vertex -58.32476044 24.3030777 259.0370483
vertex -58.05556488 23.31044769 258.9439087
vertex -58.05965424 24.29625702 259.041687

endloop
endfacet
facet normal -0.01888785511 -0.05520232022 0.9982965589
outer loop
vertex -58.32476044 24.3030777 259.0370483
vertex -58.05965424 24.29625702 259.041687
vertex -58.29669952 25.28577423 259.0919189

endloop
endfacet
facet normal 0.003922373988 -0.04976117983 0.9987535477
outer loop
vertex -58.29669952 25.28577423 259.0919189
vertex -58.05965424 24.29625702 259.041687
vertex -58.0316391 25.28400421 259.0907898

endloop
endfacet
facet normal 0.004098815843 -0.02394509129 0.9997048974
outer loop
vertex -58.29669952 25.28577423 259.0919189
vertex -58.0316391 25.28400421 259.0907898
vertex -58.33956146 26.23401642 259.1148071

endloop
endfacet
facet normal -0.05704346672 -0.04370490834 0.9974146485
outer loop
vertex -58.33956146 26.23401642 259.1148071
vertex -58.0316391 25.28400421 259.0907898
vertex -58.07740021 26.24007416 259.1300659

endloop
endfacet
facet normal -0.05693555996 -0.04790456966 0.9972279072
outer loop
vertex -58.33956146 26.23401642 259.1148071
vertex -58.07740021 26.24007416 259.1300659
vertex -58.47171783 27.11785126 259.1497192

endloop
endfacet
facet normal -0.189815551 -0.1071210951 0.9759585857
outer loop
vertex -58.47171783 27.11785126 259.1497192
vertex -58.07740021 26.24007416 259.1300659
vertex -58.21457672 27.13681793 259.2018127

endloop
endfacet
facet normal -0.1819300056 -0.1857476681 0.9656082392
outer loop
vertex -58.47170258 27.11786652 259.1497498
vertex -58.21457672 27.13683319 259.2018433
vertex -58.58472443 27.93279266 259.2852173

endloop
endfacet
facet normal -0.163269341 -0.1775789261 0.9704684019
outer loop
vertex -58.58472443 27.93279266 259.2852173
vertex -58.21457672 27.13683319 259.2018433
vertex -58.32868195 27.97173309 259.3354187

endloop
endfacet
facet normal -0.1333691478 -0.328504473 0.9350387454
outer loop
vertex -58.58472443 27.93279266 259.2852173
vertex -58.32868195 27.97173309 259.3354187
vertex -58.7452774 28.70148468 259.5323792

endloop
endfacet
facet normal -0.07173387706 -0.2978712618 0.9519069791
outer loop
vertex -58.7452774 28.70148468 259.5323792
vertex -58.32868195 27.97173309 259.3354187
vertex -58.49138641 28.76244354 259.5705872

endloop
endfacet
facet normal -0.03040005267 -0.4368701577 0.8990107179
outer loop
vertex -58.7452774 28.70148468 259.5323792
vertex -58.49138641 28.76244354 259.5705872
vertex -58.96372223 29.46407318 259.8955688

endloop
endfacet
facet normal 0.03335186094 -0.401479125 0.9152607322
outer loop
vertex -58.96372223 29.46407318 259.8955688
vertex -58.49138641 28.76244354 259.5705872
vertex -58.71257782 29.54135895 259.9203186

endloop
endfacet
facet normal 0.06612744927 -0.492741406 0.8676595092
outer loop
vertex -58.96372223 29.46407318 259.8955688
vertex -58.71257782 29.54135895 259.9203186
vertex -59.19480133 30.23273468 260.3497009

endloop
endfacet
facet normal 0.133261025 -0.4541435242 0.8809058666
outer loop
vertex -59.19480133 30.23273468 260.3497009
vertex -58.71257782 29.54135895 259.9203186
vertex -58.94554901 30.31777191 260.355835

endloop
endfacet
facet normal 0.154439494 -0.5135606527 0.844040215
outer loop
vertex -59.19480133 30.23273468 260.3497009
vertex -58.94554901 30.31777191 260.355835
vertex -59.38117218 30.97251129 260.8339233

endloop
endfacet
facet normal 0.2306673974 -0.4690377116 0.8525233865
outer loop
vertex -59.38117218 30.97251129 260.8339233
vertex -58.94554901 30.31777191 260.355835
vertex -59.13137054 31.05963898 260.81427

endloop
endfacet
facet normal 0.2319843024 -0.4739837348 0.8494250178
outer loop
vertex -59.38117218 30.97251129 260.8338928
vertex -59.1313858 31.05965424 260.8143005
vertex -59.46579742 31.81412506 261.3266296

endloop
endfacet
facet normal 0.3474519551 -0.416489929 0.8401268721
outer loop
vertex -59.46579742 31.81412506 261.3266296
vertex -59.1313858 31.05965424 260.8143005
vertex -59.21125031 31.91210175 261.269928

endloop
endfacet
facet normal 0.1428601742 0.1908805966 0.9711619616
outer loop
vertex -59.46579742 31.81412506 261.3266296
vertex -59.21125031 31.91210175 261.269928
vertex -59.61240387 32.78076935 261.1582031

endloop
endfacet
facet normal 0.8997594118 0.3904817998 -0.1948251128
outer loop
vertex -59.61240387 32.78076935 261.1582031
vertex -59.21125031 31.91210175 261.269928
vertex -59.61240387 32.78075409 261.1581726

endloop
endfacet
facet normal -0.02837966196 0 0.9995971918
outer loop
vertex -59.52109528 15.22118378 258.0877991
vertex -59.52109528 15.22116947 258.0877991
vertex -58.81273651 15.79878998 258.1079102

endloop
endfacet
facet normal 0.626748383 -0.7631192803 -0.1575927734
outer loop
vertex -58.81273651 15.79878998 258.1079102
vertex -59.52109528 15.22116947 258.0877991
vertex -58.86638641 15.81119537 257.8344727

endloop
endfacet
facet normal 0.9634248018 -0.1813888997 -0.1972584128
outer loop
vertex -58.81273651 15.79878998 258.1079102
vertex -58.86638641 15.81119537 257.8344727
vertex -58.63271332 16.70989227 258.149353

endloop
endfacet
facet normal 0.9695215225 -0.2051652372 -0.1339230835
outer loop
vertex -58.63271332 16.70989227 258.149353
vertex -58.86638641 15.81119537 257.8344727
vertex -58.66808319 16.71781158 257.8811646

endloop
endfacet
facet normal 0.9688131213 -0.2084813565 -0.1339275539
outer loop
vertex -58.63271332 16.70989227 258.149353
vertex -58.66808319 16.71781158 257.8811646
vertex -58.44863129 17.56522369 258.1495056

endloop
endfacet
facet normal 0.9689720273 -0.2092956752 -0.1314859688
outer loop
vertex -58.44863129 17.56522369 258.1495056
vertex -58.66808319 16.71781158 257.8811646
vertex -58.48317719 17.57248688 257.8833618

endloop
endfacet
facet normal 0.9715201855 -0.1971300989 -0.1314846575
outer loop
vertex -58.44863129 17.56522369 258.1495056
vertex -58.48317719 17.57248688 257.8833618
vertex -58.25630951 18.50667572 258.1590576

endloop
endfacet
facet normal 0.9724609852 -0.2016985863 -0.1167787611
outer loop
vertex -58.25630951 18.50667572 258.1590576
vertex -58.48317719 17.57248688 257.8833618
vertex -58.28697968 18.51338959 257.8920593

endloop
endfacet
facet normal 0.9783608913 -0.1708664596 -0.1166811362
outer loop
vertex -58.25630951 18.50667572 258.1590576
vertex -58.28697968 18.51338959 257.8920593
vertex -58.08194733 19.47208405 258.2073364

endloop
endfacet
facet normal 0.9798673391 -0.1938488632 -0.04777599126
outer loop
vertex -58.08194733 19.47208405 258.2073364
vertex -58.28697968 18.51338959 257.8920593
vertex -58.09375763 19.47834015 257.9397278

endloop
endfacet
facet normal 0.9914134741 -0.1221762076 -0.04660999775
outer loop
vertex -58.08194733 19.47208405 258.2073364
vertex -58.09375763 19.47834015 257.9397278
vertex -57.95705414 20.43613434 258.336853

endloop
endfacet
facet normal 0.9714065194 -0.1948770583 0.135618329
outer loop
vertex -57.95705414 20.43613434 258.336853
vertex -58.09375763 19.47834015 257.9397278
vertex -57.91944122 20.44187164 258.0756836

endloop
endfacet
facet normal 0.9880024195 -0.06323237717 0.1409003586
outer loop
vertex -57.95705414 20.43613434 258.336853
vertex -57.91944122 20.44187164 258.0756836
vertex -57.92667389 21.39214325 258.5528564

endloop
endfacet
facet normal 0.8740279078 -0.2127053887 0.4368426204
outer loop
vertex -57.92667389 21.39214325 258.5528564
vertex -57.91944122 20.44187164 258.0756836
vertex -57.80922699 21.3973465 258.3204041

endloop
endfacet
facet normal 0.8919580579 -0.04838706553 0.4495214224
outer loop
vertex -57.92665863 21.39214325 258.5528564
vertex -57.80922699 21.3973465 258.3204041
vertex -57.98789215 22.34435272 258.7768555

endloop
endfacet
facet normal 0.6669211984 -0.2176596671 0.712629199
outer loop
vertex -57.98789215 22.34435272 258.7768555
vertex -57.80922699 21.3973465 258.3204041
vertex -57.79590607 22.34909821 258.5986328

endloop
endfacet
facet normal 0.6792886853 -0.07854204625 0.7296561003
outer loop
vertex -57.98789215 22.34435272 258.7768555
vertex -57.79590607 22.34909821 258.5986328
vertex -58.0555954 23.31044769 258.9438782

endloop
endfacet
facet normal 0.4832526445 -0.1773481965 0.8573298454
outer loop
vertex -58.0555954 23.31044769 258.9438782
vertex -57.79590607 22.34909821 258.5986328
vertex -57.82263947 23.31439972 258.813385

endloop
endfacet
facet normal 0.4881795645 -0.08413549513 0.8686783314
outer loop
vertex -58.05556488 23.31044769 258.9439087
vertex -57.82262421 23.31441498 258.813385
vertex -58.05965424 24.29625702 259.041687

endloop
endfacet
facet normal 0.4321840107 -0.1039539203 0.8957736492
outer loop
vertex -58.05965424 24.29625702 259.041687
vertex -57.82262421 23.31441498 258.813385
vertex -57.81754303 24.29906464 258.9252014

endloop
endfacet
facet normal 0.4333861172 -0.05700305104 0.8994038105
outer loop
vertex -58.05965424 24.29625702 259.041687
vertex -57.81754303 24.29906464 258.9252014
vertex -58.0316391 25.28400421 259.0907898

endloop
endfacet
facet normal 0.4485961497 -0.05248442292 0.8921921849
outer loop
vertex -58.0316391 25.28400421 259.0907898
vertex -57.81754303 24.29906464 258.9252014
vertex -57.79380035 25.28742218 258.971405

endloop
endfacet
facet normal 0.4487348795 -0.01522900909 0.8935351968
outer loop
vertex -58.0316391 25.28400421 259.0907898
vertex -57.79380035 25.28742218 258.971405
vertex -58.07740021 26.24007416 259.1300659

endloop
endfacet
facet normal 0.3839517832 -0.03934104368 0.9225146174
outer loop
vertex -58.07740021 26.24007416 259.1300659
vertex -57.79380035 25.28742218 258.971405
vertex -57.8383255 26.25046539 259.0310059

endloop
endfacet
facet normal 0.3833103776 -0.01525133941 0.9234936833
outer loop
vertex -58.07740021 26.24007416 259.1300659
vertex -57.8383255 26.25046539 259.0310059
vertex -58.21457672 27.13681793 259.2018127

endloop
endfacet
facet normal 0.2485587001 -0.08050240576 0.9652656913
outer loop
vertex -58.21457672 27.13681793 259.2018127
vertex -57.8383255 26.25046539 259.0310059
vertex -57.96756744 27.16544342 259.1405945

endloop
endfacet
facet normal 0.2518258989 -0.1192371249 0.960398972
outer loop
vertex -58.21457672 27.13683319 259.2018433
vertex -57.96755219 27.16545868 259.140625
vertex -58.32868195 27.97173309 259.3354187

endloop
endfacet
facet normal 0.2679640651 -0.1111856326 0.9569916129
outer loop
vertex -58.32868195 27.97173309 259.3354187
vertex -57.96755219 27.16545868 259.140625
vertex -58.08701324 28.03014374 259.2745361

endloop
endfacet
facet normal 0.287663281 -0.2181619704 0.9325530529
outer loop
vertex -58.32868195 27.97173309 259.3354187
vertex -58.08701324 28.03014374 259.2745361
vertex -58.49138641 28.76244354 259.5705872

endloop
endfacet
facet normal 0.3470063806 -0.1804548204 0.9203383923
outer loop
vertex -58.49138641 28.76244354 259.5705872
vertex -58.08701324 28.03014374 259.2745361
vertex -58.26213837 28.85385895 259.5020752

endloop
endfacet
facet normal 0.3777792156 -0.2878459096 0.8800156116
outer loop
vertex -58.49138641 28.76244354 259.5705872
vertex -58.26213837 28.85385895 259.5020752
vertex -58.71257782 29.54135895 259.9203186

endloop
endfacet
facet normal 0.4360274076 -0.2416867614 0.8668723106
outer loop
vertex -58.71257782 29.54135895 259.9203186
vertex -58.26213837 28.85385895 259.5020752
vertex -58.49671173 29.65726471 259.8440552

endloop
endfacet
facet normal 0.4647070765 -0.3230177462 0.8244433403
outer loop
vertex -58.71257782 29.54135895 259.9203186
vertex -58.49671173 29.65726471 259.8440552
vertex -58.94554901 30.31777191 260.355835

endloop
endfacet
facet normal 0.5228017569 -0.2709830701 0.8082366586
outer loop
vertex -58.94554901 30.31777191 260.355835
vertex -58.49671173 29.65726471 259.8440552
vertex -58.74176788 30.44532013 260.2667847

endloop
endfacet
facet normal 0.546118319 -0.3371050358 0.7668865323
outer loop
vertex -58.94554901 30.31777191 260.355835
vertex -58.74176788 30.44532013 260.2667847
vertex -59.13137054 31.05963898 260.81427

endloop
endfacet
facet normal 0.6081079841 -0.2772689462 0.7438592911
outer loop
vertex -59.13137054 31.05963898 260.81427
vertex -58.74176788 30.44532013 260.2667847
vertex -58.93766022 31.19007111 260.7045288

endloop
endfacet
facet normal 0.6217187047 -0.3231075406 0.7134896517
outer loop
vertex -59.1313858 31.05965424 260.8143005
vertex -58.93766022 31.19008636 260.7045593
vertex -59.21125031 31.91210175 261.269928

endloop
endfacet
facet normal 0.7165232897 -0.2410604507 0.65458709
outer loop
vertex -59.21125031 31.91210175 261.269928
vertex -58.93766022 31.19008636 260.7045593
vertex -59.03707123 32.04755402 261.1291504

endloop
endfacet
facet normal 0.4391409159 0.3112281561 0.8427883983
outer loop
vertex -59.21125031 31.91210175 261.269928
vertex -59.03707123 32.04755402 261.1291504
vertex -59.61240387 32.78075409 261.1581726

endloop
endfacet
facet normal -nan(ind) -nan(ind) -nan(ind)
outer loop
vertex -59.61240387 32.78075409 261.1581726
vertex -59.03707123 32.04755402 261.1291504
vertex -59.61240387 32.78075409 261.1581726

endloop
endfacet
facet normal -0.7001906633 0.6590030193 -0.2746780217
outer loop
vertex -59.52111053 15.22115326 258.0877991
vertex -59.52109528 15.22116947 258.0877991
vertex -58.86640167 15.81118011 257.8344421

endloop
endfacet
facet normal 0.4531060159 -0.7253272533 -0.5182616711
outer loop
vertex -58.86640167 15.81118011 257.8344421
vertex -59.52109528 15.22116947 258.0877991
vertex -59.06850433 15.85884857 257.5910339

endloop
endfacet
facet normal 0.7500410676 -0.1306773126 -0.6483531594
outer loop
vertex -58.86640167 15.81118011 257.8344421
vertex -59.06850433 15.85884857 257.5910339
vertex -58.66808319 16.71779633 257.881134

endloop
endfacet
facet normal 0.7815823555 -0.1607922614 -0.6027228236
outer loop
vertex -58.66808319 16.71779633 257.881134
vertex -59.06850433 15.85884857 257.5910339
vertex -58.85797882 16.76160431 257.6231995

endloop
endfacet
facet normal 0.7801850438 -0.1672161222 -0.6027851701
outer loop
vertex -58.66808319 16.71779633 257.881134
vertex -58.85797882 16.76160431 257.6231995
vertex -58.48317719 17.57248688 257.8833618

endloop
endfacet
facet normal 0.7813696265 -0.1683588475 -0.6009300351
outer loop
vertex -58.48317719 17.57248688 257.8833618
vertex -58.85797882 16.76160431 257.6231995
vertex -58.67169952 17.61318207 257.6268311

endloop
endfacet
facet normal 0.7835864425 -0.1578588039 -0.6008933783
outer loop
vertex -58.48317719 17.57248688 257.8833618
vertex -58.67169952 17.61318207 257.6268311
vertex -58.28697968 18.51338959 257.8920288

endloop
endfacet
facet normal 0.7912348509 -0.1646522284 -0.5889288187
outer loop
vertex -58.28697968 18.51338959 257.8920288
vertex -58.67169952 17.61318207 257.6268311
vertex -58.47248077 18.55098724 257.6322937

endloop
endfacet
facet normal 0.7977522016 -0.1306497604 -0.5886613727
outer loop
vertex -58.28697968 18.51338959 257.8920288
vertex -58.47248077 18.55098724 257.6322937
vertex -58.09377289 19.47834015 257.9396973

endloop
endfacet
facet normal 0.8311465979 -0.1632154733 -0.5315600634
outer loop
vertex -58.09377289 19.47834015 257.9396973
vertex -58.47248077 18.55098724 257.6322937
vertex -58.26042938 19.51334381 257.6683655

endloop
endfacet
facet normal 0.8449569345 -0.07824190706 -0.5290802717
outer loop
vertex -58.09377289 19.47834015 257.9396973
vertex -58.26042938 19.51334381 257.6683655
vertex -57.91944122 20.44185638 258.0756226

endloop
endfacet
facet normal 0.9134836197 -0.1741897762 -0.3677031696
outer loop
vertex -57.91944122 20.44185638 258.0756226
vertex -58.26042938 19.51334381 257.6683655
vertex -58.03139496 20.47396088 257.7822876

endloop
endfacet
facet normal 0.9335654974 -0.01597020589 -0.3580509424
outer loop
vertex -57.91944122 20.44185638 258.0756226
vertex -58.03139496 20.47396088 257.7822876
vertex -57.80922699 21.39731598 258.3203735

endloop
endfacet
facet normal 0.9778174162 -0.201066792 -0.05869634449
outer loop
vertex -57.80922699 21.39731598 258.3203735
vertex -58.03139496 20.47396088 257.7822876
vertex -57.82184601 21.42639923 258.0105286

endloop
endfacet
facet normal 0.9991619587 -0.002017269609 -0.04088209569
outer loop
vertex -57.80922699 21.39731598 258.3203735
vertex -57.82184601 21.42639923 258.0105286
vertex -57.79592133 22.34906769 258.5986023

endloop
endfacet
facet normal 0.9357672334 -0.207845673 0.2848506272
outer loop
vertex -57.79592133 22.34906769 258.5986023
vertex -57.82184601 21.42639923 258.0105286
vertex -57.69966888 22.37551117 258.3016968

endloop
endfacet
facet normal 0.9515209794 -0.0414666608 0.3047760427
outer loop
vertex -57.79592133 22.34906769 258.5986023
vertex -57.69966888 22.37551117 258.3016968
vertex -57.82263947 23.31438446 258.8133545

endloop
endfacet
facet normal 0.8468230367 -0.1646953374 0.5057333708
outer loop
vertex -57.82263947 23.31438446 258.8133545
vertex -57.69966888 22.37551117 258.3016968
vertex -57.65616608 23.3365097 258.5418091

endloop
endfacet
facet normal 0.8530979753 -0.06321562082 0.5179069638
outer loop
vertex -57.82263947 23.31439972 258.8133545
vertex -57.65616608 23.33652496 258.5418396
vertex -57.81755829 24.29904938 258.9251709

endloop
endfacet
facet normal 0.8181021214 -0.08908558637 0.56813097
outer loop
vertex -57.81755829 24.29904938 258.9251709
vertex -57.65616608 23.33652496 258.5418396
vertex -57.63368988 24.31421661 258.6627808

endloop
endfacet
facet normal 0.8193219304 -0.04639556259 0.5714533925
outer loop
vertex -57.81755829 24.29904938 258.9251709
vertex -57.63368988 24.31421661 258.6627808
vertex -57.79381561 25.28742218 258.9713745

endloop
endfacet
facet normal 0.825314641 -0.0427458398 0.5630528331
outer loop
vertex -57.79381561 25.28742218 258.9713745
vertex -57.63368988 24.31421661 258.6627808
vertex -57.61867523 25.29712677 258.7153931

endloop
endfacet
facet normal 0.8252539039 0.003190121846 0.5647528172
outer loop
vertex -57.79381561 25.28742218 258.9713745
vertex -57.61867523 25.29712677 258.7153931
vertex -57.8383255 26.25046539 259.0309753

endloop
endfacet
facet normal 0.7793334126 -0.02766408026 0.625998497
outer loop
vertex -57.8383255 26.25046539 259.0309753
vertex -57.61867523 25.29712677 258.7153931
vertex -57.65584564 26.26506805 258.8044434

endloop
endfacet
facet normal 0.777207315 0.03454243764 0.6282957792
outer loop
vertex -57.8383255 26.25046539 259.0309753
vertex -57.65584564 26.26506805 258.8044434
vertex -57.9675827 27.16544342 259.140564

endloop
endfacet
facet normal 0.685076654 -0.03444828093 0.7276560068
outer loop
vertex -57.9675827 27.16544342 259.140564
vertex -57.65584564 26.26506805 258.8044434
vertex -57.7607193 27.2027359 258.9475708

endloop
endfacet
facet normal 0.6838303804 -0.01847240701 0.7294071317
outer loop
vertex -57.96756744 27.16545868 259.1405945
vertex -57.76070404 27.20275116 258.9476013
vertex -58.08701324 28.03014374 259.2744751

endloop
endfacet
facet normal 0.6966064572 -0.008690494113 0.7174009085
outer loop
vertex -58.08701324 28.03014374 259.2744751
vertex -57.76070404 27.20275116 258.9476013
vertex -57.88973236 28.1060257 259.0838318

endloop
endfacet
facet normal 0.7033336759 -0.04642689973 0.7093420625
outer loop
vertex -58.08701324 28.03014374 259.2744751
vertex -57.88973236 28.1060257 259.0838318
vertex -58.26215363 28.85385895 259.5020447

endloop
endfacet
facet normal 0.7431550026 -0.0040950845 0.6691068411
outer loop
vertex -58.26215363 28.85385895 259.5020447
vertex -57.88973236 28.1060257 259.0838318
vertex -58.08861542 28.97257233 259.3100281

endloop
endfacet
facet normal 0.7576203942 -0.0556275323 0.6503206491
outer loop
vertex -58.26215363 28.85385895 259.5020447
vertex -58.08861542 28.97257233 259.3100281
vertex -58.49671173 29.65724945 259.8440247

endloop
endfacet
facet normal 0.7922381163 -0.003703564173 0.610200882
outer loop
vertex -58.49671173 29.65724945 259.8440247
vertex -58.08861542 28.97257233 259.3100281
vertex -58.34818268 29.80779266 259.6520996

endloop
endfacet
facet normal 0.8114885688 -0.05950202793 0.5813311338
outer loop
vertex -58.49671173 29.65724945 259.8440247
vertex -58.34818268 29.80779266 259.6520996
vertex -58.74178314 30.44530487 260.2667847

endloop
endfacet
facet normal 0.8424326181 0.0006097253645 0.5388014317
outer loop
vertex -58.74178314 30.44530487 260.2667847
vertex -58.34818268 29.80779266 259.6520996
vertex -58.61647797 30.61095428 260.0706787

endloop
endfacet
facet normal 0.8649078012 -0.06505319476 0.4976972342
outer loop
vertex -58.74178314 30.44530487 260.2667847
vertex -58.61647797 30.61095428 260.0706787
vertex -58.93766022 31.19005585 260.7045288

endloop
endfacet
facet normal 0.8937846422 0.00484325178 0.4484704137
outer loop
vertex -58.93766022 31.19005585 260.7045288
vertex -58.61647797 30.61095428 260.0706787
vertex -58.8340683 31.35929108 260.4962463

endloop
endfacet
facet normal 0.9180172682 -0.08533655852 0.3872491717
outer loop
vertex -58.93767548 31.19005585 260.7045288
vertex -58.83408356 31.35929108 260.4962463
vertex -59.03708649 32.0475235 261.1291504

endloop
endfacet
facet normal 0.9546425939 0.007862329483 0.297650367
outer loop
vertex -59.03708649 32.0475235 261.1291504
vertex -58.83408356 31.35929108 260.4962463
vertex -58.96805573 32.21524811 260.9033203

endloop
endfacet
facet normal 0.6582124829 0.4939938188 0.5680901408
outer loop
vertex -59.03708649 32.0475235 261.1291504
vertex -58.96805573 32.21524811 260.9033203
vertex -59.61241913 32.78073883 261.1581726

endloop
endfacet
facet normal 0.1366936415 -0.2733872831 0.952141881
outer loop
vertex -59.61241913 32.78073883 261.1581726
vertex -58.96805573 32.21524811 260.9033203
vertex -59.61238861 32.78075409 261.1581726

endloop
endfacet
facet normal 0.7391978502 -0 0.6734883189
outer loop
vertex -59.52109528 15.22118378 258.0877991
vertex -59.52109528 15.22116947 258.0877991
vertex -59.06848907 15.85884857 257.5910339

endloop
endfacet
facet normal 0.0597701557 -0.6395087242 -0.7664568424
outer loop
vertex -59.06848907 15.85884857 257.5910339
vertex -59.52109528 15.22116947 258.0877991
vertex -59.53922272 15.97029877 257.4613342

endloop
endfacet
facet normal 0.259770602 -0.02618522011 -0.9653153419
outer loop
vertex -59.06848907 15.85884857 257.5910339
vertex -59.53922272 15.97029877 257.4613342
vertex -58.85796356 16.76158905 257.6231995

endloop
endfacet
facet normal 0.2951060236 -0.05899517238 -0.9536414742
outer loop
vertex -58.85796356 16.76158905 257.6231995
vertex -59.53922272 15.97029877 257.4613342
vertex -59.33216095 16.8713913 257.4696655

endloop
endfacet
facet normal 0.2947812378 -0.06041426212 -0.9536530375
outer loop
vertex -58.85796356 16.76158905 257.6231995
vertex -59.33216095 16.8713913 257.4696655
vertex -58.67168427 17.61318207 257.6268311

endloop
endfacet
facet normal 0.2964518964 -0.06203360483 -0.9530310035
outer loop
vertex -58.67168427 17.61318207 257.6268311
vertex -59.33216095 16.8713913 257.4696655
vertex -59.14368439 17.71537018 257.4733582

endloop
endfacet
facet normal 0.2974011302 -0.05762109533 -0.953012228
outer loop
vertex -58.67168427 17.61318207 257.6268311
vertex -59.14368439 17.71537018 257.4733582
vertex -58.47248077 18.55098724 257.6322937

endloop
endfacet
facet normal 0.3096986711 -0.06838151067 -0.9483726621
outer loop
vertex -58.47248077 18.55098724 257.6322937
vertex -59.14368439 17.71537018 257.4733582
vertex -58.94438934 18.64548492 257.4713745

endloop
endfacet
facet normal 0.316419661 -0.03418857232 -0.9480031133
outer loop
vertex -58.47248077 18.55098724 257.6322937
vertex -58.94438934 18.64548492 257.4713745
vertex -58.26042938 19.51332855 257.6683655

endloop
endfacet
facet normal 0.3727425635 -0.08399751037 -0.9241251945
outer loop
vertex -58.26042938 19.51332855 257.6683655
vertex -58.94438934 18.64548492 257.4713745
vertex -58.71961212 19.60131073 257.4751587

endloop
endfacet
facet normal 0.3903963566 0.01608503237 -0.9205062985
outer loop
vertex -58.26042938 19.51332855 257.6683655
vertex -58.71961212 19.60131073 257.4751587
vertex -58.03139496 20.47396088 257.7822876

endloop
endfacet
facet normal 0.531041801 -0.1237833351 -0.8382555246
outer loop
vertex -58.03139496 20.47396088 257.7822876
vertex -58.71961212 19.60131073 257.4751587
vertex -58.44149017 20.55454254 257.5105896

endloop
endfacet
facet normal 0.5608767271 0.07420562953 -0.8245670795
outer loop
vertex -58.03139496 20.47396088 257.7822876
vertex -58.44149017 20.55454254 257.5105896
vertex -57.82186127 21.42641449 258.0105286

endloop
endfacet
facet normal 0.7592164278 -0.1811100692 -0.6251316667
outer loop
vertex -57.82186127 21.42641449 258.0105286
vertex -58.44149017 20.55454254 257.5105896
vertex -58.12068939 21.49938202 257.6264648

endloop
endfacet
facet normal 0.7941073179 0.0824919194 -0.6021533012
outer loop
vertex -57.82186127 21.42641449 258.0105286
vertex -58.12068939 21.49936676 257.6264343
vertex -57.69966888 22.37552643 258.3016968

endloop
endfacet
facet normal 0.9261381626 -0.1972618401 -0.3214901686
outer loop
vertex -57.69966888 22.37552643 258.3016968
vertex -58.12068939 21.49936676 257.6264343
vertex -57.84775543 22.44197845 257.8343201

endloop
endfacet
facet normal 0.9540981054 0.03124705516 -0.2978596687
outer loop
vertex -57.69966888 22.37552643 258.3016968
vertex -57.84775543 22.44197845 257.8343201
vertex -57.65618134 23.33652496 258.5418091

endloop
endfacet
facet normal 0.9859328866 -0.1438983083 -0.08502673358
outer loop
vertex -57.65618134 23.33652496 258.5418091
vertex -57.84775543 22.44197845 257.8343201
vertex -57.69116974 23.39211273 258.0420227

endloop
endfacet
facet normal 0.9973474741 -0.01407887693 -0.07141300291
outer loop
vertex -57.65616608 23.33654022 258.5418396
vertex -57.69116974 23.39212799 258.0420227
vertex -57.63370514 24.31421661 258.6627808

endloop
endfacet
facet normal 0.9984815717 -0.05356383324 -0.01286610961
outer loop
vertex -57.63370514 24.31421661 258.6627808
vertex -57.69116974 23.39212799 258.0420227
vertex -57.63819122 24.35218048 258.1565857

endloop
endfacet
facet normal 0.9998414516 -0.01475557964 -0.009967603721
outer loop
vertex -57.63370514 24.31421661 258.6627808
vertex -57.63819122 24.35218048 258.1565857
vertex -57.61867523 25.29712677 258.7153625

endloop
endfacet
facet normal 0.9995208979 -0.00239629345 -0.03085717
outer loop
vertex -57.61867523 25.29712677 258.7153625
vertex -57.63819122 24.35218048 258.1565857
vertex -57.63448334 25.31874847 258.2016296

endloop
endfacet
facet normal 0.9987370968 0.04102244228 -0.02900566906
outer loop
vertex -57.61867523 25.29712677 258.7153625
vertex -57.63448334 25.31874847 258.2016296
vertex -57.65584564 26.26506805 258.8044434

endloop
endfacet
facet normal 0.9994171262 0.0008216815768 0.03412709013
outer loop
vertex -57.65584564 26.26506805 258.8044434
vertex -57.63448334 25.31874847 258.2016296
vertex -57.63787079 26.28920746 258.2774658

endloop
endfacet
facet normal 0.993694067 0.1052304581 0.03871456161
outer loop
vertex -57.65584564 26.26506805 258.8044434
vertex -57.63787079 26.28920746 258.2774658
vertex -57.7607193 27.2027359 258.9475708

endloop
endfacet
facet normal 0.9863536954 0.01220515091 0.1641867161
outer loop
vertex -57.7607193 27.2027359 258.9475708
vertex -57.63787079 26.28920746 258.2774658
vertex -57.67220306 27.26152802 258.411438

endloop
endfacet
facet normal 0.978194654 0.1134996861 0.1739344299
outer loop
vertex -57.76070404 27.20276642 258.9476013
vertex -57.67218781 27.26154327 258.411438
vertex -57.88973236 28.1060257 259.0838318

endloop
endfacet
facet normal 0.9795113206 0.1295812875 0.1541630328
outer loop
vertex -57.88973236 28.1060257 259.0838318
vertex -57.67218781 27.26154327 258.411438
vertex -57.82158661 28.22562408 258.5503235

endloop
endfacet
facet normal 0.9699149132 0.1797471642 0.16418311
outer loop
vertex -57.88973236 28.1060257 259.0838318
vertex -57.82158661 28.22562408 258.5503235
vertex -58.08861542 28.97258759 259.3100281

endloop
endfacet
facet normal 0.966317296 0.2318581939 0.1116814986
outer loop
vertex -58.08861542 28.97258759 259.3100281
vertex -57.82158661 28.22562408 258.5503235
vertex -58.07367706 29.15979767 258.7921143

endloop
endfacet
facet normal 0.9609446526 0.250241369 0.1181714758
outer loop
vertex -58.08861542 28.97258759 259.3100281
vertex -58.07367706 29.15979767 258.7921143
vertex -58.34818268 29.80780792 259.6520996

endloop
endfacet
facet normal 0.9485961199 0.3085913658 0.07026232779
outer loop
vertex -58.34818268 29.80780792 259.6520996
vertex -58.07367706 29.15979767 258.7921143
vertex -58.38863373 30.04520416 259.1555786

endloop
endfacet
facet normal 0.9557369351 0.2880674899 0.05986770988
outer loop
vertex -58.34818268 29.80780792 259.6520996
vertex -58.38863373 30.04520416 259.1555786
vertex -58.61647797 30.61095428 260.0706787

endloop
endfacet
facet normal 0.9345661402 0.3555564284 0.012872261
outer loop
vertex -58.61647797 30.61095428 260.0706787
vertex -58.38863373 30.04520416 259.1555786
vertex -58.70929718 30.87220001 259.5935364

endloop
endfacet
facet normal 0.9558935165 0.2925819457 -0.025756469
outer loop
vertex -58.61647797 30.61095428 260.0706787
vertex -58.70929718 30.87220001 259.5935364
vertex -58.8340683 31.35930634 260.4962463

endloop
endfacet
facet normal 0.9247591496 0.3733586073 -0.07364723831
outer loop
vertex -58.8340683 31.35930634 260.4962463
vertex -58.70929718 30.87220001 259.5935364
vertex -58.97879791 31.62593842 260.0306396

endloop
endfacet
facet normal 0.9589632154 0.2293634415 -0.166679427
outer loop
vertex -58.83408356 31.35929108 260.4962158
vertex -58.97878265 31.62593842 260.0306396
vertex -58.96805573 32.21524811 260.9032898

endloop
endfacet
facet normal 0.9181675315 0.3230101466 -0.229418546
outer loop
vertex -58.96805573 32.21524811 260.9032898
vertex -58.97878265 31.62593842 260.0306396
vertex -59.16542816 32.46360016 260.4630432

endloop
endfacet
facet normal 0.6791713834 0.7263894677 0.1052832603
outer loop
vertex -58.96805573 32.21524811 260.9032898
vertex -59.16542816 32.46360016 260.4630432
vertex -59.61238861 32.78075409 261.1581726

endloop
endfacet
facet normal 0 0.9101912379 -0.4141881466
outer loop
vertex -59.61238861 32.78075409 261.1581726
vertex -59.16542816 32.46360016 260.4630432
vertex -59.61240387 32.78075409 261.1581726

endloop
endfacet
endsolid
