solid 
facet normal -0.903446 0.428701 0
outer loop
vertex -62.41919708 86.66374969 247.706665
vertex -62.41919708 86.66374969 247.7066498
vertex -62.69538116 86.08171844 247.401825

endloop
endfacet
facet normal -0.0864296779 0.4940898418 -0.8651041389
outer loop
vertex -62.69538116 86.08171844 247.401825
vertex -62.41919708 86.66374969 247.7066498
vertex -62.32386017 86.06917572 247.3575439

endloop
endfacet
facet normal -0.1218835562 -0.1424069405 -0.9822752476
outer loop
vertex -62.69538116 86.08171844 247.401825
vertex -62.32386017 86.06917572 247.3575439
vertex -62.7432785 85.37975311 247.5095367

endloop
endfacet
facet normal -0.2420143336 -0.06617969275 -0.9680129886
outer loop
vertex -62.7432785 85.37975311 247.5095367
vertex -62.32386017 86.06917572 247.3575439
vertex -62.3690567 85.3660202 247.4169159

endloop
endfacet
facet normal -0.24101834 -0.2584041059 -0.9354878664
outer loop
vertex -62.7432785 85.37975311 247.5095367
vertex -62.3690567 85.3660202 247.4169159
vertex -62.79871368 84.77199554 247.6916962

endloop
endfacet
facet normal -0.5201635957 -0.01874038018 -0.8538609743
outer loop
vertex -62.79871368 84.77199554 247.6916962
vertex -62.3690567 85.3660202 247.4169159
vertex -62.4748764 84.7519455 247.4948578

endloop
endfacet
facet normal -0.5074549913 -0.312446624 -0.8030357957
outer loop
vertex -62.79871368 84.77199554 247.6916962
vertex -62.4748764 84.7519455 247.4948578
vertex -62.78127289 84.11666107 247.9356537

endloop
endfacet
facet normal -0.7609820962 -0.07972316444 -0.6438560486
outer loop
vertex -62.78127289 84.11666107 247.9356537
vertex -62.4748764 84.7519455 247.4948578
vertex -62.53194427 84.08382416 247.6450348

endloop
endfacet
facet normal -0.7264115214 -0.3657000065 -0.5818847418
outer loop
vertex -62.78127289 84.11666107 247.9356537
vertex -62.53194427 84.08382416 247.6450348
vertex -62.64942169 83.44274139 248.1945953

endloop
endfacet
facet normal -0.8708071113 -0.2181168944 -0.440590471
outer loop
vertex -62.64942169 83.44274139 248.1945953
vertex -62.53194427 84.08382416 247.6450348
vertex -62.46538544 83.39342499 247.8552704

endloop
endfacet
facet normal -0.8163343668 -0.4354387522 -0.3794617653
outer loop
vertex -62.64942169 83.44274139 248.1945953
vertex -62.46538544 83.39342499 247.8552704
vertex -62.41838837 82.78438568 248.4530487

endloop
endfacet
facet normal -0.8838365674 -0.3606394529 -0.2979463637
outer loop
vertex -62.41838837 82.78438568 248.4530487
vertex -62.46538544 83.39342499 247.8552704
vertex -62.27141571 82.71871185 248.0965576

endloop
endfacet
facet normal -0.8282027841 -0.502099812 -0.2489497066
outer loop
vertex -62.41838837 82.78438568 248.4530487
vertex -62.27141571 82.71871185 248.0965576
vertex -62.11571503 82.15480804 248.7158966

endloop
endfacet
facet normal -0.8572543859 -0.4693156183 -0.2117964029
outer loop
vertex -62.11571503 82.15480804 248.7158966
vertex -62.27141571 82.71871185 248.0965576
vertex -61.98387909 82.07665253 248.3554688

endloop
endfacet
facet normal -0.8211253285 -0.5405732393 -0.1831219494
outer loop
vertex -62.11571503 82.15480804 248.7159119
vertex -61.98387909 82.07665253 248.3554688
vertex -61.77584076 81.54827118 248.9823914

endloop
endfacet
facet normal -0.8240914345 -0.5373037457 -0.1793820858
outer loop
vertex -61.77584076 81.54827118 248.9823914
vertex -61.98387909 82.07665253 248.3554688
vertex -61.64243317 81.46327972 248.6240845

endloop
endfacet
facet normal -0.8211519122 -0.5425547361 -0.1770420521
outer loop
vertex -61.77584076 81.54827118 248.9823914
vertex -61.64243317 81.46327972 248.6240845
vertex -61.43639374 80.9474411 249.2492523

endloop
endfacet
facet normal -0.7964336872 -0.5683774948 -0.206495434
outer loop
vertex -61.43639374 80.9474411 249.2492523
vertex -61.64243317 81.46327972 248.6240845
vertex -61.28423309 80.8613205 248.8994293

endloop
endfacet
facet normal -0.8315469623 -0.5017883182 -0.2381978631
outer loop
vertex -61.43639374 80.94747162 249.2492828
vertex -61.28421783 80.86135101 248.8994598
vertex -61.13704681 80.32793427 249.5093842

endloop
endfacet
facet normal -0.7642902732 -0.5654278398 -0.3100832403
outer loop
vertex -61.13704681 80.32793427 249.5093842
vertex -61.28421783 80.86135101 248.8994598
vertex -60.94379425 80.24629974 249.1819153

endloop
endfacet
facet normal -0.8241072297 -0.4181478918 -0.3820990324
outer loop
vertex -61.13704681 80.32793427 249.5093842
vertex -60.94379425 80.24629974 249.1819153
vertex -60.91121674 79.6687851 249.7436523

endloop
endfacet
facet normal -0.676199913 -0.5329211354 -0.5086736679
outer loop
vertex -60.91121674 79.6687851 249.7436523
vertex -60.94379425 80.24629974 249.1819153
vertex -60.65032196 79.59514618 249.4739838

endloop
endfacet
facet normal -0.7213515043 -0.3341196775 -0.6066432595
outer loop
vertex -60.91121674 79.6687851 249.7436523
vertex -60.65032196 79.59514618 249.4739838
vertex -60.82576752 78.99947357 250.0106812

endloop
endfacet
facet normal -0.6319484711 -0.4077135921 -0.6590983868
outer loop
vertex -60.82576752 78.99947357 250.0106812
vertex -60.65032196 79.59514618 249.4739838
vertex -60.53980255 78.91197968 249.7906189

endloop
endfacet
facet normal -0.6374652386 -0.253464818 -0.7275944948
outer loop
vertex -60.82576752 78.99947357 250.0106812
vertex -60.53980255 78.91197968 249.7906189
vertex -60.9265976 78.34496307 250.3270264

endloop
endfacet
facet normal -0.7237394452 -0.1446195245 -0.6747491956
outer loop
vertex -60.9265976 78.34496307 250.3270264
vertex -60.53980255 78.91197968 249.7906189
vertex -60.6936264 78.2123642 250.1055603

endloop
endfacet
facet normal -0.6828498244 0.02013923787 -0.7302811146
outer loop
vertex -60.92658234 78.34499359 250.3270721
vertex -60.69361115 78.21239471 250.1055756
vertex -61.13460541 77.64199066 250.5021973

endloop
endfacet
facet normal -0.614132762 -0.07168927789 -0.7859399915
outer loop
vertex -61.13460541 77.64199066 250.5021973
vertex -60.69361115 78.21239471 250.1055756
vertex -60.88912201 77.48940277 250.324295

endloop
endfacet
facet normal -0.5551324487 0.07292022556 -0.828559339
outer loop
vertex -61.13460541 77.64199066 250.5021973
vertex -60.88912201 77.48940277 250.324295
vertex -61.40892792 76.93196869 250.6235046

endloop
endfacet
facet normal -0.4656465054 -0.04031173885 -0.8840522766
outer loop
vertex -61.40892792 76.93196869 250.6235046
vertex -60.88912201 77.48940277 250.324295
vertex -61.13863373 76.7766037 250.4882202

endloop
endfacet
facet normal -0.4512769282 -0.008089536801 -0.8923473358
outer loop
vertex -61.40892792 76.93196869 250.6235046
vertex -61.13863373 76.7766037 250.4882202
vertex -61.71051788 76.23097992 250.7823792

endloop
endfacet
facet normal -0.4467576146 -0.01401125547 -0.8945453167
outer loop
vertex -61.71051788 76.23097992 250.7823792
vertex -61.13863373 76.7766037 250.4882202
vertex -61.4344101 76.0847702 250.6467743

endloop
endfacet
facet normal -0.4908479154 -0.1275955439 -0.8618513346
outer loop
vertex -61.71051788 76.23097992 250.7823792
vertex -61.4344101 76.0847702 250.6467743
vertex -61.97769928 75.54985809 251.0353851

endloop
endfacet
facet normal -0.5619700551 -0.02976563945 -0.8266218305
outer loop
vertex -61.97769928 75.54985809 251.0353851
vertex -61.4344101 76.0847702 250.6467743
vertex -61.71698761 75.41564178 250.8629761

endloop
endfacet
facet normal -0.6143217087 -0.2198525369 -0.7578084469
outer loop
vertex -61.97769928 75.54985809 251.0353851
vertex -61.71698761 75.41564178 250.8629761
vertex -62.16802216 74.95223236 251.3630524

endloop
endfacet
facet normal -0.7191877365 -0.04801730439 -0.693154633
outer loop
vertex -62.16802216 74.95223236 251.3630524
vertex -61.71698761 75.41564178 250.8629761
vertex -61.94597626 74.82149506 251.1417236

endloop
endfacet
facet normal -0.7484553456 -0.2013086528 -0.6318935156
outer loop
vertex -62.1680069 74.95223236 251.3630524
vertex -61.94599152 74.82152557 251.1417236
vertex -62.3381424 74.3446579 251.7581329

endloop
endfacet
facet normal -0.8389694095 -0.01328285597 -0.5440164208
outer loop
vertex -62.3381424 74.3446579 251.7581329
vertex -61.94599152 74.82152557 251.1417236
vertex -62.1701889 74.21233368 251.5023499

endloop
endfacet
facet normal -0.7964661717 -0.5572859049 -0.2346787304
outer loop
vertex -62.3381424 74.3446579 251.7581329
vertex -62.1701889 74.21233368 251.5023499
vertex -62.04039764 73.78426361 252.0783844

endloop
endfacet
facet normal -nan(ind) -nan(ind) -nan(ind)
outer loop
vertex -62.04039764 73.78426361 252.0783844
vertex -62.1701889 74.21233368 251.5023499
vertex -62.04039764 73.78426361 252.0783844

endloop
endfacet
facet normal -0.6251522899 -0.467299968 0.6251522899
outer loop
vertex -62.41919708 86.66374969 247.7066498
vertex -62.41921234 86.66374969 247.7066345
vertex -62.32386017 86.06917572 247.3575439

endloop
endfacet
facet normal 0.4262282252 0.5078744292 -0.7485940456
outer loop
vertex -62.32386017 86.06917572 247.3575439
vertex -62.41921234 86.66374969 247.7066345
vertex -62.12885284 86.06887054 247.4683685

endloop
endfacet
facet normal 0.4912599325 -0.1045896709 -0.8647106886
outer loop
vertex -62.32386017 86.06917572 247.3575439
vertex -62.12885284 86.06887054 247.4683685
vertex -62.3690567 85.3660202 247.4169159

endloop
endfacet
facet normal 0.4051150084 -0.07172765583 -0.9114477038
outer loop
vertex -62.3690567 85.3660202 247.4169159
vertex -62.12885284 86.06887054 247.4683685
vertex -62.16614532 85.37001801 247.5067902

endloop
endfacet
facet normal 0.4011473358 -0.1830479205 -0.8975379467
outer loop
vertex -62.3690567 85.3660202 247.4169159
vertex -62.16614532 85.37001801 247.5067902
vertex -62.4748764 84.7519455 247.4948578

endloop
endfacet
facet normal 0.1122987941 -0.03692353517 -0.9929882288
outer loop
vertex -62.4748764 84.7519455 247.4948578
vertex -62.16614532 85.37001801 247.5067902
vertex -62.25879669 84.76076508 247.5189667

endloop
endfacet
facet normal 0.1171422526 -0.227307409 -0.9667517543
outer loop
vertex -62.4748764 84.7519455 247.4948578
vertex -62.25879669 84.76076508 247.5189667
vertex -62.53194427 84.08382416 247.6450348

endloop
endfacet
facet normal -0.2068168819 -0.09784111381 -0.9734752178
outer loop
vertex -62.53194427 84.08382416 247.6450348
vertex -62.25879669 84.76076508 247.5189667
vertex -62.31735992 84.09844208 247.5979767

endloop
endfacet
facet normal -0.1844606549 -0.302538693 -0.9351174235
outer loop
vertex -62.53194427 84.08382416 247.6450348
vertex -62.31735992 84.09844208 247.5979767
vertex -62.46538544 83.39342499 247.8552704

endloop
endfacet
facet normal -0.4010462165 -0.2385721207 -0.8844463229
outer loop
vertex -62.46538544 83.39342499 247.8552704
vertex -62.31735992 84.09844208 247.5979767
vertex -62.26564789 83.41539764 247.7587738

endloop
endfacet
facet normal -0.3614150286 -0.404356122 -0.8401638269
outer loop
vertex -62.46538544 83.39342499 247.8552704
vertex -62.26564789 83.41539764 247.7587738
vertex -62.27141571 82.71871185 248.0965576

endloop
endfacet
facet normal -0.4691300988 -0.3821351528 -0.7961719036
outer loop
vertex -62.27141571 82.71871185 248.0965576
vertex -62.26564789 83.41539764 247.7587738
vertex -62.0863266 82.74794769 247.973465

endloop
endfacet
facet normal -0.4252591133 -0.4957871437 -0.7571986318
outer loop
vertex -62.27141571 82.71871185 248.0965576
vertex -62.0863266 82.74794769 247.973465
vertex -61.98387909 82.07665253 248.3554688

endloop
endfacet
facet normal -0.4704035819 -0.4895816147 -0.7341867685
outer loop
vertex -61.98387909 82.07665253 248.3554688
vertex -62.0863266 82.74794769 247.973465
vertex -61.80825043 82.11144257 248.2197418

endloop
endfacet
facet normal -0.4377161264 -0.5538426042 -0.7082816958
outer loop
vertex -61.98387909 82.07665253 248.3554688
vertex -61.80825043 82.11144257 248.2197266
vertex -61.64243317 81.46327972 248.6240845

endloop
endfacet
facet normal -0.4412206113 -0.5535322428 -0.7063472271
outer loop
vertex -61.64243317 81.46327972 248.6240845
vertex -61.80825043 82.11144257 248.2197266
vertex -61.46903229 81.50112152 248.4861145

endloop
endfacet
facet normal -0.4292956293 -0.5742986202 -0.6970555186
outer loop
vertex -61.64243317 81.46327972 248.6240845
vertex -61.46903229 81.50112152 248.4861145
vertex -61.28423309 80.8613205 248.8994293

endloop
endfacet
facet normal -0.3910208046 -0.5764509439 -0.7175005674
outer loop
vertex -61.28423309 80.8613205 248.8994293
vertex -61.46903229 81.50112152 248.4861145
vertex -61.10448456 80.89965057 248.7706757

endloop
endfacet
facet normal -0.4021726549 -0.5564821362 -0.7270383835
outer loop
vertex -61.28421783 80.86135101 248.8994598
vertex -61.1044693 80.89968109 248.7706909
vertex -60.94379425 80.24629974 249.1819153

endloop
endfacet
facet normal -0.3022753298 -0.5598797202 -0.7714689374
outer loop
vertex -60.94379425 80.24629974 249.1819153
vertex -61.1044693 80.89968109 248.7706909
vertex -60.74939728 80.28261566 249.0793915

endloop
endfacet
facet normal -0.326744616 -0.50546211 -0.7985900044
outer loop
vertex -60.94379425 80.24629974 249.1819153
vertex -60.74939728 80.28261566 249.0793915
vertex -60.65032196 79.59514618 249.4739838

endloop
endfacet
facet normal -0.1194282845 -0.5071324706 -0.8535535336
outer loop
vertex -60.65032196 79.59514618 249.4739838
vertex -60.74939728 80.28261566 249.0793915
vertex -60.43956757 79.62682343 249.4256744

endloop
endfacet
facet normal -0.1386021227 -0.4348219335 -0.8897861242
outer loop
vertex -60.65032196 79.59514618 249.4739838
vertex -60.43956757 79.62682343 249.4256744
vertex -60.53980255 78.91197968 249.7906189

endloop
endfacet
facet normal -0.04081688076 -0.4497710764 -0.892210722
outer loop
vertex -60.53980255 78.91197968 249.7906189
vertex -60.43956757 79.62682343 249.4256744
vertex -60.32363129 78.91527557 249.779068

endloop
endfacet
facet normal -0.04273274541 -0.4022862017 -0.9145160913
outer loop
vertex -60.53980255 78.91197968 249.7906189
vertex -60.32363129 78.91527557 249.779068
vertex -60.6936264 78.2123642 250.1055603

endloop
endfacet
facet normal -0.1887017488 -0.330246985 -0.924839735
outer loop
vertex -60.6936264 78.2123642 250.1055603
vertex -60.32363129 78.91527557 249.779068
vertex -60.48574066 78.16002655 250.0818329

endloop
endfacet
facet normal -0.1700898111 -0.2429167032 -0.955018878
outer loop
vertex -60.69361115 78.21239471 250.1055756
vertex -60.4857254 78.16005707 250.0818634
vertex -60.88912201 77.48940277 250.324295

endloop
endfacet
facet normal -0.06169937924 -0.3062775731 -0.9499406219
outer loop
vertex -60.88912201 77.48940277 250.324295
vertex -60.4857254 78.16005707 250.0818634
vertex -60.68770599 77.41347504 250.3356934

endloop
endfacet
facet normal -0.02595966496 -0.2154086083 -0.9761788845
outer loop
vertex -60.88912201 77.48940277 250.324295
vertex -60.68770599 77.41347504 250.3356934
vertex -61.13863373 76.7766037 250.4882202

endloop
endfacet
facet normal 0.09912016988 -0.2975884974 -0.9495347142
outer loop
vertex -61.13863373 76.7766037 250.4882202
vertex -60.68770599 77.41347504 250.3356934
vertex -60.94239044 76.69707489 250.5336304

endloop
endfacet
facet normal 0.112974748 -0.2675979435 -0.9568846226
outer loop
vertex -61.13863373 76.7766037 250.4882202
vertex -60.94239044 76.69707489 250.5336304
vertex -61.4344101 76.0847702 250.6467743

endloop
endfacet
facet normal 0.1149453446 -0.2690621614 -0.9562391043
outer loop
vertex -61.4344101 76.0847702 250.6467743
vertex -60.94239044 76.69707489 250.5336304
vertex -61.23712921 76.01042938 250.6914062

endloop
endfacet
facet normal 0.08447235823 -0.3384829164 -0.9371733069
outer loop
vertex -61.4344101 76.0847702 250.6467743
vertex -61.23712921 76.01042938 250.6914062
vertex -61.71698761 75.41564178 250.8629761

endloop
endfacet
facet normal -0.02619594894 -0.2574924231 -0.9659252167
outer loop
vertex -61.71698761 75.41564178 250.8629761
vertex -61.23712921 76.01042938 250.6914062
vertex -61.51537323 75.34905243 250.8752594

endloop
endfacet
facet normal -0.07620891184 -0.3992765546 -0.9136576653
outer loop
vertex -61.71698761 75.41564178 250.8629761
vertex -61.51537323 75.34905243 250.8752594
vertex -61.94597626 74.82149506 251.1417236

endloop
endfacet
facet normal -0.2443495542 -0.2708438635 -0.931094408
outer loop
vertex -61.94597626 74.82149506 251.1417236
vertex -61.51537323 75.34905243 250.8752594
vertex -61.74434662 74.75850677 251.107132

endloop
endfacet
facet normal -0.2775711417 -0.4116942286 -0.8680220246
outer loop
vertex -61.94599152 74.82152557 251.1417236
vertex -61.74434662 74.75850677 251.107132
vertex -62.1701889 74.21233368 251.5023499

endloop
endfacet
facet normal -0.4372029603 -0.2780318856 -0.8553079963
outer loop
vertex -62.1701889 74.21233368 251.5023499
vertex -61.74434662 74.75850677 251.107132
vertex -61.98180389 74.14681244 251.4273529

endloop
endfacet
facet normal -0.4502427876 -0.7622621655 -0.4650138617
outer loop
vertex -62.1701889 74.21233368 251.5023499
vertex -61.98180389 74.14681244 251.4273529
vertex -62.04039764 73.78426361 252.0783844

endloop
endfacet
facet normal -0.9115800858 0.3885576725 0.1343310773
outer loop
vertex -62.04039764 73.78426361 252.0783844
vertex -61.98180389 74.14681244 251.4273529
vertex -62.0404129 73.78423309 252.0783691

endloop
endfacet
facet normal 0.8171758652 0.5079628229 -0.2723919451
outer loop
vertex -62.41921234 86.66374969 247.7066345
vertex -62.41919708 86.66374969 247.7066803
vertex -62.12885284 86.06887054 247.4683685

endloop
endfacet
facet normal 0.7191465497 0.5306879282 -0.4485515654
outer loop
vertex -62.12885284 86.06887054 247.4683685
vertex -62.41919708 86.66374969 247.7066803
vertex -62.03050995 86.07378387 247.6318512

endloop
endfacet
facet normal 0.8555467129 -0.07382678241 -0.5124347806
outer loop
vertex -62.12885284 86.06887054 247.4683685
vertex -62.03050995 86.07378387 247.6318512
vertex -62.16614532 85.37001801 247.5067902

endloop
endfacet
facet normal 0.798830092 -0.04739096388 -0.5996870399
outer loop
vertex -62.16614532 85.37001801 247.5067902
vertex -62.03050995 86.07378387 247.6318512
vertex -62.05649567 85.38011932 247.6520538

endloop
endfacet
facet normal 0.7954950929 -0.1327902377 -0.5912311077
outer loop
vertex -62.16614532 85.37001801 247.5067902
vertex -62.05649567 85.38011932 247.6520538
vertex -62.25879669 84.76076508 247.5189667

endloop
endfacet
facet normal 0.5746284127 -0.01184925903 -0.818328619
outer loop
vertex -62.25879669 84.76076508 247.5189667
vertex -62.05649567 85.38011932 247.6520538
vertex -62.11396027 84.77895355 247.6204071

endloop
endfacet
facet normal 0.5797575712 -0.146868661 -0.8014429212
outer loop
vertex -62.25879669 84.76076508 247.5189667
vertex -62.11396027 84.77895355 247.6204071
vertex -62.31735992 84.09844208 247.5979767

endloop
endfacet
facet normal 0.2845791876 -0.05350953713 -0.9571579695
outer loop
vertex -62.31735992 84.09844208 247.5979767
vertex -62.11396027 84.77895355 247.6204071
vertex -62.14710236 84.12831879 247.6469269

endloop
endfacet
facet normal 0.3026347458 -0.1966342479 -0.9326023459
outer loop
vertex -62.31735992 84.09844208 247.5979767
vertex -62.14710236 84.12831879 247.6469269
vertex -62.26564789 83.41539764 247.7587738

endloop
endfacet
facet normal 0.07869355381 -0.1672669202 -0.9827660322
outer loop
vertex -62.26564789 83.41539764 247.7587738
vertex -62.14710236 84.12831879 247.6469269
vertex -62.08956146 83.46022797 247.7652435

endloop
endfacet
facet normal 0.1059920862 -0.2785633206 -0.9545512199
outer loop
vertex -62.26564789 83.41539764 247.7587738
vertex -62.08956146 83.46022797 247.7652435
vertex -62.0863266 82.74794769 247.973465

endloop
endfacet
facet normal -0.01224000473 -0.2806175947 -0.9597415924
outer loop
vertex -62.0863266 82.74794769 247.973465
vertex -62.08956146 83.46022797 247.7652435
vertex -61.91452789 82.80767059 247.9538116

endloop
endfacet
facet normal 0.01632072777 -0.354593277 -0.9348781705
outer loop
vertex -62.0863266 82.74794769 247.973465
vertex -61.91452789 82.80767059 247.9538116
vertex -61.80825043 82.11144257 248.2197418

endloop
endfacet
facet normal -0.03408674523 -0.3611451685 -0.9318864346
outer loop
vertex -61.80825043 82.11144257 248.2197418
vertex -61.91452789 82.80767059 247.9538116
vertex -61.64238739 82.18248749 248.186142

endloop
endfacet
facet normal -0.01139758434 -0.4053161442 -0.9141055346
outer loop
vertex -61.80825043 82.11144257 248.2197266
vertex -61.64240265 82.18248749 248.1861572
vertex -61.46903229 81.50112152 248.4861145

endloop
endfacet
facet normal -0.01542498078 -0.4061515629 -0.9136755466
outer loop
vertex -61.46903229 81.50112152 248.4861145
vertex -61.64240265 82.18248749 248.1861572
vertex -61.30651093 81.57836151 248.4490356

endloop
endfacet
facet normal -0.002312878845 -0.4288054109 -0.9033939242
outer loop
vertex -61.46903229 81.50112152 248.4861145
vertex -61.30651093 81.57836151 248.4490356
vertex -61.10448456 80.89965057 248.7706757

endloop
endfacet
facet normal 0.03955502808 -0.4182702303 -0.907460928
outer loop
vertex -61.10448456 80.89965057 248.7706757
vertex -61.30651093 81.57836151 248.4490356
vertex -60.94113922 80.97789764 248.7417297

endloop
endfacet
facet normal 0.04422175884 -0.426502049 -0.9034049511
outer loop
vertex -61.1044693 80.89968109 248.7706909
vertex -60.94112396 80.97789764 248.7417603
vertex -60.74939728 80.28261566 249.0793915

endloop
endfacet
facet normal 0.1495930254 -0.3982239962 -0.905008018
outer loop
vertex -60.74939728 80.28261566 249.0793915
vertex -60.94112396 80.97789764 248.7417603
vertex -60.58319855 80.35680389 249.0742188

endloop
endfacet
facet normal 0.1523735225 -0.4042344391 -0.901874125
outer loop
vertex -60.74939728 80.28261566 249.0793915
vertex -60.58319855 80.35680389 249.0742188
vertex -60.43956757 79.62682343 249.4256744

endloop
endfacet
facet normal 0.355573982 -0.3477293253 -0.867554903
outer loop
vertex -60.43956757 79.62682343 249.4256744
vertex -60.58319855 80.35680389 249.0742188
vertex -60.27811432 79.6924057 249.4655609

endloop
endfacet
facet normal 0.3608870208 -0.3670100868 -0.8573588729
outer loop
vertex -60.43956757 79.62682343 249.4256744
vertex -60.27811432 79.6924057 249.4655609
vertex -60.32363129 78.91527557 249.779068

endloop
endfacet
facet normal 0.4473551512 -0.3570079207 -0.8200113773
outer loop
vertex -60.32363129 78.91527557 249.779068
vertex -60.27811432 79.6924057 249.4655609
vertex -60.16420746 78.95284271 249.8496857

endloop
endfacet
facet normal 0.4484432042 -0.4138458371 -0.7922312617
outer loop
vertex -60.32363129 78.91527557 249.779068
vertex -60.16420746 78.95284271 249.8496857
vertex -60.48574066 78.16002655 250.0818329

endloop
endfacet
facet normal 0.3079506755 -0.3802567124 -0.8721073866
outer loop
vertex -60.48574066 78.16002655 250.0818329
vertex -60.16420746 78.95284271 249.8496857
vertex -60.31629181 78.14922333 250.1463776

endloop
endfacet
facet normal 0.3080256283 -0.3798864484 -0.8722422123
outer loop
vertex -60.4857254 78.16005707 250.0818634
vertex -60.31627655 78.14925385 250.1464081
vertex -60.68770599 77.41347504 250.3356934

endloop
endfacet
facet normal 0.4023331702 -0.4132597148 -0.8169115186
outer loop
vertex -60.68770599 77.41347504 250.3356934
vertex -60.31627655 78.14925385 250.1464081
vertex -60.53209686 77.38121796 250.4286499

endloop
endfacet
facet normal 0.4162834883 -0.376640141 -0.8275568485
outer loop
vertex -60.68770599 77.41347504 250.3356934
vertex -60.53209686 77.38121796 250.4286499
vertex -60.94239044 76.69707489 250.5336304

endloop
endfacet
facet normal 0.5218484998 -0.4263386428 -0.7388568521
outer loop
vertex -60.94239044 76.69707489 250.5336304
vertex -60.53209686 77.38121796 250.4286499
vertex -60.80399323 76.66103363 250.6521759

endloop
endfacet
facet normal 0.5337904692 -0.4002827406 -0.7448767424
outer loop
vertex -60.94239044 76.69707489 250.5336304
vertex -60.80399323 76.66103363 250.6521759
vertex -61.23712921 76.01042938 250.6914062

endloop
endfacet
facet normal 0.5380351543 -0.4028404951 -0.7404307127
outer loop
vertex -61.23712921 76.01042938 250.6914062
vertex -60.80399323 76.66103363 250.6521759
vertex -61.09978485 75.97704315 250.8093719

endloop
endfacet
facet normal 0.5275610089 -0.4262259007 -0.7348543406
outer loop
vertex -61.23712921 76.01042938 250.6914062
vertex -61.09978485 75.97704315 250.8093719
vertex -61.51537323 75.34905243 250.8752594

endloop
endfacet
facet normal 0.4318235815 -0.3719789684 -0.8216812611
outer loop
vertex -61.51537323 75.34905243 250.8752594
vertex -61.09978485 75.97704315 250.8093719
vertex -61.3655014 75.32039642 250.9669952

endloop
endfacet
facet normal 0.3960024416 -0.4645436704 -0.7920739651
outer loop
vertex -61.51537323 75.34905243 250.8752594
vertex -61.3655014 75.32039642 250.9669952
vertex -61.74434662 74.75850677 251.107132

endloop
endfacet
facet normal 0.2161469012 -0.3709782064 -0.9031365514
outer loop
vertex -61.74434662 74.75850677 251.107132
vertex -61.3655014 75.32039642 250.9669952
vertex -61.57788849 74.73305511 251.1574249

endloop
endfacet
facet normal 0.1765518636 -0.5094300508 -0.8422057629
outer loop
vertex -61.74434662 74.75850677 251.107132
vertex -61.57788849 74.7330246 251.1574402
vertex -61.98180389 74.14681244 251.4273529

endloop
endfacet
facet normal -0.004993165843 -0.4153860807 -0.9096315503
outer loop
vertex -61.98180389 74.14681244 251.4273529
vertex -61.57788849 74.7330246 251.1574402
vertex -61.80005646 74.11772919 251.4396362

endloop
endfacet
facet normal -0.1051863059 -0.8647399545 -0.4910810292
outer loop
vertex -61.98180389 74.14681244 251.4273529
vertex -61.80005646 74.11772919 251.4396362
vertex -62.0404129 73.78423309 252.0783691

endloop
endfacet
facet normal 0.8748729229 -0.4777336419 0.0797990188
outer loop
vertex -62.0404129 73.78423309 252.0783691
vertex -61.80005646 74.11772919 251.4396362
vertex -62.04039764 73.78426361 252.0783844

endloop
endfacet
facet normal -0.1890461296 -0 -0.981968224
outer loop
vertex -62.41919708 86.66374969 247.7066803
vertex -62.41919708 86.66378021 247.7066803
vertex -62.03050995 86.07378387 247.6318512

endloop
endfacet
facet normal 0.8264952898 0.55581671 -0.08929358423
outer loop
vertex -62.03050995 86.07378387 247.6318512
vertex -62.41919708 86.66378021 247.7066803
vertex -62.01580048 86.08202362 247.8192902

endloop
endfacet
facet normal 0.9962890744 -0.03954894841 -0.07644628733
outer loop
vertex -62.03050995 86.07378387 247.6318512
vertex -62.01580048 86.08202362 247.8192902
vertex -62.05649567 85.38011932 247.6520538

endloop
endfacet
facet normal 0.9805344939 -0.01013025362 -0.1960851997
outer loop
vertex -62.05649567 85.38011932 247.6520538
vertex -62.01580048 86.08202362 247.8192902
vertex -62.02275848 85.39318085 247.8200836

endloop
endfacet
facet normal 0.9782413244 -0.08351086825 -0.1899206489
outer loop
vertex -62.05649567 85.38011932 247.6520538
vertex -62.02275848 85.39318085 247.8200836
vertex -62.11396027 84.77895355 247.6204071

endloop
endfacet
facet normal 0.8687207699 0.03169610351 -0.4942869544
outer loop
vertex -62.11396027 84.77895355 247.6204071
vertex -62.02275848 85.39318085 247.8200836
vertex -62.0333786 84.80144501 247.7634735

endloop
endfacet
facet normal 0.8737815022 -0.06415777653 -0.482068181
outer loop
vertex -62.11396027 84.77895355 247.6204071
vertex -62.0333786 84.80144501 247.7634735
vertex -62.14710236 84.12831879 247.6469269

endloop
endfacet
facet normal 0.6642683744 0.01716151088 -0.7472970486
outer loop
vertex -62.14710236 84.12831879 247.6469269
vertex -62.0333786 84.80144501 247.7634735
vertex -62.02547455 84.16527557 247.7558899

endloop
endfacet
facet normal 0.6774972081 -0.07129468769 -0.7320619226
outer loop
vertex -62.14710236 84.12831879 247.6469269
vertex -62.02547455 84.16527557 247.7558899
vertex -62.08956146 83.46022797 247.7652435

endloop
endfacet
facet normal 0.4907178879 -0.05614040792 -0.869508028
outer loop
vertex -62.08956146 83.46022797 247.7652435
vertex -62.02547455 84.16527557 247.7558899
vertex -61.94870758 83.51567841 247.841156

endloop
endfacet
facet normal 0.5051963329 -0.1117727682 -0.8557356596
outer loop
vertex -62.08956146 83.46022797 247.7652435
vertex -61.94870758 83.51567841 247.841156
vertex -61.91452789 82.80767059 247.9538116

endloop
endfacet
facet normal 0.3979340792 -0.1253949702 -0.9088039398
outer loop
vertex -61.91452789 82.80767059 247.9538116
vertex -61.94870758 83.51567841 247.841156
vertex -61.77040863 82.88161469 248.0067139

endloop
endfacet
facet normal 0.4097816944 -0.1556378305 -0.8988080025
outer loop
vertex -61.91452789 82.80767059 247.9538116
vertex -61.77040863 82.88161469 248.0067139
vertex -61.64238739 82.18248749 248.186142

endloop
endfacet
facet normal 0.3622227907 -0.1689272225 -0.9166559577
outer loop
vertex -61.64238739 82.18248749 248.186142
vertex -61.77040863 82.88161469 248.0067139
vertex -61.50122833 82.27046967 248.225708

endloop
endfacet
facet normal 0.3720626235 -0.1886073202 -0.9088435769
outer loop
vertex -61.64240265 82.18248749 248.1861572
vertex -61.50122833 82.27046967 248.2256927
vertex -61.30651093 81.57836151 248.4490356

endloop
endfacet
facet normal 0.3679989874 -0.190178588 -0.9101697206
outer loop
vertex -61.30651093 81.57836151 248.4490356
vertex -61.50122833 82.27046967 248.2256927
vertex -61.16905975 81.67403412 248.4846191

endloop
endfacet
facet normal 0.3788374364 -0.2089496553 -0.901566565
outer loop
vertex -61.30651093 81.57836151 248.4490356
vertex -61.16905975 81.67403412 248.4846191
vertex -60.94113922 80.97789764 248.7417297

endloop
endfacet
facet normal 0.4166439176 -0.1917857975 -0.8886091113
outer loop
vertex -60.94113922 80.97789764 248.7417297
vertex -61.16905975 81.67403412 248.4846191
vertex -60.80664825 81.07472992 248.7838898

endloop
endfacet
facet normal 0.4320204556 -0.2192942798 -0.8747961521
outer loop
vertex -60.94112396 80.97789764 248.7417603
vertex -60.806633 81.07472992 248.783905
vertex -60.58319855 80.35680389 249.0742188

endloop
endfacet
facet normal 0.5230090022 -0.1745829284 -0.8342555761
outer loop
vertex -60.58319855 80.35680389 249.0742188
vertex -60.806633 81.07472992 248.783905
vertex -60.45420074 80.44860077 249.1358795

endloop
endfacet
facet normal 0.5458138585 -0.2248138338 -0.8071839213
outer loop
vertex -60.58319855 80.35680389 249.0742188
vertex -60.45420074 80.44860077 249.1358795
vertex -60.27811432 79.6924057 249.4655609

endloop
endfacet
facet normal 0.7052581906 -0.1388709396 -0.6952162981
outer loop
vertex -60.27811432 79.6924057 249.4655609
vertex -60.45420074 80.44860077 249.1358795
vertex -60.1677475 79.77394867 249.5612335

endloop
endfacet
facet normal 0.7277048826 -0.2245370001 -0.6480962634
outer loop
vertex -60.27811432 79.6924057 249.4655609
vertex -60.1677475 79.77394867 249.5612335
vertex -60.16420746 78.95284271 249.8496857

endloop
endfacet
facet normal 0.7908793688 -0.199794367 -0.5784394741
outer loop
vertex -60.16420746 78.95284271 249.8496857
vertex -60.1677475 79.77394867 249.5612335
vertex -60.06056976 79.01073456 249.9713898

endloop
endfacet
facet normal 0.7897949815 -0.3383509219 -0.5116078258
outer loop
vertex -60.16420746 78.95284271 249.8496857
vertex -60.06056976 79.01073456 249.9713898
vertex -60.31629181 78.14922333 250.1463776

endloop
endfacet
facet normal 0.6996760964 -0.3357784152 -0.6306394935
outer loop
vertex -60.31629181 78.14922333 250.1463776
vertex -60.06056976 79.01073456 249.9713898
vertex -60.19184113 78.17125702 250.2727203

endloop
endfacet
facet normal 0.6837130189 -0.4131741822 -0.6015176773
outer loop
vertex -60.31627655 78.14925385 250.1464081
vertex -60.19182587 78.17125702 250.2727509
vertex -60.53209686 77.38121796 250.4286499

endloop
endfacet
facet normal 0.7503824234 -0.4233622849 -0.5076323152
outer loop
vertex -60.53209686 77.38121796 250.4286499
vertex -60.19182587 78.17125702 250.2727509
vertex -60.42797089 77.38680267 250.5779114

endloop
endfacet
facet normal 0.7450805306 -0.437538594 -0.503403306
outer loop
vertex -60.53209686 77.38121796 250.4286499
vertex -60.42797089 77.38680267 250.5779114
vertex -60.80399323 76.66103363 250.6521759

endloop
endfacet
facet normal 0.8071044087 -0.4564777315 -0.3744468987
outer loop
vertex -60.80399323 76.66103363 250.6521759
vertex -60.42797089 77.38680267 250.5779114
vertex -60.72556305 76.66347504 250.8182526

endloop
endfacet
facet normal 0.8147885203 -0.4393033981 -0.378328234
outer loop
vertex -60.80399323 76.66103363 250.6521759
vertex -60.72556305 76.66347504 250.8182526
vertex -61.09978485 75.97704315 250.8093719

endloop
endfacet
facet normal 0.8186280727 -0.4415395856 -0.3672749102
outer loop
vertex -61.09978485 75.97704315 250.8093719
vertex -60.72556305 76.66347504 250.8182526
vertex -61.0238266 75.9797287 250.9754486

endloop
endfacet
facet normal 0.8263939619 -0.4234902561 -0.3711186051
outer loop
vertex -61.09978485 75.97704315 250.8093719
vertex -61.0238266 75.9797287 250.9754486
vertex -61.3655014 75.32039642 250.9669952

endloop
endfacet
facet normal 0.7792167664 -0.3975886703 -0.4845043719
outer loop
vertex -61.3655014 75.32039642 250.9669952
vertex -61.0238266 75.9797287 250.9754486
vertex -61.27100372 75.32472992 251.1154175

endloop
endfacet
facet normal 0.7666600347 -0.4314055145 -0.4755224288
outer loop
vertex -61.3655014 75.32039642 250.9669952
vertex -61.27100372 75.32472992 251.1154175
vertex -61.57788849 74.73305511 251.1574249

endloop
endfacet
facet normal 0.6442312002 -0.3812193274 -0.6630520225
outer loop
vertex -61.57788849 74.73305511 251.1574249
vertex -61.27100372 75.32472992 251.1154175
vertex -61.45461273 74.73970795 251.2733765

endloop
endfacet
facet normal 0.6069749594 -0.5018020272 -0.6162598133
outer loop
vertex -61.57788849 74.7330246 251.1574402
vertex -61.45461273 74.73973846 251.2733917
vertex -61.80005646 74.11772919 251.4396362

endloop
endfacet
facet normal 0.4459230304 -0.45384413 -0.7714778781
outer loop
vertex -61.80005646 74.11772919 251.4396362
vertex -61.45461273 74.73973846 251.2733917
vertex -61.63994598 74.12310028 251.5290222

endloop
endfacet
facet normal 0.2402866632 -0.894649446 -0.3766492307
outer loop
vertex -61.80005646 74.11772919 251.4396362
vertex -61.63994598 74.12310028 251.5290222
vertex -62.04039764 73.78426361 252.0783844

endloop
endfacet
facet normal 0.6460257173 -0.7633156776 0
outer loop
vertex -62.04039764 73.78426361 252.0783844
vertex -61.63994598 74.12310028 251.5290222
vertex -62.04039764 73.78426361 252.0783997

endloop
endfacet
facet normal -0.6667507291 -0.3332997262 0.6665994525
outer loop
vertex -62.41919708 86.66378021 247.7066803
vertex -62.41919708 86.66374969 247.706665
vertex -62.01580048 86.08202362 247.8192902

endloop
endfacet
facet normal 0.7639983296 0.5832219124 0.2759687006
outer loop
vertex -62.01580048 86.08202362 247.8192902
vertex -62.41919708 86.66374969 247.706665
vertex -62.08379364 86.09172821 247.9870148

endloop
endfacet
facet normal 0.9265288115 -0.00892563723 0.3761179745
outer loop
vertex -62.01580048 86.08202362 247.8192902
vertex -62.08379364 86.09172821 247.9870148
vertex -62.02275848 85.39318085 247.8200836

endloop
endfacet
facet normal 0.9692585468 0.02622640319 0.2446425408
outer loop
vertex -62.02275848 85.39318085 247.8200836
vertex -62.08379364 86.09172821 247.9870148
vertex -62.06233978 85.40645599 247.9754791

endloop
endfacet
facet normal 0.9673835635 -0.04127240926 0.249931246
outer loop
vertex -62.02275848 85.39318085 247.8200836
vertex -62.06233978 85.40645599 247.9754791
vertex -62.0333786 84.80144501 247.7634735

endloop
endfacet
facet normal 0.9956012964 0.06962650269 -0.06269175559
outer loop
vertex -62.0333786 84.80144501 247.7634735
vertex -62.06233978 85.40645599 247.9754791
vertex -62.02521515 84.82375336 247.9178925

endloop
endfacet
facet normal 0.9984192252 0.01305649243 -0.05466827005
outer loop
vertex -62.0333786 84.80144501 247.7634735
vertex -62.02521515 84.82375336 247.9178925
vertex -62.02547455 84.16527557 247.7558899

endloop
endfacet
facet normal 0.9196219444 0.09350013733 -0.3815144002
outer loop
vertex -62.02547455 84.16527557 247.7558899
vertex -62.02521515 84.82375336 247.9178925
vertex -61.96981049 84.20192719 247.8990479

endloop
endfacet
facet normal 0.925047338 0.06008702517 -0.3750694394
outer loop
vertex -62.02547455 84.16527557 247.7558899
vertex -61.96981049 84.20192719 247.8990479
vertex -61.94870758 83.51567841 247.841156

endloop
endfacet
facet normal 0.812911272 0.07373271883 -0.5777013302
outer loop
vertex -61.94870758 83.51567841 247.841156
vertex -61.96981049 84.20192719 247.8990479
vertex -61.86522675 83.57073212 247.9656525

endloop
endfacet
facet normal 0.8119429946 0.07724172622 -0.5786037445
outer loop
vertex -61.94870758 83.51567841 247.841156
vertex -61.86522675 83.57073212 247.9656525
vertex -61.77040863 82.88161469 248.0067139

endloop
endfacet
facet normal 0.7371990085 0.06133960932 -0.6728856564
outer loop
vertex -61.77040863 82.88161469 248.0067139
vertex -61.86522675 83.57073212 247.9656525
vertex -61.6774826 82.95491791 248.1152039

endloop
endfacet
facet normal 0.7303125858 0.07850712538 -0.6785868406
outer loop
vertex -61.77040863 82.88161469 248.0067139
vertex -61.6774826 82.95491791 248.1152039
vertex -61.50122833 82.27046967 248.225708

endloop
endfacet
facet normal 0.6949458718 0.06331592053 -0.7162690163
outer loop
vertex -61.50122833 82.27046967 248.225708
vertex -61.6774826 82.95491791 248.1152039
vertex -61.40798187 82.35762787 248.3238831

endloop
endfacet
facet normal 0.6905267835 0.07213131338 -0.7197012305
outer loop
vertex -61.50122833 82.27046967 248.2256927
vertex -61.40799713 82.35765839 248.3238831
vertex -61.16905975 81.67403412 248.4846191

endloop
endfacet
facet normal 0.6867622137 0.06991960853 -0.723511517
outer loop
vertex -61.16905975 81.67403412 248.4846191
vertex -61.40799713 82.35765839 248.3238831
vertex -61.07913971 81.76882172 248.5791321

endloop
endfacet
facet normal 0.6925508976 0.05981486663 -0.7188848257
outer loop
vertex -61.16905975 81.67403412 248.4846191
vertex -61.07913971 81.76882172 248.5791321
vertex -60.80664825 81.07472992 248.7838898

endloop
endfacet
facet normal 0.7189548016 0.07852265239 -0.6906071305
outer loop
vertex -60.80664825 81.07472992 248.7838898
vertex -61.07913971 81.76882172 248.5791321
vertex -60.7226181 81.17067719 248.8822784

endloop
endfacet
facet normal 0.7404215336 0.03957943991 -0.6709764004
outer loop
vertex -60.806633 81.07472992 248.783905
vertex -60.72260284 81.1707077 248.8822937
vertex -60.45420074 80.44860077 249.1358795

endloop
endfacet
facet normal 0.7995601892 0.08858719468 -0.5940166712
outer loop
vertex -60.45420074 80.44860077 249.1358795
vertex -60.72260284 81.1707077 248.8822937
vertex -60.382164 80.53960419 249.2464142

endloop
endfacet
facet normal 0.834916234 0.007531694602 -0.5503255725
outer loop
vertex -60.45420074 80.44860077 249.1358795
vertex -60.382164 80.53960419 249.2464142
vertex -60.1677475 79.77394867 249.5612335

endloop
endfacet
facet normal 0.9191657305 0.100854978 -0.3807394505
outer loop
vertex -60.1677475 79.77394867 249.5612335
vertex -60.382164 80.53960419 249.2464142
vertex -60.12346649 79.85500336 249.6896057

endloop
endfacet
facet normal 0.9508975148 -0.03191015497 -0.3078566492
outer loop
vertex -60.1677475 79.77394867 249.5612335
vertex -60.12346649 79.85500336 249.6896057
vertex -60.06056976 79.01073456 249.9713898

endloop
endfacet
facet normal 0.9745346308 -0.002236492001 -0.2242257744
outer loop
vertex -60.06056976 79.01073456 249.9713898
vertex -60.12346649 79.85500336 249.6896057
vertex -60.02689362 79.07668304 250.1170959

endloop
endfacet
facet normal 0.9706379771 -0.1998400986 -0.1338872164
outer loop
vertex -60.06056976 79.01073456 249.9713898
vertex -60.02689362 79.07668304 250.1170959
vertex -60.19184113 78.17125702 250.2727203

endloop
endfacet
facet normal 0.9364703298 -0.2178509831 -0.2748894393
outer loop
vertex -60.19184113 78.17125702 250.2727203
vertex -60.02689362 79.07668304 250.1170959
vertex -60.13358307 78.22002411 250.4325409

endloop
endfacet
facet normal 0.9068340063 -0.3589355648 -0.2209466845
outer loop
vertex -60.19182587 78.17125702 250.2727509
vertex -60.13356781 78.22005463 250.4325867
vertex -60.42797089 77.38680267 250.5779114

endloop
endfacet
facet normal 0.9319297075 -0.3474060595 -0.1040004939
outer loop
vertex -60.42797089 77.38680267 250.5779114
vertex -60.13356781 78.22005463 250.4325867
vertex -60.39340973 77.42751312 250.7516174

endloop
endfacet
facet normal 0.9108516574 -0.4035354555 -0.08665200323
outer loop
vertex -60.42797089 77.38680267 250.5779114
vertex -60.39340973 77.42751312 250.7516174
vertex -60.72556305 76.66347504 250.8182526

endloop
endfacet
facet normal 0.9174050093 -0.3938623369 0.05692593381
outer loop
vertex -60.72556305 76.66347504 250.8182526
vertex -60.39340973 77.42751312 250.7516174
vertex -60.71999359 76.70235443 250.9974976

endloop
endfacet
facet normal 0.9197938442 -0.3884324729 0.05567388237
outer loop
vertex -60.72556305 76.66347504 250.8182526
vertex -60.71999359 76.70235443 250.9974976
vertex -61.0238266 75.9797287 250.9754486

endloop
endfacet
facet normal 0.9189282656 -0.3884555697 0.06836023927
outer loop
vertex -61.0238266 75.9797287 250.9754486
vertex -60.71999359 76.70235443 250.9974976
vertex -61.02159882 76.01665497 251.1553345

endloop
endfacet
facet normal 0.9380608797 -0.341498673 0.05848417431
outer loop
vertex -61.0238266 75.9797287 250.9754486
vertex -61.02159882 76.01665497 251.1553345
vertex -61.27100372 75.32472992 251.1154175

endloop
endfacet
facet normal 0.9402571917 -0.3356119692 -0.0572793819
outer loop
vertex -61.27100372 75.32472992 251.1154175
vertex -61.02159882 76.01665497 251.1553345
vertex -61.24777985 75.3599472 251.2902985

endloop
endfacet
facet normal 0.9472980499 -0.3141921163 -0.06252789497
outer loop
vertex -61.27100372 75.32472992 251.1154175
vertex -61.24777985 75.3599472 251.2902985
vertex -61.45461273 74.73970795 251.2733765

endloop
endfacet
facet normal 0.9157164097 -0.2980126143 -0.2695401609
outer loop
vertex -61.45461273 74.73970795 251.2733765
vertex -61.24777985 75.3599472 251.2902985
vertex -61.39600372 74.77584076 251.4325409

endloop
endfacet
facet normal 0.8955798149 -0.3709785938 -0.2455843538
outer loop
vertex -61.45461273 74.73973846 251.2733917
vertex -61.39600372 74.77587128 251.4325409
vertex -61.63994598 74.12310028 251.5290222

endloop
endfacet
facet normal 0.8209757209 -0.3709534109 -0.4340420067
outer loop
vertex -61.63994598 74.12310028 251.5290222
vertex -61.39600372 74.77587128 251.4325409
vertex -61.54021454 74.16387177 251.6828156

endloop
endfacet
facet normal 0.5349438787 -0.8355304003 -0.1253949851
outer loop
vertex -61.63994598 74.12310028 251.5290222
vertex -61.54021454 74.16387177 251.6828156
vertex -62.04039764 73.78426361 252.0783997

endloop
endfacet
facet normal -0.6049649715 0.7962520719 0
outer loop
vertex -62.04039764 73.78426361 252.0783997
vertex -61.54021454 74.16387177 251.6828156
vertex -62.04039764 73.78426361 252.0783844

endloop
endfacet
facet normal -nan(ind) -nan(ind) -nan(ind)
outer loop
vertex -62.41919708 86.66374969 247.706665
vertex -62.41919708 86.66374969 247.706665
vertex -62.08379364 86.09172821 247.9870148

endloop
endfacet
facet normal 0.5341416597 0.6033938527 0.5921221375
outer loop
vertex -62.08379364 86.09172821 247.9870148
vertex -62.41919708 86.66374969 247.706665
vertex -62.22576141 86.10131073 248.1053162

endloop
endfacet
facet normal 0.640435636 0.007122257724 0.767978847
outer loop
vertex -62.08379364 86.09172821 247.9870148
vertex -62.22576141 86.10131073 248.1053162
vertex -62.06233978 85.40645599 247.9754791

endloop
endfacet
facet normal 0.7632366419 0.05928296596 0.6433935761
outer loop
vertex -62.06233978 85.40645599 247.9754791
vertex -62.22576141 86.10131073 248.1053162
vertex -62.17209625 85.41884613 248.104538

endloop
endfacet
facet normal 0.760941267 -0.0156219257 0.6486327052
outer loop
vertex -62.06233978 85.40645599 247.9754791
vertex -62.17209625 85.41884613 248.104538
vertex -62.02521515 84.82375336 247.9178925

endloop
endfacet
facet normal 0.9174854159 0.1062285826 0.3833223879
outer loop
vertex -62.02521515 84.82375336 247.9178925
vertex -62.17209625 85.41884613 248.104538
vertex -62.09241486 84.84429169 248.0730438

endloop
endfacet
facet normal 0.9187197685 0.07007995248 0.3886422217
outer loop
vertex -62.02521515 84.82375336 247.9178925
vertex -62.09241486 84.84429169 248.0730438
vertex -61.96981049 84.20192719 247.8990479

endloop
endfacet
facet normal 0.9833444953 0.1710161418 0.06153950095
outer loop
vertex -61.96981049 84.20192719 247.8990479
vertex -62.09241486 84.84429169 248.0730438
vertex -61.98621368 84.23564911 248.0674438

endloop
endfacet
facet normal 0.9835864305 0.1695002913 0.06186659634
outer loop
vertex -61.96981049 84.20192719 247.8990479
vertex -61.98621368 84.23564911 248.0674438
vertex -61.86522675 83.57073212 247.9656525

endloop
endfacet
facet normal 0.9650895 0.2012655586 -0.1676140279
outer loop
vertex -61.86522675 83.57073212 247.9656525
vertex -61.98621368 84.23564911 248.0674438
vertex -61.84694672 83.62136078 248.1316986

endloop
endfacet
facet normal 0.9522513151 0.2465955317 -0.1800221503
outer loop
vertex -61.86522675 83.57073212 247.9656525
vertex -61.84694672 83.62136078 248.1316986
vertex -61.6774826 82.95491791 248.1152039

endloop
endfacet
facet normal 0.9233227372 0.2421607524 -0.2980493903
outer loop
vertex -61.6774826 82.95491791 248.1152039
vertex -61.84694672 83.62136078 248.1316986
vertex -61.64403534 83.02242279 248.2736664

endloop
endfacet
facet normal 0.901237011 0.2961109281 -0.316370368
outer loop
vertex -61.6774826 82.95491791 248.1152039
vertex -61.64403534 83.02242279 248.2736664
vertex -61.40798187 82.35762787 248.3238831

endloop
endfacet
facet normal 0.8849013448 0.286465764 -0.3672696054
outer loop
vertex -61.40798187 82.35762787 248.3238831
vertex -61.64403534 83.02242279 248.2736664
vertex -61.37088776 82.4378891 248.4758606

endloop
endfacet
facet normal 0.8677369952 0.3196294904 -0.3806172907
outer loop
vertex -61.40799713 82.35765839 248.3238831
vertex -61.37088776 82.4378891 248.4758606
vertex -61.07913971 81.76882172 248.5791321

endloop
endfacet
facet normal 0.8658677936 0.3179461658 -0.3862423897
outer loop
vertex -61.07913971 81.76882172 248.5791321
vertex -61.37088776 82.4378891 248.4758606
vertex -61.04476166 81.85604095 248.7279968

endloop
endfacet
facet normal 0.8649955392 0.3194736242 -0.3869358599
outer loop
vertex -61.07913971 81.76882172 248.5791321
vertex -61.04476166 81.85604095 248.7279968
vertex -60.7226181 81.17067719 248.8822784

endloop
endfacet
facet normal 0.8760585785 0.3333411515 -0.3484322429
outer loop
vertex -60.7226181 81.17067719 248.8822784
vertex -61.04476166 81.85604095 248.7279968
vertex -60.69669342 81.25902557 249.0319824

endloop
endfacet
facet normal 0.8973296881 0.2942554355 -0.3289577961
outer loop
vertex -60.72260284 81.1707077 248.8822937
vertex -60.69669342 81.25905609 249.0319977
vertex -60.382164 80.53960419 249.2464142

endloop
endfacet
facet normal 0.9151164293 0.3318040669 -0.2290587127
outer loop
vertex -60.382164 80.53960419 249.2464142
vertex -60.69669342 81.25905609 249.0319977
vertex -60.37415314 80.62337494 249.399765

endloop
endfacet
facet normal 0.9529775381 0.2422242463 -0.1821019202
outer loop
vertex -60.382164 80.53960419 249.2464142
vertex -60.37415314 80.62337494 249.399765
vertex -60.12346649 79.85500336 249.6896057

endloop
endfacet
facet normal 0.948934257 0.3151324391 0.01467595063
outer loop
vertex -60.12346649 79.85500336 249.6896057
vertex -60.37415314 80.62337494 249.399765
vertex -60.15067291 79.92980194 249.8426208

endloop
endfacet
facet normal 0.9810122252 0.1714840382 0.09059933573
outer loop
vertex -60.12346649 79.85500336 249.6896057
vertex -60.15067291 79.92980194 249.8426208
vertex -60.02689362 79.07668304 250.1170959

endloop
endfacet
facet normal 0.9639865756 0.1972560585 0.1783815175
outer loop
vertex -60.02689362 79.07668304 250.1170959
vertex -60.15067291 79.92980194 249.8426208
vertex -60.06868744 79.1432724 250.2693176

endloop
endfacet
facet normal 0.9619308114 -0.01942063868 0.2726022601
outer loop
vertex -60.02689362 79.07668304 250.1170959
vertex -60.06868744 79.1432724 250.2693176
vertex -60.13358307 78.22002411 250.4325409

endloop
endfacet
facet normal 0.9921611547 -0.04945013672 0.114764154
outer loop
vertex -60.13358307 78.22002411 250.4325409
vertex -60.06868744 79.1432724 250.2693176
vertex -60.14879608 78.28411102 250.5916748

endloop
endfacet
facet normal 0.9532954693 -0.2373572439 0.1867866218
outer loop
vertex -60.13356781 78.22005463 250.4325867
vertex -60.14878082 78.28417206 250.5917053
vertex -60.39340973 77.42751312 250.7516174

endloop
endfacet
facet normal 0.9310361743 -0.2101806104 0.2983217537
outer loop
vertex -60.39340973 77.42751312 250.7516174
vertex -60.14878082 78.28417206 250.5917053
vertex -60.43003082 77.49202728 250.9113617

endloop
endfacet
facet normal 0.8986849189 -0.2945435643 0.324976027
outer loop
vertex -60.39340973 77.42751312 250.7516174
vertex -60.43003082 77.49202728 250.9113617
vertex -60.71999359 76.70235443 250.9974976

endloop
endfacet
facet normal 0.8500786424 -0.2623306513 0.4566714466
outer loop
vertex -60.71999359 76.70235443 250.9974976
vertex -60.43003082 77.49202728 250.9113617
vertex -60.78289032 76.76692963 251.1516724

endloop
endfacet
facet normal 0.8477991819 -0.2675019801 0.4579074383
outer loop
vertex -60.71999359 76.70235443 250.9974976
vertex -60.78289032 76.76692963 251.1516724
vertex -61.02159882 76.01665497 251.1553345

endloop
endfacet
facet normal 0.8439708948 -0.2662461996 0.4656458199
outer loop
vertex -61.02159882 76.01665497 251.1553345
vertex -60.78289032 76.76692963 251.1516724
vertex -61.08800507 76.07769012 251.3105927

endloop
endfacet
facet normal 0.8678315282 -0.2059703022 0.4521556795
outer loop
vertex -61.02159882 76.01665497 251.1553345
vertex -61.08800507 76.07769012 251.3105927
vertex -61.24777985 75.3599472 251.2902985

endloop
endfacet
facet normal 0.9152629972 -0.2134054452 0.3416895568
outer loop
vertex -61.24777985 75.3599472 251.2902985
vertex -61.08800507 76.07769012 251.3105927
vertex -61.29543304 75.41674042 251.4534149

endloop
endfacet
facet normal 0.9319499731 -0.1568892896 0.3268869817
outer loop
vertex -61.24777985 75.3599472 251.2902985
vertex -61.29543304 75.41674042 251.4534149
vertex -61.39600372 74.77584076 251.4325409

endloop
endfacet
facet normal 0.9786427021 -0.1578584462 0.1316782832
outer loop
vertex -61.39600372 74.77584076 251.4325409
vertex -61.29543304 75.41674042 251.4534149
vertex -61.40940094 74.83214569 251.5996094

endloop
endfacet
facet normal 0.975223124 -0.173858121 0.1367962807
outer loop
vertex -61.39600372 74.77587128 251.4325409
vertex -61.40940094 74.83217621 251.5996094
vertex -61.54021454 74.16387177 251.6828156

endloop
endfacet
facet normal 0.9808964729 -0.1939190775 -0.01541204285
outer loop
vertex -61.54021454 74.16387177 251.6828156
vertex -61.40940094 74.83217621 251.5996094
vertex -61.52462006 74.22856903 251.8612823

endloop
endfacet
facet normal 0.6858910918 -0.7012865543 0.194295004
outer loop
vertex -61.54021454 74.16387177 251.6828156
vertex -61.52462006 74.22856903 251.8612823
vertex -62.04039764 73.78426361 252.0783844

endloop
endfacet
facet normal 0.6524430513 -0.7578377128 0
outer loop
vertex -62.04039764 73.78426361 252.0783844
vertex -61.52462006 74.22856903 251.8612823
vertex -62.04039764 73.78426361 252.0783997

endloop
endfacet
facet normal 0.945636332 0.3252260387 0
outer loop
vertex -62.41919708 86.66374969 247.706665
vertex -62.41919708 86.66374969 247.7066803
vertex -62.22576141 86.10131073 248.1053162

endloop
endfacet
facet normal 0.1903109252 0.6104088426 0.7688841224
outer loop
vertex -62.22576141 86.10131073 248.1053162
vertex -62.41919708 86.66374969 247.7066803
vertex -62.42266083 86.10894012 248.147995

endloop
endfacet
facet normal 0.2123863995 0.01558674499 0.9770613909
outer loop
vertex -62.22576141 86.10131073 248.1053162
vertex -62.42266083 86.10894012 248.147995
vertex -62.17209625 85.41884613 248.104538

endloop
endfacet
facet normal 0.3977483511 0.08690018952 0.9133699536
outer loop
vertex -62.17209625 85.41884613 248.104538
vertex -62.42266083 86.10894012 248.147995
vertex -62.3493576 85.42797089 248.1808624

endloop
endfacet
facet normal 0.3956668377 0.004531524144 0.9183829427
outer loop
vertex -62.17209625 85.41884613 248.104538
vertex -62.3493576 85.42797089 248.1808624
vertex -62.09241486 84.84429169 248.0730438

endloop
endfacet
facet normal 0.6455001235 0.1456630975 0.7497411966
outer loop
vertex -62.09241486 84.84429169 248.0730438
vertex -62.3493576 85.42797089 248.1808624
vertex -62.24021149 84.85845184 248.1975403

endloop
endfacet
facet normal 0.6465383172 0.1058623865 0.7555006742
outer loop
vertex -62.09241486 84.84429169 248.0730438
vertex -62.24021149 84.85845184 248.1975403
vertex -61.98621368 84.23564911 248.0674438

endloop
endfacet
facet normal 0.8383100629 0.2395896614 0.4897275269
outer loop
vertex -61.98621368 84.23564911 248.0674438
vertex -62.24021149 84.85845184 248.1975403
vertex -62.08946991 84.25878143 248.2328796

endloop
endfacet
facet normal 0.8380697966 0.2411876917 0.489354223
outer loop
vertex -61.98621368 84.23564911 248.0674438
vertex -62.08946991 84.25878143 248.2328796
vertex -61.84694672 83.62136078 248.1316986

endloop
endfacet
facet normal 0.9122877717 0.3034432232 0.2750512362
outer loop
vertex -61.84694672 83.62136078 248.1316986
vertex -62.08946991 84.25878143 248.2328796
vertex -61.91396332 83.65615082 248.3155975

endloop
endfacet
facet normal 0.8950704336 0.3642201722 0.2572790682
outer loop
vertex -61.84694672 83.62136078 248.1316986
vertex -61.91396332 83.65615082 248.3155975
vertex -61.64403534 83.02242279 248.2736664

endloop
endfacet
facet normal 0.9144128561 0.3803106546 0.1386105418
outer loop
vertex -61.64403534 83.02242279 248.2736664
vertex -61.91396332 83.65615082 248.3155975
vertex -61.69185638 83.06874847 248.4620361

endloop
endfacet
facet normal 0.8845338821 0.4525152445 0.1132679507
outer loop
vertex -61.64403534 83.02242279 248.2736664
vertex -61.69185638 83.06874847 248.4620361
vertex -61.37088776 82.4378891 248.4758606

endloop
endfacet
facet normal 0.8891479373 0.4536917508 0.05982996896
outer loop
vertex -61.37088776 82.4378891 248.4758606
vertex -61.69185638 83.06874847 248.4620361
vertex -61.41162872 82.49294281 248.6638489

endloop
endfacet
facet normal 0.8640583754 0.5017747283 0.04031435773
outer loop
vertex -61.37088776 82.4378891 248.4758606
vertex -61.41162872 82.49294281 248.6638336
vertex -61.04476166 81.85604095 248.7279968

endloop
endfacet
facet normal 0.8645028472 0.5014435053 0.03448481485
outer loop
vertex -61.04476166 81.85604095 248.7279968
vertex -61.41162872 82.49294281 248.6638336
vertex -61.08693695 81.91594696 248.9141998

endloop
endfacet
facet normal 0.8571226597 0.5143137574 0.02867256291
outer loop
vertex -61.04476166 81.85604095 248.7279968
vertex -61.08693695 81.91594696 248.9141998
vertex -60.69669342 81.25902557 249.0319824

endloop
endfacet
facet normal 0.8519718647 0.5187909603 0.07070993632
outer loop
vertex -60.69669342 81.25902557 249.0319824
vertex -61.08693695 81.91594696 248.9141998
vertex -60.74881744 81.319664 249.2151184

endloop
endfacet
facet normal 0.8678834438 0.4894630909 0.08487718552
outer loop
vertex -60.69669342 81.25905609 249.0319977
vertex -60.74880219 81.31969452 249.2151337
vertex -60.37415314 80.62337494 249.399765

endloop
endfacet
facet normal 0.84293437 0.5036805272 0.1891230494
outer loop
vertex -60.37415314 80.62337494 249.399765
vertex -60.74880219 81.31969452 249.2151337
vertex -60.44786835 80.68087006 249.5751953

endloop
endfacet
facet normal 0.8749930859 0.4272830188 0.2276323438
outer loop
vertex -60.37415314 80.62337494 249.399765
vertex -60.44786835 80.68087006 249.5751953
vertex -60.15067291 79.92980194 249.8426208

endloop
endfacet
facet normal 0.7852515578 0.4587774277 0.4158163965
outer loop
vertex -60.15067291 79.92980194 249.8426208
vertex -60.44786835 80.68087006 249.5751953
vertex -60.26155853 79.98140717 249.9950867

endloop
endfacet
facet normal 0.8112675548 0.3418771029 0.4743047357
outer loop
vertex -60.15067291 79.92980194 249.8426208
vertex -60.26155853 79.98140717 249.9950867
vertex -60.06868744 79.1432724 250.2693176

endloop
endfacet
facet normal 0.7506396174 0.3550503552 0.5572068095
outer loop
vertex -60.06868744 79.1432724 250.2693176
vertex -60.26155853 79.98140717 249.9950867
vertex -60.18994904 79.19585419 250.3991699

endloop
endfacet
facet normal 0.7535130978 0.1682010442 0.6355519891
outer loop
vertex -60.06868744 79.1432724 250.2693176
vertex -60.18994904 79.19585419 250.3991699
vertex -60.14879608 78.28411102 250.5916748

endloop
endfacet
facet normal 0.8583977818 0.1427766532 0.4927149713
outer loop
vertex -60.14879608 78.28411102 250.5916748
vertex -60.18994904 79.19585419 250.3991699
vertex -60.23331451 78.3498764 250.7198639

endloop
endfacet
facet normal 0.8188127279 -0.06034971774 0.5708797574
outer loop
vertex -60.14878082 78.28417206 250.5917053
vertex -60.23329926 78.34990692 250.7198792
vertex -60.43003082 77.49202728 250.9113617

endloop
endfacet
facet normal 0.761425972 -0.03007560968 0.6475538611
outer loop
vertex -60.43003082 77.49202728 250.9113617
vertex -60.23329926 78.34990692 250.7198792
vertex -60.52469635 77.56529999 251.0260773

endloop
endfacet
facet normal 0.7235756516 -0.1272819936 0.6784080863
outer loop
vertex -60.43003082 77.49202728 250.9113617
vertex -60.52469635 77.56529999 251.0260773
vertex -60.78289032 76.76692963 251.1516724

endloop
endfacet
facet normal 0.6286509633 -0.08164113015 0.7733902931
outer loop
vertex -60.78289032 76.76692963 251.1516724
vertex -60.52469635 77.56529999 251.0260773
vertex -60.89543915 76.84157562 251.2510376

endloop
endfacet
facet normal 0.6221259832 -0.09625437856 0.7769775987
outer loop
vertex -60.78289032 76.76692963 251.1516724
vertex -60.89543915 76.84157562 251.2510376
vertex -61.08800507 76.07769012 251.3105927

endloop
endfacet
facet normal 0.6191914082 -0.09532318264 0.7794328332
outer loop
vertex -61.08800507 76.07769012 251.3105927
vertex -60.89543915 76.84157562 251.2510376
vertex -61.20360565 76.14812469 251.4110413

endloop
endfacet
facet normal 0.6427539587 -0.03636627272 0.7652090192
outer loop
vertex -61.08800507 76.07769012 251.3105927
vertex -61.20360565 76.14812469 251.4110413
vertex -61.29543304 75.41674042 251.4534149

endloop
endfacet
facet normal 0.7378506064 -0.05365814641 0.6728278399
outer loop
vertex -61.29543304 75.41674042 251.4534149
vertex -61.20360565 76.14812469 251.4110413
vertex -61.39844513 75.48171234 251.5715637

endloop
endfacet
facet normal 0.7578245997 0.01538095437 0.652277112
outer loop
vertex -61.29543304 75.41674042 251.4534149
vertex -61.39844513 75.48171234 251.5715637
vertex -61.40940094 74.83214569 251.5996094

endloop
endfacet
facet normal 0.8759649992 0.006051025819 0.4823367894
outer loop
vertex -61.40940094 74.83214569 251.5996094
vertex -61.39844513 75.48171234 251.5715637
vertex -61.48653412 74.89577484 251.7388916

endloop
endfacet
facet normal 0.881149888 0.03618338332 0.4714505076
outer loop
vertex -61.40940094 74.83217621 251.5996094
vertex -61.48653412 74.89577484 251.7388916
vertex -61.52462006 74.22856903 251.8612823

endloop
endfacet
facet normal 0.9247259498 0.01696725376 0.3802551329
outer loop
vertex -61.52462006 74.22856903 251.8612823
vertex -61.48653412 74.89577484 251.7388916
vertex -61.59114838 74.30034637 252.0198669

endloop
endfacet
facet normal 0.6724554896 -0.526356101 0.520339191
outer loop
vertex -61.52462006 74.22856903 251.8612823
vertex -61.59114838 74.30034637 252.0198669
vertex -62.04039764 73.78426361 252.0783997

endloop
endfacet
facet normal 0.1292067021 0 0.9916176796
outer loop
vertex -62.04039764 73.78426361 252.0783997
vertex -61.59114838 74.30034637 252.0198669
vertex -62.04039764 73.78429413 252.0783997

endloop
endfacet
facet normal -nan(ind) -nan(ind) -nan(ind)
outer loop
vertex -62.41919708 86.66374969 247.7066803
vertex -62.41919708 86.66374969 247.7066803
vertex -62.42266083 86.10894012 248.147995

endloop
endfacet
facet normal -0.1905872971 0.6118319035 0.7676836252
outer loop
vertex -62.42266083 86.10894012 248.147995
vertex -62.41919708 86.66374969 247.7066803
vertex -62.63286591 86.11232758 248.0931091

endloop
endfacet
facet normal -0.2522933781 0.01953656226 0.967453599
outer loop
vertex -62.42266083 86.10894012 248.147995
vertex -62.63286591 86.11232758 248.0931091
vertex -62.3493576 85.42797089 248.1808624

endloop
endfacet
facet normal -0.06854505837 0.09889956564 0.9927338362
outer loop
vertex -62.3493576 85.42797089 248.1808624
vertex -62.63286591 86.11232758 248.0931091
vertex -62.5672226 85.42998505 248.1656189

endloop
endfacet
facet normal -0.06964243203 0.01586261205 0.9974458814
outer loop
vertex -62.3493576 85.42797089 248.1808624
vertex -62.5672226 85.42998505 248.1656189
vertex -62.24021149 84.85845184 248.1975403

endloop
endfacet
facet normal 0.2007019073 0.1687325686 0.9650119543
outer loop
vertex -62.24021149 84.85845184 248.1975403
vertex -62.5672226 85.42998505 248.1656189
vertex -62.45142365 84.85939789 248.2413025

endloop
endfacet
facet normal 0.2021602243 0.1081791595 0.973359406
outer loop
vertex -62.24021149 84.85845184 248.1975403
vertex -62.45142365 84.85939789 248.2413025
vertex -62.08946991 84.25878143 248.2328796

endloop
endfacet
facet normal 0.4824598134 0.2791048586 0.8302607536
outer loop
vertex -62.08946991 84.25878143 248.2328796
vertex -62.45142365 84.85939789 248.2413025
vertex -62.27843475 84.26024628 248.3421936

endloop
endfacet
facet normal 0.485521853 0.2561320364 0.8358618021
outer loop
vertex -62.08946991 84.25878143 248.2328796
vertex -62.27843475 84.26024628 248.3421936
vertex -61.91396332 83.65615082 248.3155975

endloop
endfacet
facet normal 0.6383129954 0.3550457656 0.6830074191
outer loop
vertex -61.91396332 83.65615082 248.3155975
vertex -62.27843475 84.26024628 248.3421936
vertex -62.07605743 83.65834808 248.4659424

endloop
endfacet
facet normal 0.6252900362 0.4030305743 0.6682654023
outer loop
vertex -61.91396332 83.65615082 248.3155975
vertex -62.07605743 83.65834808 248.4659424
vertex -61.69185638 83.06874847 248.4620361

endloop
endfacet
facet normal 0.6879749298 0.4445046484 0.5736775994
outer loop
vertex -61.69185638 83.06874847 248.4620361
vertex -62.07605743 83.65834808 248.4659424
vertex -61.83531952 83.07164764 248.6318359

endloop
endfacet
facet normal 0.659799993 0.5134164691 0.5486961007
outer loop
vertex -61.69185638 83.06874847 248.4620361
vertex -61.83531952 83.07164764 248.6318359
vertex -61.41162872 82.49294281 248.6638489

endloop
endfacet
facet normal 0.6832680702 0.5281367302 0.5041986108
outer loop
vertex -61.41162872 82.49294281 248.6638489
vertex -61.83531952 83.07164764 248.6318359
vertex -61.54558563 82.49645233 248.8417053

endloop
endfacet
facet normal 0.6566364765 0.5791460276 0.4831338525
outer loop
vertex -61.41162872 82.49294281 248.6638336
vertex -61.54558563 82.49645233 248.8416901
vertex -61.08693695 81.91594696 248.9141998

endloop
endfacet
facet normal 0.6586073637 0.5802070498 0.4791617393
outer loop
vertex -61.08693695 81.91594696 248.9141998
vertex -61.54558563 82.49645233 248.8416901
vertex -61.22008514 81.91970062 249.0926666

endloop
endfacet
facet normal 0.6455791593 0.6027408242 0.468968004
outer loop
vertex -61.08693695 81.91594696 248.9141998
vertex -61.22008514 81.91970062 249.0926666
vertex -60.74881744 81.319664 249.2151184

endloop
endfacet
facet normal 0.625212431 0.5942823291 0.5059031844
outer loop
vertex -60.74881744 81.319664 249.2151184
vertex -61.22008514 81.91970062 249.0926666
vertex -60.89081573 81.3234787 249.3861237

endloop
endfacet
facet normal 0.63044554 0.5847307444 0.5105178356
outer loop
vertex -60.74880219 81.31969452 249.2151337
vertex -60.89081573 81.32350922 249.3861389
vertex -60.44786835 80.68087006 249.5751953

endloop
endfacet
facet normal 0.5673725009 0.56680125 0.5973479748
outer loop
vertex -60.44786835 80.68087006 249.5751953
vertex -60.89081573 81.32350922 249.3861389
vertex -60.60968781 80.68450165 249.7254486

endloop
endfacet
facet normal 0.5848866701 0.5262933969 0.6171895266
outer loop
vertex -60.44786835 80.68087006 249.5751953
vertex -60.60968781 80.68450165 249.7254486
vertex -60.26155853 79.98140717 249.9950867

endloop
endfacet
facet normal 0.4239806533 0.4996234477 0.7553918362
outer loop
vertex -60.26155853 79.98140717 249.9950867
vertex -60.60968781 80.68450165 249.7254486
vertex -60.45140839 79.98522186 250.0991211

endloop
endfacet
facet normal 0.4377728105 0.44249928 0.7826553583
outer loop
vertex -60.26155853 79.98140717 249.9950867
vertex -60.45140839 79.98522186 250.0991211
vertex -60.18994904 79.19585419 250.3991699

endloop
endfacet
facet normal 0.3501675725 0.4319196343 0.8311607242
outer loop
vertex -60.18994904 79.19585419 250.3991699
vertex -60.45140839 79.98522186 250.0991211
vertex -60.37789154 79.21614838 250.467804

endloop
endfacet
facet normal 0.3553858101 0.3153434694 0.879920125
outer loop
vertex -60.18994904 79.19585419 250.3991699
vertex -60.37789154 79.21614838 250.467804
vertex -60.23331451 78.3498764 250.7198639

endloop
endfacet
facet normal 0.5386580825 0.3170319498 0.7806012034
outer loop
vertex -60.23331451 78.3498764 250.7198639
vertex -60.37789154 79.21614838 250.467804
vertex -60.37639618 78.40618134 250.7957306

endloop
endfacet
facet normal 0.5071230531 0.1433268338 0.8498726487
outer loop
vertex -60.23329926 78.34990692 250.7198792
vertex -60.37638092 78.40621185 250.7957611
vertex -60.52469635 77.56529999 251.0260773

endloop
endfacet
facet normal 0.4279728234 0.1677533388 0.8880866766
outer loop
vertex -60.52469635 77.56529999 251.0260773
vertex -60.37638092 78.40621185 250.7957611
vertex -60.66117096 77.63542938 251.078598

endloop
endfacet
facet normal 0.394525826 0.08236952871 0.9151855707
outer loop
vertex -60.52469635 77.56529999 251.0260773
vertex -60.66117096 77.63542938 251.078598
vertex -60.89543915 76.84157562 251.2510376

endloop
endfacet
facet normal 0.2616183162 0.130522728 0.9563051462
outer loop
vertex -60.89543915 76.84157562 251.2510376
vertex -60.66117096 77.63542938 251.078598
vertex -61.03723907 76.91338348 251.2800293

endloop
endfacet
facet normal 0.2521625459 0.1097778305 0.961437881
outer loop
vertex -60.89543915 76.84157562 251.2510376
vertex -61.03723907 76.91338348 251.2800293
vertex -61.20360565 76.14812469 251.4110413

endloop
endfacet
facet normal 0.25011608 0.110303916 0.9619121552
outer loop
vertex -61.20360565 76.14812469 251.4110413
vertex -61.03723907 76.91338348 251.2800293
vertex -61.34754181 76.21569061 251.4407196

endloop
endfacet
facet normal 0.267179817 0.1511309892 0.9517218471
outer loop
vertex -61.20360565 76.14812469 251.4110413
vertex -61.34754181 76.21569061 251.4407196
vertex -61.39844513 75.48171234 251.5715637

endloop
endfacet
facet normal 0.4023635983 0.1335490793 0.9056865573
outer loop
vertex -61.39844513 75.48171234 251.5715637
vertex -61.34754181 76.21569061 251.4407196
vertex -61.53826141 75.54357147 251.6245575

endloop
endfacet
facet normal 0.4203975499 0.1901555806 0.8871903419
outer loop
vertex -61.39844513 75.48171234 251.5715637
vertex -61.53826141 75.54357147 251.6245575
vertex -61.48653412 74.89577484 251.7388916

endloop
endfacet
facet normal 0.6113165617 0.1846368611 0.7695462108
outer loop
vertex -61.48653412 74.89577484 251.7388916
vertex -61.53826141 75.54357147 251.6245575
vertex -61.61328888 74.95568085 251.8252106

endloop
endfacet
facet normal 0.6217079163 0.2422515005 0.7448446155
outer loop
vertex -61.48653412 74.89577484 251.7388916
vertex -61.61330414 74.95571136 251.8252106
vertex -61.59114838 74.30034637 252.0198669

endloop
endfacet
facet normal 0.6839331985 0.22887142 0.6927143931
outer loop
vertex -61.59114838 74.30034637 252.0198669
vertex -61.61330414 74.95571136 251.8252106
vertex -61.72029877 74.36425018 252.1262665

endloop
endfacet
facet normal 0.4930007756 -0.3382635713 0.8015784025
outer loop
vertex -61.59114838 74.30034637 252.0198669
vertex -61.72029877 74.36425018 252.1262665
vertex -62.04039764 73.78429413 252.0783997

endloop
endfacet
facet normal -0.5606139302 0.3706100285 -0.7405135036
outer loop
vertex -62.04039764 73.78429413 252.0783997
vertex -61.72029877 74.36425018 252.1262665
vertex -62.04039764 73.78426361 252.0783844

endloop
endfacet
facet normal -0.9324455857 0.3613104224 0
outer loop
vertex -62.41919708 86.66374969 247.7066803
vertex -62.41919708 86.66374969 247.706665
vertex -62.63286591 86.11232758 248.0931091

endloop
endfacet
facet normal -0.5826916099 0.6055985093 0.5419604182
outer loop
vertex -62.63286591 86.11232758 248.0931091
vertex -62.41919708 86.66374969 247.706665
vertex -62.77819061 86.10936737 247.9401703

endloop
endfacet
facet normal -0.72495085 0.00345277274 0.6887919903
outer loop
vertex -62.63286591 86.11232758 248.0931091
vertex -62.77819061 86.10936737 247.9401703
vertex -62.5672226 85.42998505 248.1656189

endloop
endfacet
facet normal -0.5739562511 0.09179897606 0.8137242794
outer loop
vertex -62.5672226 85.42998505 248.1656189
vertex -62.77819061 86.10936737 247.9401703
vertex -62.73641205 85.42324066 248.0470428

endloop
endfacet
facet normal -0.573702395 -0.007794140372 0.8190267682
outer loop
vertex -62.5672226 85.42998505 248.1656189
vertex -62.73641205 85.42324066 248.0470428
vertex -62.45142365 84.85939789 248.2413025

endloop
endfacet
facet normal -0.2992160022 0.1721156538 0.9385339618
outer loop
vertex -62.45142365 84.85939789 248.2413025
vertex -62.73641205 85.42324066 248.0470428
vertex -62.64128876 84.84633636 248.1831665

endloop
endfacet
facet normal -0.2966542542 0.074666664 0.9520615339
outer loop
vertex -62.45142365 84.85939789 248.2413025
vertex -62.64128876 84.84633636 248.1831665
vertex -62.27843475 84.26024628 248.3421936

endloop
endfacet
facet normal 0.003135784995 0.2636735141 0.9646068811
outer loop
vertex -62.27843475 84.26024628 248.3421936
vertex -62.64128876 84.84633636 248.1831665
vertex -62.47829437 84.23873138 248.3487244

endloop
endfacet
facet normal 0.009960095398 0.2045872808 0.9787976742
outer loop
vertex -62.27843475 84.26024628 248.3421936
vertex -62.47829437 84.23873138 248.3487244
vertex -62.07605743 83.65834808 248.4659424

endloop
endfacet
facet normal 0.2025393695 0.3268123567 0.9231313467
outer loop
vertex -62.07605743 83.65834808 248.4659424
vertex -62.47829437 84.23873138 248.3487244
vertex -62.26970673 83.62599945 248.5198822

endloop
endfacet
facet normal 0.1988636106 0.3413551748 0.9186565876
outer loop
vertex -62.07605743 83.65834808 248.4659424
vertex -62.26970673 83.62599945 248.5198822
vertex -61.83531952 83.07164764 248.6318359

endloop
endfacet
facet normal 0.2892774642 0.4021123052 0.8686911464
outer loop
vertex -61.83531952 83.07164764 248.6318359
vertex -62.26970673 83.62599945 248.5198822
vertex -62.01850128 83.02858734 248.7127686

endloop
endfacet
facet normal 0.2712737024 0.4475537241 0.8521186709
outer loop
vertex -61.83531952 83.07164764 248.6318359
vertex -62.01850128 83.02858734 248.7127686
vertex -61.54558563 82.49645233 248.8417053

endloop
endfacet
facet normal 0.3070762157 0.4729993045 0.8258182406
outer loop
vertex -61.54558563 82.49645233 248.8417053
vertex -62.01850128 83.02858734 248.7127686
vertex -61.72063446 82.44524384 248.9361267

endloop
endfacet
facet normal 0.2861863077 0.5135293603 0.808940649
outer loop
vertex -61.54558563 82.49645233 248.8416901
vertex -61.72063446 82.44524384 248.9361267
vertex -61.22008514 81.91970062 249.0926666

endloop
endfacet
facet normal 0.2889449298 0.5154919028 0.8067086339
outer loop
vertex -61.22008514 81.91970062 249.0926666
vertex -61.72063446 82.44524384 248.9361267
vertex -61.39237213 81.86406708 249.1899261

endloop
endfacet
facet normal 0.2734882534 0.5421122909 0.7945556045
outer loop
vertex -61.22008514 81.91970062 249.0926666
vertex -61.39237213 81.86406708 249.1899261
vertex -60.89081573 81.3234787 249.3861237

endloop
endfacet
facet normal 0.2426257282 0.5219038129 0.8177709579
outer loop
vertex -60.89081573 81.3234787 249.3861237
vertex -61.39237213 81.86406708 249.1899261
vertex -61.06720734 81.26714325 249.474411

endloop
endfacet
facet normal 0.2354670763 0.5345767736 0.8116545081
outer loop
vertex -60.89081573 81.32350922 249.3861389
vertex -61.06719208 81.26717377 249.474411
vertex -60.60968781 80.68450165 249.7254486

endloop
endfacet
facet normal 0.1489631385 0.4875990152 0.8602657914
outer loop
vertex -60.60968781 80.68450165 249.7254486
vertex -61.06719208 81.26717377 249.474411
vertex -60.7959671 80.63103485 249.7880096

endloop
endfacet
facet normal 0.1470364034 0.491859138 0.8581694961
outer loop
vertex -60.60968781 80.68450165 249.7254486
vertex -60.7959671 80.63103485 249.7880096
vertex -60.45140839 79.98522186 250.0991211

endloop
endfacet
facet normal -0.04690438136 0.413102597 0.9094758034
outer loop
vertex -60.45140839 79.98522186 250.0991211
vertex -60.7959671 80.63103485 249.7880096
vertex -60.64525604 79.93828583 250.1104431

endloop
endfacet
facet normal -0.0508640185 0.4277635217 0.9024584293
outer loop
vertex -60.45140839 79.98522186 250.0991211
vertex -60.64525604 79.93828583 250.1104431
vertex -60.37789154 79.21614838 250.467804

endloop
endfacet
facet normal -0.1151572168 0.4060028195 0.9065873027
outer loop
vertex -60.37789154 79.21614838 250.467804
vertex -60.64525604 79.93828583 250.1104431
vertex -60.57196808 79.19994354 250.4504089

endloop
endfacet
facet normal -0.1136633307 0.3726618588 0.9209797978
outer loop
vertex -60.37789154 79.21614838 250.467804
vertex -60.57196808 79.19994354 250.4504089
vertex -60.37639618 78.40618134 250.7957306

endloop
endfacet
facet normal 0.1192606241 0.420642674 0.899353385
outer loop
vertex -60.37639618 78.40618134 250.7957306
vertex -60.57196808 79.19994354 250.4504089
vertex -60.56447601 78.44658661 250.8017731

endloop
endfacet
facet normal 0.09711743146 0.3110376 0.9454225898
outer loop
vertex -60.37638092 78.40621185 250.7957611
vertex -60.56446075 78.44661713 250.8017883
vertex -60.66117096 77.63542938 251.078598

endloop
endfacet
facet normal -0.0004031414865 0.3229974806 0.9463998079
outer loop
vertex -60.66117096 77.63542938 251.078598
vertex -60.56446075 78.44661713 250.8017883
vertex -60.8355484 77.69704437 251.0574951

endloop
endfacet
facet normal -0.01820925996 0.2774559557 0.9605658054
outer loop
vertex -60.66117096 77.63542938 251.078598
vertex -60.8355484 77.69704437 251.0574951
vertex -61.03723907 76.91338348 251.2800293

endloop
endfacet
facet normal -0.1646520644 0.3084230125 0.9368910789
outer loop
vertex -61.03723907 76.91338348 251.2800293
vertex -60.8355484 77.69704437 251.0574951
vertex -61.20270538 76.97768402 251.2297821

endloop
endfacet
facet normal -0.1717529297 0.2930135727 0.9405551553
outer loop
vertex -61.03723907 76.91338348 251.2800293
vertex -61.20270538 76.97768402 251.2297821
vertex -61.34754181 76.21569061 251.4407196

endloop
endfacet
facet normal -0.1773818284 0.2937320471 0.9392853975
outer loop
vertex -61.34754181 76.21569061 251.4407196
vertex -61.20270538 76.97768402 251.2297821
vertex -61.51396942 76.27596283 251.3904419

endloop
endfacet
facet normal -0.1724446416 0.3051046729 0.9365757108
outer loop
vertex -61.34754181 76.21569061 251.4407196
vertex -61.51396942 76.27596283 251.3904419
vertex -61.53826141 75.54357147 251.6245575

endloop
endfacet
facet normal -0.03120353259 0.3052718043 0.9517539144
outer loop
vertex -61.53826141 75.54357147 251.6245575
vertex -61.51396942 76.27596283 251.3904419
vertex -61.71019745 75.59783173 251.6015167

endloop
endfacet
facet normal -0.02389219217 0.3256514668 0.9451879263
outer loop
vertex -61.53826141 75.54357147 251.6245575
vertex -61.71019745 75.59783173 251.6015167
vertex -61.61328888 74.95568085 251.8252106

endloop
endfacet
facet normal 0.2095024437 0.3497075438 0.9131338
outer loop
vertex -61.61328888 74.95568085 251.8252106
vertex -61.71019745 75.59783173 251.6015167
vertex -61.78726959 75.00731659 251.8453522

endloop
endfacet
facet normal 0.2237835079 0.4096618593 0.8843630552
outer loop
vertex -61.61330414 74.95571136 251.8252106
vertex -61.78725433 75.00728607 251.8453369
vertex -61.72029877 74.36425018 252.1262665

endloop
endfacet
facet normal 0.2942538559 0.4081808925 0.8641776443
outer loop
vertex -61.72029877 74.36425018 252.1262665
vertex -61.78725433 75.00728607 251.8453369
vertex -61.89939117 74.41252899 252.164444

endloop
endfacet
facet normal 0.1615717858 -0.169435367 0.9722068906
outer loop
vertex -61.72029877 74.36425018 252.1262665
vertex -61.89939117 74.41252899 252.164444
vertex -62.04039764 73.78426361 252.0783844

endloop
endfacet
facet normal -nan(ind) -nan(ind) -nan(ind)
outer loop
vertex -62.04039764 73.78426361 252.0783844
vertex -61.89939117 74.41252899 252.164444
vertex -62.04039764 73.78426361 252.0783844

endloop
endfacet
facet normal 0.8139790893 -0.3240261674 0.4821255803
outer loop
vertex -62.41921234 86.66371918 247.7066498
vertex -62.41919708 86.66378021 247.706665
vertex -62.77820587 86.10933685 247.940155

endloop
endfacet
facet normal -0.7979783416 0.5822435021 0.1556376368
outer loop
vertex -62.77820587 86.10933685 247.940155
vertex -62.41919708 86.66378021 247.706665
vertex -62.82845306 86.10036469 247.716095

endloop
endfacet
facet normal -0.9752402902 -0.02515615895 0.2197124809
outer loop
vertex -62.77820587 86.10933685 247.940155
vertex -62.82845306 86.10036469 247.716095
vertex -62.73642731 85.42324066 248.0470428

endloop
endfacet
facet normal -0.9149913788 0.06986697018 0.3973779678
outer loop
vertex -62.73642731 85.42324066 248.0470428
vertex -62.82845306 86.10036469 247.716095
vertex -62.8246994 85.40871429 247.846344

endloop
endfacet
facet normal -0.9125294685 -0.05482276157 0.4053200185
outer loop
vertex -62.73642731 85.42324066 248.0470428
vertex -62.8246994 85.40871429 247.846344
vertex -62.64130402 84.84630585 248.1831665

endloop
endfacet
facet normal -0.7451280355 0.1466591358 0.6505960226
outer loop
vertex -62.64130402 84.84630585 248.1831665
vertex -62.8246994 85.40871429 247.846344
vertex -62.77883148 84.8212204 248.031311

endloop
endfacet
facet normal -0.7398684621 -0.01524883229 0.672578752
outer loop
vertex -62.64130402 84.84630585 248.1831665
vertex -62.77883148 84.8212204 248.031311
vertex -62.47829437 84.23870087 248.3487091

endloop
endfacet
facet normal -0.5078913569 0.1951286793 0.8390299678
outer loop
vertex -62.47829437 84.23870087 248.3487091
vertex -62.77883148 84.8212204 248.031311
vertex -62.65703583 84.1974411 248.2501068

endloop
endfacet
facet normal -0.4946778417 0.07352806628 0.8659604192
outer loop
vertex -62.47829437 84.23870087 248.3487091
vertex -62.65703583 84.1974411 248.2501068
vertex -62.26972198 83.62596893 248.5198822

endloop
endfacet
facet normal -0.317992419 0.2198493183 0.9222511053
outer loop
vertex -62.26972198 83.62596893 248.5198822
vertex -62.65703583 84.1974411 248.2501068
vertex -62.46416473 83.56395721 248.4676208

endloop
endfacet
facet normal -0.3067749143 0.1731775701 0.9358946085
outer loop
vertex -62.26972198 83.62596893 248.5198822
vertex -62.46416473 83.56395721 248.4676208
vertex -62.01850128 83.02858734 248.7127686

endloop
endfacet
facet normal -0.2149238884 0.2530223429 0.9432854056
outer loop
vertex -62.01850128 83.02858734 248.7127686
vertex -62.46416473 83.56395721 248.4676208
vertex -62.21250153 82.9458847 248.6907501

endloop
endfacet
facet normal -0.2144494355 0.2517931461 0.9437223077
outer loop
vertex -62.01850128 83.02858734 248.7127686
vertex -62.21250153 82.9458847 248.6907501
vertex -61.72063446 82.44524384 248.9360962

endloop
endfacet
facet normal -0.1762800515 0.2880780995 0.94124192
outer loop
vertex -61.72063446 82.44524384 248.9360962
vertex -62.21250153 82.9458847 248.6907501
vertex -61.90921783 82.34694672 248.9308624

endloop
endfacet
facet normal -0.184503153 0.3039142787 0.9346628189
outer loop
vertex -61.72063446 82.44524384 248.9361115
vertex -61.90921783 82.34694672 248.9308472
vertex -61.39237213 81.86403656 249.1898956

endloop
endfacet
facet normal -0.1813476235 0.3070695996 0.9342490435
outer loop
vertex -61.39237213 81.86403656 249.1898956
vertex -61.90921783 82.34694672 248.9308472
vertex -61.57663727 81.757164 249.1892548

endloop
endfacet
facet normal -0.1962026954 0.3327533007 0.9223772287
outer loop
vertex -61.39237213 81.86403656 249.1898956
vertex -61.57663727 81.757164 249.1892548
vertex -61.06720734 81.26714325 249.4743958

endloop
endfacet
facet normal -0.2277936935 0.3018655479 0.9257361293
outer loop
vertex -61.06720734 81.26714325 249.4743958
vertex -61.57663727 81.757164 249.1892548
vertex -61.25006866 81.15886688 249.4647064

endloop
endfacet
facet normal -0.2495213449 0.3405023813 0.9065303206
outer loop
vertex -61.06719208 81.26714325 249.474411
vertex -61.25005341 81.1588974 249.4647369
vertex -60.7959671 80.63103485 249.7879944

endloop
endfacet
facet normal -0.332673341 0.2675939202 0.9042798281
outer loop
vertex -60.7959671 80.63103485 249.7879944
vertex -61.25005341 81.1588974 249.4647369
vertex -60.97702789 80.52840424 249.7517548

endloop
endfacet
facet normal -0.360650152 0.3279442489 0.8731460571
outer loop
vertex -60.7959671 80.63103485 249.7879944
vertex -60.97702789 80.52840424 249.7517548
vertex -60.6452713 79.93828583 250.1104279

endloop
endfacet
facet normal -0.5295011401 0.2029498816 0.8236746788
outer loop
vertex -60.6452713 79.93828583 250.1104279
vertex -60.97702789 80.52840424 249.7517548
vertex -60.81195831 79.84734344 250.0256805

endloop
endfacet
facet normal -0.5575300455 0.300883323 0.7737114429
outer loop
vertex -60.6452713 79.93828583 250.1104279
vertex -60.81195831 79.84734344 250.0256805
vertex -60.57196808 79.19994354 250.4503784

endloop
endfacet
facet normal -0.6055378914 0.2672663033 0.7495949268
outer loop
vertex -60.57196808 79.19994354 250.4503784
vertex -60.81195831 79.84734344 250.0256805
vertex -60.74443817 79.14333344 250.3312378

endloop
endfacet
facet normal -0.6074617505 0.3307668865 0.7222073674
outer loop
vertex -60.57196808 79.19994354 250.4503784
vertex -60.74443817 79.14333344 250.3312378
vertex -60.56447601 78.44655609 250.8017273

endloop
endfacet
facet normal -0.4365206361 0.4233163297 0.7938847542
outer loop
vertex -60.56447601 78.44655609 250.8017273
vertex -60.74443817 79.14333344 250.3312378
vertex -60.77919769 78.44814301 250.6828156

endloop
endfacet
facet normal -0.4356265068 0.4277300239 0.7920079231
outer loop
vertex -60.56446075 78.44661713 250.8017578
vertex -60.77918243 78.44814301 250.6828308
vertex -60.8355484 77.69704437 251.0574646

endloop
endfacet
facet normal -0.5243244767 0.4112512767 0.7456247807
outer loop
vertex -60.8355484 77.69704437 251.0574646
vertex -60.77918243 78.44814301 250.6828308
vertex -61.03424835 77.72661591 250.9014282

endloop
endfacet
facet normal -0.5136848092 0.4387789667 0.7372928858
outer loop
vertex -60.8355484 77.69704437 251.0574646
vertex -61.03424835 77.72661591 250.9014282
vertex -61.20270538 76.97768402 251.2297668

endloop
endfacet
facet normal -0.6279524565 0.4266089797 0.6509073973
outer loop
vertex -61.20270538 76.97768402 251.2297668
vertex -61.03424835 77.72661591 250.9014282
vertex -61.37369537 77.01265717 251.0418854

endloop
endfacet
facet normal -0.6276161075 0.4273577929 0.6507406831
outer loop
vertex -61.20270538 76.97768402 251.2297668
vertex -61.37369537 77.01265717 251.0418854
vertex -61.51396942 76.27590179 251.3904419

endloop
endfacet
facet normal -0.6360917091 0.4256035984 0.6436217427
outer loop
vertex -61.51396942 76.27590179 251.3904419
vertex -61.37369537 77.01265717 251.0418854
vertex -61.68340302 76.30815887 251.2016602

endloop
endfacet
facet normal -0.6507817507 0.3909399509 0.6508832574
outer loop
vertex -61.51396942 76.27590179 251.3904419
vertex -61.68340302 76.30815887 251.2016602
vertex -61.71021271 75.59780121 251.6015167

endloop
endfacet
facet normal -0.5428601503 0.4274174869 0.7229226828
outer loop
vertex -61.71021271 75.59780121 251.6015167
vertex -61.68340302 76.30815887 251.2016602
vertex -61.90174103 75.62496185 251.4416351

endloop
endfacet
facet normal -0.5613216162 0.3773940504 0.7365404367
outer loop
vertex -61.71021271 75.59780121 251.6015167
vertex -61.90174103 75.62496185 251.4416351
vertex -61.78728485 75.00728607 251.8453522

endloop
endfacet
facet normal -0.3509664536 0.4658719301 0.8122721314
outer loop
vertex -61.78728485 75.00728607 251.8453522
vertex -61.90174103 75.62496185 251.4416351
vertex -62.00873566 75.03057098 251.7363129

endloop
endfacet
facet normal -0.3418326378 0.493499577 0.7997553349
outer loop
vertex -61.78726959 75.00728607 251.8453369
vertex -62.00873566 75.03054047 251.7363281
vertex -61.89940643 74.41249847 252.1644287

endloop
endfacet
facet normal -0.2450617552 0.5223817825 0.8167386651
outer loop
vertex -61.89940643 74.41249847 252.1644287
vertex -62.00873566 75.03054047 251.7363281
vertex -62.12863922 74.42751312 252.0860443

endloop
endfacet
facet normal -0.3263255954 -0.0560391508 0.9435948133
outer loop
vertex -61.89940643 74.41249847 252.1644287
vertex -62.12863922 74.42751312 252.0860443
vertex -62.0404129 73.78426361 252.0783539

endloop
endfacet
facet normal 0.9402826428 0.1327137649 -0.3134572804
outer loop
vertex -62.0404129 73.78426361 252.0783539
vertex -62.12863922 74.42751312 252.0860443
vertex -62.04039764 73.78426361 252.0783997

endloop
endfacet
facet normal -0.6259385347 0.4651902318 0.6259385347
outer loop
vertex -62.41918182 86.66374969 247.7066803
vertex -62.41919708 86.66374969 247.706665
vertex -62.82846832 86.10036469 247.716095

endloop
endfacet
facet normal -0.7594692707 0.5457913876 -0.3540031314
outer loop
vertex -62.82846832 86.10036469 247.716095
vertex -62.41919708 86.66374969 247.706665
vertex -62.69538116 86.08171844 247.401825

endloop
endfacet
facet normal -0.9197086692 -0.07747091353 -0.3848820031
outer loop
vertex -62.82846832 86.10036469 247.716095
vertex -62.69538116 86.08171844 247.401825
vertex -62.82471466 85.40871429 247.846344

endloop
endfacet
facet normal -0.970969677 0.02983494848 -0.2373348475
outer loop
vertex -62.82471466 85.40871429 247.846344
vertex -62.69538116 86.08171844 247.401825
vertex -62.7432785 85.37975311 247.5095367

endloop
endfacet
facet normal -0.9645159841 -0.1448313296 -0.2207553089
outer loop
vertex -62.82471466 85.40871429 247.846344
vertex -62.7432785 85.37975311 247.5095367
vertex -62.77883148 84.8212204 248.031311

endloop
endfacet
facet normal -0.9936848879 0.1035731584 0.04316145182
outer loop
vertex -62.77883148 84.8212204 248.031311
vertex -62.7432785 85.37975311 247.5095367
vertex -62.79871368 84.77199554 247.6916962

endloop
endfacet
facet normal -0.9831960201 -0.1634728611 0.08125388622
outer loop
vertex -62.77883148 84.8212204 248.031311
vertex -62.79871368 84.77199554 247.6916962
vertex -62.65703583 84.1974411 248.2501068

endloop
endfacet
facet normal -0.9338604212 0.10267739 0.3425813913
outer loop
vertex -62.65703583 84.1974411 248.2501068
vertex -62.79871368 84.77199554 247.6916962
vertex -62.78127289 84.11666107 247.9356537

endloop
endfacet
facet normal -0.9078787565 -0.1408300251 0.3948710561
outer loop
vertex -62.65703583 84.1974411 248.2501068
vertex -62.78127289 84.11666107 247.9356537
vertex -62.46416473 83.56395721 248.4676208

endloop
endfacet
facet normal -0.8360617161 0.04647180438 0.5466637015
outer loop
vertex -62.46416473 83.56395721 248.4676208
vertex -62.78127289 84.11666107 247.9356537
vertex -62.64942169 83.44274139 248.1945953

endloop
endfacet
facet normal -0.798576057 -0.1116782278 0.591442585
outer loop
vertex -62.46416473 83.56395721 248.4676208
vertex -62.64942169 83.44274139 248.1945953
vertex -62.21248627 82.9458847 248.6907349

endloop
endfacet
facet normal -0.7536448836 -0.006453296635 0.6572501659
outer loop
vertex -62.21248627 82.9458847 248.6907349
vertex -62.64942169 83.44274139 248.1945953
vertex -62.41838837 82.78438568 248.4530487

endloop
endfacet
facet normal -0.7216061354 -0.09020519257 0.6864020228
outer loop
vertex -62.21248627 82.9458847 248.6907349
vertex -62.41838837 82.78438568 248.4530487
vertex -61.90920258 82.34694672 248.9308624

endloop
endfacet
facet normal -0.7021047473 -0.04073827714 0.71090734
outer loop
vertex -61.90920258 82.34694672 248.9308624
vertex -62.41838837 82.78438568 248.4530487
vertex -62.11571503 82.15480804 248.7158966

endloop
endfacet
facet normal -0.6870521307 -0.0705812797 0.7231718898
outer loop
vertex -61.90920258 82.34694672 248.9308624
vertex -62.11571503 82.15480804 248.7159119
vertex -61.57663727 81.757164 249.1892548

endloop
endfacet
facet normal -0.6851072907 -0.06514562666 0.725523293
outer loop
vertex -61.57663727 81.757164 249.1892548
vertex -62.11571503 82.15480804 248.7159119
vertex -61.77584076 81.54827118 248.9823914

endloop
endfacet
facet normal -0.6945081353 -0.04857535288 0.7178431749
outer loop
vertex -61.57663727 81.757164 249.1892548
vertex -61.77584076 81.54827118 248.9823914
vertex -61.25006866 81.15886688 249.4647217

endloop
endfacet
facet normal -0.7083970308 -0.0892444253 0.7001493573
outer loop
vertex -61.25006866 81.15886688 249.4647217
vertex -61.77584076 81.54827118 248.9823914
vertex -61.43639374 80.9474411 249.2492523

endloop
endfacet
facet normal -0.7462812066 -0.02030955441 0.6653208137
outer loop
vertex -61.25005341 81.1588974 249.4647522
vertex -61.43639374 80.94747162 249.2492828
vertex -60.97702789 80.52840424 249.7517548

endloop
endfacet
facet normal -0.7803308964 -0.1193128675 0.6138795614
outer loop
vertex -60.97702789 80.52840424 249.7517548
vertex -61.43639374 80.94747162 249.2492828
vertex -61.13704681 80.32793427 249.5093842

endloop
endfacet
facet normal -0.8399449587 0.01460081991 0.5424752831
outer loop
vertex -60.97702789 80.52840424 249.7517548
vertex -61.13704681 80.32793427 249.5093842
vertex -60.81194305 79.84734344 250.0256958

endloop
endfacet
facet normal -0.8954356909 -0.1589929461 0.4158320427
outer loop
vertex -60.81194305 79.84734344 250.0256958
vertex -61.13704681 80.32793427 249.5093842
vertex -60.91121674 79.6687851 249.7436523

endloop
endfacet
facet normal -0.9505313635 0.0424082987 0.3077199757
outer loop
vertex -60.81194305 79.84734344 250.0256958
vertex -60.91121674 79.6687851 249.7436523
vertex -60.74443817 79.14333344 250.3312378

endloop
endfacet
facet normal -0.966699183 -0.02168300562 0.2549949884
outer loop
vertex -60.74443817 79.14333344 250.3312378
vertex -60.91121674 79.6687851 249.7436523
vertex -60.82576752 78.99947357 250.0106812

endloop
endfacet
facet normal -0.9728247523 0.1413738132 0.1833722144
outer loop
vertex -60.74443817 79.14333344 250.3312378
vertex -60.82576752 78.99947357 250.0106812
vertex -60.77919769 78.44814301 250.6828003

endloop
endfacet
facet normal -0.9122404456 0.2834731638 0.2957367003
outer loop
vertex -60.77919769 78.44814301 250.6828003
vertex -60.82576752 78.99947357 250.0106812
vertex -60.9265976 78.34496307 250.3270264

endloop
endfacet
facet normal -0.8852420449 0.3898139894 0.2537549138
outer loop
vertex -60.77918243 78.44814301 250.6828308
vertex -60.92658234 78.34499359 250.3270721
vertex -61.03424835 77.72661591 250.901413

endloop
endfacet
facet normal -0.9332829118 0.3178259134 0.167241469
outer loop
vertex -61.03424835 77.72661591 250.901413
vertex -60.92658234 78.34499359 250.3270721
vertex -61.13460541 77.64199066 250.5021973

endloop
endfacet
facet normal -0.8856837749 0.446282953 0.1280456036
outer loop
vertex -61.03424835 77.72661591 250.901413
vertex -61.13460541 77.64199066 250.5021973
vertex -61.37369537 77.01265717 251.0418701

endloop
endfacet
facet normal -0.9322605133 0.3616816998 0.008753976785
outer loop
vertex -61.37369537 77.01265717 251.0418701
vertex -61.13460541 77.64199066 250.5021973
vertex -61.40892792 76.93196869 250.6235046

endloop
endfacet
facet normal -0.9154806733 0.4023615122 -0.000504873402
outer loop
vertex -61.37369537 77.01265717 251.0418701
vertex -61.40892792 76.93196869 250.6235046
vertex -61.68340302 76.30818939 251.2016449

endloop
endfacet
facet normal -0.9195689559 0.3927184641 -0.01285004523
outer loop
vertex -61.68340302 76.30818939 251.2016449
vertex -61.40892792 76.93196869 250.6235046
vertex -61.71051788 76.23097992 250.7823792

endloop
endfacet
facet normal -0.9520008564 0.3060510755 0.005207514856
outer loop
vertex -61.68340302 76.30818939 251.2016449
vertex -61.71051788 76.23097992 250.7823792
vertex -61.90172577 75.62499237 251.4416351

endloop
endfacet
facet normal -0.9135792255 0.3947133422 0.09784939885
outer loop
vertex -61.90172577 75.62499237 251.4416351
vertex -61.71051788 76.23097992 250.7823792
vertex -61.97769928 75.54985809 251.0353851

endloop
endfacet
facet normal -0.9612579942 0.2401289791 0.1353556365
outer loop
vertex -61.90172577 75.62499237 251.4416351
vertex -61.97769928 75.54985809 251.0353851
vertex -62.0087204 75.03057098 251.7363281

endloop
endfacet
facet normal -0.8607720137 0.4264646471 0.2778478265
outer loop
vertex -62.0087204 75.03057098 251.7363281
vertex -61.97769928 75.54985809 251.0353851
vertex -62.16802216 74.95223236 251.3630524

endloop
endfacet
facet normal -0.8852119446 0.3522455692 0.3038467765
outer loop
vertex -62.0087204 75.03054047 251.7363281
vertex -62.1680069 74.95223236 251.3630524
vertex -62.12863922 74.42751312 252.0860443

endloop
endfacet
facet normal -0.7918273807 0.4729832709 0.3863885701
outer loop
vertex -62.12863922 74.42751312 252.0860443
vertex -62.1680069 74.95223236 251.3630524
vertex -62.3381424 74.3446579 251.7581329

endloop
endfacet
facet normal -0.822686851 -0.1194623336 0.555801332
outer loop
vertex -62.12863922 74.42751312 252.0860443
vertex -62.3381424 74.3446579 251.7581329
vertex -62.04039764 73.78426361 252.0783997

endloop
endfacet
facet normal -0.8827364445 -0.4698684514 0
outer loop
vertex -62.04039764 73.78426361 252.0783997
vertex -62.3381424 74.3446579 251.7581329
vertex -62.04039764 73.78426361 252.0783844

endloop
endfacet
endsolid
