solid 
facet normal -nan(ind) -nan(ind) -nan(ind)
outer loop
vertex -45.84920502 -50.66313934 265.4410706
vertex -45.84920502 -50.66313934 265.4410706
vertex -45.36537933 -50.63106537 265.3528748

endloop
endfacet
facet normal -0.06528336555 -0.7677989602 -0.6373561025
outer loop
vertex -45.36537933 -50.63106537 265.3528748
vertex -45.84920502 -50.66313934 265.4410706
vertex -45.56400299 -50.45136261 265.1567383

endloop
endfacet
facet normal 0.6669510007 -0.07223568857 -0.7415917516
outer loop
vertex -45.36537933 -50.63106537 265.3528748
vertex -45.56400299 -50.45136261 265.1567383
vertex -45.19962311 -50.35071564 265.4746399

endloop
endfacet
facet normal 0.6684481502 -0.08690197021 -0.7386645079
outer loop
vertex -45.19962311 -50.35071564 265.4746399
vertex -45.56400299 -50.45136261 265.1567383
vertex -45.40918732 -50.16764069 265.2634583

endloop
endfacet
facet normal 0.6754726171 -0.07318550348 -0.7337442636
outer loop
vertex -45.19962311 -50.35071564 265.4746399
vertex -45.40918732 -50.16764069 265.2634583
vertex -45.04711151 -50.05007172 265.5850525

endloop
endfacet
facet normal 0.6746828556 -0.06720408797 -0.7350419164
outer loop
vertex -45.04711151 -50.05007172 265.5850525
vertex -45.40918732 -50.16764069 265.2634583
vertex -45.25997162 -49.86389923 265.3726501

endloop
endfacet
facet normal 0.6665744185 -0.08304258436 -0.740798533
outer loop
vertex -45.04711151 -50.05007172 265.5850525
vertex -45.25997162 -49.86389923 265.3726501
vertex -44.88385773 -49.73223114 265.6963196

endloop
endfacet
facet normal 0.6620976329 -0.05382442102 -0.7474822402
outer loop
vertex -44.88385773 -49.73223114 265.6963196
vertex -45.25997162 -49.86389923 265.3726501
vertex -45.09908295 -49.53850555 265.4917297

endloop
endfacet
facet normal 0.6490343213 -0.07811263949 -0.7567383051
outer loop
vertex -44.88385773 -49.73223114 265.6963196
vertex -45.09908295 -49.53850555 265.4917297
vertex -44.70388031 -49.40195465 265.8165894

endloop
endfacet
facet normal 0.645531714 -0.05627216026 -0.7616575956
outer loop
vertex -44.70388031 -49.40195465 265.8165894
vertex -45.09908295 -49.53850555 265.4917297
vertex -44.92043304 -49.20290375 265.6183472

endloop
endfacet
facet normal 0.6321246028 -0.07989991456 -0.7707363367
outer loop
vertex -44.70388031 -49.40195465 265.8165894
vertex -44.92043304 -49.20290375 265.6183472
vertex -44.51435089 -49.06795502 265.9374084

endloop
endfacet
facet normal 0.6281610727 -0.05524558574 -0.7761195302
outer loop
vertex -44.51435089 -49.06795502 265.9374084
vertex -44.92043304 -49.20290375 265.6183472
vertex -44.73282623 -48.86440277 265.7460938

endloop
endfacet
facet normal 0.6063450575 -0.09161867201 -0.7899061441
outer loop
vertex -44.51435089 -49.06795502 265.9374084
vertex -44.73282623 -48.86440277 265.7460938
vertex -44.31822968 -48.74088287 266.0500183

endloop
endfacet
facet normal 0.6006133556 -0.05300410464 -0.7977808118
outer loop
vertex -44.31822968 -48.74088287 266.0500183
vertex -44.73282623 -48.86440277 265.7460938
vertex -44.53907013 -48.53006744 265.869751

endloop
endfacet
facet normal 0.5730249882 -0.09571317583 -0.8139294982
outer loop
vertex -44.31822968 -48.74088287 266.0500183
vertex -44.53907013 -48.53006744 265.869751
vertex -44.1062088 -48.41565704 266.1610413

endloop
endfacet
facet normal 0.5675816536 -0.05608766153 -0.8214044571
outer loop
vertex -44.1062088 -48.41565704 266.1610413
vertex -44.53907013 -48.53006744 265.869751
vertex -44.32860565 -48.1969223 265.9924316

endloop
endfacet
facet normal 0.5408501029 -0.0943698436 -0.8358083367
outer loop
vertex -44.1062088 -48.41565704 266.1610413
vertex -44.32860565 -48.1969223 265.9924316
vertex -43.87496185 -48.08553314 266.273407

endloop
endfacet
facet normal 0.536157012 -0.05961163342 -0.8420106769
outer loop
vertex -43.87496185 -48.08553314 266.273407
vertex -44.32860565 -48.1969223 265.9924316
vertex -44.09902191 -47.8609848 266.1148376

endloop
endfacet
facet normal 0.512524426 -0.09154427797 -0.8537788987
outer loop
vertex -43.87496185 -48.08551788 266.2734375
vertex -44.09900665 -47.8609848 266.1148682
vertex -43.62911224 -47.75392914 266.3854675

endloop
endfacet
facet normal 0.5088376403 -0.06335864961 -0.85852772
outer loop
vertex -43.62911224 -47.75392914 266.3854675
vertex -44.09900665 -47.8609848 266.1148682
vertex -43.85434723 -47.52497101 266.2350769

endloop
endfacet
facet normal 0.4903755188 -0.08717755973 -0.8671401143
outer loop
vertex -43.62911224 -47.75392914 266.3854675
vertex -43.85434723 -47.52497101 266.2350769
vertex -43.37201691 -47.42392731 266.4976807

endloop
endfacet
facet normal 0.4879477024 -0.06747817248 -0.8702607155
outer loop
vertex -43.37201691 -47.42392731 266.4976807
vertex -43.85434723 -47.52497101 266.2350769
vertex -43.59726715 -47.1911087 266.3533325

endloop
endfacet
facet normal 0.4733237624 -0.08562947065 -0.876716733
outer loop
vertex -43.37201691 -47.42392731 266.4976807
vertex -43.59726715 -47.1911087 266.3533325
vertex -43.10710907 -47.09571075 266.6086426

endloop
endfacet
facet normal 0.471408993 -0.06914520264 -0.8791999817
outer loop
vertex -43.10710907 -47.09571075 266.6086426
vertex -43.59726715 -47.1911087 266.3533325
vertex -43.33240509 -46.85991669 266.4692993

endloop
endfacet
facet normal 0.4548552632 -0.08904116601 -0.8861029148
outer loop
vertex -43.10710907 -47.09571075 266.6086426
vertex -43.33240509 -46.85991669 266.4692993
vertex -42.83843231 -46.77066803 266.7138977

endloop
endfacet
facet normal 0.4526097178 -0.06846197695 -0.8890767097
outer loop
vertex -42.83843231 -46.77066803 266.7138977
vertex -43.33240509 -46.85991669 266.4692993
vertex -43.06478119 -46.5324173 266.5803223

endloop
endfacet
facet normal 0.4359681308 -0.08798586577 -0.8956507444
outer loop
vertex -42.83843231 -46.77065277 266.7139282
vertex -43.06476593 -46.53240204 266.5803528
vertex -42.56287384 -46.44719696 266.8162842

endloop
endfacet
facet normal 0.4342872202 -0.07184301317 -0.8979048729
outer loop
vertex -42.56287384 -46.44719696 266.8162842
vertex -43.06476593 -46.53240204 266.5803528
vertex -42.78977203 -46.20693207 266.6873169

endloop
endfacet
facet normal 0.4263199568 -0.0809956789 -0.9009389281
outer loop
vertex -42.56287384 -46.44719696 266.8162842
vertex -42.78977203 -46.20693207 266.6873169
vertex -42.27948761 -46.12230682 266.9211731

endloop
endfacet
facet normal 0.4257276356 -0.07528160512 -0.9017142653
outer loop
vertex -42.27948761 -46.12230682 266.9211731
vertex -42.78977203 -46.20693207 266.6873169
vertex -42.50630951 -45.88109589 266.7939453

endloop
endfacet
facet normal 0.4168554544 -0.08533560485 -0.9049581289
outer loop
vertex -42.27948761 -46.12230682 266.9211731
vertex -42.50630951 -45.88109589 266.7939453
vertex -42.00037384 -45.80289459 267.0196228

endloop
endfacet
facet normal 0.4155105054 -0.07136318088 -0.9067846537
outer loop
vertex -42.00037384 -45.80289459 267.0196228
vertex -42.50630951 -45.88109589 266.7939453
vertex -42.22800446 -45.56049347 266.8962402

endloop
endfacet
facet normal 0.3942857683 -0.09499999881 -0.9140644073
outer loop
vertex -42.00037384 -45.80289459 267.0196228
vertex -42.22800446 -45.56049347 266.8962402
vertex -41.7327652 -45.49823761 267.1033936

endloop
endfacet
facet normal 0.392126888 -0.06634216756 -0.9175157547
outer loop
vertex -41.7327652 -45.49823761 267.1033936
vertex -42.22800446 -45.56049347 266.8962402
vertex -41.96192169 -45.2539444 266.987793

endloop
endfacet
facet normal 0.3863676488 -0.07267284393 -0.9194774628
outer loop
vertex -41.7327652 -45.49823761 267.1033936
vertex -41.96192169 -45.2539444 266.987793
vertex -41.49169159 -45.21544647 267.1823425

endloop
endfacet
facet normal 0.385235697 -0.04837714508 -0.9215492606
outer loop
vertex -41.49169159 -45.21544647 267.1823425
vertex -41.96192169 -45.2539444 266.987793
vertex -41.71648407 -44.97896576 267.0759583

endloop
endfacet
facet normal 0.3582900465 -0.07806119323 -0.9303411841
outer loop
vertex -41.49169159 -45.21546173 267.1823425
vertex -41.71648407 -44.97896576 267.0759277
vertex -41.24320221 -44.92783356 267.2539062

endloop
endfacet
facet normal 0.3586596251 -0.08367771655 -0.9297103286
outer loop
vertex -41.24320221 -44.92783356 267.2539062
vertex -41.71648407 -44.97896576 267.0759277
vertex -41.4509964 -44.71413422 267.1545105

endloop
endfacet
facet normal 0.7356981039 0.5059057474 -0.4503417313
outer loop
vertex -41.24320221 -44.92783356 267.2539062
vertex -41.4509964 -44.71413422 267.1545105
vertex -41.30069733 -44.57604218 267.5551758

endloop
endfacet
facet normal -nan(ind) -nan(ind) -nan(ind)
outer loop
vertex -41.30069733 -44.57604218 267.5551758
vertex -41.4509964 -44.71413422 267.1545105
vertex -41.30069733 -44.57604218 267.5551758

endloop
endfacet
facet normal 0.7429632545 -0.5986689925 0.2993344963
outer loop
vertex -45.84920502 -50.66313934 265.4410706
vertex -45.84920502 -50.6631546 265.44104
vertex -45.56400299 -50.45136261 265.1567383

endloop
endfacet
facet normal -0.2948932946 -0.6005574465 -0.7432152033
outer loop
vertex -45.56400299 -50.45136261 265.1567383
vertex -45.84920502 -50.6631546 265.44104
vertex -45.74236298 -50.3551712 265.1497803

endloop
endfacet
facet normal 0.1773666292 0.2602221668 -0.9491183162
outer loop
vertex -45.56400299 -50.45136261 265.1567383
vertex -45.74236298 -50.3551712 265.1497803
vertex -45.40918732 -50.16764069 265.2634583

endloop
endfacet
facet normal 0.1626238823 0.2838963568 -0.9449636936
outer loop
vertex -45.40918732 -50.16764069 265.2634583
vertex -45.74236298 -50.3551712 265.1497803
vertex -45.59661102 -50.07389069 265.2593689

endloop
endfacet
facet normal 0.1540091336 0.2663894892 -0.9514819384
outer loop
vertex -45.40918732 -50.16764069 265.2634583
vertex -45.59661102 -50.07389069 265.2593689
vertex -45.25997162 -49.86389923 265.3726501

endloop
endfacet
facet normal 0.1509940922 0.2708101869 -0.9507168531
outer loop
vertex -45.25997162 -49.86389923 265.3726501
vertex -45.59661102 -50.07389069 265.2593689
vertex -45.4495163 -49.76860809 265.3696899

endloop
endfacet
facet normal 0.1518776119 0.2725877166 -0.950067997
outer loop
vertex -45.25997162 -49.86389923 265.3726501
vertex -45.4495163 -49.76860809 265.3696899
vertex -45.09908295 -49.53850555 265.4917297

endloop
endfacet
facet normal 0.137296319 0.2927805185 -0.9462713003
outer loop
vertex -45.09908295 -49.53850555 265.4917297
vertex -45.4495163 -49.76860809 265.3696899
vertex -45.28723907 -49.43932343 265.4951172

endloop
endfacet
facet normal 0.133986637 0.2865826488 -0.9486400485
outer loop
vertex -45.09908295 -49.53850555 265.4917297
vertex -45.28723907 -49.43932343 265.4951172
vertex -44.92043304 -49.20290375 265.6183472

endloop
endfacet
facet normal 0.122937046 0.3020086884 -0.9453451037
outer loop
vertex -44.92043304 -49.20290375 265.6183472
vertex -45.28723907 -49.43932343 265.4951172
vertex -45.10712433 -49.10102081 265.6266174

endloop
endfacet
facet normal 0.1177698001 0.2928274572 -0.9488847852
outer loop
vertex -44.92043304 -49.20290375 265.6183472
vertex -45.10712433 -49.10102081 265.6266174
vertex -44.73282623 -48.86440277 265.7460938

endloop
endfacet
facet normal 0.1052345708 0.3105503619 -0.9447137713
outer loop
vertex -44.73282623 -48.86440277 265.7460938
vertex -45.10712433 -49.10102081 265.6266174
vertex -44.91782379 -48.76021576 265.7597351

endloop
endfacet
facet normal 0.09641920775 0.2956446409 -0.9504196644
outer loop
vertex -44.73282623 -48.86440277 265.7460938
vertex -44.91782379 -48.76021576 265.7597351
vertex -44.53907013 -48.53006744 265.869751

endloop
endfacet
facet normal 0.078001827 0.3225641847 -0.9433282018
outer loop
vertex -44.53907013 -48.53006744 265.869751
vertex -44.91782379 -48.76021576 265.7597351
vertex -44.72106171 -48.42215729 265.8916016

endloop
endfacet
facet normal 0.06787844002 0.306724906 -0.9493747354
outer loop
vertex -44.53907013 -48.53006744 265.869751
vertex -44.72107697 -48.42215729 265.8916016
vertex -44.32860565 -48.1969223 265.9924316

endloop
endfacet
facet normal 0.04958093539 0.3348448277 -0.940967977
outer loop
vertex -44.32860565 -48.1969223 265.9924316
vertex -44.72107697 -48.42215729 265.8916016
vertex -44.50687408 -48.08493805 266.0228882

endloop
endfacet
facet normal 0.03845905885 0.3187923729 -0.9470440149
outer loop
vertex -44.32860565 -48.1969223 265.9924316
vertex -44.50687408 -48.08493805 266.0228882
vertex -44.09902191 -47.8609848 266.1148376

endloop
endfacet
facet normal 0.02309667692 0.3434242904 -0.938896358
outer loop
vertex -44.09902191 -47.8609848 266.1148376
vertex -44.50687408 -48.08493805 266.0228882
vertex -44.2740097 -47.74600983 266.1525879

endloop
endfacet
facet normal 0.01225249283 0.3288966119 -0.9442864656
outer loop
vertex -44.09900665 -47.8609848 266.1148682
vertex -44.27399445 -47.74599457 266.1526489
vertex -43.85434723 -47.52497101 266.2350769

endloop
endfacet
facet normal 0.0002772126463 0.3489665389 -0.9371351004
outer loop
vertex -43.85434723 -47.52497101 266.2350769
vertex -44.27399445 -47.74599457 266.1526489
vertex -44.02645111 -47.40772247 266.2786865

endloop
endfacet
facet normal -0.007456349209 0.3389663696 -0.9407689571
outer loop
vertex -43.85434723 -47.52497101 266.2350769
vertex -44.02645111 -47.40772247 266.2786865
vertex -43.59726715 -47.1911087 266.3533325

endloop
endfacet
facet normal -0.01572724245 0.3534733653 -0.9353123307
outer loop
vertex -43.59726715 -47.1911087 266.3533325
vertex -44.02645111 -47.40772247 266.2786865
vertex -43.76689911 -47.07187653 266.4012451

endloop
endfacet
facet normal -0.02181810699 0.3458956778 -0.9380192757
outer loop
vertex -43.59726715 -47.1911087 266.3533325
vertex -43.76689911 -47.07187653 266.4012451
vertex -43.33240509 -46.85991669 266.4692993

endloop
endfacet
facet normal -0.02849995345 0.3580651283 -0.9332615733
outer loop
vertex -43.33240509 -46.85991669 266.4692993
vertex -43.76689911 -47.07187653 266.4012451
vertex -43.49991608 -46.73914337 266.520752

endloop
endfacet
facet normal -0.03698800877 0.3478141129 -0.9368336201
outer loop
vertex -43.33240509 -46.85991669 266.4692993
vertex -43.49991608 -46.73914337 266.520752
vertex -43.06478119 -46.5324173 266.5803223

endloop
endfacet
facet normal -0.04496093467 0.3628470004 -0.9307633638
outer loop
vertex -43.06478119 -46.5324173 266.5803223
vertex -43.49991608 -46.73914337 266.520752
vertex -43.23006439 -46.41042328 266.6358643

endloop
endfacet
facet normal -0.05378558859 0.3524872959 -0.9342696071
outer loop
vertex -43.06476593 -46.53240204 266.5803528
vertex -43.23004913 -46.41040802 266.6358948
vertex -42.78977203 -46.20693207 266.6873169

endloop
endfacet
facet normal -0.05981523171 0.3642936647 -0.9293611646
outer loop
vertex -42.78977203 -46.20693207 266.6873169
vertex -43.23004913 -46.41040802 266.6358948
vertex -42.95322418 -46.08390045 266.7460632

endloop
endfacet
facet normal -0.06361090392 0.3599400818 -0.9308043718
outer loop
vertex -42.78977203 -46.20693207 266.6873169
vertex -42.95322418 -46.08390045 266.7460632
vertex -42.50630951 -45.88109589 266.7939453

endloop
endfacet
facet normal -0.06574444473 0.3642137945 -0.9289919138
outer loop
vertex -42.50630951 -45.88109589 266.7939453
vertex -42.95322418 -46.08390045 266.7460632
vertex -42.66895294 -45.75757599 266.8538818

endloop
endfacet
facet normal -0.07079669833 0.3584651649 -0.9308547378
outer loop
vertex -42.50630951 -45.88109589 266.7939453
vertex -42.66895294 -45.75757599 266.8538818
vertex -42.22800446 -45.56049347 266.8962402

endloop
endfacet
facet normal -0.07563634962 0.3683775663 -0.926594317
outer loop
vertex -42.22800446 -45.56049347 266.8962402
vertex -42.66895294 -45.75757599 266.8538818
vertex -42.38918304 -45.43637848 266.9587402

endloop
endfacet
facet normal -0.08804260194 0.3544460535 -0.930922389
outer loop
vertex -42.22800446 -45.56049347 266.8962402
vertex -42.38918304 -45.43637848 266.9587402
vertex -41.96192169 -45.2539444 266.987793

endloop
endfacet
facet normal -0.09769189358 0.3755653501 -0.9216328263
outer loop
vertex -41.96192169 -45.2539444 266.987793
vertex -42.38918304 -45.43637848 266.9587402
vertex -42.11994171 -45.1288681 267.0555115

endloop
endfacet
facet normal -0.09426562488 0.3792662323 -0.9204732776
outer loop
vertex -41.96192169 -45.2539444 266.987793
vertex -42.11994171 -45.1288681 267.0555115
vertex -41.71648407 -44.97896576 267.0759583

endloop
endfacet
facet normal -0.1008173525 0.3958486021 -0.9127648473
outer loop
vertex -41.71648407 -44.97896576 267.0759583
vertex -42.11994171 -45.1288681 267.0555115
vertex -41.86797333 -44.85781097 267.1452332

endloop
endfacet
facet normal -0.1119877324 0.384196341 -0.9164344072
outer loop
vertex -41.71648407 -44.97896576 267.0759277
vertex -41.86798859 -44.85781097 267.1452332
vertex -41.4509964 -44.71413422 267.1545105

endloop
endfacet
facet normal -0.09848507494 0.3460787535 -0.9330220222
outer loop
vertex -41.4509964 -44.71413422 267.1545105
vertex -41.86798859 -44.85781097 267.1452332
vertex -41.59397125 -44.59981537 267.2120056

endloop
endfacet
facet normal 0.4479925632 0.78001827 -0.4368913472
outer loop
vertex -41.4509964 -44.71413422 267.1545105
vertex -41.59397125 -44.59981537 267.2120056
vertex -41.30069733 -44.57604218 267.5551758

endloop
endfacet
facet normal 0.08081308007 -0.9967292547 0
outer loop
vertex -41.30069733 -44.57604218 267.5551758
vertex -41.59397125 -44.59981537 267.2120056
vertex -41.30069733 -44.57604218 267.5551453

endloop
endfacet
facet normal -0.9670319557 0.2277703732 -0.1138851866
outer loop
vertex -45.84920502 -50.6631546 265.44104
vertex -45.84920502 -50.66313934 265.4410706
vertex -45.74236298 -50.3551712 265.1497803

endloop
endfacet
facet normal -0.5253117681 -0.4814005196 -0.7016416788
outer loop
vertex -45.74236298 -50.3551712 265.1497803
vertex -45.84920502 -50.66313934 265.4410706
vertex -45.90830231 -50.30179596 265.2373962

endloop
endfacet
facet normal -0.2874011993 0.4733394682 -0.8326766491
outer loop
vertex -45.74236298 -50.3551712 265.1497803
vertex -45.90830231 -50.30179596 265.2373962
vertex -45.59661102 -50.07389069 265.2593689

endloop
endfacet
facet normal -0.3054498136 0.496103406 -0.8127618432
outer loop
vertex -45.59661102 -50.07389069 265.2593689
vertex -45.90830231 -50.30179596 265.2373962
vertex -45.76856232 -50.02497101 265.3538513

endloop
endfacet
facet normal -0.325373441 0.4561050236 -0.8283116817
outer loop
vertex -45.59661102 -50.07389069 265.2593689
vertex -45.76856232 -50.02497101 265.3538513
vertex -45.4495163 -49.76860809 265.3696899

endloop
endfacet
facet normal -0.3285937309 0.4599039853 -0.8249331117
outer loop
vertex -45.4495163 -49.76860809 265.3696899
vertex -45.76856232 -50.02497101 265.3538513
vertex -45.62293243 -49.71898651 265.4664307

endloop
endfacet
facet normal -0.3228032887 0.4716476202 -0.8205769062
outer loop
vertex -45.4495163 -49.76860809 265.3696899
vertex -45.62293243 -49.71898651 265.4664307
vertex -45.28723907 -49.43932343 265.4951172

endloop
endfacet
facet normal -0.3364069164 0.4865132272 -0.8063096404
outer loop
vertex -45.28723907 -49.43932343 265.4951172
vertex -45.62293243 -49.71898651 265.4664307
vertex -45.45752716 -49.38768768 265.5973206

endloop
endfacet
facet normal -0.334168911 0.4907050431 -0.8046985269
outer loop
vertex -45.28723907 -49.43932343 265.4951172
vertex -45.45752716 -49.38768768 265.5973206
vertex -45.10712433 -49.10102081 265.6266174

endloop
endfacet
facet normal -0.3442654908 0.5018979311 -0.7934606075
outer loop
vertex -45.10712433 -49.10102081 265.6266174
vertex -45.45752716 -49.38768768 265.5973206
vertex -45.27457428 -49.04793549 265.7328491

endloop
endfacet
facet normal -0.3445544541 0.5013847947 -0.7936596274
outer loop
vertex -45.10712433 -49.10102081 265.6266174
vertex -45.27457428 -49.04793549 265.7328491
vertex -44.91782379 -48.76021576 265.7597351

endloop
endfacet
facet normal -0.3558550477 0.5141566992 -0.7803910375
outer loop
vertex -44.91782379 -48.76021576 265.7597351
vertex -45.27457428 -49.04793549 265.7328491
vertex -45.08196259 -48.70595551 265.8703308

endloop
endfacet
facet normal -0.3568952084 0.512398541 -0.7810720801
outer loop
vertex -44.91782379 -48.76021576 265.7597351
vertex -45.08196259 -48.70595551 265.8703308
vertex -44.72106171 -48.42215729 265.8916016

endloop
endfacet
facet normal -0.3735335469 0.5319718122 -0.7599200606
outer loop
vertex -44.72106171 -48.42215729 265.8916016
vertex -45.08196259 -48.70595551 265.8703308
vertex -44.8797226 -48.36594391 266.0089417

endloop
endfacet
facet normal -0.3730819225 0.5327187181 -0.7596187592
outer loop
vertex -44.72107697 -48.42215729 265.8916016
vertex -44.8797226 -48.36594391 266.0089417
vertex -44.50687408 -48.08493805 266.0228882

endloop
endfacet
facet normal -0.3889366686 0.5526378751 -0.7371022105
outer loop
vertex -44.50687408 -48.08493805 266.0228882
vertex -44.8797226 -48.36594391 266.0089417
vertex -44.6594162 -48.02658844 266.1471252

endloop
endfacet
facet normal -0.3903653622 0.5505771637 -0.7378886342
outer loop
vertex -44.50687408 -48.08493805 266.0228882
vertex -44.6594162 -48.02658844 266.1471252
vertex -44.2740097 -47.74600983 266.1525879

endloop
endfacet
facet normal -0.4034633934 0.5681663156 -0.71721977
outer loop
vertex -44.2740097 -47.74600983 266.1525879
vertex -44.6594162 -48.02658844 266.1471252
vertex -44.42101288 -47.68613434 266.2827148

endloop
endfacet
facet normal -0.4057867527 0.5647088289 -0.7186383009
outer loop
vertex -44.27399445 -47.74599457 266.1526489
vertex -44.42101288 -47.68611908 266.2827148
vertex -44.02645111 -47.40772247 266.2786865

endloop
endfacet
facet normal -0.4157072008 0.5790185332 -0.7013736963
outer loop
vertex -44.02645111 -47.40772247 266.2786865
vertex -44.42101288 -47.68611908 266.2827148
vertex -44.16876984 -47.3466568 266.4134521

endloop
endfacet
facet normal -0.4165116847 0.5779801011 -0.7017527819
outer loop
vertex -44.02645111 -47.40772247 266.2786865
vertex -44.16876984 -47.3466568 266.4134521
vertex -43.76689911 -47.07187653 266.4012451

endloop
endfacet
facet normal -0.4229224026 0.5878968835 -0.6895750761
outer loop
vertex -43.76689911 -47.07187653 266.4012451
vertex -44.16876984 -47.3466568 266.4134521
vertex -43.9056015 -47.00978851 266.5392456

endloop
endfacet
facet normal -0.4233185947 0.5874044299 -0.6897517443
outer loop
vertex -43.76689911 -47.07187653 266.4012451
vertex -43.9056015 -47.00978851 266.5392456
vertex -43.49991608 -46.73914337 266.520752

endloop
endfacet
facet normal -0.4285048842 0.595900774 -0.6791803241
outer loop
vertex -43.49991608 -46.73914337 266.520752
vertex -43.9056015 -47.00978851 266.5392456
vertex -43.63550568 -46.6762619 266.6614685

endloop
endfacet
facet normal -0.4313963354 0.5924068689 -0.6804051399
outer loop
vertex -43.49991608 -46.73914337 266.520752
vertex -43.63550568 -46.6762619 266.6614685
vertex -43.23006439 -46.41042328 266.6358643

endloop
endfacet
facet normal -0.4374297857 0.6028777957 -0.6672283411
outer loop
vertex -43.23006439 -46.41042328 266.6358643
vertex -43.63550568 -46.6762619 266.6614685
vertex -43.36197662 -46.34688568 266.7797546

endloop
endfacet
facet normal -0.4406194985 0.5991347432 -0.6684997678
outer loop
vertex -43.23004913 -46.41040802 266.6358948
vertex -43.36196136 -46.34687042 266.7797852
vertex -42.95322418 -46.08390045 266.7460632

endloop
endfacet
facet normal -0.4450905919 0.6074353456 -0.6579640508
outer loop
vertex -42.95322418 -46.08390045 266.7460632
vertex -43.36196136 -46.34687042 266.7797852
vertex -43.08214569 -46.0198288 266.8924255

endloop
endfacet
facet normal -0.4461688697 0.6061998606 -0.6583730578
outer loop
vertex -42.95322418 -46.08390045 266.7460632
vertex -43.08214569 -46.0198288 266.8924255
vertex -42.66895294 -45.75757599 266.8538818

endloop
endfacet
facet normal -0.4476652443 0.6091020107 -0.6546682715
outer loop
vertex -42.66895294 -45.75757599 266.8538818
vertex -43.08214569 -46.0198288 266.8924255
vertex -42.79677582 -45.69329071 267.0010986

endloop
endfacet
facet normal -0.4502239823 0.6061881185 -0.6556174755
outer loop
vertex -42.66895294 -45.75757599 266.8538818
vertex -42.79677582 -45.69329071 267.0010986
vertex -42.38918304 -45.43637848 266.9587402

endloop
endfacet
facet normal -0.4537190497 0.6132184267 -0.6466082335
outer loop
vertex -42.38918304 -45.43637848 266.9587402
vertex -42.79677582 -45.69329071 267.0010986
vertex -42.51451874 -45.37175751 267.1079712

endloop
endfacet
facet normal -0.4596326649 0.6065724492 -0.6486970186
outer loop
vertex -42.38918304 -45.43637848 266.9587402
vertex -42.51451874 -45.37175751 267.1079712
vertex -42.11994171 -45.1288681 267.0555115

endloop
endfacet
facet normal -0.4660696685 0.6210340858 -0.6301553249
outer loop
vertex -42.11994171 -45.1288681 267.0555115
vertex -42.51451874 -45.37175751 267.1079712
vertex -42.23996735 -45.06374359 267.2084656

endloop
endfacet
facet normal -0.4561957717 0.6315754652 -0.6268954277
outer loop
vertex -42.11994171 -45.1288681 267.0555115
vertex -42.23996735 -45.06374359 267.2084656
vertex -41.86797333 -44.85781097 267.1452332

endloop
endfacet
facet normal -0.4600590765 0.643058002 -0.6122270823
outer loop
vertex -41.86797333 -44.85781097 267.1452332
vertex -42.23996735 -45.06374359 267.2084656
vertex -41.98059845 -44.79462433 267.2962341

endloop
endfacet
facet normal -0.4581983984 0.6449506879 -0.6116312742
outer loop
vertex -41.86798859 -44.85781097 267.1452332
vertex -41.98061371 -44.79462433 267.2962341
vertex -41.59397125 -44.59981537 267.2120056

endloop
endfacet
facet normal -0.4501250386 0.612377286 -0.6499089003
outer loop
vertex -41.59397125 -44.59981537 267.2120056
vertex -41.98061371 -44.79462433 267.2962341
vertex -41.7027359 -44.53644562 267.3470459

endloop
endfacet
facet normal 0.2262776047 0.9391468763 -0.2584598958
outer loop
vertex -41.59397125 -44.59981537 267.2120056
vertex -41.7027359 -44.53644562 267.3470459
vertex -41.30069733 -44.57604218 267.5551453

endloop
endfacet
facet normal 0.242175132 0.9253066182 -0.2918200195
outer loop
vertex -41.30069733 -44.57604218 267.5551453
vertex -41.7027359 -44.53644562 267.3470459
vertex -41.30068207 -44.57602692 267.5552063

endloop
endfacet
facet normal -nan(ind) -nan(ind) -nan(ind)
outer loop
vertex -45.84920502 -50.66313934 265.4410706
vertex -45.84920502 -50.66313934 265.4410706
vertex -45.90830231 -50.30179596 265.2373962

endloop
endfacet
facet normal -0.7226091027 -0.4253278077 -0.5449148417
outer loop
vertex -45.90830231 -50.30179596 265.2373962
vertex -45.84920502 -50.66313934 265.4410706
vertex -46.03775787 -50.29912567 265.4069824

endloop
endfacet
facet normal -0.6602186561 0.5489288568 -0.5126289129
outer loop
vertex -45.90830231 -50.30179596 265.2373962
vertex -46.03775787 -50.29912567 265.4069824
vertex -45.76856232 -50.02497101 265.3538513

endloop
endfacet
facet normal -0.6704691052 0.5651897788 -0.4806576073
outer loop
vertex -45.76856232 -50.02497101 265.3538513
vertex -46.03775787 -50.29912567 265.4069824
vertex -45.89800262 -50.02817535 265.5306396

endloop
endfacet
facet normal -0.6959252357 0.5152542591 -0.5002011657
outer loop
vertex -45.76856232 -50.02497101 265.3538513
vertex -45.89800262 -50.02817535 265.5306396
vertex -45.62293243 -49.71898651 265.4664307

endloop
endfacet
facet normal -0.6976156235 0.5177978277 -0.4951946735
outer loop
vertex -45.62293243 -49.71898651 265.4664307
vertex -45.89800262 -50.02817535 265.5306396
vertex -45.75295258 -49.72237396 265.6460571

endloop
endfacet
facet normal -0.6883652806 0.5365324616 -0.4881456196
outer loop
vertex -45.62293243 -49.71898651 265.4664307
vertex -45.75295258 -49.72237396 265.6460571
vertex -45.45752716 -49.38768768 265.5973206

endloop
endfacet
facet normal -0.6958315969 0.5463163257 -0.4662155807
outer loop
vertex -45.45752716 -49.38768768 265.5973206
vertex -45.75295258 -49.72237396 265.6460571
vertex -45.58313751 -49.39118195 265.7807007

endloop
endfacet
facet normal -0.6904944777 0.5562652349 -0.4623703063
outer loop
vertex -45.45752716 -49.38768768 265.5973206
vertex -45.58313751 -49.39118195 265.7807007
vertex -45.27457428 -49.04793549 265.7328491

endloop
endfacet
facet normal -0.6958657503 0.563477993 -0.4452678263
outer loop
vertex -45.27457428 -49.04793549 265.7328491
vertex -45.58313751 -49.39118195 265.7807007
vertex -45.39652252 -49.05155182 265.9188538

endloop
endfacet
facet normal -0.6930080056 0.5685319304 -0.4432960153
outer loop
vertex -45.27457428 -49.04793549 265.7328491
vertex -45.39652252 -49.05155182 265.9188538
vertex -45.08196259 -48.70595551 265.8703308

endloop
endfacet
facet normal -0.698702395 0.5764703155 -0.4236707985
outer loop
vertex -45.08196259 -48.70595551 265.8703308
vertex -45.39652252 -49.05155182 265.9188538
vertex -45.19945526 -48.70961761 266.0591125

endloop
endfacet
facet normal -0.694038868 0.5842872262 -0.4206167459
outer loop
vertex -45.08196259 -48.70595551 265.8703308
vertex -45.19945526 -48.70961761 266.0591125
vertex -44.8797226 -48.36594391 266.0089417

endloop
endfacet
facet normal -0.7018090487 0.5959460735 -0.3902721405
outer loop
vertex -44.8797226 -48.36594391 266.0089417
vertex -45.19945526 -48.70961761 266.0591125
vertex -44.99021149 -48.36971283 266.2018738

endloop
endfacet
facet normal -0.6942019463 0.6077211499 -0.3856924772
outer loop
vertex -44.8797226 -48.36594391 266.0089417
vertex -44.99022675 -48.36972809 266.2018738
vertex -44.6594162 -48.02658844 266.1471252

endloop
endfacet
facet normal -0.7009029388 0.6192494631 -0.3539281189
outer loop
vertex -44.6594162 -48.02658844 266.1471252
vertex -44.99022675 -48.36972809 266.2018738
vertex -44.76239777 -48.03052521 266.3441772

endloop
endfacet
facet normal -0.6955828667 0.6268704534 -0.3509955108
outer loop
vertex -44.6594162 -48.02658844 266.1471252
vertex -44.76239777 -48.03052521 266.3441772
vertex -44.42101288 -47.68613434 266.2827148

endloop
endfacet
facet normal -0.7003415823 0.636603713 -0.3228889704
outer loop
vertex -44.42101288 -47.68613434 266.2827148
vertex -44.76239777 -48.03052521 266.3441772
vertex -44.51712799 -47.69019318 266.4831848

endloop
endfacet
facet normal -0.6968172193 0.6414084435 -0.3210000396
outer loop
vertex -44.42101288 -47.68611908 266.2827148
vertex -44.51711273 -47.69017792 266.4832153
vertex -44.16876984 -47.3466568 266.4134521

endloop
endfacet
facet normal -0.6998727322 0.6492129564 -0.2978263795
outer loop
vertex -44.16876984 -47.3466568 266.4134521
vertex -44.51711273 -47.69017792 266.4832153
vertex -44.25907135 -47.35080719 266.6166077

endloop
endfacet
facet normal -0.6959677935 0.6542321444 -0.2959881723
outer loop
vertex -44.16876984 -47.3466568 266.4134521
vertex -44.25907135 -47.35080719 266.6166077
vertex -43.9056015 -47.00978851 266.5392456

endloop
endfacet
facet normal -0.6976138353 0.6596449018 -0.2796489596
outer loop
vertex -43.9056015 -47.00978851 266.5392456
vertex -44.25907135 -47.35080719 266.6166077
vertex -43.99176788 -47.01399994 266.7442627

endloop
endfacet
facet normal -0.6940998435 0.6639996767 -0.2780826092
outer loop
vertex -43.9056015 -47.00978851 266.5392456
vertex -43.99176788 -47.01399994 266.7442627
vertex -43.63550568 -46.6762619 266.6614685

endloop
endfacet
facet normal -0.6951750517 0.6685510874 -0.264142096
outer loop
vertex -43.63550568 -46.6762619 266.6614685
vertex -43.99176788 -47.01399994 266.7442627
vertex -43.71805573 -46.6805191 266.8679504

endloop
endfacet
facet normal -0.6935231686 0.6705405116 -0.2634406686
outer loop
vertex -43.63550568 -46.6762619 266.6614685
vertex -43.71805573 -46.6805191 266.8679504
vertex -43.36197662 -46.34688568 266.7797546

endloop
endfacet
facet normal -0.6944591999 0.6760880351 -0.2462343127
outer loop
vertex -43.36197662 -46.34688568 266.7797546
vertex -43.71805573 -46.6805191 266.8679504
vertex -43.43999481 -46.35118866 266.9879761

endloop
endfacet
facet normal -0.6931360364 0.6776542664 -0.2456564754
outer loop
vertex -43.36196136 -46.34687042 266.7797852
vertex -43.43997955 -46.35118866 266.9880066
vertex -43.08214569 -46.0198288 266.8924255

endloop
endfacet
facet normal -0.6935358644 0.6819209456 -0.2323615551
outer loop
vertex -43.08214569 -46.0198288 266.8924255
vertex -43.43997955 -46.35118866 266.9880066
vertex -43.15660858 -46.02416229 267.1019592

endloop
endfacet
facet normal -0.6928325891 0.6827260256 -0.2320950329
outer loop
vertex -43.08214569 -46.0198288 266.8924255
vertex -43.15660858 -46.02416229 267.1019592
vertex -42.79677582 -45.69329071 267.0010986

endloop
endfacet
facet normal -0.6929022074 0.6842210889 -0.2274382859
outer loop
vertex -42.79677582 -45.69329071 267.0010986
vertex -43.15660858 -46.02416229 267.1019592
vertex -42.87000275 -45.69765472 267.2110596

endloop
endfacet
facet normal -0.6930713654 0.6840286851 -0.2275012434
outer loop
vertex -42.79677582 -45.69329071 267.0010986
vertex -42.87000275 -45.69765472 267.2110596
vertex -42.51451874 -45.37175751 267.1079712

endloop
endfacet
facet normal -0.6931094527 0.6877677441 -0.215812102
outer loop
vertex -42.51451874 -45.37175751 267.1079712
vertex -42.87000275 -45.69765472 267.2110596
vertex -42.5845871 -45.37615204 267.3190002

endloop
endfacet
facet normal -0.6928955913 0.6880069375 -0.215736106
outer loop
vertex -42.51451874 -45.37175751 267.1079712
vertex -42.5845871 -45.37615204 267.3190002
vertex -42.23996735 -45.06374359 267.2084656

endloop
endfacet
facet normal -0.6922234893 0.6957116723 -0.1918644458
outer loop
vertex -42.23996735 -45.06374359 267.2084656
vertex -42.5845871 -45.37615204 267.3190002
vertex -42.30341339 -45.06816864 267.4213257

endloop
endfacet
facet normal -0.6762273908 0.712630868 -0.1867448539
outer loop
vertex -42.23996735 -45.06374359 267.2084656
vertex -42.30341339 -45.06816864 267.4213257
vertex -41.98059845 -44.79462433 267.2962341

endloop
endfacet
facet normal -0.6744863987 0.7186771631 -0.1690301746
outer loop
vertex -41.98059845 -44.79462433 267.2962341
vertex -42.30341339 -45.06816864 267.4213257
vertex -42.03705597 -44.79875946 267.5039368

endloop
endfacet
facet normal -0.6553139091 0.7374722362 -0.1633963436
outer loop
vertex -41.98061371 -44.79462433 267.2962341
vertex -42.03705597 -44.79875946 267.5039368
vertex -41.7027359 -44.53644562 267.3470459

endloop
endfacet
facet normal -0.6630403996 0.7176303864 -0.2130355388
outer loop
vertex -41.7027359 -44.53644562 267.3470459
vertex -42.03705597 -44.79875946 267.5039368
vertex -41.7614975 -44.53340912 267.5401611

endloop
endfacet
facet normal 0.09168722481 0.9957125783 0.01224246901
outer loop
vertex -41.7027359 -44.53644562 267.3470459
vertex -41.7614975 -44.53340912 267.5401611
vertex -41.30068207 -44.57602692 267.5552063

endloop
endfacet
facet normal -0.09350316226 -0.9945214987 0.0467348434
outer loop
vertex -41.30068207 -44.57602692 267.5552063
vertex -41.7614975 -44.53340912 267.5401611
vertex -41.30069733 -44.57602692 267.5551758

endloop
endfacet
facet normal -nan(ind) -nan(ind) -nan(ind)
outer loop
vertex -45.84920502 -50.66313934 265.4410706
vertex -45.84920502 -50.66313934 265.4410706
vertex -46.03775787 -50.29912567 265.4069824

endloop
endfacet
facet normal -0.8336356282 -0.4603822827 -0.3051227331
outer loop
vertex -46.03775787 -50.29912567 265.4069824
vertex -45.84920502 -50.66313934 265.4410706
vertex -46.07912445 -50.35121918 265.5986023

endloop
endfacet
facet normal -0.8759784102 0.4787335694 -0.05895690247
outer loop
vertex -46.03775787 -50.29912567 265.4069824
vertex -46.07912445 -50.35121918 265.5986023
vertex -45.89800262 -50.02817535 265.5306396

endloop
endfacet
facet normal -0.8749272823 0.4828813374 -0.03644053638
outer loop
vertex -45.89800262 -50.02817535 265.5306396
vertex -46.07912445 -50.35121918 265.5986023
vertex -45.93474579 -50.08068085 265.7170715

endloop
endfacet
facet normal -0.8946769834 0.4437519908 -0.05135305226
outer loop
vertex -45.89800262 -50.02817535 265.5306396
vertex -45.93474579 -50.08068085 265.7170715
vertex -45.75295258 -49.72237396 265.6460571

endloop
endfacet
facet normal -0.8944783211 0.4447676241 -0.04572029039
outer loop
vertex -45.75295258 -49.72237396 265.6460571
vertex -45.93474579 -50.08068085 265.7170715
vertex -45.78913116 -49.77574921 265.8346252

endloop
endfacet
facet normal -0.8830501437 0.4678175449 -0.03700321913
outer loop
vertex -45.75295258 -49.72237396 265.6460571
vertex -45.78913116 -49.77574921 265.8346252
vertex -45.58313751 -49.39118195 265.7807007

endloop
endfacet
facet normal -0.882175982 0.4707465172 -0.01277634129
outer loop
vertex -45.58313751 -49.39118195 265.7807007
vertex -45.78913116 -49.77574921 265.8346252
vertex -45.61553192 -49.44675446 265.9698792

endloop
endfacet
facet normal -0.8750656843 0.4839431942 -0.007682159543
outer loop
vertex -45.58313751 -49.39118195 265.7807007
vertex -45.61553192 -49.44675446 265.9698792
vertex -45.39652252 -49.05155182 265.9188538

endloop
endfacet
facet normal -0.8740171194 0.4857711196 0.01097606868
outer loop
vertex -45.39652252 -49.05155182 265.9188538
vertex -45.61553192 -49.44675446 265.9698792
vertex -45.42588043 -49.10865021 266.1081238

endloop
endfacet
facet normal -0.868878305 0.4948132932 0.01450091694
outer loop
vertex -45.39652252 -49.05155182 265.9188538
vertex -45.42588043 -49.10865021 266.1081238
vertex -45.19945526 -48.70961761 266.0591125

endloop
endfacet
facet normal -0.8672714233 0.4965358675 0.0359489955
outer loop
vertex -45.19945526 -48.70961761 266.0591125
vertex -45.42588043 -49.10865021 266.1081238
vertex -45.22502899 -48.76799774 266.2485046

endloop
endfacet
facet normal -0.8585466146 0.5110452175 0.04159964621
outer loop
vertex -45.19945526 -48.70961761 266.0591125
vertex -45.22502899 -48.76799774 266.2485046
vertex -44.99021149 -48.36971283 266.2018738

endloop
endfacet
facet normal -0.8552123308 0.5129152536 0.07436203957
outer loop
vertex -44.99021149 -48.36971283 266.2018738
vertex -45.22502899 -48.76799774 266.2485046
vertex -45.0100174 -48.43019867 266.3912964

endloop
endfacet
facet normal -0.842879653 0.5318696499 0.08166117966
outer loop
vertex -44.99022675 -48.36972809 266.2018738
vertex -45.01003265 -48.43019867 266.3912964
vertex -44.76239777 -48.03052521 266.3441772

endloop
endfacet
facet normal -0.8383100033 0.5329540968 0.1148753539
outer loop
vertex -44.76239777 -48.03052521 266.3441772
vertex -45.01003265 -48.43019867 266.3912964
vertex -44.77635956 -48.09326935 266.5333862

endloop
endfacet
facet normal -0.8280532956 0.5475527644 0.1204732507
outer loop
vertex -44.76239777 -48.03052521 266.3441772
vertex -44.77635956 -48.09326935 266.5333862
vertex -44.51712799 -47.69019318 266.4831848

endloop
endfacet
facet normal -0.8230164051 0.5479479432 0.1496564746
outer loop
vertex -44.51712799 -47.69019318 266.4831848
vertex -44.77635956 -48.09326935 266.5333862
vertex -44.5256424 -47.75460052 266.6721802

endloop
endfacet
facet normal -0.8147503138 0.5590328574 0.153831318
outer loop
vertex -44.51711273 -47.69017792 266.4832153
vertex -44.52562714 -47.75458527 266.6721802
vertex -44.25907135 -47.35080719 266.6166077

endloop
endfacet
facet normal -0.8099253178 0.5590824485 0.1773350984
outer loop
vertex -44.25907135 -47.35080719 266.6166077
vertex -44.52562714 -47.75458527 266.6721802
vertex -44.26308441 -47.41648102 266.8053284

endloop
endfacet
facet normal -0.8026029468 0.5684676766 0.1807568222
outer loop
vertex -44.25907135 -47.35080719 266.6166077
vertex -44.26308441 -47.41648102 266.8053284
vertex -43.99176788 -47.01399994 266.7442627

endloop
endfacet
facet normal -0.7987247109 0.5683832765 0.1974318177
outer loop
vertex -43.99176788 -47.01399994 266.7442627
vertex -44.26308441 -47.41648102 266.8053284
vertex -43.99272919 -47.08078766 266.9326477

endloop
endfacet
facet normal -0.7924398184 0.5761525631 0.2002183646
outer loop
vertex -43.99176788 -47.01399994 266.7442627
vertex -43.99272919 -47.08078766 266.9326477
vertex -43.71805573 -46.6805191 266.8679504

endloop
endfacet
facet normal -0.7889226675 0.5759843588 0.2141099125
outer loop
vertex -43.71805573 -46.6805191 266.8679504
vertex -43.99272919 -47.08078766 266.9326477
vertex -43.71640778 -46.74817657 267.0560303

endloop
endfacet
facet normal -0.7834245563 0.5825820565 0.2164350599
outer loop
vertex -43.71805573 -46.6805191 266.8679504
vertex -43.71640778 -46.74817657 267.0560303
vertex -43.43999481 -46.35118866 266.9879761

endloop
endfacet
facet normal -0.77872926 0.5822529197 0.2335858345
outer loop
vertex -43.43999481 -46.35118866 266.9879761
vertex -43.71640778 -46.74817657 267.0560303
vertex -43.43479156 -46.41954803 267.1757202

endloop
endfacet
facet normal -0.7736075521 0.5882687569 0.2355235815
outer loop
vertex -43.43997955 -46.35118866 266.9880066
vertex -43.43479156 -46.41953278 267.1757507
vertex -43.15660858 -46.02416229 267.1019592

endloop
endfacet
facet normal -0.7695999146 0.5879675746 0.249018088
outer loop
vertex -43.15660858 -46.02416229 267.1019592
vertex -43.43479156 -46.41953278 267.1757507
vertex -43.14862823 -46.0931015 267.2893982

endloop
endfacet
facet normal -0.7675644755 0.5902971625 0.2497882545
outer loop
vertex -43.15660858 -46.02416229 267.1019592
vertex -43.14862823 -46.0931015 267.2893982
vertex -42.87000275 -45.69765472 267.2110596

endloop
endfacet
facet normal -0.7661210299 0.5901965499 0.2544143498
outer loop
vertex -42.87000275 -45.69765472 267.2110596
vertex -43.14862823 -46.0931015 267.2893982
vertex -42.86110687 -45.76685333 267.3983765

endloop
endfacet
facet normal -0.7640173435 0.5925814509 0.2551954389
outer loop
vertex -42.87000275 -45.69765472 267.2110596
vertex -42.86110687 -45.76685333 267.3983765
vertex -42.5845871 -45.37615204 267.3190002

endloop
endfacet
facet normal -0.7603474259 0.592294693 0.2665686607
outer loop
vertex -42.5845871 -45.37615204 267.3190002
vertex -42.86110687 -45.76685333 267.3983765
vertex -42.57318878 -45.44568634 267.506012

endloop
endfacet
facet normal -0.7541406155 0.5992003083 0.2687580585
outer loop
vertex -42.5845871 -45.37615204 267.3190002
vertex -42.57318878 -45.44568634 267.506012
vertex -42.30341339 -45.06816864 267.4213257

endloop
endfacet
facet normal -0.7460959554 0.598580122 0.2916208208
outer loop
vertex -42.30341339 -45.06816864 267.4213257
vertex -42.57318878 -45.44568634 267.506012
vertex -42.28684235 -45.138237 267.6075439

endloop
endfacet
facet normal -0.7228637934 0.6230626702 0.2987654805
outer loop
vertex -42.30341339 -45.06816864 267.4213257
vertex -42.28684235 -45.138237 267.6075439
vertex -42.03705597 -44.79875946 267.5039368

endloop
endfacet
facet normal -0.7155759931 0.6229649782 0.3160155118
outer loop
vertex -42.03705597 -44.79875946 267.5039368
vertex -42.28684235 -45.138237 267.6075439
vertex -42.0165329 -44.8666153 267.6841736

endloop
endfacet
facet normal -0.677732408 0.659380734 0.3254162073
outer loop
vertex -42.03705597 -44.79875946 267.5039368
vertex -42.0165329 -44.8666153 267.6841736
vertex -41.7614975 -44.53340912 267.5401611

endloop
endfacet
facet normal -0.6957031488 0.6575117111 0.2892670631
outer loop
vertex -41.7614975 -44.53340912 267.5401611
vertex -42.0165329 -44.8666153 267.6841736
vertex -41.74486542 -44.5953598 267.7209778

endloop
endfacet
facet normal 0.07710979134 0.9453526735 0.3168002069
outer loop
vertex -41.7614975 -44.53340912 267.5401611
vertex -41.74486542 -44.5953598 267.7209778
vertex -41.30069733 -44.57602692 267.5551758

endloop
endfacet
facet normal 0.3496841192 0 0.9368676543
outer loop
vertex -41.30069733 -44.57602692 267.5551758
vertex -41.74486542 -44.5953598 267.7209778
vertex -41.30069733 -44.57604218 267.5551758

endloop
endfacet
facet normal 0 -0.4508080482 0.8926209211
outer loop
vertex -45.84920502 -50.66313934 265.4410706
vertex -45.84918976 -50.66313934 265.4410706
vertex -46.07912445 -50.35121918 265.5986023

endloop
endfacet
facet normal -0.8208916187 -0.5657313466 -0.07800619304
outer loop
vertex -46.07912445 -50.35121918 265.5986023
vertex -45.84918976 -50.66313934 265.4410706
vertex -46.03652191 -50.43503571 265.7581482

endloop
endfacet
facet normal -0.8727650046 0.2956934273 0.3883898258
outer loop
vertex -46.07912445 -50.35121918 265.5986023
vertex -46.03652191 -50.43503571 265.7581482
vertex -45.93474579 -50.08068085 265.7170715

endloop
endfacet
facet normal -0.8747802377 0.2957394421 0.3837938607
outer loop
vertex -45.93474579 -50.08068085 265.7170715
vertex -46.03652191 -50.43503571 265.7581482
vertex -45.89467621 -50.15732574 265.8674622

endloop
endfacet
facet normal -0.8839898109 0.2769276798 0.3766604364
outer loop
vertex -45.93474579 -50.08068085 265.7170715
vertex -45.89467621 -50.15732574 265.8674622
vertex -45.78913116 -49.77574921 265.8346252

endloop
endfacet
facet normal -0.8820776939 0.2767908275 0.3812160492
outer loop
vertex -45.78913116 -49.77574921 265.8346252
vertex -45.89467621 -50.15732574 265.8674622
vertex -45.74803925 -49.85352325 265.9861755

endloop
endfacet
facet normal -0.8709186912 0.2993215621 0.3897528946
outer loop
vertex -45.78913116 -49.77574921 265.8346252
vertex -45.74803925 -49.85352325 265.9861755
vertex -45.61553192 -49.44675446 265.9698792

endloop
endfacet
facet normal -0.8615034819 0.2971350253 0.4117309749
outer loop
vertex -45.61553192 -49.44675446 265.9698792
vertex -45.74803925 -49.85352325 265.9861755
vertex -45.57189178 -49.52768707 266.1195984

endloop
endfacet
facet normal -0.8549507856 0.3093058169 0.4164000452
outer loop
vertex -45.61553192 -49.44675446 265.9698792
vertex -45.57189178 -49.52768707 266.1195984
vertex -45.42588043 -49.10865021 266.1081238

endloop
endfacet
facet normal -0.847379148 0.3071262836 0.4331534803
outer loop
vertex -45.42588043 -49.10865021 266.1081238
vertex -45.57189178 -49.52768707 266.1195984
vertex -45.38037872 -49.19181061 266.2561035

endloop
endfacet
facet normal -0.842056334 0.3164893091 0.4367785752
outer loop
vertex -45.42588043 -49.10865021 266.1081238
vertex -45.38037872 -49.19181061 266.2561035
vertex -45.22502899 -48.76799774 266.2485046

endloop
endfacet
facet normal -0.8331614137 0.3135653138 0.4555423558
outer loop
vertex -45.22502899 -48.76799774 266.2485046
vertex -45.38037872 -49.19181061 266.2561035
vertex -45.17714691 -48.85305023 266.3946228

endloop
endfacet
facet normal -0.8237544894 0.3292149901 0.4615691602
outer loop
vertex -45.22502899 -48.76799774 266.2485046
vertex -45.17714691 -48.85305023 266.3946228
vertex -45.0100174 -48.43019867 266.3912964

endloop
endfacet
facet normal -0.8094024062 0.3237656057 0.4899424613
outer loop
vertex -45.0100174 -48.43019867 266.3912964
vertex -45.17714691 -48.85305023 266.3946228
vertex -44.95864105 -48.51830292 266.5343933

endloop
endfacet
facet normal -0.7968965173 0.342938453 0.4973420799
outer loop
vertex -45.01003265 -48.43019867 266.3912964
vertex -44.95864105 -48.51830292 266.5343933
vertex -44.77635956 -48.09326935 266.5333862

endloop
endfacet
facet normal -0.7812428474 0.3362928033 0.5258962512
outer loop
vertex -44.77635956 -48.09326935 266.5333862
vertex -44.95864105 -48.51830292 266.5343933
vertex -44.7216568 -48.18471527 266.6731262

endloop
endfacet
facet normal -0.7701163888 0.3521319032 0.5319058895
outer loop
vertex -44.77635956 -48.09326935 266.5333862
vertex -44.7216568 -48.18471527 266.6731262
vertex -44.5256424 -47.75460052 266.6721802

endloop
endfacet
facet normal -0.7557333708 0.3456307054 0.5562431216
outer loop
vertex -44.5256424 -47.75460052 266.6721802
vertex -44.7216568 -48.18471527 266.6731262
vertex -44.46779633 -47.84844208 266.809082

endloop
endfacet
facet normal -0.7462072372 0.3585510254 0.560906291
outer loop
vertex -44.52562714 -47.75458527 266.6721802
vertex -44.46779633 -47.84844208 266.8091125
vertex -44.26308441 -47.41648102 266.8053284

endloop
endfacet
facet normal -0.7338885665 0.352883935 0.580414176
outer loop
vertex -44.26308441 -47.41648102 266.8053284
vertex -44.46779633 -47.84844208 266.8091125
vertex -44.20270538 -47.51216888 266.9398499

endloop
endfacet
facet normal -0.7259297967 0.3631006777 0.5841094255
outer loop
vertex -44.26308441 -47.41648102 266.8053284
vertex -44.20270538 -47.51216888 266.9398499
vertex -43.99272919 -47.08078766 266.9326477

endloop
endfacet
facet normal -0.7168908715 0.3589277864 0.5976942182
outer loop
vertex -43.99272919 -47.08078766 266.9326477
vertex -44.20270538 -47.51216888 266.9398499
vertex -43.93087006 -47.17809296 267.0652771

endloop
endfacet
facet normal -0.7102032304 0.3672013283 0.6006450057
outer loop
vertex -43.99272919 -47.08078766 266.9326477
vertex -43.93087006 -47.17809296 267.0652771
vertex -43.71640778 -46.74817657 267.0560303

endloop
endfacet
facet normal -0.7024396658 0.3635701239 0.6118784547
outer loop
vertex -43.71640778 -46.74817657 267.0560303
vertex -43.93087006 -47.17809296 267.0652771
vertex -43.65323639 -46.84671783 267.1871033

endloop
endfacet
facet normal -0.6954123378 0.3720016479 0.6148304343
outer loop
vertex -43.71640778 -46.74817657 267.0560303
vertex -43.65323639 -46.84671783 267.1871033
vertex -43.43479156 -46.41954803 267.1757202

endloop
endfacet
facet normal -0.6857051253 0.367397964 0.6283528805
outer loop
vertex -43.43479156 -46.41954803 267.1757202
vertex -43.65323639 -46.84671783 267.1871033
vertex -43.36962128 -46.51911163 267.3050537

endloop
endfacet
facet normal -0.6788273454 0.3753690124 0.631103456
outer loop
vertex -43.43479156 -46.41953278 267.1757507
vertex -43.36960602 -46.51909637 267.3050842
vertex -43.14862823 -46.0931015 267.2893982

endloop
endfacet
facet normal -0.6709039807 0.3716486394 0.6416893601
outer loop
vertex -43.14862823 -46.0931015 267.2893982
vertex -43.36960602 -46.51909637 267.3050842
vertex -43.08191681 -46.19350433 267.4172974

endloop
endfacet
facet normal -0.6684558988 0.3744524717 0.6426135302
outer loop
vertex -43.14862823 -46.0931015 267.2893982
vertex -43.08191681 -46.19350433 267.4172974
vertex -42.86110687 -45.76685333 267.3983765

endloop
endfacet
facet normal -0.6655139327 0.3730997145 0.6464424729
outer loop
vertex -42.86110687 -45.76685333 267.3983765
vertex -43.08191681 -46.19350433 267.4172974
vertex -42.79393768 -45.86763763 267.5256958

endloop
endfacet
facet normal -0.6623243093 0.37671417 0.6476208568
outer loop
vertex -42.86110687 -45.76685333 267.3983765
vertex -42.79393768 -45.86763763 267.5256958
vertex -42.57318878 -45.44568634 267.506012

endloop
endfacet
facet normal -0.6555643678 0.3735804856 0.6562567353
outer loop
vertex -42.57318878 -45.44568634 267.506012
vertex -42.79393768 -45.86763763 267.5256958
vertex -42.50455475 -45.54697418 267.6322327

endloop
endfacet
facet normal -0.6461777687 0.3840215802 0.6595313549
outer loop
vertex -42.57318878 -45.44568634 267.506012
vertex -42.50455475 -45.54697418 267.6322327
vertex -42.28684235 -45.138237 267.6075439

endloop
endfacet
facet normal -0.6316658258 0.3773590326 0.6771990061
outer loop
vertex -42.28684235 -45.138237 267.6075439
vertex -42.50455475 -45.54697418 267.6322327
vertex -42.21527863 -45.24030304 267.7311707

endloop
endfacet
facet normal -0.6035149097 0.4071962237 0.685536921
outer loop
vertex -42.28684235 -45.138237 267.6075439
vertex -42.21527863 -45.24030304 267.7311707
vertex -42.0165329 -44.8666153 267.6841736

endloop
endfacet
facet normal -0.5911540985 0.4023218751 0.6990522146
outer loop
vertex -42.0165329 -44.8666153 267.6841736
vertex -42.21527863 -45.24030304 267.7311707
vertex -41.94406891 -44.96561432 267.8024292

endloop
endfacet
facet normal -0.5440556407 0.4486836493 0.7090038657
outer loop
vertex -42.0165329 -44.8666153 267.6841736
vertex -41.94406891 -44.96561432 267.8024292
vertex -41.74486542 -44.5953598 267.7209778

endloop
endfacet
facet normal -0.5525276661 0.4514091313 0.7006732821
outer loop
vertex -41.74486542 -44.5953598 267.7209778
vertex -41.94406891 -44.96561432 267.8024292
vertex -41.67006683 -44.69489288 267.8440857

endloop
endfacet
facet normal 0.1714898497 0.8144598007 0.5542982221
outer loop
vertex -41.74486542 -44.5953598 267.7209778
vertex -41.67006683 -44.69489288 267.8440857
vertex -41.30069733 -44.57604218 267.5551758

endloop
endfacet
facet normal -nan(ind) -nan(ind) -nan(ind)
outer loop
vertex -41.30069733 -44.57604218 267.5551758
vertex -41.67006683 -44.69489288 267.8440857
vertex -41.30069733 -44.57604218 267.5551758

endloop
endfacet
facet normal 0 0.8117676973 -0.5839805007
outer loop
vertex -45.84918976 -50.66313934 265.4410706
vertex -45.84920502 -50.66313934 265.4410706
vertex -46.03652191 -50.43503571 265.7581482

endloop
endfacet
facet normal -0.7057167888 -0.702911973 0.08876089007
outer loop
vertex -46.03652191 -50.43503571 265.7581482
vertex -45.84920502 -50.66313934 265.4410706
vertex -45.93148041 -50.5280838 265.8564453

endloop
endfacet
facet normal -0.6618367434 0.04346097633 0.7483870387
outer loop
vertex -46.03652191 -50.43503571 265.7581482
vertex -45.93148041 -50.5280838 265.8564453
vertex -45.89467621 -50.15732574 265.8674622

endloop
endfacet
facet normal -0.6918632388 0.0472708866 0.7204794884
outer loop
vertex -45.89467621 -50.15732574 265.8674622
vertex -45.93148041 -50.5280838 265.8564453
vertex -45.79972076 -50.24062347 265.9641113

endloop
endfacet
facet normal -0.6900840998 0.05098357052 0.7219312191
outer loop
vertex -45.89467621 -50.15732574 265.8674622
vertex -45.79972076 -50.24062347 265.9641113
vertex -45.74803925 -49.85352325 265.9861755

endloop
endfacet
facet normal -0.687404573 0.050478369 0.7245184183
outer loop
vertex -45.74803925 -49.85352325 265.9861755
vertex -45.79972076 -50.24062347 265.9641113
vertex -45.65189362 -49.93801117 266.0832825

endloop
endfacet
facet normal -0.6789274216 0.06766743213 0.7310804725
outer loop
vertex -45.74803925 -49.85352325 265.9861755
vertex -45.65189362 -49.93801117 266.0832825
vertex -45.57189178 -49.52768707 266.1195984

endloop
endfacet
facet normal -0.6617819071 0.06291093677 0.7470521927
outer loop
vertex -45.57189178 -49.52768707 266.1195984
vertex -45.65189362 -49.93801117 266.0832825
vertex -45.47466278 -49.61562347 266.2131348

endloop
endfacet
facet normal -0.657816112 0.07031351328 0.7498892546
outer loop
vertex -45.57189178 -49.52768707 266.1195984
vertex -45.47466278 -49.61562347 266.2131348
vertex -45.38037872 -49.19181061 266.2561035

endloop
endfacet
facet normal -0.6445556283 0.06616716832 0.7616888285
outer loop
vertex -45.38037872 -49.19181061 266.2561035
vertex -45.47466278 -49.61562347 266.2131348
vertex -45.28250885 -49.2821579 266.3467712

endloop
endfacet
facet normal -0.6411309242 0.0722219348 0.7640255094
outer loop
vertex -45.38037872 -49.19181061 266.2561035
vertex -45.28250885 -49.2821579 266.3467712
vertex -45.17714691 -48.85305023 266.3946228

endloop
endfacet
facet normal -0.6259714961 0.06705762446 0.7769575715
outer loop
vertex -45.17714691 -48.85305023 266.3946228
vertex -45.28250885 -49.2821579 266.3467712
vertex -45.07840729 -48.94542694 266.4821472

endloop
endfacet
facet normal -0.6193796992 0.07811868936 0.7811953425
outer loop
vertex -45.17714691 -48.85305023 266.3946228
vertex -45.07840729 -48.94542694 266.4821472
vertex -44.95864105 -48.51830292 266.5343933

endloop
endfacet
facet normal -0.5955399871 0.06909109652 0.8003490567
outer loop
vertex -44.95864105 -48.51830292 266.5343933
vertex -45.07840729 -48.94542694 266.4821472
vertex -44.8588028 -48.61399078 266.6169434

endloop
endfacet
facet normal -0.5871140361 0.08217333257 0.8053227067
outer loop
vertex -44.95864105 -48.51830292 266.5343933
vertex -44.8588028 -48.61399078 266.6169434
vertex -44.7216568 -48.18471527 266.6731262

endloop
endfacet
facet normal -0.5620219111 0.07171137631 0.8240078092
outer loop
vertex -44.7216568 -48.18471527 266.6731262
vertex -44.8588028 -48.61399078 266.6169434
vertex -44.62108612 -48.28404999 266.7503662

endloop
endfacet
facet normal -0.5539509654 0.08327760547 0.8283737898
outer loop
vertex -44.7216568 -48.18471527 266.6731262
vertex -44.62108612 -48.28404999 266.7503662
vertex -44.46779633 -47.84844208 266.809082

endloop
endfacet
facet normal -0.5315199494 0.07329560816 0.8438686132
outer loop
vertex -44.46779633 -47.84844208 266.809082
vertex -44.62108612 -48.28404999 266.7503662
vertex -44.36644745 -47.95041656 266.8817749

endloop
endfacet
facet normal -0.523958981 0.08349913359 0.8476407528
outer loop
vertex -44.46779633 -47.84844208 266.8091125
vertex -44.36644745 -47.95041656 266.8818054
vertex -44.20270538 -47.51216888 266.9398499

endloop
endfacet
facet normal -0.5055327415 0.0750387758 0.8595381975
outer loop
vertex -44.20270538 -47.51216888 266.9398499
vertex -44.36644745 -47.95041656 266.8818054
vertex -44.10082245 -47.61615753 267.0088501

endloop
endfacet
facet normal -0.4995605052 0.08273534477 0.8623191118
outer loop
vertex -44.20270538 -47.51216888 266.9398499
vertex -44.10082245 -47.61615753 267.0088501
vertex -43.93087006 -47.17809296 267.0652771

endloop
endfacet
facet normal -0.4864504039 0.07661559433 0.8703424931
outer loop
vertex -43.93087006 -47.17809296 267.0652771
vertex -44.10082245 -47.61615753 267.0088501
vertex -43.82892609 -47.28380585 267.1315613

endloop
endfacet
facet normal -0.4815557897 0.08269201219 0.8725056052
outer loop
vertex -43.93087006 -47.17809296 267.0652771
vertex -43.82892609 -47.28380585 267.1315613
vertex -43.65323639 -46.84671783 267.1871033

endloop
endfacet
facet normal -0.4704163074 0.07738346606 0.8790450692
outer loop
vertex -43.65323639 -46.84671783 267.1871033
vertex -43.82892609 -47.28380585 267.1315613
vertex -43.5512619 -46.9537735 267.2510986

endloop
endfacet
facet normal -0.4643929899 0.08463390172 0.8815760016
outer loop
vertex -43.65323639 -46.84671783 267.1871033
vertex -43.5512619 -46.9537735 267.2510986
vertex -43.36962128 -46.51911163 267.3050537

endloop
endfacet
facet normal -0.4506827891 0.07794895023 0.8892744184
outer loop
vertex -43.36962128 -46.51911163 267.3050537
vertex -43.5512619 -46.9537735 267.2510986
vertex -43.2672348 -46.62728119 267.3664246

endloop
endfacet
facet normal -0.4443629384 0.08528849483 0.8917777538
outer loop
vertex -43.36960602 -46.51909637 267.3050842
vertex -43.26720428 -46.62726593 267.3664551
vertex -43.08191681 -46.19350433 267.4172974

endloop
endfacet
facet normal -0.4332381785 0.07983796299 0.897736311
outer loop
vertex -43.08191681 -46.19350433 267.4172974
vertex -43.26720428 -46.62726593 267.3664551
vertex -42.9792099 -46.30257416 267.4765625

endloop
endfacet
facet normal -0.4311977625 0.08217827231 0.8985072374
outer loop
vertex -43.08191681 -46.19350433 267.4172974
vertex -42.9792099 -46.30257416 267.4765625
vertex -42.79393768 -45.86763763 267.5256958

endloop
endfacet
facet normal -0.4274768531 0.08037422597 0.9004462957
outer loop
vertex -42.79393768 -45.86763763 267.5256958
vertex -42.9792099 -46.30257416 267.4765625
vertex -42.69123077 -45.9771347 267.5842285

endloop
endfacet
facet normal -0.4245892465 0.08365309238 0.9015132189
outer loop
vertex -42.79393768 -45.86763763 267.5256958
vertex -42.69123077 -45.9771347 267.5842285
vertex -42.50455475 -45.54697418 267.6322327

endloop
endfacet
facet normal -0.4150324464 0.07896335423 0.9063734412
outer loop
vertex -42.50455475 -45.54697418 267.6322327
vertex -42.69123077 -45.9771347 267.5842285
vertex -42.40146637 -45.65703583 267.6890259

endloop
endfacet
facet normal -0.4057727456 0.08930179477 0.9096008539
outer loop
vertex -42.50455475 -45.54697418 267.6322327
vertex -42.40146637 -45.65703583 267.6890259
vertex -42.21527863 -45.24030304 267.7311707

endloop
endfacet
facet normal -0.3864223361 0.07971901447 0.9188702703
outer loop
vertex -42.21527863 -45.24030304 267.7311707
vertex -42.40146637 -45.65703583 267.6890259
vertex -42.11145782 -45.35121918 267.7844543

endloop
endfacet
facet normal -0.3567589521 0.1116318032 0.9275026917
outer loop
vertex -42.21527863 -45.24030304 267.7311707
vertex -42.11145782 -45.35121918 267.7844543
vertex -41.94406891 -44.96561432 267.8024292

endloop
endfacet
facet normal -0.3399291039 0.1039913371 0.934683919
outer loop
vertex -41.94406891 -44.96561432 267.8024292
vertex -42.11145782 -45.35121918 267.7844543
vertex -41.84197235 -45.0732193 267.851532

endloop
endfacet
facet normal -0.2937898934 0.1521433592 0.9436841607
outer loop
vertex -41.94406891 -44.96561432 267.8024292
vertex -41.84197235 -45.0732193 267.8515625
vertex -41.67006683 -44.69489288 267.8440857

endloop
endfacet
facet normal -0.2740617096 0.1433232129 0.9509724379
outer loop
vertex -41.67006683 -44.69489288 267.8440857
vertex -41.84197235 -45.0732193 267.8515625
vertex -41.56165314 -44.80529022 267.8919678

endloop
endfacet
facet normal 0.3391960859 0.6343792081 0.6946287155
outer loop
vertex -41.67006683 -44.69489288 267.8440857
vertex -41.56165314 -44.80529022 267.8919678
vertex -41.30069733 -44.57604218 267.5551758

endloop
endfacet
facet normal -0.790553689 0 -0.6123927236
outer loop
vertex -41.30069733 -44.57604218 267.5551758
vertex -41.56165314 -44.80529022 267.8919678
vertex -41.30069733 -44.57602692 267.5551758

endloop
endfacet
facet normal 0 -0.9509944916 0.3092077076
outer loop
vertex -45.84920502 -50.66313934 265.4410706
vertex -45.84918976 -50.66313934 265.4410706
vertex -45.93148041 -50.5280838 265.8564453

endloop
endfacet
facet normal -0.5322338939 -0.8304477334 0.1645711213
outer loop
vertex -45.93148041 -50.5280838 265.8564453
vertex -45.84918976 -50.66313934 265.4410706
vertex -45.78452301 -50.61649323 265.8855896

endloop
endfacet
facet normal -0.3083618581 -0.2064578831 0.9285947084
outer loop
vertex -45.93148041 -50.5280838 265.8564453
vertex -45.78452301 -50.61649323 265.8855896
vertex -45.79972076 -50.24062347 265.9641113

endloop
endfacet
facet normal -0.3663001955 -0.2044476718 0.9077584147
outer loop
vertex -45.79972076 -50.24062347 265.9641113
vertex -45.78452301 -50.61649323 265.8855896
vertex -45.65847015 -50.32459259 266.0021973

endloop
endfacet
facet normal -0.3573095798 -0.1859044731 0.915297389
outer loop
vertex -45.79972076 -50.24062347 265.9641113
vertex -45.65847015 -50.32459259 266.0021973
vertex -45.65189362 -49.93801117 266.0832825

endloop
endfacet
facet normal -0.3536488116 -0.186250031 0.9166479111
outer loop
vertex -45.65189362 -49.93801117 266.0832825
vertex -45.65847015 -50.32459259 266.0021973
vertex -45.50913239 -50.02329254 266.1210327

endloop
endfacet
facet normal -0.3496800959 -0.1782289445 0.91975981
outer loop
vertex -45.65189362 -49.93801117 266.0832825
vertex -45.50913239 -50.02329254 266.1210327
vertex -45.47466278 -49.61562347 266.2131348

endloop
endfacet
facet normal -0.3273371756 -0.181810692 0.9272515178
outer loop
vertex -45.47466278 -49.61562347 266.2131348
vertex -45.50913239 -50.02329254 266.1210327
vertex -45.33226776 -49.70436859 266.2460022

endloop
endfacet
facet normal -0.3277621865 -0.1826061308 0.9269449115
outer loop
vertex -45.47466278 -49.61562347 266.2131348
vertex -45.33226776 -49.70436859 266.2460022
vertex -45.28250885 -49.2821579 266.3467712

endloop
endfacet
facet normal -0.3107231557 -0.1858571172 0.9321525097
outer loop
vertex -45.28250885 -49.2821579 266.3467712
vertex -45.33226776 -49.70436859 266.2460022
vertex -45.14070892 -49.37335968 266.3758545

endloop
endfacet
facet normal -0.3109335005 -0.1862301975 0.9320079088
outer loop
vertex -45.28250885 -49.2821579 266.3467712
vertex -45.14070892 -49.37335968 266.3758545
vertex -45.07840729 -48.94542694 266.4821472

endloop
endfacet
facet normal -0.2909921408 -0.1905137002 0.9375649691
outer loop
vertex -45.07840729 -48.94542694 266.4821472
vertex -45.14070892 -49.37335968 266.3758545
vertex -44.93720245 -49.03870392 266.507019

endloop
endfacet
facet normal -0.2902235091 -0.1892166585 0.9380657077
outer loop
vertex -45.07840729 -48.94542694 266.4821472
vertex -44.93720245 -49.03870392 266.507019
vertex -44.8588028 -48.61399078 266.6169434

endloop
endfacet
facet normal -0.2599179149 -0.196704939 0.9453834891
outer loop
vertex -44.8588028 -48.61399078 266.6169434
vertex -44.93720245 -49.03870392 266.507019
vertex -44.71889496 -48.71056366 266.6353149

endloop
endfacet
facet normal -0.2592735887 -0.1956555098 0.9457780123
outer loop
vertex -44.8588028 -48.61399078 266.6169434
vertex -44.71891022 -48.71056366 266.6353149
vertex -44.62108612 -48.28404999 266.7503662

endloop
endfacet
facet normal -0.2281159461 -0.2044596225 0.951924026
outer loop
vertex -44.62108612 -48.28404999 266.7503662
vertex -44.71891022 -48.71056366 266.6353149
vertex -44.48299408 -48.38426971 266.7619324

endloop
endfacet
facet normal -0.2266161889 -0.2022985369 0.9527437091
outer loop
vertex -44.62108612 -48.28404999 266.7503662
vertex -44.48299408 -48.38426971 266.7619324
vertex -44.36644745 -47.95041656 266.8817749

endloop
endfacet
facet normal -0.1989624947 -0.2109144479 0.9570418
outer loop
vertex -44.36644745 -47.95041656 266.8817749
vertex -44.48299408 -48.38426971 266.7619324
vertex -44.22994232 -48.05329132 266.8874817

endloop
endfacet
facet normal -0.1966954023 -0.207874164 0.9581749439
outer loop
vertex -44.36644745 -47.95041656 266.8818054
vertex -44.22994232 -48.05327606 266.8875122
vertex -44.10082245 -47.61615753 267.0088501

endloop
endfacet
facet normal -0.1744450629 -0.2151932567 0.9608646035
outer loop
vertex -44.10082245 -47.61615753 267.0088501
vertex -44.22994232 -48.05327606 266.8875122
vertex -43.96573639 -47.72103119 267.0098877

endloop
endfacet
facet normal -0.1730723679 -0.213418752 0.9615083933
outer loop
vertex -44.10082245 -47.61615753 267.0088501
vertex -43.96573639 -47.72103119 267.0098877
vertex -43.82892609 -47.28380585 267.1315613

endloop
endfacet
facet normal -0.1573854089 -0.2187440842 0.9630061388
outer loop
vertex -43.82892609 -47.28380585 267.1315613
vertex -43.96573639 -47.72103119 267.0098877
vertex -43.69522858 -47.39048004 267.1291809

endloop
endfacet
facet normal -0.1563360691 -0.2174393237 0.9634724855
outer loop
vertex -43.82892609 -47.28380585 267.1315613
vertex -43.69522858 -47.39048004 267.1291809
vertex -43.5512619 -46.9537735 267.2510986

endloop
endfacet
facet normal -0.1431224942 -0.2220734507 0.9644684196
outer loop
vertex -43.5512619 -46.9537735 267.2510986
vertex -43.69522858 -47.39048004 267.1291809
vertex -43.41875458 -47.06183624 267.2458801

endloop
endfacet
facet normal -0.1404688209 -0.2188735902 0.9655894041
outer loop
vertex -43.5512619 -46.9537735 267.2510986
vertex -43.41875458 -47.06183624 267.2458801
vertex -43.2672348 -46.62728119 267.3664246

endloop
endfacet
facet normal -0.124280259 -0.2247587293 0.9664564133
outer loop
vertex -43.2672348 -46.62728119 267.3664246
vertex -43.41875458 -47.06183624 267.2458801
vertex -43.13576508 -46.73645782 267.3579407

endloop
endfacet
facet normal -0.1209836453 -0.2208740562 0.967769444
outer loop
vertex -43.26720428 -46.62726593 267.3664551
vertex -43.13574982 -46.73644257 267.3579712
vertex -42.9792099 -46.30257416 267.4765625

endloop
endfacet
facet normal -0.1081539318 -0.2256189436 0.968193531
outer loop
vertex -42.9792099 -46.30257416 267.4765625
vertex -43.13574982 -46.73644257 267.3579712
vertex -42.84871674 -46.41266632 267.4654846

endloop
endfacet
facet normal -0.1076841056 -0.2250799835 0.9683713317
outer loop
vertex -42.9792099 -46.30257416 267.4765625
vertex -42.84871674 -46.41266632 267.4654846
vertex -42.69123077 -45.9771347 267.5842285

endloop
endfacet
facet normal -0.1033353209 -0.2266799361 0.9684720635
outer loop
vertex -42.69123077 -45.9771347 267.5842285
vertex -42.84871674 -46.41266632 267.4654846
vertex -42.56119537 -46.08765411 267.5722351

endloop
endfacet
facet normal -0.1018771753 -0.2250229567 0.9690127969
outer loop
vertex -42.69123077 -45.9771347 267.5842285
vertex -42.56119537 -46.08765411 267.5722351
vertex -42.40146637 -45.65703583 267.6890259

endloop
endfacet
facet normal -0.09087855369 -0.2291378528 0.9691423774
outer loop
vertex -42.40146637 -45.65703583 267.6890259
vertex -42.56119537 -46.08765411 267.5722351
vertex -42.27210236 -45.76810455 267.6748962

endloop
endfacet
facet normal -0.08495421708 -0.2225024104 0.9712236524
outer loop
vertex -42.40146637 -45.65703583 267.6890259
vertex -42.27210236 -45.76810455 267.6748962
vertex -42.11145782 -45.35121918 267.7844543

endloop
endfacet
facet normal -0.06250270456 -0.2310757339 0.9709260464
outer loop
vertex -42.11145782 -45.35121918 267.7844543
vertex -42.27210236 -45.76810455 267.6748962
vertex -41.98358917 -45.46312714 267.7660522

endloop
endfacet
facet normal -0.03561493009 -0.2016495913 0.9788100719
outer loop
vertex -42.11145782 -45.35121918 267.7844543
vertex -41.98358917 -45.46312714 267.7660522
vertex -41.84197235 -45.0732193 267.851532

endloop
endfacet
facet normal -0.01630283333 -0.2084630579 0.9778943658
outer loop
vertex -41.84197235 -45.0732193 267.851532
vertex -41.98358917 -45.46312714 267.7660522
vertex -41.71837616 -45.18166351 267.8304749

endloop
endfacet
facet normal 0.01966578886 -0.1691776961 0.9853893518
outer loop
vertex -41.84197235 -45.0732193 267.8515625
vertex -41.71837616 -45.18167877 267.8304749
vertex -41.56165314 -44.80529022 267.8919678

endloop
endfacet
facet normal 0.0571494177 -0.1841079891 0.9812432528
outer loop
vertex -41.56165314 -44.80529022 267.8919678
vertex -41.71837616 -45.18167877 267.8304749
vertex -41.43779755 -44.91030121 267.8650513

endloop
endfacet
facet normal 0.5343725085 0.4462713897 0.7178355455
outer loop
vertex -41.56165314 -44.80529022 267.8919678
vertex -41.43779755 -44.91030121 267.8650513
vertex -41.30069733 -44.57602692 267.5551758

endloop
endfacet
facet normal 0.9144636393 0 0.4046681523
outer loop
vertex -41.30069733 -44.57602692 267.5551758
vertex -41.43779755 -44.91030121 267.8650513
vertex -41.30069733 -44.57604218 267.5551758

endloop
endfacet
facet normal 0 0.9945392609 -0.1043631285
outer loop
vertex -45.84918976 -50.66313934 265.4410706
vertex -45.84920502 -50.66313934 265.4410706
vertex -45.78452301 -50.61649323 265.8855896

endloop
endfacet
facet normal -0.338974297 -0.9292658567 0.1468377709
outer loop
vertex -45.78452301 -50.61649323 265.8855896
vertex -45.84920502 -50.66313934 265.4410706
vertex -45.6236496 -50.68265533 265.8382568

endloop
endfacet
facet normal 0.1002185792 -0.4061252177 0.908305347
outer loop
vertex -45.78452301 -50.61649323 265.8855896
vertex -45.6236496 -50.68265533 265.8382568
vertex -45.65847015 -50.32459259 266.0021973

endloop
endfacet
facet normal 0.02057228051 -0.4145517349 0.9097931385
outer loop
vertex -45.65847015 -50.32459259 266.0021973
vertex -45.6236496 -50.68265533 265.8382568
vertex -45.49437714 -50.39226532 265.9676514

endloop
endfacet
facet normal 0.03669703752 -0.3823431134 0.9232913852
outer loop
vertex -45.65847015 -50.32459259 266.0021973
vertex -45.49437714 -50.39226532 265.9676514
vertex -45.50913239 -50.02329254 266.1210327

endloop
endfacet
facet normal 0.04018669203 -0.3821725249 0.9232167006
outer loop
vertex -45.50913239 -50.02329254 266.1210327
vertex -45.49437714 -50.39226532 265.9676514
vertex -45.34345245 -50.09212494 266.0853271

endloop
endfacet
facet normal 0.03953197226 -0.3834814429 0.9227021933
outer loop
vertex -45.50913239 -50.02329254 266.1210327
vertex -45.34345245 -50.09212494 266.0853271
vertex -45.33226776 -49.70436859 266.2460022

endloop
endfacet
facet normal 0.0636273697 -0.3835978508 0.9213057756
outer loop
vertex -45.33226776 -49.70436859 266.2460022
vertex -45.34345245 -50.09212494 266.0853271
vertex -45.16851044 -49.77600861 266.2048645

endloop
endfacet
facet normal 0.05826822668 -0.3936193883 0.9174249768
outer loop
vertex -45.33226776 -49.70436859 266.2460022
vertex -45.16851044 -49.77600861 266.2048645
vertex -45.14070892 -49.37335968 266.3758545

endloop
endfacet
facet normal 0.07682754844 -0.3942119181 0.9158027172
outer loop
vertex -45.14070892 -49.37335968 266.3758545
vertex -45.16851044 -49.77600861 266.2048645
vertex -44.97884369 -49.44695282 266.3305969

endloop
endfacet
facet normal 0.0725139752 -0.4018667638 0.912822485
outer loop
vertex -45.14070892 -49.37335968 266.3758545
vertex -44.97884369 -49.44695282 266.3305969
vertex -44.93720245 -49.03870392 266.507019

endloop
endfacet
facet normal 0.09345938265 -0.4029688835 0.9104291797
outer loop
vertex -44.93720245 -49.03870392 266.507019
vertex -44.97884369 -49.44695282 266.3305969
vertex -44.77747345 -49.11397552 266.4573059

endloop
endfacet
facet normal 0.08764836192 -0.4127750695 0.9066060185
outer loop
vertex -44.93720245 -49.03870392 266.507019
vertex -44.77747345 -49.11397552 266.4573059
vertex -44.71889496 -48.71056366 266.6353149

endloop
endfacet
facet normal 0.1197934523 -0.4153045714 0.9017602801
outer loop
vertex -44.71889496 -48.71056366 266.6353149
vertex -44.77747345 -49.11397552 266.4573059
vertex -44.56284332 -48.78853607 266.5786743

endloop
endfacet
facet normal 0.111388661 -0.4284815788 0.8966583014
outer loop
vertex -44.71891022 -48.71056366 266.6353149
vertex -44.56284332 -48.78852081 266.5786743
vertex -44.48299408 -48.38426971 266.7619324

endloop
endfacet
facet normal 0.1439843476 -0.432033062 0.8902898431
outer loop
vertex -44.48299408 -48.38426971 266.7619324
vertex -44.56284332 -48.78852081 266.5786743
vertex -44.33123016 -48.46512604 266.6981506

endloop
endfacet
facet normal 0.1374599934 -0.4414447546 0.8866968155
outer loop
vertex -44.48299408 -48.38426971 266.7619324
vertex -44.33123016 -48.46512604 266.6981506
vertex -44.22994232 -48.05329132 266.8874817

endloop
endfacet
facet normal 0.1656129658 -0.4452665448 0.8799489141
outer loop
vertex -44.22994232 -48.05329132 266.8874817
vertex -44.33123016 -48.46512604 266.6981506
vertex -44.08203888 -48.13626862 266.8176575

endloop
endfacet
facet normal 0.1610937417 -0.4513763189 0.8776720166
outer loop
vertex -44.22994232 -48.05327606 266.8875122
vertex -44.08202362 -48.13625336 266.817688
vertex -43.96573639 -47.72103119 267.0098877

endloop
endfacet
facet normal 0.1839097738 -0.4548498988 0.8713717461
outer loop
vertex -43.96573639 -47.72103119 267.0098877
vertex -44.08202362 -48.13625336 266.817688
vertex -43.8211441 -47.80568695 266.9351807

endloop
endfacet
facet normal 0.1794706732 -0.4605869949 0.8692812324
outer loop
vertex -43.96573639 -47.72103119 267.0098877
vertex -43.8211441 -47.80568695 266.9351807
vertex -43.69522858 -47.39048004 267.1291809

endloop
endfacet
facet normal 0.1953237802 -0.4631542861 0.8644863367
outer loop
vertex -43.69522858 -47.39048004 267.1291809
vertex -43.8211441 -47.80568695 266.9351807
vertex -43.55332184 -47.47657013 267.0509949

endloop
endfacet
facet normal 0.1916961819 -0.4676647186 0.8628686666
outer loop
vertex -43.69522858 -47.39048004 267.1291809
vertex -43.55332184 -47.47657013 267.0509949
vertex -43.41875458 -47.06183624 267.2458801

endloop
endfacet
facet normal 0.2049420178 -0.4699448645 0.8585748076
outer loop
vertex -43.41875458 -47.06183624 267.2458801
vertex -43.55332184 -47.47657013 267.0509949
vertex -43.27915192 -47.14904022 267.1648254

endloop
endfacet
facet normal 0.2031457126 -0.4721119404 0.8578124046
outer loop
vertex -43.41875458 -47.06183624 267.2458801
vertex -43.27915192 -47.14904022 267.1648254
vertex -43.13576508 -46.73645782 267.3579407

endloop
endfacet
facet normal 0.219386816 -0.4751024544 0.8521426916
outer loop
vertex -43.13576508 -46.73645782 267.3579407
vertex -43.27915192 -47.14904022 267.1648254
vertex -42.99871063 -46.8245163 267.2735596

endloop
endfacet
facet normal 0.2183149457 -0.4763611555 0.8517151475
outer loop
vertex -43.13574982 -46.73644257 267.3579712
vertex -42.99869537 -46.82450104 267.2735901
vertex -42.84871674 -46.41266632 267.4654846

endloop
endfacet
facet normal 0.2309089303 -0.4787657559 0.8470326662
outer loop
vertex -42.84871674 -46.41266632 267.4654846
vertex -42.99869537 -46.82450104 267.2735901
vertex -42.71378326 -46.50151825 267.378479

endloop
endfacet
facet normal 0.2291861027 -0.4807432294 0.846380353
outer loop
vertex -42.84871674 -46.41266632 267.4654846
vertex -42.71378326 -46.50151825 267.378479
vertex -42.56119537 -46.08765411 267.5722351

endloop
endfacet
facet normal 0.2338305116 -0.4816252589 0.8446066976
outer loop
vertex -42.56119537 -46.08765411 267.5722351
vertex -42.71378326 -46.50151825 267.378479
vertex -42.42710114 -46.17684174 267.4842529

endloop
endfacet
facet normal 0.2332455069 -0.4822900891 0.8443890214
outer loop
vertex -42.56119537 -46.08765411 267.5722351
vertex -42.42710114 -46.17684174 267.4842529
vertex -42.27210236 -45.76810455 267.6748962

endloop
endfacet
facet normal 0.2440298349 -0.4843918979 0.8401274085
outer loop
vertex -42.27210236 -45.76810455 267.6748962
vertex -42.42710114 -46.17684174 267.4842529
vertex -42.13973236 -45.85771942 267.5847778

endloop
endfacet
facet normal 0.2451466769 -0.483139962 0.8405230045
outer loop
vertex -42.27210236 -45.76810455 267.6748962
vertex -42.13973236 -45.85771942 267.5847778
vertex -41.98358917 -45.46312714 267.7660522

endloop
endfacet
facet normal 0.2670372128 -0.4875459969 0.8312581778
outer loop
vertex -41.98358917 -45.46312714 267.7660522
vertex -42.13973236 -45.85771942 267.5847778
vertex -41.85494232 -45.55344391 267.6717529

endloop
endfacet
facet normal 0.2885577381 -0.4636384249 0.8377193809
outer loop
vertex -41.98358917 -45.46312714 267.7660522
vertex -41.85494232 -45.55344391 267.6717529
vertex -41.71837616 -45.18166351 267.8304749

endloop
endfacet
facet normal 0.3073408902 -0.4668951333 0.8291866183
outer loop
vertex -41.71837616 -45.18166351 267.8304749
vertex -41.85494232 -45.55344391 267.6717529
vertex -41.59598541 -45.26911163 267.7358704

endloop
endfacet
facet normal 0.3270910978 -0.4444364607 0.8339589834
outer loop
vertex -41.71837616 -45.18167877 267.8304749
vertex -41.59597015 -45.26911163 267.7358704
vertex -41.43779755 -44.91030121 267.8650513

endloop
endfacet
facet normal 0.376090914 -0.4561582208 0.8065205216
outer loop
vertex -41.43779755 -44.91030121 267.8650513
vertex -41.59597015 -45.26911163 267.7358704
vertex -41.32263947 -44.98899078 267.7668457

endloop
endfacet
facet normal 0.7268403172 0.2823082209 0.6261031628
outer loop
vertex -41.43779755 -44.91030121 267.8650513
vertex -41.32263947 -44.98899078 267.7668457
vertex -41.30069733 -44.57604218 267.5551758

endloop
endfacet
facet normal -nan(ind) -nan(ind) -nan(ind)
outer loop
vertex -41.30069733 -44.57604218 267.5551758
vertex -41.32263947 -44.98899078 267.7668457
vertex -41.30069733 -44.57604218 267.5551758

endloop
endfacet
facet normal 0.6542174816 0.676461041 -0.3382305205
outer loop
vertex -45.84920502 -50.6631546 265.44104
vertex -45.84920502 -50.66313934 265.4410706
vertex -45.62368011 -50.68265533 265.8382568

endloop
endfacet
facet normal -0.1423306912 -0.9892950654 0.03220665082
outer loop
vertex -45.62368011 -50.68265533 265.8382568
vertex -45.84920502 -50.66313934 265.4410706
vertex -45.46564484 -50.71007538 265.694397

endloop
endfacet
facet normal 0.5187652707 -0.5299038291 0.6708833575
outer loop
vertex -45.62368011 -50.68265533 265.8382568
vertex -45.46564484 -50.71007538 265.694397
vertex -45.49440765 -50.39228058 265.9676514

endloop
endfacet
facet normal 0.4442658424 -0.5606423616 0.6987904906
outer loop
vertex -45.49440765 -50.39228058 265.9676514
vertex -45.46564484 -50.71007538 265.694397
vertex -45.32280731 -50.42537689 265.8320007

endloop
endfacet
facet normal 0.4675324261 -0.5164292455 0.7174358368
outer loop
vertex -45.49440765 -50.39228058 265.9676514
vertex -45.32280731 -50.42537689 265.8320007
vertex -45.34345245 -50.0921402 266.0853271

endloop
endfacet
facet normal 0.4708799422 -0.5152184367 0.7161159515
outer loop
vertex -45.34345245 -50.0921402 266.0853271
vertex -45.32280731 -50.42537689 265.8320007
vertex -45.1704483 -50.12587738 265.9472961

endloop
endfacet
facet normal 0.4651526213 -0.5264437795 0.7116811872
outer loop
vertex -45.34345245 -50.0921402 266.0853271
vertex -45.1704483 -50.12587738 265.9472961
vertex -45.16851044 -49.77600861 266.204834

endloop
endfacet
facet normal 0.4871905446 -0.5194477439 0.7020111084
outer loop
vertex -45.16851044 -49.77600861 266.204834
vertex -45.1704483 -50.12587738 265.9472961
vertex -44.9994278 -49.81110382 266.0615234

endloop
endfacet
facet normal 0.4762811363 -0.5397748351 0.6941177249
outer loop
vertex -45.16851044 -49.77600861 266.204834
vertex -44.9994278 -49.81110382 266.0615234
vertex -44.97884369 -49.44696808 266.3305664

endloop
endfacet
facet normal 0.4930180311 -0.5348626971 0.686188817
outer loop
vertex -44.97884369 -49.44696808 266.3305664
vertex -44.9994278 -49.81110382 266.0615234
vertex -44.81316376 -49.48303986 266.1834106

endloop
endfacet
facet normal 0.4837735891 -0.551223278 0.6797910929
outer loop
vertex -44.97884369 -49.44696808 266.3305664
vertex -44.81316376 -49.48303986 266.1834106
vertex -44.77747345 -49.11397552 266.4572754

endloop
endfacet
facet normal 0.5029415488 -0.545894146 0.6701114774
outer loop
vertex -44.77747345 -49.11397552 266.4572754
vertex -44.81316376 -49.48303986 266.1834106
vertex -44.61589813 -49.15088654 266.3059387

endloop
endfacet
facet normal 0.4890931845 -0.5691070557 0.660987854
outer loop
vertex -44.77747345 -49.11397552 266.4572754
vertex -44.61589813 -49.15088654 266.3059387
vertex -44.56285858 -48.78853607 266.5786743

endloop
endfacet
facet normal 0.5181249976 -0.5614772439 0.6452052593
outer loop
vertex -44.56285858 -48.78853607 266.5786743
vertex -44.61589813 -49.15088654 266.3059387
vertex -44.40784454 -48.82675934 266.420929

endloop
endfacet
facet normal 0.4989253879 -0.5913150311 0.6335771084
outer loop
vertex -44.56285858 -48.78852081 266.5786743
vertex -44.4078598 -48.82675934 266.420929
vertex -44.33126068 -48.46512604 266.6981201

endloop
endfacet
facet normal 0.528046608 -0.5842419267 0.6163019538
outer loop
vertex -44.33126068 -48.46512604 266.6981201
vertex -44.4078598 -48.82675934 266.420929
vertex -44.18347931 -48.50475311 266.5339355

endloop
endfacet
facet normal 0.5113803148 -0.6082220078 0.6070883274
outer loop
vertex -44.33126068 -48.46512604 266.6981201
vertex -44.18347931 -48.50475311 266.5339355
vertex -44.08205414 -48.13628387 266.8176575

endloop
endfacet
facet normal 0.5363638997 -0.6026278734 0.5908920765
outer loop
vertex -44.08205414 -48.13628387 266.8176575
vertex -44.18347931 -48.50475311 266.5339355
vertex -43.9408493 -48.17697906 266.6479797

endloop
endfacet
facet normal 0.5231137872 -0.6205285788 0.584205687
outer loop
vertex -44.08205414 -48.13626862 266.8176575
vertex -43.94083405 -48.17696381 266.6479797
vertex -43.82115936 -47.80568695 266.9351807

endloop
endfacet
facet normal 0.5430499315 -0.6162551045 0.5703739524
outer loop
vertex -43.82115936 -47.80568695 266.9351807
vertex -43.94083405 -48.17696381 266.6479797
vertex -43.68550873 -47.84720612 266.7611694

endloop
endfacet
facet normal 0.531422019 -0.6312608123 0.5648897886
outer loop
vertex -43.82115936 -47.80568695 266.9351807
vertex -43.68550873 -47.84720612 266.7611694
vertex -43.5533371 -47.47658539 267.0509949

endloop
endfacet
facet normal 0.5454494953 -0.6283091903 0.554718256
outer loop
vertex -43.5533371 -47.47658539 267.0509949
vertex -43.68550873 -47.84720612 266.7611694
vertex -43.42188263 -47.5187912 266.8739319

endloop
endfacet
facet normal 0.5360330343 -0.6400018334 0.5505144596
outer loop
vertex -43.5533371 -47.47658539 267.0509949
vertex -43.42188263 -47.5187912 266.8739319
vertex -43.27916718 -47.14904022 267.1648254

endloop
endfacet
facet normal 0.547506988 -0.6376453042 0.5418897271
outer loop
vertex -43.27916718 -47.14904022 267.1648254
vertex -43.42188263 -47.5187912 266.8739319
vertex -43.15129852 -47.19179535 266.985321

endloop
endfacet
facet normal 0.5398032665 -0.646923244 0.5386118889
outer loop
vertex -43.27916718 -47.14904022 267.1648254
vertex -43.15129852 -47.19179535 266.985321
vertex -42.99872589 -46.82453156 267.2735291

endloop
endfacet
facet normal 0.5539892912 -0.6440886259 0.5274899602
outer loop
vertex -42.99872589 -46.82453156 267.2735291
vertex -43.15129852 -47.19179535 266.985321
vertex -42.87520599 -46.86769867 267.091095

endloop
endfacet
facet normal 0.5467637777 -0.6526608467 0.5244838595
outer loop
vertex -42.99871063 -46.8245163 267.2735596
vertex -42.87519073 -46.86766815 267.091095
vertex -42.71379852 -46.50151825 267.378479

endloop
endfacet
facet normal 0.5575672984 -0.6505227685 0.5156925321
outer loop
vertex -42.71379852 -46.50151825 267.378479
vertex -42.87519073 -46.86766815 267.091095
vertex -42.59375763 -46.54506683 267.1937561

endloop
endfacet
facet normal 0.5530307889 -0.6557349563 0.5139733553
outer loop
vertex -42.71379852 -46.50151825 267.378479
vertex -42.59375763 -46.54506683 267.1937561
vertex -42.42710114 -46.17684174 267.4842224

endloop
endfacet
facet normal 0.5567708015 -0.6549872756 0.5108795762
outer loop
vertex -42.42710114 -46.17684174 267.4842224
vertex -42.59375763 -46.54506683 267.1937561
vertex -42.30834198 -46.22054291 267.2987671

endloop
endfacet
facet normal 0.5533634424 -0.6588534117 0.509608686
outer loop
vertex -42.42710114 -46.17684174 267.4842224
vertex -42.30834198 -46.22054291 267.2987671
vertex -42.13974762 -45.85771942 267.5847778

endloop
endfacet
facet normal 0.5625644326 -0.6570135951 0.5018509626
outer loop
vertex -42.13974762 -45.85771942 267.5847778
vertex -42.30834198 -46.22054291 267.2987671
vertex -42.02397919 -45.90164948 267.3974915

endloop
endfacet
facet normal 0.5565434694 -0.6637409329 0.4997071624
outer loop
vertex -42.13974762 -45.85771942 267.5847778
vertex -42.02397919 -45.90164948 267.3974915
vertex -41.85495758 -45.55344391 267.6717529

endloop
endfacet
facet normal 0.5749563575 -0.6599789858 0.4835834503
outer loop
vertex -41.85495758 -45.55344391 267.6717529
vertex -42.02397919 -45.90164948 267.3974915
vertex -41.74547577 -45.59775543 267.4811096

endloop
endfacet
facet normal 0.5879033208 -0.6454301476 0.4876368642
outer loop
vertex -41.85495758 -45.55344391 267.6717529
vertex -41.74547577 -45.59775543 267.4811096
vertex -41.59598541 -45.26911163 267.7358704

endloop
endfacet
facet normal 0.6041446328 -0.6413894296 0.4728940427
outer loop
vertex -41.59598541 -45.26911163 267.7358704
vertex -41.74547577 -45.59775543 267.4811096
vertex -41.49466705 -45.31189728 267.5484009

endloop
endfacet
facet normal 0.6039859653 -0.6416529417 0.4727392495
outer loop
vertex -41.59598541 -45.26912689 267.7358704
vertex -41.49466705 -45.31189728 267.5483704
vertex -41.32263947 -44.98900604 267.7668457

endloop
endfacet
facet normal 0.644867897 -0.6331887245 0.4280391932
outer loop
vertex -41.32263947 -44.98900604 267.7668457
vertex -41.49466705 -45.31189728 267.5483704
vertex -41.23459625 -45.02167511 267.5858765

endloop
endfacet
facet normal 0.8985843658 0.1614284813 0.408028096
outer loop
vertex -41.32263947 -44.98900604 267.7668457
vertex -41.23459625 -45.02167511 267.5858765
vertex -41.30071259 -44.57604218 267.5551758

endloop
endfacet
facet normal 0 0.0687411204 0.9976345897
outer loop
vertex -41.30071259 -44.57604218 267.5551758
vertex -41.23459625 -45.02167511 267.5858765
vertex -41.30069733 -44.57604218 267.5551758

endloop
endfacet
facet normal -nan(ind) -nan(ind) -nan(ind)
outer loop
vertex -45.84920502 -50.66313934 265.4410706
vertex -45.84920502 -50.66313934 265.4410706
vertex -45.46564484 -50.71006012 265.694397

endloop
endfacet
facet normal 0.02486988157 -0.9755544662 -0.2183462083
outer loop
vertex -45.46564484 -50.71006012 265.694397
vertex -45.84920502 -50.66313934 265.4410706
vertex -45.36537933 -50.63106537 265.3528748

endloop
endfacet
facet normal 0.8573030233 -0.4962758124 0.136901021
outer loop
vertex -45.46564484 -50.71006012 265.694397
vertex -45.36537933 -50.63106537 265.3528748
vertex -45.32280731 -50.42536163 265.8319702

endloop
endfacet
facet normal 0.8157792091 -0.5541914701 0.1654573679
outer loop
vertex -45.32280731 -50.42536163 265.8319702
vertex -45.36537933 -50.63106537 265.3528748
vertex -45.19962311 -50.35071564 265.4746399

endloop
endfacet
facet normal 0.8447851539 -0.5015723705 0.1864488274
outer loop
vertex -45.32280731 -50.42536163 265.8319702
vertex -45.19962311 -50.35071564 265.4746399
vertex -45.1704483 -50.12587738 265.9472961

endloop
endfacet
facet normal 0.8475337029 -0.4976694584 0.1844226122
outer loop
vertex -45.1704483 -50.12587738 265.9472961
vertex -45.19962311 -50.35071564 265.4746399
vertex -45.04711151 -50.05007172 265.5850525

endloop
endfacet
facet normal 0.836651206 -0.5185729861 0.1763429344
outer loop
vertex -45.1704483 -50.12587738 265.9472961
vertex -45.04711151 -50.05007172 265.5850525
vertex -44.9994278 -49.81110382 266.061554

endloop
endfacet
facet normal 0.8532656431 -0.4953379035 0.1630277634
outer loop
vertex -44.9994278 -49.81110382 266.061554
vertex -45.04711151 -50.05007172 265.5850525
vertex -44.88385773 -49.73223114 265.6963196

endloop
endfacet
facet normal 0.8348788023 -0.5296583176 0.1497981399
outer loop
vertex -44.9994278 -49.81110382 266.061554
vertex -44.88385773 -49.73223114 265.6963196
vertex -44.81316376 -49.48303986 266.1834106

endloop
endfacet
facet normal 0.8473709822 -0.5124380589 0.1391753405
outer loop
vertex -44.81316376 -49.48303986 266.1834106
vertex -44.88385773 -49.73223114 265.6963196
vertex -44.70388031 -49.40195465 265.8165894

endloop
endfacet
facet normal 0.831258595 -0.5409302115 0.1280769855
outer loop
vertex -44.81316376 -49.48303986 266.1834106
vertex -44.70388031 -49.40195465 265.8165894
vertex -44.61589813 -49.15088654 266.3059387

endloop
endfacet
facet normal 0.8453742266 -0.5215203762 0.1155805737
outer loop
vertex -44.61589813 -49.15088654 266.3059387
vertex -44.70388031 -49.40195465 265.8165894
vertex -44.51435089 -49.06795502 265.9374084

endloop
endfacet
facet normal 0.8209111094 -0.5622916222 0.09966497123
outer loop
vertex -44.61589813 -49.15088654 266.3059387
vertex -44.51435089 -49.06795502 265.9374084
vertex -44.40784454 -48.82675934 266.420929

endloop
endfacet
facet normal 0.8424534798 -0.5327675939 0.08019226044
outer loop
vertex -44.40784454 -48.82675934 266.420929
vertex -44.51435089 -49.06795502 265.9374084
vertex -44.31822968 -48.74088287 266.0500183

endloop
endfacet
facet normal 0.8089585304 -0.5847867727 0.06008897722
outer loop
vertex -44.4078598 -48.82675934 266.420929
vertex -44.31822968 -48.74088287 266.0500183
vertex -44.18347931 -48.50475311 266.5339355

endloop
endfacet
facet normal 0.8308272958 -0.5551250577 0.03952589631
outer loop
vertex -44.18347931 -48.50475311 266.5339355
vertex -44.31822968 -48.74088287 266.0500183
vertex -44.1062088 -48.41565704 266.1610413

endloop
endfacet
facet normal 0.7998044491 -0.5998420119 0.02241313271
outer loop
vertex -44.18347931 -48.50475311 266.5339355
vertex -44.1062088 -48.41565704 266.1610413
vertex -43.9408493 -48.17697906 266.6479797

endloop
endfacet
facet normal 0.8184483051 -0.5745683312 0.003693671664
outer loop
vertex -43.9408493 -48.17697906 266.6479797
vertex -44.1062088 -48.41565704 266.1610413
vertex -43.87496185 -48.08553314 266.273407

endloop
endfacet
facet normal 0.7922502756 -0.6101203561 -0.009627094492
outer loop
vertex -43.94083405 -48.17696381 266.6479797
vertex -43.87496185 -48.08551788 266.2734375
vertex -43.68550873 -47.84720612 266.7611694

endloop
endfacet
facet normal 0.8071051836 -0.5898656845 -0.02529396489
outer loop
vertex -43.68550873 -47.84720612 266.7611694
vertex -43.87496185 -48.08551788 266.2734375
vertex -43.62911224 -47.75392914 266.3854675

endloop
endfacet
facet normal 0.7852678895 -0.618132472 -0.03558985889
outer loop
vertex -43.68550873 -47.84720612 266.7611694
vertex -43.62911224 -47.75392914 266.3854675
vertex -43.42188263 -47.5187912 266.8739319

endloop
endfacet
facet normal 0.7956485152 -0.6039462686 -0.04682274163
outer loop
vertex -43.42188263 -47.5187912 266.8739319
vertex -43.62911224 -47.75392914 266.3854675
vertex -43.37201691 -47.42392731 266.4976807

endloop
endfacet
facet normal 0.7783305645 -0.6254807115 -0.05454735458
outer loop
vertex -43.42188263 -47.5187912 266.8739319
vertex -43.37201691 -47.42392731 266.4976807
vertex -43.15129852 -47.19179535 266.9852905

endloop
endfacet
facet normal 0.7870502472 -0.6135414243 -0.06417810917
outer loop
vertex -43.15129852 -47.19179535 266.9852905
vertex -43.37201691 -47.42392731 266.4976807
vertex -43.10710907 -47.09571075 266.6086426

endloop
endfacet
facet normal 0.7706477642 -0.6332783699 -0.07113750279
outer loop
vertex -43.15129852 -47.19179535 266.9852905
vertex -43.10710907 -47.09571075 266.6086426
vertex -42.87520599 -46.86769867 267.091095

endloop
endfacet
facet normal 0.7811470032 -0.6188021302 -0.08302584291
outer loop
vertex -42.87520599 -46.86769867 267.091095
vertex -43.10710907 -47.09571075 266.6086426
vertex -42.83843231 -46.77066803 266.7138977

endloop
endfacet
facet normal 0.7644795179 -0.6383770108 -0.08969859779
outer loop
vertex -42.87519073 -46.86766815 267.091095
vertex -42.83843231 -46.77065277 266.7139282
vertex -42.59375763 -46.54506683 267.1937561

endloop
endfacet
facet normal 0.7727494836 -0.6268931031 -0.09931469709
outer loop
vertex -42.59375763 -46.54506683 267.1937561
vertex -42.83843231 -46.77065277 266.7139282
vertex -42.56287384 -46.44719696 266.8162842

endloop
endfacet
facet normal 0.7632115483 -0.6378949285 -0.1029476076
outer loop
vertex -42.59375763 -46.54506683 267.1937561
vertex -42.56287384 -46.44719696 266.8162842
vertex -42.30834198 -46.22052765 267.2987671

endloop
endfacet
facet normal 0.7660821676 -0.6338837743 -0.1063463762
outer loop
vertex -42.30834198 -46.22052765 267.2987671
vertex -42.56287384 -46.44719696 266.8162842
vertex -42.27948761 -46.12230682 266.9211731

endloop
endfacet
facet normal 0.7584490776 -0.6425227523 -0.1091769114
outer loop
vertex -42.30834198 -46.22052765 267.2987671
vertex -42.27948761 -46.12230682 266.9211731
vertex -42.02397919 -45.90163422 267.3974915

endloop
endfacet
facet normal 0.7654575109 -0.6326672435 -0.1175022721
outer loop
vertex -42.02397919 -45.90163422 267.3974915
vertex -42.27948761 -46.12230682 266.9211731
vertex -42.00037384 -45.80289459 267.0196228

endloop
endfacet
facet normal 0.7482705116 -0.6517832279 -0.1235711202
outer loop
vertex -42.02397919 -45.90163422 267.3974915
vertex -42.00037384 -45.80289459 267.0196228
vertex -41.74547577 -45.59775543 267.4811096

endloop
endfacet
facet normal 0.7626988292 -0.63127321 -0.1406575292
outer loop
vertex -41.74547577 -45.59775543 267.4811096
vertex -42.00037384 -45.80289459 267.0196228
vertex -41.7327652 -45.49823761 267.1033936

endloop
endfacet
facet normal 0.7603974938 -0.6338737607 -0.1414201111
outer loop
vertex -41.74547577 -45.59775543 267.4811096
vertex -41.7327652 -45.49823761 267.1033936
vertex -41.49466705 -45.31189728 267.5484009

endloop
endfacet
facet normal 0.7727665305 -0.6152629852 -0.1558310837
outer loop
vertex -41.49466705 -45.31189728 267.5484009
vertex -41.7327652 -45.49823761 267.1033936
vertex -41.49169159 -45.21544647 267.1823425

endloop
endfacet
facet normal 0.7450736165 -0.6464400291 -0.1642576158
outer loop
vertex -41.49466705 -45.31189728 267.5483704
vertex -41.49169159 -45.21546173 267.1823425
vertex -41.23459625 -45.02167511 267.5858765

endloop
endfacet
facet normal 0.765725255 -0.6134455204 -0.1932597309
outer loop
vertex -41.23459625 -45.02167511 267.5858765
vertex -41.49169159 -45.21546173 267.1823425
vertex -41.24320221 -44.92783356 267.2539062

endloop
endfacet
facet normal 0.9888863564 0.1477943957 0.0161428377
outer loop
vertex -41.23459625 -45.02167511 267.5858765
vertex -41.24320221 -44.92783356 267.2539062
vertex -41.30069733 -44.57604218 267.5551758

endloop
endfacet
facet normal -nan(ind) -nan(ind) -nan(ind)
outer loop
vertex -41.30069733 -44.57604218 267.5551758
vertex -41.24320221 -44.92783356 267.2539062
vertex -41.30069733 -44.57604218 267.5551758

endloop
endfacet
endsolid
