solid 
facet normal -0.901132 -0.370416 0.225283
outer loop
vertex -67.57060242 8.989067078 330.2778931
vertex -67.57061005 8.989067078 330.2778625
vertex -67.42202759 8.328147888 329.7854919

endloop
endfacet
facet normal -0.9841305017 -0.1405278891 -0.1083471626
outer loop
vertex -67.42202759 8.328147888 329.7854919
vertex -67.57061005 8.989067078 330.2778625
vertex -67.47941589 8.932746887 329.522583

endloop
endfacet
facet normal -0.4113582969 -0.3960308135 -0.8209408522
outer loop
vertex -67.42202759 8.328147888 329.7854919
vertex -67.47941589 8.932746887 329.522583
vertex -67.05233765 8.228126526 329.6484985

endloop
endfacet
facet normal -0.4229331613 -0.4015116692 -0.8123521209
outer loop
vertex -67.05233765 8.228126526 329.6484985
vertex -67.47941589 8.932746887 329.522583
vertex -67.17340851 8.964454651 329.3475952

endloop
endfacet
facet normal -0.3387084603 -0.4031141698 -0.8501620889
outer loop
vertex -67.05233765 8.228126526 329.6484985
vertex -67.17340851 8.964454651 329.3475952
vertex -66.57087708 8.207374573 329.4665222

endloop
endfacet
facet normal -0.3462983668 -0.4082840085 -0.8446192145
outer loop
vertex -66.57087708 8.207374573 329.4665222
vertex -67.17340851 8.964454651 329.3475952
vertex -66.73636627 9.009361267 329.146698

endloop
endfacet
facet normal -0.2228576541 -0.4004355669 -0.8888114691
outer loop
vertex -66.57087708 8.207374573 329.4665222
vertex -66.73636627 9.009361267 329.146698
vertex -65.9249115 8.262489319 329.2797241

endloop
endfacet
facet normal -0.225083679 -0.4025812447 -0.8872799277
outer loop
vertex -65.9249115 8.262489319 329.2797241
vertex -66.73636627 9.009361267 329.146698
vertex -66.08685303 9.067131042 328.955719

endloop
endfacet
facet normal -0.2325339019 -0.403193891 -0.8850777745
outer loop
vertex -65.9249115 8.262489319 329.2797241
vertex -66.08685303 9.067131042 328.955719
vertex -65.24102783 8.306664467 329.0799255

endloop
endfacet
facet normal -0.235978052 -0.406619221 -0.8825956583
outer loop
vertex -65.24102783 8.306664467 329.0799255
vertex -66.08685303 9.067131042 328.955719
vertex -65.38253021 9.11113739 328.7471313

endloop
endfacet
facet normal -0.2438577712 -0.4070380032 -0.8802575469
outer loop
vertex -65.24102783 8.306664467 329.0799255
vertex -65.38253021 9.11113739 328.7471313
vertex -64.6625061 8.327278137 328.9101257

endloop
endfacet
facet normal -0.2455974519 -0.4084037542 -0.8791406155
outer loop
vertex -64.6625061 8.327278137 328.9101257
vertex -65.38253021 9.11113739 328.7471313
vertex -64.78330994 9.132072449 328.5700073

endloop
endfacet
facet normal -0.2176566273 -0.4074863195 -0.8868938088
outer loop
vertex -64.6625061 8.327278137 328.9101257
vertex -64.78330994 9.132072449 328.5700073
vertex -64.10340118 8.338890076 328.7675781

endloop
endfacet
facet normal -0.2191896886 -0.4085808396 -0.8860121965
outer loop
vertex -64.10340118 8.338890076 328.7675781
vertex -64.78330994 9.132072449 328.5700073
vertex -64.20219421 9.143866539 328.4208069

endloop
endfacet
facet normal -0.1823105961 -0.4078492224 -0.8946630359
outer loop
vertex -64.10340881 8.338890076 328.7676086
vertex -64.20220184 9.143866539 328.4207764
vertex -63.52732086 8.34941864 328.6454163

endloop
endfacet
facet normal -0.1835973561 -0.4087514281 -0.8939878345
outer loop
vertex -63.52732086 8.34941864 328.6454163
vertex -64.20220184 9.143866539 328.4207764
vertex -63.61275482 9.15436554 328.2949219

endloop
endfacet
facet normal -0.1497634053 -0.4080383182 -0.9005973935
outer loop
vertex -63.52732086 8.34941864 328.6454163
vertex -63.61275482 9.15436554 328.2949219
vertex -62.92780304 8.362968445 328.5395813

endloop
endfacet
facet normal -0.1507923752 -0.4087728262 -0.9000924826
outer loop
vertex -62.92780304 8.362968445 328.5395813
vertex -63.61275482 9.15436554 328.2949219
vertex -63.00745392 9.167746544 328.187439

endloop
endfacet
facet normal -0.129337877 -0.4082174003 -0.903676033
outer loop
vertex -62.92778778 8.362968445 328.5396118
vertex -63.00743866 9.167746544 328.1874695
vertex -62.31430817 8.381874084 328.4432678

endloop
endfacet
facet normal -0.1298718452 -0.4086062312 -0.9034236073
outer loop
vertex -62.31430817 8.381874084 328.4432678
vertex -63.00743866 9.167746544 328.1874695
vertex -62.39591217 9.186393738 328.0911255

endloop
endfacet
facet normal -0.1295348853 -0.4085953832 -0.9034768939
outer loop
vertex -62.31430817 8.381874084 328.4432678
vertex -62.39591217 9.186393738 328.0911255
vertex -61.70064545 8.405220032 328.3447266

endloop
endfacet
facet normal -0.1289588809 -0.4081716537 -0.9037507772
outer loop
vertex -61.70064545 8.405220032 328.3447266
vertex -62.39591217 9.186393738 328.0911255
vertex -61.79012299 9.209602356 327.9942017

endloop
endfacet
facet normal -0.1524416655 -0.4090196788 -0.8997024298
outer loop
vertex -61.70064545 8.405220032 328.3447266
vertex -61.79012299 9.209602356 327.9942017
vertex -61.0969162 8.428718567 328.2317505

endloop
endfacet
facet normal -0.1510740072 -0.4080145657 -0.9003893137
outer loop
vertex -61.0969162 8.428718567 328.2317505
vertex -61.79012299 9.209602356 327.9942017
vertex -61.19501495 9.233177185 327.883667

endloop
endfacet
facet normal -0.1884700507 -0.4092642963 -0.8927384019
outer loop
vertex -61.0969162 8.428718567 328.2317505
vertex -61.19501495 9.233177185 327.883667
vertex -60.50576019 8.447257996 328.0984497

endloop
endfacet
facet normal -0.1871102303 -0.4082737565 -0.8934776187
outer loop
vertex -60.50576019 8.447257996 328.0984497
vertex -61.19501495 9.233177185 327.883667
vertex -60.60895538 9.251899719 327.7523804

endloop
endfacet
facet normal -0.2209745944 -0.4091596901 -0.8853014112
outer loop
vertex -60.50574493 8.447273254 328.0984802
vertex -60.60894012 9.251930237 327.7523499
vertex -59.92324066 8.458213806 327.9480286

endloop
endfacet
facet normal -0.2202443331 -0.4086335897 -0.8857262731
outer loop
vertex -59.92324066 8.458213806 327.9480286
vertex -60.60894012 9.251930237 327.7523499
vertex -60.02616119 9.263008118 327.6023254

endloop
endfacet
facet normal -0.2399831414 -0.4088962376 -0.8804611564
outer loop
vertex -59.92324066 8.458213806 327.9480286
vertex -60.02616119 9.263008118 327.6023254
vertex -59.3486557 8.462165833 327.7895813

endloop
endfacet
facet normal -0.2397330999 -0.4087198079 -0.8806112409
outer loop
vertex -59.3486557 8.462165833 327.7895813
vertex -60.02616119 9.263008118 327.6023254
vertex -59.44835663 9.266929626 327.4432068

endloop
endfacet
facet normal -0.2462060452 -0.4087468684 -0.8788108826
outer loop
vertex -59.3486557 8.462165833 327.7895813
vertex -59.44835663 9.266929626 327.4432068
vertex -58.77939606 8.462104797 327.630127

endloop
endfacet
facet normal -0.2460901737 -0.4086667299 -0.8788805604
outer loop
vertex -58.77939606 8.462104797 327.630127
vertex -59.44835663 9.266929626 327.4432068
vertex -58.87340546 9.266517639 327.2824097

endloop
endfacet
facet normal -0.2204621434 -0.4086117148 -0.8856821656
outer loop
vertex -58.77939606 8.462104797 327.630127
vertex -58.87340546 9.266517639 327.2824097
vertex -58.21585846 8.4713974 327.4855652

endloop
endfacet
facet normal -0.2204092294 -0.4085755944 -0.8857120872
outer loop
vertex -58.21585846 8.4713974 327.4855652
vertex -58.87340546 9.266517639 327.2824097
vertex -58.30805206 9.265190125 327.142334

endloop
endfacet
facet normal -0.07404616475 -0.4030248225 -0.9121886492
outer loop
vertex -58.21585846 8.4713974 327.4855652
vertex -58.30805206 9.265190125 327.142334
vertex -57.71199799 8.558067322 327.4063721

endloop
endfacet
facet normal -0.06651477516 -0.3977550864 -0.9150774479
outer loop
vertex -57.71199799 8.558067322 327.4063721
vertex -58.30805206 9.265190125 327.142334
vertex -57.81275177 9.271598816 327.1035461

endloop
endfacet
facet normal -0.06687548012 -0.3977814615 -0.9150395989
outer loop
vertex -57.71201324 8.558052063 327.4063721
vertex -57.81276703 9.271598816 327.1035461
vertex -57.29688263 8.675346375 327.3250427

endloop
endfacet
facet normal -0.06510990113 -0.3965066373 -0.9157201052
outer loop
vertex -57.29688263 8.675346375 327.3250427
vertex -57.81276703 9.271598816 327.1035461
vertex -57.40645599 9.247871399 327.0849304

endloop
endfacet
facet normal 0.7562419176 -0.124645181 -0.6423097253
outer loop
vertex -57.29688263 8.675346375 327.3250427
vertex -57.40645599 9.247871399 327.0849304
vertex -56.93289948 9.273658752 327.6374817

endloop
endfacet
facet normal -nan(ind) -nan(ind) -nan(ind)
outer loop
vertex -56.93289948 9.273658752 327.6374817
vertex -57.40645599 9.247871399 327.0849304
vertex -56.93289948 9.273658752 327.6374817

endloop
endfacet
facet normal 0.525454998 0.8508214355 0
outer loop
vertex -67.57061005 8.989067078 330.2778625
vertex -67.57061005 8.989067078 330.2778931
vertex -67.47941589 8.932746887 329.522583

endloop
endfacet
facet normal -0.9919057488 0.03412530199 -0.1223046705
outer loop
vertex -67.47941589 8.932746887 329.522583
vertex -67.57061005 8.989067078 330.2778931
vertex -67.47667694 9.295967102 329.6017151

endloop
endfacet
facet normal -0.502170682 0.1876961291 -0.844153285
outer loop
vertex -67.47941589 8.932746887 329.522583
vertex -67.47667694 9.295967102 329.6017151
vertex -67.17340851 8.964454651 329.3475952

endloop
endfacet
facet normal -0.4726129472 0.2215014398 -0.8529796004
outer loop
vertex -67.17340851 8.964454651 329.3475952
vertex -67.47667694 9.295967102 329.6017151
vertex -67.17854309 9.383857727 329.4593506

endloop
endfacet
facet normal -0.4259030819 0.2280867398 -0.8755472898
outer loop
vertex -67.17340851 8.964454651 329.3475952
vertex -67.17854309 9.383857727 329.4593506
vertex -66.73636627 9.009361267 329.146698

endloop
endfacet
facet normal -0.4267062843 0.2270390838 -0.8754284978
outer loop
vertex -66.73636627 9.009361267 329.146698
vertex -67.17854309 9.383857727 329.4593506
vertex -66.74784088 9.466011047 329.2707214

endloop
endfacet
facet normal -0.2934751213 0.243683666 -0.9243866205
outer loop
vertex -66.73636627 9.009361267 329.146698
vertex -66.74784088 9.466011047 329.2707214
vertex -66.08685303 9.067131042 328.955719

endloop
endfacet
facet normal -0.294705987 0.2417381555 -0.9245058298
outer loop
vertex -66.08685303 9.067131042 328.955719
vertex -66.74784088 9.466011047 329.2707214
vertex -66.08757019 9.526451111 329.0760498

endloop
endfacet
facet normal -0.2893901169 0.2421572953 -0.926074028
outer loop
vertex -66.08685303 9.067131042 328.955719
vertex -66.08757019 9.526451111 329.0760498
vertex -65.38253021 9.11113739 328.7471313

endloop
endfacet
facet normal -0.2915410995 0.2386853099 -0.9263007641
outer loop
vertex -65.38253021 9.11113739 328.7471313
vertex -66.08757019 9.526451111 329.0760498
vertex -65.36729431 9.571861267 328.8610535

endloop
endfacet
facet normal -0.2829196155 0.2390378863 -0.9288796186
outer loop
vertex -65.38253021 9.11113739 328.7471313
vertex -65.36729431 9.571861267 328.8610535
vertex -64.78330994 9.132072449 328.5700073

endloop
endfacet
facet normal -0.2840465009 0.2375641465 -0.9289138317
outer loop
vertex -64.78330994 9.132072449 328.5700073
vertex -65.36729431 9.571861267 328.8610535
vertex -64.76461792 9.593193054 328.6822205

endloop
endfacet
facet normal -0.2460409105 0.23858428 -0.9394367337
outer loop
vertex -64.78330994 9.132072449 328.5700073
vertex -64.76461792 9.593193054 328.6822205
vertex -64.20219421 9.143866539 328.4208069

endloop
endfacet
facet normal -0.2469730377 0.2374434024 -0.9394811988
outer loop
vertex -64.20219421 9.143866539 328.4208069
vertex -64.76461792 9.593193054 328.6822205
vertex -64.18421173 9.605110168 328.5326538

endloop
endfacet
facet normal -0.2068507969 0.2382351905 -0.9489240646
outer loop
vertex -64.20220184 9.143866539 328.4207764
vertex -64.18421173 9.605110168 328.5326538
vertex -63.61275482 9.15436554 328.2949219

endloop
endfacet
facet normal -0.2075373083 0.237396583 -0.9489843249
outer loop
vertex -63.61275482 9.15436554 328.2949219
vertex -64.18421173 9.605110168 328.5326538
vertex -63.59925079 9.615592957 328.4073486

endloop
endfacet
facet normal -0.174908638 0.2380017191 -0.9553859234
outer loop
vertex -63.61275482 9.15436554 328.2949219
vertex -63.59925079 9.615592957 328.4073486
vertex -63.00745392 9.167746544 328.187439

endloop
endfacet
facet normal -0.1753679961 0.2374239117 -0.9554454088
outer loop
vertex -63.00745392 9.167746544 328.187439
vertex -63.59925079 9.615592957 328.4073486
vertex -63.00017548 9.628868103 328.3006897

endloop
endfacet
facet normal -0.1582339257 0.2378480732 -0.9583268166
outer loop
vertex -63.00743866 9.167746544 328.1874695
vertex -63.00017548 9.628883362 328.3007202
vertex -62.39591217 9.186393738 328.0911255

endloop
endfacet
facet normal -0.1584194303 0.2376083732 -0.9583556652
outer loop
vertex -62.39591217 9.186393738 328.0911255
vertex -63.00017548 9.628883362 328.3007202
vertex -62.39380646 9.647407532 328.2050781

endloop
endfacet
facet normal -0.1623315364 0.2374726832 -0.957734406
outer loop
vertex -62.39591217 9.186393738 328.0911255
vertex -62.39380646 9.647407532 328.2050781
vertex -61.79012299 9.209602356 327.9942017

endloop
endfacet
facet normal -0.1620434821 0.2378485054 -0.9576899409
outer loop
vertex -61.79012299 9.209602356 327.9942017
vertex -62.39380646 9.647407532 328.2050781
vertex -61.78900909 9.670539856 328.10849

endloop
endfacet
facet normal -0.1864810884 0.2368632257 -0.9534780979
outer loop
vertex -61.79012299 9.209602356 327.9942017
vertex -61.78900909 9.670539856 328.10849
vertex -61.19501495 9.233177185 327.883667

endloop
endfacet
facet normal -0.1856464446 0.2379423678 -0.9533722997
outer loop
vertex -61.19501495 9.233177185 327.883667
vertex -61.78900909 9.670539856 328.10849
vertex -61.18909454 9.694129944 327.9975586

endloop
endfacet
facet normal -0.2195810229 0.2366684973 -0.9464524388
outer loop
vertex -61.19501495 9.233177185 327.883667
vertex -61.18909454 9.694129944 327.9975586
vertex -60.60895538 9.251899719 327.7523804

endloop
endfacet
facet normal -0.218676582 0.2378121614 -0.9463751316
outer loop
vertex -60.60895538 9.251899719 327.7523804
vertex -61.18909454 9.694129944 327.9975586
vertex -60.59436798 9.71295929 327.8648682

endloop
endfacet
facet normal -0.2464130074 0.237191394 -0.9396919012
outer loop
vertex -60.60894012 9.251930237 327.7523499
vertex -60.59435272 9.712974548 327.8648987
vertex -60.02616119 9.263008118 327.6023254

endloop
endfacet
facet normal -0.2458885312 0.2378384322 -0.9396657348
outer loop
vertex -60.02616119 9.263008118 327.6023254
vertex -60.59435272 9.712974548 327.8648987
vertex -60.00299835 9.724143982 327.7129822

endloop
endfacet
facet normal -0.2593936324 0.2376549542 -0.9360743165
outer loop
vertex -60.02616119 9.263008118 327.6023254
vertex -60.00299835 9.724143982 327.7129822
vertex -59.44835663 9.266929626 327.4432068

endloop
endfacet
facet normal -0.2592493594 0.2378277481 -0.9360703826
outer loop
vertex -59.44835663 9.266929626 327.4432068
vertex -60.00299835 9.724143982 327.7129822
vertex -59.41933441 9.728096008 327.5523376

endloop
endfacet
facet normal -0.2614504099 0.2378216833 -0.9354595542
outer loop
vertex -59.44835663 9.266929626 327.4432068
vertex -59.41933441 9.728096008 327.5523376
vertex -58.87340546 9.266517639 327.2824097

endloop
endfacet
facet normal -0.261423856 0.2378527373 -0.9354590178
outer loop
vertex -58.87340546 9.266517639 327.2824097
vertex -59.41933441 9.728096008 327.5523376
vertex -58.84192657 9.72743988 327.3908081

endloop
endfacet
facet normal -0.2330770344 0.2376819551 -0.9429647326
outer loop
vertex -58.87340546 9.266517639 327.2824097
vertex -58.84192657 9.72743988 327.3908081
vertex -58.30805206 9.265190125 327.142334

endloop
endfacet
facet normal -0.2330074906 0.2377608716 -0.9429619908
outer loop
vertex -58.30805206 9.265190125 327.142334
vertex -58.84192657 9.72743988 327.3908081
vertex -58.27840424 9.720039368 327.2496948

endloop
endfacet
facet normal -0.07891479135 0.2338765562 -0.969058454
outer loop
vertex -58.30805206 9.265190125 327.142334
vertex -58.27840424 9.720039368 327.2496948
vertex -57.81275177 9.271598816 327.1035461

endloop
endfacet
facet normal -0.07642620802 0.2363315374 -0.9686622024
outer loop
vertex -57.81275177 9.271598816 327.1035461
vertex -58.27840424 9.720039368 327.2496948
vertex -57.79099274 9.680779457 327.2016602

endloop
endfacet
facet normal -0.03081928194 0.2345445901 -0.971616745
outer loop
vertex -57.81276703 9.271598816 327.1035461
vertex -57.79097748 9.680779457 327.2016296
vertex -57.40645599 9.247871399 327.0849304

endloop
endfacet
facet normal -0.0657082051 0.2048922032 -0.9765764475
outer loop
vertex -57.40645599 9.247871399 327.0849304
vertex -57.79097748 9.680779457 327.2016296
vertex -57.39820099 9.594230652 327.1570435

endloop
endfacet
facet normal 0.7513432503 0.1173003614 -0.6494028568
outer loop
vertex -57.40645599 9.247871399 327.0849304
vertex -57.39820099 9.594230652 327.1570435
vertex -56.93289948 9.273658752 327.6374817

endloop
endfacet
facet normal -0.4752289951 0.4470605254 0.757822156
outer loop
vertex -56.93289948 9.273658752 327.6374817
vertex -57.39820099 9.594230652 327.1570435
vertex -56.93291473 9.27364254 327.6374817

endloop
endfacet
facet normal -0.8231343627 0.5513461828 0.1358940899
outer loop
vertex -67.57061005 8.989067078 330.2778931
vertex -67.57059479 8.989082336 330.2779236
vertex -67.47667694 9.295967102 329.6017151

endloop
endfacet
facet normal -0.9845268726 0.1637349725 -0.06243175641
outer loop
vertex -67.47667694 9.295967102 329.6017151
vertex -67.57059479 8.989082336 330.2779236
vertex -67.44719696 9.5626297 329.8361816

endloop
endfacet
facet normal -0.4808571339 0.6083449125 -0.6314213276
outer loop
vertex -67.47667694 9.295967102 329.6017151
vertex -67.44719696 9.5626297 329.8361816
vertex -67.17854309 9.383857727 329.4593506

endloop
endfacet
facet normal -0.4344401062 0.6535569429 -0.6197782159
outer loop
vertex -67.17854309 9.383857727 329.4593506
vertex -67.44719696 9.5626297 329.8361816
vertex -67.13537598 9.685951233 329.7476501

endloop
endfacet
facet normal -0.4031742513 0.6612939835 -0.6325668693
outer loop
vertex -67.17854309 9.383857727 329.4593506
vertex -67.13537598 9.685951233 329.7476501
vertex -66.74784088 9.466011047 329.2707214

endloop
endfacet
facet normal -0.3987124264 0.665566504 -0.6309117079
outer loop
vertex -66.74784088 9.466011047 329.2707214
vertex -67.13537598 9.685951233 329.7476501
vertex -66.69533539 9.795082092 329.5846863

endloop
endfacet
facet normal -0.2625182271 0.6876920462 -0.6768780351
outer loop
vertex -66.74784088 9.466011047 329.2707214
vertex -66.69533539 9.795082092 329.5846863
vertex -66.08757019 9.526451111 329.0760498

endloop
endfacet
facet normal -0.2635820508 0.6866003275 -0.6775724888
outer loop
vertex -66.08757019 9.526451111 329.0760498
vertex -66.69533539 9.795082092 329.5846863
vertex -66.02093506 9.858345032 329.3864441

endloop
endfacet
facet normal -0.2470817119 0.6878759861 -0.6824787855
outer loop
vertex -66.08757019 9.526451111 329.0760498
vertex -66.02093506 9.858345032 329.3864441
vertex -65.36729431 9.571861267 328.8610535

endloop
endfacet
facet normal -0.2497972101 0.6850590706 -0.6843211651
outer loop
vertex -65.36729431 9.571861267 328.8610535
vertex -66.02093506 9.858345032 329.3864441
vertex -65.28604889 9.905815125 329.1657104

endloop
endfacet
facet normal -0.2292248458 0.6858620644 -0.6906875968
outer loop
vertex -65.36729431 9.571861267 328.8610535
vertex -65.28604889 9.905815125 329.1657104
vertex -64.76461792 9.593193054 328.6822205

endloop
endfacet
facet normal -0.2305961698 0.6846806407 -0.6914026737
outer loop
vertex -64.76461792 9.593193054 328.6822205
vertex -65.28604889 9.905815125 329.1657104
vertex -64.6869812 9.927574158 328.9874573

endloop
endfacet
facet normal -0.1948376447 0.6855593324 -0.7014603615
outer loop
vertex -64.76461792 9.593193054 328.6822205
vertex -64.6869812 9.927574158 328.9874573
vertex -64.18421173 9.605110168 328.5326538

endloop
endfacet
facet normal -0.1957227886 0.6848326921 -0.7019236684
outer loop
vertex -64.18421173 9.605110168 328.5326538
vertex -64.6869812 9.927574158 328.9874573
vertex -64.11677551 9.939552307 328.8401489

endloop
endfacet
facet normal -0.1642478704 0.6853812337 -0.7094189525
outer loop
vertex -64.18421173 9.605110168 328.5326538
vertex -64.11676788 9.939552307 328.8401489
vertex -63.59925079 9.615592957 328.4073486

endloop
endfacet
facet normal -0.1648477167 0.684881568 -0.709762156
outer loop
vertex -63.59925079 9.615592957 328.4073486
vertex -64.11676788 9.939552307 328.8401489
vertex -63.54389191 9.950050354 328.7172241

endloop
endfacet
facet normal -0.1423453987 0.685290277 -0.7142233849
outer loop
vertex -63.59925079 9.615592957 328.4073486
vertex -63.54389191 9.950050354 328.7172241
vertex -63.00017548 9.628868103 328.3006897

endloop
endfacet
facet normal -0.1427635849 0.6849265695 -0.7144887447
outer loop
vertex -63.00017548 9.628868103 328.3006897
vertex -63.54389191 9.950050354 328.7172241
vertex -62.95632172 9.963264465 328.6124878

endloop
endfacet
facet normal -0.1338610947 0.6851775646 -0.7159699798
outer loop
vertex -63.00017548 9.628883362 328.3007202
vertex -62.95630646 9.963264465 328.6125183
vertex -62.39380646 9.647407532 328.2050781

endloop
endfacet
facet normal -0.1340371221 0.6850181818 -0.7160894871
outer loop
vertex -62.39380646 9.647407532 328.2050781
vertex -62.95630646 9.963264465 328.6125183
vertex -62.35668182 9.981697083 328.5179138

endloop
endfacet
facet normal -0.1403940618 0.6847888231 -0.7150899768
outer loop
vertex -62.39380646 9.647407532 328.2050781
vertex -62.35668182 9.981697083 328.5179138
vertex -61.78900909 9.670539856 328.10849

endloop
endfacet
facet normal -0.1401076019 0.6850526929 -0.7148934007
outer loop
vertex -61.78900909 9.670539856 328.10849
vertex -62.35668182 9.981697083 328.5179138
vertex -61.75002289 10.00475311 328.4211121

endloop
endfacet
facet normal -0.1585236043 0.684284687 -0.7117757201
outer loop
vertex -61.78900909 9.670539856 328.10849
vertex -61.75002289 10.00475311 328.4211121
vertex -61.18909454 9.694129944 327.9975586

endloop
endfacet
facet normal -0.1576752514 0.6850585341 -0.7112196684
outer loop
vertex -61.18909454 9.694129944 327.9975586
vertex -61.75002289 10.00475311 328.4211121
vertex -61.13951874 10.02835846 328.3085022

endloop
endfacet
facet normal -0.1793729663 0.6842264533 -0.7068659663
outer loop
vertex -61.18909454 9.694129944 327.9975586
vertex -61.13951874 10.02835846 328.3085022
vertex -60.59436798 9.71295929 327.8648682

endloop
endfacet
facet normal -0.1783753335 0.6851065159 -0.7062656879
outer loop
vertex -60.59436798 9.71295929 327.8648682
vertex -61.13951874 10.02835846 328.3085022
vertex -60.53011322 10.04730988 328.1729736

endloop
endfacet
facet normal -0.1934487224 0.6847010255 -0.7026820779
outer loop
vertex -60.59435272 9.712974548 327.8648987
vertex -60.53009796 10.04732513 328.1730042
vertex -60.00299835 9.724143982 327.7129822

endloop
endfacet
facet normal -0.1928425729 0.6852143407 -0.7023482323
outer loop
vertex -60.00299835 9.724143982 327.7129822
vertex -60.53009796 10.04732513 328.1730042
vertex -59.92639923 10.05857086 328.018219

endloop
endfacet
facet normal -0.1976021677 0.6851518154 -0.7010852695
outer loop
vertex -60.00299835 9.724143982 327.7129822
vertex -59.92639923 10.05857086 328.018219
vertex -59.41933441 9.728096008 327.5523376

endloop
endfacet
facet normal -0.1973447055 0.6853609085 -0.7009533644
outer loop
vertex -59.41933441 9.728096008 327.5523376
vertex -59.92639923 10.05857086 328.018219
vertex -59.33551788 10.06250763 327.8557129

endloop
endfacet
facet normal -0.195459336 0.685364306 -0.7014780641
outer loop
vertex -59.41933441 9.728096008 327.5523376
vertex -59.33551788 10.06250763 327.8557129
vertex -58.84192657 9.72743988 327.3908081

endloop
endfacet
facet normal -0.1954489797 0.6853724718 -0.7014729381
outer loop
vertex -58.84192657 9.72743988 327.3908081
vertex -59.33551788 10.06250763 327.8557129
vertex -58.75691986 10.06168365 327.6936951

endloop
endfacet
facet normal -0.1684755534 0.6850788593 -0.7087191343
outer loop
vertex -58.84192657 9.72743988 327.3908081
vertex -58.75691986 10.06168365 327.6936951
vertex -58.27840424 9.720039368 327.2496948

endloop
endfacet
facet normal -0.1682945937 0.6852160692 -0.7086296678
outer loop
vertex -58.27840424 9.720039368 327.2496948
vertex -58.75691986 10.06168365 327.6936951
vertex -58.19675446 10.04985809 327.5492249

endloop
endfacet
facet normal -0.01837578975 0.6746733785 -0.7378876805
outer loop
vertex -58.27840424 9.720039368 327.2496948
vertex -58.19675446 10.04985809 327.5492249
vertex -57.79099274 9.680779457 327.2016602

endloop
endfacet
facet normal -0.01883521117 0.6743959785 -0.7381296158
outer loop
vertex -57.79099274 9.680779457 327.2016602
vertex -58.19675446 10.04985809 327.5492249
vertex -57.71717072 9.977577209 327.4709473

endloop
endfacet
facet normal 0.06117975712 0.6623225212 -0.7467167974
outer loop
vertex -57.79097748 9.680779457 327.2016296
vertex -57.71717072 9.977561951 327.4709167
vertex -57.39820099 9.594230652 327.1570435

endloop
endfacet
facet normal 0.0110317599 0.6389669776 -0.7691550255
outer loop
vertex -57.39820099 9.594230652 327.1570435
vertex -57.71717072 9.977561951 327.4709167
vertex -57.33696747 9.850395203 327.3707275

endloop
endfacet
facet normal 0.7764753103 0.2837384045 -0.5626532435
outer loop
vertex -57.39820099 9.594230652 327.1570435
vertex -57.33696747 9.850395203 327.3707275
vertex -56.93291473 9.27364254 327.6374817

endloop
endfacet
facet normal 0.7481367588 0.2378680259 -0.6194435358
outer loop
vertex -56.93291473 9.27364254 327.6374817
vertex -57.33696747 9.850395203 327.3707275
vertex -56.93289948 9.273674011 327.6375122

endloop
endfacet
facet normal 0.9852529168 -0.1530403644 0.07652018219
outer loop
vertex -67.57059479 8.989082336 330.2779236
vertex -67.57059479 8.989067078 330.2778931
vertex -67.44719696 9.5626297 329.8361816

endloop
endfacet
facet normal -0.9695259333 0.2412819266 0.04245508462
outer loop
vertex -67.44719696 9.5626297 329.8361816
vertex -67.57059479 8.989067078 330.2778931
vertex -67.39433289 9.710746765 330.2016296

endloop
endfacet
facet normal -0.4217252731 0.8599281907 -0.2875263393
outer loop
vertex -67.44719696 9.5626297 329.8361816
vertex -67.39433289 9.710746765 330.2016296
vertex -67.13537598 9.685951233 329.7476501

endloop
endfacet
facet normal -0.3799127042 0.8862179518 -0.265111655
outer loop
vertex -67.13537598 9.685951233 329.7476501
vertex -67.39433289 9.710746765 330.2016296
vertex -67.05027771 9.851264954 330.1783142

endloop
endfacet
facet normal -0.3278691471 0.9018424749 -0.2813929617
outer loop
vertex -67.13537598 9.685951233 329.7476501
vertex -67.05027771 9.851264954 330.1783142
vertex -66.69533539 9.795082092 329.5846863

endloop
endfacet
facet normal -0.3186635971 0.9066892862 -0.2763474882
outer loop
vertex -66.69533539 9.795082092 329.5846863
vertex -67.05027771 9.851264954 330.1783142
vertex -66.58688354 9.97542572 330.0513306

endloop
endfacet
facet normal -0.1807120442 0.9308020473 -0.3177274168
outer loop
vertex -66.69533539 9.795082092 329.5846863
vertex -66.58688354 9.97542572 330.0513306
vertex -66.02093506 9.858345032 329.3864441

endloop
endfacet
facet normal -0.1817431748 0.9303296208 -0.3185218871
outer loop
vertex -66.02093506 9.858345032 329.3864441
vertex -66.58688354 9.97542572 330.0513306
vertex -65.89634705 10.04134369 329.8498535

endloop
endfacet
facet normal -0.1580247283 0.9321961403 -0.3256356716
outer loop
vertex -66.02093506 9.858345032 329.3864441
vertex -65.89634705 10.04134369 329.8498535
vertex -65.28604889 9.905815125 329.1657104

endloop
endfacet
facet normal -0.1612146646 0.9307512641 -0.3281950355
outer loop
vertex -65.28604889 9.905815125 329.1657104
vertex -65.89634705 10.04134369 329.8498535
vertex -65.14932251 10.09133053 329.6246643

endloop
endfacet
facet normal -0.1340617687 0.9319890738 -0.336784482
outer loop
vertex -65.28604889 9.905815125 329.1657104
vertex -65.14932251 10.09133053 329.6246643
vertex -64.6869812 9.927574158 328.9874573

endloop
endfacet
facet normal -0.1358361244 0.9313275218 -0.3379018605
outer loop
vertex -64.6869812 9.927574158 328.9874573
vertex -65.14932251 10.09133053 329.6246643
vertex -64.56022644 10.11356354 329.4491272

endloop
endfacet
facet normal -0.1088617966 0.9320468903 -0.3455976844
outer loop
vertex -64.6869812 9.927574158 328.9874573
vertex -64.56022644 10.11356354 329.4491272
vertex -64.11677551 9.939552307 328.8401489

endloop
endfacet
facet normal -0.1097776592 0.9317259789 -0.3461729288
outer loop
vertex -64.11677551 9.939552307 328.8401489
vertex -64.56022644 10.11356354 329.4491272
vertex -64.00834656 10.12555695 329.3063965

endloop
endfacet
facet normal -0.09226240963 0.9320530295 -0.3503781855
outer loop
vertex -64.11676788 9.939552307 328.8401489
vertex -64.00834656 10.12555695 329.3063965
vertex -63.54389191 9.950050354 328.7172241

endloop
endfacet
facet normal -0.09294366091 0.9318104386 -0.3508430123
outer loop
vertex -63.54389191 9.950050354 328.7172241
vertex -64.00834656 10.12555695 329.3063965
vertex -63.45371246 10.13605499 329.1873474

endloop
endfacet
facet normal -0.08382319659 0.9319885373 -0.352662921
outer loop
vertex -63.54389191 9.950050354 328.7172241
vertex -63.45371246 10.13605499 329.1873474
vertex -62.95632172 9.963264465 328.6124878

endloop
endfacet
facet normal -0.0844252035 0.9317626357 -0.3531159163
outer loop
vertex -62.95632172 9.963264465 328.6124878
vertex -63.45371246 10.13605499 329.1873474
vertex -62.88162994 10.14923859 329.0853577

endloop
endfacet
facet normal -0.08436315507 0.9317468405 -0.353172332
outer loop
vertex -62.95630646 9.963264465 328.6125183
vertex -62.88161469 10.14925385 329.0853577
vertex -62.35668182 9.981697083 328.5179138

endloop
endfacet
facet normal -0.08457887173 0.9316611886 -0.353346616
outer loop
vertex -62.35668182 9.981697083 328.5179138
vertex -62.88161469 10.14925385 329.0853577
vertex -62.28961945 10.16757965 328.9919739

endloop
endfacet
facet normal -0.09160577506 0.9314104319 -0.3522542417
outer loop
vertex -62.35668182 9.981697083 328.5179138
vertex -62.28961945 10.16757965 328.9919739
vertex -61.75002289 10.00475311 328.4211121

endloop
endfacet
facet normal -0.09121914953 0.9315693378 -0.351934135
outer loop
vertex -61.75002289 10.00475311 328.4211121
vertex -62.28961945 10.16757965 328.9919739
vertex -61.67856598 10.1905899 328.8945007

endloop
endfacet
facet normal -0.1006310284 0.9311915636 -0.3503651023
outer loop
vertex -61.75002289 10.00475311 328.4211121
vertex -61.67856598 10.1905899 328.8945007
vertex -61.13951874 10.02835846 328.3085022

endloop
endfacet
facet normal -0.09960702807 0.9316117764 -0.3495394886
outer loop
vertex -61.13951874 10.02835846 328.3085022
vertex -61.67856598 10.1905899 328.8945007
vertex -61.05290985 10.21422577 328.7792053

endloop
endfacet
facet normal -0.1063999012 0.9313651919 -0.348192215
outer loop
vertex -61.13951874 10.02835846 328.3085022
vertex -61.05290985 10.21422577 328.7792053
vertex -60.53011322 10.04730988 328.1729736

endloop
endfacet
facet normal -0.1052931994 0.9318023324 -0.3473581672
outer loop
vertex -60.53011322 10.04730988 328.1729736
vertex -61.05290985 10.21422577 328.7792053
vertex -60.42433929 10.23325253 328.6397095

endloop
endfacet
facet normal -0.1063539907 0.9317747951 -0.3471087813
outer loop
vertex -60.53009796 10.04732513 328.1730042
vertex -60.42432404 10.23326874 328.63974
vertex -59.92639923 10.05857086 328.018219

endloop
endfacet
facet normal -0.1057801694 0.9319888353 -0.3467091918
outer loop
vertex -59.92639923 10.05857086 328.018219
vertex -60.42432404 10.23326874 328.63974
vertex -59.80576324 10.24457645 328.4814148

endloop
endfacet
facet normal -0.1018497571 0.9320379496 -0.3477525413
outer loop
vertex -59.92639923 10.05857086 328.018219
vertex -59.80576324 10.24457645 328.4814148
vertex -59.33551788 10.06250763 327.8557129

endloop
endfacet
facet normal -0.101716198 0.932084918 -0.3476658165
outer loop
vertex -59.33551788 10.06250763 327.8557129
vertex -59.80576324 10.24457645 328.4814148
vertex -59.20705414 10.24851227 328.316803

endloop
endfacet
facet normal -0.09643818438 0.9320947528 -0.3491403461
outer loop
vertex -59.33551788 10.06250763 327.8557129
vertex -59.20705414 10.24851227 328.316803
vertex -58.75691986 10.06168365 327.6936951

endloop
endfacet
facet normal -0.09641798586 0.9321016073 -0.3491277993
outer loop
vertex -58.75691986 10.06168365 327.6936951
vertex -59.20705414 10.24851227 328.316803
vertex -58.62857819 10.24759674 328.1546021

endloop
endfacet
facet normal -0.07208614051 0.9317868948 -0.355776161
outer loop
vertex -58.75691986 10.06168365 327.6936951
vertex -58.62857819 10.24759674 328.1546021
vertex -58.19675446 10.04985809 327.5492249

endloop
endfacet
facet normal -0.07189095765 0.9318476319 -0.3556568027
outer loop
vertex -58.19675446 10.04985809 327.5492249
vertex -58.62857819 10.24759674 328.1546021
vertex -58.0729599 10.233284 328.0047913

endloop
endfacet
facet normal 0.07470172644 0.9178423882 -0.3898526132
outer loop
vertex -58.19675446 10.04985809 327.5492249
vertex -58.0729599 10.233284 328.0047913
vertex -57.71717072 9.977577209 327.4709473

endloop
endfacet
facet normal 0.07176816463 0.9173454046 -0.3915696442
outer loop
vertex -57.71717072 9.977577209 327.4709473
vertex -58.0729599 10.233284 328.0047913
vertex -57.60048676 10.14267731 327.8791199

endloop
endfacet
facet normal 0.1887015998 0.8904473186 -0.4141197801
outer loop
vertex -57.71717072 9.977561951 327.4709167
vertex -57.60048676 10.14267731 327.8791199
vertex -57.33696747 9.850395203 327.3707275

endloop
endfacet
facet normal 0.1479701102 0.8885960579 -0.4341681302
outer loop
vertex -57.33696747 9.850395203 327.3707275
vertex -57.60048676 10.14267731 327.8791199
vertex -57.22928619 9.99521637 327.7038269

endloop
endfacet
facet normal 0.8209487796 0.3766615093 -0.4291493297
outer loop
vertex -57.33696747 9.850395203 327.3707275
vertex -57.22928619 9.99521637 327.7038269
vertex -56.93289948 9.273674011 327.6375122

endloop
endfacet
facet normal -0.9250051379 -0.3799547255 0
outer loop
vertex -56.93289948 9.273674011 327.6375122
vertex -57.22928619 9.99521637 327.7038269
vertex -56.93289948 9.273674011 327.6374817

endloop
endfacet
facet normal 0.8994749784 -0.2570301592 -0.3533838391
outer loop
vertex -67.57059479 8.989067078 330.2778931
vertex -67.57060242 8.989082336 330.2778625
vertex -67.39433289 9.710746765 330.2016296

endloop
endfacet
facet normal -0.94602561 0.2525290549 0.2031373084
outer loop
vertex -67.39433289 9.710746765 330.2016296
vertex -67.57060242 8.989082336 330.2778625
vertex -67.33094025 9.630470276 330.5966492

endloop
endfacet
facet normal -0.3530035019 0.904209137 0.2404046953
outer loop
vertex -67.39433289 9.710746765 330.2016296
vertex -67.33094025 9.630470276 330.5966492
vertex -67.05027771 9.851264954 330.1783142

endloop
endfacet
facet normal -0.2729842365 0.9142464995 0.2993876338
outer loop
vertex -67.05027771 9.851264954 330.1783142
vertex -67.33094025 9.630470276 330.5966492
vertex -66.94283295 9.738929749 330.6193237

endloop
endfacet
facet normal -0.1751537919 0.9430260062 0.2828836441
outer loop
vertex -67.05027771 9.851264954 330.1783142
vertex -66.94283295 9.738929749 330.6193237
vertex -66.58688354 9.97542572 330.0513306

endloop
endfacet
facet normal -0.1629910171 0.94290483 0.2904553115
outer loop
vertex -66.58688354 9.97542572 330.0513306
vertex -66.94283295 9.738929749 330.6193237
vertex -66.44631958 9.853279114 330.5267334

endloop
endfacet
facet normal -0.01824515685 0.9670673013 0.2538659871
outer loop
vertex -66.58688354 9.97542572 330.0513306
vertex -66.44631958 9.853279114 330.5267334
vertex -65.89634705 10.04134369 329.8498535

endloop
endfacet
facet normal -0.01953028515 0.9672989249 0.2528861165
outer loop
vertex -65.89634705 10.04134369 329.8498535
vertex -66.44631958 9.853279114 330.5267334
vertex -65.744133 9.920433044 330.3240967

endloop
endfacet
facet normal 0.008788931184 0.9696364999 0.2443927377
outer loop
vertex -65.89634705 10.04134369 329.8498535
vertex -65.744133 9.920433044 330.3240967
vertex -65.14932251 10.09133053 329.6246643

endloop
endfacet
facet normal 0.00548400823 0.9703231454 0.2417499572
outer loop
vertex -65.14932251 10.09133053 329.6246643
vertex -65.744133 9.920433044 330.3240967
vertex -64.99421692 9.972466469 330.0982361

endloop
endfacet
facet normal 0.03280615807 0.9718772769 0.2331914008
outer loop
vertex -65.14932251 10.09133053 329.6246643
vertex -64.99421692 9.972466469 330.0982361
vertex -64.56022644 10.11356354 329.4491272

endloop
endfacet
facet normal 0.03109878488 0.9721903205 0.2321178913
outer loop
vertex -64.56022644 10.11356354 329.4491272
vertex -64.99421692 9.972466469 330.0982361
vertex -64.41986847 9.994926453 329.9272156

endloop
endfacet
facet normal 0.03836265579 0.9724239707 0.2300433218
outer loop
vertex -64.56022644 10.11356354 329.4491272
vertex -64.41986847 9.994926453 329.9272156
vertex -64.00834656 10.12555695 329.3063965

endloop
endfacet
facet normal 0.03732327744 0.972617507 0.2293950766
outer loop
vertex -64.00834656 10.12555695 329.3063965
vertex -64.41986847 9.994926453 329.9272156
vertex -63.8897934 10.00687408 329.7903137

endloop
endfacet
facet normal 0.03114611283 0.9724878669 0.2308620512
outer loop
vertex -64.00834656 10.12555695 329.3063965
vertex -63.8897934 10.00687408 329.7903442
vertex -63.45371246 10.13605499 329.1873474

endloop
endfacet
facet normal 0.0302553419 0.9726599455 0.2302547246
outer loop
vertex -63.45371246 10.13605499 329.1873474
vertex -63.8897934 10.00687408 329.7903442
vertex -63.35402679 10.01737213 329.6755981

endloop
endfacet
facet normal 0.0190378055 0.9724135995 0.2324851006
outer loop
vertex -63.45371246 10.13605499 329.1873474
vertex -63.35402679 10.01737213 329.6755981
vertex -62.88162994 10.14923859 329.0853577

endloop
endfacet
facet normal 0.01819306426 0.972582221 0.23184672
outer loop
vertex -62.88162994 10.14923859 329.0853577
vertex -63.35402679 10.01737213 329.6755981
vertex -62.79610443 10.03058624 329.5763855

endloop
endfacet
facet normal 0.006776348688 0.9722710848 0.2337581813
outer loop
vertex -62.88161469 10.14925385 329.0853577
vertex -62.79608917 10.03060246 329.5763855
vertex -62.28961945 10.16757965 328.9919739

endloop
endfacet
facet normal 0.006326930132 0.9723625183 0.2333901227
outer loop
vertex -62.28961945 10.16757965 328.9919739
vertex -62.79608917 10.03060246 329.5763855
vertex -62.20952606 10.04897308 329.4839478

endloop
endfacet
facet normal 0.0007580760284 0.9721757174 0.234251678
outer loop
vertex -62.28961945 10.16757965 328.9919739
vertex -62.20952606 10.04897308 329.4839478
vertex -61.67856598 10.1905899 328.8945007

endloop
endfacet
facet normal 0.001278098673 0.9720683694 0.2346943021
outer loop
vertex -61.67856598 10.1905899 328.8945007
vertex -62.20952606 10.04897308 329.4839478
vertex -61.59244537 10.07196808 329.3853455

endloop
endfacet
facet normal 0.006363553926 0.9722527266 0.233846575
outer loop
vertex -61.67856598 10.1905899 328.8945007
vertex -61.59244537 10.07196808 329.3853455
vertex -61.05290985 10.21422577 328.7792053

endloop
endfacet
facet normal 0.007451198995 0.97202456 0.2347611487
outer loop
vertex -61.05290985 10.21422577 328.7792053
vertex -61.59244537 10.07196808 329.3853455
vertex -60.95189667 10.09560394 329.2671509

endloop
endfacet
facet normal 0.02201841027 0.9724996686 0.2318609804
outer loop
vertex -61.05290985 10.21422577 328.7792053
vertex -60.95189667 10.09560394 329.2671509
vertex -60.42433929 10.23325253 328.6397095

endloop
endfacet
facet normal 0.02299266681 0.9722923636 0.2326346636
outer loop
vertex -60.42433929 10.23325253 328.6397095
vertex -60.95189667 10.09560394 329.2671509
vertex -60.30651093 10.11461639 329.1239014

endloop
endfacet
facet normal 0.04068012908 0.972715795 0.228405416
outer loop
vertex -60.42432404 10.23326874 328.63974
vertex -60.30649567 10.11464691 329.1239319
vertex -59.80576324 10.24457645 328.4814148

endloop
endfacet
facet normal 0.04113188758 0.9726186991 0.228737846
outer loop
vertex -59.80576324 10.24457645 328.4814148
vertex -60.30649567 10.11464691 329.1239319
vertex -59.67621613 10.12592316 328.9626465

endloop
endfacet
facet normal 0.05544770136 0.9727964401 0.2249278724
outer loop
vertex -59.80576324 10.24457645 328.4814148
vertex -59.67621613 10.12592316 328.9626465
vertex -59.20705414 10.24851227 328.316803

endloop
endfacet
facet normal 0.05556683242 0.9727708101 0.2250095308
outer loop
vertex -59.20705414 10.24851227 328.316803
vertex -59.67621613 10.12592316 328.9626465
vertex -59.07236481 10.12984467 328.7965698

endloop
endfacet
facet normal 0.06397101283 0.9727959037 0.2226563841
outer loop
vertex -59.20705414 10.24851227 328.316803
vertex -59.07236481 10.12984467 328.7965698
vertex -58.62857819 10.24759674 328.1546021

endloop
endfacet
facet normal 0.06398037821 0.9727938771 0.2226624936
outer loop
vertex -58.62857819 10.24759674 328.1546021
vertex -59.07236481 10.12984467 328.7965698
vertex -58.49584198 10.12899017 328.6346436

endloop
endfacet
facet normal 0.08360909671 0.9725456834 0.2171736211
outer loop
vertex -58.62857819 10.24759674 328.1546021
vertex -58.49584198 10.12899017 328.6346436
vertex -58.0729599 10.233284 328.0047913

endloop
endfacet
facet normal 0.08361770958 0.972543776 0.2171790898
outer loop
vertex -58.0729599 10.233284 328.0047913
vertex -58.49584198 10.12899017 328.6346436
vertex -57.94441986 10.11629486 328.479187

endloop
endfacet
facet normal 0.2298765481 0.9575651884 0.1738556474
outer loop
vertex -58.0729599 10.233284 328.0047913
vertex -57.94441986 10.11629486 328.479187
vertex -57.60048676 10.14267731 327.8791199

endloop
endfacet
facet normal 0.2246215492 0.9593387842 0.1709216982
outer loop
vertex -57.60048676 10.14267731 327.8791199
vertex -57.94441986 10.11629486 328.479187
vertex -57.47464752 10.0377121 328.302887

endloop
endfacet
facet normal 0.4089134037 0.9067242146 0.1031557322
outer loop
vertex -57.60048676 10.14267731 327.8791199
vertex -57.47464752 10.0377121 328.3029175
vertex -57.22928619 9.99521637 327.7038269

endloop
endfacet
facet normal 0.3343812227 0.9398134947 0.07028346509
outer loop
vertex -57.22928619 9.99521637 327.7038269
vertex -57.47464752 10.0377121 328.3029175
vertex -57.10189056 9.922966003 328.0638428

endloop
endfacet
facet normal 0.8906978369 0.3876971006 -0.2373777479
outer loop
vertex -57.22928619 9.99521637 327.7038269
vertex -57.10189056 9.922966003 328.0638428
vertex -56.93289948 9.273674011 327.6374817

endloop
endfacet
facet normal 0.9295023084 0 0.3688162863
outer loop
vertex -56.93289948 9.273674011 327.6374817
vertex -57.10189056 9.922966003 328.0638428
vertex -56.93289948 9.273658752 327.6374817

endloop
endfacet
facet normal -0.9275490642 0.1852888763 0.3245317042
outer loop
vertex -67.57060242 8.989082336 330.2778625
vertex -67.57059479 8.989067078 330.2778931
vertex -67.33094025 9.630470276 330.5966492

endloop
endfacet
facet normal -0.9284254909 0.1875055283 0.320730269
outer loop
vertex -67.33094025 9.630470276 330.5966492
vertex -67.57059479 8.989067078 330.2778931
vertex -67.27880859 9.383399963 330.8919983

endloop
endfacet
facet normal -0.2399686277 0.7233375907 0.6474547982
outer loop
vertex -67.33094025 9.630470276 330.5966492
vertex -67.27880859 9.383399963 330.8919983
vertex -66.94283295 9.738929749 330.6193237

endloop
endfacet
facet normal -0.1906495541 0.7044810057 0.6836367846
outer loop
vertex -66.94283295 9.738929749 330.6193237
vertex -67.27880859 9.383399963 330.8919983
vertex -66.85089874 9.455787659 330.9367371

endloop
endfacet
facet normal -0.04484339803 0.7390066385 0.6722040176
outer loop
vertex -66.94283295 9.738929749 330.6193237
vertex -66.85089874 9.455787659 330.9367371
vertex -66.44631958 9.853279114 330.5267334

endloop
endfacet
facet normal -0.03570917621 0.7348993421 0.6772354245
outer loop
vertex -66.44631958 9.853279114 330.5267334
vertex -66.85089874 9.455787659 330.9367371
vertex -66.32390594 9.545402527 330.8672791

endloop
endfacet
facet normal 0.1133350953 0.7569378614 0.6435838342
outer loop
vertex -66.44631958 9.853279114 330.5267334
vertex -66.32390594 9.545402527 330.8672791
vertex -65.744133 9.920433044 330.3240967

endloop
endfacet
facet normal 0.1117640883 0.7579825521 0.6426283717
outer loop
vertex -65.744133 9.920433044 330.3240967
vertex -66.32390594 9.545402527 330.8672791
vertex -65.61685944 9.61240387 330.6652832

endloop
endfacet
facet normal 0.138417244 0.7602404952 0.634724319
outer loop
vertex -65.744133 9.920433044 330.3240967
vertex -65.61685944 9.61240387 330.6652832
vertex -64.99421692 9.972466469 330.0982361

endloop
endfacet
facet normal 0.1354602724 0.7623567581 0.6328212023
outer loop
vertex -64.99421692 9.972466469 330.0982361
vertex -65.61685944 9.61240387 330.6652832
vertex -64.87174225 9.665489197 330.4418335

endloop
endfacet
facet normal 0.1566543728 0.763609767 0.6263860464
outer loop
vertex -64.99421692 9.972466469 330.0982361
vertex -64.87174225 9.665489197 330.4418335
vertex -64.41986847 9.994926453 329.9272156

endloop
endfacet
facet normal 0.155284673 0.7644396424 0.6257146001
outer loop
vertex -64.41986847 9.994926453 329.9272156
vertex -64.87174225 9.665489197 330.4418335
vertex -64.31124115 9.687919617 330.2753296

endloop
endfacet
facet normal 0.1451196373 0.7640885115 0.6285769343
outer loop
vertex -64.41986847 9.994926453 329.9272156
vertex -64.31124115 9.687919617 330.2753296
vertex -63.8897934 10.00687408 329.7903137

endloop
endfacet
facet normal 0.1439413726 0.7647793889 0.628007412
outer loop
vertex -63.8897934 10.00687408 329.7903137
vertex -64.31124115 9.687919617 330.2753296
vertex -63.79901886 9.699821472 330.1434326

endloop
endfacet
facet normal 0.120703049 0.7642674446 0.6335029602
outer loop
vertex -63.8897934 10.00687408 329.7903442
vertex -63.79901886 9.699836731 330.1434631
vertex -63.35402679 10.01737213 329.6755981

endloop
endfacet
facet normal 0.1196436808 0.7649081945 0.6329303384
outer loop
vertex -63.35402679 10.01737213 329.6755981
vertex -63.79901886 9.699836731 330.1434631
vertex -63.27696991 9.710350037 330.032074

endloop
endfacet
facet normal 0.09529854357 0.7643539906 0.6377155185
outer loop
vertex -63.35402679 10.01737213 329.6755981
vertex -63.27696991 9.710350037 330.032074
vertex -62.79610443 10.03058624 329.5763855

endloop
endfacet
facet normal 0.09449512511 0.7648626566 0.6372251511
outer loop
vertex -62.79610443 10.03058624 329.5763855
vertex -63.27696991 9.710350037 330.032074
vertex -62.72801971 9.723609924 329.9347534

endloop
endfacet
facet normal 0.07694014162 0.7643991709 0.6401360631
outer loop
vertex -62.79608917 10.03060246 329.5763855
vertex -62.72801971 9.723640442 329.9347534
vertex -62.20952606 10.04897308 329.4839478

endloop
endfacet
facet normal 0.07650268823 0.7646889687 0.6398421526
outer loop
vertex -62.20952606 10.04897308 329.4839478
vertex -62.72801971 9.723640442 329.9347534
vertex -62.14363861 9.742088318 329.8428345

endloop
endfacet
facet normal 0.07381408662 0.7646022439 0.6402615905
outer loop
vertex -62.20952606 10.04897308 329.4839478
vertex -62.14363861 9.742088318 329.8428345
vertex -61.59244537 10.07196808 329.3853455

endloop
endfacet
facet normal 0.07423923165 0.7643091083 0.6405624151
outer loop
vertex -61.59244537 10.07196808 329.3853455
vertex -62.14363861 9.742088318 329.8428345
vertex -61.52106476 9.765174866 329.7431335

endloop
endfacet
facet normal 0.0894972682 0.7648398876 0.6379734874
outer loop
vertex -61.59244537 10.07196808 329.3853455
vertex -61.52106476 9.765174866 329.7431335
vertex -60.95189667 10.09560394 329.2671509

endloop
endfacet
facet normal 0.09046675265 0.764154911 0.6386572719
outer loop
vertex -60.95189667 10.09560394 329.2671509
vertex -61.52106476 9.765174866 329.7431335
vertex -60.87032318 9.788780212 329.6227112

endloop
endfacet
facet normal 0.1179849505 0.7650278211 0.6330972314
outer loop
vertex -60.95189667 10.09560394 329.2671509
vertex -60.87032318 9.788780212 329.6227112
vertex -60.30651093 10.11461639 329.1239014

endloop
endfacet
facet normal 0.1188421175 0.7644209266 0.6336696744
outer loop
vertex -60.30651093 10.11461639 329.1239014
vertex -60.87032318 9.788780212 329.6227112
vertex -60.21477509 9.807685852 329.4769592

endloop
endfacet
facet normal 0.1467475295 0.7651055455 0.6269599199
outer loop
vertex -60.30649567 10.11464691 329.1239319
vertex -60.21475983 9.80771637 329.4770203
vertex -59.67621613 10.12592316 328.9626465

endloop
endfacet
facet normal 0.1471863985 0.7647996545 0.6272301674
outer loop
vertex -59.67621613 10.12592316 328.9626465
vertex -60.21475983 9.80771637 329.4770203
vertex -59.57862091 9.818916321 329.3140869

endloop
endfacet
facet normal 0.1661483794 0.765042901 0.6221768856
outer loop
vertex -59.67621613 10.12592316 328.9626465
vertex -59.57862091 9.818916321 329.3140869
vertex -59.07236481 10.12984467 328.7965698

endloop
endfacet
facet normal 0.1662268639 0.7649895549 0.6222215295
outer loop
vertex -59.07236481 10.12984467 328.7965698
vertex -59.57862091 9.818916321 329.3140869
vertex -58.9731369 9.822853088 329.1474915

endloop
endfacet
facet normal 0.1751916856 0.7650229931 0.619715929
outer loop
vertex -59.07236481 10.12984467 328.7965698
vertex -58.9731369 9.822853088 329.1474915
vertex -58.49584198 10.12899017 328.6346436

endloop
endfacet
facet normal 0.1752687097 0.7649718523 0.6197571158
outer loop
vertex -58.49584198 10.12899017 328.6346436
vertex -58.9731369 9.822853088 329.1474915
vertex -58.39933014 9.822151184 328.986084

endloop
endfacet
facet normal 0.1910659969 0.7648072839 0.6152752042
outer loop
vertex -58.49584198 10.12899017 328.6346436
vertex -58.39933014 9.822151184 328.986084
vertex -57.94441986 10.11629486 328.479187

endloop
endfacet
facet normal 0.1912038922 0.76471591 0.6153458953
outer loop
vertex -57.94441986 10.11629486 328.479187
vertex -58.39933014 9.822151184 328.986084
vertex -57.85057831 9.813499451 328.8263245

endloop
endfacet
facet normal 0.3379748464 0.7526108623 0.5651105046
outer loop
vertex -57.94441986 10.11629486 328.479187
vertex -57.85057831 9.813499451 328.8263245
vertex -57.47464752 10.0377121 328.302887

endloop
endfacet
facet normal 0.3335468173 0.7559053898 0.5633414984
outer loop
vertex -57.47464752 10.0377121 328.302887
vertex -57.85057831 9.813499451 328.8263245
vertex -57.37949371 9.765312195 328.6120605

endloop
endfacet
facet normal 0.5203796625 0.7137548327 0.4687846303
outer loop
vertex -57.47464752 10.0377121 328.3029175
vertex -57.37949371 9.765296936 328.6120605
vertex -57.10189056 9.922966003 328.0638428

endloop
endfacet
facet normal 0.4809283912 0.7473394275 0.4584666193
outer loop
vertex -57.10189056 9.922966003 328.0638428
vertex -57.37949371 9.765296936 328.6120605
vertex -56.9980545 9.691078186 328.3329163

endloop
endfacet
facet normal 0.9456477761 0.3102024198 -0.09759481996
outer loop
vertex -57.10189056 9.922966003 328.0638428
vertex -56.9980545 9.691078186 328.3329163
vertex -56.93289948 9.273658752 327.6374817

endloop
endfacet
facet normal 0.988056004 0.1540951878 0
outer loop
vertex -56.93289948 9.273658752 327.6374817
vertex -56.9980545 9.691078186 328.3329163
vertex -56.93289948 9.273658752 327.6375122

endloop
endfacet
facet normal 0 0.8414582014 -0.540322125
outer loop
vertex -67.57059479 8.989067078 330.2778931
vertex -67.57060242 8.989067078 330.2778931
vertex -67.27880859 9.383399963 330.8919983

endloop
endfacet
facet normal -0.9189727902 0.07808442414 0.3865124881
outer loop
vertex -67.27880859 9.383399963 330.8919983
vertex -67.57060242 8.989067078 330.2778931
vertex -67.2504425 9.069343567 331.0228882

endloop
endfacet
facet normal -0.1580122411 0.3676716685 0.9164330959
outer loop
vertex -67.27880859 9.383399963 330.8919983
vertex -67.2504425 9.069343567 331.0228882
vertex -66.85089874 9.455787659 330.9367371

endloop
endfacet
facet normal -0.1523683518 0.3625071049 0.9194414616
outer loop
vertex -66.85089874 9.455787659 330.9367371
vertex -67.2504425 9.069343567 331.0228882
vertex -66.79503632 9.121665955 331.0777283

endloop
endfacet
facet normal 0.05352491513 0.3958049417 0.9167733788
outer loop
vertex -66.85089874 9.455787659 330.9367371
vertex -66.79503632 9.121665955 331.0777283
vertex -66.32390594 9.545402527 330.8672791

endloop
endfacet
facet normal 0.05843885243 0.3911779821 0.9184578061
outer loop
vertex -66.32390594 9.545402527 330.8672791
vertex -66.79503632 9.121665955 331.0777283
vertex -66.24763489 9.1823349 331.0170593

endloop
endfacet
facet normal 0.2142833322 0.4106350243 0.8862627149
outer loop
vertex -66.32390594 9.545402527 330.8672791
vertex -66.24763489 9.1823349 331.0170593
vertex -65.61685944 9.61240387 330.6652832

endloop
endfacet
facet normal 0.2127739489 0.4124548733 0.8857811093
outer loop
vertex -65.61685944 9.61240387 330.6652832
vertex -66.24763489 9.1823349 331.0170593
vertex -65.54204559 9.248146057 330.816925

endloop
endfacet
facet normal 0.2342377007 0.4142505825 0.8795050979
outer loop
vertex -65.61685944 9.61240387 330.6652832
vertex -65.54204559 9.248146057 330.816925
vertex -64.87174225 9.665489197 330.4418335

endloop
endfacet
facet normal 0.2319376022 0.4172275364 0.8787071705
outer loop
vertex -64.87174225 9.665489197 330.4418335
vertex -65.54204559 9.248146057 330.816925
vertex -64.80612946 9.301292419 330.5974426

endloop
endfacet
facet normal 0.2433085442 0.4178359509 0.8753365278
outer loop
vertex -64.87174225 9.665489197 330.4418335
vertex -64.80612946 9.301292419 330.5974426
vertex -64.31124115 9.687919617 330.2753296

endloop
endfacet
facet normal 0.2422666401 0.418961972 0.8750873208
outer loop
vertex -64.31124115 9.687919617 330.2753296
vertex -64.80612946 9.301292419 330.5974426
vertex -64.25513458 9.323570251 330.4342346

endloop
endfacet
facet normal 0.217394948 0.4181404114 0.8819853067
outer loop
vertex -64.31124115 9.687919617 330.2753296
vertex -64.25513458 9.323570251 330.4342346
vertex -63.79901886 9.699821472 330.1434326

endloop
endfacet
facet normal 0.2162301391 0.4193352759 0.8817043304
outer loop
vertex -63.79901886 9.699821472 330.1434326
vertex -64.25513458 9.323570251 330.4342346
vertex -63.75305939 9.335395813 330.305481

endloop
endfacet
facet normal 0.1814579964 0.418435812 0.8899350166
outer loop
vertex -63.79901886 9.699836731 330.1434631
vertex -63.75307465 9.335395813 330.3054504
vertex -63.27696991 9.710350037 330.032074

endloop
endfacet
facet normal 0.1805345863 0.4194106758 0.8896639943
outer loop
vertex -63.27696991 9.710350037 330.032074
vertex -63.75307465 9.335395813 330.3054504
vertex -63.23726654 9.34589386 330.1958313

endloop
endfacet
facet normal 0.1487071514 0.4187250435 0.8958546519
outer loop
vertex -63.27696991 9.710350037 330.032074
vertex -63.23726654 9.34589386 330.1958313
vertex -62.72801971 9.723609924 329.9347534

endloop
endfacet
facet normal 0.1480817944 0.4194162786 0.89563483
outer loop
vertex -62.72801971 9.723609924 329.9347534
vertex -63.23726654 9.34589386 330.1958313
vertex -62.69107819 9.3592453 330.0992737

endloop
endfacet
facet normal 0.1281689107 0.4189397097 0.898922801
outer loop
vertex -62.72801971 9.723640442 329.9347534
vertex -62.69107819 9.359260559 330.0993042
vertex -62.14363861 9.742088318 329.8428345

endloop
endfacet
facet normal 0.127926439 0.4192215502 0.8988259435
outer loop
vertex -62.14363861 9.742088318 329.8428345
vertex -62.69107819 9.359260559 330.0993042
vertex -62.10588837 9.377831459 330.0073547

endloop
endfacet
facet normal 0.1283829659 0.419236362 0.8987538815
outer loop
vertex -62.14363861 9.742088318 329.8428345
vertex -62.10588837 9.377831459 330.0073547
vertex -61.52106476 9.765174866 329.7431335

endloop
endfacet
facet normal 0.1287284344 0.4188150764 0.8989009857
outer loop
vertex -61.52106476 9.765174866 329.7431335
vertex -62.10588837 9.377831459 330.0073547
vertex -61.47971344 9.400993347 329.9068909

endloop
endfacet
facet normal 0.1504320502 0.4195966125 0.8951585293
outer loop
vertex -61.52106476 9.765174866 329.7431335
vertex -61.47971344 9.400993347 329.9068909
vertex -60.87032318 9.788780212 329.6227112

endloop
endfacet
facet normal 0.1511812806 0.4186510742 0.8954749703
outer loop
vertex -60.87032318 9.788780212 329.6227112
vertex -61.47971344 9.400993347 329.9068909
vertex -60.82492828 9.424598694 329.7853088

endloop
endfacet
facet normal 0.185433194 0.4197949767 0.8884744048
outer loop
vertex -60.87032318 9.788780212 329.6227112
vertex -60.82492828 9.424598694 329.7853088
vertex -60.21477509 9.807685852 329.4769592

endloop
endfacet
facet normal 0.1861635 0.4188628495 0.8887614608
outer loop
vertex -60.21477509 9.807685852 329.4769592
vertex -60.82492828 9.424598694 329.7853088
vertex -60.16687775 9.443398476 329.6386108

endloop
endfacet
facet normal 0.2182762027 0.4196318984 0.8810587525
outer loop
vertex -60.21475983 9.80771637 329.4770203
vertex -60.16686249 9.443398476 329.6386719
vertex -59.57862091 9.818916321 329.3140869

endloop
endfacet
facet normal 0.2185658514 0.4192664921 0.8811609149
outer loop
vertex -59.57862091 9.818916321 329.3140869
vertex -60.16686249 9.443398476 329.6386719
vertex -59.53070831 9.454521179 329.4755859

endloop
endfacet
facet normal 0.2382740229 0.4195308983 0.8759105206
outer loop
vertex -59.57862091 9.818916321 329.3140869
vertex -59.53070831 9.454521179 329.4755859
vertex -58.9731369 9.822853088 329.1474915

endloop
endfacet
facet normal 0.2383531034 0.4194335341 0.8759355545
outer loop
vertex -58.9731369 9.822853088 329.1474915
vertex -59.53070831 9.454521179 329.4755859
vertex -58.92661285 9.458442688 329.3093262

endloop
endfacet
facet normal 0.2462850213 0.4194640219 0.8737239838
outer loop
vertex -58.9731369 9.822853088 329.1474915
vertex -58.92661285 9.458442688 329.3093262
vertex -58.39933014 9.822151184 328.986084

endloop
endfacet
facet normal 0.246378392 0.41935274 0.8737511039
outer loop
vertex -58.39933014 9.822151184 328.986084
vertex -58.92661285 9.458442688 329.3093262
vertex -58.35540009 9.457939148 329.1484985

endloop
endfacet
facet normal 0.2598615289 0.4192544222 0.8698837161
outer loop
vertex -58.39933014 9.822151184 328.986084
vertex -58.35540009 9.457939148 329.1484985
vertex -57.85057831 9.813499451 328.8263245

endloop
endfacet
facet normal 0.259942174 0.4191595614 0.8699053526
outer loop
vertex -57.85057831 9.813499451 328.8263245
vertex -58.35540009 9.457939148 329.1484985
vertex -57.80748749 9.454078674 328.9866333

endloop
endfacet
facet normal 0.4118404984 0.4119186699 0.8128409386
outer loop
vertex -57.85057831 9.813499451 328.8263245
vertex -57.80748749 9.454078674 328.9866333
vertex -57.37949371 9.765312195 328.6120605

endloop
endfacet
facet normal 0.4094390273 0.4148728848 0.8125516176
outer loop
vertex -57.37949371 9.765312195 328.6120605
vertex -57.80748749 9.454078674 328.9866333
vertex -57.33252716 9.441566467 328.7536926

endloop
endfacet
facet normal 0.5915333629 0.3936864436 0.7036328912
outer loop
vertex -57.37949371 9.765296936 328.6120605
vertex -57.3325119 9.441566467 328.7536926
vertex -56.9980545 9.691078186 328.3329163

endloop
endfacet
facet normal 0.5922612548 0.3926524222 0.7035983801
outer loop
vertex -56.9980545 9.691078186 328.3329163
vertex -57.3325119 9.441566467 328.7536926
vertex -56.94268036 9.393791199 328.4522095

endloop
endfacet
facet normal 0.9840117693 0.1775232702 -0.01436337084
outer loop
vertex -56.9980545 9.691078186 328.3329163
vertex -56.94268036 9.393791199 328.4522095
vertex -56.93289948 9.273658752 327.6375122

endloop
endfacet
facet normal -0.9967246652 -0.08087015152 0
outer loop
vertex -56.93289948 9.273658752 327.6375122
vertex -56.94268036 9.393791199 328.4522095
vertex -56.93289948 9.273658752 327.6374817

endloop
endfacet
facet normal -nan(ind) -nan(ind) -nan(ind)
outer loop
vertex -67.57060242 8.989067078 330.2778931
vertex -67.57060242 8.989067078 330.2778931
vertex -67.2504425 9.069343567 331.0228882

endloop
endfacet
facet normal -0.916064918 -0.04487016052 0.3985117376
outer loop
vertex -67.2504425 9.069343567 331.0228882
vertex -67.57060242 8.989067078 330.2778931
vertex -67.24578857 8.750450134 330.9976807

endloop
endfacet
facet normal -0.1101182774 -0.07991879433 0.9907002449
outer loop
vertex -67.2504425 9.069343567 331.0228882
vertex -67.24578857 8.750450134 330.9976807
vertex -66.79503632 9.121665955 331.0777283

endloop
endfacet
facet normal -0.1266300529 -0.05975032225 0.9901488423
outer loop
vertex -66.79503632 9.121665955 331.0777283
vertex -67.24578857 8.750450134 330.9976807
vertex -66.77386475 8.770835876 331.0592651

endloop
endfacet
facet normal 0.114999868 -0.04528359696 0.9923328757
outer loop
vertex -66.79503632 9.121665955 331.0777283
vertex -66.77386475 8.770835876 331.0592651
vertex -66.24763489 9.1823349 331.0170593

endloop
endfacet
facet normal 0.1171388999 -0.04805807024 0.9919520617
outer loop
vertex -66.24763489 9.1823349 331.0170593
vertex -66.77386475 8.770835876 331.0592651
vertex -66.21607208 8.800697327 330.9948425

endloop
endfacet
facet normal 0.2755861878 -0.03313488513 0.9607051015
outer loop
vertex -66.24763489 9.1823349 331.0170593
vertex -66.21607208 8.800697327 330.9948425
vertex -65.54204559 9.248146057 330.816925

endloop
endfacet
facet normal 0.2743156552 -0.03104868159 0.9611383677
outer loop
vertex -65.54204559 9.248146057 330.816925
vertex -66.21607208 8.800697327 330.9948425
vertex -65.51712799 8.864631653 330.7974243

endloop
endfacet
facet normal 0.2876629829 -0.02998439223 0.9572622776
outer loop
vertex -65.54204559 9.248146057 330.816925
vertex -65.51712799 8.864631653 330.7974243
vertex -64.80612946 9.301292419 330.5974426

endloop
endfacet
facet normal 0.2858430743 -0.02672739513 0.9579036832
outer loop
vertex -64.80612946 9.301292419 330.5974426
vertex -65.51712799 8.864631653 330.7974243
vertex -64.79338074 8.917015076 330.5829163

endloop
endfacet
facet normal 0.2849018872 -0.02676916122 0.9581828713
outer loop
vertex -64.80612946 9.301292419 330.5974426
vertex -64.79338074 8.917015076 330.5829163
vertex -64.25513458 9.323570251 330.4342346

endloop
endfacet
facet normal 0.2839518189 -0.02539457381 0.958502233
outer loop
vertex -64.25513458 9.323570251 330.4342346
vertex -64.79338074 8.917015076 330.5829163
vertex -64.24749756 8.939002991 330.4217834

endloop
endfacet
facet normal 0.2489019781 -0.02640361153 0.9681687355
outer loop
vertex -64.25513458 9.323570251 330.4342346
vertex -64.24749756 8.939002991 330.4217834
vertex -63.75305939 9.335395813 330.305481

endloop
endfacet
facet normal 0.2480958104 -0.02532892302 0.9684042931
outer loop
vertex -63.75305939 9.335395813 330.305481
vertex -64.24749756 8.939002991 330.4217834
vertex -63.74837494 8.950737 330.29422

endloop
endfacet
facet normal 0.2083116919 -0.02592271566 0.9777189493
outer loop
vertex -63.75307465 9.335395813 330.3054504
vertex -63.74837494 8.950737 330.2942505
vertex -63.23726654 9.34589386 330.1958313

endloop
endfacet
facet normal 0.2077022791 -0.02509687282 0.9778700471
outer loop
vertex -63.23726654 9.34589386 330.1958313
vertex -63.74837494 8.950737 330.2942505
vertex -63.23201752 8.961265564 330.184845

endloop
endfacet
facet normal 0.1746373475 -0.02573166974 0.9842965007
outer loop
vertex -63.23726654 9.34589386 330.1958313
vertex -63.23201752 8.961265564 330.184845
vertex -62.69107819 9.3592453 330.0992737

endloop
endfacet
facet normal 0.174234584 -0.02516575344 0.9843825698
outer loop
vertex -62.69107819 9.3592453 330.0992737
vertex -63.23201752 8.961265564 330.184845
vertex -62.68317413 8.97467804 330.0880432

endloop
endfacet
facet normal 0.15596582 -0.02562919259 0.9874299169
outer loop
vertex -62.69107819 9.359260559 330.0993042
vertex -62.68317413 8.97467804 330.0880737
vertex -62.10588837 9.377831459 330.0073547

endloop
endfacet
facet normal 0.1557722688 -0.0253444761 0.9874677658
outer loop
vertex -62.10588837 9.377831459 330.0073547
vertex -62.68317413 8.97467804 330.0880737
vertex -62.09473419 8.993370056 329.9957275

endloop
endfacet
facet normal 0.159273833 -0.02522607706 0.9869120717
outer loop
vertex -62.10588837 9.377831459 330.0073547
vertex -62.09473419 8.993370056 329.9957275
vertex -61.47971344 9.400993347 329.9068909

endloop
endfacet
facet normal 0.159459427 -0.02551423199 0.9868747592
outer loop
vertex -61.47971344 9.400993347 329.9068909
vertex -62.09473419 8.993370056 329.9957275
vertex -61.4668045 9.016593933 329.8948669

endloop
endfacet
facet normal 0.1833632439 -0.02458209358 0.9827378392
outer loop
vertex -61.47971344 9.400993347 329.9068909
vertex -61.4668045 9.016593933 329.8948669
vertex -60.82492828 9.424598694 329.7853088

endloop
endfacet
facet normal 0.1839997172 -0.02562249824 0.9825922251
outer loop
vertex -60.82492828 9.424598694 329.7853088
vertex -61.4668045 9.016593933 329.8948669
vertex -60.81343842 9.040154457 329.7731323

endloop
endfacet
facet normal 0.2181857973 -0.02437938191 0.9756026268
outer loop
vertex -60.82492828 9.424598694 329.7853088
vertex -60.81343842 9.040154457 329.7731323
vertex -60.16687775 9.443398476 329.6386108

endloop
endfacet
facet normal 0.2188864499 -0.025565302 0.9754154086
outer loop
vertex -60.16687775 9.443398476 329.6386108
vertex -60.81343842 9.040154457 329.7731323
vertex -60.15956879 9.058860779 329.6268921

endloop
endfacet
facet normal 0.2486628443 -0.02485943213 0.9682710767
outer loop
vertex -60.16686249 9.443398476 329.6386719
vertex -60.15955353 9.058876038 329.6269226
vertex -59.53070831 9.454521179 329.4755859

endloop
endfacet
facet normal 0.2490444481 -0.02550999634 0.9681560397
outer loop
vertex -59.53070831 9.454521179 329.4755859
vertex -60.15955353 9.058876038 329.6269226
vertex -59.5283432 9.069923401 329.4648438

endloop
endfacet
facet normal 0.2654223144 -0.0252876468 0.9638005495
outer loop
vertex -59.53070831 9.454521179 329.4755859
vertex -59.5283432 9.069923401 329.4648438
vertex -58.92661285 9.458442688 329.3093262

endloop
endfacet
facet normal 0.2655388415 -0.02548304945 0.9637632966
outer loop
vertex -58.92661285 9.458442688 329.3093262
vertex -59.5283432 9.069923401 329.4648438
vertex -58.9280777 9.07384491 329.2995605

endloop
endfacet
facet normal 0.2709086835 -0.02546553686 0.9622681737
outer loop
vertex -58.92661285 9.458442688 329.3093262
vertex -58.9280777 9.07384491 329.2995605
vertex -58.35540009 9.457939148 329.1484985

endloop
endfacet
facet normal 0.2709010243 -0.02545316704 0.9622706175
outer loop
vertex -58.35540009 9.457939148 329.1484985
vertex -58.9280777 9.07384491 329.2995605
vertex -58.35910797 9.073509216 329.1393738

endloop
endfacet
facet normal 0.2830599248 -0.02548718639 0.9587635398
outer loop
vertex -58.35540009 9.457939148 329.1484985
vertex -58.35910797 9.073509216 329.1393738
vertex -57.80748749 9.454078674 328.9866333

endloop
endfacet
facet normal 0.2831522226 -0.02563350275 0.9587323666
outer loop
vertex -57.80748749 9.454078674 328.9866333
vertex -58.35910797 9.073509216 329.1393738
vertex -57.81041718 9.074729919 328.977356

endloop
endfacet
facet normal 0.4396555424 -0.02535221912 0.8978086114
outer loop
vertex -57.80748749 9.454078674 328.9866333
vertex -57.81041718 9.074729919 328.977356
vertex -57.33252716 9.441566467 328.7536926

endloop
endfacet
facet normal 0.4387045801 -0.02380411141 0.8983159661
outer loop
vertex -57.33252716 9.441566467 328.7536926
vertex -57.81041718 9.074729919 328.977356
vertex -57.32975006 9.100028992 328.7432861

endloop
endfacet
facet normal 0.6101722121 -0.01927041262 0.7920344472
outer loop
vertex -57.3325119 9.441566467 328.7536926
vertex -57.32975006 9.10004425 328.7432556
vertex -56.94268036 9.393791199 328.4522095

endloop
endfacet
facet normal 0.6220609546 -0.04521296918 0.7816622853
outer loop
vertex -56.94268036 9.393791199 328.4522095
vertex -57.32975006 9.10004425 328.7432556
vertex -56.93613434 9.090263367 328.4294434

endloop
endfacet
facet normal 0.9997419119 0.02089173719 0.008921488188
outer loop
vertex -56.94268036 9.393791199 328.4522095
vertex -56.93613434 9.090263367 328.4294434
vertex -56.93289948 9.273658752 327.6374817

endloop
endfacet
facet normal -nan(ind) -nan(ind) -nan(ind)
outer loop
vertex -56.93289948 9.273658752 327.6374817
vertex -56.93613434 9.090263367 328.4294434
vertex -56.93289948 9.273658752 327.6374817

endloop
endfacet
facet normal -nan(ind) -nan(ind) -nan(ind)
outer loop
vertex -67.57060242 8.989067078 330.2778931
vertex -67.57060242 8.989067078 330.2778931
vertex -67.24578857 8.750450134 330.9976807

endloop
endfacet
facet normal -0.9186214209 -0.1581264138 0.3621197641
outer loop
vertex -67.24578857 8.750450134 330.9976807
vertex -67.57060242 8.989067078 330.2778931
vertex -67.26454926 8.465065002 330.82547

endloop
endfacet
facet normal -0.0895781666 -0.5102546215 0.8553454876
outer loop
vertex -67.24578857 8.750450134 330.9976807
vertex -67.26454926 8.465065002 330.82547
vertex -66.77386475 8.770835876 331.0592651

endloop
endfacet
facet normal -0.1201794595 -0.4740702212 0.8722466826
outer loop
vertex -66.77386475 8.770835876 331.0592651
vertex -67.26454926 8.465065002 330.82547
vertex -66.79129791 8.433921814 330.8737488

endloop
endfacet
facet normal 0.1259309798 -0.4834973514 0.866239965
outer loop
vertex -66.77386475 8.770835876 331.0592651
vertex -66.79129791 8.433921814 330.8737488
vertex -66.21607208 8.800697327 330.9948425

endloop
endfacet
facet normal 0.1265196055 -0.4842528403 0.8657320738
outer loop
vertex -66.21607208 8.800697327 330.9948425
vertex -66.79129791 8.433921814 330.8737488
vertex -66.23470306 8.433616638 330.7922363

endloop
endfacet
facet normal 0.2791752815 -0.4748308957 0.8346236944
outer loop
vertex -66.21607208 8.800697327 330.9948425
vertex -66.23470306 8.433616638 330.7922363
vertex -65.51712799 8.864631653 330.7974243

endloop
endfacet
facet normal 0.2781921923 -0.4732092023 0.8358721137
outer loop
vertex -65.51712799 8.864631653 330.7974243
vertex -66.23470306 8.433616638 330.7922363
vertex -65.54734039 8.494972229 330.5982056

endloop
endfacet
facet normal 0.2816699147 -0.4729457796 0.8348558545
outer loop
vertex -65.51712799 8.864631653 330.7974243
vertex -65.54734039 8.494972229 330.5982056
vertex -64.79338074 8.917015076 330.5829163

endloop
endfacet
facet normal 0.2800640166 -0.4699971378 0.8370584846
outer loop
vertex -64.79338074 8.917015076 330.5829163
vertex -65.54734039 8.494972229 330.5982056
vertex -64.83784485 8.545768738 330.3893433

endloop
endfacet
facet normal 0.2671893835 -0.4704980552 0.8409764767
outer loop
vertex -64.79338074 8.917015076 330.5829163
vertex -64.83784485 8.545768738 330.3893433
vertex -64.24749756 8.939002991 330.4217834

endloop
endfacet
facet normal 0.2662917376 -0.4692322612 0.8419678211
outer loop
vertex -64.24749756 8.939002991 330.4217834
vertex -64.83784485 8.545768738 330.3893433
vertex -64.29193878 8.567375183 330.2287292

endloop
endfacet
facet normal 0.2288999557 -0.4701681733 0.8523770571
outer loop
vertex -64.24749756 8.939002991 330.4217834
vertex -64.29193878 8.567375183 330.2287292
vertex -63.74837494 8.950737 330.29422

endloop
endfacet
facet normal 0.2281574607 -0.4692370296 0.853088975
outer loop
vertex -63.74837494 8.950737 330.29422
vertex -64.29193878 8.567375183 330.2287292
vertex -63.78780365 8.579032898 330.1003113

endloop
endfacet
facet normal 0.1921273172 -0.4699028134 0.8615558147
outer loop
vertex -63.74837494 8.950737 330.2942505
vertex -63.78780365 8.579032898 330.1003113
vertex -63.23201752 8.961265564 330.184845

endloop
endfacet
facet normal 0.1915643662 -0.4691969752 0.8620657325
outer loop
vertex -63.23201752 8.961265564 330.184845
vertex -63.78780365 8.579032898 330.1003113
vertex -63.26377106 8.589561462 329.9895935

endloop
endfacet
facet normal 0.1644620597 -0.4696758687 0.8673850298
outer loop
vertex -63.23201752 8.961265564 330.184845
vertex -63.26377106 8.589561462 329.9895935
vertex -62.68317413 8.97467804 330.0880432

endloop
endfacet
facet normal 0.1641387492 -0.4692614675 0.867670536
outer loop
vertex -62.68317413 8.97467804 330.0880432
vertex -63.26377106 8.589561462 329.9895935
vertex -62.70671844 8.603050232 329.89151

endloop
endfacet
facet normal 0.1514188498 -0.4695800245 0.869808495
outer loop
vertex -62.68317413 8.97467804 330.0880737
vertex -62.70670319 8.603050232 329.8915405
vertex -62.09473419 8.993370056 329.9957275

endloop
endfacet
facet normal 0.1513232142 -0.4694528282 0.8698939085
outer loop
vertex -62.09473419 8.993370056 329.9957275
vertex -62.70670319 8.603050232 329.8915405
vertex -62.11273956 8.621864319 329.7983704

endloop
endfacet
facet normal 0.1569385082 -0.4692534208 0.8690060973
outer loop
vertex -62.09473419 8.993370056 329.9957275
vertex -62.11273956 8.621864319 329.7983704
vertex -61.4668045 9.016593933 329.8948669

endloop
endfacet
facet normal 0.1571569592 -0.4695605934 0.8688006401
outer loop
vertex -61.4668045 9.016593933 329.8948669
vertex -62.11273956 8.621864319 329.7983704
vertex -61.4852066 8.645163536 329.6974487

endloop
endfacet
facet normal 0.1781079918 -0.4686946571 0.865218401
outer loop
vertex -61.4668045 9.016593933 329.8948669
vertex -61.4852066 8.645163536 329.6974487
vertex -60.81343842 9.040154457 329.7731323

endloop
endfacet
facet normal 0.1787283272 -0.4696280956 0.8645840883
outer loop
vertex -60.81343842 9.040154457 329.7731323
vertex -61.4852066 8.645163536 329.6974487
vertex -60.83896637 8.668678284 329.5766296

endloop
endfacet
facet normal 0.205560267 -0.4686029553 0.8591601849
outer loop
vertex -60.81343842 9.040154457 329.7731323
vertex -60.83896637 8.668678284 329.5766296
vertex -60.15956879 9.058860779 329.6268921

endloop
endfacet
facet normal 0.2061676532 -0.4695734382 0.8584845662
outer loop
vertex -60.15956879 9.058860779 329.6268921
vertex -60.83896637 8.668678284 329.5766296
vertex -60.19591522 8.687278748 329.432373

endloop
endfacet
facet normal 0.2273470312 -0.4690165818 0.8534265757
outer loop
vertex -60.15955353 9.058876038 329.6269226
vertex -60.19589996 8.687309265 329.4324036
vertex -59.5283432 9.069923401 329.4648438

endloop
endfacet
facet normal 0.22772488 -0.4696382284 0.8529837728
outer loop
vertex -59.5283432 9.069923401 329.4648438
vertex -60.19589996 8.687309265 329.4324036
vertex -59.57440948 8.698280334 329.272522

endloop
endfacet
facet normal 0.2372407317 -0.469510138 0.850456953
outer loop
vertex -59.5283432 9.069923401 329.4648438
vertex -59.57440948 8.698280334 329.272522
vertex -58.9280777 9.07384491 329.2995605

endloop
endfacet
facet normal 0.2374421805 -0.4698396623 0.8502187729
outer loop
vertex -58.9280777 9.07384491 329.2995605
vertex -59.57440948 8.698280334 329.272522
vertex -58.98021698 8.702232361 329.1087646

endloop
endfacet
facet normal 0.238971889 -0.4698354006 0.8497924209
outer loop
vertex -58.9280777 9.07384491 329.2995605
vertex -58.98021698 8.702232361 329.1087646
vertex -58.35910797 9.073509216 329.1393738

endloop
endfacet
facet normal 0.2389790118 -0.4698466361 0.849784255
outer loop
vertex -58.35910797 9.073509216 329.1393738
vertex -58.98021698 8.702232361 329.1087646
vertex -58.4129715 8.702079773 328.9491577

endloop
endfacet
facet normal 0.2509532571 -0.4698194563 0.8463404179
outer loop
vertex -58.35910797 9.073509216 329.1393738
vertex -58.4129715 8.702079773 328.9491577
vertex -57.81041718 9.074729919 328.977356

endloop
endfacet
facet normal 0.2509118915 -0.4697561562 0.8463878036
outer loop
vertex -57.81041718 9.074729919 328.977356
vertex -58.4129715 8.702079773 328.9491577
vertex -57.86191559 8.708183289 328.7891846

endloop
endfacet
facet normal 0.4078866839 -0.4616839886 0.7877031565
outer loop
vertex -57.81041718 9.074729919 328.977356
vertex -57.86191559 8.708183289 328.7891846
vertex -57.32975006 9.100028992 328.7432861

endloop
endfacet
facet normal 0.4079695642 -0.4618102312 0.7875862718
outer loop
vertex -57.32975006 9.100028992 328.7432861
vertex -57.86191559 8.708183289 328.7891846
vertex -57.37404633 8.770378113 328.572937

endloop
endfacet
facet normal 0.5531416535 -0.4398353696 0.7075161338
outer loop
vertex -57.32975006 9.10004425 328.7432556
vertex -57.37406158 8.770393372 328.5729675
vertex -56.93613434 9.090263367 328.4294434

endloop
endfacet
facet normal 0.5663378835 -0.472304076 0.6754186153
outer loop
vertex -56.93613434 9.090263367 328.4294434
vertex -57.37406158 8.770393372 328.5729675
vertex -56.97728729 8.816947937 328.2728271

endloop
endfacet
facet normal 0.9906513691 -0.1337345541 -0.02692260966
outer loop
vertex -56.93613434 9.090263367 328.4294434
vertex -56.97728729 8.816947937 328.2728271
vertex -56.93289948 9.273658752 327.6374817

endloop
endfacet
facet normal -nan(ind) -nan(ind) -nan(ind)
outer loop
vertex -56.93289948 9.273658752 327.6374817
vertex -56.97728729 8.816947937 328.2728271
vertex -56.93289948 9.273658752 327.6374817

endloop
endfacet
facet normal 0.9238267541 0.1958829314 -0.3288981616
outer loop
vertex -67.57061005 8.989051819 330.2778625
vertex -67.57060242 8.989067078 330.2778931
vertex -67.26455688 8.465049744 330.8254395

endloop
endfacet
facet normal -0.9271934032 -0.2506767213 0.2783407867
outer loop
vertex -67.26455688 8.465049744 330.8254395
vertex -67.57060242 8.989067078 330.2778931
vertex -67.31272888 8.255882263 330.476593

endloop
endfacet
facet normal -0.1089072898 -0.845839262 0.5222021341
outer loop
vertex -67.26455688 8.465049744 330.8254395
vertex -67.31272888 8.255882263 330.476593
vertex -66.79130554 8.433921814 330.8737183

endloop
endfacet
facet normal -0.1566096395 -0.8080621362 0.5678988099
outer loop
vertex -66.79130554 8.433921814 330.8737183
vertex -67.31272888 8.255882263 330.476593
vertex -66.86196899 8.166633606 330.4739075

endloop
endfacet
facet normal 0.07925531268 -0.8351325393 0.54430902
outer loop
vertex -66.79130554 8.433921814 330.8737183
vertex -66.86196899 8.166633606 330.4739075
vertex -66.23471069 8.433616638 330.7922058

endloop
endfacet
facet normal 0.07842575759 -0.8344935775 0.5454078913
outer loop
vertex -66.23471069 8.433616638 330.7922058
vertex -66.86196899 8.166633606 330.4739075
vertex -66.32325745 8.141747475 330.3583679

endloop
endfacet
facet normal 0.2190037668 -0.8296840191 0.5134801269
outer loop
vertex -66.23471069 8.433616638 330.7922058
vertex -66.32325745 8.141747475 330.3583679
vertex -65.54734039 8.494972229 330.598175

endloop
endfacet
facet normal 0.2181674242 -0.8289222717 0.5150640011
outer loop
vertex -65.54734039 8.494972229 330.598175
vertex -66.32325745 8.141747475 330.3583679
vertex -65.65290833 8.200004578 330.1681824

endloop
endfacet
facet normal 0.2115670443 -0.8294140697 0.5170218945
outer loop
vertex -65.54734039 8.494972229 330.598175
vertex -65.65290833 8.200004578 330.1681824
vertex -64.83785248 8.545752525 330.3893127

endloop
endfacet
facet normal 0.209763512 -0.8275422454 0.5207428336
outer loop
vertex -64.83785248 8.545752525 330.3893127
vertex -65.65290833 8.200004578 330.1681824
vertex -64.95857239 8.248222351 329.9651184

endloop
endfacet
facet normal 0.187984705 -0.8284476399 0.5275757909
outer loop
vertex -64.83785248 8.545752525 330.3893127
vertex -64.95857239 8.248222351 329.9651184
vertex -64.29195404 8.567359924 330.2287292

endloop
endfacet
facet normal 0.1869036257 -0.8276014328 0.5292853117
outer loop
vertex -64.29195404 8.567359924 330.2287292
vertex -64.95857239 8.248222351 329.9651184
vertex -64.40525055 8.269371033 329.8027954

endloop
endfacet
facet normal 0.1562021673 -0.8283581734 0.5379811525
outer loop
vertex -64.29195404 8.567359924 330.2287292
vertex -64.40525055 8.269371033 329.8027954
vertex -63.78781891 8.57900238 330.1002808

endloop
endfacet
facet normal 0.1555234641 -0.8278880715 0.5389004946
outer loop
vertex -63.78781891 8.57900238 330.1002808
vertex -64.40525055 8.269371033 329.8027954
vertex -63.88532257 8.280967712 329.6705627

endloop
endfacet
facet normal 0.1317065358 -0.828284204 0.5446087718
outer loop
vertex -63.78781891 8.579017639 330.1002808
vertex -63.88532257 8.280967712 329.6705627
vertex -63.26378632 8.589546204 329.989563

endloop
endfacet
facet normal 0.1312547326 -0.827974081 0.5451889634
outer loop
vertex -63.26378632 8.589546204 329.989563
vertex -63.88532257 8.280967712 329.6705627
vertex -63.34444427 8.291496277 329.5563354

endloop
endfacet
facet normal 0.1165394112 -0.8282445073 0.5481146574
outer loop
vertex -63.26378632 8.589546204 329.989563
vertex -63.34444427 8.291496277 329.5563354
vertex -62.70671844 8.603019714 329.8914795

endloop
endfacet
facet normal 0.1161161065 -0.8279511333 0.5486475229
outer loop
vertex -62.70671844 8.603019714 329.8914795
vertex -63.34444427 8.291496277 329.5563354
vertex -62.7723465 8.305015564 329.455658

endloop
endfacet
facet normal 0.1123583615 -0.8280804753 0.5492343903
outer loop
vertex -62.70670319 8.603034973 329.89151
vertex -62.77233124 8.305046082 329.455658
vertex -62.11275482 8.62184906 329.7983704

endloop
endfacet
facet normal 0.1121161804 -0.827909112 0.5495420694
outer loop
vertex -62.11275482 8.62184906 329.7983704
vertex -62.77233124 8.305046082 329.455658
vertex -62.17032623 8.323936462 329.3612976

endloop
endfacet
facet normal 0.1189616323 -0.8276628852 0.5484725833
outer loop
vertex -62.11275482 8.62184906 329.7983704
vertex -62.17032623 8.323936462 329.3612976
vertex -61.4852066 8.645149231 329.6974182

endloop
endfacet
facet normal 0.119197093 -0.8278368115 0.548158884
outer loop
vertex -61.4852066 8.645149231 329.6974182
vertex -62.17032623 8.323936462 329.3612976
vertex -61.54621124 8.347297668 329.2608643

endloop
endfacet
facet normal 0.1321800351 -0.8273044825 0.5459814072
outer loop
vertex -61.4852066 8.645149231 329.6974182
vertex -61.54621124 8.347297668 329.2608643
vertex -60.83898163 8.668663025 329.5765991

endloop
endfacet
facet normal 0.1328584403 -0.8278389573 0.5450057983
outer loop
vertex -60.83898163 8.668663025 329.5765991
vertex -61.54621124 8.347297668 329.2608643
vertex -60.91428375 8.370780945 329.1424866

endloop
endfacet
facet normal 0.1456388533 -0.8273606896 0.5424607396
outer loop
vertex -60.83898163 8.668663025 329.5765991
vertex -60.91428375 8.370780945 329.1424866
vertex -60.19591522 8.687278748 329.4323425

endloop
endfacet
facet normal 0.1464493275 -0.8280440569 0.5411982536
outer loop
vertex -60.19591522 8.687278748 329.4323425
vertex -60.91428375 8.370780945 329.1424866
vertex -60.29012299 8.389320374 329.0019531

endloop
endfacet
facet normal 0.1534280777 -0.8278339505 0.5395839214
outer loop
vertex -60.19589996 8.687309265 329.432373
vertex -60.29010773 8.389320374 329.0019836
vertex -59.57442474 8.698280334 329.2724915

endloop
endfacet
facet normal 0.1538421959 -0.8281989694 0.5389053226
outer loop
vertex -59.57442474 8.698280334 329.2724915
vertex -60.29010773 8.389320374 329.0019836
vertex -59.68384552 8.400245667 328.8457031

endloop
endfacet
facet normal 0.1539704353 -0.82819736 0.5388712287
outer loop
vertex -59.57442474 8.698280334 329.2724915
vertex -59.68384552 8.400245667 328.8457031
vertex -58.98023224 8.702217102 329.1087646

endloop
endfacet
facet normal 0.154069066 -0.8282850981 0.5387082696
outer loop
vertex -58.98023224 8.702217102 329.1087646
vertex -59.68384552 8.400245667 328.8457031
vertex -59.09807587 8.404167175 328.6842041

endloop
endfacet
facet normal 0.151576817 -0.8282916546 0.5394046307
outer loop
vertex -58.98023224 8.702217102 329.1087646
vertex -59.09807587 8.404167175 328.6842041
vertex -58.4129715 8.702065468 328.9491272

endloop
endfacet
facet normal 0.1516037583 -0.8283150196 0.5393611789
outer loop
vertex -58.4129715 8.702065468 328.9491272
vertex -59.09807587 8.404167175 328.6842041
vertex -58.53148651 8.404197693 328.5249939

endloop
endfacet
facet normal 0.1646663249 -0.8282290697 0.5356507301
outer loop
vertex -58.4129715 8.702065468 328.9491272
vertex -58.53148651 8.404197693 328.5249939
vertex -57.86191559 8.708183289 328.7891846

endloop
endfacet
facet normal 0.1646243781 -0.8281943798 0.5357170701
outer loop
vertex -57.86191559 8.708183289 328.7891846
vertex -58.53148651 8.404197693 328.5249939
vertex -57.97603607 8.41426754 328.369873

endloop
endfacet
facet normal 0.3185480833 -0.8147781491 0.4844208658
outer loop
vertex -57.86191559 8.708183289 328.7891846
vertex -57.97603607 8.41426754 328.369873
vertex -57.37406158 8.770347595 328.572937

endloop
endfacet
facet normal 0.3198578954 -0.8156552911 0.4820760489
outer loop
vertex -57.37406158 8.770347595 328.572937
vertex -57.97603607 8.41426754 328.369873
vertex -57.47985077 8.506324768 328.1964111

endloop
endfacet
facet normal 0.4238359928 -0.7932385802 0.4371905923
outer loop
vertex -57.37406158 8.770378113 328.5729675
vertex -57.47986603 8.506324768 328.1964417
vertex -56.97730255 8.816932678 328.2727966

endloop
endfacet
facet normal 0.4442571998 -0.811909616 0.3787325323
outer loop
vertex -56.97730255 8.816932678 328.2727966
vertex -57.47986603 8.506324768 328.1964417
vertex -57.07724762 8.614067078 327.9551392

endloop
endfacet
facet normal 0.9542785287 -0.270306319 -0.1276204139
outer loop
vertex -56.97730255 8.816932678 328.2727966
vertex -57.07724762 8.614067078 327.9551392
vertex -56.93289948 9.273658752 327.6374512

endloop
endfacet
facet normal -0.9810823798 0.1731235832 -0.08663496375
outer loop
vertex -56.93289948 9.273658752 327.6374512
vertex -57.07724762 8.614067078 327.9551392
vertex -56.93289948 9.273674011 327.6374817

endloop
endfacet
facet normal -0.610358417 0 0.7921254039
outer loop
vertex -67.57060242 8.989082336 330.2778931
vertex -67.57060242 8.989067078 330.2778931
vertex -67.31272888 8.255867004 330.476593

endloop
endfacet
facet normal -0.9463332891 -0.3008008301 0.1182039157
outer loop
vertex -67.31272888 8.255867004 330.476593
vertex -67.57060242 8.989067078 330.2778931
vertex -67.42202759 8.328147888 329.7854919

endloop
endfacet
facet normal -0.1941373646 -0.9783563018 -0.07162121683
outer loop
vertex -67.31272888 8.255867004 330.476593
vertex -67.42202759 8.328147888 329.7854919
vertex -66.86196899 8.166618347 330.4739075

endloop
endfacet
facet normal -0.264865011 -0.964225471 -0.01076528151
outer loop
vertex -66.86196899 8.166618347 330.4739075
vertex -67.42202759 8.328147888 329.7854919
vertex -67.05233765 8.228126526 329.6484985

endloop
endfacet
facet normal -0.0590078719 -0.9964138865 -0.06064189225
outer loop
vertex -66.86196899 8.166618347 330.4739075
vertex -67.05233765 8.228126526 329.6484985
vertex -66.32325745 8.141747475 330.3583679

endloop
endfacet
facet normal -0.06394917518 -0.9964050055 -0.05556578189
outer loop
vertex -66.32325745 8.141747475 330.3583679
vertex -67.05233765 8.228126526 329.6484985
vertex -66.57087708 8.207374573 329.4665222

endloop
endfacet
facet normal 0.06084397808 -0.9940775633 -0.09004313499
outer loop
vertex -66.32325745 8.141747475 330.3583679
vertex -66.57087708 8.207374573 329.4665222
vertex -65.6529007 8.200004578 330.1681824

endloop
endfacet
facet normal 0.05936066061 -0.994340837 -0.08810529113
outer loop
vertex -65.6529007 8.200004578 330.1681824
vertex -66.57087708 8.207374573 329.4665222
vertex -65.9249115 8.262489319 329.2797241

endloop
endfacet
facet normal 0.04467715323 -0.9954898357 -0.08369059116
outer loop
vertex -65.6529007 8.200004578 330.1681824
vertex -65.9249115 8.262489319 329.2797241
vertex -64.95856476 8.24823761 329.9651184

endloop
endfacet
facet normal 0.04128245637 -0.9960262179 -0.07891551405
outer loop
vertex -64.95856476 8.24823761 329.9651184
vertex -65.9249115 8.262489319 329.2797241
vertex -65.24102783 8.306664467 329.0799255

endloop
endfacet
facet normal 0.01719743386 -0.9973056316 -0.07131448388
outer loop
vertex -64.95856476 8.24823761 329.9651184
vertex -65.24102783 8.306664467 329.0799255
vertex -64.40524292 8.269386292 329.8027954

endloop
endfacet
facet normal 0.01526425313 -0.9974937439 -0.06908903271
outer loop
vertex -64.40524292 8.269386292 329.8027954
vertex -65.24102783 8.306664467 329.0799255
vertex -64.6625061 8.327278137 328.9101257

endloop
endfacet
facet normal 0.005370925181 -0.9977881312 -0.06625691056
outer loop
vertex -64.40524292 8.269386292 329.8027954
vertex -64.6625061 8.327278137 328.9101257
vertex -63.88532257 8.280967712 329.6705322

endloop
endfacet
facet normal 0.004149064422 -0.9978757501 -0.06501343101
outer loop
vertex -63.88532257 8.280967712 329.6705322
vertex -64.6625061 8.327278137 328.9101257
vertex -64.10340118 8.338890076 328.7675781

endloop
endfacet
facet normal 0.005645259749 -0.9978448153 -0.06537505984
outer loop
vertex -63.88532257 8.280967712 329.6705322
vertex -64.10340881 8.338890076 328.7676086
vertex -63.34442902 8.291511536 329.5563049

endloop
endfacet
facet normal 0.004586553201 -0.997916162 -0.06436053663
outer loop
vertex -63.34442902 8.291511536 329.5563049
vertex -64.10340881 8.338890076 328.7676086
vertex -63.52732086 8.34941864 328.6454163

endloop
endfacet
facet normal 0.01199576911 -0.9977582097 -0.06583814323
outer loop
vertex -63.34442902 8.291511536 329.5563049
vertex -63.52732086 8.34941864 328.6454163
vertex -62.7723465 8.305030823 329.455658

endloop
endfacet
facet normal 0.011079452 -0.9978244901 -0.06498795748
outer loop
vertex -62.7723465 8.305030823 329.455658
vertex -63.52732086 8.34941864 328.6454163
vertex -62.92780304 8.362968445 328.5395813

endloop
endfacet
facet normal 0.02083876543 -0.9975623488 -0.06659650058
outer loop
vertex -62.77233124 8.30506134 329.455658
vertex -62.92778778 8.362968445 328.5396118
vertex -62.17032623 8.323936462 329.3612976

endloop
endfacet
facet normal 0.02035433799 -0.9976019263 -0.06615182012
outer loop
vertex -62.17032623 8.323936462 329.3612976
vertex -62.92778778 8.362968445 328.5396118
vertex -62.31430817 8.381874084 328.4432678

endloop
endfacet
facet normal 0.02651369572 -0.9973935485 -0.06710468978
outer loop
vertex -62.17032623 8.323936462 329.3612976
vertex -62.31430817 8.381874084 328.4432678
vertex -61.54621124 8.34728241 329.2608948

endloop
endfacet
facet normal 0.02708159387 -0.9973424673 -0.06763602048
outer loop
vertex -61.54621124 8.34728241 329.2608948
vertex -62.31430817 8.381874084 328.4432678
vertex -61.70064545 8.405220032 328.3447266

endloop
endfacet
facet normal 0.02447773144 -0.9974390268 -0.0672032088
outer loop
vertex -61.54621124 8.34728241 329.2608948
vertex -61.70064545 8.405220032 328.3447266
vertex -60.91429901 8.370765686 329.1425171

endloop
endfacet
facet normal 0.0259677954 -0.9973016977 -0.06866597384
outer loop
vertex -60.91429901 8.370765686 329.1425171
vertex -61.70064545 8.405220032 328.3447266
vertex -61.0969162 8.428718567 328.2317505

endloop
endfacet
facet normal 0.01469771378 -0.9976828098 -0.06643046439
outer loop
vertex -60.91429901 8.370765686 329.1425171
vertex -61.0969162 8.428718567 328.2317505
vertex -60.29012299 8.389320374 329.0019531

endloop
endfacet
facet normal 0.01599944197 -0.9975714684 -0.06778834015
outer loop
vertex -60.29012299 8.389320374 329.0019531
vertex -61.0969162 8.428718567 328.2317505
vertex -60.50576019 8.447257996 328.0984497

endloop
endfacet
facet normal 0.001397216576 -0.9979268909 -0.06434290111
outer loop
vertex -60.29010773 8.389320374 329.0019836
vertex -60.50574493 8.447273254 328.0984802
vertex -59.68383026 8.400245667 328.8457031

endloop
endfacet
facet normal 0.001963302027 -0.997885704 -0.06496298313
outer loop
vertex -59.68383026 8.400245667 328.8457031
vertex -60.50574493 8.447273254 328.0984802
vertex -59.92324066 8.458213806 327.9480286

endloop
endfacet
facet normal -0.01032827143 -0.9980416298 -0.06169487163
outer loop
vertex -59.68383026 8.400245667 328.8457031
vertex -59.92324066 8.458213806 327.9480286
vertex -59.09807587 8.404167175 328.6842041

endloop
endfacet
facet normal -0.01019076072 -0.9980335236 -0.06184842065
outer loop
vertex -59.09807587 8.404167175 328.6842041
vertex -59.92324066 8.458213806 327.9480286
vertex -59.3486557 8.462165833 327.7895813

endloop
endfacet
facet normal -0.01680532284 -0.9980570674 -0.05999724194
outer loop
vertex -59.09807587 8.404167175 328.6842041
vertex -59.3486557 8.462165833 327.7895813
vertex -58.53148651 8.404197693 328.5249939

endloop
endfacet
facet normal -0.01688730717 -0.9980611205 -0.05990645662
outer loop
vertex -58.53148651 8.404197693 328.5249939
vertex -59.3486557 8.462165833 327.7895813
vertex -58.77939606 8.462104797 327.630127

endloop
endfacet
facet normal 5.324513404e-05 -0.9979118705 -0.06458992511
outer loop
vertex -58.53148651 8.404197693 328.5249939
vertex -58.77939606 8.462104797 327.630127
vertex -57.97603607 8.41426754 328.369873

endloop
endfacet
facet normal -7.727102638e-05 -0.99792099 -0.06444876641
outer loop
vertex -57.97603607 8.41426754 328.369873
vertex -58.77939606 8.462104797 327.630127
vertex -58.21585846 8.4713974 327.4855652

endloop
endfacet
facet normal 0.1464581639 -0.983810842 -0.1032772958
outer loop
vertex -57.97603607 8.41426754 328.369873
vertex -58.21585846 8.4713974 327.4855652
vertex -57.47985077 8.506340027 328.1964417

endloop
endfacet
facet normal 0.1518587172 -0.9823803306 -0.1089390814
outer loop
vertex -57.47985077 8.506340027 328.1964417
vertex -58.21585846 8.4713974 327.4855652
vertex -57.71199799 8.558067322 327.4063721

endloop
endfacet
facet normal 0.1892658621 -0.9746372104 -0.1194189042
outer loop
vertex -57.47986603 8.506324768 328.1964722
vertex -57.71201324 8.558052063 327.4063721
vertex -57.07723236 8.614082336 327.9551392

endloop
endfacet
facet normal 0.2357759476 -0.955896616 -0.1751324534
outer loop
vertex -57.07723236 8.614082336 327.9551392
vertex -57.71201324 8.558052063 327.4063721
vertex -57.29688263 8.675346375 327.3250427

endloop
endfacet
facet normal 0.8719812036 -0.3537735939 -0.338368088
outer loop
vertex -57.07723236 8.614082336 327.9551392
vertex -57.29688263 8.675346375 327.3250427
vertex -56.93289948 9.273658752 327.6374817

endloop
endfacet
facet normal -nan(ind) -nan(ind) -nan(ind)
outer loop
vertex -56.93289948 9.273658752 327.6374817
vertex -57.29688263 8.675346375 327.3250427
vertex -56.93289948 9.273658752 327.6374817

endloop
endfacet
endsolid
