solid 
facet normal -nan(ind) -nan(ind) -nan(ind)
outer loop
vertex -70.34279633 47.32506561 295.0307922
vertex -70.34279633 47.32506561 295.0307922
vertex -70.38456726 47.51995087 294.7507629

endloop
endfacet
facet normal -0.9032962918 -0.4034072161 -0.1460082382
outer loop
vertex -70.38456726 47.51995087 294.7507629
vertex -70.34279633 47.32506561 295.0307922
vertex -70.47075653 47.61461639 295.0224304

endloop
endfacet
facet normal -0.6843554378 0.5932965279 -0.4238594174
outer loop
vertex -70.38456726 47.51995087 294.7507629
vertex -70.47075653 47.61461639 295.0224304
vertex -70.24623871 47.65419769 294.715332

endloop
endfacet
facet normal -0.6675396562 0.6230108142 -0.4077356458
outer loop
vertex -70.24623871 47.65419769 294.715332
vertex -70.47075653 47.61461639 295.0224304
vertex -70.33834839 47.76743317 295.0391541

endloop
endfacet
facet normal -0.6125360131 0.6755210757 -0.4104521573
outer loop
vertex -70.24623871 47.65419769 294.715332
vertex -70.33834839 47.76743317 295.0391541
vertex -70.07173157 47.80052948 294.6957397

endloop
endfacet
facet normal -0.611687839 0.6767605543 -0.4096742272
outer loop
vertex -70.07173157 47.80052948 294.6957397
vertex -70.33834839 47.76743317 295.0391541
vertex -70.16526031 47.92424774 295.0397644

endloop
endfacet
facet normal -0.5504049659 0.7267359495 -0.4109856784
outer loop
vertex -70.07173157 47.80052948 294.6957397
vertex -70.16526031 47.92424774 295.0397644
vertex -69.87567139 47.94896698 294.6956482

endloop
endfacet
facet normal -0.5502932072 0.7268795967 -0.4108813107
outer loop
vertex -69.87567139 47.94896698 294.6956482
vertex -70.16526031 47.92424774 295.0397644
vertex -69.9693985 48.0724411 295.0396118

endloop
endfacet
facet normal -0.5600235462 0.7194238901 -0.4108563364
outer loop
vertex -69.87567139 47.94896698 294.6956482
vertex -69.9693985 48.0724411 295.0396118
vertex -69.68039703 48.10097504 294.6956482

endloop
endfacet
facet normal -0.5597833991 0.7197409272 -0.410628289
outer loop
vertex -69.68039703 48.10097504 294.6956482
vertex -69.9693985 48.0724411 295.0396118
vertex -69.77597809 48.22277069 295.0394287

endloop
endfacet
facet normal -0.5708301067 0.7110217214 -0.4106105268
outer loop
vertex -69.68039703 48.10097504 294.6956482
vertex -69.77597809 48.22277069 295.0394287
vertex -69.48539734 48.25743866 294.6954956

endloop
endfacet
facet normal -0.5705330968 0.7114285827 -0.4103186131
outer loop
vertex -69.48539734 48.25743866 294.6954956
vertex -69.77597809 48.22277069 295.0394287
vertex -69.58221436 48.3780899 295.0393066

endloop
endfacet
facet normal -0.5759239793 0.7070768476 -0.4103095531
outer loop
vertex -69.48539734 48.25743866 294.6954956
vertex -69.58221436 48.3780899 295.0393066
vertex -69.28757477 48.41837311 294.6951599

endloop
endfacet
facet normal -0.5761228204 0.7067970634 -0.410512507
outer loop
vertex -69.28757477 48.41837311 294.6951599
vertex -69.58221436 48.3780899 295.0393066
vertex -69.38517761 48.53852081 295.0390015

endloop
endfacet
facet normal -0.5768538713 0.7061767578 -0.4105531573
outer loop
vertex -69.28757477 48.41835785 294.6951599
vertex -69.38516998 48.53853607 295.0390015
vertex -69.08790588 48.58133698 294.6949463

endloop
endfacet
facet normal -0.5770127177 0.705950737 -0.41071859
outer loop
vertex -69.08790588 48.58133698 294.6949463
vertex -69.38516998 48.53853607 295.0390015
vertex -69.18570709 48.70140839 295.0387268

endloop
endfacet
facet normal -0.5780504346 0.7051020861 -0.4107173979
outer loop
vertex -69.08790588 48.58133698 294.6949463
vertex -69.18570709 48.70140839 295.0387268
vertex -68.89060974 48.74295807 294.6947327

endloop
endfacet
facet normal -0.5778751373 0.7053507566 -0.4105370641
outer loop
vertex -68.89060974 48.74295807 294.6947327
vertex -69.18570709 48.70140839 295.0387268
vertex -68.98871613 48.86270905 295.0385742

endloop
endfacet
facet normal -0.5832265019 0.7009256482 -0.4105486274
outer loop
vertex -68.89058685 48.74297333 294.6947632
vertex -68.9887085 48.8627243 295.0386047
vertex -68.69720459 48.90373993 294.694519

endloop
endfacet
facet normal -0.5832647085 0.7008709908 -0.4105874598
outer loop
vertex -68.69720459 48.90373993 294.694519
vertex -68.9887085 48.8627243 295.0386047
vertex -68.79644775 49.02254486 295.0382996

endloop
endfacet
facet normal -0.5906772017 0.6946428418 -0.4105749428
outer loop
vertex -68.69720459 48.90373993 294.694519
vertex -68.79644775 49.02254486 295.0382996
vertex -68.50546265 49.06665802 294.6943054

endloop
endfacet
facet normal -0.5909881592 0.694188118 -0.4108963907
outer loop
vertex -68.50546265 49.06665802 294.6943054
vertex -68.79644775 49.02254486 295.0382996
vertex -68.60603333 49.18447113 295.0379944

endloop
endfacet
facet normal -0.5955669284 0.6902665496 -0.4108919203
outer loop
vertex -68.50546265 49.06665802 294.6943054
vertex -68.60603333 49.18447113 295.0379944
vertex -68.31214142 49.23332977 294.6940918

endloop
endfacet
facet normal -0.595630765 0.6901708245 -0.410960108
outer loop
vertex -68.31214142 49.23332977 294.6940918
vertex -68.60603333 49.18447113 295.0379944
vertex -68.41326141 49.35074615 295.0378418

endloop
endfacet
facet normal -0.5961408019 0.689730525 -0.4109597504
outer loop
vertex -68.31214142 49.23332977 294.6940918
vertex -68.41326141 49.35074615 295.0378418
vertex -68.11706543 49.4018631 294.6939697

endloop
endfacet
facet normal -0.5959688425 0.6899903417 -0.4107730687
outer loop
vertex -68.11706543 49.4018631 294.6939697
vertex -68.41326141 49.35074615 295.0378418
vertex -68.21805573 49.51927948 295.0377197

endloop
endfacet
facet normal -0.5897721052 0.6952813268 -0.410795331
outer loop
vertex -68.1170578 49.40187836 294.6939697
vertex -68.21803284 49.51932526 295.0377197
vertex -67.91001892 49.57993317 294.6980896

endloop
endfacet
facet normal -0.5900251865 0.6948894262 -0.4110947847
outer loop
vertex -67.91001892 49.57993317 294.6980896
vertex -68.21803284 49.51932526 295.0377197
vertex -68.014534 49.69438934 295.0415649

endloop
endfacet
facet normal -0.5603418946 0.7195119858 -0.4102675021
outer loop
vertex -67.91001892 49.57993317 294.6980896
vertex -68.014534 49.69438934 295.0415649
vertex -67.64990234 49.795784 294.7213745

endloop
endfacet
facet normal -0.5686265826 0.7046585679 -0.424405694
outer loop
vertex -67.64990234 49.795784 294.7213745
vertex -68.014534 49.69438934 295.0415649
vertex -67.77697754 49.89713287 295.059906

endloop
endfacet
facet normal -0.48866418 0.7682929635 -0.413440764
outer loop
vertex -67.64990234 49.795784 294.7213745
vertex -67.77697754 49.89713287 295.059906
vertex -67.38148499 49.98792267 294.7611694

endloop
endfacet
facet normal -0.5422083735 0.6628491879 -0.5163728595
outer loop
vertex -67.38148499 49.98792267 294.7611694
vertex -67.77697754 49.89713287 295.059906
vertex -67.56169128 50.08383942 295.0735168

endloop
endfacet
facet normal -0.3916056454 0.7916180491 -0.4690265656
outer loop
vertex -67.38148499 49.98792267 294.7611694
vertex -67.56169128 50.08383942 295.0735168
vertex -67.14575958 50.15055084 294.8388367

endloop
endfacet
facet normal -0.4453623891 0.6640622616 -0.6005610824
outer loop
vertex -67.14575958 50.15055084 294.8388367
vertex -67.56169128 50.08383942 295.0735168
vertex -67.37499237 50.24973297 295.1184998

endloop
endfacet
facet normal -0.3343132138 0.7679270506 -0.5463724136
outer loop
vertex -67.14575958 50.15055084 294.8388367
vertex -67.37499237 50.24973297 295.1184998
vertex -67.00076294 50.2869339 294.941803

endloop
endfacet
facet normal -0.3246425986 0.7891263366 -0.5214276314
outer loop
vertex -67.00076294 50.2869339 294.941803
vertex -67.37499237 50.24973297 295.1184998
vertex -67.20224762 50.38185883 295.210907

endloop
endfacet
facet normal -0.4880247414 0.6415842772 -0.5917782784
outer loop
vertex -67.00076294 50.2869339 294.9418335
vertex -67.20224762 50.38185883 295.210907
vertex -66.9315033 50.39937592 295.0066223

endloop
endfacet
facet normal -0.3819020987 0.8147442341 -0.4362827539
outer loop
vertex -66.9315033 50.39937592 295.0066223
vertex -67.20224762 50.38185883 295.210907
vertex -67.05155182 50.48213959 295.2662659

endloop
endfacet
facet normal 0.5259383321 0.85006845 -0.02779449522
outer loop
vertex -66.9315033 50.39937592 295.0066223
vertex -67.05155182 50.48213959 295.2662659
vertex -66.79190826 50.32195282 295.2801819

endloop
endfacet
facet normal -nan(ind) -nan(ind) -nan(ind)
outer loop
vertex -66.79190826 50.32195282 295.2801819
vertex -67.05155182 50.48213959 295.2662659
vertex -66.79190826 50.32195282 295.2801819

endloop
endfacet
facet normal 0.03064106032 -0.01532053016 -0.9994130135
outer loop
vertex -70.34279633 47.32506561 295.0307922
vertex -70.34280396 47.32505035 295.0307922
vertex -70.47075653 47.61461639 295.0224304

endloop
endfacet
facet normal -0.9124248028 -0.4007898271 0.08275576681
outer loop
vertex -70.47075653 47.61461639 295.0224304
vertex -70.34280396 47.32505035 295.0307922
vertex -70.43982697 47.58075714 295.1994629

endloop
endfacet
facet normal -0.7453517318 0.618611455 0.2485370487
outer loop
vertex -70.47075653 47.61461639 295.0224304
vertex -70.43982697 47.58075714 295.1994629
vertex -70.33834839 47.76743317 295.0391541

endloop
endfacet
facet normal -0.7099289894 0.6394224167 0.2951942682
outer loop
vertex -70.33834839 47.76743317 295.0391541
vertex -70.43982697 47.58075714 295.1994629
vertex -70.29808807 47.71814728 295.2427368

endloop
endfacet
facet normal -0.6414835453 0.7068939209 0.2979929149
outer loop
vertex -70.33834839 47.76743317 295.0391541
vertex -70.29808807 47.71814728 295.2427368
vertex -70.16526031 47.92424774 295.0397644

endloop
endfacet
facet normal -0.6412159801 0.7070121765 0.2982881367
outer loop
vertex -70.16526031 47.92424774 295.0397644
vertex -70.29808807 47.71814728 295.2427368
vertex -70.12425995 47.87026215 295.2558594

endloop
endfacet
facet normal -0.5755627155 0.7610087991 0.2993211448
outer loop
vertex -70.16526031 47.92424774 295.0397644
vertex -70.12425995 47.87026215 295.2558594
vertex -69.9693985 48.0724411 295.0396118

endloop
endfacet
facet normal -0.5754851103 0.7610357404 0.2994019985
outer loop
vertex -69.9693985 48.0724411 295.0396118
vertex -70.12425995 47.87026215 295.2558594
vertex -69.92829132 48.01854706 295.2556152

endloop
endfacet
facet normal -0.5853388906 0.7534864545 0.2993936837
outer loop
vertex -69.9693985 48.0724411 295.0396118
vertex -69.92829132 48.01854706 295.2556152
vertex -69.77597809 48.22277069 295.0394287

endloop
endfacet
facet normal -0.5851567984 0.7535521984 0.2995840311
outer loop
vertex -69.77597809 48.22277069 295.0394287
vertex -69.92829132 48.01854706 295.2556152
vertex -69.73391724 48.16959381 295.2553406

endloop
endfacet
facet normal -0.5966085196 0.7445162535 0.2995894551
outer loop
vertex -69.77597809 48.22277069 295.0394287
vertex -69.73391724 48.16959381 295.2553406
vertex -69.58221436 48.3780899 295.0393066

endloop
endfacet
facet normal -0.5961913466 0.7446719408 0.3000326753
outer loop
vertex -69.58221436 48.3780899 295.0393066
vertex -69.73391724 48.16959381 295.2553406
vertex -69.53934479 48.32543182 295.255188

endloop
endfacet
facet normal -0.6020244956 0.7399604321 0.3000417948
outer loop
vertex -69.58221436 48.3780899 295.0393066
vertex -69.53934479 48.32543182 295.255188
vertex -69.38517761 48.53852081 295.0390015

endloop
endfacet
facet normal -0.6022366285 0.7398808599 0.2998121381
outer loop
vertex -69.38517761 48.53852081 295.0390015
vertex -69.53934479 48.32543182 295.255188
vertex -69.34211731 48.48609161 295.2548828

endloop
endfacet
facet normal -0.6031279564 0.7391311526 0.2998697162
outer loop
vertex -69.38516998 48.53853607 295.0390015
vertex -69.34212494 48.48607635 295.2548828
vertex -69.18570709 48.70140839 295.0387268

endloop
endfacet
facet normal -0.6033996344 0.7390299439 0.299572289
outer loop
vertex -69.18570709 48.70140839 295.0387268
vertex -69.34212494 48.48607635 295.2548828
vertex -69.14270782 48.64899445 295.2546387

endloop
endfacet
facet normal -0.6042997241 0.7382939458 0.2995729148
outer loop
vertex -69.18570709 48.70140839 295.0387268
vertex -69.14270782 48.64899445 295.2546387
vertex -68.98871613 48.86270905 295.0385742

endloop
endfacet
facet normal -0.6041843891 0.7383375168 0.2996981442
outer loop
vertex -68.98871613 48.86270905 295.0385742
vertex -69.14270782 48.64899445 295.2546387
vertex -68.94551849 48.81041718 295.2544861

endloop
endfacet
facet normal -0.6095742583 0.7338772416 0.2997386456
outer loop
vertex -68.9887085 48.8627243 295.0386047
vertex -68.94551086 48.81043243 295.2544861
vertex -68.79644775 49.02254486 295.0382996

endloop
endfacet
facet normal -0.6096171141 0.7338604927 0.2996926308
outer loop
vertex -68.79644775 49.02254486 295.0382996
vertex -68.94551086 48.81043243 295.2544861
vertex -68.75272369 48.97068024 295.2542419

endloop
endfacet
facet normal -0.6177639961 0.7270137668 0.299697727
outer loop
vertex -68.79644775 49.02254486 295.0382996
vertex -68.75272369 48.97068024 295.2542419
vertex -68.60603333 49.18447113 295.0379944

endloop
endfacet
facet normal -0.6179211736 0.7269500494 0.2995281219
outer loop
vertex -68.60603333 49.18447113 295.0379944
vertex -68.75272369 48.97068024 295.2542419
vertex -68.56182098 49.13306427 295.2539673

endloop
endfacet
facet normal -0.6230231524 0.7225803733 0.2995325029
outer loop
vertex -68.60603333 49.18447113 295.0379944
vertex -68.56182098 49.13306427 295.2539673
vertex -68.41326141 49.35074615 295.0378418

endloop
endfacet
facet normal -0.6229428053 0.7226130962 0.2996207178
outer loop
vertex -68.41326141 49.35074615 295.0378418
vertex -68.56182098 49.13306427 295.2539673
vertex -68.36883545 49.29950714 295.2537842

endloop
endfacet
facet normal -0.6233709455 0.722243607 0.2996211648
outer loop
vertex -68.41326141 49.35074615 295.0378418
vertex -68.36883545 49.29950714 295.2537842
vertex -68.21805573 49.51927948 295.0377197

endloop
endfacet
facet normal -0.6232514977 0.7222917676 0.2997534573
outer loop
vertex -68.21805573 49.51927948 295.0377197
vertex -68.36883545 49.29950714 295.2537842
vertex -68.17357635 49.46805573 295.2536316

endloop
endfacet
facet normal -0.6254276037 0.7204296589 0.2997022271
outer loop
vertex -68.21803284 49.51932526 295.0377197
vertex -68.17357635 49.46808624 295.2536621
vertex -68.014534 49.69438934 295.0415649

endloop
endfacet
facet normal -0.6254329681 0.7204276323 0.2996959686
outer loop
vertex -68.014534 49.69438934 295.0415649
vertex -68.17357635 49.46808624 295.2536621
vertex -67.97210693 49.64144135 295.2573853

endloop
endfacet
facet normal -0.6326345205 0.7141628265 0.2995747626
outer loop
vertex -68.014534 49.69438934 295.0415649
vertex -67.97210693 49.64144135 295.2573853
vertex -67.77697754 49.89713287 295.059906

endloop
endfacet
facet normal -0.6427225471 0.710939765 0.285433501
outer loop
vertex -67.77697754 49.89713287 295.059906
vertex -67.97210693 49.64144135 295.2573853
vertex -67.74876404 49.83623505 295.275116

endloop
endfacet
facet normal -0.6380785704 0.7149056792 0.2859469652
outer loop
vertex -67.77697754 49.89713287 295.059906
vertex -67.74876404 49.83623505 295.275116
vertex -67.56169128 50.08383942 295.0735168

endloop
endfacet
facet normal -0.7090160251 0.6819323897 0.1796232164
outer loop
vertex -67.56169128 50.08383942 295.0735168
vertex -67.74876404 49.83623505 295.275116
vertex -67.5699234 50.01888275 295.2876282

endloop
endfacet
facet normal -0.6773117781 0.7108416557 0.1896125525
outer loop
vertex -67.56169128 50.08383942 295.0735168
vertex -67.5699234 50.01888275 295.2876282
vertex -67.37499237 50.24973297 295.1184998

endloop
endfacet
facet normal -0.7473830581 0.6629674435 0.04350563139
outer loop
vertex -67.37499237 50.24973297 295.1184998
vertex -67.5699234 50.01888275 295.2876282
vertex -67.42040253 50.18473053 295.328949

endloop
endfacet
facet normal -0.6372970343 0.7642899752 0.09855563194
outer loop
vertex -67.37499237 50.24973297 295.1184998
vertex -67.42040253 50.18473053 295.328949
vertex -67.20224762 50.38185883 295.210907

endloop
endfacet
facet normal -0.6259365082 0.7693091631 0.1279333085
outer loop
vertex -67.20224762 50.38185883 295.210907
vertex -67.42040253 50.18473053 295.328949
vertex -67.23804474 50.31993866 295.4081116

endloop
endfacet
facet normal -0.5844535232 0.798430562 0.1446465552
outer loop
vertex -67.20224762 50.38185883 295.210907
vertex -67.23804474 50.3199234 295.4081421
vertex -67.05155182 50.48213959 295.2662659

endloop
endfacet
facet normal -0.5367850661 0.8133426905 0.2243557274
outer loop
vertex -67.05155182 50.48213959 295.2662659
vertex -67.23804474 50.3199234 295.4081421
vertex -67.05029297 50.43460846 295.4415894

endloop
endfacet
facet normal 0.5031953454 0.8349706531 0.2227519602
outer loop
vertex -67.05155182 50.48213959 295.2662659
vertex -67.05029297 50.43460846 295.4415894
vertex -66.79190826 50.32195282 295.2801819

endloop
endfacet
facet normal 0.4449043274 -0.2221156359 0.8675971031
outer loop
vertex -66.79190826 50.32195282 295.2801819
vertex -67.05029297 50.43460846 295.4415894
vertex -66.79191589 50.32193756 295.2801819

endloop
endfacet
facet normal -0.2884656489 -0.6010797024 0.7453125119
outer loop
vertex -70.34280396 47.32505035 295.0307922
vertex -70.3427887 47.32508087 295.0308228
vertex -70.43982697 47.58075714 295.1994629

endloop
endfacet
facet normal -0.8505538106 -0.4736005664 0.2286060005
outer loop
vertex -70.43982697 47.58075714 295.1994629
vertex -70.3427887 47.32508087 295.0308228
vertex -70.37269592 47.50736237 295.2971802

endloop
endfacet
facet normal -0.5942032933 0.3917570412 0.7024591565
outer loop
vertex -70.43982697 47.58075714 295.1994629
vertex -70.37269592 47.50736237 295.2971802
vertex -70.29808807 47.71814728 295.2427368

endloop
endfacet
facet normal -0.539665401 0.384465009 0.7489645481
outer loop
vertex -70.29808807 47.71814728 295.2427368
vertex -70.37269592 47.50736237 295.2971802
vertex -70.22426605 47.62772369 295.3423462

endloop
endfacet
facet normal -0.4602307677 0.4604426324 0.7590654492
outer loop
vertex -70.29808807 47.71814728 295.2427368
vertex -70.22426605 47.62772369 295.3423462
vertex -70.12425995 47.87026215 295.2558594

endloop
endfacet
facet normal -0.4604255557 0.4604739845 0.7589281797
outer loop
vertex -70.12425995 47.87026215 295.2558594
vertex -70.22426605 47.62772369 295.3423462
vertex -70.04925537 47.77143097 295.3613281

endloop
endfacet
facet normal -0.3902098238 0.5169433355 0.7619094253
outer loop
vertex -70.12425995 47.87026215 295.2558594
vertex -70.04925537 47.77143097 295.3613281
vertex -69.92829132 48.01854706 295.2556152

endloop
endfacet
facet normal -0.3901167512 0.5169237852 0.7619702816
outer loop
vertex -69.92829132 48.01854706 295.2556152
vertex -70.04925537 47.77143097 295.3613281
vertex -69.85306549 47.91985321 295.361084

endloop
endfacet
facet normal -0.3967102468 0.5118909478 0.7619636059
outer loop
vertex -69.92829132 48.01854706 295.2556152
vertex -69.85306549 47.91985321 295.361084
vertex -69.73391724 48.16959381 295.2553406

endloop
endfacet
facet normal -0.3962542415 0.5117998123 0.7622620463
outer loop
vertex -69.73391724 48.16959381 295.2553406
vertex -69.85306549 47.91985321 295.361084
vertex -69.6570816 48.07222748 295.3606567

endloop
endfacet
facet normal -0.4042610526 0.5054888129 0.7622689605
outer loop
vertex -69.73391724 48.16959381 295.2553406
vertex -69.6570816 48.07222748 295.3606567
vertex -69.53934479 48.32543182 295.255188

endloop
endfacet
facet normal -0.4039912522 0.5054371953 0.7624462247
outer loop
vertex -69.53934479 48.32543182 295.255188
vertex -69.6570816 48.07222748 295.3606567
vertex -69.46127319 48.22901154 295.3604736

endloop
endfacet
facet normal -0.407943517 0.5022435784 0.7624522448
outer loop
vertex -69.53934479 48.32543182 295.255188
vertex -69.46127319 48.22901154 295.3604736
vertex -69.34211731 48.48609161 295.2548828

endloop
endfacet
facet normal -0.4081122577 0.5022760034 0.7623405457
outer loop
vertex -69.34211731 48.48609161 295.2548828
vertex -69.46127319 48.22901154 295.3604736
vertex -69.26358795 48.3900528 295.360199

endloop
endfacet
facet normal -0.4089054763 0.5016561747 0.7623237371
outer loop
vertex -69.34212494 48.48607635 295.2548828
vertex -69.26358795 48.3900528 295.360199
vertex -69.14270782 48.64899445 295.2546387

endloop
endfacet
facet normal -0.409440726 0.5017607808 0.7619674206
outer loop
vertex -69.14270782 48.64899445 295.2546387
vertex -69.26358795 48.3900528 295.360199
vertex -69.06416321 48.55301666 295.3600464

endloop
endfacet
facet normal -0.4098720551 0.5014080405 0.7619677782
outer loop
vertex -69.14270782 48.64899445 295.2546387
vertex -69.06416321 48.55301666 295.3600464
vertex -68.94551849 48.81041718 295.2544861

endloop
endfacet
facet normal -0.4094665945 0.5013313293 0.7622361779
outer loop
vertex -68.94551849 48.81041718 295.2544861
vertex -69.06416321 48.55301666 295.3600464
vertex -68.86666107 48.71465302 295.3598328

endloop
endfacet
facet normal -0.4132423699 0.4983151555 0.7621763349
outer loop
vertex -68.94551086 48.81043243 295.2544861
vertex -68.86665344 48.71469879 295.3598328
vertex -68.75272369 48.97068024 295.2542419

endloop
endfacet
facet normal -0.4131503999 0.4982990623 0.7622366548
outer loop
vertex -68.75272369 48.97068024 295.2542419
vertex -68.86665344 48.71469879 295.3598328
vertex -68.67292786 48.87569427 295.3595886

endloop
endfacet
facet normal -0.4187579751 0.4935915768 0.7622395754
outer loop
vertex -68.75272369 48.97068024 295.2542419
vertex -68.67292786 48.87569427 295.3595886
vertex -68.56182098 49.13306427 295.2539673

endloop
endfacet
facet normal -0.4188659191 0.4936091006 0.7621688247
outer loop
vertex -68.56182098 49.13306427 295.2539673
vertex -68.67292786 48.87569427 295.3595886
vertex -68.48104095 49.03890228 295.3593445

endloop
endfacet
facet normal -0.4223917127 0.4905890524 0.7621729374
outer loop
vertex -68.56182098 49.13306427 295.2539673
vertex -68.48104095 49.03890228 295.3593445
vertex -68.36883545 49.29950714 295.2537842

endloop
endfacet
facet normal -0.4222536087 0.4905664325 0.7622640729
outer loop
vertex -68.36883545 49.29950714 295.2537842
vertex -68.48104095 49.03890228 295.3593445
vertex -68.28766632 49.20568085 295.3591309

endloop
endfacet
facet normal -0.4226031303 0.4902646542 0.7622644901
outer loop
vertex -68.36883545 49.29950714 295.2537842
vertex -68.28766632 49.20568085 295.3591309
vertex -68.17357635 49.46805573 295.2536316

endloop
endfacet
facet normal -0.4224186838 0.4902336001 0.7623866796
outer loop
vertex -68.17357635 49.46805573 295.2536316
vertex -68.28766632 49.20568085 295.3591309
vertex -68.09240723 49.37421417 295.3589478

endloop
endfacet
facet normal -0.4300955236 0.4834730625 0.7624117732
outer loop
vertex -68.17357635 49.46808624 295.2536621
vertex -68.09239197 49.37422943 295.3589783
vertex -67.97210693 49.64144135 295.2573853

endloop
endfacet
facet normal -0.4302350283 0.4834995866 0.7623161674
outer loop
vertex -67.97210693 49.64144135 295.2573853
vertex -68.09239197 49.37422943 295.3589783
vertex -67.89183807 49.54686737 295.3626709

endloop
endfacet
facet normal -0.4594788849 0.4575265348 0.7612808943
outer loop
vertex -67.97210693 49.64144135 295.2573853
vertex -67.89183807 49.54686737 295.3626709
vertex -67.74876404 49.83623505 295.275116

endloop
endfacet
facet normal -0.4721714258 0.4608301818 0.7514583468
outer loop
vertex -67.74876404 49.83623505 295.275116
vertex -67.89183807 49.54686737 295.3626709
vertex -67.67546844 49.73790741 295.3814697

endloop
endfacet
facet normal -0.4989701807 0.437315464 0.7481871247
outer loop
vertex -67.74876404 49.83623505 295.275116
vertex -67.67546844 49.73790741 295.3814697
vertex -67.5699234 50.01888275 295.2876282

endloop
endfacet
facet normal -0.5914901495 0.4464374483 0.6714408994
outer loop
vertex -67.5699234 50.01888275 295.2876282
vertex -67.67546844 49.73790741 295.3814697
vertex -67.51608276 49.91828156 295.401947

endloop
endfacet
facet normal -0.6338481307 0.4076860547 0.6572887897
outer loop
vertex -67.5699234 50.01888275 295.2876282
vertex -67.51608276 49.91828156 295.401947
vertex -67.42040253 50.18473053 295.328949

endloop
endfacet
facet normal -0.7354088426 0.41156286 0.5383212566
outer loop
vertex -67.42040253 50.18473053 295.328949
vertex -67.51608276 49.91828156 295.401947
vertex -67.38821411 50.08293915 295.4507446

endloop
endfacet
facet normal -0.6304863095 0.5054585338 0.589065969
outer loop
vertex -67.42040253 50.18473053 295.328949
vertex -67.38821411 50.08293915 295.4507446
vertex -67.23804474 50.31993866 295.4081116

endloop
endfacet
facet normal -0.6132608056 0.4987586439 0.6124956608
outer loop
vertex -67.23804474 50.31993866 295.4081116
vertex -67.38821411 50.08293915 295.4507446
vertex -67.2053833 50.22263336 295.52005

endloop
endfacet
facet normal -0.4764694273 0.589905262 0.6519114971
outer loop
vertex -67.23804474 50.3199234 295.4081421
vertex -67.2053833 50.22263336 295.52005
vertex -67.05029297 50.43460846 295.4415894

endloop
endfacet
facet normal -0.4379098713 0.5759142637 0.6903315783
outer loop
vertex -67.05029297 50.43460846 295.4415894
vertex -67.2053833 50.22263336 295.52005
vertex -67.00357819 50.35018158 295.5416565

endloop
endfacet
facet normal 0.5555365086 0.745016396 0.3692284822
outer loop
vertex -67.05029297 50.43460846 295.4415894
vertex -67.00357819 50.35018158 295.5416565
vertex -66.79191589 50.32193756 295.2801819

endloop
endfacet
facet normal -0.5513382554 0.6547524929 -0.5170351863
outer loop
vertex -66.79191589 50.32193756 295.2801819
vertex -67.00357819 50.35018158 295.5416565
vertex -66.79190826 50.32196808 295.2802124

endloop
endfacet
facet normal 0.8265552521 0.5034332871 -0.2517166436
outer loop
vertex -70.3427887 47.32508087 295.0308228
vertex -70.3427887 47.32506561 295.0307922
vertex -70.37269592 47.50736237 295.2971802

endloop
endfacet
facet normal -0.7632527947 -0.5699355602 0.3043329418
outer loop
vertex -70.37269592 47.50736237 295.2971802
vertex -70.3427887 47.32506561 295.0307922
vertex -70.28982544 47.41680145 295.3354187

endloop
endfacet
facet normal -0.3469809294 0.07715059072 0.9346935749
outer loop
vertex -70.37269592 47.50736237 295.2971802
vertex -70.28982544 47.41680145 295.3354187
vertex -70.22426605 47.62772369 295.3423462

endloop
endfacet
facet normal -0.2946424484 0.06025818363 0.9537057877
outer loop
vertex -70.22426605 47.62772369 295.3423462
vertex -70.28982544 47.41680145 295.3354187
vertex -70.14180756 47.52666473 295.3742065

endloop
endfacet
facet normal -0.2129617631 0.1314668506 0.9681754708
outer loop
vertex -70.22426605 47.62772369 295.3423462
vertex -70.14180756 47.52666473 295.3742065
vertex -70.04925537 47.77143097 295.3613281

endloop
endfacet
facet normal -0.2148117572 0.1321400404 0.9676750302
outer loop
vertex -70.04925537 47.77143097 295.3613281
vertex -70.14180756 47.52666473 295.3742065
vertex -69.96562195 47.66110992 295.3949585

endloop
endfacet
facet normal -0.1416525394 0.1888398528 0.9717376232
outer loop
vertex -70.04925537 47.77143097 295.3613281
vertex -69.96562195 47.66110992 295.3949585
vertex -69.85306549 47.91985321 295.361084

endloop
endfacet
facet normal -0.1415086538 0.188781485 0.9717699885
outer loop
vertex -69.85306549 47.91985321 295.361084
vertex -69.96562195 47.66110992 295.3949585
vertex -69.76921844 47.80974579 295.3946838

endloop
endfacet
facet normal -0.1434857994 0.1872763038 0.9717712402
outer loop
vertex -69.85306549 47.91985321 295.361084
vertex -69.76921844 47.80974579 295.3946838
vertex -69.6570816 48.07222748 295.3606567

endloop
endfacet
facet normal -0.1431810856 0.1871549934 0.9718396068
outer loop
vertex -69.6570816 48.07222748 295.3606567
vertex -69.76921844 47.80974579 295.3946838
vertex -69.57142639 47.96360016 295.3941956

endloop
endfacet
facet normal -0.1467159539 0.1843692958 0.971844852
outer loop
vertex -69.6570816 48.07222748 295.3606567
vertex -69.57142639 47.96360016 295.3941956
vertex -69.46127319 48.22901154 295.3604736

endloop
endfacet
facet normal -0.1459909827 0.1840890348 0.9720070958
outer loop
vertex -69.46127319 48.22901154 295.3604736
vertex -69.57142639 47.96360016 295.3941956
vertex -69.37430573 48.12137604 295.3939209

endloop
endfacet
facet normal -0.1475736499 0.1828109473 0.9720093012
outer loop
vertex -69.46127319 48.22901154 295.3604736
vertex -69.37430573 48.12137604 295.3939209
vertex -69.26358795 48.3900528 295.360199

endloop
endfacet
facet normal -0.1478438675 0.1829147041 0.9719488025
outer loop
vertex -69.26358795 48.3900528 295.360199
vertex -69.37430573 48.12137604 295.3939209
vertex -69.17610168 48.28287506 295.3936768

endloop
endfacet
facet normal -0.1483626813 0.1824668348 0.9719539285
outer loop
vertex -69.26358795 48.3900528 295.360199
vertex -69.17610168 48.2828598 295.3936768
vertex -69.06416321 48.55301666 295.3600464

endloop
endfacet
facet normal -0.1485589594 0.1825426519 0.9719096422
outer loop
vertex -69.06416321 48.55301666 295.3600464
vertex -69.17610168 48.2828598 295.3936768
vertex -68.97663879 48.44583893 295.3935547

endloop
endfacet
facet normal -0.1484290212 0.1826487035 0.971909523
outer loop
vertex -69.06416321 48.55301666 295.3600464
vertex -68.97663879 48.44583893 295.3935547
vertex -68.86666107 48.71465302 295.3598328

endloop
endfacet
facet normal -0.1484808028 0.1826684475 0.9718979597
outer loop
vertex -68.86666107 48.71465302 295.3598328
vertex -68.97663879 48.44583893 295.3935547
vertex -68.77880859 48.60778046 295.3933411

endloop
endfacet
facet normal -0.1497169733 0.1816280186 0.9719033241
outer loop
vertex -68.86665344 48.71469879 295.3598328
vertex -68.77880096 48.60781097 295.3933411
vertex -68.67292786 48.87569427 295.3595886

endloop
endfacet
facet normal -0.1494966298 0.1815471202 0.9719523191
outer loop
vertex -68.67292786 48.87569427 295.3595886
vertex -68.77880096 48.60781097 295.3933411
vertex -68.58403778 48.76966095 295.3930664

endloop
endfacet
facet normal -0.1516453028 0.1797463596 0.9719541073
outer loop
vertex -68.67292786 48.87569427 295.3595886
vertex -68.58403778 48.76966095 295.3930664
vertex -68.48104095 49.03890228 295.3593445

endloop
endfacet
facet normal -0.1518567055 0.1798213571 0.971907258
outer loop
vertex -68.48104095 49.03890228 295.3593445
vertex -68.58403778 48.76966095 295.3930664
vertex -68.39102173 48.933815 295.3928528

endloop
endfacet
facet normal -0.1530985832 0.1787580103 0.9719086885
outer loop
vertex -68.48104095 49.03890228 295.3593445
vertex -68.39102173 48.933815 295.3928528
vertex -68.28766632 49.20568085 295.3591309

endloop
endfacet
facet normal -0.1533218324 0.1788367182 0.9718589783
outer loop
vertex -68.28766632 49.20568085 295.3591309
vertex -68.39102173 48.933815 295.3928528
vertex -68.19720459 49.10097504 295.3926697

endloop
endfacet
facet normal -0.1533937603 0.1787746102 0.9718590975
outer loop
vertex -68.28766632 49.20568085 295.3591309
vertex -68.19720459 49.10097504 295.3926697
vertex -68.09240723 49.37421417 295.3589478

endloop
endfacet
facet normal -0.1531801671 0.1786985695 0.9719067216
outer loop
vertex -68.09240723 49.37421417 295.3589478
vertex -68.19720459 49.10097504 295.3926697
vertex -68.00196838 49.2694931 295.3924561

endloop
endfacet
facet normal -0.1638115346 0.1695135981 0.9718183875
outer loop
vertex -68.09239197 49.37422943 295.3589783
vertex -68.00195312 49.26952362 295.3924866
vertex -67.89183807 49.54686737 295.3626709

endloop
endfacet
facet normal -0.1640859842 0.1696156561 0.9717542529
outer loop
vertex -67.89183807 49.54686737 295.3626709
vertex -68.00195312 49.26952362 295.3924866
vertex -67.80158997 49.44202423 295.3962097

endloop
endfacet
facet normal -0.2034891844 0.1350465864 0.9697187543
outer loop
vertex -67.89183807 49.54686737 295.3626709
vertex -67.80158997 49.44202423 295.3962097
vertex -67.67546844 49.73790741 295.3814697

endloop
endfacet
facet normal -0.2184926718 0.1412349045 0.9655639529
outer loop
vertex -67.67546844 49.73790741 295.3814697
vertex -67.80158997 49.44202423 295.3962097
vertex -67.58747864 49.63201141 295.4168701

endloop
endfacet
facet normal -0.2511000335 0.1127402559 0.9613731503
outer loop
vertex -67.67546844 49.73790741 295.3814697
vertex -67.58747864 49.63201141 295.4168701
vertex -67.51608276 49.91828156 295.401947

endloop
endfacet
facet normal -0.3594737053 0.1377646625 0.922929883
outer loop
vertex -67.51608276 49.91828156 295.401947
vertex -67.58747864 49.63201141 295.4168701
vertex -67.43611145 49.81128693 295.4490662

endloop
endfacet
facet normal -0.4341388047 0.07099797577 0.8980438113
outer loop
vertex -67.51608276 49.91828156 295.401947
vertex -67.43611145 49.81128693 295.4490662
vertex -67.38821411 50.08293915 295.4507446

endloop
endfacet
facet normal -0.5610513687 0.09384212643 0.8224445581
outer loop
vertex -67.38821411 50.08293915 295.4507446
vertex -67.43611145 49.81128693 295.4490662
vertex -67.31896973 49.97431183 295.510376

endloop
endfacet
facet normal -0.4654298425 0.1791279465 0.8667687774
outer loop
vertex -67.38821411 50.08293915 295.4507446
vertex -67.31896973 49.97431183 295.510376
vertex -67.2053833 50.22263336 295.52005

endloop
endfacet
facet normal -0.4433063865 0.1684774905 0.8803946972
outer loop
vertex -67.2053833 50.22263336 295.52005
vertex -67.31896973 49.97431183 295.510376
vertex -67.1404953 50.11859894 295.5726318

endloop
endfacet
facet normal -0.2802284658 0.2882680893 0.9156274199
outer loop
vertex -67.2053833 50.22263336 295.52005
vertex -67.1404953 50.11859894 295.5726624
vertex -67.00357819 50.35018158 295.5416565

endloop
endfacet
facet normal -0.2157699317 0.2538076043 0.9428812265
outer loop
vertex -67.00357819 50.35018158 295.5416565
vertex -67.1404953 50.11859894 295.5726624
vertex -66.93358612 50.25130463 295.5842896

endloop
endfacet
facet normal 0.6310805678 0.637367785 0.4421534538
outer loop
vertex -67.00357819 50.35018158 295.5416565
vertex -66.93358612 50.25130463 295.5842896
vertex -66.79190826 50.32196808 295.2802124

endloop
endfacet
facet normal 0.4465964139 -0.8947355151 0
outer loop
vertex -66.79190826 50.32196808 295.2802124
vertex -66.93358612 50.25130463 295.5842896
vertex -66.79190826 50.32196808 295.2801819

endloop
endfacet
facet normal 0 0.9575248361 -0.2883509994
outer loop
vertex -70.3427887 47.32506561 295.0307922
vertex -70.34279633 47.32506561 295.0307922
vertex -70.28982544 47.41680145 295.3354187

endloop
endfacet
facet normal -0.6583892107 -0.6814126372 0.3196879923
outer loop
vertex -70.28982544 47.41680145 295.3354187
vertex -70.34279633 47.32506561 295.0307922
vertex -70.20056915 47.3192215 295.3112488

endloop
endfacet
facet normal -0.04468788952 -0.2785113156 0.959392786
outer loop
vertex -70.28982544 47.41680145 295.3354187
vertex -70.20056915 47.3192215 295.3112488
vertex -70.14180756 47.52666473 295.3742065

endloop
endfacet
facet normal -0.002817956731 -0.2896815538 0.9571188688
outer loop
vertex -70.14180756 47.52666473 295.3742065
vertex -70.20056915 47.3192215 295.3112488
vertex -70.05609894 47.42147064 295.3426208

endloop
endfacet
facet normal 0.06654582918 -0.2368156314 0.9692729115
outer loop
vertex -70.14180756 47.52666473 295.3742065
vertex -70.05609894 47.42147064 295.3426208
vertex -69.96562195 47.66110992 295.3949585

endloop
endfacet
facet normal 0.06364269555 -0.235815376 0.9697116613
outer loop
vertex -69.96562195 47.66110992 295.3949585
vertex -70.05609894 47.42147064 295.3426208
vertex -69.87872314 47.54639435 295.3613586

endloop
endfacet
facet normal 0.1380669028 -0.1806384623 0.9738106728
outer loop
vertex -69.96562195 47.66110992 295.3949585
vertex -69.87872314 47.54639435 295.3613586
vertex -69.76921844 47.80974579 295.3946838

endloop
endfacet
facet normal 0.1381400079 -0.1806668937 0.9737949967
outer loop
vertex -69.76921844 47.80974579 295.3946838
vertex -69.87872314 47.54639435 295.3613586
vertex -69.68211365 47.69524384 295.361084

endloop
endfacet
facet normal 0.1411526352 -0.1783724725 0.973786056
outer loop
vertex -69.76921844 47.80974579 295.3946838
vertex -69.68211365 47.69524384 295.361084
vertex -69.57142639 47.96360016 295.3941956

endloop
endfacet
facet normal 0.1412507743 -0.1784103513 0.9737648964
outer loop
vertex -69.57142639 47.96360016 295.3941956
vertex -69.68211365 47.69524384 295.361084
vertex -69.48249054 47.85062408 295.3605957

endloop
endfacet
facet normal 0.1430329978 -0.1770062 0.9737610221
outer loop
vertex -69.57142639 47.96360016 295.3941956
vertex -69.48249054 47.85062408 295.3605957
vertex -69.37430573 48.12137604 295.3939209

endloop
endfacet
facet normal 0.1432326883 -0.1770806909 0.9737179875
outer loop
vertex -69.37430573 48.12137604 295.3939209
vertex -69.48249054 47.85062408 295.3605957
vertex -69.28403473 48.00946808 295.3602905

endloop
endfacet
facet normal 0.1445925683 -0.1759831607 0.9737160206
outer loop
vertex -69.37430573 48.12137604 295.3939209
vertex -69.28403473 48.00946808 295.3602905
vertex -69.17610168 48.28287506 295.3936768

endloop
endfacet
facet normal 0.1442852318 -0.1758699119 0.9737821221
outer loop
vertex -69.17610168 48.28287506 295.3936768
vertex -69.28403473 48.00946808 295.3602905
vertex -69.08522034 48.17139435 295.3600769

endloop
endfacet
facet normal 0.1443037689 -0.175877586 0.9737778902
outer loop
vertex -69.17610168 48.2828598 295.3936768
vertex -69.08522034 48.17139435 295.3600769
vertex -68.97663879 48.44583893 295.3935547

endloop
endfacet
facet normal 0.1440613568 -0.1757880449 0.9738300443
outer loop
vertex -68.97663879 48.44583893 295.3935547
vertex -69.08522034 48.17139435 295.3600769
vertex -68.88567352 48.33441925 295.3599854

endloop
endfacet
facet normal 0.1445937306 -0.1753532588 0.9738294482
outer loop
vertex -68.97663879 48.44583893 295.3935547
vertex -68.88567352 48.33441925 295.3599854
vertex -68.77880859 48.60778046 295.3933411

endloop
endfacet
facet normal 0.144836545 -0.1754418314 0.973777473
outer loop
vertex -68.77880859 48.60778046 295.3933411
vertex -68.88567352 48.33441925 295.3599854
vertex -68.68753815 48.49663544 295.3597412

endloop
endfacet
facet normal 0.1460802406 -0.1741339862 0.9738264084
outer loop
vertex -68.77880096 48.60781097 295.3933411
vertex -68.68752289 48.4966507 295.3597717
vertex -68.58403778 48.76966095 295.3930664

endloop
endfacet
facet normal 0.1463083029 -0.1742145121 0.973777771
outer loop
vertex -68.58403778 48.76966095 295.3930664
vertex -68.68752289 48.4966507 295.3597717
vertex -68.49169922 48.65940094 295.3594666

endloop
endfacet
facet normal 0.1480210125 -0.1727792323 0.9737746716
outer loop
vertex -68.58403778 48.76966095 295.3930664
vertex -68.49169922 48.65940094 295.3594666
vertex -68.39102173 48.933815 295.3928528

endloop
endfacet
facet normal 0.1477679312 -0.1726929098 0.9738283753
outer loop
vertex -68.39102173 48.933815 295.3928528
vertex -68.49169922 48.65940094 295.3594666
vertex -68.29750824 48.82453156 295.3592834

endloop
endfacet
facet normal 0.1489721686 -0.171662122 0.9738272429
outer loop
vertex -68.39102173 48.933815 295.3928528
vertex -68.29750824 48.82453156 295.3592834
vertex -68.19720459 49.10097504 295.3926697

endloop
endfacet
facet normal 0.1491871178 -0.1717345864 0.9737815857
outer loop
vertex -68.19720459 49.10097504 295.3926697
vertex -68.29750824 48.82453156 295.3592834
vertex -68.10323334 48.99208832 295.3590698

endloop
endfacet
facet normal 0.1492507458 -0.1716796756 0.9737814069
outer loop
vertex -68.19720459 49.10097504 295.3926697
vertex -68.10323334 48.99208832 295.3590698
vertex -68.00196838 49.2694931 295.3924561

endloop
endfacet
facet normal 0.1492895037 -0.1716928184 0.9737731218
outer loop
vertex -68.00196838 49.2694931 295.3924561
vertex -68.10323334 48.99208832 295.3590698
vertex -67.90805054 49.16059113 295.3588562

endloop
endfacet
facet normal 0.1380303502 -0.1813406199 0.9736853838
outer loop
vertex -68.00195312 49.26952362 295.3924866
vertex -67.90802765 49.16060638 295.3588867
vertex -67.80158997 49.44202423 295.3962097

endloop
endfacet
facet normal 0.1374905407 -0.1811512709 0.9737969637
outer loop
vertex -67.80158997 49.44202423 295.3962097
vertex -67.90802765 49.16060638 295.3588867
vertex -67.70718384 49.3335495 295.3627014

endloop
endfacet
facet normal 0.09737481177 -0.2154034674 0.971658051
outer loop
vertex -67.80158997 49.44202423 295.3962097
vertex -67.70718384 49.3335495 295.3627014
vertex -67.58747864 49.63201141 295.4168701

endloop
endfacet
facet normal 0.08174260706 -0.2096240371 0.9743592143
outer loop
vertex -67.58747864 49.63201141 295.4168701
vertex -67.70718384 49.3335495 295.3627014
vertex -67.49089813 49.52498627 295.3857422

endloop
endfacet
facet normal 0.06190864742 -0.2268262208 0.971965611
outer loop
vertex -67.58747864 49.63201141 295.4168701
vertex -67.49089813 49.52498627 295.3857422
vertex -67.43611145 49.81128693 295.4490662

endloop
endfacet
facet normal -0.05758848041 -0.2050834745 0.9770487547
outer loop
vertex -67.43611145 49.81128693 295.4490662
vertex -67.49089813 49.52498627 295.3857422
vertex -67.33674622 49.7042923 295.4324646

endloop
endfacet
facet normal -0.1280899644 -0.2671526372 0.9551033378
outer loop
vertex -67.43611145 49.81128693 295.4490662
vertex -67.33674622 49.7042923 295.4324646
vertex -67.31896973 49.97431183 295.510376

endloop
endfacet
facet normal -0.2724127769 -0.2501468658 0.9290952086
outer loop
vertex -67.31896973 49.97431183 295.510376
vertex -67.33674622 49.7042923 295.4324646
vertex -67.2197876 49.86539459 295.5101318

endloop
endfacet
facet normal -0.1928700656 -0.1777942181 0.9649820924
outer loop
vertex -67.31896973 49.97431183 295.510376
vertex -67.2197876 49.86539459 295.5101318
vertex -67.1404953 50.11859894 295.5726318

endloop
endfacet
facet normal -0.1681722701 -0.1862729639 0.9679982066
outer loop
vertex -67.1404953 50.11859894 295.5726318
vertex -67.2197876 49.86539459 295.5101318
vertex -67.04983521 50.01422882 295.5682983

endloop
endfacet
facet normal -0.0188310761 -0.05809225515 0.9981335402
outer loop
vertex -67.1404953 50.11859894 295.5726624
vertex -67.04983521 50.01422882 295.5682983
vertex -66.93358612 50.25130463 295.5842896

endloop
endfacet
facet normal 0.0831958726 -0.1076196507 0.9907050133
outer loop
vertex -66.93358612 50.25130463 295.5842896
vertex -67.04983521 50.01422882 295.5682983
vertex -66.84859467 50.1490097 295.56604

endloop
endfacet
facet normal 0.7224774957 0.5187180042 0.4571192265
outer loop
vertex -66.93358612 50.25130463 295.5842896
vertex -66.84859467 50.1490097 295.56604
vertex -66.79190826 50.32196808 295.2801819

endloop
endfacet
facet normal 0.9808935523 0 0.1945452839
outer loop
vertex -66.79190826 50.32196808 295.2801819
vertex -66.84859467 50.1490097 295.56604
vertex -66.79190826 50.32195282 295.2801819

endloop
endfacet
facet normal -0 -0.9997829795 -0.02083334513
outer loop
vertex -70.34279633 47.32506561 295.0307922
vertex -70.3427887 47.32506561 295.0307922
vertex -70.20056915 47.3192215 295.3112488

endloop
endfacet
facet normal -0.5578645468 -0.785975039 0.2665151358
outer loop
vertex -70.20056915 47.3192215 295.3112488
vertex -70.3427887 47.32506561 295.0307922
vertex -70.12380981 47.23523712 295.2242432

endloop
endfacet
facet normal 0.2432100624 -0.581771791 0.7761381865
outer loop
vertex -70.20056915 47.3192215 295.3112488
vertex -70.12380981 47.23523712 295.2242432
vertex -70.05609894 47.42147064 295.3426208

endloop
endfacet
facet normal 0.2418041229 -0.5816146135 0.776695013
outer loop
vertex -70.05609894 47.42147064 295.3426208
vertex -70.12380981 47.23523712 295.2242432
vertex -69.98205566 47.33060455 295.2515259

endloop
endfacet
facet normal 0.2993630767 -0.5427613258 0.7847240567
outer loop
vertex -70.05609894 47.42147064 295.3426208
vertex -69.98205566 47.33060455 295.2515259
vertex -69.87872314 47.54639435 295.3613586

endloop
endfacet
facet normal 0.2957773209 -0.5420022607 0.7866061926
outer loop
vertex -69.87872314 47.54639435 295.3613586
vertex -69.98205566 47.33060455 295.2515259
vertex -69.8036499 47.44727325 295.2648315

endloop
endfacet
facet normal 0.3708417714 -0.4883729517 0.789916575
outer loop
vertex -69.87872314 47.54639435 295.3613586
vertex -69.8036499 47.44727325 295.2648315
vertex -69.68211365 47.69524384 295.361084

endloop
endfacet
facet normal 0.3710338175 -0.4884205461 0.7897969484
outer loop
vertex -69.68211365 47.69524384 295.361084
vertex -69.8036499 47.44727325 295.2648315
vertex -69.6068573 47.59627533 295.2645264

endloop
endfacet
facet normal 0.3779738247 -0.4831160009 0.789768815
outer loop
vertex -69.68211365 47.69524384 295.361084
vertex -69.6068573 47.59627533 295.2645264
vertex -69.48249054 47.85062408 295.3605957

endloop
endfacet
facet normal 0.3780393302 -0.4831323326 0.7897273898
outer loop
vertex -69.48249054 47.85062408 295.3605957
vertex -69.6068573 47.59627533 295.2645264
vertex -69.40569305 47.75298309 295.2640991

endloop
endfacet
facet normal 0.3840919435 -0.4783578813 0.7897133827
outer loop
vertex -69.48249054 47.85062408 295.3605957
vertex -69.40569305 47.75298309 295.2640991
vertex -69.28403473 48.00946808 295.3602905

endloop
endfacet
facet normal 0.3843573928 -0.4784210026 0.7895459533
outer loop
vertex -69.28403473 48.00946808 295.3602905
vertex -69.40569305 47.75298309 295.2640991
vertex -69.20610809 47.91277313 295.2637634

endloop
endfacet
facet normal 0.3880649507 -0.4754276872 0.78954041
outer loop
vertex -69.28403473 48.00946808 295.3602905
vertex -69.20610809 47.91277313 295.2637634
vertex -69.08522034 48.17139435 295.3600769

endloop
endfacet
facet normal 0.3880129158 -0.4754155874 0.7895732522
outer loop
vertex -69.08522034 48.17139435 295.3600769
vertex -69.20610809 47.91277313 295.2637634
vertex -69.00676727 48.07511139 295.2635498

endloop
endfacet
facet normal 0.3884549737 -0.4750357568 0.7895844579
outer loop
vertex -69.08522034 48.17139435 295.3600769
vertex -69.00675964 48.07511139 295.2635498
vertex -68.88567352 48.33441925 295.3599854

endloop
endfacet
facet normal 0.388324827 -0.4750055969 0.7896666527
outer loop
vertex -68.88567352 48.33441925 295.3599854
vertex -69.00675964 48.07511139 295.2635498
vertex -68.80712128 48.23816681 295.2634583

endloop
endfacet
facet normal 0.3892486095 -0.4742506444 0.7896655798
outer loop
vertex -68.88567352 48.33441925 295.3599854
vertex -68.80712128 48.23816681 295.2634583
vertex -68.68753815 48.49663544 295.3597412

endloop
endfacet
facet normal 0.3891278803 -0.4742231369 0.7897416353
outer loop
vertex -68.68753815 48.49663544 295.3597412
vertex -68.80712128 48.23816681 295.2634583
vertex -68.60871887 48.40061188 295.2632446

endloop
endfacet
facet normal 0.3928190172 -0.4711651802 0.7897446156
outer loop
vertex -68.68752289 48.4966507 295.3597717
vertex -68.60869598 48.40062714 295.2632751
vertex -68.49169922 48.65940094 295.3594666

endloop
endfacet
facet normal 0.3928477466 -0.4711714685 0.7897265553
outer loop
vertex -68.49169922 48.65940094 295.3594666
vertex -68.60869598 48.40062714 295.2632751
vertex -68.4119873 48.56412506 295.26297

endloop
endfacet
facet normal 0.397842586 -0.4669808745 0.7897151709
outer loop
vertex -68.49169922 48.65940094 295.3594666
vertex -68.4119873 48.56412506 295.26297
vertex -68.29750824 48.82453156 295.3592834

endloop
endfacet
facet normal 0.3979888558 -0.4670113325 0.7896234989
outer loop
vertex -68.29750824 48.82453156 295.3592834
vertex -68.4119873 48.56412506 295.26297
vertex -68.21677399 48.73012543 295.2627563

endloop
endfacet
facet normal 0.4012466371 -0.4642215967 0.789619863
outer loop
vertex -68.29750824 48.82453156 295.3592834
vertex -68.21677399 48.73012543 295.2627563
vertex -68.10323334 48.99208832 295.3590698

endloop
endfacet
facet normal 0.4010438025 -0.4641804993 0.7897469997
outer loop
vertex -68.10323334 48.99208832 295.3590698
vertex -68.21677399 48.73012543 295.2627563
vertex -68.02207184 48.89803314 295.2625732

endloop
endfacet
facet normal 0.4013595879 -0.4639078081 0.7897468209
outer loop
vertex -68.10323334 48.99208832 295.3590698
vertex -68.02207184 48.89803314 295.2625732
vertex -67.90805054 49.16059113 295.3588562

endloop
endfacet
facet normal 0.4016852081 -0.4639741778 0.7895421982
outer loop
vertex -67.90805054 49.16059113 295.3588562
vertex -68.02207184 48.89803314 295.2625732
vertex -67.82693481 49.06650543 295.2622986

endloop
endfacet
facet normal 0.3918191791 -0.4724448025 0.7894768715
outer loop
vertex -67.90802765 49.16060638 295.3588867
vertex -67.82691956 49.06652069 295.2623291
vertex -67.70718384 49.3335495 295.3627014

endloop
endfacet
facet normal 0.3913238645 -0.4723388851 0.7897858024
outer loop
vertex -67.70718384 49.3335495 295.3627014
vertex -67.82691956 49.06652069 295.2623291
vertex -67.62496948 49.24036407 295.2662354

endloop
endfacet
facet normal 0.3584763408 -0.4998986125 0.7884137034
outer loop
vertex -67.70718384 49.3335495 295.3627014
vertex -67.62496948 49.24036407 295.2662354
vertex -67.49089813 49.52498627 295.3857422

endloop
endfacet
facet normal 0.3435615897 -0.4965337217 0.7971322536
outer loop
vertex -67.49089813 49.52498627 295.3857422
vertex -67.62496948 49.24036407 295.2662354
vertex -67.40237427 49.43558502 295.2919006

endloop
endfacet
facet normal 0.3398426771 -0.4997678101 0.7967051268
outer loop
vertex -67.49089813 49.52498627 295.3857422
vertex -67.40237427 49.43558502 295.2919006
vertex -67.33674622 49.7042923 295.4324646

endloop
endfacet
facet normal 0.2235875577 -0.4941056669 0.840159595
outer loop
vertex -67.33674622 49.7042923 295.4324646
vertex -67.40237427 49.43558502 295.2919006
vertex -67.23484039 49.61611176 295.3534851

endloop
endfacet
facet normal 0.1818939 -0.5310361981 0.8275960088
outer loop
vertex -67.33674622 49.7042923 295.4324646
vertex -67.23484039 49.61611176 295.3534851
vertex -67.2197876 49.86539459 295.5101318

endloop
endfacet
facet normal 0.03506272286 -0.5332510471 0.8452301621
outer loop
vertex -67.2197876 49.86539459 295.5101318
vertex -67.23484039 49.61611176 295.3534851
vertex -67.10725403 49.77527618 295.4486084

endloop
endfacet
facet normal 0.1072468385 -0.4657522142 0.8783922195
outer loop
vertex -67.2197876 49.86539459 295.5101318
vertex -67.10725403 49.77527618 295.4486084
vertex -67.04983521 50.01422882 295.5682983

endloop
endfacet
facet normal 0.13428922 -0.4694048166 0.8727115989
outer loop
vertex -67.04983521 50.01422882 295.5682983
vertex -67.10725403 49.77527618 295.4486084
vertex -66.94866943 49.92787933 295.5062866

endloop
endfacet
facet normal 0.2483657449 -0.3557372093 0.9009802938
outer loop
vertex -67.04983521 50.01422882 295.5682983
vertex -66.94866943 49.92787933 295.5063171
vertex -66.84859467 50.1490097 295.56604

endloop
endfacet
facet normal 0.3968811333 -0.402415812 0.824952662
outer loop
vertex -66.84859467 50.1490097 295.56604
vertex -66.94866943 49.92787933 295.5063171
vertex -66.76594543 50.06536102 295.4854736

endloop
endfacet
facet normal 0.8147041798 0.4102885425 0.4097809196
outer loop
vertex -66.84859467 50.1490097 295.56604
vertex -66.76594543 50.06536102 295.4854736
vertex -66.79190826 50.32195282 295.2801819

endloop
endfacet
facet normal -0.9949228764 -0.1006400958 0
outer loop
vertex -66.79190826 50.32195282 295.2801819
vertex -66.76594543 50.06536102 295.4854736
vertex -66.79190826 50.32195282 295.2802124

endloop
endfacet
facet normal 0.6060842872 0.7114277482 -0.3557138741
outer loop
vertex -70.3427887 47.32506561 295.0307922
vertex -70.3427887 47.32508087 295.0308228
vertex -70.12380981 47.23523712 295.2242432

endloop
endfacet
facet normal -0.4858960509 -0.8610212803 0.1501578242
outer loop
vertex -70.12380981 47.23523712 295.2242432
vertex -70.3427887 47.32508087 295.0308228
vertex -70.08056641 47.18775177 295.0918884

endloop
endfacet
facet normal 0.4464071989 -0.7859313488 0.4278229773
outer loop
vertex -70.12380981 47.23523712 295.2242432
vertex -70.08056641 47.18775177 295.0918884
vertex -69.98205566 47.33060455 295.2515259

endloop
endfacet
facet normal 0.4107713699 -0.7906460762 0.4540325999
outer loop
vertex -69.98205566 47.33060455 295.2515259
vertex -70.08056641 47.18775177 295.0918884
vertex -69.93751526 47.27591705 295.1159973

endloop
endfacet
facet normal 0.4622719586 -0.7591521144 0.4582495987
outer loop
vertex -69.98205566 47.33060455 295.2515259
vertex -69.93751526 47.27591705 295.1159973
vertex -69.8036499 47.44727325 295.2648315

endloop
endfacet
facet normal 0.4597585797 -0.7592453361 0.4606175423
outer loop
vertex -69.8036499 47.44727325 295.2648315
vertex -69.93751526 47.27591705 295.1159973
vertex -69.75842285 47.38755035 295.1212463

endloop
endfacet
facet normal 0.5356349349 -0.7064856291 0.4625724554
outer loop
vertex -69.8036499 47.44727325 295.2648315
vertex -69.75842285 47.38755035 295.1212463
vertex -69.6068573 47.59627533 295.2645264

endloop
endfacet
facet normal 0.5356590748 -0.7064847946 0.4625456929
outer loop
vertex -69.6068573 47.59627533 295.2645264
vertex -69.75842285 47.38755035 295.1212463
vertex -69.56153107 47.5366745 295.1210022

endloop
endfacet
facet normal 0.545471251 -0.6989551783 0.4625176489
outer loop
vertex -69.6068573 47.59627533 295.2645264
vertex -69.56153107 47.5366745 295.1210022
vertex -69.40569305 47.75298309 295.2640991

endloop
endfacet
facet normal 0.5456616282 -0.6989494562 0.4623017013
outer loop
vertex -69.40569305 47.75298309 295.2640991
vertex -69.56153107 47.5366745 295.1210022
vertex -69.35947418 47.69417572 295.120636

endloop
endfacet
facet normal 0.5546680093 -0.6918341517 0.4622865617
outer loop
vertex -69.40569305 47.75298309 295.2640991
vertex -69.35947418 47.69417572 295.120636
vertex -69.20610809 47.91277313 295.2637634

endloop
endfacet
facet normal 0.5551160574 -0.691814959 0.4617772102
outer loop
vertex -69.20610809 47.91277313 295.2637634
vertex -69.35947418 47.69417572 295.120636
vertex -69.15930176 47.85453033 295.1202393

endloop
endfacet
facet normal 0.5604100227 -0.6875393987 0.4617685676
outer loop
vertex -69.20610809 47.91277313 295.2637634
vertex -69.15930176 47.85453033 295.1202393
vertex -69.00676727 48.07511139 295.2635498

endloop
endfacet
facet normal 0.5602003932 -0.6875497103 0.4620075524
outer loop
vertex -69.00676727 48.07511139 295.2635498
vertex -69.15930176 47.85453033 295.1202393
vertex -68.95960236 48.01709747 295.1200256

endloop
endfacet
facet normal 0.561131835 -0.6867673993 0.462040633
outer loop
vertex -69.00675964 48.07511139 295.2635498
vertex -68.95960236 48.01708221 295.1200256
vertex -68.80712128 48.23816681 295.2634583

endloop
endfacet
facet normal 0.560749054 -0.6867864132 0.4624769092
outer loop
vertex -68.80712128 48.23816681 295.2634583
vertex -68.95960236 48.01708221 295.1200256
vertex -68.75987244 48.18013763 295.1199951

endloop
endfacet
facet normal 0.5619868636 -0.6857748628 0.4624754488
outer loop
vertex -68.80712128 48.23816681 295.2634583
vertex -68.75987244 48.18013763 295.1199951
vertex -68.60871887 48.40061188 295.2632446

endloop
endfacet
facet normal 0.5621137023 -0.6857681274 0.4623312652
outer loop
vertex -68.60871887 48.40061188 295.2632446
vertex -68.75987244 48.18013763 295.1199951
vertex -68.56128693 48.34275055 295.119751

endloop
endfacet
facet normal 0.5672163367 -0.6815700531 0.4623071253
outer loop
vertex -68.60869598 48.40062714 295.2632751
vertex -68.56128693 48.34275055 295.1197815
vertex -68.4119873 48.56412506 295.26297

endloop
endfacet
facet normal 0.5673864484 -0.6815596819 0.4621137083
outer loop
vertex -68.4119873 48.56412506 295.26297
vertex -68.56128693 48.34275055 295.1197815
vertex -68.36402893 48.50673676 295.1194458

endloop
endfacet
facet normal 0.5747849345 -0.6753416061 0.4620996416
outer loop
vertex -68.4119873 48.56412506 295.26297
vertex -68.36402893 48.50673676 295.1194458
vertex -68.21677399 48.73012543 295.2627563

endloop
endfacet
facet normal 0.5745919347 -0.6753553748 0.4623194635
outer loop
vertex -68.21677399 48.73012543 295.2627563
vertex -68.36402893 48.50673676 295.1194458
vertex -68.16819 48.67321014 295.1192322

endloop
endfacet
facet normal 0.5793420672 -0.6712883711 0.4623145461
outer loop
vertex -68.21677399 48.73012543 295.2627563
vertex -68.16819 48.67321014 295.1192322
vertex -68.02207184 48.89803314 295.2625732

endloop
endfacet
facet normal 0.5792199969 -0.6712977886 0.4624537826
outer loop
vertex -68.02207184 48.89803314 295.2625732
vertex -68.16819 48.67321014 295.1192322
vertex -67.97322083 48.84133148 295.1190796

endloop
endfacet
facet normal 0.5797921419 -0.6708039641 0.4624534249
outer loop
vertex -68.02207184 48.89803314 295.2625732
vertex -67.97322083 48.84133148 295.1190796
vertex -67.82693481 49.06650543 295.2622986

endloop
endfacet
facet normal 0.5799446702 -0.670792222 0.4622791111
outer loop
vertex -67.82693481 49.06650543 295.2622986
vertex -67.97322083 48.84133148 295.1190796
vertex -67.77811432 49.00980377 295.1187744

endloop
endfacet
facet normal 0.5733744502 -0.6764624119 0.4622123837
outer loop
vertex -67.82691956 49.06652069 295.2623291
vertex -67.77809906 49.00983429 295.1188049
vertex -67.62496948 49.24036407 295.2662354

endloop
endfacet
facet normal 0.572881341 -0.6764951944 0.4627756178
outer loop
vertex -67.62496948 49.24036407 295.2662354
vertex -67.77809906 49.00983429 295.1188049
vertex -67.57466888 49.18488312 295.1228638

endloop
endfacet
facet normal 0.5539520383 -0.6924046278 0.4622909725
outer loop
vertex -67.62496948 49.24036407 295.2662354
vertex -67.57466888 49.18488312 295.1228638
vertex -67.40237427 49.43558502 295.2919006

endloop
endfacet
facet normal 0.5425868034 -0.6929839849 0.4747343659
outer loop
vertex -67.40237427 49.43558502 295.2919006
vertex -67.57466888 49.18488312 295.1228638
vertex -67.342659 49.38562775 295.1507263

endloop
endfacet
facet normal 0.55749017 -0.6798856854 0.4764033556
outer loop
vertex -67.40237427 49.43558502 295.2919006
vertex -67.342659 49.38562775 295.1507263
vertex -67.23484039 49.61611176 295.3534851

endloop
endfacet
facet normal 0.4603920579 -0.6979407072 0.5485599041
outer loop
vertex -67.23484039 49.61611176 295.3534851
vertex -67.342659 49.38562775 295.1507263
vertex -67.15314484 49.56839752 295.2242126

endloop
endfacet
facet normal 0.4609498382 -0.6974403858 0.5487277508
outer loop
vertex -67.23484039 49.61611176 295.3534851
vertex -67.15314484 49.56839752 295.2242126
vertex -67.10725403 49.77527618 295.4486084

endloop
endfacet
facet normal 0.3274958432 -0.7271091342 0.6033728719
outer loop
vertex -67.10725403 49.77527618 295.4486084
vertex -67.15314484 49.56839752 295.2242126
vertex -67.00550842 49.72603607 295.3340454

endloop
endfacet
facet normal 0.4004989266 -0.6574358344 0.6382621527
outer loop
vertex -67.10725403 49.77527618 295.4486084
vertex -67.00550842 49.72603607 295.3340454
vertex -66.94866943 49.92787933 295.5062866

endloop
endfacet
facet normal 0.4279317856 -0.6533883214 0.6244661808
outer loop
vertex -66.94866943 49.92787933 295.5062866
vertex -67.00550842 49.72603607 295.3340454
vertex -66.85891724 49.88069916 295.3954163

endloop
endfacet
facet normal 0.5030072927 -0.5700448155 0.6496403217
outer loop
vertex -66.94866943 49.92787933 295.5063171
vertex -66.85892487 49.8806839 295.3954163
vertex -66.76594543 50.06536102 295.4854736

endloop
endfacet
facet normal 0.6571394205 -0.5708747506 0.4922090471
outer loop
vertex -66.76594543 50.06536102 295.4854736
vertex -66.85892487 49.8806839 295.3954163
vertex -66.70723724 50.02361298 295.3586731

endloop
endfacet
facet normal 0.8926474452 0.3331825733 0.3035948873
outer loop
vertex -66.76594543 50.06536102 295.4854736
vertex -66.70723724 50.02361298 295.3586731
vertex -66.79190826 50.32195282 295.2802124

endloop
endfacet
facet normal -0.6796398759 0 0.733545959
outer loop
vertex -66.79190826 50.32195282 295.2802124
vertex -66.70723724 50.02361298 295.3586731
vertex -66.79190826 50.32196808 295.2802124

endloop
endfacet
facet normal -0.4917241335 -0.7234168649 0.4846394658
outer loop
vertex -70.3427887 47.32508087 295.0308228
vertex -70.34279633 47.32506561 295.0307922
vertex -70.08056641 47.18775177 295.0918884

endloop
endfacet
facet normal -0.4621773362 -0.8867393732 -0.009245335124
outer loop
vertex -70.08056641 47.18775177 295.0918884
vertex -70.34279633 47.32506561 295.0307922
vertex -70.08366394 47.19086456 294.9481812

endloop
endfacet
facet normal 0.528073132 -0.8486770988 -0.02976523526
outer loop
vertex -70.08056641 47.18775177 295.0918884
vertex -70.08366394 47.19086456 294.9481812
vertex -69.93751526 47.27591705 295.1159973

endloop
endfacet
facet normal 0.4798549116 -0.8769459128 0.02655446157
outer loop
vertex -69.93751526 47.27591705 295.1159973
vertex -70.08366394 47.19086456 294.9481812
vertex -69.93495941 47.27268219 294.9629822

endloop
endfacet
facet normal 0.5282235742 -0.8486833572 0.02676489018
outer loop
vertex -69.93751526 47.27591705 295.1159973
vertex -69.93495941 47.27268219 294.9629822
vertex -69.75842285 47.38755035 295.1212463

endloop
endfacet
facet normal 0.5275186896 -0.8490869999 0.02784411795
outer loop
vertex -69.75842285 47.38755035 295.1212463
vertex -69.93495941 47.27268219 294.9629822
vertex -69.75572968 47.3839035 294.9590149

endloop
endfacet
facet normal 0.6035507321 -0.7968351841 0.02793174237
outer loop
vertex -69.75842285 47.38755035 295.1212463
vertex -69.75572968 47.3839035 294.9590149
vertex -69.56153107 47.5366745 295.1210022

endloop
endfacet
facet normal 0.6035966873 -0.7968033552 0.02784665301
outer loop
vertex -69.56153107 47.5366745 295.1210022
vertex -69.75572968 47.3839035 294.9590149
vertex -69.55886078 47.53302765 294.9587708

endloop
endfacet
facet normal 0.6145745516 -0.7883674502 0.02783769369
outer loop
vertex -69.56153107 47.5366745 295.1210022
vertex -69.55886078 47.53302765 294.9587708
vertex -69.35947418 47.69417572 295.120636

endloop
endfacet
facet normal 0.6147193909 -0.7882643342 0.02755679563
outer loop
vertex -69.35947418 47.69417572 295.120636
vertex -69.55886078 47.53302765 294.9587708
vertex -69.35680389 47.6905899 294.9584961

endloop
endfacet
facet normal 0.6250060201 -0.7801337838 0.02754634619
outer loop
vertex -69.35947418 47.69417572 295.120636
vertex -69.35680389 47.6905899 294.9584961
vertex -69.15930176 47.85453033 295.1202393

endloop
endfacet
facet normal 0.6252481937 -0.7799562812 0.02707089111
outer loop
vertex -69.15930176 47.85453033 295.1202393
vertex -69.35680389 47.6905899 294.9584961
vertex -69.15671539 47.85097504 294.9580688

endloop
endfacet
facet normal 0.6311069131 -0.7752236724 0.02706056833
outer loop
vertex -69.15930176 47.85453033 295.1202393
vertex -69.15671539 47.85097504 294.9580688
vertex -68.95960236 48.01709747 295.1200256

endloop
endfacet
facet normal 0.6308973432 -0.7753795981 0.02747557499
outer loop
vertex -68.95960236 48.01709747 295.1200256
vertex -69.15671539 47.85097504 294.9580688
vertex -68.95693207 48.01352692 294.9579468

endloop
endfacet
facet normal 0.6321661472 -0.7743481398 0.02740088478
outer loop
vertex -68.95960236 48.01708221 295.1200256
vertex -68.95693207 48.01352692 294.9579468
vertex -68.75987244 48.18013763 295.1199951

endloop
endfacet
facet normal 0.6320679784 -0.7744214535 0.02759576403
outer loop
vertex -68.75987244 48.18013763 295.1199951
vertex -68.95693207 48.01352692 294.9579468
vertex -68.75713348 48.1765976 294.9579163

endloop
endfacet
facet normal 0.6333292127 -0.7733904123 0.02759453654
outer loop
vertex -68.75987244 48.18013763 295.1199951
vertex -68.75713348 48.1765976 294.9579163
vertex -68.56128693 48.34275055 295.119751

endloop
endfacet
facet normal 0.6333225369 -0.7733953595 0.02760771103
outer loop
vertex -68.56128693 48.34275055 295.119751
vertex -68.75713348 48.1765976 294.9579163
vertex -68.55856323 48.33919525 294.9576721

endloop
endfacet
facet normal 0.639059782 -0.7686647177 0.02751579508
outer loop
vertex -68.56128693 48.34275055 295.1197815
vertex -68.55854797 48.33922577 294.9577026
vertex -68.36402893 48.50673676 295.1194458

endloop
endfacet
facet normal 0.6390861869 -0.7686446905 0.02746318281
outer loop
vertex -68.36402893 48.50673676 295.1194458
vertex -68.55854797 48.33922577 294.9577026
vertex -68.36128235 48.50322723 294.9573059

endloop
endfacet
facet normal 0.6474449635 -0.7616176009 0.02745267563
outer loop
vertex -68.36402893 48.50673676 295.1194458
vertex -68.36128235 48.50322723 294.9573059
vertex -68.16819 48.67321014 295.1192322

endloop
endfacet
facet normal 0.6474155188 -0.7616405487 0.02751182951
outer loop
vertex -68.16819 48.67321014 295.1192322
vertex -68.36128235 48.50322723 294.9573059
vertex -68.16537476 48.6697464 294.9570923

endloop
endfacet
facet normal 0.6528038979 -0.757027328 0.02750682458
outer loop
vertex -68.16819 48.67321014 295.1192322
vertex -68.16537476 48.6697464 294.9570923
vertex -67.97322083 48.84133148 295.1190796

endloop
endfacet
facet normal 0.6527253985 -0.7570891976 0.02766554803
outer loop
vertex -67.97322083 48.84133148 295.1190796
vertex -68.16537476 48.6697464 294.9570923
vertex -67.97036743 48.83786774 294.9569702

endloop
endfacet
facet normal 0.6533305645 -0.7565671206 0.02766505629
outer loop
vertex -67.97322083 48.84133148 295.1190796
vertex -67.97036743 48.83786774 294.9569702
vertex -67.77811432 49.00980377 295.1187744

endloop
endfacet
facet normal 0.6533535719 -0.7565489411 0.02761847712
outer loop
vertex -67.77811432 49.00980377 295.1187744
vertex -67.97036743 48.83786774 294.9569702
vertex -67.77529144 49.00632477 294.9566956

endloop
endfacet
facet normal 0.6516856551 -0.7579863071 0.02761509083
outer loop
vertex -67.77809906 49.00983429 295.1188049
vertex -67.77527618 49.00635529 294.9566956
vertex -67.57466888 49.18488312 295.1228638

endloop
endfacet
facet normal 0.6515772939 -0.7580712438 0.02783721127
outer loop
vertex -67.57466888 49.18488312 295.1228638
vertex -67.77527618 49.00635529 294.9566956
vertex -67.57025146 49.18273163 294.9608765

endloop
endfacet
facet normal 0.6521467566 -0.7575811148 0.02784621529
outer loop
vertex -67.57466888 49.18488312 295.1228638
vertex -67.57025146 49.18273163 294.9608765
vertex -67.342659 49.38562775 295.1507263

endloop
endfacet
facet normal 0.6451934576 -0.7628729343 0.04183722287
outer loop
vertex -67.342659 49.38562775 295.1507263
vertex -67.57025146 49.18273163 294.9608765
vertex -67.32758331 49.38956451 294.9900208

endloop
endfacet
facet normal 0.684069097 -0.727943778 0.04633979872
outer loop
vertex -67.342659 49.38562775 295.1507263
vertex -67.32758331 49.38956451 294.9900208
vertex -67.15314484 49.56839752 295.2242126

endloop
endfacet
facet normal 0.6179380417 -0.7751297355 0.1316297501
outer loop
vertex -67.15314484 49.56839752 295.2242126
vertex -67.32758331 49.38956451 294.9900208
vertex -67.11173248 49.57512665 295.0694275

endloop
endfacet
facet normal 0.6686825752 -0.7288280129 0.1472191811
outer loop
vertex -67.15314484 49.56839752 295.2242126
vertex -67.11173248 49.57512665 295.0694275
vertex -67.00550842 49.72603607 295.3340454

endloop
endfacet
facet normal 0.5641144514 -0.7940535545 0.2263930291
outer loop
vertex -67.00550842 49.72603607 295.3340454
vertex -67.11173248 49.57512665 295.0694275
vertex -66.93831635 49.73203278 295.1876526

endloop
endfacet
facet normal 0.6445347071 -0.7166348696 0.2664760053
outer loop
vertex -67.00550842 49.72603607 295.3340454
vertex -66.93831635 49.73203278 295.1876526
vertex -66.85891724 49.88069916 295.3954163

endloop
endfacet
facet normal 0.6689775586 -0.7013294697 0.2461830676
outer loop
vertex -66.85891724 49.88069916 295.3954163
vertex -66.93831635 49.73203278 295.1876526
vertex -66.80169678 49.88652802 295.2565308

endloop
endfacet
facet normal 0.6949259043 -0.6711493731 0.2581403255
outer loop
vertex -66.85892487 49.8806839 295.3954163
vertex -66.80170441 49.88651276 295.2565308
vertex -66.70723724 50.02361298 295.3586731

endloop
endfacet
facet normal 0.8038003445 -0.5926187634 0.05203937739
outer loop
vertex -66.70723724 50.02361298 295.3586731
vertex -66.80170441 49.88651276 295.2565308
vertex -66.68873596 50.03636932 295.2181702

endloop
endfacet
facet normal 0.9397113323 0.3065431714 0.1515714675
outer loop
vertex -66.70723724 50.02361298 295.3586731
vertex -66.68873596 50.03636932 295.2181702
vertex -66.79190826 50.32196808 295.2802124

endloop
endfacet
facet normal 0.9108581543 0.369169414 -0.1845301241
outer loop
vertex -66.79190826 50.32196808 295.2802124
vertex -66.68873596 50.03636932 295.2181702
vertex -66.79190826 50.32195282 295.2801819

endloop
endfacet
facet normal -nan(ind) -nan(ind) -nan(ind)
outer loop
vertex -70.34279633 47.32506561 295.0307922
vertex -70.34279633 47.32506561 295.0307922
vertex -70.08366394 47.19086456 294.9481812

endloop
endfacet
facet normal -0.4941140413 -0.8540796041 -0.1624790281
outer loop
vertex -70.08366394 47.19086456 294.9481812
vertex -70.34279633 47.32506561 295.0307922
vertex -70.12926483 47.24048615 294.8260193

endloop
endfacet
facet normal 0.4598144889 -0.749587059 -0.4761195481
outer loop
vertex -70.08366394 47.19086456 294.9481812
vertex -70.12926483 47.24048615 294.8260193
vertex -69.93495941 47.27268219 294.9629822

endloop
endfacet
facet normal 0.4279330075 -0.8009111881 -0.4188253582
outer loop
vertex -69.93495941 47.27268219 294.9629822
vertex -70.12926483 47.24048615 294.8260193
vertex -69.97663879 47.32363129 294.8229675

endloop
endfacet
facet normal 0.4712427258 -0.7744491696 -0.422088623
outer loop
vertex -69.93495941 47.27268219 294.9629822
vertex -69.97663879 47.32363129 294.8229675
vertex -69.75572968 47.3839035 294.9590149

endloop
endfacet
facet normal 0.4716656506 -0.7736148834 -0.4231449366
outer loop
vertex -69.75572968 47.3839035 294.9590149
vertex -69.97663879 47.32363129 294.8229675
vertex -69.79793549 47.4394455 294.8104248

endloop
endfacet
facet normal 0.5462383032 -0.7218219042 -0.4249668717
outer loop
vertex -69.75572968 47.3839035 294.9590149
vertex -69.79793549 47.4394455 294.8104248
vertex -69.55886078 47.53302765 294.9587708

endloop
endfacet
facet normal 0.5462937355 -0.7216714025 -0.4251511395
outer loop
vertex -69.55886078 47.53302765 294.9587708
vertex -69.79793549 47.4394455 294.8104248
vertex -69.60118103 47.58849335 294.8102417

endloop
endfacet
facet normal 0.5562314391 -0.7140488625 -0.4251361787
outer loop
vertex -69.55886078 47.53302765 294.9587708
vertex -69.60118103 47.58849335 294.8102417
vertex -69.35680389 47.6905899 294.9584961

endloop
endfacet
facet normal 0.5562844276 -0.7138907313 -0.4253325462
outer loop
vertex -69.35680389 47.6905899 294.9584961
vertex -69.60118103 47.58849335 294.8102417
vertex -69.40007782 47.74530792 294.8100586

endloop
endfacet
facet normal 0.5654943585 -0.7066156268 -0.4253357053
outer loop
vertex -69.35680389 47.6905899 294.9584961
vertex -69.40007782 47.74530792 294.8100586
vertex -69.15671539 47.85097504 294.9580688

endloop
endfacet
facet normal 0.5655744076 -0.7063642144 -0.4256467819
outer loop
vertex -69.15671539 47.85097504 294.9580688
vertex -69.40007782 47.74530792 294.8100586
vertex -69.20075226 47.90514374 294.8096619

endloop
endfacet
facet normal 0.570939362 -0.7020290494 -0.4256563783
outer loop
vertex -69.15671539 47.85097504 294.9580688
vertex -69.20075226 47.90514374 294.8096619
vertex -68.95693207 48.01352692 294.9579468

endloop
endfacet
facet normal 0.5709125996 -0.7021164298 -0.4255483747
outer loop
vertex -68.95693207 48.01352692 294.9579468
vertex -69.20075226 47.90514374 294.8096619
vertex -69.00118256 48.06751251 294.8095093

endloop
endfacet
facet normal 0.5721393228 -0.7010801435 -0.4256092608
outer loop
vertex -68.95693207 48.01352692 294.9579468
vertex -69.00118256 48.06752777 294.8095093
vertex -68.75713348 48.1765976 294.9579163

endloop
endfacet
facet normal 0.5720949769 -0.7012252212 -0.4254297316
outer loop
vertex -68.75713348 48.1765976 294.9579163
vertex -69.00118256 48.06752777 294.8095093
vertex -68.80134583 48.23058319 294.8094788

endloop
endfacet
facet normal 0.5730383396 -0.7004542947 -0.425430268
outer loop
vertex -68.75713348 48.1765976 294.9579163
vertex -68.80134583 48.23058319 294.8094788
vertex -68.55856323 48.33919525 294.9576721

endloop
endfacet
facet normal 0.5730091929 -0.7005493641 -0.4253128469
outer loop
vertex -68.55856323 48.33919525 294.9576721
vertex -68.80134583 48.23058319 294.8094788
vertex -68.60296631 48.393013 294.8092041

endloop
endfacet
facet normal 0.5781026483 -0.6963870525 -0.4252558351
outer loop
vertex -68.55854797 48.33922577 294.9577026
vertex -68.60295105 48.39302826 294.8092346
vertex -68.36128235 48.50322723 294.9573059

endloop
endfacet
facet normal 0.5781149268 -0.6963459253 -0.4253064394
outer loop
vertex -68.36128235 48.50322723 294.9573059
vertex -68.60295105 48.39302826 294.8092346
vertex -68.40621185 48.55658722 294.8088684

endloop
endfacet
facet normal 0.585878253 -0.6898236275 -0.4253116548
outer loop
vertex -68.36128235 48.50322723 294.9573059
vertex -68.40621185 48.55658722 294.8088684
vertex -68.16537476 48.6697464 294.9570923

endloop
endfacet
facet normal 0.5858970284 -0.6897580624 -0.4253921509
outer loop
vertex -68.16537476 48.6697464 294.9570923
vertex -68.40621185 48.55658722 294.8088684
vertex -68.21084595 48.72264862 294.8086853

endloop
endfacet
facet normal 0.5907851458 -0.685572505 -0.4253978729
outer loop
vertex -68.16537476 48.6697464 294.9570923
vertex -68.21084595 48.72264862 294.8086853
vertex -67.97036743 48.83786774 294.9569702

endloop
endfacet
facet normal 0.5907535553 -0.6856863499 -0.425258249
outer loop
vertex -67.97036743 48.83786774 294.9569702
vertex -68.21084595 48.72264862 294.8086853
vertex -68.01605225 48.89058685 294.8085022

endloop
endfacet
facet normal 0.5911943316 -0.6853060126 -0.4252587855
outer loop
vertex -67.97036743 48.83786774 294.9569702
vertex -68.01605225 48.89058685 294.8085022
vertex -67.77529144 49.00632477 294.9566956

endloop
endfacet
facet normal 0.5912547708 -0.6850864291 -0.4255284667
outer loop
vertex -67.77529144 49.00632477 294.9566956
vertex -68.01605225 48.89058685 294.8085022
vertex -67.82098389 49.05908966 294.8082581

endloop
endfacet
facet normal 0.5951333642 -0.6817122102 -0.4255404174
outer loop
vertex -67.77527618 49.00635529 294.9566956
vertex -67.82096863 49.05910492 294.8082886
vertex -67.57025146 49.18273163 294.9608765

endloop
endfacet
facet normal 0.5951018333 -0.6818332672 -0.4253905714
outer loop
vertex -67.57025146 49.18273163 294.9608765
vertex -67.82096863 49.05910492 294.8082886
vertex -67.61454773 49.23664093 294.8125

endloop
endfacet
facet normal 0.6162256598 -0.6631198525 -0.4248977602
outer loop
vertex -67.57025146 49.18273163 294.9608765
vertex -67.61454773 49.23664093 294.8125
vertex -67.32758331 49.38956451 294.9900208

endloop
endfacet
facet normal 0.6138222814 -0.6732136607 -0.4123173952
outer loop
vertex -67.32758331 49.38956451 294.9900208
vertex -67.61454773 49.23664093 294.8125
vertex -67.36210632 49.44890594 294.8417358

endloop
endfacet
facet normal 0.67726928 -0.6150211096 -0.4038010836
outer loop
vertex -67.32758331 49.38956451 294.9900208
vertex -67.36210632 49.44890594 294.8417358
vertex -67.11173248 49.57512665 295.0694275

endloop
endfacet
facet normal 0.64494735 -0.6911903024 -0.3260348439
outer loop
vertex -67.11173248 49.57512665 295.0694275
vertex -67.36210632 49.44890594 294.8417358
vertex -67.12078094 49.63730621 294.9197083

endloop
endfacet
facet normal 0.7437115312 -0.6002628207 -0.2942409217
outer loop
vertex -67.11173248 49.57512665 295.0694275
vertex -67.12078094 49.63730621 294.9197083
vertex -66.93831635 49.73203278 295.1876526

endloop
endfacet
facet normal 0.6791291237 -0.7020459771 -0.2142781615
outer loop
vertex -66.93831635 49.73203278 295.1876526
vertex -67.12078094 49.63730621 294.9197083
vertex -66.92089844 49.79453278 295.0380859

endloop
endfacet
facet normal 0.7742107511 -0.6109992266 -0.1651592851
outer loop
vertex -66.93831635 49.73203278 295.1876526
vertex -66.92089844 49.79453278 295.0380859
vertex -66.80169678 49.88652802 295.2565308

endloop
endfacet
facet normal 0.789789319 -0.5849282146 -0.1846397519
outer loop
vertex -66.80169678 49.88652802 295.2565308
vertex -66.92089844 49.79453278 295.0380859
vertex -66.79000092 49.94637299 295.1169739

endloop
endfacet
facet normal 0.756097734 -0.6220474243 -0.2034043968
outer loop
vertex -66.80170441 49.88651276 295.2565308
vertex -66.79000854 49.94637299 295.1169434
vertex -66.68873596 50.03636932 295.2181702

endloop
endfacet
facet normal 0.79729563 -0.4668020904 -0.3826427758
outer loop
vertex -66.68873596 50.03636932 295.2181702
vertex -66.79000854 49.94637299 295.1169434
vertex -66.71165466 50.09723663 295.0961609

endloop
endfacet
facet normal 0.9400379658 0.3410087228 -0.006459870841
outer loop
vertex -66.68873596 50.03636932 295.2181702
vertex -66.71165466 50.09723663 295.0961609
vertex -66.79190826 50.32195282 295.2801819

endloop
endfacet
facet normal 0.851862669 0.4785654247 -0.2128499895
outer loop
vertex -66.79190826 50.32195282 295.2801819
vertex -66.71165466 50.09723663 295.0961609
vertex -66.79191589 50.32195282 295.2801514

endloop
endfacet
facet normal -0.5965415835 0.2982707918 -0.7450991869
outer loop
vertex -70.34280396 47.32505035 295.0307922
vertex -70.34279633 47.32506561 295.0307922
vertex -70.12928009 47.24048615 294.8259888

endloop
endfacet
facet normal -0.5734611154 -0.7699378133 -0.2798894346
outer loop
vertex -70.12928009 47.24048615 294.8259888
vertex -70.34279633 47.32506561 295.0307922
vertex -70.21816254 47.33763885 294.7408447

endloop
endfacet
facet normal 0.2535298765 -0.4959244728 -0.8305308819
outer loop
vertex -70.12928009 47.24048615 294.8259888
vertex -70.21816254 47.33763885 294.7408447
vertex -69.97663879 47.32363129 294.822937

endloop
endfacet
facet normal 0.2362058312 -0.5641062856 -0.7911958694
outer loop
vertex -69.97663879 47.32363129 294.822937
vertex -70.21816254 47.33763885 294.7408447
vertex -70.06808472 47.43570709 294.7157288

endloop
endfacet
facet normal 0.2870410681 -0.5294367075 -0.7983133197
outer loop
vertex -69.97663879 47.32363129 294.822937
vertex -70.06808472 47.43570709 294.7157288
vertex -69.79793549 47.43943024 294.8103943

endloop
endfacet
facet normal 0.2875624299 -0.5267412663 -0.7999072075
outer loop
vertex -69.79793549 47.43943024 294.8103943
vertex -70.06808472 47.43570709 294.7157288
vertex -69.8907547 47.56180573 294.6964417

endloop
endfacet
facet normal 0.3594126105 -0.475225389 -0.803108573
outer loop
vertex -69.79793549 47.43943024 294.8103943
vertex -69.8907547 47.56180573 294.6964417
vertex -69.60118103 47.58849335 294.8102417

endloop
endfacet
facet normal 0.3594200313 -0.475163132 -0.8031420708
outer loop
vertex -69.60118103 47.58849335 294.8102417
vertex -69.8907547 47.56180573 294.6964417
vertex -69.69424438 47.71065521 294.6963196

endloop
endfacet
facet normal 0.3658055663 -0.470286727 -0.8031292558
outer loop
vertex -69.60118103 47.58849335 294.8102417
vertex -69.69424438 47.71065521 294.6963196
vertex -69.40008545 47.7452774 294.8100281

endloop
endfacet
facet normal 0.3658328354 -0.4699914455 -0.8032897115
outer loop
vertex -69.40008545 47.7452774 294.8100281
vertex -69.69424438 47.71065521 294.6963196
vertex -69.49514771 47.8658371 294.6961975

endloop
endfacet
facet normal 0.3716202676 -0.4654282629 -0.8032900095
outer loop
vertex -69.40008545 47.7452774 294.8100281
vertex -69.49514771 47.8658371 294.6961975
vertex -69.20075989 47.90511322 294.8096313

endloop
endfacet
facet normal 0.3716543317 -0.4649812281 -0.8035331368
outer loop
vertex -69.20075989 47.90511322 294.8096313
vertex -69.49514771 47.8658371 294.6961975
vertex -69.29733276 48.0245285 294.6958618

endloop
endfacet
facet normal 0.3753189445 -0.4620213807 -0.8035371304
outer loop
vertex -69.20075989 47.90511322 294.8096313
vertex -69.29733276 48.0245285 294.6958618
vertex -69.00119019 48.06749725 294.8094788

endloop
endfacet
facet normal 0.3753033876 -0.4622640908 -0.803404808
outer loop
vertex -69.00119019 48.06749725 294.8094788
vertex -69.29733276 48.0245285 294.6958618
vertex -69.09833527 48.186409 294.6956787

endloop
endfacet
facet normal 0.3763647377 -0.4614138007 -0.8033970594
outer loop
vertex -69.00119019 48.06751251 294.8094788
vertex -69.09832764 48.18642426 294.6956787
vertex -68.80135345 48.23056793 294.8094482

endloop
endfacet
facet normal 0.3763529062 -0.4616087675 -0.8032906055
outer loop
vertex -68.80135345 48.23056793 294.8094482
vertex -69.09832764 48.18642426 294.6956787
vertex -68.89852142 48.3494339 294.6956177

endloop
endfacet
facet normal 0.3767133355 -0.4613143504 -0.8032907844
outer loop
vertex -68.80135345 48.23056793 294.8094482
vertex -68.89852142 48.3494339 294.6956177
vertex -68.60296631 48.39299774 294.8092041

endloop
endfacet
facet normal 0.376709193 -0.4613812268 -0.8032543063
outer loop
vertex -68.60296631 48.39299774 294.8092041
vertex -68.89852142 48.3494339 294.6956177
vertex -68.70052338 48.51157379 294.695343

endloop
endfacet
facet normal 0.379927218 -0.4587564468 -0.8032420874
outer loop
vertex -68.60295105 48.393013 294.8092346
vertex -68.70051575 48.51157379 294.6953735
vertex -68.40621185 48.55658722 294.8088684

endloop
endfacet
facet normal 0.3799463212 -0.4584200382 -0.8034250736
outer loop
vertex -68.40621185 48.55658722 294.8088684
vertex -68.70051575 48.51157379 294.6953735
vertex -68.50494385 48.67420197 294.6950684

endloop
endfacet
facet normal 0.3851840794 -0.4540248513 -0.8034268618
outer loop
vertex -68.40621185 48.55658722 294.8088684
vertex -68.50494385 48.67420197 294.6950684
vertex -68.21085358 48.72264862 294.8086853

endloop
endfacet
facet normal 0.3851706088 -0.4543227851 -0.8032649159
outer loop
vertex -68.21085358 48.72264862 294.8086853
vertex -68.50494385 48.67420197 294.6950684
vertex -68.31078339 48.83924103 294.6948242

endloop
endfacet
facet normal 0.3884855211 -0.4514851272 -0.8032684326
outer loop
vertex -68.21085358 48.72264862 294.8086853
vertex -68.31078339 48.83924103 294.6948242
vertex -68.01605988 48.89058685 294.8085022

endloop
endfacet
facet normal 0.3884876668 -0.4514245689 -0.8033015132
outer loop
vertex -68.01605988 48.89058685 294.8085022
vertex -68.31078339 48.83924103 294.6948242
vertex -68.11647797 49.00678253 294.6946411

endloop
endfacet
facet normal 0.3887071908 -0.4512350261 -0.803301692
outer loop
vertex -68.01605988 48.89058685 294.8085022
vertex -68.11647797 49.00678253 294.6946411
vertex -67.82099152 49.05905914 294.8082581

endloop
endfacet
facet normal 0.3887199461 -0.4508477151 -0.8035129309
outer loop
vertex -67.82099152 49.05905914 294.8082581
vertex -68.11647797 49.00678253 294.6946411
vertex -67.92144012 49.17527008 294.694458

endloop
endfacet
facet normal 0.3975770175 -0.4431824088 -0.8034437299
outer loop
vertex -67.82097626 49.05908966 294.8082886
vertex -67.92142487 49.17528534 294.6944885
vertex -67.61454773 49.23664093 294.8125

endloop
endfacet
facet normal 0.3975766599 -0.4432162344 -0.8034252524
outer loop
vertex -67.61454773 49.23664093 294.8125
vertex -67.92142487 49.17528534 294.6944885
vertex -67.71403503 49.35363007 294.6987305

endloop
endfacet
facet normal 0.4363828897 -0.4085149765 -0.801676631
outer loop
vertex -67.61454773 49.23664093 294.8125
vertex -67.71403503 49.35363007 294.6987305
vertex -67.36212921 49.44890594 294.8417358

endloop
endfacet
facet normal 0.4371069968 -0.4235801399 -0.7934213281
outer loop
vertex -67.36212921 49.44890594 294.8417358
vertex -67.71403503 49.35363007 294.6987305
vertex -67.45405579 49.56989288 294.7265015

endloop
endfacet
facet normal 0.5219717026 -0.3459774256 -0.7796442509
outer loop
vertex -67.36212921 49.44890594 294.8417358
vertex -67.45405579 49.56989288 294.7265015
vertex -67.12078857 49.63730621 294.9197083

endloop
endfacet
facet normal 0.5143550038 -0.4493106008 -0.7304512262
outer loop
vertex -67.12078857 49.63730621 294.9197083
vertex -67.45405579 49.56989288 294.7265015
vertex -67.19134521 49.76084137 294.7940369

endloop
endfacet
facet normal 0.6563879251 -0.3200780749 -0.6831580997
outer loop
vertex -67.12078857 49.63730621 294.9197083
vertex -67.19134521 49.76084137 294.7940369
vertex -66.9209137 49.79453278 295.0380859

endloop
endfacet
facet normal 0.6274770498 -0.4539061189 -0.6326466799
outer loop
vertex -66.9209137 49.79453278 295.0380859
vertex -67.19134521 49.76084137 294.7940369
vertex -66.96728516 49.91962433 294.9023438

endloop
endfacet
facet normal 0.7443950176 -0.3446604609 -0.5719136
outer loop
vertex -66.9209137 49.79453278 295.0380859
vertex -66.96728516 49.91962433 294.9023438
vertex -66.79000854 49.94635773 295.1169739

endloop
endfacet
facet normal 0.7510982752 -0.3127166927 -0.5814290047
outer loop
vertex -66.79000854 49.94635773 295.1169739
vertex -66.96728516 49.91962433 294.9023438
vertex -66.83608246 50.06606293 294.9930725

endloop
endfacet
facet normal 0.6389408708 -0.4206359386 -0.6440652609
outer loop
vertex -66.79000854 49.94635773 295.1169434
vertex -66.83609772 50.06606293 294.993042
vertex -66.71166992 50.09722137 295.0961304

endloop
endfacet
facet normal 0.6541524529 -0.1906059086 -0.7319521904
outer loop
vertex -66.71166992 50.09722137 295.0961304
vertex -66.83609772 50.06606293 294.993042
vertex -66.77915192 50.20618439 295.0074463

endloop
endfacet
facet normal 0.8892748356 0.4345064163 -0.1428092718
outer loop
vertex -66.71166992 50.09722137 295.0961304
vertex -66.77915192 50.20618439 295.0074463
vertex -66.79191589 50.32193756 295.2801514

endloop
endfacet
facet normal 0.2274802178 -0.8925064802 0.3894673288
outer loop
vertex -66.79191589 50.32193756 295.2801514
vertex -66.77915192 50.20618439 295.0074463
vertex -66.79190826 50.32195282 295.2801819

endloop
endfacet
facet normal -nan(ind) -nan(ind) -nan(ind)
outer loop
vertex -70.34279633 47.32506561 295.0307922
vertex -70.34279633 47.32506561 295.0307922
vertex -70.21816254 47.33765411 294.7408752

endloop
endfacet
facet normal -0.7058846354 -0.6264132857 -0.3306556344
outer loop
vertex -70.21816254 47.33765411 294.7408752
vertex -70.34279633 47.32506561 295.0307922
vertex -70.38456726 47.51995087 294.7507629

endloop
endfacet
facet normal -0.1257784218 -0.06110683456 -0.9901745319
outer loop
vertex -70.21816254 47.33765411 294.7408752
vertex -70.38456726 47.51995087 294.7507629
vertex -70.06808472 47.43572235 294.7157593

endloop
endfacet
facet normal -0.1395706534 -0.1157349497 -0.9834253788
outer loop
vertex -70.06808472 47.43572235 294.7157593
vertex -70.38456726 47.51995087 294.7507629
vertex -70.24623871 47.65419769 294.715332

endloop
endfacet
facet normal -0.06780435145 -0.05723838881 -0.9960554242
outer loop
vertex -70.06808472 47.43572235 294.7157593
vertex -70.24623871 47.65419769 294.715332
vertex -69.8907547 47.56182098 294.6964417

endloop
endfacet
facet normal -0.0668822974 -0.05363642052 -0.9963182211
outer loop
vertex -69.8907547 47.56182098 294.6964417
vertex -70.24623871 47.65419769 294.715332
vertex -70.07173157 47.80052948 294.6957397

endloop
endfacet
facet normal 0.001118743094 -0.002092240844 -0.9999971986
outer loop
vertex -69.8907547 47.56182098 294.6964417
vertex -70.07173157 47.80052948 294.6957397
vertex -69.69424438 47.71065521 294.6963501

endloop
endfacet
facet normal 0.001118344837 -0.002093913965 -0.999997139
outer loop
vertex -69.69424438 47.71065521 294.6963501
vertex -70.07173157 47.80052948 294.6957397
vertex -69.87567139 47.94896698 294.6956482

endloop
endfacet
facet normal 0.001056061592 -0.002141330158 -0.999997139
outer loop
vertex -69.69424438 47.71065521 294.6963501
vertex -69.87567139 47.94896698 294.6956482
vertex -69.49514771 47.86585236 294.696228

endloop
endfacet
facet normal 0.001189900213 -0.001528583467 -0.9999980927
outer loop
vertex -69.49514771 47.86585236 294.696228
vertex -69.87567139 47.94896698 294.6956482
vertex -69.68039703 48.10097504 294.6956482

endloop
endfacet
facet normal 7.785920025e-05 -0.00240474008 -0.9999970794
outer loop
vertex -69.49514771 47.86585236 294.696228
vertex -69.68039703 48.10097504 294.6956482
vertex -69.29733276 48.02454376 294.6958618

endloop
endfacet
facet normal 0.0002907778835 -0.001337623107 -0.9999991059
outer loop
vertex -69.29733276 48.02454376 294.6958618
vertex -69.68039703 48.10097504 294.6956482
vertex -69.48539734 48.25743866 294.6954956

endloop
endfacet
facet normal 0.0002166014019 -0.001397521119 -0.9999990463
outer loop
vertex -69.29733276 48.02454376 294.6958618
vertex -69.48539734 48.25743866 294.6954956
vertex -69.09832764 48.186409 294.6956787

endloop
endfacet
facet normal 7.366354112e-05 -0.002176444512 -0.9999976754
outer loop
vertex -69.09832764 48.186409 294.6956787
vertex -69.48539734 48.25743866 294.6954956
vertex -69.28757477 48.41837311 294.6951599

endloop
endfacet
facet normal 0.0009121723706 -0.001492548035 -0.9999984503
outer loop
vertex -69.09832764 48.18642426 294.6956787
vertex -69.28757477 48.41835785 294.6951599
vertex -68.89851379 48.3494339 294.6956177

endloop
endfacet
facet normal 0.0007759673172 -0.00226138765 -0.9999970794
outer loop
vertex -68.89851379 48.3494339 294.6956177
vertex -69.28757477 48.41835785 294.6951599
vertex -69.08790588 48.58133698 294.6949463

endloop
endfacet
facet normal 0.0005894254427 -0.002413733164 -0.9999969006
outer loop
vertex -68.89851379 48.3494339 294.6956177
vertex -69.08790588 48.58133698 294.6949463
vertex -68.70051575 48.51157379 294.695343

endloop
endfacet
facet normal 0.000644411426 -0.002108403016 -0.9999975562
outer loop
vertex -68.70051575 48.51157379 294.695343
vertex -69.08790588 48.58133698 294.6949463
vertex -68.89060974 48.74295807 294.6947327

endloop
endfacet
facet normal 0.0003760178515 -0.002328926232 -0.9999972582
outer loop
vertex -68.70050812 48.51158905 294.6953735
vertex -68.89058685 48.74297333 294.6947632
vertex -68.50493622 48.67420197 294.6950684

endloop
endfacet
facet normal 0.000428586849 -0.002034136327 -0.9999977946
outer loop
vertex -68.50493622 48.67420197 294.6950684
vertex -68.89058685 48.74297333 294.6947632
vertex -68.69720459 48.90373993 294.694519

endloop
endfacet
facet normal 0.0004537391942 -0.002013067948 -0.9999978542
outer loop
vertex -68.50493622 48.67420197 294.6950684
vertex -68.69720459 48.90373993 294.694519
vertex -68.31078339 48.83924103 294.6948242

endloop
endfacet
facet normal 0.0004771522945 -0.001872798428 -0.9999980927
outer loop
vertex -68.31078339 48.83924103 294.6948242
vertex -68.69720459 48.90373993 294.694519
vertex -68.50546265 49.06665802 294.6943054

endloop
endfacet
facet normal 0.0005894495407 -0.001776667312 -0.9999982715
outer loop
vertex -68.31078339 48.83924103 294.6948242
vertex -68.50546265 49.06665802 294.6943054
vertex -68.11647797 49.00676727 294.6946411

endloop
endfacet
facet normal 0.00056479458 -0.001936797169 -0.9999979734
outer loop
vertex -68.11647797 49.00676727 294.6946411
vertex -68.50546265 49.06665802 294.6943054
vertex -68.31214142 49.23332977 294.6940918

endloop
endfacet
facet normal 0.0006619709893 -0.001852874295 -0.9999980927
outer loop
vertex -68.11647797 49.00676727 294.6946411
vertex -68.31214142 49.23332977 294.6940918
vertex -67.92144012 49.17527008 294.694458

endloop
endfacet
facet normal 0.0007079138886 -0.001543713268 -0.9999985695
outer loop
vertex -67.92144012 49.17527008 294.694458
vertex -68.31214142 49.23332977 294.6940918
vertex -68.11706543 49.4018631 294.6939697

endloop
endfacet
facet normal 0.01286700554 0.008819664828 -0.9998782873
outer loop
vertex -67.92142487 49.17528534 294.6944885
vertex -68.1170578 49.40187836 294.6939697
vertex -67.71403503 49.35363007 294.6987305

endloop
endfacet
facet normal 0.01279921923 0.008252850734 -0.999884069
outer loop
vertex -67.71403503 49.35363007 294.6987305
vertex -68.1170578 49.40187836 294.6939697
vertex -67.91001892 49.57993317 294.6980896

endloop
endfacet
facet normal 0.06324381381 0.05194824934 -0.9966451526
outer loop
vertex -67.71403503 49.35363007 294.6987305
vertex -67.91001892 49.57993317 294.6980896
vertex -67.45404816 49.56990814 294.7265015

endloop
endfacet
facet normal 0.06285628676 0.03186025098 -0.9975139499
outer loop
vertex -67.45404816 49.56990814 294.7265015
vertex -67.91001892 49.57993317 294.6980896
vertex -67.64990234 49.795784 294.7213745

endloop
endfacet
facet normal 0.1643034667 0.1202428639 -0.9790536761
outer loop
vertex -67.45404816 49.56990814 294.7265015
vertex -67.64990234 49.795784 294.7213745
vertex -67.19133759 49.76082611 294.7940369

endloop
endfacet
facet normal 0.1555449069 -0.01271813177 -0.987746954
outer loop
vertex -67.19133759 49.76082611 294.7940369
vertex -67.64990234 49.795784 294.7213745
vertex -67.38148499 49.98792267 294.7611694

endloop
endfacet
facet normal 0.3411790431 0.1513996869 -0.9277256727
outer loop
vertex -67.19133759 49.76082611 294.7940369
vertex -67.38148499 49.98792267 294.7611694
vertex -66.96729279 49.91960907 294.9023438

endloop
endfacet
facet normal 0.3207314312 -0.0125866821 -0.9470865726
outer loop
vertex -66.96729279 49.91960907 294.9023438
vertex -67.38148499 49.98792267 294.7611694
vertex -67.14575958 50.15055084 294.8388367

endloop
endfacet
facet normal 0.4689403772 0.1218276545 -0.8747873902
outer loop
vertex -66.96729279 49.91960907 294.9023438
vertex -67.14575958 50.15055084 294.8388367
vertex -66.83609009 50.06606293 294.9930725

endloop
endfacet
facet normal 0.4735108912 0.1516315043 -0.8676378131
outer loop
vertex -66.83609009 50.06606293 294.9930725
vertex -67.14575958 50.15055084 294.8388367
vertex -67.00076294 50.2869339 294.941803

endloop
endfacet
facet normal 0.2789471149 -0.01465667505 -0.9601945877
outer loop
vertex -66.83609772 50.06606293 294.993042
vertex -67.00076294 50.2869339 294.9418335
vertex -66.77915192 50.20619965 295.0074463

endloop
endfacet
facet normal 0.3660913408 0.2849448025 -0.885880053
outer loop
vertex -66.77915192 50.20619965 295.0074463
vertex -67.00076294 50.2869339 294.9418335
vertex -66.9315033 50.39937592 295.0066223

endloop
endfacet
facet normal 0.7663661242 0.6034667492 -0.2202515602
outer loop
vertex -66.77915192 50.20619965 295.0074463
vertex -66.9315033 50.39937592 295.0066223
vertex -66.79190826 50.32195282 295.2802124

endloop
endfacet
facet normal -0.4847338498 -0.8746617436 0
outer loop
vertex -66.79190826 50.32195282 295.2802124
vertex -66.9315033 50.39937592 295.0066223
vertex -66.79190826 50.32195282 295.2801819

endloop
endfacet
endsolid
